<?xml version="1.0" encoding="utf-8"?>
<!-- Generator: Adobe Illustrator 16.0.0, SVG Export Plug-In . SVG Version: 6.00 Build 0)  -->
<!DOCTYPE svg PUBLIC "-//W3C//DTD SVG 1.0//EN" "http://www.w3.org/TR/2001/REC-SVG-20010904/DTD/svg10.dtd" [
	<!ENTITY ns_flows "http://ns.adobe.com/Flows/1.0/">
	<!ENTITY ns_extend "http://ns.adobe.com/Extensibility/1.0/">
	<!ENTITY ns_ai "http://ns.adobe.com/AdobeIllustrator/10.0/">
	<!ENTITY ns_graphs "http://ns.adobe.com/Graphs/1.0/">
]>
<svg version="1.0" id="Layer_1" xmlns:x="&ns_extend;" xmlns:i="&ns_ai;" xmlns:graph="&ns_graphs;"
	 xmlns="http://www.w3.org/2000/svg" xmlns:xlink="http://www.w3.org/1999/xlink" xmlns:a="http://ns.adobe.com/AdobeSVGViewerExtensions/3.0/"
	 x="0px" y="0px" width="960px" height="560px" viewBox="0 0 960 560" style="enable-background:new 0 0 960 560;"
	 xml:space="preserve">
<g>
	<path style="fill-rule:evenodd;clip-rule:evenodd;fill:#231F20;" d="M486.92,273.67c-0.87-1.26-1.35-1.26-1.99,0.02
		c-0.62,1.24-2.86,1.68-4.41,0.86c-0.91-0.49-1.58-1.24-2.06-2.12c-0.57-1.04-1.45-1.08-2.2-0.5c-0.72,0.56-0.99,0.23-1.41-0.24
		c-0.37-0.42-0.86-0.94-1.41-0.74c-0.66,0.24-0.42,1.04-0.49,1.59c-0.75,6.57,0.22,13.17-0.36,19.75c-0.18,2.1,0.08,4.23,0.05,6.34
		c-0.01,0.84,0.4,1.01,1.05,1.07c0.43,0.04,0.87,0.1,1.3,0.18c0.96,0.16,1.49,0.59,1.59,1.7c0.15,1.74,0.86,3.4,0.81,5.19
		c-0.04,1.29-0.49,2.07-1.86,2.29c-3.42,0.57-6.74,0.54-9.9-1.15c-0.58-0.31-0.75-0.7-0.8-1.32c-0.14-2.06,0.33-3.95,1.32-5.75
		c0.48-0.87,1.09-1.5,2.15-1.43c0.49,0.03,0.56-0.08,0.57-0.58c0.07-4.55,0.26-9.09,0.28-13.64c0.02-3.43,0.11-6.9-0.35-10.28
		c-0.23-1.68-0.75-3.31-0.53-5.04c0.42-3.27,2.01-4.95,6.42-4.28c0.73,0.11,1.39,0.41,1.75,1.12c0.2,0.39,0.48,0.43,0.88,0.4
		c0.56-0.03,0.49-0.43,0.54-0.77c0.11-0.79,0.19-1.58,0.29-2.37c0.07-0.61,0.14-1.2,0.97-1.23c0.17-0.01,0.47-0.22,0.46-0.31
		c-0.19-1.38,1.19-2.32,0.93-3.83c-0.21-1.19-0.5-1.23-1.37-0.78c-0.5,0.25-1,0.49-1.52,0.72c-1.08,0.47-1.78,0.21-1.91-1.06
		c-0.03-0.32-0.08-0.63-0.11-0.95c-0.2-2.54-0.2-2.54,2.27-1.75c0.26,0.08,0.7,0.21,0.78,0.1c1.23-1.52,2.76-0.69,4.2-0.61
		c0.84,0.05,1.63,0.03,2.41-0.46c1.24-0.78,2.14-0.32,2.43,1.1c0.13,0.64,0.06,1.28-0.13,1.88c-0.25,0.81-0.76,1.24-1.63,0.76
		c-0.6-0.32-1.17-0.39-1.82-0.12c-1.27,0.53-1.55,1.99-0.54,2.96c0.03,0.03,0.08,0.05,0.09,0.08c0.63,1.8,2.31,3.25,1.73,5.45
		c-0.25,0.93,0.05,1.48,1.11,1.81c2.08,0.64,3.91,1.7,4.32,4.14c-0.34,0.63,0.14,1.54-0.69,1.99c-0.12-0.05-0.2-0.14-0.25-0.25
		c-0.24-0.56-0.03-1.18-0.24-1.75c-0.08-0.21-0.15-0.42-0.25-0.62c-0.67-1.09-1.57-1.9-2.85-2.2c-0.11-0.02-0.21-0.06-0.31-0.09
		c-0.16-0.05-0.31-0.1-0.48-0.13c-0.17-0.02-0.34-0.06-0.51-0.1c-0.12-0.03-0.23-0.07-0.34-0.13c-0.62-0.27-0.65-0.83-0.69-1.4
		c-0.07-0.98,0.12-1.98-0.15-2.95c-0.27-0.27-0.63-0.16-0.96-0.21c-0.18,0-0.35-0.01-0.52-0.03c-0.58-0.11-1.15-0.23-1.74-0.21
		c-0.11,0-0.23,0.01-0.34,0.01c-0.98,0.01-1.24,0.69-1.34,1.48c-0.09,0.74-0.01,1.5-0.29,2.21c-0.03,0.11-0.07,0.21-0.12,0.32
		c-0.07,0.16-0.17,0.3-0.28,0.44c-0.08,0.08-0.17,0.15-0.28,0.2c-0.21,0.08-0.44,0.1-0.66,0.11c-0.66,0.09-0.68,0.61-0.66,1.08
		c0.02,0.54,0.52,0.51,0.89,0.59c0.27,0.06,0.55,0.02,0.82,0.11c0.72,0.55,0.98,1.41,1.48,2.1c0.7,1.29,1.92,1.13,3.03,0.96
		c1.14-0.18,0.91-1.31,1.16-2.1c0.02-0.12,0.06-0.22,0.11-0.33c0.09-0.16,0.21-0.28,0.38-0.36c0.11-0.04,0.23-0.04,0.34-0.01
		c0.16,0.07,0.29,0.18,0.41,0.31c0.3,0.46,0.88,0.5,1.27,0.83c0.44,0.36,1.02,0.64,0.95,1.37
		C487.5,273.4,487.24,273.59,486.92,273.67z"/>
	<path style="fill-rule:evenodd;clip-rule:evenodd;fill:#030404;" d="M490.22,289.4c-1.11,0.02-2.06-0.26-2.63-1.31
		c-0.63-1.17-0.55-2.42,0.15-3.42c0.98-1.4,1.74-2.9,2.54-4.38c0.09-0.17,0.1-0.43,0.36-0.32c0.16,0.07,0.4,0.31,0.37,0.4
		c-0.6,1.91,0.99,2.87,1.79,4.17c0.67,1.09,0.66,2.21,0.15,3.31C492.44,288.97,491.42,289.38,490.22,289.4z"/>
	<path style="fill-rule:evenodd;clip-rule:evenodd;fill:#030202;" d="M486.92,273.67c0.08-0.45,0.38-0.59,0.8-0.56
		c0.21-0.02,0.32,0.11,0.41,0.28c0.17,0.61,0.36,1.23,0.14,1.87c0.64,0.66,1.16,0.52,1.55-0.44c0-0.35-0.05-0.71,0.3-0.94
		c0.51-0.56-0.21-1.57,0.72-1.97c0.4,1.24,0.22,2.52,0.24,3.78c0,0.21-0.12,0.57-0.27,0.61c-1,0.32-2.02,0.3-3.03,0.03
		c-0.9-0.24-0.96-0.93-0.89-1.7C486.92,274.31,486.91,273.99,486.92,273.67z"/>
	<path style="fill-rule:evenodd;clip-rule:evenodd;fill:#60A68A;" d="M472.45,306.48c-1.8-0.1-3.78-0.31-5.68-0.99
		c-0.3-0.11-0.75-0.21-0.82-0.42c-0.52-1.56,0.68-2.69,1.12-4.01c0.23-0.68,0.9-0.59,1.44-0.57c0.88,0.03,0.5,0.82,0.71,1.27
		c0.28,0.61-0.07,1.61,0.84,1.81c0.84,0.18,1.66-0.11,2.3-0.76c0.23-0.24,0.36-0.5,0.38-0.85c0.02-0.49-0.53-1.35,0.28-1.35
		c0.84,0,2.01-0.17,2.45,1.03c0.06,0.15,0.14,0.29,0.19,0.44C477.06,306.49,476.85,306.23,472.45,306.48z"/>
	<path style="fill-rule:evenodd;clip-rule:evenodd;fill:#88949A;" d="M471.8,287.51c0.01,4.67,0.01,9.34,0.05,14
		c0.01,0.81-0.43,1.04-1.09,1.1c-0.82,0.07-0.75-0.61-0.8-1.06c-0.34-3.1-0.13-6.21-0.1-9.31c0.04-5.79,0-11.57-0.01-17.36
		c0-0.62,0.05-1.28,0.73-1.45c0.36-0.09,1.04-0.13,0.99,0.66c-0.55,0.54-0.51,1.24-0.45,1.9c0.33,3.75,0.12,7.51,0.14,11.26
		c0.03,4.59-0.16,9.18,0.13,13.77c0.01,0.13,0.06,0.26-0.08,0.36c0.26-0.07,0.09-0.24,0.08-0.37c-0.32-4.11-0.1-8.22-0.15-12.33
		C471.24,288.23,471.17,287.69,471.8,287.51z"/>
	<path style="fill-rule:evenodd;clip-rule:evenodd;fill:#C3CFD2;" d="M471.8,287.51c-0.36,0.97-0.17,1.97-0.18,2.96
		c-0.04,3.64-0.02,7.28-0.03,10.92c0,0.16-0.03,0.32-0.05,0.47c-0.27-0.05-0.2-0.29-0.23-0.45c-0.24-1.05-0.44-2.1-0.44-3.19
		c0-6.8-0.02-13.6,0-20.39c0-1.07-0.51-2.12-0.06-3.2c0.15-0.36,0.14-0.87,0.76-0.54C471.95,278.56,471.9,283.03,471.8,287.51z"/>
	<path style="fill-rule:evenodd;clip-rule:evenodd;fill:#EDB04E;" d="M479.82,272.63c-0.45-0.7-0.91-1.4-1.36-2.11
		c0.17-1.15,0.42-2.27,1.34-3.1c0.43-0.39,0.34-0.85,0.19-1.33c0.07-0.86-0.65-1.86,0.45-2.53c0.08,0,0.16,0,0.24,0
		c0.42,0.3,0.29,0.79,0.4,1.2c0.07,0.28,0.16,0.56,0.51,0.56c0.26,0,0.41-0.21,0.53-0.42c0.21-0.37,0.15-0.87,0.55-1.15
		c0.15,0,0.31,0.01,0.46,0.01c0.28,0.31,0.21,0.66,0.1,1c-0.35,1.03-0.57,2.05-0.14,3.11c-0.13,0.13-0.28,0.2-0.45,0.24
		c-0.19,0.04-0.39,0.06-0.59,0.04c-1-0.11-1.7,0.31-2.06,1.23c-0.36,0.91,0.08,1.59,0.72,2.21c0.71,0.68,1.5,0.58,2.31,0.29
		c0.29-0.1,0.52-0.36,0.87-0.33c0.13,0.03,0.23,0.1,0.29,0.22c-0.02,1.01-0.72,1.37-1.54,1.5
		C481.64,273.42,480.66,273.31,479.82,272.63z"/>
	<path style="fill-rule:evenodd;clip-rule:evenodd;fill:#C5D1D4;" d="M469.2,269.28c0.67-2.45,2.75-3.4,5.76-2.63
		c0.13,0.13,0.36,0.07,0.46,0.24l0,0c0.05,0.85-0.58,0.96-1.18,1.01c-1.81,0.13-3.19,0.8-3.85,2.63c-0.18,0.49-0.53,1.18-1.29,0.52
		C469.13,270.47,468.96,269.86,469.2,269.28z"/>
	<path style="fill-rule:evenodd;clip-rule:evenodd;fill:#C89039;" d="M472.31,308.5c-1.94-0.06-3.82-0.33-5.65-0.98
		c-0.48-0.17-1.02-0.38-0.75-0.97c0.25-0.57,0.69-0.02,1,0.07c2.76,0.82,5.58,0.9,8.42,0.75c0.29-0.01,0.77-0.4,0.83,0.25
		c0.04,0.52-0.41,0.5-0.76,0.54C474.37,308.29,473.34,308.39,472.31,308.5z"/>
	<path style="fill-rule:evenodd;clip-rule:evenodd;fill:#616A6F;" d="M469.2,269.28c0.01,0.63,0.01,1.26,0.02,1.9
		c0.76,0.27,0.98-0.33,1.13-0.81c0.57-1.86,1.96-2.48,3.71-2.5c0.53-0.01,1.07-0.35,1.61-0.04c-0.01,0.87-0.01,1.75-0.02,2.62
		c-0.75,0.34-0.76-0.49-1.13-0.74c-0.61-0.41-1.18-0.88-1.97-0.56c-0.6,0.24-0.96,0.7-1.03,1.36c-0.04,0.4,0.22,0.77,0.12,1.18
		c-0.15,1.6-1.36,0.41-2.03,0.72c-0.61,0.29-0.58-0.46-0.6-0.83C468.94,270.81,468.76,270.01,469.2,269.28z"/>
	<path style="fill-rule:evenodd;clip-rule:evenodd;fill:#EA9E24;" d="M480.24,266.16c0.33,0.28,0.37,0.8,0.17,0.96
		c-1.12,0.89-1.18,2.34-1.94,3.4c-1.98,0.25-2.13,0.06-1.84-1.76c0.14-0.87,0.53-0.58,0.98-0.39c0.25,0.07,0.5,0.13,0.72-0.07
		l-0.02,0c0.17-0.11,0.12-0.34,0.26-0.46l0-0.01C479.13,267.28,479.42,266.45,480.24,266.16z"/>
	<path style="fill-rule:evenodd;clip-rule:evenodd;fill:#E2A33E;" d="M483.12,267.84c-1.15-0.84-0.58-1.83-0.25-2.81
		c0.13-0.41,0.18-0.84,0.27-1.27c0.39,0.01,0.77,0.02,1.16,0.03c0.09,0.25-0.05,0.46-0.16,0.66c-0.53,0.93-0.61,1.84,0.06,2.75
		c0.34,0.46,0.07,1.43,1.09,1.34c0.08,0.02,0.15,0.05,0.23,0.07c0.61,0.51,0.97,1.14,0.94,1.96c-0.44,0.32-0.93,0.25-1.42,0.16
		l-0.01,0c-0.13-0.08-0.29-0.14-0.37-0.28c-0.17-0.31-0.13-0.68-0.29-0.99c-0.05-0.07-0.1-0.15-0.15-0.23
		c-0.05-0.07-0.1-0.14-0.16-0.21c-0.03-0.03-0.05-0.06-0.08-0.1c-0.06-0.06-0.11-0.12-0.16-0.18c-0.03-0.03-0.05-0.06-0.08-0.09
		c-0.06-0.05-0.11-0.11-0.16-0.17c0,0-0.08-0.09-0.08-0.08c-0.06-0.05-0.11-0.11-0.16-0.17c0,0-0.08-0.09-0.08-0.09
		c-0.05-0.06-0.09-0.12-0.12-0.2C483.13,267.96,483.12,267.84,483.12,267.84z"/>
	<path style="fill-rule:evenodd;clip-rule:evenodd;fill:#445156;" d="M471.62,271.7c-0.92-1.09-0.5-1.99,0.46-2.72
		c0.81-0.62,2.27-0.18,2.99,0.83c0.17,0.23,0.11,0.66,0.57,0.65c-0.17,0.36-0.43,0.3-0.69,0.14
		C473.39,269.6,472.36,270.2,471.62,271.7z"/>
	<path style="fill-rule:evenodd;clip-rule:evenodd;fill:#E14839;" d="M481.97,256.54c-0.5,0-0.86,0-1.21,0
		c-0.48,0-0.99,0.07-1.01-0.66c-0.02-0.66,0.48-0.66,0.9-0.69c0.75-0.05,1.51-0.04,2.27-0.06c0.61-0.01,0.98,0.19,0.94,0.9
		c-0.04,0.71-0.53,0.55-0.94,0.55C482.55,256.58,482.19,256.55,481.97,256.54z"/>
	<path style="fill-rule:evenodd;clip-rule:evenodd;fill:#C48C34;" d="M480.24,266.16c-0.38,0.74-0.84,1.4-1.68,1.67
		c0.1-0.9,0.21-1.8,0.29-2.7c0.08-1,0.46-1.67,1.6-1.57C479.88,264.39,480.4,265.3,480.24,266.16z"/>
	<path style="fill-rule:evenodd;clip-rule:evenodd;fill:#CA9138;" d="M479.82,272.63c0.92,0.09,1.8,0.48,2.76,0.31
		c0.77-0.13,1.32-0.45,1.49-1.26c-0.09-0.39,0.08-0.53,0.46-0.47c-0.22,0.91,0.1,2.24-1.09,2.5
		C482.16,274.01,480.61,274.36,479.82,272.63z"/>
	<path style="fill-rule:evenodd;clip-rule:evenodd;fill:#CF973D;" d="M485.04,270.73c0.44-0.3,0.95-0.25,1.44-0.25
		c0.91-0.2,1.45,0.51,2.1,0.9c0.42,0.25,0.78,0.57,1.3,0.32c0.35,0.58,0.09,1.23,0.17,1.84c-0.12,0.45-0.26,0.87-0.87,0.66
		c-0.52-0.44-0.71-1.12-1.16-1.64c-0.75-0.86-1.79-1.14-2.75-1.59C485.18,270.89,485.11,270.81,485.04,270.73z"/>
	<path style="fill-rule:evenodd;clip-rule:evenodd;fill:#AD7E35;" d="M485.29,268.54c-1.36-0.08-2.38-2.24-1.73-3.7
		c0.17-0.38,0.49-0.7,0.74-1.04c0.57,1.15,0.14,2.37,0.19,3.55C484.5,267.98,484.67,268.37,485.29,268.54z"/>
	<path style="fill-rule:evenodd;clip-rule:evenodd;fill:#F1CF91;" d="M482.67,263.76c-0.01,0.08-0.03,0.16-0.03,0.24
		c-0.03,0.83-0.13,1.83-1.09,1.83c-1.05,0-0.81-1.05-0.84-1.78c-0.01-0.16-0.01-0.32-0.02-0.48
		C481.35,263.63,482.01,263.69,482.67,263.76z"/>
	<path style="fill-rule:evenodd;clip-rule:evenodd;fill:#BB8533;" d="M485.26,270.98c1.93-0.01,3.56,1.3,3.86,3.1
		c-0.9,0.6-1-0.13-1.2-0.72c-0.07-0.09-0.14-0.17-0.21-0.26c-0.38-0.69-1-1.09-1.69-1.39C485.67,271.56,485.24,271.51,485.26,270.98
		z"/>
	<path style="fill-rule:evenodd;clip-rule:evenodd;fill:#F5D08F;" d="M486.23,268.76c1.54,0.24,2.76,0.93,3.42,2.42
		c-0.01,0.51-0.4,0.49-0.67,0.36c-0.95-0.47-1.93-0.92-2.67-1.72C486.02,269.5,485.91,269.14,486.23,268.76z"/>
	<path style="fill-rule:evenodd;clip-rule:evenodd;fill:#FAE010;" d="M482.03,261.03c0.56,0.12,1.4,0,1.42,1.06
		c0.01,0.61-0.36,0.65-0.79,0.53c-0.74-0.2-1.88,0.22-2.09-0.81C480.44,261.19,481.28,260.99,482.03,261.03z"/>
	<path style="fill-rule:evenodd;clip-rule:evenodd;fill:#DE483A;" d="M486.95,255.52c-0.11,0.25,0.09,1.16-0.68,1.09
		c-0.49-0.04-1.46-0.22-1.39-1.02c0.07-0.88,0.97-0.89,1.66-0.99C487.03,254.54,487.18,254.81,486.95,255.52z"/>
	<path style="fill-rule:evenodd;clip-rule:evenodd;fill:#868E93;" d="M475.66,267.83c-0.64,0.24-1.32,0.24-1.99,0.27
		c-1.45,0.08-2.58,0.63-3.07,2.16c-0.34,1.07-0.77,1.3-1.37,0.91c0.55-0.05,0.82-0.41,0.97-0.9c0.55-1.88,2-2.52,3.77-2.65
		c0.62-0.05,1.2-0.04,1.47-0.73C475.89,267.11,475.64,267.5,475.66,267.83z"/>
	<path style="fill-rule:evenodd;clip-rule:evenodd;fill:#E54839;" d="M476.58,256.72c0.26-0.31-0.35-1.22,0.58-1.03
		c0.56,0.12,1.64,0.05,1.57,0.88c-0.05,0.62-0.89,1.09-1.63,1.15C476.38,257.77,476.66,257.14,476.58,256.72z"/>
	<path style="fill-rule:evenodd;clip-rule:evenodd;fill:#EDB966;" d="M486.23,268.76c0.23,1.23,2.2,2.62,3.42,2.42
		c0.07,0.18,0.15,0.35,0.22,0.53c-0.09,0.97-0.62,0.6-1.01,0.28c-0.74-0.6-1.53-1.1-2.38-1.5c-0.54-0.51-0.72-1.21-0.96-1.87
		c0.19,0.02,0.38,0.04,0.57,0.06c0.04,0.02,0.08,0.03,0.13,0.05L486.23,268.76z"/>
	<path style="fill-rule:evenodd;clip-rule:evenodd;fill:#2E2928;" d="M487.92,273.37c0.25,0.49,0.56,0.88,1.2,0.72
		c0.51,0.16,0.71-0.21,0.93-0.54c0.02,0.11,0.04,0.22,0.06,0.34c0,0.37,0,0.73-0.01,1.1c-0.67,0.57-1.4,0.65-2.19,0.29
		C488.45,274.63,487.74,274,487.92,273.37z"/>
	<path style="fill-rule:evenodd;clip-rule:evenodd;fill:#ADB6B9;" d="M481.26,258.83c0.07-0.38-0.15-0.96,0.41-0.99
		c0.63-0.04,0.58,0.56,0.55,0.98c-0.04,0.48,0.13,1.26-0.57,1.22C481.09,260.01,481.38,259.25,481.26,258.83z"/>
	<path style="fill-rule:evenodd;clip-rule:evenodd;fill:#EFB75E;" d="M484.54,271.22c-0.15,0.15-0.3,0.31-0.46,0.47
		c-0.08,0-0.17,0-0.25-0.01c-0.11-0.12-0.18-0.27-0.15-0.43c0.21-1.03,0.09-1.96-0.82-2.66c-0.21-0.16-0.36-0.43-0.23-0.74
		c0.16,0,0.32,0,0.48,0c0,0,0,0,0,0c0.07,0.08,0.16,0.16,0.24,0.24l0,0c0.08,0.08,0.16,0.16,0.24,0.24v0
		c0.08,0.08,0.16,0.16,0.24,0.24l0,0c0.08,0.08,0.16,0.16,0.24,0.24l0,0c0.08,0.08,0.16,0.16,0.24,0.24v0
		c0.28,0.42,0.38,0.9,0.36,1.4c0.02,0.19,0,0.37-0.08,0.54C484.58,271.05,484.56,271.13,484.54,271.22z"/>
	<path style="fill-rule:evenodd;clip-rule:evenodd;fill:#CF973D;" d="M484.6,270.97c-0.01-0.16-0.02-0.32-0.03-0.49
		c0.07-0.13,0.15-0.13,0.24-0.01c0.08,0.08,0.15,0.17,0.23,0.25C484.89,270.81,484.74,270.89,484.6,270.97z"/>
	<path style="fill-rule:evenodd;clip-rule:evenodd;fill:#EDB04E;" d="M478.32,268.31c-0.21,0.3-0.46,0.3-0.72,0.07
		C477.84,268.36,478.08,268.34,478.32,268.31z"/>
	<path style="fill-rule:evenodd;clip-rule:evenodd;fill:#C48C34;" d="M478.56,267.84c0.02,0.21-0.04,0.38-0.26,0.46
		C478.38,268.15,478.47,268,478.56,267.84z"/>
	<path style="fill-rule:evenodd;clip-rule:evenodd;fill:#868E93;" d="M475.42,266.9c-0.15-0.08-0.31-0.16-0.46-0.24
		C475.16,266.63,475.34,266.68,475.42,266.9z"/>
	<polygon style="fill-rule:evenodd;clip-rule:evenodd;fill:#E2A33E;" points="486.21,268.72 486.13,268.73 486.08,268.67 
		486.17,268.65 	"/>
	<path style="fill-rule:evenodd;clip-rule:evenodd;fill:#04A0DA;" d="M489.6,283.39c0.32-0.99,0.68-1.1,1.28-0.15
		c0.55,0.86,1.51,1.43,1.7,2.54c0.2,1.21-0.21,2.14-1.32,2.65c-1.2,0.54-2.3,0.23-3.09-0.79c-0.56-0.72-0.14-1.5,0.24-2.21
		c0.49-0.16,0.46,0.28,0.54,0.52c0.12,0.37,0.26,0.7,0.7,0.69c0.48-0.02,0.85-0.29,0.96-0.76c0.18-0.79,0.32-1.59-0.58-2.1
		C489.85,283.69,489.67,283.59,489.6,283.39z"/>
	<path style="fill-rule:evenodd;clip-rule:evenodd;fill:#77C3E3;" d="M489.6,283.39c1.4,0.35,1.98,2.02,1.08,3.11
		c-0.32,0.39-0.75,0.6-1.26,0.5c-0.87-0.17-0.67-1.05-1.01-1.57C488.61,284.63,489.09,284,489.6,283.39z"/>
	<path style="fill-rule:evenodd;clip-rule:evenodd;fill:#B68436;" d="M487.92,275.26c0.73-0.1,1.46-0.19,2.19-0.29
		c0.01,1.42-1.08,0.9-1.79,0.98C487.79,276.01,487.56,275.78,487.92,275.26z"/>
	<path style="fill-rule:evenodd;clip-rule:evenodd;fill:#F8CF89;" d="M482.63,267.84c1.12,1.05,1.94,2.2,1.2,3.83
		c-0.91,0.87-1.98,1.11-3.02,0.41c-0.92-0.61-1.63-1.5-1.18-2.74C480.14,267.93,481.29,267.67,482.63,267.84z"/>
	<path style="fill-rule:evenodd;clip-rule:evenodd;fill:#EDB04E;" d="M484.8,270.48c-0.08,0-0.16,0.01-0.24,0.01
		c-0.08-0.48-0.16-0.96-0.25-1.45C484.98,269.35,484.75,269.96,484.8,270.48z"/>
	<path style="fill-rule:evenodd;clip-rule:evenodd;fill:#EDB04E;" d="M483.84,268.56c-0.08-0.08-0.16-0.16-0.24-0.24
		C483.68,268.4,483.76,268.48,483.84,268.56z"/>
	<path style="fill-rule:evenodd;clip-rule:evenodd;fill:#EDB04E;" d="M484.32,269.04c-0.08-0.08-0.16-0.16-0.24-0.24
		C484.16,268.88,484.24,268.96,484.32,269.04z"/>
	<path style="fill-rule:evenodd;clip-rule:evenodd;fill:#EDB04E;" d="M484.08,268.8c-0.08-0.08-0.16-0.16-0.24-0.24
		C483.92,268.64,484,268.72,484.08,268.8z"/>
	<path style="fill-rule:evenodd;clip-rule:evenodd;fill:#EDB04E;" d="M483.6,268.32c-0.08-0.08-0.16-0.16-0.24-0.24
		C483.44,268.16,483.52,268.24,483.6,268.32z"/>
	<path style="fill-rule:evenodd;clip-rule:evenodd;fill:#EDB04E;" d="M483.36,268.08c-0.08-0.08-0.16-0.16-0.24-0.24
		C483.2,267.92,483.28,268,483.36,268.08z"/>
	<path style="fill-rule:evenodd;clip-rule:evenodd;fill:#B1DFEA;" d="M490.54,284.67c0.06,1.08-0.01,1.74-0.76,1.83
		c-0.63,0.08-0.91-0.45-0.88-1.03c0.04-0.71,0.28-1.44,1.09-1.48C490.66,283.96,490.54,284.64,490.54,284.67z"/>
	<path style="fill-rule:evenodd;clip-rule:evenodd;fill:#FEE3AD;" d="M480.22,270.04c-0.02-0.98,0.36-1.72,1.4-1.69
		c1.18,0.04,1.88,0.79,1.96,1.97c0.07,1-0.45,1.63-1.48,1.58C480.98,271.84,480.24,271.27,480.22,270.04z"/>
</g>
</svg>
