<?xml version="1.0" encoding="utf-8"?>
<!-- Generator: Adobe Illustrator 16.0.0, SVG Export Plug-In . SVG Version: 6.00 Build 0)  -->
<!DOCTYPE svg PUBLIC "-//W3C//DTD SVG 1.0//EN" "http://www.w3.org/TR/2001/REC-SVG-20010904/DTD/svg10.dtd" [
	<!ENTITY ns_flows "http://ns.adobe.com/Flows/1.0/">
	<!ENTITY ns_extend "http://ns.adobe.com/Extensibility/1.0/">
	<!ENTITY ns_ai "http://ns.adobe.com/AdobeIllustrator/10.0/">
	<!ENTITY ns_graphs "http://ns.adobe.com/Graphs/1.0/">
]>
<svg version="1.0" id="Layer_1" xmlns:x="&ns_extend;" xmlns:i="&ns_ai;" xmlns:graph="&ns_graphs;"
	 xmlns="http://www.w3.org/2000/svg" xmlns:xlink="http://www.w3.org/1999/xlink" xmlns:a="http://ns.adobe.com/AdobeSVGViewerExtensions/3.0/"
	 x="0px" y="0px" width="960px" height="560px" viewBox="0 0 960 560" style="enable-background:new 0 0 960 560;"
	 xml:space="preserve">
<g>
	<path style="fill-rule:evenodd;clip-rule:evenodd;fill:#252020;" d="M514.85,300.75c-3.8,1.97-8.74,0.25-10.35-3.61
		c-0.35-1.28-0.46-2.65-1.45-3.68c-0.23-0.24,0.03-0.64-0.2-0.9c-0.01-0.14-0.03-0.28-0.04-0.42c-0.04-0.52-0.05-0.53,0.42-0.78
		c0.17-0.1,0.06-0.22,0.05-0.33c-0.23-2.27,0.38-4.39,1.17-6.48c0.05-0.12,0.11-0.24,0.16-0.36c-0.07,0.1-0.1,0.22-0.15,0.33
		c-0.59,1.27-0.92,2.62-1.13,4c-0.08,0.54-0.1,1.04-0.79,0.38c-0.19-0.18-0.6-0.15-0.87,0.1l0.01-0.01
		c-0.27,0.15-0.47,0.1-0.57-0.21c0.16-0.73,1.08-0.82,1.26-1.53c0.09-0.37,0.44-0.81,0.15-1.11c-0.28-0.29-0.65,0.11-0.96,0.25
		c-3.78,1.71-7.54,3.46-11.4,5c-4.49,1.79-9.15,3.06-13.77,4.47c-2.1,0.64-4.24,1.15-6.39,1.56c-0.72,0.14-1.11,0.42-0.84,1.21
		c0.94,1.3-0.4,0.89-0.86,1.14c-1.02,0.25-2.05,0.5-3.07,0.76c-0.22,0.11-0.31-0.01-0.36-0.21c0.47-0.87,1.46-0.89,2.18-1.34
		c0.36-0.23,0.89-0.31,0.69-0.93c-0.19-0.58-0.65-0.65-1.17-0.51c-1.81,0.48-3.61,1.02-5.47,1.34c-0.5,0.09-0.68,0.33-0.53,0.84
		c0.16,0.58,0.32,1.15,0.54,1.72c0.14,0.95-0.55,0.52-0.95,0.58c-0.11-0.07-0.19-0.15-0.25-0.26c-0.16-0.32-0.23-0.68-0.33-1.02
		c-0.54-1.71-1.01-1.98-2.71-1.25c-2.68,1.14-5.38,2.2-8.13,3.15c-1.54,0.53-3.22,0.59-4.68,1.42c-0.46,0.26-0.97,0.44-0.83,1.12
		c0.02,0.32,0.48,0.46,0.34,0.84c-0.3,0.09-0.6,0.18-0.91,0.27c-0.78,0.23-1.57,0.47-2.39,0.27c-0.3-0.55,0.22-0.59,0.49-0.71
		c1.35-0.6,1.38-0.81,0.2-1.71c-0.18-0.14-0.41-0.25-0.29-0.54c0.48-0.23,0.96-0.47,1.44-0.7c0.2-0.16,0.39-0.11,0.58,0.02
		c1,0.19,1.8-0.51,2.73-0.6c0.1-0.04,0.2-0.07,0.3-0.09c0.2-0.05,0.4-0.11,0.6-0.18c0.1-0.04,0.2-0.07,0.3-0.09
		c0.31-0.06,0.62-0.14,0.91-0.26c2.5-0.76,4.94-1.68,7.35-2.7c0.22-0.09,0.44-0.17,0.65-0.28c0.18-0.09,0.41-0.19,0.38-0.4
		c-0.04-0.31-0.34-0.27-0.57-0.26c-0.35,0.01-0.71,0.13-1.06-0.02c-0.16-0.1-0.28-0.21-0.19-0.42c0.33-0.15,0.65-0.3,0.98-0.45
		c0.18-0.13,0.35-0.28,0.48-0.48l0,0c0.22-0.14,0.44-0.05,0.65,0.03c0.63,0.41,1.05,0.25,1.19-0.48c0.12-0.65,0.72-1.29,0.06-1.97
		c-0.58-0.19-1.22-0.22-1.68-0.69l0.01-0.01c-0.13-0.29,0.04-0.45,0.25-0.6c0.17-0.07,0.35-0.08,0.54-0.06
		c0.35,0.09,0.71,0.09,1.08,0.09c2.42,0.49,4.83,1.07,7.19,1.79c1.44,0.44,2.67,0.24,3.85-0.58c0.71-0.5,1.55-0.81,2.16-1.45
		c-0.78-0.56-1.72-0.42-2.59-0.58c-5.41-1.01-10.85-1.82-16.24-2.92c-0.78-0.16-1.59-0.14-2.35-0.43c-0.54-0.37-1.08,0-1.63-0.02
		c-0.45-0.03-0.84-0.18-1.16-0.51c-0.76-1.02-0.63-2.34-1.19-3.43c-0.18-0.54-0.29-1.09-0.48-1.63c-0.23-0.77-0.49-1.54-0.68-2.32
		c-0.23-1.13-0.64-2.21-0.88-3.34c-0.04-0.2-0.07-0.5-0.42-0.42c-0.12,0.08-0.24,0.16-0.39,0.08c-0.12-0.64-0.98-1.26-0.03-1.92
		c0.28-0.52,0.07-1.08,0.14-1.62c0.03-0.22-0.06-0.54,0.29-0.52c0.19,0.01,0.17,0.33,0.33,0.45h-0.01c0.2,0.21,0.53,0.16,0.74,0.35
		c0.39,0.23,0.76,0.06,1.13-0.06c1.46-0.47,2.95-0.78,4.45-1.07c0.24-0.02,0.46-0.09,0.7-0.14c0.25-0.04,0.5-0.03,0.73,0.08
		c0.17,0.12,0.26,0.27,0.15,0.47c-0.94,0.82-2.12,0.79-3.26,0.92c-0.08,0.01-0.16,0.03-0.23,0.04c0,0,0.02,0.04,0.03,0.04
		c0.07-0.04,0.14-0.07,0.22-0.08c0.59-0.04,1.2-0.17,1.78,0c1.54,0.45,3.13,0.58,4.71,0.73c1.5,0.14,2.92-0.15,4.23-0.92
		c0.29-0.47,0.57-0.95,1.25-0.61c0.12,0.1,0.19,0.25,0.28,0.36c0.04,0.05,0.01-0.06,0.01-0.07c-0.33-0.82-0.09-1.72-0.37-2.56
		c-0.1-0.77,0.29-1.19,0.97-1.45c3.93-1.49,7.94-2.69,12.02-3.67c0.62-0.15,1.3-0.24,1.69,0.48c0.13,0.24,0.14,0.54,0.2,0.82
		c-0.04-0.28-0.09-0.55-0.16-0.82c-0.27-1.05,0.42-1.41,1.2-1.75c2.27-1,4.69-1.58,7.03-2.4c0.97-0.34,1.85-0.98,2.94-0.95
		c0.19,0.02,0.36,0.11,0.51,0.21c0.13,0.14,0.18,0.31,0.18,0.49c-0.11,0.45,0.08,0.71,0.54,0.64c1.33-0.19,2.68-0.16,3.99-0.47
		c0.27-0.06,0.66-0.13,0.64-0.42c-0.02-0.45-0.49-0.24-0.77-0.33c-0.32-0.06-0.74-0.09-0.71-0.47c0.03-0.32,0.48-0.14,0.71-0.27
		c0.28-0.17,0.6-0.18,0.92-0.17c0.76-0.28,1.53-0.13,2.28,0.03c1.48,0.31,2.94-0.21,4.41-0.02c0.36,0.05,0.8-0.21,1.06,0.27
		c-0.05,0.13-0.14,0.22-0.26,0.29c-0.87,0.3-1.79-0.01-2.66,0.24c-0.15,0.05-0.3,0.07-0.45,0.12c-0.17,0.06-0.49,0.03-0.47,0.25
		c0.02,0.2,0.32,0.12,0.5,0.15c1.31,0.24,2.61,0.13,3.88-0.2c1.49-0.38,3.07-0.31,4.51-0.85c-0.09-0.45-0.36-0.06-0.53-0.12
		c-0.18,0.04-0.36,0.06-0.55,0.06c-0.08,0-0.17,0.01-0.24,0c-0.41-0.06-1.07,0.08-1.06-0.45c0.01-0.48,0.64-0.17,1-0.23
		c1.66-0.29,3.35-0.32,5.02-0.48c0.5,0.46-0.07,0.56-0.28,0.77c-0.16,0.16-0.53,0.23-0.43,0.48c0.12,0.3,0.48,0.2,0.74,0.15
		c1.17-0.21,2.23-0.8,3.39-1.05c0.09-0.02,0.15-0.04,0.17-0.1c0.01,0.02-0.03,0.07-0.12,0.07c-0.16-0.01,0.04,0.01-0.12,0.03
		c-0.47,0.06-0.94,0.13-1.43,0.11c-0.25,0-0.49,0-0.72-0.06c-0.24-0.06-0.54-0.15-0.53-0.39c0.01-0.32,0.35-0.2,0.57-0.25
		c1.61-0.37,3.28-0.05,4.9-0.41c0.47-0.39,0.95-0.79,1.42-1.18c0.17-0.1,0.32-0.02,0.46,0.07c0.4,0.33,0.84,0.19,1.25,0.04
		c0.61-0.22,0.83-0.75,0.83-1.33c0-0.63-0.65-0.29-0.92-0.53c-0.15-0.11-0.25-0.24-0.16-0.43c0.57-0.49,1.2-0.74,1.94-0.4
		c0.31,0.66,0.4,1.34,0.12,2.04c0.03,1.16-0.5,1.81-1.64,2.13c-2.59,0.72-5.18,1.47-7.67,2.49c-2.94,1.21-6.02,2.02-8.98,3.18
		c-0.66,0.26-1.38,0.37-2.05,0.59c-1.02,0.34-2.05,0.69-3.05,1.08c-0.09,0.06-0.19,0.11-0.29,0.15c-0.21,0.04-0.41,0.13-0.6,0.23
		c-0.1,0.05-0.19,0.09-0.29,0.14c-0.15,0.07-0.3,0.14-0.46,0.2c-3.02,1.24-6.06,2.44-9,3.86c-1.88,0.62-3.77,1.21-5.6,1.96
		c-1.58,0.36-3.08,1.01-4.6,1.56c-0.16,0.06-0.35,0.09-0.47,0.25c0.14-0.07,0.28-0.15,0.42-0.2c1.59-0.6,3.17-1.25,4.82-1.67
		c1.82-0.79,3.76-1.23,5.58-2c1.53-0.74,3.12-1.34,4.68-2.01c0.97-0.42,1.22-0.26,1.57,0.86c0.01,0.45,0.04,0.89,0.15,1.33
		c0.32,1.74,0.12,3.54,0.71,5.23c-0.02,0.56,0.16,1.12,0.11,1.69c0.06-0.59-0.12-1.16-0.12-1.74c0-0.15-0.1-0.29-0.15-0.45
		c-0.35-2.09-0.47-4.21-0.68-6.3c-0.23-0.77,0.16-1.2,0.83-1.48c0.77-0.32,1.52-0.71,2.28-1.04c0.15-0.08,0.31-0.14,0.46-0.22
		c0.1-0.05,0.2-0.09,0.31-0.12c0.16-0.05,0.29-0.15,0.44-0.22c0.11-0.04,0.21-0.09,0.31-0.15c1.05-0.33,2.07-0.76,3.13-1.07
		c2.24-0.58,4.42-1.38,6.64-2c0.69-0.19,1.46-0.42,1.74,0.61c0.13,0.48,0.07,1,0.31,1.47c-0.21-0.47-0.2-0.98-0.29-1.47
		c-0.01-0.08-0.04-0.15-0.06-0.23c-0.26-0.86,0.23-1.31,0.92-1.57c3.47-1.3,7.03-2.3,10.56-3.42c0.07-0.02,0.16,0,0.24,0.02
		c0.5,0.32,0.3,0.76,0.22,1.18c-0.47,0.92-0.05,1.8,0.17,2.67c0.3,1.16,0.68,2.29,0.84,3.49c0.04,0.93,0.36,1.81,0.48,2.73
		c0.19,0.78,0.05,1.64,0.57,2.35c0.2,0.51,0.36,1.04,1.11,0.6c0.29-0.17,0.71-0.16,0.74,0.38c-0.11,0.43-0.46,0.67-0.77,0.94
		c-0.11,0.05-0.22,0.07-0.34,0.07c-0.6-0.13-1.09,0.16-1.56,0.46c-2.82,1.84-6.01,2.91-8.96,4.5c-0.57,0.31-1.25,0.25-1.81,0.57
		c0.15-0.01,0.26-0.11,0.4-0.15c1.67-0.38,3.27,0.21,4.9,0.29c0.49,0.17,0.38,0.44,0.12,0.74c-0.31,0.57,0.37,0.71,0.47,1.1
		c0.49,1.08,0.41,1.19-1.01,1.42c-0.3-0.08-0.5-0.27-0.62-0.55c-0.07-0.23-0.03-0.46-0.03-0.7c-0.01-0.34-0.1-0.7-0.5-0.65
		c-0.38,0.04-0.16,0.46-0.25,0.69c-0.02,0.11-0.06,0.22-0.11,0.32c-0.1,0.15-0.23,0.26-0.41,0.31c-0.25,0.01-0.45-0.1-0.62-0.27
		c-0.07-0.14-0.01,0.06-0.08-0.09c-0.62-1.51-1.04-1.56-2.17-0.22c-0.94,1.12-2.07,2.11-2.38,3.64c-0.48,1.71-0.73,3.45-0.8,5.21
		c0.18,0.95,0.01,1.91,0.11,2.86c0.14,1.3,0.32,1.44,1.52,1.05c0.58,0.07,0.84,0.41,0.81,0.98c-0.03,0.15-0.09,0.3-0.2,0.42
		c-0.89,0.98-0.85,1.3,0.3,2.13c0.33,0.58,0.73,1.12,1.17,1.63c1.05,1.19,2.36,1.46,3.97,0.85c0.09-0.05,0.18-0.1,0.27-0.16
		c0.04-0.03,0.09-0.06,0.13-0.09c0.08-0.07,0.16-0.13,0.24-0.19c0.24-0.2,0.45-0.43,0.73-0.59c0.1-0.05,0.21-0.06,0.31-0.03
		c0.22,0.15,0.25,0.33,0.08,0.54l0,0c-0.08,0.09-0.18,0.15-0.2,0.28l0.01-0.01c-0.18,0.15-0.35,0.32-0.49,0.5l0.01-0.01
		c-0.13,0.01-0.21,0.11-0.28,0.21l0,0c-0.13,0.13-0.37,0.07-0.47,0.27l0.01-0.01C515.19,300.6,514.97,300.57,514.85,300.75z"/>
	<path style="fill-rule:evenodd;clip-rule:evenodd;fill:#29292C;" d="M489.66,294.05c-1.76,0.72-3.52,1.46-5.29,2.15
		c-0.72,0.29-1.28,0.61-1.6,1.43c-0.36,0.92-1.22,1.42-2.19,1.67c-0.83,0.15-1.66,0.14-2.5,0.01l0.01,0.01
		c-0.07-0.1-0.07-0.2,0.02-0.29c0.9-0.38,1.93-0.27,2.78-0.82c0.07-0.04,0.14-0.07,0.21-0.09c-0.09-0.03-0.15,0.03-0.21,0.07
		c-0.86,0.6-1.98,0.37-2.85,0.92c-0.38,0.15-0.62-0.18-0.93-0.27l0.01,0.02c-0.38-0.29-0.77-0.22-1.17-0.04l-0.08,0.05l-0.1-0.02
		c-0.82,0.01-1.61,0.29-2.43,0.23c-0.09-0.12-0.09-0.23-0.02-0.35c0.13-0.15,0.28-0.26,0.46-0.33c0.24-0.09,0.48-0.12,0.73-0.14
		c0.42,0,0.84-0.01,1.22-0.21c2.33-0.63,4.77-0.87,6.97-2.02c1.83-0.96,3.79-1.67,5.72-2.42c0.44-0.17,0.88-0.4,1.38-0.27
		C490.6,293.75,489.77,293.82,489.66,294.05z"/>
	<path style="fill-rule:evenodd;clip-rule:evenodd;fill:#364048;" d="M460.12,301.68c0.01,0.07,0.01,0.15,0,0.22
		c0.14,0.09,0.14,0.19,0.01,0.29c-5.52,1.27-11.05,2.54-16.57,3.8c-0.24-0.16-0.48-0.32-0.72-0.48c0.3-0.29,0.69-0.37,1.08-0.48
		c4.88-1.36,9.83-2.41,14.8-3.38C459.19,301.57,459.66,301.44,460.12,301.68z"/>
	<path style="fill-rule:evenodd;clip-rule:evenodd;fill:#46463B;" d="M465.07,267.56c4.11-1.39,8.23-2.76,12.34-4.17
		c1.12-0.39,2.21-0.89,3.31-1.34c0.28,0.11,0.41,0.29,0.3,0.6c-0.24,0.34-0.59,0.49-0.98,0.64c-4.19,1.64-8.43,3.12-12.75,4.36
		c-0.46,0.13-0.94,0.19-1.39,0.33C465.56,267.94,465.25,267.88,465.07,267.56z"/>
	<path style="fill-rule:evenodd;clip-rule:evenodd;fill:#403F36;" d="M508.59,259.91c-1.4-0.38-2.79,0.21-4.18,0.1
		c-0.11-0.01-0.22,0.08-0.34,0.1c-0.46,0.08-0.93,0.14-1.4,0.21c0.47,0.03,0.94,0.07,1.41,0.1c-0.03,0.22-0.15,0.4-0.35,0.42
		c-1.34,0.14-2.67,0.83-4.02,0.02c-0.66-0.44-1.42-0.26-2.09-0.18c-1.87,0.24-3.72-0.14-5.58-0.05c-0.08-0.05-0.11-0.1-0.08-0.15
		c0.03-0.05,0.05-0.08,0.08-0.08c0.86-0.67,1.79-0.12,2.63-0.05c3.19,0.26,6.3-0.34,9.45-0.57c3.49-0.26,6.93-1.02,10.45-0.88
		c-1.4,0.66-2.96,0.07-4.39,0.53c-0.25,0.08-0.54,0.07-0.81,0.1c0.25,0.27,0.57,0.07,0.85,0.12c0.19,0.04,0.39,0.04,0.59,0.06
		C510.14,260.58,509.38,260.41,508.59,259.91z"/>
	<path style="fill-rule:evenodd;clip-rule:evenodd;fill:#35363A;" d="M442.58,303.06c-0.16-0.06-0.32-0.13-0.48-0.19
		c3.92-1.95,7.89-3.79,12-5.3c0.1,0.1,0.21,0.19,0.31,0.29c-0.01,0.39-0.31,0.54-0.59,0.66c-2.28,1-4.46,2.25-6.81,3.08
		c-0.2,0.07-0.4,0.13-0.6,0.2c-0.09,0.04-0.18,0.07-0.28,0.11c-0.13,0.06-0.27,0.11-0.4,0.17c-0.09,0.04-0.18,0.07-0.27,0.1
		c-0.14,0.05-0.27,0.11-0.41,0.16c-0.09,0.04-0.19,0.07-0.29,0.1C444.04,302.66,443.43,303.27,442.58,303.06z"/>
	<path style="fill-rule:evenodd;clip-rule:evenodd;fill:#3A4047;" d="M489.66,294.05c-0.08-0.24,0.46-0.24,0.21-0.54
		c0.03-0.59,0.55-0.64,0.92-0.79c3.08-1.21,6.11-2.57,9.15-3.88c0.39-0.17,0.78-0.45,1.23-0.12c0.17,0.09,0.33,0.17,0.5,0.26
		C497.7,290.75,493.79,292.66,489.66,294.05z"/>
	<path style="fill-rule:evenodd;clip-rule:evenodd;fill:#48464B;" d="M501.65,288.99c0.08-0.08,0.18-0.25,0.23-0.24
		c1.52,0.39,1.2-0.89,1.4-1.6c0.33-1.19,0.7-2.35,1.26-3.44c0.11-0.21,0.22-0.5,0.49-0.35c0.25,0.13-0.02,0.33-0.08,0.49
		c-0.96,2.51-1.75,5.05-1.32,7.8c0.04,0.23-0.16,0.5-0.25,0.75c-0.1-0.15-0.21-0.3-0.31-0.46c-0.1-0.15,0.16-0.43-0.18-0.5
		c-0.03,0.23-0.07,0.47-0.1,0.7c-0.32-0.76-0.2-1.57-0.18-2.35C502.64,289,502.33,288.83,501.65,288.99z"/>
	<path style="fill-rule:evenodd;clip-rule:evenodd;fill:#342F28;" d="M480.99,262.56c-0.09-0.17-0.19-0.35-0.28-0.52l0,0
		c0.13-0.01,0.19-0.13,0.29-0.18c0.62-0.6,1.23-1.19,1.85-1.79l0.01-0.02c0.05-0.08,0.11-0.17,0.16-0.25l0.03-0.04
		c0.01-0.06,0.05-0.09,0.11-0.09c0.09-0.08,0.19-0.08,0.29-0.01c0.33,0.33-0.33,0.87,0.07,0.99c0.41,0.12,0.9-0.19,1.22-0.57
		c0.1-0.12,0.19-0.25,0.28-0.37c0.08-0.12,0.16-0.25,0.22-0.39c0.05-0.13,0.1-0.26,0.13-0.4c0.01-0.13,0.02-0.25-0.08-0.35
		c-0.08-0.05-0.15-0.09-0.23-0.14c-0.16-0.12-0.32-0.23-0.19-0.47c0.2-0.17,0.52,0.02,0.69-0.23l-0.01,0c0.17-0.11,0.34-0.11,0.52,0
		l0,0c0.19,0.2-0.02,0.55,0.26,0.72l0-0.01c0.21,0.51,0.04,0.98-0.17,1.45C485.5,261.47,482.61,262.97,480.99,262.56z"/>
	<path style="fill-rule:evenodd;clip-rule:evenodd;fill:#4A493D;" d="M519.18,257.08c0.42-0.61,0.28-1.27,0.21-1.93
		c0.41,0.34,0.46,0.85,0.49,1.3c0.26,3.59,1.22,7.07,1.71,10.62c0.17,0.46,0.08,0.94,0.07,1.41c-0.09,0.12-0.21,0.16-0.35,0.12
		c-0.35-0.87-0.38-1.81-0.56-2.72c-0.31-1.82-0.95-3.57-1.18-5.41c-0.02-0.2-0.07-0.38,0.08-0.55c0.34-0.31,0.3-0.63,0.03-0.96
		C519.02,258.46,519.72,257.61,519.18,257.08z"/>
	<path style="fill-rule:evenodd;clip-rule:evenodd;fill:#3B3934;" d="M440.2,306.25c0.82,0.6,1.64-0.19,2.45,0.01
		c-1.95,0.83-4.04,0.54-6.06,0.75c-0.33,0.03-0.43-0.29-0.48-0.58c-0.06-0.37,0.1-0.58,0.42-0.76c1.35-0.76,2.68-1.56,4.13-2.1
		c0.17,0.09,0.34,0.18,0.52,0.28c-0.27,0.98-1.27,0.96-1.93,1.41c-0.49,0.33-1.08,0.47-1.54,0.84c0.55,0.13,1.08-0.08,1.62-0.12
		C439.65,305.96,439.98,305.95,440.2,306.25z"/>
	<path style="fill-rule:evenodd;clip-rule:evenodd;fill:#454539;" d="M465.07,267.56c0.27,0.08,0.54,0.16,0.81,0.24
		c-0.25,0.58-0.85,0.54-1.31,0.69c-1.99,0.67-4,1.3-5.97,2.05c-1.09,0.21-2.01,1.16-3.25,0.75c-0.11-0.1-0.12-0.22-0.04-0.34
		C458.46,269.52,461.78,268.59,465.07,267.56z"/>
	<path style="fill-rule:evenodd;clip-rule:evenodd;fill:#55535A;" d="M518.7,294.73c-0.07,0.26-0.14,0.53-0.22,0.79
		c-0.4,0.63-0.6,1.34-0.91,2.01c-0.29,0.48-0.44,1.07-1.05,1.28l0-0.01c-0.67,0.4-1.34,0.81-2.15,0.35c-0.32-0.32-0.34-0.7-0.22-1.1
		c0.35-0.61,0.97-0.2,1.44-0.38c0.3-0.1,0.57-0.26,0.77-0.53c0.48-0.56,0.77-1.18,0.78-1.93c0.14-0.29,0.31-0.57,0.43-0.88
		c0.29-0.47,0.29-1.14,0.94-1.36C519.22,293.49,518.3,294.18,518.7,294.73z"/>
	<path style="fill-rule:evenodd;clip-rule:evenodd;fill:#444C52;" d="M448.06,288.76c0.43-0.48,0.9-0.77,1.52-0.29
		c-0.03,0.17-0.02,0.33,0.13,0.43c2.02,1.32,3.61,3.31,6.08,3.95c0.12,0.03,0.2,0.13,0.26,0.24c-0.08,0.15-0.16,0.29-0.25,0.44
		c-0.92,0.13-1.66-0.17-2.4-0.76C451.67,291.37,449.85,290.09,448.06,288.76z"/>
	<path style="fill-rule:evenodd;clip-rule:evenodd;fill:#363436;" d="M517.07,282.2c0.97,1.29,1.63,2.7,1.88,4.3
		c0.15,0.35,0.06,0.71,0.09,1.07c-0.01,0.12-0.07,0.21-0.18,0.26c-0.55-0.03-0.37-0.88-0.97-0.87c-0.6-0.23-0.73-0.7-0.54-1.24
		c0.26-0.74,0.1-1.28-0.59-1.69c-0.41-0.25-0.52-0.67-0.41-1.14C516.5,282.57,516.52,282.1,517.07,282.2z"/>
	<path style="fill-rule:evenodd;clip-rule:evenodd;fill:#363C43;" d="M515.83,279.66c-0.03-0.19,0.21-0.4-0.06-0.56
		c1.12-1.25,2.31-2.39,4.16-2.29c0.64,0.03,1.28-0.01,1.91,0.02c0.41-0.08,0.13,0.86,0.74,0.51c0.11,0.01,0.19,0.06,0.25,0.15
		c-0.22,0.51-0.7,0.83-1.13,0.6c-1.87-0.99-3.28,0.04-4.74,0.93C516.58,279.24,516.2,279.45,515.83,279.66z"/>
	<path style="fill-rule:evenodd;clip-rule:evenodd;fill:#494836;" d="M455.31,270.95c0.01,0.11,0.02,0.23,0.03,0.34
		c-0.08,0.23,0.12,0.48-0.07,0.71c-0.51,0.31-1.07,0.35-1.64,0.36c-1.25-0.17-2.4,0.31-3.58,0.58c-0.34,0.08-0.7,0.06-1.03,0.17
		c-0.18,0.02-0.35,0.07-0.52,0.12c-0.36,0.01-0.7,0.19-1.07,0.08c-0.18-0.08-0.31-0.18-0.27-0.41c0.06-0.06,0.13-0.07,0.2-0.04
		c0.29-0.23,0.7,0.04,0.99-0.23C450.68,272.07,453,271.51,455.31,270.95z"/>
	<path style="fill-rule:evenodd;clip-rule:evenodd;fill:#4A4A3A;" d="M492.04,260.41c0,0.08,0,0.16,0,0.23
		c-0.26,0.06-0.54,0.06-0.78,0.18c-0.19,0.1-0.51-0.09-0.59,0.25c0.23,0.02,0.45,0.05,0.68,0.07c-0.01,0.23-0.14,0.38-0.34,0.44
		c-1.23,0.34-2.46,0.66-3.74,0.78c-0.28,0.03-0.56-0.05-0.75-0.28c-0.01-0.15-0.01-0.3-0.02-0.45c-0.08-0.14-0.05-0.25,0.07-0.35
		c1.3,0.21,2.47-0.36,3.71-0.58C490.86,260.6,491.45,260.5,492.04,260.41z"/>
	<path style="fill-rule:evenodd;clip-rule:evenodd;fill:#3B4953;" d="M473.32,298.82c0.82,0.33,1.65-0.27,2.46,0.02
		c-2.46,0.62-4.99,0.66-7.5,0.92c0.23-0.29,1.2-0.22,0.5-0.98c1.25-0.24,2.54-0.07,3.8-0.27
		C472.85,298.46,473.13,298.57,473.32,298.82z"/>
	<path style="fill-rule:evenodd;clip-rule:evenodd;fill:#4B494D;" d="M502.85,292.56c0.85,0.81,1.16,1.88,1.61,2.93
		c0.28,0.66,0.01,1.12,0.05,1.66C503.7,295.71,502.82,294.29,502.85,292.56z"/>
	<path style="fill-rule:evenodd;clip-rule:evenodd;fill:#41464F;" d="M460.13,302.2c0-0.1-0.01-0.2-0.01-0.29
		c0.24-0.14,0.86,0.33,0.71-0.44c1.28-0.67,2.58-1.32,4.09-1.2c0.1,0.08,0.19,0.17,0.29,0.25
		C463.68,301.56,461.96,302.04,460.13,302.2z"/>
	<path style="fill-rule:evenodd;clip-rule:evenodd;fill:#606056;" d="M521.55,268.55c0.01-0.49,0.03-0.99,0.04-1.48
		c0.2,1.37,0.4,2.73,0.6,4.1c0.05,0.32-0.06,0.85,0.54,0.64c1.86-0.65,1.24,0.5,1.03,1.37c-0.27-0.26-0.22-0.54-0.06-0.83
		c-0.04-0.5-0.36-0.47-0.67-0.31c-0.73,0.37-0.99-0.1-1.23-0.64C521.46,270.47,521.12,269.55,521.55,268.55z"/>
	<path style="fill-rule:evenodd;clip-rule:evenodd;fill:#514F55;" d="M518.2,286.78c0.45,0.13,0.45,0.13,0.49,0.97
		c0.07,0.09,0.15,0.09,0.22,0c0.01-0.42,0.02-0.84,0.03-1.26c0.53,1.61,0.55,3.25,0.25,4.9c-0.05-0.04-0.1-0.07-0.15-0.11
		c-0.11-0.15-0.16-0.32-0.19-0.5c-0.05-0.6,0-1.21-0.05-1.82c-0.04-0.19-0.15-0.33-0.35-0.4c-0.19-0.09-0.35-0.22-0.44-0.42
		C517.89,287.67,517.64,287.18,518.2,286.78z"/>
	<path style="fill-rule:evenodd;clip-rule:evenodd;fill:#6D6C56;" d="M445.98,284.88c0.6,1.04,0.68,2.23,0.93,3.37
		c-1.06-0.77-1.05-2.04-1.43-3.12c0.03-0.08,0.08-0.14,0.16-0.17C445.74,284.89,445.86,284.87,445.98,284.88z"/>
	<path style="fill-rule:evenodd;clip-rule:evenodd;fill:#383537;" d="M518.7,294.73c-0.68-0.48,0.17-1.18-0.25-1.7
		c-0.7-0.05-1.09-0.43-0.83-1.1c0.25-0.63,0.77-0.6,1.26-0.19c0.26,0.6,0.18,1.22,0.06,1.84
		C518.87,293.96,518.78,294.34,518.7,294.73z"/>
	<path style="fill-rule:evenodd;clip-rule:evenodd;fill:#54636C;" d="M456.06,296.89c-0.16-0.08-0.33-0.17-0.49-0.25
		c-0.19-1.06,0.96-2.02,0.22-3.11c0.64,0.15,1.29,0.29,1.93,0.44c-0.69,0.4-0.99,1.02-1.15,1.77
		C456.48,296.15,456.4,296.59,456.06,296.89z"/>
	<path style="fill-rule:evenodd;clip-rule:evenodd;fill:#555658;" d="M523.7,272.35c0.02,0.28,0.04,0.55,0.06,0.83
		c-0.16,0.8-0.32,1.6-0.47,2.41c-0.27-0.23-0.54-0.46-0.71-0.78c-0.03-0.61,0.04-1.18,0.41-1.68
		C523.03,272.69,523.27,272.43,523.7,272.35z"/>
	<path style="fill-rule:evenodd;clip-rule:evenodd;fill:#525143;" d="M442.86,277.19c0.09-0.09,0.19-0.18,0.28-0.27
		c0.22,0.01,0.4,0.14,0.46,0.33c0.29,1.09,0.92,2.11,0.76,3.3c-0.11,0.1-0.23,0.11-0.35,0.02
		C443.43,279.51,443.16,278.35,442.86,277.19z"/>
	<path style="fill-rule:evenodd;clip-rule:evenodd;fill:#525056;" d="M517.07,282.2c-0.19,0.25-0.37,0.5-0.56,0.75
		c-0.72,0.11-1.15-0.16-1.19-0.93c0.57-0.24,1.37-0.29,0.98-1.27C516.77,281.13,516.96,281.64,517.07,282.2z"/>
	<path style="fill-rule:evenodd;clip-rule:evenodd;fill:#5C5C4B;" d="M444.01,280.57c0.11-0.01,0.22-0.02,0.32-0.02
		c0.35-0.01,0.3,0.3,0.4,0.49c0.18,0.8,0.4,1.59,0.71,2.36c0.08,0.58,0.59,1.07,0.3,1.71c-0.09,0-0.18,0.01-0.26,0.01l0,0
		c-0.13-0.13-0.09-0.34-0.21-0.48c-0.06-0.04-0.08-0.09-0.06-0.16c-0.07-0.18-0.04-0.41-0.21-0.56
		C444.43,282.87,444.29,281.7,444.01,280.57z"/>
	<path style="fill-rule:evenodd;clip-rule:evenodd;fill:#5D5E4A;" d="M447.17,272.9c0.09,0.08,0.17,0.16,0.26,0.25
		c-1.02,0.65-2.12,1-3.34,0.95c-0.17-0.17-0.34-0.34-0.51-0.52C444.77,273.36,445.97,273.13,447.17,272.9z"/>
	<path style="fill-rule:evenodd;clip-rule:evenodd;fill:#514F55;" d="M518.95,293.58c-0.17-0.58,0.22-1.25-0.29-1.78
		c-0.55-0.63-0.75-1.3-0.33-2.08c1-0.38,0.61,0.44,0.71,0.83c0.01,0.24-0.04,0.48,0.05,0.72c0.04,0.05,0.07,0.09,0.11,0.14
		C519.21,292.14,519.26,292.88,518.95,293.58z"/>
	<path style="fill-rule:evenodd;clip-rule:evenodd;fill:#5F5F61;" d="M443.58,273.58c-0.15,0.08-0.44-0.55-0.5,0.12
		c-0.05,0.52,0.28,1.12-0.26,1.57c0.01-0.63-0.01-1.26,0.04-1.88c0.03-0.38,0.07-0.82,0.51-0.98c0.11-0.04,0.33,0.03,0.42,0.13
		C444.18,272.96,443.53,273.2,443.58,273.58z"/>
	<path style="fill-rule:evenodd;clip-rule:evenodd;fill:#3D4044;" d="M522.77,275.03c0.67-0.27,0.36,0.35,0.51,0.56
		c-0.15,0.64-0.3,1.27-0.45,1.91c-0.04-0.02-0.08-0.05-0.12-0.08C522.12,276.6,521.91,275.8,522.77,275.03z"/>
	<path style="fill-rule:evenodd;clip-rule:evenodd;fill:#53483E;" d="M517.45,255.55c0.11,0.1,0.21,0.2,0.32,0.31
		c-0.28,0.86-0.62,1.68-1.45,2.18c-0.11-0.1-0.21-0.2-0.32-0.31C516.41,256.95,516.66,256.07,517.45,255.55z"/>
	<path style="fill-rule:evenodd;clip-rule:evenodd;fill:#4D4C4F;" d="M517.48,297.6c0.24-0.76,0.41-1.56,0.75-2.28
		c0.16-0.34,0.15,0.13,0.25,0.2c0,0.79-0.44,1.42-0.77,2.08c-0.04,0.03-0.08,0.06-0.11,0.09
		C517.56,297.66,517.52,297.63,517.48,297.6z"/>
	<path style="fill-rule:evenodd;clip-rule:evenodd;fill:#4C493D;" d="M483.37,259.69l-0.11,0l-0.11-0.02
		c0.06-0.11,0.11-0.23,0.17-0.34l0.01-0.01c0.15-0.24,0.3-0.48,0.45-0.71l0.01-0.01c0.07-0.07,0.15-0.15,0.22-0.22l0-0.01
		c0.23-0.16,0.47-0.31,0.7-0.47c0.04,0,0.09,0,0.13,0c0.01,0.04,0.02,0.09,0.03,0.13c0.16,0.08,0.32,0.15,0.48,0.23
		C484.86,258.97,484.18,259.41,483.37,259.69z"/>
	<path style="fill-rule:evenodd;clip-rule:evenodd;fill:#4C493D;" d="M485.81,259.7c0.39-0.33,0.48-0.77,0.5-1.25
		c0.36,0.7,0.27,1.44,0.22,2.19c-0.09,0.08-0.2,0.12-0.32,0.11C485.63,260.57,486.08,260,485.81,259.7z"/>
	<path style="fill-rule:evenodd;clip-rule:evenodd;fill:#39383C;" d="M478.08,299.31c0.83,0,1.66,0,2.5-0.01
		C479.75,299.77,478.92,299.74,478.08,299.31z"/>
	<path style="fill-rule:evenodd;clip-rule:evenodd;fill:#454346;" d="M516.53,298.82c0.3-0.42,0.46-0.95,0.95-1.22l0,0
		c0.15,0.16,0.12,0.33,0.01,0.5l0.01-0.01c-0.17,0.12-0.13,0.34-0.25,0.48l0-0.01c-0.16,0.11-0.1,0.34-0.26,0.45
		c-0.08,0.09-0.15,0.18-0.23,0.27C516.68,299.12,516.6,298.97,516.53,298.82z"/>
	<path style="fill-rule:evenodd;clip-rule:evenodd;fill:#3B4953;" d="M475.96,298.81c0.4-0.36,0.8-0.45,1.17,0.04
		C476.74,298.83,476.35,298.82,475.96,298.81z"/>
	<path style="fill-rule:evenodd;clip-rule:evenodd;fill:#3F3E37;" d="M486.27,260.64c0.09,0,0.17,0,0.26,0
		c0.01,0.21,0.03,0.43,0.04,0.64c-0.02,0.12-0.04,0.23-0.07,0.35c-0.17-0.02-0.34-0.05-0.51-0.07
		C485.88,261.19,486,260.89,486.27,260.64z"/>
	<path style="fill-rule:evenodd;clip-rule:evenodd;fill:#39383C;" d="M477.12,298.83c0.33,0.07,0.66,0.14,1,0.21l0,0
		c-0.01,0.09-0.02,0.19-0.03,0.28C477.68,299.34,477.36,299.17,477.12,298.83z"/>
	<path style="fill-rule:evenodd;clip-rule:evenodd;fill:#5D5E4A;" d="M448.36,272.63c-0.27,0.34-0.64,0.24-0.99,0.23
		C447.7,272.79,448.03,272.71,448.36,272.63z"/>
	<path style="fill-rule:evenodd;clip-rule:evenodd;fill:#454346;" d="M516.08,300.05c0.03-0.3,0.2-0.46,0.49-0.5
		C516.53,299.84,516.37,300.01,516.08,300.05z"/>
	<path style="fill-rule:evenodd;clip-rule:evenodd;fill:#4C493D;" d="M486.32,258.46c-0.32-0.16-0.28-0.44-0.26-0.72
		C486.36,257.9,486.36,258.18,486.32,258.46z"/>
	<path style="fill-rule:evenodd;clip-rule:evenodd;fill:#4C493D;" d="M485.55,257.74c-0.13,0.3-0.43,0.24-0.67,0.31
		c-0.03-0.03-0.06-0.07-0.09-0.1l-0.04-0.06C484.99,257.7,485.26,257.66,485.55,257.74z"/>
	<path style="fill-rule:evenodd;clip-rule:evenodd;fill:#54636C;" d="M455.57,296.65c0.03,0.35-0.13,0.51-0.48,0.48
		C455.25,296.97,455.41,296.81,455.57,296.65z"/>
	<path style="fill-rule:evenodd;clip-rule:evenodd;fill:#454346;" d="M515.34,300.52c0.06-0.25,0.24-0.31,0.47-0.27
		C515.65,300.34,515.5,300.43,515.34,300.52z"/>
	<path style="fill-rule:evenodd;clip-rule:evenodd;fill:#454346;" d="M514.85,300.75c0.09-0.24,0.27-0.3,0.5-0.24
		C515.25,300.73,515.08,300.79,514.85,300.75z"/>
	<path style="fill-rule:evenodd;clip-rule:evenodd;fill:#4C493D;" d="M486.06,257.74c-0.17,0-0.34,0-0.52,0
		C485.71,257.58,485.89,257.42,486.06,257.74z"/>
	<path style="fill-rule:evenodd;clip-rule:evenodd;fill:#55535A;" d="M517.25,298.57c0.08-0.16,0.17-0.32,0.25-0.48
		C517.42,298.25,517.33,298.41,517.25,298.57z"/>
	<path style="fill-rule:evenodd;clip-rule:evenodd;fill:#6D6C56;" d="M444.99,283.92c0.22,0.13,0.25,0.33,0.21,0.56
		C445.13,284.29,445.06,284.11,444.99,283.92z"/>
	<path style="fill-rule:evenodd;clip-rule:evenodd;fill:#6D6C56;" d="M445.26,284.64c0.07,0.16,0.14,0.32,0.21,0.48
		C445.4,284.96,445.33,284.8,445.26,284.64z"/>
	<path style="fill-rule:evenodd;clip-rule:evenodd;fill:#55535A;" d="M517.49,298.1c0-0.17-0.01-0.33-0.01-0.5c0.08,0,0.15,0,0.23,0
		C517.64,297.76,517.56,297.93,517.49,298.1z"/>
	<path style="fill-rule:evenodd;clip-rule:evenodd;fill:#55535A;" d="M516.99,299.01c0.09-0.15,0.17-0.3,0.26-0.45
		C517.16,298.71,517.08,298.86,516.99,299.01z"/>
	<polygon style="fill-rule:evenodd;clip-rule:evenodd;fill:#C45D30;" points="483.34,259.33 483.33,259.34 483.3,259.31 	"/>
	<path style="fill-rule:evenodd;clip-rule:evenodd;fill:#C45D30;" d="M483.79,258.61C483.79,258.61,483.79,258.62,483.79,258.61
		L483.79,258.61z"/>
	<path style="fill-rule:evenodd;clip-rule:evenodd;fill:#C45D30;" d="M484.02,258.38C484.02,258.38,484.01,258.39,484.02,258.38
		C484.01,258.39,484.02,258.38,484.02,258.38z"/>
	<polygon style="fill-rule:evenodd;clip-rule:evenodd;fill:#C45D30;" points="484.75,257.89 484.79,257.95 484.72,257.91 
		484.7,257.87 	"/>
	<path style="fill-rule:evenodd;clip-rule:evenodd;fill:#454346;" d="M516.56,299.56c0.07-0.09,0.13-0.19,0.2-0.28
		C516.69,299.37,516.62,299.47,516.56,299.56z"/>
	<path style="fill-rule:evenodd;clip-rule:evenodd;fill:#46463B;" d="M481,261.86c-0.1,0.06-0.19,0.12-0.29,0.18
		C480.81,261.98,480.91,261.92,481,261.86z"/>
	<path style="fill-rule:evenodd;clip-rule:evenodd;fill:#454346;" d="M515.81,300.25c0.09-0.07,0.19-0.14,0.28-0.21
		C516,300.11,515.9,300.18,515.81,300.25z"/>
	<polygon style="fill-rule:evenodd;clip-rule:evenodd;fill:#C45D30;" points="482.86,260.06 482.85,260.08 482.82,260.04 	"/>
	<polygon style="fill-rule:evenodd;clip-rule:evenodd;fill:#C45D30;" points="483.05,259.77 483.08,259.82 483.02,259.81 
		482.99,259.76 	"/>
	<path style="fill-rule:evenodd;clip-rule:evenodd;fill:#007BC2;" d="M473.32,298.82c-1.1,0.08-2.2,0.16-3.31,0.23
		c-0.43,0.03-0.88,0.07-1.23-0.28c-0.66-1.49,0.34-1.49,1.4-1.74c8.44-1.98,16.73-4.42,24.64-8.01c2.51-1.14,5.01-2.28,7.53-3.41
		c0.24-0.11,0.52-0.35,0.77-0.14c0.28,0.24-0.06,0.5-0.1,0.76c-0.17,1.16-0.65,2.1-1.87,2.48c-3.77,1.6-7.53,3.19-11.3,4.79
		c-2.45,0.71-4.81,1.68-7.07,2.84c-2.25,1.15-4.71,1.4-7.08,2.02c-0.39,0.18-0.83-0.04-1.22,0.16c-0.23,0.03-0.46,0.06-0.69,0.1
		c-0.1,0.05-0.19,0.1-0.28,0.15C473.45,298.77,473.38,298.79,473.32,298.82z"/>
	<path style="fill-rule:evenodd;clip-rule:evenodd;fill:#EC2128;" d="M465.43,285.84c-0.05-0.06-0.06-0.13-0.04-0.2
		c-0.18-0.22-0.02-0.54-0.2-0.76c-0.05-0.06-0.06-0.13-0.03-0.21c-0.19-0.22-0.03-0.52-0.2-0.75c-0.58-1.83-0.89-3.72-1.2-5.6
		c-0.14-0.82,0.23-0.97,0.91-0.92c2.14,0.14,4.27-0.28,6.42,0.02c0.58,0.08,0.86,0.22,0.98,0.76c0.89,4.33,1.77,8.66,2.68,12.98
		c0.15,0.71-0.1,0.96-0.8,0.85c-2.2-0.36-4.4-0.72-6.61-1.06c-0.48-0.08-0.8-0.26-0.91-0.78c-0.25-1.21-0.53-2.41-0.8-3.61
		C465.43,286.37,465.61,286.05,465.43,285.84z"/>
	<path style="fill-rule:evenodd;clip-rule:evenodd;fill:#EC2128;" d="M452.69,278.14c-0.2-0.93,0.11-1.24,1.11-1.16
		c1.95,0.15,3.91,0.17,5.87,0.19c0.93,0.01,1.44,0.32,1.65,1.3c0.76,3.55,1.57,7.09,2.43,10.63c0.23,0.95,0.02,1.24-0.94,1.06
		c-2.2-0.41-4.4-0.82-6.61-1.17c-0.58-0.09-0.68-0.46-0.81-0.88c-0.59-2.03-1.18-4.07-1.77-6.1c-0.66-0.88-0.79-1.92-0.84-2.97
		C452.77,278.74,452.88,278.43,452.69,278.14z"/>
	<path style="fill-rule:evenodd;clip-rule:evenodd;fill:#00AEE8;" d="M456.05,293.08c-1.64,0.13-2.66-1.05-3.83-1.88
		c-1-0.71-1.96-1.47-2.93-2.22c-0.13-0.1-0.19-0.28-0.29-0.42c0.19-0.03,0.39-0.06,0.58-0.1c5.14,0.88,10.28,1.77,15.42,2.66
		c2.11,0.37,4.22,0.74,6.32,1.13c0.21,0.04,0.55-0.07,0.59,0.23c0.04,0.3-0.31,0.31-0.5,0.43c-0.91,0.57-1.83,1.13-2.74,1.7
		c-1.18,0.74-2.37,0.93-3.76,0.52c-2.44-0.71-4.94-1.25-7.41-1.87c-0.3-0.22-0.68-0.02-1-0.18
		C456.36,293.08,456.2,293.08,456.05,293.08z"/>
	<path style="fill-rule:evenodd;clip-rule:evenodd;fill:#273163;" d="M506.82,280.46c-0.18,0.12-0.42,0.22-0.56,0.4
		c-1.84,2.38-4.62,3.2-7.19,4.31c-5.01,2.17-10.06,4.28-15.14,6.27c-3.26,1.28-6.64,2.23-10.1,2.84c-0.26,0.05-0.68,0.34-0.75,0.08
		c-0.11-0.36,0.42-0.38,0.67-0.54c3.6-2.47,7.86-3.37,11.87-4.81c4.55-1.64,8.75-4.01,13.21-5.82c2.4-0.97,4.82-1.91,7.24-2.84
		C506.23,280.27,506.49,279.98,506.82,280.46z"/>
	<path style="fill-rule:evenodd;clip-rule:evenodd;fill:#5D5B63;" d="M518.43,289.69c0.08,0.7,0.15,1.4,0.23,2.1
		c-0.35-0.13-0.72-0.26-0.88,0.23c-0.19,0.58,0.4,0.7,0.67,1c-0.29,0.46-0.25,1.08-0.71,1.45c-0.41,0.07-0.5,0.5-0.79,0.72
		c-1.07,1.3-2.42,1.98-4.12,1.9c-0.4,0.08-0.75,0.3-1.14,0.38c-0.38,0-0.66-0.16-0.85-0.48c-0.13-0.28-0.11-0.59-0.18-0.88
		c-0.05-0.12-0.13-0.21-0.26-0.27c-0.09-0.03-0.17-0.06-0.25-0.11c-0.27-0.21-0.54-0.41-0.59-0.78c0.02-0.51-0.07-0.95-0.71-0.97
		c-0.33-0.28-0.5-0.64-0.58-1.06c0.01-0.1,0.04-0.2,0.09-0.29c0.07-0.14,0.14-0.28,0.2-0.42c0.09-0.19,0.15-0.42,0.43-0.42
		c0.49,0.23,0.48,0.81,0.79,1.16c0.12-0.56-0.21-1.06-0.24-1.6c-0.09-1.48-0.13-2.95,0.02-4.42c0.2-0.75,0.37-1.51,0.74-2.21
		c0.08-0.16,0.13-0.34,0.18-0.52c-0.19,0.11-0.16,0.34-0.26,0.5c-0.09,0.14-0.2,0.23-0.37,0.25c-0.44-0.33-0.36-0.89-0.58-1.31
		c-0.11-0.56,0.31-0.73,0.67-0.95c0.09-0.04,0.19-0.06,0.29-0.06c0.14,0.01,0.28,0.03,0.42,0.03c0.25-0.01,0.4-0.16,0.51-0.38
		c0.37-0.73,0.75-1.44,1.76-0.98c0.15,0.08,0.3,0.15,0.46,0.23c0.1-0.06,0.19-0.15,0.26-0.24c0.01-0.07,0.02-0.14,0.03-0.21
		c0.54-0.22,0.84,0.14,1.15,0.47c0.17,0.17,0.33,0.34,0.5,0.5c0.26,0.49,0.72,0.71,1.19,0.93c0.88,1.05,1.67,2.13,1.18,3.64
		c0,0.01,0.33,0.13,0.51,0.19c0.01,0.5,0.01,0.99,0.02,1.49c0.06,0.08,0.09,0.17,0.08,0.27c0,0.14-0.02,0.29-0.02,0.43
		C518.31,289.22,518.41,289.45,518.43,289.69z"/>
	<path style="fill-rule:evenodd;clip-rule:evenodd;fill:#007BC2;" d="M460.12,301.68c-5.76,1.28-11.52,2.56-17.28,3.83
		c-0.33-0.93-0.04-1.43,0.93-1.75c4.57-1.47,9.19-2.82,13.57-4.83c1.08-0.5,2.21-0.38,2.39,1.25
		C459.8,300.7,459.99,301.19,460.12,301.68z"/>
	<path style="fill-rule:evenodd;clip-rule:evenodd;fill:#EA2027;" d="M491.94,284.7c0.1,0.62-0.17,0.93-0.61,1.14
		c-4.45,2.12-9.06,3.8-13.77,5.19c-0.4,0.12-0.81,0.23-0.92-0.37c-0.11-0.58-0.62-1.29,0.3-1.63c1.12-0.42,2.27-0.75,3.41-1.1
		c3.71-1.14,7.25-2.71,10.84-4.14C492.47,283.29,491.53,284.6,491.94,284.7z"/>
	<path style="fill-rule:evenodd;clip-rule:evenodd;fill:#EA1F26;" d="M508.98,277.53c0.11,0.82-0.51,0.95-0.94,1.14
		c-3.19,1.37-6.39,2.71-9.6,4.03c-1.1,0.45-2.23,0.85-3.37,1.23c-0.32,0.11-0.77,0.55-0.98-0.11c-0.15-0.48-0.31-1.05,0.29-1.39
		c0.63-0.35,1.25-0.71,1.92-0.97c3.93-1.55,7.86-3.12,11.66-5C509.46,275.71,508.48,277.37,508.98,277.53z"/>
	<path style="fill-rule:evenodd;clip-rule:evenodd;fill:#A61E22;" d="M461.09,271.63c-0.55-1,0.25-1.26,0.93-1.47
		c3.69-1.16,7.36-2.39,11.15-3.23c0.41-0.09,0.99-0.34,1.1,0.46c0.09,0.61,0.19,1.1-0.64,1.38c-3.75,1.25-7.48,2.55-11.19,3.87
		C461.41,273,460.88,272.89,461.09,271.63z"/>
	<path style="fill-rule:evenodd;clip-rule:evenodd;fill:#007BC2;" d="M522.02,276.93c-0.21,0.2-0.46,0.36-0.74,0.27
		c-2.3-0.71-3.81,0.86-5.5,1.91c-0.52,0.28-1.02,0.24-1.59,0.03c-1.19-0.43-2.43-0.33-3.67-0.25c-0.25,0.08-0.29-0.02-0.21-0.23
		c1.74-0.8,3.47-1.64,5.23-2.39c2.12-0.9,4.1-2.08,6.13-3.16c0.31-0.16,0.72-0.71,1.06,0.01c0.15,0.8-0.28,1.52-0.27,2.3
		c-0.15,0.27-0.18,0.57-0.17,0.87C522.27,276.53,522.26,276.78,522.02,276.93z"/>
	<path style="fill-rule:evenodd;clip-rule:evenodd;fill:#A51E22;" d="M487.04,264.6c-0.1-0.62,0.06-0.8,0.54-0.85
		c1.62-0.15,3.24-0.32,4.85-0.53c0.47-0.06,0.66,0.13,0.76,0.53c0.04,0.15,0.05,0.31,0.09,0.47c0.55,2.23,0.56,2.23-1.53,3.16
		c-1.16,0.52-2.34,1-3.49,1.55c-0.48,0.23-0.73,0.26-0.79-0.35C487.34,267.19,487.18,265.81,487.04,264.6z"/>
	<path style="fill-rule:evenodd;clip-rule:evenodd;fill:#EB1F26;" d="M483.62,272.72c1.86-0.69,3.73-1.36,5.58-2.09
		c0.64-0.25,0.98-0.13,1.12,0.54c0.01,0.04,0.02,0.08,0.03,0.12c0.9,3.05,0.9,3.06-2,4.17c-0.74,0.28-1.49,0.54-2.23,0.82
		c-0.04,0.01-0.1,0.04-0.11,0.03c-0.88-1.16-1.81-2.27-2.94-3.19c-0.03-0.02,0.04-0.14,0.1-0.2c0.05-0.05,0.11-0.07,0.18-0.05
		C483.43,272.81,483.53,272.77,483.62,272.72z"/>
	<path style="fill-rule:evenodd;clip-rule:evenodd;fill:#A51E22;" d="M459.39,274.11c-1.44,1.05-3.09,1.16-4.8,1.1
		c-2.29-0.07-4.47-0.98-6.78-0.88c-0.11,0-0.23-0.09-0.35-0.14c0.1-0.04,0.2-0.1,0.31-0.13c1.23-0.33,2.46-0.65,3.69-0.98
		c0.22-0.31,0.53-0.49,0.9-0.52c1.7-0.17,3.28-0.82,4.92-1.22c1.42-0.34,1.84,0.02,2.02,1.48
		C459.35,273.26,459.13,273.7,459.39,274.11z"/>
	<path style="fill-rule:evenodd;clip-rule:evenodd;fill:#A51E22;" d="M476.95,270.69c-0.1-0.52,0.23-0.74,0.71-0.89
		c2.34-0.73,4.41-2.04,6.63-3.05c0.71-0.32,0.77-0.2,0.82,0.46c0.2,2.46,0.21,2.45-2.15,3.31c-1.35,0.49-2.69,1.03-4.02,1.56
		C477.19,272.78,476.99,272.65,476.95,270.69z"/>
	<path style="fill-rule:evenodd;clip-rule:evenodd;fill:#ECE60D;" d="M508.44,268.64c-0.26,0.22-0.47,0.49-0.74,0.61
		c-4.55,2-8.9,4.49-13.76,5.76c-0.22,0.06-0.49,0.21-0.62-0.09c-0.13-0.29-0.19-0.66,0.08-0.89c0.3-0.25,0.66-0.45,1.02-0.6
		c4.2-1.73,8.42-3.45,12.62-5.18C507.6,268.03,508.08,267.87,508.44,268.64z"/>
	<path style="fill-rule:evenodd;clip-rule:evenodd;fill:#EB2027;" d="M478.59,279.34c-0.1,0.06-0.2,0.14-0.31,0.19
		c-3.57,1.6-3.84,1.43-4.22-2.49c-0.05-0.54,0.12-0.83,0.6-1c1.61-0.58,3.21-1.17,4.82-1.75c0.68-0.06,0.49,0.46,0.35,0.69
		C479.01,276.32,478.78,277.82,478.59,279.34z"/>
	<path style="fill-rule:evenodd;clip-rule:evenodd;fill:#49474D;" d="M510.39,300.71c-0.63,0.12-0.87-0.37-1.26-0.71
		c-1.85-1.64-2.84-3.9-3.45-6.09c-0.44-1.58-0.29-3.52-0.19-5.32c0.11-1.95,0.88-3.51,1.47-5.21c0.5-1.45,1.6-2.44,2.66-3.47
		c0.14-0.13,0.32-0.35,0.49-0.18c0.25,0.25-0.08,0.4-0.2,0.58c-0.68,1.05-1.66,1.86-2.28,2.97c-0.7,1.25-0.77,2.64-1.04,3.97
		c-0.3,1.47-0.4,3.03-0.3,4.52c0.08,1.13,0.4,2.28,0.78,3.4c0.63,1.83,2.57,2.75,3.04,4.65c0.03,0.11,0.23,0.24,0.35,0.25
		c0.3,0.01,0.74-0.18,0.69,0.33C511.13,300.85,510.67,300.68,510.39,300.71z"/>
	<path style="fill-rule:evenodd;clip-rule:evenodd;fill:#ECE50E;" d="M494.25,281.55c-0.27,0.16-0.33-0.05-0.36-0.24
		c-0.06-0.34-0.28-0.71,0.07-1.01c0.21-0.18,0.46-0.33,0.72-0.41c4.49-1.42,8.58-3.85,13.08-5.26c0.37-0.12,0.93-0.6,1.15-0.08
		c0.21,0.5-0.44,0.78-0.85,0.98c-3.68,1.82-7.4,3.57-11.25,5C495.94,280.86,495.1,281.21,494.25,281.55z"/>
	<path style="fill-rule:evenodd;clip-rule:evenodd;fill:#244287;" d="M464.93,300.26c-1.36,0.4-2.65,1.08-4.09,1.2
		c-1.22-2.58-1.19-2.59,1.53-3.18c1.47-0.32,2.93-0.71,4.37-1.17c1.07-0.34,1.19,0.45,1.45,1.08c0.33,0.77-0.26,0.78-0.76,0.96
		C466.58,299.47,465.76,299.89,464.93,300.26z"/>
	<path style="fill-rule:evenodd;clip-rule:evenodd;fill:#B4BB2B;" d="M486.27,260.64c-0.09,0.31-0.19,0.61-0.28,0.92
		c-3.39,1.16-6.78,2.3-10.17,3.48c-0.61,0.21-0.98,0.65-0.79,1.39c0.14,0.54,0.23,1.09,0.32,1.64c0.03,0.18-0.01,0.52-0.04,0.52
		c-0.31,0.02-0.36-0.23-0.4-0.47c-0.01-0.08-0.03-0.16-0.04-0.24c-0.42-1.94-0.42-1.95-2.42-1.43c-3.83,0.98-7.61,2.09-11.31,3.48
		c-0.69,0.26-0.86,0.59-0.76,1.22c0.11,0.34,0.15,0.68-0.02,1.01c-0.61,0.1-0.52-0.44-0.62-0.75c-0.15-0.46-0.41-0.7-0.9-0.69
		c-0.21-0.08-0.45-0.13-0.4-0.44c2.47-0.83,4.95-1.65,7.42-2.48c5.08-1.63,10.22-3.08,15.12-5.23c1.32-0.41,2.65-0.79,3.94-1.26
		c0.7-0.25,0.67-1.02,0.87-1.61C486.24,259.88,485.96,260.4,486.27,260.64z"/>
	<path style="fill-rule:evenodd;clip-rule:evenodd;fill:#EBE50E;" d="M491.7,281.71c0.06-0.01,0.27,0.01,0.32,0.25
		c0.1,0.45-0.23,0.66-0.56,0.81c-1.52,0.71-3.03,1.44-4.56,2.11c-3.19,1.39-6.52,2.38-9.86,3.33c-0.3,0.09-0.77,0.62-0.98-0.06
		c-0.18-0.57,0.42-0.6,0.75-0.72c3.91-1.49,7.83-2.96,11.75-4.44C489.58,282.6,490.56,282.18,491.7,281.71z"/>
	<path style="fill-rule:evenodd;clip-rule:evenodd;fill:#ECE60E;" d="M475.62,282.87c-0.24,0-0.44-0.03-0.5-0.27
		c-0.09-0.39,0.24-0.46,0.49-0.56c1.75-0.67,3.48-1.4,5.26-1.96c3.18-0.99,6.17-2.41,9.2-3.74c0.36-0.16,0.86-0.67,1.14-0.12
		c0.27,0.52-0.33,0.82-0.73,1.06c-2.05,1.25-4.25,2.2-6.53,2.95C481.19,281.16,478.4,282,475.62,282.87z"/>
	<path style="fill-rule:evenodd;clip-rule:evenodd;fill:#EB2A32;" d="M478.59,279.34c-0.55-1.5,0.09-2.79,0.73-4.09
		c0.14-0.29,0.75-0.54,0.17-0.97c1.14-0.68,2.44-0.94,3.68-1.36c1.27,0.87,2.43,1.84,2.96,3.36c-0.33,0.15-0.67,0.3-1,0.45
		c-0.51,0.16-0.68-0.3-0.94-0.56c-0.61-0.6-1.22-1.23-2.17-0.93c-1.04,0.33-1.57,1.16-1.83,2.18c-0.12,0.49,0.03,1.05-0.39,1.46
		C479.44,279.17,479.04,279.3,478.59,279.34z"/>
	<path style="fill-rule:evenodd;clip-rule:evenodd;fill:#C3CB2C;" d="M461.95,274.95c-0.29,0.09-0.47-0.03-0.54-0.3
		c-0.15-0.57,0.31-0.71,0.67-0.8c2.08-0.55,4.12-1.24,6.13-2c1.9-0.72,3.82-1.38,5.73-2.09c0.45-0.17,0.97-0.31,1.15,0.17
		c0.18,0.45-0.4,0.66-0.73,0.78c-4,1.46-7.81,3.45-12.07,4.15C462.18,274.86,462.07,274.91,461.95,274.95z"/>
	<path style="fill-rule:evenodd;clip-rule:evenodd;fill:#0097D8;" d="M459.07,298.15c-1,0.08-1.25-0.21-0.92-1.23
		c0.88-2.72,0.83-2.75,3.63-2.02c1.1,0.29,2.19,0.66,3.28,0.99c-0.93,0.75-2.1,0.98-3.17,1.43
		C460.98,297.7,460.08,298.17,459.07,298.15z"/>
	<path style="fill-rule:evenodd;clip-rule:evenodd;fill:#DED812;" d="M519.18,257.08c0.81,0.46,0.29,1.26,0.5,1.88
		c-3.45,1.14-6.89,2.27-10.33,3.41c-0.75,0.25-1.41,0.58-1.18,1.58c0.1,0.25-0.01,0.31-0.24,0.27c-0.13-0.74-0.56-0.69-1.15-0.52
		c-2.4,0.69-4.82,1.35-7.23,2.02c-0.29,0.09-0.58,0.18-0.56-0.3c4.14-1.44,8.3-2.8,12.4-4.35c1.99-0.75,4-1.43,6.05-1.9
		C518.67,258.88,519.28,258.34,519.18,257.08z"/>
	<path style="fill-rule:evenodd;clip-rule:evenodd;fill:#EA1F26;" d="M500.89,266.26c1.86-0.56,3.73-1.13,5.6-1.67
		c0.36-0.11,0.97-0.28,0.87,0.33c-0.1,0.65,0.88,1.52-0.28,1.95c-1.45,0.53-2.93,0.99-4.4,1.48c-0.99-0.36-1.78-0.94-2.23-1.93
		c0.05-0.05,0.11-0.06,0.18-0.04C500.71,266.33,500.8,266.29,500.89,266.26z"/>
	<path style="fill-rule:evenodd;clip-rule:evenodd;fill:#EB2229;" d="M446.4,282.07c-0.72-1.56-0.99-3.25-1.45-4.88
		c-0.18-0.62,0.05-0.81,0.6-0.79c1.19,0.04,2.4-0.05,3.56,0.16c1.24,0.22,0.9,1.47,1.16,2.31c-0.08,0.09-0.18,0.19-0.29,0.18
		c-1.95-0.18-2.95,0.83-3.3,2.65C446.65,281.86,446.55,281.98,446.4,282.07z"/>
	<path style="fill-rule:evenodd;clip-rule:evenodd;fill:#A61F23;" d="M474.73,272.52c0.05,0.67,0.07,1.24-0.72,1.34
		c-0.33,0.04-1.16,0.73-0.55-0.45c0.14-0.27-0.13-0.54-0.42-0.63c-0.36-0.1-0.56,0.21-0.59,0.45c-0.28,1.82-1.7,1.75-2.99,1.81
		c-1.35,0.06-2.71,0.02-4.07,0.02c-0.23,0-0.47-0.05-0.7-0.07c0.12-0.36,0.47-0.23,0.7-0.32c2.69-0.99,5.41-1.91,8.08-2.97
		C474.58,271.26,474.92,271.45,474.73,272.52z"/>
	<path style="fill-rule:evenodd;clip-rule:evenodd;fill:#A61F23;" d="M476.5,266.36c-0.11-0.73,0.32-0.9,0.72-1.09
		c2.13-1.02,4.46-1.46,6.67-2.27c0.29-0.11,0.58-0.15,0.66,0.23c0.09,0.42,0.23,0.92-0.31,1.15c-2.34,1-4.67,2.05-7.06,2.93
		C476.14,267.69,477.03,266.39,476.5,266.36z"/>
	<path style="fill-rule:evenodd;clip-rule:evenodd;fill:#E9252C;" d="M512.22,264.56c-0.29,0.13-0.57,0.37-0.86,0.37
		c-0.48,0.01-1.04,1.12-1.4,0.03c-0.26-0.81-0.56-1.72,0.72-2.25c2.21-0.93,4.58-1.33,6.81-2.15c0.34-0.13,0.69-0.16,0.69,0.3
		c0,0.45,0.51,1.04-0.24,1.34c-0.77,0.31-1.55,0.57-2.33,0.86C513.43,262.5,513.43,262.5,512.22,264.56z"/>
	<path style="fill-rule:evenodd;clip-rule:evenodd;fill:#EB232A;" d="M451.92,285.11c0.23,0.67,0.52,1.31,0.66,2.04
		c0.19,0.97-0.04,1.28-0.99,1.01c-0.15-0.04-0.31-0.08-0.47-0.1c-2.95-0.43-3.25-0.71-3.97-3.85c-0.11-0.16-0.08-0.37-0.2-0.52
		c-0.05-0.06-0.07-0.12-0.05-0.2c-0.04-0.59,0.31-0.28,0.48-0.18c0.31,0.19,0.44,0.55,0.67,0.82c0.75,0.84,1.77,1.04,2.77,0.54
		c0.27-0.14,0.51-0.4,0.87-0.26c0.04,0.06,0.05,0.12,0.04,0.19C451.85,284.75,451.81,284.96,451.92,285.11z"/>
	<path style="fill-rule:evenodd;clip-rule:evenodd;fill:#EC4A65;" d="M516.57,269.31c-1.46,0.63-2.92,1.26-4.38,1.89
		c-0.38-0.99-0.2-2.04-0.33-3.05c0-0.12,0.04-0.21,0.13-0.28l0,0c0.97-1.01,2.31-1.37,3.48-2.04c0.25-0.14,0.55-0.08,0.74,0.21
		C516.36,267.12,516.96,268.16,516.57,269.31z"/>
	<path style="fill-rule:evenodd;clip-rule:evenodd;fill:#08A0D4;" d="M481.74,292.82c7.2-2.74,14.45-5.36,21.36-8.81
		c0.21-0.11,0.51-0.46,0.72-0.14c0.17,0.26-0.12,0.46-0.4,0.6c-5.19,2.49-10.44,4.82-15.81,6.88c-1.75,0.67-3.56,1.15-5.35,1.72
		C482.01,293.14,481.73,293.29,481.74,292.82z"/>
	<path style="fill-rule:evenodd;clip-rule:evenodd;fill:#E92026;" d="M503.56,271.95c1.2-0.52,2.43-1.01,3.6-1.59
		c0.58-0.29,0.79-0.15,0.86,0.42c0.16,1.22,0.45,2.45-1.39,2.74c-1.05,0.16-1.92,0.95-3.02,1.08c-0.25,0.13-0.42-0.03-0.42-0.22
		c0.02-0.74-0.27-1.46-0.13-2.21v0C503.21,272.02,503.42,272.06,503.56,271.95z"/>
	<path style="fill-rule:evenodd;clip-rule:evenodd;fill:#EA2027;" d="M495.89,271.24c-0.28,0.15-0.54,0.39-0.84,0.44
		c-0.73,0.12-1.51,1.2-2.15,0.29c-0.71-1.01-0.04-2.58,1.05-3.15c0.99-0.52,1.99-1.01,3.09-1.23c0.38-0.19,0.79,0.03,0.6,0.33
		C496.98,268.99,497.08,270.46,495.89,271.24z"/>
	<path style="fill-rule:evenodd;clip-rule:evenodd;fill:#03AAE3;" d="M446.69,301.46c2.58-1.2,5.15-2.39,7.73-3.59
		c0.31-0.07,0.62-0.14,0.92-0.22c0.58-0.15,1.16,0.05,1.33,0.51c0.2,0.55-0.52,0.6-0.86,0.74c-2.74,1.15-5.46,2.37-8.39,3.03
		c-0.29,0.24-0.71-0.04-0.98,0.24l0,0c-0.2,0.2-0.53,0.01-0.72,0.24h0c-0.3,0.08-0.66,0.34-0.73-0.25l0.01,0
		c0.13-0.13,0.34-0.09,0.48-0.2c0.06-0.04,0.13-0.06,0.2-0.05c0.09-0.06,0.19-0.11,0.28-0.16c0.06-0.05,0.12-0.08,0.2-0.08
		C446.32,301.55,446.54,301.59,446.69,301.46z"/>
	<path style="fill-rule:evenodd;clip-rule:evenodd;fill:#EC2D38;" d="M451.69,284.41c-1.81,1.44-3.03,1.23-4.29-0.72
		c-0.11-0.17-0.19-0.51-0.5-0.2c-0.17-0.47-0.33-0.95-0.5-1.42c0.17-2.67,1.27-3.58,3.87-3.2c0.09,0.38,0.17,0.76,0.26,1.14
		c0.17,0.5,0.08,0.78-0.47,0.44c-0.71-0.44-1.32-0.33-1.81,0.27c-0.58,0.71-0.47,1.51,0.03,2.23c0.47,0.67,1.1,1.01,1.97,0.79
		c0.39-0.1,0.69-0.63,1.19-0.28C451.53,283.77,451.61,284.09,451.69,284.41z"/>
	<path style="fill-rule:evenodd;clip-rule:evenodd;fill:#A51F23;" d="M496.36,264.19c-0.22-0.91,0.17-1.16,1.06-1.19
		c2.35-0.09,4.64-0.8,7.01-0.71c0.18,0.01,0.36,0.07,0.54,0.1c-0.15,0.1-0.29,0.24-0.46,0.29c-2.31,0.78-4.64,1.48-6.92,2.34
		C496.59,265.41,496.18,265.35,496.36,264.19z"/>
	<path style="fill-rule:evenodd;clip-rule:evenodd;fill:#E82026;" d="M486.76,279.88c1.31-0.57,2.66-1.04,3.84-1.88
		c0.55-0.39,0.8-0.48,0.93,0.4c0.17,1.18-0.02,1.94-1.3,2.25c-0.84,0.21-1.63,0.58-2.45,0.89c-0.17,0.11-0.38,0.07-0.54,0.2
		l-0.08,0.04l-0.09,0c-0.91-0.11-1.04-0.38-0.79-1.71l0,0C486.41,279.95,486.61,279.98,486.76,279.88z"/>
	<path style="fill-rule:evenodd;clip-rule:evenodd;fill:#E92A32;" d="M495.89,271.24c0.7-1.03,0.61-2.43,1.56-3.36
		c0.13-0.13-0.22-0.25-0.41-0.29c1.08-0.55,2.24-0.88,3.41-1.16c0.74,0.64,1.48,1.28,2.23,1.93c-0.45,0.34-0.92,0.61-1.49,0.69
		c-0.91-0.21-1.82-0.74-2.68,0.14c-0.39,0.4-0.56,0.94-0.94,1.34C497.07,270.9,496.51,271.14,495.89,271.24z"/>
	<path style="fill-rule:evenodd;clip-rule:evenodd;fill:#E92128;" d="M497.8,277.01c-0.94,0.4-1.87,0.86-2.83,1.19
		c-0.42,0.14-1.08,0.95-1.32,0.06c-0.22-0.78-0.83-1.93,0.48-2.47c1.02-0.42,2.1-0.69,3.15-1.03
		C497.64,275.48,498.48,276.07,497.8,277.01z"/>
	<path style="fill-rule:evenodd;clip-rule:evenodd;fill:#E92026;" d="M480.03,284.63c-1.19,0.46-2.37,0.92-3.56,1.38
		c-0.49,0.19-0.79,0.04-0.82-0.49c-0.03-0.71-0.78-1.61,0.37-2.05c0.89-0.34,1.84-0.52,2.76-0.77
		C479.83,282.78,480.2,283.34,480.03,284.63z"/>
	<path style="fill-rule:evenodd;clip-rule:evenodd;fill:#E8E20F;" d="M475.26,290.16c-0.8-3.62-1.59-7.24-2.39-10.85
		c-0.11-0.5-0.16-1.07,0.43-1.18c0.62-0.11,0.46,0.56,0.52,0.9c0.56,3.21,1.37,6.38,1.7,9.63c0.18,0.32-0.04,0.71,0.19,1.02
		c0.02,0.14,0.03,0.27,0.05,0.41c0.13,0.25,0,0.56,0.19,0.79c0.01,0.16,0.02,0.32,0.02,0.48c-0.16,0.13-0.32,0.14-0.48-0.01
		c-0.02-0.14-0.03-0.27-0.05-0.41C475.31,290.7,475.44,290.39,475.26,290.16z"/>
	<path style="fill-rule:evenodd;clip-rule:evenodd;fill:#BFC72D;" d="M499.71,260.87c1.48,0.07,2.93-0.13,4.37-0.44
		c0.15-0.02,0.29-0.04,0.44-0.06c0.44-0.1,0.89-0.24,0.76,0.51c-0.13,0.25-0.24,0.55-0.58,0.53c-2.67-0.11-5.2,1.15-7.9,0.77
		c-0.64-0.09-1.67,0.19-1.75-0.52c-0.07-0.6,1.04-0.29,1.55-0.6c0.96-0.2,1.95,0.11,2.9-0.18
		C499.57,260.9,499.64,260.9,499.71,260.87z"/>
	<path style="fill-rule:evenodd;clip-rule:evenodd;fill:#4C4A50;" d="M511,296.89c0.23,0.15,0.47,0.31,0.7,0.46
		c0.19,0.46,0.5,0.6,0.97,0.39c0.35,0.05,0.62,0.22,0.83,0.5c0.2,0.36,0.3,0.83,0.87,0.8c0.72-0.08,1.44-0.16,2.15-0.23
		c-0.23,0.24-0.47,0.48-0.7,0.73c-0.1,0.07-0.19,0.14-0.26,0.24l0,0c-0.09,0.07-0.17,0.14-0.25,0.23c-2.11,1.5-5.18-0.49-5.52-2.64
		c0.03-0.04,0.06-0.08,0.09-0.13C510.25,297.06,510.54,296.69,511,296.89z"/>
	<path style="fill-rule:evenodd;clip-rule:evenodd;fill:#E8E10F;" d="M511.47,274.22c-0.09-0.08-0.24-0.16-0.28-0.27
		c-0.12-0.38,0.12-0.58,0.43-0.74c1.59-0.8,3.17-1.64,4.78-2.4c1-0.48,2.04-0.86,3.06-1.26c0.19-0.07,0.42-0.03,0.64-0.04
		c-0.13,0.18-0.23,0.41-0.41,0.53c-2.01,1.36-4.13,2.51-6.39,3.42C512.72,273.7,512.13,273.95,511.47,274.22z"/>
	<path style="fill-rule:evenodd;clip-rule:evenodd;fill:#EC4A66;" d="M502.36,275.19c-0.89,0.35-1.77,0.69-2.66,1.04
		c-1.28-0.22-1.6-0.64-1.44-1.9l0.04-0.02c0.03-0.07,0.08-0.1,0.15-0.09c1.15-0.52,2.29-1.05,3.44-1.57
		C502.68,273.38,502.5,274.29,502.36,275.19z"/>
	<path style="fill-rule:evenodd;clip-rule:evenodd;fill:#E6E010;" d="M467.02,276.76c-1.27,0-2.55,0.01-3.82-0.01
		c-0.28,0-0.69,0.1-0.68-0.41c0.01-0.34,0.25-0.53,0.54-0.53c2.58-0.04,5.16-0.26,7.73,0.13c0.28,0.04,0.89-0.06,0.82,0.45
		c-0.07,0.53-0.65,0.32-1.01,0.33c-1.19,0.03-2.39,0.01-3.58,0.01C467.02,276.74,467.02,276.75,467.02,276.76z"/>
	<path style="fill-rule:evenodd;clip-rule:evenodd;fill:#E7E10F;" d="M510.97,267.59c-0.22-0.05-0.55-0.03-0.63-0.16
		c-0.18-0.3,0.08-0.52,0.34-0.65c2.54-1.22,5.09-2.43,7.64-3.62c0.15-0.07,0.37-0.02,0.56-0.02c-0.1,0.2-0.14,0.46-0.3,0.59
		c-0.42,0.35-0.89,0.65-1.34,0.98C515.19,265.77,513.41,267.39,510.97,267.59z"/>
	<path style="fill-rule:evenodd;clip-rule:evenodd;fill:#4E4B51;" d="M512.92,281.28c-1.02-0.06-1.33,0.72-1.67,1.44
		c-0.32-0.43-0.64-0.8-0.96,0c-0.32,0.23-0.64,0.47-0.96,0.7c-0.04,0.41-0.35,0.63-0.62,0.87c-0.25,0.15-0.44,0.46-0.8,0.36
		c-0.24-0.79,0.37-1.29,0.73-1.79c0.82-1.13,1.53-2.42,2.87-3.04c0.69-0.32,1.56-0.63,1.21,0.8
		C512.67,280.81,512.84,281.06,512.92,281.28z"/>
	<path style="fill-rule:evenodd;clip-rule:evenodd;fill:#E9E30F;" d="M440.2,306.25c-0.79,0.06-1.58,0.13-2.37,0.17
		c-0.33,0.01-0.69,0.12-0.97-0.17c0.28-0.2,0.55-0.42,0.85-0.58c1.15-0.62,2.31-1.22,3.47-1.82c0.8,0.27,1.21,1.05,1.04,1.66
		C441.98,306.44,440.84,305.86,440.2,306.25z"/>
	<path style="fill-rule:evenodd;clip-rule:evenodd;fill:#D1CB16;" d="M465.13,289.95c0.01,0.19,0.06,0.46-0.22,0.44
		c-0.14-0.01-0.34-0.21-0.38-0.36c-0.23-0.85-0.45-1.7-0.6-2.56c-0.5-2.83-1.12-5.64-1.9-8.41c-0.14-0.5-0.5-1.41-0.02-1.5
		c0.71-0.13,0.46,0.82,0.57,1.3c0.77,3.22,1.49,6.46,2.23,9.69C464.91,289.01,465.02,289.48,465.13,289.95z"/>
	<path style="fill-rule:evenodd;clip-rule:evenodd;fill:#ED3B4C;" d="M451.45,283.45c-0.92,0.65-1.87,1.13-2.89,0.27
		c-0.79-0.67-1.28-1.5-0.9-2.61c0.44-1.28,1.37-1.59,2.58-0.86c0.36,0.22,0.24-0.11,0.3-0.23c0.23,0.28,0.26,0.61,0.24,0.95
		c0.22,0.98-0.28,0.56-0.65,0.33c-0.32-0.2-0.63-0.36-0.98-0.1c-0.31,0.23-0.44,0.56-0.39,0.93c0.05,0.38,0.26,0.66,0.63,0.78
		c0.39,0.13,0.67-0.05,0.92-0.35c0.22-0.26,0.09-0.86,0.69-0.78C451.15,282.33,451.3,282.89,451.45,283.45z"/>
	<path style="fill-rule:evenodd;clip-rule:evenodd;fill:#D8D314;" d="M495.88,267.09c-0.04,0.05-0.09,0.07-0.15,0.06
		c-0.13,0.01-0.23,0.1-0.32,0.18c-0.85,0.42-1.69,0.85-2.56,1.24c-0.41,0.18-0.82,0.31-0.78,0.88c0.08,0.3,0.2,0.6-0.11,0.84
		c-0.25,0.04-0.3-0.15-0.37-0.32c-0.06-0.85-0.4-0.9-1.15-0.59c-1.6,0.66-3.15,1.5-4.88,1.82l0.01,0.01
		c0.85-0.96,2.09-1.25,3.2-1.73c1.92-0.83,3.76-1.85,5.8-2.41c0.14,0,0.24-0.09,0.35-0.16c0.05-0.06,0.12-0.08,0.2-0.06
		c0.16-0.11,0.38-0.07,0.53-0.2c0.04-0.05,0.1-0.07,0.16-0.05c0.26-0.08,0.54-0.18,0.55,0.27l-0.06,0.05l-0.07-0.01
		C496.08,266.92,495.98,267.01,495.88,267.09z"/>
	<path style="fill-rule:evenodd;clip-rule:evenodd;fill:#BEC72C;" d="M486.52,262.08c1.65-0.13,3.24-0.52,4.83-0.94
		c0.38,0.13,1.03-0.44,1.14,0.37c0.09,0.66-0.4,0.92-0.95,0.98c-1.58,0.2-3.16,0.37-4.74,0.54c-0.28,0.03-0.6,0.05-0.73-0.26
		C485.89,262.36,486.23,262.22,486.52,262.08z"/>
	<path style="fill-rule:evenodd;clip-rule:evenodd;fill:#EB3A4A;" d="M479.8,278.88c-0.02-0.95-0.04-1.89,0.53-2.74
		c1.09-1.64,2.54-1.79,3.93-0.37c0.3,0.31,0.58,0.64,0.87,0.96c-0.34,0.31-0.75,0.46-1.2,0.53c-0.11-0.04-0.21-0.11-0.29-0.2
		c-1.22-1.28-2.1-1.06-2.65,0.66c-0.1,0.33-0.08,0.72-0.48,0.89C480.28,278.71,480.04,278.8,479.8,278.88z"/>
	<path style="fill-rule:evenodd;clip-rule:evenodd;fill:#E9252C;" d="M517.79,264.99c0.9-0.67,1.18-0.29,1.33,0.67
		c0.39,2.63,0.37,2.73-1.37,3.15c-0.24,0.1-0.41-0.04-0.46-0.23c-0.24-1.03-0.69-2.03-0.35-3.13
		C517.12,265.09,517.49,265.11,517.79,264.99z"/>
	<path style="fill-rule:evenodd;clip-rule:evenodd;fill:#E2DC12;" d="M457.08,276.52c-1.39,0.22-3.04,0-4.68-0.3
		c-0.38-0.07-0.78-0.15-0.95-0.57c0.33-0.04,0.67-0.15,1-0.12c2.54,0.21,5.09,0.26,7.64,0.24c0.29,0,0.73-0.1,0.67,0.41
		c-0.05,0.45-0.44,0.35-0.75,0.35C459.13,276.52,458.25,276.52,457.08,276.52z"/>
	<path style="fill-rule:evenodd;clip-rule:evenodd;fill:#BBC32D;" d="M477.71,269.26c-0.47-0.01-0.73,0.06-0.76-0.2
		c-0.01-0.14,0.16-0.37,0.3-0.43c2.45-1.15,4.9-2.29,7.36-3.42c0.12-0.06,0.29-0.01,0.43-0.01c-0.05,0.13-0.07,0.33-0.17,0.4
		C482.55,267.13,480.05,268.31,477.71,269.26z"/>
	<path style="fill-rule:evenodd;clip-rule:evenodd;fill:#E64A65;" d="M484.61,282.71c-0.88,0.33-1.77,0.65-2.65,0.98
		c-1.03-0.24-0.77-1.14-0.93-1.83c1.1-0.34,2.1-1.01,3.29-1.1C485.17,281.3,485.06,281.98,484.61,282.71z"/>
	<path style="fill-rule:evenodd;clip-rule:evenodd;fill:#32241C;" d="M458.93,270.48c1.53-0.27,0.92,1.02,1.21,1.66
		c0.26,0.41,0.31,0.81-0.01,1.21c-0.35,0.15-0.89,0.11-0.74,0.75c-0.03-0.03-0.07-0.06-0.08-0.09c-0.88-2.65-0.88-2.64-3.66-1.94
		c-1.39,0.35-2.79,0.67-4.18,1.01c-0.09-0.08-0.18-0.16-0.27-0.23c0.67-0.68,1.51-0.78,2.41-0.71c0.58-0.14,1.15-0.28,1.73-0.42
		C456.45,271.07,457.69,270.77,458.93,270.48z"/>
	<path style="fill-rule:evenodd;clip-rule:evenodd;fill:#49464C;" d="M506.68,282.22c-0.21,1.1-0.63,2.12-1.23,3.05
		c-0.32,0.5-0.44,1-0.46,1.58c-0.05,1.66-0.14,3.32-0.23,4.98c-0.02,0.3,0.06,0.74-0.44,0.66c-0.38-0.06-0.21-0.42-0.24-0.69
		c-0.25-2.92,0.41-5.65,1.6-8.3c0.25-0.55,0.53-0.95,1.01-1.26L506.68,282.22z"/>
	<path style="fill-rule:evenodd;clip-rule:evenodd;fill:#139CCA;" d="M478.59,294.24c-3.11,0.98-6.28,1.77-9.49,2.34
		c-0.32,0.06-0.89,0.23-0.92-0.2c-0.03-0.47,0.56-0.19,0.86-0.3c2.92-1.08,6.07-1.19,9.03-2.12
		C478.33,293.89,478.62,293.75,478.59,294.24z"/>
	<path style="fill-rule:evenodd;clip-rule:evenodd;fill:#E92F39;" d="M511.93,268.08c0.57,1,0.38,2.06,0.26,3.12
		c-1.17,1.05-1.59,0.53-1.65-0.78c-0.04-0.92-0.46-1.99,0.94-2.33C511.63,267.95,511.78,267.93,511.93,268.08z"/>
	<path style="fill-rule:evenodd;clip-rule:evenodd;fill:#E63747;" d="M517.24,272.36c0.32-0.18,0.65-0.35,0.97-0.53
		c0.25,0.84,0.09,1.63-0.25,2.4c-1.13,0.73-2.34,1.29-3.62,1.74c-0.83-0.14-1.33-0.6-1.48-1.44c0.33-0.15,0.66-0.31,0.99-0.46
		c0.29-0.19,0.51-0.05,0.76,0.11c0.98,0.59,1.59,0.39,1.99-0.7C516.75,273.06,516.85,272.64,517.24,272.36z"/>
	<path style="fill-rule:evenodd;clip-rule:evenodd;fill:#EA4963;" d="M480.52,278.62c0.11-0.52,0.14-1.09,0.37-1.56
		c0.3-0.62,0.69-1.36,1.54-1.23c0.76,0.12,1.39,0.55,1.5,1.43C482.86,277.88,481.7,278.27,480.52,278.62z"/>
	<path style="fill-rule:evenodd;clip-rule:evenodd;fill:#EE4A65;" d="M451,281.77c-0.35,0.68-0.38,1.74-1.52,1.58
		c-0.54-0.08-1.03-0.43-1.12-1.09c-0.08-0.61,0.12-1.08,0.6-1.46c0.55-0.43,0.97-0.09,1.37,0.23c0.22,0.18,0.38,0.54,0.44-0.07
		C450.85,281.23,450.93,281.5,451,281.77z"/>
	<path style="fill-rule:evenodd;clip-rule:evenodd;fill:#05A9E0;" d="M456.06,296.89c-0.11-0.93,0.42-1.72,0.56-2.6
		c0.1-0.6,0.73-0.2,1.1-0.32c0.5,0.49,0.29,2.66-0.38,3.3C456.75,297.84,456.49,297.03,456.06,296.89z"/>
	<path style="fill-rule:evenodd;clip-rule:evenodd;fill:#4D4B51;" d="M508.37,292.84c0.24,0.35,0.55,0.67,0.47,1.15
		c-0.43,0.1-0.53,1.06-1.1,0.59c-0.44-0.37-0.61-1.01-0.66-1.65c-0.09-1,0.2-2.02-0.15-3c0.13-0.13,0.29-0.19,0.47-0.2
		c0.35,0.03,0.67,0.13,0.95,0.34c0.18,0.55,0.59,1.09,0.09,1.68C508.03,292.08,508.16,292.46,508.37,292.84z"/>
	<path style="fill-rule:evenodd;clip-rule:evenodd;fill:#B8C02C;" d="M508.59,259.91c0.74-0.02,1.5,0.11,2.22-0.19
		c0.58-0.02,1.17-0.04,1.75-0.06c-0.4,0.55-1.06,0.63-1.63,0.85c-0.89,0.34-1.8,0.65-2.73,0.86c-0.36,0.08-1,0.28-1.13-0.31
		c-0.15-0.66,0.4-0.86,0.94-0.99C508.21,260.03,508.4,259.97,508.59,259.91z"/>
	<path style="fill-rule:evenodd;clip-rule:evenodd;fill:#59565D;" d="M507.39,289.92c-0.15,0-0.31,0-0.46,0
		c0.18-1.49,0.28-2.99,0.62-4.46c0.08-0.33,0.23-0.55,0.36-0.82c0.23-0.15,0.32-0.5,0.67-0.47c0.4,0.07,0.58,0.31,0.6,0.7
		c-0.04,0.4-0.64,0.63-0.35,1.13c0.08,0.15,0.11,0.3-0.03,0.43c-0.53,0.24-0.66,0.56-0.19,1c0.06,0.52,0.02,1.04,0.05,1.55
		C508.27,289.34,507.8,289.59,507.39,289.92z"/>
	<path style="fill-rule:evenodd;clip-rule:evenodd;fill:#E5262C;" d="M517.95,274.24c-0.08-0.82-0.05-1.63,0.25-2.4
		c0.53-0.11,0.93-1.23,1.5-0.44c0.51,0.71,0.96,1.74-0.49,2.22C518.78,273.75,518.37,274.02,517.95,274.24z"/>
	<path style="fill-rule:evenodd;clip-rule:evenodd;fill:#E2272D;" d="M512.85,274.53c0.49,0.48,0.99,0.96,1.48,1.44
		c-0.28,0.15-0.55,0.4-0.84,0.43c-0.66,0.07-1.3,1.36-1.87,0.35C511.03,275.7,511.5,274.76,512.85,274.53z"/>
	<path style="fill-rule:evenodd;clip-rule:evenodd;fill:#E95E25;" d="M516.31,258.03c0.52-0.7,0.66-1.65,1.45-2.18
		c0.38,0.14,1.04-0.54,1.13,0.26c0.08,0.72,0.01,1.68-0.76,1.94C517.64,258.22,516.88,259,516.31,258.03z"/>
	<path style="fill-rule:evenodd;clip-rule:evenodd;fill:#E7475F;" d="M517.24,272.36c-0.16,0.56-0.2,1.19-0.49,1.67
		c-0.91,1.54-1.93,0.88-2.91,0.03C514.97,273.5,516.1,272.93,517.24,272.36z"/>
	<path style="fill-rule:evenodd;clip-rule:evenodd;fill:#4A3929;" d="M452.69,278.14c0.31,1.29,0.62,2.59,0.93,3.88
		c-0.34,0.34-0.25,0.75-0.11,1.11c0.2,0.52,0.1,0.86-0.4,1.09c-0.9-0.47-0.68-1.5-1.1-2.2c-0.05-0.16-0.08-0.33-0.15-0.48
		c-0.05-0.1-0.09-0.21-0.12-0.31c0.01-0.31-0.37-0.62,0.02-0.92c0.08-0.17,0.15-0.34,0.23-0.51c0.72,0.31,0.45,1.08,0.73,1.6
		c0.04,0.07,0.03,0.17,0.08,0.22c0.08,0.08,0.11,0.08,0.05,0.04c0.01-0.01-0.04-0.04-0.05-0.1c-0.13-0.81-0.71-1.57-0.31-2.45
		C452.79,278.83,452.62,278.46,452.69,278.14z"/>
	<path style="fill-rule:evenodd;clip-rule:evenodd;fill:#E73847;" d="M497.57,270.52c0-1.1,0.62-1.77,1.57-2.11
		c0.79-0.29,1.54-0.14,2.05,0.64C500.01,269.6,498.86,270.23,497.57,270.52z"/>
	<path style="fill-rule:evenodd;clip-rule:evenodd;fill:#E93340;" d="M512.22,264.56c-0.19-1.18,0.67-1.74,1.46-2.22
		c0.85-0.52,1.35,0.3,1.93,0.72C514.54,263.71,513.38,264.14,512.22,264.56z"/>
	<path style="fill-rule:evenodd;clip-rule:evenodd;fill:#E7E110;" d="M446.34,274.94c0.71,0,1.43,0.01,2.14,0
		c0.29-0.01,0.58-0.05,0.62,0.35c0.03,0.34-0.15,0.52-0.49,0.52c-1.59-0.02-3.18-0.04-4.78-0.1c-0.15-0.01-0.43-0.22-0.43-0.33
		c0.01-0.31,0.31-0.3,0.55-0.3c0.8-0.01,1.59,0,2.39,0C446.34,275.03,446.34,274.98,446.34,274.94z"/>
	<path style="fill-rule:evenodd;clip-rule:evenodd;fill:#3C3128;" d="M517.79,264.99c-0.18,0.15-0.37,0.3-0.55,0.45
		c-0.38,0.2-0.63,0.71-1.19,0.51c-1.36,0.64-2.71,1.28-4.07,1.92c-0.26-0.37-0.67-0.21-1.02-0.27c2.27-0.57,4-2.3,6.26-2.88
		C517.42,264.8,517.61,264.89,517.79,264.99z"/>
	<path style="fill-rule:evenodd;clip-rule:evenodd;fill:#EA3341;" d="M516.06,265.94c0.39-0.17,0.79-0.34,1.19-0.51
		c-0.19,1.18,0.14,2.28,0.51,3.37c-0.39,0.17-0.79,0.33-1.18,0.5C516.37,268.19,515.88,267.12,516.06,265.94z"/>
	<path style="fill-rule:evenodd;clip-rule:evenodd;fill:#D9D315;" d="M452.13,281.76c0.33,0.82,0.66,1.64,0.99,2.46
		c0.27,1.24,0.54,2.47,0.8,3.71c0.04,0.2,0.31,0.47-0.06,0.58c-0.21,0.06-0.49-0.01-0.51-0.34c-0.12-1.97-1.14-3.7-1.42-5.63
		c-0.09-0.17-0.07-0.38-0.17-0.54c-0.03-0.14-0.05-0.27-0.08-0.41c-0.1-0.25,0.01-0.33,0.25-0.3c0.04,0.06,0.05,0.13,0.05,0.2
		C452.03,281.57,452.08,281.66,452.13,281.76z"/>
	<path style="fill-rule:evenodd;clip-rule:evenodd;fill:#A5632A;" d="M481.6,285.06c-0.22-0.04-0.33-0.06-0.43-0.08
		c0.1-0.11,0.18-0.27,0.3-0.32c1.1-0.48,2.19-0.98,3.31-1.41c1.41-0.54,2.85-1.03,4.28-1.54c0.11-0.04,0.22-0.04,0.33-0.06
		c-0.04,0.08-0.05,0.22-0.11,0.24C486.69,282.96,484.11,284.03,481.6,285.06z"/>
	<path style="fill-rule:evenodd;clip-rule:evenodd;fill:#D9D316;" d="M480.03,273.34c-1.81,0.7-3.62,1.41-5.44,2.1
		c-0.33,0.12-0.78,0.31-0.92-0.13c-0.13-0.41,0.4-0.4,0.66-0.5c1.76-0.73,3.54-1.4,5.43-1.72
		C480.03,272.99,480.08,273.11,480.03,273.34z"/>
	<path style="fill-rule:evenodd;clip-rule:evenodd;fill:#E6303A;" d="M502.36,275.19c-0.49-0.79-0.07-1.74-0.46-2.55
		c0.39-0.16,0.78-0.33,1.17-0.49c0.69,0.7,0.27,1.64,0.54,2.44C503.2,274.79,502.78,274.99,502.36,275.19z"/>
	<path style="fill-rule:evenodd;clip-rule:evenodd;fill:#4C4A50;" d="M509.56,294.96c0.24,0.25,0.49,0.5,0.73,0.75
		c0.33,0.7-0.11,1.17-0.49,1.66l0.01-0.01c-0.56-0.05-1.31,0.15-1.04-0.9c0.08-0.32-0.23-0.46-0.51-0.54
		c-0.21-0.06-0.38-0.19-0.31-0.42c0.12-0.38,0.34-0.17,0.54-0.05C509.06,295.77,509.16,295.03,509.56,294.96z"/>
	<path style="fill-rule:evenodd;clip-rule:evenodd;fill:#E73B4C;" d="M498.27,274.33c0.07,0.94,0.57,1.57,1.44,1.9
		c-0.63,0.26-1.27,0.52-1.9,0.78c0.24-0.84-0.73-1.41-0.53-2.24C497.61,274.62,497.94,274.48,498.27,274.33z"/>
	<path style="fill-rule:evenodd;clip-rule:evenodd;fill:#C6C020;" d="M491.82,270.24c0.08-0.26,0.17-0.53,0.25-0.79
		c0.24,2.26,0.48,4.51,0.72,6.77c0.1,0.28,0.18,0.54-0.28,0.51c-0.56-1.8-0.51-3.68-0.74-5.53
		C491.66,270.88,491.6,270.55,491.82,270.24z"/>
	<path style="fill-rule:evenodd;clip-rule:evenodd;fill:#C85826;" d="M509.38,272.24c0-0.27,0.03-0.11-0.01,0.04
		c-0.09,0.4,0.4,1.07-0.07,1.12c-0.43,0.04-0.61-0.71-0.67-1.22c-0.04-0.35-0.09-0.71-0.08-1.06c0.02-0.58-0.55-1.53,0.3-1.61
		c0.6-0.05,0.37,1.01,0.47,1.59C509.37,271.33,509.35,271.57,509.38,272.24z"/>
	<path style="fill-rule:evenodd;clip-rule:evenodd;fill:#CD5B27;" d="M494.4,262.57c0.69,0.96,0.39,2.08,0.48,3.14
		c0.01,0.15-0.17,0.32-0.26,0.49c-0.11-0.14-0.31-0.28-0.33-0.43c-0.1-1.15-0.63-2.25-0.36-3.43c0.08-0.1,0.18-0.11,0.28-0.04
		l-0.01,0C494.28,262.39,494.34,262.48,494.4,262.57z"/>
	<path style="fill-rule:evenodd;clip-rule:evenodd;fill:#5A452C;" d="M497.04,278.08c2.01-0.86,4.02-1.73,6.03-2.58
		c0.16-0.07,0.36-0.05,0.54-0.07c-0.14,0.13-0.25,0.3-0.41,0.37c-1.96,0.87-3.92,1.73-5.89,2.6
		C497.22,278.29,497.04,278.27,497.04,278.08z"/>
	<path style="fill-rule:evenodd;clip-rule:evenodd;fill:#A5642C;" d="M487.95,276.71c-2.16,0.8-4.18,1.95-6.44,2.47
		c-0.23,0.03-0.32-0.06-0.24-0.29c2.15-0.82,4.29-1.65,6.44-2.47C487.94,276.39,488.02,276.49,487.95,276.71z"/>
	<path style="fill-rule:evenodd;clip-rule:evenodd;fill:#C7C21A;" d="M519.65,259.92c0.41,1.99,0.82,3.98,1.23,5.96
		c0.08,0.26-0.03,0.32-0.27,0.27c-0.42-1.85-0.84-3.71-1.26-5.56C519.29,260.32,519.06,259.93,519.65,259.92z"/>
	<path style="fill-rule:evenodd;clip-rule:evenodd;fill:#E8303A;" d="M480.03,284.63c-0.47-0.61-0.14-1.73-1.25-1.93
		c0.42-0.15,0.83-0.31,1.25-0.46c0.97,0.12,1.28,0.73,0.97,1.9C480.67,284.3,480.35,284.47,480.03,284.63z"/>
	<path style="fill-rule:evenodd;clip-rule:evenodd;fill:#1F93BC;" d="M473.52,293.13c-0.16,0.18-0.22,0.29-0.31,0.34
		c-1.18,0.57-2.36,1.14-3.55,1.69c-0.13,0.06-0.3,0-0.46,0c0.04-0.09,0.06-0.22,0.14-0.27c1.15-0.79,2.32-1.56,3.72-1.84
		C473.17,293.02,473.31,293.09,473.52,293.13z"/>
	<path style="fill-rule:evenodd;clip-rule:evenodd;fill:#A4AA2A;" d="M444.08,274.1c1.11-0.32,2.23-0.63,3.34-0.95
		c0.4-0.04,0.8-0.07,1.2-0.11c0.08-0.04,0.17-0.07,0.25-0.11c0.39-0.02,0.77-0.03,1.16-0.04c0.03,0.04,0.06,0.08,0.09,0.12
		c-0.04,0.02-0.09,0.04-0.13,0.07c-1.64,0.42-3.28,0.84-4.92,1.25C444.71,274.41,444.29,274.69,444.08,274.1z"/>
	<path style="fill-rule:evenodd;clip-rule:evenodd;fill:#272527;" d="M522.25,275.5c-0.03-0.83,0.14-1.62,0.46-2.39
		c0.09,0,0.18,0,0.27,0.01c-0.07,0.64-0.14,1.28-0.21,1.91c-0.41,0.78-0.13,1.59-0.07,2.38c-0.33,0.19-0.7,0.61-1.05,0.26
		c-0.31-0.31,0.63-0.29,0.36-0.74c0.02-0.23,0.04-0.47,0.07-0.7C522.23,276.01,522.09,275.72,522.25,275.5z"/>
	<path style="fill-rule:evenodd;clip-rule:evenodd;fill:#A8A322;" d="M509.53,268.6c-0.29-1.51-0.58-3.03-0.87-4.54
		c-0.05-0.26-0.05-0.52,0.24-0.57c0.34-0.06,0.34,0.26,0.37,0.48c0.17,1.46,0.33,2.92,0.49,4.38
		C509.69,268.43,509.68,268.57,509.53,268.6z"/>
	<path style="fill-rule:evenodd;clip-rule:evenodd;fill:#B6B022;" d="M480.03,273.34c-0.09-0.08-0.18-0.17-0.27-0.25
		c1.9-0.74,3.75-1.65,5.81-1.88c0,0-0.01-0.01-0.01-0.01C483.87,272.31,481.85,272.57,480.03,273.34z"/>
	<path style="fill-rule:evenodd;clip-rule:evenodd;fill:#D6D017;" d="M444.55,281.01c-0.07-0.15-0.15-0.31-0.22-0.46
		c-0.27-1.25-0.63-2.47-1.19-3.63c0.02-0.24-0.25-0.58,0.19-0.67c0.36-0.08,0.44,0.18,0.51,0.49c0.3,1.35,0.63,2.69,0.94,4.03
		C444.9,281.03,444.77,281.06,444.55,281.01z"/>
	<path style="fill-rule:evenodd;clip-rule:evenodd;fill:#E73E51;" d="M484.61,282.71c-0.06-0.66,0.13-1.35-0.29-1.95
		c0,0,0.02,0.02,0.02,0.02c0.08-0.06,0.17-0.11,0.25-0.16c0.33-0.11,0.65-0.23,0.98-0.34c0.37,0.7,0.65,1.4,0.01,2.11
		C485.26,282.5,484.93,282.61,484.61,282.71z"/>
	<path style="fill-rule:evenodd;clip-rule:evenodd;fill:#C55F28;" d="M520.39,267.68c-0.05,0.27,0.14,0.6-0.18,0.65
		c-0.31,0.05-0.31-0.29-0.35-0.51c-0.18-1.09-0.36-2.18-0.53-3.28c-0.02-0.14-0.01-0.42,0.02-0.42c0.27-0.04,0.26,0.21,0.33,0.38
		C520.09,265.54,520.25,266.64,520.39,267.68z"/>
	<path style="fill-rule:evenodd;clip-rule:evenodd;fill:#9F9B27;" d="M509.83,269.01c0.22,1.46,0.43,2.92,0.65,4.39
		c-0.33,0.62,0.31,1.35-0.24,1.94c-0.21-2.03-0.42-4.05-0.63-6.08C509.65,269.14,509.72,269.06,509.83,269.01z"/>
	<path style="fill-rule:evenodd;clip-rule:evenodd;fill:#DF2E36;" d="M485.58,282.4c0.37-0.71-0.23-1.41-0.01-2.11
		c0.23-0.07,0.47-0.14,0.7-0.22c0.55,0.44-0.21,1.48,0.79,1.71C486.57,281.98,486.07,282.19,485.58,282.4z"/>
	<path style="fill-rule:evenodd;clip-rule:evenodd;fill:#C2BC1D;" d="M450.81,276.2c0.76,0.94,0.59,2.08,0.65,3.17
		c-0.15,0.14-0.02,0.41-0.24,0.52c-0.32-1.2-0.75-2.38-0.7-3.65C450.6,276.11,450.69,276.09,450.81,276.2z"/>
	<path style="fill-rule:evenodd;clip-rule:evenodd;fill:#E54053;" d="M480.99,284.14c-0.14-0.72-0.17-1.51-0.97-1.9
		c0.33-0.13,0.67-0.25,1-0.37c0.79,0.36,0.14,1.46,0.93,1.83C481.64,283.84,481.32,283.99,480.99,284.14z"/>
	<path style="fill-rule:evenodd;clip-rule:evenodd;fill:#4F4D53;" d="M514.82,281.53c-0.38-0.16-0.77-0.31-1.15-0.47
		c0.15-0.43-0.42-0.96,0.12-1.27c0.18-0.11,0.61,0.1,0.87,0.25C515.34,280.44,514.91,281.01,514.82,281.53z"/>
	<path style="fill-rule:evenodd;clip-rule:evenodd;fill:#B9672C;" d="M452.48,279.1c0.16,0.77,0.33,1.54,0.47,2.32
		c0.05,0.28,0.34,0.54,0.08,0.85c-0.16-0.27-0.36-0.52-0.47-0.81c-0.22-0.55-0.38-1.11-0.57-1.67c-0.01-0.23-0.05-0.47-0.02-0.7
		c0.05-0.39-0.21-0.81,0.11-1.18C452.21,278.31,452.35,278.71,452.48,279.1z"/>
	<path style="fill-rule:evenodd;clip-rule:evenodd;fill:#BD622A;" d="M486.3,266.64c-0.13-0.7-0.25-1.39-0.39-2.09
		c-0.05-0.23-0.51-0.38-0.15-0.68c0.1-0.08,0.31-0.1,0.44-0.07c0.35,0.09,0.3,0.41,0.33,0.68c0.08,0.78,0.17,1.56,0.25,2.35
		c0.04,0.36,0.38,0.8-0.25,0.99c-0.01-0.14-0.03-0.29-0.04-0.43C486.33,267.17,486.49,266.86,486.3,266.64z"/>
	<path style="fill-rule:evenodd;clip-rule:evenodd;fill:#C65A28;" d="M475.97,272.51c-0.1,0.36,0.19,0.98-0.29,1.02
		c-0.64,0.05-0.32-0.64-0.45-1c-0.01-0.03-0.02-0.08-0.01-0.12c0.19-0.53-0.62-1.45,0.31-1.55
		C475.98,270.82,475.89,271.91,475.97,272.51z"/>
	<path style="fill-rule:evenodd;clip-rule:evenodd;fill:#434146;" d="M507.49,298.92c-0.04,0.07-0.09,0.19-0.11,0.19
		c-0.14-0.03-0.3-0.07-0.41-0.15c-0.86-0.67-1.04-1.75-1.59-2.61c-0.11-0.16-0.04-0.35,0.14-0.36c0.17,0,0.5,0.12,0.51,0.18
		c0,1.1,0.81,1.75,1.36,2.54C507.43,298.77,507.46,298.85,507.49,298.92z"/>
	<path style="fill-rule:evenodd;clip-rule:evenodd;fill:#218FB5;" d="M478.59,294.24c-0.18-0.09-0.35-0.18-0.53-0.26
		c1.16-0.58,2.43-0.81,3.67-1.15c0.17,0.08,0.35,0.16,0.52,0.24C481.11,293.67,479.83,293.88,478.59,294.24z"/>
	<path style="fill-rule:evenodd;clip-rule:evenodd;fill:#D4CE16;" d="M510.24,275.33c0.21-0.63-0.16-1.33,0.24-1.94
		c0.16,0.98,0.34,1.97,0.46,2.95c0.04,0.35,0.32,0.96-0.21,1.01c-0.48,0.05-0.31-0.61-0.4-0.96
		C510.24,276.06,510.26,275.69,510.24,275.33z"/>
	<path style="fill-rule:evenodd;clip-rule:evenodd;fill:#CAC41B;" d="M496.35,266.87c-0.18-0.09-0.37-0.18-0.55-0.27
		c1-0.56,2.08-0.92,3.19-1.19c0.19,0.1,0.38,0.2,0.56,0.3C498.48,266.1,497.42,266.48,496.35,266.87z"/>
	<path style="fill-rule:evenodd;clip-rule:evenodd;fill:#64642D;" d="M476.26,268.76c0.4,1.33,0.44,2.7,0.42,4.08
		c0,0.13-0.12,0.25-0.19,0.38c-0.06-0.08-0.19-0.17-0.18-0.23c0.32-1.29-0.49-2.47-0.34-3.73
		C476.15,269.14,476,268.83,476.26,268.76z"/>
	<path style="fill-rule:evenodd;clip-rule:evenodd;fill:#91562A;" d="M485.5,267.24c0-0.28,0-0.74,0-1.19
		c0.57,0.29,0.42,0.92,0.49,1.34c0.11,0.74,0.57,1.5,0.15,2.29C485.44,269.06,485.64,268.2,485.5,267.24z"/>
	<path style="fill-rule:evenodd;clip-rule:evenodd;fill:#96992C;" d="M460.13,273.36c0-0.4,0.01-0.81,0.01-1.21
		c0.33-0.27,0.15-0.67,0.25-0.99c0.16,1.09,0.34,2.18,0.48,3.28c0.03,0.23,0.23,0.62-0.2,0.66c-0.27,0.02-0.27-0.33-0.32-0.56
		C460.28,274.14,460.2,273.75,460.13,273.36z"/>
	<path style="fill-rule:evenodd;clip-rule:evenodd;fill:#9A9C2D;" d="M476.26,268.76c-0.09,0.17-0.19,0.33-0.28,0.5
		c-0.17-0.97-0.35-1.94-0.5-2.91c-0.03-0.19,0-0.43,0.24-0.46c0.3-0.04,0.26,0.23,0.28,0.4
		C476.09,267.11,476.17,267.94,476.26,268.76z"/>
	<path style="fill-rule:evenodd;clip-rule:evenodd;fill:#72512E;" d="M491.02,269.93c0.09,0.2,0.24,0.4,0.27,0.61
		c0.11,0.74,0.18,1.48,0.25,2.22c0.01,0.12-0.08,0.25-0.13,0.38c-0.07-0.09-0.19-0.16-0.22-0.26c-0.2-0.84-0.38-1.68-0.55-2.53
		C490.61,270.15,490.74,269.98,491.02,269.93z"/>
	<path style="fill-rule:evenodd;clip-rule:evenodd;fill:#189AC6;" d="M444.99,302.16c0.18,0.28,0.47,0.2,0.73,0.25
		c-0.96,0.36-1.91,0.74-2.87,1.07c-0.54,0.19-0.55-0.03-0.26-0.41C443.39,302.76,444.19,302.46,444.99,302.16z"/>
	<path style="fill-rule:evenodd;clip-rule:evenodd;fill:#B7B11D;" d="M507.92,264.22c0.08-0.09,0.16-0.18,0.24-0.27
		c0.18,0.81,0.36,1.61,0.53,2.42c0.04,0.19,0.09,0.42-0.18,0.47c-0.24,0.04-0.36-0.17-0.38-0.37
		C508.05,265.72,507.99,264.97,507.92,264.22z"/>
	<path style="fill-rule:evenodd;clip-rule:evenodd;fill:#4F3E2A;" d="M500.94,270.1c-0.85,0.43-1.42,0.81-2.05,1.01
		c-0.51,0.17-1,0.56-1.61,0.36c0.37-0.41,0.93-0.38,1.38-0.6c0.53-0.26,1.06-0.53,1.6-0.77C500.38,270.05,500.54,270.1,500.94,270.1
		z"/>
	<path style="fill-rule:evenodd;clip-rule:evenodd;fill:#8C8E2A;" d="M453.6,272.14c-0.8,0.24-1.6,0.48-2.41,0.71
		c-0.22,0.02-0.45,0.05-0.67,0.07c-0.18,0.07-0.35,0.1-0.5-0.05l0,0.01C451.17,272.38,452.28,271.76,453.6,272.14z"/>
	<path style="fill-rule:evenodd;clip-rule:evenodd;fill:#ACA621;" d="M520.61,266.15c0.09-0.09,0.18-0.18,0.27-0.27
		c0.17,0.88,0.33,1.76,0.5,2.64c0.05,0.24,0.18,0.54-0.28,0.5C520.94,268.07,520.77,267.11,520.61,266.15z"/>
	<path style="fill-rule:evenodd;clip-rule:evenodd;fill:#ACA624;" d="M444.55,281.01c0.08-0.08,0.16-0.17,0.23-0.25
		c0.24,0.8,0.47,1.61,0.71,2.41c0.11,0.26-0.02,0.29-0.23,0.25C444.89,282.66,444.68,281.85,444.55,281.01z"/>
	<path style="fill-rule:evenodd;clip-rule:evenodd;fill:#7C772B;" d="M521.1,269.02c0.09-0.17,0.18-0.33,0.28-0.5
		c0.06,0.02,0.11,0.03,0.17,0.03c0.08,0.95,0.17,1.9,0.25,2.85C520.83,270.82,521.4,269.8,521.1,269.02z"/>
	<path style="fill-rule:evenodd;clip-rule:evenodd;fill:#915D2C;" d="M454.91,287.97c-0.09,0.13-0.17,0.24-0.24,0.34
		c-0.08-0.08-0.18-0.14-0.25-0.23c-0.05-0.06-0.06-0.14-0.08-0.22c-0.14-0.65-0.28-1.3-0.41-1.95c0-0.01,0.14-0.05,0.14-0.05
		C454.35,286.55,454.62,287.24,454.91,287.97z"/>
	<path style="fill-rule:evenodd;clip-rule:evenodd;fill:#CD5B28;" d="M521.05,271.2c0.02,0.31,0.07,0.74-0.38,0.68
		c-0.46-0.06-0.33-0.57-0.38-0.89c-0.07-0.39-0.04-0.83,0.58-0.53C521.03,270.69,520.88,270.98,521.05,271.2z"/>
	<path style="fill-rule:evenodd;clip-rule:evenodd;fill:#C46528;" d="M492.98,284.3c-0.06,0.38,0.02,0.87-0.26,0.81
		c-0.43-0.09-0.31-0.64-0.32-0.98c-0.01-0.41,0.14-0.82,0.22-1.23C492.75,283.4,492.88,283.91,492.98,284.3z"/>
	<path style="fill-rule:evenodd;clip-rule:evenodd;fill:#895C2C;" d="M497.04,278.08c0.09,0.1,0.19,0.21,0.28,0.31
		c-0.23,0.07-0.45,0.17-0.68,0.2c-0.6,0.07-1.06,0.73-1.75,0.41c0.47-0.46,1.1-0.59,1.68-0.83
		C496.72,278.12,496.88,278.11,497.04,278.08z"/>
	<path style="fill-rule:evenodd;clip-rule:evenodd;fill:#388FB0;" d="M463.73,297.13c0.38-0.12,0.75-0.27,1.13-0.36
		c0.46-0.1,1.04-0.7,1.32-0.18c0.13,0.24-0.8,0.42-1.28,0.57c-0.3,0.1-0.61,0.17-0.92,0.25
		C463.74,297.47,463.67,297.36,463.73,297.13z"/>
	<path style="fill-rule:evenodd;clip-rule:evenodd;fill:#444146;" d="M506.9,281.73c-0.35-0.88,0.48-1.05,0.9-1.4
		c0.29-0.24,0.27,0.1,0.17,0.26c-0.25,0.4-0.54,0.78-0.81,1.17C507.07,281.88,506.98,281.87,506.9,281.73z"/>
	<path style="fill-rule:evenodd;clip-rule:evenodd;fill:#A16932;" d="M486.54,267.83c0.33-0.27,0.18-0.66,0.25-0.99
		c0.07,0.34,0.23,0.68,0.21,1.01c-0.03,0.52,0.3,1.04,0,1.56C486.59,268.95,486.56,268.39,486.54,267.83z"/>
	<path style="fill-rule:evenodd;clip-rule:evenodd;fill:#7A772E;" d="M492.51,276.73c0.09-0.17,0.18-0.34,0.28-0.51
		c0.07,0.18,0.19,0.36,0.19,0.54c0.01,0.62-0.03,1.24-0.04,1.86C492.67,278.02,492.47,277.4,492.51,276.73z"/>
	<path style="fill-rule:evenodd;clip-rule:evenodd;fill:#C96526;" d="M509.85,276.88c-0.03,0.17-0.07,0.4-0.12,0.63
		c-0.4-0.39-0.38-0.91-0.43-1.4c-0.02-0.2-0.08-0.65,0.14-0.54C509.94,275.78,509.72,276.38,509.85,276.88z"/>
	<path style="fill-rule:evenodd;clip-rule:evenodd;fill:#C4BD20;" d="M451.22,279.89c0.08-0.17,0.16-0.35,0.24-0.52
		c0.1,0.31,0.21,0.63,0.31,0.94c0.05,0.33,0.11,0.66,0.16,0.99c-0.08,0.1-0.17,0.2-0.25,0.3
		C451.38,281.06,451.24,280.49,451.22,279.89z"/>
	<path style="fill-rule:evenodd;clip-rule:evenodd;fill:#A9672D;" d="M492.17,279.72c-0.01-0.24,0.1-0.5,0.13-0.43
		c0.18,0.46,0.29,0.96,0.38,1.45c0.02,0.12-0.09,0.27-0.15,0.4C491.94,280.75,492.48,280.08,492.17,279.72z"/>
	<path style="fill-rule:evenodd;clip-rule:evenodd;fill:#483928;" d="M446.18,282.75c0.2,0.76,0.35,1.32,0.49,1.89
		c0.01,0.06-0.09,0.15-0.14,0.23c-0.18-0.56-0.38-1.11-0.55-1.67C445.96,283.12,446.05,283.03,446.18,282.75z"/>
	<path style="fill-rule:evenodd;clip-rule:evenodd;fill:#47454A;" d="M504.75,293.93c-0.27-0.03-0.4-0.2-0.43-0.45
		c-0.03-0.25,0.06-0.5,0.32-0.52c0.25-0.02,0.44,0.19,0.45,0.43C505.1,293.62,505.02,293.84,504.75,293.93z"/>
	<path style="fill-rule:evenodd;clip-rule:evenodd;fill:#374753;" d="M510.3,278.65c0.07,0.08,0.14,0.15,0.21,0.23
		c-0.06,0.05-0.11,0.14-0.17,0.15c-0.38,0.04-0.72,0.35-1.12,0.13c-0.03-0.02-0.03-0.16,0-0.21
		C509.49,278.53,509.91,278.65,510.3,278.65z"/>
	<path style="fill-rule:evenodd;clip-rule:evenodd;fill:#403F36;" d="M499.5,260.88c-0.95,0.38-1.93,0.13-2.9,0.18
		C497.54,260.66,498.53,260.93,499.5,260.88z"/>
	<path style="fill-rule:evenodd;clip-rule:evenodd;fill:#C85C25;" d="M506.46,260.92c-0.05,0.21,0.07,0.53-0.28,0.57
		c-0.22,0.03-0.39-0.12-0.39-0.35c0-0.3,0.13-0.59,0.42-0.64C506.5,260.44,506.43,260.74,506.46,260.92z"/>
	<path style="fill-rule:evenodd;clip-rule:evenodd;fill:#393839;" d="M477.4,280.56c-0.31,0.52-0.78,0.74-1.37,0.69
		c-0.04,0-0.11-0.15-0.1-0.16C476.32,280.65,476.87,280.61,477.4,280.56L477.4,280.56z"/>
	<path style="fill-rule:evenodd;clip-rule:evenodd;fill:#664B2A;" d="M481.27,278.9c0.08,0.1,0.16,0.19,0.24,0.29
		c-0.46,0.31-0.95,0.52-1.52,0.5C480.28,279.21,480.82,279.13,481.27,278.9z"/>
	<path style="fill-rule:evenodd;clip-rule:evenodd;fill:#705432;" d="M495.42,264.5c0-0.41-0.18-0.83,0.08-1.22
		c0.12,0.4,0.26,0.8,0.35,1.21c0.05,0.22,0.01,0.47,0.02,0.7C495.26,265.27,495.69,264.66,495.42,264.5z"/>
	<path style="fill-rule:evenodd;clip-rule:evenodd;fill:#414042;" d="M477.65,286.4c-0.5,0.27-0.8,0.45-1.12,0.58
		c-0.1,0.04-0.25-0.07-0.38-0.11c0.16-0.38,0.54-0.42,0.86-0.52C477.13,286.31,477.28,286.37,477.65,286.4z"/>
	<path style="fill-rule:evenodd;clip-rule:evenodd;fill:#64594B;" d="M465.69,288.77c-0.04,0.13-0.08,0.28-0.12,0.43
		c-0.32-0.28-0.35-0.68-0.39-1.05c-0.02-0.14,0.06-0.29,0.09-0.44C465.67,287.95,465.61,288.37,465.69,288.77z"/>
	<path style="fill-rule:evenodd;clip-rule:evenodd;fill:#835A32;" d="M518.87,260.44c0.11,0.58,0.19,0.96,0.23,1.33
		c0.01,0.04-0.2,0.17-0.22,0.15c-0.37-0.29-0.19-0.71-0.22-1.08C518.66,260.78,518.74,260.7,518.87,260.44z"/>
	<path style="fill-rule:evenodd;clip-rule:evenodd;fill:#928E33;" d="M445.26,283.43c0.08-0.08,0.16-0.17,0.23-0.25
		c0.16,0.57,0.32,1.14,0.48,1.71c-0.08,0.08-0.16,0.15-0.24,0.23C445.58,284.55,445.42,283.99,445.26,283.43z"/>
	<path style="fill-rule:evenodd;clip-rule:evenodd;fill:#785632;" d="M472.71,275.67c0.2,0.38,0.34,0.52,0.35,0.68
		c0.02,0.21,0,0.6-0.09,0.62c-0.3,0.09-0.35-0.21-0.36-0.43C472.6,276.34,472.65,276.13,472.71,275.67z"/>
	<path style="fill-rule:evenodd;clip-rule:evenodd;fill:#5E4628;" d="M487.95,276.71c-0.08-0.09-0.16-0.19-0.25-0.28
		c0.38-0.25,0.96-0.7,1.18-0.29C489.08,276.5,488.26,276.48,487.95,276.71z"/>
	<path style="fill-rule:evenodd;clip-rule:evenodd;fill:#C7C218;" d="M461.5,276.69c-0.04-0.07-0.17-0.19-0.17-0.3
		c0.01-0.25,0.16-0.45,0.44-0.39c0.08,0.02,0.17,0.22,0.17,0.34C461.94,276.54,461.85,276.72,461.5,276.69z"/>
	<path style="fill-rule:evenodd;clip-rule:evenodd;fill:#3C3B3D;" d="M514.05,271.48c-0.43,0.15-0.75,0.25-1.07,0.36
		c-0.02-0.08-0.06-0.23-0.04-0.24c0.27-0.13,0.55-0.26,0.83-0.36C513.81,271.23,513.89,271.35,514.05,271.48z"/>
	<path style="fill-rule:evenodd;clip-rule:evenodd;fill:#564129;" d="M463.56,280.72c0.19,0.58,0.31,0.87,0.38,1.17
		c0.03,0.12,0,0.42-0.12,0.31c-0.18-0.16-0.24-0.48-0.31-0.75C463.48,281.32,463.53,281.17,463.56,280.72z"/>
	<path style="fill-rule:evenodd;clip-rule:evenodd;fill:#A56830;" d="M495.42,264.5c0.15,0.23,0.3,0.46,0.45,0.7
		c-0.05,0.18-0.09,0.35-0.14,0.53c-0.1-0.09-0.28-0.18-0.29-0.28C495.4,265.14,495.42,264.82,495.42,264.5z"/>
	<path style="fill-rule:evenodd;clip-rule:evenodd;fill:#444145;" d="M505.37,294.77c0.03,0.25-0.04,0.41-0.23,0.37
		c-0.12-0.02-0.28-0.14-0.32-0.25c-0.05-0.14,0.01-0.34,0.22-0.31C505.17,294.6,505.29,294.72,505.37,294.77z"/>
	<path style="fill-rule:evenodd;clip-rule:evenodd;fill:#AB682F;" d="M494.22,262.3c-0.09,0.01-0.19,0.02-0.28,0.03
		c-0.25-0.2-0.25-0.47-0.21-0.75l-0.01,0.01C494.59,261.34,494.13,262.02,494.22,262.3z"/>
	<path style="fill-rule:evenodd;clip-rule:evenodd;fill:#868226;" d="M450.81,276.2c-0.1,0.01-0.19,0.03-0.29,0.04
		c-0.12-0.25-0.47-0.64,0-0.73C450.93,275.42,450.68,275.97,450.81,276.2z"/>
	<path style="fill-rule:evenodd;clip-rule:evenodd;fill:#4A6676;" d="M463.73,297.13c0.09,0.09,0.18,0.19,0.26,0.28
		c-0.26,0.17-0.59,0.42-0.78,0.04C463.12,297.25,463.48,297.13,463.73,297.13z"/>
	<path style="fill-rule:evenodd;clip-rule:evenodd;fill:#403F36;" d="M505.28,260.88c0-0.54-0.42-0.47-0.76-0.51
		c0.25-0.25,0.55-0.31,0.82-0.08C505.56,260.47,505.47,260.7,505.28,260.88z"/>
	<path style="fill-rule:evenodd;clip-rule:evenodd;fill:#B5652A;" d="M493.73,261.59c-0.26,0.03-0.17,0.62-0.59,0.38
		c-0.06-0.03-0.08-0.23-0.04-0.31c0.17-0.39,0.39-0.31,0.62-0.05L493.73,261.59z"/>
	<path style="fill-rule:evenodd;clip-rule:evenodd;fill:#A05A2B;" d="M450.1,275.54c-0.07,0.12-0.12,0.2-0.18,0.29
		c-0.09-0.09-0.19-0.18-0.26-0.29c-0.01-0.02,0.13-0.18,0.21-0.19C449.93,275.34,450.01,275.46,450.1,275.54z"/>
	<path style="fill-rule:evenodd;clip-rule:evenodd;fill:#72512E;" d="M491.82,270.24c-0.02,0.32-0.03,0.65-0.05,0.97
		c-0.29-0.38-0.2-0.81-0.17-1.24C491.67,270.06,491.74,270.15,491.82,270.24z"/>
	<path style="fill-rule:evenodd;clip-rule:evenodd;fill:#444C52;" d="M456.52,293.09c0.35-0.05,0.7-0.08,1,0.18
		C457.17,293.29,456.81,293.38,456.52,293.09z"/>
	<path style="fill-rule:evenodd;clip-rule:evenodd;fill:#189AC6;" d="M446.44,302.17c0.26-0.35,0.63-0.25,0.98-0.24
		C447.14,302.16,446.8,302.19,446.44,302.17z"/>
	<path style="fill-rule:evenodd;clip-rule:evenodd;fill:#CFC81B;" d="M509.83,269.01c-0.07,0.08-0.15,0.16-0.22,0.25
		c-0.02-0.22-0.05-0.44-0.07-0.66c0.08-0.09,0.15-0.17,0.23-0.26C509.78,268.56,509.8,268.78,509.83,269.01z"/>
	<path style="fill-rule:evenodd;clip-rule:evenodd;fill:#C5BF19;" d="M475.71,289.68c-0.32-0.29-0.24-0.66-0.19-1.02
		C475.73,288.97,475.76,289.32,475.71,289.68z"/>
	<path style="fill-rule:evenodd;clip-rule:evenodd;fill:#EC2C36;" d="M464.96,283.92c0.24,0.2,0.2,0.48,0.2,0.74
		C465.09,284.42,465.02,284.17,464.96,283.92z"/>
	<path style="fill-rule:evenodd;clip-rule:evenodd;fill:#C5BF19;" d="M475.26,290.16c0.27,0.21,0.25,0.5,0.18,0.79
		C475.23,290.72,475.22,290.44,475.26,290.16z"/>
	<path style="fill-rule:evenodd;clip-rule:evenodd;fill:#C5BF19;" d="M475.95,290.88c-0.27-0.21-0.25-0.5-0.19-0.79
		C475.82,290.35,475.88,290.62,475.95,290.88z"/>
	<path style="fill-rule:evenodd;clip-rule:evenodd;fill:#7C772B;" d="M521.05,271.2c-0.22-0.21-0.19-0.47-0.17-0.73
		C521.1,270.67,521.09,270.93,521.05,271.2z"/>
	<path style="fill-rule:evenodd;clip-rule:evenodd;fill:#EC2C36;" d="M465.43,285.84c0.25,0.19,0.21,0.47,0.21,0.73
		C465.57,286.33,465.5,286.08,465.43,285.84z"/>
	<path style="fill-rule:evenodd;clip-rule:evenodd;fill:#6F7072;" d="M506.9,281.73c0.09,0.01,0.18,0.02,0.26,0.02
		c0,0.32-0.29,0.35-0.48,0.47c0,0,0.01,0.01,0.01,0.01C506.76,282.06,506.83,281.9,506.9,281.73z"/>
	<path style="fill-rule:evenodd;clip-rule:evenodd;fill:#EC2C36;" d="M465.19,284.88c0.25,0.2,0.21,0.49,0.2,0.76
		C465.32,285.39,465.25,285.13,465.19,284.88z"/>
	<path style="fill-rule:evenodd;clip-rule:evenodd;fill:#91562A;" d="M486.3,266.64c0.24,0.21,0.23,0.48,0.19,0.76
		C486.28,267.18,486.26,266.92,486.3,266.64z"/>
	<path style="fill-rule:evenodd;clip-rule:evenodd;fill:#189AC6;" d="M445.72,302.4c0.18-0.28,0.45-0.27,0.72-0.24
		C446.25,302.37,446,302.44,445.72,302.4z"/>
	<path style="fill-rule:evenodd;clip-rule:evenodd;fill:#C5BF19;" d="M475.49,291.36c0.16,0,0.32,0,0.48,0.01
		c-0.1,0.08-0.21,0.16-0.31,0.24C475.6,291.52,475.55,291.44,475.49,291.36z"/>
	<path style="fill-rule:evenodd;clip-rule:evenodd;fill:#E6303A;" d="M503.56,271.95c-0.16,0.07-0.33,0.14-0.49,0.21
		C503.24,272.09,503.4,272.02,503.56,271.95z"/>
	<path style="fill-rule:evenodd;clip-rule:evenodd;fill:#C4BD20;" d="M451.76,282c0.06,0.18,0.12,0.36,0.17,0.54
		C451.87,282.36,451.81,282.18,451.76,282z"/>
	<path style="fill-rule:evenodd;clip-rule:evenodd;fill:#EC2D38;" d="M451.92,285.11c-0.06-0.17-0.13-0.34-0.19-0.51
		C451.79,284.77,451.86,284.94,451.92,285.11z"/>
	<path style="fill-rule:evenodd;clip-rule:evenodd;fill:#494836;" d="M450.03,272.88c0.17,0.02,0.33,0.03,0.5,0.05
		c-0.18,0.05-0.36,0.1-0.54,0.15C450,273.01,450.01,272.94,450.03,272.88z"/>
	<path style="fill-rule:evenodd;clip-rule:evenodd;fill:#393839;" d="M477.4,280.56c0.08-0.06,0.16-0.12,0.24-0.18
		C477.72,280.66,477.48,280.5,477.4,280.56L477.4,280.56z"/>
	<path style="fill-rule:evenodd;clip-rule:evenodd;fill:#EC2D38;" d="M446.95,283.68c0.07,0.17,0.13,0.35,0.2,0.52
		C447.08,284.03,447.02,283.86,446.95,283.68z"/>
	<path style="fill-rule:evenodd;clip-rule:evenodd;fill:#DF2E36;" d="M487.24,281.74c0.18-0.07,0.36-0.13,0.54-0.2
		C487.6,281.6,487.42,281.67,487.24,281.74z"/>
	<path style="fill-rule:evenodd;clip-rule:evenodd;fill:#DF2E36;" d="M486.76,279.88c-0.16,0.06-0.32,0.13-0.49,0.19
		C486.44,280.01,486.6,279.94,486.76,279.88z"/>
	<path style="fill-rule:evenodd;clip-rule:evenodd;fill:#3C3128;" d="M511.93,268.08c-0.15,0-0.3,0.01-0.45,0.01
		c0.17-0.08,0.33-0.15,0.5-0.23C511.97,267.93,511.96,268.01,511.93,268.08z"/>
	<path style="fill-rule:evenodd;clip-rule:evenodd;fill:#CAC41B;" d="M495.64,266.66c-0.17,0.07-0.35,0.13-0.53,0.2
		C495.29,266.79,495.46,266.72,495.64,266.66z"/>
	<path style="fill-rule:evenodd;clip-rule:evenodd;fill:#67686A;" d="M508.15,299.8c0.03,0.03,0.05,0.06,0.08,0.08
		c-0.06,0.03-0.12,0.06-0.18,0.07c-0.02,0-0.05-0.05-0.07-0.07C508.04,299.85,508.1,299.82,508.15,299.8z"/>
	<polygon style="fill-rule:evenodd;clip-rule:evenodd;fill:#77787B;" points="505.07,297.23 505.14,297.2 505.13,297.27 	"/>
	<path style="fill-rule:evenodd;clip-rule:evenodd;fill:#CAC41B;" d="M494.92,266.92c-0.12,0.05-0.23,0.11-0.35,0.16
		C494.69,267.03,494.8,266.97,494.92,266.92z"/>
	<path style="fill-rule:evenodd;clip-rule:evenodd;fill:#E64A65;" d="M484.59,280.63c-0.08,0.05-0.17,0.1-0.25,0.16
		C484.42,280.73,484.51,280.68,484.59,280.63z"/>
	<path style="fill-rule:evenodd;clip-rule:evenodd;fill:#E92A32;" d="M500.89,266.26c-0.09,0.04-0.18,0.08-0.26,0.12
		C500.72,266.34,500.81,266.3,500.89,266.26z"/>
	<path style="fill-rule:evenodd;clip-rule:evenodd;fill:#EB2A32;" d="M483.62,272.72c-0.09,0.05-0.19,0.09-0.28,0.14
		C483.44,272.82,483.53,272.77,483.62,272.72z"/>
	<path style="fill-rule:evenodd;clip-rule:evenodd;fill:#454346;" d="M515.57,299.77c0.08-0.08,0.17-0.16,0.26-0.24
		C515.74,299.61,515.65,299.69,515.57,299.77z"/>
	<path style="fill-rule:evenodd;clip-rule:evenodd;fill:#4F4D53;" d="M513.63,281.26c-0.08,0.08-0.17,0.16-0.26,0.24
		C513.46,281.42,513.55,281.34,513.63,281.26z"/>
	<path style="fill-rule:evenodd;clip-rule:evenodd;fill:#454346;" d="M515.32,299.99c0.08-0.08,0.17-0.15,0.25-0.23
		C515.49,299.84,515.4,299.92,515.32,299.99z"/>
	<path style="fill-rule:evenodd;clip-rule:evenodd;fill:#CAC41B;" d="M495.4,267.33c0.11-0.06,0.22-0.12,0.32-0.18
		C495.62,267.21,495.51,267.27,495.4,267.33z"/>
	<path style="fill-rule:evenodd;clip-rule:evenodd;fill:#AB682F;" d="M494.4,262.57c-0.06-0.09-0.13-0.18-0.19-0.27
		C494.28,262.39,494.34,262.48,494.4,262.57z"/>
	<path style="fill-rule:evenodd;clip-rule:evenodd;fill:#CAC41B;" d="M495.88,267.09c0.11-0.06,0.23-0.12,0.34-0.18
		C496.11,266.97,496,267.03,495.88,267.09z"/>
	<path style="fill-rule:evenodd;clip-rule:evenodd;fill:#E73B4C;" d="M498.46,274.22c-0.04,0.05-0.08,0.08-0.15,0.09
		C498.33,274.22,498.38,274.19,498.46,274.22z"/>
	<path style="fill-rule:evenodd;clip-rule:evenodd;fill:#39383C;" d="M478.12,299.04c0.01-0.15,0.01-0.29,0.02-0.44
		c1.29,0.07,2.39-0.5,3.5-1.06c0.11-0.06,0.39-0.05,0.41,0c0.14,0.34-0.15,0.54-0.38,0.63C480.54,298.68,479.4,299.14,478.12,299.04
		L478.12,299.04z"/>
	<path style="fill-rule:evenodd;clip-rule:evenodd;fill:#3B4953;" d="M474.49,298.52c0.37-0.3,0.8-0.21,1.22-0.16
		C475.34,298.68,474.91,298.53,474.49,298.52z"/>
	<path style="fill-rule:evenodd;clip-rule:evenodd;fill:#3B4953;" d="M473.52,298.77c0.09-0.05,0.19-0.1,0.28-0.15
		C473.71,298.67,473.62,298.72,473.52,298.77z"/>
	<path style="fill-rule:evenodd;clip-rule:evenodd;fill:#189AC6;" d="M446.69,301.46c-0.17,0.07-0.35,0.14-0.52,0.21
		C446.34,301.59,446.51,301.53,446.69,301.46z"/>
	<path style="fill-rule:evenodd;clip-rule:evenodd;fill:#189AC6;" d="M445.48,301.96c-0.16,0.07-0.32,0.13-0.48,0.2
		C445.16,302.09,445.32,302.02,445.48,301.96z"/>
	<path style="fill-rule:evenodd;clip-rule:evenodd;fill:#189AC6;" d="M445.97,301.74c-0.09,0.05-0.19,0.11-0.28,0.16
		C445.78,301.85,445.87,301.8,445.97,301.74z"/>
	<path style="fill-rule:evenodd;clip-rule:evenodd;fill:#C45D30;" d="M483.37,259.69c0.48-0.73,1.2-1.12,1.99-1.42
		c0.05,0,0.09,0,0.14-0.01c0.28,0.19,0.17,0.44,0.1,0.68c-0.03,0.15-0.05,0.3-0.08,0.45c-0.05,0.1-0.1,0.19-0.17,0.28
		c-0.1,0.21-0.19,0.43-0.31,0.63c-0.49,0.77-1.43,0.85-2.08,0.78C482.59,261.05,483.41,260.24,483.37,259.69z"/>
	<path style="fill-rule:evenodd;clip-rule:evenodd;fill:#4C493D;" d="M485.61,258.94c-0.03-0.23-0.07-0.46-0.1-0.68
		C485.89,258.43,485.84,258.67,485.61,258.94z"/>
	<path style="fill-rule:evenodd;clip-rule:evenodd;fill:#4C493D;" d="M485.36,259.67c0.06-0.09,0.11-0.19,0.17-0.28
		C485.47,259.48,485.42,259.58,485.36,259.67z"/>
	<path style="fill-rule:evenodd;clip-rule:evenodd;fill:#A6AA2A;" d="M458.93,270.48c-1.13,0.6-2.38,0.88-3.6,1.23
		c-0.1-0.03-0.2-0.06-0.31-0.09c0.11-0.11,0.21-0.22,0.32-0.33c1.04-0.34,2.08-0.68,3.12-1.01
		C458.62,270.35,458.77,270.42,458.93,270.48z"/>
	<path style="fill-rule:evenodd;clip-rule:evenodd;fill:#696771;" d="M513.37,298.3c-0.23-0.15-0.46-0.31-0.69-0.46
		c-0.27-0.3-0.28-0.6-0.02-0.92c0.17-0.09,0.35-0.28,0.51-0.26c1.38,0.22,2.38-0.36,3.2-1.4c0.13-0.16,0.41-0.2,0.62-0.3
		c0.14,0.02,0.23,0.11,0.24,0.25c0.59,0.97-0.28,1.48-0.69,2.13c-0.27-0.08-0.23-0.52-0.58-0.5c-0.17,0.26-0.06,0.56-0.14,0.83
		c-0.01,0.05-0.02,0.1-0.03,0.15c-0.47,0.43-0.94,0.25-1.4-0.02C513.88,297.61,513.7,298.12,513.37,298.3z"/>
	<path style="fill-rule:evenodd;clip-rule:evenodd;fill:#292628;" d="M513.37,298.3c0.03-0.41,0.1-0.85,0.53-0.99
		c0.37-0.13,0.4,0.27,0.5,0.52c-0.01,0.4-0.02,0.81-0.03,1.21c-0.15,0.22-0.31,0.5-0.62,0.37
		C513.26,299.19,513.46,298.68,513.37,298.3z"/>
	<path style="fill-rule:evenodd;clip-rule:evenodd;fill:#292627;" d="M515.77,296.4c1.03-0.31,0.6,0.57,0.77,0.95
		c-0.16,0.29-0.37,0.51-0.74,0.49l0,0C515.61,297.36,515.64,296.88,515.77,296.4z"/>
	<path style="fill-rule:evenodd;clip-rule:evenodd;fill:#292527;" d="M517.23,295.22c-0.08-0.08-0.16-0.17-0.24-0.25
		c0.04-0.49,0.07-0.99,0.75-0.49C517.72,294.82,517.74,295.2,517.23,295.22z"/>
	<path style="fill-rule:evenodd;clip-rule:evenodd;fill:#3C3A3B;" d="M518.92,287.76c-0.08,0.13-0.15,0.14-0.22,0
		C518.77,287.76,518.84,287.76,518.92,287.76z"/>
	<path style="fill-rule:evenodd;clip-rule:evenodd;fill:#5D5E4A;" d="M448.88,272.93c-0.08,0.04-0.17,0.07-0.25,0.11
		C448.71,273.01,448.79,272.97,448.88,272.93z"/>
	<path style="fill-rule:evenodd;clip-rule:evenodd;fill:#363436;" d="M518.43,289.69c-0.61-0.11-0.48-0.57-0.46-0.98
		c0.08-0.08,0.15-0.17,0.23-0.25c0.01-0.07,0.02-0.13,0.03-0.2c0.15,0.06,0.29,0.13,0.44,0.19c0.15-0.1,0.3-0.13,0.43,0.03
		c0,0.79,0,1.59,0,2.38c-0.05,0-0.11,0-0.16,0.01C518.79,290.47,519.23,289.82,518.43,289.69z"/>
	<path style="fill-rule:evenodd;clip-rule:evenodd;fill:#3C3A3B;" d="M518.93,290.88c0.05,0,0.11,0,0.16-0.01c0,0.13,0,0.26,0,0.39
		C519.04,291.13,518.99,291,518.93,290.88z"/>
	<path style="fill-rule:evenodd;clip-rule:evenodd;fill:#3C3A3B;" d="M519.09,288.49c-0.14-0.01-0.29-0.02-0.43-0.03
		C518.82,288.3,518.97,288.17,519.09,288.49z"/>
	<path style="fill-rule:evenodd;clip-rule:evenodd;fill:#EC2C36;" d="M468.71,281.04c1.94,0.02,3.41,1.63,3.41,3.73
		c0,1.75-1.49,3.47-3,3.47c-1.66,0-3.47-2.06-3.48-3.95C465.64,282.4,466.95,281.02,468.71,281.04z"/>
	<path style="fill-rule:evenodd;clip-rule:evenodd;fill:#ED303B;" d="M461.32,283.29c-0.01,1.82-1.12,3.06-2.69,3.01
		c-1.5-0.05-3.34-2.13-3.3-3.75c0.03-1.41,1.62-3,2.94-2.94C459.95,279.69,461.33,281.37,461.32,283.29z"/>
	<path style="fill-rule:evenodd;clip-rule:evenodd;fill:#211C1E;" d="M515.82,285.56c1.51,1.94,1.71,7.17,0.34,9.11
		c-1.35,1.91-3.51,1.78-4.85-0.31c-0.34-0.53-0.64-1.11-0.58-1.79c0.1-0.07,0.2-0.08,0.31-0.03c0.16,0.14,0.18,0.35,0.26,0.52
		c0.08,0.18,0.19,0.34,0.23,0.54c-0.01-0.21-0.16-0.36-0.21-0.55c-0.2-0.85-0.43-1.69-0.54-2.55c-0.06-0.42-0.24-0.99,0.5-1.08
		c0.26,0.25,0.28,0.61,0.41,0.92c0.26,0.75,0.34,1.54,0.59,2.29c0.22,0.69,0.49,1.39,1.28,1.58c0.86,0.21,0.93-0.7,1.38-1.08
		c0.47-0.36,0.9-0.73,0.76-1.42c0.07-1.04-0.18-2.1,0.18-3.11c0.14-0.18,0.3-0.23,0.48-0.03c0.17,0.19,0.16,0.44,0.16,0.67
		c0.01,0.47,0,0.95,0,1.42c0-0.55,0.05-1.1-0.01-1.64c-0.08-0.75-0.49-1.41-0.67-2.13C515.73,286.45,515.44,286.01,515.82,285.56z"
		/>
	<path style="fill-rule:evenodd;clip-rule:evenodd;fill:#161315;" d="M515.82,285.56c0.59,1.93,1.19,3.86,0.93,5.91
		c-0.04,0.31,0.22,0.85-0.27,0.86c-0.33,0.01-0.17-0.53-0.2-0.82c-0.1-1.01,0.21-2.05-0.19-3.04c-0.74-0.42-0.64-1.28-1-1.89
		c-0.05-0.1-0.09-0.2-0.14-0.3c-0.05-0.1-0.09-0.2-0.13-0.3c-0.18-0.95-1.2-0.87-1.72-1.4c0.02-0.24-0.1-0.23-0.28-0.16
		c-0.85,0.33-1.29,1.01-1.56,1.83c-0.59,1.82-0.54,3.66-0.24,5.51c0.04,0.27,0.17,0.54-0.03,0.8c-0.09,0-0.17,0-0.26,0
		c-0.65-2.42-0.86-4.86,0.17-7.22c0.46-1.05,1.3-1.95,2.55-1.84C514.62,283.61,515.5,284.33,515.82,285.56z"/>
	<path style="fill-rule:evenodd;clip-rule:evenodd;fill:#73717B;" d="M508.38,291.56c0.33-0.46-0.41-0.92,0-1.38
		c0.1-0.06,0.2-0.08,0.31-0.07c0.48,0.15,0.53-0.15,0.54-0.51c0.02-0.56-0.01-1.11,0.02-1.67c0.02-0.42-0.06-0.89,0.39-1.18
		c0.05,0.01,0.11,0.03,0.16,0.04c0.03,2.11-0.21,4.23,0.46,6.3c0.08,0.24,0.05,0.74,0,0.75c-0.37,0.07-0.58-0.26-0.72-0.51
		c-0.27-0.47-0.45-1-0.67-1.51C508.65,291.84,508.47,291.79,508.38,291.56z"/>
	<path style="fill-rule:evenodd;clip-rule:evenodd;fill:#73717B;" d="M508.62,286.05c-0.68-0.73,0.18-0.85,0.48-1.19
		c0.23-0.2,0.45-0.16,0.67,0.01c0.54-0.38,0.15-1.8,0.96-1.44c0.77,0.34-0.24,1.19-0.39,1.82c-0.13,0.53-0.35,1.04-0.53,1.56
		l-0.01-0.01C509.47,286.44,509.44,285.63,508.62,286.05z"/>
	<path style="fill-rule:evenodd;clip-rule:evenodd;fill:#242122;" d="M509.79,297.36c0.16-0.55,0.33-1.1,0.49-1.66
		c0.08-0.02,0.15-0.04,0.23-0.06c0.17-0.1,0.33-0.11,0.48,0.04c0,0.4,0,0.8,0.01,1.2C510.63,297.13,510.29,297.44,509.79,297.36z"/>
	<path style="fill-rule:evenodd;clip-rule:evenodd;fill:#272325;" d="M512.65,296.92c0.01,0.31,0.02,0.61,0.02,0.92
		c-0.33,0.13-0.31,0.88-0.85,0.57c-0.39-0.23-0.31-0.67-0.13-1.05C511.91,296.97,512.22,296.81,512.65,296.92z"/>
	<path style="fill-rule:evenodd;clip-rule:evenodd;fill:#252223;" d="M510.28,282.72c-0.03-0.43-0.36-1.07,0.35-1.13
		c0.76-0.06,0.58,0.66,0.61,1.14c-0.18,0.27-0.44,0.26-0.72,0.23C510.45,282.88,510.37,282.79,510.28,282.72L510.28,282.72z"/>
	<path style="fill-rule:evenodd;clip-rule:evenodd;fill:#242022;" d="M508.38,291.56c0.16,0.09,0.33,0.18,0.49,0.26
		c-0.02,0.23-0.03,0.47-0.05,0.7c-0.06,0.1-0.15,0.18-0.23,0.26c-0.07,0.01-0.15,0.02-0.22,0.04c-0.33-0.05-0.73-0.02-0.73-0.54
		C507.65,291.82,507.97,291.64,508.38,291.56z"/>
	<path style="fill-rule:evenodd;clip-rule:evenodd;fill:#242122;" d="M509.78,284.86c-0.22,0-0.45,0-0.67-0.01
		c-0.18-0.23-0.35-0.46-0.53-0.69c0.25-0.25,0.5-0.5,0.75-0.75C509.94,283.75,509.83,284.32,509.78,284.86z"/>
	<path style="fill-rule:evenodd;clip-rule:evenodd;fill:#4C4A50;" d="M511,295.69c-0.16-0.01-0.32-0.02-0.48-0.04
		C510.7,295.43,510.86,295.44,511,295.69z"/>
	<path style="fill-rule:evenodd;clip-rule:evenodd;fill:#4D4B51;" d="M508.59,292.79c0.08-0.09,0.15-0.17,0.23-0.26
		C508.75,292.62,508.67,292.71,508.59,292.79z"/>
	<path style="fill-rule:evenodd;clip-rule:evenodd;fill:#4E4B51;" d="M510.28,282.72c0.08,0.08,0.16,0.16,0.25,0.24
		C510.45,282.88,510.36,282.8,510.28,282.72z"/>
	<path style="fill-rule:evenodd;clip-rule:evenodd;fill:#3C3A3B;" d="M518.2,288.47c-0.08,0.08-0.15,0.17-0.23,0.25
		C518.04,288.63,518.12,288.55,518.2,288.47z"/>
	<path style="fill-rule:evenodd;clip-rule:evenodd;fill:#3D4044;" d="M522.25,275.5c0.03,0.26,0.07,0.53-0.17,0.73
		C522.04,275.96,522.04,275.71,522.25,275.5z"/>
	<path style="fill-rule:evenodd;clip-rule:evenodd;fill:#81592D;" d="M459.4,272.4c-0.04-0.41-0.09-0.83-0.13-1.24
		c0.07,0.01,0.18-0.01,0.2,0.02c0.27,0.48,0.32,0.96-0.04,1.43c-0.08-0.04-0.12-0.08-0.1-0.13
		C459.35,272.43,459.37,272.4,459.4,272.4z"/>
	<path style="fill-rule:evenodd;clip-rule:evenodd;fill:#252020;" d="M459.4,272.4c0.02,0.07,0.03,0.14,0.03,0.21
		c-0.05,0.04-0.15,0.11-0.15,0.1C459.15,272.54,459.28,272.47,459.4,272.4z"/>
	<path style="fill-rule:evenodd;clip-rule:evenodd;fill:#282426;" d="M508.58,290.14c-0.07,0-0.14,0.02-0.2,0.04
		c-0.33-0.09-0.66-0.18-0.99-0.26c0.11-0.69,0.56-0.97,1.22-0.99c0.18-0.05,0.29,0.06,0.38,0.2c0.06,0.15,0.08,0.31,0.07,0.47
		c-0.01,0.11-0.05,0.21-0.09,0.31c-0.06,0.09-0.14,0.16-0.23,0.22C508.69,290.13,508.64,290.14,508.58,290.14z"/>
	<path style="fill-rule:evenodd;clip-rule:evenodd;fill:#828089;" d="M508.81,289.86c0-0.07,0.02-0.13,0.05-0.18
		c0.12-0.16,0.12-0.31,0.01-0.47c-0.09-0.09-0.17-0.18-0.26-0.27c-0.36-0.46-0.85-0.92,0.01-1.37c-0.02-0.43,0.14-0.83,0.22-1.25
		c-0.07-0.09-0.15-0.17-0.22-0.26c0.2-0.34,0.47-0.78,0.87-0.61c0.59,0.26,0.2,0.89,0.3,1.35c-0.49,0.99-0.11,2.04-0.24,3.05
		c-0.04,0.3,0.16,0.74-0.19,0.87c-0.42,0.16-0.58-0.3-0.78-0.58l0,0.01C508.7,290.08,508.77,289.98,508.81,289.86z"/>
	<path style="fill-rule:evenodd;clip-rule:evenodd;fill:#262224;" d="M508.85,286.31c0.48,0.51,0.27,0.91-0.22,1.25
		c-0.62,0.02-0.92-0.45-0.87-0.9C507.84,286.04,508.46,286.39,508.85,286.31z"/>
	<path style="fill-rule:evenodd;clip-rule:evenodd;fill:#C4BD20;" d="M452.13,281.76c-0.05-0.09-0.1-0.18-0.15-0.27
		C452.02,281.58,452.08,281.67,452.13,281.76z"/>
	<path style="fill-rule:evenodd;clip-rule:evenodd;fill:#55535A;" d="M515.77,296.4c0.01,0.48,0.02,0.96,0.03,1.44
		C515.41,297.37,515.46,296.88,515.77,296.4z"/>
	<path style="fill-rule:evenodd;clip-rule:evenodd;fill:#EE3C4D;" d="M468.99,286.8c-1.17-0.05-2.16-1.12-2.14-2.31
		c0.02-1.37,0.81-2.28,1.97-2.25c1.18,0.03,2.14,1.16,2.1,2.47C470.88,286.04,470.13,286.85,468.99,286.8z"/>
	<path style="fill-rule:evenodd;clip-rule:evenodd;fill:#EE3C4E;" d="M460.36,283.45c-0.02,0.76-0.55,1.53-1.74,1.65
		c-1.07,0.11-2.17-1.09-2.09-2.3c0.07-1.1,0.58-1.92,1.79-1.99C459.37,280.76,460.35,281.89,460.36,283.45z"/>
	<path style="fill-rule:evenodd;clip-rule:evenodd;fill:#2C221F;" d="M513.16,284.64c1.03-0.07,1.8,0.21,1.93,1.39
		c0.76,1.95,0.86,4,0.95,6.06c0.1,0.74-0.44,0.96-0.95,1.2c-0.35-0.34-0.17-0.69-0.02-1.03c0.01-0.09,0.11-0.2-0.01-0.26
		c-0.13,0.77-0.64,1.01-1.28,1.05c-0.65,0.04-1.03-0.37-1.27-0.92c-0.54-1.26-0.5-2.57-0.22-3.87c0.12-0.57,0.53-0.97,1.07-1.21
		c0.25-0.11,0.58-0.18,0.51-0.55c-0.06-0.33-0.28-0.58-0.62-0.66c-0.37-0.1-0.6,0.13-0.77,0.42c-0.23,0.38-0.33,0.82-0.62,1.15
		c-0.15,0.16-0.31,0.24-0.5,0.03c-0.3-0.96,0.13-1.73,0.69-2.42C512.31,284.67,512.65,284.32,513.16,284.64z"/>
	<path style="fill-rule:evenodd;clip-rule:evenodd;fill:#E71E25;" d="M511.5,287.56c0.17-0.36,0.32-0.72,0.5-1.07
		c0.24-0.47,0.25-1.15,1.02-1.15c0.78,0,1.05,0.62,1.36,1.17c0.26,0.47,0.39,0.72-0.42,0.67c-0.86-0.05-1.32,0.63-1.48,1.45
		c-0.16,0.83-0.17,1.68,0.03,2.49c0.17,0.69,0.19,1.61,1.18,1.72c0.92,0.11,1.16-0.66,1.42-1.34c0.01-0.04,0.02-0.08,0.03-0.12
		c0.07,0.07,0.15,0.14,0.22,0.21c0.1,0.15,0.1,0.31,0,0.46c-0.09,0.4-0.17,0.81-0.26,1.21c-0.41,0.5-0.28,1.57-1.33,1.42
		c-0.97-0.15-1.52-0.8-1.73-1.75c-0.19-0.85-0.39-1.71-0.58-2.56c-0.05-0.83-0.46-1.64-0.21-2.5
		C511.29,287.75,511.38,287.64,511.5,287.56z"/>
	<path style="fill-rule:evenodd;clip-rule:evenodd;fill:#121113;" d="M511.5,287.56c0.01,0.07,0,0.13-0.03,0.2
		c-0.3,0.53,0.1,1.15-0.24,1.67c-0.33,1.6,0.2,3.06,0.8,4.5c0.09,0.21,0.44,0.44,0.1,0.68c-0.05,0.04-0.4-0.22-0.51-0.4
		c-0.3-0.5-0.65-1-0.62-1.63c-0.54-2.22-0.79-4.44,0.02-6.66c0.33-0.91,0.89-1.58,1.86-1.85c0.35-0.1,0.84-0.28,0.97,0.06
		c0.19,0.51-0.62,0.11-0.68,0.52C511.76,285.13,511.59,286.32,511.5,287.56z"/>
	<path style="fill-rule:evenodd;clip-rule:evenodd;fill:#895E30;" d="M516.04,292.08c-0.08-0.17-0.25-0.35-0.23-0.51
		c0.19-1.88-0.17-3.64-1.1-5.29c-0.08-0.15-0.26-0.36,0-0.49c0.07-0.04,0.25,0.14,0.38,0.23c0,0,0.04,0.04,0.04,0.04
		c0.04,0.1,0.1,0.18,0.19,0.24c0.26,0.72,0.51,1.44,0.77,2.16C516.08,289.67,516.06,290.88,516.04,292.08z"/>
	<path style="fill-rule:evenodd;clip-rule:evenodd;fill:#2C221F;" d="M511.22,289.43c0.1-0.55-0.19-1.17,0.24-1.67
		c-0.01,0.88-0.01,1.76-0.02,2.64C511.14,290.12,511.27,289.75,511.22,289.43z"/>
	<path style="fill-rule:evenodd;clip-rule:evenodd;fill:#2C221F;" d="M515.32,286.31c-0.06-0.08-0.13-0.16-0.19-0.24
		C515.2,286.15,515.26,286.23,515.32,286.31z"/>
	<path style="fill-rule:evenodd;clip-rule:evenodd;fill:#73717B;" d="M508.88,289.2c0.21,0.16,0.2,0.32-0.01,0.47
		C508.87,289.52,508.87,289.36,508.88,289.2z"/>
	<path style="fill-rule:evenodd;clip-rule:evenodd;fill:#73717B;" d="M508.81,289.86c-0.08,0.1-0.15,0.2-0.23,0.29
		C508.66,290.05,508.74,289.96,508.81,289.86z"/>
	<path style="fill-rule:evenodd;clip-rule:evenodd;fill:#EE4A66;" d="M467.8,284.58c-0.01-0.85,0.27-1.36,1.08-1.37
		c0.97-0.01,1.19,0.78,1.24,1.46c0.06,0.7-0.56,1.28-1.15,1.28C468.2,285.95,467.69,285.36,467.8,284.58z"/>
	<path style="fill-rule:evenodd;clip-rule:evenodd;fill:#EE4A64;" d="M459.65,283.06c-0.08,0.69-0.45,1.34-1.13,1.25
		c-0.69-0.09-1.27-0.68-1.26-1.49c0.01-0.71,0.45-1.28,1.15-1.22C459.16,281.66,459.72,282.15,459.65,283.06z"/>
	<path style="fill-rule:evenodd;clip-rule:evenodd;fill:#C9C419;" d="M514.14,288.95c0.01,0.21,0.02,0.43,0.02,0.64
		c0.06,0.45,0.2,0.91-0.07,1.35c-0.07,0-0.14-0.02-0.21-0.04c-0.18-0.12-0.09-0.36-0.21-0.51c-0.12-0.45-0.12-1-0.39-1.33
		c-0.31-0.38-0.34-0.64,0.03-0.84c0.5-0.27,0.22,0.5,0.57,0.5C513.97,288.8,514.12,288.8,514.14,288.95z"/>
	<path style="fill-rule:evenodd;clip-rule:evenodd;fill:#A9A426;" d="M514.1,290.94c0.02-0.45,0.05-0.9,0.07-1.35
		c0.15,0.39,0.29,0.78,0.45,1.17c0.15,0.36,0.12,0.89-0.15,0.93C513.9,291.79,514.28,291.18,514.1,290.94z"/>
	<path style="fill-rule:evenodd;clip-rule:evenodd;fill:#B2AD25;" d="M513.78,291.97c-0.07,0.05-0.19,0.15-0.19,0.15
		c-0.15-0.16-0.3-0.33-0.42-0.52c-0.01-0.02,0.13-0.21,0.18-0.21C513.67,291.42,513.62,291.74,513.78,291.97z"/>
	<path style="fill-rule:evenodd;clip-rule:evenodd;fill:#535351;" d="M514.14,288.95c-0.09-0.07-0.17-0.15-0.26-0.22
		c0.23-0.04,0.27-0.63,0.59-0.28C514.64,288.62,514.34,288.83,514.14,288.95z"/>
	<path style="fill-rule:evenodd;clip-rule:evenodd;fill:#A9A426;" d="M513.68,290.4c0.07,0.17,0.14,0.34,0.21,0.51
		C513.41,290.9,513.72,290.58,513.68,290.4z"/>
	<path style="fill-rule:evenodd;clip-rule:evenodd;fill:#211C1E;" d="M515.35,292.07c0-0.15,0-0.31,0-0.46
		C515.57,291.76,515.57,291.92,515.35,292.07z"/>
</g>
</svg>
