<?xml version="1.0" encoding="utf-8"?>
<!-- Generator: Adobe Illustrator 16.0.0, SVG Export Plug-In . SVG Version: 6.00 Build 0)  -->
<!DOCTYPE svg PUBLIC "-//W3C//DTD SVG 1.0//EN" "http://www.w3.org/TR/2001/REC-SVG-20010904/DTD/svg10.dtd" [
	<!ENTITY ns_flows "http://ns.adobe.com/Flows/1.0/">
	<!ENTITY ns_extend "http://ns.adobe.com/Extensibility/1.0/">
	<!ENTITY ns_ai "http://ns.adobe.com/AdobeIllustrator/10.0/">
	<!ENTITY ns_graphs "http://ns.adobe.com/Graphs/1.0/">
]>
<svg version="1.0" id="Layer_1" xmlns:x="&ns_extend;" xmlns:i="&ns_ai;" xmlns:graph="&ns_graphs;"
	 xmlns="http://www.w3.org/2000/svg" xmlns:xlink="http://www.w3.org/1999/xlink" xmlns:a="http://ns.adobe.com/AdobeSVGViewerExtensions/3.0/"
	 x="0px" y="0px" width="960px" height="560px" viewBox="0 0 960 560" style="enable-background:new 0 0 960 560;"
	 xml:space="preserve">
<g>
	<g>
		<path style="fill-rule:evenodd;clip-rule:evenodd;fill:#242020;" d="M475.3,281.44c0.05-0.05,0.07-0.12,0.08-0.19
			C475.35,281.32,475.33,281.38,475.3,281.44z"/>
		<path style="fill-rule:evenodd;clip-rule:evenodd;fill:#242020;" d="M503.23,282.14c-1.42-1.13-3.04-1.91-4.81-2.35
			c-1.24-0.31-2.91,0.39-3.1-1.97c-0.08-1.01-0.63-0.96,0.64-1.22c0.16-0.03,0.31-0.1,0.46-0.12c0.95-0.1,1.25-0.52,0.99-1.51
			c-0.59-2.27-1.95-3.74-4.23-4.26c-2.04-0.46-4.13-0.12-6.2-0.18c-1.11-0.03-1.73,0.64-1.19,1.94c0.56,1.35,1.46,2.37,2.63,3.18
			c0.54,0.37,1.13,0.67,1.7,1c-0.65,0.12-1.33,0.16-1.94,0.38c-1.41,0.51-2.34,0.73-1.65-1.38c0.27-0.81-0.06-2.13-1.22-1.78
			c-2.13,0.65-4.6,0.46-6.33,2.26c-0.08,0.09-0.26,0.09-0.39,0.13c0.02-0.1,0.02-0.22,0.06-0.31c0.7-1.72-0.97-4.2-3.04-4.15
			c-2.9,0.06-5.46,1.04-7.82,2.66c-0.26,0.18-0.51,0.43-0.63,0.71c-0.26,0.59-1.14,1.45,0.5,1.42c0.21,0,0.63,0.39,0.6,0.44
			c-0.13,0.31-0.47,0.13-0.72,0.14c-0.88,0.06-2.06-0.08-2.51,0.56c-1.27,1.81-2.74,0.83-4.19,0.64c-1.28-0.17-2.56-0.13-3.81,0.22
			c-0.82,0.23-1.56,0.6-2.15,1.24c-0.61,0.65-0.54,1.29,0.16,1.7c2.16,1.27,4.3,2.7,7.04,2.03c0.27-0.07,0.71-0.32,0.82-0.03
			c0.11,0.3-0.4,0.42-0.64,0.6c-0.7,0.53-1.44,1.01-2.13,1.56c-0.83,0.67-1.38,1.54-1.61,2.6c-0.37,1.7,0.17,2.34,1.89,2.23
			c1.76-0.11,3.31-0.86,4.83-1.68c0.32-0.18,0.58-0.51,1.07-0.27c2.18,1.05,4.4,0.96,6.61,0.07c0.17-0.07,0.42-0.11,0.56-0.04
			c3.04,1.69,6.26,0.13,9.4,0.42c1.61,0.15,3.25-0.41,4.72,0.75c0.28,0.22,0.77,0.23,1.16,0.25c2.98,0.1,5.66-0.86,8.17-2.36
			c0.9-0.54,0.98-1.29,0.4-2.14c0.09-0.17,0.22-0.07,0.33-0.04c1.26,0.54,2.55,0.95,3.93,0.96c1.07,0.01,2.25,0.12,2.75-1.14
			C504.84,283.98,504.22,282.93,503.23,282.14z M489.42,284.05c-0.16,0.04-0.31,0.06-0.47,0.11c-1.13,0.36-2.15,0.73-3.38-0.05
			c-1.08-0.68-2.45-0.99-3.77-0.27c-0.36,0.19-0.59-0.14-0.85-0.29c-1.86-1.1-3.86-1.23-5.91-0.76c-1.97,0.45-3.95,0.7-5.96,0.66
			c-0.56-0.01-0.51-0.46-0.52-0.75c-0.02-0.57,0.43-0.3,0.67-0.26c2.13,0.32,4.21,0.38,6.07-0.98c-0.09-1.56-0.75-2.72-2.26-3.3
			c-0.14-0.05-0.26-0.15-0.39-0.22c0.13-0.05,0.27-0.11,0.4-0.13c1.37-0.24,2.74-0.47,4.12-0.71c0.26-0.06,0.34,0.06,0.29,0.3
			c-0.97,1-1.74,2.11-1.92,3.55c2.43,1.07,4.86,1.1,7.3,0.02c0.17-0.07,0.45-0.4,0.54,0.01c0.66,2.93,3.04,2.69,5.2,2.87
			c0.2,0.02,0.4-0.01,0.6-0.02c0.25-0.06,0.5-0.12,0.75-0.18c0.1,0.08,0.2,0.17,0.3,0.25C489.98,284.06,489.72,284.13,489.42,284.05
			z M494.93,283.95c-1.08-0.3-2.18-0.4-3.3-0.32c-0.24,0.07-0.51,0.21-0.49-0.24c0.52-0.2,1.14-0.27,1.54-0.61
			c1.33-1.12,1.98-0.37,2.53,0.81c0.06,0.13,0.12,0.27,0.18,0.41C495.24,283.98,495.08,283.99,494.93,283.95z"/>
	</g>
	<path style="fill-rule:evenodd;clip-rule:evenodd;fill:#B3B5B7;" d="M497.31,285.52c-0.14-0.05-0.17-0.17-0.03-0.2
		c0.1-0.02,0.24,0.1,0.36,0.16C497.53,285.49,497.42,285.51,497.31,285.52z"/>
	<path style="fill-rule:evenodd;clip-rule:evenodd;fill:#FAD171;" d="M489.17,277.58c1.46-0.36,2.93-0.33,4.38,0.01
		c0.94,0.22,1.26,0.79,0.49,1.63c-1.86,2.01-6.69,3.17-9.28,2.28c-0.59-0.2-0.65-0.46-0.47-0.96c0.41-1.1,1.09-1.93,2.25-2.3
		c0.31,0.28,0.14,0.58,0.05,0.88c-0.09,0.31-0.14,0.62,0.03,0.92c0.37,0.69,1.37,0.88,2.47,0.46c1-0.38,1.51-1.1,1.38-1.83
		C490.33,277.93,489.52,278.03,489.17,277.58z"/>
	<path style="fill-rule:evenodd;clip-rule:evenodd;fill:#FDD274;" d="M493.55,274.77c-0.05-0.74-0.45-0.17-0.63-0.13
		c-2,0.47-3.65-0.05-5.1-1.53c-0.56-0.57-0.21-1.2-0.43-1.77c-0.1-0.26,0.28-0.29,0.41-0.23c1.5,0.67,3.01-0.16,4.51,0.03
		c0.19,0.02,0.37,0.12,0.55,0.19c-0.13,0.23-0.37,0.28-0.6,0.36c-0.52,0.17-0.99,0.43-0.93,1.07c0.05,0.52,0.49,0.7,0.92,0.8
		c0.6,0.15,1.1,0.01,1.45-0.54c0.24-0.37,0.16-0.87,0.54-1.18c1.42,0.67,2.22,1.79,2.42,3.35c0.01,0.08,0.01,0.22-0.01,0.22
		C495.57,275.42,494.44,275.67,493.55,274.77z"/>
	<path style="fill-rule:evenodd;clip-rule:evenodd;fill:#FBCE72;" d="M459.18,281.89c-1.17,0.07-2.28-0.07-3.33-0.66
		c-0.82-0.47-0.77-0.93-0.08-1.39c1.63-1.11,3.5-0.95,5.29-0.69c0.6,0.09,1.26,0.39,1.91,0.54c0.56,0.12,1.02,0.37,1.07,0.96
		c0.05,0.62,0.36,1.37-0.51,1.75C462.26,281,461.41,280.91,459.18,281.89z"/>
	<path style="fill-rule:evenodd;clip-rule:evenodd;fill:#FCD174;" d="M480.55,284.14c0.84,0.25,1.38,0.71,1.23,1.69
		c-0.11,0.76-0.22,1.5-1.19,1.63c-0.11,0.06-0.2,0.13-0.27,0.23h0c-0.5,0.06-0.62-0.24-0.61-0.66c0.04-0.17,0.2-0.45-0.13-0.44
		c-2.17,0.04-4.31-0.1-6.38-0.85c-0.17-0.06-0.26,0.13-0.34,0.28c-0.32,0.57-0.69,1.03-1.43,0.7c-0.84-1.3-0.62-2.28,0.95-2.68
		c1.63-0.42,3.27-0.98,5.01-0.87c0.19,0.01,0.38,0.11,0.57,0.16c-0.08,0.15-0.22,0.23-0.37,0.28c-0.52,0.17-1.02,0.39-0.87,1.06
		c0.15,0.66,0.64,0.96,1.31,1c0.73,0.04,1.33-0.17,1.78-0.76C480.04,284.63,480.21,284.3,480.55,284.14z"/>
	<path style="fill-rule:evenodd;clip-rule:evenodd;fill:#F1C768;" d="M465.46,280.47c-0.49-0.33-1.09-0.63-0.97-1.36
		c0.13-0.76,0.79-0.93,1.42-1.06c1.13-0.23,2.27-0.38,3.4,0c-0.09,0.15-0.23,0.2-0.37,0.28c-0.26,0.13-0.78-0.05-0.76,0.39
		c0.02,0.46,0.51,0.61,0.9,0.64c1.43,0.12,2.87,0.23,4.27-0.26c0.7,0.31,0.75,1.07,1.12,1.61c0.18,0.27,0,0.47-0.24,0.55
		c-0.5,0.17-0.99,0.51-1.55,0.12c-2.03-1.43-4.52-0.92-6.73-1.59c-0.25-0.08-0.22,0.24-0.19,0.43
		C465.76,280.43,465.7,280.55,465.46,280.47z"/>
	<path style="fill-rule:evenodd;clip-rule:evenodd;fill:#FCF173;" d="M489.17,277.58c0.73,0,1.48,0,1.66,0.94
		c0.18,0.94-0.24,1.6-1.07,2.04c-0.64,0.34-1.33,0.61-2.03,0.57c-1.41-0.08-1.78-1.05-1.2-2.88
		C487.35,277.79,488.23,277.57,489.17,277.58z"/>
	<path style="fill-rule:evenodd;clip-rule:evenodd;fill:#C99D4E;" d="M467.29,282.65c0.61,0.17,0.6,0.17,0.64,0.73
		c0.12,1.47-0.54,2.62-1.5,3.63c-1.91,2.02-4.21,3.04-7.04,2.64c0.77-1.52,2.11-2.14,3.7-2.38c0.21-0.09,0.42-0.17,0.63-0.26
		c1.64-0.41,2.15-1.94,3.04-3.08C467.11,283.57,467.18,283.1,467.29,282.65z"/>
	<path style="fill-rule:evenodd;clip-rule:evenodd;fill:#F5CE6E;" d="M500.7,284.34c-2.15,0.17-3.71-1.24-5.48-2.07
		c-0.52-0.25-0.39-0.96,0.18-1.39c1.2-0.91,2.43-0.81,3.7-0.2c-0.78,1.1-0.78,1.44-0.02,2.11c0.99,0.88,1.86,0.9,2.7,0.07
		c0.2-0.19,0.35-0.43,0.65-0.49c0.46,0.19,0.74,0.57,0.98,0.98C502.85,284.62,501.8,284.56,500.7,284.34z"/>
	<path style="fill-rule:evenodd;clip-rule:evenodd;fill:#F2C972;" d="M485.15,285.62c-0.62,0.41-0.62,1.05-0.33,1.56
		c0.42,0.74-0.04,0.8-0.52,0.9c-0.31,0.06-0.63,0.07-0.95,0.12c-0.59,0.08-1.33,0.36-1.71-0.07c-0.35-0.39,0.45-0.77,0.54-1.25
		c0.07-0.39,0.24-0.77,0.26-1.15c0.08-1.6,0.44-1.8,2.18-1.16C484.86,284.88,485.4,285.05,485.15,285.62z"/>
	<path style="fill-rule:evenodd;clip-rule:evenodd;fill:#FCD074;" d="M486.8,288.71c-0.17-0.17-0.33-0.35-0.49-0.52
		c-0.06-0.09-0.12-0.17-0.18-0.26c-0.91-1.18-0.7-1.96,0.77-2.42c1.08-0.34,2.12-0.83,3.27-0.92c0.03,0.79,0.02,1.57,0.24,2.34
		c-0.54-0.03-1.07-0.1-1.6-0.08c-0.34,0.01-1.05-0.15-0.55,0.64c0.08,0.06,0.17,0.12,0.26,0.17h0c-0.16,0.88-1.05,0.65-1.55,1.01
		C486.91,288.68,486.85,288.69,486.8,288.71z"/>
	<path style="fill-rule:evenodd;clip-rule:evenodd;fill:#FAEE72;" d="M490.4,286.93c-0.71-0.72-0.85-1.49-0.24-2.34
		c1.12-0.26,2.24-0.43,3.38-0.09c0.74,0.95,0.69,1.31-0.26,2.18C492.34,286.98,491.37,287.01,490.4,286.93z"/>
	<path style="fill-rule:evenodd;clip-rule:evenodd;fill:#FBED73;" d="M480.55,284.14c-0.64,1.69-1.77,2.38-3.21,1.8
		c-0.6-0.24-1.15-0.77-1.07-1.55c0.11-1.01,0.89-1.07,1.69-1.06C478.92,283.32,479.77,283.63,480.55,284.14z"/>
	<path style="fill-rule:evenodd;clip-rule:evenodd;fill:#FBF072;" d="M502.43,282.38c-1.05,1.87-2.97,1.94-4.12,0.09
		c-0.54-0.87-0.22-1.52,0.79-1.79c1.14,0.26,2.15,0.77,3.05,1.49C502.25,282.24,502.31,282.35,502.43,282.38L502.43,282.38z"/>
	<path style="fill-rule:evenodd;clip-rule:evenodd;fill:#C3974A;" d="M488.64,283.29c-0.22-0.03-0.34-0.03-0.46-0.05
		c-0.81-0.13-1.65-0.14-2.32-0.72c0.69-0.05,1.39-0.07,2.07-0.16c2.49-0.32,4.87-0.9,6.69-2.82c0.1-0.1,0.31-0.24,0.38-0.21
		c0.23,0.13,0.08,0.35,0.01,0.52c-0.36,0.89-1,1.58-1.81,2.01C491.75,282.63,490.17,283.05,488.64,283.29z"/>
	<path style="fill-rule:evenodd;clip-rule:evenodd;fill:#FBF071;" d="M473.34,279.09c-0.88,0.9-4.56,0.99-5.43,0.12
		c-0.25-0.25-0.55-0.56-0.41-0.92c0.14-0.36,0.56-0.18,0.85-0.21c0.31-0.03,0.63-0.03,0.95-0.04c1.21,0.16,2.42,0.38,3.57,0.8
		c0.09,0.06,0.18,0.11,0.27,0.16C473.24,279.01,473.3,279.03,473.34,279.09z"/>
	<path style="fill-rule:evenodd;clip-rule:evenodd;fill:#FCEE73;" d="M494.24,271.84c0.06,1.05-0.14,2.01-1.38,2.11
		c-0.81,0.07-1.84-0.05-1.94-1.12c-0.12-1.31,0.89-1.5,1.93-1.5c0.39,0.12,0.77,0.24,1.16,0.36
		C494.1,271.72,494.17,271.77,494.24,271.84L494.24,271.84z"/>
	<path style="fill-rule:evenodd;clip-rule:evenodd;fill:#C4994C;" d="M476.72,276.39c-1.89,0.56-3.78,1.06-5.76,0.48
		c-0.16-0.97,0.11-1.39,1.09-1.49c0.91-0.1,1.83-0.02,2.74-0.04c0.38,0.03,0.64-0.2,0.92-0.42c0.11-0.04,0.22-0.04,0.33-0.01
		C476.31,275.38,476.81,275.75,476.72,276.39z"/>
	<path style="fill-rule:evenodd;clip-rule:evenodd;fill:#CDA150;" d="M480.01,288.15c-1.57,1.22-3.25,0.7-4.89,0.26
		c-1.2-0.32-2.42-0.68-3.47-1.42c0.9-0.51,1.82-0.45,2.76-0.11c1.25,0.45,2.51,0.75,3.86,0.53
		C478.97,287.28,479.64,287.42,480.01,288.15z"/>
	<path style="fill-rule:evenodd;clip-rule:evenodd;fill:#FBEF72;" d="M478.65,277.18c0.84-0.88,1.83-1.51,3.03-1.78
		c0.92-0.17,1.17,0.36,1.2,1.13c-0.8,1.17-2.02,1.67-3.32,2.04C478.85,278.38,478.32,278.06,478.65,277.18z"/>
	<path style="fill-rule:evenodd;clip-rule:evenodd;fill:#F7CE74;" d="M468.07,285.98c0.32-1,0.52-2.1,1.99-1.93
		c0.39,0.04,0.62,0.09,0.4,0.53c-0.36,0.73-0.21,1.45,0.04,2.17c0.13,0.93-0.63,0.85-1.15,0.96c-0.52,0.1-1.03-0.04-1.45-0.4
		C467.6,286.82,467.98,286.42,468.07,285.98z"/>
	<path style="fill-rule:evenodd;clip-rule:evenodd;fill:#F8CD6F;" d="M463.27,287.47c-1.56,0.24-2.73,1.19-3.87,2.18
		c-0.6-1.53-0.15-2.54,1.72-3.89c0.62,0.27,0.94,1.19,1.84,0.88c0.17,0.06,0.25,0.2,0.3,0.35c0.03,0.1,0.04,0.21,0.03,0.32
		C463.28,287.36,463.28,287.42,463.27,287.47z"/>
	<path style="fill-rule:evenodd;clip-rule:evenodd;fill:#F0C469;" d="M480.01,288.15c-1.12-0.97-2.42-0.06-3.64-0.35
		c-1.55-0.36-3.03-1.2-4.71-0.82c-0.07-0.09-0.14-0.17-0.22-0.26c0.55-0.13,1.12-0.24,1.2-0.95c0.79-0.12,1.42,0.38,2.14,0.52
		c1.16,0.22,2.33,0.37,3.52,0.32c0.53-0.02,1.12-0.13,1.54,0.38c0.01,0.34,0.19,0.56,0.48,0.69
		C480.22,287.84,480.11,287.99,480.01,288.15z"/>
	<path style="fill-rule:evenodd;clip-rule:evenodd;fill:#F9CF73;" d="M476,274.96l-0.11-0.01l-0.11,0.01
		c-0.46,0.18-0.81,0.07-1.04-0.37c0.62-0.6,0.23-1.35,0.3-2.04c1.74-0.04,3.03,1,3.04,2.54c0,0.44,0.04,0.99-0.62,1.09
		C476.61,276.21,476.39,275.48,476,274.96z"/>
	<path style="fill-rule:evenodd;clip-rule:evenodd;fill:#F9ED71;" d="M475.04,272.55c0.35,0.71,1.22,1.5-0.27,1.95
		c-0.2,0.2-0.45,0.21-0.71,0.19c-0.8-0.21-1.62-0.09-2.43-0.08c-0.14-0.03-0.24-0.1-0.32-0.22c-0.21-0.41-0.15-0.79,0.12-1.15
		l-0.01,0.01c0.09-0.05,0.18-0.1,0.27-0.16C472.76,272.67,473.86,272.38,475.04,272.55z"/>
	<path style="fill-rule:evenodd;clip-rule:evenodd;fill:#CA9E4E;" d="M495.92,287.45c-2.25,1.32-4.64,2.1-7.28,1.95
		c-0.68-0.04-1.35-0.14-1.85-0.68c-0.03-0.04-0.03-0.08,0-0.13c1.13-0.42,2.28-0.6,3.49-0.55c1.55,0.06,3.06-0.25,4.54-0.71
		C495.23,287.21,495.59,287.11,495.92,287.45z"/>
	<path style="fill-rule:evenodd;clip-rule:evenodd;fill:#C3984B;" d="M500.7,284.34c1.06,0.1,1.9-0.41,2.71-0.99
		c0.93,1.53,0.56,2.29-1.16,2.44c-1.39,0.13-2.68-0.16-3.9-0.8c-0.04-0.21,0-0.35,0.26-0.23c0.63,0.08,1.26,0.21,1.89,0.24
		c0.41,0.02,1.08,0.32,1.17-0.18C501.77,284.24,500.95,284.68,500.7,284.34z"/>
	<path style="fill-rule:evenodd;clip-rule:evenodd;fill:#E8BB63;" d="M495.92,287.45c-2.68,0.71-5.42,1.04-8.19,1.08
		c-0.31,0-0.63,0.03-0.94,0.05c0.39-0.64,1.25-0.41,1.7-0.92c2.67,0.14,5.29-0.2,7.85-0.97c0.14-0.09,0.26-0.07,0.37,0.05
		C496.58,287.11,496.29,287.32,495.92,287.45z"/>
	<path style="fill-rule:evenodd;clip-rule:evenodd;fill:#CA9E4F;" d="M485.32,277.6c-1.57,2.23-3.46,3.83-6.44,3.34
		c-0.07-0.54,0.33-0.69,0.71-0.81c1.55-0.46,2.93-1.19,4.12-2.32C484.13,277.41,484.71,277.12,485.32,277.6z"/>
	<path style="fill-rule:evenodd;clip-rule:evenodd;fill:#FBD073;" d="M482.72,276.62c-0.12-0.6-0.31-1.13-1.04-1.21
		c0.86-0.49,1.82-0.43,2.77-0.48c1.41-0.08,1.79,0.49,1.22,1.75c-0.32,0.23-0.68,0.32-1.07,0.29c-0.12,0-0.25-0.01-0.36-0.03
		C483.75,276.68,483.16,276.99,482.72,276.62z"/>
	<path style="fill-rule:evenodd;clip-rule:evenodd;fill:#FAEC72;" d="M463,286.72c-1.3,0.99-1.4-0.36-1.88-0.96
		c0.8-0.74,1.65-1.41,2.6-1.94c0.64-0.06,0.73,0.37,0.76,0.85C464.23,285.52,463.63,286.13,463,286.72z"/>
	<path style="fill-rule:evenodd;clip-rule:evenodd;fill:#F7CE73;" d="M471.41,273.25c0.01,0.4,0.02,0.81,0.03,1.21
		c-0.12,0.49-0.6,0.56-0.94,0.79c-0.38,0.26-0.59,0.59-0.65,1.04c-0.03,0.04-0.06,0.09-0.1,0.13c-0.62-0.38-1.85-0.01-1.92-0.79
		c-0.06-0.79,1.04-1.17,1.74-1.58C470.15,273.71,470.8,273.51,471.41,273.25z"/>
	<path style="fill-rule:evenodd;clip-rule:evenodd;fill:#A87134;" d="M467.85,287.22c0.92,0.03,1.94,0.67,2.65-0.47
		c0.42,0.5,0.83,1.01,1.25,1.51c-0.65,0.08-1.32,0.13-1.96,0.25c-0.85,0.16-1.64-0.02-2.42-0.3c-0.11-0.12-0.18-0.25-0.16-0.42
		c0.02-0.1,0.06-0.2,0.12-0.29c0.03-0.04,0.07-0.08,0.1-0.12c0.08-0.07,0.17-0.13,0.26-0.17
		C467.74,287.22,467.79,287.22,467.85,287.22z"/>
	<path style="fill-rule:evenodd;clip-rule:evenodd;fill:#2A2625;" d="M463,286.72c0.1-0.84,0.8-1.28,1.26-1.88
		c0.59-1.05,1.52-1.64,2.64-1.96c0.13-0.08,0.26-0.15,0.39-0.23c0.29,0.61,0.41,1.16-0.45,1.39c-0.04,0.1-0.1,0.18-0.17,0.26
		c-0.11,0.11-0.24,0.22-0.38,0.3c-0.99,0.71-1.98,1.42-2.49,2.59c-0.09,0.26-0.32,0.25-0.53,0.28l-0.03-0.01
		c-0.05-0.09-0.12-0.18-0.2-0.24C463.03,287.05,463.01,286.88,463,286.72z"/>
	<path style="fill-rule:evenodd;clip-rule:evenodd;fill:#F9D073;" d="M478.65,277.18c0.13,0.56,0.3,1.09,1,1.16
		c-0.02,0.5-0.48,0.59-0.78,0.83c-0.36,0.29-0.63,0.62-0.6,1.11c-0.01,0.45-0.2,0.64-0.65,0.46c-1.16,0.01-1.36-0.46-0.76-1.42
		C477.37,278.54,477.87,277.75,478.65,277.18z"/>
	<path style="fill-rule:evenodd;clip-rule:evenodd;fill:#9A6731;" d="M465.46,280.47c0.1-0.08,0.2-0.17,0.29-0.26
		c0.96,0.9,2.22,0.39,3.31,0.71c0.77,0.23,1.66,0.06,2.26,0.77c-0.77,0.5-1.57,0.15-2.27-0.06c-1.12-0.33-2.11,0.06-3.16,0.23
		c-0.13-0.16-0.12-0.31,0.04-0.45C466.71,280.64,465.37,280.91,465.46,280.47z"/>
	<path style="fill-rule:evenodd;clip-rule:evenodd;fill:#CEA252;" d="M493.55,274.77c1.04,0.14,2.07,0.28,3.11,0.42
		c0.36,0.59-0.22,0.6-0.48,0.64c-1.12,0.17-2.23,0.51-3.38,0.31c-0.2-0.25-0.18-0.5-0.01-0.75
		C493.04,275.18,493.29,274.98,493.55,274.77z"/>
	<path style="fill-rule:evenodd;clip-rule:evenodd;fill:#DFB460;" d="M477.62,280.76c0.34-0.04,0.47-0.19,0.3-0.52
		c0.24-0.27,0.56-0.38,0.91-0.41c1.98-0.26,3.66-1.04,4.83-2.75c0.11-0.21,0.28-0.35,0.5-0.44c0.08,0,0.16,0,0.24,0
		c0.26,0.34,0.76,0.12,1.02,0.45c0.04,0.11,0.04,0.21-0.03,0.31c0,0.07-0.02,0.13-0.07,0.19c-0.27,0.03-0.64-0.05-0.8,0.1
		c-1.62,1.54-3.71,2.24-5.64,3.24C478.45,280.96,478.01,281.05,477.62,280.76z"/>
	<path style="fill-rule:evenodd;clip-rule:evenodd;fill:#AC7733;" d="M459.18,281.89c0.84-1.21,2.07-1.03,3.24-0.83
		c0.65,0.11,1.16,0.54,1.1,1.33c-0.17,0.27-0.45,0.25-0.72,0.27c-0.26-0.19-0.02-0.53-0.22-0.74
		C461.45,281.44,460.31,282.19,459.18,281.89z"/>
	<path style="fill-rule:evenodd;clip-rule:evenodd;fill:#F9D273;" d="M493.28,286.69c0.45-0.68,0.66-1.4,0.26-2.18
		c0.99,0.03,1.84,0.38,2.55,1.07C495.26,286.23,494.3,286.53,493.28,286.69z"/>
	<path style="fill-rule:evenodd;clip-rule:evenodd;fill:#D7AF58;" d="M475.37,275.65c-1.02,0.01-2.03,0.04-3.05,0.03
		c-0.83-0.01-1.37,0.27-1.37,1.19c-0.45-0.01-0.89-0.06-1.2-0.45l0-0.01c0.12-0.54,0.41-0.94,0.93-1.16c1.3-0.54,2.64-0.5,3.99-0.3
		C475.05,275,475.34,275.22,475.37,275.65z"/>
	<path style="fill-rule:evenodd;clip-rule:evenodd;fill:#F6CD72;" d="M466.9,282.88c-0.88,0.65-1.76,1.31-2.64,1.96
		c0-0.44-0.07-0.83-0.54-1.02C464.69,283.18,465.57,282.27,466.9,282.88z"/>
	<path style="fill-rule:evenodd;clip-rule:evenodd;fill:#A86F38;" d="M462.58,281.92c0.25,0.19,0.21,0.48,0.22,0.74
		c-1.01,0.39-2.04,0.54-3.11,0.27c-0.18-0.05-0.36-0.12-0.54-0.18c0.17-0.05,0.34-0.13,0.52-0.14c0.78-0.05,1.57-0.12,2.35-0.12
		C462.46,282.49,462.58,282.28,462.58,281.92z"/>
	<path style="fill-rule:evenodd;clip-rule:evenodd;fill:#E0B96B;" d="M492.79,275.38c0,0.25,0,0.5,0.01,0.75
		c-1,0.12-1.94-0.14-2.87-0.49c-0.1-0.11-0.1-0.21,0.02-0.3C490.89,275.36,491.84,275.37,492.79,275.38z"/>
	<path style="fill-rule:evenodd;clip-rule:evenodd;fill:#DBC69D;" d="M467.38,287.72c-0.01,0.16-0.01,0.33-0.02,0.49
		c-0.51-0.11-0.84-0.28-0.36-0.83c0.38-0.45,0.71-0.93,1.07-1.4c0.05,0.44-0.02,0.85-0.22,1.24l0.01-0.01
		c-0.1,0.06-0.17,0.15-0.25,0.24l0,0C467.51,287.52,467.43,287.61,467.38,287.72z"/>
	<path style="fill-rule:evenodd;clip-rule:evenodd;fill:#D2AC61;" d="M465.93,281.42c-0.01,0.15-0.02,0.3-0.04,0.45
		c-0.4,0.15-0.79,0.29-1.18,0.44c0.01-0.22,0.01-0.45,0.05-0.67c0.07-0.37,0.18-0.73,0.68-0.42c0.08,0.08,0.17,0.13,0.28,0.15
		C465.79,281.39,465.86,281.41,465.93,281.42z"/>
	<path style="fill-rule:evenodd;clip-rule:evenodd;fill:#E7BA62;" d="M476,274.96c0.48,0.4,0.97,0.81,1.45,1.21
		c-0.25,0.07-0.49,0.14-0.73,0.21C476.47,275.92,475.88,275.62,476,274.96z"/>
	<path style="fill-rule:evenodd;clip-rule:evenodd;fill:#C3A86D;" d="M489.94,275.35c0,0.1-0.01,0.2-0.02,0.3
		c-0.64-0.25-1.33-0.43-1.73-1.08C488.96,274.44,489.32,275.18,489.94,275.35z"/>
	<path style="fill-rule:evenodd;clip-rule:evenodd;fill:#E5CF9D;" d="M485.15,285.62c-0.18-0.35-0.35-0.71-0.53-1.06
		c0.45,0.04,0.91,0.21,1.1,0.59C485.83,285.34,485.41,285.53,485.15,285.62z"/>
	<path style="fill-rule:evenodd;clip-rule:evenodd;fill:#F3C76C;" d="M485.36,277.12c-0.38-0.05-0.88,0.15-0.97-0.48
		c0.42,0.01,0.85,0.02,1.27,0.03c-0.03,0.15-0.07,0.29-0.1,0.44C485.5,277.21,485.44,277.21,485.36,277.12z"/>
	<path style="fill-rule:evenodd;clip-rule:evenodd;fill:#ACADAF;" d="M491.14,283.39c0.16,0.08,0.33,0.16,0.49,0.24
		c-0.47,0.08-0.94,0.17-1.41,0.25c-0.26,0.11-0.33-0.01-0.3-0.25C490.33,283.55,490.74,283.47,491.14,283.39z"/>
	<path style="fill-rule:evenodd;clip-rule:evenodd;fill:#9A804B;" d="M498.6,284.77c-0.08,0.08-0.17,0.15-0.26,0.23
		c-0.33-0.15-0.65-0.29-0.98-0.44c-0.07-0.05-0.1-0.11-0.07-0.16c0.02-0.05,0.05-0.08,0.07-0.08
		C497.77,284.47,498.19,284.62,498.6,284.77z"/>
	<path style="fill-rule:evenodd;clip-rule:evenodd;fill:#4F4E4E;" d="M497.36,284.32c0,0.08,0,0.16,0,0.24
		c-0.27-0.18-0.84-0.21-0.73-0.57C496.69,283.78,497.14,284.11,497.36,284.32z"/>
	<path style="fill-rule:evenodd;clip-rule:evenodd;fill:#9D9EA1;" d="M477.46,277.38c-0.1-0.1-0.19-0.2-0.29-0.3
		c0.17-0.18,0.41-0.3,0.57-0.08C477.84,277.13,477.69,277.35,477.46,277.38z"/>
	<path style="fill-rule:evenodd;clip-rule:evenodd;fill:#AE996D;" d="M496.73,286.74c-0.13-0.02-0.25-0.03-0.37-0.05
		c0.12-0.06,0.24-0.12,0.36-0.18C496.72,286.58,496.72,286.66,496.73,286.74z"/>
	<path style="fill-rule:evenodd;clip-rule:evenodd;fill:#9A6731;" d="M465.72,281.38c-0.09-0.05-0.19-0.1-0.28-0.15
		C465.54,281.27,465.63,281.33,465.72,281.38z"/>
	<path style="fill-rule:evenodd;clip-rule:evenodd;fill:#F1C768;" d="M473.16,279.02c-0.09-0.05-0.18-0.11-0.27-0.16
		C472.98,278.91,473.07,278.96,473.16,279.02z"/>
	<path style="fill-rule:evenodd;clip-rule:evenodd;fill:#CA9E4F;" d="M485.36,277.12c0.07,0,0.13-0.01,0.2-0.01
		c-0.06,0.1-0.12,0.2-0.18,0.29C485.38,277.31,485.37,277.22,485.36,277.12z"/>
	<path style="fill-rule:evenodd;clip-rule:evenodd;fill:#F5CE6E;" d="M502.43,282.38c-0.09-0.07-0.18-0.14-0.27-0.21
		C502.25,282.24,502.34,282.31,502.43,282.38z"/>
	<path style="fill-rule:evenodd;clip-rule:evenodd;fill:#FDD274;" d="M494.23,271.84c-0.08-0.05-0.15-0.1-0.23-0.16
		C494.08,271.74,494.16,271.79,494.23,271.84z"/>
	<path style="fill-rule:evenodd;clip-rule:evenodd;fill:#F7CE73;" d="M471.68,273.1c-0.09,0.05-0.18,0.1-0.27,0.16
		C471.5,273.2,471.59,273.15,471.68,273.1z"/>
	<path style="fill-rule:evenodd;clip-rule:evenodd;fill:#F0C469;" d="M480.33,287.69c0.09-0.08,0.18-0.16,0.27-0.23
		C480.5,287.53,480.42,287.61,480.33,287.69z"/>
	<path style="fill-rule:evenodd;clip-rule:evenodd;fill:#E8BB63;" d="M488.5,287.66c-0.08-0.06-0.17-0.11-0.26-0.17
		C488.33,287.55,488.42,287.6,488.5,287.66z"/>
	<path style="fill-rule:evenodd;clip-rule:evenodd;fill:#E8BB63;" d="M486.13,287.92c0.06,0.09,0.12,0.17,0.18,0.26
		C486.25,288.1,486.19,288.01,486.13,287.92z"/>
	<path style="fill-rule:evenodd;clip-rule:evenodd;fill:#2C2726;" d="M479.84,287c-1.71-0.08-3.44,0.01-5.13-0.35
		c-0.75-0.16-1.43-0.47-2.08-0.88c-0.45-0.79-0.01-0.71,0.49-0.48c2.12,0.98,4.37,1,6.64,0.95c0.29-0.01,0.82-0.31,0.87,0.23
		C480.69,286.88,480.21,286.96,479.84,287z"/>
	<path style="fill-rule:evenodd;clip-rule:evenodd;fill:#EFC56A;" d="M463.8,287.19c0.06-1.66,1.48-2.13,2.54-2.92
		c0.13,0,0.21-0.09,0.3-0.16c0.06-0.04,0.13-0.07,0.2-0.07C466.48,285.57,465.15,286.96,463.8,287.19z"/>
	<path style="fill-rule:evenodd;clip-rule:evenodd;fill:#2C2826;" d="M475.37,275.65c-1.31-1.01-4.18-0.62-5.61,0.76
		c-0.6-1.65,1.02-1.38,1.68-1.94c0.08-0.01,0.16-0.01,0.24-0.02c0.79-0.13,1.59-0.11,2.38-0.01c0.23,0.03,0.46,0.05,0.69,0.08
		c0.34,0.15,0.68,0.3,1.01,0.46C475.75,275.26,475.89,275.64,475.37,275.65z"/>
	<path style="fill-rule:evenodd;clip-rule:evenodd;fill:#2C2826;" d="M478.86,279.97c-0.26,0.27-0.57,0.36-0.93,0.27
		c-0.03-1.18,1.08-1.32,1.73-1.89c1.02-0.58,2.04-1.16,3.07-1.73c0.48,0.03,0.97-0.46,1.44,0.03c-0.08,0.15-0.16,0.31-0.24,0.46
		c-1.13,1.06-2.67,1.41-3.92,2.26c-0.12,0.07-0.25,0.14-0.38,0.2c-0.07,0.04-0.16,0.08-0.23,0.11c-0.11,0.05-0.21,0.12-0.31,0.19
		C479.01,279.93,478.94,279.96,478.86,279.97z"/>
	<path style="fill-rule:evenodd;clip-rule:evenodd;fill:#C99D4E;" d="M463.04,287.21c0.07,0.08,0.13,0.16,0.2,0.24
		C463.18,287.37,463.11,287.29,463.04,287.21z"/>
	<path style="fill-rule:evenodd;clip-rule:evenodd;fill:#F7CE73;" d="M474.07,274.42c-0.79,0-1.59,0.01-2.38,0.01
		C472.48,274.11,473.27,274.12,474.07,274.42z"/>
	<path style="fill-rule:evenodd;clip-rule:evenodd;fill:#F7CE74;" d="M467.6,287.45c0.08-0.08,0.17-0.16,0.25-0.24
		C467.77,287.29,467.69,287.37,467.6,287.45z"/>
	<path style="fill-rule:evenodd;clip-rule:evenodd;fill:#F7CE74;" d="M467.38,287.72c0.08-0.09,0.15-0.18,0.23-0.28
		C467.53,287.54,467.46,287.63,467.38,287.72z"/>
	<path style="fill-rule:evenodd;clip-rule:evenodd;fill:#C99D4E;" d="M466.64,284.11c-0.1,0.05-0.2,0.11-0.3,0.16
		C466.44,284.22,466.54,284.16,466.64,284.11z"/>
	<path style="fill-rule:evenodd;clip-rule:evenodd;fill:#F3C76C;" d="M478.86,279.97c0-0.08,0.02-0.15,0.08-0.21
		c0.04-0.08,0.1-0.15,0.18-0.19c0.05-0.05,0.11-0.08,0.18-0.08c0.12-0.03,0.21-0.11,0.3-0.19c1.36-0.89,2.76-1.7,4.32-2.19
		C483.22,278.71,480.52,280.24,478.86,279.97z"/>
	<path style="fill-rule:evenodd;clip-rule:evenodd;fill:#DFB460;" d="M479.6,279.3c-0.1,0.06-0.2,0.13-0.3,0.19
		C479.4,279.43,479.5,279.36,479.6,279.3z"/>
	<path style="fill-rule:evenodd;clip-rule:evenodd;fill:#DFB460;" d="M479.12,279.57c-0.06,0.06-0.12,0.12-0.18,0.19
		C479,279.7,479.06,279.63,479.12,279.57z"/>
</g>
</svg>
