<?xml version="1.0" encoding="utf-8"?>
<!-- Generator: Adobe Illustrator 16.0.0, SVG Export Plug-In . SVG Version: 6.00 Build 0)  -->
<!DOCTYPE svg PUBLIC "-//W3C//DTD SVG 1.0//EN" "http://www.w3.org/TR/2001/REC-SVG-20010904/DTD/svg10.dtd" [
	<!ENTITY ns_flows "http://ns.adobe.com/Flows/1.0/">
	<!ENTITY ns_extend "http://ns.adobe.com/Extensibility/1.0/">
	<!ENTITY ns_ai "http://ns.adobe.com/AdobeIllustrator/10.0/">
	<!ENTITY ns_graphs "http://ns.adobe.com/Graphs/1.0/">
]>
<svg version="1.0" id="Layer_1" xmlns:x="&ns_extend;" xmlns:i="&ns_ai;" xmlns:graph="&ns_graphs;"
	 xmlns="http://www.w3.org/2000/svg" xmlns:xlink="http://www.w3.org/1999/xlink" xmlns:a="http://ns.adobe.com/AdobeSVGViewerExtensions/3.0/"
	 x="0px" y="0px" width="960px" height="560px" viewBox="0 0 960 560" style="enable-background:new 0 0 960 560;"
	 xml:space="preserve">
<g>
	<path style="fill-rule:evenodd;clip-rule:evenodd;fill:#F0F7FB;" d="M439.24,330.8c0-3.12,0-6.24,0-9.36
		c0.75-2.73,1.42-5.48,1.93-8.26c0.51-2.72,1.69-4.96,3.8-6.72c0.69-0.57,1.02-1.28,1.18-2.14c0.23-1.27,0.33-2.58,0.11-3.82
		c-1.16-6.49,0.8-12.41,3.19-18.25c1.4-3.44,2.81-6.88,4.41-10.23c1.68-3.51,3.78-6.75,6.24-9.76c0.35-0.43,0.69-0.9,1.33-0.93
		c0.59,0.15,0.63,0.65,0.72,1.12c0.27,1.37,0.34,2.77,0.59,4.15c0.16,0.88,0.46,1.66,1.16,2.3c0.54,0.49,0.68,1.25,0.93,1.92
		c0.25,0.68,0.47,1.37,0.98,1.9c0.24,0.25,0.51,0.66,0.89,0.4c0.85-0.57,1.25,0.04,1.67,0.56c1.49,1.83,2.9,3.72,4.63,5.33
		c0.59,0.55,1.16,1.1,1.85,1.51c0.85,0.51,1.53,1.15,1.76,2.16c0.16,0.69,0.86,0.92,1.25,1.41c0.06,0.11,0.07,0.22,0.04,0.34
		c-0.21,0.29-0.53,0.39-0.85,0.36c-2.64-0.21-4.86,2.83-5.23,5.25c-0.18,1.15-0.08,2.32-0.04,3.47c0.01,0.37,0.1,0.71,0.46,0.92
		c0.22,0.12,0.48,0.23,0.68,0.09c0.3-0.21-0.01-0.4-0.09-0.59c-0.47-1.04,0.08-2.73,1.06-3.23c0.53-0.27,0.82,0.01,1.08,0.42
		c0.33,1.07,1.19,1.97,1,3.19c-0.59,4.54,0.5,8.69,2.82,12.59c1.2,2.02,2.62,3.91,3.49,6.13c1.59,4.07,1.29,7.89-1.3,11.46
		c-0.49,0.68-0.62,1.37-0.31,2.13c0.22,0.55,0.64,0.88,1.22,1c0.34,0.16,0.72,0.15,1.07,0.27c0.2,0.09,0.35,0.23,0.44,0.43
		c0.18,0.89,0.45,1.79-0.34,2.55c-14.37,0.04-28.75,0.01-43.12,0.01C439.7,330.92,439.45,330.95,439.24,330.8z"/>
	<path style="fill-rule:evenodd;clip-rule:evenodd;fill:#C4E0ED;" d="M503.08,230.24c5.56,0,11.12,0.02,16.68-0.02
		c0.72,0,0.88,0.14,0.86,0.86c-0.06,2.44-0.02,4.88-0.02,7.32c-0.31,0.34-0.72,0.47-1.16,0.57c-3.89,0.9-7.3,2.74-10.28,5.38
		c-1.41,1.25-2.4,2.81-3.17,4.47c-1.26,2.72-2.14,5.51-2.22,8.61c-0.09,3.61,0.5,7.07,1.21,10.55c0.75,3.68,1.83,7.3,2.18,11.04
		c0.31,3.26,0.49,6.52,0.84,9.78c0.41,3.84,1.15,7.58,2.94,11.05c1.36,2.65,3.35,4.78,5.67,6.56c1.32,1.01,2.44,2.3,3.99,3.02
		c0,3.12,0,6.24,0,9.36c-0.51,0.58-1.23,0.72-1.91,0.94c-2.21,0.71-4.49,1.15-6.71,1.84c-1.68,0.53-3.32,1.13-4.88,1.99
		c-1.42,0.79-1.77,0.57-2.1-0.98c-0.48-2.24-0.42-4.53-0.71-6.79c-0.43-3.45-1-6.87-1.81-10.24c-1.1-4.58-1.34-9.25-1.73-13.91
		c-0.09-1.11-0.29-2.22-0.24-3.35c0.04-0.87,0.37-1.45,1.25-1.66c0.35-0.08,0.69-0.21,1-0.4c0.92-0.56,1.05-1.18,0.49-2.09
		c-0.56-0.9-1.33-1.59-2.18-2.2c-0.67-0.48-0.96-1.11-1.04-1.92c-0.19-1.91-0.32-3.83-0.23-5.75c0.1-2.21-0.31-4.38-0.26-6.59
		c0.17-6.95,0.32-13.9,0.54-20.85c0.16-4.91,0.38-9.82,0.68-14.72c0.09-1.5,0.29-1.72,1.75-1.76
		C502.71,230.36,502.91,230.38,503.08,230.24z"/>
	<path style="fill-rule:evenodd;clip-rule:evenodd;fill:#222221;" d="M503.08,230.24c-2.21,0.05-1.87,1.61-1.94,3.09
		c-0.33,6.52-0.61,13.04-0.76,19.57c-0.05,2.22-0.12,4.46-0.18,6.68c-0.08,2.99-0.23,5.98-0.18,8.97c0.06,3.98,0.28,7.95,0.41,11.93
		c0.01,0.47,0.23,0.68,0.58,0.93c0.85,0.59,1.7,1.2,2.31,2.05c1.33,1.84,0.95,3.03-1.28,3.5c-1.03,0.21-1.19,0.64-1.13,1.53
		c0.49,6.59,1.01,13.17,2.49,19.65c0.87,3.78,1.45,7.63,1.63,11.52c0.06,1.26,0.28,2.53,0.51,3.77c0.15,0.82,0.68,0.15,0.85,0.05
		c4.41-2.58,9.46-3.17,14.21-4.7c0,0.48,0,0.96,0,1.44c-0.31,0.61-0.92,0.73-1.48,0.92c-3.84,1.24-7.62,2.66-11.44,3.97
		c-1.23,0.42-2.05,0.98-1.87,2.44c0.07,0.61-0.19,1.17-0.55,1.67c-0.44,0.46-0.25,1.2-0.74,1.63c-0.41,0.1-0.83,0.03-1.25,0.05
		c-0.33-0.04-0.5-0.29-0.54-0.55c-0.2-1.36-1-2.36-1.94-3.29c-0.45-0.45-0.58-1.02-0.67-1.61c-0.02-0.11-0.04-0.22-0.06-0.33
		c-0.07-0.16-0.13-0.33-0.18-0.49c-0.07-0.19-0.14-0.38-0.19-0.57c-0.49-2.23-1.22-4.26-3-5.94c-1.74-1.64-2.11-4.08-2.6-6.33
		c-0.45-2.03-1.05-4-1.82-5.93c-0.45-1.86-0.95-3.71-1.1-5.62c-0.04-0.5-0.28-0.91-0.57-1.29c-0.97-1.27-1.74-2.67-2.43-4.11
		c-0.42-0.97-0.93-1.89-1.4-2.83c-0.16-0.36-0.34-0.72-0.55-1.07c-0.39-0.66-0.67-1.34-1.69-0.6c-0.73,0.53-1.57,0.17-2.06-0.61
		c-0.63-0.99-0.95-2.23-2.58-2.05c-1.81,0.19-3.34,0.75-4.34,2.36c-0.1,0.26-0.22,0.52-0.35,0.77c-0.12,0.2-0.24,0.39-0.48,0.47
		c-0.27-0.37-0.49-0.96-0.93-0.11c-0.25,0.49-0.69,0.9-0.85,1.41c-0.15,0.45-0.49,1.13,0.46,1.29c0.48,0.08,0.44,0.5,0.41,0.86
		c-0.04,0.45-0.41,0.27-0.65,0.29c-1.21,0.12-1.76-0.28-1.8-1.66c-0.08-2.94,0.22-5.61,2.6-7.77c1.19-1.08,2.58-0.95,3.9-1.32l0,0
		c-0.93-0.35-1.67-0.83-1.71-1.99c-0.01-0.42-0.31-0.74-0.73-1c-2.86-1.74-4.87-4.35-6.9-6.92c-0.29-0.37-0.65-0.69-0.93-1.08
		c-0.3-0.43-0.44-0.57-0.59,0.09c-0.14,0.62-0.47,0.68-0.88,0.17c-0.15-0.18-0.4-0.31-0.49-0.51c-1.36-2.94-3.68-5.49-3.63-9.03
		c0.01-0.85-0.31-1.7-0.48-2.55c-0.07-0.06-0.14-0.13-0.21-0.2c-0.1-0.11-0.17-0.24-0.24-0.37c-0.14-0.27-0.23-0.56-0.27-0.86
		c-0.02-0.15-0.02-0.3-0.01-0.46c0.01-0.15,0.04-0.3,0.08-0.45c0.04-0.14,0.09-0.28,0.13-0.43c0.04-0.14,0.09-0.28,0.13-0.43
		c0.04-0.15,0.08-0.29,0.11-0.45c0.02-0.16,0.05-0.32,0.09-0.47c0.3-1.2,0.59-2.4,0.9-3.6c0.04-0.15,0.1-0.3,0.15-0.45
		c0.05-0.14,0.1-0.28,0.16-0.42c0.05-0.13,0.1-0.26,0.15-0.39c0.04-0.13,0.08-0.25,0.13-0.38c0.04-0.12,0.09-0.24,0.13-0.36
		c0.03-0.12,0.08-0.24,0.12-0.36c0.05-0.12,0.1-0.23,0.15-0.34c0.03-0.08,0.07-0.15,0.11-0.22c0.05-0.11,0.11-0.22,0.17-0.33
		c0.02-0.04,0.04-0.07,0.05-0.11c0.02-0.04,0.04-0.07,0.05-0.11c0.03-0.08,0.07-0.15,0.11-0.23c0.03-0.08,0.08-0.15,0.12-0.23
		c0.06-0.11,0.12-0.22,0.19-0.33c0.06-0.11,0.13-0.21,0.2-0.32c0.06-0.1,0.11-0.21,0.14-0.32c0-0.08,0.01-0.15,0-0.23
		c-0.02-0.11-0.05-0.22-0.09-0.34c-0.06-0.1-0.11-0.17-0.18-0.24c-0.07-0.03-0.14-0.05-0.22-0.04c-0.08,0.02-0.16,0.03-0.24,0.05
		c-0.18,0.06-0.35,0.12-0.53,0.17c-0.1,0.03-0.2,0.05-0.3,0.06c-0.08,0.01-0.16,0.01-0.23,0.02c-0.55,0.08-1.38-0.22-1.57,0.39
		c-0.17,0.57,0.66,0.85,1.06,1.25c0.24,0.22,0.41,0.47,0.46,0.79c0.02,0.28-0.04,0.53-0.26,0.73c-0.43,0.28-0.91,0.26-1.39,0.23
		c-0.75,0.04-1.49-0.03-2.19-0.32c-2.86-1.22-3.56-3.76-3.92-6.48c-0.08-0.63-0.02-1.27-0.01-1.91c0.12-0.82,0.44-1.59,0.55-2.42
		c0.45-2.99,2.43-4.62,5.03-5.73c1.85-0.79,3.82-1.15,5.77-1.58c2.12-0.41,4.21-0.03,6.28,0.38c0.92,0.18,1.52,0.86,1.94,1.67
		c0.63,1.2,1.32,2.37,1.93,3.58c0.05,0.1,0.09,0.21,0.14,0.31c0.06,0.14,0.12,0.29,0.17,0.43c0.04,0.08,0.08,0.18,0.11,0.26
		c0.06,0.12,0.11,0.25,0.18,0.37c0.05,0.08,0.09,0.16,0.14,0.24c0.06,0.08,0.11,0.15,0.17,0.23c0.03,0.04,0.06,0.08,0.09,0.12
		c0.1,0.12,0.19,0.24,0.29,0.37c0.82,1.23,1.67,2.43,2.69,3.51c0.95,1.01,1,1.73,0.33,2.58c-0.17,0.03-0.34-0.01-0.4-0.17
		c-0.61-1.56-2.05-2.47-2.94-3.8c-1.04-1.51-1.89-3.13-2.62-4.8c-0.28-0.93-0.99-1.56-1.6-2.25c-0.16-0.2-0.34-0.39-0.57-0.52
		c-0.09-0.05-0.18-0.11-0.26-0.17c-0.09-0.05-0.18-0.11-0.27-0.17c-0.05-0.02-0.09-0.05-0.14-0.08c-1.11-0.68-2.25-0.95-3.48-0.34
		c-0.18,0.09-0.42,0.19-0.57,0.08c-1.32-0.99-2.55,0.06-3.82,0.17c-0.11,0.04-0.22,0.06-0.33,0.08c-0.16,0.03-0.33,0.05-0.49,0.1
		c-1.18,0.36-2.36,0.71-3.44,1.33c-0.88,0.5-1.66,1.11-2.16,2.01c-0.09,0.16-0.29,0.35-0.09,0.53c0.12,0.11,0.3,0.02,0.45-0.04
		c0.65-0.27,1.34-0.19,2.01-0.2c0.71-1.75,1.78-3.13,3.73-3.6c2.66-0.54,4.98,0.03,6.86,2.06c0.08,0.09,0.15,0.19,0.22,0.29
		c0.13,0.21,0.23,0.43,0.32,0.65c0.18,0.51,0.33,1.03,0.25,1.58c-0.48,1.37-1.19,2.63-1.92,3.88c-0.54,0.84-1.06,1.69-1.68,2.48
		c-0.1,0.14-0.2,0.27-0.3,0.41c-0.21,0.28-0.44,0.53-0.75,0.7c-0.38,0.17-0.68,0.39-0.7,0.87c-0.03,0.66-0.32,1.25-0.67,1.77
		c-1.91,2.91-2.25,6.26-2.68,9.56c-0.18,1.39,0.28,2.76,0.97,4.01c0.31,0.56,0.22,0.02,0.28-0.09c0.49-0.83,0.86-0.85,1.34-0.04
		c0.22,0.38,0.39,0.79,0.6,1.17c0.36,0.65,0.9,1.21,0.99,2c-0.11-0.61-0.25-1.21,0.01-1.82c0.03-0.07,0.06-0.15,0.1-0.22
		c0.16-0.27,0.38-0.47,0.71-0.51c0.18,0.02,0.34,0.11,0.48,0.22c0.7,0.82,1.02,1.87,1.55,2.79c0.15,0.27,0.29,0.76,0.58,0.68
		c1.26-0.37,1.67,0.56,2.23,1.31c0.13,0.18,0.23,0.54,0.48,0.42c0.2-0.09,0.02-0.43,0-0.65c-0.02-0.32-0.04-0.63,0.08-0.94
		c0.52-0.82,1.18-0.5,1.74-0.12c0.54,0.37,0.55,0.16,0.5-0.31c-0.08-0.94-0.35-1.87-0.28-2.83c0.09-0.26,0.27-0.38,0.54-0.38
		c0.18,0.02,0.34,0.1,0.48,0.21c0.72,0.68,1.46,1.35,2,2.19c0.08,0.12,0.15,0.36,0.32,0.28c0.12-0.05,0.07-0.29,0.08-0.44
		c0.06-0.57-0.2-1.32,0.41-1.64c0.65-0.34,1.16,0.32,1.7,0.6c0.28,0.14,0.52,0.61,0.76,0.48c0.26-0.14,0-0.58,0.01-0.89
		c0-0.28-0.06-0.55-0.06-0.83c0-0.12,0.02-0.23,0.06-0.34c0.08-0.16,0.21-0.28,0.37-0.35c0.8-0.22,1.38,0.33,2.03,0.6
		c0.09,0.04,0.17,0.1,0.25,0.16c0.09,0.03,0.18,0.19,0.27,0c-0.01-0.17-0.04-0.33-0.07-0.5c-0.04-0.15-0.08-0.29-0.11-0.44
		c-0.04-0.16-0.07-0.31-0.1-0.47c-0.07-0.39-0.18-0.77-0.23-1.16c-0.1-0.73,0.16-1.23,0.96-1.07c0.68,0.14,0.55-0.1,0.36-0.5
		c-0.22-0.46-0.45-0.94-0.49-1.46c-0.05-0.62,0.12-1.19,0.9-1.04c0.83,0.16,0.27-0.38,0.35-0.59c0.09-0.56,0.57-1.1,0.07-1.69
		c-1.31-1.9-2.81-3.66-4.08-5.58c-0.47-0.71-1.32-1.36-0.9-2.43c0.68-0.35,0.94,0.25,1.23,0.62c2.2,2.77,4.33,5.59,6.18,8.61
		c0.05,0.09,0.1,0.18,0.15,0.27c0.03,0.04,0.05,0.09,0.08,0.13c0.06,0.08,0.1,0.17,0.15,0.25c0.05,0.08,0.1,0.17,0.14,0.25
		c0.07,0.12,0.14,0.24,0.22,0.36c0.11,0.16,0.22,0.32,0.32,0.48c0.09,0.13,0.17,0.26,0.26,0.39c0.06,0.1,0.12,0.19,0.19,0.28
		c1.09,1.58,2.03,3.24,2.95,4.91c0.25,0.46,0.46,0.94,0.47,1.46c0.07,2.43,0.88,4.67,1.81,6.87c0.2,0.47,0.47,0.93,0.34,1.48
		c-0.96,0.44-1.03-0.5-1.44-0.92c-0.13-0.19-0.26-0.39-0.41-0.56c-0.17-0.2-0.32-0.63-0.56-0.5c-0.34,0.18-0.02,0.54,0.03,0.83
		c0.04,0.1,0.09,0.19,0.14,0.29c0.03,0.05,0.05,0.09,0.08,0.14c0.61,1.23,1.67,2.09,2.54,3.11c0.25,0.3,0.01-0.13,0.11-0.1
		c0.08-0.48,0.35-0.45,0.69-0.25c0.65,0.58,0.96,1.38,1.42,2.08c0.15,0.22,0.28,0.62,0.58,0.5c0.27-0.11,0.15-0.5,0.12-0.77
		c-0.1-0.91-0.21-1.83-0.19-2.75c0.16-7.23,0.26-14.47,0.53-21.69c0.25-6.79,0.48-13.58,0.43-20.38c-0.01-1.72-0.18-1.83-1.87-1.71
		c-4.47,0.32-8.95,0.31-13.4-0.28c-0.5-0.07-1.18,0.08-1.35-0.69C489.48,230.24,496.28,230.24,503.08,230.24z"/>
	<path style="fill-rule:evenodd;clip-rule:evenodd;fill:#C5E0ED;" d="M482.68,230.24c2.26,0.51,4.56,0.61,6.86,0.7
		c3.07,0.12,6.14,0.01,9.2-0.24c0.93-0.08,1.12,0.26,1.1,1.13c-0.15,6.62-0.14,13.25-0.39,19.86c-0.23,5.86-0.35,11.71-0.5,17.57
		c-0.08,3.23-0.15,6.44,0.04,9.66c0.02,0.27,0.03,0.72-0.09,0.77c-0.36,0.15-0.5-0.28-0.71-0.48c-1.02-0.96-1.26-2.46-2.3-3.41
		c-0.62-0.48-1.04-1.03-0.77-1.87c-1.18-2.79-2.26-5.59-2.52-8.68c-0.14-1.69-1.55-2.98-2.33-4.48c-0.31-0.59-0.68-1.15-1.03-1.73
		c-0.05-5.79-1.48-11.14-5.48-15.49c-2.01-2.19-4.47-3.86-7.59-4.15c-0.77-1.37-1.6-2.71-2.3-4.12c-0.42-0.85-1.09-1.34-1.91-1.39
		c-1.95-0.11-3.87-0.8-5.85-0.31c-0.4-1.08-0.91-2.14-0.72-3.34C471.16,230.24,476.92,230.24,482.68,230.24z"/>
	<path style="fill-rule:evenodd;clip-rule:evenodd;fill:#CAE3EF;" d="M455.04,242.96c0.05,2.59,0.22,5.16,2.25,7.12
		c0.41,0.4,0.93,0.69,1.4,1.03c0.11,1.04-0.54,1.82-0.98,2.64c-1.2,2.22-2.56,4.34-3.99,6.41c-2.01,2.91-3.31,6.2-4.95,9.3
		c-2.32,4.38-4.46,8.84-6.22,13.48c-0.93,2.46-1.82,4.95-2.33,7.55c-0.11,0.58-0.13,1.32-0.98,1.43c0-15.84,0-31.68,0-47.52
		c0.84-0.31,0.92,0.43,1.11,0.88c0.32,0.73,0.35,1.56,0.56,2.33c0.61,2.25,1.87,3.83,4.26,4.4c1.62,0.39,3.04-0.03,4.28-0.99
		c1.91-1.49,3.38-3.38,4.72-5.39c0.3-0.46,0.29-0.98,0.34-1.5C454.54,243.68,454.39,243.13,455.04,242.96z"/>
	<path style="fill-rule:evenodd;clip-rule:evenodd;fill:#D1E7F1;" d="M520.6,309.44c-0.54,0.04-1.03-0.08-1.47-0.41
		c-5.43-4.04-9.79-8.82-10.88-15.85c-0.49-3.21-0.94-6.43-1.1-9.68c-0.22-4.38-0.97-8.67-2-12.93c-0.91-3.78-1.75-7.59-1.83-11.51
		c-0.11-5.19,1.4-9.86,4.58-13.95c0.65-0.83,1.45-1.59,2.31-2.19c3.16-2.17,6.46-4.09,10.38-4.53c0,1.12,0,2.24,0,3.36
		c-1.42,0.83-3.05,1.14-4.54,1.82c-4.26,1.96-6.96,5.25-8.31,9.67c-1.47,4.83-0.78,9.65,0.31,14.43c0.75,3.27,1.49,6.54,1.99,9.85
		c0.33,2.15,0.49,4.35,0.61,6.55c0.22,4.16,0.7,8.28,2.21,12.2c1.34,3.47,3.53,6.24,6.78,8.13c0.35,0.2,0.68,0.42,0.96,0.71
		C520.6,306.56,520.6,308,520.6,309.44z"/>
	<path style="fill-rule:evenodd;clip-rule:evenodd;fill:#F0F7FB;" d="M520.6,249.44c0,15.28,0,30.56,0,45.84
		c-0.96,0.05-1.14-0.75-1.43-1.36c-1.19-2.58-1.58-5.35-1.82-8.14c-0.56-6.32-1.2-12.61-2.79-18.79c-0.68-2.65-1.17-5.38-1.08-8.17
		c0.09-2.82,0.98-5.35,2.73-7.52C517.29,249.96,518.74,249.14,520.6,249.44z"/>
	<path style="fill-rule:evenodd;clip-rule:evenodd;fill:#EDF5FA;" d="M439.24,238.88c0-2.68,0.02-5.36-0.02-8.04
		c-0.01-0.52,0.1-0.63,0.62-0.62c1.72,0.04,3.44,0.02,5.16,0.02c1.32,2.19,3.4,3.79,4.69,6.01c0.56,0.96,1.33,1.79,2.12,2.59
		c2,2.04,2.13,4.22,0.32,6.41c-0.87,1.05-1.66,2.14-2.5,3.21c-1.42,1.8-3.86,2.07-5.52,0.65c-1.11-0.95-1.42-2.21-1.2-3.58
		c0.31-2-0.33-3.66-1.51-5.24C440.82,239.53,439.96,239.35,439.24,238.88z"/>
	<path style="fill-rule:evenodd;clip-rule:evenodd;fill:#E8F3F9;" d="M520.6,249.44c-2.43,0.41-4.2,1.66-5.33,3.91
		c-1.33,2.63-1.65,5.39-1.28,8.24c0.59,4.57,1.96,9,2.69,13.54c0.55,3.44,0.71,6.94,1.05,10.41c0.28,2.85,0.64,5.69,1.83,8.34
		c0.24,0.54,0.45,1.12,1.05,1.4c0,1.44,0,2.88,0,4.32c-0.88,0.41-1.33-0.25-1.8-0.76c-1.68-1.85-2.63-4.08-3.33-6.43
		c-0.78-2.62-1.03-5.33-1.23-8.04c-0.37-5.19-0.97-10.33-2.23-15.38c-0.83-3.34-1.48-6.71-1.4-10.17c0.04-1.86,0.41-3.64,1.02-5.39
		c1.31-3.74,4.03-5.94,7.71-7.08c0.41-0.13,0.83-0.34,1.25-0.02C520.6,247.36,520.6,248.4,520.6,249.44z"/>
	<path style="fill-rule:evenodd;clip-rule:evenodd;fill:#E1EFF6;" d="M520.6,246.32c-2.6,0.89-5.21,1.75-6.93,4.14
		c-2.47,3.44-2.99,7.31-2.57,11.38c0.56,5.42,2.41,10.6,2.98,16.02c0.37,3.55,0.62,7.11,1.01,10.66c0.42,3.78,1.57,7.3,4.09,10.25
		c0.37,0.44,0.82,0.76,1.41,0.82c0,0.96,0,1.92,0,2.88c-0.93,0.41-1.51-0.25-2.09-0.75c-2.46-2.08-4-4.75-4.93-7.79
		c-0.95-3.12-1.31-6.33-1.53-9.56c-0.34-5.03-1.02-10.01-2.21-14.92c-0.73-3.04-1.41-6.1-1.54-9.21c-0.22-5.04,1.19-9.59,4.93-13.16
		c1.7-1.62,3.88-2.51,6.13-3.15c0.44-0.13,0.87-0.11,1.24,0.23C520.6,244.88,520.6,245.6,520.6,246.32z"/>
	<path style="fill-rule:evenodd;clip-rule:evenodd;fill:#E3F0F7;" d="M461.12,259.16c-0.03,0.12-0.05,0.24-0.08,0.37
		c-0.09,0.16-0.09,0.31,0,0.47c0.1,0.3,0.2,0.61,0.3,0.91c0.05,0.1,0.11,0.19,0.17,0.29c0.01,0.08,0.01,0.17,0.02,0.25
		c-1.49,0.96-2.33,2.5-3.31,3.87c-3.52,4.94-5.72,10.55-8.01,16.12c-1.49,3.62-2.81,7.28-3.62,11.11c-0.48,2.29-0.26,4.59-0.05,6.87
		c0.18,1.96,0.24,3.89-0.18,5.81c-0.07,0.34-0.2,0.78-0.45,0.94c-3.28,2.16-4.19,5.52-4.78,9.1c-0.28,1.72-0.78,3.41-1.19,5.11
		c-0.1,0.43-0.26,0.85-0.7,1.06c0-2.32,0-4.64,0-6.96c0.3-0.41,0.26-0.91,0.36-1.37c0.29-1.3,0.7-2.51,1.72-3.47
		c1.77-1.65,2.39-3.82,2.55-6.15c0.1-1.39,0.17-2.81-0.02-4.19c-0.64-4.77,0.29-9.31,1.92-13.74c1.81-4.95,3.91-9.79,6.17-14.55
		c2.19-4.61,5.14-8.73,8.23-12.76c0.31-0.41,0.65-0.98,1.36-0.63c-0.01,0.16-0.02,0.33-0.04,0.49c-0.05,0.09-0.1,0.18-0.17,0.26
		c-0.02,0.15-0.04,0.3-0.05,0.46C461.21,258.92,461.11,259.01,461.12,259.16z"/>
	<path style="fill-rule:evenodd;clip-rule:evenodd;fill:#D7EAF3;" d="M439.24,291.92c0.94-1.1,0.77-2.56,1.17-3.83
		c1.78-5.69,4.27-11.06,6.84-16.43c3.12-6.53,6.86-12.67,10.58-18.85c0.33-0.54,0.58-1.13,0.86-1.69c0.72,0.1,1.43,0.19,2.15,0.29
		c0.13,0.1,0.16,0.23,0.15,0.39c-0.03,0.15-0.08,0.28-0.14,0.42c-0.04,0.09-0.08,0.18-0.12,0.27c-0.06,0.14-0.13,0.28-0.19,0.41
		c-0.36,0.71-0.67,1.43-1.11,2.1c-0.08,0.13-0.17,0.26-0.25,0.39c-0.15,0.26-0.3,0.52-0.47,0.77c-0.08,0.12-0.16,0.23-0.25,0.35
		c-0.1,0.15-0.21,0.3-0.31,0.44c-0.07,0.11-0.15,0.22-0.22,0.33c-0.09,0.15-0.19,0.29-0.29,0.44c-0.07,0.11-0.15,0.23-0.22,0.34
		c-0.07,0.12-0.15,0.23-0.23,0.35c-0.08,0.12-0.15,0.23-0.23,0.35c-0.07,0.12-0.15,0.23-0.23,0.34c-0.07,0.11-0.15,0.22-0.23,0.33
		c-0.09,0.15-0.19,0.29-0.3,0.44c-0.07,0.11-0.14,0.22-0.22,0.33c-0.09,0.16-0.2,0.3-0.31,0.45c-0.05,0.08-0.11,0.15-0.17,0.22
		c-0.03,0.04-0.05,0.08-0.08,0.12c-0.05,0.08-0.1,0.17-0.15,0.25c-0.15,0.26-0.29,0.52-0.45,0.76c-0.08,0.13-0.16,0.26-0.23,0.38
		c-0.19,0.35-0.4,0.69-0.67,0.99c-0.09,0.11-0.18,0.22-0.27,0.34c-0.11,0.16-0.22,0.31-0.32,0.47c-0.07,0.13-0.15,0.26-0.21,0.39
		c-0.04,0.1-0.08,0.19-0.13,0.29c-0.07,0.16-0.14,0.32-0.21,0.47c-3.84,7.52-7.63,15.06-10.05,23.19c-0.65,2.2-0.99,4.44-0.97,6.74
		c0.03,2.24-0.04,4.48,0.02,6.72c0.07,2.54-0.65,4.9-1.51,7.23c-0.17,0.47-0.35,1.01-1.04,0.95
		C439.24,304.08,439.24,298,439.24,291.92z"/>
	<path style="fill-rule:evenodd;clip-rule:evenodd;fill:#DCECF4;" d="M439.24,238.88c1.81,0.01,3.98,2.62,4.1,4.79
		c0.06,1.11-0.28,2.18-0.05,3.31c0.5,2.48,3.53,3.75,5.34,1.95c1.61-1.6,3.17-3.37,4.14-5.49c0.68-1.5,0.26-2.93-0.89-4.03
		c-2.39-2.26-3.73-5.37-6.22-7.54c-0.39-0.34-0.44-1.08-0.65-1.64c1.2,0,2.4,0,3.6,0c1.95,2.61,4.12,5.05,6.09,7.64
		c0.6,0.79,1.16,1.62,0.89,2.71c0.15,0.86-0.36,1.58-0.53,2.37c-0.04,3.59-2.63,5.65-4.85,7.88c-3.39,3.4-8.91,1.38-9.77-3.65
		c-0.17-0.98,0.04-2.22-1.18-2.8C439.24,242.56,439.24,240.72,439.24,238.88z"/>
	<path style="fill-rule:evenodd;clip-rule:evenodd;fill:#D7E9F3;" d="M520.6,244.16c-3.34,0.5-6.12,1.93-8.34,4.57
		c-2.83,3.39-3.77,7.36-3.59,11.57c0.16,3.68,1.11,7.29,1.93,10.89c1.04,4.58,1.5,9.23,1.87,13.9c0.36,4.6,0.9,9.22,3.54,13.21
		c1.16,1.76,2.44,3.46,4.58,4.17c0,0.56,0,1.12,0,1.68c-0.86,0.41-1.45-0.2-2.04-0.62c-2.45-1.72-4.21-4-5.39-6.75
		c-1.37-3.2-2.03-6.56-2.25-10c-0.42-6.38-1.2-12.69-2.76-18.9c-1.03-4.08-1.6-8.26-0.86-12.46c1.13-6.39,4.86-10.63,11-12.71
		c0.72-0.24,1.54-0.56,2.3-0.01C520.6,243.2,520.6,243.68,520.6,244.16z"/>
	<path style="fill-rule:evenodd;clip-rule:evenodd;fill:#E1EFF6;" d="M461.53,257.6c-0.73,0.11-0.97,0.75-1.36,1.24
		c-5.2,6.41-8.84,13.69-11.86,21.32c-1.36,3.45-2.89,6.83-3.64,10.48c-0.57,2.78-0.8,5.55-0.45,8.41c0.3,2.53,0.16,5.1-0.5,7.59
		c-0.27,1.02-0.86,1.95-1.61,2.63c-1.29,1.17-1.93,2.59-2.27,4.23c-0.08,0.38-0.15,0.8-0.59,0.98c0-0.88,0-1.76,0-2.64
		c1.29-1.9,2.33-3.91,2.73-6.2c0.35-2.01,0.58-4,0.37-6.07c-0.5-4.73,0.19-9.34,1.83-13.8c2-5.45,4.29-10.77,6.82-15.99
		c1.75-3.61,3.88-7,6.28-10.2c1.64-2.19,2.98-4.54,4.35-6.89c0.34-0.58,0.66-1.2,1.24-1.59c0.12-0.05,0.25-0.06,0.38-0.03
		c0.11,0.11,0.12,0.22,0.02,0.34c-0.03,0.15-0.05,0.3-0.08,0.44c-0.05,0.09-0.1,0.17-0.17,0.25c-0.02,0.16-0.04,0.31-0.07,0.47
		c-0.05,0.09-0.1,0.17-0.17,0.25c-0.02,0.16-0.03,0.32-0.05,0.47c-0.05,0.1-0.14,0.18-0.17,0.29
		C462.3,254.94,462.05,256.3,461.53,257.6z"/>
	<path style="fill-rule:evenodd;clip-rule:evenodd;fill:#CAE3EF;" d="M455.58,240.6c-0.28-1.97-1.76-3.22-2.88-4.67
		c-1.18-1.53-2.46-2.98-3.69-4.47c-0.28-0.34-0.44-0.75-0.41-1.21c5.6,0,11.2,0,16.8,0c0.41,1.08,0.93,2.13,0.72,3.34
		c-1.67,0.46-3.38,0.84-5.02,1.4C458.36,235.93,456.21,237.54,455.58,240.6z"/>
	<path style="fill-rule:evenodd;clip-rule:evenodd;fill:#D8EAF3;" d="M463.24,251.12c-0.96,0.67-1.36,1.77-1.87,2.73
		c-2.49,4.7-6.11,8.65-8.63,13.34c-2.17,4.05-3.99,8.26-5.79,12.48c-1.65,3.89-3.24,7.81-3.99,12c-0.5,2.8-0.31,5.61-0.23,8.44
		c0.13,4.24-0.17,8.47-3.5,11.73c0-0.56,0-1.12,0-1.68c0.48-0.24,0.58-0.72,0.75-1.17c1.02-2.71,1.55-5.48,1.43-8.41
		c-0.21-5.15-0.06-10.26,1.86-15.17c2.25-5.75,4.57-11.45,7.53-16.88c0.67-1.22,1.25-2.48,1.88-3.73c0.09-0.07,0.15-0.17,0.24-0.24
		c0-0.08,0-0.16,0-0.24c0.09-0.07,0.15-0.17,0.24-0.24c0.08-0.16,0.16-0.32,0.24-0.48c0.09-0.07,0.15-0.17,0.24-0.24
		c0.24-0.4,0.48-0.8,0.72-1.2c0.09-0.07,0.15-0.17,0.24-0.24c0.16-0.32,0.32-0.64,0.48-0.96c0.09-0.07,0.16-0.16,0.24-0.24
		c0.08-0.08,0.16-0.17,0.24-0.24c0.08-0.16,0.16-0.32,0.24-0.48c0.09-0.07,0.15-0.17,0.24-0.24c0.08-0.16,0.16-0.32,0.24-0.48
		c0.09-0.07,0.15-0.17,0.24-0.24c0.08-0.16,0.16-0.32,0.24-0.48c0.09-0.07,0.15-0.17,0.24-0.24c0.08-0.16,0.16-0.32,0.24-0.48
		c0.09-0.07,0.15-0.17,0.24-0.24c0.08-0.16,0.16-0.32,0.24-0.48c0.09-0.07,0.15-0.17,0.24-0.24c0.08-0.16,0.16-0.32,0.24-0.48
		c0.09-0.07,0.15-0.17,0.24-0.24c0.16-0.32,0.32-0.64,0.48-0.96c0.09-0.07,0.15-0.17,0.24-0.24c0.4-0.8,0.8-1.6,1.2-2.4
		c0.09-0.07,0.15-0.17,0.24-0.24c0-0.08,0-0.16,0-0.24c0.09-0.07,0.15-0.17,0.24-0.24c0-0.15,0-0.29,0-0.44
		c0.46-0.02,0.91-0.04,1.37-0.06c0.31-0.18,0.2-0.44,0.12-0.69c-0.17-0.18-0.35-0.36-0.52-0.54c-0.1-0.98,0.65-1.47,1.19-2.08
		c0.06-0.05,0.13-0.07,0.21-0.04c0.15-0.12,0.36-0.08,0.51-0.2c0.07-0.04,0.14-0.05,0.21-0.04c0.15-0.11,0.3-0.13,0.44,0.01
		c0.03,0.15,0.06,0.3,0.08,0.45c0.12,0.15,0.08,0.35,0.19,0.5c-0.02,0.09-0.03,0.17-0.05,0.26c-0.02,0.09-0.07,0.16-0.15,0.21
		c-0.1,0.17-0.19,0.33-0.29,0.5c-0.06,0.09-0.12,0.18-0.18,0.26c-0.03,0.07-0.05,0.15-0.08,0.22c-0.04,0.09-0.1,0.17-0.17,0.24l0,0
		c-0.08,0.09-0.14,0.21-0.22,0.31C463.37,250.81,463.39,251.02,463.24,251.12z"/>
	<path style="fill-rule:evenodd;clip-rule:evenodd;fill:#D6E9F3;" d="M520.6,242.72c-4.81,0.57-8.36,3.06-10.87,7.12
		c-2.42,3.9-2.6,8.17-2.14,12.58c0.53,5.08,2.26,9.93,2.84,14.99c0.34,2.96,0.56,5.93,0.81,8.9c0.45,5.43,1.42,10.71,5.21,14.93
		c1.12,1.25,2.4,2.47,4.15,2.92c0,0.32,0,0.64,0,0.96c-2.03-0.58-3.58-1.89-4.91-3.42c-3.22-3.7-4.54-8.18-4.91-12.96
		c-0.63-8.14-1.89-16.16-3.67-24.12c-1.04-4.65-0.99-9.39,1.11-13.78c1.94-4.06,5.08-6.99,9.51-8.33c0.95-0.29,1.85-0.76,2.87-0.74
		C520.6,242.08,520.6,242.4,520.6,242.72z"/>
	<path style="fill-rule:evenodd;clip-rule:evenodd;fill:#7D593C;" d="M504.97,329.13c0.61-0.75,0.56-1.63,0.5-2.5
		c-0.05-0.73,0.17-1.13,0.93-1.39c4.74-1.63,9.47-3.33,14.2-5c0,0.48,0,0.96,0,1.44c-1.06,0.93-2.35,1.48-3.63,1.98
		c-2.89,1.13-5.76,2.28-8.42,3.89c-0.38,0.23-0.79,0.46-1.23,0.42c-0.92-0.09-1.36,0.42-1.66,1.16
		C505.43,329.28,505.19,329.65,504.97,329.13z"/>
	<path style="fill-rule:evenodd;clip-rule:evenodd;fill:#C3DFEF;" d="M520.6,326.72c0,1.36,0,2.72,0,4.08
		c-1.69,0.27-3.39,0.07-5.08,0.11c-1.7,0.04-3.4,0.01-5.1,0.01c-0.65-0.02-0.47-0.39-0.25-0.7c0.37-0.54,0.94-0.85,1.52-1.11
		c2.5-1.13,5.13-1.9,7.79-2.58C519.88,326.42,520.27,326.42,520.6,326.72z"/>
	<path style="fill-rule:evenodd;clip-rule:evenodd;fill:#432B1A;" d="M504.97,329.13c0.18,0.22,0.34,0.03,0.5-0.03
		c0.42-0.69,0.97-1.15,1.84-1.06c0.42,0.04,0.79-0.12,1.12-0.34c2.51-1.65,5.3-2.7,8.05-3.82c0.92-0.37,1.81-0.82,2.7-1.25
		c0.43-0.21,0.88-0.63,1.43-0.24c0,0.72,0,1.44,0,2.16c-0.28,0.57-0.84,0.69-1.38,0.83c-2.46,0.64-4.87,1.46-7.22,2.42
		c-1.58,0.65-3.22,1.21-4.12,2.85c-0.09,0.17-0.3,0.25-0.52,0.25c-0.95-0.09-1.92,0.19-2.85-0.16
		C504.59,330.2,504.28,329.53,504.97,329.13z"/>
	<path style="fill-rule:evenodd;clip-rule:evenodd;fill:#232322;" d="M507.64,330.75c0.42-1.99,2.2-2.38,3.69-3.05
		c2.98-1.35,6.16-2.17,9.27-3.14c0,0.72,0,1.44,0,2.16c-3.75,0.79-7.51,1.58-10.64,4.02C509.19,331.04,508.42,331.01,507.64,330.75z
		"/>
	<path style="fill-rule:evenodd;clip-rule:evenodd;fill:#FEFEFE;" d="M507.64,330.75c0.77,0,1.54-0.01,2.31-0.01
		c3.55,0.02,7.09,0.04,10.64,0.05c-0.02,0.53-0.42,0.22-0.6,0.22c-26.72,0.02-53.44,0.02-80.16,0c-0.18,0-0.58,0.31-0.6-0.22
		c14.64,0,29.28,0,43.92,0c0.32-0.3,0.7-0.37,1.12-0.36c0.39,0.04,0.78,0,1.16,0.02c0.19-0.02,0.38,0,0.57,0
		c0.25,0.01,0.5-0.03,0.75-0.01c0.25,0.02,0.5,0.02,0.76,0.01c0.26-0.03,0.52-0.01,0.78,0c0.27,0,0.54,0,0.81,0
		c1.49,0.03,2.98-0.1,4.46-0.01c0.28-0.01,0.56,0.01,0.85-0.02c0.5-0.08,0.99,0.08,1.49-0.01c0.29-0.04,0.58-0.01,0.88,0.02
		c1.69-0.13,3.39-0.06,5.08-0.05c0.44,0,0.87,0.07,1.21,0.38c0.48,0,0.96,0,1.44,0C505.56,330.76,506.6,330.76,507.64,330.75z"/>
	<path style="fill-rule:evenodd;clip-rule:evenodd;fill:#5D3E28;" d="M520.6,322.4c-3.9,1.97-8.19,3.11-11.86,5.54
		c-1.03,0.68-2.44,0.08-3.27,1.17c0.13-1.09,0.79-1.26,1.82-1.52c1.57-0.39,2.98-1.41,4.49-2.08c2.93-1.3,5.88-2.55,8.83-3.83
		C520.6,321.92,520.6,322.16,520.6,322.4z"/>
	<path style="fill-rule:evenodd;clip-rule:evenodd;fill:#E3F0F7;" d="M480.52,326.96c-0.72-0.78-0.67-1.65-0.07-2.39
		c3.56-4.36,2.89-9.56,0.22-13.91c-1.73-2.82-3.73-5.51-4.51-8.78c-0.53-2.22-1.04-4.48-0.69-6.81c0.04-0.28,0.01-0.56,0.27-0.75
		c0.4-0.12,0.62,0.16,0.87,0.38c0.32,0.37,0.51,0.82,0.74,1.25c0.08,0.14,0.15,0.27,0.24,0.41c0.12,0.18,0.23,0.36,0.34,0.55
		c0.09,0.15,0.15,0.31,0.21,0.48c0.04,0.12,0.06,0.24,0.07,0.36c0.33,3.56,1.4,6.85,3.32,9.88c0.85,1.34,1.54,2.8,2.15,4.28
		c1.72,4.11,1.93,8.23-0.3,12.24C482.72,325.33,481.99,326.55,480.52,326.96z"/>
	<path style="fill-rule:evenodd;clip-rule:evenodd;fill:#232322;" d="M477.91,297.37c0.02-0.07,0-0.13-0.06-0.18
		c-0.07-0.09-0.14-0.18-0.19-0.29c-0.1-0.14-0.19-0.29-0.29-0.43c-0.07-0.09-0.15-0.18-0.19-0.29c-0.25-0.46-0.5-0.92-0.76-1.38
		c0.13-0.15,0.3-0.2,0.49-0.2c0.48,0.08,0.74,0.44,1.01,0.79c2.06,2.76,4.53,5.16,6.76,7.77c0.41,0.48,1.3,0.95,0.3,1.73
		c-0.22,0.17,0,0.45,0.09,0.66c1.86,3.9,2.68,8.11,3.63,12.27c0.53,2.3,1.22,4.55,2,6.78c0.46,1.31,1.2,2.33,2.45,3.11
		c1.13,0.71,2.34,1.53,2.69,3.02c-0.47,0-0.94,0.01-1.41,0.01c-1.04-0.7-2.14-1.33-2.79-2.47c-0.09-0.13-0.21-0.24-0.32-0.35
		c-0.15-0.15-0.13-0.4-0.3-0.54c-0.11-0.11-0.22-0.22-0.36-0.31c-0.51-0.49-0.89-1.08-1.2-1.71c-0.17-0.35-0.32-0.74-0.83-0.65
		c-0.2,0.05-0.38,0.14-0.57,0.22c-0.09,0.05-0.19,0.08-0.29,0.12c-0.29,0.1-0.6,0.17-0.88,0.3c-0.53,0.7-0.78,1.64-1.76,1.93
		c-0.08,0.02-0.14,0.06-0.21,0.09c0.1-0.01,0.19-0.05,0.28-0.08c0.71-0.21,1.45-0.34,2.15-0.59c0.53-0.16,0.99-0.49,1.52-0.65
		c0.88-0.15,1.28,0.54,1.79,1.02c0.13,0.09,0.25,0.21,0.36,0.32c0.15,0.15,0.13,0.4,0.3,0.54c0.11,0.11,0.23,0.23,0.31,0.37
		c0.27,0.69,0.71,1.21,1.39,1.56c0.33,0.17,0.75,0.34,0.65,0.87c-1.6,0-3.19,0-4.79,0c-0.58-0.5-0.11-0.59,0.28-0.69
		c0.15-0.04,0.31,0,0.46,0.02c-0.12-0.1-0.29-0.12-0.41-0.24c-0.25-0.23-0.34-0.51-0.26-0.83c0.07-0.23,0.33-0.33,0.4-0.56
		c-0.39-0.48-0.88-0.21-1.33-0.21c-0.47-0.02-0.89,0.21-1.36,0.24c-0.6,0.07-1.21-0.08-1.8,0.15c-0.25,0.06-0.49,0.07-0.74,0.04
		c-0.39-0.05-0.71-0.22-1-0.48c-0.14-0.02-0.28-0.05-0.41-0.07c-0.37-0.12-0.8-0.15-0.94-0.62c-0.01-0.1,0-0.2,0.02-0.29
		c0.04-0.09,0.08-0.18,0.14-0.25c0.03-0.04,0.06-0.08,0.09-0.11c0.06-0.07,0.13-0.14,0.2-0.21c0.03-0.04,0.07-0.07,0.1-0.11
		c0.07-0.08,0.14-0.15,0.21-0.22c0.04-0.04,0.08-0.07,0.11-0.11c0.08-0.08,0.16-0.14,0.25-0.21c0.09-0.06,0.19-0.12,0.28-0.18
		c1.35-0.87,2.76-1.6,4.26-2.17c0.7-0.26,1.04-0.68,0.73-1.47c-0.91-2.29-1.11-4.73-1.49-7.12c-0.22-1.35-0.54-2.65-1.05-3.91
		c-0.88-2.18-1.77-4.36-2.31-6.66c-0.13-0.58-0.49-0.98-0.9-1.38c-1.06-1.03-2.12-2.05-3-3.25
		C478.88,299.07,478.21,298.34,477.91,297.37z"/>
	<path style="fill-rule:evenodd;clip-rule:evenodd;fill:#E0EEF6;" d="M477.91,297.37c0.56,0.74,1.13,1.47,1.69,2.21
		c0.4,2.38,1.2,4.6,2.35,6.73c1.66,3.08,3.42,6.14,3.85,9.72c0.46,3.81-0.19,7.3-2.86,10.23l0.01-0.01
		c-0.11,0.06-0.19,0.14-0.26,0.24l0.01-0.01c-0.1,0.07-0.18,0.15-0.25,0.24l0,0c-0.09,0.07-0.17,0.15-0.25,0.25l0.01,0
		c-0.09,0.07-0.17,0.15-0.25,0.25l0.01-0.01c-0.26,0.18,0.01,0.54-0.25,0.71c-0.56-0.12-1.12-0.24-1.2-0.96
		c5.01-4.09,4.95-10.85,2.49-15.65c-1.04-2.02-2.23-3.96-3.2-6.01C478.62,302.81,477.93,300.16,477.91,297.37z"/>
	<path style="fill-rule:evenodd;clip-rule:evenodd;fill:#010100;" d="M476.91,294.79c-0.16,0-0.33,0.01-0.49,0.01
		c-0.23-0.17-0.45-0.33-0.68-0.5c0.11-1.17-0.95-1.94-1.03-3.04c0.11-0.2,0.22-0.4,0.34-0.6c0.11-0.04,0.23-0.1,0.34-0.04
		C476.22,291.12,477.19,293.78,476.91,294.79z"/>
	<path style="fill-rule:evenodd;clip-rule:evenodd;fill:#DFE5EA;" d="M483.16,328.2c0.32,0.07,0.64,0.14,0.96,0.21
		c0.89,1.01,0.95,1.54,0.28,2.36c-0.41,0.01-0.82,0.01-1.23,0.02C483.16,329.93,483.16,329.06,483.16,328.2z"/>
	<path style="fill-rule:evenodd;clip-rule:evenodd;fill:#D8EAF3;" d="M481.72,327.92c0-0.27-0.03-0.55,0.25-0.71
		c-0.17,0.67,0.46,0.67,0.77,0.93C482.37,328.22,482.04,328.08,481.72,327.92z"/>
	<path style="fill-rule:evenodd;clip-rule:evenodd;fill:#402919;" d="M503.08,330.76c-2.16,0-4.31,0-6.47,0
		c0.25-1.76-1.12-2.37-2.27-3.07c-0.91-0.55-1.56-1.26-1.84-2.26c-0.85-3.05-2.61-5.75-3.32-8.85c-0.48-2.08-1.46-4.07-0.73-6.31
		c0.22-0.69-0.14-1.42-0.41-2.09c-0.26-0.63-0.53-1.26-0.64-1.93c-0.55-3.41-2.69-5.64-5.33-7.63c-1.69-1.28-2.93-3.1-3.87-4.97
		c-0.75-1.48-1.56-2.75-2.96-3.63c0.76-2.08,3.97-3.07,6-2.57c0.82,0.2,0.92,1.15,1.28,1.79c0.71,1.28,1.52,1.41,2.41,0.27
		c0.43-0.55,0.61-0.14,0.79,0.1c0.54,0.69,1.06,1.4,1.27,2.28c-0.3,0.29-0.55,0.6-0.13,0.99c0.55,0.51,0.87,1.24,1.52,1.66
		c0.82,1.64,1.69,3.24,2.85,4.68c0.65,0.8,0.22,1.85,0.5,2.77c0.38,1.24,0.52,2.56,0.77,3.84c-1.31,1.79-0.67,3.58-0.08,5.42
		c1.06,3.31,2.91,6.17,4.88,8.97c0.55,0.79,1.06,1.58,1.44,2.46c0.41,0.95,0.89,1.87,1.66,2.59c0.22,1.12,0.77,1.91,1.75,2.64
		C502.9,328.45,502.93,329.74,503.08,330.76z"/>
	<path style="fill-rule:evenodd;clip-rule:evenodd;fill:#BC121B;" d="M484.08,263.12c0.01,0.15,0.03,0.31,0.04,0.46
		c0.06,0.07,0.11,0.15,0.15,0.24c0.02,0.25,0.04,0.5,0.06,0.74c-0.23,0.21-0.47,0.16-0.72,0.02l0.01,0.01
		c-2.29-2-4.76-1.17-7.21-0.43c-0.34,0.1-0.63,0.34-0.96,0.47c-0.15,0.06-0.31,0.11-0.46,0.17c-0.37,0.54-0.51,1.15-0.64,1.78
		c-0.19,0.98-0.59,1.14-1.4,0.56c-0.43-0.3-0.84-0.61-1.35-0.74c-0.83-0.22-1.1-0.75-0.84-1.54c0.29-0.89,0.28-1.81,0.26-2.73
		c-0.04-1.79,0.28-3.53,1.21-5.06c0.87-1.43,0.84-3.05,1.27-4.56c-0.1-0.49-0.44-0.11-0.67-0.17c-0.97-0.02-1.28-0.52-1.05-1.41
		c0.17-0.69,0.34-1.39,0.77-1.98c0.13-0.18,0.17-0.37,0.03-0.57c-0.96-0.49-1.63-1.26-2.1-2.22c-0.25-0.51-0.57-0.95-1.01-1.32
		c-0.3-0.25-0.65-0.5-0.5-0.98c0.65-1.27,1.3-2.53,1.95-3.79c0.2-0.21,0.45-0.32,0.74-0.34c0.81-0.06,1.39-0.46,1.84-1.13
		c0.32-0.48,0.72-0.95,1.28-0.21c0.88,1.59,1.76,3.18,2.64,4.77c0.29,0.47,0.26,0.98,0.19,1.5c-0.29,2.03,0.21,3.88,1.42,5.52
		c1.27,1.72,2.76,3.18,4.74,4.09c0.76,0.35,1.52,0.69,2.21,1.17c0.74,0.64,0.4,1.17-0.18,1.67c-0.55,0.39-1.08,0.09-1.59-0.08
		c-1.92-0.66-3.55-1.8-5.08-3.11c-0.94-0.81-1.89-1.6-2.85-2.38c-0.64-0.52-0.9-0.32-0.91,0.44c-0.01,0.8,0.04,1.6-0.05,2.39
		c-0.11,1.01-0.47,1.93-0.97,2.81c-0.96,1.67-1.3,3.51-1.37,5.4c-0.04,1.24,0.31,1.47,1.43,0.88c1.66-0.88,3.42-1.31,5.26-1.49
		C481.28,261.81,482.74,262.24,484.08,263.12z"/>
	<path style="fill-rule:evenodd;clip-rule:evenodd;fill:#C10E1A;" d="M484.08,263.12c-0.24-0.02-0.51,0.04-0.71-0.06
		c-3.18-1.49-6.11-0.58-9.01,0.85c-1.45,0.72-1.8,0.53-1.76-1.07c0.05-2.17,0.42-4.25,1.61-6.15c0.96-1.53,0.8-3.3,0.78-5.01
		c0-0.42-0.16-0.97,0.37-1.16c0.46-0.16,0.65,0.36,0.95,0.6c2.52,1.93,4.66,4.38,7.75,5.49c0.56,0.2,1.14,0.34,1.71,0.51
		c0.1,0.22,0.22,0.43,0.3,0.65c0.11,0.28,0.19,0.57,0.28,0.86c-0.23-0.13-0.47-0.26-0.7-0.38c-0.28-0.14-0.6-0.42-0.87-0.19
		c-0.31,0.25-0.19,0.66-0.07,1.01c0.13,0.38,0.27,0.75,0.41,1.12c0.17,0.44,0.68,0.96,0.4,1.29c-0.25,0.31-0.65-0.36-1.06-0.44
		c-0.48-0.09-0.81-0.07-0.67,0.57C483.93,262.1,484,262.61,484.08,263.12z"/>
	<path style="fill-rule:evenodd;clip-rule:evenodd;fill:#765441;" d="M475.25,290.01c1.51,0.09,2.39,1.2,2.75,2.35
		c0.57,1.81,1.95,2.96,2.89,4.44c1.02,1.61,2.71,2.49,4.04,3.74c1,0.94,1.69,2.05,2.13,3.38c0.47,1.39,0.72,2.84,1.34,4.19
		c0.46,1,0.59,2.06,0.21,3.23c-0.5,1.58,0.45,3.08,0.71,4.63c0.48,2.75,2.2,5.08,2.89,7.77c0.6,2.36,2,3.87,4.25,4.82
		c1,0.42,0.39,1.45,0.14,2.21c-0.25,0-0.5-0.01-0.75-0.01c-1.18-1.24-2.25-2.55-3.86-3.35c-1.05-0.52-1.26-1.8-1.66-2.82
		c-1.54-3.9-2.23-8.04-3.25-12.09c-0.66-2.6-1.46-5.13-2.71-7.52c-0.09-0.17-0.25-0.45-0.19-0.54c0.22-0.32,0.36,0.09,0.55,0.14
		c0.21,0.05,0.47,0.08,0.48-0.14c0.01-0.19-0.18-0.42-0.33-0.59c-1.44-1.6-2.91-3.17-4.34-4.79c-1.24-1.4-2.43-2.84-3.64-4.26
		c-0.54-1.41-0.64-3.02-1.86-4.12C475.12,290.45,475.18,290.23,475.25,290.01z"/>
	<path style="fill-rule:evenodd;clip-rule:evenodd;fill:#9B1F1E;" d="M467.05,264.78c-0.06,0.23-0.13,0.46-0.19,0.69
		c-0.14,0.55,0.19,1.15-0.16,1.68c-0.28-0.47-0.56-0.95-0.83-1.42c-0.33-0.59-0.64-1.19-1-1.76c-0.16-0.25-0.05-0.86-0.61-0.67
		c-0.42,0.14-0.3,0.58-0.3,0.94c0,0.29,0.41,0.53,0.09,0.85c-0.2-0.23-0.43-0.45-0.6-0.71c-1.4-2.12-1.61-4.46-1.1-6.87
		c0.61-2.87,1.11-5.78,2.88-8.25c0.16-0.22,0.38-0.59,0.29-0.75c-0.7-1.29,0.36-1.1,1.01-1.26c0.55-0.19,1.01,0.01,1.45,0.31
		c0.26,0.45,0.85,0.36,1.17,0.73c0.42,1.16,0.48,2.38,0.67,3.57c-0.07,0.83,0.92,0.73,1.15,1.3c-1.58,0.79-1.98,2.15-1.83,3.78
		c0.02,0.21-0.07,0.38-0.25,0.49c-0.88,0.21-1.67-0.72-2.58-0.22c-0.07,0.04-0.15,0.04-0.21,0.05c0.11,0.05,0.2-0.03,0.29-0.05
		c0.77-0.2,1.43-0.01,1.99,0.54c0,0.62-0.25,1.18-0.47,1.73C467.23,261.2,467.27,263.01,467.05,264.78z"/>
	<path style="fill-rule:evenodd;clip-rule:evenodd;fill:#D5E8F2;" d="M476.18,239.4c0.48-0.77,1.08-0.24,1.58-0.09
		c4.12,1.26,6.91,4.11,9,7.74c1.92,3.35,2.55,7.07,2.87,10.86c0.03,0.39,0.22,0.91-0.38,1.13c-0.03-0.07-0.07-0.14-0.1-0.22
		c-0.07-0.08-0.13-0.17-0.19-0.26c-0.09-0.16-0.19-0.32-0.29-0.48c-0.07-0.07-0.13-0.15-0.17-0.24c-0.06-0.06-0.08-0.13-0.08-0.21
		c-0.05-0.11-0.13-0.2-0.22-0.28l0,0c-0.07-0.06-0.13-0.14-0.17-0.23c-2.09-3.14-4.24-6.24-6.63-9.16
		c-0.18-0.22-0.32-0.47-0.65-0.45l-0.11-0.03c0,0-0.08-0.09-0.08-0.09l-0.02-0.12c0.39-0.92,0.12-1.66-0.56-2.34
		c-1.14-1.14-2.14-2.4-2.84-3.87c-0.05-0.1-0.14-0.19-0.21-0.28l-0.01-0.02c-0.08-0.04-0.13-0.11-0.15-0.2
		c-0.03-0.08-0.07-0.16-0.1-0.24c-0.07-0.07-0.13-0.16-0.17-0.25c-0.05-0.07-0.07-0.14-0.07-0.22c-0.07-0.08-0.13-0.17-0.19-0.26
		C476.19,239.54,476.17,239.47,476.18,239.4z"/>
	<path style="fill-rule:evenodd;clip-rule:evenodd;fill:#DCAB1E;" d="M475.75,270.96c0.41,0,1.06,0.77,1.13-0.35
		c-0.02-0.73-0.47-1.56,0.53-2.03c0.71,0.31,0.85,1.49,1.91,1.25c0.01-1.12,0.5-1.77,1.69-1.73c0.08,0.05,0.15,0.1,0.23,0.15
		c0.09,0.02,0.16,0.07,0.21,0.15c0.42,0.04,0.72,0.71,1.24,0.23c0.1-1.02,0.72-1.54,1.67-1.72c0.16,0.11,0.31,0.21,0.47,0.32
		c0.09,0.06,0.18,0.14,0.29,0.18c0.12,0,0.24,0,0.36-0.01c0.45-0.79,0.96-1.54,1.83-1.95c0.45,0.58,0.91,1.16,1.36,1.74
		c0.2,0.94,0.72,1.45,1.74,1.32c0.23-0.03,0.47-0.04,0.68,0.12c0,0.24-0.01,0.47-0.01,0.71c-0.75,0.7-1.59,0.76-2.69,0.19
		c-1.68-0.87-1.71-0.87-2.94,0.61c-0.21,0.25-0.4,0.5-0.63,0.72c-0.66,0.62-0.48,1.17,0.09,1.74c0.37,0.37,1.02,0.56,0.89,1.29
		c-0.06,0.14-0.13,0.29-0.19,0.43c-0.47,0.45-0.8,0.06-1.1-0.21c-0.62-0.55-1.18-1.16-1.78-1.74c-1.13-1.1-2.75-0.9-3.62,0.43
		c-0.2,0.3-0.16,0.82-0.7,0.85c-0.1-0.14-0.2-0.28-0.31-0.41c-0.05-0.12-0.14-0.21-0.25-0.28c-1.35-0.93-0.77,0.47-1.03,0.85
		c-0.28,0.42,0.15,1.26-0.33,1.31c-0.47,0.05-0.75-0.71-1.02-1.19c-0.24-0.41-0.48-0.81-0.72-1.22
		C475.04,272.12,475.13,271.39,475.75,270.96z"/>
	<path style="fill-rule:evenodd;clip-rule:evenodd;fill:#BA121B;" d="M500.74,316.63c-0.52-1.54-1.31-2.93-2.25-4.24
		c-0.32-0.63-0.17-1.33-0.29-2c-0.28-1.58-0.81-3.01-2.08-4.07l0,0c-0.07-0.07-0.13-0.15-0.17-0.24c-0.62-2.42-1.36-4.81-2.28-7.14
		c-0.07-0.17-0.17-0.49-0.11-0.54c0.27-0.19,0.39,0.13,0.53,0.26c1.02,1,2.06,2,3.03,3.05c0.63,0.69,1.8,0.67,2.11,1.72
		c0.09,0.07,0.16,0.16,0.25,0.22l0-0.01c1.05,1.4,1.52,2.95,1.21,4.69c-0.2,1.13,0.08,2.21,0.37,3.28c0.34,1.26,0.72,2.52,0.77,3.84
		c0.02,0.47,0.1,0.97-0.46,1.23c-0.14-0.02-0.27-0.03-0.41-0.05C500.88,316.73,500.8,316.71,500.74,316.63z"/>
	<path style="fill-rule:evenodd;clip-rule:evenodd;fill:#AF191C;" d="M467.05,264.78c-0.65-2.57,0.22-4.87,1.24-7.15
		c0.08-0.23,0.18-0.43,0.48-0.27c0.21-0.72-0.1-1.43,0.14-2.21c0.35-1.12,0.7-2,2.01-2.09c0.57-0.78,1.3-0.69,2.07-0.39
		c0.06,0.05,0.13,0.14,0.11,0.19c-1.63,3.08-2.89,7.79-3.02,11.29c-0.01,0.24-0.02,0.48-0.05,0.71c-0.17,1.62-0.17,1.61,1.38,1.92
		c0.78,0.16,1.42,0.52,1.63,1.37c-0.15,0.76,0.74,1.89,0.07,2.16c-0.78,0.31-0.94-1.08-1.53-1.53c-0.25-0.19-0.57-1.66-1.22-0.17
		c-0.24,0.55-0.5-0.1-0.59-0.27c-0.68-1.25-1.32-2.52-1.98-3.79c-0.09-0.07-0.17-0.16-0.28-0.21
		C467.37,264.48,467.21,264.63,467.05,264.78z"/>
	<path style="fill-rule:evenodd;clip-rule:evenodd;fill:#658AC5;" d="M496.12,299.35c-1.38-1.18-1.87-2.87-2.6-4.43
		c-0.43-0.93-0.81-1.88-1.25-2.8c-0.18-0.38-0.43-1.08-0.73-0.95c-0.48,0.21-0.1,0.8-0.03,1.24c-0.14,0.16,0.03,0.6-0.43,0.47
		c-0.7-1.35-1.13-2.8-1.49-4.27c0.08-0.78,0.66-0.57,1.05-0.44c0.76,0.24,1.52,0.47,2.28,0.67c0.87,0.23,1.26,0.95,1.45,1.75
		c0.59,2.39,1.94,4.34,3.46,6.21c0.53,0.65,1.09,1.29,2.08,0.9c0.4,1.37-0.46,2.6-0.45,3.92c0,0.09-0.08,0.18-0.13,0.27
		c-0.15-0.12-0.33-0.21-0.44-0.36c-0.58-0.85-0.85-1.9-1.63-2.62c-0.25-0.24-0.61-0.6-0.86-0.55c-0.55,0.1-0.15,0.68-0.31,1.01
		L496.12,299.35z"/>
	<path style="fill-rule:evenodd;clip-rule:evenodd;fill:#785438;" d="M500.43,325.26c-0.65-0.04-1.07-0.52-1.27-0.99
		c-1.43-3.4-3.98-6.13-5.62-9.39c-1.01-2.02-1.79-4.17-2.2-6.41c-0.21-1.12,0.17-2.05,1.18-2.66c1.36,2.44,1.69,5.2,2.41,7.84
		c0.63,2.34,1.65,4.4,3.63,5.88c0.28,0.21,0.42,0.45,0.5,0.77c0.38,1.5,0.78,3,1.17,4.5c0.06,0.08,0.13,0.17,0.19,0.25
		C500.42,325.12,500.42,325.19,500.43,325.26z"/>
	<path style="fill-rule:evenodd;clip-rule:evenodd;fill:#B01C1E;" d="M485.97,255.45c-4.32-0.82-10.05-6.13-8.62-11.33
		c0.08-0.3,0.04-0.63,0.06-0.95c1.03,1.38,2.58,2.36,3.13,4.11l-0.02-0.03c0.07,0.11,0.16,0.2,0.25,0.28l-0.02-0.02
		c0.34,1.49,1.39,2.57,2.22,3.77C483.95,252.69,484.97,254.06,485.97,255.45z"/>
	<path style="fill-rule:evenodd;clip-rule:evenodd;fill:#BA131B;" d="M473.05,268.15c-0.77-0.7-1.53-1.29-2.73-0.99
		c-0.75,0.19-0.9-0.5-0.83-1.1c0.35-3.04,0.08-6.19,1.63-9.04c0.42-0.77,0.59-1.74,0.64-2.64c0.05-0.95,0.46-1.39,1.33-1.55
		c0.1-0.51,0.38-0.82,0.94-0.77c-0.52,2.14-0.8,4.33-1.97,6.31c-0.56,0.94-0.75,2.18-0.66,3.36c0.03,0.48,0.16,1.03-0.02,1.43
		c-0.99,2.18,0.52,3.04,1.98,3.94c0.12,0.08,0.31,0.18,0.41,0.14c0.31-0.14,0.25-0.46,0.27-0.73c0.07-0.7-0.25-1.63,0.95-1.7
		c0.16,0.82,0.36,1.63,0.46,2.45c0.07,0.55,0.22,1.4-0.05,1.59c-0.39,0.29-0.56-0.63-1.03-0.75
		C473.93,267.98,473.46,267.42,473.05,268.15z"/>
	<path style="fill-rule:evenodd;clip-rule:evenodd;fill:#E3BD1D;" d="M485.8,273.91c-0.02-0.04-0.03-0.08-0.06-0.1
		c-2.07-2.2-1.94-3.22,0.62-5.13c0.66-0.5,1.13-0.15,1.6,0.21c0.96,0.75,1.99,0.97,3.13,0.47v0c0.12,0.13,0.1,0.32,0.17,0.47
		c0.1,0.78,0.22,1.57,0.3,2.36c0.02,0.17-0.03,0.48-0.12,0.51c-0.24,0.08-0.29-0.19-0.37-0.36c-0.02-0.04-0.02-0.08-0.05-0.11
		c-0.27-0.38-0.52-1.12-0.9-0.97c-0.59,0.24-0.25,0.98-0.21,1.5c0.04,0.6,0.47,1.13,0.33,1.76c-0.42-0.46-0.85-0.92-1.27-1.39
		c-0.6-0.69-1.19-1.39-1.79-2.08c-0.14-0.16-0.36-0.26-0.54-0.38c0.02,0.23,0,0.47,0.08,0.68c0.24,0.71,0.51,1.41,0.77,2.11
		c0.06,0.05,0.09,0.11,0.08,0.17c-0.01,0.06-0.02,0.1-0.04,0.1c-0.49,0.19-1.02,0.12-1.51,0.28
		C485.93,273.99,485.86,273.96,485.8,273.91z"/>
	<path style="fill-rule:evenodd;clip-rule:evenodd;fill:#EDD4D8;" d="M466.54,240.54c-0.5-1.12,0.11-2.49-0.79-3.52
		c-0.14-0.16-0.02-0.29,0.18-0.26c0.15,0.03,0.29,0.13,0.44,0.18c3.67,1.11,4.13,2.32,2.2,5.62c-0.65,1.11-1.55,2.02-2.4,2.96
		c-0.47,0.52-0.61,0.37-0.79-0.27c-0.22-0.79-0.64-1.52-0.97-2.28c0.17-0.26,0.46-0.29,0.72-0.38
		C466.52,242.13,466.62,241.98,466.54,240.54z"/>
	<path style="fill-rule:evenodd;clip-rule:evenodd;fill:#C4DFEC;" d="M497.81,317.37c-1.63-2.04-2.29-4.53-3.1-6.93
		c-1.2-3.54-1.87-7.23-2.64-10.89c-0.06-0.26,0.01-0.55,0.01-0.83c0.18,0.24,0.4,0.46,0.52,0.72c1.42,3.18,2.39,6.51,3.24,9.87
		c0.68,2.68,1.78,5.27,1.94,8.07L497.81,317.37z"/>
	<path style="fill-rule:evenodd;clip-rule:evenodd;fill:#A31D1D;" d="M501.38,316.71c0.33-1.65-0.21-3.19-0.62-4.74
		c-0.37-1.38-0.73-2.72-0.35-4.19c0.38-1.47-0.76-2.71-0.91-4.12c0.82,0.31,1.06-0.13,1.14-0.84c0.02-0.22-0.38-0.58,0.1-0.63
		c0.29-0.03,0.4,0.32,0.42,0.62c0.15,1.66,0.33,3.32,0.49,4.98c0.26,2.81,0.5,5.62,0.8,8.42c0.05,0.47,0.34,1.24,0.08,1.34
		C502.01,317.74,501.75,317.03,501.38,316.71z"/>
	<path style="fill-rule:evenodd;clip-rule:evenodd;fill:#D38D1F;" d="M486.41,275.58c1,1.33,2,2.66,3,3.99
		c0.09,0.12,0.22,0.34,0.18,0.41c-0.16,0.25-0.35,0.02-0.5-0.06c-1.88-0.94-3.39-2.33-4.76-3.89c-0.84-0.95-1.67-1.92-2.55-2.83
		c-0.25-0.26-0.43-0.87-1.02-0.49c-0.08,0.08-0.17,0.16-0.21,0.27l0.03-0.02c-0.18,0.11-0.17,0.27-0.12,0.45
		c-0.05,0.09-0.11,0.17-0.16,0.26c-1.06,0.17-0.89-0.53-0.69-1.09c0.41-1.14,1.94-1.45,2.86-0.57
		C483.73,273.25,484.92,274.58,486.41,275.58z"/>
	<path style="fill-rule:evenodd;clip-rule:evenodd;fill:#345183;" d="M492.48,277.99c0.92,0.84,2.06,1.47,2.69,2.61
		c0.12,1.18,0.87,1.63,1.96,1.71c0.75,0.41,1.35,0.99,1.89,1.65c-0.42,1.07-1.2,0.81-1.98,0.54c-1.69-1.06-3.4-2.34-4.35-3.93
		c-0.63-1.05-1.01-2.48-1.65-3.68c0.33-0.94,1.31-1.36,1.72-2.23c0.08,0.08,0.16,0.16,0.24,0.24c0.08,0.08,0.15,0.16,0.23,0.24l0,0
		c0.39,0.93-0.52,1.43-0.71,2.17c-0.01,0.08-0.03,0.16-0.05,0.24C492.38,277.68,492.38,277.84,492.48,277.99z"/>
	<path style="fill-rule:evenodd;clip-rule:evenodd;fill:#C63530;" d="M470.4,237.96c-1.87-2.11-4.24-2.65-6.93-2.2
		c-0.19-0.32,0.07-0.52,0.21-0.75c1.1-0.29,2.6-1.16,3.21-0.74c1.39,0.96,2.62-0.61,3.81,0.21c0.45,0.31,0.95,0.53,1.43,0.8
		C471.76,236.3,471.65,237.5,470.4,237.96z"/>
	<path style="fill-rule:evenodd;clip-rule:evenodd;fill:#567CBB;" d="M499.92,297.7c-0.55,1.19-1.2,0.56-1.7,0.02
		c-1.94-2.09-3.51-4.39-4.24-7.22c-0.31-1.22-3.16-2.38-4.38-1.89c-0.69-1.57-0.69-1.57,0.99-1.45c0.59,0.62,1.36,0.77,2.15,0.88
		c1.24,0.17,1.98,0.79,2.27,2.07c0.62,2.76,2.24,4.94,4.22,6.88c0.14,0.06,0.29,0.08,0.44,0.09c0.1,0.02,0.18,0.06,0.25,0.14
		C499.91,297.37,499.92,297.53,499.92,297.7z"/>
	<path style="fill-rule:evenodd;clip-rule:evenodd;fill:#343C81;" d="M491.24,284.02c-1.86-0.62-3.14-2.14-4.8-3.07
		c-0.31-0.17-0.16-0.37,0.04-0.31c0.69,0.22-0.05-1.37,0.85-0.68c1.16,0.91,2.28,1.38,3.88,1.33c1.1-0.04,1.91,1.52,2.79,2.43
		C493.19,284.82,492.18,284.04,491.24,284.02z"/>
	<path style="fill-rule:evenodd;clip-rule:evenodd;fill:#344183;" d="M484.89,280.61c1.17,1.8,3.19,2.55,4.76,3.85
		c-0.48,0.96-1.26,0.73-2.04,0.5c-2.22-0.99-4.13-2.43-5.91-4.06c-0.06-0.24,0.02-0.34,0.27-0.29l-0.01,0
		c0.14,0.16,0.29,0.17,0.46,0.05c0.32,0.12,0.63,0.22,0.93-0.05C483.87,280.5,484.38,280.48,484.89,280.61z"/>
	<path style="fill-rule:evenodd;clip-rule:evenodd;fill:#3E5B9F;" d="M499.91,297.21c-0.06,0-0.13,0-0.19,0
		c-2.31-2.12-4.25-4.49-4.82-7.69c-0.17-0.96-0.6-1.38-1.56-1.38c-0.43,0-0.86-0.12-1.23-0.39c-0.1-0.09-0.12-0.2-0.07-0.32
		c0.08-0.02,0.2-0.01,0.23-0.05c0.69-1.39,1.69-0.9,2.67-0.44c0.09,0.06,0.17,0.11,0.26,0.17c0.06-0.01,0.11-0.02,0.17-0.01
		c0.67,0.01,0.57,0.57,0.62,0.95c0.2,1.41,0.79,2.66,1.37,3.93c0.5,1.1,1.66,1.45,2.32,2.34
		C499.75,295.28,499.83,296.24,499.91,297.21z"/>
	<path style="fill-rule:evenodd;clip-rule:evenodd;fill:#C22021;" d="M470.4,237.96c0.9-0.69,0.83-2,1.73-2.68l-0.01,0
		c0.07,0.1,0.16,0.18,0.26,0.24l-0.01-0.01c0.2,0.22,0.49,0.32,0.72,0.51c0.69,0.71,1.54,1.31,1.69,2.4
		c-0.33-0.16-0.72-0.33-0.89,0.16c-0.5,1.49-1.68,1.6-2.96,1.53c-0.09-0.53-0.17-1.06-0.26-1.6c-0.1-0.18-0.06-0.42-0.24-0.56
		L470.4,237.96z"/>
	<path style="fill-rule:evenodd;clip-rule:evenodd;fill:#364287;" d="M497.8,286.16c1.29,1.15,0.98,2.83,1.35,4.27
		c0.27,1.01,0.24,2.11,0.34,3.16c-0.16,0.06-0.32,0.04-0.44-0.07c-1.8-1.61-2.88-3.58-2.77-6.05c0.03-0.67,0.06-1.48,1.05-1.58
		h-0.01C497.46,286.04,497.62,286.12,497.8,286.16z"/>
	<path style="fill-rule:evenodd;clip-rule:evenodd;fill:#F2E4CE;" d="M456.99,248.48c-1.49-2.02-1.61-4.51-0.29-6.41
		c0.59-0.85,1.3-1.52,2.47-1.29c0.25,0.44,0.4,0.93-0.02,1.31c-1.18,1.08-1.25,2.5-1.31,3.94c-0.02,0.63,0.07,1.28-0.06,1.9
		C457.7,248.31,457.57,248.77,456.99,248.48z"/>
	<path style="fill-rule:evenodd;clip-rule:evenodd;fill:#AA1D1E;" d="M468.05,247.77c-0.5-0.17-1.01-0.34-1.51-0.51
		c0.2-0.23,0.4-0.47,0.59-0.7c0.05-0.09,0.11-0.16,0.19-0.22c0.55-0.82,1.1-1.63,1.65-2.45c1.12,0.91,1.86,2.11,2.54,3.35
		c0.34,0.61,1.11,0.57,1.55,1.03c-0.35,0.33-0.81,0.39-1.23,0.29C470.58,248.28,469.28,248.15,468.05,247.77z"/>
	<path style="fill-rule:evenodd;clip-rule:evenodd;fill:#B21B1E;" d="M481.25,264.09c0.03,0.07,0.08,0.14,0.09,0.22
		c0.1,0.86,0.2,1.72,0.3,2.58c-0.83-0.04-1.04-0.98-1.75-1.2c-0.39-0.13-0.73-0.7-1.13-0.42c-0.21,0.15-0.11,0.74-0.14,1.13
		c-0.02,0.24-0.01,0.48-0.02,0.72c-0.02,0.31,0.07,0.69-0.28,0.83c-0.08,0.03-0.35-0.36-0.49-0.58c-0.58-0.96-1.37-1.75-2.13-2.55
		c1.4-0.93,2.99-1.17,4.6-1.28C480.7,263.5,481.09,263.64,481.25,264.09z"/>
	<path style="fill-rule:evenodd;clip-rule:evenodd;fill:#354988;" d="M479.11,280.63c1.66,0.93,3.3,1.89,4.79,3.08
		c-0.07,0.75-0.63,0.58-1.04,0.48c-0.8-0.18-1.61-0.38-2.33-0.79c-0.37-0.22-0.74-0.46-1.2-0.39c-1.01-0.64-2.09-1.2-2.92-2.09
		c0.14-0.84,0.83-0.56,1.33-0.62C478.22,280.23,478.67,280.43,479.11,280.63z"/>
	<path style="fill-rule:evenodd;clip-rule:evenodd;fill:#354C88;" d="M479.83,278.2c-0.41-0.14-0.81-0.25-1.19,0.08
		c-0.87-0.39-0.97-0.91-0.28-1.57c0.35-0.26,0.76-0.33,1.19-0.35c0.65,0.39,1.02,0.11,1.23-0.52c0.58-0.53,1.25-0.36,1.91-0.26
		c0.59,0.45,1.1,0.97,1.45,1.63c-0.02,0.81-0.7,0.74-1.19,0.82C481.93,278.2,480.88,278.36,479.83,278.2z"/>
	<path style="fill-rule:evenodd;clip-rule:evenodd;fill:#3A5194;" d="M497.34,285.9c-0.98,0.92-0.83,2.06-0.59,3.2
		c0.39,1.82,1.47,3.22,2.75,4.5c0.22,0.2,0.2,0.46,0.18,0.72c-2.92-1.06-3.45-3.67-4.03-6.24c-0.08-0.34,0.05-0.72-0.28-0.99
		c0.24-0.36,0.55-0.69,0.7-1.09C496.45,284.98,496.87,285.29,497.34,285.9z"/>
	<path style="fill-rule:evenodd;clip-rule:evenodd;fill:#E2BD1E;" d="M475.75,270.96c-0.28,0.62-0.13,1.49-1.01,1.77l0,0
		c-0.07-0.11-0.17-0.18-0.28-0.23c-1.13-0.37-0.85,0.46-0.88,1.03c-0.02,0.31,0.03,0.82-0.11,0.88c-0.34,0.15-0.65-0.19-0.9-0.43
		c-0.77-0.71-1.29-1.58-1.73-2.53c-0.22-0.47,0.04-0.61,0.26-0.88c0.37-0.45,0.54-0.01,0.75,0.14c0.66,0.46,1.24,1.12,2.19,0.79
		c0.09-0.1,0.18-0.19,0.19-0.34c-0.02-0.06,0-0.11,0.06-0.14c0.33-0.37,0.79-0.21,1.19-0.29
		C475.58,270.82,475.67,270.89,475.75,270.96z"/>
	<path style="fill-rule:evenodd;clip-rule:evenodd;fill:#D19320;" d="M465.38,271.05c-0.68-1.05-0.9-2.27-1.27-3.43
		c-0.03-0.1-0.2-0.67,0.14-0.35c0.66,0.63,0.76-1.57,1.36-0.18c0.14,0.33,0.31,0.64,0.48,0.95c0.29,0.52,0.64,1.21,1.24,1.12
		c0.47-0.07,0.19-0.83,0.29-1.27c0.05-0.23,0.08-0.53,0.23-0.66c0.19-0.16,0.34,0.11,0.42,0.27c0.23,0.45,0.85,0.75,0.57,1.4
		c-0.06,0.14-0.18,0.26-0.28,0.38c-0.1,0.99-0.96,0.93-1.52,0.85C466.14,269.99,465.72,270.38,465.38,271.05z"/>
	<path style="fill-rule:evenodd;clip-rule:evenodd;fill:#A31D1D;" d="M496.11,306.32c0.9,0.04,1.36,0.71,1.63,1.39
		c0.6,1.49,1.25,3,0.74,4.68c-0.66,0.28-0.97,0.08-1.12-0.65C496.99,309.93,496.53,308.13,496.11,306.32z"/>
	<path style="fill-rule:evenodd;clip-rule:evenodd;fill:#E4DDDE;" d="M456.99,248.48c0.71-0.16,0.47-0.73,0.48-1.16
		c0.04-1.36-0.12-2.73,0.41-4.06c0.22-0.54,0.19-1.13,0.95-1.34c0.55-0.15,0.25-0.75,0.33-1.15c0.16,0.15,0.33,0.31,0.49,0.46
		c0.44,0.9,0.14,1.76-0.3,2.49c-0.98,1.63-0.99,3.31-0.57,5.07c0.09,0.39,0.24,0.78-0.11,1.12
		C457.84,249.76,457.48,249.05,456.99,248.48z"/>
	<path style="fill-rule:evenodd;clip-rule:evenodd;fill:#D69C20;" d="M486.41,275.58c-1.84-0.52-2.74-2.19-4.07-3.33
		c-0.88-0.76-1.95-0.62-2.47,0.37c-0.27,0.51-0.25,0.92,0.42,1.06c-0.04,0.59-0.21,1.59-0.54,1.53c-0.65-0.12-0.94-0.96-1.33-1.55
		c0.19-1.24,1.02-1.89,2.13-2.25c0.79-0.26,1.48-0.17,2.17,0.46c0.94,0.86,1.55,2.12,2.9,2.48l-0.03,0.01
		c0.03,0.13,0.14,0.19,0.21,0.29C486,274.95,486.2,275.27,486.41,275.58z"/>
	<path style="fill-rule:evenodd;clip-rule:evenodd;fill:#D9AB1F;" d="M465.38,271.05c-0.23-0.93,0.01-1.37,1.08-1.23
		c0.73,0.1,1.51,0.08,2.1-0.54c0.57,1.27,0.86,2.61,0.95,4c0.01,0.22,0,0.61-0.11,0.65c-0.33,0.13-0.46-0.24-0.59-0.45
		c-0.45-0.7-0.85-1.43-1.27-2.15c-0.12-0.28-0.25-0.55-0.49-0.76l0.02,0.02c-0.05-0.1-0.13-0.12-0.22-0.05
		c-0.09-0.03-0.17-0.05-0.26-0.08c-0.09-0.02-0.18-0.06-0.26-0.12c-0.06,0.3-0.12,0.6-0.18,0.9c0.05,0.09,0.1,0.18,0.15,0.27
		c0.01,0.24,0.02,0.49,0.03,0.73c-0.06,0.07-0.13,0.07-0.21,0.01l0,0c-0.13-0.13-0.07-0.37-0.27-0.47l0.01,0.01
		C465.73,271.52,465.59,271.27,465.38,271.05L465.38,271.05z"/>
	<path style="fill-rule:evenodd;clip-rule:evenodd;fill:#6587C1;" d="M500.02,321.21c-0.5-1.92-1.02-3.83-1.5-5.76
		c-0.07-0.3,0.06-0.65,0.11-0.98c0.34,0.16,0.31,0.52,0.43,0.8c0.29,0.66,0.64,1.29,0.86,1.96c0.33,0.98,1.29,1.07,1.98,1.54
		c-0.37,0.74-0.76,1.47-0.98,2.28c-0.09,0.35-0.14,0.81-0.67,0.84c-0.02-0.15-0.05-0.3-0.07-0.44
		C500.12,321.38,500.07,321.3,500.02,321.21z"/>
	<path style="fill-rule:evenodd;clip-rule:evenodd;fill:#5578B6;" d="M500.25,321.9c0.29-0.8,0.61-1.59,0.87-2.39
		c0.13-0.42,0.34-0.69,0.79-0.73l0.02-0.01c0.04,0.1,0.1,0.19,0.18,0.26l0,0.01c0.18,0.24,0.25,0.52,0.13,0.78
		c-0.76,1.7-0.29,3.24,0.57,4.73c-0.26,0.58-0.71,1.01-1.31,1.06c-0.14,0.01-0.38-0.78-0.52-1.22
		C500.73,323.57,500.5,322.73,500.25,321.9z"/>
	<path style="fill-rule:evenodd;clip-rule:evenodd;fill:#D0871F;" d="M488.41,260.49c0.31,0.72,0.63,1.44,0.94,2.16
		c-0.09,0.49-0.15,0.98-0.55,1.36c-0.39,0.37-0.76,0.49-1.19,0.08c-0.35-0.82-0.74-1.64-1.05-2.48c-0.19-0.51-0.27-1.06-0.4-1.59
		c0.39,0.25,0.78,0.5,1.17,0.75c0.41,0.26,0.74,0.3,0.86-0.3C488.27,260.38,488.34,260.38,488.41,260.49z"/>
	<path style="fill-rule:evenodd;clip-rule:evenodd;fill:#D3921F;" d="M491.09,268.64c-0.77,0.3-1.52,0.47-2.23-0.17
		c-0.43-0.39-0.5-0.79-0.19-1.27c0.5,0.19,0.71,1.11,1.32,0.77c0.63-0.36,0.28-1.06,0.12-1.63c-0.04-0.15-0.25-0.65,0.01-0.49
		c0.56,0.36,1.38-0.3,1.69,0.47c0.3,0.73,0.49,1.51,0.7,2.27c0.03,0.12-0.06,0.27-0.1,0.41c-0.12-0.09-0.25-0.16-0.37-0.26
		C491.76,268.51,491.46,268.36,491.09,268.64z"/>
	<path style="fill-rule:evenodd;clip-rule:evenodd;fill:#BA131B;" d="M481.25,264.09c-1.16-0.57-2.25,0.02-3.36,0.21
		c-0.74,0.12-1.41,0.57-2.19,0.51c-0.08-0.06-0.16-0.12-0.24-0.17c0.02-0.08,0.01-0.17,0.06-0.23c1.55-1.84,6.71-1.72,8.11,0.18
		c-0.73-0.19-1.33-0.77-2.13-0.75C481.41,263.92,481.31,263.99,481.25,264.09L481.25,264.09z"/>
	<path style="fill-rule:evenodd;clip-rule:evenodd;fill:#92201E;" d="M459.89,239.57c-0.92-0.42-1.77-0.1-2.61,0.26
		c-0.2,0.08-0.44,0.36-0.61,0.09c-0.09-0.13,0.04-0.43,0.13-0.64c0.54-1.24,1.41-2.17,2.62-2.78
		C460.43,237.39,460.28,238.46,459.89,239.57z"/>
	<path style="fill-rule:evenodd;clip-rule:evenodd;fill:#344380;" d="M492.53,277.29c-0.56-0.98,0.86-1.32,0.71-2.17
		c1.18,1.19,2.13,2.54,2.9,4.02c0.17,0.51,0.05,0.74-0.52,0.54C494.52,278.98,494.06,277.44,492.53,277.29z"/>
	<path style="fill-rule:evenodd;clip-rule:evenodd;fill:#B71D1F;" d="M459.89,239.57c0.1-1.06-0.16-2.07-0.48-3.07
		c1.12-0.69,2.35-1.07,3.61-1.38c0.16,0.05,0.32,0.06,0.46-0.05c0.06-0.04,0.13-0.06,0.2-0.06c-0.07,0.25-0.14,0.5-0.21,0.75
		c-1.62,0.71-2.98,1.64-3.21,3.6C460.25,239.44,460.02,239.5,459.89,239.57z"/>
	<path style="fill-rule:evenodd;clip-rule:evenodd;fill:#B6AEAE;" d="M460.61,244.17c-0.51,0.75-1.17,1.43-1.39,2.32
		c-0.28,1.13-0.18,2.21,0.76,3.06c0.28,0.26,0.53,0.55,0.79,0.82c-0.49,0.06-0.99,0.19-1.43-0.17c-1.13-2-1.4-4-0.16-6.08
		c0.3-0.5,0.48-1.07,0.49-1.7c0-0.41,0-0.9,0.46-1.16c0.15,0.09,0.31,0.17,0.46,0.26C460.89,242.41,460.7,243.29,460.61,244.17z"/>
	<path style="fill-rule:evenodd;clip-rule:evenodd;fill:#3F5698;" d="M502.82,324.56c-1.38-1.21-1.74-2.91-0.99-4.63
		c0.13-0.28,0.19-0.59,0.29-0.89c0.68,0.46,0.73,1.15,0.72,1.87C502.82,322.13,502.83,323.34,502.82,324.56z"/>
	<path style="fill-rule:evenodd;clip-rule:evenodd;fill:#4161A3;" d="M479.83,278.2c1.37-0.64,3.01-0.08,4.32-0.99
		c0.59,0.54,1.07,1.15,1.19,1.97l-0.04,0.04c-0.63-0.23-1.24-0.49-1.88-0.66c-0.58-0.16-1.29-0.46-1.17,0.7
		c0.08,0.73-0.4,0.24-0.56,0.15C481.04,279.04,480.62,278.34,479.83,278.2z"/>
	<path style="fill-rule:evenodd;clip-rule:evenodd;fill:#374886;" d="M495.13,273.93c0.26,0.62,0.51,1.25,0.77,1.87
		c0.11,0.52,0.22,1.05,0.34,1.57c-0.41-0.43-0.81-0.85-1.22-1.28c-0.85-0.89-1.76-1.73-2.26-2.89c0.23-0.6,0.73-0.53,1.22-0.49
		C494.42,273.05,494.38,273.87,495.13,273.93z"/>
	<path style="fill-rule:evenodd;clip-rule:evenodd;fill:#4A6DAF;" d="M492.03,287.43c0,0.06,0,0.11,0,0.17
		c0.54,0.41,1.19,0.4,1.81,0.49c0.57,0.08,1.05,0.34,1.11,0.92c0.36,3.11,2.22,5.38,4.18,7.61c0.21,0.24,0.47,0.45,0.35,0.83
		c-1.88-1.27-3.09-3.09-4.06-5.09c-0.07-0.14-0.11-0.3-0.15-0.45c-0.47-2.06-1.2-3.83-3.79-3.84c-0.37,0-1.16-0.05-0.89-0.9
		C491.07,287.25,491.55,287.34,492.03,287.43z"/>
	<path style="fill-rule:evenodd;clip-rule:evenodd;fill:#3F5B9D;" d="M479.33,283.01c1.26-0.47,2.13,0.74,3.28,0.78
		c0.44,0.02,0.88,0.44,1.28-0.08c0.73,0.46,1.55,0.79,2,1.6c-0.88,0.24-1.68-0.14-2.48-0.38
		C481.97,284.51,480.59,283.88,479.33,283.01z"/>
	<path style="fill-rule:evenodd;clip-rule:evenodd;fill:#922621;" d="M503.05,309.22c0.49,2.97,0.88,5.95,0.99,8.97
		c0.01,0.36-0.01,0.72-0.04,1.07c-0.01,0.17,0.1,0.46-0.18,0.47c-0.26,0.02-0.25-0.26-0.26-0.45c-0.23-3.36-0.46-6.72-0.7-10.08
		C502.94,309.1,503,309.11,503.05,309.22z"/>
	<path style="fill-rule:evenodd;clip-rule:evenodd;fill:#D0C8C8;" d="M460.12,241.28c-0.25,1.67-0.63,3.29-1.42,4.82
		c-0.47,0.93-0.04,1.91,0.32,2.85c0.15,0.4,0.71,0.72,0.31,1.26c-0.23-0.06-0.52,0.02-0.66-0.28c-0.44-1.74-0.89-3.52-0.18-5.24
		c0.46-1.13,1.07-2.19,1.16-3.44c0.06,0.02,0.13,0.02,0.2,0.03C459.95,241.2,460.04,241.2,460.12,241.28L460.12,241.28z"/>
	<path style="fill-rule:evenodd;clip-rule:evenodd;fill:#E3BDC3;" d="M466.54,240.54c0.78,1.04,0.52,1.76-0.85,2.25
		c-0.4,0.14-0.85,0.12-1.28,0.18c-0.19-0.38-1.16-0.18-0.75-1.01c0.14-0.28,0.03-1.01,0.64-0.21c0.41,0.54,0.93-0.02,1.31-0.3
		C465.96,241.19,466.24,240.85,466.54,240.54z"/>
	<path style="fill-rule:evenodd;clip-rule:evenodd;fill:#3A4E90;" d="M491.24,284.02c0.87-0.58,1.9,0.31,2.76-0.3
		c0.55,0.5,1.5,1.3,1.18,1.71c-0.42,0.54-1.42-0.04-2.12-0.34C492.42,284.81,491.75,284.55,491.24,284.02z"/>
	<path style="fill-rule:evenodd;clip-rule:evenodd;fill:#3E5796;" d="M503.38,284.87c-0.27,0.2-0.47,0.56-0.87,0.5
		c-0.79-0.11-2.13-1.99-2.03-2.8c0.02-0.14-0.03-0.32,0.21-0.34C500.93,282.2,503.38,284.57,503.38,284.87z"/>
	<path style="fill-rule:evenodd;clip-rule:evenodd;fill:#CE8720;" d="M487.32,265.47c-0.3,0.94-1.22,1.29-1.83,1.95
		c0.32-1.21-0.14-2.38-0.17-3.57c0.08-0.1,0.16-0.11,0.25-0.01c0.78,0.22,1.24,0.81,1.65,1.45c-0.07,0.1-0.04,0.17,0.08,0.21
		L487.32,265.47z"/>
	<path style="fill-rule:evenodd;clip-rule:evenodd;fill:#16140A;" d="M461.61,247.09c-0.34-0.06-0.67-0.12-1.01-0.18
		c0.1-0.49,0.57-0.49,0.89-0.66c0.6-0.32,1.26-0.52,1.82-0.88c0.49-0.31,0.61,0.01,0.84,0.28c0.35,0.42,0.13,0.63-0.25,0.81
		C463.18,246.81,462.45,247.11,461.61,247.09z"/>
	<path style="fill-rule:evenodd;clip-rule:evenodd;fill:#D19320;" d="M484.37,266.92c-0.39,0.73-1.52,0.75-1.67,1.72
		c-0.09-0.85-0.19-1.71-0.25-2.57c-0.02-0.29-0.23-0.72,0.12-0.84c0.33-0.12,0.64,0.22,0.87,0.49
		C483.76,266.11,484.06,266.52,484.37,266.92z"/>
	<path style="fill-rule:evenodd;clip-rule:evenodd;fill:#D8EAF3;" d="M463,248.03c-0.08,0.87-0.91,1.32-1.19,2.08
		c-0.65-0.47-1.69-0.9-1.53-1.69c0.09-0.44,1.37-0.39,2.13-0.42C462.61,247.99,462.8,248.02,463,248.03z"/>
	<path style="fill-rule:evenodd;clip-rule:evenodd;fill:#D5DDEE;" d="M463.69,236.91c0.36,0.1,1,0.15,0.76,0.37
		c-0.65,0.62,0.79,1.84-0.61,2.02c-0.47,0.06-1.31-0.31-1.2-0.85C462.76,237.91,462.9,237.05,463.69,236.91z"/>
	<path style="fill-rule:evenodd;clip-rule:evenodd;fill:#4567A7;" d="M487.62,284.97c0.73,0.04,1.39-0.19,2.04-0.5
		c0.74,0.45,1.49,0.9,1.87,1.75c-0.91,0.34-1.63-0.29-2.42-0.52C488.58,285.55,488.11,285.22,487.62,284.97z"/>
	<path style="fill-rule:evenodd;clip-rule:evenodd;fill:#37747C;" d="M479.55,276.36c-0.32,0.15-0.63,0.3-0.95,0.45
		c-0.75,0.55-1.56,0.44-2.39,0.21c-0.33-0.17-0.66-0.34-0.98-0.51c-0.17-0.1-0.32-0.09-0.46,0.06l0.01,0
		c-0.6,0.18-0.97-0.3-1.45-0.49c-0.16-0.18-0.35-0.43,0.09-0.38c0.32,0.04,0.59,0.06,0.87-0.09c0.71-0.11,1.25,0.4,1.9,0.52
		c0.47,0.09,0.89,0.58,1.42,0.18c0.35-0.32,0.77-0.48,1.24-0.48C479.08,276,479.31,276.18,479.55,276.36z"/>
	<path style="fill-rule:evenodd;clip-rule:evenodd;fill:#D29221;" d="M488.92,276.8c-0.73-0.79-1.46-1.59-2.19-2.38
		c0.17-0.51,0.47-0.75,1.02-0.51c0.63,0.88,1.27,1.76,1.9,2.64C489.49,276.9,489.27,277.04,488.92,276.8z"/>
	<path style="fill-rule:evenodd;clip-rule:evenodd;fill:#346E75;" d="M492.76,274.64c0.21,1.35-1.09,1.54-1.72,2.23
		c0.06-0.24-1.22-0.45-0.01-0.74c0.39-0.09,0.31-0.53,0.26-0.83c-0.06-0.41-0.17-0.73,0.38-0.95
		C492.17,274.15,492.5,274.15,492.76,274.64z"/>
	<path style="fill-rule:evenodd;clip-rule:evenodd;fill:#35617D;" d="M479.11,280.63c-0.89,0.15-1.85-0.28-2.7,0.29
		c-0.69-0.23-1.1-0.83-1.66-1.23c-0.13-0.19-0.16-0.37,0.02-0.54c0.32,0.1,0.63,0.19,0.95,0.29c0.73-0.03,1.41,0.49,2.16,0.24
		C478.3,279.99,478.7,280.31,479.11,280.63z"/>
	<path style="fill-rule:evenodd;clip-rule:evenodd;fill:#364A81;" d="M474.77,279.15c-0.01,0.18-0.01,0.36-0.02,0.54
		c-1.09-0.9-2.24-1.75-3.14-2.86c0.08-0.6,0.44-0.44,0.8-0.3C473.2,277.4,473.99,278.27,474.77,279.15z"/>
	<path style="fill-rule:evenodd;clip-rule:evenodd;fill:#403B3A;" d="M463.5,243.91c0.2,0.29,0.71,0.67,0.12,0.92
		c-0.82,0.35-1.67,1.23-2.58,0.58c-0.32-0.23,0.46-0.83,0.79-1.23C462.39,244.12,462.93,243.95,463.5,243.91z"/>
	<path style="fill-rule:evenodd;clip-rule:evenodd;fill:#D69C21;" d="M487.61,264.1c1.22,0.3,1.18-0.93,1.74-1.44
		c0.02,0.63,1.36,1.48-0.41,1.82c-0.54,0.1,0,0.82,0.08,1.25c0.02,0.14,0.04,0.29,0.05,0.43c-0.12-0.08-0.28-0.14-0.35-0.25
		C488.33,265.31,487.97,264.7,487.61,264.1z"/>
	<path style="fill-rule:evenodd;clip-rule:evenodd;fill:#3A5B97;" d="M476.21,277.02c0.76-0.43,1.62,0.19,2.39-0.21
		c-0.76,0.51-0.31,0.99,0.04,1.47c-0.04,0.27,0,0.69-0.14,0.76c-0.27,0.15-0.43-0.22-0.61-0.4
		C477.32,278.1,476.77,277.56,476.21,277.02z"/>
	<path style="fill-rule:evenodd;clip-rule:evenodd;fill:#765542;" d="M488.4,294.52c-1.17-0.27-1.77-1.24-2.2-2.16
		c-0.48-1.01,0.61-0.17,0.8-0.49C487.47,292.76,487.94,293.64,488.4,294.52z"/>
	<path style="fill-rule:evenodd;clip-rule:evenodd;fill:#CE9321;" d="M481.02,268.1c-0.45,0.69-1.74,0.56-1.69,1.73
		c0-0.35,0-0.71-0.01-1.06c-0.02-0.71-0.07-1.76,0.39-1.95C480.2,266.62,480.56,267.65,481.02,268.1z"/>
	<path style="fill-rule:evenodd;clip-rule:evenodd;fill:#3B8564;" d="M477.89,279.68c-0.83,0.93-1.48,0.17-2.16-0.24
		c0.37-1.27,0.37-1.27,1.61-0.21C477.52,279.38,477.7,279.53,477.89,279.68z"/>
	<path style="fill-rule:evenodd;clip-rule:evenodd;fill:#5873AA;" d="M489.88,292.63c-1.02-1.14-1.7-2.5-2.4-3.84
		c-0.13-0.27,0.02-0.4,0.24-0.5c1.03,1.3,1.85,2.69,2.15,4.35L489.88,292.63z"/>
	<path style="fill-rule:evenodd;clip-rule:evenodd;fill:#DAB9BE;" d="M463.55,241.13c-0.2,0.15-0.28,0.27-0.39,0.28
		c-0.77,0.14-1.18-0.47-1.71-0.85c-0.5-0.35-0.11-0.79-0.05-1.17c0.02-0.16,0.15-0.28,0.43-0.13
		C462.63,239.71,462.35,241.02,463.55,241.13z"/>
	<path style="fill-rule:evenodd;clip-rule:evenodd;fill:#817878;" d="M460.61,244.17c-0.36-0.87-0.39-1.75-0.02-2.63
		C462.16,242.12,462.16,242.2,460.61,244.17z"/>
	<path style="fill-rule:evenodd;clip-rule:evenodd;fill:#3B8267;" d="M482.69,275.58c-0.58,0.49-1.28,0.16-1.91,0.26
		c-0.07-0.57,0.07-1.48,0.34-1.51C481.87,274.27,482.19,275.11,482.69,275.58z"/>
	<path style="fill-rule:evenodd;clip-rule:evenodd;fill:#397B74;" d="M493.97,272.71c-0.41,0.16-0.81,0.33-1.22,0.49c0,0,0,0,0,0
		c-0.07-0.07-0.14-0.15-0.19-0.24c-0.15-0.6-0.59-1.61-0.16-1.72C493.27,271.03,493.48,272.15,493.97,272.71z"/>
	<path style="fill-rule:evenodd;clip-rule:evenodd;fill:#7793C5;" d="M491.08,292.88c0.14-0.16,0.29-0.31,0.43-0.47
		c0.47,1.13,0.96,2.26,1.41,3.4c0.07,0.16,0.01,0.38,0,0.57c-0.13-0.13-0.3-0.24-0.39-0.4
		C491.97,294.98,491.32,294.02,491.08,292.88z"/>
	<path style="fill-rule:evenodd;clip-rule:evenodd;fill:#34727C;" d="M497.13,282.31c-1.69,0.44-2.3-0.09-1.96-1.71
		C495.82,281.17,496.48,281.74,497.13,282.31z"/>
	<path style="fill-rule:evenodd;clip-rule:evenodd;fill:#3D579A;" d="M497.04,284.49c0.7-0.03,1.4-0.08,1.98-0.54
		c0.33,0.54,0.45,1.32,0.05,1.6c-0.5,0.35-1-0.39-1.51-0.63c-0.09-0.06-0.17-0.12-0.26-0.19
		C497.21,284.65,497.13,284.57,497.04,284.49z"/>
	<path style="fill-rule:evenodd;clip-rule:evenodd;fill:#C68A23;" d="M477.42,268.59c-0.39,0.62-0.58,1.29-0.53,2.03
		c-0.21-1.04-0.43-2.08-0.62-3.12c-0.03-0.17,0.03-0.36,0.05-0.54c0.13,0.13,0.29,0.25,0.39,0.41
		C476.95,267.76,477.18,268.18,477.42,268.59z"/>
	<path style="fill-rule:evenodd;clip-rule:evenodd;fill:#DBDBDF;" d="M491.56,297.91c-1.28-0.8-1.65-2.22-2.31-3.44
		c-0.04-0.08,0-0.21,0.01-0.32c0.11,0.1,0.25,0.18,0.33,0.3c0.67,1.07,1.33,2.14,1.99,3.21c0.07,0.06,0.09,0.12,0.06,0.17
		C491.61,297.88,491.58,297.91,491.56,297.91z"/>
	<path style="fill-rule:evenodd;clip-rule:evenodd;fill:#354D80;" d="M499.02,281.74c-0.15,0.29,0.28,0.9-0.14,0.87
		c-0.6-0.04-0.68-0.7-0.6-1.23c0.06-0.41-0.27-1.22,0.24-1.16C499.25,280.31,498.92,281.19,499.02,281.74z"/>
	<path style="fill-rule:evenodd;clip-rule:evenodd;fill:#377B72;" d="M484.89,280.61c-0.51,0.39-1.02,0.4-1.54,0
		c0.15-0.34-0.18-1.06,0.12-1C484,279.72,484.86,279.68,484.89,280.61z"/>
	<path style="fill-rule:evenodd;clip-rule:evenodd;fill:#3D935E;" d="M478.85,275.83c-0.26,0.56-0.76,0.5-1.24,0.48
		c0-0.04,0-0.08,0.01-0.12c0.14-0.6-0.23-1.23,0.09-1.83C478.08,274.85,478.47,275.34,478.85,275.83z"/>
	<path style="fill-rule:evenodd;clip-rule:evenodd;fill:#38312E;" d="M483.91,286.87c0.24,0.27,0.33,0.77,0.05,0.79
		c-0.51,0.04-1.04-0.17-1.45-0.59c-0.38-0.39-0.65-0.74-0.04-1.14C483.02,286.13,483.32,286.72,483.91,286.87z"/>
	<path style="fill-rule:evenodd;clip-rule:evenodd;fill:#DDB823;" d="M488.92,276.8c0.24-0.08,0.48-0.16,0.72-0.24l0,0
		c0.07,0.07,0.13,0.14,0.17,0.23c0.45,0.63,1.06,1.15,1.26,1.93l0.02-0.02C490.01,278.48,489.57,277.52,488.92,276.8z"/>
	<path style="fill-rule:evenodd;clip-rule:evenodd;fill:#3F8B62;" d="M476.18,276.13c-0.72,0.14-1.35-0.02-1.9-0.52
		c0.11-0.4,0.22-0.8,0.34-1.21c0.26,0.34,0.5,0.69,0.78,1.01C475.64,275.67,475.92,275.89,476.18,276.13z"/>
	<path style="fill-rule:evenodd;clip-rule:evenodd;fill:#6E6667;" d="M463.5,243.91c-0.46,0.67-1.04,0.62-1.67,0.27
		c0,0-0.01,0-0.01,0c0.08-0.08,0.13-0.18,0.22-0.26C462.52,243.21,463,242.59,463.5,243.91z"/>
	<path style="fill-rule:evenodd;clip-rule:evenodd;fill:#615857;" d="M477.88,285.7c0.46-0.35,0.93-0.7,1.38-1.07
		c0.22-0.18,0.37-0.42,0.67-0.13c0.35,0.33,0.12,0.53-0.1,0.78c-0.56,0.63-1.32,0.23-1.97,0.4L477.88,285.7z"/>
	<path style="fill-rule:evenodd;clip-rule:evenodd;fill:#3D905E;" d="M470.67,275.36c0.09-0.34-0.24-0.79,0.19-0.99
		c0.08-0.04,0.42,0.47,0.62,0.74c0.16,0.22,0.28,0.46,0.42,0.69c-0.14,0.75-0.6,0.44-1,0.29l0.01,0c-0.06-0.1-0.15-0.18-0.24-0.25v0
		C470.55,275.69,470.54,275.52,470.67,275.36z"/>
	<path style="fill-rule:evenodd;clip-rule:evenodd;fill:#DCAB1E;" d="M475.5,270.75c-0.25,0.7-0.8,0.18-1.19,0.29
		c0-0.15-0.03-0.32,0.01-0.46c0.08-0.31-0.2-0.78,0.24-0.89c0.16-0.04,0.45,0.35,0.65,0.57C475.33,270.4,475.4,270.59,475.5,270.75z
		"/>
	<path style="fill-rule:evenodd;clip-rule:evenodd;fill:#38597F;" d="M473.32,276.08c0.57-0.09,1.02,0.17,1.45,0.49
		c-0.13,0.35,0.24,0.74-0.08,1.08c-0.24-0.25-0.48-0.49-0.71-0.75C473.75,276.64,473.54,276.35,473.32,276.08z"/>
	<path style="fill-rule:evenodd;clip-rule:evenodd;fill:#3F7477;" d="M481.98,280.62c-0.09,0.1-0.18,0.19-0.27,0.29
		c-0.54-0.4-1.08-0.78-1.6-1.19c-0.18-0.14-0.62-0.19-0.45-0.47c0.14-0.21,0.5,0.02,0.73,0.18
		C480.91,279.82,481.44,280.22,481.98,280.62z"/>
	<path style="fill-rule:evenodd;clip-rule:evenodd;fill:#DCAB1E;" d="M487.74,273.91c-0.34,0.17-0.68,0.34-1.02,0.51
		c-0.24-0.14-0.48-0.28-0.71-0.42c0.38-0.53,0.85-0.69,1.44-0.33c0.07-0.09,0.14-0.09,0.19,0.01
		C487.67,273.76,487.71,273.84,487.74,273.91z"/>
	<path style="fill-rule:evenodd;clip-rule:evenodd;fill:#3D6E7B;" d="M495.62,279.68c0.34-0.02,0.5-0.22,0.52-0.54
		c0.08,0.09,0.15,0.18,0.22,0.27c0.07,0.09,0.13,0.17,0.2,0.25c0.15,0.37,0.58,0.62,0.5,1.1
		C496.46,280.57,495.99,280.2,495.62,279.68z"/>
	<path style="fill-rule:evenodd;clip-rule:evenodd;fill:#776D6B;" d="M474.27,289.1c-0.31,0.22-0.66,0.47-1.01,0.72
		c-0.01-0.13-0.06-0.29-0.01-0.4c0.17-0.34,0.24-0.81,0.73-0.85C474.22,288.55,474.26,288.79,474.27,289.1z"/>
	<path style="fill-rule:evenodd;clip-rule:evenodd;fill:#675D5B;" d="M483.91,286.87c-0.89,0.32-1.04-0.51-1.44-0.94
		C483.2,285.85,483.65,286.21,483.91,286.87z"/>
	<path style="fill-rule:evenodd;clip-rule:evenodd;fill:#506AA1;" d="M501.3,285.19c0.06,0.1,0.29,0.4,0.39,0.72
		c0.09,0.3-0.21,0.23-0.38,0.24c-0.32,0.02-0.65,0.01-0.63-0.46C500.69,285.52,500.64,285.3,501.3,285.19z"/>
	<path style="fill-rule:evenodd;clip-rule:evenodd;fill:#938F94;" d="M474.26,286.62c-0.06,0.06-0.1,0.12-0.17,0.17
		c-0.46,0.31-0.55,1.01-1.19,1.14c0.1-0.71,0.57-1.15,1.13-1.52C474.29,286.29,474.32,286.41,474.26,286.62z"/>
	<path style="fill-rule:evenodd;clip-rule:evenodd;fill:#505B7C;" d="M504.31,323.7c-0.1,0.18,0.02,0.55-0.24,0.4
		c-0.44-0.25-0.23-0.77-0.27-1.18c-0.02-0.17,0.09-0.57,0.13-0.5C504.12,322.82,504.2,323.28,504.31,323.7z"/>
	<path style="fill-rule:evenodd;clip-rule:evenodd;fill:#405085;" d="M487.72,288.3c-0.08,0.17-0.16,0.33-0.24,0.5
		c-0.08-0.09-0.19-0.16-0.23-0.27c-0.15-0.4-0.27-0.81-0.4-1.21C487.41,287.41,487.5,287.92,487.72,288.3z"/>
	<path style="fill-rule:evenodd;clip-rule:evenodd;fill:#387071;" d="M470.9,276.1c0.35-0.05,0.75,0.07,1-0.29
		c0.17,0.24,0.34,0.48,0.51,0.73c-0.29,0.03-0.61,0-0.8,0.3C471.38,276.58,471.14,276.34,470.9,276.1z"/>
	<path style="fill-rule:evenodd;clip-rule:evenodd;fill:#BB8627;" d="M485.57,263.83c-0.08,0-0.17,0-0.25,0.01
		c-0.08-0.13-0.22-0.26-0.22-0.39c0.01-0.28-0.2-0.79,0.15-0.8c0.48-0.01,0.24,0.44,0.21,0.74
		C485.45,263.53,485.53,263.68,485.57,263.83z"/>
	<path style="fill-rule:evenodd;clip-rule:evenodd;fill:#8E8482;" d="M475.63,286.93c0.07,0.1,0.25,0.29,0.23,0.32
		c-0.18,0.24-0.38,0.49-0.63,0.66c-0.15,0.1-0.14-0.1-0.1-0.19C475.23,287.45,475.22,287.09,475.63,286.93z"/>
	<path style="fill-rule:evenodd;clip-rule:evenodd;fill:#BF8B29;" d="M463.5,266.04c-0.11,0.08-0.21,0.2-0.26,0.18
		c-0.36-0.12-0.31-0.51-0.45-0.77c-0.03-0.05-0.08-0.41,0.16-0.23C463.19,265.4,463.3,265.73,463.5,266.04z"/>
	<path style="fill-rule:evenodd;clip-rule:evenodd;fill:#4E4E4E;" d="M499.46,287.81c0.24,0.46,0.38,0.92,0.19,1.44
		c-0.13-0.48-0.26-0.96-0.38-1.44C499.33,287.72,499.39,287.72,499.46,287.81z"/>
	<path style="fill-rule:evenodd;clip-rule:evenodd;fill:#BA131B;" d="M483.61,264.58c0.24-0.01,0.48-0.02,0.72-0.02
		c0.05,0.26,0.11,0.51,0.16,0.77C484.06,265.25,483.85,264.9,483.61,264.58z"/>
	<path style="fill-rule:evenodd;clip-rule:evenodd;fill:#5B3C31;" d="M503.05,309.22c-0.06-0.01-0.12-0.01-0.17-0.02
		c-0.38-0.33-0.32-0.74-0.21-1.16C502.79,308.44,502.92,308.83,503.05,309.22z"/>
	<path style="fill-rule:evenodd;clip-rule:evenodd;fill:#666367;" d="M474.26,286.62c-0.07-0.07-0.15-0.15-0.22-0.22
		c0.26-0.28,0.54-0.53,0.97-0.47l-0.02-0.02C474.75,286.15,474.5,286.38,474.26,286.62z"/>
	<path style="fill-rule:evenodd;clip-rule:evenodd;fill:#61759B;" d="M488.24,286.98c-0.09,0.1-0.16,0.17-0.22,0.24
		c-0.1-0.12-0.24-0.22-0.28-0.35c-0.05-0.17,0.09-0.33,0.26-0.27C488.11,286.64,488.16,286.83,488.24,286.98z"/>
	<path style="fill-rule:evenodd;clip-rule:evenodd;fill:#958B89;" d="M477.39,285.91c-0.09,0.28-0.24,0.48-0.56,0.44
		c-0.02,0-0.05-0.13-0.03-0.17c0.13-0.23,0.36-0.28,0.6-0.25L477.39,285.91z"/>
	<path style="fill-rule:evenodd;clip-rule:evenodd;fill:#AF8929;" d="M488.41,260.49c-0.07,0-0.14,0-0.21,0
		c-0.25-0.19-0.25-0.45-0.21-0.72l-0.02,0.01C488.11,260.02,488.26,260.25,488.41,260.49z"/>
	<path style="fill-rule:evenodd;clip-rule:evenodd;fill:#D19320;" d="M465.38,271.05c0.34,0.13,0.51,0.36,0.46,0.74
		C465.57,271.62,465.39,271.39,465.38,271.05z"/>
	<path style="fill-rule:evenodd;clip-rule:evenodd;fill:#B2B1B4;" d="M491.56,297.91c0-0.08,0.01-0.17,0.01-0.25
		c0.18,0.17,0.52,0.22,0.46,0.57c-0.01,0.04-0.13,0.11-0.14,0.11C491.78,298.2,491.67,298.05,491.56,297.91z"/>
	<path style="fill-rule:evenodd;clip-rule:evenodd;fill:#C63530;" d="M473.08,236c-0.35-0.01-0.6-0.17-0.72-0.51
		C472.71,235.53,472.93,235.71,473.08,236z"/>
	<path style="fill-rule:evenodd;clip-rule:evenodd;fill:#D19320;" d="M467.04,270.58c0.39,0.11,0.52,0.38,0.49,0.76
		C467.37,271.08,467.21,270.83,467.04,270.58z"/>
	<path style="fill-rule:evenodd;clip-rule:evenodd;fill:#D8EAF3;" d="M462.33,250.65c0.24,0.28,0.25,0.52-0.12,0.69
		C462.25,251.11,462.29,250.88,462.33,250.65z"/>
	<path style="fill-rule:evenodd;clip-rule:evenodd;fill:#E5E5E6;" d="M499.46,287.81l-0.1,0.02l-0.1-0.02
		c0.03-0.21,0.07-0.42,0.1-0.63C499.39,287.38,499.42,287.59,499.46,287.81z"/>
	<path style="fill-rule:evenodd;clip-rule:evenodd;fill:#3A5194;" d="M497.8,286.16c-0.35,0.26-0.36-0.1-0.47-0.27
		C497.48,285.99,497.64,286.08,497.8,286.16z"/>
	<path style="fill-rule:evenodd;clip-rule:evenodd;fill:#5873AA;" d="M489.87,292.64c0.28,0.06,0.2,0.29,0.23,0.47l0.02-0.01
		c-0.08-0.16-0.16-0.31-0.24-0.47L489.87,292.64z"/>
	<path style="fill-rule:evenodd;clip-rule:evenodd;fill:#DDDDDD;" d="M484.91,286.72c0.05,0.04,0.13,0.06,0.14,0.1
		c0.02,0.06,0.01,0.16-0.02,0.2c-0.16,0.17-0.16-0.04-0.18-0.1C484.83,286.87,484.89,286.79,484.91,286.72z"/>
	<path style="fill-rule:evenodd;clip-rule:evenodd;fill:#DCAB1E;" d="M491.25,269.83c-0.05-0.16-0.11-0.31-0.17-0.47
		C491.14,269.51,491.2,269.67,491.25,269.83z"/>
	<path style="fill-rule:evenodd;clip-rule:evenodd;fill:#E1EFF6;" d="M461.04,260c-0.2-0.15-0.21-0.31,0-0.47
		C461.04,259.68,461.04,259.84,461.04,260z"/>
	<path style="fill-rule:evenodd;clip-rule:evenodd;fill:#E1EFF6;" d="M463.24,251.12c0.08-0.16,0.16-0.32,0.24-0.48
		c0.04,0.04,0.07,0.08,0.11,0.13c-0.03,0.04-0.07,0.09-0.1,0.13c0,0.08-0.01,0.16-0.05,0.23
		C463.37,251.2,463.31,251.2,463.24,251.12L463.24,251.12z"/>
	<path style="fill-rule:evenodd;clip-rule:evenodd;fill:#D69C20;" d="M480.44,273.42c-0.19-0.21-0.13-0.35,0.12-0.45
		C480.52,273.12,480.48,273.27,480.44,273.42z"/>
	<path style="fill-rule:evenodd;clip-rule:evenodd;fill:#685C2D;" d="M487.98,259.77c-0.07-0.08-0.13-0.15-0.2-0.23
		c0.03-0.02,0.06-0.05,0.09-0.07c0.03,0.1,0.07,0.21,0.1,0.31L487.98,259.77z"/>
	<path style="fill-rule:evenodd;clip-rule:evenodd;fill:#9E2A20;" d="M477.64,283.05c0.1,0.02,0.21,0.03,0.31,0.05
		c-0.03,0.04-0.05,0.08-0.08,0.12c-0.08-0.06-0.15-0.13-0.23-0.19L477.64,283.05z"/>
	<path style="fill-rule:evenodd;clip-rule:evenodd;fill:#928987;" d="M477.4,285.93c0.06-0.28,0.28-0.23,0.47-0.23l-0.02-0.02
		c-0.06,0.27-0.26,0.27-0.47,0.23C477.39,285.91,477.4,285.93,477.4,285.93z"/>
	<path style="fill-rule:evenodd;clip-rule:evenodd;fill:#762C1D;" d="M477.65,283.04c-0.11-0.03-0.21-0.06-0.32-0.08
		c0.02-0.03,0.04-0.06,0.06-0.09c0.08,0.06,0.16,0.13,0.25,0.19L477.65,283.04z"/>
	<path style="fill-rule:evenodd;clip-rule:evenodd;fill:#387071;" d="M470.67,275.36c0,0.16,0,0.32,0,0.48
		C470.45,275.69,470.47,275.52,470.67,275.36z"/>
	<path style="fill-rule:evenodd;clip-rule:evenodd;fill:#C63530;" d="M463.48,235.06c-0.13,0.2-0.28,0.23-0.46,0.05
		C463.18,235.1,463.33,235.08,463.48,235.06z"/>
	<path style="fill-rule:evenodd;clip-rule:evenodd;fill:#3F7477;" d="M482.43,280.67c-0.18,0.22-0.33,0.18-0.46-0.05
		C482.12,280.64,482.27,280.65,482.43,280.67z"/>
	<path style="fill-rule:evenodd;clip-rule:evenodd;fill:#344380;" d="M492.48,277.99c-0.2-0.15-0.2-0.3,0-0.45
		C492.48,277.68,492.48,277.83,492.48,277.99z"/>
	<path style="fill-rule:evenodd;clip-rule:evenodd;fill:#38597F;" d="M474.76,276.57c0.13-0.24,0.28-0.27,0.46-0.06
		C475.07,276.53,474.92,276.55,474.76,276.57z"/>
	<path style="fill-rule:evenodd;clip-rule:evenodd;fill:#D8EAF3;" d="M464.37,247.76c-0.15,0-0.29-0.01-0.44-0.01
		C464.08,247.51,464.23,247.44,464.37,247.76z"/>
	<path style="fill-rule:evenodd;clip-rule:evenodd;fill:#D8EAF3;" d="M464.64,248.72c-0.06-0.17-0.13-0.34-0.19-0.5
		C464.51,248.38,464.58,248.55,464.64,248.72z"/>
	<path style="fill-rule:evenodd;clip-rule:evenodd;fill:#A1802A;" d="M489.78,260.99c0.02,0.07,0.05,0.14,0.06,0.21
		c0,0.02-0.06,0.05-0.09,0.07c-0.02-0.07-0.05-0.14-0.07-0.21C489.68,261.04,489.74,261.02,489.78,260.99z"/>
	<path style="fill-rule:evenodd;clip-rule:evenodd;fill:#C63530;" d="M470.42,237.93c0.23,0.12,0.25,0.33,0.24,0.56
		C470.58,238.3,470.5,238.11,470.42,237.93z"/>
	<path style="fill-rule:evenodd;clip-rule:evenodd;fill:#D19320;" d="M465.84,271.78c0.22,0.08,0.27,0.26,0.27,0.47
		C466.02,272.09,465.93,271.94,465.84,271.78z"/>
	<path style="fill-rule:evenodd;clip-rule:evenodd;fill:#AD952F;" d="M491.08,263.85c0.24,0.08,0.26,0.26,0.24,0.47l0,0
		c-0.3-0.05-0.21-0.29-0.23-0.48L491.08,263.85z"/>
	<path style="fill-rule:evenodd;clip-rule:evenodd;fill:#4A5671;" d="M490.11,293.12c0.07,0.07,0.14,0.15,0.2,0.22
		c-0.03,0.03-0.06,0.05-0.08,0.08c-0.03-0.1-0.07-0.21-0.1-0.31L490.11,293.12z"/>
	<path style="fill-rule:evenodd;clip-rule:evenodd;fill:#D8EAF3;" d="M463.72,247.79c-0.17,0.07-0.34,0.13-0.51,0.2
		C463.33,247.81,463.5,247.73,463.72,247.79z"/>
	<path style="fill-rule:evenodd;clip-rule:evenodd;fill:#BA131B;" d="M484.27,263.82c-0.05-0.08-0.1-0.16-0.15-0.24
		C484.18,263.66,484.22,263.74,484.27,263.82z"/>
	<path style="fill-rule:evenodd;clip-rule:evenodd;fill:#6E6A6D;" d="M475.01,285.93c0.03-0.04,0.07-0.08,0.1-0.12
		c-0.01,0.02-0.01,0.06-0.02,0.07c-0.03,0.02-0.06,0.03-0.1,0.04L475.01,285.93z"/>
	<path style="fill-rule:evenodd;clip-rule:evenodd;fill:#7E7030;" d="M491.09,263.84c-0.04-0.03-0.08-0.07-0.11-0.1
		c0.02,0.01,0.05,0.01,0.07,0.02c0.02,0.03,0.03,0.06,0.04,0.09L491.09,263.84z"/>
	<path style="fill-rule:evenodd;clip-rule:evenodd;fill:#B21B1E;" d="M481.24,264.09c0.08-0.08,0.17-0.16,0.25-0.24
		C481.41,263.92,481.33,264.01,481.24,264.09z"/>
	<path style="fill-rule:evenodd;clip-rule:evenodd;fill:#D0B12C;" d="M491.32,264.32c0.06,0.03,0.11,0.06,0.17,0.09
		c-0.04,0.03-0.07,0.06-0.1,0.09C491.36,264.44,491.34,264.38,491.32,264.32L491.32,264.32z"/>
	<path style="fill-rule:evenodd;clip-rule:evenodd;fill:#DCAB1E;" d="M487.3,265.49c-0.05-0.04-0.1-0.08-0.14-0.13
		c0,0,0.04-0.05,0.07-0.08C487.29,265.34,487.31,265.41,487.3,265.49z"/>
	<path style="fill-rule:evenodd;clip-rule:evenodd;fill:#D19320;" d="M485.13,267.42c-0.1-0.06-0.19-0.12-0.29-0.18
		C484.94,267.3,485.04,267.36,485.13,267.42z"/>
	<path style="fill-rule:evenodd;clip-rule:evenodd;fill:#CE9321;" d="M481.46,268.4c-0.07-0.05-0.14-0.1-0.21-0.15
		C481.32,268.3,481.39,268.35,481.46,268.4z"/>
	<path style="fill-rule:evenodd;clip-rule:evenodd;fill:#D19320;" d="M466.32,270.34c0.09,0.04,0.18,0.08,0.26,0.12
		C466.49,270.42,466.41,270.38,466.32,270.34z"/>
	<path style="fill-rule:evenodd;clip-rule:evenodd;fill:#D19320;" d="M466.84,270.54c0.11-0.12,0.18-0.09,0.22,0.05l-0.12,0.01
		L466.84,270.54z"/>
	<path style="fill-rule:evenodd;clip-rule:evenodd;fill:#D19320;" d="M466.29,271.51c-0.05-0.09-0.1-0.18-0.15-0.27
		C466.19,271.33,466.24,271.42,466.29,271.51z"/>
	<path style="fill-rule:evenodd;clip-rule:evenodd;fill:#3A5194;" d="M495.2,287.1c-0.09-0.06-0.18-0.11-0.26-0.17
		C495.02,286.99,495.11,287.05,495.2,287.1z"/>
	<path style="fill-rule:evenodd;clip-rule:evenodd;fill:#DCAB1E;" d="M474.25,271.18c-0.06,0.11-0.13,0.22-0.19,0.34
		C474.12,271.41,474.18,271.29,474.25,271.18z"/>
	<path style="fill-rule:evenodd;clip-rule:evenodd;fill:#D19320;" d="M466.11,272.25c0.07-0.01,0.14-0.01,0.21-0.01
		c-0.03,0.07-0.05,0.13-0.08,0.2C466.19,272.38,466.15,272.31,466.11,272.25z"/>
	<path style="fill-rule:evenodd;clip-rule:evenodd;fill:#DCAB1E;" d="M474.47,272.5c0.09,0.08,0.19,0.16,0.28,0.23
		C474.66,272.65,474.57,272.58,474.47,272.5z"/>
	<path style="fill-rule:evenodd;clip-rule:evenodd;fill:#ACACAC;" d="M485.31,287.58c-0.06-0.04-0.12-0.08-0.19-0.11
		c0.21-0.17,0.15,0.03,0.17,0.12L485.31,287.58z"/>
	<path style="fill-rule:evenodd;clip-rule:evenodd;fill:#D69C20;" d="M480.53,272.99c0.07-0.09,0.14-0.18,0.21-0.27
		C480.67,272.81,480.6,272.9,480.53,272.99z"/>
	<path style="fill-rule:evenodd;clip-rule:evenodd;fill:#9B1F1E;" d="M467.53,264.33c0.09,0.07,0.18,0.14,0.28,0.21
		C467.71,264.47,467.62,264.4,467.53,264.33z"/>
	<path style="fill-rule:evenodd;clip-rule:evenodd;fill:#959495;" d="M485.56,287.86c0.08,0.07,0.15,0.15,0.23,0.22l0.01-0.01
		c-0.08-0.08-0.15-0.15-0.22-0.22L485.56,287.86z"/>
	<path style="fill-rule:evenodd;clip-rule:evenodd;fill:#C63530;" d="M472.38,235.51c-0.09-0.08-0.17-0.16-0.26-0.24
		C472.21,235.35,472.29,235.43,472.38,235.51z"/>
	<path style="fill-rule:evenodd;clip-rule:evenodd;fill:#6D6C6C;" d="M485.79,288.08c0.04,0.03,0.08,0.07,0.12,0.1
		c-0.02-0.01-0.06-0.01-0.07-0.02c-0.02-0.03-0.03-0.06-0.04-0.1L485.79,288.08z"/>
	<path style="fill-rule:evenodd;clip-rule:evenodd;fill:#374886;" d="M492.57,272.97c0.06,0.08,0.13,0.16,0.19,0.24
		C492.7,273.13,492.63,273.05,492.57,272.97z"/>
	<path style="fill-rule:evenodd;clip-rule:evenodd;fill:#C5E0ED;" d="M476.24,239.6c0.06,0.09,0.13,0.17,0.19,0.26
		C476.37,239.78,476.3,239.69,476.24,239.6z"/>
	<path style="fill-rule:evenodd;clip-rule:evenodd;fill:#D29221;" d="M487.64,273.69c-0.06,0-0.13,0-0.19-0.01
		c0.01-0.07,0.02-0.15,0.03-0.22C487.53,273.53,487.59,273.61,487.64,273.69z"/>
	<path style="fill-rule:evenodd;clip-rule:evenodd;fill:#C5E0ED;" d="M476.5,240.08c0.06,0.08,0.12,0.16,0.17,0.25
		C476.62,240.25,476.56,240.17,476.5,240.08z"/>
	<path style="fill-rule:evenodd;clip-rule:evenodd;fill:#C5E0ED;" d="M476.78,240.57c0.05,0.07,0.1,0.14,0.15,0.2
		C476.88,240.71,476.83,240.64,476.78,240.57z"/>
	<path style="fill-rule:evenodd;clip-rule:evenodd;fill:#C5E0ED;" d="M476.94,240.79c0.07,0.09,0.14,0.19,0.21,0.28
		C477.08,240.98,477.01,240.89,476.94,240.79z"/>
	<path style="fill-rule:evenodd;clip-rule:evenodd;fill:#B6AEAE;" d="M460.12,241.28c-0.09,0-0.18-0.01-0.27-0.01
		C459.95,241.07,460.04,241.06,460.12,241.28z"/>
	<path style="fill-rule:evenodd;clip-rule:evenodd;fill:#403B3A;" d="M462.04,243.92c-0.07,0.09-0.15,0.17-0.22,0.26
		C461.89,244.09,461.96,244,462.04,243.92z"/>
	<path style="fill-rule:evenodd;clip-rule:evenodd;fill:#9B1F1E;" d="M467.32,246.33c-0.06,0.07-0.13,0.15-0.19,0.22
		C467.2,246.48,467.26,246.4,467.32,246.33z"/>
	<path style="fill-rule:evenodd;clip-rule:evenodd;fill:#959495;" d="M489.11,293.72c-0.02,0.03-0.05,0.05-0.07,0.08
		c-0.02-0.03-0.06-0.05-0.06-0.08c0-0.03,0.04-0.05,0.07-0.07C489.07,293.68,489.09,293.7,489.11,293.72z"/>
	<path style="fill-rule:evenodd;clip-rule:evenodd;fill:#DCAB1E;" d="M485.79,274.64c-0.07-0.1-0.14-0.19-0.21-0.29
		C485.65,274.45,485.72,274.54,485.79,274.64z"/>
	<path style="fill-rule:evenodd;clip-rule:evenodd;fill:#344380;" d="M493.24,275.12c-0.08-0.08-0.15-0.16-0.23-0.24
		C493.08,274.96,493.16,275.04,493.24,275.12z"/>
	<path style="fill-rule:evenodd;clip-rule:evenodd;fill:#D8EAF3;" d="M464.44,249.19c0.05-0.07,0.1-0.14,0.15-0.21
		C464.54,249.04,464.49,249.12,464.44,249.19z"/>
	<path style="fill-rule:evenodd;clip-rule:evenodd;fill:#D8EAF3;" d="M463.97,249.94c0.06-0.09,0.12-0.17,0.18-0.26
		C464.09,249.77,464.03,249.86,463.97,249.94z"/>
	<path style="fill-rule:evenodd;clip-rule:evenodd;fill:#387071;" d="M470.67,275.85c0.08,0.08,0.16,0.17,0.24,0.25
		C470.83,276.01,470.75,275.93,470.67,275.85z"/>
	<path style="fill-rule:evenodd;clip-rule:evenodd;fill:#D8EAF3;" d="M463.72,250.41c0.06-0.08,0.11-0.16,0.17-0.24
		C463.84,250.25,463.78,250.33,463.72,250.41z"/>
	<path style="fill-rule:evenodd;clip-rule:evenodd;fill:#7B90BB;" d="M496.11,299.37c0.06,0.02,0.13,0.04,0.19,0.07
		c-0.18,0.2-0.13-0.03-0.17-0.09L496.11,299.37z"/>
	<path style="fill-rule:evenodd;clip-rule:evenodd;fill:#E1EFF6;" d="M463.48,250.64c0.08-0.08,0.16-0.16,0.24-0.24
		c-0.02,0.08-0.04,0.16-0.06,0.24C463.6,250.72,463.54,250.72,463.48,250.64L463.48,250.64z"/>
	<path style="fill-rule:evenodd;clip-rule:evenodd;fill:#D8EAF3;" d="M463.48,250.64c0.06,0,0.12,0,0.18,0
		c-0.06,0.08-0.12,0.17-0.18,0.25C463.48,250.81,463.48,250.73,463.48,250.64z"/>
	<path style="fill-rule:evenodd;clip-rule:evenodd;fill:#D8EAF3;" d="M463.24,251.12c0.07,0,0.13,0,0.2,0
		c-0.06,0.09-0.12,0.19-0.18,0.28C463.25,251.31,463.25,251.21,463.24,251.12z"/>
	<path style="fill-rule:evenodd;clip-rule:evenodd;fill:#A31D1D;" d="M499.49,303.67c-0.08-0.08-0.17-0.15-0.25-0.22
		C499.32,303.52,499.41,303.6,499.49,303.67z"/>
	<path style="fill-rule:evenodd;clip-rule:evenodd;fill:#A31D1D;" d="M495.94,306.08c0.06,0.08,0.11,0.16,0.17,0.24
		C496.06,306.25,496,306.16,495.94,306.08z"/>
	<path style="fill-rule:evenodd;clip-rule:evenodd;fill:#D8EAF3;" d="M463.01,252.09c0.06-0.08,0.12-0.17,0.17-0.25
		C463.12,251.93,463.06,252.01,463.01,252.09z"/>
	<path style="fill-rule:evenodd;clip-rule:evenodd;fill:#D29221;" d="M489.82,276.79c-0.06-0.08-0.12-0.15-0.17-0.23
		C489.7,276.64,489.76,276.71,489.82,276.79z"/>
	<path style="fill-rule:evenodd;clip-rule:evenodd;fill:#A31D1D;" d="M500.74,316.63c0.08,0.01,0.16,0.02,0.23,0.04
		C500.87,316.78,500.78,316.85,500.74,316.63z"/>
	<path style="fill-rule:evenodd;clip-rule:evenodd;fill:#6D6C6C;" d="M485.57,287.84c-0.09-0.09-0.17-0.17-0.26-0.26l-0.01,0.01
		c0.09,0.09,0.17,0.18,0.26,0.26L485.57,287.84z"/>
	<path style="fill-rule:evenodd;clip-rule:evenodd;fill:#D8EAF3;" d="M462.76,252.81c0.06-0.08,0.12-0.16,0.17-0.25
		C462.88,252.65,462.82,252.73,462.76,252.81z"/>
	<path style="fill-rule:evenodd;clip-rule:evenodd;fill:#3F5698;" d="M502.12,319.04c-0.06-0.09-0.12-0.18-0.19-0.26
		C502,318.86,502.06,318.95,502.12,319.04z"/>
	<path style="fill-rule:evenodd;clip-rule:evenodd;fill:#D8EAF3;" d="M462.54,253.58c0.06-0.1,0.11-0.2,0.17-0.29
		C462.66,253.38,462.6,253.48,462.54,253.58z"/>
	<path style="fill-rule:evenodd;clip-rule:evenodd;fill:#DDB823;" d="M491.07,278.72c0.06,0.03,0.11,0.06,0.17,0.09
		c-0.04,0.02-0.08,0.04-0.13,0.06c-0.01-0.06-0.01-0.12-0.02-0.17L491.07,278.72z"/>
	<path style="fill-rule:evenodd;clip-rule:evenodd;fill:#5578B6;" d="M500.02,321.21c0.05,0.08,0.11,0.16,0.16,0.24
		C500.13,321.38,500.08,321.29,500.02,321.21z"/>
	<path style="fill-rule:evenodd;clip-rule:evenodd;fill:#55637F;" d="M485.34,279.18c0.03,0.05,0.07,0.09,0.1,0.14
		c-0.05-0.03-0.09-0.06-0.14-0.1L485.34,279.18z"/>
	<path style="fill-rule:evenodd;clip-rule:evenodd;fill:#344380;" d="M496.57,279.67c-0.07-0.08-0.13-0.17-0.2-0.25
		C496.44,279.5,496.5,279.58,496.57,279.67z"/>
	<path style="fill-rule:evenodd;clip-rule:evenodd;fill:#C5E0ED;" d="M488.03,257.13c0.06,0.08,0.11,0.15,0.17,0.23
		C488.14,257.28,488.09,257.2,488.03,257.13z"/>
	<path style="fill-rule:evenodd;clip-rule:evenodd;fill:#C5E0ED;" d="M488.2,257.36c0.07,0.09,0.15,0.19,0.22,0.28
		C488.35,257.55,488.28,257.45,488.2,257.36z"/>
	<path style="fill-rule:evenodd;clip-rule:evenodd;fill:#D69C20;" d="M477.86,272.97c0.08,0.09,0.17,0.19,0.25,0.28
		C478.02,273.15,477.94,273.06,477.86,272.97z"/>
	<path style="fill-rule:evenodd;clip-rule:evenodd;fill:#402919;" d="M500.42,325.05c-0.06-0.08-0.13-0.17-0.19-0.25
		C500.3,324.89,500.36,324.97,500.42,325.05z"/>
	<path style="fill-rule:evenodd;clip-rule:evenodd;fill:#C5E0ED;" d="M488.5,257.85c0.06,0.08,0.12,0.16,0.17,0.24
		C488.62,258,488.56,257.93,488.5,257.85z"/>
	<path style="fill-rule:evenodd;clip-rule:evenodd;fill:#E1EFF6;" d="M461.33,258.35c0.06-0.09,0.11-0.17,0.17-0.26
		C461.44,258.17,461.39,258.26,461.33,258.35z"/>
	<path style="fill-rule:evenodd;clip-rule:evenodd;fill:#C5E0ED;" d="M488.96,258.56c0.06,0.08,0.13,0.17,0.19,0.26
		C489.09,258.73,489.03,258.65,488.96,258.56z"/>
	<path style="fill-rule:evenodd;clip-rule:evenodd;fill:#E1EFF6;" d="M461.12,259.16c0.05-0.12,0.1-0.24,0.16-0.35
		C461.22,258.92,461.17,259.04,461.12,259.16z"/>
	<polygon style="fill-rule:evenodd;clip-rule:evenodd;fill:#A6842D;" points="489.57,260.61 489.49,260.64 489.5,260.56 	"/>
	<path style="fill-rule:evenodd;clip-rule:evenodd;fill:#6C6B6B;" d="M477.86,284.26c0.04-0.04,0.08-0.08,0.12-0.12
		c-0.01,0.02-0.01,0.06-0.02,0.07C477.93,284.24,477.89,284.25,477.86,284.26L477.86,284.26z"/>
	<path style="fill-rule:evenodd;clip-rule:evenodd;fill:#E1EFF6;" d="M461.51,261.19c-0.06-0.1-0.11-0.19-0.17-0.29
		C461.39,261,461.45,261.1,461.51,261.19z"/>
	<path style="fill-rule:evenodd;clip-rule:evenodd;fill:#345183;" d="M497.3,284.73c0.09,0.06,0.17,0.13,0.26,0.19
		C497.47,284.86,497.39,284.79,497.3,284.73z"/>
	<path style="fill-rule:evenodd;clip-rule:evenodd;fill:#CBC6CC;" d="M497.79,317.39c0.06,0.01,0.13,0.03,0.19,0.04
		c-0.03,0.04-0.05,0.08-0.08,0.12c-0.03-0.06-0.06-0.12-0.09-0.18L497.79,317.39z"/>
	<path style="fill-rule:evenodd;clip-rule:evenodd;fill:#D8EAF3;" d="M453.64,263.36c-0.08,0.08-0.16,0.16-0.24,0.24
		C453.48,263.52,453.56,263.44,453.64,263.36z"/>
	<path style="fill-rule:evenodd;clip-rule:evenodd;fill:#D8EAF3;" d="M453.16,264.08c-0.08,0.08-0.16,0.16-0.24,0.24
		C453,264.24,453.08,264.16,453.16,264.08z"/>
	<path style="fill-rule:evenodd;clip-rule:evenodd;fill:#D8EAF3;" d="M452.92,264.56c-0.08,0.08-0.16,0.16-0.24,0.24
		C452.76,264.72,452.84,264.64,452.92,264.56z"/>
	<path style="fill-rule:evenodd;clip-rule:evenodd;fill:#D8EAF3;" d="M460.84,251.84c-0.08,0.08-0.16,0.16-0.24,0.24
		C460.68,252,460.76,251.92,460.84,251.84z"/>
	<path style="fill-rule:evenodd;clip-rule:evenodd;fill:#D8EAF3;" d="M460.6,252.32c-0.08,0.08-0.16,0.16-0.24,0.24
		C460.44,252.48,460.52,252.4,460.6,252.32z"/>
	<path style="fill-rule:evenodd;clip-rule:evenodd;fill:#D8EAF3;" d="M459.16,254.96c-0.08,0.08-0.16,0.16-0.24,0.24
		C459,255.12,459.08,255.04,459.16,254.96z"/>
	<path style="fill-rule:evenodd;clip-rule:evenodd;fill:#D8EAF3;" d="M458.44,256.16c-0.08,0.08-0.16,0.16-0.24,0.24
		C458.28,256.32,458.36,256.24,458.44,256.16z"/>
	<path style="fill-rule:evenodd;clip-rule:evenodd;fill:#D8EAF3;" d="M457.96,256.88c-0.08,0.08-0.16,0.16-0.24,0.24
		C457.8,257.04,457.88,256.96,457.96,256.88z"/>
	<path style="fill-rule:evenodd;clip-rule:evenodd;fill:#D8EAF3;" d="M457.48,257.6c-0.08,0.08-0.16,0.16-0.24,0.24
		C457.32,257.76,457.4,257.68,457.48,257.6z"/>
	<path style="fill-rule:evenodd;clip-rule:evenodd;fill:#D8EAF3;" d="M457,258.32c-0.08,0.08-0.16,0.16-0.24,0.24
		C456.84,258.48,456.92,258.4,457,258.32z"/>
	<path style="fill-rule:evenodd;clip-rule:evenodd;fill:#D8EAF3;" d="M456.52,259.04c-0.08,0.08-0.16,0.16-0.24,0.24
		C456.36,259.2,456.44,259.12,456.52,259.04z"/>
	<path style="fill-rule:evenodd;clip-rule:evenodd;fill:#D8EAF3;" d="M456.04,259.76c-0.08,0.08-0.16,0.16-0.24,0.24
		C455.88,259.92,455.96,259.84,456.04,259.76z"/>
	<path style="fill-rule:evenodd;clip-rule:evenodd;fill:#D8EAF3;" d="M455.56,260.48c-0.08,0.08-0.16,0.16-0.24,0.24
		C455.4,260.64,455.48,260.56,455.56,260.48z"/>
	<path style="fill-rule:evenodd;clip-rule:evenodd;fill:#D8EAF3;" d="M455.32,260.72c-0.08,0.08-0.16,0.16-0.24,0.24
		C455.16,260.88,455.24,260.8,455.32,260.72z"/>
	<path style="fill-rule:evenodd;clip-rule:evenodd;fill:#D8EAF3;" d="M454.6,261.92c-0.08,0.08-0.16,0.16-0.24,0.24
		C454.44,262.08,454.52,262,454.6,261.92z"/>
	<path style="fill-rule:evenodd;clip-rule:evenodd;fill:#79614E;" d="M491.57,328.16c1.03,0.79,2.02,1.62,2.88,2.61
		c-0.25,0-0.49,0-0.74,0c-0.76-0.83-2.42-0.91-2.15-2.59L491.57,328.16z"/>
	<path style="fill-rule:evenodd;clip-rule:evenodd;fill:#484948;" d="M490.1,328.61c-0.22,0.39-0.6,0.23-0.93,0.29
		c-0.62,0.46-0.21,1.47-0.97,1.86c-0.24,0-0.48,0-0.72,0c-0.52-0.72-0.49-1.45-0.06-2.19C488.32,328.11,489.22,328.14,490.1,328.61z
		"/>
	<path style="fill-rule:evenodd;clip-rule:evenodd;fill:#373737;" d="M488.2,330.76c0-0.45,0.56-0.75,0.17-1.38
		c-0.26-0.42,0.42-0.47,0.81-0.48c-0.09,0.89,0.52,0.91,1.14,0.99c0.25,0.03,0.67,0.12,0.58,0.45c-0.08,0.28-0.42-0.05-0.62,0.01
		c-0.45,0.14-1.14-0.46-1.36,0.41C488.68,330.76,488.44,330.76,488.2,330.76z"/>
	<path style="fill-rule:evenodd;clip-rule:evenodd;fill:#9B9D9E;" d="M486.06,330.74c-0.17,0.01-0.33,0.02-0.49,0.03
		c-0.95-0.59-0.97-1.4-0.59-2.33c0.45-0.24,1.01-0.37,1.23,0.16C486.5,329.29,487,330.1,486.06,330.74z"/>
	<path style="fill-rule:evenodd;clip-rule:evenodd;fill:#727373;" d="M486.06,330.74c0.39-1.46,0.04-2.24-1.02-2.29
		c-0.1,0.03-0.18,0-0.23-0.09c0.62-0.34,1.29-0.16,1.94-0.18c0.6,0.68,0.27,1.56,0.49,2.32c0.04,0.15-0.3,0.17-0.47,0.26
		C486.54,330.75,486.3,330.75,486.06,330.74z"/>
	<path style="fill-rule:evenodd;clip-rule:evenodd;fill:#5B5B5B;" d="M486.77,330.76c0.46-0.86-0.27-1.72-0.02-2.58
		c0.48-0.09,0.96-0.17,1.45-0.26c0.12,0.6-0.5,0.45-0.71,0.7c0,0.71,0,1.42,0,2.14C487.25,330.76,487.01,330.76,486.77,330.76z"/>
	<path style="fill-rule:evenodd;clip-rule:evenodd;fill:#BEC2C5;" d="M484.81,328.36c0.08,0.03,0.15,0.06,0.23,0.09
		c0.04,0.8-0.01,1.63,0.52,2.32c-0.39,0-0.78,0-1.18,0c0.49-0.86-0.17-1.58-0.28-2.36C484.35,328.39,484.58,328.38,484.81,328.36z"
		/>
	<path style="fill-rule:evenodd;clip-rule:evenodd;fill:#E0EEF6;" d="M477.18,296.19c0.06,0.1,0.13,0.19,0.19,0.29
		C477.31,296.38,477.24,296.28,477.18,296.19z"/>
	<path style="fill-rule:evenodd;clip-rule:evenodd;fill:#E0EEF6;" d="M477.66,296.91c0.06,0.1,0.13,0.19,0.19,0.29
		C477.78,297.1,477.72,297.01,477.66,296.91z"/>
	<path style="fill-rule:evenodd;clip-rule:evenodd;fill:#D8EAF3;" d="M482.93,326.26c0.53-1.67,1.79-2.96,2.21-4.73
		c0.89-3.72,0.28-7.19-1.24-10.59c-1.43-3.2-3.5-6.11-4.35-9.57c-0.15-0.61-0.5-1.21,0.05-1.79c1.27,1.3,2.41,2.73,3.8,3.92
		c0.29,0.25,0.23,0.87,0.38,1.3c1.02,2.99,2.14,5.95,3.04,8.98c0.7,2.38,0.62,4.93,1.38,7.32c0.77,2.42,0.74,2.37-1.68,3.34
		C485.27,324.94,484.12,325.65,482.93,326.26z"/>
	<path style="fill-rule:evenodd;clip-rule:evenodd;fill:#9A7E65;" d="M487.49,326.96c-0.95,0.4-1.93,0.68-2.96,0.75
		c-0.14,0.01-0.28,0.03-0.42,0.04c0.1-0.11,0.21-0.23,0.31-0.34c0.66-0.7,2.2-0.69,1.78-2.24c0.27-0.04,0.53-0.08,0.8-0.13
		C487.97,325.82,488.06,326.15,487.49,326.96z"/>
	<path style="fill-rule:evenodd;clip-rule:evenodd;fill:#765845;" d="M490.84,327.19c-0.63-0.31-1.25-0.63-1.88-0.94
		c-1.01-0.08-1.19-0.33-1.02-1.47l0,0.01c0.15-0.12,0.38-0.09,0.5-0.27c0.53-0.5,0.88-0.48,1.18,0.26c0.34,0.83,0.8,1.62,1.21,2.42
		L490.84,327.19z"/>
	<path style="fill-rule:evenodd;clip-rule:evenodd;fill:#8A6B53;" d="M487.94,324.78c0.21,0.58,0.24,1.29,1.02,1.47
		c-0.42,0.38-0.91,0.63-1.48,0.71c0.43-0.79-0.31-1.28-0.49-1.92C487.32,324.95,487.63,324.86,487.94,324.78z"/>
	<path style="fill-rule:evenodd;clip-rule:evenodd;fill:#F3F3F3;" d="M487.49,328.62c0.04-0.43,0.52-0.43,0.71-0.7
		c0.87-0.4,1.46-0.06,1.91,0.69C489.23,328.62,488.36,328.62,487.49,328.62z"/>
	<path style="fill-rule:evenodd;clip-rule:evenodd;fill:#8A6B53;" d="M488.44,324.51c-0.09,0.23-0.28,0.28-0.5,0.27
		C488.11,324.7,488.27,324.61,488.44,324.51z"/>
	<path style="fill-rule:evenodd;clip-rule:evenodd;fill:#765845;" d="M491.08,327.45c0.08,0.16,0.16,0.32,0.24,0.48l0,0
		c-0.24-0.08-0.24-0.28-0.23-0.48L491.08,327.45z"/>
	<path style="fill-rule:evenodd;clip-rule:evenodd;fill:#D8EAF3;" d="M482.69,326.49c0.09-0.08,0.17-0.16,0.26-0.24
		C482.86,326.33,482.77,326.41,482.69,326.49z"/>
	<path style="fill-rule:evenodd;clip-rule:evenodd;fill:#D8EAF3;" d="M482.44,326.73c0.08-0.08,0.17-0.16,0.25-0.24
		C482.61,326.57,482.53,326.65,482.44,326.73z"/>
	<path style="fill-rule:evenodd;clip-rule:evenodd;fill:#D8EAF3;" d="M482.2,326.97c0.08-0.08,0.16-0.16,0.25-0.25
		C482.37,326.81,482.29,326.89,482.2,326.97z"/>
	<path style="fill-rule:evenodd;clip-rule:evenodd;fill:#D8EAF3;" d="M481.96,327.21c0.08-0.08,0.16-0.16,0.25-0.25
		C482.13,327.05,482.05,327.13,481.96,327.21z"/>
	<path style="fill-rule:evenodd;clip-rule:evenodd;fill:#765845;" d="M490.83,327.2c0.08,0.08,0.16,0.16,0.24,0.24l0.01-0.01
		c-0.08-0.08-0.16-0.16-0.24-0.24L490.83,327.2z"/>
	<path style="fill-rule:evenodd;clip-rule:evenodd;fill:#887363;" d="M491.56,328.17c-0.08-0.08-0.16-0.17-0.24-0.25l0,0
		c0.08,0.08,0.17,0.16,0.25,0.24L491.56,328.17z"/>
	<path style="fill-rule:evenodd;clip-rule:evenodd;fill:#AB1C1D;" d="M469.73,252.09c-0.69-1.2-0.54-2.55-0.73-3.84
		c0.88-0.32,3.46,0.13,4.08,0.71c-0.83,0.6-0.83,1.59-1.05,2.44c-0.21,0.85,0.57,0.61,1.03,0.67c0.08,0.42-0.23,0.48-0.5,0.46
		c-0.75-0.05-1.45,0.42-2.21,0.21c-0.18-0.07-0.32-0.19-0.43-0.34C469.86,252.3,469.8,252.19,469.73,252.09z"/>
	<path style="fill-rule:evenodd;clip-rule:evenodd;fill:#6D2826;" d="M473.08,248.96c-1.3-0.6-2.74-0.37-4.08-0.71
		c-0.14-0.5-1.33,1.04-0.96-0.48c1.72-0.29,3.32,0.61,5.02,0.5C473.07,248.5,473.07,248.73,473.08,248.96z"/>
	<path style="fill-rule:evenodd;clip-rule:evenodd;fill:#632725;" d="M470.2,252.32c1.01,0.55,1.92-0.04,2.86-0.25
		c0.32-0.11,0.63-0.69,0.96-0.02c-0.31,0.26-0.63,0.51-0.94,0.77c-0.73-0.05-1.46-0.04-2.16,0.23c-0.61-0.07-1.43,0.13-1.2-0.97
		c0.07,0,0.14,0,0.21,0C470.04,252.16,470.12,252.24,470.2,252.32z"/>
	<path style="fill-rule:evenodd;clip-rule:evenodd;fill:#7F2624;" d="M477.39,259.29c-0.61-0.01-1.19-0.05-1.12-0.51
		c0.13-0.81,0.54-0.03,0.84-0.03c0.75,0.01,1.15-0.86,1.92-0.79c0.14,0.01,0.28,0.04,0.43,0.06c-0.06,0.14-0.1,0.34-0.2,0.39
		C478.59,258.75,477.9,259.06,477.39,259.29z"/>
	<path style="fill-rule:evenodd;clip-rule:evenodd;fill:#5A2926;" d="M468.77,257.36c-0.16,0.09-0.32,0.18-0.48,0.27
		c-0.7,0.06-1.34-0.41-2.1-0.16c-0.44,0.15-0.77-0.36-0.95-0.75c-0.13-0.27-0.08-0.61,0.35-0.31c0.14,0.1,0.24,0.49,0.28,0.48
		c0.83-0.25,1.61-0.02,2.39,0.23C468.44,257.19,468.6,257.29,468.77,257.36z"/>
	<path style="fill-rule:evenodd;clip-rule:evenodd;fill:#222221;" d="M480.77,247.53c-0.08-0.09-0.17-0.19-0.25-0.28
		C480.6,247.35,480.69,247.44,480.77,247.53z"/>
	<path style="fill-rule:evenodd;clip-rule:evenodd;fill:#476BAD;" d="M499.48,297.44c-1.57-2.16-3.67-3.98-4.33-6.73
		c-0.05-0.19-0.21-0.38-0.19-0.56c0.15-1.54-0.91-1.85-2.06-2.04c-0.38-0.07-0.79-0.01-1.1-0.33c-0.01-0.01,0-0.09,0.02-0.1
		c0.07-0.04,0.15-0.06,0.22-0.08c0.67,0.09,1.33,0.17,2,0.26c0.57,0.08,1.01,0.39,1.08,0.96c0.35,3.05,2.07,5.35,4.08,7.49
		c0.25,0.26,0.53,0.5,0.53,0.9C499.64,297.28,499.56,297.36,499.48,297.44z"/>
	<path style="fill-rule:evenodd;clip-rule:evenodd;fill:#9B1F1E;" d="M470.2,252.32c-0.08-0.08-0.17-0.16-0.25-0.24
		C470.03,252.17,470.11,252.24,470.2,252.32z"/>
</g>
</svg>
