<?xml version="1.0" encoding="utf-8"?>
<!-- Generator: Adobe Illustrator 16.0.0, SVG Export Plug-In . SVG Version: 6.00 Build 0)  -->
<!DOCTYPE svg PUBLIC "-//W3C//DTD SVG 1.0//EN" "http://www.w3.org/TR/2001/REC-SVG-20010904/DTD/svg10.dtd" [
	<!ENTITY ns_flows "http://ns.adobe.com/Flows/1.0/">
	<!ENTITY ns_extend "http://ns.adobe.com/Extensibility/1.0/">
	<!ENTITY ns_ai "http://ns.adobe.com/AdobeIllustrator/10.0/">
	<!ENTITY ns_graphs "http://ns.adobe.com/Graphs/1.0/">
]>
<svg version="1.0" id="blanket_xA0_Image_1_" xmlns:x="&ns_extend;" xmlns:i="&ns_ai;" xmlns:graph="&ns_graphs;"
	 xmlns="http://www.w3.org/2000/svg" xmlns:xlink="http://www.w3.org/1999/xlink" xmlns:a="http://ns.adobe.com/AdobeSVGViewerExtensions/3.0/"
	 x="0px" y="0px" width="112.08px" height="83.28px" viewBox="0 0 112.08 83.28" style="enable-background:new 0 0 112.08 83.28;"
	 xml:space="preserve">
<g>
	<path style="fill-rule:evenodd;clip-rule:evenodd;fill:#202522;" d="M82.13,27.81c2.28,2.42,5.2,4.01,7.76,6.05
		c2.44,1.94,5.03,3.78,6.55,6.68c1.05,2,0.73,4.2,1.15,6.28c0.43,2.12,0.11,4.17-0.42,6.21c-0.13,0.07-0.24,0.05-0.33-0.06
		c-0.29-0.48-0.28-1.02-0.18-1.52c0.6-2.9-0.27-5.72-0.43-8.57c-0.1-1.72-1.01-3.22-2.28-4.37c-2.3-2.09-4.5-4.31-7.28-5.8
		c-0.86-0.91-1.88-1.62-2.93-2.28c-0.32-0.23-0.6-0.5-0.93-0.72c-0.48-0.49-1.04-0.93-1.08-1.7C81.81,27.84,81.92,27.71,82.13,27.81
		z"/>
	<path style="fill-rule:evenodd;clip-rule:evenodd;fill:#292C28;" d="M16.35,36.96c-2.11-3.26-2.13-6.79-1.31-10.41
		c0.14-0.62,0.34-1.17,0.15-1.85c-0.26-0.94,0.44-1.44,1.15-1.86c1.86-1.12,3.96-1.58,5.99-2.24c0.06-0.01,0.12-0.02,0.17-0.04
		c0.04,0.04,0.08,0.08,0.13,0.12c0.02,0.12,0.01,0.23-0.05,0.33c-0.52,0.54-1.23,0.71-1.91,0.9c-1.15,0.33-2.26,0.76-3.32,1.32
		c-1.29,0.68-1.38,0.93-0.82,2.24c0.13,0.29,0.3,0.56,0.41,0.86c0.09,0.24,0.11,0.49,0.19,0.73c0.04,0.08,0.08,0.17,0.13,0.26
		c0.05,0.08,0.1,0.16,0.15,0.25c0.05,0.08,0.08,0.17,0.12,0.26c0.09,0.26,0.18,0.53,0.34,0.77c0.08,0.12,0.16,0.23,0.23,0.35
		c0.05,0.08,0.1,0.16,0.14,0.25c0.07,0.13,0.14,0.26,0.21,0.39c0.05,0.09,0.1,0.18,0.15,0.27c0.19,0.37,0.44,0.7,0.6,1.09
		c0.05,0.09,0.08,0.19,0.12,0.29c0.05,0.1,0.08,0.19,0.12,0.29c0.09,0.26,0.2,0.51,0.09,0.79c-0.11,0.16-0.25,0.2-0.43,0.13
		c-0.88-0.96-1.33-2.19-2.03-3.27c-0.27-0.43-0.5-0.88-0.75-1.32c-0.16-0.21-0.16-0.62-0.48-0.59c-0.25,0.03-0.18,0.4-0.22,0.62
		c-0.29,1.42-0.22,2.85-0.07,4.28c0.19,1.09,0.48,2.15,0.89,3.17c0.2,0.5,0.49,1,0.22,1.58C16.57,37,16.47,37.02,16.35,36.96z"/>
	<path style="fill-rule:evenodd;clip-rule:evenodd;fill:#1F2622;" d="M87.83,63.56c-2.16,0.61-4.4,0.44-6.6,0.66
		c-6.1,0.6-12.21,1.2-18.31,1.8c-0.61,0.05-1.26,0.42-1.75-0.27c0.46-0.46,1.08-0.47,1.67-0.57c5-0.85,10.07-1,15.09-1.53
		c3.01-0.32,6.03-0.52,9.06-0.65C87.33,63.1,87.77,63.04,87.83,63.56z"/>
	<path style="fill-rule:evenodd;clip-rule:evenodd;fill:#212823;" d="M35.99,68.85c-0.49,0.29-1.12,0.53-1.55,0.21
		c-0.43-0.31-0.17-0.97-0.09-1.46c0.15-0.81,0.49-1.6,0.54-2.41c0.09-1.37-0.96-2.17-1.77-3.07c-0.03-0.23,0.11-0.3,0.3-0.33
		c0.04,0,0.08,0,0.11,0.02c0.94,0.5,0.94,0.5,1.06-0.48c-0.24-2.34,0.12-4.83-1.76-6.74c-0.36-0.3-0.57-0.7-0.79-1.1
		c-0.05-0.1-0.1-0.2-0.15-0.3c-0.08-0.15-0.15-0.3-0.22-0.45c-0.14-0.31-0.27-0.62-0.16-0.97c0.08-0.16,0.21-0.26,0.4-0.24
		c0.87,0.89,1.52,1.96,2.31,2.91c0.29,0.04,0.65-0.12,0.85,0.27c0.56,1.41,0.34,2.92,0.49,4.37c0.27,2.63,0.41,5.3-0.18,7.93
		c-0.11,0.51-0.25,1.03,0.34,1.37C35.9,68.5,36.03,68.63,35.99,68.85z"/>
	<path style="fill-rule:evenodd;clip-rule:evenodd;fill:#262E2B;" d="M60.96,17.56c1.12,0,2.24,0.54,3.37,0.02
		c0.37,0.26,0.94-0.28,1.24,0.3c-1.09,0.69-2.33,0.83-3.58,0.96c-4.43,0.46-8.89,0.59-13.3,1.26c-2.04,0.31-4.02,0.95-6.08,1.21
		c-0.33-0.05-0.65-0.14-0.88-0.41c0.06-0.62,0.6-0.54,0.99-0.63c2.24-0.5,4.44-1.17,6.71-1.54c0.19-0.05,0.39-0.08,0.58-0.09
		c0.66-0.03,1.33,0.04,1.98-0.2c2.34-0.01,4.67-0.17,6.97-0.53c0.41-0.02,0.84,0.04,1.25-0.07C60.45,17.75,60.75,17.77,60.96,17.56z
		"/>
	<path style="fill-rule:evenodd;clip-rule:evenodd;fill:#222925;" d="M65.55,17.77c-0.41-0.08-0.86,0.12-1.22-0.2
		c1.35-0.42,2.74-0.4,4.13-0.39c0.57,0.01,1.03,0.19,1.38,0.59c1.84,2.13,4.4,3.23,6.66,4.75c1.4,0.94,2.41,2.29,3.68,3.36
		c0.09,0.22-0.05,0.32-0.22,0.38C79.1,26.17,78.52,25.57,78,25c-1.37-1.5-3.07-2.53-4.79-3.54c-1.24-0.73-2.47-1.49-3.42-2.59
		c-0.55-0.63-1.24-0.79-2.02-0.87C67.03,17.92,66.25,18.23,65.55,17.77z"/>
	<path style="fill-rule:evenodd;clip-rule:evenodd;fill:#232925;" d="M87.83,63.56c-0.25-0.07-0.5-0.14-0.74-0.21
		c0.13-0.63,0.69-0.59,1.12-0.68c1.6-0.32,3.2-0.63,4.8-0.94c1.62-0.31,2.61-1.28,2.88-2.92c0.25-1.49,0.42-2.99,0.5-4.5
		c0.02-0.47-0.16-1.07,0.54-1.28c0.08,0,0.16,0,0.25,0.01c-0.13,2.05-0.17,4.11-0.41,6.15c-0.18,1.55-1.18,2.79-2.65,3.19
		C92.08,62.95,89.93,63.18,87.83,63.56z"/>
	<path style="fill-rule:evenodd;clip-rule:evenodd;fill:#242B27;" d="M54.47,66.93c-4.87,0.41-9.74,0.82-14.61,1.24
		c-0.34,0.16-0.56,0.13-0.51-0.33c0.28-0.46,0.76-0.61,1.23-0.65c4.29-0.34,8.57-0.93,12.9-0.88C53.84,66.47,54.4,66.32,54.47,66.93
		z"/>
	<path style="fill-rule:evenodd;clip-rule:evenodd;fill:#403C38;" d="M16.35,36.96c0.08-0.02,0.16-0.02,0.24,0
		c0.85,0.21,1.33,0.91,1.66,1.59c1.63,3.34,3.99,6.23,5.81,9.45c0.41,0.73,0.84,1.45,1.01,2.28c-0.03,0.2-0.15,0.32-0.34,0.37
		c-1.93-3.86-4.75-7.19-6.69-11.03C17.55,38.66,16.41,38.15,16.35,36.96z"/>
	<path style="fill-rule:evenodd;clip-rule:evenodd;fill:#393833;" d="M24.72,50.65c0.08-0.08,0.15-0.16,0.23-0.24
		c0.6-0.17,0.85,0.31,1.12,0.67c0.8,1.04,1.6,2.07,2.35,3.14c0.1,0.13,0.19,0.26,0.28,0.4c0.06,0.09,0.12,0.18,0.17,0.27
		c0.31,0.49,0.57,1.01,0.91,1.49c1.09,1.56,2.02,3.23,3.27,4.69c0.2,0.24,0.43,0.48,0.35,0.84c-0.09,0.08-0.18,0.15-0.28,0.23
		c-1.81-1.24-2.65-3.26-3.74-5.01C27.98,54.84,26.37,52.73,24.72,50.65z"/>
	<path style="fill-rule:evenodd;clip-rule:evenodd;fill:#2C2C2B;" d="M60.96,17.56c-0.02,0.28-0.17,0.42-0.45,0.44
		c-0.41,0.23-0.85,0.07-1.27,0.12c-2.95,0.19-5.9,0.49-8.86,0.47c-0.73-0.09-1.52,0.24-2.17-0.34c0.42-0.74,1.06-0.25,1.6-0.28
		c0.96-0.4,1.95-0.02,2.92-0.11c2.44-0.23,4.88-0.36,7.32-0.5C60.35,17.33,60.66,17.48,60.96,17.56z"/>
	<path style="fill-rule:evenodd;clip-rule:evenodd;fill:#373431;" d="M49.81,17.96c-0.51,0.14-1.09-0.13-1.56,0.25
		c-0.57,0.59-1.31,0.35-1.99,0.39c-0.43,0.02-0.86-0.02-1.28,0.02c-0.12,0.04-0.25,0.06-0.38,0.06c-0.31-0.01-0.62,0.02-0.92,0.08
		c-0.75,0.1-1.51,0.06-2.27,0.07c-0.19-0.01-0.39-0.02-0.58-0.02c-0.13,0-0.26,0-0.4,0c-0.54-0.11-1.25,0.26-1.53-0.55
		c3.34-0.16,6.68-0.31,10.01-0.46C49.21,17.79,49.54,17.71,49.81,17.96z"/>
	<path style="fill-rule:evenodd;clip-rule:evenodd;fill:#2E322F;" d="M54.47,66.93c-0.29-0.32-0.7-0.16-1.05-0.27
		c0.09-0.31,0.34-0.45,0.62-0.48c2.25-0.2,4.5-0.42,6.75-0.59c0.16-0.01,0.3,0.09,0.4,0.22c0.54,0.37,1.15,0.06,1.72,0.21
		c-2.55,0.53-5.14,0.75-7.73,0.9c-0.08-0.05-0.15-0.06-0.23,0C54.8,66.92,54.64,66.93,54.47,66.93z"/>
	<path style="fill-rule:evenodd;clip-rule:evenodd;fill:#353C36;" d="M39.36,67.95c0.17,0.07,0.33,0.15,0.5,0.22
		c-1.23,0.54-2.57,0.5-3.87,0.68c-0.1-0.08-0.2-0.17-0.3-0.25C36.45,67.71,38.22,67.4,39.36,67.95z"/>
	<path style="fill-rule:evenodd;clip-rule:evenodd;fill:#4D453F;" d="M31.69,18.73c0.4,0.01,0.8,0.01,1.2,0.02
		c0.29,0.26,0.8-0.14,1.02,0.34c-0.03,0.14-0.11,0.24-0.24,0.3c-1.36,0.11-2.7,0.61-4.08,0.16c-0.13-0.1-0.14-0.23-0.06-0.37
		c0.24-0.1,0.48-0.2,0.72-0.3C30.72,18.74,31.24,18.99,31.69,18.73z"/>
	<path style="fill-rule:evenodd;clip-rule:evenodd;fill:#373530;" d="M24.8,19.71c0.22-0.02,0.43-0.05,0.65-0.07
		c0.11-0.05,0.22-0.05,0.33,0c0.21,0.09,0.46,0.13,0.43,0.45c-0.21,0.35-0.57,0.36-0.92,0.41c-0.79,0.13-1.48,0.63-2.32,0.54
		c-0.18-0.05-0.3-0.17-0.39-0.32l-0.04-0.09c-0.05-0.09-0.03-0.15,0.06-0.19c0.63-0.19,1.25-0.38,1.88-0.58
		C24.6,19.82,24.68,19.73,24.8,19.71z"/>
	<path style="fill-rule:evenodd;clip-rule:evenodd;fill:#2F2E2A;" d="M33.92,19.01c-0.34-0.1-0.74,0.05-1.03-0.26
		c1.08-0.11,2.17-0.21,3.25-0.32c0.38-0.08,0.75-0.12,1.13,0.02l0.11,0c0.46-0.05,0.94-0.31,1.32,0.18
		c-0.05,0.14-0.14,0.23-0.27,0.3c-0.52,0.2-1.07,0.11-1.61,0.14c-0.52,0-1.04-0.03-1.55,0.15C34.8,19.27,34.33,19.36,33.92,19.01z"
		/>
	<path style="fill-rule:evenodd;clip-rule:evenodd;fill:#333833;" d="M79.91,26.16c0.09-0.09,0.18-0.18,0.27-0.27
		c0.65,0.64,1.3,1.28,1.95,1.92c-0.09,0.09-0.19,0.17-0.29,0.26C80.76,27.88,80.14,27.22,79.91,26.16z"/>
	<path style="fill-rule:evenodd;clip-rule:evenodd;fill:#4D4744;" d="M38.63,18.66c-0.42-0.07-0.84-0.14-1.26-0.21
		c0.48-0.25,1-0.18,1.52-0.17c0.54,0.44,1.19,0.1,1.77,0.27c-0.01,0.15-0.09,0.27-0.22,0.35C39.8,19.07,39.17,19.25,38.63,18.66z"/>
	<path style="fill-rule:evenodd;clip-rule:evenodd;fill:#282A26;" d="M29.53,19.19c-0.03,0.07-0.04,0.13-0.02,0.21
		c-0.41,0.48-0.94,0.54-1.52,0.45c-0.12-0.05-0.2-0.14-0.24-0.26c0.03-0.22,0.2-0.28,0.37-0.37c0.37-0.01,0.75-0.03,1.12-0.04
		C29.34,19.12,29.44,19.12,29.53,19.19L29.53,19.19z"/>
	<path style="fill-rule:evenodd;clip-rule:evenodd;fill:#232823;" d="M26.19,19.94c-0.17-0.08-0.34-0.15-0.51-0.23
		c0.18-0.27,0.54-0.04,0.74-0.25c0.15,0.01,0.31,0.02,0.46,0.03c0.18,0.07,0.33,0.15,0.27,0.39C26.85,20.21,26.53,20.23,26.19,19.94
		z"/>
	<path style="fill-rule:evenodd;clip-rule:evenodd;fill:#F7FBFD;" d="M31.69,18.73c-0.45,0.31-0.95,0.2-1.44,0.16
		C30.71,18.58,31.21,18.76,31.69,18.73z"/>
	<path style="fill-rule:evenodd;clip-rule:evenodd;fill:#202622;" d="M27.17,19.7c-0.09-0.07-0.19-0.15-0.28-0.22
		c0.3-0.09,0.6-0.17,0.9-0.26c0.08,0.02,0.12,0.05,0.11,0.1c-0.01,0.06-0.02,0.09-0.04,0.09c-0.01,0.08-0.01,0.15-0.01,0.23
		C27.64,19.88,27.41,19.88,27.17,19.7z"/>
	<path style="fill-rule:evenodd;clip-rule:evenodd;fill:#F7FBFD;" d="M26.43,19.46c-0.25,0.08-0.5,0.17-0.74,0.25
		c-0.08-0.02-0.16-0.05-0.24-0.07C25.73,19.35,26.09,19.45,26.43,19.46z"/>
	<path style="fill-rule:evenodd;clip-rule:evenodd;fill:#4D4744;" d="M37.27,18.44c-0.38,0-0.75-0.01-1.13-0.02
		C36.52,18.24,36.89,18.29,37.27,18.44z"/>
	<path style="fill-rule:evenodd;clip-rule:evenodd;fill:#E5F1F3;" d="M22.6,20.43c-0.02,0.06-0.04,0.13-0.06,0.19
		c-0.07,0-0.14-0.01-0.21-0.03C22.42,20.53,22.51,20.48,22.6,20.43z"/>
	<path style="fill-rule:evenodd;clip-rule:evenodd;fill:#F7FBFD;" d="M27.85,19.41c-0.01-0.07-0.03-0.13-0.07-0.19
		c0.11,0,0.22,0,0.34-0.01C28.03,19.28,27.94,19.35,27.85,19.41z"/>
	<path style="fill-rule:evenodd;clip-rule:evenodd;fill:#4D453F;" d="M29.53,19.19c-0.1-0.01-0.2-0.01-0.29-0.02
		C29.34,19.04,29.45,18.93,29.53,19.19z"/>
	<path style="fill-rule:evenodd;clip-rule:evenodd;fill:#242B27;" d="M54.97,66.92c0.08,0,0.15,0,0.23,0
		C55.12,66.92,55.04,66.92,54.97,66.92z"/>
	<path style="fill-rule:evenodd;clip-rule:evenodd;fill:#F7FBFD;" d="M24.8,19.71c-0.1,0.05-0.21,0.1-0.31,0.15
		C24.59,19.81,24.69,19.76,24.8,19.71z"/>
	<path style="fill-rule:evenodd;clip-rule:evenodd;fill:#319E95;" d="M39.36,67.95c-1.25,0.06-2.5,0.11-3.67,0.65
		c-1.09,0.27-0.99-0.41-0.81-1.06c1.17-4.16,0.2-8.33,0.1-12.5c0-0.19-0.14-0.37-0.21-0.56c-0.4-0.3-0.52-0.72-0.4-1.17
		c0.23-0.85-0.08-1.49-0.69-2.03c-0.59-0.53-0.96-1.19-1.16-1.92C32,47.41,30.8,45.9,29.5,44.42c-0.42-0.48-1.21-0.98-0.46-1.81
		c1.44,0.06,3.66,1.64,4.08,2.96c0.28,0.87,0.61,1.7,1,2.52c0.49,1.89,1.26,3.64,2.62,5.09c0.59,2.43,0.63,4.91,0.54,7.37
		c-0.07,1.87,0.44,3.73,0.07,5.6c-0.09,0.45,0.29,0.53,0.63,0.44c0.54-0.15,1.09-0.26,1.64-0.34c3.93-0.54,7.89-0.83,11.79-1.55
		c3.95-0.46,7.98-0.01,11.87-1.1c3.36-0.32,6.7-0.86,10.07-1.09c4.04-0.28,8.12-0.18,12.11-0.97c2.54-0.5,5.09-0.9,7.62-1.42
		c0.84-0.17,1.4-0.71,1.69-1.53c0.18-0.53,0.37-1.06,0.66-1.54c0.46-2.33,0.86-4.65,0.57-7.06c-0.21-1.77-0.35-3.52-0.76-5.28
		c-0.62-2.65-2.02-4.8-3.67-6.85c-0.38-0.66-0.92-1.18-1.51-1.66c-1.29-1.08-2.64-2.09-3.55-3.55c0.01-0.12,0.07-0.21,0.17-0.28
		c3.19,1.65,5.77,4.08,8.16,6.67c1.37,1.48,2.01,3.39,1.89,5.49c-0.04,0.7,0.07,1.43,0.24,2.12c0.52,2.14,0.03,4.25-0.05,6.38
		c-0.46,1.38-0.31,2.84-0.47,4.25c-0.15,1.34-0.17,2.65-1.22,3.72c-0.5,0.51-0.95,0.84-1.66,0.98c-2.17,0.4-4.33,0.9-6.49,1.36
		c-8.65,0.62-17.3,1.18-25.89,2.47c-2.59,0.29-5.18,0.57-7.78,0.85c-3.66-0.16-7.27,0.64-10.92,0.7
		C41.44,67.38,40.35,67.45,39.36,67.95z"/>
	<path style="fill-rule:evenodd;clip-rule:evenodd;fill:#329D95;" d="M79.91,26.16c0.64,0.64,1.29,1.27,1.94,1.91
		c0.39,0.49,0.79,0.98,1.18,1.47c0.09,0.13,0.06,0.23-0.07,0.31c-1.37-0.18-2.37-1.02-3.35-1.9c-1.01-0.91-1.58-2.2-2.66-3.06
		c-2.07-1.64-4.24-3.12-6.59-4.33c-0.79-0.41-1.57-0.8-2.17-1.47c-0.89-0.98-2.03-0.7-3.01-0.38c-3.29,1.06-6.74,1.26-10.09,1.97
		c-0.62,0.13-1.28,0.1-1.92,0.06c-3.16-0.22-6.16,0.71-9.22,1.24c-0.78,0.14-1.54,0.46-2.35,0.31c-0.38-0.07-0.87-0.18-0.87-0.67
		c0.01-0.54,0.49-0.55,0.9-0.52c0.28,0.02,0.55-0.15,0.83-0.03c3.07-0.58,6.08-1.52,9.22-1.75c3.6-0.26,7.2-0.54,10.79-0.88
		c1.04-0.1,2.06-0.43,3.08-0.66c1.99-0.28,3.75-0.18,5.26,1.57c0.92,1.07,2.32,1.81,3.63,2.46C76.6,22.87,77.96,24.88,79.91,26.16z"
		/>
	<path style="fill-rule:evenodd;clip-rule:evenodd;fill:#78949C;" d="M86.69,32.37c-0.03,0.06-0.07,0.11-0.11,0.17
		c-1.24-0.37-2.21-1.1-2.89-2.21c0.03-0.05,0.06-0.09,0.09-0.14C84.92,30.7,85.88,31.43,86.69,32.37z"/>
	<path style="fill-rule:evenodd;clip-rule:evenodd;fill:#448684;" d="M83.03,29.82c0-0.09,0-0.19,0-0.28
		c0.25,0.21,0.51,0.43,0.76,0.64l-0.07,0.08C83.27,30.46,83.06,30.28,83.03,29.82z"/>
	<path style="fill-rule:evenodd;clip-rule:evenodd;fill:#EFF6F8;" d="M28.34,54.47c-1.26-1.25-2-2.94-3.4-4.07
		c-1.8-4.17-4.95-7.53-6.91-11.61c-0.33-0.69-0.96-1.23-1.45-1.84c-0.28-1.6-1.32-3-1.26-4.69c-0.05-0.61-0.39-1.53,0.18-1.73
		c0.66-0.22,1.08,0.64,1.44,1.22c0.85,1.38,1.22,2.95,1.71,4.47c0.41,1.27,0.97,2.43,1.83,3.47c1.26,1.52,1.92,3.41,2.96,5.07
		c0.53,0.85,1.05,1.7,1.67,2.49c0.69,0.87,0.9,0.82,1.34-0.18c0.27-0.6,0.41-1.35,1.3-1.36c0.33,0.08,0.55,0.31,0.71,0.58
		c0.88,1.48,1.78,2.96,2.7,4.42c0.08,0.22,0.15,0.44,0.2,0.67c0.02,0.12,0.03,0.23,0.02,0.35c-0.22,1.67-1.18,2.72-2.76,3.22
		c-0.07-0.04-0.1-0.1-0.09-0.18C28.5,54.65,28.41,54.57,28.34,54.47z"/>
	<path style="fill-rule:evenodd;clip-rule:evenodd;fill:#ACD3D8;" d="M19.45,32.15c-0.08-0.24-0.16-0.47-0.24-0.71
		c0.22-0.87,0.92-1.01,1.66-1.06c0.99-0.06,1.98,0.04,2.97-0.06c1.91-0.19,3.76-0.58,5.45-1.55c0.58-0.33,1.2-0.64,1.92-0.41
		c0.51,0.26,0.28,0.65,0.15,1.01c-0.23,0.63-0.65,1.16-1.05,1.68c-0.99,1.16-1.64,2.58-2.76,3.64c-0.4,0.4-0.69,0.87-0.94,1.36
		c-0.48,1.35-1.29,2.59-1.18,4.13c0.04,0.6-0.3,0.91-0.88,0.39c-0.45-0.54-0.74-1.17-1.08-1.77c-1.05-1.99-2.25-3.9-3.63-5.68
		C19.61,32.81,19.56,32.48,19.45,32.15z"/>
	<path style="fill-rule:evenodd;clip-rule:evenodd;fill:#E5F1F3;" d="M38.63,18.66c0.64,0.02,1.28,0.04,1.92,0.06
		c0.1-0.09,0.21-0.12,0.34-0.1c0.15,0.02,0.21,0.11,0.19,0.26c-0.24,0.41-0.67,0.42-1.06,0.4c-1.2-0.04-2.08,0.54-2.72,1.48
		c-3.19,4.71-8.03,6.74-13.23,8.2c-1.5,0.42-2.95,0.14-4.27-0.64c-0.82-0.49-1.65-0.74-2.59-0.65l0.01,0.01
		c0-0.14-0.11-0.21-0.19-0.3l0,0c-0.21-0.2-0.05-0.5-0.19-0.71c-0.17-0.27-0.35-0.53-0.51-0.8c-0.98-1.66-0.84-1.98,0.83-2.89
		c1.71-0.94,3.65-1.25,5.39-2.09c0.07-0.08,0.15-0.08,0.23-0.02c0.8-0.22,1.61-0.44,2.41-0.65c0.43,0.63-0.05,0.96-0.45,1.27
		c-0.6,0.46-1.28,0.81-1.93,1.2c-0.73,0.44-1.36,0.99-1.81,1.71c-0.47,0.76-0.63,1.57-0.06,2.36c0.57,0.79,1.4,0.94,2.25,0.69
		c1.11-0.32,2.24-0.59,3.3-1.08c1.27-0.59,2.55-1.14,3.84-1.68c1.48-0.61,2.66-1.6,3.63-2.86c0.76-0.99,0.69-1.82-0.12-2.61
		c0.03-0.06,0.06-0.12,0.08-0.19c0.45-0.02,0.9-0.05,1.36-0.07c0.45-0.19,0.91-0.05,1.37-0.09c0.58-0.04,1.17,0.09,1.75-0.08
		C38.47,18.73,38.55,18.69,38.63,18.66z"/>
	<path style="fill-rule:evenodd;clip-rule:evenodd;fill:#D1E6EA;" d="M17.23,27.65c0.43-0.25,0.8-0.77,1.37-0.34
		c3.55,2.62,6.93,1.11,10.33-0.38c3.3-1.45,6.19-3.37,8.18-6.49c0.63-0.99,1.6-1.66,2.92-1.49c0.34,0.04,0.73,0.1,1-0.23
		c0.04-0.15,0.18-0.16,0.29-0.21c0.86-0.01,1.72-0.02,2.59-0.03c0.17-0.14,0.35-0.12,0.52-0.01c0.05-0.04,0.09-0.04,0.14-0.01
		c0.43-0.04,1.09-0.38,1.18,0.18c0.07,0.42-0.68,0.36-1.08,0.44c-1.49,0.3-2.92,0.72-4.06,1.8c-0.08,0.13-0.17,0.3-0.32,0.33
		c-2.59,0.62-3.88,2.97-5.86,4.41c-0.19,0.16-0.41,0.28-0.65,0.35c-1.08,0.31-2.04,0.89-3.01,1.44c-2.82,1.58-5.77,2.72-9.08,2.43
		c-1.14-0.1-2.26-0.4-3.4-0.08c-0.07-0.04-0.1-0.1-0.08-0.18c-0.05-0.1-0.11-0.19-0.17-0.28c-0.07-0.04-0.1-0.1-0.08-0.17
		c-0.02-0.13-0.11-0.22-0.19-0.31C17.44,28.49,17.29,28.09,17.23,27.65z"/>
	<path style="fill-rule:evenodd;clip-rule:evenodd;fill:#BEDCE0;" d="M18.3,29.75c0.6-0.51,1.19-0.71,2.05-0.5
		c3.79,0.92,7.14-0.41,10.39-2.21c0.99-0.55,1.93-1.28,3.14-1.34c-0.5,1.21-1.17,2.28-2.41,2.88c-0.56-0.04-1.11-0.01-1.61,0.3
		c-2.61,1.6-5.5,1.97-8.48,1.84c-0.84-0.04-1.56,0.12-2.16,0.73l-0.01-0.01c-0.08-0.05-0.13-0.12-0.15-0.21
		C18.8,30.72,18.55,30.24,18.3,29.75z"/>
	<path style="fill-rule:evenodd;clip-rule:evenodd;fill:#CCE3E7;" d="M17.27,29.07c0.66,1.11,1.32,2.21,1.98,3.32
		c0.07,0.09,0.13,0.19,0.18,0.3c0.33,2.36,1.1,4.54,2.61,6.42c0.77,0.96,1.31,2.08,1.92,3.15c0.6,1.07,1.33,1.87,2.69,1.76
		c0.35,0.2,0.59,0.47,0.57,0.9c-0.77,1.43-1.95,1.62-3.04,0.45c-0.93-1-1.46-2.27-2.13-3.44c-0.36-0.62-0.68-1.25-1.14-1.81
		c-1.09-1.34-1.87-2.83-2.34-4.52c-0.41-1.49-0.92-2.96-1.51-4.4C16.77,30.47,16.69,29.73,17.27,29.07z"/>
	<path style="fill-rule:evenodd;clip-rule:evenodd;fill:#DFEEF1;" d="M27.78,45.85c-0.85,0.24-0.92,1.01-1.13,1.67
		c-0.11,0.34-0.13,0.76-0.51,0.88c-0.47,0.16-0.75-0.26-0.96-0.56c-0.96-1.41-1.95-2.81-2.78-4.29c-0.86-1.53-1.66-3.06-2.77-4.44
		c-0.9-1.11-1.26-2.55-1.64-3.93c-0.37-1.35-0.88-2.64-1.66-3.81c-0.19-0.28-0.59-0.69-0.78-0.64c-0.39,0.12-0.12,0.61-0.19,0.93
		c-0.04,0.19-0.03,0.4-0.05,0.6c-0.41-1.68-0.24-3.35,0.03-5.02c0.05-0.34,0.2-0.91,0.35-0.93c0.4-0.04,0.45,0.46,0.62,0.75
		c0.13,0.24,0.22,0.5,0.32,0.76c-0.69,0.31-0.87,0.86-0.51,1.46c1.58,2.63,2.21,5.64,3.38,8.43c0.73,1.76,2.22,3.1,3.05,4.84
		c0.42,0.89,0.92,1.76,1.53,2.56c1.23,1.6,1.54,1.63,2.97,0.24c0.1-0.06,0.21-0.09,0.33-0.09c0.11,0.03,0.22,0.08,0.32,0.15
		C27.82,45.54,27.95,45.67,27.78,45.85z"/>
	<path style="fill-rule:evenodd;clip-rule:evenodd;fill:#DEEDF0;" d="M27.38,45.34c-0.21,0.23-0.43,0.46-0.62,0.7
		c-0.8,1-1.65,1.06-2.29-0.03c-2.39-4.1-5.59-7.78-6.67-12.58c-0.34-1.5-1.41-2.67-2.02-4.06c-0.23-0.53-0.33-1.11-0.02-1.61
		c0.21-0.33,0.58,0.01,0.88,0.06c0.21,0.42,0.43,0.83,0.64,1.25c-0.39,1.34,0.44,2.43,0.7,3.65c0.96,4.57,3.9,8.11,6.12,12.02
		c0.87,1.52,1.9,1.49,3,0.15C27.33,44.94,27.44,45.08,27.38,45.34z"/>
	<path style="fill-rule:evenodd;clip-rule:evenodd;fill:#383D37;" d="M19.23,32.56c0-0.06,0.01-0.11,0.02-0.17
		c0.06-0.08,0.13-0.16,0.19-0.24c1.76,1.94,3.06,4.19,4.26,6.5c-0.09,0.08-0.19,0.12-0.31,0.12c-0.11-0.02-0.22-0.07-0.31-0.14
		C21.84,36.58,20.34,34.69,19.23,32.56z"/>
	<path style="fill-rule:evenodd;clip-rule:evenodd;fill:#D1E6EA;" d="M16.85,26.65c0.24,0.19,0.2,0.45,0.19,0.71
		C16.76,27.18,16.83,26.9,16.85,26.65z"/>
	<path style="fill-rule:evenodd;clip-rule:evenodd;fill:#BEDCE0;" d="M18.05,29.29c0.06,0.09,0.11,0.19,0.17,0.28
		C18.16,29.47,18.11,29.38,18.05,29.29z"/>
	<path style="fill-rule:evenodd;clip-rule:evenodd;fill:#BEDCE0;" d="M17.78,28.8c0.06,0.1,0.13,0.21,0.19,0.31
		C17.91,29.01,17.84,28.9,17.78,28.8z"/>
	<path style="fill-rule:evenodd;clip-rule:evenodd;fill:#D1E6EA;" d="M17.04,27.36c0.06,0.1,0.13,0.2,0.19,0.3
		C17.17,27.56,17.11,27.46,17.04,27.36z"/>
	<path style="fill-rule:evenodd;clip-rule:evenodd;fill:#292B26;" d="M22.79,20.84c-0.08,0.01-0.16,0.02-0.23,0.02
		c0-0.05,0.01-0.1,0.02-0.15C22.65,20.76,22.72,20.8,22.79,20.84z"/>
	<path style="fill-rule:evenodd;clip-rule:evenodd;fill:#ACD3D8;" d="M19.06,31.21c0.05,0.07,0.1,0.14,0.15,0.21
		C19.16,31.35,19.11,31.28,19.06,31.21z"/>
	<path style="fill-rule:evenodd;clip-rule:evenodd;fill:#ACD2D8;" d="M34.08,54.95c-0.74-1.11-1.48-2.22-2.22-3.33
		c-0.95-0.91-1.62-2.04-2.23-3.17c-1.06-1.97-2.33-3.77-3.76-5.49c-0.2-0.55-0.82-1.16,0.12-1.58c0.96-0.43,1.79-0.15,2.17,0.68
		c0.07,0.14,0.13,0.29,0.19,0.43c0.5,1.49,1.82,2.4,2.66,3.66c0.67,1.01,1.21,2.05,1.54,3.19c0.22,0.75,0.57,1.38,1.15,1.91
		c0.62,0.56,1.06,1.2,0.65,2.11c-0.12,0.27,0.12,0.56,0.09,0.81C34.42,54.43,34.74,54.95,34.08,54.95z"/>
	<path style="fill-rule:evenodd;clip-rule:evenodd;fill:#B2D5DA;" d="M32.88,54.27c0.94,0.85,1.78,1.76,1.7,3.14
		c-0.08,1.38,0.7,2.69,0.25,4.09c-2.3-0.69-3.04-2.65-3.63-4.64C30.91,55.88,31.72,54.86,32.88,54.27z"/>
	<path style="fill-rule:evenodd;clip-rule:evenodd;fill:#C4DFE3;" d="M32.88,54.27c-2.03,2.43-1.33,5.27,1.65,6.76
		c0.14,0.07,0.21,0.31,0.31,0.47c0.01,0.08,0.02,0.16,0.02,0.24c-0.03,0.39,0.06,1.03-0.11,1.12c-0.42,0.21-0.54-0.41-0.85-0.62
		c-0.16-0.11-0.32-0.22-0.48-0.33c-1.59-1.62-2.71-3.58-3.9-5.49c0.14-1.37,1.14-2.18,1.98-3.1c0.2-0.22,0.48-0.25,0.75-0.06
		C32.45,53.59,32.66,53.93,32.88,54.27z"/>
	<path style="fill-rule:evenodd;clip-rule:evenodd;fill:#28302B;" d="M34.08,54.95c-0.07-1.24,0.72-2.63-0.66-3.65
		c-0.6-0.44-0.88-1.04-1.07-1.79c-0.55-2.17-1.93-3.88-3.35-5.55c-0.33-0.39-0.6-0.83-0.9-1.24c0.05-0.13,0.09-0.26,0.24-0.32
		c0.19-0.03,0.36,0.03,0.53,0.13c0.08,0.05,0.14,0.12,0.18,0.21c-0.38,0.64,0.19,0.95,0.5,1.28c1.61,1.7,2.93,3.56,3.49,5.88
		c0.04,0.15,0.05,0.38,0.15,0.44c1.57,1,1.58,2.57,1.57,4.16C34.41,55.09,34.41,55.09,34.08,54.95z"/>
	<path style="fill-rule:evenodd;clip-rule:evenodd;fill:#E1EEF1;" d="M32.23,53.25c-1.39,0.64-1.89,2.05-2.73,3.16
		c-0.29-0.49-0.58-0.98-0.87-1.47c1.17-0.92,2.4-1.79,2.61-3.43c0.25,0,0.35,0.16,0.41,0.37c0.1,0.28,0.2,0.56,0.3,0.84
		c0.02,0.13,0.1,0.22,0.18,0.32C32.2,53.1,32.23,53.17,32.23,53.25z"/>
	<path style="fill-rule:evenodd;clip-rule:evenodd;fill:#3D3F39;" d="M31.66,51.88c-0.14-0.12-0.28-0.25-0.41-0.37
		c0.02-0.07-0.01-0.12-0.07-0.15c-0.12-0.13-0.05-0.35-0.22-0.46c-1.06-1.69-2.12-3.37-3.18-5.06c-0.06-0.08-0.13-0.16-0.19-0.24
		c-0.06-0.1-0.15-0.17-0.21-0.27l0.01,0.01c-0.1-0.15-0.2-0.3-0.3-0.46c-0.18-0.24-0.35-0.48-0.53-0.72
		c-0.29-0.28-0.76-0.42-0.72-0.94c0.06-0.16,0.17-0.26,0.34-0.3c2.3,2.63,3.76,5.81,5.69,8.69C31.8,51.71,31.73,51.79,31.66,51.88z"
		/>
	<path style="fill-rule:evenodd;clip-rule:evenodd;fill:#C4DFE3;" d="M32.13,53.04c-0.06-0.11-0.12-0.21-0.18-0.32
		C32.01,52.83,32.07,52.94,32.13,53.04z"/>
	<path style="fill-rule:evenodd;clip-rule:evenodd;fill:#1A201D;" d="M26.18,42.93c-0.07,0.09-0.13,0.17-0.2,0.26
		c-1.01-0.56-1.4-1.51-1.67-2.55c0.05-0.18,0.14-0.33,0.36-0.3c0.27,0.33,0.61,0.68,0.5-0.13c-0.23-1.68,0.62-3.02,1.28-4.42
		c0.35,0,0.35,0.27,0.39,0.5c-0.09,0.74,0.35,0.68,0.81,0.51c0.9-0.33,1.81-0.64,2.75-0.85c2.23-0.49,4.46-0.8,6.77-0.78
		c2.03,0.02,4.07-0.17,6.04-0.76c1.1-0.33,1.23-0.58,0.66-1.6c-0.25-0.45-0.5-0.93-0.85-1.31c-1.27-1.36-2.26-2.87-2.94-4.62
		c-0.44-1.13-1.57-1.67-2.4-2.47c-0.14-0.13-0.34-0.24-0.55-0.14c-0.27,0.12-0.27,0.39-0.23,0.62c0.16,1.07,0.42,2.11,1.06,3.03
		c0.57,0.82,1.15,1.64,1.47,2.6c0.37,1.14,0.16,1.63-0.94,2.07c-1.64,0.66-3.31,1.11-5.12,1.13c-1.4,0.02-2.76,0.4-4.07,0.92
		c-0.56,0.22-1.1,0.5-1.73,0.32c-0.17-0.09-0.31-0.19-0.23-0.42c0.9-1.19,1.81-2.38,2.71-3.56c0.22-0.02,0.3,0.12,0.35,0.3
		c0.04,0.3-0.1,0.53-0.24,0.78c-0.17,0.31-0.65,0.63-0.49,0.89c0.21,0.35,0.73,0.11,1.09,0.03c1.6-0.39,3.23-0.48,4.85-0.68
		c0.48-0.06,0.94-0.16,1.4-0.32c1.27-0.43,1.47-0.85,0.85-2.03c-0.7-1.34-1.64-2.54-2.11-4.01c-0.3-0.93-0.98,0.16-1.41-0.2
		c-0.07-0.06-0.09-0.13-0.07-0.19s0.04-0.1,0.06-0.1c1.97-1.56,3.21-4.07,6.01-4.54c0.45-0.28,0.91-0.43,1.39-0.05
		c0.25,0.07,0.49,0.14,0.74,0.21c-0.11,0.05-0.24,0.07-0.33,0.14c-0.39,0.3-1.26-0.17-1.21,0.49c0.02,0.3,1.01,0.38,1.64,0.25
		c2.18-0.46,4.34-1,6.54-1.28c3.58-0.46,7.22-0.31,10.77-1.08c2.21-0.48,4.42-0.93,6.63-1.42c0.47-0.11,0.89-0.12,1.24,0.19
		c2.79,2.38,6.38,3.58,9.12,6.05c0.51,0.46,1.03,0.87,1.4,1.45c1.17,1.84,2.81,3.1,4.77,3.98c0.15,0.28,0.39,0.41,0.69,0.44
		c0.96,0.76,1.91,1.52,2.87,2.28c1.22,1.15,2.44,2.3,3.66,3.45c0.06,0.24-0.09,0.33-0.27,0.4c-0.81,0.03-1.33-0.53-1.81-1.03
		c-2.28-2.4-4.94-4.29-7.73-6.04c-0.58-0.36-1.17-0.73-1.57-1.29c-2.26-3.2-5.47-5.2-8.85-6.99c-0.53-0.28-1.08-0.55-1.51-0.97
		c-0.92-0.9-1.95-1.12-3.19-0.78c-3.51,0.99-7.14,1.36-10.74,1.88c-1.93,0.28-3.89-0.06-5.84,0.4c-1.47,0.34-2.94,0.77-4.46,0.9
		c-0.66,0.06-0.51,0.22-0.19,0.68c0.68,0.97,1.43,1.05,2.45,0.62c1.94-0.81,3.98-1.04,6.09-1.11c3.04-0.1,6.1-0.48,8.95-1.51
		c3.39-1.22,6.29-0.51,8.71,1.85c1.84,1.8,3.99,3.19,5.83,4.93c2.39,2.27,5.03,4.32,7,7.02c1.04,1.42,2.6,2.37,3.6,3.84
		c0.29,0.48,0.6,0.94,0.99,1.35c0.35,0.41,0.6,0.91,0.95,1.32c0.08,0.07,0.16,0.15,0.25,0.22c0.09,0.07,0.18,0.14,0.27,0.21
		c0.84,0.74,1.71,1.42,2.42,2.31c1.48,1.87,2.39,3.86,1.84,6.3c0.02,0.44,0.01,0.88,0.01,1.32c0.02,0.52,0.05,1.04,0.17,1.54
		c0.11,0.95,0.18,1.91,0.28,2.86c0.17,1.62-0.47,2.46-2.06,2.86c-3.27,0.83-6.62,1.08-9.96,1.42c-2.11,0.21-4.2,0.57-6.29,0.88
		c-2.75,0.41-5.49,0.38-8.24,0.1c-1.59-0.16-3.17-0.12-4.77-0.01c-1.48,0.1-3.01-0.2-4.53-0.18c-0.97,0.01-1.91,0.14-2.84,0.39
		c-2.41,0.64-4.85,1.04-7.35,0.83c-1.63-0.14-3.17,0.31-4.72,0.68c-0.27,0.06-0.53,0.17-0.81,0.23c-1.46,0.31-1.83-0.05-1.61-1.54
		c0.04-0.24,0.08-0.47,0.15-0.7c0.08-0.54-0.02-1.1,0.18-1.63c0.17-0.29,0.28-0.66,0.74-0.52c0.42,0.69,0.18,1.47,0.28,2.21
		c0.07,0.53,0.24,0.87,0.82,0.68c2.86-0.93,5.85-0.44,8.77-0.81c1.59-0.2,3.12-0.59,4.68-0.93c1.86-0.28,3.75,0.1,5.61-0.17
		c0.13-0.01,0.25,0,0.38,0.01c0.35,0.09,0.71,0.14,1.08,0.12c0.12-0.01,0.25-0.01,0.37,0c0.51,0.04,1.01-0.07,1.5-0.16
		c4.51,0.76,9,0.47,13.47-0.32c0.26-0.02,0.53,0,0.79-0.02c0.44-0.08,0.88-0.17,1.32-0.22c0.19-0.01,0.38-0.02,0.57-0.07
		c1.46-0.23,2.94-0.25,4.4-0.54c0.12-0.04,0.25-0.06,0.38-0.08c0.69-0.08,1.4,0.07,2.07-0.17c1.2-0.11,2.32-0.54,3.49-0.79
		c0.77-0.16,1.03-0.65,1.01-1.38c-0.02-0.52-0.12-1.03-0.2-1.54c-0.29-1.97-0.42-3.92-0.26-5.92c0.15-1.95-1.16-3.4-2.34-4.8
		c-0.33-0.39-0.77-0.69-1.15-1.04c-0.29-0.27-0.59-0.54-0.83-0.85c-0.17-0.21-0.34-0.41-0.52-0.6c-0.17-0.2-0.31-0.42-0.48-0.63
		c-0.07-0.08-0.14-0.16-0.21-0.24c-0.62-0.7-1.12-1.49-1.72-2.2c-0.47-0.51-0.94-1.03-1.53-1.41c-0.09-0.06-0.17-0.14-0.25-0.22
		c-1.44-1.8-2.9-3.54-4.7-5.05c-1.57-1.31-2.82-3.03-4.55-4.21c-0.43-0.29-0.84-0.6-1.3-0.85c-0.15-0.09-0.29-0.18-0.43-0.28
		c-0.58-0.4-1.1-0.85-1.54-1.41c-1.22-1.69-2.98-2.6-4.87-3.3c-0.98-0.36-1.96-0.06-2.93,0.2c-2.57,0.71-5.16,1.32-7.83,1.56
		c-0.3-0.01-0.57,0.1-0.86,0.15c-0.34,0.06-0.68,0.09-1.01,0.17c-2.12-0.1-4.2,0.08-6.19,0.91c-1.14,0.47-1.14,0.47-0.42,1.5
		c0.37,0.52,0.7,1.07,0.93,1.66c0.67,1.01,1.57,1.84,2.2,2.83c-0.02-0.03,0.07-0.04,0.07-0.04s-0.05-0.08-0.06-0.09
		c-0.86-0.71-1.07-1.94-2.09-2.51c-0.15-0.08-0.11-0.36-0.03-0.56c0.6-0.56,1.31-0.81,2.12-0.68c0.2,0.11,0.28,0.27,0.21,0.49
		c-0.28,0.9,0.14,2.4,0.85,3.02c0.06,0.06,0.1,0.16,0.14,0.13c0.13-0.06,0.1-0.2,0.1-0.31c0-0.5-0.27-0.9-0.47-1.33
		c-0.28-0.57-0.59-1.13-0.43-1.81c0.06-0.18,0.17-0.3,0.35-0.36c0.12,0.01,0.23,0.05,0.33,0.11c0.09,0.07,0.17,0.16,0.24,0.26
		c0.42,0.94,0.72,1.93,1.16,2.87c0.11,1.04-0.37,1.72-1.25,2.24c-0.91,0.55-0.88,0.77,0.08,1.27c0.34,0.18,0.57,0.45,0.7,0.79
		c0.61,1.57,1.54,2.98,2.29,4.48c0.87,1.72,0.73,2.11-1,2.97c-0.45,0.16-0.91,0.27-1.39,0.29c-0.3,0-0.59,0.05-0.87,0.15
		c-0.18,0.05-0.36,0.09-0.54,0.13c-1.23,0.34-2.5,0.41-3.74,0.73c-1.34,0.34-2.7,0.49-4.08,0.46c-0.31,0.05-0.62,0.11-0.94,0.16
		c-1.27,0.2-1.61-0.03-1.98-1.29c-0.09-0.31-0.16-0.62-0.23-0.93c-0.13-0.57-0.46-0.8-1.04-0.69c-0.83,0.15-1.66,0.16-2.5,0.08
		c-0.58-0.05-0.69,0.16-0.49,0.69c0.3,0.81,0.95,1.49,0.94,2.42c-0.04,0.18-0.12,0.33-0.28,0.43c-0.29,0.05-0.4-0.17-0.54-0.35
		c-0.06-0.09-0.12-0.19-0.17-0.29c-0.08-0.14-0.16-0.29-0.25-0.43c-0.36-0.57-0.71-1.15-0.94-1.78c-0.21-0.57-0.6-0.83-1.2-0.62
		c-0.79,0.27-1.61,0.4-2.43,0.53c-0.55,0.09-0.59,0.3-0.19,0.65c0.77,0.69,1.72,1.13,2.5,1.81c0.09,0.07,0.17,0.15,0.25,0.23
		c0.04,0.04,0.07,0.09,0.11,0.13c0.36,0.45,0.53,0.99,0.71,1.53c0.11,0.49,0.27,0.96,0.46,1.43c0.07,0.23,0.08,0.46,0.01,0.69
		c-0.07,0.17-0.17,0.31-0.39,0.27c-0.42-0.85-0.68-1.76-1.05-2.62c-0.68-1.59-2.22-2.31-3.78-2.88c-0.08,0-0.17-0.01-0.25-0.01
		c-0.14-0.17-0.22-0.38-0.35-0.56c-0.02,0.11-0.03,0.22-0.11,0.3c-0.08,0.09-0.15,0.17-0.23,0.26c-0.42-0.37,0.05-1.43-1.21-1.22
		C25.73,41.69,25.53,41.99,26.18,42.93z"/>
	<path style="fill-rule:evenodd;clip-rule:evenodd;fill:#C4DEE2;" d="M41.72,20.86c-0.46,0.02-0.92,0.04-1.39,0.05
		c1.01-1.58,2.73-1.76,4.32-2.18c0.3-0.08,0.61-0.07,0.92-0.1c-0.33-0.06-0.66-0.11-0.99-0.17c1.2-0.42,2.45-0.01,3.66-0.25
		c0.72,0.02,1.43,0.05,2.15,0.07c0.03,0.66-0.83,0.25-0.92,0.76C46.89,19.65,44.3,20.25,41.72,20.86z"/>
	<path style="fill-rule:evenodd;clip-rule:evenodd;fill:#D4DDE4;" d="M49.47,19.04c-0.09-0.73,0.69-0.42,0.92-0.76
		c2.96,0.32,5.9-0.42,8.86-0.26c0.1,0.04,0.14,0.08,0.1,0.12c-0.03,0.04-0.07,0.06-0.11,0.06c-2.44,0.43-4.9,0.69-7.38,0.54
		c-0.63,0.25-1.31-0.06-1.94,0.19C49.77,18.96,49.62,19,49.47,19.04z"/>
	<path style="fill-rule:evenodd;clip-rule:evenodd;fill:#C4DEE2;" d="M49.93,18.93c0.61-0.41,1.29-0.13,1.94-0.19
		C51.25,19.12,50.56,18.78,49.93,18.93z"/>
	<path style="fill-rule:evenodd;clip-rule:evenodd;fill:#76727C;" d="M59.24,18.2c0-0.06,0-0.12,0-0.18
		c0.42-0.01,0.85-0.02,1.27-0.02C60.15,18.4,59.67,18.17,59.24,18.2z"/>
	<path style="fill-rule:evenodd;clip-rule:evenodd;fill:#E1EEF1;" d="M28.34,54.47c0.07,0.1,0.13,0.19,0.2,0.29
		C28.48,54.67,28.41,54.57,28.34,54.47z"/>
	<path style="fill-rule:evenodd;clip-rule:evenodd;fill:#4D4744;" d="M41.33,18.51c-0.1,0.07-0.2,0.14-0.29,0.21l-0.11-0.02
		l-0.11,0.02c-0.06-0.05-0.09-0.11-0.11-0.18C40.91,18.53,41.12,18.52,41.33,18.51z"/>
	<path style="fill-rule:evenodd;clip-rule:evenodd;fill:#C4DEE2;" d="M44.44,18.46c-0.17,0-0.35,0.01-0.52,0.01
		C44.09,18.31,44.26,18.3,44.44,18.46z"/>
	<path style="fill-rule:evenodd;clip-rule:evenodd;fill:#D1E6EA;" d="M40.7,18.54c0.04,0.06,0.07,0.12,0.11,0.18
		c-0.09,0-0.18,0-0.26,0c0.04-0.06,0.07-0.12,0.11-0.18H40.7z"/>
	<path style="fill-rule:evenodd;clip-rule:evenodd;fill:#F7FBFD;" d="M33.84,19.2c0.36,0.1,1.06-0.17,1.04,0.25
		c-0.04,0.8,0.12,1.7-0.48,2.41c-1.16,1.39-2.47,2.58-4.2,3.24c-2.19,0.83-4.27,1.94-6.55,2.57c-1.17,0.32-2.26,0.34-3.02-0.72
		c-0.8-1.11-0.41-2.19,0.36-3.17c0.79-1,1.92-1.52,2.96-2.18c0.54-0.33,1.33-0.51,1.25-1.41c0.32-0.14,0.72,0.08,0.99-0.25
		c0.35,0.01,0.69,0.02,0.98-0.24c0.22-0.02,0.45-0.04,0.67-0.06c0.56-0.08,1.12-0.16,1.67-0.24C30.95,19.33,32.39,19.26,33.84,19.2z
		"/>
	<path style="fill-rule:evenodd;clip-rule:evenodd;fill:#D1E6EA;" d="M38.4,18.76c-0.55,0.38-1.16,0.16-1.74,0.17
		c-0.02-0.1,0.02-0.16,0.12-0.18C37.31,18.75,37.85,18.76,38.4,18.76z"/>
	<path style="fill-rule:evenodd;clip-rule:evenodd;fill:#4D4744;" d="M36.77,18.75c-0.05,0.05-0.09,0.11-0.12,0.18
		c-0.46,0-0.92,0.01-1.38,0.01C35.74,18.57,36.26,18.74,36.77,18.75z"/>
	<path style="fill-rule:evenodd;clip-rule:evenodd;fill:#232621;" d="M95.77,57.15c-0.61,2.51-2.26,3.5-4.79,3.79
		c-3.85,0.45-7.64,1.55-11.52,1.58c-5.4,0.04-10.71,0.96-16.07,1.33c-0.32,0.15-0.55,0.14-0.56-0.29c0.45-0.71,1.19-0.76,1.9-0.79
		c3.83-0.16,7.61-0.87,11.44-1.07c2.79-0.14,5.58-0.16,8.35-0.61c2.6-0.43,5.17-1.02,7.78-1.4c1.05-0.15,1.79-0.79,2.15-1.85
		c0.24-0.7,0.45-1.46,1.06-1.98C96.18,56.19,95.83,56.7,95.77,57.15z"/>
	<path style="fill-rule:evenodd;clip-rule:evenodd;fill:#292C26;" d="M51.35,65c-2.39,0.38-4.77,0.99-7.17,1.07
		c-2.25,0.08-4.38,0.47-6.52,1.04c-0.69,0.18-0.67-0.28-0.65-0.77c0.15-4.44,0.08-8.87-0.54-13.28c-0.1-0.13-0.08-0.24,0.06-0.32
		c0.96,0.28,0.91,1.13,0.97,1.84c0.09,1.23,0.17,2.46,0.29,3.68c-0.04,0.53,0.11,1.04,0.19,1.55c0.07,0.53,0.06,1.07,0.01,1.6
		c-0.12,1.2,0.11,2.39,0.05,3.59c-0.03,0.71,0.38,0.96,1,0.78c3.14-0.91,6.47-0.26,9.6-1.25c0.42-0.13,0.87-0.12,1.31-0.1
		C50.44,64.58,51.12,64.24,51.35,65z"/>
	<path style="fill-rule:evenodd;clip-rule:evenodd;fill:#262823;" d="M95.77,57.15c-0.06-0.41,0.11-0.86-0.2-1.23
		c-0.7-0.8-0.38-1.7-0.24-2.57c0.09-0.44,0.12-0.9,0.28-1.33c0.05-0.54,0.07-1.09-0.09-1.62c-0.31-1.51-0.3-3.07-0.54-4.59
		c-0.38-2.38-1.54-4.38-2.78-6.36c-0.19-0.61-0.75-1.04-0.88-1.69c0.03-0.19,0.1-0.33,0.33-0.3c2.59,2.67,3.96,5.97,4.46,9.57
		C96.58,50.39,96.57,53.79,95.77,57.15z"/>
	<path style="fill-rule:evenodd;clip-rule:evenodd;fill:#2D2F28;" d="M51.35,65c-0.44-0.37-0.96-0.13-1.43-0.2
		c0.08-0.63,0.61-0.56,1.01-0.59c3.66-0.28,7.33-0.34,10.97-0.85c0.36-0.05,0.72-0.05,0.99,0.28c0.17,0.07,0.34,0.15,0.52,0.22
		c-2.07,0.95-4.33,0.56-6.49,0.91C55.09,65.07,53.21,64.94,51.35,65z"/>
	<path style="fill-rule:evenodd;clip-rule:evenodd;fill:#34342E;" d="M36.5,52.73c-0.01,0.11-0.02,0.23-0.03,0.34
		c-1.71-1.16-2.05-3.05-2.58-4.84c0.08-0.1,0.17-0.2,0.25-0.3c0.16,0.03,0.31,0.1,0.38,0.26C35.15,49.71,35.78,51.24,36.5,52.73z"/>
	<path style="fill-rule:evenodd;clip-rule:evenodd;fill:#373630;" d="M91.65,37.45c-0.08,0.09-0.15,0.17-0.22,0.26
		c-0.05,0.02-0.1,0.04-0.16,0.06c-0.05-0.01-0.11-0.02-0.16-0.03c-0.1-0.04-0.2-0.1-0.29-0.17c-0.32-0.3-0.65-0.59-0.88-0.98
		c-0.04-0.11-0.05-0.21-0.01-0.32c0.11-0.09,0.21-0.18,0.32-0.27C90.82,36.37,91.29,36.86,91.65,37.45z"/>
	<path style="fill-rule:evenodd;clip-rule:evenodd;fill:#E1EEF1;" d="M30.95,50.9c0.07,0.15,0.15,0.3,0.22,0.46
		C31.1,51.21,31.03,51.05,30.95,50.9z"/>
	<path style="fill-rule:evenodd;clip-rule:evenodd;fill:#3A3532;" d="M34.32,25.45c0.01,0.1,0.02,0.2,0.03,0.3
		c0.2,0.36-0.05,0.6-0.25,0.84c-1.01,1.28-2.04,2.54-2.87,3.96c-0.21,0.36-0.43,0.8-1,0.65c-0.06-0.08-0.12-0.15-0.19-0.23
		c0.47-0.8,0.95-1.6,1.42-2.41c0.8-0.96,1.6-1.92,2.41-2.88C34.03,25.61,34.17,25.53,34.32,25.45z"/>
	<path style="fill-rule:evenodd;clip-rule:evenodd;fill:#4B4839;" d="M27.34,34.54c0.09,0.09,0.19,0.17,0.28,0.26
		c0,0.7-0.23,1.25-0.96,1.48c-0.07-0.17-0.13-0.33-0.2-0.5C26.59,35.25,26.97,34.9,27.34,34.54z"/>
	<path style="fill-rule:evenodd;clip-rule:evenodd;fill:#313732;" d="M24.67,40.33c-0.07,0.09-0.14,0.17-0.21,0.26
		c-0.83-0.2-0.85-0.98-1.11-1.58c-0.01-0.12,0.02-0.23,0.08-0.33c0.09-0.01,0.18-0.02,0.27-0.03
		C24.03,39.21,24.35,39.77,24.67,40.33z"/>
	<path style="fill-rule:evenodd;clip-rule:evenodd;fill:#B5D7DC;" d="M23.43,38.87c0.35,0.57,0.69,1.15,1.04,1.72
		c0.5,0.87,1.01,1.73,1.51,2.6c0.19,0.33,0.39,0.65,0.58,0.98c-1.13,0.53-1.94-0.11-2.36-0.96c-1.34-2.71-3.62-4.87-4.5-7.85
		c-0.27-0.92-0.59-1.82-0.46-2.8c1.6,1.87,2.93,3.91,4.04,6.1C23.37,38.7,23.42,38.77,23.43,38.87z"/>
	<path style="fill-rule:evenodd;clip-rule:evenodd;fill:#DEEDF0;" d="M27.37,45.33c0.07,0.09,0.14,0.18,0.21,0.27
		C27.51,45.51,27.44,45.42,27.37,45.33z"/>
	<path style="fill-rule:evenodd;clip-rule:evenodd;fill:#ACD3D8;" d="M23.43,38.87c-0.05-0.07-0.1-0.14-0.15-0.21
		c0.05,0.02,0.1,0.03,0.16,0.02C23.43,38.74,23.43,38.81,23.43,38.87z"/>
	<path style="fill-rule:evenodd;clip-rule:evenodd;fill:#9994A6;" d="M28.34,42.46c-0.01-0.15-0.05-0.31-0.02-0.46
		c0.04-0.22-0.2-0.56,0.23-0.65c0.01,0.2,0,0.41,0.04,0.6c0.05,0.26,0.14,0.51,0.21,0.77C28.65,42.63,28.49,42.54,28.34,42.46z"/>
	<path style="fill-rule:evenodd;clip-rule:evenodd;fill:#CA5628;" d="M62.88,63.63c-3.87,0.57-7.78,0.68-11.68,0.96
		c-0.43,0.03-0.85,0.14-1.28,0.21c-3.47,0.9-7.11,0.48-10.59,1.34c-1.05,0.26-1.94,0.37-1.66-1.28c0.19-1.11-0.32-2.28,0.02-3.42
		c0.87-0.56,1.87-0.55,2.84-0.68c0.28-0.04,0.55,0.08,0.62,0.42c-0.12,2.27-0.14,2.17,2.2,1.57c1.76-0.45,3.55-0.68,5.43-0.55
		c1.79,0.13,3.68-0.13,5.42-0.6c2.71-0.73,5.34-0.7,8.09-0.39c1.01,0.11,2.23-0.33,3.39-0.17c7.15,1,14.1-0.78,21.14-1.46
		c1.68-0.16,3.29-0.54,4.94-0.79c1.33-0.21,1.98-0.89,1.83-2.28c-0.12-1.07-0.17-2.14-0.25-3.21c0.78-0.54,1.56-0.54,2.34-0.01
		c-0.03,0.88-0.07,1.76-0.1,2.64c-0.52,2.78-2.05,4.13-4.99,4.58c-5.16,0.79-10.31,1.46-15.53,1.7c-3.69,0.17-7.37,0.68-11.05,1.06
		C63.62,63.3,63.25,63.5,62.88,63.63z"/>
	<path style="fill-rule:evenodd;clip-rule:evenodd;fill:#CA5628;" d="M89.92,36.27c0.02,0.07,0.05,0.14,0.08,0.2
		c0.21,0.23,0.15,0.48-0.05,0.63c-0.91,0.65-1.78,1.34-2.65,2.04c-0.19,0.16-0.45,0.16-0.67-0.02c-4.01-4.19-7.61-8.82-12.39-12.19
		c-1.89-1.33-3.21-3.19-5.1-4.47c-2.09-1.41-4.24-2.05-6.72-1.19c-3.69,1.27-7.53,1.7-11.4,1.82c-2.03,0.06-3.84,0.84-5.7,1.5
		c-0.19,0.07-0.36,0.44-0.52,0.05c-0.35-0.85-0.95-1.42-1.75-1.89c-0.44-0.26,0.12-0.33,0.23-0.35c2.73-0.56,5.43-1.46,8.22-1.48
		c4.06-0.03,8-0.75,11.94-1.53c0.19-0.04,0.38-0.12,0.57-0.18c1.9-0.56,3.56-0.62,5.25,0.91c1.51,1.37,3.6,2.01,5.28,3.25
		c1.54,1.14,3.08,2.28,4.16,3.89c0.95,1.42,2.48,2.1,3.84,3c2.11,1.38,4.06,2.94,5.79,4.79C88.76,35.54,89.38,35.87,89.92,36.27z"/>
	<path style="fill-rule:evenodd;clip-rule:evenodd;fill:#F9F4B0;" d="M53.04,41.55c1.35-0.58,1.57-1.35,0.74-2.65
		c-0.93-1.46-1.6-3.09-2.38-4.64c-0.12-0.24-0.28-0.67-0.54-0.45c-0.6,0.51-0.72,0.09-0.85-0.34c-0.14-0.49-0.26-0.93,0.44-1.21
		c0.95-0.38,1.68-1.03,1.59-2.21c-0.17-1.02,0.5-1.24,1.29-1.33c1.8,1.09,2.62,2.85,3.11,4.77c0.34,1.34,0.91,2.53,1.66,3.68
		c0.99,1.51,1.57,3.22,2.08,4.94c0.81,2.74,2.11,5.37,2.39,8.24c0.2,2.04,0.15,4.12-0.58,6.1c-0.45,0.33-0.95,0.44-1.49,0.37
		c-0.77-0.36-0.66-1.08-0.53-1.66c0.31-1.43-0.01-2.71-0.51-4.06c-0.42-1.14-0.63-2.31-1.42-3.34c-1.11-1.46-2.38-2.5-4.23-2.75
		C53.71,43.82,52.88,42.8,53.04,41.55z"/>
	<path style="fill-rule:evenodd;clip-rule:evenodd;fill:#CA5628;" d="M36.38,35.96c2.72,0.06,5.39-0.25,8.04-0.85
		c1.11-0.25,1.13-0.8,0.78-1.63c-0.06-0.15-0.12-0.3-0.22-0.42c-2.46-3.08-3.71-7.03-6.84-9.63c-0.19-0.15-0.56-0.27-0.31-0.65
		c0.18-0.27,0.43-0.38,0.72-0.23c1.78,0.85,3.8,1.33,4.97,3.17c0.6,0.94,1.5,1.69,2.08,2.58c1.31,2.06,2.36,4.29,3.46,6.48
		c0.41,0.81,0.2,1.47-0.79,1.66c-3.87,0.73-7.73,1.5-11.65,1.94c-3.33,0.37-6.71,0.44-9.92,1.6c-0.28,0.1-0.7,0.73-0.94,0.02
		c-0.15-0.45-0.16-0.9,0.42-1.3C29.26,36.53,32.83,36.3,36.38,35.96z"/>
	<path style="fill-rule:evenodd;clip-rule:evenodd;fill:#F3E848;" d="M80.88,59.72c-0.41,0.07-0.81,0.13-1.22,0.2
		c-0.24-0.04-0.48-0.09-0.7,0.05c-4.6,0.92-9.22,1.14-13.87,0.29c-0.48,0.19-0.97,0.07-1.46,0.09c-0.11-0.01-0.22-0.01-0.32-0.02
		c-0.32,0.03-0.64,0.08-0.95-0.06l0.01,0.01c-0.05-0.13-0.04-0.24,0.06-0.34c0.84-0.33,1.7-0.63,2.62-0.66
		c0.16,0.02,0.33,0.05,0.49,0.08c0.66-0.17,0.28-0.98,0.78-1.25c0.76-0.45,1.63-0.57,2.44-0.85c1.13-0.39,1.21-0.32,1.41,0.9
		c0,0.15,0.01,0.31,0,0.47c-0.01,0.16-0.03,0.31-0.08,0.46c0.15-0.1,0.09-0.26,0.11-0.39c0.09-0.51,0.17-1.02,0.7-1.29
		c2.14-0.63,4.17-0.59,6.3,0.3c2.88,1.2,5.87,1.16,8.72-0.26c3.45-1.71,4.69-5.35,3.05-8.82c-0.34-0.72-0.63-1.47-1.22-2.05
		c-0.61-0.91-1.17-1.85-1.6-2.86c-0.18-2.47-1.68-3.92-3.79-4.9c-0.72-0.33-1.52-0.46-2.25-0.77c-0.49-0.44-0.87-0.94-0.72-1.66
		c0.59-0.81,1.36-0.64,2.16-0.45c0.75,0.18,1.33,0.7,2.04,0.95l-0.02-0.02c0.51,0.54,0.99,1.11,1.63,1.52
		c0.63,0.81,1.26,1.61,1.88,2.42l-0.06,0.09l0.08-0.07c0.17,0.22,0.35,0.44,0.52,0.67c0.04,0.27,0.23,0.41,0.43,0.55
		c0.23,0.22,0.47,0.45,0.7,0.67c0.39,1.89,1.18,3.64,2.02,5.36c1.65,3.4,0.82,8.19-3.05,10.32c-0.14,0.08-0.29,0.13-0.4,0.26
		c0.13-0.06,0.25-0.12,0.4-0.12c0.25,0.01,0.48,0.06,0.63,0.28c-0.73,0.08-1.47,0.15-2.2,0.22c-0.06-0.06-0.14-0.14-0.22-0.04
		c-0.1,0.12,0-0.07,0.05,0.08c-1.54,0.4-3.12,0.43-4.69,0.53C81.17,59.64,81.01,59.63,80.88,59.72z"/>
	<path style="fill-rule:evenodd;clip-rule:evenodd;fill:#F3E744;" d="M26.65,36.27c0.32-0.49,0.64-0.98,0.96-1.48
		c3.4-1.67,7.32-1.07,10.79-2.49c1-0.41,1.09-0.74,0.72-1.63c-0.4-0.97-0.87-1.88-1.51-2.7c-0.81-1.04-0.84-2.35-1.25-3.54
		c-0.14-0.39,0.37-0.53,0.6-0.76c0.33-0.33,0.44,0.04,0.64,0.2c1.58,1.19,2.91,2.49,3.52,4.51c0.47,1.57,2.17,2.42,2.86,3.95
		c0.08,0.18,0.23,0.32,0.33,0.5c0.61,1.04,0.68,1.67-0.87,1.92c-2.56,0.42-5.09,0.7-7.7,0.72c-3.1,0.03-6.12,0.82-9.01,2.01
		c-0.13,0.05-0.27,0.08-0.4,0.11c-0.01-0.15-0.07-0.31-0.03-0.44C26.39,36.85,26.53,36.57,26.65,36.27z"/>
	<path style="fill-rule:evenodd;clip-rule:evenodd;fill:#F3E846;" d="M36.04,44.09c-0.41-0.94-0.84-1.88-1.24-2.82
		c-0.23-0.53-0.09-0.82,0.55-0.75c1.14,0.12,2.28,0.21,3.41-0.14c0.49-0.15,0.74,0.12,0.82,0.58c0.02,0.12,0.01,0.24,0.04,0.36
		c0.44,2.26,0.44,2.26,2.63,1.95c0.15,0.05,0.31,0.05,0.47,0.05c1.65,0.04,2,0.56,1.52,2.18c-0.67,0.87-1.84,0.67-2.65,1.24
		c0.04,0.43-0.16,0.78-0.38,1.09c-0.7,0.98-1.13,2.06-1.34,3.24c-0.08,0.45-0.17,0.95-0.72,1.13c-0.69-0.04-0.93-0.59-1.22-1.08
		c-0.77-1.31-0.5-2.85-0.92-4.25C36.72,45.93,36.16,45.08,36.04,44.09z"/>
	<path style="fill-rule:evenodd;clip-rule:evenodd;fill:#D68564;" d="M92.34,39.12c2.64,3.3,3.3,7.2,3.43,11.26
		c-0.67,0.88-1.7,0.89-2.64,0.02c0.76-3.96-1.81-6.2-4.35-8.46c-0.09-0.04-0.15-0.11-0.19-0.19l-0.02-0.03
		C88.5,39.88,90.62,38.42,92.34,39.12z"/>
	<path style="fill-rule:evenodd;clip-rule:evenodd;fill:#F5E956;" d="M54.94,23.41c2.89-0.45,5.72-1.19,8.58-1.81
		c3.29-0.71,5.68,1.08,7.62,3.57c0.01,0.82,0.59,1.44,0.76,2.2c0.14,0.65,0.42,1.28,0.2,1.96c-0.46,0.58-1.1,0.57-1.74,0.54
		c-0.64-0.37-0.66-1-0.7-1.63c0.22-0.71-0.12-1.19-0.61-1.67c-0.96-0.95-2.21-1.59-2.86-2.85c-0.23-0.45-0.66-0.35-1.06-0.25
		c-0.62,0.15-1.19,0.47-1.85,0.44c-1.37-0.27-2.68-0.01-3.97,0.4c-0.41,0.13-0.8,0.36-1.25,0.35c-0.34,0.14-0.54-0.71-0.95-0.13
		c-0.41,0.72-1.08,1.01-1.85,1.12c-0.7-0.2-1.32-0.5-1.58-1.26C53.91,23.82,54.57,23.8,54.94,23.41z"/>
	<path style="fill-rule:evenodd;clip-rule:evenodd;fill:#F4E847;" d="M88.36,58.82c-0.42-0.04-0.84-0.09-1.26-0.14
		c0.08-0.6,0.66-0.62,1.03-0.86c2.83-1.8,3.99-6.13,2.53-9.26c-0.77-1.66-1.45-3.36-2.17-5.04c-0.16-0.37-0.27-0.7,0.28-0.8
		c2.43,1.84,4.37,4,3.82,7.34c-0.3,1.83,0.25,3.53,0.45,5.28c0.26,2.29,0.22,2.51-2,2.99C90.15,58.52,89.3,58.92,88.36,58.82z"/>
	<path style="fill-rule:evenodd;clip-rule:evenodd;fill:#CA566E;" d="M30.24,31.2c1.35-1.1,1.76-2.9,3.04-4.07
		c0.43-0.39,0.72-0.92,1.08-1.39c1.37-1.07,1.38-1.07,1.94,0.73c0.38,1.25,1.28,2.19,1.89,3.3c0.83,1.53,0.74,1.87-0.87,2.39
		c-2.62,0.85-5.42,0.7-8.07,1.4c-0.55,0.15-0.3-0.24-0.19-0.48C29.38,32.42,30.08,31.98,30.24,31.2z"/>
	<path style="fill-rule:evenodd;clip-rule:evenodd;fill:#F4E847;" d="M72,29.27c-0.26-1.13-0.43-2.29-1.05-3.31
		c-0.18-0.3-0.18-0.6,0.19-0.79c0.45,0.42,0.9,0.83,1.34,1.25c0.1,0.09,0.2,0.18,0.34,0.2c1.62,0.81,3.04,1.92,4.22,3.25
		c2.13,2.39,4.89,4.2,6.56,7.02c-0.56,0.18-0.98-0.18-1.45-0.37c-0.88-0.37-1.76-0.75-2.65-0.04c-0.61-0.07-0.78-0.61-1.1-1
		c-1.04-1.29-1.85-2.75-3-3.97C74.42,30.48,73.31,29.75,72,29.27z"/>
	<path style="fill-rule:evenodd;clip-rule:evenodd;fill:#F4E848;" d="M56.4,60.48c-2.79,0.9-5.64,1.32-8.58,1.18
		c-1.72-0.08-3.41,0.17-5.04,0.75c-0.76,0.27-1.31,0.42-1.08-0.79c0.16-0.83,0.03-1.71,0.04-2.57c-0.74-0.56-0.9-1.28-0.58-2.13
		c0.34-0.35,0.74-0.29,1.08-0.07c0.89,0.59,1.9,0.97,2.73,1.65c0.11,0.17,0.16,0.36,0.16,0.56c-0.03,1.38-0.02,1.4,1.32,0.81
		c0.91-0.4,1.87-0.42,2.81-0.4c1.04,0.02,2.06-0.07,3.09-0.29c0.92-0.01,1.85-0.09,2.75,0.04C55.78,59.32,56.57,59.44,56.4,60.48z"
		/>
	<path style="fill-rule:evenodd;clip-rule:evenodd;fill:#D68464;" d="M36.5,52.73c-1.35-1.33-1.67-3.16-2.37-4.8
		c-0.03-0.2-0.05-0.4-0.08-0.59c-0.21-0.93,0.44-0.8,0.9-0.63c0.88,0.32,1.71,0.77,2.36,1.47c0.18,1.05,0.26,2.12,0.77,3.09
		c1.31,1.31,2.14,2.89,2.68,4.65c0.21,0.68,0.45,1.36,0.08,2.06c-1.41,1.13-2.43,1.24-3.37,0.36c-0.15-1.53-0.28-3.07-0.45-4.6
		C36.99,53.34,36.96,52.91,36.5,52.73z"/>
	<path style="fill-rule:evenodd;clip-rule:evenodd;fill:#96C7CF;" d="M49.92,34.81c1.14,1.38,0.77,1.87-0.66,2.7
		c-2.49,1.45-5.24,0.99-7.83,1.58c-1.28,0.29-2.48,1.19-3.77,1c-3.42-0.49-6.67,0.83-10.03,0.75c-0.34,0.01-0.76,0.34-0.98-0.21
		c0.65-0.39,1.3-0.86,2.07-0.87c2.63-0.03,5.18-0.75,7.79-0.94c4.33-0.32,8.6-1.05,12.81-2.11C50.48,36.42,49.64,35.42,49.92,34.81
		L49.92,34.81z"/>
	<path style="fill-rule:evenodd;clip-rule:evenodd;fill:#F3E748;" d="M54.94,23.41c-0.15,0.61-0.55,0.86-1.16,0.83
		c-0.4,0.41,0.31,0.73,0.1,1.13c-0.37,0.68-0.99,0.92-1.71,1c-0.36-0.03-0.64-0.24-0.93-0.44c-0.22-0.16-0.34-0.41-0.57-0.55
		c0.13,0.24,0.23,0.49,0.36,0.73c0.08,0.13,0.16,0.26,0.25,0.4c0.06,0.1,0.11,0.2,0.14,0.31c0,0.06,0,0.12,0,0.17
		c-0.14,0.25-0.32,0.33-0.56,0.13l0.01,0.01c-0.07-0.1-0.17-0.17-0.26-0.25c-0.1,0.07-0.2,0.14-0.3,0.21
		c-0.09,0.17-0.2,0.15-0.33,0.05c-0.84,0.15-1.71,0.22-2.38,0.83l-0.06,0.09c-0.82-0.63-1.09-1.69-1.88-2.39
		c-0.39-0.35,0.26-0.67,0.54-0.8c2.22-1.02,4.54-1.48,6.99-1.14c0.33-0.19,0.74,0.03,1.06-0.21C54.48,23.49,54.71,23.45,54.94,23.41
		z"/>
	<path style="fill-rule:evenodd;clip-rule:evenodd;fill:#CA5629;" d="M32.61,44.17c-1.05-0.71-2.2-1.29-3.06-2.26
		c-0.15-0.16-0.24-0.37-0.36-0.56c0.19-0.02,0.38-0.05,0.57-0.07c1.03-0.11,2.05-0.24,3.02-0.66c0.72-0.31,1.26-0.27,1.53,0.67
		c0.21,0.75,0.63,1.45,0.96,2.17c0.08,0.05,0.13,0.13,0.16,0.22c0.03,0.07,0.06,0.15,0.09,0.22c-0.71,1.1-1.71,0.68-2.66,0.51
		l0.01,0C32.8,44.31,32.71,44.24,32.61,44.17z"/>
	<path style="fill-rule:evenodd;clip-rule:evenodd;fill:#C32D35;" d="M49.4,39.4c0.1,0.54,0.2,1.08,0.3,1.63
		c0.12,0.16,0.12,0.33,0,0.49c-1.11,0.25-2.21,0.55-3.34,0.73c-1.27,0.2-1.4-0.85-1.69-1.69c0.15-0.3-0.07-0.61,0.03-0.91
		c0.04-0.1,0.1-0.18,0.17-0.25c1.22-0.1,2.39-0.39,3.54-0.79c0.52-0.19,0.83-0.18,0.82,0.47C49.27,39.19,49.36,39.28,49.4,39.4z"/>
	<path style="fill-rule:evenodd;clip-rule:evenodd;fill:#ACC230;" d="M50.37,41c-0.15-0.53-0.32-1.06-0.45-1.6
		c-0.16-0.68-0.3-1.24,0.63-1.65c1.09-0.48,0.44-1.63,0.57-2.48l-0.02,0.02c1.05,1.43,1.78,3.03,2.56,4.6
		c0.26,0.53,0,0.91-0.56,1.08c-0.8,0.23-1.6,0.45-2.44,0.41c-0.04-0.02-0.08-0.04-0.12-0.05c-0.07-0.05-0.12-0.12-0.16-0.2
		C50.38,41.09,50.38,41.05,50.37,41z"/>
	<path style="fill-rule:evenodd;clip-rule:evenodd;fill:#D78622;" d="M44.4,42.49c-1.1,0.14-2.21,0.31-3.32,0.4
		c-0.97,0.08-0.72-0.77-0.81-1.27c-0.1-0.53-0.59-1.23,0.11-1.6c0.96-0.51,2.23-0.87,3.09-0.41c0.65,0.35,0.78,1.64,1.15,2.52
		C44.7,42.35,44.49,42.38,44.4,42.49z"/>
	<path style="fill-rule:evenodd;clip-rule:evenodd;fill:#F5EA6B;" d="M43.91,45.58c0.56-1.57,0.38-1.81-1.66-2.31
		c1.44-0.17,2.88-0.33,4.32-0.5c0.83,0.09,1.62,0.35,2.36,0.71c0.66,0.32,0.99,0.78,0.51,1.51c-0.85,0.45-1.82,0.37-2.71,0.64
		C45.79,45.63,44.84,45.91,43.91,45.58z"/>
	<path style="fill-rule:evenodd;clip-rule:evenodd;fill:#F3E755;" d="M56.4,60.48c-0.29-0.8-0.92-0.97-1.67-0.96
		c-0.9,0.01-1.8-0.01-2.7-0.02c0.32-0.79,1.05-0.61,1.62-0.59c1.58,0.05,3.14-0.15,4.71-0.19c0.58-0.01,1.08-0.15,1.55-0.46
		c0.87-0.24,1.79-0.69,2.29,0.56c0.05,0.34,0.12,0.69,0.21,1.02c0,0.06,0.01,0.11,0.01,0.17c-0.01,0.09-0.02,0.18-0.03,0.27
		C60.4,60.75,58.38,60.26,56.4,60.48z"/>
	<path style="fill-rule:evenodd;clip-rule:evenodd;fill:#F7EE89;" d="M49.43,44.9c0.11-0.66-0.15-1.04-0.81-1.22
		c-0.72-0.2-1.45-0.41-2.05-0.9c1.28-0.25,2.56-0.49,3.84-0.74c1.66,0.49,2.41,1.56,2.07,2.98c-0.67,0.29-1.41,0.21-2.1,0.41
		C49.98,45.38,49.51,45.48,49.43,44.9z"/>
	<path style="fill-rule:evenodd;clip-rule:evenodd;fill:#CD6236;" d="M86.62,39.13c1.21-0.77,2.38-1.61,3.37-2.65
		c0.33,0.31,0.65,0.63,0.98,0.94c0.06,0.11,0.14,0.2,0.25,0.26l0-0.02c-1.03,1.17-2.23,2.12-3.7,2.69
		C87.22,39.94,86.92,39.53,86.62,39.13z"/>
	<path style="fill-rule:evenodd;clip-rule:evenodd;fill:#94C2CA;" d="M44.45,25.4c2.14,1.44,2.85,4.01,4.57,5.82
		c0.5,0.52,0.29,1.73,0.4,2.62l0.01-0.02c-1.85-2.68-3.11-5.72-5.05-8.34L44.45,25.4z"/>
	<path style="fill-rule:evenodd;clip-rule:evenodd;fill:#CC6338;" d="M41.15,61.18c-1.19-0.41-2.28,0.5-3.46,0.26
		c-0.01-0.56-0.01-1.12-0.02-1.68c1.16-0.43,2.35-0.71,3.59-0.8c0.18,0.17,0.14,0.36,0.07,0.56C41.27,60.08,41.21,60.63,41.15,61.18
		z"/>
	<path style="fill-rule:evenodd;clip-rule:evenodd;fill:#F8F19E;" d="M52.56,44.84c-0.35-1.22-1.01-2.2-2.16-2.81
		c0.14-0.02,0.28-0.04,0.42-0.06c0.23-0.14,0.5-0.06,0.74-0.13c0.49-0.1,0.98-0.19,1.47-0.29c0.18,1.12,1.38,2.02,0.72,3.32
		C53.35,45.23,52.95,45.25,52.56,44.84z"/>
	<path style="fill-rule:evenodd;clip-rule:evenodd;fill:#D1744E;" d="M87.52,40.34c1.15-1.01,2.36-1.93,3.7-2.69
		c0.07,0.01,0.14,0.03,0.2,0.06c0.31,0.47,0.61,0.94,0.92,1.4c-1.96-0.16-3.07,0.92-3.77,2.6C88.23,41.26,87.87,40.8,87.52,40.34z"
		/>
	<path style="fill-rule:evenodd;clip-rule:evenodd;fill:#CC653A;" d="M32.88,44.4c0.83-0.47,1.85,0.07,2.66-0.51
		c0.09,0.16,0.19,0.33,0.28,0.49c0.52,0.47,0.98,0.97,0.83,1.76c-0.26,0.46-0.67,0.37-1.03,0.2c-0.66-0.3-1.36-0.38-2.06-0.46
		C33.33,45.39,33.1,44.89,32.88,44.4z"/>
	<path style="fill-rule:evenodd;clip-rule:evenodd;fill:#D27953;" d="M33.55,45.88c0.62-0.53,1.22-0.23,1.85,0
		c0.34,0.13,0.68,0.68,1.1,0.11c0.79,0.59,0.79,1.39,0.61,2.24c-0.71-0.41-1.4-0.82-2.12-1.21c-0.4-0.22-0.82-0.39-0.94,0.3
		C33.7,46.91,33.5,46.44,33.55,45.88z"/>
	<path style="fill-rule:evenodd;clip-rule:evenodd;fill:#C4566D;" d="M49.98,27.14c0.11-0.02,0.22-0.03,0.33-0.05
		c0.19,0.85,0.44,1.67,0.95,2.41c0.15,0.21,0.28,0.52,0.24,0.76c-0.05,0.38-0.11,0.91-0.52,1c-0.44,0.1,0.03-0.48-0.32-0.68
		c-0.32-0.18-0.55-0.56-0.74-0.9C49.49,28.84,48.88,27.96,49.98,27.14z"/>
	<path style="fill-rule:evenodd;clip-rule:evenodd;fill:#CD6438;" d="M95.67,53.29c-0.78,0-1.56,0-2.34,0.01
		c-0.28-0.45-0.28-0.94-0.23-1.44c0.89-0.59,2.04-0.5,2.8,0.21C95.83,52.47,95.75,52.88,95.67,53.29z"/>
	<path style="fill-rule:evenodd;clip-rule:evenodd;fill:#4A3C31;" d="M41.33,59.52c-0.04-0.16-0.07-0.32-0.11-0.48
		c-0.45-0.3-0.53-0.73-0.38-1.22c-0.33-2.44-1.35-4.57-2.87-6.47c0.03-0.12,0.1-0.21,0.21-0.26c0.29,0.34,0.58,0.68,0.87,1.02
		c1.53,1.23,2.07,2.91,2.18,4.79c0,0.76,0.24,1.46,0.51,2.15C41.6,59.21,41.47,59.37,41.33,59.52z"/>
	<path style="fill-rule:evenodd;clip-rule:evenodd;fill:#D17651;" d="M95.9,52.06c-0.91-0.37-1.86-0.22-2.8-0.21
		c0.01-0.48,0.02-0.97,0.03-1.45c0.88,0.31,1.76,0.45,2.64-0.02C96.07,50.92,96.03,51.49,95.9,52.06z"/>
	<path style="fill-rule:evenodd;clip-rule:evenodd;fill:#F2E87A;" d="M50.87,27.12c0.17-0.08,0.33-0.17,0.5-0.25
		c1.02,0.26,1.76,0.8,1.86,1.95c-0.41,0.4-1.12,0.5-1.18,1.23C51.47,29.14,51.04,28.18,50.87,27.12z"/>
	<path style="fill-rule:evenodd;clip-rule:evenodd;fill:#42372C;" d="M38.17,51.09c-0.07,0.09-0.14,0.17-0.21,0.26
		c-0.72-0.92-0.56-2.08-0.85-3.11C37,47.47,36.97,46.67,36.51,46c-0.23-0.54-0.46-1.08-0.7-1.62c0.08-0.1,0.15-0.19,0.23-0.29
		c1.08,1.33,1.38,2.95,1.66,4.58C37.84,49.48,38.01,50.28,38.17,51.09z"/>
	<path style="fill-rule:evenodd;clip-rule:evenodd;fill:#4D946C;" d="M47.54,28.07l0-0.08c0,0,0.07-0.02,0.07-0.02
		c1.71,0.28,1.6,2.06,2.49,3.01c-0.08,0.23-0.1,0.45,0.02,0.67c-0.57-0.69-1.13-1.38-1.7-2.07C48.03,29.13,47.6,28.71,47.54,28.07z"
		/>
	<path style="fill-rule:evenodd;clip-rule:evenodd;fill:#94B6C2;" d="M43.6,24.31c-0.86-0.67-2.13-0.62-2.8-1.61
		c-0.11-0.1-0.1-0.21,0.01-0.3c0.93,0.7,2.27,0.72,2.97,1.79C43.77,24.31,43.71,24.35,43.6,24.31z"/>
	<path style="fill-rule:evenodd;clip-rule:evenodd;fill:#F4E847;" d="M85.2,38.39c-0.86-0.17-1.25-0.83-1.63-1.52
		C84.17,37.32,84.78,37.76,85.2,38.39z"/>
	<path style="fill-rule:evenodd;clip-rule:evenodd;fill:#D07B30;" d="M44.83,39.56c0.05,0.35,0.41,0.74-0.16,0.99
		c-0.16-0.29-0.39-0.55-0.26-0.92C44.52,39.47,44.67,39.47,44.83,39.56z"/>
	<path style="fill-rule:evenodd;clip-rule:evenodd;fill:#ADADB4;" d="M44.38,25.48c-0.53-0.21-0.54-0.77-0.79-1.17
		c0.06-0.05,0.11-0.09,0.18-0.13c0.22,0.4,0.45,0.81,0.67,1.21L44.38,25.48z"/>
	<path style="fill-rule:evenodd;clip-rule:evenodd;fill:#9CA7AF;" d="M26.65,40.63c0.33,0.07,0.65,0.14,0.98,0.21
		c-0.38,0.07-0.75,0.14-1.13,0.2c-0.13,0.02-0.35,0.03-0.24-0.2C26.31,40.73,26.51,40.7,26.65,40.63z"/>
	<path style="fill-rule:evenodd;clip-rule:evenodd;fill:#7E757A;" d="M49.7,41.52c0-0.16,0-0.33,0-0.49
		c0.23,0.21,0.45,0.21,0.67-0.02c0,0,0.09,0.07,0.09,0.07c0.03,0.07,0.07,0.12,0.13,0.17c0.04,0.04,0.06,0.09,0.07,0.14
		C50.34,41.43,50.02,41.47,49.7,41.52z"/>
	<path style="fill-rule:evenodd;clip-rule:evenodd;fill:#F3E755;" d="M63.64,60.34c0.49-0.03,0.97-0.06,1.46-0.09
		C64.63,60.59,64.13,60.4,63.64,60.34z"/>
	<path style="fill-rule:evenodd;clip-rule:evenodd;fill:#F4E847;" d="M88.06,42.05c-0.41,0.02-0.67-0.07-0.43-0.55
		C87.78,41.68,87.92,41.87,88.06,42.05z"/>
	<path style="fill-rule:evenodd;clip-rule:evenodd;fill:#F5E956;" d="M54.25,23.53c-0.3,0.34-0.69,0.21-1.06,0.21
		C53.51,23.48,53.88,23.51,54.25,23.53z"/>
	<path style="fill-rule:evenodd;clip-rule:evenodd;fill:#C7CDE1;" d="M40.8,22.4c0,0.1-0.01,0.2-0.01,0.3
		c-0.24-0.13-0.47-0.27-0.71-0.4c0-0.05,0-0.11-0.01-0.16C40.32,22.22,40.56,22.31,40.8,22.4z"/>
	<path style="fill-rule:evenodd;clip-rule:evenodd;fill:#6A777A;" d="M51.12,35.27c-0.26-0.13-0.36-0.35-0.31-0.63
		c0-0.01,0.2-0.01,0.2,0c0.04,0.21,0.07,0.43,0.09,0.65L51.12,35.27z"/>
	<path style="fill-rule:evenodd;clip-rule:evenodd;fill:#F3E755;" d="M62.36,60.27c0.32,0.02,0.63,0.04,0.95,0.06
		C62.99,60.45,62.67,60.52,62.36,60.27z"/>
	<path style="fill-rule:evenodd;clip-rule:evenodd;fill:#F7EE89;" d="M51.57,41.84c-0.25,0.04-0.5,0.09-0.74,0.13
		C51.03,41.69,51.3,41.78,51.57,41.84z"/>
	<path style="fill-rule:evenodd;clip-rule:evenodd;fill:#F4E853;" d="M78.96,59.97c0.21-0.26,0.45-0.26,0.7-0.05
		C79.43,59.93,79.2,59.95,78.96,59.97z"/>
	<path style="fill-rule:evenodd;clip-rule:evenodd;fill:#4C9E70;" d="M50.11,31.66c-0.23-0.22-0.23-0.44-0.02-0.67
		C50.1,31.21,50.11,31.43,50.11,31.66z"/>
	<path style="fill-rule:evenodd;clip-rule:evenodd;fill:#A5A8AB;" d="M49.93,34.81c-0.33-0.03-0.24-0.28-0.26-0.48l-0.02,0.02
		C50,34.35,49.93,34.6,49.93,34.81C49.92,34.81,49.93,34.81,49.93,34.81z"/>
	<path style="fill-rule:evenodd;clip-rule:evenodd;fill:#DEC9C3;" d="M44.83,39.56c-0.14,0.02-0.28,0.05-0.42,0.07
		c-0.06-0.48,0.24-0.29,0.46-0.24C44.85,39.44,44.83,39.5,44.83,39.56z"/>
	<path style="fill-rule:evenodd;clip-rule:evenodd;fill:#A599AB;" d="M49.68,34.33c-0.25-0.09-0.28-0.28-0.24-0.51l-0.01,0.02
		c0.41,0.02,0.22,0.31,0.23,0.51C49.66,34.34,49.68,34.33,49.68,34.33z"/>
	<path style="fill-rule:evenodd;clip-rule:evenodd;fill:#ABAAB5;" d="M44.4,42.49c0.07-0.12,0.15-0.24,0.22-0.36
		c0.05,0.08,0.11,0.17,0.16,0.25C44.65,42.42,44.52,42.45,44.4,42.49z"/>
	<path style="fill-rule:evenodd;clip-rule:evenodd;fill:#CED7E6;" d="M40.08,22.14c0,0.06,0,0.11,0.01,0.16
		c-0.17,0-0.38,0.14-0.44-0.16C39.79,22.14,39.94,22.14,40.08,22.14z"/>
	<path style="fill-rule:evenodd;clip-rule:evenodd;fill:#F4E847;" d="M86,59.08c-0.03-0.07-0.05-0.14-0.08-0.22
		c0.08,0.06,0.16,0.12,0.24,0.18l-0.07,0.07L86,59.08z"/>
	<path style="fill-rule:evenodd;clip-rule:evenodd;fill:#F4E853;" d="M80.88,59.72c0.11-0.18,0.25-0.23,0.43-0.11
		C81.17,59.65,81.03,59.68,80.88,59.72z"/>
	<path style="fill-rule:evenodd;clip-rule:evenodd;fill:#D1744E;" d="M88.6,41.75c0.06,0.06,0.13,0.13,0.19,0.19
		C88.73,41.88,88.66,41.81,88.6,41.75z"/>
	<path style="fill-rule:evenodd;clip-rule:evenodd;fill:#F5E956;" d="M72.81,26.61c-0.11-0.07-0.22-0.14-0.34-0.2
		C72.59,26.48,72.7,26.55,72.81,26.61z"/>
	<path style="fill-rule:evenodd;clip-rule:evenodd;fill:#7D6B66;" d="M49.4,39.4c-0.06-0.11-0.11-0.22-0.17-0.34
		C49.29,39.18,49.34,39.29,49.4,39.4z"/>
	<path style="fill-rule:evenodd;clip-rule:evenodd;fill:#CC653A;" d="M35.44,43.67c-0.05-0.07-0.11-0.15-0.16-0.22
		C35.33,43.52,35.38,43.6,35.44,43.67z"/>
	<path style="fill-rule:evenodd;clip-rule:evenodd;fill:#CC653A;" d="M32.61,44.17c0.09,0.08,0.18,0.16,0.27,0.24
		C32.79,44.33,32.7,44.25,32.61,44.17z"/>
	<path style="fill-rule:evenodd;clip-rule:evenodd;fill:#F2E87A;" d="M50.62,26.88c0.09,0.08,0.17,0.17,0.26,0.25
		C50.79,27.05,50.71,26.97,50.62,26.88z"/>
	<path style="fill-rule:evenodd;clip-rule:evenodd;fill:#D37953;" d="M40.84,57.82c0.13,0.41,0.25,0.81,0.38,1.22
		c-1.12,0.55-2.29,0.88-3.55,0.73c-0.3-0.45-0.2-0.95-0.2-1.44C38.72,58.99,39.77,58.3,40.84,57.82z"/>
	<path style="fill-rule:evenodd;clip-rule:evenodd;fill:#D1744E;" d="M91.22,37.67c-0.08-0.09-0.17-0.18-0.25-0.26
		C91.06,37.5,91.14,37.59,91.22,37.67z"/>
	<path style="fill-rule:evenodd;clip-rule:evenodd;fill:#1B231F;" d="M52.56,44.84c0.4,0.01,0.8,0.02,1.2,0.03
		c0.87,0.32,1.95-0.14,2.69,0.7c1.14,1.31,2.65,2.42,3.1,4.15c0.52,2.03,1.27,4.09,0.71,6.27c-0.05,0.2,0.09,0.45,0.15,0.67
		c0.53,0.82,0.07,1.37-0.52,1.88c-0.4,0.5-0.97,0.46-1.52,0.52c-2.11,0.24-4.26-0.19-6.34,0.43c-0.78,0.31-1.56,0.38-2.41,0.31
		c-1.34-0.12-2.68,0.02-3.9,0.71c-0.4,0.23-0.86,0.4-1.22,0.04c-0.35-0.34,0.14-0.63,0.22-0.95c0.08-0.34,0.11-0.7,0.15-1.05
		c-0.21-0.46,0.06-0.85,0.16-1.27c0.1-0.31,0.22-0.6,0.36-0.89c0.14-0.28,0.29-0.56,0.43-0.84c0.04-0.09,0.1-0.19,0.15-0.28
		c0.07-0.14,0.13-0.28,0.17-0.44c-0.35-1.45-0.28-3.03-1.38-4.24c-0.22-0.23-0.3-0.56-0.33-0.89c0-0.24,0.06-0.46,0.28-0.58
		c0.58,0.05,1.18,0.23,1.74-0.13c0.1-0.05,0.2-0.09,0.29-0.14c0.53-0.32,1.22-0.33,1.62-0.87c0.01-0.08,0.01-0.17,0-0.25
		c-0.02-0.04-0.03-0.08-0.05-0.11c-0.05-0.07-0.11-0.13-0.17-0.19c-0.04-0.03-0.07-0.05-0.1-0.08c-0.08-0.05-0.15-0.1-0.23-0.14
		c-0.09-0.04-0.17-0.1-0.25-0.15c-0.13-0.08-0.25-0.16-0.38-0.25c-1.19-1.12-2.47-0.57-3.72-0.2c-0.11,0.05-0.21,0.12-0.22,0.27
		c0.04,0.13,0.09,0.26,0.09,0.4c-0.03,0.16-0.12,0.27-0.27,0.33c-0.1,0.02-0.2,0.03-0.31,0.02c-0.15-0.04-0.3-0.09-0.44-0.16
		c-0.1-0.04-0.19-0.09-0.28-0.15c-0.36-0.15-0.38-0.63-0.75-0.77c-0.12-0.15-0.31-0.29-0.35-0.46c-0.05-0.2,0.19-0.28,0.31-0.19
		c1.01,0.77,1.78-0.27,2.67-0.34c0.94-0.3,1.91-0.28,2.89-0.22c0.24-0.17,0.49-0.15,0.74-0.01c0.05,0.09,0.07,0.19,0.05,0.29
		c-0.1,0.24,0.16,0.12,0.22,0.21c0.59,0.35,1.21,0.68,1.53,1.3c0.53,1.04,1.38,1.35,2.47,1.27c0.62-0.04,1.25-0.01,1.88,0.03
		c-0.5-0.38-0.89-0.88-1.41-1.23c-0.66-0.44-0.73-1.46-1.64-1.65c-0.15-0.1-0.28-0.21-0.22-0.42
		C51.12,45.04,51.84,44.94,52.56,44.84z"/>
	<path style="fill-rule:evenodd;clip-rule:evenodd;fill:#D28D4A;" d="M53.22,28.81c-0.48-0.79-1.12-1.41-1.86-1.95l0.01,0.01
		c-0.08-0.07-0.16-0.14-0.25-0.2c-0.55-0.65-0.96-1.37-1.15-2.21c0.88,0.03,0.93,1.04,1.57,1.36c0.17,0.09,0.31,0.24,0.47,0.36
		c0.71,0.28,0.99,0.97,1.44,1.5c0.34,0.42,0.63,0.89,1.01,1.28c0.08,0.08,0.16,0.16,0.24,0.24c0.09,0.08,0.17,0.16,0.25,0.24
		c0.04,0.04,0.08,0.08,0.13,0.13c0.09,0.08,0.17,0.17,0.25,0.27c0.33,0.41,0.59,0.87,0.76,1.36c1.85,5.18,4.62,9.99,6.11,15.32
		c0.79,2.81,1.19,5.62,0.77,8.52c-0.02,0.66,0.05,1.32-0.01,1.97c-0.01,0.27-0.06,0.54-0.22,0.76c-0.27,0.25-0.48,0.07-0.69-0.1
		c-0.24-0.4-0.45-0.81-0.16-1.28c1.08-4.68-0.18-9.04-1.73-13.38c-0.87-2.44-1.66-4.9-3.19-7.04c-0.29-0.4-0.42-0.94-0.55-1.44
		C55.88,32.33,55.11,30.26,53.22,28.81z"/>
	<path style="fill-rule:evenodd;clip-rule:evenodd;fill:#F5EA7C;" d="M61.91,56.39c0.08,0.4,0.17,0.8,0.25,1.21
		c0.29,0.62,0.67,1.24-0.22,1.71c-0.12-1.79-1.27-0.78-2.06-0.76c0.42-0.56,0.36-1.25,0.52-1.88C60.9,56.58,61.41,56.49,61.91,56.39
		z"/>
	<path style="fill-rule:evenodd;clip-rule:evenodd;fill:#1B221F;" d="M86.39,43.72c0.49,0.87,0.97,1.73,1.46,2.6
		c1.15,1.65,1.28,3.58,1.54,5.49c-0.02,0.27-0.02,0.53-0.04,0.8c-0.08,0.55-0.31,1.07-0.48,1.6c-0.35,1.1-1.08,1.79-2.2,2.15
		c-1.12,0.36-2.26,0.44-3.41,0.5c-1.99,0.11-3.96,0.35-5.94,0.54c-1.01,0.1-1.97-0.12-2.92-0.4c-0.2-0.01-0.37-0.1-0.54-0.2
		c-0.25-0.21-0.39-0.5-0.47-0.81c-0.09-0.36-0.17-0.72-0.13-1.1c0.1-0.48,0.08-0.97,0.16-1.45c0.14-0.54,0.15-1.1,0.2-1.66
		c0.14-0.69,0.19-1.38,0.25-2.07c0.06-0.25,0.15-0.47,0.41-0.57c0.69,0.15,0.64,0.74,0.68,1.23c0.07,0.97,0.68,0.94,1.36,0.77
		c0.68-0.18,1.62-0.04,1.41-1.27c-0.36-2.18-1.34-2.69-3.81-1.88c-0.16,0.08-0.33,0.13-0.52,0.09c-0.43-0.21-0.67-0.54-0.61-1.03
		c0.06-0.18,0.17-0.31,0.35-0.38c0.59-0.06,1.18-0.08,1.77-0.18c0.23-0.04,0.56-0.01,0.63-0.24c0.11-0.32-0.25-0.45-0.44-0.63
		c-0.35-0.32-0.69-0.65-1.02-1c-0.81-0.89-1.2-0.85-1.75,0.19c-0.13,0.24-0.18,0.53-0.48,0.64c-0.25,0.02-0.45-0.08-0.63-0.25
		c-0.1-0.15-0.14-0.32-0.12-0.5c0.1-0.52,0.32-0.97,0.69-1.34c0.12-0.12,0.25-0.22,0.4-0.29c0.15-0.07,0.3-0.11,0.46-0.13
		c0.25-0.03,0.5-0.06,0.74-0.15c0.14-0.05,0.29-0.1,0.44-0.14c0.15-0.06,0.3-0.11,0.46-0.15c0.11-0.03,0.22-0.05,0.33-0.07
		c0.4-0.04,0.79-0.03,1.19-0.04c0.22,0,0.45,0,0.67,0c0.37,0,0.75,0.03,1.11-0.08c0.15-0.04,0.3-0.07,0.45-0.09
		c0.2-0.04,0.39-0.09,0.54-0.22c0.08-0.07,0.16-0.14,0.24-0.21c1.08-0.31,2.04,0.39,3.09,0.35c0.23-0.01,0.46-0.01,0.7-0.01
		c0.67,0.07,1.3-0.34,1.97-0.12C85.39,42.38,86.06,42.87,86.39,43.72z"/>
	<path style="fill-rule:evenodd;clip-rule:evenodd;fill:#1A201C;" d="M72,29.27c2.35,0.01,3.49,1.84,4.78,3.33
		c1.03,1.19,1.82,2.58,2.72,3.88c0.23,0.48,0.46,0.96,0.69,1.44c0.26,0.38,0.17,0.72-0.13,1.03c-0.36,0.27-0.78,0.36-1.21,0.46
		c-0.18,0.04-0.36,0.05-0.54,0.09c-0.18,0.06-0.36,0.11-0.54,0.15c-2.09,0.18-4.17,0.51-6.23,0.88c-1.66,0.3-3.04-0.16-4.35-1.1
		c-0.91-1.01-1.67-2.11-2.11-3.42c0-0.26,0.09-0.47,0.31-0.61c0.47-0.21,0.97-0.33,1.44-0.56c1.61-0.8,1.74-1.69,0.45-2.93
		c-0.44-0.42-0.89-0.2-1.33-0.06c-0.65,0.21-1.18,0.51-1.07,1.33c0.02,0.22,0.06,0.43,0.11,0.64c0.02,0.11,0.03,0.22,0.03,0.33
		c-0.04,0.24-0.12,0.44-0.4,0.48c-0.11-0.04-0.2-0.11-0.28-0.2c-0.11-0.14-0.21-0.29-0.29-0.44c-0.16-0.32-0.29-0.66-0.4-1
		c-0.37-1.15-0.13-1.61,1.04-1.95c0.69-0.2,1.36-0.47,2.02-0.73c0.27-0.09,0.55-0.13,0.82-0.21c0.1-0.04,0.21-0.07,0.32-0.09
		c0.38-0.08,0.75-0.18,1.13-0.27c0.44-0.07,0.88-0.21,1.34-0.05C70.86,29.5,71.5,29.68,72,29.27z"/>
	<path style="fill-rule:evenodd;clip-rule:evenodd;fill:#F4E853;" d="M74.18,56.87c1.5,0.39,2.99,0.16,4.49-0.01
		c2.44-0.27,4.89-0.46,7.34-0.71c1.5-0.15,2.35-1,2.64-2.48c0.08-0.42,0.36-0.79,0.55-1.18c-0.06-0.2-0.07-0.39,0.02-0.58
		c-0.52-1.85-0.65-3.8-1.38-5.59c1.86,1.96,2.65,4.32,2,6.91c-0.75,3-2.97,4.66-5.9,5.31c-2.63,0.58-5.23,0.42-7.68-0.83
		c-1.82-0.94-3.66-0.18-5.49-0.1c-0.15-0.15-0.21-0.33-0.21-0.53c0.68-1.27,1.84-1.25,3.04-1.13c0.1,0.24,0.21,0.47,0.31,0.71
		C74.01,56.72,74.08,56.81,74.18,56.87z"/>
	<path style="fill-rule:evenodd;clip-rule:evenodd;fill:#D38A49;" d="M53.74,25.23c-0.08-0.41-0.75-0.55-0.57-1.03
		c0.1-0.27,0.4,0,0.61,0.04c0.27,0.61,0.9,0.82,1.34,1.24c0.65,0.16,0.76,0.83,1.15,1.23c0.25,0.33,0.47,0.69,0.72,1.02
		c0.07,0.09,0.13,0.17,0.19,0.26c0.07,0.09,0.14,0.17,0.21,0.26c0.04,0.04,0.07,0.09,0.11,0.13c0.08,0.09,0.15,0.18,0.23,0.27
		c2.87,4.14,5,8.61,6.21,13.51c0.06,0.23,0.1,0.48,0.21,0.69c1.88,3.55,2.04,7.5,2.56,11.36c0.01,0.13,0,0.26-0.03,0.39
		c-0.19,0.85-0.06,1.71-0.08,2.56c0.01,0.42-0.06,0.82-0.34,1.16c-0.26,0.47,0.45,1.46-0.75,1.44c-0.07-0.12-0.13-0.24-0.19-0.37
		c-0.42-1.3,0.13-2.57,0.09-3.85c-0.02-0.33,0.03-0.66,0-0.98c-0.34-3.65-0.59-7.31-2.19-10.71c-0.61-1.3-0.79-2.76-1.25-4.12
		c-1.07-3.2-2.7-6.13-4.26-9.09c-0.09-0.14-0.18-0.29-0.28-0.44c-0.44-0.55-0.88-1.11-1.27-1.71c-0.32-0.48-0.71-0.92-1.03-1.41
		c-0.06-0.08-0.11-0.17-0.17-0.26c-0.08-0.13-0.17-0.26-0.27-0.38C54.37,26.05,53.93,25.74,53.74,25.23z"/>
	<path style="fill-rule:evenodd;clip-rule:evenodd;fill:#D38A48;" d="M70.79,57.13c0,0.16,0,0.31-0.01,0.47
		c-0.19,0.65-0.4,1.29-0.33,1.98c0.03,0.29,0.1,0.63-0.32,0.61c-0.43-0.01-0.28-0.4-0.29-0.65c-0.02-0.4,0-0.8,0-1.2
		c0.37-0.73-0.13-1.42-0.12-2.13c0.03-0.39-0.02-0.78,0-1.17c-0.04-0.69,0.24-1.36,0.09-2.05c0.02-1.77-0.39-3.47-0.78-5.18
		c-0.26-1.17-0.62-2.3-1.32-3.3c-0.7-1-0.85-2.23-1.27-3.34c-0.41-1.07-1.28-1.94-1.36-3.15c0.04-0.19,0.13-0.35,0.31-0.44
		c0.94,0.13,0.95,1.14,1.54,1.6c0.36,0.52,0.51,1.14,0.7,1.73c0.16,0.41,0.31,0.83,0.47,1.25c0.04,0.11,0.08,0.21,0.12,0.32
		c0.07,0.23,0.17,0.44,0.26,0.66c1.13,2.08,2.13,4.2,2.35,6.62c0.09,0.99-0.03,2,0.22,2.98c0.04,0.19,0.07,0.38,0.08,0.58
		c0.1,0.79-0.21,1.54-0.21,2.31C71.04,56.15,70.51,56.61,70.79,57.13z"/>
	<path style="fill-rule:evenodd;clip-rule:evenodd;fill:#F4E960;" d="M79.9,38.87c0.25-0.27,0.35-0.58,0.28-0.95
		c3.45,0.29,6.23,2.89,6.21,5.8c-0.56-0.47-1.13-0.94-1.69-1.4c-0.42-0.28-0.85-0.52-1.18-0.93c-0.61-0.76-1.42-1.26-2.35-1.57
		C80.65,39.65,80.06,39.53,79.9,38.87z"/>
	<path style="fill-rule:evenodd;clip-rule:evenodd;fill:#F6EB67;" d="M69.96,56.12c0.11,0.75,0.24,1.5-0.11,2.22
		c0.08-0.8,0-1.27-1.02-0.79c-0.8,0.38-1.71,0.52-2.57,0.77c0.03-0.42,0.05-0.83,0.08-1.25C66.88,55.97,69.08,55.4,69.96,56.12z"/>
	<path style="fill-rule:evenodd;clip-rule:evenodd;fill:#F3E755;" d="M65.27,59.53c-1-0.09-1.84,0.72-2.86,0.47l-0.03-0.05
		c-0.05-0.53,0.19-0.97,0.44-1.41c0.26-0.26,0.6-0.35,0.94-0.44c1.85-0.47,1.75-0.09,1.63,1.25C65.35,59.42,65.31,59.48,65.27,59.53
		z"/>
	<path style="fill-rule:evenodd;clip-rule:evenodd;fill:#F3E755;" d="M65.41,59.52c0.03,0.08,0.07,0.16,0.1,0.24
		c-0.08-0.08-0.16-0.15-0.24-0.23l0.02-0.02L65.41,59.52z"/>
	<path style="fill-rule:evenodd;clip-rule:evenodd;fill:#F4E847;" d="M87.11,40.83c-0.02,0.03-0.04,0.05-0.06,0.08
		c0.01-0.03,0.02-0.07,0.04-0.1L87.11,40.83z"/>
	<path style="fill-rule:evenodd;clip-rule:evenodd;fill:#F5EA60;" d="M41.27,46.58c0.46,0.04,0.67,0.44,0.97,0.7
		c0.06,0.07,0.14,0.1,0.23,0.09c0.08,0.05,0.16,0.11,0.24,0.16c0.37,0.54-0.07,0.91-0.31,1.28c-1.91,2.93-0.91,5.81,1.86,7.62
		c0.39,0.26,0.89,0.4,1.04,0.93c-0.14,0.4-0.29,0.81-0.43,1.21c-1.38-0.19-2.23-1.54-3.64-1.67c-0.63-1.64-1.12-3.35-2.18-4.79
		C39.79,50.27,40.53,48.42,41.27,46.58z"/>
	<path style="fill-rule:evenodd;clip-rule:evenodd;fill:#1E201C;" d="M63.35,23.68c0.72-0.22,1.44-0.44,2.16-0.66
		c0.34-0.11,0.65-0.1,0.81,0.26c0.63,1.42,1.98,2.1,3.01,3.12c0.4,0.4,1.34,0.83,0.53,1.69c-0.36,0.42-0.87,0.53-1.37,0.65
		c-0.32,0.09-0.65,0.13-0.97,0.24c-0.16,0.06-0.32,0.1-0.48,0.15c-0.16,0.06-0.33,0.11-0.5,0.16c-0.12,0.04-0.23,0.07-0.35,0.09
		c-2.5,0.58-3.14,0.2-4-2.35c0-0.12,0.03-0.23,0.08-0.34c0.22-0.34,1-0.18,0.84-0.82c-0.17-0.67-0.77-0.85-1.38-0.95
		c-0.52-0.07-0.74-0.3-0.47-0.82c0.22-0.35,0.58-0.34,0.92-0.39c0.17-0.02,0.34-0.03,0.5-0.07C62.91,23.64,63.13,23.63,63.35,23.68z
		"/>
	<path style="fill-rule:evenodd;clip-rule:evenodd;fill:#D38A48;" d="M65.59,37.66c-0.12,0.1-0.24,0.2-0.36,0.31
		c-0.38,0.02-0.6-0.23-0.74-0.51c-1.78-3.54-4.51-6.51-6.17-10.12c-0.24-0.49-0.44-1.01-0.69-1.5c-0.3-0.5-0.63-1-0.75-1.59
		c-0.01-0.23-0.03-0.53,0.26-0.54c0.5-0.02,0.43,0.56,0.72,0.79c0.47,0.26,0.67,0.72,0.9,1.16c0.29,0.54,0.47,1.12,0.78,1.64
		c1.43,2.82,3.5,5.23,5.05,7.96c0.16,0.28,0.34,0.54,0.44,0.85C65.18,36.63,65.87,36.98,65.59,37.66z"/>
	<path style="fill-rule:evenodd;clip-rule:evenodd;fill:#F6EB76;" d="M58.56,25.68c-0.23-0.4-0.47-0.8-0.7-1.2
		c1.78-0.61,3.53-1.42,5.49-0.8c-0.21,0.04-0.41,0.08-0.62,0.12c-0.13-0.01-0.21,0.09-0.31,0.14c-0.33,0.1-0.65,0.21-0.98,0.31
		c-0.4,0.23-0.48,0.78-0.93,0.97C59.88,25.45,59.33,26.05,58.56,25.68z"/>
	<path style="fill-rule:evenodd;clip-rule:evenodd;fill:#F5EA70;" d="M56.88,24.23c0.32,0.48,0.64,0.96,0.96,1.44
		c-0.34,0.71-1.11,0.85-1.7,1.23c-0.34-0.48-0.68-0.96-1.02-1.44C55.76,25.13,56.67,25.17,56.88,24.23z"/>
	<path style="fill-rule:evenodd;clip-rule:evenodd;fill:#F2E876;" d="M68.34,28.52c0.51-0.14,1.01-0.28,1.52-0.42
		c0.15,0.53,0.3,1.06,0.45,1.58c-0.48,0.09-0.9,0.46-1.43,0.31C68.44,29.59,68.32,29.08,68.34,28.52z"/>
	<path style="fill-rule:evenodd;clip-rule:evenodd;fill:#282926;" d="M35.79,28.15c-0.22,0.84-0.63,1.51-1.55,1.6
		c-0.55,0.05-0.83-0.42-0.73-0.87c0.18-0.79,0.38-1.71,1.46-1.71C35.54,27.17,35.72,27.66,35.79,28.15z"/>
	<path style="fill-rule:evenodd;clip-rule:evenodd;fill:#292826;" d="M33.18,30.15c0.4,0.14,0.64,0.33,0.53,0.72
		c-0.19,0.74-0.63,1.33-1.39,1.47c-0.49,0.09-0.68-0.37-0.6-0.81C31.88,30.71,32.71,30.6,33.18,30.15z"/>
	<path style="fill-rule:evenodd;clip-rule:evenodd;fill:#352E2C;" d="M36.77,30.97c-0.15,0.58-0.55,0.63-0.98,0.4
		c-0.26-0.14-0.25-0.44-0.11-0.73c0.27-0.56,0.87-0.65,1.33-0.72c0.3-0.05,0.28,0.45,0.02,0.72C36.85,30.68,36.74,30.77,36.77,30.97
		z"/>
	<path style="fill-rule:evenodd;clip-rule:evenodd;fill:#389189;" d="M36.77,30.97c-0.2-0.02-0.56,0.09-0.45-0.25
		c0.12-0.37,0.44-0.34,0.7-0.07C36.94,30.75,36.86,30.86,36.77,30.97z"/>
	<path style="fill-rule:evenodd;clip-rule:evenodd;fill:#F5EA69;" d="M53.74,25.23c0.56,0.23,0.91,0.67,1.23,1.15
		c0.08,0.08,0.14,0.18,0.21,0.27c0.04,0.05,0.07,0.11,0.07,0.17c-0.5,0.67-1.2,0.93-2,1.02c-0.41-0.56-0.82-1.11-1.23-1.67
		C52.67,26,53.32,25.82,53.74,25.23z"/>
	<path style="fill-rule:evenodd;clip-rule:evenodd;fill:#F2E87A;" d="M51.13,26.67c0.08,0.07,0.17,0.14,0.25,0.2
		C51.29,26.81,51.21,26.74,51.13,26.67z"/>
	<path style="fill-rule:evenodd;clip-rule:evenodd;fill:#D4DFA0;" d="M50.59,41.24c-0.04-0.06-0.09-0.11-0.13-0.17
		C50.51,41.13,50.55,41.19,50.59,41.24z"/>
	<path style="fill-rule:evenodd;clip-rule:evenodd;fill:#343227;" d="M50.41,45.14c0.09,0.09,0.18,0.19,0.28,0.28
		c-0.84,0.74-1.99,0.78-3.14,0.13c-0.25-0.07-0.5-0.13-0.75-0.2c0.84-0.38,1.74-0.4,2.63-0.46C49.75,44.98,50.08,45.06,50.41,45.14z
		"/>
	<path style="fill-rule:evenodd;clip-rule:evenodd;fill:#BE8044;" d="M62.85,58.84c0.04,0.46-0.24,0.78-0.48,1.12
		c-0.36-0.07-0.45-0.33-0.43-0.65c0.34-0.54,0.1-1.15,0.22-1.71c0.16,0.08,0.31,0.16,0.47,0.24C63.03,58.1,62.71,58.52,62.85,58.84z
		"/>
	<path style="fill-rule:evenodd;clip-rule:evenodd;fill:#9B8275;" d="M48.91,59.24c-0.82,0.08-1.46-0.01-2.07,0.27
		c-0.43,0.19-1.12,0.54-1.31,0.38c-0.41-0.36-0.05-0.97,0.09-1.44c0.34-1.1,0.77-2.16,1.15-3.25c0.16-0.44,0.53-0.57,0.92-0.66
		c0.35-0.08,0.72-0.06,1.06-0.15c2.95-0.7,2.81-0.78,2.11,2.27c-0.07,0.31-0.19,0.6-0.26,0.91C50.24,59.15,50.25,59.15,48.91,59.24z
		"/>
	<path style="fill-rule:evenodd;clip-rule:evenodd;fill:#338DCA;" d="M55.92,55.53c-0.02,0.54-0.05,0.82-0.05,1.09
		c0.03,1.4-0.26,2.41-2.06,1.98c-0.46-0.11-1.04,0.07-1.5,0.27c-1.29,0.55-1.4-0.16-1.14-1.08c0.3-1.03,0.59-2.06,0.7-3.13
		c0.05-0.5,0.3-0.68,0.78-0.67c0.48,0.01,0.97,0.04,1.43-0.06C55.7,53.59,56.29,54.19,55.92,55.53z"/>
	<path style="fill-rule:evenodd;clip-rule:evenodd;fill:#A04F90;" d="M49.01,49.18c1.21,0.02,3,2.97,2.47,4.03
		c-0.17,0.32-0.41,0.3-0.68,0.34c-1.06,0.15-2.12,0.28-3.17,0.49c-0.64,0.13-0.98-0.05-1.07-0.69c-0.12-0.89,0.06-1.84-0.67-2.59
		c-0.22-0.22,0.02-0.47,0.23-0.57C47.05,49.75,47.94,49.19,49.01,49.18z"/>
	<path style="fill-rule:evenodd;clip-rule:evenodd;fill:#D78622;" d="M54.05,53.24c-1.39,0.31-2.18,0.15-2-1.39
		c0.1-0.79-0.74-1.18-1.14-1.76c-0.42-0.61-0.31-0.85,0.43-0.81c1.15,0.06,2.3,0.12,3.46,0.16c0.46,0.02,0.56,0.31,0.68,0.68
		c0.3,0.86,0.32,1.75,0.2,2.6C55.5,53.96,54.41,52.94,54.05,53.24z"/>
	<path style="fill-rule:evenodd;clip-rule:evenodd;fill:#C22E36;" d="M59.77,54.13c-0.01,0.99-0.02,1.98-0.04,2.97
		c-0.01,0.78-0.31,1.24-1.19,1.31c-2.13,0.17-2.17,0.2-2.08-1.96c0.03-0.83-0.39-1.96,0.44-2.4c0.69-0.37,1.7-0.12,2.57-0.15
		C59.63,53.91,59.73,53.98,59.77,54.13z"/>
	<path style="fill-rule:evenodd;clip-rule:evenodd;fill:#ACC231;" d="M47.89,47.05l-0.01-0.02c0.15,0.05,0.26,0.15,0.37,0.26
		l-0.02-0.01c0.08,0.09,0.17,0.17,0.25,0.26l-0.01-0.02c0.11,0.11,0.2,0.22,0.25,0.37c0.01,0.22,0.59,0.49-0.09,0.66
		c-0.6,0.15-1.18,0.39-1.77,0.59c-0.15-0.05-0.25,0.03-0.32,0.15c-0.57,0.18-1.17,0.9-1.7-0.06c-0.74-0.48-1.24-1.17-1.64-1.94
		c-0.13-0.15-0.26-0.31-0.39-0.46c-0.01-0.14,0.08-0.21,0.18-0.28c1.52-0.53,3.05-1.35,4.48,0.21C47.59,46.87,47.71,47,47.89,47.05z
		"/>
	<path style="fill-rule:evenodd;clip-rule:evenodd;fill:#C7566E;" d="M47.55,45.56c1.04-0.09,2.1,0.24,3.14-0.13
		c0.55-0.06,0.86,0.04,1.17,0.66c0.46,0.92,1.21,1.7,2.3,2.02c0.22,0.06,0.53,0.41,0.5,0.58c-0.07,0.46-0.43,0.08-0.65,0.12
		c-2.88,0.56-4.82-0.91-6.51-2.96c-0.05-0.1-0.03-0.18,0.06-0.24L47.55,45.56z"/>
	<path style="fill-rule:evenodd;clip-rule:evenodd;fill:#F6ED7A;" d="M45.3,57.36c-1.97-1-3.62-2.23-4.11-4.62
		c-0.32-1.52,0.21-2.72,0.87-3.96c0.22-0.42,0.44-0.83,0.66-1.25c0.07-0.01,0.14-0.01,0.21,0.01c0.49,0.13,0.75,0.46,0.76,0.96
		c0,0.33-0.16,0.61-0.3,0.89c-1.38,2.75-0.96,4.42,1.52,6.15c0.33,0.23,0.85,0.35,0.73,0.95C45.52,56.78,45.41,57.07,45.3,57.36z"/>
	<path style="fill-rule:evenodd;clip-rule:evenodd;fill:#EFD8CB;" d="M57.68,53.31c-1.05,0.21-1.5-0.15-1.33-1.25
		c0.05-0.35-0.04-0.72-0.01-1.07c0.04-0.54-0.73-1.28-0.27-1.44c0.76-0.27,1.69-0.4,2.55-0.15c0.21,0.06,1.28,3.47,1.13,3.51
		C59.07,53.08,58.38,53.18,57.68,53.31z"/>
	<path style="fill-rule:evenodd;clip-rule:evenodd;fill:#F6EFA9;" d="M44.65,49.66c1.27,1.18,1.13,2.97,1.86,4.38
		c0.18,0.35,0.26,0.83-0.19,1.15c-0.08,0.09-0.19,0.16-0.21,0.29l0.01-0.01c-1.52-0.2-2.38-1.24-2.81-2.53
		c-0.43-1.28-0.33-2.59,0.88-3.55C44.43,49.34,44.53,49.51,44.65,49.66z"/>
	<path style="fill-rule:evenodd;clip-rule:evenodd;fill:#489D6C;" d="M56.74,48.72c-0.95,0.02-3.96-2.3-4.13-2.97
		c-0.13-0.51,0.24-0.37,0.49-0.38c2.2-0.16,3.72,0.95,4.94,2.65c0.34,0.47,0.12,0.5-0.28,0.54C57.34,48.6,56.91,48.69,56.74,48.72z"
		/>
	<path style="fill-rule:evenodd;clip-rule:evenodd;fill:#F8F096;" d="M44.38,49.44c-1.73,2.32-1.26,3.95,1.74,6.04
		c-0.03,0.4-0.23,0.73-0.49,1.02c-0.85-0.87-2.13-1.22-2.76-2.4c-0.82-1.55-0.84-3.04,0.03-4.55c0.22-0.38,0.38-0.78,0.57-1.17
		C44.16,48.41,44.58,48.66,44.38,49.44z"/>
	<path style="fill-rule:evenodd;clip-rule:evenodd;fill:#3D3C2D;" d="M44.38,49.44c-0.04-0.58-0.56-0.74-0.9-1.06
		c-0.18-0.28-0.37-0.56-0.55-0.83c0.09-0.09,0.19-0.17,0.28-0.26c0.71,0.51,1.26,1.15,1.64,1.94c-0.07,0.15-0.13,0.3-0.2,0.45
		C44.56,49.59,44.47,49.51,44.38,49.44z"/>
	<path style="fill-rule:evenodd;clip-rule:evenodd;fill:#516F8D;" d="M48.25,47.29c-0.12-0.09-0.25-0.17-0.37-0.26
		C48,47.11,48.13,47.2,48.25,47.29z"/>
	<path style="fill-rule:evenodd;clip-rule:evenodd;fill:#B0C89E;" d="M43,46.53c-0.06,0.09-0.12,0.19-0.18,0.28
		C42.69,46.6,42.84,46.56,43,46.53z"/>
	<path style="fill-rule:evenodd;clip-rule:evenodd;fill:#A8A19A;" d="M59.77,54.13c-0.1-0.08-0.2-0.15-0.3-0.23
		C59.79,53.69,59.83,53.86,59.77,54.13z"/>
	<path style="fill-rule:evenodd;clip-rule:evenodd;fill:#A2BDB9;" d="M47.89,47.05c-0.14-0.1-0.28-0.2-0.41-0.3
		C47.61,46.84,47.75,46.95,47.89,47.05z"/>
	<path style="fill-rule:evenodd;clip-rule:evenodd;fill:#F8F096;" d="M46.11,55.49c0.07-0.1,0.14-0.19,0.21-0.29
		C46.25,55.3,46.18,55.39,46.11,55.49z"/>
	<path style="fill-rule:evenodd;clip-rule:evenodd;fill:#F6ED7A;" d="M42.47,47.37c-0.08-0.03-0.16-0.06-0.23-0.09
		C42.32,47.31,42.4,47.34,42.47,47.37z"/>
	<path style="fill-rule:evenodd;clip-rule:evenodd;fill:#717694;" d="M48.49,47.53c-0.08-0.09-0.17-0.17-0.25-0.26
		C48.32,47.36,48.4,47.45,48.49,47.53z"/>
	<path style="fill-rule:evenodd;clip-rule:evenodd;fill:#446278;" d="M48.73,47.88c-0.08-0.12-0.17-0.25-0.25-0.37
		C48.56,47.63,48.64,47.76,48.73,47.88z"/>
	<path style="fill-rule:evenodd;clip-rule:evenodd;fill:#D4DE99;" d="M46.54,49.28c0.03-0.22,0.14-0.27,0.32-0.15
		C46.76,49.17,46.65,49.23,46.54,49.28z"/>
	<path style="fill-rule:evenodd;clip-rule:evenodd;fill:#9590A4;" d="M47.54,45.62c-0.02,0.08-0.04,0.16-0.06,0.24
		c-0.05-0.04-0.09-0.08-0.14-0.12C47.41,45.7,47.48,45.66,47.54,45.62z"/>
	<path style="fill-rule:evenodd;clip-rule:evenodd;fill:#F9F4B1;" d="M56.31,28.32c0.42,0.55,0.85,1.11,1.27,1.66
		c0.11,0.1,0.2,0.22,0.26,0.35c1.92,3.47,3.94,6.88,4.85,10.81c0.23,1,0.57,1.99,0.99,2.92c1.51,3.32,1.78,6.87,2.01,10.43
		c-0.23,1.12-1.23,0.95-1.98,1.16c-0.54,0.15-0.92-0.1-1.03-0.68c0.6-7.04-2.15-13.16-5.27-19.19c-0.83-1.62-0.96-3.53-1.92-5.11
		c-0.18-0.31-0.36-0.62-0.54-0.92c-0.08-0.07-0.15-0.14-0.21-0.23l-0.03-0.03c-0.09-0.06-0.16-0.13-0.21-0.22l-0.01-0.02
		C54.75,28.27,55.39,28.02,56.31,28.32z"/>
	<path style="fill-rule:evenodd;clip-rule:evenodd;fill:#F7EE93;" d="M62.68,54.97c1.17,0.87,2.08,0.17,3.01-0.47
		c-0.01,0.33-0.01,0.66-0.02,0.99c-0.08,1.68-1.28,2.34-2.92,1.63C62.73,56.41,62.7,55.69,62.68,54.97z"/>
	<path style="fill-rule:evenodd;clip-rule:evenodd;fill:#F3E76A;" d="M62.75,57.12c1.21-0.11,2.67,0.2,2.92-1.63
		c-0.09,1.35-0.17,2.69-0.26,4.04l-0.12-0.01c-0.03-1.64-0.3-1.71-2.44-0.67c-0.07-0.33-0.15-0.66-0.22-1
		C62.67,57.6,62.71,57.36,62.75,57.12z"/>
	<path style="fill-rule:evenodd;clip-rule:evenodd;fill:#F6ED92;" d="M56.31,28.32c-0.72,0.1-1.36,0.33-1.81,0.94
		c-0.58-0.32-0.88-0.89-1.24-1.41c0.58-0.51,1.28-0.79,2-1.02C55.61,27.32,55.96,27.82,56.31,28.32z"/>
	<path style="fill-rule:evenodd;clip-rule:evenodd;fill:#F6ED92;" d="M54.51,29.27c0.07,0.07,0.14,0.14,0.21,0.22
		C54.65,29.42,54.58,29.35,54.51,29.27z"/>
	<path style="fill-rule:evenodd;clip-rule:evenodd;fill:#F6ED92;" d="M54.75,29.52c0.07,0.08,0.14,0.15,0.21,0.23
		C54.89,29.67,54.82,29.59,54.75,29.52z"/>
	<path style="fill-rule:evenodd;clip-rule:evenodd;fill:#F9F3B0;" d="M70.78,52.81c-0.35-1.97-0.31-4-0.91-5.95
		c-0.42-1.38-1.49-2.45-1.72-3.89c-0.13-0.13-0.08-0.34-0.2-0.48c-0.02-0.08-0.03-0.16-0.05-0.24c0.91-0.71,2.01-0.35,3.01-0.48
		c2.21-0.28,4.43-0.67,6.67-0.19c0.43,0.09,1.01-0.01,1.13,0.64l-0.02,0.01c-0.11,0.14-0.29,0.13-0.44,0.19
		c-0.15,0.03-0.29,0.06-0.44,0.08c-0.39,0.21-0.83,0.02-1.24,0.15c-0.25,0.01-0.49,0.01-0.74,0.02c-0.48-0.09-0.95-0.14-1.42,0.03
		l-0.08,0.07l-0.1-0.01c-0.1,0.04-0.2,0.09-0.3,0.14c-0.17,0.03-0.33,0.05-0.5,0.08c-0.2,0.2-0.49,0.04-0.7,0.18
		c-0.15,0.03-0.3,0.05-0.45,0.08c-0.12,0.04-0.21,0.13-0.28,0.23c-0.24,0.4-0.48,0.81-0.72,1.21c-0.34,0.67,0.16,0.96,0.59,1.29
		c0.42,0.32,0.98,0.52,1.05,1.16c0.18,0.29,0.36,0.59,0.55,0.88c0.78,0.37,0.5,1.14,0.66,1.75c-0.04,0.71,0.1,1.43-0.22,2.11
		C72.91,52.33,72,53.05,70.78,52.81z"/>
	<path style="fill-rule:evenodd;clip-rule:evenodd;fill:#ACC22F;" d="M82.37,51.17c1.79,0,1.27,1.44,1.29,2.24
		c0.04,1.95-0.54,2.39-2.79,2.65c-2.22,0.26-2.53-0.16-2.53-2.43c0-1.72,0.74-2.31,2.32-2.3C81.25,51.35,81.84,51.23,82.37,51.17z"
		/>
	<path style="fill-rule:evenodd;clip-rule:evenodd;fill:#479D6C;" d="M80.9,46.52c0.73,0.15,1.6-0.33,1.92,0.51
		c0.4,1.03,0.53,2.15,0.53,3.27c0,0.28-0.35,0.27-0.58,0.29c-1.11,0.12-2.22,0.22-3.32,0.37c-0.41,0.06-0.5-0.06-0.62-0.45
		c-0.33-1.06-0.57-2.16-1.25-3.08c-0.36-0.48,0.02-0.53,0.34-0.58C78.95,46.73,79.98,46.62,80.9,46.52z"/>
	<path style="fill-rule:evenodd;clip-rule:evenodd;fill:#A04F90;" d="M85.03,51.17c1.13,0.06,2.04,0.15,2.95,0.16
		c0.69,0.01,0.67,0.45,0.63,0.89c-0.2,2.19-2.23,3.83-4.42,3.64c-0.53-0.05-0.34-0.24-0.22-0.51c0.41-0.95,0.44-1.97,0.2-2.94
		C83.89,51.33,84.03,50.84,85.03,51.17z"/>
	<path style="fill-rule:evenodd;clip-rule:evenodd;fill:#9A8275;" d="M86.07,50.65c-0.62-0.21-1.7,0.36-2-0.36
		c-0.45-1.06-0.48-2.3-0.62-3.48c-0.05-0.44,0.4-0.28,0.63-0.26c1.05,0.09,2.1,0.22,3.15,0.31c0.32,0.03,0.34,0.28,0.44,0.47
		c0.46,0.86,0.39,1.85,0.62,2.77c0.11,0.42-0.23,0.53-0.59,0.53C87.18,50.65,86.67,50.65,86.07,50.65z"/>
	<path style="fill-rule:evenodd;clip-rule:evenodd;fill:#C32C35;" d="M75.7,43.19c0.29,0,0.47,0.05,0.61-0.01
		c2.57-1.13,3.88,0.68,5.3,2.25c0.12,0.13,0.41,0.23,0.26,0.45c-0.08,0.12-0.35,0.15-0.53,0.17c-0.79,0.07-1.58,0.13-2.38,0.18
		c-0.7,0.05-1.77,0.4-2.03,0.08c-0.75-0.93-1.92-1.63-2.28-2.71C74.38,42.75,75.49,43.57,75.7,43.19z"/>
	<path style="fill-rule:evenodd;clip-rule:evenodd;fill:#F7EE8B;" d="M67.44,41.04c-0.23-0.56-0.45-1.12-0.68-1.68
		c0.11-0.18,0.28-0.27,0.48-0.3c2.11,1.77,4.45,1.11,6.8,0.7c1.31-0.23,2.65-0.28,3.97-0.42c1.29,0.27,2.6,0.46,3.78,1.08
		c0.5,0.26,0.97,0.56,1.3,1.03c0.45,0.65,0.22,0.93-0.51,0.95c-0.25,0-0.49,0.01-0.74,0.01c-2.28-1.57-4.86-1.55-7.45-1.4
		c-1.74,0.1-3.47,0.41-5.23,0.38C68.56,41.39,67.97,41.35,67.44,41.04z"/>
	<path style="fill-rule:evenodd;clip-rule:evenodd;fill:#F8F19E;" d="M67.44,41.04c4.15,0.26,8.29-1.14,12.43,0.01
		c0.78,0.22,1.78,0.26,1.98,1.38c-0.8,0-1.61-0.05-2.3-0.45c-0.47-0.27-0.59,0.06-0.84,0.24c-2.48-0.83-5-0.39-7.49-0.12
		c-1.11,0.12-2.21,0.06-3.31,0.14C67.75,41.84,67.59,41.44,67.44,41.04z"/>
	<path style="fill-rule:evenodd;clip-rule:evenodd;fill:#EFD7CA;" d="M84.6,46.04c-2.13,0.46-3.08-1.37-4.26-2.82
		c-0.09-0.12-0.14-0.27-0.21-0.41c0.19-0.01,0.39-0.08,0.56-0.02c0.75,0.24,1.54,0.27,2.25,0.08c1.85-0.48,3.31,1.14,3.92,2.75
		c0.17,0.44,0.12,0.67-0.46,0.55C85.9,46.06,85.37,46.08,84.6,46.04z"/>
	<path style="fill-rule:evenodd;clip-rule:evenodd;fill:#CA566E;" d="M73.71,47.7c3-1.13,3.48-0.85,4.42,2.39
		c0.24,0.81-0.12,1.08-0.79,1.23c-0.15,0.03-0.31,0.04-0.47,0.07c-2.01,0.38-2,0.38-2.33-1.61c-0.03-0.19-0.12-0.37-0.18-0.56
		C73.82,48.85,73.87,48.23,73.71,47.7z"/>
	<path style="fill-rule:evenodd;clip-rule:evenodd;fill:#338DC9;" d="M77.64,53.65c0.03,0.36,0.05,0.72,0.1,1.07
		c0.08,0.57,0.6,1.32-0.04,1.66c-0.99,0.52-2.13,0.24-3.13-0.14c-0.73-0.28-0.49-1.09-0.34-1.6c0.25-0.86-0.39-2.24,1.23-2.4
		c0.16,0.03,0.31,0.09,0.47,0.07C77.53,52.17,77.53,52.17,77.64,53.65z"/>
	<path style="fill-rule:evenodd;clip-rule:evenodd;fill:#D68622;" d="M71.79,45.37c0.46-0.14,0.19-0.54,0.28-0.81
		c0.21-0.61,0.7-0.81,1.24-1c0.6-0.21,0.57,0.35,0.81,0.61c0.54,0.57,1.15,1.08,1.71,1.64c0.16,0.16,0.33,0.4,0.33,0.6
		c-0.02,0.3-0.38,0.26-0.57,0.26c-0.8-0.02-1.56,0.66-2.39,0.15c-0.62-0.44-1.56-0.5-1.7-1.48C71.6,45.26,71.7,45.28,71.79,45.37z"
		/>
	<path style="fill-rule:evenodd;clip-rule:evenodd;fill:#F5EB75;" d="M82.58,42.41c0.51-0.2,0.65-0.46,0.2-0.89
		c-0.83-0.79-1.83-1.24-2.95-1.44c-0.66-0.12-1.34-0.2-1.83-0.73c0.1-0.02,0.21-0.03,0.31-0.05c0.13-0.06,0.28-0.06,0.41-0.12
		c0.39-0.1,0.79-0.21,1.18-0.31c1.82,0.85,3.74,1.54,4.79,3.45C83.99,42.35,83.29,42.38,82.58,42.41z"/>
	<path style="fill-rule:evenodd;clip-rule:evenodd;fill:#F7ED83;" d="M70.65,55.65c0.08-0.78,0.16-1.55,0.24-2.33
		c0.55,0.12,1.08,0.12,1.63-0.04c0.4-0.12,0.87-0.28,1.16,0.25c0.04,0.5,0.02,0.99-0.21,1.45C72.52,55.18,71.62,55.55,70.65,55.65z"
		/>
	<path style="fill-rule:evenodd;clip-rule:evenodd;fill:#F6EE9B;" d="M73.68,53.53c-0.68-0.26-1.3,0.03-1.89,0.27
		c-0.6,0.25-0.73-0.08-0.91-0.48c-0.04-0.17-0.07-0.34-0.11-0.52c1.08-0.2,1.96-1.02,3.12-0.96C73.83,52.41,73.76,52.97,73.68,53.53
		z"/>
	<path style="fill-rule:evenodd;clip-rule:evenodd;fill:#F5EA61;" d="M70.65,55.65c0.86-0.57,1.75-0.98,2.82-0.68
		c0.05,0.32,0.1,0.64,0.15,0.96c-0.9,0.5-2.18,0.08-2.82,1.2C70.45,56.67,70.58,56.16,70.65,55.65z"/>
	<path style="fill-rule:evenodd;clip-rule:evenodd;fill:#349A97;" d="M77.64,53.65c0.18-1.86-1.52-0.85-2.18-1.42
		c0.22-0.07,0.44-0.13,0.66-0.22c0.6-0.25,1.42-0.4,1.79-0.09C78.41,52.37,77.8,53.07,77.64,53.65z"/>
	<path style="fill-rule:evenodd;clip-rule:evenodd;fill:#3C352E;" d="M71.54,45.43c0.48,0.54,1.31,0.67,1.65,1.37
		c-0.09,0.1-0.18,0.2-0.27,0.31c-0.47-0.34-0.93-0.71-1.42-1.02c-0.64-0.41-0.79-0.86-0.22-1.43c0,0.11,0,0.22,0,0.33
		C71.33,45.16,71.53,45.24,71.54,45.43z"/>
	<path style="fill-rule:evenodd;clip-rule:evenodd;fill:#3E3431;" d="M73.71,47.7c0.22,0.51,0.43,1.01,0.65,1.52
		c-0.08,0.17-0.16,0.35-0.23,0.52c-0.22-0.58-0.44-1.16-0.66-1.75C73.55,47.9,73.63,47.8,73.71,47.7z"/>
	<path style="fill-rule:evenodd;clip-rule:evenodd;fill:#F8F19E;" d="M74.41,42.69c0.47-0.35,0.94-0.31,1.42-0.03
		C75.36,42.67,74.88,42.68,74.41,42.69z"/>
	<path style="fill-rule:evenodd;clip-rule:evenodd;fill:#F8F19E;" d="M76.57,42.65c0.38-0.29,0.82-0.14,1.24-0.15
		C77.42,42.77,76.98,42.6,76.57,42.65z"/>
	<path style="fill-rule:evenodd;clip-rule:evenodd;fill:#F4E847;" d="M89.23,51.91c-0.01,0.19-0.01,0.39-0.02,0.58
		C89.22,52.3,89.22,52.1,89.23,51.91z"/>
	<path style="fill-rule:evenodd;clip-rule:evenodd;fill:#F8F19E;" d="M72.74,43.14c0.23-0.06,0.47-0.12,0.7-0.18
		C73.2,43.02,72.97,43.08,72.74,43.14z"/>
	<path style="fill-rule:evenodd;clip-rule:evenodd;fill:#F8F19E;" d="M78.25,42.42c0.15-0.06,0.29-0.13,0.44-0.19
		C78.54,42.29,78.39,42.35,78.25,42.42z"/>
	<path style="fill-rule:evenodd;clip-rule:evenodd;fill:#5C5564;" d="M71.54,45.43c-0.09-0.15-0.17-0.29-0.26-0.44
		c0.17,0.12,0.34,0.25,0.51,0.37C71.71,45.39,71.62,45.41,71.54,45.43z"/>
	<path style="fill-rule:evenodd;clip-rule:evenodd;fill:#F8F19E;" d="M73.93,42.89c0.1-0.04,0.2-0.09,0.3-0.14
		C74.13,42.79,74.03,42.84,73.93,42.89z"/>
	<path style="fill-rule:evenodd;clip-rule:evenodd;fill:#F8F19E;" d="M72.01,43.45c0.09-0.08,0.19-0.15,0.28-0.23
		C72.19,43.3,72.1,43.38,72.01,43.45z"/>
	<path style="fill-rule:evenodd;clip-rule:evenodd;fill:#F3E848;" d="M74.18,56.87c-0.08-0.08-0.17-0.16-0.25-0.23
		C74.01,56.72,74.09,56.79,74.18,56.87z"/>
	<path style="fill-rule:evenodd;clip-rule:evenodd;fill:#F9F3B0;" d="M64.86,36.22c-1.69-3.07-4.11-5.68-5.57-8.89
		c-0.33-0.56,0.17-0.66,0.48-0.8c0.46-0.2,0.88-0.46,1.33-0.68c0.77-0.08,1.01,0.5,1.29,1.03c0.12,0.25,0.26,0.48,0.36,0.74
		c0.58,1.49,1.43,2.36,3.14,1.5c0.23-0.12,0.54-0.06,0.82-0.08c0.07-0.07,0.14-0.12,0.24-0.14c0.15-0.04,0.3-0.07,0.45-0.11
		c0.72,0.37,0.48,0.92,0.28,1.47l0.01,0c-0.2,0.2-0.52,0.02-0.73,0.22c-0.61,0.27-1.2,0.72-1.83,0.77c-1.6,0.13-1.59,0.92-1.05,2.07
		c0.12,0.25,0.2,0.51,0.3,0.77c0.05,0.1,0.1,0.2,0.15,0.29c-0.02,0.07,0,0.13,0.05,0.19c0.58,0.29,0.57,0.82,0.57,1.35
		C65.15,36.09,65.09,36.23,64.86,36.22z"/>
	<path style="fill-rule:evenodd;clip-rule:evenodd;fill:#F0D8CB;" d="M64.59,33.3c-0.3-0.94,0-1.5,1-1.7
		c0.84-0.17,1.76-1.01,2.24,0.54c0.22,0.72,0.71,1.35,1.09,2.03c-0.72,0.34-1.45,0.65-2.15,1.02c-0.4,0.21-0.76,0.43-1.23,0.32
		c-0.7-0.27-0.48-0.98-0.71-1.48c0.01-0.07,0-0.14-0.05-0.19C64.66,33.68,64.68,33.47,64.59,33.3z"/>
	<path style="fill-rule:evenodd;clip-rule:evenodd;fill:#ABC030;" d="M70.79,37.36c0.03,0.14-0.25,0.16-0.45,0.27
		c-0.69,0.37-1.68,0.26-2,1.25c-0.09,0.27-0.27,0.04-0.36-0.02c-0.19-0.14-0.37-0.31-0.52-0.48c-0.63-0.7-1.68-1.87-1.27-2.3
		c0.73-0.78,2.08-0.99,3.18-1.4c0.1-0.04,0.37,0.17,0.44,0.32C70.12,35.7,70.41,36.44,70.79,37.36z"/>
	<path style="fill-rule:evenodd;clip-rule:evenodd;fill:#9F4F8F;" d="M73.78,33.08c-0.98,0.23-1.71-0.21-2.19-1.11
		c-0.3-0.55-0.84-1.37-0.53-1.69c0.48-0.5,1.41-0.5,2.13-0.2c1.21,0.5,1.97,1.58,2.87,2.46c0.31,0.3,0.05,0.33-0.22,0.37
		C75.17,32.98,74.53,33.33,73.78,33.08z"/>
	<path style="fill-rule:evenodd;clip-rule:evenodd;fill:#9A8275;" d="M77.98,35.31c0,0.08,0.01,0.16-0.02,0.23
		c-0.19,0.44-3.09,0.72-3.41,0.33c-0.03-0.03-0.05-0.06-0.07-0.1c-0.27-0.71-1.04-1.11-1.14-1.91c0.71-0.06,1.42-0.15,2.13-0.19
		C76.55,33.62,77.89,34.51,77.98,35.31z"/>
	<path style="fill-rule:evenodd;clip-rule:evenodd;fill:#D68623;" d="M69.92,33.93c-1.24-0.5-1.76-1.65-1.82-2.72
		c-0.06-0.99,1.28-0.47,1.85-0.91c0.58,0.93,1.39,1.79,1.65,2.8C71.73,33.62,70.48,33.48,69.92,33.93z"/>
	<path style="fill-rule:evenodd;clip-rule:evenodd;fill:#C9576E;" d="M74.3,36.38c-0.96,0.24-1.89,0.75-2.68,0.6
		c-0.87-0.17-0.9-1.38-1.28-2.14c-0.16-0.32,0.02-0.55,0.35-0.61c0.72-0.12,1.48-0.86,2.17,0.05C73.35,34.94,73.79,35.64,74.3,36.38
		z"/>
	<path style="fill-rule:evenodd;clip-rule:evenodd;fill:#348ECA;" d="M76.72,38.86c-1.37,0.17-1.28-1.05-1.44-1.75
		c-0.17-0.74,0.71-0.4,1.05-0.42c0.99-0.06,2.15-0.98,2.9,0.56c0.46,0.95,0.23,1.31-0.74,1.4C77.9,38.71,77.31,38.79,76.72,38.86z"
		/>
	<path style="fill-rule:evenodd;clip-rule:evenodd;fill:#BF2F36;" d="M73.16,39.38c-1.04,0.05-1.28-1.06-1.19-1.34
		c0.29-0.98,1.39-0.81,2.16-0.91c0.94-0.12,1.04,1.02,0.96,1.43C74.89,39.58,73.71,38.91,73.16,39.38z"/>
	<path style="fill-rule:evenodd;clip-rule:evenodd;fill:#489A6C;" d="M70.62,39.84c-0.7-0.22-1.87-0.2-1.75-0.73
		c0.16-0.77,1.32-0.9,2.09-1.04c0.54-0.1,0.8,0.67,0.79,1.13C71.73,39.98,70.92,39.49,70.62,39.84z"/>
	<path style="fill-rule:evenodd;clip-rule:evenodd;fill:#F2E992;" d="M67.68,30.25c-0.09-0.49-0.19-0.98-0.28-1.47
		c0.26-0.26,0.61-0.24,0.94-0.26c0.42,0.4,0.5,0.93,0.54,1.47C68.48,30.08,68.08,30.16,67.68,30.25z"/>
	<path style="fill-rule:evenodd;clip-rule:evenodd;fill:#F8F19E;" d="M64.86,36.22c0.07-0.08,0.13-0.16,0.19-0.23
		c0.1-0.1,0.17-0.08,0.21,0.05c0.66,1.01,1.32,2.02,1.97,3.03c-0.16,0.1-0.32,0.2-0.48,0.3c-0.39-0.57-0.78-1.14-1.17-1.7
		C65.35,37.18,65.1,36.7,64.86,36.22z"/>
	<path style="fill-rule:evenodd;clip-rule:evenodd;fill:#3C3731;" d="M65.26,36.04c-0.07-0.01-0.14-0.02-0.21-0.05
		c-0.16-0.48-0.32-0.96-0.47-1.43c0.08-0.17,0.16-0.35,0.24-0.52c0.24,0.49,0.47,0.99,0.71,1.48
		C65.44,35.69,65.35,35.86,65.26,36.04z"/>
	<path style="fill-rule:evenodd;clip-rule:evenodd;fill:#F2E992;" d="M66.96,30.46c0.19-0.25,0.46-0.24,0.73-0.22
		C67.5,30.48,67.24,30.52,66.96,30.46z"/>
	<path style="fill-rule:evenodd;clip-rule:evenodd;fill:#3C3731;" d="M64.59,33.3c0.2,0.13,0.22,0.33,0.18,0.54
		C64.71,33.66,64.65,33.48,64.59,33.3z"/>
	<path style="fill-rule:evenodd;clip-rule:evenodd;fill:#F7EE8B;" d="M78.72,39.18c-0.14,0.04-0.27,0.08-0.41,0.12
		C78.45,39.26,78.59,39.22,78.72,39.18z"/>
	<path style="fill-rule:evenodd;clip-rule:evenodd;fill:#3C3731;" d="M64.54,34.37c-0.05-0.1-0.1-0.19-0.15-0.29
		C64.43,34.17,64.48,34.27,64.54,34.37z"/>
	<path style="fill-rule:evenodd;clip-rule:evenodd;fill:#F9F4B0;" d="M58.5,27.14c1.96,3.78,4.64,7.12,6.72,10.83
		c1.5,2.22,2,4.88,3.25,7.22c1.28,2.4,1.6,5.13,1.63,7.86c-0.61,0.87-2.5,1.5-3.62,1.2c-0.27-1.65-0.66-3.28-0.77-4.94
		c-0.18-2.73-1.66-5.05-2.24-7.62c-0.8-3.6-2.63-6.73-4.15-10.01c-0.52-1.11-1.32-2.08-1.99-3.12c-0.06-0.08-0.12-0.17-0.18-0.25
		l-0.02-0.04c-0.08-0.04-0.14-0.1-0.17-0.19c-0.04-0.08-0.08-0.16-0.12-0.24C57.28,27.34,57.8,27.02,58.5,27.14z"/>
	<path style="fill-rule:evenodd;clip-rule:evenodd;fill:#F8F19B;" d="M66.49,54.25c1.26-0.24,2.47-0.64,3.62-1.2
		c0.35,0.66-0.11,1.25-0.15,1.88c-0.68,0.33-1.42,0.45-2.12,0.68c-1.42,0.47-1.55,0.34-1.4-1.15
		C66.43,54.38,66.45,54.31,66.49,54.25z"/>
	<path style="fill-rule:evenodd;clip-rule:evenodd;fill:#F7EE80;" d="M66.44,54.46c-0.09,1.06,0.28,1.26,1.29,0.88
		c0.69-0.26,1.38-0.87,2.23-0.41c0,0.4,0,0.8,0,1.2c-1.38-0.32-2.5,0.33-3.62,0.95C66.28,56.2,66.13,55.32,66.44,54.46z"/>
	<path style="fill-rule:evenodd;clip-rule:evenodd;fill:#F6ED94;" d="M58.5,27.14c-0.55,0.24-1.11,0.48-1.66,0.71
		c-0.23-0.31-0.47-0.63-0.7-0.94c0.25-0.84,1.14-0.81,1.7-1.23C58.06,26.16,58.28,26.65,58.5,27.14z"/>
	<path style="fill-rule:evenodd;clip-rule:evenodd;fill:#F6ED94;" d="M57.15,28.32c0.06,0.08,0.12,0.17,0.18,0.25
		C57.27,28.48,57.21,28.4,57.15,28.32z"/>
	<path style="fill-rule:evenodd;clip-rule:evenodd;fill:#F6ED94;" d="M56.96,28.09c0.06,0.06,0.11,0.13,0.17,0.19
		C57.07,28.22,57.02,28.15,56.96,28.09z"/>
	<path style="fill-rule:evenodd;clip-rule:evenodd;fill:#F6ED92;" d="M55.18,26.66c-0.07-0.09-0.14-0.18-0.21-0.27
		C55.04,26.48,55.11,26.57,55.18,26.66z"/>
	<path style="fill-rule:evenodd;clip-rule:evenodd;fill:#94A4A0;" d="M57.84,30.33c-0.09-0.12-0.17-0.24-0.26-0.35
		C57.67,30.1,57.76,30.22,57.84,30.33z"/>
	<path style="fill-rule:evenodd;clip-rule:evenodd;fill:#F8F19E;" d="M67.96,42.49c0.07,0.16,0.13,0.32,0.2,0.48
		C68.09,42.81,68.02,42.65,67.96,42.49z"/>
	<path style="fill-rule:evenodd;clip-rule:evenodd;fill:#489B6B;" d="M66.93,25.09c-0.57,0.15-1.05,0.44-1.42,0.34
		c-0.63-0.17-1.16-0.82-1.2-1.36c-0.03-0.4,0.92-0.54,1.34-0.47C66.31,23.71,66.31,24.61,66.93,25.09z"/>
	<path style="fill-rule:evenodd;clip-rule:evenodd;fill:#C57D29;" d="M68.64,26.86c0.09-0.01,0.9-0.01,0.65,0.52
		c-0.35,0.74-1.38,0.76-2.18,0.9c-0.45,0.08-0.72-0.42-0.63-0.66C66.8,26.85,67.54,26.82,68.64,26.86z"/>
	<path style="fill-rule:evenodd;clip-rule:evenodd;fill:#C23036;" d="M61.84,24.7c0.73-0.08,1.21,0.3,1.57,0.88
		c0.2,0.32,0.37,0.66,0.07,0.98c-0.31,0.33-0.67,0.39-1.05,0.07c-0.36-0.24-0.61-0.59-0.92-0.88C60.86,25.16,61.2,24.88,61.84,24.7z
		"/>
	<path style="fill-rule:evenodd;clip-rule:evenodd;fill:#3587BC;" d="M66.54,27c-0.48,0.02-0.79-0.23-0.74-0.54
		c0.15-0.86,1.08-0.57,1.6-0.94c0.24-0.17,0.68,0.44,0.62,0.55C67.71,26.69,66.93,26.61,66.54,27z"/>
	<path style="fill-rule:evenodd;clip-rule:evenodd;fill:#493830;" d="M61.84,24.7c-0.45,0.24-0.74,0.48-0.18,0.93
		c0.33,0.26,0.73,0.5,0.77,1c-0.01,0.09-0.02,0.17-0.03,0.26c-0.39-0.33-0.79-0.66-1.18-0.99c-0.5-0.11-0.83-0.36-0.76-0.93
		c0.42-0.11,0.48-0.71,0.98-0.71C61.17,24.75,61.52,24.71,61.84,24.7z"/>
	<path style="fill-rule:evenodd;clip-rule:evenodd;fill:#B7566A;" d="M64.17,24.93c0.4,0.13,0.73,0.36,0.64,0.81
		c-0.03,0.15-0.41,0.37-0.55,0.32c-0.5-0.17-0.3-0.72-0.46-1.08C63.91,24.85,64.03,24.83,64.17,24.93z"/>
	<path style="fill-rule:evenodd;clip-rule:evenodd;fill:#9F558E;" d="M65.06,27.34c-0.33-0.06-0.55-0.25-0.53-0.56
		c0.02-0.33,0.3-0.45,0.61-0.42c0.33,0.03,0.53,0.33,0.53,0.57C65.67,27.26,65.29,27.25,65.06,27.34z"/>
	<path style="fill-rule:evenodd;clip-rule:evenodd;fill:#AFC133;" d="M64.59,28.9c-0.34-0.02-0.68,0.01-0.72-0.34
		c-0.04-0.37,0.34-0.38,0.57-0.44c0.32-0.08,0.53,0.14,0.57,0.43C65.05,28.89,64.73,28.84,64.59,28.9z"/>
	<path style="fill-rule:evenodd;clip-rule:evenodd;fill:#DFCEC9;" d="M63.6,27.81c-0.29,0.01-0.3-0.19-0.29-0.39
		c0.02-0.35,0.32-0.43,0.58-0.48c0.07-0.01,0.26,0.27,0.27,0.43C64.2,27.77,63.76,27.62,63.6,27.81z"/>
	<path style="fill-rule:evenodd;clip-rule:evenodd;fill:#9F887B;" d="M66.17,28.15c0.09,0.3-0.06,0.42-0.28,0.42
		c-0.34,0-0.47-0.29-0.51-0.55c-0.02-0.12,0.19-0.37,0.33-0.39C66.09,27.59,66.06,27.97,66.17,28.15z"/>
	<path style="fill-rule:evenodd;clip-rule:evenodd;fill:#BD5B71;" d="M64.17,24.93c-0.13,0.02-0.25,0.03-0.38,0.05
		c-0.39-0.02-0.63-0.27-0.8-0.59c-0.01-0.02,0.13-0.16,0.21-0.17C63.74,24.16,63.93,24.58,64.17,24.93z"/>
	<path style="fill-rule:evenodd;clip-rule:evenodd;fill:#F2E992;" d="M66.95,28.89c-0.08,0.05-0.16,0.09-0.24,0.14
		C66.79,28.99,66.87,28.94,66.95,28.89z"/>
	<path style="fill-rule:evenodd;clip-rule:evenodd;fill:#F5E956;" d="M62.41,23.94c0.1-0.05,0.21-0.09,0.31-0.14
		C62.62,23.85,62.52,23.89,62.41,23.94z"/>
	<path style="fill-rule:evenodd;clip-rule:evenodd;fill:#F7EE98;" d="M60.46,24.96c0.25,0.31,0.5,0.62,0.76,0.93
		c-0.26,0.99-1.58,0.57-1.92,1.44c-0.25-0.55-0.49-1.1-0.73-1.65C59.19,25.44,59.82,25.2,60.46,24.96z"/>
	<path style="fill-rule:evenodd;clip-rule:evenodd;fill:#399891;" d="M35.28,28.22c-0.09,0.5-0.35,0.89-0.87,1
		c-0.23,0.05-0.39-0.14-0.33-0.35c0.13-0.48,0.48-0.82,0.91-1.02C35.24,27.74,35.27,28.03,35.28,28.22z"/>
	<path style="fill-rule:evenodd;clip-rule:evenodd;fill:#98ABAD;" d="M32.63,31.43c-0.01,0.06-0.03,0.12-0.04,0.18
		c-0.04-0.03-0.07-0.05-0.11-0.08c0.06-0.03,0.11-0.06,0.17-0.08L32.63,31.43z"/>
	<path style="fill-rule:evenodd;clip-rule:evenodd;fill:#44A39D;" d="M32.64,31.45c0.08-0.08,0.15-0.17,0.23-0.25l0.01,0.01
		c0.01,0.17-0.07,0.26-0.25,0.23L32.64,31.45z"/>
	<path style="fill-rule:evenodd;clip-rule:evenodd;fill:#52ABB8;" d="M32.87,31.2c0.04-0.07,0.08-0.15,0.13-0.22
		c0.02,0.02,0.05,0.05,0.08,0.07C33.01,31.1,32.94,31.15,32.87,31.2L32.87,31.2z"/>
</g>
</svg>
