<?xml version="1.0" encoding="utf-8"?>
<!-- Generator: Adobe Illustrator 16.0.0, SVG Export Plug-In . SVG Version: 6.00 Build 0)  -->
<!DOCTYPE svg PUBLIC "-//W3C//DTD SVG 1.0//EN" "http://www.w3.org/TR/2001/REC-SVG-20010904/DTD/svg10.dtd" [
	<!ENTITY ns_flows "http://ns.adobe.com/Flows/1.0/">
	<!ENTITY ns_extend "http://ns.adobe.com/Extensibility/1.0/">
	<!ENTITY ns_ai "http://ns.adobe.com/AdobeIllustrator/10.0/">
	<!ENTITY ns_graphs "http://ns.adobe.com/Graphs/1.0/">
]>
<svg version="1.0" id="desk_lamp_xA0_Image_1_" xmlns:x="&ns_extend;" xmlns:i="&ns_ai;" xmlns:graph="&ns_graphs;"
	 xmlns="http://www.w3.org/2000/svg" xmlns:xlink="http://www.w3.org/1999/xlink" xmlns:a="http://ns.adobe.com/AdobeSVGViewerExtensions/3.0/"
	 x="0px" y="0px" width="82.56px" height="99.84px" viewBox="0 0 82.56 99.84" style="enable-background:new 0 0 82.56 99.84;"
	 xml:space="preserve">
<g>
	<path style="fill-rule:evenodd;clip-rule:evenodd;fill:#F5E3E3;" d="M22.32,40.79c-0.16-0.24-0.31-0.48-0.47-0.71
		c-0.59-1.4-1.76-2.4-2.53-3.68c-0.68-1.13-1.54-2.16-1.8-3.5c-0.02-0.99,0.56-0.95,1.18-0.63c0.79,0.41,1.35,1.11,1.89,1.8
		c3.64,4.65,8.3,7.88,13.85,9.82c1.26,0.44,2.32,1.22,3.54,1.71c0.18,0.85-0.22,1.38-0.95,1.74c-0.11,0.05-0.22,0.1-0.33,0.15
		c-1.38,0.37-2.66,0.01-3.91-0.56c-2.76-1.23-5.38-2.72-7.95-4.28C23.99,42.07,23.35,41.17,22.32,40.79z"/>
	<path style="fill-rule:evenodd;clip-rule:evenodd;fill:#5B1D1D;" d="M25.71,73.67c0.42-3.06,2.64-4.73,4.97-6.23
		c1.16-0.74,2.53-1.14,3.81-1.69c0.11-0.09,0.22-0.1,0.33-0.02c-0.45,1.01-1.08,1.92-1.75,2.79c-0.59,0.76-1.11,1.57-1.45,2.47
		c-0.6,1.58-0.83,3.16,0.1,4.72c0.28,0.47,0.58,0.98,0.27,1.58c-0.06,0.06-0.12,0.12-0.2,0.13C30,77.66,26.33,75.4,25.71,73.67z"/>
	<path style="fill-rule:evenodd;clip-rule:evenodd;fill:#232322;" d="M25.71,73.67c1.63,1.95,3.7,3.16,6.21,3.61
		c0.67-0.3,1.28,0.18,1.93,0.16c0.24,0.01,0.48,0.05,0.71,0.11c0.35,0.13,0.72,0.12,1.08,0.13c0.58-0.04,1.13,0.17,1.71,0.2
		c0.53,0.04,1.06,0.05,1.59,0.01c0.89,0.04,1.78,0.01,2.66,0.02c0.6,0.02,1.2,0.01,1.78-0.18c0.26-0.04,0.53-0.08,0.79-0.07
		c1.27-0.19,2.56-0.29,3.83-0.47c0.62,0.04,1.17-0.21,1.74-0.38c0.28-0.09,0.55-0.17,0.83-0.26c0.32-0.1,0.65-0.2,0.98-0.26
		c1.04-0.04,1.72-0.86,2.62-1.19c0.8,1.35-0.31,1.82-1.16,2.15c-2.8,1.09-5.73,1.65-8.71,1.95c-4.35,0.43-8.66,0.25-12.89-0.96
		c-1.91-0.55-3.56-1.59-5.02-2.91C25.96,74.9,25.41,74.43,25.71,73.67z"/>
	<path style="fill-rule:evenodd;clip-rule:evenodd;fill:#2A2928;" d="M56,51.62c0,0.15,0.01,0.29,0.01,0.44
		c-0.54,0.46-0.6,1.07-0.54,1.72l0-0.01c-0.37,0.72-1.58,1.04-1.03,2.23c0.13,0.29-0.34,0.34-0.56,0.47
		c-0.3,0.17-0.76,0.27-0.44,0.79c0.32,0.13,0.83-0.01,0.82,0.58l0,0c-0.2,0.43-0.61,0.47-1,0.54c-0.61,0.12-0.77,0.5-0.63,1.06
		c0.04,0.54-0.59,0.52-0.74,0.9c-0.04,0.14-0.04,0.27,0.04,0.4c0.09,0.12,0.18,0.24,0.16,0.4c-0.08,0.26-0.56,0.28-0.41,0.68
		c0.09,0.12,0.19,0.24,0.24,0.38c0,0.11-0.04,0.21-0.12,0.28c-0.23,0.16-0.5,0.19-0.76,0.26c-0.96,0.8-1.12,2.09-1.88,3.01
		c-0.33,0.4-0.58,0.86-0.86,1.29c-0.05,0.09-0.11,0.17-0.17,0.25c-0.12,0.18-0.32,0.33-0.28,0.59c0.09,0.16,0.24,0.27,0.36,0.41
		c0.09,0.14,0.12,0.28,0,0.42c-0.1,0.06-0.2,0.1-0.31,0.12c-0.18,0.01-0.34-0.02-0.51-0.08c-0.46-0.22-0.79-0.53-0.82-1.07
		c0-0.45,0.35-0.68,0.58-1c1.46-2.04,3.06-4,3.5-6.58c0.07-0.41,0.27-0.85-0.03-1.26c-0.08-1.03,0.55-1.83,0.9-2.71
		c1.4-1.33,2.22-2.97,2.52-4.86c0.17-1.02,0.36-2.04,0.62-3.04c0.14-0.54,0.28-1.12,0.08-1.65c-0.5-1.34-0.36-2.65-0.01-3.98
		c0.22-0.85,0.09-1.75,0.13-2.62c0.02-0.5-0.1-1.06,0.46-1.38c0.7,0.51,0.43,1.27,0.47,1.94c0.07,1.17-0.16,2.36,0.17,3.52
		c0.04,0.11,0.05,0.23,0.04,0.34c-0.43,0.6-0.1,1.11,0.22,1.62c-0.03,0.1-0.08,0.2-0.16,0.28c-0.53,0.49-0.26,1.01-0.07,1.53
		c0.01,0.11,0,0.21-0.04,0.31c-0.17,0.46-0.49,0.97,0.31,1.18c0.1,0.04,0.18,0.11,0.24,0.2C56.42,50.24,55.69,50.8,56,51.62z"/>
	<path style="fill-rule:evenodd;clip-rule:evenodd;fill:#1D1D1C;" d="M55.43,38.63c-0.59,1.48,0.09,3.08-0.46,4.56
		c-0.4,1.08-0.39,2.16,0.13,3.21c0.05,0.1,0.1,0.24,0.08,0.34c-0.56,3.05-0.6,6.25-2.67,8.84c-0.25,0.31-0.54,0.6-1,0.54
		c0.08-1.06,0.53-2.07,0.82-3.05c0.46-1.58,0.67-3.22,1.16-4.8c0.38-1.21,0.41-2.54,0.5-3.82c0.11-1.63,0.16-3.27,0.17-4.91
		c0-0.91-0.36-1.8-0.2-2.72c-0.07-0.49-0.22-0.99,0.05-1.47c0.64-0.38,0.72,0.2,0.88,0.54c0.34,0.76,0.36,1.61,0.65,2.38
		C55.55,38.43,55.51,38.54,55.43,38.63z"/>
	<path style="fill-rule:evenodd;clip-rule:evenodd;fill:#561D1C;" d="M18.96,29c1.82-1.36,3.57-2.82,5.64-3.81
		c2.66-0.89,5.35-1.7,8.13-2.08c1.55-0.21,3.13-0.75,4.73-0.26c-0.62,0.91-1.66,0.99-2.57,1.18c-4.04,0.86-7.9,2.17-11.46,4.32
		c-0.82,0.49-1.68,0.93-2.58,1.24c-0.66,0.23-1.32,0.36-1.89-0.23C18.89,29.24,18.88,29.12,18.96,29z"/>
	<path style="fill-rule:evenodd;clip-rule:evenodd;fill:#541E1C;" d="M44.18,35.09c-0.67,4.4-2.75,8.03-6,11.03
		c-0.16-0.14-0.13-0.34-0.16-0.52c-0.42-0.9,0.07-1.85-0.18-2.76c-0.01-0.19-0.01-0.37,0.02-0.56c0.03-0.19,0.09-0.36,0.21-0.5
		c0.1-0.08,0.21-0.1,0.33-0.07c0.69,0.31,0.89-0.32,1.2-0.67c1.9-2.18,3.03-4.75,3.73-7.53c0.16-0.62,0.38-1.22,0.63-1.8
		c0.1-0.24,0.31-0.56,0.54-0.05c-0.04,0.5,0.09,1-0.09,1.48l0.01,0C44.04,33.75,44.47,34.47,44.18,35.09z"/>
	<path style="fill-rule:evenodd;clip-rule:evenodd;fill:#5D1E1D;" d="M47.53,68.62c0.16,0.01,0.32,0.02,0.48,0.03
		c0.12,0.12,0.26,0.09,0.4,0.07c0.1,0.01,0.2,0.03,0.29,0.05c0.15,0.03,0.3,0.06,0.46,0.09c0.71,0.41,1.55-0.33,2.23,0.27
		c0.78,0.52,1.42,1.16,1.71,2.08c-0.03,0.11-0.08,0.2-0.15,0.29c-0.75,0.64-0.33,1.34-0.11,2.03c0.03,0.13,0.06,0.27-0.07,0.37
		c0.06,0.06,0.11,0.12,0.17,0.19c0.06,0.06,0.12,0.12,0.17,0.17c0.03,0.03,0.06,0.05,0.09,0.08c0.07,0.04,0.13,0.08,0.21,0.11
		c0,0,0.12,0.02,0.12,0.01c0.13-0.01,0.25-0.03,0.37-0.04c0.04,0,0.09,0.01,0.13,0.01c0.05,0.21,0.1,0.43,0.15,0.64
		c-0.62,0.92-1.49,1.39-2.59,1.46c-0.1-0.12-0.23-0.25-0.23-0.4c-0.09-2.49-1.45-4.26-3.21-5.83C47.69,69.89,47,69.45,47.53,68.62z"
		/>
	<path style="fill-rule:evenodd;clip-rule:evenodd;fill:#6D2020;" d="M47.53,68.62c0,1.19,1.03,1.66,1.72,2.3
		c1.67,1.54,2.47,3.36,2.34,5.62c-0.32,0.08-0.64,0.17-0.96,0.26c-0.42-0.17-0.42-0.53-0.38-0.9c0.16-1.51-0.48-2.73-1.49-3.74
		c-1.39-1.38-2.55-2.92-3.58-4.58c-0.66-1.06-1.29-1.24-2.5-0.79c-0.19,0.17-0.38,0.34-0.6,0.04c-0.23-0.59-0.25-1.18,0.05-1.75
		c0.1-0.11,0.22-0.14,0.37-0.11c0.58,0.21,1.21,0.13,1.8,0.3c0.7-0.06,1.24,0.27,1.74,0.71c0.05,0.18,0.21,0.18,0.35,0.21
		l-0.05-0.03c0.63,0.38,0.27,1.05,0.44,1.56C46.8,68.21,47.28,68.32,47.53,68.62z"/>
	<path style="fill-rule:evenodd;clip-rule:evenodd;fill:#312F2D;" d="M42.26,65.05c-0.01,0.63-0.02,1.26-0.02,1.88
		c-0.03,0.22-0.16,0.36-0.35,0.46c-0.25,0.11-0.52,0.13-0.79,0.14c-0.85,0-1.7,0.01-2.55,0.03c-0.74-0.04-1.48-0.06-2.22,0.01
		c-0.17,0.06-0.35,0.08-0.53,0.06c-0.12-0.01-0.23-0.05-0.34-0.1c-0.1-0.06-0.18-0.14-0.25-0.23c-0.03-0.05-0.06-0.1-0.08-0.15
		c-0.04-0.1-0.07-0.21-0.09-0.32c-0.09-0.34,0.03-0.74-0.24-1.05c-0.09-0.01-0.19-0.03-0.28-0.04c0.69-0.43,1.6-0.58,1.98-1.44
		c0.1-0.07,0.2-0.08,0.31-0.01c0.31,0.35,0.06,0.9,0.44,1.22c0.15,0.06,0.3,0.02,0.45,0c-0.12-0.01-0.25,0.03-0.37,0
		c-0.07-0.02-0.14-0.06-0.19-0.13c-0.09-0.24-0.12-0.47,0.06-0.68c0.1-0.08,0.22-0.14,0.34-0.18c1.14-0.14,2.19,0.3,3.26,0.53
		c0.7,0.85,0.13,1-0.59,1.04c-0.43,0.02-0.85,0-1.28,0.01c0.48,0,0.96,0.02,1.43,0c0.59-0.02,1.09-0.19,1.23-0.88
		c0.05-0.24,0.07-0.6,0.5-0.48c0.07-0.03,0.12-0.02,0.17,0.04c0.08,0.05,0.12,0.1,0.09,0.16C42.31,65.02,42.29,65.05,42.26,65.05z"
		/>
	<path style="fill-rule:evenodd;clip-rule:evenodd;fill:#201F1E;" d="M46.78,67.72c-0.15-0.52-0.3-1.04-0.44-1.56
		c0.58,0.2,0.63-0.26,0.78-0.62c0.96-2.34,1.9-4.69,3.49-6.7c0.83-0.02,0.5,0.6,0.45,0.94c-0.49,2.92-2.16,5.23-4,7.43
		C46.93,67.36,46.87,67.55,46.78,67.72z"/>
	<path style="fill-rule:evenodd;clip-rule:evenodd;fill:#4B4444;" d="M52.73,71.29c0.13-0.03,0.25-0.05,0.37-0.08
		c0.33,0.48,0.61,0.82,1.35,0.87c2.39,0.15,4.05,3.12,2.98,5.27c-0.3,0.6-0.45,1.17-0.38,1.81c0.04,0.33,0.09,0.78-0.22,0.83
		c-0.44,0.06-0.37-0.46-0.5-0.76c-0.3-0.67,0.02-1.24,0.2-1.84c0.44-1.47-0.28-3.15-1.56-3.72c-0.89-0.4-1.09-0.05-0.94,0.78
		c-0.01,0.05-0.04,0.08-0.09,0.1c-0.12-0.01-0.22-0.06-0.3-0.13C52.86,73.51,52.69,72.43,52.73,71.29z"/>
	<path style="fill-rule:evenodd;clip-rule:evenodd;fill:#242322;" d="M54.24,35.28c-0.3,0.48-0.21,1.03-0.28,1.56
		c-0.07-0.62-0.66-1.11-0.42-1.8c0.06-0.09,0.05-0.17-0.05-0.23l0.01,0.01c-0.07-0.11-0.14-0.2-0.28-0.23l0.01,0.01
		c-0.15-0.34,0.06-0.87-0.51-0.98c-0.07-0.05-0.14-0.1-0.21-0.15c-0.13-0.36,0.04-0.86-0.44-1.07c-1-1.87-2.68-3.18-3.97-4.81
		c-0.11-0.13-0.42-0.1-0.63-0.14c-0.08-0.31-0.53-0.18-0.59-0.51c-0.08-0.3,0.01-0.56,0.16-0.81c0.09-0.15,0.19-0.28,0.31-0.4
		c0.09-0.08,0.19-0.11,0.31-0.11c0.91,0.51,1.74,1.12,2.52,1.81c0.1,0.04,0.2,0.09,0.28,0.16c0.14,0.64,0.66,1.04,0.99,1.56
		c0.05,0.09,0.1,0.18,0.14,0.28c0.09,0.29,0.25,0.55,0.43,0.8c0.27,0.42,0.69,0.75,0.76,1.29c0.06,0.17,0.14,0.34,0.25,0.49
		c0.05,0.07,0.08,0.16,0.09,0.25c0.05,0.1-0.21,0.17-0.04,0.29c0.06,0.07,0.11,0.14,0.16,0.21c0.08,0.12,0.16,0.23,0.24,0.35
		c0.06,0.08,0.11,0.17,0.16,0.26C53.76,34.02,54.54,34.49,54.24,35.28z"/>
	<path style="fill-rule:evenodd;clip-rule:evenodd;fill:#333030;" d="M51.39,69.13c-0.89,0-1.79,0.34-2.67-0.04
		c-0.07-0.11-0.06-0.21,0.02-0.3c1.52-0.03,1.97-1.18,2.43-2.33c0.35-0.88,0.55-1.81,0.88-2.7c0.16-0.42,0.1-0.77-0.24-1.07
		c-0.06-0.11-0.05-0.21,0.03-0.3c0-0.07,0-0.14,0-0.21c0.13-0.26,0.42-0.25,0.62-0.4c-0.28-0.04-0.54,0.01-0.78,0.13
		c-0.11,0.05-0.19,0.14-0.28,0.22c-0.86-1.02,0.39-0.8,0.67-1.14c0.03-0.05,0.06-0.09,0.09-0.14c0.4-0.23,0.83-0.27,1.28-0.23
		c0.25,0.11,0.15,0.39,0.27,0.57c0.54,2.72-0.97,4.85-2.05,7.11C51.54,68.58,51.19,68.75,51.39,69.13z"/>
	<path style="fill-rule:evenodd;clip-rule:evenodd;fill:#8A2625;" d="M45.37,28.93c-0.13,0.12-0.25,0.23-0.38,0.35
		c-0.31,0.16-0.58,0.18-0.73-0.21c-0.2-2.07,0.68-3.66,2.17-5.02c1.17-1.06,2.15-2.33,3.48-3.23c0.36-0.24,0.51-0.58,0.57-0.99
		c0.05-0.11,0.14-0.17,0.26-0.17c0.13,0.22,0.25,0.44,0.37,0.65c0.38,0.78,0.09,1.35-0.56,1.81c-0.51,0.36-0.97,0.79-1.42,1.23
		c-1.18,0.75-1.96,1.87-2.75,2.98c-0.51,0.33-0.71,0.84-0.63,1.42C45.81,28.22,45.65,28.58,45.37,28.93z"/>
	<path style="fill-rule:evenodd;clip-rule:evenodd;fill:#6D2522;" d="M38.11,20.99c1.38-1.85,2.85-3.62,4.6-5.14
		c0.24-0.15,0.45-0.39,0.78-0.28c0.38,0.65-0.03,1.12-0.38,1.6c-1.04,1.4-2.3,2.59-3.54,3.8c-0.62,0.38-1.23,0.77-1.83,1.18
		c-0.12,0.02-0.23,0-0.33-0.06c-0.06-0.11-0.05-0.21,0.04-0.31c0.21-0.25,0.42-0.5,0.63-0.75L38.11,20.99z"/>
	<path style="fill-rule:evenodd;clip-rule:evenodd;fill:#4E2D2B;" d="M37.44,23.04c-1.53-0.59-3.07-0.07-4.54,0.17
		c-2.49,0.41-5,0.89-7.36,1.9c-0.27,0.12-0.63,0.05-0.94,0.08c3.54-1.51,7.26-2.3,11.08-2.56c0.58-0.04,1.09-0.14,1.51-0.56
		c0.04,0.03,0.08,0.06,0.12,0.09c0.15,0.15,0.34,0.16,0.54,0.16c0.1,0.01,0.19,0.04,0.28,0.07c0.14,0.04,0.28,0.09,0.42,0.12
		c0.1,0.01,0.19,0.04,0.29,0.06c0.35,0.08,0.67,0.24,0.97,0.43c0.09,0.05,0.17,0.11,0.26,0.17c0.09,0.05,0.18,0.11,0.26,0.17
		c0.54,0.42,1.25,0.67,1.51,1.4c-0.02,0.19-0.13,0.3-0.31,0.34c-0.37,0.01-0.62-0.23-0.89-0.42c-0.66-0.49-1.35-0.91-2.13-1.18
		C38.16,23.31,37.71,23.39,37.44,23.04z"/>
	<path style="fill-rule:evenodd;clip-rule:evenodd;fill:#982828;" d="M45.96,15.36c0.12,0.04,0.24,0.08,0.36,0.12
		c0.01,0.05,0.03,0.11,0.04,0.16c-0.08,0.08-0.17,0.14-0.28,0.18c-0.15,0.06-0.32,0.1-0.47,0.15c-0.94,1.03-1.73,2.17-2.66,3.21
		c-0.96,1.08-1.95,2.11-3.14,2.93c-0.4,0.27-0.81,0.54-1.33,0.32c-0.37-0.48,0.06-0.71,0.33-0.93c0.27-0.22,0.6-0.35,0.82-0.63
		c0.08-0.08,0.16-0.15,0.25-0.22c1.33-1.06,2.47-2.29,3.42-3.7c0.53-0.5,0.76-1.16,1.01-1.82c0.09-0.07,0.2-0.1,0.31-0.09
		c0.16,0.06,0.33,0.1,0.49,0.16C45.39,15.27,45.69,15.21,45.96,15.36z"/>
	<path style="fill-rule:evenodd;clip-rule:evenodd;fill:#897B7C;" d="M24.86,42.48c3.02,1.75,5.99,3.6,9.31,4.75
		c0.86,0.3,1.7,0.31,2.56,0.07c0.09,0.08,0.25,0.1,0.26,0.26c-0.91,0.49-1.91,0.38-2.78,0.08c-3.5-1.24-6.75-2.97-9.76-5.14
		C24.59,42.38,24.72,42.38,24.86,42.48z"/>
	<path style="fill-rule:evenodd;clip-rule:evenodd;fill:#3E3939;" d="M50.17,27.61c-0.06,0.05-0.16,0.14-0.17,0.13
		c-0.81-0.68-1.61-1.37-2.41-2.06c-0.22-0.8,0.5-1.03,0.9-1.44c0.35-0.36,0.89-0.48,1.29-0.79c0.1-0.06,0.21-0.1,0.33-0.12
		c0.18-0.01,0.35,0.03,0.47,0.18c-0.46,0.59,0.04,1.11,0.11,1.67c-0.09,0.08-0.16,0.18-0.23,0.28c-0.07,0.1-0.15,0.18-0.24,0.27
		c0.09-0.08,0.17-0.17,0.24-0.27c0.07-0.1,0.13-0.2,0.21-0.29c0.17,0.24,0.34,0.48,0.51,0.72C50.81,26.46,50.1,26.8,50.17,27.61z"/>
	<path style="fill-rule:evenodd;clip-rule:evenodd;fill:#3B3737;" d="M55.43,38.63c0.01-0.08,0.01-0.15,0.02-0.23
		c0.1-0.06,0.19-0.07,0.3-0.02c0.42,0.34,0.35,1.07,0.98,1.25c0.03,0.15,0.07,0.33-0.03,0.45c-0.51,0.59-0.48,1.08,0.22,1.48
		c0.01,0.05,0.02,0.1,0.02,0.15c0.09,0.26-0.03,0.48-0.2,0.65c-0.72,0.73-0.27,0.96,0.45,1.09c0.07,0.23,0.13,0.47,0.2,0.7
		c-0.36,0.74-0.92,0.37-1.44,0.26c-1.02-0.92-0.24-2.12-0.46-3.17C55.3,40.41,55.43,39.51,55.43,38.63z"/>
	<path style="fill-rule:evenodd;clip-rule:evenodd;fill:#4B312E;" d="M18.96,29c0,0.1,0.01,0.19,0.01,0.29
		c0,0.05-0.01,0.09-0.01,0.14c-0.02,0.09-0.04,0.17-0.05,0.27c0.74,0.49,1.55,0.11,2.32,0.24c0.48,0.03,0.93,0.2,1.41,0.21
		c0.54,0.13,1.18,0.09,1.42,0.77c-0.11,0.18-0.28,0.26-0.47,0.32c-0.25,0.06-0.51,0.06-0.77,0.05c-0.25,0-0.51-0.04-0.75-0.09
		c-0.47-0.15-0.97-0.12-1.45-0.2c-0.16-0.02-0.31-0.07-0.46-0.09c-1.84-0.25-2.07-0.09-2.56,1.72c-0.1,0.09-0.2,0.09-0.31,0.01
		C16.57,30.85,16.86,30.22,18.96,29z"/>
	<path style="fill-rule:evenodd;clip-rule:evenodd;fill:#302E2D;" d="M55.72,38.42c-0.09-0.01-0.18-0.01-0.27-0.02
		c-0.85-0.87-0.38-2.24-1.21-3.12c-0.32-0.72-0.64-1.44-0.96-2.16c0.1-0.2,0.28-0.3,0.48-0.37c0.1-0.02,0.2-0.03,0.3-0.02
		c0.1,0.03,0.18,0.08,0.24,0.16c0.03,0.09,0.04,0.18,0.04,0.27c0,0.1-0.06,0.22,0.06,0.31c0.17,0,0.32-0.01,0.47,0.03
		c0.09,0.05,0.15,0.13,0.17,0.23c0.2,0.06-0.49,0.63,0.21,0.37c0.31-0.11,0.51-0.02,0.68,0.21l0.01-0.01
		c0.13,0.48-0.29,0.64-0.53,0.91c-0.06,0.11-0.25,0.19-0.11,0.34c0.07,0.07,0.19-0.01,0.28-0.06c0.2-0.03,0.46-0.57,0.6,0.05
		c0,0.06,0,0.13,0,0.19c0.14,0.29-0.03,0.52-0.16,0.74c-0.36,0.58-0.04,0.82,0.46,0.97c0,0.06-0.01,0.11-0.02,0.17
		C56.52,38.17,56.26,38.43,55.72,38.42z"/>
	<path style="fill-rule:evenodd;clip-rule:evenodd;fill:#4C4544;" d="M53.05,57.59c-0.44-0.88,0.16-1.17,0.81-1.44
		c0.12-0.05,0.33-0.17,0.32-0.2c-0.33-1.04-0.05-1.52,1.3-2.17c0.53,1.08-0.17,1.8-0.73,2.57C54.35,57.01,53.57,57.12,53.05,57.59z"
		/>
	<path style="fill-rule:evenodd;clip-rule:evenodd;fill:#6A2623;" d="M50.57,23.53c-0.21,0-0.43-0.01-0.64-0.01
		c-0.37,0.07-0.72,0.1-0.98-0.25c0.29-0.64,0.85-1.04,1.41-1.37c0.64-0.38,0.84-0.88,0.77-1.57C52.09,21.59,51.54,22.59,50.57,23.53
		z"/>
	<path style="fill-rule:evenodd;clip-rule:evenodd;fill:#3D393A;" d="M52.56,31.68c-0.24-0.49-0.47-0.97-0.71-1.46
		c-0.11-0.23-0.01-0.42,0.11-0.61c0.32-0.39,0.54-0.82,0.5-1.34c0.07-0.15,0.14-0.3,0.35-0.19c0.24,0.32,0.47,0.65,0.71,0.97
		c0.02,0.04,0.05,0.07,0.04,0.11c-0.02,0.27-0.27,0.35-0.42,0.51c0.2-0.07,0.37-0.26,0.6-0.13c0.08,0.08,0.17,0.17,0.25,0.25
		c0.06,0.1,0.05,0.2-0.04,0.28c-0.04,0.07-0.08,0.13-0.1,0.21c-0.06,0.18-0.24,0.29-0.26,0.49c0.2-0.12,0.26-0.33,0.31-0.53
		c0.02-0.07,0.05-0.14,0.1-0.21c0.09-0.09,0.18-0.1,0.28-0.04c0.14,0.27,0.27,0.53,0.41,0.8c-0.04,0.74-0.7,0.97-1.12,1.41
		c-0.09,0.05-0.2,0.06-0.3,0.05C53.05,32.03,52.7,31.99,52.56,31.68z"/>
	<path style="fill-rule:evenodd;clip-rule:evenodd;fill:#403B3A;" d="M42.07,64.76c-0.63,0.33,0.46,1.34-0.5,1.43
		c-1.14,0.11-2.31,0.03-3.46,0.03c-0.04,0-0.09-0.08-0.13-0.12c0.11-0.03,0.22-0.09,0.33-0.09C38.9,65.99,39.5,66,40.09,66
		c0.48,0,0.9-0.07,0.71-0.73c-0.31-0.32-0.41-0.71-0.39-1.15c0.04-0.19,0.14-0.32,0.35-0.35C41.51,63.68,41.82,64.18,42.07,64.76z"
		/>
	<path style="fill-rule:evenodd;clip-rule:evenodd;fill:#3E3939;" d="M52.81,28.08c-0.08,0.07-0.17,0.13-0.25,0.2
		c-0.04,0.1-0.1,0.19-0.18,0.26c-0.36,0.22-0.56,0.67-1.02,0.74c-0.47-0.49-1.28-0.79-0.95-1.72c0.01-0.66,0.17-1.19,0.99-1.18
		c0.07,0.01,0.14,0.03,0.2,0.08c0.1,0.04,0.17,0.1,0.23,0.19l0.01,0.01c-0.21,0.4-0.21,0.4,0.29,0.44
		C52.34,27.43,52.58,27.75,52.81,28.08z"/>
	<path style="fill-rule:evenodd;clip-rule:evenodd;fill:#5E3030;" d="M41.53,24.96c0.08-0.06,0.15-0.13,0.23-0.19
		c0.42-0.24,0.6,0.12,0.85,0.33c0.37,0.6,0.94,1.04,1.31,1.64c0.22,0.36,0.31,0.77,0.46,1.16c0.03,0.2,0.02,0.4,0.08,0.6
		c0.04,0.1,0.03,0.19-0.02,0.28c-0.03,0.4,0.18,0.54,0.55,0.51c-0.71,0.78-0.17,1.75-0.38,2.61c-0.1,0.41,0.13,0.87-0.17,1.26
		c-0.02-0.56-0.04-1.13-0.05-1.69c-0.49-0.5-0.18-1.18-0.41-1.73c-0.08-0.27-0.15-0.55-0.23-0.83c-0.12-0.42-0.26-0.83-0.47-1.21
		c-0.32-0.83-0.96-1.4-1.56-2.01c-0.11-0.12-0.21-0.26-0.27-0.41C41.41,25.14,41.44,25.04,41.53,24.96z"/>
	<path style="fill-rule:evenodd;clip-rule:evenodd;fill:#695F5E;" d="M52.56,59.52c-0.6-0.8-0.47-1.3,0.58-1.46
		c0.38-0.06,0.75-0.14,1.13-0.21c0.31,0.62,0.34,1.21-0.23,1.71C53.54,59.75,53.04,59.98,52.56,59.52z"/>
	<path style="fill-rule:evenodd;clip-rule:evenodd;fill:#655C5B;" d="M55.93,46.08c0.07,0,0.13-0.02,0.2-0.04
		c0.16-0.35,0.54-0.48,0.74-0.79c0.07-0.08,0.15-0.15,0.24-0.2c0.05,0,0.11-0.01,0.16-0.01c0.04,0.03,0.08,0.06,0.13,0.1
		c0.18,0.9,0.06,1.77-0.27,2.62c-0.05,0.03-0.1,0.06-0.15,0.08c-0.11,0.01-0.22-0.01-0.33-0.04C55.56,47.44,55.49,47.27,55.93,46.08
		z"/>
	<path style="fill-rule:evenodd;clip-rule:evenodd;fill:#554D4C;" d="M56.88,47.76c0.08,0,0.16,0,0.24,0
		c0.03,1.41-0.25,2.72-1.13,3.87c-0.89-0.58-0.33-1.17,0.05-1.69c0.13-0.18,0.37-0.28,0.37-0.55
		C56.36,48.79,56.51,48.24,56.88,47.76z"/>
	<path style="fill-rule:evenodd;clip-rule:evenodd;fill:#4A3030;" d="M48.94,23.26c0.33,0.07,0.73-0.11,0.98,0.25l-0.01,0.03
		c-1.32,0.51-2.41,1.27-2.91,2.68c-0.08,0.22-0.2,0.44,0.03,0.64c0.15,0.2,0.3,0.39,0.44,0.59c-0.43-0.3-0.63,0.14-0.92,0.28
		c-0.53-0.46-0.63-0.98-0.24-1.58C46.89,24.92,47.66,23.86,48.94,23.26z"/>
	<path style="fill-rule:evenodd;clip-rule:evenodd;fill:#685E5E;" d="M57.17,43.44c-0.42-0.03-0.86,0.75-1.18,0.15
		c-0.28-0.51-0.11-1.14,0.56-1.46c0.16-0.08,0.25-0.28,0.38-0.42C57.36,42.23,57.68,42.78,57.17,43.44z"/>
	<path style="fill-rule:evenodd;clip-rule:evenodd;fill:#742524;" d="M46.31,26.15c0.08,0.53,0.16,1.05,0.24,1.58
		c-0.39,0.4-0.79,0.8-1.18,1.2c0.31-0.57-0.12-1.15,0.02-1.71C45.51,26.72,45.67,26.21,46.31,26.15z"/>
	<path style="fill-rule:evenodd;clip-rule:evenodd;fill:#665D5C;" d="M56.91,41.56c-0.39-0.4-0.73,0.6-0.92,0.12
		c-0.18-0.44-0.26-1.09,0.26-1.51c0.19-0.15,0.38-0.27,0.37-0.54c-0.06-0.24,0.04-0.32,0.27-0.27
		C56.65,40.09,57.78,40.82,56.91,41.56z"/>
	<path style="fill-rule:evenodd;clip-rule:evenodd;fill:#675D5D;" d="M53.31,32.18c0.46-0.47,0.92-0.94,1.38-1.41
		c0.5,0.24,0.47,0.71,0.49,1.16c-0.35,0.38-0.7,0.77-1.22,0.93c-0.07,0-0.14,0.01-0.2,0.03C53.41,32.77,53.16,32.61,53.31,32.18z"/>
	<path style="fill-rule:evenodd;clip-rule:evenodd;fill:#615857;" d="M56.89,39.36c-0.09,0.09-0.18,0.18-0.27,0.27
		c-1.08,0.18-0.67-0.76-0.9-1.21c0.25-0.27,0.49-0.53,0.74-0.8C56.97,38.1,57.4,38.61,56.89,39.36z"/>
	<path style="fill-rule:evenodd;clip-rule:evenodd;fill:#5D5454;" d="M56.48,37.45c-0.34-0.02-0.59,0.64-0.91,0.26
		c-0.26-0.32-0.23-0.83,0.02-1.23c0.17-0.26,0.39-0.49,0.59-0.74C56.63,36.25,57.12,36.75,56.48,37.45z"/>
	<path style="fill-rule:evenodd;clip-rule:evenodd;fill:#645B5A;" d="M53.05,57.59c0.41-0.62,0.81-1.27,1.7-1.24
		c0.62,0.75,0.26,1.19-0.49,1.5C53.92,57.46,53.45,57.68,53.05,57.59z"/>
	<path style="fill-rule:evenodd;clip-rule:evenodd;fill:#413C3D;" d="M52.56,59.52c0.49,0.01,0.98,0.03,1.47,0.04
		c-0.11,0.54-0.21,1.09-0.32,1.63c-0.07-0.16-0.13-0.31-0.2-0.47c-0.6-0.7-1.02-0.24-1.44,0.22L52.07,61
		c-0.16-0.01-0.31-0.03-0.47-0.04c-0.14-0.16-0.15-0.32-0.01-0.48C51.43,59.67,52.28,59.88,52.56,59.52z"/>
	<path style="fill-rule:evenodd;clip-rule:evenodd;fill:#6B6161;" d="M55.93,44.41c0.48-0.09,0.96-0.18,1.44-0.26
		c0.37,0.32,0.34,0.65,0.03,1c-0.04-0.02-0.08-0.05-0.13-0.08l-0.09-0.02l-0.06,0.07l-0.01,0.01c-0.27,0.43-0.68,0.76-1.14,0.49
		C55.51,45.33,55.62,44.83,55.93,44.41L55.93,44.41z"/>
	<path style="fill-rule:evenodd;clip-rule:evenodd;fill:#4C4544;" d="M55.47,53.79c-0.76-0.87-0.68-1.48,0.54-1.72
		C56.4,52.82,56.21,53.39,55.47,53.79z"/>
	<path style="fill-rule:evenodd;clip-rule:evenodd;fill:#706466;" d="M19.59,36.46c0.7,0.94,1.43,1.87,2.1,2.84
		c0.13,0.19,0.69,0.4,0.17,0.77c-0.88-1.2-1.75-2.4-2.63-3.6C19.34,36.36,19.46,36.35,19.59,36.46z"/>
	<path style="fill-rule:evenodd;clip-rule:evenodd;fill:#5D5253;" d="M19.59,36.46c-0.12,0-0.24,0.01-0.36,0.01
		c-0.88-1.16-1.71-2.35-1.95-3.84c0.08-0.01,0.16-0.01,0.24-0.02c0.15,0.06,0.17,0.2,0.21,0.33C18,34.3,18.92,35.32,19.59,36.46z"/>
	<path style="fill-rule:evenodd;clip-rule:evenodd;fill:#544C4C;" d="M51.39,26.38c-0.33,0.39-0.66,0.79-0.99,1.18
		c-0.08,0.02-0.15,0.04-0.23,0.05c-0.47-0.77-0.21-1.2,1.01-1.71C51.25,26.07,51.32,26.22,51.39,26.38z"/>
	<path style="fill-rule:evenodd;clip-rule:evenodd;fill:#4E4847;" d="M55.93,34.31c-0.15-0.03-0.31-0.1-0.44-0.07
		c-0.38,0.08-0.56,0.9-0.98,0.49c-0.5-0.48,0.37-0.72,0.46-1.14c0.02-0.24,0.16-0.4,0.36-0.52c0.11-0.04,0.21-0.02,0.3,0.05
		c0.09,0.16,0.18,0.31,0.27,0.47c-0.06,0.05-0.08,0.1-0.06,0.15c0.01,0.05,0.03,0.08,0.05,0.08C55.91,33.99,55.92,34.15,55.93,34.31
		z"/>
	<path style="fill-rule:evenodd;clip-rule:evenodd;fill:#6A533A;" d="M36.66,64.35c-0.06,0.01-0.12-0.01-0.18-0.04
		c0.16-2.15,1.53-0.76,2.4-0.82c-0.04,0.13-0.11,0.22-0.23,0.28c-0.16,0.03,0.06,0.02-0.1,0.04c-0.91,0.13-0.91,0.13-1.07,0.94
		c-0.08,0.02-0.16,0.03-0.24,0.05c-0.2-0.07-0.27-0.25-0.33-0.43c-0.04-0.13-0.08-0.25-0.03-0.38
		C36.81,64.12,36.84,64.3,36.66,64.35z"/>
	<path style="fill-rule:evenodd;clip-rule:evenodd;fill:#6B6161;" d="M55.64,33.13l-0.1,0.01l-0.1-0.01
		c-0.27,0.11-0.47,0.32-0.71,0.47c-0.16,0.07-0.31,0.14-0.47,0.21c-0.24-0.21-0.16-0.45-0.06-0.69c0.03-0.08,0.05-0.16,0.08-0.24
		c0.31-0.38,0.47-1.16,1.21-0.49C55.53,32.64,55.58,32.89,55.64,33.13z"/>
	<path style="fill-rule:evenodd;clip-rule:evenodd;fill:#6A6160;" d="M56.18,35.54c-0.3-0.21-0.29,0.24-0.49,0.24
		c-0.56,0.01-0.57-0.34-0.5-0.75c0.25-0.25,0.5-0.49,0.76-0.74C56.45,34.63,56.65,35.03,56.18,35.54z"/>
	<path style="fill-rule:evenodd;clip-rule:evenodd;fill:#504743;" d="M24.86,42.48c-0.13,0.01-0.27,0.02-0.4,0.02
		c-0.71-0.57-1.42-1.14-2.13-1.71c-0.06-0.42-0.07-0.7,0.41-0.24C23.43,41.2,24.15,41.83,24.86,42.48z"/>
	<path style="fill-rule:evenodd;clip-rule:evenodd;fill:#6C6362;" d="M53.74,29.53c-0.04,0.02-0.07,0.04-0.11,0.05
		c-0.53,0.16-0.78,1.34-1.11,0.91c-0.49-0.65,0.56-0.99,0.99-1.44C53.78,29.12,53.75,29.33,53.74,29.53z"/>
	<path style="fill-rule:evenodd;clip-rule:evenodd;fill:#685F5F;" d="M52.11,27.1c-0.08,0.01-0.16,0.02-0.23,0.04
		c-0.45,0.14-0.67,1.18-1.06,0.7c-0.33-0.42,0.52-0.87,0.99-1.18C52.06,26.72,52.09,26.91,52.11,27.1z"/>
	<path style="fill-rule:evenodd;clip-rule:evenodd;fill:#836D37;" d="M38.61,63.64c0.09-0.05,0.18-0.1,0.27-0.15
		c0.64,0.01,1.3-0.16,1.87,0.28c-0.06,0.1-0.13,0.2-0.19,0.3C39.84,64.24,39.11,64.45,38.61,63.64z"/>
	<path style="fill-rule:evenodd;clip-rule:evenodd;fill:#938685;" d="M38.16,45.56c0.01,0.19,0.01,0.37,0.02,0.56
		c-0.02,0.69-0.4,1.11-1,1.37c-0.09-0.08-0.24-0.1-0.25-0.25c0.64-0.36,0.96-0.92,1.04-1.63C38.02,45.52,38.08,45.51,38.16,45.56z"
		/>
	<path style="fill-rule:evenodd;clip-rule:evenodd;fill:#3D393A;" d="M55.48,32.39c-0.6-0.33-0.81,0.31-1.21,0.49
		c-0.1-0.01-0.2-0.02-0.3-0.03c0.43-0.27,0.46-1.08,1.22-0.93C55.28,32.08,55.38,32.24,55.48,32.39z"/>
	<path style="fill-rule:evenodd;clip-rule:evenodd;fill:#7D5350;" d="M47.36,16.27c0.6,0.24,0.98,0.74,1.4,1.19
		c-0.03,0.05-0.07,0.09-0.1,0.14c-0.7,0.17-0.99-0.4-1.37-0.79c-0.06-0.1-0.1-0.2-0.12-0.31C47.19,16.38,47.25,16.31,47.36,16.27z"
		/>
	<path style="fill-rule:evenodd;clip-rule:evenodd;fill:#634540;" d="M45.96,15.36c-0.35,0-0.7-0.01-1.05-0.01
		c-0.08-0.07-0.17-0.12-0.27-0.13c-0.06,0-0.13,0-0.19,0.01c-0.14,0.06-0.29,0.08-0.44,0.04c-0.1-0.04-0.15-0.12-0.16-0.23
		C44.63,14.68,45.29,15.03,45.96,15.36z"/>
	<path style="fill-rule:evenodd;clip-rule:evenodd;fill:#5E3030;" d="M44.18,35.09c0.04-0.66-0.28-1.36,0.25-1.95
		C44.41,33.8,44.52,34.47,44.18,35.09z"/>
	<path style="fill-rule:evenodd;clip-rule:evenodd;fill:#312F2D;" d="M44.3,65.27c-0.61-0.07-1.26,0.19-1.83-0.23
		c0.25-0.18,0.5-0.16,0.76-0.02C43.6,65.04,43.99,64.99,44.3,65.27z"/>
	<path style="fill-rule:evenodd;clip-rule:evenodd;fill:#704847;" d="M49.99,18.69c0.37,0.23,0.59,0.58,0.76,0.98
		c-0.04,0.04-0.07,0.09-0.09,0.13c-0.11,0.03-0.21,0.03-0.31-0.01c-0.2-0.1-0.35-0.25-0.47-0.43c-0.06-0.09-0.09-0.19-0.11-0.3
		c0-0.11,0.03-0.21,0.08-0.31C49.89,18.73,49.94,18.71,49.99,18.69z"/>
	<path style="fill-rule:evenodd;clip-rule:evenodd;fill:#302E2D;" d="M52.08,32.4c0.7,0.13,0.44,0.65,0.44,1.07
		C52.37,33.12,52.23,32.76,52.08,32.4z"/>
	<path style="fill-rule:evenodd;clip-rule:evenodd;fill:#302E2D;" d="M52.73,33.63c0.77,0.01,0.51,0.57,0.51,0.98
		C52.82,34.41,53.26,33.76,52.73,33.63z"/>
	<path style="fill-rule:evenodd;clip-rule:evenodd;fill:#403B3A;" d="M43.23,65.02c-0.25,0.01-0.51,0.01-0.76,0.02l-0.11,0l-0.11,0
		c-0.01-0.08-0.01-0.17-0.02-0.25C42.57,64.87,42.9,64.95,43.23,65.02z"/>
	<path style="fill-rule:evenodd;clip-rule:evenodd;fill:#634540;" d="M43.44,15.59c-0.25,0.09-0.49,0.18-0.74,0.27
		c0.17-0.25,0.36-0.49,0.69-0.54c0.04,0.04,0.07,0.08,0.11,0.13C43.48,15.49,43.46,15.54,43.44,15.59z"/>
	<path style="fill-rule:evenodd;clip-rule:evenodd;fill:#D3CFCF;" d="M16.5,84.49c-0.06,0.04-0.11,0.08-0.17,0.12
		c-0.04-0.08-0.08-0.16-0.12-0.23c0.07-0.02,0.14-0.08,0.2-0.07C16.45,84.32,16.47,84.42,16.5,84.49z"/>
	<path style="fill-rule:evenodd;clip-rule:evenodd;fill:#79514A;" d="M46.31,15.48c0.25,0.18,0.51,0.36,0.76,0.55
		c-0.03,0.04-0.07,0.09-0.1,0.13c-0.31,0.12-0.54-0.01-0.74-0.24c-0.06-0.1-0.08-0.21-0.08-0.32
		C46.21,15.56,46.26,15.52,46.31,15.48z"/>
	<path style="fill-rule:evenodd;clip-rule:evenodd;fill:#634540;" d="M43.39,15.31c0.15-0.09,0.31-0.18,0.46-0.27
		c0.04,0.05,0.07,0.1,0.11,0.15c-0.05,0.27-0.22,0.33-0.46,0.24C43.47,15.39,43.43,15.35,43.39,15.31z"/>
	<path style="fill-rule:evenodd;clip-rule:evenodd;fill:#7D5350;" d="M48.77,17.47c0.12,0.1,0.24,0.2,0.37,0.3
		c-0.09,0.07-0.19,0.09-0.3,0.06c-0.09-0.06-0.15-0.14-0.17-0.25C48.7,17.54,48.73,17.5,48.77,17.47z"/>
	<path style="fill-rule:evenodd;clip-rule:evenodd;fill:#4E4443;" d="M36.93,47.25c0.08,0.08,0.17,0.17,0.25,0.25
		c-0.06,0.04-0.12,0.06-0.19,0.06c-0.09-0.09-0.17-0.17-0.26-0.26C36.8,47.28,36.86,47.26,36.93,47.25z"/>
	<path style="fill-rule:evenodd;clip-rule:evenodd;fill:#201F1E;" d="M46.39,66.19c-0.15-0.02-0.43,0.18-0.35-0.21
		C46.15,66.05,46.27,66.12,46.39,66.19z"/>
	<path style="fill-rule:evenodd;clip-rule:evenodd;fill:#302E2D;" d="M53.5,34.81c0.04,0.05,0.09,0.1,0.12,0.15
		c0,0.01-0.05,0.05-0.08,0.08C53.52,34.97,53.5,34.89,53.5,34.81z"/>
	<path style="fill-rule:evenodd;clip-rule:evenodd;fill:#302E2D;" d="M53.23,34.6c0.09,0.08,0.19,0.15,0.28,0.23
		C53.42,34.75,53.32,34.67,53.23,34.6z"/>
	<path style="fill-rule:evenodd;clip-rule:evenodd;fill:#3D393A;" d="M55.89,33.83c-0.02-0.06-0.05-0.11-0.06-0.17
		c0-0.02,0.05-0.04,0.08-0.06C55.9,33.68,55.9,33.76,55.89,33.83z"/>
	<polygon style="fill-rule:evenodd;clip-rule:evenodd;fill:#822625;" points="38.11,20.99 38.07,21.04 38.05,20.99 	"/>
	<path style="fill-rule:evenodd;clip-rule:evenodd;fill:#4E2D2B;" d="M37.43,21.79c0,0.09,0,0.18,0,0.27
		c-0.06,0.08-0.14,0.1-0.22,0.03l-0.03-0.03C37.27,21.98,37.35,21.89,37.43,21.79z"/>
	<path style="fill-rule:evenodd;clip-rule:evenodd;fill:#593739;" d="M49.74,18.43c0.08,0.09,0.17,0.17,0.25,0.26
		c-0.05,0-0.09,0.02-0.13,0.05c-0.05,0.01-0.1,0.02-0.14,0.04c-0.03-0.04-0.07-0.07-0.1-0.11c0-0.05,0-0.1,0-0.15
		C49.66,18.49,49.7,18.46,49.74,18.43z"/>
	<path style="fill-rule:evenodd;clip-rule:evenodd;fill:#593739;" d="M49.49,18.18c0.08,0.08,0.16,0.17,0.25,0.25l-0.06,0.06
		c-0.07,0.08-0.15,0.09-0.25,0.04c-0.06-0.08-0.08-0.17-0.05-0.27C49.41,18.23,49.45,18.2,49.49,18.18z"/>
	<path style="fill-rule:evenodd;clip-rule:evenodd;fill:#674141;" d="M49.25,17.96c0.08,0.07,0.16,0.14,0.24,0.22l-0.05,0.07
		c-0.13,0.02-0.22-0.02-0.28-0.14C49.19,18.06,49.22,18.01,49.25,17.96z"/>
	<path style="fill-rule:evenodd;clip-rule:evenodd;fill:#674141;" d="M48.93,17.78c0.07,0,0.13,0,0.2-0.01
		c0.08,0.04,0.12,0.1,0.11,0.19L49.2,18C49,18.06,48.93,17.97,48.93,17.78z"/>
	<path style="fill-rule:evenodd;clip-rule:evenodd;fill:#685F5F;" d="M51.81,26.65c-0.08-0.06-0.15-0.13-0.23-0.19
		C51.66,26.53,51.74,26.59,51.81,26.65z"/>
	<path style="fill-rule:evenodd;clip-rule:evenodd;fill:#69605F;" d="M54.28,29.97c-0.09,0.01-0.17,0.03-0.26,0.04l-0.04-0.03
		c0-0.07,0.01-0.14,0.01-0.21C54.09,29.84,54.19,29.91,54.28,29.97z"/>
	<path style="fill-rule:evenodd;clip-rule:evenodd;fill:#5E474A;" d="M47.07,16.03c0.1,0.08,0.19,0.16,0.29,0.24
		c-0.05,0.01-0.09,0.03-0.12,0.06c-0.13-0.01-0.21-0.08-0.23-0.21L47.07,16.03z"/>
	<path style="fill-rule:evenodd;clip-rule:evenodd;fill:#ECCDCC;" d="M38.16,45.56c-0.06,0.02-0.13,0.04-0.19,0.05
		c-0.23,0.04-0.54,0.2-0.67,0.1c-2.97-2.03-6.63-2.59-9.61-4.76c-3.16-2.31-6.04-4.79-8.42-7.88c-0.32-0.42-0.73-0.79-1.3-0.73
		c-0.31,0.03-0.16,0.39-0.25,0.6c-0.07-0.11-0.14-0.22-0.21-0.33c-0.09-2.19,0.41-2.5,3.15-1.93c0.6,2.25,2.01,3.93,3.83,5.3
		c0.65,0.49,1.38,0.75,2.21,0.46c0.16,0.12,0.29,0.28,0.34,0.47c0.54,2.02,1.99,3.14,3.81,3.89c0.38,0.18,0.78,0.15,1.17,0.14
		c0.71-0.02,1.2,0.24,1.75,0.77c1.2,1.15,2.71,1.55,4.37,1C38.41,43.67,38.24,44.62,38.16,45.56z"/>
	<path style="fill-rule:evenodd;clip-rule:evenodd;fill:#6F1F20;" d="M34.78,65.79c0.91,0.08,0.3,0.79,0.49,1.17
		c-1.55,1.87-3.29,3.6-3.29,6.31c0,1.7,0.94,2.89,1.88,4.12c0.06,0.11,0.06,0.21,0.02,0.33c-0.69,0.02-1.32-0.19-1.94-0.44
		c-0.07-0.31-0.08-0.66-0.24-0.91c-1.72-2.72-0.87-5.22,0.78-7.53C33.21,67.81,33.65,66.52,34.78,65.79z"/>
	<path style="fill-rule:evenodd;clip-rule:evenodd;fill:#BE292B;" d="M37.14,78.05c-0.54-0.03-1.07-0.06-1.61-0.09
		c-0.09-0.08-0.15-0.18-0.18-0.3c-0.06-0.92-0.57-1.64-1.03-2.39c-1.09-1.75-1.08-3.21,0.16-4.87c0.73-0.98,1.3-2.05,1.96-3.08
		c0.52,0.03,1.04-0.07,1.55,0.07c0.81,0.64,0.63,1.57,0.48,2.33c-0.48,2.46-0.84,4.93-1.03,7.43
		C37.41,77.47,37.34,77.79,37.14,78.05z"/>
	<path style="fill-rule:evenodd;clip-rule:evenodd;fill:#BE2A2B;" d="M48.24,77.51c-1.36,0.16-2.71,0.32-4.07,0.48
		c-0.28-0.76,0.08-1.48,0.14-2.22c0.18-2.41-0.82-4.57-1.35-6.83c-0.07-0.31-0.22-0.6-0.12-0.92c0.51-0.51,0.9-0.11,1.18,0.25
		c1.35,1.73,2.83,3.36,4.09,5.15C49.05,74.74,49.03,76.62,48.24,77.51z"/>
	<path style="fill-rule:evenodd;clip-rule:evenodd;fill:#A92729;" d="M48.24,77.51c0.57-1.87,0.16-3.46-1.17-4.92
		c-1.17-1.29-2.17-2.72-3.24-4.1c-0.23-0.29-0.46-0.56-0.86-0.56c-0.45-0.08-0.82-0.27-0.98-0.74c0.08-0.08,0.17-0.17,0.25-0.25
		c0.09-0.14,0.18-0.28,0.27-0.42c1.21-0.01,2.11,0.5,2.73,1.57c0.94,1.64,2.39,2.87,3.54,4.35c1.06,1.37,1.48,2.88,1.13,4.58
		C49.38,77.29,48.86,77.57,48.24,77.51z"/>
	<path style="fill-rule:evenodd;clip-rule:evenodd;fill:#882324;" d="M49.9,77.02c-0.4-0.66-0.12-1.41-0.26-2.1
		c-0.29-1.47-1.28-2.51-2.21-3.6c-0.54-0.63-1.15-1.21-1.62-1.88c-0.88-1.25-1.67-2.54-3.31-2.92c0.66-0.48,2.03-0.48,2.43,0.19
		c1.37,2.25,3.1,4.2,4.81,6.17c0.98,1.13,0.83,2.56,0.89,3.92C50.39,76.87,50.15,76.94,49.9,77.02z"/>
	<path style="fill-rule:evenodd;clip-rule:evenodd;fill:#C33835;" d="M37.14,78.05c-0.09-2.36,0.29-4.68,0.74-6.98
		c0.23-1.2,0.55-2.4,0.04-3.61c0.1-0.21,0.35-0.1,0.49-0.23c0.96,0.02,1.91,0.04,2.87,0.07c0,0.14-0.06,0.24-0.18,0.31
		c-1.73,0.39-1.65,0.4-1.91,2.21c-0.24,1.64-0.65,3.27-0.81,4.93c-0.1,0.99-0.45,2.03,0.24,2.96c0.16,0.12,0.28,0.25,0.24,0.47
		C38.28,78.14,37.71,78.1,37.14,78.05z"/>
	<path style="fill-rule:evenodd;clip-rule:evenodd;fill:#CB5A5A;" d="M38.85,78.19c-0.07-0.06-0.14-0.13-0.21-0.19
		c-0.58-0.81-0.53-1.73-0.43-2.64c0.24-2.06,0.71-4.08,1.04-6.12c0.2-1.22,0.66-1.53,2.12-1.52c1.44,0.75,1.53,2.07,1.46,3.46
		c-0.07,0.11-0.17,0.18-0.29,0.21c-0.81-0.18-0.7-0.95-0.94-1.5c-0.14-0.31-0.16-0.79-0.62-0.75c-0.43,0.03-0.49,0.47-0.55,0.82
		c-0.29,1.84-0.98,3.59-1.12,5.47c-0.06,0.84-0.13,1.65,0.68,2.21c0.53,0.07,1.08-0.02,1.58,0.22c0.11,0.07,0.17,0.17,0.19,0.3
		C40.8,78.15,39.82,78.17,38.85,78.19z"/>
	<path style="fill-rule:evenodd;clip-rule:evenodd;fill:#C43F3C;" d="M41.28,67.4l0-0.1c0.24-0.04,0.48-0.08,0.71-0.12
		c0.35,0.22,0.8,0.31,0.98,0.74c0.68,2.52,1.79,4.93,1.69,7.63c-0.03,0.85-0.11,1.66-0.49,2.43c-0.24,0.01-0.49,0.02-0.73,0.03
		c-0.28-0.29-0.32-0.65-0.2-1c0.76-2.17,0.15-4.25-0.36-6.34c-0.11-0.42-0.13-0.87-0.29-1.27c-0.08-0.2-0.1-0.43-0.13-0.64
		c-0.03-0.09-0.08-0.18-0.14-0.26c-0.06-0.07-0.12-0.15-0.18-0.21c-0.03-0.03-0.06-0.07-0.1-0.1c-0.07-0.06-0.13-0.13-0.2-0.2
		c-0.03-0.03-0.06-0.07-0.09-0.1C41.62,67.71,41.34,67.66,41.28,67.4z"/>
	<path style="fill-rule:evenodd;clip-rule:evenodd;fill:#9B2427;" d="M33.86,77.72c-0.01-0.06-0.02-0.13-0.03-0.19
		c-0.6-0.93-1.29-1.83-1.66-2.88c-0.63-1.76-0.12-3.38,0.88-4.85c0.65-0.95,1.15-2.06,2.25-2.63l-0.01,0.01
		c0.05,0.12,0.13,0.2,0.26,0.22l-0.02,0.02c0.33,0.52-0.02,0.92-0.25,1.31c-0.43,0.72-0.9,1.41-1.36,2.11
		c-0.97,1.52-0.94,2.99,0.05,4.48c0.26,0.4,0.54,0.79,0.76,1.22c0.2,0.4,0.39,0.81-0.03,1.2c-0.06,0.02-0.11,0.04-0.17,0.06
		C34.31,77.77,34.09,77.74,33.86,77.72z"/>
	<path style="fill-rule:evenodd;clip-rule:evenodd;fill:#C94F4C;" d="M42.72,68.88c0.22,2.04,1.43,3.88,1.19,6
		c-0.12,1.05-0.32,2.1-0.48,3.15c-0.54,0.2-1.11,0.17-1.67,0.12c-0.01-0.04-0.02-0.08-0.02-0.13c0.03-0.04,0.06-0.09,0.09-0.14
		c0.13-0.11,0.27-0.19,0.42-0.26c1.04-1.71,1.26-3.5,0.58-5.38c-0.09-0.26-0.16-0.52-0.13-0.8c0.01-0.05,0.01-0.11,0.02-0.16
		c-0.2-1.19-0.27-2.43-1.2-3.36c0.16-0.16,0.32-0.13,0.48,0l0,0c0.08,0.08,0.16,0.16,0.24,0.24l0,0c0.08,0.08,0.16,0.16,0.24,0.24
		l0,0C42.62,68.53,42.57,68.76,42.72,68.88z"/>
	<path style="fill-rule:evenodd;clip-rule:evenodd;fill:#9B2427;" d="M35.52,77.76c0.01,0.07,0.01,0.13,0.02,0.2
		c-0.35,0.03-0.7,0.06-1.01-0.17l0.09-0.08C34.93,77.54,35.23,77.48,35.52,77.76z"/>
	<path style="fill-rule:evenodd;clip-rule:evenodd;fill:#69605F;" d="M51.87,62.59c0.54-0.01,0.93,0.05,0.66,0.79
		c-0.62,1.7-1.05,3.47-1.91,5.07c-0.46,0.86-1.28,0.27-1.91,0.46c-0.09,0.05-0.17,0.03-0.23-0.05l0.02,0.01
		c-0.09-0.07-0.23-0.1-0.27-0.23c-0.08-0.08-0.15-0.16-0.23-0.24c-0.14-0.38,0.02-0.7,0.25-0.99c1.01-1.28,1.74-2.74,2.57-4.13
		C51.05,62.89,51.23,62.38,51.87,62.59z"/>
	<path style="fill-rule:evenodd;clip-rule:evenodd;fill:#4F4847;" d="M51.87,62.59c-0.76,0.18-0.77,0.94-1.1,1.44
		c-0.95,1.44-1.86,2.91-2.78,4.37c-0.16-0.08-0.31-0.16-0.46-0.25c-0.14-0.47,0.36-0.62,0.48-0.96l0,0c1.19-1.46,1.97-3.17,2.89-4.8
		c0.32,0,0.63-0.01,0.95-0.01C51.84,62.46,51.85,62.53,51.87,62.59z"/>
	<path style="fill-rule:evenodd;clip-rule:evenodd;fill:#333030;" d="M50.89,62.41c-0.7,1.76-1.47,3.47-2.89,4.8
		C48.95,65.59,49.74,63.89,50.89,62.41z"/>
	<path style="fill-rule:evenodd;clip-rule:evenodd;fill:#665C5C;" d="M56.88,47.76c0.06,0.61-0.01,1.17-0.47,1.63
		c-0.08,0.02-0.17,0.04-0.25,0.06c-0.8-0.36-0.47-0.91-0.23-1.44l0-0.01C56.17,47.62,56.47,47.47,56.88,47.76L56.88,47.76z"/>
	<path style="fill-rule:evenodd;clip-rule:evenodd;fill:#3B3737;" d="M55.93,44.41c-0.19,1.2,0.29,1.31,1.18,0.71
		c0.1,0.77-0.57,0.71-0.99,0.92C55.42,45.58,54.88,45.09,55.93,44.41z"/>
	<path style="fill-rule:evenodd;clip-rule:evenodd;fill:#605756;" d="M51.4,62.14c0.11-1.11,1.03-0.64,1.58-0.73
		c0.43-0.07,0.15,0.32,0.05,0.47c-0.3,0.46-0.79,0.22-1.2,0.31C51.69,62.17,51.54,62.15,51.4,62.14z"/>
	<path style="fill-rule:evenodd;clip-rule:evenodd;fill:#3B3737;" d="M56.89,47.77c-0.32,0.08-0.64,0.16-0.96,0.24
		c-0.55-0.64-0.97-1.28,0-1.92C55.59,47.02,56.31,47.35,56.89,47.77z"/>
	<path style="fill-rule:evenodd;clip-rule:evenodd;fill:#433E3D;" d="M55.93,48.01c0.06,0.48-0.2,1.01,0.23,1.44
		c-0.29,0.27-0.63,0.31-0.67-0.12C55.46,48.88,55.1,48.21,55.93,48.01z"/>
	<path style="fill-rule:evenodd;clip-rule:evenodd;fill:#333030;" d="M48,67.2c-0.16,0.32-0.32,0.64-0.48,0.96
		C47.05,67.52,47.76,67.48,48,67.2z"/>
	<path style="fill-rule:evenodd;clip-rule:evenodd;fill:#201F1E;" d="M48.22,68.65c0.09,0.08,0.18,0.16,0.27,0.23
		c-0.16-0.08-0.33-0.15-0.49-0.23C48.08,68.65,48.15,68.65,48.22,68.65z"/>
	<path style="fill-rule:evenodd;clip-rule:evenodd;fill:#333030;" d="M51.6,60.48c0,0.16,0,0.32,0.01,0.48
		C51.36,60.8,51.36,60.64,51.6,60.48z"/>
	<path style="fill-rule:evenodd;clip-rule:evenodd;fill:#6A1F1F;" d="M21.13,30.24c-0.76,0-1.52,0.01-2.28,0
		c-0.22,0-0.61-0.05-0.63-0.13c-0.06-0.32,0.25-0.44,0.48-0.59c0.08-0.08,0.18-0.14,0.26-0.23c0,0,0.01,0,0.01,0
		c1.82,0.59,3.16-0.59,4.51-1.38c3.56-2.05,7.32-3.46,11.35-4.15c0.9-0.16,1.61-0.92,2.6-0.72c0.4,0.06,0.86-0.15,1.2,0.24
		c-0.19,0.72-0.84,0.76-1.4,0.94c-3.15,1.01-6.31,1.96-9.4,3.12c-1.2,0.45-2.31,1.07-3.41,1.7C23.4,29.62,22.34,30.14,21.13,30.24z"
		/>
	<path style="fill-rule:evenodd;clip-rule:evenodd;fill:#5E453B;" d="M30.74,41.1c-2.18-0.82-3.66-2.26-4.13-4.61
		c-0.4-0.38-0.46-0.86-0.42-1.37c0.08-0.35,0.14-0.7,0.25-1.04c0.14-0.37,0.32-0.73,0.6-1.02c0.47-0.49,0.47-0.47-0.25-0.72
		c-0.94-0.33-1.9-0.6-2.87-0.85c-0.22-0.1-0.44-0.21-0.45-0.49c0.19-0.02,0.38-0.03,0.57-0.05c0.13-0.15,0.3-0.21,0.49-0.23
		c1.52,0.28,3,0.74,4.42,1.35c0.27,0.09,0.52,0.21,0.77,0.34c0.19,0.1,0.39,0.2,0.58,0.3c0.29,0.16,0.59,0.29,0.83,0.52
		c0.11,0.15,0.17,0.29,0.02,0.45c-0.1,0.06-0.21,0.1-0.32,0.12c-0.42,0.02-0.76-0.21-1.13-0.34c-1.21-0.42-2.33,0.22-2.46,1.47
		c-0.32,3.02,2.62,6.48,6.01,5.32c0.46-0.16,0.88-0.37,1.24-0.7c1.13-1.05,1.14-1.68,0.02-2.77c-0.14-0.14-0.3-0.27-0.42-0.42
		c-0.1-0.17-0.07-0.32,0.08-0.45c0.1-0.05,0.21-0.09,0.32-0.09c0.48,0.04,0.77,0.39,1.09,0.69c0.18,0.18,0.36,0.37,0.54,0.57
		c0.14,0.15,0.25,0.32,0.35,0.5c0.1,0.18,0.21,0.36,0.32,0.53c0.32,0.43,0.66,0.84,0.88,1.34c0.16,0.33,0.32,0.66,0.45,1
		c0.07,0.19,0.14,0.39,0.2,0.59c0.04,0.15,0.05,0.31,0.02,0.47c-0.03,0.1-0.09,0.19-0.17,0.26c-0.01,0.17-0.02,0.34-0.03,0.5
		c-0.3,0.05-0.39-0.17-0.49-0.38c-0.09-0.26-0.16-0.53-0.25-0.8c-0.86-2.19-0.86-2.19-2.56-0.54c-0.3,0.23-0.61,0.43-0.95,0.57
		C32.84,41.19,31.79,41.19,30.74,41.1z"/>
	<path style="fill-rule:evenodd;clip-rule:evenodd;fill:#6C1E20;" d="M44.18,29.51c0.4,0.61,0.15,1.29,0.19,1.94
		c-0.99,2.55-1.36,5.34-2.97,7.65c-0.7,1-1.44,1.98-2.2,2.93c-0.39,0.49-0.79,0.64-0.81-0.25c0-0.06,0.01-0.12,0.01-0.18
		c0.03-0.34,0.22-0.59,0.44-0.82c1.66-1.83,2.75-3.97,3.37-6.34c0.42-1.62,0.89-3.2,1.72-4.66C43.99,29.65,44.08,29.57,44.18,29.51z
		"/>
	<path style="fill-rule:evenodd;clip-rule:evenodd;fill:#D8ADAB;" d="M30.74,41.1c1.11-0.07,2.24,0.13,3.31-0.33
		c0.38-0.16,0.45,0.21,0.63,0.37c0.95,0.83,2.05,0.86,3.2,0.64c0.09,0.16,0.18,0.32,0.27,0.48c-0.01,0.15-0.01,0.31-0.02,0.46
		c-0.29,0.61-0.69,0.84-1.42,0.62c-1.37-0.41-2.8-0.5-3.72-1.96C32.69,40.89,31.48,41.55,30.74,41.1z"/>
	<path style="fill-rule:evenodd;clip-rule:evenodd;fill:#6C1E20;" d="M38.18,41.76c0-0.09,0-0.17,0-0.26
		c0.19-0.03,0.29,0.03,0.23,0.24l-0.01,0.02C38.32,41.76,38.25,41.76,38.18,41.76z"/>
	<path style="fill-rule:evenodd;clip-rule:evenodd;fill:#DABFC2;" d="M52.73,71.29c0.33,0.33,0.66,0.61,0.33,1.19
		c-0.49,0.84,1.01,1.07,0.7,1.92c-0.12,0.14-0.17,0.45-0.45,0.17l0.02,0.06c-0.12-0.06-0.2-0.15-0.27-0.25l0.02,0.02
		c-0.1-0.07-0.19-0.16-0.26-0.27l0.03,0.01c-0.09-0.06-0.13-0.14-0.12-0.25C52.46,73.03,51.49,72.15,52.73,71.29z"/>
	<path style="fill-rule:evenodd;clip-rule:evenodd;fill:#232322;" d="M53.3,74.57c0.15-0.06,0.3-0.11,0.45-0.17
		c0.07,0.05,0.13,0.09,0.2,0.14C53.74,74.76,53.54,75.07,53.3,74.57z"/>
	<path style="fill-rule:evenodd;clip-rule:evenodd;fill:#201F1E;" d="M48.48,68.87c0.08,0,0.16,0.01,0.23,0.05
		c0,0.06,0.01,0.12,0,0.18C48.64,69.02,48.56,68.94,48.48,68.87z"/>
	<path style="fill-rule:evenodd;clip-rule:evenodd;fill:#232322;" d="M52.72,73.9c0.04,0.08,0.08,0.16,0.12,0.25
		C52.67,74.13,52.61,74.05,52.72,73.9z"/>
	<path style="fill-rule:evenodd;clip-rule:evenodd;fill:#232322;" d="M52.81,74.13c0.08,0.09,0.17,0.18,0.26,0.27
		C52.98,74.31,52.89,74.22,52.81,74.13z"/>
	<path style="fill-rule:evenodd;clip-rule:evenodd;fill:#232322;" d="M53.04,74.38c0.09,0.08,0.18,0.17,0.27,0.25
		C53.23,74.54,53.13,74.46,53.04,74.38z"/>
	<path style="fill-rule:evenodd;clip-rule:evenodd;fill:#AF2729;" d="M35.52,77.76c-0.3-0.01-0.6-0.03-0.9-0.04
		c0.27-0.52,0-0.92-0.31-1.29c-1.94-2.3-1.79-4.57,0.02-6.87c0.5-0.64,1.08-1.28,1.21-2.15c0.15,0,0.29,0,0.44,0
		c0.13-0.1,0.22-0.07,0.28,0.08c0.46,0.76-0.16,1.27-0.54,1.67c-2.35,2.42-2.31,4.88-0.27,7.42C35.78,76.98,35.77,77.35,35.52,77.76
		z"/>
	<path style="fill-rule:evenodd;clip-rule:evenodd;fill:#862224;" d="M35.31,67.16c-0.71,0.99-1.47,1.95-2.13,2.98
		c-1.31,2.03-1.31,4.05,0.15,6.05c0.27,0.37,0.81,0.71,0.5,1.33c-1.54-0.83-2.66-3.94-2.08-5.86c0.6-1.97,2.26-3.32,3.09-5.16
		c0.14,0.15,0.28,0.31,0.42,0.46C35.29,67.03,35.31,67.09,35.31,67.16z"/>
	<path style="fill-rule:evenodd;clip-rule:evenodd;fill:#EFCE0C;" d="M38.61,63.64c0.58,0.45,1.38-0.05,1.96,0.44
		c0.08,0.4,0.16,0.79,0.23,1.19c-1.15,0.15-2.19-0.5-3.32-0.51C36.99,63.52,37.73,63.51,38.61,63.64z"/>
	<path style="fill-rule:evenodd;clip-rule:evenodd;fill:#AE5F2E;" d="M37.19,65.54c0.56-0.49,1.17-0.32,1.78-0.15
		C39,65.4,39.01,65.58,39,65.58c-0.6,0.18-1.21,0.36-1.79-0.06L37.19,65.54z"/>
	<path style="fill-rule:evenodd;clip-rule:evenodd;fill:#B05D28;" d="M36.66,64.35c0.05-0.1,0.14-0.29,0.16-0.29
		c0.36,0.11,0.3,0.48,0.43,0.74c-0.02,0.24-0.04,0.49-0.06,0.73c0,0,0.01-0.01,0.01-0.01C36.65,65.3,36.7,64.81,36.66,64.35z"/>
	<path style="fill-rule:evenodd;clip-rule:evenodd;fill:#862224;" d="M36.25,67.48c-0.09-0.03-0.19-0.05-0.28-0.08
		c0.79-0.37,1.62-0.15,2.44-0.17c-0.16,0.08-0.33,0.15-0.49,0.23C37.36,67.47,36.81,67.48,36.25,67.48z"/>
	<path style="fill-rule:evenodd;clip-rule:evenodd;fill:#862224;" d="M35.56,67.39c-0.09-0.07-0.17-0.15-0.26-0.22
		C35.38,67.25,35.47,67.32,35.56,67.39z"/>
	<path style="fill-rule:evenodd;clip-rule:evenodd;fill:#C88A90;" d="M47.03,26.86c-0.28,0.02-0.45-0.04-0.41-0.38
		c0.19-1.36,1.81-2.81,3.29-2.93c0.17,0.49-0.21,0.46-0.51,0.56c-0.82,0.27-1.47,0.77-1.82,1.59c-0.06,0.05-0.09,0.11-0.09,0.19
		c-0.05,0.1-0.11,0.19-0.16,0.28C47.23,26.39,47.13,26.63,47.03,26.86z"/>
	<path style="fill-rule:evenodd;clip-rule:evenodd;fill:#3D393A;" d="M51.36,29.28c0.31-0.35,0.39-0.95,1.03-0.93
		c0.21,0.47-0.12,0.74-0.39,1.03c-0.19,0.13-0.38,0.27-0.62,0.14C51.37,29.44,51.36,29.36,51.36,29.28z"/>
	<path style="fill-rule:evenodd;clip-rule:evenodd;fill:#3D393A;" d="M53.31,32.18c0.15,0.23,0.3,0.46,0.45,0.7
		c-0.16,0.08-0.32,0.16-0.48,0.24l0,0c-0.14-0.13-0.1-0.35-0.24-0.48l0,0c-0.05-0.05-0.07-0.11-0.06-0.16s0.03-0.08,0.05-0.08
		c0-0.08,0-0.16,0.01-0.24c0.07-0.09,0.14-0.09,0.22-0.01L53.31,32.18z"/>
	<path style="fill-rule:evenodd;clip-rule:evenodd;fill:#3E3939;" d="M51.37,29.52c0.15-0.08,0.3-0.16,0.45-0.24
		c0.2,0.09,0.26,0.26,0.26,0.46c-0.08,0.16-0.15,0.32-0.23,0.48C51.51,30.1,51.37,29.86,51.37,29.52z"/>
	<path style="fill-rule:evenodd;clip-rule:evenodd;fill:#302E2D;" d="M53.26,32.15c-0.07,0.01-0.15,0.01-0.22,0.01
		c-0.31-0.01-0.47-0.17-0.48-0.48C52.8,31.84,53.03,31.99,53.26,32.15z"/>
	<path style="fill-rule:evenodd;clip-rule:evenodd;fill:#302E2D;" d="M53.04,32.64c0.08,0.16,0.16,0.32,0.24,0.48
		C53.2,32.96,53.12,32.8,53.04,32.64z"/>
	<path style="fill-rule:evenodd;clip-rule:evenodd;fill:#302E2D;" d="M53.03,32.4c0,0.08,0,0.16,0,0.24
		c-0.03-0.06-0.07-0.11-0.09-0.17C52.95,32.46,53.01,32.42,53.03,32.4z"/>
	<path style="fill-rule:evenodd;clip-rule:evenodd;fill:#3E3939;" d="M47.33,26.16c0.05-0.1,0.11-0.19,0.16-0.28
		C47.44,25.97,47.39,26.06,47.33,26.16z"/>
	<path style="fill-rule:evenodd;clip-rule:evenodd;fill:#665D5C;" d="M52.09,60.95c-0.12-0.8,0.29-0.96,1-0.97
		c0.72-0.01,0.46,0.4,0.43,0.75C53.07,60.99,52.59,61.03,52.09,60.95z"/>
	<path style="fill-rule:evenodd;clip-rule:evenodd;fill:#A12D2B;" d="M50.41,19.64c0.08,0.05,0.16,0.11,0.24,0.16
		c0.35,0.68-0.1,0.93-0.56,1.31c-1.97,1.62-3.91,3.26-5.25,5.51c-0.44,0.74,0.11,1.52-0.41,2.15c-0.01-0.07-0.02-0.14-0.03-0.21
		c-0.16-0.12-0.1-0.35-0.22-0.48c-0.16-0.41-0.32-0.81-0.48-1.22c-0.04-0.53,0.01-1.02,0.42-1.43c1.93-1.95,3.82-3.94,5.96-5.67
		C50.17,19.69,50.3,19.66,50.41,19.64z"/>
	<path style="fill-rule:evenodd;clip-rule:evenodd;fill:#802323;" d="M43.51,15.43c0.15-0.08,0.31-0.16,0.46-0.25
		c0.16,0.02,0.32,0.03,0.48,0.04c0.03,0.81-0.27,1.43-1,1.81c-1.05,1.42-2.22,2.73-3.6,3.84l0,0c-0.16,0.13-0.32,0.15-0.48,0
		c1.15-1.27,2.29-2.54,3.44-3.8c0.39-0.43,0.67-0.89,0.64-1.49C43.46,15.53,43.48,15.48,43.51,15.43z"/>
	<path style="fill-rule:evenodd;clip-rule:evenodd;fill:#822625;" d="M39.36,20.88c0.16,0,0.32,0,0.48,0
		c-0.48,0.48-0.97,0.96-1.45,1.43c-0.13,0.16-0.32,0.12-0.49,0.12c-0.19-0.05-0.32-0.14-0.23-0.36
		C38.02,21.36,38.7,21.13,39.36,20.88z"/>
	<path style="fill-rule:evenodd;clip-rule:evenodd;fill:#982828;" d="M37.68,22.07c0.08,0.09,0.16,0.17,0.24,0.26
		c0.08,0.05,0.11,0.09,0.08,0.14c-0.03,0.05-0.05,0.07-0.08,0.07c-0.35,0.03-0.7,0.06-0.71-0.45c0.08,0.01,0.15,0,0.22-0.03
		C37.52,22.06,37.6,22.07,37.68,22.07z"/>
	<path style="fill-rule:evenodd;clip-rule:evenodd;fill:#832223;" d="M21.13,30.24c5.31-2.93,10.96-4.97,16.81-6.53
		c0.26-0.07,0.48-0.28,0.71-0.43c0.84,0.2,1.54,0.63,2.15,1.23c0.23,0.33,0.03,0.52-0.25,0.65c-0.38,0.17-0.8,0.22-1.18,0.13
		c-1.78-0.45-3.39,0.09-4.99,0.74c-2.3,0.94-4.73,1.46-7.04,2.38c-1.34,0.54-2.5,1.43-3.86,1.91c-0.29,0.11-0.62-0.04-0.9,0.15
		C22.1,30.39,21.61,30.31,21.13,30.24z"/>
	<path style="fill-rule:evenodd;clip-rule:evenodd;fill:#962426;" d="M23.27,30.23c1.96-1.29,4.05-2.3,6.29-3.01
		c2-0.64,4.01-1.28,5.98-2.01c1.08-0.4,2.08-0.58,3.24-0.32c0.61,0.13,1.5,0.53,2.01-0.39c0.24,0.15,0.49,0.3,0.73,0.46
		c0.01,0.06,0.02,0.12,0.02,0.17c0.06,0.77-0.57,0.81-1.04,0.84c-5.53,0.29-10.58,2.27-15.6,4.37
		C24.33,30.59,23.78,30.77,23.27,30.23z"/>
	<path style="fill-rule:evenodd;clip-rule:evenodd;fill:#C24E4B;" d="M48.93,17.78c0.09,0.07,0.18,0.15,0.26,0.22
		c0.08,0.08,0.16,0.16,0.25,0.25c-0.02,0.07-0.01,0.14,0.01,0.22c0.09,0.08,0.16,0.17,0.23,0.26l0,0c0.09,0.07,0.16,0.16,0.2,0.27
		c0.04,0.05,0.07,0.1,0.08,0.16c-0.04,0.2-0.05,0.41-0.19,0.56c-1.87,1.98-3.55,4.18-6.12,5.36c-0.39,0.18-0.8,0.39-1.25,0.19
		c-0.22-0.16-0.43-0.32-0.65-0.48c-0.56-0.44-1.12-0.89-1.68-1.33c-0.1-0.03-0.17-0.08-0.23-0.16l0,0c0-0.69,0.56-1.07,0.96-1.4
		c1.73-1.46,3.13-3.28,4.98-4.6c0.46-0.33,0.84-0.86,1.54-0.7c0.45,0.34,0.89,0.68,1.34,1.02C48.76,17.65,48.85,17.72,48.93,17.78z"
		/>
	<path style="fill-rule:evenodd;clip-rule:evenodd;fill:#B13633;" d="M47.33,16.56c-2.86,1.83-4.99,4.46-7.48,6.71
		c-0.4-0.17-0.79-0.33-1.19-0.5c1.13-0.66,2.17-1.44,3.06-2.39c1.4-1.5,2.94-2.9,3.89-4.77c0.16,0.01,0.31,0.02,0.47,0.02
		c0.1,0.06,0.2,0.12,0.29,0.19c0.21,0.1,0.43,0.2,0.64,0.3c0.08,0.07,0.15,0.14,0.23,0.21C47.27,16.41,47.3,16.49,47.33,16.56z"/>
	<path style="fill-rule:evenodd;clip-rule:evenodd;fill:#A42D2B;" d="M45.62,15.61c0.41,1.11-0.65,1.54-1.14,2.11
		c-1.28,1.5-2.77,2.81-4.14,4.23c-0.48,0.5-1.16,0.47-1.67,0.81c-0.09-0.01-0.18-0.02-0.27-0.03c-0.09-0.05-0.18-0.11-0.26-0.17
		c-0.07,0-0.14-0.01-0.21-0.03c0-0.07-0.01-0.15,0-0.22c0.16,0,0.32,0,0.47-0.01c1.97-0.43,3.01-2.05,4.33-3.33
		C43.8,17.94,44.39,16.51,45.62,15.61z"/>
	<path style="fill-rule:evenodd;clip-rule:evenodd;fill:#982828;" d="M38.13,22.57c0.09,0.06,0.18,0.12,0.26,0.17
		C38.31,22.69,38.22,22.63,38.13,22.57z"/>
	<path style="fill-rule:evenodd;clip-rule:evenodd;fill:#B13633;" d="M39.85,23.27c0.08,0.05,0.16,0.11,0.23,0.16
		C40,23.38,39.92,23.33,39.85,23.27z"/>
	<path style="fill-rule:evenodd;clip-rule:evenodd;fill:#822625;" d="M39.84,20.88c1.2-1.28,2.4-2.56,3.6-3.84
		C42.6,18.65,41.43,19.97,39.84,20.88z"/>
	<path style="fill-rule:evenodd;clip-rule:evenodd;fill:#802323;" d="M44.64,15.22c0.09,0.04,0.18,0.09,0.27,0.13
		C44.82,15.31,44.73,15.27,44.64,15.22z"/>
	<path style="fill-rule:evenodd;clip-rule:evenodd;fill:#A42D2B;" d="M46.37,15.83c-0.1-0.06-0.19-0.13-0.29-0.19
		c0,0,0.08-0.03,0.08-0.03C46.23,15.68,46.3,15.75,46.37,15.83z"/>
	<path style="fill-rule:evenodd;clip-rule:evenodd;fill:#6E6464;" d="M50.14,24.92c-0.33,0.5-0.64,1.09-1.34,1.18
		c-0.27,0.03-0.8-0.14-0.68-0.48c0.21-0.6,0.69-1.08,1.41-1.12C49.78,24.5,50.12,24.44,50.14,24.92z"/>
	<path style="fill-rule:evenodd;clip-rule:evenodd;fill:#7A7172;" d="M50.67,25.18c0,0.65-0.55,0.89-0.93,1.25
		c-0.12,0.11-0.26-0.04-0.19-0.11C49.9,25.93,50.3,25.57,50.67,25.18L50.67,25.18z"/>
	<path style="fill-rule:evenodd;clip-rule:evenodd;fill:#A62528;" d="M23.27,30.23c0.78,0.41,1.35-0.17,1.98-0.42
		c4.86-1.95,9.71-3.93,15.05-4.13c0.5-0.02,0.95-0.1,1.25-0.55c0.08,0.08,0.16,0.17,0.24,0.25c0,0.8-0.65,0.81-1.15,0.84
		c-0.99,0.05-1.92,0.31-2.82,0.68c-1.35,0.36-2.6,0.95-3.86,1.52c-3.02,1.36-6.12,2.36-9.45,2.52c-0.15,0-0.31,0-0.46,0.01
		c-0.49-0.16-0.97-0.32-1.46-0.49C22.75,30.18,23.02,30.25,23.27,30.23z"/>
	<path style="fill-rule:evenodd;clip-rule:evenodd;fill:#E0B8B6;" d="M26.43,35.07c0.06,0.47,0.12,0.95,0.18,1.42
		c-0.25,0.28-0.25,0.78-0.94,0.49c-2.48-1.04-3.86-3.1-5.13-5.29c-0.22-0.37-0.03-0.69,0.13-1.01c0.5-0.02,1-0.02,1.46,0.21
		c0.38,1.6,1.16,2.95,2.57,3.85c0.4,0.26,0.85,0.69,1.37,0.14C26.25,34.79,26.49,34.62,26.43,35.07z"/>
	<path style="fill-rule:evenodd;clip-rule:evenodd;fill:#D0A1A0;" d="M26.15,35.03c-0.04,0.21,0.13,0.52-0.24,0.56
		c-1.57,0.18-4.29-3.19-3.79-4.69c0.23,0.03,0.45,0.06,0.68,0.09c0.37,0.33,0.41,0.84,0.64,1.25c0.49,0.87,1,1.69,2,2.06
		C25.79,34.42,26.04,34.66,26.15,35.03z"/>
	<path style="fill-rule:evenodd;clip-rule:evenodd;fill:#BF8989;" d="M26.15,35.03c-1.8-0.78-3.18-1.9-3.35-4.03
		c0.23,0,0.45,0,0.68,0.01c0.17,0.08,0.34,0.16,0.51,0.24c0.4,1.32,1.06,2.38,2.59,2.56c0.11,0.01,0.15,0.16,0.07,0.28
		c-0.07,0.33-0.14,0.66-0.22,0.99C26.35,34.97,26.27,34.84,26.15,35.03z"/>
	<path style="fill-rule:evenodd;clip-rule:evenodd;fill:#561D1C;" d="M18.96,29.29c-0.09,0.08-0.17,0.15-0.26,0.23
		C18.79,29.44,18.88,29.36,18.96,29.29z"/>
	<path style="fill-rule:evenodd;clip-rule:evenodd;fill:#4E4747;" d="M55.19,35.04c0.17,0.25,0.33,0.5,0.5,0.75
		c-0.19,0.23-0.36,0.62-0.71,0.2C54.68,35.61,54.72,35.26,55.19,35.04z"/>
	<path style="fill-rule:evenodd;clip-rule:evenodd;fill:#3D393A;" d="M54.19,33.12c0.02,0.23,0.04,0.46,0.06,0.69
		c-0.19,0.23-0.33,0.09-0.4-0.09C53.73,33.41,53.98,33.27,54.19,33.12z"/>
	<path style="fill-rule:evenodd;clip-rule:evenodd;fill:#3D393A;" d="M54.72,33.6c0.24-0.15,0.19-0.75,0.71-0.47
		c-0.15,0.16-0.31,0.32-0.46,0.47C54.89,33.6,54.81,33.6,54.72,33.6z"/>
	<path style="fill-rule:evenodd;clip-rule:evenodd;fill:#69605F;" d="M54.02,30.01c0.5,0.85-0.38,1.04-0.72,1.48
		c-0.03,0.04-0.23,0.01-0.3-0.05c-0.18-0.15-0.17-0.37-0.01-0.51c0.34-0.31,0.46-0.85,1-0.94C53.99,29.99,54.02,30.01,54.02,30.01z"
		/>
	<path style="fill-rule:evenodd;clip-rule:evenodd;fill:#766C6B;" d="M52.08,29.74c-0.09-0.15-0.17-0.31-0.26-0.46
		c0.19-0.31,0.38-0.62,0.57-0.93c0.06-0.01,0.12-0.04,0.17-0.07C53.18,29.02,52.45,29.32,52.08,29.74z"/>
	<path style="fill-rule:evenodd;clip-rule:evenodd;fill:#A62628;" d="M37.92,40.55c-0.15-0.33-0.31-0.66-0.46-0.99
		c-0.34-0.88-0.06-1.63,0.3-2.48c1-2.35,1.84-4.76,3.21-6.95c0.44-0.71,0.94-1.39,1.41-2.08c0.26-0.39,0.61-0.63,1.11-0.52
		c0.16,0.42,0.32,0.84,0.48,1.26c-1.57,1.43-2.29,3.28-2.65,5.31c-0.4,2.29-1.76,4.14-2.84,6.11
		C38.36,40.42,38.23,40.64,37.92,40.55z"/>
	<path style="fill-rule:evenodd;clip-rule:evenodd;fill:#B33633;" d="M43.49,27.54c-1.51,0.94-2.05,2.6-2.95,3.99
		c-1.35,2.07-1.73,4.59-3.01,6.7c-0.28,0.46,0.31,0.91-0.07,1.34c-0.31-0.48-0.62-0.95-0.93-1.43c1.12-2.84,2.11-5.75,3.9-8.27
		c0.33-0.46,0.58-0.96,0.86-1.43c0.25-0.43,0.68-0.9,0.29-1.42c-0.37-0.49-0.93-0.45-1.52-0.35c-1.29,0.22-2.43,0.79-3.52,1.45
		c-1.57,0.96-3.35,1.49-4.95,2.38c-0.35,0.19-0.74,0.32-1.13,0.04c-0.11-0.7,0.46-0.88,0.9-1.07c2.12-0.9,4.21-1.85,6.3-2.82
		c0.89-0.48,1.84-0.74,2.86-0.73c0.5,0.01,0.95-0.1,1.26-0.54C42.5,25.99,43.16,26.63,43.49,27.54z"/>
	<path style="fill-rule:evenodd;clip-rule:evenodd;fill:#992226;" d="M37.92,40.55c1.71-2.74,3.06-5.61,3.68-8.83
		c0.24-1.23,0.95-2.45,2.36-2.93c0.07,0.24,0.14,0.48,0.22,0.71c-0.01,0.08-0.02,0.16-0.03,0.24c-1.4,1.28-1.64,3.07-2.04,4.76
		c-0.54,2.28-1.75,4.19-3.12,6.02c-0.19,0.26-0.38,0.65-0.85,0.52C38.07,40.88,38,40.72,37.92,40.55z"/>
	<path style="fill-rule:evenodd;clip-rule:evenodd;fill:#B43835;" d="M42.41,25.25c3.31-1.06,5.3-3.75,7.56-6.1
		c0.15,0.17,0.3,0.33,0.45,0.5c-1.78,1.74-3.55,3.49-5.33,5.23c-0.59,0.58-1.19,1.14-1.38,1.99C43.27,26.32,42.84,25.78,42.41,25.25
		z"/>
	<path style="fill-rule:evenodd;clip-rule:evenodd;fill:#8A2625;" d="M44.18,28.07c0.07,0.16,0.15,0.32,0.22,0.48
		C44.33,28.4,44.26,28.23,44.18,28.07z"/>
	<path style="fill-rule:evenodd;clip-rule:evenodd;fill:#3B3737;" d="M57.12,45.12c0.05-0.02,0.1-0.03,0.15-0.05
		C57.22,45.09,57.17,45.11,57.12,45.12z"/>
	<path style="fill-rule:evenodd;clip-rule:evenodd;fill:#B43835;" d="M49.88,18.98c-0.07-0.09-0.13-0.18-0.2-0.27
		c0.06,0.01,0.12,0.02,0.18,0.02C49.87,18.82,49.87,18.9,49.88,18.98z"/>
	<path style="fill-rule:evenodd;clip-rule:evenodd;fill:#B43835;" d="M49.68,18.72c-0.08-0.09-0.16-0.17-0.23-0.26
		c0.07,0.01,0.15,0.02,0.22,0.02C49.67,18.57,49.68,18.64,49.68,18.72z"/>
	<path style="fill-rule:evenodd;clip-rule:evenodd;fill:#C54946;" d="M42,67.92c-0.16,0-0.32,0-0.48,0
		c-1.19-0.12-1.82,0.3-1.98,1.61c-0.25,2.04-0.77,4.05-1.07,6.09c-0.11,0.76,0.11,1.57,0.17,2.36c-0.61,0.06-0.72-0.29-0.73-0.81
		c-0.06-2.12,0.33-4.19,0.72-6.25c0.07-0.39,0.21-0.77,0.23-1.16c0.12-2.26,0.11-2.26,2.41-2.36C41.6,67.46,41.87,67.59,42,67.92z"
		/>
	<path style="fill-rule:evenodd;clip-rule:evenodd;fill:#D07077;" d="M41.75,78.01c-0.63-0.01-1.27-0.02-1.9-0.03
		c-0.82-1.43-0.58-5.16,0.42-6.4c0.6-0.75,1.35-0.65,1.91,0.25c1.15,1.86,1.13,3.58-0.4,6.14L41.75,78.01z"/>
	<path style="fill-rule:evenodd;clip-rule:evenodd;fill:#CE6669;" d="M41.77,77.98c0.2-0.72,0.34-1.47,0.61-2.16
		c0.5-1.3,0.27-2.49-0.41-3.64c-0.21-0.36-0.29-0.91-0.87-0.84c-0.5,0.06-0.66,0.48-0.82,0.92c-0.68,1.88-0.91,3.78-0.43,5.74
		c-1.03-0.49-1-1.51-0.89-2.34c0.28-2.07,0.74-4.11,1.15-6.16c0.1-0.5,0.43-0.94,0.91-0.98c0.51-0.05,0.64,0.47,0.8,0.89
		c0.24,0.62,0.18,1.35,0.66,1.88c1.24,2.28,1.13,4.5-0.24,6.68C42.08,77.97,41.93,77.98,41.77,77.98z"/>
	<path style="fill-rule:evenodd;clip-rule:evenodd;fill:#CC5C5B;" d="M42.23,77.96c1.02-2.19,1.13-4.42,0.24-6.68
		c0.08,0,0.16,0,0.24,0l0,0c0.21,0.2,0.01,0.53,0.24,0.72C43.91,73.89,43.52,77.1,42.23,77.96z"/>
	<path style="fill-rule:evenodd;clip-rule:evenodd;fill:#C54946;" d="M42.72,68.88c-0.08-0.16-0.16-0.32-0.24-0.48
		C42.56,68.56,42.64,68.72,42.72,68.88z"/>
	<path style="fill-rule:evenodd;clip-rule:evenodd;fill:#C54946;" d="M42.24,68.16C42.16,68.08,42.08,68,42,67.92
		C42.08,68,42.16,68.08,42.24,68.16z"/>
	<path style="fill-rule:evenodd;clip-rule:evenodd;fill:#C54946;" d="M42.48,68.4c-0.08-0.08-0.16-0.16-0.24-0.24
		C42.32,68.24,42.4,68.32,42.48,68.4z"/>
	<path style="fill-rule:evenodd;clip-rule:evenodd;fill:#CB5A5A;" d="M42.96,72c-0.28-0.17-0.24-0.46-0.24-0.72
		C42.99,71.46,42.95,71.74,42.96,72z"/>
	<path style="fill-rule:evenodd;clip-rule:evenodd;fill:#D1727B;" d="M35.5,36.73c-0.28-0.25-0.57-0.5-0.85-0.75
		c-0.1-0.03-0.19-0.07-0.29-0.1c-0.05-0.02-0.09-0.04-0.14-0.06c-0.1-0.04-0.18-0.1-0.26-0.16c-0.04-0.03-0.08-0.07-0.12-0.1
		c-0.26-0.26-0.55-0.46-0.86-0.64c-0.56-0.48-1.36-0.63-1.75-1.32c-0.09-0.1-0.17-0.19-0.26-0.29c-0.35-0.79,0.19-1.21,0.71-1.56
		c1.71-1.13,3.69-1.68,5.54-2.53c0.71-0.32,1.25,0.22,1.15,1c-0.02,0.16-0.06,0.32-0.15,0.45c-1.09,1.83-1.71,3.86-2.36,5.86
		C35.81,36.7,35.69,36.78,35.5,36.73z"/>
	<path style="fill-rule:evenodd;clip-rule:evenodd;fill:#EEC929;" d="M34.1,36.23c0.88,0.36,1.71,0.98,1.63,1.9
		c-0.11,1.23-1.08,2.06-2.24,2.4c-4.08,1.2-7.01-2.37-6.53-6.01c0.17-1.31,1.61-1.95,2.82-1.36c0.36,0.17,0.73,0.31,1.09,0.47
		c0.44,0.05,0.78,0.31,1.14,0.55c0.8,0.56,0.4,0.75-0.25,0.88c-0.48,0-0.92-0.23-1.39-0.32c-1.4-0.28-2.43,0.88-1.98,2.22
		c0.79,2.38,2.73,3.19,4.86,2.03c0.53-0.22,0.29-0.67,0.3-1.04C33.57,37.33,33.44,36.66,34.1,36.23z"/>
	<path style="fill-rule:evenodd;clip-rule:evenodd;fill:#CC676B;" d="M35.5,36.73c0.55-2.07,1.21-4.09,2.3-5.95
		c0.25-0.43,0.58-0.84,0.15-1.28c-0.38-0.39-0.74,0.04-1.07,0.19c-1.53,0.67-3.05,1.36-4.58,2.04c-0.7,0.31-1.19,0.79-1.32,1.57
		c-0.24-0.13-0.49-0.27-0.73-0.4c-0.14-1.2,0.76-1.79,1.58-2.13c2.32-0.98,4.56-2.09,6.8-3.24c0.51-0.26,1.09-0.38,1.56,0.1
		c0.44,0.45,0.22,0.97,0.01,1.45c-0.16,0.37-0.32,0.74-0.55,1.06c-1.09,1.59-1.99,3.25-2.42,5.16c-0.17,0.74-0.43,1.56-1.23,1.96
		C35.82,37.09,35.66,36.91,35.5,36.73z"/>
	<path style="fill-rule:evenodd;clip-rule:evenodd;fill:#C45553;" d="M35.98,37.27c1.25-2.86,2.14-5.88,3.97-8.46
		c0.2-0.29,0.39-0.64,0.08-0.98c-0.32-0.36-0.75-0.29-1.1-0.11c-2.35,1.23-4.71,2.42-7.19,3.4c-0.7,0.28-1.22,1.01-1.51,1.78
		c-0.16-0.08-0.32-0.16-0.48-0.24c-0.38-0.9,0.26-1.34,0.84-1.73c0.69-0.47,1.45-0.85,2.22-1.13c1.69-0.61,3.26-1.44,4.8-2.35
		c0.69-0.41,1.43-0.7,2.23-0.79c0.55-0.06,1.15-0.16,1.5,0.43c0.33,0.54,0.19,1.05-0.11,1.57c-0.61,1.07-1.2,2.17-1.93,3.15
		c-0.71,0.96-1.04,2.03-1.43,3.11c-0.36,1-0.52,2.16-1.62,2.74C36.17,37.53,36.07,37.4,35.98,37.27z"/>
	<path style="fill-rule:evenodd;clip-rule:evenodd;fill:#BC423E;" d="M36.27,37.66c0.72-0.97,1.25-2.02,1.49-3.21
		c0.38-1.96,1.92-3.27,2.76-4.98c0.14-0.29,0.35-0.54,0.48-0.82c0.64-1.32,0.26-1.89-1.2-1.75c-0.42,0.04-0.85,0.2-1.24,0.39
		c-2.59,1.28-5.17,2.58-7.75,3.88c-0.62,0.31-0.95,0.83-1.05,1.51c-0.23-0.1-0.47-0.21-0.7-0.31c-0.45-0.18-0.35-0.49-0.14-0.75
		c0.41-0.51,0.8-1.1,1.57-1.12c2.44-0.83,4.74-1.97,6.99-3.22c1.21-0.67,2.5-1.25,3.94-0.84c0.59,0.16,1.09,0.6,0.66,1.23
		c-2.23,3.29-3.67,7-5.54,10.48C36.44,37.98,36.35,37.82,36.27,37.66z"/>
	<path style="fill-rule:evenodd;clip-rule:evenodd;fill:#B22B2C;" d="M30.48,30.48c-0.46,0.64-1.59,0.76-1.43,1.87
		c-1.52-0.47-3.03-0.94-4.55-1.41c0.54-0.47,1.27-0.6,1.9-0.62c3.67-0.14,6.72-2.12,10.04-3.3c0.41-0.15,0.78-0.42,1.24-0.37
		c-1.89,1.27-4.02,2.06-6.05,3.03C31.21,29.88,30.7,29.99,30.48,30.48z"/>
	<path style="fill-rule:evenodd;clip-rule:evenodd;fill:#872123;" d="M38.14,41.05c2.21-2.48,3.55-5.36,4.15-8.62
		c0.21-1.13,0.58-2.24,1.85-2.67c-1.71,4.1-2.2,8.77-5.74,11.99c-0.08-0.08-0.15-0.16-0.23-0.24C38.17,41.35,38.15,41.2,38.14,41.05
		z"/>
	<path style="fill-rule:evenodd;clip-rule:evenodd;fill:#B57A7A;" d="M26.64,34.08c-1.73-0.1-2.89-1.33-2.66-2.84
		c1.21,0.33,2.42,0.66,3.63,1c0.42,0.12,0.82,0.29,0.12,0.63C27.2,33.13,26.97,33.65,26.64,34.08z"/>
	<path style="fill-rule:evenodd;clip-rule:evenodd;fill:#B67C7C;" d="M34.78,40.26c0.1-0.12,0.2-0.24,0.3-0.36
		c0.38-0.46,0.77-0.92,1.15-1.38c0.4,0.62,0.82,1.23,1.2,1.87c0.12,0.19,0.16,0.44,0.23,0.66c-0.23,0.94-0.95,0.88-1.6,0.67
		C35.4,41.5,34.51,41.36,34.78,40.26z"/>
	<path style="fill-rule:evenodd;clip-rule:evenodd;fill:#C59392;" d="M34.78,40.26c0.59,1.27,1.83,1.61,2.89,0.78
		c0.07,0.24,0.14,0.49,0.21,0.73c-1.18,0.91-3.13,0.4-3.84-1.01C34.29,40.6,34.54,40.43,34.78,40.26z"/>
	<path style="fill-rule:evenodd;clip-rule:evenodd;fill:#493F2F;" d="M34.1,36.23c-0.31,0.79-0.38,1.59-0.13,2.41
		c0.19,0.64,0.04,0.86-0.59,0.48c-0.12-0.03-0.24-0.07-0.36-0.08c-0.14,0-0.27,0.01-0.41,0c-0.16-0.03-0.28-0.11-0.35-0.25
		c-0.08-0.21-0.07-0.41,0.04-0.61c0.06-0.08,0.14-0.15,0.23-0.21c0.46-0.13,0.55-0.52,0.62-0.92c0.19-0.54,0.25-1.12,0.64-1.57
		c0.11-0.07,0.22-0.05,0.32,0.02l-0.01-0.01c0.06,0.12,0.15,0.2,0.27,0.24l0-0.01c0.04,0.1,0.03,0.19-0.02,0.27
		C34.26,36.07,34.18,36.15,34.1,36.23z"/>
	<path style="fill-rule:evenodd;clip-rule:evenodd;fill:#654D38;" d="M31.7,34.82c0.19-0.03,0.48-0.01,0.55-0.12
		c0.13-0.22-0.16-0.28-0.29-0.37c-0.36-0.24-0.72-0.47-1.09-0.7c0.12-0.01,0.24-0.03,0.36-0.04c0.73,0.22,1.32,0.66,1.91,1.12
		c0.08,0.08,0.1,0.18,0.07,0.29c-0.37,0.22-0.75,0.41-1.17,0.51c-0.11,0.01-0.22,0-0.33-0.03c-0.16-0.06-0.28-0.16-0.33-0.33
		C31.39,34.94,31.56,34.9,31.7,34.82z"/>
	<path style="fill-rule:evenodd;clip-rule:evenodd;fill:#4D3736;" d="M34.34,35.99c0.01-0.09,0.01-0.18,0.02-0.27
		c0.1,0.09,0.19,0.17,0.29,0.26C34.55,35.98,34.44,35.99,34.34,35.99z"/>
	<path style="fill-rule:evenodd;clip-rule:evenodd;fill:#C95E5F;" d="M42.17,24.28c-0.1,0.01-0.55-0.13-0.78-0.63
		c-0.22-0.47-0.17-0.94,0.24-1.31c1.6-1.43,3.18-2.87,4.81-4.25c0.61-0.51,1.37-0.48,1.98,0.05c0.53,0.47,0.46,1.17,0.1,1.64
		c-1.43,1.88-3.07,3.54-5.34,4.42C43,24.27,42.78,24.23,42.17,24.28z"/>
	<path style="fill-rule:evenodd;clip-rule:evenodd;fill:#4D3736;" d="M33.13,35c0-0.1,0-0.2,0-0.29c0.32,0.26,0.65,0.53,0.97,0.79
		c-0.1,0.01-0.2,0.02-0.3,0.02C33.39,35.6,33.2,35.38,33.13,35z"/>
	<path style="fill-rule:evenodd;clip-rule:evenodd;fill:#4D3736;" d="M34.36,35.73c-0.09-0.08-0.18-0.16-0.27-0.24
		C34.18,35.57,34.27,35.65,34.36,35.73z"/>
	<path style="fill-rule:evenodd;clip-rule:evenodd;fill:#F6DB69;" d="M31.7,34.82c-0.08,0.09-0.15,0.19-0.23,0.28
		c-0.08,0.08-0.18,0.14-0.29,0.17c-0.16,0.03-0.32,0.04-0.47,0.01c-0.65-0.12-1.36-0.19-1.69,0.5c-0.33,0.68-0.16,1.41,0.3,2.03
		c0.8,1.08,1.84,1.48,3.15,1.09c0.14,0,0.28,0,0.42-0.01c0.07-0.1,0.17-0.15,0.25-0.23c0.36,0.01,0.21,0.28,0.25,0.46
		c-1.11,1.2-2.46,0.95-3.59,0.27c-1.22-0.73-2.1-2-1.82-3.49c0.22-1.17,1.23-1.7,2.48-1.46C30.87,34.52,31.28,34.69,31.7,34.82z"/>
	<path style="fill-rule:evenodd;clip-rule:evenodd;fill:#F9EDAC;" d="M32.46,38.89c-0.01,0.18,0.08,0.39-0.21,0.46
		c-1.43,0.36-3.38-0.84-3.68-2.28c-0.37-1.78,0.52-2.44,2.69-1.98c-0.06,0.68-0.51,0.97-1.1,1.11c-0.1,0.01-0.2,0-0.31-0.01
		c-0.15-0.01-0.3-0.07-0.4,0.08c0.37,0.26,0.73,0.51,1.05,0.8c0.14,0.04,0.29,0.08,0.43,0.13c0.18,0.06,0.35,0.15,0.5,0.27
		c0.07,0.05,0.13,0.11,0.2,0.17c0.07,0.04,0.15,0.07,0.23,0.09c0.09,0,0.17,0.01,0.26,0.01c0.14,0.01,0.26,0.06,0.36,0.16
		c0.04,0.09,0.03,0.17-0.02,0.25C32.46,38.41,32.46,38.65,32.46,38.89z"/>
	<path style="fill-rule:evenodd;clip-rule:evenodd;fill:#E7D790;" d="M31.66,35.28c0.08,0.01,0.16,0.01,0.25,0.02
		c0.66,0.52,1.29,1.05,1.48,1.92c-0.08,0.4,0.31,1.13-0.64,0.92c-0.11-0.03-0.19-0.09-0.23-0.19c-0.72-0.22-1.34-0.65-2.07-0.85
		c-0.18-0.15-0.3-0.33-0.3-0.57C30.56,35.98,30.99,35.49,31.66,35.28z"/>
	<path style="fill-rule:evenodd;clip-rule:evenodd;fill:#EBC72A;" d="M33.39,37.22c-0.46-0.67-1.23-1.09-1.48-1.92
		c0.44,0.02,0.73-0.55,1.22-0.29c0.22,0.17,0.45,0.35,0.67,0.52C34.01,36.17,33.5,36.65,33.39,37.22z"/>
	<path style="fill-rule:evenodd;clip-rule:evenodd;fill:#F9EDAC;" d="M33.13,38.66c-0.08,0.08-0.17,0.15-0.25,0.23
		C32.96,38.81,33.05,38.73,33.13,38.66z"/>
	<path style="fill-rule:evenodd;clip-rule:evenodd;fill:#413B33;" d="M32.58,37.92c0.06,0.07,0.12,0.14,0.17,0.21
		c-0.1,0.01-0.2,0.02-0.3,0.03c-0.03-0.08-0.06-0.15-0.09-0.23C32.43,37.83,32.5,37.83,32.58,37.92z"/>
	<path style="fill-rule:evenodd;clip-rule:evenodd;fill:#7A6D50;" d="M31.66,35.28c-0.46,0.41-0.92,0.83-1.38,1.24
		c-0.24-0.06-0.35-0.21-0.3-0.46c0.56-0.14,0.86-0.63,1.28-0.96c0.07,0,0.14,0,0.2,0C31.53,35.16,31.6,35.22,31.66,35.28z"/>
	<path style="fill-rule:evenodd;clip-rule:evenodd;fill:#CF6C71;" d="M42.89,23.75c-0.39-0.09-0.77-0.16-0.94-0.51
		c-0.14-0.28,0.07-0.55,0.27-0.73c1.44-1.31,2.89-2.6,4.33-3.9c0.5-0.46,0.99-0.51,1.45,0.01c0.43,0.49,0.26,0.96-0.17,1.36
		c-1.33,1.23-2.39,2.8-4.2,3.46C43.37,23.53,43.12,23.65,42.89,23.75z"/>
	<path style="fill-rule:evenodd;clip-rule:evenodd;fill:#413B33;" d="M29.99,36.05c0.1,0.15,0.2,0.31,0.3,0.46
		c0.07,0.13,0.15,0.26,0.22,0.39c0.07,0.08,0.11,0.18,0.11,0.29c-0.03,0.11-0.09,0.18-0.21,0.2c-0.2-0.74-1.63-0.31-1.41-1.46
		c0.26-0.08,0.5,0.15,0.76,0.03C29.84,35.99,29.91,36.02,29.99,36.05z"/>
	<path style="fill-rule:evenodd;clip-rule:evenodd;fill:#433C32;" d="M30.49,37.21c0.01-0.1,0.01-0.2,0.02-0.3
		c0.79,0.13,1.4,0.63,2.07,1.01c-0.07,0-0.14,0.01-0.21,0.01c-0.15,0-0.29-0.01-0.44-0.01c-0.2,0-0.37-0.1-0.51-0.23
		c-0.13-0.1-0.25-0.2-0.38-0.29C30.85,37.32,30.64,37.36,30.49,37.21z"/>
	<path style="fill-rule:evenodd;clip-rule:evenodd;fill:#6F6964;" d="M29.76,35.96c-0.29,1.19-0.5-0.17-0.76-0.03
		C29.27,35.64,29.52,35.66,29.76,35.96z"/>
	<path style="fill-rule:evenodd;clip-rule:evenodd;fill:#413B33;" d="M31.41,37.69c0.17,0.08,0.34,0.15,0.51,0.23l0,0
		c-0.16,0.13-0.32,0.14-0.48,0C31.43,37.84,31.42,37.77,31.41,37.69z"/>
	<path style="fill-rule:evenodd;clip-rule:evenodd;fill:#E7D790;" d="M30.49,37.21c0.18,0.06,0.36,0.12,0.54,0.19
		c-0.21,0-0.41,0-0.62,0C30.43,37.34,30.46,37.27,30.49,37.21z"/>
	<path style="fill-rule:evenodd;clip-rule:evenodd;fill:#433C32;" d="M31.44,37.92c0.16,0,0.32,0,0.48,0
		C31.76,38.22,31.6,38.28,31.44,37.92z"/>
</g>
</svg>
