<?xml version="1.0" encoding="utf-8"?>
<!-- Generator: Adobe Illustrator 16.0.0, SVG Export Plug-In . SVG Version: 6.00 Build 0)  -->
<!DOCTYPE svg PUBLIC "-//W3C//DTD SVG 1.0//EN" "http://www.w3.org/TR/2001/REC-SVG-20010904/DTD/svg10.dtd" [
	<!ENTITY ns_flows "http://ns.adobe.com/Flows/1.0/">
	<!ENTITY ns_extend "http://ns.adobe.com/Extensibility/1.0/">
	<!ENTITY ns_ai "http://ns.adobe.com/AdobeIllustrator/10.0/">
	<!ENTITY ns_graphs "http://ns.adobe.com/Graphs/1.0/">
]>
<svg version="1.0" id="Layer_1" xmlns:x="&ns_extend;" xmlns:i="&ns_ai;" xmlns:graph="&ns_graphs;"
	 xmlns="http://www.w3.org/2000/svg" xmlns:xlink="http://www.w3.org/1999/xlink" xmlns:a="http://ns.adobe.com/AdobeSVGViewerExtensions/3.0/"
	 x="0px" y="0px" width="960px" height="560px" viewBox="0 0 960 560" style="enable-background:new 0 0 960 560;"
	 xml:space="preserve">
<g>
	<path style="fill-rule:evenodd;clip-rule:evenodd;fill:#E1A8C9;" d="M473.79,299.99c0.53-0.36,1.28-0.34,1.67-0.96
		c0.34,0.11,0.8-0.11,1.03,0.34c0.02,0.11,0.03,0.22,0.01,0.33c-0.02,0.16-0.08,0.31-0.1,0.46c-0.12,0.66-0.46,1.48,0.09,1.93
		c0.59,0.47,1.14-0.27,1.65-0.59c0.59-0.37,1.11-0.35,1.64,0.09c0.55,0.46,1.08,0.95,1.65,1.39c0.85,0.65,1.29,0.53,1.75-0.45
		c0.49-1.05,0.66-2.2,1.07-3.28c0.64-0.56,1.27,0.08,1.91,0.01c0.51-0.06,0.96,0.1,1.36,0.42c0.08,0.06,0.15,0.14,0.21,0.23
		c0.07,0.23-0.06,0.38-0.22,0.51c-0.08,0.06-0.16,0.1-0.25,0.13c-0.16,0.14,0.12,0.1,0.08,0.2c0.04,0.09,0.06,0.18,0.07,0.28
		c0.01,0.1,0,0.2-0.01,0.3c-0.01,0.1-0.04,0.2-0.06,0.3c-0.11,0.4-0.06,0.83-0.2,1.22c-0.35,0.84-0.8,1.63-1.37,2.34
		c-0.12,0.22-0.41,0.31-0.5,0.56c-1.61,0.52-3.21-0.05-4.8-0.12c-1.74-0.07-3.49-0.12-5.23-0.15c-0.18,0-0.35-0.13-0.53-0.19
		c0.74-0.75-0.11-1.46-0.06-2.2c0-0.74-0.05-1.48-0.08-2.21c-0.01-0.32-0.1-0.52-0.41-0.61
		C474.02,300.21,473.89,300.12,473.79,299.99z"/>
	<path style="fill-rule:evenodd;clip-rule:evenodd;fill:#0C0B07;" d="M461.74,268.25c0.08-0.07,0.17-0.14,0.26-0.21
		c0.49-0.29,0.41-1.08,1.09-1.2c0.9-0.44,1.83-0.83,2.86-0.77c0.61,0.03,0.98-0.25,1.25-0.74c0.32-0.53,0.85-0.86,1.31-1.24
		c0.12-0.11,0.24-0.23,0.37-0.34c0.21-0.2,0.42-0.39,0.67-0.54c2.05-0.98,3.96-2.29,6.27-2.63c0.8-0.05,1.59-0.19,2.38-0.27
		c1.91-0.07,3.79,0.18,5.69,0.38c0.49,0.05,1.06,0.26,1.3-0.45c0.11-0.15,0.23-0.27,0.43-0.15c0.82,0.41,0.62,1.67,1.6,1.94
		c-0.03,0.63-0.53,0.49-0.9,0.57c-2.58-0.48-5.17-0.82-7.81-0.69c-0.42,0-0.84-0.05-1.25,0.1c-0.11,0.03-0.23,0.06-0.35,0.08
		c-0.17,0.03-0.35,0.04-0.52,0.04c-0.44,0.01-0.9-0.04-1.33,0.12c-0.26,0.08-0.53,0.15-0.78,0.24c-0.73,0.2-1.38,0.58-2.06,0.92
		c-0.33,0.16-0.67,0.31-0.99,0.48c-0.41,0.2-0.82,0.39-1.21,0.62c-0.08,0.06-0.16,0.12-0.24,0.17c-0.16,0.13-0.3,0.26-0.44,0.4
		c-0.1,0.11-0.21,0.22-0.32,0.33c-0.44,0.46-0.93,0.86-1.27,1.41c-0.2,0.31-0.21,0.77-0.66,0.88c-0.78-0.11-1.57-0.41-2.34,0.04
		c-0.3,0.1-0.63,0.12-0.92,0.25c-0.2,0.08-0.39,0.19-0.57,0.31c-0.35,0.21-0.69,0.43-1.12,0.41
		C461.88,268.64,461.64,268.58,461.74,268.25z"/>
	<path style="fill-rule:evenodd;clip-rule:evenodd;fill:#E5E2E2;" d="M466.07,260.79c0.08-0.15,0.17-0.29,0.25-0.44
		c0.92-0.82,2.07-1.14,3.21-1.47c1.86-0.54,3.69-1.23,5.65-1.36c0.41-0.03,0.79,0,1.17,0.15c0.28,0.14,0.59,0.24,0.8,0.49
		c-0.64,0.87-1.54,1.43-2.54,1.72c-1.53,0.45-2.99,1-4.31,1.92c-0.92,0.64-2,0.99-3.16,0.63c-0.5-0.15-0.94,0-1.36,0.25
		c-0.35,0.12-0.71,0.3-0.79-0.3C465.08,261.68,466.12,261.6,466.07,260.79z"/>
	<path style="fill-rule:evenodd;clip-rule:evenodd;fill:#0F0C08;" d="M490.11,289.95c0.03,0.07,0.02,0.13-0.05,0.17
		c-0.33,0.05-0.38-0.19-0.46-0.42c-0.04-0.24-0.02-0.47,0.08-0.69c0.19-0.14,0.21-0.28-0.02-0.42c-0.27-0.57-0.6-1.11-0.49-1.78
		c0.15-0.81,0.73-1.37,1.2-1.99c0.28-0.35,0.69-0.48,1.08-0.64c0.08-0.04,0.17-0.09,0.26-0.13c0.04-0.03,0.08-0.05,0.12-0.08
		c0.07-0.06,0.14-0.13,0.2-0.19c0.03-0.04,0.05-0.08,0.08-0.12c0.07-0.13,0.11-0.27,0.16-0.42c0.08-0.27,0.12-0.54,0.14-0.82
		c0.04-0.54-0.17-0.93-0.66-1.14c-0.66-0.29-1.14,0.02-1.55,0.5c-0.05,0.1-0.11,0.19-0.17,0.28c-0.05,0.1-0.11,0.19-0.17,0.28
		c-0.06,0.1-0.13,0.18-0.21,0.26c-0.24,0.2-0.5,0.28-0.81,0.16c-0.1-0.06-0.19-0.14-0.27-0.23c-0.07-0.1-0.12-0.21-0.15-0.32
		c-0.12-0.52-0.07-1.05-0.09-1.58c0-0.34,0.02-0.68-0.09-1.01c-0.05-0.29-0.06-0.58,0.18-0.8c0.11-0.05,0.22-0.04,0.33,0.01
		c0.19,0.14,0.32,0.33,0.45,0.52c0.25,0.59,0.38,1.16,1.29,0.6c0.85-0.52,1.76-0.27,2.48,0.48c0.87,0.91,1.02,2,0.45,3.26
		c-0.16,0.19-0.31,0.4-0.49,0.54c0.02-0.02,0.03,0.07,0.06,0.05c0.05-0.1,0.09-0.17,0.15-0.22c0.07-0.07,0.13-0.13,0.21-0.19
		c0.08-0.06,0.17-0.08,0.27-0.06c0.14,0.09,0.21,0.21,0.12,0.37c0.01,0.08-0.02,0.13-0.09,0.17c-0.05,0.09-0.11,0.18-0.17,0.26
		l0.01-0.01c-0.11,0.07-0.2,0.16-0.23,0.29c0,0.08-0.03,0.14-0.11,0.17c-0.03,0.1-0.08,0.17-0.17,0.22l-0.01,0.02
		c-0.25,0.37,0.05,0.84-0.22,1.21l0.01,0c-0.28,0.12-0.38-0.11-0.5-0.28c-0.16-0.21-0.2-0.59-0.63-0.44
		c-0.31,0.16-0.6,0.34-0.81,0.63c-0.37,0.53-0.21,0.84,0.4,0.97c0.25,0.1,0.59,0.11,0.56,0.52c-0.64,0.33-1.73,0.22-1.44,1.47
		C490.17,289.55,490.2,289.77,490.11,289.95z"/>
	<path style="fill-rule:evenodd;clip-rule:evenodd;fill:#18160F;" d="M476.4,257.97c-2.41-0.3-4.62,0.59-6.86,1.22
		c-1.09,0.31-2.15,0.77-3.22,1.16c0.07-0.95,0.96-1.06,1.54-1.25c3.38-1.13,6.8-2.57,10.42-1.77c2.52,0.56,5.24,0.88,7.32,2.75
		c-0.11,0.11-0.23,0.22-0.34,0.34c-1.82-0.59-3.67-1.08-5.5-1.66c-0.11-0.03-0.22-0.07-0.33-0.11c-0.22-0.1-0.46-0.12-0.69-0.14
		C477.94,258.35,477.17,258.16,476.4,257.97z"/>
	<path style="fill-rule:evenodd;clip-rule:evenodd;fill:#542335;" d="M485.27,305.75c-0.25-0.31-0.01-0.43,0.21-0.55
		c1.11-0.43,1.56-1.38,1.85-2.42c0.11-0.37,0.09-0.78,0.26-1.14c0.05-0.12,0.12-0.25,0.18-0.37c0.02-0.07,0.05-0.15,0.06-0.23
		c0-0.08-0.02-0.15-0.07-0.21c-0.01,0-0.09-0.08-0.09-0.08c-0.08-0.04-0.15-0.07-0.23-0.1c-0.11-0.06-0.23-0.11-0.27-0.24
		c0.16-0.13,0.32-0.27,0.47-0.4c1.72,0.18,2.66,1.42,2.26,2.98c-0.05,0.19-0.07,0.39-0.06,0.59
		C488.65,306.34,488.9,306.23,485.27,305.75z"/>
	<path style="fill-rule:evenodd;clip-rule:evenodd;fill:#542335;" d="M474.91,303.1c-0.05,0.45,0.12,0.86,0.38,1.18
		c0.71,0.89,0.29,1.07-0.58,1.02c-1.03-0.51-2.11-0.11-3.16-0.16c-0.02-0.11-0.01-0.21,0.03-0.31c0.23-0.3-0.04-0.74,0.27-1.02
		c0.48-0.09-0.15-0.22,0.01-0.32c-0.16-0.64-0.06-1.24,0.31-1.78c0.29-0.42,0.37-0.84,0.1-1.3c0.51-0.14,1.02-0.28,1.52-0.41
		c0.15,0.01,0.29,0.01,0.44,0.02c0.5,0.46,0.21,1.05,0.27,1.58C474.55,302.11,474.31,302.72,474.91,303.1z"/>
	<path style="fill-rule:evenodd;clip-rule:evenodd;fill:#26221B;" d="M486.2,262.3c0.34-0.08,0.75,0.1,1-0.27
		c2.85,0.78,4.38,3.07,5.86,5.31c1.25,1.89,1.87,4.1,2.09,6.39c0.19,0.32-0.03,0.72,0.21,1.03c0.01,0.2,0.03,0.4,0.04,0.6
		c0.06,0.16,0.06,0.33,0,0.49c0,0.16,0,0.31,0,0.47c0.11,0.32,0.12,0.63,0,0.95l0,0.02c0.13,0.4,0.11,0.81,0,1.21l-0.01-0.04
		c0.12,0.33,0.12,0.66,0.01,1c-0.02,0.12-0.04,0.23-0.07,0.35c-0.21,0.39,0.04,0.85-0.19,1.24c0.03,0.07,0.02,0.14-0.03,0.2
		c-0.25,0.28,0.02,0.68-0.23,0.96v0c-0.36,0.07-0.41-0.2-0.5-0.44c-0.06-0.31-0.04-0.62,0.02-0.93c0.1-0.34,0.16-0.69,0.16-1.05
		c0.01-0.23,0.04-0.46,0.09-0.69c0.18-0.54,0.18-1.09,0.04-1.65c-0.03-0.17-0.03-0.34-0.01-0.5c0.13-0.38,0.07-0.76-0.05-1.14
		c-0.09-0.4-0.08-0.8-0.08-1.2c0-0.34,0-0.68-0.13-1.01c-0.08-0.28-0.16-0.55-0.25-0.82c-0.37-1.34-0.53-2.74-1.36-3.92
		c-1.41-2.68-3.12-5.06-6.17-6.09C486.42,262.7,486.19,262.61,486.2,262.3z"/>
	<path style="fill-rule:evenodd;clip-rule:evenodd;fill:#322A2E;" d="M472.26,300.4c0.68,0.06,1.03,0.31,0.47,0.95
		c-0.62,0.72-0.74,1.55-0.65,2.45l0,0c-0.49,0.28,0.44,1.07-0.43,1.21c-0.43,0.18-0.46-0.19-0.53-0.42
		c-0.12-0.42-0.07-0.87-0.08-1.3c-0.01-0.31,0.2-0.73-0.1-0.89c-0.36-0.18-0.62,0.24-0.9,0.44c-0.32,0.23-0.56,0.58-1.02,0.52
		c-0.17-0.25-0.53-0.54-0.21-0.81C469.84,301.66,470.77,300.56,472.26,300.4z"/>
	<path style="fill-rule:evenodd;clip-rule:evenodd;fill:#3B3229;" d="M475.32,297.34c-0.12-0.01-0.24-0.02-0.36-0.03
		c-0.25-0.2-0.57-0.08-0.84-0.21c-0.2-0.02-0.4-0.04-0.61-0.07c-0.18-0.1-0.39-0.11-0.58-0.17l-0.08,0.02l-0.05-0.06
		c-0.17-0.15-0.4-0.14-0.6-0.21c-2.19-0.71-3.77-2.15-4.91-4.11c0.04-0.18,0.15-0.29,0.33-0.32c0.5,0.07,0.71,0.48,0.98,0.82
		c0.1,0.12,0.21,0.25,0.32,0.36c0.12,0.11,0.24,0.23,0.36,0.34c1.45,1.41,3.1,2.42,5.18,2.57c0.89,0.3,1.84,0.13,2.74,0.33
		c0.18,0.06,0.33,0.17,0.47,0.29c0.27,0.33,0.53,0.67,0.5,1.13c-0.19,0.34-0.3,0.77-0.81,0.77c-0.22-0.19-0.25-0.46-0.3-0.72
		c-0.03-0.14-0.06-0.28-0.14-0.41c-0.14-0.28-0.4-0.22-0.64-0.23C475.95,297.44,475.63,297.46,475.32,297.34z"/>
	<path style="fill-rule:evenodd;clip-rule:evenodd;fill:#C11A7F;" d="M469.01,303.35c0.18-0.16,0.36-0.32,0.53-0.48
		c0.56-0.5,1.07-1.08,1.89-1.16c-0.04,0.61-0.12,1.23-0.1,1.84c0.02,0.49-0.18,1.06,0.31,1.46c-0.02,0.05-0.05,0.09-0.1,0.12
		C469.87,305.73,469.5,304.45,469.01,303.35z"/>
	<path style="fill-rule:evenodd;clip-rule:evenodd;fill:#211C16;" d="M467.57,292.2c-0.09,0.11-0.19,0.21-0.28,0.32
		c-1.01-1.25-1.5-2.63-1.3-4.29c0.13-1.04-1.23-0.95-1.63-1.66c-0.1-0.19,0.01-0.31,0.16-0.41c0.11-0.04,0.25-0.1,0.34-0.05
		c1.01,0.67,1.74,0.19,2.42-0.56c0.94-0.29,1,0.18,0.66,0.84c-0.41,0.81-1.06,1.51-1.05,2.49c-0.08,0.82,0.09,1.59,0.53,2.29
		C467.58,291.51,467.77,291.83,467.57,292.2z"/>
	<path style="fill-rule:evenodd;clip-rule:evenodd;fill:#242018;" d="M489.81,289.59c0.08,0.18,0.17,0.35,0.25,0.53
		c-0.45,2.29-2.03,3.68-3.88,4.85c-0.67,0.42-1.36,0.81-2.04,1.21c-0.06,0-0.11,0-0.17,0c-0.29-0.04-0.58-0.05-0.66-0.42
		c0.45-0.67,1.23-0.83,1.87-1.19c1.78-1.01,3.21-2.29,3.97-4.24C489.27,290.02,489.36,289.63,489.81,289.59z"/>
	<path style="fill-rule:evenodd;clip-rule:evenodd;fill:#29251E;" d="M466.07,260.79c0.25,0.51,0.25,0.51-0.94,1.56
		c-0.24,0.17-0.19,0.48-0.34,0.7c-0.05,0.09-0.11,0.18-0.18,0.26c-0.03,0.04-0.07,0.08-0.1,0.12c-0.07,0.09-0.14,0.17-0.21,0.25
		c-0.03,0.04-0.07,0.08-0.1,0.12c-0.66,1-1.41,1.97-0.99,3.29c-0.4,0.31-0.8,0.63-1.21,0.94c0.1-0.17,0.3-0.35,0.28-0.5
		C461.86,264.34,463.87,262.51,466.07,260.79z"/>
	<path style="fill-rule:evenodd;clip-rule:evenodd;fill:#463F3B;" d="M461.73,283.95c-1.98-2.05-3.16-4.52-3.81-7.27
		c0.18-0.17,0.1-0.39,0.12-0.6c0.04-0.1,0.12-0.17,0.23-0.18c0.47,0.21,0.43,0.7,0.57,1.08c0.06,0.25,0.1,0.5,0.19,0.74
		c0.04,0.09,0.08,0.19,0.12,0.28c0.14,0.33,0.24,0.68,0.39,1.01c0.11,0.24,0.22,0.47,0.33,0.7c0.23,0.48,0.48,0.94,0.72,1.41
		c0.32,0.93,1.27,1.49,1.49,2.49C462.02,283.79,461.9,283.9,461.73,283.95z"/>
	<path style="fill-rule:evenodd;clip-rule:evenodd;fill:#2A2626;" d="M489.85,303.58c-0.07-0.09-0.22-0.22-0.2-0.27
		c0.75-1.97-0.93-2.45-2-3.29l0.01-0.01c-0.61-0.59-0.62-0.61-0.19-0.77c1.15,0.47,2.08,1.28,2.97,2.09
		C491.48,302.27,490.15,302.84,489.85,303.58z"/>
	<path style="fill-rule:evenodd;clip-rule:evenodd;fill:#2F2A24;" d="M461.74,268.25c0.16,0.09,0.31,0.18,0.47,0.26
		c0.09,0.65-0.48,0.88-0.85,1.15c-1.34,0.97-2.62,1.95-3.02,3.68c-0.04,0.16-0.19,0.24-0.36,0.28c-0.36-0.16-0.19-0.51-0.28-0.77
		c-0.02-0.08-0.04-0.16-0.06-0.25c-0.06-0.09-0.05-0.17,0.03-0.24C458.37,270.33,460.25,269.48,461.74,268.25z"/>
	<path style="fill-rule:evenodd;clip-rule:evenodd;fill:#2A2626;" d="M486.25,299.51c-0.7,0.68-1.17-0.65-1.85-0.21
		c-0.07-0.02-0.14-0.04-0.21-0.05c-0.91-0.91-0.98-2.31-0.16-3.16c0.04,0.02,0.07,0.05,0.1,0.09c-0.02,0.24-0.01,0.48-0.06,0.7
		c-0.32,1.31,0.06,1.95,1.51,1.62c0.55-0.13,1,0.11,1.41,0.45C487.12,299.62,486.37,299.16,486.25,299.51z"/>
	<path style="fill-rule:evenodd;clip-rule:evenodd;fill:#423C39;" d="M461.73,283.95c0.09-0.1,0.19-0.21,0.28-0.31
		c1.31,0.44,2.06,1.46,2.67,2.62c-0.1,0.11-0.21,0.21-0.31,0.32C463.39,285.79,462.43,285.01,461.73,283.95z"/>
	<path style="fill-rule:evenodd;clip-rule:evenodd;fill:#11100A;" d="M477.32,297.83c0.03,0.33,0.05,0.65,0.08,0.98
		c0.05,0.11,0.06,0.22,0.03,0.34c-0.15,0.38-0.28,0.78-0.73,0.92c-0.42-0.04-0.47-0.28-0.34-0.62l-0.01,0.01
		c0.31-0.39-0.71-0.51-0.19-0.94c0.15-0.17,0.29-0.33,0.44-0.5c0.31-0.21,0.05-0.49,0.1-0.73c0.43-0.38,0.35,0.08,0.44,0.27
		C477.21,297.64,477.27,297.73,477.32,297.83z"/>
	<path style="fill-rule:evenodd;clip-rule:evenodd;fill:#1F1B13;" d="M457.71,272.85c0.08,0.26,0.16,0.52,0.24,0.78
		c0.52,0.73,0.77,1.49,0.21,2.32c-0.03,0.09-0.06,0.17-0.09,0.26c-0.07,0.11-0.14,0.12-0.23,0.02
		C457.54,275.11,457.24,273.99,457.71,272.85z"/>
	<path style="fill-rule:evenodd;clip-rule:evenodd;fill:#2D2923;" d="M494.58,281.62c0.1,0.19,0.2,0.39,0.3,0.58
		c-0.11,0.83-0.66,1.39-1.16,1.99c-0.09-0.1-0.18-0.2-0.27-0.3C493.62,283.03,493.8,282.17,494.58,281.62z"/>
	<path style="fill-rule:evenodd;clip-rule:evenodd;fill:#3D3230;" d="M491.75,287.93c-0.24-0.08-0.49-0.17-0.73-0.25
		c0.19-0.6,0.89-0.84,1.03-1.47c0.1-0.13,0.22-0.24,0.4-0.2c0.09,0.17,0.18,0.35,0.28,0.52
		C492.64,287.16,492.3,287.62,491.75,287.93z"/>
	<path style="fill-rule:evenodd;clip-rule:evenodd;fill:#2A2626;" d="M476.16,298.52c-0.21,0.37,0.77,0.5,0.19,0.94
		c-0.04-0.68-1.08,0.72-0.9-0.43l0.02-0.02c0.05-0.1,0.14-0.17,0.24-0.21C475.86,298.71,476.01,298.62,476.16,298.52z"/>
	<path style="fill-rule:evenodd;clip-rule:evenodd;fill:#332B2A;" d="M486.25,299.51c0.25-0.19,0.49-0.38,0.74-0.57
		c0.16,0.09,0.32,0.19,0.48,0.28c-0.36,0.36,0.25,0.48,0.19,0.77C487.21,299.79,486.81,299.41,486.25,299.51z"/>
	<path style="fill-rule:evenodd;clip-rule:evenodd;fill:#3A332A;" d="M476.7,297.29c0.27,0.29,0.27,0.54-0.1,0.73
		c0.08-1.17-1-0.17-1.28-0.68C475.78,297.33,476.24,297.31,476.7,297.29z"/>
	<path style="fill-rule:evenodd;clip-rule:evenodd;fill:#2E2B25;" d="M495.14,281.04c0.02-0.42-0.15-0.87,0.19-1.24
		C495.34,280.23,495.44,280.67,495.14,281.04z"/>
	<path style="fill-rule:evenodd;clip-rule:evenodd;fill:#2D2923;" d="M492.72,286.53c0.02-0.41-0.14-0.86,0.22-1.21
		C492.97,285.74,493.12,286.18,492.72,286.53z"/>
	<path style="fill-rule:evenodd;clip-rule:evenodd;fill:#2D2923;" d="M494.88,282.2c0.01-0.33-0.1-0.7,0.23-0.96
		C495.14,281.59,495.15,281.93,494.88,282.2z"/>
	<path style="fill-rule:evenodd;clip-rule:evenodd;fill:#2E2B25;" d="M495.35,274.76c-0.33-0.29-0.22-0.67-0.21-1.03
		C495.22,274.07,495.28,274.42,495.35,274.76z"/>
	<path style="fill-rule:evenodd;clip-rule:evenodd;fill:#2E2B25;" d="M495.39,278.5c0-0.4,0-0.81,0-1.21
		C495.55,277.69,495.66,278.09,495.39,278.5z"/>
	<path style="fill-rule:evenodd;clip-rule:evenodd;fill:#3A332A;" d="M474.12,297.11c0.3-0.01,0.62-0.09,0.84,0.21
		C474.68,297.25,474.4,297.18,474.12,297.11z"/>
	<path style="fill-rule:evenodd;clip-rule:evenodd;fill:#2E2B25;" d="M495.39,277.27c0-0.32,0-0.63,0-0.95
		C495.58,276.63,495.57,276.95,495.39,277.27z"/>
	<path style="fill-rule:evenodd;clip-rule:evenodd;fill:#2E2B25;" d="M495.39,279.46c0-0.33-0.01-0.67-0.01-1
		C495.55,278.79,495.61,279.12,495.39,279.46z"/>
	<path style="fill-rule:evenodd;clip-rule:evenodd;fill:#1D1A11;" d="M457.86,276.22c0.08-0.01,0.15-0.01,0.23-0.02
		c-0.05,0.16-0.11,0.32-0.16,0.47C457.9,276.53,457.88,276.38,457.86,276.22z"/>
	<path style="fill-rule:evenodd;clip-rule:evenodd;fill:#3A332A;" d="M472.2,296.63c0.2,0.07,0.4,0.14,0.6,0.21
		C472.6,296.77,472.4,296.7,472.2,296.63z"/>
	<path style="fill-rule:evenodd;clip-rule:evenodd;fill:#3A332A;" d="M472.93,296.87c0.19,0.06,0.39,0.11,0.58,0.17
		C473.32,296.99,473.12,296.93,472.93,296.87z"/>
	<path style="fill-rule:evenodd;clip-rule:evenodd;fill:#242018;" d="M490.11,289.95c-0.05-0.22-0.01-0.41,0.2-0.54
		C490.24,289.58,490.17,289.76,490.11,289.95z"/>
	<path style="fill-rule:evenodd;clip-rule:evenodd;fill:#2D2923;" d="M493.23,284.9c0.08-0.1,0.15-0.19,0.23-0.29
		C493.38,284.71,493.31,284.81,493.23,284.9z"/>
	<path style="fill-rule:evenodd;clip-rule:evenodd;fill:#2D2923;" d="M492.95,285.3c0.06-0.07,0.11-0.15,0.17-0.22
		C493.06,285.15,493.01,285.23,492.95,285.3z"/>
	<path style="fill-rule:evenodd;clip-rule:evenodd;fill:#EEECEB;" d="M457.68,272.36c-0.01,0.08-0.02,0.16-0.03,0.24
		c-0.02-0.06-0.05-0.12-0.06-0.18C457.59,272.4,457.65,272.38,457.68,272.36z"/>
	<path style="fill-rule:evenodd;clip-rule:evenodd;fill:#2E2B25;" d="M495.39,275.85c0-0.16,0-0.33,0-0.49
		C495.39,275.52,495.39,275.68,495.39,275.85z"/>
	<path style="fill-rule:evenodd;clip-rule:evenodd;fill:#2D2923;" d="M493.45,284.62c0.06-0.09,0.12-0.17,0.17-0.26
		C493.57,284.45,493.51,284.53,493.45,284.62z"/>
	<path style="fill-rule:evenodd;clip-rule:evenodd;fill:#E1A8C9;" d="M475.71,298.81c-0.08,0.07-0.16,0.14-0.24,0.21
		C475.55,298.94,475.63,298.88,475.71,298.81z"/>
	<path style="fill-rule:evenodd;clip-rule:evenodd;fill:#2A2626;" d="M476.37,299.45c0.07,0.24,0.12,0.49,0.46,0.46
		c0.1,0.04,0.18,0.12,0.24,0.22c0.06,0.14,0.08,0.29,0.12,0.44c0.04,0.18,0.06,0.42,0.33,0.35c0.23-0.06,0.23-0.28,0.19-0.47
		c-0.06-0.26-0.24-0.49-0.16-0.77c0.25-0.4,0.68-0.54,1.02-0.29c0.9,0.69,1.7,0.37,2.52-0.1c0.24-0.14,0.49-0.26,0.79-0.13
		c0.13,0.2,0.4,0.19,0.56,0.34c-0.1,0.75-0.83,0.74-1.28,1.07c-0.22,0.16-0.56,0.28-0.41,0.61c0.21,0.48,0.61,0.82,1.07,1.06
		c0.29,0.15,0.52-0.01,0.72-0.24c0.55-0.66,0.53-1.75-0.06-2.44c-0.13-0.2-0.41-0.18-0.56-0.36c0.04-0.4,0.34-0.39,0.63-0.4
		c0.58,0.12,1.17,0.24,1.75,0.41c0.05,0.03,0.09,0.06,0.14,0.09c-0.21,1.26-0.46,2.51-1.06,3.66c-0.46,0.89-1.05,1.18-1.89,0.44
		c-0.24-0.21-0.55-0.36-0.74-0.6c-0.98-1.19-1.98-1.78-3.31-0.42c-0.28,0.29-0.78,0.55-1.21,0.31c-0.53-0.29-0.32-0.86-0.26-1.3
		C476.01,300.73,475.88,300.02,476.37,299.45z"/>
	<path style="fill-rule:evenodd;clip-rule:evenodd;fill:#2E292B;" d="M487.93,301.41c-0.26,1.28-0.43,2.58-1.43,3.57
		c-0.33,0.33-0.55,0.74-1.02,0.22c0.49-0.79,0.97-1.58,1.46-2.37c0.32-0.47-0.02-1.04,0.23-1.51c-0.02-0.06-0.01-0.12,0.04-0.16
		c0.06-0.05,0.08-0.1,0.06-0.16c-0.02-0.05-0.04-0.08-0.06-0.08c-0.04-0.05-0.06-0.11-0.04-0.18c-0.06-0.11-0.05-0.21,0.01-0.32
		l-0.01-0.01c0.17,0.02,0.34,0.04,0.51,0.06c0.08,0.06,0.16,0.13,0.24,0.2v0c0.07,0.08,0.15,0.16,0.22,0.24c0,0.08,0,0.16,0,0.25
		C488.07,301.24,488,301.33,487.93,301.41z"/>
	<path style="fill-rule:evenodd;clip-rule:evenodd;fill:#392F30;" d="M474.91,303.1c-0.25,0.11-0.11,0.63-0.48,0.55
		c-0.27-0.06-0.19-0.39-0.19-0.62c-0.01-1.01-0.01-2.02-0.02-3.03c0.6-0.17,0.66,0.21,0.66,0.64
		C474.9,301.46,474.9,302.28,474.91,303.1z"/>
	<path style="fill-rule:evenodd;clip-rule:evenodd;fill:#332B2A;" d="M487.17,301.32c-0.04,0.51,0.23,1.07-0.23,1.51
		C487.04,302.33,486.84,301.79,487.17,301.32z"/>
	<path style="fill-rule:evenodd;clip-rule:evenodd;fill:#332B2A;" d="M487.19,300.42c0,0.11-0.01,0.21-0.01,0.32
		C487.05,300.63,486.91,300.52,487.19,300.42z"/>
	<path style="fill-rule:evenodd;clip-rule:evenodd;fill:#332B2A;" d="M487.21,300.92c0.03,0.06,0.06,0.11,0.08,0.17
		c0,0.01-0.05,0.04-0.08,0.07C487.21,301.08,487.21,301,487.21,300.92z"/>
	<path style="fill-rule:evenodd;clip-rule:evenodd;fill:#EEECEB;" d="M486.2,262.3c3.39,0.92,5.36,3.36,6.8,6.37
		c-0.3,1.35-0.09,2.68,0.11,4.01c0.2,1.35-0.15,2.24-1.11,2.62c-1.13,0.46-1.81-0.29-2.44-1.02c-1.38-1.61-2.78-3.19-4.72-4.18
		c-1.5-0.76-3.14-0.84-4.76-0.92c-1.35-0.06-2.7-0.11-4.06-0.1c-0.89,0.01-1.74-0.18-2.51-0.67c-1.38-0.9-1.39-2.52-0.01-3.43
		c0.65-0.43,1.42-0.52,2.13-0.78c1.34-0.49,1.76-1.1,1.67-2.36c0.28-0.32,0.73,0.01,1.02-0.27
		C480.99,261.36,483.6,261.78,486.2,262.3z"/>
	<path style="fill-rule:evenodd;clip-rule:evenodd;fill:#C4BCBF;" d="M467.51,266.6c0.39-0.57,0.79-1.15,1.44-1.46
		c0.35,0.05,0.52-0.52,0.93-0.28c0.5,0.48,0.44,1.12,0.38,1.69c-0.22,2.05,1.39,3.73,3.12,4.3c1.11,0.37,2.25,0.44,3.42,0.46
		c1.87,0.03,3.75-0.18,5.6,0.23c1.44,0.31,2.75,0.82,3.58,2.15c0.45,0.72,0.5,1.27-0.51,1.48c-1.68-0.64-3.4-0.96-5.2-0.8
		c-0.39,0.03-0.79,0-1.17,0.14c-1.99,0.21-4,0.23-5.98,0.04c-1.76-0.17-3.43-0.78-4.58-2.3c-0.28-0.37-0.6-0.64-1.11-0.54
		c-0.62-0.39-0.49-0.96-0.37-1.52c0.63-0.4,0.88-0.89,0.48-1.63C467.2,267.93,467.34,267.26,467.51,266.6z"/>
	<path style="fill-rule:evenodd;clip-rule:evenodd;fill:#EEECEB;" d="M458.17,275.94c-0.07-0.77-0.14-1.55-0.21-2.32
		c0.34-2.6,2.61-3.6,4.26-5.11c0.31-0.17,0.62-0.33,0.93-0.5c0.15-0.07,0.41-0.14,0.43-0.02c0.27,1.42,1.59,2.45,1.4,4.05
		c-0.19,1.64-0.76,3.1-1.75,4.4c-1.3,1.71-2.75,1.92-4.58,0.71C458.49,276.75,458.33,276.35,458.17,275.94z"/>
	<path style="fill-rule:evenodd;clip-rule:evenodd;fill:#E1DDDD;" d="M477.39,261.84c0.93,0.92,0.07,1.52-0.46,2.06
		c-0.69,0.72-1.74,0.71-2.63,1.04c-0.87,0.32-1.55,0.77-1.51,1.88c0.04,1.08,0.85,1.4,1.61,1.67c1.57,0.56,3.26,0.41,4.85,0.33
		c4.47-0.21,7.8,1.6,10.42,5.07c0.53,0.7,1.08,1.64,2.21,1.15c1.07-0.47,1.15-1.33,0.89-2.4c-0.24-0.98-0.09-2.06-0.34-3.04
		c-0.17-0.68,0.33-0.65,0.58-0.92c0.99,1.21,1.14,2.71,1.42,4.16c-0.02,0.13-0.04,0.25-0.08,0.37c-0.02,0.06-0.04,0.12-0.06,0.18
		c-0.69,2.12-1.48,2.89-2.99,2.9c-0.8,0-1.5-0.19-1.95-0.93c-2.26-3.46-5.12-5.83-9.58-5.57c-1.62,0.09-3.27,0.23-4.88-0.22
		c-0.19-0.05-0.39-0.1-0.58-0.16c-1.51-0.49-2.47-1.54-2.49-2.73c-0.02-1.06,0.97-2.25,2.33-2.74c1.17-0.42,2.39-0.72,2.72-2.18
		l0.09,0.01C477.13,261.68,477.27,261.71,477.39,261.84z"/>
	<path style="fill-rule:evenodd;clip-rule:evenodd;fill:#CCC6C7;" d="M485.52,275c0.48-0.25,0.67-0.48,0.28-1.06
		c-1.28-1.89-3.25-2.13-5.24-2.29c-2.1-0.17-4.22,0.17-6.32-0.23c-2.85-0.55-4.29-2.23-4.33-5.09c-0.01-0.48,0.36-1.17-0.47-1.41
		c-0.09,0.08-0.17,0.08-0.25-0.01c0.17-0.15,0.34-0.3,0.51-0.45l0.02-0.01c0.46-0.25,0.93-0.5,1.4-0.75
		c0.04,0.05,0.08,0.09,0.12,0.14c0.05,0.12,0.08,0.24,0.09,0.36c0.06,0.58-0.28,1.07-0.34,1.63c-0.35,3,1.46,4.32,4.02,4.74
		c2.01,0.34,4.05,0.34,6.07,0.24c2.58-0.13,4.41,1.06,5.9,3c0.53,0.69,1.01,1.42,1.65,2.04c1.48,1.42,3.03,1.62,4.76,0.55
		c0.31-0.19,0.58-0.42,0.97-0.4c0.12,0.01,0.23,0.06,0.33,0.12c0.33,0.75,0.14,1.22-0.64,1.59c-1.31,0.64-2.63,0.97-4.04,0.46
		c-0.58-0.21-0.9-0.24-0.8,0.52c0.01,0.1-0.13,0.19-0.25,0.24c-0.12,0.02-0.23-0.02-0.32-0.1v0c-1.04-0.95-1.45-2.43-2.68-3.21
		c-0.14-0.15-0.27-0.31-0.38-0.49C485.55,275.1,485.54,275.05,485.52,275z"/>
	<path style="fill-rule:evenodd;clip-rule:evenodd;fill:#D6D0D1;" d="M472.07,263.22c0.66-0.46,1.33-0.88,2.15-0.97
		c0.27,0.02,0.54,0.06,0.72-0.22c0.47-0.16,0.94-0.35,1.46-0.25c0.18,0.33-0.7,0.35-0.2,0.92c0.22,0.25-0.49,0.72-0.93,0.9
		c-0.63,0.24-1.28,0.44-1.87,0.78c-0.88,0.52-1.47,1.28-1.47,2.3c-0.01,1.04,0.59,1.79,1.5,2.27c1.2,0.64,2.51,0.7,3.82,0.76
		c1.86,0.09,3.74-0.22,5.59,0.24c0.81,0.2,1.62,0.41,2.3,0.93c0.85,0.71,1.73,1.41,2.42,2.28c0.32,0.39,0.85,0.83,0.26,1.42
		c-0.61-0.06-0.83-0.59-1.14-0.98c-1.42-1.81-3.18-2.8-5.56-2.71c-1.95,0.07-3.9,0.12-5.85-0.19c-0.81-0.12-1.56-0.34-2.27-0.68
		c-2.05-0.96-2.82-3.29-1.69-5.23C471.6,264.28,471.57,263.62,472.07,263.22z"/>
	<path style="fill-rule:evenodd;clip-rule:evenodd;fill:#D5D0D1;" d="M465.59,262.51c0.51-0.52,0.98-0.69,1.77-0.37
		c1.14,0.47,2.2-0.17,3.1-0.81c1.05-0.75,2.15-1.34,3.43-1.53c1.24-0.19,2.03-1.26,3.2-1.58c0.33-0.21,0.77-0.28,0.95,0.02
		c0.21,0.36-0.21,0.63-0.47,0.85c-0.66,0.57-1.26,1.19-1.88,1.79c-2.22,0.49-4.13,1.7-6.16,2.64c-0.97,0.11-1.95,0.15-2.89-0.18
		C466.2,263.19,465.75,263.03,465.59,262.51z"/>
	<path style="fill-rule:evenodd;clip-rule:evenodd;fill:#CEC8C9;" d="M472.07,263.22c0.12,0.66-0.05,1.14-0.51,1.7
		c-1.27,1.54-0.29,4.22,1.69,5c1.86,0.73,3.81,0.9,5.77,0.74c3.39-0.29,6.37,0.3,8.35,3.41c0.12,0.19,0.37,0.3,0.55,0.45
		c0.66,0.24,0.96,0.91,1.52,1.28c1.52,0.99,2.29,1.02,3.79,0c0.2-0.13,0.37-0.32,0.6-0.37c0.71-0.15,0.89,0.13,0.57,0.77
		c-1.44,0.9-2.91,1.7-4.67,0.88c-1.25-0.58-2.04-1.66-2.78-2.74c-1.58-2.31-3.64-3.37-6.49-3.23c-2.48,0.13-5.03,0.3-7.39-0.8
		c-2.23-1.03-3.03-3.07-2.21-5.37c0.11-0.32,0.18-0.66,0.26-0.99l0.08-0.08l-0.04-0.11l-0.06-0.08
		C471.43,263.54,471.75,263.38,472.07,263.22z"/>
	<path style="fill-rule:evenodd;clip-rule:evenodd;fill:#E1DDDE;" d="M458.64,277.16c1.48,0.26,3.02,1.03,4.19-0.71
		c1.23-1.82,2.25-3.67,1.57-5.98c-0.01-0.04-0.01-0.08-0.02-0.12c-0.21-0.89-1.49-1.21-1.25-2.34c0.16-0.08,0.32-0.16,0.48-0.24
		c0.28-0.11,0.55-0.16,0.81,0.04c0.05,0.1,0.07,0.21,0.07,0.33c-0.02,0.21,0.05,0.39,0.18,0.56c1.23,1.55,1.25,3.3,0.88,5.12
		c-0.29,0.92-0.72,1.78-1.2,2.61c-0.79,1.36-1.94,2.23-3.53,2.4c-0.51,0.05-0.97,0.36-1.5,0.27c-0.15-0.4-0.3-0.81-0.46-1.21l0,0
		C458.62,277.7,458.6,277.44,458.64,277.16z"/>
	<path style="fill-rule:evenodd;clip-rule:evenodd;fill:#DFDBDC;" d="M485.04,271.16c-1.12-0.87-2.43-1.16-3.8-1.19
		c-2.11-0.04-4.22,0.04-6.33-0.24c-1.51-0.19-2.92-1.22-3.13-2.55c-0.25-1.59,0.62-2.55,1.95-3.21c0.43-0.21,0.93-0.3,1.3-0.58
		c0.35-0.27,1.54-0.17,0.68-1.17c0.23-0.15,0.46-0.29,0.69-0.44c0.16-0.01,0.32-0.02,0.48-0.03c0.27,0.89-0.1,1.47-0.9,1.81
		c-0.77,0.33-1.56,0.6-2.32,0.94c-0.91,0.41-1.48,1.18-1.52,2.12c-0.04,1.02,0.62,1.8,1.57,2.21c0.95,0.41,1.95,0.64,3.01,0.67
		c1.99,0.05,3.98-0.2,5.96,0.21c3.28,0.67,5.24,2.92,6.93,5.54c-0.75,0.37-1.02-0.26-1.26-0.71
		C487.57,273.07,486.41,272.02,485.04,271.16z"/>
	<path style="fill-rule:evenodd;clip-rule:evenodd;fill:#C3BBBE;" d="M479.53,258.43c1.9,0.7,4.05,0.67,5.73,1.99
		c0.13,0.28,0.51,0.44,0.38,0.8c-0.02,0.05-0.48-0.08-0.74-0.1c-2.19-0.17-4.38-0.33-6.57-0.5
		C477.57,259.63,478.04,258.76,479.53,258.43z"/>
	<path style="fill-rule:evenodd;clip-rule:evenodd;fill:#C2BBBD;" d="M463.2,267.1c-0.88-0.43-0.45-1.12-0.27-1.67
		c0.25-0.72,0.64-1.41,1.23-1.94c1.12-0.34,2.08,0.23,3.07,0.59c0.7,0.26,0.3,0.85,0.26,1.32c-0.27,0.88-0.72,1.18-1.74,1
		C464.9,266.24,464.01,266.7,463.2,267.1z"/>
	<path style="fill-rule:evenodd;clip-rule:evenodd;fill:#CDC7C9;" d="M467.29,269.94c0.06,0.57-0.2,1.17,0.21,1.7
		c0.61,1.24,0,2.75-1.38,3.43c-0.52-0.31-0.65-0.84-0.48-1.34c0.64-1.79,0.18-3.41-0.63-5c-0.07-0.14-0.09-0.3-0.1-0.45
		c-0.09-0.17,0.23-0.28,0.07-0.46c-0.09-0.03-0.18-0.06-0.26-0.1c-0.09-0.05-0.14-0.12-0.17-0.21c0.83-0.4,1.66-0.61,2.46,0.07
		C467.44,268.33,467.87,269.08,467.29,269.94z"/>
	<path style="fill-rule:evenodd;clip-rule:evenodd;fill:#CDC7C8;" d="M467.49,265.39c-0.07-1.84-1.79-1.19-2.7-1.77
		c-0.15-0.1-0.46,0.14-0.62-0.14l0-0.01c0.08-0.08,0.15-0.17,0.22-0.25l-0.01,0.01c0.11-0.09,0.21-0.18,0.21-0.34
		c0.05-0.31,0.26-0.46,0.53-0.55c0.02,0.42,0.25,0.25,0.46,0.16c1.17,0.92,2.68,0.5,3.94,1.02c-0.19,0.14-0.39,0.28-0.58,0.42
		c-0.14,0.02-0.22,0.11-0.25,0.25C468.3,264.59,467.9,264.99,467.49,265.39z"/>
	<path style="fill-rule:evenodd;clip-rule:evenodd;fill:#CCC6C7;" d="M479.53,258.43c-0.61,0.62-1.86,0.88-1.21,2.19
		c-0.88,0.09-1.75,0.18-2.63,0.27c0.18-1.01,1.09-1.42,1.69-2.08c0.15-0.17,0.33-0.31,0.49-0.46c-0.26-0.04-0.52-0.08-0.78-0.12
		c-0.25-0.05-0.54,0.02-0.7-0.26c0.88,0.08,1.76,0.15,2.64,0.23C479.17,258.35,479.39,258.31,479.53,258.43L479.53,258.43z"/>
	<path style="fill-rule:evenodd;clip-rule:evenodd;fill:#342F2C;" d="M467.29,269.94c-0.09-0.79-0.19-1.57-0.28-2.36
		c0.17-0.33,0.33-0.66,0.5-0.98c-0.28,1.1,0.58,1.95,0.66,2.96c0.02,0.3,0.14,0.68-0.26,0.82
		C467.55,270.51,467.47,270.12,467.29,269.94z"/>
	<path style="fill-rule:evenodd;clip-rule:evenodd;fill:#DFDBDC;" d="M474.95,262.03c0.21,0.22,0.04,0.34-0.14,0.42
		c-0.24,0.11-0.44,0.03-0.58-0.2C474.47,262.18,474.71,262.1,474.95,262.03z"/>
	<path style="fill-rule:evenodd;clip-rule:evenodd;fill:#D8D3D3;" d="M464.55,267.51c0.11,0.03,0.22,0.05,0.32,0.08
		c0.08,0.39-0.09,0.52-0.47,0.46c-0.19-0.28-0.51-0.2-0.78-0.26C463.93,267.69,464.24,267.6,464.55,267.51z"/>
	<path style="fill-rule:evenodd;clip-rule:evenodd;fill:#DFDBDC;" d="M477.39,261.84c-0.14-0.02-0.28-0.05-0.42-0.08
		c0.42-0.27,0.88-0.28,1.35-0.2C478.08,261.9,477.7,261.76,477.39,261.84z"/>
	<path style="fill-rule:evenodd;clip-rule:evenodd;fill:#D5D0D1;" d="M468.71,264.19c-0.04-0.12-0.07-0.23-0.11-0.35
		c0.12,0.03,0.23,0.06,0.35,0.1C468.87,264.03,468.79,264.11,468.71,264.19z"/>
	<path style="fill-rule:evenodd;clip-rule:evenodd;fill:#CEC8C9;" d="M469.18,264.91c0.08,0,0.17,0,0.25,0.01
		c-0.05,0.33-0.12,0.62-0.49,0.21C469.03,265.06,469.1,264.99,469.18,264.91z"/>
	<path style="fill-rule:evenodd;clip-rule:evenodd;fill:#EFD1BD;" d="M489.81,289.59c-0.94,3.34-3.62,4.89-6.44,6.3
		c-0.35,0.58-0.81,1.08-1.26,1.57c-1.4,1.5-2.63,1.46-3.98-0.09c-0.08-0.09-0.15-0.19-0.21-0.29c-0.04-0.05-0.07-0.09-0.11-0.14
		c-0.44-0.57-1.16-1.13-0.07-1.76c0.17-0.03,0.35-0.02,0.52,0.01c0.42,0.13,0.84,0.2,1.26-0.02c1.33-0.49,2.32-1.41,3.02-2.58
		c0.77-1.29,1.7-2.38,3.05-3.08c1.32-0.14,2.07-0.96,2.55-2.13c0.16-0.4,0.37-0.81,0.78-1.01c0.56-0.27,0.62,0.02,0.48,0.49
		c0.16,0.62,0.31,1.23,0.47,1.85c0.05,0.05,0.06,0.11,0.05,0.16c-0.02,0.05-0.04,0.08-0.05,0.08
		C489.84,289.14,489.82,289.36,489.81,289.59z"/>
	<path style="fill-rule:evenodd;clip-rule:evenodd;fill:#ECCAB6;" d="M489.39,286.83c-0.37-0.93-0.58-0.07-0.69,0.11
		c-0.38,0.59-0.63,1.28-1.04,1.85c-0.45,0.6-0.99,1.2-1.9,0.87c-0.3,0.07-0.38-0.16-0.49-0.35c-0.04-0.11-0.07-0.22-0.08-0.33
		c0-0.12,0.02-0.23,0.07-0.33c0.17-0.27,0.44-0.45,0.65-0.69c1.3-1.43,0.92-3.36-0.85-4.09c-0.58-0.24-0.97-0.51-0.93-1.18
		c0.55-0.87,0.37-1.79,0.22-2.72c0.31-0.84,0.91-0.48,1.35-0.26c1.24,0.62,2.17,1.61,2.98,2.72l0-0.01c0.06,0.14,0.1,0.29,0.23,0.4
		c0.09,0.05,0.18,0.11,0.28,0.17c0.48,0.63,1.26,1.03,1.41,1.91C490.19,285.53,489.79,286.18,489.39,286.83z"/>
	<path style="fill-rule:evenodd;clip-rule:evenodd;fill:#C4BDBF;" d="M488.81,278.87c0.06-0.05,0.18-0.12,0.17-0.15
		c-0.77-2.07,0.72-0.98,1.24-0.79c1.56,0.56,2.84-0.15,4.17-0.7c0.52-0.22,0.15-0.69,0.25-1.04c-0.09-0.53-0.41-1.04-0.11-1.6
		c0.11-0.14,0.22-0.13,0.32,0.02c0.02,0.45,0.04,0.9,0.07,1.35c0.13,0.32,0.13,0.64,0,0.95c0,0.16,0.01,0.33,0.02,0.49
		c0.1,0.56,0.14,1.12-0.02,1.67c-0.02,0.21-0.04,0.42-0.05,0.63c-0.16,0.33-0.02,0.71-0.16,1.05c-0.04,0.29-0.07,0.58-0.11,0.87
		c-0.38,0.75-0.75,1.51-1.13,2.26l0,0.01c-0.08,0.05-0.16,0.08-0.26,0.08c-0.02-0.04-0.05-0.08-0.07-0.12
		c0.33-0.92,0.46-1.86,0-2.76c-0.59-1.13-1.83-1.47-2.78-0.68c-0.82,0.68-1.11,0.55-1.21-0.45c-0.02-0.22-0.17-0.43-0.26-0.65
		C488.75,279.18,488.76,279.03,488.81,278.87z"/>
	<path style="fill-rule:evenodd;clip-rule:evenodd;fill:#EFD1BD;" d="M488.67,282.42c-1.14-0.51-1.72-1.72-2.79-2.29
		c-0.38-0.2-0.87-0.83-1.34-0.06c-0.32,0-0.4-0.24-0.48-0.49c-0.05-0.25-0.05-0.5-0.02-0.75c0.02-0.12,0.06-0.24,0.12-0.35
		c0.9-0.82,1.71-0.19,2.44,0.26c0.63,0.39,1.21,0.86,1.79,1.33c0.1,0.15,0.16,0.33,0.23,0.5
		C488.63,281.19,488.65,281.81,488.67,282.42z"/>
	<path style="fill-rule:evenodd;clip-rule:evenodd;fill:#211C14;" d="M485.99,275.27c1.26,0.91,2.11,2.12,2.65,3.57
		c-0.28,0.17-0.22,0.44-0.2,0.69c-0.05,0.03-0.1,0.05-0.15,0.08c-0.86-0.81-1.08-2.08-2.04-2.82c-1.15-1.21-2.73-1.55-4.22-2.09
		c-0.62-0.15-1.25-0.05-1.88-0.08c-0.42-0.02-0.88,0.04-1.18-0.37c2.26-0.44,4.47-0.42,6.55,0.75l0,0
		C485.64,275.15,485.88,275.1,485.99,275.27z"/>
	<path style="fill-rule:evenodd;clip-rule:evenodd;fill:#EFD1BD;" d="M489.82,281.95c0.39-0.89,0.99-1.51,2.01-1.06
		c1.37,0.61,0.95,1.7,0.59,2.74c-0.1,0.07-0.19,0.06-0.28-0.02c-0.06-0.09-0.11-0.19-0.14-0.29c-0.03-0.1-0.04-0.21-0.06-0.32
		c-0.19-1.36-0.86-0.08-1.27-0.23C490.1,282.8,490.1,282.22,489.82,281.95z"/>
	<path style="fill-rule:evenodd;clip-rule:evenodd;fill:#EFD1BD;" d="M492.24,283.4c0,0.08-0.01,0.15-0.01,0.22
		c0.07,0.05,0.1,0.11,0.07,0.16c-0.02,0.05-0.05,0.08-0.07,0.08l0,0c-0.07,0.08-0.15,0.16-0.23,0.24l0,0
		c-0.07,0.08-0.15,0.16-0.24,0.22c-0.39,0.18-0.78,0.37-1.17,0.55c-0.7-0.54-1.18-1.26-1.7-1.96c0.23-0.17,0.6-0.14,0.71-0.5
		c0.02-0.08,0.05-0.15,0.07-0.23c0.05-0.09,0.1-0.18,0.16-0.26l0,0.01c0.75-0.27,0.26,0.71,0.73,0.72c0,0,0,0.12,0,0.12
		c-0.01,0.07-0.03,0.15-0.06,0.22c0,0-0.02,0.11-0.01,0.11c0,0.08,0.04,0.14,0.12,0.16c0.09,0,0.17,0,0.25,0
		c0.09,0.01,0.17,0.04,0.24,0.08c0.05,0.05,0.09,0.12,0.11,0.19c0,0.06,0.04,0.11,0.11,0.13c0.06-0.01,0.12-0.02,0.18-0.05
		c0.06-0.04,0.12-0.07,0.17-0.11c0,0,0.09-0.07,0.09-0.07c0.06-0.05,0.12-0.09,0.19-0.13c0,0,0.11-0.03,0.11-0.04
		C492.15,283.27,492.21,283.31,492.24,283.4z"/>
	<path style="fill-rule:evenodd;clip-rule:evenodd;fill:#B60E74;" d="M492.23,286.28c-0.05,0.77-0.54,1.16-1.21,1.4
		c-0.42-0.06-0.95-0.07-0.84-0.69c0.14-0.86,0.73-1.32,1.56-1.5c0.08,0.04,0.15,0.1,0.2,0.18c0.07,0.12,0.11,0.25,0.16,0.38
		C492.12,286.13,492.17,286.21,492.23,286.28z"/>
	<path style="fill-rule:evenodd;clip-rule:evenodd;fill:#827DA1;" d="M491.8,285.83c-0.02-0.11-0.05-0.22-0.07-0.34
		c0.47-0.14,0.58,0.21,0.72,0.52c-0.08,0.09-0.15,0.18-0.23,0.27c-0.08-0.01-0.16-0.03-0.24-0.04
		C491.88,286.12,491.89,285.95,491.8,285.83z"/>
	<path style="fill-rule:evenodd;clip-rule:evenodd;fill:#948E8D;" d="M493.29,284.13c-0.19,0.24-0.38,0.47-0.57,0.71
		c-0.24,0.09-0.31-0.02-0.3-0.24c0.23-0.25,0.47-0.5,0.7-0.75l0.08,0l0.04,0.08C493.3,283.98,493.32,284.05,493.29,284.13z"/>
	<path style="fill-rule:evenodd;clip-rule:evenodd;fill:#211C14;" d="M488.61,280.58c-0.07-0.1-0.14-0.2-0.21-0.3
		c-0.18-0.24-0.22-0.47-0.01-0.72l0.04-0.03C488.72,279.84,488.65,280.21,488.61,280.58z"/>
	<path style="fill-rule:evenodd;clip-rule:evenodd;fill:#EFD1BD;" d="M489.59,282.43c0,0.51-0.36,0.5-0.71,0.5l-0.01-0.01
		c-0.06-0.06-0.08-0.11-0.05-0.15c0.03-0.05,0.05-0.07,0.08-0.07C489.19,282.76,489.4,282.62,489.59,282.43z"/>
	<path style="fill-rule:evenodd;clip-rule:evenodd;fill:#2D2923;" d="M492.42,284.6c0.1,0.08,0.2,0.16,0.3,0.24
		c-0.11,0.04-0.23,0.08-0.34,0.13C492.39,284.84,492.4,284.72,492.42,284.6z"/>
	<path style="fill-rule:evenodd;clip-rule:evenodd;fill:#E3BD9C;" d="M488.9,282.69c-0.01,0.07-0.02,0.15-0.02,0.22
		c-0.07-0.17-0.14-0.34-0.21-0.51C488.74,282.5,488.82,282.6,488.9,282.69z"/>
	<path style="fill-rule:evenodd;clip-rule:evenodd;fill:#211C14;" d="M488.81,278.87c0.02,0.15,0.03,0.3,0.05,0.45
		c-0.07-0.16-0.14-0.32-0.22-0.48C488.7,278.85,488.75,278.86,488.81,278.87z"/>
	<path style="fill-rule:evenodd;clip-rule:evenodd;fill:#D6A376;" d="M489.82,281.94c-0.05,0.09-0.11,0.17-0.16,0.26
		C489.72,282.11,489.77,282.03,489.82,281.94z"/>
	<path style="fill-rule:evenodd;clip-rule:evenodd;fill:#B48F6E;" d="M492.23,283.87c0-0.08,0-0.16,0-0.24c0.06,0,0.13,0,0.19,0
		C492.36,283.71,492.29,283.79,492.23,283.87z"/>
	<path style="fill-rule:evenodd;clip-rule:evenodd;fill:#242018;" d="M489.85,288.92c0-0.08,0-0.16,0.01-0.24
		c0.03,0.06,0.06,0.12,0.08,0.18C489.94,288.87,489.88,288.9,489.85,288.92z"/>
	<path style="fill-rule:evenodd;clip-rule:evenodd;fill:#B48F6E;" d="M492,284.11c0.08-0.08,0.16-0.16,0.23-0.24
		C492.15,283.95,492.07,284.03,492,284.11z"/>
	<path style="fill-rule:evenodd;clip-rule:evenodd;fill:#2D2923;" d="M493.29,284.13c0-0.07-0.02-0.14-0.06-0.19
		c0.07-0.02,0.14-0.04,0.21-0.04C493.4,283.97,493.34,284.05,493.29,284.13z"/>
	<path style="fill-rule:evenodd;clip-rule:evenodd;fill:#B48F6E;" d="M491.75,284.33c0.08-0.07,0.16-0.15,0.24-0.22
		C491.91,284.19,491.83,284.26,491.75,284.33z"/>
	<path style="fill-rule:evenodd;clip-rule:evenodd;fill:#C3BBBE;" d="M479.54,258.43c-0.17-0.08-0.33-0.16-0.5-0.23
		C479.21,258.27,479.37,258.35,479.54,258.43z"/>
	<path style="fill-rule:evenodd;clip-rule:evenodd;fill:#332B2A;" d="M487.92,300.68c-0.08-0.07-0.16-0.13-0.24-0.2
		C487.77,300.54,487.84,300.61,487.92,300.68z"/>
	<path style="fill-rule:evenodd;clip-rule:evenodd;fill:#332B2A;" d="M488.15,300.92c-0.07-0.08-0.15-0.16-0.22-0.24
		C488,300.76,488.07,300.84,488.15,300.92z"/>
	<path style="fill-rule:evenodd;clip-rule:evenodd;fill:#332B2A;" d="M487.93,301.41c0.07-0.08,0.14-0.17,0.21-0.25
		C488.08,301.25,488.01,301.33,487.93,301.41z"/>
	<path style="fill-rule:evenodd;clip-rule:evenodd;fill:#BFA1A9;" d="M472.08,303.8c0.06,0.03,0.13,0.06,0.19,0.09
		C472.11,304.08,472.13,303.87,472.08,303.8L472.08,303.8z"/>
	<path style="fill-rule:evenodd;clip-rule:evenodd;fill:#D7D2D3;" d="M494.68,274.45c-0.01,0.58-0.03,1.16-0.04,1.74
		c-0.08,0-0.16,0-0.24,0c0-0.62-0.13-0.83-0.73-0.36c-2.23,1.72-4.38,1.21-5.75-1.32c-0.4-1.6-1.9-2.25-2.88-3.36
		c1.6,0.54,2.51,1.86,3.46,3.11c0.31,0.41,0.48,0.93,1.1,0.97c1.33,1.26,3.25,0.9,3.97-0.76c0.2-0.46,0.39-0.93,0.59-1.4l0,0
		c0.09-0.08,0.18-0.17,0.27-0.25c0.08,0.24,0.17,0.49,0.25,0.73C494.8,273.86,494.79,274.16,494.68,274.45z"/>
	<path style="fill-rule:evenodd;clip-rule:evenodd;fill:#2E2B25;" d="M494.9,279.08c0.01-0.56,0.02-1.11,0.02-1.67
		C495.22,277.97,495.24,278.52,494.9,279.08z"/>
	<path style="fill-rule:evenodd;clip-rule:evenodd;fill:#2E2B25;" d="M494.69,280.75c0.05-0.35,0.11-0.7,0.16-1.05
		C494.87,280.06,494.98,280.44,494.69,280.75z"/>
	<path style="fill-rule:evenodd;clip-rule:evenodd;fill:#2E2B25;" d="M494.91,276.92c0-0.32,0-0.64,0-0.95
		C495.2,276.28,495.2,276.6,494.91,276.92z"/>
	<path style="fill-rule:evenodd;clip-rule:evenodd;fill:#2E2B25;" d="M494.68,274.45c0-0.3,0-0.59-0.01-0.89
		c0.3,0.31,0.19,0.69,0.17,1.05C494.8,274.55,494.74,274.5,494.68,274.45z"/>
	<path style="fill-rule:evenodd;clip-rule:evenodd;fill:#EFD1BD;" d="M467.57,292.2c-0.11-0.26-0.23-0.52-0.34-0.79
		c-0.01-0.78,0.58-0.69,1.06-0.73c1.28,1.43,2.81,2.53,4.56,3.33c1.56,0.84,3.06,1.8,4.57,2.73c-0.03,0.05-0.05,0.1-0.08,0.16
		c-1.04-0.13-2.1-0.01-3.11-0.37c-1.36-0.8-2.65-1.7-4.01-2.5c-0.55-0.32-1.09-0.65-1.72-0.8
		C468.19,292.89,467.88,292.54,467.57,292.2z"/>
	<path style="fill-rule:evenodd;clip-rule:evenodd;fill:#13110C;" d="M478.32,297.08c1.1,1.5,2.4,1.52,3.65,0.1
		c0.42-0.47,0.56-1.27,1.4-1.3c0.23,0.04,0.51-0.07,0.67,0.2c-0.33,1.07-0.43,2.13,0.23,3.13c-0.6,0.41-1.1,0-1.63-0.21
		c0.01-0.04,0.01-0.08,0.02-0.12c0.08-0.34,0.52-0.77,0.25-0.95c-0.4-0.28-0.6,0.33-0.87,0.55c-0.93,0.77-1.97,1.01-3.11,0.69
		c-0.49-0.14-0.93-0.46-0.89-1.1c-0.16-0.34-0.31-0.69-0.47-1.03c-0.06-0.11-0.04-0.2,0.05-0.29c0.17-0.03,0.33-0.05,0.44,0.13
		l-0.02-0.02C478.16,296.9,478.23,297,478.32,297.08z"/>
	<path style="fill-rule:evenodd;clip-rule:evenodd;fill:#D4B08F;" d="M478.05,298.07c1.25,1.35,2.8,1.28,4.15-0.18
		c0.32-0.34,0.61-0.74,1-0.98c0.18-0.11,0.16,0.28,0.16,0.45c0.01,0.65,0.24,1.41-0.72,1.63c-0.27-0.02-0.54,0-0.73,0.23l0,0
		c-0.31,0.15-0.62,0.33-0.94,0.45c-0.82,0.3-1.65,1.01-2.48-0.04c-0.21-0.27-0.59-0.1-0.86,0.07c-0.11,0.09-0.22,0.09-0.33-0.01
		c-0.09-0.25-0.1-0.48,0.07-0.71c0.04-0.06,0.05-0.12,0.04-0.19C477.77,298.69,477.47,298,478.05,298.07z"/>
	<path style="fill-rule:evenodd;clip-rule:evenodd;fill:#EFD1BD;" d="M468.5,293.23c0.76-0.41,1.28,0.16,1.79,0.52
		c1.31,0.93,2.97,1.37,3.94,2.78c-2.17-0.14-3.87-1.17-5.28-2.76c-0.05-0.12-0.14-0.21-0.26-0.28
		C468.62,293.4,468.56,293.32,468.5,293.23z"/>
	<path style="fill-rule:evenodd;clip-rule:evenodd;fill:#D4B08F;" d="M477.63,296.86c-0.01,0.06-0.03,0.12-0.05,0.18
		c-0.08-0.05-0.16-0.1-0.23-0.14l0.01-0.11C477.46,296.74,477.55,296.76,477.63,296.86z"/>
	<path style="fill-rule:evenodd;clip-rule:evenodd;fill:#2A2626;" d="M477.32,297.83c-0.06-0.09-0.12-0.18-0.19-0.27
		C477.2,297.65,477.26,297.74,477.32,297.83z"/>
	<path style="fill-rule:evenodd;clip-rule:evenodd;fill:#E6BD9C;" d="M468.69,293.49c0.09,0.09,0.17,0.19,0.26,0.28
		C468.86,293.68,468.77,293.58,468.69,293.49z"/>
	<path style="fill-rule:evenodd;clip-rule:evenodd;fill:#C2BABC;" d="M464.68,286.25c-0.89-0.87-1.78-1.74-2.67-2.62
		c-0.55-0.8-1.3-1.46-1.65-2.41c0.02-0.08,0.03-0.19,0.08-0.22c1.47-0.81,2.95-1.57,4.64-1.81c0.7,0.64,0.65,1.64,1.14,2.38
		c0.11,0.26,0.18,0.54,0.3,0.79c0.22,0.74,0.62,1.18,1.47,0.9c0.96,0.74-0.3,0.99-0.33,1.51c0.02,0.38-0.16,0.7-0.36,1
		C466.64,287.1,465.76,287.22,464.68,286.25z"/>
	<path style="fill-rule:evenodd;clip-rule:evenodd;fill:#E3AFA2;" d="M468.48,290.84c-0.45,0.12-0.94,0.14-1.25,0.57
		c-0.62-0.72-0.67-1.6-0.67-2.49c0.19-0.11,0.39-0.06,0.58,0c0.87,0.29,1.58,0.07,2.08-0.71c0.53-0.83,0.45-1.65-0.06-2.47
		c-0.27-0.44-0.97-0.69-0.68-1.4c0.75-0.44,1.48-0.53,2.19,0.06c0.22,0.23-0.39,0.26-0.14,0.43c0.86,0.58,0.83,1.5,0.87,2.34
		C471.49,288.78,470.02,290.54,468.48,290.84z"/>
	<path style="fill-rule:evenodd;clip-rule:evenodd;fill:#DD9B94;" d="M468.47,284.58c1.11,0.85,1.83,1.88,1.32,3.35
		c-0.53,1.52-1.8,1.89-3.23,0.99c-0.03-1.11,0.62-1.91,1.23-2.74c0.13-0.18,0.4-0.38,0.13-0.58c-0.11-0.08-0.41,0.11-0.62,0.17
		c0-0.33,0-0.65,0.01-0.97C467.66,284.53,468.03,284.39,468.47,284.58z"/>
	<path style="fill-rule:evenodd;clip-rule:evenodd;fill:#C2BBBD;" d="M464.6,262.9c-0.07,0.11-0.14,0.22-0.21,0.34
		C464.46,263.12,464.53,263.01,464.6,262.9z"/>
	<path style="fill-rule:evenodd;clip-rule:evenodd;fill:#C2BBBD;" d="M464.39,263.23c-0.07,0.08-0.15,0.17-0.22,0.25
		C464.24,263.4,464.32,263.31,464.39,263.23z"/>
	<path style="fill-rule:evenodd;clip-rule:evenodd;fill:#D6D1D2;" d="M464.4,268.04c0.16-0.15,0.31-0.3,0.47-0.46
		c0.08,0,0.17,0,0.25,0c0.05,0.05,0.07,0.1,0.05,0.15c-0.02,0.05-0.04,0.07-0.06,0.07c-0.05,0.69,0.42,1.19,0.64,1.77
		c0.46,1.2,0.85,2.43,0.29,3.69c-0.3,0.66-0.1,1.24,0.09,1.84c0.19,0.78-0.37,1.28-0.68,1.88c-0.11,0.17-0.16,0.37-0.18,0.57
		c-0.02,0.11-0.06,0.2-0.13,0.29c-0.57,0.14-1.09,0.36-1.57,0.74c-1.15,0.93-2.48,1.33-3.96,1.2c-0.1-0.23-0.2-0.46-0.3-0.7
		c0.32-0.32,0.58-0.54,1.16-0.56c2.06-0.05,3.27-1.38,4.08-3.15c0.25-0.54,0.52-1.06,0.79-1.59c0.54-1.84,0.46-3.57-0.84-5.1
		C464.36,268.52,464.27,268.29,464.4,268.04L464.4,268.04z"/>
	<path style="fill-rule:evenodd;clip-rule:evenodd;fill:#CAC4C5;" d="M459.63,279.79c1.36-0.44,2.92-0.46,3.97-1.57
		c0.47-0.49,0.9-0.73,1.54-0.62c0.31-0.01,0.39,0.22,0.45,0.46c0.02,0.18,0.01,0.36-0.04,0.53c-0.09,0.28-0.18,0.56-0.45,0.73
		c-1.58,0.64-3.16,1.27-4.74,1.91C460.12,280.75,459.87,280.27,459.63,279.79z"/>
	<path style="fill-rule:evenodd;clip-rule:evenodd;fill:#2A2626;" d="M477.36,299c0,0.23-0.01,0.46-0.01,0.69
		c-0.05,0.24-0.19,0.34-0.43,0.31c-0.03-0.03-0.07-0.06-0.1-0.09C477,299.61,477.18,299.3,477.36,299z"/>
	<path style="fill-rule:evenodd;clip-rule:evenodd;fill:#DCA6C6;" d="M482.47,299.52c0.87-0.22,1.04,0.24,0.91,0.96
		c-0.06,0.31-0.16,0.61-0.27,0.91c-0.21,0.57-0.21,1.46-1.05,1.34c-0.89-0.12-1.44-0.9-1.9-1.63c-0.23-0.38,0.22-0.43,0.43-0.55
		c0.61-0.35,1.24-0.68,1.86-1.01L482.47,299.52z"/>
	<path style="fill-rule:evenodd;clip-rule:evenodd;fill:#D3A4C0;" d="M476.92,300c0.14-0.1,0.29-0.2,0.43-0.31
		c0.09,0.01,0.18,0.02,0.27,0.03c0.09,0.46,1.11,0.62,0.44,1.32c-0.27,0.28-0.71,0.63-1.01,0.45
		C476.45,301.12,477.04,300.5,476.92,300z"/>
	<path style="fill-rule:evenodd;clip-rule:evenodd;fill:#13110C;" d="M482.45,299.53c-0.18-0.1-0.36-0.2-0.54-0.3l0,0
		c0.19,0.1,0.38,0.19,0.56,0.29L482.45,299.53z"/>
	<path style="fill-rule:evenodd;clip-rule:evenodd;fill:#13110A;" d="M465.39,278.11c-0.08-0.17-0.16-0.34-0.24-0.51
		c0.04-0.07,0.03-0.14-0.03-0.2c-0.13-0.18-0.15-0.34,0.07-0.46c0.32-0.61,0.64-1.23,0.95-1.84c0.7-1.06,1.67-2.01,1.35-3.46
		c0.06-0.72,0.44-0.96,0.83-0.3c1.6,2.72,4.22,2.97,6.95,2.97c1.23,0,2.47-0.04,3.7-0.07c1.13,0.18,2.31-0.22,3.42,0.26
		c-0.21,0.4-0.59,0.52-1,0.54c-2.63,0.12-5.25,0.48-7.89,0.26c-0.55-0.13-1.13-0.18-1.69-0.27c-0.95-0.44-2.03-0.68-2.84-1.4
		c-0.48-0.42-0.62-0.14-0.87,0.25c-0.74,1.17-1.35,2.41-2.04,3.6C465.87,277.71,465.86,278.16,465.39,278.11z"/>
	<path style="fill-rule:evenodd;clip-rule:evenodd;fill:#C4BCBF;" d="M485.99,275.27c-0.16-0.09-0.31-0.18-0.47-0.27
		C485.68,275.09,485.83,275.18,485.99,275.27z"/>
	<path style="fill-rule:evenodd;clip-rule:evenodd;fill:#CEC8C9;" d="M469.71,264.45c0.09,0.03,0.19,0.06,0.28,0.09
		c-0.02,0.03-0.05,0.08-0.06,0.08c-0.08-0.05-0.16-0.1-0.24-0.15L469.71,264.45z"/>
	<path style="fill-rule:evenodd;clip-rule:evenodd;fill:#D6D0D1;" d="M471.16,263.78c0.01,0.05,0.04,0.09,0.04,0.14
		c0,0.01-0.05,0.03-0.08,0.04C471.12,263.9,471.14,263.84,471.16,263.78z"/>
	<path style="fill-rule:evenodd;clip-rule:evenodd;fill:#D8D3D3;" d="M464.4,268.04c1.13,1.63,1.9,3.33,1.2,5.37
		c-0.05,0.14-0.16,0.26-0.24,0.39c0.15-1.91,0.31-3.82-1.28-5.33C463.82,268.23,464.15,268.09,464.4,268.04z"/>
	<path style="fill-rule:evenodd;clip-rule:evenodd;fill:#EEECEB;" d="M458.88,277.89c0.03-0.1,0.06-0.2,0.09-0.31
		C459.18,277.76,458.96,277.8,458.88,277.89L458.88,277.89z"/>
	<path style="fill-rule:evenodd;clip-rule:evenodd;fill:#D8D3D3;" d="M465.12,267.8c0-0.07,0-0.15,0-0.22
		c0.03,0.05,0.06,0.1,0.09,0.16C465.21,267.75,465.15,267.78,465.12,267.8z"/>
	<path style="fill-rule:evenodd;clip-rule:evenodd;fill:#D5D0D1;" d="M476.69,260.5c-0.08,0.02-0.15,0.05-0.22,0.06
		c-0.02,0-0.04-0.1-0.05-0.15c0.04-0.01,0.08-0.04,0.11-0.03C476.58,260.41,476.62,260.46,476.69,260.5z"/>
	<path style="fill-rule:evenodd;clip-rule:evenodd;fill:#0E0C07;" d="M485.48,289.25c0.09,0.14,0.18,0.27,0.27,0.41
		c-2.05,0.9-2.67,3.09-4.1,4.55c-0.6,0.62-1.33,0.98-2.14,1.21c-0.4,0.16-0.79,0.14-1.19,0.01c-0.14-0.02-0.28-0.04-0.41-0.06
		c-0.72-0.07-1.34-0.37-1.98-0.69c-0.75-0.38-1.59-0.39-2.42-0.41c-0.12-0.02-0.24-0.05-0.35-0.08c-0.12-0.03-0.23-0.07-0.34-0.13
		c-0.11-0.05-0.21-0.13-0.3-0.21c-0.07-0.11-0.11-0.22-0.12-0.35c0.02-0.21,0.12-0.35,0.31-0.45c0.49-0.2,1-0.11,1.5-0.15
		c3.28,0.01,6.35-0.69,9.06-2.64c0.4-0.27,0.66-0.65,0.76-1.13c0.32-0.67,0.68-1,1.19-0.16l0-0.01
		C485.38,288.99,485.46,289.1,485.48,289.25z"/>
	<path style="fill-rule:evenodd;clip-rule:evenodd;fill:#E9CBB0;" d="M473.27,294.01c1.75-0.23,3.24,0.41,4.64,1.36
		c-1.08,0.62-0.04,1.03,0.15,1.52c-0.14-0.01-0.29-0.02-0.43-0.03c-0.09-0.02-0.18-0.04-0.28-0.07c-1.74-0.47-3.08-1.66-4.56-2.59
		c0.05-0.08,0.13-0.12,0.23-0.12C473.11,294.08,473.2,294.05,473.27,294.01z"/>
	<path style="fill-rule:evenodd;clip-rule:evenodd;fill:#E9CBB0;" d="M478.33,295.43c0.4,0,0.79,0,1.19-0.01
		C479.12,295.76,478.72,295.77,478.33,295.43z"/>
	<path style="fill-rule:evenodd;clip-rule:evenodd;fill:#E9CBB0;" d="M478.32,297.08c-0.09-0.07-0.19-0.14-0.28-0.22
		C478.13,296.94,478.23,297.01,478.32,297.08z"/>
	<path style="fill-rule:evenodd;clip-rule:evenodd;fill:#0A0906;" d="M484.28,279.63c0.09,0.15,0.17,0.3,0.26,0.45
		c0.38,0.91,0.62,1.81-0.21,2.63c-0.19,0.17-0.11,0.35-0.03,0.53c0.38,0.84-0.1,1.09-0.8,1.09c-0.64,0-1.25,0.06-1.82,0.36
		c-0.1,0.05-0.21,0.09-0.33,0.13c-0.36,0.06-0.71,0.06-0.94-0.29c-0.08-0.22-0.04-0.46-0.16-0.67c-0.92-1.3-0.97-2.65-0.28-4.05
		c0.24-0.41,0.15-0.89,0.32-1.31c0.14-0.27,0.36-0.49,0.66-0.38c0.48,0.18,0.74-0.16,1.06-0.37c0.37-0.11,0.64,0.02,0.84,0.33
		c0.13,0.36,0.41,0.37,0.73,0.3c0.28,0,0.56-0.02,0.71,0.3c-0.03,0.05-0.02,0.09,0.01,0.13
		C484.14,279.07,484.19,279.35,484.28,279.63z"/>
	<path style="fill-rule:evenodd;clip-rule:evenodd;fill:#E4B1A5;" d="M481.43,284.59c0.15-0.47,0.55-0.46,0.94-0.54
		c0.84-0.16,2.22,0.43,1.95-1.35c0.04,0.32,0.11,0.63,0.43,0.78c2.82,1.3,3.07,3.42,0.63,5.3c-0.06,0.05-0.11,0.12-0.16,0.17
		c-0.53-0.32-0.95-0.43-0.92,0.43C481.49,288.48,480.6,287,481.43,284.59z"/>
	<path style="fill-rule:evenodd;clip-rule:evenodd;fill:#E4B1A5;" d="M485.48,289.25c-0.08-0.1-0.17-0.2-0.26-0.29
		C485.31,289.05,485.39,289.15,485.48,289.25z"/>
	<path style="fill-rule:evenodd;clip-rule:evenodd;fill:#EFD1BD;" d="M484.28,278.66c-0.3-0.02-0.6-0.03-0.9-0.05
		c-0.26-0.04-0.5-0.11-0.72-0.26c-0.07-0.42-0.31-0.55-0.7-0.41c-0.08-0.04-0.12-0.11-0.12-0.2c0.06-0.07,0.12-0.12,0.2-0.17
		c-0.1,0-0.16,0.05-0.18,0.15c-0.09,0.05-0.18,0.06-0.28,0.05c-0.33-0.11-0.52-0.32-0.5-0.68c0.33-0.67,1.12-0.27,1.56-0.68
		c1.26,0.53,2.56,0.46,3.86,0.25c0.97,0.75,1.34,1.88,1.89,2.9c0,0.24,0.01,0.48,0.01,0.72c-0.76-0.2-1.27-0.77-1.88-1.2
		C485.9,278.63,485.17,278.01,484.28,278.66z"/>
	<path style="fill-rule:evenodd;clip-rule:evenodd;fill:#DFAB7F;" d="M484.28,279.63c-0.42-0.29-0.17-0.56,0.02-0.84
		C484.29,279.07,484.28,279.35,484.28,279.63z"/>
	<path style="fill-rule:evenodd;clip-rule:evenodd;fill:#EFD1BD;" d="M486.51,276.66c-1.28,0.98-2.59,0.52-3.89,0.05
		c-0.87-0.42-1.68,0.25-2.54,0.14c-1.06-0.21-2.08-0.48-3.03-1.02c-0.77-0.44-1.64-0.15-2.45-0.26c-0.48-0.06-1.17,0.25-1.31-0.59
		c3.06,0.21,6.08-0.13,9.11-0.48C483.89,274.99,485.44,275.36,486.51,276.66z"/>
	<path style="fill-rule:evenodd;clip-rule:evenodd;fill:#1A150F;" d="M491.49,283.87c-0.07,0.01-0.14,0.03-0.21,0.05
		c-0.1,0.05-0.17,0.02-0.21-0.09c0.03-0.15,0.06-0.31,0.1-0.46c-0.14-0.18-0.23-0.04-0.33,0.05c-0.15,0.06-0.29,0.12-0.44,0.18
		c-0.33-0.19-0.21-0.44-0.08-0.68l0,0c0.08-0.08,0.17-0.15,0.23-0.25l0.01,0c0.45-0.24,0.73-0.92,1.38-0.65
		c0.51,0.21,0.4,0.68,0.29,1.11c-0.05,0.11-0.13,0.2-0.22,0.27l0,0c-0.09,0.07-0.17,0.15-0.24,0.24l0,0
		C491.67,283.72,491.59,283.8,491.49,283.87z"/>
	<path style="fill-rule:evenodd;clip-rule:evenodd;fill:#B48F6E;" d="M492.01,283.41c0.07-0.09,0.15-0.18,0.22-0.27
		c0,0.09,0.01,0.18,0.01,0.27l-0.12,0L492.01,283.41z"/>
	<path style="fill-rule:evenodd;clip-rule:evenodd;fill:#796E66;" d="M490.84,283.42c0.12-0.34,0.29-0.75,0.67-0.61
		c0.18,0.07-0.16,0.4-0.34,0.57C491.06,283.39,490.95,283.4,490.84,283.42z"/>
	<path style="fill-rule:evenodd;clip-rule:evenodd;fill:#EFD1BD;" d="M490.32,282.92c0.03,0.23,0.05,0.45,0.08,0.68
		C489.98,283.42,490.01,283.18,490.32,282.92z"/>
	<path style="fill-rule:evenodd;clip-rule:evenodd;fill:#D6A376;" d="M490.55,282.67c-0.08,0.08-0.15,0.17-0.23,0.25
		C490.4,282.84,490.47,282.76,490.55,282.67z"/>
	<path style="fill-rule:evenodd;clip-rule:evenodd;fill:#B48F6E;" d="M491.49,283.87c0.09-0.07,0.18-0.14,0.27-0.22
		C491.67,283.72,491.58,283.79,491.49,283.87z"/>
	<path style="fill-rule:evenodd;clip-rule:evenodd;fill:#B48F6E;" d="M491.07,283.83c0.08,0,0.15,0.03,0.21,0.09
		C491.14,284.08,491.08,284.03,491.07,283.83z"/>
	<path style="fill-rule:evenodd;clip-rule:evenodd;fill:#B48F6E;" d="M491.77,283.65c0.08-0.08,0.16-0.16,0.24-0.24
		C491.93,283.49,491.85,283.57,491.77,283.65z"/>
	<path style="fill-rule:evenodd;clip-rule:evenodd;fill:#544382;" d="M491.8,285.83c0.06,0.14,0.12,0.27,0.18,0.41
		C491.78,286.16,491.77,286.01,491.8,285.83z"/>
	<path style="fill-rule:evenodd;clip-rule:evenodd;fill:#E1DDDD;" d="M494.16,273.08c0.06,0.08,0.11,0.17,0.17,0.25
		c-0.03,0.02-0.06,0.04-0.09,0.06C494.21,273.28,494.19,273.18,494.16,273.08L494.16,273.08z"/>
	<path style="fill-rule:evenodd;clip-rule:evenodd;fill:#EFD1BD;" d="M473.04,294.2c-0.08,0-0.16,0-0.25,0
		c-1.67-0.82-3.59-1.33-4.32-3.36c1.65-1.2,3.19-2.44,2.43-4.87c-0.12-0.39-0.24-0.71-0.52-1.02c-0.57-0.62,0.27-0.2,0.31-0.39
		c0.27-0.28,0.63-0.42,0.99-0.54c0.12,0.02,0.21,0.07,0.27,0.17c0.06,0.15,0.11,0.41,0.01,0.45c-0.62,0.21-0.24,0.43-0.05,0.7
		c0.72,1.04,0.48,2.13,0.14,3.22c-0.22,0.69-0.6,1.31-1.02,1.89c-0.51,0.72-0.42,1.31,0.25,1.87c0.39,0.33,0.86,0.6,1.06,1.11
		c0.06,0.1,0.13,0.19,0.21,0.27l0,0c0.08,0.1,0.18,0.2,0.32,0.21c0.07-0.03,0.12-0.01,0.16,0.06c0.05,0.05,0.07,0.09,0.05,0.14
		C473.08,294.17,473.06,294.2,473.04,294.2z"/>
	<path style="fill-rule:evenodd;clip-rule:evenodd;fill:#EFD1BD;" d="M465.82,277.38c0.78-1.46,1.56-2.92,2.32-4.39
		c0.13-0.25,0.23-0.47,0.45-0.14c0.75,1.1,2.08,1.22,3.1,1.86c-0.93,0.37-1.78,0.94-2.79,1.14c-0.14,0.03,0.17,0.14,0.11,0.27
		c-0.25,0.47-0.77,0.31-1.14,0.48c-0.34,0.15-0.85,0.19-0.5,0.78c0,0.36,0.22,0.7,0.16,1.07c-0.16,0.21-0.44,0.39-0.28,0.71
		c0.42,0.84,0.11,1.71,0.1,2.56c-0.09,0.37-0.07,0.86-0.68,0.71c-0.4-0.08-0.25-0.69-0.7-0.72c-0.48-0.73-0.63-1.58-0.87-2.4
		c0.03-0.26-0.03-0.55,0.26-0.72C465.7,278.26,465.69,277.8,465.82,277.38z"/>
	<path style="fill-rule:evenodd;clip-rule:evenodd;fill:#0D0B08;" d="M467.04,281.72c-0.15-0.9,0.4-1.81-0.21-2.74
		c-0.3-0.45,0.18-0.67,0.66-0.56c0.27,0.16,0.24,0.69,0.72,0.59c0.3-0.03,0.58-0.15,0.88-0.19c0.25-0.04,0.5-0.06,0.71-0.21
		c0.13-0.09,0.26-0.19,0.39-0.27c0.31-0.18,0.63-0.26,0.95-0.04c0.13,0.62,0.35,1.15,0.82,1.65c0.78,0.83,0.81,2.12,0.19,3.1
		c-0.21,0.34-0.49,0.64-0.5,1.06c0.05,0.91-0.63,0.33-0.96,0.46c-0.74-0.26-1.49-0.46-2.23,0.02c-0.38,0.12-0.72,0.43-1.16,0.22
		c-0.21-0.69,1.26-0.59,0.68-1.46C467.15,283.11,467.27,282.31,467.04,281.72z"/>
	<path style="fill-rule:evenodd;clip-rule:evenodd;fill:#1E1B15;" d="M467.04,281.72c0.32,0.54,0.64,1.09,0.96,1.63
		c-1.39,1.25-1.31-0.26-1.7-0.9c-0.06-0.24,0.04-0.32,0.28-0.26C467.45,282.76,466.88,281.88,467.04,281.72z"/>
	<path style="fill-rule:evenodd;clip-rule:evenodd;fill:#EFD1BD;" d="M466.57,282.19c-0.09,0.09-0.18,0.17-0.28,0.26
		c-0.11-0.25-0.21-0.49-0.32-0.74C466.49,281.47,466.37,282.03,466.57,282.19z"/>
	<path style="fill-rule:evenodd;clip-rule:evenodd;fill:#CAC4C5;" d="M465.19,276.94c-0.02,0.15-0.05,0.3-0.07,0.46
		C464.87,277.21,464.89,277.05,465.19,276.94z"/>
	<path style="fill-rule:evenodd;clip-rule:evenodd;fill:#EFD1BD;" d="M465.82,277.38c0.02,0.47,0.09,0.96-0.46,1.22
		c0.01-0.16,0.01-0.33,0.02-0.49C465.53,277.87,465.68,277.62,465.82,277.38z"/>
	<path style="fill-rule:evenodd;clip-rule:evenodd;fill:#EFD1BD;" d="M468.97,276.18c-0.24-0.11-0.47-0.22-0.71-0.33
		c0.24-0.08,0.47-0.17,0.71-0.25c0.91-0.3,1.68-1.01,2.73-0.88c0.53,0.09,1.06,0.18,1.59,0.27c0.34,0.41,0.83,0.3,1.23,0.25
		c2.14-0.31,3.86,0.9,5.75,1.51c0.08,0.35-0.03,0.62-0.35,0.8c-0.6,0.21-1.21,0.07-1.75-0.15c-1.88-0.77-3.85-0.96-5.85-1.09
		c-1.15-0.07-2.31-0.25-3.23,0.75c-0.19,0.21-0.53,0.14-0.79-0.02C468.03,276.35,468.84,276.53,468.97,276.18z"/>
	<path style="fill-rule:evenodd;clip-rule:evenodd;fill:#EFD1BD;" d="M471.65,284.11c-0.21-0.19-0.95-0.1-0.23-0.72
		c1.29-1.12,1.25-2.88-0.13-3.76c-0.72-0.46-0.38-0.77-0.19-1.2c-0.41-0.31-0.73-0.29-0.91,0.24c-0.07,0.07-0.14,0.14-0.21,0.21
		c-0.19,0.07-0.39,0.09-0.59,0.08c-0.11-0.01-0.19-0.05-0.27-0.13c-0.02-0.11-0.02-0.21,0.02-0.31c0.05-0.1,0.11-0.19,0.18-0.28
		c0.12-0.21,0.25-0.41,0.44-0.56c2.23-0.72,4.46-0.52,6.68,0.05c1.12,0.29,2.16,0.81,3.28,1.11c0.63,0.17,0.71,0.54,0.55,1.08
		c-0.7,1.42-0.63,2.75,0.46,3.96c-0.17,0.25-0.54,0.4-0.37,0.81c0.01,0.11,0.01,0.22-0.01,0.33c-0.61,2.33,0.48,4.27,2.79,4.92
		c0.22,0.06,0.49,0.06,0.44,0.41c-2.68,2.39-5.99,2.74-9.35,2.9c-0.15-0.17-0.36-0.13-0.55-0.13c-1.48-0.04-2.2-1.04-1.79-2.5
		c0.15-0.54,0.45-1.01,0.65-1.52c0.29-0.74,0.58-1.48,0.3-2.29c-0.04-0.11-0.06-0.23-0.09-0.34c-0.04-0.22-0.09-0.44-0.14-0.66
		c0.1-0.71-0.43-1.14-0.77-1.66C471.79,284.11,471.73,284.1,471.65,284.11z"/>
	<path style="fill-rule:evenodd;clip-rule:evenodd;fill:#EFD1BD;" d="M471.86,284.14c0.72,0.31,1.38,0.65,0.94,1.63
		c-0.02,0.09-0.04,0.18-0.06,0.28c0.01,0.21,0.16,0.33,0.29,0.47c0.82,1.27,0,2.33-0.5,3.38c-0.44,0.92-0.58,1.7-0.03,2.66
		c0.46,0.81,1.33,0.09,1.74,0.7c-0.56,0-1.12,0-1.67,0c-0.16,0.12-0.09,0.36-0.26,0.47c-2.14-1.33-2.38-2.82-0.76-4.86
		c0.77-0.97,0.89-2.41-0.02-3.59C471.09,284.69,472.21,284.64,471.86,284.14z"/>
	<path style="fill-rule:evenodd;clip-rule:evenodd;fill:#ECC9B9;" d="M483.59,290.34c-2.83-0.35-4.56-3.18-3.35-5.51
		c0.35-0.3,0.84,0.08,1.19-0.25l0,0c0.42,0.36,0.01,0.74-0.01,1.1c-0.06,1.48,0.72,2.79,2.15,3.12c0.46,0.1,0.46,0.44,0.74,0.59
		C484.44,289.99,483.96,290.12,483.59,290.34z"/>
	<path style="fill-rule:evenodd;clip-rule:evenodd;fill:#B6705C;" d="M478.65,294.78c-0.03-0.01-0.24-0.01-0.42-0.1
		c-0.48-0.23-1.08-0.26-1.38-0.8c0.44-0.13,0.87-0.28,1.32-0.37c1.17-0.23,2.34-0.48,3.4-1.06c0.16-0.09,0.37-0.29,0.51-0.06
		c0.07,0.11-0.03,0.37-0.13,0.53C481.25,294.1,480.2,294.73,478.65,294.78z"/>
	<path style="fill-rule:evenodd;clip-rule:evenodd;fill:#E6BD9C;" d="M472.31,293.72c0.09-0.16,0.17-0.31,0.26-0.47
		c0,0.16,0,0.31,0,0.47C472.48,293.72,472.4,293.72,472.31,293.72z"/>
	<path style="fill-rule:evenodd;clip-rule:evenodd;fill:#E6BD9C;" d="M472.89,293.92c-0.11-0.07-0.21-0.14-0.32-0.21
		C472.67,293.78,472.78,293.85,472.89,293.92z"/>
	<path style="fill-rule:evenodd;clip-rule:evenodd;fill:#E6BD9C;" d="M473.04,294.2c0-0.07,0-0.14,0-0.21
		c0.08-0.03,0.16-0.02,0.23,0.02C473.2,294.07,473.12,294.13,473.04,294.2z"/>
	<path style="fill-rule:evenodd;clip-rule:evenodd;fill:#EFD1BD;" d="M468.27,276.92c0.96,0.29,1.09-0.97,2-1
		c2.44-0.08,4.84,0.13,7.17,0.84c0.88,0.27,1.73,0.53,2.64,0.6c0.33-0.29,0.68-0.52,1.13-0.22c0.13,0.33,0.38,0.49,0.72,0.5l0,0
		c0.01,0.1,0.03,0.2,0.04,0.31c-0.13,1.56-1.08-0.06-1.49,0.38c-0.81,0.48-1.56,0.07-2.29-0.21c-2.24-0.86-4.57-1.11-6.94-1.09
		c-0.67,0-1.39,0.01-1.71,0.81c-0.68,0.27-0.75,1.08-1.29,1.48c-1.17,0.46-0.71-0.42-0.75-0.9c-0.25-0.32-0.32-0.68-0.23-1.08
		C467.44,276.83,467.8,276.74,468.27,276.92z"/>
	<path style="fill-rule:evenodd;clip-rule:evenodd;fill:#EFD1BD;" d="M469.42,277.92c0.1-0.22-0.87-0.15-0.06-0.69
		c1.41-0.94,2.85-0.53,4.26-0.45c1.94,0.12,3.83,0.59,5.64,1.34c0.37,0.15,0.81,0.14,1.22,0.2c-0.18,0.52,0.27,1.1-0.18,1.59
		c-0.1-0.22,0.08-0.54-0.31-0.68c-2.92-0.98-5.83-1.99-8.99-1.61c-0.48,0.06-0.94,0.08-1.29,0.47c-0.05,0.1-0.13,0.13-0.24,0.08
		c-0.05-0.05-0.08-0.11-0.07-0.17C469.39,277.95,469.41,277.92,469.42,277.92z"/>
	<path style="fill-rule:evenodd;clip-rule:evenodd;fill:#F8F8F8;" d="M480.63,281.52c0.22-0.95,0.49-1.97,1.71-1.92
		c0.98,0.04,1.7,0.68,1.7,1.73c0,0.53,0.02,1.55-1.09,0.74c-0.36-0.26-0.8-0.29-1.13,0.21c-0.17,0.26,0.16,0.87-0.45,0.77
		c-0.5-0.09-0.61-0.56-0.64-1.03C480.71,281.85,480.66,281.69,480.63,281.52z"/>
	<path style="fill-rule:evenodd;clip-rule:evenodd;fill:#EDCAA6;" d="M482.66,278.35c0.34-0.18,0.59-0.12,0.72,0.26
		C483.03,278.84,482.68,279.03,482.66,278.35z"/>
	<path style="fill-rule:evenodd;clip-rule:evenodd;fill:#E4B1A5;" d="M481.43,284.59c-0.32,0.43-0.79,0.18-1.19,0.25
		c-0.01-0.08-0.02-0.16-0.03-0.24c-0.05-0.24,0.03-0.33,0.26-0.21C480.75,284.7,481.11,284.55,481.43,284.59z"/>
	<path style="fill-rule:evenodd;clip-rule:evenodd;fill:#ECC9B9;" d="M480.48,284.39c-0.09,0.07-0.18,0.14-0.26,0.21
		c-0.36-0.63,0.32-0.5,0.53-0.72C480.66,284.05,480.57,284.22,480.48,284.39z"/>
	<path style="fill-rule:evenodd;clip-rule:evenodd;fill:#DF9F97;" d="M485.78,285.95c-0.03,1.13-0.45,1.73-1.42,1.76
		c-1.13,0.03-1.67-0.65-1.71-1.7c-0.04-1.06,0.78-1.54,1.62-1.53C485.17,284.5,485.75,285.16,485.78,285.95z"/>
	<path style="fill-rule:evenodd;clip-rule:evenodd;fill:#281F17;" d="M481.2,277.14c-0.37,0.08-0.7,0.39-1.13,0.22
		c0.06-0.21,0.13-0.42,0.19-0.63c0.78-0.17,1.56-1.26,2.35-0.02C482.34,277.49,481.54,276.57,481.2,277.14z"/>
	<path style="fill-rule:evenodd;clip-rule:evenodd;fill:#E6BF9D;" d="M481.92,277.64c0-0.08,0-0.16,0-0.24v0
		c0.1,0.04,0.21,0.08,0.31,0.12C482.13,277.56,482.02,277.6,481.92,277.64L481.92,277.64z"/>
	<path style="fill-rule:evenodd;clip-rule:evenodd;fill:#E6BF9D;" d="M481.92,277.4c-0.03-0.02-0.07-0.03-0.1-0.05
		C481.85,277.37,481.89,277.38,481.92,277.4L481.92,277.4z"/>
	<path style="fill-rule:evenodd;clip-rule:evenodd;fill:#251D15;" d="M468.27,276.92c-0.34,0.14-0.67,0.28-1.01,0.42
		c-0.19-0.03-0.45,0-0.54-0.11c-0.21-0.25,0.04-0.42,0.23-0.56c0.6-0.45,1.26-0.68,2.02-0.5
		C469.21,276.87,468.48,276.66,468.27,276.92z"/>
	<path style="fill-rule:evenodd;clip-rule:evenodd;fill:#F9F8F9;" d="M469.24,279.82c1.66,0.04,2.51,0.81,2.31,2.07
		c-0.07,0.43-0.29,0.8-0.66,0.94c-0.52,0.21-0.32-0.39-0.51-0.59c-0.31-0.31-0.54-0.36-0.91-0.07c-0.29,0.22,0.04,1.2-0.82,0.7
		c-0.78-0.45-1.06-1.13-0.9-2.02c0.12-0.63,0.5-0.97,1.13-1.04C469,279.8,469.12,279.82,469.24,279.82z"/>
	<path style="fill-rule:evenodd;clip-rule:evenodd;fill:#1F1912;" d="M469.42,277.92c0,0.08,0.03,0.14,0.09,0.19
		c0.04,0.18,0.1,0.37-0.15,0.44c-0.06-0.01-0.11,0.02-0.15,0.07c-0.06,0.05-0.09,0.09-0.07,0.15c0.02,0.05,0.03,0.08,0.05,0.08l0,0
		c0.08,0.03,0.11,0.07,0.1,0.12c-0.01,0.06-0.03,0.09-0.05,0.09c-0.33,0.09-0.67,0.17-1,0.26
		C468.77,278.97,467.92,277.45,469.42,277.92z"/>
	<path style="fill-rule:evenodd;clip-rule:evenodd;fill:#ECCEB4;" d="M470.19,278.67c0.12-0.76,0.45-0.74,0.91-0.24
		C470.72,278.21,470.43,278.35,470.19,278.67z"/>
	<path style="fill-rule:evenodd;clip-rule:evenodd;fill:#CBBAAB;" d="M469.23,279.06c-0.04-0.06-0.06-0.13-0.05-0.21
		c0.27,0.01,0.53,0.02,0.8,0.02C469.74,278.94,469.49,279,469.23,279.06z"/>
	<path style="fill-rule:evenodd;clip-rule:evenodd;fill:#28231D;" d="M473.3,286c-0.04-0.79,0.28-1.36,1.12-1.36
		c0.84,0,1.53,0.39,1.89,1.21c0.18,0.43-0.01,0.67-0.44,0.78c-0.53,0.13-0.32-0.18-0.34-0.46c-0.04-0.61-0.58-0.81-1.02-0.75
		c-0.64,0.08-0.38,0.54-0.18,0.9c0.14,0.25,0.11,0.51-0.14,0.6c-0.37,0.14-0.57-0.15-0.74-0.43C473.4,286.34,473.4,286.16,473.3,286
		z"/>
	<path style="fill-rule:evenodd;clip-rule:evenodd;fill:#EAC4B1;" d="M473.03,286.51c-0.51,0-0.95-0.06-0.48-0.71
		c0.15,0.15,0.3,0.3,0.46,0.45C473.01,286.33,473.02,286.42,473.03,286.51z"/>
	<path style="fill-rule:evenodd;clip-rule:evenodd;fill:#EFD1BD;" d="M473.3,286c0.05,0.17,0.1,0.33,0.15,0.5
		C473.4,286.34,473.35,286.17,473.3,286z"/>
	<path style="fill-rule:evenodd;clip-rule:evenodd;fill:#CBBAAB;" d="M469.35,278.56c0.05-0.15,0.1-0.3,0.15-0.44
		c0.06-0.01,0.12-0.01,0.18-0.01C469.69,278.33,469.63,278.53,469.35,278.56z"/>
	<path style="fill-rule:evenodd;clip-rule:evenodd;fill:#CBBAAB;" d="M469.19,278.85c-0.05-0.04-0.11-0.08-0.16-0.13
		c0.06-0.03,0.12-0.07,0.18-0.1C469.21,278.7,469.21,278.78,469.19,278.85z"/>
</g>
</svg>
