<?xml version="1.0" encoding="utf-8"?>
<!-- Generator: Adobe Illustrator 16.0.0, SVG Export Plug-In . SVG Version: 6.00 Build 0)  -->
<!DOCTYPE svg PUBLIC "-//W3C//DTD SVG 1.0//EN" "http://www.w3.org/TR/2001/REC-SVG-20010904/DTD/svg10.dtd" [
	<!ENTITY ns_flows "http://ns.adobe.com/Flows/1.0/">
	<!ENTITY ns_extend "http://ns.adobe.com/Extensibility/1.0/">
	<!ENTITY ns_ai "http://ns.adobe.com/AdobeIllustrator/10.0/">
	<!ENTITY ns_graphs "http://ns.adobe.com/Graphs/1.0/">
]>
<svg version="1.0" id="Layer_1" xmlns:x="&ns_extend;" xmlns:i="&ns_ai;" xmlns:graph="&ns_graphs;"
	 xmlns="http://www.w3.org/2000/svg" xmlns:xlink="http://www.w3.org/1999/xlink" xmlns:a="http://ns.adobe.com/AdobeSVGViewerExtensions/3.0/"
	 x="0px" y="0px" width="960px" height="560px" viewBox="0 0 960 560" style="enable-background:new 0 0 960 560;"
	 xml:space="preserve">
<g>
	<path style="fill-rule:evenodd;clip-rule:evenodd;fill:#3E3536;" d="M461.97,301.32c-3-0.69-6.02-1.24-8.96-2.16
		c0.13-0.28,0.37-0.42,0.65-0.52c0.81-0.11,0.98-0.65,0.98-1.37c0-2.55-0.06-5.1-0.28-7.65c-0.35-4.14-0.26-8.28-0.02-12.42
		c0.12-1.95-0.03-3.91,0.06-5.86c0.22-4.82,0.49-9.63,0.85-14.44c0.05-0.61,0.03-1.11-0.53-1.44c-0.13-0.09-0.24-0.21-0.35-0.33
		c-0.09,0-0.18,0.02-0.27,0.06c-0.09,0.06-0.17,0.1-0.27,0.14c-0.1,0.04-0.2,0.06-0.31,0.07c-0.25-0.05-0.59-0.02-0.46-0.45l0,0
		c0.17-0.09,0.11-0.33,0.28-0.43l0.02-0.03c0.05-0.09,0.11-0.16,0.2-0.2c0.75-1.36,1.85-2.28,3.35-2.71
		c0.49,0.04,0.86-0.36,1.34-0.36c0.13,0.02,0.26,0.03,0.39,0.04c6.58,0.79,13.19,1.36,19.73,2.39c4.04,0.63,8.11,0.7,12.15,1.2
		c2.34,0.29,4.64,0.81,6.91,1.46c1.27,0.37,1.46,0.69,1.37,1.98c-0.34,5.1-0.69,10.19-0.76,15.31c-0.04,2.95-0.25,5.9,0.04,8.85
		c0.07,0.71,0.05,1.44-0.09,2.15c-0.26,0.45-0.01,1.2-0.79,1.34c-0.46-0.53-0.32-1.15-0.26-1.76c0.18-0.82,0.4-1.64-0.03-2.46
		c-0.21-0.15-0.42-0.29-0.46-0.57c0.1-0.59,0.19-1.18,0.19-1.78c0.03-5.27,0.04-10.53,0.64-15.78c0.19-1.66,0.03-3.35,0.19-5.02
		c0.07-0.75-0.36-1.21-1.07-1.38c-2.49-0.6-4.97-1.3-7.53-1.36c-4.95-0.11-9.8-1.03-14.69-1.56c-3.24-0.35-6.46-0.88-9.72-1.14
		c-2.02-0.16-4.03-0.57-6.05-0.6c-0.23,0.13-0.44-0.39-0.69-0.03c-0.09,0.29-0.34,0.45-0.54,0.65c-0.12,0.15-0.17,0.35-0.32,0.49
		c-0.22,0.15-0.46,0.23-0.73,0.25c-0.27-0.05-0.49-0.18-0.68-0.38c-0.03-0.79,0.75-0.77,1.14-1.13c0.05-0.11,0.21-0.04,0.27-0.14
		c-0.15,0.02-0.25,0.14-0.38,0.21c-0.49,0.27-1.01,0.49-1.35,0.96c-0.06,0.08-0.24,0.13-0.11,0.29c0.1-0.13,0.23-0.21,0.4-0.22
		c0.18,0.27,0.56,0.35,0.62,0.72c-0.18,0.57,0.46,0.79,0.53,1.26c0.04,0.42,0.3,0.81,0.1,1.25c-0.61,1.49-0.54,3.05-0.57,4.61
		c-0.05,3.5-0.55,6.98-0.52,10.49c0.03,2.43-0.15,4.88-0.11,7.29c0.08,4.18-0.38,8.36,0.26,12.54c0.36,2.36-0.02,4.78,0.22,7.15
		c0.2,0.13,0.15-0.05,0.16-0.15c-0.06-0.72-0.07-1.44-0.02-2.16c0.07-0.33,0.11-0.67,0.53-0.74c0.31,0.22,0.34,0.55,0.37,0.88
		c0,0.43-0.02,0.86,0.12,1.28c0.08,0.34,0.09,0.69,0.13,1.03c0.03,0.22,0.11,0.41,0.31,0.53c1.14,0.5,2.37,0.66,3.56,0.93
		c0.53,0.12,1.11,0.13,1.53,0.57c0.11,0.2,0.05,0.35-0.15,0.44C462.33,301.4,462.14,301.41,461.97,301.32z"/>
	<path style="fill-rule:evenodd;clip-rule:evenodd;fill:#3C3839;" d="M494.17,302.99c0.36,1.86-1.01,1.34-1.95,1.42
		c-0.22,0.29-0.46,0.39-0.75,0.08c-0.31-0.36-0.34-0.8-0.33-1.24c0.09-5.05-0.44-10.08-0.26-15.13c0.01-0.36-0.02-0.72,0.12-1.06
		c0.18-0.38,0.45-0.61,0.9-0.5c0.12,0.1,0.19,0.22,0.21,0.37c-0.11,5.06,0.15,10.12,0.39,15.18c0.01,0.24,0.01,0.48,0.09,0.71
		c0.05,0.15,0.1,0.33,0.27,0.36c0.29,0.04,0.31-0.21,0.33-0.39c0.12-0.96,0.08-1.91-0.05-2.86c-0.5-3.64-0.46-7.32-0.6-10.98
		c-0.02-0.51-0.04-1.04,0.29-1.5c0.33-0.25,0.54-0.02,0.75,0.19c0.32,0.48,0.42,1.04,0.42,1.6c0.01,3.87-0.03,7.74,0.49,11.59
		c0.05,0.39,0.01,0.8-0.04,1.19C494.43,302.36,494.24,302.65,494.17,302.99z"/>
	<path style="fill-rule:evenodd;clip-rule:evenodd;fill:#4E4041;" d="M462.38,301.31c0.1-0.08,0.2-0.16,0.29-0.24
		c0.41-0.44,0.9-0.23,1.34-0.12c5.99,1.53,12.01,2.99,18,4.52c0.53,0.14,1.12,0.17,1.54,0.6c0.13,0.26-0.04,0.36-0.24,0.45
		c-5.29-1.31-10.58-2.63-15.89-3.91c-1.65-0.4-3.26-1-4.97-1.12C462.37,301.47,462.34,301.41,462.38,301.31z"/>
	<path style="fill-rule:evenodd;clip-rule:evenodd;fill:#3E3536;" d="M457.84,251.1c2.05-0.98,4.17-0.24,6.22-0.13
		c4,0.22,7.98,0.71,11.97,1.11c0.43,0.04,0.85,0.18,1.28,0.28c0.06,0.16,0.01,0.28-0.13,0.37c-0.54,0.27-1.09,0.15-1.64,0.06
		c-3.98-0.61-8-0.76-12.01-1.04c-1.78-0.13-3.56-0.23-5.35-0.33l-0.08-0.06C458.01,251.28,457.87,251.25,457.84,251.1z"/>
	<path style="fill-rule:evenodd;clip-rule:evenodd;fill:#4B3E3F;" d="M491.77,305.87c-0.91,0.13-0.69,0.98-0.97,1.51
		c-0.4-0.29-0.39-0.77-0.56-1.17c-0.22-2.65-0.05-5.32-0.32-7.98c-0.1-0.98-0.31-1.97-0.18-2.96c0.21-0.72,0.26-1.46,0.17-2.22
		c-0.07-0.19-0.11-0.39-0.15-0.6c-0.06-1.04-0.26-2.08,0.16-3.09c0.55,0.01,0.55,0.01,0.84,1.02c0.09,0.39,0.1,0.79,0.03,1.19
		c-0.09,0.39-0.03,0.77,0.06,1.16c0.2,4.14,0.36,8.29,0.57,12.42C491.5,305.41,491.71,305.6,491.77,305.87z"/>
	<path style="fill-rule:evenodd;clip-rule:evenodd;fill:#513D3D;" d="M499.67,268.26c-0.08,4.13-0.16,8.26-0.24,12.39
		c-0.01,0.8-0.02,1.59-0.03,2.39c-0.09,0.17-0.08,0.38-0.24,0.53c-0.14,0.04-0.27,0-0.37-0.11c-0.08-0.12-0.14-0.24-0.18-0.38
		c-0.17-1.63-0.19-3.27-0.04-4.89c0.23-2.59,0.15-5.17,0.2-7.75c0.02-1.03-0.02-2.08,0.59-3
		C500.06,267.5,499.68,267.95,499.67,268.26z"/>
	<path style="fill-rule:evenodd;clip-rule:evenodd;fill:#413B34;" d="M503,286.64c0.76-1.08,1.82-1.69,3.12-1.62
		c0.79,0.04,1.74,0.39,1.9,1.29c0.23,1.32-0.63,2.21-1.64,2.93c-0.06,0.04-0.15,0.05-0.23,0.06c-1.59,0.31-2.83,0.82-1.67,2.78
		c0.09,0.25,0.15,0.48-0.17,0.61c-0.81-0.59-0.93-1.52-1.2-2.38c0.01-0.31,0.1-0.59,0.29-0.83c0.61-0.38,1.35-0.4,1.99-0.72
		c0.43-0.21,0.86-0.41,1.18-0.77c0.37-0.43,0.69-0.9,0.5-1.5c-0.15-0.47-0.57-0.65-1.02-0.68c-0.66-0.04-1.26,0.14-1.68,0.68
		c-0.09,0.12,0.08,0.29,0.15,0.42c0,0.12-0.04,0.23-0.12,0.31c-0.35,0.21-0.71,0.2-1.07,0.05
		C503.07,287.14,502.99,286.91,503,286.64z"/>
	<path style="fill-rule:evenodd;clip-rule:evenodd;fill:#4B4139;" d="M501.83,294.32c-0.09-0.39-0.21-0.77-0.26-1.16
		c-0.07-0.56,0.08-1.49-0.44-1.52c-0.46-0.03-0.81,0.9-0.92,1.51c-0.36,2.11-0.29,4.25-0.14,6.38c0.09,1.22,0.19,2.44,0.19,3.67
		c0,0.68-0.45,0.6-0.88,0.3c0.01-0.04,0.03-0.08,0.04-0.13c0.2-0.11,0.15-0.24,0.03-0.39c-0.05-0.63-0.02-1.24,0.04-1.87
		c0.12-0.57,0.06-1.13-0.16-1.67c0.03-2.05-0.46-4.09,0.04-6.13c0.32-0.87,0.5-1.81,1.3-2.43c0.44,0.09,0.91-0.53,1.33,0.05
		c0.23,1.01,0.52,2.02,0.27,3.07C502.18,294.18,502.08,294.35,501.83,294.32z"/>
	<path style="fill-rule:evenodd;clip-rule:evenodd;fill:#463737;" d="M500.4,259.13l-0.01,0.08c0.12,0.29,0.11,0.59,0.01,0.89
		c0.03,0.06,0.02,0.11-0.04,0.15c-0.38,0.03-0.43-0.26-0.52-0.51c-0.08-0.73-0.14-1.47,0.09-2.19c0.19-0.17,0.24-0.34-0.04-0.49
		c-0.64-0.91-1.64-1.04-2.63-1.24c-3.17-0.65-6.35-1.19-9.55-1.65c-0.35-0.05-0.72-0.09-1.01-0.33c-0.1-0.12-0.1-0.24-0.01-0.36
		c4.05,0.1,7.97,1.1,11.93,1.82c1.56,0.28,2.42,1.07,1.95,2.78C500.4,258.42,500.55,258.8,500.4,259.13z"/>
	<path style="fill-rule:evenodd;clip-rule:evenodd;fill:#5B4146;" d="M451.85,281.72c0.07-1.34,0.19-2.68,0.18-4.02
		c0-2.22-0.09-4.45-0.14-6.67c0.29-0.12-0.22-0.89,0.52-0.66c0.22,0.25,0.31,0.57,0.31,0.89c-0.03,1.76,0.3,3.51,0.24,5.26
		c-0.1,3.03-0.46,6.05-0.48,9.08c0,0.42-0.01,0.91-0.57,1.07c-0.32-0.65-0.08-1.33-0.16-2C451.81,283.69,451.66,282.7,451.85,281.72
		z"/>
	<path style="fill-rule:evenodd;clip-rule:evenodd;fill:#51483F;" d="M501.83,294.32c0.08-0.09,0.16-0.19,0.24-0.29
		c0.84,0.3,0.68,1.17,1.02,1.76c0.3,0.53,0.38,1.51,1.1,1.32c0.67-0.17,0.37-1.1,0.38-1.71c0.01-0.93-0.72-1.79-0.29-2.76
		c0.07-0.18,0.14-0.37,0.21-0.55c0.63,1.43,0.99,2.91,0.93,4.49c-0.03,0.8-0.29,1.63-1.03,1.83c-0.74,0.2-1.11-0.65-1.43-1.22
		C502.43,296.29,502.01,295.35,501.83,294.32z"/>
	<path style="fill-rule:evenodd;clip-rule:evenodd;fill:#302D26;" d="M503,286.64c0.08,0.15,0.17,0.3,0.25,0.45
		c0.08,0.29,0.45,0.06,0.55,0.31c0.18,0.26,0.44,0.23,0.68,0.17c0.15-0.04,0.14-0.21,0.03-0.09c-0.11,0.12-0.05-0.22-0.09-0.07
		c-0.05-0.08-0.05-0.16,0-0.24c0.01-0.08,0.01-0.15,0.01-0.23c0.41-0.68,0.96-0.59,1.52-0.25c0.75,0.46,0.74,1.18-0.07,1.53
		c-0.82,0.36-1.66,0.81-2.62,0.51c-0.4-0.13-0.59,0.05-0.73,0.37c-0.31,0.23-0.64,0.25-1,0.14c-0.1-0.05-0.19-0.12-0.26-0.2
		c-0.05-0.1-0.05-0.2-0.03-0.31c0.02-0.04,0.04-0.09,0.06-0.14c0.05-0.08,0.11-0.16,0.17-0.23c0.08-0.1,0.16-0.2,0.18-0.33
		c0-0.08,0-0.17-0.01-0.25c0-0.09,0.04-0.16,0.12-0.21l-0.01,0.01c0.09-0.06,0.19-0.12,0.28-0.18
		C502.37,287.15,502.68,286.89,503,286.64z"/>
	<path style="fill-rule:evenodd;clip-rule:evenodd;fill:#534044;" d="M451.87,284.72c0.02,0.66,0.03,1.32,0.05,1.97
		c0.25,0.24,0.3,0.55,0.33,0.87c0.17,2.57,0.5,5.13,0.72,7.7c0.04,0.52,0.03,1.03-0.07,1.54c-0.15,0.4-0.17,0.86-0.55,1.15
		c-0.48-2.04-0.3-4.14-0.48-6.2c-0.21-0.4,0.02-0.86-0.18-1.26c-0.02-0.3-0.04-0.61-0.06-0.92c-0.17-1-0.14-2.01-0.01-3.01
		c0.02-0.61,0.04-1.22,0.06-1.83C451.73,284.6,451.8,284.61,451.87,284.72z"/>
	<path style="fill-rule:evenodd;clip-rule:evenodd;fill:#583F45;" d="M453.06,254.94c0.18,0.28,0.47,0.25,0.74,0.26
		c-0.91,1.73-1.16,3.58-1.1,5.51c0.02,0.68-0.16,1.34-0.3,2c-0.15,0.42-0.17,0.88-0.39,1.28c-0.09,0.12-0.2,0.15-0.33,0.09
		c0.07-2.69,0.12-5.38,0.79-8.01C452.58,255.66,452.69,255.23,453.06,254.94z"/>
	<path style="fill-rule:evenodd;clip-rule:evenodd;fill:#312B27;" d="M494.17,302.99c-0.26-0.15-0.31-0.32-0.04-0.51
		c0.05-0.01,0.1-0.02,0.15-0.03c0.1-0.02,0.2-0.03,0.31-0.03c0.38,0,0.77,0.04,1.13-0.11c0.11-0.08,0.19-0.18,0.23-0.32
		c0.04-0.19,0.03-0.38,0.03-0.58c-0.01-0.22-0.01-0.43-0.02-0.64c-0.01-0.17-0.01-0.35-0.01-0.52c0.01-0.25,0-0.49,0.02-0.73
		c0.03-0.26,0.09-0.5,0.31-0.68c0.54,0.05,0.49,0.49,0.56,0.85c0.02,0.18,0.02,0.36,0.01,0.54c-0.01,0.32-0.03,0.65-0.03,0.97
		c0.01,0.09,0.01,0.19,0.01,0.29c0.02,0.13,0.05,0.26,0.13,0.37c0.11,0.13,0.25,0.24,0.35,0.38c0.03,0.08,0.06,0.16,0.1,0.25
		c0.64,0.39,1.52-0.13,2.07,0.58c0.03,0.11,0.01,0.22-0.06,0.31c-0.03,0.04-0.04,0.07-0.04,0.12
		C497.64,303.32,495.91,303.15,494.17,302.99z"/>
	<path style="fill-rule:evenodd;clip-rule:evenodd;fill:#493E40;" d="M490.56,306.32c0.3,0.31,0.17,0.71,0.24,1.07
		c-0.24,0.45-0.64,0.41-1.04,0.33c-2.14-0.39-4.29-0.79-6.43-1.19c0.1-0.08,0.21-0.17,0.31-0.25c0.5-0.42,1.06-0.25,1.59-0.14
		c1.09,0.2,2.19,0.38,3.29,0.56C489.26,306.82,489.93,306.74,490.56,306.32z"/>
	<path style="fill-rule:evenodd;clip-rule:evenodd;fill:#4B3939;" d="M486.68,253.48c0,0.08,0,0.15,0,0.23
		c-0.29,0.38-0.7,0.34-1.09,0.28c-2.25-0.34-4.53-0.42-6.77-0.79c-0.55-0.09-1.12-0.13-1.5-0.63c0-0.07,0-0.14,0-0.21
		C480.46,252.55,483.58,252.95,486.68,253.48z"/>
	<path style="fill-rule:evenodd;clip-rule:evenodd;fill:#5B4242;" d="M500.11,259.75c0.08,0.16,0.16,0.32,0.24,0.49
		c-0.16,2.68-0.21,5.37-0.68,8.02c-0.07-0.27-0.15-0.55-0.22-0.82c-0.38-0.45-0.19-0.98-0.18-1.48c0.03-1.7,0.18-3.39,0.27-5.08
		C499.56,260.44,499.45,259.89,500.11,259.75z"/>
	<path style="fill-rule:evenodd;clip-rule:evenodd;fill:#53423A;" d="M501.78,287.57c0.01,0.08,0.01,0.16,0,0.24
		c0.03,0.25-0.1,0.47-0.15,0.71c-0.03,0.03-0.07,0.05-0.11,0.06c-0.42,0.01-0.53-0.33-0.59-0.62c-0.27-1.35-0.89-2.57-1.39-3.84
		c0.02-0.13,0.08-0.23,0.18-0.31c0.06-0.02,0.12-0.04,0.17-0.06C500.94,284.82,501.21,286.27,501.78,287.57z"/>
	<path style="fill-rule:evenodd;clip-rule:evenodd;fill:#513F44;" d="M451.69,264.08c0.06,0,0.13,0,0.19,0
		c0.47,0.45,0.31,1.04,0.34,1.58c0.03,0.75-0.07,1.52,0.18,2.25c0.07,0.81,0.31,1.64-0.26,2.37c-0.08,0.25-0.16,0.5-0.24,0.75
		C451.56,268.73,451.61,266.4,451.69,264.08z"/>
	<path style="fill-rule:evenodd;clip-rule:evenodd;fill:#332927;" d="M452.34,297.95c0.08-0.33-0.09-0.72,0.24-0.98
		c0.85,0.38,0.84,1.2,0.98,1.94c-0.19,0.09-0.37,0.17-0.56,0.26C452.44,298.94,452.48,298.4,452.34,297.95z"/>
	<path style="fill-rule:evenodd;clip-rule:evenodd;fill:#554D51;" d="M451.61,286.56c0,1,0.01,2.01,0.01,3.01
		C451.35,288.57,451.28,287.56,451.61,286.56z"/>
	<path style="fill-rule:evenodd;clip-rule:evenodd;fill:#554D51;" d="M451.87,284.72c-0.06,0-0.13,0-0.19,0.01
		c0.01-1-0.22-2.02,0.18-3C451.86,282.72,451.86,283.72,451.87,284.72z"/>
	<path style="fill-rule:evenodd;clip-rule:evenodd;fill:#4E4544;" d="M491.77,304.63c0.15-0.08,0.3-0.15,0.46-0.23
		c-0.24,0.44,0.48,1.07-0.28,1.4c-0.17-0.08-0.33-0.17-0.4-0.35C491.46,305.14,491.45,304.84,491.77,304.63z"/>
	<path style="fill-rule:evenodd;clip-rule:evenodd;fill:#2A2720;" d="M457.84,251.1c0.09,0.08,0.18,0.17,0.27,0.25
		c-0.4,0.07-0.7,0.74-1.2,0.22C457.22,251.42,457.53,251.26,457.84,251.1z"/>
	<path style="fill-rule:evenodd;clip-rule:evenodd;fill:#554D51;" d="M451.68,290.48c0.33,0.38,0.18,0.83,0.18,1.26
		C451.61,291.35,451.62,290.92,451.68,290.48z"/>
	<path style="fill-rule:evenodd;clip-rule:evenodd;fill:#16150C;" d="M499.16,283.52c-0.01-0.21,0.01-0.4,0.25-0.48
		c0.09,0.15,0.18,0.29,0.27,0.44c0.06,0.1,0.06,0.21,0,0.31C499.4,283.9,499.25,283.75,499.16,283.52z"/>
	<path style="fill-rule:evenodd;clip-rule:evenodd;fill:#5B4242;" d="M500.4,259.13c-0.04-0.36-0.14-0.73,0.16-1.04
		C500.58,258.45,500.65,258.81,500.4,259.13z"/>
	<path style="fill-rule:evenodd;clip-rule:evenodd;fill:#5B4242;" d="M500.4,260.09c0-0.29,0-0.59-0.01-0.89
		C500.55,259.5,500.61,259.8,500.4,260.09z"/>
	<path style="fill-rule:evenodd;clip-rule:evenodd;fill:#100F03;" d="M491.64,305.54c0.1,0.09,0.2,0.17,0.3,0.26
		c-0.05,0.05-0.11,0.07-0.17,0.07c-0.17-0.09-0.35-0.17-0.52-0.26C491.36,305.48,491.49,305.46,491.64,305.54z"/>
	<path style="fill-rule:evenodd;clip-rule:evenodd;fill:#583F45;" d="M453.34,254.52c-0.09,0.14-0.19,0.28-0.28,0.43
		C453.15,254.8,453.24,254.66,453.34,254.52z"/>
	<path style="fill-rule:evenodd;clip-rule:evenodd;fill:#F1DAE5;" d="M462.38,301.31c0.02,0.06,0.05,0.13,0.08,0.19
		c-0.17-0.06-0.33-0.12-0.5-0.18C462.1,301.32,462.24,301.32,462.38,301.31z"/>
	<path style="fill-rule:evenodd;clip-rule:evenodd;fill:#583F45;" d="M453.56,254.29c-0.07,0.07-0.13,0.14-0.2,0.2
		C453.42,254.42,453.49,254.35,453.56,254.29z"/>
	<path style="fill-rule:evenodd;clip-rule:evenodd;fill:#53423A;" d="M499.62,283.75c0.02-0.09,0.03-0.19,0.05-0.28
		c0.07,0.09,0.15,0.18,0.22,0.27c-0.03,0.02-0.06,0.05-0.1,0.07l-0.11,0.04L499.62,283.75z"/>
	<path style="fill-rule:evenodd;clip-rule:evenodd;fill:#53423A;" d="M502.05,287.4c-0.09,0.06-0.19,0.12-0.28,0.18
		C501.86,287.52,501.96,287.46,502.05,287.4z"/>
	<path style="fill-rule:evenodd;clip-rule:evenodd;fill:#F1DAE5;" d="M490.56,306.32c-0.13,0.86-0.56,1-1.4,0.84
		c-1.83-0.37-3.68-0.6-5.52-0.88c-6.99-1.73-13.97-3.47-20.96-5.2c-1.8-0.68-3.82-0.52-5.55-1.48c-0.1-0.17-0.09-0.37-0.18-0.54
		c-0.02-0.38-0.03-0.76-0.05-1.14c-0.21-0.42,0.01-0.89-0.19-1.31c-0.01-0.28-0.03-0.56-0.04-0.84c-0.42-0.42-0.34-0.97-0.32-1.47
		c0.08-2.91,0.16-5.83,0.12-8.72c-0.04-3.25-0.01-6.53-0.28-9.79c-0.22-2.65-0.13-5.33,0.06-8.01c0.18-2.5,0.26-5.01,0.44-7.52
		c0.1-1.37,0.01-2.83,1.19-3.88c0.18-0.13,0.39-0.18,0.62-0.19c2.73,0.41,5.42,1.1,8.15,1.57c3.98,1.06,8.08,1.4,12.1,2.18
		c3.05,0.59,6.17,0.75,9.16,1.66c0.53,0.35,1.19,0.14,1.75,0.4c1.11,0.77,0.98,2.05,0.88,3.05c-0.18,1.77,0.22,3.49,0.08,5.24
		c0,0.55,0,1.09,0,1.64c0,0.21,0,0.41,0,0.62c0,0.35,0,0.7,0,1.05c0.15,2.77-0.37,5.53-0.25,8.3c0.02,0.45-0.16,0.85-0.26,1.27
		c-0.22,0.59-0.62,0.58-1.09,0.31c-0.1-0.06-0.2-0.13-0.29-0.2c-0.09-0.06-0.18-0.14-0.27-0.2c-0.26-0.19-0.5-0.4-0.75-0.61
		c-0.09-0.06-0.17-0.12-0.25-0.19c-0.05-0.03-0.09-0.06-0.14-0.08c-0.4-0.24-0.73-0.17-1.05,0.16c-0.66,0.68-0.84,1.95-0.41,2.91
		c0.07,0.07,0.14,0.14,0.22,0.21c0.08,0.06,0.15,0.12,0.23,0.17c0.08,0.04,0.16,0.08,0.25,0.12c0.24,0.1,0.45,0.01,0.67-0.1
		c0.39-0.2,0.67-0.58,1.14-0.66c0.94,0.07,1.62,0.48,1.96,1.39c-0.02,0.98,0.31,1.98-0.26,2.9c0.01,1.12,0.01,2.24,0.02,3.36
		c0.05,0.13,0.08,0.25,0.07,0.39c-0.04,0.66,0.1,1.33-0.08,1.99C490.22,298.79,490.68,302.54,490.56,306.32z"/>
	<path style="fill-rule:evenodd;clip-rule:evenodd;fill:#CC5485;" d="M453.56,298.9c-0.72-0.45-0.47-1.38-0.98-1.94
		c-0.22-3.42-0.44-6.85-0.66-10.27c0.45-1.6,0.13-3.24,0.3-4.86c0.41-3.84,0.46-7.69-0.08-11.54c-0.01-0.79-0.03-1.57-0.04-2.36
		c-0.17-1.68-0.16-3.37,0-5.05c0.41-2.1,0.11-4.27,0.71-6.36c0.18-0.62,0.44-1.05,1-1.31c0,0,0,0,0,0c0.08-0.08,0.15-0.16,0.22-0.25
		l0.01-0.01c0.07-0.05,0.15-0.07,0.24-0.07c1.26,0.34,1.89,0.8,1.31,2.37c-0.45,1.22-0.29,2.68-0.31,4.03
		c-0.1,4.98-0.57,9.95-0.58,14.94c-0.01,3.86-0.2,7.73-0.09,11.58c0.1,3.22,0.39,6.44,0.39,9.67
		C455,298.56,454.99,299.38,453.56,298.9z"/>
	<path style="fill-rule:evenodd;clip-rule:evenodd;fill:#C12C44;" d="M500.11,259.75c-0.47,1.75-0.19,3.57-0.47,5.34
		c-0.12,0.77-0.13,1.56-0.2,2.35c-0.41,5.35-0.5,10.71-0.48,16.08c0.11,0.16,0.26,0.3,0.32,0.5c0.02,0.1,0.03,0.2,0.04,0.31
		c0,0.28,0.09,0.54,0.15,0.81c0.02,0.13,0.04,0.24,0.05,0.36c0.07,0.48,0.55,1,0.01,1.42c-0.34,0.27-0.75-0.01-1.12-0.15
		c-0.6-0.22-0.93-0.58-0.82-1.25c0.04-0.27-0.08-0.56,0.12-0.8c-0.39-5.26-0.12-10.52,0.03-15.78c0.11-3.76,0.43-7.52,0.73-11.27
		c0.04-0.54-0.05-0.69-0.51-0.82c-3.09-0.89-6.23-1.71-9.44-1.85c-4.18-0.18-8.31-0.74-12.44-1.33c-3.97-0.57-7.97-0.89-11.96-1.37
		c-1.99-0.24-3.96-0.59-5.94-0.88c4.7-0.32,9.37,0.17,14.04,0.62c1.7,0.16,3.39,0.36,5.09,0.53c3.12,0.38,6.24,0.76,9.36,1.15
		c3.95,0.41,7.84,1.19,11.73,1.99c0.78,0.16,1.73,0.28,1.76,1.43c0.04,0.08,0.03,0.15-0.02,0.22
		C500.14,258.15,500.13,258.95,500.11,259.75z"/>
	<path style="fill-rule:evenodd;clip-rule:evenodd;fill:#F8F4F6;" d="M456.19,253.76c0.09-0.49,0.46-0.24,0.73-0.28
		c0.43-0.38,0.94-0.28,1.44-0.24c0.31,0.06,0.62,0.09,0.93,0.08c0.13,0,0.26,0.03,0.39,0.06c2.28,0.56,4.63,0.72,6.94,1.07
		c2.66,0.41,5.33,0.78,8.01,1.11c3,0.37,5.97,0.9,8.96,1.29c2.09,0.27,4.14,0.75,6.24,0.93c1.09,0.28,2.17,0.59,3.22,1.02
		c0.25,0.13,0.45,0.32,0.57,0.58c0.37,1.4,0.13,2.83,0.18,4.25c0.08,2.66-0.17,5.32-0.21,7.98c-0.06,4.33,0.47,8.67,0.05,12.99
		c-0.04,0.27-0.17,0.49-0.41,0.62c-0.17,0.08-0.35,0.07-0.53,0.01c-0.11-0.03-0.22-0.08-0.33-0.13c-0.16-0.08-0.32-0.16-0.47-0.27
		c-0.1-0.08-0.19-0.16-0.27-0.26c-0.07-0.11-0.13-0.23-0.17-0.35c-0.04-0.13-0.06-0.26-0.06-0.4c0.01-6.63-0.11-13.26,0.06-19.89
		c0.09-3.52,0.08-3.62-3.38-4.05c-4.28-0.53-8.42-1.76-12.67-2.4c-3.97-0.6-7.94-1.22-11.89-1.98c-2.23-0.43-4.46-0.81-6.69-1.22
		C456.53,254.22,456.29,254.07,456.19,253.76z"/>
	<path style="fill-rule:evenodd;clip-rule:evenodd;fill:#FCFAFB;" d="M456.46,255.43c-0.2-0.39-1.54-0.32-0.5-1.21
		c0.4-0.14,0.79,0.09,1.18,0.04c2.64,0.56,5.34,0.84,7.97,1.44c5.38,1.22,10.91,1.55,16.27,2.91c2.75,0.7,5.58,1.2,8.44,1.41
		c1.03,0.08,1.57,0.57,1.69,1.63c0.1,0.83,0.16,1.68,0.08,2.48c-0.15,1.56-0.06,3.11-0.13,4.66c-0.25,0.6,0.13,1.41-0.6,1.85
		c-0.23-0.02-0.35-0.17-0.44-0.37c0.18-1.75-0.28-3.5,0.05-5.27c0.17-0.9,0-1.93-0.54-2.79c-0.58-0.41-1.29-0.14-1.9-0.39
		c-2.08-0.77-4.29-0.84-6.44-1.24c-4.8-0.91-9.64-1.62-14.44-2.53c-2.38-0.65-4.84-0.97-7.23-1.61c-0.12-0.01-0.25-0.03-0.37-0.05
		c-0.29-0.09-0.59-0.14-0.88-0.22C457.94,255.88,457.1,255.97,456.46,255.43z"/>
	<path style="fill-rule:evenodd;clip-rule:evenodd;fill:#F9F6F7;" d="M457.88,252.3c2.56-0.39,5.04,0.31,7.54,0.58
		c4.82,0.51,9.64,1.1,14.43,1.87c3.66,0.58,7.36,0.39,11,0.94c1.92,0.29,3.79,0.85,5.71,1.16c1.15,0.18,1.4,0.8,1.33,1.8
		c-0.26,3.97-0.57,7.93-0.73,11.9c-0.13,3.22-0.12,6.45-0.11,9.67c0,0.53-0.08,0.88-0.55,1.12c-0.06,0.04-0.13,0.07-0.19,0.1
		c-0.15,0-0.28-0.07-0.38-0.19c-0.31-0.9,0.06-1.79,0.03-2.69c-0.06-1.54-0.02-3.09-0.02-4.64c-0.15-3.19,0.28-6.36,0.3-9.55
		c0.01-1.13,0.13-2.3,0.34-3.44c0.18-0.95-0.01-1.88-0.46-2.75c-1.64-0.82-3.44-0.98-5.21-1.16c-1.91-0.19-3.79-0.53-5.66-0.84
		c-1.34-0.23-2.71-0.25-4.04-0.33c-2.17-0.13-4.26-0.58-6.36-1c-2.43-0.48-4.92-0.32-7.35-0.76c-1.07-0.19-2.09-0.18-3.18,0.05
		c-1.07,0.22-2.2-0.21-3.28-0.43c-0.39-0.08-0.77-0.2-1.17-0.19c-0.13-0.01-0.27-0.03-0.39-0.07c-0.24-0.12-0.51-0.11-0.78-0.14
		c-0.56-0.12-1.2,0.2-1.7-0.29c0.24-0.22,0.49-0.43,0.73-0.65C457.73,252.26,457.79,252.24,457.88,252.3z"/>
	<path style="fill-rule:evenodd;clip-rule:evenodd;fill:#C12D45;" d="M456.4,299.59c-0.55-0.1-0.97-0.3-0.93-1
		c0.28-4.63-0.53-9.22-0.44-13.84c0.09-5.09,0.08-10.18,0.24-15.27c0.13-3.98,0.46-7.94,0.68-11.92c0.03-0.61,0.26-1.06,0.74-1.4
		c0.28-0.22,0.55-0.22,0.8,0.05c0.04,1.15-0.6,2.16-0.65,3.34c-0.18,4.33-0.8,8.65-0.6,12.98c0.17,3.9,0.23,7.81,0.35,11.7
		c0.12,3.81-0.15,7.64-0.22,11.46c-0.01,0.28-0.11,0.55,0.05,0.81c0.02,0.88,0.05,1.75,0.07,2.63
		C456.56,299.3,456.58,299.47,456.4,299.59z"/>
	<path style="fill-rule:evenodd;clip-rule:evenodd;fill:#4B383C;" d="M456.43,296.5c-0.49-2.6-0.29-5.23-0.17-7.84
		c0.25-5.09-0.08-10.17-0.27-15.25c-0.11-3.02,0.21-6.03,0.32-9.04c0.04-0.91,0.16-1.82,0.23-2.73c0.15-1.84,0.08-3.71,0.81-5.47
		c0.36-0.19,0.62-0.05,0.82,0.25c-1,0.8-0.96,1.97-1.05,3.07c-0.42,5.33-0.95,10.67-0.61,16.02c0.42,6.75,0.16,13.49,0.15,20.24
		C456.4,295.95,456.45,296.24,456.43,296.5z"/>
	<path style="fill-rule:evenodd;clip-rule:evenodd;fill:#322C25;" d="M499.14,284.22c0-0.07,0-0.13,0-0.2
		c-0.11-0.16-0.11-0.33-0.02-0.5l0.04,0c0.16,0.08,0.31,0.16,0.46,0.24c0.06,0.01,0.12,0.03,0.18,0.06
		c-0.07,0.07-0.14,0.14-0.2,0.21c0.12,0.92,0.63,1.69,0.92,2.54c0.13,0.4,0.38,0.85-0.05,1.21c-0.37,0.31-0.77,0.09-1.1-0.09
		c-0.74-0.39-1.49-0.71-2.32-0.85c-0.38-0.07-0.78-0.21-0.88-0.68c0-0.14,0.06-0.25,0.16-0.34c0.33-0.18,0.63-0.13,0.92,0.11
		c0.16-0.4,0.32-0.8,0.48-1.2c0.04,0.43-0.05,0.94,0.14,1.29c0.3,0.54,1.11,0.85,1.5,0.72c0.54-0.18-0.17-0.65-0.2-1.02
		c-0.03-0.31-0.02-0.63-0.03-0.95C499.03,284.57,499.02,284.39,499.14,284.22z"/>
	<path style="fill-rule:evenodd;clip-rule:evenodd;fill:#F3EFF1;" d="M497.24,285.92c-0.32-0.01-0.63-0.02-0.95-0.03
		c-0.22-0.03-0.37-0.16-0.46-0.35c-0.09-0.71-0.43-1.48,0.5-1.93c0.36,0,0.66,0.1,0.85,0.43
		C497.2,284.66,497.22,285.29,497.24,285.92z"/>
	<path style="fill-rule:evenodd;clip-rule:evenodd;fill:#2A2721;" d="M458.18,256.43c-0.27-0.08-0.55-0.17-0.82-0.25
		c-0.22,0-0.44-0.01-0.66-0.01c-0.53-0.1-0.67-0.33-0.24-0.74c0.8,0.13,1.64,0.09,2.38,0.5c0.2,0.2,0.52,0.02,0.73,0.22l0,0
		c-0.19,0.66-0.65,0.31-1.02,0.27C458.42,256.43,458.3,256.43,458.18,256.43z"/>
	<path style="fill-rule:evenodd;clip-rule:evenodd;fill:#BD304A;" d="M456.72,252.35c-0.41,0.39-0.82,0.79-1.23,1.18l0,0
		c-0.51,0.14-0.19,0.97-0.81,0.99c-0.11,0-0.32-0.19-0.32-0.28c0.03-0.56,0.44-0.91,0.81-1.26c0.42-0.39,0.9-0.65,1.47-0.7
		L456.72,252.35z"/>
	<path style="fill-rule:evenodd;clip-rule:evenodd;fill:#322C25;" d="M497.18,284.04c-0.24-0.04-0.53,0.05-0.67-0.25
		c-0.03-0.04-0.06-0.08-0.09-0.12c0-0.1,0.02-0.2,0.06-0.3c0.26-0.34,0.24-0.76,0.35-1.15c0.09-0.3,0.15-0.61,0.39-0.85
		C497.66,282.27,497.65,283.16,497.18,284.04z"/>
	<path style="fill-rule:evenodd;clip-rule:evenodd;fill:#2B2423;" d="M459.37,253.26c0.07-0.02,0.13,0,0.19,0.05
		c0.02,0.25-0.06,0.36-0.32,0.26l-0.07-0.01c-0.2,0.08-0.41,0.12-0.6-0.02c-0.55-0.02-1.1-0.04-1.64-0.06
		c-0.07-0.17-0.24-0.34,0.05-0.47c0.62,0.02,1.25,0.05,1.87,0.07C459,253.18,459.21,253.16,459.37,253.26z"/>
	<path style="fill-rule:evenodd;clip-rule:evenodd;fill:#1A1715;" d="M456.92,254.46c-0.4,0.22-0.65-0.11-0.95-0.25
		c-0.17-0.22-0.5-0.32-0.47-0.68l0,0c0.23,0.08,0.46,0.15,0.7,0.23c0.16,0.09,0.32,0.17,0.49,0.26
		C456.82,254.13,457.05,254.2,456.92,254.46z"/>
	<path style="fill-rule:evenodd;clip-rule:evenodd;fill:#090902;" d="M497.21,281.38c0.01,0.33,0.16,0.7-0.22,0.95
		c-0.17-0.08-0.28-0.23-0.39-0.38c-0.09-0.11-0.16-0.23-0.2-0.36c-0.01-0.1,0.02-0.18,0.1-0.24l-0.01-0.01
		C496.73,281.35,496.97,281.36,497.21,281.38z"/>
	<path style="fill-rule:evenodd;clip-rule:evenodd;fill:#4B383C;" d="M456.71,296.61c0.06,0.44,0.13,0.87,0.19,1.31
		C456.53,297.53,456.71,297.05,456.71,296.61z"/>
	<path style="fill-rule:evenodd;clip-rule:evenodd;fill:#101002;" d="M457.88,252.3c-0.05,0.05-0.1,0.07-0.17,0.06
		c-0.14-0.09-0.24-0.21-0.08-0.35c0.07-0.06,0.19-0.07,0.29-0.11C457.9,252.04,457.89,252.17,457.88,252.3z"/>
	<path style="fill-rule:evenodd;clip-rule:evenodd;fill:#9BB2CE;" d="M456.65,252.28c0.09-0.06,0.17-0.13,0.27-0.17
		c0.02-0.01,0.08,0.08,0.12,0.12c-0.11,0.04-0.21,0.08-0.32,0.12C456.72,252.35,456.65,252.28,456.65,252.28z"/>
	<path style="fill-rule:evenodd;clip-rule:evenodd;fill:#4B383C;" d="M456.94,299.06c0.06,0.18,0.12,0.36,0.18,0.54
		C457.07,299.42,457,299.24,456.94,299.06z"/>
	<path style="fill-rule:evenodd;clip-rule:evenodd;fill:#4B383C;" d="M456.4,299.59c0.03-0.15,0.06-0.3,0.1-0.45
		C456.7,299.33,456.66,299.48,456.4,299.59z"/>
	<path style="fill-rule:evenodd;clip-rule:evenodd;fill:#583F45;" d="M454.27,254.88c-0.08,0.02-0.16,0.04-0.24,0.07
		C454.11,254.92,454.19,254.9,454.27,254.88z"/>
	<path style="fill-rule:evenodd;clip-rule:evenodd;fill:#583F45;" d="M454.03,254.96c-0.07,0.08-0.15,0.17-0.22,0.25
		C453.88,255.12,453.95,255.04,454.03,254.96z"/>
	<path style="fill-rule:evenodd;clip-rule:evenodd;fill:#FCFBFB;" d="M496.25,301.6c0,0.2,0.01,0.4,0.02,0.61
		c-0.06,0.09-0.11,0.18-0.16,0.28c-0.49,0.53-1.11-0.1-1.63,0.2c-0.16,0-0.26-0.1-0.35-0.21l0,0.01c-0.39-4.94-0.55-9.89-0.67-14.84
		c0.82-0.59,1.47-0.06,2.14,0.33c0.38,0.46,0.23,1.05,0.36,1.57c0.04,0.16,0.06,0.33,0.05,0.49c-0.03,0.25-0.07,0.5-0.05,0.76
		c0,0.1-0.01,0.2-0.02,0.3c-0.08,0.34-0.07,0.68,0.01,1.02c0.02,0.1,0.02,0.21,0.03,0.31c0,0.22,0.04,0.43,0.09,0.65
		c0.03,0.12,0.05,0.24,0.06,0.36c-0.02,1.58,0.35,3.12,0.31,4.69c-0.01,0.27,0.07,0.54-0.13,0.78c-0.01,0.22-0.03,0.43-0.04,0.65
		c-0.12,0.28-0.13,0.57,0,0.85c0,0.11,0,0.22,0,0.33C496.13,301.01,496.13,301.3,496.25,301.6z"/>
	<path style="fill-rule:evenodd;clip-rule:evenodd;fill:#F7F4F5;" d="M492.91,287.36c0,5.13,0.37,10.24,0.7,15.36
		c0.03,0.44,0.39,1.16-0.63,1.21c-0.9,0.05-0.87-0.55-0.88-1.07c-0.09-5.25-0.61-10.5-0.36-15.76c0-0.09,0.14-0.17,0.21-0.25
		c0.06-0.06,0.13-0.09,0.22-0.08c0.12,0.03,0.23,0.08,0.35,0.14c0.08,0.03,0.15,0.08,0.22,0.13c0.06,0.06,0.11,0.12,0.15,0.2
		C492.9,287.28,492.91,287.32,492.91,287.36z"/>
	<path style="fill-rule:evenodd;clip-rule:evenodd;fill:#F6F4F5;" d="M491.64,305.54c-0.13,0.02-0.27,0.05-0.4,0.07
		c-0.08-0.17-0.23-0.34-0.22-0.5c0.25-4.26-0.71-8.46-0.53-12.71c-0.13-0.24-0.12-0.47-0.01-0.71c0-0.4,0-0.81-0.01-1.21
		c-0.14-0.95-0.23-1.9-0.2-2.86c0.05-0.44-0.15-0.94,0.31-1.29c0.12-0.05,0.25-0.06,0.38-0.04c0.12,0.05,0.22,0.13,0.3,0.23
		c0.07,0.12,0.06,0.24-0.01,0.36c-0.25,5.58,0.27,11.14,0.33,16.71c0,0.35,0.12,0.7,0.18,1.05
		C491.73,304.94,491.69,305.24,491.64,305.54z"/>
	<path style="fill-rule:evenodd;clip-rule:evenodd;fill:#332F26;" d="M492.15,286.9c-0.07,0.01-0.13,0-0.19-0.05
		c0-0.07,0-0.14,0-0.21c-0.06-0.04-0.09-0.1-0.08-0.16c0-0.06,0.02-0.09,0.03-0.09c0.08-0.06,0.17-0.09,0.28-0.09
		c0.15,0.02,0.3,0.07,0.44,0.12c0.1,0.03,0.2,0.06,0.3,0.1c0.27,0.07,0.54,0.11,0.81,0.16c1.72,0.3,3.27,1.2,5.01,1.4
		c0.24,0.03,0.45,0.17,0.46,0.46c-0.35,0.45-0.9,0.29-1.34,0.44c-0.45,0.16-0.96-0.28-1.39,0.13c-0.21,0.9-0.03,1.81-0.11,2.71
		c-0.04,0.43,0.09,0.99-0.59,1.08h0c-0.12-0.18-0.11-0.37-0.01-0.56l-0.01-0.1c-0.12-0.44-0.16-0.88,0.02-1.31
		c-0.02-0.06-0.03-0.12,0-0.17c-0.14-0.2-0.1-0.4-0.02-0.6c0-0.11,0.01-0.22,0.01-0.34c-0.27-0.55,0.12-1.19-0.24-1.73
		c-0.68-0.21-1.33-0.55-2.08-0.46c-0.18-0.09-0.36-0.18-0.54-0.26l0,0.01c-0.07-0.1-0.16-0.17-0.25-0.24
		c-0.08,0.01-0.15-0.01-0.22-0.05C492.34,287.02,492.26,286.94,492.15,286.9z"/>
	<path style="fill-rule:evenodd;clip-rule:evenodd;fill:#242010;" d="M491.95,286.39c0,0.08,0,0.17,0,0.25
		c-0.24,0.08-0.47,0.16-0.71,0.23c-0.04-0.05-0.05-0.11-0.04-0.18c-0.04-0.12-0.11-0.22-0.22-0.29l0,0
		c-0.06-0.24,0.09-0.35,0.28-0.43C491.59,285.95,491.93,285.91,491.95,286.39z"/>
	<path style="fill-rule:evenodd;clip-rule:evenodd;fill:#45393C;" d="M490.5,287.36c0,1.04-0.01,2.08-0.01,3.12
		c-0.14-0.4-0.28-0.79-0.41-1.19c0-1.04,0.01-2.08,0.02-3.11C490.74,286.39,490.18,287.02,490.5,287.36z"/>
	<path style="fill-rule:evenodd;clip-rule:evenodd;fill:#3A3537;" d="M490.07,295.03c0-0.72-0.01-1.43-0.01-2.15
		c0.07-0.08,0.13-0.07,0.2,0.01C490.19,293.6,490.48,294.35,490.07,295.03z"/>
	<path style="fill-rule:evenodd;clip-rule:evenodd;fill:#41393D;" d="M490.49,291.69c0,0.24,0,0.47,0.01,0.71
		C490.22,292.16,490.23,291.92,490.49,291.69z"/>
	<path style="fill-rule:evenodd;clip-rule:evenodd;fill:#45393C;" d="M490.26,292.89c-0.07-0.01-0.13-0.01-0.2-0.01
		c0.01-0.08,0.01-0.16,0.02-0.23C490.14,292.73,490.2,292.81,490.26,292.89z"/>
	<path style="fill-rule:evenodd;clip-rule:evenodd;fill:#53423A;" d="M499.12,283.52c0.01,0.17,0.01,0.33,0.02,0.5
		c-0.06-0.17-0.12-0.33-0.17-0.5C499.02,283.52,499.07,283.52,499.12,283.52z"/>
	<path style="fill-rule:evenodd;clip-rule:evenodd;fill:#FBE804;" d="M504.27,292.63c0.23,1.24,0.77,2.43,0.67,3.74
		c-0.05,0.58-0.16,1.32-0.64,1.46c-0.59,0.17-0.88-0.56-1.1-1.05c-0.41-0.9-0.76-1.83-1.13-2.74c-0.1-1.11-0.2-2.21-0.3-3.32
		c0.15-0.41,0.17-0.93,0.81-0.9c0.16,0.02,0.31,0.09,0.44,0.18c0.08,0.07,0.15,0.15,0.19,0.25
		C503.56,291.04,503.91,291.84,504.27,292.63z"/>
	<path style="fill-rule:evenodd;clip-rule:evenodd;fill:#FAE804;" d="M502.52,289.04c-0.25-0.28-0.46-0.62-0.18-0.95
		c0.36-0.42,0.51,0.12,0.74,0.25c0.48,0.26,3-0.22,3.18-0.67c0.24-0.62-0.4-0.67-0.7-0.9c-0.39-0.29-0.74,0.13-1.12,0.17
		c-0.28-0.1-0.69,0.18-0.84-0.16c-0.05-0.11,0.29-0.42,0.48-0.61c0.14-0.14,0.31-0.25,0.48-0.35c1.07-0.61,2.3-0.61,2.85,0.43
		c0.51,0.97-0.28,1.99-1.22,2.53c-0.82,0.47-1.74,0.76-2.71,0.78C502.94,289.79,502.68,289.51,502.52,289.04z"/>
	<path style="fill-rule:evenodd;clip-rule:evenodd;fill:#1C1D16;" d="M502.52,289.04c0.32,0.17,0.64,0.34,0.95,0.51
		c0.01,0.27,0.04,0.55-0.27,0.69c-0.05-0.01-0.11-0.02-0.16-0.03c-0.15-0.06-0.26-0.17-0.42-0.22c-0.63-0.16-0.52,0.55-0.87,0.73
		c-0.28,0.22-0.45,0.79-0.94,0.26c-0.18-0.56,0.34-0.8,0.55-1.19c-0.01-0.08,0.24-0.06,0.08-0.16c-0.19-0.12-0.28-0.25-0.23-0.47
		c0.03-0.04,0.06-0.08,0.09-0.12C501.72,289.04,502.12,289.04,502.52,289.04z"/>
	<path style="fill-rule:evenodd;clip-rule:evenodd;fill:#0A0905;" d="M503.73,287.37c-0.13-0.15-0.58,0.27-0.48-0.27
		c0.39,0.02,0.79,0.05,1.18,0.07c0,0.05,0,0.09,0,0.14C504.22,287.57,503.98,287.56,503.73,287.37z"/>
	<path style="fill-rule:evenodd;clip-rule:evenodd;fill:#F6E307;" d="M499.67,293.16c-0.41,2.15,0.07,4.3-0.07,6.45
		c0.02,0.43,0.43,0.92-0.08,1.28c-0.29,0.21-0.59,0.05-0.78-0.26c-0.12-0.24-0.14-0.5-0.16-0.76c0.01-0.33-0.14-0.63-0.19-0.95
		c-0.09-1.4-0.11-2.79-0.02-4.19c0.03-0.18,0.08-0.36,0.14-0.53c0.06-0.16,0.11-0.32,0.18-0.48c0.06-0.15,0.13-0.3,0.21-0.44
		c0.05-0.09,0.11-0.18,0.18-0.27c0.12-0.12,0.25-0.2,0.42-0.2C499.67,292.88,499.79,292.96,499.67,293.16z"/>
	<path style="fill-rule:evenodd;clip-rule:evenodd;fill:#B83146;" d="M499.4,303.21c-0.72-0.5-1.64-0.08-2.38-0.5
		c-0.02-0.01-0.05-0.08-0.04-0.09c0.08-0.07,0.17-0.12,0.25-0.18c0.43-0.43,1.29-0.04,1.54-0.81c0.24-0.27,0.44-0.62,0.88-0.32
		c0.23,0.63,0.04,1.25,0,1.87C499.58,303.29,499.5,303.31,499.4,303.21z"/>
	<path style="fill-rule:evenodd;clip-rule:evenodd;fill:#DCC818;" d="M499.67,293.16c-0.08-0.09-0.16-0.18-0.24-0.27
		c-0.27-0.43,0.03-0.8,0.13-1.19c0.04-0.1,0.08-0.19,0.13-0.28c0.07-0.14,0.15-0.28,0.22-0.42c0.05-0.1,0.11-0.18,0.17-0.27
		c0.47-0.34,0.53-1.31,1.46-0.97c0,0.55-0.48,0.81-0.72,1.22C500.24,291.6,500.07,292.44,499.67,293.16z"/>
	<path style="fill-rule:evenodd;clip-rule:evenodd;fill:#0C0B04;" d="M499.65,301.3c-0.38-0.04-0.47,0.32-0.69,0.51
		c-0.38,0.05-0.46-0.22-0.53-0.5c0.02-0.34-0.02-0.72,0.49-0.73c0.65,0.2,0.65,0.2,0.68-0.96
		C500.11,300.16,499.99,300.73,499.65,301.3z"/>
	<path style="fill-rule:evenodd;clip-rule:evenodd;fill:#18180D;" d="M499.4,303.21c0.08-0.01,0.16-0.02,0.24-0.04
		c0.03,0.06,0.07,0.13,0.1,0.19c-0.11,0-0.21,0-0.32,0.01C499.41,303.31,499.4,303.26,499.4,303.21z"/>
	<path style="fill-rule:evenodd;clip-rule:evenodd;fill:#5B4242;" d="M500.15,257.35c-0.02-0.08-0.01-0.15,0.02-0.22
		c0.02,0.05,0.05,0.11,0.05,0.16C500.23,257.31,500.18,257.33,500.15,257.35z"/>
	<path style="fill-rule:evenodd;clip-rule:evenodd;fill:#FAE803;" d="M491.95,286.39c-0.22-0.09-0.43-0.17-0.65-0.26
		c-0.98-0.01-1.66-0.71-2.48-1.07c-0.09-0.05-0.18-0.09-0.27-0.13c-0.09-0.05-0.17-0.1-0.25-0.15c-0.09-0.04-0.17-0.09-0.25-0.14
		c-0.14-0.06-0.27-0.11-0.41-0.16c-0.15-0.05-0.29-0.11-0.42-0.21c-0.61-0.62-0.41-1.06,0.3-1.38c0.11-0.02,0.21-0.02,0.32-0.01
		c0.16,0.03,0.31,0.07,0.46,0.12c0.21,0.05,0.41,0.1,0.58,0.22c0.28,0.24,0.51,0.55,0.93,0.55c0.1,0.02,0.2,0.05,0.3,0.1
		c0.3,0.18,0.54,0.46,0.86,0.62c0.2,0.12,0.43,0.2,0.65,0.27c0.17,0.06,0.31,0.18,0.49,0.23c0.08,0.04,0.16,0.08,0.23,0.13
		c0.08,0.04,0.16,0.08,0.25,0.11c0.08,0.03,0.17,0.08,0.24,0.13c0.18,0.1,0.37,0.05,0.56,0.08c0.16,0.02,0.31,0.04,0.46,0.08
		c0.49,0.13,1,0.05,1.49,0.19c0.33,0.11,0.68,0.19,0.92,0.48c1.21,0.55,2.61,0.61,3.71,1.47c0.15,0.12,0.4,0.22,0.5-0.02
		c0.06-0.14-0.04-0.36-0.07-0.54c-0.18-1.04-1.31-1.84-0.8-3.07c1.24,1.26,1.22,3.06,1.93,4.55c-0.07,0.07-0.14,0.14-0.21,0.21
		c-0.1,0.07-0.22,0.11-0.34,0.12c-0.59-0.09-1.25,0.16-1.75-0.37c-2.04-0.22-3.88-1.12-5.83-1.66c-0.19-0.22-0.49-0.04-0.7-0.2
		c-0.08-0.01-0.16-0.03-0.23-0.04c-0.07-0.08-0.15-0.13-0.25-0.17C492.12,286.45,492.04,286.42,491.95,286.39z"/>
	<path style="fill-rule:evenodd;clip-rule:evenodd;fill:#EFEEED;" d="M503.73,287.37c0.23-0.02,0.47-0.04,0.7-0.06
		c0.36,0.13,0.88-0.52,1.01,0.01c0.11,0.45-0.59,0.43-0.93,0.5c-0.39,0.07-0.82,0.56-1.18,0.11
		C503.05,287.57,503.67,287.61,503.73,287.37z"/>
	<path style="fill-rule:evenodd;clip-rule:evenodd;fill:#090902;" d="M501.63,288.52c-0.07-0.26-0.15-0.53,0.15-0.71
		c0.07,0.09,0.15,0.17,0.22,0.26c-0.06,0.09-0.12,0.18-0.19,0.26C501.75,288.39,501.69,288.45,501.63,288.52z"/>
	<path style="fill-rule:evenodd;clip-rule:evenodd;fill:#1C1D16;" d="M501.14,288.73c0.07-0.02,0.13,0,0.17,0.05
		c0,0.08,0,0.17,0,0.25l0,0c-0.07,0.08-0.16,0.09-0.25,0.04c-0.06-0.09-0.07-0.18-0.05-0.28
		C501.06,288.78,501.1,288.76,501.14,288.73z"/>
	<path style="fill-rule:evenodd;clip-rule:evenodd;fill:#1C1D16;" d="M501.81,288.33c0.06-0.09,0.13-0.17,0.19-0.26
		C501.94,288.15,501.88,288.24,501.81,288.33z"/>
	<path style="fill-rule:evenodd;clip-rule:evenodd;fill:#7A323A;" d="M452.1,262.88c0,1.68,0,3.37,0,5.05
		c-0.49-1.26-0.09-2.57-0.22-3.85C451.94,263.68,451.74,263.23,452.1,262.88z"/>
	<path style="fill-rule:evenodd;clip-rule:evenodd;fill:#F8F4F6;" d="M496.33,288.34c0.47,0.12,0.86,0.51,1.4,0.42
		c0.44,0,0.64,0.28,0.75,0.66c0.12,1.47,0.05,2.95,0.05,4.43c-0.31,1.5-0.25,3.02-0.14,4.54c0.07,0.28,0.01,0.58,0.13,0.86
		c0.04,0.1,0.06,0.21,0.07,0.33c-0.07,0.33,0.03,0.65,0,0.98c-0.05,0.29-0.03,0.58-0.03,0.87c0.09,0.72-0.34,0.85-0.91,0.81
		c-0.19-0.01-0.36-0.09-0.54-0.12c-0.19-0.13-0.46-0.19-0.54-0.45l-0.01-0.06c0.12-0.44,0.17-0.88-0.02-1.31c0-0.14,0-0.28,0-0.42
		c0.03-1.82-0.42-3.6-0.4-5.41C496.16,292.42,496,290.37,496.33,288.34z"/>
	<path style="fill-rule:evenodd;clip-rule:evenodd;fill:#403B3A;" d="M496.33,288.34c-0.24,2.99,0.04,5.96,0.27,8.93
		c0.07,0.86,0.26,1.74-0.07,2.59c-0.09-0.32,0.07-0.71-0.24-0.98c-0.23-1.99-0.58-3.97-0.51-5.99c0.53-1.05,0.11-2.17,0.25-3.25
		C496.08,289.2,495.82,288.68,496.33,288.34z"/>
	<path style="fill-rule:evenodd;clip-rule:evenodd;fill:#403B3A;" d="M497.47,302.03c0.45-0.1,1.13,0.12,1-0.75
		c0.07-0.11,0.13-0.11,0.18,0.01c0.1,0.17,0.2,0.35,0.31,0.52c-0.2,1.26-1.13,0.49-1.73,0.62c0.01-0.06,0.01-0.12,0.01-0.18
		C497.29,302.14,497.37,302.07,497.47,302.03z"/>
	<path style="fill-rule:evenodd;clip-rule:evenodd;fill:#403B3A;" d="M496.53,300.29c0.21,0.43,0.17,0.87,0.02,1.31
		C496.55,301.16,496.54,300.73,496.53,300.29z"/>
	<path style="fill-rule:evenodd;clip-rule:evenodd;fill:#403B3A;" d="M496.25,300.38c-0.2-0.28-0.3-0.57,0-0.85
		C496.25,299.82,496.25,300.1,496.25,300.38z"/>
	<path style="fill-rule:evenodd;clip-rule:evenodd;fill:#403B3A;" d="M496.25,301.6c-0.23-0.29-0.15-0.58,0-0.88
		C496.25,301.01,496.25,301.3,496.25,301.6z"/>
	<path style="fill-rule:evenodd;clip-rule:evenodd;fill:#0A0A00;" d="M497.47,302.03c-0.08,0.07-0.15,0.15-0.23,0.22
		c-0.15-0.07-0.3-0.14-0.46-0.21c0.07-0.12,0.15-0.14,0.26-0.06C497.19,301.99,497.33,302.01,497.47,302.03z"/>
	<path style="fill-rule:evenodd;clip-rule:evenodd;fill:#403B3A;" d="M497.05,301.96c-0.09,0.02-0.18,0.04-0.26,0.06
		c-0.07-0.12-0.15-0.25-0.22-0.37C496.72,301.76,496.89,301.86,497.05,301.96z"/>
	<path style="fill-rule:evenodd;clip-rule:evenodd;fill:#403B3A;" d="M496.11,302.48c0.05-0.09,0.11-0.18,0.16-0.28
		C496.21,302.29,496.16,302.39,496.11,302.48z"/>
	<path style="fill-rule:evenodd;clip-rule:evenodd;fill:#3C3839;" d="M494.13,302.47c0.12,0.07,0.24,0.14,0.35,0.21
		C494.36,302.61,494.24,302.54,494.13,302.47z"/>
	<path style="fill-rule:evenodd;clip-rule:evenodd;fill:#413637;" d="M479.25,291.64c-3.45-1.28-7.06-1.78-10.69-2.25
		c-0.8-0.1-1.89,0.48-2.34-0.33c-0.33-0.6-0.01-1.55-0.05-2.33c-0.23-4.47,0.27-8.93,0.16-13.39c-0.05-1.95-0.05-3.91-0.15-5.86
		c-0.06-1.01,0.34-1.16,1.2-0.95c4.35,1.05,8.77,1.79,13.21,2.37c1.48,0.19,1.84,1.02,1.33,3.13c-0.08,0.08-0.17,0.1-0.28,0.06
		c-0.39-0.27-0.14-0.89-0.6-1.12c-0.33-0.04-0.59,0.22-0.92,0.22c-2.23-0.12-4.41-0.38-6.4-1.48c0.12-0.88,0.79-0.61,1.25-0.5
		c1.05,0.24,2.09,0.52,3.16,0.68c0.48,0.07,0.95,0.12,1.43,0.11c0.23-0.01,0.67-0.01,0.65-0.08c-0.09-0.33-0.44-0.16-0.68-0.18
		c-0.52-0.04-1.04-0.04-1.54-0.22c-2.88-1.06-5.97-1.02-8.91-1.75c-0.14-0.03-0.29-0.13-0.44-0.03c0.13,0.08,0.29,0.06,0.43,0.1
		c0.67,0.2,1.46,0.17,1.84,0.94c-0.03,0.14-0.11,0.23-0.24,0.29c-0.2,0.07-0.4,0.11-0.59,0.07c-2.06-0.44-2.07,0.38-1.96,1.91
		c0.29,4.03-0.15,8.05-0.03,12.07c0.05,1.51-0.2,3-0.37,4.5c-0.26,0.22-0.52,0.19-0.79,0.02c-0.29-0.44-0.19-0.93-0.17-1.4
		c0.2-3.98,0.26-7.97,0.33-11.95c0.03-1.67-0.2-3.35,0.01-5.02c0.02-0.13,0.01-0.27,0-0.4c0.01,0.16,0.01,0.32,0,0.48
		c-0.14,3.78,0.05,7.57-0.13,11.36c-0.11,2.27-0.1,4.54-0.18,6.81c0.17,0.25,0.37,0.49,0.51,0.77c1.8,0.56,3.66,0.74,5.51,0.93
		c2.36,0.24,4.57,0.96,6.67,2.03C479.58,291.45,479.44,291.56,479.25,291.64z"/>
	<path style="fill-rule:evenodd;clip-rule:evenodd;fill:#393333;" d="M467.03,257.83c3.28,0.56,6.58,1.09,9.85,1.69
		c3.77,0.69,7.59,1.17,11.31,2.11c-0.04,0.17-0.15,0.26-0.31,0.28c-4.09-0.71-8.17-1.45-12.26-2.13c-3.05-0.5-6.12-0.87-9.09-1.76
		C466.55,257.61,466.79,257.72,467.03,257.83z"/>
	<path style="fill-rule:evenodd;clip-rule:evenodd;fill:#44373A;" d="M488.39,298.37c0.35,2,0.38,4.01-0.07,5.98
		c-0.22,0.95-0.76,1.27-1.73,0.58c-1.17-0.82-2.45-1.46-3.68-2.2c-0.15-0.09-0.38-0.3-0.35-0.41c0.06-0.27,0.32-0.13,0.48-0.07
		c2.55,1.01,4.5-0.98,4.78-3.15C487.9,298.39,487.93,298.39,488.39,298.37c-0.03,0.03-0.06,0.04-0.07,0.09
		C488.42,298.33,488.3,298.5,488.39,298.37z"/>
	<path style="fill-rule:evenodd;clip-rule:evenodd;fill:#46373A;" d="M461.55,298.63c-0.88-0.15-2.02-0.34-3.14-0.54
		c-0.41-0.08-0.61-0.35-0.56-0.77c0.16-1.55,0.57-3.03,1.09-4.49c0.06-0.16,0.25-0.35,0.4-0.37c0.28-0.02,0.21,0.26,0.23,0.44
		c0.2,1.92,1.31,3.24,2.74,4.41c0.32,0.26,1.14,0.14,0.94,0.79C463.06,298.73,462.36,298.65,461.55,298.63z"/>
	<path style="fill-rule:evenodd;clip-rule:evenodd;fill:#5D3D42;" d="M481.61,272c0.1,0,0.21,0.01,0.31,0.01
		c-0.52,5.07,0.03,10.16-0.29,15.23c-0.02,0.38,0.13,0.8-0.19,1.14c-0.33-0.22-0.34-0.58-0.38-0.92c-0.04-0.28-0.16-0.54-0.2-0.82
		c-0.1-0.56-0.08-1.12-0.05-1.67c0.19-3.31,0.13-6.61,0-9.92c-0.03-0.85,0.21-1.66,0.3-2.49C481.14,272.29,481.24,272.01,481.61,272
		z"/>
	<path style="fill-rule:evenodd;clip-rule:evenodd;fill:#4A3B3F;" d="M472.13,295.84c1.26-0.33,1.36,0.11,0.92,0.98
		c-0.08,0.16-0.08,0.38-0.05,0.55c0.04,0.19,0.68-0.13,0.39,0.38c-0.08,0.13-0.45,0.18-0.65,0.13c-0.3-0.06-0.41-0.33-0.43-0.64
		c-0.02-0.34,0.53-0.75,0.15-0.93c-0.43-0.21-0.88,0.22-1.24,0.54c-0.21,0.18-0.39,0.4-0.61,0.58c-0.08,0.07-0.21,0.07-0.32,0.11
		c-0.02-0.1-0.09-0.26-0.05-0.3c1.03-1.12,1.36-2.71,2.48-3.77c0.27-0.25,0.64-0.76,0.97-0.48c0.38,0.33,0.02,0.83-0.27,1.14
		c-0.4,0.44-0.87,0.81-1.29,1.23c-0.13,0.13-0.19,0.32-0.28,0.48C471.99,295.84,472.13,295.84,472.13,295.84z"/>
	<path style="fill-rule:evenodd;clip-rule:evenodd;fill:#3F3538;" d="M483.58,263.83c-0.4-0.33-0.54-0.67,0.12-0.81
		c1.8-0.39,3.42,0.09,5.02,0.94c0.96,0.51-0.08,0.88,0.03,1.36c0.26,1.15,0.35,2.36,0.04,3.55c-0.22,0.03-0.33-0.11-0.43-0.27
		c-0.31-0.79-0.06-1.64-0.23-2.46c-0.34-1.72-0.57-2-2.31-2.34c-0.43-0.08-0.86-0.11-1.29-0.09
		C484.21,263.64,483.92,263.96,483.58,263.83z"/>
	<path style="fill-rule:evenodd;clip-rule:evenodd;fill:#534146;" d="M491,284.78c-0.34-0.25-0.68-0.5-1.02-0.75
		c0-0.14,0.07-0.28-0.03-0.4c-0.07-0.01-0.13-0.05-0.17-0.12c0.18-3.36,0.36-6.72,0.54-10.08c0.13-0.31,0.12-0.63,0-0.94
		c0-0.16,0-0.33,0-0.49c0.16-0.28,0.34-0.43,0.61-0.1c0.28,0.65,0.13,1.33,0.16,2c-0.01,0.27-0.02,0.54-0.09,0.8
		c-0.27,0.83-0.1,1.69-0.14,2.54c0.19,1.99-0.3,3.97-0.01,5.96c0.03,0.23,0.03,0.48,0.21,0.67c0.09,0.09,0.17,0.19,0.23,0.3
		C491.37,284.45,491.26,284.65,491,284.78z"/>
	<path style="fill-rule:evenodd;clip-rule:evenodd;fill:#4A3B3E;" d="M458.57,261.12l0-0.07c-0.11-0.97-0.2-1.95,0.04-2.92
		c1.63-0.08,3.03,0.55,4.3,1.47c0.57,0.41,0.03,0.53-0.32,0.62c-1.18,0.27-2.26,0.73-3.05,1.7c-0.1,0.09-0.19,0.08-0.29-0.01
		c-0.18-0.99,0.67-1.21,1.23-1.66c0.25-0.2,0.89-0.32,0.67-0.63c-0.29-0.44-0.96-0.51-1.51-0.55c-0.45-0.03-0.45,0.36-0.48,0.67
		c-0.08,0.74,0.15,1.51-0.28,2.21c-0.11,0.06-0.21,0.06-0.31-0.01l0,0C458.43,261.66,458.47,261.39,458.57,261.12z"/>
	<path style="fill-rule:evenodd;clip-rule:evenodd;fill:#403838;" d="M467.03,257.83c-0.17,0.07-0.33,0.14-0.5,0.2
		c-2.66-0.54-5.32-1.07-7.99-1.6c0.34-0.08,0.75,0.09,1.02-0.27C462.09,256.56,464.57,257.15,467.03,257.83z"/>
	<path style="fill-rule:evenodd;clip-rule:evenodd;fill:#453A3D;" d="M490.04,261.93c0.81,0.49,0.57,1.35,0.59,2.03
		c0.06,2.11-0.03,4.23-0.06,6.34c-0.08,0.08-0.15,0.08-0.24,0.01c-0.09-2.34-0.18-4.68-0.26-7.02c-0.02-0.46-0.09-0.87-0.55-1.1
		C489.61,261.96,489.9,262.1,490.04,261.93z"/>
	<path style="fill-rule:evenodd;clip-rule:evenodd;fill:#533E43;" d="M466.47,293.78c1.06-1.7,2.74-1.5,4.37-1.41
		c0.2,0.01,0.51,0.21,0.55,0.38c0.26,0.96-0.17,1.78-0.69,2.54c-0.49,0.73-1.27,0.5-1.97,0.46c-0.17-0.01-0.32-0.11-0.24-0.3
		c0.09-0.24,0.32-0.17,0.51-0.16c1.22,0.07,2.06-0.71,2.04-1.89c0-0.42-0.19-0.69-0.63-0.7c-1.4-0.03-2.81-0.07-3.68,1.36
		C466.52,294.09,466.4,294.03,466.47,293.78z"/>
	<path style="fill-rule:evenodd;clip-rule:evenodd;fill:#564146;" d="M479.38,295.87c-1.33-0.11-1.54,1.06-1.69,1.86
		c-0.14,0.72,0.5,0.06,0.79,0.08c0.13,0.01,0.29-0.2,0.39-0.01c0.04,0.06-0.09,0.3-0.2,0.34c-0.45,0.2-0.89,0.68-1.41,0.35
		c-0.58-0.37-0.07-0.83,0.01-1.27c0.11-0.54,0.49-0.94,0.62-1.5c0.1-0.45,0.74-0.92,1.24-1.09c0.22-0.08,0.07,1.16,0.97,0.95
		C480.04,296.11,479.68,295.9,479.38,295.87z"/>
	<path style="fill-rule:evenodd;clip-rule:evenodd;fill:#443638;" d="M488.58,268.6c0.07,0.09,0.14,0.18,0.21,0.27
		c0.03,0.62,0.15,1.26-0.41,1.74c-0.08-0.25-0.23-0.37-0.5-0.29c-0.51-1.68-1.24-3.25-2.39-4.59c-0.04-0.23,0.11-0.3,0.3-0.33
		c1.36,0.58,1.68,1.93,2.27,3.07c0.1,0.19,0.13,0.45,0.08,0.7C488.26,268.96,488.16,268.58,488.58,268.6z"/>
	<path style="fill-rule:evenodd;clip-rule:evenodd;fill:#463A3F;" d="M482.58,296.91c0.02,0.63-1.99,1.98-2.57,1.69
		c-0.38-0.19-0.35-0.5-0.2-0.8c0.34-0.68,0.59-1.58,1.54-1.49C481.71,296.34,482.47,296.07,482.58,296.91z"/>
	<path style="fill-rule:evenodd;clip-rule:evenodd;fill:#4A3739;" d="M485.97,285.66c-0.91-0.74-1-2.11-0.19-3.25
		c0.49-0.69,1.07-1.1,1.84-0.33c-0.11,0.21-0.3,0.32-0.51,0.41c-1.09,0.67-1.22,1.13-0.82,2.83
		C486.26,285.51,486.15,285.62,485.97,285.66z"/>
	<path style="fill-rule:evenodd;clip-rule:evenodd;fill:#312B28;" d="M481.38,287.4c0.02,0.33,0.04,0.66,0.06,0.98
		c0.03,0.05,0.02,0.09-0.02,0.14c0.28,0.71-0.09,1.49,0.21,2.2l0,0.01c0.2,0.33,0.14,0.68,0.04,1.02l0,0.1
		c0.06,0.12,0.06,0.25-0.01,0.37c-0.73,0.68-1.1-0.43-1.71-0.34c-0.1-0.05-0.19-0.15-0.31-0.16c-0.13-0.02-0.26-0.05-0.4-0.07
		c0.09-0.07,0.18-0.15,0.27-0.22c0.05-0.06,0.09-0.12,0.13-0.19c0.07-0.1,0.15-0.19,0.24-0.28c0.08-0.05,0.16-0.08,0.25-0.08
		c0.18,0.02,0.34,0.1,0.49,0.2c0.1,0.06,0.19,0.14,0.31,0.15c0.07-0.25-0.06-0.46-0.08-0.7c-0.03-1.04-0.24-2.07,0.18-3.07
		C481.14,287.31,481.25,287.3,481.38,287.4z"/>
	<path style="fill-rule:evenodd;clip-rule:evenodd;fill:#4C3D44;" d="M476.18,296.68c-0.21,0.8-0.87,1.15-1.63,1.32
		c-0.35,0.08-0.48-0.26-0.38-0.56c0.25-0.78,0.79-1.28,1.61-1.39C476.17,295.99,476.17,296.35,476.18,296.68z"/>
	<path style="fill-rule:evenodd;clip-rule:evenodd;fill:#68474F;" d="M467.92,295.02c-0.29,0.61-0.5,1.28-0.88,1.82
		c-0.52,0.74-1.24,1.15-2.12,0.5c-0.19-0.14-0.32-0.39-0.16-0.63c0.1-0.15,0.28-0.37,0.4-0.35c0.28,0.03,0.13,0.3,0.14,0.47
		c0.02,0.34,0.25,0.36,0.5,0.35c0.49-0.02,0.82-0.3,1.01-0.73c0.26-0.57,0.35-1.23,0.91-1.64
		C467.82,294.85,467.89,294.92,467.92,295.02z"/>
	<path style="fill-rule:evenodd;clip-rule:evenodd;fill:#473A38;" d="M488.62,284.7c0.9,0.47,1.79,0.95,2.69,1.43
		c-0.1,0.09-0.21,0.19-0.32,0.28c-0.78,0-0.28,0.66-0.49,0.95c-0.14-0.39-0.27-0.79-0.41-1.18c-0.59-0.46-1.16-0.97-1.97-0.99
		C488.05,284.78,488.35,284.76,488.62,284.7z"/>
	<path style="fill-rule:evenodd;clip-rule:evenodd;fill:#644248;" d="M458.59,261.93c0.07-0.01,0.14-0.02,0.21-0.01
		c0.18,0,0.35-0.18,0.53,0c0.07,0,0.14-0.01,0.22-0.01c-0.14,0.73-0.28,1.45-0.44,2.18c-0.04,0.18-0.08,0.43-0.35,0.33
		c-0.09-0.04-0.17-0.25-0.17-0.38C458.57,263.34,458.58,262.63,458.59,261.93z"/>
	<path style="fill-rule:evenodd;clip-rule:evenodd;fill:#643B45;" d="M485.73,265.51c-0.08,0.07-0.15,0.15-0.23,0.22
		c-0.74-0.53-1.4-1.14-1.91-1.9c0.24-0.15,0.35-0.53,0.73-0.44C484.65,264.18,485.71,264.5,485.73,265.51z"/>
	<path style="fill-rule:evenodd;clip-rule:evenodd;fill:#2D2721;" d="M488.62,284.7c-0.17,0.16-0.33,0.32-0.5,0.48
		c-0.14,0.43-0.37,0.75-0.86,0.78c-0.29,0.08-0.57,0.13-0.85-0.03c-0.08,0.01-0.15-0.02-0.2-0.09c-0.09-0.04-0.17-0.1-0.22-0.18
		l-0.01-0.01c0.08-0.08,0.17-0.15,0.25-0.23c0.29-0.19,0.7-0.03,0.94-0.34c0.02-0.08,0.04-0.16,0.03-0.25
		c-0.01-0.04-0.02-0.08-0.04-0.13c-0.04-0.09-0.06-0.17-0.08-0.27c0.01-0.05,0.01-0.09,0.02-0.14c0.09-0.12,0.18-0.22,0.34-0.09
		c0.15,0.02,0.29,0.04,0.44,0.06c0.1,0.06,0.19,0.15,0.32,0.16c0.06-0.01,0.12,0.01,0.16,0.06
		C488.44,284.58,488.53,284.65,488.62,284.7L488.62,284.7z"/>
	<path style="fill-rule:evenodd;clip-rule:evenodd;fill:#5C4249;" d="M467.92,295.02c-0.06-0.07-0.13-0.14-0.19-0.21
		c0.43-0.74,1.15-1.03,1.92-1.24c0.24-0.07,0.54-0.06,0.59,0.22c0.07,0.38-0.27,0.31-0.48,0.28
		C468.91,293.96,468.55,294.75,467.92,295.02z"/>
	<path style="fill-rule:evenodd;clip-rule:evenodd;fill:#27201D;" d="M490.04,261.93c-0.18,0.09-0.35,0.17-0.53,0.26
		c-0.54-0.1-1.15,0.17-1.63-0.28c0.1-0.09,0.21-0.19,0.31-0.28C488.81,261.73,489.42,261.83,490.04,261.93z"/>
	<path style="fill-rule:evenodd;clip-rule:evenodd;fill:#291D16;" d="M487.18,282.29c0.15-0.07,0.29-0.13,0.44-0.2l0.01,0
		c0.08,0.08,0.17,0.16,0.28,0.21c0.23,0.2,0.46,0.39,0.69,0.59c0.09,0.02,0.17,0.07,0.21,0.16l0.02,0.01
		c0.11,0.11,0.09,0.21-0.04,0.29c-0.22-0.05-0.44-0.1-0.66-0.14c-0.1-0.03-0.18-0.09-0.25-0.16h0c-0.17-0.18-0.49-0.07-0.62-0.33
		C487.18,282.58,487.16,282.44,487.18,282.29z"/>
	<path style="fill-rule:evenodd;clip-rule:evenodd;fill:#564347;" d="M490.32,270.31c0.08-0.01,0.16-0.01,0.24-0.01
		c0.07,0.08,0.14,0.17,0.22,0.25c0.34,0.42,0.35,0.82-0.05,1.21c-0.13,0.08-0.27,0.16-0.4,0.23
		C490.32,271.43,490.32,270.87,490.32,270.31z"/>
	<path style="fill-rule:evenodd;clip-rule:evenodd;fill:#644248;" d="M458.61,258.13c-0.01,0.97-0.03,1.94-0.04,2.92
		C458.33,260.07,458.18,259.09,458.61,258.13z"/>
	<path style="fill-rule:evenodd;clip-rule:evenodd;fill:#573F44;" d="M481.63,290.72c-0.47-0.7-0.2-1.46-0.21-2.2
		C481.78,289.22,481.59,289.98,481.63,290.72z"/>
	<path style="fill-rule:evenodd;clip-rule:evenodd;fill:#443933;" d="M488.79,283.35c0.01-0.1,0.03-0.19,0.04-0.29
		c0.31,0.15,0.63,0.3,0.94,0.45c0.08,0,0.16,0,0.24,0c0.18,0.25-0.05,0.34-0.19,0.46C489.33,284.03,489.03,283.74,488.79,283.35z"/>
	<path style="fill-rule:evenodd;clip-rule:evenodd;fill:#976270;" d="M466.47,293.78c0.09,0.09,0.18,0.19,0.27,0.28
		c-0.08,0.25-0.22,0.62-0.49,0.43C465.93,294.25,466.26,293.99,466.47,293.78z"/>
	<path style="fill-rule:evenodd;clip-rule:evenodd;fill:#111009;" d="M487.89,270.32c0.32-0.17,0.52-0.14,0.5,0.29
		C488.01,270.87,487.88,270.72,487.89,270.32z"/>
	<path style="fill-rule:evenodd;clip-rule:evenodd;fill:#564347;" d="M490.33,272.49c0.27,0.32,0.27,0.63,0,0.94
		C490.32,273.12,490.32,272.8,490.33,272.49z"/>
	<path style="fill-rule:evenodd;clip-rule:evenodd;fill:#573F44;" d="M481.67,291.75c-0.01-0.34-0.02-0.68-0.04-1.02
		C481.9,291.06,481.89,291.4,481.67,291.75z"/>
	<path style="fill-rule:evenodd;clip-rule:evenodd;fill:#4A3739;" d="M486.4,285.94c0.29,0.01,0.57,0.02,0.85,0.03
		C486.96,286.24,486.68,286.26,486.4,285.94z"/>
	<path style="fill-rule:evenodd;clip-rule:evenodd;fill:#644248;" d="M458.57,261.12c0.01,0.27,0.01,0.54,0.02,0.81
		C458.33,261.67,458.39,261.39,458.57,261.12z"/>
	<path style="fill-rule:evenodd;clip-rule:evenodd;fill:#4A3739;" d="M485.98,285.67c0.07,0.06,0.15,0.12,0.22,0.18
		C486.13,285.79,486.05,285.73,485.98,285.67z"/>
	<path style="fill-rule:evenodd;clip-rule:evenodd;fill:#573F44;" d="M481.67,292.22c0-0.12,0-0.24,0.01-0.36
		C481.85,291.98,481.83,292.1,481.67,292.22z"/>
	<path style="fill-rule:evenodd;clip-rule:evenodd;fill:#443933;" d="M488.81,283.05c-0.07-0.05-0.14-0.1-0.21-0.16
		C488.67,282.95,488.74,283,488.81,283.05z"/>
	<path style="fill-rule:evenodd;clip-rule:evenodd;fill:#4A3739;" d="M487.91,282.3c-0.09-0.07-0.18-0.14-0.28-0.21
		C487.73,282.16,487.82,282.23,487.91,282.3z"/>
	<path style="fill-rule:evenodd;clip-rule:evenodd;fill:#413637;" d="M479.64,291.71c0.1,0.05,0.21,0.11,0.31,0.16
		C479.85,291.82,479.75,291.77,479.64,291.71z"/>
	<path style="fill-rule:evenodd;clip-rule:evenodd;fill:#53423A;" d="M499.14,284.22c0,0.18-0.01,0.36-0.02,0.54
		C498.93,284.57,498.93,284.39,499.14,284.22z"/>
	<path style="fill-rule:evenodd;clip-rule:evenodd;fill:#383637;" d="M459.23,253.56c0.11-0.09,0.21-0.17,0.32-0.26
		c0.69-0.17,1.33,0.18,2,0.22c3.81,0.26,7.67,0.02,11.42,0.75c5.58,1.09,11.26,1.32,16.85,2.29c2.17,0.38,4.39,0.42,6.46,1.27
		c0.05,0.27-0.14,0.37-0.34,0.45c-1.95-0.11-3.86-0.55-5.78-0.87c-4.51-0.74-9.07-1.15-13.58-1.88c-1.84-0.3-3.68-0.65-5.55-0.71
		c-0.54-0.1-1.07-0.19-1.62-0.24c-0.11-0.01-0.25,0.04-0.3-0.12c0.05,0.26,0.25,0.1,0.37,0.12c0.5,0.08,1.01,0.13,1.51,0.24
		c2.96,0.09,5.84,0.79,8.76,1.17c3.04,0.4,6.09,0.66,9.1,1.24c0.5,0.1,1.05,0.06,1.42,0.52c0.07,0.26,0.04,0.43-0.29,0.34
		c-3.72-0.54-7.45-1.09-11.17-1.61c-5.57-0.77-11.14-1.51-16.7-2.29C461.14,254.07,460.19,253.78,459.23,253.56z"/>
	<path style="fill-rule:evenodd;clip-rule:evenodd;fill:#3A3739;" d="M456.92,254.46c-0.08-0.15-0.16-0.3-0.24-0.44
		c3.79,0.65,7.58,1.32,11.38,1.96c3.29,0.55,6.6,0.98,9.86,1.64c3.49,0.71,6.97,1.52,10.5,1.99c0.47,0.06,0.95,0.2,1.41,0.13
		c1.52-0.23,1.89,0.68,1.9,1.88c0.03,2.15-0.01,4.3-0.01,6.45c-0.01,5.39-0.02,10.78-0.02,16.16c-0.12,0.13-0.25,0.13-0.39,0.03
		c-0.03-0.03-0.07-0.05-0.11-0.07c-0.52-0.75-0.37-1.62-0.36-2.44c0.06-2.99,0-5.99,0.16-8.98c-0.04-1.31,0.09-2.61,0.19-3.91
		c-0.15-2.52,0.52-5.04,0.02-7.57c-0.11-0.58-0.36-0.98-0.97-1.02c-4.67-0.38-9.18-1.65-13.78-2.47c-5.65-1-11.32-1.89-16.98-2.84
		C458.62,254.83,457.77,254.64,456.92,254.46z"/>
	<path style="fill-rule:evenodd;clip-rule:evenodd;fill:#413B3E;" d="M493.35,284.93c0-4.33,0.11-8.66-0.04-12.98
		c-0.15-4.21,0.49-8.41,0.03-12.62c0.18-0.28,0.38-0.52,0.71-0.16c0.42,1.15,0.39,2.38,0.35,3.54c-0.25,6.78-0.03,13.56-0.11,20.34
		c-0.01,0.67,0.09,1.36-0.22,2C493.75,285.43,493.55,285.2,493.35,284.93z"/>
	<path style="fill-rule:evenodd;clip-rule:evenodd;fill:#413B3E;" d="M489.98,258.11c0.1-0.07,0.2-0.14,0.29-0.21
		c1.31-0.19,2.52,0.13,3.65,0.78c-0.2,0.49-0.67,0.22-1,0.35C491.94,258.72,490.96,258.41,489.98,258.11z"/>
	<path style="fill-rule:evenodd;clip-rule:evenodd;fill:#1D1B17;" d="M493.35,284.93c0.16,0.09,0.33,0.18,0.49,0.28
		c0.1,0.08,0.15,0.18,0.14,0.31c-0.08,0.19-0.19,0.3-0.41,0.2c-0.13-0.03-0.26-0.06-0.39-0.08c-0.16-0.1-0.37-0.06-0.51-0.2
		c-0.07,0-0.14-0.02-0.19-0.06c-0.11-0.04-0.19-0.1-0.27-0.18l0.01,0c-0.06-0.21-0.03-0.32,0.22-0.23c0.08,0.02,0.17,0.04,0.25,0.06
		c0.1,0.04,0.18,0.09,0.26,0.16C493.07,285.1,493.21,285.02,493.35,284.93z"/>
	<path style="fill-rule:evenodd;clip-rule:evenodd;fill:#17160F;" d="M491.31,284.28c0.13-0.01,0.26-0.02,0.39-0.03
		c0.03,0.07,0.04,0.14,0.04,0.21c0.06,0.1,0.13,0.19,0.21,0.28l0.01,0c0.05,0.22,0,0.34-0.25,0.25c-0.25,0-0.52,0.06-0.7-0.2
		C491.1,284.61,491.2,284.44,491.31,284.28z"/>
	<path style="fill-rule:evenodd;clip-rule:evenodd;fill:#100F08;" d="M492.92,259.03c0.24-0.37,0.61-0.19,0.92-0.22
		c0.06,0.05,0.08,0.1,0.06,0.15c-0.01,0.05-0.03,0.08-0.04,0.08c-0.18,0.1-0.36,0.19-0.54,0.29
		C493.2,259.23,493.06,259.13,492.92,259.03z"/>
	<path style="fill-rule:evenodd;clip-rule:evenodd;fill:#574E3E;" d="M491.7,284.98c0.08-0.08,0.17-0.17,0.25-0.25
		c0.16,0.08,0.31,0.16,0.47,0.24c-0.07,0.08-0.15,0.16-0.22,0.23C492.04,285.13,491.87,285.05,491.7,284.98z"/>
	<path style="fill-rule:evenodd;clip-rule:evenodd;fill:#383637;" d="M458.56,253.54c0.2,0.01,0.4,0.01,0.6,0.02
		C458.96,253.71,458.76,253.71,458.56,253.54z"/>
	<path style="fill-rule:evenodd;clip-rule:evenodd;fill:#574E3E;" d="M491.95,284.73c-0.07-0.09-0.14-0.18-0.21-0.28
		C491.81,284.54,491.88,284.64,491.95,284.73z"/>
	<path style="fill-rule:evenodd;clip-rule:evenodd;fill:#574E3E;" d="M492.93,285.19c-0.09-0.05-0.17-0.11-0.26-0.16
		C492.76,285.08,492.84,285.14,492.93,285.19z"/>
	<path style="fill-rule:evenodd;clip-rule:evenodd;fill:#E8E5E8;" d="M491.19,268.88c0,1.28,0,2.57,0,3.85
		c-0.28,0.35,0.24,0.96-0.4,1.18c-0.03-0.72-0.05-1.44-0.08-2.15c0.02-0.4,0.03-0.8,0.05-1.21
		C491.26,270.08,490.73,269.36,491.19,268.88z"/>
	<path style="fill-rule:evenodd;clip-rule:evenodd;fill:#403838;" d="M459.57,256.15c-0.27,0.02-0.54,0.03-0.73-0.22
		C459.11,255.93,459.39,255.86,459.57,256.15z"/>
	<path style="fill-rule:evenodd;clip-rule:evenodd;fill:#4C4347;" d="M496.02,258.09c0.09-0.08,0.17-0.17,0.26-0.25
		c0.92,0.9,0.74,2.12,0.63,3.13c-0.46,4.31-0.56,8.62-0.67,12.94c-0.55-0.06-0.57-0.54-0.73-0.92c-0.16-1.54-0.06-3.08-0.01-4.63
		c0.1-3.12,0.59-6.23,0.35-9.36C495.84,258.68,495.82,258.37,496.02,258.09z"/>
	<path style="fill-rule:evenodd;clip-rule:evenodd;fill:#443B3D;" d="M495.85,273.2c0.13,0.24,0.26,0.47,0.39,0.71
		c0.05,2.23,0.17,4.45-0.1,6.67c-0.03,0.26-0.13,0.56,0.13,0.78c-0.04,0.73-0.42,1.5,0.24,2.15c0,0.09-0.01,0.17-0.01,0.26
		c-0.95,0.43-0.24,1.28-0.46,1.89c-0.37,0.09-0.57-0.11-0.71-0.41c-0.33-1.99-0.24-3.99-0.09-5.97c0.11-1.48,0.2-2.95,0.18-4.43
		C495.41,274.29,495.3,273.65,495.85,273.2z"/>
	<path style="fill-rule:evenodd;clip-rule:evenodd;fill:#241B13;" d="M496.52,283.53c-0.92-0.34-1.02-1.2-0.24-2.15
		c0.07-0.02,0.15-0.03,0.23-0.03c0,0.08,0.01,0.17,0.01,0.25c0.03,0.04,0.06,0.08,0.1,0.11c0,0.05,0.01,0.1,0.01,0.15
		c-0.01,0.15-0.05,0.3-0.08,0.45c-0.09,0.32,0.01,0.62,0.09,0.93C496.64,283.34,496.6,283.44,496.52,283.53L496.52,283.53z"/>
	<path style="fill-rule:evenodd;clip-rule:evenodd;fill:#383637;" d="M459.37,253.26c-0.17-0.06-0.35-0.12-0.52-0.17
		C459.05,253.04,459.25,253.03,459.37,253.26z"/>
	<path style="fill-rule:evenodd;clip-rule:evenodd;fill:#1E1B12;" d="M495.55,285.43c0.17,0.08,0.33,0.16,0.5,0.24
		c0.08,0.07,0.16,0.14,0.25,0.21c-0.01,0.1-0.02,0.2-0.03,0.3c-0.34,0.02-0.68,0.11-0.96-0.19c-0.07-0.09-0.11-0.2-0.11-0.31
		C495.24,285.51,495.33,285.38,495.55,285.43z"/>
	<path style="fill-rule:evenodd;clip-rule:evenodd;fill:#443B3D;" d="M496.52,283.52c0-0.07-0.01-0.14-0.01-0.21
		c0.01-0.42-0.07-0.85,0.07-1.27c0.05-0.1,0.12-0.18,0.21-0.24c0.07,0.17,0.14,0.35,0.2,0.52
		C496.89,282.74,497.28,283.36,496.52,283.52z"/>
	<path style="fill-rule:evenodd;clip-rule:evenodd;fill:#443B3D;" d="M496.51,281.84c0-0.08,0-0.16,0-0.25
		c0.09,0.07,0.18,0.14,0.27,0.21l-0.08,0.08C496.63,281.92,496.57,281.91,496.51,281.84z"/>
	<path style="fill-rule:evenodd;clip-rule:evenodd;fill:#403B3A;" d="M495.53,288.09c0.52,0.52,0.2,1.15,0.24,1.73
		C495.38,289.29,495.7,288.65,495.53,288.09z"/>
	<path style="fill-rule:evenodd;clip-rule:evenodd;fill:#403B3A;" d="M495.79,290.93c-0.01,0.44-0.01,0.87-0.02,1.31
		C495.5,291.8,495.48,291.36,495.79,290.93z"/>
	<path style="fill-rule:evenodd;clip-rule:evenodd;fill:#403B3A;" d="M495.77,292.34c0,0.19,0.01,0.37,0.01,0.56
		C495.52,292.72,495.65,292.53,495.77,292.34z"/>
	<path style="fill-rule:evenodd;clip-rule:evenodd;fill:#403B3A;" d="M495.76,290.16c0.01,0.2,0.01,0.4,0.02,0.6
		C495.55,290.56,495.52,290.36,495.76,290.16z"/>
	<path style="fill-rule:evenodd;clip-rule:evenodd;fill:#3C3839;" d="M492.66,287.13c0.08,0.08,0.17,0.16,0.25,0.24
		C492.83,287.29,492.75,287.21,492.66,287.13z"/>
	<path style="fill-rule:evenodd;clip-rule:evenodd;fill:#3C3839;" d="M492.15,286.9c0.1,0.06,0.19,0.12,0.29,0.18
		C492.34,287.02,492.25,286.96,492.15,286.9z"/>
	<path style="fill-rule:evenodd;clip-rule:evenodd;fill:#473A38;" d="M490.99,286.41c0.07,0.1,0.15,0.19,0.22,0.29
		C491.14,286.6,491.06,286.5,490.99,286.41z"/>
	<path style="fill-rule:evenodd;clip-rule:evenodd;fill:#1B160D;" d="M498.21,289.28c-0.16-0.17-0.32-0.34-0.48-0.51
		c0.45-0.36,1-0.09,1.49-0.23c0.63,0.16,1.31-0.13,1.92,0.2c-0.03,0.03-0.07,0.06-0.1,0.09c-0.18,0.17-0.4,0.24-0.63,0.3
		c-0.04,0.02-0.08,0.03-0.12,0.05c-0.07,0.04-0.15,0.08-0.21,0.13c-0.08,0.09-0.13,0.2-0.15,0.33c-0.02,0.23,0,0.44,0.03,0.65
		c0.04,0.24,0.16,0.46,0.26,0.68c-0.05,0.07-0.1,0.14-0.15,0.21c-0.06,0.1-0.14,0.19-0.16,0.3c-0.01,0.06-0.03,0.12-0.07,0.17
		c-0.13,0.14-0.29,0.17-0.46,0.1c-0.75-0.58-0.37-1.51-0.68-2.23C498.56,289.42,498.36,289.4,498.21,289.28z"/>
	<path style="fill-rule:evenodd;clip-rule:evenodd;fill:#3C3839;" d="M492.68,286.68c0.27-0.06,0.52-0.05,0.7,0.2
		C493.15,286.81,492.92,286.75,492.68,286.68z"/>
	<path style="fill-rule:evenodd;clip-rule:evenodd;fill:#3C3839;" d="M492.2,286.47c0.08,0.06,0.17,0.11,0.25,0.17
		C492.37,286.58,492.29,286.53,492.2,286.47z"/>
	<path style="fill-rule:evenodd;clip-rule:evenodd;fill:#474136;" d="M503.23,291.92c0.57,0.8,0.75,1.72,0.72,2.68
		c-0.01,0.2-0.17,0.42-0.31,0.59c-0.03,0.04-0.33-0.04-0.38-0.13c-0.52-0.98-1.37-1.89-0.73-3.14c0.27,0.05,0.59,0.06,0.46,0.49
		c-0.05,0.11-0.04,0.23-0.02,0.34c0-0.09-0.02-0.17-0.03-0.26C503.08,292.32,503.04,292.07,503.23,291.92z"/>
	<path style="fill-rule:evenodd;clip-rule:evenodd;fill:#0E0E04;" d="M502.96,292.44c-0.14-0.17-0.29-0.34-0.43-0.51l0,0
		c0.06-0.09,0.14-0.15,0.24-0.2c0.07-0.04,0.14-0.04,0.22-0.01c0.09,0.05,0.17,0.12,0.24,0.21l0,0
		C503.15,292.1,503.06,292.27,502.96,292.44L502.96,292.44z"/>
	<path style="fill-rule:evenodd;clip-rule:evenodd;fill:#474136;" d="M502.77,291.73c-0.08,0.07-0.16,0.13-0.24,0.2
		C502.61,291.86,502.69,291.8,502.77,291.73z"/>
	<path style="fill-rule:evenodd;clip-rule:evenodd;fill:#474136;" d="M503.23,291.93c-0.08-0.07-0.16-0.14-0.24-0.21
		C503.16,291.68,503.24,291.76,503.23,291.93z"/>
	<path style="fill-rule:evenodd;clip-rule:evenodd;fill:#7EA8C1;" d="M502.63,289.99c0.14,0.07,0.28,0.15,0.41,0.22
		C502.91,290.13,502.77,290.06,502.63,289.99z"/>
	<path style="fill-rule:evenodd;clip-rule:evenodd;fill:#45474D;" d="M500.23,290.97c-0.52-0.01-0.65-0.31-0.57-0.76
		c0.37-0.29,0.38-0.71,0.44-1.12c-0.01-0.05,0-0.1,0.05-0.13c0.31-0.04,0.62-0.09,0.92,0.04c0.08,0.01,0.17,0.03,0.25,0.04
		c0.08,0.24,0.15,0.47,0.23,0.71C500.81,289.84,500.72,290.62,500.23,290.97z"/>
	<path style="fill-rule:evenodd;clip-rule:evenodd;fill:#3A332A;" d="M498.65,301.29c-0.06,0-0.12-0.01-0.18-0.01
		c-0.02-0.3-0.04-0.59-0.06-0.89c-0.13-0.29-0.11-0.58-0.01-0.88l0-0.07c-0.15-0.25,0-0.57-0.21-0.8c-0.38-1.52-0.31-3.04,0.03-4.56
		c0.21-0.34-0.06-0.8,0.28-1.1c0.14-0.11,0.3-0.18,0.48-0.18c0.18,0.06,0.32,0.14,0.18,0.36c0.01,0.08-0.01,0.15-0.06,0.21
		c-0.07,0.11-0.17,0.21-0.17,0.35c-0.04,0.13-0.09,0.25-0.13,0.38c-0.02,0.09-0.07,0.18-0.13,0.25c0.01,1.56,0.01,3.12,0.02,4.68
		c0.12,0.25,0.05,0.54,0.16,0.8c0.02,0.25,0.04,0.5,0.06,0.75C498.61,300.73,498.69,301.03,498.65,301.29z"/>
	<path style="fill-rule:evenodd;clip-rule:evenodd;fill:#3F3431;" d="M499.17,293.16c-0.07-0.09-0.14-0.18-0.21-0.27
		c-0.25-0.56,0.03-0.91,0.47-1.2c0.14-0.01,0.28-0.01,0.42-0.02c-0.14,0.41-0.29,0.81-0.43,1.22
		C499.34,292.98,499.26,293.07,499.17,293.16z"/>
	<path style="fill-rule:evenodd;clip-rule:evenodd;fill:#403B3A;" d="M498.86,299.82c-0.24-0.23-0.18-0.52-0.16-0.8
		C498.76,299.29,498.81,299.56,498.86,299.82z"/>
	<path style="fill-rule:evenodd;clip-rule:evenodd;fill:#3F3431;" d="M498.95,293.71c0.06-0.12,0.11-0.23,0.17-0.35
		C499.06,293.48,499,293.6,498.95,293.71z"/>
	<path style="fill-rule:evenodd;clip-rule:evenodd;fill:#3F3431;" d="M498.69,294.34c0.04-0.08,0.09-0.17,0.13-0.25
		C498.78,294.18,498.73,294.26,498.69,294.34z"/>
	<path style="fill-rule:evenodd;clip-rule:evenodd;fill:#45474D;" d="M499.92,291.49c0.05-0.1,0.11-0.2,0.16-0.3
		C500.03,291.29,499.98,291.39,499.92,291.49z"/>
	<path style="fill-rule:evenodd;clip-rule:evenodd;fill:#423631;" d="M487.36,282.51c0.17,0.18,0.35,0.36,0.52,0.53
		c-0.98,0.08-0.98,0.54-0.44,1.19c-0.1,0.09-0.19,0.17-0.29,0.26c-0.57,0.07-0.85-0.28-0.85-0.75
		C486.31,283.08,486.63,282.59,487.36,282.51z"/>
	<path style="fill-rule:evenodd;clip-rule:evenodd;fill:#37342D;" d="M495.31,285.66c0,0.11-0.01,0.23-0.01,0.34
		c-0.58-0.08-1.2,0.06-1.74-0.28c0.11-0.11,0.22-0.21,0.34-0.32C494.44,285.08,494.9,285.24,495.31,285.66z"/>
	<path style="fill-rule:evenodd;clip-rule:evenodd;fill:#090902;" d="M489.83,283.98c0.06-0.15,0.12-0.31,0.19-0.46
		c0.04-0.07,0.07-0.14,0.11-0.21c0.19,0.29,0.2,0.55-0.15,0.73C489.92,284.03,489.88,284.01,489.83,283.98z"/>
	<path style="fill-rule:evenodd;clip-rule:evenodd;fill:#574E3E;" d="M492.66,285.44c0.17,0.07,0.34,0.13,0.51,0.2
		C493,285.57,492.83,285.5,492.66,285.44z"/>
	<path style="fill-rule:evenodd;clip-rule:evenodd;fill:#423631;" d="M488.2,284.45c-0.11-0.05-0.21-0.11-0.32-0.16
		C487.99,284.34,488.09,284.39,488.2,284.45z"/>
	<path style="fill-rule:evenodd;clip-rule:evenodd;fill:#473A38;" d="M488.62,284.71c-0.09-0.07-0.17-0.13-0.26-0.2
		C488.45,284.57,488.53,284.64,488.62,284.71z"/>
	<path style="fill-rule:evenodd;clip-rule:evenodd;fill:#574E3E;" d="M492.2,285.2c0.09,0.06,0.18,0.12,0.27,0.18
		C492.38,285.32,492.29,285.26,492.2,285.2z"/>
	<path style="fill-rule:evenodd;clip-rule:evenodd;fill:#443933;" d="M487.88,283.04c0.08,0.05,0.17,0.11,0.25,0.16
		C488.04,283.15,487.96,283.1,487.88,283.04z"/>
	<path style="fill-rule:evenodd;clip-rule:evenodd;fill:#050502;" d="M501.07,289c-0.31-0.01-0.61-0.03-0.92-0.04
		c0.27-0.23,0.59-0.15,0.9-0.13C501.07,288.88,501.07,288.94,501.07,289z"/>
	<path style="fill-rule:evenodd;clip-rule:evenodd;fill:#3F3431;" d="M498.72,293.1c-0.16,0.33-0.32,0.65-0.48,0.97
		c-0.01-1.6-0.01-3.2-0.02-4.8c0.16-0.08,0.32-0.16,0.47-0.23C499.03,290.39,499.16,291.74,498.72,293.1z"/>
	<path style="fill-rule:evenodd;clip-rule:evenodd;fill:#403B3A;" d="M498.2,298.64c0.28,0.21,0.24,0.51,0.21,0.8
		C498.17,299.22,498.21,298.92,498.2,298.64z"/>
	<path style="fill-rule:evenodd;clip-rule:evenodd;fill:#403B3A;" d="M498.41,299.51c0,0.29,0,0.59,0.01,0.88
		C498.22,300.1,498.11,299.81,498.41,299.51z"/>
	<path style="fill-rule:evenodd;clip-rule:evenodd;fill:#F6FAFD;" d="M467.74,287.58c-0.21-0.15-0.32-0.35-0.29-0.61
		c0.45-5.53,0.39-11.07,0.35-16.61c-0.01-2.08,0.11-2.08,2.1-1.64c0.31,0.07,0.62,0.12,0.93,0.18c0.33-0.09,0.67-0.11,1.01-0.06
		c0.5,0.1,1,0.19,1.49,0.32c0.17,0.07,0.28,0.19,0.36,0.36c2.16,0.87,4.48,1.06,6.72,1.55c0.06,0.04,0.12,0.07,0.18,0.11
		c0.57,0.99,0.18,2.03,0.1,3.03c-0.14,1.7-0.45,3.39-0.39,5.11c0,0.33,0,0.66-0.01,0.99c0,0.19-0.01,0.38-0.03,0.56
		c-0.1,1.19,0.1,2.38,0.03,3.58c-0.02,0.36,0.03,0.72-0.09,1.07c-0.2,0.57-0.6,0.75-0.92,0.19c-0.48-0.86-1.21-1.48-1.81-2.21
		c-0.55-0.67-0.58-1.38,0.02-2.06c0.87-0.97,1.34-1.95,0.73-3.32c-0.28-0.63-0.37-1.39-0.6-2.09c-0.47-1.44-1.63-2-2.74-2.37
		c-0.93-0.31-2.08-0.34-3.14,0.11c-1.17,0.49-1.57,1.57-2.19,2.5c-0.09,0.14-0.16,0.3-0.12,0.45c0.42,1.37,0.32,2.86,0.86,4.19
		c0.3,0.74,0.29,1.25-0.27,1.82c-0.64,0.65-1.22,1.34-1.39,2.32c-0.15,0.83-0.07,1.5,0.71,1.96c0.19,0.22,0.25,0.45,0.08,0.7
		c-0.5,0.33-1.02,0.32-1.54,0.06C467.83,287.68,467.79,287.63,467.74,287.58z"/>
	<path style="fill-rule:evenodd;clip-rule:evenodd;fill:#C02D45;" d="M481.19,287.37c0,1.19,0,2.39,0.01,3.58
		c0.02,0.28,0.31,0.66-0.27,0.72c-0.17-0.16-0.34-0.32-0.51-0.48c-0.17-0.36-0.46-0.66-0.51-1.07c-0.04-0.21-0.04-0.41-0.05-0.62
		c-0.27-2.06,0.45-4.05,0.37-6.11c-0.03-0.82-0.3-1.63-0.15-2.47c0.28-1.84-0.06-3.72,0.36-5.56c0.34-1.47,0.16-3,0.49-4.47
		c0.08-0.12,0.17-0.23,0.28-0.33c0.77,0.29,0.26,0.95,0.41,1.43c-0.48,1.49-0.62,3.05-0.43,4.56c0.37,2.94-0.02,5.85-0.03,8.78
		c0,0.52,0.02,1.03,0.03,1.55C481.29,287.05,481.3,287.21,481.19,287.37z"/>
	<path style="fill-rule:evenodd;clip-rule:evenodd;fill:#C02D44;" d="M473.69,269.51c-0.09,0.02-0.15-0.02-0.18-0.1
		c-0.53-0.26-1.11-0.33-1.68-0.41c-0.38,0.02-0.7-0.09-0.99-0.34c-0.88-0.24-1.76-0.49-2.64-0.71c-0.36-0.09-0.67-0.37-0.6-0.64
		c0.11-0.46,0.55-0.13,0.77-0.07c3.33,0.92,6.87,0.79,10.14,2.05c0.59,0.23,1.35,0.04,2.02,0.08c0.31,0.02,0.73,0.09,0.73,0.46
		c0.01,0.46-0.4,0.51-0.79,0.51c-1.76,0.02-3.49-0.22-5.17-0.76C474.76,269.41,474.24,269.2,473.69,269.51z"/>
	<path style="fill-rule:evenodd;clip-rule:evenodd;fill:#BE2E47;" d="M466.95,287.78c-0.65-0.09-0.41-0.6-0.4-0.94
		c0.11-6.24,0.31-12.48,0.19-18.72c0-0.23,0.05-0.46,0.08-0.68c0.35,0.07,0.38,0.37,0.43,0.63c0.08,0.43,0.19,0.86,0.18,1.29
		c-0.04,3.54-0.1,7.07-0.18,10.61c-0.06,2.55-0.17,5.1-0.25,7.64c0.06,0.06,0.07,0.1,0.03,0.14
		C467.01,287.77,466.98,287.78,466.95,287.78z"/>
	<path style="fill-rule:evenodd;clip-rule:evenodd;fill:#BF2E45;" d="M479.96,290.96c-0.01,0.07-0.01,0.14-0.01,0.21
		c-0.08,0.1-0.16,0.19-0.28,0.25l-0.08-0.01c0,0-0.08,0-0.08,0c-3.29-1.49-6.8-1.99-10.34-2.38c-0.63-0.07-1.25-0.17-1.88-0.21
		c-0.37-0.03-0.37-0.2-0.24-0.46c0.07-0.3,0.26-0.47,0.57-0.5c1.56-0.06,3.09,0.12,4.57,0.66c1.24,0.46,2.53,0.7,3.85,0.65
		c0.99-0.04,1.87,0.36,2.8,0.54c0.32,0.1,0.64,0.21,0.92,0.39C479.99,290.35,480.22,290.6,479.96,290.96z"/>
	<path style="fill-rule:evenodd;clip-rule:evenodd;fill:#181810;" d="M467.47,288.05c-0.14,0.11-0.28,0.21-0.42,0.32
		c-0.27-0.15-0.08-0.38-0.1-0.58c0.01-0.06,0.03-0.12,0.05-0.18c0.25-0.01,0.49-0.02,0.74-0.03l0,0
		C467.88,287.87,467.65,287.94,467.47,288.05z"/>
	<path style="fill-rule:evenodd;clip-rule:evenodd;fill:#111006;" d="M481.2,270.58c-0.02,0.07-0.04,0.15-0.07,0.22
		c-0.12,0.4-0.25,0.79-0.72,0.27l0,0C480.46,270.55,480.83,270.56,481.2,270.58z"/>
	<path style="fill-rule:evenodd;clip-rule:evenodd;fill:#1F1B18;" d="M470.84,268.66c0.32,0.08,0.64,0.16,0.96,0.24
		c0.09,0.04,0.12,0.08,0.09,0.12c-0.03,0.04-0.06,0.06-0.09,0.06c-0.34,0.05-0.7,0.17-0.96-0.18
		C470.83,268.82,470.84,268.74,470.84,268.66z"/>
	<path style="fill-rule:evenodd;clip-rule:evenodd;fill:#BF2D44;" d="M484.98,302.97c1.31-0.27,2.13-1.18,2.86-2.2
		c0.11-0.06,0.2-0.04,0.26,0.07c0,0.28,0.02,0.56,0.01,0.84c-0.01,1.04,0.17,2.49-0.63,2.89c-0.8,0.4-1.7-0.82-2.55-1.35
		C484.87,303.13,484.88,303.04,484.98,302.97z"/>
	<path style="fill-rule:evenodd;clip-rule:evenodd;fill:#131307;" d="M488.39,298.37c-0.05,0.25-0.1,0.5-0.15,0.74
		c-0.03-0.02-0.08-0.04-0.09-0.07C488.06,298.76,488.13,298.53,488.39,298.37L488.39,298.37z"/>
	<path style="fill-rule:evenodd;clip-rule:evenodd;fill:#8A6888;" d="M484.98,302.97c-0.01,0.08-0.02,0.17-0.04,0.25
		c-0.09-0.05-0.18-0.11-0.27-0.16C484.77,303.03,484.88,303,484.98,302.97z"/>
	<path style="fill-rule:evenodd;clip-rule:evenodd;fill:#617AAB;" d="M488.1,300.84c-0.09-0.02-0.17-0.05-0.26-0.07
		C487.99,300.57,488.07,300.62,488.1,300.84z"/>
	<path style="fill-rule:evenodd;clip-rule:evenodd;fill:#BF2C43;" d="M461.51,298.18c-0.28-0.05-0.52-0.1-0.75-0.15
		c-2.57-0.52-2.94-1.23-1.87-3.69c0.05-0.13,0.19-0.22,0.28-0.33c0.11,0.16,0.26,0.3,0.33,0.48c0.51,1.15,1.24,2.12,2.24,2.89
		c0.21,0.17,0.7,0.26,0.5,0.66C462.17,298.19,461.74,298.15,461.51,298.18z"/>
	<path style="fill-rule:evenodd;clip-rule:evenodd;fill:#573F44;" d="M481.19,287.37c0-0.16,0-0.32,0-0.48
		c0.06,0.17,0.13,0.34,0.19,0.5C481.32,287.38,481.26,287.37,481.19,287.37z"/>
	<path style="fill-rule:evenodd;clip-rule:evenodd;fill:#D4B0BC;" d="M472.93,293.77c0.16,0.1,0.22,0.14,0.27,0.18
		c-0.07,0.08-0.13,0.17-0.21,0.22c-0.03,0.01-0.18-0.09-0.17-0.14C472.82,293.93,472.9,293.84,472.93,293.77z"/>
	<path style="fill-rule:evenodd;clip-rule:evenodd;fill:#BE2D43;" d="M485.73,265.51c-0.3-0.82-1.64-0.95-1.41-2.12
		c0.16-0.01,0.32-0.02,0.47-0.02c2.84-0.02,3.91,1.1,3.8,3.94c-0.02,0.43-0.01,0.86-0.01,1.29c-0.11,0.2-0.21,0.55-0.34,0.57
		c-0.38,0.05-0.29-0.37-0.41-0.58C487.24,267.48,486.79,266.29,485.73,265.51z"/>
	<path style="fill-rule:evenodd;clip-rule:evenodd;fill:#F2F0F1;" d="M490.8,273.92c0.13-0.4,0.26-0.79,0.4-1.18
		c0,3.83,0,7.65,0,11.48c-0.57-0.02-0.66-0.36-0.73-0.87c-0.27-1.99,0.31-3.97,0.07-5.96c0.25-0.9-0.03-1.83,0.16-2.74
		C490.74,274.4,490.77,274.16,490.8,273.92z"/>
	<path style="fill-rule:evenodd;clip-rule:evenodd;fill:#564347;" d="M490.71,274.65c-0.01,0.91,0.12,1.84-0.16,2.74
		C490.59,276.47,490.33,275.54,490.71,274.65z"/>
	<path style="fill-rule:evenodd;clip-rule:evenodd;fill:#BF2C43;" d="M459.33,261.92c-0.18,0.04-0.35,0.25-0.53,0
		c0.01-0.32,0.03-0.63,0.04-0.95c0.03-2.68,0.48-2.94,2.87-1.65c0.13,0.07,0.25,0.19,0.37,0.28c-0.14,0.12-0.26,0.26-0.41,0.36
		C460.81,260.52,459.61,260.67,459.33,261.92z"/>
	<path style="fill-rule:evenodd;clip-rule:evenodd;fill:#E6CEDA;" d="M480.56,298.16c-0.16-0.04-0.33-0.05-0.29-0.28
		c0.14-0.68,0.69-0.81,1.25-0.92c0.12-0.02,0.4-0.04,0.31,0.2C481.6,297.71,481.05,297.92,480.56,298.16z"/>
	<path style="fill-rule:evenodd;clip-rule:evenodd;fill:#BE2D44;" d="M487.36,282.51c-0.52,0.61-1.55,1.17-0.21,1.98l0,0
		c0.08,0.08,0.17,0.15,0.26,0.21l0.02,0.01c0.06,0.09,0.13,0.18,0.19,0.27c-0.19,1-0.81,0.69-1.4,0.45
		c-0.96-1.39-0.45-3.03,0.97-3.15C487.24,282.36,487.3,282.43,487.36,282.51z"/>
	<path style="fill-rule:evenodd;clip-rule:evenodd;fill:#413637;" d="M479.96,290.96c-0.08-0.24-0.17-0.48-0.25-0.72
		c0.16-0.13,0.33-0.15,0.49,0c0.07,0.32,0.15,0.64,0.22,0.96C480.27,291.13,480.12,291.04,479.96,290.96z"/>
	<path style="fill-rule:evenodd;clip-rule:evenodd;fill:#573F44;" d="M480.93,291.68c0.32-0.16,0.22-0.47,0.27-0.72
		c0.24,0.24,0.29,0.52,0.09,0.79C481.26,291.79,481.06,291.71,480.93,291.68z"/>
	<path style="fill-rule:evenodd;clip-rule:evenodd;fill:#413637;" d="M479.67,291.42c0.09-0.08,0.19-0.17,0.28-0.25
		C479.86,291.26,479.77,291.34,479.67,291.42z"/>
	<path style="fill-rule:evenodd;clip-rule:evenodd;fill:#E8CBDA;" d="M475,297.45c-0.09-0.08-0.16-0.14-0.23-0.2
		c0.11-0.1,0.2-0.22,0.33-0.29c0.04-0.02,0.15,0.08,0.22,0.13C475.23,297.2,475.13,297.31,475,297.45z"/>
	<path style="fill-rule:evenodd;clip-rule:evenodd;fill:#423631;" d="M487.41,284.7c-0.09-0.07-0.17-0.14-0.26-0.21
		C487.24,284.55,487.32,284.63,487.41,284.7z"/>
	<path style="fill-rule:evenodd;clip-rule:evenodd;fill:#423631;" d="M487.62,284.98c-0.06-0.09-0.13-0.18-0.19-0.27
		C487.49,284.8,487.55,284.89,487.62,284.98z"/>
	<path style="fill-rule:evenodd;clip-rule:evenodd;fill:#FCFBFB;" d="M495.31,285.66c-0.47-0.09-0.94-0.17-1.41-0.26
		c0-0.07-0.02-0.13-0.06-0.19c0.01-8.72,0.02-17.45,0.03-26.17c-0.01-0.08-0.01-0.15-0.02-0.23c-1.19-0.31-2.38-0.61-3.57-0.92
		c-2.64-0.45-5.28-0.93-7.93-1.33c-3.83-0.58-7.67-1.09-11.5-1.64c-0.06-0.05-0.08-0.1-0.06-0.15s0.04-0.07,0.06-0.07
		c2.98-0.2,5.82,0.77,8.74,1.06c3.58,0.36,7.13,0.95,10.71,1.34c1.94,0.21,3.84,0.55,5.73,0.99c0.34,1.1,0.41,2.2,0.33,3.38
		c-0.25,3.91-0.77,7.81-0.5,11.74c-0.1,4.08-0.2,8.15-0.3,12.23C495.47,285.51,495.39,285.58,495.31,285.66z"/>
	<path style="fill-rule:evenodd;clip-rule:evenodd;fill:#E1DEE7;" d="M470.84,254.7c0,0.07,0,0.15,0,0.22
		c-0.08,0.01-0.16,0.03-0.23,0.02c-0.6-0.11-1.21-0.22-1.81-0.33c0.03-0.04,0.07-0.13,0.09-0.13
		C469.55,254.53,470.23,254.32,470.84,254.7z"/>
	<path style="fill-rule:evenodd;clip-rule:evenodd;fill:#55608F;" d="M467.21,254.21c0.11,0.05,0.2,0.09,0.3,0.13
		c-0.08,0.05-0.16,0.13-0.25,0.13c-0.1,0-0.2-0.06-0.3-0.09C467.03,254.33,467.11,254.27,467.21,254.21z"/>
	<path style="fill-rule:evenodd;clip-rule:evenodd;fill:#314277;" d="M465.93,254.02c0.06,0.04,0.12,0.07,0.18,0.1
		c-0.06,0.03-0.12,0.09-0.18,0.09c-0.06,0-0.12-0.06-0.18-0.09C465.81,254.08,465.87,254.05,465.93,254.02z"/>
	<path style="fill-rule:evenodd;clip-rule:evenodd;fill:#BC334D;" d="M496.51,281.84c0.07,0.02,0.13,0.03,0.2,0.05
		c-0.01,0.48,0.27,1.01-0.2,1.43c-0.44-0.35-0.36-0.79-0.23-1.24C496.37,282,496.44,281.92,496.51,281.84L496.51,281.84z"/>
	<path style="fill-rule:evenodd;clip-rule:evenodd;fill:#443B3D;" d="M496.52,281.84c-0.08,0.08-0.15,0.16-0.23,0.24
		C496.37,282,496.44,281.92,496.52,281.84z"/>
	<path style="fill-rule:evenodd;clip-rule:evenodd;fill:#BA2D42;" d="M498.72,293.1c-0.01-1.35-0.02-2.71-0.03-4.06
		c0.75,0.03,0.44,0.62,0.43,0.95c-0.02,0.6,0.2,1.13,0.31,1.69c-0.16,0.4-0.31,0.8-0.47,1.2
		C498.88,292.96,498.8,293.03,498.72,293.1z"/>
	<path style="fill-rule:evenodd;clip-rule:evenodd;fill:#F2F3F6;" d="M500.09,289.09c0.06,0.22,0.57,0.13,0.41,0.4
		c-0.18,0.3-0.23,0.88-0.85,0.72c0-0.3,0-0.59,0.01-0.89c0.05-0.12,0.14-0.2,0.25-0.26C499.97,289.08,500.03,289.08,500.09,289.09z"
		/>
	<path style="fill-rule:evenodd;clip-rule:evenodd;fill:#45474D;" d="M499.92,289.06c-0.08,0.09-0.17,0.17-0.25,0.26
		C499.65,289.14,499.72,289.04,499.92,289.06z"/>
	<path style="fill-rule:evenodd;clip-rule:evenodd;fill:#E7E6EA;" d="M502.97,292.45c0.04,0.07,0.08,0.13,0.11,0.2
		c0.22,0.41,0.42,0.83,0.31,1.31c0,0.01-0.23,0-0.25-0.05C502.97,293.44,502.48,293,502.97,292.45L502.97,292.45z"/>
	<path style="fill-rule:evenodd;clip-rule:evenodd;fill:#383435;" d="M467.47,288.05c0.09-0.16,0.18-0.31,0.27-0.47
		c0.55,0,1.1,0,1.65,0c0.18-0.04,0.21-0.29,0.42-0.31c0.15-0.03,0.19-0.15,0.21-0.28c0.09-0.28,0.18-0.56,0.25-0.84
		c0.5-0.84,0.76-1.74,0.76-2.71c0-0.38-0.02-0.78-0.58-0.56c-1.31,0.51-1.76,2.59-0.81,3.68c0.16,0.46-0.22,0.44-0.47,0.52
		c-1.13-0.53-1.31-2.11-0.41-3.54c0.11-0.17,0.24-0.33,0.39-0.45c0.88-0.72,1.3-1.32,0.66-2.64c-0.55-1.13-0.7-2.62-0.75-3.9
		c-0.02-0.62,0.51-2.09,1.5-2.46c0.91-0.34,1.62-1.9,2.91-0.71c1.38-1.31,2.2,0.56,3.29,0.78c0.78,0.15,1.39,1.91,1.75,3.05
		c0.15,0.48,0.38,1.11,0.38,1.51c0,0.88,0.03,2.02-0.85,2.63c-1,0.69-1.01,1.28-0.18,2.08c0.51,0.49,0.93,1.09,1.41,1.61
		c0.23,0.24,0.05,0.79,0.56,0.75c0.06-0.01,0.09-0.56,0.09-0.86c0.02-1.35,0.03-2.69,0.05-4.04c0.08-0.11,0.15-0.12,0.23-0.01
		c0.5,2.96-0.06,5.92-0.01,8.88c-0.14,0.14-0.31,0.14-0.48,0.07c-0.19-0.17-0.26-0.4-0.27-0.64c-0.04-0.87-0.14-1.58-1.32-1.01
		c-0.45,0.22-0.65-0.26-0.91-0.56c-1.16-1.34-2.05-2.96-3.75-3.75c-1.04-0.49-1.18-0.42-1.45,0.72c-0.12,0.5-0.25,1-0.45,1.49
		c-0.58,1.38-0.07,1.83,1.4,2.09c2.05,0.36,4.13,0.63,6.14,1.22c0.11,0.03,0.18,0.15,0.22,0.27c-0.01,0.2-0.13,0.32-0.31,0.37
		c-3.28-0.45-6.54-1.03-9.76-1.79C468.67,288.09,468.06,288.1,467.47,288.05z"/>
	<path style="fill-rule:evenodd;clip-rule:evenodd;fill:#484142;" d="M480.2,280.87c-0.08,0-0.16,0.01-0.23,0.01
		c0.01-0.16,0.01-0.33,0.02-0.49c0.14-0.31,0.13-0.63,0.01-0.94c-0.23-2.39,0.47-4.72,0.49-7.1c0-0.43-0.05-0.86-0.08-1.28
		c0.35,0.21,0.53-0.06,0.72-0.27c-0.2,3.02-0.8,6-0.72,9.04C480.42,280.18,480.28,280.53,480.2,280.87z"/>
	<path style="fill-rule:evenodd;clip-rule:evenodd;fill:#21201B;" d="M469.17,287.08c0.16-0.14,0.32-0.28,0.47-0.42
		c0.17-0.27,0.39-0.41,0.71-0.26c0.5,0.43-0.19,0.44-0.24,0.68c-0.01,0.17-0.1,0.25-0.26,0.27c-0.2-0.01-0.13,0.52-0.47,0.22
		C469.39,287.38,469.44,287.16,469.17,287.08z"/>
	<path style="fill-rule:evenodd;clip-rule:evenodd;fill:#4E3C40;" d="M471.79,269.08c0-0.06,0-0.12,0-0.18
		c0.63-0.01,1.24,0.02,1.71,0.51C472.93,269.3,472.36,269.19,471.79,269.08z"/>
	<path style="fill-rule:evenodd;clip-rule:evenodd;fill:#383435;" d="M480,279.45c0.28,0.32,0.28,0.63-0.01,0.94
		C479.99,280.08,480,279.76,480,279.45z"/>
	<path style="fill-rule:evenodd;clip-rule:evenodd;fill:#312B28;" d="M479.66,289.72c0.18,0.01,0.36,0.03,0.53,0.04
		c0,0.16,0.01,0.32,0.01,0.49c-0.16,0-0.33,0-0.49,0c-0.24-0.07-0.48-0.15-0.71-0.22c0.09-0.1,0.18-0.19,0.28-0.29
		C479.39,289.62,479.52,289.62,479.66,289.72z"/>
	<path style="fill-rule:evenodd;clip-rule:evenodd;fill:#F9F0EA;" d="M476.58,282.3c-1.81,1.51-2.12,1.53-4.85-0.02
		c-1.48-0.84-1.71-2.25-1.55-3.8c0.02-0.19,0.01-0.46,0.27-0.41c0.15,0.03,0.26,0.26,0.39,0.4c0.04,0,0.08,0,0.12,0
		c0.08,0,0.16,0.02,0.24,0.05c0.08,0.02,0.15,0.05,0.22,0.08c0.07,0.02,0.15,0.05,0.22,0.07c0.11,0.02,0.22,0.04,0.34,0.04
		c0.08,0,0.15,0.01,0.23,0.01l0.11,0.01c0.74-0.63,0.54-1.36,0.12-2.03c-0.38-0.62-0.92-0.47-1.45-0.13
		c-0.1,0.06-0.23,0.3-0.35,0.07c-0.05-0.1,0.06-0.29,0.13-0.42c0.63-1.33,2.76-1.79,4.29-0.94
		C477.17,276.48,478.01,280.35,476.58,282.3L476.58,282.3z"/>
	<path style="fill-rule:evenodd;clip-rule:evenodd;fill:#275BA3;" d="M479.66,289.72c-0.13,0.01-0.26,0.01-0.38,0.02
		c-1.03-0.46-2.16-0.6-3.24-0.65c-1.37-0.06-2.58-0.69-3.93-0.8c-1.27-0.1-1.61-1.03-0.95-2.16c0.44-0.76,0.51-1.58,0.67-2.39
		c0.1-0.52,0.29-0.79,0.89-0.59c2.29,0.75,3.51,2.67,4.86,4.43c0.15,0.2,0.09,0.58,0.51,0.45c1.73-0.54,1.73-0.54,1.66,1.21
		C479.72,289.4,479.68,289.56,479.66,289.72z"/>
	<path style="fill-rule:evenodd;clip-rule:evenodd;fill:#C1111E;" d="M470.35,286.4c-0.24,0.09-0.47,0.17-0.71,0.26
		c-1.14-0.27-1.4-1.98-0.35-3.14c0.45-0.49,0.85-1.48,1.69-1.14c0.96,0.39,0.26,1.33,0.26,2.01
		C471.25,285.15,470.93,285.86,470.35,286.4z"/>
	<path style="fill-rule:evenodd;clip-rule:evenodd;fill:#C1111F;" d="M479.22,286.45c0.07,0.78-0.38,0.77-0.89,0.54
		c-1.25-0.56-2.06-1.59-2.73-2.72c-0.43-0.73,0.41-0.9,0.74-1.25c0.4-0.44,0.61-0.04,0.9,0.28
		C478.09,284.25,479.04,285.1,479.22,286.45z"/>
	<path style="fill-rule:evenodd;clip-rule:evenodd;fill:#BD1420;" d="M478.31,276.95c-0.16,0.58-0.26,1.07-0.66,1.15
		c-0.49,0.1-0.32-0.45-0.39-0.7c-0.4-1.48-1.45-2.34-2.76-2.94c-0.28-0.13-0.68-0.12-0.66-0.55c0.01-0.15,0.18-0.37,0.33-0.43
		c0.35-0.14,0.64,0.05,0.8,0.36c0.27,0.52,0.58,0.83,1.2,0.47c0.1-0.06,0.33,0.02,0.44,0.11
		C477.46,275.13,476.97,276.67,478.31,276.95z"/>
	<path style="fill-rule:evenodd;clip-rule:evenodd;fill:#BC1421;" d="M473.22,273.97c0.05,0.36-0.2,0.4-0.44,0.43
		c-0.68,0.1-1.28,0.41-1.85,0.78c-0.16,0.1-0.36,0.24-0.51,0c-0.14-0.23-0.09-0.56,0.14-0.61c0.71-0.18,1.21-0.6,1.74-1.06
		C472.59,273.25,473.06,273.54,473.22,273.97z"/>
	<path style="fill-rule:evenodd;clip-rule:evenodd;fill:#ECEBEE;" d="M471.59,277.99c-0.01-0.42-0.87,0.14-0.62-0.52
		c0.09-0.23,0.34-0.48,0.56-0.55c0.43-0.13,0.46,0.32,0.59,0.57c0.19,0.36,0.38,0.78-0.33,0.77
		C471.66,278.22,471.59,278.13,471.59,277.99z"/>
	<path style="fill-rule:evenodd;clip-rule:evenodd;fill:#AB1B23;" d="M477.96,278.59c0.28,0.14,0.66,0.23,0.52,0.65
		c-0.07,0.2-0.33,0.49-0.46,0.47c-0.44-0.07-0.35-0.53-0.42-0.84C477.55,278.66,477.68,278.48,477.96,278.59z"/>
	<path style="fill-rule:evenodd;clip-rule:evenodd;fill:#2B2722;" d="M471.59,277.99c0.07,0.09,0.14,0.18,0.21,0.28
		c0.18,0.16,0.35,0.33,0.53,0.49l0,0c-0.13,0-0.18,0.12-0.28,0.17c-0.16,0-0.32,0-0.48,0c-0.11-0.07-0.2-0.16-0.34-0.16
		c-0.07,0.02-0.11-0.01-0.14-0.07c-0.08-0.06-0.16-0.14-0.24-0.21l0,0C470.98,278.15,471.24,278,471.59,277.99z"/>
	<path style="fill-rule:evenodd;clip-rule:evenodd;fill:#B61722;" d="M470.22,276.19c-0.22,0.26,0.03,0.81-0.52,0.79
		c-0.22-0.01-0.32-0.23-0.28-0.44c0.06-0.33,0.31-0.55,0.62-0.63C470.3,275.84,470.2,276.07,470.22,276.19z"/>
	<path style="fill-rule:evenodd;clip-rule:evenodd;fill:#A8C3D7;" d="M469.85,287.35c0.09-0.09,0.17-0.18,0.26-0.27
		c0.38,0.19,0.41,0.51,0.1,0.69C469.94,287.92,469.87,287.59,469.85,287.35z"/>
	<path style="fill-rule:evenodd;clip-rule:evenodd;fill:#0E0E04;" d="M476.58,282.3c0.11,0.04,0.21,0.08,0.32,0.11
		C476.7,282.64,476.67,282.4,476.58,282.3L476.58,282.3z"/>
	<path style="fill-rule:evenodd;clip-rule:evenodd;fill:#473D3F;" d="M474.71,282.55c-1.21,0.02-2.22-0.65-3.27-1.2
		c-0.19-0.1-0.47-0.29-0.27-0.55c0.22-0.29,0.42,0.02,0.6,0.13c1.23,0.77,2.46,1.47,4,0.9c0.09-0.03,0.21,0.05,0.32,0.07
		c-0.07,0.13-0.11,0.28-0.22,0.37C475.55,282.56,475.16,282.61,474.71,282.55z"/>
	<path style="fill-rule:evenodd;clip-rule:evenodd;fill:#3E3839;" d="M475.14,279.48c-0.13-0.24-0.26-0.47-0.38-0.71
		c-0.23-0.5,0.01-0.84,0.4-1.12c0.32-0.24,0.61-0.12,0.84,0.15c0.45,0.52,0.66,1.13,0.34,1.76c-0.19,0.38-0.57,0.58-0.95,0.13
		c0.08-0.22,0.07-0.46,0.21-0.67c0,0,0.05-0.06,0.05-0.06s-0.03,0.05-0.05,0.06C475.41,279.17,475.37,279.42,475.14,279.48z"/>
	<path style="fill-rule:evenodd;clip-rule:evenodd;fill:#4E4040;" d="M474.95,280.83c-0.12,0.15-0.23,0.3-0.34,0.44
		c-0.07-0.12-0.14-0.25-0.21-0.37c-0.14-0.24-0.1-0.69-0.57-0.53c-0.27,0.09-0.29,0.83-0.73,0.33c-0.08-0.08,0.3-0.72,0.59-0.94
		c0.39-0.3,0.75-0.02,0.98,0.36C474.78,280.32,474.84,280.56,474.95,280.83z"/>
	<path style="fill-rule:evenodd;clip-rule:evenodd;fill:#15140D;" d="M475.64,278.97c-0.07,0.25,0.35,0.67-0.26,0.72
		c-0.08-0.07-0.16-0.14-0.24-0.21C475.15,279.16,475.29,278.97,475.64,278.97L475.64,278.97z"/>
	<path style="fill-rule:evenodd;clip-rule:evenodd;fill:#383435;" d="M472.04,278.92c0.09-0.06,0.19-0.11,0.28-0.17
		C472.23,278.81,472.13,278.86,472.04,278.92z"/>
	<path style="fill-rule:evenodd;clip-rule:evenodd;fill:#383435;" d="M471.22,278.76c0.11,0.05,0.22,0.1,0.34,0.16
		C471.45,278.87,471.33,278.81,471.22,278.76z"/>
	<path style="fill-rule:evenodd;clip-rule:evenodd;fill:#383435;" d="M470.84,278.48c0.08,0.07,0.16,0.14,0.24,0.21
		C471,278.62,470.92,278.55,470.84,278.48z"/>
	<path style="fill-rule:evenodd;clip-rule:evenodd;fill:#2E3245;" d="M473.3,286.76c0.1-0.13,0.21-0.41,0.32-0.41
		c0.35,0,0.37,0.35,0.46,0.59c0.09,0.24-0.03,0.4-0.26,0.4C473.51,287.33,473.34,287.13,473.3,286.76z"/>
	<path style="fill-rule:evenodd;clip-rule:evenodd;fill:#24262B;" d="M473.41,284.76c0,0-0.1-0.16-0.08-0.3
		c0.02-0.12,0.16-0.24,0.28-0.3c0.03-0.02,0.2,0.11,0.25,0.21C473.93,284.54,473.85,284.66,473.41,284.76z"/>
	<path style="fill-rule:evenodd;clip-rule:evenodd;fill:#2F302F;" d="M478.41,288.91c-0.05-0.05-0.13-0.11-0.12-0.15
		c0.02-0.09,0.08-0.16,0.13-0.24c0.04,0.06,0.1,0.12,0.1,0.19C478.52,288.77,478.45,288.83,478.41,288.91z"/>
	<path style="fill-rule:evenodd;clip-rule:evenodd;fill:#DEDDE3;" d="M475.63,278.97c-0.07-0.29-0.74-0.3-0.38-0.78
		c0.05-0.07,0.31-0.09,0.38-0.03C475.9,278.4,476.1,278.7,475.63,278.97L475.63,278.97z"/>
</g>
</svg>
