<?xml version="1.0" encoding="utf-8"?>
<!-- Generator: Adobe Illustrator 16.0.0, SVG Export Plug-In . SVG Version: 6.00 Build 0)  -->
<!DOCTYPE svg PUBLIC "-//W3C//DTD SVG 1.0//EN" "http://www.w3.org/TR/2001/REC-SVG-20010904/DTD/svg10.dtd" [
	<!ENTITY ns_flows "http://ns.adobe.com/Flows/1.0/">
	<!ENTITY ns_extend "http://ns.adobe.com/Extensibility/1.0/">
	<!ENTITY ns_ai "http://ns.adobe.com/AdobeIllustrator/10.0/">
	<!ENTITY ns_graphs "http://ns.adobe.com/Graphs/1.0/">
]>
<svg version="1.0" id="toilet_xA0_Image_1_" xmlns:x="&ns_extend;" xmlns:i="&ns_ai;" xmlns:graph="&ns_graphs;"
	 xmlns="http://www.w3.org/2000/svg" xmlns:xlink="http://www.w3.org/1999/xlink" xmlns:a="http://ns.adobe.com/AdobeSVGViewerExtensions/3.0/"
	 x="0px" y="0px" width="74.64px" height="92.16px" viewBox="0 0 74.64 92.16" style="enable-background:new 0 0 74.64 92.16;"
	 xml:space="preserve">
<g>
	<path style="fill-rule:evenodd;clip-rule:evenodd;fill:#1C2521;" d="M11.04,49.45c-0.05-0.75-0.43-1.49-0.71-2.06
		c-1.26-2.49-0.55-5.11-0.81-7.65c-0.47-4.66,0.1-9.38-0.57-14.04c-0.05-0.31-0.05-0.64-0.03-0.96c0.1-1.38,0.36-2.57-0.78-3.96
		c-1.07-1.3-1.1-3.55-0.35-5.14c1.06-2.25,1.83-4.73,3.72-6.53c0.23-0.09,0.31,0.05,0.37,0.23c0.03,0.58-0.35,0.95-0.65,1.38
		c-0.46,0.63-0.89,1.28-1.21,2c-0.53,1.17-0.54,1.17,0.72,1.63c0.46,0.12,0.92,0.2,1.4,0.2c0.33-0.01,0.65,0,0.97,0.06
		c3.24,0.48,6.47,0.53,9.7-0.07c0.24-0.03,0.49,0,0.73-0.06c0.11-0.03,0.22-0.06,0.34-0.08c0.27-0.05,0.55-0.06,0.83-0.08
		c0.69,0.03,1.07-0.65,1.71-0.76c0.19,0.03,0.3,0.14,0.35,0.32c0.03,0.26-0.09,0.46-0.24,0.64c-0.25,0.26-0.56,0.45-0.86,0.64
		c-0.59,0.37-1.31,0.19-1.93,0.43c-0.59,0.15-1.22,0.01-1.81,0.22c-0.12,0.04-0.24,0.06-0.37,0.07c-0.56,0.07-1.14-0.01-1.69,0.2
		c-0.2,0.05-0.39,0.07-0.59,0.08c-1.03,0.04-2.06,0.09-3.08-0.06c-0.7-0.27-1.45-0.12-2.17-0.18c-0.25-0.01-0.51-0.02-0.76-0.08
		c-1.2-0.27-2.45-0.21-3.64-0.57c-0.65-0.2-0.98,0.26-1.11,0.8c-0.32,1.35-0.07,2.69,0.25,3.99c0.14,0.6,0.73,0.66,1.27,0.69
		c1.19,0,2.37,0.06,3.55-0.13c0.2-0.06,0.4-0.09,0.6-0.09c0.41-0.02,0.81-0.06,1.22-0.03c1.47-0.12,2.93,0.19,4.4,0.13
		c0.63,0.17,1.29,0.09,1.92,0.2c0.41,0.13,0.84,0.16,1.25,0.26c0.99,0.38,1.88,0.05,2.73-0.45c0.58-0.18,1.04-0.55,1.53-0.88
		c0.43-0.23,0.75-0.57,0.96-1.01c0.17-0.3,0.37-0.57,0.64-0.8c0.48-0.34,0.27-0.88,0.39-1.32c0.13-0.5,0.02-1.15,0.73-1.34
		c0.31,0.35,0.16,0.73,0.08,1.11c-0.06,1.13,0.21,2.36-1.06,3.08c-0.11,0.06-0.08,0.42-0.08,0.64c0.15,6.22,0.32,12.44,0.46,18.66
		c0.01,0.43,0.05,0.52,0.41,0.25c3.42-2.63,7.54-2.56,11.51-2.77c5.98-0.32,11.92,0.4,17.81,1.41c1.52,0.26,3.01,0.74,4.28,1.69
		c0.01,0.24-0.14,0.32-0.33,0.38c-0.9-0.01-1.61-0.57-2.43-0.83c-0.71-0.23-1.42-0.45-2.17-0.52c-0.96-0.1-1.9-0.41-2.88-0.38
		c-1.8-0.04-3.53-0.66-5.31-0.71c-4.33-0.14-8.67-0.47-12.98,0.22c-2.62-0.02-4.97,0.84-7.12,2.28c-0.27,0.25-0.53,0.52-0.73,0.83
		c-0.05,0.08-0.11,0.16-0.16,0.25c-0.07,0.12-0.13,0.25-0.18,0.39c-0.03,0.09-0.07,0.18-0.1,0.26c-0.06,0.13-0.12,0.26-0.17,0.39
		c-0.09,0.22-0.15,0.46-0.19,0.7c-0.08,0.36-0.07,0.71,0.02,1.07c0.32,1.71,0.8,2.21,2.51,2.55c1.01,0.2,2.04,0.29,3.06,0.5
		c0.81,0.14,1.6,0.39,2.42,0.42c0.99,0.14,1.97,0.28,2.97,0.24c0.41,0.04,0.86-0.01,1.05,0.49c-0.1,0.3-0.33,0.44-0.6,0.54
		c-0.74,0.21-1.5,0.13-2.25,0.14c-0.33-0.04-0.66-0.02-0.99-0.1c-0.92-0.24-1.88-0.21-2.8-0.48c-0.34-0.1-0.7-0.18-1.05-0.26
		c-0.38-0.14-0.78-0.16-1.18-0.16c-0.17,0-0.34,0-0.51-0.02c-0.17-0.01-0.33-0.04-0.49-0.09c-0.3-0.1-0.62-0.16-0.93-0.26
		c-0.3-0.11-0.56-0.27-0.81-0.46c-0.19-0.16-0.37-0.35-0.55-0.53c-0.07-0.07-0.14-0.15-0.2-0.23c-0.03-0.04-0.06-0.08-0.09-0.12
		c-0.06-0.08-0.1-0.17-0.15-0.26c-0.09-0.18-0.19-0.37-0.27-0.56c-0.12-0.26-0.16-0.53-0.15-0.77c0,0.04-0.02,0.06-0.01,0.09
		c-0.12,1.32-0.51,2.58-0.38,3.9c0.07,0.79,0.24,1.49,1.1,1.77c0.34,0.07,0.67,0.2,1,0.3c0.33,0.11,0.67,0.21,1.02,0.21
		c0.48,0.05,0.95,0.17,1.43,0.23c0.62,0.07,1.21,0.3,1.84,0.24c0.52,0,1,0.26,1.53,0.2c0.4-0.01,0.81,0.02,1.21,0.02
		c1.94,0.09,3.9,0.05,5.81,0.38c2.55,0.44,5.06,0.14,7.59,0.07c0.71,0.04,1.43,0.11,2.14-0.06c0.18-0.05,0.37-0.07,0.56-0.08
		c0.42,0.01,0.83,0.12,1.25,0.01c0.43-0.07,0.86-0.07,1.29-0.07c1.02,0.04,1.97-0.35,2.96-0.47c0.49,0.03,0.96-0.1,1.44-0.21
		c0.41-0.06,0.81-0.15,1.2-0.24c0.33-0.07,0.66-0.17,1-0.21c0.22-0.03,0.44-0.03,0.66-0.03c0.27,0,0.54-0.02,0.79-0.11
		c0.1-0.04,0.21-0.06,0.32-0.08c2.11-0.42,3.6-1.81,5.08-3.21c0.09-0.08,0.27-0.18,0.18-0.37c-0.06,0.11-0.15,0.19-0.25,0.26
		c-1.36,0.96-2.97,1.34-4.5,1.93c-0.72,0.17-1.46-0.03-2.17,0.2c-0.31,0.08-0.62,0.1-0.94,0.1c-0.25,0.01-0.51,0-0.76,0.01
		c-0.13,0.01-0.25,0.01-0.38,0c-0.58-0.03-1.16,0-1.73,0.18c-0.89,0.13-1.78,0.08-2.67,0.09c-0.56-0.05-1.12-0.02-1.68-0.03
		c-0.21,0-0.42-0.04-0.63-0.08c-1.47-0.27-2.95-0.1-4.43-0.13c-1.73-0.08-3.44-0.39-5.16-0.52c-0.36-0.03-0.69-0.17-0.89-0.51
		c-0.07-0.4,0.24-0.48,0.51-0.59c0.58-0.13,1.19-0.16,1.77-0.07c2.74,0.42,5.51,0.45,8.27,0.56c1.66,0.31,3.32,0.17,4.97-0.01
		c2.39-0.1,4.79-0.11,7.1-0.84c0.43-0.19,0.89-0.33,1.33-0.5c0.15-0.06,0.3-0.13,0.45-0.2c0.09-0.05,0.18-0.1,0.27-0.15
		c0.31-0.18,0.62-0.36,0.86-0.63c0.3-0.36,0.31-0.73,0.05-1.12c-0.05-0.1-0.09-0.2-0.12-0.3c-0.08-0.26-0.16-0.53-0.12-0.81
		c0.07-0.16,0.16-0.29,0.37-0.2c2.02,2.82,2.06,3.7-0.41,5.54c-0.44,0.33-0.33,0.47,0.01,0.79c0.77,0.71,1,1.66,0.64,2.62
		c-0.54,1.46-0.02,3.25-1.39,4.45c-0.14,0.12-0.3,0.23-0.45,0.35c-0.04-0.03-0.09-0.07-0.13-0.1c0.7-1.43,0.35-3.13,1.16-4.53
		c0.08-0.13,0.1-0.3,0.13-0.46c0.12-0.62,0.09-1.23-0.46-1.62c-0.58-0.41-1.04,0.05-1.52,0.32c-0.28,0.18-0.56,0.35-0.87,0.48
		c-0.15,0.06-0.31,0.1-0.47,0.14c-0.21,0.04-0.42,0.1-0.63,0.16c-0.42,0.11-0.86,0.07-1.27,0.21c-0.1,0.03-0.21,0.05-0.32,0.07
		c-0.16,0.03-0.32,0.04-0.49,0.05c-0.27,0.01-0.53,0.07-0.79,0.15c-0.32,0.08-0.64,0.14-0.96,0.24c-0.48,0.13-0.99,0.05-1.46,0.19
		c-0.4,0.11-0.83,0.09-1.23,0.18c-0.09,0.04-0.18,0.08-0.27,0.12c-0.13,0.07-0.27,0.14-0.41,0.19c-0.23,0.07-0.48,0.08-0.72,0.1
		c-0.09,0.02-0.19,0.03-0.28,0.05c-0.09,0.04-0.18,0.07-0.27,0.12c-0.04,0.03-0.09,0.05-0.13,0.08c-0.14,0.08-0.29,0.15-0.45,0.19
		c-0.29,0.07-0.58,0.09-0.88,0.09c-0.38,0-0.76,0.04-1.15,0.02c-0.48-0.02-0.95,0.06-1.43,0.01c-4,0.21-8,0.2-11.99,0.44
		c-0.98,0.14-1.91-0.34-2.89-0.22c-0.27,0-0.53-0.02-0.79-0.08c-0.54-0.21-1.11-0.16-1.67-0.17c-0.25,0-0.49-0.03-0.72-0.09
		c-0.33-0.11-0.68-0.17-1.02-0.25c-0.33-0.12-0.67-0.15-1.02-0.13c-0.24,0.01-0.47,0-0.71-0.01c-0.48-0.02-0.94-0.18-1.42-0.22
		c-0.3-0.01-0.6-0.02-0.9-0.07c-0.41-0.08-0.81-0.19-1.21-0.28c-0.38-0.14-0.79-0.15-1.18-0.25c-0.33-0.11-0.66-0.15-1.01-0.15
		c-0.18,0-0.35-0.02-0.53-0.05c-0.12-0.02-0.24-0.04-0.35-0.07c-0.77-0.19-1.55-0.29-2.33-0.45c-0.88-0.2-1.78-0.24-2.65-0.51
		c-0.44-0.14-0.91-0.25-1.17-0.71c0.05-0.34,0.31-0.42,0.58-0.5c1.02-0.17,1.96,0.27,2.93,0.43c3.44,0.59,6.87,1.22,10.3,1.9
		c2.28,0.33,4.55,0.66,6.86,0.65c1.07,0,2.14-0.1,3.2,0.07c0.12,0.02,0.24-0.01,0.32,0.11c-0.05-0.27-0.25-0.1-0.36-0.11
		c-3.32-0.12-6.66-0.07-9.94-0.73c-1.05-0.39-2.2-0.25-3.27-0.6c-1.65-0.55-2.54-1.91-2.38-3.65c0.1-1.11,0.26-2.21,0.58-3.28
		c0.53-1.28,1.21-2.5,1.72-3.8c0.06-0.14,0.17-0.27,0.12-0.44c0.04,0.1-0.02,0.18-0.05,0.27c-0.52,1.29-1.16,2.52-1.72,3.8
		c-0.41,1.18-0.49,2.42-0.7,3.63c-0.24,1.4-0.81,1.86-2.24,1.71c-3.73-0.39-7.47-0.72-11.12-1.63c-0.16-0.04-0.31-0.09-0.47-0.11
		c-0.18-0.02-0.43-0.11-0.48,0.16c-0.03,0.18,0.18,0.24,0.33,0.29c0.22,0.09,0.46,0.12,0.68,0.24c0.46,0.63-0.29,0.61-0.48,0.89
		c-0.28,0.21-0.51,0.51-0.9,0.56C10.92,49.88,10.85,49.7,11.04,49.45z"/>
	<path style="fill-rule:evenodd;clip-rule:evenodd;fill:#1E2823;" d="M63.59,59.98c-2.59,2.04-5.66,2.94-8.74,3.93
		c-2.44,0.78-4.92,1.29-7.4,1.86c-0.42,0.1-0.83,0.1-0.88,0.74c-0.1,1.31-0.27,2.62-0.49,3.91c-0.44,2.64,0.2,4.94,2.05,6.91
		c0.35,0.37,0.59,0.85,0.85,1.3c1.33,2.27,0.87,3.79-1.48,4.95c-5.47,2.7-11.06,3.15-16.84,1.02c-0.96-0.35-2-0.62-3.02-0.66
		c-3.57-0.12-6.7-1.98-10.19-2.45c-1.03-0.14-1.94-0.91-2.75-1.63c-1.5-1.33-0.81-2.94-0.42-4.43c0.51-1.95,0.67-3.75-0.29-5.69
		c-0.93-1.88-0.78-4.11-1.22-6.17c-0.53-2.52-1.07-5.04-1.29-7.62c-0.09-0.38-0.33-0.81,0.23-1.04c0.41,0.27,0.51,0.71,0.56,1.14
		c0.49,4,1.56,7.89,2.05,11.88c0.08,0.92,0.43,1.76,0.84,2.58c0.21,0.42,0.54,0.89,0.5,1.32c-0.18,1.76,1,2.21,2.32,2.58
		c0.88,0.33,1.73,0.75,2.67,0.92c0.74,0.19,1.49,0.32,2.23,0.46c0.11,0.02,0.23,0.04,0.34,0.08c0.22,0.07,0.44,0.13,0.66,0.17
		c1.51,0.57,3.17,0.31,4.67,0.91c0.07,0.03,0.15,0.06,0.22,0.09c-0.1-0.1-0.25-0.12-0.37-0.17c-1.31-0.58-2.65-1.1-3.85-1.9
		c-0.09-0.05-0.17-0.12-0.26-0.18c-0.04-0.03-0.08-0.06-0.12-0.09c-0.08-0.06-0.17-0.12-0.25-0.18c-0.09-0.05-0.17-0.11-0.26-0.16
		c-0.13-0.07-0.27-0.14-0.4-0.21c-0.1-0.04-0.19-0.09-0.28-0.14c-0.82-0.59-1.69-1.11-2.61-1.54c-0.09-0.05-0.18-0.12-0.27-0.19
		c-0.04-0.04-0.08-0.07-0.12-0.11c-0.08-0.07-0.16-0.15-0.24-0.22c-0.04-0.04-0.08-0.08-0.11-0.11c-0.62-0.6-1.11-1.3-1.62-1.99
		c-0.07-0.08-0.13-0.17-0.19-0.26c-0.03-0.04-0.06-0.09-0.09-0.13c-0.06-0.09-0.12-0.18-0.17-0.28c-0.05-0.1-0.09-0.19-0.13-0.29
		c-0.19-0.55-0.43-1.08-0.63-1.63c-0.07-0.14-0.13-0.29-0.2-0.43c-0.05-0.1-0.1-0.19-0.14-0.29c-0.07-0.15-0.13-0.31-0.17-0.48
		c-0.05-0.3-0.02-0.6,0.07-0.89c0.17-0.45,0.36-0.89,0.54-1.33c0.67-1.64,2.01-2.28,3.67-2.44c1.49-0.17,2.96,0.18,4.43,0.24
		c2.24,0.26,4.48,0.51,6.48,1.68c0.16,0.08,0.31,0.19,0.45,0.31c0.09,0.07,0.18,0.14,0.27,0.22c0.05,0.03,0.09,0.07,0.14,0.1
		c0.1,0.05,0.2,0.11,0.3,0.16c0.43,0.19,0.91,0.19,1.36,0.3c1.01,0.15,2,0.35,3.03,0.33c2.28,0.18,4.55,0.5,6.85,0.45
		c0.76-0.02,1.5-0.07,2.19-0.41c2.47,0.14,4.8-0.63,7.14-1.25c0.92-0.24,1.82-0.59,2.75-0.81c0.21-0.05,0.43-0.1,0.65-0.17
		c0.1-0.04,0.2-0.07,0.3-0.1c0.29-0.08,0.58-0.17,0.87-0.25c0.28-0.06,0.57-0.12,0.83-0.26c0.09-0.05,0.17-0.09,0.26-0.14
		c0.09-0.05,0.18-0.1,0.27-0.14c0.42-0.19,0.83-0.41,1.26-0.61c0.38-0.14,0.75-0.33,1.1-0.54c0.37-0.18,0.71-0.42,1.06-0.65
		c0.24-0.13,0.49-0.24,0.77-0.21C63.53,59.69,63.66,59.77,63.59,59.98z"/>
	<path style="fill-rule:evenodd;clip-rule:evenodd;fill:#212622;" d="M30.02,16.44c-0.08-0.36,0.08-0.77-0.24-1.08
		c-0.41-0.32-0.34-0.78-0.34-1.2c0-0.97-0.21-1.89-0.57-2.78c-0.05-0.13-0.07-0.39-0.15-0.37c-0.15,0.03-0.13,0.26-0.18,0.4
		c-0.12,0.34-0.26,0.67-0.43,0.98c-0.31,0.46-0.63,0.9-0.94,1.36c-0.04,0.04-0.07,0.08-0.11,0.13c-0.04,0.03-0.09,0.07-0.14,0.1
		c-0.12,0.04-0.21,0.01-0.29-0.08c-0.07-0.07-0.14-0.14-0.21-0.22c-0.23-0.44,0.16-0.7,0.29-1.04c0.33-0.52,0.78-0.99,0.82-1.65
		c0.04-0.5,0.24-0.99,0.14-1.51c-0.05-0.33-0.04-0.68-0.28-0.95c-0.2-0.22-0.46-0.36-0.74-0.47c-0.91-0.39-1.86-0.31-2.8-0.3
		c-0.26,0-0.47,0.08-0.38,0.42c0.08,0.27,0.11,0.53,0.1,0.81c0,0.12-0.02,0.23-0.04,0.34c-0.04,0.23-0.13,0.44-0.2,0.66
		c-0.14,0.4-0.38,0.73-0.69,1c-0.43,0.33-0.9,0.58-1.42,0.76c-0.74,0.18-1.44-0.03-2.15-0.21c-0.65-0.24-1.33-0.4-1.95-0.73
		c-0.34-0.2-0.61-0.49-0.88-0.77c-0.11-0.12-0.21-0.25-0.3-0.39c-0.05-0.1-0.1-0.2-0.13-0.3c-0.09-0.26-0.17-0.52-0.21-0.79
		c-0.03-0.22,0-0.44,0.04-0.65c0.13-0.65-0.34-0.61-0.72-0.58c-0.69,0.05-1.27,0.36-1.74,0.88c-0.34,0.35-0.66,0.7-0.99,1.06
		c-0.13,0.1-0.26,0.2-0.43,0.08c-0.08-0.07-0.16-0.15-0.24-0.22c0.84-1.15,1.55-2.44,3.2-2.62c0.49-0.05,0.93-0.1,1.37,0.2
		c0.92,0.63,1.38,0.18,1.6-0.73c0.06-0.27,0.03-0.56,0.1-0.83c0.21-0.86,0.24-2.05,1.58-1.74c1.04,0.24,1.57,1.02,1.72,2.21
		c0.06,0.44,0.46,1.47,1.63,1.37c1.57-0.15,3.23-0.39,4.68,0.58c2,1.36,2.28,3.61,2.77,5.69C30.41,14.27,30.32,15.38,30.02,16.44z"
		/>
	<path style="fill-rule:evenodd;clip-rule:evenodd;fill:#353732;" d="M11.7,54.97c-0.06,0.33-0.13,0.66-0.19,0.99
		c-0.47-2.15-1.62-4.24-0.46-6.5c0.06,0.15,0.12,0.31,0.19,0.46c0.22,0.16,0.25,0.4,0.22,0.64c-0.13,1.16-0.01,2.29,0.34,3.4
		C11.9,54.28,11.97,54.65,11.7,54.97z"/>
	<path style="fill-rule:evenodd;clip-rule:evenodd;fill:#393130;" d="M63.09,39.62c0.09-0.07,0.17-0.15,0.26-0.22
		c1.7,1.14,3.48,2.18,4.81,3.8c-0.08,0.07-0.16,0.15-0.23,0.22c-0.18,0.11-0.32,0.01-0.46-0.09c-1.1-0.99-2.31-1.82-3.52-2.67
		C63.57,40.4,63.04,40.24,63.09,39.62z"/>
	<path style="fill-rule:evenodd;clip-rule:evenodd;fill:#323833;" d="M63.59,59.98c-0.08-0.08-0.17-0.16-0.25-0.23
		c-0.01-0.75,0.76-0.88,1.08-1.36c0.56-0.46,0.95-1.14,1.69-1.38c0.12,0,0.22,0.03,0.31,0.11C65.64,58.22,64.71,59.19,63.59,59.98z"
		/>
	<path style="fill-rule:evenodd;clip-rule:evenodd;fill:#1E2823;" d="M66.42,57.11l-0.06,0.01c-0.07-0.02-0.13-0.04-0.2-0.06
		c0.06-0.14,0.17-0.2,0.32-0.17l0.07,0.06C66.56,57.04,66.51,57.09,66.42,57.11z"/>
	<path style="fill-rule:evenodd;clip-rule:evenodd;fill:#579488;" d="M11.7,54.97c-0.49-1.65-0.94-3.31-0.47-5.05
		c0.18-0.24,0.35-0.48,0.53-0.71c2.15-0.6,4.05,0.34,6.01,0.93c1.3,0.32,2.6,0.63,3.91,0.95c-1.21,1.15-2.3,2.41-3.26,3.78
		c-0.8,1.14-0.75,1.96,0.17,3c0.69,0.78,1.59,1.32,2.3,2.08c0.37,0.39,0.98,0.74,0.77,1.37c-0.19,0.57-0.89,0.04-1.26,0.38
		c-2.23,0.19-3.09,1.81-3.77,3.62c-0.38,0.97-0.47,2.04-1.08,2.94c-0.62,0.91-0.86,0.92-1.41-0.05c-0.52-2.72-1.05-5.44-1.56-8.17
		C12.27,58.33,11.99,56.65,11.7,54.97z"/>
	<path style="fill-rule:evenodd;clip-rule:evenodd;fill:#60938A;" d="M25.56,41.08c-0.35-5.96-0.08-11.92-0.39-17.88
		c-0.05-1,0.31-1.51,1.16-1.92c2.01-0.97,1.99-1,2.05,1.35c0.13,4.61,0.29,9.23,0.42,13.84c0.03,1.12,0.05,2.15-0.73,3.21
		c-0.85,1.15-1.53,2.51-1.91,3.96c-0.04,0.17-0.21,0.3-0.32,0.45c-0.05-0.17-0.13-0.34-0.14-0.51
		C25.64,42.74,25.6,41.91,25.56,41.08z"/>
	<path style="fill-rule:evenodd;clip-rule:evenodd;fill:#B6D7D2;" d="M24.72,26.88c0.19,1.36,0.11,2.72-0.01,4.08
		c-0.24,0.19,0.09,0.73-0.42,0.72c-0.3-0.01-0.46-0.28-0.58-0.55c-0.25-0.55-0.35-1.14-0.49-1.72c-0.29-1.18-0.76-2.28-1.5-3.24
		c-2.7-3.53-7.38-2.52-8.99,1.59c-0.79,2.01-0.73,4.08-0.61,6.14c0.19,3.11,0.65,6.19,2.15,9c1.17,2.2,3.26,3.24,5.69,2.81
		c1.3-0.23,2.18-1.11,2.96-2.1c0.32-0.41,0.59-0.85,0.79-1.34c0.16-0.38,0.38-0.8,0.82-0.77c0.59,0.05,0.14,0.69,0.41,0.96
		c0.01,0.23,0.02,0.47,0.04,0.7c-0.56,1.92-3.25,4.01-5.35,4.19c-3.07,0.26-5.23-1.11-6.67-3.71c-1.41-2.56-1.82-5.42-2.25-8.26
		c-0.38-2.48-0.36-4.93,0.31-7.36c0.95-3.45,3.81-5.72,7.03-5.56c2.62,0.13,4.35,1.59,5.54,3.8C23.85,26.76,24.07,27.17,24.72,26.88
		z"/>
	<path style="fill-rule:evenodd;clip-rule:evenodd;fill:#AAD0CC;" d="M24.72,26.88c-0.46,0.22,0.04,1.04-0.53,1.01
		c-0.24-0.01-0.5-0.66-0.67-1.05c-2.11-4.7-6.96-4.89-9.56-2.77c-2.14,1.75-3.01,4.14-3.11,6.73c-0.17,4.37,0.42,8.67,2.38,12.65
		c2.17,4.42,7.49,4.91,10.56,1.05c0.37-0.46,0.79-0.88,1.18-1.33c0.22,0.3,0.3,0.63,0.17,0.99c-0.14,0.31,0.04,0.67-0.16,0.97
		c0.03,0.07,0.03,0.13,0,0.2c-0.34,0.69-1.11,0.86-1.63,1.34c-0.6,0.56-1.41,0.87-1.94,1.54c-0.13,0.16-0.35,0.16-0.54,0.01
		c-2.02-0.05-4.02-0.21-5.98-0.72c-0.14-0.45-0.23-0.92-0.63-1.26c-2.14-1.81-2.84-4.36-3.53-6.93c-0.28-1.04-0.39-2.12-0.85-3.1
		c0-1.2,0-2.4,0-3.61c0.05-0.05,0.06-0.1,0.05-0.15s-0.03-0.08-0.05-0.08c-0.02-0.53-0.04-1.05-0.06-1.58
		c-0.1-0.23-0.11-0.45,0-0.68l0-0.07c-0.1-0.21-0.11-0.42,0-0.63L9.77,29.4l0.04-0.05c0.67-1.76,1.16-3.6,2.5-5.01
		c0.69-0.72,1.38-1.44,2.3-1.88c0.39-0.19,0.74-0.47,0.98-0.85l0.07-0.06l0.08,0.03c0.13-0.07,0.25-0.06,0.36,0.02
		c1.01,0,2.02-0.01,3.03-0.01c0.12-0.08,0.23-0.08,0.35,0c0.07-0.04,0.13-0.03,0.18,0.03c0.49,0.78,1.42,0.98,2.07,1.55
		c1.11,0.97,2.03,2.1,2.95,3.24C24.7,26.56,24.71,26.72,24.72,26.88z"/>
	<path style="fill-rule:evenodd;clip-rule:evenodd;fill:#D5E7E4;" d="M54,53.05c0.3-0.01,0.6-0.02,0.9-0.03
		c0.11-0.04,0.2-0.13,0.3-0.19l0.02-0.02c0.05-0.08,0.12-0.15,0.21-0.19c0.08-0.01,0.16-0.02,0.24-0.03
		c0.51,0.44,1.2,0.41,1.78,0.65c2.21,0.92,2.85,3.24,1.36,5.11c-1.26,1.58-2.83,2.71-4.89,3.01c-3.2,0.47-6.34,1.46-9.62,1.15
		c-2.03-0.19-4.08-0.05-6.08-0.47c-1.46-0.31-2.79-0.93-3.94-1.93c-1-0.87-2.21-1.43-3.32-2.13c-1.05-0.65-1.63-1.56-1.4-2.43
		c0.28-1.05,1-1.66,2.09-1.9c1.72-0.38,3.4-0.29,5.09,0.13c2.62,0.65,5.19,1.59,7.98,1.35C47.93,54.85,51.12,54.67,54,53.05z"/>
	<path style="fill-rule:evenodd;clip-rule:evenodd;fill:#CCE2DE;" d="M54,53.05c-1.62,1.7-3.83,1.78-5.92,2.14
		c-4.27,0.73-8.35-0.17-12.46-1.3c-1.7-0.46-3.64-0.52-5.2,0.79c-0.88,0.74-0.88,1.87-0.04,2.37c2.83,1.72,5.18,4.5,8.67,4.79
		c4.26,0.36,8.54,0.6,12.82-0.46c2.3-0.58,4.57-0.86,6.29-2.75c1.96-2.15,1.37-4.49-1.44-5.29c-0.46-0.13-1-0.09-1.04-0.76
		c0.31-0.01,0.61-0.03,0.92-0.04c0.11-0.06,0.21-0.13,0.27-0.24l0,0c3.21,1.09,4.14,3.82,2.23,6.54c-0.6,0.85-1.27,1.62-2.15,2.21
		c-1.88,1.38-4.12,1.71-6.31,2.08c-3.98,0.68-7.95,0.36-11.9-0.32c-0.91-0.16-1.77-0.49-2.58-0.93c-1.98-1.06-3.71-2.48-5.59-3.69
		c-1.02-0.66-1.69-1.71-1.26-2.99c0.39-1.17,1.32-1.89,2.58-2.03c0.42-0.05,0.81-0.42,1.26-0.15c0.23,0.02,0.46,0.04,0.69,0.05
		c0.55,0.22,1.15-0.08,1.7,0.19c0.23,0.02,0.47,0.03,0.7,0.05c0.85,0.04,1.63,0.35,2.41,0.61c2.32,0.77,4.65,0.75,7.07,0.54
		c2.15-0.19,4.28-0.27,6.31-1.07c0.26-0.1,0.52-0.19,0.76-0.34C53.2,53.06,53.6,53.05,54,53.05z"/>
	<path style="fill-rule:evenodd;clip-rule:evenodd;fill:#C4DEDA;" d="M24.93,38.64c0.01,0.32,0.02,0.64,0.03,0.95
		c-0.59,0.91-0.74,2.01-1.24,2.96c-0.98,1.87-2.31,3.28-4.56,3.39c-2.32,0.11-4.11-1.02-5.02-3.04c-2.02-4.49-2.84-9.22-1.84-14.11
		c0.48-2.35,1.79-4.22,4.32-4.78c2.42-0.54,4.73,0.75,5.87,3.1c0.83,1.71,1.06,3.59,1.67,5.35C24.84,34.49,24.76,36.58,24.93,38.64z
		"/>
	<path style="fill-rule:evenodd;clip-rule:evenodd;fill:#DA98BA;" d="M37.68,48.27c0.81-0.02,1.62-0.04,2.43-0.07
		c0.4-0.16,0.77-0.1,1.14,0.1c1.93,1.06,4.07,1.31,6.21,1.5c0.99,0.09,1.99,0.2,2.89,0.63c0.55,0.26,1.22,0.51,1.1,1.35
		c-0.45,0.37-1.03,0.01-1.51,0.25c-4.59,0.67-9.13-0.31-13.7-0.47C35.78,50.4,36.29,49.25,37.68,48.27z"/>
	<path style="fill-rule:evenodd;clip-rule:evenodd;fill:#649F96;" d="M20.4,61.68c1.25-0.29,1.26-0.76,0.29-1.53
		c-0.87-0.69-1.69-1.44-2.48-2.23c-0.96-0.96-0.99-2.05-0.17-3.11c0.85-1.1,1.76-2.14,2.6-3.25c0.29-0.38,0.65-0.41,1.03-0.48
		c0.82,0.01,1.59,0.23,2.35,0.51c-1.08,0.85-1.89,1.94-2.67,3.04c-0.72,1.03-0.61,2,0.25,3.08c0.83,1.04,1.94,1.78,2.94,2.63
		c0.46,0.39,1.11,0.76,0.65,1.56C23.6,61.83,22,61.75,20.4,61.68z"/>
	<path style="fill-rule:evenodd;clip-rule:evenodd;fill:#CF6EA0;" d="M53,48.25c-3.35,0.29-6.63-0.56-9.96-0.53
		c-1.09,0.14-2.17,0.13-3.25-0.08c-1.78,0.07-3.13-0.83-4.24-2.07c-1.19-1.34-1.09-2.97,0.11-4.42c0.35-0.21,0.71-0.41,1.11-0.09
		c0.07,0.34-0.1,0.62-0.23,0.91c-0.7,1.6-0.24,2.85,1.39,3.57c1.18,0.52,2.44,0.86,3.71,0.87c2.3,0.01,4.63,0.33,6.91-0.26
		c0.69-0.17,1.45,0.21,2.12-0.2c0.84,0.08,1.69,0.04,2.53-0.01c0.75,0.31,1.29,0.05,1.88-0.47c0.94-0.83,1.96-0.89,2.69-0.31
		c0.08,0.72-0.32,1.22-0.82,1.61C55.8,47.67,54.55,48.37,53,48.25z"/>
	<path style="fill-rule:evenodd;clip-rule:evenodd;fill:#9D2B61;" d="M29.05,40.81c0.12-0.41,0.35-0.74,0.71-0.97
		c2-0.59,3.88-1.49,5.82-2.22c0.45-0.17,0.91-0.27,1.37-0.38c3.04-0.4,6.08-0.41,9.15-0.4c3.25,0.01,6.39,0.61,9.58,0.87
		c1.82,0.59,3.45,1.61,5.14,2.46c0.35,0.18,0.85,0.38,0.55,0.98c-0.23,0.15-0.48,0.17-0.73,0.13c-1.56-0.49-2.82-1.6-4.38-2.11
		c-2.74-0.89-5.52-1.33-8.4-1.03c-0.46,0.11-0.94,0.16-1.34,0.48c-0.3,0.24-0.68,0.33-1.02,0.15c-0.7-0.39-1.48-0.29-2.22-0.4
		c-2.77-0.31-5.46,0.08-8.08,0.97c-1.55,0.46-2.92,1.37-4.49,1.77C30.12,41.26,29.48,41.58,29.05,40.81z"/>
	<path style="fill-rule:evenodd;clip-rule:evenodd;fill:#77AEA8;" d="M25.2,61.9c-0.01-1.29-1.33-1.46-1.96-2.23
		c-0.37-0.45-0.92-0.75-1.34-1.17c-1.72-1.71-1.86-2.73-0.33-4.62c0.69-0.85,0.99-2.23,2.45-2.3c0.08-0.03,0.15-0.02,0.21,0.03
		c0.61,0.28,0.66,0.72,0.4,1.28c-0.24,0.51-0.62,0.92-0.9,1.41c-0.84,1.5-0.75,2.43,0.47,3.65c1.14,1.14,2.52,1.94,3.92,2.69
		c0.91,0.49,1.91,0.83,2.73,1.47c0.47,0.37,1.27,0.7,0.78,1.59C29.66,62.51,27.42,62.23,25.2,61.9z"/>
	<path style="fill-rule:evenodd;clip-rule:evenodd;fill:#407162;" d="M26.69,44.21c-0.12,1.53-0.59,3.02-0.32,4.59
		c0.21,1.23,0.79,2.01,2.08,2.25c1.01,0.19,1.99,0.52,2.99,0.79c0.08,0.04,0.11,0.09,0.08,0.13s-0.05,0.07-0.08,0.07
		c-4.44-0.39-8.77-1.4-13.15-2.16c-1.96,0.09-3.76-0.6-5.6-1.13c-0.32-0.01-0.64-0.01-0.96-0.04c-0.61-0.07-1.01-0.4-0.9-1.02
		c0.14-0.75,0.67-0.33,1.04-0.22c3.98,1.08,8.09,1.3,12.15,1.84c0.78,0.1,1.28-0.25,1.44-1.08c0.27-1.4,0.28-2.87,1.11-4.11
		C26.61,44.15,26.65,44.18,26.69,44.21z"/>
	<path style="fill-rule:evenodd;clip-rule:evenodd;fill:#A6CEC9;" d="M46.36,64.82c-0.36,0.7-1.05,0.64-1.66,0.67
		c-2.59,0.12-5.17-0.14-7.74-0.47c-1.94-1.61-3.95-3.13-6.02-4.56c-0.66-0.46-1.31-0.92-1.9-1.47c-1.8-1.7-2.34-4.25-0.01-6.65
		c0.48,0.07,0.96,0.15,1.44,0.22c0.35,0.64-0.22,0.94-0.52,1.31c-1.27,1.58-1.09,3.41,0.61,4.56c1.42,0.96,2.83,1.94,4.19,2.99
		c2.39,1.85,5.22,2.25,8.09,2.57C44.05,64.13,45.35,63.89,46.36,64.82z"/>
	<path style="fill-rule:evenodd;clip-rule:evenodd;fill:#83B8B2;" d="M31.64,63.69c-0.09-0.99-0.86-1.37-1.6-1.74
		c-2.06-1.03-4.17-1.99-5.87-3.59c-1.73-1.63-1.78-2.89-0.33-4.79c0.44-0.58,1.09-1.13,0.4-1.95c0.16,0.01,0.32,0.02,0.48,0.03
		c0.31,0.18,0.69-0.02,1,0.18c0.4,0.08,0.8,0.16,1.2,0.24c-0.67,0.81-1.04,1.78-1.52,2.7c-0.46,0.86-0.31,1.62,0.33,2.31
		c1,1.09,2.08,2.09,3.42,2.78c1.53,1.1,3.32,1.85,4.57,3.33c0.37,0.44,0.91,0.9,0.1,1.44c-0.5-0.04-1.04,0.06-1.43-0.39
		c-0.09-0.02-0.16-0.08-0.2-0.16l-0.03-0.01c-0.1-0.06-0.18-0.15-0.29-0.2C31.8,63.8,31.72,63.74,31.64,63.69z"/>
	<path style="fill-rule:evenodd;clip-rule:evenodd;fill:#BDD8D4;" d="M24.93,38.64c-0.28,0.11-0.48,0.09-0.43-0.28
		c0.53-3.98-1.07-7.56-2.23-11.2c-0.58-1.81-2.98-3.24-4.71-3.16c-2.06,0.1-4.04,1.72-4.83,3.92c-1.09,3.05-0.7,6.11-0.15,9.19
		c0.3,1.69,0.66,3.35,1.32,4.95c0.89,2.17,2.99,3.79,5.08,3.77c1.92-0.01,3.97-1.64,4.75-3.84c0.23-0.63,0.37-1.3,0.51-1.96
		c0.09-0.44,0.25-0.67,0.72-0.44c0.47,0.96-0.11,1.92-0.02,2.88c-0.14-0.26-0.28-0.52-0.41-0.77c-0.16,0.17-0.38,0.31-0.47,0.51
		c-1.11,2.58-2.86,4.19-5.88,3.87c-2.56-0.27-3.94-2.03-4.74-4.18c-1.58-4.19-2.19-8.56-1.38-13c0.36-1.97,1.38-3.65,3.26-4.63
		c2.57-1.33,5.69-0.25,7.15,2.38c0.75,1.35,1.09,2.81,1.5,4.26c0.06,0.21,0.22,0.4,0.33,0.59c0.14-0.18,0.28-0.36,0.41-0.55
		C24.96,33.52,24.94,36.08,24.93,38.64z"/>
	<path style="fill-rule:evenodd;clip-rule:evenodd;fill:#B7D7D3;" d="M46.36,64.82c-2.01-0.51-4.09-0.53-6.13-0.8
		c-3.15-0.41-5.58-2.2-7.99-4.05c-0.6-0.46-1.28-0.81-1.89-1.25c-1.86-1.34-2.06-3.5-0.5-5.17c0.27-0.29,0.62-0.52,0.63-0.98
		c0.24,0,0.48,0.01,0.72,0.01c0.15,0.17,0.55-0.01,0.54,0.38c-0.28,0.6-0.98,0.63-1.42,1.03c-1.25,1.14-1.34,2.39-0.19,3.61
		c0.19,0.2,0.36,0.45,0.6,0.58c1.78,0.99,3.31,2.35,5.05,3.4c1.21,0.74,2.52,1.15,3.92,1.36c2.84,0.44,5.7,0.79,8.57,0.52
		c2.73-0.26,5.48-0.54,7.93-1.98c0.46-0.09,0.81-0.61,1.36-0.37c0.26,0.72-0.31,1.08-0.68,1.52h0c-0.14,0.12-0.34,0.09-0.49,0.19
		c-2.95,1.13-6.03,1.73-9.09,2.42C46.85,65.36,46.57,65.2,46.36,64.82z"/>
	<path style="fill-rule:evenodd;clip-rule:evenodd;fill:#DCEBE8;" d="M19.84,20.92c-1.5,0.23-2.99,0.03-4.48-0.04
		c-0.29-0.6-0.49-1.24-0.76-1.85c-0.35-0.8-0.27-1.6,0.01-2.41c0.27-0.77,0.71-1.09,1.51-0.79c1.1,0.01,2.21,0.03,3.31,0.04
		c0.44,0.47,0.47,1.09,0.51,1.67c0.09,1.14,0.17,2.27,0.48,3.37C20.24,21.02,20.04,21,19.84,20.92z"/>
	<path style="fill-rule:evenodd;clip-rule:evenodd;fill:#D2E6E2;" d="M23.28,14.82c-3.44,0.66-6.88,0.75-10.32,0.06
		c0.22-1.28,1.1-2.14,2.5-2.23c1.46-0.09,2.92-0.19,4.39-0.27c1.22-0.07,2.35,0.34,3.31,1.13c0.36,0.3,0.78,0.58,0.65,1.17l0,0
		C23.63,14.74,23.45,14.75,23.28,14.82z"/>
	<path style="fill-rule:evenodd;clip-rule:evenodd;fill:#93C4BF;" d="M9.85,21.1c-0.92,0.11-1.44-0.29-1.54-1.2
		c-0.11-0.94-0.24-1.89-0.28-2.83c-0.08-1.81,0.52-2.31,2.21-1.98c1,0.2,2.02,0.33,3.03,0.48c-0.11,0.18-0.27,0.28-0.46,0.35
		c-0.91,0.34-0.84,1.16-0.89,1.9c-0.05,0.72,0.17,1.41,0.28,2.12c0.11,0.73-0.08,1.14-0.93,1.08C10.79,20.98,10.3,20.89,9.85,21.1z"
		/>
	<path style="fill-rule:evenodd;clip-rule:evenodd;fill:#BFDBD6;" d="M56.4,61.68c-2.2,1.6-4.86,1.81-7.38,2.08
		c-3.88,0.4-7.83,0.19-11.54-1.12c-2.92-1.03-5.24-3.13-7.58-5.09c-1.3-1.09-0.92-2.84,0.54-3.85c0.42-0.29,1-0.36,1.25-0.88
		c0.16-0.15,0.32-0.15,0.48-0.02c0.34,0.02,0.7-0.03,0.99,0.24c-0.61,0.15-1.17,0.43-1.78,0.59c-1.94,0.51-2.62,2.7-1.05,3.86
		c2.69,1.98,5.19,4.46,8.66,5.06c5.3,0.92,10.6,0.96,15.79-0.69c0.74-0.24,1.4-0.74,2.1-1.12C57.22,61.29,56.66,61.41,56.4,61.68z"
		/>
	<path style="fill-rule:evenodd;clip-rule:evenodd;fill:#C43484;" d="M65.51,47.23c-2.38,1.02-4.91,1-7.43,0.99
		c-0.22-0.24-0.19-0.54-0.04-0.76c0.83-1.19,1.16-2.54,1.33-3.94c0.38-0.41,0.73-0.18,1.04,0.07c1.4,1.12,2.83,2.17,4.51,2.85
		C65.26,46.57,65.58,46.78,65.51,47.23z"/>
	<path style="fill-rule:evenodd;clip-rule:evenodd;fill:#4A796C;" d="M66.49,56.89c-0.12,0.04-0.26,0.06-0.13,0.23
		c-0.83,0.21-1.08,1.11-1.78,1.47c-0.58-0.26-0.57-0.77-0.39-1.22c0.75-1.88,0.72-3.89,0.98-5.84c0.05-0.4,0.18-0.77,0.36-1.13
		c0.55-0.44,1.12-1.08,1.87-0.57c0.73,0.49,0.97,1.35,0.57,2.12C67.15,53.52,67.61,55.44,66.49,56.89z"/>
	<path style="fill-rule:evenodd;clip-rule:evenodd;fill:#BDDAD5;" d="M23.8,14.69c-1.18-1.62-2.83-2.15-4.72-1.91
		c-0.75,0.09-1.5,0.25-2.25,0.17c-1.72-0.18-3.05,0.35-3.87,1.94c-0.32-0.01-0.64-0.03-0.96-0.04c-0.15-1.27,0.79-2.53,2.29-3.03
		c1.53-0.51,3.13-0.45,4.7-0.55c0.77-0.02,1.51,0.41,2.29,0.22c1.53,0.16,2.55,1.08,3.39,2.26c0.18,0.25,0.29,0.57,0.03,0.87
		C24.41,14.64,24.11,14.66,23.8,14.69z"/>
	<path style="fill-rule:evenodd;clip-rule:evenodd;fill:#8EBFB9;" d="M33.82,64.61c0.35-0.51,0.04-0.82-0.28-1.22
		c-1.23-1.51-3.15-2.07-4.5-3.4c-1.79-1.33-2.52-3.5-1.86-5.6c0.22-0.72,0.53-1.42,0.9-2.08c0.32,0.01,0.64,0.02,0.97,0.03
		c-0.13,1.05-1.12,1.71-1.22,2.8c-0.21,2.23,1.11,3.5,2.72,4.64c1.87,1.33,3.73,2.68,5.56,4.06c0.38,0.28,0.96,0.5,0.86,1.17
		C35.89,65.1,34.85,64.87,33.82,64.61z"/>
	<path style="fill-rule:evenodd;clip-rule:evenodd;fill:#D37EA9;" d="M51.36,51.81c-0.47-1.14-1.52-1.29-2.54-1.42
		c-2.99-0.38-6.01-0.64-8.71-2.18c0.15-0.09,0.29-0.17,0.44-0.26c0.65-0.27,1.3-0.3,1.95,0.03c2,0.26,4,0.52,6,0.78
		c1.53-0.04,2.8,0.48,3.73,1.73c0.3,0.4,0.72,0.8,0.34,1.38c-0.13,0-0.27,0-0.4,0.01C51.88,51.96,51.61,52.05,51.36,51.81z"/>
	<path style="fill-rule:evenodd;clip-rule:evenodd;fill:#C43383;" d="M34.08,47.02c-1.17-0.16-2.35-0.24-3.5-0.48
		c-1.63-0.34-2.36-1.44-2.29-3.09c1.37,0.13,2.58-0.33,3.75-0.96c0.44-0.23,0.87-0.65,1.42-0.21
		C33.21,43.92,33.95,45.43,34.08,47.02z"/>
	<path style="fill-rule:evenodd;clip-rule:evenodd;fill:#8DBFBA;" d="M28.08,52.32c0.5,0.74-0.26,1.17-0.48,1.69
		c-0.99,2.38,0.12,4.2,1.44,5.99c-1.73-0.59-2.87-1.93-3.97-3.27c-0.42-0.5-0.53-1.27-0.04-1.89c0.7-0.88,0.55-2.34,1.9-2.78
		C27.33,52.08,27.74,52.01,28.08,52.32z"/>
	<path style="fill-rule:evenodd;clip-rule:evenodd;fill:#9BC8C4;" d="M9.63,26.64c-0.47-1.45-0.1-2.91-0.04-4.37
		c0.02-0.41,0.26-0.66,0.57-0.58c1.35,0.35,2.66-0.25,3.99-0.06c0.12,0.53-0.29,0.8-0.59,1.1c-1.06,1.03-2.04,2.12-2.73,3.46
		C10.63,26.59,10.34,27.32,9.63,26.64z"/>
	<path style="fill-rule:evenodd;clip-rule:evenodd;fill:#B1D3CF;" d="M39.11,53.52c2.68-0.44,5.38-0.15,8.07-0.34
		c1.38-0.1,2.78-0.07,4.17-0.1c0.02,0.66-0.53,0.8-0.96,0.88c-3.48,0.64-6.97,1.14-10.5,0.44C39.51,54.31,38.85,54.28,39.11,53.52z"
		/>
	<path style="fill-rule:evenodd;clip-rule:evenodd;fill:#C7498C;" d="M59.52,43.44c0.42,1.87-0.82,3.23-1.44,4.78
		c-1.69,0.35-3.38,0.42-5.08,0.03c1.76-0.71,3.9-0.86,4.6-3.13c0.34-0.19,0.51,0.08,0.7,0.27c0.04,0.06,0.03,0.14,0.06,0.21
		c0.02-0.07,0.02-0.13-0.02-0.21c-0.23-0.28-0.47-0.56-0.47-0.96c0.22-0.71-0.13-1.45,0.12-2.15c0.8-0.25,1.13,0.41,1.59,0.83
		C59.63,43.23,59.61,43.34,59.52,43.44z"/>
	<path style="fill-rule:evenodd;clip-rule:evenodd;fill:#A7CFCA;" d="M24.7,26.4c-0.59-0.07-0.84-0.54-1.17-0.94
		c-0.91-1.11-1.82-2.21-3.18-2.83c-0.4-0.18-0.97-0.34-0.66-1.03c1.53,0.16,3.07,0.3,4.6,0.48c0.52,0.06,0.42,0.53,0.42,0.85
		C24.72,24.09,24.7,25.25,24.7,26.4z"/>
	<path style="fill-rule:evenodd;clip-rule:evenodd;fill:#95C2BE;" d="M16.05,9.37c0.05,0.05,0.06,0.12,0.05,0.19
		c0.04,0.11,0.14,0.19,0.2,0.29c0.26,0.23,0.53,0.46,0.79,0.69c-0.37,0.56-0.98,0.66-1.56,0.76c-1.97,0.34-3.67,1.07-4.57,3.02
		c-0.07,0.15-0.24,0.2-0.38,0.27c-1.11-0.09-1.52-0.58-1-1.67c0.41-0.84,0.81-1.69,1.45-2.38c0.61-0.38,1.31-0.23,1.97-0.35
		C14.04,10.01,15.06,9.78,16.05,9.37z"/>
	<path style="fill-rule:evenodd;clip-rule:evenodd;fill:#94C3BF;" d="M21.77,15.56c0.64-0.08,1.27-0.16,1.91-0.24
		c0.9-0.3,1.27,0.1,1.47,0.97c0.38,1.65,0.11,3.21-0.5,4.74c-0.28,0.7-0.85,0.37-1.32,0.41c-0.74-0.45-0.66-1.2-0.65-1.91
		C22.69,18.14,22.53,16.79,21.77,15.56z"/>
	<path style="fill-rule:evenodd;clip-rule:evenodd;fill:#4A7B6E;" d="M27.82,12.42c0.11-0.29,0.21-0.6,0.35-0.88
		c0.23-0.47,0.06-1.09,0.55-1.46c0.2,0.51,0.39,1.03,0.6,1.54c0.49,1.21,0.43,2.48,0.46,3.75c-0.08,0.69-0.22,1.38-0.24,2.07
		c-0.01,0.54-0.23,0.78-0.75,0.81c-0.53-1.27-1.1-2.52-1.32-3.91C27.37,13.63,27.44,13.01,27.82,12.42z"/>
	<path style="fill-rule:evenodd;clip-rule:evenodd;fill:#C43484;" d="M55.15,49.03c0.97-0.03,1.95-0.06,2.92-0.09
		c0.27-0.17,0.57-0.08,0.85-0.09c0.4,0.76-0.3,1.45-0.13,2.22c0.05,0.23-0.5,0.07-0.71,0.25c-1.05,0.1-2.02,0.71-3.12,0.52
		c-0.65-0.79-1.29-1.58-1.22-2.69C54.2,48.98,54.69,49.17,55.15,49.03z"/>
	<path style="fill-rule:evenodd;clip-rule:evenodd;fill:#9DC9C5;" d="M13.85,47.34c-0.73-0.19-1.46-0.37-2.18-0.59
		c-0.65-0.2-1.07-0.58-1.19-1.32c-0.21-1.38-0.5-2.75-0.37-4.15c0.12-0.14,0.1-0.33,0.17-0.49c0.1-0.07,0.21-0.11,0.33-0.1
		c0.45,0.13,0.55,0.54,0.68,0.91c0.53,1.5,1.22,2.9,2.26,4.12C13.91,46.15,14.48,46.67,13.85,47.34z"/>
	<path style="fill-rule:evenodd;clip-rule:evenodd;fill:#841B4B;" d="M63.09,39.62c1.44,1.29,3.28,2.09,4.53,3.61
		c-0.28,0.61-0.78,0.42-1.23,0.32c-0.96-0.21-1.76-0.74-2.51-1.33c-1.32-1.03-2.68-1.98-4.14-2.8c-0.49-0.28-1.06-0.56-1.19-1.23
		C60.22,38.2,61.62,39.04,63.09,39.62z"/>
	<path style="fill-rule:evenodd;clip-rule:evenodd;fill:#911B56;" d="M58.56,38.19c2.32,1.56,4.63,3.12,6.96,4.66
		c0.63,0.41,1.32,0.72,2.1,0.37c0.1,0.06,0.2,0.13,0.3,0.19c0.08,0.25,0.15,0.49,0.23,0.74c-0.72,0.58-1.47,0.24-2.15-0.03
		c-1.75-0.69-3.35-1.61-4.57-3.09c-1.18-1.14-2.8-1.52-4.16-2.36c-0.53-0.32-1.1-0.57-1.59-0.97
		C56.66,37.79,57.63,37.86,58.56,38.19z"/>
	<path style="fill-rule:evenodd;clip-rule:evenodd;fill:#538377;" d="M65.52,50.4c-0.1,2.31-0.11,4.63-0.96,6.84
		c-0.18,0.46-0.31,0.9,0.01,1.35c-0.41,0.39-0.82,0.78-1.23,1.16c-0.23,0.1-0.45,0.21-0.68,0.31c-0.46-0.46-0.27-0.97-0.07-1.44
		c0.9-2.14,1.45-4.37,1.62-6.68c0.04-0.48,0.26-0.82,0.58-1.13C65.03,50.67,65.27,50.53,65.52,50.4z"/>
	<path style="fill-rule:evenodd;clip-rule:evenodd;fill:#BED7D2;" d="M56.4,61.68c0.16-0.32,0.32-0.64,0.48-0.96
		c1.34-0.99,2.38-2.24,2.82-3.85c0.42-1.58-0.28-2.8-1.66-3.58c-0.46-0.26-0.83-0.58-1.17-0.97c0.38-0.49,0.89-0.28,1.37-0.26
		c0.58-0.23,0.97,0.04,1.34,0.47c1.37,1.59,1.58,3.34,0.81,5.24c-0.17,0.41-0.37,0.79-0.57,1.18c-0.32,0.65-0.8,1.18-1.24,1.75
		c-0.23,0.31-0.5,0.65-0.99,0.5C57.2,61.36,56.8,61.52,56.4,61.68z"/>
	<path style="fill-rule:evenodd;clip-rule:evenodd;fill:#7C1C44;" d="M28.32,50.38c-1.17-0.03-1.38-0.88-1.44-1.78
		c-0.12-1.62,0.09-3.21,0.67-4.73c0.11-0.07,0.2-0.06,0.28,0.04c0.07,0.4,0.14,0.8,0.22,1.2c-0.09,0.14-0.03,0.27,0.05,0.39
		c0.09,0.11,0.13,0.25,0.23,0.35l0-0.02c0.07,0.1,0.17,0.18,0.25,0.26c0.16,0.15,0.32,0.3,0.48,0.46
		C29.62,47.98,29.47,49.27,28.32,50.38z"/>
	<path style="fill-rule:evenodd;clip-rule:evenodd;fill:#A7CFCA;" d="M13.85,47.34c0.15-1.02-0.7-1.5-1.17-2.19
		c-0.71-1.04-1.26-2.17-1.67-3.37c-0.13-0.37-0.08-0.92-0.68-0.98c-0.17-0.12-0.08-0.37-0.25-0.48c0.01-0.4,0.02-0.8,0.03-1.2
		c0.13-0.4,0.25-0.8-0.08-1.17c-0.27-0.55-0.16-1.13-0.14-1.71c1.12,0.59,0.85,1.82,1.08,2.73c0.72,2.81,1.52,5.52,3.89,7.44
		c0.46,0.37,0.58,0.73,0.03,1.12c-0.24-0.01-0.48-0.03-0.72-0.04C14.06,47.43,14,47.29,13.85,47.34L13.85,47.34z"/>
	<path style="fill-rule:evenodd;clip-rule:evenodd;fill:#A8CDC8;" d="M10.57,14.6c0.6-2,2.06-2.98,4-3.42
		c0.84-0.19,1.68-0.43,2.51-0.64c0.64,0.24,1.28,0.48,1.91,0.73c-1.15,0.85-2.53,0.38-3.8,0.64c-1.73,0.35-2.72,1.32-3.2,2.94
		C11.52,14.76,11.05,14.68,10.57,14.6z"/>
	<path style="fill-rule:evenodd;clip-rule:evenodd;fill:#7D1C45;" d="M64.07,48.41c1.6-0.81,3.55-0.96,4.77-2.49
		c0.25-0.31,0.33-0.04,0.31,0.15c-0.03,0.27-0.05,0.61-0.22,0.78c-1.65,1.64-3.24,3.41-5.81,3.57c-0.53-0.72-0.41-1.38,0.33-1.76
		C63.66,48.55,63.95,48.69,64.07,48.41z"/>
	<path style="fill-rule:evenodd;clip-rule:evenodd;fill:#87B0AA;" d="M60.48,61.22c-0.47,0.24-0.94,0.49-1.42,0.73
		c-0.41-0.42-0.14-0.79,0.05-1.19c0.31-0.65,0.69-1.26,1.05-1.87c1.14-1.95,1.22-4.09,1.29-6.24c0.02-0.56,0.11-1.03,0.69-1.26
		c0.07-0.05,0.14-0.07,0.22-0.04c0.9-0.23,0.77,0.46,0.78,0.93c0.02,1.65-0.2,3.28-0.78,4.82C61.84,58.51,61.21,59.89,60.48,61.22z"
		/>
	<path style="fill-rule:evenodd;clip-rule:evenodd;fill:#BD2A7B;" d="M59.52,43.44c0-0.08,0-0.16,0-0.24
		c-0.12-0.33-0.02-0.6,0.25-0.81c0.48-0.18,0.84,0.12,1.19,0.35c1.74,1.16,3.43,2.4,5.48,3c0.35,0.1,0.78,0.26,0.75,0.78l-0.08,0.06
		l-0.1,0c-0.09,0.05-0.19,0.1-0.29,0.15c-0.41,0.17-0.81,0.33-1.21,0.5c-1.23-0.72-2.43-1.48-3.68-2.15
		C60.98,44.64,60.49,43.71,59.52,43.44z"/>
	<path style="fill-rule:evenodd;clip-rule:evenodd;fill:#C2DDD9;" d="M39.11,53.52c0.09,0.56,0.53,0.67,0.97,0.72
		c3.58,0.42,7.12,0.23,10.62-0.7c0.29-0.08,0.52-0.21,0.66-0.47c0.48,0,0.96-0.01,1.44-0.01c-1.03,1.31-2.59,1.35-4,1.48
		c-3.15,0.27-6.32,0.95-9.46-0.06c-1.05-0.34-2.07-0.76-3.1-1.15C37.2,53.39,38.16,53.45,39.11,53.52z"/>
	<path style="fill-rule:evenodd;clip-rule:evenodd;fill:#A7CFCA;" d="M9.63,26.64c0.37,0.23,0.66,0.05,0.78-0.26
		c0.78-1.96,2.42-3.23,3.74-4.75c0.48-0.01,0.96-0.02,1.44-0.04c0.3,0.59-0.15,0.79-0.54,0.99c-2.18,1.1-3.62,2.84-4.25,5.19
		c-0.18,0.66-0.87,0.93-0.99,1.58C9.55,28.46,9.58,27.55,9.63,26.64z"/>
	<path style="fill-rule:evenodd;clip-rule:evenodd;fill:#6D9A93;" d="M60.48,61.22c-0.03-1.09,0.49-2.01,0.99-2.9
		c1.13-2.01,1.17-4.23,1.4-6.42c0.04-0.35-0.19-0.5-0.5-0.56c0.47-0.09,0.94-0.17,1.42-0.26c0.12-0.08,0.24-0.07,0.35,0.03
		c-0.05,2.39-0.45,4.72-1.38,6.94c-0.37,0.88-0.71,1.76-1.09,2.64C61.34,61.01,60.96,61.23,60.48,61.22z"/>
	<path style="fill-rule:evenodd;clip-rule:evenodd;fill:#A3CCC8;" d="M20.86,48.25c1-0.79,2.04-1.55,2.98-2.41
		c0.36-0.33,0.76-0.32,1.13-0.49c0.4,0.93-0.1,1.85-0.03,2.78c0.03,0.5-0.39,0.6-0.83,0.6C22.99,48.74,21.91,48.63,20.86,48.25z"/>
	<path style="fill-rule:evenodd;clip-rule:evenodd;fill:#84B7B1;" d="M23.25,21.31c1.88,0.12,1.25-1.6,1.64-2.45
		c0.41-0.89-0.06-2-0.19-3.01c-0.08-0.66-0.64-0.42-1.02-0.53c0.67-0.15,1.33-0.3,1.99-0.45c0.66,0.68,0.61,1.6,0.74,2.42
		c0.19,1.19,0.28,2.44-0.5,3.52c-0.87,0.71-1.81,1.05-2.91,0.55C23.06,21.28,23.15,21.26,23.25,21.31z"/>
	<path style="fill-rule:evenodd;clip-rule:evenodd;fill:#C7498C;" d="M34.08,47.02c-0.73-1.52-1.37-3.05-0.72-4.77
		c-0.16-0.35,0.12-0.5,0.32-0.68c0.1-0.07,0.2-0.12,0.31-0.16c0.11-0.04,0.23-0.05,0.35-0.04c0.19,0.04,0.33,0.14,0.4,0.32
		c0.11,0.72-0.16,1.42-0.06,2.14c0.13,0.91,0.61,1.61,1.2,2.28c0.34,0.38,0.96,0.69,0.61,1.39C35.64,47.55,34.86,47.29,34.08,47.02z
		"/>
	<path style="fill-rule:evenodd;clip-rule:evenodd;fill:#BC2E7C;" d="M33.84,41.76c-0.16,0.16-0.32,0.32-0.48,0.48
		c-1.27,0.42-2.35,1.26-3.7,1.54c-0.59,0.12-0.98,0.05-1.37-0.34c-0.25-0.33,0.01-0.64,0.05-0.96c1.72-0.48,3.31-1.27,4.97-1.89
		c0.1-0.05,0.21-0.09,0.31-0.12c0.11-0.04,0.22-0.06,0.33-0.07c0.18,0,0.34,0.05,0.44,0.21c0.09,0.37-0.04,0.67-0.31,0.92l0,0
		C34,41.6,33.91,41.67,33.84,41.76z"/>
	<path style="fill-rule:evenodd;clip-rule:evenodd;fill:#9DC1BC;" d="M62.15,51.38c-0.66,0.63-0.44,1.55-0.41,2.22
		c0.16,2.79-1.05,5.08-2.38,7.35c-0.19,0.32-0.36,0.61-0.29,0.99l0-0.01c-0.09,0.05-0.18,0.11-0.27,0.18
		c-0.32,0.09-0.64,0.18-0.96,0.28c-0.34-0.5,0.1-0.79,0.31-1.13c0.49-0.8,1.17-1.48,1.6-2.32c0.02-0.1,0.05-0.2,0.09-0.3
		c0.04-0.09,0.09-0.18,0.14-0.27c0.03-0.04,0.05-0.08,0.08-0.13c0.13-0.16,0.19-0.35,0.24-0.54c0.04-0.09,0.08-0.19,0.13-0.28
		c0.06-0.21,0.08-0.42,0.16-0.62c0.6-1.78,0.01-3.4-0.67-5.01c0.28-0.26,0.63-0.22,0.96-0.24c0.25-0.13,0.54-0.02,0.79-0.17
		C61.84,51.4,61.99,51.39,62.15,51.38z"/>
	<path style="fill-rule:evenodd;clip-rule:evenodd;fill:#CA5D95;" d="M36.48,47.49c-0.13-0.24-0.2-0.54-0.39-0.71
		c-1.7-1.42-2.11-3.19-1.52-5.26c0.22-0.89,0.88-1.18,1.71-1.23c0.3,0.57-0.22,0.72-0.51,0.99c-1.68,2.52-0.18,4.58,1.98,5.49
		c0.63,0.27,1.1,0.95,1.92,0.77c0.03,0.11-0.01,0.17-0.11,0.18C38.52,47.67,37.48,47.83,36.48,47.49z"/>
	<path style="fill-rule:evenodd;clip-rule:evenodd;fill:#5E8C83;" d="M61.67,60.69c-0.29-0.4-0.08-0.75,0.1-1.1
		c1.19-2.41,1.76-4.98,2.08-7.63c0.03-0.27,0.14-0.53,0.21-0.79c0.01-0.17,0.15-0.17,0.26-0.22c0.16-0.04,0.31-0.09,0.47-0.13
		c-0.26,3.19-1.3,6.19-2.12,9.25C62.33,60.27,62,60.48,61.67,60.69z"/>
	<path style="fill-rule:evenodd;clip-rule:evenodd;fill:#AB216C;" d="M68.2,44.3c0.72,0.53,0.42,1.03-0.04,1.52
		c-1.89,0.01-3.56-0.64-5.09-1.7c-1.33-0.92-2.64-1.88-4.07-2.65c-0.38-0.48-1.25-0.57-1.16-1.44c0.68-0.26,1.06,0.37,1.59,0.56
		c0.44,0.16,0.8,0.5,1.27,0.59c1.55,0.55,2.64,1.85,4.13,2.5C65.9,44.15,66.95,44.75,68.2,44.3z"/>
	<path style="fill-rule:evenodd;clip-rule:evenodd;fill:#A4CDC8;" d="M9.85,21.1c2.12,0.06,2.23-1.04,1.72-2.73
		c-0.19-0.62,0.14-1.4,0.18-2.1c0.03-0.74,0.5-0.68,1-0.64c0.48,0.23,0.57,0.67,0.47,1.11c-0.34,1.47,0.12,2.82,0.54,4.18
		C12.47,21.31,11.15,21.14,9.85,21.1z"/>
	<path style="fill-rule:evenodd;clip-rule:evenodd;fill:#A7CEC9;" d="M23.25,21.31c-0.08,0.02-0.16,0.04-0.24,0.06
		c-0.41-0.07-0.82-0.15-1.23-0.22c-0.46-1.53-0.37-3.13-0.66-4.68c-0.07-0.38,0.13-0.69,0.48-0.88c0.05-0.07,0.11-0.08,0.18-0.04
		c1.49,0.47,0.98,1.85,1.23,2.84C23.25,19.33,22.84,20.36,23.25,21.31z"/>
	<path style="fill-rule:evenodd;clip-rule:evenodd;fill:#A3CAC5;" d="M24.72,14.62c-0.47-1.78-2.09-2.3-3.42-3.13
		c0.41-0.26,0.82-0.51,1.23-0.77c0.89,0.24,1.65,0.76,2.4,1.25c0.64,0.42,1.29,0.69,2.04,0.78c-0.18,0.31-0.36,0.63-0.54,0.94
		C25.92,14.11,25.5,14.7,24.72,14.62z"/>
	<path style="fill-rule:evenodd;clip-rule:evenodd;fill:#B02270;" d="M33.6,40.79c-1.78,0.5-3.28,1.85-5.27,1.69
		c0.09-0.24,0.19-0.48,0.28-0.73c0.06-0.09,0.12-0.18,0.17-0.27c0-0.08,0.02-0.15,0.06-0.21c0.11-0.14,0.06-0.35,0.21-0.47l0,0
		c1.62,0.51,2.84-0.63,4.23-1.05c0.59-0.18,1.08-0.68,1.76-0.62c-0.07,0.75-0.8,0.95-1.2,1.43l0,0
		C33.76,40.64,33.68,40.72,33.6,40.79z"/>
	<path style="fill-rule:evenodd;clip-rule:evenodd;fill:#B42674;" d="M59.04,41.28c1.25,0.36,2.21,1.2,3.24,1.93
		c1.53,1.09,3.07,2.11,5.02,2.24c0.29,0.02,0.57,0.25,0.85,0.38c-0.32,0.23-0.64,0.47-0.96,0.7c-2.67-0.99-4.99-2.63-7.43-4.05
		c-0.57-0.25-1.19-0.47-1.19-1.26C58.74,41.13,58.9,41.15,59.04,41.28z"/>
	<path style="fill-rule:evenodd;clip-rule:evenodd;fill:#C64E8D;" d="M35.03,51.56c-0.48-0.08-0.96-0.16-1.44-0.24
		c-0.88-0.01-1.19-0.28-0.67-1.17c0.31-0.54,0.32-1.22,0.48-1.84c0.07-0.26,0.01-0.7,0.52-0.59c0.93,0.16,1.87,0.32,2.8,0.48
		C35.49,48.98,35.35,50.31,35.03,51.56z"/>
	<path style="fill-rule:evenodd;clip-rule:evenodd;fill:#CBE2DE;" d="M16.13,15.82c-1.1,0.16-1.64,1.37-1.39,2.69
		c0.15,0.81,1.24,1.37,0.62,2.36c-0.4,0-0.8,0.01-1.2,0.02c-0.88-1.72-1.26-3.46-0.24-5.26C14.67,15.6,15.42,15.47,16.13,15.82z"/>
	<path style="fill-rule:evenodd;clip-rule:evenodd;fill:#BBD9D5;" d="M21.6,15.6c-0.44,1.7,0.53,3.33,0.28,5.02
		c-0.03,0.18-0.06,0.36-0.09,0.54c-0.64-0.08-1.29-0.16-1.93-0.24c0.17-0.03,0.33-0.06,0.5-0.09c0.52-1.74-0.07-3.37-0.5-5.02
		C20.41,15.56,21,15.59,21.6,15.6z"/>
	<path style="fill-rule:evenodd;clip-rule:evenodd;fill:#911C56;" d="M36.96,37.24c-1.9,1.04-3.96,1.73-5.96,2.55
		c-0.39,0.16-0.81,0.37-1.23,0.05C31.79,37.96,34.29,37.37,36.96,37.24z"/>
	<path style="fill-rule:evenodd;clip-rule:evenodd;fill:#9F1B61;" d="M68.2,44.3c-0.1,0.63-0.49,0.55-0.97,0.48
		c-2.6-0.38-4.51-2.02-6.5-3.5c-0.08-0.05-0.11-0.11-0.08-0.16c0.03-0.05,0.05-0.08,0.08-0.08c0.24,0,0.48,0,0.72,0
		c1.59,0.85,2.86,2.24,4.63,2.8c0.69,0.22,1.37,0.38,2.09,0.32C68.21,44.2,68.22,44.25,68.2,44.3z"/>
	<path style="fill-rule:evenodd;clip-rule:evenodd;fill:#AECCC7;" d="M60.48,57.6c0,0.08,0,0.16,0,0.24
		c-0.15,0.13-0.1,0.35-0.24,0.48l0,0c-0.08,0.08-0.16,0.16-0.24,0.24c0,0.08,0,0.16,0,0.24c-0.13,0.14-0.21,0.38-0.48,0.24
		c0.42-1.26,1.21-2.42,0.96-3.85c-0.25-1.4-0.76-2.62-2.24-3.14c0.53-0.32,1.12-0.18,1.69-0.25c1.23,1.12,1.31,2.57,1.16,4.07
		c-0.04,0.42-0.24,0.83-0.36,1.25C60.57,57.24,60.63,57.47,60.48,57.6z"/>
	<path style="fill-rule:evenodd;clip-rule:evenodd;fill:#76AAA3;" d="M25.91,20.82c0.5-2.01,0.08-3.97-0.24-5.95
		c0.24-0.17,0.48-0.33,0.72-0.5c0.75,1.78,1.13,3.63,1.04,5.57C27.04,20.43,26.54,20.74,25.91,20.82z"/>
	<path style="fill-rule:evenodd;clip-rule:evenodd;fill:#CEE3DF;" d="M19.85,15.8c1.26,1.24,0.86,2.88,1.05,4.38
		c0.06,0.48,0.07,0.8-0.55,0.64c-0.44-0.38-0.66-0.83-0.68-1.44c-0.04-1.18-0.15-2.35-0.23-3.52C19.57,15.84,19.71,15.82,19.85,15.8
		z"/>
	<path style="fill-rule:evenodd;clip-rule:evenodd;fill:#7DADA7;" d="M16.05,9.37c-1.21,1.38-2.9,1.05-4.44,1.24
		c-0.19,0.02-0.39-0.04-0.59-0.06c0.25-0.4,0.49-0.81,0.74-1.21c0.1-0.06,0.2-0.13,0.3-0.19c1.26-0.12,2.51-0.32,3.77-0.5
		C15.9,8.89,15.97,9.13,16.05,9.37z"/>
	<path style="fill-rule:evenodd;clip-rule:evenodd;fill:#54867B;" d="M27.82,12.42c-0.38,1.83,0.34,3.46,1.02,5.08
		c0.14,0.34,0.23,0.5-0.04,0.75c-0.15,0.25-0.3,0.51-0.45,0.76c-0.2-0.03-0.42-0.12-0.49-0.29c-0.63-1.55-1.26-3.11-1.01-4.85
		l-0.01,0.03c0.1-0.03,0.13-0.1,0.11-0.2C27.23,13.27,27.53,12.85,27.82,12.42z"/>
	<path style="fill-rule:evenodd;clip-rule:evenodd;fill:#D075A3;" d="M35.03,51.56c-0.39-1.43,0.48-3.15,1.7-3.36
		c0.32,0.02,0.63,0.05,0.95,0.07c-0.55,1.07-1.65,1.89-1.44,3.29C35.84,51.56,35.43,51.56,35.03,51.56z"/>
	<path style="fill-rule:evenodd;clip-rule:evenodd;fill:#C95090;" d="M53.77,49.25c0.4,0.87,0.79,1.73,1.19,2.59
		c-0.48,0-0.95,0-1.43,0c-1.05-0.48-1.32-1.59-1.93-2.42c-0.24-0.33,0.01-0.6,0.45-0.58c0.36,0.02,0.72-0.06,1.07,0.08
		c0.12,0.02,0.24,0.04,0.36,0.06C53.6,49.05,53.77,49.06,53.77,49.25z"/>
	<path style="fill-rule:evenodd;clip-rule:evenodd;fill:#B5D4D0;" d="M13.92,15.63c-0.49,1.78-0.05,3.52,0.24,5.26
		c-0.14,0.01-0.27,0.02-0.41,0.03c-1.13-1.06-1.09-2.43-0.92-3.79c0.07-0.53,0.17-1.01-0.09-1.5c0.17-0.02,0.34-0.05,0.51-0.07
		C13.48,15.59,13.7,15.61,13.92,15.63z"/>
	<path style="fill-rule:evenodd;clip-rule:evenodd;fill:#427468;" d="M31.44,52.04c0-0.07,0-0.13,0-0.2
		c3.45,0.23,6.91,0.46,10.36,0.69c0.15,0.01,0.29,0.09,0.43,0.13c-0.16,0.05-0.32,0.15-0.49,0.16
		C38.28,52.92,34.83,52.94,31.44,52.04z"/>
	<path style="fill-rule:evenodd;clip-rule:evenodd;fill:#BC337D;" d="M33.93,47.72c-0.5,1.01-0.25,2.23-0.98,3.2
		c-0.17,0.22,0.53,0.08,0.65,0.4c-0.64-0.07-1.27-0.14-1.91-0.21c-0.17-1.26,0.29-2.43,0.48-3.64c0.25-0.07,0.5-0.09,0.74,0.03
		C33.25,47.57,33.63,47.42,33.93,47.72z"/>
	<path style="fill-rule:evenodd;clip-rule:evenodd;fill:#63968D;" d="M26.85,13.87c0.47,1.72,0.59,3.55,1.5,5.14
		c-0.07,0.54-0.46,0.77-0.92,0.95c-0.48-1.83-0.83-3.69-1.04-5.57c0.08-0.16,0.16-0.32,0.24-0.48
		C26.71,13.89,26.78,13.88,26.85,13.87z"/>
	<path style="fill-rule:evenodd;clip-rule:evenodd;fill:#CA6799;" d="M53.12,48.93c-0.43,0.13-1.07-0.22-1.28,0.24
		c-0.21,0.44,0.45,0.64,0.68,0.98c0.36,0.55,0.68,1.13,1.01,1.7c-0.32,0.28-0.65,0.08-0.97,0.02c-0.63-1.98-2.2-2.75-4.07-3.11
		C50.03,48.76,51.59,48.57,53.12,48.93z"/>
	<path style="fill-rule:evenodd;clip-rule:evenodd;fill:#851A4B;" d="M28.32,50.38c0.65-1.2,0.81-2.49,0.73-3.83
		c0.24,0.15,0.47,0.3,0.71,0.44c0.81,0.98,0.62,2.38-0.49,3.64C28.96,50.55,28.64,50.46,28.32,50.38z"/>
	<path style="fill-rule:evenodd;clip-rule:evenodd;fill:#AE246F;" d="M32.19,47.57c0.42,1.26-0.23,2.37-0.5,3.54
		c-0.48-0.08-0.96-0.17-1.43-0.25c-0.07-0.1-0.07-0.21-0.01-0.31c0.63-0.51,0.83-1.2,0.87-1.97c0.02-0.42-0.13-0.86,0.09-1.27
		c0.16,0.01,0.32,0.02,0.48,0.03C31.83,47.45,32.1,47.32,32.19,47.57z"/>
	<path style="fill-rule:evenodd;clip-rule:evenodd;fill:#931A57;" d="M30.26,50.64c-0.01,0.07-0.01,0.14,0,0.21
		c-0.32-0.07-0.65-0.15-0.97-0.22c0.2-1.21,1.15-2.32,0.49-3.64c0.33,0.08,0.66,0.17,1,0.25C31.29,48.48,30.95,49.59,30.26,50.64z"
		/>
	<path style="fill-rule:evenodd;clip-rule:evenodd;fill:#901B56;" d="M64.07,48.41c-0.55,0.56-1.44,0.95-0.94,2h0
		c-0.21,0.19-0.5,0.05-0.72,0.18c-0.24,0.02-0.48,0.04-0.72,0.05c-0.78-0.6,0.19-1.18,0.01-1.77c-0.01-0.05-0.02-0.1-0.03-0.15
		C62.43,48.31,63.28,48.57,64.07,48.41z"/>
	<path style="fill-rule:evenodd;clip-rule:evenodd;fill:#BB287A;" d="M58.08,51.32c0.08-0.26,0.76-0.08,0.41-0.73
		c-0.31-0.57,0.22-1.11,0.53-1.6c0.18-0.28,0.52-0.05,0.73-0.23c0.08,0,0.17,0,0.25,0c0.15,0.07,0.32,0.13,0.34,0.33
		c-0.12,0.73-0.5,1.36-0.83,2C59.04,51.17,58.56,51.25,58.08,51.32z"/>
	<path style="fill-rule:evenodd;clip-rule:evenodd;fill:#26342D;" d="M12.7,48.76c1.87,0.38,3.73,0.75,5.6,1.13
		c-0.17,0.08-0.35,0.16-0.52,0.24c-1.34,0.15-2.51-0.55-3.79-0.71c-0.74-0.09-1.48-0.15-2.22-0.22
		C12.07,49.05,12.38,48.91,12.7,48.76z"/>
	<path style="fill-rule:evenodd;clip-rule:evenodd;fill:#A31D65;" d="M30.26,50.64c0.17-1.13,0.58-2.23,0.51-3.4
		c0.15,0.02,0.29,0.04,0.44,0.06C31.74,48.91,31.35,50.27,30.26,50.64z"/>
	<path style="fill-rule:evenodd;clip-rule:evenodd;fill:#B22472;" d="M59.52,51.1c-0.25-0.87,0.51-1.4,0.72-2.12
		c0.11-0.19,0.34-0.09,0.48-0.21c0.32-0.02,0.63-0.03,0.95-0.05l-0.05,0.08c-0.32,0.67-0.8,1.28-0.91,2.04
		C60.31,50.93,59.91,51.01,59.52,51.1z"/>
	<path style="fill-rule:evenodd;clip-rule:evenodd;fill:#A12066;" d="M60.71,50.84c-0.46-1.02,0.12-1.58,0.91-2.04
		c0.25,0.04,0.87-0.34,0.44,0.44c-0.24,0.42-0.67,0.83-0.37,1.4C61.35,50.7,61.03,50.77,60.71,50.84z"/>
	<path style="fill-rule:evenodd;clip-rule:evenodd;fill:#427166;" d="M26.57,44.11c0.26-1.39,1.01-2.58,1.64-3.81
		c0.05-0.11,0.19-0.17,0.29-0.26c0,0.15,0.04,0.31-0.01,0.45c-0.42,1.33-1.08,2.54-1.81,3.72C26.66,44.18,26.62,44.14,26.57,44.11z"
		/>
	<path style="fill-rule:evenodd;clip-rule:evenodd;fill:#402F34;" d="M39.54,47.73c0.04-0.06,0.08-0.12,0.11-0.18
		c1.13,0.07,2.27-0.25,3.38,0.18c-0.18,0.08-0.36,0.17-0.54,0.25c-0.65-0.01-1.3-0.02-1.95-0.03C40.21,47.87,39.87,47.8,39.54,47.73
		z"/>
	<path style="fill-rule:evenodd;clip-rule:evenodd;fill:#CA6799;" d="M51.36,51.81c0.27,0.02,0.54,0.04,0.8,0.06
		c-0.72,0.29-1.47,0.2-2.22,0.17C50.37,51.68,50.89,51.93,51.36,51.81z"/>
	<path style="fill-rule:evenodd;clip-rule:evenodd;fill:#B22472;" d="M59.76,48.76c-0.24,0.08-0.49,0.16-0.73,0.23
		c-0.32-0.02-0.63-0.03-0.95-0.05C58.61,48.65,59.19,48.74,59.76,48.76z"/>
	<path style="fill-rule:evenodd;clip-rule:evenodd;fill:#BFDBD6;" d="M35.54,53.27c-0.57-0.05-1.17,0.2-1.7-0.19
		C34.41,53.15,35.01,52.91,35.54,53.27z"/>
	<path style="fill-rule:evenodd;clip-rule:evenodd;fill:#AD93BC;" d="M53.77,49.25c-0.1-0.09-0.19-0.18-0.29-0.27
		c0.56,0.02,1.11,0.03,1.67,0.05C54.69,49.1,54.23,49.18,53.77,49.25z"/>
	<path style="fill-rule:evenodd;clip-rule:evenodd;fill:#AAD0CC;" d="M10.02,37.95c0.48,0.36,0.38,0.76,0.08,1.17
		C10.07,38.73,10.04,38.34,10.02,37.95z"/>
	<path style="fill-rule:evenodd;clip-rule:evenodd;fill:#A31D65;" d="M32.19,47.57c-0.17-0.08-0.33-0.16-0.5-0.24
		c0.41,0.01,0.84-0.09,1.22,0.17C32.67,47.52,32.43,47.54,32.19,47.57z"/>
	<path style="fill-rule:evenodd;clip-rule:evenodd;fill:#A6CEC9;" d="M32.17,52.79c-0.16,0.01-0.32,0.01-0.48,0.02
		c-0.16-0.07-0.32-0.15-0.48-0.22C31.54,52.57,31.9,52.48,32.17,52.79z"/>
	<path style="fill-rule:evenodd;clip-rule:evenodd;fill:#A3CCC8;" d="M24.97,45.14c0-0.33-0.11-0.69,0.16-0.97
		C25.08,44.5,25.03,44.82,24.97,45.14z"/>
	<path style="fill-rule:evenodd;clip-rule:evenodd;fill:#77AEA8;" d="M25.73,51.82c-0.34,0-0.71,0.12-1-0.18
		C25.08,51.6,25.43,51.53,25.73,51.82z"/>
	<path style="fill-rule:evenodd;clip-rule:evenodd;fill:#827889;" d="M28.06,45.61c-0.29-0.16-0.27-0.33-0.01-0.51
		c0.07,0.17,0.14,0.34,0.21,0.51C28.19,45.68,28.13,45.68,28.06,45.61z"/>
	<path style="fill-rule:evenodd;clip-rule:evenodd;fill:#AAD0CC;" d="M10.07,40.32c0.08,0.16,0.17,0.32,0.25,0.48
		c0,0.08,0,0.16,0,0.24c-0.08,0.08-0.16,0.07-0.24,0C10.08,40.8,10.08,40.56,10.07,40.32z"/>
	<path style="fill-rule:evenodd;clip-rule:evenodd;fill:#A12066;" d="M60.72,48.76c-0.16,0.07-0.32,0.14-0.48,0.21
		c-0.08-0.07-0.15-0.14-0.23-0.22C60.24,48.76,60.48,48.76,60.72,48.76z"/>
	<path style="fill-rule:evenodd;clip-rule:evenodd;fill:#7D1C45;" d="M62.4,50.58c0.2-0.23,0.46-0.21,0.72-0.18
		C62.93,50.64,62.67,50.64,62.4,50.58z"/>
	<path style="fill-rule:evenodd;clip-rule:evenodd;fill:#87B0AA;" d="M61.68,51.4c-0.22,0.25-0.5,0.21-0.79,0.17
		C61.12,51.35,61.4,51.36,61.68,51.4z"/>
	<path style="fill-rule:evenodd;clip-rule:evenodd;fill:#4F3F5A;" d="M27.83,43.9c-0.09-0.01-0.19-0.03-0.28-0.04
		c0.06-0.09,0.12-0.18,0.18-0.27C27.77,43.69,27.8,43.8,27.83,43.9z"/>
	<path style="fill-rule:evenodd;clip-rule:evenodd;fill:#A7CFCA;" d="M9.81,30.15c0,0.23,0,0.45,0,0.67
		C9.65,30.6,9.63,30.38,9.81,30.15z"/>
	<path style="fill-rule:evenodd;clip-rule:evenodd;fill:#A7CFCA;" d="M9.82,29.46c0,0.21,0,0.42,0,0.63
		C9.65,29.87,9.67,29.66,9.82,29.46z"/>
	<path style="fill-rule:evenodd;clip-rule:evenodd;fill:#538377;" d="M64.32,50.94c-0.09,0.07-0.17,0.15-0.26,0.22
		c-0.09-0.02-0.18-0.05-0.27-0.08C63.96,51.03,64.14,50.98,64.32,50.94z"/>
	<path style="fill-rule:evenodd;clip-rule:evenodd;fill:#9D2B61;" d="M29.05,40.81c-0.07,0.16-0.14,0.31-0.21,0.47
		C28.91,41.12,28.98,40.97,29.05,40.81z"/>
	<path style="fill-rule:evenodd;clip-rule:evenodd;fill:#BDDAD5;" d="M23.28,14.82c0.17-0.05,0.35-0.09,0.52-0.14
		C23.63,14.73,23.46,14.78,23.28,14.82z"/>
	<path style="fill-rule:evenodd;clip-rule:evenodd;fill:#A7CFCA;" d="M19.5,21.58c-0.12,0-0.23,0-0.35,0
		C19.26,21.42,19.38,21.42,19.5,21.58z"/>
	<path style="fill-rule:evenodd;clip-rule:evenodd;fill:#CCE2DE;" d="M55.21,52.83c-0.1,0.06-0.2,0.13-0.3,0.19
		C55.01,52.96,55.11,52.89,55.21,52.83z"/>
	<path style="fill-rule:evenodd;clip-rule:evenodd;fill:#A7CFCA;" d="M16.11,21.59c-0.12-0.01-0.24-0.01-0.36-0.02
		C15.88,21.43,16,21.44,16.11,21.59z"/>
	<path style="fill-rule:evenodd;clip-rule:evenodd;fill:#CCE2DE;" d="M55.44,52.62c-0.07,0.06-0.14,0.13-0.21,0.19
		C55.3,52.74,55.37,52.68,55.44,52.62z"/>
	<path style="fill-rule:evenodd;clip-rule:evenodd;fill:#BED7D2;" d="M56.87,52.31c-0.09,0.08-0.18,0.16-0.27,0.24
		C56.69,52.47,56.78,52.39,56.87,52.31z"/>
	<path style="fill-rule:evenodd;clip-rule:evenodd;fill:#A1B3C1;" d="M28.06,45.61c0.06,0.02,0.13,0.01,0.19,0
		c0.02,0.08,0.05,0.16,0.08,0.24C28.24,45.77,28.15,45.69,28.06,45.61z"/>
	<path style="fill-rule:evenodd;clip-rule:evenodd;fill:#466685;" d="M28.58,46.09c-0.08-0.09-0.17-0.17-0.25-0.26
		C28.41,45.91,28.49,46,28.58,46.09z"/>
	<path style="fill-rule:evenodd;clip-rule:evenodd;fill:#B42674;" d="M66.72,46.73c0.1-0.05,0.19-0.1,0.29-0.15
		C66.92,46.63,66.82,46.68,66.72,46.73z"/>
	<path style="fill-rule:evenodd;clip-rule:evenodd;fill:#9DC9C5;" d="M13.85,47.34c0.1,0.05,0.2,0.09,0.31,0.14
		C14.05,47.44,13.95,47.39,13.85,47.34z"/>
	<path style="fill-rule:evenodd;clip-rule:evenodd;fill:#A7CFCA;" d="M10.08,41.04c0.08,0,0.16,0,0.24,0
		c-0.07,0.08-0.15,0.16-0.22,0.24C10.09,41.2,10.09,41.12,10.08,41.04z"/>
	<path style="fill-rule:evenodd;clip-rule:evenodd;fill:#B6D7D2;" d="M9.87,32.41c0.03,0.05,0.06,0.11,0.08,0.16
		c0,0.01-0.05,0.04-0.08,0.07C9.82,32.56,9.82,32.48,9.87,32.41z"/>
	<path style="fill-rule:evenodd;clip-rule:evenodd;fill:#9D2B61;" d="M28.78,41.49c-0.06,0.09-0.11,0.18-0.17,0.27
		C28.66,41.67,28.72,41.58,28.78,41.49z"/>
	<path style="fill-rule:evenodd;clip-rule:evenodd;fill:#8ABCB7;" d="M36.81,65.73c2.29,0.16,4.59,0.32,6.88,0.48
		c0.01,0.07,0.02,0.13,0.02,0.2c-0.2,0.33-0.53,0.37-0.87,0.41c-0.94,0.04-1.17,0.77-1.3,1.47c-0.59,3.26-1.04,6.52-0.25,9.82
		c0.03,0.12,0.01,0.24-0.03,0.35c-2.45,0.82-4.94,0.73-7.43,0.25c-0.15-0.43,0.12-0.77,0.25-1.14c1.06-3.1,2.18-6.19,2.03-9.55
		c-0.02-0.52,0-1.04-0.13-1.55C35.82,65.71,36.11,65.5,36.81,65.73z"/>
	<path style="fill-rule:evenodd;clip-rule:evenodd;fill:#E5F0EE;" d="M37.29,79.65c1.52-0.09,3.02-0.26,4.48-0.68
		c1.17,0.53,1.69,1.59,2.05,2.7c0.3,0.9,0.33,1.86,0.09,2.8l-0.08,0.05l-0.1-0.02c-0.16,0.1-0.37,0.07-0.53,0.19
		c-2.7,0.48-5.39,1.09-8.16,0.48c-1.07-1.79-0.47-3.54,0.13-5.28c0.12-0.34,0.41-0.33,0.69-0.32
		C36.34,79.59,36.82,79.49,37.29,79.65z"/>
	<path style="fill-rule:evenodd;clip-rule:evenodd;fill:#699C94;" d="M27.37,75.35c-0.09-0.02-0.17-0.05-0.26-0.07
		c-0.09-0.04-0.18-0.09-0.26-0.15c-0.95-0.43-1.97-0.77-2.63-1.67c-0.24-0.68-0.7-1.24-0.96-1.92c-0.57-1.46-0.36-2.73,0.81-3.8
		c0.29-0.27,0.58-0.54,0.9-0.79c1.38-1.04,2.23-2.35,2.16-4.14c0.24-0.06,0.48-0.11,0.7,0.06c1,0.11,1.88,0.62,2.82,0.91
		c0.73,0.23,0.57,0.74,0.49,1.25c-2.14,1.64-2.13,4.13-2.47,6.45c-0.18,1.23-0.52,2.39-0.91,3.56
		C27.71,75.22,27.64,75.43,27.37,75.35z"/>
	<path style="fill-rule:evenodd;clip-rule:evenodd;fill:#427063;" d="M18.45,68.93c-0.71-1.57-1.98-3-0.72-4.93
		c0.66-1,1.44-1.57,2.58-1.6c1.47-0.04,2.94,0.02,4.41,0.04c0.63,1.02-0.05,1.64-0.72,2.23c-0.67,0.59-1.55,0.8-2.34,1.18
		c-0.97,0.47-1.77,1.06-2.13,2.13C19.37,68.49,19.08,68.92,18.45,68.93z"/>
	<path style="fill-rule:evenodd;clip-rule:evenodd;fill:#5E9A90;" d="M14.15,68.18c0.6,0.69,0.93,0.51,1.25-0.29
		c0.35-0.89,0.82-1.73,1.24-2.6c-0.02,0.29-0.03,0.58-0.05,0.87c0.02,0.12,0.11,0.2,0.15,0.31c0.02,0.08,0.05,0.16,0.07,0.23
		c0.07,0.07,0.12,0.15,0.16,0.25c0.26,0.65,0.51,1.29,0.77,1.94c-0.08,1.56-0.26,3.13,0.46,4.63c0.19,0.38,0.17,0.86-0.22,1.19
		c-0.63-0.23-1.28-0.43-1.9-0.69c-0.27-0.12-0.72-0.45-0.69-0.56c0.55-1.79-0.85-3.04-1.22-4.56
		C14.12,68.66,14.15,68.42,14.15,68.18z"/>
	<path style="fill-rule:evenodd;clip-rule:evenodd;fill:#49796C;" d="M18.45,68.93c0.11-0.11,0.29-0.19,0.33-0.33
		c0.75-2.35,2.82-3.1,4.79-4.01c0.84-0.39,1.29-1.16,1.16-2.15c0.09,0.02,0.17,0.04,0.26,0.06c0.16,0.03,0.33,0.03,0.47,0.13l0,0.01
		c0.74,0.48,0.49,1.09,0.2,1.68c-0.5,1.02-1.39,1.66-2.32,2.2c-1.59,0.92-2.47,2.1-1.97,4.03c0.1,0.39,0.21,1-0.56,1.01
		C19.67,70.98,19,70,18.45,68.93z"/>
	<path style="fill-rule:evenodd;clip-rule:evenodd;fill:#7EB1AB;" d="M36.81,65.73c-0.22,0.13-0.63-0.18-0.52,0.56
		c0.65,4.41-0.54,8.5-2.46,12.43c-0.4-0.17-0.79-0.34-1.19-0.51c0.64-1.95,1.46-3.83,1.91-5.85c0.45-2.04,0.68-4.06,0.17-6.12
		c-0.06-0.23-0.08-0.47,0.01-0.71c0.1-0.12,0.22-0.12,0.34-0.03C35.65,65.57,36.23,65.65,36.81,65.73z"/>
	<path style="fill-rule:evenodd;clip-rule:evenodd;fill:#518276;" d="M46.06,66.48c-0.23,3.04-0.45,6.09-0.71,9.13
		c-0.06,0.75-0.46,1.35-1.21,1.64c-0.5-0.2-0.57-0.65-0.58-1.08c-0.04-2.46-0.2-4.92,0.48-7.34c0.18-0.65,0.38-1.3,0.76-1.87
		C45.1,66.53,45.44,66.09,46.06,66.48z"/>
	<path style="fill-rule:evenodd;clip-rule:evenodd;fill:#62958C;" d="M46.06,66.48c-0.89,0.01-1.04,0.74-1.27,1.36
		c-1.13,3.07-1.08,6.23-0.65,9.41c-0.32,0.17-0.64,0.34-0.95,0.5c-0.85-0.27-0.81-1-0.82-1.66c-0.05-3.26-0.21-6.53,1.32-9.57
		c0.03-0.06-0.03-0.15-0.07-0.22l0-0.07l0.06-0.03C44.5,66.15,45.38,65.48,46.06,66.48z"/>
	<path style="fill-rule:evenodd;clip-rule:evenodd;fill:#7DB0AA;" d="M41.27,78.46c-0.54-0.34-0.63-0.96-0.66-1.46
		c-0.17-3.13-0.08-6.24,0.68-9.31c0.23-0.91,0.67-1.4,1.66-1.21c0.14,0.26,0.14,0.54,0.05,0.81c-1.08,3.19-0.87,6.49-0.86,9.77
		c0,0.39,0.06,0.79-0.15,1.16C41.75,78.3,41.51,78.38,41.27,78.46z"/>
	<path style="fill-rule:evenodd;clip-rule:evenodd;fill:#A7CAC5;" d="M16.81,80.61c-0.24-0.15-0.48-0.3-0.73-0.45
		c-0.14-1.07,0.77-1.61,1.24-2.35c0.46-0.73,1.09-1.37,1.67-2.02c1.27,0.27,2.53,0.55,3.8,0.82c-0.14,0.49-0.7,0.87-0.4,1.48
		c-0.04,0.68,0.47,1.29,0.28,1.99c-0.46,0.4-0.72-0.06-1.01-0.27c-1.65-1.23-2.36-1.21-3.87,0.17
		C17.5,80.24,17.22,80.53,16.81,80.61z"/>
	<path style="fill-rule:evenodd;clip-rule:evenodd;fill:#5B8D83;" d="M27.15,62.93c0.92,0.85,0.07,1.63-0.21,2.33
		c-0.35,0.87-1.11,1.5-1.9,2.07c-1.95,1.4-2.23,2.63-1.16,4.81c0.22,0.44,0.43,0.84,0.36,1.33c-0.08-0.05-0.16-0.1-0.24-0.15
		c-0.03-0.18-0.15-0.29-0.32-0.34c-0.37-0.18-0.73-0.35-1.1-0.53c-1.39-2.28-1.1-4.17,0.99-5.73c1.17-0.88,2.21-1.81,2.69-3.26
		C26.36,63.08,26.55,62.58,27.15,62.93z"/>
	<path style="fill-rule:evenodd;clip-rule:evenodd;fill:#598C81;" d="M31.21,77.49c-0.92-0.63-0.41-1.57-0.51-2.38
		c1.31-2.38,1.79-4.94,1.6-7.64c-0.04-0.66-0.67-1.07-0.64-1.74c-0.04-1.75,0.86-0.67,1.46-0.49c0.08,0.11,0.16,0.22,0.23,0.33
		c0.88,2.05,0.7,4.13,0.25,6.23c-0.33,1.53-0.78,3.02-1.36,4.47C32.05,76.8,31.86,77.35,31.21,77.49z"/>
	<path style="fill-rule:evenodd;clip-rule:evenodd;fill:#518377;" d="M27.15,62.93c-0.12,0.02-0.32,0.02-0.33,0.07
		c-0.51,2.25-2.36,3.39-3.94,4.74c-1,0.85-0.9,1.96-0.66,3.09c0.12,0.54,0.23,1.08,0.35,1.62c-0.66-0.16-1.28-0.39-1.77-0.89
		c0.51-0.37,0.3-0.83,0.19-1.29c-0.37-1.52,0.05-2.69,1.43-3.55c1.07-0.66,2.2-1.27,2.89-2.41c0.34-0.55,0.49-1.08,0.13-1.67
		c0.81,0,1.62-0.1,2.39,0.24C27.61,62.89,27.38,62.91,27.15,62.93z"/>
	<path style="fill-rule:evenodd;clip-rule:evenodd;fill:#71A59E;" d="M42,78.22c-0.48-2.41-0.26-4.84-0.14-7.25
		c0.08-1.54,0.44-3.06,1.1-4.49c0.22-0.06,0.45-0.12,0.67-0.18c0.31,0,0.82-0.26,0.42,0.47c-1.75,3.16-1.27,6.64-1.29,10.03
		c0,0.31,0.29,0.63,0.45,0.95l0,0c-0.12,0.15-0.34,0.1-0.47,0.24C42.48,78.07,42.24,78.15,42,78.22z"/>
	<path style="fill-rule:evenodd;clip-rule:evenodd;fill:#71A59E;" d="M34.82,65.57c1.35,4.57,0,8.67-2.17,12.64
		c-0.16-0.07-0.33-0.15-0.49-0.22c-0.34-0.48-0.03-0.92,0.12-1.36c0.79-2.34,1.58-4.68,1.8-7.18c0.09-1.06-0.08-2.07-0.25-3.08
		C33.67,65.44,33.94,65.15,34.82,65.57z"/>
	<path style="fill-rule:evenodd;clip-rule:evenodd;fill:#69A39A;" d="M17.98,74.71c0.22-1.42-1.04-2.56-0.72-4.03
		c0.13-0.61,0.09-1.26,0.49-1.79c0.05,0.04,0.07,0.09,0.05,0.15c0.02,0.14,0.11,0.23,0.2,0.33l0,0.01c0.08,0.06,0.14,0.13,0.17,0.22
		c0.59,0.72,1.18,1.44,1.76,2.16c-0.14,0.85,0.11,1.61,0.55,2.33c0.28,0.45,0.63,0.94,0.16,1.49
		C19.67,75.53,18.86,75.02,17.98,74.71z"/>
	<path style="fill-rule:evenodd;clip-rule:evenodd;fill:#4D7E72;" d="M31.66,65.74c1.32,1,1.1,2.38,0.99,3.78
		c-0.13,1.6-0.54,3.13-1.02,4.65c-0.14,0.45-0.31,0.94-0.93,0.94C30.71,71.96,31.17,68.85,31.66,65.74z"/>
	<path style="fill-rule:evenodd;clip-rule:evenodd;fill:#55877C;" d="M30.91,66.72c-0.27,3.11-0.69,6.21-0.89,9.33
		c-0.06,0.97-0.98-0.06-1.51-0.17c-0.23-2.66,0.29-5.23,0.98-7.77C29.67,67.43,29.99,66.73,30.91,66.72z"/>
	<path style="fill-rule:evenodd;clip-rule:evenodd;fill:#659990;" d="M34.82,65.57c-0.29,0.06-0.95-0.34-0.72,0.44
		c0.88,2.98,0.06,5.79-0.77,8.6c-0.34,1.14-0.77,2.25-1.17,3.38c-0.37-0.05-0.71-0.17-0.95-0.49c1.89-3.79,3.11-7.69,1.91-11.98
		c0.12-0.15,0.34-0.08,0.47-0.21c0.51-0.04,1.01-0.08,1.48,0.19C34.99,65.52,34.91,65.54,34.82,65.57z"/>
	<path style="fill-rule:evenodd;clip-rule:evenodd;fill:#60948A;" d="M30.91,66.72c-1.79,1.37-1.37,3.51-1.87,5.33
		c-0.35,1.25,0.04,2.6-0.52,3.82c-0.38-0.17-0.76-0.35-1.14-0.52c1.13-2.7,0.89-5.7,1.89-8.43c0.34-0.93,0.76-1.76,1.89-1.89
		C31.07,65.6,30.99,66.16,30.91,66.72z"/>
	<path style="fill-rule:evenodd;clip-rule:evenodd;fill:#79B0AA;" d="M20.64,75.57c0.12-0.92-0.6-1.51-0.92-2.24
		c-0.27-0.62-0.34-1.11,0.21-1.58l0,0c0.06,0.11,0.15,0.18,0.26,0.24l-0.01-0.01c0.06,0.12,0.16,0.2,0.28,0.25
		c1.05,0.4,2.01,0.95,2.86,1.68c0.03,0.74,0.94,1.59-0.27,2.18C22.22,76.04,21.41,75.89,20.64,75.57z"/>
	<path style="fill-rule:evenodd;clip-rule:evenodd;fill:#66938B;" d="M29.76,83.72c-0.32-0.07-0.63-0.15-0.95-0.22
		c-0.25-0.61-0.24-1.32-0.68-1.86c-0.3-0.36-0.54-0.86-1.1-0.74c-0.6,0.13-0.67,0.67-0.78,1.19c-0.07,0.34,0.33,0.87-0.37,0.98
		l-0.11,0l-0.1-0.04c-0.89-0.97-0.95-2.39-0.17-3.89c0.71-0.68,1.52-0.61,2.32-0.26C29.47,79.59,30.42,82.02,29.76,83.72z"/>
	<path style="fill-rule:evenodd;clip-rule:evenodd;fill:#8EB9B4;" d="M18.98,75.78c-0.22,1.44-1.68,2.05-2.2,3.29
		c-0.17,0.39-0.47,0.73-0.71,1.09c-0.24-0.15-0.48-0.31-0.72-0.46c-0.08-0.09-0.15-0.18-0.25-0.24l0,0
		c0.46-1.39,0.98-2.77,1.01-4.27c0-0.22,0.18-0.44,0.49-0.33C17.38,75.2,18.29,75.2,18.98,75.78z"/>
	<path style="fill-rule:evenodd;clip-rule:evenodd;fill:#72A19A;" d="M29.76,83.72c0.03-1.14-0.08-2.25-0.69-3.27
		c-0.83-1.38-1.85-1.77-3.39-1.26c-0.29,0.24-0.6,0.29-0.94,0.09c-0.2-1.09,0.29-1.82,1.3-1.9c0.35-0.03,0.72,0.07,1.07-0.08
		c0.58,0.22,1.32,0.03,1.76,0.63c0.94,1.3,1.49,2.75,1.63,4.35c0.05,0.54,0.16,1.13-0.49,1.43C29.92,83.73,29.84,83.73,29.76,83.72z
		"/>
	<path style="fill-rule:evenodd;clip-rule:evenodd;fill:#86B9B5;" d="M23.04,76.08c1.03-0.61-0.43-1.53,0.27-2.18
		c0.08-0.01,0.15,0.01,0.21,0.07c0.09,0.06,0.19,0.12,0.28,0.17c0.09-0.01,0.16,0.02,0.21,0.1c0.09,0.03,0.15,0.08,0.2,0.17
		l0.03,0.02c0.1,0.06,0.18,0.15,0.28,0.2c1.79,0.82,3.58,1.63,5.37,2.46c0.12,0.06,0.2,0.2,0.3,0.3c-0.14,0.03-0.29,0.11-0.41,0.08
		c-2.01-0.39-4.02-0.8-6.02-1.2c-0.18-0.09-0.38-0.1-0.57-0.16l-0.08,0.02L23.04,76.08z"/>
	<path style="fill-rule:evenodd;clip-rule:evenodd;fill:#527C71;" d="M45.63,76.57c0.1-0.36,0.04-0.93,0.42-0.99
		c0.25-0.03,0.58,0.45,0.85,0.73c0.89,0.92,1.43,2.08,2,3.21c0.39,0.78,0.52,1.59-0.13,2.33c-0.42,0.24-0.76,0.02-0.87-0.33
		C47.35,79.78,46.23,78.3,45.63,76.57z"/>
	<path style="fill-rule:evenodd;clip-rule:evenodd;fill:#D9E8E5;" d="M37.29,79.65c-0.59,0.18-1.62-0.26-1.73,0.24
		c-0.27,1.2-1.13,2.33-0.7,3.64c0.18,0.54,0.18,1.08,0.19,1.64c-0.6,0.01-1.15-0.2-1.68-0.47c-0.48-1.49-0.33-2.95,0.26-4.37
		c0.18-0.44,0.36-0.93,1.01-0.68C35.52,79.5,36.4,79.4,37.29,79.65z"/>
	<path style="fill-rule:evenodd;clip-rule:evenodd;fill:#BDD5D0;" d="M16.81,80.61c2.19-2.63,2.95-2.69,5.75-0.45
		c0.68,0.67,1.08,1.45,0.96,2.44c-0.16-0.03-0.31-0.06-0.47-0.09c-0.07-0.08-0.14-0.17-0.21-0.25c-0.48-0.18-0.7-0.63-1-0.99
		c-0.89-1.07-1.81-1.32-3.07-0.7c-0.49,0.24-0.96,0.28-1.47,0.3C17.13,80.77,16.97,80.69,16.81,80.61z"/>
	<path style="fill-rule:evenodd;clip-rule:evenodd;fill:#5C867D;" d="M25.88,83.07c0.04-0.07,0.12-0.14,0.11-0.2
		c-0.17-0.9-0.14-1.76,0.7-2.34c0.37-0.25,0.79-0.17,1.07,0.18c0.65,0.81,1.53,1.55,1.04,2.79C27.82,83.43,26.83,83.38,25.88,83.07z
		"/>
	<path style="fill-rule:evenodd;clip-rule:evenodd;fill:#74A39D;" d="M16.6,74.85c-0.42,0.33-0.3,0.81-0.27,1.22
		c0.09,1.32-0.35,2.42-1.23,3.38c-0.74-0.87-0.76-3.94-0.04-4.86c0.3-0.39,0.54-0.15,0.8,0.03c0.03,0.25,0.13,0.05,0.21,0.04
		C16.25,74.73,16.42,74.79,16.6,74.85z"/>
	<path style="fill-rule:evenodd;clip-rule:evenodd;fill:#D3E2DF;" d="M43.91,84.46c-0.08-0.26-0.25-0.54-0.22-0.78
		c0.31-1.97-0.87-3.32-1.93-4.72c0.23-0.09,0.46-0.17,0.69-0.26c0.68-0.33,1.02,0.11,1.35,0.59c0.95,1.41,1.5,2.94,1.54,4.65
		C44.87,84.12,44.39,84.29,43.91,84.46z"/>
	<path style="fill-rule:evenodd;clip-rule:evenodd;fill:#CBDCD9;" d="M17.29,80.85c0.49-0.23,0.98-0.47,1.47-0.71
		c1.25-0.61,2.65-0.16,3.51,1.12c0.24,0.36,0.51,0.69,0.77,1.03c-0.08,0.1-0.17,0.12-0.27,0.04c-1.62-0.64-3.3-0.99-5.01-1.28
		c-0.11-0.04-0.18-0.14-0.3-0.16l-0.09,0.01L17.29,80.85z"/>
	<path style="fill-rule:evenodd;clip-rule:evenodd;fill:#C6DDD9;" d="M34.64,79.65c-1.16,0.94-1.25,2.25-1.15,3.57
		c0.04,0.52,0.15,1-0.12,1.48c-0.4-0.08-0.8-0.15-1.2-0.23c-0.32-1.68,0.05-3.28,0.49-4.88c0.07-0.24,0.14-0.58,0.55-0.42
		C33.68,79.33,34.16,79.49,34.64,79.65z"/>
	<path style="fill-rule:evenodd;clip-rule:evenodd;fill:#94BBB5;" d="M31.44,84.23c-0.24-0.09-0.48-0.18-0.71-0.27
		c-0.43-1.76-0.33-3.59-0.79-5.34c-0.12-0.45,0.33-0.45,0.54-0.64c0.65-0.09,1,0.51,1.54,0.68c0.23,1.61-0.31,3.21-0.09,4.83
		C31.97,83.82,31.77,84.1,31.44,84.23z"/>
	<path style="fill-rule:evenodd;clip-rule:evenodd;fill:#B1CECA;" d="M31.44,84.23c0.08-1.42,0.15-2.84,0.24-4.27
		c0.03-0.45-0.16-0.96,0.33-1.3c0.4,0.17,0.79,0.33,1.19,0.5c-0.87,1.67-0.56,3.56-1.03,5.31C31.88,84.52,31.64,84.44,31.44,84.23z"
		/>
	<path style="fill-rule:evenodd;clip-rule:evenodd;fill:#84ABA5;" d="M27.1,77.32c-1.09,0.25-2.23,0.44-2.38,1.88
		c0.28,0.94,0.07,1.93,0.26,2.89c0.06,0.31,0,0.73-0.52,0.74l0.01-0.02c-0.98-0.91-0.86-2.22-1.25-3.36c0.21-1.85,0.5-2.2,1.96-2.38
		C25.83,77.16,26.47,77.24,27.1,77.32z"/>
	<path style="fill-rule:evenodd;clip-rule:evenodd;fill:#7FABA6;" d="M30.47,77.98c-0.24,0.27-0.29,0.51-0.18,0.92
		c0.45,1.65,0.55,3.35,0.43,5.06c-0.24-0.08-0.48-0.15-0.72-0.22c0.48-1.76-0.09-3.33-0.92-4.84c-0.16-0.29-0.78-0.48-0.21-0.94
		C29.4,77.96,29.94,77.97,30.47,77.98z"/>
	<path style="fill-rule:evenodd;clip-rule:evenodd;fill:#608880;" d="M45.63,76.57c0.96,1.27,1.82,2.59,2.22,4.17
		c0.12,0.46,0.26,1.04,0.93,1.11c-0.27,0.4-0.54,0.79-1.01,0.97c-0.31-0.15-0.48-0.44-0.57-0.74c-0.5-1.69-1.31-3.25-2.1-4.81
		C45.27,77.04,45.45,76.8,45.63,76.57z"/>
	<path style="fill-rule:evenodd;clip-rule:evenodd;fill:#739690;" d="M45.1,77.27c1.26,0.94,1.48,2.47,2.1,3.76
		c0.27,0.56,0.38,1.19,0.57,1.79c-0.16,0.08-0.32,0.15-0.49,0.23c-0.54-0.12-0.79-0.54-0.91-1c-0.31-1.24-0.85-2.37-1.48-3.47
		c-0.2-0.36-0.33-0.73-0.03-1.1C44.94,77.41,45.02,77.34,45.1,77.27z"/>
	<path style="fill-rule:evenodd;clip-rule:evenodd;fill:#A2BDB8;" d="M23.52,79.44c0.32,1.12,0.64,2.25,0.96,3.37
		c-0.33-0.01-0.69,0.08-0.96-0.22c-0.32-0.81-0.64-1.63-0.96-2.44c-0.1-0.73-0.57-1.38-0.47-2.15
		C23.1,77.94,23.14,78.86,23.52,79.44z"/>
	<path style="fill-rule:evenodd;clip-rule:evenodd;fill:#BDD1CD;" d="M45.34,83.95c-0.75-1.35-0.63-3.03-1.66-4.27
		c-0.34-0.41-0.51-1.03-1.22-0.97c0.39-0.17,0.78-0.33,1.18-0.5c0.86,0.44,1.1,1.33,1.48,2.09c0.51,1.01,0.69,2.16,1.19,3.18
		l-0.07,0.06l-0.09,0c-0.11,0.03-0.19,0.12-0.3,0.17C45.67,83.79,45.51,83.87,45.34,83.95z"/>
	<path style="fill-rule:evenodd;clip-rule:evenodd;fill:#91B9B4;" d="M23.52,79.44c-0.6-0.36-0.75-1.17-1.44-1.43
		c-0.4-0.78-0.08-1.21,0.7-1.41c0.8,0.16,1.6,0.32,2.41,0.48C23.88,77.33,23.65,78.35,23.52,79.44z"/>
	<path style="fill-rule:evenodd;clip-rule:evenodd;fill:#8EACA7;" d="M44.87,77.48c0.81,1.86,1.61,3.71,2.42,5.57
		c-0.16,0.07-0.33,0.14-0.49,0.21c-0.43-0.07-0.71-0.3-0.84-0.73c-0.42-1.4-1-2.73-1.78-3.97c-0.11-0.17-0.21-0.43-0.05-0.67
		c0.09-0.05,0.17-0.1,0.26-0.15c0.08-0.07,0.16-0.12,0.26-0.15C44.72,77.56,44.79,77.52,44.87,77.48z"/>
	<path style="fill-rule:evenodd;clip-rule:evenodd;fill:#A6BFBA;" d="M44.12,77.9c1.17,1.65,1.62,3.66,2.66,5.37
		c-0.16,0.07-0.32,0.15-0.49,0.22c-0.21-0.26-0.65-0.22-0.72-0.69c-0.24-1.69-1.13-3.12-1.95-4.58C43.8,78.11,43.96,78,44.12,77.9z"
		/>
	<path style="fill-rule:evenodd;clip-rule:evenodd;fill:#789D97;" d="M24.46,82.83c0.6-0.63-0.02-1.27,0.01-1.9
		c0.03-0.58-0.09-1.19,0.24-1.73c0.32,0,0.64,0,0.96,0c-0.52,1.28-0.43,2.55,0,3.83C25.26,83.05,24.84,83.1,24.46,82.83z"/>
	<path style="fill-rule:evenodd;clip-rule:evenodd;fill:#A9C9C5;" d="M59.52,59.04c0.16-0.08,0.32-0.16,0.48-0.24
		c-0.72,1.2-1.44,2.4-2.16,3.59c-0.32,0.08-0.63,0.17-0.95,0.25c0.02-0.59,0.45-0.98,0.71-1.45C58.48,60.69,58.81,59.7,59.52,59.04z
		"/>
	<path style="fill-rule:evenodd;clip-rule:evenodd;fill:#D3E2DF;" d="M43.2,84.69c0.18-0.06,0.35-0.12,0.53-0.19
		C43.55,84.56,43.38,84.62,43.2,84.69z"/>
	<path style="fill-rule:evenodd;clip-rule:evenodd;fill:#A9C9C5;" d="M56.4,62.83c0.16-0.06,0.33-0.13,0.49-0.19
		C56.73,62.71,56.56,62.77,56.4,62.83z"/>
	<path style="fill-rule:evenodd;clip-rule:evenodd;fill:#79B0AA;" d="M23.18,76.11c0.19,0.05,0.38,0.11,0.57,0.16
		C23.56,76.22,23.37,76.17,23.18,76.11z"/>
	<path style="fill-rule:evenodd;clip-rule:evenodd;fill:#62958C;" d="M42.72,78c0.16-0.08,0.31-0.16,0.47-0.24
		C43.03,77.83,42.88,77.92,42.72,78z"/>
	<path style="fill-rule:evenodd;clip-rule:evenodd;fill:#8EB9B4;" d="M16.07,74.67c-0.09,0.05-0.18,0.1-0.27,0.14
		c0.02-0.06,0.04-0.12,0.06-0.18C15.94,74.61,16,74.62,16.07,74.67z"/>
	<path style="fill-rule:evenodd;clip-rule:evenodd;fill:#427063;" d="M25.45,62.62c-0.16-0.04-0.31-0.09-0.47-0.13
		C25.14,62.53,25.29,62.58,25.45,62.62z"/>
	<path style="fill-rule:evenodd;clip-rule:evenodd;fill:#71A59E;" d="M33.59,65.31c-0.16,0.07-0.31,0.14-0.47,0.21
		c0-0.09,0-0.18,0.01-0.26C33.28,65.27,33.44,65.29,33.59,65.31z"/>
	<path style="fill-rule:evenodd;clip-rule:evenodd;fill:#5E9A90;" d="M18.17,69.59c-0.06-0.07-0.11-0.15-0.17-0.22
		C18.05,69.45,18.11,69.52,18.17,69.59z"/>
	<path style="fill-rule:evenodd;clip-rule:evenodd;fill:#69A39A;" d="M20.19,71.98c-0.09-0.08-0.17-0.16-0.26-0.24
		C20.01,71.83,20.1,71.91,20.19,71.98z"/>
	<path style="fill-rule:evenodd;clip-rule:evenodd;fill:#69A39A;" d="M20.45,72.22c-0.09-0.08-0.19-0.16-0.28-0.25
		C20.27,72.05,20.36,72.14,20.45,72.22z"/>
	<path style="fill-rule:evenodd;clip-rule:evenodd;fill:#699C94;" d="M23.67,72.98c0.11,0.11,0.21,0.22,0.32,0.34
		C23.88,73.2,23.77,73.09,23.67,72.98z"/>
	<path style="fill-rule:evenodd;clip-rule:evenodd;fill:#79B0AA;" d="M23.8,74.14c-0.09-0.06-0.19-0.12-0.28-0.17
		C23.62,74.03,23.71,74.09,23.8,74.14z"/>
	<path style="fill-rule:evenodd;clip-rule:evenodd;fill:#79B0AA;" d="M24.21,74.41c-0.07-0.06-0.13-0.11-0.2-0.17
		C24.08,74.3,24.14,74.35,24.21,74.41z"/>
	<path style="fill-rule:evenodd;clip-rule:evenodd;fill:#60948A;" d="M26.85,75.13c0.09,0.05,0.17,0.1,0.26,0.15
		C27.02,75.23,26.94,75.18,26.85,75.13z"/>
	<path style="fill-rule:evenodd;clip-rule:evenodd;fill:#79B0AA;" d="M24.52,74.63c-0.09-0.07-0.19-0.13-0.28-0.2
		C24.33,74.49,24.42,74.56,24.52,74.63z"/>
	<path style="fill-rule:evenodd;clip-rule:evenodd;fill:#739690;" d="M44.64,77.6c-0.09,0.05-0.17,0.1-0.26,0.15
		C44.47,77.7,44.56,77.65,44.64,77.6z"/>
	<path style="fill-rule:evenodd;clip-rule:evenodd;fill:#579488;" d="M16.74,66.47c-0.05-0.1-0.1-0.2-0.15-0.31
		C16.64,66.27,16.69,66.37,16.74,66.47z"/>
	<path style="fill-rule:evenodd;clip-rule:evenodd;fill:#579488;" d="M16.97,66.95c-0.05-0.08-0.11-0.16-0.16-0.25
		C16.86,66.79,16.91,66.87,16.97,66.95z"/>
	<path style="fill-rule:evenodd;clip-rule:evenodd;fill:#77AEA8;" d="M32.2,64.07c0.07,0.05,0.13,0.11,0.2,0.16
		C32.33,64.18,32.26,64.12,32.2,64.07z"/>
	<path style="fill-rule:evenodd;clip-rule:evenodd;fill:#87B0AA;" d="M58.8,62.12c0.09-0.06,0.18-0.12,0.27-0.18
		C58.98,62,58.89,62.06,58.8,62.12z"/>
	<path style="fill-rule:evenodd;clip-rule:evenodd;fill:#5E9A90;" d="M17.99,69.36c-0.07-0.11-0.13-0.22-0.2-0.33
		C17.86,69.14,17.92,69.25,17.99,69.36z"/>
	<path style="fill-rule:evenodd;clip-rule:evenodd;fill:#74A39D;" d="M15.1,79.45c0.08,0.08,0.17,0.16,0.25,0.24
		C15.27,79.61,15.19,79.53,15.1,79.45z"/>
	<path style="fill-rule:evenodd;clip-rule:evenodd;fill:#BDD5D0;" d="M17.46,80.9c0.1,0.05,0.2,0.11,0.3,0.16
		C17.66,81.01,17.56,80.95,17.46,80.9z"/>
	<path style="fill-rule:evenodd;clip-rule:evenodd;fill:#A2BDB8;" d="M22.77,82.34c0.09-0.01,0.18-0.03,0.27-0.04
		c0.01,0.07,0.01,0.14,0.01,0.21C22.95,82.45,22.86,82.39,22.77,82.34z"/>
	<path style="fill-rule:evenodd;clip-rule:evenodd;fill:#A6BFBA;" d="M45.84,83.71c0.1-0.06,0.2-0.11,0.3-0.17
		C46.04,83.6,45.94,83.65,45.84,83.71z"/>
	<path style="fill-rule:evenodd;clip-rule:evenodd;fill:#77AEA8;" d="M31.88,63.85c0.1,0.07,0.19,0.13,0.29,0.2
		C32.07,63.99,31.98,63.92,31.88,63.85z"/>
	<path style="fill-rule:evenodd;clip-rule:evenodd;fill:#F8E700;" d="M21.35,6.97c0.71,0.88,2.05,1.58,1.13,3.01
		c-0.92,1.43-2.29,1.16-3.62,0.69c-0.99-0.34-2.07-0.52-2.4-1.84c-0.16-0.63-0.05-1,0.44-1.3c0.6-0.37,0.62,0.31,0.82,0.54
		c0.63,0.75,1.52,0.98,2.39,1.2c0.68,0.18,0.94-0.32,1-0.87c0.06-0.47,0-0.95-0.01-1.43C21.19,6.88,21.27,6.88,21.35,6.97z"/>
	<path style="fill-rule:evenodd;clip-rule:evenodd;fill:#C01747;" d="M20.88,6.96c-0.16,0.65,0.25,1.66-0.65,1.83
		c-0.75,0.14-1.62-0.35-2.07-0.99c-0.45-0.63-0.19-1.46,0.04-2.2c0.11-0.34,0.28-0.2,0.41-0.05c0.23,0.27,0.51,0.47,0.83,0.36
		c1.02-0.35,1.33,0.23,1.47,1.06L20.88,6.96z"/>
	<path style="fill-rule:evenodd;clip-rule:evenodd;fill:#8DBDB7;" d="M26.96,12.74c-0.51,0.31-0.97,0.39-1.48-0.07
		c-0.89-0.79-2.15-1.02-2.95-1.96c0.19-0.28,0.39-0.56,0.58-0.85c1.25,0.64,2.52,1.13,3.95,0.64c0.43-0.15,0.68,0.08,0.71,0.53
		C27.9,11.79,27.39,12.25,26.96,12.74z"/>
	<path style="fill-rule:evenodd;clip-rule:evenodd;fill:#7BADA7;" d="M27.77,11.03c-0.33-0.53-0.75-0.19-1.14-0.11
		c-1.36,0.27-2.61,0.17-3.52-1.05c0.07-0.16,0.14-0.33,0.2-0.49c1.36,0.53,2.7,0.63,4.02-0.12c0.18-0.1,0.38-0.04,0.55,0.09
		C28.57,9.95,27.69,10.46,27.77,11.03z"/>
	<path style="fill-rule:evenodd;clip-rule:evenodd;fill:#528478;" d="M23.19,8.18c-0.16-0.21-0.33-0.42-0.49-0.63
		c0.26-0.04,0.52-0.12,0.78-0.1c1.15,0.08,2.36-0.24,3.43,0.47c-0.44,1.16-1.52,1.53-2.79,0.99C23.72,8.74,23.51,8.39,23.19,8.18z"
		/>
	<path style="fill-rule:evenodd;clip-rule:evenodd;fill:#61948B;" d="M15.82,8.65c-1.18,0.75-2.43,0.94-3.77,0.5
		c0.29-0.36,0.58-0.71,0.87-1.07c0.76-0.02,1.51-0.12,2.24-0.34c0.21-0.06,0.62-0.42,0.68,0.19C15.84,8.17,15.83,8.41,15.82,8.65z"
		/>
	<path style="fill-rule:evenodd;clip-rule:evenodd;fill:#5F9289;" d="M23.19,8.18c1.28,0.53,2.58,1.27,3.71-0.27
		c0.25,0.15,0.5,0.31,0.75,0.46c-0.89,1.67-2.47,1.95-4.33,0.76C23.28,8.81,23.23,8.49,23.19,8.18z"/>
	<path style="fill-rule:evenodd;clip-rule:evenodd;fill:#538479;" d="M15.84,7.93c-0.98-0.05-1.9,1.01-2.92,0.15
		c0.62-1.01,1.62-1.14,2.65-1.07C16.28,7.05,16.43,7.42,15.84,7.93z"/>
	<path style="fill-rule:evenodd;clip-rule:evenodd;fill:#6C9F98;" d="M23.32,9.13c1.58,0.53,3.1,0.71,4.33-0.76
		c0.6,0.2,0.12,0.66,0.23,0.97c-1.02,0.38-1.96,0.99-3.16,0.77c-0.59-0.11-1.05-0.29-1.42-0.74C23.31,9.29,23.32,9.21,23.32,9.13z"
		/>
	<path style="fill-rule:evenodd;clip-rule:evenodd;fill:#8C1C29;" d="M20.36,4.99c-0.13,0.45-0.5,0.31-0.78,0.34
		c-0.71,0.06-0.95-0.56-1.17-0.99c-0.15-0.3,0.37-0.49,0.66-0.45C19.7,3.99,20.08,4.45,20.36,4.99z"/>
	<path style="fill-rule:evenodd;clip-rule:evenodd;fill:#ADA22E;" d="M21.35,6.97c-0.08,0-0.16,0-0.25,0l-0.11-0.01
		c0,0-0.11,0-0.11,0c0,0,0.02,0.02,0.02,0.02c0-0.17-0.15-0.42,0.13-0.46C21.34,6.46,21.36,6.72,21.35,6.97z"/>
	<path style="fill-rule:evenodd;clip-rule:evenodd;fill:#63968D;" d="M26.94,13.7c0,0.06,0.01,0.12,0,0.17
		c0,0.02-0.07,0.02-0.1,0.03C26.84,13.82,26.87,13.75,26.94,13.7z"/>
	<path style="fill-rule:evenodd;clip-rule:evenodd;fill:#7DADA7;" d="M16.29,9.85c-0.07-0.1-0.13-0.19-0.2-0.29
		C16.16,9.66,16.23,9.75,16.29,9.85z"/>
	<path style="fill-rule:evenodd;clip-rule:evenodd;fill:#DDECE9;" d="M43.44,61.2c-2.09-0.19-4.22,0.35-6.29-0.42
		c-0.76-0.28-1.46-0.64-2.07-1.13c-1.12-0.9-2.21-1.82-3.61-2.29c-0.85-0.28-1.38-0.9-1.18-1.82c0.18-0.8,0.87-0.91,1.63-1.1
		c2.91-0.75,5.56,0.25,8.27,0.99c3.14,0.86,6.31,0.53,9.48,0.16c1.5-0.17,2.83-0.77,4.21-1.26c0.52-0.19,1.08-0.31,1.63-0.31
		c1.28,0,2.6,0.18,2.99,1.65c0.4,1.52-0.6,2.46-1.76,3.2c-1.66,1.06-3.64,1.08-5.47,1.6C48.69,61.2,46.08,61.33,43.44,61.2z"/>
	<path style="fill-rule:evenodd;clip-rule:evenodd;fill:#CDE3DF;" d="M23.52,38.1c0.14,1.56-0.1,3.4-1.27,5.08
		c-1.69,2.43-5.19,2.51-6.87,0.06c-1.69-2.45-1.88-5.37-2.43-8.17c-0.42-2.11-0.25-4.2,0.24-6.27c0.5-2.08,2.49-3.97,4.23-4.07
		c1.91-0.11,3.94,1.41,4.62,3.69C22.96,31.45,23.59,34.52,23.52,38.1z"/>
	<path style="fill-rule:evenodd;clip-rule:evenodd;fill:#232624;" d="M58.34,45.7c-0.25-0.19-0.5-0.39-0.75-0.58
		c-1.06-0.25-1.94,0.06-2.64,0.87c-0.54,0.64-1.09,0.74-1.69,0.09c-0.95-0.81-0.15-1.26,0.36-1.78c0.16-0.16,0.54-0.18,0.47-0.44
		c-0.05-0.21-0.39-0.22-0.62-0.27c-0.33-0.07-0.54,0.06-0.59,0.4c-0.01,0.08-0.01,0.16-0.03,0.23c-0.3,1.49-0.68,1.8-2.23,1.83
		c-0.53,0.81-1.27,0.25-1.92,0.3c-0.98-0.12-1.92-0.48-2.96-0.11c-0.5,0.18-1.06-0.17-1.51-0.52c-0.69-0.89-1.21-1.91-2.33-2.42
		c-0.4-0.18-0.65-0.69-0.47-1.24c0.08-0.09,0.17-0.15,0.29-0.16c0.81,0.46,1.52,1.14,2.6,0.97c0.44-0.07,0.48,0.34,0.35,0.68
		c-0.23,0.58-0.12,1.03,0.46,1.29c0.57,0.26,1.11,0.2,1.5-0.31c0.48-0.62,0.83-0.44,1.19,0.1c0.2,0.31,0.43,0.59,0.79,0.7
		c0.52,0.15,1.09,0.33,0.96-0.6c-0.07-0.53,0.08-0.8,0.66-0.53c0.07,0.04,0.13,0.09,0.19,0.13c0.3,0.22,0.54,0.63,1.01,0.44
		c0.34-0.14,0.4-0.48,0.36-0.8c-0.06-0.5-0.27-0.9-0.85-0.96c-0.27-0.03-0.55-0.06-0.77-0.25c-0.22-0.55,0.2-0.78,0.53-1.04
		c0.95-0.74,0.93-0.94-0.19-1.42c-0.15-0.06-0.29-0.12-0.41-0.23c-0.05-0.11-0.07-0.22-0.06-0.34c0.73-1.05,1.32-0.46,1.9,0.16
		c0.09,0.12,0.23,0.26,0.23,0.41c0.06,1.61,1.16,2.22,2.49,2.6c0.12,0.09-0.04-0.05,0.08,0.06c0.09,0.08,0.11,0.09,0.05,0
		c-0.64-0.64-1-1.33-0.7-2.24c0.78-0.81,1.02-0.77,2.23,0.38c0.89,1.05,0.74,2.6,1.73,3.6c0.13,0.35,0.85,0.42,0.47,1.01l-0.08-0.04
		L58.34,45.7z"/>
	<path style="fill-rule:evenodd;clip-rule:evenodd;fill:#D27EA9;" d="M44.4,45.59c0.49,0.26,1.1,0.64,1.55,0.33
		c1.13-0.77,1.91-0.08,2.76,0.44c-0.37,0.14-0.74,0.4-1.11,0.4c-2.94-0.03-5.91,0.37-8.79-0.52c-0.68-0.21-1.38-0.48-1.94-0.9
		c-1.43-1.07-1.44-2.41-0.16-4.31c0.57-1.16,1.72-1.12,2.74-1.28c1.12-0.18,2.28-0.16,3.38-0.47c0.13-0.04,0.26-0.03,0.38,0.01
		c0.63,0.68,0.4,1.12-0.41,1.37c-0.49,0.15-0.95,0.39-1.45,0.52c-1.03,0.04-2.06,0.17-3.04,0.48c-0.72,0.23-1.33,0.65-1.38,1.47
		c-0.05,0.83,0.56,1.29,1.25,1.57c1.76,0.72,3.61,0.89,5.49,0.84C43.93,45.54,44.16,45.58,44.4,45.59z"/>
	<path style="fill-rule:evenodd;clip-rule:evenodd;fill:#CA6D9B;" d="M42.96,39.36c-0.89,0.94-2.1,0.51-3.15,0.67
		c-1.11,0.17-2.15,0.39-3.09,1.01c-0.32,0.08-0.64,0.16-0.96,0.24c0.16-0.32,0.32-0.64,0.48-0.96c0.13-0.43,0.51-0.6,0.88-0.72
		c1.62-0.52,3.27-0.86,4.98-0.8C42.46,38.82,42.92,38.79,42.96,39.36z"/>
	<path style="fill-rule:evenodd;clip-rule:evenodd;fill:#D48AB0;" d="M50.63,46.06c1.35-0.32,2.28-0.95,1.89-2.57
		c-0.12-0.49,0.22-0.39,0.5-0.33c0.35,0.08,0.71,0.13,1.04,0.26c0.36,0.14,0.68,0.36,1.02,0.55c-0.21,0.36-0.61,0.16-0.9,0.31
		c-0.74,0.39-1.46,0.76-0.9,1.8C52.39,46.46,51.51,46.49,50.63,46.06z"/>
	<path style="fill-rule:evenodd;clip-rule:evenodd;fill:#252824;" d="M50.16,39.85c0.01,0.1,0.02,0.2,0.02,0.3
		c0.04,0.49-0.39,0.72-0.58,1.09c-0.15,0.22-0.21,0.51-0.52,0.59c-0.75-0.11-1.44-0.45-2.19-0.55c-0.45-0.06-0.93-0.09-1.05,0.48
		c-0.11,0.49,0.19,0.82,0.61,1.05c0.73,0.4,1.57,0.17,2.33,0.44c0.16,0.1,0.26,0.23,0.23,0.43c-1.39,0.95-3.53,0.44-4.16-1
		c-0.29-0.66-0.29-1.3,0.13-1.93c0.84-1.27,0.69-1.57-0.86-1.82c-0.08-0.01-0.16-0.02-0.24-0.03c-0.12-0.02-0.23-0.06-0.34-0.12
		c-0.11-0.07-0.18-0.16-0.2-0.29c-0.01-0.13,0.04-0.24,0.14-0.32c0.23-0.04,0.53-0.2,0.69-0.11c1.26,0.71,2.43,0.14,3.62-0.2
		c0.41-0.03,0.75,0.1,1.05,0.37c0.23,0.23,0.4,0.52,0.58,0.78C49.59,39.37,49.87,39.62,50.16,39.85z"/>
	<path style="fill-rule:evenodd;clip-rule:evenodd;fill:#B33F78;" d="M43.47,38.19c-0.02,0.07-0.05,0.14-0.1,0.19
		c-0.07,0.11-0.16,0.21-0.25,0.3c-1.08,0.47-2.25,0.14-3.38,0.35c-1.56,0.3-3.09,0.57-4.51,1.32c-0.28,0.15-0.58,0.27-0.91,0.2
		c-0.16,0-0.32,0-0.48,0c0.07-0.76,0.77-0.98,1.2-1.43C37.76,37.99,40.55,37.56,43.47,38.19z"/>
	<path style="fill-rule:evenodd;clip-rule:evenodd;fill:#A6336B;" d="M48.7,38.43c-0.31-0.19-0.62-0.37-0.93-0.55
		c2.92-0.51,5.71,0.09,8.48,0.94c1.61,0.49,2.96,1.52,4.46,2.22c0,0.08,0,0.16,0,0.24c-1.09-0.08-1.81-1.07-2.88-1.2
		c-0.23,0.12-0.48,0.1-0.69-0.01C54.49,38.71,51.58,38.66,48.7,38.43z"/>
	<path style="fill-rule:evenodd;clip-rule:evenodd;fill:#CA6397;" d="M58.05,44.72c-0.71-0.15-1.09-0.58-1.12-1.31
		c-0.04-0.78-0.47-1.42-0.78-2.1c-0.01-0.57,0.4-0.33,0.64-0.29c0.48,0.08,0.82,0.42,1.17,0.74c0.12,0.14,0.21,0.29,0.13,0.48
		C58.24,43.07,58.45,43.9,58.05,44.72z"/>
	<path style="fill-rule:evenodd;clip-rule:evenodd;fill:#BE4583;" d="M58.08,42.24C58,42.16,57.92,42.08,57.84,42
		c-0.27-0.43-0.62-0.77-1.07-1.04c-0.34-0.2-0.81-0.38-0.57-0.95c1.07-0.09,1.8,0.44,2.36,1.27c0.4,0.4,0.8,0.8,1.2,1.2
		c-0.08,0.24-0.16,0.48-0.24,0.72C59.04,42.88,58.56,42.56,58.08,42.24z"/>
	<path style="fill-rule:evenodd;clip-rule:evenodd;fill:#C43484;" d="M58.34,45.7c0.06,0,0.12,0.01,0.18,0.03c0,0-0.1,0.04-0.1,0.04
		L58.34,45.7z"/>
	<path style="fill-rule:evenodd;clip-rule:evenodd;fill:#BE5087;" d="M34.32,40.56c1.99-1.53,4.37-1.69,6.73-1.92
		c0.7-0.07,1.44,0.17,2.1-0.24c0.12,0.07,0.18,0.17,0.19,0.3c0.08,0.26,0.06,0.5-0.18,0.67c-0.07-0.01-0.13-0.01-0.2-0.01
		c-2.37-0.61-4.55,0.14-6.72,0.96c-0.56,0.4-1.12,0.8-1.68,1.2c-0.16,0-0.32,0-0.48,0C34.16,41.2,34.24,40.88,34.32,40.56z"/>
	<path style="fill-rule:evenodd;clip-rule:evenodd;fill:#BE5087;" d="M33.84,41.76c0.08-0.08,0.16-0.16,0.24-0.24
		C34,41.6,33.92,41.68,33.84,41.76z"/>
	<path style="fill-rule:evenodd;clip-rule:evenodd;fill:#B33F78;" d="M33.6,40.79c0.08-0.08,0.16-0.16,0.24-0.24
		C33.76,40.64,33.68,40.72,33.6,40.79z"/>
	<path style="fill-rule:evenodd;clip-rule:evenodd;fill:#A9C9C5;" d="M60.24,58.32c0.08-0.16,0.16-0.32,0.24-0.48
		C60.4,58,60.32,58.16,60.24,58.32z"/>
	<path style="fill-rule:evenodd;clip-rule:evenodd;fill:#A9C9C5;" d="M60.48,57.6c0.08-0.16,0.16-0.32,0.24-0.48
		C60.64,57.28,60.56,57.44,60.48,57.6z"/>
	<path style="fill-rule:evenodd;clip-rule:evenodd;fill:#A9C9C5;" d="M60,58.56c0.08-0.08,0.16-0.16,0.24-0.24
		C60.16,58.4,60.08,58.48,60,58.56z"/>
	<path style="fill-rule:evenodd;clip-rule:evenodd;fill:#B4457B;" d="M58.56,41.28c-0.75-0.49-1.5-1-2.4-1.2
		c-0.67,0.23-1.22-0.2-1.82-0.33c-1.7-0.39-3.43-0.49-5.15-0.61c-0.16-0.23-0.33-0.47-0.49-0.7c1.44-0.75,2.88,0,4.31,0.05
		c1.72,0.05,3.31,0.79,4.83,1.6c0.4,0.4,0.8,0.8,1.2,1.2C58.88,41.28,58.72,41.28,58.56,41.28z"/>
	<path style="fill-rule:evenodd;clip-rule:evenodd;fill:#72A59E;" d="M27.89,69.03c-0.33,1.06-0.19,2.21-0.67,3.25
		c-0.37,0.8-0.98,0.89-1.53,0.38c-0.77-0.71-1.33-1.63-1.1-2.75c0.25-1.24,1.2-1.9,2.32-2.17C27.88,67.52,27.73,68.44,27.89,69.03z"
		/>
	<path style="fill-rule:evenodd;clip-rule:evenodd;fill:#E5F0EE;" d="M44.41,60.25c-1.62-0.34-3.5,0.36-5.42,0.18
		c-2.13-0.2-3.51-1.57-4.99-2.81c-0.65-0.54-1.28-1.05-2.21-1.02c-0.38,0.01-0.81-0.19-0.79-0.72c0.02-0.59,0.48-0.57,0.92-0.7
		c3.06-0.84,5.88,0.11,8.68,1.13c2.57,0.93,5.21,0.62,7.81,0.43c1.27-0.09,2.08,0.26,2.34,1.42c0.28,1.22-0.82,1.53-1.65,1.8
		C47.68,60.41,46.18,60.22,44.41,60.25z"/>
	<path style="fill-rule:evenodd;clip-rule:evenodd;fill:#D2E6E2;" d="M22.79,37.89c0.05,1.18,0.04,2.51-0.47,3.82
		c-0.6,1.53-1.69,2.5-3.26,2.62c-1.48,0.12-2.65-0.71-3.41-2.01c-1.32-2.26-1.46-4.85-1.97-7.33c-0.41-2.02-0.37-4.04,0.22-6.01
		c0.63-2.1,2.19-3.54,3.73-3.54c1.56,0,3.4,1.56,3.89,3.57C22.21,31.87,22.94,34.73,22.79,37.89z"/>
	<path style="fill-rule:evenodd;clip-rule:evenodd;fill:#F5F9F9;" d="M49.42,41.04c0.26-0.29,0.51-0.59,0.77-0.88
		c0.72-0.31,1.27-0.1,1.53,0.62c0.16,0.43,0.48,1.05-0.48,1.02c-0.59-0.02-0.69,0.58-1.06,0.85c0.2,0.45,1.18-0.13,1.03,0.73
		c-0.09,0.53-0.33,1.05-1.04,1.02c-0.17-0.02-0.53-0.59-0.44,0.1c0.07,0.48,0.86,1.11,0.16,1.37c-0.79,0.29-1.78,0.01-2.29-0.86
		c-0.26-0.45-0.18-1.38-0.75-0.1c-0.36,0.8-1.36,0.65-2.01,0.26c-0.54-0.33-1.32-0.88-0.36-1.67c0.08-0.06,0.15-0.22,0.13-0.29
		c-0.08-0.23-0.24-0.07-0.38-0.04c-1.13,0.25-1.94-0.18-2.5-1.16c-0.54-1,0.15-1.22,0.88-1.24c0.83-0.02,1.39-0.08,0.88-1.13
		c-0.15-0.3-0.12-0.71,0.2-0.99c0.74-0.14,1.47-0.09,1.98,0.51c0.38,0.44,1.08,0.97-0.09,1.44c-0.65,0.26-0.73,0.93-0.58,1.64
		c0.22,1.12,1.06,1.47,1.97,1.62c0.64,0.11,1.36,0.13,1.98-0.26C49.8,42.88,49.21,41.89,49.42,41.04z"/>
	<path style="fill-rule:evenodd;clip-rule:evenodd;fill:#D890B5;" d="M44.4,45.59c-1.45,0.69-6.1-0.02-7.22-1.1
		c-0.88-0.85-0.9-1.71-0.02-2.57c0.77-0.75,3.25-1.23,4.16-0.8c0.1,0.09,0.15,0.2,0.18,0.33c0.02,0.12,0.02,0.25,0.02,0.38
		c0,0.08-0.02,0.16-0.04,0.24c0.04,0.42,0.22,0.86,0.57,0.99C43.29,43.5,43.81,44.57,44.4,45.59z"/>
	<path style="fill-rule:evenodd;clip-rule:evenodd;fill:#C36191;" d="M49.19,39.14c2.43-0.49,4.74-0.02,6.97,0.95
		c0.47,0.71,1.54,0.91,1.68,1.92c-0.55-0.26-0.88-1.06-1.7-0.68c-0.62-0.23-0.92-1.62-1.9-0.51c-0.77-0.35-1.62-0.43-2.42-0.68
		c-0.5-0.38-0.95-1.11-1.65-0.27C49.14,40.56,49.53,39.36,49.19,39.14z"/>
	<path style="fill-rule:evenodd;clip-rule:evenodd;fill:#CE84A9;" d="M51.82,40.12c0.91-0.12,1.81-0.24,2.42,0.68
		c-0.18,1,0.5,1.65,0.97,2.39c-0.17,0.14-0.34,0.14-0.51,0.02c-0.18-0.08-0.36-0.15-0.53-0.24c-0.83-0.44-2.49-0.01-1.94-1.91
		C52.3,40.81,51.96,40.44,51.82,40.12z"/>
	<path style="fill-rule:evenodd;clip-rule:evenodd;fill:#E6F0EF;" d="M50.18,44.39c0.74-0.58,1.23-1.16,0.01-1.74
		c0.63,0.27,1.59-0.29,1.88,0.77c0.18,0.66,0.33,1.37-0.39,1.78C50.84,45.68,50.53,44.95,50.18,44.39z"/>
	<path style="fill-rule:evenodd;clip-rule:evenodd;fill:#383130;" d="M41.32,41.53c0-0.14,0-0.27,0-0.41
		c0.35-0.41,0.81-0.75,1.32-0.74c0.99,0.02,0.71-0.49,0.53-1.01c0.01-0.25,0.02-0.49,0.04-0.74c0.05-0.01,0.1-0.02,0.14-0.03
		c0.12,0.01,0.23,0.03,0.35,0.04c-0.16,0.81,0.03,1.5,0.68,2.03c0.16,0.13,0.34,0.31,0.21,0.49c-0.13,0.18-0.36-0.07-0.51-0.06
		c-0.87,0.03-2.16-0.95-2.33,0.9c-0.09,0.02-0.17,0.04-0.26,0.07l0-0.01C41.42,41.88,41.42,41.69,41.32,41.53z"/>
	<path style="fill-rule:evenodd;clip-rule:evenodd;fill:#289042;" d="M55.93,43.19c-0.29-0.32-0.57-0.65-0.86-0.97
		c-0.29-0.33-0.68-0.77-0.25-1.1c0.37-0.29,0.71,0.23,0.89,0.54c0.33,0.57,0.64,1.18,0.79,1.81c0.09,0.36-0.17,0.5-0.37,0.05
		C56.1,43.38,56.01,43.28,55.93,43.19z"/>
	<path style="fill-rule:evenodd;clip-rule:evenodd;fill:#2A8A45;" d="M53.74,45.13c0.17-0.1,0.32-0.23,0.5-0.28
		c0.4-0.13,1.11-0.36,1.15-0.06c0.08,0.56-0.6,0.82-1.04,1.13c-0.6,0.41-0.73,0-0.82-0.48C53.58,45.31,53.65,45.22,53.74,45.13z"/>
	<path style="fill-rule:evenodd;clip-rule:evenodd;fill:#9E6681;" d="M54.7,43.22c0.17-0.01,0.34-0.01,0.51-0.02
		c0.02,0.07,0.06,0.21,0.05,0.21C55.03,43.49,54.85,43.39,54.7,43.22z"/>
	<path style="fill-rule:evenodd;clip-rule:evenodd;fill:#599193;" d="M53.74,45.13c-0.07,0.1-0.13,0.2-0.2,0.3
		C53.6,45.33,53.67,45.23,53.74,45.13z"/>
	<path style="fill-rule:evenodd;clip-rule:evenodd;fill:#527F9B;" d="M55.93,43.19c0.07,0.11,0.14,0.21,0.21,0.32
		C56.07,43.4,56,43.29,55.93,43.19z"/>
	<path style="fill-rule:evenodd;clip-rule:evenodd;fill:#F5E509;" d="M48.7,43.42c-0.82-0.08-1.65,0.03-2.45-0.26
		c-0.81-0.3-0.98-0.98-0.84-1.62c0.14-0.68,0.74-0.76,1.42-0.59c0.83,0.21,1.71,0.24,2.35,0.93C49.86,42.79,49.82,42.92,48.7,43.42z
		"/>
	<path style="fill-rule:evenodd;clip-rule:evenodd;fill:#FAFAFB;" d="M47.45,38.43c1.06,0.27,1.45,1.04,1.62,2
		c0.04,0.24-0.2,0.47-0.27,0.33c-0.49-0.93-2.21,0.05-2.25-1.48C46.53,38.64,46.99,38.52,47.45,38.43z"/>
	<path style="fill-rule:evenodd;clip-rule:evenodd;fill:#433E36;" d="M48.7,43.42c0.77-0.33,0.85-0.87,0.47-1.55
		c0.04-0.29-0.04-0.61,0.25-0.83c0.03,0.89,1.19,1.99-0.47,2.56C48.86,43.54,48.78,43.48,48.7,43.42z"/>
	<path style="fill-rule:evenodd;clip-rule:evenodd;fill:#9D2B61;" d="M43.34,38.61c-0.05,0.01-0.1,0.02-0.14,0.03
		c-0.02-0.08-0.04-0.15-0.04-0.23c0.07-0.02,0.14-0.02,0.21-0.02C43.38,38.46,43.37,38.53,43.34,38.61z"/>
	<path style="fill-rule:evenodd;clip-rule:evenodd;fill:#DDECE9;" d="M17.13,26.65c1.63-0.05,2.52,0.59,2.8,1.55
		c1.25,4.19,2.32,8.43,1.42,12.85c-0.24,1.19-1.02,1.99-2.28,2.13c-1.36,0.15-2.29-0.64-2.65-1.81c-1.15-3.76-2.21-7.56-1.54-11.58
		C15.19,27.91,16.21,26.66,17.13,26.65z"/>
	<path style="fill-rule:evenodd;clip-rule:evenodd;fill:#232624;" d="M41.32,41.53c0.05,0.18,0.1,0.35,0.16,0.53
		C41.23,41.94,41.27,41.73,41.32,41.53z"/>
</g>
</svg>
