<?xml version="1.0" encoding="utf-8"?>
<!-- Generator: Adobe Illustrator 16.0.0, SVG Export Plug-In . SVG Version: 6.00 Build 0)  -->
<!DOCTYPE svg PUBLIC "-//W3C//DTD SVG 1.0//EN" "http://www.w3.org/TR/2001/REC-SVG-20010904/DTD/svg10.dtd" [
	<!ENTITY ns_flows "http://ns.adobe.com/Flows/1.0/">
	<!ENTITY ns_extend "http://ns.adobe.com/Extensibility/1.0/">
	<!ENTITY ns_ai "http://ns.adobe.com/AdobeIllustrator/10.0/">
	<!ENTITY ns_graphs "http://ns.adobe.com/Graphs/1.0/">
]>
<svg version="1.0" id="toothbrush_xA0_Image_1_" xmlns:x="&ns_extend;" xmlns:i="&ns_ai;" xmlns:graph="&ns_graphs;"
	 xmlns="http://www.w3.org/2000/svg" xmlns:xlink="http://www.w3.org/1999/xlink" xmlns:a="http://ns.adobe.com/AdobeSVGViewerExtensions/3.0/"
	 x="0px" y="0px" width="63.6px" height="75.12px" viewBox="0 0 63.6 75.12" style="enable-background:new 0 0 63.6 75.12;"
	 xml:space="preserve">
<g>
	<path style="fill-rule:evenodd;clip-rule:evenodd;fill:#4F1B1A;" d="M37.83,67.46c-1.62-2.61-2.34-5.58-3.15-8.47
		c-0.88-3.16-2.39-5.96-3.99-8.78c-1.9-3.35-4.1-6.63-4.53-10.59c-0.45-4.12-1.23-8.18-2.17-12.21c-0.32-1.38-0.85-2.64-1.76-3.75
		c-1.03-1.26-1.52-2.78-1.89-4.34c-0.17-0.73-0.44-1.44-0.67-2.15c-0.59-1.39-1.4-2.67-1.9-4.1c-0.34-0.97-0.5-1.98-0.65-2.99
		c-0.09-0.61,0.09-1.08,0.51-1.49c0.13,0.01,0.23,0.07,0.29,0.18c0.38,0.71-0.06,1.52,0.28,2.24c0.48,0.46,0.55,1.08,0.69,1.68
		c0.02,1.08,0.59,1.97,1.02,2.9c0.59,1.26,1.08,2.56,1.53,3.88c0.53,1.56,1.5,2.89,2.41,4.25c1.14,2.68,1.75,5.51,2.41,8.32
		c0.44,2.87,0.91,5.74,1.55,8.58c0.6,2.65,1.8,5.02,3.15,7.32c1.47,2.51,3.07,4.96,3.91,7.79c0.05,0.17,0.16,0.27,0.31,0.33
		c0.11,0.04,0.2,0.11,0.28,0.2c0.82,2.51,1.68,5,2.67,7.45c0.15,1.72,1.35,2.83,2.36,4.05c0.38,0.46,0.85,0.84,1.26,1.27
		c0.14,0.14,0.3,0.3,0.22,0.52c-0.1,0.26-0.36,0.29-0.6,0.28c-0.74-0.02-1.4-0.23-1.95-0.76C38.89,68.54,38.38,67.97,37.83,67.46z"
		/>
	<path style="fill-rule:evenodd;clip-rule:evenodd;fill:#851E22;" d="M28.62,33.37c0.57,2.89,1.37,5.71,2.81,8.31
		c0.05,0.07,0.08,0.14,0.08,0.21c0,0.08-0.01,0.12-0.02,0.12c-0.19,0.09-0.33,0.01-0.47-0.11c-0.11-0.12-0.19-0.25-0.26-0.4
		s-0.08-0.31-0.1-0.46c-0.15,0.1-0.01,0.22-0.02,0.33c-0.13,1.07-0.05,2.15,0.01,3.22c0.04,0.65,0.11,1.41-0.87,1.52
		c-1.65-3.09-2.51-6.41-2.91-9.86c-0.08-0.66-0.3-1.31-0.41-1.97c0.23-0.7,0.7-1.03,1.42-0.78c0.29,0.1,0.31-0.15,0.46-0.21
		C28.46,33.24,28.55,33.27,28.62,33.37z"/>
	<path style="fill-rule:evenodd;clip-rule:evenodd;fill:#362724;" d="M18.02,11.02c-0.01,0.04-0.01,0.1-0.03,0.11
		c-0.07,0.03-0.14,0.04-0.22,0.06c0-0.77,0-1.54-0.01-2.3c0.04-0.06,0.1-0.11,0.13-0.18c0.08-0.15,0.24-0.22,0.33-0.36
		c-0.14,0.12-0.29,0.23-0.46,0.3c-1.06,1.51-0.2,2.95,0.17,4.4c0.38,1.46,1.44,2.64,1.74,4.14c-1.51-2.19-2.48-4.58-2.76-7.23
		c-0.16-1.56,1.08-2.58,2.46-2.07c0.11-0.07,0.22-0.07,0.34-0.01c0.3,0.51-0.08,0.9-0.22,1.34c-0.21,0.67-0.59,1.32-0.31,2.06
		c0.05,0.24,0.05,0.48-0.01,0.72c-0.04,0.11-0.11,0.21-0.19,0.29c-0.79-0.33-0.53-1.1-0.72-1.69c-0.05-0.14-0.01-0.31-0.01-0.47
		c-0.01,0.16,0,0.32-0.02,0.48C18.21,10.77,18.13,10.9,18.02,11.02z"/>
	<path style="fill-rule:evenodd;clip-rule:evenodd;fill:#402824;" d="M37.83,67.46c0.62,0.18,0.9,0.75,1.35,1.13
		c0.34,0.27,0.65,0.58,1.01,0.82c0.46,0.3,0.99,0.22,1.51,0.17c-0.05-0.48-0.51-0.62-0.78-0.9c-1.16-1.2-2.28-2.43-2.94-3.99
		c-0.11-0.26-0.45-0.53-0.06-0.83c0.48-0.08,0.47,0.36,0.65,0.6c0.2,0.49,0.47,0.94,0.78,1.37c0.07,0.08,0.13,0.17,0.19,0.25
		c0.04,0.04,0.07,0.08,0.1,0.13c0.48,0.53,0.86,1.15,1.38,1.65c0.34,0.33,0.67,0.7,1.22,0.59c0.25-0.08,0.44-0.26,0.68-0.34
		c0.17-0.01,0.3,0.05,0.33,0.23c-0.65,1.92-2.06,2.39-3.65,1.16C38.91,68.93,38.25,68.29,37.83,67.46z"/>
	<path style="fill-rule:evenodd;clip-rule:evenodd;fill:#433B39;" d="M21.6,4.56c0.47-1.2,2.19-1.23,3.32-0.04
		c0.3,0.31,0.51,0.7,0.76,1.06c0.15,0.16,0.13,0.32,0.02,0.49c-0.35,0.23-0.68,0.14-1.01-0.04c-0.4-0.34-0.56-0.99-1.24-0.98
		c-0.41-0.36-0.87-0.2-1.32-0.14C21.89,4.88,21.75,4.71,21.6,4.56z"/>
	<path style="fill-rule:evenodd;clip-rule:evenodd;fill:#383432;" d="M31.69,19.43c1.07,1.12,0.42,1.94-0.48,2.72
		c-0.1,0.02-0.19,0-0.28-0.06c-0.22-0.35-0.69-0.42-0.86-0.83c-0.05-0.17-0.04-0.32,0.02-0.48c0.12-0.23,0.32-0.3,0.56-0.28
		c0.27,0.02,0.64,0.14,0.35-0.37c-0.16-0.28-0.32-0.56,0.03-0.82C31.29,19.21,31.5,19.27,31.69,19.43z"/>
	<path style="fill-rule:evenodd;clip-rule:evenodd;fill:#504744;" d="M25.64,6.08c0.01-0.17,0.02-0.33,0.03-0.5
		c0.58,1.14,1.51,2.14,1.43,3.55c-0.07,0.08-0.16,0.13-0.27,0.16c-0.59,0.03-0.59-0.49-0.78-0.83c-0.09-0.23-0.1-0.48-0.22-0.7
		c-0.07-0.13-0.13-0.26-0.19-0.4c-0.07-0.13-0.13-0.26-0.21-0.39C25.29,6.61,25.15,6.27,25.64,6.08z"/>
	<path style="fill-rule:evenodd;clip-rule:evenodd;fill:#514240;" d="M20.92,5.55c0.21-0.27,0.43-0.54,0.64-0.81
		c0.21,0.07,0.33,0.26,0.5,0.39c0.62,0.45,0.48,1.12,0.51,1.74c0.02,0.35,0.08,0.68,0.42,0.88c0.41,0.31,0.45,0.71,0.28,1.16
		c-0.04,0.1-0.11,0.19-0.19,0.26c-0.1,0.04-0.21,0.04-0.31,0c-0.24-0.2-0.25-0.58-0.54-0.75c-0.81-0.56-0.6-1.46-0.76-2.24
		c-0.02-0.14-0.01-0.28,0.07-0.4c-0.07,0.06-0.14,0.11-0.21,0.17c-0.11,0.08-0.24,0.13-0.38,0.13C20.86,6.06,20.8,6,20.77,5.9
		C20.77,5.76,20.77,5.63,20.92,5.55z"/>
	<path style="fill-rule:evenodd;clip-rule:evenodd;fill:#644441;" d="M33.9,45.06c1.37,1.35,2.88,2.57,4.01,4.16
		c0.1,0.23-0.05,0.27-0.22,0.3c-0.58-0.21-0.89-0.74-1.34-1.11c-0.39-0.41-0.79-0.81-1.19-1.2c-0.32-0.33-0.64-0.65-0.97-0.98
		c-0.24-0.27-0.53-0.53-0.49-0.94C33.73,45.18,33.8,45.1,33.9,45.06z"/>
	<path style="fill-rule:evenodd;clip-rule:evenodd;fill:#715453;" d="M40.75,53.53c0.9,1.61,1.91,3.17,2.17,5.04
		c-0.1,0.08-0.21,0.11-0.34,0.08c-0.84-1.62-1.75-3.22-2.13-5.04C40.53,53.48,40.62,53.46,40.75,53.53z"/>
	<path style="fill-rule:evenodd;clip-rule:evenodd;fill:#554D4D;" d="M31.69,19.43c-0.24,0-0.47,0.01-0.71,0.02
		c-0.08-0.05-0.14-0.12-0.18-0.21c-0.08-0.23-0.26-0.38-0.4-0.57c-0.12-0.33-0.15-0.69-0.32-1c-0.08-0.36-0.01-0.67,0.31-0.9
		c0.11-0.05,0.22-0.04,0.32,0.03C31.04,17.67,31.56,18.48,31.69,19.43z"/>
	<path style="fill-rule:evenodd;clip-rule:evenodd;fill:#635A56;" d="M31.07,22.3c-0.99,0.86-2.03,1.63-3.19,2.24
		c-0.18-0.04-0.3-0.15-0.35-0.33c0.73-1.03,1.97-1.36,2.92-2.09c0.11-0.02,0.23-0.02,0.34,0C30.89,22.17,30.99,22.23,31.07,22.3z"/>
	<path style="fill-rule:evenodd;clip-rule:evenodd;fill:#643C37;" d="M27.86,25.2c0.12,1.6-0.11,3.21,0.23,4.8
		c-0.15,0.07-0.28,0.05-0.39-0.07c-0.73-1.52-0.59-3.08-0.22-4.66C27.58,25.14,27.71,25.12,27.86,25.2z"/>
	<path style="fill-rule:evenodd;clip-rule:evenodd;fill:#735355;" d="M42.98,58.77c0.4,1.27,0.78,2.55,0.67,3.9
		c-0.05,0.02-0.1,0.03-0.14,0.05c-0.1-0.04-0.17-0.1-0.22-0.19c-0.1-0.23-0.14-0.48-0.22-0.71c-0.02-0.05-0.03-0.09-0.04-0.14
		c-0.03-0.09-0.05-0.19-0.06-0.29c-0.02-0.14-0.04-0.29-0.06-0.44c-0.04-0.2-0.09-0.39-0.15-0.58c-0.08-0.36-0.18-0.72-0.14-1.09
		C42.66,59.06,42.76,58.87,42.98,58.77z"/>
	<path style="fill-rule:evenodd;clip-rule:evenodd;fill:#423B37;" d="M30.7,16.8c-0.08,0.01-0.15,0.01-0.23,0.01
		c-0.38,0.27-0.68,0.17-0.87-0.24c-0.2-0.43-0.47-0.84-0.48-1.34c0.06-0.25,0.1-0.51,0.46-0.38c0.85,0.01,0.02,1.25,0.9,1.23
		c0.08,0.09,0.16,0.17,0.19,0.29C30.69,16.51,30.7,16.65,30.7,16.8z"/>
	<path style="fill-rule:evenodd;clip-rule:evenodd;fill:#514744;" d="M27.41,9.5c0.72,0.48,0.89,1.21,0.96,2
		c-0.11,0.16-0.27,0.23-0.46,0.25c-0.81-0.03-0.74-0.6-0.7-1.15C27.74,10.32,26.91,9.79,27.41,9.5z"/>
	<path style="fill-rule:evenodd;clip-rule:evenodd;fill:#564C47;" d="M29.59,14.84c-0.11,0.15-0.21,0.29-0.32,0.44
		c-0.04,0.04-0.09,0.08-0.13,0.11c-0.86-0.5-0.9-1.25-0.67-2.09c0.16-0.22,0.35-0.29,0.58-0.11C29.13,13.78,29.76,14.18,29.59,14.84
		z"/>
	<path style="fill-rule:evenodd;clip-rule:evenodd;fill:#733933;" d="M43.47,62.65c0.06,0.01,0.12,0.02,0.18,0.02
		c0.2,1.7,0.25,3.39-0.2,5.06c-0.19-0.14-0.27-0.33-0.31-0.55c-0.08-0.84-0.09-1.69-0.05-2.54c-0.05-0.42,0.01-0.84,0.02-1.26
		C43.14,63.1,43.21,62.83,43.47,62.65z"/>
	<path style="fill-rule:evenodd;clip-rule:evenodd;fill:#6A4F4E;" d="M37.74,49.44c0.06-0.07,0.12-0.15,0.17-0.22
		c0.77,0.78,1.53,1.56,1.93,2.61c0.07,0.07,0.09,0.13,0.07,0.2c-0.02,0.07-0.04,0.1-0.07,0.1C38.73,51.55,38.06,50.64,37.74,49.44z"
		/>
	<path style="fill-rule:evenodd;clip-rule:evenodd;fill:#45332F;" d="M27.86,25.2l-0.11,0l-0.11,0c-0.71-0.19-1.68,0.43-2.09-0.68
		c0-0.12,0.04-0.23,0.11-0.33c0.63-0.19,1.26-0.16,1.89,0c0.12,0.12,0.23,0.23,0.35,0.35C27.87,24.76,27.87,24.98,27.86,25.2z"/>
	<path style="fill-rule:evenodd;clip-rule:evenodd;fill:#584E4A;" d="M19.8,7.93c-0.14-0.02-0.28-0.04-0.43-0.05
		c0.26-0.4,0.52-0.8,0.78-1.19c0.09-0.04,0.15-0.12,0.18-0.22c0.06-0.05,0.09-0.11,0.11-0.19c0.03-0.11,0.13-0.19,0.19-0.29
		l0.01-0.02c0.05-0.08,0.11-0.09,0.18-0.04c0.04,0.03,0.08,0.06,0.11,0.11C21.06,6.98,20.61,7.57,19.8,7.93z"/>
	<path style="fill-rule:evenodd;clip-rule:evenodd;fill:#473F3B;" d="M27.82,11.53c0.18-0.01,0.37-0.02,0.55-0.03
		c0.37,0.11,0.22,0.41,0.23,0.65c0.07,0.14,0.06,0.27-0.04,0.39C27.72,12.64,27.52,12.26,27.82,11.53z"/>
	<path style="fill-rule:evenodd;clip-rule:evenodd;fill:#473F3B;" d="M29.06,13.19c-0.17,0.06-0.34,0.12-0.5,0.18
		c-0.05,0.18-0.19,0.23-0.35,0.26c-0.11,0-0.21-0.02-0.3-0.06c-0.11-0.17-0.23-0.22-0.38-0.05c-0.11-0.01-0.2-0.06-0.26-0.15
		c-0.07-0.24,0.01-0.42,0.21-0.55c0.1-0.05,0.2-0.08,0.31-0.1c0.11-0.02,0.21-0.02,0.32-0.01c0.16,0.01,0.32,0.01,0.48,0.02
		c0.17,0.02,0.3,0.1,0.41,0.23C29.02,13.04,29.04,13.12,29.06,13.19z"/>
	<path style="fill-rule:evenodd;clip-rule:evenodd;fill:#4A423E;" d="M27.41,9.5c-0.12,0.36,0.46,0.75-0.04,1.09
		c0.01,0.25-0.11,0.29-0.31,0.2c-0.16-0.18-0.21-0.41-0.24-0.64c-0.02-0.33-0.12-0.66-0.03-1c0.1-0.01,0.21-0.02,0.31-0.03
		C27.21,9.25,27.31,9.37,27.41,9.5z"/>
	<path style="fill-rule:evenodd;clip-rule:evenodd;fill:#796662;" d="M39.81,52.16c0.01-0.11,0.02-0.22,0.04-0.33
		c0.25,0.48,0.5,0.96,0.75,1.44c-0.09,0.08-0.2,0.11-0.32,0.08C39.87,53.05,39.58,52.71,39.81,52.16z"/>
	<path style="fill-rule:evenodd;clip-rule:evenodd;fill:#6C3631;" d="M28.62,33.37c-0.09-0.01-0.19-0.02-0.28-0.03
		c-0.46-0.46-0.39-0.98-0.16-1.52c0.05-0.05,0.1-0.09,0.15-0.14C28.43,32.24,28.52,32.8,28.62,33.37z"/>
	<path style="fill-rule:evenodd;clip-rule:evenodd;fill:#6C3631;" d="M28.13,30.2c0.23,0.47,0.25,0.96,0.2,1.47l-0.06,0.06
		c-0.12,0.02-0.22-0.01-0.3-0.11c-0.2-0.38-0.2-0.78-0.07-1.18C27.94,30.33,28.02,30.25,28.13,30.2z"/>
	<path style="fill-rule:evenodd;clip-rule:evenodd;fill:#564C47;" d="M29,12.96c-0.16-0.01-0.31-0.01-0.47-0.02
		c-0.11-0.16-0.11-0.32,0.03-0.47c0.02-0.11,0.03-0.22,0.05-0.33C29.07,12.26,29.06,12.6,29,12.96z"/>
	<path style="fill-rule:evenodd;clip-rule:evenodd;fill:#812E2A;" d="M43.39,67.17c0.02,0.19,0.04,0.38,0.07,0.57
		c-0.06,0.2-0.13,0.39-0.19,0.59c-0.08-0.04-0.17-0.08-0.25-0.12c-0.23-0.18-0.14-0.4-0.09-0.61
		C43.01,67.37,43.11,67.17,43.39,67.17z"/>
	<path style="fill-rule:evenodd;clip-rule:evenodd;fill:#5E4745;" d="M32.95,43.88c0.21,0.26,0.43,0.52,0.64,0.78
		c-0.04,0.03-0.08,0.06-0.12,0.09c-0.1,0.03-0.19,0.04-0.29,0.02c-0.1-0.03-0.18-0.09-0.25-0.16c-0.14-0.16-0.22-0.34-0.18-0.55
		C32.78,43.96,32.85,43.9,32.95,43.88z"/>
	<path style="fill-rule:evenodd;clip-rule:evenodd;fill:#201D1B;" d="M21.83,5.28c-0.09-0.18-0.18-0.35-0.27-0.53
		c-0.03-0.07-0.02-0.13,0.03-0.19c0.16,0.08,0.32,0.15,0.48,0.23C22.21,5.06,22.06,5.19,21.83,5.28z"/>
	<path style="fill-rule:evenodd;clip-rule:evenodd;fill:#5F3D3C;" d="M42.98,58.77c-0.06,0.17-0.12,0.34-0.17,0.51
		c-0.32-0.2-0.28-0.45-0.09-0.71c0.07,0.01,0.14,0.01,0.21,0C42.98,58.63,43,58.69,42.98,58.77z"/>
	<path style="fill-rule:evenodd;clip-rule:evenodd;fill:#614844;" d="M32.23,42.9c0.13,0.18,0.25,0.37,0.38,0.55
		c-0.07,0.08-0.16,0.11-0.27,0.11c-0.23-0.07-0.33-0.23-0.31-0.46C32.06,42.99,32.13,42.93,32.23,42.9z"/>
	<path style="fill-rule:evenodd;clip-rule:evenodd;fill:#5F322D;" d="M31.39,42c0.01-0.11,0.03-0.22,0.04-0.32
		c0.1,0.17,0.2,0.34,0.3,0.51c-0.04,0.04-0.07,0.07-0.11,0.11C31.45,42.27,31.36,42.19,31.39,42z"/>
	<path style="fill-rule:evenodd;clip-rule:evenodd;fill:#5F322D;" d="M31.73,42.19c0.07,0.09,0.13,0.18,0.2,0.26
		c0.06,0.07,0.08,0.13,0.07,0.2c-0.02,0.07-0.04,0.1-0.06,0.1c-0.33,0.01-0.39-0.18-0.33-0.46C31.65,42.27,31.69,42.23,31.73,42.19z
		"/>
	<path style="fill-rule:evenodd;clip-rule:evenodd;fill:#614844;" d="M31.89,42.77c0.01-0.11,0.03-0.21,0.04-0.32
		c0.1,0.15,0.2,0.3,0.31,0.44c-0.05,0.04-0.1,0.08-0.15,0.13C31.97,42.98,31.91,42.89,31.89,42.77z"/>
	<path style="fill-rule:evenodd;clip-rule:evenodd;fill:#644441;" d="M33.59,44.66c0.1,0.13,0.21,0.27,0.31,0.4
		c-0.05,0.04-0.09,0.09-0.14,0.14l-0.11,0.01l-0.1-0.06c-0.05-0.06-0.08-0.13-0.09-0.21c-0.01-0.08,0.01-0.15,0.06-0.22L33.59,44.66
		z"/>
	<path style="fill-rule:evenodd;clip-rule:evenodd;fill:#836764;" d="M40.33,53.28c0.09,0,0.18-0.01,0.26-0.01
		c0.05,0.08,0.1,0.17,0.16,0.26c-0.09,0-0.17,0-0.26,0C40.33,53.52,40.25,53.45,40.33,53.28z"/>
	<path style="fill-rule:evenodd;clip-rule:evenodd;fill:#D5C4C6;" d="M20.81,5.94c-0.06,0.01-0.12,0.02-0.18,0.04
		c-0.01-0.21,0.08-0.36,0.29-0.42C20.88,5.68,20.85,5.81,20.81,5.94z"/>
	<path style="fill-rule:evenodd;clip-rule:evenodd;fill:#442F2A;" d="M32.37,43.45c0.08,0,0.16,0,0.25,0
		c0.07,0.04,0.11,0.09,0.1,0.17c-0.02,0.04-0.05,0.08-0.07,0.13c-0.1,0.03-0.19,0.01-0.27-0.04C32.32,43.63,32.31,43.54,32.37,43.45
		z"/>
	<path style="fill-rule:evenodd;clip-rule:evenodd;fill:#473634;" d="M32.71,43.62c0.08,0.08,0.16,0.17,0.24,0.25
		c-0.06,0.01-0.11,0.04-0.15,0.09c-0.15-0.02-0.24-0.1-0.22-0.26C32.63,43.67,32.67,43.64,32.71,43.62z"/>
	<path style="fill-rule:evenodd;clip-rule:evenodd;fill:#673834;" d="M27.89,30c0.07,0,0.13,0,0.2,0.01
		c0.07,0.06,0.08,0.12,0.04,0.2c-0.03,0.03-0.06,0.06-0.09,0.09c-0.1,0.03-0.18,0.01-0.25-0.07C27.77,30.12,27.8,30.05,27.89,30z"/>
	<path style="fill-rule:evenodd;clip-rule:evenodd;fill:#D5C4C6;" d="M20.33,6.47c-0.06,0.07-0.12,0.14-0.18,0.22
		C20.21,6.61,20.27,6.54,20.33,6.47z"/>
	<path style="fill-rule:evenodd;clip-rule:evenodd;fill:#D5C4C6;" d="M20.62,5.99c-0.06,0.1-0.12,0.19-0.19,0.29
		C20.5,6.18,20.56,6.09,20.62,5.99z"/>
	<path style="fill-rule:evenodd;clip-rule:evenodd;fill:#CAC2C0;" d="M30.69,16.37c-0.06-0.1-0.13-0.19-0.19-0.29
		C30.56,16.17,30.62,16.27,30.69,16.37z"/>
	<path style="fill-rule:evenodd;clip-rule:evenodd;fill:#CBC4C5;" d="M30.95,22.09c0.09,0.02,0.18,0.04,0.27,0.06
		c-0.05,0.05-0.09,0.1-0.14,0.15c-0.07,0.02-0.14,0.03-0.21,0.02c-0.01-0.04-0.01-0.09-0.02-0.14
		C30.88,22.16,30.91,22.13,30.95,22.09z"/>
	<path style="fill-rule:evenodd;clip-rule:evenodd;fill:#BC1C27;" d="M43.39,67.17c-0.07,0.16-0.14,0.32-0.21,0.49
		c-0.81-1.12-1.89-1.88-3.11-2.5c-0.54-0.27-1.06-0.54-1.66-0.59c-0.16-0.24-0.32-0.48-0.48-0.72c-1.08-2.49-2.14-4.98-2.67-7.66
		c-0.14-1.42-0.26-2.85-0.63-4.23c-0.08-0.32-0.11-0.63,0.03-0.93c0.77-0.35,0.82,0.34,0.96,0.74c0.79,2.13,1.29,4.35,1.99,6.5
		c0.54,1.66,1.05,3.31,2.33,4.64c0.99,1.02,2.22,1.34,3.49,1.66C43.41,65.43,43.4,66.3,43.39,67.17z"/>
	<path style="fill-rule:evenodd;clip-rule:evenodd;fill:#B71F28;" d="M34.8,50.88c0.23,1.2,0.49,2.39,0.66,3.6
		c0.08,0.56,0.27,1.18-0.21,1.7c-0.06-0.02-0.12-0.04-0.18-0.07c-0.1-0.05-0.17-0.13-0.23-0.23c-0.06-0.21-0.15-0.41-0.25-0.62
		c-0.25-0.94-0.86-1.75-0.92-2.75c0.29-0.58,0-1.08-0.18-1.61c-0.66-1.93-1.57-3.78-1.75-5.84c-0.05-0.58-0.19-1.22,0.65-1.38
		c0.06,0.02,0.12,0.03,0.19,0.02c0.07,0.09,0.15,0.18,0.22,0.26c0.11,0.23,0.21,0.46,0.32,0.68c0.31,1.61,0.93,3.12,1.52,4.65
		C34.83,49.79,35.19,50.31,34.8,50.88z"/>
	<path style="fill-rule:evenodd;clip-rule:evenodd;fill:#402320;" d="M35.02,55.92c0.04,0.06,0.06,0.12,0.05,0.19
		c-0.07,0.24-0.21,0.56-0.35,0.09c-1.44-4.79-4.95-8.55-6.6-13.21c-1.06-2.99-1.45-6.17-1.96-9.3c-0.08-0.51-0.16-1.02-0.24-1.52
		c0.09-0.08,0.19-0.11,0.3-0.07c0.15,0.08,0.27,0.2,0.35,0.35c0.05,0.1,0.09,0.21,0.12,0.32c0.09,0.43,0.27,0.87-0.01,1.3
		c0.7,4.12,1.12,8.31,3.33,12.01c0.94,0.63,1.18,1.77,1.85,2.59c0.42,0.88,0.94,1.71,1.46,2.54c0.28,0.44,0.46,0.89,0.49,1.41
		c0.33,0.94,0.67,1.88,1,2.82C34.94,55.56,34.89,55.78,35.02,55.92z"/>
	<path style="fill-rule:evenodd;clip-rule:evenodd;fill:#3C2320;" d="M23.52,23.76c-2.48-3.1-3.18-7.05-4.97-10.49
		c-0.07-0.13,0.07-0.36,0.11-0.54c0.43,0.15,0.53,0.57,0.75,0.91c0.4,0.88,0.9,1.71,1.25,2.6c0.18,0.6,0.53,1.13,0.71,1.73
		c0.48,1.9,1.43,3.57,2.49,5.19c0.04,0.11,0.05,0.23,0.04,0.35C23.84,23.69,23.75,23.83,23.52,23.76z"/>
	<path style="fill-rule:evenodd;clip-rule:evenodd;fill:#402321;" d="M23.52,23.76c0.09-0.09,0.17-0.19,0.26-0.28
		c0.62,0.06,0.67,0.6,0.86,1.01c0.78,1.76,1.12,3.64,1.51,5.5c0.07,0.29,0.09,0.58,0.19,0.87c0.03,0.11,0.06,0.23,0.07,0.34
		c0.03,0.23,0.02,0.47-0.05,0.69c-0.05,0.11-0.12,0.2-0.22,0.27h-0.11h-0.11C25.31,29.3,24.64,26.47,23.52,23.76z"/>
	<path style="fill-rule:evenodd;clip-rule:evenodd;fill:#962027;" d="M19.18,13.7c-0.17-0.32-0.35-0.64-0.52-0.97
		c-0.21-0.57-0.43-1.14-0.64-1.72c0.16-0.65-0.42-1.76,0.34-1.85c0.58-0.07-0.12,1,0.09,1.59c0.18,0.5,0.21,1.06,0.5,1.54
		c0.2,0.08,0.31,0.24,0.41,0.42c0.11,0.23,0.21,0.46,0.16,0.73C19.46,13.58,19.35,13.67,19.18,13.7z"/>
	<path style="fill-rule:evenodd;clip-rule:evenodd;fill:#571B1B;" d="M17.76,8.64c0.1-0.12,0.17-0.27,0.29-0.35
		c0.24-0.15,0.66-0.23,0.72-0.01c0.1,0.4-0.39,0.04-0.55,0.27c-0.1,0.15-0.3,0.23-0.46,0.33C17.76,8.8,17.76,8.72,17.76,8.64z"/>
	<path style="fill-rule:evenodd;clip-rule:evenodd;fill:#A71A24;" d="M33.8,52.61c-0.73-1.29-1.47-2.58-2.2-3.86
		c-0.24-1.77-0.84-3.49-0.83-5.29c0-0.56-0.4-1.26,0.39-1.65c0.07,0.07,0.14,0.14,0.21,0.21c0.07,0.1,0.15,0.2,0.22,0.3
		c0.09,0.16,0.19,0.31,0.28,0.47c0.07,0.08,0.13,0.17,0.2,0.25c0.09,0.14,0.19,0.29,0.28,0.43c0.02,0.08,0.03,0.15,0.03,0.23
		c-0.9,0.8-0.3,1.77-0.1,2.55c0.46,1.79,1.17,3.53,1.79,5.28C34.25,51.96,34.45,52.38,33.8,52.61z"/>
	<path style="fill-rule:evenodd;clip-rule:evenodd;fill:#951B23;" d="M31.17,41.8c-0.2,1.89,0.09,3.72,0.56,5.54
		c0.13,0.49,0.42,0.98-0.13,1.41c-0.65-0.82-1.17-1.72-1.6-2.67c0.46-0.54,0.45-1.21,0.31-1.8c-0.31-1.33,0.3-2.68-0.21-3.99
		c-0.02-0.06,0.06-0.16,0.1-0.25c0.08,0.08,0.19,0.15,0.23,0.25C30.7,40.79,30.93,41.29,31.17,41.8z"/>
	<path style="fill-rule:evenodd;clip-rule:evenodd;fill:#922526;" d="M26.68,34.06c-0.08-0.48-0.16-0.95-0.24-1.43
		c0.42-0.55,1.32-0.28,1.66-0.97c0.06,0.02,0.11,0.04,0.17,0.06c0.02,0.54,0.05,1.07,0.07,1.61c-0.11,0.14,0.15,0.68-0.32,0.41
		C27.42,33.41,27.09,33.83,26.68,34.06z"/>
	<path style="fill-rule:evenodd;clip-rule:evenodd;fill:#ECDDDF;" d="M19,11.93c-0.02-0.2-0.05-0.39-0.07-0.59
		C18.54,10,19.87,9.6,20.35,8.72c0.44-0.28,0.92-0.43,1.44-0.29c0.13,0.01,0.17,0.23,0.35,0.16c-0.06-0.06-0.1-0.13-0.02-0.22
		c0.21-0.12,0.4-0.12,0.55,0.1c0,0.33,0.06,0.66,0.05,0.99c-0.41,0.6-1.25,0.23-1.7,0.76c-0.08,0.08-0.16,0.15-0.24,0.22
		c-0.46,0.51-0.57,1.1-0.46,1.76c0.07,0.46,0.18,0.95-0.3,1.29c-0.52,0.12-0.46-0.38-0.66-0.61C19.21,12.56,19.06,12.26,19,11.93z"
		/>
	<path style="fill-rule:evenodd;clip-rule:evenodd;fill:#D5C4C6;" d="M20.4,8.88c-0.18,1.01-1.47,1.35-1.47,2.46
		C18.39,10,19.25,9,19.8,7.93c0.38-0.63,0.75-1.26,1.13-1.89c0.15-0.09,0.3-0.18,0.45-0.27C21.88,7.07,21.21,7.99,20.4,8.88z"/>
	<path style="fill-rule:evenodd;clip-rule:evenodd;fill:#594342;" d="M19,11.93c0.12,0.27,0.25,0.54,0.37,0.81
		c-0.07,0.1-0.15,0.1-0.22,0c-0.07-0.15-0.13-0.3-0.2-0.45C18.97,12.17,18.98,12.05,19,11.93z"/>
	<path style="fill-rule:evenodd;clip-rule:evenodd;fill:#AC1925;" d="M38.4,64.56c0.16-0.11,0.4-0.35,0.46-0.31
		c1.53,1.01,3.75,1.17,4.32,3.4c-0.05,0.18-0.1,0.36-0.16,0.55c-0.18,0.17-0.35,0.35-0.53,0.53c-0.46-1.57-1.72-2.12-3.13-2.48l0,0
		c-0.07-0.07-0.14-0.16-0.19-0.24C38.82,65.57,38.49,65.13,38.4,64.56z"/>
	<path style="fill-rule:evenodd;clip-rule:evenodd;fill:#9A1B23;" d="M39.36,66.24c1.44-0.42,3.38,1.12,3.13,2.48
		c-0.64,0.47-1.04-0.02-1.39-0.41C40.48,67.65,39.93,66.94,39.36,66.24z"/>
	<path style="fill-rule:evenodd;clip-rule:evenodd;fill:#9A1B23;" d="M39.16,66c0.07,0.08,0.13,0.16,0.19,0.24
		C39.29,66.16,39.23,66.08,39.16,66z"/>
	<path style="fill-rule:evenodd;clip-rule:evenodd;fill:#E0C6CB;" d="M21.83,5.28c0.08-0.16,0.16-0.33,0.24-0.49
		c0.49-0.45,0.98-0.52,1.44,0.04c0.15,0.32,0.81,0.41,0.4,0.96c-0.09,0.12-0.2,0.22-0.33,0.3c-0.12,0.08-0.24,0.15-0.35,0.24
		c-0.14,0.14-0.19,0.33-0.29,0.5c-0.09,0.14-0.21,0.23-0.37,0.25c-0.11-0.01-0.19-0.06-0.25-0.16C22,6.42,22.62,5.63,21.83,5.28z"/>
	<path style="fill-rule:evenodd;clip-rule:evenodd;fill:#9E999C;" d="M25.64,6.08c-0.22,0.31-0.15,0.59,0.07,0.86
		c-0.08,0.09-0.17,0.15-0.29,0.17c-0.61-0.06-0.98-0.36-1.04-0.99c0.03-0.2,0.2-0.27,0.34-0.37C25.03,5.85,25.34,5.96,25.64,6.08z"
		/>
	<path style="fill-rule:evenodd;clip-rule:evenodd;fill:#BFAEB2;" d="M24.72,5.74c-0.09,0.09-0.19,0.18-0.28,0.28
		c-0.21,0.1-0.39,0.03-0.58-0.07c-0.08-0.06-0.14-0.14-0.16-0.24c0.38-0.39-0.3-0.55-0.19-0.88C23.98,5.05,24.72,4.9,24.72,5.74z"/>
	<path style="fill-rule:evenodd;clip-rule:evenodd;fill:#CBC4C5;" d="M27.54,24.19c-0.61,0.36-1.24,0.24-1.87,0.09
		c-0.7-0.03-1.04-0.37-0.99-1.08c0.7-0.68,1.54-0.93,2.5-0.82c0.24-0.08,0.13,0.65,0.55,0.22c0.47-0.47,0.91-0.95,1.26-1.52
		c0.47-0.03,0.93,0,1.34,0.27c0.26,0.2,1.2-0.16,0.61,0.74l0.02-0.03c-0.08,0.1-0.18,0.19-0.31,0.24
		C29.62,22.94,28.58,23.56,27.54,24.19z"/>
	<path style="fill-rule:evenodd;clip-rule:evenodd;fill:#E5C4CB;" d="M30.34,21.35c-0.45-0.02-0.93,0.23-1.32-0.19
		c-0.27,0.4-0.48,0.88-1.08,0.84c-0.65-0.7-0.58-1.33,0.26-2.36c0.99-0.1,1.49,0.62,2.04,1.24C30.27,21.05,30.3,21.2,30.34,21.35z"
		/>
	<path style="fill-rule:evenodd;clip-rule:evenodd;fill:#544142;" d="M30.23,20.9c-0.76-0.23-1.26-0.84-1.88-1.26
		c-0.12-0.05-0.22-0.12-0.33-0.19c-0.07-0.04-0.14-0.09-0.21-0.14c-0.06-0.06-0.11-0.13-0.15-0.2c-0.06-0.11-0.12-0.22-0.18-0.33
		c-0.04-0.07-0.07-0.15-0.11-0.22c-0.06-0.11-0.11-0.23-0.15-0.35c-0.02-0.09-0.02-0.17-0.01-0.26c0.03-0.09,0.08-0.16,0.15-0.22
		c0.08-0.04,0.17-0.07,0.26-0.07c0.14,0,0.28-0.01,0.42,0.02c0.08,0.05,0.15,0.11,0.2,0.19c0.11,0.2,0.17,0.44,0.38,0.58
		c0.12,0.09,0.24,0.18,0.32,0.31c0.16,0.61,0.8,0.72,1.16,1.12c0.16,0.14,0.33,0.25,0.5,0.38c0.1,0.12,0.23,0.24,0.04,0.39
		C30.51,20.73,30.37,20.81,30.23,20.9z"/>
	<path style="fill-rule:evenodd;clip-rule:evenodd;fill:#9C9799;" d="M30.65,20.65c-0.06-0.08-0.12-0.17-0.18-0.26
		c-0.29-0.59-0.27-1.05,0.5-1.19c0,0.08,0.01,0.16,0.01,0.25c-0.11,0.37,0.29,0.43,0.38,0.67c0.09,0.25,0.71,0.38,0.25,0.73
		C31.31,21.07,30.87,21.22,30.65,20.65z"/>
	<path style="fill-rule:evenodd;clip-rule:evenodd;fill:#F1ECEC;" d="M26.79,9.16c0.24,0.26,0.43,0.54,0.27,0.92
		c-0.08,0.26-0.08,0.56-0.4,0.67c-0.95,0.27-1.45-0.12-1.54-1.08c-0.02-0.14,0.02-0.29,0-0.44c-0.02-0.1-0.02-0.19-0.02-0.29
		c0.02-0.15,0.07-0.28,0.14-0.41c0.09-0.18,0.21-0.33,0.38-0.43c0.09-0.04,0.19-0.04,0.28-0.02c0.13,0.08,0.17,0.23,0.3,0.31
		C26.73,8.39,26.14,9.24,26.79,9.16z"/>
	<path style="fill-rule:evenodd;clip-rule:evenodd;fill:#CDBFC0;" d="M26.2,8.38c-0.09-0.08-0.19-0.15-0.28-0.23
		c-0.08-0.05-0.12-0.12-0.13-0.22c0.01-0.04,0.03-0.08,0.04-0.13c0.03-0.03,0.07-0.06,0.1-0.08C26.68,7.68,25.94,8.23,26.2,8.38z"/>
	<path style="fill-rule:evenodd;clip-rule:evenodd;fill:#C7BDC1;" d="M25.4,6.96c0.1-0.01,0.21-0.02,0.31-0.03
		c0.06,0.08,0.12,0.16,0.18,0.24c-0.16,0.15,0.01,0.52-0.35,0.55C25.21,7.53,25.19,7.27,25.4,6.96z"/>
	<path style="fill-rule:evenodd;clip-rule:evenodd;fill:#7B6A69;" d="M25.64,7.64c0.08-0.16,0.17-0.31,0.25-0.47
		c0.01,0.18,0.03,0.37,0.04,0.55c0,0,0.01-0.03,0.01-0.03C25.83,7.77,25.73,7.75,25.64,7.64z"/>
	<path style="fill-rule:evenodd;clip-rule:evenodd;fill:#C7B3B7;" d="M22.54,6.97c0.1-0.1,0.19-0.19,0.29-0.29
		c0.08-0.04,0.16-0.05,0.25-0.01c0.1,0.06,0.19,0.14,0.31,0.16c0.06-0.05,0.11-0.11,0.13-0.19c0.02-0.09,0.05-0.17,0.09-0.26
		c0.08-0.14,0.19-0.22,0.36-0.2c0.58,0.25,0.54,0.78,0.6,1.27c0.01,0.21,0.06,0.43,0.01,0.64C24.5,8.33,24.3,8.51,24.2,8.74
		c-0.12,0.24-0.06,0.5-0.06,0.75c-0.04,0.38-0.07,0.76-0.36,1.05c-0.79-0.04-0.44-0.7-0.6-1.08c-0.01-0.1-0.02-0.21-0.03-0.31
		c-0.01-0.11-0.04-0.2-0.1-0.29c0-0.33,0.31-0.69-0.13-0.96C22.39,7.76,22.36,7.4,22.54,6.97z"/>
	<path style="fill-rule:evenodd;clip-rule:evenodd;fill:#DEBEC4;" d="M20.4,8.88c0.26-1.05,1.06-1.94,0.97-3.1l0.01-0.01
		c0.05,0,0.1,0,0.15-0.01c0.5,0.57,0.2,1.31,0.42,1.95c0.09,0.27,0.07,0.56,0.48,0.46c0.17,0.01,0.21,0.09,0.12,0.23
		c-0.15,0.08-0.3,0.15-0.45,0.23l0,0C21.52,8.72,20.96,8.8,20.4,8.88z"/>
	<path style="fill-rule:evenodd;clip-rule:evenodd;fill:#574847;" d="M22.53,8.41c-0.04-0.08-0.08-0.15-0.12-0.23
		c0.53,0.15,0.35,0.6,0.39,0.95c0.17,0.18,0.33,0.02,0.49-0.02c0.58,0.34-0.14,1.1,0.47,1.43c0.05,0.02,0.11,0.03,0.16,0.05
		c0.09,0.06,0.17,0.14,0.24,0.23c0.33,0.61,0.93,1.15,0.51,1.95c-0.09,0.14-0.2,0.25-0.38,0.26c-0.31-0.15-0.33-0.51-0.51-0.74
		c-0.03-0.04-0.06-0.08-0.08-0.13c-0.06-0.08-0.1-0.18-0.15-0.27c-0.08-0.19-0.12-0.39-0.24-0.57c-0.3-0.44-0.73-0.83-0.36-1.45
		C23,9.79,22.62,9.8,22.54,9.61C22.54,9.21,22.54,8.81,22.53,8.41z"/>
	<path style="fill-rule:evenodd;clip-rule:evenodd;fill:#534443;" d="M22.54,6.97c-0.02,0.37-0.08,0.76,0.38,0.93
		c-0.75,0.01-0.57-0.54-0.59-0.98C22.41,6.92,22.48,6.94,22.54,6.97z"/>
	<path style="fill-rule:evenodd;clip-rule:evenodd;fill:#1B2320;" d="M23.3,9.11c-0.15,0.23-0.31,0.33-0.49,0.02
		c0.08,0,0.16-0.01,0.24-0.01C23.12,9.04,23.21,9.03,23.3,9.11L23.3,9.11z"/>
	<path style="fill-rule:evenodd;clip-rule:evenodd;fill:#574847;" d="M23.29,9.11c-0.08,0-0.17,0.01-0.25,0.01
		c0-0.09,0.01-0.17,0.01-0.26C23.13,8.94,23.21,9.02,23.29,9.11z"/>
	<path style="fill-rule:evenodd;clip-rule:evenodd;fill:#D5C4C6;" d="M21.52,5.76c-0.05,0-0.1,0.01-0.15,0.01
		C21.42,5.67,21.47,5.57,21.52,5.76z"/>
	<path style="fill-rule:evenodd;clip-rule:evenodd;fill:#D07184;" d="M40.33,53.28c0.05,0.08,0.11,0.17,0.16,0.25
		c0.74,1.68,1.48,3.36,2.22,5.04c0.03,0.24,0.06,0.47,0.09,0.71c0.05,0.4,0.11,0.79,0.16,1.19c0.13,0.14,0.09,0.33,0.17,0.49
		c0,0.16,0,0.31,0,0.47c-0.87,0.61-1.33-0.06-1.75-0.62c-0.87-1.12-1.38-2.43-1.76-3.77c-0.7-2.46-1.79-4.76-2.62-7.17
		c-0.13-0.39-0.42-0.67-0.67-0.98c-0.05-0.24-0.46-0.58,0.16-0.66c0.57,0.24,0.79,0.83,1.23,1.22c0.69,0.91,1.38,1.81,2.07,2.72
		C39.98,52.53,40.16,52.91,40.33,53.28z"/>
	<path style="fill-rule:evenodd;clip-rule:evenodd;fill:#C63D40;" d="M33.56,45.16c0.07,0.01,0.14,0.03,0.2,0.04
		c0.19,0.29,0.38,0.58,0.58,0.87c1.46,2.17,2.21,4.66,3.16,7.05c0.99,2.51,1.52,5.18,2.82,7.58c0.6,1.11,1.34,2,2.78,1.81
		c0.13,0.01,0.23,0.06,0.32,0.15l0.04,0c-0.02,0.24-0.04,0.48-0.06,0.71c-0.37,0.71-0.99,0.58-1.57,0.43
		c-1.02-0.26-1.73-0.95-2.28-1.83c-0.94-1.51-1.55-3.17-2.05-4.85c-0.98-3.3-2.31-6.47-3.53-9.67
		C33.7,46.74,32.97,46.04,33.56,45.16z"/>
	<path style="fill-rule:evenodd;clip-rule:evenodd;fill:#C94D51;" d="M43.21,62.61c-1.17,0.62-1.96,0.01-2.61-0.87
		c-1.35-1.81-1.96-3.98-2.6-6.08c-0.96-3.14-2.31-6.11-3.54-9.14c-0.06-0.14-0.08-0.3-0.11-0.46c0.32,0.32,0.64,0.64,0.97,0.96
		c1.72,3.07,2.85,6.38,3.97,9.69c0.22,0.64,0.42,1.29,0.65,1.92c0.6,1.65,1.46,3.07,3.28,3.64C43.27,62.39,43.27,62.5,43.21,62.61z"
		/>
	<path style="fill-rule:evenodd;clip-rule:evenodd;fill:#CC5E69;" d="M43.18,62.39c-1.74-0.17-2.63-1.34-3.19-2.82
		c-1.58-4.17-3.12-8.35-4.68-12.53c0.4,0.4,0.8,0.8,1.2,1.2c-0.29,0.15-0.06,0.33-0.03,0.49c1.56,3.2,2.65,6.59,3.81,9.95
		c0.28,0.8,0.72,1.49,1.16,2.19c0.38,0.62,1.01,0.82,1.71,0.81l0.04,0C43.35,61.92,43.38,62.15,43.18,62.39z"/>
	<path style="fill-rule:evenodd;clip-rule:evenodd;fill:#CAC2C0;" d="M29.27,15.28c0.55,0.39,0.22,1.47,1.2,1.52
		c-0.08,0.31-0.15,0.62-0.23,0.92c0.06,0.06,0.09,0.12,0.08,0.19c-0.01,0.07-0.02,0.11-0.04,0.11c-0.54,0.25-0.87,0.03-1.08-0.47
		c-0.24-0.45-0.53-0.89-0.35-1.44c0.08-0.28,0.2-0.53,0.44-0.72C29.25,15.36,29.25,15.32,29.27,15.28z"/>
	<path style="fill-rule:evenodd;clip-rule:evenodd;fill:#B3A5A7;" d="M30.97,19.2c-0.39,0.3-0.49,0.73-0.5,1.19
		c-0.19-0.06-0.37-0.12-0.56-0.18c-0.05-0.53-0.08-1.06,0.42-1.43c0.05-0.02,0.1-0.05,0.15-0.07C30.7,18.83,31.27,18.58,30.97,19.2z
		"/>
	<path style="fill-rule:evenodd;clip-rule:evenodd;fill:#E4D6D9;" d="M30.21,18.04c0.01-0.11,0.03-0.21,0.04-0.32
		c1.01,0.11-0.1,0.72,0.24,0.99c0,0-0.07-0.06-0.07-0.06c-0.31,0.07-0.3-0.16-0.34-0.35C30.09,18.2,30.13,18.12,30.21,18.04z"/>
	<path style="fill-rule:evenodd;clip-rule:evenodd;fill:#473C3A;" d="M30.66,22.31c0.1-0.08,0.2-0.16,0.31-0.24
		c-0.03,0.09-0.07,0.17-0.1,0.26l-0.1-0.03L30.66,22.31z"/>
	<path style="fill-rule:evenodd;clip-rule:evenodd;fill:#C11726;" d="M26.18,31.2c-0.04-0.06-0.06-0.12-0.05-0.19
		c-0.15-0.24-0.01-0.54-0.18-0.77c-0.63-1.84-0.76-3.82-1.59-5.6c-0.18-0.39-0.38-0.78-0.57-1.16c0.01-0.07,0-0.13-0.03-0.19
		c-0.07-0.06-0.09-0.12-0.07-0.19c0.02-0.06,0.04-0.1,0.06-0.1c0.99,0.07,1.18,1.13,1.91,1.53c0.3,0.49,0.72,0.56,1.2,0.34
		c0.4-0.18,0.67-0.15,0.77,0.33c-0.04,1.6-0.22,3.22,0.26,4.8c-0.02,0.07-0.04,0.15-0.04,0.22c0.16,0.26,0.19,0.69-0.04,0.73
		c-0.79,0.12-0.77,0.95-1.29,1.28c-0.12-0.02-0.2-0.09-0.23-0.2C26.25,31.75,26.36,31.45,26.18,31.2z"/>
	<path style="fill-rule:evenodd;clip-rule:evenodd;fill:#CE6573;" d="M43.17,61.67c-1.29,0.28-2.25-0.42-2.99-2.55
		c-1.13-3.26-2.15-6.57-3.65-9.7c-0.09-0.2-0.04-0.47-0.05-0.71c1.2,0.72,1.09,2.13,1.63,3.2c1.37,2.71,1.73,5.83,3.35,8.46
		c0.39,0.64,0.81,1.19,1.68,1.05C43.15,61.51,43.16,61.59,43.17,61.67z"/>
	<path style="fill-rule:evenodd;clip-rule:evenodd;fill:#A24042;" d="M43.18,62.39c0.01-0.24,0.02-0.48,0.02-0.71
		c0.3,0.28,0.22,0.64,0.22,0.98c-0.07-0.02-0.14-0.03-0.21-0.04C43.21,62.53,43.2,62.46,43.18,62.39z"/>
	<path style="fill-rule:evenodd;clip-rule:evenodd;fill:#CE6573;" d="M43.14,60.96c-0.06-0.16-0.12-0.33-0.17-0.49
		C43.02,60.63,43.08,60.79,43.14,60.96z"/>
	<path style="fill-rule:evenodd;clip-rule:evenodd;fill:#E6E2E1;" d="M28.56,12.48c-0.01,0.16-0.02,0.31-0.03,0.47
		c-0.14,0-0.29,0-0.43,0.01c-0.09-0.07-0.19-0.07-0.28,0c-0.06-0.01-0.11-0.01-0.17-0.01c-0.09-0.04-0.17-0.1-0.24-0.17
		c-0.17-0.24-0.37-0.47-0.5-0.75c-0.09-0.2-0.17-0.4-0.21-0.61c-0.02-0.11-0.02-0.23,0-0.34c0.08-0.23,0.18-0.44,0.49-0.32
		c0.06-0.06,0.13-0.11,0.19-0.17c0.7,0.05-0.55,1.03,0.45,0.93C27.86,12,27.83,12.54,28.56,12.48z"/>
	<path style="fill-rule:evenodd;clip-rule:evenodd;fill:#EFEBEA;" d="M29.29,15.39c-0.01,0.26,0.02,0.53-0.26,0.69
		c-0.06,0.06-0.14,0.08-0.22,0.04c-0.1-0.05-0.19-0.12-0.3-0.17c0,0-0.1-0.01-0.1-0.01s-0.11,0.01-0.11,0.01
		c-0.07,0.04-0.12,0.08-0.17,0.14c-0.07,0.1-0.15,0.2-0.23,0.29c-0.07,0.06-0.14,0.12-0.22,0.16c-0.09,0.05-0.17,0.09-0.27,0.13
		c-0.05,0.01-0.1,0.02-0.15,0.04c-0.1,0.01-0.21,0-0.31-0.02c-0.21-0.08-0.37-0.21-0.46-0.41c-0.05-0.15-0.06-0.31-0.03-0.47
		c0.07-0.25,0.28-0.41,0.42-0.61c0.09-0.31-0.26-0.54-0.15-0.86c0.06-0.28,0.14-0.54,0.35-0.74c0.32-0.13,0.67,0.01,0.99-0.11
		c0.16-0.04,0.32-0.09,0.48-0.13C28.77,14.05,28.8,14.81,29.29,15.39z"/>
	<path style="fill-rule:evenodd;clip-rule:evenodd;fill:#C22A2F;" d="M33.56,45.16c0.25,1.72,1.22,3.18,1.77,4.8
		c1.14,3.33,2.33,6.64,3.57,9.94c0.5,1.33,1.06,2.68,2.46,3.39c0.68,0.35,1.35,0.47,2.05,0.08c0,0.4,0.01,0.79,0.01,1.19
		c-1.71,0.49-4.13-1.12-5.01-3.15c-1.32-3.03-1.94-6.28-3.03-9.38c-0.14-0.41-0.19-0.86-0.58-1.15c-0.4-1.9-1.54-3.55-1.8-5.49
		c-0.04-0.28-0.17-0.53,0.13-0.74c0.05,0.01,0.1,0.01,0.15,0c0.17,0.04,0.27,0.16,0.31,0.33C33.57,45.04,33.56,45.1,33.56,45.16z"/>
	<path style="fill-rule:evenodd;clip-rule:evenodd;fill:#58332F;" d="M25.65,24.53c-0.86-0.22-1.15-1.15-1.89-1.53
		c-0.74-0.79-1.26-1.68-1.25-2.81c0.03-0.19,0.09-0.36,0.22-0.51c0.2-0.11,0.34,0,0.46,0.15c0.35,1.21,0.91,2.34,1.54,3.43
		c0.31,0.34,0.62,0.68,0.93,1.02C25.66,24.36,25.66,24.45,25.65,24.53z"/>
	<path style="fill-rule:evenodd;clip-rule:evenodd;fill:#E6E0E0;" d="M28.07,13.5c-0.35,0.07-0.7,0.15-1.05,0.22
		c-0.62,0.09-0.59-0.29-0.49-0.7c0.12-0.17,0.29-0.21,0.49-0.18c0.3,0.08,0.15,0.44,0.35,0.58c0.08,0,0.16,0,0.24,0.01
		c0.08-0.08,0.16-0.08,0.24-0.01C27.92,13.45,28,13.48,28.07,13.5z"/>
	<path style="fill-rule:evenodd;clip-rule:evenodd;fill:#564C47;" d="M27.36,13.43c-0.3-0.04-0.18-0.3-0.25-0.46
		c-0.07-0.1-0.07-0.2,0-0.3c0.17-0.08,0.32-0.08,0.46,0.05c0.03,0.07,0.05,0.14,0.07,0.22C27.55,13.1,27.46,13.26,27.36,13.43z"/>
	<path style="fill-rule:evenodd;clip-rule:evenodd;fill:#564C47;" d="M27.84,13.43c-0.08,0-0.16,0-0.24,0.01
		C27.68,13.31,27.76,13.3,27.84,13.43z"/>
	<path style="fill-rule:evenodd;clip-rule:evenodd;fill:#564C47;" d="M27.81,12.95c0.1-0.14,0.19-0.13,0.28,0
		C28,12.95,27.91,12.95,27.81,12.95z"/>
	<path style="fill-rule:evenodd;clip-rule:evenodd;fill:#CDC4C2;" d="M27.18,10.76c-0.1,0.18-0.21,0.36-0.31,0.53
		c-0.5-0.08-0.43-0.38-0.27-0.71c0.15-0.17,0.31-0.34,0.46-0.51C27.1,10.31,27.14,10.53,27.18,10.76z"/>
	<path style="fill-rule:evenodd;clip-rule:evenodd;fill:#B01C26;" d="M26.43,32.15c-0.09-1.05,1.04-1.22,1.42-1.93
		c0.06,0.02,0.12,0.04,0.18,0.07c0.02,0.46,0.04,0.92,0.06,1.38c0.04,1.34-1.15,0.56-1.66,0.97c-0.03-0.08-0.05-0.16-0.08-0.23
		C26.28,32.29,26.31,32.21,26.43,32.15z"/>
	<path style="fill-rule:evenodd;clip-rule:evenodd;fill:#4F3531;" d="M33.58,44.98c-0.1-0.11-0.2-0.22-0.31-0.33
		c0.08,0.03,0.16,0.05,0.24,0.08C33.54,44.82,33.56,44.9,33.58,44.98z"/>
	<path style="fill-rule:evenodd;clip-rule:evenodd;fill:#4F1B1A;" d="M35.02,55.92c-0.07-0.16-0.15-0.33-0.22-0.49
		C34.88,55.59,34.95,55.75,35.02,55.92z"/>
	<path style="fill-rule:evenodd;clip-rule:evenodd;fill:#4F1B1A;" d="M26.43,32.15c-0.03,0.08-0.05,0.16-0.08,0.25
		c-0.07-0.08-0.14-0.16-0.21-0.24c0.02-0.1,0.03-0.2,0.05-0.3c0.09-0.04,0.16-0.01,0.19,0.08C26.38,32.02,26.4,32.09,26.43,32.15z"
		/>
	<path style="fill-rule:evenodd;clip-rule:evenodd;fill:#931E23;" d="M22.79,20.17c0,1.06,0.58,1.92,0.98,2.83
		c0,0.09-0.01,0.19-0.01,0.28C22.39,21.77,21.52,20,21.13,18c0.46-0.49,0.67,0.49,1.11,0.19c0.22,0.1,0.31,0.29,0.38,0.5
		C22.88,19.16,22.56,19.7,22.79,20.17z"/>
	<path style="fill-rule:evenodd;clip-rule:evenodd;fill:#A31823;" d="M22.09,18.22c-0.47,0.57-0.56-0.5-0.97-0.22
		c-0.24-0.56-0.48-1.12-0.72-1.68c0.21-0.34,0.59-0.38,0.91-0.52c0.62,0.43,0.74,1.12,0.96,1.77
		C22.31,17.81,22.28,18.04,22.09,18.22z"/>
	<path style="fill-rule:evenodd;clip-rule:evenodd;fill:#B81625;" d="M21.1,15.88c0.01,0.53-0.52,0.19-0.7,0.43
		c-0.41-0.87-0.82-1.75-1.22-2.62c0.06-0.08,0.13-0.15,0.19-0.23C20.14,14.14,20.92,14.79,21.1,15.88z"/>
	<path style="fill-rule:evenodd;clip-rule:evenodd;fill:#B01C26;" d="M26.39,31.94c-0.07-0.02-0.13-0.05-0.19-0.08
		c-0.01-0.22-0.01-0.44-0.02-0.66C26.44,31.39,26.41,31.67,26.39,31.94z"/>
	<path style="fill-rule:evenodd;clip-rule:evenodd;fill:#B01C26;" d="M25.95,30.24c0.26,0.21,0.23,0.49,0.18,0.77
		C26.07,30.76,26.01,30.5,25.95,30.24z"/>
	<path style="fill-rule:evenodd;clip-rule:evenodd;fill:#543632;" d="M21.1,15.88c-0.58-0.8-1.15-1.61-1.73-2.41
		c-0.07-0.24-0.15-0.49-0.22-0.73c0.07,0,0.15,0,0.22,0c0.17,0.25,0.34,0.51,0.51,0.76c1.06,1.1,2.39,2.03,2.39,3.8
		c-0.04,0.12-0.12,0.21-0.22,0.28C21.67,17.06,21.68,16.3,21.1,15.88z"/>
	<path style="fill-rule:evenodd;clip-rule:evenodd;fill:#F5EFEF;" d="M22.13,17.2c-0.27-1.52-1.64-2.38-2.24-3.7
		c0.19-0.35,0.27-0.68,0.14-1.11c-0.28-0.88-0.13-1.69,0.66-2.3c0.09,0.11,0.17,0.17,0.21-0.03c0.39-0.74,1.04-0.53,1.65-0.45
		c0.21,0.15,0.81-0.15,0.57,0.51c-0.21,0.59,0.17,0.84,0.63,1.02c-0.08,0.29-0.19,0.59,0.01,0.88l-0.01-0.01
		c0.12,0.11,0.26,0.05,0.39,0.02c0.04,0.31,0.08,0.61,0.12,0.92c0.18,0.17,0.51,0.07,0.63,0.35c0.13,0.49,0.34,0.95,0.57,1.4
		c0.06,0.19,0.15,0.37,0.27,0.54c0.3,0.33,0.08,0.86,0.43,1.17c0.46,0.27,0.6,0.83,1.04,1.12c0.05,0.09,0.06,0.19,0.05,0.29
		c-0.05,0.19-0.09,0.37,0.11,0.51c0.09,0.03,0.17,0.08,0.24,0.14c0.04,0.06,0.06,0.13,0.05,0.2c0.03,0.07,0.06,0.14,0.08,0.21
		c0,0.12,0.05,0.22,0.13,0.3l0,0c0.12,0.72-0.44,1.1-0.8,1.58c-0.23,0.23-0.5,0.42-0.76,0.62c-0.31,1.03-0.94,1.22-1.76,0.52
		c-0.64-0.55-0.95-1.35-1.48-1.99c-0.07-0.1-0.15-0.2-0.22-0.31c-0.22-0.27-0.3-0.6-0.39-0.92C22.41,18.18,22.15,17.71,22.13,17.2z"
		/>
	<path style="fill-rule:evenodd;clip-rule:evenodd;fill:#C6BDBB;" d="M20.89,10.05c0.27,0.19,0.28,0.44,0.17,0.72
		c-0.02,0.04-0.15,0.08-0.18,0.05c-0.29-0.18-0.21-0.47-0.19-0.74C20.75,10.09,20.82,10.08,20.89,10.05z"/>
	<path style="fill-rule:evenodd;clip-rule:evenodd;fill:#DEBEC4;" d="M22.08,8.64c0.03,0.02,0.06,0.04,0.09,0.05
		C22.14,8.68,22.11,8.66,22.08,8.64L22.08,8.64z"/>
	<path style="fill-rule:evenodd;clip-rule:evenodd;fill:#80696B;" d="M23.01,6.74c-0.06-0.01-0.12-0.03-0.18-0.06
		c0.05-0.21,0.1-0.41,0.15-0.62c0.22,0.04,0.38,0.15,0.37,0.41C23.29,6.62,23.18,6.72,23.01,6.74z"/>
	<path style="fill-rule:evenodd;clip-rule:evenodd;fill:#BFAEB2;" d="M23.32,6.42c-0.11-0.12-0.22-0.24-0.33-0.36
		c0.17-0.03,0.33-0.07,0.5-0.1c0.04,0.03,0.09,0.06,0.13,0.09c0.04,0.16,0.03,0.31-0.04,0.46C23.46,6.55,23.38,6.52,23.32,6.42z"/>
	<path style="fill-rule:evenodd;clip-rule:evenodd;fill:#BFAEB2;" d="M23.48,5.96c0.07-0.08,0.15-0.17,0.22-0.25
		c0,0,0.05,0.05,0.05,0.05c0.06,0.05,0.09,0.11,0.08,0.18c-0.01,0.07-0.02,0.1-0.03,0.1C23.7,6.1,23.61,6.09,23.52,6L23.48,5.96z"/>
	<path style="fill-rule:evenodd;clip-rule:evenodd;fill:#514543;" d="M23.69,5.94c0.02-0.06,0.05-0.12,0.06-0.19
		c0.31-0.14,0.47,0.15,0.69,0.26c0.3,0.34,0.41,0.87,0.96,0.95c0.03,0.25-0.16,0.57,0.24,0.68c0.1,0.02,0.2,0.03,0.3,0.05
		c0,0.08-0.02,0.15-0.06,0.22c-0.05,0.1-0.11,0.2-0.17,0.3c-0.09,0.14-0.19,0.27-0.28,0.41c-0.84,0.14-0.56-0.96-1.18-1.06
		c0.05-0.5,0.17-1.02-0.48-1.24C23.66,6.21,23.63,6.09,23.69,5.94z"/>
	<path style="fill-rule:evenodd;clip-rule:evenodd;fill:#EADBDD;" d="M26.88,20.55c0.32-0.45,0.64-0.9,0.97-1.35
		c0.23,0.07,0.73-0.17,0.51,0.44c-0.32,0.73-0.95,1.43-0.17,2.24c0.06,0.6-0.27,0.76-0.79,0.7c-0.97-0.09-1.78,0.42-2.65,0.68
		c-1.14-0.82-1.49-2.05-1.68-3.34c0.7,0.04,0.76,0.73,1.13,1.11c0.27,0.28,0.48,0.64,0.78,0.87c0.19,0.15,0.6,0.26,0.76,0.15
		c0.45-0.29-0.29-0.19-0.21-0.47c0.1-0.33,0.31-0.42,0.6-0.47C26.61,21.26,26.77,20.94,26.88,20.55z"/>
	<path style="fill-rule:evenodd;clip-rule:evenodd;fill:#665554;" d="M27.39,22.58c0.37-0.12,0.63-0.36,0.79-0.7
		c0.28-0.23,0.56-0.47,0.84-0.7c-0.06,0.99-0.83,1.42-1.52,1.91c-0.2,0.14-0.52,0.2-0.61-0.06C26.75,22.61,27.35,22.88,27.39,22.58z
		"/>
	<path style="fill-rule:evenodd;clip-rule:evenodd;fill:#CDB8BC;" d="M30.21,18.2c0.07,0.16,0.13,0.31,0.2,0.47
		c-0.16,0.52-0.33,1.04-0.49,1.55c-0.19-0.63-1.44-0.46-1.12-1.48c-0.13-0.14-0.29-0.14-0.46-0.11c-0.59-0.04-0.3-0.43-0.28-0.72
		c-0.05-0.12-0.07-0.27-0.25-0.26c-0.09,0-0.19-0.01-0.28-0.02c-0.1-0.01-0.18-0.04-0.25-0.11c-0.08-0.13-0.09-0.26-0.05-0.4
		c0.06-0.13,0.17-0.2,0.3-0.23c0.08-0.01,0.16,0.01,0.23,0.03c0.05,0.07,0.12,0.08,0.19,0.02c0.06-0.05,0.12-0.1,0.19-0.14
		c0.07-0.05,0.14-0.08,0.23-0.1c0.04,0,0.09,0,0.13,0.01c0.08,0.03,0.15,0.09,0.2,0.16c0.08,0.16,0.14,0.33,0.23,0.48
		c0.05,0.08,0.1,0.16,0.14,0.24c0.1,0.17,0.17,0.35,0.19,0.55c0.02,0.19-0.01,0.37-0.09,0.54c-0.08,0.07-0.05,0.1,0.04,0.04
		c0.14-0.08-0.11-0.08,0.06-0.09C29.62,18.52,29.84,18.2,30.21,18.2z"/>
	<path style="fill-rule:evenodd;clip-rule:evenodd;fill:#2F2B29;" d="M27.29,18.45c-0.17-0.11-0.41-0.19-0.2-0.46
		c0.09-0.12,0.16-0.11,0.23,0.02c0.02,0.08,0.03,0.16,0.05,0.23c0.07,0.08,0.08,0.13,0.03,0.17C27.36,18.43,27.32,18.45,27.29,18.45
		z"/>
	<path style="fill-rule:evenodd;clip-rule:evenodd;fill:#332C2D;" d="M27.76,17.58l-0.03-0.06l-0.05,0.03
		c0.19-0.01,0.24,0.08,0.15,0.25c-0.07-0.01-0.15-0.02-0.22-0.02C27.52,17.6,27.57,17.54,27.76,17.58z"/>
	<path style="fill-rule:evenodd;clip-rule:evenodd;fill:#CBB7BA;" d="M28.34,18.63c0.2-0.18,0.35-0.13,0.46,0.11
		C28.64,18.7,28.49,18.66,28.34,18.63z"/>
	<path style="fill-rule:evenodd;clip-rule:evenodd;fill:#CBB7BA;" d="M27.76,17.58c-0.05,0.06-0.1,0.13-0.15,0.19
		c-0.08,0-0.17,0-0.25-0.01c-0.03-0.04-0.05-0.09-0.08-0.13c0.04-0.04,0.07-0.08,0.1-0.12C27.5,17.54,27.63,17.56,27.76,17.58z"/>
	<path style="fill-rule:evenodd;clip-rule:evenodd;fill:#CBB7BA;" d="M27.83,17.8c-0.05-0.08-0.1-0.16-0.15-0.25
		c0.13,0.12,0.25,0.24,0.38,0.35C27.98,17.87,27.9,17.84,27.83,17.8z"/>
	<path style="fill-rule:evenodd;clip-rule:evenodd;fill:#332C2D;" d="M27.31,18c-0.08,0-0.15-0.01-0.23-0.02
		c0.01-0.08,0.02-0.15,0.03-0.23c0.08-0.11,0.16-0.11,0.23,0.01l0.01,0C27.34,17.85,27.33,17.92,27.31,18z"/>
	<path style="fill-rule:evenodd;clip-rule:evenodd;fill:#EADBDD;" d="M27.29,18.45c0.02-0.07,0.04-0.14,0.07-0.21
		c0.16,0,0.26,0.07,0.23,0.24C27.49,18.47,27.39,18.46,27.29,18.45z"/>
	<path style="fill-rule:evenodd;clip-rule:evenodd;fill:#CBB7BA;" d="M27.59,18.99c0.01-0.1,0.03-0.21,0.04-0.31
		c0.04,0.1,0.08,0.2,0.13,0.3l-0.08,0.06L27.59,18.99z"/>
	<path style="fill-rule:evenodd;clip-rule:evenodd;fill:#EADBDD;" d="M27.59,18.99c0.06,0,0.11-0.01,0.17-0.02
		c0.05,0.07,0.08,0.14,0.08,0.22C27.76,19.13,27.68,19.06,27.59,18.99z"/>
	<path style="fill-rule:evenodd;clip-rule:evenodd;fill:#514542;" d="M26.6,10.58c0.09,0.24,0.18,0.47,0.27,0.71
		c0,0.07,0.01,0.14,0.03,0.22c-0.02,0.15-0.03,0.29-0.11,0.43c-0.06,0.08-0.14,0.13-0.23,0.15c-0.09,0-0.18-0.04-0.24-0.1
		c-0.07-0.1-0.12-0.21-0.16-0.32c-0.03-0.05-0.07-0.1-0.13-0.12c-0.07,0.02-0.12,0.04-0.17,0.09c-0.05,0.06-0.11,0.1-0.18,0.14
		c-0.13,0.06-0.25,0.04-0.37-0.04c-0.15-0.13-0.29-0.27-0.41-0.43c-0.26-0.48-0.39-1-0.56-1.51c-0.03-0.42,0.19-0.65,0.55-0.78
		c0.12-0.02,0.23,0,0.33,0.08l0,0c0.06,0.07,0.08,0.15,0.06,0.24C25.51,9.99,25.47,10.93,26.6,10.58z"/>
	<path style="fill-rule:evenodd;clip-rule:evenodd;fill:#E0CED2;" d="M25.21,9.11c-0.08,0.01-0.16,0.01-0.24,0.02
		c-0.52,0.11-0.46-0.34-0.59-0.61C24.37,8.4,24.39,8.3,24.46,8.2c-0.07-0.21-0.13-0.43-0.2-0.64c1-0.32,0.44,1.09,1.18,1.06
		C25.36,8.78,25.28,8.95,25.21,9.11z"/>
	<path style="fill-rule:evenodd;clip-rule:evenodd;fill:#E0CED2;" d="M25.27,9.35c-0.02-0.08-0.04-0.16-0.06-0.24
		c0.04,0.05,0.09,0.1,0.12,0.16C25.34,9.28,25.29,9.33,25.27,9.35z"/>
	<path style="fill-rule:evenodd;clip-rule:evenodd;fill:#7B6A69;" d="M25.71,8.21c0.06-0.1,0.11-0.2,0.17-0.3
		c0.01,0.08,0.02,0.16,0.03,0.24C25.85,8.17,25.78,8.19,25.71,8.21z"/>
	<path style="fill-rule:evenodd;clip-rule:evenodd;fill:#E1CCD1;" d="M25.51,11.73c0.06-0.07,0.13-0.14,0.19-0.21
		c0.07-0.09,0.14-0.18,0.21-0.26l-0.01,0.01c0.17-0.11,0.33-0.13,0.49,0.02c0.01,0.22,0.02,0.44,0.03,0.66
		c0.07,0.15,0.25,0.18,0.33,0.32c0.06,0.15,0.06,0.3-0.01,0.45c-0.19,0.16-0.41,0.28-0.64,0.4c-0.13,0.07-0.26,0.14-0.4,0.18
		c-0.2,0.03-0.38-0.05-0.55-0.14c-0.13-0.06-0.24-0.14-0.37-0.2c-0.13-0.06-0.24-0.13-0.29-0.28c0.54-0.84-0.59-1.19-0.55-1.88
		c-0.04-0.09-0.1-0.15-0.19-0.19l0.02-0.06c-0.04-0.41-0.01-0.81,0.24-1.16c0.44-0.15,0.27,0.36,0.49,0.45
		c0.24,0.47,0.48,0.95,0.72,1.42C25.33,11.4,25.28,11.65,25.51,11.73z"/>
	<path style="fill-rule:evenodd;clip-rule:evenodd;fill:#90787A;" d="M24.49,9.83c-0.16-0.15-0.33-0.3-0.49-0.45
		c-0.41-0.23-0.25-0.49-0.04-0.76c0.21-0.02,0.35-0.19,0.54-0.24c0.15,0.25,0.3,0.5,0.46,0.75C24.74,9.31,24.39,9.42,24.49,9.83z"/>
	<path style="fill-rule:evenodd;clip-rule:evenodd;fill:#383230;" d="M23.32,6.42c0.06,0.04,0.13,0.05,0.2,0.04
		c0.14,0.04,0.15,0.18,0.18,0.29c0.02,0.06,0.02,0.11-0.01,0.17c-0.03,0.11-0.08,0.2-0.17,0.28c-0.54,0.26-0.34-0.3-0.5-0.46
		C23.11,6.63,23.21,6.53,23.32,6.42z"/>
	<path style="fill-rule:evenodd;clip-rule:evenodd;fill:#544343;" d="M24.51,8.37c-0.08,0.31-0.11,0.73-0.54,0.24
		c0.04-0.29,0.2-0.44,0.5-0.42C24.47,8.26,24.49,8.32,24.51,8.37z"/>
	<path style="fill-rule:evenodd;clip-rule:evenodd;fill:#80696B;" d="M23.7,6.75c-0.06-0.1-0.12-0.19-0.18-0.29
		c0-0.15,0-0.31,0-0.46c0.06-0.02,0.11-0.04,0.17-0.06c0.03,0.12,0.05,0.25,0.08,0.37C23.75,6.46,23.73,6.61,23.7,6.75z"/>
	<path style="fill-rule:evenodd;clip-rule:evenodd;fill:#80696B;" d="M23.52,7.2c0.06-0.09,0.12-0.18,0.17-0.28
		C23.63,7.01,23.57,7.1,23.52,7.2z"/>
	<path style="fill-rule:evenodd;clip-rule:evenodd;fill:#37302E;" d="M24.49,12.67c0.15,0.03,0.31,0.05,0.46,0.08
		c0.18,0.31,0.15,0.5-0.27,0.47c-0.25,0.08-0.56,0.26-0.44-0.26C24.33,12.87,24.41,12.77,24.49,12.67z"/>
	<path style="fill-rule:evenodd;clip-rule:evenodd;fill:#5E4D4C;" d="M23.75,12.02c-0.29-0.29-0.16-0.58-0.01-0.88
		C23.74,11.44,23.74,11.73,23.75,12.02z"/>
	<path style="fill-rule:evenodd;clip-rule:evenodd;fill:#5E4D4C;" d="M23.75,10.6c0.06,0.06,0.13,0.13,0.19,0.19
		C23.88,10.73,23.81,10.67,23.75,10.6z"/>
	<path style="fill-rule:evenodd;clip-rule:evenodd;fill:#5E4D4C;" d="M24.13,12.04c-0.14,0.1-0.28,0.18-0.39-0.02
		C23.87,12.02,24,12.03,24.13,12.04z"/>
	<path style="fill-rule:evenodd;clip-rule:evenodd;fill:#645251;" d="M29.05,18.65c0.01-0.19,0.02-0.38,0.03-0.57
		c0.07-0.18,0-0.38,0.12-0.54c0.08-0.06,0.16-0.07,0.26-0.03c-0.11,0.69,0.58,0.25,0.75,0.54c-0.01,0.05-0.01,0.1,0,0.15
		c-0.27,0.26-0.19,1.1-0.93,0.54C29.15,18.84,29.07,18.81,29.05,18.65z"/>
	<path style="fill-rule:evenodd;clip-rule:evenodd;fill:#403836;" d="M29.45,17.5c-0.08,0-0.16,0.02-0.23,0.06
		c-0.15,0.1-0.29,0.09-0.44-0.02l-0.03-0.02c-0.12-0.19-0.07-0.41-0.09-0.62c-0.02-0.11-0.04-0.21-0.08-0.31
		c-0.02-0.17,0.01-0.32,0.09-0.47c0.04-0.03,0.08-0.07,0.13-0.1c0.07,0.02,0.14,0.04,0.21,0.06C28.81,16.67,29.29,17.04,29.45,17.5z
		"/>
	<path style="fill-rule:evenodd;clip-rule:evenodd;fill:#4D4442;" d="M26.7,12.7c-0.02-0.15-0.05-0.3-0.07-0.45
		c-0.05-0.05-0.06-0.09-0.05-0.14c0.01-0.05,0.02-0.08,0.04-0.08l0.07-0.07c0.13-0.1,0.26-0.1,0.38,0.03c0,0.37,0.69,0.24,0.51,0.73
		c-0.16,0.01-0.33,0.01-0.49,0.02C26.94,12.85,26.81,12.86,26.7,12.7z"/>
	<path style="fill-rule:evenodd;clip-rule:evenodd;fill:#393430;" d="M27.06,11.99c-0.13-0.01-0.25-0.02-0.38-0.03
		c-0.04-0.2,0.02-0.36,0.21-0.45C27.1,11.62,27.16,11.78,27.06,11.99z"/>
	<path style="fill-rule:evenodd;clip-rule:evenodd;fill:#D3C1C4;" d="M27.13,15.37c-0.17,0.18-0.35,0.35-0.52,0.53
		c-0.09,0.07-0.2,0.11-0.31,0.12c-0.47-0.01-0.47-0.39-0.55-0.7c-0.09-0.2-0.19-0.39-0.28-0.58c-0.11-0.26-0.01-0.42,0.23-0.53
		c0.16-0.06,0.33-0.08,0.5-0.06c0.11,0.01,0.22,0.05,0.32,0.09C26.85,14.54,26.8,15.06,27.13,15.37z"/>
	<path style="fill-rule:evenodd;clip-rule:evenodd;fill:#4D3F40;" d="M26.4,15.86c0.07,0.01,0.14,0.02,0.21,0.04
		c0.02,0.13,0.04,0.27,0.05,0.4c0.11,0.21,0.22,0.41,0.51,0.38c0.05,0.01,0.09,0.01,0.14,0.02c0.04,0.03,0.07,0.06,0.11,0.09
		c0.04,0.1,0.01,0.18-0.08,0.24c0.01,0.16,0.02,0.32,0.03,0.48c-0.01,0.08-0.02,0.17-0.03,0.25l-0.12,0.01l-0.11-0.01
		c-0.78-0.03-0.65-0.95-1.2-1.21C25.76,16.1,26.24,16.09,26.4,15.86z"/>
	<path style="fill-rule:evenodd;clip-rule:evenodd;fill:#746461;" d="M26.42,14.37l-0.07,0.01l-0.07-0.01
		c-0.49-0.24-0.64-0.67-0.64-1.18c0.1-0.1,0.2-0.2,0.3-0.3c0.04,0.01,0.08,0.02,0.12,0.04c0.13,0.02,0.24-0.01,0.36-0.05
		c0.09-0.02,0.16,0.01,0.21,0.09c0.11,0.26-0.22,0.76,0.39,0.76c0.12,0.26,0.14,0.51-0.12,0.71C26.75,14.35,26.6,14.22,26.42,14.37z
		"/>
	<path style="fill-rule:evenodd;clip-rule:evenodd;fill:#3D3534;" d="M26.42,14.37c0.03-0.16-0.02-0.43,0.25-0.36
		c0.11,0.03,0.16,0.27,0.23,0.42c-0.17,0.37,1.37,0.34,0.23,0.94C26.37,15.41,26.73,14.65,26.42,14.37z"/>
	<path style="fill-rule:evenodd;clip-rule:evenodd;fill:#453A37;" d="M27.67,16.36c0.06,0,0.12-0.02,0.17-0.05
		c0.22-0.16,0.34,0,0.46,0.15c0.04,0.09,0.03,0.18-0.03,0.26l0.03,0.03c-0.02,0.13-0.12,0.21-0.22,0.28l0.01-0.01
		c-0.07,0.08-0.15,0.09-0.23,0.02h0c-0.13-0.15-0.37-0.08-0.49-0.25l0.02,0.02c-0.15-0.09-0.14-0.16,0.03-0.21l-0.01,0.01
		C27.44,16.47,27.53,16.39,27.67,16.36z"/>
	<path style="fill-rule:evenodd;clip-rule:evenodd;fill:#D3C1C4;" d="M27.12,16.78c-0.14,0.06-0.28,0.11-0.41,0.17
		c-0.02-0.21-0.03-0.43-0.05-0.64c0.16,0.09,0.31,0.18,0.47,0.27c0.06,0.05,0.08,0.09,0.06,0.14
		C27.16,16.76,27.14,16.78,27.12,16.78z"/>
	<path style="fill-rule:evenodd;clip-rule:evenodd;fill:#A59898;" d="M28.27,16.59c-0.15-0.09-0.29-0.18-0.43-0.28
		c0.07-0.17,0.14-0.33,0.21-0.5c0.1,0.02,0.2,0.06,0.28,0.12c0.07,0.08,0.12,0.17,0.14,0.27c0,0.11-0.02,0.21-0.06,0.3
		C28.36,16.54,28.31,16.56,28.27,16.59z"/>
	<path style="fill-rule:evenodd;clip-rule:evenodd;fill:#282A27;" d="M28.33,15.63c0.07-0.07,0.14-0.06,0.2,0.01
		c0.1,0.07,0.14,0.16,0.13,0.28c-0.02,0.05-0.03,0.11-0.05,0.16c-0.1,0.08-0.19,0.07-0.28-0.02l0,0
		C28.18,15.92,28.17,15.77,28.33,15.63z"/>
	<path style="fill-rule:evenodd;clip-rule:evenodd;fill:#695C58;" d="M28.33,15.63c0,0.14,0,0.29,0,0.43
		c-0.1-0.08-0.19-0.17-0.29-0.25C28.14,15.75,28.24,15.69,28.33,15.63z"/>
	<path style="fill-rule:evenodd;clip-rule:evenodd;fill:#695C58;" d="M28.56,16.08c-0.01-0.15-0.01-0.29-0.02-0.44
		c0.09,0.13,0.19,0.25,0.28,0.38c0.02,0.05,0.01,0.09-0.02,0.13C28.7,16.19,28.62,16.16,28.56,16.08z"/>
	<path style="fill-rule:evenodd;clip-rule:evenodd;fill:#CBB7BA;" d="M27.67,16.36c-0.09,0.08-0.18,0.16-0.27,0.24
		C27.49,16.52,27.58,16.44,27.67,16.36z"/>
	<path style="fill-rule:evenodd;clip-rule:evenodd;fill:#CBB7BA;" d="M27.12,16.78c0-0.07,0-0.14,0.01-0.2
		c0.09,0.01,0.19,0.02,0.28,0.02c0.04,0.08,0.02,0.15-0.03,0.21C27.29,16.8,27.2,16.79,27.12,16.78z"/>
	<path style="fill-rule:evenodd;clip-rule:evenodd;fill:#5F2D2A;" d="M22.58,18.72c0.09,0.3,0.17,0.59,0.26,0.89
		c-0.02,0.19-0.03,0.37-0.04,0.56c-0.15-0.49-0.3-0.98-0.45-1.47C22.43,18.61,22.51,18.62,22.58,18.72z"/>
	<path style="fill-rule:evenodd;clip-rule:evenodd;fill:#CDC4C2;" d="M26.63,12.96l-0.1-0.03l-0.11,0.01
		c-0.14,0.16-0.31,0.14-0.49,0.07c0.03-0.04,0.03-0.08,0.01-0.12c0.25-0.06,0.5-0.13,0.76-0.19c0.13,0.01,0.26,0.03,0.39,0.04
		c0.01,0.08,0.02,0.15,0.03,0.23C26.95,12.96,26.79,12.96,26.63,12.96z"/>
	<path style="fill-rule:evenodd;clip-rule:evenodd;fill:#6B443F;" d="M22.58,18.72c-0.08-0.01-0.16-0.02-0.23-0.03
		c-0.08-0.16-0.17-0.32-0.25-0.48c-0.01-0.21-0.02-0.43-0.03-0.64c0.02-0.13,0.05-0.25,0.07-0.38
		C22.28,17.71,22.43,18.22,22.58,18.72z"/>
	<path style="fill-rule:evenodd;clip-rule:evenodd;fill:#5B4C4C;" d="M25.75,14.42c-0.04,0.04-0.08,0.07-0.11,0.12
		c-0.01,0.02,0.02,0.06,0.03,0.09c0.06,0.42-0.16,0.4-0.43,0.27c-0.35-0.5-0.67-1.01-0.56-1.67c0.09-0.16,0.18-0.32,0.27-0.47
		c0.1,0.07,0.2,0.14,0.3,0.21C25.34,13.47,26.17,13.73,25.75,14.42z"/>
	<path style="fill-rule:evenodd;clip-rule:evenodd;fill:#8C7E7A;" d="M23.51,13.26c-0.27,0.51-0.51,1-1.03,1.25
		c-0.01,0-0.15-0.2-0.13-0.23c0.3-0.44,0.49-0.97,1-1.24C23.36,13.03,23.46,13.18,23.51,13.26z"/>
	<path style="fill-rule:evenodd;clip-rule:evenodd;fill:#4B3C3C;" d="M26.4,15.86c0.03,0.36-0.34,0.45-0.48,0.69
		c-0.73-0.26,0.13-1.05-0.46-1.35c0.1-0.22,0.25-0.22,0.43-0.09C26,15.41,25.88,15.85,26.4,15.86z"/>
	<path style="fill-rule:evenodd;clip-rule:evenodd;fill:#877974;" d="M22.33,11.61c-0.26,0.4-0.38,0.84-0.82,1.04
		c-0.01,0.01-0.16-0.19-0.14-0.22c0.25-0.35,0.51-0.69,0.78-1.02C22.21,11.48,22.27,11.54,22.33,11.61z"/>
	<path style="fill-rule:evenodd;clip-rule:evenodd;fill:#867873;" d="M25.21,18.49c-0.26,0.26-0.64,0.78-0.86,0.51
		c-0.3-0.38,0.39-0.5,0.59-0.79C25.17,18.16,25.28,18.23,25.21,18.49z"/>
	<path style="fill-rule:evenodd;clip-rule:evenodd;fill:#ADA19F;" d="M25.21,18.49c-0.09-0.09-0.18-0.18-0.27-0.28
		c0.2-0.19,0.33-0.71,0.63-0.46C25.81,17.96,25.42,18.27,25.21,18.49z"/>
	<path style="fill-rule:evenodd;clip-rule:evenodd;fill:#6D5E5C;" d="M26.88,20.55c0.42,0.37-0.02,0.52-0.21,0.68
		c-0.17,0.15-0.47,0.39-0.55-0.12C26.37,20.92,26.62,20.74,26.88,20.55z"/>
	<path style="fill-rule:evenodd;clip-rule:evenodd;fill:#292827;" d="M25.89,15.11c-0.14,0.03-0.29,0.06-0.43,0.09
		c-0.23,0.01-0.25-0.13-0.22-0.31c0.14-0.09,0.29-0.18,0.43-0.27C26.06,14.65,26.04,14.85,25.89,15.11z"/>
	<path style="fill-rule:evenodd;clip-rule:evenodd;fill:#F4E3EA;" d="M29.05,18.65c0.07,0.03,0.15,0.06,0.22,0.09
		c0.09,0.2,0.17,0.4,0.26,0.61c-0.1,0.01-0.22,0.06-0.29,0.02C28.95,19.19,29.06,18.9,29.05,18.65z"/>
	<path style="fill-rule:evenodd;clip-rule:evenodd;fill:#CBB7BA;" d="M28.79,17.54c0.15,0.01,0.29,0.01,0.44,0.02
		c0.08,0.21,0.02,0.38-0.15,0.52C28.98,17.9,28.89,17.72,28.79,17.54z"/>
	<path style="fill-rule:evenodd;clip-rule:evenodd;fill:#CBB7BA;" d="M28.77,16.81c0,0.24,0,0.48-0.01,0.71
		c-0.24-0.19-0.2-0.46-0.21-0.72C28.63,16.72,28.7,16.73,28.77,16.81z"/>
	<path style="fill-rule:evenodd;clip-rule:evenodd;fill:#A59898;" d="M28.77,16.81l-0.11,0.01l-0.11-0.01
		c-0.1-0.03-0.2-0.06-0.3-0.09c-0.03-0.05-0.02-0.09,0.01-0.13c0,0,0.04-0.02,0.04-0.02c0.07-0.08,0.15-0.13,0.25-0.14
		c0.1,0.02,0.18,0.08,0.23,0.17C28.81,16.67,28.8,16.74,28.77,16.81z"/>
	<path style="fill-rule:evenodd;clip-rule:evenodd;fill:#CBB7BA;" d="M27.35,16.79c0.23-0.04,0.39,0.05,0.49,0.25
		c-0.17,0-0.33,0-0.5,0C27.35,16.96,27.35,16.87,27.35,16.79z"/>
	<path style="fill-rule:evenodd;clip-rule:evenodd;fill:#CBB7BA;" d="M28.06,17.03c0.07-0.09,0.15-0.19,0.22-0.28
		C28.21,16.84,28.14,16.94,28.06,17.03z"/>
	<path style="fill-rule:evenodd;clip-rule:evenodd;fill:#CBB7BA;" d="M27.84,17.04c0.08,0.03,0.16,0.03,0.23-0.02
		C28.01,17.19,27.93,17.2,27.84,17.04z"/>
	<path style="fill-rule:evenodd;clip-rule:evenodd;fill:#CDC4C2;" d="M25.51,11.73c-0.31-0.03-0.29-0.27-0.31-0.48
		C25.31,11.41,25.41,11.57,25.51,11.73z"/>
	<path style="fill-rule:evenodd;clip-rule:evenodd;fill:#CDC4C2;" d="M26.39,11.29c-0.16-0.01-0.33-0.01-0.49-0.02
		C26.08,10.98,26.24,11.06,26.39,11.29z"/>
	<path style="fill-rule:evenodd;clip-rule:evenodd;fill:#CDC4C2;" d="M25.91,11.26c-0.07,0.09-0.14,0.18-0.21,0.26
		C25.77,11.44,25.84,11.35,25.91,11.26z"/>
	<path style="fill-rule:evenodd;clip-rule:evenodd;fill:#CDC4C2;" d="M26.61,12.03c0.02,0.07,0.03,0.15,0.01,0.22
		c-0.07-0.1-0.13-0.2-0.2-0.31C26.48,11.98,26.54,12.01,26.61,12.03z"/>
	<path style="fill-rule:evenodd;clip-rule:evenodd;fill:#D1C2C6;" d="M25.75,14.42c0.08-0.57-0.72-0.84-0.5-1.46
		c0.13,0.08,0.26,0.15,0.39,0.23c0.56,0.2,0.53,0.73,0.64,1.18C26.1,14.38,25.93,14.4,25.75,14.42z"/>
	<path style="fill-rule:evenodd;clip-rule:evenodd;fill:#312E2A;" d="M28.79,16.59l-0.12,0.01l-0.11-0.04
		c-0.14-0.16-0.15-0.32,0-0.49l-0.01,0.01c0.08,0.02,0.16,0.04,0.25,0.07C28.8,16.3,28.79,16.44,28.79,16.59z"/>
	<path style="fill-rule:evenodd;clip-rule:evenodd;fill:#393330;" d="M25.93,13.01c0.16-0.02,0.33-0.05,0.49-0.07
		C26.3,13.28,26.12,13.16,25.93,13.01z"/>
	<path style="fill-rule:evenodd;clip-rule:evenodd;fill:#695C58;" d="M28.56,16.07c0,0.16,0,0.32,0,0.49c-0.08,0-0.16,0-0.25,0.01
		c0.01-0.17,0.02-0.34,0.02-0.5C28.41,16.05,28.49,16.05,28.56,16.07z"/>
	<path style="fill-rule:evenodd;clip-rule:evenodd;fill:#1B231F;" d="M25.08,14.04c0.06-0.02,0.12-0.05,0.18-0.06
		c0.02,0,0.04,0.05,0.06,0.07c-0.06,0.02-0.12,0.05-0.18,0.06C25.13,14.12,25.1,14.07,25.08,14.04z"/>
</g>
</svg>
