<?xml version="1.0" encoding="utf-8"?>
<!-- Generator: Adobe Illustrator 16.0.0, SVG Export Plug-In . SVG Version: 6.00 Build 0)  -->
<!DOCTYPE svg PUBLIC "-//W3C//DTD SVG 1.1//EN" "http://www.w3.org/Graphics/SVG/1.1/DTD/svg11.dtd">
<svg version="1.1" id="Layer_1" xmlns="http://www.w3.org/2000/svg" xmlns:xlink="http://www.w3.org/1999/xlink" x="0px" y="0px"
	 width="960px" height="560px" viewBox="0 0 960 560" enable-background="new 0 0 960 560" xml:space="preserve">
<path fill="#222221" d="M516.75,332.05c-0.19-0.109-0.521-0.1-0.48-0.42c0.141-1.26-0.43-2.399-0.58-3.61
	c-0.479-3.81-0.89-7.659-1.609-11.409c-1.03-5.37-2.681-10.62-4.29-15.86c-0.43-1.4-0.99-3.08-0.59-4.35
	c0.55-1.76,0.06-2.92-0.851-4.18c-0.63-0.881-1.43-1.761-1.55-2.801c-0.27-2.311-1.18-4.38-2.03-6.48
	c-0.489-1.199-0.84-2.299,0.2-3.41c0.271-0.29,0.38-0.8,0.431-1.22c0.369-3.28-0.79-6.2-2.4-8.92c-0.46-0.78-1.46-1.32-2.521-0.33
	c-0.579,0.54-1.31,0.65-1.859-0.31c-0.75-1.31-1.931-2.21-3.24-2.94c-1.8-1-3.6-1.99-5.43-2.94c-1.78-0.92-3.63-1.64-5.681-1.31
	c-0.5,0.08-0.93,0.35-1.149-0.3c-0.2-0.58,0.1-0.91,0.64-1.17c7.04-3.38,11.75-8.45,12.061-16.69c0.01-0.37,0.22-0.54,0.439-0.78
	c1.21-1.37,1.26-3.44,0.03-4.16c-0.61-0.36-0.76-0.83-0.99-1.4c-1.689-4.15-3.29-8.36-7.479-10.83c-1.181-0.7-2.2-1.69-3.301-2.53
	c-0.18-0.13-0.38-0.28-0.59-0.34c-4.989-1.44-9.91-1.16-14.83,0.4c-6.35,2.01-9.729,6.65-11.43,12.78c-0.27,0.97-0.86,1.95-0.5,3
	c0.23,0.66,0.24,1.09-0.2,1.72c-0.56,0.81-1.3,1.9-0.52,2.83c0.71,0.85,1.39,1.72,2.09,2.58c0.21,0.07,0.16,0.33,0.3,0.42
	c0.19,0.09,0.29-0.03,0.38-0.17c0.05-0.16,0.061-0.31,0.03-0.47c-0.03-0.15-0.07-0.29-0.11-0.44c-0.04-0.2-0.08-0.39-0.17-0.57
	c-0.2-0.16-0.109-0.25,0.07-0.31c0.19-0.22,0.24-0.48,0.18-0.76c-0.04-0.16-0.09-0.32-0.149-0.48c-0.471-1.3-1.16-2.57-0.45-4
	c0.06-0.13,0.03-0.32-0.01-0.47c-0.5-1.91,0.31-3.58,0.93-5.31c0.61-1.72,2.2-2.71,2.95-4.29c0.069-0.09,0.13-0.18,0.189-0.28
	c0.54-0.68,0.971-1.51,2.021-1.49c0.16-0.01,0.31-0.05,0.439-0.15c0.07-0.06,0.141-0.13,0.2-0.21c0.03-0.04,0.061-0.07,0.09-0.11
	c0.061-0.06,0.13-0.12,0.2-0.18c0.08-0.04,0.16-0.08,0.24-0.11c0.189-0.02,0.38,0.05,0.56,0.07c0.16,0.02,0.311,0.02,0.471,0
	c0.229-0.04,0.489-0.13,0.699-0.01c0.851,0.46,1.44,0.04,1.99-0.55c0.22-0.23,0.44-0.46,0.65-0.7c0.39-0.45,0.84-0.47,1.25-0.08
	c0.67,0.63,1.5,1.06,2.09,1.77c0.04,0.03,0.08,0.07,0.13,0.11c0.1,0.06,0.21,0.12,0.32,0.16c0.439,0.12,0.83-0.03,1.21-0.23
	c0.649-0.3,1.1-1.2,1.83-1.02c1.52,0.38,2.89-0.43,4.359-0.38c0.74,0.03,1.5-0.22,2.16-0.64c0.37-0.23,0.75-0.26,1.13-0.01
	c1.54,1,3.021,2.04,4.3,3.4c1.61,1.71,2.46,3.87,3.78,5.75c0.46,0.65,0.66,1.45,0.91,2.21c0.11,0.3,0.18,0.62-0.05,0.91
	c-0.351,0.43-1.21,0.7-0.7,1.42c0.44,0.62,1.01-0.07,1.52-0.13c0.521-0.07,0.96,0.01,1.221,0.51c0.21,0.41,0.14,0.89-0.221,1.08
	c-1.439,0.77-1.56,1.95-1.199,3.35c0.069,0.26,0.02,0.55,0,0.83c-0.25,3.02-1.12,5.79-3.221,8.08c-0.08,0.08-0.14,0.16-0.21,0.24
	c-0.029,0.04-0.069,0.08-0.1,0.12c-0.061,0.07-0.13,0.14-0.19,0.22c-0.029,0.04-0.06,0.07-0.09,0.11c-0.06,0.07-0.12,0.13-0.18,0.2
	c-0.03,0.04-0.061,0.07-0.09,0.1c-0.061,0.06-0.11,0.12-0.17,0.18c-0.021,0.03-0.051,0.06-0.08,0.09
	c-0.061,0.05-0.12,0.11-0.17,0.17l-0.08,0.08c-0.05,0.06-0.11,0.11-0.16,0.17l-0.08,0.08c-0.05,0.05-0.11,0.1-0.16,0.16l-0.08,0.08
	c-0.06,0.05-0.12,0.1-0.17,0.16l-0.08,0.08c-0.06,0.06-0.12,0.11-0.17,0.17c-0.03,0.02-0.06,0.05-0.09,0.08
	c-0.06,0.06-0.12,0.11-0.18,0.17c-0.03,0.02-0.061,0.05-0.09,0.08c-0.061,0.06-0.131,0.11-0.19,0.17c-0.03,0.03-0.07,0.05-0.1,0.08
	c-0.07,0.05-0.15,0.11-0.221,0.16c-0.09,0.05-0.17,0.11-0.25,0.16c-0.89,0.58-1.79,1.15-2.77,1.6c-0.18,0.1-0.351,0.19-0.53,0.29
	c-0.13,0.07-0.25,0.13-0.38,0.2c-0.08,0.04-0.17,0.08-0.25,0.12c-0.13,0.05-0.27,0.09-0.4,0.13c-0.14,0.03-0.29,0.06-0.43,0.1
	c-0.15,0.05-0.32,0.06-0.47,0.1c-1.3,0.27-2.601,0.64-3.95,0.68c-0.18,0-0.35-0.01-0.52-0.01c-0.11-0.01-0.23-0.02-0.341-0.03
	c-0.229-0.06-0.449-0.11-0.68-0.15c-0.29-0.04-0.59-0.04-0.88-0.05c-0.18-0.01-0.36-0.02-0.54-0.02c-0.65,0-1.3,0.02-1.95-0.01
	c-0.17,0.01-0.33-0.03-0.5-0.07c-0.21-0.05-0.42-0.1-0.64-0.14c-0.16-0.04-0.311-0.09-0.471-0.13c-0.21-0.07-0.43-0.11-0.64-0.17
	c-4.92-1.11-8.229-4.16-10.37-8.61c-0.45-0.47-0.25-1.47-1.229-1.52c-0.04,0.24-0.08,0.48,0.06,0.71c-0.1,0.84,0.14,1.56,0.66,2.22
	c1.16,1.47,2.38,2.9,3.43,4.44c1.49,2.17,3.65,3.19,6.061,3.85c2.05,0.56,4.08,1.2,6.25,0.98c0.38-0.04,0.81,0,0.87,0.43
	c0.069,0.46,0.1,1.02-0.11,1.39c-0.16,0.29-0.63,0.03-0.94-0.18c-0.55-0.36-1.149-0.21-1.729-0.12c-3.12,0.5-5.021,2.63-6.76,5.01
	c-0.521,0.72-0.931,2.2-2.24,0.75c-0.05-0.06-0.23-0.05-0.32-0.01c-1.03,0.5-2.09,0.94-2.649,2.07c-0.311,0.63-0.32,1.36-0.79,1.94
	c-1.931,2.35-2.42,4.93-0.891,7.65c0.54,0.97,0.36,1.81-0.1,2.57c-0.73,1.2-0.94,2.521-1.12,3.83c-0.1,0.721-0.26,1.09-1,1.35
	c-2.16,0.781-3.8,2.24-5.11,4.131c-0.93,1.34,0.051,2.42,0.28,3.609c0.36,1.92,0.14,3.68-0.65,5.551
	c-0.949,2.25-1.729,4.59-2.75,6.829c-0.47,1.011-1.029,2.03-1.369,3.051c-0.561,1.649-1.061,3.319-1.69,4.96
	c-1.01,2.609-1.46,5.33-1.91,8.109c-0.46,2.851-1.229,6.17-4.31,8.07c-0.95,0.58-1.21,2.34-0.91,3.56
	c0.24,0.99,1.52,1.16,2.49,1.311c1.05,0.17,2.31-0.01,2.37-1.21c0.1-1.851,1.22-3.23,1.699-4.88c0.45-1.561,1.681-2.84,1.471-4.67
	c-0.141-1.24,1.399-1.721,1.739-2.82c2.131-6.85,4.69-13.55,7.48-20.16c0.66-1.569,1.81-1.92,3.2-0.97
	c1.7,1.16,2.52,1.13,4.149-0.26c0.311-0.25,0.61-0.291,0.971-0.36c2.909-0.56,4.439-3.3,3.399-6.03c-0.26-0.66-0.55-1.33-0.68-2.02
	c-0.32-1.69-1.28-2.961-2.73-3.711c-0.84-0.43-0.76-0.84-0.54-1.489c0.36-1.06,0.71-2.11,1.07-3.17c0.11-0.31-0.01-0.841,0.521-0.79
	c0.84,0.08,2.319,0.109,2.399,0.43c0.32,1.36,0.41,2.85,0.18,4.221c-0.09,0.5-0.18,0.91,0.011,1.35c0.41,0.98,1.06,1.8,1.939,2.391
	c0.61,0.409,0.95,0.909,1.07,1.629c0.64,3.86,1.39,7.711,1.96,11.59c0.89,6.051,1.83,12.091,3.78,17.91
	c0.13,0.381,0.359,0.75,0.08,1.24c-1.511,2.58-2.551,5.33-2.891,8.33c-0.2,1.8,0.5,3.28,1.76,3.44c3.16,0.409,5.78-1.061,7.03-3.99
	c0.641-1.51,1.021-3.101,1.04-4.73c0.01-0.779,0.25-0.84,0.86-0.6c0.85,0.34,1.7,0.12,2.399-0.33c0.99-0.64,1.801-1.74,3.17-0.72
	c0.131,0.09,0.54-0.01,0.671-0.16c0.77-0.84,2.399-0.17,2.8-1.63c0.02-0.061,0.16-0.13,0.2-0.11c1.079,0.54,1.81-0.16,2.75-0.53
	c1.05-0.409,1.39-0.92,1.359-1.869c-0.03-1.15-0.21-2.25-0.85-3.29c-1.5-2.44-0.92-5.601-2.71-7.98
	c-0.311-0.42-0.33-1.15-0.811-1.53c-0.83-0.649-1.01-1.43-0.729-2.43c0.41-1.46,1.55-2.83,0.55-4.521
	c-0.23-0.379,0.33-0.64,0.71-0.789c0.48-0.19,0.62,0.16,0.79,0.49c0.72,1.369,2.01,1.75,3.27,1.31c1.61-0.56,3.381-0.87,4.771-2
	c0.78-0.64,1.06-0.32,1.229,0.53c1.4,7.039,3.811,13.859,4.391,21.06c0.03,0.33,0.08,0.78,0.63,0.64c1.01-0.26,1.09,0.44,1.2,1.13
	c0.41,2.5,0.689,5.04,1.3,7.49c0.3,1.21,0.34,2.15-0.2,3.28c-0.6,1.26,0.24,2.21,1.55,2.37c1.351,0.16,2.11-0.5,2.95-1.351
	C518.54,335.27,518.37,333.01,516.75,332.05z M486.7,320.31c-0.061,0.521-0.33,1.23-0.76,1.2c-0.48-0.029-0.171-0.729-0.171-1.12
	c-0.05-2.79-0.17-5.569-0.489-8.34c-0.04-0.33-0.23-0.8,0.14-0.99c0.44-0.229,0.55,0.33,0.811,0.54c1.3,1.03,0.819,2.511,0.979,3.86
	C487.04,317.08,486.89,318.7,486.7,320.31z"/>
<path fill="#54504D" d="M459.83,248.77c-0.021,0.26-0.04,0.52-0.05,0.78c-0.16-0.57-0.32-1.13-0.48-1.7
	c0.05-0.02,0.11-0.04,0.16-0.06C459.87,248.01,460.07,248.3,459.83,248.77z"/>
<path fill="#54504D" d="M458.85,247.11c0.08-0.09,0.17-0.18,0.25-0.28c0.58,0.22,0.5,0.59,0.221,1l-0.021,0.02
	C459.15,247.61,459,247.36,458.85,247.11z"/>
<path fill="#54504D" d="M458.54,246.67c0.24,0.05,0.33,0.2,0.31,0.43C458.75,246.96,458.64,246.82,458.54,246.67z"/>
<polygon fill="#E1C07C" points="507.25,247.23 507.18,247.26 507.19,247.19 "/>
<path fill="#EFF0E9" d="M468.89,267.46c-0.01-0.08,0.021-0.14,0.101-0.18c0.029-0.09,0.09-0.16,0.18-0.21l0.01-0.02
	c0.061-0.09,0.141-0.17,0.21-0.25c1.29-1.49,2.62-2.9,4.83-2.91c0.67,0,1.101-0.01,1.08,0.9c-0.03,1.07,0.25,2.13,0.7,3.13
	c1.06,2.37,3.2,3.18,5.54,2.03c2.65-1.3,4.16-3.45,4.32-6.41c0.05-0.91,0.47-0.84,1.06-0.75c2.28,0.37,4.061,1.78,6,2.86
	c0.1,0.05,0.16,0.17,0.29,0.15l-0.01-0.01c0.28,0.67-0.21,1-0.66,1.21c-3.83,1.85-5.43,6.76-4.17,11.18
	c0.46,1.61,0.729,3.27,1.04,4.91c0.42,2.18,1.1,4.24,2.399,6.07c0.381,0.529,0.91,1.09,0.37,1.83c-4.76,2.439-9.8,3.33-15.109,2.68
	c-0.24-0.5,0.01-0.93,0.17-1.38c1.01-2.899,1.41-5.86,0.979-8.94c-0.229-1.649-0.08-3.33-0.29-5c-0.39-3.14-1.6-5.81-4.06-7.86
	c-1.14-0.95-2.47-1.42-3.91-1.65c-0.58-0.09-1.21-0.08-1.62-0.62c0.04-0.07,0.09-0.14,0.13-0.22c0.061-0.09,0.13-0.17,0.2-0.25v0.01
	C468.77,267.68,468.86,267.58,468.89,267.46z"/>
<path fill="#D98A5A" d="M475.14,227.63c0.841-0.72,1.66-0.98,2.91-1.09c1.82-0.16,3.94,0.12,5.601-1.15
	c0.529-0.41,0.899-0.07,1.29,0.17c2.01,1.25,3.819,2.7,5.239,4.65c1.59,2.19,2.88,4.52,3.931,6.99c0.279,0.66,0.409,1.2-0.551,1.41
	c-0.3,0.07-0.76,0.38-0.52,0.78c0.25,0.43,0.54-0.05,0.79-0.17c0.82-0.38,1.66-0.62,2.17,0.36s0.061,1.6-0.91,2.07
	c-0.62,0.3-0.819,0.81-0.68,1.7c0.46,3.09-0.271,6-2.021,8.62c-0.39,0.59-0.909,1.1-1.369,1.64c-0.091,0.07-0.19,0.14-0.25,0.24
	l0.01-0.01c-0.101,0.07-0.181,0.15-0.25,0.25l0.01-0.01c-0.1,0.07-0.19,0.15-0.25,0.25l0.01-0.02c-0.1,0.07-0.189,0.15-0.25,0.26
	l0.021-0.02c-0.11,0.06-0.2,0.15-0.25,0.26l0.02-0.02c-0.109,0.06-0.2,0.15-0.25,0.26l0.021-0.02c-0.12,0.06-0.2,0.14-0.261,0.26
	l0.021-0.02c-0.12,0.06-0.2,0.14-0.26,0.26l0.02-0.02c-0.12,0.05-0.2,0.14-0.26,0.26l0.02-0.02c-0.12,0.05-0.199,0.14-0.26,0.25
	l0.01-0.02c-0.109,0.06-0.189,0.14-0.26,0.25l0.01-0.01c-0.1,0.06-0.18,0.14-0.25,0.23l-0.01,0.01c-0.71,0.22-0.76-0.33-0.66-0.72
	c0.67-2.53-0.89-3.79-2.68-5c-0.78-0.52-1.81-0.93-1.78-2.15c0.521-0.32,0.8,0.14,1.12,0.38c0.91,0.69,1.89,1.19,3.03,1.34
	c1.67,0.21,3.41-0.83,3.8-2.44c0.49-2,0.28-3.89-1.32-5.42c-0.51-0.49-1.04-0.85-1.77-0.84c-0.28-0.31-0.19-0.67-0.14-1.02
	c0.26-1.84-0.12-3.56-1.011-5.18c-0.29-0.53-0.58-1.06-0.239-1.68c0.069-0.14,0.13-0.32,0-0.44c-0.19-0.18-0.381-0.02-0.53,0.09
	c-0.851,0.7-1.07,0.22-1.16-0.59c-0.04-0.34,0.05-0.86-0.4-0.88c-0.569-0.03-0.43,0.55-0.51,0.91c-0.08,0.38-0.05,0.89-0.58,0.9
	c-0.569,0.01-0.81-0.43-0.89-0.94c-0.09-0.54,0.14-1.35-0.92-1.03c-0.54,0.2-0.931-0.09-1.3-0.4c-1.381-1.16-2.82-2.21-4.65-2.59
	C474.91,228.66,474.48,228.28,475.14,227.63z"/>
<path fill="#D6CFCC" d="M508.01,298.221c0.49,0.029,0.62,0.319,0.71,0.629c1.521,5.59,3.08,11.16,4.511,16.771
	c0.39,1.53,0.119,3.16,0.22,4.75c0.069,1.1-1.49,0.93-2.311,1.28c-0.72,0.31-0.56-0.65-0.63-0.971c-1.43-6.27-2.8-12.55-4.17-18.83
	c-0.1-0.479-0.76-1.07-0.3-1.379C506.94,299.88,507.37,298.93,508.01,298.221z"/>
<path fill="#E4E4DB" d="M468.35,268.21c2.431,0.33,4.721,0.82,6.58,2.72c1.92,1.96,2.95,4.27,3.311,6.87
	c0.33,2.36,0.37,4.75,0.52,7.14c0.19,3.051-0.49,5.931-1.67,8.721c-0.68,0.16-1.27-0.24-1.92-0.28c-0.37-0.45-0.18-0.92,0.02-1.351
	c1.311-2.84,1.471-5.869,1.23-8.899c-0.19-2.37-0.13-4.78-0.98-7.07c-0.829-2.24-2.14-3.99-4.409-4.89l0.02,0.02
	c-0.979-0.14-1.97-0.13-2.96-0.14c-0.5-0.01-1.08,0.13-1.1-0.67v0.01c0.109-0.08,0.199-0.17,0.22-0.31
	C467.43,269.36,467.84,268.76,468.35,268.21z"/>
<path fill="#E3E4DB" d="M492.19,290.98c0.079-0.51-0.131-0.92-0.431-1.311c-2.04-2.609-2.609-5.76-3.14-8.891
	c-0.32-1.909-1.061-3.729-1.01-5.729c0.08-3.69,1.51-6.51,4.779-8.33c0.4-0.22,0.78-0.42,0.82-0.93c0.63,0.34,1.25,0.67,1.88,1.01
	c0.09,0.11,0.18,0.2,0.33,0.21c0.07-0.02,0.12,0,0.14,0.07c0.091,0.07,0.171,0.14,0.28,0.19c0.08,0.05,0.17,0.11,0.25,0.16
	c0.05,0.74-0.56,0.82-1.02,0.91c-3.34,0.7-5.46,4.78-4.75,7.93c0.43,1.94,0.6,3.94,1,5.89c0.479,2.33,1.18,4.55,2.699,6.439
	c0.24,0.301,0.54,0.61,0.37,1.07c-0.08,0.061-0.17,0.12-0.25,0.18c-0.09,0.061-0.18,0.131-0.27,0.19
	C493.32,290.35,492.76,290.67,492.19,290.98z"/>
<path fill="#D98B5B" d="M466.82,227.23c0.41-0.12,0.77-0.83,1.229,0c0.25,0.45,0.641,0.13,0.88-0.12c0.38-0.4,0.79-0.8,1.08-1.26
	c0.431-0.68,0.94-0.77,1.431-0.21c0.67,0.77,1.79,1.04,2.229,2.05l-0.06,0.09l0.09-0.06c0.09,0.06,0.17,0.11,0.26,0.17
	c0.18,0.16,0.38,0.34,0.14,0.59c-0.17,0.17-0.409,0.28-0.64,0.3c-2.67,0.25-4.62,1.74-6.31,3.68c-0.341,0.28-0.681,0.56-1.08,0.74
	c-0.601,0.27-1.12,0.33-1.141-0.57c-0.02-0.77-0.319-0.71-0.77-0.28c-0.24,0.23-0.54,0.39-0.87,0.29c-1.07-0.32-1.02,0.33-0.93,1.04
	c0.029,0.24,0.08,0.47,0.06,0.71c-0.04,0.52-0.27,0.96-0.81,1.05c-0.561,0.09-0.58-0.4-0.7-0.78c-0.061-0.21-0.021-0.55-0.36-0.51
	c-0.2,0.02-0.239,0.29-0.31,0.47c-0.03,0.08-0.07,0.15-0.07,0.23c-0.03,2.26-0.35,4.56,0.59,6.73c0.311,0.72,0.37,1.46,0.38,2.21
	c-0.899,0.62-1.29,1.68-2.029,2.43c-0.12,0.03-0.21-0.01-0.261-0.12c-0.02-0.21-0.04-0.42-0.05-0.63c-0.06-0.1-0.06-0.19,0.011-0.28
	c0.079-0.23,0.159-0.45,0.229-0.68c-0.05-0.09-0.11-0.17-0.17-0.25c-1.73-4.44-0.92-8.65,1.67-12.42c0.48-0.7,0.94-1.75,1.83-2.25
	c0.07-0.09,0.16-0.12,0.27-0.08c0.091,0.06,0.171,0.12,0.25,0.2c0.54,0.43,1.04,0.12,1.53-0.1c0.46-0.21,0.9-0.5,1.42-0.52
	c1.03-0.03,0.92-0.58,0.58-1.24c-0.03-0.11-0.04-0.22-0.02-0.33C466.51,227.34,466.66,227.28,466.82,227.23z"/>
<path fill="#D98B5A" d="M460.88,287.45c-0.689-0.5-0.81-1.29-0.55-1.94c0.9-2.289,1.28-4.76,2.46-6.97
	c0.479-0.9,0.95-1.04,1.86-0.84c0.649,0.15,1.27,0.9,2.069,0.21c0.16-0.13,0.24,0.27,0.15,0.52c-1.24,3.78-1.75,7.8-3.75,11.32
	c-0.25,0.439-0.21,0.811,0.02,1.23c0.271,0.5,0.69,0.31,1.051,0.25c1.38-0.211,2.569,0.59,2.859,1.93
	c0.061,0.29,0.101,0.54-0.27,0.369c-1.42-0.639-2.57,0.441-3.86,0.561c-0.82-0.22-0.86-0.92-0.8-1.54
	C462.29,290.7,461.38,289.13,460.88,287.45z"/>
<path fill="#C0C2B1" d="M472.47,292.279c-0.87-1.18-2.609-1.75-2.38-3.719c0.15-1.32,0.16-2.641-0.1-4.031
	c-0.33-1.77,0.24-3.689,0.729-5.479c0.42-1.54,1.09-3.02-0.25-4.47c-0.46-0.5,0.011-0.95,0.34-1.35c1.431,0.8,2.32,2.06,2.79,3.58
	c0.44,1.4,0.7,2.85,0.73,4.34c0.04,2.18,0.36,4.359,0,6.55c-0.2,1.22-0.35,2.44-0.93,3.56C473.19,291.68,473,292.141,472.47,292.279
	z"/>
<path fill="#8F9A5A" d="M482.6,324.18c-0.35,0.391-0.79,0.17-1.199,0.19c-0.15-0.26-0.16-0.55-0.101-0.811
	c0.521-2.109,0-4.119-0.64-6.079c-1.03-3.15-1.69-6.37-2.18-9.641c-0.221-1.449-0.171-2.93-0.29-4.4
	c-0.24-2.89-1.421-5.08-4.061-6.399c-0.25-0.13-0.479-0.29-0.689-0.47c-0.061-0.17-0.12-0.34-0.171-0.5
	c0.44-0.76,1.091-0.521,1.681-0.28c1.09,0.44,1.939,1.22,2.77,2.04c1.101,1.09,1.33,1.05,2.03-0.35c0.42-0.83,0.89-1.601,1.63-2.17
	c0.17-0.041,0.35-0.08,0.521-0.131c0.31,0.08,0.609,0.11,0.92-0.02c0.33-0.051,0.649-0.1,0.979-0.15
	c0.25,0.631-0.25,0.881-0.63,1.12c-1.97,1.229-2.62,3.12-2.34,5.25c0.38,2.8,0.96,5.59,3.16,7.67c0.029,0.55,0.06,1.101,0.09,1.66
	c-0.45,0.37-0.82,0.08-1.19-0.14c-0.37-0.23-0.64-0.601-0.989-0.86c-0.421-0.31-0.641-1.16-1.23-0.88
	c-0.46,0.21-0.15,0.95-0.14,1.45c0.029,1.62,0.59,3.109,1.069,4.63c0.79,2.54,1.71,5.06,1.57,7.8
	C483.16,323.26,483.15,323.82,482.6,324.18z"/>
<path fill="#D6CFCC" d="M451.4,315.04c-0.641,1.97-1.21,3.96-2.12,5.83c-0.181-0.03-0.311-0.13-0.41-0.28
	c-0.05-0.1-0.09-0.22-0.12-0.33c-0.13-0.43,0.1-1.05-0.45-1.25c-0.58-0.21-0.67,0.58-1.13,0.7c-0.12,0.01-0.22-0.03-0.3-0.11
	c1.79-5.439,3.66-10.85,6.21-15.99c0.58-1.18,1.05-2.409,1.54-3.629c0.29-0.74,0.61-0.76,1.07-0.15c0.729,0.98,1.06,1.8,0.449,3.17
	c-1.52,3.37-2.68,6.89-4,10.35c-0.12,0.33-0.33,0.62-0.489,0.931c-0.04-0.03-0.091-0.061-0.131-0.09
	c-0.229-0.21-0.39-0.811-0.77-0.42c-0.46,0.47-0.09,0.85,0.42,1.06C451.26,314.87,451.34,314.95,451.4,315.04z"/>
<path fill="#D98A60" d="M472.3,259.54c-0.09-0.04-0.189-0.09-0.28-0.13c-0.18-0.28-0.43-0.17-0.67-0.12
	c-5.04-1.12-8.52-4.13-10.6-8.81c0.82-0.17,1.42,0.4,2.12,0.63c2.359,0.75,4.35-0.17,5.05-2.39c0.35-1.11,0.17-2.11-0.58-3.01
	c-0.17-0.54-0.899-1.08-0.03-1.64c0.641-0.04,0.91,0.41,1.141,0.87c0.859,1.73,1.1,3.53,0.51,5.4c-0.18,0.57-0.42,1.11-0.56,1.68
	c-0.36,1.26,0.319,2.16,1.1,2.98c1.07,1.13,2.17,2.23,3.27,3.33c0.37,0.36,0.931,0.74,0.471,1.41c-0.08-0.05-0.16-0.09-0.25-0.14
	C472.78,259.4,472.54,259.47,472.3,259.54z"/>
<path fill="#646D43" d="M478.99,324.19c-1.21-1.881-1.521-4.07-2.03-6.181c-0.71-2.88-1.54-5.77-1.8-8.7
	c-0.29-3.31-0.96-6.56-1.21-9.859c0.75-0.36,1.109,0.22,1.47,0.659c0.78,0.961,1.15,2.121,1.25,3.311
	c0.47,5.38,1.48,10.64,3.01,15.82c0.34,1.149,0.391,2.359,0.13,3.55C479.67,323.33,479.54,323.88,478.99,324.19z"/>
<path fill="#9AA45F" d="M482.6,324.18c0.49-1.699,0.301-3.399-0.14-5.06c-0.58-2.19-1.229-4.36-1.93-6.51
	c-0.38-1.16-0.23-2.37-0.46-3.54c-0.07-0.33,0.02-0.87,0.43-1.03c0.41-0.17,0.57,0.3,0.83,0.53c0.87,0.77,1.43,1.979,2.77,2.14
	c0.65,3.96,0.78,7.95,0.61,11.94C484.67,323.64,483.29,323.62,482.6,324.18z"/>
<path fill="#D5D5C9" d="M494.4,289.67c-2.94-3.3-3.46-7.449-4.131-11.57c-0.35-2.13-0.75-4.22,0.261-6.28
	c0.96-1.95,2.359-3.37,4.569-3.83c0.4-0.08,0.771-0.2,1-0.58c0.61,0.24,1.03,0.71,1.431,1.19c0.109,0.28,0.12,0.66-0.181,0.7
	c-1.34,0.17-2.54,0.95-3.939,0.83h-0.01c-0.23-0.17-0.471-0.15-0.721-0.03c-0.09,0.09-0.18,0.19-0.279,0.28
	c-0.061,0.09-0.051,0.17,0.02,0.24l0,0c0.15,0.12,0.1,0.35,0.24,0.47l0,0c0.25,0.34,0.149,0.7-0.03,1.01
	c-0.71,1.24-0.75,2.58-0.56,3.94c0.33,2.32,0.68,4.64,1.17,6.931c0.37,1.729,0.99,3.35,2.2,4.699c0.239,0.26,0.479,0.551,0.35,0.96
	C495.42,289.109,494.97,289.48,494.4,289.67z"/>
<path fill="#879156" d="M484,309.04c-1.37-0.4-1.82-1.62-2.26-2.74c-0.75-1.92-1.391-3.92-1.271-6.01
	c0.101-1.851,0.73-3.511,2.561-4.42c0.37-0.181,0.67-0.431,0.779-0.86c0.86-0.13,1.721-0.25,2.591-0.38
	c2.18-0.03,4.25,1.82,4.58,4.08c0.239,1.261,0.6,2.431,1.789,3.19c0.681,0.43,0.57,2.129-0.029,2.74
	c-0.57,0.59-0.98,1.34-1.681,1.799c-0.109,0.041-0.199,0.11-0.29,0.19c-0.079,0.021-0.159,0.05-0.239,0.07
	c-0.5-0.511-0.28-1.12-0.2-1.7c0.3-2.25-0.36-4.24-1.561-6.109c-1.069-1.681-2.68-2.131-4.539-2.041
	c-0.33-0.039-0.23-0.66-0.69-0.529c-0.11,0.149-0.1,0.34-0.18,0.5c-1.891,1.729-1.95,3.869-1.46,6.17
	c0.369,1.73,0.899,3.38,1.899,4.859l0,0c0.2,0.2,0.04,0.5,0.19,0.71C484,308.71,484,308.88,484,309.04z"/>
<path fill="#616A41" d="M488.12,307.36c-1.851,0.04-2.51-0.46-2.91-2.261c-0.53-2.34-1.18-4.68-0.47-7.109
	c0.8-0.57,1.529-0.27,2.21,0.22c2.24,1.601,3.29,5.36,2.24,7.88C488.95,306.641,488.56,307.02,488.12,307.36z"/>
<path fill="#C6C7B8" d="M495.81,288.66c-3.729-5.37-5.02-11.17-3.13-17.54c0.351,0.19,0.551,0.49,0.46,0.88
	c-0.59,2.88,0.23,5.63,0.83,8.38c0.221,1.03,0.91,1.82,1.82,2.41C497.37,283.83,497.37,287.63,495.81,288.66z"/>
<path fill="#DC9869" d="M502.77,297.32c-0.09,0.05-0.18,0.09-0.27,0.14c-0.11-0.01-0.18,0.04-0.2,0.149
	c-0.03,0.131-0.06,0.271-0.09,0.4c-0.79,0.33-0.96,0.311-1.37-0.23c0.05-3.01-1.25-4.379-4.35-4.59
	c-0.221-0.01-0.53,0.121-0.63-0.16c-0.12-0.319,0.18-0.5,0.39-0.67c0.63-0.489,1.4-0.619,2-0.17c0.84,0.621,1.03,0.041,1.27-0.51
	c0.811-1.83,0.62-3.71,0.25-5.59c-0.05-0.27-0.069-0.54-0.1-0.82c0.93-1.209,1.29-2.77,2.38-3.879c0.54,0.329,1.59,0.1,1.36,1.26
	c-0.03,0.68-0.22,1.3-0.54,1.92c-0.851,1.619-0.92,3.43-1.18,5.199c-0.33,2.26-0.181,4.431,1.069,6.431
	C502.98,296.55,503.06,296.939,502.77,297.32z"/>
<path fill="#DC9667" d="M466.99,232.26c1.609-2.06,3.6-3.49,6.29-3.78c0.25-0.03,0.939,0.17,0.689-0.58
	c0.391-0.09,0.78-0.18,1.17-0.27c-0.189,0.43-0.189,0.76,0.391,0.85c2.06,0.33,3.62,1.56,5.1,2.9c0.29,0.26,0.55,0.26,0.87,0.17
	c0.27,0.98-0.24,1.85-0.43,2.76c-0.07,0.36-0.42,0.58-0.811,0.61c-0.489,0.03-0.54-0.38-0.66-0.7c-0.109-0.3-0.21-0.6-0.39-0.86
	c-1.64-1.62-3.41-2.86-5.92-2.49c-1.24,0.18-2.25,0.75-3.25,1.42c-0.45,0.31-0.87,0.74-1.51,0.56c-0.11-0.03-0.221-0.07-0.32-0.11
	c-0.16-0.05-0.32-0.11-0.479-0.15C467.47,232.52,467.19,232.49,466.99,232.26z"/>
<path fill="#CECFC1" d="M472.47,292.279c1.67-2.879,1.86-6,1.53-9.229c-0.15-1.5,0-3.02-0.31-4.52c-0.4-1.88-1.021-3.59-2.66-4.76
	c-0.13-0.1-0.15-0.36-0.221-0.54c-0.02-0.08,0.011-0.14,0.08-0.19c0.051-0.1,0.141-0.18,0.17-0.29c0.07-0.15,0.15-0.29,0.221-0.44
	c0.66-0.23,1.05,0.23,1.46,0.59c2.05,1.82,2.74,4.28,2.95,6.86c0.22,2.811,0.47,5.641,0.06,8.46c-0.25,1.71-0.65,3.36-1.78,4.74
	c-0.47,0.01-0.819-0.271-1.2-0.49C472.67,292.391,472.6,292.279,472.47,292.279L472.47,292.279z"/>
<path fill="#D8D9CD" d="M473.96,292.95c0.59-1.921,1.5-3.72,1.521-5.82c0.039-4.101,0.399-8.23-1.49-12.08
	c-0.59-1.22-1.51-2.13-2.721-2.74c0.131-0.43-0.029-0.79-0.25-1.14c2.15-0.02,3.07,1.61,4.011,3.11c1.029,1.65,1.41,3.55,1.529,5.45
	c0.221,3.36,0.66,6.741-0.22,10.07c-0.32,1.22-0.78,2.39-1.18,3.591C474.76,293.24,474.36,293.09,473.96,292.95z"/>
<path fill="#D37855" d="M467.43,245.66c0.46,0.04,0.65,0.3,0.79,0.74c0.511,1.61,0.09,3-1,4.19c-1.08,1.2-2.54,1.29-3.979,0.95
	c-0.87-0.2-1.67-0.71-2.5-1.08c-0.3-0.57-0.61-1.14-0.91-1.71c-0.17-0.31-0.34-0.62-0.51-0.93c-0.061-0.34,0.149-0.73-0.221-1
	c-0.029-0.14-0.05-0.28-0.08-0.41c-0.05-0.1-0.029-0.18,0.051-0.25c0.63-0.74,0.449-2.18,1.92-2.17
	c1.069,0.04,1.229,0.77,1.189,1.61c-0.02,0.42-0.359,0.8-0.109,1.24c-0.051,0.91,0.09,1.73,0.89,2.34c0.91,0.7,1.87,0.78,2.771,0.18
	c0.92-0.62,1.279-1.63,0.97-2.71c-0.101-0.36-0.45-0.7-0.101-1.11C466.9,245.41,467.18,245.43,467.43,245.66z"/>
<path fill="#D88A5A" d="M478.17,263.27c-0.689-1.66,0.3-1.88,1.76-1.78c0.46,0.03,0.931-0.18,1.4-0.28
	c0.189-0.04,0.53-0.14,0.55-0.11c0.41,0.97,1.12,1.76,1.63,2.63c0.521,0.88-1.49,2.69-3.2,3c-1.27,0.23-2.069-0.34-2.63-1.53
	C477.27,264.34,478.32,264.09,478.17,263.27z"/>
<path fill="#737D4B" d="M478.99,324.19c1.029-2.311,0.47-4.561-0.21-6.83c-1.3-4.391-2-8.9-2.45-13.45
	c-0.17-1.75-0.38-3.631-2.39-4.45c-0.33-0.36-0.2-0.8-0.2-1.21c0.83-0.48,1.37,0.09,1.87,0.59c1.43,1.45,1.909,3.33,2.04,5.25
	c0.31,4.76,1.189,9.4,2.619,13.93c0.49,1.561,0.61,3.131,0.511,4.73c-0.04,0.64-0.141,1.29-0.8,1.64
	C479.63,324.4,479.26,324.52,478.99,324.19z"/>
<path fill="#EAC0A3" d="M492.9,322.49c-0.2-0.01-0.551-0.08-0.58-0.01c-0.59,1.39-1.71,0.59-2.61,0.789
	c-0.84,0.19-1.62,0.86-2.6,0.841c-0.301,0-0.69,0.199-0.87-0.13c-0.15-0.28-0.05-0.641,0.18-0.891c1.14-1.27,1.51-2.83,1.73-4.45
	c0.979-0.62,1.85-0.1,2.67,0.33c1.45,0.771,2.46,1.96,3.04,3.51c0.01,0.4,0.02,0.811,0.029,1.21c-0.079,0.051-0.149,0.051-0.229,0
	c-0.101-0.14-0.2-0.27-0.3-0.409c-0.021-0.141-0.101-0.23-0.2-0.311l-0.01-0.02C493.02,322.83,493.07,322.6,492.9,322.49z"/>
<path fill="#934123" d="M504.21,277.65c0,0.16,0.021,0.33-0.02,0.48c-0.181,0.7-0.391,1.62-1.08,1.71
	c-0.601,0.08-0.49-0.9-0.681-1.4c-0.729-1.89-1.75-3.67-2.21-5.66c-0.109-0.49,1.141-2.6,1.601-2.7c0.3-0.07,0.439,0.16,0.55,0.35
	c0.979,1.6,1.91,3.23,1.84,5.2C504.37,276.3,504.39,276.97,504.21,277.65z"/>
<path fill="#4B79BA" d="M496.77,298.55c-0.21,1.08-0.97,1.72-1.869,2.171c-1.23,0.619-2.28,0.18-2.591-1.141
	c-0.31-1.34-0.3-2.7,0.75-3.801c0.5-0.529,1.091-0.799,1.82-0.42c0.36,0.19,0.68,0.33,1.08-0.01c0.58-0.49,0.73-0.039,0.79,0.461
	C496.96,296.73,496.94,297.641,496.77,298.55z"/>
<path fill="#D98B5C" d="M502.05,281.4c-0.689,1.35-0.97,2.959-2.38,3.879c-0.05-0.049-0.06-0.1-0.04-0.17
	c-0.09-0.17-0.08-0.379-0.18-0.539c-1-1.75-1.181-3.73-1.61-5.64c-0.189-0.83,0.561-0.63,0.891-0.82c2.18-1.29,2.17-1.27,2.64,1.28
	C501.48,280.08,501.81,280.73,502.05,281.4z"/>
<path fill="#DEA075" d="M502.77,297.32c-0.06-0.271-0.06-0.58-0.199-0.791c-1.681-2.399-1.46-5.029-1.141-7.75
	c0.261-2.199,0.94-4.199,1.971-6.119c0.029,0.311,0.06,0.63,0.079,0.939c0.221,0.36,0.04,0.771,0.131,1.141
	c0.01,0.34,0.02,0.68,0.04,1.02c-0.75,2.24-1.131,4.54-1.011,6.9c0.101,2.04,1.181,3.57,2.681,4.859
	c-0.181,1.15-0.36,2.301-1.431,3.03c-0.16,0.11-0.39,0.28-0.51,0.229c-0.28-0.119-0.13-0.399-0.07-0.609
	c0.271-0.9,0.301-1.79-0.1-2.67c-0.09-0.08-0.17-0.17-0.29-0.189l-0.08,0.029L502.77,297.32z"/>
<path fill="#DFA074" d="M482.85,259.29c-1.5,0.39-2.989,0.83-4.56,0.76c-0.01-0.38,0.26-0.32,0.49-0.32
	c-0.21-0.04-0.431-0.04-0.641-0.07c-2.42-0.45-4.31-1.76-5.88-3.6c-0.05-0.12-0.04-0.24,0.021-0.35c0.14-0.13,0.319-0.19,0.5-0.21
	c0.88-0.02,1.439,0.57,2.069,1.05c1.971,1.5,4.091,2.26,6.561,1.3c1.5-0.58,2.56-1.64,3.08-3.13c0.51-1.46-0.04-2.69-1.05-3.8
	c-0.61-0.67-1.521-1.21-1.37-2.34c0.199-0.11,0.439-0.09,0.55,0.07c0.74,1.06,1.83,1.77,2.68,2.71c1.23,1.34,1.3,3.13,0.41,4.77
	C485.01,257.41,483.9,258.32,482.85,259.29z"/>
<path fill="#DD996B" d="M460.88,287.45c0.91,1.42,1.74,2.85,1.57,4.649c-0.07,0.69-0.15,1.44,0.46,1.99
	c-1.23,0.87-1.41,2.07-1.08,3.43c-0.49,0.121-0.93,0.291-1.29,0.701c-0.24,0.279-0.56,0.569-1,0.27c0.08-1.03,0.17-2.061,0.25-3.09
	c-0.28-0.351-0.22-0.74-0.12-1.131c0.38-1.379,0.3-2.729-0.16-4.09c-0.189-0.57-0.5-1.279,0.51-1.479
	C461.17,288.87,461.06,288.18,460.88,287.45z"/>
<path fill="#717B4A" d="M488.12,307.36c1.75-2.66,1.42-5.24-0.29-7.761c-0.73-1.08-1.68-1.82-3.1-1.609
	c0.109-0.5-0.221-0.811-0.5-1.141c1.829-0.72,3.489-0.16,4.779,1.78c1.38,2.07,2.15,4.32,1.55,6.87
	c-0.09,0.38-0.029,0.79-0.04,1.189C489.76,307.04,489,307.43,488.12,307.36z"/>
<path fill="#7F8A51" d="M479.97,324.38c1.021-2.54,0.36-4.99-0.39-7.45c-1.23-4.069-1.96-8.239-2.26-12.479
	c-0.12-1.771-0.46-3.47-1.54-4.931c-0.5-0.67-1.08-1.299-2.04-1.289c-0.021-0.07-0.03-0.15-0.021-0.23
	c-0.069-0.07-0.13-0.15-0.17-0.24c-0.01-0.16-0.02-0.33-0.03-0.49c0.641-0.449,1.16-0.039,1.631,0.291c1.84,1.299,2.71,3.18,3,5.359
	c0.319,2.4,0.29,4.84,0.739,7.24c0.57,2.97,1.42,5.859,2.221,8.77c0.489,1.8,0.819,3.67-0.19,5.45
	C480.6,324.39,480.29,324.38,479.97,324.38z"/>
<path fill="#899357" d="M480.92,324.39c0.64-2.92-0.15-5.63-0.95-8.42c-1.06-3.689-1.859-7.46-1.96-11.35
	c-0.06-2.37-0.62-4.67-2.49-6.39c-0.569-0.521-1.199-0.91-2-0.961c-0.02-0.229-0.039-0.47-0.06-0.699
	c2.42,0.35,4.99,3.399,5.06,6.09c0.131,5.52,1.181,10.859,2.87,16.109c0.591,1.83,0.78,3.73,0.03,5.601
	C481.25,324.38,481.08,324.38,480.92,324.39z"/>
<path fill="#D2E6F2" d="M490.17,310.3c0.5-0.2,1.01-0.38,1.51-0.6c1.04-0.46,1.92-0.22,2.46,0.74c0.58,1.02-0.359,1.699-0.939,2.079
	c-0.931,0.62-2.101,0.921-3.19,1.28c-0.46,0.15-1.22,0.34-1.31-0.32c-0.08-0.6-0.84-1.02-0.28-1.88
	C488.9,310.9,489.2,310.24,490.17,310.3z"/>
<path fill="#DB9465" d="M482.85,259.29c-0.06-0.46,0.2-0.69,0.561-0.95c1.08-0.79,1.89-1.85,2.33-3.1c0.43-1.23,0.49-2.49-0.57-3.55
	c-1.03-1.02-2.03-2.09-3.04-3.13c-0.57-0.44-0.72-1.03-0.64-1.71c0.109-0.27,0.319-0.39,0.6-0.37c0.811,0.47,0.86,1.3,1,2.09
	c0.45,1.44,1.82,1.97,2.9,2.68c1.72,1.13,2.26,2.54,1.8,4.45c-0.101,0.4-0.18,0.71,0.35,0.8c-0.989,0.81-2.029,1.53-3.26,1.93
	c-0.19,0.09-0.44,0.05-0.57,0.28c-0.09,0.04-0.18,0.08-0.27,0.12c-0.09-0.03-0.17,0-0.22,0.08c-0.091,0.05-0.181,0.1-0.271,0.14
	c-0.17-0.06-0.33-0.06-0.439,0.12C483.01,259.2,482.93,259.24,482.85,259.29z"/>
<path fill="#9AA460" d="M490.96,298.7c-0.75-2.229-2.43-3.421-4.58-4.08c0.26-0.351,0.66-0.16,0.99-0.24
	c0.08-0.069,0.17-0.13,0.26-0.19c2.311-0.51,4.38-1.609,6.49-2.629c0.27-0.131,0.54-0.48,0.84-0.17c0.28,0.289-0.01,0.6-0.14,0.869
	c-0.4,0.82-0.9,1.42-1.801,1.891C491.29,295.08,490.97,296.87,490.96,298.7z"/>
<path fill="#98A25E" d="M481.39,295.311c-0.609,1.069-1.21,2.149-1.819,3.219c-0.48,0.851-1.021,0.561-1.54,0.061
	c-0.91-0.89-1.761-1.85-2.94-2.43c-0.609-0.301-1.189-0.471-1.81-0.09c-0.391-1.84-0.391-1.85,1.51-1.42
	C476.96,295.141,479.15,295.41,481.39,295.311z"/>
<path fill="#4C79B9" d="M463.88,297.34c0-1.18,1.19-2.13,2.74-2c1.32,0.11,1.82,1.03,1.81,2.32c-0.02,1.33-1.02,2.04-1.949,2.21
	C464.7,300.2,463.87,299.23,463.88,297.34z"/>
<path fill="#934223" d="M496.52,276.65c0,0.13,0.011,0.26,0.011,0.4c0.3,0.8-0.101,1.67,0.22,2.47c0.34,0.77,0.59,1.83-0.15,2.16
	c-0.779,0.35-1.189-0.729-1.479-1.38c-0.98-2.19-1.15-4.47-0.42-6.76c0.149-0.48,0.31-1.3,0.99-1.15c0.579,0.12,0.51,0.9,0.579,1.44
	c0.021,0.12,0,0.24,0,0.36C496.6,274.99,496.19,275.86,496.52,276.65z"/>
<path fill="#E2AA82" d="M460.03,288.7c-0.28,0.229-0.58,0.43-0.36,0.88c0.93,1.92,0.69,3.859,0.12,5.811
	c-1.39-0.08-1.26,1.049-1.49,1.89c-0.56,0.409-1.03,0.989-1.819,0.95c0.229-0.541-0.94-1.391,0.38-1.681
	c0.199-0.79,0.529-1.53,0.909-2.26c0.87-1.69,0.37-3.229-0.609-4.7C457.95,288.77,458.91,288.45,460.03,288.7z"/>
<path fill="#D6856A" d="M497.39,319.86c0.12,0.29,0.271,0.58,0.36,0.88c0.08,0.29,0.38,0.609,0.09,0.87
	c-0.09,0.08-0.45-0.19-0.7-0.25c-0.67-0.17-1.229-0.17-1.05,0.81c0.09,0.49,0.63,1.26-0.04,1.4c-0.399,0.09-0.689-0.891-0.729-1.53
	c-1.141-0.93-1.82-2.29-2.98-3.21c-0.82-0.65-1.62-1.34-2.62-1.62c-0.92-0.26-1.34-0.75-1.3-1.68c0.87-0.96,1.73-0.431,2.58,0.029
	c1.38,1.25,2.87,2.37,4.28,3.591C495.88,319.69,496.65,319.73,497.39,319.86z"/>
<path fill="#C63E30" d="M477.28,333.27c-0.63-0.289-1.11-0.699-0.9-1.47c0.2-0.75,0.311-1.609,1.34-1.74
	c0.431-0.05,0.86-0.14,1.29-0.14c1.38,0.01,2.78,0.5,2.98,1.85c0.149,1.07-1.38,1.101-2.23,1.511
	C478.93,333.44,478.1,333.5,477.28,333.27z"/>
<path fill="#934223" d="M461,275.91c0.26-2.61,1.71-4.54,3.57-6.23c0.39-0.21,0.62-0.05,0.62,0.35c-0.011,0.61,0.14,1.24-0.101,1.84
	c-1.17,1.99-2.34,3.99-3.51,5.98c-0.3,0.21-0.66,0.5-0.67-0.19C460.89,277.08,460.76,276.48,461,275.91z"/>
<path fill="#E2AB83" d="M505.33,297.529c-2.07-0.709-2.69-2.51-2.98-4.35c-0.34-2.209,0.17-4.42,0.65-6.59
	c0.08-0.38,0.36-0.609,0.66-0.82c0.06,0.84,0.18,1.701-0.15,2.49c-0.5,1.19-0.42,2.21,0.66,3.03c-0.28,1.34-0.06,2.59,0.73,3.71
	c0.239,0.33,0.33,0.71,0.449,1.08C505.35,296.561,505.34,297.04,505.33,297.529z"/>
<path fill="#DB9566" d="M473.24,259.75c-0.65-1.8-2.391-2.64-3.54-4.01c-0.891-1.07-1.95-1.99-1.74-3.58
	c0.59-0.15,0.84,0.33,1.17,0.64c0.811,0.76,1.55,1.6,2.41,2.3c0.11,0.11,0.19,0.25,0.25,0.39c0.07,0.13,0.13,0.26,0.22,0.38
	c0.12,0.17,0.311,0.25,0.471,0.37c1,1.27,2.479,1.94,3.659,2.99c0.04,0.1,0.061,0.21,0.04,0.32c-0.12,0.22-0.399,0.11-0.55,0.27
	C474.84,259.8,474.04,259.78,473.24,259.75z"/>
<path fill="#BFC0B0" d="M498.72,270.58c0.83,1.54,0.721,3.29,1.08,4.94c0.21,0.97-1.1,1.18-1.79,1.35c-0.8,0.2-0.46-0.69-0.52-1.11
	c-0.24-1.63-0.311-3.3-1-4.84C497.16,270.3,497.95,270.52,498.72,270.58z"/>
<path fill="#E7BA9A" d="M457.16,289.59c1.42,0.78,1.84,3.07,0.88,4.96c-0.35,0.69-0.78,1.341-1.18,2c0.04-0.479,0.09-0.97,0.13-1.45
	c0.04-0.09,0.1-0.17,0.149-0.25c0.021-0.16,0.051-0.31,0.07-0.47c0.06-0.09,0.11-0.17,0.17-0.26c0.101-0.74-0.27-0.841-0.79-0.49
	c-0.41,0.271-0.74,0.649-1.109,0.99c-0.16-0.03-0.261-0.12-0.28-0.28c0.189-0.47,0.37-0.939,0.58-1.4
	c0.13-0.289,0.38-0.609,0.08-0.859c-0.48-0.391-0.891-0.62-0.431-1.391C455.86,289.98,456.3,289.52,457.16,289.59z"/>
<path fill="#E7BB9C" d="M505.36,296.07c-1.011-1.08-1.71-2.291-1.63-3.83c0.02-0.381-0.131-0.84,0.449-0.96l0.03,0.03
	c0.08,0.06,0.16,0.129,0.24,0.199c0.04,0,0.08,0,0.12,0.01c0.819,0.36,2.33,0.711,2.34,1.09c0.03,1.561,0.859,3.061,0.34,4.631
	c-0.07,0.21-0.25,0.529-0.38,0.529c-0.46,0-0.25-0.41-0.24-0.619c0.04-0.83,0.01-1.59-1-1.851c-0.09-0.04-0.16-0.01-0.21,0.07
	C505.39,295.6,505.37,295.84,505.36,296.07z"/>
<path fill="#D78C5C" d="M500.84,297.779c0.46,0.08,0.92,0.15,1.37,0.23c0.19,2.631-1.58,4.641-3.99,4.561
	c-0.729-0.021-1.14-0.35-1.22-1.03c-0.08-0.66,0.36-0.83,0.96-0.931C499.57,300.359,500.31,299.17,500.84,297.779z"/>
<path fill="#D07061" d="M497.39,319.86c-0.67,0.439-1.33,0.229-1.88-0.181c-1.47-1.109-2.91-2.279-4.34-3.449
	c-0.14-0.12-0.12-0.44-0.18-0.66c1.79-0.261,3.3,0.79,4.91,1.26c0.619,0.18,0.859,1.66,1.27,2.55c-0.03,0.09,0,0.17,0.08,0.22
	C497.3,319.68,497.34,319.77,497.39,319.86z"/>
<path fill="#969393" d="M515.2,331.2c0.09,0.59-0.26,1.189-0.65,1.25c-0.64,0.1-0.52-0.66-0.62-1.07
	c-0.43-1.72-0.85-3.439-1.21-5.18c-0.12-0.58-0.569-1.311,0.521-1.62c0.689-0.19,0.95-0.19,1.13,0.61
	C514.82,327.17,514.96,329.19,515.2,331.2z"/>
<path fill="#979494" d="M447.55,324.04c-0.24,0.7-0.45,1.46-0.75,2.19c-0.74,1.84-1.51,3.67-2.27,5.5
	c-0.16,0.38-0.45,0.829-0.84,0.689c-0.5-0.18-0.04-0.62,0.029-0.92c0.61-2.63,1.59-5.15,2.561-7.66c0.13-0.33,0.2-0.77,0.71-0.57
	C447.26,323.39,447.56,323.59,447.55,324.04z"/>
<path fill="#D88C5D" d="M459.54,298.49c0.54-0.04,0.9-0.41,1.11-0.82c0.359-0.73,0.739-0.52,1.18-0.141c0.46,1,0.8,2.07,1.41,2.971
	c0.85,1.25-0.12,1.25-0.82,1.311C461.05,301.93,459.64,300.26,459.54,298.49z"/>
<path fill="#934425" d="M470.03,275.92c-0.42,2.19-0.75,4.03-1.141,5.85c-0.09,0.41-0.35,0.791-0.6,1.15
	c-0.17,0.24-0.49,0.24-0.771,0.17c-0.31-0.08-0.31-0.359-0.27-0.58c0.51-2.479,1.31-4.9,1.45-7.45c0.02-0.35,0.29-0.35,0.51-0.15
	C469.6,275.28,470.07,275.63,470.03,275.92z"/>
<path fill="#7D8750" d="M483.81,307.84c-1.979-1.59-2-3.949-2.399-6.15c-0.391-2.09,0.149-3.84,1.92-5.129
	c0.07-0.08,0.13-0.07,0.2,0.01c0,0.16,0,0.32,0,0.479c-0.09,0.71-0.25,1.38-0.66,1.99c-0.28,0.431-0.42,0.95-0.36,1.479
	c0.221,1.851,0.46,3.69,1.25,5.4C483.78,306.561,483.79,307.2,483.81,307.84z"/>
<path fill="#C3C3B4" d="M467.76,272.81c-0.069,0.51-0.12,1.02-0.2,1.53c-0.35,2.35-0.35,2.33-2.75,2.1
	c-0.659-0.06-0.88-0.31-0.579-0.9c0.42-0.84,0.88-1.66,1.329-2.5C466.31,273.19,466.95,272.21,467.76,272.81z"/>
<path fill="#6D7648" d="M483.76,305.92c-1.2-0.99-1-2.5-1.42-3.79c-0.62-1.95,0.28-3.51,1.17-5.09
	C484.03,299.99,483.85,302.96,483.76,305.92z"/>
<path fill="#D3D3C7" d="M467.76,272.81c-0.55-0.08-0.97,0.23-1.43,0.44c-0.311,0.14-0.67,0.41-0.771-0.22l0,0
	c0.15-0.13,0.101-0.36,0.24-0.49c0.4-0.72,0.79-1.44,1.19-2.16c0.22,0.48,0.56,0.38,1,0.31c1.06-0.16,2.109-0.05,3.069,0.49
	c-0.939-0.16-0.939,0.64-1.17,1.17c-0.13,0.3-0.069,0.8-0.5,0.81c-0.39,0.01-0.739-0.22-0.699-0.75c0.01-0.16-0.181-0.47-0.261-0.47
	C467.91,271.99,468.01,272.54,467.76,272.81z"/>
<path fill="#DD9A7D" d="M488.42,315.53c0.17,0.75,0.61,1.06,1.36,1.359c2.479,0.98,4.27,2.811,5.529,5.15
	c-0.319-0.021-0.64-0.04-0.96-0.07c-0.52-0.12-0.75-0.52-1.01-0.93c-0.74-1.16-1.729-2.03-2.99-2.63
	c-0.72-0.34-1.439-0.34-2.189-0.271C488.25,317.27,488.33,316.4,488.42,315.53z"/>
<path fill="#CBCBBE" d="M498.72,270.58c-0.67,0.61-1.5,0.14-2.229,0.33l0.01,0.01c-0.05-0.14-0.16-0.22-0.3-0.25
	c-0.271,0.01-0.66-0.09-0.79,0.05c-1.061,1.13-1.49,0.17-2-0.56c1.13-0.44,2.2-1.07,3.49-0.97c0.39,0.03,0.569-0.21,0.63-0.57
	c0.489,0.37,0.81,0.85,0.95,1.45c0.02,0.14,0.1,0.23,0.189,0.33C498.72,270.45,498.74,270.51,498.72,270.58z"/>
<path fill="#E3B091" d="M488.16,318.14c0.84-0.659,2.55-0.229,3.859,0.91c0.971,0.83,1.62,1.9,2.33,2.92
	c-0.17,0.17-0.33,0.33-0.5,0.5c-0.949-0.47-1.05-1.609-1.83-2.27c-1.159-0.96-2.359-1.601-3.88-1.57
	C488.16,318.48,488.16,318.31,488.16,318.14z"/>
<path fill="#C34233" d="M484.03,326.12c0.12,1.24-0.511,1.729-1.28,2.02c-0.52,0.19-0.67,1.221-1.19,0.811
	c-0.42-0.33,0.061-1.17,0.061-1.72c0-1,0.45-1.181,1.17-1.62C483.99,324.88,483.92,325.67,484.03,326.12z"/>
<path fill="#4E79B8" d="M515.74,333.8c0.64,0.46,1.09,1.13,0.76,1.851c-0.34,0.729-1.15,0.899-1.96,0.779
	c-0.57-0.09-0.96-0.38-0.99-0.989c-0.02-0.58,0.061-1.101,0.78-1.271c0.38-0.09,0.729-0.29,1.09-0.439
	C515.56,333.62,515.66,333.64,515.74,333.8z"/>
<path fill="#CEE1ED" d="M495.17,315.43c-0.36-0.08-0.61-0.08-0.82-0.18c-0.619-0.3-1.899-0.63-1.779-0.85
	c0.449-0.79,1.479-1.141,2.34-1.03c0.43,0.06,0.92,0.91,1.07,1.479C496.12,315.4,495.5,315.45,495.17,315.43z"/>
<path fill="#F5F5F5" d="M498.14,284.6c0.36,1.631,0.67,3.26,0.53,4.94c-0.03,0.38,0.09,0.931-0.37,1.04
	c-0.52,0.12-1.13,0.109-1.64-0.03c-0.42-0.11-0.101-0.52,0.08-0.64c1.85-1.26,1.51-3.04,1.189-4.83
	C497.88,284.87,497.69,284.58,498.14,284.6z"/>
<path fill="#A0B8DB" d="M498.21,297.391c-0.05-0.771,0.08-1.451-0.25-2.091c-0.11-0.21-0.18-0.51,0.12-0.59
	c0.189-0.05,0.47,0.05,0.64,0.17c0.931,0.69,0.931,3.31,0.011,4.021c-0.12,0.09-0.29,0.199-0.41,0.17
	c-0.271-0.051-0.17-0.311-0.17-0.49C498.16,298.16,498.19,297.721,498.21,297.391z"/>
<path fill="#DC946D" d="M476.12,259.6c-1.16-1.26-2.91-1.83-3.84-3.36c-0.03-0.04-0.061-0.09-0.09-0.13
	c0.029-0.04,0.069-0.08,0.1-0.12c1.46,0.91,2.55,2.36,4.27,2.88c0.57,0.17,1.131,0.34,1.7,0.53c0.25,0.08,0.49,0.2,0.73,0.31
	c-0.24,0.11-0.471,0.23-0.71,0.34c-0.17,0-0.33,0-0.5-0.01c-0.07-0.05-0.15-0.06-0.221-0.02c-0.17-0.07-0.329-0.14-0.5-0.21
	C476.79,259.59,476.4,259.85,476.12,259.6z"/>
<path fill="#853B2E" d="M479.72,334.69c0.34-0.33,0.78-0.171,1.181-0.24c0.27-0.04,0.359,0.06,0.27,0.319
	c-1.18,0.83-2.42,1.341-3.93,1.021c-0.65-0.14-0.94-0.46-1.09-1.021c0.109-0.229,0.279-0.18,0.449-0.079
	c0.08,0.01,0.16,0.01,0.24,0.02C477.8,334.9,478.76,334.96,479.72,334.69z"/>
<path fill="#DB9E73" d="M456.48,298.23c0.6-0.33,1.039-0.971,1.819-0.951c-0.18,0.711,0.04,1.41,0.08,2.111
	c0.01,0.239,0.41,0.52,0.01,0.719c-0.29,0.141-0.62,0.051-0.89-0.18C456.98,299.471,456.6,298.93,456.48,298.23z"/>
<path fill="#4F4A48" d="M477.31,224.78c-1.029,0.23-1.829-0.42-2.68-0.79c-0.36-0.16-0.18-0.61,0.25-0.61
	c0.93-0.02,2.13-0.47,2.2,1.16C477.15,224.63,477.23,224.71,477.31,224.78z"/>
<path fill="#B14837" d="M484.05,329.31c-0.3,0.5-0.09,1.41-1.06,1.311c-0.44-0.05-0.971-0.37-0.811-0.83
	c0.221-0.65,0.931-0.99,1.53-1.19C484.14,328.46,483.95,329.04,484.05,329.31z"/>
<path fill="#4D4845" d="M474.46,226.02c-1.01-0.01-1.59-0.75-2.28-1.26c-0.09-0.07-0.1-0.42-0.01-0.52
	c0.26-0.27,0.59-0.21,0.85,0.01c0.57,0.49,1.051,1.1,1.82,1.3c0.08,0.02,0.2,0.18,0.18,0.24
	C474.92,226.09,474.63,225.96,474.46,226.02z"/>
<path fill="#ECECEC" d="M505.39,287.439c0.25,0.791,0.5,1.58,0.75,2.371c0.12,0.279,0.19,0.529-0.27,0.51
	c-0.72-0.641-1.55-1.24-0.94-2.41C505.13,287.811,504.93,287.3,505.39,287.439z"/>
<path fill="#E0E0E0" d="M449.01,320.56c0.09,0.101,0.181,0.21,0.271,0.311c-0.101,0.88-0.66,1.42-1.48,1.189
	c-1.29-0.35-1.649-1.25-0.939-2.46c0.1,0.011,0.189,0.011,0.29,0.021c0.08,0.09,0.13,0.189,0.17,0.31
	C447.76,321.32,447.76,321.32,449.01,320.56z"/>
<path fill="#949291" d="M512.94,324.04c-0.591,0.07-0.79-0.2-0.841-0.67c-0.09-0.83,0.65-0.7,1.051-0.811
	c0.72-0.21,0.75,0.53,0.77,0.9C513.97,324.22,513.14,323.71,512.94,324.04z"/>
<path fill="#587CB1" d="M442.52,335.67c-0.72-0.25-1.96,0.061-1.47-1.439c0.07-0.23,0.07-0.521,0.36-0.54
	c0.3-0.03,0.3,0.279,0.41,0.489c0.21,0.42,0.479,0.811,0.729,1.21C442.66,335.49,442.66,335.59,442.52,335.67z"/>
<path fill="#C98D65" d="M462.5,229.34c0.68-0.64,0.9-2.04,2.34-1.41c0.09,0.08,0.13,0.19,0.12,0.31c-0.56,0.78-1.24,1.38-2.27,1.4
	l-0.051-0.05C462.57,229.51,462.52,229.43,462.5,229.34z"/>
<path fill="#BF8B68" d="M488.1,309.09c-0.319-0.32-0.199-0.54,0.2-0.479c1.25,0.22,2.3-0.391,3.41-0.771
	c0.16,0.19,0.43,0.28,0.53,0.53c-0.891,0.63-1.99,0.27-2.94,0.63C488.88,308.82,488.5,309.11,488.1,309.09z"/>
<path fill="#5D7BAA" d="M443.95,334.41c-0.01,0.38-0.17,0.63-0.431,0.5c-0.55-0.271-1.22-0.45-1.439-1.141
	c-0.07-0.22,0.17-0.5,0.28-0.39C442.84,333.84,443.62,333.85,443.95,334.41z"/>
<path fill="#E4E4E4" d="M477.51,267.31c0.59,0.66,1.36,0.91,2.221,0.94c0.199,0.01,0.449-0.15,0.6,0.11
	c-0.2,0.11-0.39,0.27-0.6,0.33c-1.141,0.33-1.891-0.21-2.45-1.15C477.21,267.33,477.32,267.29,477.51,267.31z"/>
<path fill="#534F4D" d="M481.85,224.81c-0.479-0.05-1.01-0.04-1.13-0.64c-0.05-0.23,0.23-0.32,0.431-0.22
	c0.439,0.22,1.17-0.11,1.33,0.54C482.58,224.85,482.1,224.77,481.85,224.81z"/>
<path fill="#C08964" d="M491.35,324.41c0.42-0.01,0.681,0.05,0.631,0.439c-0.04,0.271-0.141,0.57-0.48,0.57
	c-0.36-0.01-0.56-0.3-0.6-0.62C490.84,324.38,491.21,324.45,491.35,324.41z"/>
<path fill="#AB5042" d="M478.75,326.54c0,0.04,0.01,0.08,0.01,0.12c-0.01,0.43-0.04,0.859-0.49,1.08
	c-0.079,0.04-0.35-0.11-0.35-0.17c0-0.44,0.14-0.83,0.58-1.04C478.59,326.47,478.67,326.48,478.75,326.54z"/>
<path fill="#7D6249" d="M461,275.91c0,0.51,0.02,1.02,0,1.54c-0.02,0.47,0.19,0.54,0.57,0.41c-0.271,0.46-0.65,0.76-0.771-0.02
	C460.7,277.21,460.54,276.5,461,275.91z"/>
<path fill="#6C5C4A" d="M465.08,271.87c-0.25-0.71,0.53-1.67-0.521-2.19c0.391-0.36,0.73-0.25,0.73,0.23
	C465.3,270.56,465.54,271.26,465.08,271.87z"/>
<path fill="#785C4E" d="M479.72,334.69c-0.96,0.43-1.92,0.39-2.89,0.029C477.8,334.71,478.76,334.7,479.72,334.69z"/>
<path fill="#BEBEBE" d="M505.39,287.439c-0.149,0.16-0.31,0.32-0.46,0.48c-0.02-0.189-0.06-0.391-0.04-0.58
	c0.04-0.43-0.22-0.9,0.11-1.3C505.28,286.46,505.43,286.92,505.39,287.439z"/>
<path fill="#7889AA" d="M496.77,298.55c0-0.909-0.01-1.819-0.01-2.729C497.16,296.73,497.13,297.641,496.77,298.55z"/>
<path fill="#D7D7D7" d="M464.87,228.2c-0.01-0.09-0.021-0.18-0.03-0.27c0.08-0.08,0.17-0.16,0.25-0.24
	c0.09-0.08,0.15-0.18,0.271-0.21l0,0c0.04-0.13,0.13-0.21,0.26-0.24l-0.03,0.03c0.07-0.14,0.16-0.17,0.29-0.08
	c0.23,0.16,0.33,0.37,0.26,0.65C465.82,228.3,465.42,228.53,464.87,228.2z"/>
<path fill="#886243" d="M496.52,276.65c-0.489-0.78-0.14-1.64-0.229-2.47C496.75,274.97,496.43,275.83,496.52,276.65z"/>
<path fill="#7F685C" d="M477.28,333.27c0.819,0.011,1.649,0.011,2.47,0.021C478.93,333.64,478.1,333.7,477.28,333.27z"/>
<path fill="#9B9A9A" d="M477.51,267.31c-0.08,0.08-0.149,0.16-0.229,0.24c-0.03-0.02-0.08-0.03-0.101-0.06
	c-0.239-0.3-0.569-0.93-0.42-0.97C477.25,266.4,477.32,266.97,477.51,267.31z"/>
<path fill="#856548" d="M496.76,279.52c-0.479-0.79-0.14-1.65-0.22-2.47C496.99,277.84,496.67,278.7,496.76,279.52z"/>
<path fill="#C58A63" d="M487.19,326.36c-0.15,0.26-0.4,0.29-0.601,0.159c-0.24-0.159-0.08-0.34,0.08-0.46
	c0.22-0.17,0.45-0.569,0.67,0.011C487.29,326.17,487.24,326.26,487.19,326.36z"/>
<path fill="#D58F62" d="M488.1,309.09c0.37-0.41,0.771-0.37,1.19-0.09C488.9,309.08,488.54,309.63,488.1,309.09z"/>
<path fill="#75624D" d="M504.21,277.65c0-0.67,0-1.35,0.01-2.03C504.56,276.3,504.56,276.97,504.21,277.65z"/>
<path fill="#B4B4B4" d="M505.87,290.33c0.26-0.08,0.22-0.32,0.27-0.51c0.24,0.3,0.551,0.74,0.341,0.99
	C506.29,291.01,506,290.6,505.87,290.33z"/>
<path fill="#ADACAC" d="M498.14,284.6c-0.069,0.16-0.149,0.32-0.22,0.48c-0.06-0.141-0.17-0.27-0.189-0.41
	c-0.03-0.26-0.25-0.57,0.109-0.77C497.95,284.13,498.04,284.359,498.14,284.6z"/>
<path fill="#E5E5E5" d="M455.2,294.35c0.09,0.09,0.189,0.19,0.28,0.28c-0.2,0.22-0.061,0.649-0.45,0.761c0-0.261,0-0.511,0-0.771
	C455.11,294.55,455.17,294.46,455.2,294.35L455.2,294.35z"/>
<path fill="#EFDDCF" d="M492.24,308.37c-0.24-0.12-0.54-0.17-0.53-0.53C492.14,307.77,492.46,307.8,492.24,308.37z"/>
<path fill="#A2A2A2" d="M479.89,328.19c-0.09-0.15-0.199-0.271-0.17-0.311c0.061-0.11,0.181-0.2,0.28-0.29
	c0.06,0.08,0.2,0.18,0.18,0.22C480.13,327.93,480.02,328.03,479.89,328.19z"/>
<path fill="#DCDCDC" d="M486.43,308.48c0.12,0.319,0.23,0.52,0.28,0.739c0.03,0.12-0.01,0.37-0.21,0.17
	c-0.15-0.149-0.21-0.409-0.28-0.63C486.2,308.71,486.3,308.63,486.43,308.48z"/>
<path fill="#DC9869" d="M503.62,284.74c-0.25-0.36-0.11-0.76-0.13-1.141C503.75,283.96,503.67,284.35,503.62,284.74z"/>
<path fill="#7B7B7A" d="M451.4,315.04c-0.091-0.01-0.181-0.03-0.271-0.04c-0.05-0.4-0.01-0.73,0.521-0.7l-0.011-0.03
	C451.61,314.55,451.73,314.86,451.4,315.04z"/>
<path fill="#4F4F4E" d="M483.84,265.98c0.061,0.06,0.141,0.13,0.13,0.15c-0.04,0.1-0.09,0.22-0.18,0.27
	c-0.16,0.09-0.21-0.04-0.16-0.16C483.66,266.14,483.76,266.07,483.84,265.98z"/>
<path fill="#98A25E" d="M482.82,295.16c-0.301,0.279-0.601,0.27-0.92,0.02C482.21,295.18,482.52,295.17,482.82,295.16z"/>
<path fill="#DFA074" d="M476.12,259.6c0.33,0.03,0.689-0.1,0.95,0.21c-0.32,0-0.63,0-0.95,0c-0.08-0.05-0.11-0.09-0.08-0.14
	C476.06,259.62,476.09,259.6,476.12,259.6L476.12,259.6z"/>
<path fill="#7B7B7A" d="M481.17,334.78c-0.09-0.11-0.18-0.21-0.27-0.32c0.149-0.2,0.369-0.36,0.55-0.15
	C481.63,334.54,481.37,334.68,481.17,334.78z"/>
<path fill="#A5A4A4" d="M455.05,297.029c-0.08,0.111-0.149,0.211-0.21,0.301c-0.03-0.109-0.09-0.21-0.08-0.32
	c0.01-0.14,0.08-0.27,0.12-0.4C454.93,296.74,454.98,296.87,455.05,297.029z"/>
<path fill="#2A2826" d="M465.81,227.23c-0.069,0.01-0.149,0.02-0.22,0.03c0.19-0.41,0.45-0.33,0.73-0.1
	c-0.03,0.04-0.051,0.09-0.08,0.13C466.08,227.35,465.94,227.32,465.81,227.23z"/>
<path fill="#AEADAD" d="M515.74,333.8c-0.11-0.02-0.21-0.05-0.32-0.069c0.08-0.211,0.23-0.471,0.44-0.36
	C516.09,333.5,515.85,333.67,515.74,333.8z"/>
<path fill="#DB9566" d="M471.34,259.29c0.271-0.23,0.51-0.24,0.67,0.12C471.79,259.37,471.57,259.33,471.34,259.29z"/>
<path fill="#C0C0C0" d="M476.59,334.7c-0.149,0.03-0.3,0.05-0.45,0.08c0-0.16-0.18-0.4,0.091-0.45
	C476.33,334.32,476.47,334.57,476.59,334.7z"/>
<path fill="#DB9566" d="M472.3,259.54c0.26-0.24,0.49-0.25,0.7,0.07C472.76,259.59,472.53,259.57,472.3,259.54z"/>
<path fill="#CBCBBE" d="M492.68,270.12c0.25-0.27,0.49-0.26,0.721,0.03C493.16,270.14,492.92,270.13,492.68,270.12z"/>
<path fill="#7D8750" d="M484,308.55c-0.23-0.189-0.2-0.46-0.19-0.71C484.04,308.03,484.06,308.28,484,308.55z"/>
<path fill="#949393" d="M487.14,310.54c-0.05,0.03-0.09,0.06-0.14,0.08c-0.01-0.07-0.03-0.14-0.03-0.21c0-0.03,0.05-0.05,0.08-0.08
	C487.08,310.4,487.11,310.47,487.14,310.54z"/>
<path fill="#DC9869" d="M499.44,284.57c0.06,0.18,0.119,0.359,0.18,0.539C499.4,284.98,499.4,284.779,499.44,284.57z"/>
<path fill="#DFA074" d="M484.3,258.7c0.101-0.27,0.33-0.28,0.57-0.28C484.67,258.51,484.48,258.6,484.3,258.7z"/>
<path fill="#C6C7B8" d="M492.68,271.12c-0.08-0.16-0.16-0.32-0.239-0.47C492.52,270.8,492.6,270.96,492.68,271.12z"/>
<path fill="#DFA074" d="M483.09,259.16c0.09-0.25,0.24-0.3,0.44-0.12C483.39,259.08,483.24,259.12,483.09,259.16z"/>
<path fill="#C3C3B4" d="M465.79,272.55c-0.08,0.16-0.16,0.33-0.24,0.49C465.64,272.88,465.72,272.71,465.79,272.55z"/>
<path fill="#DC946D" d="M476.12,259.6c0,0.07,0,0.14,0,0.21c-0.16,0.01-0.32,0.02-0.48,0.02
	C475.8,259.75,475.96,259.68,476.12,259.6z"/>
<path fill="#E3B091" d="M492.9,322.49c0.09,0.149,0.17,0.3,0.26,0.46C493.07,322.8,492.98,322.64,492.9,322.49z"/>
<path fill="#CBCBCB" d="M442.52,335.67c0.011-0.09,0.021-0.189,0.021-0.28c0.12,0.061,0.25,0.13,0.37,0.19
	C442.79,335.61,442.66,335.64,442.52,335.67z"/>
<path fill="#2A2826" d="M466.82,227.23c-0.101,0.11-0.19,0.21-0.29,0.32c-0.21-0.03-0.34-0.12-0.25-0.36l0.029-0.04
	C466.49,227.18,466.66,227.21,466.82,227.23z"/>
<path fill="#D5D5C9" d="M495.84,267.26c-0.09-0.06-0.189-0.13-0.28-0.19C495.65,267.13,495.75,267.2,495.84,267.26z"/>
<path fill="#DEA075" d="M502.3,297.609c0.021-0.119,0.01-0.279,0.2-0.149C502.44,297.51,502.37,297.561,502.3,297.609z"/>
<path fill="#DC9869" d="M502.94,297.311c0.1,0.06,0.189,0.129,0.29,0.189C503.13,297.43,503.03,297.37,502.94,297.311z"/>
<path fill="#737D4B" d="M473.55,297.77c0.061,0.08,0.11,0.16,0.17,0.24C473.66,297.93,473.6,297.85,473.55,297.77z"/>
<path fill="#DFA074" d="M483.81,258.9c0.07-0.03,0.15-0.05,0.221-0.08C483.96,258.84,483.88,258.87,483.81,258.9z"/>
<path fill="#E4E4DB" d="M469.17,267.07c-0.06,0.07-0.12,0.14-0.18,0.21C469.05,267.21,469.11,267.14,469.17,267.07z"/>
<path fill="#D5D5C9" d="M495.42,267c-0.11-0.07-0.22-0.14-0.33-0.21C495.19,266.86,495.31,266.93,495.42,267z"/>
<path fill="#E4E4DB" d="M469.4,266.79c-0.07,0.08-0.141,0.17-0.21,0.25C469.26,266.96,469.33,266.88,469.4,266.79z"/>
<path fill="#DB9465" d="M488.13,256.48c0.08-0.08,0.17-0.16,0.25-0.23C488.3,256.33,488.21,256.41,488.13,256.48z"/>
<path fill="#E3E4DB" d="M493.22,265.79c-0.1-0.05-0.2-0.1-0.29-0.15C493.02,265.69,493.12,265.74,493.22,265.79z"/>
<path fill="#717B4A" d="M490.76,306.62c0.101-0.06,0.19-0.13,0.29-0.19C490.95,306.49,490.85,306.55,490.76,306.62z"/>
<path fill="#DFA074" d="M477.57,260.02c0.069,0.01,0.149,0.01,0.22,0.02l-0.11,0.02L477.57,260.02z"/>
<path fill="#879156" d="M487.64,294.2c-0.09,0.06-0.17,0.13-0.26,0.19C487.46,294.33,487.55,294.26,487.64,294.2z"/>
<path fill="#DB9465" d="M488.37,256.26c0.09-0.08,0.17-0.16,0.26-0.25C488.54,256.1,488.46,256.18,488.37,256.26z"/>
<path fill="#DB9465" d="M488.61,256.03c0.09-0.08,0.17-0.17,0.26-0.25C488.79,255.86,488.7,255.94,488.61,256.03z"/>
<path fill="#DB9465" d="M488.86,255.79c0.09-0.09,0.17-0.17,0.26-0.26C489.03,255.62,488.94,255.71,488.86,255.79z"/>
<path fill="#DB9465" d="M489.1,255.55c0.08-0.09,0.17-0.17,0.261-0.26C489.27,255.38,489.18,255.47,489.1,255.55z"/>
<path fill="#DB9465" d="M489.33,255.31c0.09-0.09,0.17-0.17,0.26-0.26C489.51,255.14,489.42,255.23,489.33,255.31z"/>
<path fill="#DB9465" d="M489.58,255.07c0.08-0.09,0.17-0.17,0.25-0.26C489.74,254.9,489.66,254.99,489.58,255.07z"/>
<path fill="#DB9465" d="M489.81,254.83c0.08-0.09,0.171-0.17,0.25-0.26C489.98,254.66,489.9,254.74,489.81,254.83z"/>
<path fill="#DB9465" d="M490.05,254.59c0.08-0.09,0.17-0.17,0.25-0.26C490.22,254.41,490.13,254.5,490.05,254.59z"/>
<path fill="#DB9465" d="M490.29,254.34c0.08-0.08,0.17-0.17,0.25-0.25C490.46,254.17,490.37,254.26,490.29,254.34z"/>
<path fill="#DB9465" d="M490.53,254.1c0.08-0.08,0.16-0.17,0.25-0.25C490.69,253.93,490.61,254.02,490.53,254.1z"/>
<path fill="#DB9465" d="M490.77,253.85c0.08-0.08,0.171-0.16,0.25-0.25C490.93,253.69,490.85,253.77,490.77,253.85z"/>
<path fill="#E4E4DB" d="M468.67,267.75c-0.07,0.08-0.13,0.17-0.2,0.25C468.54,267.91,468.61,267.83,468.67,267.75z"/>
<path fill="#6D7648" d="M483.52,296.57c-0.069,0-0.13-0.01-0.199-0.01c0.069-0.08,0.14-0.16,0.22-0.24
	C483.53,296.4,483.53,296.48,483.52,296.57z"/>
<path fill="#D6856A" d="M497.25,319.6c-0.04-0.04-0.09-0.09-0.13-0.14c-0.01-0.01,0.03-0.06,0.05-0.09
	C497.2,319.45,497.22,319.52,497.25,319.6z"/>
<path fill="#E4E4DB" d="M468.89,267.46c-0.069,0.1-0.149,0.2-0.22,0.3C468.74,267.66,468.82,267.56,468.89,267.46z"/>
<path fill="#BFC0B0" d="M496.2,270.67c0.1,0.08,0.2,0.17,0.3,0.25C496.4,270.84,496.3,270.75,496.2,270.67z"/>
<path fill="#54504D" d="M459.08,246.17c-0.021,0.08-0.03,0.17-0.05,0.25c-0.05-0.1-0.11-0.21-0.16-0.32
	C458.93,246.13,459.01,246.15,459.08,246.17z"/>
<path fill="#E3B091" d="M493.16,322.96c0.07,0.1,0.13,0.21,0.2,0.31C493.3,323.17,493.23,323.07,493.16,322.96z"/>
<path fill="#D37855" d="M458.82,245.19c0,0.09-0.011,0.19-0.011,0.28c-0.02-0.07-0.06-0.13-0.069-0.2
	C458.74,245.25,458.79,245.22,458.82,245.19z"/>
<path fill="#E3B091" d="M493.66,323.69c0.08,0,0.149,0,0.229,0c-0.04,0.06-0.069,0.119-0.109,0.18
	C493.74,323.81,493.7,323.75,493.66,323.69z"/>
<path fill="#D37855" d="M458.88,244.26c0.061,0.08,0.12,0.17,0.17,0.25C459,244.43,458.94,244.34,458.88,244.26z"/>
<path fill="#EBEBEB" d="M462.5,229.34c0.05,0.08,0.09,0.16,0.14,0.24c-0.08,0-0.17,0.01-0.25,0.01
	C462.42,229.51,462.46,229.42,462.5,229.34z"/>
<path fill="#C0C2B1" d="M471.05,272.74c-0.06,0.1-0.109,0.2-0.17,0.29C470.94,272.94,471,272.84,471.05,272.74z"/>
<path fill="#F9F9F9" d="M487.19,326.36c0.05-0.101,0.1-0.2,0.149-0.29C487.44,326.24,487.34,326.31,487.19,326.36z"/>
<path fill="#EAEAEA" d="M478.75,326.54c-0.08-0.01-0.17-0.021-0.25-0.03c0.06-0.05,0.13-0.1,0.2-0.149
	C478.71,326.43,478.73,326.48,478.75,326.54z"/>
<path fill="#2A2826" d="M465.35,227.48c-0.09,0.07-0.18,0.14-0.27,0.21C465.17,227.62,465.26,227.55,465.35,227.48z"/>
<path fill="#E2AA82" d="M457.38,294.13c-0.06,0.08-0.11,0.17-0.17,0.261C457.27,294.3,457.32,294.221,457.38,294.13z"/>
<path fill="#2A2826" d="M465.61,227.23c-0.091,0.08-0.17,0.16-0.261,0.24C465.44,227.39,465.53,227.31,465.61,227.23z"/>
<path fill="#9F9F9F" d="M477.31,224.78c-0.079-0.08-0.149-0.16-0.229-0.24C477.15,224.62,477.23,224.7,477.31,224.78z"/>
<path fill="#E7BA9A" d="M455.2,294.35c-0.061,0.09-0.11,0.18-0.17,0.271C455.09,294.529,455.14,294.439,455.2,294.35z"/>
<path fill="#E2AB83" d="M504.44,291.51c-0.08-0.07-0.16-0.14-0.24-0.199C504.28,291.38,504.36,291.45,504.44,291.51z"/>
<path fill="#D3D3C7" d="M467.2,270.08c-0.07,0.1-0.15,0.21-0.22,0.31C467.06,270.29,467.13,270.18,467.2,270.08z"/>
<path fill="#E2AA82" d="M457.14,294.859c-0.05,0.08-0.1,0.16-0.149,0.25C457.04,295.02,457.09,294.939,457.14,294.859z"/>
<path fill="#BFC0B0" d="M498.66,270.4c-0.061-0.11-0.13-0.22-0.19-0.33C498.54,270.18,498.6,270.29,498.66,270.4z"/>
<path fill="#D5D5C9" d="M493.88,290.04c0.09-0.06,0.18-0.12,0.271-0.19C494.06,289.91,493.97,289.971,493.88,290.04z"/>
<path fill="#C6C7B8" d="M492.43,270.64c-0.04-0.05-0.08-0.11-0.1-0.17c0-0.01,0.05-0.05,0.08-0.07
	C492.42,270.48,492.43,270.56,492.43,270.64z"/>
<path fill="#E2AB83" d="M505.41,295.37c0.07-0.021,0.14-0.05,0.21-0.07C505.55,295.33,505.48,295.35,505.41,295.37z"/>
<path fill="#C0C2B1" d="M472.47,292.27c0.101,0.061,0.19,0.131,0.29,0.19C472.66,292.4,472.57,292.34,472.47,292.27z"/>
<path fill="#222221" d="M482.14,246.64c-0.17,0.09-0.33,0.17-0.5,0.26c-0.08,0.07-0.149,0.14-0.22,0.21
	c-0.1,0.13-0.229,0.22-0.36,0.31c-0.31,0.16-0.63,0.21-0.939,0c-0.58-0.87-0.14-1.51,0.54-1.98c0.47-0.33,0.46-0.52,0.06-0.86
	c-0.45-0.38-0.859-0.8-1.25-1.24c-1.149-1.71-1.16-3.62-0.97-5.56c0.47-0.91,0.47-1.81,0.04-2.75c-0.2-0.43-0.29-0.91-0.3-1.4
	c0.13-0.82,0.54-1.01,1.229-0.54c0.16,0.28,0.301,0.56,0.471,0.82c0.159,0.26-0.28,0.84,0.31,0.8c0.44-0.04,0.71-0.46,0.66-0.99
	c-0.061-0.79,0.37-1.45,0.6-2.17c0.23-0.18,0.4-0.59,0.771-0.2c0.29,0.3,0.75,0.56,0.45,1.09c-0.24,0.43-0.19,0.77,0.22,1.02
	c0.149,0.09,0.36,0.09,0.54,0.13c0.01-0.31,0.08-0.63,0.03-0.93c-0.101-0.67-0.021-1.29,0.779-1.29c0.67,0,0.92,0.44,0.73,1.16
	c-0.08,0.32,0,0.95,0.189,1.03c0.37,0.16,0.41-0.43,0.681-0.64c0.37-0.27,0.739-0.39,1.08-0.1c0.399,0.33,0.06,0.72-0.15,0.93
	c-0.47,0.5-0.26,0.82,0.05,1.32c1.26,2.02,1.49,4.22,1.01,6.53c0.181,0.41-0.1,0.73-0.229,1.07c-0.05,0.1-0.1,0.19-0.17,0.28
	c-0.09,0.14-0.18,0.27-0.271,0.4c-0.18,0.29-0.17,0.44,0.19,0.63c1.21,0.64,1.21,1.25,0.04,2.11c-1.07-0.02-2.13-0.19-3.18,0.11
	c-0.341,0.04-0.671,0.14-1,0.25C482.92,246.62,482.52,246.56,482.14,246.64z"/>
<path fill="#D57C51" d="M482.14,246.64c0.311-0.14,0.63-0.28,0.94-0.42c0.26,0.23,0.29,0.56,0.41,0.85
	c0.56,1.36,1.71,2.13,3.17,2.13c1.27-0.01,2.1-0.59,2.56-1.78c0.511-1.34,0.181-2.73-0.87-3.74c-0.31-0.3-0.77-0.45-0.97-0.87
	c0.17-0.4,0.34-0.8,0.51-1.19c0.25-0.24,0.46-0.58,0.881-0.26c1.43,1.04,2.55,2.27,2.689,4.14c0.15,1.96-0.1,3.73-2.07,4.8
	c-1.63,0.89-3.89,0.42-5.77-1.28c-0.18-0.16-0.37-0.29-0.56-0.44C482.47,248.06,482.51,247.25,482.14,246.64z"/>
<path fill="#232322" d="M484.71,229.13c-0.79-0.1-1.72-0.22-2.66-0.33c-0.399-0.05-0.67-0.19-0.649-0.66
	c0.01-0.45,0.26-0.65,0.659-0.68c1.351-0.13,2.681,0.02,3.96,0.49c0.591,0.22,0.591,0.56,0.091,0.94
	C485.72,229.19,485.29,229.09,484.71,229.13z"/>
<path fill="#252524" d="M512.43,318.26c-0.12,0.59,0.09,1.28-0.649,1.34c-0.71,0.061-0.99-0.449-0.86-1.09
	c0.12-0.609-0.37-0.92-0.57-1.37c-0.18-0.39-0.319-0.81,0.11-1.04c0.43-0.229,1.06-0.27,1.23,0.261
	C511.89,317.04,512.08,317.73,512.43,318.26z"/>
<path fill="#292928" d="M510.92,313.74c0.05,0.64-0.02,0.91-0.479,0.859c-0.471-0.05-0.71-0.3-0.73-0.77
	c-0.02-0.35,0.06-0.68,0.47-0.68C510.72,313.14,510.89,313.54,510.92,313.74z"/>
<path fill="#222221" d="M467.43,245.66c-0.3,0.02-0.6,0.04-0.899,0.06c-1.46,0.61-2.99,0.94-4.561,1.16
	c-0.45,0.03-0.649-0.26-0.399-0.57c0.85-1.06,0.26-1.7-0.57-2.31c-1.09-2.53-0.98-5.27-1.36-7.93c-0.1-0.74,0.23-1.54,0.41-2.31
	c0.08-0.34,0.41-0.34,0.7-0.3c0.47,0.07,0.49,0.41,0.52,0.8c0.03,0.35-0.34,1.04,0.341,0.97c0.51-0.05,0.72-0.63,0.479-1.25
	c-0.14-0.35-0.14-0.78-0.109-1.17c0.05-0.77,0.359-1.2,1.119-0.56c0.54,0.45,0.82,0.33,1.03-0.3c0.101-0.32,0.18-0.8,0.7-0.53
	c0.34,0.18,0.66,0.45,0.64,0.93c-0.01,0.29-0.6,0.52-0.18,0.8c0.44,0.29,0.68-0.25,1-0.45c0.24-0.14,0.47-0.29,0.71-0.44
	c0.311,0,0.62,0,0.94,0.01c0.069,0.05,0.149,0.09,0.229,0.11c0.07,0.04,0.141,0.08,0.2,0.12c0.28,0.17,0.38,0.49,0.24,0.7
	c-0.63,0.94,0.06,1.51,0.529,2.16c0.41,0.73,0.761,1.48,1,2.29c0.32,1.29,0.521,2.58-0.18,3.82c-0.3,0.49-0.64,0.97-1.03,1.4
	c-0.27,0.27-0.54,0.53-0.81,0.8c-0.26,0.28-0.6,0.43-0.95,0.56C466.74,244.8,467.77,245.1,467.43,245.66z"/>
<path fill="#2A2826" d="M464.87,228.2c0.399-0.17,0.79-0.34,1.189-0.5c0.131-0.16,0.301-0.14,0.48-0.12
	c0.979,1.46,0.94,1.49-0.69,1.82c-0.68,0.14-1.29,0.6-1.96,0.85c-0.79,0.3-1.17,0.08-1.21-0.61
	C463.41,229.15,464.14,228.67,464.87,228.2z"/>
<path fill="#E0E0E0" d="M466.54,227.57c-0.16,0.04-0.32,0.08-0.48,0.12c-0.079-0.15-0.17-0.31-0.25-0.46
	c0.16-0.01,0.32-0.02,0.48-0.04c0.08,0.12,0.17,0.24,0.25,0.36V227.57z"/>
<path fill="#DC9667" d="M473.71,227.72c-0.02,0.03-0.04,0.05-0.06,0.08c-0.021-0.02-0.03-0.03-0.051-0.05
	c0.03-0.02,0.051-0.04,0.08-0.06L473.71,227.72z"/>
<path fill="#252524" d="M449.01,320.56c-0.319,0.45-0.56,1.28-1.21,1.011c-0.75-0.32-0.8-1.17-0.64-1.95
	c0.399-0.36,0.14-1.37,1.17-1.09C449.6,318.87,448.79,319.88,449.01,320.56z"/>
<path fill="#282827" d="M449.42,317.74c-0.56-0.04-0.96-0.19-0.88-0.69c0.09-0.58,0.31-1.189,1.02-1.27
	c0.511-0.061,0.681,0.33,0.65,0.77C450.17,317.12,449.91,317.57,449.42,317.74z"/>
<path fill="#252524" d="M451.65,314.3c-0.17,0.23-0.351,0.46-0.521,0.7c-0.67,0.26-1,0.03-0.939-0.69
	c0.04-0.47-0.23-1.149,0.56-1.22C451.61,313.03,451.67,313.66,451.65,314.3z"/>
<path fill="#DC946D" d="M467.17,244.22c0.26-0.23,0.521-0.46,0.79-0.69c0.49,0.13,0.67,0.55,0.85,0.94
	c0.7,1.53,1.301,3.1,1.171,4.82c-0.131,1.76,0.26,3.31,1.46,4.63c0.189,0.21,0.31,0.46,0.399,0.73c0.07,0.29,0,0.51-0.28,0.64
	c-1.52-0.67-2.25-2.25-3.59-3.12c0.65-1.86,1.4-3.72,0.7-5.74C468.37,245.57,468.3,244.52,467.17,244.22z"/>
<path fill="#E0A378" d="M468.85,235.38c-0.56-0.7-1.68-1.29-0.43-2.33c0.08-0.07-0.04-0.36-0.06-0.55
	c0.39,0.16,0.689,0.14,1.08-0.15c3.68-2.63,5.68-2.6,9.189,0.13c0.271,0.21,0.74,0.16,0.84,0.6c-0.899-0.39-0.93,0.22-0.96,0.84
	c-0.51,0.34-0.81-0.09-1.149-0.33c-2.88-2-5.221-1.67-7.42,1.04C469.65,234.97,469.47,235.52,468.85,235.38z"/>
<path fill="#D98B5B" d="M468.16,232.38c-0.08-0.04-0.15-0.08-0.23-0.11C468,232.3,468.08,232.34,468.16,232.38z"/>
<path fill="#CC573C" d="M461.97,246.88c1.42-0.76,2.96-1.09,4.561-1.16c1.01,1.52,0.84,2.91-0.48,3.88
	c-1.21,0.89-2.74,0.63-3.8-0.63C461.72,248.33,461.52,247.65,461.97,246.88z"/>
<path fill="#DEA07B" d="M480.21,247.36c0.39,0.16,0.67-0.14,1-0.25c0.01-0.09,0.06-0.13,0.15-0.11c0.1-0.04,0.189-0.07,0.29-0.11
	c0.159,0.56,0.319,1.11,0.47,1.66c0.229,0.79,0.76,1.4,1.34,1.92c3.24,2.94,0.87,6.6-1.91,7.67c-2.63,1.01-4.89,0.22-6.97-1.42
	c-0.561-0.44-1.05-0.99-1.84-0.98c0.069-0.62,0.5-0.78,1.029-0.8c1.08,0.45,1.83,1.4,2.881,1.92c2.1,1.05,4.109,0.9,5.83-0.53
	c1.77-1.47,1.979-3.38,0.47-5.13C481.91,250.01,481.14,248.63,480.21,247.36z"/>
<path fill="#232322" d="M473.74,255.11c-0.33,0.21-0.67,0.43-1,0.64c-0.15,0.03-0.3,0.07-0.46,0.1c-0.271,0.06-0.54,0.14-0.69-0.19
	c-0.01-0.13-0.02-0.25-0.03-0.38c0.07-0.16,0.131-0.33,0.2-0.49c0.01-0.05,0.021-0.1,0.021-0.14c0.02-0.1,0.05-0.19,0.09-0.28
	c0.149-0.26,0.35-0.48,0.59-0.67c0.08-0.06,0.17-0.12,0.26-0.17c0.141-0.08,0.28-0.16,0.431-0.23c0.64-0.29,1.31-0.47,1.96-0.74
	c1.159-0.32,2.319-0.6,3.51-0.77c0.45-0.06,1.03-0.26,1.229,0.38c0.19,0.58-0.189,0.98-0.64,1.29c-0.93,0.63-2.03,0.68-3.08,0.88
	C475.28,254.41,474.6,255.06,473.74,255.11z"/>
<path fill="#DC946D" d="M471.59,255.66c0.23,0.06,0.46,0.13,0.69,0.19c0.01,0.04,0.01,0.09,0.02,0.13l-0.03,0.03
	c-0.149,0.13-0.3,0.12-0.449,0C471.74,255.9,471.66,255.78,471.59,255.66z"/>
<path fill="#DFA074" d="M471.81,256.02c0.15,0,0.301,0,0.45,0c0.01,0.08,0.01,0.15,0.021,0.23
	C472.12,256.17,471.97,256.09,471.81,256.02z"/>
<path fill="#EAC0A2" d="M475.88,254.11c0.95-0.38,2.04-0.2,2.95-0.73c0.46-0.26,1-0.62,0.85-1.15c-0.17-0.63-0.729-0.08-1.06-0.04
	c-1.23,0.16-2.45,0.46-3.68,0.7c-1.15,0.36-1.45-0.44-1.73-1.26c-0.06-0.35-0.06-0.7-0.03-1.06c0.09-1.29,0.471-1.59,1.73-1.4
	c0.22,0.03,0.51,0.22,0.63-0.04c0.12-0.25-0.17-0.41-0.35-0.55c-0.761-0.58-1.431-0.51-2.171,0.2c-0.13,0.2-0.26,0.4-0.449,0.55
	c-0.12,0.06-0.24,0.07-0.36,0.06c-0.479-0.17-0.65-0.59-0.729-1.02c-0.381-2.04-1.061-3.99-1.811-5.93
	c-0.12-0.3-0.18-0.61-0.08-0.93c0.73-1.28,0.43-2.64,0.271-3.98c0.05-1.46,1.52-3.41,3-3.95c1.43-0.52,2.85-0.15,3.979,1.15
	c0.79,0.9,1.43,1.91,1.9,3.02c-0.12,1.92-0.061,3.8,0.979,5.51c0.261,0.41,0.16,0.85,0.11,1.28c-0.24,2.17,0.34,4.09,1.66,5.8
	c0.29,0.38,0.55,0.78,0.79,1.19c0.649,1.11,0.88,2.23,0.109,3.37c-0.81,1.19-2.029,1.67-3.399,1.61c-1.141-0.05-2.13-0.62-2.99-1.36
	C475.7,254.89,475.29,254.54,475.88,254.11z"/>
<path fill="#FEFEFE" d="M487.04,239.53c-0.09,0.34-0.18,0.9-0.4,1.4c-0.13,0.29-0.33,1.33-0.779,0.08
	c-0.21-0.58-1.771-0.45-2.061,0.14c-0.12,0.24-0.08,0.58-0.24,0.79c-0.35,0.48,0.601,1.58-0.64,1.55c-1.1-0.03-2.15-0.39-2.5-1.64
	c-0.32-1.16-0.49-2.34-0.27-3.55c0.369-2.01,1.489-3.29,3-3.39c1.46-0.09,3.3,1.49,3.72,3.22
	C486.96,238.52,486.97,238.92,487.04,239.53z"/>
<path fill="#E5B18C" d="M475.88,254.11c0.14,1.15,2.57,2.4,3.99,2.04c2.81-0.71,3.56-2.81,1.72-5.1c-1.859-2.33-2.53-4.88-1.85-7.78
	c0.609,0.48,1.02,1.19,1.779,1.5c0.141,0.06,0.211,0.29,0.311,0.44c-0.13,0.06-0.25,0.16-0.39,0.19c-1.16,0.19-1.46,0.91-1.221,1.96
	c0.53,0.25,0.92,0.55,1.21,1.14c0.391,0.81,0.971,1.56,1.58,2.23c1.01,1.1,1.67,2.3,1.141,3.79c-0.591,1.63-1.78,2.69-3.48,3.15
	c-2.93,0.8-4.93-0.85-6.92-2.57C474.37,254.6,475.03,254.15,475.88,254.11z"/>
<path fill="#E5B28D" d="M478.75,237.76c-1-0.62-1.25-1.8-1.98-2.63c-1.77-2.02-4.18-1.93-5.64,0.3c-0.45,0.69-0.85,1.41-1.27,2.12
	c-0.341-0.72-0.681-1.44-1.021-2.16c0.561-0.67,1.07-1.39,1.7-1.99c1.94-1.86,4.85-1.88,6.979-0.1c0.301,0.25,0.521,0.63,0.98,0.63
	C478.74,235.19,479.9,236.4,478.75,237.76z"/>
<path fill="#D06B45" d="M487.39,242.79c1.74,0.59,2.75,2.38,2.351,4.15c-0.431,1.89-1.67,2.76-3.681,2.58
	c-1.63-0.15-2.939-1.6-2.979-3.3c0.32-0.08,0.63-0.17,0.95-0.25c0.239,0.66,0.359,1.38,1.04,1.78c0.63,0.37,1.29,0.35,1.91,0.01
	c0.739-0.41,0.84-1.08,0.64-1.83c0.79-1.39,0.72-1.53-0.82-1.68c-0.17-0.02-0.56,0.04-0.479-0.13c0.2-0.4,0.56-0.72,0.859-1.07
	C487.25,242.95,487.33,242.87,487.39,242.79L487.39,242.79z"/>
<path fill="#CB5235" d="M487.62,245.92c0.58,0.07,0.53,0.5,0.47,0.9c-0.18,1.1-1.47,1.9-2.689,1.45c-0.94-0.35-1.87-0.97-1.37-2.3
	C485.22,245.51,486.42,245.59,487.62,245.92z"/>
<path fill="#DB9465" d="M481.36,247c-0.03,0.06-0.08,0.1-0.15,0.11C481.22,247.02,481.28,246.99,481.36,247z"/>
<path fill="#D57C51" d="M487.39,242.79c-0.069,0.08-0.14,0.17-0.21,0.25C487.26,242.95,487.33,242.87,487.39,242.79z"/>
<path fill="#FEFEFE" d="M466.22,242.8c0.141-0.76-0.02-1.53-0.859-1.51c-0.99,0.02-1.5,1.09-1.42,1.78
	c0.149,1.48-0.761,0.65-1.04,0.52c-0.99-0.45-1.41-1.4-1.57-2.4c-0.32-1.94,0.13-3.72,1.37-5.27c0.569-0.71,1.38-1.4,2.21-1.2
	c1.27,0.3,2.649,0.63,3.109,2.29c0.631,2.27-0.01,4.12-1.47,5.81C466.43,242.92,466.32,242.91,466.22,242.8z"/>
<path fill="#E5B393" d="M469.59,241.52c0.99,2.14,1.75,4.35,2.19,6.68c0.09,0.47,0.12,0.98,0.739,1.08
	c0.54,0.61,0.211,1.62,0.95,2.14c0.181,0.8,0.49,1.48,1.471,1.47c-0.641,0.24-1.271,0.49-1.91,0.73
	c-0.101,0.05-0.181,0.12-0.271,0.19c-0.08,0.04-0.149,0.09-0.229,0.13c-1.63-1.36-2.261-3.21-2.46-5.23
	c-0.17-1.64-0.641-3.18-1.28-4.68c-0.17-0.4-0.41-0.79-0.13-1.24C468.98,242.37,469.29,241.95,469.59,241.52z"/>
<path fill="#DFA17D" d="M468.67,242.8c1.13,2.38,1.71,4.89,2.01,7.5c0.16,1.42,1.36,2.37,1.87,3.65c-0.2,0.22-0.399,0.43-0.609,0.65
	c0,0.09-0.051,0.14-0.141,0.15l-0.04,0.05c-1.45-1.51-2.39-3.17-2.14-5.4c0.229-2.13-0.68-4.02-1.66-5.86
	C468.19,243.29,468.43,243.04,468.67,242.8z"/>
<path fill="#AFAFAF" d="M466.22,242.8c0.11,0.01,0.221,0.02,0.32,0.03c-0.07,0.22-0.18,0.44-0.44,0.29
	C465.99,243.05,466.04,242.86,466.22,242.8z"/>
<path fill="#DC946D" d="M471.79,254.74c0.03-0.07,0.07-0.12,0.14-0.15C471.93,254.68,471.88,254.73,471.79,254.74z"/>
<path fill="#DFA17D" d="M472.77,253.81c0.091-0.06,0.181-0.13,0.271-0.19C472.95,253.68,472.86,253.75,472.77,253.81z"/>
<path fill="#232322" d="M473.47,251.43c-1.609-0.14-0.72-1.39-0.95-2.14l0,0c0.141-0.13,0.101-0.33,0.19-0.48
	c0.13-0.8,0.56-1.13,1.4-0.99c0.909,0.15,1.71,0.56,2.13,1.33c0.22,0.4-0.37,0.69-0.86,0.61
	C473.5,249.45,473.5,249.45,473.47,251.43z"/>
<path fill="#E5B393" d="M472.71,248.81c0.04,0.2,0.021,0.38-0.19,0.48C472.59,249.12,472.65,248.96,472.71,248.81z"/>
</svg>
