<?xml version="1.0" encoding="utf-8"?>
<!-- Generator: Adobe Illustrator 16.0.0, SVG Export Plug-In . SVG Version: 6.00 Build 0)  -->
<!DOCTYPE svg PUBLIC "-//W3C//DTD SVG 1.1//EN" "http://www.w3.org/Graphics/SVG/1.1/DTD/svg11.dtd">
<svg version="1.1" id="give_an_injection_xA0_Image_1_"
	 xmlns="http://www.w3.org/2000/svg" xmlns:xlink="http://www.w3.org/1999/xlink" x="0px" y="0px" width="128.64px"
	 height="124.08px" viewBox="0 0 128.64 124.08" enable-background="new 0 0 128.64 124.08" xml:space="preserve">
<g>
	<g>
		<path fill-rule="evenodd" clip-rule="evenodd" fill="#F6E5F0" d="M71.04,0.24c11.2,0,22.4,0,33.601,0
			c2.218,0.702,4.314,1.696,6.324,2.841c3.903,2.225,6.575,5.629,8.292,9.668c2.848,6.702,4.431,13.736,4.986,21.018
			c0.509,6.659,0.824,13.32,0.664,19.995c-0.066,2.754-0.212,5.506-0.233,8.265c-0.021,2.812,0.601,5.469,1.617,8.058
			c0.904,2.304,1.558,4.699,2.59,6.954c0,7.36,0,14.721,0,22.08c-0.501,0.457-1.123,0.342-1.709,0.343
			c-4.462,0.01-8.924,0.004-13.385,0.008c-0.517,0-1.037-0.045-1.536,0.084c-0.688,0.075-1.464,0.355-1.837-0.576
			c-0.394-0.979-0.036-2.221,0.848-2.75c1.406-0.844,2.88-1.564,4.383-2.222c1.915-0.839,2.421-1.664,2.12-3.752
			c-0.498-3.447-0.63-6.912-0.796-10.386c-0.195-4.085-0.859-8.106-2.96-11.75c-0.764-1.326-1.012-2.857-1.432-4.313
			c-0.51-1.769-1.103-3.504-1.816-5.2c-1.015-2.414-2.409-4.509-4.844-5.726c-0.329-0.164-0.678-0.389-0.627-0.797
			c0.064-0.512,0.541-0.513,0.933-0.568c6.582-0.929,10.938-5.727,11.008-12.393c0.054-5.243-1.235-10.208-3.734-14.839
			c-0.096-0.176-0.185-0.362-0.318-0.507c-2.915-3.154-5.978-6.135-10.128-7.621c-1.039-0.372-1.692-0.926-2.09-1.937
			c-0.601-1.524-1.124-3.08-1.816-4.568c-0.423-0.909-0.911-1.778-1.53-2.571c-0.608-0.78-1.333-1.204-2.383-1.022
			c-0.877,0.151-1.74,0.001-2.576-0.361c-0.89-0.385-1.852-0.515-2.813-0.52c-1.194-0.007-1.45,0.424-0.949,1.478
			c0.068,0.145,0.16,0.277,0.231,0.42c0.468,0.945,0.324,1.366-0.618,1.796c-0.403,0.184-0.831,0.285-1.271,0.328
			c-2.064,0.199-4.103,0.375-5.963,1.513c-1.823,1.115-4.053,1.398-5.773,2.826c-0.794,0.658-1.419,1.357-1.941,2.221
			c-0.715,1.182-1.24,1.219-2.263,0.269c-1.004-0.932-1.064-0.914-1.944,0.146c-1.093,1.314-1.253,3-1.804,4.523
			c-0.244,0.677,0.272,1.325,0.754,1.806c1.673,1.67,2.595,3.828,3.827,5.783c0.194,0.309,0.283,0.645,0.263,1.025
			c-0.203,3.826-0.133,7.647,0.228,11.461c0.13,1.363,0.504,2.669,1.109,3.903c0.301,0.611,0.608,1.229,0.705,1.905
			c0.44,3.081,2.316,5.117,4.874,6.599c1.839,1.065,3.82,1.825,5.908,2.274c0.506,0.109,1.028,0.18,1.473,0.491
			c0.694,0.406,0.889,1.083,0.983,1.808c0.21,1.614-0.083,3.156-0.714,4.639c-0.258,0.606-0.67,1.073-1.349,1.224
			c-1.153-0.108-2.061,0.155-2.308,1.487c-0.074,0.398-0.37,0.626-0.792,0.568c-0.656-0.089-0.896,0.258-1.091,0.829
			c-0.385,1.135-0.533,1.164-1.488,0.547c-1.008-0.652-1.258-0.58-1.781,0.554c-0.185,0.4-0.308,0.875-0.845,0.897
			c-0.521,0.022-0.719-0.426-0.965-0.79c-0.738-1.096-1.041-1.11-1.996-0.112c-1.346,1.407-2.028,1.383-3.053-0.285
			c-0.671-1.091-1.59-1.889-2.571-2.645c-0.514-0.396-1.094-0.657-1.778-0.596c-1.156,0.104-1.442,0.492-1.194,1.635
			c0.091,0.419,0.373,0.916-0.034,1.237c-0.468,0.368-0.917-0.05-1.293-0.31c-1.65-1.139-3.493-1.563-5.46-1.477
			c-1.96,0.086-3.665-0.811-5.392-1.479c-0.85-0.329-1.403-1.349-2.228-1.92c-0.338-0.235-0.196-0.741-0.145-1.139
			c0.314-2.416,1.122-4.648,2.392-6.73c1.293-2.118,2.478-4.296,3.399-6.607c0.521-1.305,0.965-2.629,1.012-4.053
			c0.03-0.901,0.545-1.663,0.711-2.532c0.697-3.671-0.424-6.967-2.09-10.133c-0.781-1.484-1.703-2.895-2.583-4.326
			c-0.549-0.892-1.093-1.756-2.161-2.147c-0.477-0.174-0.782-0.593-0.603-1.155c0.193-0.604-0.042-0.917-0.617-1.039
			c-0.86-0.183-1.3-0.693-1.334-1.588c-0.026-0.69-0.422-0.806-0.975-0.494c-1.266,0.716-2.449,0.496-3.609-0.264
			c-1.781-1.167-3.672-1.304-5.599-0.444c-1.199,0.535-2.367,0.377-3.503-0.042c-1.667-0.616-3.105-0.604-4.547,0.681
			c-0.927,0.827-2.281,0.924-3.526,0.983c-0.882,0.042-1.748,0.195-2.623,0.272c-0.575,0.051-0.818,0.307-0.516,0.865
			c0.439,0.813,0.017,1.367-0.544,1.883c-0.692,0.636-1.517,1.035-2.407,1.301c-0.728,0.217-1.448,0.459-2.171,0.694
			c-0.754,0.245-1.262,0.586-1.113,1.539c0.143,0.908-0.482,1.479-1.167,1.944c-1.002,0.681-1.858,1.515-2.624,2.445
			c-0.376,0.457-0.535,0.871,0.186,1.224c0.76,0.372,0.638,1.028,0.347,1.653c-0.326,0.702-0.892,1.225-1.42,1.769
			c-0.526,0.542-0.447,0.968,0.205,1.326c0.826,0.454,1.691,0.67,2.646,0.617c1.214-0.069,1.428,0.202,1.231,1.381
			c-0.026,0.158-0.122,0.325-0.086,0.469c0.519,2.063-0.679,3.64-1.398,5.396c-1.44,3.517-2.901,6.994-4.854,10.285
			c-1.449,2.443-2.093,5.269-2.442,8.11c-0.162,1.316,0.318,2.471,1.257,3.366c2.027,1.934,4.13,3.784,6.559,5.211
			c0.656,0.385,1.158,0.798,1.276,1.608c0.143,0.978,0.899,1.381,1.752,1.584c1.441,0.343,2.897,0.629,4.391,0.544
			c2.06-0.117,4.066,0.186,6.052,0.697c1.11,0.286,1.099,0.461,0.652,1.462c-1.161,2.604-2.937,4.934-3.344,7.88
			c-0.226,1.637-0.782,1.903-2.408,1.606c-4.142-0.756-9.165,2.612-10.024,6.738c-0.261,1.251-0.616,2.482-0.813,3.748
			c-0.147,0.946-0.682,1.364-1.644,1.363c-3.719-0.004-7.439,0.004-11.159-0.007c-0.403-0.001-0.804-0.027-1.115-0.339
			c0-0.08,0-0.16,0-0.24c0.988-0.664,2.1-0.313,3.153-0.344c1.965-0.061,1.945-0.032,1.134-1.827c-1.3-2.877-1.817-5.859-1.04-8.991
			c0.375-1.513,0.697-3.039,1.048-4.559c0.72-3.113,0.227-6.098-1.032-9.001C2.456,71.98,1.453,69.543,0.24,67.2
			c0-10.96,0-21.919,0-32.88c1.669-3.862,3.63-7.54,6.56-10.629c0.77-0.811,1.111-1.938,1.899-2.758
			c3.18-3.311,6.309-6.664,9.764-9.708c1.988-1.751,4.052-3.38,6.284-4.763c2.76-1.71,5.845-2.567,9.099-2.71
			c6.193-0.271,12.338,0.044,18.212,2.223c2.943,1.092,5.906,2.246,8.356,4.331c1.315,1.12,3.079,1.54,4.316,2.779
			c0.11,0.11,0.286,0.135,0.443,0.174c1.922,0.478,4.354-1.722,3.979-3.653c-0.322-1.649-0.741-3.286-0.601-4.982
			C68.703,2.791,69.324,1.197,71.04,0.24z"/>
		<path fill-rule="evenodd" clip-rule="evenodd" fill="#141313" d="M86.409,56.134c-2.155-0.545-4.31-1.09-6.304-2.117
			c-3.195-1.646-5.595-3.867-6.1-7.701c-0.184-1.401-1.198-2.587-1.496-4.015c-0.509-2.439-0.525-4.902-0.496-7.374
			c0.017-1.353-0.371-2.785-0.158-4.027c0.591-3.452-1.844-5.417-3.458-7.714c-0.957-1.361-1.634-2.355-0.745-4.014
			c0.636-1.188,0.672-2.613,1.727-3.713c0.836-0.872,1.25-0.667,1.887,0.028c1.254,1.37,1.309,1.358,2.18-0.222
			c1.027-1.863,2.735-2.831,4.632-3.576c1.313-0.516,2.684-0.954,3.878-1.675c1.186-0.716,2.372-1.068,3.724-1.016
			c0.479,0.019,0.963,0.032,1.438-0.014c1.836-0.177,2.152-0.728,1.362-2.319c-0.688-1.387-0.478-1.767,1.068-1.807
			c1.241-0.032,2.484,0.035,3.602,0.668c0.642,0.364,1.347,0.38,1.979,0.214c1.429-0.376,2.254,0.307,3.006,1.369
			c1.568,2.214,2.21,4.838,3.279,7.271c0.348,0.791,0.754,1.257,1.672,1.449c2.906,0.606,4.827,2.85,7.132,4.463
			c3.696,2.588,5.123,6.474,6.226,10.572c1.114,4.145,1.857,8.288,0.478,12.542c-1.292,3.984-6.299,8.837-10.971,8.405
			c-0.17-0.015-0.35,0.068-0.524,0.105c0.106,0.203,0.168,0.533,0.326,0.59c3.598,1.289,4.971,4.437,5.921,7.638
			c1.369,4.609,3.554,8.912,4.793,13.555c0.985,3.696,0.911,7.491,1.091,11.267c0.087,1.826,0.308,3.652,0.575,5.463
			c0.267,1.802-0.27,3.094-1.931,3.742c-1.721,0.671-3.287,1.625-4.937,2.424c-1.201,0.581-0.533,1.637-0.553,2.441
			c-0.018,0.701,0.738,0.197,1.136,0.294c1.105-0.189,2.22-0.076,3.329-0.08c4.139-0.017,8.277-0.011,12.416-0.001
			c0.429,0.001,0.876-0.111,1.289,0.111c0,0.32,0,0.641,0,0.96c-0.535,0.479-1.197,0.389-1.828,0.39
			c-4.759,0.009-9.518,0.001-14.276,0.006c-1.837,0.002-1.876,0.005-2.051,1.782c-0.204,2.066-0.367,4.136-0.424,6.215
			c-0.034,1.283,0.429,2.1,1.648,2.596c1.001,0.408,2.035,0.717,3.029,1.122c1.02,0.774,2.132,1.496,1.955,3.041
			c-0.012,0.114-0.037,0.229-0.069,0.341c-0.031,0.104-0.074,0.207-0.121,0.305c-0.043,0.094-0.097,0.185-0.152,0.271
			c-0.052,0.083-0.113,0.162-0.179,0.236c-0.03,0.035-0.065,0.07-0.096,0.105c-0.062,0.067-0.129,0.132-0.196,0.195
			c-0.031,0.031-0.065,0.063-0.097,0.094c-0.061,0.064-0.126,0.126-0.19,0.186c-0.031,0.03-0.064,0.06-0.096,0.09
			c-0.063,0.06-0.133,0.111-0.205,0.16c-0.071,0.048-0.147,0.089-0.224,0.126c-0.113,0.059-0.229,0.112-0.347,0.162
			c-0.077,0.034-0.157,0.061-0.238,0.085c-0.121,0.04-0.241,0.082-0.358,0.133c-0.078,0.043-0.157,0.079-0.237,0.117
			c-0.167,0.083-0.334,0.161-0.508,0.229c-0.235,0.088-0.465,0.185-0.689,0.301c-1.338,0.677-2.684,1.325-4.102,1.815
			c-0.109,0.04-0.22,0.068-0.333,0.094c-0.292,0.044-0.571,0.135-0.855,0.215c-0.121,0.035-0.241,0.054-0.365,0.064
			c-0.76,0.023-1.519,0.045-2.277-0.016c-1.289-0.195-2.207-0.971-3.011-1.925c-1.396-2.651-0.987-4.72,1.314-6.621
			c0.188-0.155,0.393-0.291,0.43-0.544c0.25-1.715,0.759-3.441-0.306-5.085c-0.478-0.737-0.309-1.623-0.493-2.429
			c-0.062-0.49-0.232-0.962-0.289-1.451c-0.014-0.154-0.012-0.313-0.021-0.47c-0.113-2.083-0.113-2.081-2.198-2.07
			c-0.553,0.003-1.114,0.054-1.658-0.036c-0.944-0.156-1.45,0.17-1.451,1.164c0.13,1.184-0.36,2.207-0.803,3.24
			c-0.76,1.75-1.497,3.519-2.669,5.05c-0.961,1.257-0.427,2.391,0.231,3.529c0.186,0.831,0.044,1.686,0.197,2.517
			c0.038,0.228,0.063,0.459,0.042,0.691c-0.013,0.11-0.039,0.22-0.075,0.324c-0.128,0.297-0.295,0.569-0.539,0.787
			c-0.119,0.097-0.251,0.176-0.387,0.25c-0.086,0.052-0.176,0.096-0.267,0.139c-0.318,0.141-0.628,0.298-0.934,0.468
			c-0.56,0.268-1.106,0.553-1.603,0.934c-0.382,0.237-0.703,0.557-1.107,0.761c-0.865,0.305-1.742,0.564-2.601,0.894
			c-2.234,0.809-4.47,0.347-6.7,0.007c-0.547-0.083-1.084-0.233-1.632-0.311c-0.128-0.015-0.255-0.043-0.378-0.076
			c-0.455-0.209-0.971-0.154-1.439-0.31c-0.283-0.113-0.5-0.313-0.684-0.548c-0.346-0.618-0.753-1.209-0.994-1.885
			c-0.041-0.099-0.072-0.201-0.102-0.305c-0.05-0.152-0.094-0.307-0.143-0.461c-0.037-0.104-0.063-0.211-0.082-0.32
			c-0.033-0.228-0.025-0.452,0.031-0.677c0.296-0.882,0.962-1.459,1.656-2.013c2.422-1.702,5.105-2.779,7.995-3.377
			c0.664-0.137,1.321-0.358,2.006-0.233c0.466,0.086,0.643-0.206,0.835-0.519c0.524-0.788,0.646-1.679,0.834-2.589
			c0.353-1.708,0.884-3.38,1.186-5.106c0.32-1.834,0.243-1.97-1.557-1.972c-4.596-0.006-9.19,0.021-13.785-0.019
			c-1.079-0.009-1.688,0.337-2.253,1.328c-1.666,2.92-3.888,5.444-6.003,8.051c-1.582,1.948-3.461,3.063-5.893,3.543
			c-2.706,0.534-5.444,0.854-8.145,1.396c-0.657,0.132-1.527,0.03-1.63,1.058c-0.145,1.435,0.355,2.448,1.407,2.843
			c0.149,0.056,0.306,0.093,0.46,0.146c0.509,0.219,1.006,0.456,1.414,0.838c0.922,0.864,0.921,1.668,0.003,2.591
			c-1.661,0.861-3.471,1.155-5.298,1.256c-1.664,0.091-3.338,0.095-5-0.059c-0.861-0.164-1.718-0.361-2.482-0.827
			c-0.517-0.315-1.096-0.645-0.954-1.367c0.132-0.672,0.759-0.769,1.315-0.835c1.388-0.165,2.51-0.752,3.289-1.94
			c0.198-0.303,0.366-0.619,0.479-0.963c0.629-1.917,0.212-2.665-1.744-3.017c-1.296-0.232-2.614-0.344-3.893-0.681
			c-1.3-0.272-2.559-0.664-3.741-1.271c-1-0.773-2.17-1.299-3.149-2.106c-0.05-0.042-0.022-0.14-0.025-0.164
			c-0.197,0.131-0.03,0.283-0.007,0.41c0.271,1.497,0.302,3.006,0.251,4.518c-0.019,0.75,0.005,1.505-0.459,2.169
			c-0.253,0.362-0.08,0.676,0.202,0.945c0.086,0.076,0.165,0.158,0.245,0.241c0.087,0.082,0.166,0.17,0.245,0.261
			c0.21,0.242,0.384,0.507,0.542,0.781c1.082,1.879,0.896,2.62-0.923,3.798c-1.202,0.777-2.508,1.138-3.938,1.069
			c-0.335,0-0.667,0-1.003,0c-1.633,0-3.263,0-4.891,0c-2.655-0.024-5.306-0.118-7.924-0.636c-1.498-0.296-2.878-0.875-4.172-1.658
			c-0.432-0.274-0.81-0.622-1.104-1.049c-0.456-0.662-1.067-1.036-1.876-1.078c-0.118-0.024-0.23-0.062-0.342-0.105
			c-0.17-0.071-0.329-0.16-0.482-0.262c-1.711-1.47-1.767-2.374-0.53-4.194c0.944-1.391,2.271-2.072,3.793-2.532
			c0.879-0.212,1.751-0.453,2.663-0.473c0.638,0.015,1.277-0.045,1.911-0.018c0.473,0.044,0.952,0.032,1.43,0.02
			c0.312-0.008,0.701,0.049,0.85-0.295c0.169-0.39-0.118-0.69-0.387-0.927c-0.829-0.729-1.388-1.636-1.816-2.646
			c-0.791-1.915-0.928-3.928-0.952-5.96c-0.006-0.499,0.145-1.049-0.343-1.441c-0.722-0.314-1.484-0.269-2.232-0.271
			c-2.978-0.013-5.956,0-8.934-0.009c-0.548-0.002-1.125,0.087-1.583-0.344c0-0.319,0-0.64,0-0.96c4.158,0.01,8.316,0,12.474,0.049
			c0.742,0.009,1.004-0.183,1.095-0.936c0.143-1.174,0.482-2.321,0.676-3.491c0.777-4.672,6.313-8.447,10.94-7.418
			c0.732,0.162,1.323,0.304,1.486-0.719c0.532-3.342,2.22-6.203,3.839-9.091c0.35-0.624-0.207-0.381-0.438-0.455
			c-3.197-1.037-6.559-0.6-9.812-1.104c-1.464-0.227-3.155-0.36-2.96-2.582c0.024-0.274-0.267-0.362-0.479-0.475
			c-2.246-1.184-4.062-2.942-6.053-4.471c-2.267-1.739-3.004-3.823-2.306-6.596c0.802-3.189,1.809-6.262,3.697-8.995
			c1.308-1.893,1.906-4.106,2.729-6.217c0.521-1.338,1.051-2.672,1.916-3.837c0.497-0.67,0.223-1.369,0.118-2.067
			c-0.114-0.759-1.338-2.16-2.053-2.345c-0.232-0.061-0.462-0.132-0.686-0.219c-2.135-0.829-2.187-1.074-0.687-2.731
			c0.372-0.411,0.697-0.878,0.962-1.365c0.349-0.64,0.536-1.224-0.622-1.16c-0.875,0.048-0.756-0.51-0.432-1.026
			c0.798-1.27,1.878-2.259,3.103-3.118c0.837-0.587,1.69-1.215,0.797-2.422c-0.323-0.437,0.146-0.549,0.409-0.646
			c1.045-0.389,2.094-0.775,3.16-1.104c0.888-0.273,1.707-0.648,2.46-1.194c0.737-0.534,1.189-1.034,0.359-1.896
			c-0.583-0.605-0.291-0.921,0.479-1.046c1.768-0.286,3.582-0.177,5.327-0.663c0.509-0.142,1.05-0.256,1.381-0.654
			c1.134-1.362,2.515-1.369,4.017-0.832c1.518,0.543,2.924,0.751,4.549-0.005c1.633-0.76,3.431-0.535,5.002,0.588
			c1.209,0.864,2.435,1.321,3.806,0.194c0.667-0.547,1.231-0.366,1.09,0.629c-0.158,1.116,0.31,1.614,1.39,1.661
			c0.93,0.041,1.279,0.438,0.659,1.265c-0.421,0.561-0.12,0.842,0.36,0.945c1.151,0.248,1.662,1.121,2.204,2.021
			c1.846,3.069,3.866,6.043,4.695,9.616c0.582,2.51,0,4.848-0.402,7.342c-0.626,3.882-2.333,7.136-4.142,10.429
			c-1.152,2.099-2.396,4.148-2.684,6.575c-0.103,0.87-0.211,1.455,0.806,2.425c2.332,2.223,4.959,2.378,7.744,2.561
			c1.77,0.115,3.331,0.709,4.722,1.799c0.189,0.148,0.42,0.43,0.705,0.22c0.063-0.047-0.071-0.344-0.094-0.528
			c-0.085-0.695-0.968-1.486-0.15-2.055c0.975-0.677,2.211-0.895,3.241-0.048c1.093,0.898,2.281,1.684,2.988,3.034
			c0.796,1.521,1.356,1.492,2.432,0.163c1.166-1.442,1.927-1.362,2.663,0.291c0.127,0.284,0.144,0.697,0.54,0.694
			c0.387-0.004,0.432-0.383,0.524-0.694c0.566-1.908,1.172-2.064,2.543-0.679c0.129,0.131,0.31,0.21,0.467,0.313
			c0.078-0.218,0.214-0.433,0.224-0.654c0.046-1.044,0.164-1.936,1.593-1.295c0.603,0.271,0.408-0.282,0.446-0.525
			c0.229-1.481,0.941-1.921,2.408-1.466c0.233,0.217,0.544,0.308,0.79,0.521c0.413,0.358,0.481,1.306,1.277,1.001
			c0.973-0.372,2.05-0.625,2.541-1.786c0.712-1.687,1.669-3.252,2.61-4.823c1.227-1.671,2.797-3.04,4.076-4.646
			c-0.088,0.044-0.121,0.126-0.188,0.187c-0.305,0.481-0.787,0.665-1.295,0.785c-1.853,0.441-3.623,1.161-5.472,1.632
			C88.664,56.507,87.526,56.683,86.409,56.134z"/>
		<path fill-rule="evenodd" clip-rule="evenodd" fill="#F3DEE9" d="M71.04,0.24c-2.801,2.686-2.366,5.888-1.561,9.21
			c0.312,1.282,0.471,2.691-1.44,3.09c-0.358,0.075-0.58,0.671-0.95,0.845c-0.969,0.456-1.896,0.459-2.897-0.161
			c-2.78-1.72-5.319-3.768-8.318-5.219c-3.207-1.552-6.502-2.567-9.931-3.272c-4.404-0.906-8.854-0.752-13.316-0.484
			c-2.537,0.152-4.848,0.979-7.027,2.103c-1.746,0.9-3.392,2.077-4.889,3.355c-2.448,2.09-4.867,4.244-7.061,6.593
			c-2.208,2.363-4.446,4.688-6.441,7.293c-2.191,2.859-4.02,5.889-5.928,8.899c-0.376,0.594-0.303,1.441-1.039,1.827
			c0-1.6,0-3.2,0-4.8c2.518-4.575,5.61-8.722,9.225-12.492c1.464-1.527,2.765-3.235,4.328-4.643
			c4.374-3.939,8.512-8.276,14.536-9.786c5.076-1.273,10.199-1.226,15.362-0.686c6.178,0.647,11.957,2.458,17.307,5.624
			c0.552,0.327,1.157,0.545,1.771,0.73c1.668,0.504,2.58-0.013,2.812-1.722c0.18-1.317,0.572-2.574,0.909-3.846
			c0.235-0.887,0.554-1.756,1.19-2.459C68.8,0.24,69.919,0.24,71.04,0.24z"/>
		<path fill-rule="evenodd" clip-rule="evenodd" fill="#EBC8D7" d="M0.24,21.36c0-6.741,0.014-13.482-0.02-20.224
			C0.216,0.385,0.394,0.217,1.139,0.221C8.199,0.253,15.26,0.24,22.32,0.24c-0.286,1.269-1.466,1.655-2.332,2.347
			c-1.772,1.419-4.155,1.978-5.615,3.805c-1.51,1.89-3.307,3.442-5.181,4.934c-0.594,0.472-1.029,1.105-1.505,1.699
			c-2.047,2.55-3.899,5.259-6.176,7.619C1.174,20.991,0.883,21.515,0.24,21.36z"/>
		<path fill-rule="evenodd" clip-rule="evenodd" fill="#F0D4E1" d="M128.88,77.04c-1.569-1.252-1.597-3.258-2.242-4.916
			c-0.943-2.422-1.99-4.857-2.196-7.524c-0.218-2.832-0.193-5.664-0.046-8.488c0.228-4.382,0.292-8.756-0.028-13.134
			c-0.137-1.865-0.172-3.739-0.24-5.603c-0.314-8.513-1.893-16.769-5.252-24.579c-1.916-4.454-4.981-8.068-9.605-10.198
			c-1.556-0.716-3.343-1.083-4.63-2.357c2.08,0,4.16,0,6.24,0c0.938,0.604,1.929,1.121,2.854,1.752
			c3.124,2.129,5.301,5.038,7.038,8.336c2.052,3.895,3.199,8.097,4.199,12.341c1.333,5.658,2.002,11.394,2.166,17.216
			c0.118,4.228,0.511,8.453,0.297,12.684c-0.117,2.314-0.132,4.629-0.271,6.944c-0.214,3.541,0.444,7,1.717,10.326
			C128.88,72.24,128.88,74.64,128.88,77.04z"/>
		<path fill-rule="evenodd" clip-rule="evenodd" fill="#BFA2B3" d="M115.153,112.825c-1.344-0.472-2.685-0.948-4.03-1.412
			c-0.92-0.317-1.23-0.968-1.238-1.913c-0.021-2.862,0.399-5.691,0.541-8.54c0.045-0.889,0.642-0.651,1.098-0.651
			c5.786-0.006,11.571,0.005,17.357,0.012c0,2,0,4,0,6c-0.449,0.472-1.03,0.753-1.589,1.053c-2.881,1.55-5.481,3.55-8.329,5.152
			c-0.243,0.137-0.482,0.28-0.722,0.424C117.181,113.584,116.141,113.883,115.153,112.825z"/>
		<path fill-rule="evenodd" clip-rule="evenodd" fill="#F0D6E3" d="M67.68,0.24c-0.44,1.44-0.908,2.873-1.312,4.324
			c-0.243,0.876-0.364,1.786-0.581,2.67c-0.322,1.316-1.312,1.906-2.605,1.541c-1.195-0.338-2.278-0.914-3.37-1.517
			c-4.829-2.67-9.984-4.282-15.496-4.907c-2.945-0.334-5.877-0.475-8.824-0.421c-6.36,0.116-11.861,2.24-16.749,6.462
			c-5.084,4.393-9.565,9.303-13.81,14.454c-1.511,1.833-2.662,3.964-3.972,5.962c-0.191,0.292-0.265,0.693-0.722,0.711
			c0-1.12,0-2.24,0-3.36c1.787-3.03,3.854-5.849,6.202-8.477c2.282-2.555,4.508-5.183,6.964-7.55
			c3.793-3.656,7.87-7.02,12.897-8.942c1.342-0.513,2.825-0.453,4.177-0.951c5.04,0,10.08,0,15.12,0
			c4.726,0.505,9.119,2.217,13.562,3.746c0.53,0.183,1.063,0.346,1.622,0.417c1.145,0.146,1.995-0.225,2.594-1.278
			c0.568-0.999,1.072-2.053,1.902-2.884C66.08,0.24,66.88,0.24,67.68,0.24z"/>
		<path fill-rule="evenodd" clip-rule="evenodd" fill="#BEA2B3" d="M9.604,113.034c-1.811,0.4-3.082,1.512-3.985,3.076
			c-0.848,1.469,0.074,2.355,1.105,3.189c0.089,0.07,0.155,0.179,0.287,0.181L7,119.469c0.518,0.851,0.11,1.428-0.566,1.93
			C4.53,122.813,1.807,122.465,0.24,120c0-2.48,0-4.961,0-7.44c0.329-1.394,0.555-2.809,0.849-4.21
			c0.316-1.509,0.836-2.921,1.799-4.139c1.361-1.722,3.91-1.899,5.526-0.413c1.171,1.076,1.844,2.397,2.003,3.975
			c0.096,0.954,0.216,1.905,0.322,2.857C10.86,111.708,10.589,112.518,9.604,113.034z"/>
		<path fill-rule="evenodd" clip-rule="evenodd" fill="#EDCDDC" d="M128.88,21.84c0,14.72,0,29.44,0,44.161
			c-0.954-0.176-0.908-1.011-1.036-1.67c-0.455-2.334-0.331-4.697-0.238-7.053c0.19-4.87,0.297-9.735,0.003-14.609
			c-0.267-4.425-0.411-8.865-1.041-13.252c-0.976-6.789-2.604-13.431-5.652-19.619c-1.441-2.923-3.521-5.416-6.126-7.443
			c-0.721-0.561-1.69-0.98-1.75-2.114c1.601,0,3.2,0,4.801,0c3.147,2.475,5.141,5.735,6.842,9.326
			c1.774,3.744,2.729,7.71,3.931,11.617C128.683,21.412,128.72,21.65,128.88,21.84z"/>
		<path fill-rule="evenodd" clip-rule="evenodd" fill="#EECFDE" d="M0.24,67.2c1.171,0.893,1.501,2.315,2.134,3.524
			c0.735,1.402,1.225,2.932,1.825,4.405C5.61,78.594,5.434,82.073,4.396,85.6c-0.892,3.031-1.301,6.1-0.333,9.227
			c0.333,1.079,0.806,2.081,1.333,3.059c0.483,0.894,0.407,1.29-0.729,1.245c-1.474-0.057-2.951-0.012-4.427-0.011
			C0.24,88.48,0.24,77.84,0.24,67.2z"/>
		<path fill-rule="evenodd" clip-rule="evenodd" fill="#BEA2B3" d="M28.33,124.09c1.424-0.097,2.703-0.618,3.867-1.408
			c1.489-1.01,1.584-1.571,0.617-3.112c-0.21-0.335-0.444-0.653-0.667-0.979c-0.063-0.104-0.138-0.195-0.245-0.259l0.001,0.003
			c-0.133-0.579,0.317-0.862,0.629-1.201c1.221-1.326,2.655-2.402,4.104-3.462c0.685-0.501,1.413-0.685,2.23-0.389
			c1.845,0.295,3.689,0.595,5.536,0.88c0.454,0.07,0.686,0.274,0.763,0.756c0.457,2.815-1.417,5.243-4.271,5.508
			c-0.467,0.043-1.088,0.023-1.207,0.552c-0.12,0.527,0.454,0.833,0.853,1.032c0.698,0.349,1.459,0.57,2.193,0.846
			c1.205,0.39,1.228,0.438,0.707,1.464c-5.04,0-10.08,0-15.12,0c-0.083-0.055-0.11-0.106-0.079-0.156
			C28.27,124.115,28.3,124.09,28.33,124.09z"/>
		<path fill-rule="evenodd" clip-rule="evenodd" fill="#EBC8D7" d="M128.88,21.84c-1.212-1.113-1.261-2.717-1.615-4.14
			c-1.207-4.837-3.273-9.286-5.92-13.466c-0.688-1.085-1.804-1.897-2.711-2.846c-0.323-0.338-0.778-0.594-0.794-1.147
			c3.399,0,6.8,0.026,10.199-0.021c0.718-0.01,0.864,0.145,0.86,0.861C128.867,8,128.88,14.92,128.88,21.84z"/>
		<path fill-rule="evenodd" clip-rule="evenodd" fill="#EECFDE" d="M30.48,0.24c-0.501,0.724-1.339,0.644-2.043,0.774
			c-3.728,0.689-6.814,2.695-9.701,4.938c-3.98,3.093-7.394,6.792-10.76,10.553c-2.639,2.949-5.043,6.038-7.27,9.289
			c-0.107,0.156-0.308,0.246-0.465,0.367c0-1.6,0-3.2,0-4.8c2.192-1.56,3.602-3.847,5.154-5.93c1.996-2.679,4.325-4.947,6.811-7.122
			c1.391-1.218,2.266-3.034,3.983-3.861c1.983-0.956,3.766-2.175,5.477-3.526c0.244-0.193,0.438-0.452,0.654-0.68
			C25.04,0.24,27.76,0.24,30.48,0.24z"/>
		<path fill-rule="evenodd" clip-rule="evenodd" fill="#EFD3E0" d="M113.04,0.24c0.854,1.182,2.145,1.869,3.196,2.828
			c4.027,3.671,6.312,8.369,7.777,13.488c1.102,3.849,2.313,7.686,2.789,11.685c0.338,2.834,0.646,5.674,0.863,8.519
			c0.426,5.563,0.615,11.136,0.491,16.716c-0.063,2.809-0.238,5.618-0.202,8.424c0.018,1.394-0.018,2.88,0.926,4.101
			c0,1.279,0,2.56,0,3.84c-1.341-1.245-1.298-3.011-1.652-4.596c-0.874-3.901-0.187-7.838-0.17-11.763
			c0.008-1.834,0.351-3.664-0.016-5.523c-0.184-0.931-0.014-1.946-0.041-2.929c-0.155-5.729-0.322-11.469-1.304-17.114
			c-0.699-4.021-1.581-8.034-2.96-11.912c-0.828-2.332-1.771-4.581-2.988-6.749c-1.945-3.466-4.607-6.147-8.031-8.111
			c-0.377-0.216-0.834-0.348-0.838-0.904C111.6,0.24,112.32,0.24,113.04,0.24z"/>
		<path fill-rule="evenodd" clip-rule="evenodd" fill="#B091A4" d="M9.604,113.034c0.909-0.819,0.877-1.854,0.725-2.948
			c-0.266-1.908-0.173-3.908-1.601-5.48c-2.072-2.281-4.716-1.942-6.219,0.752c-1.074,1.925-1.119,4.122-1.764,6.157
			c-0.121,0.382-0.17,0.775-0.504,1.046c0-2.96,0-5.92,0-8.88c0.514-0.809,1.124-1.569,2.016-1.918
			c0.683-0.267,0.513-1.242,1.306-1.32c1.534,0.003,3.061-0.002,4.585,0.002c3.093,2.157,4.735,5.142,5.078,8.878
			c0.062,0.68,0.114,1.353,0.005,2.03c-0.095,0.592-0.349,1.054-0.985,1.201C11.364,112.713,10.484,112.874,9.604,113.034z"/>
		<path fill-rule="evenodd" clip-rule="evenodd" fill="#A48197" d="M43.44,124.32c0.258-0.727-0.069-1.17-0.707-1.464
			c3.586,0.254,7.138,0.209,10.538-1.187c5.437,0.313,10.561-0.746,15.318-3.458c1.842-1.05,3.557-2.302,5.391-3.359
			c0.717-0.414,1.43-1.104,2.4-0.577c-0.509,0.624-1.245,1.065-1.508,1.886c-0.217,0.259-0.028,0.632-0.251,0.89
			c-4.778,3.482-9.998,5.906-15.916,6.678c-1.779,0.232-3.565,0.33-5.357,0.352c-0.438,0.006-0.875,0.009-1.269,0.24
			C49.2,124.32,46.32,124.32,43.44,124.32z"/>
		<path fill-rule="evenodd" clip-rule="evenodd" fill="#EECFDD" d="M65.28,0.24c-0.31,1.436-1.251,2.571-2.029,3.721
			c-0.888,1.314-2.446,1.011-3.723,0.539c-4.462-1.649-8.973-3.117-13.644-4.056C45.78,0.423,45.694,0.31,45.6,0.24
			C52.16,0.24,58.72,0.24,65.28,0.24z"/>
		<path fill-rule="evenodd" clip-rule="evenodd" fill="#71526C" d="M128.88,117.12c0,2.16-0.026,4.321,0.016,6.48
			c0.012,0.602-0.136,0.741-0.736,0.736c-3.6-0.033-7.199-0.017-10.8-0.017c-0.341-0.549,0.154-0.767,0.422-1.084
			c1.059-1.255,2.568-1.893,3.92-2.7c1.908-1.142,3.749-2.433,5.833-3.267C127.954,117.101,128.388,116.762,128.88,117.12z"/>
		<path fill-rule="evenodd" clip-rule="evenodd" fill="#73536E" d="M78.245,120.242c1.655,0.222,3.307,0.485,4.968,0.651
			c1.234,0.123,2.468-0.011,3.666-0.364c0.198,0.977,0.791,1.589,1.705,1.96c0.479,0.194,0.906,0.514,1.304,0.848
			c0.294,0.247,0.681,0.497,0.353,0.983c-5.68,0-11.359,0-17.04,0c-0.275-0.992,0.641-1.06,1.139-1.373
			c1.039-0.653,2.32-0.992,2.957-2.148C77.541,120.353,77.91,120.39,78.245,120.242z"/>
		<path fill-rule="evenodd" clip-rule="evenodd" fill="#7F5C76" d="M128.88,117.12c-2.811,0.949-5.198,2.667-7.704,4.182
			c-1.153,0.697-2.336,1.315-3.313,2.269c-0.234,0.229-0.494,0.391-0.504,0.75c-1.36,0-2.72,0-4.08,0
			c-0.342-0.55,0.104-0.829,0.432-1.069c3.625-2.667,7.154-5.483,11.245-7.446c0.863-0.414,1.73-0.808,2.514-1.371
			c0.416-0.299,0.875-0.615,1.41-0.193C128.88,115.2,128.88,116.16,128.88,117.12z"/>
		<path fill-rule="evenodd" clip-rule="evenodd" fill="#A38196" d="M115.199,117.365l0.052-0.054l0.072,0.02
			c0.165-0.014,0.272-0.104,0.341-0.249l-0.022,0.019c0.122-0.037,0.195-0.134,0.271-0.226l0.002-0.002
			c0.089-0.07,0.17-0.148,0.237-0.24l0,0c0.103-0.075,0.183-0.168,0.229-0.288c-0.014-0.08,0.011-0.145,0.074-0.195
			c0.057-0.086,0.111-0.172,0.166-0.26l-0.003,0.02c3.48-2.421,7.25-4.367,10.832-6.623c0.442-0.278,0.926-0.524,1.431-0.086
			c0,0.32,0,0.641,0,0.96c-1.792,1.191-3.638,2.294-5.522,3.328c-4.245,2.328-8.18,5.118-12.013,8.057
			c-1.664,1.275-3.463,2.262-5.505,2.775c-2,0-4,0-6,0c-2.785-1.094-5-3.02-7.193-4.966c-0.358-0.317-0.85-0.676-0.509-1.307
			c0.322-0.153,0.643-0.308,0.964-0.461c0.924,0.347,1.604,1.043,2.268,1.713c1.023,1.033,2.166,1.896,3.41,2.616
			c3.152,1.826,6.352,1.896,9.575,0.156c1.412-0.762,2.731-1.651,3.91-2.743c0.315-0.292,0.724-0.517,0.778-1.011
			c0.214-0.089,0.427-0.179,0.64-0.268c0.179-0.084,0.398-0.058,0.555-0.203l0.013-0.006c0.121-0.146,0.338-0.092,0.465-0.225
			c0.031-0.06,0.078-0.076,0.14-0.047C115.002,117.557,115.104,117.467,115.199,117.365z"/>
		<path fill-rule="evenodd" clip-rule="evenodd" fill="#B292A6" d="M128.88,109.2c-0.89-0.139-1.517,0.456-2.142,0.883
			c-2.812,1.92-5.991,3.236-8.684,5.35c-0.392,0.308-0.882,0.55-1.438,0.477c0.323-1.414-0.598-2.236-1.465-3.084
			c1.317,0.844,2.418,0.18,3.523-0.5c3.073-1.889,6.153-3.766,9.219-5.666c0.315-0.195,0.605-0.372,0.985-0.339
			C128.88,107.28,128.88,108.24,128.88,109.2z"/>
		<path fill-rule="evenodd" clip-rule="evenodd" fill="#8B6680" d="M128.88,114.24c-1.596,0.304-2.811,1.404-4.224,2.085
			c-4.018,1.934-7.468,4.782-11.059,7.392c-0.165,0.12-0.215,0.398-0.318,0.604c-1.04,0-2.08,0-3.12,0
			c-0.145-0.62,0.354-0.845,0.727-1.099c3.421-2.34,6.655-4.95,10.174-7.146c2.194-1.368,4.576-2.416,6.82-3.708
			c0.303-0.174,0.652-0.342,1-0.048C128.88,112.96,128.88,113.6,128.88,114.24z"/>
		<path fill-rule="evenodd" clip-rule="evenodd" fill="#B091A4" d="M0.24,120c0.689,0.486,1.354,1.016,2.075,1.45
			c1.328,0.799,3.33,0.471,4.381-0.632c0.387-0.406,0.196-0.902,0.305-1.35c1.62-0.241,2.169,1.156,3.077,2.007
			c0.361,0.595-0.079,0.979-0.394,1.363c-0.539,0.657-1.261,1.088-2.003,1.48c-2.28,0-4.561-0.021-6.84,0.016
			c-0.517,0.009-0.637-0.098-0.616-0.616C0.273,122.481,0.24,121.24,0.24,120z"/>
		<path fill-rule="evenodd" clip-rule="evenodd" fill="#99758C" d="M128.88,112.32c-3.493,1.728-6.983,3.457-10.17,5.731
			c-2.657,1.896-5.336,3.762-7.997,5.653c-0.22,0.156-0.37,0.408-0.554,0.615c-0.8,0-1.6,0-2.399,0
			c-0.146-0.51,0.211-0.745,0.563-0.919c2.773-1.366,5.041-3.466,7.552-5.211c2.98-2.069,6.07-3.948,9.235-5.711
			c0.802-0.446,1.579-0.929,2.353-1.422c0.427-0.272,0.885-0.606,1.417-0.177C128.88,111.36,128.88,111.84,128.88,112.32z"/>
		<path fill-rule="evenodd" clip-rule="evenodd" fill="#99758C" d="M52.08,124.32c1.078-0.965,2.477-0.567,3.662-0.636
			c4.068-0.233,7.913-1.232,11.645-2.754c2.366-0.964,4.403-2.531,6.616-3.777c0.203-0.114,0.429-0.188,0.645-0.28
			c0.083-0.112,0.164-0.111,0.243,0.004l0.018-0.019c0.095,0.151,0.063,0.351,0.184,0.492c0.054,0.067,0.07,0.143,0.049,0.225
			c0.1,0.679-0.469,0.876-0.874,1.145c-3.717,2.459-7.593,4.574-12.035,5.43c-0.117,0.022-0.217,0.097-0.313,0.171
			C58.64,124.32,55.36,124.32,52.08,124.32z"/>
		<path fill-rule="evenodd" clip-rule="evenodd" fill="#805C77" d="M78.245,120.242c-1.042,1.782-2.911,2.472-4.559,3.452
			c-0.242,0.145-0.481,0.295-0.486,0.626c-2,0-4,0-6,0c-0.109-0.645,0.427-0.798,0.82-0.999c2.362-1.206,4.738-2.388,6.904-3.936
			c0.474-0.339,0.868-0.271,1.251,0.12c0.132,0.168,0.265,0.335,0.396,0.503c0.461,0.275,1.002-0.029,1.47,0.202
			C78.114,120.19,78.181,120.201,78.245,120.242z"/>
		<path fill-rule="evenodd" clip-rule="evenodd" fill="#906B84" d="M76.175,119.505c-0.265-0.028-0.627-0.183-0.777-0.064
			c-2.449,1.911-5.313,3.095-7.994,4.594c-0.092,0.052-0.137,0.188-0.204,0.285c-1.76,0-3.52,0-5.28,0
			c0.779-0.859,1.929-0.846,2.914-1.18c3.757-1.275,7.204-3.095,10.308-5.565C75.486,118.218,75.831,118.862,76.175,119.505z"/>
		<path fill-rule="evenodd" clip-rule="evenodd" fill="#7F5B76" d="M90.24,124.32c-0.349-1.016-1.349-1.22-2.125-1.703
			c-0.776-0.482-1.849-0.784-1.235-2.088c0.861-0.314,1.702-0.707,2.64-0.763c1.096,1.334,2.614,2.149,3.927,3.219
			c0.396,0.322,1.005,0.617,0.634,1.335C92.8,124.32,91.52,124.32,90.24,124.32z"/>
		<path fill-rule="evenodd" clip-rule="evenodd" fill="#A27F95" d="M128.88,110.88c-1.956,0.61-3.554,1.898-5.337,2.834
			c-4.911,2.576-9.21,6.074-13.761,9.191c-0.679,0.464-1.606,0.577-2.022,1.414c-0.641,0-1.28,0-1.92,0
			c0.489-0.758,1.4-0.67,2.093-1.023c2.717-1.386,4.98-3.403,7.435-5.157c3.431-2.451,7.098-4.532,10.754-6.627
			c0.896-0.514,1.696-1.188,2.759-1.353C128.88,110.4,128.88,110.64,128.88,110.88z"/>
		<path fill-rule="evenodd" clip-rule="evenodd" fill="#9D7A90" d="M7.68,124.32c0.633-1.087,2.205-1.385,2.397-2.844
			c2.646,1.683,5.669,1.977,8.669,2.34c1.103,0.134,2.217,0.181,3.326,0.267c0.087,0.05,0.117,0.102,0.09,0.155
			c-0.027,0.055-0.055,0.082-0.083,0.082C17.28,124.32,12.48,124.32,7.68,124.32z"/>
		<path fill-rule="evenodd" clip-rule="evenodd" fill="#8C6781" d="M94.08,124.32c-0.578-1.505-2.142-1.901-3.236-2.819
			c-0.599-0.502-1.111-0.979-1.324-1.734c0.249-0.288,0.381-0.71,0.85-0.75c0.429-0.209,0.763-0.016,1.071,0.262
			c1.622,1.457,3.44,2.662,5.146,4.01c0.324,0.256,0.767,0.478,0.613,1.032C96.16,124.32,95.12,124.32,94.08,124.32z"/>
		<path fill-rule="evenodd" clip-rule="evenodd" fill="#99748C" d="M97.2,124.32c-2.146-1.935-4.519-3.581-6.831-5.304
			c0.484-0.515,1.112-0.769,1.77-0.969c0.242,0.918,1.041,1.354,1.67,1.939c1.827,1.701,4.042,2.86,6.032,4.333
			C98.959,124.32,98.08,124.32,97.2,124.32z"/>
		<path fill-rule="evenodd" clip-rule="evenodd" fill="#956F88" d="M8.369,100.587c-1.738-0.001-3.476-0.001-5.213-0.001
			c-0.977,0.576-1.949,0.553-2.916-0.026c0-0.08,0-0.16,0-0.24c4.099,0.018,8.197,0.028,12.296,0.064
			c0.363,0.004,0.794-0.204,1.102,0.188c-0.179,0.827-0.034,1.665-0.081,2.496c-0.014,0.232,0.051,0.508-0.199,0.644
			c-0.289,0.157-0.551,0.009-0.755-0.19c-0.541-0.529-1.29-1.024-1.433-1.72c-0.203-0.991-0.728-0.951-1.454-0.897
			C9.254,100.938,8.751,100.975,8.369,100.587z"/>
		<path fill-rule="evenodd" clip-rule="evenodd" fill="#A07C93" d="M0.24,100.56c0.971,0.009,1.943,0.017,2.915,0.025
			c0.11,0.243,0.633,0.418,0.209,0.751c-1.024,0.804-2.081,1.565-3.124,2.344C0.24,102.64,0.24,101.6,0.24,100.56z"/>
		<path fill-rule="evenodd" clip-rule="evenodd" fill="#FDFBFD" d="M128.88,99.36c-5.679-0.01-11.356-0.02-17.034-0.03
			c0.417-0.352,0.917-0.198,1.38-0.199c5.218-0.013,10.436-0.009,15.654-0.011C128.88,99.2,128.88,99.28,128.88,99.36z"/>
		<path fill-rule="evenodd" clip-rule="evenodd" fill="#484445" d="M22.08,124.32c-0.002-0.079-0.005-0.158-0.008-0.237
			c1.768,0.004,3.536,0.008,5.304,0.012c0.072,0.056,0.093,0.107,0.064,0.156c-0.028,0.046-0.054,0.069-0.081,0.069
			C25.6,124.32,23.84,124.32,22.08,124.32z"/>
		<path fill-rule="evenodd" clip-rule="evenodd" fill="#7B7277" d="M27.36,124.32c-0.005-0.076,0-0.151,0.017-0.226
			c0.318-0.001,0.635-0.003,0.953-0.004c-0.02,0.076-0.023,0.152-0.01,0.229C28,124.32,27.68,124.32,27.36,124.32z"/>
		<path fill-rule="evenodd" clip-rule="evenodd" fill="#F3DEE9" d="M86.409,56.134c1.184,0.165,2.333-0.131,3.496-0.251
			c1.96-0.225,2.965,0.609,3.005,2.495c-0.944,1.825-1.817,3.692-2.859,5.458c-0.646,1.094-2.005,1.14-3.09,1.513
			c-0.398,0.137-0.408-0.573-0.623-0.876c-0.274-0.386-0.579-0.749-0.871-1.121c0.711-0.141,1.004-0.649,1.244-1.279
			c0.53-1.393,0.785-2.817,0.624-4.297C87.263,57.117,87.093,56.468,86.409,56.134z"/>
		<path fill-rule="evenodd" clip-rule="evenodd" fill="#EBC3A4" d="M36.684,29.263c0.865-0.655,1.864-1.074,2.875-1.384
			c1.229-0.376,2.149,0.259,2.585,1.374c0.624,1.596,1.497,2.484,3.397,2.594c2.256,0.131,4.435,4.591,3.469,6.674
			c-0.139,0.298-0.338,0.534-0.019,0.842c0.267,0.258,0.518,0.273,0.865,0.17c0.739-0.219,1.428-0.67,2.29-0.278
			c0.511,0.233,0.357-0.324,0.402-0.58c0.111-0.641,0.433-1.036,1.128-0.945c0.742,0.098,1.05,0.597,0.869,1.275
			c-0.201,0.755,0.075,1.855-1.334,1.853c-0.706-0.001-0.361,0.609-0.176,0.884c0.951,1.413,0.503,2.976,0.429,4.454
			c-0.091,1.815-0.574,3.62,0.545,5.306c0.226,0.339-0.029,0.688-0.204,1.003c-0.678,1.222-1.368,2.438-2.032,3.667
			c-0.831,1.535-1.359,3.161-1.111,4.924c0.132,0.938-0.248,1.422-1.005,1.894c-1.602,0.998-2.972,2.289-4.242,3.686
			c-0.179,0.196-0.473,0.499-0.634,0.456c-0.354-0.094-0.307-0.522-0.294-0.819c0.035-0.837-0.009-1.71,0.221-2.498
			c0.381-1.308-0.197-2.045-1.205-2.664c-2.168-1.329-4.609-1.609-7.034-1.497c-3.29,0.153-6.3-0.594-9.206-2.029
			c-1.833-0.905-3.271-2.273-4.602-3.776c-0.51-0.576-0.701-1.274-0.442-2.008c0.241-0.68,0.553-1.174,1.503-0.791
			c0.82,0.332,1.73,0.595,2.651,0.466c0.427-0.06,0.341,0,0.369,0.386c0.092,1.269,0.896,1.766,2.138,1.604
			c0.333-0.044,0.676-0.097,0.702-0.498c0.027-0.419-0.367-0.452-0.652-0.574c-0.395-0.17-1.192,0.236-1.162-0.405
			c0.034-0.754,0.83-0.685,1.438-0.675c0.174,0.002,0.445-0.012,0.506-0.116c0.121-0.207-0.096-0.354-0.266-0.458
			c-0.398-0.243-0.955-0.39-0.442-1.042c0.397-0.505,0.791-0.744,1.417-0.35c1.046,0.659,2.114,1.284,3.181,1.909
			c0.929,0.544,1.867,1.096,2.976,1.163c0.82,0.049,1.639-0.051,2.119-0.827c0.474-0.766-0.063-1.394-0.465-1.961
			c-0.65-0.917-1.465-1.688-2.412-2.31c-0.197-0.13-0.479-0.232-0.43-0.512c0.067-0.386,0.422-0.278,0.683-0.293
			c1.188-0.072,2.417,0.14,3.547-0.344c0.748-0.32,1.625-0.644,1.269-1.799c-0.128-0.417,0.26-0.51,0.495-0.712
			c2.4-2.067,2.285-5.534-0.258-7.356c-0.319-0.229-0.509-0.403-0.49-0.845c0.097-2.283-0.42-2.686-2.623-2.097
			c-0.307,0.082-0.594,0.234-0.9,0.322c-0.176,0.05-0.452,0.122-0.542,0.036c-0.231-0.219,0.029-0.418,0.146-0.606
			c0.464-0.74,1.024-1.442,0.991-2.386c-0.023-0.656-0.233-1.172-0.993-1.246c-0.08-0.049-0.111-0.104-0.093-0.165
			C36.639,29.294,36.66,29.263,36.684,29.263z"/>
		<path fill-rule="evenodd" clip-rule="evenodd" fill="#C3151E" d="M54.013,67.902c-0.003-0.079-0.009-0.159-0.014-0.239
			c-0.195-3.032-0.201-3.016,2.756-2.006c0.52,0.177,0.579,0.229,0.149,0.62c-2.825,2.567-3.804,6.118-3.998,9.601
			c-0.143,2.564,0.322,5.607,3.382,6.982c0.353,0.158,0.317,0.352,0.214,0.663c-0.445,1.354-0.423,2.767-0.313,4.152
			c0.095,1.187-0.433,1.189-1.328,1.027c-3.108-0.563-6.232-1.029-9.405-0.713c-2.609,0.26-5.115,0.854-7.169,2.632
			c-1.117,0.967-2.251,0.721-3.45,0.184c-1.416-0.635-2.758-1.349-4.347-0.104c-0.918,0.719-3.14-0.838-2.952-2.009
			c0.365-2.269,0.685-4.579,1.848-6.62c2.055-3.606,3.99-7.303,6.796-10.413c1.141-1.265,2.098-2.729,4.005-3.173
			c0.734-0.171,1.251-1.182,1.923-1.743c0.653-0.545,1.173-0.496,1.229,0.507c0.049,0.878,0.061,1.757,0.118,2.634
			c0.021,0.327-0.163,0.82,0.336,0.898c0.498,0.078,0.716-0.409,0.765-0.77c0.121-0.884,0.746-1.381,1.193-2.049
			c0.797-1.188,1.667-0.841,2.58-0.6c1.393,0.367,2.376,1.434,3.518,2.23c0.4,0.279,0.722,0.928,1.305,0.653
			c0.625-0.294,0.79-0.968,0.851-1.626C54.029,68.383,54.011,68.142,54.013,67.902z"/>
		<path fill-rule="evenodd" clip-rule="evenodd" fill="#DB8D50" d="M73.97,37.415c0.56,0.417,0.851,0.921,1.005,1.658
			c0.44,2.109,1.519,3.367,3.742,4.395c1.867,0.863,2.01-0.493,2.823-0.903c0.846-0.426,1.67-0.706,2.591-0.783
			c0.476-0.04,0.973-0.023,1.369-0.347c0.177-0.144,0.406-0.328,0.438-0.521c0.047-0.291-0.28-0.383-0.5-0.401
			c-1.129-0.09-0.905-0.657-0.634-1.43c1.184-3.375-0.604-6.941-3.731-7.566c-0.795-0.159-1.784,0.273-2.311-0.777
			c-0.051-0.101-0.528-0.047-0.779,0.028c-0.224,0.067-0.166,0.308-0.125,0.513c0.22,1.108-0.476,1.779-1.681,1.626
			c-0.716-0.09-1.001,0.187-0.745,0.891c0.623,1.714-0.122,2.837-1.789,2.695c-0.246-0.021-0.219-0.19-0.211-0.327
			c0.061-0.985-0.152-1.961,0.784-2.801c2.332-2.092,4.203-4.595,5.903-7.217c0.407-0.627,0.746-0.867,1.525-0.49
			c2.037,0.985,4.307,0.667,6.463,1.005c0.473,0.074,0.948,0.136,1.411,0.249c2.091,0.507,3.003,1.896,2.727,4.124
			c-0.291,2.344,1.158,4.942,3.403,5.944c0.724,0.323,1.136,0.535,0.359,1.245c-0.355,0.325-0.456,0.878-0.087,1.179
			c0.388,0.316,0.585-0.251,0.812-0.474c1.529-1.498,3.362-2.074,5.465-1.842c0.359,0.04,0.745,0.215,0.94-0.222
			c0.212-0.473-0.112-0.819-0.484-0.949c-0.569-0.2-0.546-0.349-0.262-0.86c1.75-3.145-0.294-7.326-3.828-7.918
			c-0.274-0.046-0.56-0.066-0.72-0.347c0.203-0.106,0.401-0.222,0.609-0.317c1.12-0.515,2.245-1.022,3.365-1.538
			c0.771-0.355,1.341-0.309,1.655,0.634c0.225,0.675,0.588,1.305,0.891,1.954c0.436,0.935,0.813,1.634,2.123,0.889
			c0.993-0.566,1.15,0.685,1.443,1.262c0.313,0.62,0.822,1.59-0.262,1.9c-1.245,0.356-0.954,0.721-0.619,1.711
			c0.621,1.833,0.223,3.8-0.102,5.684c-1.314,7.625-6.542,10.836-13.853,12.083c-3.866,0.658-7.631,0.332-11.241-1.339
			c-1.565-0.724-2.887-1.702-3.83-3.149c-1.853-2.842-3.572-5.749-4.33-9.111C73.769,37.302,73.861,37.291,73.97,37.415z"/>
		<path fill-rule="evenodd" clip-rule="evenodd" fill="#DB8D50" d="M68.903,73.432c-1.152,1.966-3.221,2.628-5.078,3.604
			c-0.367,0.192-1.281,0.161-0.846,0.938c0.384,0.686,1.004,0.276,1.426-0.093c0.904-0.792,2.064-1.174,3.126-1.403
			c0.955-0.207,0.933,1.209,0.767,1.615c-1.146,2.805-0.57,5.675-0.566,8.528c0.003,2.389-0.237,4.699-2.336,6.366
			c-0.703,0.558-0.791,1.54-1.066,2.368c-0.373,1.119-1.104,1.636-2.316,1.677c-5.047,0.171-10.019-0.54-14.992-1.226
			c-0.98-0.135-1.542-0.076-1.721,1.105c-0.153,1.017-0.882,1.861-1.88,2.167c-0.989,0.303-0.806,0.688-0.515,1.43
			c0.54,1.38,0.822,2.833,0.37,4.318c-0.05,0.167-0.182,0.31-0.275,0.463c-0.119-0.141-0.272-0.264-0.352-0.424
			c-0.615-1.236-0.559-2.627-0.884-3.931c-0.077-0.31-0.036-0.708-0.402-0.784c-0.413-0.085-0.689,0.277-0.8,0.597
			c-0.218,0.631-0.274,1.318-0.5,1.945c-0.365,1.015-0.872,2.505-1.878,2.328c-0.915-0.161-0.435-1.71-0.388-2.644
			c0.042-0.828,0.297-1.645,0.44-2.47c0.039-0.222,0.102-0.592,0.001-0.657c-0.288-0.186-0.51,0.097-0.694,0.297
			c-0.667,0.722-0.963,1.638-1.317,2.528c-0.396,0.996-0.986,2.611-1.908,2.2c-0.893-0.398,0.012-1.877,0.482-2.804
			c0.342-0.675,0.767-1.309,1.109-1.983c0.108-0.214,0.391-0.501,0.087-0.748c-0.282-0.229-0.641-0.146-0.883,0.071
			c-0.383,0.345-0.727,0.738-1.056,1.137c-1.124,1.357-2.696,1.453-4.259,1.454c-0.737,0-0.29-0.447-0.107-0.697
			c1.145-1.563,2.622-2.8,4.098-4.019c1.044-0.861,0.77-1.484-0.14-2.128c-0.618-0.438-1.306-0.79-1.867-1.287
			c-0.446-0.395-1.034-0.864-0.621-1.616c0.418-0.761,1.166-0.858,1.875-0.645c0.712,0.215,1.389,0.587,2.039,0.964
			c1.266,0.736,2.471,0.687,3.529-0.306c2.098-1.97,4.764-2.343,7.415-2.579c2.294-0.204,4.631-0.213,6.878,0.513
			c1.294,0.418,2.816-0.123,3.956,0.979c0.272,0.264,0.613,0.042,0.844-0.2c0.203-0.212,0.255-0.433,0.111-0.75
			c-0.88-1.939-0.771-3.987-0.08-5.874c0.624-1.701,0.55-3.092-0.1-4.787c-0.808-2.107-1.475-4.381-0.111-6.664
			c1.28-2.144,3.271-2.771,5.537-2.984c0.417-0.039,0.661,0.217,0.903,0.489c1.128,1.269,2.863,1.902,3.605,3.606
			c0.285,0.656,0.71-0.041,1.057-0.197C68.856,73.098,68.929,73.199,68.903,73.432z"/>
		<path fill-rule="evenodd" clip-rule="evenodd" fill="#DB8D50" d="M36.226,45.703c-1.326-0.145-2.594-0.283-3.864-0.42
			c-0.449-0.049-1.097-0.411-1.262,0.192c-0.201,0.732,0.563,0.83,1.078,0.991c2.012,0.631,3.609,1.836,4.853,3.518
			c0.224,0.303,0.596,0.663,0.333,1.067c-0.258,0.397-0.724,0.213-1.106,0.147c-1.777-0.308-3.326-1.101-4.686-2.267
			c-1.648-1.413-2.123-1.382-3.386,0.271c-0.999,1.308-2.912,1.604-4.667,0.571c-0.743-0.438-1.238-0.309-1.6,0.304
			c-0.718,1.217-1.421,2.38-0.598,3.961c0.731,1.407,0.472,3.077,0.146,4.569c-0.16,0.732-0.279,1.454-0.366,2.194
			c-0.171,1.441-0.5,2.842-1.537,3.936c-0.909,0.96-0.531,1.43,0.56,1.694c1.917,0.465,1.918,0.465,1.126,2.217
			c-0.591,1.307-1.235,2.594-1.756,3.928c-0.261,0.669-0.536,0.627-1.051,0.346c-3.074-1.678-5.887-3.686-8.258-6.289
			c-0.469-0.516-0.654-1.032-0.627-1.718c0.156-3.967,1.44-7.564,3.537-10.891c0.837-1.328,1.483-2.734,1.988-4.212
			c1.429-4.18,3.689-7.826,6.901-10.879c0.646-0.614,1.091-1.196,0.841-2.334c-0.424-1.938,0.489-3.732,1.315-5.464
			c0.073-0.155,0.283-0.244,0.429-0.364c0.112,0.159,0.289,0.304,0.325,0.478c0.172,0.83,0.688,1.553,0.412,2.531
			c-0.192,0.681,0.082,1.497,0.167,2.25c0.046,0.409,0.276,0.635,0.717,0.645c1.357,0.032,2.59,0.071,3.628-1.227
			c1.523-1.905,3.349-3.556,5.722-4.414c0.264-0.096,0.606-0.416,0.865-0.113c0.246,0.287-0.071,0.602-0.195,0.875
			c-0.95,2.107-2.772,3.474-4.304,5.093c-0.395,0.417-1.47,0.845-0.827,1.516c0.702,0.732,1.342-0.184,1.869-0.679
			c1.53-1.438,3.316-2.458,5.268-3.17c0.41-0.15,1.081-0.646,1.383-0.022c0.237,0.489,0.143,1.278-0.285,1.683
			c-1.381,1.304-2.621,2.831-4.586,3.34c-0.618,0.16-1.377,0.249-1.455,1.025c-0.07,0.702,0.548,1.142,1.066,1.489
			c1.103,0.739,2.448,0.924,3.638,1.468c0.589,0.269,1.533,0.485,1.471,1.165c-0.053,0.578-0.979,0.68-1.612,0.779
			C37.287,45.568,36.734,45.634,36.226,45.703z"/>
		<path fill-rule="evenodd" clip-rule="evenodd" fill="#C5311C" d="M54.436,47.572c0.057-1.834,0.424-3.651,0.257-5.5
			c-0.028-0.307,0.226-0.662,0.405-0.961c0.379-0.632,0.628-1.327,0.559-2.039c-0.088-0.905-0.24-1.923-1.169-2.351
			c-0.944-0.435-1.782,0.002-2.437,0.768c-0.37,0.432-1.023,0.619-1.395,0.532c-0.583-0.137,0.068-0.685-0.02-1.088
			c-0.28-1.284-0.885-2.374-1.74-3.353c-0.604-0.691-1.259-1.357-1.748-2.125c-0.406-0.637-0.889-0.894-1.581-0.789
			c-1.086,0.165-1.7-0.323-2.135-1.287c-0.274-0.608-0.719-1.151-1.147-1.675c-0.986-1.208-2.294-1.36-3.562-0.68
			c-2.1,1.126-4.307,1.359-6.616,1.232c-1.636-0.089-2.887,0.631-3.985,1.828c-1.294,1.411-1.459,1.354-2.503-0.168
			c-0.734-1.07-1.539-1.047-2.088,0.124c-0.537,1.146-1.253,2.038-2.356,2.742c-1.601,1.021-2.617,2.67-3.824,4.104
			c-0.716,0.85-2.184,1.005-3.099,0.358c-0.529-0.374-0.134-0.583,0.065-0.845c0.626-0.823,1.423-1.57,1.634-2.613
			c0.126-0.627,0.667-1.479-0.542-1.834c-0.556-0.164-0.083-0.5,0.102-0.658c0.728-0.624,1.494-1.201,2.225-1.82
			c0.461-0.391,0.967-0.862,0.973-1.462c0.014-1.456,1.031-1.737,2.104-2.1c1.974-0.667,3.88-1.381,4.991-3.429
			c0.484-0.892,1.735-0.857,2.688-1.087c1.396-0.336,2.793-0.614,3.928-1.614c0.83-0.732,1.807-0.283,2.62-0.01
			c1.865,0.627,3.604,0.709,5.45-0.148c1.165-0.541,2.416-0.111,3.577,0.403c1.279,0.568,2.445,1.533,4.044,0.953
			c0.537-0.195,0.352,0.672,0.745,0.899c0.739,0.426,1.62,0.685,1.425,1.949c-0.078,0.507,0.794,0.82,1.357,1.025
			c0.863,0.314,1.536,0.841,2.004,1.628c2.091,3.517,3.886,7.144,4.547,11.25c0.166,1.036,0.008,2.019-0.239,2.952
			c-0.689,2.607-1.199,5.282-2.484,7.701c-0.231,0.435-0.324,1.201-0.859,1.09c-0.393-0.081-0.11-0.847-0.167-1.303
			C54.416,47.974,54.436,47.771,54.436,47.572z"/>
		<path fill-rule="evenodd" clip-rule="evenodd" fill="#BEA2B3" d="M51.805,118.818c-1.71-0.218-2.97-2.443-2.231-4.048
			c0.286-0.621,1.027-0.519,1.586-0.596c3.387-0.467,6.762-0.984,10.075-1.86c1.48-0.392,2.622-1.17,3.579-2.408
			c1.682-2.175,3.613-4.154,5.113-6.477c0.259-0.402,0.7-0.739,0.817-1.171c0.653-2.417,2.396-2.531,4.491-2.479
			c4.473,0.115,8.951,0.04,13.426-0.02c0.936-0.013,1.415,0.257,1.14,1.18c-0.546,1.825-0.512,3.751-1.328,5.567
			c-0.495,1.104-0.16,2.592-1.107,3.658c-0.412,0.303-0.841,0.185-1.254,0.021c-3.668-1.441-7.039-0.29-10.189,1.445
			c-2.785,1.534-5.424,3.349-8.118,5.053c-2.944,1.862-6.259,2.722-9.679,3.191c-0.552,0.076-1.103,0.188-1.662,0.208
			c-1.342,0.05-2.724,0.276-3.781-0.915C52.476,118.937,52.097,118.94,51.805,118.818z"/>
		<path fill-rule="evenodd" clip-rule="evenodd" fill="#50281F" d="M96.467,20.156c1.77,0.086,3.491-0.05,5.16-0.741
			c0.914-0.378,1.387-1.039,1.261-1.909c-0.148-1.028,0.292-0.637,0.77-0.483c1.118,0.361,2.04,1.053,3.018,1.671
			c6.212,3.932,8.97,9.776,9.776,16.89c0.464,4.092-0.239,7.758-2.623,11.089c-2.105,2.942-5.022,4.199-8.599,3.951
			c-1.109-0.077-1.362-1.081-1.808-1.856c-0.396-0.69,0.18-0.99,0.531-1.397c3.385-3.925,5.103-8.378,4.311-13.628
			c-0.064-0.425-0.052-0.81,0.343-1.186c1.353-1.292,0.397-5.038-1.485-5.188c-1.749-0.14-2.186-1.166-2.689-2.363
			c-0.572-1.358-1.409-1.75-2.836-1.179c-2.428,0.973-4.79,2.144-7.452,2.461c-1.132,0.135-2.229,0.167-3.312-0.131
			c-2.543-0.699-5.224-0.432-7.759-1.153c-0.217-0.062-0.525-0.118-0.604-0.272c-0.135-0.265,0.15-0.43,0.369-0.502
			C87.343,22.743,91.447,19.908,96.467,20.156z"/>
		<path fill-rule="evenodd" clip-rule="evenodd" fill="#DAE087" d="M97.82,98.986c-1.794-0.138-3.592-0.045-5.389-0.255
			c-1.1-0.129-1.359-0.583-1.378-1.615c-0.085-4.522,1.231-8.799,2.196-13.138c0.301-1.354,0.226-3.201,1.08-3.907
			c0.857-0.709,2.681-0.143,4.042-0.369c3.645-0.604,7.406-0.883,10.604-3.03c2.394-1.608,3.792-3.933,4.529-6.681
			c0.081-0.301-0.002-0.678,0.358-0.806c0.045-0.017,0.279,0.433,0.392,0.682c0.959,2.122,1.479,4.368,1.831,6.657
			c0.028,0.178,0.071,0.661-0.258,0.335c-0.653-0.649-1.105-0.094-1.592,0.127c-2.466,1.118-4.863,2.4-7.515,3.064
			c-0.334,0.084-0.758,0.139-0.709,0.644c0.353,3.604,0.011,7.253,0.77,10.836c0.203,0.955,0.653,1.155,1.495,1.038
			c2.916-0.405,5.54-1.445,7.729-3.469c0.226-0.209,0.567-0.53,0.769-0.477c0.377,0.1,0.306,0.571,0.361,0.918
			c0.323,2.021-0.348,3.441-2.31,4.282c-3.906,1.674-7.564,3.951-11.763,4.902C101.347,99.114,99.578,99.105,97.82,98.986z"/>
		<path fill-rule="evenodd" clip-rule="evenodd" fill="#DAE087" d="M101.981,67.903c-0.835,0.019-1.671,0.087-1.982-0.998
			c-0.087-0.301-0.478-0.525-0.797-0.385c-1.551,0.682-0.719-0.557-0.731-0.96c-0.013-0.417,0.16-0.861,0.333-1.259
			c0.219-0.503,0.203-2.014,1.12-0.341c0.148,0.271,0.456,0.316,0.747,0.267c0.605-0.104,1.036-0.479,1.215-1.035
			c0.229-0.714,0.14-1.411-0.377-2.023c-0.413-0.489-0.782-0.36-1.245-0.068c-0.457,0.287-0.405,0.035-0.313-0.337
			c0.388-1.578,0.841-3.122,1.685-4.534c0.641-1.074,1.567-1.198,2.421-0.25c0.268,0.296,0.47,0.656,0.758,0.926
			c0.405,0.379,0.658,1.191,1.369,0.886c0.631-0.271,0.688-1.003,0.773-1.656c0.067-0.518-0.319-1.376,0.066-1.459
			c0.498-0.107,0.986,0.579,1.349,1.05c2.486,3.233,3.964,6.942,4.516,10.924c0.601,4.339-2.93,9.195-7.207,10.398
			c-3.574,1.005-7.193,1.731-10.929,1.758c-0.828,0.006-1.216-0.003-0.864-1.081c0.716-2.193,1.178-4.459,0.671-6.798
			c-0.156-0.718,0.023-1,0.889-1.199c3.642-0.837,7.27-0.981,10.906-0.138c1.174,0.272,1.325-0.474,1.374-1.215
			c0.084-1.273,0.046-2.558,0.011-3.835c-0.021-0.771,0.103-1.501,0.392-2.208c0.112-0.275,0.43-0.57,0.003-0.809
			c-0.316-0.177-0.614-0.013-0.871,0.211c-0.492,0.43-0.574,1.048-0.657,1.623c-0.073,0.503-0.024,1.043,0.072,1.546
			c0.581,2.998,0.428,3.212-2.45,3.229c-0.233-0.161-0.657,0.029-0.754-0.233c-0.146-0.397,0.311-0.469,0.542-0.648
			c0.15-0.118,0.384-0.212,0.313-0.437c-0.078-0.242-0.327-0.155-0.514-0.14c-0.196,0.018-0.39,0.068-0.586,0.085
			C102.021,66.867,102.021,66.866,101.981,67.903z"/>
		<path fill-rule="evenodd" clip-rule="evenodd" fill="#303885" d="M19.908,103.913c0.076-1.263,0.234-2.671,0.708-4.055
			c0.333-0.974-0.169-2.007,0.226-3.089c1.208-3.302,4.363-5.512,7.874-5.297c0.62,0.038,1.017,0.188,1.195,0.882
			c0.309,1.202,1.229,1.985,2.266,2.512c1.104,0.561,0.875,1.064,0.179,1.728c-1.186,1.132-2.367,2.268-3.535,3.418
			c-0.459,0.452-0.94,0.948-0.654,1.673c0.304,0.77,0.996,0.796,1.707,0.806c1.023,0.014,1.967-0.308,2.911-0.62
			c0.54-0.179,0.667-0.116,0.436,0.447c-0.163,0.399-0.354,0.85-0.316,1.258c0.111,1.198-0.137,1.781-1.521,1.383
			c-0.835-0.24-0.962,0.548-1.049,1.127c-0.229,1.524,0.033,3.025,0.318,4.52c0.316,1.655,0.568,3.312,0.262,5.001
			c-0.092,0.504-0.212,0.93-0.878,0.889c-2.269-0.14-4.551-0.162-6.765-0.764c-1.566-0.425-2.342-1.38-2.438-3.088
			C20.673,109.78,19.993,106.964,19.908,103.913z"/>
		<path fill-rule="evenodd" clip-rule="evenodd" fill="#F6E5F0" d="M80.938,98.887c-2.598-0.002-5.196-0.059-7.79,0.025
			c-1.089,0.035-1.003-0.294-0.707-1.098c1-2.719,1.947-5.462,1.959-8.411c0.012-2.921-0.768-4.006-3.529-5.015
			c-2.783-1.016-2.893-1.197-2.155-4.111c0.235-0.926,0.568-1.849,0.478-2.8c-0.089-0.937,0.441-1.288,1.136-1.575
			c0.421-0.174,0.972-0.268,1.258,0.033c0.425,0.444-0.285,0.597-0.446,0.9c-0.537,1.016-0.642,2.028,0.18,2.882
			c0.558,0.58,0.517,0.854-0.146,1.229c-0.737,0.416-1.642,1.023-1.374,1.868c0.274,0.865,1.385,0.852,2.219,0.733
			c2.296-0.328,4.513-0.257,6.847,0.128c2.852,0.469,5.377-0.833,7.227-3.173c0.173-0.218,0.306-0.471,0.493-0.676
			c0.33-0.361,0.628-1.107,1.145-0.788c0.41,0.255-0.133,0.85-0.294,1.27c-1.753,4.576-3.027,9.273-3.459,14.165
			c-0.195,2.223,2.597,4.398,4.827,3.854c0.378-0.093,0.74-0.365,1.097,0c0.063,0.064,0.081,0.256,0.032,0.331
			c-0.276,0.427-0.721,0.154-1.085,0.229c-0.038,0.008-0.079,0.001-0.12,0.001C86.131,98.889,83.535,98.889,80.938,98.887z"/>
		<path fill-rule="evenodd" clip-rule="evenodd" fill="#399848" d="M73.455,89.965c-1.027,5.292-1.692,10.711-5.498,15.01
			c-0.739,0.835-1.459,1.702-2.082,2.626c-1.746,2.593-4.03,4.176-7.228,4.538c-2.563,0.291-5.098,0.864-7.628,1.397
			c-2.95,0.62-5.78-0.163-8.649-0.577c-1.02-0.146-2.06-0.156-3.08-0.303c-2.764-0.396-4.637-2.317-6.64-3.991
			c-0.242-0.202-0.45-0.441-0.748-0.546c-1.083-0.38-0.594-1.217-0.418-1.807c0.236-0.792,0.932-0.358,1.279-0.116
			c3.115,2.176,6.934,2.407,10.323,3.811c0.653,0.271,1.29,0.283,1.98,0.2c3.635-0.439,7.286-0.766,10.909-1.285
			c2.736-0.393,5.412-1.079,7.425-3.211c0.164-0.174,0.399-0.338,0.457-0.546c0.708-2.533,2.411-4.617,3.115-7.187
			c0.428-1.565,1.535-2.946,2.35-4.403c1.223-2.191,2.051-4.488,1.966-7.045c-0.007-0.22,0.079-0.442,0.122-0.663
			c0.247,0.102,0.556,0.14,0.732,0.313C73.188,87.213,73.405,88.536,73.455,89.965z"/>
		<path fill-rule="evenodd" clip-rule="evenodd" fill="#DA8C50" d="M93.091,72.721c-0.104,1.263-0.179,2.534-0.663,3.733
			c-0.502,1.241-1.286,1.884-2.696,1.435c-1.976-0.629-3.279,0.19-4.395,1.842c-1.321,1.957-3.269,3.008-5.676,3.086
			c-1.342,0.044-2.528-0.65-3.841-0.842c-0.935-0.137-1.665,0.002-2.459,0.348c-0.714,0.311-1.466,0.352-2.222,0.167
			c-0.02-0.005-0.029-0.349,0.05-0.407c0.749-0.553,1.373-1.395,2.469-1.22c0.511,0.081,1.006,0.252,1.515,0.352
			c0.311,0.061,0.639,0.116,0.948,0.081c0.539-0.063,1.349-0.084,1.288-0.75c-0.061-0.68-0.753-0.493-1.352-0.448
			c-1.47,0.111-2.708-0.818-4.093-1.159c-0.456-0.112-0.318-0.819-0.13-1.175c0.228-0.426,0.548,0.009,0.781,0.128
			c1.135,0.582,2.223,1.279,3.555,1.326c0.584,0.021,1.265-0.056,1.301-0.734c0.034-0.633-0.665-0.337-1.042-0.457
			c-1.022-0.325-2.03-0.698-3.063-0.988c-0.6-0.168-0.491-0.442-0.18-0.736c0.664-0.629,1.308-1.353,2.328-0.479
			c0.279,0.239,0.733,0.326,1.121,0.375c0.603,0.076,1.532,0.414,1.668-0.367c0.148-0.864-0.795-0.354-1.229-0.467
			c-1.73-0.449-4.016-3.585-3.56-5.317c0.229-0.868,0.88-1.863,1.55-2.377c0.59-0.452,0.918,0.573,1.072,1.25
			c0.326,1.429,0.373,2.938,1.154,4.243c1.575,2.63,4.331,2.655,5.866,0.01c1.231-2.12,1.507-4.406,0.939-6.796
			c-0.178-0.75-0.351-1.797,0.466-1.973c0.637-0.137,1,0.909,1.12,1.62c0.213,1.257,0.294,2.536,0.517,3.792
			c0.298,1.681,1.071,2.051,2.647,1.322c0.542-0.25,1.041-0.59,1.577-0.854c1.583-0.783,2.393-0.37,2.658,1.361
			C93.137,71.996,93.091,72.362,93.091,72.721z"/>
		<path fill-rule="evenodd" clip-rule="evenodd" fill="#C3151E" d="M24.293,66.269c0.742,0.282,1.502,0.524,2.223,0.854
			c1.77,0.809,3.554,0.657,5.377,0.224c2.487-0.591,4.898-1.401,7.266-2.356c0.272-0.109,0.59-0.417,0.839-0.067
			c0.063,0.087-0.264,0.434-0.388,0.673C37.583,69.52,33.651,72,31.734,76.003c-0.16,0.333-0.365,0.524-0.745,0.415
			c-3.518-1.021-7.199-0.678-10.768-1.283c-0.521-0.088-0.727-0.153-0.458-0.723c1.14-2.412,2.239-4.844,3.375-7.259
			C23.349,66.706,23.539,66.13,24.293,66.269z"/>
		<path fill-rule="evenodd" clip-rule="evenodd" fill="#DAE087" d="M96.169,19.184c-3.047-0.049-5.714,0.457-8.214,1.716
			c-0.377,0.189-0.749,0.48-0.98-0.064c-0.19-0.448-0.782-0.882-0.164-1.475c0.454-0.437,0.907-0.91,1.224-1.448
			c0.488-0.829,0.271-1.611-0.424-2.265c-0.754-0.71-1.352-0.14-2.047,0.157c-0.31,0.132-0.448,1.392-1.158,0.242
			c-0.52-0.84-0.271-1.069,0.489-1.44c3.906-1.909,7.682-4.055,11.259-6.53c0.675-0.466,1.047-0.501,1.461,0.281
			c1.418,2.675,2.621,5.448,3.841,8.215c0.477,1.083,0.164,1.684-1.014,1.963C98.946,18.89,97.5,19.517,96.169,19.184z"/>
		<path fill-rule="evenodd" clip-rule="evenodd" fill="#BFA2B3" d="M103.201,104.158c-0.239,1.786,1.593,3.026,1.253,4.865
			c-0.186,1-0.191,2.034-0.283,3.053c-0.017,0.186-0.006,0.354-0.244,0.474c-2.121,1.073-2.892,2.983-2.118,5.234
			c0.114,0.334,0.303,0.642,0.456,0.962c0.193,0.507,0.639,0.805,0.982,1.188c0.187,0.209,0.42,0.413,0.254,0.725
			c-0.146,0.274-0.436,0.341-0.721,0.343c-1.043,0.009-1.959-0.388-2.75-1.018c-1.182-0.943-2.382-1.874-3.277-3.124
			c-0.278-0.391-0.617-0.737-1.012-1.011c-1.001-0.689-1.779-1.525-1.959-2.787c-1.387-1.445-1.017-2.776,0.151-4.173
			c1.044-1.248,1.507-2.837,2.22-4.278c0.423-0.583,1.001-0.797,1.713-0.869c1.298-0.132,2.59-0.271,3.896-0.207
			C102.32,103.561,102.883,103.577,103.201,104.158z"/>
		<path fill-rule="evenodd" clip-rule="evenodd" fill="#EBC7D6" d="M29.375,66.613c-1.279,0.098-2.328-0.536-3.442-0.955
			c-1.127-0.424-2.263-1.095-3.388,0.143c-0.447,0.491-0.923-0.168-1.372-0.318c-0.599-0.2-0.179-0.595-0.049-0.865
			c1.233-2.579,1.588-5.328,1.637-8.143c0.004-0.256-0.18-0.61,0.137-0.756c0.323-0.149,0.485,0.206,0.655,0.395
			c3.126,3.481,7.252,4.415,11.669,4.538c2.162,0.06,4.31,0.141,6.368,0.875c0.428,0.153,1.189,0.35,1.076,0.763
			c-0.15,0.548-0.762,1.082-1.421,1.078c-1.419-0.007-2.65,0.546-3.847,1.165C34.868,65.84,32.049,65.936,29.375,66.613z"/>
		<path fill-rule="evenodd" clip-rule="evenodd" fill="#303885" d="M14.637,102.844c0.298-2.656,0.202-5.34,0.689-7.983
			c0.794-4.306,6.156-7.584,10.384-6.4c1.155,0.323,0.436,1.192,0.767,1.737c0.308,0.508-0.268,0.631-0.541,0.69
			c-3.626,0.799-4.891,3.433-6.106,6.675c-1.563,4.17-0.967,8.148-0.326,12.224c0.153,0.972-0.261,0.908-0.848,0.859
			c-1.724-0.144-2.727-1.197-3.284-2.73C14.777,106.281,14.722,104.559,14.637,102.844z"/>
		<path fill-rule="evenodd" clip-rule="evenodd" fill="#DAE087" d="M116.364,85.917c-0.041,1.165-0.409,2.122-1.405,2.868
			c-1.846,1.382-3.791,2.459-6.139,2.676c-0.68,0.063-0.95-0.106-1.105-0.844c-0.622-2.961-0.429-5.953-0.495-8.937
			c-0.012-0.519,0.245-0.711,0.661-0.833c2.153-0.632,4.156-1.623,6.152-2.62c0.722-0.361,0.841-0.241,1.022,0.545
			C115.6,81.137,116.181,83.489,116.364,85.917z"/>
		<path fill-rule="evenodd" clip-rule="evenodd" fill="#DAE087" d="M83.982,21.918c0.098,0.395-0.084,0.584-0.456,0.685
			c-3.577,0.971-6.168,3.513-8.979,5.692c-0.534,0.415-0.864,0.582-1.304-0.08c-0.482-0.726-1.106-1.361-1.564-2.1
			c-0.879-1.419-1.596-2.94-2.845-4.11c-0.228-0.213-0.863-0.67,0.061-0.867c4.208-0.896,7.919-3.02,11.798-4.732
			c0.431-0.19,1.224-0.758,1.339-0.257c0.149,0.653,1.099,1.671-0.318,2.271c-0.433,0.183-1.519,0.487-0.751,1.303
			c0.604,0.641,0.612,2.503,2.329,1.429C83.718,20.884,83.963,21.173,83.982,21.918z"/>
		<path fill-rule="evenodd" clip-rule="evenodd" fill="#B292A6" d="M51.805,118.818c1.313,0.14,2.321,1.138,3.813,0.991
			c4.644-0.454,9.073-1.37,13.01-4.093c2.481-1.718,4.999-3.456,7.703-4.766c3.286-1.591,6.792-2.659,10.445-0.868
			c0.169,0.083,0.391,0.058,0.588,0.083c-0.046,0.3-0.214,0.613-0.492,0.601c-3.955-0.183-7.224,1.66-10.492,3.509
			c-1.905,0.253-3.338,1.481-4.803,2.516c-5.135,3.625-10.841,5.296-17.07,5.369c-0.478,0.006-0.978,0.061-1.236-0.49
			C54.277,119.95,52.78,119.518,51.805,118.818z"/>
		<path fill-rule="evenodd" clip-rule="evenodd" fill="#DAE087" d="M87.058,67.713c-0.33-1.951,1.332-1.856,2.367-2.12
			c0.73-0.187,1.055-0.478,1.357-1.087c0.938-1.891,1.771-3.85,3.049-5.546c0.454-0.604,0.688-1.527,1.911-1.298
			c0.465,0.088,1.101-0.689,1.647-1.088c0.513-0.375,1.02-0.568,1.651-0.245c0.614,0.314,0.515,0.854,0.485,1.355
			c-0.152,2.618-1.24,4.993-1.968,7.461c-0.124,0.419-0.282,0.827-0.403,1.247c-0.583,2.021-1.848,2.818-3.977,2.502
			c-0.324-0.048-0.705-0.079-0.688-0.49c0.017-0.38,0.2-0.566,0.711-0.497c0.846,0.115,0.784-0.603,0.604-1.059
			c-0.756-1.91-0.508-3.674,0.604-5.354c0.349-0.527,0.005-0.85-0.361-1.088c-0.519-0.337-0.629,0.191-0.704,0.482
			c-0.395,1.524-1.027,2.996-0.969,4.621c0.061,1.676-2.747,4.679-4.388,4.747c-0.404,0.018-0.583-0.167-0.636-0.539
			C87.257,69.049,87.156,68.381,87.058,67.713z"/>
		<path fill-rule="evenodd" clip-rule="evenodd" fill="#303885" d="M48.894,106.685c0-0.359-0.009-0.719,0.001-1.077
			c0.055-1.829,0.575-2.368,2.365-2.654c3.167-0.508,6.376-0.084,9.545-0.486c0.355-0.045,0.717-0.043,1.075-0.063
			c0.622-0.035,1.481-0.739,1.794,0.025c0.286,0.698-0.036,1.64-0.632,2.306c-1.522,1.702-3.454,2.678-5.682,3.004
			c-2.592,0.38-5.2,0.645-7.799,0.974c-0.481,0.061-0.777,0.021-0.703-0.593c0.057-0.472,0.011-0.956,0.011-1.435
			C48.879,106.685,48.886,106.685,48.894,106.685z"/>
		<path fill-rule="evenodd" clip-rule="evenodd" fill="#DA8C50" d="M96.162,100.962c-0.296,1.758-0.854,3.508-1.814,5.07
			c-1.266,2.059-2.59,4.036-2.467,6.63c0.045,0.958-1.026,0.823-1.629,1.085c-0.542,0.235-0.788-0.242-0.945-0.659
			c-0.467-1.234-1.606-2.129-0.608-3.88c1.439-2.525,1.109-5.624,1.773-8.433c0.159-0.672,0.326-0.989,1.036-0.953
			c1.312,0.068,2.626,0.081,3.938,0.145C96.011,99.995,96.354,100.264,96.162,100.962z"/>
		<path fill-rule="evenodd" clip-rule="evenodd" fill="#DA8C50" d="M109.698,99.548c-0.418,3.212-0.543,6.719-0.711,10.222
			c-0.021,0.439-0.182,0.647-0.562,0.772c-0.896,0.296-1.621,0.842-2.248,1.536c-0.175,0.194-0.323,0.55-0.647,0.414
			c-0.318-0.133-0.146-0.49-0.17-0.749c-0.171-1.815,0.563-3.772-0.359-5.428c-0.959-1.723-1.19-3.495-1.304-5.37
			c-0.062-1.019,0.354-1.572,1.289-1.854c1.027-0.31,2.05-0.638,3.063-0.987C109.717,97.528,109.728,97.528,109.698,99.548z"/>
		<path fill-rule="evenodd" clip-rule="evenodd" fill="#50281F" d="M73.699,41.006c0.888,1.781,1.799,3.545,2.797,5.274
			c2.171,3.761,5.643,5.19,9.663,5.806c3.154,0.483,6.271,0.226,9.374-0.389c0.629-0.125,0.736,0.039,0.481,0.596
			c-0.192,0.422-0.457,0.701-0.921,0.855c-2.264,0.755-4.599,1.286-6.89,1.923c-2.127,0.592-4.318-0.488-6.367-1.231
			c-3.851-1.397-6.461-3.957-7.245-8.162c-0.29-1.555-1.134-2.985-1.18-4.614C73.481,40.916,73.576,40.896,73.699,41.006z"/>
		<path fill-rule="evenodd" clip-rule="evenodd" fill="#DAE087" d="M84.66,93.58c0.021-0.318,0.021-0.64,0.066-0.954
			c0.095-0.658,0.217-1.1,1.115-0.689c1.961,0.895,1.984,0.84,2.793-1.114c1.133-2.735,1.479-5.666,2.088-8.527
			c0.197-0.927-0.715-0.84-1.309-0.986c-0.438-0.108-1.336,0.146-1.115-0.605c0.189-0.642,0.378-1.693,1.561-1.563
			c0.467,0.052,0.953,0.015,1.419-0.056c0.592-0.091,1.742,0.914,1.615,1.503c-0.562,2.6-1.199,5.185-1.712,7.795
			c-0.389,1.981-0.6,3.997-0.945,5.988c-0.412,2.375-1.11,3.244-2.391,3.118C85.85,97.292,84.625,95.79,84.66,93.58z"/>
		<path fill-rule="evenodd" clip-rule="evenodd" fill="#305435" d="M55.952,101.742c-2.256,0-4.056-0.113-5.801,0.456
			c-1.822,0.595-2.383,1.337-2.385,3.218c0,0.76-0.02,1.52,0.008,2.277c0.027,0.723-0.09,1.189-0.991,1.286
			c-0.911,0.097-1.178-0.282-1.334-1.065c-0.586-2.939,1.8-6.532,4.689-7.426c4.594-1.421,9.439-1.174,14.071-2.298
			c0.453-0.109,1.323-0.421,1.509,0.427c0.182,0.823-0.603,0.915-1.146,1.316C61.79,101.989,58.609,101.637,55.952,101.742z"/>
		<path fill-rule="evenodd" clip-rule="evenodd" fill="#FFFFFF" d="M76.286,38.061c0.258-2.049,0.808-4.028,2.692-5.14
			c1.296-0.765,4.067,0.642,4.705,2.17c0.957,2.293-0.067,4.917-2.305,5.917c-0.327,0.146-0.637,0.407-0.971,0.439
			c-0.373,0.036-1.311,1.289-1.081-0.502c0.104-0.803-0.89-1.755-1.854-1.292c-1.471,0.708-1.094-0.325-1.184-0.995
			C76.263,38.462,76.286,38.26,76.286,38.061z"/>
		<path fill-rule="evenodd" clip-rule="evenodd" fill="#FFFFFF" d="M97.444,28.059c3.325-0.13,4.498,2.802,4.404,5.076
			c-0.077,1.849-2.822,3.417-4.655,2.89c-0.503-0.145-0.225-0.371-0.198-0.608c0.111-0.983-0.752-1.891-1.698-1.796
			c-1.146,0.114-2.232-1.368-1.862-2.539C94.073,29.062,95.383,28.074,97.444,28.059z"/>
		<path fill-rule="evenodd" clip-rule="evenodd" fill="#C2151E" d="M20.761,117.687c3.068-0.063,6.087,0.879,9.181,0.411
			c0.385-0.058,0.714,0.242,0.883,0.532c0.263,0.452-0.367,0.381-0.487,0.644c-0.147,0.322-0.399,0.608-0.491,0.941
			c-0.445,1.612-1.693,2.229-3.083,1.195c-1.894-1.409-3.618-1.439-5.632-0.305c-1.672,0.941-3.42-0.083-5.131-0.245
			c-0.468-0.045-0.262-0.494-0.171-0.777c0.491-1.518,1.66-2.184,3.138-2.384C19.556,117.621,20.163,117.687,20.761,117.687z"/>
		<path fill-rule="evenodd" clip-rule="evenodd" fill="#902321" d="M54.062,76.512c0.097-2.777,0.603-5.262,1.899-7.531
			c1.049-1.837,2.287-2.86,4.775-2.739c2.591,0.126,4.058,1.437,5.536,3.099c0.199,0.224,0.638,0.557,0.273,0.895
			c-0.266,0.244-0.558-0.137-0.833-0.275c-0.79-0.397-1.144-1.336-2.064-1.585c-1.817-0.492-3.675-0.087-4.824,1.094
			c-1.354,1.393-2.996,2.83-3.222,5.027c-0.169,1.649-0.001,3.247,0.877,4.712c0.515,0.858,1.277,2.211,0.434,2.648
			c-0.908,0.471-1.614-0.933-2.132-1.813C54.104,78.894,54.24,77.571,54.062,76.512z"/>
		<path fill-rule="evenodd" clip-rule="evenodd" fill="#DAE087" d="M85.442,114.737c1.116,0.673,1.989,0.299,2.178-0.926
			c0.021-0.142,0.098-0.275,0.148-0.413c0.116,0.085,0.245,0.155,0.346,0.255c1.397,1.394,2.304,1.477,4.229,0.385
			c0.146-0.083,0.253-0.368,0.458-0.162c0.069,0.069-0.003,0.288-0.024,0.437c-0.145,0.974-0.642,1.596-1.604,1.97
			c-4.276,1.661-8.594,2.687-13.132,1.121c-0.725-0.25-1.804-0.41-1.888-1.188c-0.082-0.758,0.87-1.244,1.519-1.705
			c0.292-0.208,0.598-0.398,0.912-0.568c0.243-0.131,0.604-0.375,0.746-0.29c0.343,0.203-0.102,0.449-0.106,0.686
			c-0.028,1.197,0.963,1.001,1.615,1.019c0.736,0.021,1.483-0.219,2.22-0.373c0.539-0.113,1.012-0.16,1.329,0.436
			c0.184,0.344,0.511,0.514,0.91,0.333c0.564-0.256,0.143-0.68,0.157-1.03L85.442,114.737z"/>
		<path fill-rule="evenodd" clip-rule="evenodd" fill="#315435" d="M46.388,122.437c-1.6-0.186-3.156-0.215-4.642-0.725
			c-0.224-0.077-0.529-0.084-0.537-0.367c-0.003-0.105,0.28-0.264,0.457-0.322c1.656-0.55,3.023-1.813,4.841-1.962
			c0.191-0.016,0.445-0.035,0.402-0.306c-0.018-0.114-0.213-0.277-0.338-0.286c-1.243-0.092-0.962-0.847-0.724-1.599
			c0.083-0.266,0.228-0.557,0.185-0.809c-0.274-1.601,0.597-1.569,1.763-1.374c0.645,0.108,1.02,0.36,0.918,0.968
			c-0.163,0.972,0.426,1.918-0.016,2.908c-0.196,0.438,0.369,0.57,0.666,0.641c0.693,0.165,1.413,0.212,2.114,0.345
			c0.568,0.107,1.149,0.352,1.252,0.958c0.117,0.692-0.566,0.758-1.025,0.938C49.977,122.124,48.146,122.224,46.388,122.437z"/>
		<path fill-rule="evenodd" clip-rule="evenodd" fill="#DAE087" d="M106.45,118.208c-1.031-0.203-2.231-0.291-3.313-0.696
			c-0.915-0.344-0.592-1.365-0.554-2.109c0.055-1.034,0.134-2.177,1.738-1.575c0.261,0.098,1.003-0.508,0.561,0.51
			c-0.262,0.601,0.406,0.374,0.692,0.399c0.197,0.018,0.405-0.085,0.608-0.134c-0.14,0.19-0.271,0.389-0.421,0.57
			c-0.188,0.228-0.633,0.414-0.304,0.758c0.266,0.277,0.709,0.242,0.966-0.074c0.475-0.587,0.976-0.529,1.665-0.387
			c1.288,0.265,2.451-0.139,3.281-1.229c1.013-1.329,2.473-1.399,3.673-0.209c0.567,0.563,0.517,0.957-0.08,1.456
			c-1.712,1.431-3.75,2.047-5.885,2.422C108.255,118.055,107.416,118.101,106.45,118.208z"/>
		<path fill-rule="evenodd" clip-rule="evenodd" fill="#588843" d="M69.73,19.939c-0.229-0.038-0.505,0.057-0.536-0.201
			c-0.042-0.337,0.272-0.461,0.518-0.574c2.098-0.97,4.198-1.935,6.303-2.891c3.156-1.433,6.164-3.087,9.126-4.926
			c2.835-1.76,5.936-3.266,9.17-4.334c0.265-0.087,0.579-0.265,0.854,0.022c-0.195,0.184-0.375,0.389-0.589,0.55
			c-5.219,3.929-11.196,6.412-17.143,8.943c-2.381,1.013-4.541,2.51-7.068,3.195C70.136,19.786,69.916,19.876,69.73,19.939z"/>
		<path fill-rule="evenodd" clip-rule="evenodd" fill="#B698AB" d="M93.782,113.061c1.877,2.691,4.326,4.826,6.799,6.933
			c0.262,0.224,0.628,0.344,0.964,0.455c0.557,0.186,1.303,0.589,1.671,0.116c0.379-0.486-0.511-0.739-0.724-1.169
			c-0.101-0.204-0.152-0.434-0.228-0.65c0.77,0.744,1.583,1.421,2.624,1.762c0.876,0.147,1.752,0.163,2.627-0.008
			c0.047-0.056,0.105-0.072,0.175-0.052c0.243-0.138,0.545-0.016,0.783-0.176c0.079-0.024,0.159-0.048,0.238-0.072
			c0.393,0.912-0.354,1.237-0.896,1.549c-2.049,1.175-4.282,1.363-6.491,0.701c-1.72-0.515-3.312-1.405-4.569-2.765
			c-0.573-0.619-1.278-1.087-1.883-1.668c-0.392-0.377-0.896-0.712-0.799-1.382l0,0c0.172-0.244,0.228-0.479-0.048-0.692
			C93.573,115.013,93.852,114.022,93.782,113.061z"/>
		<path fill-rule="evenodd" clip-rule="evenodd" fill="#AC8CA0" d="M94.073,116.635c2.041,2.105,4.042,4.291,6.88,5.335
			c2.395,0.88,4.759,0.62,6.979-0.648c0.401-0.229,0.785-0.564,0.779-1.122c1.444-0.627,2.888-1.255,4.332-1.882
			c0.677,0.153,0.382,0.491,0.098,0.726c-2.89,2.39-5.754,4.751-9.881,4.587c-2.812-0.111-4.987-1.473-7.056-3.103
			c-1.115-0.878-2.073-1.954-3.103-2.941l0.003-0.001c0.145-0.12,0.406-0.074,0.459-0.324
			C93.733,117.052,93.903,116.844,94.073,116.635z"/>
		<path fill-rule="evenodd" clip-rule="evenodd" fill="#303885" d="M44.098,100.508c-0.065-0.417,0.123-0.669,0.455-0.899
			c0.833-0.578,1.538-1.275,1.836-2.285c0.186-0.631,0.658-0.434,1.076-0.394c3.327,0.319,6.619,0.988,9.979,0.968
			c0.205-0.001,0.56-0.089,0.523,0.271c-0.029,0.291-0.356,0.22-0.584,0.25c-2.363,0.317-4.726,0.631-7.086,0.965
			c-1.731,0.245-3.183,0.875-4.024,2.593c-0.291,0.593-0.976,0.994-1.48,1.482c-0.321-0.555-0.335-1.18-0.423-1.791
			C44.313,101.276,44.19,100.894,44.098,100.508z"/>
		<path fill-rule="evenodd" clip-rule="evenodd" fill="#009BB1" d="M10.613,120.427c2.204,0.512,4.287,1.438,6.543,1.794
			c1.833,0.29,3.581,0.258,5.252-0.589c1.362-0.689,2.536-0.548,3.742,0.448c1.479,1.221,3.467,0.941,4.744-0.452
			c0.334-0.364,0.181-0.748,0.244-1.123c0.064-0.382,0.21-0.744,0.601-0.804c0.384-0.059,0.504,0.35,0.627,0.622
			c0.383,0.851,0.192,1.536-0.636,2.033c-1.345,0.808-2.865,1.045-4.364,1.155c-4.656,0.343-9.257-0.146-13.777-1.294
			c-1.136-0.288-2.295-0.656-3.049-1.69C10.565,120.495,10.589,120.461,10.613,120.427z"/>
		<path fill-rule="evenodd" clip-rule="evenodd" fill="#A17D94" d="M8.369,100.587c2.337-0.85,3.111,1.058,4.215,2.387
			c0.186,0.224,0.246,0.7,0.65,0.544c0.358-0.139,0.162-0.561,0.204-0.857c0.098-0.692-0.2-1.424,0.2-2.088
			c0.03,2.679,0.131,5.348,1,7.92c0.284,0.933,0.444,1.881,0.359,2.861c-0.042,0.476-0.079,0.946-0.591,1.185
			c-0.72,0.005-1.44,0.01-2.161,0.015c1.36-1.495,0.643-3.189,0.33-4.763c-0.504-2.532-1.341-4.939-3.936-6.194
			C8.225,101.396,8.12,101.015,8.369,100.587z"/>
		<path fill-rule="evenodd" clip-rule="evenodd" fill="#303885" d="M44.316,107.611c0.524,1.839-0.376,1.646-1.523,1.311
			c-2.359-0.689-4.609-1.747-7.068-2.096c-0.625-0.089-1.005-0.603-1.223-1.044c-0.147-0.298,0.621-0.278,0.833-0.588
			c0.938-1.369,1.521-1.729,1.677,0.416c0.063,0.871,0.78,1.072,1.616,0.61c0.816-0.45,1.298-1.149,1.719-1.932
			c0.145-0.27,0.348-0.714,0.527-0.715c0.344-0.002,0.317,0.466,0.422,0.74c0.273,0.712,0.574,1.403,1.096,1.975
			c0.278,0.305,0.662,0.683,1.021,0.46C45.262,105.599,43.983,107.5,44.316,107.611z"/>
		<path fill-rule="evenodd" clip-rule="evenodd" fill="#D06B39" d="M35.039,29.964c-2.497,0.803-4.255,2.579-5.905,4.493
			c-0.368,0.427-0.721,0.833-1.316,0.951c-0.871,0.172-1.403-0.042-1.408-1.044c-0.005-1.048-0.219-2.173,1.288-2.424
			c0.217-0.036,0.467-0.199,0.596-0.379c1.511-2.103,3.711-2.17,5.978-2.059c0.33-0.131,0.692-0.216,0.967,0.034
			C35.415,29.695,35.219,29.869,35.039,29.964z"/>
		<path fill-rule="evenodd" clip-rule="evenodd" fill="#DAE087" d="M85.798,89.503c0.134-2.478,0.979-4.723,1.685-6.997
			c0.317-1.021,1.055-0.234,1.597-0.217c0.582,0.019,0.606,0.287,0.491,0.865c-0.462,2.304-0.918,4.607-1.697,6.827
			c-0.173,0.491,0.06,1.444-0.922,1.304C85.929,91.139,85.58,90.431,85.798,89.503z"/>
		<path fill-rule="evenodd" clip-rule="evenodd" fill="#DD9DB5" d="M13.759,120.455c-1.131-0.246-2.212-0.633-3.223-1.199
			c-0.895-0.501-0.749-1.217-0.145-1.74c1.174-1.017,2.699-1.377,4.16-1.653c0.766-0.145,1.427,0.713,1.84,1.351
			c0.406,0.626-0.503,0.595-0.773,0.897c-0.506,0.568-1.086,1.071-1.201,1.872C14.357,120.402,14.276,120.708,13.759,120.455z"/>
		<path fill-rule="evenodd" clip-rule="evenodd" fill="#D98C50" d="M66.84,64.807c0.784,0.168,1.601,0.269,2.145,0.937
			c0.525,0.646,1.014,1.324,1.511,1.994c0.539,0.725,1.236,1.444-0.129,2.09c-0.229,0.109-0.313,0.532-0.458,0.813
			c-0.15,0.289,0.175,0.827-0.345,0.888c-0.5,0.058-0.982-0.23-1.173-0.687c-0.747-1.785-1.45-3.589-2.137-5.398
			C66.066,64.947,66.449,64.838,66.84,64.807z"/>
		<path fill-rule="evenodd" clip-rule="evenodd" fill="#B192A6" d="M38.867,113.283c-2.133-0.06-3.229,1.708-4.718,2.747
			c-0.864,0.604-1.504,1.525-2.246,2.305c-0.814-0.447-1.167-0.935-0.244-1.666c0.476-0.377,0.138-0.991,0.286-1.477
			c0.244-1.817,1.813-3.271,3.397-3.148C36.517,112.457,37.692,112.87,38.867,113.283z"/>
		<path fill-rule="evenodd" clip-rule="evenodd" fill="#FEFEFE" d="M41.989,39.915c-0.056,0.452,0.274,1.061-0.751,0.722
			c-1-0.331-1.833,0.318-1.875,1.405c-0.029,0.763-0.262,0.659-0.722,0.434c-0.962-0.469-1.917-0.953-2.887-1.407
			c-0.479-0.224-0.283-0.354,0.027-0.517c1.523-0.798,2.968-1.706,4.086-3.042c0.302-0.361,0.572-0.167,0.811,0.009
			C41.482,38.116,41.986,38.893,41.989,39.915z"/>
		<path fill-rule="evenodd" clip-rule="evenodd" fill="#315435" d="M70.123,87.028c-0.167,3.677-1.801,6.742-3.785,9.661
			c-0.285,0.42-0.872,0.672-1.265,0.411c-0.573-0.383,0.271-0.578,0.289-0.905c0.107-1.872,1.517-2.981,2.502-4.344
			c0.697-0.964,0.909-2.099,1.007-3.252c0.044-0.515-0.017-1.036,0.014-1.553c0.041-0.706-0.082-1.896,0.627-1.872
			C70.55,85.209,69.906,86.401,70.123,87.028z"/>
		<path fill-rule="evenodd" clip-rule="evenodd" fill="#B698AB" d="M103.201,104.158c-2.39-0.475-4.738-0.317-7.048,0.452
			c0.315-1.099,1.009-2.102,0.836-3.322c0.493-0.262,1.008-0.136,1.507-0.048c0.825,0.144,1.642,0.149,2.474,0.043
			c1.442-0.185,1.718,0.034,1.979,1.434C103.033,103.197,103.117,103.677,103.201,104.158z"/>
		<path fill-rule="evenodd" clip-rule="evenodd" fill="#D98C50" d="M102.19,49.113c0.072,0.001,0.165-0.022,0.212,0.013
			c0.289,0.219,0.554,2.982,0.326,3.288c-0.524,0.704-1.054,1.404-1.565,2.117c-0.366,0.511-0.674,0.756-0.912-0.083
			c-0.054-0.189-0.168-0.36-0.256-0.539c-1.526-3.108-1.333-3.571,1.971-4.713C102.041,49.169,102.116,49.142,102.19,49.113z"/>
		<path fill-rule="evenodd" clip-rule="evenodd" fill="#902321" d="M52.839,67.231c-0.112,0.521,0.107,0.913-0.24,1.097
			c-0.334,0.176-0.589-0.14-0.846-0.306c-1.133-0.734-2.189-1.606-3.525-1.976c-0.307-0.085-0.445-0.222-0.181-0.47
			c0.894-0.839,1.624-1.876,2.834-2.337c0.635-0.243,1.068-0.181,1.222,0.597C52.34,65.042,52.622,66.237,52.839,67.231z"/>
		<path fill-rule="evenodd" clip-rule="evenodd" fill="#DC9DB4" d="M13.445,114.815c-0.056,0.369-0.269,0.363-0.46,0.406
			c-1.31,0.293-2.425,0.972-3.493,1.754c-1.229,0.9-1.485-0.351-2.059-0.938c-0.726-0.744-0.17-1.097,0.404-1.453
			c1.18-0.734,2.511-1.122,3.854-1.162C12.485,113.399,12.563,114.724,13.445,114.815z"/>
		<path fill-rule="evenodd" clip-rule="evenodd" fill="#D06B39" d="M21.826,35.165c0.337,2.462-1.338,3.952-3.1,5.388
			c-0.108,0.088-0.269,0.113-0.404,0.167c-0.029-0.154-0.096-0.311-0.082-0.46c0.206-2.138,0.32-4.313,2.396-5.668
			c0.421-0.274,0.794-0.621,1.19-0.935C21.826,34.11,21.826,34.563,21.826,35.165z"/>
		<path fill-rule="evenodd" clip-rule="evenodd" fill="#3D5B39" d="M83.748,11.029c-2.497,2-5.416,3.177-8.366,4.292
			c-0.202,0.076-0.578,0.125-0.654,0.024c-0.216-0.29,0.073-0.524,0.283-0.679c2.579-1.907,5.402-3.311,8.527-4.08
			C83.667,10.705,83.921,10.766,83.748,11.029z"/>
		<path fill-rule="evenodd" clip-rule="evenodd" fill="#50271F" d="M72.717,31.294c-0.107-0.575,0.208-1.021,0.7-1.352
			c1.382-0.927,2.775-1.835,4.163-2.754c0.156-0.104,0.319-0.333,0.494-0.147c0.078,0.084,0.013,0.368-0.063,0.523
			c-0.945,1.943-2.658,3.243-4.073,4.79c-0.189,0.207-0.587,0.56-0.94,0.25C72.641,32.292,72.726,31.796,72.717,31.294z"/>
		<path fill-rule="evenodd" clip-rule="evenodd" fill="#AB8B9F" d="M102.949,102.716c-0.328-1.161-1.038-1.299-2.151-1.035
			c-1.269,0.3-2.562-0.025-3.809-0.394c-0.097-1.14,0.286-1.766,1.563-1.548c0.465,0.08,0.954,0.03,1.432,0.023
			C102.892,99.722,102.892,99.721,102.949,102.716z"/>
		<path fill-rule="evenodd" clip-rule="evenodd" fill="#EBCDDB" d="M92.91,58.378c-0.639-1.27-1.145-2.698-3.005-2.495
			c1.7-0.532,3.385-1.132,5.11-1.562c0.654-0.163,1.155-0.462,1.664-0.828c0.14-0.091,0.259-0.07,0.36,0.061
			C95.956,55.413,94.187,56.685,92.91,58.378z"/>
		<path fill-rule="evenodd" clip-rule="evenodd" fill="#862320" d="M83.417,16.601c0.124,0.094,0.305,0.163,0.363,0.288
			c0.648,1.393,1.347,0.683,2.115,0.109c0.392-0.292,0.981-0.64,1.318,0.037c0.298,0.597-0.282,0.874-0.705,1.026
			c-1.385,0.499-1.724,1.257-0.785,2.484c0.277,0.362,0.407,0.862-0.065,1.162c-0.611,0.387-0.703-0.255-0.911-0.586
			c-0.188-0.301-0.444-0.624-0.467-0.952c-0.066-0.967-0.508-0.812-1.076-0.441c-0.325,0.212-0.698,0.36-0.938-0.035
			c-0.304-0.498,0.217-0.642,0.498-0.729c0.903-0.279,0.709-0.771,0.311-1.311C82.697,17.141,82.955,16.862,83.417,16.601z"/>
		<path fill-rule="evenodd" clip-rule="evenodd" fill="#9E7C92" d="M35.342,112.043c-1.54,0.61-2.881,1.434-3.397,3.148
			c-0.094-1.703-0.192-3.406-0.279-5.11c-0.009-0.177,0.046-0.356,0.071-0.534c0.126,0.125,0.234,0.277,0.38,0.372
			C33.196,110.622,34.384,111.158,35.342,112.043z"/>
		<path fill-rule="evenodd" clip-rule="evenodd" fill="#FCFCFC" d="M72.183,75.076c-1.36,0.003-1.449-0.94-1.457-1.738
			c-0.011-0.96,0.868-1.675,1.574-1.586c1.115,0.14,1.287,1.521,1.447,2.346C73.922,74.998,72.649,74.758,72.183,75.076z"/>
		<path fill-rule="evenodd" clip-rule="evenodd" fill="#947288" d="M14.406,112.539c0.563-1.321,0.008-2.706,0.232-4.046
			c0.563,0.912,1.046,1.873,1.999,2.492c0.427,0.277,0.556,0.798,0.385,1.292c-0.16,0.461-0.609,0.277-0.941,0.288
			C15.523,112.583,14.964,112.55,14.406,112.539z"/>
		<path fill-rule="evenodd" clip-rule="evenodd" fill="#598842" d="M105.857,55.399c-0.037,0.251,0.105,0.583-0.191,0.641
			c-0.168,0.033-0.415-0.166-0.578-0.314c-0.583-0.533-1.106-1.104-1.808-1.534c-0.746-0.458,0.092-0.934,0.284-1.35
			c0.182-0.393,0.59-0.744,1.025-0.197C105.241,53.463,105.759,54.352,105.857,55.399z"/>
		<path fill-rule="evenodd" clip-rule="evenodd" fill="#343530" d="M101.981,67.903c0.104-0.293-0.072-0.412-0.293-0.554
			c-0.266-0.171-0.556-0.401-0.359-0.772c0.186-0.354,0.493-0.218,0.823-0.182c0.541,0.06,1.099-0.036,1.649-0.056
			c0.439-0.016,1.076-0.375,1.224,0.257c0.111,0.48-0.477,0.76-0.905,0.976c-0.196,0.099-0.412,0.159-0.618,0.237
			c0.241,0.108,0.482,0.217,0.724,0.325C103.45,68.326,102.74,67.876,101.981,67.903z"/>
		<path fill-rule="evenodd" clip-rule="evenodd" fill="#E7E7E7" d="M83.127,119.16c2.058-0.267,4.129-0.46,6.107-1.147
			c0.251-0.043,0.344,0.063,0.284,0.307c-2.599,1.163-5.322,1.617-8.158,1.429c0.145-0.783,0.794-0.328,1.188-0.486
			C82.733,119.193,82.934,119.198,83.127,119.16z"/>
		<path fill-rule="evenodd" clip-rule="evenodd" fill="#F4F4F4" d="M79.259,70.611c-0.186,0.483,0.313,1.396-0.657,1.363
			c-1.036-0.037-0.897-0.989-1.02-1.726c-0.143-0.854,0.511-1.211,1.006-1.174C79.495,69.142,79.069,70.052,79.259,70.611z"/>
		<path fill-rule="evenodd" clip-rule="evenodd" fill="#E0DEDF" d="M13.743,113.369c1.553,0.138,3.01,0.257,4.463,0.408
			c0.208,0.021,0.58,0.226,0.569,0.301c-0.048,0.334-0.369,0.163-0.572,0.184c-0.991,0.1-1.984,0.175-2.976,0.258
			c-0.911,0.076-1.394-0.815-2.202-0.973C13.161,112.923,13.623,113.633,13.743,113.369z"/>
		<path fill-rule="evenodd" clip-rule="evenodd" fill="#3E5936" d="M90.234,5.789c0.562,0.472,1.776-0.186,1.983,0.753
			c0.113,0.513-0.877,0.854-1.508,0.82c-0.646-0.035-1.286-0.348-1.347-1.111C89.324,5.75,89.799,5.794,90.234,5.789z"/>
		<path fill-rule="evenodd" clip-rule="evenodd" fill="#8D2420" d="M40.763,66.712c-0.542-0.095-0.282-0.352-0.188-0.509
			c0.538-0.893,1.19-1.686,2.098-2.23c0.262-0.158,0.555-0.519,0.838-0.314c0.366,0.265,0.047,0.85-0.078,0.948
			C42.533,65.321,41.395,65.719,40.763,66.712z"/>
		<path fill-rule="evenodd" clip-rule="evenodd" fill="#3D5B37" d="M69.376,18.194c-0.298-0.004-0.519-0.118-0.396-0.338
			c0.348-0.627,0.39-1.579,1.235-1.724c0.477-0.082,1.117,0.514,0.946,0.959C70.885,17.813,69.948,17.842,69.376,18.194z"/>
		<path fill-rule="evenodd" clip-rule="evenodd" fill="#D197AC" d="M17.109,115.231c0.972-0.081,1.407,0.666,1.966,1.117
			c0.328,0.266-0.165,0.25-0.332,0.334c-1.105,0.555-1.719-0.215-2.305-0.905C16.115,115.397,16.347,115.22,17.109,115.231z"/>
		<path fill-rule="evenodd" clip-rule="evenodd" fill="#1194A9" d="M6.185,116.892c0.022-0.07,0.03-0.356,0.146-0.41
			c0.295-0.136,0.38,0.173,0.49,0.367c0.279,0.497,0.659,0.88,1.178,1.127c0.207,0.098,0.464,0.202,0.284,0.517
			c-0.133,0.231-0.357,0.28-0.611,0.271C6.968,118.735,6.186,117.82,6.185,116.892z"/>
		<path fill-rule="evenodd" clip-rule="evenodd" fill="#DADBCF" d="M82.804,119.293c-0.386,0.454-1.063-0.018-1.443,0.454
			c-1.363-0.163-2.729-0.315-4.088-0.503c-0.133-0.019-0.237-0.245-0.355-0.375c0.147-0.03,0.299-0.1,0.441-0.084
			c0.783,0.085,1.564,0.191,2.347,0.29C80.725,119.34,81.79,118.958,82.804,119.293z"/>
		<path fill-rule="evenodd" clip-rule="evenodd" fill="#DBDBDB" d="M83.833,113.796c-0.767,0.372-1.611,0.31-2.423,0.428
			c-0.199,0.028-0.514,0.179-0.604-0.115c-0.085-0.276,0.259-0.339,0.413-0.499c0.754-0.778,1.549,0.313,2.307-0.06
			C83.645,113.61,83.8,113.627,83.833,113.796z"/>
		<path fill-rule="evenodd" clip-rule="evenodd" fill="#547F40" d="M101.53,62.642c-0.028,0.427-0.241,0.663-0.664,0.683
			c-0.466,0.021-0.771-0.182-0.771-0.673c-0.002-0.411,0.227-0.659,0.651-0.681C101.219,61.947,101.48,62.179,101.53,62.642z"/>
		<path fill-rule="evenodd" clip-rule="evenodd" fill="#DFDFDE" d="M83.833,113.796c-0.103-0.082-0.205-0.164-0.308-0.246
			c0.882-0.577,2.06-0.568,2.811-1.439c0.102-0.117,0.663-0.06,0.747,0.078c0.155,0.256-0.202,0.345-0.396,0.467
			C85.804,113.209,84.853,113.589,83.833,113.796z"/>
		<path fill-rule="evenodd" clip-rule="evenodd" fill="#EFEFEF" d="M19.635,112.493c0.066,0.409,0.075,0.721-0.369,0.59
			c-0.581-0.172-0.938-0.61-1.056-1.184c-0.098-0.471,0.284-0.314,0.545-0.347C19.599,111.451,19.635,112.008,19.635,112.493z"/>
		<path fill-rule="evenodd" clip-rule="evenodd" fill="#5B8440" d="M99.134,54.691c-0.435,0.565-1.191,0.142-1.675,0.514
			c-0.083,0.064-0.408,0.039-0.329-0.151c0.231-0.553,0.647-1.057,1.201-1.209C98.73,53.736,98.891,54.301,99.134,54.691z"/>
		<path fill-rule="evenodd" clip-rule="evenodd" fill="#4A4A49" d="M25.744,117.4c-0.725,0.101-1.288-0.346-1.914-0.554
			c-0.016-0.006-0.009-0.158,0.004-0.161c0.637-0.133,1.25,0.016,1.852,0.192c0.324,0.095,0.627,0.259,0.939,0.393
			C26.332,117.313,26.038,117.357,25.744,117.4z"/>
		<path fill-rule="evenodd" clip-rule="evenodd" fill="#D2D2D2" d="M107.412,112.505c0.214,1.091,1.257,0.997,1.771,1.561
			c0.065,0.072,0.104,0.248,0.062,0.32c-0.045,0.076-0.268,0.148-0.302,0.113c-0.56-0.565-1.482-0.711-1.798-1.54
			C107.113,112.878,107.278,112.724,107.412,112.505z"/>
		<path fill-rule="evenodd" clip-rule="evenodd" fill="#BF8656" d="M93.197,28.761c-0.097-0.318-0.286-0.646-0.268-0.961
			c0.024-0.389,0.434-0.261,0.676-0.25c0.353,0.015,0.484,0.253,0.332,0.581C93.804,28.417,93.641,28.695,93.197,28.761z"/>
		<path fill-rule="evenodd" clip-rule="evenodd" fill="#7F7B76" d="M35.039,29.964c0.156-0.838-0.572-0.207-0.767-0.462
			c0.774-0.379,1.609-0.146,2.412-0.24c0.01,0.086,0.02,0.173,0.029,0.259C36.155,29.669,35.597,29.817,35.039,29.964z"/>
		<path fill-rule="evenodd" clip-rule="evenodd" fill="#DADF8E" d="M82.804,119.293c-1.029-0.119-2.094,0.253-3.099-0.218
			c1.146-0.15,2.292-0.262,3.424,0.084C83.02,119.204,82.912,119.249,82.804,119.293z"/>
		<path fill-rule="evenodd" clip-rule="evenodd" fill="#F5F5F5" d="M81.536,72.143c0.096-0.305-0.069-0.83,0.145-0.727
			c0.303,0.146,0.501,0.644,0.595,1.027c0.039,0.163-0.351,0.625-0.455,0.599C81.246,72.895,81.832,72.359,81.536,72.143z"/>
		<path fill-rule="evenodd" clip-rule="evenodd" fill="#C7C7C6" d="M107.516,119.501c-0.898,0.1-1.797,0.236-2.686-0.066
			c0.876-0.407,1.794-0.126,2.692-0.17c0.082,0.055,0.108,0.108,0.079,0.16C107.573,119.476,107.544,119.501,107.516,119.501z"/>
		<path fill-rule="evenodd" clip-rule="evenodd" fill="#AC8CA0" d="M107.515,120.5c-0.875,0.366-1.751,0.348-2.627,0.008
			C105.763,120.504,106.639,120.501,107.515,120.5z"/>
		<path fill-rule="evenodd" clip-rule="evenodd" fill="#C1C0C0" d="M82.9,68.238c-0.101,0.255-0.18,0.567-0.198,0.517
			c-0.179-0.498-0.286-1.023-0.386-1.547c-0.017-0.088,0.104-0.2,0.161-0.302C82.627,67.378,82.777,67.851,82.9,68.238z"/>
		<path fill-rule="evenodd" clip-rule="evenodd" fill="#9C9C9C" d="M89.519,118.319c-0.095-0.103-0.189-0.205-0.284-0.307
			c0.062-0.047,0.124-0.134,0.186-0.134c0.341,0.002,0.83-0.479,0.938-0.133C90.483,118.138,89.882,118.219,89.519,118.319z"/>
		<path fill-rule="evenodd" clip-rule="evenodd" fill="#DBDBDA" d="M69.088,75.334c-0.251-0.003-0.27-0.175-0.173-0.304
			c0.136-0.181,0.31-0.362,0.508-0.46c0.237-0.117,0.246,0.151,0.239,0.268C69.642,75.187,69.299,75.199,69.088,75.334z"/>
		<path fill-rule="evenodd" clip-rule="evenodd" fill="#7F7F7F" d="M71.771,70.151c0.048,0.056,0.172,0.138,0.164,0.205
			c-0.031,0.289-0.309,0.285-0.51,0.351c-0.045,0.015-0.198-0.115-0.192-0.166C71.266,70.265,71.486,70.194,71.771,70.151z"/>
		<path fill-rule="evenodd" clip-rule="evenodd" fill="#CCCBCB" d="M97.04,53.554c-0.12-0.021-0.24-0.041-0.36-0.061
			c0.041-0.066,0.067-0.151,0.125-0.194c0.261-0.193,0.545-0.733,0.774-0.487C97.807,53.057,97.315,53.354,97.04,53.554z"/>
		<path fill-rule="evenodd" clip-rule="evenodd" fill="#B1B1B1" d="M107.516,119.501c0.001-0.079,0.003-0.157,0.007-0.236
			c0.433-0.181,0.854-0.474,1.338-0.132C108.413,119.256,107.964,119.378,107.516,119.501z"/>
		<path fill-rule="evenodd" clip-rule="evenodd" fill="#73536E" d="M78.042,120.21c-0.497-0.016-1.03,0.23-1.47-0.202
			C77.062,120.076,77.551,120.143,78.042,120.21z"/>
		<path fill-rule="evenodd" clip-rule="evenodd" fill="#B9B9B9" d="M20.23,115.513c-0.144,0.104-0.25,0.223-0.291,0.203
			c-0.124-0.059-0.267-0.15-0.322-0.267c-0.11-0.233,0.125-0.264,0.242-0.237C19.98,115.24,20.075,115.38,20.23,115.513z"/>
		<path fill-rule="evenodd" clip-rule="evenodd" fill="#847B6F" d="M73.699,41.006c-0.096,0.02-0.191,0.039-0.286,0.059
			c-0.07-0.279-0.39-0.523-0.118-0.849C73.429,40.479,73.564,40.743,73.699,41.006z"/>
		<path fill-rule="evenodd" clip-rule="evenodd" fill="#C8C7C5" d="M68.903,73.432c-0.095-0.07-0.189-0.141-0.285-0.211
			c0.089-0.228,0.104-0.656,0.467-0.424C69.344,72.963,69.152,73.267,68.903,73.432z"/>
		<path fill-rule="evenodd" clip-rule="evenodd" fill="#F2F2F2" d="M110.335,112.975c0.083,0.168,0.176,0.269,0.16,0.348
			c-0.016,0.076-0.141,0.131-0.218,0.195c-0.052-0.085-0.142-0.17-0.142-0.255C110.135,113.187,110.236,113.111,110.335,112.975z"/>
		<path fill-rule="evenodd" clip-rule="evenodd" fill="#6C7753" d="M83.748,11.029c-0.07-0.148-0.14-0.296-0.21-0.444
			c0.142,0.026,0.283,0.053,0.425,0.079C83.89,10.786,83.819,10.907,83.748,11.029z"/>
		<path fill-rule="evenodd" clip-rule="evenodd" fill="#AC8CA0" d="M108.473,120.272c-0.215,0.263-0.503,0.203-0.783,0.176
			C107.894,120.135,108.191,120.237,108.473,120.272z"/>
		<path fill-rule="evenodd" clip-rule="evenodd" fill="#AC8CA0" d="M94.025,115.943c0.382,0.205,0.355,0.438,0.048,0.692
			C94.057,116.404,94.041,116.173,94.025,115.943z"/>
		<path fill-rule="evenodd" clip-rule="evenodd" fill="#B292A6" d="M74.891,116.876c-0.081-0.002-0.162-0.003-0.243-0.004
			c0-0.261-0.036-0.533,0.225-0.712C74.878,116.399,74.885,116.637,74.891,116.876z"/>
		<path fill-rule="evenodd" clip-rule="evenodd" fill="#BDB3A9" d="M73.97,37.415c-0.092,0.012-0.184,0.024-0.275,0.036
			c0.025-0.128,0.051-0.256,0.076-0.385C73.837,37.183,73.904,37.299,73.97,37.415z"/>
		<path fill-rule="evenodd" clip-rule="evenodd" fill="#A27F95" d="M114.238,117.847c-0.185,0.067-0.369,0.136-0.554,0.203
			C113.869,117.983,114.052,117.915,114.238,117.847z"/>
		<path fill-rule="evenodd" clip-rule="evenodd" fill="#A27F95" d="M114.715,117.617c-0.155,0.075-0.31,0.149-0.465,0.225
			C114.406,117.766,114.561,117.692,114.715,117.617z"/>
		<path fill-rule="evenodd" clip-rule="evenodd" fill="#A38196" d="M93.564,117.261c-0.043,0.264-0.229,0.325-0.459,0.324
			C93.258,117.477,93.411,117.37,93.564,117.261z"/>
		<path fill-rule="evenodd" clip-rule="evenodd" fill="#906B84" d="M75.092,117.35c-0.061-0.164-0.122-0.328-0.184-0.492
			C74.97,117.022,75.032,117.186,75.092,117.35z"/>
		<path fill-rule="evenodd" clip-rule="evenodd" fill="#B192A6" d="M31.902,118.332c0.082,0.087,0.163,0.173,0.245,0.259
			C32.065,118.504,31.983,118.418,31.902,118.332z"/>
		<path fill-rule="evenodd" clip-rule="evenodd" fill="#B091A4" d="M7.01,119.48c-0.096-0.06-0.191-0.12-0.287-0.181
			C6.819,119.36,6.915,119.42,7.01,119.48z"/>
		<path fill-rule="evenodd" clip-rule="evenodd" fill="#BABAB9" d="M85.454,114.721c-0.066-0.02-0.133-0.04-0.199-0.061
			c0.033-0.039,0.066-0.078,0.099-0.117c0.03,0.064,0.06,0.129,0.089,0.193L85.454,114.721z"/>
		<path fill-rule="evenodd" clip-rule="evenodd" fill="#A27F95" d="M115.199,117.365c-0.115,0.069-0.229,0.137-0.344,0.205
			C114.969,117.501,115.083,117.434,115.199,117.365z"/>
		<path fill-rule="evenodd" clip-rule="evenodd" fill="#A27F95" d="M115.664,117.082c-0.113,0.083-0.227,0.166-0.34,0.249
			C115.437,117.248,115.55,117.165,115.664,117.082z"/>
		<path fill-rule="evenodd" clip-rule="evenodd" fill="#DEE4E6" d="M10.541,120.528c-0.078-0.063-0.155-0.125-0.233-0.188
			c0.024-0.029,0.066-0.085,0.07-0.082c0.081,0.053,0.157,0.111,0.235,0.17C10.56,120.44,10.536,120.474,10.541,120.528z"/>
		<path fill-rule="evenodd" clip-rule="evenodd" fill="#A27F95" d="M115.913,116.875c-0.091,0.075-0.181,0.15-0.271,0.226
			C115.732,117.025,115.822,116.95,115.913,116.875z"/>
		<path fill-rule="evenodd" clip-rule="evenodd" fill="#A27F95" d="M116.621,115.889c-0.056,0.087-0.11,0.174-0.166,0.26
			C116.51,116.063,116.565,115.976,116.621,115.889z"/>
		<path fill-rule="evenodd" clip-rule="evenodd" fill="#A27F95" d="M116.152,116.632c-0.079,0.08-0.158,0.16-0.237,0.24
			C115.994,116.792,116.073,116.712,116.152,116.632z"/>
		<path fill-rule="evenodd" clip-rule="evenodd" fill="#A27F95" d="M116.38,116.344c-0.076,0.096-0.152,0.192-0.229,0.288
			C116.228,116.537,116.304,116.44,116.38,116.344z"/>
		<path fill-rule="evenodd" clip-rule="evenodd" fill="#272421" d="M33.789,55.6c0.515,0,0.682-0.03,0.833,0.005
			c0.633,0.151,1.642,0.101,1.651,0.798c0.007,0.479-1.025,0.174-1.587,0.253c-0.979,0.137-1.966,0.223-2.944,0.37
			c-0.222,0.033-0.486,0.255-0.599-0.03c-0.055-0.138,0.138-0.455,0.303-0.585C32.23,55.786,33.183,55.658,33.789,55.6z"/>
		<path fill-rule="evenodd" clip-rule="evenodd" fill="#191817" d="M91.359,50.069c-0.566,0.103-0.996-0.22-1.291-0.746
			c-0.167-0.297-0.496-0.613-0.226-0.977c0.283-0.381,0.763-0.359,1.088-0.142c1.507,1.007,2.715,0.249,3.948-0.567
			c1.725-1.143,3.163-2.55,4.151-4.384c0.322-0.597,0.938-1.192,0.075-1.863c-0.243-0.189-0.127-0.549,0.103-0.569
			c0.933-0.083,1.896-0.215,2.742,0.362c0.202,0.138,0.363,0.449,0.092,0.596c-2.705,1.466-3.137,4.968-5.887,6.454
			C94.637,49.054,93.229,50.002,91.359,50.069z"/>
		<path fill-rule="evenodd" clip-rule="evenodd" fill="#24211E" d="M90.184,40.709c0.573,0.023,1.11,0.159,1.485,0.623
			c0.268,0.332,0.644,0.734,0.343,1.156c-0.411,0.578-0.732-0.045-1.076-0.21c-0.192-0.092-0.346-0.42-0.59-0.164
			c-0.223,0.234,0.117,0.413,0.151,0.63c0.057,0.367,0.75,0.763,0.144,1.066c-0.494,0.247-0.853-0.29-1.081-0.708
			C88.685,41.506,88.893,40.74,90.184,40.709z"/>
		<path fill-rule="evenodd" clip-rule="evenodd" fill="#20201E" d="M97.681,82.153c-0.018,1.229-0.861,2.154-1.922,2.124
			c-0.946-0.026-1.206-0.681-1.237-1.435c-0.04-0.956,1.353-2.412,2.188-2.378C97.262,80.487,97.694,81.238,97.681,82.153z"/>
		<path fill-rule="evenodd" clip-rule="evenodd" fill="#242621" d="M93.347,91.856c-0.04-1.082,0.357-1.964,1.487-2.061
			c1.046-0.089,0.915,0.914,0.944,1.559c0.047,1.045-0.277,2.207-1.374,2.319C93.513,93.764,93.378,92.67,93.347,91.856z"/>
		<path fill-rule="evenodd" clip-rule="evenodd" fill="#547F3F" d="M97.164,82.511c-0.193,0.433-0.449,0.867-0.981,0.887
			c-0.389,0.015-0.696-0.288-0.633-0.701c0.071-0.46,0.404-0.789,0.883-0.833C96.835,81.827,97.093,82.069,97.164,82.511z"/>
		<path fill-rule="evenodd" clip-rule="evenodd" fill="#568742" d="M95.28,91.642c-0.019,0.438,0.049,0.969-0.495,0.967
			c-0.675-0.001-0.51-0.721-0.646-1.109c-0.123-0.353,0.287-0.711,0.635-0.711C95.328,90.791,95.259,91.297,95.28,91.642z"/>
	</g>
</g>
</svg>
