<?xml version="1.0" encoding="utf-8"?>
<!-- Generator: Adobe Illustrator 16.0.0, SVG Export Plug-In . SVG Version: 6.00 Build 0)  -->
<!DOCTYPE svg PUBLIC "-//W3C//DTD SVG 1.0//EN" "http://www.w3.org/TR/2001/REC-SVG-20010904/DTD/svg10.dtd" [
	<!ENTITY ns_flows "http://ns.adobe.com/Flows/1.0/">
	<!ENTITY ns_extend "http://ns.adobe.com/Extensibility/1.0/">
	<!ENTITY ns_ai "http://ns.adobe.com/AdobeIllustrator/10.0/">
	<!ENTITY ns_graphs "http://ns.adobe.com/Graphs/1.0/">
]>
<svg version="1.0" id="Layer_1" xmlns:x="&ns_extend;" xmlns:i="&ns_ai;" xmlns:graph="&ns_graphs;"
	 xmlns="http://www.w3.org/2000/svg" xmlns:xlink="http://www.w3.org/1999/xlink" xmlns:a="http://ns.adobe.com/AdobeSVGViewerExtensions/3.0/"
	 x="0px" y="0px" width="960px" height="560px" viewBox="0 0 960 560" style="enable-background:new 0 0 960 560;"
	 xml:space="preserve">
<g>
	<path style="fill-rule:evenodd;clip-rule:evenodd;fill:#222221;" d="M485.36,313.16c-2.68-0.08-2.75-0.08-2.96,2.43
		c-0.22,2.63-1.15,4.92-2.8,6.94c-0.98,1.21-1.16,2.64-1.21,4.11c-0.01,0.36,0.06,0.73-0.01,1.08c-0.51,2.82,0.21,5.42,1.35,7.97
		c0.64,1.43-0.93,3.87-2.66,3.79c-2.8-0.12-5.5-0.05-8.28,0.54c-2.52,0.53-5.03-0.52-7.33-1.75c-0.77-0.41-1.12-0.98-1-1.84
		c0.17-1.22,0.41-2.43,0.62-3.64c0.2-1.23,1.26-1.79,2.52-1.77c2.66,0.05,5.06-0.72,7.22-2.26c0.22-0.16,0.3-0.34,0.33-0.59
		c0.19-1.7,0.3-3.42,0.63-5.1c0.22-1.15,0.59-2.32,1.17-3.33c1.16-2.01,0.99-4.34,1.74-6.43c0.2-0.56-0.32-0.59-0.61-0.64
		c-2-0.41-2.45-1.71-2.4-3.59c0.06-2.49,0.32-4.94,0.84-7.36c0.11-0.51,0.3-0.93-0.57-0.73c-1.33,0.31-1.88-0.26-1.64-1.62
		c0.19-1.1-0.87-1.59-1.42-1.98c-2.89-2.06-3.3-5.21-3.96-8.26c-0.28-1.31,0.09-2.62,0.23-3.93c0.13-1.27,0.23-2.53-0.02-3.81
		c-0.3-1.57,0.8-2.83,1.16-4.26c0.76-3.03,2.69-5.3,4.88-7.38c0.12-0.11,0.22-0.31,0.35-0.32c2.16-0.2,1.62-1.82,1.65-3.13
		c0-0.17,0.13-0.65-0.25-0.43c-2.11,1.19-4.34,0.76-6.53,0.5c-1.74-0.21-3.47-0.56-5.17-0.98c-2.64-0.65-4.7-2.15-6.54-4.19
		c-3.1-3.45-5.39-7.32-6.85-11.69c-1.31-3.9-1.37-7.71-0.31-11.83c1.32-5.14,4.6-8.31,8.68-11.06c3.12-2.11,6.38-3.94,9.93-5.21
		c0.91-0.32,1.88-0.59,2.8-0.22c0.91,0.36,1.12-0.48,1.66-0.74c4.71-2.34,9.6-2.7,14.66-1.36c0.73,0.19,1.5,0.21,2.25,0.33
		c5.85,0.92,10.15,4.04,13.97,8.57c3.73,4.43,4.53,9.54,5.15,14.83c0.24,2.07,0.26,4.21-0.26,6.3c-2.06,8.21-5.06,13.74-14.6,15.49
		c-3.08,0.57-6.27,0.52-9.4,0.73c-0.3,0.02-0.65,0.02-0.88-0.27c-0.32-0.39-0.74-0.63-1.01-0.08c-0.23,0.47-0.11,0.96,0.55,1.21
		c2.3,0.88,4.6,1.8,6.59,3.27c3.6,2.66,6.72,5.72,8.29,10.11c0.65,1.8,1.42,3.61,2.63,5.17c0.43,0.55,0.76,1.27-0.35,1.7
		c-0.73,0.29-0.35,1.28-0.8,1.76c-1.42,1.56-0.96,2.89,0.21,4.39c1.21,1.55,2.2,3.22,2.87,5.17c0.75,2.18,0.86,4.36,1.04,6.57
		c0.02,0.28,0.01,0.56,0.05,0.84c0.65,5.09-0.41,4.78-3.79,6.09c-0.5,0.19-0.91,0.31-0.77,1.06c0.43,2.27,0.8,4.56,1.13,6.85
		c0.13,0.88,0.45,1.55,1.14,2.13c1.44,1.21,2.88,2.43,3.87,4.06c0.24,0.4,0.63,0.43,1.02,0.5c2.82,0.54,4.95,3.63,4.48,6.47
		c-0.19,1.14-2.19,2.88-3.41,2.79c-0.61-0.04-0.82,0.13-1.08,0.6c-1.07,1.92-2.7,3.11-4.84,3.62c-0.66,0.16-1.3,0.39-1.95,0.59
		c-1.46,0.44-2.94-0.17-4.12-1.53c-1.06-1.21-0.54-2.33,0.13-3.38c0.66-1.04,1.48-1.98,2.26-2.94c0.75-0.91,1.15-1.98,1.56-3.07
		c0.23-0.61-0.24-0.81-0.51-1.06c-1.42-1.28-3.13-2.24-4.24-3.85c-0.79-1.15-1.64-2.18-2.08-3.64c-0.71-2.39-1.84-4.67-2.8-6.98
		C487.19,312.67,485.99,313.41,485.36,313.16z"/>
	<path style="fill-rule:evenodd;clip-rule:evenodd;fill:#E4AE86;" d="M473.93,263.48c-1.08,0.09-2.18-0.06-3.12-0.51
		c-2.09-1-4.52-1.06-6.48-2.38c-0.24-0.24-0.32-0.55-0.32-0.87c0.02-3.7-1.62-6.75-3.78-9.6c-0.19-0.25-0.43-0.48-0.5-0.8
		c1.27-0.95,2.69-1.28,4.25-0.98c0.27,0.05,0.55,0.05,0.74,0.31c0.32,0.43,0.61,1.06,1.26,0.39c0.52-0.54,0.38-1.14-0.07-1.59
		c-0.44-0.44-0.24-0.59,0.13-0.88c3.4-2.64,3.6-5.49,0.61-8.68c-0.48-0.52-1.13-0.93-0.48-1.77c0.14-0.18,0.17-0.6-0.23-0.66
		c-0.69-0.11-1.37-0.05-1.82,0.56c-0.23,0.31-0.6,0.74-0.78,0.51c-0.35-0.45-0.6-0.96-1.11-1.27c0.15-0.11,0.3-0.23,0.46-0.32
		c1.04-0.63,2.69-1,3.13-1.69c1.06-1.67,2.91-2.44,3.87-4.1c0.41-0.72,1.02-1.34,1.41-2.07c0.56-1.07,1.06-1.11,1.68-0.1
		c0.51,5.55,4.12,8.38,8.92,10.18c0.99,1,0.97,1.19,0.26,2.31c-1.8,2.85-1.81,5.15,1.12,7.24c0.47,0.33,0.96,0.64,0.61,1.34
		c-0.1,0.21-0.27,0.47-0.08,0.66c0.24,0.23,0.53,0.05,0.77-0.07c1.41-0.7,2.87-0.91,4.4-0.45c0.54,0.17,1.06,0.36,1.38,0.88
		c0.31,0.74,0.1,1.4-0.27,2.05c-1.11,1.97-2.68,3.47-4.58,4.64c-1.97,1.21-4.03,2.27-6.18,3.13c-1.84-0.64-3.61-1.47-5.56-1.78
		c-1.39-0.22-2.77-0.28-4.16-0.01c-0.66,0.13-1.33,0.27-2.01,0.11c-0.56-0.13-0.87,0.11-0.85,0.67c0.02,0.56,0.4,0.77,0.91,0.63
		c1.12-0.3,2.24-0.58,3.38-0.75c1.66-0.26,3.26,0.08,4.84,0.51c0.72,0.2,1.36,0.66,1.7,1.4c0.06,0.26-0.05,0.49-0.24,0.64
		C475.9,261.19,474.97,262.39,473.93,263.48z"/>
	<path style="fill-rule:evenodd;clip-rule:evenodd;fill:#744328;" d="M486.4,263.47c0.65-0.73,1.46-1.24,2.34-1.6
		c5.27-2.13,9.3-5.61,11.79-10.77c0.3-0.62,0.46-1.24,0.54-1.93c0.13-1.03,0.28-2,1.12-2.9c1.81-1.91,1.17-3.99-1.27-4.63
		c-0.63-0.17-0.63-0.68-0.78-1.09c-0.7-1.98-1.31-3.93-2.74-5.64c-1.6-1.92-3.56-3.01-5.83-3.74c-1.74-0.56-3.47-1.16-5.21-1.74
		c-1.29-0.43-2.57-0.82-3.96-0.75c-1.79,0.08-3.09-1.44-4.84-1.54c-2.5-0.16-4.33-1.5-5.97-3.26c-1.05-1.13-0.93-1.93,0.5-2.53
		c4.07-1.73,8.2-1.94,12.59-1.15c3.62,0.66,6.88,2.2,10.32,3.27c1.49,0.46,2.34,1.86,3.27,3.06c1.61,2.07,3.51,3.93,4.71,6.3
		c1.55,3.08,1.75,6.49,2.36,9.8c0.66,3.58-0.24,6.95-1.42,10.32c-0.75,2.15-1.68,4.14-3.27,5.75c-1.8,1.84-3.96,3.18-6.45,3.88
		c-2.55,0.72-5.18,1-7.83,1.13C486.32,263.62,486.33,263.54,486.4,263.47z"/>
	<path style="fill-rule:evenodd;clip-rule:evenodd;fill:#744328;" d="M468.57,265.22c-3.43-0.66-7.55-0.68-10.64-3.1
		c-4.04-3.17-6.79-7.4-8.62-12.34c-1.54-4.19-1.74-8.29-0.44-12.38c1.15-3.6,3.11-6.8,6.57-8.82c2.1-1.23,4.18-2.49,6.17-3.88
		c1.76-1.23,3.92-1.5,5.72-2.57c0.52-0.31,1.01-0.08,1.48,0.16c1.45,0.74,2.06,2.94,1.11,4.24c-1.76,2.42-3.71,4.57-6.45,6.06
		c-1.73,0.94-3.51,1.72-5.25,2.59c-2.44,1.23-3.7,3.63-4.47,6.3c-0.66,2.29-0.36,4.5,0.1,6.71c0.24,1.16-0.19,2.38,0.27,3.44
		c2.13,4.96,4.69,9.54,10.53,10.98c1.93,0.48,3.81,1.14,5.71,1.75c0.27,0.09,0.74-0.01,0.73,0.44c0,0.11-0.46,0.26-0.72,0.3
		C469.89,265.16,469.41,265.17,468.57,265.22z"/>
	<path style="fill-rule:evenodd;clip-rule:evenodd;fill:#CF6531;" d="M488.81,260.57c-0.06,0.04-0.13,0.06-0.2,0.05
		c-0.74-0.47-0.03-0.73,0.19-0.94c1.36-1.29,2.55-2.74,3.77-4.16c3.19-3.69,3.86-7.85,2.24-12.4c-0.78-2.2-1.3-4.43-1.33-6.77
		c-0.01-1.07-0.41-1.43-1.73-1.51c-1.2-0.07-2.37-0.27-3.51-0.65c-0.79-0.26-1.44-0.67-1.84-1.41c-1.11-1.17-2.5-0.86-3.86-0.71
		c-1.06-0.16-1.91-0.72-2.63-1.46c-0.24-0.25-0.76-0.7,0.05-0.98c0.15,0.02,0.3,0.04,0.46,0.06c0.15,0.08,0.3,0.07,0.46,0.03
		c3.5,0.36,6.79,1.58,10.15,2.5c4.12,1.14,7.89,5.86,8.09,10.03c0.04,0.85,0.38,1.17,1.18,1.05c0.62-0.09,1.43-0.64,1.67,0.4
		c0.21,0.92-0.45,1.61-1.24,1.79c-1.14,0.26-1.09,0.66-0.96,1.74c0.29,2.38-0.73,4.5-2.17,6.37c-2.04,2.66-4.53,4.79-7.54,6.3
		c-0.1,0.05-0.19,0.13-0.28,0.18c-0.06,0.05-0.12,0.07-0.19,0.06c-0.11,0.05-0.19,0.13-0.29,0.19c-0.05,0.04-0.12,0.06-0.18,0.05
		C488.99,260.42,488.9,260.5,488.81,260.57z"/>
	<path style="fill-rule:evenodd;clip-rule:evenodd;fill:#932C82;" d="M478.73,273.32c1.18-1.4,2.09-2.9,1.96-4.83
		c-0.05-0.74,0.36-0.81,0.9-0.54c2.02,0.99,4.17,1.75,5.79,3.42c0.27,1.43,0.37,2.87,0.21,4.32c-0.79,0.26-0.97,0.56-0.56,1.47
		c1.1,2.43,1.19,5.16,1.99,7.71c0.35,1.11-0.85,1.63-1.42,2.34c-1.18,1.48-2.27,3.08-4.27,3.68c-1.29,0.39-2.26,0.22-2.98-0.96
		c0.12-0.62,0.67-0.85,1.07-1.22c3.42-3.16,4.75-8.01,1.65-12.21c-0.82-1.11-1.94-1.74-3.15-2.28
		C479.47,274,478.91,273.91,478.73,273.32z"/>
	<path style="fill-rule:evenodd;clip-rule:evenodd;fill:#612B69;" d="M488.32,295.41c2.05-0.92,4.23-1.63,5.72-3.48
		c0.28-0.35,0.69-0.55,1.02-0.16c2.47,2.93,4.81,5.94,4.51,10.11c-0.96,0.98-2.16,0.89-3.35,0.67c-0.75-0.14-1.44-0.49-2.05-0.94
		c-1.29-0.94-2.59-1.85-4.02-2.57c-0.8-0.4-1.38-1.09-1.82-1.86C488.01,296.61,487.83,296,488.32,295.41z"/>
	<path style="fill-rule:evenodd;clip-rule:evenodd;fill:#BE4990;" d="M478.45,287.99c-2.19-0.21-2.78,0.22-2.89,2.12
		c-1.46-1.11-3.4-1.55-4.5-3.2c-0.24-0.36-0.52-0.71-0.72-1.1c-0.52-2.29,0.22-4.48,0.52-6.7c0.22-0.11,0.37-0.28,0.51-0.48
		c1.69-2.47,4.08-3.33,6.96-2.93c3.01,0.42,5.27,3.76,4.64,6.74c-0.44,2.12-1.54,3.82-3.14,5.24
		C479.44,288.02,479.02,288.32,478.45,287.99z"/>
	<path style="fill-rule:evenodd;clip-rule:evenodd;fill:#A83687;" d="M478.45,287.99c1.69-0.46,2.49-1.88,3.32-3.2
		c2.13-3.39,0.61-7.67-3.04-8.69c-2.48-0.7-5.35,0.3-6.91,2.4c-0.24,0.32-0.33,0.88-0.96,0.6c0.18-0.88,0.3-1.78,0.55-2.63
		c0.18-0.63-0.05-0.78-0.59-0.77c1.38-1.23,2.65-2.7,4.8-2.38c1.04,0.59,2.07,0.85,3.12,0.01c1.83,0.84,3.73,1.5,4.92,3.37
		c2.08,3.26,1.96,7.37-0.38,10.47c-0.83,1.1-1.79,2.01-2.92,2.76C479.72,289.27,479.09,288.63,478.45,287.99z"/>
	<path style="fill-rule:evenodd;clip-rule:evenodd;fill:#D3743D;" d="M486.68,232.52c0.91,1.72,2.67,1.58,4.21,1.91
		c0.38,0.08,0.8,0,1.19,0.05c1.24,0.14,1.88,0.68,1.79,2.1c-0.13,2.13,0.41,4.18,1.17,6.16c2.13,5.56,0.65,10.28-3.38,14.37
		c-1.03,1.04-1.77,2.37-3.09,3.13c-0.15,0.09-0.16,0.26,0.02,0.38c-2.48,1.4-5.13,2.26-7.95,2.64c-0.16-0.79,0.47-1.04,0.96-1.31
		c1.22-0.67,2.48-1.27,3.75-1.87c4.54-2.13,7.59-5.61,8.96-10.42c0.46-1.63,0.3-3.4-0.21-5.08c-0.59-1.94-1.26-3.86-1.66-5.86
		c-0.29-1.46-1.24-2.37-2.62-2.84c-0.09-0.05-0.19-0.11-0.27-0.18c-0.12-0.08-0.25-0.17-0.38-0.24c-0.13-0.05-0.26-0.12-0.38-0.19
		c-0.13-0.19-0.21-0.12-0.27,0.06c-0.16,0.14-0.34,0.19-0.55,0.13c-0.38-0.16-0.75-0.33-1.17-0.37c-0.11-0.02-0.21-0.04-0.32-0.08
		c-0.11-0.03-0.21-0.07-0.31-0.12c-0.11-0.04-0.21-0.09-0.31-0.15c-0.46-0.28-0.98-0.47-1.43-0.76c-0.39-0.25-0.81-0.54-0.41-1.11
		c0.56-0.31,1.12-0.22,1.68-0.03c0.13,0.05,0.27,0.1,0.42,0.09C486.37,232.87,486.46,232.61,486.68,232.52z"/>
	<path style="fill-rule:evenodd;clip-rule:evenodd;fill:#932C82;" d="M488.07,301.15c0.23-0.08,0.46-0.17,0.69-0.25
		c0.6-0.3,0.92,0.15,1.16,0.53c1.42,2.24,3.4,3.86,5.55,5.35c1.06,0.74,1.47,1.9,1.25,3.22c-2.9,0.76-5.87,1.19-8.83,1.68
		c-0.24,0.04-0.51-0.14-0.77-0.22c-0.15-0.13-0.31-0.13-0.47-0.01c-0.05,0.04-0.11,0.05-0.17,0.04c-0.12,0.03-0.21,0.11-0.3,0.18
		c-0.4,0-0.81,0-1.21,0c-0.08-0.51,0.33-0.67,0.66-0.88c0.37-0.23,0.78-0.4,1.16-0.61c2.75-1.53,3.51-3.93,2.28-7.03
		C488.79,302.47,488.26,301.9,488.07,301.15z"/>
	<path style="fill-rule:evenodd;clip-rule:evenodd;fill:#A43486;" d="M488.07,301.15c2.52,2.77,2.92,7.04-0.98,9.27
		c-0.71,0.41-1.58,0.57-2.12,1.26c-1.12,0.02-2.24,0.04-3.36,0.06c-2.72-0.65-4.96-1.96-6.19-4.6c-0.53-1.13-0.36-1.43,0.89-1.61
		c1.3-1.07,1.67-0.7,1.54,0.88c-0.06,0.76,0,1.78,1.33,1.46c1.23,0.54,2.38,1.21,3.83,1.15c3.5-0.15,5.61-2.97,4.65-6.32
		c-0.14-0.48-0.48-0.94-0.29-1.49C487.6,301.19,487.84,301.17,488.07,301.15z"/>
	<path style="fill-rule:evenodd;clip-rule:evenodd;fill:#FEFEFE;" d="M459.35,242.29c-0.03-2.23,1.12-3.64,3.12-4.14
		c1.62-0.41,3.21,0.49,4.2,2.36c0.74,1.41,0.35,3.28-0.92,4.38c-0.31,0.27-0.51,0.46-0.95,0.02c-1.35-1.33-1.81-1.23-2.71,0.36
		c-0.12,0.21-0.23,0.57-0.6,0.26C460.37,244.58,459.23,243.65,459.35,242.29z"/>
	<path style="fill-rule:evenodd;clip-rule:evenodd;fill:#732B73;" d="M488.32,295.41c-0.18,1.62,0.77,2.66,2,3.35
		c1.31,0.74,2.6,1.49,3.79,2.42c1.68,1.32,3.51,1.52,5.47,0.71c0.35,1.67,0.75,3.33,0.75,5.05c0,0.82-0.22,1.49-0.96,1.91
		c-0.74-0.29-0.76-0.97-0.83-1.59c-0.14-1.39-0.8-2.19-2.2-2.59c-2.95-0.84-5.39-2.5-7.27-4.94c-0.66-0.7-1.26-1.47-2.01-2.06
		c-0.59-0.46-1.2-0.96-1.07-1.67c0.13-0.68,1.02-0.29,1.52-0.56C487.72,295.32,488.05,295.41,488.32,295.41z"/>
	<path style="fill-rule:evenodd;clip-rule:evenodd;fill:#DC945E;" d="M478.24,263.68c-0.72,0.01-1.44,0.01-2.15,0.02
		c-0.18-0.81,0.43-1.21,0.92-1.62c0.64-0.52,1.24-1.08,1.83-1.64c0.18-0.15,0.38-0.27,0.6-0.36c1.93-0.86,3.84-1.77,5.67-2.82
		c2.71-1.57,4.82-3.74,6.19-6.61c0.94-1.97,0.84-3.92,0.03-5.89c0.04-0.62,0.2-1.2,0.55-1.72c0.71-0.26,0.94,0.27,1.12,0.75
		c1.08,2.78,1.18,5.58-0.29,8.22c-1.77,3.16-4.19,5.72-7.53,7.31c-1.01,0.48-2.01,0.98-3.01,1.47
		C480.69,261.51,479.35,262.44,478.24,263.68z"/>
	<path style="fill-rule:evenodd;clip-rule:evenodd;fill:#922D80;" d="M475.62,273.31c-1.94,0.1-3.17,1.66-4.8,2.38
		c-1.5,1.27-1.43,3.04-1.42,4.73c0.01,1.2-0.12,1.8-1.6,1.9c-1.17,0.07-1.38-0.3-1.3-1.18c0.25-2.7,1.73-4.92,2.9-7.26
		c0.48-0.97,1.15-1.87,2.04-2.48c0.8-0.55,1.81-1.09,2.53,0.21C474.37,272.33,475.08,272.73,475.62,273.31z"/>
	<path style="fill-rule:evenodd;clip-rule:evenodd;fill:#E4AE86;" d="M454.78,245.97c-0.06-3.13,0.37-6.11,2.58-8.54
		c0.34-0.38,0.67-0.8,1.22-0.91c-0.05,0.77,0.75,1.52,0.32,2.22c-1.85,2.96-1.22,5.5,1.14,7.81c0.51,0.49,0.59,0.79-0.21,1.01
		c-0.37,0.1-0.68,0.39-1.02,0.59C457.46,247.42,456.25,246.45,454.78,245.97z"/>
	<path style="fill-rule:evenodd;clip-rule:evenodd;fill:#E0A170;" d="M454.78,245.97c1.73,0,2.93,0.99,4.02,2.17
		c-0.09,0.45-0.75,0.81-0.22,1.37c0.48,0.51,0.74-0.21,1.13-0.2c1.68,1.2,2.48,3.03,3.35,4.79c1.01,2.04,1.42,4.21,1.25,6.49
		c-0.08-0.01-0.16-0.02-0.24-0.03c-0.07-0.05-0.15-0.06-0.23-0.03c-0.56-0.17-1.11-0.33-1.67-0.5c0.04-4.01-1.8-7.19-4.46-10
		c-0.74-0.79-1.62-1.42-2.71-1.67C454.94,247.56,454.86,246.77,454.78,245.97z"/>
	<path style="fill-rule:evenodd;clip-rule:evenodd;fill:#822B7A;" d="M489.07,299.73c1.17,0.95,2.31,1.93,3.52,2.83
		c1.19,0.89,2.53,1.56,3.98,1.84c1.67,0.33,2.2,1.41,2.29,2.87c0.04,0.59,0.26,1.07,0.5,1.57c0,0,0,0,0,0
		c-0.07,0.07-0.15,0.14-0.24,0.2c-0.39,0.18-0.78,0.35-1.17,0.53c-0.09,0.06-0.18,0.12-0.27,0.19c-0.32,0.08-0.65,0.16-0.97,0.24
		c-0.34-1.54-0.87-2.9-2.4-3.73c-2-1.08-3.4-2.83-4.67-4.68c-0.23-0.34-0.42-0.68-0.89-0.7
		C489.05,300.56,489.05,300.15,489.07,299.73z"/>
	<path style="fill-rule:evenodd;clip-rule:evenodd;fill:#E4AE87;" d="M466.21,288.44c0.33-0.83,0.18-1.72,0.25-2.58
		c0.1-1.19,1.15-1.37,1.99-1.71c0.4-0.16,0.44,0.22,0.43,0.5c-0.19,3.16,0.78,6.02,2.22,8.76c0.2,0.38-0.2,0.34-0.32,0.48
		c-0.28,0.33-0.82,0.6-0.86,0.95c-0.27,2.24-0.97,0.33-1.2,0.08C467.1,293.08,466.71,290.75,466.21,288.44z"/>
	<path style="fill-rule:evenodd;clip-rule:evenodd;fill:#792B76;" d="M487.59,275.68c-0.47-1.42-0.48-2.86-0.21-4.32
		c0.97,0.61,1.87,1.31,2.64,2.17c0.23,0.39,0.27,0.82,0.33,1.26c0.43,3.02,1.22,5.87,3.95,7.73c0.29,0.19,0.61,0.41,0.5,0.86
		c-0.63,0.01-1.27,0.01-1.9,0.02c-0.14,0.13-0.35,0.08-0.49,0.2c-2.24,0.44-2.21,0.44-2.69-1.86c-0.34-1.63-0.57-3.3-1.21-4.86
		C488.32,276.42,488.12,275.92,487.59,275.68z"/>
	<path style="fill-rule:evenodd;clip-rule:evenodd;fill:#E4AE87;" d="M477.03,265.16c1.59-0.5,1.86,0.61,1.98,2.05
		c0.08,1.04,0.16,2.08-0.11,3.08c-0.21,0.78-0.47,1.85-1.45,1.79c-1.12-0.07-2.07-0.83-2.44-1.93c-0.3-0.88-0.4-1.84-0.38-2.81
		C474.68,264.6,474.58,265.21,477.03,265.16z"/>
	<path style="fill-rule:evenodd;clip-rule:evenodd;fill:#D06A35;" d="M491.69,292.55c-1.35,1.34-3.28,1.48-4.87,2.35
		c-0.3,0.16-0.84,0.13-1.16-0.03c-1.41-0.72-1.43,0.02-1.45,1.15c-0.03,1.05,0.59,2.39-0.91,3.03c-0.75-0.58-0.88-1.43-0.8-2.27
		c0.39-4.32,4.24-7.23,8.41-5.74c0.56,0.2,1.33,0.33,1.03,1.27l0.01-0.02C491.84,292.35,491.76,292.45,491.69,292.55z"/>
	<path style="fill-rule:evenodd;clip-rule:evenodd;fill:#E1A273;" d="M481.65,237.29c-3.86-0.41-8.94-5.57-9.14-9.33
		c-0.02-0.34,0.16-0.68,0.25-1.02c0.55,0.46,1.21,0.69,1.89,0.86c0.63,0.84,0.68,1.94,1.26,2.82c1.21,1.87,2.95,3.09,4.85,4.13
		c0.51,0.28,1.12,0.47,1.26,1.16C481.99,236.4,482,236.9,481.65,237.29z"/>
	<path style="fill-rule:evenodd;clip-rule:evenodd;fill:#D7844D;" d="M478.24,263.68c0.09-1.27,1.25-1.58,2.04-2.15
		c2.23-1.62,5.03-2.26,7.2-3.99c2.51-2.02,4.75-4.31,5.66-7.51c0.63-2.21,0.32-4.42-0.57-6.53c-0.08-0.18-0.35-0.28-0.53-0.42
		c-0.46-0.53-0.18-1.08-0.03-1.63c0.83-0.76,1.1-0.04,1.34,0.55c2.07,5.08,1.53,9.68-2.34,13.8c-1.89,2.01-3.9,3.72-6.52,4.71
		c-1.83,0.69-3.47,1.77-5.04,2.95C479.07,263.67,478.67,263.76,478.24,263.68z"/>
	<path style="fill-rule:evenodd;clip-rule:evenodd;fill:#E3AB81;" d="M478.71,300.35c-0.63,0.96-1.24,1.93-1.91,2.86
		c-0.16,0.22-0.36,0.78-0.81,0.4c-0.34-0.29-0.07-0.64,0.08-0.97c0.35-0.74,1.67-1.04,1.03-2.25c-0.14-0.26,0-0.67-0.44-0.74
		c-0.34-0.05-0.62,0.07-0.83,0.35c-0.1,0.13-0.18,0.28-0.31,0.37c-0.43,0.31-0.85,1.26-1.28,0.79c-0.4-0.45,0.56-0.88,0.91-1.33
		c0.31-0.4,1.27-0.38,0.79-1.29c-0.46-0.87-1.11-0.49-1.74-0.35c-0.31,0.07-0.67,0.47-0.91-0.02c-0.26-0.53,0.23-0.67,0.56-0.86
		c0.28-0.16,0.57-0.29,0.85-0.42c0.39-0.18,0.48-0.51,0.44-0.9c-0.03-0.37-0.25-0.56-0.62-0.62c-0.35-0.05-0.71-0.1-1.05-0.18
		c-0.5-0.12-1.07,0.27-1.52-0.21c0.66-0.31,1.21-0.88,2.05-0.7c1.52,0.31,3.01,0.43,4.21-0.85c0.28,0.22,0.35,0.54,0.3,0.87
		C478.24,296.32,478.35,298.34,478.71,300.35z"/>
	<path style="fill-rule:evenodd;clip-rule:evenodd;fill:#912B82;" d="M498.48,331.75c0.45,0.03,1.05-0.27,1.29-0.76
		c0.71-1.49,2.33-1.85,3.43-2.86c0.56-0.51,1.71-0.4,2.49,0.15c0.7,0.49,0.7,0.95,0.11,1.74c-0.97,1.3-2.52,1.95-3.36,3.39
		c-0.27,0.47-1.16,0.08-1.73-0.11c-0.86-0.28-1.71-0.63-2.55-0.99c-0.24-0.1-0.75-0.04-0.58-0.55
		C497.71,331.38,498.03,331.6,498.48,331.75z"/>
	<path style="fill-rule:evenodd;clip-rule:evenodd;fill:#DA915A;" d="M496.44,319.65c0.09,0.7,0.29,1.35,0.75,1.91
		c-0.94,0.9-2.5,0.64-3.12-0.52c-0.21-0.22-0.39-0.56-0.65-0.65c-3.09-1-2.82-4.06-3.74-6.32c-0.24-0.58,1-1.17,1.74-1.46
		c0.61-0.24,1.3-0.26,1.96-0.38c0.32,0.4,0.05,0.76-0.09,1.12c-1.31,3.18-0.48,5,2.77,6.06
		C496.2,319.44,496.33,319.53,496.44,319.65z"/>
	<path style="fill-rule:evenodd;clip-rule:evenodd;fill:#D47C45;" d="M479.44,263.46c1.3-1.8,3.33-2.48,5.22-3.34
		c4.8-2.19,8.15-5.7,9.49-10.82c0.7-2.66-0.37-5.26-1.32-7.76c-0.11-0.28-0.34-0.3-0.59-0.14c-0.19-0.08-0.23-0.25-0.25-0.44
		c0.17-1.7-0.35-3.09-1.82-4.05c-0.33-0.22-0.66-0.43-0.81-0.83c-0.06-0.25-0.04-0.49,0.17-0.67c2.3,0.57,3.17,2.23,3.53,4.41
		c0.43,2.61,1.77,5,1.78,7.75c0.01,3.21-1.47,5.62-3.29,8.08c-2.39,3.23-5.87,4.65-9.26,6.29c-0.65,0.31-1.31,0.61-1.63,1.32l0,0
		c-0.07,0.05-0.15,0.1-0.23,0.14C480.1,263.42,479.77,263.44,479.44,263.46z"/>
	<path style="fill-rule:evenodd;clip-rule:evenodd;fill:#912B82;" d="M469.07,332.83c1.23,1.07,2.04-0.3,3.01-0.59
		c0.33-0.1,0.58-0.24,0.92-0.12c0.97,0.33,1.94,0.36,2.92,0.02c0.24-0.08,0.55-0.29,0.75,0.04c0.18,0.29-0.21,0.37-0.29,0.55
		c-0.43,1.01-1.16,2.04-1.14,3.06c0.03,1.21-0.78,0.92-1.26,1.06c-0.65,0.19-1.02-0.31-1.14-0.92c-0.23-1.18-1.03-0.95-1.56-0.46
		c-0.98,0.92-1.3,0.13-1.65-0.51c-0.36-0.66-0.62-1.38-0.92-2.07C468.79,332.68,468.93,332.73,469.07,332.83z"/>
	<path style="fill-rule:evenodd;clip-rule:evenodd;fill:#952D84;" d="M476.31,305.53c-1.07,0.24-0.97,0.85-0.56,1.63
		c0.97,1.86,2.46,3.11,4.41,3.81c0.52,0.19,1.07,0.34,1.45,0.78c-0.17,0.06-0.34,0.11-0.51,0.17c-0.22-0.11-0.45-0.1-0.68-0.01
		c-0.65-0.08-1.31-0.15-1.96-0.23c-0.23-0.12-0.45-0.11-0.68-0.01c-0.75-0.08-1.51-0.11-2.25-0.25c-2.41-0.48-2.62-0.82-2.1-3.25
		c0.02-0.12,0.03-0.24,0.05-0.36c0.16-0.86,0.08-1.91,0.57-2.5C474.32,304.99,475.52,305.43,476.31,305.53z"/>
	<path style="fill-rule:evenodd;clip-rule:evenodd;fill:#642C6C;" d="M494.8,283.39c-2.76-1.7-4-4.34-4.67-7.37
		c-0.18-0.83-0.09-1.65-0.11-2.48c2.55,2.2,4.01,5.11,5.23,8.16c0.1,0.26,0.22,0.51,0.3,0.78c0.1,0.35,0.61,0.69,0.26,1.05
		C495.52,283.82,495.14,283.4,494.8,283.39z"/>
	<path style="fill-rule:evenodd;clip-rule:evenodd;fill:#DC9560;" d="M481.84,235.83c-1.4-1.1-3.09-1.73-4.42-2.96
		c-1.51-1.4-2.56-2.98-2.77-5.06c0.66,0.2,1.33,0.41,1.99,0.61c0.78,2.16,2.41,3.51,4.3,4.65c1.34,0.8,2.83,1.28,4.14,2.14
		c0.23,1.48,0.02,2.04-0.88,2.41c-0.4,0.16-0.92,0.25-1-0.23C483.05,236.53,482.34,236.3,481.84,235.83z"/>
	<path style="fill-rule:evenodd;clip-rule:evenodd;fill:#B5418C;" d="M487.37,301.2c1.33,2.61,1.17,4.93-0.45,6.52
		c-1.74,1.71-4.62,2.13-6.77,1c-0.4-0.21-0.76-0.45-0.97-0.85l0.01,0c0.09-0.06,0.17-0.12,0.25-0.19c0.17-0.17,0.34-0.34,0.49-0.52
		c0.54-0.62,0.93-2.63,1.76-0.15c0.19,0.55,0.69,0.4,1.1,0.13c1.57,0.34,2.44-0.74,3.39-1.67c0.35,0,0.73,0.14,0.99-0.24
		c0.06-0.09,0.12-0.18,0.17-0.27c0.02-0.15,0.04-0.3,0.07-0.46c0.12-0.39,0.12-0.78,0-1.17c-0.02-0.16-0.03-0.33-0.05-0.49
		c-0.14-0.13-0.08-0.33-0.2-0.47c-0.02-0.08-0.03-0.16-0.05-0.24c-0.06-0.07-0.12-0.15-0.16-0.24c-0.04-0.14-0.08-0.28-0.12-0.42
		c-0.05-0.1-0.03-0.19,0.05-0.28C487.05,301.2,487.21,301.2,487.37,301.2z"/>
	<path style="fill-rule:evenodd;clip-rule:evenodd;fill:#F2DFED;" d="M472.73,327.81c0.07-0.86,0.16-1.84,0.23-2.83
		c0.02-0.31,0.06-0.59,0.47-0.44c1.08,0.37,2.16,0.71,3.21,1.15c0.41,0.17,0.33,2.41-0.08,2.77c-0.16,0.14-0.45,0.14-0.44,0.46
		c0.05,1.37-0.68,1.91-1.97,1.86c-1.67-0.07-1.17-1.44-1.42-2.36C472.69,328.27,472.73,328.1,472.73,327.81z"/>
	<path style="fill-rule:evenodd;clip-rule:evenodd;fill:#A13386;" d="M470.35,285.8c1.45,1.31,2.62,3,4.73,3.41
		c0.43,0.08,0.17,0.67,0.48,0.89c0.25,0.36,0.46,0.75,0.75,1.07c0.44,0.49,0.78,1.08,0.27,1.58s-1.34,0.48-1.83-0.03
		c-0.63-0.65-1.38-0.9-2.19-1.08c-0.36-0.08-0.66-0.18-0.82-0.58C471.06,289.36,470.36,287.67,470.35,285.8z"/>
	<path style="fill-rule:evenodd;clip-rule:evenodd;fill:#D47841;" d="M491.94,292.31c-0.67-1.46-2.16-1.42-3.26-1.32
		c-4.43,0.42-6.61,3.82-5.38,8.05c-0.15,0.07-0.3,0.15-0.44,0.22c-0.11,0.05-0.19,0.12-0.29,0.19c-0.08,0.02-0.16,0.04-0.23,0.06
		c-1.29-1.42-0.94-3.08-0.59-4.69c0.2-0.92,0.66-1.77,1.3-2.49c0.29-0.21,0.61-0.33,0.97-0.29c0.04-0.08,0.1-0.11,0.18-0.11
		c1.32-0.47,2.35-1.36,3.35-2.29c1.88-0.72,4.8,0.02,5.81,1.46C492.89,291.5,492.41,291.9,491.94,292.31z"/>
	<path style="fill-rule:evenodd;clip-rule:evenodd;fill:#D47C45;" d="M484.94,235.16c-3.16-0.98-6-2.46-7.96-5.26
		c-0.29-0.42-0.71-0.88-0.34-1.48c1.2,0.14,2.3,0.57,3.32,1.22c-0.55,0.66,0.21,0.84,0.48,1.05c0.65,0.5,1.32,1,2.17,1.14
		c-0.04,0.99,0.81,0.96,1.4,1.23c0.3,1.09,1.63,0.81,2.16,1.61C485.86,235.07,485.42,235.18,484.94,235.16z"/>
	<path style="fill-rule:evenodd;clip-rule:evenodd;fill:#DD9B68;" d="M476.09,319.89c0.59-0.65,0.86-1.23-0.34-1.44
		c-0.36-0.06-0.67-0.21-0.6-0.58c0.25-1.3,0.21-2.7,1.1-3.81c0.53-0.66,1.17-1.07,2.06-0.78c0.74-0.04,0.96,0.26,0.63,0.93
		c-0.2,0.39-0.45,0.76-0.62,1.16c-0.65,1.49-0.61,2.95,0.22,4.37c0.16,0.28,0.33,0.55,0.42,0.86c0,0.61-0.38,1.02-0.73,1.45
		c-0.07,0.08-0.14,0.17-0.21,0.26l0.01-0.01C476.94,322.13,476.19,321.19,476.09,319.89z"/>
	<path style="fill-rule:evenodd;clip-rule:evenodd;fill:#E2A77B;" d="M494.07,321.03c0.97,0.58,1.96,1.08,3.12,0.52
		c2.59,1.42,2.57,1.39,0.2,3.36c-0.71,0.59-1.28,0.64-2.01,0.12c-0.61-0.44-1.32-0.75-1.92-1.21
		C492.33,322.96,492.52,322.14,494.07,321.03z"/>
	<path style="fill-rule:evenodd;clip-rule:evenodd;fill:#E0A273;" d="M478.71,300.35c-1.23-1.77-0.61-3.73-0.59-5.63
		c0-0.43,0.07-0.86,0.11-1.29c0.46-1.15,0.13-2.15-0.6-3.07c-0.2-0.25-0.62-0.61-0.22-0.9c0.31-0.23,0.64,0.16,0.87,0.42
		c0.84,0.95,1.63,1.95,2.83,2.49c-0.18,0.81-0.75,1.45-0.96,2.27c-0.36,1.45-0.5,2.88-0.07,4.33c0.11,0.38,0.23,0.76,0.08,1.16
		C479.67,300.2,479.19,300.28,478.71,300.35z"/>
	<path style="fill-rule:evenodd;clip-rule:evenodd;fill:#DB935D;" d="M455.02,248.36c0.59-0.43,1.06-0.09,1.5,0.26
		c3.41,2.68,5.5,6.11,6,10.47c0.05,0.45-0.15,0.66-0.34,0.94c-0.39-0.13-0.79-0.24-1.04-0.6c-0.32-4.05-2.31-7.17-5.42-9.64
		c-0.32-0.25-0.65-0.46-0.67-0.91C455.03,248.71,455.03,248.53,455.02,248.36z"/>
	<path style="fill-rule:evenodd;clip-rule:evenodd;fill:#D57D46;" d="M496.44,319.65c-3.13-0.03-5.06-3.08-3.73-5.91
		c0.23-0.5,0.44-1.01,0.66-1.52c1.04-0.77,1.66-0.27,2.1,0.71c-0.21,0.33-0.5,0.61-0.72,0.93c-0.65,0.97-0.71,1.95-0.07,2.98
		c0.43,0.7,0.96,0.98,1.75,0.66C496.44,318.21,496.44,318.93,496.44,319.65z"/>
	<path style="fill-rule:evenodd;clip-rule:evenodd;fill:#D8874F;" d="M455.04,248.88c3.32,2.2,5.38,5.27,6.29,9.12
		c0.12,0.5,0.29,1.01-0.2,1.43c-0.38-0.25-0.76-0.49-1.14-0.74c-0.48-3.31-2.28-5.82-4.75-7.94
		C455.18,250.13,455.11,249.51,455.04,248.88z"/>
	<path style="fill-rule:evenodd;clip-rule:evenodd;fill:#E2AA81;" d="M490.49,286.53c0.43-0.8,1.02-1.33,1.99-1.15
		c0.62,0.12,1.05-0.39,1.64-0.41c2.01-0.06,2.67,1.21,1.34,3.48c-0.06,0.05-0.14,0.13-0.2,0.12
		C493.56,288.16,491.9,287.63,490.49,286.53z"/>
	<path style="fill-rule:evenodd;clip-rule:evenodd;fill:#E2A97F;" d="M476.09,319.89c0.55,0.88,0.9,1.91,1.93,2.41
		c-0.4,0.55-0.4,1.58-1.13,1.63c-1.1,0.08-2.17-0.41-3.11-0.99c-0.58-0.36,0.09-0.89,0.11-1.35
		C473.96,320.14,474.64,319.53,476.09,319.89z"/>
	<path style="fill-rule:evenodd;clip-rule:evenodd;fill:#F1DEEC;" d="M496.12,336.96c-0.52-0.09-1.66,0.05-1.48-0.95
		c0.14-0.76,0.75-1.58,2-1.68c0.6-0.05,1.19-0.5,1.97-0.29c0.76,0.21,1.15,0.82,1.36,1.35c0.17,0.44-0.64,0.66-1.06,0.9
		C498.11,336.76,497.24,337.01,496.12,336.96z"/>
	<path style="fill-rule:evenodd;clip-rule:evenodd;fill:#D3753F;" d="M455.24,250.76c2.02,0.71,2.89,2.52,3.81,4.19
		c0.61,1.12,1.55,2.27,0.94,3.74l0.01,0c-0.06-0.11-0.17-0.17-0.26-0.25c-1.47-1.9-2.96-3.79-3.96-6c-0.16-0.35-0.24-0.74-0.36-1.11
		c-0.02-0.13-0.11-0.22-0.17-0.33C455.25,250.93,455.25,250.84,455.24,250.76z"/>
	<path style="fill-rule:evenodd;clip-rule:evenodd;fill:#D98952;" d="M478.95,320.6c-1.69-1.37-1.9-3.93-0.54-6.14
		c0.23-0.38,0.94-0.89-0.11-1.19c0.93,0,1.89-0.19,2.72,0.42c-0.04,0.55-0.36,0.96-0.71,1.33c-0.92,0.97-1.22,2.09-0.83,3.38
		c0.1,0.34,0.19,0.69-0.03,1.03C479.29,319.82,479.12,320.21,478.95,320.6z"/>
	<path style="fill-rule:evenodd;clip-rule:evenodd;fill:#DE9C6A;" d="M490.49,286.53c1.66,0.64,3.32,1.28,4.98,1.92
		c0.07,1.02-0.81,1.37-1.38,1.95c-1.35-0.92-2.78-1.6-4.44-1.69c-0.35-0.02-0.69-0.17-0.87-0.52
		C489.35,287.63,489.92,287.08,490.49,286.53z"/>
	<path style="fill-rule:evenodd;clip-rule:evenodd;fill:#F1DEEC;" d="M463.12,334.29c0.68,0.05,1.1-0.27,1.36-0.89
		c0.42-0.98,1.46-1.19,2.23-0.46c0.14,0.14,0.25,0.31,0.39,0.44c0.7,0.66,1.06,1.67,0.76,2.38c-0.26,0.63-1.28,0.07-1.92-0.07
		c-1.03-0.24-2.29-0.13-2.8-1.44L463.12,334.29z"/>
	<path style="fill-rule:evenodd;clip-rule:evenodd;fill:#DB935E;" d="M480.16,300.12c-1.08-2.2-0.82-4.39-0.01-6.59
		c0.18-0.5,0.47-0.92,0.96-1.17c0.32,0.07,0.65,0.13,0.97,0.2c0.15,0.33,0.04,0.63-0.1,0.92c-0.85,1.72-0.9,3.51-0.54,5.35
		c0.07,0.35,0.17,0.7-0.06,1.03C480.97,299.95,480.56,300.03,480.16,300.12z"/>
	<path style="fill-rule:evenodd;clip-rule:evenodd;fill:#F0DEEB;" d="M501,326.31c-0.12,0.17-0.23,0.39-0.02,0.52
		c0.57,0.33,1.23,0.6,0.11,1.1c-0.81,0.36-1.62,1.4-2.37-0.11c-0.2-0.39-0.26-0.92-0.78-1.1c-0.08-0.03-0.14-0.11-0.21-0.17
		c0.79-0.77,1.48-1.95,2.41-2.2C500.88,324.15,500.99,325.49,501,326.31z"/>
	<path style="fill-rule:evenodd;clip-rule:evenodd;fill:#E0A475;" d="M478.97,260.61c-0.73,1.24-2.34,1.66-2.88,3.08
		c-0.73,0.02-1.47,0.13-2.16-0.22c0.66-1.66,1.99-2.69,3.42-3.62C478.11,259.63,478.61,259.97,478.97,260.61z"/>
	<path style="fill-rule:evenodd;clip-rule:evenodd;fill:#D16C37;" d="M496.43,317.5c-0.24,0.65-0.64,0.88-1.24,0.41
		c-0.82-0.65-1.39-1.52-1.3-2.55c0.08-1.02,0.39-2.06,1.58-2.43c0.05,0.06,0.07,0.12,0.06,0.19c0.06,0.09,0.12,0.18,0.18,0.27
		C495.53,314.84,496.8,316.02,496.43,317.5z"/>
	<path style="fill-rule:evenodd;clip-rule:evenodd;fill:#D98A53;" d="M488.78,288.19c1.49,0.42,3.16,0.24,4.47,1.29
		c0.32,0.26,0.81,0.38,0.84,0.92c-0.24,0.23-0.48,0.46-0.73,0.7c-1.77-1.14-3.72-1.57-5.81-1.46c0.33-0.4,0.66-0.79,0.99-1.19
		c0.1-0.08,0.2-0.15,0.26-0.26L488.78,288.19z"/>
	<path style="fill-rule:evenodd;clip-rule:evenodd;fill:#D7844D;" d="M481.37,299.86c-0.84-2.54-0.73-4.98,0.7-7.3
		c0.17-0.02,0.33-0.04,0.5-0.06c0.04-0.06,0.1-0.09,0.17-0.1c0.1-0.02,0.2-0.05,0.3-0.07c-0.13,1.32-1.21,2.3-1.22,3.68
		c-0.01,1.2,0.09,2.37,0.51,3.49C482.01,299.62,481.69,299.74,481.37,299.86z"/>
	<path style="fill-rule:evenodd;clip-rule:evenodd;fill:#C55293;" d="M486.18,305.47c-0.35,1.51-1.62,1.8-2.84,2.14
		c-0.33,0.09-0.5-0.16-0.55-0.47c0.66-0.87,1.14-1.81,1.22-2.91c0.02-0.22-0.08-0.56,0.23-0.59c0.18-0.02,0.42,0.18,0.58,0.33
		C485.28,304.46,485.72,304.97,486.18,305.47z"/>
	<path style="fill-rule:evenodd;clip-rule:evenodd;fill:#D47841;" d="M479.46,319.44c-1.19-2.38-0.08-4.14,1.57-5.75
		C480.74,315.67,481.33,317.89,479.46,319.44z"/>
	<path style="fill-rule:evenodd;clip-rule:evenodd;fill:#F6F6F6;" d="M462.67,336.89c1.8,0.26,3.6,0.53,5.41,0.77
		c0.47,0.06,0.66,0.46,0.63,0.73c-0.04,0.37-0.48,0.19-0.73,0.15c-1.86-0.28-3.77-0.39-5.35-1.6L462.67,336.89z"/>
	<path style="fill-rule:evenodd;clip-rule:evenodd;fill:#DCAC87;" d="M460.64,237.37c-0.34-0.38-1-0.78-1.03-1.22
		c-0.03-0.45,0.81-0.57,1.25-0.55c0.7,0.03,0.23,0.77,0.46,1.17C461.55,237.15,461.08,237.24,460.64,237.37z"/>
	<path style="fill-rule:evenodd;clip-rule:evenodd;fill:#D1976A;" d="M482.05,303.58c-0.24-0.53-0.46-1.07-0.74-1.59
		c-0.19-0.37-0.05-0.52,0.28-0.58c0.29-0.04,0.66-0.18,0.71,0.34c0.05,0.51,0.12,1.01,0.17,1.52
		C482.35,303.39,482.24,303.55,482.05,303.58z"/>
	<path style="fill-rule:evenodd;clip-rule:evenodd;fill:#CA7D4A;" d="M485.17,302.1c-0.47-0.26-0.96-0.5-1.39-0.8
		c-0.4-0.28-0.25-0.6,0.06-0.88c0.36-0.32,0.48,0.03,0.59,0.25c0.24,0.48,0.73,0.83,0.76,1.41L485.17,302.1z"/>
	<path style="fill-rule:evenodd;clip-rule:evenodd;fill:#EEEEEE;" d="M506.85,332.25c-0.32,0.66-0.87,0.98-1.54,1.13
		c-0.12,0.03-0.27-0.07-0.4-0.11c0.37-0.66,1.06-0.88,1.65-1.24C506.8,331.88,506.76,332.12,506.85,332.25z"/>
	<path style="fill-rule:evenodd;clip-rule:evenodd;fill:#AF6438;" d="M485.24,299.12c0.08-0.3,0.2-0.53,0.48-0.51
		c0.37,0.02,0.7,0.22,0.82,0.57c0.13,0.39-0.24,0.3-0.44,0.3C485.75,299.49,485.4,299.47,485.24,299.12z"/>
	<path style="fill-rule:evenodd;clip-rule:evenodd;fill:#D0D0D0;" d="M479.89,303.39c-0.13,0.35,0.19,0.98-0.25,1.03
		c-0.45,0.04-0.17-0.55-0.21-0.85c-0.04-0.34-0.02-0.84,0.38-0.87C480.06,302.69,479.86,303.15,479.89,303.39z"/>
	<path style="fill-rule:evenodd;clip-rule:evenodd;fill:#E1D9D3;" d="M482.05,303.58c0.05-0.24,0.14-0.42,0.44-0.3
		c0.02,0.07,0.06,0.15,0.06,0.22c0,0.38-0.01,0.77-0.02,1.15C482.07,304.42,482.17,303.95,482.05,303.58z"/>
	<path style="fill-rule:evenodd;clip-rule:evenodd;fill:#E2E2E2;" d="M477.27,335.2c0.05-0.2-0.09-0.46,0.19-0.57
		c0.06,0.16,0.19,0.32,0.18,0.48c-0.01,0.21-0.13,0.6-0.18,0.6C477.1,335.68,477.35,335.37,477.27,335.2z"/>
	<path style="fill-rule:evenodd;clip-rule:evenodd;fill:#E4E4E4;" d="M469.07,332.83c-0.12,0.02-0.24,0.04-0.36,0.06
		c-0.17-0.29-0.54-0.79-0.23-0.89C468.89,331.87,468.87,332.53,469.07,332.83z"/>
	<path style="fill-rule:evenodd;clip-rule:evenodd;fill:#A43486;" d="M487.41,303.34c0.29,0.39,0.29,0.78,0,1.17
		C487.41,304.12,487.41,303.73,487.41,303.34z"/>
	<path style="fill-rule:evenodd;clip-rule:evenodd;fill:#A43486;" d="M480.43,311.91c0.23-0.24,0.45-0.23,0.68,0.01
		C480.88,311.91,480.65,311.91,480.43,311.91z"/>
	<path style="fill-rule:evenodd;clip-rule:evenodd;fill:#A43486;" d="M477.78,311.67c0.23-0.24,0.46-0.24,0.68,0.01
		C478.24,311.68,478.01,311.67,477.78,311.67z"/>
	<path style="fill-rule:evenodd;clip-rule:evenodd;fill:#642C6C;" d="M492.41,283.61c0.16-0.07,0.32-0.13,0.49-0.2
		C492.73,283.48,492.57,283.54,492.41,283.61z"/>
	<path style="fill-rule:evenodd;clip-rule:evenodd;fill:#D47C45;" d="M480.87,229.72c-0.16,0.17-0.32,0.17-0.46-0.03
		C480.57,229.7,480.72,229.71,480.87,229.72z"/>
	<path style="fill-rule:evenodd;clip-rule:evenodd;fill:#7C7B7B;" d="M471.66,296.92c0.02,0.07,0.06,0.13,0.07,0.2
		c0,0.02-0.05,0.05-0.08,0.08c-0.03-0.03-0.08-0.07-0.07-0.09C471.58,297.04,471.62,296.98,471.66,296.92z"/>
	<path style="fill-rule:evenodd;clip-rule:evenodd;fill:#A43486;" d="M486.65,311.46c0.16-0.22,0.31-0.21,0.47,0.01
		C486.96,311.46,486.81,311.46,486.65,311.46z"/>
	<path style="fill-rule:evenodd;clip-rule:evenodd;fill:#F1DEEC;" d="M463.14,334.26c-0.19,0.11-0.27,0.03-0.27-0.16
		c0-0.06,0.06-0.12,0.09-0.18c0.06,0.12,0.11,0.24,0.17,0.36L463.14,334.26z"/>
	<path style="fill-rule:evenodd;clip-rule:evenodd;fill:#EDEDED;" d="M462.62,336.94c-0.21,0.01-0.41,0.02-0.44-0.27l-0.02,0.02
		c0.21-0.04,0.44-0.13,0.51,0.19L462.62,336.94z"/>
	<path style="fill-rule:evenodd;clip-rule:evenodd;fill:#A43486;" d="M487.16,302.37c0.07,0.16,0.13,0.31,0.2,0.47
		C487.29,302.69,487.23,302.53,487.16,302.37z"/>
	<path style="fill-rule:evenodd;clip-rule:evenodd;fill:#939292;" d="M473.92,303.82c0.03-0.06,0.05-0.12,0.08-0.19
		c0.18,0.18-0.03,0.13-0.1,0.17L473.92,303.82z"/>
	<path style="fill-rule:evenodd;clip-rule:evenodd;fill:#FAFAFA;" d="M473.9,303.8c-0.02,0.07-0.05,0.14-0.07,0.21
		c-0.04-0.04-0.07-0.08-0.1-0.12c0.07-0.02,0.13-0.05,0.2-0.07L473.9,303.8z"/>
	<path style="fill-rule:evenodd;clip-rule:evenodd;fill:#A43486;" d="M487.34,304.96c-0.06,0.09-0.11,0.18-0.17,0.27
		C487.23,305.14,487.28,305.05,487.34,304.96z"/>
	<path style="fill-rule:evenodd;clip-rule:evenodd;fill:#A43486;" d="M479.43,307.67c-0.08,0.06-0.17,0.13-0.25,0.19
		C479.27,307.8,479.35,307.74,479.43,307.67z"/>
	<path style="fill-rule:evenodd;clip-rule:evenodd;fill:#732B73;" d="M499.13,309.04c0.08-0.07,0.16-0.13,0.24-0.2
		C499.29,308.91,499.21,308.98,499.13,309.04z"/>
	<path style="fill-rule:evenodd;clip-rule:evenodd;fill:#732B73;" d="M497.69,309.77c0.09-0.06,0.18-0.13,0.27-0.19
		C497.87,309.64,497.78,309.71,497.69,309.77z"/>
	<path style="fill-rule:evenodd;clip-rule:evenodd;fill:#A43486;" d="M486.18,311.68c0.1-0.06,0.2-0.12,0.3-0.18
		C486.38,311.56,486.28,311.62,486.18,311.68z"/>
	<path style="fill-rule:evenodd;clip-rule:evenodd;fill:#D06A35;" d="M484.2,291.92c-0.04,0.06-0.1,0.1-0.18,0.11
		C484.05,291.95,484.11,291.92,484.2,291.92z"/>
	<path style="fill-rule:evenodd;clip-rule:evenodd;fill:#D47841;" d="M491.69,292.55c0.09-0.08,0.17-0.17,0.26-0.26
		C491.86,292.38,491.77,292.46,491.69,292.55z"/>
	<path style="fill-rule:evenodd;clip-rule:evenodd;fill:#DE9C6A;" d="M488.8,288.18c-0.09,0.09-0.17,0.17-0.26,0.26
		C488.62,288.35,488.71,288.27,488.8,288.18z"/>
	<path style="fill-rule:evenodd;clip-rule:evenodd;fill:#D57D46;" d="M495.71,313.39c-0.06-0.09-0.12-0.18-0.18-0.27
		C495.59,313.21,495.65,313.3,495.71,313.39z"/>
	<path style="fill-rule:evenodd;clip-rule:evenodd;fill:#D7844D;" d="M482.57,299.44c0.1-0.06,0.19-0.12,0.29-0.19
		C482.76,299.32,482.67,299.38,482.57,299.44z"/>
	<path style="fill-rule:evenodd;clip-rule:evenodd;fill:#A9A9A9;" d="M486.4,263.47c0.01,0.08,0,0.16-0.01,0.24
		c-0.06-0.03-0.12-0.05-0.17-0.08C486.27,263.57,486.33,263.52,486.4,263.47z"/>
	<path style="fill-rule:evenodd;clip-rule:evenodd;fill:#D3743D;" d="M480.43,263.4c0.08-0.05,0.15-0.09,0.23-0.14
		C480.58,263.3,480.51,263.35,480.43,263.4z"/>
	<path style="fill-rule:evenodd;clip-rule:evenodd;fill:#E2A97F;" d="M478.01,322.3c0.07-0.09,0.14-0.17,0.21-0.26
		C478.15,322.13,478.08,322.22,478.01,322.3z"/>
	<path style="fill-rule:evenodd;clip-rule:evenodd;fill:#D3743D;" d="M488.81,260.57c0.1-0.06,0.2-0.13,0.3-0.19
		C489.01,260.44,488.91,260.5,488.81,260.57z"/>
	<path style="fill-rule:evenodd;clip-rule:evenodd;fill:#A43486;" d="M486.88,301.2c-0.02,0.09-0.03,0.18-0.05,0.28
		C486.7,301.36,486.59,301.25,486.88,301.2z"/>
	<path style="fill-rule:evenodd;clip-rule:evenodd;fill:#D06A35;" d="M482.75,292.39c-0.04,0.07-0.09,0.1-0.17,0.1
		C482.61,292.42,482.66,292.38,482.75,292.39z"/>
	<path style="fill-rule:evenodd;clip-rule:evenodd;fill:#E4AE86;" d="M463.85,260.53c0.08,0.01,0.15,0.02,0.23,0.03l-0.12,0.02
		L463.85,260.53z"/>
	<path style="fill-rule:evenodd;clip-rule:evenodd;fill:#D3743D;" d="M489.29,260.32c0.1-0.06,0.19-0.13,0.29-0.19
		C489.48,260.2,489.38,260.26,489.29,260.32z"/>
	<path style="fill-rule:evenodd;clip-rule:evenodd;fill:#D3743D;" d="M489.77,260.08c0.09-0.06,0.19-0.12,0.28-0.18
		C489.96,259.95,489.86,260.01,489.77,260.08z"/>
	<path style="fill-rule:evenodd;clip-rule:evenodd;fill:#A43486;" d="M486.96,301.9c0.05,0.08,0.1,0.16,0.16,0.24
		C487.06,302.06,487.01,301.98,486.96,301.9z"/>
	<path style="fill-rule:evenodd;clip-rule:evenodd;fill:#D8874F;" d="M459.74,258.45c0.09,0.08,0.17,0.17,0.26,0.25
		C459.91,258.61,459.83,258.53,459.74,258.45z"/>
	<path style="fill-rule:evenodd;clip-rule:evenodd;fill:#FCFCFC;" d="M485.45,302.35c-0.09-0.08-0.19-0.16-0.28-0.25
		c0,0,0.02-0.02,0.02-0.02c0.08,0.09,0.16,0.19,0.24,0.28L485.45,302.35z"/>
	<path style="fill-rule:evenodd;clip-rule:evenodd;fill:#B3B3B3;" d="M485.43,302.37c0.06,0.03,0.12,0.05,0.18,0.08
		c-0.04,0.03-0.07,0.06-0.1,0.09c-0.02-0.06-0.04-0.13-0.06-0.19C485.45,302.35,485.43,302.37,485.43,302.37z"/>
	<path style="fill-rule:evenodd;clip-rule:evenodd;fill:#757575;" d="M502.24,335.74c0.03-0.05,0.05-0.11,0.08-0.16
		c0.14,0.16-0.01,0.13-0.09,0.15L502.24,335.74z"/>
	<path style="fill-rule:evenodd;clip-rule:evenodd;fill:#FCFCFC;" d="M502.02,335.98c-0.04-0.19,0.05-0.25,0.22-0.24l-0.01-0.01
		c0.02,0.18-0.07,0.24-0.23,0.23L502.02,335.98z"/>
	<path style="fill-rule:evenodd;clip-rule:evenodd;fill:#FCFCFC;" d="M502,335.95c0.01,0.18-0.07,0.25-0.24,0.24l0.02,0.02
		c-0.04-0.2,0.05-0.28,0.25-0.25L502,335.95z"/>
	<path style="fill-rule:evenodd;clip-rule:evenodd;fill:#D3D3D3;" d="M501.75,336.2c-0.03,0.06-0.07,0.12-0.1,0.18
		c-0.03-0.04-0.06-0.09-0.09-0.13c0.07-0.01,0.14-0.02,0.21-0.03L501.75,336.2z"/>
	<path style="fill-rule:evenodd;clip-rule:evenodd;fill:#AFAFAF;" d="M462.18,336.68c-0.06-0.02-0.12-0.05-0.18-0.07
		c0.04-0.03,0.08-0.05,0.11-0.08c0.01,0.06,0.03,0.12,0.04,0.18L462.18,336.68z"/>
	<path style="fill-rule:evenodd;clip-rule:evenodd;fill:#D8874F;" d="M455.25,251.01c0.06,0.11,0.11,0.22,0.17,0.33
		C455.37,251.23,455.31,251.12,455.25,251.01z"/>
	<path style="fill-rule:evenodd;clip-rule:evenodd;fill:#C0C0C0;" d="M500.45,337.34c-0.02-0.01-0.05-0.03-0.07-0.04
		c0.03-0.04,0.05-0.07,0.08-0.11c0.02,0.03,0.07,0.05,0.07,0.08C500.52,337.29,500.47,337.32,500.45,337.34z"/>
	<path style="fill-rule:evenodd;clip-rule:evenodd;fill:#222221;" d="M484.94,235.16c0.32-0.39,0.75-0.5,1.23-0.5
		c0.06,0.04,0.12,0.05,0.18,0.04c0.12,0.06,0.22,0.14,0.29,0.25l-0.01,0c0.13,0.09,0.25,0.19,0.3,0.34c0.29,1,0.73,0.57,1.17,0.13
		c0.16-0.1,0.32-0.19,0.47-0.29c0.08-0.05,0.15-0.05,0.22,0c0.14,0.02,0.29,0.04,0.43,0.06c0.12,0.05,0.2,0.14,0.29,0.22l0.01,0.01
		c0.02,0.24,0.04,0.49,0.06,0.73c0.09,0.58,0.45,0.95,0.89,1.32c1.07,0.89,1.65,2.05,1.74,3.45c0.01,0.16,0.01,0.33,0.02,0.49
		c-0.07,0.56-0.14,1.12-0.2,1.68c-0.18,0.57-0.35,1.13-0.53,1.7c0.04,0.11,0.05,0.21,0.03,0.32c-0.04,0.16-0.12,0.31-0.2,0.45
		c-0.17,0.27-0.35,0.53-0.57,0.74c-0.44,0.42-0.48,0.73-0.07,1.28c0.61,0.8,0.29,1.42-0.69,1.58c-1.86-1.28-3.76-1.3-5.67-0.12
		c-0.45,0.28-0.83,0.46-1.26,0c-0.45-0.48-0.06-0.84,0.24-1.1c0.54-0.46,0.31-0.55-0.17-0.85c-3.33-2.1-3.78-4.67-1.14-8.17
		c0.6-0.79-0.2-1.08-0.36-1.6c-0.07-0.5-0.1-1,0.19-1.46c0.78,0.13,1.8-0.03,1.47,1.35c-0.06,0.26,0.26,0.48,0.48,0.3
		c0.4-0.32,1.22-0.28,1.12-1.04C484.85,236,484.86,235.59,484.94,235.16z"/>
	<path style="fill-rule:evenodd;clip-rule:evenodd;fill:#E1A374;" d="M490.01,249.15c0.89-0.38,1.18-0.95,0.3-1.59
		c-0.63-0.46-0.8-0.7-0.04-1.19c0.41-0.26,0.66-0.76,0.99-1.15c0.05-0.08,0.1-0.16,0.17-0.23c0-0.08,0.03-0.16,0.07-0.23
		c0.9,1.15,0.99,2.53,0.74,3.82c-0.8,4.11-3.52,6.87-6.95,8.92c-1.87,1.11-3.81,2.15-5.9,2.85c-0.06-0.08-0.08-0.18-0.08-0.28
		c0.01-0.14,0.03-0.29,0.03-0.43c0.05-0.33-0.33-0.61-0.11-0.96c2.27-1.48,4.92-2.29,7.04-4.02
		C488.05,253.19,489.83,251.71,490.01,249.15z"/>
	<path style="fill-rule:evenodd;clip-rule:evenodd;fill:#232322;" d="M479.23,258.68c0.41,0.31,0.51,0.73,0.44,1.21
		c-0.07,0.05-0.12,0.12-0.14,0.21c-0.05,0.08-0.09,0.17-0.14,0.25c-0.14,0.09-0.29,0.17-0.43,0.26c-0.54-0.25-1.08-0.5-1.62-0.76
		c-2.94-2.72-6.27-1.97-9.61-1.09c-0.46,0.12-0.97,0.63-1.38,0.06c-0.39-0.54-0.36-1.2-0.09-1.82c0.15-0.33,0.53-0.62,0.74-0.42
		c0.74,0.71,1.52,0.29,2.25,0.15C472.85,256.09,476.09,257.12,479.23,258.68z"/>
	<path style="fill-rule:evenodd;clip-rule:evenodd;fill:#242422;" d="M470.8,250.9c0.14-0.81,0.45-1.51,1.24-1.9
		c0.51-0.25,0.99-0.24,1.42,0.17c0.7,0.67,1.39,1.39,1.23,2.44c-0.08,0.5-0.54,0.84-1.05,0.31c-0.27-0.28-0.45-0.65-0.67-0.97
		c-0.1-0.15-0.18-0.4-0.42-0.31c-0.2,0.07-0.29,0.25-0.18,0.48c0.24,0.52,0.52,1.21-0.3,1.27
		C471.24,252.44,470.94,251.66,470.8,250.9z"/>
	<path style="fill-rule:evenodd;clip-rule:evenodd;fill:#242422;" d="M484,233.05c-1.63,0.29-1.82,0.11-1.4-1.23
		c1.47-0.38,2.89-0.52,4.08,0.71c-0.1,0.35,0.19,0.91-0.5,0.96c-0.08-0.07-0.16-0.13-0.25-0.18
		C485.34,232.86,484.66,233.01,484,233.05z"/>
	<path style="fill-rule:evenodd;clip-rule:evenodd;fill:#CD5796;" d="M477.14,277.88c2.05,0.01,3.73,1.58,3.67,3.43
		c-0.08,2.48-2.78,5.55-4.91,5.61c-1.91,0.05-3.42-1.91-3.41-4.41C472.5,279.73,474.38,277.87,477.14,277.88z"/>
	<path style="fill-rule:evenodd;clip-rule:evenodd;fill:#D47C45;" d="M488.1,235.41c0,0.46,0.1,0.97-0.65,0.94
		c-1.04-0.04-0.54-0.95-0.82-1.42C487.24,234.71,487.73,234.85,488.1,235.41z"/>
	<path style="fill-rule:evenodd;clip-rule:evenodd;fill:#D47C45;" d="M489.52,235.4c-0.1-0.07-0.2-0.15-0.29-0.22
		C489.32,235.25,489.42,235.32,489.52,235.4z"/>
	<path style="fill-rule:evenodd;clip-rule:evenodd;fill:#D47C45;" d="M488.79,235.12l-0.11,0.02l-0.11-0.02
		C488.65,235.12,488.72,235.12,488.79,235.12z"/>
	<path style="fill-rule:evenodd;clip-rule:evenodd;fill:#D47C45;" d="M486.64,234.94c-0.1-0.08-0.19-0.16-0.29-0.25
		C486.44,234.78,486.54,234.86,486.64,234.94z"/>
	<path style="fill-rule:evenodd;clip-rule:evenodd;fill:#D47C45;" d="M485.93,233.3c0.08,0.06,0.17,0.12,0.25,0.18
		C486.1,233.42,486.02,233.36,485.93,233.3z"/>
	<path style="fill-rule:evenodd;clip-rule:evenodd;fill:#D7844D;" d="M492.22,240.9c-0.73-1.3-0.96-2.95-2.58-3.65
		c-0.62-0.27-0.13-0.74-0.05-1.12c1.49,0.72,2.43,1.87,2.75,3.51C492.42,240.07,492.52,240.51,492.22,240.9z"/>
	<path style="fill-rule:evenodd;clip-rule:evenodd;fill:#FEFEFE;" d="M490.66,242.15c-0.03,1.26-0.54,2.65-2.07,3.51
		c-0.49,0.27-0.76,0.31-1.02-0.35c-0.2-0.52-0.08-1.43-0.89-1.47c-0.91-0.04-1.47,0.65-1.65,1.46c-0.15,0.67-0.5,0.47-0.84,0.37
		c-2.13-0.66-2.92-2.89-1.75-4.77c0.8-1.28,2.03-2.04,3.31-2.62C488.11,237.19,490.67,239.07,490.66,242.15z"/>
	<path style="fill-rule:evenodd;clip-rule:evenodd;fill:#DC945E;" d="M491.43,245c-0.05,0.08-0.11,0.15-0.17,0.23
		C491.32,245.15,491.38,245.07,491.43,245z"/>
	<path style="fill-rule:evenodd;clip-rule:evenodd;fill:#DC945E;" d="M479.54,260.1c0.05-0.07,0.09-0.14,0.14-0.21
		C479.63,259.96,479.58,260.03,479.54,260.1z"/>
</g>
</svg>
