<?xml version="1.0" encoding="utf-8"?>
<!-- Generator: Adobe Illustrator 16.0.0, SVG Export Plug-In . SVG Version: 6.00 Build 0)  -->
<!DOCTYPE svg PUBLIC "-//W3C//DTD SVG 1.1//EN" "http://www.w3.org/Graphics/SVG/1.1/DTD/svg11.dtd">
<svg version="1.1" id="Layer_1" xmlns="http://www.w3.org/2000/svg" xmlns:xlink="http://www.w3.org/1999/xlink" x="0px" y="0px"
	 width="960px" height="560px" viewBox="0 0 960 560" enable-background="new 0 0 960 560" xml:space="preserve">
<path fill="#222221" d="M512.95,280.32c-0.4-0.45,1.02-1.18,0.31-2.02c-0.26-0.31-0.6-0.4-0.97-0.34c-0.51,0.08-1.02,0.17-1.51,0.33
	c-1.12,0.36-2.21,0.78-3.07-0.51c-0.189-0.28-0.59-0.3-0.99-0.16c-0.93,0.33-1.88,0.59-2.83,0.89c-0.3,0.09-0.55,0.26-0.819-0.13
	c-1.34-1.97-3-3.79-4-5.92c-1.17-2.5-3.04-4.56-4.021-7.14c-0.399-1.04-0.899-2.18-1.479-2.98c-1.01-1.4-2.391-2.67-3.95-3.6
	c-1.49-0.89-3.22-0.83-4.86-1.12c-0.239-0.04-0.62,0.01-0.68-0.11c-0.15-0.29,0.19-0.48,0.36-0.68c3.77-4.44,5.779-9.43,5.18-15.38
	c-0.44-4.34-1.17-8.39-4.4-11.78c-2.59-2.72-5.47-4.58-9.109-5.28c-1.24-0.24-2.521-0.3-3.78-0.44c-1.17-0.23-2.36-0.03-3.54-0.13
	c-0.14-0.02-0.25,0.18-0.41,0.06c0.141-0.07,0.28-0.12,0.431-0.16c0.159-0.04,0.289-0.12,0.39-0.25c0.939-0.31,1.939,0.07,2.89-0.21
	c0.34-0.12,0.681-0.22,1.011-0.36c1.09-0.47,1.829-1.96,1.31-2.84c-1.55-2.64-4.04-4.06-6.77-1.24c-0.58,0.6-1.11,1.25-1.69,1.86
	c-0.271,0.29-0.5,0.69-0.94,0.69c-1.5,0-2.649,0.8-3.779,1.62c-0.61,0.44-1.16,0.58-1.971,0.3c-1.659-0.58-3.35-0.28-4.89,0.44
	c-0.89,0.42-2.03,0.93-1.96,2.18c0.07,1.32,0.979,2.12,2.15,2.64c0.609,0.28,1.239,0.22,1.88,0.19
	c0.426-0.027,0.778-0.181,1.082-0.424c-0.21,0.202-0.417,0.409-0.582,0.654c-0.91,0.38-1.58,1.02-2.101,1.86
	c-1.62,2.6-3.81,4.83-4.42,8.05c-0.25,1.32-0.74,2.57-0.57,3.96c0.091,0.67,0.11,1.37,0,2.03c-0.119,0.75-0.329,1.6-1.43,0.84
	c-0.41-0.28-0.97-0.24-1.149,0.21c-0.891,2.22-2.101,4.68-1.381,6.91c1.101,3.41,2.54,6.84,5.65,9.11c0.47,0.35,0.91,0.78,0.87,1.36
	c-0.12,1.64,0.65,3.01,1.229,4.44c1.53,3.75,3.311,7.35,5.95,10.47c2.33,2.761,6.25,2.591,8.061-0.35c0.18-0.29,0.39-0.51,0.55-0.06
	c0.81,2.28,2.49,4.42,1.47,7.049c-0.89,2.28-1.46,4.631-2.14,6.961c-1.181,4.039-2.811,7.949-3.29,12.18
	c-0.351,3.07-2.09,5.77-2.43,8.859c-0.32,2.9-0.69,5.79-1.03,8.681c-0.05,0.39,0.05,0.85-0.41,1.05c-1.56,0.67-2.92,1.61-4.1,2.85
	c-0.311,0.33-0.9,0.21-1.381,0.23c-0.89,0.04-2.01-0.28-2.579,0.59c-1.16,1.75-2.261,3.55-2.78,5.63
	c-0.181,0.75-0.33,1.46-0.09,2.23c0.64,2.069,2.05,2.96,4.55,3.18c1.55,0.14,2.89-0.85,4.33-0.64c1.46,0.21,2.68-0.17,3.88-0.82
	c1.81-0.97,3.399-2.24,4.83-3.7c0.359-0.359,0.59-0.66,1.109-0.109c0.78,0.819,1.78,0.75,2.771,0.35c3.21-1.3,4.35-4.43,2.37-7.95
	c-1.04-1.859-1.17-3.34-0.41-5.18c0.52-1.26,0.24-2.66,0.37-3.98c0.24-2.489,0.93-4.949,0.68-7.46c-0.22-2.13,0.35-4.12,1.311-5.84
	c1.489-2.68,2.899-5.38,3.89-8.29c0.04-0.13,0.189-0.35,0.26-0.34c0.29,0.04,0.101,0.3,0.13,0.46c0.471,2.851,0.42,5.78,1.45,8.56
	c0.48,1.311,1.12,2.42,2.33,3.061c1.91,1.02,3.39,2.51,4.76,4.13c1.271,1.5,2.641,2.89,4.17,4.12c0.471,0.38,0.471,0.71,0.34,1.229
	c-0.479,1.86-0.989,3.671-2.34,5.15c-0.52,0.56-0.85,1.35-1.1,2.1c-0.72,2.19,0.13,3.681,2.3,4.2c0.93,0.221,1.85,0.49,2.771,0.74
	c3.239,0.89,6.34-0.18,7.899-3.12c0.48-0.899,1.24-1.86,1.28-2.92c0.05-1.32,1.45-2.28,0.88-3.71c-0.02-0.05,0.2-0.21,0.33-0.29
	c2.92-1.729,3.47-5.71,1.04-7.94c-0.71-0.649-1.3-1.35-1.63-2.25c-0.95-2.549-2.87-4.449-4.38-6.619c-1.15-1.65-2.83-2.53-4.66-3.17
	c-0.86-0.301-1.73-0.61-2.58-0.951c-0.22-0.079-0.73-0.01-0.561-0.42c0.341-0.799-0.149-1.529-0.1-2.289
	c0.14-2.07,0.25-4.15,0.04-6.221c-0.08-0.82,0.18-1.26,0.93-1.56c0.471-0.19,1.15-0.3,1.17-1.011c0.03-1.31,0.021-2.629,0.021-3.939
	c-0.311-0.01-0.45,0.23-0.4,0.381c0.101,0.76-0.399,0.1-0.529,0.25c-0.5,0.479-0.46,1.159-0.631,1.77
	c-0.119,0.47-0.229,1.029-0.75,1.14c-1.109,0.24-1.869,1.03-2.77,1.601c-0.14,0.069-0.29,0.14-0.44,0.209
	c-0.149,0.051-0.31,0.101-0.46,0.16c-0.159,0.051-0.319,0.101-0.479,0.141c-0.11,0.029-0.22,0.06-0.33,0.1
	c-1.88,0.94-3.89,1.41-5.99,1.52c-3.17,0.701-6.43,0.32-9.62,0.82c-1.239,0.2-1.449-0.1-1.09-1.3c0.24-0.81,0.57-1.58,0.811-2.38
	c0.06-0.18,0.12-0.359,0.17-0.54c0.04-0.12,0.08-0.239,0.1-0.36c0.47-1.5,0.14-2.869-0.5-4.27c-1.39-3.03-2.96-6.01-3.43-9.39
	c-0.21-1.52-0.33-3,0.39-4.44c0.29-0.59,0.63-0.74,1.061-0.21c1.06,1.32,2.38,1.27,3.8,0.8c1.76-0.68,3.08-1.84,3.87-3.56
	c0.699-1.52,1.949-2.27,3.52-2.56c0.71-0.13,1.4-0.3,2.021-0.69c0.409-0.25,0.869-0.45,1.35-0.45c2.74-0.02,5.24,0.6,7.07,2.85
	c0.26,0.32,0.47,0.62,0.29,1.08c-0.44,1.12-1.391,1.58-2.551,1.25c-0.64-0.19-1.159-0.46-1.56-1.02c-0.45-0.64-1.05-0.49-1.58-0.1
	s-0.89,0.97-0.399,1.54c0.77,0.9,1.369,1.98,2.55,2.48c0.479,0.2,0.92,0.52,1.22,0.95c1.16,1.66,2.67,3.08,3.48,5
	c0.21,0.5,0.47,1.03,1.05,1.25c0.59-0.1,1.029-0.02,0.96,0.74c-0.021,0.22-0.061,0.47,0.13,0.66c0.52-0.11,0.649,0.36,0.91,0.63
	c1.64,1.74,2.52,3.959,3.779,5.94c0.471,0.73,0.421,1.359-0.01,2.1c-0.71,1.2-1.109,2.53-1.51,3.87c-0.25,0.83,0.33,1.22,0.72,1.63
	c0.45,0.461,0.99,0.051,1.38-0.27c0.86-0.7,1.44-2.051,2.46-2.13c1.011-0.08,1.79,1.17,2.721,1.76c0.399,0.25,0.77,0.55,1.14,0.851
	c0.94,0.779,2.01,2.069,3.18,1.16c1.181-0.91,0.42-2.361-0.239-3.48c-0.351-0.6-0.301-0.78,0.43-0.86c1-0.1,2.08-0.31,2.7-1.11
	c0.46-0.609,2.1-1.41,0.21-2.34c-0.28-0.14-0.09-0.32,0.04-0.47c0.31-0.37,0.569-0.79,0.939-1.08
	C513.98,281.54,513.62,281.08,512.95,280.32z M457.92,227.93c-0.026,0.027-0.054,0.052-0.081,0.079
	c0.029-0.034,0.063-0.062,0.091-0.099c0.07-0.08,0.15-0.16,0.24-0.23C458.09,227.76,458,227.84,457.92,227.93z M465.44,265.54
	c-0.53,1.32-1.73,2.19-2.261,3.55c-0.29,0.73-0.6-0.19-0.67-0.36c-0.7-1.65-1.8-3.06-2.71-4.57c0-0.005,0.001-0.007,0.001-0.012
	c-0.007,0.004-0.014,0.008-0.021,0.012c-0.19-0.24-0.391-0.47-0.58-0.71c0.47-0.14,0.8,0.19,1.17,0.37
	c1.58-0.41,3.02,0.29,4.52,0.57C465.72,264.55,465.69,264.9,465.44,265.54z"/>
<path fill="#010101" d="M493.17,274.7c0.2-0.38,0.521-0.7,0.91-0.36c0.6,0.53,0.28,1.2,0.09,1.82c-0.52,1.47-0.12,3.01-0.3,4.51
	c-0.34,0.46-0.12,0.99-0.21,1.48c-0.04,0.24,0.18,0.66-0.19,0.67c-0.34,0.01-0.229-0.41-0.279-0.67
	c-0.051-0.26-0.131-0.51-0.19-0.771c-0.32-0.2-0.34-0.54-0.38-0.86c0.02-0.33-0.09-0.64-0.17-0.949c-0.16-0.97-0.09-1.96-0.21-2.94
	C492.13,275.82,492.56,275.2,493.17,274.7z"/>
<path fill="#E3E3E3" d="M472.31,224.02c-0.869,0.02-1.739,0.07-2.6,0.05c-0.479-0.01-0.94-0.07-1.29,0.39
	c-0.17,0.23-0.41,0.42-0.689,0.15c-0.141-0.13-0.29-0.31-0.301-0.48c-0.029-0.4,0.34-0.37,0.59-0.42
	c0.381-0.08,0.771-0.11,1.16-0.16C470.15,224.19,471.33,223.4,472.31,224.02z"/>
<path fill="#C8C8C8" d="M456.43,228.8c0.721-0.36,1.34-0.82,1.851-1.45c0.16-0.19,0.399-0.62,0.609-0.4
	c0.28,0.28-0.189,0.51-0.37,0.69c-0.5,0.49-0.84,1.18-1.59,1.39C456.76,228.96,456.6,228.88,456.43,228.8z"/>
<path fill="#E3E3E3" d="M469.17,223.54c0.95-0.28,1.92-0.21,2.89-0.21C471.13,223.77,470.14,223.54,469.17,223.54z"/>
<path fill="#DF9E73" d="M454.27,234.31c0.341-0.49,0.681-0.97,1.011-1.46c0.33-0.48,0.66-0.54,1.02-0.04
	c0.431,0.61,0.931,0.61,1.54,0.26c0.67-0.39,1.33-0.87,2.22-0.45c0.28,0.13,0.601-0.19,0.771-0.46c0.18-0.3-0.01-0.63-0.22-0.72
	c-1.091-0.5-0.521-1.57-0.181-1.7c0.721-0.29,1.71-0.61,2.37,0.31c0.391,0.55,0.851,1.09,1.08,1.72c0.48,1.32,1.38,1.02,1.87,0.31
	c1.82-2.67,4.36-1.86,6.79-1.58c0.54,0.06,0.86-0.01,1.24-0.41c0.59-0.63,1.35-0.67,2.22-0.52c0.69,0.12,1.5,0.06,2.14-0.21
	c0.681-0.28,1.03-0.05,1.44,0.36c1.75,1.77,2.65,3.88,2.86,6.39c0.47,5.85-0.12,11.53-2.181,17.04c-0.99,2.66-2.31,5.14-4.75,6.72
	c-3.359,2.19-6.95,3.62-11.08,2.54c-0.13-0.28-0.05-0.56,0.101-0.79c0.979-1.53,1.35-3.28,1.83-5c0.149-0.54,0.31-1.09,0.989-1.19
	c1.511-0.12,3.03,0,4.551-0.12c0.359-0.03,0.729-0.01,1.069-0.11c0.5-0.14,1.41-0.02,1.3-0.67c-0.1-0.56-0.88-0.11-1.35-0.04
	c-1.51,0.24-3.03,0.19-4.54,0.22c-0.71,0.02-1.39-0.33-1.93-0.86c-0.54-1.17-0.721-2.37-0.431-3.63c0.271-0.45,1.2-0.1,1.16-0.75
	c-0.04-0.62-0.77-0.84-1.29-1.11c-0.319-0.16-0.68-0.22-0.979-0.42c-1.01-1.37-1.94-2.81-3.03-4.12c-0.02-0.11-0.03-0.22-0.01-0.33
	c0.02-0.11,0.06-0.21,0.1-0.32c0.04-0.1,0.09-0.2,0.13-0.3c0.07-0.15,0.13-0.3,0.19-0.45c0.64-1.46,0.33-2.78-0.54-4.06
	c-0.53-0.78-1.36-1.45-0.88-2.66c0.17-0.44-0.4-0.85-0.851-0.41c-0.739,0.74-1.199,0.99-1.409-0.33
	c-0.061-0.34-0.351-0.53-0.71-0.52c-0.41,0.01-0.671,0.27-0.79,0.63c-0.28,0.86-0.58,0.95-1.091,0.13c-0.319-0.52-1-0.43-1.5-0.64
	C454.4,234.49,454.32,234.41,454.27,234.31z"/>
<path fill="#C2151A" d="M493.17,274.7c-1,1.59-0.32,3.33-0.46,5c-0.01,0.28,0.08,0.52,0.21,0.76c0.021,0.31,0.05,0.61,0.07,0.92
	c0.189,3.07-2.4,3.65-4.33,4.82c-0.08,0.06-0.17,0.12-0.26,0.17c-0.16,0.021-0.311,0.04-0.471,0.06c-0.08,0.07-0.16,0.131-0.25,0.18
	c-0.08,0.011-0.16,0.021-0.239,0.031c-0.36-0.48-0.051-0.92,0.1-1.351c0.78-2.351,0.06-4.38-2.06-5.67
	c-1.131-0.69-2.32-1.25-3.601-1.61c-3.05-0.86-5.2-2.62-6.25-5.72c-0.59-1.73-1.42-3.39-2.649-4.8c-0.261-0.3-0.49-0.65-0.21-1.08
	c1.85-0.79,3.069-2.13,3.89-3.99c0.59-1.34,1.99-1.83,3.37-2.15c0.46-0.11,1.02-0.04,1.38-0.28c3.439-2.25,8.11,0.23,9.84,2.55
	c0.62,0.83-0.18,1.17-0.5,1.6c-1.21,1.61-3.07,1.48-4.15-0.23c-0.14-0.22-0.189-0.59-0.579-0.46c-0.46,0.15-0.91,0.34-1.141,0.81
	c-0.13,0.27-0.109,0.53,0.15,0.75C488.32,267.75,491.24,270.81,493.17,274.7z"/>
<path fill="#616152" d="M488.85,287.6c0.42-0.279,0.86-0.789,1.351-0.57c0.54,0.24,0.35,0.921,0.34,1.421
	c-0.06,2.42-0.15,4.85-0.23,7.271c-0.01,0.389-0.13,0.779-0.5,0.859c-0.359,0.08-0.199-0.32-0.239-0.51
	c-0.12-0.51-0.181-1.11-0.811-1.17c-0.529-0.051-0.75,0.47-0.779,0.899c-0.051,0.64,0.27,1.29,0.909,1.351
	c0.66,0.06,0.87,0.14,0.58,0.779c-0.34,0.771,0.11,1.131,0.71,1.521c0.601,0.399,1.101,1.05,1.801,0.19l-0.011-0.011
	c0.37,1.04,1.11,1.67,2.21,1.67c0.69,0,1.011,0.229,1.181,0.87c0.14,0.52,0.55,0.84,1.05,1.07c0.54,0.24,0.81-0.04,1.06-0.45
	c0.28-0.45,0.08-0.649-0.31-0.94c-1.41-1.08-3.07-1.81-4.36-3.07c-0.18-0.18-0.5-0.27-0.76-0.319c-0.45-0.08-0.96-0.021-1.18-0.569
	c0.55-0.201,1.47-0.691,1.59-0.541c0.75,0.94,1.85,0.561,2.75,0.85c2.34,0.761,3.67,2.521,4.68,4.5c0.71,1.381,1.68,2.5,2.6,3.701
	c1.58,2.05,1.301,3.159-1.119,3.989c-1.671,0.57-3.171,1.49-4.721,2.29c-1.859,0.96-2.069,0.63-3.729-0.55
	c-3.16-2.229-4.96-5.81-8.391-7.78c-2.14-1.22-2.979-3.709-3.21-5.97c-0.26-2.521-0.649-5.05-0.64-7.601
	c0-0.699,0.21-0.979,0.9-1.109c1.17-0.21,2.319-0.54,3.47-0.811c0.57-0.129,0.97-0.01,1.229,0.61c0.28,0.671,0.881,0.88,1.591,0.69
	c0.89-0.24,1.64-0.68,1.89-1.62c0.12-0.431-0.26-0.62-0.66-0.681C489,287.79,488.86,287.76,488.85,287.6z"/>
<path fill="#616152" d="M474.15,290.26c0.64,0,0.88-0.01,1.119,0c0.82,0.04,1.62-0.52,2.45-0.1c-0.56,0.99-0.16,2.189-0.689,3.199
	c-0.41,0.771-1.101,1.531-0.221,2.471c0.19,0.21,0.08,0.62-0.319,0.76c-1.36,0.49-1.96,1.18-1.44,2.811
	c0.24,0.76-0.63,1.729-1.25,2.449c-0.88,1.021-1.67,1.91-1.14,3.541c0.26,0.81,0.85,2.34-1.101,2.85
	c-0.64,0.17-0.96,1.75-0.579,2.59c0.289,0.65,0.67-0.25,0.979-0.48c0.2-0.149,0.31-0.42,0.47-0.64c0.301,0.25,0.15,0.6,0.13,0.87
	c-0.29,2.88-0.609,5.76-0.949,8.63c-0.04,0.35-0.2,0.68-0.33,1.01c-0.3,0.79-1.15,0.7-1.63,0.67c-0.601-0.04-0.08-0.649-0.03-1.01
	c0.05-0.32-0.04-0.56-0.32-0.7c-0.3-0.16-0.58-0.05-0.729,0.21c-0.271,0.48-0.811,1.11-0.67,1.471c0.51,1.38-0.65,1.51-1.311,1.899
	c-1.09,0.63-2.38,0.55-3.59,0.61c-0.85,0.04-1.32-1.561-0.67-2.41c0.35-0.46,0.35-0.79,0.24-1.29c-0.48-2.25,0.85-4.27,0.89-6.439
	c0.06-3.471,1.45-6.65,1.96-10.021c0.62-4.05,2.22-7.86,3.77-11.649c0.28-0.67,0.841-1.07,1.69-1.07
	C472.1,290.471,473.32,290.32,474.15,290.26z"/>
<path fill="#C6312B" d="M472.76,266.41c1.48,2.2,2.76,4.51,3.721,6.99c0.729,1.88,2.119,3.13,4.069,3.74
	c0.79,0.25,1.57,0.56,2.351,0.87c3.72,1.51,6.699,3.17,4.529,8.631c-1.96,1.02-4.029,1.659-6.26,1.67
	c-3.1-0.59-6.14-1.391-8.92-2.971c-0.41-0.23-0.9-0.359-1.14-0.82c0.92-3.22-1.17-5.649-2.311-8.27c-1.149-2.64-1.72-5.38-1.89-8.18
	c-0.061-0.94,0.62-1.94,1.04-2.88c0.319-0.71,0.71-0.13,0.87,0.13C469.82,266.87,471.19,266.97,472.76,266.41z"/>
<path fill="#DF9E73" d="M497.97,278.54c-1.14-0.32-1.58-1.4-2.149-2.21c-2.04-2.91-3.32-6.29-5.561-9.12
	c-0.899-1.13,0.86-1.73,1.521-2.43c0.45-0.48,1.1-0.24,1.55,0.44c2.78,4.12,5.02,8.58,8.03,12.55c0.12,0.16,0.26,0.31,0.34,0.49
	c0.83,1.82,1.74,2.93,3.64,0.94c0.59-0.62,1.59-0.06,1.99,0.51c0.8,1.13,1.57,0.94,2.54,0.36c0.22-0.13,0.61-0.46,0.81-0.13
	c0.17,0.28-0.17,0.57-0.439,0.75c-0.36,0.24-0.771,0.44-1.09,0.73c-0.33,0.301-1.101,0.25-1,0.84c0.1,0.6,0.779,0.57,1.279,0.66
	c0.12,0.439-0.31,0.189-0.42,0.34c-0.26,0.17-0.51,0.37-0.79,0.51c-0.39,0.201-0.68,0.461-0.58,0.931
	c0.13,0.569,0.62,0.489,1.061,0.54c0.47,0.06,1.35-0.21,1.33,0.18c-0.03,0.5-0.851,0.54-1.41,0.53c-0.12,0-0.24,0-0.36,0.01
	c-2.62,0.31-2.64,0.37-1.14,2.46c0.05,0.07,0.12,0.12,0.149,0.189c0.171,0.41,0.74,0.91,0.37,1.221c-0.35,0.3-0.859-0.17-1.16-0.55
	c-1.02-1.31-2.55-1.851-3.92-2.66c-0.63-0.37-1,0.06-1.359,0.37c-0.69,0.6-1.311,1.29-1.971,1.93c-0.149,0.15-0.29,0.43-0.579,0.221
	c-0.23-0.17-0.21-0.431-0.131-0.66c0.33-0.84,0.521-1.811,1.061-2.49c1.08-1.35,0.649-2.551-0.01-3.83
	c-0.57-1.12-1.32-2.15-1.561-3.42c0.11-0.01,0.13-0.06,0.061-0.16C498.05,278.55,498.01,278.54,497.97,278.54z"/>
<path fill="#D3E7EF" d="M488.41,243.37c-0.101,3.52-0.96,6.89-2.851,9.82c-1.56,2.42-3.38,4.79-6.409,5.66
	c-0.181,0.05-0.44,0.2-0.521,0.14c-0.25-0.2-0.04-0.44,0.101-0.61c2.55-3.27,3.55-7.22,4.3-11.11c0.84-4.33,2.1-8.77,0.41-13.25
	c-0.391-1.03-0.49-2.16-0.71-3.25c-0.03-0.14,0.01-0.29,0.01-0.44c0.18,0.04,0.42,0.01,0.54,0.12c0.76,0.68,1.689,1.27,2.2,2.11
	C487.52,235.85,488.42,239.5,488.41,243.37z"/>
<path fill="#DF9E73" d="M450.67,254.27c0.021,0.77,0.07,1.52,0.92,1.9c0.66,0.3,0.061,1.03,0.48,1.48c0.609,0.66,1.359,1.1,2.1,1.57
	c1.351,0.87,2.72,1.73,2.76,3.61c0,0.11,0.07,0.25,0.15,0.31c2.18,1.45,2.28,4.19,3.76,6.08c0.83,1.05,1.09,2.34,1.08,3.59
	c-0.01,0.88,0.351,1.25,0.95,1.69c0.67,0.5,1.29,1.07,1.83,1.7c0.359,0.42,0.899,1,0.41,1.58c-0.53,0.61-1.25,0.89-2.15,0.65
	c-2.56-0.69-3.55-2.88-4.82-4.84c-1.92-2.96-3.25-6.14-3.829-9.63c-0.29-1.71-1.381-3-2.681-3.92c-3.35-2.39-4.09-5.78-4.04-9.54
	c0.01-0.75,0.561-1.98,0.88-1.87c0.801,0.26,0.95,1.23,0.761,2.12c-0.19,0.89-0.471,1.77-0.46,2.7c0.01,0.74,0.42,1.4,0.939,1.51
	c0.63,0.14,0.34-0.81,0.68-1.16C450.68,253.87,450.53,254.15,450.67,254.27z"/>
<path fill="#3C3A32" d="M466.79,330.13c-1.22,3.21-4.021,4.061-6.98,4.51c-1.71,0.261-3.369,1.011-5.14,0.66
	c-1.39-0.27-2.89-0.34-3.42-2.16c-0.16-0.56-0.26-0.989-0.12-1.55c0.311-1.27,1.03-2.32,1.66-3.43c0.66-1.17,1.87-0.891,2.66-0.61
	c2.01,0.69,4.05,1.521,4.7,3.92c0.04,0.15,0.119,0.301,0.159,0.45c0.49,1.82,0.511,1.851,2,0.58c1.37-1.16,2.761-2.27,4.471-2.88
	C466.93,329.8,466.93,329.96,466.79,330.13z"/>
<path fill="#3C3A32" d="M501.81,318.8c0.141-0.13,0.29-0.35,0.431-0.359c0.279,0,0.25,0.239,0.149,0.43
	c-0.97,2.05-1.31,4.42-3.409,5.89c-0.74,0.51-1.471,0.55-2.211,0.721c-2.05,0.47-3.989-0.101-5.88-0.841
	c-1.38-0.55-0.76-1.68-0.5-2.46c0.54-1.6,3.61-2.949,5.101-2.26c1.05,0.49,2.09,0.89,3.229,1.15c1.011,0.229,1.61,0.13,1.91-0.931
	c0.17-0.6,0.68-0.96,1.16-1.319L501.81,318.8z"/>
<path fill="#CC547D" d="M451.23,246.83c0.01-0.57,0.01-1.13,0.02-1.7c0.08-0.67,0.55-0.78,1.1-0.79c0.591-0.01,1.17,0.08,1.71,0.31
	c0.381,1.21,1.15,1.45,2.24,0.86c0.09-0.05,0.23,0.02,0.34,0.07c1.511,1.18,3.03,2.34,3.96,4.08c0.86,1.62,1.261,3.33,1.17,5.16
	c-0.05,0.19-0.109,0.4-0.279,0.49c-0.87,0.5-0.67,1.07-0.13,1.68c-0.311,1.47-1.101,2.67-2.08,3.76c-0.24,0.26-0.511,0.52-0.91,0.23
	c-0.32-0.34-0.63-0.68-0.95-1.02c-0.09-0.02-0.14-0.07-0.16-0.16c-0.06-0.08-0.12-0.15-0.18-0.23c0.1-0.41,0.41-0.68,0.66-0.98
	c3.359-4.12,1.029-10.29-4.23-11.21C452.75,247.26,451.91,247.35,451.23,246.83z"/>
<path fill="#C9437B" d="M451.23,246.83c4.38,0,7.06,1.85,8.189,5.64c0.76,2.57-0.25,5.67-2.33,7.12c-0.53-0.49-1.06-0.98-1.59-1.47
	c0.13-0.39,0.45-0.65,0.66-0.99c1.03-1.6,1.26-3.27,0.35-4.98c-0.85-1.6-2.17-2.51-4.04-2.5c-0.2,0-0.399-0.03-0.56-0.17
	c-0.05-0.06-0.09-0.14-0.15-0.19C450.89,248.62,450.27,247.9,451.23,246.83z"/>
<path fill="#AF9E47" d="M462.93,326.01c2.141,0.59,5-0.54,6.21-2.41c0.2-0.31,0.2-0.92,0.88-0.75c0.631,0.16,0.641,0.66,0.65,1.12
	c0.021,0.91-0.03,1.83-0.05,2.74c-0.01,0.71-0.58,0.8-1.07,0.92c-2.71,0.62-5.29,1.5-7.41,3.4c-0.52,0.47-0.64,0.069-0.819-0.3
	c-0.37-0.75-0.771-1.48-1.13-2.24c-0.16-0.32-0.801-0.7-0.301-0.98c0.37-0.2,1.13-1.41,1.58,0.09c0.11,0.351,0.63,0.381,1.061,0.17
	c0.41-0.21,0.5-0.479,0.38-0.88c-0.08-0.27-0.17-0.529-0.26-0.79C462.72,325.99,462.81,325.95,462.93,326.01z"/>
<path fill="#C62874" d="M451.92,249.48c1.93-0.8,4.41,1.14,5.04,2.76c0.89,2.3,0.24,4.99-1.46,5.88h0.01
	c-0.069-0.1-0.17-0.18-0.279-0.24c-1.171-0.33-1.721-0.88-1.421-2.29c0.261-1.26,0.551-2.7-1.06-3.64c-0.44-0.26-0.42-1.3-0.6-1.98
	c-0.07-0.08-0.131-0.17-0.17-0.26C451.95,249.64,451.94,249.56,451.92,249.48z"/>
<path fill="#C21C1D" d="M471.11,284.51c2.59,1.07,5.05,2.5,7.87,2.99c0.77,0.13,1.579,0.21,2.189,0.811
	c-3.33,0.859-6.79,0.31-10.13,0.969c-1.16,0.23-1.66-0.18-1.18-1.409c0.399-1.03,0.729-2.091,1.1-3.14
	C470.99,284.641,471.04,284.57,471.11,284.51L471.11,284.51z"/>
<path fill="#3B2F27" d="M474.23,228.11c-2.261,0.39-4.511,0.86-6.83,0.83c-0.521-0.01-1.061,0.29-1.511,0.67
	c-0.97,0.83-1.949,0.56-2.08-0.68c-0.05-0.44-0.489-1.04-0.069-1.39c0.75-0.63,1.95-1.79,2.399-1.57c3.021,1.48,6.41,0.2,9.4,1.44
	c0.229,0.09,0.51,0.16,0.47,0.44c-0.04,0.31-0.35,0.26-0.58,0.27C475.03,228.12,474.63,228.11,474.23,228.11z"/>
<path fill="#A8933A" d="M503.33,313.1c-1.28,2.04-2.57,4.07-3.82,6.131c-0.25,0.409-0.42,0.47-0.83,0.229
	c-0.479-0.28-1.02-0.44-1.5-0.71c-0.33-0.19-1.12-0.2-0.96-0.47c0.29-0.49,0.09-1.19,0.771-1.521c0.84-0.41,1.02-1.189,0.569-1.979
	c-0.26-0.471-0.17-0.79,0.271-0.721c1.92,0.28,3.56-0.439,5.189-1.25C503.25,312.77,503.36,312.86,503.33,313.1z"/>
<path fill="#D88A79" d="M467.32,255.68c-0.87,0.33-0.65,1.18-0.83,1.81c-0.49,1.73-1.05,3.42-2.101,4.9
	c-0.92-0.17-1.83-0.36-2.68-0.79c-0.08-0.02-0.15-0.06-0.2-0.14l-0.01-0.01c-0.19-0.21-0.18-0.46-0.05-0.66
	c1.01-1.63,1.59-3.43,2.2-5.24C465.26,254.68,466.45,254.72,467.32,255.68z"/>
<path fill="#D1707C" d="M463.67,255.75c0.04,1.89-0.979,3.4-1.81,4.97c-0.13,0.24-0.24,0.49-0.351,0.74
	c-0.649,0.09-1.3,0.17-1.939,0.26c-0.61,0.09-0.931-0.27-1.19-0.73c1.16-0.58,1.69-1.67,2.23-2.75c0.21-0.42,0.439-0.84,0.659-1.25
	C461.76,255.97,462.57,255.58,463.67,255.75z"/>
<path fill="#C1161A" d="M467.71,275.87c-0.14,0.34-0.17,0.76-0.55,0.89c-0.42,0.14-0.57-0.26-0.66-0.53
	c-0.44-1.19-1.46-1.84-2.36-2.6c-0.569-0.49-0.81-1.05-0.489-1.78c0.399-0.91,0.81-1.81,1.199-2.73c0.091-0.22,0.131-0.55,0.4-0.52
	c0.36,0.04,0.32,0.41,0.32,0.67c0.029,1.68,0.3,3.31,1,4.86C466.86,274.79,467.73,275.04,467.71,275.87z"/>
<path fill="#DA9677" d="M451.4,241.52c0.729-2.26,1.09-4.66,2.449-6.69c0.17-0.13,0.36-0.15,0.551-0.03
	c0.739,0.99,1.1,1.95,0.21,3.13c-0.801,1.06-0.561,2.45-0.851,3.69C452.77,242.39,452.01,242.36,451.4,241.52z"/>
<path fill="#D0757D" d="M451.4,241.52c0.779,0.29,1.59,0.73,2.22-0.26c0.8,0.7,1.31,1.65,1.8,2.53c0.45,0.8-0.45,1.05-1.15,1.13
	c-1.01,0.1-2.09-0.84-3.029,0.22C451.25,243.93,451.02,242.71,451.4,241.52z"/>
<path fill="#D1E4EB" d="M472.78,220.91c-0.09,0.46-0.41,0.81-0.971,0.69c-0.949-0.21-1.819,0.04-2.72,0.24
	c-0.28,0.06-0.729,0.48-0.79,0.1c-0.069-0.47,0.25-1.01,0.41-1.52c0.96,0.34,1.5-0.57,2.28-0.77
	C471.81,219.43,472.79,220.04,472.78,220.91z"/>
<path fill="#D1E4EC" d="M455.83,227.06c-1.17,0.2-1.74-0.31-1.89-0.94c-0.15-0.6,0.59-0.72,1.06-0.88c0.59-0.2,1.12-0.58,1.79-0.54
	c0.54,0.04,1.08,0.03,1.62,0.04c-0.061,0.63-0.9,0.43-0.98,0.76C457.18,226.59,456.24,226.74,455.83,227.06z"/>
<path fill="#DB9D73" d="M471.8,265.3c-0.609-0.02-1.13-0.06-1.27-0.51c-0.12-0.42,0.42-0.5,0.7-0.67
	c0.899-0.58,1.819-1.12,2.739-1.66c0.261-0.15,0.57-0.44,0.851-0.18c0.279,0.26,0.239,0.66,0.029,0.99
	C474.09,264.42,472.97,265.03,471.8,265.3z"/>
<path fill="#3D3B33" d="M469.44,329.62c0.84,0.13,2.649-1.521,2.85-2.61c0.08-0.109,0.11-0.27,0.29-0.279
	c0.51,1.729-0.46,3.8-2.08,4.21c-0.81,0.21-1.27-0.421-1.53-1.141C469.13,329.74,469.32,329.76,469.44,329.62z"/>
<path fill="#D0E3EB" d="M464.28,223.62c-0.04,1.98-0.5,2.55-2.28,2.77c-0.26,0.03-0.67,0.26-0.73-0.29
	c-0.069-0.65,2.211-2.83,2.87-2.77C464.43,223.36,464.3,223.5,464.28,223.62z"/>
<path fill="#E3E0D5" d="M494.13,316.2c0.24,0.31,0.53,0.6,0.69,0.939c0.12,0.261,0.06,0.591,0.08,0.891
	c-0.351-0.011-0.7-0.021-1.051-0.04c-0.43-0.021-0.569-0.221-0.35-0.62C493.87,317.07,493.45,316.34,494.13,316.2z"/>
<path fill="#535252" d="M503.33,313.1c-0.1-0.1-0.2-0.199-0.3-0.3c0.63-0.8,1.359-1.25,2.37-0.649
	c-0.15,0.119-0.011,0.399-0.261,0.46C504.21,311.57,503.9,312.84,503.33,313.1z"/>
<path fill="#D2D2D2" d="M494.13,316.2c-0.46,0.26,0.09,1.06-0.63,1.18c0.09-0.42,0.13-0.86,0.28-1.26c0.12-0.33-0.09-1.04,0.42-0.91
	C494.74,315.36,494.06,315.84,494.13,316.2z"/>
<path fill="#AFAEAE" d="M488.85,287.6c0.091,0.09,0.17,0.18,0.261,0.271c-0.04,0.01-0.08,0.03-0.11,0.03
	c-0.52,0.02-0.95,1.1-1.31,0.49C487.41,287.93,488.52,288,488.85,287.6z"/>
<path fill="#FCFBFA" d="M497.97,278.54c0.3-0.11,0.59-0.49,0.92-0.09c0.07,0.08,0.04,0.35-0.04,0.42c-0.31,0.28-0.56,0-0.83-0.13
	C497.98,278.67,497.96,278.61,497.97,278.54z"/>
<path fill="#D5D5D5" d="M450.67,254.27c-0.09-0.14-0.17-0.29-0.26-0.43c0.06-0.57,0.05-1.16,0.47-1.63
	c0.34,0.53-0.18,0.97-0.16,1.47C450.74,253.87,450.69,254.07,450.67,254.27z"/>
<path fill="#B7B6B6" d="M458.8,325.32c0.33,0.04,0.46,0.239,0.521,0.46c0.06,0.229-0.15,0.279-0.28,0.21
	c-0.2-0.101-0.37-0.271-0.56-0.41C458.6,325.49,458.71,325.39,458.8,325.32z"/>
<path fill="#60605F" d="M466.79,330.13c0-0.17,0-0.33,0-0.5c0.4-0.08,0.8-0.16,1.2-0.24C467.59,329.64,467.19,329.88,466.79,330.13z
	"/>
<path fill="#929292" d="M462.93,326.01c-0.09,0.03-0.18,0.061-0.27,0.09c-0.18-0.05-0.41-0.06-0.36-0.33
	c0.021-0.079,0.15-0.199,0.23-0.21C462.86,325.52,462.87,325.8,462.93,326.01z"/>
<path fill="#D2D2D2" d="M509,283.25c0.14-0.109,0.28-0.23,0.42-0.34c0.16-0.04,0.39-0.04,0.34,0.15
	C509.65,283.5,509.31,283.391,509,283.25z"/>
<path fill="#A09F9F" d="M454.36,234.85c-0.17,0-0.341-0.01-0.511-0.02c0.141-0.17,0.28-0.35,0.41-0.52
	c0.101,0.02,0.21,0.04,0.311,0.07C454.65,234.6,454.54,234.74,454.36,234.85z"/>
<path fill="#858484" d="M472.59,326.74c-0.1,0.09-0.189,0.189-0.29,0.279c-0.069-0.189-0.34-0.35-0.109-0.579
	C472.2,326.42,472.45,326.63,472.59,326.74z"/>
<path fill="#616152" d="M491.99,299.63c0.1-0.11,0.21-0.22,0.31-0.34c0.03,0.05,0.061,0.101,0.09,0.16
	C492.25,299.51,492.12,299.57,491.99,299.63L491.99,299.63z"/>
<path fill="#A2A1A1" d="M505.14,312.61c0.08-0.15,0.17-0.311,0.261-0.46C505.31,312.31,505.72,312.73,505.14,312.61z"/>
<path fill="#C4C4C4" d="M457.99,325.97c0.08,0.13,0.16,0.2,0.149,0.271c-0.01,0.09-0.08,0.18-0.13,0.27
	c-0.08-0.05-0.22-0.109-0.22-0.16C457.8,326.25,457.89,326.16,457.99,325.97z"/>
<path fill="#60605F" d="M468.13,329.23c0.061,0.029,0.11,0.05,0.16,0.069c-0.03,0.021-0.06,0.05-0.09,0.05
	c-0.07,0.021-0.141,0.021-0.21,0.03C468.03,329.34,468.08,329.28,468.13,329.23z"/>
<path fill="#C4C4C4" d="M469.44,329.62c-0.03,0.37-0.271,0.21-0.46,0.189C469.14,329.75,469.29,329.69,469.44,329.62z"/>
<path fill="#C9437B" d="M455.23,257.88c0.09,0.08,0.189,0.16,0.279,0.24C455.41,258.04,455.32,257.96,455.23,257.88z"/>
<path fill="#C6312B" d="M487.67,286.609c0.08-0.06,0.17-0.119,0.25-0.18C487.84,286.49,487.76,286.55,487.67,286.609z"/>
<path fill="#C6312B" d="M488.4,286.37c0.09-0.06,0.18-0.12,0.26-0.17C488.57,286.25,488.49,286.311,488.4,286.37z"/>
<path fill="#C6312B" d="M471.11,284.51c-0.051,0.07-0.101,0.141-0.16,0.211C471.01,284.66,471.06,284.59,471.11,284.51z"/>
<path fill="#C9437B" d="M457.27,259.81c0.07,0.04,0.12,0.09,0.16,0.16C457.37,259.92,457.32,259.87,457.27,259.81z"/>
<path fill="#C9437B" d="M451.97,249.72c0.061,0.09,0.11,0.17,0.17,0.26C452.09,249.89,452.03,249.8,451.97,249.72z"/>
<path fill="#D1707C" d="M461.52,261.47c0.061,0.05,0.131,0.09,0.2,0.14C461.66,261.56,461.59,261.51,461.52,261.47z"/>
<path fill="#442B28" d="M492.92,280.46c-0.24-0.21-0.62-0.38-0.21-0.76C492.96,279.9,492.94,280.18,492.92,280.46z"/>
<path fill="#222221" d="M477.08,230.49c0.65,0.01,1.16-0.06,1.22,0.66c0.05,0.61-0.31,0.72-0.79,0.82c-0.35,0.07-0.68,0.23-1,0.37
	c-0.39,0.17-1.01,0.31-0.16,0.74c0.511,0.26,0.25,0.7,0.271,1.06c0.02,0.46,0.29,0.62,0.68,0.68c0.36,0.06,0.69,0.14,0.82-0.4
	c0.12-0.52,0.5-0.9,0.939-1.2c0.311-0.21,0.601-0.12,0.891,0.07c0.229,0.15,0.38,0.43,0.22,0.6c-1.18,1.21-0.229,2.38,0.19,3.41
	c0.89,2.16,0.21,3.81-1.311,5.27c-0.6,0.58-0.81,0.89,0.22,1.1c0.66,0.13,1.351,0.5,1.08,1.26c-0.239,0.7-1,0.66-1.64,0.45
	c-2.43-0.77-4.14-0.29-5.74,1.64c-0.22,0.27-0.479,0.26-0.75,0.23c-0.359-0.04-0.41-0.31-0.439-0.61
	c-0.09-1.19,0.76-1.69,1.609-2.15c0.69-0.38,0.78-0.58,0.101-1.14c-1.971-1.63-2.25-3.34-0.98-5.49c0.34-0.57-0.07-0.83-0.359-1.09
	c-0.41-0.37-0.4-0.75-0.23-1.19c0.12-0.31,0.31-0.55,0.7-0.56c0.51-0.01,0.78,0.28,1.02,0.69c0.17,0.29-0.029,0.98,0.59,0.79
	c0.521-0.16,0.881-0.85,0.69-1.26c-0.55-1.13,0.28-2.19-0.05-3.41C474.62,230.95,476.29,230.74,477.08,230.49z"/>
<path fill="#222221" d="M454.36,234.85c0.069-0.16,0.149-0.31,0.22-0.47c0.76,0.13,1.78-0.19,1.91,1.08
	c0.01,0.07,0.069,0.14,0.109,0.2c0.04-0.11,0.11-0.21,0.11-0.32c0.03-0.86,0.42-1.43,1.32-1.31c0.739,0.1,1.26,0.52,0.88,1.42
	c-0.07,0.16,0.05,0.36,0.229,0.31c0.16-0.05,0.341-0.22,0.391-0.38c0.18-0.69,0.58-1,1.22-0.62c0.58,0.35,1.01,0.83,0.33,1.52
	c-0.45,0.47,0.11,0.71,0.32,0.97c1.27,1.67,2.14,3.4,1.09,5.51c-0.08,0.04-0.13,0.11-0.15,0.2c-0.04,0.07-0.08,0.14-0.109,0.21
	c-0.061,0.11-0.131,0.21-0.24,0.27v-0.01c-0.04,0.07-0.061,0.16-0.12,0.21c-0.87,0.84-0.99,1.6-0.07,2.59
	c0.66,0.71,0.32,1.25-0.74,1.55c-0.409-0.05-0.859-0.13-1.069-0.47c-0.681-1.14-1.74-1.41-2.94-1.44c-0.189,0-0.37-0.13-0.56-0.2
	c-0.3,0.1-0.641,0.14-0.891,0.32c-0.399,0.28-0.75,0.65-1.25,0.23c-0.47-0.4-0.21-0.87-0.069-1.32c1.13-0.52,1.29-1.1,0.189-1.89
	c-0.56-0.4-0.51-1.2-0.84-1.77c-0.05-1.47,0.09-2.87,1.05-4.11C455.29,236.35,454.27,235.65,454.36,234.85z"/>
<path fill="#D7857B" d="M461.28,247.59c0.779-0.22,0.859-0.76,0.319-1.2c-1.54-1.24-1.159-2.14,0.37-2.94
	c0.99,1.45,2.34,2.65,2.91,4.38c-0.189,0.74-0.88,1.23-1,2c-0.03,0.23-0.149,0.52,0.12,0.64c0.3,0.13,0.38-0.19,0.51-0.37
	c0.811-1.06,1.221-1.04,1.79,0.08c-0.359,1.22,0.17,2.38,0.25,3.57c-0.84,0.6-1.8,0.51-2.75,0.52c-0.45-0.11-0.64-0.46-0.689-0.88
	c-0.19-1.93-0.851-3.7-1.82-5.36C461.21,247.91,461.22,247.74,461.28,247.59z"/>
<path fill="#232322" d="M463.66,254.03c0.96-0.09,1.93-0.18,2.89-0.27c2.29,1.06,4.63,0.51,6.96,0.19
	c0.521-0.07,1.221-0.61,1.431,0.36c0.189,0.92-0.58,1.05-1.181,1.13c-2.13,0.28-4.279,0.31-6.43,0.23
	c-1.23-0.66-2.45-0.37-3.66,0.08c-0.9,0.23-1.67,0.69-2.4,1.23c-1.319-0.67-1.289-0.99,0.24-2.01
	C462.03,254.22,462.84,254.12,463.66,254.03z"/>
<path fill="#242423" d="M466.3,250.19c-0.729-0.82-1.3-0.93-1.63,0.32c-0.11,0.4-0.37,0.77-0.85,0.59c-0.45-0.16-0.5-0.64-0.37-1.01
	c0.31-0.84,0.359-1.88,1.42-2.26c0.74-0.04,1.36,0.31,1.95,0.69c0.5,0.32,1.09,0.68,0.83,1.37
	C467.42,250.54,466.77,250.1,466.3,250.19z"/>
<path fill="#D7857B" d="M462.32,242.97c0.05-0.07,0.1-0.14,0.149-0.2C462.42,242.84,462.37,242.91,462.32,242.97z"/>
<path fill="#D7857B" d="M461.96,243.46c0.08-0.09,0.16-0.18,0.24-0.27C462.13,243.27,462.05,243.37,461.96,243.46z"/>
<path fill="#232322" d="M498.36,303.79c0.699,0,2.359,2.479,2.14,3.04c-0.15,0.4-0.46,0.53-0.86,0.43
	c-0.79-0.2-1.909-2.38-1.59-3.109C498.13,303.99,498.29,303.87,498.36,303.79z"/>
<path fill="#232322" d="M489.1,292.77c0.011,0.58,0.15,1.24-0.67,1.311c-0.64,0.05-0.779-0.42-0.76-0.96
	c0.03-0.681,0.25-1.45,0.91-1.511C489.37,291.529,488.99,292.359,489.1,292.77z"/>
<path fill="#242423" d="M469.66,315.42c-0.43-0.11-0.38-0.38-0.26-0.66c0.26-0.62,0.51-1.24,0.79-1.85
	c0.199-0.45,0.529-0.32,0.739-0.05c0.41,0.54,0.051,1.1-0.18,1.55C470.53,314.85,470.15,315.24,469.66,315.42z"/>
<path fill="#C8C8C8" d="M501.81,318.8c0.07,0.03,0.131,0.061,0.2,0.09c-0.04,0.04-0.069,0.08-0.109,0.12
	c-0.04-0.06-0.07-0.13-0.11-0.189L501.81,318.8z"/>
<path fill="#D16C7E" d="M463.66,254.03c-0.72,0.31-1.44,0.63-2.16,0.94c0.01-3.42-1.15-6.26-4.03-8.27c-0.38-0.27-0.67-0.67-1-1.02
	c1.44-0.15,2.851-0.29,3.67,1.37c0.141,0.29,0.74,0.36,1.13,0.53C462.89,249.43,463.13,251.78,463.66,254.03z"/>
<path fill="#FCFCFC" d="M473.52,239.84c0.131-0.72,0.23-1.55,1.2-1.62c0.82-0.06,1.08-0.8,1.511-1.22
	c0.68-0.68,1.119-0.39,1.579,0.04c1.881,1.75,2.03,2.76,0.74,3.93c-0.2,0.18-0.42,0.64-0.52-0.11c-0.09-0.65-0.25-1.34-1.24-1.22
	c-0.9,0.11-1.55,0.46-1.93,1.35c-0.12,0.29,0.38,0.94-0.301,0.82c-0.439-0.08-1.04-0.4-0.92-1.15
	C473.69,240.41,473.57,240.14,473.52,239.84z"/>
<path fill="#FCFCFC" d="M455.21,240.43c0.09-1.05,0.18-2.07,1.16-2.46c2.14-0.84,3.06-0.6,4.11,0.8c0.85,1.13,1.02,2.37,0.359,3.57
	c-0.26,0.47-1.03,0.72-1.62,0.95c-0.54,0.22-0.33-0.29-0.3-0.49c0.07-0.44,0.11-0.85,0.01-1.3c-0.17-0.73-0.489-1.32-1.3-1.33
	c-0.83-0.01-1.1,0.66-1.32,1.33c-0.1,0.31,0.16,0.87-0.229,0.89c-0.38,0.02-0.521-0.54-0.64-0.92
	C455.32,241.09,455.27,240.71,455.21,240.43z"/>
</svg>
