<?xml version="1.0" encoding="utf-8"?>
<!-- Generator: Adobe Illustrator 16.0.0, SVG Export Plug-In . SVG Version: 6.00 Build 0)  -->
<!DOCTYPE svg PUBLIC "-//W3C//DTD SVG 1.1//EN" "http://www.w3.org/Graphics/SVG/1.1/DTD/svg11.dtd">
<svg version="1.1" id="Layer_1" xmlns="http://www.w3.org/2000/svg" xmlns:xlink="http://www.w3.org/1999/xlink" x="0px" y="0px"
	 width="960px" height="560px" viewBox="0 0 960 560" enable-background="new 0 0 960 560" xml:space="preserve">
<path fill="#222221" d="M526.89,307.51c-0.76-3.35-1.409-6.72-2.12-10.08c-1.05-4.97-3.199-9.619-4.31-14.58
	c-0.29-1.279-1.35-2.06-2.62-2.41c-0.729-0.2-1.47-0.38-2.22-0.46c-0.6-0.06-0.79-0.33-0.88-0.89c-0.43-2.72-0.95-5.42-0.891-8.2
	c0.07-3.44-0.33-6.86-0.609-10.28c-0.13-1.64-0.7-3.25,0.22-5c0.62-1.18,0.14-2.89-0.95-3.7c-1.04-0.77-2.319-1.37-3.67-1.7
	c-4.729-1.15-9.43-2.42-14.189-3.47c-1.761-0.39-3.58-1.1-5.46-0.39c-0.83,0.31-0.83-0.4-0.931-0.85
	c-0.75-3.18-1.439-6.38-2.229-9.55c-0.511-2.04-0.82-4.07-3.511-4.82c-2.109-0.58-3.35-0.68-4.819,1.09
	c-0.561,0.68-1.05,1.43-1.681,2.03c-1.56,1.5-1.579,1.47-0.289,3.18c0.27,0.36,0.67,0.38,1.069,0.38c-0.359,0.09-0.76-0.2-1.109,0.1
	c-4.171,0.46-8.351,0.81-12.54,0.46c-2.511-0.21-5.11-0.74-7.5-0.12c-1.99,0.51-2.011-0.32-2.37-1.67
	c-0.9-3.38-4.771-4.91-7.73-3.15c-1.56,0.93-2.41,2.77-4.229,3.39c-0.12,0.04-0.19,0.25-0.25,0.39c-0.48,1.06,0.189,3.1,1.34,3.68
	c1.28,0.64,2.1-0.15,2.78-1.15c0.56-0.83,1.029-1.72,1.67-2.48c1.1-1.31,3.149-1.34,3.63-0.07c0.34,0.92,0.71,1.84,0.81,2.86
	c0.311,3.22,0.72,6.42,1.101,9.63c0.06,0.54,0.189,1.04-0.561,1.19c-0.14,0.03-0.31,0.28-0.33,0.44c-0.04,0.32,0.271,0.35,0.49,0.39
	c1.37,0.2,1.14,0.93,0.54,1.71c-0.2,0.26-0.21,0.47-0.2,0.76c0.101,2.43,0.141,4.87,0.29,7.3c0.05,0.79-0.149,0.85-0.89,0.85
	c-2.61,0.02-4.811,1.17-6.221,3.27c-0.67,1.01-0.899,2.29-2.1,2.98c-0.83,0.48-1.18,1.33-1.49,2.23c-1.01,2.88-1.76,5.78-1.88,8.86
	c-0.14,3.51-1.35,6.91-1.31,10.439c0.08,7.94,0.939,15.78,3.069,23.45c0.49,1.771,0.73,3.66,2.681,4.55
	c0.24,0.11,0.12,0.36,0.21,0.49c1.03,1.63,1.84,3.51,3.88,4.17c3.16,1.011,5.82,0.141,7.95-2.38c1.91-2.26,2.859-4.96,3.58-7.76
	c0.819-3.22,1.18-6.521,1.62-9.8c0.05-0.391-0.04-1.12,0.659-0.73c2.601,1.44,5.63,1.66,8.23,3.11c1.6,0.89,3.42,1.329,5.21,1.74
	c0.32,0.069,0.77-0.081,0.939,0.3c0.051,0.109-0.239,0.37-0.38,0.55c-0.3,0.4-0.62,0.38-1.029,0.13c-0.521-0.31-1.08-0.52-1.71-0.27
	c-1.591,0.63-3.091,1.46-3.881,3.04c-2.88,5.81-2.72,11.619,0.19,17.38c0.44,0.859,1.11,1.46,2.13,1.529
	c0.25,0.15,0.271,0.301,0,0.46c-0.02,0.03-0.05,0.07-0.06,0.101c0,0.03,0.02,0.08,0.04,0.08c2.79,0.899,5.569,0.29,7.79-1.16
	c2.489-1.64,3.939-4.41,4.239-7.49c0.23-2.29,0.48-4.54,1.141-6.77c0.609-2.04,0.34-4.181-0.12-6.28c-0.15-0.7-1.05-0.97-0.94-1.54
	c0.48-2.38-0.25-4.689-0.21-7.04c0.011-0.88,0.36-0.8,0.931-0.489c1.069,0.579,1.56,1.579,1.84,2.689c0.76,3.02,1.35,6.07,1.66,9.18
	c0.3,3.04,2.43,4.63,5.31,3.47c2.41-0.97,4.9-1.699,7.4-2.409c0.77-0.221,1.52-0.521,2.14-1.04c0.52-0.44,0.77-0.98,0.62-1.7
	c-0.16-0.73-0.63-0.95-1.3-0.97c-0.351-0.011-0.87,0.02-0.41-0.57c1.17-1.521,1.649-3.36,2.28-5.12c0.25-0.689,0.51-0.82,1.21-0.561
	c1.08,0.41,2.189,0.851,3.319,0.961c1.13,0.1,1.07,0.229,0.511,1.1c-2.48,3.92-3.431,8.09-1.41,12.5c1.08,2.37,4.05,3.91,6.069,3.39
	c3.74-0.96,6.21-3.939,6.4-7.85c0.04-0.78,0.33-1.15,0.97-1.44c1.53-0.689,3.04-1.42,4.58-2.08
	C526.81,308.73,527.09,308.38,526.89,307.51z M467.59,278.94c4.08,0.94,8.16,1.89,12.23,2.85c0.43,0.101,1.04,0.03,0.92,0.78
	c0.02,0.27-0.04,0.479-0.29,0.609c-1.62,0.83-2.641,2.291-3.79,3.61c-0.271,0.31-0.45,0.479-0.86,0.14
	c-2.899-2.439-6.02-4.63-8.55-7.479c-0.15-0.17-0.43-0.49-0.38-0.55C467.09,278.58,467.35,278.88,467.59,278.94z M480.93,287.109
	c0.101,1.07,0.19,2.15,0.301,3.341c-0.03,0.26-0.061,0.64-0.101,1.01c-0.21-0.271-0.41-0.55-0.62-0.819
	c-0.55-0.701-1.66-0.461-2.16-1.341c-0.25-0.43-0.529-0.64,0.12-0.93c0.71-0.32,1.17-0.94,1.641-1.55
	c0.159-0.211,0.449-0.58,0.56-0.541C481.01,286.41,480.9,286.811,480.93,287.109z M463.75,298.82c-1.04-0.11-1.65-0.381-1.46-1.82
	c0.77-5.91,1.08-11.84,0.18-17.78c-0.1-0.25-0.17-0.49,0.261-0.44c2.829,3.06,6.22,5.48,9.34,8.21c2.17,1.9,2.26,1.97,0,3.77
	c-2.521,2.01-4.7,4.311-6.67,6.84C464.98,298.13,464.6,298.91,463.75,298.82z M481.44,299.37c-0.011,0.22,0.119,0.56-0.19,0.601
	c-0.17,0.02-0.43-0.221-0.54-0.4c-0.34-0.58-0.61-1.211-0.94-1.801c-0.56-0.979-1.289-1.08-1.96-0.17
	c-0.869,1.18-1.699,2.391-0.84,4.01c0.46,0.861,0.181,1.891,0.221,2.841c0.029,0.63-0.33,0.37-0.601,0.229
	c-2.979-1.439-5.96-2.899-8.95-4.32c-0.55-0.26-0.35-0.52-0.109-0.819c1.84-2.2,3.689-4.39,5.84-6.3c0.45-0.4,1.08-0.66,1.37-1.141
	c1.02-1.649,1.96-1.209,3.029-0.08c0.41,0.431,0.91,0.82,1.44,1.07c1.89,0.891,2.54,2.381,2.22,3.98
	C481.44,298.09,481.45,298.73,481.44,299.37z M483.92,237.13c-0.28,0.72-1.54,0.52-2.4,0.59c-0.409,0.04-0.81,0.04-0.899,0.05
	c-0.46,0.04-0.62,0.06-0.771,0.06c-0.58-0.01-1.17-0.03-1.75-0.04c0.37-0.36,0.79-0.69,1.11-1.09c0.54-0.68,1.021-1.42,1.54-2.12
	c0.73-0.98,1.49-0.99,2.2,0C483.5,235.35,484.23,236.35,483.92,237.13z M491.15,259.06c-0.62-0.14-0.74-0.48-0.79-1
	c-0.2-1.98-0.4-3.97-0.66-5.94c-0.09-0.68,0.149-0.62,0.62-0.5c6.529,1.66,13.06,3.33,19.6,4.96c0.5,0.13,0.65,0.36,0.62,0.81
	c0.12,0.16,0.09,0.31-0.05,0.44c-0.42,1.22-0.04,2.45-0.07,3.67c-0.02,0.71-0.2,1.05-1.04,0.93
	C503.25,261.56,497.19,260.38,491.15,259.06z M510.06,300.38c-1.329-0.28-2.63-0.69-3.96-0.94c-0.83-0.149-1.01-0.58-0.949-1.319
	c0.06-0.71,0.04-1.44,0.05-2.149c0.01-0.721,0-1.441,0-2.16c-0.13-4.48-0.67-8.91-1.53-13.301c-0.13-0.64-0.01-0.86,0.59-0.96
	c1.49-0.25,3-0.47,4.471-0.8c1.13-0.25,1.609,0.04,1.77,1.26c0.76,5.929,1.63,11.849,2.38,17.78
	C513.32,301.029,513.25,301.061,510.06,300.38z M514.47,285.061c0.061-0.66-0.31-1.41,0.771-1.44c0.89-0.03,2.069-0.649,2.2,1.01
	c0.02,0.24,0.069,0.479,0.159,0.69c0.471,1.05,0.261,1.55-1,1.199C515.39,286.811,514.31,286.91,514.47,285.061z M522.45,307.76
	c-0.46,0.08-0.9,0.311-1.34,0.471v0.01l-0.011-0.01h0.011c-0.03-0.461-0.4-1.061,0.529-1.101c0.38-0.01,0.45-0.42,0.54-0.72
	c0.33-1.12,0.5-2.26,0.34-3.43c-0.239-1.771-1.09-2.461-2.85-2.16c-0.79,0.14-1.02-0.021-1.06-0.85
	c-0.07-1.781,0.069-3.65-0.851-5.261c-0.479-0.851-1-2.36-2.41-0.81c-0.26,0.289-0.39,0.109-0.409-0.2c0-0.04,0-0.08,0-0.12
	c-0.04-0.91-0.341-2.5-0.08-2.6c1.189-0.451,2.54-0.67,3.819-0.59c0.86,0.049,1.17,1.139,1.41,1.92c0.62,1.979,1.11,4,1.75,5.969
	c0.73,2.24,1.601,4.421,2.181,6.711C524.43,306.561,524.13,307.48,522.45,307.76z"/>
<path fill="#A0A0A0" d="M475.73,237.44c0.039,0,0.079,0,0.119,0.02c0.42,0.14,0.83,0.29,1.25,0.43c-0.47,0.01-0.93,0.02-1.399,0.03
	C475.7,237.77,475.72,237.61,475.73,237.44z"/>
<path fill="#858484" d="M472.09,329.64c0.34-0.05,0.59,0.07,0.76,0.37c-0.25,0.03-0.51,0.061-0.76,0.09
	C472.09,329.94,472.09,329.79,472.09,329.64z"/>
<path fill="#8C7960" d="M458.7,288.311c-0.04,8.719-0.67,16.859-2.431,24.869c-0.199,0.931-0.6,1.82-0.829,2.74
	c-0.681,2.64-2.99,3.7-4.98,4.99c-1.17,0.77-3.16-0.5-3.38-1.92c-0.03-0.21-0.1-0.45,0.1-0.53c1.08-0.45,1.98-1.2,2.971-1.79
	c0.569-0.33,0.5,0.26,0.649,0.54c0.2,0.37,0.391,0.97,0.9,0.71c0.55-0.28,0.06-0.77-0.07-1.15c-0.17-0.479-0.97-0.64-0.77-1.25
	c0.39-1.159,1.1-2.199,1.37-3.43c0.06-0.28,0.289,0.03,0.439,0.12c0.48,0.28,0.95,0.6,1.46,0.79c0.271,0.11,0.8,0.63,0.9-0.13
	c0.06-0.43,0.77-1.15-0.41-1.33c-0.57-0.08-1.01-0.88-1.7-0.03c-0.27,0.33-0.68,0.04-0.55-0.569c0.689-3.15,1.11-6.351,1.41-9.561
	c0.51-5.47,1.279-10.95,0.38-16.45c-0.19-1.17-0.03-1.84,1.399-1.67c0.7,0.08,1.5-0.08,2.04-0.54c0.69-0.59,0.78-0.6,0.91,0.36
	C458.75,285.02,458.61,286.93,458.7,288.311z"/>
<path fill="#9F9398" d="M450.26,263.69c0.24-0.02,0.471-0.05,0.71-0.07c0.66-0.18,1.33-0.16,1.99-0.02c2.55,0.17,4.29,1.48,5.48,3.7
	c1.899,3.56,2.579,7.41,3.109,11.35c1.26,9.25-0.05,18.38-1.1,27.53c-0.44,3.86-1.4,7.53-3.061,11.011
	c-1.229,2.59-3.029,4.63-6.189,4.819c-0.181,0.011-0.36-0.04-0.54-0.069c0.09-0.11,0.17-0.271,0.28-0.311
	c5.54-2.1,6.09-7.16,6.989-11.93c1.65-8.761,1.78-17.63,1.4-26.5c-0.17-4.02-0.47-8.05-1.351-12c-0.409-1.82-1.17-3.47-2.29-4.97
	c-0.72-0.96-1.6-1.67-2.779-1.94c-0.79-0.12-1.59-0.13-2.38,0.01c-0.15,0.02-0.301,0.04-0.45,0.06c-0.16,0.1-0.36,0.07-0.521,0.18
	c-0.06,0.04-0.13,0.06-0.21,0.05c-0.09,0.06-0.18,0.11-0.27,0.16c-0.08,0.02-0.17,0.04-0.25,0.06c-0.12,0.15-0.34,0.1-0.48,0.23
	l-0.01,0.01c-0.05,0.08-0.12,0.13-0.22,0.15c-0.08,0.03-0.17,0.06-0.25,0.09c-0.061,0.08-0.141,0.13-0.23,0.17
	c-0.08,0.04-0.16,0.07-0.239,0.11c-0.16-0.17-0.141-0.34-0.011-0.52l0,0c0.08-0.08,0.16-0.15,0.24-0.21
	c0.15-0.09,0.31-0.18,0.46-0.28c0.08-0.07,0.17-0.13,0.26-0.18c0.061-0.05,0.12-0.07,0.2-0.07c0.09-0.06,0.19-0.11,0.28-0.17
	c0.08-0.02,0.149-0.04,0.229-0.06c0.141-0.13,0.351-0.08,0.49-0.2c0.07-0.04,0.14-0.06,0.23-0.04
	C449.91,263.73,450.1,263.76,450.26,263.69z"/>
<path fill="#EEC783" d="M443.03,282.609c0.319,2.141,0.899,4.201,1.89,6.141c0.8,1.57-0.36,2.92-0.58,4.37
	c-0.06,0.38-1.02,0-1.56,0.13c-0.32,0.08-0.8-0.07-0.9,0.359c-0.09,0.381,0.24,0.701,0.55,0.86c0.641,0.32,1.311,0.57,1.971,0.841
	c0.989,0.42,1.38,0.979,0.89,2.14c-0.96,2.28-1.75,4.63-1.58,7.17c0.05,0.72,0.11,1.8,0.7,1.89c0.61,0.09,0.729-1,0.88-1.609
	c0.45-1.82,0.79-3.66,1.19-5.48c0.05-0.22,0.199-0.42,0.3-0.62c0.06,0.21,0.12,0.421,0.17,0.64c0.21,1.07,0.76,2,1.189,2.99
	c0.2,0.68,0.641,1.18,1.23,1.551c0.71,0.449,1.03,1.06,0.9,1.899c-0.391,2.7-1.12,5.3-2.351,7.74c-0.27,0.53-0.39,1.31-1.229,1.29
	c-0.88-0.03-1.45-0.561-1.91-1.271c-1.32-2.05-1.86-4.34-2.34-6.699c-1.5-7.46-1.79-14.931-0.761-22.47
	c0.021-0.141,0.04-0.371,0.12-0.41c0.74-0.32,0.74-0.311,0.82-1.211C442.72,282.689,442.77,282.46,443.03,282.609z"/>
<path fill="#353A88" d="M487.66,258.56c0.31,3.07,0.6,6.15,0.93,9.22c0.04,0.41-0.05,0.6-0.46,0.63c-1.3,0.08-2.42,0.74-3.61,1.17
	c-0.649,0.24-0.989,0.13-1.109-0.53c-0.17-0.93-0.3-1.87-0.45-2.8c2.96-1.85,3.41-4.8,3.45-7.92c0.01-1.16,0.01-2.31-0.18-3.46
	c-0.351-2.09-1.21-3.87-2.82-5.28c-1.07-0.93-1.891-2.04-2.49-3.33c-0.77-1.68-2.06-2.86-3.81-3.44c-3.23-1.07-6.521-2.02-9.931-2.1
	c-4.699-0.11-7.76,4.22-6.3,8.69c0.04,0.12,0.021,0.23-0.02,0.35c-0.19,0.08-0.37,0.08-0.54-0.04c-1.44-0.07-2.87-0.4-4.32-0.26
	c-0.53,0.05-0.7-0.24-0.67-0.71c0.67-0.04,1.31,0.25,1.98,0.17c0.199-0.02,0.39,0.05,0.59,0.05c-0.181-0.09-0.32-0.22-0.45-0.38
	c-0.08-0.09-0.13-0.2-0.18-0.31c0.229-2.21-0.04-4.54,1.76-6.32c0.53-0.52,0.88-1.22,1.399-1.77c0.08-0.09,0.17-0.17,0.261-0.25
	c0.14-0.11,0.29-0.2,0.449-0.27c0.641-0.12,1.29-0.23,1.87-0.56c0.801,0.03,1.59,0.06,2.391,0.1c0.069,0.05,0.09,0.11,0.05,0.18
	c0.22,0.1,0.399-0.06,0.6-0.08c0.101-0.04,0.19-0.07,0.29-0.09c2.73,0.46,5.45-0.17,8.181-0.1c1.34,0.62,2.859,0.54,4.22,1.18
	c2.08,0.98,3.859,2.23,4.83,4.38c0.569,1.28,1.729,2.07,2.479,3.2c0.17,0.25,0.33-0.05,0.5-0.11c0.49,1.57,0.54,3.2,0.65,4.82
	c-0.04,0.07-0.09,0.14-0.12,0.21c-0.02,0.13,0.03,0.24,0.06,0.37c0.011,0.13,0.011,0.26,0.091,0.37c0.069,0.26,0.13,0.52,0.199,0.78
	c-0.06,0.3-0.08,0.59,0.021,0.88c0,0.1,0.01,0.2,0.01,0.3c-0.1,0.23-0.11,0.46,0.021,0.68c0.069,0.42,0.13,0.84,0.199,1.26
	C487.57,257.81,487.53,258.19,487.66,258.56z"/>
<path fill="#3A3635" d="M441.94,308.97c0.659,1.66,1.05,3.42,1.92,5c1.35,2.45,3.31,2.58,4.87,0.3
	c1.409-2.069,1.59-4.489,1.949-6.829c1-6.49,1.95-13.03,1.431-19.61c-0.341-4.41-0.15-8.94-1.83-13.18c-0.42-1.08-0.84-2.15-1.69-3
	c-1.97-1.97-4.47-1.35-5.18,1.4c-0.54,2.11-0.61,4.37-1.33,6.4c-1.53,4.329-1.4,8.84-1.9,13.28c-0.029,0.299,0.12,0.75-0.26,0.84
	c-0.35,0.08-0.229-0.33-0.22-0.521c0.18-7,0.479-14,2.6-20.75c0.42-1.33,1.04-2.55,2.271-3.42c1.72-1.21,2.569-1.17,4.17,0.27
	c2.06,1.85,3.02,4.24,3.14,6.89c0.11,2.54,1.04,4.899,1.33,7.38c0.5,4.42,0.96,8.83,0.26,13.311c-0.6,3.799-0.779,7.66-1.31,11.479
	c-0.42,3.04-0.96,6.09-3.36,8.36c-1.67,1.58-4.39,1.149-5.239-0.9c-0.841-2.02-1.53-4.1-1.9-6.26
	C441.82,309.31,441.65,308.99,441.94,308.97z"/>
<path fill="#3B4390" d="M461.57,274.19c-0.561-2-1.12-4-1.69-6c0.78-0.31,1.54-0.64,2.271-1.06c2.31-1.33,4.739-1.33,7.149-0.39
	c1.97,0.77,3.88,1.67,5.71,2.75c0.931,0.55,1.59,1.33,1.891,2.38c0.569,2.03-0.62,3.8-2.721,4.07c-0.67,0.08-1.37,0.14-2.029-0.01
	c-3.12-0.69-6.341-0.74-9.471-1.34C462.28,274.51,461.87,274.49,461.57,274.19z"/>
<path fill="#3A3635" d="M468.48,318.82c0.13-3.061,0.609-6.03,2.609-8.511c0.86-1.06,1.97-1.699,3.43-1.59
	c0.7,0.061,0.91,0.16,0.86,0.98c-0.08,1.319-0.46,2.02-1.899,2.18c-1.351,0.15-2.08,1.19-2.511,2.45
	c-1.069,3.189-1.39,6.38,0.17,9.49c0.931,1.85,2.36,3.069,4.62,3c2.34-0.061,3.53-1.54,4.21-3.48c1.061-3.02,1.44-6.12-0.5-8.95
	c-0.569-0.84-0.76-1.479-0.439-2.39c0.22-0.6,0.489-1.13,1.14-1.27c0.74-0.15,0.75,0.609,1,0.989c3.33,5.04,2.97,12.92-1.5,16.34
	c-3.29,2.521-8.57,2.58-10.1-2.55C468.95,323.35,468.41,321.13,468.48,318.82z"/>
<path fill="#3B4390" d="M504.06,272.43c-2.909-0.62-5.859-1.07-8.68-2.07c-0.58-0.83-1.41-1.39-2.12-2.08
	c-2.1-2.03-1.51-4.55,1.25-5.47c0.34-0.11,0.69-0.2,1.05-0.22c3.28-0.17,6.45,0.39,9.48,1.59c2.52,1,3.63,3.41,2.6,5.48
	C506.92,271.11,505.63,271.99,504.06,272.43z"/>
<path fill="#EEC783" d="M451.47,288.95c0,0.521,0.05,1.04-0.01,1.56c-0.11,0.87,0.74,2.961-1.52,1.27
	c-0.12-0.09-0.311-0.079-0.46-0.109c-2.091-0.32-2.12-0.34-1.551-2.5c0.7-2.65,1.79-5.22,1.7-8.04c-0.03-0.85,0.01-2.01-0.85-2.15
	c-0.75-0.12-0.761,1.09-0.98,1.75c-0.78,2.33-1.01,4.75-1.109,7.189c-0.021,0.42,0.04,1.04-0.45,1.08
	c-0.42,0.04-0.37-0.609-0.51-0.96c-0.801-2.11-0.66-4.399-1.181-6.56c-0.2-0.86-0.34-1.74-1.14-2.3c-0.21-0.15-0.37-0.32-0.32-0.59
	c0.36-1.91,0.311-3.92,1.42-5.64c1.42-2.21,3.05-2.14,4.33,0.19c1.37,2.5,1.8,5.27,2.09,8.06c0.271,2.579,0.41,5.17,0.61,7.76
	C451.51,288.95,451.49,288.95,451.47,288.95z"/>
<path fill="#D7C9CA" d="M484.15,285.74c0.34,0.1,0.72,0.35,1.02,0.27c1.89-0.47,2.35,1.68,3.78,2.051
	c0.13,0.029,0.13,0.58,0.17,0.89c0.83,6.29,0.83,12.659,1.47,18.96c0.391,3.84,0.17,4.21,4.47,2.96c2.11-0.61,4.19-1.28,6.4-1.38
	c0.47-0.021,1.11-0.16,1.33,0.3c0.27,0.57-0.36,0.91-0.74,1.22c-0.859,0.69-1.91,0.98-2.95,1.25c-1.659,0.43-3.279,1.03-4.92,1.48
	c-3,0.819-4.75,0.399-5.069-3.08c-0.271-2.95-0.94-5.82-1.54-8.71c-0.46-2.21-1.811-3.36-3.931-3.771
	c-0.279-0.279-0.279-0.6-0.109-0.93c0.66-0.54,1.39-0.189,2.06-0.08c0.93,0.16,1.36-0.22,1.521-1.04
	c0.51-2.59,0.38-5.14-0.421-7.659c-0.25-0.781-0.77-1.051-1.569-0.881c-0.41,0.09-0.83,0.34-1.26,0.03
	c-0.08-0.101-0.131-0.22-0.141-0.341c0.061-0.489,0.03-1,0.29-1.439C484.04,285.811,484.1,285.77,484.15,285.74z"/>
<path fill="#5870B2" d="M476.23,245.6c1.02,2.27,1.13,4.68,1.13,7.11c0,0.45-0.19,0.67-0.67,0.56c-3.37-0.72-6.75-1.44-10.12-2.15
	c-1.061-0.29-1.87-0.87-2.25-1.95c-0.28-0.93-0.471-1.88-0.49-2.85c-0.15-1.06-0.16-2.08,0.96-2.68c1.26-0.67,2.54-0.83,3.8,0
	c1.19,1.44,1.311,3.25,1.67,4.97c0.021,0.08,0.01,0.16,0.01,0.24c0.011,0.16,0.011,0.32,0.021,0.47c0.06-0.08,0.01-0.17,0.01-0.25
	c0.03-0.8-0.229-1.56-0.37-2.33c-0.13-0.74-0.529-1.42-0.479-2.2c0.18-0.74,0.71-0.91,1.359-0.8c1.4,0.24,2.79,0.53,4.181,0.82
	C475.62,244.7,475.88,245.19,476.23,245.6z"/>
<path fill="#8C7960" d="M458.43,280.79c-0.18,0.34,0.32,0.979-0.42,1.03c-0.74,0.06-0.229-0.48-0.279-0.74
	c-0.11-0.61-0.54-0.37-0.631-0.13c-0.47,1.26-2.29,0.35-2.71,1.739c-0.06,0.19-0.449-0.17-0.5-0.449c-0.56-2.85-1.12-5.7-1.64-8.56
	c-0.1-0.52,0.37-0.76,0.76-0.96c0.67-0.35,1.391-0.62,2.021-1.03c0.27-0.18,1.399-0.73-0.07-0.89c-0.34-0.04-0.21-0.21-0.16-0.4
	c0.08-0.3,0.561-0.68,0.05-0.9c-0.33-0.14-0.66,0.3-0.819,0.58c-0.46,0.81-1.431,1.06-1.9,1.91c-0.3,0.53-0.5-0.17-0.62-0.37
	c-0.85-1.45-1.63-2.93-3.13-3.87c-0.45-0.28-1.36-0.23-1.28-0.79c0.061-0.4,0.87-0.74,1.391-1c3.81-1.88,6.569-0.72,7.97,3.3
	C457.75,273.01,458,276.91,458.43,280.79z"/>
<path fill="#5064A8" d="M458.98,266.52c-0.2-0.32-0.4-0.64-0.601-0.95c1.4-0.68,2.92-1.13,4.13-2.18
	c5.96,0.14,11.45,2.16,16.94,4.18c0.51,0.19,0.64,0.5,0.649,0.99c0.101,2.75,0.23,5.5,0.351,8.25c-0.86-0.79-0.851-0.79-1.8,0.24
	c-0.75,0.81-1.67,1.36-2.721,1.67c-0.55,0.16-1.069,0.36-1.189,1.02c-4.16-0.71-8.2-1.91-12.21-3.21c0.109-0.89,0.83-0.73,1.38-0.75
	c2.29-0.06,4.52,0.42,6.76,0.82c1.061,0.19,2.11,0.42,3.2,0.36c1.79-0.1,3.17-0.88,3.84-2.58c0.64-1.62,0.311-3.11-0.87-4.44
	c-1.609-1.81-3.87-2.49-5.95-3.48c-3.31-1.58-6.609-1.64-9.869,0.2c-0.58,0.33-1.221,0.69-1.86,0.09l-0.021-0.02
	C459.07,266.67,459.02,266.6,458.98,266.52z"/>
<path fill="#D6C8C9" d="M483.18,299.141c-0.38,2.06,0.33,4.039,0.42,6.06c0.021,0.46,0.37,1.271-0.39,1.36
	c-0.8,0.09-0.97-0.66-0.96-1.34c0.03-1.711,0.07-3.431,0.12-5.141c0.1-3.76-0.34-7.49-0.53-11.24c-0.45-9.14-0.75-18.29-1.109-27.44
	c-0.011-0.32,0.01-0.64-0.011-0.96c-0.02-0.46,0-0.99,0.54-1.02c0.59-0.03,0.4,0.59,0.42,0.91c0.391,6.43,1.99,12.74,1.98,19.22
	c0,1.73,0.149,3.46-0.08,5.181c0.28,1.039,0.15,2.06-0.12,3.069c-0.149,0.55-0.229,1.091-0.21,1.66c0.14,2.271,0.41,4.53,0.24,6.81
	C483.31,297.21,483.56,298.21,483.18,299.141z"/>
<path fill="#3E4792" d="M460.82,249.71c-1.051-1.16-0.95-4.01,0.189-5.81c2.03-3.19,4.38-4.15,8.15-3.37
	c2.72,0.56,5.47,1.01,8.09,1.97c1.81,0.67,3.15,1.85,3.96,3.6c0.49,1.06,1.05,2.06,1.97,2.81c2.011,1.64,3.2,3.75,3.431,6.34
	c0.279,3.11,0.39,6.22-1.2,9.08c-0.54,0.96-1.18,1.89-2.47,1.93c0.02-0.96-0.421-1.88-0.24-2.85c0.71,0.6,1.13,0.3,1.46-0.44
	c0.229-0.51,0.46-1.02,0.56-1.57c0.44-2.5,0.46-4.99-0.189-7.46c-0.36-1.36-1.15-2.45-2.34-3.21c-1.23-0.79-2-1.87-2.45-3.26
	c-0.49-1.53-1.5-2.6-3.11-3.03c-0.42-0.77-1.14-1.15-1.91-1.48c-1.41-0.24-2.8-0.6-4.189-0.94c-1.221-0.29-2.431-0.38-3.67-0.38
	c-1.721,0-3.11,0.6-4.051,2.08c-0.06,0.09-0.13,0.17-0.199,0.24c-0.141,0.1-0.311,0.18-0.29,0.41c0.029,0.21-0.021,0.4-0.16,0.57
	c-1.01,1.3-0.92,2.72-0.521,4.19c0.13,0.49,0.15,0.49-0.16,0.86c-0.22-0.03-0.449-0.06-0.67-0.09c-0.09-0.04-0.109-0.08-0.09-0.12
	C460.77,249.73,460.79,249.71,460.82,249.71z"/>
<path fill="#46539C" d="M459.16,266.75c0.59,0.24,1.09-0.03,1.57-0.31c3.67-2.18,7.34-1.86,11.01,0.01
	c1.83,0.93,3.819,1.57,5.29,3.15c1.3,1.4,1.7,2.98,1.09,4.72c-0.68,1.95-2.29,2.98-4.3,2.98c-2.641,0.01-5.15-0.91-7.761-1.08
	c-1.189-0.08-2.42-0.54-3.54,0.3c-1.14-0.44-0.77-1.51-0.96-2.34c3.351,0.37,6.71,0.63,10.011,1.31c0.989,0.2,2.01,0.25,2.96,0.04
	c0.989-0.22,1.88-0.81,2.09-1.92c0.25-1.35-0.03-2.72-1.23-3.4c-3.09-1.75-6.069-3.83-9.899-3.74c-1.57,0.04-2.82,0.75-4.09,1.49
	c-0.5,0.29-0.95,0.62-1.53,0.22C459.64,267.71,459.4,267.23,459.16,266.75z"/>
<path fill="#D5C7C9" d="M514.82,280.71c0.5,0.13,0.989,0.351,1.489,0.37c2.021,0.061,3.171,1.17,3.66,3.02
	c2.061,7.66,4.63,15.19,5.99,23.04c0.13,0.74-0.04,1.051-0.71,1.33c-3.12,1.33-6.08,3.03-9.36,3.95c-0.43,0.12-1.18,0.69-1.3,0.08
	c-0.109-0.54,0.17-1.4,1.18-1.6c2.95-0.591,5.721-1.73,8.49-2.87c0.82-0.33,1.15-0.66,0.97-1.65c-0.93-5.13-2.729-10-4.329-14.93
	c-0.66-2.04-1.631-2.341-4-1.88c-0.771,0.149-1.54,0.51-2.28-0.09c-0.11-0.07-0.2-0.17-0.25-0.291c-0.2-1.58,0.04-1.879,1.54-1.939
	c0.16-0.01,0.319,0,0.479,0c2.37-0.01,2.37-0.01,1.771-2.38c-0.03-0.12-0.061-0.229-0.09-0.351c-0.45-1.77-0.45-1.77-2.221-1.55
	c-0.54,0.06-1.1,0.271-1.6-0.159C513.96,281.99,513.75,281.17,514.82,280.71z"/>
<path fill="#9F9398" d="M504.3,294.55c0,1.2-0.01,2.4,0,3.601c0,0.6-0.21,0.83-0.87,0.77c-1.279-0.109-2.29-0.01-2.13-2.02
	c0.42-5.43-0.37-10.811-1.34-16.16c-0.14-0.75,0.07-0.97,0.8-1.05c1.09-0.11,2.09-0.56,2.26,1.281
	C503.43,285.51,504.38,289.98,504.3,294.55z"/>
<path fill="#C21320" d="M479.24,256.74c-3.9-0.82-7.8-1.64-11.7-2.47c-4.47-0.96-8.95-1.93-13.42-2.9
	c-0.141-0.03-0.37-0.12-0.38-0.19c-0.011-0.39,0.38-0.3,0.59-0.44c2.25-1.43,4.49-0.13,6.689,0.11c6.32,0.68,12.37,2.73,18.631,3.73
	c0.71,0.11,1.34,0.5,1.21,1.21C480.75,256.54,480.04,256.78,479.24,256.74z"/>
<path fill="#EDC683" d="M493.57,288.51c-0.03-2.119-0.32-3.82-0.761-5.47c-0.319-1.21,0.351-1.34,1.2-1.64
	c1.07-0.371,1.21,0.289,1.391,1c0.34,1.35,0.699,2.699,0.989,4.06c0.141,0.64,0.221,1.41-0.899,0.96
	c-0.19-0.08-0.431-0.141-0.42,0.17c0.01,0.381,0.189,0.83,0.58,0.77c1.479-0.219,1.189,0.851,1.279,1.65
	c0.23,2.141,0.431,4.28,0.311,6.44c-0.05,0.819-0.181,0.64-0.851,0.42c-1.68-0.56-3.46-1.14-5.189-1.13
	c-1.08,0-0.97-0.471-0.8-0.891c0.159-0.38-1.11-2.43,0.97-1.06c0.22,0.14,0.33-0.11,0.45-0.271
	C492.98,291.91,493.88,290.21,493.57,288.51z"/>
<path fill="#3A3534" d="M507.84,311.75c0.09-2.7,0.87-5.24,2.65-7.42c0.49-0.6,1.06-1.1,1.8-0.52c0.6,0.469,0.97-0.051,1.4-0.181
	c0.54-0.159,1.119-0.28,1.42,0.2c0.35,0.561-0.051,1.22-0.141,1.83c-0.09,0.59-0.609,0.26-0.979,0.24
	c-1.78-0.11-2.971,0.859-3.771,2.279c-1.64,2.9-1.29,5.79,0.34,8.59c0.391,0.671,1.08,0.79,1.75,0.851
	c2.761,0.24,4.881-1.54,5.15-4.3c0.04-0.42-0.09-0.9,0.57-0.99c0.54-0.07,1.08-0.46,1.59-0.021c0.46,0.4,0.17,0.9,0,1.33
	c-0.67,1.7-1.38,3.53-2.68,4.73c-2.54,2.35-6.221,1.49-7.94-1.59C508.15,315.24,507.89,313.56,507.84,311.75z"/>
<path fill="#353988" d="M469.74,263.55c-0.17-0.06-0.351-0.13-0.521-0.19c-0.29-0.18-0.6-0.1-0.91-0.06
	c-2.909-0.38-5.829-0.68-8.72-1.16c-4.12-0.68-4.53-1.15-4.72-5.17c-0.101-2.15-0.2-2.25,1.89-1.77c1.34,0.31,2.75,0.27,4.07,0.72
	c0.53,2.96,2.79,4.38,5.14,5.69c0.94,0.52,1.94,0.91,3.04,1.01c0.36,0.03,0.73,0.11,0.99,0.36
	C470.47,263.42,470.04,263.47,469.74,263.55z"/>
<path fill="#5870B1" d="M465.88,256.89c3.86,0.81,7.71,1.65,11.58,2.43c2.34,0.47,2.34,0.44,2.36,2.83c0.18,0.42,0.09,0.87,0.09,1.3
	c0,1.57-0.58,1.98-2.101,1.5c-1.01-0.32-1.85-0.94-2.579-1.69c-1.091-1.12-2.33-1.86-3.931-2.09c-2.08-0.31-3.96-1.18-5.7-2.37
	c-0.159-0.11-0.33-0.23-0.46-0.38c-0.37-0.4-1.029-0.79-0.75-1.36C464.67,256.5,465.35,256.78,465.88,256.89z"/>
<path fill="#C21320" d="M510.77,253.6c-1.939-0.15-3.43-0.59-4.939-0.98c-5.29-1.37-10.58-2.7-15.87-4.05
	c-0.42-0.11-0.84-0.25-1.25-0.41c-0.21-0.08-0.55-0.2-0.57-0.34c-0.05-0.36,0.36-0.34,0.58-0.47c1.931-1.08,3.771-0.09,5.601,0.31
	c5.3,1.17,10.649,2.13,15.8,3.88c0.149,0.05,0.31,0.11,0.46,0.1c0.72-0.02,1.35,0.18,1.31,1.02
	C511.85,253.58,511.13,253.65,510.77,253.6z"/>
<path fill="#5165A9" d="M500.68,278.94c-0.47,0.11-0.949,0.21-1.42,0.32c-0.279,0.06-0.609,0.06-0.819-0.06
	c-1.54-0.84-3.03-0.27-4.53,0.09c-1.28,0.31-2.58,0.61-3.91,0.5c-2.21-0.19-4.02-1.08-4.96-3.21c-0.271-0.6-0.62-1.41,0.5-1.68
	l0.02,0.01c0.08,0.07,0.16,0.14,0.23,0.22l0.01,0.01c0.08,0.08,0.16,0.15,0.25,0.22c1.04,0.85,1.95,1.88,3.16,2.51
	c0.22,0.11,0.72,0.92,0.9-0.09c1.21,0.25,2.34-0.01,3.47-0.42c0.58-0.22,1.05-0.54,1.34-1.11c0.2-0.14,0.42-0.18,0.65-0.18
	c0.51,0.02,0.97-0.08,1.09-0.67c0.12-0.62-0.2-1.1-0.66-1.43c-1.24-0.89-2.67-1.35-4.13-1.73c-0.59-0.15-1.18-0.23-1.66,0.29
	c-0.22,0.14-0.43,0.11-0.65-0.01c-0.199-0.13-0.38-0.28-0.55-0.45c-0.08-0.1-0.14-0.2-0.189-0.32c-0.08-0.78,0.46-0.99,1.05-1
	c3.1-0.02,5.93,0.72,8.07,3.13c0.619,0.69,1.27,1.18,2.229,1.18c0.66,0,1.24,0.27,1.72,0.74c1.221,1.18,0.96,2.39-0.63,2.95
	C501.06,278.82,500.86,278.86,500.68,278.94z"/>
<path fill="#8B7960" d="M484.58,312.13c0.04,1.08,0.05,2.16-0.39,3.18c-0.08,0.19-0.04,0.551-0.391,0.45
	c-0.09-0.029-0.14-0.33-0.149-0.52c-0.11-1.221,0.079-2.45-0.21-3.69c-0.44-1.819-1.74-1.66-3.08-1.64
	c-1.33,0.02-1.771,0.89-1.99,1.979c-0.34,1.681-0.62,3.36-1,5.03c-0.19,0.811-0.51,1.59-0.86,2.34
	c-0.25,0.521-0.7,0.891-1.359,0.771c-0.7-0.13-0.94-0.69-1.08-1.29c-0.11-0.46-0.061-0.771,0.58-0.91
	c1.22-0.26,1.939-1.061,1.83-2.38c-0.11-1.431-0.271-2.851-0.4-4.28c-0.1-1.07,0.01-2.59,0.9-2.729c1.8-0.29,3.319-1.721,5.279-1.25
	c1.681,0.399,2.07,1.72,2.311,3.13C484.66,310.92,484.58,311.54,484.58,312.13z"/>
<path fill="#45529A" d="M504.06,272.43c0.591-0.4,1.19-0.78,1.771-1.2c1.24-0.89,2.02-2.02,1.79-3.64
	c-0.24-1.66-1.38-2.63-2.79-3.15c-2.96-1.08-6.05-1.72-9.22-1.51c-1.5,0.1-2.9,0.67-3.25,2.32c-0.29,1.39,0.59,2.35,1.62,3.22
	c0.59,0.5,1.579,0.78,1.409,1.88c-0.489-0.11-0.979-0.23-1.46-0.34c-0.08-0.03-0.149-0.07-0.199-0.14
	c-0.711-0.07-1.33-0.36-1.94-0.7c-0.78-1.52-1.68-3.02-0.93-4.84c0.56-1.36,1.5-2.33,2.89-2.84c0.56-0.21,1.15-0.33,1.64-0.69
	c2.721,0.54,5.45,1.07,8.17,1.61c1.37,0.71,2.841,1.24,3.94,2.41c2.01,2.14,1.88,5.03-0.35,6.95c-0.391,0.33-0.66,0.82-1.2,0.96
	c-0.08-0.01-0.17-0.02-0.25-0.03l-0.101-0.06l-0.109,0.05c-0.101-0.01-0.19-0.02-0.29-0.03c-0.15-0.04-0.311-0.03-0.431-0.15
	C504.53,272.48,504.29,272.45,504.06,272.43z"/>
<path fill="#353989" d="M486.52,247.77c-0.1,0.36,0.211,0.96-0.25,1.05c-0.569,0.12-0.34-0.59-0.56-0.86
	c-0.72-0.9-1.71-1.66-2.17-2.67c-0.66-1.44-1.61-2.49-2.82-3.45c-1.51-1.2-3.21-1.8-5.09-1.97c-0.55-0.05-1.06-0.04-1.13-0.76
	c1.78-0.49,3.62-0.07,5.43-0.42c1.24-0.24,2.53-0.16,3.79-0.31c0.55-0.07,0.771,0.03,0.94,0.56
	C485.57,241.83,486.34,244.73,486.52,247.77z"/>
<path fill="#353988" d="M457.47,248.27c0.17,0.34,0.83,0.35,0.69,0.83c-0.04,0.13-0.641,0.13-0.98,0.12
	c-0.649-0.01-1.38,0.21-1.87-0.47c-0.569-2.92-0.63-5.91-1.35-8.8c-0.07-0.3-0.19-0.69,0.29-0.75c2.91-0.37,5.83-0.51,8.75-0.07
	c-0.34,1.03-1.22,0.67-1.93,0.75c-0.08,0.08-0.16,0.16-0.24,0.24C458.29,242.24,457.13,244.95,457.47,248.27z"/>
<path fill="#566DAF" d="M482.71,262.91c-0.26-2.38-0.54-4.75-0.78-7.13c-0.08-0.75-0.58-1.31-1.17-1.34c-3.51-0.18-2.95-2.82-3.1-5
	c-0.061-0.87-0.03-1.74-0.3-2.59c-0.12-0.31-0.21-0.64,0.149-0.84c0.37-0.2,0.71-0.02,0.95,0.27c0.61,0.73,0.96,1.57,0.95,2.53
	c-0.021,0.99,0.46,1.53,1.359,1.85c2.24,0.78,3.33,2.47,3.681,4.74c0.3,1.99,0.43,3.97-0.08,5.94c-0.13,0.5-0.271,1.02-0.63,1.41
	C483.46,263.06,483.14,263.5,482.71,262.91z"/>
<path fill="#D5C7C9" d="M479.36,258.81c-2.681-0.57-5.25-1.16-7.841-1.65c-4.819-0.92-9.659-1.76-14.479-2.67
	c-0.9-0.17-1.771-0.5-2.64-0.77c-0.57-0.18-0.681-0.62-0.551-1.15c0.16-0.68,0.641-0.31,0.96-0.24
	c7.37,1.72,14.881,2.85,22.171,4.95c1.17,0.34,2.35,0.41,3.56,0.33c0.27-0.02,0.71-0.33,0.78,0.19c0.06,0.42-0.301,0.61-0.681,0.69
	C480.17,258.61,479.71,258.73,479.36,258.81z"/>
<path fill="#8F8487" d="M511.52,255.97c-3.09-0.41-6.069-1.3-9.09-2.03c-4.75-1.14-9.52-2.26-14.16-3.82
	c-0.659-0.22-0.59-0.54-0.569-0.91c0.04-0.71,0.53-0.39,0.88-0.29c5.439,1.41,10.86,2.86,16.31,4.22c1.931,0.48,3.91,0.74,5.87,1.09
	c0.271,0.05,0.561,0.01,0.83,0.04c0.37,0.04,0.63-0.77,0.98-0.22c0.27,0.43,0.109,1-0.07,1.51
	C512.32,256.07,511.93,256,511.52,255.97z"/>
<path fill="#3A428E" d="M502.32,272.8c2.58,0.62,5.149,1.32,7.75,1.85c1.43,0.29,1.08,1.32,1.189,2.2c0.13,1.04-0.83,0.76-1.24,0.84
	c-1.829,0.34-3.68,0.52-5.529,0.76c-0.28-0.1-0.3-0.31-0.25-0.57c0.41-2.15-0.61-3.78-2.811-4.48c-0.489-0.16-1.02-0.21-1.43-0.56
	c-0.17-0.14-0.21-0.33-0.06-0.52c0.319,0.08,0.649,0.15,0.97,0.23c0.07,0.05,0.14,0.06,0.21,0.01c0.25,0.07,0.5,0.14,0.74,0.21
	C502.02,272.88,502.17,272.88,502.32,272.8z"/>
<path fill="#49589F" d="M482.71,262.91c0.62,0.3,0.82-0.21,0.95-0.59c1.09-3.1,1-6.18-0.33-9.18c-0.53-1.19-1.59-1.88-2.84-2.21
	c-1.061-0.28-1.58-0.88-1.42-1.99c0.13-0.9-0.34-1.62-0.73-2.36c-0.13-0.26-0.31-0.49-0.64-0.42c-0.38,0.08-0.271,0.43-0.33,0.69
	c-0.08-0.25-0.16-0.49-0.23-0.74c-0.189-0.21-0.02-0.5-0.189-0.71c-0.01-0.08-0.03-0.17-0.04-0.25c-0.07-0.06-0.11-0.13-0.141-0.22
	c-0.04-0.16-0.079-0.32-0.109-0.49c1.22-0.67,1.99,0.45,2.29,1.05c1.29,2.54,3.04,4.59,5.04,6.61c1.64,1.65,1.37,4.22,1.37,6.5
	c0,1.74-0.17,3.43-1.101,4.95c-0.24,0.4-0.479,0.96-1.01,0.93c-0.61-0.04-0.11-0.81-0.51-1.06
	C482.71,263.24,482.71,263.08,482.71,262.91z"/>
<path fill="#586FB1" d="M494.92,276.3c0.03,0.23,0.17,0.52,0.08,0.67c-0.54,0.94-4.01,1.49-4.92,0.81
	c-1.61-0.75-2.61-2.18-3.83-3.36c-0.61-1.26,0.17-2.22,1.79-2.23c2.36,0.91,4.43,2.35,6.6,3.61
	C494.83,275.91,494.94,276.08,494.92,276.3z"/>
<path fill="#445199" d="M485.53,274.91c-0.931,0.66-0.32,1.38,0,1.98c1,1.85,3.5,2.92,5.859,2.54c0.971-0.15,1.971-0.31,2.891-0.63
	c1.75-0.62,3.39-0.54,4.97,0.46c-2.4,0.96-5,1.11-7.46,1.84c-1.42,0.101-2.84,0.23-4.21-0.35c-1.51-0.64-2.83-1.45-3.23-3.21
	c-0.08-0.7-0.199-1.39-0.21-2.09c-0.01-0.47-0.33-1.18,0.21-1.36C484.71,273.97,485.26,274.45,485.53,274.91z"/>
<path fill="#8A7860" d="M476.88,306.07c-0.22,0.4-0.45,0.13-0.64,0.09c-2.94-0.61-5.67-1.85-8.48-2.85
	c-1.83-0.66-3.689-1.261-5.5-1.961c-1-0.39-0.229-1.17-0.189-1.729c0.05-0.71,0.63-0.261,0.92-0.17c3.72,1.18,7.18,2.95,10.66,4.68
	c0.96,0.479,1.88,1.05,2.81,1.59C476.61,305.811,476.74,305.95,476.88,306.07z"/>
<path fill="#EDC683" d="M490.65,297.23c1.76,1.26,3.68,1.47,5.359,2.229c0.55,0.25,0.19,0.62,0.061,0.899
	c-0.92,1.971-2.471,3.381-4.181,4.65c-0.31,0.23-0.569,0.34-0.62-0.21c-0.199-2.409-0.409-4.829-0.609-7.239
	C490.64,297.38,490.66,297.24,490.65,297.23z"/>
<path fill="#88765E" d="M511.32,303.1c-2.45-0.68-4.9-1.359-7.351-2.05c-2.68-0.76-5.35-1.579-8.04-2.31
	c-1.109-0.301-2.02-0.94-2.96-1.53c-0.189-0.12-0.5-0.26-0.359-0.53c0.13-0.25,0.409-0.05,0.64-0.029
	c2.24,0.189,4.11,1.479,6.23,2.02c4.18,1.07,8.369,2.07,12.55,3.1c0.439,0.11,1.239,0.141,1.18,0.511
	c-0.09,0.51-0.81,0.63-1.38,0.68c-0.16,0.011-0.32,0-0.48,0C511.35,303,511.33,303.05,511.32,303.1z"/>
<path fill="#ECC683" d="M450.27,305.87c-0.31-0.82-0.56-1.62-1.52-2c-0.55-0.22-0.68-0.851-0.61-1.45
	c0.66,0.59,1.21,1.96,1.971,1.59c0.58-0.279-0.091-1.65-0.32-2.51c-0.55-2.04-1.57-3.939-1.79-6.07c-0.13-1.199-0.04-1.72,1.57-1.92
	c2.149-0.26,1.93,0.67,1.819,2.04C451.1,298.99,451.11,302.471,450.27,305.87z"/>
<path fill="#5064A7" d="M507.63,263.14c0.71,0.1,1.41,0.18,2.11,0.31c0.399,0.07,0.729,0.25,0.77,0.76c0.23,3,0.46,6,0.721,9
	c0.06,0.72-0.181,0.93-0.86,0.72c-0.83-0.26-1.67-0.48-2.51-0.72c-0.21-0.17-0.511-0.01-0.71-0.2h-0.011
	c-0.359-0.64,0.091-1.05,0.431-1.47c1.899-2.33,1.939-4.21,0.149-6.66c-0.37-0.51-1.05-0.95-0.62-1.76
	C507.28,263.02,507.46,263.01,507.63,263.14z"/>
<path fill="#D5C7C8" d="M511.19,258.35c0-0.16-0.03-0.33,0.02-0.47c0.1-0.32-0.33-0.88,0.33-0.94c0.6-0.05,0.66,0.45,0.69,0.91
	c0.229,3.22,0.489,6.44,0.689,9.66c0.13,2.07,0.18,4.14,0.26,6.21c0.021,0.48,0,0.96,0.03,1.44c0.03,0.57-0.22,1.18-0.68,1.26
	c-0.29,0.05-0.36-0.73-0.36-1.15c-0.07-5.05-1.22-10.04-0.93-15.12c0.03-0.51-0.021-1.03-0.04-1.55c-0.061-0.05-0.07-0.1-0.061-0.16
	C511.15,258.37,511.17,258.35,511.19,258.35z"/>
<path fill="#D4C6C8" d="M513.82,290.05c0.02,1.261,0.04,2.521,0.06,3.78c0.04,0.82,0.43,1.67-0.22,2.43
	c-0.71-5.59-1.79-11.14-2.22-16.77c-0.061-0.79,1.35-2.19,1.989-1.86c0.71,0.36,0.19,1.24,0.42,1.84c0.521,0.64,0.271,1.309,0.12,2
	c-0.18,0.779-0.689,1.52-0.3,2.369c0.5,1.12,0.22,2.33,0.42,3.49C513.87,288.221,514.12,289.16,513.82,290.05z"/>
<path fill="#D5C7C8" d="M454.38,249.02c0.16,0.47,0.18,1.05-0.62,1.09c-0.79,0.04-0.479-0.7-0.54-1.07c-0.54-3.55-1-7.1-1.52-10.65
	c-0.19-1.29-0.72-2.38-2.08-2.82c-0.601-0.2-0.91-0.67-0.71-1.18c0.2-0.53,0.84-0.58,1.35-0.43c1.011,0.28,1.54,1.1,1.931,2
	c0.989,2.3,1.329,4.75,1.63,7.21C454.04,245.08,454.18,246.99,454.38,249.02z"/>
<path fill="#4C5CA2" d="M465.88,256.89c-0.439,0.13-1.11-0.27-1.29,0.26c-0.149,0.46,0.47,0.79,0.82,1.07
	c1.84,1.47,3.99,2.36,6.29,2.69c1.45,0.21,2.52,0.89,3.5,1.85c0.74,0.73,1.49,1.44,2.49,1.8c1.659,0.61,2.079,0.31,2.09-1.46
	c0-0.32,0.02-0.64,0.029-0.96c0.391,1.36,0.16,2.74,0.16,4.12c-0.109,0.07-0.22,0.08-0.34,0.04c-1.83-0.05-3.42-0.76-4.75-1.97
	c-1.41-1.28-3.04-1.96-4.87-2.37c-2.37-0.53-4.52-1.56-6.3-3.27c-0.4-0.39-0.79-0.81-1-1.33c-0.21-0.51-0.19-0.95,0.54-0.97
	c0.4,0.04,0.79,0.08,1.19,0.13c0.079,0.03,0.159,0.08,0.239,0.13C465.09,256.69,465.53,256.57,465.88,256.89z"/>
<path fill="#4C5DA2" d="M487.95,272.5c-1.24-0.04-1.83,0.64-1.681,1.92c-0.399-0.25-0.8-0.5-1.189-0.75
	c-0.521-0.78-0.09-1.41,0.43-1.89c1.74-1.58,3.681-2.56,6.12-1.69c0.29,0.1,0.601,0.19,0.92,0.22c0.08,0.01,0.15,0.02,0.22,0.06
	c0.37,0.24,0.771,0.43,1.2,0.54c1.92,0.46,3.73,1.11,5.2,2.52c0.521,0.5,1.3,0.6,1.97,0.84c1.03,0.37,1.801,1.02,2.221,2.05
	c0.479,1.19,0.21,1.82-0.98,2.36c-0.56,0.08-1.12,0.17-1.68,0.25c0.649-0.55,2.07-0.53,1.59-1.95c-0.41-1.22-1.34-1.74-2.62-1.61
	c-1.03,0.11-1.47-0.68-2.01-1.29c-2.16-2.46-5.01-3.04-8.08-3.01c-0.62,0.01-0.68,0.44-0.42,0.93c-0.21,0.24-0.51,0.28-0.75,0.14
	C487.9,271.87,488.13,272.45,487.95,272.5z"/>
<path fill="#3A3635" d="M481.45,292.93c-0.13,0.711-0.59,0.311-0.84,0.12c-1.641-1.26-3.431-2.34-4.87-3.84
	c-3.23-3.38-7.32-5.771-10.561-9.13c-0.279-0.29-0.609-0.53-0.85-0.84c-0.19-0.23-0.79-0.45-0.32-0.82
	c0.311-0.24,0.83-0.6,1.271-0.07c3.109,3.791,7.02,6.7,10.689,9.88c1.011,0.879,1.971,1.81,2.94,2.729
	c0.58,0.55,1.08,1.19,1.97,1.25C481.25,292.25,481.44,292.51,481.45,292.93z"/>
<path fill="#576EB0" d="M474.74,279.73c-0.521-0.5-0.5-0.83,0.27-1.03c1.83-0.47,3.38-1.34,4.32-3.09c0.26-0.49,0.56-0.57,0.75,0.08
	c0.11,0.37,0.25,0.74,0.38,1.11c0.09,1.1,0.16,2.21,0.28,3.31c0.069,0.66-0.19,0.88-0.8,0.75
	C478.2,280.49,476.47,280.11,474.74,279.73z"/>
<path fill="#C11320" d="M448.09,234.91c-0.03,0.27,0.021,0.63-0.3,0.72c-1.69,0.52-2.1,2.19-3.05,3.37
	c-0.5,0.62-0.99,1.43-1.931,1.05c-0.829-0.34-0.989-1.18-0.97-2.02c0.01-0.29,0.03-0.63,0.33-0.71c1.73-0.48,2.43-2.1,3.61-3.19
	c0.52-0.48,1.1-0.66,1.739-0.41C448.05,233.91,448.17,234.38,448.09,234.91z"/>
<path fill="#3F4892" d="M469.74,263.55c0.6-0.64-0.26-0.52-0.36-0.53c-2.52-0.25-4.54-1.55-6.479-3.04
	c-1.591-1.22-2.46-2.86-2.061-4.06c0.08,0.02,0.16,0.03,0.25,0.05c0.15,0.11,0.3,0.1,0.45,0.02c0.27-0.02,0.54-0.06,0.75,0.18
	c0,1.84,1.46,2.67,2.64,3.59c1.61,1.27,3.551,2.01,5.551,2.38c2.119,0.38,3.609,1.79,5.3,2.87c0.17,0.11,0.239,0.31,0.16,0.53
	C473.83,265.01,471.89,263.94,469.74,263.55z"/>
<path fill="#435098" d="M502.36,278.69c1.37-1.31,0.939-3.29-1.011-3.96c-1.619-0.56-3.02-1.34-4.279-2.51
	c-0.801-0.75-2.021-0.66-3.021-1.08c-0.47-0.2-1.01-0.26-1.3-0.77c2.4,0.65,4.8,1.3,7.2,1.95c0.25,0.66,0.899,0.53,1.399,0.7
	c1.78,0.59,2.96,1.67,3.49,3.57c0.22,0.8-0.649,1.19-0.34,1.87C503.78,278.53,503.07,278.61,502.36,278.69z"/>
<path fill="#9E9297" d="M503.57,302.41c-0.561,3.27-1.7,5.78-4.36,6.47c-0.33,0.09-0.88,0.18-1.01,0.021
	c-0.21-0.25,0.229-0.521,0.42-0.75c1.38-1.721,2.14-3.7,2.46-5.86c0.07-0.49,0.189-0.96,0.77-0.649
	C502.41,301.93,503.48,301.4,503.57,302.41z"/>
<path fill="#8A7860" d="M496.87,284.43c-0.18-0.57-0.351-1.14-0.53-1.709c-0.56-1.781,0.17-2.551,2.12-2.311
	c0.59,0.07,0.67,0.48,0.83,0.869c0.8,2.041,0.55,4.24,0.87,6.351c0.1,0.63-0.47,0.81-0.93,0.88c-0.65,0.1-0.641-0.47-0.69-0.88
	c-0.25-1.81-0.35-3.649-1.3-5.28c-0.19-0.33-0.351-0.72-0.79-0.83c0.069,0.34,0.13,0.681,0.22,1.011c0.14,0.5,0.3,0.989,0.46,1.479
	C497.14,284.221,497.33,284.54,496.87,284.43z"/>
<path fill="#8B7960" d="M495.84,306.311c-0.689-0.11-0.859-0.44-0.31-0.92c1.37-1.19,2.279-2.631,2.689-4.4
	c0.08-0.35,0.261-0.74,0.74-0.51c0.51,0.25,1.24,0.299,1.25,1.09c0.03,2.119-0.69,3.97-2.01,5.609c-0.32,0.4-0.561,0.33-0.75-0.14
	c-0.26-0.61-0.7-1.07-1.33-1.29c-0.46-0.17-0.29,0.15-0.23,0.37c0.051,0.06,0.061,0.1,0.03,0.14
	C495.89,306.29,495.86,306.311,495.84,306.311z"/>
<path fill="#576EAF" d="M462.51,263.38c-0.939,1.55-2.47,1.98-4.13,2.18c-1.149-1.2-2.439-2.16-4.09-2.59
	c-1.23-0.32-0.1-1.18-0.36-1.74c0.09,0,0.2-0.04,0.28,0c1.87,0.88,3.76,1.63,5.9,1.5C460.96,262.69,461.76,262.99,462.51,263.38z"/>
<path fill="#4D5FA4" d="M495.38,260.81c-0.13,0.7-0.7,0.76-1.24,0.91c-2.64,0.71-3.92,3.42-2.77,5.88c0.24,0.51,0.49,1,0.399,1.58
	c-0.079-0.02-0.159-0.04-0.239-0.06c-0.13-0.12-0.34-0.06-0.46-0.2c-1.15,0.07-1.63-0.48-1.69-1.62c-0.07-1.3-0.27-2.59-0.42-3.88
	c0.19-0.03,0.29,0.08,0.34,0.24c0.04,0.16,0.03,0.31-0.09,0.44c0.11-0.08,0.17-0.19,0.23-0.3c0.84-1.41,1.979-2.53,3.29-3.48
	C493.62,260.47,494.5,260.64,495.38,260.81z"/>
<path fill="#8B7960" d="M491.3,308.08c0.021-0.33,0-0.54,0.061-0.72c0.069-0.21,3.699-0.71,3.859-0.55c0.17,0.17,0.34,0.34,0.5,0.51
	c0.53,0.54,1.45,0.72,0.21,1.83c-0.83,0.75-1.59,0.989-2.51,1.31c-1.46,0.5-1.85-0.21-1.94-1.45
	C491.46,308.65,491.34,308.3,491.3,308.08z"/>
<path fill="#8B7960" d="M515.08,298.49c-0.76-1.5,0.95-1.77,1.61-2.59c0.279-0.351,0.649,0.18,0.689,0.52
	c0.19,1.68,0.76,3.33,0.36,5.061c-0.15,0.649-0.33,1.08-1.12,1.09c-0.76,0.01-1.03-0.25-1.14-0.99
	C515.32,300.609,515,299.65,515.08,298.49z"/>
<path fill="#3A3535" d="M465.9,299.76c-0.21-0.09-0.49-0.13-0.631-0.289c-0.239-0.271-0.01-0.511,0.171-0.73
	c1.859-2.311,4-4.37,6.189-6.33c0.95-0.85,1.68-1.91,2.74-2.631c0.32-0.219,0.56-0.639,1-0.189c0.49,0.5-0.05,0.721-0.3,0.939
	c-2.67,2.291-5.051,4.871-7.44,7.441C467.07,298.57,466.77,299.42,465.9,299.76z"/>
<path fill="#3B448F" d="M484.36,277.55c1.659,2.69,4.02,3.78,7.149,3.16c0.38-0.08,0.391,0.12,0.29,0.399
	c-2.25,0.67-4.5,1.32-6.74,2.011c-0.489,0.149-0.67,0.06-0.67-0.44c0.011-0.68,0.011-1.359,0.011-2.039
	c0.119-0.781,0.119-1.571,0-2.351C484.38,278.04,484.37,277.8,484.36,277.55z"/>
<path fill="#C01420" d="M476.89,236.73c-0.359,0.03-0.729-0.08-0.97-0.56c-0.32-0.61,0.2-0.74,0.5-1.02
	c1.34-1.2,2.23-2.81,3.63-3.96c0.54-0.44,1.01-0.48,1.47,0c0.461,0.48,0.44,1.19-0.05,1.48c-1.16,0.71-1.729,1.85-2.489,2.86
	C478.48,236.18,477.89,236.7,476.89,236.73z"/>
<path fill="#3A3635" d="M520.13,308.77c-0.11,0.04-0.22,0.091-0.33,0.131c-3.09,1.08-3.1,1.08-2.54-2.211
	c0.05-0.31,0.23-0.629,0.19-0.92c-0.22-1.439,0.68-1.42,1.67-1.33c1.11,0.101,1.47,0.82,1.189,1.75
	c-0.25,0.82-0.05,1.561,0.051,2.33C520.41,308.71,520.32,308.78,520.13,308.77z"/>
<path fill="#424D96" d="M475.94,265.53c-1.82-1.22-3.46-2.68-5.761-3.15c-2.93-0.6-5.6-1.88-7.52-4.3
	c-0.38-0.48-1.53-1.04-0.38-1.91c0.33,0.04,0.7-0.07,0.979,0.22c-0.67,0.33-0.41,0.71-0.09,1.14c1.76,2.39,4.311,3.5,7.05,4.14
	c1.79,0.42,3.38,1.06,4.761,2.29c1.31,1.17,2.71,2.24,4.649,2.02c0.04,0,0.101,0.18,0.16,0.28c-0.021,0.16-0.11,0.26-0.26,0.3
	c-0.16-0.03-0.311-0.06-0.471-0.08c-0.21-0.19-0.52-0.01-0.729-0.2c-0.16-0.02-0.32-0.05-0.48-0.07
	c-0.14-0.07-0.319-0.06-0.439-0.19c-0.09-0.02-0.18-0.03-0.271-0.05c-0.14-0.1-0.34-0.05-0.449-0.19
	c-0.091-0.02-0.171-0.03-0.261-0.04c-0.09-0.07-0.18-0.12-0.279-0.17C476.06,265.58,476,265.56,475.94,265.53z"/>
<path fill="#EBC582" d="M490.11,287.95c-0.25-0.33-0.33-0.511-0.471-0.62c-1.229-1.01-2.25-2.4-4.149-2.16
	c-0.49,0.061-0.92-0.15-0.931-0.82c-0.02-0.75,0.511-0.5,0.891-0.6c1.27-0.33,2.53-0.71,3.8-1.061c0.26-0.069,0.57-0.229,0.78,0.041
	c0.2,0.26,0.09,0.479-0.19,0.68c-0.47,0.34,0.03,0.72,0.061,1.08c0.069,0.91,0.21,1.82,0.3,2.73
	C490.21,287.391,490.15,287.57,490.11,287.95z"/>
<path fill="#404C94" d="M492.54,270.32c-1.56-0.16-3.13-0.5-4.65,0.25c-1.35,0.67-2.779,1.25-2.819,3.11
	c-1.75-0.22-1.08-1.69-1.29-2.64c-0.2-0.89,0.779-0.68,1.239-0.93c0.45-0.24,1-0.29,1.461-0.51
	C488.65,268.61,490.63,269.12,492.54,270.32z"/>
<path fill="#8A7860" d="M478.06,303.79c0.021-1.08-0.18-2.24,1.381-2.45c0.22-0.029,0.579-0.061,0.67,0.07
	c0.899,1.27,0.739,2.75,0.59,4.15c-0.101,0.939-1.2,1.06-1.9,1.449c-0.37,0.2-0.42-0.189-0.45-0.48
	C478.25,305.609,478.16,304.7,478.06,303.79z"/>
<path fill="#EBC582" d="M475.63,326.02c-1.1-0.119-1.92-0.409-2.6-1.01c-0.53-0.47-0.471-0.51,0.1-0.88
	c0.8-0.52,0.87-1.479,1.18-2.29c0.12-0.32,0.141-0.82,0.57-0.82c0.42-0.01,0.46,0.48,0.601,0.801c0.489,1.159,0.68,2.489,1.92,3.21
	c0.38,0.22,0.06,0.399-0.141,0.47C476.67,325.71,476.06,325.89,475.63,326.02z"/>
<path fill="#3F4893" d="M462.5,243.97c0.28-1.61,1.54-2.26,2.87-2.49c3.26-0.56,6.38,0.16,9.37,1.48c-0.2,0.53,0.49,0.56,0.529,0.96
	c-0.399,0.36-0.72,0-1.079-0.1c-1.62-0.47-3.28-0.81-4.95-1.06c-0.2-0.03-0.391,0.02-0.561,0.12c-0.21,0.11-0.43,0.19-0.67,0.2
	c-1.25-1-2.95-0.76-4.12,0.56c-0.239,0.27-0.359,0.61-0.649,0.84C462.85,244.52,462.52,244.47,462.5,243.97z"/>
<path fill="#47559C" d="M507.16,263.16c-0.13,0.91,0.72,1.28,1.109,1.89c1.57,2.46,1.461,4.53-0.489,6.7
	c-0.33,0.37-0.58,0.76-0.65,1.25c-0.41-0.04-0.85,0.09-1.189-0.26c0.25-0.35,0.42-0.81,0.76-1.05c2.76-1.91,2.55-5.83-0.8-7.72
	c-0.82-0.46-1.761-0.74-2.351-1.55c0.73,0.11,1.46,0.22,2.19,0.33c0.16,0.05,0.33,0.05,0.479,0.14c0.311,0.04,0.62,0.08,0.92,0.12
	C507.15,263.06,507.16,263.11,507.16,263.16z"/>
<path fill="#556CAD" d="M492.74,260.3c-0.8,1.41-2.2,2.29-3.141,3.62c-0.609,0.86-0.199-0.58-0.64-0.51
	c-0.14-1.1-0.23-2.21-0.43-3.31c-0.13-0.74,0.06-0.84,0.729-0.66C490.41,259.77,491.58,260.02,492.74,260.3z"/>
<path fill="#4D5EA3" d="M468.51,242.74c0.141-0.26,0.351-0.53,0.641-0.43c1.89,0.63,4.01,0.43,5.77,1.56
	c0.09,0.06,0.23,0.03,0.35,0.04c0.48,0.47,0.851,1,0.961,1.69c-1.761-1.23-3.931-1.01-5.87-1.6c-0.41-0.13-0.62,0.26-0.66,0.66
	c-0.84-0.11-0.76-0.96-1.141-1.43c-0.04-0.1-0.06-0.21-0.069-0.32C468.5,242.85,468.5,242.8,468.51,242.74z"/>
<path fill="#4D5FA3" d="M464.69,249.23c0.3,0.97,1.13,1.39,1.89,1.9c-1.28-0.26-2.55-0.51-3.83-0.77c-1.39-1.42-1.48-3.87-0.18-5.09
	c0.12-0.04,0.25-0.04,0.38-0.02c0.18,0.06,0.32,0.17,0.439,0.32c0.521,0.86,0.421,1.9,0.771,2.82
	C464.27,248.73,464.28,249.09,464.69,249.23z"/>
<path fill="#89775F" d="M500.71,293.18c0,0.48-0.1,0.98,0.021,1.43c0.25,0.94-0.561,0.711-0.921,0.86
	c-0.52,0.21-0.55-0.26-0.579-0.63c-0.131-1.63-0.261-3.25-0.4-4.88c-0.061-0.7,0.51-0.56,0.88-0.71c0.6-0.24,0.66,0.141,0.73,0.58
	C500.6,290.95,500.75,292.05,500.71,293.18z"/>
<path fill="#87765F" d="M513.87,310.65c-0.71,0.05-0.92-0.25-0.95-0.78c-0.02-0.43,0.08-0.7,0.58-0.66c1.7,0.15,1.93-1.02,2.05-2.29
	c0.101-1.061,0.13-2.141,0.82-3.05c0.14-0.181,0.2-0.479,0.51-0.39c0.37,0.109,0.15,0.39,0.12,0.58c-0.25,1.56-0.59,3.109-0.75,4.68
	C516.09,310.41,514.82,310.38,513.87,310.65z"/>
<path fill="#3C3837" d="M496.87,284.43c0.09-0.14,0.17-0.27,0.26-0.41c0.851,2.33,1.13,4.78,1.32,7.211
	c0.14,1.789,0.42,3.629,0.06,5.439c-0.05,0.27-0.02,0.63-0.41,0.59c-0.279-0.029-0.33-0.34-0.3-0.58
	C498.36,292.54,497.19,288.52,496.87,284.43z"/>
<path fill="#8B8184" d="M489.42,256.75c-0.24,0.63,0.37,1.63-0.36,1.7c-1.069,0.1-0.819-0.99-0.88-1.71
	c-0.14-1.46-0.33-2.91-0.449-4.37c-0.03-0.38-0.311-1.04,0.239-1.12c0.601-0.09,0.931,0.43,0.98,1.08
	C489.09,253.83,489.27,255.32,489.42,256.75z"/>
<path fill="#3A3635" d="M491.54,306.05c2.51-1.09,3.9-3.271,5.35-5.409c0.181-0.271,0.29-0.841,0.721-0.621
	c0.409,0.211,0.029,0.66-0.08,0.961c-0.66,1.83-1.79,3.35-3.23,4.649c-0.74,0.67-1.6,0.83-2.54,0.7
	C491.68,306.24,491.52,306.221,491.54,306.05z"/>
<path fill="#E7C281" d="M478.27,324c0.011-1.13-0.68-1.95-1.119-2.87c-0.301-0.63-0.29-0.96,0.55-0.85c0.35,0.05,0.77,0.1,1.06-0.05
	c1.59-0.801,1.26,0.149,1.07,1.09c-0.19,0.979-0.48,1.92-1.021,2.77c-0.14,0.23-0.47,0.61-0.52,0.58
	C477.94,324.49,478.36,324.22,478.27,324z"/>
<path fill="#E2BE7F" d="M510.24,313.11c-0.76-2.25,0.31-5.051,2.319-6.23c0.681-0.399,1.221-0.09,1.79,0.14
	c0.4,0.16,0.221,0.54,0.221,0.841c-0.011,0.35-0.25,0.46-0.57,0.46c-0.97,0.01-2.33-0.7-2.23,1.31c0.011,0.271-1.17,0.37-1.33,1.13
	c-0.06,0.271-0.109,0.54-0.159,0.811C510.62,312.09,510.73,312.61,510.24,313.11z"/>
<path fill="#E7C281" d="M510.24,313.11c0.01-0.521,0.029-1.03,0.04-1.551c0.6,0,1.439,0.7,1.58-0.59c0.029-0.27,0.189-0.2,0.38-0.02
	c0.66,0.62,0.55,0.88,0.06,1.53c-0.67,0.89-0.95,2.01-0.72,3.159c0.05,0.261,0.24,0.49,0.37,0.73c0.08,0.06,0.1,0.12,0.069,0.17
	c-0.029,0.05-0.06,0.08-0.09,0.08c-0.87-0.16-1.069-0.83-1.22-1.561C510.58,314.41,510.4,313.76,510.24,313.11z"/>
<path fill="#413C3C" d="M492.47,288.529c-0.25,0.721-0.279,1.57-0.029,2.451c0.14,0.49-0.391,0.689-0.73,0.77
	c-0.37,0.09-0.35-0.32-0.4-0.58c-0.17-0.939-0.25-1.9-0.54-2.79c-0.239-0.739,0.23-1.01,0.601-1.399
	c0.14-0.15,0.399-0.28,0.49-0.051C492.04,287.439,492.63,287.76,492.47,288.529z"/>
<path fill="#E8C381" d="M511.95,316.63c0.01-0.08,0.01-0.17,0.02-0.25c1.3-0.28,1.42-1.37,1.59-2.39
	c0.091-0.57,0.29-0.79,0.681-0.28c0.47,0.63,1.729,1.04,1.31,1.86c-0.439,0.85-1.5,1.41-2.66,1.239
	C512.57,316.76,512.26,316.69,511.95,316.63z"/>
<path fill="#E7C181" d="M470.72,319.07c0.061-0.181,0.12-0.431,0.15-0.431c0.689,0.08,1.46,0.03,2.06,0.33
	c0.53,0.271-0.08,0.75-0.199,1.13c-0.211,0.681-0.44,1.36-0.681,2.03c-0.12,0.34,0.23,0.76-0.189,1.04
	c-0.141-0.32-0.33-0.63-0.42-0.96C471.19,321.16,470.96,320.11,470.72,319.07z"/>
<path fill="#413B3B" d="M490.55,284.43c0.61-0.59,0.061-1.6,0.76-2.199c0.141-0.121,0.33-0.17,0.5-0.25
	c0.07,0.17,0.181,0.33,0.21,0.51c0.12,0.779,0.11,1.59,0.341,2.34c0.26,0.85,0.069,1.26-0.79,1.48
	c-1.101,0.27-0.62-0.601-0.771-1.011C490.71,285.029,490.65,284.76,490.55,284.43z"/>
<path fill="#3F4893" d="M462.98,245.39c-1.41,0.82-0.94,2.14-0.811,3.32c0.061,0.57,0.38,1.1,0.59,1.66
	c-0.42-0.13-0.83-0.25-1.25-0.38c-0.41-1.41-0.66-2.83-0.22-4.3c0.17-0.55,0.38-0.94,0.979-1.02
	C462.81,244.6,463.05,244.84,462.98,245.39z"/>
<path fill="#C9BCBD" d="M453.37,257.16c-0.04-0.71-0.07-1.43-0.11-2.14c-0.01-0.22-0.189-0.53,0.12-0.6
	c0.16-0.04,0.41,0.19,0.57,0.35c0.39,0.36,0.38,0.88,0.359,1.34c-0.04,1.27-0.14,2.54-0.239,3.8c-0.021,0.2,0.13,0.52-0.23,0.56
	c-0.38,0.03-0.43-0.27-0.439-0.56c0-0.91,0-1.83,0-2.74C453.4,257.16,453.39,257.16,453.37,257.16z"/>
<path fill="#413C3B" d="M447.38,293.98c-0.01,0.619-0.1,1.06-0.51,1.31c-0.24,0.149-0.45,0.61-0.79,0.31
	c-0.28-0.24-0.17-0.64,0.11-0.84c0.409-0.289,0.29-0.58,0.119-0.92c-0.1-0.21-0.189-0.449-0.229-0.68
	c-0.141-0.77-0.5-1.971,0.189-2.15c0.62-0.16,0.811,1.07,0.881,1.84C447.21,293.29,447.33,293.71,447.38,293.98z"/>
<path fill="#DAB87D" d="M472.94,315.23c0.3,0.909,0.1,1.649-1.29,1.64c-0.471-0.01-0.57-0.16-0.46-0.55
	c0.25-0.87,0.449-1.771,0.989-2.53c0.17-0.24,0.33-0.68,0.66-0.57c0.351,0.12,0.13,0.55,0.16,0.84
	C473.02,314.38,472.97,314.69,472.94,315.23z"/>
<path fill="#81725C" d="M519.4,301.561c1.39-0.031,2.569,1.33,2.34,2.729c-0.03,0.17-0.18,0.33-0.28,0.489
	c-0.1-0.119-0.229-0.229-0.29-0.369c-0.46-1.061-1-2.02-2.4-1.93c-0.239,0.02-0.359-0.16-0.31-0.4
	C518.57,301.561,518.99,301.57,519.4,301.561z"/>
<path fill="#DEBC7F" d="M479.98,318.47c-0.021,0.23,0.1,0.63-0.41,0.351c-0.511-0.28-1.471-0.54-1.471-0.811
	c0.011-0.88,0.301-1.779,0.61-2.63c0.14-0.36,0.37,0.021,0.46,0.2C479.64,316.49,479.78,317.48,479.98,318.47z"/>
<path fill="#CABDBE" d="M485.49,237.31c-0.03,0.08-0.061,0.17-0.101,0.27c-0.1-0.11-0.239-0.21-0.3-0.34
	c-0.31-0.73-0.57-1.47-0.89-2.2c-0.22-0.51-0.55-0.97-1.01-1.3c-0.341-0.24-0.83-0.38-0.57-0.97c0.06-0.13,0.17-0.37,0.21-0.36
	c0.46,0.11,0.95,0.18,1.229,0.62c0.49,0.78,0.801,1.63,1.011,2.52C485.22,236.13,485.35,236.71,485.49,237.31z"/>
<path fill="#F5F5F5" d="M479.86,299.96c-0.36,0.431-0.851,0.61-1.311,0.63c-0.59,0.03-1.09-0.27-1.14-0.96
	c-0.05-0.89,0.87-0.909,1.28-1.399C479.07,298.779,479.44,299.33,479.86,299.96z"/>
<path fill="#3A3636" d="M477.43,287.939c-0.06-0.029-0.229-0.08-0.229-0.129c0-0.15,0.02-0.34,0.109-0.44
	c1.021-1.05,2.061-2.091,3.11-3.12c0.09-0.08,0.27-0.07,0.41-0.1c0.01,0.109,0.06,0.25,0.01,0.31c-0.97,1.19-1.689,2.62-3.14,3.351
	C477.63,287.859,477.55,287.891,477.43,287.939z"/>
<path fill="#050403" d="M513.35,283.8c-0.6-0.67-0.08-1.399,0.11-1.94c0.28-0.81,0.33-1.589,0.4-2.399c0.71,0.11,0.68,0.8,0.96,1.25
	c-0.58,0.59-0.32,1.351-0.42,2.04C514.41,283.46,514.25,284,513.35,283.8z"/>
<path fill="#403C3C" d="M447.36,286c0.27-1.43,0.399-2.82,0.939-4.12c0.07-0.18,0.11-0.43,0.37-0.319
	c0.09,0.029,0.14,0.289,0.12,0.43c-0.24,1.369-0.5,2.73-0.78,4.09c-0.05,0.25-0.29,0.68-0.37,0.66
	C447.18,286.641,447.54,286.189,447.36,286z"/>
<path fill="#D7B67D" d="M475.68,315.07c-0.029,0.43,0.021,1.109-0.38,1.149c-0.54,0.061-0.24-0.6-0.35-0.93
	c-0.23-0.63-0.44-1.271-0.601-1.92c-0.06-0.26-0.659-0.63,0.021-0.82c0.42-0.109,0.92-0.06,1.03,0.521
	C475.52,313.73,475.59,314.41,475.68,315.07z"/>
<path fill="#110F0D" d="M482.95,289.311c0.21-1.521,0.43-3.051,0.64-4.57c0.67,0.07,0.46,0.619,0.55,1l0.011-0.01
	c-0.37,0.459-0.04,1.039-0.24,1.529c0.01,0.061,0,0.1-0.061,0.131c-0.01,0.569,0.25,1.139,0.03,1.709
	C483.69,289.62,483.43,289.98,482.95,289.311z"/>
<path fill="#83745E" d="M500.6,297.42c-0.1,0.23,0.271,0.939-0.569,0.83c-0.44-0.061-1.13,0.109-1.03-0.74
	c0.06-0.59,0.19-1.05,0.97-1.029C500.58,296.5,500.71,296.77,500.6,297.42z"/>
<path fill="#080704" d="M513.82,290.05c-0.38-0.89-0.351-1.78,0.04-2.67c0.529-0.229,0.6,0.09,0.62,0.511
	c0.02,0.469-0.101,0.959,0.09,1.42c0.04,0.06,0.06,0.119,0.05,0.189C514.47,289.859,514.2,290.029,513.82,290.05z"/>
<path fill="#CEC1C2" d="M513.66,296.26c0.43-0.779,0.07-1.63,0.22-2.43c0.11,1.54,0.23,3.07,0.34,4.609
	c0.011,0.09-0.069,0.19-0.1,0.291c-0.09-0.11-0.24-0.221-0.25-0.34C513.78,297.68,513.72,296.971,513.66,296.26z"/>
<path fill="#030301" d="M483.18,299.141c-0.21-0.961-0.189-1.91-0.02-2.871c0.96-0.069,0.68,0.471,0.47,0.98
	c0,0.311-0.01,0.63-0.01,0.939C483.55,298.54,483.82,299.05,483.18,299.141z"/>
<path fill="#9A9999" d="M487.51,245.59c-0.05,0.18-0.1,0.36-0.149,0.53c-0.551-0.61-0.42-1.41-0.62-2.13
	c-0.03-0.12,0.06-0.27,0.1-0.4C487.37,244.15,487.27,244.92,487.51,245.59z"/>
<path fill="#474343" d="M462.73,278.79c-0.271,0.04-0.19,0.28-0.261,0.44c-0.39-0.35-0.13-0.82-0.25-1.23
	c-0.06-0.21-0.26-0.49,0.061-0.6c0.18-0.06,0.47,0.04,0.649,0.15c0.44,0.29,0.04,0.43-0.149,0.59
	C462.53,278.35,462.72,278.57,462.73,278.79z"/>
<path fill="#080602" d="M511.19,258.35c0,0.08,0,0.16,0,0.24c-1,0.47-0.5-0.48-0.71-0.75c0.02-0.15,0.029-0.3,0.05-0.44
	c0.12-0.23,0.229-0.46,0.35-0.69c0.03,0.25,0.07,0.5,0.09,0.76C511,257.76,510.93,258.09,511.19,258.35z"/>
<path fill="#515150" d="M441.59,309.01c-0.06-0.1-0.16-0.2-0.17-0.3c-0.08-0.69-0.14-1.39-0.2-2.08c0.55,0.53,0.32,1.3,0.63,1.91
	C441.69,308.65,441.81,308.92,441.59,309.01z"/>
<path fill="#5F5F5F" d="M444.94,302.55c-0.32-0.04-0.311-0.2-0.261-0.35c0.16-0.5,0.311-1.011,0.54-1.49
	c0.04-0.069,0.16,0.181,0.12,0.319C445.2,301.55,445.07,302.061,444.94,302.55z"/>
<path fill="#464242" d="M473.19,322.4c-0.061-0.551-0.15-0.761-0.08-0.891c0.18-0.359,0.029-0.89,0.56-1.06
	c0.021,0.18,0.11,0.39,0.061,0.55C473.63,321.37,473.47,321.71,473.19,322.4z"/>
<path fill="#060402" d="M520.13,308.77c0.07-0.09,0.15-0.17,0.22-0.26c0.221-0.17,0.29-0.77,0.75-0.27l-0.01-0.01
	c-0.05,0.409-0.25,0.75-0.64,0.89C520.2,309.21,520.15,308.97,520.13,308.77z"/>
<path fill="#90878A" d="M447.39,265.06c0,0.17,0.011,0.35,0.011,0.52c-0.24,0.28-0.471,0.58-0.9,0.55
	C446.54,265.57,447,265.35,447.39,265.06z"/>
<path fill="#BEBEBE" d="M515.67,295.49c-0.04-0.1-0.12-0.19-0.1-0.25c0.1-0.41,0.37-0.68,0.76-0.811c0.05-0.02,0.18,0.18,0.27,0.28
	C516.3,294.95,516.01,295.2,515.67,295.49z"/>
<path fill="#445199" d="M484.39,278.29c0.32,0.78,0.311,1.57,0,2.351C484.39,279.86,484.39,279.07,484.39,278.29z"/>
<path fill="#90878A" d="M450.51,264.3c0.79-0.33,1.59-0.33,2.38-0.01C452.1,264.3,451.31,264.3,450.51,264.3z"/>
<path fill="#050301" d="M495.84,306.311c0-0.07,0.021-0.131,0.04-0.19c0.33,0.021,0.62,0.12,0.62,0.5c0,0.101-0.19,0.3-0.27,0.29
	C495.89,306.87,495.89,306.561,495.84,306.311z"/>
<path fill="#9F9E9E" d="M485.4,238.25c0.369,0.17,0.409,0.45,0.399,0.72c0,0.16-0.08,0.32-0.13,0.48c-0.13-0.23-0.29-0.45-0.37-0.7
	C485.26,238.62,485.36,238.43,485.4,238.25z"/>
<path fill="#A4957B" d="M443.03,282.609c-0.141,0.08-0.28,0.15-0.42,0.23c0.02-0.38-0.261-0.99,0.22-1.07
	C443.2,281.71,443.02,282.3,443.03,282.609z"/>
<path fill="#464645" d="M448.35,300.529c-0.159-0.389-0.279-0.659-0.369-0.939c-0.051-0.14,0-0.38,0.18-0.199
	c0.2,0.199,0.29,0.52,0.399,0.799C448.58,300.24,448.47,300.34,448.35,300.529z"/>
<path fill="#848383" d="M477.18,322.84c0.04,0.3,0.061,0.59-0.109,0.45c-0.24-0.2-0.36-0.57-0.5-0.88
	c-0.051-0.101-0.12-0.41,0.1-0.28C476.93,322.31,477.07,322.68,477.18,322.84z"/>
<path fill="#90878A" d="M452.96,263.6c-0.66,0.01-1.33,0.01-1.99,0.02C451.63,263.3,452.29,263.31,452.96,263.6z"/>
<path fill="#626262" d="M519.23,303.27c0.239,0.15,0.56,0.08,0.55,0.42c0,0.031-0.271,0.101-0.391,0.061
	c-0.18-0.05-0.52,0.09-0.5-0.279C518.9,303.391,519.13,303.33,519.23,303.27z"/>
<path fill="#4D4C4C" d="M482.42,311.35c-0.14,0.07-0.28,0.17-0.3,0.15c-0.101-0.1-0.18-0.23-0.24-0.36
	c-0.01-0.02,0.18-0.159,0.2-0.149C482.19,311.08,482.28,311.2,482.42,311.35z"/>
<path fill="#50504F" d="M474.04,316.35c-0.11-0.22-0.21-0.34-0.23-0.47c-0.02-0.14,0.021-0.34,0.23-0.22
	c0.1,0.06,0.15,0.25,0.18,0.39C474.23,316.11,474.14,316.19,474.04,316.35z"/>
<path fill="#A5A4A4" d="M481.17,301.109c0.061-0.149,0.12-0.289,0.18-0.43c0.051,0.19,0.131,0.37,0.141,0.561
	c0,0.14-0.08,0.289-0.13,0.439C481.29,301.49,481.23,301.311,481.17,301.109z"/>
<path fill="#3E4792" d="M487.66,258.56c-0.29-0.37-0.271-0.75-0.03-1.14C487.64,257.81,487.65,258.19,487.66,258.56z"/>
<path fill="#CBCBCB" d="M472.35,317.53c0.101,0.069,0.21,0.14,0.32,0.22c-0.1,0.05-0.21,0.15-0.3,0.14
	c-0.13-0.01-0.26-0.1-0.39-0.159C472.08,317.68,472.18,317.62,472.35,317.53z"/>
<path fill="#3E4792" d="M486.99,252.59c0.06,0,0.12-0.01,0.18-0.01c0.01,0.31,0.021,0.63,0.021,0.94
	c-0.07-0.15-0.141-0.31-0.21-0.46C486.85,252.91,486.85,252.75,486.99,252.59z"/>
<path fill="#6D6D6D" d="M445.88,318.42c0.101,0.05,0.22,0.08,0.22,0.11c-0.01,0.09-0.06,0.17-0.09,0.26
	c-0.06-0.03-0.18-0.05-0.18-0.08C445.82,318.61,445.86,318.52,445.88,318.42z"/>
<path fill="#3F4893" d="M466.32,239.22c-0.07,0.06-0.15,0.11-0.221,0.17c-0.239,0.15-0.479,0.16-0.71-0.02c0-0.05,0-0.11,0-0.16
	C465.7,239.22,466.01,239.22,466.32,239.22z"/>
<path fill="#3F4892" d="M468.31,263.31c0.32-0.23,0.631-0.24,0.91,0.06C468.91,263.35,468.61,263.33,468.31,263.31z"/>
<path fill="#3E4792" d="M487.4,255.19c-0.24-0.29-0.24-0.59-0.021-0.88C487.39,254.61,487.4,254.9,487.4,255.19z"/>
<path fill="#908F8F" d="M441.59,309.01c0.08-0.16,0.17-0.319,0.25-0.47c0.03,0.15,0.07,0.29,0.101,0.44
	c-0.101,0.149-0.19,0.3-0.29,0.439C441.63,309.28,441.61,309.14,441.59,309.01z"/>
<path fill="#3F4892" d="M479.53,266.56c0.09-0.1,0.18-0.2,0.26-0.3c0.06,0,0.12,0,0.18,0.01C480,266.63,479.93,266.85,479.53,266.56
	z"/>
<path fill="#47559C" d="M507.14,273c0.261-0.01,0.521-0.05,0.71,0.2C507.59,273.22,507.33,273.24,507.14,273z"/>
<path fill="#3E4792" d="M476.94,245.4c0.239,0.19,0.199,0.46,0.189,0.71C476.9,245.92,476.9,245.66,476.94,245.4z"/>
<path fill="#6D6C6C" d="M516.66,313.27c-0.09,0.051-0.18,0.101-0.271,0.15c-0.029-0.06-0.1-0.16-0.08-0.18
	c0.061-0.07,0.15-0.11,0.23-0.15C516.55,313.09,516.6,313.19,516.66,313.27z"/>
<path fill="#3E4792" d="M487.43,256.17c-0.25-0.22-0.26-0.45-0.02-0.68C487.42,255.72,487.42,255.94,487.43,256.17z"/>
<path fill="#3F4892" d="M478.33,266.28c0.26-0.01,0.54-0.05,0.729,0.2C478.79,266.5,478.52,266.52,478.33,266.28z"/>
<path fill="#90878A" d="M450.26,263.69c-0.16,0.06-0.33,0.11-0.49,0.17C449.93,263.8,450.09,263.74,450.26,263.69z"/>
<path fill="#435098" d="M502.32,272.8c-0.17,0.2-0.311,0.17-0.45-0.03C502.02,272.78,502.17,272.79,502.32,272.8z"/>
<path fill="#45529A" d="M507.16,263.16c-0.01-0.05-0.01-0.1-0.01-0.15c0.159,0.05,0.319,0.09,0.479,0.14
	C507.47,263.15,507.32,263.15,507.16,263.16z"/>
<path fill="#3B4390" d="M504.76,272.51c0.141,0.05,0.29,0.1,0.431,0.15C505.05,272.61,504.9,272.56,504.76,272.51z"/>
<path fill="#3F4893" d="M460.82,249.71c0,0.06,0,0.12,0,0.18c-0.181-0.06-0.351-0.11-0.53-0.17
	C460.47,249.71,460.65,249.71,460.82,249.71z"/>
<path fill="#9B9A9A" d="M491.54,306.05c0.07,0.091,0.15,0.181,0.22,0.28c-0.109-0.01-0.22-0.01-0.33-0.02
	C491.46,306.23,491.5,306.141,491.54,306.05z"/>
<path fill="#45529A" d="M506.22,262.89c-0.16-0.05-0.319-0.09-0.479-0.14C505.9,262.79,506.06,262.84,506.22,262.89z"/>
<path fill="#424D96" d="M461.53,256c-0.16,0.2-0.311,0.19-0.45-0.02C461.23,255.98,461.38,255.99,461.53,256z"/>
<path fill="#90878A" d="M448.34,265.05c0.16-0.08,0.32-0.15,0.48-0.23C448.66,264.9,448.5,264.98,448.34,265.05z"/>
<path fill="#90878A" d="M449.55,264.55c0.17-0.06,0.34-0.12,0.521-0.18C449.9,264.43,449.72,264.49,449.55,264.55z"/>
<path fill="#3F4892" d="M476.67,265.79c0.15,0.06,0.3,0.13,0.45,0.19C476.98,265.91,476.83,265.85,476.67,265.79z"/>
<path fill="#3F4892" d="M477.4,266.02c0.149,0.06,0.3,0.13,0.439,0.19C477.7,266.15,477.55,266.09,477.4,266.02z"/>
<path fill="#90878A" d="M449.54,263.9c-0.16,0.07-0.33,0.13-0.49,0.2C449.22,264.03,449.38,263.97,449.54,263.9z"/>
<path fill="#45529A" d="M491.08,268.91c0.15,0.07,0.31,0.14,0.46,0.2C491.38,269.04,491.23,268.98,491.08,268.91z"/>
<path fill="#90878A" d="M447.63,264.86c-0.08,0.07-0.16,0.14-0.24,0.21C447.46,265,447.54,264.93,447.63,264.86z"/>
<path fill="#46539C" d="M458.98,266.52c0.06,0.07,0.109,0.14,0.17,0.21C459.09,266.66,459.03,266.59,458.98,266.52z"/>
<path fill="#47559C" d="M505.48,272.69c0.069,0,0.14,0.01,0.21,0.01l-0.11,0.01L505.48,272.69z"/>
<path fill="#90878A" d="M447.63,265.48c0.08-0.06,0.15-0.11,0.23-0.17C447.79,265.36,447.71,265.42,447.63,265.48z"/>
<path fill="#3B4390" d="M493.72,269.87c0.07,0.05,0.13,0.1,0.2,0.14C493.85,269.96,493.78,269.92,493.72,269.87z"/>
<path fill="#445199" d="M485.78,275.14c-0.08-0.07-0.15-0.15-0.23-0.22C485.62,275,485.7,275.07,485.78,275.14z"/>
<path fill="#3F4892" d="M476.13,265.57c0.09,0.06,0.19,0.11,0.28,0.17C476.32,265.68,476.23,265.63,476.13,265.57z"/>
<path fill="#90878A" d="M448.34,264.4c-0.09,0.06-0.17,0.12-0.26,0.18C448.17,264.52,448.26,264.46,448.34,264.4z"/>
<path fill="#445199" d="M486.04,275.37c-0.08-0.07-0.17-0.15-0.25-0.22C485.87,275.23,485.96,275.3,486.04,275.37z"/>
<path fill="#90878A" d="M448.11,265.21c0.069-0.05,0.14-0.1,0.22-0.15C448.26,265.11,448.19,265.16,448.11,265.21z"/>
<path fill="#435098" d="M501.13,272.56c-0.07,0-0.14-0.01-0.21-0.01C500.99,272.53,501.06,272.53,501.13,272.56z"/>
<path fill="#424D96" d="M464.69,256.65c-0.08-0.04-0.16-0.09-0.24-0.13C464.53,256.56,464.61,256.6,464.69,256.65z"/>
<path fill="#3E4792" d="M476.76,244.93c0.05,0.07,0.09,0.15,0.141,0.22C476.85,245.08,476.81,245,476.76,244.93z"/>
<path fill="#90878A" d="M448.82,264.16c-0.09,0.06-0.19,0.11-0.28,0.17C448.63,264.27,448.73,264.22,448.82,264.16z"/>
<path fill="#90878A" d="M449.07,264.76c0.09-0.05,0.18-0.11,0.27-0.16C449.25,264.65,449.16,264.71,449.07,264.76z"/>
<path fill="#242423" d="M454.5,301.68c0.13-0.529-0.1-1.16,0.6-0.939c0.881,0.279,2.061,0.23,2.271,1.449
	c0.07,0.41-0.13,1.181-0.86,0.99C455.63,302.95,454.81,302.51,454.5,301.68z"/>
<path fill="#252423" d="M456.74,292.439c-0.63-0.029-1.57,0.09-1.48-0.619c0.141-1.211,1.431-1.12,2.3-1.211
	c0.761-0.079,0.46,0.931,0.48,1.23C458.09,292.77,457.18,292.29,456.74,292.439z"/>
<path fill="#353989" d="M457.47,248.27c-0.779-1.05-0.05-2.11,0.04-3.14c0.181-2.23,1.59-3.76,3.32-5.02
	c-0.811,1.35-2.26,2.31-2.71,3.84C457.71,245.33,457.67,246.82,457.47,248.27z"/>
<path fill="#353989" d="M472.5,239.65c-0.21-0.04-0.4-0.08-0.58-0.11c0.09-0.26,0.311-0.15,0.47-0.14c0.23,0.01,0.45,0.08,0.67,0.12
	C472.87,239.56,472.68,239.61,472.5,239.65z"/>
<path fill="#353988" d="M465.39,239.38c0.24,0.01,0.48,0.01,0.71,0.02c-0.229,0.29-0.55,0.24-0.85,0.22
	c-0.17-0.01-0.43,0.16-0.53-0.15C464.94,239.44,465.17,239.41,465.39,239.38z"/>
<path fill="#353989" d="M486.67,250.47c-0.06-0.08-0.14-0.14-0.13-0.18c0.02-0.12,0.08-0.23,0.12-0.35
	c0.03,0.06,0.08,0.13,0.08,0.19C486.73,250.24,486.69,250.34,486.67,250.47z"/>
<path fill="#353989" d="M486.99,252.59c0,0.16,0,0.31,0,0.47C486.75,252.91,486.74,252.75,486.99,252.59z"/>
<path fill="#353989" d="M460.83,240.11c0.08-0.08,0.16-0.16,0.24-0.24C460.99,239.95,460.91,240.03,460.83,240.11z"/>
<path fill="#252524" d="M483.64,297.25c-0.08-0.359,0.19-0.9-0.47-0.98c-0.07-2.319-0.14-4.64-0.21-6.959
	c0.55,0.33,0.66,0.06,0.69-0.451c0.029-0.489-0.19-1.029,0.21-1.469c0.1,0.279,0.279,0.18,0.47,0.119
	c2.229-0.699,2.32-0.65,2.92,1.641c0.59,2.27,0.72,4.55,0.26,6.869c-0.239,1.211-0.67,2-2.109,1.551
	C484.83,297.391,484.22,297.35,483.64,297.25z"/>
<path fill="#252524" d="M483.92,287.26c0.03-0.52-0.29-1.09,0.24-1.529C483.97,286.221,484.27,286.79,483.92,287.26z"/>
<path fill="#4B5BA1" d="M463.22,244.44c0.32-1.49,2.92-2.89,4.311-2.4c0.56,0.2,0.12,0.74,0.489,0.94
	c0.631,0.07,0.721,0.43,0.511,0.95c-1.19-0.74-2.37-0.61-3.58-0.02c-1.15,0.56-0.82,1.54-0.79,2.45
	C463.4,245.95,463.2,245.25,463.22,244.44z"/>
<path fill="#272728" d="M468.53,243.93c-0.061-0.38-0.221-0.7-0.511-0.95c0.091-0.23,0.28-0.25,0.49-0.24l0.01,0.01
	c0.07,0.09,0.16,0.16,0.221,0.26c0.33,0.55,0.649,1.1,0.979,1.65c0.53,1.63,0.95,3.28,0.971,5c0,0.27,0.21,0.75-0.221,0.78
	c-0.42,0.03-0.51-0.43-0.5-0.8c0.05-1.74-0.489-3.36-1.04-4.98C468.83,244.4,468.66,244.17,468.53,243.93z"/>
<path fill="#262728" d="M463.22,244.44c0.32,0.64,0.63,1.29,0.95,1.93c0.17,0.95,0.35,1.9,0.53,2.85c-0.73,0.16-0.7-0.47-0.811-0.85
	c-0.279-0.91-0.479-1.84-0.72-2.76c-0.04-0.09-0.1-0.16-0.17-0.22l-0.01-0.01c-0.12-0.36-0.391-0.57-0.71-0.72
	c-0.09-0.17-0.19-0.33-0.28-0.5c-0.03-0.21,0.05-0.3,0.27-0.26c0.08,0.02,0.16,0.04,0.25,0.06
	C462.74,244.12,462.98,244.28,463.22,244.44z"/>
<path fill="#262624" d="M452.58,267.26c0,0.3-1.88,1.37-2.09,1.25c-0.19-0.11-0.271-0.29-0.15-0.5c0.44-0.71,1.12-0.96,1.91-0.96
	C452.37,267.05,452.49,267.2,452.58,267.26z"/>
<path fill="#3F4893" d="M462.25,243.91c-0.09,0.09-0.18,0.17-0.27,0.26c-0.04-0.1-0.141-0.24-0.101-0.29
	C462,243.69,462.14,243.77,462.25,243.91z"/>
<path fill="#252423" d="M514.56,289.311c-0.56-0.521,0.25-1.551-0.71-1.92c-0.529-1.141-0.01-2.431-0.5-3.58
	c0.61-0.101,0.75-0.66,1.04-1.061c0.08-0.01,0.16-0.02,0.24-0.02c1.09,0.039,2.66-0.851,3.16-0.051c0.78,1.24,1.08,2.891,1.16,4.461
	c0.029,0.6-0.141,0.729-0.75,0.59c-0.61-0.141-1.271-0.041-1.9-0.121C514.98,287.45,514.28,287.859,514.56,289.311z"/>
<path fill="#292827" d="M496.6,294.721c-0.01,0.139,0.011,0.26-0.029,0.289c-0.57,0.461-1.04-0.06-1.46-0.26
	c-0.62-0.29-1.54-0.561-1.36-1.46c0.07-0.36,0.74-0.69,1.37-0.271C495.81,293.471,496.46,293.891,496.6,294.721z"/>
<path fill="#586FB1" d="M490.1,272.51c-0.279-0.71,0.221-0.76,0.67-0.72c2.061,0.18,3.95,0.89,5.61,2.1
	c0.601,0.44,0.93,1.16,0.54,1.91c-0.25,0.48-0.65,0.97-1.33,0.53c-1.32-1.02-2.88-1.62-4.27-2.52
	C490.82,273.49,490.17,273.27,490.1,272.51z"/>
<path fill="#252526" d="M490.1,272.51c1.11,0.98,2.36,1.73,3.7,2.33c0.74,0.32,1.41,0.73,1.78,1.49c-0.22-0.01-0.44-0.02-0.66-0.03
	c-2.35-1.23-4.47-2.87-6.979-3.8c-0.16-1.57,0.909-0.04,1.199-0.48h0.011c0.119,0.15,0.34,0.1,0.47,0.23
	C489.78,272.34,489.94,272.43,490.1,272.51z"/>
<path fill="#4C5DA2" d="M489.62,272.25c-0.16-0.08-0.32-0.15-0.47-0.23C489.31,272.1,489.47,272.18,489.62,272.25z"/>
<path fill="#3F4893" d="M468.73,243.01c-0.07-0.09-0.141-0.18-0.221-0.26C468.58,242.84,468.66,242.92,468.73,243.01z"/>
<path fill="#3F4893" d="M462.99,245.4c0.06,0.07,0.12,0.14,0.17,0.22C463.1,245.54,463.04,245.47,462.99,245.4z"/>
<path fill="#EDC683" d="M487.03,293.02c-0.08,0.75-0.09,1.521-0.261,2.25c-0.13,0.551,0.211,1.521-0.93,1.431
	c-0.979-0.08-1.83-0.2-1.83-1.601c0-1.92-0.09-3.82,0.24-5.729c0.12-0.7,0.34-1.261,1.11-1.341c0.88-0.09,0.859,0.711,1.05,1.211
	C486.88,290.46,487.01,291.73,487.03,293.02z"/>
</svg>
