<?xml version="1.0" encoding="UTF-8" standalone="no"?>
<!-- Created with Inkscape (http://www.inkscape.org/) -->

<svg
   xmlns:dc="http://purl.org/dc/elements/1.1/"
   xmlns:cc="http://creativecommons.org/ns#"
   xmlns:rdf="http://www.w3.org/1999/02/22-rdf-syntax-ns#"
   xmlns:svg="http://www.w3.org/2000/svg"
   xmlns="http://www.w3.org/2000/svg"
   version="1.1"
   width="76.276199mm"
   height="45.923199mm"
   viewBox="0 0 76.2762 45.9232"
   id="svg2"
   xml:space="preserve"
   style="fill-rule:evenodd"><metadata
     id="metadata73"><rdf:RDF><cc:Work
         rdf:about=""><dc:format>image/svg+xml</dc:format><dc:type
           rdf:resource="http://purl.org/dc/dcmitype/StillImage" /><dc:title></dc:title></cc:Work></rdf:RDF></metadata><defs
     id="defs4"><style
       type="text/css"
       id="style6" /></defs><g
     id="Layer_x0020_1"><metadata
       id="CorelCorpID_0Corel-Layer" /><polygon
       points="50.8762,0.0381 50.8762,45.8851 25.4762,45.8851 25.4762,0.0381 "
       id="polygon10"
       style="fill:#ffffff;stroke:#1f1a17;stroke-width:0.0762" /><polygon
       points="25.5049,0.0381 25.5049,45.8851 0.1049,45.8851 0.1049,0.0381 "
       id="polygon12"
       style="fill:#153a85" /><polygon
       points="76.2475,0.0381 76.2475,45.8851 50.8475,45.8851 50.8475,0.0381 "
       id="polygon14"
       style="fill:#da242a" /><path
       d="M 36.8681,18.9992 C 36.5379,19.2532 36.2585,19.431 36.1061,19.812 C 35.9283,20.1676 36.0553,20.828 36.7157,20.1676 C 37.3507,19.5326 37.3507,19.5326 37.4523,19.431 C 37.5539,19.3294 37.7825,19.1516 38.0873,18.8214 C 38.3921,18.5166 38.1889,18.161 37.6809,18.415 C 37.1475,18.6944 36.8681,18.9992 36.8681,18.9992 z"
       id="path16"
       style="fill:#eacd00;stroke:#1f1a17;stroke-width:0.0762" /><path
       d="M 39.1795,19.1008 C 39.4843,19.3802 39.7383,19.5326 39.8907,19.9136 C 40.0685,20.2946 39.9669,20.9296 39.3573,20.2946 C 38.6715,19.6342 38.6715,19.6342 38.5699,19.5326 C 38.4683,19.431 38.2651,19.2532 37.9603,18.9484 C 37.6301,18.6182 37.8587,18.2626 38.3667,18.5166 C 38.9001,18.796 39.1795,19.1008 39.1795,19.1008 z"
       id="path18"
       style="fill:#eacd00;stroke:#1f1a17;stroke-width:0.0762" /><path
       d="M 36.0553,19.3294 C 36.7157,19.3294 37.2491,18.796 37.2491,18.161 C 37.2491,17.4752 36.7157,16.9418 36.0553,16.9418 C 35.3949,16.9418 34.8615,17.4752 34.8615,18.161 C 34.8615,18.796 35.3949,19.3294 36.0553,19.3294 z"
       id="path20"
       style="fill:#eacd00;stroke:#1f1a17;stroke-width:0.0762" /><path
       d="M 36.0553,18.796 C 36.4109,18.796 36.7157,18.4912 36.7157,18.161 C 36.7157,17.78 36.4109,17.4752 36.0553,17.4752 C 35.6997,17.4752 35.3949,17.78 35.3949,18.161 C 35.3949,18.4912 35.6997,18.796 36.0553,18.796 z"
       id="path22"
       style="fill:#ffffff;stroke:#1f1a17;stroke-width:0.0762" /><path
       d="M 39.9669,19.431 C 39.3319,19.431 38.7985,18.8976 38.7985,18.2626 C 38.7985,17.6022 39.3319,17.0688 39.9669,17.0688 C 40.6019,17.0688 41.1353,17.6022 41.1353,18.2626 C 41.1353,18.8976 40.6019,19.431 39.9669,19.431 z"
       id="path24"
       style="fill:#eacd00;stroke:#1f1a17;stroke-width:0.0762" /><path
       d="M 39.9669,18.8976 C 39.6113,18.8976 39.3573,18.5928 39.3573,18.2626 C 39.3573,17.8816 39.6113,17.6022 39.9669,17.6022 C 40.3225,17.6022 40.6019,17.8816 40.6019,18.2626 C 40.6019,18.5928 40.3225,18.8976 39.9669,18.8976 z"
       id="path26"
       style="fill:#ffffff;stroke:#1f1a17;stroke-width:0.0762" /><path
       d="M 46.2153,19.812 C 46.2153,19.812 45.6565,20.574 44.4373,20.574 C 43.2689,20.574 41.1099,20.574 41.1099,20.574 C 41.1099,20.574 39.9923,19.4818 41.7195,19.7104 C 42.8371,19.8374 46.2153,19.812 46.2153,19.812 z"
       id="path28"
       style="fill:#eacd00;stroke:#1f1a17;stroke-width:0.0762" /><path
       d="M 43.2181,21.1328 C 43.1165,21.3614 42.7863,21.8186 42.1005,21.8186 C 41.3893,21.8186 41.0591,21.5392 41.0591,21.5392 L 41.1099,21.209 L 43.2181,21.1328 z"
       id="path30"
       style="fill:#eacd00;stroke:#1f1a17;stroke-width:0.0762" /><path
       d="M 44.4373,20.574 C 44.4373,20.574 44.3357,21.1328 43.5483,21.1328 C 42.7355,21.1328 41.1099,21.209 41.1099,21.209 L 41.1099,20.574 L 44.4373,20.574 z"
       id="path32"
       style="fill:#eacd00;stroke:#1f1a17;stroke-width:0.0762" /><path
       d="M 32.5501,21.209 C 32.6517,21.4122 32.9819,21.844 33.6931,21.844 C 34.3789,21.844 34.7091,21.59 34.7091,21.59 L 34.6583,21.2598 L 32.5501,21.209 z"
       id="path34"
       style="fill:#eacd00;stroke:#1f1a17;stroke-width:0.0762" /><path
       d="M 29.5275,19.8628 C 29.5275,19.8628 30.1371,20.5994 31.3055,20.5994 C 32.4993,20.5994 34.6583,20.5994 34.6583,20.5994 C 34.6583,20.5994 35.1917,19.812 34.0487,19.7612 C 32.9311,19.7104 29.5275,19.8628 29.5275,19.8628 z"
       id="path36"
       style="fill:#eacd00;stroke:#1f1a17;stroke-width:0.0762" /><path
       d="M 31.3055,20.5994 C 31.3055,20.5994 31.4325,21.209 32.2453,21.209 C 33.0581,21.209 34.6583,21.2598 34.6583,21.2598 L 34.6583,20.5994 L 31.3055,20.5994 z"
       id="path38"
       style="fill:#eacd00;stroke:#1f1a17;stroke-width:0.0762" /><polygon
       points="76.2381,0.0381 76.2381,45.8851 0.0381,45.8851 0.0381,0.0381 "
       id="polygon40"
       style="fill:none;stroke:#1f1a17;stroke-width:0.0762" /><path
       d="M 27.9273,19.1516 C 27.9273,19.1516 33.6931,19.1008 34.0233,19.1008 C 34.3281,19.1008 35.3695,19.05 35.4965,18.9992 C 35.6743,18.9484 36.2077,19.1008 36.1569,19.5326 C 36.1061,19.9644 35.7759,20.0406 35.7759,20.5994 C 35.7759,21.209 35.7251,23.0124 38.0365,23.0124 C 40.3225,23.0124 40.0939,20.7772 39.9923,20.5994 C 39.8907,20.4724 39.3573,20.0406 39.3065,19.5834 C 39.2557,19.1516 39.5351,18.9992 39.9415,18.9992 C 40.3479,18.9992 40.8559,19.2278 41.3385,19.2278 C 41.8211,19.2278 48.0695,19.2278 48.0695,19.2278 C 48.0695,19.2278 47.8917,19.812 47.0281,19.812 C 46.1899,19.812 41.9989,19.7104 41.6687,19.7612 C 41.3385,19.812 40.6781,19.5834 41.0083,20.2946 C 41.3385,21.0058 41.4655,23.8506 37.9857,23.8506 C 34.4805,23.8506 34.4805,20.6756 34.7091,20.3962 C 34.9377,20.1422 34.7599,19.812 33.7947,19.812 C 32.8295,19.812 29.6037,19.8628 29.1719,19.8628 C 28.7147,19.8628 28.3591,19.8628 27.9273,19.1516 z"
       id="path42"
       style="fill:#eacd00;stroke:#1f1a17;stroke-width:0.0762" /><path
       d="M 37.2491,19.812 C 37.2491,19.812 40.0431,23.1394 40.2463,23.4188 C 40.4749,23.6728 40.6781,24.1046 40.1447,24.2824 C 39.6113,24.4348 39.3065,24.4348 39.3065,24.4348 C 39.2557,24.2316 39.2557,23.6474 38.5699,24.384 C 37.8841,25.146 38.0365,25.019 38.0365,25.019 C 38.0365,25.019 38.8239,25.4508 39.0017,25.5778 C 39.1541,25.6794 39.6113,25.4254 39.4589,25.019 C 39.4589,25.019 40.3479,24.9174 40.7797,24.892 C 41.2877,24.8158 41.7195,24.4856 41.9227,24.5618 C 41.9227,24.5618 42.3037,23.6474 42.4053,23.3172 C 42.5323,23.0124 42.6339,21.6916 42.6339,21.6916 L 43.1165,21.5392 C 43.1165,21.5392 43.1673,21.1328 43.0149,21.0058 C 42.8371,20.828 41.8211,20.3962 41.8211,20.3962 C 41.8211,20.3962 41.9989,20.9296 41.8211,21.4122 C 41.6687,21.9202 41.7195,21.59 42.1005,21.8186 C 42.1005,21.8186 42.2021,22.3774 41.8719,22.7076 C 41.5671,23.0124 41.1099,22.86 40.7797,22.6568 C 40.4749,22.4536 37.6047,19.3294 37.6047,19.3294 L 37.2491,19.812 z"
       id="path44"
       style="fill:#eacd00;stroke:#1f1a17;stroke-width:0.0762" /><path
       d="M 38.7985,19.9136 C 38.7985,19.9136 35.9791,23.2664 35.7505,23.5458 C 35.5473,23.7998 35.3187,24.2316 35.8521,24.384 C 36.3855,24.5618 36.7157,24.5618 36.7157,24.5618 C 36.7919,24.3332 36.7919,23.749 37.4777,24.4856 C 38.1381,25.2476 38.0365,25.146 38.0365,25.146 C 38.0365,25.146 37.1983,25.5778 37.0459,25.6794 C 36.8935,25.781 36.3855,25.527 36.5633,25.146 C 36.5633,25.146 35.6489,25.019 35.2171,24.9936 C 34.7345,24.9174 34.3027,24.6126 34.0741,24.6634 C 34.0741,24.6634 33.7185,23.749 33.5915,23.4188 C 33.4899,23.114 33.3883,21.8186 33.3883,21.8186 L 32.9057,21.6408 C 32.9057,21.6408 32.8549,21.2598 33.0073,21.1074 C 33.1597,20.9296 34.2011,20.4978 34.2011,20.4978 C 34.2011,20.4978 34.0487,21.0312 34.2011,21.5392 C 34.3535,22.0218 34.3027,21.6916 33.9471,21.9202 C 33.9471,21.9202 33.8201,22.479 34.1503,22.8092 C 34.4805,23.114 34.9123,22.9616 35.2171,22.7584 C 35.5473,22.5552 38.4175,19.431 38.4175,19.431 L 38.7985,19.9136 z"
       id="path46"
       style="fill:#eacd00;stroke:#1f1a17;stroke-width:0.0762" /><path
       d="M 37.4777,24.4856 C 37.4777,24.4856 37.5031,16.637 37.6047,15.8242 C 37.7571,14.859 38.0365,14.2748 38.0365,14.2748 C 38.0365,14.2748 38.2651,14.9352 38.4175,15.8496 C 38.5191,16.383 38.5699,24.384 38.5699,24.384 L 38.0111,25.0698 L 37.4777,24.4856 z"
       id="path48"
       style="fill:#eacd00;stroke:#1f1a17;stroke-width:0.0762" /><path
       d="M 36.1569,25.1206 C 35.9283,25.3238 35.8267,25.3238 35.8267,25.6794 C 35.8521,26.0604 36.9189,26.4414 37.9857,26.4414 C 39.0017,26.416 40.1447,26.2636 40.1447,25.6794 C 40.1447,25.0952 39.7891,24.9936 39.7891,24.9936 L 39.4589,25.019 C 39.5605,25.4508 39.2557,25.7302 38.9001,25.527 L 38.0365,25.019 C 38.0365,25.019 37.7571,25.3492 37.2745,25.5778 C 36.7919,25.781 36.4871,25.6286 36.5633,25.146 L 36.1569,25.1206 z"
       id="path50"
       style="fill:#eacd00;stroke:#1f1a17;stroke-width:0.0762" /><path
       d="M 38.5699,26.4414 C 38.5699,26.4414 38.5699,28.1686 38.5445,28.5496 C 38.4937,28.829 37.4269,28.7274 37.4015,28.575 C 37.3761,28.448 37.3761,26.416 37.3761,26.416 C 37.3761,26.416 37.8587,26.4414 37.9857,26.4414 C 38.1381,26.4414 38.5699,26.4414 38.5699,26.4414 z"
       id="path52"
       style="fill:#eacd00;stroke:#1f1a17;stroke-width:0.0762" /><path
       d="M 37.9857,29.591 C 38.2651,29.591 38.5445,29.337 38.5445,29.0068 C 38.5445,28.6766 38.2651,28.4226 37.9857,28.4226 C 37.6555,28.4226 37.4015,28.6766 37.4015,29.0068 C 37.4015,29.337 37.6555,29.591 37.9857,29.591 z"
       id="path54"
       style="fill:#eacd00;stroke:#1f1a17;stroke-width:0.0762" /><g
       id="_56218864"><polygon
         points="38.0365,14.3764 38.0365,25.019 "
         id="_56219032"
         style="fill:#eacd00" /><line
         id="_56219128"
         class="fil4 str0"
         x1="38.036499"
         y1="25.018999"
         x2="38.036499"
         y2="14.3764"
         style="fill:none;stroke:#1f1a17;stroke-width:0.0762" /></g><g
       id="_56219104"><path
         d="M 33.3883,21.8186 C 33.3883,21.8186 33.4391,21.3868 33.5915,21.209 C 33.7693,21.0312 33.9471,21.1836 33.9471,21.336 C 33.9725,21.4884 33.9725,21.4884 33.9725,21.4884 L 33.3883,21.8186 z"
         id="_56237840"
         style="fill:#eacd00" /><path
         d="M 33.3883,21.8186 C 33.3883,21.8186 33.4391,21.3868 33.5915,21.209 C 33.7693,21.0312 33.9471,21.1836 33.9471,21.336 C 33.9725,21.4884 33.9725,21.4884 33.9725,21.4884"
         id="_56237912"
         style="fill:none;stroke:#1f1a17;stroke-width:0.0762" /></g><g
       id="_56237816"><path
         d="M 42.6339,21.6916 C 42.6339,21.6916 42.5577,21.2852 42.4053,21.1074 C 42.2529,20.9296 42.1259,21.1328 42.1259,21.2852 C 42.1005,21.463 42.0497,21.4884 42.0497,21.4884 L 42.6339,21.6916 z"
         id="_56238008"
         style="fill:#eacd00" /><path
         d="M 42.6339,21.6916 C 42.6339,21.6916 42.5577,21.2852 42.4053,21.1074 C 42.2529,20.9296 42.1259,21.1328 42.1259,21.2852 C 42.1005,21.463 42.0497,21.4884 42.0497,21.4884"
         id="_56238080"
         style="fill:none;stroke:#1f1a17;stroke-width:0.0762" /></g><g
       id="_56237984"><path
         d="M 37.0967,24.6888 C 37.2745,24.7396 37.1475,24.6888 37.2491,24.765 C 37.3507,24.8412 37.3253,25.019 37.1729,25.0952 C 37.0459,25.146 36.5633,25.146 36.5633,25.146 L 37.0967,24.6888 z"
         id="_56238176"
         style="fill:#eacd00" /><path
         d="M 37.0967,24.6888 C 37.2745,24.7396 37.1475,24.6888 37.2491,24.765 C 37.3507,24.8412 37.3253,25.019 37.1729,25.0952 C 37.0459,25.146 36.5633,25.146 36.5633,25.146"
         id="_56238248"
         style="fill:none;stroke:#1f1a17;stroke-width:0.0762" /></g><g
       id="_56238152"><path
         d="M 38.9255,24.6126 C 38.7477,24.6634 38.9001,24.6126 38.7731,24.6888 C 38.6715,24.765 38.6715,24.9682 38.8239,24.9936 C 38.9509,25.0698 39.4589,25.0698 39.4589,25.0698 L 38.9255,24.6126 z"
         id="_56238344"
         style="fill:#eacd00" /><path
         d="M 38.9255,24.6126 C 38.7477,24.6634 38.9001,24.6126 38.7731,24.6888 C 38.6715,24.765 38.6715,24.9682 38.8239,24.9936 C 38.9509,25.0698 39.4589,25.0698 39.4589,25.0698"
         id="_56238416"
         style="fill:none;stroke:#1f1a17;stroke-width:0.0762" /></g></g></svg>