<?xml version="1.0" encoding="utf-8"?>
<!-- Generator: Adobe Illustrator 16.0.0, SVG Export Plug-In . SVG Version: 6.00 Build 0)  -->
<!DOCTYPE svg PUBLIC "-//W3C//DTD SVG 1.0//EN" "http://www.w3.org/TR/2001/REC-SVG-20010904/DTD/svg10.dtd" [
	<!ENTITY ns_flows "http://ns.adobe.com/Flows/1.0/">
	<!ENTITY ns_extend "http://ns.adobe.com/Extensibility/1.0/">
	<!ENTITY ns_ai "http://ns.adobe.com/AdobeIllustrator/10.0/">
	<!ENTITY ns_graphs "http://ns.adobe.com/Graphs/1.0/">
]>
<svg version="1.0" id="Layer_1" xmlns:x="&ns_extend;" xmlns:i="&ns_ai;" xmlns:graph="&ns_graphs;"
	 xmlns="http://www.w3.org/2000/svg" xmlns:xlink="http://www.w3.org/1999/xlink" xmlns:a="http://ns.adobe.com/AdobeSVGViewerExtensions/3.0/"
	 x="0px" y="0px" width="960px" height="560px" viewBox="0 0 960 560" style="enable-background:new 0 0 960 560;"
	 xml:space="preserve">
<g>
	<path style="fill-rule:evenodd;clip-rule:evenodd;fill:#8BBE9F;" d="M472.39,262.22c2.28,0.84,1.89,2.83,2.19,4.66
		c0.45,2.78,0.67,5.61,0.54,8.45c-0.22,4.7-0.6,9.35-2.47,13.76c-0.82,1.94,0.34,4.01,2.36,4.48c1.78,0.41,2.13,1.05,2.02,3.67
		c-0.15,3.36,0.37,4.11,3.63,5.25c0.23,0.08,0.47,0.12,0.68,0.24c1.05,0.62,2.04,1.53,3.4,0.93c1.92-0.85,3.9-1.64,5.17-3.47
		c0.23-0.33,0.41-0.73,0.71-0.95c1.78-1.29,1.34-2.88,0.81-4.6c-1.48-4.84-3.48-9.51-4.58-14.47c-0.99-4.45-1.5-8.94-0.92-13.49
		c0.22-1.73,1.04-3.23,2.32-4.49c0.7-0.69,1.58,0.33,2.21-0.38c0.74,0.23,1.35,0.68,1.91,1.2c-0.09,0.47-0.18,0.94-0.27,1.41
		c-0.18,0.02-0.3-0.07-0.38-0.22c-0.68-1.19-1.12-1.3-2.3-0.56c-0.87,0.54-1.32,1.37-1.54,2.34c-0.85,3.73-1.16,7.48-0.53,11.3
		c0.62,3.76,1.66,7.41,2.88,11.01c0.6,2.3,1.48,4.52,2.05,6.83c0.07,0.27,0.17,0.53,0.13,0.82c-0.01,0.06-0.02,0.12-0.03,0.18
		c0.39,1.56-0.34,2.58-1.11,3.96c-1.01,1.81-2.56,2.57-3.89,3.76c-1.19,1.08-2.92,0.59-4.25,1.35c-0.1,0.05-0.43-0.11-0.5-0.24
		c-0.91-1.87-3.24-1.56-4.47-2.94c-0.02-0.03-0.07-0.03-0.1-0.05c-0.58-0.41-1.69,0.02-1.88-0.75c-0.24-1.02-0.09-2.13-0.06-3.21
		c0.01-0.51,0.1-1.02,0.18-1.53c0.23-1.59-0.46-2.25-2.03-2.01c-0.82,0.12-1.34-0.25-1.73-0.96c-0.94-1.71-1.49-3.3-0.62-5.38
		c2.22-5.3,2.66-10.97,2.41-16.63C474.2,268.35,469.27,262.59,472.39,262.22z"/>
	<path style="fill-rule:evenodd;clip-rule:evenodd;fill:#5CA773;" d="M465.57,248.35c0.05-0.07,0.11-0.14,0.16-0.22
		c1-1.05,2.23-0.51,3.37-0.46c3,0.12,5.4,2.03,8.17,2.81c2.73,0.77,4.93,2.35,7.01,4.17c0.97,0.85,1.8,1.81,1.98,3.16
		c-0.15,0.54-0.54,0.61-1.03,0.55c-2.17-0.25-4.29,0.06-6.35,0.75c-0.93,0.31-1.62,0.1-2.37-0.58c-2.74-2.49-5.96-4.07-9.62-4.74
		c-0.43-0.08-0.87-0.06-1.3,0.05c-0.47,0.12-0.95,0.18-1.36-0.17c-0.27-1.35,0.24-2.38,1.39-2.84c3.72-0.48,7.06,0.8,10.36,2.24
		c2.02,0.88,3.79,2.2,5.73,3.21c0.17,0.09,0.32,0.22,0.47,0.32c-0.12-0.1-0.25-0.2-0.38-0.29c-3.78-2.32-7.65-4.44-12.04-5.43
		c-1.03-0.23-2.07-0.03-3.1-0.13c-0.47-0.05-0.96,0.13-1.4-0.16C464.87,249.78,465.72,249.13,465.57,248.35z"/>
	<path style="fill-rule:evenodd;clip-rule:evenodd;fill:#33332D;" d="M501.8,328.34c-0.01,0.04-0.02,0.08-0.04,0.11
		c-0.81,1.86-3.47,1.11-4.33,3.38c-0.7,1.84-3.1,1.94-5.01,2.2c-0.18,0.02-0.45,0.1-0.5,0.21c-1.08,3.02-3.76,2.61-6.11,2.85
		c-1.65,0.17-3.59,0.16-4.79-0.64c-2.16-1.43-3.98,0.31-5.98-0.04c-1.65-0.29-3.34-0.13-4.31-1.84c-0.14-0.25-0.25-0.12-0.45-0.09
		c-2.77,0.34-5.71,0.54-7.97-1.2c-1.26-0.97-2.51-1.55-3.9-2.1c-0.64-0.25-1.3-0.64-1.57-1.39c-0.09-0.28-0.17-0.56,0.05-0.82
		c0.74,0.05,0.74,0.94,1.34,1.16c0.11,0.05,0.21,0.1,0.31,0.16c0.17,0.07,0.34,0.14,0.52,0.2c1.33,0.28,1.55,0.18,1.49-1.14
		c-0.14-3.44,0.37-6.84,0.52-10.26c0.03-0.67,0.06-1.36,0.6-1.89c0.7,0.17,0.5,0.78,0.6,1.24c0.15,2.31-0.16,4.61-0.31,6.9
		c-0.14,2.12-0.16,4.21,0.25,6.28c0.04,0.36,0.02,0.75,0.38,1c0.47,0.4,1.05,0.58,1.62,0.79c1.36,0.08,2.71,0.29,4.07,0.27
		c1.38-0.01,1.75-0.22,1.6-1.56c-0.34-3.16-0.05-6.31-0.21-9.47c-0.12-2.47,0.17-4.92,0.35-7.38c0.02-0.28,0.07-0.55,0.14-0.82
		c0.1-0.37,0.12-0.89,0.64-0.86c0.51,0.03,0.5,0.53,0.56,0.91c-0.16,3.02-0.46,6.04-0.45,9.07c0.01,3.04,0.2,6.06,0.5,9.08
		c0.21,2.1,0.75,2.61,2.88,2.67c0.44,0.01,0.88,0.04,1.31,0.05c0.45-0.03,0.91,0.03,1.36,0.02c0.17,0,0.35,0,0.53-0.01
		c0.17-0.01,0.32-0.07,0.48-0.12c0.15-0.06,0.31-0.11,0.45-0.19c0.52-0.29,0.54-0.73,0.39-1.23c-0.21-0.69-0.21-1.4-0.19-2.12
		c0.06-0.36,0.05-0.76,0.53-0.85c0.51,0.31,0.56,0.83,0.59,1.34c0.06,0.79,0.25,1.56,0.51,2.3c0.08,0.2,0.13,0.42,0.19,0.64
		c0.04,0.15,0.14,0.27,0.27,0.36c0.24,0.15,0.51,0.17,0.77,0.26c2.4,0.35,4.8,0.48,7.21,0.09c1.24-0.2,2.05-0.77,2.22-2.08
		c0.29-0.93,0.17-1.85-0.06-2.76c-0.1-0.95-0.09-1.89-0.04-2.83c0.04-1.78-0.01-3.55,0.03-5.32c0.01-0.49-0.11-1.05,0.48-1.35
		c0.79,0.64,0.69,1.57,0.71,2.41c0.05,2.62-0.01,5.25,0.21,7.87c0.03,0.39-0.05,0.8,0.19,1.15c1.33,0.23,2.52-0.17,3.57-0.91
		c1.1-0.78,1.01-2.08,0.94-3.18c-0.2-2.98-0.01-5.98-0.52-8.94c-0.04-0.24-0.05-0.48,0-0.71c0.07-0.37,0.2-0.75,0.63-0.75
		c0.37,0.01,0.46,0.39,0.55,0.7c0.23,0.77,0.05,1.59,0.3,2.36c0.08,0.32,0.08,0.65,0.09,0.98c0.04,0.69-0.09,1.39,0.12,2.07
		c0.22,1.25,0.06,2.52,0.13,3.78c0.05,1.01,0.33,1.18,1.27,0.76c0.54-0.24,1.03-0.59,1.51-0.94c0.15-0.11,0.32-0.19,0.5-0.21
		C501.75,328.01,501.89,328.1,501.8,328.34z"/>
	<path style="fill-rule:evenodd;clip-rule:evenodd;fill:#45453B;" d="M491.42,271.4c-0.16,3.93,1.28,7.52,2.52,11.11
		c1.28,3.73,2.2,7.54,3.14,11.36c1.03,4.22,1.95,8.46,3,12.67c0.75,3,1.14,6.07,1.49,9.14c0.05,0.46,0.29,0.94-0.15,1.35
		c-0.65-0.34-0.56-1.01-0.66-1.57c-0.41-2.4-0.72-4.82-1.22-7.2c-0.95-4.57-2.17-9.09-3.07-13.67c-1.25-6.42-3.79-12.44-5.46-18.72
		c-0.39-1.47-0.83-2.94-0.13-4.44C491.05,271.29,491.23,271.24,491.42,271.4z"/>
	<path style="fill-rule:evenodd;clip-rule:evenodd;fill:#2F302A;" d="M481.59,249.56c0.42,0.01,0.85,0.01,1.27,0.02
		c0.79,0.96,1.88,1.58,2.78,2.41c1.71,1.56,2.35,4.19,1.5,6.19c-0.08,0-0.17,0.01-0.25,0.01c-0.28-0.09-0.2-0.68-0.68-0.5
		l-0.05,0.03c-1.76-3.11-4.4-5.18-7.7-6.45c-2.12-0.82-4.19-1.76-6.29-2.6c-1.99-0.79-4.22-1.16-6.43-0.54
		c0.09-0.71,0.2-1.42,0.74-1.96c0.08,0.09,0.15,0.18,0.23,0.27c0.2,0.36,0.44,0.66,0.92,0.63c2.98-0.16,5.59,1.05,8.21,2.22
		c1.09,0.48,2.22,0.89,3.33,1.33c2.84,1.12,5.22,2.85,7,5.36c0.04,0.06,0.07,0.14,0.12,0.2c-0.01-0.04-0.05-0.07-0.06-0.12
		c-0.19-1.14-0.37-2.27-1.32-3.11c-0.81-0.71-1.7-1.31-2.55-1.97C481.9,250.64,481.26,250.34,481.59,249.56z"/>
	<path style="fill-rule:evenodd;clip-rule:evenodd;fill:#47473E;" d="M457.09,329.01c-0.08,0.26-0.16,0.52-0.24,0.78
		c-0.71-1.77-0.46-3.62-0.4-5.43c0.31-9.53,2.2-18.82,4.5-28.04c0.27,0.14,0.4,0.37,0.47,0.65c0,1.82-0.68,3.52-1.03,5.27
		c-0.93,4.63-1.74,9.27-2.42,13.94c-0.04,0.2-0.06,0.4-0.1,0.6c-0.08,0.41-0.13,0.82-0.15,1.25c-0.28,3.1-0.15,6.2-0.19,9.3
		C457.51,327.92,457.61,328.55,457.09,329.01z"/>
	<path style="fill-rule:evenodd;clip-rule:evenodd;fill:#3B3733;" d="M488.11,239.77c-0.24-0.91-1.02-0.36-1.53-0.56
		c1.44-1.23,1.15-3.12,1.76-4.67c0.19-0.48-0.21-0.61-0.59-0.68c-0.71-0.12-1.42-0.21-2.13-0.34c-0.59-0.11-1.2-0.27-1.25-1.06
		c0.08-0.19,0.19-0.32,0.42-0.21c1.31,0.67,2.79,0.48,4.17,0.82c0.16,0.04,0.39-0.06,0.53-0.17c1-0.81,2.36-0.67,2.93,0.53
		c0.47,1,1.29,1.21,2.14,1.46c0.58,0.17,1.12,0.4,1.61,0.74c0.6,0.42,0.91,1,0.8,1.74c-0.11,0.71-0.69,0.95-1.28,1.08
		c-0.97,0.21-1.95,0.45-2.93,0.48c-0.8,0.02-0.98,0.44-1.12,1.04c-0.35,0.03-0.41-0.24-0.49-0.48c-0.15-1.18,0.45-2.24,0.54-3.39
		c0.04-0.59,0.17-1.18,0.03-1.77c-0.12-0.5-0.4-0.9-0.93-0.97c-0.55-0.07-0.73,0.39-0.92,0.79c-0.67,1.42-0.93,2.94-1.21,4.47
		C488.59,239.03,488.75,239.6,488.11,239.77z"/>
	<path style="fill-rule:evenodd;clip-rule:evenodd;fill:#44453D;" d="M461.17,296.84c-0.08-0.17-0.15-0.34-0.23-0.51
		c0.69-4.11,2.34-7.94,3.44-11.93c0.81-2.93,2.06-5.69,3.01-8.56c1.22-3.7,1.75-7.52,0.49-11.38c0.3-0.17,0.25-0.46,0.27-0.73
		c0.58-0.01,0.52,0.49,0.6,0.83c0.19,0.84,0.33,1.69,0.6,2.5c0.07,0.26,0.11,0.53,0.11,0.8c-0.01,0.67,0,1.34,0,2.02
		c0.01,0.27-0.03,0.53-0.08,0.79c-0.3,4.51-2.61,8.41-3.82,12.65c-1.16,4.06-2.6,8.04-3.61,12.15
		C461.82,295.98,461.82,296.6,461.17,296.84z"/>
	<path style="fill-rule:evenodd;clip-rule:evenodd;fill:#34342C;" d="M465.29,250.51c6.84-0.46,12.29,3.01,17.8,6.31
		c0.18,0.11,0.51,0.27,0.25,0.53c-0.31,0.31-0.57-0.04-0.82-0.2c-2.96-1.88-5.92-3.76-9.24-4.96c-2.42-0.88-4.9-1.33-7.48-1.14
		c-0.37,0.01-0.85,0.37-1.01-0.31c-0.02-0.08-0.01-0.15,0.03-0.21C464.97,250.38,465.13,250.38,465.29,250.51z"/>
	<path style="fill-rule:evenodd;clip-rule:evenodd;fill:#403935;" d="M469.12,233.24c-0.33,0.05-0.73-0.11-0.95,0.29
		c-1.43,1.36-0.45,2.95-0.41,4.45c-0.08,0.34,0,0.81-0.57,0.79c-1.06-0.08-2.12-0.16-3.18-0.26c-0.67-0.06-1.45-0.06-1.53-0.96
		c-0.07-0.85,0.14-1.66,1.05-2.05c0.43-0.19,0.88-0.32,1.33-0.48l0.08-0.05c0.16-0.05,0.31-0.09,0.47-0.14l0.04-0.03
		c0.42-0.31,0.85-0.62,1.27-0.92c0.1-0.02,0.18-0.07,0.24-0.15l0.03-0.01c0.07-0.08,0.16-0.13,0.26-0.16
		c0.07-0.02,0.14-0.06,0.2-0.11c0.09-0.05,0.17-0.11,0.26-0.17C468.16,233.07,468.63,232.74,469.12,233.24z"/>
	<path style="fill-rule:evenodd;clip-rule:evenodd;fill:#463F3C;" d="M484.8,232.24c-0.1,0.09-0.21,0.17-0.31,0.26
		c-0.53,0.19-0.79-0.24-1.12-0.49c-2.02-1.53-3.39-1.58-5.37-0.04c-1.88,1.46-4.14,1.73-6.34,2.25c-0.31,0.07-0.64,0.02-0.86-0.28
		c-0.37-0.46-1.1,0.09-1.42-0.51c3.04-0.11,6.02-0.44,8.5-2.47c0.66-0.54,1.84-0.57,1.84-1.79c0.22-0.04,0.35,0.01,0.24,0.27
		c0.91,0.36,1.83,0.69,2.72,1.1C483.51,230.93,484.24,231.49,484.8,232.24z"/>
	<path style="fill-rule:evenodd;clip-rule:evenodd;fill:#505245;" d="M501.32,316.99c0.34-0.38,0.13-0.87,0.24-1.3
		c0.7,3.66,1.02,7.36,1.17,11.08c0.03,0.73-0.44,1.15-0.92,1.57c-0.08-0.1-0.17-0.19-0.26-0.29c-0.16-0.23-0.03-0.43,0.07-0.63
		c0.08-0.15,0.18-0.29,0.24-0.45c0.11-0.79,0.09-1.56-0.15-2.33c-0.07-2.11-0.39-4.19-0.57-6.29
		C501.09,317.9,500.93,317.4,501.32,316.99z"/>
	<path style="fill-rule:evenodd;clip-rule:evenodd;fill:#57564D;" d="M492.39,263.01c0.16,0,0.32-0.01,0.49-0.01
		c-0.41,2.56-0.83,5.13-1.24,7.69c-0.11,0.06-0.22,0.06-0.33,0c-0.1-0.07-0.18-0.15-0.25-0.25c-0.05-0.11-0.09-0.22-0.12-0.34
		c-0.06-1.07,0.23-2.1,0.43-3.14c0.02-0.11,0.05-0.23,0.08-0.34c0.07-0.22,0.12-0.44,0.14-0.68c0.05-0.53,0.18-1.05,0.24-1.59
		C491.9,263.86,491.98,263.37,492.39,263.01z"/>
	<path style="fill-rule:evenodd;clip-rule:evenodd;fill:#4D4A3C;" d="M467.18,238.77c0.38-0.26,0.21-0.69,0.3-1.04
		c0.42,0.12,0.52,0.48,0.54,0.83c0.1,1.77,0.12,3.55-0.01,5.32c-0.02,0.24-0.13,0.45-0.32,0.62c-0.16,0.24-0.32,0.49-0.48,0.73
		C467.21,243.08,467.19,240.93,467.18,238.77z"/>
	<path style="fill-rule:evenodd;clip-rule:evenodd;fill:#32332C;" d="M494.56,251.72c-0.08,0.09-0.17,0.18-0.25,0.27
		c-1.24-0.86-1.24-0.86-2.57,0.2c-0.34,0.27-0.67,0.56-1.06,0.74c-0.4,0.18-0.79,0.25-0.78-0.41c0.2-0.35,0.51-0.58,0.79-0.86
		c0.81-0.66,1.54-1.41,2.53-1.81c0.21-0.08,0.41-0.19,0.63-0.05l0,0c0.21,0.2,0.01,0.53,0.23,0.73l0.03,0.03
		c0.07,0.04,0.11,0.1,0.12,0.18C494.34,251.06,494.45,251.39,494.56,251.72z"/>
	<path style="fill-rule:evenodd;clip-rule:evenodd;fill:#545243;" d="M493.37,260.12c-0.1-0.02-0.2-0.03-0.3-0.05
		c-0.13-1.52,0.13-2.91,1.22-4.06c0.08,0.17,0.16,0.33,0.23,0.5C494.32,257.77,494.02,259,493.37,260.12z"/>
	<path style="fill-rule:evenodd;clip-rule:evenodd;fill:#59574B;" d="M491.42,239.45c0.08,0.17,0.16,0.33,0.24,0.5
		c-0.07,1.28-0.13,2.56-0.2,3.84c-0.16-0.07-0.31-0.15-0.47-0.22C490.27,242.26,490.47,240.29,491.42,239.45z"/>
	<path style="fill-rule:evenodd;clip-rule:evenodd;fill:#5A5551;" d="M482.29,224.13c1.45,1.58,1.45,2.59,0.03,3.81
		c-0.12-0.07-0.27-0.09-0.3-0.25c1.35-1.19,0.78-2.36-0.05-3.52C482.06,224.03,482.17,224.02,482.29,224.13z"/>
	<path style="fill-rule:evenodd;clip-rule:evenodd;fill:#5A5F49;" d="M464.78,250.74c0.26,0.36,0.66,0.24,1.01,0.31
		c-1.41,0.34-1.46,1.45-1.46,2.58c-0.17-0.01-0.39-0.16-0.47,0.13c-0.06,0.24-0.02,0.46,0.22,0.6c0.06,0.08,0.1,0.16,0.1,0.26
		c-0.02,0.19-0.08,0.38-0.17,0.55c-0.05,0.08-0.12,0.15-0.22,0.18C463.18,253.62,464.09,252.2,464.78,250.74z"/>
	<path style="fill-rule:evenodd;clip-rule:evenodd;fill:#5A5551;" d="M480.16,223.87c-1.07,0.31-1.91,0.74-1.13,2.06
		c0.11,0.18,0.23,0.37-0.01,0.5c-0.27,0.15-0.42-0.07-0.57-0.27c-0.73-0.95,0.03-2.28,1.45-2.54
		C480.16,223.52,480.2,223.65,480.16,223.87z"/>
	<path style="fill-rule:evenodd;clip-rule:evenodd;fill:#54544A;" d="M466.51,260.56c-0.1,0.11-0.2,0.21-0.3,0.32
		c-0.94-0.85-1.34-1.98-1.65-3.16c0.17,0.01,0.34,0.03,0.51,0.04C465.73,258.6,466.27,259.5,466.51,260.56z"/>
	<path style="fill-rule:evenodd;clip-rule:evenodd;fill:#56584A;" d="M464.81,257.26c-0.08,0.15-0.17,0.3-0.25,0.45
		c-0.47-0.71-0.56-1.56-0.77-2.36c0.04-0.04,0.08-0.09,0.12-0.14c0.09-0.18,0.01-0.53,0.41-0.38
		C464.77,255.59,464.88,256.41,464.81,257.26z"/>
	<path style="fill-rule:evenodd;clip-rule:evenodd;fill:#484440;" d="M482.01,227.68c0.1,0.08,0.2,0.17,0.3,0.25
		c-0.53,0.48-1.19,0.5-1.84,0.55c-0.27,0.06-0.4-0.03-0.33-0.32C480.77,228.01,481.39,227.85,482.01,227.68z"/>
	<path style="fill-rule:evenodd;clip-rule:evenodd;fill:#6C6F5C;" d="M465.29,250.51c-0.16,0.01-0.32,0.01-0.48,0.02
		c0.25-0.73,0.51-1.45,0.76-2.18C465.94,249.13,465.32,249.78,465.29,250.51z"/>
	<path style="fill-rule:evenodd;clip-rule:evenodd;fill:#6D6A5F;" d="M493.84,249.8c-0.16,0.08-0.32,0.17-0.48,0.25
		c-0.43-0.51-0.58-1.07-0.24-1.69c0.09-0.18,0.19-0.35,0.28-0.53C493.83,248.42,493.78,249.12,493.84,249.8z"/>
	<path style="fill-rule:evenodd;clip-rule:evenodd;fill:#6D6662;" d="M480.16,223.87c-0.09-0.08-0.17-0.16-0.26-0.24
		c0.93-0.48,1.71-0.23,2.39,0.5c-0.11,0.01-0.21,0.02-0.32,0.03C481.39,223.91,480.8,223.73,480.16,223.87z"/>
	<path style="fill-rule:evenodd;clip-rule:evenodd;fill:#5F5B51;" d="M493.08,246.94c-0.07,0.08-0.14,0.16-0.21,0.23
		c-0.78-0.22-0.96-0.73-0.72-1.45c0.01-0.17,0.02-0.34,0.03-0.51C492.48,245.79,492.78,246.36,493.08,246.94z"/>
	<path style="fill-rule:evenodd;clip-rule:evenodd;fill:#6A6561;" d="M480.14,228.17c0.11,0.11,0.22,0.21,0.33,0.32
		c-0.17,0.32-0.34,0.64-0.52,0.96c-0.08-0.09-0.16-0.18-0.24-0.27C479.76,228.8,479.8,228.42,480.14,228.17z"/>
	<path style="fill-rule:evenodd;clip-rule:evenodd;fill:#57564D;" d="M491.42,271.4c-0.14,0-0.27,0-0.41,0
		c-0.05-0.04-0.1-0.07-0.16-0.11c-0.15-0.38-0.25-0.74,0.3-0.88l0.05,0.05c0.06,0.09,0.11,0.19,0.15,0.28
		c0.05,0.05,0.11,0.11,0.16,0.17C491.49,271.08,491.46,271.24,491.42,271.4z"/>
	<path style="fill-rule:evenodd;clip-rule:evenodd;fill:#6D6A5F;" d="M494.08,250.52c-0.26-0.18-0.29-0.44-0.23-0.73
		C494.1,249.98,494.08,250.25,494.08,250.52z"/>
	<path style="fill-rule:evenodd;clip-rule:evenodd;fill:#9AC6AB;" d="M467.69,233.27c-0.09,0.06-0.17,0.11-0.26,0.17
		C467.52,233.38,467.6,233.32,467.69,233.27z"/>
	<polygon style="fill-rule:evenodd;clip-rule:evenodd;fill:#DFA65B;" points="464.93,234.97 464.91,235.04 464.85,235.02 
		464.86,234.95 	"/>
	<polygon style="fill-rule:evenodd;clip-rule:evenodd;fill:#DFA65B;" points="465.43,234.8 465.44,234.85 465.39,234.83 
		465.38,234.77 	"/>
	<path style="fill-rule:evenodd;clip-rule:evenodd;fill:#9AC6AB;" d="M466.94,233.72c-0.08,0.05-0.16,0.1-0.24,0.15
		C466.78,233.83,466.86,233.77,466.94,233.72z"/>
	<path style="fill-rule:evenodd;clip-rule:evenodd;fill:#9AC6AB;" d="M467.23,233.55c-0.09,0.05-0.17,0.11-0.26,0.16
		C467.06,233.65,467.14,233.6,467.23,233.55z"/>
	<path style="fill-rule:evenodd;clip-rule:evenodd;fill:#76B38A;" d="M491.46,270.72c0.05-0.02,0.11-0.03,0.17-0.03
		c-0.03,0.08-0.07,0.15-0.1,0.23l-0.07,0.01l-0.07-0.03C491.33,270.81,491.35,270.75,491.46,270.72z"/>
	<path style="fill-rule:evenodd;clip-rule:evenodd;fill:#5DA572;" d="M494.23,250.74c-0.04-0.06-0.08-0.12-0.12-0.18
		C494.15,250.62,494.19,250.68,494.23,250.74z"/>
	<path style="fill-rule:evenodd;clip-rule:evenodd;fill:#84BA99;" d="M501.77,327.57c-0.08,0.16-0.15,0.32-0.22,0.48
		c-0.09,0.07-0.18,0.13-0.28,0.2c-0.24,0.04-0.51,0.08-0.69-0.09c-1.27-1.23-2.41-2.57-2.63-4.41c-0.09-0.75-0.05-1.51-0.14-2.26
		c-0.01-0.12-0.01-0.24,0.01-0.35c-0.07,0.16,0.02,0.38-0.18,0.5c-0.12-0.74-0.25-1.48-0.36-2.22c-0.04-0.29,0.19-0.77-0.27-0.76
		c-0.43,0.01-0.29,0.49-0.25,0.78c0.39,2.81,0.41,5.64,0.53,8.47c0.18,4.33-0.13,5.03-5.1,5.58c-0.25-0.31-0.09-0.68-0.12-1.02
		c0.05-0.12,0.13-0.19,0.26-0.21c0.12,0,0.24,0.03,0.36,0.07c1.56-0.27,2.65-1.62,2.98-3.6c0.26-1.54,0.3-3.1,0.23-4.66
		c-0.04-0.97-0.4-1.73-1.27-2.3c-1.57-1.03-1.87-2.94-0.77-4.5c1.1-1.57,1-2.42-0.48-3.65c-0.67-0.56-1.31-1.18-2.17-1.47
		c-1.44-0.48-2.82,0.21-3.17,1.68c-0.36,1.53-0.47,3.04,0.01,4.61c0.82,2.69,0.75,5.44,0.25,8.18c-0.17,0.92-0.17,1.84-0.07,2.75
		c0.16,1.61,1.25,2.63,3,2.93c0.16,0.23,0.1,0.48,0.09,0.72c-0.44,1.32-0.97,1.57-2.21,1.03c-0.51-0.23-0.97-0.55-1.42-0.87
		c-1.71-1.23-3.71-0.67-4.57,1.34c-0.39,0.92-0.8,1.65-1.97,1.43c-0.24-0.09-0.48-0.18-0.72-0.27c-0.1-0.11-0.12-0.23-0.07-0.36
		c1.61-1.81,1.72-3.88,0.97-6.04c-0.44-1.29-0.95-2.54-0.66-3.96c0.11-0.54-0.17-1.01-0.42-1.47c-0.62-1.15-0.91-2.38-0.91-3.68
		c0-1.96-0.08-3.92,0.27-5.86c0.16-0.9,0-1.76-0.45-2.54c-0.4-0.69-0.75-0.69-1.06,0.04c-0.4,0.92-0.71,1.88-0.67,2.9
		c0.14,4.43-0.29,8.86-0.24,13.29c0.02,1.5-0.34,2.75-1.61,3.66c-0.75,0.54-0.64,1.28-0.46,2.06c0.17,0.7,0.82,1.2,0.72,1.99
		c-0.56,0.03-1.12,0.15-1.67,0.08c-2.68-0.34-2.92-0.73-3.16-3.07c-0.54-5.21-0.5-10.42-0.2-15.63c0.05-0.83,0.18-1.66,0.27-2.49
		c0.1-0.64,0.34-1.2,0.71-1.74c0.75-1.1,0.96-2.25,0.17-3.46c-0.54-0.84-0.61-1.8-0.53-2.78c0.22-2.62,0.45-5.25,0.8-7.86
		c0.07-0.5,0.32-1.28-0.21-1.41c-0.67-0.17-0.71,0.69-0.92,1.16c-1.99,4.57-2.04,9.34-1.71,14.22c0.22,3.29-0.25,6.61-0.69,9.89
		c-0.14,1.04-0.14,2.07-0.19,3.1c-0.12,2.68-1.14,4.09-3.23,4.36c-0.79,0.1-0.97,0.72-1.05,1.39c-0.08,0.67,0.18,1.35-0.05,2.02
		c-0.09,0.13-0.2,0.16-0.34,0.08c-0.55-0.1-1.02-0.35-1.42-0.74c-0.03-0.32-0.29-0.49-0.47-0.72c-1.18-4.54,0.13-9.09,0-13.63
		c-0.17-2.02,0.19-4,0.37-6c0.15-1.73,0.32-3.47,0.96-5.12c0.53-1.03,0.96-2.09,1.17-3.25c0.22-1.26,0.61-2.47,1.07-3.67
		c0.63-1.68,1.16-3.4,1.51-5.17c0.34-1.73,0.92-3.38,1.61-5c2.12-4.94,3.61-10.07,4.17-15.44c0.2-1.9-0.06-3.75-0.77-5.52
		c-0.52-1.29-1.35-2.26-2.91-2.22c-0.64-1.03-0.42-2.3-0.94-3.36c0.67-1.09,1.92-0.97,2.9-1.4c0.29,0.15,0.64-0.04,0.92,0.17
		c1.49,1.61,1.91,3.68,2.25,5.71c1.16,6.92,0.38,13.69-2.02,20.27c-0.41,1.13-0.57,2.18-0.07,3.36c0.59,1.39,1.27,2.42,3.03,2.33
		c1.01-0.06,1.4,0.72,1.49,1.68c0.11,1.25-0.24,2.46-0.26,3.7c-0.01,1.07,0.39,1.52,1.36,2.03c1.63,0.87,3.56,1.25,4.84,2.74
		c0.18,0.21,0.45,0.43,0.73,0.34c1.35-0.41,2.9-0.25,4.05-1.28c0.45-0.4,0.94-0.75,1.49-1c0.73-0.33,1.26-0.84,1.5-1.62
		c0.06-0.19,0.11-0.42,0.25-0.54c1.23-1.07,1.83-2.39,1.72-4.02c0.64-0.13,0.69,0.43,0.8,0.79c0.92,3,2.09,5.96,1.25,9.22
		c-0.26,1.01,0.1,2.06,0.52,3.02c0.66,1.5,1.26,3.03,1.55,4.65c0.3,1.68,1.3,3.08,1.8,4.68c0.5,1.6,0.9,3.22,1.2,4.87
		c0.19,1.07,0.58,2.06,1.19,2.97c0.28,0.42,0.6,0.73,1.09,0.86C501.85,327.34,501.86,327.45,501.77,327.57z"/>
	<path style="fill-rule:evenodd;clip-rule:evenodd;fill:#9AC6AB;" d="M473.92,261.55c4.29-1.01,8.61-1.26,12.96-0.48
		c0.17,0.29,0.7-0.1,0.76,0.4c-2.99,1.55-3.1,4.5-3.23,7.24c-0.23,5.01,0.93,9.84,2.45,14.58c1.12,3.46,2.56,6.8,3.67,10.27
		c1.1,3.46,0.55,4.9-2.62,6.73c-0.87,0.5-1.7,1.05-2.49,1.66c-1,0.77-2.08,0.93-3.26,0.37c-1.01-0.48-2.09-0.8-3.09-1.31
		c-1.22-0.62-1.75-1.58-1.64-2.92c0.03-0.32,0.07-0.63,0.11-0.95c0.3-2.28-0.24-3.3-2.3-4.34c-1.53-0.77-1.95-1.6-1.3-3.21
		c1.87-4.65,2.49-9.48,2.27-14.45c-0.12-2.79,0.22-5.6-0.25-8.38c-0.2-1.18-0.52-2.34-0.86-3.49
		C474.87,262.56,474.07,262.29,473.92,261.55z"/>
	<path style="fill-rule:evenodd;clip-rule:evenodd;fill:#8FC0A2;" d="M473.92,261.55c1.3,0.41,1.62,1.57,1.87,2.66
		c1.32,5.67,0.8,11.41,0.56,17.13c-0.13,2.99-1.09,5.77-2.16,8.52c-0.51,1.32-0.08,2.14,1.2,2.63c2.1,0.81,2.99,2.45,2.56,4.65
		c-0.46,2.34-0.24,2.82,1.9,3.84c1.01,0.48,2.05,0.89,3.09,1.29c0.54,0.21,1.16,0.18,1.61-0.19c1.66-1.37,3.73-2.13,5.27-3.69
		c0.92-0.93,1.18-1.93,0.84-3.15c-1.14-4.11-2.91-8-4.2-12.06c-1.58-4.94-2.66-10-2.4-15.23c0.07-1.33,0.41-2.68,0.83-3.96
		c0.43-1.29,1.19-2.41,2.72-2.66c0.17-0.17,0.36-0.14,0.55-0.04c0.07-0.03,0.13-0.02,0.18,0.02c0.29,0.26,0.7,0,1,0.22
		c0.07-0.02,0.14-0.01,0.2,0.04c0.23,0.18,0.55,0.05,0.79,0.19c0.06-0.02,0.12-0.01,0.16,0.04c-0.05,0.59-0.55,0.54-0.9,0.52
		c-0.88-0.05-1.4,0.45-1.88,1.07c-1.44,1.86-1.62,4.09-1.62,6.27c-0.01,4.53,0.56,8.99,1.87,13.35c1.19,3.94,2.68,7.78,3.88,11.71
		c0.54,1.77,0.47,3.25-0.89,4.84c-1.37,1.6-2.88,2.84-4.68,3.82c-1.54,0.84-2.98,0.99-4.61-0.04c-1.19-0.76-2.53-1.34-3.82-1.96
		c-1.02-0.48-1.44-1.2-1.37-2.28c0.07-1.07,0.3-2.13,0.24-3.22c-0.07-1.24-0.36-1.64-1.53-1.91c-2.45-0.55-3.6-2.55-2.82-5.02
		c0.38-1.22,0.86-2.41,1.2-3.65c0.88-3.14,1.02-6.38,1.22-9.61c0.18-2.96-0.13-5.9-0.52-8.84c-0.25-1.85-0.81-3.53-2.23-4.83
		C472.64,261.89,473.28,261.72,473.92,261.55z"/>
	<path style="fill-rule:evenodd;clip-rule:evenodd;fill:#2D2E28;" d="M494.56,251.72c-0.2-0.08-0.31,0.04-0.41,0.2
		c-0.01,0.9-0.34,1.54-1.3,1.79c-0.62,0.16-1.01,0.71-1.45,1.15c-0.21,0.13-0.4,0.29-0.61,0.42c-0.06,0.05-0.12,0.1-0.18,0.13
		c0.06-0.04,0.12-0.08,0.17-0.12c0.28-0.23,0.65-0.37,0.81-0.74c-0.04-1.18-1.05-1.17-1.81-1.47c-0.2-0.19,0-0.29,0.08-0.42
		c0.07-0.07,0.15-0.14,0.21-0.21c0.29-0.32,0.62-0.59,0.88-0.94c0.1-0.17,0.24-0.38,0.15-0.55c-0.49-0.91,0.13-1.37,0.71-1.86
		c0.43-0.37,0.93-0.57,1.49-0.66c0.23-0.16,0.21-0.38,0.13-0.61c-0.11-0.3-0.22-0.59-0.33-0.89c-0.19-0.06-0.33,0.03-0.46,0.15
		c-1.35,0.87-2.42,2.07-3.69,3.04c-0.16,0.12-0.37,0.28-0.62,0.22c0.07-0.18,0.22-0.32,0.31-0.49c0.54-1.05,0.4-1.53-0.51-1.74
		c-0.17-0.04-0.35,0.09-0.52-0.03c0.12-0.16,0.25-0.31,0.39-0.46c0.46-0.51,1.02-0.89,1.63-1.2c0.83-0.43,1.78-0.41,2.64-0.71
		c0.05-0.17,0.05-0.34-0.06-0.49c-0.46-0.36-0.55-0.91-0.72-1.42c-0.11-0.11-0.18-0.24-0.31-0.32c-0.1-0.04-0.2-0.06-0.3-0.06
		c-0.26-0.02-0.51-0.09-0.77-0.13c-0.31-0.04-0.65-0.06-0.93,0.09c-1.03,0.55-1.03-0.06-0.92-0.8c0.16-1.05,0.33-2.1,0.03-3.15
		c-0.37-0.64-1.03-0.48-1.61-0.55c-4.56,0.2-9.05-0.81-13.6-0.75c-0.43,0.01-0.97-0.01-1.12-0.51c-0.36-1.21-1.08-2.32-1.05-3.64
		c-0.27-0.83-1.13-0.04-1.52-0.55c-0.08-0.06-0.17-0.13-0.25-0.19c-0.37-0.13-0.75-0.31-1.02,0.18c1.65,1.36,2.29,3.19,2.5,5.25
		c0.13,1.28,0.08,2.55,0.09,3.83c0.02,2.42,0,2.42-2.33,1.97c-0.18-0.03-0.35-0.06-0.54-0.06c-0.12,0-0.23,0.02-0.34,0.07
		c-0.25,0.21-0.06,0.55-0.25,0.77c-0.25,0.31-0.5,0.62-0.75,0.93c-0.1,0.27,0.07,0.32,0.28,0.35c1.34-0.83,2.73-0.68,4.14-0.24
		c0.57,0.18,1.14,0.37,1.68,0.62c1.86,0.82,3.82,1.39,5.68,2.19c1.04,0.45,2.15,0.87,3.35,0.81c0.36,0,0.72,0.01,1.08-0.06
		c0.62-0.15,0.99-0.64,1.44-1.02c0.22-0.19,0.38-0.64,0.72-0.45c0.18,0.1-0.01,0.52-0.04,0.79c-0.05,0.4-0.12,0.81,0.28,1.08
		c0.4,0.27,0.76,0.03,1.1-0.16c0.35-0.19,0.66-0.44,1.02-0.64c0.13-0.04,0.23-0.05,0.22,0.11c-0.2,0.42-0.5,0.8-0.64,1.26
		c-0.26,0.85,0.11,1.24,0.96,1.02c0.35-0.09,0.65-0.3,1-0.38c0.25-0.05,0.59-0.27,0.74,0.05c0.09,0.19-0.24,0.37-0.41,0.53
		c-1.26,1.23-1.24,1.38,0.27,2.14c0.27,0.14,0.6,0.14,0.05,0.45c-0.88,0.49-0.88,0.92-0.13,1.62c0.2,0.19,0.45,0.33,0.66,0.51
		c0.18,0.16,0.27,0.4-0.05,0.39c-0.96-0.03-1.6,0.94-2.59,0.79c-0.11,0.01-0.21,0.02-0.31,0.05c-0.31,0.1-0.48-0.17-0.71-0.29
		c-0.05,0.02-0.1,0.03-0.14,0.05c-0.07,0.27-0.27,0.43-0.52,0.38c-2.51-0.48-4.9,0.04-7.27,0.79c-0.45,0.14-0.84,0.1-1.28-0.28
		c-3.65-3.16-7.61-5.6-12.75-4.98c-0.12-0.15-0.33-0.36-0.46-0.2c-0.25,0.32-0.27,0.7,0.08,1.02c0.16,0.05,0.32,0.06,0.48,0.04
		c4.23-0.5,7.67,1.29,10.88,3.75c0.22,0.17,0.54,0.33,0.5,0.62c-0.06,0.39-0.47,0.37-0.77,0.43c-1.69,0.36-3.25,0.56-4.84-0.67
		c-1.5-1.16-3.36-1.79-5.37-1.53c-0.22,0.15-0.35,0.34-0.27,0.63l0,0c0.13,0.12,0.27,0.23,0.44,0.29c1.99,0.39,3.91,0.96,5.58,2.18
		c0.14,0.06,0.31,0,0.41,0.14c-0.12-0.06-0.25-0.05-0.37-0.05c-0.19-0.01-0.37,0.01-0.55,0.05c-1.2,0.32-2.41,0.23-3.62,0.14
		c-0.17,0.08-0.31,0.18-0.23,0.41c0.72,1.12,1.46,2.23,1.67,3.58c0.42,0.11,0.45-0.25,0.58-0.48c0.56-1.07,1.75-0.89,2.63-1.34
		c0.16-0.04,0.32-0.09,0.48-0.15c0.22-0.08,0.44-0.14,0.66-0.21c0.65-0.21,1.33-0.3,1.97-0.53c0.58-0.14,1.19,0.02,1.77-0.14
		c3.52-1,7.07-0.54,10.63-0.28c0.42,0.11,0.87,0.04,1.28,0.18c0.11,0.03,0.23,0.05,0.34,0.07c0.32,0.05,0.65,0.06,0.96,0.16
		c0.1,0.03,0.2,0.05,0.31,0.07c0.25,0.05,0.5,0.1,0.74,0.2c0.09,0.04,0.19,0.08,0.29,0.11c0.72,0.22,1.18,0.92,1.93,1.08
		c0.17,0,0.32-0.06,0.44-0.19c0.16-0.96,0.33-1.92,0.49-2.88c-0.08-0.08-0.16-0.15-0.25-0.21c-1.06-0.27-1.93-0.97-2.99-1.3
		c-0.09-0.18,0.07-0.07,0.1-0.1c1.24-0.16,1.67-0.5,1.37-1.37c-0.33-0.97,0.09-1.39,0.8-1.79c0.47-0.26,0.91-0.85,1.46-0.58
		c0.46,0.23,0.03,0.88,0.21,1.31c0.08,0.22,0.14,0.46,0.46,0.42C495.01,254.91,495.43,253.32,494.56,251.72z M487.56,240.8
		c-0.15,1.19-0.29,2.37-0.35,3.57c-0.02,0.46-0.2,0.74-0.54,0.99c-1.42,1.03-2.84,2.05-4.24,3.1c-0.72,0.54-1.52,0.55-2.27,0.28
		c-2.39-0.86-4.72-1.88-7.13-2.68c-1.1-0.37-1.39-1-1.33-2.01c0.04-0.6,0.01-1.19,0.01-1.79c-0.33-3.07-0.33-3.05,2.72-3.06
		c2.4-0.01,4.78,0.25,7.15,0.56c1.68,0.21,3.34,0.17,4.99-0.01C487.52,239.64,487.65,240.01,487.56,240.8z"/>
	<path style="fill-rule:evenodd;clip-rule:evenodd;fill:#E3A75A;" d="M470.79,233.94c2.57-0.44,5.17-0.68,7.3-2.5
		c1.65-1.41,3.67-1.23,5.48,0.3c0.3,0.25,0.61,0.51,0.91,0.76c0.79,1.08,2.02,0.77,3.08,0.92c1.04,0.15,1.55,0.37,1.05,1.57
		c-0.37,0.87-0.56,1.84-0.65,2.78c-0.09,0.93-0.55,1.31-1.38,1.43c-4.78,0.22-9.5-0.83-14.28-0.71c-0.51,0.01-0.8-0.17-0.87-0.73
		c-0.13-1.07-0.44-2.11-1.03-3.02C470.02,234.13,470.48,234.11,470.79,233.94z"/>
	<path style="fill-rule:evenodd;clip-rule:evenodd;fill:#5CA773;" d="M464.81,257.26c-0.54-0.72-0.28-1.68-0.73-2.43
		c-0.07-0.04-0.1-0.08-0.08-0.13c0.02-0.05,0.04-0.08,0.06-0.08c0.01-0.09,0.01-0.18,0.02-0.26c3.21-0.94,6,0.34,8.72,1.75
		c1.15,0.6,2.16,1.48,3.23,2.25c0.25,0.18,0.56,0.4,0.46,0.77c-0.09,0.33-0.46,0.27-0.71,0.33c-2.04,0.51-3.98,0.98-5.91-0.66
		C468.51,257.64,466.65,257.26,464.81,257.26z"/>
	<path style="fill-rule:evenodd;clip-rule:evenodd;fill:#5DA773;" d="M481.59,249.56c0.42,1.33,1.79,1.62,2.7,2.39
		c1.31,1.11,2.36,2.27,2.14,4.14c-0.02,0.15,0.01,0.42-0.06,0.44c-0.26,0.1-0.28-0.19-0.39-0.33c-1.77-2.39-4.04-4.14-6.8-5.23
		c-2.69-1.07-5.36-2.21-8.09-3.17c-1.22-0.43-2.58-0.53-3.9-0.42c-1.05,0.09-0.94-0.31-0.5-0.95c1.5-1.74,3.25-0.8,4.83-0.3
		c2.74,0.88,5.41,1.99,8.1,3.03C480.26,249.42,480.9,249.57,481.59,249.56z"/>
	<path style="fill-rule:evenodd;clip-rule:evenodd;fill:#9AC6AB;" d="M467.7,244.51c-0.03-2.26,0.2-4.53-0.21-6.78
		c-0.11-0.54-0.13-1.12-0.35-1.61c-0.55-1.25-0.08-2.03,1.03-2.58c1.03-0.11,1.37,0.71,1.73,1.38c1.65,3.15,0.97,6.6,1.16,9.94
		c0.03,0.59-0.49,0.4-0.8,0.35c-0.78-0.12-1.55-0.3-2.33-0.45C467.84,244.67,467.76,244.6,467.7,244.51L467.7,244.51z"/>
	<path style="fill-rule:evenodd;clip-rule:evenodd;fill:#9AC6AB;" d="M491.42,239.45c-0.57,1.33-0.49,2.73-0.43,4.12l-0.01,0.02
		c-0.17,0.09-0.34,0.11-0.5-0.01c-0.52-0.12-1.1-0.15-1.49,0.17c-1.49,1.24-1.15,0.01-1.1-0.79c0.06-1.06,0.15-2.13,0.22-3.19
		c0.37-1.94,0.6-3.91,1.42-5.74c0.25-0.56,0.38-1.39,1.18-1.2c0.85,0.2,1.54,0.66,1.51,1.82
		C492.17,236.3,491.52,237.83,491.42,239.45z"/>
	<path style="fill-rule:evenodd;clip-rule:evenodd;fill:#D7841F;" d="M487.14,258.19c-0.08-1.19-0.03-2.41-0.26-3.57
		c-0.41-2.08-2.27-2.97-3.74-4.16c-0.32-0.26-0.74-0.4-0.29-0.87c0.6-0.57,1.2-1.15,1.81-1.7c0.2-0.18,0.49-0.56,0.61,0.1
		c0.13,0.72-0.81,1.68,0.14,2.07c0.43,0.18,1.26-0.63,1.91-1c0.32-0.13,0.44,0.06,0.51,0.33c-0.14,0.79-1.27,1.5-0.82,2.1
		c0.5,0.66,1.26-0.46,1.99-0.47c0.42-0.01,1.18-0.05,1.22,0.08c0.13,0.49-0.48,0.63-0.74,0.95c-0.17,0.22-0.39,0.41-0.62,0.56
		c-0.91,0.6-0.45,0.91,0.24,1.16c0.22,0.08,0.48,0.09,0.69,0.19c0.3,0.14,0.88,0.02,0.84,0.49c-0.03,0.41-0.56,0.34-0.9,0.39
		c-0.3,0.05-0.71,0-0.77,0.4c-0.05,0.35,0.25,0.56,0.51,0.75c0.13,0.09,0.29,0.15,0.4,0.26c0.33,0.32,1.02,0.47,0.88,1.02
		c-0.14,0.55-0.76,0.22-1.15,0.25C488.72,257.57,488.16,258.73,487.14,258.19z"/>
	<path style="fill-rule:evenodd;clip-rule:evenodd;fill:#379851;" d="M474.87,260.38c5.81-2.03,11.6-2.99,17.32,0.31
		c0.38,0.22,0.85,0.32,0.53,0.94c-0.37,0.72-0.74,0.18-1.05,0c-2.27-1.29-4.82-1.27-7.29-1.47c-2.72-0.22-5.47-0.23-8.17,0.43
		c-0.41,0.1-0.86,0.03-1.3,0.04c-0.04-0.04-0.07-0.08-0.11-0.12C474.82,260.47,474.84,260.42,474.87,260.38z"/>
	<path style="fill-rule:evenodd;clip-rule:evenodd;fill:#5DA672;" d="M492.15,245.72c0.07,0.57,0.33,1.04,0.72,1.45
		c-1.53,1.13-2.67,2.75-4.46,3.55c-0.2,0.09-0.57,0.17-0.65,0.07c-0.19-0.22,0.14-0.38,0.23-0.58c0.4-0.82,1.88-2.06-0.67-1.76
		c-0.45,0.05-0.18-0.21-0.13-0.34C487.79,246.66,490.53,245.34,492.15,245.72z"/>
	<path style="fill-rule:evenodd;clip-rule:evenodd;fill:#5DA773;" d="M494.29,256.01c-0.41,1.35-0.81,2.71-1.22,4.06
		c-1.3,0.01-2.18-1.02-3.34-1.34c-0.02-0.23,0.13-0.38,0.26-0.53c1.58-0.09,1.72-0.29,1.05-1.63c-0.1-0.21-0.35-0.43-0.05-0.6
		c0.98-0.57,1.73-1.52,2.91-1.75c0.54-0.11,0.74,0.06,0.57,0.63C494.35,255.22,494.34,255.62,494.29,256.01z"/>
	<path style="fill-rule:evenodd;clip-rule:evenodd;fill:#5DA773;" d="M466.51,260.56c-0.68-0.83-1.21-1.74-1.43-2.8
		c2.1,0.29,4.07,0.92,5.73,2.32c0.64,0.54-0.3,0.36-0.49,0.5C469.05,260.85,467.78,261.3,466.51,260.56z"/>
	<path style="fill-rule:evenodd;clip-rule:evenodd;fill:#5DA572;" d="M489.96,252.44c0.06,0.44,0.25,0.56,0.62,0.26
		c0.46-0.37,0.93-0.74,1.38-1.12c1.37-1.15,1.62-1.11,2.34,0.4c0.23,1.05,0,1.7-1.22,1.95c-0.59,0.12-1.09,0.72-1.63,1.11
		c-0.17-0.17-0.12-0.36-0.03-0.54c-0.33-1.12-1.47-0.86-2.2-1.3c0.15-0.28,0.39-0.49,0.54-0.76l0,0
		C489.83,252.35,489.89,252.35,489.96,252.44z"/>
	<path style="fill-rule:evenodd;clip-rule:evenodd;fill:#60A573;" d="M489.71,244.01c0.79,0.05,1.39,0.24,1.49,0.75
		c0.08,0.43-0.58,0.36-0.91,0.48c-1.84,0.67-3.15,1.94-4.16,3.57c-0.08,0.13-0.19,0.23-0.28,0.34c-0.06-0.08-0.19-0.17-0.18-0.22
		c0.22-0.77,0.04-2.03,0.37-2.27C487.29,245.73,488.33,244.42,489.71,244.01z"/>
	<path style="fill-rule:evenodd;clip-rule:evenodd;fill:#5EA573;" d="M493.12,248.36c0.08,0.56,0.16,1.13,0.24,1.69
		c-0.87,0.59-1.73,1.17-2.59,1.76c-0.14-0.1-0.16-0.21-0.06-0.35c0.04-0.19,0.15-0.38,0.12-0.56c-0.04-0.34-0.96-0.46-0.31-0.98
		C491.32,249.28,491.75,248.02,493.12,248.36z"/>
	<path style="fill-rule:evenodd;clip-rule:evenodd;fill:#379851;" d="M468.58,262.66c-0.6,0.2-0.82-0.15-0.97-0.58
		c-0.23-0.67,0.34-0.45,0.63-0.51c2.05-0.41,5.91-1.23,7.96-1.63c0.04,0.04,1.19,0.27,0.6,0.53
		C475.55,260.98,470,262.19,468.58,262.66z"/>
	<path style="fill-rule:evenodd;clip-rule:evenodd;fill:#1B1B11;" d="M486.21,257.69c0-0.26,0.1-0.49,0.39-0.38
		c0.43,0.16,0.21,0.58,0.29,0.89C485.98,258.96,486.54,257.72,486.21,257.69z"/>
	<path style="fill-rule:evenodd;clip-rule:evenodd;fill:#5DA773;" d="M489.98,258.2c-0.09,0.18-0.17,0.35-0.26,0.53
		c-0.23-0.08-0.67,0-0.56-0.38C489.27,258.02,489.69,258.17,489.98,258.2z"/>
	<path style="fill-rule:evenodd;clip-rule:evenodd;fill:#62898D;" d="M490.71,251.45c0.02,0.12,0.04,0.23,0.06,0.35
		c-0.27,0.21-0.54,0.43-0.81,0.64l-0.1,0l-0.1,0C490.08,252.11,490.39,251.78,490.71,251.45z"/>
	<path style="fill-rule:evenodd;clip-rule:evenodd;fill:#5DA773;" d="M490.75,255.35c-0.25,0.24-0.51,0.47-0.89,0.26
		c-0.05-0.03-0.08-0.11-0.12-0.17c0.32-0.06,0.63-0.11,0.94-0.17L490.75,255.35z"/>
	<path style="fill-rule:evenodd;clip-rule:evenodd;fill:#433F7C;" d="M487.83,249.38c-0.17-0.11-0.34-0.22-0.51-0.33
		c0.17-0.18,0.37-0.28,0.58-0.13C488.13,249.09,487.95,249.25,487.83,249.38z"/>
	<path style="fill-rule:evenodd;clip-rule:evenodd;fill:#62898D;" d="M489.76,252.44c0,0.38-0.21,0.61-0.54,0.76
		C489.03,252.68,489.51,252.64,489.76,252.44z"/>
	<path style="fill-rule:evenodd;clip-rule:evenodd;fill:#5DA773;" d="M491.42,254.5c0.01,0.18,0.02,0.36,0.03,0.54
		c-0.24,0.1-0.47,0.21-0.71,0.31c0,0-0.07-0.07-0.07-0.07C490.92,255.02,491.17,254.76,491.42,254.5z"/>
	<path style="fill-rule:evenodd;clip-rule:evenodd;fill:#59574B;" d="M490.48,243.58c0.17,0,0.33,0.01,0.5,0.01
		C490.8,243.87,490.64,243.78,490.48,243.58z"/>
	<path style="fill-rule:evenodd;clip-rule:evenodd;fill:#4D4A3C;" d="M467.69,244.5c0.08,0.08,0.15,0.17,0.23,0.26
		C467.85,244.67,467.77,244.59,467.69,244.5z"/>
	<path style="fill-rule:evenodd;clip-rule:evenodd;fill:#76B38A;" d="M469.1,267.09c1.13-0.68,2.37,0.05,3.15,1.83
		c1.16,2.66,1.06,5.4,0.61,8.18c-0.83,5.18-2.52,10.08-4.55,14.89c-1.1,2.6-1.16,5.54-2.34,8.11c-1.08,2.35-0.97,5.06-2.38,7.29
		c-0.74,0.24-0.59,0.93-0.71,1.46c-0.52,2.32-0.59,4.69-0.84,7.04c-0.05,0.46-0.06,0.95-0.34,1.35c-0.4,4.36-0.97,8.71-0.72,13.1
		c0.04,0.75-0.21,0.92-0.86,0.83c-0.56-0.08-1.09-0.21-1.57-0.53c-0.09-0.07-0.18-0.14-0.27-0.19c-0.07,0-0.13-0.03-0.18-0.07
		c0.77-3.41,0.54-6.9,0.81-10.35c0.25-3.19,1.22-6.18,2.33-9.14c0.27-0.71,0.49-1.42,0.63-2.18c0.69-3.95,1.98-7.74,3.06-11.58
		c1.73-6.16,4.02-12.14,5.68-18.32c0.48-1.81,0.9-3.65,0.8-5.56c-0.04-0.81-0.21-1.58-0.49-2.33c-0.28-0.75-0.75-1.21-1.6-1.17
		c-0.23-0.63,0.07-1.31-0.18-1.94C469.13,267.57,469.11,267.33,469.1,267.09z"/>
	<path style="fill-rule:evenodd;clip-rule:evenodd;fill:#6CAE81;" d="M469.37,269.71c0.31-0.63,0.63-0.8,1.16-0.16
		c1.52,1.85,1.44,4.02,1.08,6.15c-0.98,5.88-3.34,11.37-5.01,17.06c-1.53,5.19-3.29,10.31-4.32,15.63
		c-0.49,2.56-1.64,4.88-2.31,7.37c-0.68,2.53-0.66,5.11-0.91,7.68c-0.19,1.86-0.21,3.73-0.25,5.6c-0.01,0.61-0.46,0.9-0.71,1.33
		c-0.66-0.22-0.82-0.8-1.01-1.37c0.04-3.76-0.18-7.52,0.32-11.26c0.16-0.21,0.34,0.43,0.45,0.02c1.19-4.47,2.7-8.85,3.86-13.34
		c1.01-3.9,2.25-7.74,3.35-11.61c1.43-5.03,3.32-9.91,4.61-14.98c0.43-1.67,0.65-3.37,0.5-5.1c-0.05-0.56,0.01-1.23-0.88-1.31
		c-0.46-0.04-0.31-0.45-0.19-0.75c0.02-0.24,0.04-0.48,0.06-0.72C469.2,269.84,469.26,269.76,469.37,269.71z"/>
	<path style="fill-rule:evenodd;clip-rule:evenodd;fill:#75B289;" d="M464.06,333.53c-0.24-0.73-0.29-1.49-0.21-2.25
		c0.09-0.86,0.25-1.54,1.45-1.62c1.77-0.11,2.79-1.42,2.84-3.52c0.09-3.98,0.92-7.91,0.91-11.87c-0.01-2.9-0.26-5.82-0.15-8.72
		c0.11-2.99,1.33-5.71,2.38-8.45c0.13-0.33,0.37-0.74,0.77-0.62c0.52,0.15,0.68,0.7,0.64,1.17c-0.13,1.58-0.42,3.15-0.49,4.74
		c-0.12,2.63-1.14,5.29,0.54,7.89c0.62,0.96-0.17,2.13-0.81,3.06c-0.29,0.42-0.58,0.84-0.87,1.26c-0.05-0.29,0.18-0.79-0.21-0.82
		c-0.44-0.04-0.27,0.48-0.3,0.76c-0.33,2.73-0.49,5.48-0.52,8.24c-0.18,0.66-0.06,1.34-0.08,2.01c-0.07,2.67-0.97,4.88-3.43,6.22
		c-0.72,0.39-1.1,0.98-1.17,1.8C465.29,333.63,464.85,333.92,464.06,333.53z"/>
	<path style="fill-rule:evenodd;clip-rule:evenodd;fill:#69AC7E;" d="M492.17,332.37c0,0.37,0,0.74,0,1.11
		c-0.5-2.36-0.51-4.76-0.51-7.16c0-1.59-0.02-3.17-0.25-4.75c-0.31-1.19-0.31-2.43-0.45-3.64c-0.02-0.2,0-0.39-0.01-0.59
		c0,0.16-0.01,0.32,0,0.48c0.39,3.18-0.01,6.37,0.12,9.56c0.01,0.31-0.07,0.64,0.1,0.94c0.01,0.95,0.01,1.89,0.02,2.84
		c-0.97,0.48-1.41-0.26-1.8-0.88c-0.7-1.13-0.81-2.4-0.65-3.71c0.33-2.55,0.32-5.09-0.18-7.62c-0.17-0.83-0.2-1.67-0.07-2.51
		c0.25-1.56,1.55-2.55,3.08-2.39c1.56,0.16,2.45,1.53,1.77,2.93c-1,2.07-0.8,3.85,0.94,5.4c0.12,0.11-0.02-0.04,0.08,0.09
		c2.18,2.57,1.13,8.26-1.77,9.54C492.45,332.1,492.3,332.22,492.17,332.37z"/>
	<path style="fill-rule:evenodd;clip-rule:evenodd;fill:#76B38A;" d="M475.83,335.7c-0.6-0.66-0.96-1.43-1.2-2.3
		c-0.28-1-0.03-1.69,0.87-2.19c0.92-0.52,1.28-1.38,1.3-2.4c0.08-4.74,0.17-9.49,0.24-14.23c0.02-1.22,0.41-2.35,0.91-3.43
		c0.41-0.88,0.84-0.77,1.35,0.01c0.87,1.34,0.72,2.76,0.59,4.24c-0.26,3.04-0.79,6.13,1.05,8.93c0.1,0.16,0.22,0.41,0.17,0.56
		c-0.67,1.93,0.43,3.56,0.85,5.3c0.38,1.58,0.03,3.08-0.57,4.54c-0.18,0.45-0.56,0.61-0.98,0.75c-0.05,0-0.11,0-0.16,0
		c-0.04-0.22-0.08-0.44-0.12-0.66c-0.03-0.08-0.07-0.17-0.03-0.23c1.25-2.13,0.96-4.27,0.06-6.42c-0.12-0.29-0.23-0.62-0.22-0.93
		c0.03-1.68-0.49-3.21-1.27-4.67c-0.11-0.21-0.19-0.44-0.22-0.68c-0.02-0.12,0.02-0.23,0.1-0.33c-0.09,0.08-0.15,0.17-0.17,0.28
		c-0.11,0.67-0.34,1.33-0.25,2.01c0.17,1.39-0.02,2.78-0.04,4.17c-0.02,1.33-0.34,2.59-1.21,3.68c-1.2,1.5-1.13,2.15,0.26,3.58
		c0.12,0.12,0.19,0.25,0.15,0.42C476.79,335.7,476.31,335.7,475.83,335.7z"/>
	<path style="fill-rule:evenodd;clip-rule:evenodd;fill:#77B38B;" d="M492.17,331.88c2.63-1.63,3.63-4.39,2.77-7.64
		c-0.2-0.76-0.6-1.36-1.15-1.92c-1.52-1.52-1.82-3.1-0.92-5.01c0.37-0.79,0.77-1.52,0.05-2.31c-0.64-0.71-1.46-0.79-2.31-0.56
		c-1.08,0.29-1.68,1.05-1.79,2.15c-0.09,0.99,0.05,1.98,0.21,2.97c0.4,2.45,0.36,4.9,0.04,7.37c-0.29,2.27,0.6,3.89,2.14,4.22
		c0.23,0.89,0.39,1.78,0.03,2.67c-0.22-0.23-0.17-0.48-0.05-0.73c0-0.24,0-0.48,0-0.72c-2.43-0.83-3.43-2.57-3.03-5.19
		c0.21-1.34,0.41-2.68,0.42-4.04c0.02-1.69-0.24-3.32-0.66-4.95c-0.29-1.16-0.28-2.3,0.2-3.4c0.56-1.28,1.68-2.01,3.04-1.92
		c1.38,0.09,2.44,0.76,3.03,2.03c0.34,0.73,0.21,1.45-0.19,2.17c-1.18,2.12-0.96,3.25,0.84,4.89c0.62,0.56,0.92,1.26,1.04,2.09
		c0.23,1.6,0.09,3.2-0.17,4.76c-0.22,1.35-0.79,2.61-2.1,3.33c-0.36,0.2-0.74,0.54-1.21,0.2l0,0
		C492.24,332.24,492.32,332.01,492.17,331.88z"/>
	<path style="fill-rule:evenodd;clip-rule:evenodd;fill:#96C3A9;" d="M491.18,333.1c0.02,0.24,0.03,0.48,0.05,0.73
		c0.16,1.29-0.6,2-1.7,2.22c-2.8,0.58-5.61,0.63-8.41-0.1c0.98-0.13,1.34-0.81,1.7-1.66c0.94-2.24,3.12-2.76,5.07-1.33
		c0.38,0.28,0.8,0.51,1.21,0.75C490.02,334.26,490.75,334.18,491.18,333.1z"/>
	<path style="fill-rule:evenodd;clip-rule:evenodd;fill:#6DAE82;" d="M477.27,335.71c-1.46-0.71-2.41-2.64-0.75-4.17
		c1.05-0.96,1.07-2.32,1.25-3.63c0.26-1.93-0.31-3.88,0.21-5.79c0.08-0.3,0.06-0.67,0.39-0.79c0.06-0.02,0.3,0.41,0.43,0.65
		c1.64,2.85,1.54,6.19,2.49,9.24c0.38,1.22-0.2,2.58-1.17,3.6c-0.82-1.17-0.47-2.63-0.95-3.88c-0.51-0.63-0.25-1.37-0.3-2.06
		c-0.05-0.71,0.02-1.42-0.07-2.13c-0.02-0.16,0.05,0-0.04-0.1c-0.07-0.07,0.02,0.12-0.04,0.16c-0.16,0.56-0.19,1.13,0,1.69
		c0.05,0.23,0.08,0.47,0.09,0.71c0.05,0.75-0.17,1.4-0.68,1.97c-0.37,0.42-0.69,0.88-0.94,1.38c-0.53,1.05-0.29,1.81,0.74,2.37
		c0.23,0.12,0.57,0.14,0.54,0.53c-0.13,0.02-0.26,0.04-0.39,0.06c-0.12,0.01-0.2,0.11-0.3,0.16
		C477.61,335.68,477.44,335.69,477.27,335.71z"/>
	<path style="fill-rule:evenodd;clip-rule:evenodd;fill:#67AB7C;" d="M464.06,333.53c0.72,0.13,1.08-0.15,0.97-0.9
		c-0.13-0.9,0.38-1.52,1.07-1.83c2.82-1.3,3.5-3.77,3.73-6.53c0.04-0.5-0.17-1.04,0.2-1.5c0.07,3.23-0.04,6.46,0.29,9.67
		c0.12,1.18-0.19,1.85-1.67,1.67c-1.6-0.19-3.24-0.12-4.82-0.54C463.91,333.56,463.99,333.54,464.06,333.53z"/>
	<path style="fill-rule:evenodd;clip-rule:evenodd;fill:#93C1A6;" d="M497.64,321.63c0.15-0.48-0.13-1.01,0.18-1.47
		c0.04,0.47,0.1,0.94,0.11,1.41c0.04,2.22,0.8,4.13,2.25,5.82c0.33,0.38,0.72,0.58,1.08,0.86c-0.07,0.1-0.11,0.22-0.2,0.29
		c-0.86,0.63-1.82,1.57-2.81,1.19c-0.79-0.3-0.2-1.56-0.31-2.39c-0.12-0.85-0.04-1.73-0.04-2.6c-0.26-0.72,0.08-1.49-0.2-2.21
		C497.68,322.23,497.66,321.93,497.64,321.63z"/>
	<path style="fill-rule:evenodd;clip-rule:evenodd;fill:#68AC7D;" d="M478.46,335.44c-2.12-0.67-2.46-1.75-1.21-3.67
		c0.52-0.8,1.5-1.39,1.25-2.57c0.72,0.25,0.41,0.85,0.43,1.32s-0.23,0.93,0.01,1.4c0.07,0.63,0.02,1.31,0.24,1.88
		C479.52,334.67,479.24,335.13,478.46,335.44z"/>
	<path style="fill-rule:evenodd;clip-rule:evenodd;fill:#3C3F35;" d="M461.7,317.25c0.23-3.36,0.4-6.73,1.28-10
		c0.07-0.27,0.05-0.79,0.47-0.7c0.38,0.09,0.09,0.55,0.14,0.84c-1.01,3.11-0.99,6.38-1.4,9.58c-0.06,0.5-0.17,1.01-0.25,1.51
		C461.84,318.08,462.07,317.61,461.7,317.25z"/>
	<path style="fill-rule:evenodd;clip-rule:evenodd;fill:#454636;" d="M491.18,328.32c-0.37-1.12-0.17-2.28-0.18-3.42
		c-0.03-2.86-0.03-5.72-0.49-8.55c-0.03-0.21-0.15-0.56,0.18-0.57c0.39-0.01,0.49,0.37,0.48,0.7c-0.07,1.71,0.45,3.39,0.24,5.11
		c-0.48,1.75-0.09,3.54-0.2,5.31C491.18,327.36,491.19,327.84,491.18,328.32z"/>
	<path style="fill-rule:evenodd;clip-rule:evenodd;fill:#404134;" d="M478.94,331.92c-0.15-0.9-0.29-1.81-0.44-2.71
		c-0.01-0.23-0.01-0.45-0.02-0.68c-0.21-0.55-0.15-1.11-0.03-1.67c0.22-0.59-0.45-1.5,0.31-1.74c0.28-0.09,0.25,1.11,0.32,1.68
		c0.16,1.37,0.08,2.76,0.09,4.14C478.86,331.21,479.01,331.59,478.94,331.92z"/>
	<path style="fill-rule:evenodd;clip-rule:evenodd;fill:#84BA99;" d="M497.7,322.53c0.45,0.7,0.15,1.47,0.2,2.21
		C497.58,324.02,497.68,323.27,497.7,322.53z"/>
	<path style="fill-rule:evenodd;clip-rule:evenodd;fill:#ACC7CE;" d="M461.95,332.12c0.41,0.08,0.85,0.13,0.46,0.72
		C462.06,332.72,461.89,332.5,461.95,332.12z"/>
	<path style="fill-rule:evenodd;clip-rule:evenodd;fill:#6CAE81;" d="M458.28,330.46c0.09,0.07,0.18,0.13,0.27,0.19
		C458.46,330.58,458.37,330.52,458.28,330.46z"/>
	<path style="fill-rule:evenodd;clip-rule:evenodd;fill:#68AC7D;" d="M477.77,335.67c0.1-0.05,0.2-0.11,0.3-0.16
		C477.97,335.56,477.87,335.62,477.77,335.67z"/>
	<path style="fill-rule:evenodd;clip-rule:evenodd;fill:#6DAE82;" d="M480.24,335.47c0.05,0,0.11,0,0.16,0c0,0.07,0.01,0.13,0,0.2
		C480.35,335.61,480.3,335.54,480.24,335.47z"/>
	<path style="fill-rule:evenodd;clip-rule:evenodd;fill:#66AB7B;" d="M501.32,316.99c0.28,2.63,0.76,5.24,0.71,7.9
		c-0.03,0.06-0.06,0.12-0.08,0.18c-0.71,0.5-1.02-0.03-1.28-0.53c-0.26-0.5-0.34-1.07-0.4-1.62c-0.48-4.33-1.86-8.42-3.43-12.45
		c-0.59-1.51-0.99-3.09-0.91-4.68c0.14-3.01-0.93-5.71-1.75-8.51c-1.71-5.87-3.88-11.62-4.9-17.67c-0.39-2.32-0.59-4.68-0.13-7.04
		c0.13-0.67,0.33-1.32,0.71-1.9c0.18-0.27,0.4-0.55,0.77-0.46c0.39,0.1,0.19,0.46,0.22,0.72c0.02,0.16,0.02,0.32,0.09,0.46
		c0,0,0.09,0,0.09,0c-0.62,3.07,0.56,5.89,1.56,8.59c2.88,7.77,4.41,15.86,6.34,23.86C499.97,308.19,500.62,312.59,501.32,316.99z"
		/>
	<path style="fill-rule:evenodd;clip-rule:evenodd;fill:#66AB7B;" d="M469.11,270.67c0.05,0.17,0.11,0.34,0.16,0.51
		c1.14-0.98,1.05,0.29,1.14,0.72c0.36,1.78,0.16,3.56-0.23,5.32c-0.93,4.16-2.55,8.12-3.73,12.2c-2.08,7.18-4.15,14.36-6.19,21.54
		c-0.75,2.63-1.93,5.15-2.19,7.92c-0.01,0.13-0.14,0.24-0.22,0.36c-0.08-0.12-0.2-0.22-0.23-0.35c-0.08-0.38,0.11-0.81-0.21-1.14
		c-0.01-0.34-0.13-0.7,0.18-0.99c0.14-0.14,0.17-0.29,0.05-0.46c0.57-4.82,1.44-9.59,2.45-14.34c0.36-1.71,0.72-3.41,1.08-5.12
		c1.01-3.43,2.1-6.83,3-10.29c1.1-4.2,2.97-8.13,4.18-12.29C468.7,273.09,468.87,271.87,469.11,270.67z"/>
	<path style="fill-rule:evenodd;clip-rule:evenodd;fill:#6CAE81;" d="M457.64,316.3c0.22,0.18,0.18,0.33-0.05,0.46
		C457.61,316.6,457.62,316.45,457.64,316.3z"/>
	<path style="fill-rule:evenodd;clip-rule:evenodd;fill:#E0A65A;" d="M493.21,238.3c-1.12,0.28-0.95-0.39-0.83-1.07
		c0.43-2.44,0.82-2.62,3.06-1.41c0.57,0.31,1.04,0.73,1,1.37c-0.04,0.67-0.75,0.63-1.22,0.75
		C494.55,238.11,493.87,238.18,493.21,238.3z"/>
	<path style="fill-rule:evenodd;clip-rule:evenodd;fill:#66AB7B;" d="M469.37,269.71c-0.07,0.08-0.13,0.16-0.2,0.23
		c-0.01-0.71-0.02-1.43-0.03-2.14C469.58,268.4,469.26,269.08,469.37,269.71z"/>
	<path style="fill-rule:evenodd;clip-rule:evenodd;fill:#DFA65B;" d="M465.71,238.1c-0.63-0.08-1.25-0.17-1.88-0.23
		c-0.4-0.04-0.88-0.01-0.84-0.58c0.03-0.46,0.06-0.99,0.67-1.13c0.26-0.06,0.5-0.08,0.76-0.25c1.76-1.14,1.73-1.12,2.35,0.8
		C467.12,237.77,467.16,238.45,465.71,238.1z"/>
	<path style="fill-rule:evenodd;clip-rule:evenodd;fill:#66AB7B;" d="M502.03,324.9c0.25,0.81,0.33,1.62-0.02,2.42
		c-0.04-0.05-0.08-0.1-0.13-0.15c-0.16-0.22-0.2-0.48-0.21-0.74c-0.03-0.53,0-1.04,0.32-1.49L502.03,324.9z"/>
	<path style="fill-rule:evenodd;clip-rule:evenodd;fill:#76B38A;" d="M501.77,327.57c0-0.08,0-0.17,0-0.25
		c0.06-0.07,0.13-0.08,0.2-0.02l0.04,0.02C501.92,327.4,501.85,327.49,501.77,327.57z"/>
	<path style="fill-rule:evenodd;clip-rule:evenodd;fill:#76B38A;" d="M501.98,324.94c0,0.56,0,1.12,0,1.67
		c-0.3,0.8-0.75,0.75-1.18,0.14c-0.69-0.98-1.27-2.06-1.42-3.26c-0.37-3.04-1.32-5.91-2.3-8.78c-0.59-1.7-1.15-3.41-1.75-5.1
		c-0.31-0.87-0.5-1.79-0.4-2.71c0.44-4.01-1.16-7.57-2.28-11.27c-1.98-6.52-4.67-12.88-5.09-19.79c-0.18-2.98,0.02-5.94,2.04-8.41
		c0.52-0.63,1.12-1.2,2.03-0.6c-0.16,1.19-0.32,2.39-0.47,3.58c-0.08,0.33-0.16,0.65-0.24,0.98c-0.39-0.22,0.04-0.94-0.43-0.96
		c-0.44-0.02-0.45,0.58-0.61,0.93c-0.88,1.94-0.72,4-0.54,6.01c0.57,6.6,2.93,12.8,4.95,19.01c1.34,4.13,1.64,8.29,2.46,12.43
		c0.42,2.12,1.4,4.13,2.11,6.19c1,2.91,1.46,5.93,1.95,8.95C500.91,324.53,500.97,325.36,501.98,324.94z"/>
	<path style="fill-rule:evenodd;clip-rule:evenodd;fill:#82B996;" d="M491.64,266.83c-1.35,0.05-2.56,1.37-3.09,3.13
		c-0.99,3.26-0.79,6.53-0.11,9.78c1.45,6.86,3.71,13.48,6.04,20.08c0.48,1.36,0.95,2.74,0.79,4.19c-0.42,3.75,0.92,7.13,2.14,10.54
		c1.02,2.84,1.93,5.72,2.2,8.76c0.11,1.23,0.78,2.25,1.36,3.29c0.3,0.54,0.67,0.43,1.02,0.01c-0.01,0.23-0.01,0.46-0.02,0.69
		c-0.07,0.01-0.13,0.02-0.2,0.02c-0.65,0.4-0.89-0.08-1.23-0.5c-1.29-1.61-1.27-3.65-1.87-5.48c-1.31-4.04-2.71-8.04-4.14-12.04
		c-0.34-0.95-0.82-2.03-0.56-2.88c0.88-2.84,0.01-5.44-0.72-8.08c-0.21-0.76-0.56-1.48-0.85-2.21c-0.74-2.58-1.41-5.18-2.4-7.68
		c-1.5-4.07-2.59-8.23-3.15-12.55c-0.44-3.46,0.02-6.8,0.73-10.15c0.16-0.77,0.49-1.42,1.05-1.97c1.59-1.57,2.9-1.33,3.49,0.65
		c-0.09,0.57-0.18,1.14-0.27,1.71c-0.07,0.15-0.03,0.34-0.17,0.47C491.68,266.68,491.67,266.76,491.64,266.83z"/>
	<path style="fill-rule:evenodd;clip-rule:evenodd;fill:#45453B;" d="M491.46,270.72c-0.01,0.07-0.03,0.13-0.07,0.19
		c-0.06-0.15-0.12-0.29-0.18-0.44C491.3,270.55,491.38,270.63,491.46,270.72z"/>
	<path style="fill-rule:evenodd;clip-rule:evenodd;fill:#76B38A;" d="M491.68,266.6c0.06-0.16,0.11-0.31,0.17-0.47
		C491.79,266.29,491.74,266.45,491.68,266.6z"/>
	<path style="fill-rule:evenodd;clip-rule:evenodd;fill:#2D2E28;" d="M464.06,254.62c0.01,0.07,0.02,0.14,0.02,0.21
		c-0.06,0.13-0.11,0.26-0.16,0.39C463.89,255,463.83,254.78,464.06,254.62z"/>
	<path style="fill-rule:evenodd;clip-rule:evenodd;fill:#78B48C;" d="M492.4,332.36c2.07-0.68,3.09-2.02,3.11-4.16
		c0.01-0.96,0.32-1.86,0.23-2.85c-0.15-1.67-0.8-2.95-2.03-4.13c-1.05-1-0.81-2.46-0.23-3.7c0.51-1.1,1-2.11-0.02-3.18
		c-1.05-1.11-2.32-1.47-3.69-0.88c-1.21,0.52-1.66,1.68-1.69,2.95c-0.06,2.44,0.98,4.76,0.72,7.23c-0.12,1.15-0.12,2.31-0.3,3.44
		c-0.43,2.58,0.16,3.72,2.56,4.76c0.1,0.04,0.08,0.35,0.12,0.54c-1.62,0.38-3.23-1.25-3.35-3.3c-0.12-2.17,0.55-4.26,0.5-6.42
		c-0.04-1.4-0.14-2.81-0.6-4.11c-0.59-1.68-0.37-3.32-0.05-4.95c0.31-1.56,2.2-2.4,3.79-1.74c1.16,0.48,2.14,1.29,2.9,2.25
		c0.78,0.99,1.09,2.03-0.1,3.16c-1.34,1.28-0.9,3.48,0.72,4.28c0.81,0.4,1.1,1.13,1.15,1.84c0.2,2.59,0.3,5.18-1.01,7.58
		c-0.44,0.81-1.11,1.34-1.94,1.7C492.79,332.85,492.48,332.91,492.4,332.36z"/>
	<path style="fill-rule:evenodd;clip-rule:evenodd;fill:#78B48C;" d="M492.17,331.88c0.08,0.16,0.15,0.32,0.23,0.48
		c-0.08,0-0.15,0-0.23,0.01C492.17,332.21,492.17,332.05,492.17,331.88z"/>
	<path style="fill-rule:evenodd;clip-rule:evenodd;fill:#3A3330;" d="M480.43,235.2c-0.72-0.18-1.87,0.26-1.83-0.93
		c0.01-0.58,0.03-1.69,1.26-1.67c1.18,0.02,2.43-0.3,2.3,1.66C482.06,235.73,481.04,234.97,480.43,235.2z"/>
	<path style="fill-rule:evenodd;clip-rule:evenodd;fill:#84BA99;" d="M490,288.44c1.22,2.43,1.88,5.03,2.4,7.68
		C491.44,293.61,490.71,291.03,490,288.44z"/>
	<path style="fill-rule:evenodd;clip-rule:evenodd;fill:#76B38A;" d="M478.45,326.85c0.01,0.56,0.02,1.11,0.03,1.67
		C478.09,327.97,478.13,327.42,478.45,326.85z"/>
	<path style="fill-rule:evenodd;clip-rule:evenodd;fill:#C97229;" d="M480.4,234.63c-0.33-0.24-1.15,0.2-1.13-0.61
		c0.01-0.79,0.66-0.83,1.32-0.81c0.61,0.02,1.05,0.15,0.99,0.86C481.51,234.82,480.9,234.58,480.4,234.63z"/>
</g>
</svg>
