<?xml version="1.0" encoding="utf-8"?>
<!-- Generator: Adobe Illustrator 16.0.0, SVG Export Plug-In . SVG Version: 6.00 Build 0)  -->
<!DOCTYPE svg PUBLIC "-//W3C//DTD SVG 1.0//EN" "http://www.w3.org/TR/2001/REC-SVG-20010904/DTD/svg10.dtd" [
	<!ENTITY ns_flows "http://ns.adobe.com/Flows/1.0/">
	<!ENTITY ns_extend "http://ns.adobe.com/Extensibility/1.0/">
	<!ENTITY ns_ai "http://ns.adobe.com/AdobeIllustrator/10.0/">
	<!ENTITY ns_graphs "http://ns.adobe.com/Graphs/1.0/">
]>
<svg version="1.0" id="Layer_1" xmlns:x="&ns_extend;" xmlns:i="&ns_ai;" xmlns:graph="&ns_graphs;"
	 xmlns="http://www.w3.org/2000/svg" xmlns:xlink="http://www.w3.org/1999/xlink" xmlns:a="http://ns.adobe.com/AdobeSVGViewerExtensions/3.0/"
	 x="0px" y="0px" width="960px" height="560px" viewBox="0 0 960 560" style="enable-background:new 0 0 960 560;"
	 xml:space="preserve">
<g>
	<path style="fill-rule:evenodd;clip-rule:evenodd;fill:#13120D;" d="M458.94,288.12c0.05-1.23,0.1-2.46,0.15-3.69
		c0.01-0.2,0.09-0.49,0-0.57c-0.22-0.2-0.43,0.08-0.61,0.18c-1.68,0.94-3.14,2.15-4.52,3.49c-0.88,0.86-1.81,1.67-2.71,2.51
		c0-0.32,0-0.64,0-0.96c1.23-1.14,2.46-2.29,3.69-3.43c1.23-1.15,2.63-2.02,4.22-2.57c0.19-0.23,0.37-0.48,0.65-0.11
		c0.36,1.6-0.11,3.17-0.19,4.76C459.48,288.02,459.27,288.16,458.94,288.12z"/>
	<path style="fill-rule:evenodd;clip-rule:evenodd;fill:#0B0908;" d="M458.94,288.12c0.17-0.09,0.34-0.17,0.5-0.26
		c0.31-0.31,0.71-0.34,1.11-0.35c5.68-0.16,11.36-0.22,17.02,0.46c0.58,0.07,1.22,0.05,1.56,0.69c-0.38,0.58-0.91,0.24-1.38,0.21
		c-4.14-0.25-8.28-0.63-12.44-0.53c-1.92,0.05-3.85,0.05-5.77,0.07C459.3,288.42,458.95,288.6,458.94,288.12z"/>
	<path style="fill-rule:evenodd;clip-rule:evenodd;fill:#11110E;" d="M459.61,276.01c-0.16-2.03,0.73-3.97,0.5-6.01
		c-0.05-0.46,0.32-0.4,0.57-0.31c1.85,0.61,3.81,0.31,5.68,0.69c0.36,0.21,0.75,0.06,1.13,0.12c0.25,0.04,0.45,0.12,0.26,0.44
		c-1.48,0.54-2.99,0.31-4.48,0.16c-2.02-0.2-2.39,0.04-2.5,2.1c-0.07,1.4-0.25,2.78-0.39,4.17c-0.05,0.52-0.01,1.15-0.65,1.43
		C459.33,277.88,459.54,276.94,459.61,276.01z"/>
	<path style="fill-rule:evenodd;clip-rule:evenodd;fill:#181614;" d="M467.8,270.8c-0.4-0.42-1.05,0.04-1.44-0.42
		c3.92,0.09,7.86-0.17,11.76,0.5c0.08,0.06,0.16,0.06,0.24-0.01c0.08,0,0.16,0.01,0.25,0.01c0.4,0.2,0.86-0.03,1.26,0.17
		c0.14,0.02,0.27,0.03,0.41,0.05c0.13,0.22,0,0.36-0.15,0.5c-0.09,0.05-0.18,0.07-0.28,0.06c-0.18-0.09-0.35-0.05-0.53,0.03
		c-0.11,0.01-0.21,0-0.32-0.02c-0.36-0.04-0.71,0-1.07,0.01c-2.87-0.27-5.74-0.26-8.62-0.23
		C468.75,271.45,468.09,271.52,467.8,270.8z"/>
	<path style="fill-rule:evenodd;clip-rule:evenodd;fill:#110F0C;" d="M499.23,287.16c-0.17,1.2-0.34,2.4-0.5,3.61
		c-0.11,0.85-0.75,0.46-1.11,0.42c-2.58-0.28-5.16-0.61-7.75-0.93c-0.2-0.31-0.03-0.5,0.22-0.65c1.65-0.4,3.25,0.04,4.85,0.31
		c2.78,0.46,2.88,0.43,3.36-2.3c0.08-0.43,0.07-0.88,0.3-1.27c0.08-0.11,0.19-0.17,0.32-0.19
		C499.4,286.38,499.02,286.85,499.23,287.16z"/>
	<path style="fill-rule:evenodd;clip-rule:evenodd;fill:#151310;" d="M490.14,289.79c-0.09,0.16-0.17,0.31-0.26,0.47
		c-4.04-0.46-8.08-0.92-12.13-1.38c0.44-0.12,0.94,0.12,1.33-0.26c0.36-0.42,0.86-0.4,1.33-0.35c2.97,0.33,5.94,0.63,8.9,1.02
		C489.64,289.33,490.07,289.28,490.14,289.79z"/>
	<path style="fill-rule:evenodd;clip-rule:evenodd;fill:#0F0E0D;" d="M492.15,271.77c2.53,0.21,4.95,0.98,7.43,1.4
		c1.3,0.22,0.58,1.11,0.58,1.76c-0.15,0.25-0.31,0.44-0.59,0.16c-0.31-0.8-0.97-1.06-1.75-1.21c-1.94-0.38-3.89-0.76-5.8-1.31
		c-0.15-0.07,0.02,0.03-0.11-0.05c-0.29-0.19-0.9-0.24-0.8-0.59C491.24,271.45,491.78,271.72,492.15,271.77z"/>
	<path style="fill-rule:evenodd;clip-rule:evenodd;fill:#211F1E;" d="M480.04,271.53c0.08-0.14,0.16-0.29,0.24-0.43
		c2,0.14,4,0.29,6,0.43c0.15,0.21,0.14,0.42-0.03,0.61c-0.49,0.34-1.06,0.3-1.61,0.28c-1.19-0.04-2.36-0.26-3.55-0.27
		C480.65,272.14,480.21,272.03,480.04,271.53z"/>
	<path style="fill-rule:evenodd;clip-rule:evenodd;fill:#151617;" d="M486.28,272c0-0.16,0-0.32,0-0.47
		c1.96,0.05,3.93-0.2,5.88,0.24c-0.18,0.14-0.59-0.22-0.57,0.26c0,0.03,0.51-0.02,0.7,0.24C490.26,272.75,488.24,272.94,486.28,272z
		"/>
	<path style="fill-rule:evenodd;clip-rule:evenodd;fill:#1F1B18;" d="M459.61,276.01c0.19,0.91-0.19,1.86,0.23,2.75
		c0.64,0.97,0.6,1.92-0.04,2.87c-0.13,0.09-0.27,0.1-0.41,0.02C459.37,279.76,459.36,277.88,459.61,276.01z"/>
	<path style="fill-rule:evenodd;clip-rule:evenodd;fill:#1B1916;" d="M499.69,278.28c-0.02,2.01,0.17,4.03-0.19,6.03
		c-0.05-0.04-0.09-0.08-0.14-0.12c-0.38-0.67-0.08-1.43-0.29-2.13c-0.04-0.17-0.04-0.34-0.03-0.51c0.07-0.32,0.1-0.64,0.03-0.97
		c-0.01-0.11,0-0.22,0.02-0.34c0.12-0.64,0.07-1.26-0.12-1.88c-0.02-0.5-0.19-1.04,0.43-1.33
		C499.88,277.36,499.4,277.9,499.69,278.28z"/>
	<path style="fill-rule:evenodd;clip-rule:evenodd;fill:#211E19;" d="M499.5,284.3c-0.08,0.89,0.18,1.81-0.23,2.66
		c-0.26-0.16-0.04-0.48-0.23-0.66c-0.03-0.04-0.05-0.08-0.06-0.13c-0.57-1.36-0.64-2.72,0.05-4.07c0.58,0.08,0.26,0.53,0.31,0.81
		c0.08,0.42-0.06,0.86,0.09,1.27C499.46,284.23,499.48,284.26,499.5,284.3z"/>
	<path style="fill-rule:evenodd;clip-rule:evenodd;fill:#0F0E0D;" d="M499.69,278.28c-0.35-0.36-0.14-0.82-0.23-1.23
		c-0.26-0.22-0.23-0.51-0.19-0.81c0.07-0.29,0.16-0.56,0.34-0.79c0.09-0.08,0.2-0.11,0.31-0.08c0.23,0.25,0.18,0.52,0.05,0.8
		c-0.02,0.23-0.04,0.46-0.05,0.68c-0.14,0.26-0.06,0.56-0.17,0.83C499.73,277.87,499.71,278.07,499.69,278.28z"/>
	<path style="fill-rule:evenodd;clip-rule:evenodd;fill:#312825;" d="M459.38,281.64c0.08,0,0.16,0,0.24,0
		c0.36,0.41,0.38,0.81-0.02,1.21c-0.15,0.08-0.3,0.15-0.45,0.23C459.23,282.6,459.3,282.12,459.38,281.64z"/>
	<path style="fill-rule:evenodd;clip-rule:evenodd;fill:#1B1916;" d="M499.97,276.16c-0.05-0.28,0.01-0.6-0.28-0.79
		c-0.04-0.08-0.02-0.16,0.05-0.22c0.14-0.08,0.29-0.16,0.43-0.24C500.1,275.33,500.04,275.75,499.97,276.16z"/>
	<path style="fill-rule:evenodd;clip-rule:evenodd;fill:#222221;" d="M479.86,271.05c-0.43,0-0.88,0.17-1.26-0.17
		C479.03,270.9,479.48,270.77,479.86,271.05z"/>
	<path style="fill-rule:evenodd;clip-rule:evenodd;fill:#020202;" d="M499.04,286.31c0.3,0.14,0.11,0.46,0.23,0.66
		c0.04,0.07,0.03,0.14-0.04,0.19C498.92,286.93,499.02,286.61,499.04,286.31z"/>
	<path style="fill-rule:evenodd;clip-rule:evenodd;fill:#1B1916;" d="M499.75,277.67c-0.04-0.3-0.09-0.59,0.17-0.83
		C499.87,277.12,499.81,277.4,499.75,277.67z"/>
	<path style="fill-rule:evenodd;clip-rule:evenodd;fill:#222221;" d="M478.36,270.87c-0.08,0-0.16,0.01-0.24,0.01
		C478.2,270.87,478.28,270.87,478.36,270.87z"/>
	<path style="fill-rule:evenodd;clip-rule:evenodd;fill:#FCF29D;" d="M499.74,275.16c-0.04,0.07-0.06,0.14-0.05,0.22l0,0
		c-0.17,0.22-0.04,0.51-0.17,0.74c-0.02,0.31-0.05,0.62-0.07,0.93c-0.38,0.46-0.14,0.99-0.18,1.49c0.12,0.63,0.12,1.27,0,1.9
		c0,0.09,0,0.17,0,0.26c0.1,0.23,0.1,0.47,0,0.7c-0.01,0.16-0.02,0.33-0.03,0.49c0.07,0.06,0.08,0.11,0.05,0.14
		c-0.03,0.03-0.06,0.04-0.09,0.04c-0.4,1.35-0.11,2.75-0.23,4.12c-0.23,1.15-0.51,2.29-0.68,3.44c-0.11,0.77-0.49,0.96-1.2,0.92
		c-2.33-0.16-4.6-0.84-6.96-0.75c-3.69-0.38-7.35-1.04-11.06-1.17c-2.21-0.56-4.48-0.49-6.72-0.67c-4.3-0.35-8.61-0.01-12.91-0.08
		c-0.3-1.68,0.31-3.34,0.16-5.01c0.01-0.4,0.02-0.8,0.02-1.21c0.46-0.93,0.19-1.92,0.21-2.88c0.25-2.3,0.55-4.59,0.74-6.9
		c0.09-1.15,0.59-1.43,1.65-1.27c1.84,0.28,3.71,0.35,5.57,0.21c1.5,0.6,3.06,0.21,4.58,0.23c1.99,0.02,3.97,0.18,5.95,0.31
		c0.3,0.21,0.68,0.01,0.99,0.18c0.08,0,0.17,0,0.25,0c0.08-0.04,0.16-0.04,0.23,0c0.08,0.01,0.16,0.01,0.24,0.02
		c2.07,0.36,4.14,0.56,6.24,0.47c2,0.09,4,0.18,6,0.26c2.07,0.47,4.13,1.03,6.23,1.38C499.53,273.81,499.84,274.24,499.74,275.16z"
		/>
	<path style="fill-rule:evenodd;clip-rule:evenodd;fill:#222221;" d="M479.31,271.52c-0.34,0-0.69,0.08-0.99-0.18
		C478.67,271.32,479.03,271.23,479.31,271.52z"/>
	<path style="fill-rule:evenodd;clip-rule:evenodd;fill:#222221;" d="M479.79,271.51l-0.12,0.02l-0.12-0.02
		C479.64,271.51,479.72,271.51,479.79,271.51z"/>
	<path style="fill-rule:evenodd;clip-rule:evenodd;fill:#131312;" d="M499.21,282.06c-0.02-0.07-0.01-0.13,0.05-0.18
		c0.43,0.74,0.15,1.54,0.18,2.31C499,283.52,499.38,282.76,499.21,282.06z"/>
	<path style="fill-rule:evenodd;clip-rule:evenodd;fill:#0A0903;" d="M499.28,280.43c-0.1-0.63-0.19-1.27,0-1.9
		C499.58,279.16,499.59,279.8,499.28,280.43z"/>
	<path style="fill-rule:evenodd;clip-rule:evenodd;fill:#0A0903;" d="M499.29,281.39c0-0.23,0-0.47,0-0.7
		C499.52,280.92,499.52,281.15,499.29,281.39z"/>
	<path style="fill-rule:evenodd;clip-rule:evenodd;fill:#1B1916;" d="M499.53,276.12c-0.01-0.26-0.14-0.55,0.17-0.74
		C499.72,275.64,499.76,275.91,499.53,276.12z"/>
	<path style="fill-rule:evenodd;clip-rule:evenodd;fill:#060604;" d="M482.83,283.3c-1.36,0.15-2.45-0.17-3.51-0.62
		c-1.07-0.45-1.23-1.35-1.14-2.37c0.26-2.99,3.31-6.02,6.22-5.25c1.86,0.49,2.7,1.77,3.01,3.49c0.34,1.83-0.66,3.05-2.09,3.99
		C484.51,283.07,483.64,283.43,482.83,283.3z"/>
	<path style="fill-rule:evenodd;clip-rule:evenodd;fill:#070605;" d="M474.46,274.5c0.76,0,1.53-0.08,2.27,0.02
		c0.65,0.09,1.11,0.6,0.86,1.28c-0.27,0.71-0.82,0.24-1.16,0.02c-1.01-0.68-2.06-0.13-3.08-0.2c-0.34-0.03-0.33,0.32-0.41,0.5
		c-0.17,0.37,0.25,0.3,0.4,0.4c1.42,0.92,1.82,2.4,1.13,4.74c-0.41,1.4-1.71,1.51-2.84,1.49c-0.69-0.01-2.09,0.74-2.04-0.71
		c0.05-1.46,1.18-0.17,1.8-0.32c0.71-0.17,1.57-0.02,1.95-0.78c0.43-0.87,0.59-1.83,0.08-2.77c-0.32-0.58-0.78-0.56-1.34-0.43
		c-0.32,0.08-0.74,0.16-0.99-0.21c-0.25-0.38-0.1-0.74,0.11-1.1c0.25-0.43,0.58-0.81,0.51-1.39c-0.06-0.46,0.33-0.56,0.73-0.56
		c0.68,0.01,1.35,0,2.03,0C474.46,274.49,474.46,274.49,474.46,274.5z"/>
	<path style="fill-rule:evenodd;clip-rule:evenodd;fill:#FCF29D;" d="M482.49,282.33c-0.51-0.06-1.07-0.02-1.52-0.22
		c-0.63-0.28-1.58-0.28-1.68-1.23c-0.11-0.95,0.08-1.8,0.89-2.5c0.71-0.61,1.14-1.49,2-1.97c1.16-0.65,2.63-0.37,3.61,0.78
		c0.99,1.16,0.98,2.49-0.05,3.57C484.71,281.84,483.61,282.37,482.49,282.33z"/>
</g>
</svg>
