<?xml version="1.0" encoding="utf-8"?>
<!-- Generator: Adobe Illustrator 16.0.0, SVG Export Plug-In . SVG Version: 6.00 Build 0)  -->
<!DOCTYPE svg PUBLIC "-//W3C//DTD SVG 1.0//EN" "http://www.w3.org/TR/2001/REC-SVG-20010904/DTD/svg10.dtd" [
	<!ENTITY ns_flows "http://ns.adobe.com/Flows/1.0/">
	<!ENTITY ns_extend "http://ns.adobe.com/Extensibility/1.0/">
	<!ENTITY ns_ai "http://ns.adobe.com/AdobeIllustrator/10.0/">
	<!ENTITY ns_graphs "http://ns.adobe.com/Graphs/1.0/">
]>
<svg version="1.0" id="Layer_1" xmlns:x="&ns_extend;" xmlns:i="&ns_ai;" xmlns:graph="&ns_graphs;"
	 xmlns="http://www.w3.org/2000/svg" xmlns:xlink="http://www.w3.org/1999/xlink" xmlns:a="http://ns.adobe.com/AdobeSVGViewerExtensions/3.0/"
	 x="0px" y="0px" width="960px" height="560px" viewBox="0 0 960 560" style="enable-background:new 0 0 960 560;"
	 xml:space="preserve">
<g>
	<path style="fill-rule:evenodd;clip-rule:evenodd;fill:#D6CCC7;" d="M491.28,278.95c0.07-0.01,0.14-0.01,0.2,0.01
		c0,0.32,0,0.64,0,0.96c-0.1-0.01-0.2-0.03-0.29-0.04c-0.12-0.14-0.17-0.31-0.17-0.49C491.04,279.2,491.11,279.04,491.28,278.95z"/>
	<path style="fill-rule:evenodd;clip-rule:evenodd;fill:#B4692D;" d="M490.85,273.92c0.1,1.19,0.2,2.39,0.29,3.58
		c-0.25,0.32-0.61,0.31-0.96,0.33c-0.28,0-0.56,0.04-0.83,0.13c-0.11,0.03-0.22,0.06-0.33,0.07c-0.34,0.04-0.68,0.1-1.01,0.2
		c-0.42,0.1-0.85,0.06-1.27,0.15c-0.19,0.07-0.37,0.12-0.57,0.15c-2.29,0.04-4.56,0.42-6.86,0.29c-0.57-0.03-1.09,0.2-1.63,0.23
		c-0.2,0.01-0.39,0.06-0.59,0.08c-1.8-0.15-3.54,0.41-5.33,0.39c-0.12,0.01-0.24,0.01-0.36,0c-1.51,0.1-2.14-1.13-3.02-1.99
		c-0.29-2.74-0.58-5.47-0.87-8.21c0.13-0.23,0.33-0.33,0.59-0.32c1.39,0.03,2.74-0.35,4.11-0.45c1.11-0.33,1.12,0.56,1.35,1.21
		c0.16,2.23,1.67,3.25,3.55,3.93c0.76,0.43,1.41,1.02,2.14,1.49c0.97,0.58,1.95,0.28,2.93,0.06c2.85-0.43,5.61-1.34,8.51-1.45
		C490.75,273.84,490.8,273.88,490.85,273.92z"/>
	<path style="fill-rule:evenodd;clip-rule:evenodd;fill:#8B8C89;" d="M472.98,267.94c-0.07-0.17-0.13-0.34-0.2-0.51
		c0.14-0.24,0.17-0.48-0.04-0.71l0.01,0.02c-0.24-0.46,0-0.97-0.19-1.44c0.07-0.75-0.1-1.49-0.04-2.24c0-0.6-0.08-1.24,0.65-1.51
		c0.78-0.29,1.41,0,1.95,0.55c0.83,0.85,1.18,1.98,1.62,3.04c0.29,0.71,0.62,1.25,1.44,1.42c0.59,0.12,0.93,0.57,1.13,1.13
		c0.44,1.24,0.99,2.44,1.11,3.77c0.05,0.26,0.03,0.51-0.1,0.74c-0.89,0.66-1.62,0.06-2.25-0.42c-1.2-0.93-2.45-1.75-3.85-2.31
		C473.5,269.21,473.18,268.63,472.98,267.94z"/>
	<path style="fill-rule:evenodd;clip-rule:evenodd;fill:#4E3134;" d="M471.31,279.23c0.09,0,0.17-0.01,0.26-0.01
		c0.46,0.31,1.04-0.18,1.48,0.23c-0.13,0.63-0.73,0.52-1.13,0.71c-0.34,0.15-0.7,0.3-0.57,0.76c0.11,0.4,0.49,0.37,0.8,0.33
		c1.74-0.2,3.47-0.52,5.22-0.67c4.21-0.37,8.39-1.06,12.61-1.45c0.44-0.04,0.88-0.05,1.23,0.3c-0.01,0.15-0.01,0.29-0.02,0.44
		c-2.69,0.32-5.38,0.64-8.07,0.98c-0.26,0.03-0.51,0.17-0.77,0.26c-0.09,0.12-0.21,0.16-0.36,0.17c-0.09,0-0.18,0-0.28,0.01
		c-0.25,0.03-0.46,0.18-0.7,0.27c-1.21,0.22-2.43,0.28-3.64,0.34c-1.15,0.05-1.88,0.39-2.1,1.55c-0.09,0.11-0.2,0.13-0.33,0.06
		c0.13-1.32-0.23-1.8-1.75-1.54c-1.05,0.18-2.24,0.83-3.35,0.05c-0.17-0.83-0.09-1.63,0.28-2.4
		C470.4,279.13,470.94,279.45,471.31,279.23z"/>
	<path style="fill-rule:evenodd;clip-rule:evenodd;fill:#5B564D;" d="M472.56,260.73c0.15-0.32,0.29-0.64,0.44-0.96
		c1.52-0.41,2.63,0.53,3.84,1.17c1.23,1.19,1.75,2.78,2.38,4.3c0.14,0.33,0.07,0.7-0.16,1.02c-1.13,0.54-1.76,0.33-2.29-0.71
		c-0.49-0.95-0.76-1.99-1.38-2.89c-0.5-0.72-1.04-1.18-1.93-1.11C472.84,261.62,472.6,261.29,472.56,260.73z"/>
	<path style="fill-rule:evenodd;clip-rule:evenodd;fill:#454640;" d="M472.56,260.73c0.26,0.23,0.35,0.69,0.77,0.68
		c1.98-0.07,2.44,1.47,3.03,2.85c0.51,1.19,0.89,2.48,2.65,1.97c0.06-0.01,0.12-0.02,0.17-0.04c0.12-0.03,0.23-0.04,0.35-0.05
		c0.72-0.01,1.41-0.31,2.14-0.17c0.24,0.07,0.46,0.16,0.5,0.45c-0.34,0.49-0.9,0.45-1.39,0.58c-1.09,0.29-1.22,0.51-0.82,1.59
		c0.21,0.59,0.63,1.12,0.63,1.79c-0.09,0.41-0.01,0.89-0.42,1.18c-0.26-1.04-0.54-2.06-0.91-3.07c-0.35-0.96-0.69-1.75-1.87-1.84
		c-0.53-0.04-0.6-0.58-0.78-0.96c-0.56-1.18-0.86-2.5-1.81-3.47c-0.42-0.42-0.9-0.65-1.51-0.45c-0.54,0.18-0.55,0.62-0.55,1.07
		c-0.27,0.18-0.32-0.06-0.41-0.21C472.09,261.96,472.1,261.32,472.56,260.73z"/>
	<path style="fill-rule:evenodd;clip-rule:evenodd;fill:#954829;" d="M470.33,279.7c-0.35,0.74,0.01,1.62-0.48,2.33
		c-0.42-0.26-0.75-0.6-0.93-1.06c-0.11-0.18-0.09-0.4-0.21-0.57c-0.24-0.87-0.3-1.75-0.27-2.64
		C469.27,278.2,469.81,278.94,470.33,279.7z"/>
	<path style="fill-rule:evenodd;clip-rule:evenodd;fill:#8D7A6B;" d="M482.39,281.56c0.22,2.77,0.45,5.54,0.67,8.31
		c0.04,0.56,0.08,1.11,0.13,1.67c-0.02,0.12-0.09,0.2-0.21,0.23c-0.12-0.01-0.22-0.07-0.3-0.16c-0.18-0.25-0.24-0.53-0.21-0.83
		c0.07-0.71,0.13-1.41-0.16-2.1c-0.22-0.69-0.34-1.39-0.29-2.12c0-1.09-0.43-2.16-0.16-3.26
		C482.12,282.75,481.84,282.02,482.39,281.56z"/>
	<path style="fill-rule:evenodd;clip-rule:evenodd;fill:#785956;" d="M472.28,268.64c-1.53,0.67-3.21,0.25-4.77,0.69
		c-0.05-0.42,0.25-0.43,0.53-0.46c1.33-0.15,2.67-0.3,4-0.45C472.15,268.46,472.23,268.54,472.28,268.64z"/>
	<path style="fill-rule:evenodd;clip-rule:evenodd;fill:#706259;" d="M483.21,292.13c0.18,1.69,0.36,3.39,0.54,5.08
		c-0.11,0.08-0.24,0.09-0.37,0.05c-0.6-0.52-0.31-1.24-0.45-1.87c-0.17-0.8-0.32-1.61-0.35-2.43c0.03-0.26,0.12-0.49,0.29-0.7
		C482.96,292.16,483.07,292.12,483.21,292.13z"/>
	<path style="fill-rule:evenodd;clip-rule:evenodd;fill:#4A4A46;" d="M476.59,261c-0.29,0.7-0.48,0.04-0.61-0.08
		c-0.75-0.74-1.51-1.24-2.61-0.7c-0.51,0.25-0.29-0.25-0.37-0.44c0.08-0.08,0.17-0.17,0.25-0.25c0.16-0.15,0.37-0.18,0.56-0.23
		c0.15-0.01,0.3-0.01,0.45-0.02c0.1,0,0.19,0.02,0.29,0.04c0.13,0.04,0.26,0.1,0.38,0.16c0.08,0.03,0.16,0.08,0.23,0.12
		c0.11,0.06,0.22,0.12,0.33,0.18c0.07,0.03,0.15,0.08,0.21,0.12c0.07,0.05,0.13,0.1,0.19,0.15c0.03,0.03,0.06,0.06,0.09,0.08
		c0.06,0.05,0.11,0.11,0.17,0.17c0,0,0.08,0.09,0.08,0.09c0.06,0.05,0.11,0.11,0.17,0.17c0.03,0.03,0.05,0.06,0.08,0.09
		c0.05,0.07,0.08,0.14,0.11,0.22C476.59,260.92,476.59,260.96,476.59,261z"/>
	<path style="fill-rule:evenodd;clip-rule:evenodd;fill:#988772;" d="M476.58,297.21c-0.35-1.34-0.46-2.71-0.49-4.08
		c0.11-0.08,0.23-0.09,0.35-0.02c0.21,0.17,0.33,0.39,0.41,0.64c0.15,0.88,0.47,1.74,0.23,2.66
		C476.98,296.71,476.88,297.03,476.58,297.21z"/>
	<path style="fill-rule:evenodd;clip-rule:evenodd;fill:#887563;" d="M483.8,305.12c-0.77,0.88-1.83,1.27-2.89,1.65
		c-0.14-0.09-0.32-0.13-0.3-0.35c0.76-0.88,1.83-1.21,2.85-1.64C483.65,304.82,483.76,304.94,483.8,305.12z"/>
	<path style="fill-rule:evenodd;clip-rule:evenodd;fill:#78695E;" d="M485.98,303.79c-0.25,0.19-0.5,0.38-0.75,0.57
		c-0.08-0.08-0.12-0.18-0.13-0.3c0.17-0.55,0.12-1.03-0.28-1.52c-0.41-0.5-0.79-1.07-0.55-1.8c0.11-0.06,0.21-0.04,0.29,0.04
		c0.46,0.79,0.95,1.55,1.63,2.17C486.22,303.26,486.13,303.53,485.98,303.79z"/>
	<path style="fill-rule:evenodd;clip-rule:evenodd;fill:#7B6655;" d="M478.32,305.84c-0.53-0.8-0.63-1.73-0.74-2.64
		c0.08-0.08,0.19-0.12,0.3-0.11c0.36,0.13,0.41,0.46,0.47,0.77c0.17,0.92,0.59,1.71,1.16,2.44c0.04,0.12,0.02,0.22-0.05,0.32
		c-0.11,0.01-0.23,0.01-0.34-0.02c-0.12-0.04-0.25-0.07-0.37-0.11c-0.09-0.04-0.15-0.1-0.2-0.17l-0.06-0.04l0-0.07
		C478.5,306.06,478.4,305.96,478.32,305.84z"/>
	<path style="fill-rule:evenodd;clip-rule:evenodd;fill:#5F373A;" d="M470.33,279.7c-0.63-0.65-1.27-1.3-1.9-1.94
		c-0.05-0.06-0.07-0.13-0.05-0.22c0.77-0.17,0.89,0.61,1.27,0.95c0.51,0.46,0.98,0.77,1.66,0.75
		C470.99,279.39,470.66,279.54,470.33,279.7z"/>
	<path style="fill-rule:evenodd;clip-rule:evenodd;fill:#807162;" d="M482.6,255.67c0.72,0.06,1.48-0.26,2.17,0.17
		c0.08,0.12,0.08,0.24-0.01,0.35c-0.79,0.42-1.64,0.25-2.48,0.31c-0.42-0.08-0.98,0.11-1.12-0.56
		C481.64,255.85,482.12,255.76,482.6,255.67z"/>
	<path style="fill-rule:evenodd;clip-rule:evenodd;fill:#403B38;" d="M472.28,268.64c-0.08-0.07-0.16-0.15-0.24-0.22
		c0.06-0.05,0.14-0.06,0.21-0.03c0.2-0.21,0.56,0.03,0.72-0.27c0-0.06,0-0.12,0.01-0.18c0.45,0.36,0.56,1.06,1.21,1.22
		c0.06,0.06,0.08,0.12,0.07,0.18c-0.01,0.06-0.03,0.09-0.04,0.1c-0.22,0.21-0.45,0.43-0.65,0.65c-0.1,0.06-0.19,0.06-0.27-0.02
		C473.02,269.54,473.33,268.61,472.28,268.64z"/>
	<path style="fill-rule:evenodd;clip-rule:evenodd;fill:#675A52;" d="M474.48,259.5c-0.17,0-0.34,0-0.51,0.01
		c-0.08-0.06-0.12-0.14-0.13-0.24c0.02-0.1,0.08-0.17,0.18-0.2c0.07,0,0.13-0.01,0.19-0.05c0.15-0.13,0.36-0.1,0.52-0.19
		c0.07,0.01,0.14-0.01,0.2-0.05c0.11-0.14,0.35-0.05,0.42-0.25c0.08-0.08,0.16-0.17,0.24-0.25c0.09-0.06,0.2-0.1,0.31-0.09
		c0.23,0.04,0.43,0.14,0.63,0.25c0.19,0.14,0.41,0.25,0.35,0.55C476.18,259.64,475.28,259.33,474.48,259.5z"/>
	<path style="fill-rule:evenodd;clip-rule:evenodd;fill:#896F5A;" d="M476.35,293.12c-0.09,0-0.17,0.01-0.26,0.01
		c-0.23-1.19-0.53-2.38-0.45-3.61c0.1-0.08,0.21-0.07,0.31,0c0.15,0.19,0.2,0.42,0.23,0.65c0.02,0.28,0.06,0.55,0.15,0.82
		c0.07,0.27,0.09,0.55,0.12,0.83c0.01,0.23,0.08,0.44,0.12,0.67C476.58,292.73,476.56,292.96,476.35,293.12z"/>
	<path style="fill-rule:evenodd;clip-rule:evenodd;fill:#8C7656;" d="M474.95,283.52c0.06,0,0.13-0.01,0.19-0.02
		c0.86,1.06,0.49,2.34,0.65,3.53c-0.01,0.13-0.05,0.25-0.13,0.37c-0.12,0.07-0.25,0.08-0.38,0.03
		C475.18,286.13,475.06,284.82,474.95,283.52z"/>
	<path style="fill-rule:evenodd;clip-rule:evenodd;fill:#767370;" d="M472.33,262.63c0.14,0.07,0.27,0.14,0.41,0.21
		c0,0.82,0.01,1.63,0.01,2.45c-0.12,0.09-0.22,0.07-0.31-0.04c-0.05-0.18-0.02-0.36,0.03-0.53
		C472.15,264.04,472.27,263.33,472.33,262.63z"/>
	<path style="fill-rule:evenodd;clip-rule:evenodd;fill:#564E49;" d="M476.1,257.11c0.24-0.31,0.6-0.4,0.96-0.48
		c0.38-0.19,0.72-0.16,0.98,0.22c0.07,0.22-0.05,0.35-0.22,0.46c-0.47,0.17-0.95,0.31-1.46,0.23
		C476.18,257.45,476.04,257.34,476.1,257.11z"/>
	<path style="fill-rule:evenodd;clip-rule:evenodd;fill:#857569;" d="M481.17,255.94c0.36,0.36,0.84,0.15,1.25,0.25
		c-0.03,0.31-0.26,0.4-0.51,0.48c-0.25,0.05-0.5,0.06-0.75,0.05c-0.25-0.01-0.5-0.04-0.74-0.1c-0.34-0.14-0.74-0.14-0.97-0.49
		C479.99,255.78,480.59,255.98,481.17,255.94z"/>
	<path style="fill-rule:evenodd;clip-rule:evenodd;fill:#79664F;" d="M482.39,281.56c-0.15,0.57,0.16,1.2-0.27,1.72
		c-0.61-0.66-0.8-1.38-0.23-2.17c0.15,0,0.31,0,0.46,0C482.36,281.27,482.37,281.41,482.39,281.56z"/>
	<path style="fill-rule:evenodd;clip-rule:evenodd;fill:#695D57;" d="M476.58,297.21c0.08-0.24,0.16-0.49,0.23-0.73
		c0.57,0.86,0.76,1.77,0.41,2.77c-0.09,0.13-0.2,0.17-0.35,0.12C476.78,298.65,476.68,297.93,476.58,297.21z"/>
	<path style="fill-rule:evenodd;clip-rule:evenodd;fill:#6A5245;" d="M478.02,256.89c-0.32-0.09-0.64-0.18-0.96-0.26
		c0.59-0.4,1.29-0.29,1.94-0.44c0.08,0.08,0.12,0.17,0.11,0.28c-0.18,0.43-0.55,0.44-0.93,0.44
		C478.13,256.91,478.08,256.9,478.02,256.89z"/>
	<path style="fill-rule:evenodd;clip-rule:evenodd;fill:#615650;" d="M485.22,304.04c0.01,0.11,0.01,0.21,0.02,0.32
		c-0.48,0.25-0.96,0.51-1.43,0.76c-0.08-0.07-0.16-0.13-0.24-0.2C483.88,304.19,484.46,303.96,485.22,304.04z"/>
	<path style="fill-rule:evenodd;clip-rule:evenodd;fill:#47413D;" d="M483.99,297.84c0.03,0.51,0.05,1.01,0.08,1.52
		c-0.12,0.08-0.23,0.08-0.35-0.02c-0.3-0.51-0.51-1.04-0.24-1.64c0.1-0.11,0.21-0.12,0.34-0.04c0.04,0,0.08,0.01,0.11,0.04
		C483.94,297.76,483.97,297.8,483.99,297.84z"/>
	<path style="fill-rule:evenodd;clip-rule:evenodd;fill:#8F7860;" d="M476.1,257.11c0.08,0.09,0.16,0.18,0.24,0.27
		c0.18,0.5-0.03,0.79-0.5,0.95c-0.08-0.01-0.17-0.03-0.25-0.04C475.56,257.81,475.67,257.39,476.1,257.11z"/>
	<path style="fill-rule:evenodd;clip-rule:evenodd;fill:#433935;" d="M480.67,306.53c0.08,0.08,0.16,0.17,0.24,0.25
		c-0.47,0.25-0.95,0.29-1.43,0.02c-0.06-0.05-0.07-0.1-0.05-0.15c0.02-0.04,0.04-0.07,0.06-0.07l-0.01-0.03
		C479.87,306.2,480.27,306.21,480.67,306.53z"/>
	<path style="fill-rule:evenodd;clip-rule:evenodd;fill:#4C3F3D;" d="M477.84,303.2c-0.09,0-0.18,0-0.26,0
		c-0.04-0.19-0.09-0.38-0.13-0.57c-0.01-0.12-0.01-0.23-0.05-0.35c-0.01-0.18-0.02-0.35-0.03-0.53c0.11-0.06,0.22-0.06,0.33,0.01
		c0.31,0.25,0.38,0.59,0.36,0.96C478.04,302.91,477.99,303.07,477.84,303.2z"/>
	<path style="fill-rule:evenodd;clip-rule:evenodd;fill:#46403E;" d="M479,256.43c0.01-0.08,0.01-0.16,0-0.24
		c0.15-0.02,0.3-0.04,0.45-0.06c0.32,0.1,0.7-0.08,0.97,0.22C479.97,256.82,479.5,256.8,479,256.43z"/>
	<path style="fill-rule:evenodd;clip-rule:evenodd;fill:#685D4C;" d="M483.83,299.35c0.08,0,0.16,0.01,0.24,0.01
		c0.21,0.24,0.32,0.52,0.24,0.84c0.02,0.1,0.05,0.2,0.08,0.29c-0.05,0.09-0.14,0.15-0.24,0.17c-0.1-0.03-0.18-0.09-0.25-0.17
		c-0.08-0.13-0.14-0.28-0.18-0.43C483.66,299.81,483.56,299.55,483.83,299.35z"/>
	<path style="fill-rule:evenodd;clip-rule:evenodd;fill:#98795C;" d="M476.88,299.37c0.08,0,0.16-0.01,0.24-0.01
		c0.48,0.12,0.4,0.42,0.25,0.75c-0.12,0.08-0.24,0.08-0.36-0.02C476.96,299.85,476.92,299.61,476.88,299.37z"/>
	<path style="fill-rule:evenodd;clip-rule:evenodd;fill:#695F57;" d="M477.01,300.09c0.1,0,0.2,0,0.3,0
		c0.32,0.22,0.38,0.55,0.35,0.91c-0.06,0.17-0.18,0.28-0.36,0.32C476.96,300.96,477.1,300.5,477.01,300.09z"/>
	<path style="fill-rule:evenodd;clip-rule:evenodd;fill:#595751;" d="M472.55,265.3c0.07-0.01,0.13-0.02,0.2-0.01
		c0,0.48,0,0.96,0,1.45c-0.44-0.31-0.22-0.77-0.28-1.17C472.4,265.45,472.43,265.37,472.55,265.3z"/>
	<path style="fill-rule:evenodd;clip-rule:evenodd;fill:#5B544F;" d="M485.98,303.79c-0.01-0.3-0.09-0.62,0.22-0.84
		C486.74,303.4,486.36,303.59,485.98,303.79z"/>
	<path style="fill-rule:evenodd;clip-rule:evenodd;fill:#7D6650;" d="M475.85,289.52c-0.07,0-0.14,0-0.2,0
		c-0.05-0.35-0.09-0.7-0.14-1.05c0.03-0.06,0.06-0.11,0.09-0.17c0.06-0.02,0.12-0.04,0.18-0.06c0.13,0.03,0.23,0.11,0.28,0.23
		C476.18,288.86,476.21,289.23,475.85,289.52z"/>
	<path style="fill-rule:evenodd;clip-rule:evenodd;fill:#775F4F;" d="M475.36,287.4c0.08-0.01,0.17-0.03,0.25-0.04
		c0.33,0.31,0.27,0.63,0.02,0.96l0.01-0.01c-0.04,0.06-0.09,0.08-0.16,0.07c-0.06-0.31-0.12-0.61-0.19-0.92L475.36,287.4z"/>
	<path style="fill-rule:evenodd;clip-rule:evenodd;fill:#F3DD81;" d="M483.21,292.13l-0.12,0.01c-0.13-0.14-0.16-0.28-0.02-0.43
		c0.03-0.06,0.07-0.12,0.11-0.17C483.19,291.73,483.2,291.93,483.21,292.13z"/>
	<path style="fill-rule:evenodd;clip-rule:evenodd;fill:#413937;" d="M477.29,301.31c0.07-0.09,0.13-0.18,0.2-0.27
		c0.27,0.22,0.26,0.46,0.04,0.71l-0.08,0l-0.08,0C477.35,301.61,477.32,301.46,477.29,301.31z"/>
	<path style="fill-rule:evenodd;clip-rule:evenodd;fill:#534F4B;" d="M472.74,266.72c0.33,0.22,0.35,0.45,0.04,0.71
		C472.77,267.19,472.75,266.95,472.74,266.72z"/>
	<path style="fill-rule:evenodd;clip-rule:evenodd;fill:#785956;" d="M472.97,268.11c-0.13,0.38-0.42,0.34-0.72,0.27
		C472.5,268.29,472.73,268.2,472.97,268.11z"/>
	<path style="fill-rule:evenodd;clip-rule:evenodd;fill:#8B8C89;" d="M472.55,265.3c-0.03,0.09-0.05,0.18-0.08,0.27
		c-0.26-0.28-0.26-0.57,0-0.85C472.49,264.91,472.52,265.11,472.55,265.3z"/>
	<path style="fill-rule:evenodd;clip-rule:evenodd;fill:#5B564D;" d="M473.96,259.27c0,0.08,0,0.16,0.01,0.24
		c-0.24,0.01-0.47,0.01-0.71,0.02c0.07-0.08,0.15-0.17,0.22-0.25C473.64,259.15,473.8,259.14,473.96,259.27z"/>
	<path style="fill-rule:evenodd;clip-rule:evenodd;fill:#664C4E;" d="M468.7,280.4c0.07,0.19,0.14,0.38,0.21,0.57
		C468.67,280.84,468.66,280.63,468.7,280.4z"/>
	<path style="fill-rule:evenodd;clip-rule:evenodd;fill:#D3D0CD;" d="M488.13,286.58c-0.03-0.01-0.06-0.02-0.09-0.03
		c0.03-0.03,0.07-0.07,0.11-0.09c0.01,0,0.04,0.04,0.07,0.07C488.19,286.55,488.16,286.57,488.13,286.58z"/>
	<path style="fill-rule:evenodd;clip-rule:evenodd;fill:#F2DD84;" d="M477.41,302.29c0.02,0.12,0.03,0.23,0.05,0.35
		C477.44,302.52,477.42,302.4,477.41,302.29z"/>
	<path style="fill-rule:evenodd;clip-rule:evenodd;fill:#DBD6C6;" d="M474.72,258.84c-0.17,0.06-0.35,0.13-0.52,0.19
		C474.32,258.82,474.5,258.77,474.72,258.84z"/>
	<path style="fill-rule:evenodd;clip-rule:evenodd;fill:#DBD6C6;" d="M475.34,258.54c-0.06,0.21-0.21,0.28-0.42,0.25
		C475.06,258.71,475.2,258.62,475.34,258.54z"/>
	<path style="fill-rule:evenodd;clip-rule:evenodd;fill:#443B38;" d="M483.81,297.67c-0.07,0-0.14,0-0.22,0
		c-0.16-0.15-0.18-0.31-0.03-0.48c0.06,0.02,0.13,0.02,0.19,0.01C483.77,297.36,483.79,297.52,483.81,297.67z"/>
	<path style="fill-rule:evenodd;clip-rule:evenodd;fill:#DBD6C6;" d="M473.96,259.27c-0.16,0-0.32,0-0.47,0.01
		c0.13-0.18,0.3-0.26,0.52-0.2C473.99,259.14,473.97,259.21,473.96,259.27z"/>
	<path style="fill-rule:evenodd;clip-rule:evenodd;fill:#4D4542;" d="M484.26,300.58c0.01-0.13,0.02-0.25,0.04-0.38
		c0.09,0.19,0.18,0.39,0.27,0.58c-0.08,0-0.17,0-0.25,0c-0.07-0.03-0.1-0.07-0.09-0.12C484.23,300.61,484.25,300.58,484.26,300.58z"
		/>
	<path style="fill-rule:evenodd;clip-rule:evenodd;fill:#F2D970;" d="M475.48,288.39c0.04-0.05,0.1-0.08,0.16-0.07
		c-0.02,0.07-0.07,0.13-0.14,0.16c0,0-0.05-0.03-0.05-0.03L475.48,288.39z"/>
	<polygon style="fill-rule:evenodd;clip-rule:evenodd;fill:#F3D65C;" points="475.36,287.4 475.3,287.47 475.29,287.43 	"/>
	<polygon style="fill-rule:evenodd;clip-rule:evenodd;fill:#F3DD81;" points="483.99,297.84 483.91,297.8 483.92,297.72 484,297.76 
			"/>
	<path style="fill-rule:evenodd;clip-rule:evenodd;fill:#7A6B63;" d="M478.32,305.84c0.06,0.12,0.11,0.25,0.17,0.37
		C478.44,306.09,478.38,305.97,478.32,305.84z"/>
	<path style="fill-rule:evenodd;clip-rule:evenodd;fill:#7A6B63;" d="M478.55,306.32c0.07,0.06,0.14,0.12,0.2,0.17
		C478.69,306.43,478.62,306.38,478.55,306.32z"/>
	<path style="fill-rule:evenodd;clip-rule:evenodd;fill:#7A6B63;" d="M479.49,306.58c-0.01,0.07-0.01,0.14-0.01,0.22
		c-0.12-0.06-0.24-0.13-0.36-0.19C479.25,306.59,479.37,306.59,479.49,306.58z"/>
	<path style="fill-rule:evenodd;clip-rule:evenodd;fill:#656661;" d="M480.44,270.32c-0.09-0.18-0.18-0.36-0.26-0.53
		c-1.38-2.8-1.26-3.01,1.93-3.31c1.11-0.94,2.5-0.61,3.76-0.76c0.94-0.12,1.88-0.33,2.84-0.29c0.27,0.01,0.29-0.22,0.38-0.39
		c0.41-0.3,0.8-0.34,1.14,0.09c0.08,1.33,0.17,2.67,0.25,4.01c-0.76,0.46-1.62,0.5-2.47,0.58c-0.47,0.04-0.9,0.25-1.35,0.38
		c-1.78,0.22-3.48,0.88-5.3,0.82C480.94,270.89,480.42,271.03,480.44,270.32z"/>
	<path style="fill-rule:evenodd;clip-rule:evenodd;fill:#DBD6C6;" d="M490.23,265.12c-0.41-0.06-0.82-0.14-1.2,0.13
		c-0.66,0.42-1.43,0.48-2.15,0.47c-1.78-0.01-3.51,0.35-5.26,0.5c-0.81,0.09-1.61,0.18-2.42,0.26c-0.05-0.1-0.11-0.19-0.18-0.27
		l0.01,0c-0.24-2.01-1.22-3.67-2.43-5.22l-0.03-0.03c-0.05-0.1-0.12-0.17-0.21-0.22l-0.02-0.02c-0.06-0.09-0.13-0.17-0.22-0.24l0,0
		c-0.07-0.08-0.15-0.16-0.24-0.23l-0.01-0.01c-0.05-0.08-0.12-0.14-0.21-0.18c-0.04-0.06-0.09-0.1-0.16-0.1
		c-0.13-0.02-0.23-0.11-0.32-0.19c-0.03-0.05-0.08-0.07-0.14-0.06c-0.13,0-0.23-0.1-0.34-0.15c-0.06-0.05-0.13-0.07-0.21-0.06
		c0.65-0.78,1.68-0.16,2.4-0.67c0.39-0.49,0.94-0.32,1.44-0.37c0.13,0,0.26,0,0.39,0c0.32,0.01,0.65,0.02,0.95,0.15
		c0.12,0.05,0.22,0.13,0.31,0.22c0.65,1.31,1.21,2.64,0.9,4.16c-0.04,0.45-1.06,0.4-0.57,1.17c0.39,0.63,0.86,0.84,1.57,0.64
		c0.37-0.11,0.78-0.08,1.17-0.09c0.72-0.04,1.45,0.09,2.15-0.15c0.66-0.07,1.3-0.27,1.96-0.33c0.38,0,0.75-0.13,1.12-0.2
		c0.09-0.03,0.19-0.05,0.28-0.08c0.18-0.13,0.18-0.33,0.19-0.54c-0.05-1.12-0.63-2.11-0.71-3.22c-0.05-0.65-0.06-1.24,0.86-1.14
		c0.5,0.08,0.73,0.44,0.86,0.89C489.91,261.67,490.07,263.4,490.23,265.12z"/>
	<path style="fill-rule:evenodd;clip-rule:evenodd;fill:#5F371E;" d="M491.21,279.44c-3.17,0.14-6.3,0.67-9.44,1.04
		c-1.88,0.22-3.76,0.51-5.64,0.62c-1.53,0.08-2.99,0.7-4.54,0.52c-0.3-0.04-0.8,0.26-0.73-0.4c0.05-0.46-0.3-1.09,0.47-1.29
		c0.57-0.15,1.13-0.32,1.69-0.48c0.1-0.08,0.2-0.1,0.32-0.06c0.44,0.11,0.82-0.23,1.26-0.18c3.09-0.19,6.16-0.63,9.25-0.74
		c2.46-0.1,4.88-0.51,7.32-0.68c0.04,0.39,0.08,0.78,0.12,1.17C491.25,279.11,491.23,279.28,491.21,279.44z"/>
	<path style="fill-rule:evenodd;clip-rule:evenodd;fill:#6D706E;" d="M490.85,273.92c-0.05,0-0.1,0-0.15-0.02
		c-1.43-0.06-2.83,0.27-4.18,0.59c-1.58,0.37-3.2,0.48-4.75,0.94c-0.47,0.19-0.95,0.3-1.46,0.28c-0.23-0.07-0.48-0.11-0.67-0.29
		c-0.15-0.21-0.17-0.45-0.14-0.69c0.09-0.34,0.14-0.69,0.16-1.04c0.02-0.18,0.07-0.36,0.16-0.52c0.11-0.16,0.25-0.28,0.44-0.34
		c0.13-0.03,0.25-0.03,0.38-0.01c1.04,0.15,2.05,0,3.06-0.29c1.76-0.51,3.52-0.99,5.35-1.13c0.36-0.03,0.7-0.16,0.97-0.41
		c0.16-0.17,0.29-0.38,0.52-0.48C490.9,271.63,490.69,272.79,490.85,273.92z"/>
	<path style="fill-rule:evenodd;clip-rule:evenodd;fill:#5C574D;" d="M490.55,270.51c-0.02,0.26-0.04,0.52-0.05,0.78
		c-2.61,0.3-5.16,0.9-7.7,1.5c-0.55,0.13-1.1,0.17-1.66,0.16c-0.79,0.03-0.83-0.44-0.84-1.09c-0.01-0.79,0.53-0.97,1.06-1.02
		c1.62-0.15,3.18-0.57,4.78-0.78c0.24-0.03,0.46-0.1,0.69-0.17c1.2-0.26,2.4-0.62,3.65-0.3
		C490.51,269.9,490.53,270.21,490.55,270.51z"/>
	<path style="fill-rule:evenodd;clip-rule:evenodd;fill:#6E706F;" d="M489.76,259.94c-0.23-0.21-0.47-0.42-0.7-0.64
		c-0.57-0.37-1.39-0.4-1.63-1.21c-0.2-0.42-0.44-0.83-0.66-1.24c-0.45-0.77-0.49-1.55-0.09-2.35c3.08,0.1,2.63-0.53,2.88,2.7
		C489.63,258.11,489.69,259.03,489.76,259.94z"/>
	<path style="fill-rule:evenodd;clip-rule:evenodd;fill:#423132;" d="M491.16,277.78c-2.19,0.84-4.5,0.66-6.78,0.8
		c-2.25,0.14-4.49,0.4-6.72,0.73c-1.16,0.17-2.31,0.05-3.45,0.13c-0.13,0.11-0.23,0.08-0.3-0.07c1.01-0.53,2.09-0.39,3.16-0.33
		c0.11-0.07,0.19-0.17,0.26-0.27c3.01-0.47,6.06-0.35,9.08-0.56c0.09-0.04,0.18-0.09,0.26-0.15c0.48-0.02,0.97-0.05,1.45-0.07
		c0.28-0.22,0.66,0.01,0.94-0.19c0.08-0.02,0.17-0.03,0.26-0.05c0.2-0.19,0.5-0.01,0.7-0.2c0.37-0.01,0.75-0.03,1.12-0.04
		C491.15,277.59,491.15,277.69,491.16,277.78z"/>
	<path style="fill-rule:evenodd;clip-rule:evenodd;fill:#46453F;" d="M490.48,269.6c-1.19,0.16-2.38,0.32-3.57,0.48
		c-0.08-0.09-0.23-0.11-0.25-0.25c1.2-0.62,2.52-0.61,3.82-0.7C490.48,269.28,490.48,269.44,490.48,269.6z"/>
	<path style="fill-rule:evenodd;clip-rule:evenodd;fill:#55524B;" d="M486.67,254.5c0.04,0.82-0.16,1.69,0.47,2.39
		c-0.06,0.16-0.16,0.3-0.35,0.31c-0.54-0.17-1.02-0.43-1.38-0.89c-0.03-0.22,0.12-0.29,0.29-0.34c0.61,0.12,0.46-0.32,0.5-0.65
		C486.25,255,485.93,254.43,486.67,254.5z"/>
	<path style="fill-rule:evenodd;clip-rule:evenodd;fill:#3D3836;" d="M485.71,255.97c-0.09,0.07-0.17,0.14-0.26,0.21
		c-0.17,0.18-0.37,0.18-0.58,0.08c-0.03-0.04-0.06-0.08-0.1-0.13c0-0.1,0-0.19,0-0.29C485.08,255.88,485.39,255.93,485.71,255.97z"
		/>
	<path style="fill-rule:evenodd;clip-rule:evenodd;fill:#534240;" d="M481.63,275.35c2.86-0.75,5.76-1.27,8.69-1.66
		c0.12-0.02,0.25,0.14,0.38,0.21c-2.87,0.56-5.73,1.11-8.6,1.67C481.98,275.43,481.73,275.55,481.63,275.35z"/>
	<path style="fill-rule:evenodd;clip-rule:evenodd;fill:#53423F;" d="M473.29,270.07c0.07,0,0.13,0.01,0.2,0.01
		c0.12-0.03,0.29-0.02,0.31,0.08c0.44,1.55,1.75,2.24,2.98,3c0.17,0.1,0.28,0.27,0.36,0.46c0.02,0.12-0.01,0.23-0.08,0.33
		C475.1,273.35,473.52,272.36,473.29,270.07z"/>
	<path style="fill-rule:evenodd;clip-rule:evenodd;fill:#403333;" d="M477.32,278.96c-1.05,0.66-2.31-0.17-3.36,0.48
		c-0.24,0.17-0.48,0.17-0.72,0.01c-0.08,0-0.15,0-0.23,0c-0.48-0.08-1.01,0.17-1.44-0.22c1.83,0,3.63-0.62,5.48-0.3
		C477.15,278.87,477.24,278.87,477.32,278.96z"/>
	<path style="fill-rule:evenodd;clip-rule:evenodd;fill:#3C3330;" d="M481.63,275.35c0.16,0.08,0.32,0.15,0.48,0.23
		c-1.06,0.26-2.12,0.64-3.12-0.19c-0.06-0.08-0.09-0.17-0.07-0.27c0.13-0.22,0.31-0.38,0.52-0.52c0.1-0.03,0.19-0.01,0.28,0.05
		c0.01,0.24,0.02,0.49,0.03,0.73c0.12,0.12,0.29,0.1,0.42,0.18C480.65,275.49,481.14,275.42,481.63,275.35z"/>
	<path style="fill-rule:evenodd;clip-rule:evenodd;fill:#4F3E3D;" d="M479,275.08c-0.01,0.1-0.01,0.21-0.02,0.31
		c-0.64-0.48-1.28-0.96-1.91-1.44c0-0.09,0.01-0.18,0.01-0.27C478.15,273.55,478.73,274.11,479,275.08z"/>
	<path style="fill-rule:evenodd;clip-rule:evenodd;fill:#5F371E;" d="M489.06,277.8c-0.27,0.3-0.62,0.18-0.94,0.19
		C488.39,277.69,488.73,277.78,489.06,277.8z"/>
	<path style="fill-rule:evenodd;clip-rule:evenodd;fill:#5F371E;" d="M490.02,277.54c-0.18,0.25-0.45,0.22-0.7,0.2
		C489.51,277.51,489.77,277.53,490.02,277.54z"/>
	<path style="fill-rule:evenodd;clip-rule:evenodd;fill:#5F371E;" d="M477.32,278.96c-0.09-0.01-0.17-0.02-0.26-0.03
		c0.09-0.05,0.18-0.11,0.27-0.16C477.32,278.83,477.32,278.89,477.32,278.96z"/>
	<path style="fill-rule:evenodd;clip-rule:evenodd;fill:#5F371E;" d="M486.67,278.06c-0.09,0.05-0.17,0.1-0.26,0.15
		C486.5,278.15,486.58,278.1,486.67,278.06z"/>
	<path style="fill-rule:evenodd;clip-rule:evenodd;fill:#3B3B35;" d="M486.66,269.83c0.08,0.08,0.17,0.17,0.25,0.25
		c-1.79,0.33-3.58,0.63-5.37,0.99c-0.46,0.09-1.08,0.07-1.11,0.83c-0.02,0.52,0.11,0.87,0.71,0.83c-0.08,0.59-0.46,0.29-0.76,0.26
		l-0.08,0.01l-0.08,0c-0.12,0.04-0.21,0.12-0.27,0.24c-0.01,0.15-0.03,0.3-0.04,0.44c-0.12,0.08-0.23,0.06-0.32-0.05
		c-0.18-0.28-0.19-0.59-0.1-0.9c0.07-0.36,0.53-0.26,0.65-0.57c0-0.2,0-0.39,0-0.58c0.12-0.41-0.14-0.9,0.27-1.25
		c0.83,0.62,1.73,0.2,2.58,0.11C484.24,270.31,485.45,270.04,486.66,269.83z"/>
	<path style="fill-rule:evenodd;clip-rule:evenodd;fill:#494842;" d="M480.17,272.15c-0.15,0.19-0.31,0.39-0.46,0.58
		c-0.42,0.17-0.81-0.01-1.13-0.21c-1.41-0.87-2.65-2.01-4.21-2.66c-0.18-0.07-0.25-0.3-0.16-0.52c0-0.07-0.01-0.13-0.01-0.2
		c1.47,0.49,2.75,1.31,3.94,2.29C478.7,271.93,479.33,272.39,480.17,272.15z"/>
	<path style="fill-rule:evenodd;clip-rule:evenodd;fill:#F3D65C;" d="M475.64,288.32c-0.01-0.32-0.01-0.64-0.02-0.96
		c-0.16-1.29-0.32-2.58-0.47-3.86c-0.2-1.3,0.22-1.91,1.68-1.91c1.52,0.01,3.05-0.3,4.57-0.48c0.16-0.14,0.32-0.13,0.49-0.01l0,0
		c0.08,0.72,0.16,1.44,0.23,2.17c0.06,1.12,0.13,2.24,0.19,3.36c-0.5,0.27-0.77-0.08-0.93-0.42c-0.38-0.81-0.91-1.58-0.9-2.52
		c0.01-0.34,0.5-0.71,0.22-0.97c-0.35-0.32-0.78,0.18-1.19,0.19c-0.09,0.04-0.19,0.08-0.28,0.12c-0.09,0.05-0.18,0.09-0.27,0.14
		c-0.04,0.03-0.09,0.05-0.13,0.08c-0.17,0.1-0.35,0.19-0.55,0.25c-0.29,0.07-0.57,0.15-0.85,0.26c-0.26,0.11-0.51,0.11-0.75,0.02
		c-0.14,0-0.03-0.15-0.05,0c0,0.04,0.08,0.08,0.15,0.1c0.12,0.09,0.18,0.21,0.19,0.35c0.17,0.26-0.66,0.37-0.1,0.68
		c0.11,0.21,0.05,0.4-0.04,0.59c-0.08,0.17-0.2,0.33-0.1,0.53c0.08,0.12,0.16,0.24,0.2,0.38c0,0.31-0.16,0.57-0.22,0.86
		c-0.25,0.37-0.47,0.77-0.83,1.07l-0.12-0.03L475.64,288.32z"/>
	<path style="fill-rule:evenodd;clip-rule:evenodd;fill:#79664F;" d="M481.88,281.11c-0.16,0-0.33,0-0.49,0.01
		C481.55,280.9,481.72,280.88,481.88,281.11z"/>
	<path style="fill-rule:evenodd;clip-rule:evenodd;fill:#5B5852;" d="M481.62,266.23c2.39-0.91,4.96-0.53,7.41-0.98
		c0.25,0.11,0.74-0.15,0.75,0.26c0.01,0.29-0.44,0.22-0.71,0.25c-2.32,0.24-4.64,0.48-6.96,0.71
		C481.94,266.39,481.78,266.31,481.62,266.23z"/>
	<path style="fill-rule:evenodd;clip-rule:evenodd;fill:#5B564D;" d="M479.01,266.22c0.06,0.09,0.12,0.18,0.18,0.27
		C479.13,266.4,479.07,266.31,479.01,266.22z"/>
	<path style="fill-rule:evenodd;clip-rule:evenodd;fill:#F3DD81;" d="M476.6,285.46c0.08-0.16,0.16-0.31,0.23-0.47
		c0.09-0.33,0.35-0.38,0.64-0.41c0.05-0.01,0.24,0.09,0.16-0.11c-0.01-0.04-0.14-0.04-0.22-0.07c-0.1-0.06-0.16-0.15-0.19-0.25
		c0.01-0.12,0.06-0.21,0.14-0.29c0.14-0.09,0.28-0.18,0.43-0.26c0.16-0.06,0.33-0.06,0.5-0.09c0.27-0.1,0.54-0.24,0.84-0.14
		c0.56,0.2,0.96,0.63,1.17,1.13c0.73,1.75,1.73,3.38,2.39,5.17c-0.02,0.43,0.07,0.86-0.07,1.28c0.07,0.25,0.13,0.5,0.2,0.74
		c0.19,0.3,0.12,0.62,0.05,0.94c0.19,1.53,0.19,3.09,0.66,4.58c0.01,0.16,0.02,0.32,0.03,0.48c0.08,0.56,0.16,1.12,0.23,1.67
		c0.05,0.25,0.1,0.49,0.15,0.74c-0.07,0.17-0.08,0.33,0.1,0.45l0-0.02c0.09,0.56-0.2,1.06-0.29,1.59c-0.03,0.11-0.07,0.21-0.12,0.32
		c-0.52,0.83-0.92,1.77-2.02,2.01c-0.46,0.02-0.9,0.28-1.37,0.08c-0.1-0.07-0.16-0.16-0.18-0.28c0.04-0.32,0.25-0.52,0.49-0.7
		c0.23-0.16,0.49-0.28,0.74-0.42c1.45-0.77,1.62-2.1,1.53-3.54c-0.03-0.11-0.05-0.22-0.07-0.34c0.02-0.61-0.23-1.15-0.43-1.71
		c-0.16-2.26-0.64-4.48-0.84-6.74c-0.14-1.62-1.2-2.83-1.82-4.23c-0.18-0.58-0.71-0.46-1.14-0.54c-0.13-0.06-0.24-0.16-0.32-0.28
		c-0.04-0.11-0.03-0.23,0.03-0.34c-0.01,0.01-0.03-0.07-0.03-0.07s-0.08,0.04-0.09,0.06c-0.1,0.14-0.15,0.29-0.22,0.42
		c-0.15,0.27-0.31,0.53-0.61,0.68c-0.16,0.05-0.31,0.05-0.45-0.07c-0.09-0.09-0.19-0.19-0.28-0.29
		C476.43,285.91,476.84,285.69,476.6,285.46z"/>
	<path style="fill-rule:evenodd;clip-rule:evenodd;fill:#F3D86A;" d="M482.55,289.52c-1.15-1.56-1.73-3.41-2.64-5.1
		c-0.19-0.36-0.6-0.61-0.91-0.9c-0.06-0.06-0.08-0.13-0.07-0.2c0.01-0.07,0.03-0.11,0.05-0.11c0.14-0.12,0.3-0.16,0.48-0.18
		c0.29-0.01,0.56,0.08,0.83,0.18c0.16,0.06,0.3,0.15,0.39,0.31c0.39,1.12,0.44,2.42,1.63,3.12c0.1,0.72,0.21,1.45,0.31,2.17
		C482.73,289.06,482.81,289.31,482.55,289.52z"/>
	<path style="fill-rule:evenodd;clip-rule:evenodd;fill:#74594A;" d="M482.55,289.52c0.02-0.24,0.05-0.47,0.07-0.71
		c0.33,0.7,0.29,1.41,0.03,2.12C482.61,290.46,482.58,289.99,482.55,289.52z"/>
	<path style="fill-rule:evenodd;clip-rule:evenodd;fill:#624A43;" d="M482.9,292.62c-0.02-0.31-0.04-0.63-0.05-0.94
		c0.08,0,0.15,0.01,0.23,0.03c0.01,0.14,0.01,0.29,0.02,0.43C483.03,292.3,482.96,292.46,482.9,292.62z"/>
	<path style="fill-rule:evenodd;clip-rule:evenodd;fill:#5B564D;" d="M476.12,260.49c0.07,0.08,0.14,0.16,0.22,0.24
		C476.26,260.65,476.19,260.57,476.12,260.49z"/>
	<path style="fill-rule:evenodd;clip-rule:evenodd;fill:#5B564D;" d="M475.87,260.26c0.08,0.08,0.16,0.15,0.24,0.23
		C476.03,260.41,475.95,260.33,475.87,260.26z"/>
	<path style="fill-rule:evenodd;clip-rule:evenodd;fill:#5B564D;" d="M475.65,260.07c0.07,0.06,0.14,0.12,0.21,0.18
		C475.79,260.19,475.72,260.13,475.65,260.07z"/>
	<path style="fill-rule:evenodd;clip-rule:evenodd;fill:#5B564D;" d="M475.16,259.78c0.11,0.06,0.21,0.13,0.32,0.19
		C475.37,259.9,475.27,259.84,475.16,259.78z"/>
	<path style="fill-rule:evenodd;clip-rule:evenodd;fill:#5B564D;" d="M476.35,260.75c0.07,0.07,0.14,0.15,0.21,0.22
		C476.49,260.9,476.42,260.82,476.35,260.75z"/>
	<path style="fill-rule:evenodd;clip-rule:evenodd;fill:#5B564D;" d="M474.68,259.57c0.11,0.05,0.23,0.1,0.34,0.15
		C474.91,259.67,474.8,259.62,474.68,259.57z"/>
	<path style="fill-rule:evenodd;clip-rule:evenodd;fill:#F2DD84;" d="M477.53,301.76c-0.01-0.24-0.02-0.47-0.04-0.71
		c-0.06-0.32-0.13-0.64-0.19-0.96c-0.06-0.24-0.13-0.48-0.19-0.73c-0.1-0.96-0.2-1.92-0.3-2.88c-0.07-0.95-0.15-1.91-0.22-2.86
		c-0.24-1.52-0.11-3.05-0.08-4.58c0.01-0.32,0.11-0.62,0.41-0.81c0.14-0.04,0.27-0.03,0.4,0.02c0.52,0.64,0.28,1.42,0.4,2.13
		c0.01,0.27-0.06,0.52-0.11,0.78c0,3.48,0.05,6.95,1.39,10.24c0.19,0.23,0.34,0.49,0.5,0.73c0.1,0.24,0.02,0.45-0.09,0.66
		c-0.12,0.2-0.25,0.39-0.46,0.5c-0.56,0.17-0.82-0.25-1.12-0.59C477.75,302.39,477.64,302.08,477.53,301.76z"/>
	<path style="fill-rule:evenodd;clip-rule:evenodd;fill:#F2D970;" d="M477.14,288.29c-0.57,0.57-0.23,1.28-0.29,1.93
		c-0.11,1.13-0.17,2.27-0.25,3.41c-0.08-0.17-0.16-0.34-0.25-0.51c-0.01-0.24-0.02-0.49-0.03-0.73c-0.08-0.13-0.06-0.32-0.2-0.43
		c-0.01-0.34-0.02-0.67-0.03-1.01c-0.17-0.2,0.01-0.51-0.21-0.7c-0.01-0.24-0.02-0.49-0.04-0.73c0.01-0.39,0.02-0.78,0.03-1.17
		c-0.1-0.6,0.3-0.89,0.72-1.17c0.1-0.34,0.31-0.48,0.66-0.34c0.3,0.38,0.12,0.78,0.06,1.17C477.28,288.1,477.21,288.2,477.14,288.29
		z"/>
	<path style="fill-rule:evenodd;clip-rule:evenodd;fill:#F3D75E;" d="M477.86,302.71c0.4,0.16,0.79,0.32,1.19,0.48
		c0.18-0.18,0.38-0.2,0.6-0.11c0.09,0.06,0.15,0.15,0.17,0.25c-0.14,0.4,0.17,0.61,0.38,0.85c0,0.08,0.01,0.16,0.01,0.24
		c0.6,0.45,1.02-0.03,1.49-0.28c1.04-0.23,1.19-1.32,1.85-1.92c0.05,0.03,0.07,0.04,0.07,0.04c0.03,0.01,0-0.01-0.06-0.06
		c-0.08-0.64,0.21-1.17,0.52-1.7c0.07,0.01,0.13,0.03,0.19,0.06c-0.01,0.07,0.01,0.14,0.05,0.2c0.1,0.72,0.41,1.36,0.94,1.83
		c0.62,0.54,0.45,0.97-0.04,1.43c-0.55,0.29-1.1,0.59-1.65,0.88c-0.96,0.53-1.93,1.07-2.89,1.6c-0.4,0.01-0.79,0.01-1.19,0.02
		c-1.2-0.8-1.22-2.17-1.64-3.35C477.85,303.04,477.85,302.87,477.86,302.71z"/>
	<path style="fill-rule:evenodd;clip-rule:evenodd;fill:#F4E296;" d="M481.88,256.39c0.18-0.07,0.36-0.13,0.53-0.2
		c0.79-0.02,1.57-0.04,2.36-0.06l-0.02,0.05c1.79,0.92,2.48,2.53,2.74,4.4c0,0.31-0.52,0.29-0.44,0.66c0.03,0.14,0.03,0.27,0,0.41
		c-0.05,0.19-0.05,0.37,0.02,0.55c0.08,0.33,0.03,0.63-0.16,0.9c-0.07,0.09-0.14,0.17-0.22,0.24c-0.42,0.35-0.91,0.41-1.44,0.34
		c-0.4-0.03-0.81,0-1.19-0.17c-0.34-0.19-0.49-0.49-0.47-0.87c0.01-0.1,0.04-0.2,0.08-0.29c0.17-0.31-0.11-0.17-0.21-0.2
		c-0.33-0.03-0.63-0.13-0.87-0.38c-0.06-0.1-0.09-0.2-0.07-0.31c0.1-0.21,0.29-0.32,0.49-0.42c0.14-0.06,0.29-0.08,0.45-0.09
		c0.18,0,0.36-0.01,0.53,0.02c0.07,0.01,0.12,0.06,0.13,0.13c-0.01,0,0-0.09,0-0.09s-0.07-0.05-0.07-0.05
		c-0.11-0.03-0.22-0.03-0.33-0.06c-0.08-0.02-0.16-0.04-0.25-0.05c-0.14-0.01-0.27,0.03-0.4,0.06c-0.35,0.07-0.68,0.3-1.06,0.09
		c-0.37-0.31-0.58-0.69-0.51-1.18c0.24-0.58,0.77-0.52,1.22-0.56c-0.03,0.02-0.11-0.05-0.11-0.05s-0.1,0.03-0.11,0.03
		c-0.24,0.04-0.48,0.03-0.71,0.04c-0.11-0.01-0.21-0.05-0.31-0.09c-0.09-0.06-0.16-0.15-0.2-0.25c-0.03-0.17,0-0.33,0.12-0.46
		c0.09-0.06,0.19-0.11,0.29-0.14c0.21-0.05,0.42-0.01,0.63-0.01c0.21,0,0.43,0.01,0.61-0.04c-0.03,0.01-0.1,0.01-0.13,0.01
		c-0.26,0.02-0.5,0.01-0.7-0.15c-0.11-0.15-0.13-0.3-0.08-0.47c0.05-0.1,0.14-0.16,0.26-0.19c-0.04-0.02-0.1-0.02-0.19,0
		c-0.2,0.05-0.37,0-0.51-0.16C481.47,256.95,481.62,256.65,481.88,256.39z"/>
	<path style="fill-rule:evenodd;clip-rule:evenodd;fill:#66655F;" d="M474.2,269.36c1.83,1.13,3.67,2.25,5.5,3.38
		c0,0.31,0,0.63,0,0.94c0.01,0.34,0.06,0.69-0.21,0.97c-0.04,0.29-0.18,0.46-0.5,0.43c-0.52-0.63-1.14-1.13-1.92-1.4
		c-1.49-0.9-3.2-1.6-3.59-3.6C473.42,269.53,473.67,269.3,474.2,269.36z"/>
	<path style="fill-rule:evenodd;clip-rule:evenodd;fill:#E0B92E;" d="M475.84,258.33c0.17-0.31,0.33-0.63,0.5-0.95
		c0.46-0.07,0.92-0.14,1.38-0.21c0.73,0.13,1.61,0.08,1.48,1.24c-0.22,0.17-0.48,0.14-0.74,0.15c-0.7-0.06-1.39,0.28-2.09,0.04
		C476.2,258.51,476.02,258.42,475.84,258.33z"/>
	<path style="fill-rule:evenodd;clip-rule:evenodd;fill:#3B322D;" d="M476.38,258.6c0.71-0.08,1.42-0.16,2.14-0.24
		c0.15,0.14,0.15,0.28,0,0.42c-0.55,0.02-1.09,0.04-1.64,0.06C476.71,258.76,476.55,258.68,476.38,258.6z"/>
	<path style="fill-rule:evenodd;clip-rule:evenodd;fill:#937550;" d="M475.88,290.25c0.27,0.18,0.22,0.44,0.21,0.7
		C475.85,290.77,475.88,290.5,475.88,290.25z"/>
	<path style="fill-rule:evenodd;clip-rule:evenodd;fill:#937550;" d="M476.12,291.96c0.07,0.14,0.14,0.29,0.2,0.43
		C476.25,292.25,476.19,292.1,476.12,291.96z"/>
	<path style="fill-rule:evenodd;clip-rule:evenodd;fill:#6A5245;" d="M479.21,258.31c-0.27-0.67-0.99-0.77-1.49-1.14
		c0.1-0.09,0.2-0.19,0.3-0.28c0.03-0.02,0.07-0.05,0.1-0.07c0.84,0.04,1.44,0.4,1.67,1.25C479.66,258.3,479.49,258.45,479.21,258.31
		z"/>
	<path style="fill-rule:evenodd;clip-rule:evenodd;fill:#F1D664;" d="M479.69,258.09c-0.42-0.54-0.96-0.96-1.57-1.27
		c0.29-0.13,0.59-0.26,0.88-0.39c0.47-0.02,0.94-0.05,1.42-0.07c0.25,0.02,0.49,0.04,0.74,0.06c0.08,0.33-0.17,0.42-0.39,0.54
		c0,0-0.09,0.03-0.09,0.03s0.08,0.04,0.09,0.04c0.19,0.05,0.34,0.15,0.44,0.3c0.27,0.22-0.46,0.3-0.08,0.53
		c0.33,0.31,0.12,0.7,0.15,1.05c0.04,0.32,0.39,0.5,0.36,0.85c0.16,0.39,0.31,0.79,0.47,1.18c0.1,0.23,0.44,0.25,0.48,0.54
		c0,0.06,0,0.11-0.01,0.17c0.17,0.21-0.06,0.47,0.1,0.69c0.11,0.28,0.35,0.54,0.15,0.87c-0.11,0.16-0.39,0.25-0.34,0.46
		c0.03,0.15,0.27,0.09,0.42,0.09c0.17-0.02,0.35-0.02,0.52-0.01c0.25,0.01,0.49,0.04,0.74,0.1c0.58,0.27,1.34-0.11,1.83,0.5
		c-0.37,0.53-0.97,0.28-1.45,0.43c-0.68,0.04-1.36-0.08-2.03,0.11c-1.39,0.02-1.4,0.02-1.48-1.31c-0.02-0.39-0.05-0.78-0.12-1.17
		c-0.05-1.3-0.43-2.51-1.02-3.67C479.75,258.57,479.7,258.34,479.69,258.09z"/>
	<path style="fill-rule:evenodd;clip-rule:evenodd;fill:#F2DB79;" d="M480.68,256.84c0.16-0.14,0.32-0.28,0.48-0.41
		c0.24-0.01,0.48-0.02,0.73-0.03c-0.08,0.31-0.16,0.62-0.24,0.93c-0.05,0.09-0.13,0.15-0.23,0.17c-0.11,0-0.19-0.05-0.26-0.13
		c-0.16-0.07-0.31-0.14-0.47-0.21C480.7,257.05,480.7,256.94,480.68,256.84z"/>
	<path style="fill-rule:evenodd;clip-rule:evenodd;fill:#F3D75E;" d="M484.08,300.54c-0.25-0.1-0.29-0.25-0.1-0.45
		C484.01,300.24,484.04,300.39,484.08,300.54z"/>
	<path style="fill-rule:evenodd;clip-rule:evenodd;fill:#534D45;" d="M481.13,262.18c0.08,0.5,0.26,1.01,0.22,1.5
		c-0.08,0.99,0.36,1.26,1.24,1.09c0.24-0.08,0.29,0.02,0.24,0.24c-0.94,0.03-1.94,0.79-2.72-0.52c-0.55-0.92-0.52-1.29,0.57-1.38
		C481.01,262.89,480.51,262.26,481.13,262.18z"/>
	<path style="fill-rule:evenodd;clip-rule:evenodd;fill:#403D39;" d="M487.64,258.1c0.33,0.58,0.98,0.69,1.49,1.01
		c0.02,0.01,0.01,0.08,0,0.11c-0.01,0.03-0.05,0.06-0.08,0.09c-0.48-0.09-0.83-0.27-0.75,0.6c0.12,1.34,1.06,2.52,0.74,3.93
		c-0.09,0.14-0.07,0.33-0.22,0.43l-0.1,0.03l-0.11-0.03c-0.28-0.08-0.39-0.28-0.41-0.56c-0.06-1.79-0.71-3.49-0.75-5.29
		C487.48,258.29,487.54,258.19,487.64,258.1z"/>
	<path style="fill-rule:evenodd;clip-rule:evenodd;fill:#7C6B5A;" d="M481.13,262.18c-0.37,0.21-0.02,0.77-0.46,0.94
		c0.14-1.54-0.43-2.92-0.95-4.31c0.03-0.16,0.12-0.27,0.3-0.29C480.72,259.63,481.03,260.87,481.13,262.18z"/>
	<path style="fill-rule:evenodd;clip-rule:evenodd;fill:#86745F;" d="M482.83,265.01c-0.08-0.08-0.16-0.16-0.24-0.24
		c0.62-0.31,1.29-0.23,1.94-0.2c0.19,0.24,0.57-0.03,0.74,0.27C484.47,265.19,483.64,265.03,482.83,265.01z"/>
	<path style="fill-rule:evenodd;clip-rule:evenodd;fill:#4B4341;" d="M485.26,264.84c-0.25-0.09-0.49-0.18-0.74-0.27
		c0.48-0.1,1.01,0.12,1.44-0.24c0.24-0.29,0.56-0.3,0.9-0.28c0.25,0.07,0.53,0.11,0.51,0.47
		C486.67,264.62,485.97,264.73,485.26,264.84z"/>
	<path style="fill-rule:evenodd;clip-rule:evenodd;fill:#726157;" d="M487.38,264.52c-0.16-0.07-0.31-0.14-0.47-0.2
		c0.3-0.75,0.84-0.75,1.46-0.44c0.08,0.13,0.16,0.26,0.24,0.39C488.2,264.35,487.79,264.43,487.38,264.52z"/>
	<path style="fill-rule:evenodd;clip-rule:evenodd;fill:#574537;" d="M480.02,258.51c-0.1,0.1-0.2,0.19-0.3,0.29l0-0.03
		c-0.32-0.15-0.64-0.14-0.95-0.01c-0.08,0-0.17,0.01-0.25,0.01c0-0.14,0-0.28,0-0.42c0.23-0.01,0.47-0.03,0.7-0.04
		c0.16-0.07,0.32-0.15,0.48-0.22C479.8,258.23,479.91,258.37,480.02,258.51z"/>
	<path style="fill-rule:evenodd;clip-rule:evenodd;fill:#6A5245;" d="M478.77,258.77c0.32-0.29,0.64-0.31,0.95,0.01
		C479.4,258.77,479.08,258.77,478.77,258.77z"/>
	<path style="fill-rule:evenodd;clip-rule:evenodd;fill:#726157;" d="M488.82,264.27c0.08-0.14,0.15-0.29,0.22-0.43
		C489.08,264.04,489.09,264.23,488.82,264.27z"/>
	<path style="fill-rule:evenodd;clip-rule:evenodd;fill:#4E3134;" d="M473.23,279.44c0.24,0,0.48-0.01,0.72-0.01
		c0.08,0,0.16,0,0.24,0.01C473.88,279.77,473.56,279.76,473.23,279.44z"/>
	<path style="fill-rule:evenodd;clip-rule:evenodd;fill:#43433D;" d="M480.4,272.99c0.27-0.04,0.57,0.02,0.76-0.26
		c2.53-0.43,5.06-0.84,7.58-1.31c0.6-0.11,1.18-0.13,1.77-0.12c-3.07,0.61-6.08,1.54-9.21,1.9
		C480.98,273.23,480.65,273.24,480.4,272.99z"/>
	<path style="fill-rule:evenodd;clip-rule:evenodd;fill:#494842;" d="M479.5,274.65c0.02-0.33-0.13-0.7,0.21-0.97
		c0.08,0,0.15,0,0.23-0.01c0.01,0.34,0.11,0.71-0.23,0.97C479.64,274.64,479.57,274.64,479.5,274.65z"/>
	<path style="fill-rule:evenodd;clip-rule:evenodd;fill:#9A9490;" d="M480.16,275.56c-0.17,0.01-0.36,0.07-0.42-0.18
		C479.88,275.43,480.02,275.5,480.16,275.56z"/>
	<path style="fill-rule:evenodd;clip-rule:evenodd;fill:#494842;" d="M479.98,273.23c0.09-0.08,0.18-0.16,0.27-0.24
		C480.15,273.07,480.06,273.15,479.98,273.23z"/>
	<path style="fill-rule:evenodd;clip-rule:evenodd;fill:#45423C;" d="M487.64,258.1c0.01,0.07,0.01,0.14,0,0.21
		c-0.74-0.08-0.78-0.6-0.73-1.17c0.08-0.08,0.16-0.17,0.24-0.25C487.31,257.29,487.47,257.7,487.64,258.1z"/>
	<path style="fill-rule:evenodd;clip-rule:evenodd;fill:#F2D96F;" d="M486.91,257.14c0.24,0.39,0.49,0.78,0.73,1.17
		c0.26,1.85,0.96,3.64,0.73,5.56c-0.49,0.15-0.97,0.29-1.46,0.44c-0.31,0-0.63,0.01-0.94,0.01c-0.64-0.11-1.33,0.23-1.93-0.24
		c-0.06-0.06-0.08-0.13-0.06-0.2c0.01-0.07,0.03-0.1,0.05-0.1c0.42-0.33,1.03-0.02,1.43-0.41c0.48,0.25,0.83-0.08,1.22-0.25l0,0
		c0.08-0.31,0.16-0.61,0.24-0.92c0.01-0.17-0.16-0.33,0-0.49c0-0.16,0-0.32,0.01-0.47c0.05-0.27,0.34-0.32,0.47-0.52
		c-0.46-1.75-1.26-3.31-2.64-4.52c0.23,0,0.46,0,0.69,0C485.93,256.5,486.42,256.82,486.91,257.14z"/>
	<path style="fill-rule:evenodd;clip-rule:evenodd;fill:#907B51;" d="M477.32,284.23c0.53,0.28,1.53-0.27,1.47-0.07
		c-0.26,0.89-1.27,0.57-1.96,0.83c-0.37-0.11-0.94,0.5-1.03,0.02c-0.11-0.55,0.74-0.39,1.07-0.71
		C476.99,284.09,477.15,284.1,477.32,284.23z"/>
	<path style="fill-rule:evenodd;clip-rule:evenodd;fill:#605141;" d="M480.68,283.52c-0.13-0.01-0.27-0.02-0.4-0.03
		c-0.2-0.13-0.34-0.36-0.61-0.39c-0.19-0.07-0.4-0.11-0.48-0.34c0.29-0.08,0.6-0.12,0.86-0.26c0.32-0.16,0.61-0.64,0.98-0.16
		C481.4,282.85,481.08,283.22,480.68,283.52z"/>
	<path style="fill-rule:evenodd;clip-rule:evenodd;fill:#A7925B;" d="M476.6,285.46c0.89,0.25,0.12,0.46-0.02,0.68
		c-0.21-0.05-0.58-0.08-0.6-0.17C475.9,285.52,476.49,285.75,476.6,285.46z"/>
	<path style="fill-rule:evenodd;clip-rule:evenodd;fill:#7A6249;" d="M477.54,283.99c-0.07-0.01-0.14-0.02-0.21-0.01
		c-0.16-0.13-0.13-0.3-0.07-0.46c0.33-0.08,0.67-0.15,1-0.22c0.17,0.15,0.16,0.31,0,0.46c-0.16,0.03-0.32,0.06-0.48,0.1
		C477.69,283.87,477.61,283.92,477.54,283.99z"/>
	<path style="fill-rule:evenodd;clip-rule:evenodd;fill:#816853;" d="M477.31,286.86c-0.24,0.1-0.47,0.2-0.71,0.31
		c-0.57-0.49,0.14-0.51,0.27-0.74c0.14,0,0.29,0,0.43-0.01c0.03,0.03,0.07,0.06,0.1,0.09c0.03,0.09,0.03,0.18,0,0.26
		C477.37,286.8,477.34,286.83,477.31,286.86z"/>
	<path style="fill-rule:evenodd;clip-rule:evenodd;fill:#7F6549;" d="M476.56,283.98c-0.29-0.04-0.72,0.52-0.83-0.01
		c-0.07-0.33,0.51-0.44,0.89-0.45C476.72,283.69,476.76,283.85,476.56,283.98z"/>
	<path style="fill-rule:evenodd;clip-rule:evenodd;fill:#EBD26E;" d="M476.56,283.98c0.02-0.15,0.04-0.31,0.06-0.46
		c0.21,0.13,0.43,0.2,0.64,0c0.02,0.15,0.05,0.31,0.07,0.46c0,0.08,0,0.17,0,0.25c-0.15,0.02-0.3,0.05-0.45,0.07
		C476.77,284.19,476.66,284.08,476.56,283.98z"/>
	<path style="fill-rule:evenodd;clip-rule:evenodd;fill:#543D36;" d="M479.19,282.77c0.18,0.09,0.36,0.18,0.53,0.26
		c-0.05,0.17-0.2,0.18-0.33,0.21c-0.13,0.02-0.26,0.03-0.38,0.05c-0.24,0.07-0.3-0.03-0.22-0.25l-0.01,0.01
		c0.07-0.08,0.14-0.17,0.2-0.27C479.04,282.78,479.11,282.78,479.19,282.77z"/>
	<path style="fill-rule:evenodd;clip-rule:evenodd;fill:#EBD26E;" d="M478.78,283.04c0.07,0.08,0.15,0.17,0.22,0.25
		c0,0.08,0,0.15,0,0.22c-0.25,0.08-0.49,0.16-0.74,0.23c0-0.15,0-0.31,0-0.46C478.43,283.21,478.61,283.13,478.78,283.04z"/>
	<path style="fill-rule:evenodd;clip-rule:evenodd;fill:#EBD26E;" d="M478.96,282.79c-0.07,0.09-0.13,0.18-0.2,0.27
		C478.83,282.97,478.9,282.88,478.96,282.79z"/>
	<path style="fill-rule:evenodd;clip-rule:evenodd;fill:#F5E398;" d="M477.09,288.08c0.07-0.41,0.15-0.81,0.22-1.22l0,0.01
		c0.17-0.16,0.18-0.31-0.01-0.47l0,0.01c0.16-0.25,0.32-0.49,0.48-0.74c0.15-0.14,0.3-0.15,0.47-0.03c0.09,0.08,0.18,0.16,0.27,0.24
		c0,0,0,0.1,0,0.1c-0.01,0.06-0.04,0.12-0.09,0.18c-0.02,0.06-0.03,0.09-0.05,0.12c0.07-0.02,0.13-0.04,0.21-0.08
		c0.38-0.03,0.74-0.41,1.13-0.06c1.3,1.78,2.26,3.71,2.34,5.96c0.07,1.87,0.72,3.67,0.54,5.56c0.32,0.51,0.29,1.13,0.48,1.68
		c0,0.08,0,0.16,0,0.24c0.1,0.24-0.05,0.3-0.23,0.35c-0.88-0.54-0.8-1.68-1.49-2.34c-0.34-0.68-0.7-0.04-1.04,0
		c-0.18,0.09-0.37,0.18-0.56,0.26c-0.16,0.08-0.33,0.15-0.29,0.38c0.07,0.23,0.17,0.45,0.08,0.7c-0.08,0.28-0.58,0.32-0.4,0.74
		c0.08,0.18,0.12,0.37,0.15,0.56c0.03,0.2,0.08,0.39,0.16,0.58c0.09,0.3,0.37,0.54,0.3,0.89c-0.22,0.28-0.47,0.28-0.73,0.07
		c-1.07-1.05-1.12-2.49-1.31-3.82c-0.3-2.12-0.43-4.26-0.6-6.39c-0.02-0.21,0.15-0.44,0.24-0.67c0.17-0.06,0.31-0.18,0.47-0.26
		c0,0,0.04-0.04,0.04-0.04s-0.1,0.01-0.11,0.01c-0.1,0-0.16-0.05-0.2-0.12c-0.48-0.66-0.13-1.42-0.23-2.12
		c0.21-0.29,0.54-0.37,0.86-0.46C477.81,287.92,477.49,288.23,477.09,288.08z"/>
	<path style="fill-rule:evenodd;clip-rule:evenodd;fill:#F3E093;" d="M482.84,299.84c0.08-0.08,0.16-0.16,0.24-0.24
		c0.46,1.46-0.28,3.12-1.71,3.83c-0.38-0.08-0.65,0.15-0.94,0.34c-0.54,0.18-0.52-0.34-0.72-0.58l0.01,0.01
		c-0.16-0.36,0.17-0.45,0.35-0.61c0.18-0.11,0.37-0.2,0.56-0.28c0.14-0.06,0.29-0.11,0.44-0.16c0.2-0.06,0.38-0.16,0.57-0.25
		C482.42,301.43,482.35,300.47,482.84,299.84z"/>
	<path style="fill-rule:evenodd;clip-rule:evenodd;fill:#826C54;" d="M479.72,303.19c0.5-0.24,0.31,0.43,0.6,0.46
		c0.16-0.1,0.3-0.08,0.42,0.06c-0.18,0.16-0.36,0.32-0.54,0.48c-0.29-0.04-0.64,0.3-0.87-0.09
		C479.07,303.66,479.62,303.51,479.72,303.19z"/>
	<path style="fill-rule:evenodd;clip-rule:evenodd;fill:#89735B;" d="M478.06,286.17c0.08-0.03,0.16-0.07,0.24-0.1
		c0.09-0.02,0.15-0.07,0.19-0.15l0.03-0.02c0.39,0.14,0.99-0.67,1.2,0.26c-0.55,0.16-1.11,0.32-1.66,0.47
		C477.9,286.47,477.9,286.32,478.06,286.17z"/>
	<path style="fill-rule:evenodd;clip-rule:evenodd;fill:#8B7353;" d="M481.7,304.15c-0.41,0.54-0.8,1.22-1.49,0.28
		C480.7,304.34,481.2,304.24,481.7,304.15z"/>
	<path style="fill-rule:evenodd;clip-rule:evenodd;fill:#F3E093;" d="M483.08,299.36c-0.35-0.51-0.41-1.09-0.48-1.68
		C483.15,298.13,483.08,298.75,483.08,299.36z"/>
	<path style="fill-rule:evenodd;clip-rule:evenodd;fill:#A28E66;" d="M478.01,285.17c0.33-0.24,0.81-0.42,1.02-0.11
		c0.19,0.27-0.26,0.33-0.52,0.36C478.36,285.31,478.1,285.4,478.01,285.17z"/>
	<path style="fill-rule:evenodd;clip-rule:evenodd;fill:#7A6555;" d="M478.01,285.17c0.17,0.08,0.33,0.17,0.5,0.25
		c-0.09,0.08-0.18,0.15-0.27,0.23c-0.16,0.01-0.31,0.02-0.47,0.03C477.77,285.47,477.78,285.27,478.01,285.17z"/>
	<path style="fill-rule:evenodd;clip-rule:evenodd;fill:#755E4E;" d="M480.74,303.71c-0.14-0.02-0.28-0.04-0.42-0.06
		c0.33-0.17,0.59-0.68,1.05-0.22C481.16,303.53,480.95,303.62,480.74,303.71z"/>
	<path style="fill-rule:evenodd;clip-rule:evenodd;fill:#EBD26E;" d="M477.54,283.99c0.08-0.05,0.17-0.09,0.25-0.14
		C477.7,283.9,477.62,283.94,477.54,283.99z"/>
	<path style="fill-rule:evenodd;clip-rule:evenodd;fill:#EBD26E;" d="M479.39,283.24c0.11-0.07,0.22-0.14,0.33-0.21
		c0.31,0.01,0.46,0.2,0.55,0.46C479.98,283.41,479.68,283.33,479.39,283.24z"/>
	<path style="fill-rule:evenodd;clip-rule:evenodd;fill:#F4E4A4;" d="M482.84,299.84c0.01,1.02-0.14,1.96-1.26,2.38
		c-0.04-0.07-0.1-0.1-0.19-0.09c-0.07,0.03-0.13,0.08-0.18,0.14c-0.07,0.05-0.15,0.08-0.23,0.08c-0.25-0.04-0.43,0.11-0.62,0.23
		c-0.1,0.02-0.19,0.05-0.28,0.1c-0.28,0.15-0.56,0.34-0.84,0c0.07-0.17,0.14-0.34,0.22-0.52c0.12-0.47,0.58-0.42,0.88-0.58
		c0.02-0.06,0.08-0.09,0.16-0.07c-0.01,0.01-0.05-0.07-0.05-0.07s-0.02,0.09-0.02,0.09c-0.07,0.04-0.13,0.07-0.21,0.09
		c-0.18,0-0.36,0.06-0.49-0.12c-0.44-0.02-0.49-0.31-0.48-0.66c0.35-0.69,1.14-0.58,1.69-0.91c-0.6,0.16-1.14,0.52-1.79,0.5
		c-0.04,0-0.07-0.03-0.11-0.05c-0.01-0.25-0.02-0.5-0.03-0.74c0.02-0.33,0.3-0.41,0.52-0.55c0.12-0.07,0.28-0.09,0.37-0.22
		c-0.15,0.04-0.29,0.09-0.41-0.06c-0.08-0.2-0.16-0.4-0.24-0.61c0.03-0.45,0.52-0.37,0.73-0.62c0.11-0.03,0.22-0.06,0.33-0.1
		c0.36-0.11,0.71-0.47,1.11-0.07C482.37,297.95,482.37,299.03,482.84,299.84z"/>
	<path style="fill-rule:evenodd;clip-rule:evenodd;fill:#86705A;" d="M477.09,288.08c0.03-0.02,0.06-0.05,0.1-0.07
		c0.41-0.21,0.82-0.47,1.32-0.36c0.04,0.01,0.09,0.15,0.07,0.18c-0.31,0.42-0.77,0.48-1.24,0.53c-0.05-0.04-0.11-0.06-0.18-0.07
		C477.12,288.22,477.11,288.15,477.09,288.08z"/>
	<path style="fill-rule:evenodd;clip-rule:evenodd;fill:#5A4A43;" d="M479.72,301.52c0.23-0.02,0.46-0.03,0.69-0.05l0.05,0.06
		c-0.33,0.21-0.67,0.42-1,0.64c-0.28,0.01-0.46-0.08-0.43-0.4C479.27,301.71,479.57,301.82,479.72,301.52z"/>
	<path style="fill-rule:evenodd;clip-rule:evenodd;fill:#6E5B4E;" d="M479.24,302.69c0.32-0.05,0.65-0.1,0.97-0.15
		c0.07,0.06,0.1,0.12,0.08,0.18c-0.02,0.06-0.04,0.09-0.07,0.09c-0.16,0.13-0.33,0.26-0.49,0.4c-0.23,0-0.45-0.01-0.68-0.01
		C479.11,303.02,479.17,302.86,479.24,302.69z"/>
	<path style="fill-rule:evenodd;clip-rule:evenodd;fill:#957F66;" d="M477.81,290.82c-0.15,0.03-0.3,0.05-0.46,0.08
		c0.07-0.14,0.13-0.28,0.2-0.42c0.08,0,0.17,0,0.25,0.01C477.93,290.59,477.94,290.7,477.81,290.82z"/>
	<path style="fill-rule:evenodd;clip-rule:evenodd;fill:#6F5444;" d="M483.56,302.22c0.24-0.05,0.47-0.42,0.7-0.04
		c0.04,0.07-0.08,0.31-0.19,0.38c-0.37,0.24-0.48,0.01-0.52-0.32L483.56,302.22z"/>
	<path style="fill-rule:evenodd;clip-rule:evenodd;fill:#EAD377;" d="M484.04,263.9c0,0.06,0,0.12,0,0.18
		c-0.22,0-0.43,0.01-0.65,0.01c-0.25-0.19-0.52-0.36-0.64-0.67c-0.02-0.11,0-0.2,0.08-0.28c-0.16-0.24-0.32-0.49-0.48-0.73
		c0.5-0.71,0.97-0.38,1.45,0.02c0.08,0.31,0.16,0.63,0.23,0.94C484.2,263.54,483.74,263.72,484.04,263.9z"/>
	<path style="fill-rule:evenodd;clip-rule:evenodd;fill:#786450;" d="M481.64,259.78c-0.33-0.08-0.5-0.27-0.45-0.63
		c0-0.18,0.06-0.2,0.18-0.08v-0.01c0.1,0.06,0.2,0.06,0.3,0c0.31-0.02,0.62-0.03,0.93-0.05c0.23-0.13,0.47-0.1,0.71-0.03
		C483.16,260.08,482.03,259.16,481.64,259.78z"/>
	<path style="fill-rule:evenodd;clip-rule:evenodd;fill:#715F4A;" d="M482.59,261.49c-0.32-0.04-0.75,0.03-0.48-0.54
		c0.39-0.07,0.71-0.5,1.17-0.25c0.11-0.07,0.21-0.07,0.32,0c0.07-0.01,0.14,0.01,0.21,0.05c0.13,0.12,0.35,0.07,0.47,0.21l0,0
		c0.05,0.05,0.07,0.1,0.05,0.16c-0.02,0.05-0.03,0.08-0.05,0.08c-0.24-0.01-0.48-0.03-0.73-0.04c-0.18-0.11-0.33-0.11-0.46,0.07
		C482.93,261.32,482.76,261.41,482.59,261.49z"/>
	<path style="fill-rule:evenodd;clip-rule:evenodd;fill:#55463F;" d="M484.04,263.9c-0.13-0.05-0.26-0.1-0.38-0.16
		c0.13-0.13,0.26-0.25,0.39-0.38c0.47,0,0.94,0.01,1.41,0.01C485.21,264.16,484.49,263.66,484.04,263.9z"/>
	<path style="fill-rule:evenodd;clip-rule:evenodd;fill:#E9D586;" d="M481.38,259.07c-0.06,0.03-0.12,0.06-0.18,0.08
		c-0.06-0.41,0.04-0.86-0.28-1.22c0.06-0.29,0.37-0.28,0.54-0.43c0.23,0,0.48-0.12,0.67,0.13c0,0.14,0,0.27,0,0.41
		c-0.04,0.14-0.13,0.22-0.25,0.27c-0.08,0.03-0.16,0.07-0.24,0.1c-0.08,0.03-0.16,0.07-0.22,0.12
		C481.4,258.72,481.39,258.89,481.38,259.07z"/>
	<path style="fill-rule:evenodd;clip-rule:evenodd;fill:#5D4F42;" d="M483.81,262.42c-0.48-0.06-0.96-0.33-1.45-0.02
		c-0.31-0.37,0.12-0.5,0.23-0.73c0.32,0.1,0.65,0.19,0.97,0.29c0.15,0.09,0.37,0.15,0.22,0.41L483.81,262.42z"/>
	<path style="fill-rule:evenodd;clip-rule:evenodd;fill:#423E3B;" d="M482.12,257.64c-0.24-0.01-0.48-0.01-0.72-0.02
		c-0.07-0.05-0.09-0.1-0.07-0.15c0.02-0.05,0.05-0.07,0.07-0.07c0.08-0.03,0.16-0.05,0.24-0.08c0.15,0,0.3,0,0.46-0.01
		c0.27-0.01,0.69-0.37,0.77-0.02C482.94,257.62,482.4,257.54,482.12,257.64z"/>
	<path style="fill-rule:evenodd;clip-rule:evenodd;fill:#947F5E;" d="M481.63,258.33c0.16-0.09,0.33-0.19,0.49-0.28
		c0.32,0.02,0.65,0.04,0.97,0.06c0.08,0.06,0.1,0.12,0.07,0.17c-0.03,0.05-0.05,0.08-0.08,0.08c-0.17,0.29-0.44,0.17-0.69,0.18
		C482.17,258.35,481.85,258.53,481.63,258.33z"/>
	<path style="fill-rule:evenodd;clip-rule:evenodd;fill:#5F5146;" d="M487.4,260.71c0.1,0.41-0.2,0.45-0.47,0.52
		c-0.18-0.11-0.36-0.23-0.55-0.34C486.66,260.5,487.06,260.78,487.4,260.71z"/>
	<path style="fill-rule:evenodd;clip-rule:evenodd;fill:#7F6B56;" d="M483.77,262.36c-0.07-0.14-0.15-0.27-0.22-0.41
		c0.39-0.04,0.92-0.62,1.12-0.09C484.83,262.28,484.02,262.06,483.77,262.36z"/>
	<path style="fill-rule:evenodd;clip-rule:evenodd;fill:#604B42;" d="M486.92,261.7c0.04,0.16,0.35,0.33,0,0.49
		c-0.17-0.06-0.42-0.06-0.37-0.32C486.57,261.8,486.79,261.76,486.92,261.7z"/>
	<path style="fill-rule:evenodd;clip-rule:evenodd;fill:#E9D586;" d="M483.31,258.98c-0.24,0.01-0.47,0.02-0.71,0.03
		C482.83,258.75,483.06,258.75,483.31,258.98z"/>
	<path style="fill-rule:evenodd;clip-rule:evenodd;fill:#E9D586;" d="M481.63,258.33c0.28-0.01,0.56-0.04,0.76,0.21
		c-0.25,0.01-0.51,0.01-0.76,0.02c-0.05-0.06-0.07-0.11-0.05-0.17c0.02-0.05,0.04-0.08,0.06-0.08L481.63,258.33z"/>
	<path style="fill-rule:evenodd;clip-rule:evenodd;fill:#625347;" d="M483.08,258.36c0-0.08,0.01-0.17,0.01-0.25
		c0.18,0.01,0.36,0.02,0.53,0.03C483.54,258.46,483.27,258.29,483.08,258.36z"/>
	<path style="fill-rule:evenodd;clip-rule:evenodd;fill:#7F6B55;" d="M483.09,261.24c0.12-0.25,0.27-0.29,0.46-0.07
		C483.4,261.19,483.25,261.21,483.09,261.24z"/>
	<path style="fill-rule:evenodd;clip-rule:evenodd;fill:#7F6B55;" d="M484.27,260.97c-0.16-0.07-0.31-0.14-0.47-0.21
		C483.96,260.82,484.12,260.89,484.27,260.97z"/>
	<path style="fill-rule:evenodd;clip-rule:evenodd;fill:#7F6B55;" d="M484.28,261.21c0-0.08-0.01-0.16-0.01-0.24
		C484.45,261.04,484.51,261.12,484.28,261.21z"/>
	<path style="fill-rule:evenodd;clip-rule:evenodd;fill:#E9D586;" d="M481.68,259.06c-0.1,0.12-0.2,0.17-0.3,0
		C481.48,259.06,481.58,259.06,481.68,259.06z"/>
	<path style="fill-rule:evenodd;clip-rule:evenodd;fill:#7F6B55;" d="M483.6,260.7c-0.11,0-0.21,0-0.32,0
		C483.39,260.7,483.49,260.7,483.6,260.7z"/>
	<path style="fill-rule:evenodd;clip-rule:evenodd;fill:#9C8D67;" d="M481.65,258.31c0,0.08-0.01,0.16-0.01,0.25
		c-0.08,0-0.15,0-0.23-0.02C481.49,258.46,481.57,258.39,481.65,258.31z"/>
	<path style="fill-rule:evenodd;clip-rule:evenodd;fill:#8E784C;" d="M482.84,263.13c0.01,0.07,0.03,0.13,0.03,0.2
		c-0.04,0.23,0.14,0.47-0.01,0.7c-0.33-0.02-0.82,0.48-0.94-0.16C481.79,263.21,482.41,263.23,482.84,263.13z"/>
	<path style="fill-rule:evenodd;clip-rule:evenodd;fill:#56453C;" d="M482.85,264.03c-0.11-0.24-0.41-0.48,0.01-0.7
		c0.3,0.17,0.52,0.39,0.52,0.76C483.21,264.07,483.03,264.05,482.85,264.03z"/>
	<path style="fill-rule:evenodd;clip-rule:evenodd;fill:#55473F;" d="M480.68,256.84c0.23,0.1,0.25,0.21,0,0.32
		c-0.21-0.05-0.42-0.11-0.63-0.16C480.26,256.94,480.47,256.89,480.68,256.84z"/>
	<path style="fill-rule:evenodd;clip-rule:evenodd;fill:#5F4A45;" d="M481.4,257.39c0,0.07,0,0.15,0,0.22
		c-0.16,0.1-0.32,0.21-0.48,0.31c-0.51-0.43,0.26-0.34,0.23-0.57C481.23,257.37,481.32,257.38,481.4,257.39z"/>
	<path style="fill-rule:evenodd;clip-rule:evenodd;fill:#5E5A51;" d="M480.96,264.06c-0.09,0.14-0.14,0.22-0.2,0.31
		c-0.09-0.11-0.23-0.2-0.27-0.32c-0.05-0.15,0-0.35,0.21-0.31C480.8,263.76,480.87,263.94,480.96,264.06z"/>
	<path style="fill-rule:evenodd;clip-rule:evenodd;fill:#80684F;" d="M486.68,263.12c0.22,0.04,0.45,0.07,0.67,0.11
		c-0.04,0.1-0.05,0.28-0.12,0.3C486.89,263.63,486.71,263.46,486.68,263.12L486.68,263.12z"/>
	<path style="fill-rule:evenodd;clip-rule:evenodd;fill:#F3DD81;" d="M477.3,286.41c0.27,0.15,0.27,0.31,0.01,0.47
		C477.3,286.72,477.3,286.56,477.3,286.41z"/>
	<path style="fill-rule:evenodd;clip-rule:evenodd;fill:#83715C;" d="M479.03,300.4c0.71-0.18,1.34-0.81,2.17-0.44
		c-0.65,0.3-1.31,0.6-1.96,0.91C479.01,300.78,479,300.59,479.03,300.4z"/>
	<path style="fill-rule:evenodd;clip-rule:evenodd;fill:#746051;" d="M479.48,298.83c0.47-0.06,1.13-0.55,1.33-0.15
		c0.15,0.3-0.75,0.28-1.1,0.56c-0.21,0.17-0.47,0.27-0.71,0.41c-0.17-0.02-0.48,0.11-0.44-0.2
		C478.63,298.97,479.21,299.09,479.48,298.83z"/>
	<path style="fill-rule:evenodd;clip-rule:evenodd;fill:#6F5B4B;" d="M481.4,297.44c-0.4,0.07-0.81,0.13-1.21,0.2
		c-0.08-0.06-0.1-0.11-0.08-0.17c0.03-0.06,0.05-0.09,0.08-0.09c0.34-0.16,0.68-0.33,1.04-0.47c0.2-0.08,0.49-0.28,0.62-0.02
		C482.03,297.25,481.49,297.2,481.4,297.44z"/>
	<path style="fill-rule:evenodd;clip-rule:evenodd;fill:#625349;" d="M478.35,292.67c0.55,0.07,1.62-0.36,0.89,0.93
		c-0.41,0.14-0.48-0.57-0.92-0.37c-0.11,0-0.2-0.04-0.28-0.12l0,0C477.91,292.8,478.15,292.75,478.35,292.67z"/>
	<path style="fill-rule:evenodd;clip-rule:evenodd;fill:#846F5D;" d="M478.25,293.14c0.46-0.13,0.74,0.15,1,0.46
		c-0.23,0.38-0.51,0.7-1.01,0.62c-0.01,0,0.03-0.27,0.05-0.41c0.1-0.05,0.17-0.14,0.28-0.2c0.3-0.37-0.06-0.25-0.21-0.28
		C478.25,293.3,478.22,293.24,478.25,293.14z"/>
	<path style="fill-rule:evenodd;clip-rule:evenodd;fill:#A08C69;" d="M479.9,294.21c-0.21,0.35-0.53,0.55-0.93,0.6
		c-0.14,0.02-0.41-0.08-0.26-0.22c0.27-0.25,0.65-0.38,0.99-0.56C479.86,293.96,479.89,294.07,479.9,294.21z"/>
	<path style="fill-rule:evenodd;clip-rule:evenodd;fill:#6E604E;" d="M479.97,297.68c-0.24,0.18-0.48,0.36-0.73,0.54
		c-0.13-0.05-0.27-0.11-0.4-0.16c0.18-0.26,0.41-0.45,0.75-0.39C479.72,297.58,479.85,297.59,479.97,297.68z"/>
	<path style="fill-rule:evenodd;clip-rule:evenodd;fill:#725A50;" d="M479.46,287.94c-0.06-0.06-0.13-0.12-0.2-0.19
		c0.08-0.08,0.14-0.2,0.23-0.22c0.09-0.02,0.27,0.04,0.29,0.1C479.86,287.86,479.62,287.84,479.46,287.94z"/>
	<path style="fill-rule:evenodd;clip-rule:evenodd;fill:#5D4F45;" d="M477.81,290.82c0-0.11-0.01-0.22-0.01-0.33
		c0.26-0.06,0.7-0.17,0.71,0.04C478.53,290.85,478.04,290.67,477.81,290.82z"/>
	<path style="fill-rule:evenodd;clip-rule:evenodd;fill:#F2DD84;" d="M478.35,292.67c-0.1,0.15-0.21,0.3-0.31,0.45
		C477.68,292.64,478.06,292.69,478.35,292.67z"/>
	<path style="fill-rule:evenodd;clip-rule:evenodd;fill:#F3DD81;" d="M478.06,286.17c0,0.15,0,0.31,0,0.46
		C477.8,286.47,477.8,286.32,478.06,286.17z"/>
	<path style="fill-rule:evenodd;clip-rule:evenodd;fill:#4E3F3C;" d="M479.97,297.68c-0.12-0.01-0.25-0.01-0.37-0.02
		c0.2-0.09,0.39-0.19,0.59-0.28c0,0.08,0,0.17,0,0.26C480.12,297.67,480.05,297.69,479.97,297.68z"/>
	<path style="fill-rule:evenodd;clip-rule:evenodd;fill:#F2DD84;" d="M478.55,293.61c-0.09,0.06-0.19,0.13-0.28,0.2
		C478.37,293.74,478.46,293.68,478.55,293.61z"/>
	<path style="fill-rule:evenodd;clip-rule:evenodd;fill:#F3DD81;" d="M478.49,285.92c-0.06,0.05-0.13,0.1-0.19,0.16
		C478.36,286.02,478.43,285.97,478.49,285.92z"/>
	<path style="fill-rule:evenodd;clip-rule:evenodd;fill:#F2DD84;" d="M478.25,293.14c0.03,0.06,0.06,0.13,0.1,0.19
		c-0.1-0.07-0.2-0.15-0.3-0.22C478.11,293.12,478.18,293.13,478.25,293.14z"/>
	<path style="fill-rule:evenodd;clip-rule:evenodd;fill:#907B5F;" d="M481.14,302.12c0-0.06,0-0.11,0.02-0.17
		c0.18-0.08,0.34-0.1,0.47,0.08c-0.01,0.06-0.03,0.13-0.05,0.19c-0.14,0.08-0.29,0.15-0.43,0.23
		C481.03,302.34,481.03,302.24,481.14,302.12z"/>
	<path style="fill-rule:evenodd;clip-rule:evenodd;fill:#756456;" d="M481.14,302.12c0,0.11,0.01,0.21,0.01,0.32
		c-0.16,0.01-0.31,0.02-0.47,0.03c-0.09,0.1-0.17,0.09-0.25-0.01C480.67,302.36,480.9,302.24,481.14,302.12z"/>
	<path style="fill-rule:evenodd;clip-rule:evenodd;fill:#4F423F;" d="M480.43,302.47c0.08,0,0.17,0,0.25,0.01
		c-0.15,0.11-0.31,0.22-0.46,0.33c0-0.09,0-0.18-0.01-0.27C480.27,302.48,480.35,302.46,480.43,302.47z"/>
	<path style="fill-rule:evenodd;clip-rule:evenodd;fill:#978566;" d="M480.46,301.29c0.23-0.28,0.65-0.48,0.84-0.27
		c0.22,0.24-0.13,0.42-0.4,0.46C480.76,301.39,480.58,301.41,480.46,301.29z"/>
	<path style="fill-rule:evenodd;clip-rule:evenodd;fill:#6F5C52;" d="M480.46,301.29c0.15,0.06,0.29,0.13,0.44,0.19
		c-0.14,0.02-0.29,0.03-0.43,0.05c0,0-0.05-0.06-0.05-0.06C480.38,301.4,480.39,301.34,480.46,301.29z"/>
	<path style="fill-rule:evenodd;clip-rule:evenodd;fill:#F3E093;" d="M481.63,302.03c-0.16-0.03-0.32-0.05-0.47-0.08
		C481.35,301.75,481.51,301.77,481.63,302.03z"/>
</g>
</svg>
