<?xml version="1.0" encoding="utf-8"?>
<!-- Generator: Adobe Illustrator 16.0.0, SVG Export Plug-In . SVG Version: 6.00 Build 0)  -->
<!DOCTYPE svg PUBLIC "-//W3C//DTD SVG 1.0//EN" "http://www.w3.org/TR/2001/REC-SVG-20010904/DTD/svg10.dtd" [
	<!ENTITY ns_flows "http://ns.adobe.com/Flows/1.0/">
	<!ENTITY ns_extend "http://ns.adobe.com/Extensibility/1.0/">
	<!ENTITY ns_ai "http://ns.adobe.com/AdobeIllustrator/10.0/">
	<!ENTITY ns_graphs "http://ns.adobe.com/Graphs/1.0/">
]>
<svg version="1.0" id="Layer_1" xmlns:x="&ns_extend;" xmlns:i="&ns_ai;" xmlns:graph="&ns_graphs;"
	 xmlns="http://www.w3.org/2000/svg" xmlns:xlink="http://www.w3.org/1999/xlink" xmlns:a="http://ns.adobe.com/AdobeSVGViewerExtensions/3.0/"
	 x="0px" y="0px" width="960px" height="560px" viewBox="0 0 960 560" style="enable-background:new 0 0 960 560;"
	 xml:space="preserve">
<g>
	<path style="fill-rule:evenodd;clip-rule:evenodd;fill:#3E3A42;" d="M471.75,289.65c1.13-3.3,2.51-6.49,4.18-9.56
		c0.23-0.01,0.3,0.16,0.35,0.34c0.02,0.07,0.03,0.15,0.04,0.22c0.02,0.06,0.07,0.1,0.15,0.07c0.12-0.11,0.19-0.23,0.23-0.37
		c0.06-0.24,0.1-0.48,0.16-0.72c0.04-0.16,0.08-0.31,0.12-0.46c0.06-0.22,0.13-0.43,0.33-0.57c0.2-0.01,0.32,0.1,0.4,0.27
		c0.11,0.28,0.1,0.56,0.05,0.85c-0.03,0.16-0.07,0.32-0.11,0.48c-0.06,0.3-0.07,0.61-0.15,0.9c-0.03,0.12-0.16,0.23-0.12,0.36
		c0.05,0.15-0.06,0.02,0.09-0.05c0.1,0,0.18,0.02,0.27,0.08c0.11,0.12,0.13,0.26,0.08,0.41c0,0.3-0.84,0.6,0,0.9
		c0.1,0.04,0.18,0.1,0.25,0.19c0.03,0.53-0.44,0.67-0.73,0.95c-0.18,0.17-0.53,0.33-0.29,0.63c0.13,0.17,0.42-0.07,0.65-0.05
		c0.17,0.01,0.31,0.08,0.4,0.23c0.05,0.16,0.03,0.31-0.06,0.44c-0.06,0.08-0.13,0.15-0.21,0.21c-0.04,0.03-0.08,0.06-0.12,0.09
		c-0.07,0.06-0.15,0.12-0.23,0.18c-0.08,0.06-0.16,0.11-0.24,0.16c-0.16,0.1-0.32,0.21-0.47,0.34c-0.33,0.25-0.44,0.65-0.68,0.96
		c-0.06,0.07-0.07,0.14-0.03,0.21c0.04-0.06,0.06-0.14,0.15-0.16c0.11-0.01,0.21,0,0.31,0.05c0.14,0.12,0.17,0.27,0.09,0.43
		c-0.69,0.59-0.75,1.5-1.13,2.25c-0.57,0.24-0.56-0.48-0.93-0.56c-0.14-0.03-0.29-0.04-0.44-0.05c-0.31-0.01-0.61,0.03-0.9,0.13
		c-0.55,0.02-0.9,0.58-1.48,0.54C471.66,289.84,471.67,289.74,471.75,289.65z"/>
	<path style="fill-rule:evenodd;clip-rule:evenodd;fill:#49424A;" d="M477.21,273.62c-0.43-0.41,0.05-1.07-0.42-1.47
		c-0.07-0.06-0.1-0.13-0.08-0.22c0.04-0.07,0.08-0.14,0.13-0.21c0.04-0.08,0.03-0.15-0.04-0.22c-1.12-0.49-2.37-0.65-3.33-1.47
		c-0.09-0.07-0.17-0.16-0.24-0.25c-0.06-0.1-0.1-0.21-0.13-0.32c0.02-0.25,0.14-0.43,0.39-0.51c1.1,0.42,2.13,0.99,3.26,1.39
		c0.98,0.35,1.86,0.55,2.83,0.16c0.11,0.01,0.22,0.04,0.32,0.09c0.19,0.12,0.33,0.3,0.48,0.46c0.73,0.58,1.52,1.06,2.47,1.19
		c0.11-0.01,0.22,0,0.33,0.03c0.05,0.03,0.09,0.06,0.14,0.08c0.05,0.1,0.05,0.21,0.01,0.31c-0.97,2.13-0.68,4.26-0.02,6.4
		c-0.04,0.03-0.08,0.07-0.13,0.1c-0.87-0.18-1.51,0.29-2.12,0.79c-0.12,0.11-0.25,0.2-0.39,0.29c-0.76,0.39-1.38,1.04-2.27,1.15
		c-0.11-0.03-0.19-0.1-0.24-0.19c0-0.05-0.01-0.11-0.01-0.16c0.03-0.1,0.07-0.2,0.13-0.29c0.1-0.12,0.21-0.23,0.34-0.32
		c0.08-0.06,0.17-0.12,0.26-0.17c0.13-0.09,0.26-0.17,0.38-0.26c0.7-0.38,1.3-0.89,1.92-1.37c0.22-0.15,0.44-0.31,0.65-0.46
		c0.86-0.54,0.15-1.32,0.31-1.96c-0.04-0.07,0-0.14,0.03-0.21c-0.07,0.03-0.09,0.09-0.05,0.18c-0.14,0.18-0.32,0.19-0.51,0.12
		c-0.08-0.06-0.15-0.13-0.21-0.21c-0.15-0.28-0.39-0.45-0.65-0.61c-0.18-0.12-0.34-0.27-0.41-0.49c0.01-0.19,0.12-0.3,0.29-0.36
		c0.11-0.02,0.22-0.01,0.33,0.01c0.32,0.04,0.68,0.43,0.94,0c0.2-0.32-0.16-0.45-0.4-0.57c-0.74-0.33-1.45-0.72-2.09-1.23
		c-0.28-0.22-0.48-0.53-0.83-0.65c-0.65-0.01-0.75,0.21-0.28,0.66c0.17,0.13,0.35,0.24,0.51,0.38c0.15,0.17,0.27,0.35,0.19,0.59
		c-0.08,0.08-0.17,0.13-0.28,0.17c-0.44,0.07-0.82-0.19-1.24-0.25C477.39,273.73,477.3,273.68,477.21,273.62z"/>
	<path style="fill-rule:evenodd;clip-rule:evenodd;fill:#413D41;" d="M473.46,268.99c-0.08,0.19-0.16,0.38-0.24,0.56
		c0.08,0.07,0.15,0.14,0.22,0.21l-0.01-0.01c0.29,0.43,0.46,0.9,0.4,1.42c-0.07,0.19-0.15,0.35-0.4,0.27
		c-0.6-0.03-0.97-0.45-1.4-0.78c-0.1-0.31,0.04-0.65-0.09-0.96c-0.27-0.91-0.32-1.85-0.3-2.79c0-0.11,0.04-0.22-0.04-0.32
		c0.04,0.03,0.07,0.09,0.04,0.18c-0.05,0.15,0.01-0.04,0,0.12c-0.01,0.55,0.03,1.1-0.12,1.64c-0.23,0.39-0.01,1.04-0.66,1.19
		c-0.44-0.66-0.99-1.28-1.07-2.12c0.04-0.12,0.09-0.23,0.14-0.35c0.32-1.64,0.32-3.31,0.35-4.97c0.02-1.38,0.49-2.55,1.64-3.38
		c0.22-0.05,0.36,0.05,0.44,0.25c0.04,0.2,0.03,0.42-0.08,0.57c-1.46,2.02-0.66,4,0.13,5.96c0.29,0.73,0.65,1.44,0.94,2.18
		C473.49,268.23,473.73,268.59,473.46,268.99z"/>
	<path style="fill-rule:evenodd;clip-rule:evenodd;fill:#4C424A;" d="M476.56,287.51c-0.1-0.08-0.19-0.17-0.29-0.26
		c-0.03-0.57,0.46-0.63,0.8-0.85c0.22-0.12,0.44-0.25,0.65-0.4c0.08-0.06,0.17-0.12,0.25-0.18c0.13-0.1,0.26-0.19,0.39-0.28
		c1.16-0.63,2.16-1.54,3.34-2.14c0.74-0.48,1.79-0.7,1.67-1.93c0.03-0.3,0.11-0.56,0.4-0.71c0.54,1.93,1.08,3.86,1.62,5.79
		c-0.11,0.12-0.26,0.18-0.42,0.21c-0.92,0.2-1.49,0.98-2.29,1.38c-0.19,0.11-0.37,0.21-0.55,0.34c-1.18,0.82-2.35,1.65-3.42,2.6
		c-0.37,0.23-0.68,0.54-1.04,0.78c-0.83,0.51-1.46,1.35-2.52,1.46c-0.08-0.08-0.13-0.18-0.15-0.29c0.04-0.59,0.53-0.82,0.92-1.12
		c0.27-0.18,0.54-0.35,0.8-0.55c0.89-0.68,1.78-1.37,2.61-2.12c1.18-0.98,2.54-1.71,3.74-2.66c0.35-0.24,0.68-0.51,0.99-0.79
		c0.39-0.69,0.02-1.3-0.23-1.89c-0.21-0.51-0.57-0.21-0.88-0.04c-0.4,0.26-0.84,0.47-1.24,0.74c-0.89,0.48-1.7,1.08-2.53,1.63
		c-0.27,0.12-0.54,0.24-0.77,0.43c-0.22,0.17-0.47,0.32-0.7,0.49c-0.07,0.06-0.15,0.11-0.23,0.17c-0.08,0.06-0.16,0.1-0.25,0.15
		C477.01,287.55,476.79,287.68,476.56,287.51z"/>
	<path style="fill-rule:evenodd;clip-rule:evenodd;fill:#3C3B3D;" d="M483.79,270.75c-0.11,0.56-0.22,1.11-0.33,1.67l-0.1,0.05
		l-0.08-0.08l0,0c-0.47-0.78-0.4-1.74-0.86-2.52c1-1.43,1.72-2.97,1.8-4.75c0.05-0.29,0.04-0.57-0.01-0.86
		c-0.07-0.54-0.09-1.08-0.03-1.61c0.04-0.23,0.12-0.44,0.31-0.59c0.37,0.14,0.58-0.01,0.64-0.4c0.21-0.49,0.4-0.99,0.59-1.5
		c0.09-0.15,0.19-0.27,0.39-0.23c1.22,2.15,1.66,4.37,0.51,6.7c-0.18,0.19-0.39,0.21-0.62,0.12c-0.3-0.21-0.09-0.49-0.08-0.74
		c-0.24,0.15-0.39,0.39-0.6,0.58c-0.29,0.27-0.41,0.66-0.67,0.95c-0.47,0.38,0.49,0.16,0.19,0.47c0.02,0.11,0,0.22-0.03,0.32
		c-0.06,0.09-0.13,0.18-0.21,0.25c-0.33,0.26-0.61,0.58-0.73,0.99c-0.03,0.2-0.04,0.4-0.02,0.59
		C483.86,270.37,483.88,270.57,483.79,270.75z"/>
	<path style="fill-rule:evenodd;clip-rule:evenodd;fill:#484146;" d="M474.82,299.55c-0.21-0.16-0.41-0.31-0.62-0.47
		c-0.16-0.11-0.18-0.26-0.14-0.43c0.42-0.31,1.05-0.07,1.42-0.53c0.88-0.51,1.52-1.34,2.4-1.85c0.27-0.17,0.53-0.35,0.76-0.58
		c1.63-1.5,3.47-2.75,5.14-4.2c0.21-0.17,0.41-0.35,0.63-0.52c0.26-0.18,0.52-0.36,0.73-0.6c0.55-0.54,0.32-1.14,0.16-1.76
		c-0.13-0.49-0.34-0.96-0.39-1.47c0.15-0.24,0.34-0.29,0.57-0.11c0.37,1.28,0.73,2.57,1.09,3.85c-0.07,0.08-0.16,0.15-0.26,0.2
		c-1.05,0.34-1.74,1.22-2.62,1.81c-0.21,0.16-0.45,0.28-0.64,0.47c-0.08,0.08-0.15,0.15-0.23,0.22c-0.08,0.08-0.16,0.15-0.24,0.22
		c-1.35,0.86-2.44,2.04-3.71,3c-0.84,0.58-1.61,1.25-2.4,1.9c-0.45,0.31-0.84,0.69-1.34,0.92
		C475.02,299.62,474.92,299.6,474.82,299.55z"/>
	<path style="fill-rule:evenodd;clip-rule:evenodd;fill:#464146;" d="M486.41,290.88c0.05,0,0.11,0,0.16,0
		c0.32,0.96,0.65,1.92,0.97,2.88c-0.07,0.09-0.14,0.17-0.22,0.24c-1.15,0.91-2.34,1.77-3.4,2.79c-1.06,0.84-2.01,1.82-3.08,2.65
		c-0.08,0.07-0.16,0.14-0.24,0.21c-0.04,0.04-0.08,0.07-0.12,0.11c-0.55,0.5-1.07,1.04-1.59,1.57c-0.36,0.3-0.45,0.72-0.5,1.15
		c-0.04,0.11-0.12,0.18-0.22,0.21c-0.23-0.23-0.45-0.46-0.68-0.69c-0.03-0.15-0.1-0.26-0.26-0.3l0.01,0.02
		c-0.06-0.1-0.06-0.21-0.03-0.32c0.58-0.57,1.18-1.13,1.78-1.69c0.08-0.07,0.17-0.13,0.26-0.19c0.08-0.06,0.17-0.12,0.26-0.18
		c0.04-0.03,0.08-0.07,0.12-0.1c0.08-0.07,0.15-0.14,0.23-0.22c0.94-0.96,2.07-1.71,2.97-2.71c0.16-0.14,0.34-0.27,0.51-0.39
		c0.08-0.07,0.17-0.13,0.25-0.2c0.04-0.04,0.08-0.07,0.12-0.1c0.47-0.45,0.98-0.85,1.49-1.25c0.08-0.08,0.16-0.15,0.24-0.22
		c0.04-0.04,0.08-0.08,0.12-0.11c0.07-0.08,0.15-0.16,0.23-0.23c0.04-0.04,0.08-0.08,0.11-0.12c0.2-0.23,0.59-0.48,0.42-0.76
		c-0.27-0.46-0.77,0.25-1.14-0.08c-0.07-0.09-0.11-0.19-0.11-0.31C485.37,291.88,485.98,291.45,486.41,290.88z"/>
	<path style="fill-rule:evenodd;clip-rule:evenodd;fill:#433E40;" d="M479.7,254.81c0.16,0.04,0.33,0.08,0.49,0.12
		c0.07,0.06,0.15,0.1,0.24,0.11c0.4,0.18,0.79,0.36,1.18,0.53c0.15,0.19,0.21,0.39,0.13,0.63c-0.33,0.21-0.27,0.43-0.12,0.75
		c0.2,0.43,0.53,0.89,0.16,1.41c-0.15,0.1-0.32,0.15-0.5,0.16c-0.89-0.14-1.81-0.1-2.66-0.49c-0.1-0.06-0.19-0.13-0.27-0.22
		c-0.31-0.38-0.54-0.82-0.87-1.19c-0.07-0.07-0.15-0.15-0.22-0.23c-0.08-0.07-0.15-0.15-0.23-0.22c-0.37-0.39-0.96-0.51-1.25-0.99
		c-0.08-0.28,0.1-0.4,0.3-0.52c0.71-0.33,1.44-0.32,2.19-0.19c0.14,0.05,0.3,0.05,0.44,0.11c0.25,0.04,0.5,0.07,0.75,0.11
		C479.53,254.75,479.61,254.79,479.7,254.81z"/>
	<path style="fill-rule:evenodd;clip-rule:evenodd;fill:#51464C;" d="M477.28,301.46c-0.01,0.09-0.03,0.18-0.04,0.26
		c-0.81-0.73-1.61-1.45-2.42-2.18c0.12-0.01,0.23-0.03,0.35-0.04c0.88,0.33,1.58,0.01,2.19-0.63c0.57-0.49,1.19-0.91,1.78-1.36
		c0.08-0.07,0.16-0.14,0.25-0.2c0.08-0.08,0.16-0.15,0.24-0.22c1.03-0.96,2.11-1.88,3.21-2.77c0.3-0.22,0.56-0.49,0.82-0.76
		c0.51-0.33,0.73-1.14,1.55-0.98c0,0.08,0,0.16,0.01,0.24c0.07,0.1,0.08,0.2,0.05,0.31c-0.48,0.75-1.18,1.28-1.78,1.92
		c-0.28,0.25-0.6,0.43-0.88,0.68c-0.07,0.08-0.15,0.15-0.23,0.22c-0.07,0.08-0.15,0.15-0.23,0.22c-0.87,0.8-1.79,1.53-2.67,2.31
		c-0.08,0.07-0.17,0.13-0.26,0.19c-0.04,0.03-0.08,0.07-0.12,0.1c-0.08,0.07-0.16,0.14-0.24,0.21c-0.04,0.04-0.08,0.07-0.12,0.11
		c-0.17,0.16-0.35,0.33-0.55,0.42C477.33,299.92,477.07,300.58,477.28,301.46z"/>
	<path style="fill-rule:evenodd;clip-rule:evenodd;fill:#3F3C41;" d="M469.1,295.17c0.25-0.55,0.5-1.09,0.75-1.64
		c0.17-0.1,0.36-0.08,0.54-0.07c0.09,0,0.18,0.01,0.28,0.01c0.19-0.01,0.37-0.05,0.54-0.1c0.09-0.03,0.19-0.05,0.28-0.07
		c0.15-0.02,0.29-0.03,0.44-0.02c0.15,0.01,0.3,0.04,0.44,0.1c0.09,0.05,0.15,0.13,0.18,0.23c0,0.11-0.05,0.19-0.13,0.27
		c-0.09,0.06-0.18,0.1-0.28,0.13c-0.24,0.06-0.48,0.13-0.72,0.2c-0.15,0.04-0.3,0.07-0.45,0.08c-0.21,0.03-0.43,0-0.59,0.14
		c1.25,0.05,2.33-0.63,3.53-0.71c0.17,0,0.33,0.02,0.49,0.06c0.11,0.03,0.21,0.08,0.3,0.14c0.13,0.1,0.22,0.23,0.26,0.4
		c-0.03,0.38-0.24,0.67-0.5,0.93c-0.24,0.11-0.49,0.08-0.74,0.05c-0.1-0.04-0.19-0.08-0.27-0.14c-0.47-0.26-0.91-0.07-1.36,0.08
		c-0.66,0.27-1.37,0.24-2.05,0.44c-0.25,0.05-0.5,0.04-0.74-0.05C469.13,295.52,469,295.39,469.1,295.17z"/>
	<path style="fill-rule:evenodd;clip-rule:evenodd;fill:#4F4751;" d="M481.33,258.25c0.18-0.01,0.37-0.02,0.55-0.03
		c0.3-0.68-0.59-1.17-0.3-1.86c0.01-0.27,0.02-0.53,0.03-0.8c1,0.38,1.94,0.84,2.61,1.72c-0.04,0.04-0.08,0.07-0.13,0.11
		c-0.1,0.04-0.21,0.06-0.33,0.06c-0.14-0.06,0.04,0.03-0.12-0.01c-0.39-0.1-0.65-0.44-1.02-0.57c0.03,0.44,0.31,0.79,0.4,1.21
		c0.06,0.59,0.49,0.97,0.8,1.43c0.53,0.76,1.24,1.49,0.85,2.57c-0.08,0.18-0.16,0.36-0.25,0.54c-0.22-0.02-0.37-0.16-0.42-0.36
		c-0.32-1.52-1.25-2.61-2.45-3.51C481.41,258.63,481.29,258.48,481.33,258.25z"/>
	<path style="fill-rule:evenodd;clip-rule:evenodd;fill:#3E3B46;" d="M473.87,299.51c-0.18,0.71-0.39,1.4-0.85,1.98
		c-0.09,0.04-0.19,0.05-0.29,0.02c-0.19-0.25-0.03-0.52-0.07-0.76c-0.07-0.11-0.19-0.11-0.32-0.11c-0.1-0.01-0.18-0.03-0.27-0.08
		c-0.08-0.07-0.13-0.15-0.15-0.25c0.01-0.05,0.02-0.1,0.03-0.15c0.05-0.1,0.12-0.18,0.19-0.25c0.08-0.07,0.18-0.13,0.27-0.18
		c0.81-0.39,0.74-1.12,0.69-1.83c-0.02-0.38-0.29-0.41-0.6-0.33c-0.27,0.08-0.54,0.17-0.82,0.24c-0.25,0.05-0.49,0.05-0.72-0.06
		c-0.18-0.11-0.27-0.26-0.21-0.48c0.81-0.72,1.67-1.28,2.83-0.91C474.43,297.34,473.79,298.46,473.87,299.51z"/>
	<path style="fill-rule:evenodd;clip-rule:evenodd;fill:#3F3C41;" d="M467.85,297.58c0.2-0.39,0.4-0.78,0.61-1.17
		c0.08-0.07,0.17-0.1,0.27-0.1c0.4,0.03,0.79-0.06,1.18-0.17c0.31-0.06,0.61-0.16,0.92-0.23c0.68-0.05,1.21-0.51,1.84-0.7
		c0.34-0.07,0.67-0.18,1.01-0.01l0.02,0.01c0.23,0.16,0.49,0.29,0.59,0.58c0.04,0.18,0,0.34-0.14,0.47
		c-0.17,0.08-0.34,0.09-0.51,0.03c-0.4-0.23-0.76-0.05-1.13,0.1c-1.4,0.57-2.84,1-4.32,1.35
		C468.04,297.72,467.93,297.67,467.85,297.58z"/>
	<path style="fill-rule:evenodd;clip-rule:evenodd;fill:#433D40;" d="M487.34,293.77c0.07,0,0.13,0,0.2-0.01
		c0.34,1.19,0.68,2.38,1.02,3.58c0.12,0.42-0.17,0.54-0.48,0.66c-0.48-0.47-0.3-1.13-0.46-1.69c-0.21-0.71-0.5-0.59-0.88-0.17
		c-0.07,0.08-0.15,0.16-0.23,0.23c-0.08,0.08-0.16,0.15-0.24,0.23c-0.49,0.43-0.93,0.93-1.42,1.37c-0.18,0.14-0.38,0.25-0.63,0.24
		c-0.12-0.03-0.21-0.09-0.28-0.18c-0.03-0.11-0.03-0.22,0.01-0.33C485.01,296.31,486.52,295.33,487.34,293.77z"/>
	<path style="fill-rule:evenodd;clip-rule:evenodd;fill:#5F5A61;" d="M476.08,254.66c-0.08,0.16-0.17,0.32-0.25,0.48
		c-0.57,0.95-1.71,1.1-2.5,1.78c-1,0.85-1.82,1.89-2.9,2.64c-0.12,0-0.22-0.03-0.31-0.11C471.57,257.19,473.45,255.46,476.08,254.66
		z"/>
	<path style="fill-rule:evenodd;clip-rule:evenodd;fill:#6E286A;" d="M486.42,296.18c0.27-0.44,0.6-1.06,1.07-0.97
		c0.46,0.08,0.35,0.81,0.46,1.26c0.12,0.49,0.1,1.02,0.13,1.53c-0.16,0.18-0.32,0.36-0.48,0.54c-0.05-0.01-0.11-0.03-0.16-0.04
		c-0.09-0.07-0.15-0.16-0.19-0.27C487.33,297.4,486.33,297.01,486.42,296.18z"/>
	<path style="fill-rule:evenodd;clip-rule:evenodd;fill:#4F4149;" d="M471.99,300.24c0.1,0.09,0.2,0.18,0.31,0.27
		c-0.63,1.1-1.85,1.32-2.81,1.92c-0.11,0.04-0.22,0.03-0.31-0.04c-0.83-0.98-1.15-2.21-1.66-3.36c0.09-0.08,0.19-0.1,0.3-0.09
		c0.59,0.31,0.68,0.96,0.99,1.46c0.07,0.14,0.14,0.28,0.21,0.43c0.61,0.5,1.09,0.04,1.61-0.21
		C471.06,300.42,471.4,299.89,471.99,300.24z"/>
	<path style="fill-rule:evenodd;clip-rule:evenodd;fill:#623363;" d="M477.05,279.6c-0.01,0.32-0.02,0.63-0.02,0.95
		c-0.31,0.19-0.63,0.25-0.95,0.01c-0.05-0.16-0.11-0.31-0.16-0.47c0.33-0.65,0.67-1.29,1-1.94c0.31,0.05,0.21-0.77,0.64-0.35
		c0.31,0.31,0.09,0.64-0.25,0.86c-0.01,0.23-0.02,0.47-0.04,0.7C477.2,279.44,477.12,279.52,477.05,279.6z"/>
	<path style="fill-rule:evenodd;clip-rule:evenodd;fill:#3E3B3B;" d="M477.21,273.62c0.07,0,0.15-0.01,0.22-0.02
		c0.5,0.22,0.64,0.82,1.12,1.06c0.12,0.12,0.21,0.25,0.24,0.42c-0.02,0.18-0.13,0.29-0.28,0.38c-0.54,0.31-0.4,0.65-0.05,1
		c0.24,0.23,0.67,0.21,0.79,0.6c-0.09,0.27-0.32,0.35-0.56,0.41c-0.27,0.05-0.53,0.04-0.79-0.02c-0.25-0.11-0.54-0.18-0.42-0.56
		C477.69,275.79,477.28,274.72,477.21,273.62z"/>
	<path style="fill-rule:evenodd;clip-rule:evenodd;fill:#504A4D;" d="M485.82,266.61c0.27,0.01,0.53,0.02,0.79,0.03
		c-0.07,0.83-0.26,1.6-0.93,2.17c-0.09-0.07-0.15-0.16-0.18-0.27c0.31-1.11-0.57-0.21-0.78-0.46c0.01-0.22-0.46-0.16-0.29-0.48
		C484.89,267.27,484.95,266.38,485.82,266.61z"/>
	<path style="fill-rule:evenodd;clip-rule:evenodd;fill:#756257;" d="M472.64,301.43c0.13,0.02,0.25,0.04,0.38,0.06
		c-0.83,0.78-2.09,0.66-2.94,1.39c-0.2-0.06-0.32-0.17-0.31-0.39C470.59,301.75,471.4,300.99,472.64,301.43z"/>
	<path style="fill-rule:evenodd;clip-rule:evenodd;fill:#4F474C;" d="M470.36,293.74c-0.17-0.07-0.33-0.14-0.5-0.21
		c0.63-1.29,1.26-2.58,1.89-3.88c0.01,0.1,0.02,0.2,0.03,0.3c0.29,0.32,0.19,0.67,0.04,0.99
		C471.36,291.88,470.99,292.88,470.36,293.74z"/>
	<path style="fill-rule:evenodd;clip-rule:evenodd;fill:#59444D;" d="M467.85,297.58c0.09,0.01,0.19,0.01,0.28,0.02
		c0.56,0.08,1.05-0.21,1.58-0.31c0.38-0.08,0.74-0.26,1.09,0.07c0.08,0.08,0.17,0.17,0.25,0.25c0.07,0.12,0.06,0.23-0.04,0.33
		c-0.71,0.39-1.48,0.55-2.28,0.57c-0.42-0.1-0.85-0.19-1.03-0.66C467.75,297.75,467.8,297.67,467.85,297.58z"/>
	<path style="fill-rule:evenodd;clip-rule:evenodd;fill:#48464E;" d="M470.11,267.57c-0.11,0.01-0.22,0.03-0.32,0.04
		c-0.79-1.63-0.44-3.35-0.4-5.05c0.15-0.07,0.26-0.03,0.35,0.1C470.19,264.28,469.87,265.94,470.11,267.57z"/>
	<path style="fill-rule:evenodd;clip-rule:evenodd;fill:#78566F;" d="M473.43,271.45c0.1-0.09,0.19-0.18,0.29-0.27
		c1.15-0.28,2.2-0.16,3.08,0.71c0,0.09,0,0.17,0,0.26C475.67,271.92,474.5,271.92,473.43,271.45z"/>
	<path style="fill-rule:evenodd;clip-rule:evenodd;fill:#58545A;" d="M486.11,259.94c-0.08,0.09-0.17,0.18-0.25,0.27
		c-0.89-0.62-1.38-1.56-1.92-2.45c-0.03-0.19,0.07-0.31,0.2-0.42l0.09-0.05C484.93,258.11,485.69,258.9,486.11,259.94z"/>
	<path style="fill-rule:evenodd;clip-rule:evenodd;fill:#752A72;" d="M483.6,280.08c0.03,0.08,0.06,0.16,0.1,0.24
		c-0.05,0.67-0.27,1.2-1.06,1.25c-0.33-0.15-0.52-0.42-0.65-0.75c-0.04-0.25,0.07-0.43,0.25-0.59c0.13-0.1,0.29-0.16,0.44-0.21
		c0.15-0.06,0.31-0.1,0.48-0.11C483.33,279.9,483.47,279.98,483.6,280.08z"/>
	<path style="fill-rule:evenodd;clip-rule:evenodd;fill:#3C373C;" d="M482.55,281.5c0.54-0.25,0.94-0.62,1.14-1.18
		c0.03,0.15,0.05,0.3,0.08,0.45c-0.08,0.23-0.17,0.46-0.25,0.7c-0.34,0.79-1.01,1.09-1.81,1.2c-0.18-0.03-0.32-0.12-0.39-0.29
		c0.04-0.46,0.42-0.61,0.76-0.79c0.1-0.04,0.2-0.07,0.31-0.09C482.44,281.5,482.5,281.5,482.55,281.5z"/>
	<path style="fill-rule:evenodd;clip-rule:evenodd;fill:#27312F;" d="M473.74,296.17c0.14,0,0.28,0,0.42,0
		c0.39,0.66-0.05,1.37,0.14,2.04c0,0.12-0.04,0.23-0.11,0.33c0,0.18,0.01,0.36,0.01,0.54l0,0c-0.13,0.02-0.2,0.13-0.27,0.23
		c0.01,0.08-0.01,0.15-0.06,0.21c-0.52-0.98,0.15-2.12-0.43-3.09C473.47,296.26,473.56,296.16,473.74,296.17z"/>
	<path style="fill-rule:evenodd;clip-rule:evenodd;fill:#5E5861;" d="M482.41,305.37c-0.82,1.21-1.2,1.13-2.48-0.58
		c0.05-0.03,0.09-0.06,0.14-0.09c0.11-0.02,0.22-0.02,0.33,0.01c0.55,0.33,1.06,0.79,1.78,0.48
		C482.3,305.19,482.38,305.25,482.41,305.37z"/>
	<path style="fill-rule:evenodd;clip-rule:evenodd;fill:#6D636E;" d="M469.59,262.56l-0.1,0l-0.1,0c-0.07-1.04,0.35-1.97,0.66-2.92
		c0.2,0.05,0.33,0.18,0.38,0.38C470.3,260.92,470.44,261.91,469.59,262.56z"/>
	<path style="fill-rule:evenodd;clip-rule:evenodd;fill:#745B73;" d="M472.28,269.97c0.43,0.42-0.13,0.48-0.26,0.7
		c-0.44-0.26-0.92-0.45-1.17-0.93c0.13-0.4,0.26-0.8,0.39-1.21C471.76,268.89,471.53,269.79,472.28,269.97z"/>
	<path style="fill-rule:evenodd;clip-rule:evenodd;fill:#493A4D;" d="M477.49,276.9c0.17,0.1,0.35,0.2,0.52,0.3
		c0.32,0.69,0.32,1.3-0.48,1.67c-0.07-0.07-0.15-0.15-0.22-0.22c0.02-0.26,0.37-0.49,0.1-0.75c-0.04-0.04-0.31,0.16-0.48,0.25
		C477.11,277.73,477.3,277.32,477.49,276.9z"/>
	<path style="fill-rule:evenodd;clip-rule:evenodd;fill:#3C373C;" d="M483.6,280.08c-0.18,0.01-0.37,0.02-0.55,0.03
		c-0.09,0.06-0.17,0.12-0.25,0.19c-0.15,0.01-0.3,0.03-0.46,0.04c-0.09,0.08-0.18,0.09-0.28,0.02c-0.07-0.17-0.01-0.31,0.1-0.43
		c0.11-0.11,0.23-0.21,0.35-0.31c0.23-0.21,0.52-0.32,0.77-0.5l0.03-0.05C483.61,279.35,483.53,279.74,483.6,280.08z"/>
	<path style="fill-rule:evenodd;clip-rule:evenodd;fill:#584458;" d="M487.15,299.12c0,0.07-0.03,0.13-0.09,0.16
		c-0.04,0.09-0.1,0.17-0.18,0.23c-0.32,0.4-0.64,0.81-0.96,1.21c-0.09-0.08-0.15-0.19-0.18-0.31c0.18-0.79,0.46-1.51,1.41-1.63
		C487.23,298.89,487.23,299,487.15,299.12z"/>
	<path style="fill-rule:evenodd;clip-rule:evenodd;fill:#3F3C41;" d="M467.7,297.84c0.31,0.15,0.62,0.3,0.94,0.46
		c-0.04,0.09-0.1,0.16-0.18,0.21c-0.11,0.08-0.23,0.16-0.33,0.25c-0.13,0.14-0.31,0.19-0.48,0.28l-0.07-0.01l-0.07,0
		C467.24,298.58,467.44,298.21,467.7,297.84z"/>
	<path style="fill-rule:evenodd;clip-rule:evenodd;fill:#5A5461;" d="M479.93,304.79c-0.41-0.47-0.82-0.95-1.23-1.42
		c0.09-0.24,0.25-0.35,0.51-0.31c0.41,0.37,0.8,0.75,0.89,1.34c-0.01,0.11-0.04,0.21-0.1,0.31L479.93,304.79z"/>
	<path style="fill-rule:evenodd;clip-rule:evenodd;fill:#665A66;" d="M483.79,270.75c-0.08-0.18-0.16-0.35-0.25-0.53
		c0.31-0.34,0.67-0.61,1.16-0.61c0.11,0.02,0.21,0.08,0.29,0.16C484.68,270.21,484.26,270.52,483.79,270.75z"/>
	<path style="fill-rule:evenodd;clip-rule:evenodd;fill:#4E4746;" d="M479.21,303.13c-0.17,0.08-0.34,0.16-0.51,0.23
		c-0.13-0.17-0.26-0.33-0.4-0.49c0.07-0.08,0.15-0.15,0.23-0.21c0.24-0.12,0.48-0.21,0.76-0.14c0.16,0.07,0.25,0.2,0.25,0.37
		C479.5,303.07,479.41,303.19,479.21,303.13z"/>
	<path style="fill-rule:evenodd;clip-rule:evenodd;fill:#535350;" d="M468.69,296.41l-0.12,0.01l-0.12,0
		c0.22-0.41,0.43-0.83,0.65-1.24c0.09,0.09,0.17,0.19,0.26,0.28c0.08,0.08,0.11,0.17,0.09,0.28
		C469.27,296.03,469.17,296.42,468.69,296.41z"/>
	<path style="fill-rule:evenodd;clip-rule:evenodd;fill:#45494B;" d="M484.98,269.77c-0.11,0-0.22,0-0.33-0.01
		c-0.09-0.29,0.09-0.5,0.21-0.72c0.05-0.09,0.11-0.17,0.17-0.26c0.09-0.12,0.2-0.23,0.34-0.3c0.1-0.04,0.19-0.04,0.29,0.01
		c0.01,0.1,0.02,0.21,0.03,0.31C485.58,269.22,485.37,269.56,484.98,269.77z"/>
	<path style="fill-rule:evenodd;clip-rule:evenodd;fill:#5F4F62;" d="M485.38,301.43c-0.3,0.41-0.59,0.82-0.89,1.23
		c-0.09-0.08-0.15-0.17-0.19-0.29c-0.03-0.55,0.25-0.88,0.75-1.05C485.18,301.32,485.29,301.36,485.38,301.43z"/>
	<path style="fill-rule:evenodd;clip-rule:evenodd;fill:#5A4C5C;" d="M483.96,303.35c-0.27,0.33-0.54,0.66-0.81,0.99
		c-0.13-0.01-0.21-0.07-0.24-0.2c0-0.49,0.28-0.76,0.72-0.9C483.76,303.23,483.87,303.27,483.96,303.35z"/>
	<path style="fill-rule:evenodd;clip-rule:evenodd;fill:#5E5756;" d="M469.82,302.6c0.09,0.09,0.18,0.19,0.27,0.28
		c-0.65,0.49-0.7-0.15-0.91-0.49c0.09,0,0.17,0,0.26-0.01C469.61,302.36,469.74,302.43,469.82,302.6z"/>
	<path style="fill-rule:evenodd;clip-rule:evenodd;fill:#373539;" d="M485.47,287.03c-0.17,0.08-0.35,0.16-0.52,0.23
		c-0.08,0.08-0.17,0.12-0.29,0.12c-0.18-0.06-0.27-0.17-0.25-0.36c0.14-0.25,0.34-0.42,0.63-0.46c0.12,0,0.23,0,0.34,0
		C485.42,286.72,485.45,286.87,485.47,287.03z"/>
	<path style="fill-rule:evenodd;clip-rule:evenodd;fill:#4A3D4C;" d="M485.38,301.43l-0.11-0.01h-0.11c-0.2-0.67,0.1-0.95,0.75-0.96
		c0,0.08,0,0.17,0.01,0.25C485.74,300.96,485.56,301.19,485.38,301.43z"/>
	<path style="fill-rule:evenodd;clip-rule:evenodd;fill:#5E5861;" d="M482.99,304.55c-0.2,0.27-0.39,0.55-0.59,0.82
		c-0.03-0.03-0.07-0.07-0.1-0.1c-0.26-0.44,0-0.65,0.36-0.82C482.79,304.44,482.9,304.47,482.99,304.55z"/>
	<path style="fill-rule:evenodd;clip-rule:evenodd;fill:#4A3248;" d="M484.47,302.38c0,0.09,0.01,0.18,0.02,0.27
		c-0.14,0.17-0.28,0.34-0.43,0.51c-0.1-0.04-0.17-0.12-0.2-0.23C483.9,302.57,484.02,302.29,484.47,302.38z"/>
	<path style="fill-rule:evenodd;clip-rule:evenodd;fill:#605A64;" d="M487.15,299.12c-0.01-0.12-0.02-0.23-0.03-0.35
		c-0.08-0.16,0.01-0.25,0.14-0.32c0.09,0,0.18,0,0.27,0.01l0.08,0.08C487.46,298.73,487.3,298.92,487.15,299.12z"/>
	<path style="fill-rule:evenodd;clip-rule:evenodd;fill:#A05789;" d="M478.71,254.58c-0.18,0.08-0.33,0.08-0.44-0.11
		C478.42,254.51,478.57,254.55,478.71,254.58z"/>
	<path style="fill-rule:evenodd;clip-rule:evenodd;fill:#3E434D;" d="M470.3,259.91c-0.08-0.09-0.17-0.18-0.25-0.26
		c-0.02-0.08,0-0.14,0.07-0.2c0.08,0.01,0.15,0.01,0.23,0C470.47,259.61,470.44,259.77,470.3,259.91z"/>
	<path style="fill-rule:evenodd;clip-rule:evenodd;fill:#A05789;" d="M480.43,255.04c-0.08-0.04-0.16-0.07-0.24-0.11
		C480.27,254.97,480.35,255,480.43,255.04z"/>
	<path style="fill-rule:evenodd;clip-rule:evenodd;fill:#484146;" d="M473.93,299.3c0.09-0.08,0.18-0.15,0.27-0.23
		C474.11,299.15,474.02,299.22,473.93,299.3z"/>
	<path style="fill-rule:evenodd;clip-rule:evenodd;fill:#605A64;" d="M486.88,299.51c0.06-0.08,0.12-0.15,0.18-0.23
		C487,299.36,486.94,299.43,486.88,299.51z"/>
	<path style="fill-rule:evenodd;clip-rule:evenodd;fill:#6E2669;" d="M483.28,272.39c0.06,0,0.12,0.01,0.17,0.03
		c-0.04,0.09-0.08,0.17-0.12,0.26C483.32,272.58,483.3,272.49,483.28,272.39z"/>
	<path style="fill-rule:evenodd;clip-rule:evenodd;fill:#A05789;" d="M479.7,254.81c-0.08-0.04-0.15-0.07-0.23-0.11
		C479.54,254.73,479.62,254.77,479.7,254.81z"/>
	<path style="fill-rule:evenodd;clip-rule:evenodd;fill:#51464C;" d="M477.23,301.7c0.09,0.1,0.17,0.2,0.26,0.3
		C477.4,301.91,477.32,301.8,477.23,301.7z"/>
	<path style="fill-rule:evenodd;clip-rule:evenodd;fill:#49373A;" d="M478.46,302.87c-0.05,0-0.1,0-0.15,0.01
		c-0.09-0.03-0.13-0.08-0.14-0.17l0.08-0.06C478.45,302.59,478.53,302.66,478.46,302.87z"/>
	<path style="fill-rule:evenodd;clip-rule:evenodd;fill:#3B2C39;" d="M483.96,303.35l-0.09-0.01l-0.09,0
		c-0.06-0.21,0.01-0.28,0.21-0.22l0.07,0.05C484.06,303.25,484.03,303.31,483.96,303.35z"/>
	<path style="fill-rule:evenodd;clip-rule:evenodd;fill:#382B3A;" d="M482.99,304.55l-0.07-0.02l-0.08,0
		c-0.1-0.2-0.01-0.24,0.17-0.2c0.04,0.03,0.09,0.03,0.14,0C483.1,304.41,483.05,304.48,482.99,304.55z"/>
	<path style="fill-rule:evenodd;clip-rule:evenodd;fill:#672563;" d="M476.08,292.08c-0.32,0.31-0.64,0.61-0.97,0.92
		c-0.81-0.23-0.27-0.83-0.35-1.27c0.02-0.66-0.05-1.36,0.59-1.82c0.1-0.95,0.04-1.98,1.2-2.41c0.24-0.08,0.47-0.16,0.71-0.23
		c0.5,0.19,0.47,0.6,0.35,0.99C477.21,289.58,476.87,290.92,476.08,292.08z"/>
	<path style="fill-rule:evenodd;clip-rule:evenodd;fill:#EDCE87;" d="M481.82,283.64c-1.17,0.74-2.33,1.49-3.5,2.23
		c-0.14,0.02-0.23,0.11-0.32,0.21l0,0c-0.5,0.21-0.76,0.04-0.76-0.51l0.01,0.01c0.11-0.05,0.18-0.14,0.27-0.22l0,0
		c0.07-0.08,0.15-0.14,0.24-0.19c0.08-0.1,0.16-0.2,0.24-0.29c1.06-1.08,2.14-2.12,3.77-2.23
		C482.16,282.97,482.09,283.3,481.82,283.64z"/>
	<path style="fill-rule:evenodd;clip-rule:evenodd;fill:#A4468D;" d="M470.36,293.74c0.06-1.42,1.29-2.4,1.42-3.79
		c0.33-0.51,0.74-0.88,1.41-0.76c0.53,0.02,0.3,0.37,0.2,0.56c-0.63,1.24-1.17,2.53-1.88,3.74c-0.08,0.02-0.16,0.04-0.23,0.07
		c-0.22,0.17-0.52,0-0.73,0.2C470.48,293.74,470.42,293.73,470.36,293.74z"/>
	<path style="fill-rule:evenodd;clip-rule:evenodd;fill:#6D2667;" d="M477.53,278.88c0.34-0.51,0.38-1.1,0.48-1.67
		c0.24,0,0.47,0,0.71,0c0.13,0.1,0.3,0.14,0.36,0.32c-0.04,1.02,0.1,2.07-0.35,3.04c-0.09,0.09-0.17,0.17-0.26,0.26
		c-0.08,0.07-0.16,0.14-0.24,0.21l0,0c-0.18,0.26-0.45,0.38-0.73,0.47c-0.07,0-0.14,0-0.22,0.01c-0.07-0.05-0.1-0.1-0.08-0.15
		c0.02-0.05,0.04-0.08,0.06-0.08c0.01-0.4,0.01-0.8,0.02-1.19c0.07-0.08,0.15-0.16,0.22-0.24
		C477.51,279.52,477.52,279.2,477.53,278.88z"/>
	<path style="fill-rule:evenodd;clip-rule:evenodd;fill:#492047;" d="M475.36,289.91c-0.09,0.65-0.18,1.29-0.27,1.94
		c-0.37,0.25-0.46,0.72-0.79,0.99c-0.34,0.27-0.7,0.52-1.15,0.19c0.1-1.51,0.31-2.97,1.5-4.07
		C475.31,288.96,474.97,289.71,475.36,289.91z"/>
	<path style="fill-rule:evenodd;clip-rule:evenodd;fill:#8B307F;" d="M471.51,293.48c0.06-1.42,1.04-2.46,1.53-3.7
		c0.08-0.19,0.41-0.32,0.15-0.6c0.27-0.3,0.63-0.22,0.97-0.22c-0.29,1.43-0.94,2.76-1.26,4.19c-0.06,0.11-0.14,0.19-0.24,0.24
		c-0.23,0.03-0.47-0.05-0.67,0.1C471.82,293.49,471.67,293.49,471.51,293.48z"/>
	<path style="fill-rule:evenodd;clip-rule:evenodd;fill:#B15593;" d="M475.87,282.55c-0.51,0.61,0.25,1.98-1.18,2.28
		c-0.31,0.06-0.62-0.15-0.46-0.48c0.43-0.87,0.56-1.95,1.4-2.52C475.97,281.6,475.83,282.17,475.87,282.55z"/>
	<path style="fill-rule:evenodd;clip-rule:evenodd;fill:#6B2867;" d="M477.76,284.63c-0.48,0.09-1.09,0.87-1.24,0.51
		c-0.25-0.59,0.06-1.36,0.88-1.66c0.24-0.08,0.41-0.34,0.62-0.51c0.19-0.27,0.42-0.39,0.74-0.22c0.25,0.28,0.31,0.61,0.31,0.97
		C478.84,284.3,478.3,284.46,477.76,284.63z"/>
	<path style="fill-rule:evenodd;clip-rule:evenodd;fill:#682563;" d="M472.7,293.24c0.24-1.51,0.68-2.95,1.46-4.28
		c0.16,0,0.32,0,0.48,0c-0.7,1.28-0.97,2.71-1.43,4.07C473.1,293.25,472.97,293.42,472.7,293.24z"/>
	<path style="fill-rule:evenodd;clip-rule:evenodd;fill:#D6A12B;" d="M475.02,285.5c0.02,0.02,0.84-0.46,0.67,0.13
		c-0.19,0.63-1.12,0.59-1.78,0.66c-0.24,0.03-0.47-0.05-0.4-0.41C473.68,285.17,474.1,285.01,475.02,285.5z"/>
	<path style="fill-rule:evenodd;clip-rule:evenodd;fill:#594A52;" d="M478.74,282.74c-0.24,0.07-0.48,0.15-0.72,0.22
		c-0.1-0.01-0.2-0.02-0.3-0.04c0.01-0.47,0.43-0.61,0.71-0.86c0.75-0.46,1.46-0.99,2.22-1.44c0.19-0.11,0.38-0.2,0.58-0.29
		c0.25-0.1,0.5-0.22,0.77-0.03c0.11,0.01,0.23,0.03,0.34,0.04c-0.09,0.14-0.19,0.29-0.28,0.43c-0.17,0.39-0.56,0.5-0.88,0.71
		c-0.65,0.38-1.3,0.78-1.96,1.16c-0.1,0.05-0.2,0.09-0.31,0.11C478.85,282.75,478.8,282.74,478.74,282.74z"/>
	<path style="fill-rule:evenodd;clip-rule:evenodd;fill:#52474C;" d="M477.76,284.63c0.41-0.3,0.81-0.61,1.22-0.91
		c0.51-0.86,1.38-1.19,2.25-1.53c0.05,0.03,0.09,0.06,0.14,0.09c0.1,0.08,0.2,0.15,0.31,0.23c0.06,0.09,0.04,0.16-0.06,0.19
		c-1.2,0.72-2.4,1.45-3.6,2.17C477.92,284.8,477.84,284.71,477.76,284.63z"/>
	<path style="fill-rule:evenodd;clip-rule:evenodd;fill:#CF9731;" d="M478.52,282.29c-0.27,0.21-0.53,0.42-0.8,0.64
		c-0.3-0.04-0.7,0.56-0.87,0.04c-0.21-0.66,0.53-0.86,0.9-1.24c0.12-0.22,0.28-0.36,0.55-0.23
		C478.52,281.72,478.54,282,478.52,282.29z"/>
	<path style="fill-rule:evenodd;clip-rule:evenodd;fill:#DDA62C;" d="M474.68,287.73c0.37-0.04,0.81,0,0.61,0.23
		c-0.59,0.64-1.58,0.26-2.3,0.7c-0.14,0.09-0.51,0.07-0.37-0.2C473.1,287.53,474.11,288.04,474.68,287.73z"/>
	<path style="fill-rule:evenodd;clip-rule:evenodd;fill:#A64C8B;" d="M474.01,286.8c0.24,0.1,0.8-0.28,0.7,0.13
		c-0.13,0.57-0.88,0.31-1.33,0.49c-0.21,0.08-0.42-0.02-0.38-0.27C473.11,286.42,473.64,286.83,474.01,286.8z"/>
	<path style="fill-rule:evenodd;clip-rule:evenodd;fill:#D29931;" d="M477.27,286.56c-0.33,0.23-0.66,0.46-0.99,0.69
		c-0.08,0.01-0.15,0.04-0.21,0.09c-0.09,0.02-0.16,0-0.22-0.07c0.13-0.61,0.18-1.28,0.96-1.46
		C477.07,285.99,477.2,286.26,477.27,286.56z"/>
	<path style="fill-rule:evenodd;clip-rule:evenodd;fill:#E1B968;" d="M477.27,286.56c-0.48-0.04-0.47-0.4-0.46-0.74
		c0.15-0.08,0.29-0.16,0.44-0.24c0.16,0.31,0.4,0.5,0.76,0.51C477.76,286.24,477.51,286.4,477.27,286.56z"/>
	<path style="fill-rule:evenodd;clip-rule:evenodd;fill:#493A4D;" d="M476.08,280.56c0.32,0,0.63-0.01,0.95-0.01
		c-0.25,0.24-0.5,0.47-0.74,0.71c-0.12-0.12-0.34-0.18-0.21-0.42C476.08,280.74,476.08,280.65,476.08,280.56z"/>
	<path style="fill-rule:evenodd;clip-rule:evenodd;fill:#493A4D;" d="M478.24,281.51c-0.16,0.07-0.33,0.14-0.49,0.22
		c-0.08-0.08-0.17-0.15-0.25-0.23c0.16-0.29,0.4-0.46,0.73-0.47c0.02,0.11,0.04,0.23,0.06,0.34
		C478.28,281.42,478.26,281.47,478.24,281.51z"/>
	<path style="fill-rule:evenodd;clip-rule:evenodd;fill:#89653B;" d="M476.07,280.84c0.07,0.14,0.14,0.28,0.21,0.42
		c-0.13-0.05-0.25-0.11-0.38-0.16C475.96,281.01,476.02,280.92,476.07,280.84z"/>
	<path style="fill-rule:evenodd;clip-rule:evenodd;fill:#493A4D;" d="M477.27,281.28c0.01,0.08,0.01,0.15,0.02,0.23
		c-0.05,0.03-0.11,0.05-0.16,0.08C477.17,281.49,477.22,281.38,477.27,281.28z"/>
	<path style="fill-rule:evenodd;clip-rule:evenodd;fill:#E1B968;" d="M477.76,285.17c-0.08,0.06-0.16,0.13-0.24,0.19
		C477.6,285.3,477.68,285.24,477.76,285.17z"/>
	<path style="fill-rule:evenodd;clip-rule:evenodd;fill:#E1B968;" d="M477.52,285.36c-0.09,0.07-0.18,0.15-0.27,0.22
		C477.34,285.51,477.43,285.44,477.52,285.36z"/>
	<path style="fill-rule:evenodd;clip-rule:evenodd;fill:#493A4D;" d="M477.05,279.6c0.07-0.08,0.14-0.16,0.22-0.24
		C477.2,279.44,477.13,279.52,477.05,279.6z"/>
	<path style="fill-rule:evenodd;clip-rule:evenodd;fill:#493A4D;" d="M477.5,279.84c-0.07,0.08-0.14,0.16-0.22,0.24
		C477.36,280,477.43,279.92,477.5,279.84z"/>
	<path style="fill-rule:evenodd;clip-rule:evenodd;fill:#4C424A;" d="M475.85,287.27c0.07,0.03,0.14,0.05,0.22,0.07
		C475.99,287.32,475.92,287.29,475.85,287.27z"/>
	<path style="fill-rule:evenodd;clip-rule:evenodd;fill:#A4488B;" d="M478.73,280.57c-0.04-1.05-0.1-2.1,0.25-3.11
		c0.26-0.23,0.58-0.33,0.92-0.33c0.93,0.2,1.65,0.57,1.44,1.72c-0.65,0.6-1.34,1.15-2.16,1.52c-0.09,0.05-0.17,0.11-0.24,0.18
		l-0.11,0L478.73,280.57z"/>
	<path style="fill-rule:evenodd;clip-rule:evenodd;fill:#852C7C;" d="M483.05,272.41c-1.24,0.25-2.05-0.54-2.91-1.2
		c0.13-0.94,0.83-1.2,1.61-1.22c0.73-0.02,0.83,0.61,0.96,1.15C482.83,271.57,482.97,271.98,483.05,272.41z"/>
	<path style="fill-rule:evenodd;clip-rule:evenodd;fill:#AF5192;" d="M479.06,273.82c-0.12-0.14-0.24-0.29-0.36-0.43
		c-0.21-0.72,0.08-0.94,0.76-0.77c0.71,0.41,1.42,0.81,2.13,1.22c0.21,0.65,0.17,1.12-0.72,0.96c-0.07-0.01-0.15-0.02-0.22-0.03
		C479.99,274.67,479.36,274.52,479.06,273.82z"/>
	<path style="fill-rule:evenodd;clip-rule:evenodd;fill:#9E4786;" d="M476.8,271.89c-1.03-0.24-2.05-0.47-3.08-0.71
		c-0.31-0.43-0.29-0.93-0.28-1.43c0.96,0.63,2.03,0.98,3.1,1.34c0.28,0.09,0.89-0.08,0.75,0.6c-0.08,0.07-0.17,0.13-0.26,0.19
		C476.95,271.89,476.87,271.89,476.8,271.89z"/>
	<path style="fill-rule:evenodd;clip-rule:evenodd;fill:#6E2669;" d="M483.05,272.41c-0.41-0.18-0.52-0.56-0.69-0.92
		c-0.19-0.41,0.26-1.15-0.57-1.22c-0.74-0.06-1.28,0.32-1.65,0.95c-0.08-0.17-0.16-0.34-0.24-0.51l0-0.12
		c0.09-0.05,0.18-0.11,0.27-0.16c0.07-0.04,0.14-0.09,0.19-0.15c0.63-0.56,1.33-0.85,2.17-0.5c1,0.66,0.73,1.69,0.76,2.63
		C483.21,272.4,483.13,272.41,483.05,272.41z"/>
	<path style="fill-rule:evenodd;clip-rule:evenodd;fill:#E9CA82;" d="M478.24,281.51c0.03-0.04,0.05-0.08,0.05-0.13
		c0.77-0.45,1.55-0.91,2.32-1.36c0.3,0.18,0.38,0.44,0.26,0.77c-0.78,0.5-1.57,1-2.35,1.5
		C478.21,282.11,478.23,281.81,478.24,281.51z"/>
	<path style="fill-rule:evenodd;clip-rule:evenodd;fill:#D69B2A;" d="M481.99,280.29c-0.22,0.08-0.44,0.15-0.65,0.23
		c-0.27-0.16-0.44-0.4-0.49-0.72c0.74-0.47,1.29-1.62,2.43-0.68c-0.04,0.46-0.47,0.54-0.74,0.79c-0.09,0.04-0.17,0.09-0.23,0.16
		C482.21,280.14,482.1,280.22,481.99,280.29z"/>
	<path style="fill-rule:evenodd;clip-rule:evenodd;fill:#D7A63B;" d="M480.22,271.9c0.71,0.37,1.42,0.73,2.12,1.11
		c0.2,0.11,0.52,0.2,0.4,0.5c-0.14,0.35-0.41,0.07-0.59,0c-0.79-0.28-1.59-0.55-2.23-1.12c-0.08-0.07-0.16-0.15-0.24-0.22l0,0
		c-0.08-0.08-0.16-0.16-0.23-0.24l0,0c-0.08-0.07-0.15-0.15-0.2-0.24c-0.06-0.07-0.06-0.14-0.02-0.22c0.15-0.17,0.3-0.15,0.46-0.02
		l0,0c0.08,0.09,0.15,0.18,0.25,0.24l-0.01-0.01C480,271.77,480.09,271.85,480.22,271.9z"/>
	<path style="fill-rule:evenodd;clip-rule:evenodd;fill:#4D3C4C;" d="M479.91,277.43c-0.31,0.01-0.62,0.02-0.93,0.03
		c-0.09-0.08-0.18-0.17-0.27-0.25c0.16-0.07,0.32-0.14,0.48-0.22c0.46-0.36,0.91-0.7-0.04-1.04c-0.29-0.1-0.74-0.16-0.67-0.67
		c0.08-0.07,0.16-0.13,0.24-0.2c0.76-0.28,1.33,0.29,1.99,0.46c0.28,0.2,0.68,0.19,0.9,0.5c0,0.08,0,0.15,0,0.23
		c0.09,0.25-0.04,0.42-0.2,0.59C480.98,277.24,480.39,277.19,479.91,277.43z"/>
	<path style="fill-rule:evenodd;clip-rule:evenodd;fill:#6B2567;" d="M481.36,276.72c0.08-0.15,0.17-0.3,0.25-0.45
		c0.15-0.09,0.31-0.19,0.46-0.28l0.01,0c0.17,0.83,1.54,1.77-0.22,2.43C481.15,278,480.98,277.44,481.36,276.72z"/>
	<path style="fill-rule:evenodd;clip-rule:evenodd;fill:#DEB14D;" d="M480.61,275.77c-0.63-0.23-1.26-0.46-1.89-0.69
		c-0.09-0.07-0.18-0.15-0.27-0.22c-0.18-0.3-0.23-0.59,0.08-0.84c0.81-0.02,1.34,0.5,1.88,0.99c0.15,0.1,0.31,0.21,0.46,0.31
		C481.05,275.63,481.03,275.82,480.61,275.77z"/>
	<path style="fill-rule:evenodd;clip-rule:evenodd;fill:#87307B;" d="M481.36,276.72c0.17,0.57,0.33,1.13,0.5,1.7
		c-0.17,0.15-0.34,0.29-0.51,0.44c-0.26-0.69-0.56-1.35-1.43-1.42C480.33,277.06,480.82,276.84,481.36,276.72z"/>
	<path style="fill-rule:evenodd;clip-rule:evenodd;fill:#813179;" d="M480.88,274.8c0.56-0.08,0.64-0.52,0.72-0.96
		c0.55,0.15,1.18,0.35,0.73,1.07C481.87,275.64,481.34,275.16,480.88,274.8z"/>
	<path style="fill-rule:evenodd;clip-rule:evenodd;fill:#792B71;" d="M478.23,273.13c-0.28-0.23-0.9-0.22-0.76-0.75
		c0.16-0.63,0.76-0.51,1.26-0.49C479.03,272.49,478.69,272.83,478.23,273.13z"/>
	<path style="fill-rule:evenodd;clip-rule:evenodd;fill:#D79D2F;" d="M478.75,274.07c-0.31,0.19-0.27,0.51-0.3,0.8
		c-0.72-0.11-0.84-0.71-1.02-1.27c0.52-0.37,0.83,0.24,1.26,0.26c0.09,0.03,0.13,0.07,0.11,0.12
		C478.79,274.04,478.78,274.07,478.75,274.07z"/>
	<path style="fill-rule:evenodd;clip-rule:evenodd;fill:#6E4B58;" d="M478.75,274.07c-0.02-0.07-0.04-0.14-0.06-0.21
		c0.12-0.01,0.24-0.02,0.36-0.04c0.53,0.32,1.06,0.63,1.6,0.95c-0.08,0.08-0.17,0.16-0.25,0.25
		C479.85,274.7,479.3,274.38,478.75,274.07z"/>
	<path style="fill-rule:evenodd;clip-rule:evenodd;fill:#993E86;" d="M478.23,273.13c0.16-0.41,0.33-0.82,0.49-1.24
		c0.25,0.24,0.49,0.49,0.74,0.73c-0.47,0.04-0.73,0.3-0.76,0.77C478.55,273.3,478.39,273.21,478.23,273.13z"/>
	<path style="fill-rule:evenodd;clip-rule:evenodd;fill:#E9BE61;" d="M480.86,279.81c0.3,0.15,0.5,0.36,0.49,0.72
		c-0.16,0.09-0.31,0.18-0.47,0.26c-0.09-0.26-0.17-0.51-0.26-0.77C480.69,279.95,480.77,279.88,480.86,279.81z"/>
	<path style="fill-rule:evenodd;clip-rule:evenodd;fill:#CE982E;" d="M480.61,275.77c0.08-0.15,0.17-0.29,0.25-0.44
		c0.32,0.16,0.8,0.16,0.74,0.71C481.24,276.08,480.89,276.06,480.61,275.77z"/>
	<path style="fill-rule:evenodd;clip-rule:evenodd;fill:#282923;" d="M482.07,275.99c-0.15-0.1-0.24-0.22-0.09-0.38
		c0.02-0.02,0.09-0.04,0.11-0.02C482.31,275.73,482.08,275.85,482.07,275.99L482.07,275.99z"/>
	<path style="fill-rule:evenodd;clip-rule:evenodd;fill:#CD942A;" d="M479.68,271.44c-0.15,0.01-0.31,0.01-0.46,0.02
		C479.36,271.17,479.52,271.21,479.68,271.44z"/>
	<path style="fill-rule:evenodd;clip-rule:evenodd;fill:#852C7C;" d="M479.9,270.59l0,0.12c0,0-0.08,0-0.08,0s-0.08-0.03-0.08-0.03
		C479.76,270.59,479.82,270.56,479.9,270.59z"/>
	<path style="fill-rule:evenodd;clip-rule:evenodd;fill:#78566F;" d="M477.03,271.87c0.09-0.06,0.17-0.12,0.26-0.19
		C477.2,271.75,477.12,271.81,477.03,271.87z"/>
	<path style="fill-rule:evenodd;clip-rule:evenodd;fill:#CD942A;" d="M479.94,271.67c-0.08-0.08-0.17-0.16-0.25-0.24
		C479.77,271.51,479.85,271.59,479.94,271.67z"/>
	<path style="fill-rule:evenodd;clip-rule:evenodd;fill:#CD942A;" d="M479.24,271.67c0.07,0.08,0.13,0.16,0.2,0.24
		C479.38,271.83,479.31,271.75,479.24,271.67z"/>
	<path style="fill-rule:evenodd;clip-rule:evenodd;fill:#CD942A;" d="M480.22,271.9c-0.1-0.08-0.19-0.16-0.29-0.24
		C480.02,271.74,480.12,271.82,480.22,271.9z"/>
	<path style="fill-rule:evenodd;clip-rule:evenodd;fill:#CD942A;" d="M479.45,271.92c0.08,0.08,0.16,0.16,0.23,0.24
		C479.6,272.08,479.52,272,479.45,271.92z"/>
	<path style="fill-rule:evenodd;clip-rule:evenodd;fill:#CD942A;" d="M479.68,272.16c0.08,0.07,0.16,0.15,0.24,0.22
		C479.84,272.31,479.76,272.23,479.68,272.16z"/>
	<path style="fill-rule:evenodd;clip-rule:evenodd;fill:#9E4786;" d="M473.44,269.77c-0.07-0.07-0.15-0.14-0.22-0.21
		C473.3,269.63,473.37,269.7,473.44,269.77z"/>
	<path style="fill-rule:evenodd;clip-rule:evenodd;fill:#493A4D;" d="M478.94,280.56c0.08-0.06,0.16-0.12,0.24-0.19
		C479.1,280.43,479.02,280.49,478.94,280.56z"/>
	<path style="fill-rule:evenodd;clip-rule:evenodd;fill:#493A4D;" d="M478.24,281.04c0.08-0.07,0.16-0.14,0.24-0.21
		C478.39,280.9,478.32,280.97,478.24,281.04z"/>
	<path style="fill-rule:evenodd;clip-rule:evenodd;fill:#AF5392;" d="M470.3,259.91c0.01-0.15,0.03-0.31,0.04-0.46
		c1.53-1.81,3.24-3.4,5.49-4.31c0.52,0.26,1.11,0.43,1.48,0.94c0.06,0.09,0.13,0.17,0.21,0.23l0.01,0.01
		c0.01,0.5-0.35,0.42-0.65,0.39c-1.32-0.15-2.39,0.44-3.41,1.17c-0.51,0.33-0.89,0.83-1.44,1.1c-1.51,1.44-1.49,3.32-1.48,5.19
		c0.01,1.15-0.07,2.29-0.45,3.39c-0.8-1.6-0.43-3.33-0.52-5.01C469.83,261.68,470.06,260.79,470.3,259.91z"/>
	<path style="fill-rule:evenodd;clip-rule:evenodd;fill:#574359;" d="M472.04,258.98c0.21-0.57,0.74-0.84,1.16-1.21
		c1.71-0.83,3.45-0.92,5.24-0.28c0.02,0.1,0.03,0.19,0.05,0.29c-1.14,0.07-2.27,0.19-3.41,0.2c-1.15,0-2.04,0.48-2.82,1.25
		C472.18,259.14,472.11,259.06,472.04,258.98z"/>
	<path style="fill-rule:evenodd;clip-rule:evenodd;fill:#B15492;" d="M472.28,269.97c-0.91,0.05-0.97-0.03-1.04-1.44
		c0.13-0.69,0.26-1.39,0.39-2.08c0.12,0.67,0.25,1.34,0.37,2.01C472.1,268.96,472.19,269.47,472.28,269.97z"/>
	<path style="fill-rule:evenodd;clip-rule:evenodd;fill:#CC9631;" d="M471.31,265.52c-0.1,0.69-0.15,1.41-0.32,2.09
		c-0.08,0.34,0.02,0.77-0.37,1.01c-0.02-0.39-0.07-0.78-0.04-1.17c0.05-0.67,0.15-1.33,0.25-1.99c0.05-0.29-0.09-0.83,0.22-0.81
		C471.49,264.67,471.24,265.2,471.31,265.52z"/>
	<path style="fill-rule:evenodd;clip-rule:evenodd;fill:#C99231;" d="M472.96,270.46c-0.53-0.57-0.52-1.27-0.5-1.98
		c0-0.04,0.15-0.07,0.23-0.11c0.1,0.62,0.2,1.23,0.31,1.85C473.07,270.31,473.05,270.39,472.96,270.46z"/>
	<path style="fill-rule:evenodd;clip-rule:evenodd;fill:#936C4C;" d="M472.96,270.46c0.01-0.08,0.02-0.16,0.04-0.24
		c0.05,0.17,0.1,0.33,0.14,0.5c0,0.01-0.05,0.03-0.07,0.04C473.03,270.66,472.99,270.56,472.96,270.46z"/>
	<path style="fill-rule:evenodd;clip-rule:evenodd;fill:#B55696;" d="M478.96,286.07c0.83-0.64,1.68-1.26,2.65-1.68
		c1.01,0.06,1.64,0.97,1.65,2.4c-1.27,0.89-2.54,1.78-3.81,2.67c-0.44,0.21-0.67-0.06-0.86-0.39
		C478.16,288.34,478.35,286.83,478.96,286.07z"/>
	<path style="fill-rule:evenodd;clip-rule:evenodd;fill:#903482;" d="M478.96,286.07c-0.18,1.18-0.81,2.42,0.5,3.38
		c-0.88,0.72-1.76,1.43-2.65,2.15c-0.34,0.06-0.33-0.19-0.25-0.35c0.81-1.48,1.03-3.17,1.68-4.7
		C478.4,286.28,478.61,286.08,478.96,286.07z"/>
	<path style="fill-rule:evenodd;clip-rule:evenodd;fill:#7A2973;" d="M478.24,286.56c-0.17,1.43-0.25,2.89-1.18,4.11
		c-0.18,0.24-0.52,0.53-0.25,0.93c-0.24,0.16-0.48,0.32-0.72,0.47c0.39-1.2,0.78-2.39,1.16-3.58c0.13-0.4,0.36-0.81,0.03-1.22
		c0,0,0.01,0,0.01,0c0.08-0.07,0.16-0.15,0.24-0.23C477.75,286.88,477.99,286.72,478.24,286.56z"/>
	<path style="fill-rule:evenodd;clip-rule:evenodd;fill:#8D3182;" d="M483.26,286.79c-0.57-0.78-0.52-2-1.65-2.4
		c0.4-0.24,0.8-0.48,1.2-0.72c0.38-0.24,0.64-0.01,0.76,0.28c0.29,0.68,0.7,1.32,0.65,2.11C483.9,286.3,483.58,286.55,483.26,286.79
		z"/>
	<path style="fill-rule:evenodd;clip-rule:evenodd;fill:#7A2875;" d="M484.22,286.06c-0.82-0.59-0.34-1.95-1.41-2.38
		c0.76-0.84,1.29-0.74,1.43,0.42C484.31,284.74,485.14,285.41,484.22,286.06z"/>
	<path style="fill-rule:evenodd;clip-rule:evenodd;fill:#D39A2F;" d="M481.6,282.71c0.02-0.06,0.04-0.13,0.06-0.19
		c0.62-0.35,1.24-0.7,1.86-1.04c0.67,0.84-0.1,1.15-0.59,1.53c-0.34,0.26-0.74,0.43-1.11,0.64
		C481.82,283.31,481.96,282.95,481.6,282.71z"/>
	<path style="fill-rule:evenodd;clip-rule:evenodd;fill:#E7CE87;" d="M478.5,290.9c1.12-0.99,2.27-1.94,3.57-2.68
		c0.14,0.13,0.17,0.29,0.14,0.46c-0.28,0.65-0.87,1-1.39,1.4c-0.55,0.44-1.16,0.78-1.77,1.13c-0.11,0.04-0.21,0.05-0.32,0.04
		C478.56,291.2,478.43,291.11,478.5,290.9z"/>
	<path style="fill-rule:evenodd;clip-rule:evenodd;fill:#2D363F;" d="M472.7,293.24c0.17-0.07,0.34-0.14,0.51-0.21
		c0.99,0.19,0.97-1.24,1.88-1.18c0.1,0.38-0.49,0.78,0.03,1.15c0,0.08,0,0.17,0,0.25c-0.02,0.32-0.21,0.5-0.5,0.59
		c-0.41-0.07-0.79-0.33-1.23-0.17c-0.1,0.03-0.21,0.05-0.32,0.07c-0.23,0.02-0.43-0.03-0.59-0.21l0,0c-0.08-0.05-0.11-0.1-0.08-0.15
		c0.03-0.05,0.05-0.07,0.08-0.07C472.56,293.28,472.63,293.26,472.7,293.24z"/>
	<path style="fill-rule:evenodd;clip-rule:evenodd;fill:#BE8B2D;" d="M474.6,293.74c0.17-0.16,0.34-0.33,0.51-0.49
		c0.81-0.54,1.62-1.08,2.42-1.62c0.18,0.06,0.29,0.17,0.28,0.37c-0.89,0.93-1.85,1.76-3.18,2l0,0c-0.08-0.04-0.12-0.09-0.1-0.15
		C474.56,293.77,474.58,293.74,474.6,293.74z"/>
	<path style="fill-rule:evenodd;clip-rule:evenodd;fill:#D29D2E;" d="M485.04,286.56c-0.19,0.18-0.37,0.35-0.56,0.53
		c-0.49,0.72-0.96,1.46-2.01,1.34c-0.08-0.18-0.05-0.34,0.06-0.5C483.38,287.48,483.91,286.47,485.04,286.56z"/>
	<path style="fill-rule:evenodd;clip-rule:evenodd;fill:#D0A852;" d="M477.77,291.84c-0.08-0.07-0.15-0.14-0.23-0.21
		c0.32-0.24,0.64-0.48,0.95-0.72c0.08,0.08,0.16,0.16,0.24,0.23C478.72,291.79,478.36,291.97,477.77,291.84z"/>
	<path style="fill-rule:evenodd;clip-rule:evenodd;fill:#DFB860;" d="M482.53,287.93c0,0.17,0.01,0.34,0.01,0.51
		c-0.07,0.25-0.2,0.39-0.48,0.26c0-0.16,0-0.32,0-0.48C482.22,288.13,482.38,288.03,482.53,287.93z"/>
	<path style="fill-rule:evenodd;clip-rule:evenodd;fill:#672563;" d="M477.51,287.05c-0.08,0.08-0.16,0.15-0.24,0.23
		C477.35,287.2,477.43,287.12,477.51,287.05z"/>
	<path style="fill-rule:evenodd;clip-rule:evenodd;fill:#E1B968;" d="M478,286.08c0.11-0.07,0.21-0.14,0.32-0.21
		C478.21,285.94,478.11,286.01,478,286.08z"/>
	<path style="fill-rule:evenodd;clip-rule:evenodd;fill:#B25594;" d="M484.04,257.5c0.6,0.9,1.21,1.81,1.81,2.71
		c0.12,0.61-0.25,1.06-0.47,1.57c-0.12,0.04-0.28,0.02-0.31-0.08c-0.36-1.48-1.67-2.37-2.29-3.69c-0.27-0.58-0.54-1.16-0.81-1.74
		c0.71,0.06,1.13,0.6,1.67,0.95c0.09,0.06,0.22,0.06,0.33,0.08c0.06,0.04,0.08,0.08,0.08,0.13
		C484.07,257.47,484.05,257.5,484.04,257.5z"/>
	<path style="fill-rule:evenodd;clip-rule:evenodd;fill:#843575;" d="M482.79,258c1.19,1.04,2.16,2.22,2.59,3.77
		c-0.19,0.28-0.37,0.56-0.56,0.84c-0.05-0.18-0.09-0.36-0.14-0.53c-0.22-1.11-0.68-2.1-1.53-2.88
		C482.79,258.87,482.8,258.44,482.79,258z"/>
	<path style="fill-rule:evenodd;clip-rule:evenodd;fill:#AD5692;" d="M486.91,263.14c-0.08,1.14-0.82,1.8-1.55,2.47
		c-0.07,0.07-0.2,0.07-0.31,0.11c-0.02-0.15-0.1-0.34-0.04-0.44c0.49-0.81,1-1.6,1.51-2.39c0.05-0.08,0.19-0.1,0.29-0.14
		C486.84,262.89,486.88,263.04,486.91,263.14z"/>
	<path style="fill-rule:evenodd;clip-rule:evenodd;fill:#C69434;" d="M486.41,261.77c-0.06,0.95-0.58,1.56-1.05,2.19
		c-0.06,0.08-0.19,0.12-0.29,0.18c-0.05-0.13-0.17-0.26-0.15-0.39c0.11-0.89,0.77-1.54,1.09-2.34c0.03-0.07,0.2-0.08,0.3-0.11
		C486.36,261.48,486.39,261.67,486.41,261.77z"/>
	<path style="fill-rule:evenodd;clip-rule:evenodd;fill:#CF9B30;" d="M485.82,266.61c-0.46,0.33-0.92,0.66-1.38,1
		c0.06-0.66,0.53-1.07,0.97-1.46c0.38-0.34,0.58-0.92,1.19-0.97C486.58,265.79,486.14,266.17,485.82,266.61z"/>
	<path style="fill-rule:evenodd;clip-rule:evenodd;fill:#B25895;" d="M485.66,268.49c-0.07,0.02-0.15,0.04-0.21,0.07
		c-0.31,0.12-0.56,0.03-0.74-0.25c0-0.08,0.01-0.15,0.02-0.23c0.07-0.04,0.13-0.09,0.2-0.13c0.4-0.28,0.82-1.07,1.11-0.83
		C486.42,267.44,485.7,267.99,485.66,268.49z"/>
	<path style="fill-rule:evenodd;clip-rule:evenodd;fill:#974482;" d="M485.15,269.02c-0.17,0.25-0.33,0.5-0.5,0.74
		c-0.37,0.15-0.74,0.3-1.12,0.45c0.01-0.23,0.01-0.46,0.02-0.68c0.39-0.3,0.78-0.59,1.3-0.64
		C484.97,268.91,485.07,268.95,485.15,269.02z"/>
	<path style="fill-rule:evenodd;clip-rule:evenodd;fill:#72316E;" d="M484.96,269.04c-0.46,0.19-0.86,0.53-1.39,0.5
		c0.18-0.5,0.39-0.98,0.95-1.18c0.19,0.11,0.4,0.18,0.51,0.39C485.06,268.86,485.04,268.96,484.96,269.04z"/>
	<path style="fill-rule:evenodd;clip-rule:evenodd;fill:#974482;" d="M484.96,268.8c-0.15-0.15-0.3-0.29-0.45-0.44
		c0.06-0.03,0.12-0.05,0.19-0.05c0.25,0.08,0.49,0.17,0.74,0.25c-0.07,0.08-0.13,0.17-0.2,0.25
		C485.14,268.9,485.05,268.9,484.96,268.8z"/>
	<path style="fill-rule:evenodd;clip-rule:evenodd;fill:#C69434;" d="M484.55,264.84c0.01-0.08,0.02-0.16,0.04-0.23
		c0.02,0.06,0.04,0.12,0.04,0.18C484.63,264.81,484.58,264.83,484.55,264.84z"/>
	<path style="fill-rule:evenodd;clip-rule:evenodd;fill:#B65897;" d="M484,291.61c-1.77,1.43-3.54,2.86-5.31,4.3
		c-0.52,0.31-0.65-0.12-0.73-0.44c-0.19-0.89-0.5-1.75-0.65-2.65c0.27-0.82,1.13-0.99,1.66-1.53c0.19-0.12,0.36-0.28,0.58-0.38
		c0.16-0.06,0.31-0.15,0.49-0.18c0.12-0.01,0.24-0.01,0.35,0.01c0.6,0.09,1.02-0.36,1.54-0.51
		C483.11,289.86,483.89,290.38,484,291.61z"/>
	<path style="fill-rule:evenodd;clip-rule:evenodd;fill:#EECD86;" d="M483.01,294.44c-1.12,0.98-2.24,1.96-3.37,2.94
		c-0.06,0.08-0.14,0.13-0.22,0.18l-0.02,0.02c-0.92,0.19-0.73-0.46-0.72-0.97c1.28-1.04,2.56-2.08,3.84-3.12
		c0.11-0.04,0.2-0.12,0.29-0.2l0,0C483.44,293.58,483.24,294.01,483.01,294.44z"/>
	<path style="fill-rule:evenodd;clip-rule:evenodd;fill:#872B7E;" d="M478.01,296.41c-0.82,0.62-1.45,1.47-2.41,1.92
		c-0.44,0.06-0.33-0.29-0.24-0.43c0.88-1.33,0.78-2.73,0.3-4.15c0.27-0.45,0.66-0.7,1.18-0.77
		C477.96,293.87,477.89,295.17,478.01,296.41z"/>
	<path style="fill-rule:evenodd;clip-rule:evenodd;fill:#A2428C;" d="M484,291.61c-0.55-1.31-1.38-1.6-2.58-0.78
		c-0.38,0.26-0.83,0.51-1.27,0.04c-0.07-0.52,0.48-0.56,0.68-0.87c0.66-0.42,1.1-1.23,2.02-1.21c0.79,0.62,1.61,1.22,1.66,2.36
		C484.34,291.3,484.17,291.46,484,291.61z"/>
	<path style="fill-rule:evenodd;clip-rule:evenodd;fill:#872D7D;" d="M484.51,291.15c-0.58-0.74-1.16-1.48-1.73-2.22
		c0.32-0.82,0.87-1.28,1.79-1.18c0.43,0.91,0.69,1.86,0.63,2.88C485.05,290.92,484.82,291.09,484.51,291.15z"/>
	<path style="fill-rule:evenodd;clip-rule:evenodd;fill:#782772;" d="M475.84,293.77c1.03,1.58,0.35,3.07-0.24,4.56
		c-0.42,0.41-0.84,0.85-1.42,0.21c-0.02-0.07-0.03-0.14-0.04-0.21c-0.08-0.17-0.03-0.33,0.09-0.42c1.26-0.99,1.52-2.2,0.8-3.63
		C475.21,293.92,475.4,293.63,475.84,293.77z"/>
	<path style="fill-rule:evenodd;clip-rule:evenodd;fill:#DEA432;" d="M478.68,296.61c0.28,0.29,0.12,0.91,0.72,0.97
		c-0.63,0.49-1.25,0.97-1.88,1.46c-0.57,0.21-1.08,0.25-1.23-0.52C477.09,297.88,477.89,297.24,478.68,296.61z"/>
	<path style="fill-rule:evenodd;clip-rule:evenodd;fill:#DBA02A;" d="M485.2,292.59c-0.49,0.39-0.97,0.78-1.46,1.17
		c-0.48-0.25-0.49-0.6-0.24-1.02c0.97-0.62,1.52-1.88,2.91-1.85C486.47,291.78,485.6,292.01,485.2,292.59z"/>
	<path style="fill-rule:evenodd;clip-rule:evenodd;fill:#692665;" d="M485.2,290.64c-0.51-0.9-0.63-1.89-0.72-2.9
		c-0.11-0.26,0.07-0.35,0.25-0.43c0.07-0.01,0.15-0.02,0.22-0.04C485.91,288.17,486.04,289.91,485.2,290.64z"/>
	<path style="fill-rule:evenodd;clip-rule:evenodd;fill:#9F3F8A;" d="M478.01,296.41c-0.6-1.04-0.42-2.36-1.21-3.33
		c0.12-0.34,0.29-0.61,0.72-0.52c0.54,1.06,0.34,2.38,1.17,3.35C478.57,296.21,478.33,296.37,478.01,296.41z"/>
	<path style="fill-rule:evenodd;clip-rule:evenodd;fill:#CE9025;" d="M476.3,298.52c0.33,0.38,0.79,0.41,1.23,0.52
		c-0.7,0.61-1.3,1.69-2.36,0.47C475.39,299,475.85,298.76,476.3,298.52z"/>
	<path style="fill-rule:evenodd;clip-rule:evenodd;fill:#D9AC52;" d="M483.5,292.73c0.08,0.34,0.16,0.68,0.24,1.02
		c-0.24,0.23-0.49,0.46-0.73,0.69c-0.07-0.38-0.14-0.77-0.21-1.15C483.04,293.1,483.27,292.92,483.5,292.73z"/>
	<path style="fill-rule:evenodd;clip-rule:evenodd;fill:#D9AC52;" d="M482.81,293.29c-0.1,0.07-0.19,0.13-0.29,0.2
		C482.62,293.42,482.71,293.36,482.81,293.29z"/>
	<path style="fill-rule:evenodd;clip-rule:evenodd;fill:#B75997;" d="M479.21,298.34c0.95-0.81,1.91-1.62,2.86-2.43
		c0.08-0.07,0.17-0.14,0.26-0.21l0.01,0c0.52-0.03,0.77,0.22,0.74,0.74c-1.05,0.95-2.11,1.9-3.16,2.84
		c-0.08,0.07-0.16,0.14-0.25,0.21l-0.01,0.01c-0.06,0.1-0.14,0.16-0.25,0.21c-0.06,0.03-0.13,0.06-0.2,0.08
		c-0.37-0.23-0.62-0.51-0.47-0.98l-0.01,0c0.07-0.09,0.15-0.17,0.24-0.24l0,0C479.04,298.48,479.12,298.41,479.21,298.34z"/>
	<path style="fill-rule:evenodd;clip-rule:evenodd;fill:#EDCD85;" d="M480.63,299.32c1.04-0.91,2.07-1.83,3.11-2.74
		c0.73,0.28,0.52,0.74,0.24,1.22l0.03,0.07c-0.67,1.01-1.37,1.99-2.48,2.59c-0.1,0.05-0.21,0.09-0.32,0.12
		c-0.06,0-0.11,0.01-0.17,0.01c-0.51-0.17-0.76-0.49-0.62-1.05l0.02-0.02C480.48,299.44,480.55,299.38,480.63,299.32z"/>
	<path style="fill-rule:evenodd;clip-rule:evenodd;fill:#DCA12B;" d="M483.97,297.8c-0.01-0.42,0.14-0.87-0.24-1.22
		c1.15-1.01,2.21-2.13,3.61-2.82C486.99,295.75,485.23,296.57,483.97,297.8z"/>
	<path style="fill-rule:evenodd;clip-rule:evenodd;fill:#8D2D82;" d="M478.74,298.81c0.16,0.33,0.31,0.66,0.47,0.98
		c-0.58,0.63-1.05,1.38-1.93,1.66c-0.9-0.77-0.65-1.34,0.28-1.85C477.98,299.38,478.35,299.08,478.74,298.81z"/>
	<path style="fill-rule:evenodd;clip-rule:evenodd;fill:#8C2F81;" d="M483.27,294.91c0.65-0.62,1.29-1.24,1.94-1.85
		c0.64,0.01,0.76,0.42,0.72,0.95h0c-0.09,0.07-0.17,0.15-0.24,0.24l0,0c-0.1,0.07-0.17,0.16-0.24,0.24
		c-0.57,0.47-1.13,0.94-1.7,1.41C483.24,295.73,483.01,295.44,483.27,294.91z"/>
	<path style="fill-rule:evenodd;clip-rule:evenodd;fill:#E7B857;" d="M480.41,299.54c0.19,0.36,0.31,0.78,0.74,0.97
		c-0.18,0.98-0.83,1.51-1.74,1.78c-0.52-0.19-0.63-0.66-0.75-1.12C479.23,300.62,479.82,300.08,480.41,299.54z"/>
	<path style="fill-rule:evenodd;clip-rule:evenodd;fill:#6F276B;" d="M485.93,294c-0.24-0.32-0.48-0.63-0.72-0.95
		c0-0.08,0-0.15,0-0.23c0.15-0.05,0.3-0.1,0.45-0.16c0.33-0.13,0.58-0.71,1-0.25c0.42,0.46,0.14,0.88-0.26,1.23
		C486.25,293.77,486.08,293.88,485.93,294z"/>
	<path style="fill-rule:evenodd;clip-rule:evenodd;fill:#D59829;" d="M478.65,301.16c0.55,0.11,0.45,0.76,0.83,1
		c0.07,0.27-0.11,0.37-0.31,0.45c-0.24,0.08-0.47,0.17-0.71,0.25c-0.07-0.07-0.14-0.15-0.21-0.22
		C477.87,302.01,477.97,301.51,478.65,301.16z"/>
	<path style="fill-rule:evenodd;clip-rule:evenodd;fill:#A5478D;" d="M483.27,294.91c0.16,0.33,0.32,0.66,0.47,0.99
		c0,0,0,0.01,0,0.01c-0.06,0.08-0.14,0.16-0.22,0.22c-0.15,0.11-0.29,0.21-0.44,0.32c-0.25-0.25-0.49-0.5-0.74-0.74
		C482.51,295.28,482.95,295.16,483.27,294.91z"/>
	<path style="fill-rule:evenodd;clip-rule:evenodd;fill:#6F276B;" d="M485.44,294.49c0.08-0.08,0.16-0.16,0.24-0.24
		C485.61,294.33,485.52,294.41,485.44,294.49z"/>
	<path style="fill-rule:evenodd;clip-rule:evenodd;fill:#6F276B;" d="M485.69,294.25c0.08-0.08,0.16-0.16,0.24-0.24
		C485.85,294.08,485.77,294.17,485.69,294.25z"/>
	<path style="fill-rule:evenodd;clip-rule:evenodd;fill:#8C2F81;" d="M483.52,296.13c0.07-0.07,0.15-0.14,0.22-0.22
		C483.67,295.98,483.59,296.05,483.52,296.13z"/>
	<path style="fill-rule:evenodd;clip-rule:evenodd;fill:#8D2D82;" d="M479.67,299.5c0.08-0.07,0.17-0.14,0.25-0.21
		C479.83,299.36,479.75,299.43,479.67,299.5z"/>
	<path style="fill-rule:evenodd;clip-rule:evenodd;fill:#E7B857;" d="M480.63,299.32c-0.07,0.07-0.13,0.13-0.2,0.2
		C480.49,299.45,480.56,299.39,480.63,299.32z"/>
	<path style="fill-rule:evenodd;clip-rule:evenodd;fill:#8D2D82;" d="M479.41,299.72c0.08-0.07,0.16-0.14,0.25-0.21
		C479.58,299.58,479.49,299.65,479.41,299.72z"/>
	<path style="fill-rule:evenodd;clip-rule:evenodd;fill:#7B2F6F;" d="M478.43,257.48c-1.75-0.02-3.5-0.02-5.24,0.28
		c1.15-0.81,2.21-1.86,3.83-1.26c0.21,0.08,0.38,0,0.51-0.18C477.98,256.59,478.17,257.06,478.43,257.48z"/>
	<path style="fill-rule:evenodd;clip-rule:evenodd;fill:#A05789;" d="M479.67,256.81c-0.11-0.16-0.28-0.3-0.33-0.48
		c-0.14-0.51-1.06-1.03-0.64-1.29c0.59-0.36,1.32,0.26,1.75,0.82c0.25,0.32,0.32,0.78,0.47,1.18c-0.34,0.31-0.68,0.25-1.02,0.01
		l0.01,0C479.85,256.95,479.76,256.88,479.67,256.81z"/>
	<path style="fill-rule:evenodd;clip-rule:evenodd;fill:#D8A22F;" d="M477.08,254.86c0.67,0.04,2.29,1.71,2.28,2.33
		c0,0.27-0.18,0.41-0.35,0.2c-0.66-0.8-1.34-1.58-2.14-2.25C476.56,254.87,476.95,254.9,477.08,254.86z"/>
	<path style="fill-rule:evenodd;clip-rule:evenodd;fill:#CF9930;" d="M481.58,256.37c-0.06,0.65,1.2,1.08,0.3,1.86
		c-0.25-0.58-0.51-1.16-0.75-1.75c-0.07-0.17-0.06-0.36-0.08-0.54C481.24,256.07,481.41,256.22,481.58,256.37z"/>
	<path style="fill-rule:evenodd;clip-rule:evenodd;fill:#833675;" d="M479.9,257.05c0.34,0,0.68-0.01,1.02-0.01
		c0.23,0.29,0.31,0.58-0.15,0.67C480.28,257.81,479.97,257.57,479.9,257.05z"/>
	<path style="fill-rule:evenodd;clip-rule:evenodd;fill:#833675;" d="M479.67,256.81c0.08,0.08,0.16,0.16,0.24,0.24
		C479.83,256.97,479.75,256.89,479.67,256.81z"/>
	<path style="fill-rule:evenodd;clip-rule:evenodd;fill:#7B2F6F;" d="M477.52,256.31c-0.07-0.08-0.14-0.15-0.21-0.23
		C477.38,256.16,477.45,256.23,477.52,256.31z"/>
	<path style="fill-rule:evenodd;clip-rule:evenodd;fill:#DEA432;" d="M479.43,297.56c0.07-0.06,0.15-0.12,0.22-0.18
		C479.57,297.44,479.5,297.5,479.43,297.56z"/>
	<path style="fill-rule:evenodd;clip-rule:evenodd;fill:#A5478D;" d="M482.33,295.71c-0.09,0.07-0.17,0.14-0.26,0.21
		C482.15,295.84,482.24,295.77,482.33,295.71z"/>
	<path style="fill-rule:evenodd;clip-rule:evenodd;fill:#8D2D82;" d="M479.21,298.34c-0.08,0.08-0.15,0.15-0.23,0.23
		C479.05,298.5,479.13,298.42,479.21,298.34z"/>
	<path style="fill-rule:evenodd;clip-rule:evenodd;fill:#8D2D82;" d="M478.97,298.58c-0.08,0.08-0.16,0.16-0.24,0.24
		C478.82,298.73,478.89,298.65,478.97,298.58z"/>
	<path style="fill-rule:evenodd;clip-rule:evenodd;fill:#662663;" d="M475.13,294.27c1.19,1.53,0.95,2.52-0.98,4.05
		c-0.49-0.72-0.11-1.44,0-2.16c0-0.16,0.01-0.32,0.01-0.47l-0.01-0.11c0-0.08,0.03-0.15,0.06-0.21c0.04-0.06,0.09-0.12,0.16-0.16
		c0.18-0.32,0.35-0.63,0.53-0.95C474.99,294.18,475.06,294.18,475.13,294.27z"/>
	<path style="fill-rule:evenodd;clip-rule:evenodd;fill:#D5A02B;" d="M471.07,294.02c0.16-0.02,0.31-0.05,0.47-0.07
		c0.23-0.12,0.52,0,0.74-0.17c0.07,0.01,0.15,0,0.21-0.04c0.2-0.2,0.52,0,0.72-0.21l0,0c0.39-0.02,1.05-0.58,0.92,0.45
		c-1.27,0.29-2.55,0.58-3.82,0.89c-0.73,0.18-0.75-0.1-0.46-0.63C470.21,293.97,470.69,294.27,471.07,294.02z"/>
	<path style="fill-rule:evenodd;clip-rule:evenodd;fill:#4F3F45;" d="M475.13,294.27c-0.07-0.01-0.15-0.02-0.22-0.01
		c-0.09-0.09-0.18-0.17-0.26-0.26c1.04-0.72,2.08-1.44,3.12-2.16c0.32-0.23,0.65-0.47,0.97-0.7c0.06-0.02,0.13-0.04,0.2-0.04
		c0.24-0.08,0.28,0.04,0.25,0.24c-0.55,0.41-1.11,0.82-1.66,1.22c-0.24,0.17-0.48,0.35-0.72,0.52c-0.32,0.23-0.64,0.46-0.96,0.69
		C475.61,293.93,475.37,294.1,475.13,294.27z"/>
	<path style="fill-rule:evenodd;clip-rule:evenodd;fill:#7E2D79;" d="M472.71,295.43c-0.63,0.27-1.13,0.88-1.91,0.75
		c-0.2-0.31-0.56-0.45-0.75-0.77c0.73-0.16,1.46-0.31,2.2-0.47C472.62,294.9,472.8,295.04,472.71,295.43z"/>
	<path style="fill-rule:evenodd;clip-rule:evenodd;fill:#9C4087;" d="M470.05,295.41c0.4,0.11,1.21-0.18,0.75,0.77
		c-0.32,0.07-0.64,0.15-0.96,0.22c-0.19-0.24-0.42-0.46-0.53-0.75c0.01-0.07,0.03-0.13,0.05-0.2
		C469.59,295.43,469.82,295.42,470.05,295.41z"/>
	<path style="fill-rule:evenodd;clip-rule:evenodd;fill:#5A2258;" d="M472.71,295.43c-0.15-0.16-0.31-0.33-0.46-0.49
		c0.51-0.11,1.13-0.84,1.42,0.25C473.35,295.27,473.03,295.35,472.71,295.43z"/>
	<path style="fill-rule:evenodd;clip-rule:evenodd;fill:#4F3F45;" d="M474.13,293.98c0.03-0.85-0.63-0.28-0.92-0.45
		c0.55-0.49,1-0.26,1.4,0.21c0.01,0.08,0.03,0.17,0.04,0.25C474.47,293.99,474.3,293.98,474.13,293.98z"/>
	<path style="fill-rule:evenodd;clip-rule:evenodd;fill:#27312F;" d="M474.38,295.2c0,0.08,0,0.15-0.01,0.23
		c-0.07,0.09-0.14,0.17-0.21,0.25l0,0c-0.3-0.02-0.48-0.17-0.48-0.48C473.92,295.06,474.15,295.04,474.38,295.2z"/>
	<path style="fill-rule:evenodd;clip-rule:evenodd;fill:#4F474C;" d="M471.07,294.02c-0.36,0.33-0.82,0.12-1.23,0.22
		C470.19,293.84,470.65,294.05,471.07,294.02z"/>
	<path style="fill-rule:evenodd;clip-rule:evenodd;fill:#4F474C;" d="M470.54,293.75c0.2-0.22,0.46-0.22,0.73-0.2
		C471.08,293.8,470.81,293.76,470.54,293.75z"/>
	<path style="fill-rule:evenodd;clip-rule:evenodd;fill:#4F474C;" d="M473.2,293.53c-0.19,0.23-0.46,0.23-0.72,0.21
		c0-0.07,0-0.15,0-0.22C472.72,293.52,472.96,293.53,473.2,293.53z"/>
	<path style="fill-rule:evenodd;clip-rule:evenodd;fill:#4F474C;" d="M472.27,293.78c-0.25,0.06-0.49,0.11-0.74,0.17
		C471.74,293.72,472.01,293.76,472.27,293.78z"/>
	<path style="fill-rule:evenodd;clip-rule:evenodd;fill:#4F474C;" d="M472.48,293.3c0,0.07,0,0.15,0,0.22
		c-0.17-0.01-0.33-0.01-0.5-0.02C472.15,293.43,472.32,293.37,472.48,293.3z"/>
	<path style="fill-rule:evenodd;clip-rule:evenodd;fill:#303937;" d="M484.04,257.5c-0.05-0.06-0.06-0.13-0.04-0.21
		c0.04,0.01,0.09,0.03,0.13,0.05C484.15,257.41,484.12,257.47,484.04,257.5z"/>
	<path style="fill-rule:evenodd;clip-rule:evenodd;fill:#8A2E7F;" d="M471.99,300.24c-0.57,0.32-1.13,0.68-1.72,0.96
		c-0.55,0.26-1.18,0.6-1.58-0.25c0.42-0.68,0.84-1.34,1.7-1.55c0.45-0.11,0.73-0.46,0.8-0.94c0.06-0.38,0.25-0.66,0.56-0.87
		c0.18-0.27,0.46-0.2,0.72-0.22c0.24,0.91,0.28,1.8-0.22,2.64l-0.02,0.02C472.15,300.09,472.08,300.16,471.99,300.24L471.99,300.24z
		"/>
	<path style="fill-rule:evenodd;clip-rule:evenodd;fill:#52214E;" d="M472.25,300c0.04-0.88-0.21-1.79,0.22-2.64
		c0.73-0.56,1.04-0.38,0.96,0.53C473.37,298.78,473.78,299.93,472.25,300z"/>
	<path style="fill-rule:evenodd;clip-rule:evenodd;fill:#A1428C;" d="M471.76,297.58c0,2.05-2.01,2.27-3.06,3.37
		c-0.02-0.14-0.05-0.28-0.07-0.42c-0.15-0.93,0.24-1.54,1.14-1.76c0.59-0.15,0.95-0.52,1.27-0.98c0-0.06,0.01-0.12,0.02-0.18
		C471.28,297.6,471.52,297.59,471.76,297.58z"/>
	<path style="fill-rule:evenodd;clip-rule:evenodd;fill:#D6A22C;" d="M473.74,296.17c-0.1,0.08-0.2,0.17-0.3,0.26
		c-0.96,0.1-1.78,0.59-2.65,0.93c-0.91-0.12-1.72,0.82-2.67,0.24c1.61-0.88,3.49-0.93,5.14-1.68
		C473.46,295.83,473.66,295.94,473.74,296.17z"/>
	<path style="fill-rule:evenodd;clip-rule:evenodd;fill:#DAA329;" d="M469.82,302.6c-0.13-0.07-0.26-0.14-0.39-0.21
		c0.72-0.99,1.98-1.14,2.87-1.87c0.07,0.01,0.13-0.01,0.18-0.05c0.13-0.13,0.35-0.07,0.47-0.22c0.5,0.55-0.18,0.8-0.31,1.19
		C471.61,301.6,470.62,301.88,469.82,302.6z"/>
	<path style="fill-rule:evenodd;clip-rule:evenodd;fill:#4F4149;" d="M472.95,300.24c-0.16,0.07-0.31,0.15-0.47,0.22
		C472.64,300.39,472.8,300.31,472.95,300.24z"/>
	<path style="fill-rule:evenodd;clip-rule:evenodd;fill:#4F4149;" d="M472,300.23c0.08-0.07,0.16-0.14,0.24-0.21
		C472.16,300.09,472.08,300.16,472,300.23z"/>
	<path style="fill-rule:evenodd;clip-rule:evenodd;fill:#B55995;" d="M469.31,295.64c0.49,0.03,0.92,0.1,0.53,0.75
		c-0.38,0.1-0.76,0.57-1.15,0.01C468.9,296.15,469.1,295.9,469.31,295.64z"/>
	<path style="fill-rule:evenodd;clip-rule:evenodd;fill:#8A2A81;" d="M483.02,304.33c-0.06,0.07-0.11,0.13-0.17,0.2
		c-0.32,0.14-0.52,0.37-0.54,0.74c-1,1.08-1.48-0.14-2.15-0.49c-0.07-0.05-0.14-0.11-0.19-0.18c-0.25-0.49-0.5-0.98-0.75-1.46
		c0.08-0.08,0.16-0.17,0.24-0.25c0.09-0.25,0.27-0.39,0.53-0.43c0.33-0.03,0.61,0.15,0.91,0.24c0.67,0.21,1.25,0.07,1.68-0.53
		c0.82-1.17,1.77-2.26,1.9-3.78c0.02-0.19,0.13-0.37,0.26-0.53c0.48-0.48,0.97-0.96,1.45-1.44c0.07-0.08,0.15-0.16,0.23-0.23l0.01,0
		c0.08,0.82,1.78,0.93,0.95,2.16c0.06,0.06,0.08,0.11,0.05,0.16c-0.03,0.05-0.05,0.07-0.07,0.07c-0.07,0.07-0.15,0.14-0.22,0.21
		c-0.5,0.5-0.98,1-1.21,1.69c-0.38,0.22-0.66,0.51-0.75,0.96c-0.35,0.24-0.65,0.51-0.7,0.96c-0.3,0.16-0.48,0.39-0.48,0.74
		c-0.07,0.07-0.14,0.15-0.22,0.22C483.38,303.56,483.07,303.85,483.02,304.33z"/>
	<path style="fill-rule:evenodd;clip-rule:evenodd;fill:#A1428C;" d="M484.72,297.85c0.24,2.05-1.06,3.46-2.2,4.84
		c-0.74,0.89-1.75,0.32-2.63-0.06c-0.06-0.54,0.26-0.74,0.72-0.81c0.81,0.47,1.38,0.21,1.85-0.55c0.54-0.86,1.16-1.68,1.37-2.71
		c0.05-0.24,0.2-0.39,0.43-0.47C484.41,298.01,484.57,297.93,484.72,297.85z"/>
	<path style="fill-rule:evenodd;clip-rule:evenodd;fill:#59464E;" d="M484.26,298.09c-0.09,0.15-0.18,0.3-0.28,0.45
		c-0.83,1.41-2.02,2.46-3.38,3.33c-0.24,0.25-0.48,0.5-0.71,0.75c-0.15,0.08-0.3,0.17-0.44,0.25c-0.09-0.09-0.18-0.18-0.28-0.27
		c0.1-0.15,0.21-0.3,0.31-0.45c0.55-0.55,1.11-1.11,1.66-1.66h-0.02c0.07-0.11,0.16-0.2,0.3-0.23c0.86-0.8,1.72-1.6,2.58-2.4
		C484.09,297.95,484.17,298.02,484.26,298.09z"/>
	<path style="fill-rule:evenodd;clip-rule:evenodd;fill:#6E286A;" d="M486.41,296.17c-0.08,0.08-0.16,0.15-0.23,0.23
		C486.25,296.33,486.33,296.25,486.41,296.17z"/>
	<path style="fill-rule:evenodd;clip-rule:evenodd;fill:#3E2A3D;" d="M487.34,298.56c0-0.08,0.01-0.15,0.03-0.23
		c0.08,0.01,0.13,0.05,0.16,0.12C487.48,298.51,487.41,298.54,487.34,298.56z"/>
	<path style="fill-rule:evenodd;clip-rule:evenodd;fill:#B35594;" d="M471.03,297.79c0,0.51,0.11,1.23-0.61,1.2
		c-1.17-0.05-1.52,0.66-1.79,1.54c-0.32-0.5-0.65-1-0.97-1.49c0.09-0.16,0.18-0.31,0.28-0.47c0.13-0.16,0.35-0.11,0.5-0.23
		c0.07,0,0.14-0.01,0.21-0.04C469.43,298.13,470.23,297.96,471.03,297.79z"/>
	<path style="fill-rule:evenodd;clip-rule:evenodd;fill:#7C2B76;" d="M478.48,275.28c0.32,0.16,0.65,0.29,0.95,0.48
		c0.38,0.24,1.13,0.28,1.03,0.79c-0.09,0.47-0.79,0.4-1.26,0.44c-0.8-0.01-1.38-0.24-1.43-1.2
		C477.73,275.16,478.04,275.18,478.48,275.28z"/>
	<path style="fill-rule:evenodd;clip-rule:evenodd;fill:#913482;" d="M481.11,281.26c0.32-0.17,0.63-0.33,0.95-0.49
		c0.3,0.15,0.5,0.38,0.5,0.73l-0.01,0.01c-0.06,0.08-0.14,0.15-0.23,0.19c-0.32,0.19-0.64,0.38-0.96,0.58l0-0.1
		C481.06,281.94,481.05,281.61,481.11,281.26z"/>
	<path style="fill-rule:evenodd;clip-rule:evenodd;fill:#594A52;" d="M482.79,280.3c0.08-0.06,0.17-0.13,0.25-0.19
		C482.96,280.17,482.88,280.23,482.79,280.3z"/>
	<path style="fill-rule:evenodd;clip-rule:evenodd;fill:#752A72;" d="M482.31,281.71c0.08-0.06,0.15-0.13,0.23-0.19
		C482.47,281.58,482.39,281.64,482.31,281.71z"/>
	<path style="fill-rule:evenodd;clip-rule:evenodd;fill:#312E39;" d="M479.96,304.6c0.06,0.06,0.13,0.12,0.19,0.18
		c-0.05-0.01-0.1-0.04-0.15-0.07L479.96,304.6z"/>
	<path style="fill-rule:evenodd;clip-rule:evenodd;fill:#594A52;" d="M482.32,280.07c0.08-0.05,0.15-0.11,0.23-0.16
		C482.47,279.96,482.39,280.02,482.32,280.07z"/>
	<path style="fill-rule:evenodd;clip-rule:evenodd;fill:#59444D;" d="M468.43,298.34c-0.17,0.08-0.34,0.15-0.5,0.23
		C468.09,298.49,468.26,298.42,468.43,298.34z"/>
	<path style="fill-rule:evenodd;clip-rule:evenodd;fill:#B25895;" d="M484.96,268.8c0.09,0,0.19,0.01,0.28,0.01
		c-0.02,0.07-0.05,0.15-0.08,0.22c-0.07,0.01-0.13,0.01-0.2,0.02C484.96,268.96,484.96,268.88,484.96,268.8z"/>
	<path style="fill-rule:evenodd;clip-rule:evenodd;fill:#52474F;" d="M484.73,287.3c-0.08,0.15-0.17,0.29-0.25,0.43
		c-0.68,0.24-1.26,0.61-1.7,1.2c-0.75,0.23-1.26,0.82-1.9,1.23c-0.22,0.07-0.28-0.03-0.23-0.23c0.47-0.41,0.95-0.82,1.42-1.23
		c0.16-0.09,0.32-0.18,0.48-0.26c0.65-0.45,1.3-0.9,1.94-1.35C484.57,287.16,484.65,287.23,484.73,287.3z"/>
	<path style="fill-rule:evenodd;clip-rule:evenodd;fill:#AC4F90;" d="M481.11,281.26c0.35,0.24,0.23,0.6,0.25,0.92
		c-0.79,0.51-1.59,1.02-2.39,1.53c-0.35-0.26-0.23-0.63-0.23-0.97l-0.01-0.01c0.08-0.1,0.16-0.18,0.27-0.23
		C479.7,282.09,480.4,281.68,481.11,281.26z"/>
	<path style="fill-rule:evenodd;clip-rule:evenodd;fill:#6B2867;" d="M479,282.5c-0.09,0.08-0.18,0.15-0.27,0.23
		C478.82,282.66,478.91,282.58,479,282.5z"/>
	<path style="fill-rule:evenodd;clip-rule:evenodd;fill:#852C7C;" d="M480.36,270.27c-0.06,0.05-0.13,0.1-0.19,0.15
		C480.24,270.37,480.3,270.32,480.36,270.27z"/>
	<path style="fill-rule:evenodd;clip-rule:evenodd;fill:#6F525D;" d="M480.64,289.94c0.08,0.08,0.16,0.15,0.23,0.23
		c-0.24,0.24-0.49,0.47-0.73,0.71c-0.07,0.01-0.15,0.02-0.22,0.03c-0.09,0.06-0.18,0.13-0.26,0.22c-0.16,0.07-0.33,0.14-0.49,0.21
		c-0.08-0.08-0.16-0.16-0.25-0.24C479.5,290.71,480.07,290.32,480.64,289.94z"/>
	<path style="fill-rule:evenodd;clip-rule:evenodd;fill:#A2428C;" d="M479.67,291.12c0.09-0.07,0.17-0.15,0.26-0.22
		C479.84,290.97,479.76,291.05,479.67,291.12z"/>
	<path style="fill-rule:evenodd;clip-rule:evenodd;fill:#E7B857;" d="M481.43,300.27c-0.1,0.08-0.2,0.16-0.3,0.23
		C481.23,300.43,481.33,300.35,481.43,300.27z"/>
	<path style="fill-rule:evenodd;clip-rule:evenodd;fill:#3F3C41;" d="M474.17,295.68c0.07-0.08,0.14-0.17,0.21-0.25
		C474.31,295.52,474.24,295.6,474.17,295.68z"/>
	<path style="fill-rule:evenodd;clip-rule:evenodd;fill:#B55696;" d="M480.6,301.87c1.13-1.11,2.25-2.22,3.38-3.33
		c-0.01,1.64-1.05,2.74-2.08,3.79C481.35,302.9,480.9,302.41,480.6,301.87z"/>
</g>
</svg>
