<?xml version="1.0" encoding="utf-8"?>
<!-- Generator: Adobe Illustrator 16.0.0, SVG Export Plug-In . SVG Version: 6.00 Build 0)  -->
<!DOCTYPE svg PUBLIC "-//W3C//DTD SVG 1.0//EN" "http://www.w3.org/TR/2001/REC-SVG-20010904/DTD/svg10.dtd" [
	<!ENTITY ns_flows "http://ns.adobe.com/Flows/1.0/">
	<!ENTITY ns_extend "http://ns.adobe.com/Extensibility/1.0/">
	<!ENTITY ns_ai "http://ns.adobe.com/AdobeIllustrator/10.0/">
	<!ENTITY ns_graphs "http://ns.adobe.com/Graphs/1.0/">
]>
<svg version="1.0" id="Layer_1" xmlns:x="&ns_extend;" xmlns:i="&ns_ai;" xmlns:graph="&ns_graphs;"
	 xmlns="http://www.w3.org/2000/svg" xmlns:xlink="http://www.w3.org/1999/xlink" xmlns:a="http://ns.adobe.com/AdobeSVGViewerExtensions/3.0/"
	 x="0px" y="0px" width="960px" height="560px" viewBox="0 0 960 560" style="enable-background:new 0 0 960 560;"
	 xml:space="preserve">
<g>
	<path style="fill-rule:evenodd;clip-rule:evenodd;fill:#36322E;" d="M481.4,304.04c1.77-0.19,3.53-0.56,5.31-0.24
		c0.65,0.12,1.14-0.31,1.74-0.29c1.65,0.08,3.56-0.23,4.88,0.25c1.48,0.54,3.58-0.03,4.58,1.83c0.13,0.23,0.83,0.11,1.23,0.25
		c0.75,0.26,2.04,0,1.61,1.53c-0.01,0.05,0.11,0.18,0.18,0.21c0.82,0.25,1.72,0.48,1.56,1.59c-0.14,1.02-1.23,0.83-1.85,1.24
		c0.1,0.25-0.03,0.34-0.24,0.39c-0.73-0.36-0.79-0.76-0.07-1.2c0.18-0.08,0.38-0.11,0.57-0.18c0.27-0.09,0.57-0.18,0.53-0.54
		c-0.03-0.31-0.29-0.46-0.56-0.56c-0.3-0.12-0.63-0.11-0.94-0.19c-0.53-0.14-1.06-0.29-0.57-1.04c0.34-0.51-0.15-0.55-0.42-0.55
		c-1.03,0-1.92-0.13-2.58-1.12c-0.31-0.46-1.02-0.32-1.59-0.24c-0.6,0.09-1.13,0.14-1.56-0.52c-0.42-0.65-1.09-0.16-1.65-0.09
		c-0.77,0.09-1.39,0.88-2.26,0.47c-0.11-0.62-0.38-0.96-1.09-0.7c-0.78,0.29-1.56,0.43-2.39,0.09c-0.44-0.18-0.92,0.06-1.35,0.27
		c-0.63,0.34-1.25,0.75-1.93,0.05c-0.27-0.27-0.69-0.08-1.04-0.16c-0.11-0.04-0.18-0.12-0.22-0.24
		C481.28,304.22,481.32,304.13,481.4,304.04z"/>
	<path style="fill-rule:evenodd;clip-rule:evenodd;fill:#3F3633;" d="M484.07,282.46c-1.12,6.25-2.23,12.5-3.35,18.76
		c-0.53-0.39-0.3-1.04-0.54-1.54c-0.13-1.63,0.6-3.11,0.83-4.67c0.58-3.94,1.11-7.89,1.98-11.78c0.18-0.8,0.17-1.68,0.84-2.31
		C484.43,281.35,484.09,281.93,484.07,282.46z"/>
	<path style="fill-rule:evenodd;clip-rule:evenodd;fill:#493E3B;" d="M484.48,271.02c-0.04-0.06-0.03-0.1,0.03-0.14
		c0.25-0.22,0.07-0.55,0.22-0.79c1.07-5.75,1.66-11.59,3.35-17.22c0.05-0.18,0.17-0.35,0.26-0.52c0.21,0.05,0.35,0.19,0.42,0.39
		c0.11,0.53-0.01,1.04-0.16,1.53c-0.88,2.84-1.26,5.77-1.71,8.69c-0.42,2.68-1.01,5.33-1.61,7.98c-0.04,0.2-0.11,0.38-0.2,0.56
		c-0.09,0.18-0.21,0.34-0.42,0.39C484.25,271.67,484.43,271.33,484.48,271.02z"/>
	<path style="fill-rule:evenodd;clip-rule:evenodd;fill:#292620;" d="M481.4,304.27c0,0.06,0,0.11,0,0.17
		c0.01,0.15-0.05,0.27-0.13,0.38c-0.05,0.07-0.1,0.14-0.15,0.21c-0.05,0.12-0.04,0.22,0.08,0.31c0.09,0.02,0.17,0.05,0.25,0.07
		c0.15,0.02,0.29,0.05,0.43,0.1c0.2,0.11,0.38,0.23,0.25,0.5c-0.49,0.27-0.57,0.65-0.5,1.2c0.11,0.84-0.16,1.51-1.18,1.54
		c-0.17-0.06-0.29-0.17-0.3-0.36c0.2-0.46,0.58-0.92,0.06-1.41c-0.52-0.49-1.13-0.71-1.86-0.58c-0.61,0.12-1.15,0.6-1.84,0.35
		c-0.42-0.3-0.9-0.23-1.38-0.2c-1.27-0.04-2.54,0.15-3.79-0.13c-0.12-0.05-0.21-0.12-0.29-0.22c0.12-0.78,0.76-0.54,1.2-0.56
		c1.44-0.07,2.89-0.27,4.34-0.13c0.11,0.01,0.23-0.04,0.34-0.07c-0.1-0.06-0.19,0-0.28,0.02c-0.8,0.17-1.07-0.29-1.15-0.97
		c0.02-0.12,0.08-0.21,0.17-0.29c0.89,0.49,1.84,0.18,2.77,0.25c0.4-0.15,0.48,0.19,0.64,0.41c0.29,0.42,0.58,0.5,0.85-0.01
		c0.16-0.31,0.28-0.64,0.66-0.76C480.87,304.07,481.16,304.05,481.4,304.27z"/>
	<path style="fill-rule:evenodd;clip-rule:evenodd;fill:#473B37;" d="M479.99,295.61c0.89-4.86,0.8-9.85,2.15-14.64
		c0.51,0.04,0.48,0.45,0.54,0.79c-0.84,4.51-0.91,9.12-1.82,13.63c-0.09,0.42-0.05,0.89-0.45,1.19
		C479.69,296.5,480.3,295.85,479.99,295.61z"/>
	<path style="fill-rule:evenodd;clip-rule:evenodd;fill:#3B3532;" d="M479.99,295.61c0.31,0.28,0.16,0.67,0.23,1
		c0.13,0.13,0.15,0.29,0.14,0.46c-0.05,0.27-0.09,0.54-0.09,0.81c-0.01,0.28-0.03,0.55-0.1,0.82c-0.14,0.36-0.13,0.75-0.16,1.13
		c-0.01,0.16-0.04,0.31-0.08,0.47c-0.06,0.22-0.13,0.42-0.15,0.63c0,0.05,0.01,0.12,0.05,0.17c0.04-0.06,0.07-0.12,0.07-0.2
		c0.1-0.46,0.11-0.95,0.57-1.22c0.36,0.47,0.1,1.03,0.24,1.54c0,0.08-0.01,0.17-0.01,0.25c0.11,0.27,0,0.6,0.2,0.85
		c0.06,0.05,0.07,0.11,0.02,0.17c0.12,0.35,0.15,0.7-0.01,1.05l0,0c-0.44,0.13-0.47-0.35-0.73-0.48c-0.88-0.15-0.77,0.53-0.89,1.03
		c-0.1,0.4,0.19,1.02-0.57,1.08c0-0.29,0.01-0.58-0.32-0.73c0.29-0.93-0.12-2,0.6-2.83c0.22-0.41,0-0.88,0.18-1.3
		c0.02-0.13,0.05-0.25,0.07-0.38c0.21-0.49-0.03-1.03,0.17-1.52c-0.05-0.06-0.04-0.12,0.03-0.16c0.26-0.3,0.01-0.7,0.22-1.01
		c0.02-0.14,0.04-0.29,0.06-0.43c0.15-0.23,0.02-0.53,0.18-0.77C479.96,295.89,479.97,295.75,479.99,295.61z"/>
	<path style="fill-rule:evenodd;clip-rule:evenodd;fill:#574844;" d="M484.07,282.46c-0.13-0.49,0.13-1.04-0.22-1.49
		c-0.36-0.33-0.22-0.73-0.15-1.11c0.47-2.57,0.92-5.14,1.4-7.71c0.09-0.5,0.13-1.04,0.66-1.32c0.5,0.19,0.28,0.56,0.23,0.89
		C485.36,275.3,484.71,278.88,484.07,282.46z"/>
	<path style="fill-rule:evenodd;clip-rule:evenodd;fill:#3D3430;" d="M488.55,252.63c-0.07-0.1-0.14-0.19-0.21-0.29
		c-0.18-1.83,0.77-3.49,0.78-5.3c0-0.5,0.5-0.71,0.99-0.65c0.57,0.07,1.01,0.35,0.97,1c-0.07,0.95-0.21,1.89-0.32,2.83
		c-0.34,0.05-0.4-0.21-0.49-0.43c-0.16-0.61,0.04-1.26-0.16-1.87c-0.38,0.57-0.33,1.26-0.55,1.87
		C489.2,250.75,489.48,251.9,488.55,252.63z"/>
	<path style="fill-rule:evenodd;clip-rule:evenodd;fill:#413A36;" d="M461.72,305.21c0.28-0.26,0.64-0.38,0.99-0.32
		c1.1,0.18,2.1-0.56,3-0.57c1.81-0.03,3.41-1.03,5.2-0.84c-0.06,0.17-0.15,0.31-0.29,0.41c-0.7,0.26-1.43,0.46-2.04,0.9
		c-0.61,0.45-1.19,0.71-1.92,0.21c-0.41-0.29-0.83,0-1.19,0.27c-0.37,0.28-0.66,0.7-1.17,0.76c-0.17,0.01-0.32-0.05-0.47-0.14
		c-0.13-0.08-0.26-0.17-0.4-0.25c-0.5-0.27-1.02,0.11-1.52-0.05C461.77,305.51,461.65,305.41,461.72,305.21z"/>
	<path style="fill-rule:evenodd;clip-rule:evenodd;fill:#4A3F3A;" d="M467.54,314.83c-1.47,0.46-2.9,0.52-4.08-0.66
		c-0.41-0.42-0.74-0.09-1.08-0.06c-1.79,0.16-2.19-0.13-2.42-1.9c0.02-0.27,0.11-0.49,0.39-0.59c0.52,0.19,0.45,0.67,0.52,1.07
		c0.13,0.86,0.79,0.69,1.3,0.58c0.84-0.17,1.51-0.1,2.16,0.58c0.62,0.65,1.51,0.64,2.37,0.48c0.18-0.01,0.36,0.01,0.52,0.08
		C467.39,314.51,467.51,314.64,467.54,314.83z"/>
	<path style="fill-rule:evenodd;clip-rule:evenodd;fill:#4F423B;" d="M482.39,281.73c-0.08-0.25-0.17-0.51-0.25-0.76
		c0.29-2.2,0.91-4.33,1.46-6.47c0.49,0.04,0.45,0.44,0.53,0.76c-0.24,2-0.81,3.94-1.23,5.91
		C482.84,281.43,482.73,281.69,482.39,281.73z"/>
	<path style="fill-rule:evenodd;clip-rule:evenodd;fill:#463D38;" d="M475.69,314.82c-2.42-0.07-4.88,0.96-7.25-0.28
		c-0.09-0.09-0.13-0.2-0.12-0.33c0.14-0.41,0.4-0.59,0.83-0.48c0.31,0.17,0.49,0.51,0.84,0.63c1.41,0.19,2.77-0.57,4.19-0.18
		c0.37,0.1,0.78,0.02,1.15,0.18C475.52,314.48,475.64,314.62,475.69,314.82z"/>
	<path style="fill-rule:evenodd;clip-rule:evenodd;fill:#5C4B44;" d="M488.57,260.31c-0.24,2.06-0.95,4-1.44,6
		c-0.37,0.01-0.42-0.27-0.5-0.52c0.13-2.17,0.75-4.21,1.55-6.22C488.69,259.61,488.34,260.12,488.57,260.31z"/>
	<path style="fill-rule:evenodd;clip-rule:evenodd;fill:#35302B;" d="M470.56,303.82c0.12-0.11,0.24-0.23,0.36-0.34
		c0.17,0.08,0.4,0.29,0.5,0.24c1.53-0.83,2.82,0.35,4.24,0.46c0,0.1-0.01,0.2-0.01,0.3c-0.94,0.31-1.88,0.98-2.76-0.14
		c-0.19-0.25-0.52-0.11-0.78-0.03c-0.38,0.11-0.72,0.33-1.09,0.47c-0.34,0.13-0.74,0.25-0.94-0.17
		C469.86,304.17,470.23,303.98,470.56,303.82z"/>
	<path style="fill-rule:evenodd;clip-rule:evenodd;fill:#524640;" d="M495.78,313.6c-0.65,1.07-1.64,0.83-2.54,0.56
		c-0.88-0.26-1.65-0.79-2.48,0.2c-0.27,0.32-0.96,0.28-1.46,0.4c-0.16-0.14-0.47-0.01-0.53-0.31c0.42-0.72,1.5-0.26,1.89-1.06
		c0.09-0.15,0.19-0.29,0.33-0.4c0.22-0.13,0.45-0.16,0.7-0.13c0.12,0.01,0.24,0.04,0.35,0.08c1.07,0.68,2.24,0.56,3.42,0.47
		C495.59,313.46,495.69,313.52,495.78,313.6z"/>
	<path style="fill-rule:evenodd;clip-rule:evenodd;fill:#624F47;" d="M486.85,265.74c0.09,0.19,0.18,0.38,0.27,0.57
		c-0.38,1.8-0.75,3.6-1.13,5.41c-0.08-0.28-0.16-0.56-0.24-0.83c-0.55-0.89-0.04-1.76,0.14-2.6
		C486.09,267.41,486.04,266.4,486.85,265.74z"/>
	<path style="fill-rule:evenodd;clip-rule:evenodd;fill:#5C4B44;" d="M488.57,260.31c-0.09-0.27-0.17-0.53-0.26-0.8
		c-0.32-0.4-0.23-0.85-0.1-1.26c0.39-1.32,0.19-2.8,1.13-3.96c0.24-0.07,0.37,0.06,0.45,0.26
		C489.38,256.47,488.98,258.39,488.57,260.31z"/>
	<path style="fill-rule:evenodd;clip-rule:evenodd;fill:#5B4943;" d="M489.79,254.56c-0.09-0.1-0.17-0.2-0.26-0.3
		c-0.31-0.32-0.32-0.72-0.24-1.1c0.21-1,0.51-1.98,0.73-2.98c0.05-0.23,0.19-0.43,0.46-0.47c0.09,0.18,0.18,0.35,0.27,0.53
		C490.66,251.73,490.24,253.15,489.79,254.56z"/>
	<path style="fill-rule:evenodd;clip-rule:evenodd;fill:#4F443E;" d="M479.97,314.76c-1.29-0.17-2.57-0.63-3.85,0
		c-0.15-0.07-0.31-0.13-0.32-0.33c0.03-0.11,0.09-0.2,0.18-0.27c0.3-0.16,0.63-0.25,0.91-0.44c0.21-0.13,0.45-0.28,0.67-0.2
		c1.09,0.4,2.28,0.31,3.35,0.74C480.91,315.02,480.22,314.48,479.97,314.76z"/>
	<path style="fill-rule:evenodd;clip-rule:evenodd;fill:#47403D;" d="M495.78,313.6c-0.11-0.01-0.22-0.03-0.33-0.04
		c-0.62-0.9-0.61-0.94,0.43-1.24c0.44-0.03,0.88-0.03,1.32-0.02c0.81,0.08,1.55-0.56,2.39-0.25c0.12,0.09,0.14,0.2,0.06,0.32
		c-0.84,0.55-1.81,0.63-2.78,0.68C496.41,313.08,495.91,312.95,495.78,313.6z"/>
	<path style="fill-rule:evenodd;clip-rule:evenodd;fill:#615049;" d="M483.84,275.25c-0.08-0.25-0.17-0.51-0.25-0.76
		c0.27-1.16,0.38-2.37,0.88-3.47c0.08,0.27,0.16,0.54,0.24,0.81C484.96,273.11,484.8,274.28,483.84,275.25z"/>
	<path style="fill-rule:evenodd;clip-rule:evenodd;fill:#48403B;" d="M487.88,314.75c-0.09,0-0.18,0.01-0.27,0.01
		c-0.14-0.09-0.31-0.09-0.46-0.13c-1.51-0.19-3.04,0.32-4.55-0.12c-0.06-0.14-0.03-0.25,0.1-0.33c0.9-0.42,1.9-0.04,2.81-0.36
		c0.93-0.3,1.71,0.04,2.44,0.58C487.99,314.53,487.97,314.64,487.88,314.75z"/>
	<path style="fill-rule:evenodd;clip-rule:evenodd;fill:#584E4A;" d="M457.89,310.2c-0.72-0.45-0.52-1-0.07-1.45
		c0.52-0.52,1.14-0.94,1.72-1.41c0.17,0.04,0.27,0.14,0.33,0.3c-0.09,0.51-0.6,0.68-0.87,1.05c-0.06,0.08-0.14,0.15-0.2,0.22
		c-0.03,0.04-0.07,0.07-0.1,0.11c-0.26,0.25-0.35,0.59-0.45,0.91C458.18,310.09,458.05,310.16,457.89,310.2z"/>
	<path style="fill-rule:evenodd;clip-rule:evenodd;fill:#4D413B;" d="M482.62,314.26c0,0.08-0.01,0.17-0.02,0.25
		c-0.89-0.03-1.72,0.57-2.63,0.25c0.32-0.13,0.64-0.27,0.95-0.4c0.15-0.57,0.39-1.03,1.11-0.93
		C482.4,313.58,482.65,313.81,482.62,314.26z"/>
	<path style="fill-rule:evenodd;clip-rule:evenodd;fill:#2E2C27;" d="M460.3,311.64c-0.11,0.19-0.22,0.38-0.33,0.57
		c-0.54-0.06-1.15,0.28-1.61-0.28c-0.07-0.08-0.14-0.16-0.19-0.25c-0.07-0.04-0.09-0.09-0.08-0.17c-0.1-0.27-0.13-0.54,0.03-0.8l0,0
		c0.09-0.08,0.19-0.09,0.3-0.03c0.35,0.53,0.73,0.99,1.48,0.73C460.06,311.34,460.27,311.37,460.3,311.64z"/>
	<path style="fill-rule:evenodd;clip-rule:evenodd;fill:#38322D;" d="M459.85,307.64c-0.1-0.1-0.2-0.2-0.3-0.3
		c-0.14-0.91,0.66-0.97,1.17-1.3c0.11,0.08,0.19,0.18,0.22,0.31C460.86,307.01,460.75,307.66,459.85,307.64z"/>
	<path style="fill-rule:evenodd;clip-rule:evenodd;fill:#5B4D46;" d="M499.64,312.38c0-0.1-0.01-0.21-0.01-0.31
		c-0.05-0.3,0.13-0.51,0.26-0.74c0.16-0.21,0.23-0.49,0.5-0.61c0.09-0.1,0.18-0.2,0.26-0.31
		C501.14,311.49,500.36,311.91,499.64,312.38z"/>
	<path style="fill-rule:evenodd;clip-rule:evenodd;fill:#48413E;" d="M480.5,302.79c0.15,0.25,0.29,0.49,0.44,0.74
		c0.02,0.29,0.12,0.52,0.47,0.51c0,0.08,0,0.15-0.01,0.23c-0.31-0.01-0.62-0.02-0.93-0.02C480.03,303.75,480.01,303.27,480.5,302.79
		z"/>
	<path style="fill-rule:evenodd;clip-rule:evenodd;fill:#2D2822;" d="M457.89,310.2c0.1-0.09,0.19-0.18,0.29-0.26
		c0.33-0.37,0.81-0.6,1.1-0.13c0.25,0.41-0.2,0.69-0.6,0.83c-0.2,0.01-0.38-0.03-0.53-0.16
		C458.06,310.38,457.98,310.29,457.89,310.2z"/>
	<path style="fill-rule:evenodd;clip-rule:evenodd;fill:#564A47;" d="M460.78,306.44c-0.02-0.13-0.04-0.27-0.07-0.4
		c0.17-0.47,0.61-0.63,1.01-0.82c0.08,0.08,0.17,0.16,0.25,0.23c0.07,0.17-0.02,0.3-0.13,0.42
		C461.53,306.12,461.28,306.51,460.78,306.44z"/>
	<path style="fill-rule:evenodd;clip-rule:evenodd;fill:#3B3431;" d="M468.41,314.21c0.01,0.11,0.02,0.22,0.03,0.33
		c-0.25,0.26-0.56,0.3-0.9,0.29c-0.1-0.08-0.2-0.15-0.3-0.23c0.08-0.25,0.27-0.36,0.49-0.46
		C467.97,314.08,468.2,314.08,468.41,314.21z"/>
	<path style="fill-rule:evenodd;clip-rule:evenodd;fill:#473B37;" d="M479.45,298.39c-0.01,0.51,0.2,1.05-0.17,1.52
		C479.28,299.4,479.17,298.87,479.45,298.39z"/>
	<path style="fill-rule:evenodd;clip-rule:evenodd;fill:#3D3532;" d="M487.88,314.75c0-0.07,0-0.14,0-0.22
		c0.3-0.26,0.61-0.25,0.91,0c0.17,0.08,0.34,0.16,0.51,0.23C488.83,314.76,488.36,314.75,487.88,314.75z"/>
	<path style="fill-rule:evenodd;clip-rule:evenodd;fill:#473B37;" d="M479.2,300.29c0,0.44,0.19,0.91-0.18,1.3
		C479.05,301.16,478.84,300.68,479.2,300.29z"/>
	<path style="fill-rule:evenodd;clip-rule:evenodd;fill:#48413E;" d="M480.93,303.54c0-0.35,0.01-0.7,0.01-1.05
		C481.15,302.84,481.25,303.19,480.93,303.54z"/>
	<path style="fill-rule:evenodd;clip-rule:evenodd;fill:#473B37;" d="M479.69,297.23c0.02,0.36,0.13,0.73-0.22,1.01
		C479.55,297.9,479.62,297.56,479.69,297.23z"/>
	<path style="fill-rule:evenodd;clip-rule:evenodd;fill:#48413E;" d="M480.92,302.32c-0.3-0.23-0.23-0.54-0.2-0.85
		C480.79,301.75,480.85,302.04,480.92,302.32z"/>
	<path style="fill-rule:evenodd;clip-rule:evenodd;fill:#4D4340;" d="M458.11,310.71c-0.01,0.27-0.02,0.54-0.03,0.8
		C457.81,311.23,457.75,310.96,458.11,310.71z"/>
	<path style="fill-rule:evenodd;clip-rule:evenodd;fill:#473B37;" d="M479.94,296.03c0.02,0.28,0.07,0.55-0.18,0.77
		C479.72,296.51,479.7,296.24,479.94,296.03z"/>
	<path style="fill-rule:evenodd;clip-rule:evenodd;fill:#423734;" d="M475.83,314.53c0.1,0.08,0.19,0.16,0.29,0.23
		c-0.14,0.02-0.28,0.04-0.43,0.06c-0.09-0.07-0.19-0.14-0.28-0.22C475.52,314.44,475.66,314.42,475.83,314.53z"/>
	<path style="fill-rule:evenodd;clip-rule:evenodd;fill:#615049;" d="M484.72,270.09c0.03,0.29,0.08,0.59-0.22,0.79
		C484.47,270.59,484.47,270.3,484.72,270.09z"/>
	<path style="fill-rule:evenodd;clip-rule:evenodd;fill:#4D4340;" d="M458.14,310.47c0.15,0,0.31,0,0.46,0.01
		c0.07,0.18-0.02,0.24-0.18,0.25c-0.11-0.01-0.21-0.01-0.32-0.02C458.12,310.63,458.13,310.55,458.14,310.47z"/>
	<path style="fill-rule:evenodd;clip-rule:evenodd;fill:#B7956D;" d="M487.15,314.63c0.16,0.04,0.31,0.09,0.47,0.13
		C487.46,314.72,487.31,314.67,487.15,314.63z"/>
	<path style="fill-rule:evenodd;clip-rule:evenodd;fill:#4D4340;" d="M458.17,311.68c0.06,0.08,0.13,0.17,0.19,0.25
		C458.29,311.84,458.23,311.76,458.17,311.68z"/>
	<path style="fill-rule:evenodd;clip-rule:evenodd;fill:#E3C17D;" d="M489.38,304.86c1.11,0.06,1.98-0.87,3.05-0.8
		c0.36,0.02,1.44-0.81,1.19,0.68c-0.07,0.42,0.71,0.16,1.1,0.15c1-0.03,2.22-0.59,2.41,1.14c0.04,0.35,0.46,0.19,0.72,0.18
		c0.59-0.02,1.19-0.19,1.76,0.08c0.24,0.11,0.57,0.27,0.63,0.48c0.11,0.39-0.33,0.33-0.55,0.45c-0.13,0.07-0.24,0.19-0.36,0.28
		c0.15,0.1,0.28,0.24,0.44,0.3c0.18,0.06,0.39,0.05,0.59,0.06c0.75,0.05,1.57,0.17,1.59,1.08c0.02,0.98-0.88,0.8-1.53,0.87
		c-1.42-0.19-2.73,0.06-3.95,0.88c-0.45,0.31-1.02,0.5-1.5-0.07c-0.05-0.12-0.06-0.25-0.05-0.38c0.03-0.19,0.09-0.38,0.18-0.55
		c0.37-0.61,0.69-1.25,0.93-1.92c0.26-0.73,0.17-1.2-0.78-1.29c-2.56-0.24-5.12-0.59-7.7-0.49c-0.83,0.03-1.66-0.04-2.37-0.58
		c-0.02-0.15,0.03-0.27,0.15-0.36C486.67,304.64,488.02,304.83,489.38,304.86z"/>
	<path style="fill-rule:evenodd;clip-rule:evenodd;fill:#CCAA75;" d="M495.05,310.43c0.65,0.65,1.14,0.07,1.65-0.24
		c1.19-0.72,2.39-1.19,3.73-0.38c-0.52,0.28-0.4,0.59-0.04,0.91c-0.08,0.25-0.17,0.49-0.25,0.74c-1.59-0.95-1.78-0.69-2.9,1.14
		c-0.48,0-0.96-0.01-1.44-0.02c-1.25,0.39-2.66-0.15-3.85,0.63c-0.08-0.04-0.15-0.07-0.22-0.1c-0.25-0.12-0.5-0.2-0.7,0.08
		c-0.02,0.13-0.03,0.27-0.05,0.4c-1.61-0.28-3.2-0.14-4.79,0.14c-0.21,0.04-0.34,0.18-0.47,0.33c-1,0.5-2.06,0.13-3.09,0.2
		c-0.16-0.22-0.33-0.45-0.49-0.67c-0.02-0.68,0.5-0.73,0.96-0.79c1.54-0.19,3-0.7,4.51-1.05c1.32-0.31,2.67-0.26,4.01-0.02
		c0.04,0.01,0.08,0.07,0.1,0.06c0.08-0.06,0.07-0.12-0.04-0.18c0.07-0.23,0.23-0.39,0.43-0.39
		C493.15,311.21,494.07,310.71,495.05,310.43z"/>
	<path style="fill-rule:evenodd;clip-rule:evenodd;fill:#D1B077;" d="M489.38,304.86c-1.33,0.72-2.76,0.15-4.13,0.34
		c-0.62,0.15-1.07,0.06-0.98-0.73c0.77-0.42,1.42-0.73,2.35-0.08c0.39,0.27,1.37-0.28,2.08-0.47c0.35-0.09,0.75-0.27,1,0.03
		C490,304.32,489.34,304.5,489.38,304.86z"/>
	<path style="fill-rule:evenodd;clip-rule:evenodd;fill:#E1C17F;" d="M484.26,304.47c0.16,0.47,0.6,0.56,0.98,0.73
		c0,0.07,0,0.13,0,0.2c-0.11,0.17-0.28,0.21-0.46,0.21c-0.47-0.11-0.92-0.07-1.38,0.08c-0.6,0.26-1.19-0.27-1.79-0.03
		c-0.15-0.01-0.3-0.02-0.45-0.03c-0.28-0.32-0.24-0.65,0-0.97c0.08-0.08,0.15-0.15,0.23-0.23c0.58,0.04,1.42-0.98,1.7,0.5
		C483.15,305.24,483.81,304.54,484.26,304.47z"/>
	<path style="fill-rule:evenodd;clip-rule:evenodd;fill:#E2A761;" d="M483.84,275.25c0.29-1.14,0.58-2.28,0.87-3.42
		c0.03-0.13,0.06-0.27,0.09-0.4c0.01-0.12,0.1-0.2,0.14-0.31c1.42-6.12,2-12.41,3.61-18.49c0.38-1.66,0.75-3.33,1.15-4.99
		c0.07-0.27-0.02-0.74,0.45-0.71c0.45,0.02,0.37,0.44,0.37,0.75c0,0.68-0.02,1.35-0.04,2.03c-0.32,1.52-0.63,3.03-0.95,4.55
		c-0.69,1.69-0.84,3.5-1.22,5.25c-0.49,2.08-0.97,4.15-1.46,6.23c-0.37,1.71-0.73,3.43-1.1,5.14c-0.64,3.36-1.27,6.72-1.91,10.08
		c-1.13,4.95-1.84,9.98-2.65,14.99c-0.2,1.25-0.78,2.43-0.71,3.73c-0.1,0.56-0.19,1.11-0.29,1.67c-0.27,0.38-0.51,0.45-0.68-0.08
		l0-0.08c0.14-0.24,0.03-0.54,0.18-0.78c0.02-0.14,0.04-0.29,0.05-0.43c0.23-0.39-0.02-0.85,0.19-1.25c0.02-0.3,0.04-0.59,0.06-0.89
		c0.14-0.25,0.02-0.56,0.19-0.8c0.01-0.15,0.03-0.29,0.04-0.44c0.61-2.32,0.93-4.69,1.08-7.07c0.16-2.64,0.68-5.21,1.09-7.81
		C482.87,279.57,483.36,277.41,483.84,275.25z"/>
	<path style="fill-rule:evenodd;clip-rule:evenodd;fill:#615049;" d="M484.94,271.12c-0.05,0.1-0.09,0.2-0.14,0.31
		C484.85,271.33,484.89,271.23,484.94,271.12z"/>
	<path style="fill-rule:evenodd;clip-rule:evenodd;fill:#302926;" d="M481.61,305.67c0.61-0.41,1.31-0.09,1.95-0.26
		c0.4-0.13,0.79-0.11,1.19-0.01c0.16,0,0.32,0.01,0.49,0.01c3.28,0.24,6.56,0.47,9.84,0.71c1.53,0.11,1.78,0.5,1.18,1.98
		c-0.27,0.66-0.62,1.28-0.94,1.92c-0.08,0.06-0.13,0.14-0.17,0.24c-0.06,0.05-0.09,0.11-0.1,0.19c-0.89,1.1-2.21,0.97-3.41,1.21
		c-0.15,0.17-0.35,0.15-0.55,0.16c-4.82,0.36-9.65,0.29-14.47,0.29c-0.76,0-1.52,0-2.27,0.12c-2.33-0.21-4.66,0.3-6.98,0
		c-1.5-0.44-3.11,0.05-4.61-0.46c-0.81-0.25-1.67-0.5-1.83-1.48c-0.16-1.02,0.44-1.73,1.2-2.31c0.29-0.22,0.54-0.46,0.8-0.71
		c0.08-0.08,0.16-0.16,0.25-0.24c0.08-0.08,0.17-0.16,0.25-0.24c0.04-0.04,0.08-0.08,0.13-0.12c0.08-0.09,0.17-0.17,0.26-0.25
		c0.05-0.04,0.1-0.08,0.15-0.12c0.16-0.11,0.35-0.16,0.53-0.26c1.92-0.63,3.89-0.52,5.86-0.44c0.28,0.01,0.54,0.11,0.71,0.36
		c0,0.07,0,0.13,0,0.2c-0.19,0.3-0.5,0.39-0.8,0.49c-0.5,0.12-1.01,0.11-1.52,0.11c-0.19-0.01-0.38-0.01-0.56,0
		c-0.31,0-0.61,0-0.92-0.01c-0.53,0-1.07-0.06-1.59,0.1c-0.17,0.05-0.34,0.09-0.51,0.13c-0.49,0.12-0.79,0.49-1.12,0.82
		c-0.42,0.43-0.95,0.74-1.33,1.2c-0.69,0.82-0.55,1.38,0.52,1.6c1.68,0.35,3.39,0.43,5.1,0.47c3.22,0.08,6.43,0.03,9.64-0.25
		c2.02,0.01,4.03,0.05,6.04,0c2.82,0.04,5.66,0.17,8.47-0.23c1.24-0.17,2.52-1.45,2.74-2.68c0.09-0.55-0.13-0.82-0.62-0.98
		c-0.46-0.15-0.95-0.14-1.42-0.2c-0.13-0.01-0.25-0.03-0.37-0.06c-0.24-0.05-0.47-0.15-0.72-0.16c-0.19,0.01-0.38,0-0.57-0.01
		c-0.4,0-0.8-0.01-1.2-0.1c-2.29-0.2-4.59-0.02-6.88-0.15c-0.47-0.03-0.96,0.08-1.33-0.34
		C481.95,305.82,481.78,305.75,481.61,305.67z"/>
	<path style="fill-rule:evenodd;clip-rule:evenodd;fill:#6C1E18;" d="M482.12,305.9c2.38,0.01,4.77,0.01,7.15,0.03
		c0.42,0,0.89-0.14,1.25,0.22c0.33,0.75-0.23,1-0.73,1.25c-0.78,0.39-1.63,0.34-2.47,0.3c-0.92-0.04-1.7,0.22-2.43,0.8
		c-0.93,0.74-2,1.15-3.22,1.09c-0.53-0.02-1.04-0.11-1.32-0.65c-0.03-0.14,0-0.27,0.11-0.37c0.94-0.21,1.18-0.9,0.81-1.63
		C480.67,305.78,481.43,305.92,482.12,305.9z"/>
	<path style="fill-rule:evenodd;clip-rule:evenodd;fill:#E6C47D;" d="M471.08,305.95c-2.31,0.1-4.66-0.2-6.93,0.46
		c-0.1,0.06-0.18,0.14-0.28,0.2l-0.03,0.02c-0.05,0.09-0.12,0.16-0.21,0.21l-0.02,0.03c-0.06,0.09-0.13,0.17-0.21,0.25l0,0
		c-0.64-0.73-0.56-1.2,0.3-1.72c0.07,0.07,0.13,0.13,0.2,0.2c0.04,0.16,0.14,0.26,0.31,0.29c0.39-0.33,0.79-0.65,1.18-0.98
		c0.31-0.26,0.81-0.66,1.04-0.44c1.22,1.2,1.95-0.17,2.87-0.45c0.41-0.13,0.79-0.43,1.26-0.21c-0.02,0.33-0.69,0.49-0.32,0.86
		c0.27,0.27,0.55-0.15,0.83-0.27c0.47-0.19,0.94-0.41,1.42-0.57c0.21-0.07,0.67-0.07,0.67-0.04c0.36,1.95,1.79-0.04,2.47,0.68
		c0.3,0.46,0.46,1.24,1.26,0.52c0.3-0.27,0.6-0.11,0.87,0.09c0.12,0.09,0.32,0.17,0.19,0.36c-0.22,0.31-0.51,0.39-0.92,0.39
		C475.05,305.84,473.06,305.91,471.08,305.95z"/>
	<path style="fill-rule:evenodd;clip-rule:evenodd;fill:#746F6C;" d="M476.62,306.71c1.26-0.61,2.53-1.24,3.8-0.06
		c0.67,0.62,0.84,1.25-0.2,1.7c-1.1,0.68-2.3,0.82-3.55,0.6c-0.59-0.1-1.31-0.25-1.29-1C475.4,307.28,475.89,306.81,476.62,306.71z"
		/>
	<path style="fill-rule:evenodd;clip-rule:evenodd;fill:#711F1A;" d="M470.36,306.39c0.18-0.26,0.47-0.21,0.73-0.25
		c1.44,0.01,2.87,0.01,4.31,0.02c0.27,0.28,0.81-0.1,0.95,0.29c0.15,0.43-0.32,0.63-0.6,0.78c-0.81,0.44-0.16,1.14-0.36,1.68
		c-0.81,0.67-1.6,0.29-2.3-0.14c-0.9-0.55-1.6-1.39-2.57-1.87C470.34,306.82,470.27,306.61,470.36,306.39z"/>
	<path style="fill-rule:evenodd;clip-rule:evenodd;fill:#C1BBB7;" d="M480.5,302.79c-0.01,0.48-0.02,0.97-0.03,1.45
		c-0.32,0.77-0.19,2.4-1.71,0.91c0.4-0.56,0.22-1.22,0.31-1.83c0.1-0.65,0.65-0.74,1.05-0.97
		C480.39,302.19,480.44,302.57,480.5,302.79z"/>
	<path style="fill-rule:evenodd;clip-rule:evenodd;fill:#352C2A;" d="M475.43,308.78c-0.69-0.64-0.57-1.27,0.18-1.7
		c1.11-0.63,0.16-0.69-0.21-0.92c0.46,0.07,1.1-0.27,1.22,0.55c-0.3,0.51-1.33,0.77-0.98,1.39c0.38,0.68,1.36,0.7,2.15,0.64
		c0.82-0.06,1.62-0.25,2.43-0.39c0.08,0.07,0.17,0.15,0.25,0.22c-0.01,0.08-0.02,0.15-0.02,0.23c-1.24,0.86-2.64,0.52-3.99,0.53
		c-0.2-0.03-0.39-0.09-0.57-0.18C475.69,309.07,475.53,308.96,475.43,308.78z"/>
	<path style="fill-rule:evenodd;clip-rule:evenodd;fill:#C5C2BB;" d="M481.16,304.66c0,0.33,0,0.65,0,0.97
		c-0.08,0.01-0.17,0.03-0.25,0.04c-0.14-0.32-0.19-0.64,0.03-0.95C481.02,304.71,481.09,304.68,481.16,304.66z"/>
	<path style="fill-rule:evenodd;clip-rule:evenodd;fill:#302926;" d="M480.94,304.73c-0.01,0.32-0.02,0.63-0.03,0.95
		C480.58,305.35,480.58,305.03,480.94,304.73z"/>
	<path style="fill-rule:evenodd;clip-rule:evenodd;fill:#473B37;" d="M479.51,301.27c0.19,0.31,0.42,0.36,0.68,0.08
		c-0.03,0.24-0.1,0.47-0.39,0.44C479.52,301.76,479.51,301.51,479.51,301.27z"/>
	<path style="fill-rule:evenodd;clip-rule:evenodd;fill:#473B37;" d="M479.93,298.73c0.05,0.43,0.06,0.86-0.19,1.25
		C479.75,299.55,479.58,299.1,479.93,298.73z"/>
	<path style="fill-rule:evenodd;clip-rule:evenodd;fill:#473B37;" d="M479.69,300.4c-0.06,0.26-0.12,0.52-0.18,0.78
		C479.48,300.91,479.43,300.62,479.69,300.4z"/>
	<path style="fill-rule:evenodd;clip-rule:evenodd;fill:#473B37;" d="M480.18,297.04c0.06,0.29,0.01,0.56-0.19,0.8
		C479.96,297.55,479.91,297.26,480.18,297.04z"/>
	<path style="fill-rule:evenodd;clip-rule:evenodd;fill:#DDBB7B;" d="M463.7,305.4c-0.41,0.52-0.52,1.09-0.3,1.72
		c-0.42,0.41-0.81,0.84-1.25,1.22c-1.47,1.26-1.37,2.26,0.34,3.06c-0.1,0.55-0.4,0.98-0.76,1.39c-0.38,0.24-0.76,0.45-1.17,0.07
		c-0.17-0.39,0.13-0.88-0.26-1.22c-0.74-0.07-1.97,0.87-1.87-0.91c0.06-0.08,0.12-0.17,0.18-0.25c0.23-0.18,0.73-0.32,0.53-0.64
		c-0.24-0.39-0.61,0.23-0.96,0.1c-0.35-0.55,0.03-0.86,0.39-1.18c1.68,0.22,2.97-1.03,3.16-3.06c0.08-0.08,0.17-0.17,0.25-0.25
		C462.55,305.34,463.12,304.96,463.7,305.4z"/>
	<path style="fill-rule:evenodd;clip-rule:evenodd;fill:#DDBB7B;" d="M464.21,305.89c-0.1-0.1-0.21-0.19-0.31-0.29
		C464.01,305.7,464.11,305.79,464.21,305.89z"/>
	<path style="fill-rule:evenodd;clip-rule:evenodd;fill:#C1A17D;" d="M460.56,312.87c0.39-0.08,0.77-0.15,1.16-0.23
		c1.33-0.63,3.94-0.17,4.9,0.87c0.3,0.33,0.43,0.67,0.14,1.07c-1.2,0.33-2.3,0.29-3.04-0.9c-0.33-0.53-0.69-0.1-1.04-0.1
		C461.91,313.57,460.87,314.29,460.56,312.87z"/>
	<path style="fill-rule:evenodd;clip-rule:evenodd;fill:#D4B794;" d="M466.76,314.56c-0.43-1.76-2.02-1.57-3.27-1.9
		c-0.55-0.14-1.18-0.03-1.77-0.04c0.09-0.52,0.26-0.98,0.77-1.23c1.61,0.15,3.22,0.31,4.83,0.46c-0.52,0.55-1.15,0.39-1.78,0.29
		c-0.14-0.02-0.25-0.11-0.37-0.18c0.02,0.24,0.24,0.16,0.36,0.2c0.65,0.22,1.22,0.58,1.75,1.01c0.37,0.3,0.77,0.63,0.45,1.2
		c-0.17,0.07-0.33,0.14-0.5,0.22C467.08,314.59,466.92,314.58,466.76,314.56z"/>
	<path style="fill-rule:evenodd;clip-rule:evenodd;fill:#E0C39F;" d="M467.74,314.39c-0.32-1.32-1.69-1.42-2.53-2.14
		c-0.1-0.09-0.22-0.17-0.33-0.26c0.14-0.02,0.29-0.06,0.43-0.07c0.67-0.02,1.34-0.04,2.01-0.06c2.29,0.02,4.58,0.04,6.87,0.06
		c0.08,0.13,0.06,0.25-0.06,0.34c-0.2,0.14-0.43,0.21-0.67,0.21c-1.43-0.03-2.86-0.06-3.81,1.32c-0.1,0.15-0.35,0.16-0.55,0.07
		c-0.3-0.03-0.53,0.11-0.71,0.34C468.19,314.27,467.96,314.33,467.74,314.39z"/>
	<path style="fill-rule:evenodd;clip-rule:evenodd;fill:#D1B183;" d="M469.12,313.87c1.19-2.07,3.18-1.76,5.08-1.71
		c0.71,0.05,1.37,0.31,2.02,0.58c0.57,0.24,1.05,0.61,0.63,1.35c-0.26,0.31-0.63,0.21-0.96,0.26c-1.39-0.78-2.84-1.1-4.44-0.73
		c-0.72,0.16-1.06,0.96-1.83,0.96C469.45,314.34,469.28,314.1,469.12,313.87z"/>
	<path style="fill-rule:evenodd;clip-rule:evenodd;fill:#BC9B77;" d="M469.62,314.57c1.3-1.56,4.31-1.99,5.96-0.83
		c0.16,0.12,0.21,0.4,0.31,0.61c0,0.06-0.03,0.12-0.06,0.18c-0.14,0.03-0.28,0.05-0.42,0.08c-1.47,0.08-2.95-0.47-4.43,0.15
		C470.61,314.91,470.02,314.98,469.62,314.57z"/>
	<path style="fill-rule:evenodd;clip-rule:evenodd;fill:#B7956D;" d="M485.71,314.05c1.03-1.1,4.42-1.4,5.26-0.48
		c-0.42,1-1.5,0.52-2.17,0.95c-0.3,0-0.61,0-0.91,0C487.14,314.47,486.57,313.61,485.71,314.05z"/>
	<path style="fill-rule:evenodd;clip-rule:evenodd;fill:#B8966D;" d="M491.94,313.2c0.69-0.94,1.58-1.07,2.62-0.65
		c0.4,0.16,0.83-0.44,1.23,0.02c-1.29-0.08-0.02,0.73-0.34,0.99C494.21,314.15,493.05,313.88,491.94,313.2z"/>
	<path style="fill-rule:evenodd;clip-rule:evenodd;fill:#B8966D;" d="M491.02,313.18c0.19-0.41,0.43-0.34,0.7-0.08
		C491.49,313.12,491.25,313.15,491.02,313.18z"/>
	<path style="fill-rule:evenodd;clip-rule:evenodd;fill:#DDBC7D;" d="M476.85,314.09c0.06-0.82-0.5-1.04-1.14-1.21
		c-0.55-0.14-1.17-0.13-1.51-0.72c0-0.08,0-0.16,0-0.24c0.92-0.38,1.88-0.22,2.83-0.23c4.87-0.03,9.75-0.04,14.62-0.06
		c0.41,0.07,0.83,0.14,1.24,0.21c-0.43,0.03-0.87,0.11-1.3,0.07c-2.51-0.24-4.91,0.31-7.26,1.1c-0.73,0.25-1.66-0.31-2.2,0.58
		c-0.73-0.26-0.67,0.72-1.2,0.78c-1.03-0.01-2.08,0.05-3.01-0.5C477.43,313.59,477.18,313.95,476.85,314.09z"/>
	<path style="fill-rule:evenodd;clip-rule:evenodd;fill:#B4926C;" d="M497.23,312.59c-0.02-0.72,0.16-1.4,0.81-1.74
		c0.83-0.44,1.73-0.76,2.09,0.6c-0.17,0.21-0.34,0.41-0.51,0.62C498.83,312.26,498.1,312.73,497.23,312.59z"/>
	<path style="fill-rule:evenodd;clip-rule:evenodd;fill:#CCAA75;" d="M461.73,305.7c0.82,1.55-0.48,2.24-1.34,2.97
		c-0.39,0.33-1.17,1.31-1.82,0.09c0,0,0.01,0.04,0.01,0.04c0.12-0.07,0.2-0.18,0.25-0.31c0.34-0.28,0.68-0.57,1.02-0.85
		c0.31-0.4,0.63-0.8,0.94-1.2C461.1,306.19,461.41,305.94,461.73,305.7z"/>
	<path style="fill-rule:evenodd;clip-rule:evenodd;fill:#DDBB7B;" d="M458.83,308.49c-0.08,0.1-0.17,0.2-0.25,0.31
		C458.66,308.69,458.74,308.59,458.83,308.49z"/>
	<path style="fill-rule:evenodd;clip-rule:evenodd;fill:#CCAA75;" d="M495.15,310.24c0.06-0.08,0.11-0.16,0.17-0.24
		C495.26,310.08,495.21,310.16,495.15,310.24z"/>
	<path style="fill-rule:evenodd;clip-rule:evenodd;fill:#D1B077;" d="M484.75,305.39c-0.4,0-0.79,0.01-1.19,0.01
		C483.96,305.11,484.35,305.1,484.75,305.39z"/>
	<path style="fill-rule:evenodd;clip-rule:evenodd;fill:#C21C28;" d="M477.78,311.17c-4.43,0.31-8.86,0.35-13.29,0.03
		c-0.32-0.02-0.64-0.05-0.94-0.14c-0.65-0.2-1.59,0.04-1.78-0.9c-0.19-0.93,0.58-1.42,1.19-1.93c0.37-0.31,0.74-0.61,1.11-0.91
		c1.79,0.92,3.76,1.15,5.69,1.53c0.27,0.05,0.55,0.15,0.77,0.32c1.7,1.37,3.67,1.58,5.75,1.46
		C476.81,310.59,477.5,310.38,477.78,311.17z"/>
	<path style="fill-rule:evenodd;clip-rule:evenodd;fill:#AF2025;" d="M477.78,311.17c-1.07-0.46-2.2-0.21-3.29-0.18
		c-1.27,0.03-2.37-0.29-3.34-1.04c-1.06-0.82-2.3-1.04-3.57-1.14c-1.36-0.1-2.56-0.48-3.52-1.49c0.24-0.36,0.52-0.67,1-0.65
		c1.09,0.75,2.33,1.03,3.62,1.04c1.13,0.01,2.17,0.28,3.01,0.98c1.41,1.17,3.04,1.39,4.73,1.16c1.1-0.15,2.15,0,3.2,0.15
		c1.9,0.28,3.75,0.23,5.43-0.78c1.18-0.71,2.49-0.82,3.78-0.97c1.38-0.17,2.53-0.65,3.29-1.87c0.19-0.1,0.38-0.11,0.56,0
		c0.08,0,0.16,0.02,0.23,0.05c0.72,0.44,0.42,0.95,0.06,1.4c-0.81,1.02-1.92,1.56-3.18,1.76c-1.91,0.29-3.74,0.8-5.51,1.57
		C482.13,311.16,479.95,311.16,477.78,311.17z"/>
	<path style="fill-rule:evenodd;clip-rule:evenodd;fill:#C21C28;" d="M484.3,311.16c1.53-1.43,3.53-1.51,5.42-1.88
		c1.21-0.23,2.25-0.74,3.09-1.68c0.36-0.4,0.38-0.76,0.12-1.18c0.98-0.02,2.27-0.25,2.73,0.64c0.49,0.95-0.48,1.91-1.02,2.77
		c-1,1.59-2.7,1.17-4.13,1.29C488.45,311.29,486.37,311.16,484.3,311.16z"/>
	<path style="fill-rule:evenodd;clip-rule:evenodd;fill:#952120;" d="M492.2,306.41c-0.01,1.18-0.96,1.63-1.8,1.79
		c-2.45,0.46-4.82,1.13-7.15,2.03c-1.24,0.48-2.58,0.35-3.88,0.04c-1.45-0.33-2.91-0.04-4.37-0.02c-0.91,0.01-1.84-0.09-2.49-0.66
		c-1.66-1.45-3.66-1.54-5.67-1.78c-0.72-0.09-1.52-0.24-1.77-1.15c0.16-0.02,0.31-0.03,0.47-0.05c0.32-0.16,0.65-0.09,0.97-0.06
		c0.84,0.26,1.69,0.46,2.58,0.45c1.25-0.01,2.37,0.33,3.25,1.26c1.09,1.16,2.56,1.08,3.91,0.95c1.54-0.14,3.02,0.12,4.52,0.25
		c1.54,0.14,2.93-0.06,4.2-0.98c0.55-0.4,1.18-0.76,1.87-0.72c1.83,0.09,3.48-0.34,4.87-1.58c0.16,0,0.31,0.01,0.47,0.01
		c0.09,0.04,0.13,0.08,0.1,0.13C492.26,306.38,492.23,306.41,492.2,306.41z"/>
	<path style="fill-rule:evenodd;clip-rule:evenodd;fill:#7F201C;" d="M491.72,306.19c-0.81,1.61-2.37,1.77-3.87,1.85
		c-1.07,0.06-1.99,0.27-2.91,0.86c-1.91,1.24-4.04,1.05-6.12,0.6c-0.76-0.16-1.46-0.25-2.22-0.11c-1.75,0.32-3.4,0.23-4.77-1.16
		c-0.74-0.76-1.74-0.9-2.77-0.88c-0.91,0.01-1.83,0.04-2.54-0.71c0.19-0.24,0.52-0.03,0.72-0.22c0.32,0,0.65,0,0.97,0
		c0.16,0.11,0.31,0.11,0.47,0c0.56-0.01,1.12-0.02,1.68-0.04c0.97,0.73,1.91,1.49,2.92,2.16c0.64,0.43,1.39,0.57,2.15,0.23
		c0.15,0.01,0.3,0.03,0.46,0.04c0.08,0.07,0.17,0.14,0.26,0.2c1.44,0.12,2.87-0.05,4.3-0.23c1.37,1.01,2.8,0.54,3.83-0.32
		c1.28-1.06,2.61-1.13,4.08-1.14c0.89,0,1.88,0,2.17-1.19C490.92,306.17,491.32,306.18,491.72,306.19z"/>
	<path style="fill-rule:evenodd;clip-rule:evenodd;fill:#711F1A;" d="M467.24,306.42c-0.19,0.25-0.46,0.21-0.72,0.22
		c-0.32-0.01-0.65-0.02-0.97-0.03C466.07,306.24,466.67,306.46,467.24,306.42z"/>
	<path style="fill-rule:evenodd;clip-rule:evenodd;fill:#7F201C;" d="M492.2,306.41c0-0.07-0.01-0.14-0.01-0.21
		c0.17,0.06,0.34,0.12,0.51,0.17C492.53,306.39,492.37,306.4,492.2,306.41z"/>
	<path style="fill-rule:evenodd;clip-rule:evenodd;fill:#711F1A;" d="M468.68,306.43c-0.16,0.22-0.31,0.22-0.47,0
		C468.36,306.43,468.52,306.43,468.68,306.43z"/>
	<path style="fill-rule:evenodd;clip-rule:evenodd;fill:#DDBB7B;" d="M463.63,306.84c0.07-0.07,0.14-0.14,0.21-0.21
		C463.77,306.7,463.7,306.77,463.63,306.84z"/>
	<path style="fill-rule:evenodd;clip-rule:evenodd;fill:#DDBB7B;" d="M463.4,307.12c0.07-0.08,0.14-0.17,0.21-0.25
		C463.54,306.95,463.47,307.04,463.4,307.12z"/>
	<path style="fill-rule:evenodd;clip-rule:evenodd;fill:#DDBB7B;" d="M463.87,306.61c0.09-0.07,0.19-0.13,0.28-0.2
		C464.06,306.48,463.96,306.54,463.87,306.61z"/>
	<path style="fill-rule:evenodd;clip-rule:evenodd;fill:#711F1A;" d="M476.14,309.03c-0.09-0.07-0.17-0.14-0.26-0.21
		C475.97,308.89,476.05,308.96,476.14,309.03z"/>
</g>
</svg>
