<?xml version="1.0" encoding="utf-8"?>
<!-- Generator: Adobe Illustrator 16.0.0, SVG Export Plug-In . SVG Version: 6.00 Build 0)  -->
<!DOCTYPE svg PUBLIC "-//W3C//DTD SVG 1.0//EN" "http://www.w3.org/TR/2001/REC-SVG-20010904/DTD/svg10.dtd" [
	<!ENTITY ns_flows "http://ns.adobe.com/Flows/1.0/">
	<!ENTITY ns_extend "http://ns.adobe.com/Extensibility/1.0/">
	<!ENTITY ns_ai "http://ns.adobe.com/AdobeIllustrator/10.0/">
	<!ENTITY ns_graphs "http://ns.adobe.com/Graphs/1.0/">
]>
<svg version="1.0" id="Layer_1" xmlns:x="&ns_extend;" xmlns:i="&ns_ai;" xmlns:graph="&ns_graphs;"
	 xmlns="http://www.w3.org/2000/svg" xmlns:xlink="http://www.w3.org/1999/xlink" xmlns:a="http://ns.adobe.com/AdobeSVGViewerExtensions/3.0/"
	 x="0px" y="0px" width="960px" height="560px" viewBox="0 0 960 560" style="enable-background:new 0 0 960 560;"
	 xml:space="preserve">
<g>
	<path style="fill-rule:evenodd;clip-rule:evenodd;fill:#222221;" d="M506.38,272.61c-0.36-2.59-1.07-5.06-4.16-5.71
		c-0.54-0.11-0.55-0.52-0.59-0.9c-0.26-2.37-0.76-4.7-1.33-7.01c-0.73-2.95-1.12-6.03-3.34-8.41c-1.06-1.14-1.96-2.43-3.05-3.53
		c-4.42-4.47-9.31-7.65-16.06-5.93c-2.64,0.67-5.51,0.63-7.91,2.02c-5.74,3.34-9.71,8.11-11.28,14.71
		c-0.75,3.15-0.64,6.41-1.38,9.56c-0.18,0.77-0.43,1.28-1.25,1.65c-2.32,1.04-3.32,4.92-1.59,6.6c1.58,1.54,2.04,3.28,2.42,5.35
		c1.46,7.93,1.87,15.97,2.81,23.95c0.92-0.44,0.37-1.32,0.59-1.97c0.12-2.28-0.17-4.53-0.33-6.79c-0.08-0.31-0.15-0.61-0.16-0.93
		c-0.11-2.7-0.45-5.37-0.88-8.04c-0.18-0.89-0.39-1.76-0.4-2.66c0-0.38,0.07-0.62,0.52-0.5c0.58,0.09,1.14-0.17,1.71-0.12
		c0.23-0.01,0.45-0.01,0.68-0.03c0.11-0.01,0.22-0.02,0.33-0.05c0.26-0.06,0.51-0.14,0.77-0.23c0.1-0.04,0.19-0.08,0.28-0.13
		c0.13-0.07,0.25-0.15,0.37-0.24c0.15-0.1,0.31-0.17,0.5-0.14c0.09,0.03,0.17,0.06,0.26,0.09c0.13,0.08,0.25,0.16,0.38,0.24
		c0.29,0.2,0.6,0.37,0.9,0.57c0.49,0.33,0.7,0.72,0.45,1.31c-0.5,1.17-0.37,2.33,0.12,3.47c0.05,0.1,0.09,0.2,0.15,0.29
		c0.06,0.09,0.11,0.18,0.18,0.27c0.03,0.04,0.06,0.09,0.09,0.13c0.06,0.09,0.11,0.18,0.17,0.26c0.05,0.09,0.1,0.19,0.15,0.27
		c0.07,0.14,0.15,0.29,0.24,0.42c1.05,1.06,1.2,2.14,0.39,3.5c-0.94,1.57-0.67,3.21,0.28,4.74c0.05,0.1,0.11,0.19,0.18,0.28
		c0.06,0.09,0.12,0.18,0.19,0.27c0.03,0.04,0.06,0.09,0.1,0.13c0.06,0.09,0.12,0.18,0.19,0.26c0.12,0.19,0.25,0.37,0.39,0.54
		c0.11,0.14,0.22,0.27,0.34,0.4c0.41,0.34,0.65,1.05,1.32,0.84c0.59-0.19,0.67-0.85,0.81-1.38c0.29-1.05,0.36-2.12,0.34-3.21
		c-0.02-0.77,0.06-1.52,0.49-2.19c0.22-0.35,0.5-0.67,0.96-0.58c0.41,0.08,0.51,0.46,0.61,0.81c0.13,0.47,0.06,0.95,0,1.43
		c-0.26,2.2-0.22,4.38,0.57,6.5c0.03,0.12,0.07,0.23,0.11,0.34c0.08,0.21,0.17,0.42,0.24,0.63c0.04,0.11,0.07,0.21,0.12,0.31
		c0.06,0.15,0.13,0.3,0.21,0.45c0.53,1.09,1.09,2.18,1.62,3.27c0.06,0.1,0.12,0.2,0.19,0.29c0.23,0.28,0.4,0.62,0.82,0.66
		c1.43-0.39,1.52-1.66,1.45-2.69c-0.24-3.21,1.22-6.07,1.69-9.13c0.17-1.14,1.15-1.48,2.19-0.92c0.64,0.35,1.09,0.92,1.54,1.49
		c0.95,1.07,1.76,2.27,2.92,3.14c0.95,0.47,1.6,1.2,1.86,2.22c0.48,1.85,0.94,3.7,2.1,5.29c0.31,0.42,0.28,0.99,0.4,1.49
		c0.44,1.36,0.46,2.81,0.92,4.16c0.26,0.51,0.42,1.09,1,1.36c0.51,0.04,0.89-0.23,1.24-0.55c0.75-0.8,1.2-1.75,1.49-2.8
		c0.44-1.56,0.09-3.16,0.22-4.73c0.04-1.25-0.12-2.51,0.1-3.76c0.25-1.62,1.05-3.04,1.61-4.55c0.09-0.21,0.17-0.41,0.25-0.62
		c0.06-0.15,0.11-0.3,0.15-0.45c0.05-0.15,0.1-0.29,0.14-0.44c0.04-0.15,0.08-0.3,0.09-0.45c0.03-0.26,0.09-0.51,0.17-0.75
		c0.03-0.1,0.05-0.21,0.06-0.31c0.04-0.79,0.01-1.61,0.58-2.26c0.25-0.34,0.5-0.69,0.76-1.04c0.27-0.34,0.58-0.65,0.82-1.01
		c0.28-0.42,0.56-0.85,0.77-1.31c0.18-0.43,0.27-0.9,0.41-1.35c0.12-2.06,0.36-4.1,1.07-6.05c0.19-0.52,0.36-1.05,0.66-1.52
		c0.15,0.51,0.03,1.04,0.05,1.56c0.02,0.36,0.02,0.71,0,1.06c-0.12,1.55-0.48,3.09-0.48,4.66c-0.03,0.43-0.07,0.85,0,1.28
		c0.06,1.46-0.04,2.92-0.03,4.38c0.01,2.48,0.1,4.96-0.04,7.43c-0.17,2.86-0.19,5.76-1.34,8.48c-0.08,0.24-0.17,0.47-0.26,0.71
		c-0.04,0.11-0.08,0.22-0.11,0.33c-0.1,0.59-0.34,1.11-0.7,1.58c-0.41,0.8-0.92,1.54-1.46,2.27c-0.81,0.86-1.6,1.75-2.53,2.48
		c-0.35,0.22-0.73,0.4-1.13,0.51c-0.1,0.03-0.2,0.06-0.3,0.09c-0.26,0.1-0.53,0.1-0.8,0.12c-0.17,0.01-0.35,0.03-0.52,0.06
		c-0.67,0.18-1.35,0.15-2.02,0.14c-0.33,0-0.67,0-1-0.01c-0.14,0-0.28-0.01-0.42-0.03c-2.19-0.01-4.38,0.08-6.56,0.02
		c-0.29-0.04-0.58,0.02-0.87,0c-1.35,0.01-2.68,0.25-4.03,0.32c-2.92,0.21-5.84,0.46-8.74-0.18c-0.18-0.04-0.35-0.09-0.52-0.14
		c-0.1-0.04-0.2-0.09-0.31-0.13c-0.23-0.12-0.45-0.25-0.68-0.36c-0.09-0.04-0.18-0.08-0.28-0.1c-0.23-0.06-0.45-0.13-0.67-0.21
		c-0.17-0.05-0.35-0.12-0.52-0.18c-0.09-0.03-0.17-0.06-0.26-0.08c-0.18-0.05-0.36-0.12-0.52-0.19c-0.04-0.02-0.09-0.04-0.13-0.06
		c-0.09-0.04-0.19-0.08-0.28-0.11c-0.71-0.32-1.29-0.86-1.99-1.23c-0.13-0.1-0.25-0.2-0.38-0.3c-0.12-0.1-0.25-0.2-0.39-0.29
		c-1.39-0.68-1.96-1.94-2.37-3.33c-0.08-0.21-0.15-0.42-0.27-0.62c-0.07-0.09-0.16-0.16-0.27-0.2c-0.19,0.06-0.3,0.15-0.2,0.37
		c0.05,0.98,0.03,2,0.67,2.83c2.97,3.84,6.84,5.85,11.75,5.73c5.62-0.14,11.23-0.89,16.85-0.15c5.15,0.68,8.9-1.42,11.78-5.61
		c2.23-3.24,2.44-6.91,2.59-10.6c0.32-7.78,0.54-15.56,0.82-23.34c0.03-0.75-0.05-1.53,0.34-2.22
		C506.31,276.26,506.64,274.44,506.38,272.61z M497.44,267.07c-0.8,0.45-2.01,0.52-3.02,0.23c-5.22-1.51-10.56-1.89-15.96-1.69
		c-5.57,0.21-11.03,1.21-16.44,2.48c-1.07,0.25-1.39,0.04-1.27-1.01c0.05-0.43,0.01-0.88,0.01-1.32c0.44-6.5,2.45-12.26,7.97-16.18
		c5-3.55,10.59-4.64,16.6-3.25c1.96,0.45,3.62,1.51,4.95,3c3.64,4.08,6.25,8.67,6.83,14.22c0.04,0.4,0.17,0.79,0.17,1.18
		C497.3,265.55,498,266.75,497.44,267.07z"/>
	<path style="fill-rule:evenodd;clip-rule:evenodd;fill:#414140;" d="M460.81,310.97c-0.09,0.1-0.17,0.2-0.26,0.29
		c-0.5-2.08-0.76-4.19-0.88-6.32c0.43-0.6,0.08-1.29,0.22-1.92c0.69,0.19,0.59,0.79,0.58,1.26c-0.02,1.52,0.22,3.01,0.36,4.51
		c0.05,0.32,0.08,0.64,0.09,0.97c0.01,0.24,0.06,0.48,0.08,0.73C461.02,310.68,460.97,310.85,460.81,310.97z"/>
	<path style="fill-rule:evenodd;clip-rule:evenodd;fill:#459D58;" d="M474.74,295.78c0.07-1.11-0.64-1.99-0.98-2.96
		c-0.18-0.49-1.23-0.52-1.85-0.11c-0.63,0.42-1.73,0.31-1.72,1.51c0.01,1.03,0.12,2.07-0.25,3.07c-0.27,0.45,0.06,0.99-0.21,1.44
		c-0.13,0.75-0.45,0.3-0.7,0.1c-1.28-1.09-1.59-2.83-0.78-4.3c1.28-2.32,1.28-2.32-0.48-4.4c-1.5-1.77-1.56-2.35-0.45-4.34
		c0.18-0.41,0.19-0.81,0-1.22c-1.09-1.63-2.75-2.47-4.46-3.23c-0.67-0.3-2.09-3.53-1.77-4.26c0.24-0.55,0.66-0.19,0.87-0.05
		c1.51,1.06,3.21,1.72,4.87,2.48c0.4,0.24,0.85,0.33,1.28,0.48c2.76,0.61,5.49,1.36,8.33,1.48c1.91,0.17,3.83,0.17,5.74,0
		c6.28-0.6,12.29-2.05,17.6-5.66c1.91-1.3,2.3-3.25,0.75-4.88c-1.01-1.07-2.65-0.86-4.01-1.22c-0.92-0.24-1.87-0.35-2.81-0.52
		c-0.4-0.23-0.87,0.02-1.27-0.2c-0.14-0.02-0.28-0.03-0.42-0.05c-0.48-0.23-1.03,0.04-1.5-0.19c-0.22-0.02-0.44-0.03-0.66-0.05
		c-0.63-0.25-1.32,0.08-1.95-0.2c-0.79-0.01-1.58-0.03-2.36-0.04c-0.63-0.18-1.26-0.09-1.89-0.06c-1.14,0-2.28-0.01-3.42-0.01
		c-0.63-0.01-1.26-0.12-1.88,0.06c-1.61,0.15-3.22,0.29-4.82,0.44c-0.48-0.05-0.95-0.15-1.42,0.05c-2.49,0.57-5.02,0.94-7.48,1.66
		c-1.28,0.37-2.44,1.13-3.81,1.2c-0.09-0.71-0.4-1.45,0.22-2.08c2.63-0.89,5.38-1.17,8.12-1.5c0.4-0.23,0.87,0.03,1.26-0.2
		c2.09-0.3,4.17-0.61,6.26-0.91c0.79,0.06,1.58,0.13,2.36-0.04c0.25-0.01,0.51-0.02,0.76-0.04c1.44-0.19,2.88-0.17,4.32-0.01
		c0.32,0.02,0.64,0.03,0.97,0.05c0.78,0.16,1.57,0.1,2.36,0.04c3.52,0.3,6.95,1.35,10.51,1.35c0.5-0.15,1-0.17,1.5,0.01
		c1.45,0.26,3.03,0.23,4.3,0.85c1.24,0.6,1.5,2.18,1.69,3.53c0.27,1.89-0.12,3.63-1.26,5.21c-1.71,2.38-2.5,5.12-3.06,7.95
		c-0.3,1.1,0.1,2.25-0.22,3.34c0.02,1.16-0.93,1.72-1.58,2.43c-1.16,1.25-1.87,2.55-1.8,4.36c0.08,2.14-1.21,3.93-2.03,5.82
		c-0.43,0.99-0.68,1.94-0.59,3c0.19,2.1,0.17,4.2,0.01,6.3c0,0.12,0.01,0.24-0.01,0.36c-0.12,0.73-0.1,1.79-0.89,1.88
		c-0.79,0.09-0.7-0.99-0.91-1.59c-0.8-2.2-1.1-4.58-2.42-6.6c-0.04-0.06-0.08-0.15-0.07-0.22c0.42-2.93-1.63-4.38-3.53-5.91
		c-0.16-0.13-0.37-0.25-0.42-0.41c-0.59-1.82-2.68-2.23-3.55-3.8c-0.27-0.49-0.98-1.09-1.48-0.66c-0.75,0.64-2.09,0.23-2.4,1.75
		c-0.68,3.34-1.28,6.7-1.84,10.07c-0.04,0.25,0.13,0.61-0.24,0.72c-0.36,0.11-0.48-0.23-0.59-0.47c-0.83-1.9-1.75-3.76-1.84-5.89
		c-0.24-0.47,0.04-1.01-0.19-1.49c0-0.57,0-1.15,0-1.72C474.78,296.79,474.5,296.25,474.74,295.78z"/>
	<path style="fill-rule:evenodd;clip-rule:evenodd;fill:#286C3B;" d="M467.94,279.28c-1-0.64-2-1.27-2.99-1.91
		c-0.14-0.15-0.37-0.11-0.51-0.25l0.02,0.01c-0.22-0.24-0.57-0.06-0.81-0.25c-1.11-0.45-1.26-1.52-1.61-2.47
		c-0.06-0.06-0.07-0.1-0.04-0.13c0.03-0.03,0.05-0.04,0.08-0.04c0.15,0.05,0.3,0.1,0.45,0.15c0.79,0.38,1.6,0.21,2.41,0.08
		c0.06-0.01,0.13-0.01,0.19,0c0.22-0.21,0.57,0,0.77-0.26c0.08-0.06,0.16-0.12,0.24-0.19c0.33,0.13,0.65,0.17,0.96-0.04l-0.02,0.01
		c0.21-0.21,0.54-0.01,0.74-0.24c0.31-0.08,0.62-0.16,0.93-0.24c0.21-0.21,0.55-0.01,0.75-0.25c0.08-0.07,0.15-0.14,0.23-0.2
		c0.25,0.13,0.49,0.16,0.73-0.04l-0.02,0.01c0.79-0.23,1.61-0.29,2.41-0.47c0.25-0.07,0.49-0.13,0.74-0.2
		c0.31,0.11,0.63,0.15,0.93-0.03c0.25-0.01,0.51-0.01,0.76-0.02c0.85-0.33,1.77,0.11,2.62-0.25l-0.01,0.01
		c1.01-0.25,2.04-0.05,3.06-0.12c0.43-0.03,0.87,0.11,1.28-0.12c2.88-0.36,5.75-0.39,8.63,0c1.25,0.25,2.5,0.05,3.75,0.12
		c0.47,0.03,0.95-0.1,1.4,0.12c0.79,0.44,1.69,0.77,1.71,1.92c0,0.19,0.26,0.53,0.41,0.53c0.44,0.01,0.41-0.51,0.65-0.76
		c0.15-0.14,0.1-0.36,0.24-0.5l-0.01,0.02c0.34-0.65-0.01-0.97-0.56-1.2c-0.52-0.22-1.03-0.43-1.34-0.95
		c-0.09-0.05-0.12-0.12-0.1-0.22c0.07-0.13,0.21-0.17,0.33-0.23c0.08,0.02,0.15,0.04,0.23,0.07c1.24,0.49,2.93,0.72,3.01,2.31
		c0.07,1.45-1.4,2.2-2.49,2.97c-1.99,1.42-4.2,2.41-6.5,3.2c-0.25-0.12-0.49-0.15-0.72,0.05l0.02-0.01
		c-0.21,0.21-0.54,0.01-0.74,0.25c-0.42,0.38-0.94,0.19-1.42,0.23c-0.37,0.28-0.86-0.06-1.22,0.24l0.01-0.01
		c-0.53,0.32-1.16-0.09-1.69,0.25l0.02-0.01c-2.64,0.21-5.28,0.58-7.95,0.24l0.02,0.01c-1.03-0.25-2.07-0.16-3.11-0.05
		c-0.08-0.07-0.17-0.13-0.25-0.2c-0.61-0.33-1.31,0.08-1.93-0.24l0.01,0.01c-0.53-0.34-1.17,0.07-1.71-0.25
		c-0.24-0.01-0.47-0.01-0.71-0.02c-0.22-0.17-0.46-0.13-0.69-0.03c-0.26,0.02-0.54,0.07-0.73-0.19
		C468.53,279.3,468.18,279.46,467.94,279.28z"/>
	<path style="fill-rule:evenodd;clip-rule:evenodd;fill:#FBFCFC;" d="M483.4,318.63c-1.35,0.09-2.7,0.18-4.05,0.27
		c-0.79,0.19-1.59,0.08-2.39,0.07c-0.63-0.39-0.88-1.03-1.02-1.69c-0.52-2.42-0.71-4.87-0.8-7.33c-0.02-0.51,0.11-1.03,0.3-1.52
		c0.18-0.48,0.45-0.86,1.07-0.63l-0.01-0.01c0.06,0.31,0.26,0.54,0.44,0.77c0.48,0.2,0.63-0.17,0.83-0.46
		c0.38-0.58,0.63-1.25,0.58-1.92c-0.25-3.42,1.22-6.53,1.72-9.81c0.16-1.07,1.54-1.44,2.61-0.74c0.7,0.46,1.29,1.06,1.73,1.79
		c-0.13,3.57,1.61,6.81,1.88,10.32c0.11,1.42,0.04,2.8-0.24,4.16c-0.4,1.92-1.1,3.75-1.79,5.58
		C484.07,317.94,483.8,318.33,483.4,318.63z"/>
	<path style="fill-rule:evenodd;clip-rule:evenodd;fill:#C9C8CC;" d="M481.06,241.81c4.46-0.3,7.65,2.49,10.88,5.3
		c5.98,5.19,7.81,12.19,8.77,19.61c0.04,0.28,0.19,0.68-0.25,0.81c-0.41,0.12-0.79,0.01-1.11-0.29c-0.73-0.7-0.77-1.63-0.83-2.55
		c-0.45-7.08-3.41-12.93-8.58-17.75c-3.03-2.83-6.71-3.56-10.57-3.1c-4.19,0.5-8.15,2-11.65,4.41c-4.67,3.22-6.49,8.15-7.56,13.41
		c-1.1,5.36-0.61,10.73,0.29,16.08c0.07,0.43,0.25,0.84-0.24,1.17c-0.54,0.37-0.37,0.62,0.12,0.96c0.77,0.54,1.9,1.27,1.56,2.17
		c-0.38,1-1.71,0.4-2.63,0.52c-0.56,0.07-0.79-0.23-0.81-0.77c-0.03-1.1,0.02-2.2,0.95-2.96c0.39-0.32,0.25-0.55,0.16-0.91
		c-2.18-8.1-1.59-16.06,1.37-23.85c1.83-4.82,5.6-7.76,10.08-9.89C474.12,242.72,477.35,241.74,481.06,241.81z"/>
	<path style="fill-rule:evenodd;clip-rule:evenodd;fill:#E6E7E9;" d="M468.21,299.44c0.11,0.14,0.23,0.28,0.34,0.42
		c0.04,0.14,0.13,0.23,0.26,0.29c0.46,0.3,0.7,1.19,1.18,1.03c0.57-0.19,0.64-1.01,0.7-1.64c0.11-1.11,0.19-2.21,0.3-3.32
		c0.03-0.31,0.08-0.63,0.16-0.94c0.22-0.88,0.6-1.91,1.6-1.76c1.11,0.16,1.18,1.32,1.02,2.23c-0.42,2.48-0.21,4.9,0.49,7.29
		c-0.52,0.44-0.42,1.09-0.52,1.66c-0.69,3.64-0.83,7.29-0.26,10.96c0.09,0.6,0.27,1.17,0.4,1.75c0.12,0.5,0.33,1-0.01,1.5
		c-0.04,0.02-0.07,0.04-0.11,0.04c-2.36,0.2-2.38,0.21-2.77-2.09c-0.32-1.89-1.05-3.68-1.33-5.56c-0.02-0.85,0.14-1.7,0.52-2.43
		c0.74-1.45-0.26-2.41-0.82-3.5c-0.11-0.22-0.39-0.25-0.64-0.24c-0.11,0.03-0.22,0.05-0.33,0.08c-0.06,0.02-0.12,0.03-0.18,0.05
		c-0.13,0.03-0.25,0.02-0.37-0.02c-0.05-0.04-0.11-0.08-0.16-0.11c-0.79-1.78-0.97-3.65-0.72-5.56c0.05-0.38,0.05-1.04,0.81-0.84
		c0.07,0.02,0.11,0.07,0.1,0.15c0.02,0.13,0.11,0.23,0.2,0.33l0.01,0.01C468.11,299.27,468.17,299.34,468.21,299.44z"/>
	<path style="fill-rule:evenodd;clip-rule:evenodd;fill:#F2F2F3;" d="M483.4,318.63c0.92-2.57,2.02-5.07,2.43-7.81
		c0.41-2.71-0.17-5.27-0.9-7.82c-0.52-1.83-1.17-3.64-0.53-5.57c0.87,0.98,1.74,1.97,2.61,2.95c1.01,1.67,0.92,3.61,1.27,5.44
		c0.73,3.85-0.09,7.54-1.34,11.16c-0.18,0.53-0.34,1.07-0.81,1.44c-0.65,0.27-1.36-0.04-2.01,0.19
		C483.88,318.61,483.64,318.62,483.4,318.63z"/>
	<path style="fill-rule:evenodd;clip-rule:evenodd;fill:#EBEBED;" d="M486.03,318.33c1.19-3.1,2.21-6.25,2.14-9.61
		c-0.05-2.42-0.5-4.81-0.98-7.19c-0.08-0.39-0.12-0.78-0.18-1.17c1.05,0.21,1.72,0.91,1.99,1.87c0.61,2.14,1.2,4.27,2.4,6.18
		c0.17,0.28,0.13,0.69,0.19,1.04c0.11,0.8-0.03,1.57-0.28,2.34c-0.63,1.98-1.41,3.91-2,5.9c-0.17,0.58-0.44,0.92-1.09,0.83
		C487.5,318.41,486.73,318.74,486.03,318.33z"/>
	<path style="fill-rule:evenodd;clip-rule:evenodd;fill:#F0F1F2;" d="M473.8,318.87c-0.74-2.44-1.03-4.97-1.12-7.49
		c-0.09-2.72,0.39-5.44,0.92-8.12c0.08-0.38,0.35-0.38,0.64-0.23c0.07,0.04,0.09,0.11,0.06,0.18c0.1,0.17,0.06,0.39,0.21,0.54
		c0.06,0.05,0.07,0.1,0.04,0.17c0.02,0.12,0.11,0.21,0.18,0.31c0.59,1.18,1.19,2.37,1.78,3.55c-1.33,0.71-1.05,2.01-0.99,3.11
		c0.1,1.88,0.48,3.75,0.63,5.63c0.07,0.88,0.65,1.53,0.78,2.35C475.88,319.07,474.84,319.07,473.8,318.87z"/>
	<path style="fill-rule:evenodd;clip-rule:evenodd;fill:#706C74;" d="M463.62,315.29c-1.64-0.65-2.25-2.03-2.58-3.61
		c0.62-0.7,0.54-1.54,0.5-2.38c-0.1-2-0.82-3.92-0.84-5.93c-0.03-3.59-0.09-7.19,0.34-10.77c0.3-2.51-0.16-4.91-0.98-7.28
		c-0.24-0.68-1.12-0.78-1.15-1.55c0.64-0.04,1.29-0.09,1.93-0.13c1.07,1.53,1.33,3.32,1.5,5.09c0.41,4.21-0.23,8.41-0.42,12.61
		c-0.08,1.86,0.39,3.64,0.91,5.39c0.76,2.56,1.27,5.19,2.17,7.72c0.39,1.1,0.15,1.34-0.81,1.32c-0.08-0.06-0.16-0.12-0.24-0.18
		C463.89,315.44,463.78,315.33,463.62,315.29z"/>
	<path style="fill-rule:evenodd;clip-rule:evenodd;fill:#646066;" d="M458.91,283.77c2.25,0.96,2.08,3.17,2.35,4.98
		c0.62,4.29-0.39,8.58-0.28,12.89c0.05,1.95,0.4,3.83,0.7,5.73c0.21,1.36,0.41,2.72,0.13,4.11c-0.15,0.73-0.42,0.47-0.76,0.2
		c-0.06-0.17-0.11-0.33-0.17-0.5c0.1-0.24,0.19-0.48-0.03-0.7c-0.06-0.18-0.12-0.35-0.18-0.53c0.07-0.31,0.14-0.62-0.05-0.91
		c-0.39-1.4-0.47-2.84-0.5-4.29c-0.01-0.57,0.19-1.19-0.22-1.72c-0.09-2.32-0.17-4.63-0.26-6.95c0.9-3.45,1.18-6.88-0.46-10.21
		c-0.07-0.14-0.11-0.3-0.23-0.42c-0.03,0.16,0.04,0.31,0.02,0.47c-0.05,0.39,0.14,0.91-0.5,1.02c-0.13-0.92-0.24-1.85-0.38-2.77
		c-0.04-0.26-0.24-0.56,0.06-0.73C458.5,283.23,458.72,283.51,458.91,283.77z"/>
	<path style="fill-rule:evenodd;clip-rule:evenodd;fill:#D8D8DA;" d="M467.74,298.73c-0.68,0.17-0.48,0.83-0.5,1.2
		c-0.09,1.8-0.03,3.6,0.81,5.27c0.02,0.79-0.4,1.32-1.04,1.72c-0.72,0.12-0.88-0.41-1.03-0.91c-0.66-2.27-0.95-4.54-0.79-6.95
		c0.2-2.89,0.45-5.8,0.29-8.72c-0.03-0.55-0.22-1.25,0.62-1.45c0.06,0.04,0.08,0.09,0.06,0.16c0.03,0.13,0.11,0.22,0.2,0.32l0,0.01
		c0.08,0.05,0.14,0.12,0.16,0.22c0.03,0.07,0.07,0.14,0.1,0.21c0.06,0.09,0.12,0.18,0.18,0.28c1.18,1.16,1.84,2.27,0.63,3.95
		C466.32,295.54,466.91,297.2,467.74,298.73z"/>
	<path style="fill-rule:evenodd;clip-rule:evenodd;fill:#C9C8CC;" d="M466.09,288.89c-0.26,0.23-0.32,0.49-0.29,0.85
		c0.29,3-0.01,6.02-0.24,8.99c-0.19,2.55,0.12,4.94,0.78,7.35c0.12,0.42,0.15,0.83,0.74,0.56c0.42,0.49,0.12,0.99,0.01,1.48
		c-0.17,0.34-0.15,0.8-0.6,0.98c-1-0.55-1.07-1.63-1.36-2.53c-0.83-2.51-1.1-5.07-0.89-7.75c0.28-3.65,0.48-7.32,0.09-10.98
		c-0.15-1.42-0.29-2.85-0.73-4.23c-0.08-0.24-0.54-0.67,0.17-0.76c0.08,0,0.15,0.03,0.2,0.09c0.09,0.04,0.18,0.1,0.26,0.16
		c0.24,0.13,0.48,0.28,0.72,0.4c0.95,0.49,1.72,0.95,0.9,2.26C465.23,286.76,465.75,287.87,466.09,288.89z"/>
	<path style="fill-rule:evenodd;clip-rule:evenodd;fill:#807C84;" d="M464.19,315.77c0.48-0.1,0.81-0.17,0.58-0.88
		c-1.21-3.77-2.37-7.57-3.02-11.49c-0.43-2.59-0.11-5.25,0.14-7.83c0.38-3.89,0.37-7.65-0.97-11.35c-0.07-0.18-0.05-0.39-0.08-0.59
		c0.24,0,0.48,0,0.72,0c1.03,1.29,1.05,2.89,1.27,4.4c0.56,3.86,0.12,7.72-0.19,11.57c-0.18,2.24,0.1,4.45,0.76,6.62
		c0.95,3.13,2.06,6.2,3.11,9.3c0.18,0.54,0.31,1.08,0.09,1.64C465.61,317.02,465,316.23,464.19,315.77z"/>
	<path style="fill-rule:evenodd;clip-rule:evenodd;fill:#5C595E;" d="M503.77,294.16c0.1,4.25,0.12,8.5-0.47,12.73
		c-0.17,1.25-0.51,2.47-1.11,3.6c-0.21,0.09-0.18,0.34-0.29,0.49l0.01,0c-1,0.2-1-0.59-1.07-1.18c-0.2-1.52,0-3.06,0.33-4.52
		c0.61-2.65,0.8-5.34,1.08-8.03c0.08-0.76,0.24-1.5,0.54-2.2C502.96,294.61,503.15,294.13,503.77,294.16z"/>
	<path style="fill-rule:evenodd;clip-rule:evenodd;fill:#C9C8CC;" d="M462.07,274.25c-0.08,0.04-0.09,0.1-0.05,0.17
		c-0.35-0.22-0.69-0.45-1.04-0.67c0.88-0.2,1.02-1.23,1.76-1.59c1.09-0.54,2.25-0.88,3.44-0.92c1.46-0.05,2.79-0.59,4.18-0.85
		c2.39-0.45,4.82-0.88,7.28-0.43c1.34,0.22,2.7,0.02,4.04,0.11c0.33,0.02,0.82-0.3,0.99,0.3c-6.27-0.05-12.32,1.46-18.42,2.65
		C463.42,273.18,462.55,273.4,462.07,274.25z"/>
	<path style="fill-rule:evenodd;clip-rule:evenodd;fill:#676369;" d="M503.77,294.16c-1.29,1.36-1.29,3.17-1.34,4.8
		c-0.09,2.92-1.07,5.68-1.17,8.57c-0.04,1.16-0.78,2.54,0.65,3.46c0,0.66-0.15,1.25-0.71,1.67c-0.75,0.66-1.07,0.57-1.29-0.42
		c-0.36-1.62-0.27-3.24,0.05-4.86c0.33-1.68,0.71-3.35,1.12-5.01c0.42-1.72,0.13-3.49,0.42-5.23c0.28-1.74,0.53-3.47,1.45-5.01
		c0.29-0.49,0.24-0.99,0.26-1.5c0.06-0.4-0.03-0.89,0.56-1C503.77,291.12,503.77,292.64,503.77,294.16z"/>
	<path style="fill-rule:evenodd;clip-rule:evenodd;fill:#A7A5AA;" d="M462.52,283.4c0.05-0.06,0.11-0.09,0.19-0.09
		c0.07,0.02,0.13,0.04,0.2,0.06c0.45,0.2,0.56,0.63,0.7,1.05c0.38,1.06,0.53,2.18,0.56,3.28c0.05,1.94,0.36,3.85,0.25,5.82
		c-0.2,3.44-0.78,6.9-0.12,10.36c0.2,1.06,0.55,2.08,0.9,3.09c0.06,0.12,0.12,0.24,0.17,0.36c0.57,2.52,1.64,4.88,2.48,7.31
		c0.22,0.64,0.43,1.29,0.49,1.96c0.04,0.37,0.2,0.81-0.3,1.04c-0.17-0.05-0.34-0.11-0.51-0.16c-0.89-2.51-1.81-5.01-2.68-7.53
		c-0.66-1.92-1.34-3.83-1.76-5.83c-0.49-2.3-0.31-4.63-0.08-6.9c0.43-4.28,0.3-8.48-0.6-12.68
		C462.33,284.17,461.92,283.73,462.52,283.4z"/>
	<path style="fill-rule:evenodd;clip-rule:evenodd;fill:#9B989E;" d="M494.92,318.35c-0.16,0.01-0.32,0.02-0.49,0.03
		c-0.52-0.6-0.27-1.23,0-1.79c0.88-1.77,1.41-3.65,1.75-5.58c0.37-2.08,0.98-4.1,1.64-6.1c0.81-2.45,1.04-4.97,1.29-7.5
		c0.17-1.74,0.44-3.46,0.85-5.16c0.24-0.32,0.48-0.64,0.73-0.96c0.54,0.05,0.52,0.48,0.44,0.8c-0.84,3.57-0.66,7.27-1.46,10.85
		c-0.53,2.37-1.36,4.66-1.98,7c-0.28,1.05-0.31,2.12-0.54,3.17c-0.37,1.68-1,3.26-1.64,4.85
		C495.47,318.31,495.14,318.24,494.92,318.35z"/>
	<path style="fill-rule:evenodd;clip-rule:evenodd;fill:#DEDEE0;" d="M486.03,318.33c2.55,0.16,2.59,0.18,3.46-2.31
		c0.76-2.17,1.41-4.38,2.1-6.57c0.55,1.39,0.59,2.89,0.96,4.32c0.1,0.18,0.14,0.4,0.07,0.57c-0.6,1.39-0.72,2.96-1.54,4.27
		c-2.32,0-4.64-0.01-6.96-0.01C484.7,318.14,485.4,318.51,486.03,318.33z"/>
	<path style="fill-rule:evenodd;clip-rule:evenodd;fill:#ADAAB0;" d="M499.97,292.25c0.43,0.65,0,1.31-0.07,1.94
		c-0.3,2.79-0.66,5.59-1.17,8.35c-0.34,1.85-0.98,3.65-1.45,5.48c-0.58,2.26-1.14,4.52-1.69,6.79c-0.29,1.23-1.37,2.19-1.17,3.58
		c-0.69,0.34-1.44,0.16-2.16,0.23c-0.02-0.05-0.04-0.11-0.06-0.16c0.05-0.1,0.13-0.19,0.22-0.25c0.67-0.2,0.8-0.8,0.99-1.35
		c0.26-0.77,0.65-1.51,0.71-2.34c2.05-2.11,1.78-4.78,1.79-7.39c0.57,0.12,0.47,0.56,0.46,0.92c0.78-2.46,1.75-4.84,2.03-7.4
		c0.26-2.48,0.44-4.97,0.86-7.44C499.5,292.89,499.74,292.57,499.97,292.25z"/>
	<path style="fill-rule:evenodd;clip-rule:evenodd;fill:#6F6A72;" d="M503.56,290.56c0.36,1.5-0.89,2.48-1.23,3.76
		c-0.71,2.65-0.45,5.38-0.93,8.04c-0.4,2.19-0.97,4.33-1.32,6.54c-0.2,1.24,0.2,2.36,0.2,3.55c0,0.76,0.54,0.41,0.91,0.2
		c-0.27,0.93-0.87,1.67-1.47,2.4c-0.32,0.12-0.6,0.12-0.82-0.2c-0.5-2.14-0.26-4.27,0.15-6.39c0.17-0.9,0.49-1.77,0.6-2.68
		c0.02-0.12,0.05-0.24,0.09-0.36c0.27-0.61,0.38-1.26,0.49-1.92c0.15-0.53,0.26-1.07,0.46-1.58c0.28-1.69,0.33-3.39,0.46-5.09
		c0.23-1.7,0.53-3.39,1.2-4.98C502.59,291.29,502.7,290.55,503.56,290.56z"/>
	<path style="fill-rule:evenodd;clip-rule:evenodd;fill:#918D94;" d="M466.6,317.16c-1.25-3.85-2.48-7.7-3.74-11.54
		c-1.08-3.29-0.53-6.66-0.26-9.95c0.33-4.1,0.08-8.09-1.02-12.03c0.08-0.01,0.16-0.01,0.24-0.02c0.54,0.24,0.71,0.73,0.81,1.25
		c0.62,3.21,1.01,6.42,0.69,9.72c-0.26,2.61-0.41,5.24-0.36,7.87c0.03,1.71,0.7,3.34,1.21,4.98c0.82,2.63,1.82,5.19,2.71,7.79
		c0.2,0.6,0.95,1.36-0.03,2C466.74,317.23,466.66,317.21,466.6,317.16z"/>
	<path style="fill-rule:evenodd;clip-rule:evenodd;fill:#B9B6BB;" d="M463.77,282.85c0.98,3.26,1.06,6.64,1.12,9.99
		c0.04,2.33-0.34,4.65-0.41,6.98c-0.09,3.23,0.45,6.35,2.11,9.19c0.21,0.09,0.32,0.27,0.41,0.46c0.07,0.19,0.11,0.39,0.13,0.59
		c0.02,0.18,0.05,0.37,0.1,0.55c0.03,0.09,0.06,0.17,0.08,0.26c0.05,0.13,0.1,0.26,0.16,0.38c0.06,0.08,0.11,0.17,0.16,0.25
		c0.06,0.09,0.1,0.18,0.14,0.28c0.04,0.1,0.08,0.21,0.1,0.32c0.02,0.11,0.05,0.22,0.09,0.34c0.42,1.47,1.04,2.89,1.16,4.43
		c0.03,0.38,0.19,0.78-0.16,1.11c-0.08,0.01-0.16-0.02-0.21-0.08c-0.66-0.5-0.46-1.3-0.66-1.96c-0.86-2.91-2.1-5.69-2.94-8.6h0
		c-1.27-3.13-1.51-6.37-1.18-9.72c0.43-4.36,0.55-8.74-0.46-13.07c-0.09-0.4-0.17-0.78-0.47-1.07c-0.11-0.12-0.13-0.24-0.05-0.38
		C463.2,282.86,463.32,282.41,463.77,282.85z"/>
	<path style="fill-rule:evenodd;clip-rule:evenodd;fill:#58555A;" d="M458.47,286.94c0.36-0.42,0.17-0.91,0.18-1.37
		c0-0.27-0.41-0.6,0.01-0.77c0.12-0.05,0.51,0.34,0.66,0.6c1.45,2.6,1.64,5.41,1.14,8.27c-0.14,0.82,0.28,1.9-0.81,2.42
		c-0.23-1.88-0.47-3.75-0.7-5.62C458.78,289.28,458.63,288.11,458.47,286.94z"/>
	<path style="fill-rule:evenodd;clip-rule:evenodd;fill:#9A979D;" d="M466.82,317.22c0.48-0.82,0.01-1.54-0.26-2.26
		c-1.41-3.72-2.77-7.47-3.65-11.34c-0.39-1.71-0.26-3.59-0.07-5.36c0.48-4.45,0.62-8.86-0.38-13.25c-0.11-0.49-0.43-0.93-0.65-1.39
		c0.24-0.07,0.47-0.15,0.71-0.22c0.57,2.61,0.87,5.25,1.09,7.92c0.15,1.86-0.05,3.66-0.23,5.45c-0.42,4.19-0.12,8.2,1.46,12.13
		c0.94,2.35,1.69,4.79,2.55,7.18c0.17,0.47,0.18,0.93,0.16,1.41c-0.07-0.02-0.15-0.04-0.22-0.07
		C467.17,317.29,466.97,317.33,466.82,317.22L466.82,317.22z"/>
	<path style="fill-rule:evenodd;clip-rule:evenodd;fill:#8E8A91;" d="M495.38,318.13c-0.05-0.15-0.2-0.35-0.14-0.44
		c1.56-2.77,1.62-5.96,2.45-8.93c0.8-2.83,1.85-5.61,2.12-8.56c0.26-2.85,0.46-5.7,1.08-8.5c0.03-0.12-0.12-0.27-0.19-0.41
		c0.25-0.39,0.5-0.79,0.75-1.18c0.64,0.19,0.58,0.75,0.46,1.16c-0.95,3.44-1.12,6.98-1.42,10.51c-0.03,0.32-0.19,0.61-0.24,0.92
		c-1.14,3.48-2.12,6.99-2.65,10.64c-0.24,1.68-0.72,3.35-1.73,4.8l-0.11,0.04l-0.11,0C495.55,318.28,495.46,318.27,495.38,318.13z"
		/>
	<path style="fill-rule:evenodd;clip-rule:evenodd;fill:#309647;" d="M457.95,275.21c0.02,0.06,0.02,0.13,0.02,0.19
		c0.2,0.72,0.26,1.32-0.82,1.02c-1.35-0.63-2.66-1.28-2.3-3.15c0.25-0.28-0.01-0.68,0.23-0.97l-0.01,0.02
		c0.17-0.17,0.15-0.41,0.25-0.6c0.06-0.47,0.42-0.74,0.71-1.07c0.13-0.16,0.37-0.1,0.5-0.27l-0.01,0.01c0.33-0.16,0.66-0.17,0.99,0
		l-0.01-0.01c0.33,0.86-0.12,1.8,0.25,2.66l-0.01-0.02C458.03,273.73,457.65,274.5,457.95,275.21z"/>
	<path style="fill-rule:evenodd;clip-rule:evenodd;fill:#807B83;" d="M499.96,302.8c0.62-3.88,0.48-7.87,1.65-11.68
		c0.1-0.32,0.13-0.71-0.16-1.01c0.14-0.41,0.29-0.83,0.43-1.24c0.32-1.32,0.53-2.67,0.97-3.97c0.14-0.41,0.23-0.85,0.5-1.19
		c0.24-0.29,0.51-0.71,0.9-0.13c-0.16,1.6-0.32,3.2-0.48,4.8c-0.5,0.35-0.62,0.92-0.77,1.45c-0.46,1.65-1.1,3.24-1.41,4.94
		c-0.48,1.5-0.36,3.06-0.52,4.59c-0.01,0.18,0.02,0.37-0.02,0.55c-0.18,0.87-0.09,1.78-0.43,2.62c-0.09,0.27-0.15,0.56-0.24,0.83
		c-0.05,0.1-0.13,0.18-0.23,0.23c-0.12,0-0.21-0.05-0.28-0.15C499.85,303.22,499.79,302.99,499.96,302.8z"/>
	<path style="fill-rule:evenodd;clip-rule:evenodd;fill:#D9D9DC;" d="M473.8,318.87c1.04,0,2.08,0,3.12,0
		c0.81,0.01,1.62,0.01,2.43,0.02c-3.15,0.28-6.29,0.62-9.4-0.34c-0.09-0.03-0.17-0.08-0.22-0.17l-0.01-0.01
		c-0.23-1.87-0.97-3.64-1.03-5.54c0.41-0.64,0.38-1.57,1.25-1.9c0.56,2.46,1.05,4.93,1.71,7.37
		C471.97,319.46,473.09,318.64,473.8,318.87z"/>
	<path style="fill-rule:evenodd;clip-rule:evenodd;fill:#86828A;" d="M499.96,302.8c0,0.24,0,0.48,0,0.72
		c0.33,0.36,0.15,0.73,0.05,1.12c-0.72,2.81-1.58,5.57-1.77,8.5c-0.1,1.53-0.44,3.08-1.19,4.48c-0.36,0.25-0.71,0.5-1.18,0.5
		c-0.08-1.14,0.76-1.98,0.97-3.04c0.76-3.77,1.44-7.55,2.64-11.22C499.61,303.5,499.8,303.16,499.96,302.8z"/>
	<path style="fill-rule:evenodd;clip-rule:evenodd;fill:#C9C8CC;" d="M482.67,270.36c-1.2-0.42-2.44-0.08-3.66-0.2
		c-0.46-0.04-0.96,0.16-1.37-0.22c5.07,0.15,10.13-0.6,15.2-0.02c0.66,0.08,1.32,0.12,1.92,0.43c-0.64,0.03-1.27,0.08-1.91,0.07
		C489.46,270.41,486.07,270.38,482.67,270.36z"/>
	<path style="fill-rule:evenodd;clip-rule:evenodd;fill:#C7C5C9;" d="M496.09,302.97c0.26-1.62,0.99-3.05,1.69-4.5
		c0.14-0.04,0.27-0.01,0.38,0.09c0.2,0.22,0.26,0.48,0.25,0.77c-0.15,2.32-0.67,4.56-1.62,6.69c-0.12,0.27-0.24,0.7-0.63,0.57
		c-0.28-0.1-0.17-0.5-0.16-0.76C496.04,304.88,495.89,303.92,496.09,302.97z"/>
	<path style="fill-rule:evenodd;clip-rule:evenodd;fill:#8F8B92;" d="M504.25,283.59c-0.85-0.28-0.79,0.48-0.91,0.88
		c-0.45,1.5-0.82,3.03-1.22,4.55c-0.01,0.03-0.03,0.06-0.05,0.08c-0.06-0.08-0.12-0.15-0.18-0.23c-0.08-2.83,0.52-5.52,1.75-8.06
		c0.12-0.25,0.16-0.71,0.58-0.58c0.11,0.03,0.14,0.49,0.14,0.75C504.33,281.84,504.28,282.71,504.25,283.59z"/>
	<path style="fill-rule:evenodd;clip-rule:evenodd;fill:#79757D;" d="M497.06,317.63c-0.25-0.59,0.11-1.1,0.28-1.6
		c0.73-2.2,0.53-4.55,1.16-6.77c0.54-1.9,0.98-3.83,1.46-5.74c0.08,0,0.16,0,0.24,0c0.33,0.69-0.14,1.28-0.24,1.92l0,0
		c-0.88,2.79-1.31,5.64-1.31,8.56c0,0.39-0.42,1.16,0.59,1.04c0.16-0.03,0.32-0.25,0.48,0
		C498.96,316.04,498.14,316.97,497.06,317.63z"/>
	<path style="fill-rule:evenodd;clip-rule:evenodd;fill:#B3B1B5;" d="M499.26,293.21c0.62,1.01-0.01,2.03-0.07,3.02
		c-0.25,4.17-1,8.25-2.58,12.14c-0.12,0.29-0.24,0.58-0.35,0.87c-0.28-0.29-0.08-0.64-0.11-0.96c0.29-2.06,1.33-3.9,1.71-5.95
		c0.41-2.15,0.55-4.32,0.66-6.49C498.54,294.9,498.35,293.9,499.26,293.21z"/>
	<path style="fill-rule:evenodd;clip-rule:evenodd;fill:#BCBABE;" d="M498.53,295.84c0.65,1.32,0.08,2.65-0.05,3.95
		c-0.28,2.95-1.13,5.77-2.33,8.49c-0.08-0.39,0.11-0.83-0.23-1.16c-0.06-1.39-0.19-2.78,0.17-4.15c0.01,0.88,0.01,1.75,0.03,2.63
		c0.01,0.25,0.07,0.5,0.11,0.75c0.11-0.2,0.25-0.39,0.33-0.6c0.91-2.34,1.62-4.72,1.48-7.28c0-0.04,0-0.08,0-0.12
		c-0.04-0.07-0.08-0.14-0.11-0.22c0.04-0.07,0.06-0.15,0.07-0.23c0.03-0.13,0.07-0.26,0.1-0.39c0.04-0.11,0.14-0.19,0.15-0.31
		c0.03-0.14,0.05-0.28,0.08-0.42c0.12-0.25,0.03-0.54,0.16-0.79C498.46,295.93,498.47,295.88,498.53,295.84z"/>
	<path style="fill-rule:evenodd;clip-rule:evenodd;fill:#C8C6CA;" d="M468.98,312.84c-0.13,1.46,0.79,2.71,0.83,4.16
		c0.02,0.48-0.02,0.92-0.09,1.38c-0.25-0.13-0.51-0.26-0.76-0.39c-0.15-2.02-0.89-3.9-1.41-5.84c0.03-0.03,0.06-0.07,0.1-0.1
		c0.05,0,0.09,0,0.14,0c0.09,0.03,0.17,0.07,0.25,0.12c0.04,0.02,0.08,0.05,0.12,0.07c0.13,0.07,0.26,0.13,0.39,0.18
		C468.75,312.52,468.91,312.64,468.98,312.84z"/>
	<path style="fill-rule:evenodd;clip-rule:evenodd;fill:#747077;" d="M501.4,294.64c0.49-1.92,0.97-3.84,1.49-5.75
		c0.11-0.39,0.34-0.75,0.87-0.5c0,0.41,0.01,0.81,0.01,1.22c-0.3,0.27-0.18,0.63-0.21,0.95c-1.34,1.54-1.57,3.47-1.91,5.36
		c-0.05,0.3,0.05,0.64-0.25,0.88c-0.05-0.05-0.09-0.1-0.14-0.15C501.12,295.97,501.27,295.3,501.4,294.64z"/>
	<path style="fill-rule:evenodd;clip-rule:evenodd;fill:#D1D0D4;" d="M491.08,318.62c0.16-1.71,0.85-3.27,1.47-4.84
		c0.23,0.41,0.47,0.83,0.7,1.24c0.24,1.29-0.41,2.32-0.97,3.38l0,0c-0.28,0.26-0.67-0.01-0.96,0.21
		C491.24,318.61,491.16,318.62,491.08,318.62z"/>
	<path style="fill-rule:evenodd;clip-rule:evenodd;fill:#C3C2C6;" d="M492.28,318.4c0.02-1.21,0.7-2.24,0.97-3.38
		c0.3-0.17,0.59-0.34,0.89-0.5C494.6,315.73,493.36,318.33,492.28,318.4z"/>
	<path style="fill-rule:evenodd;clip-rule:evenodd;fill:#B6B4B9;" d="M465.16,307.36c1.23,2.54,2.01,5.25,2.87,7.92
		c0.28,0.87,0.49,1.76,0.73,2.64c-0.24-0.09-0.47-0.18-0.71-0.27c0.16-1.64-0.59-3.06-1.09-4.54
		C466.31,311.21,465.36,309.4,465.16,307.36z"/>
	<path style="fill-rule:evenodd;clip-rule:evenodd;fill:#5B6859;" d="M477.87,280.48c2.65-0.08,5.3-0.16,7.95-0.24
		C483.18,280.7,480.53,280.99,477.87,280.48z"/>
	<path style="fill-rule:evenodd;clip-rule:evenodd;fill:#688367;" d="M494.94,311.26c0-2.1-0.01-4.2-0.01-6.3
		C495.3,307.06,495.33,309.16,494.94,311.26z"/>
	<path style="fill-rule:evenodd;clip-rule:evenodd;fill:#6A8269;" d="M482.18,281.46c-1.91,0.36-3.83,0.36-5.74,0
		C478.36,281.46,480.27,281.46,482.18,281.46z"/>
	<path style="fill-rule:evenodd;clip-rule:evenodd;fill:#637E5F;" d="M495.98,272.08c-1.72-0.13-3.46,0.28-5.15-0.23
		C492.55,271.99,494.29,271.53,495.98,272.08z"/>
	<path style="fill-rule:evenodd;clip-rule:evenodd;fill:#657C61;" d="M482.21,271.84c-1.42,0.52-2.89,0.11-4.33,0.24
		C479.29,271.55,480.76,271.98,482.21,271.84z"/>
	<path style="fill-rule:evenodd;clip-rule:evenodd;fill:#6F806D;" d="M484.14,267.03c-1.44,0-2.88,0.01-4.32,0.01
		C481.26,266.65,482.7,266.66,484.14,267.03z"/>
	<path style="fill-rule:evenodd;clip-rule:evenodd;fill:#739671;" d="M500.92,289.35c0.11-1.11-0.25-2.26,0.22-3.34
		C501.05,287.12,501.42,288.26,500.92,289.35z"/>
	<path style="fill-rule:evenodd;clip-rule:evenodd;fill:#5B6859;" d="M474.77,280.44c1.04-0.31,2.08-0.38,3.11,0.05
		C476.85,280.47,475.81,280.45,474.77,280.44z"/>
	<path style="fill-rule:evenodd;clip-rule:evenodd;fill:#5E6E5B;" d="M472.83,272.56c-0.76,0.36-1.57,0.51-2.41,0.47
		C471.18,272.62,471.99,272.52,472.83,272.56z"/>
	<path style="fill-rule:evenodd;clip-rule:evenodd;fill:#587956;" d="M477.89,272.07c-0.83,0.5-1.75,0.15-2.62,0.25
		C476.1,271.77,477.02,272.24,477.89,272.07z"/>
	<path style="fill-rule:evenodd;clip-rule:evenodd;fill:#678465;" d="M457.73,273.05c-0.52-0.85-0.15-1.77-0.25-2.66
		C457.99,271.23,457.62,272.16,457.73,273.05z"/>
	<path style="fill-rule:evenodd;clip-rule:evenodd;fill:#70936F;" d="M461.06,269.72c-0.37,0.66-0.16,1.39-0.22,2.08
		C460.59,271.07,460.19,270.33,461.06,269.72z"/>
	<path style="fill-rule:evenodd;clip-rule:evenodd;fill:#6C976C;" d="M487.46,267.11c-0.79,0.26-1.58,0.3-2.36-0.04
		C485.89,267.09,486.68,267.1,487.46,267.11z"/>
	<path style="fill-rule:evenodd;clip-rule:evenodd;fill:#6B986B;" d="M479.06,267.07c-0.78,0.34-1.57,0.3-2.36,0.04
		C477.48,267.1,478.27,267.08,479.06,267.07z"/>
	<path style="fill-rule:evenodd;clip-rule:evenodd;fill:#596F57;" d="M464.92,274.48c-0.81,0.35-1.62,0.46-2.41-0.08
		C463.32,274.43,464.12,274.46,464.92,274.48z"/>
	<path style="fill-rule:evenodd;clip-rule:evenodd;fill:#C3C3C4;" d="M457.68,279.24c-0.36-0.18-0.27-0.43-0.26-0.63
		c0.01-0.16,0.11-0.46,0.18-0.46c0.29-0.01,0.37,0.23,0.31,0.48C457.86,278.83,457.76,279.02,457.68,279.24z"/>
	<path style="fill-rule:evenodd;clip-rule:evenodd;fill:#758D71;" d="M457.95,275.21c-0.47-0.68-0.11-1.46-0.23-2.18
		C458.18,273.71,457.89,274.48,457.95,275.21z"/>
	<path style="fill-rule:evenodd;clip-rule:evenodd;fill:#657962;" d="M457.15,276.42c0.79,0.07,0.86-0.43,0.82-1.02
		c0.28,0.34,0.35,0.75,0.1,1.08C457.82,276.79,457.44,276.71,457.15,276.42z"/>
	<path style="fill-rule:evenodd;clip-rule:evenodd;fill:#647A60;" d="M472.6,280c0.64,0.1,1.33-0.23,1.93,0.24
		C473.88,280.13,473.19,280.49,472.6,280z"/>
	<path style="fill-rule:evenodd;clip-rule:evenodd;fill:#6E926D;" d="M483.66,268.4c0.64-0.22,1.27-0.3,1.89,0.06
		C484.92,268.43,484.29,268.41,483.66,268.4z"/>
	<path style="fill-rule:evenodd;clip-rule:evenodd;fill:#70976E;" d="M478.37,268.45c0.61-0.35,1.24-0.27,1.88-0.06
		C479.62,268.41,479,268.43,478.37,268.45z"/>
	<path style="fill-rule:evenodd;clip-rule:evenodd;fill:#6A946A;" d="M487.91,268.49c0.65,0.07,1.33-0.21,1.95,0.2
		C489.21,268.66,488.52,268.93,487.91,268.49z"/>
	<path style="fill-rule:evenodd;clip-rule:evenodd;fill:#657860;" d="M485.79,280.25c0.51-0.46,1.13-0.17,1.69-0.25
		C486.98,280.47,486.35,280.14,485.79,280.25z"/>
	<path style="fill-rule:evenodd;clip-rule:evenodd;fill:#5B6D59;" d="M498.42,272.08c0.8,0.11,1.09,0.46,0.56,1.2
		C499.07,272.75,498.78,272.41,498.42,272.08z"/>
	<path style="fill-rule:evenodd;clip-rule:evenodd;fill:#587756;" d="M470.9,279.76c0.57,0.07,1.19-0.21,1.71,0.25
		C472.04,279.88,471.41,280.25,470.9,279.76z"/>
	<path style="fill-rule:evenodd;clip-rule:evenodd;fill:#6C816A;" d="M469.73,298.72c0.05-0.48-0.18-1.01,0.21-1.44
		C469.91,297.77,470.14,298.29,469.73,298.72z"/>
	<path style="fill-rule:evenodd;clip-rule:evenodd;fill:#8F8E8E;" d="M497.3,270.68c-0.08,0.07-0.15,0.13-0.23,0.2
		c-0.06,0.08-0.13,0.15-0.21,0.2c-0.2-0.09-0.58-0.18-0.43-0.41C496.63,270.38,497.01,270.69,497.3,270.68z"/>
	<path style="fill-rule:evenodd;clip-rule:evenodd;fill:#698368;" d="M468.11,279.98c-0.5,0.04-0.95-0.06-1.28-0.48
		C467.31,279.52,467.74,279.67,468.11,279.98z"/>
	<path style="fill-rule:evenodd;clip-rule:evenodd;fill:#70936E;" d="M472.13,268.94c0.46-0.35,0.93-0.3,1.42-0.05
		C473.08,268.91,472.6,268.93,472.13,268.94z"/>
	<path style="fill-rule:evenodd;clip-rule:evenodd;fill:#6F8E6E;" d="M474.74,295.78c-0.04,0.49,0.19,1.03-0.19,1.48
		C474.55,296.76,474.36,296.23,474.74,295.78z"/>
	<path style="fill-rule:evenodd;clip-rule:evenodd;fill:#708D6E;" d="M474.55,298.98c0.38,0.46,0.15,0.99,0.19,1.49
		C474.36,300.01,474.55,299.48,474.55,298.98z"/>
	<path style="fill-rule:evenodd;clip-rule:evenodd;fill:#708D6E;" d="M499.48,268.47c-0.5,0-1-0.01-1.5-0.01
		C498.48,268.13,498.98,268.09,499.48,268.47z"/>
	<path style="fill-rule:evenodd;clip-rule:evenodd;fill:#719170;" d="M490.52,268.74c0.5,0.05,1.04-0.19,1.5,0.19
		C491.52,268.92,490.98,269.12,490.52,268.74z"/>
	<path style="fill-rule:evenodd;clip-rule:evenodd;fill:#587556;" d="M487.47,280.01c0.34-0.39,0.81-0.21,1.22-0.24
		C488.36,280.18,487.88,279.93,487.47,280.01z"/>
	<path style="fill-rule:evenodd;clip-rule:evenodd;fill:#6D836B;" d="M492.45,268.98c0.43,0.02,0.89-0.17,1.27,0.2
		C493.28,269.18,492.83,269.32,492.45,268.98z"/>
	<path style="fill-rule:evenodd;clip-rule:evenodd;fill:#71896F;" d="M470.44,268.02c-0.37,0.36-0.83,0.17-1.26,0.2
		C469.55,267.87,470.01,268.03,470.44,268.02z"/>
	<path style="fill-rule:evenodd;clip-rule:evenodd;fill:#6A7968;" d="M467.32,284.55c0.35,0.41,0.34,0.81,0,1.22
		C467.32,285.37,467.32,284.96,467.32,284.55z"/>
	<path style="fill-rule:evenodd;clip-rule:evenodd;fill:#657A62;" d="M467.09,273.99c-0.31,0.34-0.63,0.36-0.96,0.04
		C466.44,274.02,466.77,274,467.09,273.99z"/>
	<path style="fill-rule:evenodd;clip-rule:evenodd;fill:#F0F1F2;" d="M476.93,308.56c-0.35-0.14-0.52-0.39-0.44-0.77
		C476.64,308.04,476.79,308.3,476.93,308.56z"/>
	<path style="fill-rule:evenodd;clip-rule:evenodd;fill:#678465;" d="M457.49,270.4c-0.33,0-0.66,0-0.99,0
		C456.84,270.09,457.16,269.98,457.49,270.4z"/>
	<path style="fill-rule:evenodd;clip-rule:evenodd;fill:#698367;" d="M455.07,272.31c-0.03,0.33,0.12,0.71-0.23,0.97
		C454.84,272.93,454.75,272.57,455.07,272.31z"/>
	<path style="fill-rule:evenodd;clip-rule:evenodd;fill:#706C74;" d="M460.84,310.48c0.42,0.21,0.24,0.46,0.03,0.7
		c-0.02-0.07-0.04-0.14-0.06-0.21C460.82,310.81,460.83,310.65,460.84,310.48z"/>
	<path style="fill-rule:evenodd;clip-rule:evenodd;fill:#597558;" d="M474.5,272.34c-0.3,0.32-0.61,0.31-0.93,0.03
		C473.88,272.36,474.19,272.35,474.5,272.34z"/>
	<path style="fill-rule:evenodd;clip-rule:evenodd;fill:#C3C2C6;" d="M491.32,318.61c0.27-0.31,0.63-0.19,0.96-0.21
		c0,0.07,0,0.14-0.01,0.21C491.96,318.61,491.64,318.61,491.32,318.61z"/>
	<path style="fill-rule:evenodd;clip-rule:evenodd;fill:#677663;" d="M467.94,279.28c0.29,0.03,0.63-0.09,0.83,0.25
		C468.46,279.53,468.16,279.52,467.94,279.28z"/>
	<path style="fill-rule:evenodd;clip-rule:evenodd;fill:#587456;" d="M469.48,273.27c-0.18,0.3-0.47,0.24-0.75,0.25
		C468.92,273.25,469.21,273.28,469.48,273.27z"/>
	<path style="fill-rule:evenodd;clip-rule:evenodd;fill:#647661;" d="M469.49,279.71c0.24-0.25,0.48-0.27,0.69,0.03
		C469.96,279.73,469.73,279.72,469.49,279.71z"/>
	<path style="fill-rule:evenodd;clip-rule:evenodd;fill:#646F60;" d="M490.11,279.53c0.17-0.31,0.47-0.23,0.74-0.25
		C490.68,279.57,490.38,279.51,490.11,279.53z"/>
	<path style="fill-rule:evenodd;clip-rule:evenodd;fill:#657B62;" d="M490.83,279.29c0.22-0.3,0.46-0.34,0.72-0.05
		C491.31,279.26,491.07,279.28,490.83,279.29z"/>
	<path style="fill-rule:evenodd;clip-rule:evenodd;fill:#587456;" d="M470.44,273.03c-0.23,0.32-0.47,0.34-0.73,0.04
		C469.96,273.05,470.2,273.04,470.44,273.03z"/>
	<path style="fill-rule:evenodd;clip-rule:evenodd;fill:#B3B1B5;" d="M498.49,296c0.03,0.28,0.09,0.57-0.16,0.79
		C498.38,296.52,498.44,296.26,498.49,296z"/>
	<path style="fill-rule:evenodd;clip-rule:evenodd;fill:#596556;" d="M463.63,276.89c0.29,0.01,0.61-0.08,0.81,0.25
		C464.14,277.15,463.85,277.13,463.63,276.89z"/>
	<path style="fill-rule:evenodd;clip-rule:evenodd;fill:#667A62;" d="M465.89,274.22c-0.18,0.33-0.49,0.24-0.77,0.26
		C465.3,274.18,465.62,274.26,465.89,274.22z"/>
	<path style="fill-rule:evenodd;clip-rule:evenodd;fill:#63705F;" d="M467.8,273.76c-0.18,0.3-0.47,0.22-0.74,0.24
		C467.24,273.7,467.54,273.77,467.8,273.76z"/>
	<path style="fill-rule:evenodd;clip-rule:evenodd;fill:#86828A;" d="M495.38,318.13c0.09,0.01,0.19,0.02,0.28,0.03
		c-0.21,0.21-0.46,0.25-0.74,0.19C495.07,318.28,495.23,318.21,495.38,318.13z"/>
	<path style="fill-rule:evenodd;clip-rule:evenodd;fill:#596556;" d="M464.43,277.12c0.17,0.08,0.34,0.16,0.51,0.25
		C464.77,277.29,464.6,277.21,464.43,277.12z"/>
	<path style="fill-rule:evenodd;clip-rule:evenodd;fill:#769273;" d="M455.32,271.72c-0.01,0.23,0,0.47-0.25,0.6
		C455.15,272.12,455.23,271.92,455.32,271.72z"/>
	<path style="fill-rule:evenodd;clip-rule:evenodd;fill:#5B6D59;" d="M499,273.27c-0.08,0.17-0.16,0.34-0.24,0.5
		C498.84,273.6,498.92,273.43,499,273.27z"/>
	<path style="fill-rule:evenodd;clip-rule:evenodd;fill:#676369;" d="M501.89,310.98c-0.01-0.22,0.04-0.42,0.29-0.49
		C502.09,310.65,501.99,310.81,501.89,310.98z"/>
	<path style="fill-rule:evenodd;clip-rule:evenodd;fill:#E6E7E9;" d="M474.51,303.76c-0.07-0.18-0.14-0.36-0.21-0.54
		C474.37,303.4,474.44,303.58,474.51,303.76z"/>
	<path style="fill-rule:evenodd;clip-rule:evenodd;fill:#678465;" d="M456.52,270.38c-0.17,0.09-0.33,0.18-0.5,0.27
		C456.19,270.56,456.35,270.47,456.52,270.38z"/>
	<path style="fill-rule:evenodd;clip-rule:evenodd;fill:#B3B1B5;" d="M498,297.9c0.02,0.11,0.03,0.23,0.04,0.34
		c0.05,0.05,0.07,0.11,0.05,0.16c-0.02,0.05-0.04,0.08-0.06,0.08l0,0c-0.09,0-0.17,0-0.26,0C497.85,298.28,497.93,298.09,498,297.9z
		"/>
	<path style="fill-rule:evenodd;clip-rule:evenodd;fill:#918D94;" d="M466.82,317.21c0.17,0.07,0.33,0.14,0.5,0.2
		C467.15,317.35,466.98,317.28,466.82,317.21z"/>
	<path style="fill-rule:evenodd;clip-rule:evenodd;fill:#C9C8CC;" d="M466.79,290.08c-0.06-0.09-0.12-0.18-0.18-0.28
		C466.67,289.89,466.73,289.99,466.79,290.08z"/>
	<path style="fill-rule:evenodd;clip-rule:evenodd;fill:#E6E7E9;" d="M474.72,304.24c-0.06-0.1-0.12-0.21-0.18-0.31
		C474.61,304.03,474.66,304.13,474.72,304.24z"/>
	<path style="fill-rule:evenodd;clip-rule:evenodd;fill:#E4E4E4;" d="M496.87,271.09c0.07-0.07,0.14-0.14,0.21-0.2
		c0,0.08,0,0.17,0,0.25C497.01,271.14,496.93,271.12,496.87,271.09z"/>
	<path style="fill-rule:evenodd;clip-rule:evenodd;fill:#D8D8DA;" d="M468.03,299.21c-0.07-0.11-0.13-0.22-0.2-0.33
		C467.9,298.99,467.96,299.1,468.03,299.21z"/>
	<path style="fill-rule:evenodd;clip-rule:evenodd;fill:#C9C8CC;" d="M466.35,289.37c-0.07-0.11-0.13-0.21-0.2-0.32
		C466.22,289.15,466.28,289.26,466.35,289.37z"/>
	<path style="fill-rule:evenodd;clip-rule:evenodd;fill:#D8D8DA;" d="M468.21,299.44c-0.06-0.07-0.12-0.15-0.17-0.22
		C468.09,299.29,468.15,299.36,468.21,299.44z"/>
	<path style="fill-rule:evenodd;clip-rule:evenodd;fill:#D8D8DA;" d="M468.8,300.14c-0.08-0.1-0.17-0.19-0.26-0.29
		C468.63,299.95,468.72,300.05,468.8,300.14z"/>
	<path style="fill-rule:evenodd;clip-rule:evenodd;fill:#A7A5AA;" d="M463,283.12c0,0.08,0.01,0.16,0.01,0.24
		c-0.06,0.08-0.13,0.1-0.2,0.03c-0.04-0.03-0.07-0.05-0.1-0.08C462.8,283.25,462.9,283.19,463,283.12z"/>
	<path style="fill-rule:evenodd;clip-rule:evenodd;fill:#B3B1B5;" d="M498.25,297.2c-0.05,0.1-0.1,0.21-0.15,0.31
		C498.15,297.41,498.2,297.31,498.25,297.2z"/>
	<path style="fill-rule:evenodd;clip-rule:evenodd;fill:#B9B6BB;" d="M464.23,283.11c-0.09-0.05-0.17-0.11-0.26-0.16
		C464.05,283,464.14,283.06,464.23,283.11z"/>
	<path style="fill-rule:evenodd;clip-rule:evenodd;fill:#C8C6CA;" d="M469.74,318.39c0.07,0.06,0.14,0.11,0.22,0.17
		C469.89,318.5,469.81,318.45,469.74,318.39z"/>
	<path style="fill-rule:evenodd;clip-rule:evenodd;fill:#C9C8CC;" d="M466.51,289.59c-0.05-0.07-0.11-0.15-0.16-0.22
		C466.4,289.45,466.46,289.52,466.51,289.59z"/>
	<path style="fill-rule:evenodd;clip-rule:evenodd;fill:#807C84;" d="M463.62,315.29c0.11,0.1,0.22,0.2,0.33,0.3
		C463.84,315.49,463.73,315.39,463.62,315.29z"/>
	<path style="fill-rule:evenodd;clip-rule:evenodd;fill:#706C74;" d="M460.61,309.04c0.3,0.29,0.32,0.59,0.05,0.91
		C460.64,309.65,460.63,309.34,460.61,309.04z"/>
	<path style="fill-rule:evenodd;clip-rule:evenodd;fill:#262625;" d="M478.86,314.86c0.1-1.15,0.39-2.2,1.12-3.1
		c0.34-0.41,0.74-0.74,1.32-0.49c0.59,0.25,0.3,0.72,0.26,1.12c-0.11,1.02-0.17,2.06-0.72,2.98c-0.33,0.56-0.82,1.21-1.44,1.03
		C478.83,316.25,478.9,315.44,478.86,314.86z"/>
	<path style="fill-rule:evenodd;clip-rule:evenodd;fill:#232322;" d="M468.98,312.84c-0.21-0.08-0.42-0.15-0.64-0.23
		c-0.13-0.04-0.22-0.12-0.3-0.23l0.01,0.01c-0.1-0.06-0.19-0.15-0.25-0.25l0.01,0.01c-0.13-0.06-0.2-0.16-0.23-0.3
		c0.01-0.08-0.02-0.13-0.08-0.18c-0.05-0.09-0.11-0.17-0.18-0.25l0.01,0.01c-0.17-0.13-0.13-0.36-0.24-0.52
		c0.02-0.08,0-0.14-0.05-0.2c-0.1-0.16-0.08-0.36-0.19-0.51c-0.02-0.23-0.04-0.46-0.06-0.69c-0.12-0.48-0.11-0.95-0.01-1.43
		c0.1-0.48,0.19-0.96,0.29-1.44c0.32-0.48,0.64-0.96,0.96-1.44l0,0c0.09-0.07,0.16-0.17,0.27-0.22l-0.01,0.01
		c0.07-0.12,0.17-0.21,0.32-0.23c0.37-0.13,0.81-0.12,0.94,0.26c0.44,1.28,1.94,2.31,0.92,3.98c-0.33,0.55-0.35,1.29-0.52,1.94
		C469.63,311.57,469.3,312.2,468.98,312.84z"/>
	<path style="fill-rule:evenodd;clip-rule:evenodd;fill:#D8D8DA;" d="M468.61,304.76c-0.11,0.08-0.21,0.15-0.32,0.23
		C468.4,304.91,468.51,304.83,468.61,304.76z"/>
	<path style="fill-rule:evenodd;clip-rule:evenodd;fill:#D8D8DA;" d="M468.31,304.97c-0.09,0.08-0.18,0.15-0.27,0.22
		C468.13,305.13,468.22,305.05,468.31,304.97z"/>
	<path style="fill-rule:evenodd;clip-rule:evenodd;fill:#B6B4B9;" d="M466.79,308.08c0,0.48,0,0.95,0.01,1.43
		c-0.07-0.16-0.14-0.33-0.21-0.49C466.62,308.7,466.5,308.35,466.79,308.08z"/>
	<path style="fill-rule:evenodd;clip-rule:evenodd;fill:#B6B4B9;" d="M462.81,283.39c0.07-0.02,0.14-0.03,0.2-0.03
		c1.33,1.18,0.92,2.86,1.15,4.32c0.61,3.91,0.23,7.83-0.21,11.74c-0.31,2.76,0.67,5.32,1.2,7.94c-0.98-1.52-1.32-3.25-1.4-4.98
		c-0.15-3.22,0.33-6.43,0.37-9.64C464.16,289.6,464.16,286.38,462.81,283.39z"/>
	<path style="fill-rule:evenodd;clip-rule:evenodd;fill:#78747C;" d="M499.24,315.04c-0.22,0.32-0.39,0.74-0.83,0.69
		c-0.08-0.01-0.14-0.63-0.12-0.97c0.24-3.17,0.29-6.36,1.67-9.33c-0.38,2.73-1.26,5.4-0.97,8.21
		C499.04,314.13,498.98,314.61,499.24,315.04z"/>
	<path style="fill-rule:evenodd;clip-rule:evenodd;fill:#747077;" d="M500.92,299.92c0-0.16,0-0.32,0-0.48
		c0.05-0.73,0.17-1.46,0.13-2.2c-0.01-0.23-0.01-0.49,0.35-0.44l0,0c0,1.78-0.04,3.54-0.48,5.28
		C500.71,301.36,500.75,300.64,500.92,299.92z"/>
	<path style="fill-rule:evenodd;clip-rule:evenodd;fill:#78747C;" d="M500.92,299.92c0,0.72,0,1.44,0,2.16
		c-0.16,0.48-0.32,0.96-0.48,1.44c-0.03-0.04-0.07-0.08-0.1-0.12c-0.01-0.21-0.07-0.42,0.1-0.6
		C500.46,301.82,500.58,300.85,500.92,299.92z"/>
	<path style="fill-rule:evenodd;clip-rule:evenodd;fill:#78747C;" d="M499.96,305.44c0.08-0.64,0.16-1.28,0.24-1.92l0,0
		c0.08-0.11,0.16-0.11,0.24,0v0C500.46,304.21,500.42,304.88,499.96,305.44z"/>
	<path style="fill-rule:evenodd;clip-rule:evenodd;fill:#B6B4B9;" d="M466.86,310.2c0.06,0.17,0.13,0.34,0.19,0.51
		C466.98,310.54,466.92,310.37,466.86,310.2z"/>
	<path style="fill-rule:evenodd;clip-rule:evenodd;fill:#B6B4B9;" d="M467.1,310.91c0.08,0.17,0.16,0.35,0.24,0.52
		C467.12,311.32,467.09,311.13,467.1,310.91z"/>
	<path style="fill-rule:evenodd;clip-rule:evenodd;fill:#B6B4B9;" d="M467.33,311.42c0.06,0.08,0.12,0.17,0.18,0.25
		C467.45,311.59,467.39,311.5,467.33,311.42z"/>
	<path style="fill-rule:evenodd;clip-rule:evenodd;fill:#B6B4B9;" d="M467.59,311.85c0.08,0.1,0.15,0.2,0.23,0.3
		c-0.09,0-0.17,0.01-0.26,0.01C467.57,312.06,467.58,311.95,467.59,311.85z"/>
	<path style="fill-rule:evenodd;clip-rule:evenodd;fill:#78747C;" d="M501.4,296.8c-0.58,0.8,0.08,1.83-0.48,2.64
		c-0.08-1.62-0.15-3.25,0.48-4.8C501.4,295.36,501.4,296.08,501.4,296.8z"/>
	<path style="fill-rule:evenodd;clip-rule:evenodd;fill:#79757D;" d="M500.44,303.52c-0.08,0-0.16,0-0.24,0
		c0.01-0.26-0.03-0.54,0.24-0.72C500.44,303.04,500.44,303.28,500.44,303.52z"/>
	<path style="fill-rule:evenodd;clip-rule:evenodd;fill:#C7C5C9;" d="M498.04,298.48c0-0.08,0-0.16,0.01-0.24
		c0.03,0.06,0.06,0.11,0.08,0.17C498.13,298.43,498.07,298.46,498.04,298.48z"/>
	<path style="fill-rule:evenodd;clip-rule:evenodd;fill:#B6B4B9;" d="M467.81,312.14c0.08,0.08,0.17,0.17,0.25,0.25
		C467.98,312.3,467.89,312.22,467.81,312.14z"/>
	<path style="fill-rule:evenodd;clip-rule:evenodd;fill:#B6B4B9;" d="M468.05,312.38c0.1,0.08,0.2,0.15,0.3,0.23
		C468.25,312.53,468.15,312.46,468.05,312.38z"/>
	<path style="fill-rule:evenodd;clip-rule:evenodd;fill:#548A59;" d="M479.96,314.4c-0.25-0.17-0.19-0.43-0.12-0.63
		c0.09-0.23,0.1-0.63,0.47-0.56c0.28,0.06,0.22,0.38,0.17,0.6C480.42,314.09,480.28,314.33,479.96,314.4z"/>
	<path style="fill-rule:evenodd;clip-rule:evenodd;fill:#499A59;" d="M467.72,308.73c0.1-0.46,0.16-0.94,0.31-1.39
		c0.14-0.44,0.22-1.02,0.89-0.91c0.65,0.1,0.84,0.7,0.78,1.18c-0.15,1.01-0.41,2.02-0.72,3c-0.18,0.57-0.52,0.33-0.76-0.03
		C467.85,310.02,467.72,309.4,467.72,308.73z"/>
</g>
</svg>
