<?xml version="1.0" encoding="utf-8"?>
<!-- Generator: Adobe Illustrator 16.0.0, SVG Export Plug-In . SVG Version: 6.00 Build 0)  -->
<!DOCTYPE svg PUBLIC "-//W3C//DTD SVG 1.0//EN" "http://www.w3.org/TR/2001/REC-SVG-20010904/DTD/svg10.dtd" [
	<!ENTITY ns_flows "http://ns.adobe.com/Flows/1.0/">
	<!ENTITY ns_extend "http://ns.adobe.com/Extensibility/1.0/">
	<!ENTITY ns_ai "http://ns.adobe.com/AdobeIllustrator/10.0/">
	<!ENTITY ns_graphs "http://ns.adobe.com/Graphs/1.0/">
]>
<svg version="1.0" id="Layer_1" xmlns:x="&ns_extend;" xmlns:i="&ns_ai;" xmlns:graph="&ns_graphs;"
	 xmlns="http://www.w3.org/2000/svg" xmlns:xlink="http://www.w3.org/1999/xlink" xmlns:a="http://ns.adobe.com/AdobeSVGViewerExtensions/3.0/"
	 x="0px" y="0px" width="960px" height="560px" viewBox="0 0 960 560" style="enable-background:new 0 0 960 560;"
	 xml:space="preserve">
<g>
	<path style="fill-rule:evenodd;clip-rule:evenodd;fill:#222221;" d="M506.38,272.84c-0.36-2.59-1.03-5.09-4.17-5.71
		c-0.55-0.11-0.51-0.53-0.57-0.91c-0.25-1.53-0.41-3.08-0.77-4.58c-1.06-4.33-1.48-8.94-5.08-12.23c-0.62-0.56-1.09-1.28-1.67-1.88
		c-4.39-4.6-9.26-7.87-16.09-6.22c-2.69,0.65-5.6,0.62-8.04,2.03c-5.77,3.33-9.75,8.11-11.33,14.72c-0.75,3.15-0.66,6.41-1.38,9.56
		c-0.18,0.76-0.4,1.29-1.24,1.66c-2.32,1.02-3.35,4.97-1.61,6.62c1.66,1.57,2.07,3.37,2.45,5.48c1.43,7.97,1.91,16.04,2.78,24.07
		c0.15,0.07,0.28,0.04,0.37-0.1c0.2-0.33,0.18-0.7,0.24-1.06c0.11-2.63-0.09-5.24-0.33-7.85c-0.08-0.31-0.15-0.61-0.16-0.93
		c-0.11-2.7-0.45-5.37-0.88-8.04c-0.18-0.89-0.39-1.76-0.4-2.66c0-0.38,0.07-0.62,0.52-0.5c0.58,0.09,1.14-0.17,1.71-0.12
		c0.23-0.01,0.45-0.01,0.68-0.03c0.11-0.01,0.22-0.02,0.33-0.05c0.26-0.06,0.51-0.14,0.77-0.23c0.1-0.04,0.19-0.08,0.28-0.13
		c0.13-0.07,0.25-0.15,0.37-0.24c0.15-0.1,0.32-0.17,0.5-0.14c0.09,0.03,0.17,0.06,0.26,0.09c0.13,0.08,0.25,0.16,0.38,0.24
		c0.29,0.2,0.6,0.37,0.9,0.57c0.49,0.33,0.7,0.72,0.45,1.31c-0.49,1.17-0.37,2.33,0.12,3.47c0.05,0.1,0.09,0.2,0.15,0.29
		c0.06,0.09,0.11,0.18,0.18,0.27c0.03,0.04,0.06,0.09,0.09,0.13c0.06,0.09,0.11,0.18,0.17,0.26c0.05,0.09,0.1,0.18,0.15,0.27
		c0.07,0.14,0.15,0.29,0.24,0.42c1.05,1.06,1.2,2.14,0.39,3.5c-0.94,1.57-0.67,3.21,0.28,4.74c0.05,0.1,0.11,0.19,0.18,0.28
		c0.06,0.09,0.12,0.18,0.19,0.27c0.03,0.04,0.06,0.09,0.1,0.13c0.06,0.09,0.12,0.18,0.19,0.26c0.12,0.19,0.25,0.37,0.39,0.54
		c0.11,0.14,0.22,0.27,0.34,0.4c0.41,0.34,0.65,1.05,1.32,0.84c0.59-0.19,0.66-0.85,0.81-1.39c0.09-0.31,0.13-0.63,0.2-0.94
		c0.23-1.07,0.05-2.16,0.2-3.22c0.17-1.15,0.84-2.05,1.39-1.8c0.86,0.4,0.73,1.25,0.64,1.99c-0.29,2.29-0.23,4.54,0.53,6.75
		c0.04,0.11,0.08,0.23,0.12,0.34c0.08,0.21,0.17,0.43,0.24,0.65c0.04,0.11,0.07,0.21,0.12,0.32c0.07,0.16,0.13,0.32,0.21,0.47
		c0.28,0.6,0.56,1.21,0.89,1.79c0.48,0.83,0.68,1.86,1.62,2.38c1.08-0.29,1.68-1,1.56-2.68c-0.22-3.21,1.21-6.07,1.68-9.12
		c0.18-1.14,1.15-1.49,2.18-0.93c0.65,0.35,1.09,0.92,1.54,1.48c0.95,1.07,1.76,2.27,2.93,3.14c0.95,0.47,1.6,1.2,1.86,2.22
		c0.48,1.85,0.94,3.7,2.1,5.29c0.31,0.42,0.28,0.99,0.41,1.49c0.41,1.36,0.47,2.81,0.92,4.16c0.26,0.51,0.42,1.09,1,1.36
		c0.51,0.04,0.89-0.23,1.24-0.55c0.75-0.8,1.2-1.75,1.49-2.8c0.44-1.56,0.09-3.16,0.22-4.73c0.04-1.25-0.12-2.51,0.1-3.76
		c0.25-1.62,1.05-3.04,1.61-4.55c0.09-0.21,0.17-0.41,0.25-0.62c0.06-0.15,0.11-0.3,0.15-0.45c0.05-0.15,0.1-0.3,0.14-0.45
		c0.04-0.15,0.08-0.3,0.09-0.45c0.03-0.26,0.09-0.51,0.17-0.75c0.03-0.1,0.05-0.21,0.06-0.31c0.04-0.8,0.01-1.61,0.58-2.26
		c0.25-0.34,0.5-0.69,0.76-1.04c0.27-0.34,0.58-0.65,0.82-1.01c0.28-0.42,0.56-0.85,0.77-1.31c0.18-0.43,0.27-0.9,0.41-1.35
		c0.12-2.02,0.35-4.02,1.03-5.94c0.2-0.56,0.39-1.12,0.7-1.63c0.16,0.55,0.03,1.11,0.06,1.67c0.02,0.32,0.02,0.63,0,0.94
		c-0.11,1.54-0.47,3.06-0.48,4.61c-0.02,0.42-0.05,0.83-0.02,1.25c0.01,0.14,0.01,0.28,0.02,0.42c0.02,3.59,0.03,7.18-0.07,10.76
		c-0.09,3.3-0.16,6.63-1.58,9.74c-0.09,0.24-0.16,0.48-0.2,0.73c-0.03,0.17-0.07,0.33-0.12,0.49c-0.04,0.1-0.08,0.19-0.12,0.29
		c-0.08,0.14-0.16,0.26-0.25,0.39c-0.35,0.53-0.63,1.1-1,1.61c-0.09,0.13-0.19,0.26-0.28,0.39c-0.06,0.09-0.13,0.17-0.18,0.27
		c-0.33,0.5-0.78,0.89-1.2,1.3c-0.08,0.07-0.15,0.15-0.23,0.23c-0.04,0.04-0.07,0.08-0.11,0.11c-0.07,0.07-0.15,0.15-0.21,0.23
		c-0.18,0.18-0.36,0.36-0.55,0.53c-0.44,0.37-0.93,0.63-1.48,0.77c-0.1,0.03-0.2,0.06-0.3,0.1c-0.26,0.1-0.53,0.1-0.8,0.12
		c-0.17,0.01-0.35,0.03-0.52,0.06c-0.67,0.18-1.35,0.15-2.03,0.14c-0.33,0-0.67,0-1-0.01c-0.14,0-0.28-0.01-0.42-0.03
		c-2.19-0.03-4.38,0.09-6.56,0.02c-0.29-0.06-0.58,0-0.87,0c-1.35,0.02-2.68,0.25-4.03,0.32c-2.92,0.21-5.84,0.46-8.74-0.18
		c-0.18-0.04-0.35-0.09-0.52-0.14c-0.1-0.04-0.2-0.09-0.3-0.13c-0.23-0.12-0.45-0.25-0.68-0.36c-0.09-0.04-0.18-0.08-0.28-0.1
		c-0.23-0.06-0.45-0.13-0.67-0.21c-0.17-0.05-0.35-0.12-0.52-0.18c-0.09-0.03-0.17-0.06-0.26-0.08c-0.18-0.05-0.36-0.12-0.52-0.19
		c-0.04-0.02-0.09-0.04-0.13-0.06c-0.09-0.04-0.19-0.08-0.28-0.1c-0.71-0.32-1.29-0.86-1.99-1.23c-0.13-0.1-0.25-0.2-0.38-0.3
		c-0.12-0.11-0.25-0.21-0.39-0.29c-1.39-0.68-1.96-1.94-2.37-3.33c-0.08-0.21-0.15-0.42-0.27-0.62c-0.07-0.1-0.16-0.16-0.27-0.2
		c-0.19,0.06-0.29,0.16-0.19,0.37c0,1,0.03,2.02,0.66,2.83c2.91,3.75,6.68,5.81,11.52,5.72c5.73-0.1,11.46-0.89,17.2-0.14
		c5.07,0.66,8.74-1.43,11.6-5.5c2.3-3.26,2.51-6.98,2.66-10.71c0.32-7.86,0.55-15.72,0.83-23.58c0.02-0.66-0.04-1.37,0.32-1.98
		C506.34,276.51,506.64,274.68,506.38,272.84z M497.43,267.32c-0.81,0.44-2.01,0.51-3.03,0.22c-5.18-1.5-10.48-1.88-15.84-1.69
		c-5.61,0.2-11.1,1.24-16.56,2.48c-0.92,0.21-1.38,0.18-1.26-0.91c0.05-0.43,0.01-0.88,0.01-1.32c0.42-6.54,2.42-12.35,7.99-16.3
		c5-3.55,10.59-4.64,16.6-3.24c1.96,0.46,3.61,1.52,4.94,3.01c3.64,4.08,6.24,8.67,6.82,14.22c0.04,0.4,0.17,0.79,0.17,1.18
		C497.29,265.8,498.02,267,497.43,267.32z"/>
	<path style="fill-rule:evenodd;clip-rule:evenodd;fill:#636066;" d="M459.89,304.45c-0.08-2.71-0.17-5.42-0.25-8.13
		c0.85-3.46,1.17-6.88-0.47-10.22c-0.07-0.14-0.11-0.28-0.19-0.41c-0.07,0.16,0.03,0.31,0,0.47c-0.06,0.39,0.13,0.91-0.51,1.02
		c-0.13-0.93-0.24-1.85-0.38-2.78c-0.04-0.26-0.24-0.56,0.07-0.73c0.35-0.2,0.57,0.09,0.77,0.34c1.56,0.04,1.87,1.24,2.21,2.41
		c0.81,2.8,0.9,5.64,0.44,8.5c-0.08,0.52-0.12,1.02-0.13,1.54c-0.08,4.29-0.14,8.58,0.82,12.81c0.2,0.88,0.08,1.76-0.22,2.59
		c-0.24,0.65-0.61,0.83-1,0.07c-0.06-0.17-0.11-0.33-0.17-0.5c0.15-0.29-0.04-0.46-0.23-0.63c-0.16-0.15-0.17-0.34-0.13-0.54
		c0.1-0.36-0.06-0.67-0.21-0.98c-0.09-0.23-0.05-0.46-0.06-0.69c0-0.13,0.01-0.26,0-0.39c-0.01,0.15,0,0.31-0.15,0.41
		c-0.32-0.38-0.23-0.82-0.19-1.25C459.82,306.38,460.1,305.41,459.89,304.45z"/>
	<path style="fill-rule:evenodd;clip-rule:evenodd;fill:#30302F;" d="M460.65,310.2c0.05,0.18,0.11,0.36,0.16,0.54
		c0.16,0.17,0.18,0.32-0.02,0.47c-0.08,0.1-0.15,0.2-0.23,0.3c-0.33-0.94-0.45-1.92-0.47-2.91c0.04-0.18,0.09-0.36,0.13-0.54
		c0.04,0.12,0.11,0.24,0.13,0.36c0.05,0.29-0.07,0.63,0.23,0.86C460.81,309.57,460.72,309.89,460.65,310.2z"/>
	<path style="fill-rule:evenodd;clip-rule:evenodd;fill:#232322;" d="M459.89,304.45c0.3,0.96,0.38,1.93,0.01,2.9
		c-0.02-0.15-0.03-0.29-0.04-0.44c-0.15-0.49-0.17-0.97,0.02-1.45C459.88,305.12,459.89,304.78,459.89,304.45z"/>
	<path style="fill-rule:evenodd;clip-rule:evenodd;fill:#636066;" d="M459.88,305.45c-0.01,0.48-0.01,0.97-0.02,1.45
		c-0.28-0.46-0.2-0.97-0.2-1.47C459.73,305.46,459.8,305.46,459.88,305.45z"/>
	<path style="fill-rule:evenodd;clip-rule:evenodd;fill:#563585;" d="M484.15,267.27c0.32,0.02,0.64,0.03,0.96,0.04
		c0.87,0.26,1.78-0.1,2.64,0.2c2.79-0.04,5.46,0.81,8.22,1.08c0.67,0.07,1.34,0.08,2.01,0.11c0.5-0.16,1.01-0.17,1.51,0.01
		c1.44,0.25,3,0.23,4.28,0.83c1.26,0.59,1.49,2.16,1.71,3.49c0.32,1.98-0.16,3.76-1.33,5.4c-1.67,2.33-2.42,5.04-3,7.81
		c-0.31,1.11,0.09,2.26-0.23,3.36c0.05,0.81-0.48,1.31-0.99,1.82c-1.46,1.47-2.56,2.98-2.42,5.32c0.12,2-1.22,3.75-2.02,5.56
		c-0.42,0.95-0.64,1.87-0.56,2.88c0.19,2.1,0.18,4.21,0.01,6.32c0,0.16,0.03,0.33-0.01,0.48c-0.16,0.67-0.1,1.69-0.86,1.77
		c-0.85,0.09-0.72-0.96-0.94-1.55c-0.8-2.19-1.11-4.56-2.4-6.57c-0.06-0.1-0.13-0.23-0.11-0.33c0.38-2.68-1.35-4.15-3.19-5.57
		c-0.66-0.51-1.32-1.07-1.4-2c-0.04-0.38-0.28-0.41-0.58-0.44c-0.86-0.09-1.29-0.67-1.58-1.41c-0.29-0.52-0.7-0.92-1.21-1.23
		l0.01,0.01c-0.13-0.17-0.36-0.12-0.5-0.25c-2.29,0.55-2.96,1.33-3.33,3.65c-0.45,2.78-0.95,5.55-1.43,8.32
		c-0.04,0.25,0.11,0.62-0.27,0.71c-0.43,0.1-0.52-0.32-0.64-0.58c-0.89-1.88-1.55-3.83-1.92-5.88c0.09-0.47,0.14-0.93-0.03-1.4
		c0-0.58,0-1.15,0-1.73c0.23-0.47-0.05-1.01,0.2-1.48c0.12-1.05-0.81-1.77-0.85-2.82c-0.01-0.38-0.84-0.51-1.37-0.45
		c-1.47,0.17-2.3,1.08-2.32,2.55c-0.01,0.76,0.04,1.52-0.27,2.24c-0.26,0.45,0.06,0.99-0.21,1.44c-0.23,0.85-0.57,0.23-0.79,0.02
		c-1.32-1.22-1.61-3.02-0.52-4.54c1.06-1.46,0.83-2.58-0.35-3.77c-1.27-1.28-2.17-2.65-0.9-4.52c0.37-0.54,0.3-1.34-0.24-1.89
		c-1.15-1.18-2.52-2.06-4.05-2.67c-0.74-0.3-2.24-3.73-1.77-4.34c0.35-0.45,0.77-0.07,1.12,0.15c4.34,2.76,9.2,3.81,14.23,4.3
		c1.91,0.17,3.81,0.16,5.72,0c6.27-0.64,12.3-2.06,17.6-5.69c1.02-0.7,1.98-1.74,1.73-2.9c-0.27-1.27-0.97-2.53-2.72-2.73
		c-2.27-0.26-4.51-0.79-6.77-1.21c-0.47-0.17-0.94-0.13-1.41-0.02c-0.25-0.07-0.5-0.15-0.76-0.22c-0.63-0.26-1.32,0.08-1.95-0.2
		c-0.79-0.01-1.58-0.02-2.36-0.04c-0.63-0.17-1.26-0.13-1.89-0.02c-1.13,0-2.26,0-3.39,0c-0.63-0.11-1.26-0.14-1.89,0.02
		c-1.51,0.09-3.02,0.18-4.53,0.27c-0.55,0.29-1.17-0.06-1.72,0.22c-2.48,0.59-5.01,0.95-7.46,1.67c-1.28,0.38-2.44,1.16-3.83,1.19
		c-0.08-0.71-0.39-1.45,0.22-2.09c2.63-0.93,5.38-1.17,8.12-1.49c0.39-0.23,0.87,0.03,1.26-0.2c2.09-0.31,4.17-0.63,6.26-0.94
		c0.79,0.12,1.58,0.14,2.36-0.01c0.33-0.07,0.67-0.15,1-0.22C481.41,267.32,482.79,266.98,484.15,267.27z"/>
	<path style="fill-rule:evenodd;clip-rule:evenodd;fill:#402B66;" d="M467.93,279.52c-1.16-0.7-2.32-1.41-3.49-2.11
		c-0.2-0.3-0.58-0.09-0.81-0.29c-1.12-0.44-1.27-1.52-1.61-2.47c-0.06-0.06-0.07-0.1-0.03-0.13c0.03-0.03,0.05-0.04,0.08-0.04
		c0.15,0.05,0.3,0.1,0.45,0.15c0.79,0.39,1.59,0.23,2.4,0.09c0.07-0.01,0.13-0.02,0.2-0.01c0.22-0.21,0.57,0,0.77-0.26
		c0.08-0.06,0.16-0.13,0.24-0.19c0.33,0.14,0.65,0.18,0.96-0.04l-0.02,0.01c0.21-0.2,0.54-0.01,0.74-0.24
		c0.64-0.23,1.29-0.46,1.93-0.69c0.25,0.13,0.49,0.15,0.71-0.04l-0.02,0.01c0.79-0.22,1.61-0.3,2.41-0.46
		c0.19-0.27,0.47-0.23,0.75-0.21c0.3,0.12,0.6,0.14,0.9-0.01c0.26-0.01,0.52-0.02,0.78-0.03c0.85-0.34,1.78,0.11,2.63-0.25
		l-0.01,0.01c1.43-0.33,2.9,0.1,4.33-0.23c1.15-0.49,2.36-0.22,3.53-0.21c1.7,0.02,3.43-0.3,5.11,0.2c1.24,0.25,2.5,0.05,3.75,0.12
		c0.47,0.03,0.95-0.1,1.4,0.11c0.79,0.43,1.69,0.76,1.71,1.91c0,0.19,0.26,0.53,0.41,0.53c0.44,0.01,0.41-0.51,0.65-0.75
		c0.15-0.14,0.11-0.36,0.24-0.5l-0.01,0.02c0.14-0.24,0.27-0.49-0.03-0.71c-0.57-0.54-1.42-0.73-1.87-1.43
		c-0.09-0.05-0.12-0.12-0.1-0.22c0.07-0.13,0.21-0.17,0.32-0.24c1.32,0.49,3.16,0.67,3.24,2.37c0.07,1.52-1.51,2.28-2.68,3.11
		c-1.94,1.37-4.08,2.32-6.31,3.08c-0.25-0.13-0.49-0.16-0.71,0.04l0.02-0.01c-0.2,0.21-0.54,0.01-0.74,0.24
		c-0.85,0.32-1.72,0.52-2.63,0.47c-0.44,0.3-1-0.06-1.44,0.23l-0.1,0.02l-0.1,0c-2.66,0.19-5.31,0.59-7.98,0.24l0.02,0.01
		c-1.03-0.25-2.07-0.16-3.11-0.05c-0.09-0.07-0.17-0.14-0.26-0.21c-0.61-0.31-1.31,0.08-1.92-0.23l0.01,0.01
		c-0.54-0.34-1.18,0.06-1.72-0.25c-0.24-0.01-0.47-0.01-0.71-0.02c-0.22-0.16-0.45-0.13-0.68-0.02c-0.27,0.02-0.54,0.07-0.73-0.2
		C468.53,279.54,468.18,279.7,467.93,279.52z"/>
	<path style="fill-rule:evenodd;clip-rule:evenodd;fill:#FBFCFC;" d="M483.4,318.87c-1.35,0.09-2.7,0.18-4.05,0.27
		c-0.71,0.2-1.43,0.08-2.15,0.07c-0.9-0.45-1.14-1.34-1.26-2.19c-0.34-2.33-0.7-4.66-0.59-7.03c0.01-0.28,0.02-0.56,0.08-0.83
		c0.1-0.4,0.23-0.81,0.67-0.92c0.42-0.1,0.61,0.29,0.83,0.56c0.32,0.15,0.52,0,0.7-0.26c0.4-0.57,0.72-1.2,0.68-1.88
		c-0.2-3.32,1.07-6.38,1.66-9.55c0.31-1.63,1.64-2.1,2.96-1.05c0.59,0.47,1.15,0.99,1.51,1.67c-0.4,1.83,0.08,3.54,0.63,5.27
		c1.3,4.1,1.58,8.2-0.16,12.27C484.4,316.46,484.35,317.85,483.4,318.87z"/>
	<path style="fill-rule:evenodd;clip-rule:evenodd;fill:#C9C8CC;" d="M459.6,268.19c-0.03,3.61,0.34,6.73,0.88,9.85
		c0.04,0.23,0.17,0.6,0.06,0.69c-1.35,1.15,0.11,1.43,0.59,2.03c0.38,0.48,1.2,1.04,0.8,1.57c-0.71,0.95-1.94,0.46-2.93,0.44
		c-0.75-0.02-0.47-0.78-0.52-1.25c-0.06-0.65,0.01-1.44,0.46-1.81c1-0.83,0.57-1.68,0.35-2.61c-1.94-8.25-1.12-16.28,2.21-24.02
		c1.3-3.03,3.75-5.23,6.54-6.99c3.46-2.18,7.19-3.58,11.27-4.03c5.33-0.6,9.13,2.14,12.85,5.49c5.79,5.22,7.58,12.07,8.55,19.35
		c0.04,0.31,0.23,0.76-0.29,0.9c-0.41,0.11-0.8-0.02-1.1-0.33c-0.7-0.72-0.75-1.65-0.8-2.57c-0.46-7.04-3.39-12.85-8.52-17.65
		c-3.02-2.84-6.69-3.6-10.55-3.16c-4.24,0.49-8.22,2.01-11.76,4.45c-4.63,3.2-6.38,8.11-7.52,13.31
		C459.69,264.07,459.5,266.34,459.6,268.19z"/>
	<path style="fill-rule:evenodd;clip-rule:evenodd;fill:#E6E6E8;" d="M467.73,298.97c0.08,0.02,0.11,0.08,0.1,0.15
		c0.02,0.13,0.11,0.23,0.2,0.33l0.01,0.01c0.08,0.06,0.14,0.13,0.17,0.22c0.11,0.14,0.23,0.28,0.34,0.42
		c0.04,0.14,0.13,0.23,0.26,0.29c0.46,0.3,0.7,1.19,1.18,1.03c0.57-0.19,0.64-1.01,0.7-1.64c0.11-1.11,0.19-2.22,0.29-3.32
		c0.03-0.31,0.08-0.63,0.16-0.94c0.22-0.88,0.6-1.91,1.6-1.76c1.11,0.16,1.18,1.33,1.02,2.24c-0.42,2.48-0.2,4.9,0.49,7.29
		c-1.15,4.79-1.48,9.6-0.26,14.43c0.12,0.47,0.21,0.94-0.09,1.38c-0.48,0.28-1.01,0.07-1.51,0.14c-0.69,0.1-1.07-0.25-1.17-0.88
		c-0.35-2.32-1.16-4.52-1.58-6.81c-0.01-0.89,0.26-1.73,0.54-2.56c0.35-1.03-0.17-2.88-1.02-3.52c-0.13-0.1-0.3-0.1-0.46-0.09
		c-0.11,0.03-0.22,0.05-0.33,0.08c-0.06,0.02-0.12,0.03-0.18,0.05c-0.13,0.03-0.25,0.02-0.37-0.03c-0.05-0.04-0.11-0.08-0.16-0.11
		c-0.84-1.82-1.03-3.72-0.7-5.67C467.01,299.32,467.07,298.76,467.73,298.97z"/>
	<path style="fill-rule:evenodd;clip-rule:evenodd;fill:#F3F3F4;" d="M483.4,318.87c0.47-1.43,0.88-2.88,1.41-4.28
		c1.45-3.82,1.09-7.62-0.04-11.43c-0.32-1.06-0.66-2.13-0.85-3.21c-0.14-0.77-0.13-1.6,0.53-2.22c0.86,0.96,1.71,1.92,2.57,2.88
		c0.62,1.07,0.53,2.31,0.79,3.47c0.97,4.36,0.61,8.63-0.92,12.81c-0.23,0.63-0.37,1.32-0.95,1.75c-0.58,0.28-1.22-0.03-1.8,0.2
		C483.88,318.85,483.64,318.86,483.4,318.87z"/>
	<path style="fill-rule:evenodd;clip-rule:evenodd;fill:#EBEBED;" d="M485.79,318.57c2.15-4.79,2.77-9.74,1.57-14.89
		c-0.23-1-0.47-2.02-0.34-3.07c1.09,0.22,1.77,0.96,2.03,1.96c0.55,2.1,1.19,4.16,2.33,6.03c0.19,0.31,0.16,0.76,0.24,1.15
		c-0.06,1.49-0.56,2.87-1.07,4.24c-0.46,1.23-0.9,2.46-1.25,3.72c-0.21,0.75-0.6,1.18-1.44,1.06
		C487.16,318.66,486.44,318.96,485.79,318.57z"/>
	<path style="fill-rule:evenodd;clip-rule:evenodd;fill:#F1F2F2;" d="M473.8,319.11c-0.59-3.07-1.19-6.15-0.94-9.29
		c0.15-1.92,0.5-3.83,0.81-5.74c0.05-0.31,0.09-0.75,0.58-0.79c0.07,0.04,0.09,0.1,0.06,0.18c0.1,0.17,0.06,0.39,0.21,0.54
		c0.06,0.05,0.07,0.11,0.04,0.17c0.02,0.12,0.11,0.21,0.18,0.31c0.74,1.44,1.47,2.88,2.21,4.32c-0.6-0.47-1.18-0.54-1.18,0.4
		c0,3.37-0.15,6.77,1.41,9.92C476.04,319.31,474.92,319.32,473.8,319.11z"/>
	<path style="fill-rule:evenodd;clip-rule:evenodd;fill:#706C74;" d="M461.04,311.92c0.34,0.27,0.62,0.51,0.77-0.21
		c0.28-1.35,0.17-2.7-0.11-3.99c-1.09-5.07-0.69-10.14-0.21-15.23c0.25-2.66-0.35-5.25-1.33-7.74c-0.26-0.66-1.02-0.17-1.23-0.74
		c0.64-0.04,1.28-0.09,1.92-0.13c1.11,1.56,1.34,3.4,1.51,5.21c0.39,4.18-0.24,8.33-0.43,12.49c-0.08,1.91,0.41,3.71,0.94,5.51
		c0.75,2.53,1.25,5.12,2.14,7.61c0.39,1.1,0.15,1.34-0.81,1.32c-0.08-0.06-0.16-0.12-0.24-0.18c-0.06-0.16-0.17-0.26-0.33-0.3
		C461.98,314.89,461.37,313.5,461.04,311.92z"/>
	<path style="fill-rule:evenodd;clip-rule:evenodd;fill:#5C595E;" d="M503.77,290.07c0.01,3.96,0.16,7.92-0.02,11.87
		c-0.14,3.15-0.14,6.39-1.79,9.27c-0.69,0.64-1.07,0.24-1.28-0.43c-0.24-0.78-0.19-1.59-0.09-2.38c0.18-1.54,0.31-3.1,0.72-4.61
		c0.52-1.95,0.41-3.96,0.67-5.94c0.13-1,0.29-1.98,0.66-2.91c0.46-1.14,0.62-2.31,0.58-3.52c-0.03-0.43-0.01-0.85,0.2-1.24
		C503.5,290.05,503.62,290.01,503.77,290.07z"/>
	<path style="fill-rule:evenodd;clip-rule:evenodd;fill:#D8D8DA;" d="M467.73,298.97c-0.68,0.17-0.47,0.82-0.5,1.2
		c-0.15,1.81-0.07,3.61,0.81,5.27c0.02,0.79-0.4,1.32-1.04,1.72c-0.72,0.12-0.88-0.41-1.03-0.91c-0.66-2.27-0.95-4.54-0.79-6.95
		c0.2-2.89,0.45-5.8,0.29-8.72c-0.03-0.55-0.22-1.25,0.62-1.45c0.06,0.04,0.08,0.09,0.06,0.16c0.03,0.13,0.11,0.22,0.2,0.32
		l0.01,0.01c0.08,0.05,0.14,0.12,0.16,0.22c0.03,0.07,0.07,0.14,0.1,0.21c0.06,0.09,0.12,0.18,0.18,0.28
		c1.18,1.16,1.84,2.28,0.63,3.95C466.32,295.78,466.91,297.44,467.73,298.97z"/>
	<path style="fill-rule:evenodd;clip-rule:evenodd;fill:#C9C8CC;" d="M466.09,289.13c-0.26,0.23-0.32,0.5-0.29,0.85
		c0.29,3-0.01,6.02-0.24,8.99c-0.19,2.55,0.12,4.94,0.78,7.35c0.12,0.42,0.15,0.83,0.74,0.56c0.42,0.5,0.12,0.99,0.01,1.49
		c-0.18,0.34-0.14,0.82-0.62,0.97c-0.96-0.57-1.05-1.64-1.35-2.54c-0.92-2.66-1.18-5.41-0.84-8.22c0.21-1.7,0.24-3.43,0.23-5.12
		c-0.01-3.24,0.01-6.53-0.97-9.7c-0.08-0.25-0.35-0.61,0.22-0.66c0.08,0,0.15,0.03,0.2,0.09c0.09,0.04,0.18,0.1,0.26,0.16
		c0.24,0.13,0.48,0.28,0.72,0.4c0.95,0.49,1.72,0.95,0.9,2.27C465.23,287,465.75,288.11,466.09,289.13z"/>
	<path style="fill-rule:evenodd;clip-rule:evenodd;fill:#807C84;" d="M464.19,316.01c0.48-0.1,0.81-0.17,0.58-0.88
		c-1.21-3.77-2.37-7.57-3.02-11.49c-0.43-2.59-0.11-5.25,0.14-7.83c0.38-3.89,0.37-7.65-0.97-11.35c-0.07-0.18-0.05-0.39-0.08-0.59
		c0.24,0,0.48,0,0.72,0c1.13,1.25,1.03,2.88,1.26,4.38c0.61,3.93,0.12,7.85-0.19,11.77c-0.17,2.17,0.1,4.29,0.76,6.36
		c0.88,2.76,1.65,5.56,2.76,8.25c0.36,0.87,0.74,1.78,0.44,2.77C465.61,317.26,465,316.47,464.19,316.01z"/>
	<path style="fill-rule:evenodd;clip-rule:evenodd;fill:#6A666D;" d="M503.56,291.28c0.08,1.37-0.09,2.67-0.62,3.96
		c-0.9,2.21-0.62,4.62-0.98,6.93c-0.41,2.66-1.13,5.29-1.03,8.02c0.02,0.62-0.03,1.41,1.04,1.02c-0.05,0.24-0.09,0.47-0.14,0.71
		c-0.05,0.09-0.11,0.18-0.18,0.25c0,0.08-0.02,0.15-0.04,0.22c-0.07,0.09-0.13,0.18-0.2,0.26c-0.4,0.64-0.8,1.28-1.19,1.92
		c-0.21-0.03-0.42-0.06-0.6-0.19c-0.48-0.41-0.46-0.98-0.5-1.54c-0.17-2.38,0.27-4.7,0.88-6.96c0.8-2.94,1.03-5.95,1.3-8.95
		c0.13-1.43,0.42-2.84,0.93-4.18C502.47,292.13,502.61,291.31,503.56,291.28z"/>
	<path style="fill-rule:evenodd;clip-rule:evenodd;fill:#C9C8CC;" d="M462.07,274.48c-0.08,0.04-0.09,0.1-0.05,0.17
		c-0.34-0.23-0.69-0.45-1.03-0.67c0.89-0.2,1.02-1.23,1.76-1.59c1.09-0.54,2.25-0.88,3.44-0.92c1.46-0.05,2.79-0.59,4.18-0.85
		c2.39-0.45,4.82-0.88,7.28-0.43c1.34,0.22,2.7,0.02,4.04,0.11c0.33,0.02,0.82-0.3,0.99,0.3c-6.27-0.05-12.32,1.46-18.41,2.65
		C463.42,273.42,462.55,273.64,462.07,274.48z"/>
	<path style="fill-rule:evenodd;clip-rule:evenodd;fill:#A8A5AB;" d="M468.05,317.89c-0.17-0.05-0.34-0.11-0.51-0.16
		c-0.86-2.52-1.79-5.02-2.68-7.53c-0.68-1.91-1.37-3.82-1.76-5.83c-0.43-2.22-0.32-4.47-0.1-6.67c0.44-4.35,0.39-8.64-0.59-12.91
		c-0.09-0.38-0.49-0.82,0.1-1.15c0.05-0.06,0.11-0.09,0.19-0.09c0.07,0.02,0.14,0.04,0.2,0.06c0.51,0.22,0.63,0.7,0.72,1.17
		c0.62,3.08,0.9,6.17,0.76,9.34c-0.15,3.32-0.75,6.66-0.1,10c0.21,1.06,0.63,2.05,0.91,3.09c0.06,0.12,0.12,0.24,0.17,0.36
		c0.56,2.52,1.67,4.87,2.48,7.31c0.21,0.64,0.43,1.28,0.49,1.96C468.39,317.22,468.56,317.66,468.05,317.89z"/>
	<path style="fill-rule:evenodd;clip-rule:evenodd;fill:#DEDEE1;" d="M485.79,318.57c2.75,0.17,2.74,0.17,3.59-2.35
		c0.73-2.16,1.49-4.32,2.23-6.48c0.31,1.43,0.62,2.85,0.94,4.28c0.18,0.41,0.07,0.8-0.12,1.15c-0.65,1.16-0.55,2.59-1.35,3.69
		c-2.32,0-4.64-0.01-6.96-0.01C484.62,318.41,485.24,318.73,485.79,318.57z"/>
	<path style="fill-rule:evenodd;clip-rule:evenodd;fill:#ACAAAF;" d="M494.44,318.62c-0.69,0.34-1.44,0.16-2.16,0.23
		c-0.02-0.05-0.04-0.11-0.06-0.16c0.05-0.1,0.13-0.19,0.22-0.25c0.67-0.2,0.8-0.8,0.99-1.35c0.26-0.77,0.65-1.51,0.71-2.34
		c2.05-2.11,1.78-4.78,1.79-7.39c0.57,0.12,0.47,0.56,0.46,0.93c0.78-2.46,1.75-4.84,2.03-7.4c0.26-2.48,0.44-4.97,0.86-7.44
		c0.24-0.32,0.47-0.64,0.71-0.96c0.55,0.06,0.46,0.48,0.4,0.81c-0.62,3.32-0.55,6.73-1.32,10.02c-0.42,1.81-1,3.59-1.58,5.36
		c-0.36,1.1-0.51,2.24-0.71,3.36C496.35,314.37,495.39,316.49,494.44,318.62z"/>
	<path style="fill-rule:evenodd;clip-rule:evenodd;fill:#9B989E;" d="M494.44,318.62c-0.2-1.58,0.98-2.72,1.32-4.16
		c1.05-4.49,2.52-8.9,3.36-13.43c0.5-2.7,0.61-5.51,1.04-8.25c0.01-0.09-0.12-0.19-0.18-0.29c0.24-0.32,0.48-0.64,0.73-0.96
		c0.54,0.05,0.52,0.48,0.44,0.8c-0.84,3.57-0.66,7.27-1.46,10.85c-0.53,2.37-1.37,4.65-1.98,7c-0.22,0.86-0.27,1.72-0.42,2.58
		c-0.33,1.9-1.07,3.66-1.76,5.43c-0.05,0.36-0.39,0.29-0.6,0.4C494.76,318.6,494.6,318.61,494.44,318.62z"/>
	<path style="fill-rule:evenodd;clip-rule:evenodd;fill:#B9B6BB;" d="M463.77,283.09c1.01,3.26,1.02,6.65,1.11,10
		c0.06,2.32-0.34,4.65-0.4,6.98c-0.09,3.23,0.45,6.35,2.11,9.19c0.21,0.09,0.32,0.27,0.41,0.46c0.07,0.19,0.11,0.39,0.13,0.58
		c0.02,0.18,0.05,0.37,0.1,0.54c0.03,0.08,0.05,0.17,0.08,0.25c0.04,0.13,0.08,0.25,0.14,0.37c0.05,0.08,0.1,0.15,0.15,0.23
		c0.06,0.08,0.11,0.16,0.16,0.24c0.05,0.09,0.1,0.18,0.15,0.27c0.05,0.1,0.09,0.2,0.13,0.3c0.02,0.05,0.03,0.11,0.05,0.16
		c0.03,0.11,0.06,0.23,0.07,0.34c0.34,1.38,0.98,2.67,1.03,4.12c0.02,0.38,0.16,0.79-0.21,1.1c-0.08,0.01-0.16-0.01-0.21-0.08
		c-0.66-0.5-0.47-1.3-0.66-1.96c-0.85-2.91-2.09-5.69-2.94-8.6l0,0c-1.16-3.06-1.49-6.17-1.16-9.47c0.44-4.43,0.58-8.91-0.47-13.32
		c-0.1-0.4-0.17-0.78-0.47-1.07c-0.11-0.12-0.13-0.24-0.05-0.38C463.2,283.1,463.32,282.65,463.77,283.09z"/>
	<path style="fill-rule:evenodd;clip-rule:evenodd;fill:#918E94;" d="M466.6,317.4c-1.31-4.12-2.69-8.22-3.89-12.37
		c-0.55-1.9-0.43-3.89-0.28-5.9c0.39-5.11,0.82-10.25-0.87-15.25c0.08-0.01,0.16-0.01,0.24-0.02c0.37,0.2,0.61,0.48,0.71,0.91
		c0.75,3.27,1.07,6.57,0.81,9.94c-0.22,2.85-0.52,5.72-0.3,8.59c0.12,1.51,0.66,2.95,1.12,4.38c0.85,2.66,1.86,5.26,2.75,7.9
		c0.2,0.58,0.86,1.3-0.08,1.89C466.74,317.47,466.66,317.45,466.6,317.4z"/>
	<path style="fill-rule:evenodd;clip-rule:evenodd;fill:#747077;" d="M503.56,291.28c-1.46,1.51-1.76,3.51-1.86,5.4
		c-0.23,4.36-1.3,8.55-2.05,12.81c-0.28,1.57-0.66,3.27,0.31,4.82c0.14,0.16,0.12,0.33,0.02,0.51l0.01-0.02
		c-0.36,0.35-0.63,1.05-1.14,0.89c-0.62-0.19-0.42-0.94-0.44-1.48c-0.09-2.6,0.26-5.14,0.98-7.64c0.02-0.13,0.05-0.26,0.09-0.38
		c0.08-0.24,0.17-0.47,0.23-0.72c0.03-0.12,0.07-0.24,0.11-0.35c0.3-1.58,0.92-3.11,0.78-4.77c0.01-0.26,0.03-0.52,0.09-0.78
		c0.15-1.45,0.41-2.89,0.38-4.36c0.2-2.11,0.92-4.09,1.54-6.09c0.14-0.45,0.42-1.15,1.16-0.51c0,0.41,0,0.81,0,1.22
		c-0.05,0.09-0.12,0.17-0.2,0.24C503.56,290.48,503.56,290.88,503.56,291.28z"/>
	<path style="fill-rule:evenodd;clip-rule:evenodd;fill:#99979D;" d="M466.82,317.46c0.44-0.54,0.12-1.07-0.05-1.58
		c-1.27-3.76-2.72-7.46-3.71-11.32c-0.53-2.05-0.38-4.13-0.19-6.17c0.43-4.57,0.68-9.1-0.58-13.59c-0.09-0.33-0.31-0.63-0.47-0.95
		c0.24-0.07,0.47-0.15,0.71-0.22c0.63,2.69,0.93,5.42,1.15,8.17c0.12,1.58,0.01,3.16-0.25,4.63c-1.2,6.75,1.37,12.7,3.62,18.73
		c0.31,0.83,0.59,1.65,0.5,2.55c-0.07-0.02-0.15-0.04-0.22-0.07C467.17,317.53,466.97,317.57,466.82,317.46L466.82,317.46z"/>
	<path style="fill-rule:evenodd;clip-rule:evenodd;fill:#66458E;" d="M457.72,273.28c0.05,0.09,0.11,0.18,0.16,0.27
		c-0.05,0.63-0.14,1.26,0.06,1.88c0.19,0.44,0.47,0.95,0.07,1.33c-0.43,0.39-0.9-0.02-1.3-0.23c-2.24-1.19-2.59-4.03-0.66-5.69
		c0.53-0.45,1.32-1.08,1.6,0.31C457.61,271.86,457.47,272.58,457.72,273.28z"/>
	<path style="fill-rule:evenodd;clip-rule:evenodd;fill:#58555A;" d="M458.47,287.18c0.33-0.33,0.13-0.75,0.21-1.13
		c0.08-0.36-0.54-0.84-0.03-1c0.34-0.1,0.63,0.5,0.83,0.89c1.33,2.53,1.35,5.25,0.96,7.97c-0.12,0.81,0.28,1.89-0.81,2.41
		c-0.23-1.87-0.47-3.75-0.7-5.62C458.78,289.52,458.63,288.35,458.47,287.18z"/>
	<path style="fill-rule:evenodd;clip-rule:evenodd;fill:#807B83;" d="M500.92,299.68c0,0.24,0,0.48,0,0.72
		c-0.15,1.71-0.66,3.36-0.96,5.04l0,0c-0.22,0.19-0.03,0.53-0.24,0.72l0,0c-0.2,0.13-0.05,0.69-0.55,0.46
		c-0.57-0.92,0.27-1.66,0.31-2.5c0.01-0.11,0.03-0.22,0.05-0.33c0.08-0.26,0.15-0.52,0.2-0.79c0.02-0.11,0.04-0.21,0.07-0.32
		c0.09-0.32,0.11-0.66,0.17-0.99c0.01-0.18,0.03-0.36,0.08-0.54c0.21-0.89,0.16-1.79,0.16-2.69c0.12-2.47,0.66-4.88,1.13-7.29
		c0.05-0.27,0.13-0.54,0.12-0.83c0.14-0.41,0.28-0.82,0.43-1.23c0.32-1.32,0.53-2.67,0.97-3.97c0.14-0.41,0.23-0.85,0.5-1.19
		c0.24-0.29,0.51-0.71,0.9-0.13c-0.16,1.6-0.32,3.2-0.48,4.8c-0.45-0.24-0.75,0.05-0.83,0.39c-0.48,2.04-1.33,3.99-1.53,6.1
		C501.04,296.62,501.13,298.17,500.92,299.68z"/>
	<path style="fill-rule:evenodd;clip-rule:evenodd;fill:#8E8A91;" d="M501.45,290.34c0.47,1.67-0.51,3.14-0.64,4.73
		c-0.09,1.14-0.25,2.27-0.37,3.41c-0.34,0.94,0.08,1.94-0.24,2.88c0,0.16,0,0.32,0,0.48c-0.27,0.27,0.02,0.68-0.24,0.96
		c0,0.08,0,0.16,0,0.24c-0.22,0.19-0.02,0.53-0.24,0.72l0,0c-1.02,3.86-1.7,7.79-2.57,11.68c-0.23,1.04-0.62,2.05-1.27,2.93
		l-0.11,0.04l-0.11,0c-0.11,0.11-0.2,0.1-0.28-0.03c-0.03-0.23-0.17-0.52-0.08-0.67c1.56-2.69,1.57-5.81,2.39-8.71
		c0.8-2.83,1.85-5.61,2.12-8.56c0.26-2.85,0.46-5.7,1.08-8.5c0.03-0.12-0.12-0.27-0.19-0.41
		C500.95,291.14,501.2,290.74,501.45,290.34z"/>
	<path style="fill-rule:evenodd;clip-rule:evenodd;fill:#DAD9DC;" d="M473.8,319.11c1.12,0,2.24,0,3.36,0
		c0.73,0.01,1.46,0.01,2.19,0.02c-3.15,0.28-6.29,0.62-9.4-0.34c-0.09-0.03-0.16-0.08-0.21-0.17l-0.01-0.01
		c-0.15-1.84-0.83-3.58-1.01-5.42c0.32-0.73,0.32-1.65,1.23-2.02c0.56,2.46,1.05,4.94,1.71,7.37
		C471.97,319.7,473.09,318.88,473.8,319.11z"/>
	<path style="fill-rule:evenodd;clip-rule:evenodd;fill:#868289;" d="M495.88,318.38c-0.08-1.14,0.75-1.98,0.97-3.03
		c0.7-3.32,1.45-6.64,2.22-9.94c0.13-0.57,0.43-1.09,0.65-1.64c0.21,1.02-0.68,1.86-0.48,2.88c0.28,0.47,0.09,1-0.07,1.36
		c-0.57,1.35-0.58,2.78-0.72,4.18c-0.17,1.79-0.52,3.53-0.88,5.28C497.12,317.96,496.56,318.28,495.88,318.38z"/>
	<path style="fill-rule:evenodd;clip-rule:evenodd;fill:#C9C8CC;" d="M482.67,270.6c-1.2-0.42-2.44-0.08-3.66-0.2
		c-0.46-0.04-0.96,0.16-1.37-0.22c5.07,0.15,10.13-0.6,15.2-0.02c0.66,0.08,1.32,0.12,1.92,0.43c-0.64,0.03-1.27,0.08-1.91,0.08
		C489.46,270.65,486.07,270.63,482.67,270.6z"/>
	<path style="fill-rule:evenodd;clip-rule:evenodd;fill:#77737B;" d="M497.57,317.46c-0.5-0.65-0.05-1.32,0.03-1.94
		c0.22-1.87,0.67-3.71,0.86-5.59c0.12-1.15,0.67-2.16,0.78-3.29c0.16-0.16,0.32-0.32,0.48-0.48c-0.46,2.63-1.17,5.24-0.96,7.95
		c0.04,0.47-0.11,1.22,0.11,1.34c0.45,0.26,0.64-0.57,1.12-0.64c-0.23,0.75-0.82,1.21-1.39,1.68c-0.14,0.04-0.24,0.13-0.32,0.25
		l0.02-0.02c-0.12,0.08-0.21,0.18-0.25,0.32C497.89,317.18,497.73,317.32,497.57,317.46z"/>
	<path style="fill-rule:evenodd;clip-rule:evenodd;fill:#C7C5C9;" d="M496.09,303.21c0.26-1.62,0.99-3.05,1.69-4.5
		c0.14-0.04,0.27-0.01,0.38,0.09c0.2,0.22,0.26,0.48,0.25,0.77c-0.15,2.32-0.67,4.56-1.62,6.69c-0.12,0.27-0.24,0.7-0.63,0.57
		c-0.28-0.1-0.17-0.5-0.16-0.76C496.04,305.12,495.89,304.16,496.09,303.21z"/>
	<path style="fill-rule:evenodd;clip-rule:evenodd;fill:#8F8B92;" d="M504.25,283.83c-0.85-0.28-0.79,0.48-0.91,0.88
		c-0.45,1.5-0.82,3.03-1.22,4.55c-0.01,0.03-0.03,0.06-0.05,0.08c-0.06-0.08-0.12-0.15-0.18-0.23c-0.08-2.83,0.52-5.52,1.75-8.06
		c0.12-0.25,0.16-0.71,0.58-0.59c0.11,0.03,0.14,0.49,0.14,0.75C504.33,282.08,504.28,282.96,504.25,283.83z"/>
	<path style="fill-rule:evenodd;clip-rule:evenodd;fill:#B3B1B5;" d="M499.26,293.45c0.62,1.01-0.01,2.03-0.07,3.02
		c-0.25,4.17-1,8.25-2.58,12.14c-0.12,0.29-0.24,0.58-0.35,0.87c-0.28-0.29-0.08-0.64-0.11-0.96c0.29-2.06,1.33-3.9,1.71-5.95
		c0.41-2.15,0.55-4.32,0.66-6.49C498.54,295.14,498.35,294.14,499.26,293.45z"/>
	<path style="fill-rule:evenodd;clip-rule:evenodd;fill:#BCBABE;" d="M498.53,296.08c0.65,1.32,0.08,2.65-0.05,3.95
		c-0.28,2.95-1.13,5.78-2.33,8.49c-0.08-0.39,0.11-0.83-0.23-1.16c-0.06-1.39-0.19-2.78,0.17-4.15c0.01,0.88,0.01,1.75,0.03,2.63
		c0.01,0.25,0.07,0.5,0.11,0.75c0.11-0.2,0.25-0.39,0.33-0.6c0.91-2.34,1.62-4.72,1.48-7.28c0-0.04,0-0.08,0-0.12
		c-0.04-0.07-0.08-0.14-0.11-0.22c0.04-0.07,0.06-0.15,0.07-0.23c0.03-0.13,0.07-0.26,0.1-0.39c0.04-0.11,0.14-0.19,0.15-0.31
		c0.03-0.14,0.05-0.28,0.08-0.41c0.12-0.25,0.03-0.54,0.16-0.79C498.46,296.17,498.47,296.12,498.53,296.08z"/>
	<path style="fill-rule:evenodd;clip-rule:evenodd;fill:#C9C8CC;" d="M468.98,313.08c0.29,1.31,0.57,2.62,0.88,3.93
		c0.13,0.56,0.15,1.1-0.13,1.62c-0.25-0.13-0.51-0.26-0.76-0.39c0.03-1.95-0.93-3.7-1.17-5.59c0.03-0.03,0.07-0.07,0.1-0.1
		c0.05,0,0.09-0.01,0.14-0.01c0.14,0.02,0.28,0.06,0.41,0.11C468.69,312.72,468.89,312.83,468.98,313.08z"/>
	<path style="fill-rule:evenodd;clip-rule:evenodd;fill:#D1D1D4;" d="M491.08,318.86c0.14-1.72,0.77-3.29,1.47-4.84
		c0.23,0.41,0.47,0.83,0.7,1.24c0.24,1.29-0.41,2.32-0.97,3.38c-0.28,0.26-0.67-0.01-0.96,0.21
		C491.24,318.85,491.16,318.86,491.08,318.86z"/>
	<path style="fill-rule:evenodd;clip-rule:evenodd;fill:#C4C2C6;" d="M492.28,318.64c0.02-1.21,0.7-2.24,0.97-3.38
		c0.29-0.17,0.59-0.34,0.89-0.51C494.6,315.98,493.36,318.57,492.28,318.64z"/>
	<path style="fill-rule:evenodd;clip-rule:evenodd;fill:#B6B4B9;" d="M465.16,307.6c1.23,2.54,2.01,5.25,2.87,7.92
		c0.28,0.87,0.49,1.76,0.73,2.64c-0.24-0.09-0.47-0.18-0.71-0.27c0.14-2.3-1.13-4.22-1.74-6.32
		C465.92,310.25,465.17,309.03,465.16,307.6z"/>
	<path style="fill-rule:evenodd;clip-rule:evenodd;fill:#5F586A;" d="M477.87,280.72c2.66-0.08,5.32-0.16,7.98-0.24
		C483.2,280.93,480.54,281.24,477.87,280.72z"/>
	<path style="fill-rule:evenodd;clip-rule:evenodd;fill:#6C5E84;" d="M494.93,311.51c0-2.11-0.01-4.21-0.01-6.32
		C495.32,307.3,495.31,309.4,494.93,311.51z"/>
	<path style="fill-rule:evenodd;clip-rule:evenodd;fill:#6D6083;" d="M482.18,281.71c-1.91,0.35-3.81,0.36-5.72,0
		C478.36,281.7,480.27,281.71,482.18,281.71z"/>
	<path style="fill-rule:evenodd;clip-rule:evenodd;fill:#68577D;" d="M495.99,272.32c-1.71-0.12-3.45,0.28-5.15-0.23
		C492.55,272.23,494.29,271.77,495.99,272.32z"/>
	<path style="fill-rule:evenodd;clip-rule:evenodd;fill:#6A5D7C;" d="M482.2,272.09c-1.42,0.51-2.89,0.11-4.33,0.23
		C479.29,271.79,480.76,272.22,482.2,272.09z"/>
	<path style="fill-rule:evenodd;clip-rule:evenodd;fill:#6F6484;" d="M484.15,267.27c-1.36-0.09-2.75,0.23-4.1-0.18
		C481.42,267.12,482.8,266.78,484.15,267.27z"/>
	<path style="fill-rule:evenodd;clip-rule:evenodd;fill:#725F8D;" d="M500.92,289.61c0.11-1.12-0.26-2.27,0.23-3.36
		C501.05,287.36,501.42,288.51,500.92,289.61z"/>
	<path style="fill-rule:evenodd;clip-rule:evenodd;fill:#5F586A;" d="M474.78,280.68c1.04-0.32,2.08-0.38,3.11,0.05
		C476.85,280.71,475.81,280.7,474.78,280.68z"/>
	<path style="fill-rule:evenodd;clip-rule:evenodd;fill:#6E588E;" d="M487.75,267.52c-0.88-0.09-1.79,0.23-2.64-0.2
		C485.99,267.36,486.9,267.04,487.75,267.52z"/>
	<path style="fill-rule:evenodd;clip-rule:evenodd;fill:#635A6F;" d="M472.84,272.81c-0.77,0.32-1.57,0.5-2.41,0.46
		C471.18,272.87,471.99,272.74,472.84,272.81z"/>
	<path style="fill-rule:evenodd;clip-rule:evenodd;fill:#5F4E77;" d="M477.88,272.31c-0.83,0.51-1.75,0.14-2.63,0.25
		C476.09,272.01,477.02,272.48,477.88,272.31z"/>
	<path style="fill-rule:evenodd;clip-rule:evenodd;fill:#6E578E;" d="M479.05,267.31c-0.79,0.34-1.57,0.33-2.36,0.01
		C477.48,267.32,478.27,267.31,479.05,267.31z"/>
	<path style="fill-rule:evenodd;clip-rule:evenodd;fill:#705D8D;" d="M461.05,269.96c-0.37,0.67-0.15,1.39-0.22,2.09
		C460.6,271.32,460.19,270.57,461.05,269.96z"/>
	<path style="fill-rule:evenodd;clip-rule:evenodd;fill:#60566F;" d="M464.91,274.73c-0.81,0.34-1.62,0.46-2.4-0.09
		C463.31,274.67,464.11,274.7,464.91,274.73z"/>
	<path style="fill-rule:evenodd;clip-rule:evenodd;fill:#C3C3C4;" d="M457.51,279.45c-0.03-0.22-0.09-0.42-0.09-0.62
		c-0.01-0.17-0.05-0.44,0.2-0.45c0.3-0.01,0.35,0.25,0.3,0.49C457.86,279.09,457.87,279.34,457.51,279.45z"/>
	<path style="fill-rule:evenodd;clip-rule:evenodd;fill:#665B7A;" d="M482.67,294.65c0.7,0.12,1.09,0.54,1.21,1.23
		C483.47,295.47,483.07,295.06,482.67,294.65z"/>
	<path style="fill-rule:evenodd;clip-rule:evenodd;fill:#7F6D99;" d="M457.72,273.28c-0.4-0.7-0.32-1.41-0.07-2.13
		C457.68,271.86,457.7,272.57,457.72,273.28z"/>
	<path style="fill-rule:evenodd;clip-rule:evenodd;fill:#705C8C;" d="M478.38,268.69c0.63-0.35,1.26-0.31,1.89-0.02
		C479.63,268.68,479,268.69,478.38,268.69z"/>
	<path style="fill-rule:evenodd;clip-rule:evenodd;fill:#705C8C;" d="M483.65,268.67c0.63-0.29,1.26-0.33,1.89,0.02
		C484.91,268.69,484.28,268.68,483.65,268.67z"/>
	<path style="fill-rule:evenodd;clip-rule:evenodd;fill:#6D588B;" d="M487.91,268.73c0.65,0.07,1.34-0.21,1.95,0.2
		C489.2,268.88,488.52,269.18,487.91,268.73z"/>
	<path style="fill-rule:evenodd;clip-rule:evenodd;fill:#807593;" d="M457.94,275.43c-0.38-0.62-0.3-1.25-0.05-1.88
		C457.91,274.18,457.92,274.81,457.94,275.43z"/>
	<path style="fill-rule:evenodd;clip-rule:evenodd;fill:#695C7A;" d="M472.6,280.24c0.64,0.09,1.33-0.22,1.92,0.23
		C473.88,280.37,473.19,280.73,472.6,280.24z"/>
	<path style="fill-rule:evenodd;clip-rule:evenodd;fill:#705D8D;" d="M472.12,269.18c0.53-0.43,1.15-0.14,1.72-0.22
		C473.31,269.4,472.7,269.13,472.12,269.18z"/>
	<path style="fill-rule:evenodd;clip-rule:evenodd;fill:#5F4F75;" d="M470.89,280c0.57,0.07,1.2-0.21,1.72,0.25
		C472.04,280.12,471.4,280.49,470.89,280z"/>
	<path style="fill-rule:evenodd;clip-rule:evenodd;fill:#705F8A;" d="M499.49,268.72c-0.5,0-1,0-1.51-0.01
		C498.48,268.37,498.99,268.33,499.49,268.72z"/>
	<path style="fill-rule:evenodd;clip-rule:evenodd;fill:#715F8D;" d="M490.61,269.15c0.47-0.28,0.94-0.31,1.41,0.02
		C491.55,269.17,491.08,269.16,490.61,269.15z"/>
	<path style="fill-rule:evenodd;clip-rule:evenodd;fill:#8F8E8E;" d="M497.3,270.92c-0.07,0.07-0.15,0.13-0.22,0.2
		c-0.06,0.08-0.13,0.15-0.21,0.21c-0.2-0.09-0.57-0.18-0.43-0.41C496.63,270.61,497,270.94,497.3,270.92z"/>
	<path style="fill-rule:evenodd;clip-rule:evenodd;fill:#705F8A;" d="M474.75,296.02c-0.05,0.49,0.19,1.03-0.2,1.48
		C474.57,296.99,474.34,296.46,474.75,296.02z"/>
	<path style="fill-rule:evenodd;clip-rule:evenodd;fill:#70608A;" d="M474.55,299.22c0.33,0.46,0.3,0.93,0.03,1.4
		C474.57,300.15,474.56,299.69,474.55,299.22z"/>
	<path style="fill-rule:evenodd;clip-rule:evenodd;fill:#6E6284;" d="M469.73,298.97c0.06-0.48-0.19-1.01,0.21-1.44
		C469.9,298.02,470.16,298.54,469.73,298.97z"/>
	<path style="fill-rule:evenodd;clip-rule:evenodd;fill:#695D79;" d="M486.04,280.47c0.42-0.43,0.96-0.16,1.44-0.23
		C487.06,280.68,486.53,280.41,486.04,280.47z"/>
	<path style="fill-rule:evenodd;clip-rule:evenodd;fill:#716289;" d="M470.43,268.26c-0.37,0.37-0.83,0.16-1.26,0.2
		C469.54,268.09,470,268.28,470.43,268.26z"/>
	<path style="fill-rule:evenodd;clip-rule:evenodd;fill:#696076;" d="M474.48,272.59c-0.29,0.3-0.59,0.29-0.9,0.01
		C473.88,272.6,474.18,272.59,474.48,272.59z"/>
	<path style="fill-rule:evenodd;clip-rule:evenodd;fill:#635970;" d="M498.95,272.81c0.61,0.21,0.23,0.47,0.03,0.71
		C498.97,273.29,498.96,273.05,498.95,272.81z"/>
	<path style="fill-rule:evenodd;clip-rule:evenodd;fill:#706C74;" d="M460.79,311.21c0.01-0.16,0.02-0.31,0.02-0.47
		c0.48,0.19,0.24,0.44,0.05,0.68C460.85,311.35,460.82,311.28,460.79,311.21z"/>
	<path style="fill-rule:evenodd;clip-rule:evenodd;fill:#C4C2C6;" d="M491.32,318.85c0.27-0.31,0.63-0.19,0.96-0.21
		c0,0.07,0,0.14-0.01,0.21C491.96,318.85,491.64,318.85,491.32,318.85z"/>
	<path style="fill-rule:evenodd;clip-rule:evenodd;fill:#6A5E7B;" d="M467.09,274.23c-0.31,0.33-0.62,0.37-0.96,0.04
		C466.45,274.25,466.77,274.24,467.09,274.23z"/>
	<path style="fill-rule:evenodd;clip-rule:evenodd;fill:#6A5A7D;" d="M470.44,273.27c-0.22,0.29-0.46,0.35-0.71,0.04
		C469.97,273.3,470.21,273.28,470.44,273.27z"/>
	<path style="fill-rule:evenodd;clip-rule:evenodd;fill:#665E71;" d="M467.8,274c-0.18,0.29-0.47,0.22-0.74,0.24
		C467.24,273.94,467.53,274.01,467.8,274z"/>
	<path style="fill-rule:evenodd;clip-rule:evenodd;fill:#B3B1B5;" d="M498.49,296.24c0.03,0.28,0.09,0.57-0.16,0.79
		C498.38,296.77,498.44,296.5,498.49,296.24z"/>
	<path style="fill-rule:evenodd;clip-rule:evenodd;fill:#685E76;" d="M469.5,279.96c0.23-0.26,0.46-0.27,0.68,0.02
		C469.95,279.97,469.72,279.97,469.5,279.96z"/>
	<path style="fill-rule:evenodd;clip-rule:evenodd;fill:#6A6177;" d="M467.93,279.52c0.29,0.02,0.63-0.08,0.83,0.24
		C468.46,279.77,468.16,279.77,467.93,279.52z"/>
	<path style="fill-rule:evenodd;clip-rule:evenodd;fill:#6B5E7B;" d="M490.83,279.53c0.22-0.29,0.46-0.35,0.71-0.04
		C491.31,279.5,491.07,279.52,490.83,279.53z"/>
	<path style="fill-rule:evenodd;clip-rule:evenodd;fill:#676071;" d="M490.12,279.77c0.17-0.3,0.47-0.23,0.74-0.24
		C490.68,279.82,490.38,279.75,490.12,279.77z"/>
	<path style="fill-rule:evenodd;clip-rule:evenodd;fill:#6A5E7B;" d="M465.89,274.46c-0.18,0.32-0.49,0.24-0.77,0.26
		C465.3,274.42,465.61,274.5,465.89,274.46z"/>
	<path style="fill-rule:evenodd;clip-rule:evenodd;fill:#868289;" d="M495.38,318.38c0.09,0.01,0.19,0.02,0.28,0.03
		c-0.21,0.22-0.46,0.25-0.74,0.19C495.07,318.52,495.23,318.45,495.38,318.38z"/>
	<path style="fill-rule:evenodd;clip-rule:evenodd;fill:#675E73;" d="M463.63,277.12c0.3,0.02,0.64-0.08,0.81,0.29
		C464.18,277.32,463.91,277.22,463.63,277.12z"/>
	<path style="fill-rule:evenodd;clip-rule:evenodd;fill:#665B7A;" d="M482.18,294.41c0.17,0.08,0.33,0.17,0.5,0.25
		C482.51,294.57,482.35,294.49,482.18,294.41z"/>
	<path style="fill-rule:evenodd;clip-rule:evenodd;fill:#635970;" d="M499,273.51c-0.08,0.17-0.16,0.33-0.24,0.5
		C498.84,273.84,498.92,273.67,499,273.51z"/>
	<path style="fill-rule:evenodd;clip-rule:evenodd;fill:#E6E6E8;" d="M474.51,304c-0.07-0.18-0.14-0.36-0.21-0.54
		C474.37,303.64,474.44,303.82,474.51,304z"/>
	<path style="fill-rule:evenodd;clip-rule:evenodd;fill:#B3B1B5;" d="M498,298.14c0.02,0.11,0.03,0.23,0.04,0.34
		c0.05,0.05,0.07,0.11,0.05,0.16c-0.02,0.05-0.04,0.08-0.06,0.08l0,0c-0.09,0-0.17,0-0.26,0C497.85,298.52,497.93,298.33,498,298.14
		z"/>
	<path style="fill-rule:evenodd;clip-rule:evenodd;fill:#77737B;" d="M499.98,314.83c-0.01-0.17-0.01-0.34-0.02-0.51
		c0.08,0.09,0.17,0.18,0.25,0.26C500.14,314.67,500.06,314.75,499.98,314.83z"/>
	<path style="fill-rule:evenodd;clip-rule:evenodd;fill:#918E94;" d="M466.82,317.46c0.17,0.07,0.33,0.14,0.5,0.2
		C467.15,317.59,466.98,317.52,466.82,317.46z"/>
	<path style="fill-rule:evenodd;clip-rule:evenodd;fill:#E6E6E8;" d="M474.72,304.48c-0.06-0.1-0.12-0.21-0.18-0.31
		C474.6,304.27,474.66,304.38,474.72,304.48z"/>
	<path style="fill-rule:evenodd;clip-rule:evenodd;fill:#B9B6BB;" d="M464.23,283.35c-0.09-0.05-0.17-0.11-0.26-0.16
		C464.05,283.24,464.14,283.3,464.23,283.35z"/>
	<path style="fill-rule:evenodd;clip-rule:evenodd;fill:#6A666D;" d="M503.56,290.09c0.07-0.08,0.13-0.16,0.2-0.24
		c0.02,0.08,0.02,0.15,0.01,0.23C503.7,290.08,503.63,290.08,503.56,290.09z"/>
	<path style="fill-rule:evenodd;clip-rule:evenodd;fill:#5C595E;" d="M501.65,312.18c0.06-0.08,0.12-0.17,0.18-0.25
		C501.76,312.01,501.71,312.09,501.65,312.18z"/>
	<path style="fill-rule:evenodd;clip-rule:evenodd;fill:#E4E4E4;" d="M496.87,271.33c0.07-0.07,0.14-0.14,0.21-0.21
		c0,0.09,0,0.17,0,0.26C497,271.38,496.93,271.36,496.87,271.33z"/>
	<path style="fill-rule:evenodd;clip-rule:evenodd;fill:#C9C8CC;" d="M466.51,289.83c-0.05-0.07-0.11-0.14-0.16-0.22
		C466.4,289.69,466.46,289.76,466.51,289.83z"/>
	<path style="fill-rule:evenodd;clip-rule:evenodd;fill:#5C595E;" d="M501.41,312.66c0.07-0.09,0.13-0.17,0.2-0.26
		C501.54,312.49,501.48,312.58,501.41,312.66z"/>
	<path style="fill-rule:evenodd;clip-rule:evenodd;fill:#C9C8CC;" d="M466.79,290.32c-0.06-0.09-0.12-0.18-0.18-0.28
		C466.67,290.13,466.73,290.23,466.79,290.32z"/>
	<path style="fill-rule:evenodd;clip-rule:evenodd;fill:#D8D8DA;" d="M468.03,299.45c-0.07-0.11-0.13-0.22-0.2-0.33
		C467.9,299.23,467.96,299.34,468.03,299.45z"/>
	<path style="fill-rule:evenodd;clip-rule:evenodd;fill:#D8D8DA;" d="M468.21,299.68c-0.06-0.07-0.12-0.15-0.17-0.22
		C468.09,299.53,468.15,299.6,468.21,299.68z"/>
	<path style="fill-rule:evenodd;clip-rule:evenodd;fill:#D8D8DA;" d="M468.8,300.38c-0.09-0.1-0.17-0.19-0.26-0.29
		C468.63,300.19,468.71,300.29,468.8,300.38z"/>
	<path style="fill-rule:evenodd;clip-rule:evenodd;fill:#B3B1B5;" d="M498.25,297.44c-0.05,0.1-0.1,0.21-0.15,0.31
		C498.15,297.65,498.2,297.55,498.25,297.44z"/>
	<path style="fill-rule:evenodd;clip-rule:evenodd;fill:#807C84;" d="M463.62,315.53c0.11,0.1,0.22,0.2,0.33,0.3
		C463.84,315.73,463.73,315.63,463.62,315.53z"/>
	<path style="fill-rule:evenodd;clip-rule:evenodd;fill:#868289;" d="M498.28,316.74c0.11-0.08,0.21-0.17,0.32-0.25
		C498.5,316.58,498.39,316.66,498.28,316.74z"/>
	<path style="fill-rule:evenodd;clip-rule:evenodd;fill:#868289;" d="M498.05,317.04c0.08-0.11,0.17-0.21,0.25-0.32
		C498.22,316.83,498.14,316.94,498.05,317.04z"/>
	<path style="fill-rule:evenodd;clip-rule:evenodd;fill:#C9C8CC;" d="M466.35,289.61c-0.07-0.11-0.13-0.21-0.2-0.32
		C466.21,289.39,466.28,289.5,466.35,289.61z"/>
	<path style="fill-rule:evenodd;clip-rule:evenodd;fill:#A8A5AB;" d="M463,283.36c0,0.08,0.01,0.16,0.01,0.24
		c-0.06,0.08-0.13,0.09-0.2,0.03c-0.04-0.03-0.07-0.05-0.1-0.08C462.8,283.49,462.9,283.43,463,283.36z"/>
	<path style="fill-rule:evenodd;clip-rule:evenodd;fill:#C9C8CC;" d="M469.74,318.63c0.07,0.06,0.14,0.11,0.21,0.17
		C469.89,318.74,469.81,318.69,469.74,318.63z"/>
	<path style="fill-rule:evenodd;clip-rule:evenodd;fill:#706C74;" d="M460.65,310.2c-0.02-0.31-0.04-0.62-0.07-0.92
		C460.93,309.56,460.92,309.87,460.65,310.2z"/>
	<path style="fill-rule:evenodd;clip-rule:evenodd;fill:#262625;" d="M478.86,315.12c0.1-1.1,0.36-2.13,1.04-3.01
		c0.36-0.46,0.76-0.85,1.39-0.6c0.66,0.26,0.29,0.8,0.26,1.23c-0.09,0.99-0.18,1.98-0.69,2.86c-0.33,0.57-0.82,1.21-1.44,1.05
		C478.83,316.51,478.9,315.69,478.86,315.12z"/>
	<path style="fill-rule:evenodd;clip-rule:evenodd;fill:#232322;" d="M468.98,313.08c-0.21-0.08-0.43-0.15-0.64-0.23
		c-0.13-0.04-0.22-0.12-0.29-0.23l0,0.01c-0.11-0.06-0.19-0.14-0.24-0.25l0.02,0.01c-0.12-0.07-0.21-0.17-0.24-0.31
		c0.01-0.07-0.02-0.13-0.08-0.17c-0.05-0.09-0.11-0.17-0.18-0.25l0.01,0.02c-0.17-0.13-0.13-0.36-0.24-0.53
		c0.02-0.08,0-0.14-0.05-0.2c-0.1-0.16-0.08-0.36-0.19-0.52c-0.02-0.23-0.04-0.46-0.06-0.68c-0.12-0.48-0.11-0.95,0-1.43
		c0.1-0.48,0.19-0.96,0.29-1.44c0.32-0.48,0.64-0.96,0.96-1.44l0,0c0.09-0.07,0.16-0.17,0.27-0.22l-0.01,0.01
		c0.07-0.12,0.17-0.21,0.32-0.23c0.37-0.13,0.81-0.12,0.94,0.26c0.44,1.28,1.94,2.31,0.92,3.98c-0.33,0.55-0.35,1.29-0.52,1.94
		C469.63,311.81,469.31,312.45,468.98,313.08z"/>
	<path style="fill-rule:evenodd;clip-rule:evenodd;fill:#D8D8DA;" d="M468.61,305c-0.11,0.08-0.21,0.15-0.32,0.23
		C468.4,305.15,468.51,305.07,468.61,305z"/>
	<path style="fill-rule:evenodd;clip-rule:evenodd;fill:#D8D8DA;" d="M468.31,305.22c-0.09,0.08-0.18,0.15-0.27,0.22
		C468.13,305.37,468.22,305.29,468.31,305.22z"/>
	<path style="fill-rule:evenodd;clip-rule:evenodd;fill:#B6B4B9;" d="M466.79,308.32c0,0.48,0,0.95,0,1.43
		c-0.07-0.16-0.14-0.33-0.21-0.49C466.62,308.94,466.5,308.59,466.79,308.32z"/>
	<path style="fill-rule:evenodd;clip-rule:evenodd;fill:#B6B4B9;" d="M462.81,283.63c0.07-0.02,0.14-0.03,0.2-0.03
		c1.33,1.18,0.92,2.86,1.15,4.32c0.61,3.91,0.23,7.83-0.21,11.74c-0.31,2.76,0.67,5.32,1.2,7.94c-0.89-1.54-1.34-3.24-1.41-4.98
		c-0.12-3.14,0.33-6.28,0.38-9.41C464.18,289.99,464.18,286.7,462.81,283.63z"/>
	<path style="fill-rule:evenodd;clip-rule:evenodd;fill:#B6B4B9;" d="M466.86,310.44c0.06,0.17,0.13,0.34,0.19,0.52
		C466.98,310.78,466.92,310.61,466.86,310.44z"/>
	<path style="fill-rule:evenodd;clip-rule:evenodd;fill:#B6B4B9;" d="M467.1,311.15c0.08,0.17,0.16,0.35,0.24,0.53
		C467.12,311.56,467.09,311.37,467.1,311.15z"/>
	<path style="fill-rule:evenodd;clip-rule:evenodd;fill:#B6B4B9;" d="M467.33,311.66c0.06,0.08,0.12,0.17,0.18,0.25
		C467.45,311.83,467.39,311.74,467.33,311.66z"/>
	<path style="fill-rule:evenodd;clip-rule:evenodd;fill:#B6B4B9;" d="M467.81,312.38c0.08,0.08,0.16,0.17,0.24,0.25
		c-0.08,0-0.17,0.01-0.25,0.01C467.8,312.55,467.81,312.47,467.81,312.38z"/>
	<path style="fill-rule:evenodd;clip-rule:evenodd;fill:#B6B4B9;" d="M467.59,312.08c0.08,0.1,0.16,0.21,0.24,0.31
		C467.75,312.29,467.67,312.18,467.59,312.08z"/>
	<path style="fill-rule:evenodd;clip-rule:evenodd;fill:#77737B;" d="M499.96,305.44c0.05-1.73,0.56-3.38,0.96-5.04
		C501.02,302.16,500.52,303.8,499.96,305.44z"/>
	<path style="fill-rule:evenodd;clip-rule:evenodd;fill:#77737B;" d="M500.92,299.68c0.06-1.53-0.23-3.1,0.48-4.56
		C501.42,296.66,501.28,298.18,500.92,299.68z"/>
	<path style="fill-rule:evenodd;clip-rule:evenodd;fill:#77737B;" d="M499.72,306.16c0.01-0.27-0.03-0.54,0.24-0.72
		C499.95,305.71,499.99,305.98,499.72,306.16z"/>
	<path style="fill-rule:evenodd;clip-rule:evenodd;fill:#868289;" d="M500.2,301.36c0.12-0.96-0.26-1.96,0.24-2.88
		C500.32,299.44,500.7,300.43,500.2,301.36z"/>
	<path style="fill-rule:evenodd;clip-rule:evenodd;fill:#868289;" d="M499.96,302.8c0.03-0.33-0.1-0.71,0.24-0.96
		C500.17,302.17,500.3,302.54,499.96,302.8z"/>
	<path style="fill-rule:evenodd;clip-rule:evenodd;fill:#868289;" d="M499.72,303.76c0.01-0.26-0.03-0.54,0.24-0.72
		C499.95,303.3,499.99,303.58,499.72,303.76z"/>
	<path style="fill-rule:evenodd;clip-rule:evenodd;fill:#C7C5C9;" d="M498.04,298.72c0-0.08,0-0.16,0.01-0.24
		c0.03,0.06,0.06,0.11,0.08,0.17C498.13,298.67,498.07,298.7,498.04,298.72z"/>
	<path style="fill-rule:evenodd;clip-rule:evenodd;fill:#B6B4B9;" d="M468.05,312.62c0.1,0.08,0.2,0.15,0.29,0.23
		C468.25,312.77,468.15,312.7,468.05,312.62z"/>
	<path style="fill-rule:evenodd;clip-rule:evenodd;fill:#5D477D;" d="M480.52,313.91c0.01,0.35-0.08,0.67-0.48,0.7
		c-0.31,0.03-0.23-0.27-0.23-0.43c0-0.31-0.08-0.71,0.35-0.77C480.48,313.36,480.5,313.67,480.52,313.91z"/>
	<path style="fill-rule:evenodd;clip-rule:evenodd;fill:#583A85;" d="M467.8,309.05c-0.05-0.55,0.01-1.05,0.22-1.54
		c0.18-0.44,0.28-0.98,0.94-0.84c0.58,0.12,0.74,0.64,0.74,1.09c-0.01,1.08-0.33,2.11-0.72,3.1c-0.21,0.55-0.52,0.35-0.77-0.01
		C467.84,310.3,467.72,309.68,467.8,309.05z"/>
</g>
</svg>
