<?xml version="1.0" encoding="utf-8"?>
<!-- Generator: Adobe Illustrator 16.0.0, SVG Export Plug-In . SVG Version: 6.00 Build 0)  -->
<!DOCTYPE svg PUBLIC "-//W3C//DTD SVG 1.0//EN" "http://www.w3.org/TR/2001/REC-SVG-20010904/DTD/svg10.dtd" [
	<!ENTITY ns_flows "http://ns.adobe.com/Flows/1.0/">
	<!ENTITY ns_extend "http://ns.adobe.com/Extensibility/1.0/">
	<!ENTITY ns_ai "http://ns.adobe.com/AdobeIllustrator/10.0/">
	<!ENTITY ns_graphs "http://ns.adobe.com/Graphs/1.0/">
]>
<svg version="1.0" id="Layer_1" xmlns:x="&ns_extend;" xmlns:i="&ns_ai;" xmlns:graph="&ns_graphs;"
	 xmlns="http://www.w3.org/2000/svg" xmlns:xlink="http://www.w3.org/1999/xlink" xmlns:a="http://ns.adobe.com/AdobeSVGViewerExtensions/3.0/"
	 x="0px" y="0px" width="960px" height="560px" viewBox="0 0 960 560" style="enable-background:new 0 0 960 560;"
	 xml:space="preserve">
<g>
	<path style="fill-rule:evenodd;clip-rule:evenodd;fill:#222221;" d="M506.38,272.84c-0.36-2.59-1.03-5.09-4.17-5.71
		c-0.55-0.11-0.51-0.53-0.57-0.91c-0.25-1.53-0.41-3.08-0.77-4.58c-1.06-4.33-1.48-8.94-5.08-12.23c-0.62-0.56-1.09-1.28-1.67-1.88
		c-4.39-4.6-9.26-7.87-16.09-6.22c-2.69,0.65-5.6,0.62-8.04,2.03c-5.77,3.33-9.75,8.11-11.33,14.72c-0.75,3.15-0.66,6.41-1.38,9.56
		c-0.18,0.76-0.4,1.29-1.24,1.66c-2.32,1.02-3.35,4.97-1.61,6.62c1.66,1.57,2.07,3.37,2.45,5.48c1.43,7.97,1.91,16.04,2.78,24.07
		c0.15,0.07,0.28,0.04,0.37-0.1c0.2-0.33,0.18-0.7,0.24-1.06c0.11-2.63-0.09-5.24-0.33-7.85c-0.08-0.31-0.15-0.61-0.16-0.93
		c-0.11-2.7-0.45-5.37-0.88-8.04c-0.18-0.89-0.39-1.76-0.4-2.66c0-0.38,0.07-0.62,0.52-0.5c0.58,0.09,1.14-0.17,1.71-0.12
		c0.23-0.01,0.45-0.01,0.68-0.03c0.11-0.01,0.22-0.02,0.33-0.05c0.26-0.06,0.51-0.14,0.77-0.23c0.1-0.04,0.19-0.08,0.28-0.13
		c0.13-0.07,0.25-0.15,0.37-0.24c0.15-0.1,0.32-0.17,0.5-0.14c0.09,0.03,0.17,0.06,0.26,0.09c0.13,0.08,0.25,0.16,0.38,0.24
		c0.29,0.2,0.6,0.37,0.9,0.57c0.49,0.33,0.7,0.72,0.45,1.31c-0.49,1.17-0.37,2.33,0.12,3.47c0.05,0.1,0.09,0.2,0.15,0.29
		c0.06,0.09,0.11,0.18,0.18,0.27c0.03,0.04,0.06,0.09,0.09,0.13c0.06,0.09,0.11,0.18,0.17,0.26c0.05,0.09,0.1,0.18,0.15,0.27
		c0.07,0.14,0.15,0.29,0.24,0.42c1.05,1.06,1.2,2.14,0.39,3.5c-0.94,1.57-0.67,3.21,0.28,4.74c0.05,0.1,0.11,0.19,0.18,0.28
		c0.06,0.09,0.13,0.18,0.19,0.27c0.03,0.04,0.06,0.09,0.1,0.13c0.06,0.09,0.12,0.18,0.19,0.26c0.12,0.19,0.25,0.37,0.39,0.54
		c0.11,0.14,0.22,0.27,0.34,0.4c0.41,0.34,0.65,1.05,1.32,0.84c0.59-0.19,0.66-0.85,0.81-1.39c0.09-0.31,0.13-0.63,0.2-0.94
		c0.23-1.07,0.05-2.16,0.2-3.22c0.17-1.15,0.84-2.05,1.39-1.8c0.86,0.4,0.73,1.25,0.64,1.99c-0.29,2.29-0.23,4.54,0.53,6.75
		c0.04,0.11,0.08,0.23,0.12,0.34c0.08,0.21,0.17,0.43,0.24,0.65c0.04,0.11,0.07,0.21,0.12,0.32c0.07,0.16,0.13,0.32,0.21,0.47
		c0.28,0.6,0.56,1.21,0.89,1.79c0.48,0.83,0.68,1.86,1.62,2.38c1.08-0.29,1.68-1,1.56-2.68c-0.22-3.21,1.21-6.07,1.68-9.12
		c0.18-1.14,1.15-1.49,2.18-0.93c0.65,0.35,1.09,0.92,1.54,1.48c0.95,1.07,1.76,2.27,2.93,3.14c0.95,0.47,1.6,1.2,1.86,2.22
		c0.48,1.85,0.94,3.7,2.1,5.29c0.31,0.42,0.28,0.99,0.41,1.49c0.41,1.36,0.47,2.81,0.92,4.16c0.26,0.51,0.42,1.09,1,1.36
		c0.51,0.04,0.89-0.23,1.24-0.55c0.75-0.8,1.2-1.75,1.49-2.8c0.44-1.56,0.09-3.16,0.22-4.73c0.04-1.25-0.12-2.51,0.1-3.76
		c0.25-1.62,1.05-3.04,1.61-4.55c0.09-0.21,0.17-0.41,0.25-0.62c0.06-0.15,0.11-0.3,0.15-0.45c0.05-0.15,0.1-0.3,0.14-0.45
		c0.04-0.15,0.08-0.3,0.09-0.45c0.03-0.26,0.09-0.51,0.17-0.75c0.03-0.1,0.05-0.21,0.06-0.31c0.04-0.8,0.01-1.61,0.58-2.26
		c0.25-0.34,0.5-0.69,0.76-1.04c0.27-0.34,0.58-0.65,0.82-1.01c0.28-0.42,0.56-0.85,0.77-1.31c0.18-0.43,0.27-0.9,0.41-1.35
		c0.12-2.02,0.35-4.02,1.03-5.94c0.2-0.56,0.39-1.12,0.7-1.63c0.16,0.55,0.03,1.11,0.06,1.67c0.02,0.32,0.02,0.63,0,0.94
		c-0.11,1.54-0.47,3.06-0.48,4.61c-0.02,0.42-0.05,0.83-0.02,1.25c0.01,0.14,0.01,0.28,0.02,0.42c0.02,3.59,0.03,7.18-0.07,10.76
		c-0.09,3.3-0.16,6.63-1.58,9.74c-0.09,0.24-0.16,0.48-0.2,0.73c-0.03,0.17-0.07,0.33-0.12,0.49c-0.04,0.1-0.08,0.19-0.12,0.29
		c-0.08,0.14-0.16,0.26-0.25,0.39c-0.35,0.53-0.63,1.1-1,1.61c-0.09,0.13-0.19,0.26-0.28,0.39c-0.06,0.09-0.13,0.17-0.18,0.27
		c-0.33,0.5-0.78,0.89-1.2,1.3c-0.08,0.07-0.15,0.15-0.23,0.23c-0.04,0.04-0.07,0.08-0.11,0.11c-0.07,0.07-0.15,0.15-0.21,0.23
		c-0.18,0.18-0.36,0.36-0.55,0.53c-0.44,0.37-0.93,0.63-1.48,0.77c-0.1,0.03-0.2,0.06-0.3,0.1c-0.26,0.1-0.53,0.1-0.8,0.12
		c-0.17,0.01-0.35,0.03-0.52,0.06c-0.67,0.18-1.35,0.15-2.03,0.14c-0.33,0-0.67,0-1-0.01c-0.14,0-0.28-0.01-0.42-0.03
		c-2.19-0.03-4.38,0.09-6.56,0.02c-0.29-0.06-0.58,0-0.87,0c-1.35,0.02-2.68,0.25-4.03,0.32c-2.92,0.21-5.84,0.46-8.74-0.18
		c-0.18-0.04-0.35-0.09-0.52-0.14c-0.1-0.04-0.2-0.09-0.3-0.13c-0.23-0.12-0.45-0.25-0.68-0.36c-0.09-0.04-0.18-0.08-0.28-0.1
		c-0.23-0.07-0.45-0.13-0.67-0.21c-0.17-0.05-0.35-0.12-0.52-0.18c-0.09-0.03-0.17-0.06-0.26-0.08c-0.18-0.05-0.36-0.12-0.52-0.19
		c-0.04-0.02-0.09-0.04-0.13-0.06c-0.09-0.04-0.19-0.08-0.28-0.1c-0.71-0.32-1.29-0.86-1.99-1.23c-0.13-0.1-0.25-0.2-0.38-0.3
		c-0.12-0.11-0.25-0.21-0.39-0.29c-1.39-0.68-1.96-1.94-2.37-3.33c-0.08-0.21-0.15-0.42-0.27-0.62c-0.07-0.1-0.16-0.16-0.27-0.2
		c-0.19,0.06-0.29,0.16-0.19,0.37c0,1,0.03,2.02,0.66,2.83c2.91,3.75,6.68,5.81,11.52,5.72c5.73-0.1,11.46-0.89,17.2-0.14
		c5.07,0.66,8.74-1.43,11.6-5.5c2.3-3.26,2.51-6.98,2.66-10.71c0.32-7.86,0.55-15.72,0.83-23.58c0.02-0.66-0.04-1.37,0.32-1.98
		C506.34,276.51,506.64,274.68,506.38,272.84z M497.48,267.29c-0.89,0.44-2.08,0.51-3.14,0.23c-1.77-0.46-3.53-0.86-5.34-1.13
		c-2.49-0.36-4.97-0.71-7.11-0.54c-7.08-0.2-13.58,1.06-20.06,2.52c-0.47,0.1-1.08,0.39-1.07-0.54c0.09-8.1,2.43-15.1,9.97-19.28
		c4.34-2.41,9.08-3.18,14-2.17c2.3,0.47,4.22,1.66,5.78,3.41c3.9,4.36,6.29,9.39,6.79,15.25
		C497.36,265.83,497.96,267.06,497.48,267.29z"/>
	<path style="fill-rule:evenodd;clip-rule:evenodd;fill:#636066;" d="M461.04,311.92c-0.06-0.17-0.11-0.33-0.17-0.5
		c0.15-0.29-0.04-0.46-0.23-0.63c-0.16-0.15-0.17-0.34-0.13-0.54c0.1-0.36-0.06-0.67-0.21-0.98c-0.09-0.23-0.05-0.46-0.06-0.69
		c0-0.13,0.01-0.26,0-0.39c-0.01,0.15,0,0.31-0.15,0.41c-0.32-0.38-0.23-0.82-0.19-1.25c-0.08-0.96,0.19-1.93-0.01-2.9
		c-0.08-2.71-0.17-5.42-0.25-8.13c0.85-3.46,1.17-6.88-0.47-10.22c-0.07-0.14-0.11-0.28-0.19-0.41c-0.07,0.16,0.03,0.31,0,0.47
		c-0.06,0.39,0.13,0.91-0.51,1.02c-0.13-0.93-0.24-1.85-0.38-2.78c-0.04-0.26-0.24-0.56,0.07-0.73c0.35-0.2,0.57,0.09,0.77,0.34
		c1.56,0.04,1.87,1.24,2.21,2.41c0.81,2.8,0.9,5.64,0.44,8.5c-0.08,0.52-0.12,1.02-0.13,1.54c-0.08,4.29-0.14,8.58,0.82,12.81
		c0.2,0.88,0.08,1.76-0.22,2.59C461.8,312.5,461.43,312.68,461.04,311.92z"/>
	<path style="fill-rule:evenodd;clip-rule:evenodd;fill:#30302F;" d="M460.65,310.2c0.05,0.18,0.11,0.36,0.16,0.54
		c0.16,0.17,0.18,0.32-0.02,0.47c-0.08,0.1-0.15,0.2-0.23,0.3c-0.33-0.94-0.45-1.92-0.47-2.91c0.04-0.18,0.09-0.36,0.13-0.54
		c0.04,0.12,0.11,0.24,0.13,0.36c0.05,0.29-0.07,0.63,0.23,0.86C460.81,309.57,460.72,309.89,460.65,310.2z"/>
	<path style="fill-rule:evenodd;clip-rule:evenodd;fill:#232322;" d="M459.89,304.45c0.3,0.96,0.38,1.93,0.01,2.9
		c-0.02-0.15-0.03-0.29-0.04-0.44c-0.15-0.49-0.17-0.97,0.02-1.45C459.88,305.12,459.89,304.78,459.89,304.45z"/>
	<path style="fill-rule:evenodd;clip-rule:evenodd;fill:#636066;" d="M459.88,305.45c-0.01,0.48-0.01,0.97-0.02,1.45
		c-0.28-0.46-0.2-0.97-0.2-1.47C459.73,305.46,459.8,305.46,459.88,305.45z"/>
	<path style="fill-rule:evenodd;clip-rule:evenodd;fill:#FEFEFE;" d="M481.53,268.47c-6.57,0.15-13.44,0.69-19.97,3.29
		c-0.22,0.09-0.73,0.48-0.72-0.07c0.01-0.58-0.58-1.47,0.6-1.74c2.53-0.59,5.08-0.99,7.64-1.4c6.37-1,12.75-1.75,19.2-0.93
		c2.61,0.33,5.2,1.05,7.81,1.07c2.47,0.02,4.81,0.45,7.18,0.93c0.36,0.07,0.67,0.08,0.89,0.46c1.33,2.35,1.99,4.75,0.39,7.22
		c-1.76,2.72-3.33,5.58-3.39,8.83c-0.05,2.85-0.88,5.09-2.95,6.97c-0.35,0.32-0.66,0.93-0.63,1.38c0.17,2.69-0.96,4.99-2.1,7.27
		c-1.12,2.23-0.41,4.55-0.46,6.83c-0.03,1.48,0.01,2.96-0.54,4.36c-0.11,0.28-0.16,0.71-0.55,0.66c-0.15-0.02-0.3-0.42-0.38-0.67
		c-0.67-2.04-1.25-4.12-2-6.13c-0.43-1.15-0.95-2.2-0.93-3.51c0.02-1.24-0.99-2.04-1.89-2.79c-1.07-0.89-1.85-2.37-2.75-2.94
		c-1.41-0.88-1.94-2.53-3.43-3.13c-1.1-0.44-3.2,0.72-3.45,1.87c-0.72,3.32-1.4,6.64-1.78,10.01c-0.03,0.23-0.11,0.44-0.17,0.67
		c-0.14-0.17-0.31-0.32-0.41-0.51c-1.59-3.33-2.57-6.78-1.93-10.53c0.2-1.18-0.37-2.4-1.08-3.07c-0.94-0.88-2.16,0.01-3.2,0.5
		c-0.38,0.18-0.38,0.47-0.36,0.79c0.09,1.49-0.36,2.93-0.46,4.4c-0.01,0.21,0.08,0.54-0.22,0.59c-0.12,0.02-0.31-0.2-0.44-0.34
		c-1.31-1.41-1.49-2.68-0.38-4.3c0.98-1.43,0.88-2.64-0.32-3.85c-0.47-0.48-0.87-1.04-1.27-1.59c-0.48-0.67-0.56-1.31-0.09-2.1
		c0.99-1.69,0.76-2.86-0.96-3.79c-1.12-0.61-2.1-1.43-3.26-2.01c-1.08-0.54-1.4-2.33-1.56-3.74c-0.06-0.52,0.36-0.16,0.53-0.06
		c3.84,2.47,8.09,3.76,12.59,4.24c8.63,0.92,16.87-0.29,24.49-4.68c0.45-0.26,0.91-0.52,1.29-0.87c0.85-0.78,1.89-1.73,1.66-2.85
		c-0.29-1.42-1-2.67-2.87-3.02C493.26,269.12,487.61,268.53,481.53,268.47z"/>
	<path style="fill-rule:evenodd;clip-rule:evenodd;fill:#E6E5E6;" d="M462.06,274.25c0.55,0.65,1.27,0.66,2.03,0.56
		c3.09-0.4,5.97-1.63,9.07-2.07c5.84-0.85,11.7-0.63,17.56-0.66c1.16-0.01,2.32,0.03,3.48,0.03c1.64,0,3.07,0.31,3.44,2.25
		c0.04,0.2,0.28,0.44,0.48,0.5c0.29,0.09,0.31-0.25,0.44-0.43c0.96-1.36,0.19-2.04-0.97-2.63c-0.38-0.19-0.69-0.53-1.03-0.79
		c0.47-0.21,0.89,0.09,1.32,0.17c0.49,0.1,0.96,0.37,1.42,0.62c1.43,0.76,1.64,1.82,0.47,2.97c-2.38,2.35-5.33,3.77-8.49,4.69
		c-5.41,1.57-10.94,1.6-16.49,1.07c-1.34-0.13-2.69-0.52-4.02-0.47c-2.97,0.11-4.83-2.26-7.37-3.14c-0.83-0.29-1.26-1.74-1.87-2.66
		C461.7,274.11,461.88,274.11,462.06,274.25z"/>
	<path style="fill-rule:evenodd;clip-rule:evenodd;fill:#FBFCFC;" d="M476.93,308.8c0.32,0.15,0.52,0,0.7-0.26
		c0.4-0.57,0.72-1.2,0.68-1.88c-0.2-3.32,1.07-6.38,1.66-9.55c0.31-1.63,1.64-2.1,2.96-1.05c0.59,0.47,1.15,0.99,1.51,1.67
		c-0.4,1.83,0.08,3.54,0.63,5.27c1.3,4.1,1.58,8.2-0.16,12.27c-0.51,1.2-0.57,2.59-1.52,3.6c-1.35,0.09-2.7,0.18-4.05,0.27
		c-0.71,0.2-1.43,0.08-2.15,0.07c-0.9-0.45-1.14-1.34-1.26-2.19c-0.34-2.33-0.7-4.66-0.59-7.03c0.01-0.28,0.02-0.56,0.08-0.83
		c0.1-0.4,0.23-0.81,0.67-0.92C476.52,308.13,476.71,308.52,476.93,308.8z"/>
	<path style="fill-rule:evenodd;clip-rule:evenodd;fill:#C9C8CC;" d="M459.6,268.07c-0.02,3.71,0.33,6.88,0.9,10.03
		c0.04,0.2,0.14,0.5,0.05,0.58c-1.34,1.18,0.13,1.5,0.63,2.13c0.36,0.46,1.02,0.9,0.79,1.51c-0.24,0.65-1.01,0.56-1.59,0.49
		c-0.62-0.08-1.55,0.44-1.8-0.41c-0.31-1.04-0.17-2.19,0.61-3.04c0.43-0.46,0.52-0.76,0.35-1.4c-2.24-8.54-1.55-16.91,2.01-24.93
		c1.83-4.14,5.45-6.7,9.48-8.6c2.72-1.28,5.57-2.09,8.59-2.39c5.12-0.5,8.76,2.14,12.33,5.3c5.94,5.24,7.81,12.21,8.77,19.62
		c0.04,0.28,0.19,0.69-0.25,0.82c-0.46,0.14-0.88-0.01-1.2-0.36c-0.67-0.73-0.71-1.67-0.77-2.59c-0.46-6.95-3.35-12.69-8.38-17.47
		c-3.08-2.93-6.79-3.73-10.74-3.27c-4.19,0.49-8.15,2-11.65,4.41c-4.67,3.22-6.44,8.16-7.57,13.41
		C459.7,264.09,459.5,266.33,459.6,268.07z"/>
	<path style="fill-rule:evenodd;clip-rule:evenodd;fill:#E6E6E8;" d="M468.8,300.38c0.46,0.3,0.7,1.19,1.18,1.03
		c0.57-0.19,0.64-1.01,0.7-1.64c0.11-1.11,0.19-2.22,0.29-3.32c0.03-0.31,0.08-0.63,0.16-0.94c0.22-0.88,0.6-1.91,1.6-1.76
		c1.11,0.16,1.18,1.33,1.02,2.24c-0.42,2.48-0.2,4.9,0.49,7.29c-1.15,4.79-1.48,9.6-0.26,14.43c0.12,0.47,0.21,0.94-0.09,1.38
		c-0.48,0.28-1.01,0.07-1.51,0.14c-0.69,0.1-1.07-0.25-1.17-0.88c-0.35-2.32-1.16-4.52-1.58-6.81c-0.01-0.89,0.26-1.73,0.54-2.56
		c0.35-1.03-0.17-2.88-1.02-3.52c-0.13-0.1-0.3-0.1-0.46-0.09c-0.11,0.03-0.22,0.05-0.33,0.08c-0.06,0.02-0.12,0.03-0.18,0.05
		c-0.13,0.03-0.25,0.02-0.37-0.03c-0.05-0.04-0.11-0.08-0.16-0.11c-0.84-1.82-1.03-3.72-0.7-5.67c0.06-0.37,0.12-0.93,0.78-0.72
		c0.08,0.02,0.11,0.08,0.1,0.15c0.02,0.13,0.11,0.23,0.2,0.33l0.01,0.01c0.08,0.05,0.14,0.13,0.17,0.22
		c0.11,0.14,0.23,0.28,0.34,0.42C468.58,300.23,468.68,300.32,468.8,300.38z"/>
	<path style="fill-rule:evenodd;clip-rule:evenodd;fill:#F3F3F4;" d="M483.4,318.87c0.47-1.43,0.88-2.88,1.41-4.28
		c1.45-3.82,1.09-7.62-0.04-11.43c-0.32-1.06-0.66-2.13-0.85-3.21c-0.14-0.77-0.13-1.6,0.53-2.22c0.86,0.96,1.71,1.92,2.57,2.88
		c0.62,1.07,0.53,2.31,0.79,3.47c0.97,4.36,0.61,8.63-0.92,12.81c-0.23,0.63-0.37,1.32-0.95,1.75c-0.58,0.28-1.22-0.03-1.8,0.2
		C483.88,318.85,483.64,318.86,483.4,318.87z"/>
	<path style="fill-rule:evenodd;clip-rule:evenodd;fill:#EBEBED;" d="M485.79,318.57c2.15-4.79,2.77-9.74,1.57-14.89
		c-0.23-1-0.47-2.02-0.34-3.07c1.09,0.22,1.77,0.96,2.03,1.96c0.55,2.1,1.19,4.16,2.33,6.03c0.19,0.31,0.16,0.76,0.24,1.15
		c-0.06,1.49-0.56,2.87-1.07,4.24c-0.46,1.23-0.89,2.46-1.25,3.72c-0.21,0.75-0.6,1.18-1.44,1.06
		C487.16,318.66,486.44,318.96,485.79,318.57z"/>
	<path style="fill-rule:evenodd;clip-rule:evenodd;fill:#F1F2F2;" d="M473.8,319.11c-0.59-3.07-1.19-6.15-0.94-9.29
		c0.15-1.92,0.5-3.83,0.81-5.74c0.05-0.31,0.09-0.75,0.58-0.79c0.07,0.04,0.09,0.1,0.06,0.18c0.1,0.17,0.06,0.39,0.21,0.54
		c0.06,0.05,0.07,0.11,0.04,0.17c0.02,0.12,0.11,0.21,0.18,0.31c0.74,1.44,1.47,2.88,2.21,4.32c-0.6-0.47-1.18-0.54-1.18,0.4
		c0,3.37-0.15,6.77,1.41,9.92C476.04,319.31,474.92,319.32,473.8,319.11z"/>
	<path style="fill-rule:evenodd;clip-rule:evenodd;fill:#706C74;" d="M461.04,311.92c0.34,0.27,0.62,0.51,0.77-0.21
		c0.28-1.35,0.17-2.7-0.11-3.99c-1.09-5.07-0.69-10.14-0.21-15.23c0.25-2.66-0.35-5.25-1.33-7.74c-0.26-0.66-1.02-0.17-1.23-0.74
		c0.64-0.04,1.28-0.09,1.92-0.13c1.11,1.56,1.34,3.4,1.51,5.21c0.39,4.18-0.24,8.33-0.43,12.49c-0.08,1.91,0.41,3.71,0.94,5.51
		c0.75,2.53,1.25,5.12,2.14,7.61c0.39,1.1,0.15,1.34-0.81,1.32c-0.08-0.06-0.16-0.12-0.24-0.18c-0.06-0.16-0.17-0.26-0.33-0.3
		C461.98,314.89,461.37,313.5,461.04,311.92z"/>
	<path style="fill-rule:evenodd;clip-rule:evenodd;fill:#5C595E;" d="M503.77,290.07c0.01,3.96,0.16,7.92-0.02,11.87
		c-0.14,3.15-0.14,6.39-1.79,9.27c-0.69,0.64-1.07,0.24-1.28-0.43c-0.24-0.78-0.19-1.59-0.09-2.38c0.18-1.54,0.31-3.1,0.72-4.61
		c0.52-1.95,0.41-3.96,0.67-5.94c0.13-1,0.29-1.98,0.66-2.91c0.46-1.14,0.62-2.31,0.58-3.52c-0.03-0.43-0.01-0.85,0.2-1.24
		C503.5,290.05,503.62,290.01,503.77,290.07z"/>
	<path style="fill-rule:evenodd;clip-rule:evenodd;fill:#D8D8DA;" d="M467.73,298.97c-0.68,0.17-0.47,0.82-0.5,1.2
		c-0.15,1.81-0.07,3.61,0.81,5.27c0.02,0.79-0.4,1.32-1.04,1.72c-0.72,0.12-0.88-0.41-1.03-0.91c-0.66-2.27-0.95-4.54-0.79-6.95
		c0.2-2.89,0.45-5.8,0.29-8.72c-0.03-0.55-0.22-1.25,0.62-1.45c0.06,0.04,0.08,0.09,0.06,0.16c0.03,0.13,0.11,0.22,0.2,0.32
		l0.01,0.01c0.08,0.05,0.14,0.12,0.16,0.22c0.03,0.07,0.07,0.14,0.1,0.21c0.06,0.09,0.12,0.18,0.18,0.28
		c1.18,1.16,1.84,2.28,0.63,3.95C466.32,295.78,466.91,297.44,467.73,298.97z"/>
	<path style="fill-rule:evenodd;clip-rule:evenodd;fill:#C9C8CC;" d="M466.09,289.13c-0.26,0.23-0.32,0.5-0.29,0.85
		c0.29,3-0.01,6.02-0.24,8.99c-0.19,2.55,0.12,4.94,0.78,7.35c0.12,0.42,0.15,0.83,0.74,0.56c0.42,0.5,0.12,0.99,0.01,1.49
		c-0.18,0.34-0.14,0.82-0.62,0.97c-0.96-0.57-1.05-1.64-1.35-2.54c-0.92-2.66-1.18-5.41-0.84-8.22c0.21-1.7,0.24-3.43,0.23-5.12
		c-0.01-3.24,0.01-6.53-0.97-9.7c-0.08-0.25-0.35-0.61,0.22-0.66c0.08,0,0.15,0.03,0.2,0.09c0.09,0.04,0.18,0.1,0.26,0.16
		c0.24,0.13,0.48,0.28,0.72,0.4c0.95,0.49,1.72,0.95,0.9,2.27C465.23,287,465.75,288.11,466.09,289.13z"/>
	<path style="fill-rule:evenodd;clip-rule:evenodd;fill:#807C84;" d="M464.19,316.01c0.48-0.1,0.81-0.17,0.58-0.88
		c-1.21-3.77-2.37-7.57-3.02-11.49c-0.43-2.59-0.11-5.25,0.14-7.83c0.38-3.89,0.37-7.65-0.97-11.35c-0.07-0.18-0.05-0.39-0.08-0.59
		c0.24,0,0.48,0,0.72,0c1.13,1.25,1.03,2.88,1.26,4.38c0.61,3.93,0.12,7.85-0.19,11.77c-0.17,2.17,0.1,4.29,0.76,6.36
		c0.88,2.76,1.65,5.56,2.76,8.25c0.36,0.87,0.74,1.78,0.44,2.77C465.61,317.26,465,316.47,464.19,316.01z"/>
	<path style="fill-rule:evenodd;clip-rule:evenodd;fill:#6A666D;" d="M503.56,291.28c0.08,1.37-0.09,2.67-0.62,3.96
		c-0.9,2.21-0.62,4.62-0.98,6.93c-0.41,2.66-1.13,5.29-1.03,8.02c0.02,0.62-0.03,1.41,1.04,1.02c-0.05,0.24-0.09,0.47-0.14,0.71
		c-0.05,0.09-0.11,0.18-0.18,0.25c0,0.08-0.02,0.15-0.04,0.22c-0.07,0.09-0.13,0.18-0.2,0.26c-0.4,0.64-0.8,1.28-1.19,1.92
		c-0.21-0.03-0.42-0.06-0.6-0.19c-0.48-0.41-0.46-0.98-0.5-1.54c-0.17-2.38,0.27-4.7,0.88-6.96c0.8-2.94,1.03-5.95,1.3-8.95
		c0.13-1.43,0.42-2.84,0.93-4.18C502.47,292.13,502.61,291.31,503.56,291.28z"/>
	<path style="fill-rule:evenodd;clip-rule:evenodd;fill:#E6E5E6;" d="M462.06,274.25c-0.18,0-0.35,0.01-0.53,0.01
		c-0.21-0.08-0.85,0.1-0.38-0.45c1.35-1.57,3.15-2.3,5.17-2.36c1.39-0.04,2.63-0.55,3.94-0.81c2.43-0.48,4.89-0.89,7.39-0.45
		c1.34,0.22,2.7,0.02,4.04,0.11c0.33,0.02,0.82-0.3,0.99,0.3c-6.05-0.1-11.88,1.44-17.78,2.47
		C463.87,273.25,462.9,273.62,462.06,274.25z"/>
	<path style="fill-rule:evenodd;clip-rule:evenodd;fill:#A8A5AB;" d="M462.52,283.64c0.05-0.06,0.11-0.09,0.19-0.09
		c0.07,0.02,0.13,0.04,0.2,0.06c0.87,0.53,0.97,1.51,1.04,2.31c0.28,2.96,0.67,5.91,0.46,8.93c-0.21,3.04-0.74,6.11-0.13,9.18
		c0.22,1.1,0.64,2.13,0.94,3.21c0.06,0.11,0.12,0.24,0.17,0.36c0.56,2.53,1.68,4.87,2.49,7.32c0.21,0.64,0.4,1.29,0.52,1.96
		c0.07,0.4,0.15,0.8-0.34,1.01c-0.17-0.05-0.34-0.11-0.51-0.16c-0.86-2.52-1.79-5.02-2.68-7.53c-0.68-1.91-1.37-3.82-1.76-5.83
		c-0.43-2.22-0.32-4.47-0.1-6.67c0.44-4.35,0.39-8.64-0.59-12.91C462.33,284.41,461.92,283.97,462.52,283.64z"/>
	<path style="fill-rule:evenodd;clip-rule:evenodd;fill:#DEDEE1;" d="M485.79,318.57c2.75,0.17,2.74,0.17,3.59-2.35
		c0.73-2.16,1.49-4.32,2.23-6.48c0.31,1.43,0.62,2.85,0.94,4.28c0.18,0.41,0.07,0.8-0.12,1.15c-0.65,1.16-0.55,2.59-1.35,3.69
		c-2.32,0-4.64-0.01-6.96-0.01C484.62,318.41,485.24,318.73,485.79,318.57z"/>
	<path style="fill-rule:evenodd;clip-rule:evenodd;fill:#ACAAAF;" d="M494.13,314.75c2.05-2.11,1.78-4.78,1.79-7.39
		c0.57,0.12,0.47,0.56,0.46,0.93c0.78-2.46,1.75-4.84,2.03-7.4c0.26-2.48,0.44-4.97,0.86-7.44c0.24-0.32,0.47-0.64,0.71-0.96
		c0.55,0.06,0.46,0.48,0.4,0.81c-0.62,3.32-0.55,6.73-1.32,10.02c-0.42,1.81-1,3.59-1.58,5.36c-0.36,1.1-0.51,2.24-0.71,3.36
		c-0.42,2.34-1.38,4.46-2.33,6.59c-0.69,0.34-1.44,0.16-2.16,0.23c-0.02-0.05-0.04-0.11-0.06-0.16c0.05-0.1,0.13-0.19,0.22-0.25
		c0.67-0.2,0.8-0.8,0.99-1.35C493.69,316.33,494.08,315.59,494.13,314.75z"/>
	<path style="fill-rule:evenodd;clip-rule:evenodd;fill:#9B989E;" d="M494.44,318.62c-0.2-1.58,0.98-2.72,1.32-4.16
		c1.05-4.49,2.52-8.9,3.36-13.43c0.5-2.7,0.61-5.51,1.04-8.25c0.01-0.09-0.12-0.19-0.18-0.29c0.24-0.32,0.48-0.64,0.73-0.96
		c0.54,0.05,0.52,0.48,0.44,0.8c-0.84,3.57-0.66,7.27-1.46,10.85c-0.53,2.37-1.37,4.65-1.98,7c-0.22,0.86-0.27,1.72-0.42,2.58
		c-0.33,1.9-1.07,3.66-1.76,5.43c-0.05,0.36-0.38,0.29-0.6,0.4C494.76,318.6,494.6,318.61,494.44,318.62z"/>
	<path style="fill-rule:evenodd;clip-rule:evenodd;fill:#B9B6BB;" d="M463.77,283.09c1.01,3.26,1.02,6.65,1.11,10
		c0.06,2.32-0.34,4.65-0.4,6.98c-0.09,3.23,0.45,6.35,2.11,9.19c0.21,0.09,0.32,0.27,0.41,0.46c0.07,0.19,0.11,0.39,0.13,0.58
		c0.02,0.18,0.05,0.37,0.1,0.54c0.03,0.08,0.05,0.17,0.08,0.25c0.04,0.13,0.08,0.25,0.14,0.37c0.05,0.08,0.1,0.15,0.15,0.23
		c0.06,0.08,0.11,0.16,0.16,0.24c0.05,0.09,0.1,0.18,0.15,0.27c0.05,0.1,0.09,0.2,0.13,0.3c0.02,0.05,0.03,0.11,0.05,0.16
		c0.03,0.11,0.06,0.23,0.07,0.34c0.34,1.38,0.98,2.67,1.03,4.12c0.02,0.38,0.16,0.79-0.21,1.1c-0.08,0.01-0.16-0.02-0.21-0.08
		c-0.6-0.48-0.43-1.22-0.62-1.84c-0.87-2.95-2.11-5.77-2.98-8.71l0,0c-1.1-2.99-1.5-6-1.16-9.24c0.48-4.55,0.59-9.15-0.49-13.67
		c-0.09-0.37-0.2-0.68-0.45-0.95c-0.11-0.12-0.13-0.24-0.05-0.38C463.2,283.1,463.32,282.65,463.77,283.09z"/>
	<path style="fill-rule:evenodd;clip-rule:evenodd;fill:#918E94;" d="M466.6,317.4c-1.31-4.12-2.69-8.22-3.89-12.37
		c-0.55-1.9-0.43-3.89-0.28-5.9c0.39-5.11,0.82-10.25-0.87-15.25c0.08-0.01,0.16-0.01,0.24-0.02c0.37,0.2,0.61,0.48,0.71,0.91
		c0.75,3.27,1.07,6.57,0.81,9.94c-0.22,2.85-0.52,5.72-0.3,8.59c0.12,1.51,0.66,2.95,1.12,4.38c0.85,2.66,1.86,5.26,2.75,7.9
		c0.2,0.58,0.86,1.3-0.08,1.89C466.74,317.47,466.66,317.45,466.6,317.4z"/>
	<path style="fill-rule:evenodd;clip-rule:evenodd;fill:#747077;" d="M503.56,291.28c-1.46,1.51-1.76,3.51-1.86,5.4
		c-0.23,4.36-1.3,8.55-2.05,12.81c-0.28,1.57-0.66,3.27,0.31,4.82c0.14,0.16,0.12,0.33,0.02,0.51l0.01-0.02
		c-0.36,0.35-0.63,1.05-1.14,0.89c-0.62-0.19-0.42-0.94-0.44-1.48c-0.09-2.6,0.26-5.14,0.98-7.64c0.02-0.13,0.05-0.26,0.09-0.38
		c0.08-0.24,0.17-0.47,0.23-0.72c0.03-0.12,0.07-0.24,0.11-0.35c0.3-1.58,0.92-3.11,0.78-4.77c0.01-0.26,0.03-0.52,0.09-0.78
		c0.15-1.45,0.41-2.89,0.38-4.36c0.2-2.11,0.92-4.09,1.54-6.09c0.14-0.45,0.42-1.15,1.16-0.51c0,0.41,0,0.81,0,1.22
		c-0.05,0.09-0.12,0.17-0.2,0.24C503.56,290.48,503.56,290.88,503.56,291.28z"/>
	<path style="fill-rule:evenodd;clip-rule:evenodd;fill:#99979D;" d="M466.82,317.46c0.44-0.54,0.12-1.07-0.05-1.58
		c-1.27-3.76-2.72-7.46-3.71-11.32c-0.53-2.05-0.38-4.13-0.19-6.17c0.43-4.57,0.68-9.1-0.58-13.59c-0.09-0.33-0.31-0.63-0.47-0.95
		c0.24-0.07,0.47-0.15,0.71-0.22c0.63,2.69,0.93,5.42,1.15,8.17c0.12,1.58,0.01,3.16-0.25,4.63c-1.2,6.75,1.37,12.7,3.62,18.73
		c0.31,0.83,0.59,1.65,0.5,2.55c-0.07-0.02-0.15-0.04-0.22-0.07C467.17,317.53,466.97,317.57,466.82,317.46L466.82,317.46z"/>
	<path style="fill-rule:evenodd;clip-rule:evenodd;fill:#58555A;" d="M458.47,287.18c0.33-0.33,0.13-0.75,0.21-1.13
		c0.08-0.36-0.54-0.84-0.03-1c0.34-0.1,0.63,0.5,0.83,0.89c1.33,2.53,1.35,5.25,0.96,7.97c-0.12,0.81,0.28,1.89-0.81,2.41
		c-0.23-1.87-0.47-3.75-0.7-5.62C458.78,289.52,458.63,288.35,458.47,287.18z"/>
	<path style="fill-rule:evenodd;clip-rule:evenodd;fill:#807B83;" d="M503.76,288.63c-0.45-0.24-0.75,0.05-0.83,0.39
		c-0.48,2.04-1.33,3.99-1.53,6.1c-0.36,1.5-0.27,3.05-0.48,4.56c0,0.24,0,0.48,0,0.72c-0.15,1.71-0.66,3.36-0.96,5.04l0,0
		c-0.22,0.19-0.03,0.53-0.24,0.72l0,0c-0.2,0.13-0.05,0.69-0.55,0.46c-0.57-0.92,0.27-1.66,0.31-2.5c0.01-0.11,0.03-0.22,0.05-0.33
		c0.08-0.26,0.15-0.52,0.2-0.79c0.02-0.11,0.04-0.21,0.07-0.32c0.09-0.32,0.11-0.66,0.17-0.99c0.01-0.18,0.03-0.36,0.08-0.54
		c0.21-0.89,0.16-1.79,0.16-2.69c0.12-2.47,0.66-4.88,1.13-7.29c0.05-0.27,0.13-0.54,0.12-0.83c0.14-0.41,0.28-0.82,0.43-1.23
		c0.32-1.32,0.53-2.67,0.97-3.97c0.14-0.41,0.23-0.85,0.5-1.19c0.24-0.29,0.51-0.71,0.9-0.13
		C504.08,285.43,503.92,287.03,503.76,288.63z"/>
	<path style="fill-rule:evenodd;clip-rule:evenodd;fill:#FCFCFC;" d="M454.81,274.16c0.19-1.32,0.41-2.5,1.44-3.28
		c0.6-0.46,1.22-0.69,1.3,0.51c0.09,1.54,0.26,3.08,0.42,4.62c0.08,0.75-0.18,1.01-0.84,0.6
		C456.12,275.99,454.95,275.48,454.81,274.16z"/>
	<path style="fill-rule:evenodd;clip-rule:evenodd;fill:#8E8A91;" d="M499.96,302.8c0,0.08,0,0.16,0,0.24
		c-0.22,0.19-0.02,0.53-0.24,0.72l0,0c-1.02,3.86-1.7,7.79-2.57,11.68c-0.23,1.04-0.62,2.05-1.27,2.93l-0.11,0.04l-0.11,0
		c-0.11,0.11-0.2,0.1-0.28-0.03c-0.03-0.23-0.17-0.52-0.08-0.67c1.56-2.69,1.57-5.81,2.39-8.71c0.8-2.83,1.85-5.61,2.12-8.56
		c0.26-2.85,0.46-5.7,1.08-8.5c0.03-0.12-0.12-0.27-0.19-0.41c0.25-0.4,0.5-0.79,0.75-1.19c0.47,1.67-0.51,3.14-0.64,4.73
		c-0.09,1.14-0.25,2.27-0.37,3.41c-0.34,0.94,0.08,1.94-0.24,2.88c0,0.16,0,0.32,0,0.48C499.93,302.11,500.22,302.52,499.96,302.8z"
		/>
	<path style="fill-rule:evenodd;clip-rule:evenodd;fill:#DAD9DC;" d="M473.8,319.11c1.12,0,2.24,0,3.36,0
		c0.73,0.01,1.46,0.01,2.19,0.02c-3.15,0.28-6.29,0.62-9.4-0.34c-0.09-0.03-0.16-0.08-0.21-0.17l-0.01-0.01
		c-0.15-1.84-0.83-3.58-1.01-5.42c0.32-0.73,0.32-1.65,1.23-2.02c0.56,2.46,1.05,4.93,1.71,7.37
		C471.97,319.7,473.09,318.88,473.8,319.11z"/>
	<path style="fill-rule:evenodd;clip-rule:evenodd;fill:#868289;" d="M495.88,318.38c-0.08-1.14,0.75-1.98,0.97-3.03
		c0.7-3.32,1.45-6.64,2.22-9.94c0.13-0.57,0.43-1.09,0.65-1.64c0.21,1.02-0.68,1.86-0.48,2.88c0.28,0.47,0.09,1-0.07,1.36
		c-0.57,1.35-0.58,2.78-0.72,4.18c-0.17,1.79-0.52,3.53-0.88,5.28C497.12,317.96,496.56,318.28,495.88,318.38z"/>
	<path style="fill-rule:evenodd;clip-rule:evenodd;fill:#E6E5E6;" d="M482.67,270.6c-1.2-0.42-2.44-0.08-3.66-0.2
		c-0.46-0.04-0.96,0.16-1.37-0.22c5.07,0.15,10.13-0.6,15.2-0.02c0.66,0.08,1.32,0.12,1.92,0.43c-0.64,0.03-1.27,0.08-1.91,0.08
		C489.46,270.65,486.07,270.63,482.67,270.6z"/>
	<path style="fill-rule:evenodd;clip-rule:evenodd;fill:#77737B;" d="M497.57,317.46c-0.5-0.65-0.05-1.32,0.03-1.94
		c0.22-1.87,0.67-3.71,0.86-5.59c0.12-1.15,0.67-2.16,0.78-3.29c0.16-0.16,0.32-0.32,0.48-0.48c-0.46,2.63-1.17,5.24-0.96,7.95
		c0.04,0.47-0.11,1.22,0.11,1.34c0.45,0.26,0.64-0.57,1.12-0.64c-0.23,0.75-0.82,1.21-1.39,1.68c-0.14,0.04-0.24,0.13-0.32,0.25
		l0.02-0.02c-0.12,0.08-0.21,0.18-0.25,0.32C497.89,317.18,497.73,317.32,497.57,317.46z"/>
	<path style="fill-rule:evenodd;clip-rule:evenodd;fill:#C7C5C9;" d="M496.09,303.21c0.26-1.62,0.99-3.05,1.69-4.5
		c0.14-0.04,0.27-0.01,0.38,0.09c0.2,0.22,0.26,0.48,0.25,0.77c-0.15,2.32-0.67,4.56-1.62,6.69c-0.12,0.27-0.24,0.7-0.63,0.57
		c-0.28-0.1-0.17-0.5-0.16-0.76C496.04,305.12,495.89,304.16,496.09,303.21z"/>
	<path style="fill-rule:evenodd;clip-rule:evenodd;fill:#8F8B92;" d="M504.25,283.83c-0.85-0.28-0.79,0.48-0.91,0.88
		c-0.45,1.5-0.82,3.03-1.22,4.55c-0.01,0.03-0.03,0.06-0.05,0.08c-0.06-0.08-0.12-0.15-0.18-0.23c-0.08-2.83,0.52-5.52,1.75-8.06
		c0.12-0.25,0.16-0.71,0.58-0.59c0.11,0.03,0.14,0.49,0.14,0.75C504.33,282.08,504.28,282.96,504.25,283.83z"/>
	<path style="fill-rule:evenodd;clip-rule:evenodd;fill:#B3B1B5;" d="M499.26,293.45c0.62,1.01-0.01,2.03-0.07,3.02
		c-0.25,4.17-1,8.25-2.58,12.14c-0.12,0.29-0.24,0.58-0.35,0.87c-0.28-0.29-0.08-0.64-0.11-0.96c0.29-2.06,1.33-3.9,1.71-5.95
		c0.41-2.15,0.55-4.32,0.66-6.49C498.54,295.14,498.35,294.14,499.26,293.45z"/>
	<path style="fill-rule:evenodd;clip-rule:evenodd;fill:#BCBABE;" d="M498.53,296.08c0.65,1.32,0.08,2.65-0.05,3.95
		c-0.28,2.95-1.13,5.78-2.33,8.49c-0.08-0.39,0.11-0.83-0.23-1.16c-0.06-1.39-0.19-2.78,0.17-4.15c0.01,0.88,0.01,1.75,0.03,2.63
		c0.01,0.25,0.07,0.5,0.11,0.75c0.11-0.2,0.25-0.39,0.33-0.6c0.91-2.34,1.62-4.72,1.48-7.28c0-0.04,0-0.08,0-0.12
		c-0.04-0.07-0.08-0.14-0.11-0.22c0.04-0.07,0.06-0.15,0.07-0.23c0.03-0.13,0.07-0.26,0.1-0.39c0.04-0.11,0.14-0.19,0.15-0.31
		c0.03-0.14,0.05-0.28,0.08-0.41c0.12-0.25,0.03-0.54,0.16-0.79C498.46,296.17,498.47,296.12,498.53,296.08z"/>
	<path style="fill-rule:evenodd;clip-rule:evenodd;fill:#C9C8CC;" d="M468.98,313.08c0.29,1.31,0.57,2.62,0.88,3.93
		c0.13,0.56,0.15,1.1-0.13,1.62c-0.25-0.13-0.51-0.26-0.76-0.39c0.03-1.95-0.93-3.7-1.17-5.59c0.03-0.03,0.07-0.07,0.1-0.1
		c0.05,0,0.09-0.01,0.14-0.01c0.14,0.02,0.28,0.06,0.41,0.11C468.69,312.72,468.89,312.83,468.98,313.08z"/>
	<path style="fill-rule:evenodd;clip-rule:evenodd;fill:#D1D1D4;" d="M491.08,318.86c0.14-1.72,0.77-3.29,1.47-4.84
		c0.23,0.41,0.47,0.83,0.7,1.24c0.24,1.29-0.41,2.32-0.97,3.38c-0.28,0.26-0.67-0.01-0.96,0.21
		C491.24,318.85,491.16,318.86,491.08,318.86z"/>
	<path style="fill-rule:evenodd;clip-rule:evenodd;fill:#C4C2C6;" d="M492.28,318.64c0.02-1.21,0.7-2.24,0.97-3.38
		c0.3-0.17,0.59-0.34,0.89-0.51C494.6,315.98,493.36,318.57,492.28,318.64z"/>
	<path style="fill-rule:evenodd;clip-rule:evenodd;fill:#B7B4B9;" d="M465.16,307.6c1.23,2.54,2.01,5.25,2.87,7.92
		c0.28,0.87,0.49,1.76,0.73,2.64c-0.24-0.09-0.47-0.18-0.71-0.27c0.21-1.65-0.62-3.04-1.09-4.53
		C466.37,311.44,465.33,309.66,465.16,307.6z"/>
	<path style="fill-rule:evenodd;clip-rule:evenodd;fill:#C3C3C4;" d="M457.51,279.68c-0.05-0.5-0.09-0.75-0.09-1
		c0-0.19,0.06-0.42,0.33-0.28c0.26,0.13,0.21,0.39,0.13,0.61C457.82,279.18,457.72,279.32,457.51,279.68z"/>
	<path style="fill-rule:evenodd;clip-rule:evenodd;fill:#706C74;" d="M460.79,311.21c0.01-0.16,0.02-0.31,0.02-0.47
		c0.48,0.19,0.24,0.44,0.05,0.68C460.85,311.35,460.82,311.28,460.79,311.21z"/>
	<path style="fill-rule:evenodd;clip-rule:evenodd;fill:#C4C2C6;" d="M491.32,318.85c0.27-0.31,0.63-0.19,0.96-0.21
		c0,0.07,0,0.14-0.01,0.21C491.96,318.85,491.64,318.85,491.32,318.85z"/>
	<path style="fill-rule:evenodd;clip-rule:evenodd;fill:#B3B1B5;" d="M498.49,296.24c0.03,0.28,0.09,0.57-0.16,0.79
		C498.38,296.77,498.44,296.5,498.49,296.24z"/>
	<path style="fill-rule:evenodd;clip-rule:evenodd;fill:#868289;" d="M495.38,318.38c0.09,0.01,0.19,0.02,0.28,0.03
		c-0.21,0.22-0.46,0.25-0.74,0.19C495.07,318.52,495.23,318.45,495.38,318.38z"/>
	<path style="fill-rule:evenodd;clip-rule:evenodd;fill:#918E94;" d="M466.82,317.46c0.17,0.07,0.33,0.14,0.5,0.2
		C467.15,317.59,466.98,317.52,466.82,317.46z"/>
	<path style="fill-rule:evenodd;clip-rule:evenodd;fill:#E6E6E8;" d="M474.51,304c-0.07-0.18-0.14-0.36-0.21-0.54
		C474.37,303.64,474.44,303.82,474.51,304z"/>
	<path style="fill-rule:evenodd;clip-rule:evenodd;fill:#B3B1B5;" d="M498,298.14c0.02,0.11,0.03,0.23,0.04,0.34
		c0.05,0.05,0.07,0.11,0.05,0.16c-0.02,0.05-0.04,0.08-0.06,0.08l0,0c-0.09,0-0.17,0-0.26,0C497.85,298.52,497.93,298.33,498,298.14
		z"/>
	<path style="fill-rule:evenodd;clip-rule:evenodd;fill:#77737B;" d="M499.98,314.83c-0.01-0.17-0.01-0.34-0.02-0.51
		c0.08,0.09,0.17,0.18,0.25,0.26C500.14,314.67,500.06,314.75,499.98,314.83z"/>
	<path style="fill-rule:evenodd;clip-rule:evenodd;fill:#C9C8CC;" d="M466.79,290.32c-0.06-0.09-0.12-0.18-0.18-0.28
		C466.67,290.13,466.73,290.23,466.79,290.32z"/>
	<path style="fill-rule:evenodd;clip-rule:evenodd;fill:#6A666D;" d="M503.56,290.09c0.07-0.08,0.13-0.16,0.2-0.24
		c0.02,0.08,0.02,0.15,0.01,0.23C503.7,290.08,503.63,290.08,503.56,290.09z"/>
	<path style="fill-rule:evenodd;clip-rule:evenodd;fill:#C9C8CC;" d="M466.51,289.83c-0.05-0.07-0.11-0.14-0.16-0.22
		C466.4,289.69,466.46,289.76,466.51,289.83z"/>
	<path style="fill-rule:evenodd;clip-rule:evenodd;fill:#C9C8CC;" d="M466.35,289.61c-0.07-0.11-0.13-0.21-0.2-0.32
		C466.21,289.39,466.28,289.5,466.35,289.61z"/>
	<path style="fill-rule:evenodd;clip-rule:evenodd;fill:#D8D8DA;" d="M468.8,300.38c-0.09-0.1-0.17-0.19-0.26-0.29
		C468.63,300.19,468.71,300.29,468.8,300.38z"/>
	<path style="fill-rule:evenodd;clip-rule:evenodd;fill:#B9B6BB;" d="M464.23,283.35c-0.09-0.05-0.17-0.11-0.26-0.16
		C464.05,283.24,464.14,283.3,464.23,283.35z"/>
	<path style="fill-rule:evenodd;clip-rule:evenodd;fill:#D8D8DA;" d="M468.21,299.68c-0.06-0.07-0.12-0.15-0.17-0.22
		C468.09,299.53,468.15,299.6,468.21,299.68z"/>
	<path style="fill-rule:evenodd;clip-rule:evenodd;fill:#D8D8DA;" d="M468.03,299.45c-0.07-0.11-0.13-0.22-0.2-0.33
		C467.9,299.23,467.96,299.34,468.03,299.45z"/>
	<path style="fill-rule:evenodd;clip-rule:evenodd;fill:#E6E6E8;" d="M474.72,304.48c-0.06-0.1-0.12-0.21-0.18-0.31
		C474.6,304.27,474.66,304.38,474.72,304.48z"/>
	<path style="fill-rule:evenodd;clip-rule:evenodd;fill:#5C595E;" d="M501.65,312.18c0.06-0.08,0.12-0.17,0.18-0.25
		C501.76,312.01,501.71,312.09,501.65,312.18z"/>
	<path style="fill-rule:evenodd;clip-rule:evenodd;fill:#A8A5AB;" d="M463,283.36c0,0.08,0.01,0.16,0.01,0.24
		c-0.06,0.08-0.13,0.09-0.2,0.03c-0.04-0.03-0.07-0.05-0.1-0.08C462.8,283.49,462.9,283.43,463,283.36z"/>
	<path style="fill-rule:evenodd;clip-rule:evenodd;fill:#B3B1B5;" d="M498.25,297.44c-0.05,0.1-0.1,0.21-0.15,0.31
		C498.15,297.65,498.2,297.55,498.25,297.44z"/>
	<path style="fill-rule:evenodd;clip-rule:evenodd;fill:#807C84;" d="M463.62,315.53c0.11,0.1,0.22,0.2,0.33,0.3
		C463.84,315.73,463.73,315.63,463.62,315.53z"/>
	<path style="fill-rule:evenodd;clip-rule:evenodd;fill:#868289;" d="M498.28,316.74c0.11-0.08,0.21-0.17,0.32-0.25
		C498.49,316.58,498.39,316.66,498.28,316.74z"/>
	<path style="fill-rule:evenodd;clip-rule:evenodd;fill:#868289;" d="M498.05,317.04c0.08-0.11,0.17-0.21,0.25-0.32
		C498.22,316.83,498.14,316.94,498.05,317.04z"/>
	<path style="fill-rule:evenodd;clip-rule:evenodd;fill:#C9C8CC;" d="M469.74,318.63c0.07,0.06,0.14,0.11,0.21,0.17
		C469.89,318.74,469.81,318.69,469.74,318.63z"/>
	<path style="fill-rule:evenodd;clip-rule:evenodd;fill:#5C595E;" d="M501.41,312.66c0.07-0.09,0.13-0.17,0.2-0.26
		C501.54,312.49,501.48,312.58,501.41,312.66z"/>
	<path style="fill-rule:evenodd;clip-rule:evenodd;fill:#706C74;" d="M460.65,310.2c-0.02-0.31-0.04-0.62-0.07-0.92
		C460.93,309.56,460.92,309.87,460.65,310.2z"/>
	<path style="fill-rule:evenodd;clip-rule:evenodd;fill:#262625;" d="M478.86,315.15c0.09-1.21,0.41-2.31,1.18-3.22
		c0.31-0.36,0.71-0.65,1.25-0.42c0.58,0.25,0.33,0.71,0.28,1.12c-0.12,1.02-0.18,2.06-0.71,2.98c-0.33,0.57-0.83,1.21-1.44,1.06
		C478.83,316.52,478.9,315.69,478.86,315.15z"/>
	<path style="fill-rule:evenodd;clip-rule:evenodd;fill:#242423;" d="M468.98,313.08c-0.21-0.08-0.43-0.15-0.64-0.23
		c-0.13-0.04-0.22-0.12-0.29-0.23l0,0.01c-0.11-0.06-0.19-0.14-0.24-0.25l0.02,0.01c-0.12-0.07-0.21-0.17-0.24-0.31
		c0.01-0.07-0.02-0.13-0.08-0.17c-0.05-0.09-0.11-0.17-0.18-0.25l0.01,0.02c-0.17-0.13-0.13-0.36-0.24-0.52
		c0.02-0.08,0-0.14-0.05-0.2c-0.1-0.16-0.08-0.36-0.19-0.51c-0.02-0.23-0.04-0.46-0.06-0.69c-0.12-0.48-0.11-0.95-0.01-1.43
		c0.1-0.48,0.19-0.96,0.29-1.44c0.32-0.48,0.64-0.96,0.96-1.44h0c0.09-0.07,0.16-0.17,0.27-0.22l-0.01,0.01
		c0.07-0.12,0.17-0.21,0.32-0.23c0.37-0.13,0.81-0.12,0.94,0.26c0.44,1.28,1.94,2.31,0.92,3.98c-0.33,0.55-0.35,1.29-0.52,1.94
		C469.63,311.81,469.31,312.45,468.98,313.08z"/>
	<path style="fill-rule:evenodd;clip-rule:evenodd;fill:#D8D8DA;" d="M468.31,305.22c-0.09,0.07-0.18,0.15-0.27,0.22
		C468.13,305.37,468.22,305.29,468.31,305.22z"/>
	<path style="fill-rule:evenodd;clip-rule:evenodd;fill:#D8D8DA;" d="M468.61,305c-0.11,0.08-0.21,0.15-0.32,0.23
		C468.4,305.15,468.51,305.07,468.61,305z"/>
	<path style="fill-rule:evenodd;clip-rule:evenodd;fill:#B7B4B9;" d="M466.79,308.32c0,0.48,0,0.95,0.01,1.43
		c-0.07-0.16-0.14-0.33-0.21-0.49C466.62,308.94,466.5,308.59,466.79,308.32z"/>
	<path style="fill-rule:evenodd;clip-rule:evenodd;fill:#B7B4B9;" d="M462.81,283.63c0.07-0.02,0.13-0.03,0.2-0.03
		c1.33,1.18,0.92,2.86,1.15,4.32c0.61,3.91,0.23,7.83-0.21,11.74c-0.31,2.76,0.67,5.32,1.2,7.94c-1.56-2.85-1.58-5.93-1.35-9.05
		c0.27-3.6,0.57-7.19,0.01-10.8C463.59,286.34,463.53,284.92,462.81,283.63z"/>
	<path style="fill-rule:evenodd;clip-rule:evenodd;fill:#B7B4B9;" d="M466.86,310.44c0.06,0.17,0.13,0.34,0.19,0.51
		C466.98,310.78,466.92,310.61,466.86,310.44z"/>
	<path style="fill-rule:evenodd;clip-rule:evenodd;fill:#B7B4B9;" d="M467.1,311.15c0.08,0.17,0.16,0.35,0.24,0.52
		C467.12,311.56,467.09,311.37,467.1,311.15z"/>
	<path style="fill-rule:evenodd;clip-rule:evenodd;fill:#B7B4B9;" d="M467.33,311.66c0.06,0.08,0.12,0.17,0.18,0.25
		C467.45,311.83,467.39,311.74,467.33,311.66z"/>
	<path style="fill-rule:evenodd;clip-rule:evenodd;fill:#B7B4B9;" d="M467.81,312.38c0.08,0.08,0.16,0.17,0.24,0.25
		c-0.08,0-0.17,0.01-0.25,0.01C467.8,312.55,467.81,312.47,467.81,312.38z"/>
	<path style="fill-rule:evenodd;clip-rule:evenodd;fill:#B7B4B9;" d="M467.59,312.08c0.08,0.1,0.16,0.21,0.24,0.31
		C467.75,312.29,467.67,312.18,467.59,312.08z"/>
	<path style="fill-rule:evenodd;clip-rule:evenodd;fill:#77737B;" d="M499.96,305.44c0.05-1.73,0.56-3.38,0.96-5.04
		C501.02,302.16,500.52,303.8,499.96,305.44z"/>
	<path style="fill-rule:evenodd;clip-rule:evenodd;fill:#77737B;" d="M500.92,299.68c0.06-1.53-0.23-3.1,0.48-4.56
		C501.42,296.66,501.28,298.18,500.92,299.68z"/>
	<path style="fill-rule:evenodd;clip-rule:evenodd;fill:#77737B;" d="M499.72,306.16c0.01-0.27-0.03-0.54,0.24-0.72
		C499.95,305.71,499.99,305.98,499.72,306.16z"/>
	<path style="fill-rule:evenodd;clip-rule:evenodd;fill:#868289;" d="M500.2,301.36c0.12-0.96-0.26-1.96,0.24-2.88
		C500.32,299.44,500.7,300.43,500.2,301.36z"/>
	<path style="fill-rule:evenodd;clip-rule:evenodd;fill:#868289;" d="M499.96,302.8c0.03-0.33-0.1-0.71,0.24-0.96
		C500.17,302.17,500.3,302.54,499.96,302.8z"/>
	<path style="fill-rule:evenodd;clip-rule:evenodd;fill:#868289;" d="M499.72,303.76c0.01-0.26-0.03-0.54,0.24-0.72
		C499.95,303.3,499.99,303.58,499.72,303.76z"/>
	<path style="fill-rule:evenodd;clip-rule:evenodd;fill:#C7C5C9;" d="M498.04,298.72c0-0.08,0-0.16,0.01-0.24
		c0.03,0.06,0.06,0.11,0.08,0.17C498.13,298.67,498.07,298.7,498.04,298.72z"/>
	<path style="fill-rule:evenodd;clip-rule:evenodd;fill:#B7B4B9;" d="M468.05,312.62c0.1,0.08,0.2,0.15,0.29,0.23
		C468.25,312.77,468.15,312.7,468.05,312.62z"/>
	<path style="fill-rule:evenodd;clip-rule:evenodd;fill:#E7E7E7;" d="M479.99,314.04c0.05-0.21,0.1-0.6,0.31-0.5
		c0.38,0.19-0.06,0.49-0.05,0.76C480.03,314.35,479.91,314.29,479.99,314.04z"/>
	<path style="fill-rule:evenodd;clip-rule:evenodd;fill:#9F9F9F;" d="M479.99,314.04c0.09,0.09,0.18,0.17,0.26,0.26
		c0.03,0.26-0.19,0.41-0.33,0.31C479.69,314.45,479.77,314.21,479.99,314.04z"/>
	<path style="fill-rule:evenodd;clip-rule:evenodd;fill:#F4F4F4;" d="M467.88,308.94c0.07-0.74,0.24-1.51,0.77-2.14
		c0.18-0.21,0.39-0.03,0.51,0.11c0.62,0.71,0.35,1.49,0.17,2.26c-0.02,0.08-0.04,0.15-0.08,0.22c-0.25,0.48-0.18,1.5-0.69,1.38
		C467.95,310.64,467.89,309.71,467.88,308.94z"/>
</g>
</svg>
