<?xml version="1.0" encoding="utf-8"?>
<!-- Generator: Adobe Illustrator 16.0.0, SVG Export Plug-In . SVG Version: 6.00 Build 0)  -->
<!DOCTYPE svg PUBLIC "-//W3C//DTD SVG 1.0//EN" "http://www.w3.org/TR/2001/REC-SVG-20010904/DTD/svg10.dtd" [
	<!ENTITY ns_flows "http://ns.adobe.com/Flows/1.0/">
	<!ENTITY ns_extend "http://ns.adobe.com/Extensibility/1.0/">
	<!ENTITY ns_ai "http://ns.adobe.com/AdobeIllustrator/10.0/">
	<!ENTITY ns_graphs "http://ns.adobe.com/Graphs/1.0/">
]>
<svg version="1.0" id="road_signs_xA0_Image_1_" xmlns:x="&ns_extend;" xmlns:i="&ns_ai;" xmlns:graph="&ns_graphs;"
	 xmlns="http://www.w3.org/2000/svg" xmlns:xlink="http://www.w3.org/1999/xlink" xmlns:a="http://ns.adobe.com/AdobeSVGViewerExtensions/3.0/"
	 x="0px" y="0px" width="109.2px" height="101.28px" viewBox="0 0 109.2 101.28" style="enable-background:new 0 0 109.2 101.28;"
	 xml:space="preserve">
<g>
	<path style="fill-rule:evenodd;clip-rule:evenodd;fill:#101210;" d="M44.12,42.53c-0.35,9.19-0.28,18.39,0.07,27.58
		c0.05,1.37-0.04,2.76,2.09,2.44c0.99-0.15,1.69,0.79,2.55,1.17c0.32,0.14,0.41,0.48,0.28,0.83c-0.22,0.58-0.56,1.2-1.17,1.26
		c-3.18,0.31-6.36,0.64-9.56,0.33c-0.57-0.06-1.28-0.13-1.41-0.87c-0.12-0.75,0.29-1.36,0.92-1.69c0.77-0.4,1.61-0.69,2.44-0.96
		c0.71-0.23,0.92-0.63,0.94-1.4c0.18-6.55,0.01-13.11,0.08-19.66c0.02-2.12-0.04-4.22-0.19-6.33c-0.01-0.16,0.15-0.42-0.15-0.46
		c-0.06-0.01-0.17,0.23-0.23,0.36c-1.32,2.94-3.76,4.44-6.73,5.27c-0.32,0.09-0.98-0.1-0.84,0.53c0.12,0.53,0.68,0.23,1.04,0.2
		c0.4-0.03,0.8-0.09,1.18-0.2c1.48-0.46,1.97,0.33,2,1.61c0.05,2.35,0.51,2.38-2.22,2.33c-2.09-0.04-2.15-0.08-2.04,2.01
		c0.37,7.1,0.29,14.22,0.86,21.32c0.06,0.74,0.3,0.82,0.92,0.8c1.28-0.06,2.56,0.01,3.76,0.57c0.51,0.24,1.08,0.47,1.04,1.16
		c-0.04,0.7-0.44,1.2-1.08,1.46c-1.13,0.45-2.34,0.48-3.53,0.56c-2.51,0.18-5.02-0.07-7.53-0.18c-0.63-0.03-1.34-0.06-1.43-0.94
		c-0.08-0.85,0.03-1.62,1.03-1.88c0.96-0.25,1.92-0.61,2.9-0.7c0.9-0.08,1.01-0.47,0.95-1.21c-0.61-7.33-0.78-14.68-0.84-22.04
		c-0.01-1.01-0.4-1.12-1.25-0.96c-0.51,0.1-1.35,0.38-1.5-0.23c-0.25-0.98-0.59-2.01-0.31-3.05c0.07-0.27,0.34-0.06,0.51-0.07
		c0.6-0.04,1.19-0.07,1.79-0.11c0.34-0.03,0.75,0.06,0.81-0.48c0.06-0.58-0.38-0.5-0.7-0.57c-0.43-0.09-0.86-0.16-1.29-0.24
		c-5.52-1.02-8.28-6.43-6.58-11.97c1.5-4.9,4.79-7.36,9.98-7.5c0.46-0.01,0.66-0.03,0.3-0.48c-0.05-0.06-0.1-0.13-0.14-0.19
		c-1.74-2.36-1.69-2.32,0.47-4.33c3.04-2.83,6.01-5.74,8.99-8.64c0.44-0.42,0.88-0.72,1.3-0.22c2.24,2.71,5.35,4.56,7.39,7.5
		c0.6,0.87,1.5,1.54,2.28,2.28c0.36,0.35,0.61,0.36,0.55-0.26c0-0.04,0.01-0.08,0-0.12c-1.1-4.05,2.51-5.86,4.12-8.61
		c0.09-0.16,0.41-0.26,0.62-0.27c2.38-0.1,4.77-0.15,7.15-0.28c0.64-0.03,1.11,0.22,1.45,0.65c1.07,1.34,2.48,2.25,3.84,3.23
		c0.93,0.66,1.36,1.52,1.29,2.66c-0.1,1.59-0.21,3.19-0.01,4.79c0.11,0.88,0.18,1.77-0.93,2.16c-0.14,0.05-0.22,0.29-0.32,0.44
		c0.18,0.04,0.37,0.11,0.55,0.1c4.47-0.15,8.95-0.3,13.42-0.46c0.39-0.01,0.85-0.25,1.12,0.13c0.29,0.4-0.11,0.74-0.31,1.06
		c-2.64,4.24-4.56,8.85-7.04,13.18c-0.81,1.41-0.22,2.17,1.33,2.06c0.24-0.02,0.48-0.04,0.72-0.06c1.78-0.15,2.74,1.26,2.04,2.97
		c-0.11,0.26-0.25,0.38-0.53,0.36c-1.23-0.07-3.16-0.44-3.51,0.27c-0.64,1.32-0.53,3.1-0.43,4.67c0.16,2.44,0.12,4.87,0.16,7.31
		c0.08,4.92,0.23,9.83,0.26,14.75c0.01,1.34,0.36,1.93,1.77,1.9c0.82-0.02,1.66,0.24,2.46,0.46c0.56,0.15,1.01,0.55,1.03,1.19
		c0.02,0.72-0.63,0.75-1.11,0.87c-3.5,0.9-7.06,0.69-10.62,0.52c-0.55-0.03-1.13-0.29-1.22-0.96c-0.09-0.64,0.43-0.94,0.9-1.12
		c1.08-0.41,2.17-0.88,3.29-1.08c1.09-0.19,1.32-0.7,1.27-1.68c-0.27-5.47-0.57-10.93-0.71-16.4c-0.08-3.03,0.11-6.08,0.24-9.11
		c0.04-1-0.16-1.38-1.24-1.12c-0.57,0.14-1.48,0.42-1.73-0.26c-0.32-0.87-0.45-1.92-0.25-2.81c0.15-0.67,1.11-0.31,1.72-0.36
		c0.45-0.04,1.03,0.31,1.31-0.21c0.29-0.53,0.3-1.17-0.05-1.72c-2.42-3.75-4.52-7.72-7.35-11.2c-0.36-0.44-0.62-1.01-1.25-0.31
		c-0.07,0.08-0.22,0.13-0.32,0.11c-2.04-0.27-2.43,0.33-1.41,2.19c0.65,1.19,0.52,2.67,0.18,3.99c-0.52,2.04-0.65,4.09-0.62,6.18
		c0.12,7.88,0.22,15.75,0.29,23.63c0.01,0.85,0.2,1.23,1.1,1.24c1.05,0.01,2.07,0.23,2.92,0.92c0.43,0.35,0.68,0.76,0.56,1.35
		c-0.13,0.63-0.6,0.67-1.08,0.73c-2.63,0.32-5.27,0.16-7.91,0.09c-0.52-0.01-1.12-0.15-1.3-0.7c-0.19-0.57,0.16-1.08,0.56-1.48
		c0.22-0.22,0.5-0.51,0.78-0.53c2.02-0.17,1.92-1.54,1.94-3.04c0.07-7.04-0.52-14.07-0.32-21.11c0.01-0.22,0.13-0.53-0.17-0.61
		c-0.13-0.04-0.35,0.13-0.49,0.25c-1.26,1.01-2.55,1.94-4.23,2.08c-0.22,0.02-0.39,0.09-0.36,0.35c0.03,0.31,0.21,0.38,0.49,0.31
		c0.35-0.08,0.71-0.13,1.06-0.17c2.42-0.27,3.11,0.49,2.81,3.02c-0.06,0.52-0.25,0.67-0.75,0.67c-0.88,0-1.76,0.12-2.63,0.1
		c-0.82-0.01-1.18,0.21-1.23,1.13c-0.39,8.04,0.15,16.06,0.68,24.07c0.05,0.7,0.4,0.83,0.92,0.71c1.37-0.3,2.42,0.43,3.47,1.09
		c0.62,0.39,0.19,1.42-0.73,1.86c-0.95,0.46-1.97,0.24-2.95,0.32c-2.17,0.18-4.35,0.66-6.54,0.17c-0.6-0.13-1.16-0.3-1.56-0.8
		c-0.66-0.83-0.41-1.59,0.61-1.85c0.27-0.07,0.54-0.13,0.81-0.21c1.06-0.29,2.57-0.03,3.11-0.84c0.49-0.74,0.08-2.08,0.05-3.16
		c-0.21-7.11-0.58-14.22-0.52-21.34c0.01-0.85-0.35-0.87-1-0.86c-1.37,0.03-2.52-2.01-1.81-3.18c0.46-0.75,1.25-0.26,1.87-0.43
		c0.31-0.09,0.8,0.12,0.83-0.42c0.02-0.47-0.16-0.74-0.74-0.84c-1.74-0.32-3.36-1.09-4.89-1.91c-2.28-1.22-2.99-3.5-3.37-5.9
		c-0.35-0.51-0.2-1.08-0.15-1.62c0.01-0.03,0.02-0.07,0.03-0.11c0.04-0.41-0.1-0.83,0.03-1.24c-0.21,0.42,0.04,0.86-0.05,1.29
		C44.22,40.43,43.88,41.47,44.12,42.53z"/>
	<path style="fill-rule:evenodd;clip-rule:evenodd;fill:#CDCDCF;" d="M44.39,39.12c0,0.65-0.01,1.29-0.01,1.94
		c-0.42,0.44,0.01,1.02-0.25,1.48c-0.26-1.14-0.34-2.27,0.03-3.41C44.23,39.01,44.3,39,44.39,39.12z"/>
	<path style="fill-rule:evenodd;clip-rule:evenodd;fill:#C1001F;" d="M39.39,40.73c-0.05,4.83-3.14,7.88-8.05,7.72
		c-5.35-0.17-8.14-2.39-8.17-7.18c-0.04-5.56,2.74-8.06,8.24-8.52C35.46,32.41,39.44,37.01,39.39,40.73z"/>
	<path style="fill-rule:evenodd;clip-rule:evenodd;fill:#009DDD;" d="M45.13,40.53c-0.18-6.51,6.06-11.26,12.23-9.49
		c3.04,0.87,5.58,2.61,6.42,5.67c1.03,3.75-0.42,7.03-3.22,9.67c-2.59,2.44-5.63,2.24-8.71,1.3c-2.95-0.91-5.65-2.18-6.52-5.58
		C45.18,41.5,45.17,40.92,45.13,40.53z"/>
	<path style="fill-rule:evenodd;clip-rule:evenodd;fill:#C10020;" d="M54.72,26.28c-0.42-2.74,1.39-4.69,2.99-6.72
		c0.09-0.12,0.25-0.26,0.38-0.27c1.95-0.1,3.96-0.53,5.83-0.18c1.69,0.32,2.97,1.78,3.96,3.29c1.96,2.96,1.77,5.53-0.64,8.15
		c-1.54,1.68-4.97,2.1-6.9,0.89c-1.01-0.63-2-1.29-3.24-1.45C55.58,29.77,54.42,28.91,54.72,26.28z"/>
	<path style="fill-rule:evenodd;clip-rule:evenodd;fill:#F3F9FA;" d="M50.69,28.18c-0.18,0.2-0.3,0.36-0.45,0.49
		c-2.13,1.96-4.18,4.01-6.22,6.08c-1.94,1.95-2.23,2.09-3.98,0.3c-2.1-2.14-4.76-3.7-6.42-6.3c-0.36-0.57-0.48-0.89,0.07-1.38
		c2.6-2.34,5.18-4.71,7.76-7.08c0.34-0.31,0.56-0.44,0.97-0.04c2.47,2.43,5.28,4.5,7.59,7.1C50.24,27.61,50.45,27.89,50.69,28.18z"
		/>
	<path style="fill-rule:evenodd;clip-rule:evenodd;fill:#C1001F;" d="M71.19,31.62c3.95,0,7.9,0.04,11.85-0.03
		c0.85-0.01,0.75,0.19,0.46,0.73c-2.22,4.23-4.45,8.45-6.64,12.69c-0.59,1.14-0.97,0.38-1.29-0.1c-1.87-2.87-3.67-5.78-5.55-8.64
		c-0.85-1.3-1.83-2.51-2.76-3.76c-0.11-0.15-0.22-0.3-0.32-0.45c0.18-0.05,0.36-0.13,0.54-0.13c1.24-0.01,2.48-0.01,3.71-0.01
		C71.19,31.82,71.19,31.72,71.19,31.62z"/>
	<path style="fill-rule:evenodd;clip-rule:evenodd;fill:#819B9A;" d="M43.17,59.51c0.15,4.09,0.33,8.19,0.41,12.29
		c0.01,0.44,0.27,1.33-0.64,1.4c-0.79,0.06-1.01-0.48-0.88-1.2c0.11-4.48,0.1-8.95,0-13.43c-0.02-5.92-0.04-11.83-0.06-17.74
		c0-0.2,0.03-0.4,0.03-0.6c0.01-0.61,0.27-1.28,0.85-1.26c0.65,0.03,0.29,0.77,0.3,1.16c0.1,2.79,0.45,5.58-0.02,8.37
		C43.02,52.16,43.02,55.84,43.17,59.51z"/>
	<path style="fill-rule:evenodd;clip-rule:evenodd;fill:#819B9B;" d="M31.2,55c0.8-0.21,1.14,0.06,1.17,0.93
		c0.15,4.55,0.34,9.09,0.54,13.63c0.14,3.17,0.31,6.35,0.46,9.52c0.02,0.35,0.12,0.79-0.29,0.95c-0.31,0.12-0.72,0.14-1.03,0.04
		c-0.4-0.13-0.37-0.56-0.35-0.93c0.16-3.12-0.18-6.22-0.41-9.32c0.04-2.55,0.14-5.1-0.05-7.66c-0.06-0.05-0.07-0.11-0.04-0.18
		C31.03,59.66,30.99,57.33,31.2,55z"/>
	<path style="fill-rule:evenodd;clip-rule:evenodd;fill:#829B9B;" d="M55.21,57.13c0.16,5.46,0.22,10.92,0.54,16.37
		c0.11,1.82-0.06,3.67,0.42,5.47c0.14,0.53-0.03,1.07-0.57,1.12c-0.51,0.05-0.89-0.44-0.81-0.97c0.36-2.35-0.12-4.68-0.18-7.01
		c-0.13-5.46-0.44-10.92-0.34-16.39c0-0.2,0.01-0.4,0.05-0.6c0.12-0.54-0.55-1.52,0.47-1.51c0.79,0.01,0.33,0.96,0.4,1.49
		C55.27,55.77,55.21,56.45,55.21,57.13z"/>
	<path style="fill-rule:evenodd;clip-rule:evenodd;fill:#829B9A;" d="M75.72,55.23c0.04-1.22,0.06-2.45,0.11-3.67
		c0.02-0.4-0.19-1.07,0.41-1.07c0.51,0,0.31,0.64,0.32,1c0.11,7.03,0.2,14.07,0.31,21.1c0.03,1.92,0.12,3.83,0.17,5.75
		c0.01,0.38,0.07,0.96-0.41,0.96c-0.43,0-0.3-0.56-0.32-0.91c-0.21-4.46-0.41-8.92-0.61-13.38C75.75,61.76,75.71,58.49,75.72,55.23z
		"/>
	<path style="fill-rule:evenodd;clip-rule:evenodd;fill:#829B9B;" d="M62.66,62.41c-0.43-4.9-0.28-9.8-0.26-14.71
		c0-0.76-0.5-1.58,0.09-2.3c0.17-0.21,0.31-0.66,0.68-0.54c0.32,0.1,0.16,0.49,0.17,0.75c0.08,2.91,0.17,5.82,0.2,8.73
		c0.06,5.62,0.08,11.24,0.15,16.86c0,0.35-0.12,0.54-0.35,0.68c-0.32,0.19-0.39-0.1-0.48-0.32c-0.22-2.5-0.03-5.01-0.1-7.51
		C62.74,63.51,62.86,62.95,62.66,62.41z"/>
	<path style="fill-rule:evenodd;clip-rule:evenodd;fill:#E6B373;" d="M32.13,54.23c-1,0-2-0.07-2.98,0.02
		c-0.84,0.07-1.08-0.27-1.18-1.03c-0.11-0.82,0.32-0.91,0.95-0.95c2.29-0.15,4.59-0.33,6.88-0.49c0.91-0.07,0.82,0.65,0.92,1.21
		c0.12,0.7-0.11,1.19-0.88,1.21c-1.23,0.03-2.47,0.01-3.7,0.01C32.13,54.21,32.13,54.22,32.13,54.23z"/>
	<path style="fill-rule:evenodd;clip-rule:evenodd;fill:#E6B372;" d="M52.72,53.03c-1.13,0.31-1.22-0.62-1.34-1.38
		c-0.17-1.06,0.68-0.7,1.2-0.77c2.09-0.28,4.18-0.47,6.29-0.52c1.52-0.03,0.87,1.19,1.07,1.78c0.22,0.68-0.59,0.37-0.94,0.4
		C56.93,52.74,54.86,52.87,52.72,53.03z"/>
	<path style="fill-rule:evenodd;clip-rule:evenodd;fill:#E5B373;" d="M78.41,49.68c-1.37,0.09-3.09-0.06-4.76,0.4
		c-0.41,0.11-0.91,0.17-0.89-0.39c0.02-0.53-0.5-1.4,0.51-1.55c2.38-0.35,4.77-0.49,7.18-0.37c0.7,0.03,0.63,0.57,0.67,1.04
		c0.04,0.52-0.16,0.86-0.71,0.87C79.85,49.69,79.29,49.68,78.41,49.68z"/>
	<path style="fill-rule:evenodd;clip-rule:evenodd;fill:#E3B478;" d="M42.27,74.64c-0.67,0-1.07-0.01-1.47,0
		c-0.76,0.03-1.5-0.04-2.2-0.36c-0.01,0,0.07-0.29,0.12-0.29c0.94-0.08,1.67-1.32,2.83-0.35c0.59,0.49,1.59,0.62,2.22,0.05
		c1.05-0.93,2.08-0.35,3.12-0.19c0.15,0.02,0.39,0.3,0.36,0.39c-0.12,0.4-0.55,0.46-0.86,0.47C44.92,74.41,43.48,74.85,42.27,74.64z
		"/>
	<path style="fill-rule:evenodd;clip-rule:evenodd;fill:#F3F3F4;" d="M68.19,20.62c1.6,0.82,2.43,2.02,2.18,3.92
		c-0.15,1.14-0.12,2.33,0,3.47c0.16,1.46-0.85,2.12-1.7,2.93c-0.12,0.11-0.32,0.32-0.48,0.07c-0.04-0.07,0.06-0.29,0.15-0.38
		c2.31-2.03,1.64-4.64,1.32-7.13c-0.14-1.08-1.24-1.69-1.74-2.63C67.89,20.65,67.95,20.54,68.19,20.62z"/>
	<path style="fill-rule:evenodd;clip-rule:evenodd;fill:#F4F4F4;" d="M35.03,49.18c-3.87,1.64-7.33,0.55-10.51-1.75
		c-1.04-0.76-1.68-1.96-1.96-3.27c-0.06-0.15,0-0.23,0.16-0.22c1.56,4.56,7.45,6.54,12.31,4.98c0.06,0.06,0.08,0.12,0.06,0.17
		C35.07,49.15,35.05,49.18,35.03,49.18z"/>
	<path style="fill-rule:evenodd;clip-rule:evenodd;fill:#E0B073;" d="M76.04,80.67c-1.07,0-2.15,0.01-3.22-0.01
		c-0.15,0-0.43,0.15-0.44-0.17c0-0.08,0.22-0.21,0.35-0.24c1.15-0.21,2.23-1.08,3.5-0.22c0.66,0.45,1.31-0.31,2.04-0.28
		c0.88,0.04,1.71,0.14,2.51,0.51c-0.73,0.48-1.55,0.4-2.36,0.41C77.64,80.67,76.84,80.67,76.04,80.67z"/>
	<path style="fill-rule:evenodd;clip-rule:evenodd;fill:#E3E3E4;" d="M66.43,19.56c-2.06-2.04-4.56-1.24-6.97-1.12
		c-0.66,0.03-1.36,0.24-2-0.13c0.62-0.67,1.42-0.27,2.13-0.36c1.14-0.14,2.28-0.24,3.43-0.33c1.53-0.12,2.81,0.29,3.55,1.76
		C66.58,19.48,66.53,19.54,66.43,19.56z"/>
	<path style="fill-rule:evenodd;clip-rule:evenodd;fill:#E0B173;" d="M34.53,81.29c-0.52-0.21-1.35,0.02-1.25-0.25
		c0.18-0.49,0.42-1.24,1.19-1.28c1.07-0.05,2.14-0.07,3.16,0.33c0.16,0.06,0.46-0.03,0.42,0.24c-0.02,0.13-0.26,0.3-0.42,0.34
		C36.56,80.9,35.49,81.1,34.53,81.29z"/>
	<path style="fill-rule:evenodd;clip-rule:evenodd;fill:#F6F6F6;" d="M55.45,21.13c-0.02,0.08-0.02,0.18-0.07,0.22
		c-2.23,1.95-1.28,4.51-1.29,6.88c0,0.17,0.13,0.38,0.26,0.52c0.24,0.26,0.54,0.47,0.58,0.86c0,0.04-0.24,0.17-0.27,0.14
		c-0.31-0.3-0.83-0.6-0.85-0.93c-0.12-2.74-1.6-5.75,1.4-7.94C55.43,20.83,55.54,20.88,55.45,21.13z"/>
	<path style="fill-rule:evenodd;clip-rule:evenodd;fill:#F4F5F5;" d="M36.26,48.3c3.04-1.96,4.57-5.48,3.93-9.04l-0.01,0.01
		c0.16-0.12,0.31-0.09,0.36,0.09c0.89,3.54-0.8,7.39-4.02,9.15C36.27,48.63,36.24,48.5,36.26,48.3z"/>
	<path style="fill-rule:evenodd;clip-rule:evenodd;fill:#EFF3F4;" d="M40.19,39.25c-0.85-2.28-2.08-4.29-3.97-5.86
		c-0.09-0.13-0.08-0.25,0.04-0.36C38.47,33.85,40.59,37.2,40.19,39.25C40.18,39.26,40.19,39.25,40.19,39.25z"/>
	<path style="fill-rule:evenodd;clip-rule:evenodd;fill:#DEB176;" d="M31.02,81.14c-0.43-0.06-0.86-0.17-1.29-0.17
		c-0.71,0-1.37-0.23-2.03-0.43c0.13-0.13,0.25-0.37,0.39-0.39c1-0.13,2.03-1,2.99,0.02c0.24,0.26,0.73,0.42,0.61,0.9
		C31.67,81.15,31.25,81.12,31.02,81.14z"/>
	<path style="fill-rule:evenodd;clip-rule:evenodd;fill:#D0A874;" d="M56.47,80.92c-1.68,0.62-3.4,0.41-5.12,0.21
		c-0.12-0.17-0.13-0.34,0.03-0.49c1.32-0.21,2.64-0.81,3.93,0.17c0.16,0.12,0.57-0.09,0.87-0.14
		C56.29,80.73,56.44,80.75,56.47,80.92z"/>
	<path style="fill-rule:evenodd;clip-rule:evenodd;fill:#E3E3E4;" d="M22.72,43.94c-0.05,0.07-0.11,0.15-0.16,0.22
		c-1.41-3.55-0.52-6.69,1.7-9.59c0.24-0.07,0.31,0.03,0.23,0.25C22.46,37.58,21.74,40.6,22.72,43.94z"/>
	<path style="fill-rule:evenodd;clip-rule:evenodd;fill:#9FAAAA;" d="M42.06,58.56c0.38,0.84,0.16,1.73,0.17,2.59
		c0.03,3.19,0.02,6.38,0.01,9.57c0,0.43,0.13,0.88-0.18,1.27C42.06,67.52,42.06,63.04,42.06,58.56z"/>
	<path style="fill-rule:evenodd;clip-rule:evenodd;fill:#9FABAB;" d="M43.17,59.51c-0.45-1.68-0.2-3.4-0.18-5.09
		c0.02-1.97-0.29-3.97,0.18-5.93C43.17,52.16,43.17,55.84,43.17,59.51z"/>
	<path style="fill-rule:evenodd;clip-rule:evenodd;fill:#A0A9A9;" d="M75.72,55.23c0.18,3.26,0.22,6.53-0.02,9.79
		C75.56,61.75,75.49,58.49,75.72,55.23z"/>
	<path style="fill-rule:evenodd;clip-rule:evenodd;fill:#D8AD75;" d="M65.33,72.75c-0.21,0-0.33,0.02-0.44,0
		c-0.4-0.09-0.85,0.23-1.2-0.18c0.46-0.26,0.78-0.87,1.4-0.73c0.62,0.15,1.77,0.03,1.75,0.56C66.8,73.12,65.78,72.53,65.33,72.75z"
		/>
	<path style="fill-rule:evenodd;clip-rule:evenodd;fill:#9EA6A7;" d="M62.66,62.41c0.47,1.4,0.15,2.84,0.2,4.26
		c0.06,1.63,0,3.27-0.01,4.91c-0.46-1.1-0.17-2.24-0.2-3.36C62.61,66.28,62.66,64.34,62.66,62.41z"/>
	<path style="fill-rule:evenodd;clip-rule:evenodd;fill:#F5F5F5;" d="M26.18,32.93c1.12-0.87,2.33-1.5,3.81-1.29
		c0.24-0.06,0.53-0.19,0.47,0.27c-1.47-0.01-2.69,0.8-4.02,1.24C26.18,33.27,26.15,33.14,26.18,32.93z"/>
	<path style="fill-rule:evenodd;clip-rule:evenodd;fill:#E3B375;" d="M56.47,80.92c-0.1-0.08-0.2-0.17-0.3-0.25
		c0.21-0.17,0.41-0.48,0.63-0.5c0.89-0.07,1.81-0.27,2.66,0.19c0.07,0.04,0.1,0.14,0.15,0.22c-0.74,0.12-1.47,0.25-2.21,0.34
		C57.1,80.96,56.78,80.93,56.47,80.92z"/>
	<path style="fill-rule:evenodd;clip-rule:evenodd;fill:#9CAAA9;" d="M31.22,62.17c0.39,2.55,0.29,5.1,0.05,7.66
		C31.26,67.27,31.24,64.72,31.22,62.17z"/>
	<path style="fill-rule:evenodd;clip-rule:evenodd;fill:#D8AF79;" d="M61.75,72.76c-0.47-0.15-1.2,0.24-1.35-0.3
		c-0.12-0.43,0.59-0.6,1-0.55c0.55,0.07,1.32,0.09,1.48,0.68C62.94,72.85,62.13,72.61,61.75,72.76z"/>
	<path style="fill-rule:evenodd;clip-rule:evenodd;fill:#9CA7A6;" d="M31.2,55c-0.01,2.33-0.01,4.66-0.02,6.99
		C30.85,59.66,30.77,57.33,31.2,55z"/>
	<path style="fill-rule:evenodd;clip-rule:evenodd;fill:#939496;" d="M60.03,81.62c-0.83,0.16-1.67,0.34-2.51,0.47
		c-0.29,0.04-0.85,0.08-0.83-0.17c0.03-0.47,0.56-0.29,0.88-0.31c0.59-0.04,1.2,0.16,1.75-0.19C59.53,81.57,59.85,81.36,60.03,81.62
		z"/>
	<path style="fill-rule:evenodd;clip-rule:evenodd;fill:#F2F2F2;" d="M44.39,39.12l-0.12,0.01c0,0-0.12,0-0.12,0
		c-0.04-0.31-0.09-0.61-0.13-0.92c-0.07-0.54,0.22-1.08,0.62-1.16c0.48-0.09,0.15,0.36,0.1,0.58c-0.03,0.15-0.08,0.3-0.11,0.46
		C44.55,38.43,44.47,38.77,44.39,39.12z"/>
	<path style="fill-rule:evenodd;clip-rule:evenodd;fill:#7F9494;" d="M54.86,49.96c-0.31-0.02-0.67,0.06-0.66-0.44
		c0-0.34,0.16-0.53,0.51-0.48c0.34,0.05,0.75,0.02,0.75,0.54C55.46,50.03,55.11,49.92,54.86,49.96z"/>
	<path style="fill-rule:evenodd;clip-rule:evenodd;fill:#69696B;" d="M30.4,82.12c-0.35-0.13-0.92,0.16-0.89-0.32
		c0.02-0.33,0.61-0.18,0.94-0.18c0.28,0,0.81-0.14,0.79,0.22C31.2,82.3,30.64,81.94,30.4,82.12z"/>
	<path style="fill-rule:evenodd;clip-rule:evenodd;fill:#6B6C6E;" d="M53.85,82.36c-0.59-0.05-1.02-0.08-1.46-0.12
		c0.37-0.38,0.87-0.11,1.29-0.26c0.51-0.18,1-0.04,1.46,0.21C54.66,82.26,54.18,82.32,53.85,82.36z"/>
	<path style="fill-rule:evenodd;clip-rule:evenodd;fill:#CACBCC;" d="M26.18,32.93c0.09,0.07,0.17,0.15,0.26,0.22
		c-0.65,0.56-1.3,1.12-1.95,1.67c-0.08-0.08-0.16-0.17-0.23-0.25C24.9,34.02,25.54,33.48,26.18,32.93z"/>
	<path style="fill-rule:evenodd;clip-rule:evenodd;fill:#A3A4A6;" d="M65.48,33.09c-0.44,0.38-0.99,0.25-1.49,0.25
		c-0.38-0.01-1.13,0.25-1.09-0.11c0.05-0.54,0.75-0.36,1.21-0.31C64.55,33.13,65.04,32.87,65.48,33.09z"/>
	<path style="fill-rule:evenodd;clip-rule:evenodd;fill:#616264;" d="M30.46,31.91c-0.03-0.3-0.32-0.17-0.47-0.27
		c0.76-0.49,1.48,0.03,2.22,0.09c0,0.05,0,0.09,0,0.14C31.63,31.88,31.05,31.9,30.46,31.91z"/>
	<path style="fill-rule:evenodd;clip-rule:evenodd;fill:#C6C6C8;" d="M68.19,20.62c-0.09,0.08-0.18,0.17-0.27,0.25
		c-0.5-0.44-1-0.88-1.49-1.31c0.02-0.08,0.06-0.14,0.14-0.18C67.11,19.79,67.65,20.2,68.19,20.62z"/>
	<path style="fill-rule:evenodd;clip-rule:evenodd;fill:#91A1A1;" d="M31.68,50.63c0.24,0,0.5,0.01,0.51,0.33
		c0,0.29-0.18,0.4-0.46,0.39c-0.26-0.01-0.48-0.08-0.51-0.37C31.18,50.64,31.45,50.64,31.68,50.63z"/>
	<path style="fill-rule:evenodd;clip-rule:evenodd;fill:#CFD0D1;" d="M36.26,48.3c0.08,0.07,0.17,0.14,0.25,0.21
		c-0.44,0.35-0.91,0.63-1.48,0.68c0-0.09,0-0.17,0-0.26C35.44,48.71,35.85,48.5,36.26,48.3z"/>
	<path style="fill-rule:evenodd;clip-rule:evenodd;fill:#C8C9CB;" d="M36.25,33.04c-0.01,0.12-0.03,0.24-0.04,0.36
		c-0.48-0.32-1.06-0.48-1.39-1.01l-0.02,0.02C35.42,32.32,35.84,32.67,36.25,33.04z"/>
	<path style="fill-rule:evenodd;clip-rule:evenodd;fill:#E9EAEA;" d="M53.34,29.46c0.09,0.4-0.18,0.32-0.33,0.32
		c-0.2-0.01-0.52,0.14-0.57-0.14c-0.02-0.14,0.24-0.42,0.42-0.47C53,29.13,53.2,29.37,53.34,29.46z"/>
	<path style="fill-rule:evenodd;clip-rule:evenodd;fill:#8D8E90;" d="M28.03,81.48c-0.13,0.33-0.32,0.35-0.51,0.29
		c-0.25-0.08-0.53-0.16-0.59-0.48c0.13,0,0.27-0.02,0.4,0.01C27.57,81.35,27.8,81.42,28.03,81.48z"/>
	<path style="fill-rule:evenodd;clip-rule:evenodd;fill:#666668;" d="M38.64,81.36c-0.16,0.09-0.31,0.21-0.49,0.27
		c-0.24,0.09-0.47,0.32-0.75,0.1c-0.05-0.04-0.09-0.16-0.06-0.2c0.22-0.33,0.56-0.12,0.85-0.17C38.34,81.22,38.49,81.21,38.64,81.36
		z"/>
	<path style="fill-rule:evenodd;clip-rule:evenodd;fill:#AAABAD;" d="M56.18,19.69c0.03-0.07,0.05-0.16,0.1-0.21
		c0.24-0.24,0.5-0.48,0.75-0.72c0.11,0.46-0.28,0.64-0.5,0.91C56.41,19.75,56.3,19.76,56.18,19.69z"/>
	<path style="fill-rule:evenodd;clip-rule:evenodd;fill:#CFD0D1;" d="M55.45,21.13c-0.08-0.08-0.16-0.17-0.24-0.25
		c0.13-0.32,0.55-0.78,0.61-0.69C56.1,20.58,55.67,20.84,55.45,21.13z"/>
	<path style="fill-rule:evenodd;clip-rule:evenodd;fill:#ECECED;" d="M65.48,33.09c-0.45-0.07-0.95,0.19-1.36-0.17
		C64.57,32.98,65.1,32.45,65.48,33.09z"/>
	<path style="fill-rule:evenodd;clip-rule:evenodd;fill:#C3C4C5;" d="M60.03,81.62c-0.24-0.07-0.47-0.14-0.71-0.2
		c0.31-0.08,0.62-0.15,0.93-0.22l0.07,0.09l-0.08,0.09C60.17,81.46,60.1,81.54,60.03,81.62z"/>
	<path style="fill-rule:evenodd;clip-rule:evenodd;fill:#8D8D8F;" d="M47.99,75.08c-0.29,0.02-0.43,0.05-0.56,0.03
		c-0.05-0.01-0.08-0.12-0.12-0.19c0.1-0.03,0.21-0.08,0.31-0.07C47.7,74.86,47.77,74.94,47.99,75.08z"/>
	<path style="fill-rule:evenodd;clip-rule:evenodd;fill:#6C6C6E;" d="M51.37,80.65c-0.01,0.16-0.02,0.33-0.03,0.49
		c-0.17-0.13-0.34-0.27-0.51-0.4C51.02,80.71,51.19,80.68,51.37,80.65z"/>
	<path style="fill-rule:evenodd;clip-rule:evenodd;fill:#C0C1C2;" d="M32.21,31.87c0.01-0.05,0.01-0.09,0-0.14
		c0.26-0.01,0.55-0.18,0.77,0.11C32.73,31.85,32.47,31.86,32.21,31.87z"/>
	<path style="fill-rule:evenodd;clip-rule:evenodd;fill:#E4E4E5;" d="M76.34,46.99c0.06,0.07,0.12,0.14,0.17,0.2
		c-0.1,0.03-0.2,0.09-0.29,0.08c-0.07-0.01-0.14-0.09-0.2-0.15C76.12,47.09,76.21,47.05,76.34,46.99z"/>
	<path style="fill-rule:evenodd;clip-rule:evenodd;fill:#EDEDEE;" d="M34.82,32.39c-0.15-0.02-0.3-0.04-0.45-0.06
		c0.04-0.05,0.07-0.14,0.11-0.15c0.17-0.03,0.31,0.02,0.32,0.23L34.82,32.39z"/>
	<path style="fill-rule:evenodd;clip-rule:evenodd;fill:#DCDDDE;" d="M34.04,32.02c-0.06,0.05-0.11,0.12-0.16,0.12
		c-0.07,0-0.14-0.04-0.21-0.07c0.04-0.04,0.08-0.12,0.13-0.13C33.86,31.94,33.94,31.98,34.04,32.02z"/>
	<path style="fill-rule:evenodd;clip-rule:evenodd;fill:#CCCDCE;" d="M38.64,81.36c-0.15,0-0.3,0-0.45,0
		c0.04-0.3,0.26-0.24,0.46-0.22l-0.02-0.02C38.63,81.19,38.63,81.27,38.64,81.36z"/>
	<path style="fill-rule:evenodd;clip-rule:evenodd;fill:#FBFBFB;" d="M56.18,19.69c0.11,0,0.23-0.01,0.34-0.01
		c-0.11,0.07-0.23,0.13-0.34,0.2C56.18,19.82,56.18,19.76,56.18,19.69z"/>
	<path style="fill-rule:evenodd;clip-rule:evenodd;fill:#EDEDEE;" d="M38.64,81.13c0.05-0.07,0.1-0.14,0.14-0.21
		c0.02,0.03,0.04,0.06,0.06,0.09c-0.08,0.03-0.15,0.07-0.23,0.1L38.64,81.13z"/>
	<path style="fill-rule:evenodd;clip-rule:evenodd;fill:#DDDEDF;" d="M60.24,81.37c0.03-0.06,0.03-0.12,0.01-0.18
		c0.07,0.01,0.13,0.02,0.2,0.03C60.38,81.27,60.31,81.32,60.24,81.37z"/>
	<path style="fill-rule:evenodd;clip-rule:evenodd;fill:#1A1412;" d="M26.54,43.64c-1.6,0.03-2.8-1.69-2.21-3.17
		c0.08-0.2,0.17-0.35,0.41-0.36c4.11-0.18,8.17-0.87,12.25-1.29c0.78-0.08,1.06,0.26,1.18,0.96c0.39,2.26-0.2,2.87-2.47,3.01
		C32.64,42.98,29.6,43.35,26.54,43.64z"/>
	<path style="fill-rule:evenodd;clip-rule:evenodd;fill:#151618;" d="M53.7,37.2c0.76-0.08,1.58,0.33,2.07-0.86
		c0.33-0.81,1.43-1.08,2.4-1.02c0.38,0.02,0.85,0.3,0.8,0.59c-0.25,1.43,0.97,1.56,1.74,2.1c1.61,1.13,1.9,3.22,0.67,4.91
		c-0.94,1.31-3.78,1.76-4.95,0.61c-0.7-0.68-1.58-0.49-2.19-0.84c-1.28-0.74-1.79,0.06-2.61,0.68c-1.9,1.42-4.3,1-5.41-0.84
		c-1.05-1.75-0.24-4.09,1.74-5.13c0.53-0.28,1.1-0.16,1.62-0.3c0.74-0.19,1.36-0.51,0.46-1.31c-0.35-0.31-0.36-0.69-0.2-1.1
		c0.17-0.43,0.53-0.44,0.9-0.4c0.75,0.08,1.49,0.18,2.23,0.27c0.32,0.04,0.51,0.23,0.54,0.53c0.04,0.42-0.29,0.6-0.54,0.86
		c-0.33,0.35-1.37,0-1.06,0.9c0.23,0.65,0.98,0.09,1.44,0.32C53.45,37.23,53.58,37.2,53.7,37.2z"/>
	<path style="fill-rule:evenodd;clip-rule:evenodd;fill:#FEFDFC;" d="M61.41,23.8c0.46,0.04,0.43-0.42,0.6-0.65
		c0.39-0.5,0.85-0.75,1.44-0.55c0.62,0.2,0.89,0.68,0.88,1.35c-0.02,0.96-0.02,1.92,0,2.88c0.02,0.68-0.15,1.18-0.93,1.25
		c-0.82,0.08-1.45-0.05-1.79-0.96c-0.42-1.12-0.12-2.24-0.16-3.35L61.41,23.8z"/>
	<path style="fill-rule:evenodd;clip-rule:evenodd;fill:#FFFEFD;" d="M65.04,25.23c0-0.48-0.07-0.97,0.02-1.43
		c0.08-0.42-0.45-1.08,0.42-1.24c0.85-0.16,1.72,0.18,1.85,0.88c0.18,0.96,0.63,2.26-0.93,2.76c-0.46,0.15-0.4,0.61-0.43,1.01
		c-0.03,0.32,0.29,0.86-0.43,0.87c-0.81,0.02-0.45-0.59-0.48-0.94C65,26.51,65.04,25.87,65.04,25.23z"/>
	<path style="fill-rule:evenodd;clip-rule:evenodd;fill:#FEFCFB;" d="M57.57,28.08c-0.5,0.01-0.98,0.15-0.96-0.65
		c0.02-0.7,0.21-0.79,0.8-0.52c0.24,0.11,0.54-0.08,0.55-0.32c0.01-0.23-0.08-0.52-0.38-0.65c-1.1-0.5-1.08-1.5-0.91-2.44
		c0.13-0.76,0.76-1.03,1.51-0.93c0.61,0.09,0.57,0.57,0.56,1.01c0,0.26-0.03,0.5-0.4,0.33c-0.28-0.13-0.61-0.36-0.74,0.13
		c-0.1,0.36,0.16,0.56,0.47,0.72c1.13,0.57,1,1.64,0.88,2.61C58.86,28.12,58.16,28.13,57.57,28.08z"/>
	<path style="fill-rule:evenodd;clip-rule:evenodd;fill:#FFFFFF;" d="M61.44,23.77c-0.54-0.09-0.69,0.16-0.67,0.67
		c0.03,0.92,0.02,1.83,0,2.75c-0.01,0.38,0.22,0.92-0.56,0.9c-0.69-0.02-0.48-0.5-0.49-0.85c-0.02-0.84,0.02-1.68-0.02-2.51
		c-0.01-0.37,0.25-0.88-0.48-1.01c-0.38-0.07-0.19-0.55-0.19-0.84c0-0.45,0.38-0.29,0.62-0.32c0.28-0.02,0.56,0.02,0.84-0.01
		c1.03-0.11,1.43,0.22,0.91,1.24C61.41,23.8,61.44,23.77,61.44,23.77z"/>
	<path style="fill-rule:evenodd;clip-rule:evenodd;fill:#1B1B18;" d="M47.45,28.47c-0.4,0.33-0.79,0.61-1.13,0.93
		c-1.24,1.13-2.5,2.22-3.67,3.42c-0.55,0.56-0.97,0.57-1.47,0.08c-1.54-1.51-3.39-2.74-4.43-4.74c-0.23-0.43-0.28-0.66,0.06-1.01
		c1.49-1.5,2.97-3,4.42-4.53c0.39-0.41,0.61-0.09,0.91,0.07c0.99,0.51,1.54,1.49,2.22,2.27c0.83,0.95,1.69,1.88,2.54,2.81
		C47.06,27.93,47.19,28.12,47.45,28.47z"/>
	<path style="fill-rule:evenodd;clip-rule:evenodd;fill:#1A1614;" d="M69.89,32.71c3.63,0.4,7.23-0.25,10.85-0.33
		c1.31-0.03,1.37,0.49,0.84,1.35c-1.7,2.74-3.33,5.52-4.87,8.36c-0.4,0.74-0.89,0.86-1.47-0.01c-1.94-2.91-3.96-5.77-5.94-8.66
		c-0.1-0.14-0.16-0.38-0.11-0.54C69.29,32.5,69.63,32.68,69.89,32.71z"/>
	<path style="fill-rule:evenodd;clip-rule:evenodd;fill:#F3F8F9;" d="M26.25,42.76c-0.62,0.16-0.93-0.18-1.04-0.84
		c-0.11-0.69,0.32-0.73,0.83-0.85c2.48-0.58,5.02-0.64,7.53-0.98c0.98-0.13,1.99-0.1,2.94-0.34c0.67-0.17,0.84,0.13,0.86,0.58
		c0.02,0.53,0.29,1.32-0.6,1.42C33.29,42.11,29.81,42.42,26.25,42.76z"/>
	<path style="fill-rule:evenodd;clip-rule:evenodd;fill:#F6F7F7;" d="M50.65,37.71c0.13-0.14,0.38-0.4,0.39-0.39
		c1.19,1.1,2.62,0.27,3.91,0.5c0.22,0.04,0.64-0.23,0.64,0.21c0,0.29-0.37,0.2-0.59,0.2c-0.87,0.01-1.75,0-2.62,0.01
		c-0.22,0-0.56-0.04-0.64,0.08c-0.17,0.25,0.18,0.37,0.3,0.55c1.04,1.57,0.11,3.89-1.63,4.11c-0.07-0.1-0.08-0.2-0.04-0.32
		c0.71-0.59,1.27-1.23,1.17-2.27c-0.12-1.18-0.4-1.35-1.38-0.71c-0.12,0.01-0.23-0.03-0.32-0.11c-0.26-0.48-0.05-0.93,0.09-1.39
		C50.04,37.84,50.38,37.83,50.65,37.71z"/>
	<path style="fill-rule:evenodd;clip-rule:evenodd;fill:#F2F2F2;" d="M58.05,37.2c1,1.2,0.22,2.72,0.71,4.02
		c0.1,0.27-0.32,0.25-0.54,0.26c-1.15,0.01-2.31-0.14-3.32,0.68c-0.28,0.23-0.69,0.11-0.95-0.23c-0.16-0.21-0.25-0.4-0.09-0.64
		c0.2-0.31,0.5-0.48,0.81-0.34c0.71,0.32,1.41-0.04,2.09,0.06c1.67,0.23,1.81-0.61,1.35-1.83c-0.25-0.66-0.27-1.3-0.26-1.97
		C57.92,37.09,57.98,37.08,58.05,37.2z"/>
	<path style="fill-rule:evenodd;clip-rule:evenodd;fill:#E7E8E9;" d="M60.72,39.36c0.88,1,0.6,2.69-0.62,3.72
		c-0.9,0.76-2.49,0.64-3.24-0.24c-0.08-0.09-0.14-0.18-0.21-0.27c0.14,0,0.32-0.05,0.42,0.02c1.08,0.79,2.2,0.57,3.07-0.19
		c0.9-0.79,0.99-1.93,0.42-3.04C60.61,39.35,60.67,39.36,60.72,39.36z"/>
	<path style="fill-rule:evenodd;clip-rule:evenodd;fill:#0098D5;" d="M59.05,42.01c0.27-0.55,0.31-1.1,0.09-1.68
		c-0.1-0.27-0.28-0.65,0.24-0.72c0.38-0.05,0.6,0.2,0.61,0.55c0.01,0.77,0.12,1.61-0.96,1.82L59.05,42.01z"/>
	<path style="fill-rule:evenodd;clip-rule:evenodd;fill:#EDEDEE;" d="M47.48,42.76c-1.56-1.05-0.95-2.34-0.4-3.62
		c0.23-0.04,0.3,0.11,0.35,0.29c-0.14,1.03-0.03,2.04,0.24,3.04C47.64,42.6,47.58,42.69,47.48,42.76z"/>
	<path style="fill-rule:evenodd;clip-rule:evenodd;fill:#BFBFC1;" d="M50.42,42.77c0.04,0.07,0.03,0.14-0.02,0.21
		c-0.76,0.61-1.59,0.47-2.43,0.24c0.04-0.21,0.17-0.35,0.36-0.45C49.03,42.63,49.72,42.45,50.42,42.77z"/>
	<path style="fill-rule:evenodd;clip-rule:evenodd;fill:#F7F7F7;" d="M58.05,37.2c-0.07,0-0.13,0-0.2,0
		c-0.06-0.05-0.12-0.1-0.18-0.16c-0.26-0.25-0.93,0.16-0.89-0.34c0.04-0.4,0.64-0.58,1.09-0.48C58.66,36.38,57.85,36.89,58.05,37.2z
		"/>
	<path style="fill-rule:evenodd;clip-rule:evenodd;fill:#B8B9BA;" d="M47.3,39.38c-0.07-0.08-0.15-0.16-0.22-0.24
		c0.45-0.67,1.02-1.16,1.85-1.24c0.03,0.05,0.06,0.1,0.08,0.14C48.65,38.75,48.13,39.27,47.3,39.38z"/>
	<path style="fill-rule:evenodd;clip-rule:evenodd;fill:#D9D9DA;" d="M51.32,35.75c0-0.29-0.19-0.39-0.42-0.49
		c-0.12-0.05-0.3-0.24-0.28-0.31c0.07-0.27,0.31-0.11,0.48-0.11c0.04,0,0.07,0.03,0.11,0.04c0.42,0.08,0.84,0.15,1.26,0.23
		c-0.1,0.48-0.87,0.06-0.89,0.66C51.49,35.85,51.4,35.85,51.32,35.75z"/>
	<path style="fill-rule:evenodd;clip-rule:evenodd;fill:#EFF0F0;" d="M56.89,38.89c-0.05,0.1-0.08,0.24-0.16,0.29
		c-0.4,0.25-0.31,1.06-1.04,0.92c-0.07-0.01-0.2-0.16-0.18-0.18c0.32-0.52,0.56-1.16,1.36-1.07L56.89,38.89z"/>
	<path style="fill-rule:evenodd;clip-rule:evenodd;fill:#0093CE;" d="M54.33,38.84c0.18,0.12,0.65-0.21,0.56,0.3
		c-0.04,0.23-0.27,0.56-0.6,0.45c-0.24-0.08-0.58-0.32-0.58-0.51C53.69,38.64,54.11,38.94,54.33,38.84z"/>
	<path style="fill-rule:evenodd;clip-rule:evenodd;fill:#E9E9EA;" d="M53.27,39.43c0.31,0.19,0.74,0.3,0.67,0.79
		c-0.01,0.07-0.25,0.19-0.37,0.17c-0.45-0.08-0.29-0.45-0.31-0.73C53.2,39.58,53.21,39.5,53.27,39.43z"/>
	<path style="fill-rule:evenodd;clip-rule:evenodd;fill:#CCCDCE;" d="M50.65,37.71c-0.16,0.14-0.31,0.28-0.47,0.42
		c-0.43,0.26-0.82,0.13-1.18-0.14l-0.06-0.08C49.46,37.45,50.07,37.75,50.65,37.71z"/>
	<path style="fill-rule:evenodd;clip-rule:evenodd;fill:#DDDEDF;" d="M56.93,37.79c0,0.22-0.11,0.38-0.32,0.41
		c-0.14,0.02-0.35-0.02-0.27-0.24c0.06-0.17,0.19-0.35,0.34-0.43C56.84,37.45,56.92,37.62,56.93,37.79z"/>
	<path style="fill-rule:evenodd;clip-rule:evenodd;fill:#C9CACB;" d="M51.32,35.75c0.09,0,0.18,0.01,0.27,0.01
		c-0.12,0.31-0.24,0.62-0.36,0.92C51.04,36.35,51.03,36.04,51.32,35.75z"/>
	<path style="fill-rule:evenodd;clip-rule:evenodd;fill:#0082B6;" d="M58.55,42.23c-0.1,0.4-0.4,0.26-0.65,0.23
		c-0.04,0-0.08-0.09-0.12-0.14c0.26-0.02,0.53-0.05,0.79-0.07L58.55,42.23z"/>
	<path style="fill-rule:evenodd;clip-rule:evenodd;fill:#ECECEC;" d="M48.23,42.98c-0.09,0.08-0.17,0.16-0.26,0.24
		c-0.16-0.15-0.33-0.31-0.49-0.46c0.03-0.03,0.06-0.07,0.09-0.1C47.92,42.52,48.12,42.65,48.23,42.98z"/>
	<path style="fill-rule:evenodd;clip-rule:evenodd;fill:#0099D7;" d="M57.58,39.97c-0.03,0.06-0.06,0.12-0.1,0.18
		c-0.04-0.04-0.12-0.07-0.13-0.11c0-0.05,0.05-0.11,0.07-0.16C57.48,39.9,57.53,39.93,57.58,39.97z"/>
	<path style="fill-rule:evenodd;clip-rule:evenodd;fill:#D9DADB;" d="M56.87,38.84c0.05-0.22,0.19-0.29,0.39-0.23
		c0.03,0.01,0.04,0.16,0.03,0.17c-0.13,0.04-0.27,0.07-0.4,0.11L56.87,38.84z"/>
	<path style="fill-rule:evenodd;clip-rule:evenodd;fill:#0097D5;" d="M58.57,42.25c0.04-0.33,0.28-0.25,0.48-0.24l-0.02-0.02
		c-0.02,0.36-0.28,0.23-0.48,0.24L58.57,42.25z"/>
	<path style="fill-rule:evenodd;clip-rule:evenodd;fill:#EAEBEB;" d="M60.51,39.05c-0.07,0-0.14,0.01-0.21,0.01
		c0.02-0.05,0.04-0.1,0.05-0.15c0.04,0.06,0.08,0.11,0.13,0.17L60.51,39.05z"/>
	<path style="fill-rule:evenodd;clip-rule:evenodd;fill:#B6B7B9;" d="M59.96,38.71c0,0.03,0.01,0.06-0.01,0.07
		c-0.02,0.02-0.05,0.02-0.08,0.03c0-0.05,0.01-0.1,0.01-0.15C59.91,38.68,59.93,38.69,59.96,38.71z"/>
	<path style="fill-rule:evenodd;clip-rule:evenodd;fill:#F8F8F8;" d="M53.27,39.43c-0.02,0.07-0.02,0.15-0.01,0.22
		c-0.06-0.08-0.11-0.16-0.17-0.23C53.16,39.42,53.21,39.43,53.27,39.43z"/>
	<path style="fill-rule:evenodd;clip-rule:evenodd;fill:#FDFEFE;" d="M60.72,39.36l-0.08-0.03l-0.08,0.02
		c-0.02-0.1-0.03-0.19-0.05-0.29c0,0-0.03,0.03-0.03,0.03C60.56,39.18,60.64,39.27,60.72,39.36z"/>
	<path style="fill-rule:evenodd;clip-rule:evenodd;fill:#C21922;" d="M62.42,25.56c-0.02-0.81,0.08-1.66,0.62-1.65
		c0.52,0.01,0.61,0.87,0.59,1.48c-0.02,0.63-0.15,1.66-0.56,1.61C62.38,26.93,62.55,25.96,62.42,25.56z"/>
	<path style="fill-rule:evenodd;clip-rule:evenodd;fill:#C31E23;" d="M66.27,24.52c-0.05,0.17-0.11,0.38-0.17,0.6
		c-0.04-0.18-0.12-0.37-0.12-0.55c0-0.22,0.06-0.45,0.09-0.67C66.39,24.01,66.17,24.28,66.27,24.52z"/>
	<path style="fill-rule:evenodd;clip-rule:evenodd;fill:#F3D000;" d="M46.04,28.06c0.02,0.43-4.03,4.24-4.29,4.06
		c-0.65-0.43-1.24-0.97-1.83-1.49c-2.79-2.47-2.79-2.8-0.15-5.29c2.17-2.03,2.16-2.03,4.12,0.25c0.57,0.66,1.15,1.32,1.73,1.97
		C45.78,27.75,45.94,27.93,46.04,28.06z"/>
	<path style="fill-rule:evenodd;clip-rule:evenodd;fill:#F3F8F9;" d="M80.23,33.26c0.63-0.18,0.68,0.07,0.39,0.56
		c-1.36,2.36-2.71,4.74-4.09,7.1c-0.32,0.54-0.63,0.73-1.09,0.02c-1.41-2.16-2.89-4.27-4.31-6.41c-0.18-0.27-0.67-0.76,0.27-0.8
		C74.35,33.59,77.29,33.41,80.23,33.26z"/>
	<path style="fill-rule:evenodd;clip-rule:evenodd;fill:#1B1E21;" d="M48.23,42.98c-0.22-0.1-0.44-0.21-0.66-0.31
		c-0.52-1.06-0.89-2.13-0.28-3.28c0.57-0.47,1.13-0.93,1.7-1.4c0.39,0.05,0.79,0.1,1.18,0.14c0.23,0.56-0.39,0.94-0.3,1.47
		c-0.02,0.12-0.04,0.23-0.1,0.33c0.15-0.08,0.2-0.25,0.33-0.34c0.36-0.25,0.25-1.07,0.9-0.89c0.58,0.16,0.77,0.77,0.82,1.33
		c0.12,1.2,0.01,2.32-1.4,2.75C49.71,43.1,48.96,42.89,48.23,42.98z"/>
	<path style="fill-rule:evenodd;clip-rule:evenodd;fill:#D6D6D7;" d="M50.11,39.59c-0.01,0.04-0.02,0.08-0.04,0.11
		c-0.35,0.4-0.22,1.07-0.77,1.36c-0.23-0.66,0.45-0.95,0.58-1.46C49.95,39.56,50.03,39.56,50.11,39.59z"/>
	<path style="fill-rule:evenodd;clip-rule:evenodd;fill:#0096D3;" d="M48.97,39.61c-0.39,0.54-1.23,0.87-0.76,1.79
		c0.32,0.62,0.86,0.62,1.42,0.59c0.9-0.05,0.93-0.63,0.89-1.34c-0.02-0.38,0.14-0.77,0.22-1.15c0.1,0.04,0.23,0.04,0.3,0.11
		c0.3,0.35,0.44,0.78,0.32,1.22c-0.28,1.07-1.03,1.72-2.1,1.82c-0.63,0.06-1.35-0.2-1.46-0.93c-0.14-0.91-0.3-1.94,0.9-2.4
		C48.93,39.27,49.02,39.37,48.97,39.61z"/>
	<path style="fill-rule:evenodd;clip-rule:evenodd;fill:#006E98;" d="M48.97,39.61c-0.09-0.1-0.19-0.19-0.28-0.29
		c0.16-0.21,0.41-0.51,0.62-0.29C49.53,39.28,49.2,39.47,48.97,39.61z"/>
</g>
</svg>
