<?xml version="1.0" encoding="utf-8"?>
<!-- Generator: Adobe Illustrator 16.0.0, SVG Export Plug-In . SVG Version: 6.00 Build 0)  -->
<!DOCTYPE svg PUBLIC "-//W3C//DTD SVG 1.0//EN" "http://www.w3.org/TR/2001/REC-SVG-20010904/DTD/svg10.dtd" [
	<!ENTITY ns_flows "http://ns.adobe.com/Flows/1.0/">
	<!ENTITY ns_extend "http://ns.adobe.com/Extensibility/1.0/">
	<!ENTITY ns_ai "http://ns.adobe.com/AdobeIllustrator/10.0/">
	<!ENTITY ns_graphs "http://ns.adobe.com/Graphs/1.0/">
]>
<svg version="1.0" id="Layer_1" xmlns:x="&ns_extend;" xmlns:i="&ns_ai;" xmlns:graph="&ns_graphs;"
	 xmlns="http://www.w3.org/2000/svg" xmlns:xlink="http://www.w3.org/1999/xlink" xmlns:a="http://ns.adobe.com/AdobeSVGViewerExtensions/3.0/"
	 x="0px" y="0px" width="960px" height="560px" viewBox="0 0 960 560" style="enable-background:new 0 0 960 560;"
	 xml:space="preserve">
<g>
	<path style="fill-rule:evenodd;clip-rule:evenodd;" d="M485.47,273.75c1.11-2.76,2.07-5.55,1.65-8.6c-0.48-3.5,0.04-7,0.05-10.5
		c0.01-2.56,0.44-5.12,0.67-7.68c0.04-0.48,0.11-0.51,0.64-0.38c4.32,1.04,8.4,2.77,12.49,4.46c3.58,1.48,7.1,3.1,10.68,4.61
		c0.55,0.23,0.68,0.42,0.64,1.01c-0.42,5.38-0.04,10.78-0.22,16.17c-0.12,3.74-0.56,7.45-2.14,10.91c-1.35,2.98-3.52,5.45-5.3,8.15
		c-2.59,3.92-5.06,7.93-8,11.61c-0.11,0.13-0.41,0.24-0.22,0.45c0.09,0.1,0.37,0.05,0.57,0.05c3.14,0,6.28-0.09,9.42,0.03
		c2.7,0.1,5.34,0.62,7.83,1.79c0.88,0.41,1.35,0.91,1.25,1.97c-0.17,1.8,0.2,3.63-0.43,5.42c-0.29,0.83-0.72,1.16-1.51,1.36
		c-3.72,0.93-7.2-0.24-10.66-1.28c-3.72-1.12-7.58-1.46-11.33-2.35c-3.46-0.82-6.98-1.14-10.48-1.59c-2.12-0.27-4.27-0.32-6.4-0.55
		c-3.3-0.37-6.59-0.75-9.88-1.25c-3.68-0.55-7.35-1.2-11.01-1.88c-2.41-0.45-4.89-0.6-7.23-1.42c-1.1-0.38-2.3-0.78-2.1-2.24
		c0.22-1.52,1.55-1.67,2.79-1.86c1.78-0.27,3.57-0.06,5.34,0.04c4.42,0.24,8.85,0.24,13.26,0.51c3.71,0.23,7.39,1.03,11.09,1.51
		c2.62,0.34,5.26,0.56,7.9,0.82c0.17,0.02,0.35-0.06,0.52-0.1c-0.14-0.11-0.27-0.24-0.43-0.32c-3.4-1.95-7.15-3.24-10.47-5.35
		c-0.82-0.52-1.53-1.24-2.39-1.71c-1.56-0.85-1.36-1.68-0.45-3c3.77-5.44,7.42-10.97,11.74-16.01c0.09-0.1,0.28-0.12,0.42-0.18
		c0.15,0.11,0.21,0.27,0.24,0.44c-0.08,0.98-0.83,1.54-1.37,2.23c-0.21,0.21-0.41,0.44-0.58,0.69c-0.08,0.12-0.17,0.23-0.27,0.34
		c-0.09,0.11-0.19,0.21-0.28,0.32c-0.08,0.12-0.16,0.24-0.24,0.36c-0.14,0.21-0.29,0.4-0.44,0.6c-0.09,0.13-0.17,0.26-0.26,0.39
		c-0.58,0.78-1.15,1.56-1.75,2.32c-0.09,0.12-0.19,0.24-0.28,0.36c-0.05,0.08-0.11,0.16-0.17,0.24c-0.15,0.19-0.31,0.36-0.45,0.55
		c-0.14,0.18-0.26,0.38-0.4,0.57c-0.08,0.11-0.15,0.22-0.23,0.33c-0.07,0.12-0.14,0.23-0.23,0.34c-0.05,0.07-0.11,0.14-0.17,0.21
		c-0.06,0.07-0.11,0.14-0.17,0.21c-0.02,0.04-0.05,0.08-0.08,0.12c-0.05,0.09-0.09,0.17-0.14,0.25c-0.05,0.09-0.1,0.18-0.16,0.26
		c-0.4,0.58-0.79,1.17-1.17,1.75c-0.29,0.43-0.59,0.86-0.87,1.29c-0.05,0.09-0.1,0.17-0.15,0.26c-0.07,0.13-0.15,0.26-0.22,0.39
		c-0.04,0.09-0.09,0.18-0.14,0.27c-0.2,0.36-0.44,0.69-0.62,1.06c-0.49,0.72-0.35,1.21,0.47,1.54c0.5,0.2,0.99,0.46,1.44,0.77
		c0.13,0.08,0.26,0.17,0.39,0.25c0.09,0.04,0.17,0.1,0.26,0.15c0.25,0.14,0.51,0.27,0.77,0.4c0.13,0.06,0.25,0.13,0.37,0.19
		c0.08,0.04,0.17,0.08,0.25,0.13c0.16,0.09,0.33,0.17,0.5,0.25c0.14,0.06,0.27,0.12,0.4,0.18c0.1,0.04,0.19,0.08,0.28,0.13
		c1.06,0.53,2.11,1.07,3.18,1.57c1.44,0.75,2.82,1.6,4.29,2.27c0.25,0.13,0.49,0.25,0.74,0.38c0.95,0.51,1.92,0.99,2.93,1.37
		c0.2,0.08,0.39,0.17,0.58,0.26c0.14,0.06,0.29,0.12,0.44,0.17c0.25,0.08,0.5,0.17,0.75,0.24c0.5,0.15,1,0.3,1.49,0.46
		c0.8,0.25,1.41,0.08,1.83-0.66c0.19-0.25,0.36-0.5,0.54-0.75c0.06-0.08,0.12-0.15,0.19-0.23c0.03-0.04,0.06-0.07,0.09-0.11
		c0.05-0.08,0.11-0.15,0.17-0.23c0.11-0.16,0.22-0.31,0.33-0.47c0.08-0.13,0.15-0.25,0.23-0.38c0.05-0.09,0.11-0.17,0.17-0.26
		c0.57-0.69,1.03-1.46,1.53-2.21c0.41-0.5,0.79-1.01,1.13-1.56c0.71-1.04,1.39-2.1,2.11-3.14c0.09-0.13,0.18-0.26,0.27-0.39
		c0.11-0.17,0.23-0.34,0.35-0.52c0.18-0.26,0.34-0.53,0.51-0.79c0.89-1.4,1.89-2.74,2.71-4.18c0.08-0.13,0.17-0.25,0.26-0.37
		c0.08-0.11,0.17-0.22,0.25-0.33c0.04-0.08,0.09-0.15,0.14-0.22c0.07-0.11,0.16-0.21,0.24-0.31c0.07-0.11,0.14-0.22,0.2-0.34
		c0.08-0.17,0.16-0.34,0.25-0.5c0.18-0.3,0.36-0.6,0.54-0.91c1.19-1.93,1.32-1.71-0.87-2.58c-0.11-0.04-0.22-0.09-0.32-0.14
		c-0.53-0.3-1.12-0.45-1.67-0.71c-0.89-0.41-1.79-0.79-2.69-1.16c-0.19-0.08-0.38-0.17-0.57-0.26c-0.14-0.06-0.27-0.12-0.42-0.17
		c-0.14-0.04-0.29-0.09-0.42-0.15c-0.28-0.13-0.54-0.27-0.83-0.39c-0.25-0.1-0.5-0.18-0.75-0.27c-1.13-0.52-2.29-0.95-3.43-1.42
		c-0.54-0.31-1.14-0.47-1.7-0.73c-1.31-0.64-2.7-1.1-3.99-1.77c-0.1-0.04-0.2-0.09-0.3-0.15c-0.15-0.08-0.29-0.15-0.44-0.23
		c-0.77-0.39-1.52-0.94-2.42-0.29C485.73,273.94,485.58,273.9,485.47,273.75z"/>
	<path style="fill-rule:evenodd;clip-rule:evenodd;" d="M469.89,279.3c-3.51-0.2-6.73-1.09-8.87-4.18c-1-1.45-1.49-3.06-1.05-4.87
		c0.15-0.63,0.25-1.08-0.85-0.87c-2.5,0.49-5.95-1.71-7.14-4.3c-1.83-4.02-0.38-9.69,3.2-12.31c3.64-2.66,9.88-1.79,11.29,4.5
		c0.43,1.92,0.37,3.81-0.47,5.62c-0.21,0.46-0.13,0.64,0.38,0.51c5.28-1.33,10.71,2.78,11.83,7.68c0.78,3.44-1.94,7.21-5.7,7.95
		C471.64,279.21,470.79,279.36,469.89,279.3z"/>
	<path style="fill-rule:evenodd;clip-rule:evenodd;" d="M458.66,281.55c4.6-3.16,10.56-0.53,11.66,5.16
		c0.73,3.76-0.29,6.6-3.02,8.07c-1.93,1.04-4.05,0.57-6.1,0.49c-0.97-0.04-1.95-0.25-2.89-0.63c-2.77-1.13-4.41-4.27-3.65-7.18
		c0.2-0.77,0.61-1.27-0.87-1.05c-5.08,0.76-8.67-3.32-9.15-7.84c-0.3-2.9,0.52-5.32,3.15-6.88c4.1-2.44,8.88,0.15,10.5,4.09
		c0.66,1.61,0.85,3.28,0.31,4.99c-0.08,0.24,0.03,0.53,0.05,0.8L458.66,281.55z"/>
	<path style="fill-rule:evenodd;clip-rule:evenodd;fill:#696066;" d="M483.78,276.86c-0.01-0.17-0.02-0.33-0.03-0.5
		c0.57-0.87,1.14-1.75,1.71-2.62c0.16,0.01,0.31,0.03,0.47,0.04c0.06,0.07,0.09,0.16,0.08,0.26c-0.04,0.18-0.13,0.35-0.22,0.51
		c-0.13,0.19-0.29,0.36-0.43,0.54c-0.14,0.19-0.26,0.38-0.39,0.58c-0.05,0.08-0.1,0.16-0.16,0.24c-0.05,0.08-0.11,0.16-0.16,0.25
		c-0.14,0.21-0.28,0.42-0.45,0.6C484.08,276.86,483.95,276.95,483.78,276.86z"/>
	<path style="fill-rule:evenodd;clip-rule:evenodd;fill:#EE5EA0;" d="M508.93,256c1.07,0.18,1.54,0.68,1.5,1.88
		c-0.16,4.73-0.19,9.47-0.27,14.2c0,0.27,0.08,0.57-0.23,0.75c-0.47-0.45-0.27-1.04-0.33-1.58c-0.02-0.15,0.07-0.38-0.06-0.42
		c-0.16-0.04-0.19,0.21-0.25,0.33c-0.89,1.81-2.32,3.12-3.96,4.24c-0.96,0.65-2.22,0.69-3.1,1.51c-0.39-0.17-0.78-0.35-1.18-0.52
		c-0.27-0.3-0.67-0.3-1-0.46l0.02,0.01c-0.12-0.18-0.35-0.14-0.51-0.25l0.02,0.02c-0.21-0.26-0.81-0.19-0.7-0.67
		c0.09-0.4,0.56-0.36,0.91-0.44c0.89-0.23,1.82-0.21,2.7-0.5c4.02-1.34,6.17-5.23,5.25-9.38c-0.43-1.93-1.32-3.6-2.59-5.05
		c-1.73-1.98-3.4-4.03-5.83-5.24c-3.82-1.9-8.16-0.34-9.9,3.58c-0.23,0.51-0.39,1.05-0.7,1.52c-0.13,0.19-0.31,0.4-0.58,0.3
		c-0.23-0.09-0.18-0.34-0.16-0.52c0.04-0.55-0.12-1.11,0.1-1.65c0.13-1.77-0.26-3.56,0.22-5.31c0.47,0.4,0.29,0.95,0.35,1.45
		c0.03,0.22-0.08,0.54,0.2,0.63c0.25,0.08,0.42-0.17,0.58-0.34c1.26-1.36,2.78-2.24,4.6-2.59c0.35-0.07,0.71-0.13,1.06-0.14
		c0.32-0.01,0.52-0.16,0.68-0.41c2.2,0.69,4.38,1.43,6.49,2.39c0.17,0.49,0.61,0.71,0.96,1.02c2.93,2.55,5.25,5.53,6.55,9.23
		c0.05,0.13,0.04,0.28,0.13,0.4c-0.04-0.11-0.07-0.23-0.07-0.35c-0.03-1.31-0.01-2.63-0.01-3.94c0-1.25,0.26-2.58-1.07-3.41
		c-0.07-0.04-0.06-0.14-0.02-0.22C508.78,255.99,508.84,255.97,508.93,256z"/>
	<path style="fill-rule:evenodd;clip-rule:evenodd;fill:#68458A;" d="M470.34,307.17c-1.79-0.56-3.66-0.49-5.49-0.72
		c-4.86-0.6-9.7-1.34-14.5-2.33c-1.47-0.3-2.91-0.72-4.37-1.06c-0.3-0.07-0.38-0.22-0.39-0.49c-0.01-0.41-0.05-0.83,0.51-0.9
		c1.5,0.44,3.01,0.01,4.52,0.04c1.81,0.03,3.53,0.18,5.22,1c1.67,0.81,3.52,0.47,5.3,0.34c2.05-0.14,4.06-0.1,5.88,1.04
		c0.44,0.18,0.34,1.29,1.24,0.74c0.58-0.16,0.82,0.31,1.16,0.61c0.42,0.38,0.94,0.62,1.32,1.03c0.19,0.2,0.71,0.29,0.49,0.66
		C471.06,307.38,470.65,307.25,470.34,307.17z"/>
	<path style="fill-rule:evenodd;clip-rule:evenodd;fill:#EF6EA7;" d="M488.07,257.65c0.09,0.65-0.15,1.33,0.15,1.97
		c0.55-0.45,0.59-1.15,0.86-1.74c2.18-4.65,7.59-6.3,12.12-2.65c2.83,2.28,5.52,4.86,6.64,8.58c1.64,5.43-1.42,10.21-7.06,10.93
		c-0.35,0.05-0.7,0.15-1.05,0.22c-0.22,0.05-0.43,0.1-0.65,0.15c0.17,0.21,0.33,0.41,0.5,0.62c-2.71-1.06-5.37-2.22-7.93-3.6
		c-0.92-1.23-1.96-2.38-2.74-3.73c-0.28-0.48-0.37-1.04-0.71-1.49c0.28,0.44,0.18,0.92,0.13,1.39c-0.02,0.2-0.1,0.38-0.28,0.5
		c-0.43-0.44-0.2-0.98-0.2-1.46c-0.03-2.82-0.02-5.63,0-8.45C487.85,258.46,487.65,257.99,488.07,257.65z"/>
	<path style="fill-rule:evenodd;clip-rule:evenodd;fill:#D1B7D6;" d="M451.38,301.15c4.19-0.12,8.38-0.25,12.56,0.09
		c6.24,0.51,12.39,1.7,18.53,2.92c1.1,0.22,0.45,0.97,0.54,1.5c-0.55,0.27-1.13,0.19-1.63-0.03c-2.01-0.88-4.14-1.12-6.28-1.32
		c-0.33-0.24-0.29-1.15-1.07-0.57c-0.48,0.36-0.3-0.23-0.46-0.34c-0.24-0.16-0.54-0.73-0.62-0.51c-0.32,0.94-1.14,0.35-1.63,0.66
		c-1.69,0.64-3.39,0.9-5.08,0.01c-1.1-0.57-2.32-0.56-3.5-0.63c-1.24-0.07-2.48,0-3.72,0.02c-1.46,0.03-2.86-0.09-4.14-0.92
		c-0.66-0.43-1.47-0.27-2.22-0.32C452.17,301.68,451.57,301.86,451.38,301.15z"/>
	<path style="fill-rule:evenodd;clip-rule:evenodd;fill:#ED4E9A;" d="M502.23,276.92c-0.25-0.54,0.07-0.68,0.51-0.8
		c3.07-0.84,5.19-2.79,6.54-5.63c0.11-0.22,0.13-0.63,0.49-0.53c0.1,0.03,0.12,0.48,0.13,0.74c0.02,0.72,0.01,1.43,0.02,2.15
		c-0.08,2.09-0.16,4.18-0.25,6.27c-0.04,0.95-0.28,1.31-1.34,0.74C506.36,278.78,504.28,277.88,502.23,276.92z"/>
	<path style="fill-rule:evenodd;clip-rule:evenodd;fill:#3D2A19;" d="M501.53,309.53c0.39-0.57,0.99,0.08,1.43-0.25
		c0.83-0.59,1.76-0.28,2.65-0.29c0.2,0.03,0.39,0.08,0.57,0.16c1.12,0.32,2.3,0.32,3.44,0.51c0.23,0,0.46-0.01,0.68-0.07
		c0.17-0.03,0.33-0.02,0.49,0.04c0.1,0.06,0.16,0.14,0.19,0.25c0,0.05,0,0.11,0.01,0.16c0.13,0.21,0.16-0.1,0.26-0.05
		c1.04,0.16,2.26-0.23,2.98,0.95c-0.1,1.01-0.38,1.94-1.18,2.65c-1.26,0.25-2.53,0.05-3.79,0.12c-1.32-0.06-2.64-0.17-3.95-0.36
		l-0.1,0.01l-0.1-0.02c-0.06-0.14-0.02-0.25,0.11-0.32c0.16-0.01-0.04-0.02,0.11-0.02c0.57,0.01,1.16-0.12,1.72,0.07
		c0.05-0.15,0.03-0.01-0.05-0.02c-0.64-0.09-1.29-0.2-1.92,0.08c-0.25,0.12-0.49,0.13-0.73-0.03c-0.24-0.06-0.48-0.13-0.71-0.19
		c0.12-0.2,0.32-0.16,0.51-0.17c0.12,0,0.23,0,0.34,0.06c-0.08-0.04-0.16-0.08-0.26-0.06c-0.56,0.06-1.05-0.17-1.55-0.36
		c-0.58-0.08-0.89-0.49-1.16-0.95c0.1-0.21,0.26-0.36,0.45-0.47c0.25,0.1,0.49,0.18,0.72-0.03c0.06-0.01,0.12-0.01,0.18-0.02
		c0.91,0.18,1.84,0.15,2.75,0.28c0.76,0.23,1.53,0.16,2.3,0.07c0.11,0,0.23,0.03,0.34,0.04c0.36,0.01,0.73,0.06,1.09-0.03
		c-0.35,0.06-0.7,0.03-1.05,0.02c-0.23-0.09-0.46-0.06-0.69-0.02c-0.69,0.07-1.33-0.23-2-0.27c-0.68-0.25-1.4-0.2-2.1-0.21
		c-0.23,0-0.46,0-0.68-0.04c-0.06,0-0.11-0.01-0.17-0.02c-0.24-0.49-0.69-0.54-1.16-0.56C501.42,309.96,501.71,309.75,501.53,309.53
		z"/>
	<path style="fill-rule:evenodd;clip-rule:evenodd;fill:#ED4F9A;" d="M508.93,256c1.37,0.73,1.27,1.98,1.24,3.26
		c-0.05,1.67-0.01,3.35-0.02,5.02c0,0.19-0.01,0.52-0.08,0.54c-0.26,0.06-0.29-0.21-0.35-0.38c-1.33-4.19-3.85-7.54-7.25-10.26
		c-0.24-0.19-0.67-0.44-0.21-0.85l-0.01,0c0.17,0.29,0.53,0.06,0.72,0.27l0,0c0.13,0.15,0.29,0.14,0.46,0.09
		C505.28,254.42,507.18,255.04,508.93,256z"/>
	<path style="fill-rule:evenodd;clip-rule:evenodd;fill:#EE4F9A;" d="M495.77,250.94c0.57,0.68-0.1,0.71-0.45,0.72
		c-2.5,0.08-4.46,1.2-6.08,3.04c-0.19,0.22-0.38,0.6-0.75,0.42c-0.29-0.14-0.16-0.5-0.17-0.76c-0.02-0.67-0.02-1.35-0.03-2.02
		c0.02-1.11-0.02-2.23,0.07-3.34c0.05-0.68,0.38-1.05,1.21-0.67c1.81,0.82,3.66,1.55,5.49,2.32
		C495.2,250.98,495.58,250.75,495.77,250.94L495.77,250.94z"/>
	<path style="fill-rule:evenodd;clip-rule:evenodd;fill:#9A7CAE;" d="M451.38,301.15c0.3,0.28,0.68,0.19,1.03,0.19
		c1.22,0,2.43-0.11,3.49,0.8c0.49,0.42,1.25,0.42,1.95,0.44c2.42,0.06,4.86-0.25,7.27,0.22c0.31,0.06,0.68,0.04,0.91,0.2
		c1.2,0.86,2.48,0.93,3.87,0.57c0.45-0.12,0.95-0.02,1.43-0.02c-0.1,0.47-0.2,0.94-0.3,1.41c-0.12,0.14-0.27,0.16-0.44,0.13
		c-0.46-0.23-0.87-0.73-1.46-0.27c-0.31,0-0.61-0.12-0.92-0.15c-0.31-0.18-0.66-0.09-0.99-0.16c-1.98-1.13-4.09-1.28-6.33-1.06
		c-2.16,0.21-4.3,0.25-6.38-0.88c-1.95-1.06-4.23-0.33-6.36-0.48c-0.7-0.05-1.45,0.16-2.04-0.43
		C447.86,301.49,449.62,301.32,451.38,301.15z"/>
	<path style="fill-rule:evenodd;clip-rule:evenodd;fill:#5C4699;" d="M502.45,278.81c-4.96-1.83-10.03-3.41-14.55-6.26
		c-0.35-0.22-0.92-0.4-0.61-0.92c0.29-0.49,0.71-0.02,1.03,0.12c4.65,2.08,9.41,3.92,13.93,6.29c0.12,0.18,0.36,0.14,0.51,0.25
		c0.17,0.12,0.54,0.15,0.4,0.45C503.01,279.07,502.7,278.92,502.45,278.81z"/>
	<path style="fill-rule:evenodd;clip-rule:evenodd;fill:#674589;" d="M474.88,307.59c1.23-0.38,1.91-1.31,2.43-2.4
		c0.08-0.09,0.17-0.2,0.28-0.2c1.95,0.07,3.79,0.5,5.42,1.64c0.47,1.67,0.42,1.68-1.33,1.73c-2.29,0.07-4.53-0.35-6.79-0.57
		c-0.07-0.04-0.09-0.08-0.07-0.13C474.84,307.61,474.86,307.59,474.88,307.59z"/>
	<path style="fill-rule:evenodd;clip-rule:evenodd;fill:#B53770;" d="M505.15,287.29c-0.97,1.49-1.94,2.98-2.91,4.47
		c-0.46,0.12-0.83,0.47-1.31,0.56c-1.69,0.34-3.17,0.99-4.01,2.62c-0.76-0.37-0.85-1.12-1.04-1.82c0.17-0.77,0.73-1.11,1.44-1.18
		c0.52-0.05,1.01-0.15,1.48-0.37c1.54-0.19,2.98-0.61,3.96-1.96c1.32-1.38,1.51-3.26,0.51-5.31c-0.84-1.73-2-2.27-4.39-2.05
		c-0.72-0.02-1.46,0.17-2.12-0.26c-0.21-0.4,0.12-0.53,0.37-0.57c0.9-0.15,1.77-0.45,2.68-0.57c1.57-0.2,2.84,0.3,3.76,1.57
		C504.62,283.88,505.45,285.4,505.15,287.29z"/>
	<path style="fill-rule:evenodd;clip-rule:evenodd;fill:#3E2B19;" d="M514.46,308.55c0,0.41,0,0.82,0,1.23
		c-0.26,0.24-0.58,0.31-0.92,0.31c-0.53,0.04-1.02-0.14-1.54-0.21c-1.01-0.14-1.99-0.43-3-0.53c-0.37-0.08-0.73-0.23-1.12-0.2
		c-0.51-0.01-1.03,0.01-1.54-0.05c-0.55-0.2-1.13-0.21-1.7-0.2c-0.74,0.07-1.41-0.2-2.07-0.47c-0.14-0.06-0.19-0.16-0.15-0.31
		c0.32-0.26,0.82-0.29,0.99-0.74c1.18-0.67,2.4-0.34,3.62-0.14c2.23-0.26,4.28,0.9,6.5,0.8
		C513.92,308.01,514.15,308.38,514.46,308.55z"/>
	<path style="fill-rule:evenodd;clip-rule:evenodd;fill:#5D479A;" d="M509.19,283.59c-0.96,1.5-1.88,3.02-2.9,4.48
		c-2.96,4.25-5.48,8.8-8.82,12.79c-0.18,0.21-0.34,0.45-0.54,0.64c-0.15,0.15-0.33,0.46-0.57,0.25c-0.23-0.2,0.05-0.44,0.15-0.63
		c1.13-2.13,2.81-3.84,4.22-5.75c2.5-3.38,4.72-6.98,7.04-10.5c0.33-0.5,0.68-0.95,1.19-1.27l0.05-0.08l0.1,0L509.19,283.59z"/>
	<path style="fill-rule:evenodd;clip-rule:evenodd;fill:#422E1D;" d="M503.88,305.92c-0.16-0.01-0.33-0.03-0.49-0.04
		c-0.35-0.21-0.79,0.07-1.14-0.19c0.01-0.09,0.02-0.18,0.03-0.27c0.25-0.28,0.66-0.35,0.9-0.66c3.67-0.18,7.2,0.43,10.58,1.85
		c0.06,0.06,0.08,0.13,0.06,0.19c-0.02,0.06-0.04,0.09-0.06,0.09l0.01-0.01c-1.12,0.36-2.28,0.09-3.37,0.01
		c-1.67-0.13-3.33-0.08-4.99-0.15c-0.5-0.02-1.05,0.11-1.47-0.32c-0.01-0.09-0.01-0.18-0.02-0.27
		C504.2,306.02,503.97,305.98,503.88,305.92z"/>
	<path style="fill-rule:evenodd;clip-rule:evenodd;fill:#C74280;" d="M489.43,302.34c-1.09-0.32-2.11-0.78-3.05-1.41
		c-0.42-0.48-0.79-1.01-1-1.6c-0.55-1.55-1.67-2.11-3.24-1.96c-0.47,0.04-0.95,0.03-1.42-0.05c-1.2-0.22-1.92-0.87-2.09-1.88
		c0.87-0.39,1.53,0.34,2.31,0.44c0.62,0.34,1.25,0.36,1.96,0.22c1.93-0.38,2.66,0.06,3.43,1.9c0.09,0.22,0.18,0.44,0.27,0.66
		c0.78,1.87,1.47,2.26,3.65,2.05c0.51,0.06,1.08,0.01,1.29,0.65C491.15,302.35,490.3,302.37,489.43,302.34z"/>
	<path style="fill-rule:evenodd;clip-rule:evenodd;fill:#543F82;" d="M487.61,302.78c-3.99-0.99-7.27-3.46-10.88-5.25
		c-1.49-0.74-2.9-1.63-4.34-2.46c-0.15-0.09-0.35-0.36-0.31-0.43c0.13-0.25,0.37-0.03,0.49,0.04c4.9,2.85,10.08,5.14,15.05,7.86
		c0.08,0.05,0.11,0.11,0.08,0.16C487.66,302.75,487.63,302.78,487.61,302.78z"/>
	<path style="fill-rule:evenodd;clip-rule:evenodd;fill:#CB4D87;" d="M496.96,294.88c0.14-1.27,0.93-2.02,2.08-2.31
		c1.07-0.27,2.04-0.92,3.21-0.81c-0.16,0.24-0.32,0.48-0.48,0.72c-0.61,0.37-1.26,0.66-1.92,0.93c-0.95,0.38-1.46,1.09-1.55,2.05
		c-0.08,0.87-0.28,1.71-0.31,2.58c-0.55,0.79-1.11,1.59-1.66,2.38c-0.29,0.18-0.59,0.29-0.93,0.12c-0.4-0.35-0.08-0.67,0.11-0.92
		c0.9-1.18,1.37-2.48,1.18-3.99C496.65,295.35,496.74,295.08,496.96,294.88z"/>
	<path style="fill-rule:evenodd;clip-rule:evenodd;fill:#C34A80;" d="M505.15,287.29c-0.38-1.53-0.65-3.1-1.62-4.42
		c-0.99-1.34-2.27-1.96-3.92-1.65c-0.97,0.18-1.92,0.41-2.89,0.62c-0.25,0.49-0.71,0.45-1.16,0.45c-0.61-0.2-1.1-0.59-1.51-1.07
		c-0.24-0.29-0.55-0.61-0.13-1.01c0.04,0,0.09-0.02,0.12,0c1.88,1.46,3.8,0.65,5.71,0.11c0.35-0.1,0.69-0.15,1.05-0.17
		c1.49-0.03,2.56,0.69,3.35,1.9c0.61,0.93,1.12,1.92,1.48,2.97c0.17,0.48,0.3,1-0.01,1.49c0,0.08-0.03,0.16-0.07,0.22
		c-0.04,0.09-0.1,0.17-0.17,0.24C505.29,287.07,505.22,287.18,505.15,287.29z"/>
	<path style="fill-rule:evenodd;clip-rule:evenodd;fill:#60407F;" d="M511.54,264.13c-0.14,4.19-0.27,8.37-0.41,12.56
		c0,0.04,0.01,0.08,0,0.12c-0.13,0.48-0.27,0.97-0.41,1.45c-0.01-0.47-0.05-0.95-0.04-1.42c0.13-5.86,0.25-11.73,0.43-17.59
		c0.02-0.79-0.49-1.6,0.06-2.38c0.43,0.72,0.08,1.54,0.27,2.3c0.24,0.94,0.19,1.9,0.13,2.86
		C511.4,262.73,511.46,263.43,511.54,264.13z"/>
	<path style="fill-rule:evenodd;clip-rule:evenodd;fill:#CC4B88;" d="M478.72,295.45c0.52,1.17,1.51,1.57,2.7,1.59
		c3.36,0.06,4.07,0.61,4.97,3.89c-0.24-0.11-0.47-0.22-0.71-0.32c-0.22-0.33-0.52-0.59-0.71-0.96c-0.69-1.38-2.41-2.23-3.85-1.94
		c0.17,0.14,0.34,0.27,0.24,0.53c-1.18-0.45-2.3-0.99-3.36-1.67c-0.37-0.58-0.77-1.16-0.54-1.91
		C478.17,294.46,478.57,294.76,478.72,295.45z"/>
	<path style="fill-rule:evenodd;clip-rule:evenodd;fill:#EE5EA0;" d="M488.06,268.78c0.04-0.74,0.09-1.49,0.13-2.23
		c0.77,0.33,0.59,1.21,1.03,1.76c0.8,0.99,1.33,2.18,2.31,3.03c0.23,0.2,0.53,0.44,0.13,0.77l0.01,0.01
		c-0.88-0.42-1.73-0.91-2.66-1.23C487.54,270.71,488.22,269.55,488.06,268.78z"/>
	<path style="fill-rule:evenodd;clip-rule:evenodd;fill:#F8AC46;" d="M492,306.18c-0.45,0.64-1.04,1.25-0.51,2.13
		c-1.71,1.03-3.07,1.03-4.18,0c-0.05-0.79-0.1-1.59-0.15-2.38c0.66-0.79,1.57-0.92,2.48-0.74C490.47,305.34,491.31,305.6,492,306.18
		z"/>
	<path style="fill-rule:evenodd;clip-rule:evenodd;fill:#9779AB;" d="M483.01,306.63c-1.91-0.46-3.69-1.38-5.7-1.44
		c-0.36-0.37-0.79-0.5-1.25-0.22c-0.85,0.52-1.02,0.1-0.96-0.66c1.15-0.68,2.3-0.08,3.4,0.1c1.53,0.25,3.01,0.82,4.51,1.25
		C483.01,305.98,483.01,306.3,483.01,306.63z"/>
	<path style="fill-rule:evenodd;clip-rule:evenodd;fill:#CB5A8B;" d="M476.28,287.19c0.04-0.08,0.07-0.16,0.11-0.24
		c0.04-0.09,0.1-0.16,0.17-0.21l0.01-0.01c0.07-0.09,0.16-0.16,0.22-0.26l0,0.02c0.41-0.24,0.82-0.46,1.3-0.57
		c2.81-0.64,3.54-1.71,3.15-4.57c-0.04-0.28-0.05-0.55-0.06-0.83c0.06-0.09,0.13-0.17,0.19-0.26c0.07-0.08,0.14-0.16,0.22-0.24
		c0.08-0.09,0.16-0.17,0.24-0.26c0.58,0.22,0.69,0.73,0.8,1.24c0.04,0.75,0.06,1.5,0.13,2.24c-0.34,1.27-0.88,2.42-2.04,3.16
		c-0.65,0.26-1.35,0.39-2.01,0.64c-0.17,0.06-0.34,0.11-0.51,0.16c-0.12,0.04-0.23,0.06-0.35,0.08
		C477.33,287.24,476.78,287.67,476.28,287.19z"/>
	<path style="fill-rule:evenodd;clip-rule:evenodd;fill:#DA4F93;" d="M481.36,298.24c-0.15-0.21-0.3-0.42-0.45-0.63
		c0.22-0.03,0.44-0.07,0.67-0.08c2.61-0.07,3.16,0.34,4.1,3.08C484.24,299.82,482.8,299.03,481.36,298.24z"/>
	<path style="fill-rule:evenodd;clip-rule:evenodd;fill:#DB5B97;" d="M495.27,300.4c0.35,0.01,0.7,0.02,1.05,0.02
		c-0.04,0.07-0.09,0.15-0.13,0.22c-0.05,0.09-0.12,0.17-0.19,0.25c-0.1,0.16-0.21,0.31-0.31,0.47c-0.04,0.09-0.1,0.16-0.17,0.22
		l-0.01,0.01c-0.08,0.08-0.16,0.17-0.22,0.27c-0.16,0.24-0.32,0.47-0.48,0.71c-1.33-0.28-2.61-0.19-3.85,0.4
		c-0.24-0.08-0.49-0.16-0.73-0.24c-0.09-0.05-0.17-0.11-0.24-0.17c-0.19-0.08-0.37-0.15-0.56-0.23c0.67-0.33,1.49-0.38,2.01-1.02
		c0.84-0.5,1.85-0.35,2.72-0.7c0.16-0.05,0.32-0.11,0.48-0.17C494.84,300.38,495.05,300.27,495.27,300.4z"/>
	<path style="fill-rule:evenodd;clip-rule:evenodd;fill:#E581AE;" d="M485.65,274.44c0.08-0.15,0.17-0.3,0.25-0.45
		c1.06-0.04,2.04,0.74,3.14,0.3c1.36,0.62,2.72,1.24,4.09,1.86c0.11,0.12,0.21,0.25,0.27,0.41c0.07,0.31,0.2,0.63,0.05,0.95
		c-0.43,0.34-0.65-0.07-0.94-0.26c-0.08-0.07-0.15-0.14-0.21-0.21c-0.07-0.07-0.14-0.14-0.21-0.21c-0.04-0.03-0.07-0.07-0.11-0.1
		c-0.08-0.06-0.16-0.12-0.24-0.18c-0.04-0.02-0.09-0.05-0.13-0.08c-0.2-0.1-0.4-0.18-0.61-0.26c-0.97-0.42-2.02-0.32-3.02-0.48
		C487.1,275.58,485.91,275.79,485.65,274.44z"/>
	<path style="fill-rule:evenodd;clip-rule:evenodd;fill:#C2C0BD;" d="M494.59,309.27c0-0.56,0-1.11,0-1.67
		c1.31-1.22,2.91-0.95,4.41-0.66c1.2,0.23,1.44,1.66,0.54,2.41C498.63,310.12,495.57,310.07,494.59,309.27z"/>
	<path style="fill-rule:evenodd;clip-rule:evenodd;fill:#D9719C;" d="M492.4,276.88c0.32,0.24,0.64,0.48,0.96,0.72
		c0.05,0.01,0.09,0.02,0.14,0.03c0.09,0.05,0.16,0.11,0.23,0.18c0.06,0.08,0.12,0.15,0.18,0.24c0.07,0.08,0.13,0.15,0.2,0.23
		c0.04,0.04,0.07,0.07,0.11,0.11c0.08,0.07,0.15,0.14,0.23,0.22c1.49,1.91,2.81,1.44,4.5,0.82c0.33-0.12,0.59-0.38,0.95-0.47
		c0.15,0.05,0.3,0.09,0.45,0.14c0.09,0.05,0.17,0.11,0.24,0.18c0.2,0.02,0.42-0.02,0.51,0.23c-0.21,0.64-0.84,0.65-1.32,0.9
		c-1.03,0.43-2.14,0.53-3.21,0.76c-0.73,0.15-1.43-0.2-1.96-0.69c-0.95-0.89-1.83-1.86-2.38-3.07
		C492.2,277.2,492.25,277.02,492.4,276.88z"/>
	<path style="fill-rule:evenodd;clip-rule:evenodd;fill:#D2548E;" d="M499.84,280.24c0.42-0.25,0.83-0.49,1.25-0.74
		c1,0.27,1.96,0.65,2.84,1.21c1.11,1.44,1.57,3.2,2.35,4.8c-0.09,0.17-0.18,0.33-0.27,0.5c-0.04,0.09-0.1,0.17-0.17,0.23
		c-0.08,0.09-0.15,0.18-0.23,0.26c-0.41-2.09-1.13-4-2.83-5.42c-0.58-0.49-1.24-0.68-1.98-0.61
		C500.53,280.21,500.11,280.51,499.84,280.24z"/>
	<path style="fill-rule:evenodd;clip-rule:evenodd;fill:#A5A4A3;" d="M494.59,309.27c1.28,0.43,2.6,0.26,3.9,0.2
		c0.68-0.03,1.41-0.39,1.3-1.25c-0.09-0.74-0.67-1.1-1.46-1.11c-1.28-0.02-2.54-0.02-3.74,0.49c0.08-0.24,0.16-0.48,0.23-0.72
		c1.7-0.63,3.43-0.41,5.15-0.12c0.43,0.07,0.76,0.43,0.94,0.86c-0.19,0.81-0.38,1.61-0.58,2.42c-1.59,0.13-3.18,0.04-4.76,0.05
		c-0.36,0-0.71-0.06-0.98-0.34C494.59,309.59,494.59,309.43,494.59,309.27z"/>
	<path style="fill-rule:evenodd;clip-rule:evenodd;fill:#F9A22A;" d="M472.37,306.7c-0.14-0.37-0.36-1.02-0.65-1.64
		c-0.11-0.23-0.26-0.38-0.04-0.61c0.19-0.21,0.43-0.3,0.59-0.04c0.44,0.69,0.68-0.4,1.18-0.08c0.72,0.47,0.78,1.4,0.06,2.16
		c-0.07,0.08-0.67,0.01-0.22,0.4c0.23,0.2,0.59,0.34,0.24,0.74c-0.26,0.29-0.59,0.26-0.88,0.17
		C472.3,307.69,472.17,307.39,472.37,306.7z"/>
	<path style="fill-rule:evenodd;clip-rule:evenodd;fill:#57428A;" d="M502.45,278.81c0.06-0.15,0.79,0.28,0.31-0.34
		c-0.13-0.17-0.34-0.29-0.51-0.43c2.24,0.7,4.2,2,6.32,2.96c0.12,0.05,0.18,0.22,0.26,0.33c-0.15,0.04-0.3,0.1-0.45,0.13
		c-0.56,0.1-1.09-0.01-1.59-0.27C505.34,280.4,503.9,279.61,502.45,278.81z"/>
	<path style="fill-rule:evenodd;clip-rule:evenodd;fill:#DB6E9E;" d="M481.19,280.5c1.3,2.41,0.47,4.64-2.09,5.48
		c-0.74,0.25-1.54,0.33-2.31,0.49c0.09-0.16,0.19-0.32,0.28-0.47c0.06-0.09,0.13-0.18,0.19-0.26c0.16-0.23,0.33-0.46,0.49-0.69
		c2.26,0.22,3.37-1.24,2.89-3.85C480.83,280.97,481.01,280.73,481.19,280.5z"/>
	<path style="fill-rule:evenodd;clip-rule:evenodd;fill:#EC96BC;" d="M493.12,276.64c0-0.16,0-0.33,0-0.49
		c0.62,0.12,1.2,0.32,1.7,0.72c0.17,0.44,0.4,0.86,0.7,1.22c0.68,0.81,1.36,0.87,2.87,0.25c0.24,0.09,0.48,0.18,0.72,0.28
		c0.25,0.36,0.03,0.6-0.22,0.81c-1.04,0.86-2.9,0.72-3.92-0.19C494.15,278.5,493.66,277.56,493.12,276.64z"/>
	<path style="fill-rule:evenodd;clip-rule:evenodd;fill:#5A402C;" d="M507.08,307.58c-1.21-0.34-2.44-0.2-3.66-0.2
		c-0.08-0.09-0.15-0.18-0.23-0.27c-0.07-0.03-0.1-0.07-0.09-0.12c0.02-0.05,0.04-0.07,0.06-0.07c0.16-0.01,0.31-0.03,0.47-0.04
		c2.08-0.43,4.16-0.27,6.25-0.1c0.43,0.04,0.89,0.19,1.29,0.08c1.12-0.32,1.99,0.15,2.85,0.75c0.07,0.16,0.14,0.33,0.21,0.49
		c-1.3,0-2.59-0.18-3.85-0.39C509.26,307.51,508.19,307.42,507.08,307.58z"/>
	<path style="fill-rule:evenodd;clip-rule:evenodd;fill:#F3A6C8;" d="M475.11,295.13c-0.53-0.25-1.03-0.56-1.58-0.75
		c-1.35-0.45-1.39-1.17-0.51-2.13c1.15-0.1,3.07,1.62,3,2.71c-0.01,0.24-0.08,0.48-0.42,0.4c-0.08-0.02-0.16-0.05-0.24-0.07
		C475.26,295.25,475.18,295.2,475.11,295.13z"/>
	<path style="fill-rule:evenodd;clip-rule:evenodd;fill:#D86097;" d="M497.99,298.04c-1.16-2.47,0.8-5.35,3.78-5.56
		c-0.09,0.16-0.18,0.32-0.28,0.48c-0.08,0.07-0.18,0.12-0.28,0.16c-1.19,0.85-2.47,1.64-2.15,3.44
		C498.7,297.05,498.34,297.55,497.99,298.04z"/>
	<path style="fill-rule:evenodd;clip-rule:evenodd;fill:#E984B2;" d="M505.62,281.43c0.15,0.03,0.31,0.05,0.45,0.1
		c2.39,0.96,2.39,0.96,0.76,3.04c-1.12-0.3-2.01-1.95-1.6-2.98C505.3,281.43,505.44,281.38,505.62,281.43z"/>
	<path style="fill-rule:evenodd;clip-rule:evenodd;fill:#EA8DB6;" d="M475.6,295.36c0.25-1.07-0.94-2.51-2.58-3.12
		c0.21-0.33,0.42-0.65,0.63-0.98c0.27-0.21,0.55-0.16,0.77,0.04c1.32,1.19,2.43,2.52,2.77,4.33c0.03,0.16-0.04,0.31-0.14,0.44
		c-0.08-0.02-0.16-0.05-0.24-0.07c-0.09-0.03-0.17-0.08-0.24-0.16C476.24,295.68,475.92,295.52,475.6,295.36z"/>
	<path style="fill-rule:evenodd;clip-rule:evenodd;fill:#D7729D;" d="M477.04,296.07c-0.54-2.02-1.48-3.76-3.39-4.8
		c0.03-0.08,0.05-0.16,0.08-0.24c0.06-0.09,0.12-0.17,0.18-0.25c0-0.08,0.03-0.16,0.09-0.21c0.71-0.32,0.97,0.3,1.31,0.67
		c0.4,0.42,0.7,0.94,1.19,1.28c0.48,0.63,0.99,1.24,1.05,2.08c0,0.69,0.62,1.25,0.45,1.98c-0.08-0.02-0.17-0.04-0.25-0.07
		c-0.09-0.05-0.17-0.1-0.24-0.17C477.35,296.25,477.2,296.16,477.04,296.07z"/>
	<path style="fill-rule:evenodd;clip-rule:evenodd;fill:#F08436;" d="M492,306.18c-0.38-0.07-0.84-0.02-1.13-0.22
		c-1.25-0.82-2.47-0.49-3.71-0.04c0-0.24,0-0.48,0-0.72c0.77-0.67,1.67-0.6,2.59-0.49c0.98,0.12,1.96,0.31,2.9-0.2
		c0.41-0.02,0.84-0.17,1.18,0.2c0.07,0.06,0.1,0.13,0.07,0.19s-0.05,0.09-0.08,0.09C493.21,305.38,492.6,305.78,492,306.18z"/>
	<path style="fill-rule:evenodd;clip-rule:evenodd;fill:#CB4A87;" d="M476.28,287.19c0.57-0.08,1.15-0.15,1.72-0.23
		c0.09,0.2,0.06,0.42-0.09,0.55c-1.12,1.04-1.56,2.34-1.58,3.83c0,0.16-0.1,0.3-0.21,0.42c-0.85,0.03-0.83-0.71-1.03-1.21
		c-0.17-0.45-0.18-0.94-0.16-1.42C475.39,288.49,475.83,287.84,476.28,287.19z"/>
	<path style="fill-rule:evenodd;clip-rule:evenodd;fill:#825C42;" d="M514.01,307.6c-2.97-0.95-6.04-0.66-9.08-0.71
		c-0.44-0.01-0.87-0.01-1.31-0.02c0.11-0.15,0.21-0.3,0.32-0.45c3.28-0.01,6.57-0.13,9.82,0.46
		C513.85,307.12,513.93,307.36,514.01,307.6z"/>
	<path style="fill-rule:evenodd;clip-rule:evenodd;fill:#F3A8C8;" d="M498.4,278.34c-0.61,1.09-1.56,0.98-2.44,0.52
		c-0.73-0.38-1.41-0.96-1.14-1.99C496.09,277.18,497.24,277.75,498.4,278.34z"/>
	<path style="fill-rule:evenodd;clip-rule:evenodd;fill:#E36FA5;" d="M490.96,302.98c0.93-1.07,2.83-1.27,3.85-0.4
		c-0.51,1.45-1.52,1.25-2.62,0.8C491.79,303.21,491.37,303.11,490.96,302.98z"/>
	<path style="fill-rule:evenodd;clip-rule:evenodd;fill:#DB629A;" d="M505.62,281.43c-0.46,1.38,0.28,2.3,1.21,3.15
		c-0.18,0.31-0.37,0.62-0.55,0.94c-1.22-1.38-1.71-3.13-2.35-4.8C504.55,280.82,505.13,281.01,505.62,281.43z"/>
	<path style="fill-rule:evenodd;clip-rule:evenodd;fill:#F16231;" d="M492.64,304.51c-0.48,0.91-1.36,0.79-2.1,0.66
		c-1.15-0.2-2.26-0.19-3.39,0.03c-0.17-0.75,0.17-1,0.89-0.99C489.58,304.22,491.13,304.11,492.64,304.51z"/>
	<path style="fill-rule:evenodd;clip-rule:evenodd;fill:#A2275E;" d="M483.78,276.86c0.08-0.08,0.15-0.16,0.23-0.23
		c1-0.45,1.71-0.07,2.22,0.81c-0.01,0.22-0.15,0.39-0.33,0.45c-1.12,0.36-1.95,1.19-2.97,1.72c-0.34-0.04-0.53-0.24-0.6-0.57
		C482.81,278.32,483.3,277.59,483.78,276.86z"/>
	<path style="fill-rule:evenodd;clip-rule:evenodd;fill:#E483AD;" d="M493.12,276.64c0.88,0.75,1.3,1.86,2.21,2.6
		c1.15,0.94,2.97,0.69,3.79-0.63c0.26,0.11,0.51,0.23,0.77,0.34c-1.46,1.88-4.14,1.7-5.8-0.4c-0.08-0.08-0.16-0.17-0.24-0.24v0
		c-0.08-0.08-0.15-0.17-0.24-0.24c0-0.08,0-0.16,0-0.24c-0.08-0.08-0.15-0.17-0.24-0.24l0,0
		C493.28,277.28,493.2,276.96,493.12,276.64z"/>
	<path style="fill-rule:evenodd;clip-rule:evenodd;fill:#4D4D4D;" d="M495.09,305.46c0.14-0.66,0.69-0.51,1.13-0.57
		c1.29-0.19,2.58-0.24,3.86,0.06c0.04,0.16,0.03,0.33-0.09,0.44C499.13,306.24,496.02,306.28,495.09,305.46z"/>
	<path style="fill-rule:evenodd;clip-rule:evenodd;fill:#49494A;" d="M500.3,311.42c0.05,0.26-0.02,0.56-0.3,0.53
		c-1.46-0.14-2.94-0.21-4.26-0.99C496.98,309.96,499.23,310.18,500.3,311.42z"/>
	<path style="fill-rule:evenodd;clip-rule:evenodd;fill:#E481AD;" d="M480.66,281.2c0.81,0.85,0.72,2.41-0.36,3.3
		c-0.69,0.57-1.41,1.7-2.53,0.55c0.14-0.17,0.28-0.34,0.42-0.51c1.61-0.39,2.3-1.48,2.28-3.08
		C480.52,281.37,480.59,281.29,480.66,281.2z"/>
	<path style="fill-rule:evenodd;clip-rule:evenodd;fill:#E276A7;" d="M499.06,296.56c-0.89-0.59-0.3-1.32-0.03-1.84
		c0.46-0.87,1.21-1.54,2.25-1.76c0.07,0.05,0.09,0.11,0.07,0.16c-0.02,0.06-0.04,0.09-0.06,0.09
		C500.55,294.33,499.8,295.44,499.06,296.56z"/>
	<path style="fill-rule:evenodd;clip-rule:evenodd;fill:#8F8E8E;" d="M500.91,307.62c-1.9-1.29-4.05-0.56-6.09-0.74
		c0-0.16,0.01-0.32,0.01-0.48c0.31-0.29,0.7-0.34,1.1-0.35c1.42-0.01,2.84-0.01,4.27,0c0.36,0,0.71,0.04,0.97,0.35
		C501.09,306.81,501,307.22,500.91,307.62z"/>
	<path style="fill-rule:evenodd;clip-rule:evenodd;fill:#EB95BB;" d="M480.46,281.45c0.51,1.96-0.48,3.3-2.28,3.08
		c0.04-0.07,0.08-0.15,0.12-0.22c0.05-0.09,0.11-0.16,0.19-0.23C479.14,283.21,479.8,282.33,480.46,281.45z"/>
	<path style="fill-rule:evenodd;clip-rule:evenodd;fill:#F08835;" d="M487.3,308.31c1.39,0.95,2.79,0.06,4.18,0
		c0.4,0.46,0.8,0.92,1.2,1.38c0.11,0.12,0.09,0.21-0.05,0.29c-0.16,0-0.32-0.01-0.48-0.01c-0.95-0.64-2-0.71-3.08-0.49
		c-0.47-0.14-0.94-0.3-1.42-0.42C487.21,308.94,486.9,308.8,487.3,308.31z"/>
	<path style="fill-rule:evenodd;clip-rule:evenodd;fill:#896145;" d="M507.08,307.58c0.18-0.07,0.36-0.21,0.53-0.2
		c2.21,0.13,4.48-0.22,6.61,0.71c0.08,0.15,0.16,0.31,0.24,0.46C511.97,308.49,509.6,307.49,507.08,307.58z"/>
	<path style="fill-rule:evenodd;clip-rule:evenodd;fill:#686768;" d="M500.3,311.42c-1.45-0.82-2.98-0.92-4.56-0.45
		c-0.24-0.14-0.48-0.27-0.73-0.41c-0.11-0.4,0.17-0.51,0.46-0.53c1.43-0.06,2.86-0.07,4.3,0c0.26,0.01,0.41,0.22,0.54,0.43
		C500.3,310.79,500.3,311.11,500.3,311.42z"/>
	<path style="fill-rule:evenodd;clip-rule:evenodd;fill:#616061;" d="M495.09,305.46c1.71,0.25,3.43,0.65,4.99-0.51
		c0.39,0.08,0.88-0.26,1.16,0.27c-0.2,0.41-0.47,0.79-0.92,0.85c-1.68,0.22-3.36,0.34-5.05,0.11c-0.12-0.02-0.17-0.16-0.23-0.26
		C495.05,305.77,495.07,305.62,495.09,305.46z"/>
	<path style="fill-rule:evenodd;clip-rule:evenodd;fill:#E994BA;" d="M489.04,274.29c-1.15,1.02-2.13,0.21-3.14-0.3
		c0.02-0.07,0.03-0.13,0.03-0.2c1.03-1.47,1.76,0.15,2.63,0.26c0.09,0.05,0.17,0.11,0.25,0.18
		C488.9,274.23,488.97,274.25,489.04,274.29z"/>
	<path style="fill-rule:evenodd;clip-rule:evenodd;fill:#020102;" d="M469.08,304.7c0.69-1.32,1.04-0.19,1.5,0.21
		c-0.13,0.6,0.38,1.01,0.47,1.54c0.18,0.22,0.66,0.37,0.36,0.73c-0.28,0.32-0.71,0.26-1.06-0.01c0.27-0.04,0.54-0.07,0.8-0.11
		c-0.2-0.16-0.39-0.32-0.6-0.47c-0.45-0.31-0.9-0.61-1.35-0.91C468.88,305.38,468.99,305.04,469.08,304.7z"/>
	<path style="fill-rule:evenodd;clip-rule:evenodd;fill:#8C8A8A;" d="M500.3,310.47c-1.77-0.31-3.54-0.51-5.29,0.09
		c-0.5-0.08-0.5-0.43-0.42-0.81c1.55,0,3.1,0,4.65,0.01c0.38,0,0.81-0.13,1.1,0.28C500.33,310.19,500.32,310.33,500.3,310.47z"/>
	<path style="fill-rule:evenodd;clip-rule:evenodd;fill:#4E3725;" d="M504.62,308.57c0.58,0,1.17-0.1,1.71,0.23
		c0.55,0.19,1.11,0.19,1.66,0c0.33,0.08,0.66,0.16,0.98,0.24c0.44,0.32,1.2-0.02,1.43,0.72c-0.16,0.08-0.33,0.15-0.49,0.23
		c-1.24-0.36-2.49-0.67-3.8-0.49c-0.09-0.08-0.18-0.15-0.27-0.22c-0.93-0.35-1.92,0.08-2.86-0.23c-0.02-0.07-0.04-0.14-0.05-0.21
		C503.43,308.36,504.1,308.94,504.62,308.57z"/>
	<path style="fill-rule:evenodd;clip-rule:evenodd;fill:#78787A;" d="M495.04,305.92c2.15,0.45,4.24,0.44,6.2-0.7
		c0.01,0.4,0.16,0.8-0.07,1.19c-2.11,0-4.22,0-6.33,0C494.9,306.24,494.97,306.08,495.04,305.92z"/>
	<path style="fill-rule:evenodd;clip-rule:evenodd;fill:#D75D95;" d="M474.94,289.14c0.72,0.73,0.17,2,1.13,2.62
		c0.47,0.22,0.55,0.54,0.25,0.96c-0.99-0.49-1.17-1.85-2.32-2.16C474.31,290.09,474.63,289.61,474.94,289.14z"/>
	<path style="fill-rule:evenodd;clip-rule:evenodd;fill:#503826;" d="M507.74,310.97c0.17,0.07,0.33,0.14,0.5,0.22
		c-0.02,0.15-0.16,0.17-0.25,0.25c-0.8,0.4-1.6,0.38-2.41,0.02c-0.88-0.5-1.92-0.07-2.82-0.47l-0.08-0.03
		c0.01-0.07,0-0.14-0.03-0.21l0.09-0.04c0.12-0.1,0.3-0.09,0.42-0.21c0.81,0.05,1.65-0.19,2.43,0.23
		C506.3,310.98,506.99,311.27,507.74,310.97z"/>
	<path style="fill-rule:evenodd;clip-rule:evenodd;fill:#1181B0;" d="M493.35,308.82c-0.24-0.24-0.49-0.48-0.73-0.72
		c-0.06-0.09-0.12-0.18-0.19-0.28c-0.03-0.07-0.04-0.14-0.04-0.22c-0.05-0.06-0.07-0.12-0.05-0.18c0.02-0.06,0.04-0.09,0.05-0.09
		c0.16-0.16,0.31-0.32,0.46-0.49c0.11-0.06,0.2-0.14,0.3-0.21c0.14-0.09,0.29-0.18,0.43-0.27c0.08-0.06,0.16-0.05,0.22,0.04
		c0,0.31,0,0.62,0,0.93c-0.06,0.09-0.12,0.18-0.17,0.27c-0.02,0.39-0.05,0.78-0.07,1.17C493.5,308.87,493.43,308.88,493.35,308.82z"
		/>
	<path style="fill-rule:evenodd;clip-rule:evenodd;fill:#F16A31;" d="M489.07,309.47c1.15-0.58,2.24-0.82,3.08,0.49
		C491.07,310.13,490.09,309.69,489.07,309.47z"/>
	<path style="fill-rule:evenodd;clip-rule:evenodd;fill:#5C4275;" d="M495.79,249.96c1.79,0.4,3.47,1.07,5.07,1.94
		c-0.1,0.12-0.21,0.13-0.33,0.03c-1.63-0.56-3.27-1.1-4.8-1.91L495.79,249.96z"/>
	<path style="fill-rule:evenodd;clip-rule:evenodd;fill:#F9A22A;" d="M471.04,306.45c-0.22-0.5-1.67-0.62-0.47-1.54
		c0.15,0.02,0.3,0.03,0.45,0.05C471.1,305.45,472.61,305.93,471.04,306.45z"/>
	<path style="fill-rule:evenodd;clip-rule:evenodd;fill:#F9A22A;" d="M474.6,306.4c0.07-0.09,0.13-0.2,0.21-0.28
		c0.36-0.34,0.68-0.79,1.26-0.54c0.22,0.09,0.35,0.35,0.11,0.58c-0.43,0.43-0.8,1.08-1.54,0.45c-0.08-0.03-0.12-0.07-0.1-0.13
		C474.56,306.43,474.58,306.4,474.6,306.4z"/>
	<path style="fill-rule:evenodd;clip-rule:evenodd;fill:#F4A12F;" d="M485.72,306.47c0,0.2,0.02,0.29,0,0.36
		c-0.13,0.47-0.28,0.94-0.42,1.41c-0.28-0.42-0.07-0.89-0.13-1.34c-0.08-0.58-0.18-1.16-0.23-1.74c-0.02-0.2-0.12-0.54,0.16-0.58
		c0.24-0.03,0.33,0.28,0.38,0.52C485.56,305.6,485.65,306.1,485.72,306.47z"/>
	<path style="fill-rule:evenodd;clip-rule:evenodd;fill:#75543C;" d="M514.23,310.95c-1.03-0.59-2.19-0.6-3.33-0.72
		c-0.06-0.05-0.08-0.09-0.07-0.14c0.02-0.05,0.03-0.08,0.05-0.08v0c1.23-0.56,2.39-0.01,3.56,0.25
		C514.55,310.54,514.4,310.75,514.23,310.95z"/>
	<path style="fill-rule:evenodd;clip-rule:evenodd;fill:#926D55;" d="M505.31,313.36c1.29,0.03,2.59-0.02,3.87,0.28
		c0.09,0.04,0.13,0.07,0.1,0.12c-0.03,0.04-0.06,0.06-0.09,0.06C507.87,313.93,506.57,313.8,505.31,313.36z"/>
	<path style="fill-rule:evenodd;clip-rule:evenodd;fill:#AC3D6D;" d="M482.33,279.04c0.18,0.19,0.35,0.37,0.53,0.56
		c0.25,0.62,0.2,1.12-0.51,1.38c-0.17-0.42-0.34-0.83-0.51-1.25C482,279.5,482.16,279.27,482.33,279.04z"/>
	<path style="fill-rule:evenodd;clip-rule:evenodd;fill:#4E3725;" d="M514.45,310.26c-1.19-0.08-2.38-0.17-3.56-0.25
		c-0.01-0.07-0.01-0.15-0.02-0.22c0.34-0.34,0.84,0.03,1.19-0.26c0.49,0.08,0.98,0.16,1.47,0.24c0.26,0.26,0.65-0.02,0.92,0.22
		C514.45,310.08,514.45,310.17,514.45,310.26z"/>
	<path style="fill-rule:evenodd;clip-rule:evenodd;fill:#735440;" d="M509.19,313.81c0-0.06,0-0.12-0.01-0.18
		c1.29-0.01,2.58-0.02,3.87-0.03C511.79,314.1,510.48,313.75,509.19,313.81z"/>
	<path style="fill-rule:evenodd;clip-rule:evenodd;fill:#EF6EA7;" d="M489.01,270.89c1.03,0.09,1.88,0.6,2.66,1.23
		C490.72,271.86,489.83,271.44,489.01,270.89z"/>
	<path style="fill-rule:evenodd;clip-rule:evenodd;fill:#8B664D;" d="M504.62,308.57c-0.5,0.46-1.14,0.1-1.69,0.27
		c-0.15-0.1-0.31-0.21-0.46-0.31c-0.07-0.09-0.05-0.17,0.04-0.23C503.21,308.39,503.92,308.48,504.62,308.57z"/>
	<path style="fill-rule:evenodd;clip-rule:evenodd;fill:#6E4F38;" d="M502.99,309.05c0.95,0.1,1.94-0.26,2.86,0.23
		c-0.96,0-1.92,0-2.88,0C502.95,309.2,502.96,309.13,502.99,309.05z"/>
	<path style="fill-rule:evenodd;clip-rule:evenodd;fill:#7C5B44;" d="M503.17,304.75c0.09,0.76-0.42,0.68-0.9,0.66
		C502.08,304.53,502.67,304.7,503.17,304.75z"/>
	<path style="fill-rule:evenodd;clip-rule:evenodd;fill:#442E58;" d="M492.65,248.79c0.7,0.06,1.35,0.26,1.92,0.7
		c0.07,0.04,0.1,0.09,0.08,0.14c-0.02,0.05-0.04,0.08-0.07,0.08c-0.66-0.29-1.41-0.37-1.95-0.89L492.65,248.79z"/>
	<path style="fill-rule:evenodd;clip-rule:evenodd;fill:#3F2A50;" d="M492.63,248.81c-0.55,0.04-0.99-0.24-1.41-0.52
		c-0.17-0.11,0.03-0.2,0.12-0.2c0.54,0.02,0.94,0.34,1.31,0.7L492.63,248.81z"/>
	<path style="fill-rule:evenodd;clip-rule:evenodd;fill:#432E55;" d="M500.54,251.94c0.11-0.01,0.22-0.02,0.33-0.03
		c0.62,0.06,1.16,0.3,1.61,0.74l0.01-0.01C501.75,252.62,501.15,252.28,500.54,251.94z"/>
	<path style="fill-rule:evenodd;clip-rule:evenodd;fill:#816997;" d="M511.54,264.13c-0.29-0.71-0.29-1.41,0.03-2.11
		C511.55,262.73,511.54,263.43,511.54,264.13z"/>
	<path style="fill-rule:evenodd;clip-rule:evenodd;fill:#684B36;" d="M502.68,312.4c0.35,0.07,0.71,0.1,1.04,0.21
		c0.2,0.07,0.53-0.18,0.62,0.22c-0.23,0.03-0.47,0.07-0.7,0.1C503.26,312.86,502.91,312.75,502.68,312.4z"/>
	<path style="fill-rule:evenodd;clip-rule:evenodd;fill:#C1BDBC;" d="M502.51,308.3c-0.02,0.08-0.03,0.15-0.04,0.23
		c-0.28-0.07-0.76,0.28-0.79-0.17c-0.03-0.34,0.45-0.28,0.75-0.24C502.44,308.18,502.47,308.25,502.51,308.3z"/>
	<path style="fill-rule:evenodd;clip-rule:evenodd;fill:#EF6EA7;" d="M500.06,275.93c0.41-0.01,0.83-0.05,1,0.46
		C500.67,276.37,500.33,276.23,500.06,275.93z"/>
	<path style="fill-rule:evenodd;clip-rule:evenodd;fill:#352343;" d="M502.47,252.64c0.37-0.05,0.69,0.07,0.98,0.3
		c0.01,0.01-0.05,0.15-0.08,0.14C503.01,253.06,502.69,252.95,502.47,252.64L502.47,252.64z"/>
	<path style="fill-rule:evenodd;clip-rule:evenodd;fill:#5C4275;" d="M494.58,249.7c0-0.07,0-0.15-0.01-0.22
		c0.45,0.06,0.89,0.14,1.22,0.48c0,0-0.06,0.07-0.06,0.07C495.35,249.92,494.96,249.81,494.58,249.7z"/>
	<path style="fill-rule:evenodd;clip-rule:evenodd;fill:#C2BDBD;" d="M503.16,306.91c0.01,0.06,0.02,0.13,0.03,0.19
		c-0.37-0.03-0.75-0.05-1.12-0.08C502.41,306.71,502.8,306.93,503.16,306.91z"/>
	<path style="fill-rule:evenodd;clip-rule:evenodd;fill:#8D6B54;" d="M502.25,305.69c0.39,0.02,0.81-0.17,1.14,0.19
		c-0.38,0.01-0.77,0.02-1.15,0.03l0.02,0.02C502.25,305.85,502.25,305.77,502.25,305.69z"/>
	<path style="fill-rule:evenodd;clip-rule:evenodd;fill:#614733;" d="M501.53,309.53c0.62,0.24,0.2,0.45-0.02,0.66
		C501.08,309.95,501.45,309.74,501.53,309.53z"/>
	<path style="fill-rule:evenodd;clip-rule:evenodd;fill:#62487B;" d="M474.88,307.59c0,0.06,0,0.13,0,0.19
		c-0.23-0.06-0.47-0.11-0.49-0.41c0-0.06,0.07-0.12,0.1-0.18C474.63,307.32,474.76,307.46,474.88,307.59z"/>
	<path style="fill-rule:evenodd;clip-rule:evenodd;fill:#7C5941;" d="M514.45,309.99c-0.32-0.02-0.68,0.12-0.92-0.22
		c0.31,0,0.62,0.01,0.93,0.01C514.48,309.85,514.48,309.92,514.45,309.99z"/>
	<path style="fill-rule:evenodd;clip-rule:evenodd;fill:#B0AAA9;" d="M501.97,310.98c-0.07,0.23-0.12,0.49-0.45,0.47
		C501.24,310.89,501.59,310.92,501.97,310.98z"/>
	<path style="fill-rule:evenodd;clip-rule:evenodd;fill:#EE5EA0;" d="M502.97,253.59c-0.28,0.01-0.57,0.05-0.72-0.27
		C502.49,253.4,502.82,253.26,502.97,253.59z"/>
	<path style="fill-rule:evenodd;clip-rule:evenodd;fill:#8E674C;" d="M503.88,305.92c0.19,0.03,0.38,0.06,0.57,0.09
		c-0.17,0.05-0.35,0.09-0.53,0.14C503.91,306.08,503.89,306,503.88,305.92z"/>
	<path style="fill-rule:evenodd;clip-rule:evenodd;fill:#C7C3C4;" d="M474.6,306.4c0.02,0.07,0.04,0.14,0.04,0.21
		c-0.12,0.08-0.24,0.16-0.36,0.23c-0.04-0.08-0.13-0.17-0.12-0.25C474.21,306.33,474.44,306.42,474.6,306.4z"/>
	<path style="fill-rule:evenodd;clip-rule:evenodd;fill:#684B36;" d="M505.12,313.12c0,0.08,0,0.16,0,0.23
		c-0.27-0.01-0.58,0.09-0.76-0.23C504.61,313.12,504.86,313.12,505.12,313.12L505.12,313.12z"/>
	<path style="fill-rule:evenodd;clip-rule:evenodd;fill:#EE5EA0;" d="M495.78,250.95c-0.29,0.01-0.59,0.06-0.72-0.31
		C495.29,250.77,495.64,250.6,495.78,250.95z"/>
	<path style="fill-rule:evenodd;clip-rule:evenodd;fill:#60407F;" d="M510.81,279.06c-0.01,0.03-0.02,0.06-0.03,0.09
		c-0.02-0.04-0.05-0.08-0.07-0.13c0-0.01,0.04-0.03,0.06-0.05C510.78,279,510.8,279.03,510.81,279.06z"/>
	<path style="fill-rule:evenodd;clip-rule:evenodd;fill:#EF6EA7;" d="M499.57,275.7c0.21-0.01,0.41,0.03,0.51,0.25
		C499.89,275.9,499.65,275.96,499.57,275.7z"/>
	<path style="fill-rule:evenodd;clip-rule:evenodd;fill:#AAA6A7;" d="M487.61,302.78c0-0.08,0-0.16,0-0.24
		c0.13,0.05,0.26,0.1,0.39,0.14C487.87,302.71,487.74,302.75,487.61,302.78z"/>
	<path style="fill-rule:evenodd;clip-rule:evenodd;fill:#EE5EA0;" d="M503.43,253.68c-0.2,0.19-0.35,0.15-0.46-0.09
		C503.12,253.62,503.27,253.65,503.43,253.68z"/>
	<path style="fill-rule:evenodd;clip-rule:evenodd;fill:#2F1F3B;" d="M504.41,253.42c0.03,0.01,0.06,0.03,0.09,0.04
		c-0.04,0.03-0.08,0.06-0.12,0.09c-0.01-0.03-0.05-0.06-0.04-0.07C504.34,253.45,504.38,253.43,504.41,253.42z"/>
	<path style="fill-rule:evenodd;clip-rule:evenodd;fill:#ACA3A1;" d="M492.64,309.97c0.02-0.09,0.03-0.19,0.05-0.29
		c0.12,0.07,0.23,0.14,0.35,0.21C492.9,309.92,492.77,309.95,492.64,309.97z"/>
	<path style="fill-rule:evenodd;clip-rule:evenodd;fill:#CC4B88;" d="M477.51,296.33c0.08,0.06,0.16,0.11,0.24,0.17
		C477.67,296.45,477.59,296.39,477.51,296.33z"/>
	<path style="fill-rule:evenodd;clip-rule:evenodd;fill:#CB4D87;" d="M496,300.89c0.06-0.08,0.12-0.17,0.19-0.25
		C496.13,300.73,496.07,300.81,496,300.89z"/>
	<path style="fill-rule:evenodd;clip-rule:evenodd;fill:#CB4D87;" d="M495.52,301.59c0.06-0.08,0.12-0.15,0.17-0.22
		C495.63,301.44,495.58,301.52,495.52,301.59z"/>
	<path style="fill-rule:evenodd;clip-rule:evenodd;fill:#CB4D87;" d="M495.29,301.87c0.07-0.09,0.15-0.18,0.22-0.27
		C495.44,301.69,495.36,301.78,495.29,301.87z"/>
	<path style="fill-rule:evenodd;clip-rule:evenodd;fill:#CB4D87;" d="M501.29,293.21c-0.01-0.08-0.01-0.17-0.02-0.25
		c0.07,0,0.14,0,0.21,0C501.42,293.04,501.36,293.13,501.29,293.21z"/>
	<path style="fill-rule:evenodd;clip-rule:evenodd;fill:#D2548E;" d="M500.57,279.27c-0.08-0.06-0.16-0.12-0.24-0.18
		C500.41,279.15,500.49,279.21,500.57,279.27z"/>
	<path style="fill-rule:evenodd;clip-rule:evenodd;fill:#C7C3C4;" d="M488.51,302.9c-0.01,0.02-0.02,0.06-0.04,0.07
		c-0.02,0.01-0.05,0-0.08,0c0.01-0.05,0.03-0.1,0.04-0.15C488.46,302.85,488.49,302.88,488.51,302.9z"/>
	<path style="fill-rule:evenodd;clip-rule:evenodd;fill:#E581AE;" d="M488.82,274.23c-0.08-0.06-0.17-0.12-0.25-0.18
		C488.65,274.11,488.73,274.17,488.82,274.23z"/>
	<path style="fill-rule:evenodd;clip-rule:evenodd;fill:#C9BEBB;" d="M493.81,304.98c0-0.09,0.01-0.18,0.01-0.28
		c0.07,0.03,0.13,0.06,0.2,0.08C493.95,304.86,493.88,304.92,493.81,304.98z"/>
	<path style="fill-rule:evenodd;clip-rule:evenodd;fill:#CB5A8B;" d="M477.27,285.73c-0.06,0.09-0.13,0.18-0.19,0.26
		C477.14,285.91,477.2,285.82,477.27,285.73z"/>
	<path style="fill-rule:evenodd;clip-rule:evenodd;fill:#C34A80;" d="M505.84,286.24c0.06-0.08,0.11-0.16,0.17-0.23
		C505.95,286.08,505.9,286.16,505.84,286.24z"/>
	<path style="fill-rule:evenodd;clip-rule:evenodd;fill:#E481AD;" d="M478.48,284.08c-0.06,0.08-0.12,0.15-0.19,0.23
		C478.35,284.24,478.42,284.16,478.48,284.08z"/>
	<path style="fill-rule:evenodd;clip-rule:evenodd;fill:#5F595A;" d="M502.23,305.91c-0.01,0.04-0.02,0.08-0.04,0.11
		c-0.01,0.02-0.05,0.01-0.08,0.02c0.04-0.04,0.09-0.07,0.13-0.11L502.23,305.91z"/>
	<path style="fill-rule:evenodd;clip-rule:evenodd;fill:#5F3F7F;" d="M509.19,283.37c0.06,0.04,0.12,0.08,0.18,0.13
		c-0.06,0.03-0.12,0.06-0.18,0.09l0.01,0.02c-0.04-0.04-0.07-0.08-0.11-0.11C509.13,283.45,509.16,283.41,509.19,283.37z"/>
	<path style="fill-rule:evenodd;clip-rule:evenodd;fill:#CB4A87;" d="M476.79,286.46c-0.07,0.09-0.15,0.18-0.22,0.26
		C476.64,286.63,476.72,286.55,476.79,286.46z"/>
	<path style="fill-rule:evenodd;clip-rule:evenodd;fill:#CB4A87;" d="M476.56,286.73c-0.06,0.07-0.12,0.14-0.17,0.21
		C476.45,286.88,476.5,286.8,476.56,286.73z"/>
	<path style="fill-rule:evenodd;clip-rule:evenodd;fill:#B53770;" d="M505.36,286.97c0.06-0.08,0.12-0.16,0.17-0.24
		C505.48,286.81,505.42,286.89,505.36,286.97z"/>
	<path style="fill-rule:evenodd;clip-rule:evenodd;fill:#7E8791;" d="M493.16,306.65c-0.1,0.07-0.2,0.14-0.3,0.21
		C492.96,306.79,493.06,306.72,493.16,306.65z"/>
	<path style="fill-rule:evenodd;clip-rule:evenodd;fill:#A9A19C;" d="M513.76,306.89c0-0.09,0-0.19,0-0.28
		c0.06,0.06,0.12,0.13,0.18,0.19C513.88,306.83,513.82,306.86,513.76,306.89z"/>
	<path style="fill-rule:evenodd;clip-rule:evenodd;fill:#8D8889;" d="M508.97,283.6c-0.06-0.05-0.11-0.1-0.17-0.15
		c0.06-0.02,0.11-0.05,0.17-0.07c0.03,0.04,0.07,0.08,0.1,0.12c-0.04,0.04-0.07,0.07-0.11,0.11L508.97,283.6z"/>
	<path style="fill-rule:evenodd;clip-rule:evenodd;fill:#C7C3C4;" d="M492.39,307.35c0,0.09,0,0.18,0,0.26
		c-0.06-0.06-0.12-0.12-0.18-0.17C492.27,307.41,492.33,307.38,492.39,307.35z"/>
	<path style="fill-rule:evenodd;clip-rule:evenodd;fill:#7E8791;" d="M493.63,307.62c0.06-0.09,0.11-0.18,0.17-0.27
		C493.75,307.44,493.69,307.53,493.63,307.62z"/>
	<path style="fill-rule:evenodd;clip-rule:evenodd;fill:#5F595A;" d="M508.96,283.38c0.04-0.06,0.07-0.12,0.11-0.18
		c0.04,0.06,0.08,0.11,0.12,0.17l0.01-0.01c-0.08,0.09-0.17,0.09-0.26,0L508.96,283.38z"/>
	<path style="fill-rule:evenodd;clip-rule:evenodd;fill:#7E8791;" d="M492.43,307.83c0.06,0.09,0.12,0.18,0.19,0.28
		C492.56,308.01,492.5,307.92,492.43,307.83z"/>
	<path style="fill-rule:evenodd;clip-rule:evenodd;fill:#D75D95;" d="M473.91,290.78c-0.06,0.08-0.12,0.17-0.18,0.25
		C473.79,290.95,473.85,290.86,473.91,290.78z"/>
	<path style="fill-rule:evenodd;clip-rule:evenodd;fill:#C7C3C4;" d="M493.35,308.82c0.07-0.01,0.14-0.02,0.21-0.03
		c-0.01,0.06-0.02,0.12-0.03,0.18C493.47,308.92,493.41,308.87,493.35,308.82z"/>
	<path style="fill-rule:evenodd;clip-rule:evenodd;fill:#C7C3C4;" d="M493.81,306.42c-0.07-0.01-0.14-0.02-0.22-0.04
		c0.06-0.05,0.13-0.1,0.19-0.15C493.79,306.29,493.8,306.35,493.81,306.42z"/>
	<path style="fill-rule:evenodd;clip-rule:evenodd;fill:#EA8DB6;" d="M475.11,295.13c0.08,0.05,0.16,0.11,0.25,0.17
		C475.27,295.24,475.19,295.18,475.11,295.13z"/>
	<path style="fill-rule:evenodd;clip-rule:evenodd;fill:#AC3D6D;" d="M481.59,279.99c-0.07,0.08-0.14,0.16-0.22,0.24
		C481.45,280.16,481.52,280.08,481.59,279.99z"/>
	<path style="fill-rule:evenodd;clip-rule:evenodd;fill:#D7729D;" d="M476.56,295.84c0.08,0.05,0.16,0.1,0.24,0.16
		C476.72,295.95,476.64,295.89,476.56,295.84z"/>
	<path style="fill-rule:evenodd;clip-rule:evenodd;fill:#C74280;" d="M489.99,302.57c0.08,0.06,0.16,0.12,0.24,0.17
		C490.15,302.68,490.07,302.63,489.99,302.57z"/>
	<path style="fill-rule:evenodd;clip-rule:evenodd;fill:#5E479C;" d="M461.69,268.71c0.44,0.28,0.93,0.25,1.42,0.24
		c0.09-0.07,0.18-0.14,0.29-0.19c-0.06,1.4-0.51,2.76-0.05,4.21c0.85,2.65,3.88,4.85,6.66,4.88c2.16,0.03,4.09-0.19,5.51-2.13
		c0.9-1.22,1.41-2.45,1.09-3.96c-0.75-3.54-2.64-6.03-6.39-6.65c-1.81-0.3-3.37,0.41-4.75,1.58c-0.3,0.26-0.69,0.88-1.03,0.61
		c-0.4-0.32,0.01-1.04-0.29-1.58c-0.21-0.37,0.19-0.53,0.49-0.65c5.45-2.04,12.6-0.21,12.81,7.48c0.07,2.59-1.91,5.05-4.94,5.66
		c-3.63,0.73-7.14,0.17-9.95-2.53c-2.05-1.97-2.37-4.36-1.38-6.98C461.34,268.58,461.51,268.58,461.69,268.71z"/>
	<path style="fill-rule:evenodd;clip-rule:evenodd;fill:#F2A6C7;" d="M456.41,252.65c3.4-1.13,6.91-0.68,8.63,3.03
		c1.2,2.59,1.48,6.97-1.22,8.7c-0.78,0.5-1.76,1.12-0.39,2.22c0.52,0.42-0.44,0.66-0.6,1.07c-0.14,0.36-0.48,0.45-0.74,0.09
		c-0.54-0.73-1.04-0.4-1.63-0.06c-3.27,1.86-7.32-0.24-7.93-3.96c-0.51-3.14-0.84-6.18,1.25-8.93c0.23-0.04,0.32,0.1,0.39,0.29
		c0.08,0.52-0.24,0.93-0.4,1.39c-1.19,2.59-0.71,5.18,0.17,7.69c0.68,1.95,2.65,2.79,4.69,2.31c2.13-0.5,3.69-1.84,5.09-3.41
		c0.82-0.92,0.79-2.15,0.97-3.28c0.04-0.23-0.01-0.48,0.02-0.72c0.37-2.35-0.77-3.88-2.68-5c-1.44-0.83-2.88-1.57-4.64-1.02
		C457.03,253.18,456.51,253.3,456.41,252.65z"/>
	<path style="fill-rule:evenodd;clip-rule:evenodd;fill:#D59C6F;" d="M464.36,271.59c-0.01-1.09-0.33-2.24,0.6-3.15
		c2.67-0.48,5.33-0.8,7.58,1.21c1.17,1.05,1.52,2.39,1.04,3.43c-0.61,1.32-2.15,2.12-3.69,1.92c-0.2-0.03-0.39-0.09-0.57-0.16
		c-0.12-0.03-0.25-0.07-0.37-0.11c-0.17-0.07-0.33-0.16-0.49-0.25C467.01,273.63,465.81,272.44,464.36,271.59z"/>
	<path style="fill-rule:evenodd;clip-rule:evenodd;fill:#AC805B;" d="M465.82,274.47c-0.26-0.4-0.53-0.79-0.79-1.19
		c0.6-0.51,1.17-0.24,1.75,0.07c0.73,0.4,1.36,0.95,2.15,1.23c1.49,0.47,2.87,0.35,4.14-0.69c0.99-0.82,1.22-1.6,0.56-2.7
		c-1.09-1.84-2.73-2.84-4.88-2.95c-0.75-0.04-1.51,0-2.27-0.01c-0.4,0-0.82,0.01-0.97-0.49c0.31-0.19,0.63-0.37,0.94-0.56
		c0.55,0.15,1.11,0,1.66-0.02c2.02-0.07,3.7,0.64,5.2,1.99c0.97,0.87,2.1,1.58,2.5,2.92c0.27,1.34-0.17,2.44-1.11,3.38
		C471.58,276.47,468.64,276.07,465.82,274.47z"/>
	<path style="fill-rule:evenodd;clip-rule:evenodd;fill:#987252;" d="M475.8,272.08c-0.78-1.15-1.9-1.94-2.92-2.85
		c-1.3-1.16-2.77-1.76-4.54-1.73c-0.63,0.01-1.36,0.31-1.9-0.31C470.21,265.13,475.45,267.87,475.8,272.08z"/>
	<path style="fill-rule:evenodd;clip-rule:evenodd;fill:#9C7453;" d="M465.82,274.47c0.76-0.12,1.44,0.19,2.05,0.53
		c2.21,1.23,4.55,0.27,6.81,0.46C471.91,278.47,467.54,276.94,465.82,274.47z"/>
	<path style="fill-rule:evenodd;clip-rule:evenodd;fill:#C49067;" d="M465.51,267.74c0.78,0.45,1.64,0.27,2.46,0.24
		c2.65-0.1,4.56,1.22,6.06,3.2c1.14,1.5-0.38,3.6-2.67,3.77c-0.83,0.06-1.67,0.06-2.47-0.23c-0.06-0.05-0.08-0.11-0.06-0.16
		c0.02-0.05,0.04-0.08,0.06-0.08c1.13,0.23,2.25,0.48,3.3-0.3c2.42-1.8,1.03-3.94-0.79-5.02c-1.16-0.69-2.49-0.69-3.81-0.68
		c-0.87,0.01-1.75-0.02-2.62-0.03c0.1-0.15,0.2-0.3,0.29-0.46C465.35,267.92,465.45,267.86,465.51,267.74L465.51,267.74z"/>
	<path style="fill-rule:evenodd;clip-rule:evenodd;fill:#12080C;" d="M456.41,252.65c0.25,0.47,0.64,0.19,0.92,0.1
		c1.82-0.53,3.37,0.1,4.84,1.08c-0.05,0.19-0.17,0.3-0.35,0.34c-0.71-0.17-1.36-0.56-2.12-0.6c-2.06-0.25-3.71,0.41-4.85,2.21
		c-0.29,0.45-0.4,1.06-1.02,1.24c-0.38-0.15-0.21-0.5-0.27-0.77c0.14-0.4,0.29-0.8,0.43-1.2c0.31-1.15,1.47-1.48,2.16-2.26
		C456.25,252.74,456.33,252.69,456.41,252.65z"/>
	<path style="fill-rule:evenodd;clip-rule:evenodd;fill:#BF8D65;" d="M468.88,274.48c0,0.08,0,0.16,0,0.24
		c-1.38-0.23-2.29-1.7-3.85-1.44c-0.22-0.56-0.45-1.13-0.67-1.69c1.19-0.04,1.77,0.93,2.59,1.52c0.55,0.4,1.13,0.75,1.69,1.13
		C468.72,274.32,468.79,274.41,468.88,274.48L468.88,274.48z"/>
	<path style="fill-rule:evenodd;clip-rule:evenodd;fill:#BC819A;" d="M456.17,252.79c-0.42,1.04-1.6,1.36-2.16,2.26
		c-0.07-0.08-0.15-0.16-0.22-0.24C454.43,253.96,455.15,253.2,456.17,252.79z"/>
	<path style="fill-rule:evenodd;clip-rule:evenodd;fill:#AAA6A7;" d="M461.69,268.71c-0.17,0.01-0.34,0.01-0.51,0.02
		C461.33,268.3,461.51,268.46,461.69,268.71z"/>
	<path style="fill-rule:evenodd;clip-rule:evenodd;fill:#6E6768;" d="M464.09,268.01c0.03-0.06,0.06-0.12,0.08-0.19
		c0.16,0.17-0.03,0.13-0.1,0.17L464.09,268.01z"/>
	<path style="fill-rule:evenodd;clip-rule:evenodd;fill:#AC805B;" d="M465.51,267.74c-0.08,0.08-0.17,0.16-0.25,0.25
		C465.34,267.91,465.42,267.83,465.51,267.74z"/>
	<path style="fill-rule:evenodd;clip-rule:evenodd;fill:#6E6768;" d="M464.07,267.99c-0.03,0.06-0.06,0.11-0.09,0.17
		c-0.15-0.17,0.05-0.12,0.1-0.16L464.07,267.99z"/>
	<path style="fill-rule:evenodd;clip-rule:evenodd;fill:#C7C3C4;" d="M463.39,268.76c-0.09,0.06-0.19,0.13-0.29,0.19
		C463.2,268.89,463.29,268.82,463.39,268.76z"/>
	<path style="fill-rule:evenodd;clip-rule:evenodd;fill:#5E479C;" d="M457.1,286.24c-0.34,2.1-0.55,4.12,1.33,5.78
		c2.44,2.14,7.64,1.77,9.63-0.78c1-1.28,0.48-2.66,0.31-4c-0.59-4.44-4.86-6.61-8.51-4.37c-0.17,0.1-0.33,0.21-0.49,0.32
		c-0.34,0.24-0.73,0.95-0.94,0.72c-0.37-0.4,0.13-0.97,0.4-1.36c0.5-0.72,1.32-0.95,2.14-1.18c4.21-1.17,7.94,1.17,8.62,5.46
		c0.19,1.16,0.33,2.29,0.08,3.52c-0.5,2.44-1.94,3.82-4.27,4.4c-3.41,0.84-6.53,0.34-9.08-2.22c-1.81-1.82-1.49-5.02,0.53-6.46
		C456.98,286.07,457.05,286.13,457.1,286.24z"/>
	<path style="fill-rule:evenodd;clip-rule:evenodd;fill:#EF6CA6;" d="M454.75,273.46c2.3,2.2,2.91,5.67,1.47,8.43
		c-1.31,2.51-3.98,3.19-6.76,1.7c-0.66-0.06-1.11-0.45-1.47-0.97c-0.85-1.19-1.22-2.54-1.37-3.97c-0.05-0.45,0.01-0.86,0.27-1.23
		c1.04-0.01,1.8-0.82,2.78-1.02c0.41,0.45,0.39,1.01,0.11,1.45c-0.38,0.61-0.25,0.95,0.28,1.38c0.52,0.43,0.6,0.9-0.32,0.93
		c-0.36,0.01-0.65,0.13-0.59,0.56c0.05,0.39,0.33,0.55,0.69,0.49c0.83-0.14,1.69,0.03,2.5-0.2c0.68-0.2,0.88,0.05,0.89,0.67
		c0.01,0.28,0.06,0.56,0.21,0.8c0.19,0.3,0.43,0.41,0.62,0.04c0.46-0.9,1.21-1.6,1.61-2.52c0.29-0.67,0.49-1.36-0.65-1.43
		c-0.6-0.03-0.8-0.45-0.84-0.98c-0.04-0.52-0.09-1.04-0.3-1.52c-0.09-0.2-0.14-0.54-0.43-0.48c-0.27,0.06-0.15,0.41-0.25,0.62
		c-0.05,0.11-0.12,0.19-0.22,0.25c-0.61-0.01-1.25-0.92-1.85,0.24c-0.22,0.41-1.1,0.05-1.57-0.4c-0.38-0.98,0.26-1.47,0.93-1.95
		c0.96-0.69,2.19-0.76,3.17-1.4C454.2,272.76,454.51,273.03,454.75,273.46z"/>
	<path style="fill-rule:evenodd;clip-rule:evenodd;fill:#DC975B;" d="M461.18,283.51c2.38-0.46,4.24,0.5,5.72,2.24
		c1.05,1.23,1.37,2.7,0.84,4.31c-0.37,1.12-1.27,1.61-2.22,1.94c-1.93,0.69-3.89,0.89-5.77-0.22c0.06-0.72,0.65-0.57,1.06-0.58
		c0.84-0.03,1.67-0.13,2.48-0.31c0.9-0.2,1.67-0.65,1.91-1.59c0.23-0.89-0.49-1.36-1.05-1.85c-0.69-0.6-1.5-1.05-2.12-1.74
		C461.48,285.1,460.89,284.47,461.18,283.51z"/>
	<path style="fill-rule:evenodd;clip-rule:evenodd;fill:#FABA84;" d="M459.51,284.32c0.16-0.16,0.33-0.32,0.49-0.49
		c0.39-0.08,0.62,0.16,0.75,0.46c0.58,1.36,1.73,2.16,2.84,3.01c0.71,0.54,1.46,1.13,1.14,2.16c-0.31,1.02-1.22,1.38-2.17,1.39
		c-1.34,0.03-2.69,0.3-4.03-0.04c-1.32-1.84-1.06-3.92,0.8-6.27C459.39,284.46,459.44,284.39,459.51,284.32z"/>
	<path style="fill-rule:evenodd;clip-rule:evenodd;fill:#F2A5C6;" d="M457.33,280.66c0.13-2.08,0.13-4.12-0.96-6.02
		c-0.35-0.61-0.72-1.12-1.41-1.35c-0.54-0.16-1.01-0.56-1.63-0.45c-3.25-1.31-5.71,0.86-6.29,2.77c-0.74,2.4-0.41,4.68,0.94,6.8
		c0.31,0.56,0.92,0.87,1.23,1.43c0.6,0.96,1.63,0.88,2.55,0.94c0.98,0.07,1.98-0.02,2.97-0.04c0.06,0.06,0.08,0.12,0.05,0.17
		c-0.03,0.05-0.05,0.07-0.08,0.07c-5.25,2.06-7.89-1.12-8.85-5.74c-0.19-0.9-0.33-1.8-0.22-2.73c0.59-4.71,5.64-6.05,9.08-3.95
		c3.46,2.11,3.62,5.21,3.12,8.65c-0.18,0.22-0.23,0.64-0.68,0.47c0.01-0.16,0.02-0.32,0.03-0.48
		C457.26,281.03,457.25,280.83,457.33,280.66z"/>
	<path style="fill-rule:evenodd;clip-rule:evenodd;fill:#EDAB73;" d="M458.53,290.81c1.28-0.35,2.6-0.21,3.9-0.26
		c0.86-0.04,1.74-0.27,2.05-1.16c0.31-0.88-0.42-1.37-1.06-1.77c-1.51-0.94-2.57-2.26-3.42-3.79c0.3-0.44,0.81-0.11,1.18-0.32
		c0.36,1.67,1.67,2.52,2.9,3.47c0.76,0.58,1.84,1.14,1.54,2.3c-0.32,1.26-1.35,1.77-2.64,2.05c-1.08,0.23-2.23-0.12-3.24,0.46
		c-0.08-0.02-0.15-0.05-0.23-0.07c-0.09-0.06-0.17-0.12-0.26-0.18C459.02,291.29,458.77,291.05,458.53,290.81z"/>
	<path style="fill-rule:evenodd;clip-rule:evenodd;fill:#6E5597;" d="M456.85,283.58c0.08,0.18,0.17,0.36,0.25,0.54
		c-0.06,0.58-0.35,0.91-0.95,0.94c-0.16-0.14-0.32-0.28-0.47-0.43c-0.07-0.12-0.22-0.17-0.22-0.33c0.4-0.3,0.79-0.6,1.19-0.9
		C456.74,283.43,456.81,283.49,456.85,283.58z"/>
	<path style="fill-rule:evenodd;clip-rule:evenodd;fill:#D591AE;" d="M457.14,281.67c0.23-0.16,0.45-0.32,0.68-0.47
		c-0.01,0.31-0.02,0.61-0.03,0.92c-0.13,0.31-0.28,0.56-0.65,0.25C457.14,282.14,457.14,281.91,457.14,281.67z"/>
	<path style="fill-rule:evenodd;clip-rule:evenodd;fill:#E0A8C0;" d="M456.15,285.05c0.32-0.31,0.63-0.62,0.95-0.94
		c0.47,0.83-0.49,0.88-0.77,1.27C456.2,285.57,456.22,285.17,456.15,285.05z"/>
	<path style="fill-rule:evenodd;clip-rule:evenodd;fill:#20151A;" d="M449.2,283.83c-0.41-0.39-0.82-0.79-1.23-1.18
		c0.1-0.11,0.21-0.13,0.32-0.04c0.39,0.33,0.77,0.65,1.16,0.98C449.37,283.67,449.29,283.75,449.2,283.83z"/>
	<path style="fill-rule:evenodd;clip-rule:evenodd;fill:#281A1F;" d="M453.51,272.6c0.57,0.03,1.05,0.26,1.44,0.68
		c-0.07,0.06-0.14,0.12-0.21,0.17c-0.33-0.13-0.66-0.26-0.99-0.39c-0.14-0.03-0.24-0.11-0.31-0.23
		C453.42,272.74,453.44,272.66,453.51,272.6z"/>
	<path style="fill-rule:evenodd;clip-rule:evenodd;fill:#593B47;" d="M457.14,282.37c0.22-0.08,0.43-0.17,0.65-0.25
		c0.07,0.34-0.04,0.62-0.4,0.66C457.16,282.8,457.13,282.57,457.14,282.37z"/>
	<path style="fill-rule:evenodd;clip-rule:evenodd;fill:#A57187;" d="M454.69,284.98c0.01-0.08,0.02-0.16,0.03-0.24
		c0.17-0.12,0.34-0.24,0.51-0.37c0.1,0.06,0.25,0.08,0.26,0.24C455.22,284.73,454.96,284.86,454.69,284.98z"/>
	<path style="fill-rule:evenodd;clip-rule:evenodd;fill:#E8A8C4;" d="M455.49,284.61c-0.09-0.08-0.17-0.16-0.26-0.24
		c0.07-0.04,0.14-0.07,0.22-0.08c0.08,0.11,0.15,0.22,0.23,0.33C455.61,284.61,455.55,284.61,455.49,284.61z"/>
	<path style="fill-rule:evenodd;clip-rule:evenodd;fill:#D591AE;" d="M457.33,280.66c0.06,0.21,0.03,0.4-0.16,0.54
		C457.22,281.02,457.27,280.84,457.33,280.66z"/>
	<path style="fill-rule:evenodd;clip-rule:evenodd;fill:#C7C3C4;" d="M457.17,286.06c-0.01-0.07-0.02-0.14-0.03-0.2
		c0.05,0.01,0.1,0.01,0.14,0.02c-0.05,0.05-0.09,0.11-0.14,0.16L457.17,286.06z"/>
	<path style="fill-rule:evenodd;clip-rule:evenodd;fill:#C7C3C4;" d="M457.1,286.24c-0.08-0.06-0.16-0.12-0.24-0.18
		c0.1,0,0.21,0,0.31,0.01c0,0-0.02-0.03-0.02-0.02C457.12,286.1,457.11,286.17,457.1,286.24z"/>
	<path style="fill-rule:evenodd;clip-rule:evenodd;fill:#C7C3C4;" d="M456.85,283.58c-0.07-0.06-0.14-0.13-0.21-0.19
		c0.08,0,0.16-0.01,0.24-0.02l-0.02-0.02C456.88,283.43,456.88,283.51,456.85,283.58z"/>
	<path style="fill-rule:evenodd;clip-rule:evenodd;fill:#898586;" d="M456.88,283.38c0.03-0.07,0.07-0.13,0.1-0.2
		c0.17,0.19-0.04,0.14-0.11,0.18L456.88,283.38z"/>
	<path style="fill-rule:evenodd;clip-rule:evenodd;fill:#DC975B;" d="M459.26,291.53c0.09,0.06,0.17,0.12,0.26,0.18
		C459.43,291.66,459.34,291.6,459.26,291.53z"/>
	<path style="fill-rule:evenodd;clip-rule:evenodd;fill:#EDAB73;" d="M459.51,284.32c-0.06,0.08-0.12,0.15-0.17,0.23
		C459.39,284.47,459.45,284.39,459.51,284.32z"/>
	<path style="fill-rule:evenodd;clip-rule:evenodd;fill:#FEFEFE;" d="M458.66,281.55c-0.09,0.01-0.18,0.02-0.27,0.04
		c0-0.04,0.01-0.07,0.01-0.11c0.09,0.03,0.18,0.05,0.27,0.08C458.66,281.57,458.66,281.55,458.66,281.55z"/>
	<path style="fill-rule:evenodd;clip-rule:evenodd;fill:#CB588A;" d="M499.84,280.24c0.33,0.03,0.71-0.1,0.96,0.24
		c-0.91,0.21-1.84,0.37-2.74,0.65c-1.59,0.5-3.02,0.38-4.22-0.89c-0.05-0.02-0.09-0.05-0.14-0.07c-0.17-0.13-0.3-0.3-0.43-0.47
		c-0.07-0.08-0.13-0.17-0.19-0.26c-0.77-0.86-1.36-1.97-2.72-2.07c-0.98-0.19-1.98-0.28-2.96-0.42c-1.01-0.15-2.06-0.28-2.69-1.27
		c0.16-0.24,0.32-0.48,0.48-0.71c1.57,0.59,3.21,0.78,4.86,0.95c0.99,0.1,1.81,0.56,2.34,1.45c0.63,0.82,1.21,1.68,1.89,2.45
		c0.75,0.85,1.67,1.3,2.87,0.97C498.04,280.55,498.94,280.42,499.84,280.24z"/>
	<path style="fill-rule:evenodd;clip-rule:evenodd;fill:#B84175;" d="M484.72,275.68c1.83,1.19,4.02,0.88,6,1.44
		c1.14,0.51,1.84,1.5,2.64,2.4l0,0c0.18,0.23,0.29,0.5,0.48,0.72l0,0c0.15,0.99,1.16,1.22,1.68,1.88c-0.04,0.27-0.23,0.39-0.46,0.46
		c-1.21-0.03-1.43-1.12-1.99-1.85c-0.09-0.13-0.17-0.27-0.25-0.41c-0.06-0.09-0.12-0.17-0.18-0.26c-0.07-0.08-0.13-0.17-0.19-0.26
		c-0.07-0.09-0.13-0.18-0.18-0.27c-0.95-1.3-2.22-1.83-3.83-1.57c-0.77-0.06-1.6,0.23-2.28-0.37c-0.56-0.68-1.29-0.95-2.15-0.95
		c0.17-0.25,0.35-0.49,0.52-0.74C484.59,275.82,484.65,275.75,484.72,275.68L484.72,275.68z"/>
	<path style="fill-rule:evenodd;clip-rule:evenodd;fill:#DB6C9D;" d="M492.4,277.36c-1.28-1.25-2.97-1.17-4.56-1.44
		c-0.94-0.16-1.9-0.27-2.64-0.96c0.15-0.17,0.3-0.35,0.45-0.52c0.75,0.96,1.84,0.94,2.89,0.99c1.02,0.04,2.05,0.04,2.9,0.73
		c0.13,0.14,0.35,0.1,0.48,0.24l0,0c0.08,0.08,0.16,0.16,0.24,0.24v0c0.08,0.08,0.15,0.17,0.24,0.24v0
		C492.4,277.04,492.4,277.2,492.4,277.36z"/>
	<path style="fill-rule:evenodd;clip-rule:evenodd;fill:#CB588A;" d="M484.72,275.68c-0.06,0.07-0.13,0.14-0.19,0.21
		C484.59,275.82,484.66,275.75,484.72,275.68z"/>
	<path style="fill-rule:evenodd;clip-rule:evenodd;fill:#2F2C2E;" d="M467.21,304.51c0.31-0.35,0.62-0.71,0.96-0.03
		c0.13,0.16,0.13,0.31,0.01,0.47c-0.09,0.3-0.15,0.73-0.55,0.64C467.06,305.47,467.24,304.92,467.21,304.51z"/>
	<path style="fill-rule:evenodd;clip-rule:evenodd;fill:#81619B;" d="M468.19,304.95c0-0.16-0.01-0.32-0.01-0.47
		c0.3,0.08,0.6,0.15,0.9,0.23c0.04,0.32,0.07,0.65,0.11,0.97C468.82,305.48,468.8,304.8,468.19,304.95z"/>
	<path style="fill-rule:evenodd;clip-rule:evenodd;fill:#F06EA8;" d="M499.95,274.24c-5.03,0-10.01-3.78-10.99-8.65
		c-0.76-3.77-0.3-7.4,2.89-10.1c2.41-2.04,5.07-2.17,7.74-0.55c3.31,2.01,5.91,4.78,7.44,8.33
		C509.33,268.59,505.6,274.24,499.95,274.24z"/>
	<path style="fill-rule:evenodd;clip-rule:evenodd;fill:#7C573E;" d="M506.11,309.51c1.35-0.51,2.6-0.2,3.8,0.49
		C508.64,309.83,507.37,309.67,506.11,309.51z"/>
	<path style="fill-rule:evenodd;clip-rule:evenodd;fill:#79563D;" d="M502.78,310.98c0.94,0.14,2-0.42,2.82,0.47
		C504.64,311.39,503.63,311.66,502.78,310.98z"/>
	<path style="fill-rule:evenodd;clip-rule:evenodd;fill:#7B573E;" d="M512.06,309.53c-0.33,0.4-0.79,0.16-1.19,0.26
		c-0.16-0.01-0.31-0.01-0.47-0.02c-0.48-0.24-0.95-0.48-1.43-0.72C510,309.21,511.03,309.37,512.06,309.53z"/>
	<path style="fill-rule:evenodd;clip-rule:evenodd;fill:#78553D;" d="M512.19,311.99c-0.55-0.15-1.16-0.31-1.78-0.47
		c0.63-0.23,1.23-0.01,1.83,0.13c0.26,0.06,0.52,0.1,0.78,0.14C512.77,311.86,512.52,311.92,512.19,311.99z"/>
	<path style="fill-rule:evenodd;clip-rule:evenodd;fill:#7C583F;" d="M507.74,310.97c-0.77,0.41-1.48,0.35-2.14-0.24
		C506.32,310.8,507.03,310.89,507.74,310.97z"/>
	<path style="fill-rule:evenodd;clip-rule:evenodd;fill:#684B36;" d="M505.12,313.12c0.55-0.47,1.19-0.18,1.79-0.21
		c0.02,0,0.04,0.09,0.06,0.15C506.35,313.08,505.74,313.1,505.12,313.12L505.12,313.12z"/>
	<path style="fill-rule:evenodd;clip-rule:evenodd;fill:#74523B;" d="M509.81,313.39c-0.16-0.04-0.38-0.1-0.59-0.16
		c0.27-0.04,0.54-0.1,0.81-0.11c0.19-0.01,0.38,0.05,0.58,0.08C510.41,313.51,510.11,313.29,509.81,313.39z"/>
	<path style="fill-rule:evenodd;clip-rule:evenodd;fill:#78553C;" d="M508,311.43c0.08-0.08,0.16-0.17,0.25-0.25
		c0.46,0.04,0.92,0.07,1.38,0.11C509.11,311.62,508.54,311.37,508,311.43z"/>
	<path style="fill-rule:evenodd;clip-rule:evenodd;fill:#8F694F;" d="M503.17,310.49c-0.14,0.07-0.28,0.14-0.42,0.21
		C502.81,310.46,503,310.5,503.17,310.49z"/>
	<path style="fill-rule:evenodd;clip-rule:evenodd;fill:#4E3725;" d="M510.89,310c0,0.07,0,0.15,0.01,0.22
		C510.73,310.16,510.72,310.09,510.89,310z"/>
	<path style="fill-rule:evenodd;clip-rule:evenodd;fill:#010001;" d="M495.27,300.4c-0.16,0.1-0.32,0.2-0.48,0.3
		c-0.09,0.04-0.18,0.1-0.25,0.17c-1.02,0.27-2.02,0.63-3.11,0.45c-0.4-0.13-0.8-0.27-1.21-0.41c-0.68,0.03-1.25-0.24-1.71-0.71
		c-1.27-1.29-2.78-2.46-2.46-4.6c-0.08-1.29,0.22-2.45,1.22-3.35c0.26-0.22,0.56-0.39,0.85-0.57c0.09-0.06,0.19-0.12,0.29-0.17
		c0.14-0.08,0.29-0.16,0.44-0.23c0.2-0.11,0.41-0.2,0.63-0.27c0.63-0.19,1.28-0.32,1.94-0.31c0.55,0.01,1.08,0.12,1.61,0.27
		c0.29,0.08,0.56,0.2,0.83,0.32c0.8,0.51,1.85,0.75,2.15,1.84c0.31,0.58,0.63,1.15,0.94,1.73
		C497.28,296.99,496.93,298.89,495.27,300.4z"/>
	<path style="fill-rule:evenodd;clip-rule:evenodd;fill:#020001;" d="M494.99,282.38c0.18-0.09,0.36-0.18,0.54-0.26
		c0.4-0.1,0.8-0.19,1.19-0.29c0.77,0.04,1.54,0.09,2.32,0.13c3.31,0.62,5.46,4.1,4.38,7.07c-0.11,0.31-0.26,0.58-0.52,0.78
		c-0.94,1.47-2.38,1.92-4.02,1.99c-1.6,0.44-2.87-0.31-4.09-1.18c-0.32-0.23-0.58-0.55-0.87-0.82c-0.74-0.82-1.16-1.78-1.34-2.86
		c-0.13-1.31,0.22-2.49,0.97-3.56C493.9,282.86,494.43,282.6,494.99,282.38z"/>
	<path style="fill-rule:evenodd;clip-rule:evenodd;fill:#A42760;" d="M502.89,289.81c1.21-2.92,0.19-5.98-3.86-7.85
		c2.11-0.39,3.84,0.46,4.58,2.26C504.61,286.63,504.33,288.8,502.89,289.81z"/>
	<path style="fill-rule:evenodd;clip-rule:evenodd;fill:#AA2B65;" d="M494.09,289.57c1.31,1.35,2.92,2.06,4.78,2.23
		c-0.78,0.82-2.33,0-2.85,1.35c-0.61-0.69-1.4-1.15-2.17-1.63C494.05,290.88,493.63,290.17,494.09,289.57z"/>
	<path style="fill-rule:evenodd;clip-rule:evenodd;fill:#725139;" d="M507.99,308.8c-0.56,0.37-1.11,0.37-1.66,0
		C506.88,308.8,507.43,308.8,507.99,308.8z"/>
	<path style="fill-rule:evenodd;clip-rule:evenodd;" d="M508.95,283.36c0.09,0,0.17,0,0.26,0c0,0.08,0,0.17,0,0.25
		c-0.08,0-0.17,0-0.25,0C508.95,283.52,508.95,283.44,508.95,283.36z"/>
	<path style="fill-rule:evenodd;clip-rule:evenodd;fill:#76533C;" d="M511.5,306.28c-0.48,0.07-0.62,0.12-0.75,0.11
		c-0.11-0.01-0.21-0.1-0.32-0.15c0.11-0.03,0.21-0.07,0.32-0.07C510.88,306.17,511.02,306.21,511.5,306.28z"/>
	<path style="fill-rule:evenodd;clip-rule:evenodd;fill:#010001;" d="M476.32,292.72c0-0.34,0.05-0.7-0.25-0.96
		c-0.19-1.93,0.43-3.54,1.94-4.8c0.09-0.03,0.17-0.07,0.26-0.1c0.09-0.01,0.16-0.06,0.2-0.14c0.73-0.17,1.45-0.34,2.18-0.52
		c0.21-0.1,0.42-0.18,0.65-0.15c0.17,0.02,0.34,0.06,0.51,0.1c0.18,0.03,0.35,0.08,0.53,0.13c1.33,0.53,2.42,1.36,3.19,2.59
		c1.42,2.27,1.28,4.26-0.48,6.5c-1.27,0.91-2.66,1.14-4.16,0.75c-0.78-0.04-1.46-0.39-2.17-0.67c-0.39-0.29-0.78-0.57-1.17-0.86
		C477.14,293.97,476.73,293.34,476.32,292.72z"/>
	<path style="fill-rule:evenodd;clip-rule:evenodd;fill:#B6336F;" d="M480.88,296.12c1.42-0.01,2.85-0.02,4.02-1.03
		c0.65-0.28,1.08,0.03,1.46,0.51c-0.09,2.78,2,3.97,3.88,5.32c-1.92,0.56-3.11-0.05-3.85-1.86c-0.91-2.25-0.75-3.26-4.08-2.52
		C481.79,296.66,481.28,296.51,480.88,296.12z"/>
	<path style="fill-rule:evenodd;clip-rule:evenodd;fill:#FED578;" d="M489.17,308.09c-0.7,0.02-1.33-0.19-1.29-1.01
		c0.04-0.7,0.56-1.16,1.3-1.14c0.73,0.02,1.23,0.47,1.25,1.19C490.45,307.87,489.87,308.1,489.17,308.09z"/>
	<path style="fill-rule:evenodd;clip-rule:evenodd;fill:#020101;" d="M486.16,277.58c0.85,0.02,1.7,0.04,2.55,0.06
		c0.39,0.11,0.81,0.07,1.18,0.27c0.65,0.36,1.16,0.87,1.64,1.42c0.94,1.36,1.19,2.86,0.85,4.45c-0.16,0.73-0.34,1.51-1.27,1.7
		c-0.13,0-0.25-0.03-0.36-0.09c-0.38-0.43-0.07-0.83,0.08-1.21c0.5-1.22,0.19-2.26-0.69-3.17c-0.79-0.82-1.72-1.42-2.82-1.72
		c-2.36-0.64-4.41,1.41-3.82,3.79c0.13,0.54,0.48,1.02,0.39,1.61c-0.04,0.12-0.12,0.2-0.22,0.27c-0.17,0.07-0.35,0.07-0.52,0.03
		c-0.11-0.04-0.2-0.11-0.28-0.2c-0.11-0.13-0.2-0.28-0.27-0.44c-0.14-0.31-0.22-0.63-0.08-0.96c-0.23-0.78-0.23-1.58-0.18-2.38
		c0.17-0.46,0.34-0.92,0.51-1.38C483.75,278.59,484.84,277.9,486.16,277.58z"/>
	<path style="fill-rule:evenodd;clip-rule:evenodd;fill:#BC4579;" d="M482.96,284.55c0.07,0.04,0.11,0.1,0.13,0.18
		c0.07,0.82-0.46,1.27-1.01,1.72c-0.16-0.02-0.32-0.04-0.49-0.07c-0.09-0.02-0.17-0.07-0.22-0.14c-0.24-0.01-0.49-0.03-0.73-0.04
		c0.88-0.78,1.39-1.8,1.88-2.84c0.09,0.32,0.19,0.64,0.28,0.96C482.88,284.39,482.93,284.46,482.96,284.55z"/>
	<path style="fill-rule:evenodd;clip-rule:evenodd;fill:#CB4A87;" d="M478.46,286.72c-0.07,0.05-0.14,0.09-0.2,0.14
		C478.33,286.81,478.4,286.77,478.46,286.72z"/>
	<path style="fill-rule:evenodd;clip-rule:evenodd;fill:#CB4D87;" d="M494.55,300.88c0.08-0.06,0.17-0.12,0.25-0.17
		C494.71,300.76,494.63,300.82,494.55,300.88z"/>
	<path style="fill-rule:evenodd;clip-rule:evenodd;fill:#D9719C;" d="M491.92,276.4c-0.16-0.08-0.32-0.16-0.48-0.24
		C491.6,276.24,491.76,276.32,491.92,276.4z"/>
	<path style="fill-rule:evenodd;clip-rule:evenodd;fill:#D9719C;" d="M492.16,276.64c-0.08-0.08-0.16-0.16-0.24-0.24
		C492,276.48,492.08,276.56,492.16,276.64z"/>
	<path style="fill-rule:evenodd;clip-rule:evenodd;fill:#D9719C;" d="M492.4,276.88c-0.08-0.08-0.16-0.16-0.24-0.24
		C492.24,276.72,492.32,276.8,492.4,276.88z"/>
	<path style="fill-rule:evenodd;clip-rule:evenodd;fill:#DAD8D4;" d="M497.21,309.07c-0.62-0.28-1.87,0.52-1.85-0.79
		c0.02-1.16,1.18-0.61,1.84-0.66c0.75-0.05,1.95-0.29,1.93,0.77C499.11,309.43,497.92,308.89,497.21,309.07z"/>
	<path style="fill-rule:evenodd;clip-rule:evenodd;fill:#E581AE;" d="M493.84,278.32c0.08,0.08,0.16,0.16,0.24,0.24
		C494,278.48,493.92,278.4,493.84,278.32z"/>
	<path style="fill-rule:evenodd;clip-rule:evenodd;fill:#E581AE;" d="M493.6,278.08c0.08,0.08,0.16,0.16,0.24,0.24
		C493.76,278.24,493.68,278.16,493.6,278.08z"/>
	<path style="fill-rule:evenodd;clip-rule:evenodd;fill:#E581AE;" d="M493.36,277.6c0.08,0.08,0.16,0.16,0.24,0.24
		C493.52,277.76,493.44,277.68,493.36,277.6z"/>
	<path style="fill-rule:evenodd;clip-rule:evenodd;fill:#010000;" d="M461.92,254.06c0.09-0.08,0.17-0.15,0.26-0.23
		c3.86,2.45,3.99,7.77,0.41,10.82c-1.53,1.3-3.14,2.1-5.08,2.39c-2.03,0.3-3.33-1.21-3.79-2.52c-0.93-2.63-1.92-5.49-0.15-8.27
		c0.07,0.25,0.14,0.5,0.21,0.75c0.25,0.24,0.24,0.54,0.21,0.85c-0.38,1.49-0.43,2.98-0.04,4.48c0.56,2.14,1.95,3.32,3.74,3.16
		c0.62-0.06,1.08-0.13,0.82-1.01c-0.24-0.82-0.55-1.35-1.35-1.67c-0.52-0.21-1.02-0.48-1.35-0.96c-0.23-0.33-0.44-0.72-0.15-1.1
		c0.3-0.4,0.71-0.48,1.15-0.17c0.1,0,0.09,0.16,0.2,0.15c0.02,0,0.02-0.06,0-0.06c-0.08-0.02-0.14-0.05-0.21-0.1
		c-1.05-0.92-0.8-0.88-0.19-2.15c0.59-1.25,2.05-0.79,2.57-1.82c1.23,0.58,0.98-0.44,1.16-1.04c0.12-0.4,0.45-0.67,0.9-0.67
		c0.51-0.01,0.68,0.38,0.78,0.77c0.28,1.08,0.72,2.14,0.65,3.28c-0.05,0.72,0.33,0.98,0.89,0.97c0.63-0.01,0.38-0.59,0.41-0.93
		c0.12-1.25-0.09-2.33-1.16-3.21C462.35,255.38,461.79,254.85,461.92,254.06z"/>
	<path style="fill-rule:evenodd;clip-rule:evenodd;fill:#F9B57F;" d="M469.13,269.18c0.58,0.12,1.27,0.18,1.89,0.4
		c1.39,0.49,1.99,1.9,1.44,3.16c-0.57,1.31-2.08,1.81-3.38,1.05c-0.54-0.31-1-0.78-1.47-1.19c-0.71-0.62-1.18-1.39-0.77-2.31
		C467.23,269.39,468.15,269.25,469.13,269.18z"/>
	<path style="fill-rule:evenodd;clip-rule:evenodd;fill:#C49067;" d="M468.88,274.48c-0.08-0.08-0.16-0.16-0.24-0.24
		C468.72,274.32,468.8,274.4,468.88,274.48z"/>
	<path style="fill-rule:evenodd;clip-rule:evenodd;fill:#F06DA7;" d="M457.13,260.79c-0.46,0.1-1.15-0.46-1.34,0.18
		c-0.17,0.58,0.36,1.05,0.94,1.3c0.32,0.14,0.63,0.3,0.95,0.44c0.59,0.24,2.52-0.51,0.96,1.31c-0.18,0.21,0.05,0.37,0.18,0.5
		c1.1,1.06,0.07,1.19-0.62,1.3c-1.99,0.34-3.36-0.43-4.19-2.42c-0.75-1.8-0.98-3.68-0.28-5.58c0.54-0.05,1.03-0.24,1.38-0.64
		c1.36-1.53,3.02-2.7,4.66-3.89c0.8,0.03,1.53,0.26,2.16,0.76c0.63,0.72,0.93,1.68,1.93,2.15c0.62,0.29,0.67,3.85,0.23,4.44
		c-0.19,0.25-0.32,0.18-0.44,0.01c-0.08-0.12-0.08-0.43-0.1-0.43c-2.44,0.16-0.57-1.9-1.34-2.66c-0.35-0.35-0.26-1.12-0.46-1.66
		c-0.11-0.3,0.21-1.08-0.63-0.79c-0.58,0.2-0.75,0.69-0.6,1.26c0.07,0.26,0.2,0.52,0.34,0.75c0.2,0.31,0.14,0.57-0.16,0.69
		c-0.31,0.13-0.35-0.2-0.44-0.4c-0.18-0.38-0.43-0.7-0.87-0.69c-0.52,0.01-0.27,0.47-0.36,0.73c-0.02,0.07-0.06,0.2-0.1,0.21
		c-0.8,0.14-1.96-0.28-1.91,1.2c-1.82,0.08-0.49,0.87-0.3,1.38c0.07,0.2,0.26,0.36,0.4,0.54L457.13,260.79z"/>
	<path style="fill-rule:evenodd;clip-rule:evenodd;fill:#EE549C;" d="M459.76,253.3c0.01,0.4-0.19,0.73-0.52,0.88
		c-1.65,0.75-2.74,2.16-4.03,3.34c-0.39,0.36-0.83,1-1.49,0.31c0.02-0.27,0.04-0.55,0.06-0.83c1.04-2.38,2.68-3.93,5.45-3.88
		C459.41,253.13,459.59,253.24,459.76,253.3z"/>
	<path style="fill-rule:evenodd;clip-rule:evenodd;fill:#010001;" d="M449.7,276.44c0.31,0.03,0.63,0.02,0.92,0.1
		c0.42,0.12,0.68,0.31,0.55-0.43c-0.1-0.61,0.38-0.8,0.93-0.43c0.32,0.22,0.62,0.47,0.93,0.7l-0.01,0.01
		c0.08-0.54-0.6-1.39,0.17-1.55c0.71-0.15,0.88,0.76,1.1,1.4c0.15,0.43,0.22,0.85,0.18,1.27c-0.08,0.73,0.27,1.02,0.88,0.78
		c1.28-0.5,0.95,0.64,0.92,1.02c-0.04,0.69-0.45,1.32-0.93,1.88c-0.31,0.36-0.5,0.85-0.86,1.12c-0.43,0.32,0.15,1.38-0.66,1.13
		c-0.71-0.22-1.08-1.12-0.92-1.87c0.14-0.67,0.12-0.55-0.39-0.31c-0.99,0.46-2.09,0.11-3.15,0.35c-0.59,0.14-0.66-0.72-0.64-1.28
		c0.03-0.84,0.62-0.51,1.04-0.48c0.18,0.01,0.36,0.08,0.53,0.12c-0.06-0.13-0.08-0.33-0.18-0.38c-1.1-0.5-1.33-1.13-0.49-2.11
		c0.18-0.21,0.06-0.69,0.08-1.05L449.7,276.44z"/>
	<path style="fill-rule:evenodd;clip-rule:evenodd;fill:#EE579E;" d="M453.51,272.77c0.08,0.1,0.16,0.19,0.24,0.29
		c-0.14,0.68-0.75,0.56-1.2,0.75c-1.24,0.54-2.94,0.63-2.85,2.62l0.01-0.02c-0.85,0.38-1.34,1.78-2.63,0.94
		c-0.53-0.51-0.22-1.04-0.01-1.53C448.21,273.2,450.63,272.06,453.51,272.77z"/>
	<path style="fill-rule:evenodd;clip-rule:evenodd;fill:#0A0506;" d="M453.51,272.77c-1.88-0.09-3.7,0.04-5.09,1.56
		c-0.79,0.86-1.35,1.81-1.34,3.03c-0.47,1.95,0.28,3.62,1.22,5.25c-0.11,0.01-0.22,0.03-0.32,0.04c-2.27-2.61-2.47-8.78,1.61-10.17
		c1.37-0.47,2.63-0.42,3.92,0.12C453.51,272.66,453.51,272.72,453.51,272.77z"/>
	<path style="fill-rule:evenodd;clip-rule:evenodd;fill:#C34A80;" d="M493.36,279.52c-0.88-0.8-1.76-1.6-2.64-2.4
		C492.06,277.42,492.74,278.43,493.36,279.52z"/>
	<path style="fill-rule:evenodd;clip-rule:evenodd;fill:#C34A80;" d="M493.84,280.24c-0.32-0.13-0.48-0.37-0.48-0.72
		C493.68,279.66,493.83,279.9,493.84,280.24z"/>
	<path style="fill-rule:evenodd;clip-rule:evenodd;fill:#A92F66;" d="M491.15,279.3c-0.47-0.4-0.94-0.8-1.41-1.2
		c-0.01-0.59,0.35-0.35,0.61-0.25c0.99,0.36,1.68,1.09,2.29,1.91v0c0.08,0.08,0.16,0.16,0.24,0.24h0c0.14,0.13,0.1,0.35,0.24,0.48
		c0.78,0.48,0.75,1.75,1.86,1.9c-0.38,0.34-0.75,0.68-1.13,1.02c-0.61-0.22-0.66-0.82-0.89-1.3
		C492.47,281.1,492.18,279.97,491.15,279.3z"/>
	<path style="fill-rule:evenodd;clip-rule:evenodd;fill:#AA3167;" d="M492.64,279.76c-0.59-0.49-1.15-1.03-1.79-1.46
		c-0.29-0.19-0.65-0.67-1.11-0.19c-0.35-0.15-0.69-0.31-1.04-0.46C490.73,277.53,491.91,278.16,492.64,279.76z"/>
	<path style="fill-rule:evenodd;clip-rule:evenodd;fill:#AA3167;" d="M493.12,280.48c-0.08-0.16-0.16-0.32-0.24-0.48
		C492.96,280.16,493.04,280.32,493.12,280.48z"/>
	<path style="fill-rule:evenodd;clip-rule:evenodd;fill:#AA3167;" d="M492.88,280c-0.08-0.08-0.16-0.16-0.24-0.24
		C492.72,279.84,492.8,279.92,492.88,280z"/>
	<path style="fill-rule:evenodd;clip-rule:evenodd;fill:#F17EB1;" d="M499.8,273.52c-6.51,0-11.25-5.64-10.33-12.11
		c0.46-3.25,1.83-5.67,5.1-6.62c2.3-0.67,4.31,0.08,6.07,1.61c2.63,2.28,5.26,4.58,6.17,8.14
		C508.12,269.69,504.39,273.84,499.8,273.52z"/>
	<path style="fill-rule:evenodd;clip-rule:evenodd;fill:#B57074;" d="M495.31,295.35c0.62,1.18,0.87,2.49,0.08,3.56
		c-1.06,1.44-2.74,1.5-4.35,1.13c-2.01-0.46-3.34-1.79-3.82-3.78c-0.3-1.24,0.03-2.43,1.04-3.33c1.2-1.07,2.52-1.08,3.91-0.44
		c-0.3,0.51-0.85,0.56-1.33,0.73c-1.23,0.42-2.14,1.55-2.16,2.72c-0.02,1.05,0.88,2.35,1.87,2.7c1.3,0.46,2.61,0.1,3.46-0.92
		c0.35-0.43,0.43-0.92,0.5-1.44C494.56,295.81,494.61,295.27,495.31,295.35z"/>
	<path style="fill-rule:evenodd;clip-rule:evenodd;fill:#A72963;" d="M482.08,286.45c0.34-0.57,0.67-1.14,1.01-1.72
		c0.13,0.03,0.25,0.06,0.37,0.09c1.1,0.71,2.3,1.27,3.28,2.17c-0.46,1.34-0.09,2.58,0.4,3.82c0.19,0.48,0.49,0.92,0.5,1.46
		c-0.88,0.93-1.41,2.01-1.29,3.33c-0.49-0.17-0.97-0.34-1.46-0.51C487.24,291.78,486.25,288.76,482.08,286.45z"/>
	<path style="fill-rule:evenodd;clip-rule:evenodd;fill:#C8797D;" d="M495.31,295.35c-0.44,0.19-0.48,0.56-0.51,0.99
		c-0.13,1.65-1.41,2.83-3.07,2.86c-1.63,0.03-3.12-1.26-3.38-2.94c-0.2-1.32,0.93-2.93,2.34-3.33c0.5-0.14,0.99-0.3,1.48-0.45
		C493.66,292.94,494.74,293.86,495.31,295.35z"/>
	<path style="fill-rule:evenodd;clip-rule:evenodd;fill:#DA759F;" d="M491.43,291c-0.72,0.09-1.43,0.19-2.15,0.29
		c-2-0.58-2.57-2.24-1.43-4.22c0.38-0.42,0.93-0.45,1.43-0.58c1.6,0,3.04,1.31,3.09,2.85C492.4,290.06,492.14,290.67,491.43,291z"/>
	<path style="fill-rule:evenodd;clip-rule:evenodd;fill:#C4487F;" d="M491.43,291c1.16-2.13,0.23-4.04-2.07-4.28
		c-0.25-0.31,0.07-0.34,0.22-0.46c0.22-0.08,0.44-0.13,0.67-0.15c0.12,0,0.24,0.01,0.35,0.04c1.41,0.67,2.37,1.73,2.83,3.22
		c0.21,0.67,0.28,1.34-0.33,1.88C492.55,291.17,491.99,291.08,491.43,291z"/>
	<path style="fill-rule:evenodd;clip-rule:evenodd;fill:#B1376D;" d="M493.12,291.25c0.61-2.25-0.84-3.86-2.82-5.01
		c-0.2-0.41,0.11-0.51,0.39-0.62c0.89,0.18,1.55,0.73,2.17,1.34c0.3,0.92,0.62,1.83,1.24,2.6c-0.24,0.63,0.86,1.42-0.24,1.95
		C493.61,291.43,493.36,291.34,493.12,291.25z"/>
	<path style="fill-rule:evenodd;clip-rule:evenodd;fill:#B94176;" d="M487.65,292.28c-1.22-1.28-1.77-4.01-1.07-5.33
		c0.34-0.19,0.59-0.02,0.83,0.21c0.14,0.33-0.07,0.61-0.1,0.92c-0.1,0.92-0.06,1.81,0.64,2.55c0.27,0.29,0.71,0.6,0.38,1.12
		C488.1,291.93,487.87,292.1,487.65,292.28z"/>
	<path style="fill-rule:evenodd;clip-rule:evenodd;fill:#CB5B8B;" d="M488.32,291.75c-0.26-0.85-1.16-1.29-1.29-2.32
		c-0.1-0.84-0.07-1.54,0.31-2.26c0.23-0.19,0.47-0.2,0.71-0.02c-0.87,2.09-0.74,2.53,1.23,4.13c-0.16,0.08-0.32,0.16-0.48,0.24
		c-0.07,0.07-0.15,0.13-0.25,0.16C488.48,291.71,488.4,291.73,488.32,291.75z"/>
	<path style="fill-rule:evenodd;clip-rule:evenodd;fill:#B94176;" d="M488.56,291.69c0.08-0.05,0.16-0.11,0.25-0.16
		C488.73,291.58,488.64,291.63,488.56,291.69z"/>
	<path style="fill-rule:evenodd;clip-rule:evenodd;fill:#F8B9BD;" d="M499.02,290.81c-2.97-0.01-5.21-2.03-5.18-4.67
		c0.02-1.78,1.48-3.07,3.4-3.02c2.48,0.07,5.29,2.5,5.22,4.63C502.41,289.21,501.49,290.95,499.02,290.81z"/>
	<path style="fill-rule:evenodd;clip-rule:evenodd;fill:#9C2259;" d="M492.85,286.96c-0.83-0.17-1.42-0.74-2.06-1.22
		c-0.25-0.32,0.06-0.34,0.23-0.43c1.46-1.03,1.22-2.53,1.01-3.95c-0.11-0.71-0.57-1.37-0.87-2.06c1.3,0.24,1.45,1.46,1.97,2.34
		c0.32,0.54,0.49,1.17,0.73,1.76C493.22,284.51,492.78,285.66,492.85,286.96z"/>
	<path style="fill-rule:evenodd;clip-rule:evenodd;fill:#B52828;" d="M478.44,293.66c-0.23-0.39-0.47-0.78-0.7-1.16
		c-0.07-0.08-0.13-0.17-0.19-0.26c-0.1-0.4-0.19-0.79-0.29-1.19c1.15-2.72,2.16-3.27,5-2.75c0.13-0.01,0.24,0.03,0.33,0.13
		c0.59,0.86,1.12,1.75,1.19,2.83c0.06,0.09,0.12,0.18,0.17,0.26c0.02,0.22,0.04,0.45,0.06,0.67c-1.02,1.7-2.45,2.6-4.5,2.25
		c-0.11,0.03-0.23,0.02-0.33-0.02c-0.16-0.16-0.32-0.32-0.48-0.48C478.63,293.83,478.54,293.75,478.44,293.66z"/>
	<path style="fill-rule:evenodd;clip-rule:evenodd;fill:#A52423;" d="M482.32,288.4c-2.3-0.35-3.91,0.59-4.94,2.63
		c-0.01,0.02-0.07,0.02-0.11,0.02c-0.52-0.94-0.18-1.8,0.28-2.64c0.07-0.09,0.13-0.18,0.2-0.27c0.08-0.08,0.16-0.16,0.24-0.24
		c0.09-0.07,0.18-0.13,0.27-0.2c0.23-0.09,0.47-0.19,0.7-0.28c0.08-0.07,0.17-0.13,0.25-0.19c0.91-0.05,1.84-0.2,2.63,0.47
		c0.09,0.07,0.18,0.13,0.27,0.2c0.08,0.08,0.16,0.16,0.24,0.24c0.06,0.06,0.07,0.12,0.05,0.17
		C482.36,288.37,482.34,288.4,482.32,288.4z"/>
	<path style="fill-rule:evenodd;clip-rule:evenodd;fill:#A22422;" d="M479.44,294.4c0.35-0.38,0.81-0.22,1.22-0.24
		c1.09-0.04,1.99-0.41,2.5-1.45c0.18-0.37,0.34-0.73,0.86-0.53l-0.01,0.02c0.06,0.09,0.13,0.18,0.19,0.27
		c-0.02,0.75,0.72,1.65-0.43,2.17c-0.08,0.07-0.17,0.13-0.26,0.19c-0.23,0.1-0.47,0.19-0.7,0.29c-0.08,0.06-0.17,0.13-0.26,0.19
		c-0.73-0.01-1.49,0.28-2.18-0.21c-0.07-0.07-0.15-0.12-0.23-0.16c-0.04-0.03-0.07-0.06-0.11-0.09c-0.11-0.1-0.25-0.13-0.38-0.2
		l0.01,0c-0.05-0.07-0.11-0.12-0.18-0.15C479.47,294.48,479.45,294.44,479.44,294.4z"/>
	<path style="fill-rule:evenodd;clip-rule:evenodd;fill:#625D5E;" d="M485.16,291.95c-0.03,0.06-0.06,0.13-0.09,0.19
		c-0.02-0.03-0.07-0.07-0.07-0.09c0.02-0.07,0.05-0.13,0.08-0.2C485.11,291.88,485.14,291.91,485.16,291.95z"/>
	<path style="fill-rule:evenodd;clip-rule:evenodd;fill:#B52828;" d="M479.66,294.66c0.17,0.07,0.33,0.15,0.5,0.22
		c-0.08,0.09-0.16,0.09-0.25,0.01C479.83,294.82,479.74,294.74,479.66,294.66z"/>
	<path style="fill-rule:evenodd;clip-rule:evenodd;fill:#A72963;" d="M481.37,286.24c0.07,0.05,0.15,0.09,0.22,0.14
		C481.52,286.34,481.44,286.29,481.37,286.24z"/>
	<path style="fill-rule:evenodd;clip-rule:evenodd;fill:#977E77;" d="M479.2,287.24c-0.08,0.06-0.17,0.12-0.25,0.19
		C479.04,287.36,479.12,287.3,479.2,287.24z"/>
	<path style="fill-rule:evenodd;clip-rule:evenodd;fill:#977E77;" d="M478.25,287.71c-0.09,0.07-0.18,0.13-0.27,0.2
		C478.07,287.84,478.16,287.77,478.25,287.71z"/>
	<path style="fill-rule:evenodd;clip-rule:evenodd;fill:#977E77;" d="M477.75,288.14c-0.07,0.09-0.13,0.18-0.2,0.27
		C477.61,288.32,477.68,288.23,477.75,288.14z"/>
	<path style="fill-rule:evenodd;clip-rule:evenodd;fill:#9B7C73;" d="M482.32,288.4c0-0.08,0.01-0.17,0.02-0.25
		c0.09,0.09,0.17,0.19,0.26,0.28C482.5,288.42,482.41,288.41,482.32,288.4z"/>
	<path style="fill-rule:evenodd;clip-rule:evenodd;fill:#949091;" d="M484.68,290.22c-0.03,0.02-0.06,0.05-0.08,0.08
		c-0.02-0.03-0.07-0.06-0.07-0.09c0-0.03,0.05-0.05,0.07-0.08C484.63,290.16,484.65,290.19,484.68,290.22z"/>
	<path style="fill-rule:evenodd;clip-rule:evenodd;fill:#D3D0D0;" d="M484.8,290.86c0.03,0,0.06-0.01,0.07,0
		c0.02,0.02,0.03,0.05,0.04,0.08c-0.05,0-0.1,0-0.15,0C484.78,290.91,484.79,290.88,484.8,290.86z"/>
	<path style="fill-rule:evenodd;clip-rule:evenodd;fill:#9E7B72;" d="M483.96,291.52c-0.06-0.09-0.12-0.18-0.17-0.26
		C483.84,291.35,483.9,291.44,483.96,291.52z"/>
	<path style="fill-rule:evenodd;clip-rule:evenodd;fill:#9E7B71;" d="M477.56,292.24c0.06,0.09,0.12,0.17,0.19,0.26
		C477.68,292.41,477.62,292.32,477.56,292.24z"/>
	<path style="fill-rule:evenodd;clip-rule:evenodd;fill:#9A7C74;" d="M484.21,292.48c-0.06-0.09-0.13-0.18-0.19-0.27
		C484.08,292.3,484.14,292.39,484.21,292.48z"/>
	<path style="fill-rule:evenodd;clip-rule:evenodd;fill:#9A7C74;" d="M482.1,287.9c-0.09-0.07-0.18-0.13-0.27-0.2
		C481.92,287.77,482.01,287.84,482.1,287.9z"/>
	<path style="fill-rule:evenodd;clip-rule:evenodd;fill:#9E7B71;" d="M478.44,293.66c0.09,0.09,0.18,0.18,0.26,0.28
		C478.62,293.84,478.53,293.75,478.44,293.66z"/>
	<path style="fill-rule:evenodd;clip-rule:evenodd;fill:#9B7C73;" d="M479.19,294.42c0.08,0,0.17-0.01,0.25-0.01l0,0
		c0.05,0.04,0.07,0.09,0.06,0.15c-0.01,0.06-0.02,0.08-0.03,0.08C479.38,294.56,479.28,294.49,479.19,294.42z"/>
	<path style="fill-rule:evenodd;clip-rule:evenodd;fill:#B52828;" d="M479.47,294.63c-0.02-0.08-0.03-0.15-0.04-0.23
		c0.08,0.09,0.15,0.18,0.23,0.27l-0.1,0.01L479.47,294.63z"/>
	<path style="fill-rule:evenodd;clip-rule:evenodd;fill:#967D77;" d="M483.52,294.84c0.09-0.06,0.17-0.13,0.26-0.19
		C483.69,294.72,483.6,294.78,483.52,294.84z"/>
	<path style="fill-rule:evenodd;clip-rule:evenodd;fill:#997D75;" d="M479.91,294.89c0.08,0,0.16-0.01,0.25-0.01h0l0.08,0.09
		l-0.06,0.1C480.08,295.01,480,294.95,479.91,294.89z"/>
	<path style="fill-rule:evenodd;clip-rule:evenodd;fill:#B52828;" d="M480.17,295.08c-0.01-0.06-0.01-0.13-0.01-0.19
		c0.07,0.08,0.15,0.16,0.22,0.23C480.31,295.12,480.24,295.1,480.17,295.08z"/>
	<path style="fill-rule:evenodd;clip-rule:evenodd;fill:#977E77;" d="M482.56,295.33c0.09-0.06,0.17-0.13,0.26-0.19
		C482.73,295.2,482.64,295.26,482.56,295.33z"/>
	<path style="fill-rule:evenodd;clip-rule:evenodd;fill:#F06067;" d="M483.77,284.79c-0.43-1.24-1.09-2.43-0.5-3.84
		c0.73-1.76,2.42-2.59,4.24-1.99c0.95,0.31,1.81,0.77,2.55,1.45c1.65,1.54,1.76,2.39,0.65,4.84
		C488.92,287.25,485.54,287.02,483.77,284.79z"/>
	<path style="fill-rule:evenodd;clip-rule:evenodd;fill:#282325;" d="M483.77,284.79c2.2,1.87,4.52,1.91,6.94,0.47
		c0.11,0.02,0.21,0.03,0.32,0.05c-0.08,0.14-0.15,0.29-0.23,0.43c-0.17,0.16-0.33,0.33-0.5,0.49l-0.07,0.06
		c-0.13,0.06-0.3,0.04-0.4,0.17c-0.15,0.08-0.3,0.16-0.46,0.25c-0.44,0.15-0.88,0.29-1.31,0.44c-0.24,0.01-0.47,0.01-0.71,0.02
		c-0.25-0.08-0.5-0.15-0.76-0.23c-1.26-0.39-2.35-1.02-3.12-2.12C483.56,284.82,483.67,284.8,483.77,284.79z"/>
	<path style="fill-rule:evenodd;clip-rule:evenodd;fill:#A72963;" d="M482.96,284.55c-0.05-0.08-0.11-0.15-0.16-0.23
		C482.86,284.4,482.91,284.48,482.96,284.55z"/>
	<path style="fill-rule:evenodd;clip-rule:evenodd;fill:#F7A32E;" d="M460.75,259.33c0.27-0.25,0.36-0.94,0.92-0.54
		c0.57,0.42,0.15,0.81-0.2,1.14c-0.33,0.3-0.62,0.6-0.49,1.1c0.14,0.2,0.11,0.39-0.05,0.57c0.02,0.05,0.03,0.1,0.04,0.16
		c-0.03,0.08-0.09,0.13-0.17,0.16c-0.07,0.03-0.15,0.05-0.23,0.06c-0.08,0.01-0.15,0.02-0.23,0.02c0,0-0.11,0.01-0.11,0.01l-0.11,0
		c0,0-0.11,0-0.11,0c-0.04,0-0.09,0.02-0.12,0c-0.57-0.3-1.46,0.72-1.73-0.18c-0.32-1.04,0.86-0.54,1.25-0.88
		c0.43-0.37,0.71-0.9,1.06-1.36C460.58,259.51,460.66,259.41,460.75,259.33z"/>
	<path style="fill-rule:evenodd;clip-rule:evenodd;fill:#F09F31;" d="M459.92,258.64c-0.43,0.61-0.91,1.18-1.27,1.83
		c-0.25,0.46-0.39,0.21-0.57,0.02c-0.09-0.1-0.24-0.37-0.11-0.35c1.22,0.21-0.34-1.62,0.99-1.33c0.23,0.05,0.51-0.11,0.77-0.18
		C459.8,258.56,459.86,258.57,459.92,258.64z"/>
	<path style="fill-rule:evenodd;clip-rule:evenodd;fill:#E65B9C;" d="M461.47,264.08c-0.29,0.08-0.28-0.12-0.22-0.32
		c0.05-0.15,0.15-0.28,0.23-0.42c0.39-0.63,0.94-1.06,1.61-1.35c0.03-0.01,0.19,0.17,0.18,0.18
		C462.77,262.89,462.3,263.63,461.47,264.08z"/>
	<path style="fill-rule:evenodd;clip-rule:evenodd;fill:#F9A22A;" d="M460.74,261.77c0.08,0,0.15-0.01,0.23-0.02
		c0.7,0.29,0.49,0.75,0.23,1.23c-0.13,0.25-0.29,0.54-0.6,0.4c-0.5-0.23-0.34-0.73-0.35-1.15c0.01-0.04,0.01-0.08,0.02-0.12
		c0.04-0.07,0.09-0.14,0.15-0.18c0.04-0.02,0.07-0.04,0.11-0.05C460.6,261.85,460.67,261.82,460.74,261.77z"/>
	<path style="fill-rule:evenodd;clip-rule:evenodd;fill:#AAA6A7;" d="M460.92,261.6c0.02-0.19,0.03-0.38,0.05-0.57
		C461.28,261.24,461.29,261.44,460.92,261.6z"/>
	<path style="fill-rule:evenodd;clip-rule:evenodd;fill:#8D8889;" d="M460.25,262.24c-0.08-0.08-0.16-0.16-0.24-0.24l-0.02,0.01
		c0.04-0.03,0.09-0.06,0.13-0.1c0.05,0.02,0.1,0.04,0.15,0.06c0.06,0.1,0.05,0.2-0.03,0.28L460.25,262.24z"/>
	<path style="fill-rule:evenodd;clip-rule:evenodd;fill:#F9A22A;" d="M459.92,258.64c-0.06,0-0.13,0-0.19-0.01
		c0.06-0.05,0.12-0.11,0.18-0.16C459.91,258.52,459.92,258.58,459.92,258.64z"/>
	<path style="fill-rule:evenodd;clip-rule:evenodd;fill:#C7C3C4;" d="M460.75,259.33c-0.09,0.08-0.19,0.16-0.28,0.24
		C460.56,259.49,460.66,259.41,460.75,259.33z"/>
	<path style="fill-rule:evenodd;clip-rule:evenodd;fill:#EE589E;" d="M457.11,260.81c0.06,0.02,0.13,0.04,0.19,0.07
		c-0.04,0.03-0.08,0.07-0.12,0.1c-0.02-0.06-0.03-0.12-0.05-0.19L457.11,260.81z"/>
	<path style="fill-rule:evenodd;clip-rule:evenodd;fill:#F8A32C;" d="M452.83,278.53c0.29-0.28,0.2-1.14,0.85-0.82
		c0.54,0.27,0.49,0.94,0.1,1.41c-0.23,0.27-0.23,0.56-0.27,0.85c-0.06,0.1-0.14,0.12-0.24,0.06c-0.44,0.03-0.76,0.11-0.97,0.63
		c-0.39,0.99-1.24,0.59-1.89,0.38c-0.41-0.13-0.18-0.73,0.07-0.69c1.27,0.19,1.3-1.17,2.07-1.56
		C452.65,278.71,452.73,278.61,452.83,278.53z"/>
	<path style="fill-rule:evenodd;clip-rule:evenodd;fill:#F9A22A;" d="M450.83,279.25c-0.67,0.09-0.9-0.24-1.06-0.53
		c-0.22-0.4,0.13-0.59,0.46-0.62c0.64-0.07,0.34-1.17,1.21-1.04c0.29,0.04,0.27-1,0.9-0.48c0.54,0.44,0.16,1.01-0.05,1.4
		C451.94,278.62,451.27,278.97,450.83,279.25z"/>
	<path style="fill-rule:evenodd;clip-rule:evenodd;fill:#F9A22A;" d="M454.95,280.3c-0.37,0.41-0.3,1.19-0.96,1.34
		c-0.33,0.07-0.49-0.32-0.47-0.67c0.04-0.63,0.47-0.97,0.99-1.16C454.7,279.74,454.91,280,454.95,280.3z"/>
	<path style="fill-rule:evenodd;clip-rule:evenodd;fill:#C7C3C4;" d="M453.26,280.02c0.08-0.02,0.16-0.04,0.24-0.06
		c-0.04,0.08-0.08,0.15-0.12,0.23C453.34,280.14,453.3,280.08,453.26,280.02z"/>
	<path style="fill-rule:evenodd;clip-rule:evenodd;fill:#C7C3C4;" d="M452.83,278.53c-0.1,0.08-0.19,0.17-0.29,0.25
		C452.64,278.7,452.73,278.61,452.83,278.53z"/>
	<path style="fill-rule:evenodd;clip-rule:evenodd;fill:#5F595A;" d="M453.02,276.39c0.04,0.04,0.09,0.08,0.13,0.12
		c-0.03-0.01-0.06-0.01-0.08-0.02c-0.02-0.03-0.03-0.07-0.04-0.11L453.02,276.39z"/>
	<path style="fill-rule:evenodd;clip-rule:evenodd;fill:#010000;" d="M503.19,260.04c1.32,0.29,1.2,1.59,1.72,2.44
		c0.13,0.29,0,0.53-0.11,0.78c-0.07,0.15-0.15,0.3-0.24,0.44c-0.42,0.48-0.53,1.13-0.9,1.63c-0.43,0.38-0.96,0.41-1.47,0.35
		c-0.73-0.09-0.77,0.25-0.67,0.83c0.11,0.67,0.68,1.5-0.09,1.99c-0.82,0.52-1.48-0.28-2.11-0.71c-0.69-0.47-1.37-0.72-2.23-0.63
		c-0.96,0.1-1.66-0.74-1.61-1.78c0.04-0.89,0.51-1.22,1.65-1.14c0.29,0.08,0.59,0.03,0.88,0.05c0.8,0.12,1.65,0.62,2.24-0.48
		c0.2-0.37,0.73-0.2,1.11-0.04c0.5,0.21,0.94,0.19,1.24-0.33c0.16-0.27,0.43-0.6,0.23-0.88c-0.27-0.37-0.58,0-0.8,0.17
		c-0.65,0.48-1.35,0.49-2.05,0.22c-1.32-0.51-2.8-0.77-3.61-2.14c-0.06-0.1-0.17-0.19-0.29-0.15c-0.2,0.06-0.18,0.24-0.16,0.4
		c0.09,0.71,0.57,1.01,1.21,1.13c0.77,0.14,1.15,0.67,1.35,1.36c0.09,0.32,0.1,0.65-0.36,0.73c-0.29,0-0.58,0.01-0.86-0.02
		c-1.48-0.92-3-1.8-3.33-3.75c-0.09-0.2-0.18-0.41-0.25-0.63c-0.04-0.16-0.04-0.33-0.01-0.49c0.06-0.21,0.15-0.39,0.3-0.55
		c0.12-0.09,0.25-0.14,0.4-0.14c0.13,0,0.26,0.02,0.39,0.01c0.08-0.02,0.16-0.04,0.23-0.07c0.07-0.05,0.13-0.1,0.2-0.15
		c0.03-0.03,0.07-0.05,0.1-0.08c0.11-0.09,0.22-0.15,0.35-0.19c0.18-0.04,0.37-0.04,0.54,0.02c0.08,0.03,0.16,0.08,0.23,0.14
		c0.06,0.06,0.12,0.12,0.17,0.2c0.06,0.1,0.11,0.19,0.15,0.27c0.03,0.05,0.08,0.09,0.15,0.1c0.06-0.02,0.11-0.06,0.14-0.12
		c0.03-0.07,0.06-0.14,0.09-0.21c0.06-0.17,0.1-0.34,0.19-0.5c0.06-0.09,0.12-0.16,0.2-0.23c0.6-0.15,1.1-0.46,1.54-0.9
		c0.24-0.06,0.55-0.11,0.68,0.08c0.61,0.84,1.31,1.61,1.93,2.43c0.45,0.61,0.07,1.46-0.15,2.17c-0.09,0.12,0.04-0.03-0.06,0.09
		c-0.05,0.06-0.09,0.13-0.16,0.16c-0.09,0.03-0.07,0.02,0.05-0.01c0.16-0.03-0.05,0,0.08-0.09c0.29-0.37,0.5-0.78,0.71-1.2
		C502.35,260.24,502.58,259.78,503.19,260.04z"/>
	<path style="fill-rule:evenodd;clip-rule:evenodd;fill:#F085B4;" d="M503.19,260.04c-0.66,0.01-0.92,0.53-0.9,0.99
		c0.03,0.8-0.48,0.83-1,0.94l0.01,0.01c0.08-0.46,0.17-0.93,0.22-1.39c0.06-0.46,0.2-1.31-0.17-1.29c-1.58,0.07-0.76-2.51-2.48-2.13
		c-0.65-0.04-1.2-0.42-1.82-0.58c-1.8-0.45-3.75,0.25-4.64,1.87c-3.94,7.14,1.68,13.08,7.02,13.31c4.36,0.19,7.07-3.68,5.36-7.69
		c-0.08-0.18-0.17-0.36-0.21-0.56c-0.06-0.12-0.04-0.23,0.05-0.33c0.09-0.24,0.19-0.47,0.28-0.71c1.79,1.66,1.69,3.81,1.2,5.85
		c-0.83,3.36-3.96,5.03-7.81,4.45c-4.61-0.69-8.49-5.19-8.27-9.82c0.17-3.62,1.24-6.4,4.89-7.52c0.99-0.3,1.95-0.21,2.8,0.16
		C499.93,256.57,501.88,257.93,503.19,260.04z"/>
	<path style="fill-rule:evenodd;clip-rule:evenodd;fill:#DE8488;" d="M491.82,293.44c1.3,0,2.48,1.19,2.5,2.5
		c0.02,1.35-1.2,2.55-2.57,2.54c-1.56-0.01-2.72-1.11-2.7-2.56C489.06,294.49,490.24,293.43,491.82,293.44z"/>
	<path style="fill-rule:evenodd;clip-rule:evenodd;fill:#F1A3C4;" d="M490.97,288.88c0.04,0.97-0.67,1.35-1.37,1.31
		c-0.73-0.04-1.28-0.65-1.26-1.46c0.01-0.72,0.48-1.25,1.18-1.24C490.34,287.5,490.94,287.95,490.97,288.88z"/>
	<path style="fill-rule:evenodd;clip-rule:evenodd;fill:#B1376D;" d="M489.82,286.47c0.13-0.06,0.27-0.12,0.4-0.17
		C490.09,286.36,489.95,286.41,489.82,286.47z"/>
	<path style="fill-rule:evenodd;clip-rule:evenodd;fill:#D33030;" d="M480.79,289.12c1.07,0.02,2.04,1.1,2,2.22
		c-0.04,1.13-1.05,2.1-2.17,2.09c-1.17-0.01-2.19-1.07-2.14-2.24C478.53,290.04,479.57,289.1,480.79,289.12z"/>
	<path style="fill-rule:evenodd;clip-rule:evenodd;fill:#393435;" d="M460.74,261.77c-0.09,0.08-0.17,0.16-0.26,0.24
		c-0.07-0.06-0.09-0.12-0.06-0.16c0.03-0.05,0.06-0.07,0.08-0.07C460.58,261.77,460.66,261.76,460.74,261.77z"/>
	<path style="fill-rule:evenodd;clip-rule:evenodd;fill:#010001;" d="M460.25,262c-0.09,0-0.18,0-0.26,0
		c0.08-0.07,0.16-0.14,0.24-0.22c0.07,0.04,0.1,0.09,0.08,0.14C460.29,261.98,460.27,262,460.25,262z"/>
	<path style="fill-rule:evenodd;clip-rule:evenodd;fill:#C7C3C4;" d="M460.25,262c-0.01-0.07-0.01-0.14-0.02-0.21
		c0.09,0,0.18-0.01,0.27-0.02c-0.02,0.08-0.03,0.15-0.03,0.23l0.01-0.02c-0.09,0.09-0.17,0.08-0.25-0.01L460.25,262z"/>
	<path style="fill-rule:evenodd;clip-rule:evenodd;fill:#010001;" d="M460.24,261.98c0.08,0,0.17,0,0.25,0.01
		c-0.08,0.09-0.17,0.18-0.26,0.26C460.23,262.16,460.24,262.07,460.24,261.98z"/>
	<path style="fill-rule:evenodd;clip-rule:evenodd;fill:#F5A7C8;" d="M494.58,258.88c-0.17,0-0.34,0-0.51,0
		c-0.14,0.14-0.09,0.35-0.22,0.5c0,0.16-0.01,0.31-0.01,0.47c0.15,0.13,0.1,0.33,0.2,0.48c0.38,1.84,1.96,2.67,3.17,3.82
		c0.14,0.11,0.13,0.18-0.04,0.23c-0.51,0.08-1.19-0.09-1.37,0.6c-0.16,0.63,0,1.25,0.49,1.73c0.13,0.13,0.4,0.34,0.46,0.3
		c1.5-1.01,2.34,0.33,3.38,0.93c0.41,0.24,0.94,0.69,1.25,0.45c0.44-0.34,0.09-0.95-0.11-1.41c-0.43-0.98-0.56-1.74,0.94-1.64
		c0.49,0.03,1.04,0.17,1.49-0.22c0.76-0.01,0.75,0.58,0.81,1.08c0.29,2.73-1.94,5.03-4.77,4.95c-3.63-0.11-7.2-3.14-7.72-6.72
		c-0.29-1.99,0.22-3.91,1.23-5.63c0.62-1.06,1.66-1.64,2.92-1.59c0.56,0.02,1.25,0.09,1.29,0.93l-0.02,0.02
		c-0.18,0.2,0.01,0.51-0.22,0.69l0.02,0.04c-0.14,0.13-0.22,0.39-0.5,0.24l0.02-0.04c-0.16-0.1-0.11-0.32-0.22-0.45l-0.02-0.02
		c-0.09-0.06-0.17-0.13-0.24-0.21c-0.24,0-0.47,0.01-0.71,0.01c-0.08,0.07-0.17,0.13-0.27,0.19l-0.03,0.03
		c-0.05,0.09-0.12,0.16-0.21,0.2l-0.04,0.03C494.86,259.03,494.72,259.02,494.58,258.88z"/>
	<path style="fill-rule:evenodd;clip-rule:evenodd;fill:#F394BD;" d="M497.43,258.14c-1.38-1.12-3.34-0.62-4.16,1.23
		c-1.3,2.95-1.66,5.92,0.69,8.58c1.63,1.84,4.95,3.63,7.81,2.44c2.1-0.87,3.17-3.7,1.91-5.26c-0.17-0.76,0.36-1.2,0.79-1.68
		c0.05-0.09,0.11-0.09,0.17,0c1.45,1.54,1.24,4.83-0.21,6.6c-2.47,3.03-6.88,2.4-9.55,0.56c-2.36-1.62-3.72-3.82-4.15-6.68
		c-0.47-3.13,1.51-6.87,4.29-7.7c1.45-0.43,2.71,0.03,3.84,0.96C498.86,258.21,497.79,257.64,497.43,258.14z"/>
	<path style="fill-rule:evenodd;clip-rule:evenodd;fill:#F8A22A;" d="M498.21,264.2c-0.01-0.87-0.1-1.74-1.26-1.7
		c-0.9,0.03-1.2-0.57-1.38-1.2c-0.13-0.45-0.29-1.16,0.31-1.39c0.56-0.22,0.69,0.5,0.83,0.81c0.55,1.2,1.77,1.26,2.74,1.72
		c1.02,0.49,2.09,0.72,2.96-0.4c0.1-0.12,0.47-0.49,0.82-0.13c0.26,0.28,0.23,0.53,0.06,0.86c-0.48,0.92-0.66,2.32-2.23,1.17
		c-0.31-0.23-0.64-0.09-0.79,0.23c-0.59,1.25-1.37,0.65-2.14,0.25C498.01,264.3,498.04,264.23,498.21,264.2z"/>
	<path style="fill-rule:evenodd;clip-rule:evenodd;fill:#F19F2E;" d="M499.75,261.53c-0.65,0-1.16-0.2-1.58-0.59
		c-0.31-0.29-0.76-0.6-0.37-1.09c0.41-0.5,0.61-0.12,0.85,0.25c0.24,0.35,0.32-0.07,0.47-0.17c0.1-0.07,0.2-0.35,0.2-0.27
		c-0.04,1.5,1.63-0.08,1.64,0.88C500.97,261.03,500.52,261.72,499.75,261.53z"/>
	<path style="fill-rule:evenodd;clip-rule:evenodd;fill:#F3A02D;" d="M498.17,265.31c0.5,0.33,1.31,0.12,1.58,0.86
		c0.08,0.2-0.23,0.2-0.32,0.15c-0.54-0.3-1.35-0.03-1.65-0.76C497.65,265.25,498.01,265.39,498.17,265.31z"/>
	<path style="fill-rule:evenodd;clip-rule:evenodd;fill:#836B74;" d="M496.71,259.13c0.17-0.08,0.33-0.16,0.5-0.24
		c-0.05,0.23,0.13,0.58-0.25,0.65C496.71,259.58,496.74,259.3,496.71,259.13z"/>
	<path style="fill-rule:evenodd;clip-rule:evenodd;fill:#6E6768;" d="M498.21,264.2c-0.01,0.08-0.03,0.15-0.07,0.22
		c-0.32-0.02-0.65-0.03-0.97-0.05c0-0.08,0.02-0.15,0.04-0.23C497.54,264.16,497.87,264.18,498.21,264.2z"/>
	<path style="fill-rule:evenodd;clip-rule:evenodd;fill:#F394BD;" d="M497.19,258.84c0.01-0.25-0.04-0.52,0.22-0.69
		C497.32,258.38,497.5,258.69,497.19,258.84z"/>
	<path style="fill-rule:evenodd;clip-rule:evenodd;fill:#F394BD;" d="M494.58,258.88c0.14,0,0.27-0.01,0.41-0.01
		C494.86,259.1,494.72,259.04,494.58,258.88z"/>
	<path style="fill-rule:evenodd;clip-rule:evenodd;fill:#F394BD;" d="M493.85,259.38c0.07-0.17,0.15-0.33,0.22-0.5
		C494,259.05,493.92,259.21,493.85,259.38z"/>
	<path style="fill-rule:evenodd;clip-rule:evenodd;fill:#F394BD;" d="M496.51,258.64c0.08,0.15,0.15,0.3,0.22,0.45
		C496.66,258.94,496.58,258.79,496.51,258.64z"/>
	<path style="fill-rule:evenodd;clip-rule:evenodd;fill:#F394BD;" d="M494.04,260.32c-0.07-0.16-0.13-0.32-0.2-0.48
		C493.91,260,493.97,260.16,494.04,260.32z"/>
	<path style="fill-rule:evenodd;clip-rule:evenodd;fill:#6E6768;" d="M501.29,261.98c-0.03,0.06-0.06,0.12-0.09,0.18
		C501.04,261.99,501.26,262.04,501.29,261.98L501.29,261.98z"/>
	<path style="fill-rule:evenodd;clip-rule:evenodd;fill:#F17EB1;" d="M504.64,263.44l-0.09,0.01l-0.09,0
		c0.05-0.08,0.11-0.17,0.17-0.25C504.64,263.27,504.64,263.35,504.64,263.44z"/>
	<path style="fill-rule:evenodd;clip-rule:evenodd;fill:#F394BD;" d="M495.27,258.6c0.09-0.06,0.18-0.13,0.27-0.19
		C495.45,258.47,495.36,258.54,495.27,258.6z"/>
	<path style="fill-rule:evenodd;clip-rule:evenodd;fill:#F394BD;" d="M496.25,258.4c0.08,0.07,0.16,0.14,0.24,0.21
		C496.4,258.54,496.32,258.47,496.25,258.4z"/>
	<path style="fill-rule:evenodd;clip-rule:evenodd;fill:#F394BD;" d="M495.03,258.83c0.07-0.07,0.14-0.13,0.21-0.2
		C495.17,258.7,495.1,258.77,495.03,258.83z"/>
	<path style="fill-rule:evenodd;clip-rule:evenodd;fill:#F28F92;" d="M491.69,298c-1.17-0.04-2.22-1.08-2.16-2.13
		c0.06-1.06,1.17-2,2.34-1.95c1.29,0.07,1.8,0.98,1.91,2.07C493.89,297.02,492.73,298.03,491.69,298z"/>
	<path style="fill-rule:evenodd;clip-rule:evenodd;fill:#E93638;" d="M480.68,292.74c-0.89-0.08-1.45-0.5-1.47-1.41
		c-0.02-0.96,0.5-1.5,1.46-1.48c0.9,0.01,1.39,0.53,1.4,1.43C482.07,292.2,481.53,292.63,480.68,292.74z"/>
</g>
</svg>
