<?xml version="1.0" encoding="utf-8"?>
<!-- Generator: Adobe Illustrator 16.0.0, SVG Export Plug-In . SVG Version: 6.00 Build 0)  -->
<!DOCTYPE svg PUBLIC "-//W3C//DTD SVG 1.0//EN" "http://www.w3.org/TR/2001/REC-SVG-20010904/DTD/svg10.dtd" [
	<!ENTITY ns_flows "http://ns.adobe.com/Flows/1.0/">
	<!ENTITY ns_extend "http://ns.adobe.com/Extensibility/1.0/">
	<!ENTITY ns_ai "http://ns.adobe.com/AdobeIllustrator/10.0/">
	<!ENTITY ns_graphs "http://ns.adobe.com/Graphs/1.0/">
]>
<svg version="1.0" id="Layer_1" xmlns:x="&ns_extend;" xmlns:i="&ns_ai;" xmlns:graph="&ns_graphs;"
	 xmlns="http://www.w3.org/2000/svg" xmlns:xlink="http://www.w3.org/1999/xlink" xmlns:a="http://ns.adobe.com/AdobeSVGViewerExtensions/3.0/"
	 x="0px" y="0px" width="960px" height="560px" viewBox="0 0 960 560" style="enable-background:new 0 0 960 560;"
	 xml:space="preserve">
<g>
	<path style="fill-rule:evenodd;clip-rule:evenodd;fill:#222221;" d="M436.95,304.03c-3.89-0.04-7.72-0.62-11.57-1.1
		c-2.26-0.28-3.42-1.53-3.75-3.6c-0.36-2.25,0.76-4.57,2.9-5.54c0.99-0.45,1.12-0.79,0.66-1.75c-1.96-4.1-0.3-6.47,3.54-8.21
		c0.31-0.14,0.66-0.09,0.53-0.68c-0.67-3.16,0.21-4.85,3.18-6.12c0.66-0.28,0.84-0.55,0.6-1.22c-0.99-2.82-0.37-4.25,2.57-5.2
		c1.28-0.41,1.56-0.85,1.29-2.15c-0.53-2.58,1.46-5.62,5.12-4.29c0.58,0.21,1.26,0.14,1.9,0.16c6.19,0.18,12.37,0.32,18.57-0.03
		c5.81-0.33,11.67,0.2,17.49-0.18c5.63-0.37,11.26-0.59,16.9-0.46c2.15,0.05,4.29,0.2,6.44-0.2c1.74-0.32,3.44,0.59,5.22,0.26
		c0.41-0.08,0.72-0.06,1-0.43c3.62-4.74,8.81-6.23,14.38-6.8c2.9-0.3,5.82-0.62,8.72,0c2.71,0.58,4,1.95,4.4,4.68
		c0.66,4.47,1.1,8.96,0.78,13.49c-0.08,1.19-0.17,2.4,0.28,3.56c0.08,0.21,0.16,0.52,0.07,0.69c-1.44,2.74-0.85,5.82-1.52,8.69
		c-0.94,4.07-2.07,8.23-4.33,11.62c-3.64,5.45-8.74,9.82-15.56,10.23c-7.74,0.46-15.48-0.56-22.86-3.31
		c-0.33-0.12-0.7-0.17-1.05-0.18c-10.63-0.25-21.27-0.42-31.89-0.75c-6.79-0.21-13.57-0.65-20.36-0.99c0.19-0.73,0.8-0.54,1.27-0.55
		c1.87-0.04,3.74-0.01,5.61-0.02c3.91-0.02,7.8,0.33,11.71,0.56c1,0.06,2,0.14,2.99,0.12c3.8-0.08,7.58,0.3,11.38,0.24
		c6.31-0.09,12.62,0.35,18.93,0.27c0.32,0,0.64-0.01,0.95,0.07c0.15,0.04,0.3,0.11,0.46,0.14c-0.07-0.09-0.19-0.08-0.29-0.1
		c-0.86-0.16-1.74-0.19-2.61-0.28c-2.63-0.27-5.27-0.18-7.9-0.3c-4.43-0.21-8.88-0.39-13.3-0.17c-7.72,0.4-15.39-0.41-23.08-0.64
		c-2.87-0.08-5.75,0-8.61-0.18c-2.98-0.19-5.96-0.28-8.92-0.69c-0.83-0.12-1.68-0.06-2.5-0.22c-0.19-0.04-0.36-0.11-0.55-0.12
		c0.2,0.03,0.39,0.13,0.58,0.14c2.78,0.18,5.54,0.57,8.33,0.7c1.37,0.06,2.78,0,4.1,0.54C438.52,304.51,437.7,304,436.95,304.03z"/>
	<path style="fill-rule:evenodd;clip-rule:evenodd;fill:#494B4C;" d="M436.95,304.03c0.71-0.24,1.49,0.16,2.19-0.22
		c0.26-0.37,0.66-0.4,1.06-0.4c2.22,0.01,4.44-0.08,6.66,0.12c0.32,0.03,0.66,0.02,0.74,0.44c-1.91,0.02-3.82,0.02-5.74,0.05
		c-0.42,0.01-0.88-0.16-1.26,0.19C439.39,304.25,438.16,304.3,436.95,304.03z"/>
	<path style="fill-rule:evenodd;clip-rule:evenodd;fill:#E7C8B8;" d="M524.58,252.37c0.1,0.07,0.18,0.12,0.26,0.18
		c-0.11,0.03-0.22,0.09-0.33,0.09c-0.07,0-0.14-0.06-0.2-0.09C524.4,252.49,524.48,252.43,524.58,252.37z"/>
	<path style="fill-rule:evenodd;clip-rule:evenodd;fill:#C3202D;" d="M425.46,288.15c0.15-0.75,0.56-1.35,1.05-1.91
		c0.02-0.08,0.08-0.14,0.16-0.17l0.06-0.05c0.36-0.29,0.74-0.19,1.13-0.07c1.81,0.52,3.6,0.7,5.53,0.51
		c2.28-0.23,4.62-0.2,6.94,0.07c1.01,0.12,2.06,0.09,3.09,0.07c3.3-0.06,6.61-0.03,9.91-0.09c12.18-0.21,24.36-0.18,36.54-0.1
		c2.45,0.02,4.91,0.43,7.35,0.78c0.45,0.07,0.97,0.11,1.28,0.56c-0.44,1.97-1.81,3.17-3.75,3.22c-3.12,0.08-6.23,0.03-9.33-0.38
		c-0.68-0.09-1.36-0.08-2.04-0.08c-17.75,0-35.5,0-53.25-0.01c-1.17,0-2.31,0.17-3.46,0.28c-1.18,0.12-1.32-0.02-1.31-1.2
		C425.37,289.1,425.27,288.61,425.46,288.15z"/>
	<path style="fill-rule:evenodd;clip-rule:evenodd;fill:#74201C;" d="M499.4,297.04c0.34,0.23,0.81,0.4,0.46,0.96
		c-2.13,1.17-3.31,3.14-4.37,5.21c-0.16,0.3-0.04,0.87-0.66,0.8c-6.54-0.84-13.13-0.78-19.71-0.8c-3.4-0.01-6.82,0.03-10.23,0.22
		c-3.25,0.18-6.53-0.25-9.79-0.28c-2.82-0.02-5.59-0.56-8.44-0.53c-3.48,0.04-7-0.25-10.5-0.39c-2.15-0.09-4.3-0.2-6.44-0.39
		c-2.06-0.19-4.11-0.48-6.16-0.77c-0.47-0.07-0.94-0.28-0.95-0.9c0.87-0.45,1.81-0.63,2.78-0.59c3.15,0.11,6.3-0.18,9.45-0.02
		c3.07,0.16,6.14-0.23,9.21-0.11c2.31,0.09,4.63,0.07,6.94,0.14c1.25,0.04,2.45-0.34,3.7-0.23c3.27,0.29,6.54,0.3,9.81,0.18
		c2.59-0.09,5.18-0.06,7.76,0.07c5.05,0.27,10.13,0.14,15.14,0.92c1.89,0.3,3.71,0.92,5.59,1.29c0.78,0.16,1.31-0.04,1.82-0.55
		c1.13-1.13,2.08-2.43,3.27-3.5C498.47,297.43,498.81,297,499.4,297.04z"/>
	<path style="fill-rule:evenodd;clip-rule:evenodd;fill:#C84045;" d="M514.84,267.82c-0.19-0.18-0.38-0.36-0.57-0.54
		c-0.26-0.38-0.33-0.82-0.25-1.26c0.17-0.91,0.14-1.83,0.15-2.75c0.04-2.09,0.99-3.52,2.95-4.2c5.75-2,11.43,1.45,12.04,7.31
		c0.07,0.69-0.03,1.36-0.14,2.03c-0.49,2.94-0.51,5.98-2.04,8.69c-0.5,0.87-0.4,1.86-0.12,2.81c0.54,1.84,0.51,3.61-0.5,5.32
		c-0.34,0.58-0.63,1.23-0.74,1.89c-0.43,2.45-1.71,4.42-3.24,6.31c-1.13,1.39-1.96,3.01-3.11,4.4c-0.4,0.48-0.52,1.07-0.41,1.7
		c0.1,0.59,0.12,1.19-0.03,1.79c-1.27,3.9-8.03,5.89-11.79,1.96c-0.93-0.97-1.36-2.24-1.45-3.6c0.08-0.89,0.43-1.69,0.77-2.5
		c1.31-3.12,2.53-6.25,4.24-9.21c1.56-2.72,2.73-5.69,2.4-8.99c-0.1-0.96,0.27-1.79,0.9-2.5c-0.42-0.56-0.27-1.15,0.01-1.68
		c0.87-1.62,1.09-3.29,0.43-5.04C514.05,269,514.39,268.39,514.84,267.82z"/>
	<path style="fill-rule:evenodd;clip-rule:evenodd;fill:#7A211D;" d="M502.76,285.56c0.24,0.16,0.48,0.31,0.72,0.47
		c0.08,0.06,0.16,0.13,0.23,0.21l0.01,0.01c0.08,0.08,0.16,0.15,0.23,0.22l0.01,0.01c0.06,0.08,0.06,0.16,0.01,0.23l-0.01,0.01
		c-0.24,0.18-0.03,0.51-0.25,0.69l-0.01,0.02c-0.25,0.42-0.65,0.68-1.03,0.97c-1.31,1.02-2.11,2.29-2.28,4.01
		c-0.19,2-0.8,2.58-2.47,2.72c-5.58-1.63-11.22-0.85-16.87-0.57c-4.02,0.2-8.03,0.55-12.07,0.13c-2.1-0.22-4.24-0.1-6.35-0.04
		c-5.96,0.17-11.84-0.79-17.76-1.17c-2.36-0.15-4.7,0.16-7.05,0.3c-3.34,0.19-6.67,0.44-10-0.09c-0.53-0.08-0.9-0.27-1.13-0.74
		c0.27-0.47,0.75-0.56,1.22-0.67c0.82-0.2,1.66-0.21,2.5-0.21c17.42,0,34.85-0.1,52.27,0.07c4.42,0.04,8.87-0.07,13.29,0.37
		c1.92,0.19,2.22,0,2.9-1.73c0.63-1.58,1.78-2.72,2.96-3.85C502.07,286.43,502.23,285.86,502.76,285.56z"/>
	<path style="fill-rule:evenodd;clip-rule:evenodd;fill:#7E211E;" d="M505.88,276.63c-5.01-0.46-10.03-0.49-15.05-0.45
		c-4.95,0.04-9.84-1.04-14.79-0.71c-3.75,0.25-7.5,0.36-11.24,0.16c-6.35-0.34-12.61,0.85-18.93,0.95
		c-3.78,0.06-7.58,0.35-11.35-0.21c-0.14-0.02-0.28-0.13-0.41-0.2c0.68-0.7,1.56-0.91,2.48-1.06c3.35-0.53,6.73-0.75,10.13-0.75
		c12.39,0.03,24.78,0.03,37.16,0c2.21-0.45,4.45-0.15,6.67-0.13c1.18,0.01,2.37,0.05,3.54-0.01c3.11-0.17,6.2,0.14,9.3,0.38
		c1.72,0.13,2.25-0.21,2.95-1.82c0.4-0.92,0.73-1.86,1.46-2.58c0.24,0.08,0.48,0.16,0.72,0.23c0.15,0.16,0.21,0.38,0.11,0.55
		c-0.93,1.51-1.27,3.27-2.05,4.84C506.41,276.14,506.2,276.44,505.88,276.63z"/>
	<path style="fill-rule:evenodd;clip-rule:evenodd;fill:#AF2328;" d="M425.46,288.15c0.06,2.5,0.06,2.49,2.59,2
		c0.43-0.08,0.87-0.07,1.31-0.07c18.3,0,36.59-0.03,54.89,0.03c2.93,0.01,5.87,0.37,8.81,0.52c2.56,0.13,4.33-0.61,5.38-2.95
		c0.49-0.6,1.07-0.88,1.85-0.57c0.19,0.17,0.22,0.37,0.17,0.6c-0.7,1.22-1.58,2.3-2.36,3.46c-0.48,0.72-1.26,0.95-2.1,0.97
		c-3.64,0.09-7.27,0.02-10.9-0.33c-0.84-0.08-1.67-0.13-2.51-0.13c-17.28,0-34.55,0.01-51.83-0.02c-1.61,0-3.16,0.49-4.76,0.32
		C425.19,290.79,424.93,289.52,425.46,288.15z"/>
	<path style="fill-rule:evenodd;clip-rule:evenodd;fill:#982323;" d="M425.99,291.98c1.12-0.62,2.38-0.68,3.59-0.68
		c18.08-0.03,36.15-0.1,54.23,0.04c4.01,0.03,8.03,0.46,12.06,0.43c1.08-0.01,1.81-0.36,2.3-1.36c0.55-1.11,1.37-2.05,2.19-2.97
		c0.53-0.52,1.08-1.01,1.92-0.72c-0.03,0.55-0.47,0.8-0.82,1.12c-0.9,0.85-1.83,1.73-2.16,2.96c-0.68,2.59-1.4,2.22-3.89,2.08
		c-0.78-0.04-1.58-0.15-2.37-0.17c-20.86-0.43-41.71-0.17-62.57-0.25c-1.29,0-2.54,0.17-3.77,0.49l-0.02-0.01
		c-0.08-0.07-0.15-0.14-0.21-0.22C426.31,292.48,426.15,292.23,425.99,291.98z"/>
	<path style="fill-rule:evenodd;clip-rule:evenodd;fill:#C22933;" d="M529.89,278.08c-0.62,0.89-0.57,1.77-0.01,2.66
		c0.08,0.06,0.14,0.13,0.19,0.21l0.05,0.06c0.08,0.04,0.14,0.1,0.18,0.18l0.05,0.06c0.52,0.64,0.2,1.3,0.02,1.94
		c-0.73,2.71-2.1,5.18-3.12,7.77c-0.78,1.96-1.76,3.85-2.71,5.74c-0.92,1.85-2.27,3.37-3.67,4.85c-0.35,0.37-0.74,0.93-1.41,0.49
		c-0.3-0.73,0.13-1.46,0-2.19c-0.03-0.81,0.1-1.6,0.58-2.26c1.43-1.95,2.51-4.15,4.14-5.95c0.09-0.11,0.2-0.23,0.29-0.35
		c0.05-0.08,0.1-0.15,0.16-0.22c0.07-0.11,0.14-0.22,0.2-0.33c0.03-0.07,0.07-0.15,0.11-0.22c0.05-0.11,0.11-0.21,0.17-0.33
		c0.03-0.08,0.07-0.15,0.1-0.22c0.05-0.11,0.11-0.22,0.16-0.34c0.03-0.08,0.06-0.16,0.1-0.23c0.04-0.12,0.08-0.25,0.11-0.37
		c0.02-0.09,0.05-0.17,0.08-0.25c0.07-0.22,0.1-0.44,0.12-0.67c0.01-0.15,0.04-0.29,0.08-0.43c0.04-0.15,0.09-0.29,0.13-0.44
		c0.04-0.16,0.08-0.31,0.13-0.47c0.05-0.17,0.1-0.34,0.16-0.51c1.17-2.15,1.64-4.38,0.93-6.81c-0.31-1.06,0.06-2.12,0.51-3.13
		c1.62-3.65,1.8-7.55,1.41-11.4c-0.29-2.82-2.35-4.62-4.87-5.79c-0.73-0.34-1.51-0.51-2.28-0.74c-0.38-0.12-0.92-0.09-0.97-0.69
		c0.13-0.01,0.27-0.03,0.4-0.04c0.17-0.09,0.38-0.07,0.54-0.19c0.08-0.01,0.17-0.02,0.25-0.03c0.17,0.19,0.33,0.05,0.49-0.02
		c0.08-0.06,0.15-0.11,0.22-0.17c0.08-0.01,0.17-0.02,0.25-0.03c3.5,0.71,5.9,2.84,7.61,5.88c0.2,0.54,0.21,1.1,0.21,1.66
		c0,3.82,0.09,7.64-0.24,11.46c-0.04,0.49-0.12,0.95-0.4,1.35l-0.04,0.04c-0.05,0.08-0.12,0.15-0.2,0.21l-0.03,0.04
		C530.03,277.93,529.96,278,529.89,278.08z"/>
	<path style="fill-rule:evenodd;clip-rule:evenodd;fill:#7D211E;" d="M486.18,282.65c-7.86-0.24-15.7,0.86-23.56,0.42
		c-5.63-0.32-11.23,0.17-16.83,0.38c-3.22,0.12-6.42,0.44-9.64,0.15c-1.78-0.16-3.56-0.32-5.35-0.46c-0.35-0.03-0.62-0.14-0.73-0.5
		c1.07-1.2,2.57-1.01,3.91-1.03c6.11-0.08,12.23-0.03,18.35-0.04c8.67-0.01,17.35-0.05,26.02,0.01c6.55,0.04,13.1-0.08,19.65,0
		c0.6,0.01,1.31-0.22,1.69,0.53c-0.36,0.48-0.91,0.45-1.41,0.45c-3.33,0.02-6.66,0.06-9.99-0.03
		C487.57,282.51,486.89,282.84,486.18,282.65z"/>
	<path style="fill-rule:evenodd;clip-rule:evenodd;fill:#C43139;" d="M526.04,287.68c0,0.16,0,0.32,0,0.48
		c-0.23,0.19-0.02,0.53-0.24,0.72c0,0.08,0,0.16,0,0.24c-0.15,0.13-0.1,0.35-0.24,0.48l0,0c-0.15,0.13-0.09,0.35-0.24,0.48
		c0,0.08,0,0.16,0,0.24c-0.09,0.07-0.15,0.17-0.24,0.24c0,0.08,0,0.16,0,0.24c-0.09,0.07-0.15,0.17-0.24,0.24c0,0.08,0,0.16,0,0.24
		c-0.09,0.07-0.15,0.17-0.24,0.24c-1.4,2.01-2.8,4.02-4.19,6.04c-0.43,0.63-0.71,1.33-0.61,2.12c-0.4,0.56-0.06,1.65-1.2,1.68
		c-1.02-3.25,1.43-5.22,2.99-7.33c1.88-2.54,3.12-5.26,4.24-8.18c0.87-2.27,1.26-4.34,0.5-6.66c-0.3-0.94,0.1-1.87,0.52-2.76
		c1.58-3.42,2.05-7.06,1.79-10.76c-0.23-3.39-3.77-6.61-7.16-6.78c-1.88-0.09-3.75-0.05-5.4,1.1c-0.96,0.67-1.47,1.56-1.55,2.69
		c-0.12,1.53-0.18,3.07-0.26,4.6c-0.24-0.01-0.47-0.02-0.71-0.02c-0.46-0.46-0.44-1.09-0.51-1.66c-0.12-0.99-0.24-1.96-0.69-2.86
		c-0.27-0.53-0.17-0.99,0.24-1.4c0.05-0.05,0.11-0.08,0.18-0.1c0.13-0.03,0.21-0.12,0.28-0.22c2.22-2.12,5.08-2.74,7.95-3.32
		c1.65,0.65,3.44,0.9,4.96,1.94c3.47,2.37,4.05,5.78,3.61,9.59c-0.2,1.69-0.42,3.38-0.69,5.06c-0.09,0.54-0.29,1.09-0.56,1.57
		c-0.81,1.42-1.11,2.88-0.62,4.47c0.58,1.88,0.13,3.61-0.75,5.29c-0.18,0.35-0.3,0.73-0.44,1.1c-0.09,0.07-0.15,0.17-0.24,0.24
		c0,0.16,0,0.32,0,0.48C526.19,287.51,526.13,287.61,526.04,287.68z"/>
	<path style="fill-rule:evenodd;clip-rule:evenodd;fill:#7D211E;" d="M502.3,268.98c-3.45,0.88-6.93,0.64-10.43,0.4
		c-4.66-0.33-9.34-0.25-14,0c-1.55,0.08-3.11,0.16-4.65,0.31c-3.55,0.35-7.07-0.27-10.61-0.24c-4.75,0.04-9.45,0.82-14.19,0.93
		c-2.95,0.07-5.91,0.18-8.86-0.2c-0.44-0.06-0.88-0.04-1.16-0.48c0.17-0.72,0.79-0.9,1.37-1c0.94-0.16,1.88-0.34,2.85-0.34
		c11.27,0.02,22.55-0.04,33.82,0.04c2.67,0.02,5.33-0.1,8-0.03c2.3,0.06,4.61,0.4,6.9,0.15c1.67-0.18,3.35-0.08,5.02-0.22
		c1.54-0.13,3.09-0.24,4.65-0.16C501.59,268.18,502.12,268.31,502.3,268.98z"/>
	<path style="fill-rule:evenodd;clip-rule:evenodd;fill:#86C2E5;" d="M447.6,303.97c-2.81-0.3-5.64-0.16-8.46-0.16
		c-4.4-0.16-8.75-0.77-13.11-1.24c-0.62-0.07-1.28-0.13-1.77-0.61c0.55,0.05,1.1,0.08,1.64,0.16c3.84,0.57,7.72,0.73,11.59,0.81
		c6.15,0.14,12.3,0.34,18.44,0.81c6.79,0.52,13.58-0.22,20.37,0.05c6.06,0.24,12.15-0.08,18.18,0.93c0.42,0.07,0.83,0.23,1.25,0.34
		c-0.48,0.14-0.96,0.4-1.43,0.39c-10.38-0.24-20.75-0.47-31.13-0.78C457.98,304.52,452.8,303.96,447.6,303.97z"/>
	<path style="fill-rule:evenodd;clip-rule:evenodd;fill:#9D2425;" d="M429.79,281.44c0.01-0.32,0.02-0.64,0.03-0.96
		c0.13-0.09,0.27-0.13,0.42-0.12c9.67-0.49,19.34,0.01,29.01-0.25c10.39-0.29,20.77-0.21,31.15-0.17c3.81,0.01,7.63,0,11.44,0.33
		c1.31,0.11,2.35-0.66,3.14-1.7c0.32-0.42,0.58-0.87,1.16-0.96c0.07,0,0.14,0.01,0.21,0.05c0.1,0.13,0.16,0.29,0.13,0.45
		c-0.36,1.94-3.39,4.05-5.32,3.8c-1.3-0.17-2.6-0.35-3.93-0.35c-7.99,0.03-15.98,0.02-23.97,0.01c-0.56,0-1.12,0.04-1.67-0.06
		c-2.09-0.38-4.22-0.25-6.32-0.24c-6.82,0.05-13.65,0.04-20.47,0.05c-2.96,0-5.91,0-8.87,0c-1.67,0-3.35-0.07-5.01,0.27
		C430.54,281.65,430.14,281.74,429.79,281.44z"/>
	<path style="fill-rule:evenodd;clip-rule:evenodd;fill:#B13436;" d="M437.67,267.02c0.09-0.23,0.17-0.47,0.26-0.7
		c0.61-0.35,1.26-0.12,1.88-0.12c20.05-0.01,40.09,0.02,60.14-0.04c1.58,0,3.18-0.17,4.77-0.2c0.93-0.02,1.52-0.62,2.09-1.24
		c0.21-0.1,0.42-0.22,0.67-0.16c0.13,0.11,0.18,0.25,0.17,0.42c-0.87,2.56-1.24,2.45-3.8,2.59c-1.85,0.1-3.72,0.07-5.59,0.07
		c-18.21,0-36.42,0-54.64,0c-1.23,0-2.46-0.04-3.7,0.18c-0.71,0.13-1.52,0.26-2.17-0.34C437.67,267.33,437.63,267.19,437.67,267.02z
		"/>
	<path style="fill-rule:evenodd;clip-rule:evenodd;fill:#862220;" d="M499.4,297.04c-1.61,1.26-2.86,2.88-4.24,4.36
		c-0.64,0.69-1.29,1.04-2.32,0.73c-5.7-1.69-11.58-1.8-17.47-2.05c-2.77-0.12-5.57,0.15-8.34-0.36c-0.67-0.12-1.41,0.18-2.12,0.18
		c-3.54,0.03-7.08,0.03-10.62-0.21c-1.02-0.07-2.06,0.24-3.08,0.2c-6.33-0.29-12.66,0.06-18.99-0.08c-3.18-0.07-6.42-0.18-9.61,0.34
		c-0.02-0.16-0.04-0.31-0.05-0.46c0.75-0.85,1.8-0.79,2.76-0.82c2.04-0.07,4.08-0.02,6.12-0.02c12.2,0,24.4,0.04,36.59-0.02
		c5.12-0.02,10.21,0.47,15.32,0.56c2.86,0.05,5.7,0.65,8.46,1.51c1.16,0.36,2.27,0.54,3.22-0.45c0.98-1.51,2.34-2.68,3.65-3.9
		C498.93,296.72,499.17,296.88,499.4,297.04z"/>
	<path style="fill-rule:evenodd;clip-rule:evenodd;fill:#C6313A;" d="M500.11,287.2c-0.56,0.16-1.12,0.32-1.68,0.48
		c-12.62-1.8-25.32-0.76-37.98-0.89c-4.42-0.04-8.86,0.08-13.29,0.14c-4.07,0.05-8.15-0.28-12.22-0.16
		c-2.79,0.08-5.54,0.24-8.21-0.76c0.19-0.36,0.44-0.64,0.85-0.75c1.58,0.09,3.08,0.92,4.71,0.6c1.87-0.36,3.75-0.3,5.61-0.18
		c7.38,0.46,14.78,0.32,22.16,0.13c6.91-0.17,13.81-0.04,20.72-0.17c1.87,0.01,3.75,0.06,5.62-0.01c4.03-0.15,8.01,0.52,12,0.87
		c0.6,0.05,1.19-0.13,1.77,0.04C500.56,286.8,500.42,287.01,500.11,287.2z"/>
	<path style="fill-rule:evenodd;clip-rule:evenodd;fill:#C8545C;" d="M507.11,264.64c-0.54,1.09-1.31,1.67-2.62,1.7
		c-21.64,0.49-43.28,0.08-64.92,0.22c-0.56,0-1.12,0.04-1.64-0.24c0.12-0.57,0.49-0.93,0.98-1.2c0.91,0.4,1.88,0.33,2.83,0.33
		c2.71,0.01,5.41-0.09,8.12,0.13c0.68,0.06,1.35-0.08,2.01-0.18c0.65-0.01,1.29-0.01,1.93-0.02c0.72,0.38,1.5,0.24,2.24,0.18
		c1.64-0.13,3.27-0.13,4.91-0.13c13.79-0.05,27.58,0.1,41.37,0.05c1.37-0.01,2.72-0.09,3.82-1.06c0.25,0.02,0.5,0.04,0.75,0.06
		c0.07,0.01,0.13,0.03,0.2,0.06C507.08,264.55,507.11,264.64,507.11,264.64z"/>
	<path style="fill-rule:evenodd;clip-rule:evenodd;fill:#85221F;" d="M471.56,281.2c8.04,0,16.08,0.01,24.12-0.01
		c2,0,3.98,0.08,5.94,0.46c0.55,0.11,1.07-0.05,1.5-0.31c1.44-0.9,2.68-2.01,3.24-3.69c0.16,0.07,0.32,0.15,0.48,0.22
		c0.01,0.04,0.05,0.08,0.04,0.11c-0.47,1.87-1.83,3.12-3.27,4.16c-1.18,0.84-2.63,0.58-3.96,0.03c-0.36-0.38-0.83-0.23-1.25-0.23
		c-4.44-0.01-8.88-0.01-13.32-0.01c-16.81,0-33.63,0-50.44,0c-1.56,0-3.09,0.15-4.56,0.72c-0.03-0.07-0.05-0.14-0.05-0.22
		c-0.06-0.08-0.12-0.16-0.18-0.24c-0.01-0.09-0.02-0.17-0.02-0.26c1.08-0.6,2.27-0.7,3.46-0.71c5.01-0.02,10.03,0.02,15.04-0.03
		c4.6-0.05,9.21-0.1,13.82-0.13C465.28,281.03,468.43,280.87,471.56,281.2z"/>
	<path style="fill-rule:evenodd;clip-rule:evenodd;fill:#9E2425;" d="M498.69,296.56c-0.68,1.52-2.25,2.26-3.13,3.6
		c-0.82,0.96-1.79,1.36-3.08,0.99c-2.75-0.78-5.56-1.33-8.41-1.65c-0.44-0.05-0.88-0.06-1.32-0.05c-3.23,0.02-6.44-0.18-9.66-0.44
		c-1.19-0.1-2.39-0.04-3.59-0.04c-14.55-0.01-29.1,0-43.65-0.02c-0.89,0-1.74,0.18-2.6,0.32c-0.52,0.08-0.75-0.07-0.86-0.53
		c0.01-0.32,0.02-0.65,0.03-0.97c0.14-0.03,0.29-0.03,0.43,0c2.24,0.09,4.46-0.18,6.7-0.16c10.91,0.11,21.82-0.05,32.73,0.09
		c3.86,0.05,7.73,0.05,11.59,0.25c4.06,0.22,8.12,0.25,12.17,0.65c1.99,0.2,3.98,0.49,5.86,1.11c1.63,0.53,2.79,0.1,3.84-1.06
		c0.56-0.57,1.21-1.06,1.68-1.73c0.21-0.3,0.44-0.57,0.84-0.62C498.4,296.39,498.55,296.47,498.69,296.56z"/>
	<path style="fill-rule:evenodd;clip-rule:evenodd;fill:#C8606B;" d="M454.95,283.81c2.75-0.32,5.51-0.26,8.25-0.11
		c5.61,0.31,11.18-0.42,16.77-0.43c4-0.01,7.98,0.31,11.95,0.69c0.91,0.09,1.81,0.22,2.72,0.33c-0.04,0.07-0.1,0.12-0.16,0.17
		c-0.34,0.22-0.73,0.17-1.11,0.18c0.39,0.06,0.78,0.06,1.16,0.15c0.38,0.09,0.79,0.12,1.1,0.37c0.34,0.27,0.15,0.46-0.15,0.61
		c-1.26,0.3-2.47-0.09-3.69-0.22c-0.91-0.1-1.82-0.17-2.74-0.17c-8.58,0-17.16,0.01-25.73-0.01c-1.55,0-3.08,0.5-4.63,0.16
		c-0.5-0.23-0.46-0.49,0.01-0.7c0.43-0.2,0.93-0.18,1.39-0.3c0.17-0.04,0.48,0.02,0.45-0.23c-0.02-0.15-0.34-0.11-0.52-0.11
		c-1.1,0-2.21-0.03-3.31,0.05C456.07,284.31,455.43,284.36,454.95,283.81z"/>
	<path style="fill-rule:evenodd;clip-rule:evenodd;fill:#AE272A;" d="M496.28,298.48c-1.14,1.58-2.47,2.19-4.53,1.54
		c-3.07-0.96-6.29-1.23-9.52-1.32c-4.86-0.14-9.71-0.45-14.56-0.58c-4.38-0.12-8.76-0.11-13.15-0.12
		c-8.96-0.02-17.92-0.02-26.88,0.01c-1.47,0-2.94,0.12-4.41,0.26c-0.47,0.04-0.68-0.02-0.65-0.51c-0.06-0.05-0.08-0.11-0.07-0.18
		c0.01-0.06,0.02-0.1,0.04-0.1c0.11-0.31,0.21-0.61,0.32-0.92c0.48-0.39,1.01-0.15,1.5-0.09c2.77,0.34,5.57,0.4,8.35,0.43
		c7.59,0.08,15.18,0.04,22.77,0.03c6.02-0.01,12.02,0.69,18.05,0.53c0.35,0.06,0.68,0.2,1.04,0.19c2.54-0.08,5.06,0.37,7.6,0.25
		c1.31-0.06,2.59,0.35,3.9,0.26c0.14,0.01,0.27,0.03,0.4,0.07c2.11,0.39,4.25,0.57,6.34,1.04c0.84,0.19,1.66-0.08,2.38-0.56
		C495.54,298.49,495.84,298.18,496.28,298.48z"/>
	<path style="fill-rule:evenodd;clip-rule:evenodd;fill:#CB565F;" d="M436.96,270.85c1.02-0.41,2.06-0.11,3.07,0.01
		c3.79,0.45,7.58,0.32,11.37,0.06c0.64,0.42,1.33,0.08,1.98,0.07c3.9-0.04,7.8-0.01,11.7-0.03c2.11-0.01,4.2-0.22,6.31-0.32
		c0.25-0.01,0.47-0.07,0.66-0.23c1.77-0.05,3.54-0.11,5.31-0.16c6.3,0.05,12.6,0.04,18.89,0c0.66-0.01,1.31-0.02,1.97-0.04
		c2.2,0.19,4.4,0.09,6.59-0.06c0.32-0.02,0.6-0.2,0.84-0.41c0.32,0.07,0.64,0.14,0.96,0.21c0.05,0.69-0.43,0.98-0.95,1.22
		c-0.67,0.32-1.4,0.29-2.12,0.29c-8.99,0-17.99,0.02-26.98-0.01c-2.96-0.01-5.87,0.46-8.81,0.68c-0.32,0.02-0.64,0.04-0.96,0.04
		c-8.95,0-17.91,0-26.86,0.01c-0.69,0-1.35-0.11-2-0.31C437.43,271.73,436.93,271.52,436.96,270.85z"/>
	<path style="fill-rule:evenodd;clip-rule:evenodd;fill:#CD5B65;" d="M497,295.66c0.25,0.13,0.51,0.26,0.76,0.39
		c-0.11,1.09-1.05,1.21-1.77,1.25c-3.07,0.18-6.15,0.21-9.22-0.03c-1.3-0.1-2.63-0.24-3.92-0.3c-3.34-0.15-6.7-0.56-10.04-0.27
		c-1.99,0.17-3.98,0.2-5.97,0.2c-2.35-0.01-4.67-0.44-7.01-0.64c-0.56-0.05-1.11-0.07-1.67-0.07c-8.87,0-17.74,0.01-26.61-0.01
		c-1.99-0.01-3.98-0.19-5.95-0.48c-0.57-0.08-1.11-0.2-1.35-0.82c0.24-0.17,0.48-0.34,0.72-0.52c3.46,0.7,6.96,0.65,10.47,0.64
		c4.18-0.01,8.36-0.22,12.54,0.16c2.1,0.19,4.19-0.14,6.29-0.21c2.72,0.08,5.43,0.16,8.15,0.24c0.68,0.57,1.53,0.31,2.29,0.4
		c1.57,0.2,3.16,0.35,4.74,0.35c0.65,0,1.36-0.02,1.9-0.53c3.2,0.32,6.39,0.05,9.59-0.02c1.69,0.55,3.45,0.41,5.18,0.51
		c2.81,0.17,5.65-0.1,8.46,0.22C495.42,296.24,496.21,295.92,497,295.66z"/>
	<path style="fill-rule:evenodd;clip-rule:evenodd;fill:#88C4E6;" d="M528.43,301.85c-0.2-0.21-0.75-0.14-0.64-0.54
		c0.09-0.33,0.47-0.12,0.74-0.07c0.41,0.08,0.76-0.21,0.45-0.46c-0.84-0.65-0.17-1.11,0.09-1.58c2.52-4.54,4.25-9.37,5.41-14.42
		c0.18-0.79,0.29-1.6,0.95-2.2c0.16-0.15,0.25-0.47,0.5-0.36c0.15,0.07,0.25,0.38,0.27,0.59c0.16,1.85-0.07,3.68-0.56,5.46
		c-1.28,4.66-2.56,9.34-5.8,13.14c-0.28,0.33-0.63,0.6-0.95,0.89C528.44,302.45,528.65,301.92,528.43,301.85z"/>
	<path style="fill-rule:evenodd;clip-rule:evenodd;fill:#D16F7E;" d="M482.89,276.38c0.23,0.02,0.46,0.04,0.69,0.06
		c0.2,0.17,0.63-0.06,0.68,0.32c0.05,0.39-0.28,0.54-0.59,0.62c-0.39,0.11-0.79,0.08-1.19,0.08c-2.9,0-5.8,0-8.7,0
		c-1.85,0.08-3.71-0.18-5.55,0.16c-1.24,0.15-2.48,0.05-3.72,0.08c-0.69,0.02-1.4-0.09-2.08,0.16c-0.76,0.12-1.53,0.06-2.29,0.08
		c-0.55-0.01-1.1-0.02-1.63,0.17c-0.58,0.08-1.15,0.06-1.73,0.07c-3.07,0-6.14,0-9.21,0c-0.69,0-1.34-0.13-1.99-0.33
		c-0.2-0.06-0.41-0.19-0.39-0.39c0.03-0.23,0.29-0.21,0.48-0.22c0.71-0.04,1.43,0.1,2.14-0.1c0.7-0.02,1.4-0.04,2.1-0.05
		c0.64-0.24,1.34,0.06,1.98-0.19c4.69-0.78,9.39-1.18,14.16-0.58c3.41,0.44,6.85,0.01,10.27-0.28c1.95-0.17,3.9-0.29,5.83,0.16
		C482.37,276.35,482.66,276.22,482.89,276.38z"/>
	<path style="fill-rule:evenodd;clip-rule:evenodd;fill:#C6454A;" d="M424.25,294.88c2.12,1.02,4.45,0.88,6.67,0.91
		c8.95,0.13,17.89,0.02,26.84,0.07c4.25,0.03,8.47,1.05,12.73,0.68c2.63-0.23,5.26-0.34,7.88-0.18c5.56,0.35,11.11,0.83,16.69,0.68
		c1.01-0.03,2-0.11,2.69-0.99c0.08,0.03,0.16,0.05,0.24,0.08c0.05,0.06,0.12,0.11,0.19,0.14l0.06,0.04
		c-0.18,0.25-0.36,0.49-0.54,0.74c-0.3,0.16-0.57,0.37-0.88,0.51c-1.49,0.59-3.02,0.72-4.59,0.45c-0.2-0.03-0.39-0.13-0.59-0.12
		c-3.95,0.18-7.88-0.41-11.82-0.47c-1.64-0.03-3.25-0.29-4.89-0.28c-2.27,0.02-4.53,0.32-6.81,0.27c-2.75-0.06-5.48-0.34-8.2-0.69
		c-0.52-0.07-1.04-0.05-1.55-0.05c-8.23,0-16.45-0.02-24.68,0.01c-2.88,0.01-5.73-0.23-8.58-0.51c-0.49-0.05-0.94-0.17-1.26-0.59
		c-0.03-0.07-0.06-0.14-0.08-0.22C423.93,295.2,424.09,295.04,424.25,294.88z"/>
	<path style="fill-rule:evenodd;clip-rule:evenodd;fill:#CA6672;" d="M454.95,283.81c1.88,0.01,3.77,0.02,5.65,0.04
		c0.38,0,0.94-0.09,0.98,0.41c0.06,0.65-0.57,0.44-0.95,0.57c-0.74,0.25-1.57,0.04-2.27,0.46c-0.37,0.41-0.88,0.34-1.35,0.34
		c-5.6,0.01-11.2,0.11-16.79-0.05c-2.31-0.06-4.63-0.22-6.94-0.16c-1.27,0.03-2.53,0.36-3.8-0.04c-0.43-0.13-0.88-0.19-0.88-0.78
		c0.22-0.02,0.45-0.04,0.67-0.07c0.07-0.04,0.15-0.07,0.23-0.09c1.35-0.98,2.85-0.46,4.28-0.35c6.55,0.52,13.07-0.14,19.61-0.28
		C453.91,283.79,454.43,283.81,454.95,283.81z"/>
	<path style="fill-rule:evenodd;clip-rule:evenodd;fill:#6D201A;" d="M534.44,258.17c1.39,1.17,1,2.88,1.13,4.34
		c0.26,2.92,0.25,5.87,0.29,8.8c0.02,1.3-0.03,2.63-0.25,3.91c-0.23,1.4-1.43,0.38-2.13,0.68c-0.32-0.49-0.35-1.05-0.36-1.61
		c-0.01-4.18,0-8.36,0-12.54c0-0.76,0.14-1.51,0.29-2.25C533.53,258.9,533.75,258.34,534.44,258.17z"/>
	<path style="fill-rule:evenodd;clip-rule:evenodd;fill:#AE2B2D;" d="M506.14,277.6c-0.85,1.1-1.58,2.33-3.01,2.8
		c-1.64,0.54-3.3-0.01-4.96,0.04c-2.27,0.07-4.55-0.18-6.83-0.19c-8.55-0.03-17.11-0.2-25.65,0.04
		c-10.96,0.31-21.92,0.08-32.89,0.17c-0.92,0.01-1.85,0.68-2.77,0.02c-0.15-0.16-0.13-0.32-0.01-0.48c0.09-0.16,0.18-0.32,0.27-0.47
		c0.07,0.01,0.14,0.03,0.21,0.04c2.23,0.17,4.47,0.08,6.71,0.08c4.08,0.02,8.15-0.03,12.23,0.01c5.35,0.06,10.7-0.21,16.04-0.22
		c7.74-0.02,15.48-0.16,23.21-0.01c4.25,0.09,8.51,0.08,12.76,0.31c0.63,0.04,1.28,0,1.86-0.33c0.11-0.06,0.21-0.14,0.31-0.22
		c0.08-0.08,0.18-0.16,0.27-0.23c0.31-0.23,0.59-0.5,0.86-0.78c0.3-0.3,0.61-0.61,1.05-0.69c0.11-0.01,0.21,0.02,0.3,0.09
		L506.14,277.6z"/>
	<path style="fill-rule:evenodd;clip-rule:evenodd;fill:#882320;" d="M502.3,268.98c-0.48-0.41-1.03-0.54-1.66-0.51
		c-3,0.17-6,0.31-9.01,0.46c-2.93,0.14-5.84-0.24-8.78-0.16c-3.96,0.12-7.93-0.04-11.9-0.05c-9.52-0.01-19.04-0.02-28.56,0.01
		c-1.38,0-2.8,0.08-3.99,0.97c-0.15-0.17-0.3-0.33-0.45-0.5c0.46-0.92,1.4-0.91,2.18-0.99c1.34-0.13,2.68-0.34,4.05-0.34
		c18.18,0.02,36.36,0.01,54.54,0.02c2.11,0,4.21-0.1,6.32-0.02c1.79,0.07,1.83-0.03,2.21-1.75c0.06-0.27,0.19-0.53,0.27-0.79
		c0.07-0.29,0.19-0.55,0.45-0.73c0.4-0.14,0.65-0.02,0.57,0.42c-0.16,0.85-0.06,1.74-0.27,2.58c-0.28,1.14-0.93,1.52-2.18,1.38
		C504.83,268.98,503.57,268.98,502.3,268.98z"/>
	<path style="fill-rule:evenodd;clip-rule:evenodd;fill:#AA2427;" d="M519.56,302.08c1.88-0.91,3.06-2.64,3.97-4.29
		c2.67-4.87,4.99-9.92,6.65-15.25c0.13-0.41,0.12-0.86,0.17-1.29c0.41,0.3,0.81,0.6,1.22,0.9c0.66,0.42,0.36,0.99,0.18,1.5
		c-1.08,3.05-2.47,5.97-3.75,8.94c-0.52,1.21-1.09,2.4-1.61,3.61c-1.03,2.4-2.58,4.39-4.65,5.97c-1.61,1.23-3.29,2.38-4.82,3.72
		c-0.08,0.01-0.16,0.03-0.24,0.04c-0.28,0.18-0.58,0.09-0.88,0.09c-0.49-0.44-0.12-0.82,0.16-1.1
		C517.07,303.86,518.21,302.84,519.56,302.08z"/>
	<path style="fill-rule:evenodd;clip-rule:evenodd;fill:#CE6773;" d="M506.13,264.43c0.2,1.02-0.74,0.93-1.21,1.09
		c-0.74,0.25-1.56,0.31-2.35,0.31c-15.82,0.02-31.63,0.02-47.45,0c-0.45,0-1.08,0.31-1.32-0.43c0.78-0.02,1.57-0.05,2.35-0.07
		c0.39-0.17,0.82,0,1.22-0.14c4.88-0.53,9.78-0.3,14.67-0.28c2.71,0.01,5.41-0.03,8.12-0.05c1.7,0.31,3.42,0.11,5.13,0.11
		c5.26,0,10.52,0,15.78,0c0.96,0,1.91-0.06,2.85-0.25c0.39-0.08,0.8-0.1,1.01-0.52C505.33,264.27,505.73,264.35,506.13,264.43z"/>
	<path style="fill-rule:evenodd;clip-rule:evenodd;fill:#CF6875;" d="M456.92,277.84c0.56,0,1.12,0,1.68,0
		c0.44-0.3,1,0.07,1.44-0.24c0.8,0,1.6,0,2.4,0c0.61-0.32,1.31,0.09,1.92-0.24c1.28,0,2.56,0,3.84,0c1.37-0.25,2.75-0.04,4.13-0.12
		c0.47-0.03,0.95,0.12,1.4-0.12c3.17,0,6.35,0,9.52,0c0.3,0,0.67,0.09,0.82-0.27c0.02-0.06-0.32-0.27-0.49-0.41
		c6.72,0.25,13.43,0.49,20.15,0.73c0.21,0.76-0.33,0.89-0.86,0.97c-0.63,0.09-1.28,0.04-1.92,0.04c-3.12,0-6.25,0.16-9.35-0.04
		c-6.31-0.4-12.62-0.21-18.93-0.15c-3.35,0.04-6.72-0.06-10.05,0.23c-9.3,0.83-18.6,0.24-27.9,0.41c-0.65,0.01-1.66,0.29-1.56-1
		c0.24-0.09,0.48-0.19,0.72-0.28c1.35,0.51,2.77,0.34,4.16,0.33c5.91-0.04,11.81,0.45,17.71,0.26
		C456.14,277.95,456.55,278.06,456.92,277.84z"/>
	<path style="fill-rule:evenodd;clip-rule:evenodd;fill:#8F2221;" d="M422.4,298.73c0.24,0.29,0.47,0.41,0.91,0.29
		c1.48-0.41,3-0.3,4.51-0.3c13.62,0,27.25-0.04,40.87,0.02c5.04,0.02,10.09,0.2,15.12,0.5c2.6,0.16,5.2,0.65,7.72,1.41
		c1.43,0.44,2.79,0.56,4.03-0.5c-0.53,1.32-1.61,1.66-2.82,1.32c-4.44-1.26-8.95-1.6-13.55-1.88c-9.5-0.58-19-0.31-28.5-0.38
		c-8.12-0.07-16.24,0-24.36-0.03c-1.29,0-2.54,0.19-3.77,0.51C422.28,299.42,422.37,299.07,422.4,298.73z"/>
	<path style="fill-rule:evenodd;clip-rule:evenodd;fill:#942322;" d="M507.8,270.19c-0.62,1.36-1.1,2.82-1.91,4.06
		c-0.74,1.14-2.09,0.71-3.22,0.63c-3.19-0.22-6.37-0.48-9.58-0.3c-2.42,0.14-4.86-0.06-7.3-0.1c-0.52-0.01-1.04-0.05-1.51,0.23
		c-0.76-0.31-1.56-0.24-2.34-0.23c-3.86,0.09-7.71,0.02-11.57,0.04c-3.42,0.02-6.84,0-10.25,0.05c-4.06,0.06-8.12-0.02-12.18-0.05
		c-4.21-0.02-8.43,0.03-12.58,0.91c-0.57,0.12-1.15,0.74-1.73,0.01l0-0.01c-0.06-0.16-0.02-0.31,0.1-0.43
		c0.94-0.62,2.05-0.7,3.09-0.81c2.57-0.27,5.15-0.56,7.75-0.56c16.6,0.01,33.2,0.01,49.78,0c3.07-0.05,6.15-0.12,9.22,0.23
		c1.26,0.15,1.86-0.67,2.39-1.59c0.14-0.35,0.36-0.67,0.56-0.99c0.05-0.08,0.11-0.17,0.17-0.25c0.05-0.08,0.11-0.15,0.17-0.23
		c0.03-0.04,0.06-0.07,0.08-0.11c0.08-0.12,0.16-0.23,0.25-0.33c0.1-0.1,0.25-0.12,0.36-0.2
		C507.64,270.17,507.72,270.17,507.8,270.19z"/>
	<path style="fill-rule:evenodd;clip-rule:evenodd;fill:#BA373A;" d="M507.56,270.19c-0.08,0.08-0.16,0.15-0.24,0.23
		c-0.15,0.11-0.09,0.33-0.23,0.45l-0.02,0.02c-0.07,0.07-0.15,0.15-0.22,0.22l-0.02,0.02c-0.33,0.45-0.65,0.91-1.22,1.1
		c-0.77,0.32-1.58,0.25-2.37,0.25c-8.55-0.05-17.1,0.06-25.65-0.06c-3.07-0.05-6.12,0.4-9.18,0.65c-2.63,0.21-5.27,0.04-7.91,0.09
		c-6.58,0.04-13.16-0.06-19.74,0.04c-1.29,0.02-2.64,0.15-3.91-0.35c-0.7-0.28-1.46-0.52-1.52-1.47c0.32-0.15,0.63-0.29,0.95-0.44
		c0.84,0.86,1.91,1.14,3.06,1.14c9.11,0.02,18.22,0.07,27.33-0.04c2.41-0.03,4.85-0.2,7.25-0.62c0.48-0.08,0.96-0.06,1.43-0.06
		c9.55,0,19.1-0.01,28.65,0.01c1.21,0,2.2-0.29,2.84-1.39c0.09,0.01,0.18,0.02,0.27,0.02c0.07,0.02,0.13,0.06,0.19,0.11
		C507.39,270.14,507.48,270.16,507.56,270.19z"/>
	<path style="fill-rule:evenodd;clip-rule:evenodd;fill:#C54146;" d="M506.84,269.98c-0.3,1.5-1.48,1.61-2.66,1.61
		c-9.79,0.01-19.61-0.5-29.36,0.14c-11.81,0.77-23.61,0.35-35.41,0.6c-0.77,0.02-1.51-0.12-2.24-0.32c-0.53-0.14-0.96-0.42-0.9-1.08
		c0.23-0.03,0.46-0.05,0.68-0.08c0.68,0.92,1.73,0.97,2.69,0.98c9.1,0.03,18.25,0.53,27.31-0.11c12.4-0.88,24.79-0.33,37.18-0.59
		c1.01-0.02,1.89-0.25,2.46-1.17C506.68,269.96,506.76,269.97,506.84,269.98z"/>
	<path style="fill-rule:evenodd;clip-rule:evenodd;fill:#CB535B;" d="M428.6,284.59c0.85,0.75,1.94,0.75,2.9,0.65
		c2.86-0.29,5.7-0.14,8.56,0c3.74,0.18,7.49,0.04,11.24,0.05c2.35,0,4.7,0,7.06,0c12.48-0.28,24.96-0.62,37.44,0.24
		c0.81-0.47,1.66-0.13,2.45-0.02c1.07,0.14,1.98-0.04,2.83-0.64c0.16,0.07,0.33,0.14,0.49,0.2c0.15,0.2,0.15,0.41,0.04,0.63
		c-0.08,0.13-0.17,0.25-0.28,0.36c-0.77,0.69-1.74,0.52-2.62,0.5c-2.51-0.08-4.99-0.52-7.49-0.72c-0.52-0.04-1.03-0.07-1.55-0.07
		c-8.98,0-17.97,0-26.95,0c-1.16,0-2.31,0.07-3.46,0.22c-6.23,0.05-12.46,0.15-18.69-0.04c-3.15-0.09-6.29-0.13-9.44-0.08
		c-1.15,0.02-2.32-0.03-3.28-0.83C428.02,284.75,428.26,284.58,428.6,284.59z"/>
	<path style="fill-rule:evenodd;clip-rule:evenodd;fill:#CD5A62;" d="M433.16,277.65c0.09,0.65,0.56,0.68,1.07,0.68
		c7.87,0,15.74,0.18,23.6-0.08c3.97-0.14,7.96-0.22,11.92-0.44c6.58-0.38,13.17-0.27,19.74-0.12c4.31,0.1,8.61,0.05,12.91,0.16
		c0.54,0.01,1.18,0.15,1.32-0.66c0.17,0.01,0.35,0.02,0.52,0.03c0.22,0.07,0.55-0.03,0.64,0.21c0.12,0.29-0.1,0.53-0.34,0.69
		c-0.58,0.38-1.23,0.55-1.93,0.56c-3.44,0.02-6.88,0.16-10.31-0.03c-7.67-0.42-15.33-0.23-23-0.13c-3.78,0.05-7.57,0.1-11.35,0.39
		c-7.73,0.6-15.49,0.12-23.23,0.25c-0.57,0.01-1.11-0.16-1.64-0.3c-0.42-0.11-0.86-0.3-0.65-0.91
		C432.68,277.83,432.92,277.74,433.16,277.65z"/>
	<path style="fill-rule:evenodd;clip-rule:evenodd;fill:#902322;" d="M516.92,305.89c0.6-1.44,1.99-2.03,3.14-2.83
		c2.79-1.97,4.97-4.35,6.31-7.57c1.66-4,3.56-7.91,5.1-11.97c0.16-0.43,0.43-0.88,0.1-1.36c1.39,0.26,1.96,0.83,1.07,2.25
		c-0.43,0.68-0.57,1.54-0.84,2.32c-1.64,3.49-3.14,7.04-4.69,10.57c-0.39,0.88-0.89,1.68-1.53,2.4c0.27,0.68,0.69,1.43-0.69,1.02
		c-0.22-0.07-0.52,0.1-0.78,0.16c-0.16,0.26-0.22,0.55-0.48,0.79c-1.69,1.54-3.66,2.68-5.51,4
		C517.72,305.74,517.32,305.81,516.92,305.89z"/>
	<path style="fill-rule:evenodd;clip-rule:evenodd;fill:#671F19;" d="M498.68,305.44c-1.94-0.02-0.51-1.56-0.45-1.66
		c1.97-3.49,2.74-7.41,4.13-11.1c0.48-1.27,1.51-2.13,2.82-2.59c0.77,0.49,0.34,1.15,0.18,1.71c-0.72,2.61-1.88,5.06-2.8,7.6
		c-0.45,1.23-0.8,2.5-1.47,3.64C500.49,304.05,499.79,304.95,498.68,305.44z"/>
	<path style="fill-rule:evenodd;clip-rule:evenodd;fill:#B73134;" d="M473.72,297.76c-3.98,0.05-7.97-0.02-11.95-0.24
		c-9.96-0.55-19.94-0.02-29.91-0.29c-3-0.08-6.03,0.04-8.99-0.67c0.17-0.5,0.42-0.93,0.9-1.21l0.05,0.02
		c0.2,0.52,0.63,0.65,1.14,0.7c3.05,0.3,6.11,0.5,9.18,0.49c7.19-0.03,14.38,0.04,21.57-0.03c4.03-0.04,8.02,0.54,12.04,0.7
		c1.84,0.07,3.66-0.2,5.49-0.18c3.98,0.04,7.97,0.12,11.94,0.56c0.39,0.04,0.79,0.1,1.19,0.03c0.22-0.02,0.42,0.07,0.63,0.09
		c0.49,0.04,0.98-0.02,1.47,0.06c0.65,0.15,1.32,0.02,1.97,0.13c0.34,0.06,0.94-0.05,0.7,0.67c-0.72,0.45-1.49,0.1-2.23,0.09
		c-0.82-0.02-1.67,0.01-2.48-0.21l0,0c-2.28-0.3-4.59-0.33-6.88-0.49C477.61,297.84,475.66,298.01,473.72,297.76z"/>
	<path style="fill-rule:evenodd;clip-rule:evenodd;fill:#BD393C;" d="M504.92,278.32c-0.24,0.24-0.48,0.48-0.72,0.72
		c-0.08,0.08-0.16,0.15-0.24,0.24l0,0c-1.71,0.81-3.54,0.51-5.31,0.43c-1.98-0.09-3.95,0.05-5.92-0.07
		c-2.46-0.15-4.93-0.27-7.39-0.23c-5.02,0.08-10.04-0.05-15.06,0.13c-2.57,0.09-5.19-0.12-7.75,0.04
		c-9.61,0.58-19.23,0.13-28.84,0.3c-0.56,0.01-1.11-0.09-1.67-0.14c-0.47-0.04-0.84-0.24-1.01-0.71c-0.01-0.07-0.01-0.15-0.02-0.22
		c0.13-0.09,0.26-0.18,0.38-0.27c0.26-0.11,0.55-0.18,0.8-0.06c1.37,0.64,2.82,0.57,4.27,0.56c6.72,0,13.45,0.28,20.16-0.06
		c10.86-0.55,21.73-0.59,32.59-0.47c4.11,0.04,8.22,0.19,12.34,0.19c0.56,0,1.12,0.04,1.67-0.1c0.13-0.03,0.26-0.07,0.39-0.11
		c0.17-0.08,0.35-0.14,0.53-0.19c0.11-0.05,0.22-0.09,0.33-0.13C504.63,278.15,504.79,278.18,504.92,278.32z"/>
	<path style="fill-rule:evenodd;clip-rule:evenodd;fill:#B93437;" d="M514.03,276.4c-0.53,1.05-0.78,2.13-0.73,3.32
		c0.18,3.94-1.69,7.21-3.53,10.49c-1.68,3-2.75,6.25-3.89,9.47c-0.29,0.93,0.04,2.08-0.97,2.76c-0.2,0.05-0.39,0.02-0.55-0.11
		c-0.47-0.82-0.18-1.65-0.01-2.47c0.01-0.13,0.04-0.25,0.07-0.38c0.04-0.19,0.12-0.36,0.15-0.55c0.06-0.78,0.47-1.43,0.77-2.12
		c0.73-1.68,1.37-3.39,1.95-5.12c0.23-0.67,0.48-1.37,1.23-1.68c0.15-0.06,0.32-0.14,0.32-0.32c-0.02-1.11,0.72-1.92,1.17-2.83
		c1.34-2.7,1.9-5.55,2-8.53c0.02-0.51-0.04-1.04,0.31-1.49l0.02,0c0.3-0.18,0.65,0,0.95-0.16c0.2-0.05,0.43-0.03,0.5-0.29
		C513.88,276.3,513.95,276.3,514.03,276.4z"/>
	<path style="fill-rule:evenodd;clip-rule:evenodd;fill:#CF6B79;" d="M454.27,294.95c-1.2,0.82-2.6,0.46-3.9,0.59
		c-1.64,0.16-3.32-0.16-4.99-0.17c-5.06-0.03-10.13,0.02-15.19-0.03c-1.46-0.02-2.91-0.29-4.37-0.44c-0.39-0.04-0.69-0.17-0.86-0.54
		c0.26-0.29,0.56-0.37,0.96-0.29c4.31,0.87,8.65,0.59,12.98,0.27C444.06,293.95,449.16,294.36,454.27,294.95z"/>
	<path style="fill-rule:evenodd;clip-rule:evenodd;fill:#7A211D;" d="M499.64,282.16c0.94,0.02,1.89,0.15,2.81,0.03
		c2.1-0.29,2.75-2.31,4-3.6c0.18-0.19,0.26-0.49,0.38-0.73c0.08,0,0.17,0.01,0.26,0.01c0.14,0.15,0.39,0.02,0.5,0.22
		c-0.17,0.48-0.35,0.96-0.52,1.43c-1.59,1.39-2.64,3.37-4.68,4.26c-0.42,0.18-0.79,0.55-1.31,0.31c-4.83-0.28-9.66-0.64-14.47-1.24
		c-0.15-0.02-0.28-0.13-0.42-0.2c1.31-0.66,2.72-0.49,4.11-0.49C493.41,282.16,496.52,282.16,499.64,282.16z"/>
	<path style="fill-rule:evenodd;clip-rule:evenodd;fill:#AE262A;" d="M530.36,277.57c0.27-4.28,0.25-8.57,0.25-12.85
		c0-0.68-0.04-1.35-0.25-1.99c-0.58-2.02-0.29-3.92,0.72-5.74c0.48,0.08,0.95,0.17,1.43,0.26c0.24,0.27,0.23,0.59,0.13,0.9
		c-0.56,1.62-0.47,3.31-0.43,4.98c0.08,3.94-0.06,7.89-0.02,11.83c0.01,0.52-0.01,1.04-0.36,1.48l-0.01,0
		c-0.09,0.06-0.18,0.13-0.26,0.21C531.16,276.94,530.76,277.25,530.36,277.57z"/>
	<path style="fill-rule:evenodd;clip-rule:evenodd;fill:#D16E7D;" d="M504.93,264.19c0.67,0.65,0.04,0.82-0.4,0.89
		c-0.86,0.15-1.73,0.26-2.6,0.26c-6.67,0.02-13.34,0.01-20.01,0.01c-0.64,0-1.29,0.06-1.77-0.51l0.03,0.01
		c0.79-0.27,1.62,0.06,2.41-0.19C490.02,263.97,497.48,264.17,504.93,264.19z"/>
	<path style="fill-rule:evenodd;clip-rule:evenodd;fill:#922524;" d="M507.8,265.12c-0.08,0.47-0.21,0.94-0.23,1.41
		c-0.06,1.28-0.77,1.73-1.96,1.72c-1.9-0.02-3.8-0.01-5.7-0.01c-18.79,0-37.58-0.01-56.37,0.02c-1.88,0-3.81,0.11-5.58,0.94
		c-0.33-0.33-0.51-0.72-0.4-1.2c0.14-0.06,0.28-0.06,0.42-0.01c3.76-0.63,7.57-0.3,11.35-0.38c2.47-0.05,4.94,0,7.42,0
		c4.11,0,8.21,0.01,12.32,0.02c5.39,0.02,10.79-0.01,16.18,0.02c3.75,0.02,7.5-0.02,11.25-0.13c2.82,0,5.64-0.04,8.46-0.07
		c1.19-0.01,1.86-0.49,2.22-1.58C507.27,265.56,507.33,265.15,507.8,265.12z"/>
	<path style="fill-rule:evenodd;clip-rule:evenodd;fill:#C43138;" d="M504.92,302.32c0.32-0.88,0.64-1.76,0.96-2.64
		c0.49,2.99,2.11,4.75,4.86,5.25c3,0.55,6.1-0.7,7.46-2.99c0.12-0.2,0.27-0.38,0.41-0.58c0.69-0.35,0.64-1.24,1.2-1.68
		c-0.08,0.8-0.16,1.6-0.24,2.4c-0.72,1.07-1.88,1.64-2.8,2.47c-0.42,0.38-0.98,0.69-1.03,1.37c-0.06,0.1-0.14,0.17-0.24,0.22
		c-0.88,0.09-1.77,0.18-2.65,0.27c-1.29-0.1-2.59,0.15-3.86-0.33c-1.46-0.55-2.67-1.41-3.67-2.58
		C505.02,303.16,504.72,302.82,504.92,302.32z"/>
	<path style="fill-rule:evenodd;clip-rule:evenodd;fill:#C74C52;" d="M436.28,279.28c-1.69,0.11-3.32-0.12-4.9-0.74
		c0.12-0.08,0.24-0.16,0.36-0.23c0.05-0.07,0.11-0.12,0.19-0.15c0.17-0.08,0.34-0.15,0.51-0.23c0.48,1.03,1.51,0.83,2.28,0.83
		c7.2,0.06,14.42,0.4,21.59-0.05c11.17-0.69,22.33-0.69,33.5-0.57c4.15,0.04,8.3,0.11,12.45,0.19c0.74,0.01,1.42-0.15,2.09-0.44
		c0.83-0.37,0.14-0.49-0.11-0.68c0.41-0.08,0.8-0.04,1.18,0.15c0.05,0.7-0.57,0.72-0.98,0.97l0,0c-0.13,0.14-0.35,0.09-0.48,0.24
		l0,0c-1.53,0.35-3.08,0.39-4.63,0.34c-9.33-0.29-18.67-0.62-28-0.29c-11.33,0.39-22.66,0.64-34,0.55
		C436.98,279.16,436.61,279.07,436.28,279.28z"/>
	<path style="fill-rule:evenodd;clip-rule:evenodd;fill:#C84248;" d="M427.85,285.04c1.25,0.49,2.55,0.47,3.87,0.5
		c9.2,0.21,18.39,0.26,27.59,0.22c2.94-0.25,5.88-0.09,8.82-0.11c3.9-0.03,7.8-0.02,11.7,0.01c0.35,0,0.9-0.33,1.08,0.34
		c-3.56,0-7.12-0.05-10.68,0.01c-9.79,0.19-19.57,0.34-29.36,0.19c-3.22-0.05-6.44-0.27-9.66,0.01c-1.27,0.11-2.52-0.27-3.64-0.95
		C427.67,285.19,427.76,285.11,427.85,285.04z"/>
	<path style="fill-rule:evenodd;clip-rule:evenodd;fill:#A12A2B;" d="M437.72,268.01c-0.06,0-0.11-0.01-0.17-0.01
		c0-0.24,0.01-0.48,0.01-0.73c0.05,0,0.1,0,0.15,0c0.63,0.38,1.35,0.34,1.99,0.22c2.03-0.38,4.06-0.2,6.09-0.2
		c17.74-0.02,35.49-0.01,53.23-0.01c1.38,0,2.74-0.18,4.14-0.04c2.03,0.21,3.81-0.26,4.41-2.6c0.16-0.14,0.31-0.15,0.46,0.01
		c-0.08,0.15-0.16,0.31-0.24,0.47c-0.71,2.77-2.79,2.81-5.08,2.67c-2.06-0.13-4.13-0.03-6.19-0.03c-0.33-0.21-0.7-0.12-1.05-0.12
		c-9.09,0.15-18.17,0.07-27.26,0.06c-5.69-0.01-11.38-0.04-17.07,0.05c-3.62,0.06-7.24-0.07-10.86,0.1
		C439.42,267.89,438.6,268.53,437.72,268.01z"/>
	<path style="fill-rule:evenodd;clip-rule:evenodd;fill:#A42A2B;" d="M512.33,276.85c0.24,4.33-0.66,8.43-3.05,12.04
		c-1.96,2.95-2.66,6.41-4.27,9.49c-0.12,0.23-0.06,0.55-0.09,0.82c-0.08,0.08-0.16,0.16-0.24,0.24c0,0.08,0,0.16,0,0.24
		c-0.2,0.46-0.39,0.93-0.54,1.41c-0.07,0.23-0.23,0.42-0.52,0.21c-0.29-0.46-0.14-0.94,0-1.38c1.02-3.13,2.33-6.16,3.52-9.23
		c0.18-0.47,0.4-1.11,1.18-0.87c0.48-0.25,0.48-0.25-0.27-0.74c-0.22-0.21-0.15-0.45-0.02-0.65c0.95-1.48,1.66-3.08,2.2-4.75
		c0.08-0.23,0.27-0.39,0.43-0.57l0.01,0c0.48-0.18,0.48-0.18,0.44-0.44c-0.07,0-0.13-0.02-0.2-0.03c-0.21-0.12-0.42-0.28-0.4-0.55
		c0.13-1.65-0.21-3.34,0.41-4.96C511.36,276.88,511.83,276.82,512.33,276.85z"/>
	<path style="fill-rule:evenodd;clip-rule:evenodd;fill:#CF6A78;" d="M472.05,270.41c-0.38,0.88-1.28,0.6-1.87,0.65
		c-6.01,0.53-12.03,0.23-18.05,0.3c-0.34,0-0.65-0.02-0.73-0.44C458.26,269.72,465.15,270.02,472.05,270.41z"/>
	<path style="fill-rule:evenodd;clip-rule:evenodd;fill:#7E221E;" d="M498.68,305.44c3.86-4.1,4.65-9.58,6.57-14.55
		c0.12-0.3,0.03-0.54-0.09-0.8c0.75-0.38,1.54-0.59,2.39-0.47c-1.56,3.73-3.03,7.5-4.34,11.33c-0.38,1.1-0.77,2.19-1.39,3.17
		c-0.43,0.67-0.88,1.34-1.73,1.57C499.61,305.71,499.12,305.7,498.68,305.44z"/>
	<path style="fill-rule:evenodd;clip-rule:evenodd;fill:#D16E7D;" d="M497,295.66c-0.57,0.93-1.54,0.99-2.41,0.87
		c-2.22-0.3-4.44-0.15-6.66-0.21c-1.94-0.06-3.89-0.17-5.83-0.23c-0.54-0.02-0.9-0.24-1.17-0.69c4.08-0.35,8.15-0.69,12.25-0.54
		C494.5,294.91,495.78,295.13,497,295.66z"/>
	<path style="fill-rule:evenodd;clip-rule:evenodd;fill:#C2202D;" d="M531.08,256.98c-0.36,1.9-0.81,3.78-0.72,5.74
		c-1.8-2.31-3.72-4.46-6.78-5.11c-0.16-0.03-0.28-0.26-0.41-0.4C525.79,256.64,528.44,257.01,531.08,256.98z"/>
	<path style="fill-rule:evenodd;clip-rule:evenodd;fill:#942323;" d="M531.83,276.42c0-3.9-0.03-7.79,0.08-11.69
		c0.06-1.93-0.28-3.88,0.13-5.81c0.12-0.57,0.32-1.12,0.48-1.68c0.24,0.08,0.49,0.15,0.73,0.23c0.08,0.07,0.16,0.13,0.25,0.2l0.01,0
		c0.05,0.11,0.13,0.21,0.11,0.34c-0.99,4.78-0.28,9.61-0.49,14.42c-0.04,0.84-0.01,1.67-0.01,2.51c0,0.51-0.13,0.94-0.6,1.22
		C532.29,276.24,532.06,276.33,531.83,276.42z"/>
	<path style="fill-rule:evenodd;clip-rule:evenodd;fill:#8D2221;" d="M433.63,275.45c1.99-0.28,3.97-0.64,5.97-0.81
		c1.96-0.17,3.95-0.04,5.92-0.2c4.34-0.37,8.68,0.41,13.01-0.12c0.85-0.1,1.71,0.09,2.58,0.06c3.02-0.12,6.04,0.15,9.08-0.08
		c2.35-0.18,4.73,0.17,7.09,0.16c2.08-0.01,4.15-0.32,6.24-0.12c0.36,0.04,0.6,0.05,0.76,0.38c-13.14,0-26.28,0-39.42,0
		c-2.86,0-5.69,0.39-8.52,0.75c-0.79,0.1-1.39,0.77-2.23,0.7C433.81,276.02,433.64,275.79,433.63,275.45z"/>
	<path style="fill-rule:evenodd;clip-rule:evenodd;fill:#73211B;" d="M525.57,299.7c1.32-2.89,2.65-5.78,3.95-8.68
		c0.66-1.48,1.02-3.12,2.27-4.29c-0.87,3.93-1.66,7.87-3.93,11.32C527.29,298.92,526.78,299.75,525.57,299.7z"/>
	<path style="fill-rule:evenodd;clip-rule:evenodd;fill:#9D2425;" d="M494.84,274c-17.17,0-34.35-0.04-51.52,0.04
		c-3.24,0.01-6.5,0.31-9.67,1.16c-0.1-0.05-0.17-0.12-0.21-0.23c-0.03-0.57-0.21-1.16,0.19-1.68c0.26,0.16,0.28,0.5,0.48,0.7
		c1.55,0.06,3.06-0.3,4.6-0.43c0.67-0.05,1.34-0.13,2.03-0.15c17.42,0,34.83-0.01,52.24,0.02
		C493.61,273.43,494.46,273.04,494.84,274z"/>
	<path style="fill-rule:evenodd;clip-rule:evenodd;fill:#87C2E4;" d="M509.01,308.12c3.63-0.15,7.2-0.81,10.75-1.54
		c0.82-0.17,1.65-0.3,2.47-0.41c0.2-0.03,0.55-0.11,0.6,0.19c0.02,0.15-0.22,0.4-0.4,0.51c-1.87,1.17-3.78,2.15-6.13,1.97
		c-2.5-0.19-5.01-0.22-7.52-0.31C508.64,308.27,508.85,308.21,509.01,308.12z"/>
	<path style="fill-rule:evenodd;clip-rule:evenodd;fill:#641F19;" d="M506.59,288.88c-0.49,0.15-0.98,0.35-1.48,0.44
		c-0.44,0.08-0.91,0.7-1.27,0.27c-0.32-0.37,0.18-0.89,0.37-1.3c0.94-2.01,1.46-4.4,4.2-4.87c0.2-0.03,0.39-0.04,0.59-0.07
		c0.31,0.16,0.55,0.43,0.42,0.76C508.76,285.87,508.32,287.76,506.59,288.88z"/>
	<path style="fill-rule:evenodd;clip-rule:evenodd;fill:#992424;" d="M471.56,281.2c-4.78,0-9.57-0.03-14.35,0.01
		c-5.29,0.04-10.59,0.16-15.88,0.22c-1.74,0.02-3.47,0.03-5.21,0c-2.11-0.04-4.21,0-6.28,0.48c-0.01-0.16-0.02-0.32-0.04-0.47
		c2.19-0.52,4.41-0.49,6.64-0.49c7.9,0.02,15.8,0.01,23.71,0.01c3.39,0,6.78,0,10.17,0.01C470.74,280.97,471.2,280.82,471.56,281.2z
		"/>
	<path style="fill-rule:evenodd;clip-rule:evenodd;fill:#C2212E;" d="M504.92,302.32c1.46,2.42,3.59,3.72,6.43,3.85
		c0.49,0.02,1.04-0.2,1.47,0.24l-0.09,0.03l-0.09-0.02c-1.12,0.29-2.28-0.07-3.4,0.2c-2.26,0.12-4.5-0.07-6.72-0.48
		c-0.2-0.21-0.17-0.46-0.02-0.64c0.76-0.99,1.21-2.17,1.94-3.17C504.6,302.32,504.76,302.32,504.92,302.32z"/>
	<path style="fill-rule:evenodd;clip-rule:evenodd;fill:#B5282D;" d="M433.64,274.24c0-0.32,0-0.63-0.01-0.95
		c0.21-0.76,0.71-1.3,1.36-1.7c0.13-0.04,0.23-0.12,0.32-0.22l0.01,0c0.93,1.2,2.25,1.42,3.63,1.43c7.19,0.02,14.38,0.01,21.56,0.01
		c0.03,0.14,0,0.27-0.11,0.37c-1.11,0.69-2.35,0.23-3.5,0.26c-1.69,0.05-3.4,0.14-5.11,0.04c-2.94-0.17-5.87,0.09-8.81,0.04
		C439.86,273.46,436.74,273.73,433.64,274.24z"/>
	<path style="fill-rule:evenodd;clip-rule:evenodd;fill:#6C201A;" d="M497.93,295.14c1.61-0.49,2.09-1.65,2.23-3.24
		c0.19-2.19,1.64-3.54,3.55-4.46c-1.05,2.78-2.1,5.55-3.14,8.33c-0.2,0.54-0.51,0.65-1,0.34
		C499.03,295.78,498.48,295.47,497.93,295.14z"/>
	<path style="fill-rule:evenodd;clip-rule:evenodd;fill:#81211E;" d="M532.52,276.15c0.29-0.47,0.24-1,0.24-1.51
		c0-4.39,0.02-8.79-0.01-13.18c-0.01-1.34,0.13-2.61,0.76-3.8c0.38,0.04,0.7,0.19,0.93,0.51c-0.98,1.25-0.95,2.75-0.94,4.2
		c0.06,4.4-0.22,8.81,0.12,13.21c0.01,0.1-0.09,0.22-0.14,0.33C533.16,275.98,532.84,276.07,532.52,276.15z"/>
	<path style="fill-rule:evenodd;clip-rule:evenodd;fill:#9D2828;" d="M500.09,305.69c2.53-2.26,2.86-5.59,4.08-8.49
		c0.91-2.16,1.69-4.37,2.49-6.57c0.18-0.49,0.46-0.79,0.9-1.01c0.25,0.06,0.51,0.12,0.77,0.19c-0.7,0.12-0.8,0.76-0.99,1.24
		c-1.19,3.11-2.35,6.24-3.49,9.37c-0.11,0.29-0.08,0.63-0.12,0.94c-0.07,1.91-1.03,3.35-2.4,4.57c-0.24-0.02-0.48-0.04-0.72-0.05
		c-0.14-0.1-0.34-0.07-0.48-0.18L500.09,305.69z"/>
	<path style="fill-rule:evenodd;clip-rule:evenodd;fill:#BD3136;" d="M514.03,276.4c-0.08,0-0.15,0-0.23,0
		c-0.25-0.17-0.49-0.33-0.74-0.5c-0.49-0.12-0.78-0.41-0.67-0.94c0.39-2,0.5-4.01,0.44-6.04c-0.01-0.24,0.1-0.46,0.24-0.66
		c0.49-0.54,1.25-0.03,1.76-0.45c-0.4,0.99-0.19,1.92,0.1,2.91c0.39,1.3,0.07,2.57-0.54,3.78
		C514.11,275.08,513.66,275.67,514.03,276.4z"/>
	<path style="fill-rule:evenodd;clip-rule:evenodd;fill:#651F19;" d="M494.84,304.01c0.88-2.2,2.1-4.16,3.91-5.73
		c0.35-0.3,0.63-0.63,1.12-0.28c-0.49,1.77-1.38,3.36-2.13,5.01C497.1,304.37,496.1,304.55,494.84,304.01z"/>
	<path style="fill-rule:evenodd;clip-rule:evenodd;fill:#CF6A78;" d="M456.92,277.84c-0.28,0.33-0.65,0.24-1,0.24
		c-6.92,0-13.85,0-20.77,0c-0.55,0-1.17,0.1-1.26-0.72c0.3-0.28,0.63-0.51,1.06-0.43c4.27,0.75,8.56,0.31,12.85,0.22
		c-0.25,0.27-0.58,0.19-0.89,0.22c-0.48,0.04-0.97,0.08-1.45,0.13c0.53,0.12,1.06,0.33,1.59,0.33
		C450.33,277.85,453.63,277.84,456.92,277.84z"/>
	<path style="fill-rule:evenodd;clip-rule:evenodd;fill:#651F19;" d="M507.59,278.09c-0.17-0.07-0.33-0.15-0.5-0.22
		c0.65-0.18,0.22-0.44,0.01-0.58c-0.38-0.25-0.81-0.44-1.22-0.65c0.88-2.07,1.75-4.14,2.63-6.21c0.6,0.23,0.69,0.84,0.67,1.29
		c-0.07,1.97-0.28,3.94-1.02,5.79C508.07,277.74,507.78,277.9,507.59,278.09z"/>
	<path style="fill-rule:evenodd;clip-rule:evenodd;fill:#651F19;" d="M501.07,284.09c1.67-0.69,3.17-1.63,4.17-3.16
		c0.47-0.71,1.04-1.16,1.82-1.41c-0.42,1.98-1.23,3.82-2.09,5.63c-0.18,0.37-0.41,0.65-0.8,0.33
		C503.25,284.75,502.11,284.55,501.07,284.09z"/>
	<path style="fill-rule:evenodd;clip-rule:evenodd;fill:#CA626D;" d="M496.25,270.25c-3.23,0.61-6.5,0.39-9.75,0.37
		c-3.05-0.02-6.12,0.31-9.15-0.37c1.01-0.04,2.03-0.08,3.04-0.12c0.15-0.07,0.3-0.09,0.46-0.08c3.98-0.6,7.96-0.28,11.93-0.02
		C493.94,270.11,495.09,270.18,496.25,270.25z"/>
	<path style="fill-rule:evenodd;clip-rule:evenodd;fill:#CC6774;" d="M451.86,265.41c-0.92,0.47-1.92,0.44-2.91,0.43
		c-2.92-0.01-5.84,0-8.76,0c-0.55,0-1.18,0.1-1.28-0.71c1.85-0.45,3.75-0.32,5.62-0.38c1.42-0.04,2.85,0.28,4.27,0.44
		c0.23,0.09,0.5,0,0.72,0.14C450.3,265.36,451.08,265.38,451.86,265.41z"/>
	<path style="fill-rule:evenodd;clip-rule:evenodd;fill:#918C8F;" d="M533.92,276.6c0.29,0.09,0.62-0.15,0.75,0.2
		c0.02,0.04-0.35,0.24-0.55,0.35c-0.17,0.1-0.37,0.16-0.54,0.26c-0.85,0.48-1.79,1-1.68,2.1c0.1,1.06,1.17,1.17,1.98,1.46
		c0.23,0.08,0.46,0.12,0.69,0.21c0.17,0.06,0.44,0.16,0.45,0.26c0.02,0.26-0.27,0.21-0.44,0.26c-1.28,0.45-2.46,0.26-3.42-0.71
		c-0.66-0.67-0.73-1.5-0.31-2.33C531.48,277.38,532.52,276.68,533.92,276.6z"/>
	<path style="fill-rule:evenodd;clip-rule:evenodd;fill:#CB6875;" d="M501.08,284.86c-0.34,1.07-1.24,1.15-2.12,1.08
		c-1.06-0.08-2.11-0.28-3.16-0.43c-0.77-0.43-1.65-0.38-2.47-0.56c-0.24-0.05-0.64-0.29-0.63-0.42c0.03-0.41,0.42-0.18,0.65-0.21
		c0.43-0.04,0.86-0.03,1.29-0.04C496.79,284.4,498.99,284.06,501.08,284.86z"/>
	<path style="fill-rule:evenodd;clip-rule:evenodd;fill:#CE6B78;" d="M471.34,295.42c0.33,0.6-0.07,0.57-0.5,0.69
		c-2.06,0.56-4.08-0.16-6.12-0.12c-0.59,0.01-1.17-0.11-1.76-0.14c-0.44-0.02-0.86-0.02-0.54-0.65
		C465.4,294.7,468.37,295.17,471.34,295.42z"/>
	<path style="fill-rule:evenodd;clip-rule:evenodd;fill:#7A231E;" d="M518.12,305.67c1.71-1.95,4.19-2.94,5.99-4.79
		c-0.1,0.88-0.38,1.85,1.05,1.92c0.31,0.02,0.26,0.28,0.05,0.38c-0.66,0.33-1.29,0.89-2.09,0.39c-0.59-0.37-0.94-0.43-0.59,0.43
		c0.13,0.32-0.02,0.43-0.26,0.54c-0.24,0.11-0.44,0.14-0.56-0.18c-0.19-0.54-0.69-0.43-0.78-0.1
		C520.52,305.86,518.94,304.98,518.12,305.67z"/>
	<path style="fill-rule:evenodd;clip-rule:evenodd;fill:#682019;" d="M510.43,282.6c-0.95-0.01-1.89,0.08-2.81,0.37
		c-0.27,0.09-0.8,0.27-0.56-0.26c0.8-1.74,0.85-3.89,2.65-5.1c0.61,0.8,0.33,1.74,0.34,2.61
		C510.07,281.05,510.04,281.85,510.43,282.6z"/>
	<path style="fill-rule:evenodd;clip-rule:evenodd;fill:#79211D;" d="M511.17,276.17c-0.55,0.27-1.14,0.87-1.68,0.55
		c-0.24-0.14-0.03-1.09,0.04-1.67c0.13-1.22,0.31-2.43,0.46-3.65c0.1-0.82,0.35-1.56,1.18-1.93c0.54,0.61,0.38,1.36,0.35,2.06
		C511.46,273.08,511.28,274.62,511.17,276.17z"/>
	<path style="fill-rule:evenodd;clip-rule:evenodd;fill:#A62729;" d="M513.08,268.27c0.28,2.19,0.16,4.37-0.33,6.51
		c-0.12,0.51-0.06,0.82,0.31,1.12c-0.47,0.01-0.94,0.03-1.41,0.04c-0.5-0.05-0.38-0.45-0.35-0.71c0.24-1.82,0.48-3.63,0.45-5.47
		c-0.01-0.37,0.14-0.7,0.36-0.99C512.45,268.6,512.76,268.44,513.08,268.27z"/>
	<path style="fill-rule:evenodd;clip-rule:evenodd;fill:#82231F;" d="M506.59,288.88c1.13-1.34,1.8-2.94,2.51-4.52
		c0.17-0.38,0.07-0.68-0.1-1c0.56-0.08,1.11-0.17,1.67-0.25c-0.4,2.19-1.53,4.07-2.61,5.97c-0.09,0-0.17,0-0.26,0.01
		c-0.08-0.06-0.17-0.12-0.25-0.18C507.23,288.9,506.91,288.89,506.59,288.88z"/>
	<path style="fill-rule:evenodd;clip-rule:evenodd;fill:#72211C;" d="M511.66,268.03c-0.42,0.41-0.92,1.03-1.47,0.81
		c-0.68-0.27-0.63-1.15-0.45-1.71c0.38-1.2-0.23-2.58,0.7-3.66c1.17,0.68,1.28,1.83,1.3,3.01C511.76,267,511.8,267.52,511.66,268.03
		z"/>
	<path style="fill-rule:evenodd;clip-rule:evenodd;fill:#A7292B;" d="M512.6,261.34c-0.06,0.37-0.27,0.71-0.02,1.13
		c0.9,1.47,0.81,3.16,0.98,4.79c-0.32,0.1-0.63,0.19-0.95,0.29c-0.53,0.02-0.56-0.42-0.56-0.74c0-1.26-0.26-2.43-0.96-3.5
		c-0.11-0.17-0.07-0.38,0.07-0.55C511.68,262.32,511.95,261.64,512.6,261.34z"/>
	<path style="fill-rule:evenodd;clip-rule:evenodd;fill:#7D221E;" d="M510.43,282.6c-0.63-0.21-0.96-0.43-0.79-1.31
		c0.23-1.19,0.07-2.45,0.08-3.68c0.4-0.16,0.8-0.33,1.2-0.49c-0.02,1.53-0.01,3.06-0.08,4.59c-0.01,0.32-0.1,0.61,0.07,0.91
		C510.75,282.62,510.59,282.61,510.43,282.6z"/>
	<path style="fill-rule:evenodd;clip-rule:evenodd;fill:#AD2428;" d="M501.32,305.93c0.91-1.47,1.87-2.91,2.4-4.57
		c0.32-0.56,0.64-1.12,0.96-1.68c-0.08,0.88-0.16,1.76-0.24,2.64c-0.11,1.54-1.34,2.51-1.92,3.82
		C502.12,306.07,501.72,306,501.32,305.93z"/>
	<path style="fill-rule:evenodd;clip-rule:evenodd;fill:#902423;" d="M512.13,268.77c0.15,2.41-0.27,4.79-0.47,7.17
		c-0.16,0.07-0.33,0.15-0.49,0.22c-0.55-0.8-0.31-1.73-0.19-2.53c0.21-1.39,0.13-2.78,0.19-4.16
		C511.49,269.24,511.81,269,512.13,268.77z"/>
	<path style="fill-rule:evenodd;clip-rule:evenodd;fill:#76231E;" d="M508.04,264.65c-0.15,0-0.31-0.01-0.46-0.01l-0.03-0.04
		c-0.08-0.04-0.1-0.08-0.07-0.12c0.03-0.04,0.05-0.05,0.08-0.05c1.21-0.13,2.01,0.08,1.46,1.59c-0.37,1,0.02,2.03,0,3.04
		c-0.01,0.62-0.1,0.89-0.81,0.59c-0.68-0.29-1.41-0.46-2.11-0.68c1.29,0.02,1.83-0.75,1.93-1.9
		C508.09,266.27,508.04,265.46,508.04,264.65z"/>
	<path style="fill-rule:evenodd;clip-rule:evenodd;fill:#CD6470;" d="M505.64,269.74c0.04,0.56-0.33,0.85-0.78,0.85
		c-1.97,0.04-3.95,0.02-5.92-0.01c-0.24,0-0.48-0.24-0.72-0.37C500.68,269.94,503.13,269.23,505.64,269.74z"/>
	<path style="fill-rule:evenodd;clip-rule:evenodd;fill:#8C2522;" d="M511.17,262.76c1.21,1.37,1.07,3.16,1.44,4.78
		c-0.32,0.16-0.63,0.33-0.95,0.49c-0.36-0.3-0.3-0.73-0.25-1.11c0.16-1.29-0.28-2.4-0.96-3.44
		C510.69,263.24,510.93,263,511.17,262.76z"/>
	<path style="fill-rule:evenodd;clip-rule:evenodd;fill:#8D888B;" d="M536.42,277.95c0.33-0.07,0.72-0.03,0.8,0.48
		c0.13,0.88-0.37,1.49-0.94,2.06c-0.3,0.29-0.63,0.29-0.97,0.1c-0.18-0.1-0.32-0.23-0.13-0.45c0.49-0.59,0.86-1.19,0.67-2.04
		C535.74,277.66,536.13,277.94,536.42,277.95z"/>
	<path style="fill-rule:evenodd;clip-rule:evenodd;fill:#4D494A;" d="M533.66,280c-0.58,0.03-0.91-0.22-0.9-0.83
		c0-0.49,0.22-0.83,0.68-1.01c0.3,1.01,1.43-0.41,1.67,0.54C535.25,279.29,534.4,279.99,533.66,280z"/>
	<path style="fill-rule:evenodd;clip-rule:evenodd;fill:#85ABC1;" d="M537.05,268.04c0.1,2.35,0.17,4.69-0.2,7.03
		c-0.02,0.14-0.12,0.28-0.18,0.42c-0.04-0.14-0.11-0.28-0.11-0.42c0.02-1.79,0.05-3.58,0.08-5.37
		C536.98,269.18,536.32,268.44,537.05,268.04z"/>
	<path style="fill-rule:evenodd;clip-rule:evenodd;fill:#7FB2CF;" d="M528.43,301.85c0.15,0.15,0.31,0.3,0.46,0.45
		c-0.86,0.75-1.7,1.53-2.58,2.25c-0.4,0.33-1.04,0.09-1.2-0.13c-0.31-0.43,0.41-0.34,0.54-0.61c0.33-0.71,1.11-0.46,1.63-0.77
		c0.03-0.81,0.77-0.48,1.16-0.72C528.44,302.17,528.43,302.01,528.43,301.85z"/>
	<path style="fill-rule:evenodd;clip-rule:evenodd;fill:#5A5A59;" d="M507.31,307.13c0.95,0,1.91,0,2.86,0
		c0.16,0,0.31,0.04,0.47,0.06c-0.13,0.06-0.25,0.14-0.38,0.17c-2.09,0.5-4.18,0.17-6.27-0.01c-0.08-0.01-0.16-0.1-0.24-0.16
		c0.11-0.03,0.23-0.08,0.34-0.08c1.07-0.01,2.15,0,3.22,0C507.31,307.11,507.31,307.12,507.31,307.13z"/>
	<path style="fill-rule:evenodd;clip-rule:evenodd;fill:#9B3A38;" d="M500.11,287.2c0.08-0.16,0.16-0.32,0.24-0.48
		c0.34-0.46,0.97-0.63,1.2-1.19l0.01-0.02c0.12-0.11,0.11-0.29,0.22-0.41c0.33,0.15,0.65,0.31,0.98,0.46
		c-0.16,0.39-0.32,0.78-0.49,1.16c-0.64,0.24-1.28,0.48-1.92,0.72C500.28,287.36,500.2,287.28,500.11,287.2z"/>
	<path style="fill-rule:evenodd;clip-rule:evenodd;fill:#5B5B5B;" d="M533.51,285.8c-0.44,1.34-0.88,2.66-1.33,3.98
		c-0.04,0.11-0.19,0.18-0.28,0.26c0-0.11-0.03-0.24,0-0.34c0.41-1.33,0.82-2.67,1.24-4c0.05-0.14,0.14-0.27,0.22-0.41
		C533.4,285.46,533.45,285.63,533.51,285.8z"/>
	<path style="fill-rule:evenodd;clip-rule:evenodd;fill:#7C7D7E;" d="M537.05,268.04c-0.48,0.46,0,1.17-0.41,1.65
		c-0.01-1.03-0.02-2.06-0.03-3.09c0-0.15,0.03-0.31,0.05-0.46c0.07,0.13,0.16,0.25,0.21,0.39
		C537.02,267.01,537.16,267.51,537.05,268.04z"/>
	<path style="fill-rule:evenodd;clip-rule:evenodd;fill:#7DA4BB;" d="M528.44,302.33c-0.31,0.37-0.96,0.18-1.16,0.72
		c0.04-0.47-0.32-0.43-0.62-0.5c-0.28-0.06-0.77-0.07-0.68-0.42c0.06-0.24,0.57-0.08,0.86,0.02
		C527.36,302.33,527.89,302.45,528.44,302.33z"/>
	<path style="fill-rule:evenodd;clip-rule:evenodd;fill:#7E9EB1;" d="M509.01,308.12c-0.08,0.14-0.15,0.27-0.23,0.41
		c-0.4,0-0.8,0-1.21,0c-0.3-0.21-0.69,0.02-0.99-0.2c-0.07,0-0.14-0.01-0.2-0.03c-0.1-0.05-0.13-0.09-0.09-0.13
		c0.03-0.04,0.07-0.06,0.1-0.06C507.26,308.12,508.14,308.12,509.01,308.12z"/>
	<path style="fill-rule:evenodd;clip-rule:evenodd;fill:#C43138;" d="M509.25,306.61c1.11-0.44,2.27-0.12,3.4-0.2
		C511.53,306.79,510.38,306.6,509.25,306.61z"/>
	<path style="fill-rule:evenodd;clip-rule:evenodd;fill:#7A9FB5;" d="M525.02,305.28c-0.19,0.43-0.52,0.41-0.82,0.42
		c-0.18,0.01-0.37-0.06-0.56-0.1c0.17-0.29,0.42-0.45,0.75-0.45C524.59,305.15,524.79,305.23,525.02,305.28z"/>
	<path style="fill-rule:evenodd;clip-rule:evenodd;fill:#CE6773;" d="M482.59,264.68c-0.77,0.42-1.6,0.13-2.41,0.19
		C480.96,264.53,481.78,264.71,482.59,264.68z"/>
	<path style="fill-rule:evenodd;clip-rule:evenodd;fill:#C43F43;" d="M504.44,278.32c0.33-0.32,0.65-0.65,0.98-0.97
		c0.16,0.02,0.31,0.05,0.47,0.07l0.07,0.09l-0.09,0.08c-0.32,0.24-0.64,0.49-0.95,0.73C504.76,278.32,504.6,278.32,504.44,278.32z"
		/>
	<path style="fill-rule:evenodd;clip-rule:evenodd;fill:#CF6A78;" d="M451.87,276.91c-0.63,0.42-1.32,0.14-1.98,0.19
		C450.53,276.83,451.21,276.9,451.87,276.91z"/>
	<path style="fill-rule:evenodd;clip-rule:evenodd;fill:#C8545C;" d="M457.37,265.19c-0.38,0.3-0.8,0.15-1.22,0.14
		C456.54,265.08,456.95,265.14,457.37,265.19z"/>
	<path style="fill-rule:evenodd;clip-rule:evenodd;fill:#902322;" d="M515.48,306.14c0.08-0.07,0.16-0.14,0.24-0.22
		c0.32,0,0.64,0.01,0.96,0.01C516.32,306.24,515.89,306.14,515.48,306.14z"/>
	<path style="fill-rule:evenodd;clip-rule:evenodd;fill:#82231F;" d="M511.12,282.66c0.06,0.09,0.19,0.2,0.17,0.25
		c-0.12,0.29-0.39,0.18-0.61,0.19C510.82,282.96,510.97,282.81,511.12,282.66z"/>
	<path style="fill-rule:evenodd;clip-rule:evenodd;fill:#A42A2B;" d="M513.3,276.69c-0.28,0.27-0.62,0.18-0.95,0.16
		C512.62,276.56,512.96,276.65,513.3,276.69z"/>
	<path style="fill-rule:evenodd;clip-rule:evenodd;fill:#64686A;" d="M506.39,308.12c-0.01,0.06-0.01,0.13-0.01,0.19
		c-0.26-0.04-0.52-0.08-0.77-0.12C505.87,308.17,506.13,308.14,506.39,308.12z"/>
	<path style="fill-rule:evenodd;clip-rule:evenodd;fill:#64686A;" d="M506.58,308.33c0.35-0.04,0.7-0.08,0.99,0.2
		C507.22,308.58,506.87,308.63,506.58,308.33z"/>
	<path style="fill-rule:evenodd;clip-rule:evenodd;fill:#B4B3B3;" d="M536.71,276.4c-0.12,0.13-0.17,0.24-0.25,0.26
		c-0.06,0.01-0.16-0.1-0.2-0.18c-0.02-0.03,0.07-0.16,0.12-0.17C536.47,276.3,536.56,276.35,536.71,276.4z"/>
	<path style="fill-rule:evenodd;clip-rule:evenodd;fill:#CF6875;" d="M482.89,276.38c-0.27,0.02-0.54,0.07-0.75-0.17
		C482.38,276.26,482.64,276.32,482.89,276.38z"/>
	<path style="fill-rule:evenodd;clip-rule:evenodd;fill:#C2202D;" d="M522.92,257.44c-0.24,0.3-0.48,0.31-0.71-0.01
		c0.05-0.03,0.11-0.04,0.16-0.01C522.56,257.32,522.74,257.29,522.92,257.44z"/>
	<path style="fill-rule:evenodd;clip-rule:evenodd;fill:#C8545C;" d="M449.51,265.33c-0.25,0.03-0.51,0.08-0.72-0.14
		C449.05,265.13,449.3,265.14,449.51,265.33z"/>
	<path style="fill-rule:evenodd;clip-rule:evenodd;fill:#6C201A;" d="M503.72,287.42c0.01-0.26-0.04-0.53,0.25-0.69
		C503.96,286.99,503.98,287.26,503.72,287.42z"/>
	<path style="fill-rule:evenodd;clip-rule:evenodd;fill:#992424;" d="M430.02,280c0,0.16,0.01,0.32,0.01,0.48c-0.07,0-0.14,0-0.21,0
		C429.89,280.32,429.96,280.16,430.02,280z"/>
	<path style="fill-rule:evenodd;clip-rule:evenodd;fill:#882320;" d="M507.56,264.44c0,0.06,0,0.11-0.01,0.17
		c-0.15,0.01-0.29,0.02-0.44,0.04c0,0-0.04-0.04-0.04-0.04c0-0.05,0.01-0.09,0.02-0.14C507.24,264.46,507.4,264.45,507.56,264.44z"
		/>
	<path style="fill-rule:evenodd;clip-rule:evenodd;fill:#C8454B;" d="M501.79,285.1c-0.07,0.14-0.15,0.28-0.22,0.41
		c0-0.15,0-0.3,0-0.44C501.65,285.05,501.72,285.06,501.79,285.1z"/>
	<path style="fill-rule:evenodd;clip-rule:evenodd;fill:#CB565F;" d="M480.85,270.05c-0.15,0.03-0.31,0.05-0.46,0.08
		C480.55,270.1,480.7,270.08,480.85,270.05z"/>
	<path style="fill-rule:evenodd;clip-rule:evenodd;fill:#7E221E;" d="M500.11,305.7c0.16,0.06,0.32,0.12,0.48,0.18
		C500.43,305.82,500.27,305.76,500.11,305.7z"/>
	<path style="fill-rule:evenodd;clip-rule:evenodd;fill:#C43139;" d="M521.96,257.46c-0.18,0.06-0.36,0.13-0.54,0.19
		C521.59,257.59,521.77,257.53,521.96,257.46z"/>
	<path style="fill-rule:evenodd;clip-rule:evenodd;fill:#C43139;" d="M522.92,257.44c-0.18-0.01-0.37-0.01-0.55-0.02
		c0.18-0.06,0.37-0.12,0.55-0.18C522.92,257.31,522.92,257.38,522.92,257.44z"/>
	<path style="fill-rule:evenodd;clip-rule:evenodd;fill:#8D2221;" d="M433.44,274.97c0.07,0.08,0.14,0.15,0.21,0.23
		c-0.01,0.08-0.01,0.16-0.02,0.24C433.56,275.29,433.5,275.13,433.44,274.97z"/>
	<path style="fill-rule:evenodd;clip-rule:evenodd;fill:#AE2B2D;" d="M430.52,279.28c0.08-0.08,0.16-0.16,0.24-0.24
		c0.02,0.04,0.03,0.08,0.05,0.12c-0.03,0.08-0.09,0.14-0.17,0.17C430.6,279.31,430.56,279.3,430.52,279.28z"/>
	<path style="fill-rule:evenodd;clip-rule:evenodd;fill:#641F19;" d="M507.54,288.9c0.08,0.06,0.17,0.12,0.25,0.18
		C507.71,289.02,507.63,288.96,507.54,288.9z"/>
	<path style="fill-rule:evenodd;clip-rule:evenodd;fill:#BD393C;" d="M431.93,278.16c-0.06,0.05-0.12,0.1-0.19,0.15
		C431.8,278.26,431.87,278.21,431.93,278.16z"/>
	<path style="fill-rule:evenodd;clip-rule:evenodd;fill:#AE262A;" d="M529.89,278.08c0.07-0.08,0.14-0.15,0.2-0.23
		C530.03,277.93,529.96,278,529.89,278.08z"/>
	<path style="fill-rule:evenodd;clip-rule:evenodd;fill:#7A211D;" d="M426.46,292.72c0.07,0.07,0.14,0.15,0.21,0.22
		C426.61,292.87,426.54,292.8,426.46,292.72z"/>
	<path style="fill-rule:evenodd;clip-rule:evenodd;fill:#AE262A;" d="M530.13,277.81c0.07-0.07,0.13-0.14,0.2-0.21
		C530.26,277.68,530.19,277.74,530.13,277.81z"/>
	<path style="fill-rule:evenodd;clip-rule:evenodd;fill:#AA2427;" d="M530.07,280.96c-0.06-0.07-0.12-0.14-0.19-0.21
		C529.95,280.82,530.01,280.89,530.07,280.96z"/>
	<path style="fill-rule:evenodd;clip-rule:evenodd;fill:#AA2427;" d="M530.3,281.2c-0.06-0.06-0.12-0.12-0.18-0.18
		C530.18,281.07,530.24,281.14,530.3,281.2z"/>
	<path style="fill-rule:evenodd;clip-rule:evenodd;fill:#9D2425;" d="M505.88,277.59c0-0.06,0-0.12,0.01-0.17
		c0.08,0.05,0.15,0.11,0.22,0.16c0,0-0.12,0.01-0.12,0.01L505.88,277.59z"/>
	<path style="fill-rule:evenodd;clip-rule:evenodd;fill:#9E2425;" d="M498.2,296.26c-0.07-0.05-0.13-0.09-0.2-0.14
		C498.07,296.17,498.13,296.22,498.2,296.26z"/>
	<path style="fill-rule:evenodd;clip-rule:evenodd;fill:#942323;" d="M531.56,276.63c0.08-0.07,0.17-0.14,0.26-0.21
		C531.73,276.49,531.65,276.56,531.56,276.63z"/>
	<path style="fill-rule:evenodd;clip-rule:evenodd;fill:#942322;" d="M507.31,270.12c-0.06-0.04-0.13-0.07-0.19-0.11
		C507.18,270.04,507.24,270.08,507.31,270.12z"/>
	<path style="fill-rule:evenodd;clip-rule:evenodd;fill:#922524;" d="M437.71,267.27l-0.08,0c0,0-0.08,0-0.08,0
		c0.04-0.08,0.07-0.17,0.11-0.25C437.69,267.11,437.7,267.19,437.71,267.27z"/>
	<path style="fill-rule:evenodd;clip-rule:evenodd;fill:#B13436;" d="M507.08,264.46c0,0.05-0.01,0.1-0.02,0.14
		c-0.06-0.04-0.13-0.08-0.19-0.12C506.94,264.45,507.01,264.44,507.08,264.46z"/>
	<path style="fill-rule:evenodd;clip-rule:evenodd;fill:#A7292B;" d="M513.07,261.03c-0.09,0.07-0.19,0.14-0.28,0.22
		C512.88,261.17,512.97,261.1,513.07,261.03z"/>
	<path style="fill-rule:evenodd;clip-rule:evenodd;fill:#8F2221;" d="M422.55,297.49c0.01,0.09,0.02,0.18,0.03,0.27
		c-0.06,0-0.11,0-0.16,0C422.47,297.67,422.51,297.58,422.55,297.49z"/>
	<path style="fill-rule:evenodd;clip-rule:evenodd;fill:#6C201A;" d="M503.71,286.24c-0.08-0.07-0.15-0.14-0.23-0.21
		C503.56,286.1,503.64,286.17,503.71,286.24z"/>
	<path style="fill-rule:evenodd;clip-rule:evenodd;fill:#6C201A;" d="M503.96,286.47c-0.08-0.08-0.16-0.15-0.23-0.22
		C503.8,286.32,503.88,286.4,503.96,286.47z"/>
	<path style="fill-rule:evenodd;clip-rule:evenodd;fill:#6C201A;" d="M503.97,286.72c-0.01-0.08-0.01-0.16-0.01-0.23
		c0.03,0.06,0.07,0.11,0.09,0.17C504.06,286.66,504,286.7,503.97,286.72z"/>
	<path style="fill-rule:evenodd;clip-rule:evenodd;fill:#81211E;" d="M533.49,257.66c-0.08-0.07-0.17-0.13-0.25-0.2
		C533.33,257.53,533.41,257.6,533.49,257.66z"/>
	<path style="fill-rule:evenodd;clip-rule:evenodd;fill:#AE2B2D;" d="M430.29,279.53c0.08-0.08,0.15-0.16,0.23-0.25l0.01,0.01
		c0.04,0.19-0.04,0.26-0.22,0.24L430.29,279.53z"/>
	<path style="fill-rule:evenodd;clip-rule:evenodd;fill:#CB535B;" d="M429.51,284.44c-0.08,0.03-0.15,0.06-0.23,0.09
		C429.35,284.5,429.43,284.47,429.51,284.44z"/>
	<path style="fill-rule:evenodd;clip-rule:evenodd;fill:#7D211E;" d="M429.85,282.17c0.06,0.08,0.12,0.16,0.18,0.24
		C429.97,282.33,429.91,282.25,429.85,282.17z"/>
	<path style="fill-rule:evenodd;clip-rule:evenodd;fill:#BA373A;" d="M435.32,271.37c-0.11,0.07-0.21,0.15-0.32,0.22
		C435.11,271.51,435.21,271.44,435.32,271.37z"/>
	<path style="fill-rule:evenodd;clip-rule:evenodd;fill:#AE2B2D;" d="M430.76,279.04c0.08-0.08,0.16-0.15,0.24-0.23l0.02,0.02
		c0.04,0.21-0.06,0.27-0.24,0.22L430.76,279.04z"/>
	<path style="fill-rule:evenodd;clip-rule:evenodd;fill:#C6313A;" d="M426.68,286.06c-0.04,0.07-0.09,0.13-0.16,0.17
		C426.57,286.18,426.62,286.12,426.68,286.06z"/>
	<path style="fill-rule:evenodd;clip-rule:evenodd;fill:#CB5056;" d="M508.1,300.21c-0.91-0.61-0.55-1.37-0.23-2.12
		c2.28-5.21,4.56-10.42,6.83-15.64c0.33-0.75,0.45-1.58,0.24-2.35c-0.43-1.62-0.15-3.11,0.7-4.48c1.32-2.13,1.54-4.29,0.48-6.58
		c-0.51-1.09-0.56-2.23-0.17-3.38c0.31-0.93,0.26-1.89,0.25-2.85c-0.01-1,0.5-1.66,1.35-2.08c4.34-2.15,9.67,1.12,9.7,5.94
		c0.01,2.56-0.67,5.03-0.97,7.55c-0.04,0.31-0.15,0.64-0.33,0.88c-1.33,1.81-1.66,3.73-0.83,5.86c0.43,1.1,0.32,2.2-0.32,3.21
		c-0.8,1.28-1.15,2.7-1.39,4.16c-0.13,0.75-0.31,1.54-0.89,2.06c-2.3,2.04-3.13,5.33-5.92,6.94c-0.56,0.33-0.43,0.91-0.33,1.41
		c0.1,0.54,0.28,1.07,0.42,1.6c-0.31,0.39-0.71,0.24-1.1,0.18c-2.3-0.35-4.6-0.87-6.93-0.17
		C508.47,300.42,508.27,300.33,508.1,300.21z"/>
	<path style="fill-rule:evenodd;clip-rule:evenodd;fill:#CA4E54;" d="M516.7,300.85c0.24,1.72-1.05,2.1-2.23,2.59
		c-2.04,0.84-3.95,0.64-5.68-0.75c-0.48-0.39-0.76-0.92-0.75-1.56c0.28-0.92,1.16-0.92,1.83-1.01c2.18-0.29,4.32,0.18,6.48,0.45
		C516.49,300.58,516.61,300.71,516.7,300.85z"/>
	<path style="fill-rule:evenodd;clip-rule:evenodd;fill:#272624;" d="M516.7,300.85c-2.49-0.18-4.97-0.77-7.47-0.23
		c-0.41,0.09-0.79,0.33-1.19,0.5c-0.34-0.09-0.5,0.48-0.88,0.23c0.32-0.38,0.64-0.76,0.95-1.14c2.88-1.12,5.73-0.24,8.58,0.14
		c0.13,0.1,0.25,0.2,0.38,0.31C516.94,300.72,516.82,300.79,516.7,300.85z"/>
	<path style="fill-rule:evenodd;clip-rule:evenodd;fill:#C43138;" d="M525.8,288.88c0.01-0.26-0.03-0.54,0.24-0.72
		C526.03,288.42,526.07,288.7,525.8,288.88z"/>
	<path style="fill-rule:evenodd;clip-rule:evenodd;fill:#C43138;" d="M525.56,289.6c0.08-0.16,0.16-0.32,0.24-0.48
		C525.72,289.28,525.64,289.44,525.56,289.6z"/>
	<path style="fill-rule:evenodd;clip-rule:evenodd;fill:#C43138;" d="M525.32,290.08c0.08-0.16,0.16-0.32,0.24-0.48
		C525.48,289.76,525.4,289.92,525.32,290.08z"/>
	<path style="fill-rule:evenodd;clip-rule:evenodd;fill:#C43138;" d="M526.04,287.68c0.08-0.08,0.16-0.16,0.24-0.24
		C526.2,287.52,526.12,287.6,526.04,287.68z"/>
	<path style="fill-rule:evenodd;clip-rule:evenodd;fill:#C43138;" d="M525.08,290.56c0.08-0.08,0.16-0.16,0.24-0.24
		C525.24,290.4,525.16,290.48,525.08,290.56z"/>
	<path style="fill-rule:evenodd;clip-rule:evenodd;fill:#C43138;" d="M524.84,291.04c0.08-0.08,0.16-0.16,0.24-0.24
		C525,290.88,524.92,290.96,524.84,291.04z"/>
	<path style="fill-rule:evenodd;clip-rule:evenodd;fill:#C43138;" d="M524.6,291.52c0.08-0.08,0.16-0.16,0.24-0.24
		C524.76,291.36,524.68,291.44,524.6,291.52z"/>
	<path style="fill-rule:evenodd;clip-rule:evenodd;fill:#C43138;" d="M526.28,286.96c0.08-0.08,0.16-0.16,0.24-0.24
		C526.44,286.8,526.36,286.88,526.28,286.96z"/>
	<path style="fill-rule:evenodd;clip-rule:evenodd;fill:#C8454B;" d="M501.55,285.53c-0.06,0.74-0.68,0.92-1.2,1.19
		c-2.02,0.47-4.02-0.03-5.99-0.29c-4.48-0.59-8.96-0.37-13.44-0.44c-0.36-0.38-0.82-0.23-1.24-0.23
		c-6.13-0.01-12.26,0.01-18.38-0.03c-0.66,0-1.32,0.39-1.97,0.02c0.36-0.38,0.82-0.23,1.25-0.23c10.14-0.01,20.27-0.04,30.41,0.01
		c2.81,0.01,5.58,0.76,8.41,0.72C500.22,286.25,500.95,286.12,501.55,285.53z"/>
	<path style="fill-rule:evenodd;clip-rule:evenodd;fill:#B1282C;" d="M486.44,298.48c1.6,0,3.2,0,4.8,0c0.29-0.29,0.64-0.28,1-0.21
		c1.73,0.35,3.28-0.12,4.76-0.98c0.18-0.27,0.45-0.24,0.72-0.24c-0.38,0.58-0.86,1.05-1.44,1.44c-2.62,2.31-5.42,0.47-8.14,0.33
		C487.6,298.78,486.93,298.96,486.44,298.48z"/>
	<path style="fill-rule:evenodd;clip-rule:evenodd;fill:#B1282C;" d="M473.72,297.76c4.08-0.14,8.14,0.18,12.2,0.49
		c0.18,0.01,0.35,0.15,0.52,0.23c-4.07-0.16-8.13-0.32-12.2-0.49C474.07,297.98,473.89,297.84,473.72,297.76z"/>
	<path style="fill-rule:evenodd;clip-rule:evenodd;fill:#CF6A78;" d="M473.72,277.12c-1.82,0.53-3.68,0.1-5.52,0.24
		C470.02,276.83,471.88,277.26,473.72,277.12z"/>
	<path style="fill-rule:evenodd;clip-rule:evenodd;fill:#CF6A78;" d="M464.36,277.36c-0.59,0.47-1.28,0.14-1.92,0.24
		C463.03,277.13,463.72,277.46,464.36,277.36z"/>
	<path style="fill-rule:evenodd;clip-rule:evenodd;fill:#CF6A78;" d="M460.04,277.6c-0.42,0.43-0.96,0.17-1.44,0.24
		C459.02,277.41,459.56,277.67,460.04,277.6z"/>
	<path style="fill-rule:evenodd;clip-rule:evenodd;fill:#C0353A;" d="M486.68,297.76c-2.78-0.11-5.56-0.15-8.33-0.34
		c-2.67-0.18-5.35-0.3-8,0.03c-1.78,0.22-3.52-0.07-5.23-0.23c-5.77-0.53-11.55-0.4-17.33-0.42c-5.6-0.02-11.19,0.04-16.79-0.03
		c-2.17-0.03-4.34-0.3-6.51-0.47c-0.57-0.04-0.91-0.28-0.66-0.93c1.07,0.66,2.31,0.54,3.48,0.67c3.57,0.4,7.17,0.26,10.76,0.27
		c6.71,0.01,13.43-0.07,20.14,0.03c4.17,0.06,8.32,1.09,12.49,0.65c3.52-0.37,7.01-0.07,10.49,0.1c3.58,0.18,7.15,0.5,10.73,0.44
		c0.17,0,0.35,0.15,0.53,0.22c-0.13,0.15-0.3,0.3-0.49,0.28c-1.2-0.12-2.39,0.11-3.59-0.04c-0.48,0-0.96,0-1.44,0
		C486.85,297.91,486.76,297.84,486.68,297.76z"/>
	<path style="fill-rule:evenodd;clip-rule:evenodd;fill:#C13238;" d="M488.36,298c1.35-0.25,2.71-0.28,4.08-0.24
		c1.55,0.12,3.06-0.12,4.55-0.47c-1.28,1.45-2.93,1.62-4.7,1.35c-0.35-0.05-0.71-0.1-1.06-0.15
		C490.36,297.84,489.24,298.64,488.36,298z"/>
	<path style="fill-rule:evenodd;clip-rule:evenodd;fill:#B62C2F;" d="M430.77,279.05c0.08-0.07,0.16-0.15,0.24-0.22
		c0.7,0.79,1.66,0.92,2.62,0.92c7.92,0.02,15.84,0.2,23.75-0.06c5-0.16,10.01-0.2,15-0.47c4.28-0.23,8.56-0.05,12.83-0.12
		c2.35-0.04,4.72-0.07,7.09,0.34c1.42,0.25,2.95,0.04,4.41-0.14c1.06-0.13,2.04,0.31,3.09,0.21c1.38-0.13,2.77-0.16,4.15-0.23
		c-0.59,0.93-1.6,0.9-2.46,0.86c-10.01-0.46-20.03-0.48-30.04-0.35c-13.37,0.18-26.73,0.22-40.1,0.2c-0.39,0-0.94,0.23-1.05-0.45
		c0.07-0.08,0.15-0.16,0.22-0.24C430.61,279.21,430.69,279.13,430.77,279.05z"/>
	<path style="fill-rule:evenodd;clip-rule:evenodd;fill:#B62C2F;" d="M503.96,279.28c0.08-0.08,0.16-0.16,0.24-0.24
		C504.12,279.12,504.04,279.2,503.96,279.28z"/>
	<path style="fill-rule:evenodd;clip-rule:evenodd;fill:#AA2729;" d="M433.64,274.24c0.66-0.74,1.61-0.64,2.43-0.69
		c3.39-0.18,6.8-0.16,10.19-0.35c3.59-0.2,7.18,0.16,10.76-0.03c1.17-0.06,2.36,0.27,3.5-0.13c0.05,0,0.09,0,0.14,0
		c0.13-0.07,0.26-0.11,0.41-0.06c0.1,0.03,0.2,0.05,0.31,0.06c0.6,0.06,1.17-0.06,1.77-0.11c7.98-0.12,15.95-0.43,23.93-0.3
		c5.3,0.09,10.61-0.18,15.91,0.18c1.08,0.07,2.02-0.36,2.89-0.96c0.32-0.24,0.64-0.48,0.96-0.71c-0.16,0.32-0.32,0.63-0.48,0.95
		c-0.29,0.43-0.64,0.82-0.99,1.21c-0.42,0.46-0.93,0.75-1.59,0.67c-3.37-0.4-6.77-0.22-10.15-0.3c-5.3-0.13-10.6-0.11-15.9-0.07
		c-12.23,0.08-24.46,0.01-36.69,0.06c-0.24,0-0.48-0.04-0.69,0.12c-1.92,0.23-3.83,0.47-5.75,0.66
		C434.31,274.45,433.83,274.93,433.64,274.24z"/>
	<path style="fill-rule:evenodd;clip-rule:evenodd;fill:#A62426;" d="M440.36,273.76c0.4-0.4,0.91-0.23,1.37-0.23
		c9.51-0.01,19.02-0.01,28.54-0.01c3.97,0,7.95,0.09,11.91-0.03c3.25-0.1,6.51-0.14,9.73-0.07c4.01,0.09,8.04-0.25,12.04,0.27
		c1.14,0.15,1.55-1.15,2.41-1.61c-0.84,1.97-1.52,2.16-3.58,2.02c-2.63-0.18-5.29-0.32-7.94-0.1c-0.44-0.42-0.99-0.23-1.49-0.23
		C475.69,273.76,458.02,273.76,440.36,273.76z"/>
	<path style="fill-rule:evenodd;clip-rule:evenodd;fill:#AA2729;" d="M507.09,270.87c0.08-0.15,0.15-0.3,0.23-0.45
		C507.24,270.57,507.16,270.72,507.09,270.87z"/>
	<path style="fill-rule:evenodd;clip-rule:evenodd;fill:#AA2729;" d="M506.85,271.11c0.07-0.07,0.15-0.15,0.22-0.22
		C507,270.96,506.92,271.04,506.85,271.11z"/>
	<path style="fill-rule:evenodd;clip-rule:evenodd;fill:#B92A2F;" d="M461,273.04c-0.08,0-0.16,0-0.24,0
		c-0.08,0.07-0.16,0.08-0.24,0l0,0c0-0.08,0-0.16,0-0.24c5.63,0.28,11.21-0.67,16.82-0.77c3.09-0.06,6.2,0,9.29,0.03
		c5.95,0.07,11.89,0.02,17.84,0.01c0.47,0,0.94-0.15,1.41-0.23c-0.85,1.19-1.95,1.69-3.42,1.31c-0.42-0.11-0.87-0.11-1.3-0.11
		c-8.29-0.01-16.58,0-24.86,0c-4.54,0-9.07,0-13.61,0C462.12,273.22,461.56,273.22,461,273.04z"/>
	<path style="fill-rule:evenodd;clip-rule:evenodd;fill:#C13238;" d="M486.68,297.76c0.08,0.08,0.16,0.16,0.24,0.24
		C486.84,297.92,486.76,297.84,486.68,297.76z"/>
	<path style="fill-rule:evenodd;clip-rule:evenodd;fill:#C43F43;" d="M436.28,279.28c0.4-0.4,0.91-0.23,1.37-0.23
		c4.8-0.01,9.6-0.08,14.4,0.01c5.95,0.12,11.88-0.4,17.81-0.58c6.35-0.19,12.7-0.21,19.05-0.08c3.58,0.07,7.18,0.12,10.77,0.37
		c1.42,0.1,2.86-0.13,4.29-0.21c-0.6,0.5-1.32,0.49-2.04,0.48c-7.51-0.08-15.02-0.16-22.52-0.24c-6.15-0.07-12.29-0.05-18.43,0.27
		C452.74,279.5,444.51,279.14,436.28,279.28z"/>
	<path style="fill-rule:evenodd;clip-rule:evenodd;fill:#C43F43;" d="M503.96,278.56c0.16-0.08,0.32-0.16,0.48-0.24
		C504.28,278.4,504.12,278.48,503.96,278.56z"/>
	<path style="fill-rule:evenodd;clip-rule:evenodd;fill:#AD2428;" d="M504.68,299.44c0.08-0.08,0.16-0.16,0.24-0.24
		C504.84,299.28,504.76,299.36,504.68,299.44z"/>
	<path style="fill-rule:evenodd;clip-rule:evenodd;fill:#9F2929;" d="M437.72,268.01c19.26-1.1,38.53-0.19,57.79-0.49
		c0.35-0.01,0.73-0.09,1.01,0.24c-8.47,0.41-16.96,0.24-25.43,0.2c-3.37-0.02-6.74,0.02-10.11-0.07c-3.19-0.08-6.41,0.04-9.62,0.1
		c-3.21,0.06-6.43,0.03-9.65,0c-1-0.01-1.99,0.04-2.95,0.34C438.34,268.46,437.88,268.7,437.72,268.01z"/>
	<path style="fill-rule:evenodd;clip-rule:evenodd;fill:#B5282D;" d="M461,273.04c0.56,0,1.12,0,1.68,0
		C462.12,273.41,461.56,273.41,461,273.04z"/>
	<path style="fill-rule:evenodd;clip-rule:evenodd;fill:#B5282D;" d="M460.52,273.04c0.08,0,0.16,0,0.24,0
		C460.68,273.17,460.6,273.17,460.52,273.04z"/>
</g>
</svg>
