<?xml version="1.0" encoding="utf-8"?>
<!-- Generator: Adobe Illustrator 16.0.0, SVG Export Plug-In . SVG Version: 6.00 Build 0)  -->
<!DOCTYPE svg PUBLIC "-//W3C//DTD SVG 1.0//EN" "http://www.w3.org/TR/2001/REC-SVG-20010904/DTD/svg10.dtd" [
	<!ENTITY ns_flows "http://ns.adobe.com/Flows/1.0/">
	<!ENTITY ns_extend "http://ns.adobe.com/Extensibility/1.0/">
	<!ENTITY ns_ai "http://ns.adobe.com/AdobeIllustrator/10.0/">
	<!ENTITY ns_graphs "http://ns.adobe.com/Graphs/1.0/">
]>
<svg version="1.0" id="Layer_1" xmlns:x="&ns_extend;" xmlns:i="&ns_ai;" xmlns:graph="&ns_graphs;"
	 xmlns="http://www.w3.org/2000/svg" xmlns:xlink="http://www.w3.org/1999/xlink" xmlns:a="http://ns.adobe.com/AdobeSVGViewerExtensions/3.0/"
	 x="0px" y="0px" width="960px" height="560px" viewBox="0 0 960 560" style="enable-background:new 0 0 960 560;"
	 xml:space="preserve">
<g>
	<path style="fill-rule:evenodd;clip-rule:evenodd;fill:#232322;" d="M502.73,264.14c-0.14-0.86-0.82-0.99-1.51-1.24
		c-1.55-0.57-3.09-0.55-4.7-0.31c-1.08,0.16-2-0.02-2.35-1.48c-0.69-2.86-2.38-5.24-4.64-7.03c-1.83-1.45-4.19-1.71-6.51-1.41
		c-3.03,0.39-4.64,2.46-4.32,5.39c0.04,0.33,0.4,0.76,0.05,0.96c-0.17,0.1-0.61-0.27-0.94-0.39c-0.47-0.17-1.11-1.09-1.3,0.25
		c0.07,0.59,0.39,1.24,0.18,1.76c-0.36,0.87-0.95-0.43-1.44,0.01c-0.22,0.12-0.44,0.25-0.66,0.37c-0.03,0-0.05,0.03-0.07,0.09
		c-0.02,0.06,0.02,0.1,0.11,0.14c2.83,1.36,5.29,3.36,8.18,4.61c0.53,0.23,0.24,0.57,0.18,0.89c-0.1,0.58-0.45,0.4-0.8,0.28
		c-1.28-0.45-2.56-0.88-3.84-1.35c-0.94-0.34-2.09-0.46-1.89-1.97c0.04-0.29-0.37-0.7-0.66-0.94c-1.35-1.16-3.8-0.93-4.87,0.42
		c-1.2,1.52-1.01,3.8,0.44,4.95c0.9,0.71,2.05,1.02,2.85,0.19c1.02-1.06,1.92-0.78,2.96-0.31c0.23,0.09,0.46,0.12,0.6-0.15
		c-0.16-0.6-0.79-0.62-1.18-0.93c-0.17-0.13-0.3-0.29-0.24-0.5c0.08-0.28,0.31-0.37,0.57-0.3c1.62,0.45,3.18,1.06,4.73,1.7
		c0.23,0.09,0.37,0.32,0.29,0.59c-0.09,0.29-0.33,0.31-0.58,0.28c-0.52-0.05-1-0.3-1.53-0.24c-0.22,0.07-0.47,0.12-0.42,0.45
		c0.95,0.65,3.06,0.46,1.9,2.63c-0.15,0.26-0.15,0.47,0.2,0.56c0.37-0.16,0.48-0.51,0.6-0.85c0.68-1.87,1.39-3.73,2.04-5.62
		c0.08-0.27,0.15-0.53,0.26-0.79c0.07-0.15,0.14-0.29,0.21-0.43c0.05-0.09,0.11-0.18,0.16-0.27c0.61-0.94,1.3-0.38,1.99-0.11
		c0.24,0.21,0.13,0.46,0.08,0.7c-0.07,0.32-0.16,0.64-0.28,0.95c-0.21,1.12-1.01,2.08-0.86,3.29c0.08,0.18,0.21,0.31,0.38,0.39
		c0.73,0.14,1.38,0.61,2.17,0.46c0.18-0.08,0.32-0.19,0.26-0.43c-0.47-0.2-0.94-0.44-1.42-0.6c-1.06-0.35-0.47-0.93-0.22-1.46
		c0.03-0.06,0.13-0.12,0.18-0.12c1.81,0.24,3.52-0.56,5.27-0.56c1.42,0,2.85,0.14,4.28,0c1.37-0.13,2.7-0.08,3.94,0.62
		c0.3,0.17,0.6,0.71,0.91,0.39c0.26-0.27,0.05-0.78-0.19-1.14c-0.01,0-0.02,0.01-0.04,0l0.02-0.03c0,0.01,0.01,0.02,0.01,0.02
		c0.91,0,0.7-1.26,1.16-1.29C503.95,265.17,502.8,264.54,502.73,264.14z M490.36,261.66c-0.15,0.84-0.59,1.49-1.44,1.74
		c-0.48,0.14-0.97,0.33-0.7-0.6c0.28-0.96,0.47-2.07-0.79-2.54c-1.26-0.47-1.94,0.39-2.41,1.38c-0.33,0.68-0.54,0.52-0.85,0.02
		c-0.45-0.75-0.48-1.52-0.03-2.27c0.63-1.03,1.58-1.54,3.09-1.59C489.11,257.83,490.73,259.64,490.36,261.66z"/>
	<path style="fill-rule:evenodd;clip-rule:evenodd;fill:#242422;" d="M476.31,297.33c-0.58,3.11-0.45,3.49,2.76,3.33
		c5.96-0.3,11.58-1.62,15.35-6.91c0.23-0.32,0.39-0.7,0.62-1.02c0.71-0.96,0.92-1.73-0.59-2.11c-0.69-0.17-0.93-0.7-0.27-1.2
		c1.78-1.36,3.59-2.66,5.38-4c0.47-0.35,0.66-0.03,0.77,0.34c0.67,2.22,1.17,4.48,0.92,6.82c-0.1,0.95-0.96,0.7-1.4,0.53
		c-0.8-0.31-1.09,0.09-1.38,0.65c-4.26,8.48-11.75,11.6-20.62,12.4c-1.96,0.18-3.9,0.36-5.7,1.24c-0.76,0.37-1.48,0.8-1.97,1.52
		c-0.19,0.27-0.41,0.6-0.74,0.48c-0.17-0.06-0.26-0.46-0.29-0.73c-0.37-2.76-1.63-4.96-3.68-6.89c-4.08-3.83-7.35-8.27-8.45-13.89
		c-0.58-2.98-0.46-6.05,0.26-9.04c0.17-0.72,0.13-1.18-0.64-1.5c-0.93-0.38-1.15-0.98-0.4-1.83c1.32-1.52,2.87-2.77,4.47-3.95
		c0.66-0.48,1.08-0.43,1.27,0.54c0.38,1.87,0.92,3.71,1.34,5.58c0.25,1.1-0.08,1.69-1.3,1.13c-0.8-0.37-1.08-0.1-1.28,0.71
		c-0.7,2.89-0.58,5.72,0.64,8.44c1.6,3.54,3.79,6.67,6.87,9.1c1.87,1.47,2.45,1.27,3.44-0.9c0.26-0.58,0.5-1.17,0.75-1.76
		c0.22-0.06,0.31,0.08,0.39,0.25c-0.25,1.37-0.47,2.76-1.54,3.8c-0.32,0.28-0.22,0.61-0.1,0.94c0.1,0.24,0.22,0.46,0.36,0.68
		c0.3,0.4,0.71,0.63,1.17,0.77c1.37,0.43,2.21-0.26,2.3-1.88c0.14-0.4,0.29-0.8,0.45-1.2c0.04-0.1,0.08-0.2,0.13-0.29
		c0.06-0.15,0.13-0.3,0.2-0.44c0.08-0.15,0.18-0.29,0.38-0.27C476.45,296.89,476.41,297.11,476.31,297.33z"/>
	<path style="fill-rule:evenodd;clip-rule:evenodd;fill:#282827;" d="M491.72,270.6c0.53,0.18,0.94,0.04,1.4-0.31
		c1.28-0.98,2.68-0.79,3.83,0.41c1.19,1.25,1.32,3.23,0.29,4.61c-0.93,1.24-2.68,1.67-3.93,0.97c-0.54-0.3-1.15-0.74-1.12-1.31
		c0.09-1.51-0.85-1.88-2-2.15c-0.09-0.32,0.15-0.39,0.37-0.47c0.15-0.03,0.31-0.02,0.46,0c0.31,0.03,0.66,0.13,0.83-0.22
		c0.23-0.44-0.18-0.6-0.43-0.82c-0.17-0.16-0.36-0.31-0.32-0.58C491.27,270.46,491.49,270.53,491.72,270.6z"/>
	<path style="fill-rule:evenodd;clip-rule:evenodd;fill:#333332;" d="M485.85,268.9c0.08,0.1,0.17,0.19,0.25,0.29
		c-0.11,1.33,0.71,1.85,1.83,2.18c0.51,0.15,1.12,0.2,1.37,0.82c-0.13,0.28-0.33,0.29-0.56,0.15c-0.16-0.03-0.32-0.05-0.47-0.1
		c-2.9-0.93-2.91-0.93-3.99,1.95c-0.37,0.97-0.72,1.95-1.07,2.92c-0.24,0.03-0.33-0.13-0.41-0.31c-0.01-1.6,0.92-2.91,1.33-4.38
		c0.24-0.87,0.6-1.71,0.95-2.55C485.24,269.48,485.3,268.99,485.85,268.9z"/>
	<path style="fill-rule:evenodd;clip-rule:evenodd;fill:#DBAA2B;" d="M476.5,258.89c0.79,0.68,0.35,1.71,0.68,2.53
		c0.15,0.36-0.24,0.26-0.44,0.15c-0.51-0.3-1.01-0.61-1.51-0.91C475.66,260.06,476.08,259.48,476.5,258.89z"/>
	<path style="fill-rule:evenodd;clip-rule:evenodd;fill:#373736;" d="M476.26,285c0.83-2.22,1.66-4.43,2.49-6.65
		c0.24,0,0.32,0.16,0.38,0.35c-0.18,1.85-1.07,3.48-1.69,5.19c-0.22,0.61-0.23,1.37-0.98,1.69
		C476.11,285.49,476.13,285.27,476.26,285z"/>
	<path style="fill-rule:evenodd;clip-rule:evenodd;fill:#3C3C3B;" d="M479.9,286.48c-0.65,2-1.31,3.99-1.96,5.99
		c-0.23,0.04-0.33-0.1-0.41-0.27c-0.05-0.18-0.06-0.36-0.04-0.54c0.53-1.68,1.06-3.36,1.58-5.04c0.04-0.11,0.09-0.21,0.16-0.31
		c0.08-0.09,0.18-0.14,0.3-0.16C479.73,286.17,479.8,286.34,479.9,286.48z"/>
	<path style="fill-rule:evenodd;clip-rule:evenodd;fill:#3A3A39;" d="M479.9,286.48c-0.1-0.11-0.21-0.22-0.31-0.34
		c-0.1-0.1-0.13-0.23-0.14-0.37c0-0.09,0.02-0.18,0.05-0.26c0.04-0.12,0.08-0.24,0.12-0.37c0.03-0.12,0.07-0.24,0.12-0.36
		c0.04-0.12,0.09-0.23,0.12-0.35c0.03-0.12,0.07-0.24,0.12-0.36c0.05-0.12,0.1-0.24,0.16-0.35c0.03-0.08,0.07-0.16,0.1-0.24
		c0.04-0.12,0.09-0.24,0.13-0.36c0.02-0.08,0.05-0.16,0.08-0.24c0.04-0.12,0.09-0.24,0.13-0.36c0.03-0.12,0.07-0.24,0.12-0.36
		c0.04-0.12,0.09-0.24,0.13-0.36c0.03-0.12,0.07-0.24,0.12-0.36c0.05-0.12,0.1-0.24,0.16-0.35c0.03-0.08,0.07-0.16,0.1-0.24
		c0.05-0.13,0.09-0.25,0.13-0.38c0.03-0.09,0.06-0.17,0.11-0.25c0.05-0.08,0.11-0.15,0.18-0.22c0.08-0.06,0.16-0.09,0.26-0.11
		c0.1,0,0.18,0.05,0.25,0.12C481.38,282.16,480.64,284.32,479.9,286.48z"/>
	<path style="fill-rule:evenodd;clip-rule:evenodd;fill:#414140;" d="M476.26,285c0.08,0.17,0.15,0.34,0.23,0.51
		c0.24,0.65-0.24,1.13-0.37,1.69c-0.04,0.1-0.09,0.2-0.14,0.3c-0.07,0.15-0.14,0.3-0.21,0.45c-0.61,1.36-0.82,2.91-1.88,4.07
		c-0.11,0.05-0.22,0.03-0.32-0.03c-0.06-0.17-0.06-0.33,0.01-0.5C474.48,289.33,475.37,287.16,476.26,285z"/>
	<path style="fill-rule:evenodd;clip-rule:evenodd;fill:#383837;" d="M481.31,271.58c0.06,0.16,0.12,0.33,0.19,0.49
		c0.37,0.71-0.16,1.28-0.36,1.87c-0.4,1.13-0.57,2.37-1.52,3.24c-0.22-0.03-0.36-0.11-0.26-0.37
		C480,275.07,480.66,273.32,481.31,271.58z"/>
	<path style="fill-rule:evenodd;clip-rule:evenodd;fill:#444443;" d="M491.72,270.6c-0.19,0.09-0.37,0.19-0.56,0.28
		c-1.17,0.12-2.2-0.13-2.93-1.15c0.1-0.1,0.19-0.19,0.29-0.29C489.58,269.83,490.65,270.21,491.72,270.6z"/>
	<path style="fill-rule:evenodd;clip-rule:evenodd;fill:#464545;" d="M479.89,268.71c-0.16,0.08-0.32,0.16-0.49,0.24
		c-0.78-0.21-1.56-0.43-2.23-0.91c0.18-0.08,0.36-0.17,0.54-0.26C478.63,267.62,479.41,267.81,479.89,268.71z"/>
	<path style="fill-rule:evenodd;clip-rule:evenodd;fill:#444343;" d="M477.66,292.15c0.09,0.11,0.18,0.22,0.27,0.33
		c0.02,0.07,0.02,0.15-0.01,0.22c-0.06,0.09-0.11,0.19-0.14,0.3c-0.27,0.71-0.54,1.42-0.81,2.13c-0.1,0.04-0.19,0.03-0.28-0.04
		c-0.14-0.17-0.15-0.37-0.12-0.58c0.03-0.14,0.08-0.29,0.12-0.42c0.04-0.14,0.09-0.28,0.14-0.41c0.05-0.14,0.09-0.28,0.14-0.42
		c0.02-0.1,0.05-0.19,0.08-0.29C477.2,292.64,477.23,292.25,477.66,292.15z"/>
	<path style="fill-rule:evenodd;clip-rule:evenodd;fill:#484847;" d="M472.68,294.64c-0.08-0.08-0.15-0.16-0.23-0.24
		c0.31-0.8,0.62-1.61,0.94-2.41c0.08-0.11,0.15-0.11,0.23,0l0.03,0.02C473.9,293.05,473.52,294.08,472.68,294.64z"/>
	<path style="fill-rule:evenodd;clip-rule:evenodd;fill:#595858;" d="M488.74,272.33c0.17-0.08,0.33-0.17,0.5-0.25
		c0.65-0.37,1.15-0.29,1.46,0.45c-0.17,0.09-0.34,0.19-0.51,0.28C489.65,272.81,489.18,272.62,488.74,272.33z"/>
	<path style="fill-rule:evenodd;clip-rule:evenodd;fill:#4E4D4D;" d="M476.77,295.12c0.07,0,0.14,0,0.21,0
		c-0.22,0.74-0.45,1.47-0.67,2.21c-0.08-0.17-0.16-0.33-0.24-0.5c-0.18-0.14-0.1-0.31-0.06-0.48c0.03-0.08,0.06-0.16,0.1-0.24
		c0.05-0.11,0.11-0.22,0.15-0.34c0.02-0.08,0.04-0.16,0.07-0.24c0.03-0.08,0.06-0.16,0.11-0.23c0.06-0.07,0.12-0.12,0.2-0.16
		C476.68,295.13,476.72,295.13,476.77,295.12z"/>
	<path style="fill-rule:evenodd;clip-rule:evenodd;fill:#6C6C6B;" d="M482.12,280.01c-0.11,0-0.21,0-0.32,0
		c-0.07-0.08-0.1-0.17-0.11-0.27c0.02-0.2,0.08-0.4,0.14-0.59c0.14-0.33,0.17-0.72,0.57-0.89c0.2,0,0.25,0.15,0.31,0.3
		C482.52,279.03,482.32,279.52,482.12,280.01z"/>
	<path style="fill-rule:evenodd;clip-rule:evenodd;fill:#626161;" d="M479.35,276.81c0.08,0.09,0.16,0.18,0.24,0.27
		c0.22,0.69,0.06,1.21-0.65,1.49c-0.06-0.07-0.12-0.15-0.18-0.22C478.95,277.84,479.15,277.33,479.35,276.81z"/>
	<path style="fill-rule:evenodd;clip-rule:evenodd;fill:#575756;" d="M482.71,278.54c-0.08-0.09-0.15-0.18-0.23-0.27
		c-0.3-0.63-0.2-1.13,0.48-1.44c0.08,0.09,0.16,0.18,0.24,0.27C483.04,277.58,482.88,278.06,482.71,278.54z"/>
	<path style="fill-rule:evenodd;clip-rule:evenodd;fill:#ADACAC;" d="M474.58,261.02c0.02,0.08,0.04,0.15,0.05,0.23
		c-0.18-0.02-0.37-0.05-0.55-0.07C474.24,261.13,474.41,261.08,474.58,261.02z"/>
	<path style="fill-rule:evenodd;clip-rule:evenodd;fill:#9F9D9A;" d="M473.63,291.99l-0.12-0.02l-0.12,0.02
		c0.07-0.17,0.13-0.34,0.2-0.5C473.6,291.66,473.62,291.82,473.63,291.99z"/>
	<path style="fill-rule:evenodd;clip-rule:evenodd;fill:#AEACA9;" d="M477.79,292.99c0.05-0.1,0.09-0.2,0.14-0.3
		C477.88,292.79,477.84,292.89,477.79,292.99z"/>
	<path style="fill-rule:evenodd;clip-rule:evenodd;fill:#8D8E8B;" d="M462.78,291.56c1.59,2.18,2.95,4.58,5.35,6.04
		c0.41,0.25,0.81,0.52,1.25,0.69c0.69,0.27,1.04,0.72,1.24,1.46c0.55,2.09,2.24,2.77,3.99,1.55c0.9-0.63,1.64-0.37,2.56-0.23
		c2.38,0.38,4.75,0.1,7.07-0.53c0.92-0.25,1.85-0.44,2.78-0.66c0.17-0.09,0.37-0.07,0.53-0.17c0.07-0.03,0.15-0.05,0.23-0.05
		c0.68,0.48-0.03,0.67-0.2,0.97c-0.09,0.08-0.19,0.14-0.3,0.19c-0.27,0.11-0.54,0.25-0.79,0.42c-1.82,0.88-3.81,1.14-5.74,1.59
		c-0.43,0.1-0.86,0.17-1.27,0.32c-1.21,0.44-2.39,0.54-3.6-0.02c-0.67-0.31-1.43-0.39-2.11-0.19c-1.48,0.43-2.54-0.21-3.58-1.11
		c-1.06-0.92-1.85-2.09-2.82-3.09c-0.74-0.75-1.58-1.34-2.47-1.87c-1.72-1.02-2.21-2.74-2.55-4.52
		C462.29,292.05,462.24,291.61,462.78,291.56z"/>
	<path style="fill-rule:evenodd;clip-rule:evenodd;fill:#6F6F6E;" d="M462.78,291.56c-0.13,1.67,0.09,3.4,1.5,4.35
		c2.28,1.54,4.1,3.49,5.94,5.48c0.94,1.03,2.04,1.79,3.59,1.2c0.38-0.14,0.91-0.14,1.3-0.01c4.13,1.38,7.72-0.76,11.49-1.71
		c0.19-0.22,0.53-0.02,0.72-0.24l0,0c0.79-0.48,1.56-0.97,2.17-1.68c0.7-0.41,1.39-0.81,2.09-1.21c0.4-0.18,0.8-0.36,1.25-0.19
		c0.55,0.33,0.23,0.66-0.04,0.94c-0.27,0.29-0.62,0.48-0.9,0.75c-0.09,0.08-0.19,0.15-0.29,0.21c-1.39,0.85-2.72,1.84-4.38,2.16
		c-2.3,0.45-4.49,1.33-6.8,1.8c-1.77,0.35-3.5,0.68-5.28,0.07c-0.45-0.16-0.96-0.19-1.42-0.07c-1.74,0.45-3-0.35-4.16-1.48
		c-1.11-1.09-2.01-2.38-3.18-3.4c-0.79-0.83-1.96-1.22-2.62-2.21c-0.07-0.08-0.13-0.17-0.2-0.25c-0.08-0.08-0.14-0.16-0.21-0.25
		c-0.09-0.16-0.19-0.31-0.28-0.46c-0.07-0.08-0.14-0.17-0.21-0.25c-0.03-0.07-0.04-0.13-0.05-0.2c-0.51-1.02-0.92-2.07-1.11-3.2
		c-0.07-0.42-0.29-0.95,0.39-1.13c0.09,0.14,0.19,0.28,0.28,0.42c0.06,0.11,0.14,0.19,0.24,0.26
		C462.67,291.37,462.73,291.47,462.78,291.56z"/>
	<path style="fill-rule:evenodd;clip-rule:evenodd;fill:#5D5D5C;" d="M462.09,290.58c-0.42,1.11,0.34,2.03,0.47,3.05
		c0.05,0.43,0.17,0.85,0.26,1.28c-2.87-4.32-4.88-8.88-4.07-14.27c0.15-1.01,0.03-2.06,0.02-3.09c0-0.53,0.02-1.04,0.44-1.43
		c0.72-0.03,1.18,0.32,1.44,0.97c0.03,1.02-0.4,1.94-0.65,2.9c-0.87,2.62-1.21,5.21,0.46,7.68
		C461,288.65,461.55,289.62,462.09,290.58z"/>
	<path style="fill-rule:evenodd;clip-rule:evenodd;fill:#5B5B5A;" d="M466.44,298.24c1.41,0.96,2.24,2.46,3.46,3.6
		c1.05,0.98,2.1,1.84,3.7,1.24c0.38-0.14,0.92-0.15,1.3,0c3.17,1.33,6.04-0.34,9.02-0.86c1.15-0.2,2.15-1.03,3.41-0.85
		c0.06,0.3-0.14,0.45-0.36,0.54c-2.78,1.19-5.63,2.14-8.69,2.33c-0.12-0.06-0.23-0.12-0.34-0.2c-5.99,0.96-10.1-1.95-13.41-6.51
		C465.42,297.09,465.77,298.09,466.44,298.24z"/>
	<path style="fill-rule:evenodd;clip-rule:evenodd;fill:#575655;" d="M499.09,290.88c0-0.24,0.01-0.48,0-0.72
		c-0.03-0.58,0.12-1.28-0.63-1.51c-0.68-0.21-0.96,0.37-1.31,0.8c-0.53,0.67-1,1.51-2.1,0.85c-0.55-0.32-0.59-0.56-0.07-0.94
		c1.35-0.98,2.7-1.96,4-2.99c0.66-0.52,0.88-0.21,1.06,0.4c0.47,1.57,0.8,3.16,0.71,4.8c-0.02,0.35,0.39,1.11-0.52,0.99
		c-0.59-0.08-1.52,0.08-1.15-1.09c0.06-0.18,0.01-0.4,0.01-0.59C499.08,290.88,499.08,290.88,499.09,290.88z"/>
	<path style="fill-rule:evenodd;clip-rule:evenodd;fill:#575656;" d="M460.4,274.73c-0.98,0.16-1.5,0.88-1.94,1.64
		c-0.42,0.73-0.84,0.97-1.61,0.44c-0.95-0.66-0.03-1.07,0.22-1.39c0.95-1.18,2.16-2.1,3.37-3.01c0.59-0.45,0.96-0.36,1.13,0.32
		c0.42,1.65,0.8,3.32,1.2,4.97c0.1,0.41-0.04,0.68-0.46,0.59c-0.67-0.13-1.37-0.32-1.32-1.24c0.03-0.51,0.15-1.02,0.12-1.53
		C461.1,275.12,460.9,274.75,460.4,274.73z"/>
	<path style="fill-rule:evenodd;clip-rule:evenodd;fill:#424342;" d="M467.88,303.52c-1.85-3.13-4.67-5.47-6.81-8.36
		c-1.56-2.11-1.99-4.7-2.54-7.21c-0.03-0.15,0.03-0.31,0.04-0.47c0.1,0.14,0.24,0.27,0.28,0.42c1.25,3.97,3.52,7.37,5.97,10.66
		c0.68,0.92,1.55,1.7,2.33,2.55c0.08,0.08,0.16,0.17,0.25,0.24l-0.01,0c0.08,0.09,0.16,0.17,0.25,0.25l0-0.01
		C467.99,302.2,468.42,302.8,467.88,303.52z"/>
	<path style="fill-rule:evenodd;clip-rule:evenodd;fill:#464847;" d="M489,302.08c-1.37,0.55-2.18,2.11-3.84,2.15
		c-1.34-0.08-2.62,0.51-3.97,0.38c-0.44-0.04-0.89,0.06-1.11-0.45c0.56-0.56,1.33-0.57,2.03-0.75c3.41-0.89,6.71-2.02,9.54-4.22
		l-0.01,0.01c0.91-0.48,1.54-1.29,2.35-1.9c0.9-0.1,0.89,0.33,0.46,0.88c-0.64,0.81-1.31,1.61-2.32,2v0
		C490.98,300.63,490.02,301.4,489,302.08z"/>
	<path style="fill-rule:evenodd;clip-rule:evenodd;fill:#90918E;" d="M493.08,297.76c-0.5,0-1.01-0.01-1.51-0.01
		c0.16-0.17,0.33-0.34,0.49-0.51c0.13-0.03,0.22-0.12,0.27-0.24c1.73-1.78,3.21-3.73,4.23-6.01c0.13-0.29,0.31-0.56,0.52-0.79
		c0.37-0.4,0.66-1.27,1.3-0.85c0.62,0.41,0.48,1.23,0.04,1.83c-1.37,1.88-2.78,3.74-4.17,5.6c-0.09,0.21-0.14,0.44-0.36,0.56
		c-0.16,0.09-0.27,0.24-0.42,0.34c-0.08,0.04-0.17,0.07-0.26,0.08C493.17,297.76,493.13,297.76,493.08,297.76z"/>
	<path style="fill-rule:evenodd;clip-rule:evenodd;fill:#494C4B;" d="M467.88,303.52c-0.08-0.64-0.16-1.28-0.24-1.93
		c0.98,0.66,1.99,1.28,2.94,1.99c0.64,0.47,1.3,0.74,2.09,0.68c0.16,0.13,0.33,0.13,0.49,0.01c0.08,0,0.15,0,0.23,0
		c0.09,0.07,0.17,0.14,0.25,0.22c0.08,0,0.16,0,0.24,0c0.08-0.08,0.16-0.08,0.24,0c0.63,0,1.27,0.01,1.9,0.01
		c-0.01,0.57-0.46,0.46-0.78,0.46c-1.6-0.04-3.03,0.53-4.36,1.34c-0.68,0.41-1.24,0.47-1.8-0.13
		C468.69,305.27,468.28,304.39,467.88,303.52z"/>
	<path style="fill-rule:evenodd;clip-rule:evenodd;fill:#676765;" d="M471.27,300.14c-0.09-0.23-0.19-0.46-0.28-0.69
		c0.02-0.06,0.03-0.12,0.05-0.18c1.67-1.33,2.42-3.19,3.02-5.14c0.27-0.88,0.66-1.7,1.06-2.52c0.2-0.4,0.5-0.77,1.02-0.66
		c0.58,0.13,0.5,0.63,0.48,1.07c-0.03,0.63,0.03,1.27-0.11,1.9c-0.18,0.51-0.12,1.07-0.23,1.59c0.01,0.23-0.07,0.45-0.12,0.68
		c-0.19,0.5-0.44,0.99-0.39,1.56c-0.16,0.4-0.31,0.8-0.47,1.2c-0.57-0.03-0.38-0.48-0.43-0.79c-0.06-0.39,0.05-1.05-0.22-1.1
		c-0.43-0.08-0.56,0.55-0.78,0.88c-0.51,0.76-1.01,1.52-1.83,2C471.79,300.07,471.58,300.27,471.27,300.14z"/>
	<path style="fill-rule:evenodd;clip-rule:evenodd;fill:#5C5B5A;" d="M471.27,300.14c1.38-0.76,2.16-2.05,2.96-3.32
		c0.14-0.21,0.17-0.65,0.51-0.52c0.18,0.07,0.28,0.46,0.32,0.72c0.11,0.63,0.16,1.28,0.23,1.91c0.18,1.04,0.01,1.86-1.17,2.21
		C472.91,301.51,471.98,301.15,471.27,300.14z"/>
	<path style="fill-rule:evenodd;clip-rule:evenodd;fill:#3A3B3A;" d="M469.09,306.15c1.15,0.65,1.95-0.24,2.83-0.68
		c1.3-0.64,2.73-0.67,4.1-0.98c0.62-0.21,1.45,0.43,1.91-0.46c0.09,0,0.19-0.01,0.28-0.01c0.64,0.4,1.26-0.31,1.9-0.02
		c1.2,1.05,2.48,0.19,3.71,0.14c0.46-0.02,0.9-0.31,1.33,0.09c-1.73,0.69-3.58,0.59-5.38,0.69c-3.32,0.19-6.7-0.06-9.64,2
		C469.29,307.52,469.35,306.54,469.09,306.15z"/>
	<path style="fill-rule:evenodd;clip-rule:evenodd;fill:#9F9D9A;" d="M472.68,294.64c0.45-0.83,0.85-1.68,0.97-2.63
		c0.97-1.3,1.26-2.92,1.97-4.34c0.05-0.09,0.11-0.18,0.17-0.26c0-0.07,0.02-0.13,0.05-0.19c0.46,0.01,0.37,0.35,0.37,0.63
		c-0.3,0.83-0.61,1.66-0.86,2.52c-0.03,0.11-0.06,0.21-0.1,0.32c-0.11,0.27-0.1,0.56-0.17,0.83c-0.67,1.78-1.18,3.61-2.01,5.31
		c-0.42,0.86-0.77,1.99-2.11,1.92c-0.09-0.18-0.11-0.35,0.03-0.52c1.06-0.39,0.8-1.51,1.22-2.25
		C472.44,295.58,472.53,295.09,472.68,294.64z"/>
	<path style="fill-rule:evenodd;clip-rule:evenodd;fill:#7A7B79;" d="M460.46,287.68c-2.09-1.46-1.45-3.63-1.35-5.59
		c0.04-0.71-0.03-1.66,0.89-2.09C459.79,282.58,459.75,285.15,460.46,287.68z"/>
	<path style="fill-rule:evenodd;clip-rule:evenodd;fill:#3B3C3A;" d="M493.77,297.26c0.17-0.16,0.33-0.32,0.5-0.48
		c1.01,0.06,0.99-1.11,1.69-1.42c0.32-0.08,0.63-0.6,0.96,0c-1.36,1.01-1.91,2.66-3.05,3.85c-0.47,0.49-0.87,1.18-1.74,0.96
		c0.71-0.67,1.43-1.33,2.11-2.04c0.19-0.19,0.8-0.72-0.2-0.61C493.94,297.44,493.79,297.41,493.77,297.26z"/>
	<path style="fill-rule:evenodd;clip-rule:evenodd;fill:#494B4A;" d="M496.91,295.35c-0.32-0.38-0.64,0.29-0.96,0
		c0.33-0.49,0.64-0.98,0.98-1.46c0.19-0.27,0.41-0.77,0.76-0.54c0.4,0.26,0.1,0.69-0.13,1.02
		C497.35,294.7,497.13,295.03,496.91,295.35z"/>
	<path style="fill-rule:evenodd;clip-rule:evenodd;fill:#767675;" d="M460.65,277.1c-0.48-0.32-0.96-0.65-1.44-0.97
		c0.08-0.08,0.16-0.15,0.24-0.23c0.11-0.05,0.2-0.14,0.26-0.25C460.63,275.23,460.75,275.42,460.65,277.1z"/>
	<path style="fill-rule:evenodd;clip-rule:evenodd;fill:#818280;" d="M489.49,298.96c-0.43,1.04-0.97,1.47-2.17,1.68
		c0.02-0.39,0.73-0.45,0.46-0.97c0.23-0.08,0.47-0.17,0.7-0.25c0.16-0.11,0.37-0.07,0.52-0.19
		C489.16,299.14,489.32,299.05,489.49,298.96z"/>
	<path style="fill-rule:evenodd;clip-rule:evenodd;fill:#454644;" d="M458.3,280.33c-0.11,0.36,0.18,0.77-0.2,1.05
		c-0.17-0.48-0.44-0.95-0.49-1.44c-0.04-0.34,0.15-1.07,0.41-0.96C458.58,279.2,458.16,279.89,458.3,280.33z"/>
	<path style="fill-rule:evenodd;clip-rule:evenodd;fill:#3B3C3A;" d="M489,302.08c0.89-0.88,1.79-1.75,3.13-1.91
		C491.16,300.93,490.16,301.63,489,302.08z"/>
	<path style="fill-rule:evenodd;clip-rule:evenodd;fill:#5D5D5C;" d="M466.44,298.24c-0.73,0.01-1.15-0.82-1.91-0.72l-0.01,0
		c-0.07-0.07-0.14-0.14-0.19-0.22c-0.19-0.32-0.38-0.64-0.57-0.95C464.6,297.05,465.72,297.36,466.44,298.24z"/>
	<path style="fill-rule:evenodd;clip-rule:evenodd;fill:#767574;" d="M475.77,297.74c-0.38-0.56,0.01-0.98,0.26-1.42
		c0.07-0.12,0.14-0.12,0.21,0c-0.06,0.17-0.11,0.34-0.17,0.52c-0.03,0.15-0.07,0.3-0.1,0.45c-0.04,0.09-0.1,0.17-0.17,0.24
		C475.8,297.59,475.79,297.67,475.77,297.74z"/>
	<path style="fill-rule:evenodd;clip-rule:evenodd;fill:#676765;" d="M471,298.24c0.01,0.15,0.01,0.31,0.02,0.46
		c0.21,0.23,0.16,0.46,0.02,0.7l-0.04,0.05C470.7,299.04,470.61,298.64,471,298.24z"/>
	<path style="fill-rule:evenodd;clip-rule:evenodd;fill:#6F6F6E;" d="M489,299.22c-0.17,0.06-0.34,0.13-0.52,0.19
		C488.66,299.35,488.83,299.29,489,299.22z"/>
	<path style="fill-rule:evenodd;clip-rule:evenodd;fill:#818280;" d="M487.55,299.72c-0.18,0.06-0.35,0.11-0.53,0.17
		C487.2,299.83,487.38,299.78,487.55,299.72z"/>
	<path style="fill-rule:evenodd;clip-rule:evenodd;fill:#3A3B3A;" d="M473.17,304.26c-0.17,0.22-0.33,0.22-0.49-0.01
		C472.84,304.25,473,304.26,473.17,304.26z"/>
	<path style="fill-rule:evenodd;clip-rule:evenodd;fill:#5D5D5C;" d="M462.87,295.12c0.07,0.08,0.14,0.17,0.21,0.25
		C463.01,295.29,462.94,295.2,462.87,295.12z"/>
	<path style="fill-rule:evenodd;clip-rule:evenodd;fill:#5D5D5C;" d="M463.35,295.84c0.07,0.08,0.14,0.16,0.21,0.25
		C463.49,296,463.42,295.92,463.35,295.84z"/>
	<path style="fill-rule:evenodd;clip-rule:evenodd;fill:#6F6F6E;" d="M492.33,297c-0.09,0.08-0.18,0.16-0.27,0.24
		C492.15,297.16,492.24,297.08,492.33,297z"/>
	<path style="fill-rule:evenodd;clip-rule:evenodd;fill:#5B5B5A;" d="M464.33,297.29c0.06,0.07,0.13,0.15,0.19,0.22
		C464.46,297.44,464.39,297.36,464.33,297.29z"/>
	<path style="fill-rule:evenodd;clip-rule:evenodd;fill:#676765;" d="M475.8,297.52c0.06-0.08,0.11-0.16,0.17-0.24
		C475.91,297.36,475.86,297.44,475.8,297.52z"/>
	<path style="fill-rule:evenodd;clip-rule:evenodd;fill:#5D5D5C;" d="M459.7,275.65c-0.09,0.08-0.17,0.16-0.26,0.25
		C459.53,275.81,459.62,275.73,459.7,275.65z"/>
	<path style="fill-rule:evenodd;clip-rule:evenodd;fill:#5D5D5C;" d="M462.61,291.27c-0.08-0.09-0.16-0.18-0.24-0.26
		C462.45,291.1,462.53,291.19,462.61,291.27z"/>
	<path style="fill-rule:evenodd;clip-rule:evenodd;fill:#494C4B;" d="M467.41,301.36c-0.08-0.08-0.16-0.16-0.25-0.24
		C467.24,301.2,467.32,301.28,467.41,301.36z"/>
	<path style="fill-rule:evenodd;clip-rule:evenodd;fill:#494C4B;" d="M467.65,301.6c-0.08-0.08-0.16-0.16-0.25-0.25
		C467.48,301.43,467.56,301.52,467.65,301.6z"/>
	<path style="fill-rule:evenodd;clip-rule:evenodd;fill:#3A3B3A;" d="M473.64,304.48c-0.08-0.07-0.17-0.14-0.25-0.22
		C473.47,304.33,473.56,304.41,473.64,304.48z"/>
	<path style="fill-rule:evenodd;clip-rule:evenodd;fill:#3A3B3A;" d="M474.12,304.48c-0.08,0-0.16,0-0.24,0
		C473.96,304.35,474.04,304.35,474.12,304.48z"/>
	<path style="fill-rule:evenodd;clip-rule:evenodd;fill:#838280;" d="M476.52,295.36c-0.01,0.08-0.03,0.15-0.05,0.23
		c-0.11,0.07-0.2,0.05-0.29-0.05c-0.04-0.23-0.04-0.46,0.01-0.68c0.12-0.33,0.05-0.69,0.18-1.01c0.05-0.34,0.01-0.68,0.03-1.02
		c0.12-0.32,0.11-0.66,0.12-1c0.02-0.21,0.11-0.42,0.06-0.64c0-0.21,0.07-0.41,0.11-0.61c0.03-0.15,0.07-0.29,0.11-0.43
		c0.06-0.18,0.13-0.36,0.18-0.54c0.02-0.09,0.05-0.18,0.09-0.26c0.06-0.17,0.12-0.34,0.17-0.52c0.02-0.09,0.05-0.18,0.08-0.26
		c0.08-0.22,0.11-0.45,0.13-0.68c0.01-0.15,0.04-0.29,0.08-0.43c0.08-0.25,0.15-0.49,0.21-0.74c0.02-0.11,0.05-0.21,0.09-0.31
		c0.69-2.57,1.73-5.03,2.54-7.56c0.21-0.67,0.26-1.03-0.6-0.81c-0.22-0.6,0.14-1.07,0.33-1.58c1.27-3.37,2.48-6.77,3.7-10.15
		c0.11-0.29,0.24-0.59,0.17-0.92c0.09-0.24,0.18-0.49,0.27-0.73c0.05-0.09,0.11-0.17,0.18-0.24h0c0.53,0.34,1.02,0.54,1.53-0.09
		c0.26-0.32,0.67-0.52,1.13-0.4c0.38,0.24,0.24,0.51,0.04,0.78c-0.81,0.53-1.15,1.38-1.46,2.24c-1.71,4.63-3.52,9.23-4.83,14
		c-0.41,0.85-0.67,1.76-0.96,2.65c-0.11,0.27-0.19,0.56-0.29,0.84c-0.76,1.75-1.15,3.61-1.59,5.46c-0.02,0.12-0.06,0.23-0.1,0.34
		c-0.36,0.97-0.7,1.93-0.65,2.99c-0.01,0.08-0.02,0.17-0.02,0.25c-0.07,0.09-0.16,0.18-0.18,0.3c-0.02,0.14-0.05,0.28-0.08,0.43
		c-0.06,0.09-0.12,0.18-0.17,0.28c0,0.23-0.01,0.45-0.01,0.68l-0.04-0.01C476.66,295.2,476.6,295.29,476.52,295.36z"/>
	<path style="fill-rule:evenodd;clip-rule:evenodd;fill:#5B5B5A;" d="M487.59,265.15c0.06-0.64,0.25-1,1.04-1.11
		c1.38-0.21,2.08-1.28,2.26-2.59c0.2-1.45,0.06-2.82-1.56-3.49c-1.44-0.6-2.89-1.21-4.43-0.3c-0.24-0.93,0.48-1.11,1.08-1.21
		c1.64-0.28,3.22-0.02,4.71,0.75l-0.02-0.01c0.09,0.11,0.19,0.21,0.33,0.26c0.71,0.5,1.3,1.11,1.56,1.97
		c-0.07,1.73-0.81,3.26-1.76,4.61C490.09,265.04,488.87,265.35,487.59,265.15z"/>
	<path style="fill-rule:evenodd;clip-rule:evenodd;fill:#91928F;" d="M490.7,272.53c-0.44-0.31-0.93-0.44-1.46-0.45
		c-0.74-0.25-1.48-0.54-2.23-0.76c-1.19-0.35-1.58-1.01-0.91-2.13c0.79-0.13,1.4,0.45,2.13,0.54c0.98,0.38,1.95,0.77,2.93,1.15
		c0.35,0.44,1.4,0.12,1.22,1.1C492.17,273.16,491.39,272.74,490.7,272.53z"/>
	<path style="fill-rule:evenodd;clip-rule:evenodd;fill:#BCBAB7;" d="M482.96,276.84c-0.31,0.43-0.45,0.91-0.48,1.44
		c-0.16,0.34-0.32,0.67-0.47,1.01c-0.12,0.13-0.06,0.35-0.22,0.46c0,0.09,0.01,0.17,0.01,0.26l-0.05-0.02
		c-0.05,0.11-0.13,0.18-0.18,0.29c0,0.08-0.01,0.14-0.05,0.21c-0.11,0.14-0.05,0.35-0.2,0.47c-0.02,0.08-0.04,0.17-0.05,0.25
		c-0.05,0.11-0.15,0.19-0.15,0.32c-0.04,0.13-0.07,0.27-0.11,0.4c-0.05,0.09-0.1,0.19-0.15,0.28c-0.03,0.15-0.07,0.3-0.1,0.44
		c-0.03,0.09-0.08,0.18-0.15,0.25c0.01,0.08-0.01,0.16-0.05,0.23c-0.11,0.14-0.05,0.35-0.2,0.47c-0.02,0.08-0.04,0.17-0.05,0.25
		c-0.05,0.11-0.14,0.19-0.15,0.31c-0.03,0.14-0.07,0.27-0.1,0.41c-0.05,0.09-0.1,0.19-0.15,0.28c-0.03,0.15-0.07,0.29-0.1,0.44
		c-0.03,0.09-0.08,0.18-0.15,0.25c0.01,0.08-0.01,0.16-0.06,0.23c-0.11,0.15-0.04,0.36-0.18,0.5c0.02,0.07,0.01,0.14-0.02,0.21
		c-0.42,0.07-0.4-0.25-0.45-0.51c0-0.1,0.02-0.21,0.04-0.31c0.05-0.14,0.13-0.27,0.17-0.42c0.02-0.14,0.06-0.28,0.12-0.41
		c0.06-0.12,0.12-0.24,0.18-0.37c0.04-0.08,0.08-0.16,0.12-0.23c0.08-0.16,0.08-0.34,0.14-0.5c0.03-0.08,0.07-0.16,0.11-0.24
		c0.05-0.12,0.07-0.25,0.09-0.38c0.02-0.08,0.06-0.17,0.1-0.24c0.09-0.15,0.12-0.33,0.15-0.5c0.03-0.08,0.06-0.17,0.1-0.25
		c0.06-0.12,0.1-0.25,0.14-0.38c0.03-0.08,0.07-0.17,0.12-0.24c0.07-0.12,0.09-0.25,0.13-0.38c0.03-0.08,0.07-0.17,0.11-0.25
		c0.06-0.13,0.08-0.26,0.1-0.39c0.02-0.09,0.06-0.17,0.1-0.25c0.1-0.16,0.12-0.34,0.16-0.52c0.03-0.09,0.07-0.17,0.11-0.26
		c0.07-0.13,0.1-0.27,0.13-0.41c0.03-0.1,0.06-0.19,0.1-0.28c0.11-0.25,0.1-0.52,0.12-0.8c1.29-3.73,2.67-7.42,4.03-11.12
		c0.19-0.52,0.36-1.06,0.71-1.51c0.12-0.16,0.28-0.33,0.5-0.2c0.21,0.12,0.13,0.34,0.07,0.53c-0.34,1.08-0.69,2.15-1.03,3.23
		C484.75,271.5,483.76,274.13,482.96,276.84z"/>
	<path style="fill-rule:evenodd;clip-rule:evenodd;fill:#91928F;" d="M479.89,268.71c-0.73-0.31-1.46-0.62-2.19-0.92
		c-0.48-0.19-0.96-0.38-1.44-0.56c-0.56-0.22-0.48-0.59-0.31-1.06c0.18-0.49,0.38-0.59,0.88-0.41c1.64,0.61,3.29,1.18,4.94,1.77
		c0.45,0.16,0.9,0.27,0.63,0.99c-0.23,0.63-0.5,0.83-1.13,0.59C480.82,268.92,480.35,268.83,479.89,268.71z"/>
	<path style="fill-rule:evenodd;clip-rule:evenodd;fill:#959391;" d="M483.98,265.37c0.45,0.42,0.05,0.84-0.07,1.2
		c-1.21,3.39-2.46,6.76-3.69,10.14c-0.16,0.44-0.23,0.91-0.34,1.37c0.09,0.28,0.1,0.56-0.01,0.82c-1.21,2.87-2.05,5.87-3.32,8.71
		c-0.07,0.15-0.19,0.26-0.33,0.33c-0.06-0.01-0.12-0.02-0.18-0.03c-0.06-0.23-0.13-0.46-0.19-0.69c0.22-0.57,0.43-1.14,0.65-1.71
		c0.88-2.29,1.89-4.54,2.44-6.94c0.22-0.5,0.44-0.99,0.65-1.49c0.63-1.67,1.27-3.35,1.9-5.02
		C482.32,269.83,483.15,267.6,483.98,265.37z"/>
	<path style="fill-rule:evenodd;clip-rule:evenodd;fill:#A8A6A4;" d="M487.59,265.15c0.32-0.29,0.74-0.25,1.13-0.32
		c1.17-0.23,2.04-0.8,2.46-2.01c0.4-1.16,0.92-2.27,1.39-3.41c1.2,2.89-0.94,6.44-3.94,6.51
		C488.13,265.93,487.39,266.13,487.59,265.15z"/>
	<path style="fill-rule:evenodd;clip-rule:evenodd;fill:#6D6C6B;" d="M474.66,267.06c-0.65,1.23-1.56,1.52-2.75,0.76
		c-1.41-0.91-1.71-2.47-0.71-3.92c0.46-0.66,1.04-1.23,1.96-1.16c0.26,0.32,0.05,0.59-0.1,0.86c-1.03,1.77-0.71,2.6,1.22,3.19
		C474.44,266.84,474.56,266.92,474.66,267.06z"/>
	<path style="fill-rule:evenodd;clip-rule:evenodd;fill:#A6A4A1;" d="M481.32,279.52c0,0.08,0,0.16-0.01,0.24
		c-0.15,0.13-0.09,0.35-0.23,0.48c0,0.08,0,0.16-0.01,0.24c-0.15,0.13-0.1,0.35-0.24,0.48l0,0c-0.04,0.03-0.09,0.06-0.13,0.09
		c-0.04-0.03-0.08-0.06-0.12-0.1c0.98-4.49,2.81-8.7,4.35-13.01c0.37-1.05,0.66-2.14,1.39-3.03c0.22-0.27,0.37-0.71,0.8-0.23
		c-0.08,0.33-0.17,0.66-0.25,0.99c-0.63-0.86-0.61,0.16-0.67,0.3c-0.84,2.15-1.65,4.31-2.42,6.48c-0.69,1.94-1.33,3.91-1.99,5.86
		c-0.22,0.19-0.02,0.52-0.24,0.72C481.41,279.17,481.46,279.39,481.32,279.52z"/>
	<path style="fill-rule:evenodd;clip-rule:evenodd;fill:#C7C6C2;" d="M488.53,255.98c0.07,0.01,0.14,0.02,0.21,0.05
		c0.15,0.11,0.36,0.06,0.49,0.21l0,0c-0.1,0.65-0.52,0.39-0.89,0.32c-3.35-0.61-6.05,1.8-5.9,5.25c0.01,0.36,0.26,0.83-0.4,0.9l0,0
		c-0.08-0.07-0.14-0.16-0.17-0.27c-0.75-1.87-0.39-3.59,0.67-5.22c0.16-0.64,0.68-0.92,1.21-1.19c0.14-0.08,0.29-0.14,0.44-0.21
		c0.1-0.05,0.2-0.08,0.31-0.12c0.22-0.07,0.44-0.15,0.67-0.15c0.3,0.07,0.6,0.1,0.9,0.09c0.51,0.04,1.02-0.08,1.52,0.08
		c0.14,0.03,0.29,0.05,0.44,0.08C488.18,255.9,488.38,255.86,488.53,255.98z"/>
	<path style="fill-rule:evenodd;clip-rule:evenodd;fill:#81807E;" d="M482.04,262.72c0.33-0.27,0.13-0.57,0.08-0.88
		c-0.43-2.63,2.31-5.41,4.24-5.73c0.98-0.16,1.9,0.54,2.88,0.14c0.66,0.06,1.1,0.44,1.46,0.95c-1.52-0.16-3-0.73-4.56-0.47
		c-0.56,0.09-1.1,0.25-1.23,0.93c-0.23,0.17-0.46,0.34-0.7,0.51c-1.03,0.76-1.33,1.81-1.18,3.01c0.07,0.55,0.12,1.09,0.16,1.64
		c0.02,0.35,0.19,0.83-0.44,0.88C482.38,263.47,482.13,263.15,482.04,262.72z"/>
	<path style="fill-rule:evenodd;clip-rule:evenodd;fill:#727170;" d="M474.66,267.06c-0.99,0.1-1.94-0.1-2.31-1.07
		c-0.36-0.94-0.35-1.96,0.59-2.72c0.13-0.11,0.15-0.35,0.23-0.53c0.67-0.09,1.31-0.04,1.93,0.26c0.09,0.07,0.18,0.15,0.3,0.18
		c0.06,0,0.12,0.01,0.18,0.04c0.08,0.07,0.16,0.14,0.23,0.22c0.16,0.67,0.08,1.31-0.23,1.92c-0.29-0.21-0.27-0.56-0.36-0.85
		c-0.19-0.61-0.66-0.82-1.21-0.65c-0.69,0.22-0.84,0.83-0.68,1.46c0.16,0.64,0.67,0.73,1.23,0.58c0.33-0.09,0.58-0.44,0.99-0.32
		c0,0.17,0,0.34,0,0.51c-0.07,0.09-0.15,0.18-0.19,0.29C475.11,266.61,474.89,266.83,474.66,267.06z"/>
	<path style="fill-rule:evenodd;clip-rule:evenodd;fill:#AF8433;" d="M481.02,257.21c-0.13-0.09-0.25-0.18-0.38-0.27
		c-1.21-0.88-1.13-2.07,0.33-2.55c1.19-0.39,1.52,0.86,2.07,1.58c0.06,0.2-0.05,0.31-0.2,0.39
		C481.97,256.09,481.76,257.21,481.02,257.21z"/>
	<path style="fill-rule:evenodd;clip-rule:evenodd;fill:#E2AC21;" d="M499.01,263.16c0.61,0.18,1.68-0.11,1.56,0.77
		c-0.1,0.72,0.04,1.75-0.75,2.22c-0.38,0.23-1.93-1.71-1.93-2.4C497.88,262.8,498.65,263.38,499.01,263.16z"/>
	<path style="fill-rule:evenodd;clip-rule:evenodd;fill:#E1AC22;" d="M483.55,255.7c-0.19-0.35-0.37-0.7-0.57-1.04
		c-0.19-0.34-0.64-0.86-0.56-0.96c0.31-0.38,0.85-0.35,1.33-0.33c0.84,0.03,1.52,0.38,2.07,1.02c0.5,0.58,0.24,0.81-0.39,0.89
		C484.83,255.54,484.28,256.02,483.55,255.7z"/>
	<path style="fill-rule:evenodd;clip-rule:evenodd;fill:#BAB8B5;" d="M475.53,265.58c-0.7,0.66-1.52,1.27-2.33,0.34
		c-0.6-0.69-0.46-1.55,0.29-2.21c0.41-0.36,0.87-0.32,1.34-0.16c0.96,0.31,0.61,1.16,0.74,1.81
		C475.55,265.43,475.54,265.51,475.53,265.58z"/>
	<path style="fill-rule:evenodd;clip-rule:evenodd;fill:#5D5C5B;" d="M482.74,263.7c0-0.99-0.06-1.99,0.03-2.97
		c0.09-1.04,0.13-2.18,1.43-2.57c-1.12,1.5-1.41,2.97,0.01,4.5c0.46,0.5,0,1.15-0.34,1.48C483.46,264.53,483.03,264.1,482.74,263.7z
		"/>
	<path style="fill-rule:evenodd;clip-rule:evenodd;fill:#8F8F8D;" d="M487.8,262.01c-0.16,0.4-0.1,1.24-0.93,1.11
		c-0.53-0.08-1.47-0.1-1.31-1.02c0.1-0.62,0.38-1.36,1.29-1.28C487.49,260.87,487.91,261.15,487.8,262.01z"/>
	<path style="fill-rule:evenodd;clip-rule:evenodd;fill:#9A7D3B;" d="M497.41,264.15c0.29,0.51,1,1.21,0.38,1.56
		c-0.6,0.34-1.66,0.46-2.25-0.45c-0.4-0.63-0.93-1.2-0.97-2.01c0.7,0,1.39,0.01,2.09,0.01c0.07,0.1,0.06,0.2-0.03,0.28
		c-0.19,0.13-0.4,0.17-0.62,0.22c-0.36,0.08-0.45,0.29-0.21,0.57c0.19,0.24,0.4,0.48,0.77,0.27
		C496.84,264.45,496.97,264,497.41,264.15z"/>
	<path style="fill-rule:evenodd;clip-rule:evenodd;fill:#DDAA25;" d="M481.25,259c-0.38,0.3,0.03,1.21-0.46,1.1
		c-1.09-0.25-1.44-1.23-1.47-2.3c-0.01-0.26-0.1-0.66,0.39-0.43C480.42,257.7,481.16,258.03,481.25,259z"/>
	<path style="fill-rule:evenodd;clip-rule:evenodd;fill:#727170;" d="M487.09,263.91c-0.41,0.29-0.88,0.52-1.22,0.87
		c-0.78,0.83-1.22,0.71-1.44-0.39C484.93,262.94,485.12,262.91,487.09,263.91z"/>
	<path style="fill-rule:evenodd;clip-rule:evenodd;fill:#9C722D;" d="M478.42,262.55c-0.56-0.12-0.74-0.49-0.67-1.03
		c0.6-0.35,1.16-0.79,1.91-0.72c0.77,0.42,1.07,1.05,0.9,1.9C479.86,262.54,479.16,262.24,478.42,262.55z"/>
	<path style="fill-rule:evenodd;clip-rule:evenodd;fill:#D4A62E;" d="M493.54,262.52c0.4,1.27-0.17,2.15-1.19,2.81
		c-0.19,0.13-0.45,0.47-0.7,0.12c-0.16-0.22,0.03-0.44,0.18-0.63c0.54-0.68,1.12-1.35,1.28-2.25
		C493.23,262.3,493.37,262.32,493.54,262.52z"/>
	<path style="fill-rule:evenodd;clip-rule:evenodd;fill:#805C29;" d="M478.42,262.55c0.78-0.91,1.48-0.58,2.14,0.15
		c0.02,0.37,0.47,0.78,0.11,1.08c-0.32,0.26-0.59-0.23-0.88-0.38C479.32,263.16,478.88,262.83,478.42,262.55z"/>
	<path style="fill-rule:evenodd;clip-rule:evenodd;fill:#E4D09B;" d="M496.67,263.42c0.01-0.05,0-0.1-0.01-0.15
		c0.57,0.03,0.58,0.52,0.75,0.89c-0.92,1.14-1.64,1.2-2.05,0.15c-0.21-0.53-0.16-0.95,0.6-0.83
		C496.22,263.78,496.45,263.75,496.67,263.42z"/>
	<path style="fill-rule:evenodd;clip-rule:evenodd;fill:#A27732;" d="M487.95,254.66c0.13,0.53-0.09,0.59-0.42,0.62
		c-0.86,0.08-0.88-0.63-1.11-1.14c-0.1-0.23-0.08-0.55,0.26-0.48C487.32,253.77,487.92,254,487.95,254.66z"/>
	<path style="fill-rule:evenodd;clip-rule:evenodd;fill:#3E3D39;" d="M483.55,255.7c0.64-0.09,1.19-0.55,1.88-0.42
		c0.15,0.08,0.31,0.16,0.46,0.24c0.08,0.06,0.1,0.11,0.07,0.15c-0.03,0.03-0.07,0.04-0.11,0.04c-0.3,0.04-0.59,0.07-0.89,0.11
		c-0.17,0.06-0.38,0.02-0.51,0.18c-0.07,0.02-0.14,0.04-0.21,0.05c-0.12,0.02-0.2,0.11-0.3,0.15c-0.47,0.34-0.93,0.68-1.4,1.02
		c-0.07-0.08-0.14-0.17-0.21-0.25c-0.22-0.53,0.2-0.59,0.52-0.73c0.06-0.09,0.12-0.18,0.18-0.27
		C483.21,255.88,483.38,255.79,483.55,255.7z"/>
	<path style="fill-rule:evenodd;clip-rule:evenodd;fill:#D8AA2C;" d="M494.24,265.84c-0.28-0.15-0.88,0.23-0.83-0.29
		c0.04-0.45,0.5-0.86,0.77-1.28c0.46,0.3,0.7,0.79,0.77,1.26C495.02,266.05,494.48,265.71,494.24,265.84z"/>
	<path style="fill-rule:evenodd;clip-rule:evenodd;fill:#D0BD89;" d="M482.85,256.24c-0.17,0.24-0.35,0.48-0.52,0.73
		c-0.39,0.35-0.66,1.35-1.31,0.24C481.49,256.62,481.73,255.59,482.85,256.24z"/>
	<path style="fill-rule:evenodd;clip-rule:evenodd;fill:#D1A42F;" d="M490.43,256.22c-0.49-0.16-0.98-0.32-1.47-0.48
		c-0.05-0.08-0.12-0.14-0.2-0.18c-0.12-0.35-0.47-0.83-0.07-1.04c0.29-0.16,0.72,0.22,0.95,0.56c0.27,0.38,0.52,0.77,0.78,1.16
		L490.43,256.22z"/>
	<path style="fill-rule:evenodd;clip-rule:evenodd;fill:#D8AA2F;" d="M482.51,264.91c-1.18-0.15-1.32-0.97-1.22-1.93
		c0.09-0.1,0.18-0.1,0.27-0.01c0.29,0.7,0.82,1.21,1.38,1.69C482.99,265.09,482.76,265.01,482.51,264.91z"/>
	<path style="fill-rule:evenodd;clip-rule:evenodd;fill:#B58E39;" d="M479.67,260.79c-0.59,0.37-1.13,0.85-1.91,0.72
		c-0.01-0.24-0.01-0.48-0.02-0.72c0.38-0.43,0.95-0.25,1.41-0.42C479.32,260.51,479.49,260.65,479.67,260.79z"/>
	<path style="fill-rule:evenodd;clip-rule:evenodd;fill:#CAB67D;" d="M477.63,260.12c-0.09-0.28-0.38-0.73,0.27-0.53
		c0.39,0.12,0.71,0.47,1.07,0.72C478.45,260.74,478.03,260.54,477.63,260.12z"/>
	<path style="fill-rule:evenodd;clip-rule:evenodd;fill:#CEAA4C;" d="M477.63,260.12c0.45,0.06,0.89,0.12,1.34,0.18
		c0.07,0,0.13,0.02,0.18,0.07c-0.34,0.58-0.9,0.39-1.41,0.42C477.7,260.57,477.66,260.35,477.63,260.12z"/>
	<path style="fill-rule:evenodd;clip-rule:evenodd;fill:#534E44;" d="M493.28,261.17c0.04-0.25,0.08-0.44,0.11-0.63
		c0.09,0.24,0.2,0.48,0.26,0.73c0.05,0.19,0,0.38-0.21,0.47C493.38,261.54,493.32,261.33,493.28,261.17z"/>
	<path style="fill-rule:evenodd;clip-rule:evenodd;fill:#726D5A;" d="M481.56,262.98c-0.09,0-0.18,0-0.27,0.01
		c-0.27-0.29-0.28-0.62-0.14-0.97C481.46,262.26,481.5,262.63,481.56,262.98z"/>
	<path style="fill-rule:evenodd;clip-rule:evenodd;fill:#81807E;" d="M485.84,255.71c0.01-0.06,0.02-0.13,0.04-0.19
		c0.57,0.08,1.17-0.18,1.7,0.2C487,255.72,486.42,255.72,485.84,255.71z"/>
	<path style="fill-rule:evenodd;clip-rule:evenodd;fill:#54524B;" d="M488.72,266.59c-0.15-0.05-0.29-0.09-0.43-0.13
		c0.2-0.05,0.39-0.12,0.58-0.13c0.12-0.01,0.25,0.08,0.38,0.13C489.08,266.5,488.9,266.54,488.72,266.59z"/>
	<path style="fill-rule:evenodd;clip-rule:evenodd;fill:#B99E52;" d="M490.46,265.9c0.2-0.08,0.4-0.16,0.6-0.24
		c0.02,0.07,0.07,0.15,0.05,0.21c-0.13,0.36-0.41,0.22-0.66,0.2c-0.08-0.04-0.11-0.08-0.08-0.12
		C490.4,265.92,490.43,265.9,490.46,265.9z"/>
	<path style="fill-rule:evenodd;clip-rule:evenodd;fill:#897D5C;" d="M482.51,264.91c0.14-0.08,0.28-0.16,0.42-0.24
		c0.19,0.07,0.38,0.18,0.16,0.37C482.9,265.21,482.68,265.09,482.51,264.91z"/>
	<path style="fill-rule:evenodd;clip-rule:evenodd;fill:#8F876D;" d="M490.46,265.9c0,0.06,0,0.11-0.01,0.17
		c-0.14,0.21-0.49,0.34-0.52,0.18C489.86,265.96,490.26,266,490.46,265.9z"/>
	<path style="fill-rule:evenodd;clip-rule:evenodd;fill:#FEFEFE;" d="M501.25,266.54c-0.3,0.12-0.41-0.05-0.45-0.31
		c0-0.03,0.08-0.07,0.13-0.1c0.1,0.15,0.2,0.29,0.3,0.44L501.25,266.54z"/>
	<path style="fill-rule:evenodd;clip-rule:evenodd;fill:#81807E;" d="M488.53,255.98c-0.22,0.07-0.38,0-0.51-0.18
		C488.24,255.73,488.4,255.81,488.53,255.98z"/>
	<path style="fill-rule:evenodd;clip-rule:evenodd;fill:#81807E;" d="M489.23,256.25c-0.22,0.05-0.38-0.02-0.49-0.21
		C488.96,255.98,489.12,256.05,489.23,256.25z"/>
	<path style="fill-rule:evenodd;clip-rule:evenodd;fill:#534E44;" d="M493.54,262.52c-0.14,0.01-0.29,0.03-0.43,0.04
		C493.22,262.19,493.37,262.23,493.54,262.52z"/>
	<path style="fill-rule:evenodd;clip-rule:evenodd;fill:#78725F;" d="M490.42,256.23c0.04,0.04,0.08,0.08,0.13,0.11
		c-0.03-0.01-0.06-0.01-0.07-0.02c-0.02-0.03-0.03-0.07-0.04-0.1L490.42,256.23z"/>
	<path style="fill-rule:evenodd;clip-rule:evenodd;fill:#6D6C6B;" d="M475.34,266.38c0.06-0.1,0.12-0.2,0.19-0.29
		C475.47,266.18,475.4,266.28,475.34,266.38z"/>
	<path style="fill-rule:evenodd;clip-rule:evenodd;fill:#81807E;" d="M491.01,257.44c-0.11-0.09-0.22-0.17-0.33-0.26
		C490.79,257.27,490.9,257.35,491.01,257.44z"/>
	<path style="fill-rule:evenodd;clip-rule:evenodd;fill:#81807E;" d="M488.76,255.56c0.07,0.06,0.13,0.12,0.2,0.18
		C488.89,255.68,488.82,255.62,488.76,255.56z"/>
	<path style="fill-rule:evenodd;clip-rule:evenodd;fill:#6D6C6B;" d="M475.39,263.17c-0.1-0.06-0.2-0.12-0.3-0.18
		C475.19,263.06,475.29,263.12,475.39,263.17z"/>
	<path style="fill-rule:evenodd;clip-rule:evenodd;fill:#727170;" d="M484.44,264.39c-0.06,0.08-0.12,0.16-0.18,0.24
		C484.32,264.56,484.38,264.47,484.44,264.39z"/>
	<path style="fill-rule:evenodd;clip-rule:evenodd;fill:#81807E;" d="M481.87,262.45c0.06,0.09,0.12,0.18,0.17,0.27
		C481.98,262.63,481.92,262.54,481.87,262.45z"/>
	<path style="fill-rule:evenodd;clip-rule:evenodd;fill:#6D6C6B;" d="M475.79,263.44c-0.08-0.07-0.15-0.15-0.23-0.22
		C475.64,263.29,475.72,263.36,475.79,263.44z"/>
	<path style="fill-rule:evenodd;clip-rule:evenodd;fill:#787776;" d="M496.2,271.11c1.36,0.97,1.61,2.66,0.6,4
		c-0.8,1.06-2.42,1.23-3.52,0.37c-0.43-0.74-0.66-1.53-0.52-2.38C493.04,271.51,494.07,270.92,496.2,271.11z"/>
	<path style="fill-rule:evenodd;clip-rule:evenodd;fill:#5E5D5C;" d="M496.2,271.11c-0.78,0.58-1.87,0-2.68,0.92
		c-1.04,1.2-0.3,2.3-0.24,3.45c-1.24-1.13-0.85-2.46-0.28-3.66C493.99,269.7,494.34,269.67,496.2,271.11z"/>
	<path style="fill-rule:evenodd;clip-rule:evenodd;fill:#AEACA9;" d="M479.16,285.76c0.01,0.26-0.04,0.54,0.23,0.71
		c-0.48,1.79-0.99,3.56-1.71,5.27c-0.78-0.57-0.01-1.11,0.04-1.67l0,0c0.35-1.25,0.65-2.52,1.03-3.76
		C478.81,286.1,478.69,285.69,479.16,285.76z"/>
	<path style="fill-rule:evenodd;clip-rule:evenodd;fill:#A6A4A1;" d="M477.71,290.07c0.14,0.56-0.54,1.1-0.04,1.67
		c0,0.14-0.01,0.27-0.01,0.41c-0.14,0.35-0.29,0.69-0.43,1.04C476.76,292.05,477.17,291.05,477.71,290.07z"/>
	<path style="fill-rule:evenodd;clip-rule:evenodd;fill:#AEACA9;" d="M479.41,286.26c0.06-0.17,0.12-0.33,0.18-0.5
		c0,0.13,0,0.25,0,0.38C479.53,286.19,479.48,286.23,479.41,286.26z"/>
	<path style="fill-rule:evenodd;clip-rule:evenodd;fill:#AEACA9;" d="M480.36,283.59c0.07-0.16,0.13-0.31,0.2-0.47
		C480.49,283.28,480.42,283.43,480.36,283.59z"/>
	<path style="fill-rule:evenodd;clip-rule:evenodd;fill:#AEACA9;" d="M481.32,280.96c0.07-0.16,0.13-0.31,0.2-0.47
		C481.45,280.64,481.38,280.8,481.32,280.96z"/>
	<path style="fill-rule:evenodd;clip-rule:evenodd;fill:#AEACA9;" d="M480.15,284.15c0.05-0.1,0.1-0.21,0.15-0.31
		C480.25,283.95,480.2,284.05,480.15,284.15z"/>
	<path style="fill-rule:evenodd;clip-rule:evenodd;fill:#AEACA9;" d="M480.61,282.9c0.05-0.08,0.1-0.17,0.15-0.25
		C480.7,282.73,480.66,282.81,480.61,282.9z"/>
	<path style="fill-rule:evenodd;clip-rule:evenodd;fill:#AEACA9;" d="M480.86,282.2c0.05-0.09,0.1-0.19,0.15-0.28
		C480.96,282.02,480.91,282.11,480.86,282.2z"/>
	<path style="fill-rule:evenodd;clip-rule:evenodd;fill:#AEACA9;" d="M481.11,281.52c0.05-0.11,0.1-0.21,0.15-0.32
		C481.21,281.31,481.16,281.41,481.11,281.52z"/>
	<path style="fill-rule:evenodd;clip-rule:evenodd;fill:#AEACA9;" d="M479.65,285.54c0.05-0.08,0.1-0.17,0.15-0.25
		C479.75,285.37,479.7,285.46,479.65,285.54z"/>
	<path style="fill-rule:evenodd;clip-rule:evenodd;fill:#AEACA9;" d="M481.57,280.27c0.06-0.1,0.12-0.19,0.18-0.29
		C481.69,280.08,481.63,280.18,481.57,280.27z"/>
	<path style="fill-rule:evenodd;clip-rule:evenodd;fill:#AEACA9;" d="M479.9,284.84c0.05-0.09,0.1-0.19,0.15-0.28
		C480,284.66,479.95,284.75,479.9,284.84z"/>
	<path style="fill-rule:evenodd;clip-rule:evenodd;fill:#959391;" d="M475.79,287.41c-0.06,0.09-0.11,0.17-0.17,0.26
		C475.68,287.58,475.73,287.5,475.79,287.41z"/>
	<path style="fill-rule:evenodd;clip-rule:evenodd;fill:#7C7B79;" d="M477.03,293.74c0.06-0.1,0.12-0.2,0.18-0.3
		C477.15,293.54,477.09,293.64,477.03,293.74z"/>
	<path style="fill-rule:evenodd;clip-rule:evenodd;fill:#7C7B79;" d="M476.78,294.44c0.06-0.09,0.12-0.18,0.17-0.28
		C476.89,294.26,476.84,294.35,476.78,294.44z"/>
	<path style="fill-rule:evenodd;clip-rule:evenodd;fill:#7C7B79;" d="M476.28,295.6c0.07,0,0.13,0,0.2-0.01c0,0.08,0,0.17,0,0.25
		c-0.05,0.08-0.12,0.16-0.2,0.22c-0.01,0.08-0.03,0.17-0.04,0.25c0,0-0.1,0-0.1,0s-0.1,0-0.1,0c0-0.24,0.01-0.48,0.01-0.72
		C476.12,295.48,476.2,295.47,476.28,295.6z"/>
	<path style="fill-rule:evenodd;clip-rule:evenodd;fill:#767574;" d="M476.52,295.36c0.07-0.08,0.13-0.17,0.2-0.25
		C476.65,295.2,476.59,295.28,476.52,295.36z"/>
	<path style="fill-rule:evenodd;clip-rule:evenodd;fill:#767574;" d="M476.28,296.06c0.07-0.07,0.13-0.15,0.2-0.22
		C476.41,295.92,476.34,295.99,476.28,296.06z"/>
	<path style="fill-rule:evenodd;clip-rule:evenodd;fill:#AEACA9;" d="M481.79,279.75c0.07-0.15,0.15-0.31,0.22-0.46
		C481.94,279.44,481.87,279.59,481.79,279.75z"/>
	<path style="fill-rule:evenodd;clip-rule:evenodd;fill:#818280;" d="M487.32,300.64c-0.18,0.27-0.45,0.24-0.72,0.24
		C486.78,300.6,487.05,300.64,487.32,300.64z"/>
	<path style="fill-rule:evenodd;clip-rule:evenodd;fill:#242422;" d="M480.12,304c-0.63,0.07-1.26,0.53-1.9,0.01
		c3.16-0.47,6.22-1.24,9.1-2.65c1.57-0.47,2.83-1.54,4.31-2.18c-1.13,1.36-2.7,2.06-4.26,2.69
		C485.04,302.84,482.63,303.6,480.12,304z"/>
	<path style="fill-rule:evenodd;clip-rule:evenodd;fill:#2A2A28;" d="M493.77,297.26c0.09,0.09,0.18,0.17,0.27,0.26
		c-0.75,0.63-1.4,1.42-2.41,1.67c0.49-0.48,0.97-0.95,1.46-1.43h0c0.08-0.08,0.16-0.18,0.28-0.21
		C493.5,297.45,493.63,297.36,493.77,297.26z"/>
	<path style="fill-rule:evenodd;clip-rule:evenodd;fill:#6F6F6E;" d="M493.36,297.55c-0.09,0.07-0.19,0.14-0.28,0.21
		C493.18,297.69,493.27,297.62,493.36,297.55z"/>
	<path style="fill-rule:evenodd;clip-rule:evenodd;fill:#767574;" d="M477.24,289.36c0,0.08,0,0.16,0,0.24
		c-0.15,0.13-0.09,0.35-0.24,0.48c0,0.16,0,0.32,0,0.48c-0.15,0.13-0.09,0.35-0.24,0.48c0,0.24,0,0.48,0,0.72
		c-0.27,0.27,0.02,0.68-0.24,0.96c0,0.4,0,0.8-0.01,1.2c-0.04,0.03-0.08,0.06-0.12,0.09c-0.04-0.03-0.08-0.06-0.12-0.09
		c0-0.64,0.02-1.28,0-1.91c-0.01-0.29,0.32-0.68-0.12-0.84c-0.44-0.16-0.65,0.24-0.78,0.56c-0.52,1.29-1,2.59-1.49,3.89
		c-0.58,1.54-1.21,3.04-2.85,3.79c-0.01-0.23-0.01-0.47-0.02-0.7c0.98-0.35,1.55-1.12,1.9-2.03c0.68-1.78,1.29-3.59,1.93-5.39
		c0.23-0.19,0.02-0.53,0.25-0.72l0,0c0.17-0.24,0.26-0.54,0.44-0.78c0.39-1.2,0.99-2.3,1.42-3.49c0.13-0.35,0.4-0.8,0.87-0.6
		c0.46,0.2,0.29,0.65,0.14,1.02v0c-0.23,0.19-0.02,0.53-0.24,0.72c0,0.16,0,0.32,0,0.48c-0.23,0.19-0.02,0.53-0.24,0.72
		c0,0.08,0,0.16,0,0.24C477.33,289,477.39,289.23,477.24,289.36z"/>
	<path style="fill-rule:evenodd;clip-rule:evenodd;fill:#767574;" d="M476.28,295.6c-0.08,0-0.16,0-0.24,0
		c0.09-0.56-0.21-1.17,0.24-1.68l0,0c0.17,0.32,0.17,0.64,0,0.96C476.28,295.12,476.28,295.36,476.28,295.6z"/>
	<path style="fill-rule:evenodd;clip-rule:evenodd;fill:#959391;" d="M475.56,290.08c-0.16,0.16-0.31,0.32-0.47,0.49
		c0.14-0.95,0.35-1.87,0.95-2.65l0.01,0.01C476.31,288.74,475.74,289.37,475.56,290.08z"/>
	<path style="fill-rule:evenodd;clip-rule:evenodd;fill:#959391;" d="M475.09,290.56c0,0.27,0.03,0.54-0.25,0.72
		C474.84,291.01,474.8,290.73,475.09,290.56z"/>
	<path style="fill-rule:evenodd;clip-rule:evenodd;fill:#7C7B79;" d="M475.56,290.08c0.16-0.72,0.32-1.44,0.49-2.16
		c1.28-3.28,2.56-6.56,3.84-9.84c0.46-0.24,0.44-1.27,0.95-1.02c0.66,0.33,0.1,1.08-0.07,1.59c-0.9,2.7-1.86,5.38-2.8,8.06
		c-0.06-0.29,0.16-0.76-0.25-0.82c-0.46-0.07-0.66,0.41-0.79,0.77C476.5,287.82,476.27,289.05,475.56,290.08z"/>
	<path style="fill-rule:evenodd;clip-rule:evenodd;fill:#A6A4A1;" d="M479.16,285.76c-0.75,1.35-0.65,2.98-1.45,4.32
		c0.3-2,0.7-3.97,1.68-5.76c0.04,0.03,0.07,0.06,0.11,0.09c0.02,0.14,0.02,0.28-0.09,0.4c0,0.16-0.01,0.32-0.01,0.47
		c-0.09,0.07-0.16,0.16-0.23,0.25C479.16,285.6,479.16,285.68,479.16,285.76z"/>
	<path style="fill-rule:evenodd;clip-rule:evenodd;fill:#A6A4A1;" d="M480.37,282.16c0,0.08,0,0.16-0.01,0.23
		c-0.15,0.13-0.09,0.35-0.23,0.49c0,0.08,0,0.16-0.01,0.23c-0.15,0.13-0.1,0.35-0.24,0.48v0c-0.04,0.03-0.09,0.06-0.13,0.09
		c-0.04-0.03-0.08-0.06-0.12-0.1c0.16-0.94,0.36-1.86,0.96-2.64l0.02,0.01c0.15,0.24,0.16,0.48-0.01,0.71l0,0
		C480.45,281.81,480.5,282.03,480.37,282.16z"/>
	<path style="fill-rule:evenodd;clip-rule:evenodd;fill:#7C7B79;" d="M476.52,292.72c0.03-0.33-0.1-0.71,0.24-0.96
		C476.73,292.09,476.86,292.46,476.52,292.72z"/>
	<path style="fill-rule:evenodd;clip-rule:evenodd;fill:#7C7B79;" d="M476.28,294.88c0-0.32,0-0.64,0-0.96c0.08,0,0.16,0,0.23,0
		C476.49,294.25,476.62,294.62,476.28,294.88z"/>
	<path style="fill-rule:evenodd;clip-rule:evenodd;fill:#7C7B79;" d="M477.48,288.64c0.01-0.26-0.03-0.54,0.24-0.72
		C477.71,288.18,477.75,288.46,477.48,288.64z"/>
	<path style="fill-rule:evenodd;clip-rule:evenodd;fill:#7C7B79;" d="M477.72,287.44c0-0.27-0.03-0.54,0.24-0.72
		C477.95,286.98,477.99,287.26,477.72,287.44z"/>
	<path style="fill-rule:evenodd;clip-rule:evenodd;fill:#A6A4A1;" d="M479.39,284.31c0.01-0.26-0.02-0.54,0.24-0.72l0.02,0.01
		c0.15,0.24,0.15,0.48-0.01,0.71v0c-0.08,0.11-0.16,0.11-0.24,0L479.39,284.31z"/>
	<path style="fill-rule:evenodd;clip-rule:evenodd;fill:#7C7B79;" d="M477,290.08c0.08-0.16,0.16-0.32,0.24-0.48
		C477.16,289.76,477.08,289.92,477,290.08z"/>
	<path style="fill-rule:evenodd;clip-rule:evenodd;fill:#7C7B79;" d="M477.24,289.36c0.08-0.16,0.16-0.32,0.23-0.48
		C477.4,289.04,477.32,289.2,477.24,289.36z"/>
	<path style="fill-rule:evenodd;clip-rule:evenodd;fill:#7C7B79;" d="M476.76,291.04c0.08-0.16,0.16-0.32,0.24-0.48
		C476.92,290.72,476.84,290.88,476.76,291.04z"/>
	<path style="fill-rule:evenodd;clip-rule:evenodd;fill:#AEACA9;" d="M479.64,284.32c0-0.24,0-0.47,0.01-0.71
		c0.08,0,0.16-0.01,0.23,0C479.87,283.87,479.91,284.14,479.64,284.32z"/>
	<path style="fill-rule:evenodd;clip-rule:evenodd;fill:#AEACA9;" d="M481.56,279.04c0.01-0.26-0.03-0.54,0.24-0.72
		C481.79,278.58,481.83,278.86,481.56,279.04z"/>
	<path style="fill-rule:evenodd;clip-rule:evenodd;fill:#AEACA9;" d="M480.6,281.68c0-0.24,0-0.48,0.01-0.71
		c0.08,0,0.16-0.01,0.24,0C480.83,281.22,480.87,281.5,480.6,281.68z"/>
	<path style="fill-rule:evenodd;clip-rule:evenodd;fill:#AEACA9;" d="M479.41,284.33c0.08,0,0.16,0,0.24,0
		c-0.08,0.16-0.16,0.32-0.24,0.48C479.41,284.65,479.41,284.49,479.41,284.33z"/>
	<path style="fill-rule:evenodd;clip-rule:evenodd;fill:#AEACA9;" d="M479.88,283.6c0.08-0.16,0.16-0.32,0.24-0.48
		C480.04,283.28,479.96,283.44,479.88,283.6z"/>
	<path style="fill-rule:evenodd;clip-rule:evenodd;fill:#AEACA9;" d="M480.13,282.88c0.08-0.16,0.16-0.32,0.23-0.49
		C480.28,282.56,480.2,282.72,480.13,282.88z"/>
	<path style="fill-rule:evenodd;clip-rule:evenodd;fill:#AEACA9;" d="M480.37,282.16c0.08-0.16,0.16-0.32,0.23-0.49
		C480.52,281.84,480.44,282,480.37,282.16z"/>
	<path style="fill-rule:evenodd;clip-rule:evenodd;fill:#AEACA9;" d="M480.84,280.96c0.08-0.16,0.16-0.32,0.24-0.48
		C481,280.64,480.92,280.8,480.84,280.96z"/>
	<path style="fill-rule:evenodd;clip-rule:evenodd;fill:#AEACA9;" d="M481.08,280.24c0.08-0.16,0.16-0.32,0.23-0.48
		C481.24,279.92,481.16,280.08,481.08,280.24z"/>
	<path style="fill-rule:evenodd;clip-rule:evenodd;fill:#AEACA9;" d="M481.32,279.52c0.08-0.16,0.16-0.32,0.24-0.48
		C481.48,279.2,481.4,279.36,481.32,279.52z"/>
	<path style="fill-rule:evenodd;clip-rule:evenodd;fill:#AEACA9;" d="M479.17,285.53c0.08-0.08,0.16-0.17,0.23-0.25
		C479.32,285.36,479.24,285.44,479.17,285.53z"/>
	<path style="fill-rule:evenodd;clip-rule:evenodd;fill:#81807E;" d="M484.44,256c0.17-0.06,0.34-0.12,0.51-0.18
		C484.78,255.88,484.61,255.94,484.44,256z"/>
	<path style="fill-rule:evenodd;clip-rule:evenodd;fill:#81807E;" d="M483.93,256.2c0.1-0.05,0.2-0.1,0.3-0.15
		C484.13,256.1,484.03,256.15,483.93,256.2z"/>
	<path style="fill-rule:evenodd;clip-rule:evenodd;fill:#CECDC9;" d="M473.65,264.94c0-0.4,0.15-0.72,0.59-0.73
		c0.37-0.01,0.56,0.26,0.58,0.62c0.02,0.41-0.14,0.72-0.58,0.73C473.87,265.57,473.69,265.3,473.65,264.94z"/>
	<path style="fill-rule:evenodd;clip-rule:evenodd;fill:#F7EAC9;" d="M496.67,263.42c-0.05,0.34,0.22,0.9-0.38,0.89
		c-0.48-0.01-0.29-0.53-0.33-0.84C496.19,263.45,496.43,263.43,496.67,263.42z"/>
	<path style="fill-rule:evenodd;clip-rule:evenodd;fill:#CECDC9;" d="M494.02,273.79c0.03-0.81,0.41-1.37,1.18-1.42
		c0.72-0.04,1.22,0.47,1.2,1.19c-0.02,0.7-0.36,1.33-1.2,1.38C494.4,274.98,494.06,274.51,494.02,273.79z"/>
</g>
</svg>
