<?xml version="1.0" encoding="utf-8"?>
<!-- Generator: Adobe Illustrator 16.0.0, SVG Export Plug-In . SVG Version: 6.00 Build 0)  -->
<!DOCTYPE svg PUBLIC "-//W3C//DTD SVG 1.0//EN" "http://www.w3.org/TR/2001/REC-SVG-20010904/DTD/svg10.dtd" [
	<!ENTITY ns_flows "http://ns.adobe.com/Flows/1.0/">
	<!ENTITY ns_extend "http://ns.adobe.com/Extensibility/1.0/">
	<!ENTITY ns_ai "http://ns.adobe.com/AdobeIllustrator/10.0/">
	<!ENTITY ns_graphs "http://ns.adobe.com/Graphs/1.0/">
]>
<svg version="1.0" id="Layer_1" xmlns:x="&ns_extend;" xmlns:i="&ns_ai;" xmlns:graph="&ns_graphs;"
	 xmlns="http://www.w3.org/2000/svg" xmlns:xlink="http://www.w3.org/1999/xlink" xmlns:a="http://ns.adobe.com/AdobeSVGViewerExtensions/3.0/"
	 x="0px" y="0px" width="960px" height="560px" viewBox="0 0 960 560" style="enable-background:new 0 0 960 560;"
	 xml:space="preserve">
<g>
	<path style="fill:#222221;" d="M501.4,274.98c0,2.75-0.06,5.51,0.04,8.26c0.03,0.85-0.27,1.09-0.89,0.85
		c-4.71-1.78-8.95,0.27-13.38,1.39c-3.8,0.96-7.72,0.9-11.55-0.29c-2.32-0.72-4.65-1.46-7.08-1.71c-0.28-0.03-0.55-0.08-0.83-0.1
		c-4.18-0.2-5.3,0.81-5.31,4.94c-0.02,4.43-0.23,8.86-0.01,13.3c0.08,1.72-0.1,3.43-0.32,5.13c-0.06,0.5-0.47,1.18,0.4,1.53
		c0.36,0.14,0.27,0.44-0.1,0.57c-1.43,0.51-2.84,0.23-4.23-0.14c-0.11-0.03-0.25-0.23-0.24-0.34c0.08-9.35,0.07-18.71,0.29-28.06
		c0.1-4.18,0.45-8.39,0.47-12.55c0.01-3.03-0.07-6.12-0.24-9.18c-0.05-0.92-0.82-1.77-0.93-2.79c-0.23-2.11,0.8-3.28,2.93-3.24
		c2.7,0.06,4.23,1.62,3.98,3.96c-0.1,0.98-0.79,1.52-1.36,2.17c-0.17,0.19-0.52,0.35-0.23,0.67c0.17,0.19,0.42,0.11,0.67,0.07
		c4.42-0.85,8.79-1.32,13.09,0.74c4.62,2.21,9.3,2.01,14.04,0.11c2.85-1.14,5.97-0.86,8.98-1.18c0.67-0.07,0.67,0.44,0.78,0.83
		c0.61,2.26,0.54,4.59,0.65,6.9c0.13,2.71,0.03,5.43,0.03,8.15C501.16,274.98,501.28,274.98,501.4,274.98z"/>
	<path style="fill:#3C6C38;" d="M481.92,262.47c0.07-0.01,0.13-0.01,0.2,0.01c0.21,0.21,0.48,0.1,0.72,0.13
		c0.33,0.01,0.68-0.05,0.95,0.22c1.51,1.76,1.99,3.88,2.05,6.11c0.11,3.98-0.15,7.95-0.41,11.92c-0.06,0.92-0.02,1.83-0.05,2.74
		c-0.02,0.56-0.03,1.13-0.62,1.46c-2.08,0.5-4.17,0.83-6.25,0.01c-0.02-0.07-0.03-0.15-0.05-0.22c-0.23-2.99,0.15-5.96,0.27-8.94
		c0.11-2.71,0.2-5.41-0.03-8.12c-0.08-0.96-0.13-1.92-0.03-2.86C478.86,263.04,480.08,262.14,481.92,262.47z"/>
	<path style="fill:#EEE873;" d="M461.69,285.15c-0.48,6.33-0.04,14.1-0.51,21.84c-0.03,0.47,0.29,1.19-0.6,1.32
		c-0.86,0.13-1.18-0.33-1.4-1.09c-0.78-2.75-0.72-5.55-0.53-8.34c0.21-3.16,0.14-6.32,0.23-9.47c0.28-9.67,0.56-19.34,0.51-29.02
		c0-0.44-0.29-1.34,0.64-1.2c0.68,0.1,1.72-0.28,1.7,1.26C461.63,268.22,461.69,275.98,461.69,285.15z"/>
	<path style="fill:#5EA042;" d="M489.33,261.55c1.65-0.51,3.28-1.11,5.02-1.24c0.95,0.05,1.09,0.84,1.29,1.49
		c0.53,1.79,0.36,3.64,0.24,5.46c-0.08,1.19-0.21,2.38-0.16,3.57c0.12,3.11-0.21,6.2-0.27,9.31c-0.02,1.14-0.27,2.24-1.55,2.69
		c-1.36,0.26-2.71,0.53-4.07,0.79c-0.7-0.12-0.58-0.68-0.53-1.11c0.53-4.55,0.41-9.14,0.8-13.69c0.16-1.76-0.06-3.49-0.59-5.19
		C489.29,262.96,489,262.28,489.33,261.55z"/>
	<path style="fill:#589A42;" d="M473.23,283.6c-1.28-0.34-2.56-0.67-3.85-1.01c-0.89-0.43-0.71-1.21-0.7-1.97
		c0.06-5.31,0.31-10.62-0.16-15.93c-0.1-1.12-0.39-2.2-0.63-3.29c-0.15-0.66-0.38-1.31-0.16-2c2.81-0.23,5.5,0.31,8.15,1.18
		c0.15,0.13,0.36,0.09,0.52,0.19c0.07,0,0.13,0.02,0.2,0.05c0.31,0.34,0.31,0.75,0.14,1.12c-1,2.11-1.14,4.4-1.37,6.66
		c-0.18,1.71-0.47,3.41-0.84,5.08c-0.59,2.7-1.09,5.4-0.92,8.19C473.63,282.47,473.63,283.09,473.23,283.6z"/>
	<path style="fill:#3D6E38;" d="M465.33,282.93c-0.03,0.03-0.06,0.07-0.09,0.08c-2.56,0.62-2.57,0.61-2.57-1.98
		c0-1.07,0-2.13,0.01-3.2c-0.2-0.33-0.11-0.7-0.11-1.05c-0.01-4.66-0.01-9.33,0-13.99c0-0.47-0.1-0.97,0.34-1.33
		c0.07-0.06,0.15-0.13,0.22-0.19c0.75-0.55,1.28-0.16,1.68,0.47c0.7,1.1,1.1,2.3,1.12,3.61c0.06,3.22,0.31,6.44,0.2,9.66
		c-0.08,2.23-0.2,4.45-0.21,6.69C465.92,282.19,465.75,282.62,465.33,282.93z"/>
	<path style="fill:#49863F;" d="M478.03,261.31c0.32,0.09,0.64,0.17,0.97,0.26c0.09,0.12,0.13,0.25,0.13,0.4
		c-0.01,0.08,0,0.18-0.04,0.23c-1.34,1.62-1.16,3.56-1.17,5.47c-0.03,5.23-0.4,10.46-0.59,15.69c-0.02,0.48,0.14,0.95-0.01,1.43
		c-0.9-0.15-1.84-0.19-2.65-0.68c-0.25-1.95-0.28-3.92-0.01-5.84c0.61-4.31,1.03-8.64,1.37-12.98
		C476.14,263.75,476.43,262.16,478.03,261.31z"/>
	<path style="fill:#539441;" d="M489.33,261.55c0.87,2.86,1.48,5.69,1.01,8.75c-0.36,2.34-0.26,4.75-0.29,7.13
		c-0.02,1.75-0.19,3.48-0.45,5.2c-0.05,0.36-0.12,0.72,0.22,0.99c-0.65,0.22-1.29,0.45-1.94,0.67c-0.28-0.29-0.3-0.65-0.25-1.01
		c0.69-4.4,0.46-8.85,0.77-13.27c0.16-2.28-0.1-4.55-0.99-6.71c-0.17-0.4-0.39-0.8-0.23-1.26
		C487.89,261.87,488.61,261.71,489.33,261.55z"/>
	<path style="fill:#3F7139;" d="M500.12,270.16c0,0.71,0,1.42,0,2.13c0.25,1.3,0.04,2.61,0.11,3.91c0.03,0.47-0.11,0.95,0.11,1.41
		h0.01c0.25,1.54,0.06,3.09,0.11,4.64c0.01,0.39-0.16,0.62-0.6,0.42h0.01c-0.56-0.37-1.29,0.15-1.83-0.34
		c-0.48-1.16-0.26-2.38-0.17-3.54c0.22-2.83,0.1-5.65,0.2-8.48c0.07-2.11,0.24-4.21,0.23-6.32c0-1.24-0.34-2.44-0.27-3.68
		c0.44-0.53,0.78-0.5,1,0.18c0.02,0.19-0.05,0.41,0.14,0.56h-0.01c0.68,0.42,0.1,1.19,0.49,1.69c0.25,0.21,0.2,0.48,0.18,0.75
		c-0.12,0.63-0.17,1.26,0.03,1.89c0.01,0.15,0.01,0.3,0.02,0.45C500.21,267.25,499.77,268.73,500.12,270.16z"/>
	<path style="fill:#529241;" d="M478.03,261.31c-1.71,1.89-1.82,4.29-1.87,6.61c-0.08,3.46-0.74,6.85-1.13,10.27
		c-0.17,1.46-0.08,2.94-0.1,4.41c-0.01,0.52,0.03,1.04-0.26,1.51c-0.16-0.03-0.31-0.05-0.47-0.08c-0.08-0.06-0.17-0.12-0.26-0.17
		c-0.26-0.02-0.52,0-0.69-0.25c-0.31-4.04,0.48-7.95,1.25-11.88c0.51-2.59,0.79-5.23,1.15-7.86c0.15-1.07,1.04-1.9,0.96-3.04
		C477.07,260.99,477.55,261.15,478.03,261.31z"/>
	<path style="fill:#43793C;" d="M465.33,282.93c0.08-0.39,0.2-0.77,0.22-1.16c0.1-2.86,0.36-5.73,0.2-8.58
		c-0.19-3.38,0.35-6.83-0.71-10.13c-0.27-0.86-0.47-2.06-1.91-1.79c0.18-0.24,0.35-0.48,0.53-0.71c0.07-0.08,0.14-0.15,0.22-0.23
		v-0.02c0.07-0.05,0.15-0.09,0.24-0.1c0.17-0.01,0.35,0.02,0.48-0.13c0.08-0.06,0.17-0.13,0.25-0.19c1.43,1.05,2.02,2.6,2.19,4.24
		c0.59,5.77,0.49,11.55,0.13,17.33c-0.03,0.44-0.1,0.87-0.4,1.23C466.34,283.04,465.81,282.8,465.33,282.93z"/>
	<path style="fill:#54913F;" d="M493.89,282.83c0.81-0.78,1.19-1.72,1.2-2.86c0.05-3.81,0.05-7.63,0.26-11.44
		c0.12-2.18,0.39-4.34-0.04-6.51c-0.13-0.66-0.35-1.31-0.97-1.71c0.42-0.38,0.95-0.17,1.42-0.25c0.22-0.13,0.43-0.12,0.63,0.05
		c0.65,0.65,0.72,1.49,0.74,2.33c0.16,5.83-0.35,11.65-0.27,17.48c0.01,0.79-0.12,1.6-0.57,2.3c-0.23,0.38-0.68,0.2-0.99,0.4
		C494.84,282.7,494.37,282.77,493.89,282.83z"/>
	<path style="fill:#41763B;" d="M484.76,285.04c0.58-1.81,0.19-3.7,0.41-5.55c0.32-2.71,0.17-5.48,0.32-8.21
		c0.16-3.05-0.32-5.92-1.93-8.55c1.35-0.22,1.83-0.01,2.41,1.14c0.77,1.53,1.07,3.17,1.1,4.87c0.08,5.03-0.19,10.06-0.51,15.08
		c-0.02,0.37-0.1,0.71-0.35,0.99v0.01c-0.14,0.12-0.34,0.08-0.48,0.2C485.41,285.02,485.08,285.03,484.76,285.04z"/>
	<path style="fill:#519141;" d="M467.74,259.4c0.8,2.4,1.34,4.87,1.4,7.38c0.1,4.35,0.02,8.71,0.03,13.07
		c0,0.92-0.55,1.89,0.22,2.75c-0.16,0-0.32,0.01-0.48,0.01c-1.17,0.05-1.34-0.68-1.34-1.62c0-4.5-0.02-9.01,0.01-13.52
		c0.01-2.51-0.25-4.94-1.61-7.13c-0.13-0.2-0.2-0.43-0.14-0.68C466.47,259.58,467.07,259.23,467.74,259.4z"/>
	<path style="fill:#4A863F;" d="M487.17,262.04c1.62,2.72,1.75,5.7,1.58,8.74c-0.02,0.39-0.15,0.78-0.14,1.17
		c0.08,4.13-0.15,8.25-0.72,12.34c-0.07,0.03-0.14,0.04-0.21,0.05c-0.09,0.06-0.18,0.12-0.27,0.19c-0.16,0.02-0.32,0.04-0.48,0.06
		c-0.38-0.34-0.36-0.78-0.3-1.22c0.54-4.08,0.26-8.19,0.61-12.28c0.14-1.63-0.04-3.27-0.31-4.88c-0.22-1.31-0.6-2.56-1.61-3.52
		c-0.09-0.12-0.12-0.26-0.08-0.4C485.89,262.2,486.53,262.12,487.17,262.04z"/>
	<path style="fill:#49843E;" d="M465.83,259.65c1.63,1.74,2.07,3.93,2.1,6.16c0.08,5.11,0.05,10.22,0,15.33
		c-0.01,0.81,0.21,1.26,0.97,1.46c-0.71,0.03-1.42,0.05-2.13,0.08c0.35-4.21,0.2-8.43,0.22-12.64c0.01-3.54,0.07-7.09-2.15-10.15
		C465.17,259.81,465.5,259.73,465.83,259.65z"/>
	<path style="fill:#EDE773;" d="M460.05,253.37c2.24,0.04,3.41,0.95,3.36,2.46c-0.04,1.54-1.12,2.63-2.55,2.6
		c-1.46-0.03-2.54-1.36-2.53-3.07C458.33,254.04,458.9,253.32,460.05,253.37z"/>
	<path style="fill:#457E3D;" d="M485.25,262.47c0.65-0.07,0.9,0.36,1.14,0.85c1.38,2.83,1.34,5.85,1.17,8.88
		c-0.03,0.47-0.16,0.95-0.14,1.42c0.1,3.67-0.19,7.32-0.48,10.97c-0.19,0.25-0.46,0.21-0.72,0.21c0.08-5.41,0.68-10.81,0.47-16.23
		c-0.06-1.6-0.37-3.15-1.05-4.61c-0.42-0.89-1.03-1.4-2.07-1.23c-0.32,0-0.64,0-0.96-0.01c-0.08-0.05-0.11-0.1-0.08-0.16
		c0.03-0.05,0.05-0.08,0.08-0.08c0.79-0.01,1.58-0.01,2.38-0.02C485.07,262.38,485.16,262.39,485.25,262.47z"/>
	<path style="fill:#42783C;" d="M477.31,284.79c-0.35-0.3-0.52-0.66-0.48-1.15c0.32-3.68,0.33-7.38,0.54-11.06
		c0.14-2.55,0.15-5.09,0.17-7.63c0.01-1.31,0.91-2.16,1.46-3.2c0.08-0.07,0.16-0.08,0.24-0.01v0.01c0.19,0.17,0.59,0.14,0.52,0.55
		c-1.43,1.82-1.15,3.96-1.1,6.05c0.11,5.1-0.17,10.19-0.36,15.28c-0.02,0.5,0.21,0.92,0.22,1.4l-0.01,0.03
		C478.1,285,477.65,285.16,477.31,284.79z"/>
	<path style="fill:#42783B;" d="M478.52,285.02c-0.5-0.19-0.72-0.58-0.68-1.09c0.46-5.72,0.53-11.45,0.41-17.18
		c-0.04-1.81,0.29-3.38,1.46-4.75l0.06-0.1c0.08,0.01,0.15,0.04,0.22,0.08c0.24,0.02,0.48,0.04,0.71,0.07
		c0.14,0.1,0.34,0.05,0.46,0.19c0.27,0.01,0.56-0.03,0.76,0.23c-1.93,0.04-2.93,1.01-2.91,2.95c0.03,2.11,0.25,4.22,0.21,6.32
		c-0.09,4.25-0.3,8.51-0.47,12.76C478.74,284.68,478.6,284.85,478.52,285.02z"/>
	<path style="fill:#575F52;" d="M462.91,261.45c-0.25,0.52-0.23,1.08-0.23,1.64c0,4.91,0,9.82,0,14.73
		c-0.36-0.32-0.23-0.74-0.23-1.13c-0.01-4.67-0.02-9.35-0.01-14.02C462.44,262.22,462.28,261.68,462.91,261.45z"/>
	<path style="fill:#4F5749;" d="M499.87,282.65c0.64-0.12,0.48-0.63,0.49-1.03c0.01-1.34,0.01-2.68,0.01-4.02
		c0.49,1.59,0.16,3.22,0.22,4.83C500.6,282.96,500.24,282.98,499.87,282.65z"/>
	<path style="fill:#5B6D50;" d="M500.35,277.6c-0.51-1.75-0.1-3.54-0.22-5.31C500.64,274.04,500.24,275.83,500.35,277.6z"/>
	<path style="fill:#5F6D54;" d="M495.32,282.63c0.18-0.26,0.46-0.22,0.72-0.23c0.28-0.25,0.6-0.35,0.97-0.34
		c0.43-0.01,0.85,0.02,1.18,0.34c0.56,0.11,1.18-0.22,1.69,0.25C498.36,282.64,496.84,282.64,495.32,282.63z"/>
	<path style="fill:#56674C;" d="M500.12,270.16c-0.52-1.43-0.12-2.9-0.23-4.35C500.38,267.24,500.01,268.71,500.12,270.16z"/>
	<path style="fill:#596450;" d="M496.27,260.09c-0.17-0.01-0.33-0.02-0.5-0.03c0.91-0.45,1.88-0.17,2.82-0.21
		c0.69-0.03,0.54,0.54,0.56,0.95c-0.08,0.07-0.16,0.07-0.24-0.01c0.05-0.53-0.18-0.77-0.72-0.71c-0.27,0.25-0.6,0.33-0.96,0.33
		C496.88,260.43,496.55,260.33,496.27,260.09z"/>
	<path style="fill:#45783B;" d="M499.66,262.71c-0.5-0.47-0.08-1.2-0.49-1.69C500.04,261.38,499.48,262.15,499.66,262.71z"/>
	<path style="fill:#45783B;" d="M499.87,265.35c-0.37-0.62-0.34-1.25-0.03-1.89C499.85,264.1,499.86,264.72,499.87,265.35z"/>
	<path style="fill:#49863F;" d="M479.71,262c-0.16-0.08-0.31-0.17-0.47-0.25c0.15,0.02,0.31,0.03,0.46,0.05
		c0.06,0.04,0.09,0.08,0.07,0.12C479.75,261.97,479.73,261.99,479.71,262L479.71,262z"/>
	<path style="fill:#49843E;" d="M464.59,260.08c-0.16,0.08-0.31,0.16-0.47,0.24c-0.06-0.05-0.08-0.09-0.06-0.13
		c0.02-0.04,0.04-0.06,0.06-0.06C464.28,260.1,464.44,260.09,464.59,260.08z"/>
	<path style="fill:#3C6C38;" d="M481.16,262.23c-0.16-0.06-0.31-0.12-0.46-0.19C480.85,262.11,481,262.17,481.16,262.23z"/>
	<path style="fill:#41763B;" d="M482.6,262.48c0,0.08,0,0.16,0,0.23c-0.16-0.08-0.32-0.16-0.49-0.25
		C482.28,262.48,482.44,262.48,482.6,262.48z"/>
	<path style="fill:#529241;" d="M476.4,260.77c-0.17-0.06-0.34-0.13-0.52-0.19C476.06,260.65,476.23,260.71,476.4,260.77z"/>
	<path style="fill:#3C6C38;" d="M485.73,285.01c0.16-0.07,0.32-0.13,0.48-0.2C486.04,284.88,485.89,284.95,485.73,285.01z"/>
	<path style="fill:#49843E;" d="M463.87,260.32c-0.07,0.08-0.14,0.15-0.22,0.23C463.73,260.48,463.8,260.4,463.87,260.32z"/>
	<path style="fill:#3C6C38;" d="M479.72,261.99c0-0.06-0.01-0.13-0.01-0.19c0.09,0.06,0.18,0.12,0.27,0.18
		C479.9,261.99,479.81,261.99,479.72,261.99z"/>
	<path style="fill:#3D6E38;" d="M464.13,260.12c0,0.07-0.01,0.13-0.01,0.2c-0.08,0-0.16,0-0.25-0.01
		C463.96,260.24,464.04,260.18,464.13,260.12z"/>
	<path style="fill:#41763B;" d="M485.25,262.47c-0.09,0-0.18-0.01-0.27-0.01c0.09-0.06,0.18-0.12,0.27-0.18
		C485.25,262.35,485.24,262.41,485.25,262.47z"/>
	<path style="fill:#42783B;" d="M479.25,261.75c-0.08,0-0.16,0.01-0.24,0.01c0-0.06-0.01-0.13-0.01-0.19
		C479.08,261.63,479.16,261.69,479.25,261.75z"/>
	<path style="fill:#45783B;" d="M498.92,260.8c0.08,0,0.16,0.01,0.24,0.01c0.02,0.07,0.02,0.15,0.02,0.22
		C499.09,260.95,499,260.88,498.92,260.8z"/>
	<path style="fill:#49863F;" d="M473.93,283.86c0.09,0.06,0.17,0.12,0.26,0.17C474.1,283.97,474.02,283.92,473.93,283.86z"/>
	<path style="fill:#457E3D;" d="M487.41,284.52c0.09-0.06,0.18-0.13,0.27-0.19C487.59,284.4,487.5,284.46,487.41,284.52z"/>
	<path style="fill:#5D9F42;" d="M470.36,267.37c-0.15-1.68-0.35-3.33-0.68-4.97c-0.28-1.4,0.25-2.01,1.68-2.08
		c0.56-0.03,1.11-0.08,1.67-0.1c1.75-0.04,2.55,0.99,1.95,2.6c-0.86,2.31-0.69,4.78-1.28,7.13c-0.71,2.85-1.49,5.68-2.25,8.52
		c-0.04,0.16-0.12,0.45-0.37,0.33c-0.13-0.07-0.24-0.33-0.23-0.5c0.1-1.45-0.38-2.84-0.46-4.25
		C470.27,271.83,470.36,269.6,470.36,267.37z"/>
	<path style="fill:#45783B;" d="M497.24,260.08c0.32,0,0.64,0,0.96,0c0.71,2.86,0.6,5.74,0.28,8.63c-0.02,0.2-0.04,0.4-0.04,0.59
		c-0.08,4.36-0.16,8.72-0.25,13.09c-0.4,0-0.8,0-1.19,0c-0.19-0.33-0.2-0.69-0.14-1.05c0.34-1.94,0.19-3.9,0.2-5.86
		c0.02-4.11,0.37-8.21,0.27-12.32C497.32,262.14,496.91,261.12,497.24,260.08z"/>
	<path style="fill:#4B833D;" d="M497.24,260.08c0.32,0.82,0.5,1.66,0.48,2.55c-0.09,5.73-0.15,11.46-0.27,17.2
		c-0.02,0.86-0.3,1.71-0.46,2.56c-0.32,0-0.64,0-0.96,0c0.32-1.27,0.48-2.56,0.49-3.88c0.04-4.97,0.13-9.94,0.23-14.91
		c0.02-1.2-0.04-2.38-0.49-3.51C496.6,260.09,496.92,260.09,497.24,260.08z"/>
</g>
</svg>
