<?xml version="1.0" encoding="utf-8"?>
<!-- Generator: Adobe Illustrator 16.0.0, SVG Export Plug-In . SVG Version: 6.00 Build 0)  -->
<!DOCTYPE svg PUBLIC "-//W3C//DTD SVG 1.0//EN" "http://www.w3.org/TR/2001/REC-SVG-20010904/DTD/svg10.dtd" [
	<!ENTITY ns_flows "http://ns.adobe.com/Flows/1.0/">
	<!ENTITY ns_extend "http://ns.adobe.com/Extensibility/1.0/">
	<!ENTITY ns_ai "http://ns.adobe.com/AdobeIllustrator/10.0/">
	<!ENTITY ns_graphs "http://ns.adobe.com/Graphs/1.0/">
]>
<svg version="1.0" id="Layer_1" xmlns:x="&ns_extend;" xmlns:i="&ns_ai;" xmlns:graph="&ns_graphs;"
	 xmlns="http://www.w3.org/2000/svg" xmlns:xlink="http://www.w3.org/1999/xlink" xmlns:a="http://ns.adobe.com/AdobeSVGViewerExtensions/3.0/"
	 x="0px" y="0px" width="960px" height="560px" viewBox="0 0 960 560" style="enable-background:new 0 0 960 560;"
	 xml:space="preserve">
<g>
	<path style="fill:#CACACA;" d="M453.49,293.92c-0.08,0-0.17,0-0.25,0c0-0.72,0-1.44,0-2.16c0.08,0,0.16,0,0.24,0
		C454.01,292.48,454,293.19,453.49,293.92z"/>
	<path style="fill:#D2D2D2;" d="M470.76,262.24c0.01,0.06,0.01,0.13,0.01,0.2c-0.49,0.47-0.97,0.47-1.46,0c0-0.07,0-0.13,0.01-0.2
		C469.8,262.24,470.28,262.24,470.76,262.24z"/>
	<path style="fill:#ACACAC;" d="M506.54,272.55c0.07-0.02,0.14-0.02,0.21,0.01c0,0.4,0,0.8,0,1.2c-0.08,0-0.15,0-0.23,0.01
		C506.17,273.36,506.16,272.95,506.54,272.55z"/>
	<path style="fill:#222221;" d="M486.24,290.98c-2.54-0.04-6.27-2.35-6.73-4.07c-0.59-2.16,1.77-6.73,3.89-7.36
		c0.85-0.25,1.49-0.67,2.06-1.32c1.38-1.58,3.41-1.38,4.45,0.43c0.61,1.06,0.84,2.26,0.81,3.46c-0.02,0.86,0.28,0.79,0.88,0.57
		c1.64-0.6,3.27-1.25,5.05-1.33c1.27-0.05,2.41,0.16,2.92,1.54c0.53,1.45,0.03,2.56-1.14,3.45c-0.67,0.51-1.42,0.91-2.23,1.14
		c-3.18,0.92-6.05,2.67-9.3,3.37C486.62,290.92,486.35,290.96,486.24,290.98z"/>
	<path style="fill:#232322;" d="M463.97,282.15c-1.31,0.01-2.58-0.12-3.15-1.48c-0.58-1.41-0.48-2.9,0.63-4
		c1.38-1.37,2.75-2.71,5.06-2.67c2.48,0.04,4.91-0.98,7.46-0.54c1.29,0.22,2.61,0.74,2.94,1.93c0.31,1.12-0.63,2.16-1.59,2.88
		C471.96,280.8,468,281.56,463.97,282.15z"/>
	<path style="fill:#222221;" d="M453.49,293.92c0-0.72-0.01-1.44-0.01-2.16c1.12-2.55,2.85-3.53,5.69-3.28
		c2.49,0.22,5.02,0.08,7.46,0.8c0.73,0.22,1.44,0.46,2.06,0.91c1.69,1.23,1.92,3.15,0.33,4.47c-4.21,3.48-10,3.8-14.55,0.45
		C454.07,294.82,453.81,294.32,453.49,293.92z"/>
	<path style="fill:#232322;" d="M477.15,298.35c-2.06-0.07-3.68-0.38-5.1-1.37c-1.94-1.34-2.06-3.87-0.05-5.07
		c2.95-1.76,6.17-2.58,9.55-1.14c2.59,1.1,3.03,3.3,1.06,5.29C481.02,297.67,479.08,298.48,477.15,298.35z"/>
	<path style="fill:#232222;" d="M506.54,272.55c0,0.41-0.01,0.81-0.01,1.22c-1.08,2.75-4.06,4.36-7.77,4.16
		c-0.71-0.04-1.44-0.11-2.12-0.29c-2.49-0.66-3.08-2.46-1.49-4.5c2.16-2.79,6.4-3.86,9.62-2.43
		C505.61,271.08,506.25,271.64,506.54,272.55z"/>
	<path style="fill:#232322;" d="M483.15,273.09c-1.51,0.05-2.79-0.37-3.42-1.87c-0.65-1.54,0.16-4.01,1.71-5.26
		c1.66-1.34,3.6-1.73,5.64-1.23c2.75,0.67,3.91,3.5,2.53,5.96c-0.08,0.14-0.14,0.3-0.26,0.39
		C488.58,271.71,484.3,273.08,483.15,273.09z"/>
	<path style="fill:#232322;" d="M469.31,262.44c0.49,0,0.97,0,1.46,0c2.01,0.56,3.31,2.57,2.92,4.55c-0.03,0.18-0.12,0.4-0.25,0.5
		c-2.41,1.79-5,3.14-8.09,3.04c-1.62-0.05-2.73-1.92-2.48-3.99c0.09-0.78,0.41-1.39,1.11-1.85
		C465.63,263.62,467.35,262.76,469.31,262.44z"/>
	<path style="fill:#D06733;" d="M497.87,285.29c-0.28,0.16-0.56,0.32-0.84,0.47c-0.15,0.04-0.26,0.14-0.34,0.26l0.02-0.02
		c-0.1,0.07-0.19,0.16-0.26,0.25l0.01-0.01c-0.15,0.12-0.37,0.09-0.5,0.23l0.02,0.01c-0.15,0.13-0.37,0.09-0.52,0.23l-0.07,0.02
		l-0.07-0.01c-0.17,0.11-0.41,0.08-0.56,0.23h0.02c-0.2,0.21-0.55,0-0.73,0.26l0.02-0.01c-0.16,0.12-0.38,0.09-0.51,0.25
		c-0.2,0.08-0.39,0.15-0.59,0.22c-0.2,0.1-0.43,0.09-0.62,0.23c-0.29,0.09-0.58,0.18-0.87,0.27c-0.17,0.1-0.39,0.07-0.54,0.21
		c-0.06,0.03-0.12,0.04-0.19,0.04c-0.17,0.11-0.38,0.07-0.54,0.2l-0.09,0.03h-0.09c-0.23,0.18-0.56,0.01-0.78,0.22l-0.07,0.03
		l-0.08-0.01c-0.32,0.2-0.73-0.01-1.05,0.21l-0.09,0.03h-0.09c-1.08,0.18-2.16,0.18-3.24,0h-0.09l-0.08-0.03
		c-0.21-0.2-0.53-0.02-0.74-0.22h0.02c-0.15-0.16-0.38-0.13-0.55-0.23c-0.05,0.01-0.11,0-0.15-0.03c-0.11-0.08-0.21-0.17-0.35-0.21
		c-0.13-0.07-0.25-0.14-0.38-0.21c-0.1-0.13-0.21-0.24-0.37-0.28c-0.2-0.2-0.4-0.41-0.6-0.61c-0.04-0.15-0.14-0.26-0.26-0.35
		l0.01,0.02c-0.07-0.1-0.16-0.19-0.25-0.26l0.01,0.01c-0.18-0.49-0.18-0.98,0-1.47v0.02c0.23-0.2,0.04-0.53,0.24-0.74l-0.01,0.02
		c0.17-0.15,0.14-0.39,0.24-0.57c-0.01-0.05,0-0.1,0.03-0.14c0.08-0.11,0.17-0.21,0.21-0.33c-0.01-0.05,0-0.09,0.03-0.13
		c0.08-0.12,0.18-0.23,0.22-0.38c0.07-0.12,0.14-0.24,0.2-0.35c0.13-0.09,0.24-0.2,0.28-0.36c0.15-0.2,0.31-0.4,0.46-0.6
		c0.09-0.09,0.19-0.17,0.26-0.27l-0.01,0.01c0.1-0.07,0.18-0.16,0.25-0.25l-0.01,0.01c0.1-0.07,0.18-0.17,0.27-0.26
		c0.2-0.15,0.41-0.31,0.61-0.46c0.18-0.11,0.43-0.08,0.58-0.26l-0.02,0.01c0.15-0.12,0.38-0.08,0.5-0.25l-0.02,0.02
		c0.1-0.07,0.19-0.15,0.26-0.25l-0.01,0.01c0.11-0.07,0.18-0.17,0.27-0.26c0.11-0.07,0.23-0.14,0.34-0.22
		c0.16-0.03,0.27-0.13,0.38-0.24l-0.01,0.01c0.76-0.2,1.52-0.19,2.28-0.01c0.08,0.02,0.12,0.07,0.13,0.15
		c0.18,0.24,0.01,0.59,0.25,0.82l-0.01-0.02c0.24,0.29-0.01,0.69,0.22,0.99c0.02,0.07,0.03,0.15,0.01,0.22
		c0.32,0.53-0.07,1.15,0.24,1.68c0.03,0.07,0.03,0.14,0.02,0.21c0.2,0.21,0.02,0.54,0.22,0.75c0.04,0.04,0.05,0.09,0.04,0.15
		c0.03,0.14,0.12,0.24,0.23,0.33L490,284.3c0.48,0.22,0.97,0.22,1.45,0l-0.02,0.01c0.21-0.19,0.55,0,0.75-0.25
		c0.21-0.08,0.42-0.15,0.62-0.23c0.18-0.11,0.41-0.09,0.58-0.21c0.05-0.04,0.1-0.05,0.16-0.04c0.18-0.1,0.41-0.07,0.57-0.23
		c0.05-0.02,0.1-0.03,0.15-0.01c0.13-0.04,0.23-0.13,0.33-0.2c0.05-0.03,0.1-0.05,0.15-0.04c0.17-0.1,0.39-0.07,0.55-0.2
		c0.07-0.02,0.14-0.02,0.21-0.02c0.21-0.21,0.53-0.03,0.74-0.21c0.78,0.01,1.7-0.48,2.17,0.62c0.16,0.51,0.17,1.02,0,1.53l0.01-0.02
		c-0.09,0.08-0.18,0.16-0.25,0.26l0.02-0.01C498.04,285.11,497.96,285.21,497.87,285.29z"/>
	<path style="fill:#B38B6E;" d="M484.62,289.13c1.08,0,2.16,0,3.24,0C486.78,289.5,485.7,289.51,484.62,289.13z"/>
	<path style="fill:#BB8764;" d="M488.64,279.04c-0.76,0-1.52,0.01-2.28,0.01C487.12,278.65,487.88,278.64,488.64,279.04z"/>
	<path style="fill:#BD8662;" d="M489.47,282.88c-0.44-0.51-0.15-1.12-0.24-1.68C489.56,281.72,489.47,282.31,489.47,282.88z"/>
	<path style="fill:#B38161;" d="M480.83,285.26c0,0.49,0,0.98,0,1.47C480.43,286.24,480.52,285.75,480.83,285.26z"/>
	<path style="fill:#AF896D;" d="M498.37,284.82c0-0.51,0-1.02,0-1.53C498.7,283.8,498.75,284.31,498.37,284.82z"/>
	<path style="fill:#AC886E;" d="M491.4,284.3c-0.48,0.36-0.97,0.42-1.45,0C490.44,284.31,490.92,284.31,491.4,284.3z"/>
	<path style="fill:#B88765;" d="M488.04,289.1c0.3-0.32,0.69-0.2,1.05-0.21C488.79,289.22,488.4,289.11,488.04,289.1z"/>
	<path style="fill:#AC8265;" d="M489.22,280.97c-0.32-0.27-0.21-0.64-0.22-0.99C489.33,280.26,489.24,280.63,489.22,280.97z"/>
	<path style="fill:#AF8365;" d="M489.24,288.87c0.2-0.27,0.49-0.24,0.78-0.22C489.81,288.92,489.52,288.89,489.24,288.87z"/>
	<path style="fill:#AD8163;" d="M489.01,280c-0.29-0.21-0.25-0.52-0.25-0.82C489.01,279.41,489.02,279.71,489.01,280z"/>
	<path style="fill:#A68065;" d="M494.04,287.22c0.17-0.29,0.45-0.27,0.73-0.26C494.59,287.22,494.32,287.24,494.04,287.22z"/>
	<path style="fill:#AC8265;" d="M483.71,288.88c0.27-0.01,0.55-0.03,0.74,0.22C484.17,289.13,483.89,289.17,483.71,288.88z"/>
	<path style="fill:#B2805F;" d="M496.21,282.66c-0.19,0.25-0.47,0.22-0.74,0.21C495.65,282.6,495.92,282.62,496.21,282.66z"/>
	<path style="fill:#BD8B69;" d="M489.7,283.85c-0.27-0.19-0.22-0.48-0.22-0.75C489.74,283.29,489.72,283.57,489.7,283.85z"/>
	<path style="fill:#9E826C;" d="M492.13,284.06c-0.18,0.3-0.47,0.26-0.75,0.25C491.56,284.03,491.86,284.09,492.13,284.06z"/>
	<path style="fill:#C38760;" d="M481.07,284.54c0.01,0.28,0.04,0.56-0.24,0.74C480.82,285.01,480.82,284.73,481.07,284.54z"/>
	<path style="fill:#997D68;" d="M495.25,282.9c-0.18,0.07-0.37,0.14-0.55,0.2C494.88,283.03,495.07,282.97,495.25,282.9z"/>
	<path style="fill:#B2896B;" d="M485.16,279.98c-0.17,0.08-0.33,0.17-0.5,0.25C484.75,279.99,484.95,279.98,485.16,279.98z"/>
	<path style="fill:#BB8663;" d="M483.17,288.65c0.18,0.08,0.37,0.16,0.55,0.23C483.54,288.81,483.36,288.73,483.17,288.65z"/>
	<path style="fill:#A58770;" d="M493.54,287.46c0.1-0.22,0.3-0.25,0.51-0.25C493.89,287.29,493.72,287.38,493.54,287.46z"/>
	<path style="fill:#AD8D74;" d="M492.33,287.91c0.21-0.08,0.41-0.15,0.62-0.23C492.75,287.76,492.54,287.83,492.33,287.91z"/>
	<path style="fill:#B68564;" d="M484.68,280.22c-0.13,0.23-0.34,0.26-0.58,0.26C484.29,280.39,484.49,280.31,484.68,280.22z"/>
	<path style="fill:#A68064;" d="M494.06,283.35c-0.19,0.08-0.38,0.15-0.57,0.23C493.68,283.51,493.87,283.43,494.06,283.35z"/>
	<path style="fill:#AD8467;" d="M490.92,288.38c0.18-0.07,0.36-0.14,0.54-0.21C491.29,288.25,491.1,288.32,490.92,288.38z"/>
	<path style="fill:#AD886D;" d="M490.2,288.62c0.18-0.07,0.36-0.14,0.54-0.2C490.55,288.49,490.38,288.55,490.2,288.62z"/>
	<path style="fill:#B88664;" d="M495.95,286.48c0.17-0.08,0.33-0.16,0.5-0.23C496.37,286.51,496.15,286.47,495.95,286.48z"/>
	<path style="fill:#B08E74;" d="M493.33,283.62c-0.19,0.07-0.39,0.14-0.58,0.21C492.94,283.76,493.14,283.69,493.33,283.62z"/>
	<path style="fill:#B98866;" d="M481.31,284c0.01,0.23-0.02,0.44-0.24,0.57C481.14,284.38,481.22,284.19,481.31,284z"/>
	<path style="fill:#987D68;" d="M495.45,286.72c0.17-0.08,0.35-0.15,0.52-0.23C495.8,286.57,495.63,286.64,495.45,286.72z"/>
	<path style="fill:#B3896A;" d="M494.75,286.97c0.19-0.08,0.37-0.16,0.56-0.23C495.13,286.81,494.94,286.89,494.75,286.97z"/>
	<path style="fill:#BD8E6C;" d="M496.44,286.26c0.09-0.08,0.17-0.17,0.26-0.25C496.61,286.09,496.53,286.17,496.44,286.26z"/>
	<path style="fill:#BD8E6D;" d="M496.68,286.02c0.11-0.09,0.23-0.17,0.34-0.26C496.91,285.85,496.79,285.93,496.68,286.02z"/>
	<path style="fill:#8E7D6F;" d="M483.24,281.18c-0.08,0.08-0.17,0.17-0.25,0.25C483.07,281.35,483.15,281.27,483.24,281.18z"/>
	<path style="fill:#A58A74;" d="M486.37,279.03c-0.13,0.08-0.25,0.16-0.38,0.24C486.12,279.2,486.24,279.12,486.37,279.03z"/>
	<path style="fill:#978373;" d="M482.67,288.42c0.12,0.07,0.23,0.14,0.35,0.21C482.9,288.55,482.79,288.48,482.67,288.42z"/>
	<path style="fill:#BB8E6E;" d="M485.65,279.49c-0.09,0.09-0.18,0.17-0.27,0.26C485.47,279.67,485.56,279.58,485.65,279.49z"/>
	<path style="fill:#BB8E6D;" d="M481.06,286.96c0.09,0.12,0.17,0.23,0.26,0.35C481.24,287.19,481.15,287.08,481.06,286.96z"/>
	<path style="fill:#BB8E6E;" d="M485.4,279.74c-0.09,0.08-0.17,0.17-0.26,0.25C485.22,279.91,485.31,279.83,485.4,279.74z"/>
	<path style="fill:#8E7D6F;" d="M483.49,280.94c-0.09,0.09-0.18,0.17-0.27,0.26C483.31,281.11,483.4,281.03,483.49,280.94z"/>
	<path style="fill:#AC8C73;" d="M497.87,285.29c0.09-0.08,0.18-0.16,0.27-0.24C498.05,285.13,497.96,285.21,497.87,285.29z"/>
	<path style="fill:#8E7D6F;" d="M483,281.42c-0.09,0.09-0.17,0.18-0.26,0.27C482.82,281.6,482.91,281.51,483,281.42z"/>
	<path style="fill:#A68A74;" d="M481.54,283.52c-0.07,0.11-0.14,0.22-0.21,0.33C481.41,283.75,481.47,283.63,481.54,283.52z"/>
	<path style="fill:#BF8E6B;" d="M498.12,285.06c0.08-0.09,0.17-0.17,0.25-0.26C498.29,284.88,498.21,284.97,498.12,285.06z"/>
	<path style="fill:#A58A75;" d="M482.28,282.3c-0.09,0.12-0.19,0.24-0.28,0.36C482.09,282.54,482.18,282.42,482.28,282.3z"/>
	<path style="fill:#A58A74;" d="M489.97,284.32c-0.08-0.11-0.16-0.22-0.23-0.33C489.82,284.1,489.9,284.21,489.97,284.32z"/>
	<path style="fill:#978373;" d="M481.79,283.01c-0.07,0.13-0.15,0.25-0.22,0.38C481.65,283.26,481.72,283.14,481.79,283.01z"/>
	<path style="fill:#A48A74;" d="M480.82,286.72c0.08,0.09,0.17,0.18,0.25,0.26C480.99,286.89,480.91,286.8,480.82,286.72z"/>
	<path style="fill:#AE8D74;" d="M494.54,283.14c-0.11,0.07-0.22,0.13-0.33,0.2C494.32,283.27,494.43,283.21,494.54,283.14z"/>
	<path style="fill:#AA8C73;" d="M481.92,287.92c0.12,0.09,0.25,0.19,0.37,0.28C482.17,288.11,482.05,288.01,481.92,287.92z"/>
	<path style="fill:#DCD9D4;" d="M464.67,280.5c-0.36,0-0.72-0.01-1.08,0c-0.83,0.02-1.67,0.02-1.68-1.13
		c-0.01-0.94-0.03-1.72,1.15-2.27c2.92-1.35,5.83-2.6,9.14-2.45c1.3,0.06,3.02,0.06,3.4,1.19c0.3,0.88-1.36,1.65-2.31,2.26
		C470.68,279.78,467.77,280.49,464.67,280.5z"/>
	<path style="fill:#484847;" d="M463.98,276.07c-0.07-0.02-0.24-0.08-0.24-0.08c0.09-0.33,0.36-0.48,0.66-0.58
		c0.08-0.03,0.27,0.05,0.27,0.07C464.63,275.87,464.26,275.89,463.98,276.07z"/>
	<path style="fill:#F0CD8B;" d="M460.72,289.83c1.76-0.07,3.6,0.24,5.42,0.71c0.42,0.11,0.84,0.27,1.22,0.48
		c1.95,1.09,2.03,2.35,0.09,3.4c-3.9,2.1-7.84,2.89-11.74-0.12c-1.33-1.03-1.38-2.4,0.06-3.44
		C457.21,289.81,458.89,289.78,460.72,289.83z"/>
	<path style="fill:#BF488F;" d="M476.03,291.55c0.13-0.02,0.26-0.03,0.39-0.05c0.4-0.21,0.87,0.01,1.28-0.19c0.34,0,0.67,0,1.01,0
		c0.29,0.19,0.67-0.04,0.95,0.2c0.08-0.02,0.16-0.01,0.23,0.02c0.15,0.13,0.37,0.1,0.54,0.2c1.17,0.41,2.42,0.74,2.17,2.42
		c-0.24,0.12-0.2,0.39-0.3,0.58c-0.73,1.14-1.83,1.71-3.08,2.07c-1.32,0.18-2.64,0.17-3.95,0.01l-0.09,0.01l-0.09-0.04
		c-0.22-0.2-0.54-0.03-0.76-0.21c-0.98-0.25-1.92-0.54-2.37-1.57c-0.12-0.31-0.14-0.62,0-0.92c0.08-0.13,0.17-0.26,0.25-0.38
		c0.09-0.1,0.18-0.19,0.25-0.31c0.83-0.74,1.66-1.49,2.84-1.62C475.5,291.56,475.81,291.73,476.03,291.55z"/>
	<path style="fill:#BB699A;" d="M475.25,296.81c1.32,0,2.64,0,3.95-0.01C477.89,297.22,476.57,297.19,475.25,296.81z"/>
	<path style="fill:#B0799B;" d="M477.69,291.32c-0.38,0.35-0.85,0.16-1.28,0.19C476.8,291.16,477.25,291.29,477.69,291.32z"/>
	<path style="fill:#B97BA1;" d="M479.65,291.52c-0.32-0.03-0.68,0.11-0.95-0.2C479.04,291.28,479.39,291.19,479.65,291.52z"/>
	<path style="fill:#B380A0;" d="M476.03,291.55c-0.19,0.27-0.48,0.19-0.74,0.21C475.49,291.54,475.75,291.5,476.03,291.55z"/>
	<path style="fill:#998293;" d="M471.94,294.07c0,0.31,0,0.62,0,0.92C471.64,294.69,471.64,294.38,471.94,294.07z"/>
	<path style="fill:#A87595;" d="M474.31,296.57c0.28-0.01,0.56-0.05,0.76,0.21C474.79,296.81,474.51,296.84,474.31,296.57z"/>
	<path style="fill:#A57C96;" d="M480.42,291.74c-0.18-0.07-0.36-0.13-0.54-0.2C480.06,291.61,480.24,291.67,480.42,291.74z"/>
	<path style="fill:#B2789C;" d="M482.29,294.74c0-0.25,0.04-0.47,0.3-0.58C482.49,294.35,482.39,294.55,482.29,294.74z"/>
	<path style="fill:#94818F;" d="M472.44,293.38c-0.08,0.1-0.16,0.21-0.25,0.31C472.28,293.58,472.36,293.48,472.44,293.38z"/>
	<path style="fill:#D692B9;" d="M501.45,271.36c1.08-0.13,2.2,0.36,3.27,1.02c0.73,0.45,0.78,1.07,0.34,1.74
		c-1.28,1.96-6.23,3.18-8.32,2.1c-0.99-0.51-1.23-1.1-0.6-2.08C497.34,272.25,499.01,271.3,501.45,271.36z"/>
	<path style="fill:#9E928C;" d="M480.83,270.25c0.01-2.38,1.72-4.09,4.27-4.4c1.81-0.22,3.62,0.98,4.02,2.62
		c0.11,0.46,0.18,0.96-0.24,1.2c-2.14,1.24-4.3,2.44-6.93,1.94C481.13,271.45,480.64,271.06,480.83,270.25z"/>
	<path style="fill:#EEC78A;" d="M469.59,263.62c0.79-0.01,1.45,0.17,1.99,0.73c1.26,1.31,1.13,2.47-0.44,3.3
		c-1.59,0.84-3.23,1.56-5.09,1.55c-0.85,0-1.71-0.1-1.93-1.03c-0.22-0.95-0.35-2.06,0.64-2.74
		C466.22,264.45,467.92,264.03,469.59,263.62z"/>
	<path style="fill:#232322;" d="M487.53,284.36c0,0.08,0.02,0.15,0.06,0.21c0.12,0.32,0.15,0.65-0.02,0.96
		c-0.03,0.05-0.04,0.1-0.03,0.16c-0.1,0.17-0.08,0.4-0.24,0.55l0.01-0.02c-0.07,0.11-0.16,0.2-0.23,0.31
		c-0.31,0.22-0.62,0.45-0.93,0.67c-0.41,0.17-0.82,0.18-1.23,0c-0.07-0.08-0.15-0.15-0.22-0.23c-0.09-0.1-0.19-0.2-0.23-0.34
		c0.01-0.05,0-0.09-0.03-0.13c-0.12-0.15-0.07-0.37-0.21-0.51c0-0.47,0-0.95,0-1.42c0.2-0.21,0.03-0.53,0.21-0.74
		c0.03-0.06,0.05-0.12,0.04-0.19c0.11-0.17,0.08-0.4,0.22-0.56c0.03-0.04,0.03-0.08,0.01-0.12c0.35-0.7,0.9-0.48,1.44-0.31h-0.02
		c0.15,0.12,0.37,0.09,0.5,0.25l-0.02-0.01c0.1,0.07,0.18,0.16,0.26,0.25l-0.02-0.02c0.09,0.08,0.18,0.16,0.25,0.26l-0.01-0.02
		c0.11,0.1,0.21,0.21,0.25,0.35v0.09C487.46,283.96,487.42,284.19,487.53,284.36z"/>
	<path style="fill:#BB8967;" d="M486.12,282.66c-0.5,0.03-1.04-0.18-1.44,0.31C484.99,282.07,485.54,282.31,486.12,282.66z"/>
	<path style="fill:#C18C67;" d="M484.91,287.2c0.41,0,0.82,0,1.23,0C485.73,287.54,485.32,287.57,484.91,287.2z"/>
	<path style="fill:#CC8457;" d="M487.57,285.53c0.01-0.32,0.01-0.64,0.02-0.96C487.9,284.89,487.88,285.21,487.57,285.53z"/>
	<path style="fill:#B48C6F;" d="M484.42,283.84c0.03,0.27,0.04,0.54-0.21,0.74C484.21,284.31,484.15,284.03,484.42,283.84z"/>
	<path style="fill:#947E6B;" d="M487.53,284.36c-0.07-0.18-0.15-0.37-0.22-0.55C487.39,283.99,487.46,284.17,487.53,284.36z"/>
	<path style="fill:#A0826B;" d="M484.68,283.09c-0.07,0.19-0.15,0.38-0.22,0.56C484.53,283.46,484.61,283.27,484.68,283.09z"/>
	<path style="fill:#A78B75;" d="M484.21,286c0.07,0.17,0.14,0.34,0.21,0.51C484.35,286.34,484.28,286.17,484.21,286z"/>
	<path style="fill:#A8866D;" d="M486.6,282.9c-0.21,0-0.41-0.02-0.5-0.25C486.31,282.64,486.5,282.68,486.6,282.9z"/>
	<path style="fill:#AF866A;" d="M487.3,286.24c0.08-0.18,0.16-0.37,0.24-0.55C487.56,285.92,487.53,286.12,487.3,286.24z"/>
	<path style="fill:#918070;" d="M487.07,286.53c0.08-0.1,0.16-0.21,0.23-0.31C487.23,286.32,487.15,286.42,487.07,286.53z"/>
	<path style="fill:#938171;" d="M487.07,283.38c-0.08-0.09-0.17-0.17-0.25-0.26C486.91,283.21,486.99,283.29,487.07,283.38z"/>
	<path style="fill:#948171;" d="M486.84,283.13c-0.09-0.08-0.18-0.16-0.26-0.25C486.67,282.97,486.75,283.05,486.84,283.13z"/>
	<path style="fill:#988473;" d="M484.46,286.64c0.08,0.11,0.16,0.22,0.23,0.34C484.61,286.86,484.54,286.75,484.46,286.64z"/>
	<path style="fill:#B78E70;" d="M487.31,283.71c-0.08-0.12-0.16-0.24-0.25-0.35C487.15,283.48,487.23,283.59,487.31,283.71z"/>
	<path style="fill:#D3D3D3;" d="M485.76,284.29c0.3,0.14,0.61,0.3,0.65,0.64c0.04,0.4-0.21,0.71-0.6,0.76
		c-0.41,0.05-0.35-0.33-0.36-0.59C485.45,284.8,485.37,284.45,485.76,284.29z"/>
</g>
</svg>
