<?xml version="1.0" encoding="utf-8"?>
<!-- Generator: Adobe Illustrator 16.0.0, SVG Export Plug-In . SVG Version: 6.00 Build 0)  -->
<!DOCTYPE svg PUBLIC "-//W3C//DTD SVG 1.0//EN" "http://www.w3.org/TR/2001/REC-SVG-20010904/DTD/svg10.dtd" [
	<!ENTITY ns_flows "http://ns.adobe.com/Flows/1.0/">
	<!ENTITY ns_extend "http://ns.adobe.com/Extensibility/1.0/">
	<!ENTITY ns_ai "http://ns.adobe.com/AdobeIllustrator/10.0/">
	<!ENTITY ns_graphs "http://ns.adobe.com/Graphs/1.0/">
]>
<svg version="1.0" id="Layer_1" xmlns:x="&ns_extend;" xmlns:i="&ns_ai;" xmlns:graph="&ns_graphs;"
	 xmlns="http://www.w3.org/2000/svg" xmlns:xlink="http://www.w3.org/1999/xlink" xmlns:a="http://ns.adobe.com/AdobeSVGViewerExtensions/3.0/"
	 x="0px" y="0px" width="960px" height="560px" viewBox="0 0 960 560" style="enable-background:new 0 0 960 560;"
	 xml:space="preserve">
<g>
	<path style="fill:#222221;" d="M495.43,293.84c-1.92,0.11-4.5-0.47-7.1-0.73c-3.41-0.35-6.73-1.06-10.07-1.7
		c-3.14-0.6-5.67-2.47-8.23-4.23c-0.47-0.32-0.87-0.6-1.47-0.64c-1.84-0.13-3.65-0.58-5.3-1.39c-3.94-1.93-8.05-2.04-12.29-1.54
		c-1.82,0.21-3.66,0.18-5.5,0.26c-0.52,0.02-0.83-0.04-0.32-0.63c0.52-0.6-0.46-0.85-0.48-1.49c-0.01-0.62,0.04-1.02,0.52-1.07
		c0.79-0.08,1.52-0.43,2.25-0.5c6.05-0.61,12.14-1.67,18.07,0.76c0.75,0.3,1.14,0.27,0.99-0.76c-0.19-1.28-0.19-2.94,0.82-3.58
		c1.41-0.9,1.99-2.38,3.18-3.33c0.65-0.52,1.24-1.06,1.86-1.6c0.93-0.81,1.95-1.72,3.38-0.94c0.46,0.25,0.58-0.11,0.64-0.42
		c0.31-1.66,1.52-2.01,2.97-2.2c3.64-0.47,7.29-0.73,10.95-0.59c1.34,0.05,2.67,0.41,3.99,0.73c2.44,0.59,4.86,1.26,7.17,2.27
		c1.04,0.45,1.98,1.06,2.43,2.18c0.1,0.23,0.19,0.44,0.47,0.48c1.15,0.18,1.9,1.04,2.3,1.92c0.66,1.45,1.85,2.32,2.99,3.21
		c2.91,2.27,3.74,5.42,3.72,8.8c-0.01,1.81-1.24,3.16-2.91,4.1C505.98,293.71,501.08,293.78,495.43,293.84z"/>
	<path style="fill:#B7B7B7;" d="M498.25,268.73c-0.06,0.02-0.12,0.05-0.18,0.06c-0.02,0-0.04-0.05-0.06-0.08
		c0.06-0.02,0.12-0.05,0.18-0.06C498.2,268.65,498.23,268.7,498.25,268.73z"/>
	<path style="fill:#7F7E7E;" d="M495.95,268.01c-0.03,0.03-0.05,0.05-0.08,0.08c-0.02-0.03-0.07-0.06-0.06-0.08
		c0-0.03,0.05-0.05,0.07-0.08C495.9,267.95,495.92,267.98,495.95,268.01z"/>
	<path style="fill:#6A4C24;" d="M493.79,275.08c-1.13,0.15-1.93-0.29-2.09-1.59c-0.16-1.29,0.74-2.02,1.95-1.6
		c1.09,0.38,2.14,0.86,3.04,1.61c0.54,0.45,0.6,0.81-0.14,1.08C495.68,274.9,494.81,275.15,493.79,275.08z"/>
	<path style="fill:#715125;" d="M479.63,282.78c0.18,1.17-0.11,2.38,0.26,3.55c0.14,0.43-0.03,0.75-0.6,0.76
		c-1.31,0.01-2.69-1.07-2.9-2.36c-0.13-0.83-0.1-1.66,0.2-2.47c0.71-0.07,1.09,0.52,1.62,0.82c0.35,0.2,0.73,0.59,1.02-0.07
		C479.32,282.86,479.43,282.74,479.63,282.78z"/>
	<path style="fill:#725225;" d="M477.54,277.04c-0.83,2.7-0.83,2.7-2.75,0.71c-1.08-1.11-1-1.95,0.31-3.39
		c0.46-0.17,0.67,0.19,0.86,0.46C476.46,275.58,477.22,276.15,477.54,277.04z"/>
	<path style="fill:#6A4C24;" d="M489.76,271.48c0.36,0,0.72,0.02,1.07-0.01c0.66-0.05,0.89,0.18,0.61,0.82
		c-0.06,0.14-0.07,0.32-0.15,0.45c-0.3,0.51,0.25,1.51-0.29,1.54c-1.03,0.06-2.2-0.1-3.09-0.58c-0.82-0.44-0.07-1.45-0.08-2.2
		C488.48,271.28,489.12,271.3,489.76,271.48z"/>
	<path style="fill:#E9CE76;" d="M498.94,287.5c-0.35-0.83-1.27-1.8-0.72-2.48c0.4-0.49,1.7-0.26,2.59-0.35
		c0.15-0.13,0.3-0.13,0.46-0.01c0.89,0.45,0.81,1.48,1.29,2.17C501.51,287.86,500.22,287.68,498.94,287.5z"/>
	<path style="fill:#6A4C25;" d="M485.82,273.88c-0.44-0.08-1.01,0.23-1.14-0.55c-0.03-0.16,0.57-1.06-0.4-0.62
		c-0.32,0.15,0.43,1.1-0.54,0.94c-0.55-0.09-1.22-0.32-1.31-0.89c-0.1-0.66,0.67-0.62,1.1-0.85c0.99-0.52,2.11-0.32,3.14-0.61
		c0.16-0.04,0.52,0.08,0.52,0.12c-0.01,0.71,0.04,1.44-0.14,2.12C486.89,274.16,486.22,273.73,485.82,273.88z"/>
	<path style="fill:#DDA621;" d="M498.1,293.04c-0.9,0.1-0.93-0.06-0.64-0.68c0.46-0.98,0.96-1.67,2.2-1.48
		c0.45,0.07,0.93-0.17,1.4-0.21c0.44-0.03,1.01-0.59,1.24-0.08c0.14,0.31-0.26,0.97-0.56,1.37
		C500.74,293.28,499.13,292.6,498.1,293.04z"/>
	<path style="fill:#E3AD1F;" d="M463.21,281.23c1.58-0.12,3.74,2.24,3.51,3.56c-0.08,0.49-0.45,0.48-0.71,0.36
		c-0.79-0.34-1.9-0.25-1.96-1.63c-0.02-0.63-0.48-1.24-0.77-1.85C463.18,281.45,463.09,281.29,463.21,281.23z"/>
	<path style="fill:#E3AC1F;" d="M473.41,280.55c0.01-0.08,0-0.17,0.02-0.24c0.25-0.64,0.26-1.46,1.05-1.7
		c0.36-0.11,1.7,1.93,1.63,2.41c-0.08,0.58,0.05,1.2-0.27,1.74C474.59,282.81,473.48,281.8,473.41,280.55z"/>
	<path style="fill:#E3AD1F;" d="M495.3,287.8c-0.08-0.14-0.17-0.27-0.23-0.42c-0.78-2.06-0.19-2.86,1.95-2.36
		c0.75,0.17,0.64,1.31,0.94,2C497.56,288.04,496.6,288.32,495.3,287.8z"/>
	<path style="fill:#DBA520;" d="M490.06,277.24c-0.18-0.61-0.18-0.61-0.56-0.49c-0.1,0.48-0.36,0.7-0.83,0.46
		c-0.45-0.23-0.97-0.32-1.36-0.67c-0.07-0.18-0.08-0.35,0.03-0.52c1.76-0.59,3.45,0.07,5.16,0.29c0.44,0.06,0.39,0.52,0.42,0.87
		c0.19,0.71-0.23,1.02-0.81,1.16C491.33,278.54,490.44,278.04,490.06,277.24z"/>
	<path style="fill:#E3AC1F;" d="M503.2,286.61c-0.16-0.27-0.35-0.52-0.48-0.81c-0.54-1.17,0.34-2.5,1.58-2.24
		c0.58,0.12,0.54,1.03,0.85,1.54c0.04,0.12,0.12,0.21,0.21,0.29l0.01,0.02c0.07,0.06,0.13,0.14,0.17,0.22
		c0.04,0.07,0.08,0.15,0.12,0.22c-0.51,0.79-1.12,1.4-2.17,1.22c-0.05-0.04-0.08-0.1-0.08-0.16
		C503.38,286.78,503.29,286.69,503.2,286.61z"/>
	<path style="fill:#7D5C28;" d="M494.53,287.54c0.06,0.1,0.17,0.19,0.19,0.3c0.15,0.77,1.25,1.57,0.44,2.24
		c-0.72,0.59-2.59-0.45-3.04-1.45c-0.16-0.36-0.27-0.74-0.4-1.1C492.66,286.97,493.59,287.07,494.53,287.54z"/>
	<path style="fill:#DEA720;" d="M490.92,292.62c-0.16-0.01-0.32,0-0.48-0.03c-0.5-0.08-1.41-0.06-1.24-0.58
		c0.19-0.59,0.31-1.7,1.46-1.58c0.75,0.08,1.5,0.18,2.25,0.25c0.53,0.05,0.4,0.31,0.28,0.66
		C492.79,292.43,491.98,292.73,490.92,292.62z"/>
	<path style="fill:#E1AA1F;" d="M480.2,284.92c-0.01-0.77-0.4-2.05,0.13-2.19c0.8-0.21,1.89,0.2,2.68,0.66
		c0.58,0.34,0.51,1.26,0.54,1.97c0.1,0.47-0.27,0.47-0.51,0.39c-0.83-0.27-1.65-0.55-2.54-0.5
		C480.34,285.27,480.27,285.06,480.2,284.92z"/>
	<path style="fill:#E0A921;" d="M509.18,282.05c-1.48-1-2.06-2.46-1.69-4.19c0.09-0.41,0.28-0.51,0.53-0.21
		c0.79,0.96,1.85,1.77,1.92,3.17C509.85,281.34,510.02,282,509.18,282.05z"/>
	<path style="fill:#E5B22A;" d="M505,274.34c1.72,0.76,1.63,2.37,1.81,3.85c-0.09,0.7-0.54,1.06-1.2,1.2
		c-0.04-0.07-0.05-0.14-0.04-0.21c-0.11-0.15-0.07-0.35-0.18-0.5c-0.25-0.64-0.51-1.28-0.76-1.92
		C504.39,275.9,504.22,275.05,505,274.34z"/>
	<path style="fill:#DEA821;" d="M507.53,289.72c-0.11-0.57,0.03-0.97,0.63-1.21c0.86-0.35,1.53-0.98,2.11-1.71
		c0.11-0.14,0.16-0.44,0.4-0.33c0.11,0.05,0.19,0.33,0.17,0.49c-0.14,1.25-0.15,2.54-1.16,3.5
		C508.92,290.36,508.3,289.83,507.53,289.72z"/>
	<path style="fill:#E2AC1F;" d="M488.9,287.58c-0.13-0.25-0.29-0.48-0.39-0.74c-0.26-0.68-0.86-1.43-0.39-2.07
		c0.38-0.51,2.19,0.61,2.47,1.49c0.06,0.19,0.09,0.38,0.14,0.57c0.13,0.14,0.08,0.35,0.21,0.49c0.04,0.07,0.07,0.14,0.07,0.22
		c-0.54,0.85-1.23,0.64-1.94,0.26l-0.02-0.04C488.96,287.72,488.91,287.66,488.9,287.58z"/>
	<path style="fill:#EDD47B;" d="M470.52,274.61c0.68-0.55,1.18-0.31,1.48,0.4c0.35,0.85,0.78,1.64,1.4,2.31
		c0.68,0.72-0.05,1.22-0.26,1.8C471.55,278.37,470.44,276.47,470.52,274.61z"/>
	<path style="fill:#B1842F;" d="M470.52,274.61c0.32,1.83,1.34,3.25,2.62,4.51c-0.16,0.48-0.32,0.96-0.48,1.44
		c-0.54,0.04-0.74-0.41-1-0.72c-0.98-1.21-1.68-2.57-2.15-4.05C469.86,275.4,470,274.84,470.52,274.61z"/>
	<path style="fill:#DDA720;" d="M493.64,277.48c-0.05-0.62-0.75-1.43,0.64-1.55c1.04-0.09,2.08-0.52,2.22,1.11
		c0.04,0.41,0.28,0.8,0.42,1.2c0.1,0.04,0.13,0.07,0.1,0.11c-0.03,0.04-0.06,0.05-0.1,0.05c-0.14,0.03-0.27,0.05-0.41,0.08
		C495.39,278.64,494.43,278.29,493.64,277.48z"/>
	<path style="fill:#E9D490;" d="M467.23,278.42c0.08-0.27,0.17-0.53,0.25-0.79c0.1-0.32,0.28-0.68,0.58-0.69
		c0.45-0.02,0.35,0.48,0.42,0.74c0.2,0.85,0.44,1.68,0.88,2.45c0.18,0.31,0.57,0.77-0.12,0.92c-0.51,0.11-1.22,0.64-1.52-0.27
		C467.49,280.02,467.4,279.22,467.23,278.42z"/>
	<path style="fill:#EAD077;" d="M494.53,287.54c-0.94,0-1.88-0.01-2.82-0.01c-0.01-0.04-0.02-0.08-0.03-0.12
		c-0.26-0.68-0.97-1.7-0.55-2c0.54-0.38,1.65-0.26,2.38,0C494.36,285.71,494.13,286.84,494.53,287.54z"/>
	<path style="fill:#8A6D34;" d="M512.12,283.46c1.18,1.44,0.8,5.21-0.63,6.21c-0.12,0.08-0.27,0.11-0.41,0.17
		c-0.01-0.14-0.08-0.3-0.03-0.42c0.35-1,0.17-2.02,0.13-3.03c0.52-0.47,0.5-1.12,0.58-1.74
		C511.8,284.23,511.69,283.76,512.12,283.46z"/>
	<path style="fill:#B98428;" d="M483.96,286.83c0.1,0.41,0.53,0.9,0.18,1.2c-0.21,0.19-0.82,0.02-1.21-0.11
		c-1.02-0.33-2.55-0.01-2.51-1.82c0.39-0.76,1.01-0.81,1.7-0.52C482.83,285.87,483.46,286.25,483.96,286.83z"/>
	<path style="fill:#E2AC21;" d="M457.78,280.13c0.64,0.1,1.24,0.32,1.67,0.82c0.44,0.52,0.8,1.11,0.73,1.83
		c-0.03,0.29-0.42,0.28-0.6,0.19c-0.68-0.35-1.77,0-1.97-1.17c-0.05-0.31-0.19-0.61-0.35-0.88
		C456.88,280.27,457.06,280.04,457.78,280.13z"/>
	<path style="fill:#6E4F25;" d="M505.1,280.83c-0.08,0.98-0.6,1.69-1.43,2.17c-0.54,0.31-1.25,0.85-1.72,0.55
		c-0.57-0.37-0.05-1.15,0.05-1.75C502.7,280.75,503.92,280.37,505.1,280.83z"/>
	<path style="fill:#725226;" d="M472.46,281.31c-0.13,0.43-0.26,0.85-0.39,1.28c-0.33-0.33-0.69-0.63-0.98-0.99
		c-0.99-1.21-1.53-2.65-2.06-4.1c-0.1-0.28-0.16-0.53,0.12-0.74c0.63-0.11,0.81,0.38,1.03,0.79
		C470.84,278.85,471.61,280.11,472.46,281.31z"/>
	<path style="fill:#B98428;" d="M475.82,283.95c0.02,0.46,0.29,1.09-0.12,1.33c-0.41,0.24-0.89-0.25-1.21-0.55
		c-0.78-0.72-2.58-0.93-1.5-2.69c0.97-0.49,1.37,0.45,2,0.8C475.41,283.07,475.6,283.53,475.82,283.95z"/>
	<path style="fill:#B88429;" d="M498.65,288.27c0.39,0.48,1.15,1.1,0.92,1.52c-0.27,0.48-1.21,0.29-1.85,0.42
		c-1.25,0.24-1.47-0.73-1.92-1.46C496.64,287.94,497.58,287.74,498.65,288.27z"/>
	<path style="fill:#C79026;" d="M470.34,285.44c-0.49,0.42-0.78,0.12-1.05-0.28c-0.36-0.53-0.75-1.03-1.05-1.58
		c-0.24-0.43-0.77-0.93-0.46-1.38c0.25-0.36,0.89-0.13,1.36-0.11C470.36,282.98,470.8,284.2,470.34,285.44z"/>
	<path style="fill:#745326;" d="M497.94,281.79c0.64,1.89,0.12,2.42-2.4,2.41c-0.3-0.34-0.28-0.76-0.3-1.16
		c-0.06-0.33-0.11-0.66-0.17-0.99C496.02,281.84,496.99,281.99,497.94,281.79z"/>
	<path style="fill:#DFA920;" d="M470.34,285.44c0.1-1.29-0.59-2.31-1.2-3.35c1.8-1.14,2.14,0.81,2.6,1.55
		C472.34,284.59,471.06,284.99,470.34,285.44z"/>
	<path style="fill:#745527;" d="M484.26,282.73c-1.21-0.08-2.27-0.69-3.42-0.98c-0.1-0.18-0.11-0.35,0.09-0.47
		c0.15-0.4,0.31-0.79,0.46-1.19c1.1,0,1.98,0.53,2.8,1.19c0.01,0.42,0.03,0.83,0.04,1.25c0.08,0.04,0.11,0.08,0.09,0.12
		C484.31,282.71,484.29,282.73,484.26,282.73z"/>
	<path style="fill:#EFD782;" d="M484.27,285.64c-0.24-0.62-0.63-1.43-0.23-1.89c0.39-0.45,1.16,0.1,1.73,0.28
		c0.49,0.16,1.16-0.01,1.44,0.64c0,0.08,0.02,0.14,0.08,0.2c0.01,0.1,0.02,0.19,0.03,0.29C486.36,286.1,485.5,286.23,484.27,285.64z
		"/>
	<path style="fill:#B98429;" d="M506.11,286.35c0.13,0.09,0.29,0.16,0.37,0.29c0.3,0.5,1.33,1,1.15,1.1
		c-0.7,0.39-1.37,0.94-2.28,0.99c-0.74,0.04-0.99-0.3-1.22-0.84C504.32,286.76,505.14,286.46,506.11,286.35z"/>
	<path style="fill:#DDA721;" d="M499.88,276.5c-0.14-0.32-0.33-0.63-0.42-0.97c-0.09-0.37-0.77-0.69-0.25-1.1
		c0.38-0.3,0.73-0.8,1.3-0.73c0.58,0.07,0.67,0.61,0.77,1.06c0.11,0.49,0.17,1,0.24,1.5C501.06,276.92,500.47,276.74,499.88,276.5z"
		/>
	<path style="fill:#EDD47F;" d="M505.83,284.73c-0.33-0.52-1.21-1.13-0.65-1.63c0.67-0.58,1.32-1.77,2.6-1.07
		C508.25,283.35,507.56,284.3,505.83,284.73z"/>
	<path style="fill:#E1AE24;" d="M474.41,273.93c-0.18,0.38-0.36,0.75-0.55,1.13c-0.46,0.37-0.81,0.03-1.18-0.19v-0.01
		c-0.05-0.1-0.11-0.19-0.18-0.28c-0.71-1.04-0.62-1.87,0.61-2.42C474.12,272.42,474.47,272.89,474.41,273.93z"/>
	<path style="fill:#715226;" d="M503.2,287.81c0.83,0.86,0.69,1.18-0.51,1.55c-1.25,0.38-2.17,0.45-2.86-0.78
		c-0.09-0.46,0.28-0.55,0.57-0.58C501.32,287.91,502.24,287.59,503.2,287.81z"/>
	<path style="fill:#B38630;" d="M483.77,270.79c-0.43,0.2-0.85,0.43-1.29,0.58c-0.48,0.16-0.81,0.99-1.44,0.42
		c-0.76-0.69-1.52-1.41-1.74-2.49c-0.01-0.03,0.25-0.12,0.39-0.18c1.01,0.71,2.06,1.27,3.38,1.12
		C483.36,270.2,483.83,270.24,483.77,270.79z"/>
	<path style="fill:#DEA821;" d="M482.54,289.2c0.95-0.84,2.18-0.2,2.59,0.25c0.52,0.58-0.47,1.27-1.09,1.73
		c-0.85-0.04-1.38-0.51-1.74-1.24c0-0.08,0.02-0.16,0.06-0.23C482.47,289.57,482.43,289.36,482.54,289.2z"/>
	<path style="fill:#E1AC21;" d="M452.7,280.89c1.32-0.4,1.72,0.42,1.97,1.28c0.15,0.5-0.42,0.52-0.73,0.51
		c-1-0.04-2.14-0.08-2.25-1.41C451.63,280.38,452.51,281.12,452.7,280.89z"/>
	<path style="fill:#916627;" d="M472.46,281.31c-1.42-0.83-1.79-2.4-2.58-3.67c-0.21-0.34-0.38-0.68-0.74-0.87
		c0.13-0.32,0.26-0.65,0.4-0.97c1.17,1.51,1.69,3.45,3.14,4.78C472.6,280.81,472.53,281.06,472.46,281.31z"/>
	<path style="fill:#7F5A27;" d="M487.86,287.06c0.25,0.61,0.88,1.51,0.68,1.75c-0.43,0.53-1.22-0.06-1.86-0.13
		c-0.84-0.1-1.89-0.09-1.92-1.38C485.78,286.98,486.84,287.23,487.86,287.06z"/>
	<path style="fill:#F5E6B5;" d="M478.5,276.76c0.26-0.41,0.53-1.17,1.08-0.65c0.79,0.73,2.46,1.14,1.47,2.83
		C479.82,278.87,478.88,278.08,478.5,276.76z"/>
	<path style="fill:#E7CF82;" d="M512.12,283.46c-0.14,0.77,0.11,1.58-0.21,2.34c-0.14,0.33-0.12,0.87-0.74,0.59
		c-0.11-1.52-0.22-3.04-0.33-4.56c-0.05-0.09-0.09-0.18-0.13-0.27c-0.01-0.15-0.03-0.29-0.04-0.44c0.6-0.13,0.66,0.4,0.9,0.72
		c0.01,0.07,0.03,0.14,0.05,0.2c0.13,0.15,0.08,0.36,0.2,0.51c0.01,0.07,0.02,0.15,0.05,0.21c0.12,0.15,0.08,0.36,0.2,0.51
		C512.06,283.33,512.08,283.4,512.12,283.46z"/>
	<path style="fill:#F3E2AC;" d="M498.39,280.89c-0.18-0.3-0.34-0.62-0.56-0.89c-0.4-0.48-0.32-0.67,0.3-0.84
		c1.05-0.29,2.12-0.88,2.63,0.72C500.14,280.6,499.49,281.27,498.39,280.89z"/>
	<path style="fill:#C39D3C;" d="M483.77,270.79c-0.33-0.41-0.8-0.29-1.21-0.25c-1.28,0.13-2.2-0.38-2.87-1.43
		c0.23-0.07,0.46-0.14,0.69-0.22c0.11,0.08,0.22,0.15,0.34,0.22c0.59,0.46,1.26,0.62,2.01,0.6c1.15-0.03,2.3-0.01,3.45-0.01
		c0.44,0,0.88,0.01,1.24,0.33c0.15,0.51-0.22,0.46-0.52,0.49C485.85,270.61,484.81,270.7,483.77,270.79z"/>
	<path style="fill:#8D692A;" d="M503.2,287.81c-1.02,0.7-2.34,0.14-3.38,0.77c-0.37-0.29-0.77-0.57-0.88-1.08
		c1.21-0.22,2.42-0.45,3.62-0.67C502.78,287.15,502.99,287.48,503.2,287.81z"/>
	<path style="fill:#A6762C;" d="M502.74,272.44c0.73,0.44,0.71,1.16,0.72,1.88c0.02,0.89-0.66,1.29-1.19,1.8
		c-0.09-0.45-0.18-0.89-0.28-1.34c-0.05-0.23-0.13-0.45-0.19-0.68C501.87,273.41,501.74,272.6,502.74,272.44z"/>
	<path style="fill:#E5CF8A;" d="M481.37,268.7c1.83-0.34,3.67-0.35,5.52-0.33c0.56,0.01,0.88,0.11,0.5,0.73
		c-1.52,0.67-3.12,0.2-4.67,0.3C482.17,269.44,481.59,269.38,481.37,268.7z"/>
	<path style="fill:#AB7D2B;" d="M508.8,282.74c0.39,0.41,0.77,0.81,1.16,1.22c-0.86,0.85-1.58,1.86-2.69,2.44
		c-0.24-0.23-0.48-0.46-0.73-0.69c-0.15-0.27,0.02-0.46,0.2-0.61c0.67-0.58,1.27-1.19,1.52-2.08
		C508.33,282.8,508.49,282.57,508.8,282.74z"/>
	<path style="fill:#D39E26;" d="M475.62,288.09c0.71-0.97,2.35-1.21,3.04-0.27c0.47,0.65-0.42,0.93-0.87,1.25
		C477.09,288.7,476.04,289.09,475.62,288.09z"/>
	<path style="fill:#E8CC6B;" d="M501.1,279.16c-0.46-0.52-0.67-0.91,0.22-1.28c0.57-0.23,1.04-0.73,1.51-1.16
		c0.34-0.31,0.61-0.57,0.87,0.05C503.84,278.12,502.68,279.18,501.1,279.16z"/>
	<path style="fill:#C39B3C;" d="M495.77,270.55c0.02,0.45,0.05,0.9,0.07,1.35c-0.42-0.17-0.85-0.33-1.27-0.51
		c-0.5-0.22-0.98-0.46-1.47-0.69c-0.08-0.03-0.13-0.09-0.15-0.17c-0.01-0.08-0.02-0.17-0.02-0.25c0.12-0.21,0.05-0.52,0.33-0.64
		C494.25,269.51,495.17,269.59,495.77,270.55z"/>
	<path style="fill:#AB7C2B;" d="M501.79,281.06c-0.08-0.32-0.16-0.63-0.24-0.94c1-0.66,1.77-1.63,2.87-2.17
		c0.34,0.42,0.46,0.91,0.48,1.43c0.11,0.51-0.32,0.6-0.62,0.72c-0.74,0.3-1.43,0.71-2.16,1.04
		C501.99,281.18,501.88,281.15,501.79,281.06z"/>
	<path style="fill:#785627;" d="M491.19,282.76c0.23,0.44,0.46,0.96-0.03,1.28c-0.55,0.37-1.24,0.21-1.85,0.1
		c-0.64-0.12-0.52-0.69-0.48-1.16C489.54,282.14,490.35,282.27,491.19,282.76z"/>
	<path style="fill:#7F5927;" d="M487.34,276.03c0.03,0.15,0.05,0.3,0.08,0.45c0.58,0.73,1.71,0.78,2.13,1.72
		c0.28,0.35,0.31,0.68-0.19,0.8c-1.17,0.28-2.28-0.63-2.23-1.82C487.14,276.79,487.05,276.37,487.34,276.03z"/>
	<path style="fill:#E7CA70;" d="M481.37,268.7c1.43,0.77,2.98,0.22,4.47,0.37c0.51,0.05,1.04,0.02,1.56,0.02
		c-0.01,0.16-0.02,0.32-0.03,0.48c-1.98,0.44-3.97,0.22-5.96,0.12c-0.4-0.02-0.65-0.43-0.99-0.61c-0.01-0.06-0.02-0.13-0.03-0.19
		C480.71,268.83,481.04,268.77,481.37,268.7z"/>
	<path style="fill:#E1C464;" d="M494.83,281.09c-0.09-0.5-1.01-1.26-0.42-1.36c0.88-0.14,2.29-1.14,2.86,0.63
		C496.58,281.01,495.85,281.51,494.83,281.09z"/>
	<path style="fill:#DCAF36;" d="M498.39,280.89c0.92-0.04,1.56-0.74,2.38-1.02c0.19,0.64,0.56,1.22,0.49,1.92
		c-0.84,0.29-1.73,0.03-2.58,0.23C498.58,281.65,498.49,281.27,498.39,280.89z"/>
	<path style="fill:#D0AF4C;" d="M479.45,283.04c0.05,0.8-0.12,1.22-0.96,0.6c-0.63-0.47-1.27-0.93-1.9-1.39
		c0.03-0.39-0.12-0.81,0.16-1.17C478,281.25,478.55,282.38,479.45,283.04z"/>
	<path style="fill:#B18B36;" d="M505.58,289.7c1.36-0.84,1.34-0.01,1.19,0.98c-0.62,0.85-1.32,1.58-2.49,1.42
		c-0.68-0.09-1.32-0.29-1.31-1.18c0.13-0.67,0.53-0.99,1.22-0.94c0.05,0.17-0.01,0.31-0.08,0.45c-0.23,0.64,0.24,0.61,0.62,0.62
		c0.48,0.01,0.77-0.27,0.96-0.68c0-0.09,0-0.18-0.03-0.27C505.6,289.97,505.58,289.83,505.58,289.7z"/>
	<path style="fill:#C79026;" d="M475.62,288.09c0.59,0.62,1.72,0.05,2.16,0.99c-0.5,0.22-0.97,0.51-1.49,0.63
		c-0.61,0.14-1.34-0.11-1.56-0.58C474.51,288.64,475.22,288.37,475.62,288.09z"/>
	<path style="fill:#CE9824;" d="M483.96,286.83c-0.5-0.05-0.87-0.35-1.26-0.63c-0.73-0.51-1.49-0.74-2.27-0.1
		c-0.08-0.4-0.15-0.79-0.23-1.19c1.16-0.2,2.2,0.52,3.35,0.44C483.69,285.85,483.83,286.34,483.96,286.83z"/>
	<path style="fill:#C29B3A;" d="M496.04,290.99c0.47-0.05,1.19-0.14,1.22,0.33c0.04,0.67-0.74,0.95-1.26,1.3
		c-0.92,0.09-1.76,0.01-2.2-0.98c0.09-0.29-0.06-0.78,0.54-0.67C494.91,291.04,495.47,291.61,496.04,290.99z"/>
	<path style="fill:#D9B650;" d="M480.41,269.09c2.26,0.97,4.64,0.25,6.95,0.49c0.02,0.15,0.03,0.3,0.05,0.45
		c-1.7,0-3.41,0-5.11,0.02C481.5,270.05,480.82,269.84,480.41,269.09z"/>
	<path style="fill:#956928;" d="M502,281.09c0.71-1.01,2.05-0.93,2.9-1.7c0.39,0.44,0.18,0.95,0.2,1.44c-1.13,0-2.16,0.35-3.09,0.97
		l0,0C501.84,281.56,501.83,281.33,502,281.09z"/>
	<path style="fill:#DFAF31;" d="M493.7,280.38c0.45,0.82,1.09,1.59,0.86,2.63c-0.89-0.48-1.8-0.88-2.83-0.96
		c-0.05-0.22-0.11-0.45-0.16-0.67C492.25,280.98,492.83,280.38,493.7,280.38z"/>
	<path style="fill:#735327;" d="M510.18,285.16c0.27,1-0.44,1.43-1.09,1.92c-0.76,0.58-1.1-0.18-1.59-0.46
		c0.38-0.6,0.91-1.05,1.5-1.42C509.37,284.96,509.77,284.82,510.18,285.16z"/>
	<path style="fill:#CE9924;" d="M480.63,275.85c-0.08-0.04-0.15-0.09-0.23-0.13c-0.09-0.02-0.17-0.08-0.21-0.16
		c-0.59-0.31-0.85-0.74-0.16-1.13c0.96-0.55,1.98-1.32,2.99-0.05c0.06,0.33-0.2,0.45-0.42,0.46
		C481.79,274.89,481.21,275.36,480.63,275.85z"/>
	<path style="fill:#805827;" d="M483.5,275.31c-0.02,0.08-0.03,0.15-0.06,0.23c-0.69,1.93-0.93,1.98-2.6,0.54
		C481.47,274.92,482.22,274.7,483.5,275.31z"/>
	<path style="fill:#A0742B;" d="M487.86,287.06c-0.98,0.79-2.04,0.46-3.1,0.25c-0.07-0.24-0.14-0.48-0.22-0.72
		c1-0.32,1.97-0.96,3.05-0.23C487.87,286.53,487.84,286.8,487.86,287.06z"/>
	<path style="fill:#B48E35;" d="M484.2,281.28c-1.01-0.21-1.91-0.7-2.8-1.19c0-0.15,0.01-0.29,0.02-0.44
		c0.08-0.16,0.05-0.35,0.15-0.5c0.01-0.08,0.03-0.15,0.07-0.22c0.52-0.12,0.76,0.33,1.11,0.55c0.48,0.3,0.94,0.41,1.37-0.08
		c0.11-0.06,0.21-0.05,0.3,0.03C484.35,280.05,484.27,280.67,484.2,281.28z"/>
	<path style="fill:#C49B38;" d="M496.51,272.19c-0.01-0.39-0.03-0.78-0.04-1.17c0.25-0.18,0.48-0.05,0.63,0.12
		c0.79,0.85,1.66,1.24,2.76,0.58c0.53,0.7,0.07,1.1-0.46,1.46C498.1,273.84,497.38,272.82,496.51,272.19z"/>
	<path style="fill:#B07D25;" d="M493.64,277.48c1.05,0.08,1.81,0.98,2.88,1.01c-1.76,0.33-3.53,0.47-5.32,0.44
		c-0.14-0.15-0.14-0.32-0.05-0.49c0.68,0.13,1.29-0.43,1.98-0.23C494.1,278.52,493.35,277.63,493.64,277.48z"/>
	<path style="fill:#C8A240;" d="M487.6,286.36c-1.02,0.08-2.03,0.15-3.05,0.23c-0.09-0.32-0.18-0.63-0.28-0.95
		c1.06,0.1,2.08-0.02,3.05-0.48C487.42,285.56,487.51,285.96,487.6,286.36z"/>
	<path style="fill:#8E6C2E;" d="M502.96,290.92c1.16,1.34,1.67,1.31,3.81-0.24c-0.49,1.29-2.94,2.47-4.04,1.79
		C502.1,292.08,502.73,291.43,502.96,290.92z"/>
	<path style="fill:#735326;" d="M473.92,288.04c-1.23,0.15-2.21-0.36-3.04-1.21c-0.27-0.28-0.53-0.58,0.12-0.71
		C472.13,285.85,473.49,286.76,473.92,288.04z"/>
	<path style="fill:#CB9526;" d="M507.53,289.72c1-0.57,1.51,0.28,2.16,0.74c-0.28,0.13-0.55,0.29-0.84,0.4
		c-0.52,0.2-1.07,0.92-1.5,0.54C506.99,291.05,507.35,290.28,507.53,289.72z"/>
	<path style="fill:#EAC450;" d="M478.5,276.76c0.71,0.9,1.43,1.77,2.56,2.17c-0.07,0.31-0.15,0.63-0.22,0.94
		c-1.4-0.17-2.38-1.07-2.64-2.43C478.21,277.18,478.24,276.92,478.5,276.76z"/>
	<path style="fill:#AF8D3D;" d="M478.76,289.27c0.14-0.09,0.27-0.18,0.41-0.27c0.85,0.06,1.72,0.23,2.43-0.47
		c0.94,1.06-0.32,1.36-0.69,1.97C479.55,290.82,479.03,290.53,478.76,289.27z"/>
	<path style="fill:#BD9637;" d="M477.54,277.04c-1.09-0.64-1.47-1.93-2.44-2.68c0.25-0.31,0.46-0.68,0.91-0.73
		c0.23-0.13,0.42-0.01,0.46,0.18c0.21,1,0.91,1.7,1.48,2.48c-0.07,0.16-0.14,0.32-0.2,0.47c-0.07,0.08-0.14,0.16-0.19,0.25
		L477.54,277.04z"/>
	<path style="fill:#926728;" d="M510.18,285.16c-1.24-0.15-1.63,1.26-2.68,1.46c-0.08-0.07-0.15-0.14-0.23-0.21
		c0.8-0.92,1.47-1.99,2.69-2.44C510.34,284.3,510.08,284.76,510.18,285.16z"/>
	<path style="fill:#D29A22;" d="M475.82,283.95c-0.95-0.63-1.57-1.74-2.83-1.92c0.02-0.53,0.13-1.03,0.42-1.49
		c0.41,1.18,1.44,1.68,2.44,2.21C475.83,283.16,475.83,283.55,475.82,283.95z"/>
	<path style="fill:#EED78B;" d="M496.72,270.02c0.91,0.28,1.88,0.39,2.65,1.03c0.32,0.64,0.03,0.99-0.59,1.08
		c-0.72,0.11-2.17-1.22-2.32-2.07l0.03-0.05C496.57,269.96,496.65,269.96,496.72,270.02z"/>
	<path style="fill:#D1A12B;" d="M478.19,277.45c0.55,1.17,1.55,1.85,2.64,2.43c0,0.09,0,0.18,0,0.27c-0.04,0.87-0.41,0.91-1.01,0.4
		c-0.33-0.28-0.61-0.62-0.99-0.85c-0.09-0.05-0.18-0.12-0.26-0.18c-0.23-0.2-0.47-0.4-0.71-0.59c-0.07-0.07-0.13-0.15-0.18-0.25
		c0.12-0.32,0.23-0.64,0.35-0.96c0.07-0.08,0.14-0.17,0.2-0.26L478.19,277.45z"/>
	<path style="fill:#E8CE74;" d="M476.54,273.39c1.08-0.01,2.07,1.44,1.66,2.42C477.03,275.76,476.37,274.8,476.54,273.39z"/>
	<path style="fill:#E5CF89;" d="M488.05,269.09c-0.02-0.31-0.1-0.7,0.38-0.7c1.33,0,2.67-0.17,3.92,0.47
		c-0.11,0.21-0.26,0.44-0.5,0.46C490.58,269.4,489.29,269.7,488.05,269.09z"/>
	<path style="fill:#C99526;" d="M491.74,282.05c1.19-0.42,2.13-0.09,2.83,0.96c-0.01,0.08-0.02,0.16-0.04,0.24
		c-0.07,0.06-0.09,0.13-0.04,0.21c0.05,0.32,0.23,0.49,0.56,0.49l0,0c-0.01,0.08-0.02,0.16-0.03,0.24
		c-0.71,0.24-1.32,0.28-1.52-0.67c-0.21-1.01-1.02-0.38-1.55-0.54C491.88,282.67,491.81,282.36,491.74,282.05z"/>
	<path style="fill:#E0C983;" d="M478.76,271.55c1.22-0.84,1.57,0.49,1.91,1c0.56,0.87-0.8,0.58-0.99,1.11
		C479.01,273.11,478.54,272.48,478.76,271.55z"/>
	<path style="fill:#CA9B2D;" d="M484.26,282.73c0-0.07-0.01-0.13-0.02-0.2c0.15-0.17,0.29-0.33,0.44-0.5
		c1.06-1.01,2.16-1.08,3.4-0.22c0.12,0.57,0.61,1.19-0.24,1.62c-1.13-1.25-1.13-1.25-2.81-0.64c-0.19,0.07-0.38,0.12-0.56-0.01
		C484.4,282.78,484.33,282.76,484.26,282.73z"/>
	<path style="fill:#D29B23;" d="M498.65,288.27c-0.99-0.08-1.91,0.27-2.86,0.48c-0.16-0.32-0.33-0.64-0.49-0.95
		c0.93-0.11,1.95,0.09,2.66-0.78C498.19,287.43,498.42,287.85,498.65,288.27z"/>
	<path style="fill:#A17631;" d="M468.55,285.33c0.02,0.34-0.2,0.36-0.39,0.35c-0.34-0.01-0.76,0.1-0.92-0.34
		c-0.08-0.21-0.08-0.47-0.05-0.7c0.1-0.81-0.75-1.45-0.39-2.29c0.4,0.7,0.81,1.41,1.21,2.11
		C468.2,284.76,468.39,285.06,468.55,285.33z"/>
	<path style="fill:#8E6B2F;" d="M493.81,291.64c0.62,0.59,1.48,0.62,2.2,0.98c-0.75,0.82-1.79,0.6-2.54,0.33
		C492.88,292.75,493.6,292.08,493.81,291.64z"/>
	<path style="fill:#9B722C;" d="M497.94,281.79c-0.88,0.9-1.88,0.52-2.87,0.25c0-0.08,0.01-0.17,0.01-0.25
		c0.68-0.63,1.63-0.72,2.38-1.2C497.79,280.92,497.92,281.33,497.94,281.79z"/>
	<path style="fill:#DAA828;" d="M476.78,271.15c0.09-0.69,0.32-1.31,1.11-1.47c0.42-0.08,1.01,0.43,0.94,0.5
		c-0.54,0.53-1.15,1-1.81,1.39C476.77,271.71,476.83,271.34,476.78,271.15z"/>
	<path style="fill:#8F682B;" d="M450.93,281.31c0.43,0.25,0.67,0.91,0.45,1.05c-0.45,0.29-1.1,0.3-1.67,0.38
		c-0.52,0.07-0.95-0.05-0.96-0.71C449.37,281.45,450.14,281.36,450.93,281.31z"/>
	<path style="fill:#6D552D;" d="M478.76,289.27c0.46,0.87,1.19,1.25,2.15,1.22c-1.03,0.98-2.04,0.23-3.03-0.09
		C477.53,290.29,477.64,290.07,478.76,289.27z"/>
	<path style="fill:#A97C2F;" d="M496.93,278.4c0-0.05,0-0.11,0-0.16c0.1-0.1,0.21-0.2,0.31-0.3c0.28-1.01,0.98-1.34,1.96-1.21
		c0.14,0.24,0.27,0.48,0.41,0.72c0.07,0.06,0.09,0.12,0.07,0.18c-0.02,0.06-0.05,0.09-0.07,0.09
		C498.78,278.19,497.89,278.42,496.93,278.4z"/>
	<path style="fill:#F4E8C1;" d="M484.92,280.63c0-1.81,0-1.81,1.72-1.19c0.25,0.14,0.54,0.04,0.8,0.16c0.08,0.17,0.17,0.33,0.25,0.5
		c-0.8,0.49-1.72,0.47-2.61,0.63C485.04,280.7,484.98,280.66,484.92,280.63z"/>
	<path style="fill:#E5CC75;" d="M479.45,283.04c-1.23-0.2-1.7-1.44-2.7-1.96c0.03-0.11,0.04-0.31,0.09-0.32
		c0.64-0.09,2.61,1.35,2.79,2.02C479.57,282.86,479.51,282.95,479.45,283.04z"/>
	<path style="fill:#BF8A29;" d="M491.42,288.52c0.19,0.29,0.54,0.73,0.19,0.9c-0.57,0.28-1.22-0.03-1.84-0.14
		c-0.7-0.12-0.46-0.6-0.47-1C490.07,287.85,490.77,287.97,491.42,288.52z"/>
	<path style="fill:#D7BE6F;" d="M495.77,270.55c-0.82-0.48-1.71-0.73-2.66-0.73c-0.18-0.53-0.22-0.96,0.57-0.77
		c0.53,0.11,1.07,0.2,1.6,0.33C495.97,269.53,496.2,269.91,495.77,270.55z"/>
	<path style="fill:#DABC62;" d="M496.46,270.07c0.4,0.94,1.3,1.35,2.1,1.78c0.6,0.32,0.77-0.28,0.81-0.79
		c0.31,0.11,0.42,0.38,0.5,0.67c-0.75,1.01-1.56,0.87-2.41,0.14c-0.33-0.28-0.66-0.56-0.99-0.84
		C496.4,270.71,496.15,270.39,496.46,270.07z"/>
	<path style="fill:#C9A23B;" d="M508.8,282.74c-0.46,1.21-1.24,2.18-2.26,2.97c-0.22-0.26-0.43-0.52-0.65-0.77
		c1.02-0.62,2.06-1.22,2.09-2.64c0-0.1,0.18-0.1,0.29-0.02C508.45,282.43,508.62,282.59,508.8,282.74z"/>
	<path style="fill:#A77626;" d="M483.5,275.31c-0.97-0.05-1.93-0.06-2.65,0.77c-0.07-0.08-0.14-0.15-0.21-0.23
		c0.22-1.43,1.57-1.02,2.39-1.47C483.44,274.56,483.9,274.72,483.5,275.31z"/>
	<path style="fill:#BD9A41;" d="M492.37,270.03c0.03,0.26,0.15,0.69-0.21,0.68c-1.39-0.07-2.8-0.06-4.1-0.65
		C489.49,269.48,490.93,269.51,492.37,270.03z"/>
	<path style="fill:#E5CA78;" d="M481.6,288.53c-0.57,1.39-1.47,1.09-2.43,0.47c0.51-1.05,1.37-0.8,2.22-0.62
		C481.47,288.41,481.54,288.46,481.6,288.53L481.6,288.53z"/>
	<path style="fill:#E7CB72;" d="M488.05,269.09c1.43-0.14,2.89,0.23,4.3-0.24c0,0.31,0,0.62,0.01,0.93c-1.1,0.04-2.2,0.02-3.3,0
		c-0.39-0.01-0.92,0.17-1.02-0.48C488,269.23,488,269.16,488.05,269.09z"/>
	<path style="fill:#7B5B29;" d="M463.1,282.75c0.2,0.34,0.44,0.71,0.12,1.06c-0.28,0.31-0.68,0.14-0.97-0.04
		c-0.48-0.31-1.31,0.08-1.49-0.78c0.66-0.4,1.37-0.59,2.14-0.48h-0.02C462.95,282.59,463.02,282.67,463.1,282.75z"/>
	<path style="fill:#725529;" d="M479.2,274.16c-1.04-0.05-1.33-0.97-1.71-1.65c-0.29-0.53,0.45-0.55,0.78-0.75
		C478.84,272.46,479.48,273.13,479.2,274.16z"/>
	<path style="fill:#DDC268;" d="M488.61,281.07c0.05-0.45-0.67-1.21-0.03-1.23c0.52-0.01,1.8-0.67,1.9,0.78
		C490.03,281.5,489.29,281.17,488.61,281.07z"/>
	<path style="fill:#CA9527;" d="M482.29,289.95c0.58,0.41,1.16,0.83,1.74,1.24c-0.6,0.45-1.36,0.38-1.9,0.18
		C480.83,290.85,482.3,290.44,482.29,289.95z"/>
	<path style="fill:#E2C76B;" d="M484.42,279.43c-0.06-0.02-0.12-0.02-0.18-0.02c-1.27,0.44-1.61,0.3-2.38-0.96
		C482.65,277.85,484.27,278.47,484.42,279.43z"/>
	<path style="fill:#DAB852;" d="M488.03,269.3c0.9,0.52,1.87,0.16,2.81,0.25c0.51,0.05,1.04-0.07,1.52,0.23
		c0,0.08,0.01,0.17,0.01,0.25c-1.44,0.01-2.88,0.01-4.31,0.02C487.94,269.81,487.83,269.56,488.03,269.3z"/>
	<path style="fill:#EDD78F;" d="M486.34,289.65c0.87-0.24,1.65,0.17,2.46,0.36c0.22,0.86-0.38,1.03-0.98,1.08
		C487.06,291.14,486.44,290.5,486.34,289.65z"/>
	<path style="fill:#825A26;" d="M500.83,284.01c-0.7-0.21-1.5,0.27-2.15-0.31c0.48-1.27,0.75-1.38,2.04-0.91
		c0.09,0.07,0.17,0.16,0.24,0.26c0.11,0.21,0.17,0.43,0.18,0.66C501.12,283.89,501.03,284.01,500.83,284.01z"/>
	<path style="fill:#BF8C25;" d="M500.81,283.23c-0.01-0.07-0.01-0.15-0.02-0.22c-0.51-0.96-1.44-0.18-2.11-0.5
		c0-0.16,0-0.32-0.01-0.48c0.8-0.74,1.69-0.47,2.58-0.23c0.01,0.33,0.02,0.65,0.02,0.98c0,0.04-0.01,0.08-0.01,0.13
		c-0.01,0.09-0.04,0.17-0.07,0.25c-0.05,0.08-0.11,0.14-0.19,0.18C500.92,283.35,500.85,283.32,500.81,283.23z"/>
	<path style="fill:#C19B3D;" d="M486.59,277.72c0.03,0.73-0.31,0.79-0.89,0.52c-0.42-0.19-0.87-0.33-1.31-0.49
		c-0.38-0.52-0.45-1.1-0.4-1.72c0.07-0.16,0.15-0.32,0.22-0.48c0.17-0.08,0.35-0.03,0.38,0.12
		C484.82,276.8,485.66,277.31,486.59,277.72z"/>
	<path style="fill:#916426;" d="M507.05,279.17c0.07,1.01-0.21,1.87-1.09,2.45c-0.21,0.14-0.23,0.12-0.38-0.3
		c0.32-0.46-0.01-1.08,0.36-1.53C506.23,279.44,506.47,279.01,507.05,279.17z"/>
	<path style="fill:#C09634;" d="M504.42,277.96c-0.8,0.93-1.56,1.91-2.87,2.17c-0.07-0.16-0.14-0.33-0.21-0.49
		c0.98-0.66,1.83-1.51,2.83-2.15C504.25,277.64,504.34,277.8,504.42,277.96z"/>
	<path style="fill:#D5B147;" d="M504.17,277.48c-0.76,0.96-1.58,1.83-2.83,2.15c-0.08-0.16-0.16-0.31-0.23-0.47
		c1.15-0.49,2.34-0.93,2.6-2.39C503.86,277.01,504.02,277.24,504.17,277.48z"/>
	<path style="fill:#BF993C;" d="M475.58,287.09c-0.19,0.4-0.49,0.65-0.93,0.72c-1.17-0.57-2.06-1.4-2.48-2.67
		c0.1-0.15,0.2-0.31,0.3-0.46c0.33-0.14,0.38,0.15,0.5,0.32C473.62,285.98,474.59,286.55,475.58,287.09z"/>
	<path style="fill:#EED891;" d="M485.24,275.27c0.61,0.25,1.77-0.1,1.38,1.25c-0.62,0.66-1.19,0.55-1.74-0.09
		c-0.07-0.11-0.12-0.23-0.14-0.35C484.78,275.73,484.59,275.24,485.24,275.27z"/>
	<path style="fill:#B5852A;" d="M484.47,282.78c0.4-0.23,0.79-0.58,1.22-0.67c1.08-0.22,2-0.03,2.16,1.32c-0.16,0-0.32,0-0.47,0.01
		c-0.57-0.52-1.2-0.72-1.94-0.4C485.1,282.99,484.73,283.1,484.47,282.78z"/>
	<path style="fill:#C19835;" d="M497.46,280.58c-0.47,1.05-1.51,0.96-2.38,1.2c-0.08-0.23-0.17-0.47-0.25-0.7
		c0.81-0.24,1.63-0.49,2.44-0.73C497.34,280.43,497.4,280.51,497.46,280.58z"/>
	<path style="fill:#E9DAA6;" d="M505,274.34c-0.12,0.81-0.24,1.62-0.36,2.43c-0.83-0.6-0.83-1.36-0.48-2.23
		C504.37,274.02,504.61,273.95,505,274.34z"/>
	<path style="fill:#D19A24;" d="M506.11,286.35c-0.65,0.53-1.52,0.77-1.98,1.54c-0.21-0.27-0.43-0.54-0.64-0.81
		c0.72-0.41,1.45-0.81,2.17-1.22C505.81,286.02,505.96,286.18,506.11,286.35z"/>
	<path style="fill:#E3CA7A;" d="M496.81,276.06c-0.33-1.08,0.58-0.84,1.09-1.03c0.76-0.29,0.83,0.26,0.94,0.76
		C498.25,276.5,497.56,276.5,496.81,276.06z"/>
	<path style="fill:#B58427;" d="M493.13,278.2c-0.64,0.14-1.21,0.82-1.93,0.25c-0.42,0.31-0.69,0-0.98-0.23
		c-0.05-0.32-0.1-0.65-0.16-0.97c1.3,1.18,2.25,1.16,2.86-0.05C493.19,277.49,493.11,277.85,493.13,278.2z"/>
	<path style="fill:#A07C34;" d="M462.9,282.5c-0.65,0.43-1.37,0.58-2.14,0.48c0.01-0.16,0.01-0.33,0.02-0.49
		c0.42-0.55,0.9-1,1.67-0.94C462.74,281.81,462.87,282.13,462.9,282.5z"/>
	<path style="fill:#E0B742;" d="M488.08,281.81c-1.16-0.33-2.3-0.36-3.4,0.22c0.03-0.16,0.06-0.31,0.08-0.47
		c0.83-1.15,2.01-0.78,3.12-0.72C488.17,281.12,488.08,281.48,488.08,281.81z"/>
	<path style="fill:#F7EABF;" d="M474.64,271.53c0.16,0,0.33,0.01,0.49,0.01c0.14,0.09,0.34,0.04,0.47,0.18
		c0.37,0.09,0.71,0.31,0.73,0.67c0.02,0.39-0.41,0.25-0.65,0.33c-0.24,0.06-0.46,0.2-0.72,0.18c-0.1-0.01-0.2-0.04-0.29-0.07
		c-0.09-0.04-0.17-0.1-0.25-0.16c-0.04-0.03-0.07-0.07-0.11-0.1c-0.07-0.07-0.13-0.15-0.19-0.23c-0.05-0.08-0.09-0.17-0.11-0.27
		c-0.02-0.15,0.04-0.28,0.12-0.4l-0.01,0.01C474.29,271.61,474.48,271.62,474.64,271.53z"/>
	<path style="fill:#AE7E28;" d="M491.95,282.99c0.95-0.71,1.67-0.68,1.89,0.65c0.13,0.83,0.75,0.46,1.18,0.56
		c-0.51,0.37-1.08,0.22-1.64,0.2c-0.52-1.04-0.52-1.04-1.23,0C491.7,283.99,491.97,283.46,491.95,282.99z"/>
	<path style="fill:#916526;" d="M492.15,284.4c0.06-0.45-0.15-0.97,0.35-1.29c0.27-0.17,0.52-0.05,0.74,0.14
		c0.42,0.34,0.39,0.73,0.14,1.15C492.97,284.4,492.56,284.4,492.15,284.4z"/>
	<path style="fill:#B88727;" d="M507.05,279.17c-0.95,0.4-1.12,1.34-1.47,2.15c0.01-0.64,0.03-1.28,0.04-1.92
		c0.4-0.4,0.8-0.8,1.2-1.2C507.12,278.46,507.03,278.83,507.05,279.17z"/>
	<path style="fill:#D6B75A;" d="M475.58,287.09c-1.65-0.01-2.34-1.25-3.11-2.41c0.4-0.64,0.51,0.05,0.74,0.17
		c0.59,0.83,1.3,1.48,2.38,1.56C476.02,286.65,475.8,286.87,475.58,287.09z"/>
	<path style="fill:#9D722A;" d="M491.19,282.76c-0.79,0.08-1.61-0.16-2.37,0.23c0-0.31-0.01-0.63-0.01-0.94
		c0.74-0.52,1.47-0.44,2.22-0.01C491.08,282.27,491.14,282.51,491.19,282.76z"/>
	<path style="fill:#BA9135;" d="M499.2,276.73c-0.65,0.4-1.54,0.43-1.96,1.21c-0.07-0.4-0.15-0.79-0.22-1.19
		c0.46-0.72,1.3-0.43,1.92-0.72C499.03,276.26,499.12,276.5,499.2,276.73z"/>
	<path style="fill:#AF7D26;" d="M489.55,278.2c-0.61-0.69-1.93-0.51-2.13-1.72c0.75-0.34,1.26,1.11,2.08,0.28
		C489.51,277.24,489.53,277.72,489.55,278.2z"/>
	<path style="fill:#B08633;" d="M450.93,281.31c-0.65,0.47-1.39,0.66-2.17,0.72c-0.11-0.31-0.38-0.57-0.26-0.93
		c0.65-0.23,1.31-0.18,1.97-0.03C450.62,281.15,450.77,281.23,450.93,281.31z"/>
	<path style="fill:#DEBD52;" d="M481.86,278.45c0.64,0.7,1.4,1.09,2.38,0.96c-0.25,1.08-0.93,0.73-1.52,0.41
		c-0.4-0.22-0.72-0.59-1.08-0.89c0.02-0.09,0.05-0.18,0.07-0.27c-0.01-0.08,0.03-0.14,0.1-0.18L481.86,278.45z"/>
	<path style="fill:#EBDCB5;" d="M460.52,281.58c-0.12-0.31-0.56-0.77-0.3-0.91c0.52-0.27,1.16-0.08,1.71,0.17
		c0.13,1.02-0.33,1.29-1.25,1l0,0C460.64,281.74,460.59,281.66,460.52,281.58z"/>
	<path style="fill:#F2E5BA;" d="M491.24,280.62c-0.23-0.33-0.55-0.69,0.22-0.72c0.46-0.02,0.93-0.04,1.39-0.06
		c0.5,0.07,0.46,0.38,0.23,0.64c-0.45,0.5-0.98,0.81-1.66,0.38l0.01,0.01C491.37,280.78,491.31,280.7,491.24,280.62z"/>
	<path style="fill:#E3C874;" d="M486.34,289.65c0.92,1.45,1.74,1.56,2.46,0.36c0.58,0.36,0.58,0.36-0.06,1.16
		c-1.55,0.56-2.5,0.12-2.6-1.22C486.21,289.85,486.27,289.75,486.34,289.65z"/>
	<path style="fill:#A1762C;" d="M499.88,276.5c0.55-0.08,1.1-0.15,1.65-0.23c-0.01,1.18-0.95,1.05-1.69,1.21l0.01,0.01
		C499.85,277.16,499.86,276.83,499.88,276.5z"/>
	<path style="fill:#E0C779;" d="M501.5,273.49c-1-0.4-0.87-1.47-0.64-1.98c0.25-0.57,0.79,0.22,1.19,0.44
		C502.12,272.55,502.05,273.1,501.5,273.49z"/>
	<path style="fill:#9D712C;" d="M456.85,281.55c0.05,0.42,0.24,0.93-0.45,0.97c-0.54,0.04-1.18,0.16-1.17-0.72
		c0.42-0.36,0.77-0.84,1.43-0.72c0.05,0.09,0.11,0.18,0.16,0.27C456.76,281.42,456.76,281.49,456.85,281.55z"/>
	<path style="fill:#A47B2C;" d="M472.17,285.14c0.83,0.89,1.65,1.78,2.48,2.67l0.01,0.02c-0.09,0.05-0.18,0.11-0.26,0.17l-0.12,0.02
		l-0.12-0.01c-0.73-0.89-1.86-1.36-2.46-2.38C471.86,285.46,472.02,285.3,472.17,285.14z"/>
	<path style="fill:#E3C259;" d="M508.27,282.28c-0.46,1.19-0.71,2.56-2.38,2.66c-0.06-0.06-0.08-0.12-0.07-0.2
		c0.84-0.76,2.2-1.15,1.95-2.7C507.94,282.12,508.11,282.2,508.27,282.28z"/>
	<path style="fill:#EED06D;" d="M487.89,280.84c-0.98,0.51-2.19,0.01-3.12,0.72c-0.02-0.32-0.07-0.65,0.15-0.93l0.1-0.02
		c0.93,0.06,1.87-0.64,2.8,0C487.84,280.68,487.87,280.76,487.89,280.84z"/>
	<path style="fill:#EBD283;" d="M503.94,290.22c0.08-0.08,0.16-0.16,0.24-0.23c0.32-0.07,0.63-0.14,0.95-0.21
		c0.21,0.15,0.51-0.01,0.71,0.2l0,0c-0.04,0.81-0.52,1.19-1.28,1.16C504.05,291.09,503.63,290.87,503.94,290.22z"/>
	<path style="fill:#D6B654;" d="M486.59,277.72c-1.63,0.2-1.96-1.03-2.38-2.16c0.16-0.16-0.26-0.94,0.5-0.46
		c0.31,0.35-0.06,0.84,0.25,1.19l0,0c0.26,0.81,1.13,0.58,1.64,0.95C486.6,277.4,486.6,277.56,486.59,277.72z"/>
	<path style="fill:#E9C961;" d="M474.41,273.93c-0.21-0.74-0.66-1.31-1.29-1.75c0.21-0.25,0.44-0.45,0.79-0.45
		c0.17,0.1,0.09,0.34,0.25,0.45l0.02,0.02c0.07,0.08,0.14,0.15,0.22,0.23l0.02,0.02c0.07,0.08,0.15,0.15,0.22,0.22l0.02,0.02
		c0.09,0.22,0.64-0.01,0.45,0.47C474.87,273.42,474.64,273.67,474.41,273.93z"/>
	<path style="fill:#BA8A2F;" d="M509.18,282.05c0.25-0.41,0.5-0.82,0.76-1.22c0.09,0.25,0.18,0.49,0.26,0.74
		c0.13,0.44,0.45,1.11,0.08,1.29C509.76,283.12,509.51,282.4,509.18,282.05z"/>
	<path style="fill:#8F6529;" d="M479.44,281.07c-1.47-0.49-2.09-1.1-1.96-1.93C478.7,279.39,479.45,280.13,479.44,281.07z"/>
	<path style="fill:#AF8636;" d="M496.51,272.19c1,0.23,1.71,1.3,2.89,0.99C497.83,274.63,497.31,273,496.51,272.19z"/>
	<path style="fill:#9C6F28;" d="M498.69,282.51c0.78-0.16,1.71-0.97,2.11,0.5c-0.92-0.42-1.63-0.2-2.12,0.69
		C498.68,283.3,498.68,282.9,498.69,282.51z"/>
	<path style="fill:#E5CC7A;" d="M475.59,286.42c-1.47,0.51-1.93-0.52-2.38-1.56C474,285.38,474.8,285.9,475.59,286.42z"/>
	<path style="fill:#8B662A;" d="M471.71,285.62c0.82,0.79,1.92,1.3,2.46,2.38c-0.08,0.01-0.17,0.02-0.25,0.03
		c-0.96-0.65-1.52-1.92-2.91-1.92C471.17,285.85,471.4,285.67,471.71,285.62z"/>
	<path style="fill:#CBA845;" d="M488.61,281.07c0.55-0.46,1.33,0.02,1.87-0.45c0.1,0.23,0.21,0.46,0.31,0.69
		c-0.71,0.74-1.44,0.72-2.17,0.04C488.62,281.26,488.61,281.17,488.61,281.07z"/>
	<path style="fill:#D4B65B;" d="M486.14,289.95c0.47,1.26,1.53,1.25,2.6,1.22c-0.09,0.29-0.32,0.44-0.59,0.55
		c-1.43,0.17-1.99-0.15-2.3-1.32C485.95,290.24,486.04,290.09,486.14,289.95z"/>
	<path style="fill:#9D7E39;" d="M479.2,274.16c-0.31-0.8-0.62-1.6-0.93-2.39c0.16-0.07,0.33-0.14,0.49-0.21
		c0.31,0.7,0.61,1.41,0.92,2.11C479.52,273.82,479.36,273.99,479.2,274.16z"/>
	<path style="fill:#DFBF59;" d="M476.54,273.39c0,1.18,0.58,1.98,1.66,2.42c-0.08,0.16-0.17,0.32-0.25,0.47
		c-1.29-0.42-1.42-1.68-1.94-2.66C476.19,273.55,476.36,273.47,476.54,273.39z"/>
	<path style="fill:#C18D26;" d="M478.72,279.4c0.62,0.03,0.94,0.54,1.27,0.94c0.48,0.59,0.63,0.17,0.84-0.19
		c0.04,0.38,0.08,0.76,0.11,1.14c-0.03,0.16-0.06,0.31-0.09,0.47c-0.31-0.23-0.62-0.46-0.93-0.69
		C479.62,280.44,478.77,280.21,478.72,279.4z"/>
	<path style="fill:#EED890;" d="M491.42,280.86c0.62-0.15,1.59,0.21,1.43-1.02c0.71-0.49,0.71,0.13,0.85,0.54
		c-0.64,0.47-1.22,1.09-2.12,1.01C491.52,281.21,491.47,281.03,491.42,280.86z"/>
	<path style="fill:#BB9339;" d="M501.5,273.49c0.17-0.52,0.13-1.11,0.55-1.54c0.32,0.03,0.53,0.23,0.68,0.49
		c-0.55,0.42-0.56,1.15-0.94,1.67C501.7,273.9,501.6,273.69,501.5,273.49z"/>
	<path style="fill:#946928;" d="M485.43,283.04c0.87-0.96,1.48-0.65,1.94,0.4C486.71,283.37,486.04,283.35,485.43,283.04z"/>
	<path style="fill:#B88E31;" d="M488.62,281.35c0.73,0.35,1.45,0.26,2.17-0.04c0.08,0.24,0.15,0.47,0.23,0.71
		c-0.74,0-1.48,0.01-2.22,0.01C488.75,281.81,488.69,281.58,488.62,281.35z"/>
	<path style="fill:#D19C25;" d="M491.42,288.52c-0.71-0.08-1.41-0.16-2.12-0.24c-0.08-0.16-0.17-0.32-0.25-0.48
		c0.66-0.03,1.34,0.12,1.94-0.26c0.07,0.16,0.14,0.32,0.21,0.48c0.06,0.08,0.11,0.17,0.16,0.26
		C491.39,288.36,491.41,288.44,491.42,288.52z"/>
	<path style="fill:#AB7925;" d="M478.72,279.4c0.27,0.65,1.12,0.88,1.2,1.66c-0.16,0-0.32,0.01-0.48,0.01
		c-0.29-1.01-1.33-1.26-1.96-1.93c0.07-0.15,0.13-0.31,0.2-0.46l0.11-0.01C478.09,278.93,478.39,279.18,478.72,279.4L478.72,279.4z"
		/>
	<path style="fill:#BE983C;" d="M485.86,290.38c0.53,0.86,1.29,1.29,2.3,1.32c-0.44,0.64-1.01,0.16-1.52,0.17
		c-0.47-0.23-1.1-0.26-1.2-0.95C485.58,290.74,485.72,290.56,485.86,290.38z"/>
	<path style="fill:#C6AB62;" d="M455.03,281.31c-0.15-0.36-0.66-0.75-0.1-1.1c0.48-0.3,0.97-0.09,1.32,0.37
		C456.02,281.11,455.65,281.43,455.03,281.31z"/>
	<path style="fill:#EFDEA8;" d="M487.82,280.6c-0.93-0.19-1.87,0.31-2.8,0c0.85-0.4,1.74-0.57,2.68-0.5
		C487.74,280.27,487.78,280.44,487.82,280.6z"/>
	<path style="fill:#D2B870;" d="M460.68,281.84c0.63-0.06,1.15-0.26,1.25-1c0.58-0.06,0.39,0.44,0.51,0.72
		c-0.52,0.38-1.03,0.78-1.67,0.94C460.75,282.28,460.71,282.06,460.68,281.84z"/>
	<path style="fill:#B08633;" d="M483.99,276.04c0.23,0.55,0.51,1.09,0.4,1.72C482.89,277.51,483.67,276.72,483.99,276.04z"/>
	<path style="fill:#B28934;" d="M455.03,281.31c0.41-0.24,0.81-0.48,1.22-0.73c0.14,0.16,0.27,0.33,0.41,0.49
		c-0.49,0.22-0.77,0.86-1.43,0.72C455.16,281.64,455.1,281.47,455.03,281.31z"/>
	<path style="fill:#DFAC26;" d="M448.26,282.47c-0.04,0.28-0.19,0.56-0.44,0.42c-0.43-0.25-0.59-0.7-0.55-1.2
		c0.02-0.19,0.09-0.46,0.33-0.35C448.1,281.54,448.16,282.03,448.26,282.47z"/>
	<path style="fill:#8B7540;" d="M511.56,281.83c-0.3-0.24-0.6-0.48-0.9-0.72c-0.18-0.36-0.56-0.86-0.06-1.08
		c0.34-0.15,0.5,0.49,0.66,0.82C511.41,281.16,511.46,281.5,511.56,281.83z"/>
	<path style="fill:#937030;" d="M485.44,290.92c0.4,0.32,0.8,0.63,1.2,0.95c-0.54-0.04-1.17,0.24-1.58-0.21
		C484.8,291.38,485.15,291.1,485.44,290.92z"/>
	<path style="fill:#C09028;" d="M472.68,274.88c0.39,0.06,0.78,0.12,1.18,0.19c-0.15,0.35-0.15,1.03-0.5,0.97
		C472.96,275.96,472.75,275.37,472.68,274.88z"/>
	<path style="fill:#D2B04E;" d="M498.94,276.03c-0.53,0.53-1.31,0.4-1.92,0.72c-0.07-0.23-0.14-0.46-0.21-0.69
		c0.68-0.09,1.36-0.18,2.04-0.26C498.88,275.88,498.91,275.95,498.94,276.03z"/>
	<path style="fill:#DBB954;" d="M496.04,290.99c-0.58,1.5-1.13,0.15-1.7-0.02C494.91,290.98,495.47,290.98,496.04,290.99z"/>
	<path style="fill:#E7CB74;" d="M486.6,277.23c-0.75,0.03-1.49,0.04-1.64-0.95c0.5,0.49,1.07,0.48,1.67,0.24
		C486.62,276.76,486.61,277,486.6,277.23z"/>
	<path style="fill:#060402;" d="M501,283.23c0.03-0.07,0.05-0.15,0.05-0.22c0.08-0.07,0.14-0.15,0.18-0.25l0.06,0.02
		c0.53,0.63,0.11,1.26-0.01,1.88c-0.15,0-0.31,0.01-0.46,0.01c0-0.22,0.01-0.44,0.01-0.66c0.06-0.1,0.12-0.2,0.17-0.31
		C500.91,283.54,500.9,283.39,501,283.23z"/>
	<path style="fill:#A36F24;" d="M490.22,278.21c0.33,0.08,0.65,0.16,0.98,0.23c0,0.16,0,0.32,0,0.47
		C490.62,279.03,490.03,279.16,490.22,278.21z"/>
	<path style="fill:#AE9C68;" d="M450.46,281.07c-0.66,0.01-1.31,0.02-1.97,0.03C449.14,280.66,449.8,280.74,450.46,281.07z"/>
	<path style="fill:#585341;" d="M489.76,271.48c-0.64,0-1.28,0.01-1.93,0.01C488.48,271.08,489.12,271.14,489.76,271.48z"/>
	<path style="fill:#B8A877;" d="M493.69,269.04c-0.49,0.04-0.61,0.35-0.57,0.77c-0.07,0.15-0.13,0.3-0.19,0.46
		C493.16,269.85,492.14,268.65,493.69,269.04z"/>
	<path style="fill:#0C0904;" d="M495.24,283.03c0.25,0.35,0.33,0.74,0.3,1.16c-0.17-0.08-0.33-0.16-0.5-0.24l0,0
		C495.06,283.64,494.93,283.29,495.24,283.03z"/>
	<path style="fill:#E7CB74;" d="M484.96,276.28c-0.39-0.33-0.18-0.79-0.25-1.19c0.18,0.06,0.35,0.12,0.53,0.18
		C484.88,275.53,484.98,275.93,484.96,276.28z"/>
	<path style="fill:#E3D3A1;" d="M475.1,273.16c-0.15-0.16-0.3-0.31-0.45-0.47c0.34,0.01,0.68,0.02,1.02,0.03
		C475.48,272.87,475.29,273.01,475.1,273.16z"/>
	<path style="fill:#C5C5C5;" d="M445.84,281.51c0.11,0.06,0.23,0.12,0.35,0.19c-0.1,0.04-0.21,0.12-0.31,0.11
		c-0.13-0.01-0.26-0.09-0.39-0.14C445.58,281.62,445.69,281.58,445.84,281.51z"/>
	<path style="fill:#D2B153;" d="M505.84,289.96c-0.24-0.07-0.48-0.13-0.71-0.2c0.15-0.02,0.3-0.05,0.45-0.07
		C505.66,289.78,505.75,289.87,505.84,289.96z"/>
	<path style="fill:#EFDEA8;" d="M487.45,279.6c-0.29,0.05-0.57,0.09-0.8-0.16C486.92,279.5,487.18,279.55,487.45,279.6z"/>
	<path style="fill:#B1B1B1;" d="M446.81,282.91c-0.16,0.06-0.26,0.13-0.36,0.13c-0.1-0.01-0.2-0.09-0.29-0.14
		c0.1-0.05,0.2-0.13,0.3-0.13C446.55,282.77,446.65,282.84,446.81,282.91z"/>
	<path style="fill:#6E4F25;" d="M502,281.09c0,0.24,0,0.47,0,0.71c-0.26-0.19-0.25-0.46-0.21-0.73
		C501.86,281.08,501.93,281.08,502,281.09z"/>
	<path style="fill:#B88727;" d="M505.4,278.68c0.06,0.17,0.12,0.33,0.18,0.5C505.52,279.01,505.46,278.85,505.4,278.68z"/>
	<path style="fill:#745527;" d="M481.57,279.15c-0.05,0.17-0.1,0.33-0.15,0.5C481.47,279.48,481.52,279.32,481.57,279.15z"/>
	<path style="fill:#8A6D34;" d="M512.06,283.26c-0.07-0.17-0.13-0.34-0.2-0.51C512.06,282.87,512.11,283.05,512.06,283.26z"/>
	<path style="fill:#D19C25;" d="M490.94,287.32c-0.07-0.16-0.14-0.33-0.21-0.49C490.8,286.99,490.87,287.16,490.94,287.32z"/>
	<path style="fill:#E3D3A1;" d="M474.16,272.19c-0.08-0.15-0.16-0.3-0.25-0.45c0.06-0.06,0.13-0.08,0.21-0.06
		C474.14,271.85,474.15,272.02,474.16,272.19z"/>
	<path style="fill:#CA9527;" d="M482.54,289.2c-0.06,0.17-0.12,0.35-0.19,0.52C482.41,289.55,482.47,289.37,482.54,289.2z"/>
	<path style="fill:#E3D3A1;" d="M475.59,271.72c-0.16-0.06-0.31-0.12-0.47-0.18C475.28,271.6,475.44,271.66,475.59,271.72z"/>
	<path style="fill:#8A6D34;" d="M511.81,282.54c-0.07-0.17-0.13-0.34-0.2-0.51C511.82,282.15,511.87,282.33,511.81,282.54z"/>
	<path style="fill:#E3D3A1;" d="M474.64,271.53c-0.17,0.05-0.34,0.1-0.52,0.16C474.24,271.47,474.43,271.48,474.64,271.53z"/>
	<path style="fill:#A77626;" d="M480.19,275.56c0.07,0.05,0.14,0.11,0.21,0.16C480.33,275.67,480.26,275.61,480.19,275.56z"/>
	<path style="fill:#BF8A29;" d="M491.38,288.27c-0.05-0.09-0.11-0.17-0.16-0.26C491.27,288.1,491.32,288.19,491.38,288.27z"/>
	<path style="fill:#AF8D3D;" d="M481.59,288.53c-0.07-0.05-0.14-0.09-0.21-0.14C481.46,288.43,481.53,288.48,481.59,288.53z"/>
	<path style="fill:#C09028;" d="M472.51,274.6c0.06,0.09,0.12,0.18,0.18,0.28C472.63,274.78,472.57,274.69,472.51,274.6z"/>
	<path style="fill:#C8A240;" d="M487.29,284.87c-0.03-0.07-0.06-0.13-0.08-0.2C487.24,284.74,487.26,284.8,487.29,284.87z"/>
	<path style="fill:#8B7540;" d="M510.71,281.55c0.04,0.09,0.09,0.18,0.13,0.27C510.79,281.73,510.75,281.64,510.71,281.55z"/>
	<path style="fill:#D19A24;" d="M503.2,286.61c0.07,0.1,0.14,0.2,0.21,0.3C503.34,286.81,503.27,286.71,503.2,286.61z"/>
	<path style="fill:#A1762C;" d="M499.61,277.72c0-0.09,0-0.17,0-0.26c0.08,0.02,0.15,0.03,0.23,0.03l-0.01-0.01
		C499.76,277.56,499.68,277.64,499.61,277.72z"/>
	<path style="fill:#EAC450;" d="M478.23,277.46c-0.07,0.09-0.13,0.17-0.2,0.26C478.1,277.63,478.17,277.55,478.23,277.46z"/>
	<path style="fill:#B8A877;" d="M492.95,270.52c0.07,0.04,0.12,0.1,0.15,0.17C493.05,270.64,493,270.58,492.95,270.52z"/>
	<path style="fill:#DFAF31;" d="M494.48,283.46c-0.01-0.05-0.03-0.11-0.03-0.16c0-0.02,0.05-0.04,0.07-0.05
		C494.55,283.33,494.53,283.4,494.48,283.46z"/>
	<path style="fill:#DABC62;" d="M496.72,270.02l-0.12,0.02l-0.11-0.02C496.57,269.75,496.65,269.9,496.72,270.02z"/>
	<path style="fill:#D19C25;" d="M488.9,287.58c0.05,0.06,0.09,0.13,0.14,0.19C489,287.7,488.95,287.64,488.9,287.58z"/>
	<path style="fill:#A07C34;" d="M463.1,282.75c-0.07-0.08-0.15-0.16-0.22-0.24C462.95,282.58,463.03,282.67,463.1,282.75z"/>
	<path style="fill:#725225;" d="M477.55,277.02c0.06-0.09,0.13-0.17,0.19-0.25C477.68,276.85,477.62,276.93,477.55,277.02z"/>
	<path style="fill:#D2B870;" d="M460.52,281.58c0.05,0.09,0.11,0.17,0.16,0.26C460.63,281.75,460.57,281.67,460.52,281.58z"/>
	<path style="fill:#D19A24;" d="M505.54,285.64c-0.06-0.08-0.11-0.15-0.17-0.22C505.43,285.49,505.48,285.56,505.54,285.64z"/>
	<path style="fill:#B28934;" d="M456.85,281.55c-0.03-0.05-0.06-0.09-0.08-0.14c0-0.01,0.04-0.04,0.06-0.06
		C456.86,281.41,456.86,281.48,456.85,281.55z"/>
	<path style="fill:#8B662A;" d="M474.4,288c0.09-0.05,0.17-0.11,0.26-0.17C474.57,287.89,474.49,287.94,474.4,288z"/>
	<path style="fill:#B48E35;" d="M481.82,278.47c0.01,0.09-0.02,0.15-0.1,0.18C481.7,278.56,481.73,278.5,481.82,278.47z"/>
	<path style="fill:#EED890;" d="M491.24,280.62c0.06,0.08,0.12,0.16,0.18,0.24C491.36,280.79,491.3,280.7,491.24,280.62z"/>
	<path style="fill:#D19A24;" d="M505.36,285.39c-0.07-0.1-0.14-0.19-0.21-0.29C505.22,285.2,505.29,285.29,505.36,285.39z"/>
	<path style="fill:#D2B153;" d="M503.94,290.22c0.85,1.54,1.33,0.34,1.9-0.25c0.57,0.8-0.21,1.08-0.63,1.32
		c-0.48,0.28-1.09,0.23-1.52-0.26C503.34,290.63,503.54,290.39,503.94,290.22z"/>
	<path style="fill:#C18D26;" d="M478.72,279.4c-0.47-0.03-0.76-0.3-0.92-0.73C478.26,278.72,478.52,279.02,478.72,279.4z"/>
	<path style="fill:#9C6F28;" d="M501,283.23c0,0.16,0,0.32,0,0.47c-0.06-0.16-0.13-0.32-0.19-0.47
		C500.87,283.23,500.93,283.23,501,283.23z"/>
	<path style="fill:#9C6F28;" d="M501.23,282.76c-0.06,0.08-0.12,0.17-0.18,0.25C501.1,282.92,501.17,282.84,501.23,282.76z"/>
	<path style="fill:#E3D3A1;" d="M474.63,272.67c-0.07-0.07-0.15-0.15-0.22-0.22C474.48,272.52,474.56,272.6,474.63,272.67z"/>
	<path style="fill:#E3D3A1;" d="M474.39,272.43c-0.07-0.08-0.14-0.15-0.22-0.23C474.25,272.28,474.32,272.36,474.39,272.43z"/>
</g>
</svg>
