<?xml version="1.0" encoding="utf-8"?>
<!-- Generator: Adobe Illustrator 16.0.0, SVG Export Plug-In . SVG Version: 6.00 Build 0)  -->
<!DOCTYPE svg PUBLIC "-//W3C//DTD SVG 1.0//EN" "http://www.w3.org/TR/2001/REC-SVG-20010904/DTD/svg10.dtd" [
	<!ENTITY ns_flows "http://ns.adobe.com/Flows/1.0/">
	<!ENTITY ns_extend "http://ns.adobe.com/Extensibility/1.0/">
	<!ENTITY ns_ai "http://ns.adobe.com/AdobeIllustrator/10.0/">
	<!ENTITY ns_graphs "http://ns.adobe.com/Graphs/1.0/">
]>
<svg version="1.0" id="Layer_1" xmlns:x="&ns_extend;" xmlns:i="&ns_ai;" xmlns:graph="&ns_graphs;"
	 xmlns="http://www.w3.org/2000/svg" xmlns:xlink="http://www.w3.org/1999/xlink" xmlns:a="http://ns.adobe.com/AdobeSVGViewerExtensions/3.0/"
	 x="0px" y="0px" width="960px" height="560px" viewBox="0 0 960 560" style="enable-background:new 0 0 960 560;"
	 xml:space="preserve">
<g>
	<g>
		<path style="fill-rule:evenodd;clip-rule:evenodd;fill:#050401;" d="M510.29,253.68c0.01,0,0.01,0,0.02,0.01c0,0,0,0,0,0
			C510.29,253.67,510.29,253.66,510.29,253.68C510.29,253.67,510.29,253.67,510.29,253.68z"/>
		<path style="fill-rule:evenodd;clip-rule:evenodd;fill:#050401;" d="M512.14,250.76c-0.77-0.87-1.86-1.12-2.9-1.47
			c-0.28,0-0.55-0.01-0.83,0.01c-2.27,0.09-4.33,1.45-4.69,3.11c0.25,0.47,0.51,0.93,0.76,1.4c0.57,0.33,1.14,0.65,1.71,0.98
			c0.63,0.1,1.26,0.19,1.88,0.29c1.63,0.09,2.91-0.63,4.04-1.73c0.1-0.55,0.21-1.11,0.31-1.66
			C512.33,251.37,512.24,251.07,512.14,250.76z M510.33,253.7c-0.01-0.01-0.01-0.01-0.02-0.01c-0.79,0.37-1.62,0.47-2.48,0.4
			c-0.12-0.01-0.23-0.09-0.35-0.13c0.09-0.06,0.18-0.17,0.27-0.18c0.85-0.06,1.68-0.72,2.54-0.1c0,0,0,0,0-0.01
			c0-0.01-0.01-0.01-0.02-0.03c-0.02-0.02,0.01-0.01,0.08,0.03c-0.01,0.01-0.02,0.01-0.04,0.01
			C510.32,253.69,510.32,253.69,510.33,253.7z"/>
	</g>
	<path style="fill-rule:evenodd;clip-rule:evenodd;fill:#020100;" d="M456.97,283.62c2.09-1.78,4.68-1.81,7.2-2.12
		c2.37-0.29,4.67-0.09,6.92,0.64c0.52,0.17,0.63-0.18,0.86-0.4c0.89-0.86,1.76-1.75,2.65-2.6c0.23-0.22,0.49-0.51,0.77-0.55
		c2.9-0.39,4.03-2.98,5.87-4.68c0.55-0.51,1.07-1.06,1.6-1.6c0.33-0.11,0.39,0.13,0.46,0.35c0.02,0.6-0.31,1.05-0.71,1.43
		c-1.14,1.09-2.06,2.38-3.15,3.48c-0.1,0.11-0.12-0.08-0.05,0.06c0.02,0.05,0.14,0.05,0.23,0.05c1.08,0.33,2.18,0.3,3.28,0.3
		c0.39,0,0.76,0.08,1.1,0.28c0.32,0.25,0.82,0.38,0.79,0.89c-0.02,0.38-0.42,0.38-0.71,0.45c-1.67,0.13-3.36,0.07-4.97-0.31
		c-2.38-0.56-3.97,0.58-5.41,2.18c-0.53,0.59-0.97,1.26-1.54,1.81c-0.76,0.56-0.98,1.35-0.97,2.26c0,0.58,0.05,1.23-0.83,1.24
		c-0.53,1.63-0.44,3.29-0.15,4.93c0.25,1.4,1.39,1.82,2.55,2.18c0.39,0.12,0.78,0.19,1.18,0.17c0.23-0.01,0.46,0,0.68,0
		c0.34,0,0.67-0.08,0.98-0.19c0.27-0.1,0.52-0.22,0.77-0.36c1.33-1.16,0.75-2.81,1.09-4.22c0.13-0.56,0.01-1.18,0.05-1.76
		c0.01-0.1,0.02-0.21,0.04-0.32c0.06-0.28-0.08-0.46-0.31-0.61c-0.31-0.35-0.07-0.6,0.17-0.81c0.54-0.48,1.19-0.81,1.82-1.15
		c0.54-0.29,0.72,0.02,0.72,0.53c-1,1.83-0.72,3.88-1,5.83c-0.09,0.67-0.27,1.32-0.29,2c0.12,0.3,0.26,0.61,0.22,0.95
		c0.05,0.64,0.72,0.72,1.01,1.15c0.74,0.55,1.51,1.04,2.15,1.72c1.39,1.48,2.13,3.15,1.67,5.22c-0.14,0.62-0.31,1.24-0.28,1.88
		c-0.24,1.15-0.59,2.26-1.22,3.26c-0.04,0.06-0.06,0.09-0.06,0.09c-0.1,0.1-0.11,0.11-0.01,0.03c0.16-0.18,0.3-0.36,0.54-0.43
		c0.31-0.09,0.53-0.01,0.62,0.32c-0.01,0.8-0.79,1.17-1.04,1.83c-0.32,0.44-0.81,0.74-1.01,1.27c-0.78,0.8-1.42,1.7-2.17,2.52
		c-0.09,0.1-0.1,0.26-0.26,0.3c0.15,0.01,0.16-0.14,0.23-0.22c0.69-0.81,1.31-1.68,2.07-2.44c0.28-0.49,0.64-0.91,1.05-1.28
		c1.22-1.87,2.61-3.62,3.97-5.38c1.49-1.93,2.84-3.96,4.2-5.98c2.62-3.89,0.82-7.15-2.37-9.12c-0.67-0.42-1.47-0.64-2-1.29
		c-0.85-0.82-1.88-1.1-3.03-1.05c-0.34,0.01-0.75,0.23-0.99-0.13c-0.22-0.33,0.07-0.6,0.28-0.82c0.32-0.33,0.62-0.77,1.19-0.55
		c0.21,0.08,0.36,0.31,0.62,0.31c0.62,0.09,1.05-0.25,1.46-0.65c0.74-0.72,1.41-1.51,2.25-2.13c0.38-0.08,0.64-0.87,1.14-0.18
		c-0.58,1.35-1.89,2.1-2.71,3.26c-0.38,0.54-0.49,0.73,0.18,1.08c1.46,0.74,2.89,1.54,4.11,2.65c2.21,2,2.88,4.93,1.66,7.63
		c-0.42,0.94-0.93,1.87-1.54,2.7c-3.74,5.08-7.43,10.2-11.62,14.93c-0.59,0.67-1.11,0.84-1.78,0.14c-0.59-0.61-1.44-0.65-2.18-0.91
		c-7.58-2.68-15.32-4.89-22.88-7.66c-3.06-1.12-6.21-2.25-9.49-2.76c-0.12-0.02-0.23-0.06-0.34-0.1c-2.15-0.65-2.21-0.83-0.95-2.75
		c0.66,0.1,0.31,0.57,0.33,0.9c-0.03,0.58,0.27,0.46,0.56,0.25c0.47-0.34,0.81-0.85,1.34-1.11c0.32-0.15,0.62-0.15,0.86,0.14
		c0.13,0.16,0.33,0.24,0.51,0.34c0.71,0.77-0.35,0.9-0.49,1.37c-0.14,0.41,0.22,0.34,0.4,0.4c1.65,0.57,3.37,0.93,5.01,1.53
		c0.16,0.05,0.31,0.11,0.47,0.16c0.16,0.05,0.32,0.1,0.48,0.16c0.68,0.26,1.38,0.46,2.07,0.69c0.48,0.18,0.96,0.32,1.46,0.43
		c0.5,0.14,0.99,0.33,1.49,0.47c0.74,0.23,1.42,0.58,2.17,0.78c3.13,1.03,6.24,2.16,9.41,3.08c0.67,0.24,1.35,0.44,2.02,0.67
		c0.33,0.12,0.66,0.23,0.99,0.32c0.55,0.18,1.13,0.28,1.67,0.48c0.71,0.27,1.44,0.48,2.16,0.71c3.19,1.12,2.8,1.14,4.26-1.57
		c0.83-1.54,1.81-2.99,2.55-4.59c0.68-1.48,1.02-3.01,1.34-4.57c0.28-1.35-0.19-2.57-1.05-3.54c-1.58-1.78-3.48-2.91-6.01-2.44
		c-0.54,0.1-1.09,0.25-1.66,0.12c-2.28-0.12-4.05-1.53-6.05-2.37c-1.58-0.66-3.21-0.41-4.82-0.27c-0.51,0.04-1.02,0.17-1.52,0.26
		c-0.27,0.05-0.62,0.03-0.72-0.27c-0.15-0.43,0.31-0.46,0.54-0.63c0.85-0.29,1.78-0.24,2.62-0.61c0.41-0.23,0.87-0.25,1.32-0.27
		c0.38-0.02,0.75,0.02,1.13,0.03c0.75,0.13,1.51,0.24,2.23,0.5c0.1,0.04,0.19,0.1,0.27,0.16c0.11,0.08,0.13,0.06,0.06-0.06
		c-0.04-0.08-0.06-0.16-0.07-0.25c-0.04-0.25-0.06-0.5-0.13-0.75c-0.05-0.17-0.09-0.33-0.13-0.5c-0.14-1.16-0.12-2.31,0.15-3.45
		c0.22-0.94-0.18-1.28-1.07-1.42c-3.48-0.56-6.74-0.16-9.69,1.92c-0.29,0.21-0.6,0.4-0.94,0.51c-0.13,0.04-0.26,0.05-0.39,0.04
		c-0.95-0.24-0.43-0.75-0.22-1.21c1.92-1.85,4.26-2.79,6.87-2.95c1.7-0.11,3.42-0.16,5.12,0.15c0.51,0.09,1.04,0.15,1.46-0.27
		c0.19-0.19,0.47-0.37,0.4-0.68c-0.07-0.28-0.37-0.25-0.59-0.31c-1.92-0.47-3.86-0.52-5.81-0.27c-1.5,0.19-2.98,0.52-4.46,0.82
		c-0.5-0.03-0.92,0.22-1.37,0.38C457.57,283.94,457.13,284.29,456.97,283.62z"/>
	<path style="fill-rule:evenodd;clip-rule:evenodd;fill:#030301;" d="M492.95,261.98c1.76-1.79,3.53-3.57,5.29-5.37
		c0.26-0.27,0.6-0.46,0.57-0.98c-0.43-7.55,6.09-10.23,11.13-8.98c2.77,0.69,5.47,1.49,7.4,3.83c2.82,3.42,1.36,8.33-3.01,9.15
		c-5.72,1.08-9.05,5.29-12.71,9.07c-2.52,2.6-4.79,5.46-7.46,7.93c-0.34,0.07-0.38-0.18-0.42-0.42c0.11-0.76,0.64-1.27,1.12-1.79
		c0.6-0.64,1.2-1.28,1.79-1.92c3.34-3.58,6.38-7.45,10.28-10.49c0.77-0.6,1.6-1.21,1.94-2.21c0.01-0.3-0.09-0.62-0.35-0.72
		c-1.11-0.45-0.72-1.13-0.34-1.83c0.32-0.37,0.77-0.35,1.2-0.42c2.11-0.33,4.04-1.07,5.6-2.58c0.49-0.44,0.96-0.89,1.21-1.52
		c0.24-0.61,0.35-1.2-0.2-1.72c-0.08-0.07-0.16-0.15-0.24-0.22c-0.08-0.07-0.16-0.15-0.23-0.23c-1.07-1.12-2.5-1.59-3.87-2.16
		c-0.11-0.04-0.21-0.08-0.32-0.12c-0.16-0.07-0.33-0.1-0.5-0.14c-0.86-0.21-1.72-0.38-2.58-0.54c-2.95-0.53-5.29,0.64-7.13,2.77
		c-1.21,1.39-1.24,3.24-1.15,5.02c0.1,1.22-0.6,2.06-1.44,2.75c-1.3,1.07-2.45,2.29-3.65,3.45c-0.43,0.41-0.82,0.9-1.51,0.86
		C493.13,262.39,492.86,262.35,492.95,261.98z"/>
	<path style="fill-rule:evenodd;clip-rule:evenodd;fill:#100D02;" d="M456.97,283.62c0.84,0.38,1.36-0.72,2.18-0.48
		c-0.01,0.57-0.51,0.66-0.87,0.86c-2.62,1.51-4.82,3.51-6.8,5.77c-0.29,0.33-0.55,0.69-0.87,0.99c-3.18,2.93-5.65,6.46-8.24,9.89
		c-0.25,0.33-0.42,0.8-0.98,0.75c-0.12-0.33,0.4-0.67-0.02-0.99c1.55-2.82,3.88-5.03,5.87-7.51
		C450.05,289.36,453.26,286.22,456.97,283.62z"/>
	<path style="fill-rule:evenodd;clip-rule:evenodd;fill:#0D0A05;" d="M492.95,261.98c0.19,0.1,0.38,0.2,0.57,0.3
		c-0.18,0.92-0.86,1.5-1.46,2.12c-2.35,2.38-4.72,4.73-7.08,7.1c-0.63,0.42-0.92,1.33-1.86,1.31c-0.09-0.17-0.19-0.34-0.28-0.51
		C486.06,268.71,489.47,265.31,492.95,261.98z"/>
	<path style="fill-rule:evenodd;clip-rule:evenodd;fill:#120F04;" d="M493.91,276.14c0.08,0.17,0.16,0.33,0.24,0.49
		c-1.67,1.94-3.31,3.89-5.26,5.56c-0.53-0.32-0.6,0.47-1.02,0.42c-0.25-0.46,0.06-0.78,0.33-1.04c1.63-1.53,3-3.31,4.6-4.86
		C493.11,276.43,493.38,276.02,493.91,276.14z"/>
	<path style="fill-rule:evenodd;clip-rule:evenodd;fill:#EBBF83;" d="M467.46,310.27c-3.06-0.6-5.91-1.83-8.85-2.8
		c-0.23-0.08-0.59,0.05-0.71-0.3c-2-2.4-1.74-5.92,0.75-7.76c2.93-2.16,6.2-2.46,9.51-0.96c2.25,1.03,3.41,3.01,3.52,5.46
		c0.11,2.6-1.15,4.59-3.21,6.09C468.18,310.2,467.85,310.38,467.46,310.27z"/>
	<path style="fill-rule:evenodd;clip-rule:evenodd;fill:#D6801F;" d="M473.79,295.33c2.34-0.43,4.54-0.53,6.6,1.14
		c1.87,1.51,2.63,3.29,2.29,5.61c-0.61,4.11-3.21,7.26-4.98,10.81c-0.23,0.46-0.69,0.64-1.23,0.42c-0.75-0.3-1.5-0.58-2.26-0.87
		c-0.23-0.64,0.21-1.07,0.52-1.5c2.99-4.13,2.92-10.02-0.36-14.04C474.04,296.46,473.49,296.04,473.79,295.33z"/>
	<path style="fill-rule:evenodd;clip-rule:evenodd;fill:#B16A24;" d="M493.91,276.14c-2.15,2.03-4.16,4.19-6.04,6.48
		c-0.81,0.8-1.65,1.57-2.43,2.4c-0.39,0.42-0.8,0.6-1.35,0.49c-0.72-0.19-0.6-0.58-0.24-1.02c0.67-0.79,1.28-1.64,2.06-2.33
		c0.59-0.52,0.78-1.09,0.29-1.78c-0.46-0.66-0.21-1.17,0.31-1.68c4.27-4.12,8.45-8.35,12.95-12.24c2.63-2.27,5.02-4.8,7.68-7.02
		c1.2-1.01,1.3-0.95,2.12,0.41c-0.3,1.12-1.25,1.75-2.05,2.37c-4.87,3.74-8.39,8.78-12.71,13.04
		C494.26,275.5,494.11,275.85,493.91,276.14z"/>
	<path style="fill-rule:evenodd;clip-rule:evenodd;fill:#DA8A31;" d="M473.79,295.33c0.36,1.04,1.25,1.72,1.78,2.66
		c2.53,4.54,2.29,8.93-0.61,13.22c-0.27,0.39-0.49,0.82-0.74,1.23c-0.78-0.09-1.5-0.35-2.18-0.73c-0.03-0.59,0.4-0.94,0.71-1.34
		c3.07-4.04,2.87-9.37-0.59-13.06c-1.61-1.72-3.73-2.57-6.04-2.9c-3.53-0.5-6.78,0.27-9.62,2.39c-2.17,1.62-3.21,3.91-3.27,6.63
		c-0.02,0.69,0.22,1.45-0.35,2.06c-0.77-0.09-1.49-0.36-2.17-0.73c-0.28-1.93-0.09-3.81,0.74-5.59c0.34-0.72,0.73-1.42,0.98-2.18
		c0.26-0.49,0.74-0.71,1.2-0.94c1.03-0.52,2.06-1.05,3.1-1.55c3.03-1.46,6.24-2.01,9.58-1.88c0.58,0.02,1.14,0.24,1.71,0.37
		C469.91,293.81,471.64,295.08,473.79,295.33z"/>
	<path style="fill-rule:evenodd;clip-rule:evenodd;fill:#EBBF83;" d="M471.86,283.13c0.8-0.92,1.6-1.83,2.39-2.75
		c1.71-1.99,3.94-1.72,6.11-1.28c1.24,0.25,2.46,0.04,3.67,0.21c0.71,0.16,0.82,0.54,0.41,1.1c-0.24,0.32-0.53,0.59-0.83,0.87
		c-2.2,2.03-4.69,3.67-7.13,5.38c-0.79,0.55-1.74,0.8-2.68,0.99c-0.89,0.18-1.84,0.28-2.44-0.52c-0.62-0.81-0.48-1.82-0.19-2.75
		C471.32,283.93,471.55,283.5,471.86,283.13z"/>
	<path style="fill-rule:evenodd;clip-rule:evenodd;fill:#100D01;" d="M471.86,283.13c-0.18,0.43-0.35,0.86-0.54,1.29
		c-0.38,0.85-0.39,1.74,0.14,2.47c0.56,0.77,1.48,0.67,2.3,0.48c2.5-0.58,4.52-2.07,6.47-3.64c1.35-1.1,2.61-2.3,3.94-3.43
		c0.52-0.44,0.43-0.73-0.13-0.99c0.15-0.13,0.98,0.19,0.3-0.46c-0.13-0.13-0.32-0.2-0.49-0.3c0.17-0.19,0.39-0.22,0.63-0.21
		c0.91,0.47,1.54,0.05,2.09-0.65c0.93-0.78,1.56-1.84,2.43-2.68c4.88-4.6,9.98-8.96,14.72-13.71c1.29-1.29,2.8-2.37,4.06-3.71
		c0.14-0.15,0.32-0.24,0.54-0.16c-0.13,0.56-0.6,1.2,0.48,1.42c0.32,0.07,0.46,0.6,0.47,1.01c-0.56-0.83-0.98-1.13-1.92-0.2
		c-2.47,2.43-5.13,4.66-7.66,7.03c-2.12,1.99-4.33,3.87-6.49,5.81c-1.72,1.54-3.21,3.33-4.82,4.99c-0.44,0.45-0.95,0.84-1.45,1.23
		c-0.64,0.5-1.08,0.99-0.3,1.76c0.53,0.52,0.39,1.02-0.13,1.55c-0.87,0.88-1.64,1.85-2.51,2.71c-0.41,0.4-0.14,0.55,0.11,0.77
		c-0.53,0.22-0.71-0.59-1-0.46c-0.39,0.18-0.87,0.62-0.91,0.99c-0.03,0.28,0.55-0.07,0.87-0.06c1.22,0.04,2.33,0.27,3.17,1.24
		c-0.51,0.33-0.9-0.06-1.32-0.22c-0.59-0.23-1.18-0.49-1.84-0.37c-0.28,0.05-0.57,0.13-0.67,0.42c-0.11,0.34,0.2,0.48,0.42,0.63
		c1.02,0.68,2.18,1.13,3.18,1.86c0.44,0.33,0.96,0.58,1.09,1.19c0.52,1.09,1.45,1.99,1.53,3.28c0.03,0.51,0.33,1.13-0.44,1.39
		c-0.29-0.21-0.34-0.54-0.38-0.85c-0.24-1.83-1.37-3.02-2.87-3.91c-0.99-0.59-2.08-1.75-2.99-1.54c-0.87,0.2-0.66,1.96-1.24,2.91
		c-0.35,0.68-0.7,1.36-1.33,1.84c-0.27,0.15-0.53,0.33-0.82,0.04c0.16-0.29,0.12-0.48-0.26-0.48c0.44-1.35,1.61-2.44,1.63-3.93
		c0.02-2.27,1.34-3.74,2.85-5.17c0.81-0.77,1.47-1.69,2.2-2.54c0.11-0.13,0.35-0.33,0.18-0.48c-0.15-0.13-0.35,0.1-0.49,0.22
		c-1.24,1.07-2.57,2.03-3.85,3.05c-0.3,0.24-0.56,0.6-1.04,0.47c-1.05-0.04-1.73,0.65-2.46,1.24c0.12,0.08,0.24,0.15,0.37,0.23
		c0.03,0.1,0.03,0.19-0.02,0.29c-0.11,0.17-0.28,0.29-0.45,0.4c-0.12,0.09-0.25,0.18-0.38,0.26c-0.47,0.26-0.97,0.44-1.46,0.65
		c-0.33,0.1-0.66,0.18-0.99,0.27c-0.24,0.06-0.48,0.08-0.72,0.09c-0.51,0.04-1.01-0.01-1.52,0c-1.46-0.33-1.89-0.85-2.03-2.45
		c0.22,0.14,0.44,0.28,0.65,0.43c0.04-0.29,0.12-0.58,0.11-0.86C470.85,284.63,470.99,283.74,471.86,283.13z"/>
	<path style="fill-rule:evenodd;clip-rule:evenodd;fill:#D6801F;" d="M441.38,301.39c1.74-2.28,3.33-4.68,5.24-6.8
		c3.8-4.21,7.31-8.78,12.52-11.46c2.46-0.56,4.92-1.06,7.48-1.02c1.4,0.02,2.71,0.58,4.1,0.53c0.41-0.02,0.46,0.19,0.23,0.53
		c-0.76,1.15-1.61,1.62-3.16,1.37c-4.08-0.66-8.04-0.32-11.34,2.63c-3.32,2.73-6.46,5.65-9.13,9.03c-1.18,1.49-2.11,3.18-3.58,4.43
		c-0.48,0.46-1.01,0.88-1.44,1.39c-0.34,0.4-0.67,0.12-0.93,0.03C440.96,301.91,441.51,301.62,441.38,301.39z"/>
	<path style="fill-rule:evenodd;clip-rule:evenodd;fill:#DA8A31;" d="M484.57,278.52c-0.24,0.01-0.48,0.01-0.72,0.02
		c-0.25-0.38-0.66-0.11-0.97-0.25c-0.44-0.47-0.34-1.04-0.25-1.58c0.34-1.94,0.97-3.77,2.15-5.38c2.79-3.13,6.03-5.83,8.73-9.04
		c1.1-0.61,1.87-1.6,2.68-2.51c0.96-1.06,2.3-1.69,3.07-2.95c0.27-0.43,0.4-0.83,0.44-1.3c0.83-1.06,1.85-1.95,2.8-2.89
		c0.35-0.34,0.76-0.59,1.28-0.33c0.41,0.44,0.74,0.93,0.84,1.53c-0.09,0.65-0.63,0.99-1.02,1.43c-4.3,4.79-9.22,8.96-13.75,13.51
		c-1.24,1.25-2.32,2.63-3.25,4.13c-0.84,1.35-1.29,2.82-1.49,4.39C485.06,277.77,485.15,278.3,484.57,278.52z"/>
	<path style="fill-rule:evenodd;clip-rule:evenodd;fill:#DE9743;" d="M452.86,305.48c-0.07-2.37-0.01-4.71,1.38-6.79
		c2.11-3.15,5.33-4.35,8.86-4.73c2.74-0.3,5.38,0.27,7.74,1.85c4.92,3.29,5.9,10.55,1.98,15c-0.26,0.3-0.52,0.59-0.79,0.89
		c-0.6-0.01-1.16-0.16-1.67-0.48c0.11-0.32,0.39-0.5,0.6-0.73c2.48-2.69,3.38-5.82,2.13-9.28c-1.23-3.39-3.88-5.16-7.45-5.53
		c-2.4-0.25-4.71,0.11-6.87,1.2c-2.62,1.32-4.62,3.98-4.21,7.78c0.05,0.44,0.12,0.88-0.25,1.24
		C453.77,305.99,453.31,305.75,452.86,305.48z"/>
	<path style="fill-rule:evenodd;clip-rule:evenodd;fill:#E7B270;" d="M467.46,310.27c3.28-2.19,4.44-4.63,3.66-7.7
		c-0.66-2.62-3.17-4.52-5.88-4.59c-1.95-0.05-3.84,0.08-5.55,1.07c-2.66,1.54-3.46,4.28-2.14,7.11c0.15,0.32,0.23,0.67,0.34,1.01
		c-0.78-0.08-1.44-0.49-2.14-0.8c-1.33-2.89-0.57-5.94,1.69-7.95c3.48-3.08,9.39-3.2,12.96-0.22c4.07,3.4,3.32,9.45-0.42,12.5
		c-0.16,0.13-0.36,0.16-0.55,0.23C468.74,310.85,468.07,310.66,467.46,310.27z"/>
	<path style="fill-rule:evenodd;clip-rule:evenodd;fill:#D6801F;" d="M486.99,290.78c-1.28-1.41-3.06-2.05-4.65-2.97
		c-0.96-0.56-0.66-0.89,0.01-1.3c0.89-0.54,1.74-0.2,2.58,0.18c0.43,0.2,0.87,0.36,1.3,0.54c1.05,0.68,2.21,1.23,3.14,2.05
		c3.21,2.8,3.42,5.61,0.79,9.46c-2.47,3.61-5.08,7.12-7.93,10.44c-0.06,0-0.13,0-0.19,0.01c0.04-0.04,0.09-0.08,0.14-0.13
		c0-0.79,0.86-1.16,0.94-1.92c0.11-0.24,0.18-0.49,0.35-0.7c0.08-0.14,0.17-0.28,0.27-0.42c2.15-3.04,3.92-6.24,4.8-9.91
		c0.44-1.85,0.02-3.36-1.15-4.75C487.24,291.17,487.05,291.02,486.99,290.78z"/>
	<path style="fill-rule:evenodd;clip-rule:evenodd;fill:#E2A55A;" d="M469.44,310.94c1.95-1.93,3.41-4.09,3.36-7
		c-0.06-3.82-3.28-7.09-7.1-7.41c-2.76-0.23-5.28,0.16-7.55,1.81c-2.33,1.69-2.97,4.01-2.55,6.74c0.07,0.43,0.11,0.86,0.16,1.3
		c-0.52-0.04-1.01-0.19-1.44-0.48c0.18-1.02-0.26-1.99-0.11-3.06c0.54-3.87,2.87-6.03,6.41-7.02c4.14-1.15,8.02-0.8,11.18,2.52
		c3.15,3.31,2.74,9.72-0.8,12.6c-0.18,0.14-0.42,0.2-0.64,0.29C470.02,311.27,469.7,311.18,469.44,310.94z"/>
	<path style="fill-rule:evenodd;clip-rule:evenodd;fill:#B16924;" d="M468.89,291.03c0.01,0.32,0.03,0.64,0.04,0.96
		c-0.57,0.09-0.86-0.33-1.18-0.68c-1.79-1.91-4.07-2.38-6.55-2.17c-1.15,0.1-2.29,0.31-3.43,0.48c-0.8,0.12-1.59,0.13-2.33-0.28
		c-0.54-0.9,0.28-0.97,0.77-1.24c0.16-0.06,0.35-0.05,0.5-0.15c3.58-2.96,7.68-3.36,12.05-2.45c0.47,0.1,0.43,0.31,0.34,0.67
		c-0.38,1.51-0.42,3.06-0.38,4.61C468.79,290.86,468.85,290.94,468.89,291.03z"/>
	<path style="fill-rule:evenodd;clip-rule:evenodd;fill:#77471E;" d="M463.87,291.97c-0.87,0.18-1.73,0.37-2.6,0.55
		c-1.66,0.66-3.37,1.18-4.98,1.98c-2.07,1.03-4.18,2-6.12,3.29c-0.36,0.24-0.74,0.5-1.22,0.28c-0.69-0.65-0.47-1.54-0.62-2.33
		c0.82-1.59,1.89-2.96,3.52-3.82c0.73-0.22,1.51-0.46,2.23-0.18c1.93,0.74,3.74,0.23,5.58-0.31c0.87-0.25,1.76-0.52,2.68-0.45
		C463,291.02,463.73,291.07,463.87,291.97z"/>
	<path style="fill-rule:evenodd;clip-rule:evenodd;fill:#D68020;" d="M452.62,297.03c0.08,0.51-0.19,0.93-0.41,1.34
		c-0.88,1.6-1.39,3.28-1.25,5.12c0.03,0.44-0.02,0.87-0.26,1.26c-0.15-0.03-0.31-0.06-0.46-0.08c-0.09-0.05-0.18-0.11-0.26-0.18
		c-1.99-0.56-3.98-1.11-5.97-1.67c-0.13-0.04-0.43,0.02-0.34-0.17c0.11-0.22,0.4-0.34,0.61-0.5c2.16-1.86,4.36-3.66,7.02-4.78
		C451.72,297.19,452.1,296.84,452.62,297.03z"/>
	<path style="fill-rule:evenodd;clip-rule:evenodd;fill:#9D5D23;" d="M455.25,289.11c1.87,0.6,3.69-0.05,5.51-0.27
		c3.08-0.38,5.71,0.27,7.72,2.78c0.12,0.15,0.31,0.25,0.46,0.37c0.01,0.08,0.02,0.17,0.03,0.25c-0.07,0.09-0.15,0.1-0.24,0.03
		c-0.8-0.17-1.6-0.34-2.4-0.51c-2.79-1.94-5.75-1.2-8.7-0.53c-1.37,0.31-2.66,0.08-3.93-0.46
		C453.57,289.74,454.03,289.25,455.25,289.11z"/>
	<path style="fill-rule:evenodd;clip-rule:evenodd;fill:#E3A656;" d="M479.77,285.06c1.75-1.4,3.51-2.81,5.26-4.21
		c0.19-0.15,0.33-0.53,0.66-0.17c0.24,0.26,0.26,0.45-0.03,0.77c-1.56,1.74-3,3.59-4.64,5.25c-0.82,0.83-0.5,1.8-0.71,2.67
		c-0.37,1.54-0.94,2.91-2.02,4.06C478.96,290.67,478.17,287.65,479.77,285.06z"/>
	<path style="fill-rule:evenodd;clip-rule:evenodd;fill:#834E1F;" d="M478.56,293.91c0.23-0.08,0.45-0.16,0.68-0.24
		c0.55-0.34,1.12-0.31,1.73-0.17c2.72,0.62,4.74,3.05,4.9,5.91c0.04,0.67-0.04,1.35,0.05,2.02c-0.5,2.05-1.81,3.64-2.99,5.31
		c-0.09,0.13-0.2,0.25-0.29,0.37c-0.24,0.16-0.48,0.32-0.72,0.48l0.01,0.01c0.39-1.2,0.78-2.4,1.17-3.6
		c0.48-1.37,1.3-2.63,1.14-4.19c-0.16-1.59-0.77-2.9-1.99-3.95c-0.8-0.69-1.82-0.46-2.71-0.75
		C479.28,294.66,478.13,294.92,478.56,293.91z"/>
	<path style="fill-rule:evenodd;clip-rule:evenodd;fill:#130E03;" d="M452.62,297.03c-2.66,1.18-5.08,2.74-7.33,4.58
		c-0.29,0.24-0.68,0.37-1.02,0.54c0.58-0.88,0.58-0.88,0.43-1.04c-0.08-0.67,0.51-0.8,0.89-1.09c0.59-0.44,1.22-0.83,1.84-1.24
		c0.54-0.27,0.95-0.81,1.64-0.75c3.41-1.96,6.81-3.95,10.58-5.18c0.53-0.17,1.04-0.42,1.62-0.33c-0.15,0.11-0.45,0.26-0.43,0.31
		c0.09,0.25,0.32,0.11,0.48,0.07c2.08-0.56,4.18-0.62,6.29-0.17c0.14,0.03,0.26,0.16,0.38,0.24
		C462.21,291.83,457.4,294.37,452.62,297.03z"/>
	<path style="fill-rule:evenodd;clip-rule:evenodd;fill:#EABE83;" d="M470.1,286.04c0.43,0.95,0.73,2.02,2,2.21
		c0.57,0.03,0.75,0.4,0.7,0.89c-0.16,1.51-0.19,3,0.16,4.49c0.05,0.2-0.02,0.39-0.17,0.55c-2.22-0.36-3.1-1.33-3.12-3.5
		C469.66,289.12,469.54,287.55,470.1,286.04z"/>
	<path style="fill-rule:evenodd;clip-rule:evenodd;fill:#060401;" d="M482.63,307.12c1.04-1.84,2.07-3.69,3.11-5.53
		c0-1.06,0.74-1.84,1.02-2.8c0.32-0.84,0.59-1.69,0.81-2.57c0.08-0.34,0.01-0.83,0.58-0.86c0.58-1.52-0.16-2.68-1.03-3.83
		c-0.12-0.16-0.99-0.37-0.13-0.75c1.64,0.92,2.4,3.08,1.84,5.45c-0.89,3.77-2.7,7.08-5.02,10.15c-0.06,0.09-0.14,0.17-0.18,0.28
		c-0.17,0.16-0.35,0.31-0.52,0.47C482.97,306.87,482.8,307.09,482.63,307.12z"/>
	<path style="fill-rule:evenodd;clip-rule:evenodd;fill:#120E02;" d="M455.25,289.11c-0.71,0.31-1.24,0.83-1.69,1.44
		c-0.09,0.46-0.54,0.58-0.79,0.89c-0.33,0.33-0.71,0.59-1.13,0.78c-1.24,0.91-2.05,2.23-3.09,3.32c-0.17,1-0.97,1.6-1.49,2.38
		c-0.62,0.73-1.12,1.55-1.77,2.26c-0.28,0.3-0.51,0.74-1.03,0.72c0-0.41-0.23-0.39-0.51-0.27c1.36-1.87,2.6-3.84,4.1-5.58
		c2.43-2.82,4.96-5.55,8.08-7.65c0.16-0.11,0.35-0.16,0.53-0.23c0.15,0.25-0.77,0.55,0.04,0.76c0.06,0.09,0.04,0.16-0.04,0.22
		C456.05,288.47,455.65,288.79,455.25,289.11z"/>
	<path style="fill-rule:evenodd;clip-rule:evenodd;fill:#D78225;" d="M484.79,271.33c-0.52,1.75-1.51,3.33-1.77,5.18
		c-0.08,0.6-0.11,1.19-0.14,1.78c-1.32,0.16-2.61,0.05-3.85-0.46l0.02,0.02c0.56-1.25,1.67-2.07,2.5-3.11
		c0.52-0.65,1.2-1.16,1.58-1.92C483.68,272.32,484.23,271.82,484.79,271.33z"/>
	<path style="fill-rule:evenodd;clip-rule:evenodd;fill:#7B491F;" d="M479.54,295.12c2.77-1.02,4.77,2.08,5.02,4.31
		c0.19,1.74-0.27,3.28-1.46,4.58c0.31-2,0.93-4-0.37-5.93C481.88,296.82,480.62,296.08,479.54,295.12z"/>
	<path style="fill-rule:evenodd;clip-rule:evenodd;fill:#B46C27;" d="M477.83,287.2c0.28,1.71-0.19,3.39-0.19,5.09
		c0,0.74-0.49,1.31-1.24,1.56c-1.76-1.74-1.25-5.53,0.89-6.68C477.47,287.07,477.66,287.05,477.83,287.2z"/>
	<path style="fill-rule:evenodd;clip-rule:evenodd;fill:#885021;" d="M452.6,291.27c0.19-0.41,0.62-0.5,0.96-0.72
		c2.53,0.91,4.97,0.12,7.45-0.33c1.99-0.36,3.85-0.05,5.31,1.53c-0.4,0-0.8,0.01-1.2,0.01c-1.74-0.81-3.52-0.99-5.34-0.34
		c-2.22,0.79-4.44,0.78-6.68,0.15C452.9,291.52,452.72,291.44,452.6,291.27z"/>
	<path style="fill-rule:evenodd;clip-rule:evenodd;fill:#875020;" d="M452.6,291.27c3.38,1.09,6.64-0.28,9.96-0.46
		c0.96-0.05,1.9,0.12,2.56,0.95c-0.42,0.07-0.84,0.14-1.25,0.21c-1.11-1.19-2.45-0.67-3.66-0.35c-2.11,0.57-4.14,1.26-6.36,0.43
		c-0.63-0.23-1.47,0.1-2.21,0.17C451.95,291.91,452.28,291.59,452.6,291.27z"/>
	<path style="fill-rule:evenodd;clip-rule:evenodd;fill:#BD7C36;" d="M477.83,287.2c-1.54,0.43-2.63,3.26-2.01,5.09
		c0.18,0.53,0.38,1.04,0.57,1.56c-0.2,0.19-0.39,0.42-0.72,0.29c-1.1-0.62-1.19-1.77-1.24-2.8c-0.06-1.22,0.16-2.46,1-3.47
		c0.48-0.23,0.95-0.46,1.43-0.69c0.08-0.06,0.17-0.12,0.25-0.17c0.17-0.1,0.33-0.2,0.49-0.29c0.25-0.05,0.36,0.03,0.27,0.29
		C477.88,287.07,477.87,287.14,477.83,287.2z"/>
	<path style="fill-rule:evenodd;clip-rule:evenodd;fill:#E3B375;" d="M472.8,294.18c-0.56-1.65-0.69-3.33-0.28-5.04
		c0.11-0.44-0.11-0.67-0.42-0.89c0.55-0.02,1.1-0.04,1.65-0.06c0.25,0.27,0.24,0.58,0.15,0.9c-0.4,1.42-0.36,2.83,0.11,4.23
		c0.11,0.34,0.17,0.7-0.03,1.04C473.58,294.36,473.14,294.6,472.8,294.18z"/>
	<path style="fill-rule:evenodd;clip-rule:evenodd;fill:#D9A564;" d="M473.99,294.37c-0.88-2.03-0.93-4.09-0.24-6.17
		c0.24-0.03,0.48-0.05,0.72-0.08c0.56,0.57,0.21,1.24,0.08,1.79c-0.28,1.13-0.09,2.18,0.23,3.24c0.13,0.41,0.28,0.84-0.06,1.23
		C474.47,294.37,474.23,294.37,473.99,294.37z"/>
	<path style="fill-rule:evenodd;clip-rule:evenodd;fill:#CC914D;" d="M474.72,294.37c-0.77-2.06-0.67-4.15-0.24-6.26
		c0.24-0.39,0.65-0.11,0.96-0.24c-0.21,1.5-1.13,2.92-0.48,4.51c0.24,0.59,0.48,1.17,0.73,1.75
		C475.39,294.38,475.09,294.5,474.72,294.37z"/>
	<path style="fill-rule:evenodd;clip-rule:evenodd;fill:#A96525;" d="M444.25,300.9c0.87-1.05,1.73-2.11,2.6-3.16
		c0.77,0.1,0.85,0.62,0.77,1.25c-0.97,0.71-1.95,1.42-2.92,2.12C444.52,301.12,444.32,301.15,444.25,300.9z"/>
	<path style="fill-rule:evenodd;clip-rule:evenodd;fill:#F8F8F8;" d="M481.2,310.48c-0.89,1.09-1.77,2.19-2.68,3.26
		c-0.08,0.1-0.17,0.42-0.4,0.17c-0.04-0.04,0.07-0.27,0.15-0.39c0.87-1.19,1.78-2.36,2.92-3.31c0.07,0.06,0.1,0.11,0.07,0.17
		S481.22,310.48,481.2,310.48z"/>
	<path style="fill-rule:evenodd;clip-rule:evenodd;fill:#E8E7E7;" d="M481.2,310.48c0-0.09,0-0.17,0-0.26
		c0.12-0.57,0.46-0.95,0.99-1.17c-0.02,0.06-0.01,0.1,0.05,0.12C481.89,309.61,481.54,310.04,481.2,310.48z"/>
	<path style="fill-rule:evenodd;clip-rule:evenodd;fill:#B46C27;" d="M477.87,287c-0.09-0.1-0.18-0.19-0.27-0.29
		c0.02-0.06,0.05-0.13,0.07-0.19C478.2,286.49,478.14,286.7,477.87,287z"/>
	<path style="fill-rule:evenodd;clip-rule:evenodd;fill:#675140;" d="M468.71,292.26c0.08-0.01,0.16-0.02,0.24-0.03
		c0.04,0.05,0.09,0.1,0.13,0.15C468.96,292.34,468.84,292.3,468.71,292.26z"/>
	<path style="fill-rule:evenodd;clip-rule:evenodd;fill:#9D5D23;" d="M456.45,288.15c0.02-0.07,0.03-0.14,0.04-0.22
		c0.08-0.02,0.15-0.01,0.22,0.02C456.63,288.02,456.54,288.08,456.45,288.15z"/>
	<path style="fill-rule:evenodd;clip-rule:evenodd;fill:#9D5D23;" d="M468.89,291.03c-0.06-0.08-0.11-0.17-0.17-0.25
		C468.78,290.87,468.84,290.95,468.89,291.03z"/>
	<path style="fill-rule:evenodd;clip-rule:evenodd;fill:#D68020;" d="M479.03,277.83c-0.02,0.06-0.04,0.12-0.07,0.17
		c-0.03-0.03-0.06-0.06-0.09-0.09c0.06-0.02,0.12-0.04,0.17-0.07L479.03,277.83z"/>
	<path style="fill-rule:evenodd;clip-rule:evenodd;fill:#DA8A31;" d="M449.97,304.48c0.09,0.06,0.18,0.12,0.26,0.18
		C450.15,304.61,450.06,304.54,449.97,304.48z"/>
	<path style="fill-rule:evenodd;clip-rule:evenodd;fill:#A26123;" d="M481.91,307.59c-0.03,0.06-0.06,0.12-0.09,0.17
		c-0.15-0.17,0.02-0.14,0.1-0.16L481.91,307.59z"/>
	<path style="fill-rule:evenodd;clip-rule:evenodd;fill:#E8B675;" d="M508.31,257.43c-4.14,3.87-8.27,7.76-12.42,11.62
		c-2.24,2.08-4.51,4.13-6.76,6.2c-0.51-0.64-0.03-1.13,0.28-1.61c1.38-2.17,3.14-4.03,5.07-5.71c3.65-3.17,7.12-6.52,10.32-10.14
		c0.99-1.12,2.24-1.91,3.34-2.9c1.62-0.06,2.81-1.07,4.14-1.8c0.77-0.14,1.51-0.04,2.21,0.28c0.42,0.19,0.91,0.38,0.81,1
		c-1.62,1.86-3.8,2.51-6.12,2.87C508.89,257.27,508.54,257.07,508.31,257.43z"/>
	<path style="fill-rule:evenodd;clip-rule:evenodd;fill:#D68021;" d="M503.73,252.4c-1-0.02-1.32,0.91-1.96,1.39
		c-0.71,0.54-1.11,1.46-2.06,1.73c-0.9-3.33,1.93-7.47,5.46-8.2c2.11-0.43,4.06,0.04,6.03,0.58c0.09,0.05,0.18,0.11,0.26,0.18
		c0.08-0.01,0.15,0,0.21,0.03c0.06,0.6-0.42,0.71-0.82,0.84c-0.52,0.17-1.04,0.35-1.55,0.57c-0.86,0.12-1.74,0.16-2.58,0.46
		C505.43,250.44,504.45,251.25,503.73,252.4z"/>
	<path style="fill-rule:evenodd;clip-rule:evenodd;fill:#B16A24;" d="M517.92,254.24c0,1.95-1.7,4-4.07,4.86
		c-0.77,0.28-1.59,0.43-2.37,0.69c-1.18,0.38-1.67-0.43-2.11-1.23c-0.26-0.48,0.16-0.6,0.54-0.65c3.27-0.45,5.82-2.03,7.5-4.9
		c0.3-0.52,0.27-0.04,0.36,0.07c0.07,0.09,0.13,0.21,0.14,0.32C517.93,253.68,517.92,253.96,517.92,254.24z"/>
	<path style="fill-rule:evenodd;clip-rule:evenodd;fill:#DA8C33;" d="M509.24,249.29c0.67-0.69,1.83-0.35,2.43-1.18
		c1.49,0.55,3.02,1.04,4.09,2.32c0.06,0.11,0.14,0.22,0.26,0.27l0-0.01c-0.15,0.72-0.69,0.49-1.09,0.4
		c-0.88-0.19-1.77-0.29-2.67-0.21C511.26,250.37,510.08,250.16,509.24,249.29z"/>
	<path style="fill-rule:evenodd;clip-rule:evenodd;fill:#DD9743;" d="M512.14,250.76c0.72-0.51,1.48-0.22,2.25-0.15
		c0.54,0.05,1.07,0.62,1.64,0.09c1.06,0.55,0.84,1.35,0.42,2.18c-1.4-0.23-2.75-0.59-4.08-1.08
		C512.1,251.49,511.88,251.18,512.14,250.76z"/>
	<path style="fill-rule:evenodd;clip-rule:evenodd;fill:#E2A457;" d="M512.43,251.68c1.4,0.19,2.8,0.39,4.02,1.19
		c-0.17,0.66-0.6,1.12-1.15,1.48c-0.82-1.08-2.03-0.97-3.18-1.02C511.86,252.72,511.97,252.17,512.43,251.68z"/>
	<path style="fill-rule:evenodd;clip-rule:evenodd;fill:#DA8C33;" d="M511.46,248.08c-0.09-0.06-0.17-0.12-0.26-0.18
		C511.29,247.96,511.38,248.02,511.46,248.08z"/>
	<path style="fill-rule:evenodd;clip-rule:evenodd;fill:#DD9743;" d="M516.03,250.71c-0.09-0.09-0.17-0.18-0.26-0.27
		C515.86,250.53,515.94,250.62,516.03,250.71z"/>
	<path style="fill-rule:evenodd;clip-rule:evenodd;fill:#DE9744;" d="M484.57,278.52c0.41-2.06,0.68-4.12,1.88-5.97
		c2.02-3.13,4.68-5.66,7.42-8.09c3.76-3.34,7.19-7.01,10.63-10.67c0.77-0.03,1.39,0.23,1.75,0.95c-0.03,0.2-0.13,0.38-0.27,0.52
		c-3.4,3.36-6.6,6.92-10.19,10.1c-2.66,2.36-5.3,4.72-7.28,7.71c-0.97,1.45-1.61,3.02-1.75,4.77
		C486.13,278.44,485.73,279.73,484.57,278.52z"/>
	<path style="fill-rule:evenodd;clip-rule:evenodd;fill:#E4A960;" d="M486.75,277.86c-0.63-0.83-0.06-1.61,0.19-2.34
		c1.05-3.07,3.2-5.43,5.51-7.53c3.67-3.34,7.26-6.77,10.73-10.32c0.97-1,2.01-1.93,3.02-2.89c0.7-0.37,1.31-0.19,1.88,0.29
		c-0.05,0.15-0.06,0.35-0.16,0.44c-3.73,2.96-6.61,6.79-10.15,9.95c-2.41,2.15-4.95,4.15-6.93,6.72c-0.72,0.93-1.64,1.76-1.71,3.07
		C488.35,276.13,487.74,277.17,486.75,277.86z"/>
	<path style="fill-rule:evenodd;clip-rule:evenodd;fill:#B16924;" d="M488.15,295.36c-0.4,1.21-0.5,2.52-1.17,3.65
		c-0.5-0.3-0.58-0.84-0.74-1.32c-0.81-2.47-2.38-4.17-4.9-4.96c-0.36-0.11-0.92-0.12-0.87-0.75c0.3-1.01,0.62-2.02,0.89-3.05
		c0.12-0.47,0.1-0.8,0.73-0.35c1.47,1.05,3.21,1.66,4.54,2.94C487.72,292.59,488.21,293.85,488.15,295.36z"/>
	<path style="fill-rule:evenodd;clip-rule:evenodd;fill:#9E5E23;" d="M480.46,291.98c1.18,0.71,2.61,0.89,3.7,1.86
		c1.58,1.41,2.29,3.21,2.81,5.16c-0.26,0.93-0.72,1.77-1.23,2.58c-0.56-1.07-0.03-2.26-0.41-3.38c-1.02-3.01-2.91-4.48-6.09-4.54
		C479.65,293.11,480.06,292.54,480.46,291.98z"/>
	<path style="fill-rule:evenodd;clip-rule:evenodd;fill:#B46C27;" d="M477.1,287.01c-0.08,0.06-0.17,0.12-0.25,0.17
		C476.94,287.12,477.02,287.07,477.1,287.01z"/>
	<path style="fill-rule:evenodd;clip-rule:evenodd;fill:#834E1F;" d="M483.64,306.66c0.06-0.09,0.12-0.19,0.18-0.28
		C483.76,306.47,483.7,306.57,483.64,306.66z"/>
	<path style="fill-rule:evenodd;clip-rule:evenodd;fill:#8C5321;" d="M447.62,298.99c-0.26-0.42-0.51-0.83-0.77-1.25
		c0.56-0.73,1.13-1.46,1.69-2.19c0.17,0.83,0.35,1.66,0.52,2.49C448.58,298.35,448.1,298.67,447.62,298.99z"/>
	<path style="fill-rule:evenodd;clip-rule:evenodd;fill:#74451E;" d="M504.96,252.21c-0.17-1.28,1.04-1.18,1.68-1.6
		c1.35-0.91,2.91-0.74,4.17,0.26c0.49,0.39,0.77,0.85,0.59,1.44c-0.18,0.59-0.75,0.34-1.14,0.32c-1.29-0.05-2.51,0.11-3.68,0.74
		C505.75,253.82,504.98,253.22,504.96,252.21z"/>
	<polygon style="fill-rule:evenodd;clip-rule:evenodd;fill:#EEEDEC;" points="510.33,253.7 510.32,253.65 510.35,253.67 	"/>
</g>
</svg>
