<?xml version="1.0" encoding="utf-8"?>
<!-- Generator: Adobe Illustrator 16.0.0, SVG Export Plug-In . SVG Version: 6.00 Build 0)  -->
<!DOCTYPE svg PUBLIC "-//W3C//DTD SVG 1.0//EN" "http://www.w3.org/TR/2001/REC-SVG-20010904/DTD/svg10.dtd" [
	<!ENTITY ns_flows "http://ns.adobe.com/Flows/1.0/">
	<!ENTITY ns_extend "http://ns.adobe.com/Extensibility/1.0/">
	<!ENTITY ns_ai "http://ns.adobe.com/AdobeIllustrator/10.0/">
	<!ENTITY ns_graphs "http://ns.adobe.com/Graphs/1.0/">
]>
<svg version="1.0" id="Layer_1" xmlns:x="&ns_extend;" xmlns:i="&ns_ai;" xmlns:graph="&ns_graphs;"
	 xmlns="http://www.w3.org/2000/svg" xmlns:xlink="http://www.w3.org/1999/xlink" xmlns:a="http://ns.adobe.com/AdobeSVGViewerExtensions/3.0/"
	 x="0px" y="0px" width="960px" height="560px" viewBox="0 0 960 560" style="enable-background:new 0 0 960 560;"
	 xml:space="preserve">
<g>
	<path style="fill-rule:evenodd;clip-rule:evenodd;fill:#262624;" d="M486.68,314.02c-0.39,0.59-0.49,1.62-1.64,1.07
		c-0.06-0.03-0.28,0.07-0.29,0.14c-0.32,1.61-1.4,1.51-2.6,1.19c-0.24,0.15-0.45,0.1-0.64-0.09c-0.24-0.34-0.37-0.73-0.57-1.09
		c-0.49-0.98-0.94-1.97-1.27-3.02c-0.05-0.27-0.14-0.54-0.23-0.8c-0.17-0.34-0.07-0.89-0.51-1c-0.46-0.12-0.64,0.38-0.89,0.67
		c-0.35,0.43-0.7,0.86-1.09,1.26c-0.32,0.33-0.57,0.67-0.38,1.16c0.08,0.31,0.12,0.63,0.26,0.93c0.37,0.77,0.4,1.72,1.25,2.22
		c0.19,0.12,0.38,0.23,0.55,0.38c0.15,0.18,0.3,0.36,0.14,0.6c-1.26-0.27-0.99,0.79-1.22,1.41c-0.79-0.16-0.42-0.9-0.66-1.32
		c-0.05-0.22-0.1-0.45-0.19-0.67c-0.04-0.11-0.07-0.22-0.09-0.34c-0.02,0.09,0.03,0.18,0.06,0.26c0.09,0.26,0.16,0.52,0.2,0.79
		c0.05,0.35,0.04,0.7-0.07,1.04c-0.87,1.57-3.05,2.66-4.74,2.38c-0.73-0.35-1.3-0.88-1.74-1.56c-0.86-1.13-1.11-2.55-1.87-3.73
		c-0.36-0.57-0.05-1.07,0.3-1.53c0.75-0.98,1.78-1.58,2.87-2.09c0.83-0.38,1.69-0.34,2.56-0.23c0.22,0.04,0.43,0.12,0.64,0.19
		c0.09,0.02,0.19,0.04,0.28,0.05c0.31-0.12,0.18-0.36,0.14-0.56c-0.04-0.14-0.08-0.28-0.13-0.42c-0.06-0.13-0.13-0.25-0.24-0.35
		c-0.28-0.23-0.63-0.25-0.96-0.31c-0.21-0.05-0.39-0.13-0.48-0.34c-0.02-0.23,0.15-0.35,0.27-0.5c0.07-0.12,0.13-0.23,0.08-0.38
		c-0.11-0.24-0.19-0.47-0.03-0.72c0.43-0.53,0.95-0.97,1.35-1.51c0.27-0.36,0.47-0.76,0.39-1.21c-0.08-0.49-0.27-1.05-0.82-1.01
		c-0.52,0.03-0.34,0.62-0.38,0.99c-0.1,0.98,0.05,2.08-1.38,2.25c-0.24-0.08-0.48-0.14-0.4-0.48c1.02-0.45,1.01-1.27,0.85-2.2
		c-0.25-1.46,0.21-1.89,1.69-1.71c2.55,0.31,2.85,0.68,3.06,3c0.11,1.23-0.87,1.41-1.53,1.85c-1.29,0.87-1.43,1.59-0.42,2.74
		c0.4,0.44,0.71,0.16,0.83-0.16c0.45-1.24,1.83-1.68,2.36-2.85c0.19-0.41,0.62-0.68,1.07-0.69c2.03-0.04,2.89-1.75,4.29-2.71
		c1.21-0.83,0.56-2.3,1.73-2.8c-0.58-0.93,0.58-1.61,0.28-2.71c-0.46-1.64-1.15-3.53,0.23-5.19c0.26-0.32,0.21-0.67,0.19-1.03
		c-0.07-2.27-0.15-4.55-0.22-6.82c-0.03-1.05-0.14-2.1-1-2.84c-0.67-0.58-0.36-1.38-0.37-1.98c-0.02-1.42-0.34-2.78-0.63-4.13
		c-0.16-0.75-0.05-1.13,0.58-1.44c0.44-0.59,0.73-0.13,0.86,0.2c0.55,1.32,1.29,2.64,1.22,4.09c-0.06,1.14,0.28,0.78,0.9,0.54
		c0.44-0.17,1.04-0.6,1.38,0.22c-0.5,0.62-1.34,0.64-1.95,1.07c-0.13,0.1-0.36,0.09-0.39,0.31c0.16,0.02,0.3-0.07,0.44-0.11
		c1.82-0.59,3.65-1.04,5.59-0.83c0.21,0.02,0.58,0.26,0.63-0.14c0.02-0.19-0.37-0.23-0.59-0.31c-0.68-0.23-1.36-0.16-2.04-0.04
		c-0.19,0.02-0.37,0-0.55-0.08c-0.17-0.12-0.28-0.26-0.28-0.48c0.12-0.27,0.37-0.36,0.63-0.41c0.84-0.08,1.67-0.09,2.51,0.02
		c0.17,0.03,0.34,0.08,0.5,0.14c0.14,0.04,0.29,0.06,0.45,0.04c0.09-1.24-0.65-2.32-0.67-3.54c-0.01-0.6-0.04-1.18,0.1-1.77
		c0.09-0.4,0.28-0.55,0.67-0.38c0.91,0.43,1.24,1.22,1.24,2.15c-0.01,1.56-0.02,3.11-0.11,4.67c-0.05,0.81-0.23,1.66-1.4,1.46
		c-0.4-0.07-0.47,0.11-0.47,0.46c0.03,2.04,0.04,4.07,0.05,6.11c-0.04,0.29,0.22,0.68-0.27,0.81c-0.64-0.34-0.62-0.96-0.65-1.55
		c-0.05-1.31,0.03-2.62,0.01-3.93c-0.03-2.22-0.23-2.37-2.44-1.99c-0.86,0.2-1.76,0.29-2.53,0.8c-0.5,0.27-0.54,0.75-0.56,1.23
		c-0.12,2.66,0.29,5.3,0.28,7.96c0,1.32,1.17,0.82,1.92,0.91c0.7-0.12,1.41-0.17,2.09-0.4c0.23-0.03,0.44-0.1,0.65-0.19
		c0.51-0.12,0.79-0.4,0.88-0.96c0.1-0.61,0.1-1.26,0.43-1.83c0.08-0.08,0.17-0.15,0.26-0.22c0.23,2.05,0.49,4.09,1.14,6.07
		c0.12,0.37-0.05,0.84-0.11,1.26c-0.27,1.67-0.17,3.45-0.61,5.02c-0.31,1.11-0.64,2.37-1.31,3.5c-0.53,0.88-1.41,1.81-1.42,3.02
		c0,0.52-0.26,0.99-0.72,1.16c-0.73,0.27-0.98,0.83-1.21,1.47c-0.21,0.08-0.32-0.04-0.42-0.2c-0.37-0.72,0.34-1.57-0.26-2.27
		c-0.17-0.3-0.37-0.59-0.44-0.94c-0.02-0.19,0.01-0.35,0.14-0.5c0.31-0.16,0.57-0.04,0.81,0.16c0.3,0.33,0.51,0.73,0.7,1.13
		c0.07,0.14,0.19,0.31,0.33,0.22c0.37-0.25,0.13-0.63,0.15-0.96c0-0.1,0.01-0.21,0.02-0.31c0.1-0.33-0.04-0.58-0.27-0.8
		c-0.24-0.29-0.56-0.53-0.66-0.92c-0.01-0.26,0.09-0.44,0.36-0.51c0.39-0.01,0.64,0.23,0.87,0.49c0.21,0.1,0.42,0.84,0.63,0.03
		c0.13-0.5,0.12-1.04-0.42-1.38c-0.24-0.23-0.53-0.43-0.46-0.83c0.07-0.18,0.22-0.24,0.4-0.26c0.12,0.01,0.22,0.04,0.33,0.09
		c0.1,0.05,0.19,0.12,0.28,0.19c0.04,0.04,0.08,0.08,0.13,0.11c0.25,0.13,0.36,0.65,0.71,0.39c0.2-0.15-0.02-0.51-0.16-0.75
		c-0.16-0.29-0.46-0.42-0.7-0.63c-0.18-0.24-0.67-0.4-0.22-0.81c0.11-0.04,0.22-0.07,0.34-0.07c0.12,0.01,0.23,0.03,0.34,0.07
		c0.41,0.08,0.92,0.75,1.21,0.16c0.28-0.58-0.09-1.22-0.72-1.55c-0.28-0.14-0.63-0.1-0.87-0.34c-0.05-0.11-0.05-0.21-0.01-0.32
		c0.06-0.06,0.12-0.1,0.19-0.14c0.4-0.26,1.14,0.14,1.26-0.34c0.15-0.59-0.69-0.5-0.98-0.81c-0.51-0.58,0.05-0.68,0.46-0.81
		c0.39-0.1,1.38,0.31,0.64-0.75c-0.14-0.06-0.29-0.12-0.44-0.17c-0.82-0.24-1.02-0.59-0.2-1.12c0.18-0.11,0.26-0.28,0.3-0.47
		c0.01-0.09,0.03-0.19,0.04-0.28c0.02-0.13,0.02-0.25-0.04-0.38c-0.06-0.06-0.13-0.11-0.22-0.14c-0.34-0.06-0.65,0-0.96,0.12
		c-0.19,0.08-0.39,0.17-0.58,0.25c-1.1,0.45-2.26,0.67-3.38,0.99c-0.1,0.32-0.38,0.45-0.63,0.61c-0.07,0.07-0.15,0.13-0.22,0.2
		c-0.2,1.02,0.41,1.24,1.22,1.27c0.17,0.01,0.34,0.03,0.51,0.07c0.4,0.14,0.8,0.29,0.96,0.74c-0.07,0.39-0.36,0.42-0.67,0.41
		c-0.2-0.03-0.38-0.11-0.56-0.18c-0.35-0.14-0.77-0.24-0.95,0.16c-0.2,0.46,0.29,0.56,0.59,0.72c0.3,0.11,0.6,0.22,0.9,0.33
		c0.1,0.04,0.19,0.1,0.28,0.17c0.12,0.13,0.2,0.27,0.15,0.45c-0.14,0.22-0.35,0.25-0.59,0.23c-0.08-0.01-0.15-0.04-0.23-0.04
		c-0.51-0.02-1.24-0.52-1.44,0.22c-0.18,0.66,0.65,0.75,1.12,1c0.1,0.06,0.22,0.08,0.34,0.13c0.37,0.21,0.79,0.4,0.56,0.96
		c-0.34,0.27-0.68,0.16-1.02,0c-0.14-0.07-0.27-0.16-0.41-0.24c-1.14-0.57-1.36-0.43-1.33,0.86c0,0.2,0,0.4-0.1,0.57
		c-0.12,0.12-0.26,0.2-0.42,0.25c-0.96,0.61-1,0.96-0.27,2.11c0.19,0.2,0.38,0.4,0.58,0.59c0.2,0.21,0.39,0.42,0.54,0.67
		c0.2,0.63,0.54,1.34-0.65,1.22c-0.19-0.12-0.29-0.32-0.38-0.52c-0.04-0.09-0.08-0.18-0.12-0.27c-0.08-0.18-0.18-0.35-0.29-0.51
		c-0.17-0.25-0.34-0.49-0.55-0.71c-0.32-0.22-0.61-0.84-1.03-0.42c-0.5,0.5-0.14,1.07,0.22,1.56c0.09,0.12,0.18,0.25,0.27,0.37
		c0.15,0.19,0.28,0.4,0.42,0.61c0.06,0.08,0.12,0.16,0.17,0.24c0.09,0.12,0.18,0.24,0.26,0.37c0.17,0.27,0.38,0.52,0.43,0.85
		c-0.07,0.68-0.39,0.8-0.9,0.39c-0.27-0.21-0.46-0.51-0.65-0.79c-0.07-0.09-0.13-0.18-0.19-0.28c-0.03-0.05-0.06-0.09-0.09-0.14
		c-0.2-0.32-0.38-0.66-0.58-0.98c-0.33-0.33-0.45-1.18-1.04-0.83c-0.44,0.26,0.12,0.84,0.27,1.26c0.12,0.23,0.25,0.46,0.39,0.67
		c0.06,0.08,0.12,0.17,0.17,0.26c0.11,0.18,0.23,0.36,0.35,0.54c0.22,0.33,0.46,0.67,0.51,1.06c0.08,0.63-0.08,1.05-0.84,0.71
		c-0.32-0.31-0.44-0.73-0.65-1.1c-0.05-0.09-0.1-0.18-0.15-0.28c-0.05-0.09-0.1-0.18-0.14-0.28c-0.17-0.38-0.35-0.75-0.55-1.11
		c-0.27-0.52-0.52-1.05-0.78-1.58c-0.22,0.04,0.04,0.17-0.05,0.24c-0.46,0.48-0.91,0.96-0.58,1.71c0.11,0.46,0.27,0.92,0.43,1.37
		c0.04,0.1,0.07,0.2,0.1,0.3c0.06,0.2,0.13,0.4,0.22,0.6c0.29,0.59,0.53,1.19,0.93,1.71c0.33,0.38,0.83,0.52,1.22,0.81
		c0.85-0.28,0.21-0.95,0.38-1.41c0.17-0.51,0.48-0.58,0.92-0.32c0.25,0.18,0.54,0.5,0.83,0.28c0.38-0.29,0.16-0.72,0.04-1.09
		c-0.06-0.71,0.12-1.07,0.88-0.63c0.24,0.35,0.46,0.7,0.53,1.13C486.88,313.72,486.81,313.88,486.68,314.02z"/>
	<path style="fill-rule:evenodd;clip-rule:evenodd;fill:#48514D;" d="M494.12,280.4c-0.96,0-1.93-0.01-2.89-0.01
		c-0.34-0.5,0.05-0.9,0.19-1.33c0.35-1.05,0.25-2.04-0.46-2.9c-0.84-1.01-1.82-0.9-2.48,0.23c-0.84,1.44-0.01,3.59,1.59,4.07
		c0.23,0.11,0.44,0.25,0.51,0.52c-0.21,0.39-0.48,0.38-0.79,0.13c-0.72-0.45-1.25,0.18-1.85,0.35c-0.26,0.07-0.5,0.2-0.75,0.3
		c0.02-0.28,0.01-0.57,0.05-0.85c0.26-1.75-0.75-3.17-1.23-4.73c-0.08-0.27-0.32-0.13-0.5-0.09c0.19-0.8,0.76-1.29,1.4-1.72
		c0.35-0.05,0.71-0.13,1.07-0.09c0.36,0.04,0.04-0.17,0.1-0.24c0.06-0.16,0.18-0.25,0.33-0.32c0.34-0.12,0.7-0.16,1.04-0.28
		c0.19-0.05,0.38-0.08,0.58-0.08c0.99,0.05,1.99-0.15,2.97,0.13c0.24,0.16,0.34,0.35,0.01,0.51c-0.19,0.1-0.41,0.02-0.62,0.04
		c0.2,0.06,0.41,0.01,0.61,0c0.38-0.01,0.69,0.13,1,0.33c0.08,2.13,0.61,4.19,0.87,6.29c-0.16-0.01-0.32-0.02-0.48-0.04
		C494.28,280.55,494.2,280.48,494.12,280.4z"/>
	<path style="fill-rule:evenodd;clip-rule:evenodd;fill:#575D5C;" d="M471.59,312.61c-0.38,0.22-0.75,0.43-1.13,0.65
		c-1.69,0.96-1.89,1.66-1.23,3.37c0.39,1.01,0.83,1.98,1.36,2.91c-0.09,0.46-0.22,0.88-0.73,1.03c-0.77-0.22-0.77-1.18-1.43-1.5
		c-0.14-0.26-0.28-0.51-0.42-0.77c0.12-0.23-0.05-0.42-0.09-0.63c-0.23-0.68-0.53-1.33-0.89-1.96c-0.53-0.92-0.54-1.81,0.28-2.6
		c1.08-0.8,2.07-1.77,3.52-1.88C471.35,311.55,471.58,312.02,471.59,312.61z"/>
	<path style="fill-rule:evenodd;clip-rule:evenodd;fill:#2D2D2B;" d="M488.07,274.13c0.12,0.02,0.24,0.02,0.35,0.05
		c0.07,0.02,0.29,0.14,0.1,0.15c-0.54,0.04-1.08,0.66-1.63,0.03c0.34-3.35-0.25-6.65-0.51-9.96c-0.29-3.72-0.14-7.49-1.4-11.08
		c-0.15-0.33-0.13-0.56,0.31-0.55c1.18,1.04,1.28,2.51,1.49,3.9c0.36,2.36,0.21,4.75,0.48,7.12c0.04,0.32,0.05,0.63,0.15,0.94
		c0.04,0.14,0.06,0.28,0.07,0.42C487.54,268.14,488.02,271.12,488.07,274.13z"/>
	<path style="fill-rule:evenodd;clip-rule:evenodd;fill:#2C2C2A;" d="M466.21,312.11c-0.72-0.76-2.04-0.93-2.04-2.4
		c0-1.47,0.64-2.6,1.42-3.73c0.41-0.59,0.99-0.69,1.58-0.4c0.72,0.35,1.99,0.5,1.74,1.51c-0.58,2.33,0.85,1.44,1.85,1.34
		c0.21-0.09,0.33,0.01,0.42,0.18c0.03,0.54-0.41,0.64-0.77,0.76c-0.49,0.17-1.01,0.25-1.52,0.32c-1.69,0.23-2.27-0.23-2.44-1.91
		c-0.02-0.23,0.07-0.56-0.19-0.64c-0.26-0.07-0.36,0.25-0.5,0.45c-0.85,1.24-0.89,1.91-0.19,2.93c0.34,0.4,1.04,0.16,1.28,0.73
		c0.03,0.26-0.04,0.48-0.17,0.7C466.55,312.11,466.41,312.22,466.21,312.11z"/>
	<path style="fill-rule:evenodd;clip-rule:evenodd;fill:#2F2F2D;" d="M484.33,244.13c3.33,2.59,5.89,5.78,7.57,9.66
		c0.35,0.81,0.54,1.66,0.56,2.55c0.15,0.72,0.12,1.44,0.03,2.16c-0.94,0.05-0.75-0.76-0.82-1.23c-0.32-2.02-0.86-3.96-1.92-5.73
		c-1.08-1.81-2.26-3.55-3.98-4.84c-0.14-0.09-0.27-0.21-0.38-0.33c-0.11-0.12-0.21-0.25-0.31-0.37c-0.11-0.12-0.21-0.23-0.32-0.35
		c-0.32-0.42-0.74-0.78-0.8-1.35C484.05,244.14,484.13,244,484.33,244.13z"/>
	<path style="fill-rule:evenodd;clip-rule:evenodd;fill:#2F2F2F;" d="M482.34,250.17c-0.81-1.81-2.51-2.47-4.16-3.19
		c-0.96-0.42-1.41-0.98-0.79-2.02c0.13-0.22,0.19-0.55,0.13-0.79c-0.07-0.28-0.33-0.07-0.48,0c-1.04,0.51-1.95,0.74-2.73-0.5
		c-0.78-1.25,0.46-1.64,0.84-2.39c0.22-0.08,0.31,0.06,0.37,0.24c0.05,0.38-0.19,0.67-0.29,1.01c-0.24,0.8,0.17,1.22,1,1.03
		c0.31-0.07,0.59-0.24,0.88-0.35c1.05-0.39,1.27-0.24,1.41,0.92c-0.04,0.28-0.15,0.54-0.21,0.81c-0.26,0.7,0.05,1.15,0.66,1.43
		c1.33,0.62,2.54,1.44,3.85,2.09c0.15,0.08,0.27,0.19,0.36,0.33c0.04,0.1,0.05,0.21,0.05,0.32c-0.02,0.16-0.08,0.31-0.14,0.46
		c-0.04,0.1-0.09,0.19-0.15,0.28C482.78,250.01,482.69,250.33,482.34,250.17z"/>
	<path style="fill-rule:evenodd;clip-rule:evenodd;fill:#30302E;" d="M493.88,274.4c-0.2-0.02-0.39-0.03-0.59-0.07
		c-0.44-0.09-0.87-0.2-1.3-0.31c0.33-0.29,0.9,0.14,1.16-0.38c-0.35-0.34-0.35-0.78-0.35-1.22c0.06-3.18-0.37-6.32-0.72-9.47
		c0.03-0.8,0.02-1.61-0.01-2.42c0.12-0.46-0.14-1.1,0.6-1.26c0.42,4.76,1.47,9.48,1.05,14.31c-0.02,0.18,0.11,0.37,0.17,0.55
		c0.06,0.06,0.08,0.12,0.06,0.18C493.92,274.38,493.9,274.4,493.88,274.4z"/>
	<path style="fill-rule:evenodd;clip-rule:evenodd;fill:#575C5B;" d="M472.07,320.93c1.83-0.02,3.4-0.61,4.53-2.13
		c0.32,0.04,0.51,0.24,0.63,0.51c0.14,1.39-1.09,1.83-1.81,2.62c-0.47,0.44-1.05,0.66-1.68,0.74c-0.73-0.26-1.67,0.24-2.25-0.6
		C471.45,321.57,471.63,321.18,472.07,320.93z"/>
	<path style="fill-rule:evenodd;clip-rule:evenodd;fill:#3A3F3C;" d="M493.88,274.4c0-0.09,0-0.17,0.01-0.26
		c0.4,0.03,0.76,0.13,1.01,0.47c-1.1,1.27-0.24,2.63-0.11,3.93c0.06,0.56,0.43,1.08,0.62,1.63c0.21,0.6,0.12,0.9-0.57,0.48
		C494.02,278.65,493.77,276.55,493.88,274.4z"/>
	<path style="fill-rule:evenodd;clip-rule:evenodd;fill:#353434;" d="M489.78,311.33c0.09,0.09,0.17,0.18,0.26,0.27
		c-0.09,0.16-0.18,0.46-0.27,0.46c-0.98,0.02-1.42,0.39-1.52,1.46c-0.08,0.89-0.97,0.52-1.57,0.5c0-0.17,0-0.34,0-0.51
		c1.07-0.56,0.96-1.49,0.76-2.45c-0.07-0.21-0.14-0.43-0.16-0.66c0.01-0.12,0.05-0.22,0.12-0.31c0.4-0.19,0.65,0.04,0.89,0.31
		c0.07,0.08,0.14,0.17,0.2,0.26c0.03,0.04,0.06,0.08,0.1,0.13C488.85,311.26,489.37,311.18,489.78,311.33z"/>
	<path style="fill-rule:evenodd;clip-rule:evenodd;fill:#343433;" d="M471.56,321.92c0.58,0.67,1.57,0.17,2.18,0.75
		c-2.1,0.67-3.3-0.61-4.38-2.08c-0.35-0.48-0.62-1.02-0.93-1.53c0.87,0.07,0.85,1.07,1.47,1.4
		C470.59,320.79,471.14,321.28,471.56,321.92z"/>
	<path style="fill-rule:evenodd;clip-rule:evenodd;fill:#2D2D2D;" d="M466.21,312.11c0.11-0.11,0.22-0.21,0.34-0.32
		c0.56,0.06,0.52,0.59,0.71,0.93c0.08,0.18,0.17,0.37,0.23,0.56c-0.79,0.83-0.75,1.72-0.12,2.59c0.43,0.61,0.54,1.32,0.82,1.98
		c-0.08,0.08-0.09,0.23-0.23,0.25C466.69,316.3,466.33,314.24,466.21,312.11z"/>
	<path style="fill-rule:evenodd;clip-rule:evenodd;fill:#383838;" d="M478.58,239.33c1.43,0.66,2.62,1.61,3.55,2.88
		c0.1,0.24-0.05,0.31-0.24,0.35c-1.56-0.62-2.65-1.81-3.69-3.05C478.26,239.33,478.36,239.21,478.58,239.33z"/>
	<path style="fill-rule:evenodd;clip-rule:evenodd;fill:#3D3E3E;" d="M478.58,239.33c-0.1,0.07-0.2,0.14-0.29,0.21
		c-0.34,0.3-0.87,0.19-1.17,0.56c-0.07,0.07-0.14,0.13-0.22,0.2c-0.03,0.03-0.07,0.06-0.11,0.1c-0.07,0.07-0.14,0.13-0.21,0.19
		c-0.03,0.03-0.07,0.06-0.1,0.1c-0.06,0.07-0.13,0.13-0.2,0.2c-0.03,0.04-0.07,0.07-0.1,0.1c-0.06,0.08-0.12,0.15-0.19,0.22
		c-0.03,0.04-0.06,0.07-0.1,0.11c-0.14,0.13-0.27,0.31-0.5,0.2c-0.08-0.08-0.16-0.16-0.24-0.24c0.39-0.55,0.74-1.13,1.16-1.65
		C476.97,238.82,477.72,238.61,478.58,239.33z"/>
	<path style="fill-rule:evenodd;clip-rule:evenodd;fill:#4E4D48;" d="M482.34,250.17c0.18-0.16,0.35-0.31,0.53-0.47
		c0.16,0.01,0.3,0.09,0.43,0.19c0.09,0.06,0.17,0.13,0.25,0.21c0.04,0.04,0.08,0.07,0.12,0.11c0.67,0.78,1.64,1.38,1.57,2.61
		c-0.08,0.17-0.17,0.33-0.25,0.5C484.43,251.99,483.38,251.09,482.34,250.17z"/>
	<path style="fill-rule:evenodd;clip-rule:evenodd;fill:#3C3C3B;" d="M475.42,321.93c-0.08-0.35-0.08-0.38,0.22-0.57
		c0.78-0.5,1.46-1.06,1.41-2.11c-0.24-0.56-0.38-1.12,0.07-1.66c0.43,0.4-0.04,1.06,0.43,1.45
		C477.5,320.49,476.84,321.49,475.42,321.93z"/>
	<path style="fill-rule:evenodd;clip-rule:evenodd;fill:#3C3C3B;" d="M481.63,316.15c0.17,0.09,0.35,0.18,0.52,0.27
		c-1.03,0.69-2.06,1.35-3.39,1.21c-0.09-0.17-0.17-0.33-0.26-0.5C479.51,316.68,480.55,316.36,481.63,316.15z"/>
	<path style="fill-rule:evenodd;clip-rule:evenodd;fill:#4C4C4C;" d="M481.89,242.46c0.08-0.08,0.16-0.16,0.24-0.25
		c0.84,0.51,1.57,1.16,2.2,1.91c-0.09,0.09-0.18,0.19-0.27,0.28C482.96,244.18,482.29,243.47,481.89,242.46z"/>
	<path style="fill-rule:evenodd;clip-rule:evenodd;fill:#454544;" d="M471.1,308.76c-0.11-0.11-0.23-0.22-0.34-0.33
		c0.51-0.43,1.09-0.66,1.76-0.69c0.18,0.1,0.36,0.19,0.54,0.29C472.63,308.91,471.95,309.07,471.1,308.76z"/>
	<path style="fill-rule:evenodd;clip-rule:evenodd;fill:#3E3E3C;" d="M492.67,259.28c-0.38,0.36-0.14,0.85-0.26,1.26
		c-0.85-0.58-0.66-1.27-0.2-1.99c0.5-0.69,0.06-1.49,0.26-2.22C492.77,257.3,492.71,258.29,492.67,259.28z"/>
	<path style="fill-rule:evenodd;clip-rule:evenodd;fill:#D5983B;" d="M494.29,290.11c-0.04,0.07-0.09,0.12-0.17,0.13l0.01,0.01
		c0.03-0.27,0.06-0.54,0.09-0.8C494.24,289.67,494.26,289.89,494.29,290.11z"/>
	<path style="fill-rule:evenodd;clip-rule:evenodd;fill:#2B2B2A;" d="M467.95,318.1c0.08-0.08,0.15-0.17,0.23-0.25
		c-0.06,0.15-0.12,0.3-0.18,0.45C467.94,318.25,467.92,318.18,467.95,318.1z"/>
	<path style="fill-rule:evenodd;clip-rule:evenodd;fill:#B279AB;" d="M490.02,299.13c-0.31-0.17-0.63-0.33-0.94-0.5
		c-0.49-0.6-0.81-1.21-0.06-1.85c0.1-0.04,0.27-0.03,0.31-0.1c0.14-0.25-0.12-0.1-0.15-0.11c-0.37-0.06-0.77-0.02-1.07-0.33
		c-0.44-0.23-0.55-0.7,0.01-0.59c1.32,0.25,2.37-0.47,3.55-0.66c0.69,0.1,0.48,0.63,0.38,0.97c-0.48,1.75-0.59,3.49-0.1,5.26
		c0.22,0.82-0.44,1.56-0.37,2.39c-0.07,0.1-0.17,0.17-0.3,0.19c-0.35,0.31-0.03,0.65-0.03,0.97c0,0.52-0.22,0.88-0.73,1.05
		c-0.08,0.17-0.16,0.33-0.24,0.49c0.6,1.2,0.55,1.35-0.5,1.69c-0.19-0.17-0.38-0.32-0.66-0.19c-0.25-0.06-0.35-0.25-0.38-0.48
		c0.16-0.54-0.31-0.89-0.41-1.36c-0.18-1.46-0.03-1.76,1.2-2.35c0.08-0.54-0.44-0.49-0.69-0.7c-0.46-1.1-0.36-1.47,0.46-1.66
		c0.2,0,0.42,0.03,0.49-0.24c-0.08-0.08-0.15-0.15-0.22-0.23l-0.02-0.01C488.75,299.97,489.68,299.63,490.02,299.13z"/>
	<path style="fill-rule:evenodd;clip-rule:evenodd;fill:#E3C3AF;" d="M471.1,308.76c0.73-0.04,1.37-0.3,1.95-0.73
		c1.02-0.38,0.95-1.23,0.96-2.09c0.01-0.5-0.4-1.16,0.31-1.48c0.2-0.09,0.68-0.02,0.76,0.13c0.35,0.62,1.14,1.09,0.76,2
		c-0.44,1.04-1.19,1.78-2.11,2.38c-0.61,0.95-1.7,0.97-2.61,1.28c-1.87,0.62-3.76,1.27-5.78,0.6c-0.91-1.06-0.34-3.91,0.92-4.51
		c0.51-0.24,0.44,0.22,0.48,0.5c0.42,2.86,0.69,3.03,3.58,2.21C470.58,308.98,470.84,308.86,471.1,308.76z"/>
	<path style="fill-rule:evenodd;clip-rule:evenodd;fill:#ECDF2B;" d="M473.28,320.32c-0.23,0.15-0.44,0.45-0.76,0.15
		c-0.4-1.88-1.08-3.65-1.98-5.34c-0.33-0.63,0.01-1.07,0.63-1.3c0.26-0.1,0.54-0.12,0.83-0.08c1.65,0.24,3.69,3.65,3.12,5.23
		c-0.08,0.23-0.23,0.42-0.42,0.57C474.32,319.98,473.72,320,473.28,320.32z"/>
	<path style="fill-rule:evenodd;clip-rule:evenodd;fill:#E3BB41;" d="M490.3,293.91c-0.11,0.05-0.21,0.12-0.32,0.13
		c-2.28,0.29-2.25,0.29-2.29-2c-0.05-2.55-0.18-5.1-0.26-7.66c-0.02-0.57-0.04-1.18,0.82-1.12c0.44-0.18,0.71-0.05,0.7,0.45
		c-0.01,0.72,0.1,1.44-0.05,2.15c-0.3,1.43-0.21,2.84,0.04,4.26C489.17,291.47,489.23,292.86,490.3,293.91z"/>
	<path style="fill-rule:evenodd;clip-rule:evenodd;fill:#7E8384;" d="M479.92,312.1c0.42,1.03,0.84,2.05,1.27,3.08
		c0.02,0.6-0.5,0.57-0.83,0.62c-0.9,0.12-1.64,0.54-2.32,1.11c-1.29-0.31-1.04-1.56-1.46-2.4c-0.18-0.31-0.07-0.62,0.22-0.67
		c1.05-0.19,1.74-0.89,2.46-1.57C479.44,312.1,479.67,312,479.92,312.1z"/>
	<path style="fill-rule:evenodd;clip-rule:evenodd;fill:#EAD062;" d="M490.3,293.91c-1.04-0.49-1.27-1.35-1.53-2.44
		c-0.59-2.54-0.28-5.03-0.16-7.55c0.02-0.33,0.14-0.66-0.38-0.65c0.78-0.56,1.7-0.62,2.61-0.73c0.13-0.11,0.28-0.09,0.43-0.05
		c0.21,0.04,0.45-0.07,0.62,0.13c0.09,0.09,0.15,0.2,0.21,0.31c0.22,2.3,0.44,4.59,0.9,6.86c0.12,0.58,0.31,1.16,0.22,1.77
		c-0.09,0.58-0.09,1.22-0.82,1.43c-0.46-0.18-0.32-0.59-0.31-0.93c0.1-2.1-0.25-4.12-0.99-6.08c-0.2-0.52-0.07-1.02,0.1-1.52
		c0.19-0.54,0.1-0.99-0.54-1.07c-0.6-0.08-1.18,0.08-1.22,0.81c-0.13,2.26-0.63,4.49-0.06,6.79c0.49,1.96,0.71,2.27,2.61,1.83
		c0.21,0.04,0.31,0.18,0.35,0.38c0.01,0.13-0.03,0.25-0.11,0.35C491.61,293.76,490.98,293.98,490.3,293.91z"/>
	<path style="fill-rule:evenodd;clip-rule:evenodd;fill:#D5983B;" d="M491.26,282.61c-0.14-0.03-0.27-0.05-0.41-0.08
		c2.56-0.56,2.77-0.43,2.85,2.13c0.04,1.27-0.09,2.55-0.08,3.83c0,0.61-0.1,1.3,0.5,1.76l-0.01-0.01c-0.06,0.78-0.12,1.56-0.18,2.35
		c-0.06,0.8-0.72,0.68-1.22,0.82c-0.03-0.06-0.06-0.12-0.08-0.17c0.61-0.77,0.55-1.69,0.37-2.51c-0.27-1.21-0.22-2.45-0.55-3.64
		c-0.28-0.97-0.29-1.95-0.14-2.95c0.09-0.59,0.11-1.22-0.59-1.54c-0.08,0-0.17,0.01-0.25,0.01l-0.1,0.04L491.26,282.61z"/>
	<path style="fill-rule:evenodd;clip-rule:evenodd;fill:#AE77A8;" d="M487.43,310.35c0.08,0.17,0.16,0.34,0.24,0.51
		c0.08,1.4-0.19,1.72-1.45,1.69c-0.12-0.19-0.28-0.23-0.46-0.1c-0.23,0.17-0.08,0.4-0.05,0.61c0.01,0.82-0.24,1.32-1.19,0.95
		c-0.35-0.31-0.57-0.18-0.71,0.22c0.16,0.72,0.25,1.41-0.69,1.67c-0.27-0.51-1.05-0.32-1.26-0.92c0.88-0.36,1.28-1.08,1.47-1.96
		c0.6,0.32,0.75,0.07,0.55-0.48c-0.14-0.41-0.38-0.79-0.57-1.18c-0.14-0.12-0.08-0.36-0.26-0.45l-0.01-0.01
		c0.13-0.86,0.64-0.8,1.24-0.51l0.01,0.01c0.07,0.08,0.13,0.16,0.18,0.24c0.22,0.28,0.43,0.57,0.67,0.83
		c0.6,0.61,0.56,0.06,0.59-0.34C486.48,311.25,486.93,310.74,487.43,310.35z"/>
	<path style="fill-rule:evenodd;clip-rule:evenodd;fill:#707977;" d="M490.07,280.67c-1.59,0.09-1.99-0.95-2.16-2.24
		c-0.18-1.32,0.03-2.49,1.27-3.2c0.84-0.48,2.12,0.39,2.55,1.52c0.51,1.34-0.01,2.47-0.5,3.64c-0.17,0.08-0.34,0.16-0.5,0.23
		C490.52,280.83,490.3,280.77,490.07,280.67z"/>
	<path style="fill-rule:evenodd;clip-rule:evenodd;fill:#E2C033;" d="M474.44,319.52c0.66-0.81,0.59-1.65,0.17-2.56
		c-0.46-0.99-1.15-1.82-1.9-2.57c-0.47-0.47-1.16-0.59-1.77-0.17c-0.8,0.54,0.01,1.03,0.2,1.41c0.74,1.54,1.6,3.03,1.38,4.84
		c-0.09-0.06-0.19-0.12-0.28-0.19c-0.38-0.37-0.6-0.82-0.74-1.33c-0.32-1.19-0.77-2.34-1.37-3.42c-0.22-0.38-0.41-0.78-0.22-1.24
		c0.39-0.39,0.83-0.7,1.39-0.81c1.2-0.54,2.03-0.1,2.75,0.92c0.45,0.63,0.81,1.28,1.08,1.99c0.1,0.31,0.24,0.61,0.41,0.89
		c0.05,0.1,0.08,0.2,0.11,0.3c0.06,0.31,0.09,0.62,0.13,0.93c0,0.34-0.2,0.57-0.41,0.81c-0.07,0.07-0.15,0.14-0.23,0.19
		c-0.09,0.05-0.18,0.09-0.28,0.12C474.69,319.66,474.54,319.66,474.44,319.52z"/>
	<path style="fill-rule:evenodd;clip-rule:evenodd;fill:#D59636;" d="M475.4,317.6c0-0.08,0-0.16-0.01-0.24
		c-0.18-0.23-0.29-0.5-0.47-0.72c-0.4-0.67-0.68-1.39-1.14-2.06c-0.66-0.97-1.43-1.27-2.5-1.1c2.51-1.43,3.47-1.06,4.25,1.64
		c0.29,1,0.57,2,0.54,3.05c-0.02,0.77-0.26,1.42-1.15,1.58c-0.09-0.05-0.12-0.1-0.09-0.15c0.02-0.05,0.05-0.08,0.08-0.08l0.01,0
		c0.08-0.07,0.16-0.15,0.24-0.23c0.16-0.24,0.32-0.48,0.48-0.72C475.38,318.28,475.67,317.87,475.4,317.6z"/>
	<path style="fill-rule:evenodd;clip-rule:evenodd;fill:#B880B0;" d="M487.43,310.35c-0.38,0.66-0.53,1.81-1.68,0.77
		c-0.28-0.14-0.47-0.34-0.54-0.65c-0.03-0.14-0.11-0.23-0.23-0.29l-0.01,0c0.06-0.76,0.32-1.32,1.23-1.22l0,0.01
		c0.14,0.13,0.09,0.33,0.21,0.47c0.15,0.19,0.36,0.41,0.57,0.17c0.33-0.38-0.09-0.73-0.14-1.1c0.05-0.81,0.46-1.33,1.23-1.57
		c0.11-0.02,0.22-0.02,0.33,0c0.11,0.03,0.21,0.08,0.3,0.15c0.09,0.08,0.13,0.17,0.14,0.29c0.1,0.15,0.19,0.3,0.29,0.46
		c0,0.11,0,0.23,0,0.34c-0.02,1.56-0.04,1.59-1.71,2.07C487.44,310.27,487.45,310.31,487.43,310.35z"/>
	<path style="fill-rule:evenodd;clip-rule:evenodd;fill:#7E7D74;" d="M489.79,281.1c0.27,0.02,0.55,0.05,0.76-0.19
		c0.11-0.18,0.28-0.15,0.44-0.1c0.15,0.02,0.3,0.03,0.45,0.05c0.75-0.16,1.51-0.15,2.26,0c0.33,0.12,0.69,0.19,0.97,0.38
		c0.16,0.11,0.3,0.41,0.28,0.6c-0.04,0.32-0.37,0.24-0.58,0.2c-2.47-0.51-4.79,0.08-7.08,0.96c-0.19,0.07-0.44,0.34-0.59,0
		c-0.12-0.26,0.12-0.45,0.3-0.59C487.83,281.76,488.79,281.39,489.79,281.1z"/>
	<path style="fill-rule:evenodd;clip-rule:evenodd;fill:#A0649D;" d="M491.47,303.64c0.52-2.61-0.82-5.3,0.34-7.89
		c0.09-0.2,0.15-0.55-0.14-0.76c0.17-0.07,0.34-0.15,0.51-0.22c0.49-0.14,0.97-0.15,1.46,0.01l0.02,0.02
		c0.11,0.16,0.13,0.31-0.02,0.45l-0.02,0.02c-1.24,1.23-1.46,2.75-1.25,4.39c0.03,0.24,0.01,0.47-0.15,0.67c0,0.07,0,0.13,0.01,0.2
		c0.91,0.91,0.95,1.26,0.22,1.94c-0.09-0.02-0.18-0.03-0.27-0.05c-0.08-0.05-0.15-0.04-0.22,0.02c-0.34,0.36,0.26,0.29,0.24,0.51
		c0.28,0.45,0.64,0.92-0.21,1.17l-0.03-0.02c-0.09-0.04-0.17-0.11-0.23-0.19l-0.02-0.02C491.63,303.83,491.47,303.81,491.47,303.64z
		"/>
	<path style="fill-rule:evenodd;clip-rule:evenodd;fill:#575C5B;" d="M476.33,313.55c-0.32-0.55-0.36-0.95,0.33-1.34
		c0.45-0.26,0.74-0.8,1.08-1.24c0.39-0.49,0.72-1.28,1.37-1.14c0.59,0.13,0.43,1,0.6,1.55C479.16,313.01,477.9,313.83,476.33,313.55
		z"/>
	<path style="fill-rule:evenodd;clip-rule:evenodd;fill:#7E8484;" d="M471.59,312.61c-0.24-0.41-0.48-0.81-0.72-1.22
		c0.56-0.98,1.56-0.86,2.46-0.95c0.22-0.02,0.45,0.13,0.67-0.02c0.42,0.07,0.95-0.16,1.17,0.45c0.07,0.07,0.13,0.16,0.18,0.25
		c0.03,0.15,0.06,0.3,0.08,0.45c0.03,0.39,0.03,0.77-0.28,1.08c-0.08-0.04-0.15-0.07-0.23-0.11c-0.13-0.13-0.35-0.07-0.48-0.22
		C473.47,312.23,472.52,312.27,471.59,312.61z"/>
	<path style="fill-rule:evenodd;clip-rule:evenodd;fill:#BA82B0;" d="M483.33,313.02c0.26,1.38-0.23,2.03-1.47,1.96
		c-0.32-0.64-0.63-1.28-0.95-1.92c-0.13-0.13-0.08-0.35-0.2-0.48c-0.04-0.07-0.06-0.14-0.05-0.22c0.46-1.04,0.84-1.18,1.96-0.76l0,0
		c0.06,0.08,0.12,0.16,0.17,0.25C482.97,312.23,483.15,312.62,483.33,313.02z"/>
	<path style="fill-rule:evenodd;clip-rule:evenodd;fill:#D39837;" d="M469.9,314.29c0.99,1.91,1.84,3.89,2.34,5.99
		c-1.94-1.13-2.19-3.31-3.12-5.06C468.94,314.89,469.5,314.5,469.9,314.29z"/>
	<path style="fill-rule:evenodd;clip-rule:evenodd;fill:#8B548D;" d="M492.22,300.33c-0.63-2.28-0.06-4.34,1.4-5.06
		c0.07,0.53,0.67,1.31-0.57,1.23c-0.08,0-0.16,0.12-0.24,0.19c0.07,0.07,0.13,0.18,0.22,0.22c0.27,0.12,0.65-0.1,0.83,0.29
		c-0.41,0.29-0.75,0.62-0.7,1.18c-0.17,0.08-0.46,0.11-0.5,0.23c-0.11,0.32,0.2,0.28,0.35,0.24c1.09-0.28,0.95,0.78,1.29,1.25
		c0.21,0.29-0.09,0.4-0.46,0.33C493.32,300.34,492.76,300.36,492.22,300.33z"/>
	<path style="fill-rule:evenodd;clip-rule:evenodd;fill:#5A5F5F;" d="M478.04,316.91c0.16-1.06,0.99-1.15,1.82-1.34
		c0.44-0.1,0.98,0.05,1.33-0.38c0.28,0.26,0.44,0.58,0.44,0.97c-0.91,0.73-1.96,1.04-3.12,0.98
		C478.35,317.06,478.2,316.99,478.04,316.91z"/>
	<path style="fill-rule:evenodd;clip-rule:evenodd;fill:#C49271;" d="M477.5,306.64c-0.02,0.11-0.03,0.54-0.21,0.87
		c-0.29,0.54-0.95,0.95-1.42,0.79c-0.38-0.12,0.16-0.72,0.27-1.11c0.2-0.73,0.72-1.46,0-2.2c-0.06-0.06-0.04-0.2-0.06-0.3
		c0.15-0.01,0.32-0.08,0.45-0.03C477.33,304.95,477.57,305.57,477.5,306.64z"/>
	<path style="fill-rule:evenodd;clip-rule:evenodd;fill:#7D4683;" d="M492.46,302.48c0.58-0.72-0.07-1.3-0.23-1.94
		c0.57,0.13,1.33-0.18,1.59,0.67c0.18,0.61,0.87,1.26,0.22,1.83C493.38,303.63,492.96,302.76,492.46,302.48z"/>
	<path style="fill-rule:evenodd;clip-rule:evenodd;fill:#424140;" d="M465.33,310.85c2.98,0.2,5.68-0.88,8.39-1.88
		c0.15,0.17,0.3,0.34,0.45,0.51c-0.2,0.16-0.38,0.33-0.63,0.41c-0.15,0.03-0.29,0.07-0.44,0.11c-0.15,0.05-0.29,0.1-0.44,0.16
		c-0.1,0.04-0.2,0.08-0.3,0.11c-0.86,0.43-1.82,0.53-2.72,0.86c-0.96,0.13-1.88,0.71-2.89,0.23
		C466.39,310.87,465.67,311.4,465.33,310.85z"/>
	<path style="fill-rule:evenodd;clip-rule:evenodd;fill:#794281;" d="M486.71,304.87c-0.2-0.67-0.66-1.47,0-1.96
		c0.63-0.48,1.32,0.08,1.88,0.52c-0.39,0.65-0.54,1.45-1.14,1.99C487.02,305.49,486.79,305.28,486.71,304.87z"/>
	<path style="fill-rule:evenodd;clip-rule:evenodd;fill:#804288;" d="M480.17,310.88c-0.52-0.95-0.24-1.58,0.77-1.91
		c0.04-0.1,0.11-0.18,0.22-0.21c0.48,0.46,0.65,1.09,0.9,1.67C481.58,311.27,481.05,311.39,480.17,310.88z"/>
	<path style="fill-rule:evenodd;clip-rule:evenodd;fill:#7C4982;" d="M489.3,301.27c-0.62,0.43-0.43,1.07-0.46,1.66
		c-0.04,0-0.08,0.01-0.12,0c-0.79-0.31-2-0.57-1.59-1.61C487.49,300.42,488.55,300.9,489.3,301.27z"/>
	<path style="fill-rule:evenodd;clip-rule:evenodd;fill:#794082;" d="M485.94,307.53c-1.14-1-1.03-2.18,0.25-2.65
		c0.36,0.18,0.81,0.25,0.92,0.74C487,306.44,486.68,307.11,485.94,307.53z"/>
	<path style="fill-rule:evenodd;clip-rule:evenodd;fill:#743F7E;" d="M484.27,309.2c-0.28-0.45-1.1-0.83-0.78-1.3
		c0.26-0.39-0.18-1.07,0.51-1.16c0.78-0.1,1.09,0.51,1.46,1.02C485.34,308.47,484.86,308.88,484.27,309.2z"/>
	<path style="fill-rule:evenodd;clip-rule:evenodd;fill:#393938;" d="M473.99,310.42c-1.04,0.32-2.09,0.64-3.13,0.97
		c-1.29,0.35-2.29,1.2-3.38,1.89c-0.15-0.09-0.31-0.19-0.47-0.28c0.84-1,1.97-1.56,3.12-2.11c0.96-0.29,1.9-0.6,2.86-0.88
		c0.19-0.03,0.36,0.01,0.49,0.17C473.65,310.26,473.82,310.34,473.99,310.42z"/>
	<path style="fill-rule:evenodd;clip-rule:evenodd;fill:#757A7B;" d="M471.56,321.92c-0.7-0.31-1.24-0.83-1.67-1.46
		c0.23-0.31,0.46-0.62,0.69-0.94c0.49,0.46,0.99,0.93,1.48,1.39C472,321.31,471.88,321.67,471.56,321.92z"/>
	<path style="fill-rule:evenodd;clip-rule:evenodd;fill:#6B7070;" d="M476.33,313.55c1.59-0.01,2.51-1.04,3.37-2.17
		c0.08,0.24,0.15,0.48,0.23,0.72c-0.93,1.06-2.15,1.72-3.34,2.41C476.31,314.24,476.35,313.89,476.33,313.55z"/>
	<path style="fill-rule:evenodd;clip-rule:evenodd;fill:#73427C;" d="M482.56,310.19c-0.4-0.65-1.18-1.52-0.34-2.02
		c0.92-0.55,1.08,0.76,1.55,1.28C483.54,309.98,483.05,310.1,482.56,310.19z"/>
	<path style="fill-rule:evenodd;clip-rule:evenodd;fill:#9D649C;" d="M487.41,305.3c0.39-0.62,0.27-1.57,1.18-1.87
		c0.31,0.07,0.63,0.13,0.94,0.2c-0.84,0.63-1.22,1.43-0.96,2.49C487.94,306.19,487.54,305.94,487.41,305.3z"/>
	<path style="fill-rule:evenodd;clip-rule:evenodd;fill:#8C598E;" d="M486.21,312.56c0.87-0.23,1.46-0.71,1.45-1.69
		c0.58,1.9,0.32,2.62-0.98,2.65C486.49,313.21,486.16,312.98,486.21,312.56z"/>
	<path style="fill-rule:evenodd;clip-rule:evenodd;fill:#A36DA0;" d="M480.17,310.88c0.7,0.15,1.34,0.03,1.89-0.46
		c0.18,0.39,0.37,0.77,0.55,1.16c-0.78-0.07-1.44,0.16-1.96,0.76C480.35,311.91,480.21,311.41,480.17,310.88z"/>
	<path style="fill-rule:evenodd;clip-rule:evenodd;fill:#B279AB;" d="M487.42,310.24c0.87-0.44,1.56-1.03,1.7-2.07
		c0.15,0.26,0.3,0.52,0.45,0.78c0.17,1.44-0.05,1.79-1.22,1.95l0-0.01c-0.07-0.07-0.12-0.16-0.17-0.25
		C488.04,310.3,487.8,310.14,487.42,310.24z"/>
	<path style="fill-rule:evenodd;clip-rule:evenodd;fill:#7E5182;" d="M491.72,304.65c1.12,0.48,0.43,1.52,0.68,2.27
		c0.02,0.07-0.19,0.32-0.28,0.31c-0.5-0.04-0.74-0.4-0.89-0.83C491.06,305.73,491.24,305.15,491.72,304.65z"/>
	<path style="fill-rule:evenodd;clip-rule:evenodd;fill:#793C82;" d="M493.16,298.39c-0.19-0.26-0.64-0.41-0.37-0.86
		c0.26-0.42,0.68-0.31,1.06-0.32c0.63,0.08,0.77,0.44,0.54,0.99C494.09,298.93,493.62,298.61,493.16,298.39z"/>
	<path style="fill-rule:evenodd;clip-rule:evenodd;fill:#7F4F83;" d="M492,304.13c0.46-0.32,0.25-0.76,0.21-1.17
		c0.14,0.07,0.29,0.13,0.42,0.21c0.65,0.39,0.86,0.99,0.75,1.71c-0.02,0.15-0.25,0.42-0.31,0.41
		C492.51,305.11,492.29,304.58,492,304.13z"/>
	<path style="fill-rule:evenodd;clip-rule:evenodd;fill:#966395;" d="M488.35,310.9c1.02-0.27,1-1.18,1.22-1.95
		c0.99,0.72-0.09,1.61,0.21,2.39C489.11,311.84,488.65,311.64,488.35,310.9z"/>
	<path style="fill-rule:evenodd;clip-rule:evenodd;fill:#A16A9E;" d="M489.34,296.94c-1.11,0.41-0.03,1.15-0.27,1.7
		c-0.16-0.02-0.32-0.04-0.48-0.07c-0.52-0.2-0.94-0.51-1.1-1.08c-0.01-0.11,0.09-0.19,0.12-0.29c-0.06-0.01-0.11,0.09-0.19,0.02
		c-0.15-0.15-0.21-0.3-0.02-0.46l-0.02-0.05C488.06,296.68,488.79,296.04,489.34,296.94z"/>
	<path style="fill-rule:evenodd;clip-rule:evenodd;fill:#373636;" d="M487.41,305.3c0.39,0.27,0.77,0.54,1.16,0.81
		c0.07,0.42,1.24,0.61,0.26,1.25c-0.05-0.06-0.11-0.1-0.19-0.11c-0.12-0.05-0.21-0.13-0.28-0.23l0-0.01
		c-0.36-0.09-0.64-0.31-0.89-0.58c-0.28-0.24-0.4-0.58-0.56-0.91c-0.25-0.22-0.49-0.43-0.74-0.65c0.17,0,0.35-0.01,0.52-0.01
		C486.94,305.02,487.18,305.16,487.41,305.3z"/>
	<path style="fill-rule:evenodd;clip-rule:evenodd;fill:#7B4B80;" d="M488.6,300.53c-0.59-0.05-1.05-0.28-1.27-0.86
		c-0.11-0.28,0.07-0.43,0.29-0.55c0.63-0.34,1.2-0.21,1.73,0.22C489.05,299.7,488.83,300.12,488.6,300.53z"/>
	<path style="fill-rule:evenodd;clip-rule:evenodd;fill:#9A6599;" d="M489.79,308.01c0.91-0.34,0.54-1.07,0.5-1.69
		c0.24,0.24,0.49,0.47,0.73,0.71c0.03,0.33,0.34,0.6,0.22,0.96l0,0.01c-0.33,0.35-0.15,1.11-0.88,1.15
		C490.17,308.78,489.98,308.4,489.79,308.01z"/>
	<path style="fill-rule:evenodd;clip-rule:evenodd;fill:#935894;" d="M486.93,305.54c0.24,0.24,0.48,0.48,0.72,0.71
		c0.17,0.99-0.69,1.25-1.22,1.75c-0.16-0.16-0.33-0.31-0.49-0.47C486.27,306.87,486.6,306.2,486.93,305.54z"/>
	<path style="fill-rule:evenodd;clip-rule:evenodd;fill:#AA73A5;" d="M486.43,308c0.03-0.85,1.05-1,1.22-1.75
		c0.24,0.26,0.48,0.51,0.72,0.77c-0.78,0.22-1.11,0.91-1.54,1.5C486.7,308.34,486.57,308.17,486.43,308z"/>
	<path style="fill-rule:evenodd;clip-rule:evenodd;fill:#966395;" d="M488.6,300.53c-0.33-0.76,0.02-1.09,0.74-1.2
		c0.26,0.04,0.54,0.16,0.68-0.2c-0.09,0.57-0.77,0.98-0.46,1.66C489.24,300.71,488.92,300.62,488.6,300.53z"/>
	<path style="fill-rule:evenodd;clip-rule:evenodd;fill:#797B7B;" d="M477.12,317.59c-0.02,0.55-0.05,1.11-0.07,1.66
		c-0.15-0.15-0.3-0.3-0.45-0.45c-0.07-0.63-0.16-1.26-0.21-1.89c-0.02-0.25,0.04-0.52,0.07-0.77c0.33,0.09,0.35,0.41,0.45,0.65
		C477,317.04,477.05,317.32,477.12,317.59z"/>
	<path style="fill-rule:evenodd;clip-rule:evenodd;fill:#805283;" d="M487.64,297.2c0.01,0.67,0.81,0.79,0.96,1.37
		c-0.75,0.13-1.33-0.01-1.56-0.85c-0.12-0.43-0.35-0.87,0.38-0.96C487.49,296.91,487.56,297.05,487.64,297.2L487.64,297.2z"/>
	<path style="fill-rule:evenodd;clip-rule:evenodd;fill:#434143;" d="M489.34,296.94c-0.62-0.37-1.3-0.15-1.95-0.23
		c0.24-0.15,0.47-0.31,0.71-0.46c0.44,0.01,0.88,0,1.31,0.05c0.42,0.06,1.08,0.15,0.96,0.64
		C490.26,297.41,489.71,296.82,489.34,296.94z"/>
	<path style="fill-rule:evenodd;clip-rule:evenodd;fill:#9B6699;" d="M491.72,304.65c-0.01,0.63-0.18,1.21-0.49,1.75
		c-0.23-0.19-0.47-0.38-0.7-0.58c0.74-0.55,0.22-1.52,0.71-2.15c0.09,0.05,0.12,0.09,0.09,0.15c-0.03,0.05-0.05,0.08-0.08,0.08
		C491.18,304.29,491.58,304.39,491.72,304.65z"/>
	<path style="fill-rule:evenodd;clip-rule:evenodd;fill:#AA885B;" d="M489.36,294.54c0.35,0.12,1.04-0.12,0.93,0.16
		c-0.2,0.52-0.94,0.45-1.47,0.53c-0.28,0.04-0.87,0.09-0.81-0.21C488.17,294.24,488.94,294.78,489.36,294.54z"/>
	<path style="fill-rule:evenodd;clip-rule:evenodd;fill:#845587;" d="M490.35,309.16c0.36-0.33,0.35-0.95,0.88-1.15
		c0.08,0.34,0.21,0.67,0.22,1.01c0.02,0.38-0.25,0.72-0.58,0.79C490.48,309.88,490.47,309.43,490.35,309.16z"/>
	<path style="fill-rule:evenodd;clip-rule:evenodd;fill:#8E5590;" d="M484.27,309.2c0.21-0.64,0.77-0.98,1.2-1.44
		c0.17,0.24,0.33,0.47,0.5,0.71c-0.4,0.48-0.64,1.21-1.5,0.98C484.4,309.37,484.33,309.28,484.27,309.2z"/>
	<path style="fill-rule:evenodd;clip-rule:evenodd;fill:#915F92;" d="M482.56,310.19c0.23-0.54,0.81-0.48,1.21-0.74
		c0.17,0.31,0.35,0.63,0.52,0.94c-0.48,0.01-0.98-0.03-1.24,0.51C482.88,310.66,482.72,310.43,482.56,310.19z"/>
	<path style="fill-rule:evenodd;clip-rule:evenodd;fill:#825884;" d="M484.52,314c0.72,0.09,0.96-0.42,1.19-0.95
		c0.39,0.5,0.46,1.13,0,1.47C485.29,314.84,484.72,314.62,484.52,314z"/>
	<path style="fill-rule:evenodd;clip-rule:evenodd;fill:#A46FA0;" d="M484.46,309.45c0.5-0.33,1-0.66,1.5-0.98
		c0.08,0.16,0.16,0.33,0.23,0.49c-0.61,0.21-0.88,0.75-1.23,1.22C484.8,309.94,484.63,309.69,484.46,309.45z"/>
	<path style="fill-rule:evenodd;clip-rule:evenodd;fill:#91668F;" d="M483.12,315.9c0.45-0.47,0.77-0.99,0.69-1.67
		c0.39,0.54,0.39,1.12,0.06,1.66C483.69,316.18,483.38,316.28,483.12,315.9z"/>
	<path style="fill-rule:evenodd;clip-rule:evenodd;fill:#A38AA1;" d="M481.16,308.75c-0.07,0.07-0.14,0.14-0.22,0.21
		c-0.24-0.23-0.75-0.02-0.83-0.49c-0.01-0.05,0.15-0.16,0.25-0.19C480.79,308.16,481.04,308.34,481.16,308.75z"/>
	<path style="fill-rule:evenodd;clip-rule:evenodd;fill:#707374;" d="M475.15,312.64c0.09-0.36,0.19-0.72,0.28-1.08
		c0.27,0.42,0.31,0.85,0.08,1.3C475.39,312.79,475.27,312.72,475.15,312.64z"/>
	<path style="fill-rule:evenodd;clip-rule:evenodd;fill:#DCBB36;" d="M474.91,319.52c0,0.08,0.01,0.15,0.02,0.23
		c-0.55,0.19-1.1,0.38-1.65,0.57c0.39-0.27,0.77-0.53,1.16-0.8C474.6,319.52,474.75,319.52,474.91,319.52z"/>
	<path style="fill-rule:evenodd;clip-rule:evenodd;fill:#707977;" d="M493.69,280.86c-0.75,0-1.51,0-2.26,0
		C492.19,280.55,492.94,280.53,493.69,280.86z"/>
	<path style="fill-rule:evenodd;clip-rule:evenodd;fill:#98805F;" d="M494.35,296.02c0.32-0.02,0.48,0.09,0.48,0.3
		c0,0.1-0.2,0.31-0.25,0.29c-0.16-0.06-0.31-0.18-0.41-0.31C494.14,296.27,494.3,296.09,494.35,296.02z"/>
	<path style="fill-rule:evenodd;clip-rule:evenodd;fill:#845587;" d="M491.24,307.99c-0.15-0.3-0.54-0.55-0.22-0.96
		C491.42,307.27,491.68,307.55,491.24,307.99z"/>
	<path style="fill-rule:evenodd;clip-rule:evenodd;fill:#CBC2BA;" d="M473.48,310.18c-0.16,0-0.32,0-0.48,0
		c-0.14-0.16-0.15-0.32,0.04-0.45c0.14-0.02,0.29-0.04,0.43-0.07c0.12,0.15,0.37,0.06,0.47,0.25
		C473.78,310,473.63,310.09,473.48,310.18z"/>
	<path style="fill-rule:evenodd;clip-rule:evenodd;fill:#8B548D;" d="M493.64,294.79c-0.49,0-0.97-0.01-1.46-0.01
		C492.67,294.49,493.15,294.43,493.64,294.79z"/>
	<path style="fill-rule:evenodd;clip-rule:evenodd;fill:#656564;" d="M493.8,294.11c-0.13-0.1-0.25-0.16-0.27-0.23
		c-0.01-0.06,0.11-0.22,0.17-0.22c0.08,0,0.2,0.09,0.24,0.17C493.96,293.89,493.86,293.99,493.8,294.11z"/>
	<path style="fill-rule:evenodd;clip-rule:evenodd;fill:#F2EEEB;" d="M473.93,309.91c-0.16-0.08-0.31-0.17-0.47-0.25
		c0.21-0.16,0.43-0.31,0.71-0.18C474.1,309.62,474.02,309.77,473.93,309.91z"/>
	<path style="fill-rule:evenodd;clip-rule:evenodd;fill:#252524;" d="M490.98,280.82c-0.15,0.03-0.29,0.06-0.44,0.1
		c-0.16-0.08-0.31-0.16-0.47-0.24c0.22-0.02,0.43-0.03,0.65-0.05C490.81,280.69,490.9,280.75,490.98,280.82z"/>
	<path style="fill-rule:evenodd;clip-rule:evenodd;fill:#915F92;" d="M483.05,310.9c0.09,0.15,0.17,0.3,0.26,0.45
		C483.23,311.21,483.14,311.05,483.05,310.9z"/>
	<path style="fill-rule:evenodd;clip-rule:evenodd;fill:#A46FA0;" d="M486.41,309.44c-0.07-0.16-0.14-0.31-0.21-0.47
		C486.27,309.12,486.34,309.28,486.41,309.44z"/>
	<path style="fill-rule:evenodd;clip-rule:evenodd;fill:#D5983B;" d="M492.24,293.55c-0.02-0.06-0.03-0.12-0.01-0.18
		c0.13-0.15,0.28-0.16,0.44-0.03l0.05,0.07C492.56,293.45,492.4,293.5,492.24,293.55z"/>
	<path style="fill-rule:evenodd;clip-rule:evenodd;fill:#707374;" d="M474.44,312.32c0.16,0.07,0.32,0.14,0.48,0.22
		C474.76,312.46,474.6,312.39,474.44,312.32z"/>
	<path style="fill-rule:evenodd;clip-rule:evenodd;fill:#8B548D;" d="M493.63,295.25c0.01-0.15,0.01-0.3,0.02-0.45
		C493.88,294.96,493.86,295.11,493.63,295.25z"/>
	<path style="fill-rule:evenodd;clip-rule:evenodd;fill:#A36DA0;" d="M480.71,312.57c0.07,0.16,0.13,0.32,0.2,0.48
		C480.84,312.89,480.77,312.73,480.71,312.57z"/>
	<path style="fill-rule:evenodd;clip-rule:evenodd;fill:#7F4F83;" d="M491.24,303.9c-0.01-0.07-0.01-0.15-0.01-0.22
		c0.08-0.02,0.15-0.03,0.23-0.04c0.08,0.09,0.17,0.17,0.25,0.26C491.56,303.9,491.4,303.9,491.24,303.9z"/>
	<path style="fill-rule:evenodd;clip-rule:evenodd;fill:#3A3F3C;" d="M494.12,280.4c0.08,0.07,0.17,0.15,0.25,0.22
		C494.28,280.55,494.2,280.48,494.12,280.4z"/>
	<path style="fill-rule:evenodd;clip-rule:evenodd;fill:#7F4F83;" d="M491.74,303.92c0.08,0.06,0.15,0.13,0.23,0.19
		C491.89,304.05,491.82,303.98,491.74,303.92z"/>
	<path style="fill-rule:evenodd;clip-rule:evenodd;fill:#A46FA0;" d="M484.97,310.18c0.08,0.1,0.15,0.19,0.23,0.29
		C485.13,310.37,485.05,310.28,484.97,310.18z"/>
	<path style="fill-rule:evenodd;clip-rule:evenodd;fill:#915F92;" d="M484.48,310.64c-0.06-0.08-0.12-0.16-0.19-0.24
		C484.35,310.48,484.42,310.56,484.48,310.64z"/>
	<path style="fill-rule:evenodd;clip-rule:evenodd;fill:#7D4683;" d="M491.97,302.45c0.07-0.01,0.15-0.01,0.22-0.02
		c0,0-0.11,0.03-0.11,0.03L491.97,302.45z"/>
	<path style="fill-rule:evenodd;clip-rule:evenodd;fill:#966395;" d="M489.58,300.8c0.07,0.08,0.15,0.15,0.22,0.23
		C489.72,300.96,489.65,300.88,489.58,300.8z"/>
	<path style="fill-rule:evenodd;clip-rule:evenodd;fill:#707374;" d="M475.34,311.12c-0.06-0.08-0.12-0.17-0.18-0.25
		C475.22,310.95,475.28,311.04,475.34,311.12z"/>
	<path style="fill-rule:evenodd;clip-rule:evenodd;fill:#A36DA0;" d="M482.79,311.84c-0.06-0.08-0.12-0.17-0.17-0.25
		C482.67,311.67,482.73,311.75,482.79,311.84z"/>
	<path style="fill-rule:evenodd;clip-rule:evenodd;fill:#E3C146;" d="M492.42,262.88c0.56,3.57,0.83,7.15,0.73,10.76
		c-1.12,0-2.23,0-3.35,0c0.12-0.61,0.64-0.47,1.03-0.55c0.41-0.08,0.89,0.09,1.19-0.37c0.14-1.74-0.4-3.4-0.5-5.12
		c-0.09-1.55-0.14-3.11-0.32-4.66c0.22-0.69,0.35-1.94,0.82-1.88C492.73,261.17,492.06,262.29,492.42,262.88z"/>
	<path style="fill-rule:evenodd;clip-rule:evenodd;fill:#E7C74E;" d="M487.15,265.04c-0.05-0.05-0.06-0.11-0.02-0.17
		c0.07-2.25-0.38-4.5-0.11-6.76c0.11-0.9,0.05-1.83,0.56-2.65c0.53-0.09,0.54,0.33,0.64,0.65c0.41,1.33,0.38,2.71,0.17,4.03
		c-0.38,2.37,0.13,4.68,0.23,7.01c0.06,1.33-0.08,2.73,0.56,3.98c0.27,0.67-0.32,1.26-0.22,1.91c0.01,0.28,0.27,0.41,0.37,0.64
		c-0.33,0.06-0.65,0.13-0.97,0.19c-0.42-0.22-0.47-0.61-0.48-1.02c-0.02-2.47-0.31-4.92-0.6-7.37
		C487.27,265.32,487.26,265.17,487.15,265.04z"/>
	<path style="fill-rule:evenodd;clip-rule:evenodd;fill:#EDE02F;" d="M489.34,273.68c-0.26-0.04-0.55,0.03-0.73-0.24
		c0.47-0.79,0.71-1.73,1.83-2.02c1.15-0.29,1.59-0.1,1.77,1.11c0.04,0.24,0.09,0.47,0.23,0.67c-0.8,0.61-1.83-0.11-2.63,0.45
		C489.64,273.66,489.49,273.67,489.34,273.68z"/>
	<path style="fill-rule:evenodd;clip-rule:evenodd;fill:#E0B44E;" d="M487.15,265.04c1.02,2.02,0.65,4.25,0.95,6.37
		c0.11,0.81-0.06,1.67,0.26,2.46c-0.1,0.08-0.2,0.17-0.29,0.25c-0.25-0.09-0.37-0.26-0.38-0.53
		C487.51,270.74,487.33,267.89,487.15,265.04z"/>
	<path style="fill-rule:evenodd;clip-rule:evenodd;fill:#E0B44E;" d="M487.64,255.44c-0.16,2.01-0.39,4.02-0.46,6.03
		c-0.04,1.13,0.47,2.27-0.06,3.4c-0.47-2.47-0.41-4.99-0.62-7.49c-0.14-1.61-0.5-3.14-1.28-4.56c-0.36-1.08-1.25-1.79-1.92-2.64
		c0.36-0.41,0.85-0.33,1.32-0.33c1.02,0.15,1.57,0.88,2.07,1.67c0.33,0.81,0.71,1.6,0.95,2.45
		C487.78,254.44,488.07,254.95,487.64,255.44z"/>
	<path style="fill-rule:evenodd;clip-rule:evenodd;fill:#D7BBA9;" d="M470.13,311.13c-1.04,0.62-2.07,1.25-3.11,1.87
		c-0.16-0.4-0.32-0.8-0.48-1.21c0.07-0.15,0.14-0.29,0.21-0.44c0.96-0.16,1.91-0.33,2.87-0.49
		C469.9,310.74,470.15,310.68,470.13,311.13z"/>
	<path style="fill-rule:evenodd;clip-rule:evenodd;fill:#C19577;" d="M467.44,307.6c0.15-0.31-0.29-0.94,0.31-0.93
		c0.53,0,0.48,0.63,0.47,1.05c-0.01,0.41,0.15,1.1-0.38,1.07C467.2,308.76,467.57,308.02,467.44,307.6z"/>
	<path style="fill-rule:evenodd;clip-rule:evenodd;fill:#E3BC51;" d="M492.42,262.88c-0.46-0.49-0.04-1.14-0.31-1.66
		c-0.21,0.55-0.42,1.11-0.63,1.66c-0.12,0.08-0.23,0.07-0.34-0.03c-0.7-2.05-0.79-4.21-1.2-6.31c-0.32-1.67-0.71-3.36-1.42-4.93
		c-0.42-0.92-0.89-1.79-1.81-2.3c-0.64-0.28-1.27-0.6-1.92-0.89c-0.25-0.17-0.44-0.38-0.56-0.66c0.14-0.87,0.85-1.12,1.53-1.41
		c3.4,2.68,5.42,6.18,6.14,10.44c0.1,0.59,0.2,1.18,0.3,1.77c-0.03,0.67-0.07,1.34,0.2,1.99
		C492.41,261.32,492.42,262.1,492.42,262.88z"/>
	<path style="fill-rule:evenodd;clip-rule:evenodd;fill:#4E82C1;" d="M478.07,244.88c0.07-0.24,0.15-0.48,0.22-0.72
		c0.17-0.56,0.27-0.88-0.57-1.15c-0.78-0.25-1.69-0.85-1.82-1.93l0.02-0.03c0.06-0.08,0.13-0.16,0.21-0.22l0.02-0.02
		c0.09-0.08,0.19-0.12,0.3-0.13c0.58-0.13,0.98,0.2,1.38,0.55c0.57,0.51,1.18,1.03,1.94,1.1c1.95,0.19,3.22,1.42,4.47,2.71
		c0.22,0.22,0.38,0.53,0.76,0.47c0.1,0.11,0.21,0.22,0.31,0.33c0.04,0.11,0.05,0.22,0.04,0.34c-0.74,0.9-1.31,1.97-2.53,2.35
		c-0.45-1.54-1.6-2.36-3.03-2.9C479.21,245.4,478.56,245.32,478.07,244.88z"/>
	<path style="fill-rule:evenodd;clip-rule:evenodd;fill:#3261A3;" d="M484.99,245.5c0,0.36-0.08,0.58-0.45,0.23
		c-0.45-0.44-0.9-0.89-1.35-1.33c-0.79-0.78-1.64-1.44-2.81-1.59c-1.17-0.14-2.2-0.65-2.97-1.57c-0.3-0.36-0.72-0.26-1.05-0.44
		c-0.06-0.05-0.08-0.11-0.06-0.16s0.04-0.08,0.06-0.08l0,0.01c0.08-0.08,0.17-0.16,0.24-0.25l-0.01,0.01
		c0.09-0.08,0.17-0.17,0.25-0.26c0.32-0.62,0.8-0.81,1.44-0.52c1.2,0.97,2.4,1.95,3.61,2.92c0.72,0.65,1.45,1.29,2.17,1.94
		C484.37,244.77,484.68,245.14,484.99,245.5z"/>
	<path style="fill-rule:evenodd;clip-rule:evenodd;fill:#3C3C39;" d="M482.84,248.52c0.81-0.82,1.63-1.63,2.44-2.45l0.08-0.07
		l0.1,0.05c0.11,0.1,0.21,0.21,0.32,0.31c-0.49,0.47-0.98,0.94-1.47,1.41c-0.01,0.05-0.02,0.11-0.03,0.16
		c-0.05,0.1-0.1,0.2-0.17,0.29c-0.32,0.27-0.47,0.79-1.01,0.78c-0.08-0.09-0.17-0.18-0.26-0.27c-0.06-0.05-0.08-0.09-0.06-0.14
		C482.8,248.54,482.82,248.52,482.84,248.52z"/>
	<path style="fill-rule:evenodd;clip-rule:evenodd;fill:#3261A3;" d="M485.46,246.04c-0.06,0.02-0.11,0.03-0.17,0.03
		c-0.02-0.08-0.01-0.16,0.02-0.23C485.36,245.91,485.41,245.97,485.46,246.04z"/>
	<path style="fill-rule:evenodd;clip-rule:evenodd;fill:#3363A6;" d="M482.84,248.52c0.01,0.07,0.01,0.14,0,0.21
		c-1.56-0.83-3.13-1.62-4.67-2.49c-0.59-0.33-0.38-0.87-0.11-1.35c1.78,0.24,3.36,0.85,4.5,2.33
		C482.87,247.61,483.02,248.03,482.84,248.52z"/>
	<path style="fill-rule:evenodd;clip-rule:evenodd;fill:#5184C0;" d="M475.89,241.07c0.89,0.53,1.3,1.6,2.36,1.98
		c0.48,0.17,0.35,0.72,0.03,1.1c0.13-0.92-0.14-1.17-1.03-0.72c-0.59,0.3-1.18,0.92-1.95,0.42c-1.24-0.82-0.23-1.56,0.1-2.33
		C475.56,241.38,475.73,241.23,475.89,241.07z"/>
	<path style="fill-rule:evenodd;clip-rule:evenodd;fill:#E7D748;" d="M483.09,248.99c0.32-0.33,0.63-0.67,0.95-1
		c0.07-0.07,0.15-0.14,0.23-0.21l0.03-0.02c0.29,0.02,0.45,0.17,0.46,0.46c-0.06,0.64-0.04,1.29,0,1.93c-0.48,0-0.97,0.01-1.45,0.01
		l0,0c-0.06-0.1-0.16-0.16-0.24-0.24c-0.07-0.07-0.13-0.15-0.2-0.22l-0.01-0.01c0.12-0.14,0.08-0.35,0.2-0.5
		C483.1,249.13,483.11,249.07,483.09,248.99z"/>
	<path style="fill-rule:evenodd;clip-rule:evenodd;fill:#4E4D48;" d="M483.06,249.2c-0.07,0.17-0.13,0.33-0.2,0.5
		C482.93,249.53,482.99,249.36,483.06,249.2z"/>
	<path style="fill-rule:evenodd;clip-rule:evenodd;fill:#966395;" d="M488.18,310.64c0.05,0.08,0.11,0.16,0.17,0.25
		C488.29,310.81,488.24,310.72,488.18,310.64z"/>
	<path style="fill-rule:evenodd;clip-rule:evenodd;fill:#4E82C1;" d="M476.84,240.06c-0.08,0.09-0.17,0.17-0.25,0.26
		C476.67,240.23,476.76,240.15,476.84,240.06z"/>
	<path style="fill-rule:evenodd;clip-rule:evenodd;fill:#4E82C1;" d="M476.6,240.31c-0.08,0.08-0.16,0.17-0.24,0.25
		C476.44,240.48,476.52,240.4,476.6,240.31z"/>
	<path style="fill-rule:evenodd;clip-rule:evenodd;fill:#5184C0;" d="M476.12,240.82c-0.07,0.07-0.14,0.15-0.21,0.22
		C475.98,240.97,476.05,240.89,476.12,240.82z"/>
	<path style="fill-rule:evenodd;clip-rule:evenodd;fill:#5184C0;" d="M476.36,240.56c0,0.08,0,0.16,0,0.24c-0.08,0-0.15,0-0.23,0
		C476.21,240.72,476.29,240.64,476.36,240.56z"/>
	<path style="fill-rule:evenodd;clip-rule:evenodd;fill:#E0B44E;" d="M483.07,249.93c0.08,0.08,0.16,0.16,0.24,0.24
		C483.23,250.09,483.15,250.01,483.07,249.93z"/>
	<path style="fill-rule:evenodd;clip-rule:evenodd;fill:#F1E592;" d="M492.21,292.9c-1.66,0.98-2.67,0.6-2.92-1.29
		c-0.27-2.02-1.38-4.07-0.05-6.14c0.14-0.22-0.1-0.68-0.15-1.03c-0.1-0.64,0.16-1.05,0.76-1.32c0.57-0.26,1.13-0.24,1.56,0.14
		c0.43,0.38,0.35,0.92,0.1,1.44c-0.65,1.37,0.58,2.43,0.68,3.72C492.29,289.92,492.67,291.39,492.21,292.9L492.21,292.9z"/>
	<path style="fill-rule:evenodd;clip-rule:evenodd;fill:#E5BE4B;" d="M492.67,293.34c-0.15,0.01-0.29,0.02-0.44,0.03
		c-0.01-0.16-0.01-0.32-0.02-0.47l0.01-0.01c0.71-0.27,0.75-0.94,0.68-1.49c-0.35-2.94-0.78-5.87-1.18-8.8
		c0.77-0.11,1.04,0.32,0.95,0.99c-0.39,2.87,0.33,5.65,0.66,8.46C493.41,292.67,493.05,292.99,492.67,293.34z"/>
	<path style="fill-rule:evenodd;clip-rule:evenodd;fill:#E5BE4B;" d="M491.26,282.61c0.07-0.02,0.14-0.02,0.21,0
		C491.4,282.61,491.33,282.61,491.26,282.61z"/>
	<path style="fill-rule:evenodd;clip-rule:evenodd;fill:#949D9B;" d="M491.27,278.31c0.11,0.91-0.52,1.82-1.54,1.75
		c-1.31-0.1-1.28-1.52-1.27-2.47c0.01-0.78,0.2-1.9,1.49-1.73C491.23,276.03,491.22,277.07,491.27,278.31z"/>
	<path style="fill-rule:evenodd;clip-rule:evenodd;fill:#DCBB36;" d="M474.92,316.64c0.31,0.14,0.47,0.38,0.47,0.72
		C475.08,317.22,474.92,316.98,474.92,316.64z"/>
	<path style="fill-rule:evenodd;clip-rule:evenodd;fill:#DCBB36;" d="M475.4,317.6c0.33,0.26,0.22,0.63,0.23,0.96
		C475.3,318.3,475.43,317.93,475.4,317.6z"/>
	<path style="fill-rule:evenodd;clip-rule:evenodd;fill:#DCBB36;" d="M475.16,319.28c-0.08,0.08-0.16,0.15-0.24,0.23
		C475,319.44,475.08,319.36,475.16,319.28z"/>
	<path style="fill-rule:evenodd;clip-rule:evenodd;fill:#AA73A5;" d="M488.37,307.02c0.09,0.08,0.18,0.16,0.28,0.23
		C488.56,307.18,488.47,307.1,488.37,307.02z"/>
	<path style="fill-rule:evenodd;clip-rule:evenodd;fill:#898481;" d="M470.13,311.13c-0.08-0.26-0.31-0.22-0.5-0.27
		c0.98-0.3,1.95-0.6,2.93-0.9c0.09,0.05,0.16,0.03,0.2-0.06c0.09-0.06,0.18-0.11,0.27-0.17c-0.01,0.15-0.02,0.3-0.04,0.45
		C472.04,310.5,471.08,310.81,470.13,311.13z"/>
	<path style="fill-rule:evenodd;clip-rule:evenodd;fill:#D2D2D2;" d="M472.76,309.9c-0.04,0.1-0.06,0.29-0.2,0.06
		C472.62,309.93,472.69,309.91,472.76,309.9z"/>
	<path style="fill-rule:evenodd;clip-rule:evenodd;fill:#805283;" d="M487.64,297.2c0.02-0.03,0.03-0.06,0.05-0.09
		C487.67,297.14,487.66,297.17,487.64,297.2L487.64,297.2z"/>
	<path style="fill-rule:evenodd;clip-rule:evenodd;fill:#ECDA3D;" d="M491.25,262.88c0.08,0,0.15,0,0.23,0
		c0.24,2.42,0.47,4.84,0.72,7.26c0.1,1.02,0.35,2.02,0.23,3.05c-0.14-0.14-0.33-0.25-0.4-0.41c-0.18-0.47,0.05-1.34-0.78-1.2
		c-0.74,0.12-1.73,0.13-1.94,1.2c-0.08,0.41-0.3,0.63-0.71,0.66c-0.1-0.7,0.13-1.33,0.47-1.92c2.04-0.99,2.07-1,1.43-3.38
		c-0.31-1.18-0.38-2.36-0.3-3.56C490.26,263.84,490.4,263.13,491.25,262.88z"/>
	<path style="fill-rule:evenodd;clip-rule:evenodd;fill:#EFDE76;" d="M491.25,262.88c-1.12,1.31-0.77,2.83-0.6,4.31
		c0.07,0.62,0.28,1.23,0.44,1.84c0.49,1.95,0.05,2.49-2.01,2.49c-1.13-1.71-0.62-3.71-0.94-5.57c-0.56-3.31,0.31-6.67-0.27-9.98
		c-0.03-0.18-0.15-0.35-0.23-0.53c-0.08-1.38-0.85-2.54-1.2-3.83c0.64-0.09,0.85,0.41,1.01,0.83c0.94,2.5,1.74,5.01,1.32,7.79
		c-0.23,1.52-0.2,3.1,0.08,4.65c0.18,1.03,0.08,2.07,0.08,3.11c0,0.73,0.06,1.43,0.29,2.11c0.17,0.3,0.32,0.68,0.79,0.48
		c0.39-0.17,0.44-0.54,0.4-0.91c-0.06-0.59-0.26-1.15-0.39-1.73c-0.07-0.39-0.05-0.79-0.2-1.17c-0.03-0.11-0.05-0.22-0.07-0.34
		c-0.04-0.46-0.04-0.91-0.01-1.36c0.01-0.11,0.03-0.21,0.06-0.32c0.09-0.29,0.19-0.57,0.24-0.87c0.02-0.09,0.05-0.18,0.09-0.27
		c0.05-0.13,0.12-0.25,0.18-0.37c0.04-0.08,0.08-0.16,0.12-0.24c0.06-0.12,0.11-0.24,0.16-0.36c0.02-0.08,0.05-0.17,0.07-0.25
		c0.03-0.17,0.02-0.35-0.02-0.52c-0.03-0.09-0.05-0.18-0.08-0.27c-0.06-0.23-0.14-0.46-0.22-0.68c-0.04-0.1-0.06-0.19-0.08-0.29
		c-0.05-0.26-0.14-0.51-0.21-0.77c-0.03-0.11-0.05-0.22-0.06-0.34c0.06-2.11-0.68-4.07-1.19-6.06c-0.04-0.1-0.08-0.21-0.12-0.31
		c-0.17-0.54-0.29-1.09-0.6-1.58c-0.05-0.08-0.09-0.17-0.12-0.26c-0.05-0.13-0.09-0.27-0.15-0.4c-0.05-0.08-0.09-0.16-0.14-0.24
		c-0.06-0.08-0.12-0.16-0.17-0.23c-0.06-0.08-0.12-0.16-0.18-0.25c-0.2-0.41-0.79-0.63-0.61-1.22c1.93,0.86,2.29,2.75,2.84,4.46
		c0.67,2.12,1.04,4.31,1.24,6.54C490.85,260.94,491.44,261.84,491.25,262.88z"/>
	<path style="fill-rule:evenodd;clip-rule:evenodd;fill:#F2E29E;" d="M486.69,248.96c0.21,0.55,0.94,0.75,0.96,1.43
		c-0.68,0.15-0.95-0.46-1.41-0.74c-0.12-0.08-0.26-0.23-0.39-0.08c-0.07,0.08,0.08,0.2,0.16,0.29c2.79,3.05,3.4,6.7,2.95,10.66
		c-0.24,2.15,0.37,4.28,0.23,6.43c-0.03,0.57-0.05,1.14,0.14,1.69c0.09,0.53,0.14,1.06-0.01,1.59c-0.05,0.13-0.13,0.24-0.24,0.32
		c-0.35-0.46-0.47-1.04-0.45-1.57c0.15-3.29-0.45-6.55-0.12-9.88c0.26-2.62-0.41-5.27-2.06-7.51c-0.47-0.59-0.88-1.25-1.68-1.45
		c-0.6-0.64-0.58-1.29,0-1.93C485.5,248.22,486.06,248.67,486.69,248.96z"/>
	<path style="fill-rule:evenodd;clip-rule:evenodd;fill:#E3BC51;" d="M484.28,247.79c-0.08,0.07-0.16,0.14-0.23,0.21
		C484.12,247.93,484.2,247.86,484.28,247.79z"/>
	<path style="fill-rule:evenodd;clip-rule:evenodd;fill:#F9F7D9;" d="M491.95,290.71c0,0.46,0.03,0.86-0.01,1.26
		c-0.06,0.6-0.49,0.88-1.04,0.98c-0.62,0.11-0.94-0.34-1.03-0.77c-0.32-1.51-0.56-3.04-0.78-4.56c-0.12-0.81,0.24-1.48,1.05-1.63
		c0.91-0.17,1.15,0.63,1.25,1.29C491.56,288.43,492.11,289.55,491.95,290.71z"/>
	<path style="fill-rule:evenodd;clip-rule:evenodd;fill:#F8F4C7;" d="M491.23,284.04c-0.07,0.5-0.35,0.84-0.89,0.89
		c-0.47,0.04-0.76-0.21-0.75-0.7c0.02-0.55,0.34-0.88,0.88-0.93C490.94,283.26,491.2,283.52,491.23,284.04z"/>
	<path style="fill-rule:evenodd;clip-rule:evenodd;fill:#F7EFC1;" d="M488.84,266.96c-0.4-3.47,0.21-6.97-0.27-10.42
		c-0.36-2.56-0.9-5.12-3.28-6.74c-0.3-0.21-0.38-0.51-0.13-0.83c0.23-0.29,0.52-0.19,0.74-0.01c0.59,0.46,1.16,0.96,1.73,1.44l0,0
		c0.07,0.09,0.16,0.16,0.23,0.24l0,0c0.15,0.13,0.09,0.35,0.24,0.48c0.01,0.08,0.01,0.16,0.02,0.23c0.37,0.5,0.4,1.15,0.7,1.68l0,0
		c0.61,2.15,1.3,4.29,1.32,6.55c0,0.18,0.01,0.37-0.01,0.55c-0.86-0.16-0.96-0.13-0.95,0.9c0.01,0.89-0.45,1.95,0.69,2.54
		c0.21,0.32,0.15,0.65,0.04,0.99c-0.01,0.11-0.02,0.22-0.02,0.34c-0.12,0.32-0.11,0.65,0,0.98c0.01,0.23,0,0.46,0.01,0.68
		c0.15,0.46,0.07,0.95,0.22,1.4c0.19,0.48,0.29,0.99,0.45,1.48c0.16,0.49,0.07,0.98-0.41,1.26c-0.49,0.28-0.82,0-1.09-0.4
		c0-0.56-0.01-1.12-0.01-1.68C488.77,268.11,489.15,267.49,488.84,266.96z"/>
	<path style="fill-rule:evenodd;clip-rule:evenodd;fill:#F2E29E;" d="M490.04,259.76c-0.03-2.3-0.83-4.47-1.2-6.71
		c0.9,2.15,1.51,4.36,1.44,6.72C490.2,259.87,490.12,259.88,490.04,259.76z"/>
	<path style="fill-rule:evenodd;clip-rule:evenodd;fill:#F6F0B1;" d="M490.04,259.76c0.08,0,0.16,0,0.24,0.01c0,0.08,0,0.15,0,0.23
		c0.21,0.2,0.01,0.53,0.23,0.73c0,0.08,0.01,0.16,0.01,0.23c0.21,0.2,0.01,0.53,0.23,0.73v0c0.18,0.32,0.17,0.64,0,0.96l0,0
		c-0.15,0.12-0.1,0.35-0.24,0.47l0,0.01c-0.14,0.13-0.1,0.35-0.24,0.47l0,0.01c-0.26,0.27,0.02,0.68-0.23,0.95
		c0,0.08,0,0.16-0.01,0.24c-0.08,0.11-0.16,0.11-0.23,0c0-0.4,0-0.8,0-1.2c0.26-1.11-0.01-2.25,0.24-3.36
		C490.04,260.08,490.04,259.92,490.04,259.76z"/>
	<path style="fill-rule:evenodd;clip-rule:evenodd;fill:#F6F0B1;" d="M489.09,270.32c0.38,0.11,0.7,0.6,1.15,0.15
		c0.36-0.36,0.28-0.76,0.14-1.19c-0.15-0.44-0.23-0.9-0.34-1.35c0.04-0.03,0.08-0.06,0.12-0.09c0.04,0.03,0.08,0.06,0.12,0.09
		c0.16,0.65,0.35,1.29,0.48,1.95c0.09,0.47-0.14,0.87-0.58,1.07c-0.46,0.22-0.85,0.1-1.1-0.37
		C489.08,270.48,489.08,270.4,489.09,270.32z"/>
	<path style="fill-rule:evenodd;clip-rule:evenodd;fill:#F2E29E;" d="M488.84,253.04c-0.48-0.46-0.56-1.08-0.71-1.68
		C488.73,251.77,488.76,252.41,488.84,253.04z"/>
	<path style="fill-rule:evenodd;clip-rule:evenodd;fill:#F2E29E;" d="M489.8,264.8c0.08,0,0.16,0,0.23,0c0,0.56,0,1.12,0,1.68
		c-0.08,0.12-0.16,0.11-0.24,0c0-0.24,0-0.48,0-0.71c-0.16-0.24-0.16-0.48,0-0.72C489.8,264.96,489.8,264.88,489.8,264.8z"/>
	<path style="fill-rule:evenodd;clip-rule:evenodd;fill:#F6F0B1;" d="M489.8,266.48c0.08,0,0.16,0,0.24,0c0,0.08,0,0.16,0.01,0.24
		c0.17,0.4,0.18,0.8,0,1.19l-0.01,0.01C489.62,267.5,489.87,266.96,489.8,266.48z"/>
	<path style="fill-rule:evenodd;clip-rule:evenodd;fill:#F2E29E;" d="M490.04,267.92c0-0.4,0-0.8,0-1.19
		c0.38,0.34,0.19,0.79,0.24,1.19l-0.12,0L490.04,267.92z"/>
	<path style="fill-rule:evenodd;clip-rule:evenodd;fill:#F2E29E;" d="M490.76,262.64c0-0.32,0-0.64,0-0.96
		C491.09,262,491.08,262.32,490.76,262.64z"/>
	<path style="fill-rule:evenodd;clip-rule:evenodd;fill:#F2E29E;" d="M490.04,264.56c0.02-0.33-0.1-0.7,0.23-0.96
		C490.25,263.94,490.37,264.3,490.04,264.56z"/>
	<path style="fill-rule:evenodd;clip-rule:evenodd;fill:#F2E29E;" d="M490.76,261.68c-0.27-0.18-0.23-0.46-0.23-0.73
		C490.79,261.14,490.76,261.42,490.76,261.68z"/>
	<path style="fill-rule:evenodd;clip-rule:evenodd;fill:#F2E29E;" d="M490.51,260.72c-0.27-0.18-0.23-0.46-0.23-0.73
		C490.55,260.18,490.52,260.46,490.51,260.72z"/>
	<path style="fill-rule:evenodd;clip-rule:evenodd;fill:#F2E29E;" d="M490.28,263.6c0.08-0.16,0.16-0.32,0.24-0.47
		C490.44,263.28,490.36,263.44,490.28,263.6z"/>
	<path style="fill-rule:evenodd;clip-rule:evenodd;fill:#F2E29E;" d="M490.52,263.12c0.08-0.16,0.16-0.32,0.24-0.47
		C490.68,262.8,490.6,262.96,490.52,263.12z"/>
	<path style="fill-rule:evenodd;clip-rule:evenodd;fill:#F2E29E;" d="M488.11,251.12c-0.08-0.16-0.16-0.32-0.24-0.48
		C487.96,250.8,488.04,250.96,488.11,251.12z"/>
	<path style="fill-rule:evenodd;clip-rule:evenodd;fill:#F2E29E;" d="M487.88,250.64c-0.08-0.08-0.15-0.16-0.23-0.24
		C487.72,250.48,487.8,250.56,487.88,250.64z"/>
	<path style="fill-rule:evenodd;clip-rule:evenodd;fill:#F6F0B1;" d="M488.84,266.96c0.44,0.51,0.15,1.12,0.23,1.68
		C488.64,268.13,488.92,267.52,488.84,266.96z"/>
	<path style="fill-rule:evenodd;clip-rule:evenodd;fill:#F9F6D4;" d="M490.04,260.24c0.21,1.14,0.68,2.3-0.24,3.36
		c-0.59,0.32-0.92,0.13-0.95-0.52c-0.06-1.27-0.03-2.53,0.24-3.77c0.03-0.13,0.12-0.32,0.22-0.36c0.23-0.08,0.35,0.12,0.43,0.31
		C489.87,259.57,489.69,259.99,490.04,260.24z"/>
	<path style="fill-rule:evenodd;clip-rule:evenodd;fill:#F6F0B1;" d="M489.8,265.04c0,0.24,0,0.48,0,0.72
		C489.5,265.52,489.5,265.28,489.8,265.04z"/>
</g>
</svg>
