<?xml version="1.0" encoding="utf-8"?>
<!-- Generator: Adobe Illustrator 16.0.0, SVG Export Plug-In . SVG Version: 6.00 Build 0)  -->
<!DOCTYPE svg PUBLIC "-//W3C//DTD SVG 1.0//EN" "http://www.w3.org/TR/2001/REC-SVG-20010904/DTD/svg10.dtd" [
	<!ENTITY ns_flows "http://ns.adobe.com/Flows/1.0/">
	<!ENTITY ns_extend "http://ns.adobe.com/Extensibility/1.0/">
	<!ENTITY ns_ai "http://ns.adobe.com/AdobeIllustrator/10.0/">
	<!ENTITY ns_graphs "http://ns.adobe.com/Graphs/1.0/">
]>
<svg version="1.0" id="Layer_1" xmlns:x="&ns_extend;" xmlns:i="&ns_ai;" xmlns:graph="&ns_graphs;"
	 xmlns="http://www.w3.org/2000/svg" xmlns:xlink="http://www.w3.org/1999/xlink" xmlns:a="http://ns.adobe.com/AdobeSVGViewerExtensions/3.0/"
	 x="0px" y="0px" width="960px" height="560px" viewBox="0 0 960 560" style="enable-background:new 0 0 960 560;"
	 xml:space="preserve">
<g>
	<path style="fill-rule:evenodd;clip-rule:evenodd;fill:#2B2523;" d="M471.47,302.31c-0.15-0.07-0.31-0.14-0.46-0.21
		c-0.07-0.07-0.1-0.15-0.08-0.25c0.06-0.17,0.21-0.3,0.17-0.51c-1.88-1.18-3.86-2.21-5.37-3.82c0.03,0.02-0.04,0.05-0.04,0.05
		s0.03,0.07,0.05,0.08c0.59,0.79,1.66,1.08,2.02,2.07c-0.06,0.17-0.14,0.3-0.36,0.19c-7.19-4.69-10.64-14.81-7.85-23.06
		c0.22-0.05,0.32,0.09,0.41,0.25c0.16,1.21-0.5,2.33-0.44,3.53c0.01,0.16-0.01,0.32-0.1,0.46c0.14-0.16,0.11-0.36,0.12-0.55
		c0.07-1.33,0.46-2.59,0.74-3.88c0.1-0.45,0.16-0.86-0.1-1.26c-0.05-0.17-0.04-0.34,0.05-0.5l0.01,0.01
		c0.13-0.11,0.27-0.21,0.42-0.28c0.97-0.86,1.18-2.2,1.96-3.18c0.42-0.53,0.57-1.36,1.47-1.38c0.08,0.09,0.13,0.19,0.14,0.31
		c-0.38,1.28-1.3,2.27-1.8,3.49c-0.18,0.44-0.4,0.87-0.54,1.33c-0.45,0.88-0.61,1.85-0.91,2.77c-0.07,0.22-0.14,0.44-0.15,0.67
		c-0.02,0.24-0.04,0.47-0.09,0.71c-0.9,5.16,0.24,9.88,3.08,14.23c3.33,5.09,8.18,7.66,14.08,8.47c1.73,0.27,3.45,0.14,5.15-0.21
		c4.56-0.85,8.35-3.06,11.4-6.55c2.31-2.69,3.8-5.76,4.42-9.26c0.31-1.78,0.11-3.57,0.16-5.36c0-0.12-0.01-0.24-0.01-0.36
		c0.01-0.3-0.12-0.58-0.17-0.87c-0.67-4.05-2.57-7.5-5.18-10.61c-0.25-0.3-0.59-0.55-0.63-0.99c0.02-0.12,0.09-0.2,0.2-0.25
		c0.07-0.18,0.57,0.26,0.38-0.19c-0.21-0.5-0.86-0.71-1.06-1.27c0.02-0.19,0.13-0.3,0.32-0.35c4.81,3.72,7.42,8.7,8.07,14.67
		c1.22,11.33-7.33,22.14-18.61,23.6c-2.59,0.33-5.18,0.23-7.7-0.6c-0.2-0.18-0.52,0-0.71-0.22l0,0c-0.07-0.22,0.06-0.33,0.23-0.42
		c0.23-0.08,0.47-0.08,0.7-0.04c0.17,0.03,0.34,0.06,0.51,0.09c0.86,0.13,1.72,0.3,2.59,0.34c0.11,0.01,0.32,0.06,0.32,0.03
		c0.02-0.17-0.15-0.11-0.22-0.12c-1.88-0.09-3.67-0.64-5.47-1.12c-0.28-0.08-0.45,0.08-0.63,0.23
		C471.8,302.32,471.65,302.41,471.47,302.31z"/>
	<path style="fill-rule:evenodd;clip-rule:evenodd;fill:#292423;" d="M492.88,265.79c-0.07,0.08-0.13,0.16-0.2,0.24
		c-0.47,0.24-0.73-0.15-1.03-0.37c-0.81-0.58-1.73-0.97-2.58-1.45c-0.28-0.16-0.16,0.12-0.22,0.21c-0.09,0.15-0.22,0.25-0.39,0.3
		c-0.13,0.02-0.25,0.01-0.37-0.02c-5.44-2.35-10.87-2.32-16.31-0.02c-0.7,0.3-1.34,0.7-2.01,1.04c-0.26,0.14-0.52,0.28-0.77,0.45
		c-0.35,0.19-0.66,0.48-1.09,0.49c-0.12-0.02-0.21-0.08-0.28-0.17c0.2-1.1,1.28-1.28,1.98-1.85c0.23-0.18,0.53-0.26,0.75-0.46
		c-0.26,0.18-0.53,0.35-0.82,0.47c-0.7,0.3-1.16,1.1-2.06,0.99c-0.07-0.06-0.1-0.12-0.09-0.18c0.01-0.07,0.03-0.1,0.05-0.1
		c1.53-1.53,3.42-2.37,5.46-2.96c0.19-0.1,0.3-0.01,0.36,0.17c-0.01,0.04-0.02,0.08-0.03,0.12c-0.01,0.04-0.01,0.08-0.01,0.12
		c1.38-0.56,2.86-0.62,4.31-0.84c0.09-0.01,0.18,0,0.27,0c-0.08,0-0.16,0.01-0.24,0c-0.68-0.12-1.3,0.35-1.98,0.23
		c-0.24-0.04-0.47-0.1-0.46-0.41c1.64-0.48,3.32-0.58,5.02-0.5c0.08,0.07,0.16,0.15,0.25,0.22c1.54,0.71,3.25,0.62,4.84,1.11
		c0.33,0.1,0.7,0.13,0.99,0.36c-0.32-0.24-0.7-0.31-1.08-0.39c-1.08-0.24-2.16-0.49-3.26-0.62c-0.24-0.03-0.48-0.05-0.58-0.33
		c0.12-0.31,0.34-0.28,0.58-0.18c4.1,0.15,7.7,1.61,10.87,4.2l0.05,0.04C492.86,265.69,492.89,265.73,492.88,265.79z"/>
	<path style="fill-rule:evenodd;clip-rule:evenodd;fill:#322E2B;" d="M467.6,266.48c0.11,0.01,0.22,0.03,0.33,0.04
		c0.04,0.12,0.05,0.25-0.04,0.33c-1.2,1.11-2.36,2.27-3.48,3.48c-0.08,0.09-0.21,0.08-0.33,0.04c-0.01-0.1-0.03-0.2-0.04-0.29
		c-0.1-0.18-0.14-0.36,0.02-0.54c-0.22-0.03-0.23,0.18-0.31,0.29c-1.21,1.57-2.08,3.34-3,5.08c-0.18,0-0.36,0-0.53,0
		c1.43-3.92,3.68-7.23,7.22-9.55c0.01,0.09,0.02,0.18,0.02,0.27c0.02,0.12,0.01,0.24-0.05,0.34c-0.27,0.46-0.75,0.69-1.14,1.02
		C466.71,266.81,467,266.24,467.6,266.48z"/>
	<path style="fill-rule:evenodd;clip-rule:evenodd;fill:#43493C;" d="M471.04,301.77c-0.01,0.11-0.02,0.22-0.03,0.33
		c-1.35-0.5-2.55-1.23-3.61-2.19c0.09-0.07,0.17-0.15,0.26-0.22c1.36,0.14,2.34,1.04,3.41,1.75
		C471.11,301.55,471.11,301.66,471.04,301.77z"/>
	<path style="fill-rule:evenodd;clip-rule:evenodd;fill:#4A3E3E;" d="M471.47,302.31c0.1-0.1,0.21-0.19,0.31-0.29
		c0.89,0.09,1.83,0.07,2.4,0.96c-0.09,0.08-0.18,0.17-0.26,0.25C473.04,303.11,472.22,302.79,471.47,302.31z"/>
	<path style="fill-rule:evenodd;clip-rule:evenodd;fill:#464F37;" d="M473.18,262.64c-0.09-0.08-0.19-0.16-0.28-0.23
		c0.69-0.42,1.47-0.48,2.23-0.63c0.16,0.06,0.32,0.12,0.48,0.18C474.95,262.72,474.04,262.61,473.18,262.64z"/>
	<path style="fill-rule:evenodd;clip-rule:evenodd;fill:#514140;" d="M459.78,277.08c-0.08-0.08-0.16-0.16-0.24-0.24
		c0.12-0.69,0.28-1.36,0.67-1.95c0.02,0.2,0.03,0.39,0.05,0.59C460.53,276.14,460.47,276.71,459.78,277.08z"/>
	<path style="fill-rule:evenodd;clip-rule:evenodd;fill:#69514F;" d="M480.2,261.53c-0.02-0.08-0.03-0.17-0.05-0.25
		c0.59-0.03,1.17-0.09,1.73,0.17c-0.18,0.07-0.36,0.15-0.54,0.22C480.92,261.99,480.57,261.69,480.2,261.53z"/>
	<path style="fill-rule:evenodd;clip-rule:evenodd;fill:#4A3E3E;" d="M473.92,303.24c0.27-0.04,0.53-0.03,0.71,0.22
		C474.36,303.51,474.12,303.45,473.92,303.24z"/>
	<polygon style="fill-rule:evenodd;clip-rule:evenodd;fill:#0EA44B;" points="492.8,265.68 492.75,265.69 492.75,265.64 
		492.8,265.62 	"/>
	<path style="fill-rule:evenodd;clip-rule:evenodd;fill:#F1732E;" d="M477.7,302.3c-6.29-0.69-11.15-3.67-14.52-9.05
		c-2.56-4.1-3.52-8.54-2.92-13.33c0.03-0.23,0.15-0.44,0.23-0.67c0.79,0.17,0.42,0.88,0.62,1.32c-0.05,0.72-0.07,1.44,0.21,2.12
		c-0.04,0.52-0.02,1.03,0.2,1.52c0.04,0.3-0.12,0.61,0.03,0.91c0.56,2.36,2.04,4.29,2.95,6.48c-0.22,1.08,0.61,1.59,1.22,2.23
		c1.12,2.32,2.98,3.82,5.32,4.79c0.31,0.14,0.65,0.09,0.97,0.18c2.07,1.07,4.3,1.67,6.51,2.37c0.38,0.27,0.79,0.5,0.72,1.07
		C478.73,302.52,478.22,302.43,477.7,302.3z"/>
	<path style="fill-rule:evenodd;clip-rule:evenodd;fill:#F17530;" d="M499.31,280.43c0.6,5.73-0.85,10.81-4.74,15.13
		c-0.39-0.18-0.39-0.18-0.1-0.93c0.02-0.04,0.04-0.09,0.06-0.13c0.02-0.04,0.04-0.09,0.06-0.13c0.06-0.13,0.12-0.26,0.17-0.4
		c0.04-0.14,0.09-0.27,0.14-0.4c0.05-0.13,0.1-0.27,0.13-0.41c0.09-0.39-0.24-0.8,0.06-1.19c1.25-2.03,1.92-4.27,2.52-6.54
		c0.53-0.71,0.79-1.52,0.97-2.37c0.27-0.62,0.12-1.23,0.06-1.86c-0.05-0.59-0.45-1.35,0.46-1.71c0.06,0.24,0.13,0.48,0.19,0.73
		C499.24,280.29,499.25,280.37,499.31,280.43z"/>
	<path style="fill-rule:evenodd;clip-rule:evenodd;fill:#FCC11B;" d="M494.79,294.55c0,0.35-0.5,0.6-0.21,1.01
		c-2.99,3.48-6.7,5.71-11.24,6.49c-0.79,0.04-1.6,0.4-2.33-0.18c-0.09-0.52-0.02-1.02,0.27-1.47c2.2,0.78,4.04-0.38,5.96-1.13
		c0.89-0.18,1.75-0.43,2.32-1.22c1.66-1,3.15-2.19,4.37-3.71c0.1-0.06,0.2-0.09,0.32-0.09C494.46,294.25,494.62,294.4,494.79,294.55
		z"/>
	<path style="fill-rule:evenodd;clip-rule:evenodd;fill:#F2882C;" d="M499.1,279.49c-0.4,0.64-0.21,1.29-0.09,1.96
		c0.13,0.66,0.33,1.34-0.3,1.89c-1.05-0.48-0.47-1.31-0.45-2.03c-0.01-0.11-0.02-0.22-0.03-0.33c-0.02-0.11-0.04-0.23-0.05-0.34
		c-0.16-2.65-0.63-5.21-2.01-7.54c-2.19-3.71-5.14-6.46-9.43-7.53c-1.43-0.36-2.82-0.85-4.25-1.23c-0.3-0.16-0.53-0.35-0.47-0.74
		c0.67-0.83,1.46-0.42,2.18-0.16c1.35,0.48,2.69,0.96,4.12,1.16c0.09-0.01,0.17-0.02,0.26-0.03c0.42-0.08,0.77,0.1,1.11,0.29
		c1.24,0.82,2.56,1.56,3.38,2.89c2.93,3.08,5,6.63,5.93,10.81C499.08,278.85,499.07,279.17,499.1,279.49z"/>
	<path style="fill-rule:evenodd;clip-rule:evenodd;fill:#FAAC27;" d="M460.86,280.7c-0.33-0.43,0.08-1.05-0.37-1.45
		c0.02-0.26,0.04-0.52,0.05-0.78c0.06-0.13,0.05-0.3,0.16-0.41c0.11-1.06,0.45-2.05,0.93-2.99c1.05-2.18,2.28-4.23,3.96-6
		c0.83-0.88,1.8-1.56,2.83-2.17c0.3-0.18,0.63-0.37,1.01-0.14c0.15,0.21,0.15,0.43,0.06,0.66c-1.62,1.09-3.22,2.2-4.35,3.85
		c-0.2,0.29-0.47,0.54-0.58,0.9c-0.05,0.11-0.11,0.21-0.17,0.31c-1.75,2.19-2.52,4.74-2.73,7.49
		C461.5,280.34,461.28,280.63,460.86,280.7z"/>
	<path style="fill-rule:evenodd;clip-rule:evenodd;fill:#F1842D;" d="M469.31,266.76c-3.48,1.83-5.81,4.69-7.38,8.23
		c-0.03,0.07-0.07,0.13-0.1,0.19c-0.06-0.04-0.13-0.07-0.19-0.11c0.47-1.75,1.53-3.19,2.44-4.71c1.13-1.43,2.41-2.72,3.84-3.85
		c0.34-0.1,0.52-0.54,0.95-0.47c0.05,0.02,0.1,0.04,0.15,0.06C469.21,266.29,469.52,266.41,469.31,266.76z"/>
	<path style="fill-rule:evenodd;clip-rule:evenodd;fill:#E61E26;" d="M488.42,301.73c-0.23,0.06-0.38-0.05-0.49-0.24
		c-0.17-0.3,0.05-0.45,0.27-0.55c2.11-0.92,3.93-2.24,5.53-3.89c0.16-0.17,0.36-0.39,0.58-0.11c0.07,0.09,0.08,0.33,0.01,0.41
		C492.66,299.23,490.67,300.67,488.42,301.73z"/>
	<path style="fill-rule:evenodd;clip-rule:evenodd;fill:#E71F26;" d="M474.18,302.99c-0.8-0.32-1.6-0.64-2.4-0.96
		c0.14-0.39,0.4-0.61,0.82-0.43c1.99,0.83,4.11,1.07,6.22,1.37c0.26,0.04,0.63,0,0.6,0.4c-0.04,0.48-0.46,0.36-0.74,0.33
		c-1.17-0.14-2.34-0.3-3.51-0.46c-0.09-0.06-0.18-0.11-0.27-0.15C474.65,303.04,474.42,303.02,474.18,302.99z"/>
	<path style="fill-rule:evenodd;clip-rule:evenodd;fill:#0AA74C;" d="M485.69,302.73c-1.41,0.39-2.82,0.81-4.32,0.76
		c-0.51,0.13-1.03,0.31-1.42-0.24c1.69-0.82,3.64-0.41,5.34-1.18c0.25-0.11,0.53-0.22,0.79-0.22c0.48,0.01,1.14-0.85,1.37-0.05
		c0.16,0.55-0.75,0.59-1.26,0.73C486.04,302.65,485.83,302.61,485.69,302.73z"/>
	<path style="fill-rule:evenodd;clip-rule:evenodd;fill:#09A84D;" d="M471.04,301.59c-1.13-0.63-2.26-1.27-3.39-1.9
		c-0.81-0.7-1.72-1.3-2.36-2.18c-0.15-0.17-0.15-0.35,0-0.53c1.08,0.42,1.68,1.48,2.66,2.04c0.99,0.58,1.98,1.17,2.96,1.77
		c0.28,0.17,0.89,0.13,0.6,0.76C471.35,301.7,471.2,301.7,471.04,301.59z"/>
	<path style="fill-rule:evenodd;clip-rule:evenodd;fill:#0BA84C;" d="M494.88,296.72c-0.07-0.04-0.25-0.1-0.24-0.14
		c0.03-0.22,0.05-0.48,0.17-0.65c0.55-0.73,1.14-1.42,1.71-2.13c0.71-0.88,1.16-1.89,1.57-2.92c0.08-0.2,0.07-0.52,0.45-0.39
		c0.3,0.1,0.34,0.29,0.22,0.55c-0.88,2.07-2.05,3.93-3.65,5.52C495.06,296.62,494.98,296.65,494.88,296.72z"/>
	<path style="fill-rule:evenodd;clip-rule:evenodd;fill:#E71E26;" d="M461.07,290.34c0.14,0.22,0.31,0.44,0.44,0.68
		c1.01,1.76,1.87,3.6,3.28,5.11c0.13,0.14,0.32,0.32,0.14,0.51c-0.25,0.27-0.42-0.02-0.58-0.17c-1.65-1.57-2.66-3.55-3.56-5.6
		C460.71,290.66,460.65,290.39,461.07,290.34z"/>
	<path style="fill-rule:evenodd;clip-rule:evenodd;fill:#E52027;" d="M495.08,268.45c0.1,0.15,0.18,0.3,0.29,0.42
		c1.48,1.75,2.72,3.64,3.53,5.79c0.08,0.22,0.24,0.48-0.04,0.64c-0.31,0.17-0.39-0.08-0.47-0.33c-0.73-2.15-2.1-3.93-3.4-5.74
		c-0.11-0.15-0.18-0.33-0.23-0.51C494.74,268.68,494.9,268.59,495.08,268.45z"/>
	<path style="fill-rule:evenodd;clip-rule:evenodd;fill:#0EA44B;" d="M488.79,264.36c-0.17-0.33-0.91-0.17-0.76-0.57
		c0.13-0.35,0.64,0.02,0.94,0.12c1.37,0.47,2.54,1.3,3.7,2.13c0.4,0.39,0.82,0.75,1.19,1.17c0.22,0.25,0.36,0.59,0.53,0.88
		c-0.48,0.26-0.69-0.27-1.04-0.37c-1.3-0.97-2.48-2.11-3.9-2.91C489.23,264.67,488.96,264.59,488.79,264.36z"/>
	<path style="fill-rule:evenodd;clip-rule:evenodd;fill:#E32026;" d="M459.78,277.08c0.16-0.53,0.32-1.07,0.48-1.6
		c0.61-0.2,0.67-0.01,0.5,0.56c-0.54,1.82-0.99,3.67-1.02,5.59c-0.01,0.28-0.02,0.67-0.36,0.66c-0.48-0.01-0.34-0.47-0.3-0.74
		C459.29,280.05,459.54,278.57,459.78,277.08z"/>
	<path style="fill-rule:evenodd;clip-rule:evenodd;fill:#E31F26;" d="M498.91,290.03c-0.41-0.19-0.28-0.47-0.19-0.73
		c0.7-1.88,1.04-3.83,1.13-5.83c0.01-0.26-0.05-0.63,0.39-0.58c0.34,0.04,0.26,0.33,0.23,0.56c-0.2,1.98-0.44,3.96-1.08,5.86
		C499.29,289.62,499.26,289.94,498.91,290.03z"/>
	<path style="fill-rule:evenodd;clip-rule:evenodd;fill:#0DA84D;" d="M460.75,274.91c0.55-2.43,2.16-4.27,3.53-6.24
		c0.06-0.09,0.26-0.08,0.4-0.12c0.02,0.15,0.09,0.32,0.04,0.43c-0.2,0.38-0.45,0.73-0.68,1.1c-1.15,1.17-1.85,2.63-2.53,4.09
		C461.34,274.52,461.29,274.95,460.75,274.91z"/>
	<path style="fill-rule:evenodd;clip-rule:evenodd;fill:#13A04A;" d="M459.16,283.07c-0.05,0.16-0.04-0.08,0.05-0.11
		c0.26-0.08,0.31,0.16,0.35,0.35c0.48,2.04,0.54,4.16,1.25,6.15c0.06,0.17,0.02,0.31-0.19,0.33c-0.32,0.02-0.38-0.25-0.46-0.46
		c-0.52-1.3-0.64-2.69-0.85-4.05C459.2,284.65,459.21,284.02,459.16,283.07z"/>
	<path style="fill-rule:evenodd;clip-rule:evenodd;fill:#0FA34B;" d="M500.11,282.13c-0.02-0.15-0.04-0.3-0.06-0.45
		c-0.1-0.16-0.06-0.36-0.18-0.5c-0.26-1.56-0.52-3.12-0.77-4.68c-0.03-0.17,0.02-0.35,0.03-0.53c0.13,0.13,0.3,0.24,0.37,0.4
		c0.75,1.75,0.81,3.61,0.87,5.47C500.46,282.09,500.33,282.15,500.11,282.13z"/>
	<path style="fill-rule:evenodd;clip-rule:evenodd;fill:#D49544;" d="M481.12,301.79c0.71,0.34,1.48,0.11,2.2,0.26
		c-1.86,0.52-3.73,0.7-5.63,0.25c0.49-0.11,1.03,0.15,1.49-0.21c0.35-0.28,0.82-0.1,1.2-0.3c0.15-0.05,0.3-0.08,0.46-0.11
		C480.95,301.67,481.05,301.71,481.12,301.79z"/>
	<path style="fill-rule:evenodd;clip-rule:evenodd;fill:#35372B;" d="M489.51,264.66c1.44,0.83,2.77,1.78,3.85,3.06
		c-0.1,0.01-0.19,0.01-0.29,0.02c-1.19-0.9-2.37-1.8-3.56-2.71C489.39,264.91,489.37,264.79,489.51,264.66z"/>
	<path style="fill-rule:evenodd;clip-rule:evenodd;fill:#479D43;" d="M479.95,303.25c0.43,0.32,0.94,0.19,1.42,0.24
		C480.86,303.66,480.29,304.16,479.95,303.25z"/>
	<path style="fill-rule:evenodd;clip-rule:evenodd;fill:#5C883C;" d="M500.11,282.13c0.08-0.1,0.17-0.19,0.25-0.29
		c0.03,0.13,0.13,0.32,0.07,0.39C500.32,282.38,500.17,282.32,500.11,282.13z"/>
	<path style="fill-rule:evenodd;clip-rule:evenodd;fill:#57883C;" d="M465.28,296.97c0,0.18,0,0.35,0,0.53
		C465.05,297.33,464.99,297.15,465.28,296.97z"/>
	<path style="fill-rule:evenodd;clip-rule:evenodd;fill:#F1732E;" d="M460.71,278.07c-0.05,0.14-0.11,0.27-0.16,0.41
		C460.6,278.34,460.66,278.2,460.71,278.07z"/>
	<path style="fill-rule:evenodd;clip-rule:evenodd;fill:#58863B;" d="M471.04,301.59c0.15-0.01,0.3-0.03,0.46-0.04
		c-0.08,0.22-0.26,0.24-0.45,0.21C471.04,301.71,471.04,301.65,471.04,301.59z"/>
	<path style="fill-rule:evenodd;clip-rule:evenodd;fill:#51953F;" d="M485.69,302.73c0.17-0.06,0.34-0.13,0.5-0.19
		C486.02,302.61,485.86,302.67,485.69,302.73z"/>
	<path style="fill-rule:evenodd;clip-rule:evenodd;fill:#56903D;" d="M499.87,281.17c0.06,0.17,0.12,0.34,0.18,0.5
		C499.99,281.51,499.93,281.34,499.87,281.17z"/>
	<path style="fill-rule:evenodd;clip-rule:evenodd;fill:#F2882C;" d="M499.31,280.43c-0.03-0.05-0.06-0.1-0.08-0.15
		c0-0.02,0.04-0.05,0.06-0.07C499.33,280.29,499.34,280.36,499.31,280.43z"/>
	<path style="fill-rule:evenodd;clip-rule:evenodd;fill:#4A3E3E;" d="M474.88,303.08c0.09,0.05,0.18,0.1,0.27,0.15
		C475.07,303.17,474.98,303.12,474.88,303.08z"/>
	<path style="fill-rule:evenodd;clip-rule:evenodd;fill:#F0722E;" d="M488.32,264.59c-1.39,0.43-2.57-0.29-3.8-0.7
		c-0.82-0.28-1.6-0.76-2.48-0.23c-0.24,0.27-0.55,0.25-0.86,0.2c-0.96-0.45-1.91-0.49-2.85,0.06c-0.33,0.17-0.68,0.27-1.05,0.3
		c-1.69,0.07-3.19,0.8-4.72,1.38c-0.73,0.28-1.44,0.63-2.26,0.57c-0.32-0.01-0.63-0.06-0.9-0.25c-0.11-0.1-0.11-0.21-0.01-0.32
		C475.53,262.05,481.83,261.44,488.32,264.59z"/>
	<path style="fill-rule:evenodd;clip-rule:evenodd;fill:#E12127;" d="M480.2,261.53c0.38,0.05,0.76,0.09,1.14,0.14
		c1.9,0.18,3.78,0.42,5.55,1.18c0.21,0.09,0.46,0.17,0.49,0.46c-0.23,0-0.47,0.05-0.67-0.01c-2.02-0.59-4.07-0.99-6.14-1.33
		C480.29,261.93,479.95,261.98,480.2,261.53z"/>
	<path style="fill-rule:evenodd;clip-rule:evenodd;fill:#E22026;" d="M467.6,266.48c-0.57,0.41-1.14,0.83-1.72,1.23
		c-0.14,0.1-0.29,0.35-0.49,0.14c-0.18-0.19,0.02-0.38,0.15-0.5c0.63-0.59,1.28-1.16,1.92-1.73c1.16-0.68,2.31-1.37,3.47-2.05
		c0.16-0.09,0.37-0.29,0.51-0.06c0.13,0.22-0.13,0.31-0.29,0.41C469.91,264.7,468.64,265.44,467.6,266.48z"/>
	<path style="fill-rule:evenodd;clip-rule:evenodd;fill:#15A54B;" d="M473.18,262.64c0.81-0.23,1.62-0.45,2.43-0.68
		c1.02-0.08,2.04-0.17,3.06-0.23c0.17-0.01,0.49,0.06,0.51,0.14c0.04,0.24-0.19,0.32-0.39,0.32c-2.16,0-4.25,0.35-6.22,1.28
		c-0.11,0.05-0.28-0.04-0.43-0.06c0.05-0.13,0.07-0.33,0.17-0.38C472.59,262.86,472.89,262.76,473.18,262.64z"/>
	<path style="fill-rule:evenodd;clip-rule:evenodd;fill:#110B05;" d="M489.51,264.66c0,0.12,0,0.25,0,0.37
		c-0.31-0.16-0.62-0.31-0.93-0.47c0.07-0.07,0.14-0.14,0.21-0.2C489.03,264.46,489.27,264.56,489.51,264.66z"/>
	<path style="fill-rule:evenodd;clip-rule:evenodd;fill:#A97F4F;" d="M469.38,265.58c-0.01,0.07-0.01,0.15,0,0.22
		c-0.04,0.38-0.24,0.4-0.52,0.23c0,0,0.01,0.02,0.01,0.02C468.93,265.77,469.12,265.64,469.38,265.58z"/>
	<path style="fill-rule:evenodd;clip-rule:evenodd;fill:#272323;" d="M465.53,293.85c-0.81-0.46-1.72-0.86-1.2-2.08
		c0.12-0.2,0.07-0.4-0.02-0.59c-0.06-0.14-0.11-0.28-0.16-0.43c-0.03-0.1-0.06-0.2-0.07-0.3c-0.02-0.15-0.02-0.31-0.01-0.46
		c0.03-0.27,0.14-0.51,0.32-0.73c0.1-0.13,0.22-0.25,0.35-0.36c0.14-0.12,0.28-0.21,0.45-0.27c0.12-0.04,0.23-0.06,0.35-0.08
		c1.49,0.17,1.8,0.57,1.54,1.98c-0.09,0.17-0.23,0.3-0.32,0.47c0,0.08,0.02,0.16,0.06,0.23c0.12,0.14,0.26,0.26,0.37,0.41
		c0.09,0.13,0.16,0.27,0.21,0.42c0.06,0.22,0.06,0.44,0.02,0.67c-0.1,0.4-0.3,0.75-0.62,1.03c-0.25,0.18-0.51,0.29-0.82,0.31
		C465.79,294.07,465.64,294,465.53,293.85z"/>
	<path style="fill-rule:evenodd;clip-rule:evenodd;fill:#272322;" d="M480.65,301.99c-0.47,0.26-0.96,0.32-1.46,0.09
		c-0.24-0.25-0.48-0.5-0.72-0.75c-0.06-0.08-0.13-0.16-0.21-0.23c-0.11-0.12-0.18-0.26-0.23-0.42c-0.05-0.16-0.07-0.32-0.08-0.49
		c-0.01-0.52,0.13-1.01,0.32-1.49c0.14-0.32,0.32-0.62,0.54-0.89c0.32-0.35,0.66-0.67,1.11-0.86c0.52-0.16,1.05-0.38,1.48,0.19
		c0.11,0.53-0.34,0.68-0.62,0.94c-0.88,0.69,0.17,0.76,0.36,1.1c0.08,0.08,0.14,0.17,0.2,0.26c0.08,0.14,0.15,0.29,0.19,0.46
		c0.03,0.17,0.02,0.33-0.1,0.46c-0.08,0.47,0.02,0.99-0.29,1.41c-0.07,0.01-0.13,0.02-0.2,0.03
		C480.83,301.87,480.74,301.93,480.65,301.99z"/>
	<path style="fill-rule:evenodd;clip-rule:evenodd;fill:#262222;" d="M460.86,280.7c0.2-0.24,0.39-0.49,0.59-0.73
		c0.51-0.52,1.07-0.54,1.69-0.21c0.11,0.06,0.21,0.13,0.3,0.22c0.04,0.04,0.08,0.09,0.13,0.13c0.35,0.43,0.55,0.93,0.58,1.49
		c0.01,0.23,0.01,0.46,0,0.68c-0.02,0.38-0.09,0.75-0.26,1.1c-0.09,0.19-0.19,0.37-0.29,0.55c-0.05,0.09-0.11,0.17-0.17,0.26
		c-0.09,0.12-0.2,0.24-0.31,0.35c-0.23,0.22-0.5,0.4-0.8,0.52c-0.38,0.14-0.75,0.21-1.11-0.03c-0.65-0.47,0.19-0.48,0.22-0.73
		c-0.03-0.38,0.69-0.51,0.31-0.99c-0.13-0.08-0.25-0.15-0.37-0.23c-0.08-0.06-0.14-0.14-0.19-0.23
		C460.67,282.18,460.62,281.46,460.86,280.7z"/>
	<path style="fill-rule:evenodd;clip-rule:evenodd;fill:#FDCB1B;" d="M478.2,300.36c0.03,0.17,0.06,0.33,0.1,0.49
		c0.03,0.06,0.07,0.13,0.11,0.19c0.02,0.1,0.04,0.2,0.05,0.3c-2.41-0.43-4.69-1.24-6.83-2.43c-0.11-0.51,0.04-0.88,0.58-1.02
		c1.58,0.74,3.19,1.4,4.9,1.81C477.54,299.79,477.94,299.97,478.2,300.36z"/>
	<path style="fill-rule:evenodd;clip-rule:evenodd;fill:#FCCD21;" d="M461.2,285.03c0.4-0.08,0.8-0.16,1.2-0.24
		c0.57,1.52,1.1,3.06,2.11,4.37c0.02,0.05,0.04,0.1,0.06,0.15c-0.11,0.27-0.21,0.53-0.32,0.8c-0.05,0.12-0.05,0.24,0.01,0.35
		c0.03,0.12,0.05,0.24,0.08,0.35c0.08,0.02,0.12,0.07,0.12,0.15c0.45,0.34,0.26,0.58-0.12,0.8
		C463.19,289.57,461.8,287.48,461.2,285.03z"/>
	<path style="fill-rule:evenodd;clip-rule:evenodd;fill:#282424;" d="M472.23,297.96c-0.2,0.32-0.4,0.63-0.6,0.95
		c-0.23,0.03-0.45,0.57-0.68,0.01c-0.11-0.31-0.06-0.62,0.01-0.93c0.02-0.1,0.04-0.2,0.07-0.3c0.09-0.29,0.19-0.59,0.28-0.88
		c0.05-0.15,0.1-0.29,0.14-0.44c0.04-0.15,0.09-0.29,0.13-0.44c0.08-0.35-0.09-0.41-0.38-0.35c-0.27,0.06-0.53,0.17-0.82,0.16
		c-0.28-0.04-0.44-0.21-0.5-0.47c-0.03-0.44,0.12-0.78,0.48-1.04c0.85-0.32,1.72-0.22,2.58-0.06c0.12,0.05,0.22,0.14,0.3,0.24
		c0.16,0.3,0.07,0.61,0,0.91c-0.08,0.27-0.17,0.55-0.24,0.83c-0.07,0.33-0.19,0.65-0.25,0.98
		C472.67,297.44,472.58,297.78,472.23,297.96z"/>
	<path style="fill-rule:evenodd;clip-rule:evenodd;fill:#F8A229;" d="M471.24,297.98c-0.1,0.31-0.19,0.62-0.29,0.94
		c-2.16-0.79-3.77-2.26-5.11-4.09c-0.23-0.31-0.36-0.61-0.32-0.98c0.16,0.01,0.32,0.03,0.47,0.04c1.13,0.88,1.78,2.23,3.03,2.99
		C469.75,297.3,470.42,297.77,471.24,297.98z"/>
	<path style="fill-rule:evenodd;clip-rule:evenodd;fill:#F3CB1F;" d="M461.63,283.03c0.3,0.13,0.9-0.13,0.91,0.22
		c0.01,0.6-0.65,0.78-1.12,1.04c-0.56-0.4-0.61-0.89-0.25-1.46c0.11,0.03,0.21,0.07,0.32,0.1
		C461.55,282.95,461.6,282.98,461.63,283.03z"/>
	<path style="fill-rule:evenodd;clip-rule:evenodd;fill:#FCCC28;" d="M497.91,285.41c-0.44,2.09-1.15,4.08-2.09,6
		c-0.18,0.36-0.26,0.75-0.72,0.83c-0.66-0.62-0.39-1.39-0.38-2.12c0.27-1.59,0.79-3.11,1.44-4.59
		C496.73,285.29,497.32,285.24,497.91,285.41z"/>
	<path style="fill-rule:evenodd;clip-rule:evenodd;fill:#2A2623;" d="M495.13,289.78c-0.01,0.82-0.02,1.64-0.03,2.46
		c0.17,0.38,0.65,0.73,0.11,1.18c-0.05,0.09-0.1,0.17-0.15,0.26c-0.03,0.15-0.06,0.31-0.09,0.46c-0.04,0.08-0.1,0.15-0.17,0.21
		l-0.02,0.02c-0.15,0.14-0.29,0.14-0.44,0c-0.07-0.04-0.14-0.06-0.21-0.08c-0.49-0.48-1.14-0.57-1.78-0.69
		c-0.23-0.12-0.35-0.31-0.35-0.57c0.46-1.32,1.16-2.49,2.24-3.42C494.58,289.44,494.94,289.21,495.13,289.78z"/>
	<path style="fill-rule:evenodd;clip-rule:evenodd;fill:#272323;" d="M497.91,285.41c-0.54,0.28-1.08,0.47-1.66,0.1
		c-0.06-0.02-0.12-0.04-0.17-0.06c-0.1-0.07-0.17-0.17-0.21-0.29c-0.03-0.38,0.18-0.54,0.52-0.6c0.33-0.06,0.76,0.22,0.97-0.18
		c0.21-0.4-0.19-0.62-0.41-0.89c-0.12-0.15-0.34-0.35-0.25-0.5c0.87-1.36-0.42-0.77-0.85-0.96c-0.25-0.66,0.04-1.11,0.55-1.48
		c0.12-0.07,0.24-0.11,0.38-0.14c0.6-0.02,1.25-0.19,1.6,0.54l-0.01-0.02c0.11,0.08,0.19,0.18,0.23,0.31
		c-0.12,0.71-0.58,1.43,0.1,2.1C498.82,284.17,498.42,284.81,497.91,285.41z"/>
	<path style="fill-rule:evenodd;clip-rule:evenodd;fill:#2B2523;" d="M494.35,294.36c0.15,0,0.29,0,0.44,0c0,0.06,0,0.13,0,0.19
		C494.6,294.58,494.41,294.61,494.35,294.36z"/>
	<path style="fill-rule:evenodd;clip-rule:evenodd;fill:#2B2523;" d="M495.06,293.67c0.05-0.09,0.1-0.17,0.15-0.26
		C495.17,293.5,495.11,293.59,495.06,293.67z"/>
	<path style="fill-rule:evenodd;clip-rule:evenodd;fill:#2B2523;" d="M494.81,294.34c0.06-0.07,0.11-0.14,0.17-0.21
		C494.92,294.2,494.86,294.27,494.81,294.34z"/>
	<path style="fill-rule:evenodd;clip-rule:evenodd;fill:#FEE410;" d="M481.2,299.64c-0.07-0.05-0.1-0.12-0.09-0.2
		c0.09-0.82,0.81-0.73,1.33-0.85c1.81-0.43,3.62-0.87,5.22-1.86c0.1-0.07,0.21-0.11,0.32-0.14c0.95,0,1.12,0.67,1.05,1.38
		c-0.1,0.96-0.8,1.18-1.64,1.1c-0.07,0.03-0.1,0.08-0.07,0.17c0.03,0.06,0.04,0.13,0.04,0.2c-1.53,0.95-3.19,1.51-5,1.66
		c-0.6,0.05-0.71-0.37-0.94-0.72c-0.02-0.17-0.03-0.33-0.05-0.5C481.28,299.82,481.23,299.74,481.2,299.64z"/>
	<path style="fill-rule:evenodd;clip-rule:evenodd;fill:#FEE311;" d="M492.43,293.39c0.62,0.2,1.8-0.69,1.7,0.89
		c-1.04,1.78-2.62,2.95-4.38,3.91c-0.39-0.39-0.33-0.94-0.51-1.41c-0.03-0.11-0.06-0.22-0.07-0.33c-0.01-0.11-0.01-0.23,0.02-0.33
		C490.27,295.21,491.18,294.1,492.43,293.39z"/>
	<path style="fill-rule:evenodd;clip-rule:evenodd;fill:#272323;" d="M489.51,296.55c0.26,0.52,0.3,1.07,0.24,1.64
		c-0.57,0.85-1.33,1.34-2.4,1.24c-0.05-0.05-0.1-0.07-0.17-0.06c-0.13-0.04-0.22-0.12-0.29-0.24c-0.04-0.24-0.73-0.88,0.3-0.49
		c0.54,0.21,1.14,0.32,1.46-0.32c0.32-0.64,0.23-1.23-0.51-1.57c-0.42-0.2-0.97,0.28-1.31-0.28c-0.09-0.24-0.03-0.48,0.04-0.71
		c0.07-0.23,0.17-0.45,0.29-0.65c0.44-0.72,1.06-1.11,1.93-1.05c0.12,0,0.23,0.02,0.35,0.04c0.11,0.03,0.22,0.08,0.31,0.14
		c0.08,0.08,0.14,0.18,0.17,0.29c0.01,0.11-0.01,0.22-0.04,0.33c-0.07,0.15-0.18,0.28-0.3,0.39c-0.16,0.14-0.35,0.23-0.55,0.28
		c-0.08,0.04-0.23,0.03-0.18,0.21c0.2,0.15,0.35,0.32,0.43,0.54l0-0.01C489.37,296.36,489.44,296.45,489.51,296.55z"/>
	<path style="fill-rule:evenodd;clip-rule:evenodd;fill:#FDC31D;" d="M498.39,280.94c-0.5-0.4-1.08-0.3-1.65-0.29
		c0.57-0.78,0.6-1.61,0.39-2.53c-0.36-1.54-0.61-3.11-1.69-4.37c-0.23-0.26-0.44-0.54-0.53-0.89c-0.47-1.87-2.03-2.86-3.31-4.07
		c-0.51-0.49-1.15-0.84-1.82-1.11c-0.37-0.24-0.85-0.23-1.22-0.49c-1.49-1-3.3-1.12-4.92-1.74c-0.29-0.11-0.63-0.09-0.9-0.29
		c-0.26-0.31-0.46-0.63-0.2-1.03c7.02,1.11,12.5,4.33,15.08,11.32C498.26,277.18,498.6,279.04,498.39,280.94z"/>
	<path style="fill-rule:evenodd;clip-rule:evenodd;fill:#292524;" d="M482.53,264.12c0.08,0.32,0.17,0.63,0.25,0.95
		c0.26,0.64-0.31,0.99-0.51,1.47c-0.09,0.13-0.19,0.25-0.29,0.38c-0.06,0.1-0.18,0.22-0.11,0.3c0.22,0.25,0.41-0.06,0.63-0.06
		c0.11-0.02,0.22-0.02,0.33,0.01c0.1,0.06,0.19,0.13,0.26,0.22c0.02,0.05,0.04,0.11,0.06,0.16c0.01,0.12,0,0.24-0.04,0.35
		c-0.13,0.35-0.3,0.67-0.61,0.9c-0.8,0.33-1.62,0.27-2.44,0.09c-0.24-0.1-0.41-0.28-0.46-0.54c0.12-0.53,0.63-0.81,0.85-1.28
		c0.19-0.29,0.4-0.58,0.54-0.91c0.13-0.32,0.36-0.69,0.11-1c-0.29-0.35-0.54,0.08-0.81,0.17c-0.71,0.25-0.83-0.14-0.77-0.72
		c0.11-0.35,0.29-0.64,0.58-0.87c0.31-0.22,0.66-0.26,1.02-0.17c0.31,0.03,0.62,0.05,0.93,0.08
		C482.2,263.81,482.37,263.97,482.53,264.12z"/>
	<path style="fill-rule:evenodd;clip-rule:evenodd;fill:#FDC31D;" d="M498.61,281.23c-0.08-0.1-0.16-0.21-0.23-0.31
		C498.46,281.02,498.54,281.13,498.61,281.23z"/>
	<path style="fill-rule:evenodd;clip-rule:evenodd;fill:#FDDF18;" d="M463.07,279.96c-0.54-0.2-1.08-0.11-1.62,0.01
		c0.01-2.91,0.81-5.53,2.85-7.69c0.63,0,0.79,0.47,0.91,0.94c0.28,1.11,0.31,2.21-0.3,3.24c-0.52,0.85-0.74,1.81-0.96,2.77
		c-0.08,0.38,0.05,0.93-0.6,0.97l0.01,0C463.28,280.1,463.18,280.03,463.07,279.96z"/>
	<path style="fill-rule:evenodd;clip-rule:evenodd;fill:#2C2826;" d="M468.86,266.04c0.21,0.01,0.41-0.01,0.52-0.23
		c0.31,0,0.62,0,0.93,0c0.32,0.4,0.36,0.88,0.36,1.37c0.04,0.65-0.01,1.31,0,1.96c0.03,0.38,0.23,0.72,0.29,1.1
		c-0.03,0.67-0.49,0.86-1.05,0.91c-0.39,0-0.75-0.07-1.02-0.39c-0.25-0.54,0.17-0.98,0.24-1.48c0.12-0.34,0.2-0.69,0.12-1.06
		c-0.03-0.1-0.05-0.2-0.06-0.31c0-0.16,0.05-0.3,0.15-0.43c-0.01-0.24-0.02-0.48-0.03-0.73
		C469.16,266.52,469.01,266.28,468.86,266.04z"/>
	<path style="fill-rule:evenodd;clip-rule:evenodd;fill:#292524;" d="M464.58,276.36c0.69-1.41,0.75-2.78-0.28-4.07
		c0.06-0.04,0.07-0.1,0.05-0.17c0.04-0.11,0.11-0.2,0.2-0.27c0.2-0.13,0.41-0.23,0.66-0.26c0.26-0.03,0.5,0.01,0.71,0.17
		c0.42,0.41,0.42,0.91,0.33,1.42c-0.23,1.09-0.35,2.16,0.32,3.16c0.02,0.14,0,0.26-0.07,0.38c-0.42,0.48-0.97,0.46-1.53,0.38
		C464.62,276.97,464.3,276.82,464.58,276.36z"/>
	<path style="fill-rule:evenodd;clip-rule:evenodd;fill:#FDC91B;" d="M464.57,272.01c-0.07,0.04-0.15,0.07-0.22,0.11
		c1.14-2.11,2.68-3.79,4.99-4.63c0.01,0.15,0.02,0.3,0.03,0.46c-0.08,0.5-0.51,0.65-0.86,0.9c-1.11,0.81-2.14,1.71-2.77,2.97
		c-0.23,0-0.47,0-0.7,0C464.91,271.94,464.7,271.89,464.57,272.01z"/>
	<path style="fill-rule:evenodd;clip-rule:evenodd;fill:#2B2523;" d="M480.65,301.99c0.09-0.06,0.19-0.12,0.28-0.17
		C480.83,301.88,480.74,301.93,480.65,301.99z"/>
	<path style="fill-rule:evenodd;clip-rule:evenodd;fill:#F49B2B;" d="M470.37,267.22c-0.02-0.47-0.04-0.95-0.06-1.42
		c1.41,0.13,2.47-0.84,3.74-1.16c1.1-0.28,2.12-0.86,3.31-0.74c0.06,0.34-0.09,0.59-0.33,0.79c-1.02,0.34-2.13,0.45-3,1.19
		c-0.47,0.27-1.07,0.25-1.46,0.68C471.76,266.53,471.09,266.96,470.37,267.22z"/>
	<path style="fill-rule:evenodd;clip-rule:evenodd;fill:#2C2826;" d="M476.99,264.6c0.12-0.23,0.25-0.46,0.37-0.69
		c0.29-0.1,0.58-0.2,0.88-0.3c0.24,0.13,0.37,0.35,0.46,0.59c0.06,0.18,0.09,0.38,0.11,0.57c0.05,0.77,0.03,1.54,0.01,2.3
		c0.02,0.32-0.01,0.64-0.06,0.95c-0.05,0.26-0.16,0.49-0.34,0.67c-0.1,0.09-0.21,0.15-0.33,0.19c-0.44,0.09-0.87,0.13-1.16-0.33
		c-0.07-0.24-0.01-0.47,0.06-0.7c0.11-0.31,0.19-0.63,0.2-0.97c0.01-0.48,0.02-0.96,0-1.44c-0.02-0.15-0.03-0.3-0.09-0.44
		c-0.04-0.09-0.07-0.18-0.1-0.28C477,264.7,477,264.65,476.99,264.6z"/>
	<path style="fill-rule:evenodd;clip-rule:evenodd;fill:#F5982A;" d="M478.47,264.12c-0.08-0.17-0.15-0.34-0.23-0.52
		c0.95-0.53,1.91-0.71,2.87-0.04c-0.29,0.11-0.58,0.22-0.87,0.33C479.67,264.15,479.1,264.4,478.47,264.12z"/>
	<path style="fill-rule:evenodd;clip-rule:evenodd;fill:#FDF4A2;" d="M465.06,276.89c0.47-0.09,1,0.09,1.4-0.31
		c0.37,0.42,0.08,0.83-0.04,1.23c-1,3.37-0.92,6.67,0.55,9.9c1.21,2.66,3.06,4.72,5.68,6.05c0.21,0.11,0.44,0.19,0.57,0.42
		c-0.01,0.06-0.01,0.12-0.02,0.18c-0.95-0.09-1.91-0.25-2.85,0.09c-1.42-1.03-2.67-2.24-3.65-3.71c0.56-1.36,0.19-1.87-1.4-1.95
		c-0.28-1.84-1.13-3.55-1.19-5.46C464.04,281.11,464.16,278.95,465.06,276.89z"/>
	<path style="fill-rule:evenodd;clip-rule:evenodd;fill:#FCEB44;" d="M465.06,276.89c0.2,1.06-0.37,1.99-0.51,3
		c-0.39,2.69-0.09,5.28,0.94,7.79c0.17,0.4,0.34,0.83-0.19,1.12c-0.08,0.03-0.17,0.05-0.25,0.08c-0.77-0.66-0.73-1.68-1.14-2.51
		c-0.04-0.11-0.07-0.23-0.09-0.34c-0.05-0.82-0.32-1.62-0.22-2.46c0.1-0.41,0.2-0.81,0.3-1.22c0.11-0.23,0.1-0.46,0-0.7
		c-0.18-0.48-0.36-0.96-0.54-1.44c0.45-1.27,0.4-2.7,1.23-3.85C464.44,276.8,464.75,276.85,465.06,276.89z"/>
	<path style="fill-rule:evenodd;clip-rule:evenodd;fill:#FEE31A;" d="M471.77,296.13c-0.02,0.13-0.04,0.25-0.06,0.38
		c-0.06,0.12-0.15,0.22-0.17,0.36c-0.09,0.29-0.18,0.57-0.27,0.86c-0.34,0.25-0.64,0.17-0.98-0.03c-1.34-0.8-2.5-1.79-3.48-3.01
		c-0.28-0.34-0.4-0.68-0.11-1.07c0.18-0.31,0.35-0.61,0.53-0.92c1.13,0.68,2.07,1.55,2.83,2.63c0.15,0.07,0.29,0.15,0.44,0.22
		C471.03,295.5,471.61,295.35,471.77,296.13z"/>
	<path style="fill-rule:evenodd;clip-rule:evenodd;fill:#FEEC3C;" d="M470.06,295.33c-1.03-0.78-2.07-1.56-2.83-2.63
		c-0.02-0.24-0.04-0.49-0.06-0.73c-0.06-0.08-0.11-0.15-0.17-0.23c-0.18-0.18-0.35-0.36-0.53-0.54c-0.09-0.04-0.12-0.11-0.1-0.21
		c0.11-0.08,0.21-0.17,0.32-0.25c1.3,1.15,2.59,2.32,3.65,3.71C470.25,294.74,470.15,295.04,470.06,295.33z"/>
	<path style="fill-rule:evenodd;clip-rule:evenodd;fill:#FEC91C;" d="M466.7,293.61c0.89,2.07,2.55,3.28,4.56,4.11
		c-0.01,0.08-0.02,0.17-0.02,0.26c-0.61,0.47-1.02-0.04-1.48-0.29c-1.61-0.91-2.92-2.12-3.76-3.8
		C466.23,293.79,466.47,293.7,466.7,293.61z"/>
	<path style="fill-rule:evenodd;clip-rule:evenodd;fill:#EDC425;" d="M466.24,292.62c0.02,0.5-0.21,0.69-0.49,0.67
		c-0.52-0.05-0.74-0.43-0.65-0.91c0.05-0.25,0.05-0.76,0.49-0.62C465.99,291.88,466.2,292.3,466.24,292.62z"/>
	<path style="fill-rule:evenodd;clip-rule:evenodd;fill:#F5E23C;" d="M466.13,289.82c-0.13,0.26-0.01,0.72-0.44,0.75
		c-0.45,0.03-0.43-0.38-0.45-0.69c-0.02-0.28-0.02-0.59,0.39-0.59C465.97,289.28,466.14,289.47,466.13,289.82z"/>
	<path style="fill-rule:evenodd;clip-rule:evenodd;fill:#FDEB42;" d="M464.08,286.2c0.52,0.82,0.69,1.76,0.97,2.67
		c-0.09,0.07-0.18,0.14-0.27,0.21c-0.05-0.03-0.11-0.07-0.16-0.1C464.08,288.13,463.45,287.29,464.08,286.2z"/>
	<path style="fill-rule:evenodd;clip-rule:evenodd;fill:#F1732E;" d="M464.26,290.46c-0.17-0.11-0.2-0.23-0.01-0.35
		C464.25,290.23,464.25,290.35,464.26,290.46z"/>
	<path style="fill-rule:evenodd;clip-rule:evenodd;fill:#FCCD21;" d="M464.78,289.08c-0.07,0.08-0.15,0.15-0.22,0.23l-0.03-0.04
		c-0.01-0.17,0.06-0.24,0.23-0.23L464.78,289.08z"/>
	<path style="fill-rule:evenodd;clip-rule:evenodd;fill:#FDF4A2;" d="M467,291.74c0.06,0.08,0.11,0.15,0.17,0.23
		C467.12,291.89,467.06,291.81,467,291.74z"/>
	<path style="fill-rule:evenodd;clip-rule:evenodd;fill:#FDF4A2;" d="M466.38,290.99c0.02,0.07,0.06,0.14,0.1,0.21
		c-0.05-0.04-0.11-0.08-0.15-0.12C466.32,291.07,466.36,291.02,466.38,290.99z"/>
	<path style="fill-rule:evenodd;clip-rule:evenodd;fill:#F1732E;" d="M464.45,290.96c-0.08-0.02-0.12-0.07-0.12-0.15
		C464.42,290.83,464.46,290.88,464.45,290.96z"/>
	<path style="fill-rule:evenodd;clip-rule:evenodd;fill:#FDF4A0;" d="M489.29,294.3c-0.9-0.03-1.65,0.24-2.07,1.11
		c-1.65,1.58-3.67,2.02-5.87,1.87c-0.46-0.39-0.97-0.04-1.45-0.08c-2.17,0.43-4.15-0.27-6.11-1.06c-0.38-0.15-0.69-0.39-0.81-0.81
		c-0.04-0.28-0.01-0.54,0.23-0.72c2.03,0.92,4.15,1.58,6.39,1.56c2.82-0.03,5.55-0.49,7.92-2.21c0.23-0.17,0.5-0.25,0.78-0.27
		c0.33,0,0.63,0.1,0.9,0.28c0.04,0.05,0.08,0.1,0.12,0.14C489.31,294.17,489.3,294.24,489.29,294.3z"/>
	<path style="fill-rule:evenodd;clip-rule:evenodd;fill:#FEE41A;" d="M472.23,297.96c0.1-0.32,0.19-0.64,0.29-0.96
		c0.13-0.33,0.39-0.35,0.68-0.26c1.63,0.55,3.23,1.22,4.96,1.48c0.22,0.03,0.46,0.17,0.32,0.49c-0.09,0.55-0.19,1.1-0.28,1.65
		c-1.83-0.56-3.71-0.98-5.44-1.86C472.5,298.36,472.26,298.28,472.23,297.96z"/>
	<path style="fill-rule:evenodd;clip-rule:evenodd;fill:#FDEA26;" d="M487.84,296.77c-0.79,1.24-2.25,1.14-3.39,1.66
		c-1.06,0.49-2.35,0.29-3.35,1.01c-0.2-0.12-0.45-0.2-0.58-0.37c-0.23-0.28-0.85,0.1-0.8-0.41c0.04-0.35,0.43-0.62,0.84-0.72
		c1.79-0.34,3.61-0.56,5.32-1.25C486.53,296.44,487.19,296.58,487.84,296.77z"/>
	<path style="fill-rule:evenodd;clip-rule:evenodd;fill:#FDED51;" d="M487.84,296.77c-2.07-0.06-3.85,1.22-5.9,1.32
		c-0.49,0.02-0.93,0.07-1.38-0.13c0.26-0.22,0.53-0.45,0.79-0.67c1.01-0.49,2.19-0.21,3.2-0.73c0.86-0.44,1.78-0.77,2.67-1.14
		c-0.05,0.13-0.1,0.26-0.15,0.39c-0.1,0.18-0.09,0.39-0.17,0.57c0.35,0.34,0.92-0.07,1.23,0.38
		C488.04,296.76,487.94,296.76,487.84,296.77z"/>
	<path style="fill-rule:evenodd;clip-rule:evenodd;fill:#FDEF67;" d="M472.98,295.34c1.75,1.01,3.64,1.56,5.66,1.67
		c0.42,0.02,0.89-0.15,1.26,0.2c-0.32,0.25-0.64,0.5-0.96,0.76c-2.28,0.08-4.44-0.25-6.18-1.91
		C472.68,295.77,472.79,295.54,472.98,295.34z"/>
	<path style="fill-rule:evenodd;clip-rule:evenodd;fill:#FDEC3D;" d="M472.76,296.05c1.89,1.2,4.07,1.44,6.18,1.91
		c-0.15,0.25-0.31,0.5-0.46,0.75c-1.99-0.57-3.97-1.14-5.96-1.71C472.6,296.68,472.68,296.37,472.76,296.05z"/>
	<path style="fill-rule:evenodd;clip-rule:evenodd;fill:#F9D512;" d="M480.48,300.68c-0.06,0.39,0.04,1-0.53,0.99
		c-0.61-0.01-0.73-0.6-0.76-1.13c-0.02-0.47,0.08-0.94,0.63-0.94C480.48,299.6,480.4,300.21,480.48,300.68z"/>
	<path style="fill-rule:evenodd;clip-rule:evenodd;fill:#FDEA26;" d="M481.2,299.64c0.05,0.08,0.11,0.16,0.16,0.24
		C481.31,299.8,481.25,299.72,481.2,299.64z"/>
	<path style="fill-rule:evenodd;clip-rule:evenodd;fill:#F1732E;" d="M478.41,301.04c-0.04-0.06-0.07-0.12-0.11-0.19
		C478.33,300.91,478.37,300.98,478.41,301.04z"/>
	<path style="fill-rule:evenodd;clip-rule:evenodd;fill:#FEE321;" d="M464.76,289.05c-0.08,0.08-0.15,0.15-0.23,0.23
		c-0.96-0.48-2.33-3.35-2.14-4.48c0.23-0.17,0.47-0.34,0.7-0.51c0.1-0.08,0.2-0.15,0.25-0.27l-0.02,0c0.66,0.08,0.31,0.65,0.47,0.98
		c0.17,0.37,0.08,0.83,0.28,1.21h0C463.92,287.25,464.57,288.09,464.76,289.05z"/>
	<path style="fill-rule:evenodd;clip-rule:evenodd;fill:#F8DE18;" d="M462.93,281.68c-0.08,0.31,0.18,0.91-0.46,0.84
		c-0.59-0.06-0.79-0.58-0.8-1.14c-0.01-0.46,0.03-0.98,0.62-0.92C462.99,280.52,462.88,281.16,462.93,281.68z"/>
	<path style="fill-rule:evenodd;clip-rule:evenodd;fill:#FDEB42;" d="M464.08,286.2c-0.64-0.6-0.23-1.55-0.74-2.19
		c0.09-0.15,0.17-0.3,0.26-0.45C464.01,284.39,464.09,285.29,464.08,286.2z"/>
	<path style="fill-rule:evenodd;clip-rule:evenodd;fill:#FDF4A2;" d="M463.89,281.64c0.22,0.23,0.24,0.46,0,0.7
		C463.89,282.11,463.89,281.88,463.89,281.64z"/>
	<path style="fill-rule:evenodd;clip-rule:evenodd;fill:#F1732E;" d="M461.63,283.03c-0.08,0.01-0.12-0.02-0.14-0.09
		C461.57,282.92,461.62,282.95,461.63,283.03z"/>
	<path style="fill-rule:evenodd;clip-rule:evenodd;fill:#FDEB42;" d="M463.35,284.01c-0.08,0.09-0.17,0.18-0.25,0.27
		C463.18,284.19,463.27,284.1,463.35,284.01z"/>
	<path style="fill-rule:evenodd;clip-rule:evenodd;fill:#FCEB44;" d="M463.07,279.96c0.1,0.08,0.2,0.16,0.29,0.25
		C463.26,280.13,463.17,280.05,463.07,279.96z"/>
	<path style="fill-rule:evenodd;clip-rule:evenodd;fill:#FEF7BD;" d="M488.56,293.88c-1.39,0.44-2.48,1.44-3.92,1.88
		c-3.39,1.04-6.68,0.89-10.01-0.16c-0.6-0.19-1.05-0.51-1.42-0.99c-0.01-0.08-0.01-0.17-0.02-0.25l0.03-0.02
		c0.78-0.35,1.4,0.17,2.03,0.43c5.4,2.26,12.8-0.36,15.71-4.58c2.06-2.99,2.66-6.26,2.12-9.81c-0.15-0.96-0.72-1.9-0.21-2.91
		c0.31-0.2,0.63-0.19,0.96-0.04c0.35,0.25,0.47,0.63,0.56,1.02c1.02,4.4,0.57,8.56-1.97,12.39c-0.67,1.01-1.52,1.85-2.45,2.62
		C489.58,293.78,489.14,294.1,488.56,293.88z"/>
	<path style="fill-rule:evenodd;clip-rule:evenodd;fill:#EDDD45;" d="M471.77,296.13c-0.43-0.19-0.85-0.38-1.28-0.58
		c0.49-0.33,1.04-0.65,1.6-0.32C472.25,295.32,472.04,295.87,471.77,296.13z"/>
	<path style="fill-rule:evenodd;clip-rule:evenodd;fill:#EDDD45;" d="M471.54,296.86c0.06-0.12,0.12-0.24,0.17-0.35
		C471.65,296.63,471.6,296.75,471.54,296.86z"/>
	<path style="fill-rule:evenodd;clip-rule:evenodd;fill:#FDEB42;" d="M496.48,284.71c-0.39,0.01-0.63,0.13-0.45,0.58
		c0.07,0.04,0.12,0.1,0.16,0.17l0.06,0.05c-0.06,1.51-1.01,2.78-1.12,4.27c-0.28-0.46-0.53,0.02-0.79,0.03
		c-0.79-0.24-0.33-0.75-0.2-1.11c0.6-1.61,1.06-3.22,1.09-4.96c0.03-1.86,0.06-3.71-0.51-5.5c-0.06-0.19-0.09-0.39-0.04-0.59
		c0.19-0.34,0.48-0.45,0.85-0.39c0.97,0.96,0.96,2.21,1.02,3.44c-0.39,0.38-0.73,0.77-0.47,1.37
		C496.89,282.84,496.39,283.82,496.48,284.71z"/>
	<path style="fill-rule:evenodd;clip-rule:evenodd;fill:#FDEF63;" d="M494.83,277.54c1.21,3.78,1.08,7.52-0.36,11.22
		c-0.12,0.32-0.6,0.63-0.14,1.05c-0.94,0.92-1.48,2.11-2.15,3.21c-0.21-0.11-0.3,0.05-0.42,0.18c-0.71,0.38-0.99,1.49-2.07,1.22
		c-0.07,0.01-0.13-0.02-0.17-0.08c-0.1-0.05-0.18-0.12-0.25-0.21l-0.01-0.01c0.85-0.91,1.9-1.6,2.65-2.63
		c2.25-3.09,3.26-6.5,2.87-10.35c-0.12-1.22-0.59-2.38-0.5-3.63C494.48,277.41,494.66,277.42,494.83,277.54z"/>
	<path style="fill-rule:evenodd;clip-rule:evenodd;fill:#FAE82C;" d="M491.92,292.92c0.18-0.19,0.23-0.04,0.28,0.11
		c0.08,0.12,0.16,0.25,0.24,0.37c-0.88,1.16-2.01,2.04-3.16,2.9c-0.23-0.16-0.47-0.32-0.7-0.48c-0.19-0.49,0.34-0.28,0.46-0.47
		c0.17-0.09,0.34-0.18,0.51-0.27c0.07-0.08,0.14-0.17,0.21-0.25l-0.01,0.01C490.53,294.27,491.27,293.64,491.92,292.92z"/>
	<path style="fill-rule:evenodd;clip-rule:evenodd;fill:#F8E105;" d="M494.16,291.63c-0.01,0.49,0.05,0.99-0.63,0.89
		c-0.2-0.03-0.44-0.06-0.27-0.33c0.24-0.38,0.47-0.84,0.83-1.05C494.28,291.04,494.07,291.51,494.16,291.63z"/>
	<path style="fill-rule:evenodd;clip-rule:evenodd;fill:#FDE119;" d="M496.55,280.7c-0.35-1.15-0.69-2.29-1.04-3.44
		c-0.3-0.26-0.13-0.67-0.31-0.97c-0.16-0.27-0.44-0.44-0.54-0.75c-0.02-0.1-0.03-0.2-0.02-0.31c0.03-0.15,0.09-0.28,0.16-0.42
		c0.1-0.21,0.21-0.42,0.3-0.63c0.07-0.17,0.14-0.34,0.21-0.5c0.04-0.08,0.11-0.15,0.18-0.2c1.41,1.05,1.42,2.74,1.9,4.22
		c0.13,0.41,0.14,0.85,0.22,1.28c0.16,0.81,0.07,1.47-0.9,1.68c0,0-0.09,0.05-0.09,0.05L496.55,280.7z"/>
	<path style="fill-rule:evenodd;clip-rule:evenodd;fill:#FBDF22;" d="M496.48,284.71c-0.63-0.81,0.04-1.82-0.41-2.65
		c0.42-0.24,0.66-1.12,1.3-0.58c0.62,0.52-0.01,0.96-0.36,1.34c-0.12,0.13-0.26,0.2-0.09,0.34c0.11,0.1,0.3,0.11,0.42,0.2
		c0.44,0.33,0.78,0.76,0.45,1.31C497.43,285.27,496.93,285.05,496.48,284.71z"/>
	<path style="fill-rule:evenodd;clip-rule:evenodd;fill:#FCCC28;" d="M496.2,285.46c-0.05-0.06-0.11-0.11-0.16-0.17
		C496.09,285.35,496.14,285.4,496.2,285.46z"/>
	<path style="fill-rule:evenodd;clip-rule:evenodd;fill:#FCC11B;" d="M486.9,299.14c0.1,0.08,0.19,0.16,0.29,0.24
		C487.09,299.29,486.99,299.21,486.9,299.14z"/>
	<path style="fill-rule:evenodd;clip-rule:evenodd;fill:#FAE82C;" d="M489.51,296.55c-0.08-0.09-0.17-0.18-0.25-0.27
		C489.35,296.38,489.43,296.46,489.51,296.55z"/>
	<path style="fill-rule:evenodd;clip-rule:evenodd;fill:#FDED48;" d="M491.92,292.92c-0.33,1.08-1.22,1.53-2.17,1.92
		c-0.02-0.14-0.03-0.28-0.05-0.42C490.68,294.27,490.94,293.06,491.92,292.92z"/>
	<path style="fill-rule:evenodd;clip-rule:evenodd;fill:#EEE060;" d="M489.03,295.35c-0.16,0.16-0.31,0.31-0.47,0.47
		c-0.25-0.04-0.7-0.09-0.55-0.36C488.19,295.12,488.68,295.35,489.03,295.35z"/>
	<path style="fill-rule:evenodd;clip-rule:evenodd;fill:#FDF4A0;" d="M486.9,296.37c0.06-0.19,0.12-0.38,0.17-0.57
		C487.02,295.99,486.96,296.18,486.9,296.37z"/>
	<path style="fill-rule:evenodd;clip-rule:evenodd;fill:#FEF284;" d="M489.29,294.13c0.08,0.07,0.16,0.14,0.25,0.21
		c-0.08-0.01-0.16-0.02-0.25-0.04C489.28,294.24,489.28,294.19,489.29,294.13z"/>
	<path style="fill-rule:evenodd;clip-rule:evenodd;fill:#FDED48;" d="M489.76,294.83c-0.07,0.08-0.14,0.17-0.21,0.25
		C489.61,295,489.68,294.91,489.76,294.83z"/>
	<path style="fill-rule:evenodd;clip-rule:evenodd;fill:#FEE216;" d="M489.8,267.48c1.97,0.48,5.25,3.75,5.28,5.28
		c-0.05,0-0.1,0-0.15,0.01c-0.1,0-0.2-0.01-0.29-0.03c-0.1-0.02-0.19-0.05-0.29-0.08c-0.35-0.11-0.69-0.02-1.04,0.03
		c-0.11,0-0.22-0.01-0.32-0.05c-0.92-1.36-2.32-2.23-3.49-3.34C489.42,268.66,489.24,268.01,489.8,267.48z"/>
	<path style="fill-rule:evenodd;clip-rule:evenodd;fill:#FEE219;" d="M482.06,266.47c0.24-0.46,0.48-0.93,0.72-1.39
		c1.99,0.11,3.79,0.95,5.65,1.55c0.16,0.05,0.24,0.37,0.36,0.56c-0.12,0.37-0.4,0.61-0.69,0.85c-0.34,0.2-0.68,0.16-1.02,0.02
		c-1.54-0.62-3.12-1.08-4.79-1.2C482.11,266.84,481.91,266.74,482.06,266.47z"/>
	<path style="fill-rule:evenodd;clip-rule:evenodd;fill:#2A2626;" d="M493.21,272.54c0.06,0.03,0.1,0.02,0.13-0.04
		c0.4-0.16,0.8-0.12,1.2-0.03c0.07,0.05,0.14,0.08,0.22,0.07c0.09,0.06,0.18,0.13,0.27,0.19l0.04,0.03
		c0.14,0.24,0.29,0.48,0.43,0.72c-0.04,0.06-0.05,0.12-0.02,0.19c-0.08,0.17-0.08,0.36-0.16,0.52c-0.09,0.25-0.19,0.49-0.28,0.74
		c-0.09,0.06-0.15,0.14-0.18,0.25c-0.06,0.04-0.09,0.09-0.08,0.17c-0.08,0.26-0.2,0.5-0.27,0.75c0.11,0.21,0.28,0.09,0.43,0.06
		c0.19-0.04,0.38-0.14,0.58-0.04c0.37,0.39-0.14,0.77-0.02,1.15c-0.22,0.09-0.45,0.19-0.67,0.28c-0.16,0-0.32,0-0.48,0
		c-0.16,0.16-0.33,0.16-0.49,0c-0.33,0-0.65,0-0.98,0c-0.57,0.13-0.65,0.03-0.51-0.64c0.31-0.46,0.72-0.85,1-1.33
		c0.18-0.26,0.36-0.53,0.51-0.82c0.18-0.52,0.35-1.02-0.54-0.83c-0.17,0.12-0.32,0.29-0.54,0.36c-0.25-0.01-0.43-0.13-0.55-0.35
		c-0.14-0.37-0.04-0.69,0.19-0.99C492.64,272.69,492.93,272.62,493.21,272.54z"/>
	<path style="fill-rule:evenodd;clip-rule:evenodd;fill:#2A2626;" d="M488.1,267.65c0.23-0.16,0.46-0.31,0.7-0.47
		c0.37-0.01,0.83-0.35,1,0.3c-0.01,0.71-0.02,1.42-0.03,2.13c0.29,0.3,0.11,0.71,0.25,1.05c0.07,0.38,0.37,0.69,0.37,1.1
		c-0.29,0.78-0.96,0.55-1.53,0.56c-0.18-0.03-0.34-0.09-0.48-0.2c-0.08-0.08-0.12-0.18-0.14-0.3c0-0.11,0.03-0.21,0.06-0.32
		c0.03-0.1,0.07-0.2,0.1-0.29c0.09-0.24,0.11-0.49,0.11-0.74c0-0.2-0.01-0.41-0.01-0.61c0-0.2,0-0.41,0-0.61c0-0.15,0-0.29,0-0.44
		c-0.01-0.18-0.04-0.37-0.12-0.54C488.26,268.08,488.21,267.86,488.1,267.65z"/>
	<path style="fill-rule:evenodd;clip-rule:evenodd;fill:#FEF6B9;" d="M488.62,271.32c-0.05,0.1-0.11,0.19-0.16,0.29
		c-0.01,0.06-0.05,0.11-0.11,0.15l-0.04,0.05c-0.5,0.17-0.83-0.19-1.21-0.38c-2.29-1.12-4.64-1.97-7.26-1.6
		c-0.38-0.4-0.61,0.19-0.94,0.15c-1.29-0.48-2.47,0.02-3.66,0.41c-0.29,0.09-0.54,0.34-0.89,0.26c-0.25-0.24-0.37-0.51-0.24-0.86
		c0.79-0.85,1.81-1.01,2.89-1.03c0.39-0.01,0.83,0.27,1.17-0.16l0.05,0.06l-0.06-0.06c0.59-0.22,1.17-0.35,1.73,0.06
		c0.92-0.16,1.9,0.32,2.77-0.29c0.12-0.01,0.24,0.01,0.35,0.06c1.59,0.31,3.12,0.8,4.57,1.57
		C488.16,270.3,488.59,270.63,488.62,271.32z"/>
	<path style="fill-rule:evenodd;clip-rule:evenodd;fill:#FDE51A;" d="M478.51,267.23c0-0.87,0-1.75,0.01-2.62
		c0.4-0.33,0.8-0.37,1.2,0c0.01,0.23,0.03,0.46,0.04,0.69c0.17-0.07,0.39-0.1,0.49-0.22c0.3-0.4,0.63-0.85,1.15-0.46
		c0.52,0.39,0.23,0.94,0.01,1.4c-0.2,0.42-0.47,0.81-0.72,1.21C479.96,267.45,479.24,267.43,478.51,267.23z"/>
	<path style="fill-rule:evenodd;clip-rule:evenodd;fill:#FCE92D;" d="M488.75,268.68c0,0.16,0.01,0.32,0.01,0.48
		c-0.32,0.26-0.58,0.04-0.86-0.1c-1.55-0.79-3.15-1.42-4.92-1.53l0.03-0.02c-0.05-0.11-0.14-0.19-0.23-0.26l0.01,0.01
		c-0.3-0.21-0.97,0.27-0.96-0.51c0.08-0.09,0.15-0.18,0.23-0.27c1.76,0.2,3.49,0.54,5.11,1.28c0.33,0.15,0.66,0.36,0.93-0.09
		c0.25,0.06,0.51,0.12,0.48,0.47C488.67,268.3,488.66,268.5,488.75,268.68z"/>
	<path style="fill-rule:evenodd;clip-rule:evenodd;fill:#FDEF69;" d="M482.79,268.47c-0.05-0.01-0.09-0.04-0.11-0.09
		c0.11-0.25,0.21-0.51,0.31-0.76c2.19,0.08,4.21,0.6,5.79,2.25c-0.01,0.24-0.01,0.48-0.02,0.72c-0.98-0.21-1.71-0.95-2.64-1.28
		C485.03,268.93,483.93,268.65,482.79,268.47z"/>
	<path style="fill-rule:evenodd;clip-rule:evenodd;fill:#FCEB47;" d="M488.79,269.87c-1.7-1.33-3.79-1.69-5.79-2.25l0-0.09
		c1.94-0.61,3.43,0.61,5.06,1.25c0.25,0.1,0.47,0.25,0.71,0.38C488.77,269.39,488.78,269.63,488.79,269.87z"/>
	<path style="fill-rule:evenodd;clip-rule:evenodd;fill:#FBEC5A;" d="M478.51,267.23c0.73-0.35,1.46-0.29,2.19,0
		c-0.25,0.4-0.45,0.85-0.95,1.01c-0.41,0.03-0.83,0.17-1.24-0.05C478.51,267.87,478.51,267.55,478.51,267.23z"/>
	<path style="fill-rule:evenodd;clip-rule:evenodd;fill:#FBC41B;" d="M479.71,264.61c-0.4,0-0.8,0-1.2,0
		c-0.02-0.16-0.03-0.32-0.05-0.48c0.56-0.34,1.17-0.25,1.77-0.22C480.07,264.14,479.89,264.38,479.71,264.61z"/>
	<path style="fill-rule:evenodd;clip-rule:evenodd;fill:#FCEB47;" d="M481.83,266.74c0.32,0.17,0.64,0.34,0.96,0.51
		c-0.13,0.07-0.29,0.12-0.39,0.23c-0.36,0.38-0.99,0.38-1.15,0.13C481.02,267.28,481.54,266.98,481.83,266.74z"/>
	<path style="fill-rule:evenodd;clip-rule:evenodd;fill:#FDF290;" d="M478.51,268.19c0.42-0.21,0.84-0.4,1.24,0.05
		c0.05,0.14,0.11,0.28,0.16,0.43c-0.58-0.02-1.15-0.04-1.73-0.06C478.29,268.46,478.4,268.33,478.51,268.19z"/>
	<path style="fill-rule:evenodd;clip-rule:evenodd;fill:#FCEB47;" d="M482.79,267.25c0.08,0.09,0.16,0.18,0.23,0.26
		C482.94,267.42,482.87,267.33,482.79,267.25z"/>
	<path style="fill-rule:evenodd;clip-rule:evenodd;fill:#FEE51A;" d="M465.74,271.81c-0.29-0.47-0.06-0.78,0.27-1.12
		c1.01-1.05,2.05-2.06,3.36-2.75c0,0,0,0.02,0,0.02c0.16,0.4,0.15,0.81,0.01,1.22c0.06,0.53-0.07,0.99-0.49,1.35
		c0.07,0.1,0.12,0.25,0.03,0.32c-1.07,0.86-1.93,1.88-2.63,3.06c-0.09,0.16-0.27,0.13-0.38-0.04c-0.03-0.25-0.03-0.5,0.09-0.73
		C465.91,272.7,465.83,272.26,465.74,271.81z"/>
	<path style="fill-rule:evenodd;clip-rule:evenodd;fill:#FDE01A;" d="M470.37,267.22c0.53-0.8,1.21-1.16,2.16-0.75
		c0.87-0.04,0.68,0.62,0.74,1.11c-0.48,1.39-1.76,1.5-2.91,1.81C470.36,268.67,470.36,267.95,470.37,267.22z"/>
	<path style="fill-rule:evenodd;clip-rule:evenodd;fill:#FDED4C;" d="M466.01,273.96c0.54-1.5,1.62-2.54,2.88-3.44
		c0.3,0.1,0.61,0.2,0.91,0.31c0.27,0.47-0.13,0.72-0.34,1.03c-0.49,0.33-1.11,0.46-1.5,0.96c-0.15,0.16-0.26,0.35-0.38,0.53
		c-0.06,0.1-0.13,0.19-0.2,0.28c-0.33,0.39-0.57,0.83-0.81,1.28c-0.12,0.22-0.19,0.59-0.54,0.46c-0.26-0.09-0.15-0.41-0.14-0.63
		C465.89,274.48,465.79,274.19,466.01,273.96z"/>
	<path style="fill-rule:evenodd;clip-rule:evenodd;fill:#FBF086;" d="M469.28,271.83c0.17-0.33,0.35-0.67,0.52-1
		c0.35-0.19,1.13,0.21,0.96-0.7c0.56-0.74,1.23-1.18,2.2-0.82c0.4,0.56,0.09,0.97-0.29,1.36c-0.97,0.48-1.87,1.1-2.86,1.55
		C469.55,272.22,469.33,272.14,469.28,271.83z"/>
	<path style="fill-rule:evenodd;clip-rule:evenodd;fill:#F9E841;" d="M473.04,269.34c-0.86-0.03-1.5,0.57-2.28,0.79
		c-0.36-0.13-0.49-0.38-0.41-0.74c0.69-0.88,2.17-0.56,2.64-1.77C473.71,268.17,473.8,268.75,473.04,269.34z"/>
	<path style="fill-rule:evenodd;clip-rule:evenodd;fill:#FDC91B;" d="M469.38,269.18c0-0.41-0.01-0.81-0.01-1.22
		C469.58,268.36,469.56,268.77,469.38,269.18z"/>
	<path style="fill-rule:evenodd;clip-rule:evenodd;fill:#FEF9D3;" d="M479.67,269.64c2.85-0.76,5.3,0.4,7.75,1.58
		c0.32,0.15,0.6,0.38,0.9,0.58c0.1,0.11,0.2,0.22,0.3,0.33c1.68,0.13,3.87,2.11,4.21,3.79c0.07,0.33,0,0.63-0.17,0.91
		c-0.3,0.36-0.32,0.62,0.23,0.71c0.46,2.54,1.03,5.04,0.51,7.68c-0.89,4.46-3.39,7.52-7.52,9.37c-4.27,1.91-8.47,1.78-12.65-0.25
		c-4.78-2.09-7.14-5.86-7.72-10.93c-0.27-2.37,0.15-4.62,0.95-6.83c0.01-0.06,0-0.12-0.02-0.18c-0.36-0.92,0.12-1.33,0.93-1.54
		c0.52,0.61,1.04,1.22,1.07,2.08c-1.27,1.97-1.32,4.18-1.07,6.37c0.59,5.07,4.56,9.6,9.54,10.7c7.16,1.58,14.4-2.95,14.83-10.72
		c0.36-6.5-4.12-11.25-10.19-11.95c-0.41-0.05-0.79,0.1-1.19,0.09C479.71,270.99,479.39,270.43,479.67,269.64z"/>
	<path style="fill-rule:evenodd;clip-rule:evenodd;fill:#F4E87B;" d="M467.34,274.88c-0.38,0.46-0.95,0.81-0.9,1.52
		c-1.29-0.92-0.55-2.13-0.46-3.25c0.01,0.27,0.02,0.55,0.03,0.82c-0.01,0.12-0.02,0.24-0.02,0.35c0.01,0.27,0.04,0.54,0.06,0.81
		c0.11-0.22,0.18-0.47,0.32-0.66c0.33-0.43,0.51-0.99,1.05-1.23C467.88,273.81,467.94,274.36,467.34,274.88z"/>
	<path style="fill-rule:evenodd;clip-rule:evenodd;fill:#FAAC27;" d="M464.57,272.01c0.16-0.06,0.32-0.13,0.48-0.19
		C464.89,271.88,464.73,271.94,464.57,272.01z"/>
	<path style="fill-rule:evenodd;clip-rule:evenodd;fill:#292525;" d="M473.04,269.34c0.21-0.58,0.23-1.15-0.05-1.72
		c-0.12-0.4,0.26-1-0.46-1.15c0.11-0.93,0.83-0.62,1.37-0.67c0.42,0.35,0.32,0.83,0.35,1.28c0,0.25,0,0.5,0,0.75
		c0,0.18,0,0.36-0.01,0.54c0,0.23-0.01,0.46-0.01,0.69c0.01,0.28-0.05,0.56-0.14,0.83c0.12,0.24,0.23,0.47,0.35,0.71
		c-0.83,0.77-1.21,0.76-1.93-0.04C472.84,270.22,473.03,269.82,473.04,269.34z"/>
	<path style="fill-rule:evenodd;clip-rule:evenodd;fill:#FCC41D;" d="M474,267.2c-0.03-0.47-0.06-0.93-0.1-1.4
		c0.76-1.08,1.92-1.17,3.09-1.21l0.05,0.03c0.03,0.05,0.05,0.1,0.08,0.15c-0.02,0.05-0.03,0.11-0.05,0.16
		c-0.29,0.42-0.77,0.53-1.22,0.66c-0.82,0.24-1.4,0.68-1.57,1.56C474.2,267.26,474.1,267.27,474,267.2z"/>
	<path style="fill-rule:evenodd;clip-rule:evenodd;fill:#FDE319;" d="M474.15,267.25c-0.28-1.35,0.67-1.66,1.65-1.95
		c0.42-0.13,0.82-0.29,1.23-0.44c0.16,0.05,0.31,0.12,0.44,0.23c0.12,0.63,0.22,1.27,0.03,1.9c-1.09,0.48-2.28,0.61-3.42,0.94
		C474.04,267.69,473.99,267.46,474.15,267.25z"/>
	<path style="fill-rule:evenodd;clip-rule:evenodd;fill:#FEEC3A;" d="M474.17,267.96c0.94-0.91,2.13-0.98,3.33-0.97
		c0.03,0.34,0.08,0.68-0.22,0.94c-1.1,0.22-2.16,0.69-3.32,0.5c0-0.16,0.01-0.31,0.01-0.47
		C474.03,267.84,474.1,267.84,474.17,267.96z"/>
	<path style="fill-rule:evenodd;clip-rule:evenodd;fill:#FDF290;" d="M474.09,269.88c-0.27-0.2-0.17-0.47-0.14-0.73
		c0.88-0.87,1.88-1.22,3.08-0.74c0.33,0.42,0.75,0.21,1.15,0.18C476.87,269.19,475.35,269.11,474.09,269.88z"/>
	<path style="fill-rule:evenodd;clip-rule:evenodd;fill:#FEEF5D;" d="M477.03,268.41c-1.11-0.11-2.07,0.42-3.08,0.74
		c0-0.24,0-0.48,0-0.72c1.08-0.32,2.14-0.85,3.32-0.5C477.19,268.09,477.11,268.25,477.03,268.41z"/>
	<path style="fill-rule:evenodd;clip-rule:evenodd;fill:#FCC41D;" d="M477.47,265.08c-0.15-0.08-0.29-0.15-0.44-0.23l0.02-0.02
		c0.08-0.08,0.16-0.08,0.25-0.01C477.35,264.91,477.41,264.99,477.47,265.08z"/>
	<path style="fill-rule:evenodd;clip-rule:evenodd;fill:#F49B2B;" d="M477.3,264.82c-0.08,0-0.17,0.01-0.25,0.01
		c-0.01-0.07-0.01-0.14-0.01-0.21C477.12,264.69,477.21,264.76,477.3,264.82z"/>
	<path style="fill-rule:evenodd;clip-rule:evenodd;fill:#FEF284;" d="M493.86,277.54c0.16,0,0.33,0,0.49,0
		c1.43,4.41,1.11,8.65-1.22,12.69c-0.93,1.62-2.03,3.12-3.85,3.88c-0.26,0-0.54,0.04-0.71-0.23c3.1-1.58,4.54-4.38,5.51-7.52
		C494.99,283.4,494.44,280.47,493.86,277.54z"/>
	<path style="fill-rule:evenodd;clip-rule:evenodd;fill:#F7E63A;" d="M494.08,276.07c0.24-0.24,0.47-0.49,0.71-0.73
		c0.25,0.26,0.49,0.51,0.74,0.77c-0.16,0.09-0.32,0.18-0.48,0.27C494.68,276.42,494.22,276.76,494.08,276.07z"/>
	<path style="fill-rule:evenodd;clip-rule:evenodd;fill:#FDC31D;" d="M495.33,274.19c0.05-0.17,0.11-0.35,0.16-0.52
		C495.43,273.84,495.38,274.02,495.33,274.19z"/>
	<path style="fill-rule:evenodd;clip-rule:evenodd;fill:#F7E63A;" d="M494.87,275.17c0.06-0.08,0.12-0.16,0.18-0.25
		C494.99,275.01,494.93,275.09,494.87,275.17z"/>
	<path style="fill-rule:evenodd;clip-rule:evenodd;fill:#FDEB36;" d="M489.71,270.6c-0.25-0.34-0.02-0.66,0.06-0.98
		c1.48,0.26,2.25,1.42,3.09,2.48c0.12,0.15,0.23,0.3,0.35,0.45c-0.18,0.15-0.37,0.3-0.55,0.45c-0.41,0.18-0.57-0.18-0.76-0.39
		C491.24,271.85,490.46,271.25,489.71,270.6z"/>
	<path style="fill-rule:evenodd;clip-rule:evenodd;fill:#FDEB36;" d="M494.55,272.47c-0.4,0.01-0.8,0.02-1.2,0.03
		C493.74,272.18,494.14,272.19,494.55,272.47z"/>
	<path style="fill-rule:evenodd;clip-rule:evenodd;fill:#FDC31D;" d="M495.04,272.73c-0.09-0.06-0.18-0.13-0.27-0.19
		C494.86,272.6,494.95,272.67,495.04,272.73z"/>
	<path style="fill-rule:evenodd;clip-rule:evenodd;fill:#FDF399;" d="M492.66,276.84c-0.19-1.95-2.04-4.1-4.04-4.7
		c0.49-0.27,1.35,0.47,1.56-0.57c1.3,0.24,1.9,1.17,2.26,2.33c0.14,0.09,0.27,0.17,0.41,0.26c0.54,0.35,0.68,0.91,0.79,1.49
		C493.41,276.12,493.14,276.56,492.66,276.84z"/>
	<path style="fill-rule:evenodd;clip-rule:evenodd;fill:#FEF064;" d="M492.44,273.9c-0.59-0.94-1.38-1.68-2.26-2.33
		c-0.51-0.15-0.45-0.58-0.47-0.97c1.42,0.25,2.02,1.53,2.95,2.39C492.59,273.29,492.52,273.59,492.44,273.9z"/>
	<path style="fill-rule:evenodd;clip-rule:evenodd;fill:#F6E536;" d="M493.11,273.67c0.4-0.49,0.89-0.4,1.22-0.03
		c0.38,0.43,0.01,0.88-0.25,1.27C493.33,274.83,493.09,274.36,493.11,273.67z"/>
	<path style="fill-rule:evenodd;clip-rule:evenodd;fill:#FCEE60;" d="M493.11,273.67c0.32,0.41,0.65,0.83,0.97,1.24
		c-0.14,0.24-0.29,0.49-0.43,0.73c-0.5-0.37-0.65-0.92-0.79-1.49C492.94,273.99,493.02,273.83,493.11,273.67z"/>
	<path style="fill-rule:evenodd;clip-rule:evenodd;fill:#E2D67D;" d="M494.08,276.07c0.22,0.42,0.63,0.25,0.96,0.31
		c-0.35,0.37-0.78,0.28-1.15,0.12C493.75,276.43,493.89,276.17,494.08,276.07z"/>
	<path style="fill-rule:evenodd;clip-rule:evenodd;fill:#FDF28B;" d="M482.79,268.47c2.04-0.34,3.69,0.64,5.34,1.6
		c0.23,0.14,0.43,0.34,0.64,0.51c0.02,0.26,0.12,0.53-0.15,0.73c-1.31-1.53-3.15-1.98-4.99-2.39
		C483.29,268.86,482.88,268.98,482.79,268.47z"/>
	<path style="fill-rule:evenodd;clip-rule:evenodd;fill:#FCEB47;" d="M488.75,268.68c-0.06-0.18-0.11-0.37-0.17-0.55
		C488.64,268.31,488.69,268.49,488.75,268.68z"/>
	<path style="fill-rule:evenodd;clip-rule:evenodd;fill:#FDF28B;" d="M488.36,271.75c0-0.07,0.04-0.12,0.11-0.15
		C488.48,271.69,488.45,271.74,488.36,271.75z"/>
	<path style="fill-rule:evenodd;clip-rule:evenodd;fill:#242021;" d="M479.67,269.64c0.23,0.59,0.45,1.18,0.68,1.76
		c0.85,1.38,0.71,2.9,0.57,4.39c-0.21,2.23-0.35,4.44,0.37,6.62c0.17,0.5,0.16,1.02,0.01,1.53c-0.25,0.79-0.69,1.35-1.6,1.35
		c-0.86,0-1.34-0.52-1.48-1.29c-0.16-0.87-0.7-1.38-1.38-1.85c-1.61-1.12-3.04-2.45-4.18-4.06c-0.29-0.41-0.65-0.83-0.54-1.41
		c0.06-0.12,0.15-0.21,0.27-0.27c1.24-0.23,2.14,0.46,3.03,1.14c1.06,0.81,1.8,1.92,2.61,2.96c0.25,0.33,0.47,0.94,0.95,0.76
		c0.53-0.19,0.37-0.83,0.34-1.29c-0.12-1.84-0.57-3.63-0.81-5.45c-0.14-1.08-0.18-2.15-0.02-3.23c0.21-0.44,0.03-1.04,0.53-1.37
		C479.23,269.85,479.16,269.13,479.67,269.64z"/>
	<path style="fill-rule:evenodd;clip-rule:evenodd;fill:#FDF8D1;" d="M479.01,269.95c-0.09,0.47-0.18,0.94-0.27,1.4
		c-1.14-0.63-2.25-0.11-3.36,0.09c-1.3,0.24-2.49,0.8-3.62,1.49c-0.37,0.23-0.7,0.54-1.19,0.48c-0.61-0.25-0.87-0.71-0.81-1.36
		c0.83-0.66,1.7-1.23,2.74-1.51c0.64,0.3,1.28,0.31,1.93,0.04C475.66,269.42,478.09,269.08,479.01,269.95z"/>
	<path style="fill-rule:evenodd;clip-rule:evenodd;fill:#282424;" d="M469.77,272.06c0.26,0.39,0.52,0.79,0.79,1.18
		c0.66,1.03,0.43,2.06-0.15,2.98c-0.43,0.67-1.07,1.2-1.96,0.6c-0.66-0.48-1.01-1.14-1.11-1.94c0.03-0.55,0.07-1.09,0.1-1.64l0,0.01
		c0.16-0.13,0.1-0.35,0.22-0.49c0.41-0.53,0.91-0.9,1.62-0.92C469.44,271.91,469.6,271.98,469.77,272.06z"/>
	<path style="fill-rule:evenodd;clip-rule:evenodd;fill:#F4E87B;" d="M467.66,272.75c-0.07,0.16-0.15,0.33-0.22,0.49
		C467.51,273.08,467.58,272.91,467.66,272.75z"/>
	<path style="fill-rule:evenodd;clip-rule:evenodd;fill:#FEFBE5;" d="M468.44,276.82c1.59,0.14,2.01-0.88,2.12-2.17
		c0.04-0.47-0.01-0.94-0.01-1.41c2.08-1.34,4.33-2.2,6.78-2.55c0.66-0.09,1.19-0.08,1.4,0.67c-0.22,2.54,0.47,4.99,0.79,7.47
		c0.02,0.2,0.12,0.4,0.09,0.59c-0.11,0.85,0.6,2.06-0.5,2.46c-0.95,0.34-1.13-0.94-1.6-1.51c-1.39-1.66-2.65-3.42-5-3.8
		c-0.12-0.04-0.24-0.14-0.33,0.04c1.16,2.54,3.29,4.14,5.47,5.7c0.42,0.3,0.89,0.47,0.8,1.16c-0.11,0.87,0.27,1.49,1.22,1.57
		c1.02,0.08,1.21-0.74,1.42-1.46c0.16-0.56-0.12-1.08-0.31-1.6c-0.63-1.7-0.47-3.48-0.33-5.21c0.15-1.81,0.08-3.58-0.12-5.37
		c1.49-1.11,3-0.2,4.23,0.31c4.11,1.71,6.66,4.71,7.39,9.33c1.19,7.52-5.51,13.76-12.56,13.64c-7.84-0.13-14.67-8.63-11.84-16.89
		C467.72,277.33,467.82,276.84,468.44,276.82z"/>
	<path style="fill-rule:evenodd;clip-rule:evenodd;fill:#FEEF5D;" d="M474.17,267.96c-0.07,0-0.13,0-0.2,0
		c0.01-0.25,0.02-0.51,0.03-0.76c0.05,0.03,0.1,0.04,0.15,0.05C474.16,267.49,474.16,267.72,474.17,267.96z"/>
	<path style="fill-rule:evenodd;clip-rule:evenodd;fill:#585857;" d="M472.19,276.61c-0.14-0.06-0.17-0.18-0.02-0.2
		c0.1-0.02,0.23,0.1,0.35,0.16C472.41,276.58,472.3,276.59,472.19,276.61z"/>
	<path style="fill-rule:evenodd;clip-rule:evenodd;fill:#F9F5CE;" d="M468.14,274.48c0.09-0.85,0.02-1.97,0.89-2.04
		c0.66-0.05,0.81,1.06,0.79,1.77c-0.03,0.76,0.01,1.96-0.77,2.02C468.21,276.31,468.27,275.15,468.14,274.48z"/>
</g>
</svg>
