<?xml version="1.0" encoding="utf-8"?>
<!-- Generator: Adobe Illustrator 16.0.0, SVG Export Plug-In . SVG Version: 6.00 Build 0)  -->
<!DOCTYPE svg PUBLIC "-//W3C//DTD SVG 1.0//EN" "http://www.w3.org/TR/2001/REC-SVG-20010904/DTD/svg10.dtd" [
	<!ENTITY ns_flows "http://ns.adobe.com/Flows/1.0/">
	<!ENTITY ns_extend "http://ns.adobe.com/Extensibility/1.0/">
	<!ENTITY ns_ai "http://ns.adobe.com/AdobeIllustrator/10.0/">
	<!ENTITY ns_graphs "http://ns.adobe.com/Graphs/1.0/">
]>
<svg version="1.0" id="Layer_1" xmlns:x="&ns_extend;" xmlns:i="&ns_ai;" xmlns:graph="&ns_graphs;"
	 xmlns="http://www.w3.org/2000/svg" xmlns:xlink="http://www.w3.org/1999/xlink" xmlns:a="http://ns.adobe.com/AdobeSVGViewerExtensions/3.0/"
	 x="0px" y="0px" width="960px" height="560px" viewBox="0 0 960 560" style="enable-background:new 0 0 960 560;"
	 xml:space="preserve">
<g>
	<path style="fill-rule:evenodd;clip-rule:evenodd;fill:#010101;" d="M498.63,286.75c-0.56,0.02-1.15,0.18-1.67,0.04
		c-1.67-0.44-2.4,0.88-3.41,1.69c-0.08,0.06-0.1,0.18-0.15,0.28c0.14,0.03,0.29,0.08,0.43,0.07c0.81-0.04,1.68-0.2,1.53,1.11
		c-0.12,1.05-0.11,2.04-1.7,2c-3.34-0.08-6.66-0.08-9.98,0.75c-2.9,0.73-5.87,0.32-8.7-0.79c-0.93-0.37-1.9-0.19-2.85-0.15
		c-2.99,0.12-5.98,0.31-8.96,0.47c-0.23,0.01-0.64,0.02-0.67-0.07c-0.55-1.6-1.38-0.39-2.04-0.17c-1.1,0.35-2.18,0.79-3.23,1.27
		c-0.93,0.43-1.33-0.07-1.68-0.77c-0.33-0.65-0.46-1.16,0.42-1.61c1.59-0.82,2.98-2.03,4.71-2.58c1.32-0.42,2.7-0.82,3.7,0.7
		c0.1,0.15,0.51,0.11,0.77,0.12c0.83,0.01,1.67,0,2.51-0.01c1.49-0.28,3-0.37,4.52-0.32c0.29-0.05,0.58-0.05,0.87-0.02
		c1.64,0.1,3.29-0.02,4.93,0c0.39,0.07,0.65-0.17,0.89-0.43c0.08-0.08,0.16-0.16,0.25-0.23c0.09-0.07,0.18-0.13,0.28-0.19
		c0.92-0.51,1.8-1.13,2.89-1.24c0.22-0.02,0.43-0.08,0.64-0.14c0.16-0.04,0.33-0.07,0.5-0.08c0.23-0.02,0.46-0.02,0.7,0
		c0.18,0.01,0.36,0.05,0.54,0.1c0.18,0.07,0.36,0.12,0.53,0.2c0.14,0.07,0.28,0.15,0.4,0.26c0.24,0.22,0.51,0.45,0.43,0.8
		c-0.1,0.44-0.54,0.47-0.87,0.45c-1.42-0.09-2.74,0.39-4.09,0.69c-0.11,0.03-0.23,0.04-0.34,0.1c0.04,0.04,0.06-0.02,0.09-0.02
		c1.66-0.16,3.34,0.21,4.98-0.21c0.47,0,0.93-0.05,1.4-0.04c0.39,0.04,0.78,0.02,1.17,0.02c0.61,0,1.23,0.01,1.84,0
		c0.38,0,0.74-0.06,1.08-0.25c0.13-0.08,0.26-0.16,0.39-0.25c0.08-0.06,0.17-0.11,0.26-0.17c0.08-0.06,0.17-0.12,0.26-0.17
		c0.04-0.03,0.09-0.06,0.13-0.09c0.46-0.29,0.86-0.66,1.22-1.07c0.58-0.57,0.54-1.31,0.53-2.03c-0.01-0.88,0.08-1.67,1.09-2.03
		c0.63-0.22,0.6-0.89,0.72-1.42c0.12-0.51,0.09-1.03,0.13-1.55c0.14-1.54,0.04-3.07-0.33-4.57c-0.25-1.06-0.64-2.06-1.39-2.89
		c-0.6-0.94-1.45-1.64-2.3-2.34c-0.12-0.11-0.23-0.22-0.35-0.32c-0.17-0.13-0.34-0.23-0.52-0.35c-0.57-0.39-1.12-0.8-1.76-1.07
		c-1.23-0.54-2.47-1.08-3.79-1.36c-0.11-0.02-0.22-0.05-0.34-0.08c-0.28-0.11-0.57-0.13-0.86-0.17c-3.09-0.56-6.13-0.37-9.06,0.79
		c-1.02,0.4-1.77,1.35-2.94,1.48c-0.11,0.04-0.22,0.07-0.34,0.1c-0.22,0.06-0.44,0.12-0.64,0.22c-2.24,0.99-3.91,2.58-5.05,4.75
		c-0.07,0.15-0.15,0.29-0.23,0.44c-0.04,0.1-0.09,0.2-0.15,0.3c-0.22,0.41-0.32,0.86-0.45,1.3c-0.44,1.65-0.33,3.32-0.17,4.98
		c0.09,0.87,0.39,1.66,1.15,2.27c0.81,0.64,0.99,1.59,0.76,2.61c-0.11,0.34-0.42,0.48-0.7,0.64c-4.87,0.13-9.74,0.26-14.6,0.4
		c-0.44,0.01-0.88,0.01-1.31,0.08c-1.26,0.2-2.34,0.19-2.24-1.56c0.01-0.11-0.07-0.23-0.09-0.34c-0.06-0.4-1.12-0.34-0.6-0.8
		c0.42-0.37,0.94-0.94,1.75-0.79c3.21,0.56,6.45,0.23,9.67,0.1c1.51-0.06,3.02-0.21,4.53-0.27c0.62-0.03,0.84-0.08,0.57-0.81
		c-1.62-4.4-0.31-7.95,2.6-11.56c5.96-7.39,20.64-7.67,26.9-1.3c3.49,3.54,4.23,7.63,3.36,12.24c-0.19,1-0.08,1.26,0.99,1.25
		c4.35-0.02,8.7,0.29,13.05-0.04c0.68-0.05,1.14,0.09,1.4,0.78c0.34,0.89,0.85,1.74,0.37,2.74c-0.13,0.27-0.36,0.25-0.61,0.25
		c-4.11-0.04-8.22-0.08-12.33-0.11C499.56,287.13,499.1,287.08,498.63,286.75z"/>
	<path style="fill-rule:evenodd;clip-rule:evenodd;fill:#030202;" d="M483.19,300.02c-0.02,0.56,0.31,0.61,0.77,0.59
		c2.86-0.13,5.71-0.26,8.57-0.35c0.7-0.02,1.7-0.45,1.84,0.77c0.18,1.53-0.45,2.31-1.76,2.3c-1.87-0.01-3.74-0.03-5.61-0.05
		c-1.5-0.16-2.99-0.27-4.48,0.08c-0.63,0.15-1.27,0.11-1.9,0.04c-4.43-0.48-8.87-0.24-13.3-0.13c-1.71,0.12-3.41,0.22-5.12,0.35
		c-0.47,0.03-0.85,0.04-0.97-0.58c-0.15-0.75,0.12-1.8-1.16-1.88c-0.04,0-0.08-0.12-0.12-0.18c0.22-0.07,0.43-0.2,0.66-0.21
		c2.35-0.14,4.69-0.36,7.04-0.37c3.86-0.02,7.73,0.11,11.59,0.16c0.39,0,0.92,0.24,1.07-0.42c0.17-0.37,0.1-0.77,0.08-1.15
		c-0.05-0.85,0.32-1.15,1.12-0.97c0.46,0.18,0.44,0.58,0.43,0.98c0.04-0.02,0.02-0.06,0.02-0.08c0.01-0.41,0.05-0.79,0.57-0.9
		C483.87,298.33,483.12,299.3,483.19,300.02z"/>
	<path style="fill-rule:evenodd;clip-rule:evenodd;fill:#030202;" d="M456.71,298c-3.15,0.17-5.5,0.25-7.85,0.44
		c-0.86,0.07-1.27-0.14-1.31-1.03c-0.03-0.55-0.07-1.14-0.77-1.34c-0.43-0.13-0.17-0.45-0.02-0.48c0.68-0.14,1.06-0.84,1.94-0.71
		c3.93,0.6,7.88,0.16,11.82-0.05c1.47-0.08,2.95-0.11,4.43-0.17c0.16,0,0.42-0.03,0.46,0.04c0.79,1.52,1.15,0.08,1.58-0.26
		c0.98-0.79,2.23-1.95,3.21-1.29c0.73,0.49-0.25,2.03-0.81,2.94c-0.78,1.25-1.68,2.43-2.63,3.56c-0.63,0.75-1.5,0.4-2.21,0.07
		c-0.5-0.24-1.22-0.47-0.66-1.41c0.34-0.57-0.35-0.3-0.55-0.3C460.87,297.99,458.39,298,456.71,298z"/>
	<path style="fill-rule:evenodd;clip-rule:evenodd;fill:#040404;" d="M511,298.23c-4.31,0.01-8.63,0-12.94,0.05
		c-0.31,0-1.07-0.51-1.02,0.44c0.04,0.68,0.21,1.13,1.13,1.13c3.79-0.01,7.59,0.12,11.38,0.1c1.04,0,1.21,0.33,1.25,1.3
		c0.06,1.55-0.38,2.05-2.03,1.99c-3.87-0.15-7.75-0.09-11.62-0.04c-1.06,0.01-1.26-0.37-0.96-1.28c0.15-0.47,0.54-1.19-0.59-0.8
		c-0.48,0.17-0.55-0.33-0.73-0.62c-0.48-0.82-0.69-1.79-1.36-2.5c0.37-0.4,0.86-0.35,1.34-0.35c4.88,0.02,9.75,0,14.63,0.03
		C510.03,297.67,510.72,297.45,511,298.23z"/>
	<path style="fill-rule:evenodd;clip-rule:evenodd;fill:#040404;" d="M483.19,300.02c-0.26-0.62,0.59-1.85-0.96-1.77
		c-0.16,0.04-0.31,0.1-0.47,0.02c-1.86-0.42-0.89,1.31-1.44,1.89c-0.03-2.16-0.03-2.16-2.2-2.12c-2.2,0.04-4.39,0.03-6.59,0.09
		c-0.77,0.02-1.06-0.15-0.98-1c0.26-2.49,0.22-2.45,2.76-2.57c5.19-0.25,10.38,0.06,15.57,0.05c1.41,0,1.54,0.69,1.7,1.82
		c0.24,1.68-0.49,1.84-1.86,1.67c-1.3-0.16-2.63-0.06-3.95-0.16c-1-0.08-1.59,0.12-1.43,1.29
		C483.38,299.47,483.24,299.75,483.19,300.02z"/>
	<path style="fill-rule:evenodd;clip-rule:evenodd;fill:#030102;" d="M511,298.23c-0.4-0.39-0.91-0.22-1.37-0.22
		c-5.37-0.01-10.75-0.01-16.12-0.02c-0.32-0.07-0.16-0.22-0.06-0.37c-0.14-0.75-0.44-1.47-0.32-2.26c0.07-0.5,0.27-0.91,0.82-1.02
		c0.72-0.17,1.36,0.22,2.05,0.27c4.89-0.03,9.79-0.15,14.68-0.02c1.35,0.04,1.32,1.6,1.46,2.65
		C512.25,297.95,511.89,298.48,511,298.23z"/>
	<path style="fill-rule:evenodd;clip-rule:evenodd;fill:#050404;" d="M506.01,288.6c1.47,0,2.95,0.08,4.41-0.02
		c1.25-0.09,1.58,0.39,1.26,1.51c-0.1,0.23-0.1,0.47-0.07,0.71c0.09,0.72-0.26,0.89-0.91,0.85c-0.76-0.04-1.52-0.01-2.28-0.01
		c-1.39,0.01-2.8,0.24-4.16,0.2c-2.37-0.07-4.76-0.12-7.13-0.32c-0.12-0.9,0.33-1.72,0.41-2.59c0-0.65,0.54-0.57,0.93-0.65
		c0.42-0.08,0.86,0.03,1.29,0.01C501.84,288.41,503.92,288.55,506.01,288.6z"/>
	<path style="fill-rule:evenodd;clip-rule:evenodd;fill:#030202;" d="M467.49,265.91c-0.46,0.85-0.77,1.77-1.38,2.41
		c-0.33,0.34-0.98-0.31-1.42-0.6c-2.1-1.39-4.15-2.84-6.24-4.24c-0.56-0.37-0.56-0.59-0.06-1.04c1.7-1.57,1.68-1.59,3.52-0.23
		c1.64,1.21,3.23,2.48,5.12,3.3C467.24,265.59,467.52,265.64,467.49,265.91z"/>
	<path style="fill-rule:evenodd;clip-rule:evenodd;fill:#030302;" d="M498.44,270.62c0.12-0.49,0-1.16,0.68-1.13
		c1.97,0.09,3.59-0.94,5.33-1.57c2-0.72,3.01-0.27,3.34,1.48c0.12,0.63-0.04,0.98-0.66,1.15c-2.35,0.61-4.67,1.33-7.05,1.8
		C498.95,272.57,498.67,271.48,498.44,270.62z"/>
	<path style="fill-rule:evenodd;clip-rule:evenodd;fill:#040303;" d="M454.84,276.66c1.47,0.02,2.96,0.19,4.41-0.2
		c0.56-0.15,0.8,0.14,0.95,0.62c0.48,1.45-0.32,2.48-1.8,2.31c-2.22-0.26-4.46-0.04-6.7-0.31c-1.2-0.15-1.31-0.96-1.33-1.71
		c-0.02-1,0.92-0.64,1.47-0.68C452.84,276.61,453.85,276.66,454.84,276.66z"/>
	<path style="fill-rule:evenodd;clip-rule:evenodd;fill:#020202;" d="M499.07,259.82c-0.03,0.77-0.45,1.35-0.93,1.88
		c-1.1,1.22-2.46,2.13-3.75,3.12c-1.11,0.85-1.47-0.77-2.37-0.78c-0.16,0,0.32-0.66,0.54-0.98c1.13-1.59,2.35-3.11,3.75-4.48
		c0.36-0.35,0.59-1.18,1.4-0.7C498.45,258.33,499.09,258.84,499.07,259.82z"/>
	<path style="fill-rule:evenodd;clip-rule:evenodd;fill:#020202;" d="M481.33,260.42c0,0.1,0,0.41,0,0.73
		c0.02,1.08-1.12,2.1-2.13,1.89c-0.11-0.02-0.26-0.21-0.28-0.33c-0.33-1.96-1-3.86-0.87-5.88c0.06-0.91,0.23-2.03,1.16-2.13
		c0.79-0.08,1.28,0.93,1.6,1.73C481.28,257.65,481.26,258.93,481.33,260.42z"/>
	<path style="fill-rule:evenodd;clip-rule:evenodd;fill:#040404;" d="M504.04,278.85c1.07-0.48,2.13-0.15,3.18,0.04
		c1.18,0.21,2.35,0.49,3.5,0.83c0.38,0.11,1.28-0.3,1.01,0.81c-0.19,0.77-0.2,1.41-1.31,1.42c-2.75,0.03-5.39-0.63-8.06-1.13
		c-0.96-0.18-0.36-0.7-0.23-1.02c0.25-0.66,0.35-1.69,1.5-0.9c0.5,1.24,1.67,1.27,2.73,1.5c0.85,0.19,1.71,0.35,2.59,0.19
		c-0.73-0.55-1.63-0.35-2.44-0.54C505.62,279.82,504.47,280.05,504.04,278.85z"/>
	<path style="fill-rule:evenodd;clip-rule:evenodd;fill:#1A1717;" d="M467.32,303.27c0.32-0.34,0.74-0.24,1.13-0.24
		c5.85,0,11.7,0,17.55,0.01c0.35,0,0.73-0.09,1.01,0.23c-0.64,0.01-1.27,0.05-1.91,0.04c-0.96-0.01-1.83-0.09-2.74,0.58
		c-0.6,0.44-1.86,1.18-2.33-0.5c-0.09-0.32-0.57-0.16-0.87-0.16C475.21,303.24,471.26,303.26,467.32,303.27z"/>
	<path style="fill-rule:evenodd;clip-rule:evenodd;fill:#080707;" d="M497.13,291.52c4.17,0,8.34-0.04,12.51,0.03
		c1.15,0.02,2-0.08,2.04-1.46c0.2,1.24-0.12,1.98-1.58,1.67c-0.19-0.04-0.4,0-0.6,0.01c-1.93,0.03-3.94-0.36-5.54,1.22
		c-0.22,0.22-0.66,0.52-0.91,0.03c-0.8-1.55-2.23-1.2-3.55-1.26C498.71,291.71,497.88,292.04,497.13,291.52z"/>
	<path style="fill-rule:evenodd;clip-rule:evenodd;fill:#0A0909;" d="M493.44,295.27c0,0.78,0.01,1.57,0.01,2.35
		c-0.47-0.78-0.92-1.57-1.43-2.32c-0.38-0.56-1.14-1.11-0.04-1.64c0.91-0.44,1.94-1.31,2.77,0.05c0.33,0.53,0.68,0.81,1.24,0.9
		c-0.7,0-1.41-0.01-2.11-0.01C492.94,294.29,493.39,294.92,493.44,295.27z"/>
	<path style="fill-rule:evenodd;clip-rule:evenodd;fill:#F7E52F;" d="M504.04,278.85c0.97,0.88,2.2,0.77,3.37,0.93
		c0.92,0.12,1.93,0.06,2.6,0.92c-0.81,0.61-1.73,0.26-2.57,0.2c-0.94-0.06-1.85-0.43-2.79-0.59c-0.86-0.14-1.41-0.42-1.01-1.42
		C503.77,278.88,503.91,278.86,504.04,278.85z"/>
	<path style="fill-rule:evenodd;clip-rule:evenodd;fill:#080607;" d="M499.72,288.64c-0.72,0.13-1.52-0.29-2.18,0.29
		c-1.29-1.56,0.63-1.5,1.1-2.17c0.46,0,0.92-0.01,1.38-0.02c0.35,0.82,1.29,0.89,1.85,1.44c-0.45,0.71-1.11,0.2-1.66,0.27
		c-0.12-0.01-0.25-0.15-0.37,0.01C499.84,288.55,499.8,288.6,499.72,288.64z"/>
	<path style="fill-rule:evenodd;clip-rule:evenodd;fill:#110E0D;" d="M472.4,289.09c-1.57,0-3.15,0-4.72,0
		c0.41-0.08,0.82-0.17,1.23-0.25c-0.3-0.3-0.6-0.6-0.9-0.9c-0.47-0.48-0.94-0.96-1.41-1.45c0.01-0.34,0.2-0.49,0.52-0.5
		c0.86,0.03,1.15,0.86,1.75,1.25c0.41,0.31,0.81,0.63,1.24,0.91c0.09,0.05,0.18,0.11,0.26,0.16c0.14,0.07,0.28,0.14,0.43,0.18
		C471.33,288.71,472.1,288.3,472.4,289.09z"/>
	<path style="fill-rule:evenodd;clip-rule:evenodd;fill:#53514D;" d="M499.72,288.64c-0.02-0.06-0.03-0.12-0.03-0.18
		c0-0.18,0.16-0.22,0.27-0.3c0.63,0.24,1.26,0.48,1.9,0.03c1.34,0.55,2.79,0.02,4.14,0.41
		C503.91,288.61,501.82,288.63,499.72,288.64z"/>
	<path style="fill-rule:evenodd;clip-rule:evenodd;fill:#010101;" d="M484.21,286.68c-0.3,0-0.6,0-0.9,0
		c-1.37-0.18-2.65,0.63-4.01,0.4c-1.55-0.26-3.09-0.02-4.63-0.02c-0.37,0-0.75-0.01-1.13-0.01c-0.19,0-0.39,0-0.59-0.01
		c-1.42-0.07-1.48-0.13-1.66-1.59c-0.03-0.07-0.09-0.11-0.18-0.1c-0.08,0.03-0.15,0.06-0.22,0.11c-0.08,0.05-0.16,0.09-0.24,0.13
		c-0.44,0.15-0.86,0.43-1.34,0.15c-0.28-0.27-0.33-0.6-0.22-0.96c0.46-0.72,1.08-1.21,1.91-1.39c0.35,0.12,0.65-0.12,0.98-0.16
		c0.05-0.01,0.09,0.01,0.13-0.01c-0.12,0.01-0.23,0.01-0.36,0.02c-0.23,0.06-0.45,0.12-0.69,0.08c-2.61-0.9-3.91-2.99-3.5-5.65
		c0.05-0.31,0.12-0.62,0.03-0.94c-0.44-1.67-0.37-1.77,1.29-1.88c0.83-0.04,1.18-0.5,1.12-1.31c0.02-0.17,0.08-0.32,0.18-0.46
		c0.07-0.08,0.16-0.15,0.26-0.2c0.21-0.08,0.43-0.08,0.65-0.03c0.15,0.04,0.3,0.11,0.44,0.18c0.32,0.15,0.61,0.36,0.96,0.43
		c0.63-0.01,0.63-1.04,1.38-0.86c0.47,0.11,0.9,0.28,1.21,0.66c0.1,0.57,0.33,1.02,0.91,1.29c0.47,0.21,0.88,0.54,1.3,0.85
		c1.31,0.99,1.79,2.45,1.34,4.02c-0.34,1.16-1.28,2.18-0.79,3.53c-0.23,0.06-0.47,0.04-0.71,0.04c-0.09,0-0.2-0.03-0.21-0.01
		c-0.07,0.14,0.06,0.26-0.01,0.11c-0.01-0.01,0.02-0.08,0.08-0.08c0.31-0.03,0.63,0.03,0.95-0.06c0.57-0.27,1.17-0.16,1.76-0.18
		c0.48-0.02,0.92-0.07,1.33-0.39c1.14-0.9,1.49-0.9,2.74-0.15c0.2,0.12,0.4,0.25,0.62,0.36c0.56,0.3,1.17,0.2,1.76,0.19
		c1.63-0.01,3.26-0.04,4.86,0.4c0.66,0.39,0.82,1.02,0.87,1.71c0.06,1.74-0.03,1.9-1.23,2.17c-0.65,0.01-1.3,0.1-1.94,0.01
		C487.23,286.89,485.72,286.78,484.21,286.68z"/>
	<path style="fill-rule:evenodd;clip-rule:evenodd;fill:#FAC33C;" d="M471.11,283.58c-0.72,0.25-1.29,0.73-1.85,1.23
		c-0.59,0.3-0.78-0.2-1.02-0.54c-0.72-1.02-1.21-2.16-1.61-3.34c-0.44-1.29-0.7-2.63-1.23-3.88c-0.19-0.44-0.19-0.93-0.01-1.4
		c0.03-0.45,0.16-0.86,0.46-1.2c0.98,0.15,1.97,0.28,2.96,0.27c0.22,0,0.47,0.13,0.42,0.45c-0.4,0-0.79,0.02-1.19-0.02
		c-0.55-0.05-0.72,0.45-0.51,0.63c1.14,1.02,0.09,2.09,0.18,3.12c0.19,2.2,1.68,3.3,3.45,4.19
		C471.3,283.28,471.31,283.44,471.11,283.58z"/>
	<path style="fill-rule:evenodd;clip-rule:evenodd;fill:#FAEC5F;" d="M471.09,273.07c-0.21,0-0.41,0.01-0.62,0.01
		c-0.2-0.07-0.28-0.24-0.36-0.41c-0.03-0.09-0.03-0.18-0.02-0.27c0.03-0.09,0.09-0.16,0.16-0.22c0.1-0.08,0.22-0.14,0.33-0.2
		c0.07-0.04,0.14-0.08,0.22-0.11c0.07-0.04,0.14-0.08,0.2-0.13c0,0,0.09-0.07,0.09-0.08c0.06-0.06,0.11-0.12,0.16-0.18
		c0.02-0.04,0.03-0.08,0.05-0.12c0-0.15-0.01-0.29,0.04-0.43c0.04-0.11,0.09-0.21,0.15-0.31c2-2.66,4.74-3.8,7.98-3.93
		c2.03-0.08,4.06,0.15,6.08-0.13c1.47,0.21,2.8,0.79,4.09,1.51c0.08,0.52,0.78,1,0.08,1.56c-0.47,0.15-0.87-0.01-1.24-0.28
		c-0.71-0.72-1.61-1.14-2.57-1.16c-2.71-0.07-5.44-0.32-8.13,0.18c-2.39,0.44-4.35,1.54-5.46,3.84c-0.19,0.39-0.37,0.81-0.86,0.94
		C471.33,273.15,471.21,273.13,471.09,273.07z"/>
	<path style="fill-rule:evenodd;clip-rule:evenodd;fill:#FAAF3F;" d="M465.39,275.65c0.98,3.05,1.56,6.26,3.45,8.96
		c0.08,0.11,0.28,0.13,0.42,0.2c-0.14,0.37,0.08,0.64,0.26,0.92c-0.05,0.65-0.3,1.21-0.75,1.69c-0.55-0.48-1.09-0.96-1.64-1.44
		c-0.22-1.07,0.12-2.27-1.43-2.89c-0.64-0.25-0.7-1.69-0.76-2.64C464.83,278.83,464.71,277.2,465.39,275.65z"/>
	<path style="fill-rule:evenodd;clip-rule:evenodd;fill:#FBEA4D;" d="M485.55,266.56c-0.29,0.63-0.86,0.46-1.36,0.48
		c-2.03,0.08-4.06-0.12-6.1,0.12c-2.87,0.33-4.97,1.9-6.78,4c-0.18,0.1-0.34,0.08-0.48-0.07c-0.28-1.16,0.74-1.65,1.25-2.41
		c2.65-1.39,5.31-2.75,8.41-2.73c1.39,0.01,2.77-0.01,4.12,0.4c0.26,0.16,0.57,0.06,0.83,0.19l0.06-0.04L485.55,266.56z"/>
	<path style="fill-rule:evenodd;clip-rule:evenodd;fill:#FBE437;" d="M472.07,268.68c0.02,0.98-1.14,1.37-1.16,2.32
		c-0.15,0.41-0.53,0.23-0.81,0.3c-0.5,0.13-1.02,0.23-1.47,0.5c-0.39,0.23-0.87,0.57-0.62,1.01c0.31,0.56,0.63-0.19,0.98-0.18
		c0.2-0.08,0.41-0.15,0.62-0.2c0.1-0.03,0.21-0.03,0.32-0.03c0.1,0.03,0.19,0.08,0.27,0.16c0.09,0.17,0.18,0.35,0.27,0.52
		l-0.01-0.02c-0.19,0.11-0.45,0.17-0.29,0.48c0.5,1.02-0.04,1.44-0.95,1.64c-0.24-0.29-0.6-0.32-0.88-0.22
		c-0.96,0.35-1.77,0.16-2.51-0.51c-0.01-0.08,0.01-0.16,0.07-0.22c0.06-0.1,0.15-0.19,0.18-0.3c1.1-2.36,2.82-4.06,5.27-4.99
		c0.15-0.13,0.38-0.08,0.53-0.22C471.94,268.67,472,268.65,472.07,268.68z"/>
	<path style="fill-rule:evenodd;clip-rule:evenodd;fill:#F6B250;" d="M496.38,279.75c-0.09,0.79-0.19,1.57-0.26,2.36
		c-0.06,0.63-0.26,0.92-1,1.02c-1.18,0.16-0.74,1.23-0.72,1.92c0.03,0.91,0.08,1.74-0.91,2.19c-0.56-0.48-0.56-1.18-0.69-1.82
		c-0.01-0.69,0.34-1.28,0.56-1.9c0.24-0.68,0.44-1.35,0.05-2.05c0.09-0.45,0.71-0.97-0.2-1.3c-0.33-0.12-0.3-0.47-0.07-0.69
		c0.39-0.36,0.66-0.9,1.29-0.95C495,279.07,495.73,279.35,496.38,279.75z"/>
	<path style="fill-rule:evenodd;clip-rule:evenodd;fill:#F5EC86;" d="M484.21,286.68c1.5-0.3,2.99-0.13,4.49,0.02
		c0.3,0.56-0.17,0.78-0.49,1.02c-0.74,0.56-1.53,1.06-2.39,1.43c-1.62,0.34-3.24,0.19-4.86,0.07c-0.15-0.01-0.41-0.03-0.43-0.11
		c-0.08-0.27,0.21-0.26,0.36-0.34c1.23-0.59,2.52-0.94,3.91-0.89c0.35,0.01,0.93,0.32,1.04-0.12c0.07-0.29-0.42-0.72-0.89-0.83
		c-0.14-0.01-0.23-0.11-0.33-0.19C484.47,286.72,484.34,286.7,484.21,286.68z"/>
	<path style="fill-rule:evenodd;clip-rule:evenodd;fill:#D2D4C3;" d="M505.96,284.08c1.51-0.07,3.02-0.13,4.52-0.21
		c1.12-0.06,1.34,0.85,1.42,1.57c0.12,1.05-0.83,0.59-1.3,0.61c-1.39,0.05-2.78-0.02-4.17-0.05
		C506.88,285.21,506.12,284.72,505.96,284.08z"/>
	<path style="fill-rule:evenodd;clip-rule:evenodd;fill:#F9E138;" d="M472.4,289.09c-0.61-0.35-1.42,0.18-1.97-0.44
		c-0.08-0.09-0.15-0.19-0.28-0.21l0.01,0.01c-0.21-1.17,0.66-2.1,0.69-3.22l0.02-0.01c0.15,0.01,0.22-0.09,0.28-0.21l0.01-0.01
		c0.52,0.02,0.39,0.44,0.35,0.69c-0.17,1.07,0.38,1.28,1.27,1.15c0.15-0.02,0.31,0,0.47,0c1.14-0.08,1.9,0.68,2.76,1.22
		c0.24,0.15,0.39,0.41,0.25,0.72c-0.13,0.27-0.4,0.21-0.63,0.22c-0.83,0.01-1.66,0-2.5,0.01
		C472.89,289.03,472.65,289.06,472.4,289.09z"/>
	<path style="fill-rule:evenodd;clip-rule:evenodd;fill:#D8DBCA;" d="M464.92,285.75l-0.1,0.04l-0.1-0.02
		c-1.6,0.28-3.23-0.07-4.83,0.18c-0.24,0-0.48,0.01-0.72,0.01c-0.54-0.24-1.06-0.62-0.96-1.22c0.1-0.62,0.84-0.11,1.2-0.41
		c0.62-0.02,1.23-0.04,1.85-0.05c0.78-0.19,1.58-0.07,2.37-0.08C464.95,284.19,465.02,284.29,464.92,285.75z"/>
	<path style="fill-rule:evenodd;clip-rule:evenodd;fill:#C0C3B1;" d="M474.04,289.85c2.16,0,4.32-0.01,6.48-0.01
		c0.59,0.41,0.31,0.81,0,1.22c-1.09,0.01-2.19,0.01-3.28,0.02c-1.27,0.17-2.55,0.04-3.82,0.08c-0.22,0.01-0.52,0.07-0.58-0.25
		c-0.04-0.2,0.13-0.37,0.27-0.51C473.38,290.14,473.74,290.04,474.04,289.85z"/>
	<path style="fill-rule:evenodd;clip-rule:evenodd;fill:#FBDD39;" d="M491.36,269.15c0.15,0.1,0.29,0.2,0.44,0.31
		c0.09,0.07,0.17,0.16,0.28,0.21c0.94,0.64,1.75,1.41,2.38,2.37c0.33,0.94,0.36,1.83-0.44,2.58c-0.77,0.12-0.98-0.54-1.34-0.98
		c-0.3-0.37-0.63-0.71-0.86-1.13c-0.06-0.11-0.11-0.22-0.14-0.34c-0.01-0.06-0.02-0.12-0.04-0.18c0.03-0.59-0.16-1.13-0.36-1.68
		C491.15,269.92,490.93,269.51,491.36,269.15z"/>
	<path style="fill-rule:evenodd;clip-rule:evenodd;fill:#939789;" d="M471.63,291.17c-1.52,0.08-3.03,0.13-4.54-0.11
		c-0.7-0.66-1.77-0.42-2.49-1.03c1.59-0.42,3.21-0.19,4.82-0.21c1.22-0.02,2.44,0.01,3.66,0.02
		C472.87,290.59,471.85,290.45,471.63,291.17z"/>
	<path style="fill-rule:evenodd;clip-rule:evenodd;fill:#CDCFBF;" d="M480.52,291.06c-0.07-0.41,0.26-0.81,0-1.22
		c1.33-0.02,2.67-0.03,4-0.05c0.59-0.14,1.18-0.04,1.77-0.07c0.65,0.35,0.36,0.86,0.23,1.34l-0.08,0.05l-0.08-0.04
		c-1.74,0.15-3.48,0.14-5.22,0C480.93,291.07,480.73,291.06,480.52,291.06z"/>
	<path style="fill-rule:evenodd;clip-rule:evenodd;fill:#A5AA99;" d="M498.1,284.06c0.22,0.01,0.44,0.01,0.66,0.02
		c0.81,0.28,1.64,0.08,2.46,0.12c0.45,0.02,0.87,0.07,1.17,0.45c0.22,0.29,0.44,0.6,0.29,0.98c-0.16,0.38-0.54,0.23-0.84,0.26
		c-0.54,0.06-1.1-0.12-1.64,0.12c-0.48,0-0.96,0.01-1.44,0.01c-0.34-0.81-0.98-1.2-1.82-1.36c-0.33-0.07-0.87,0.07-0.83-0.57v0
		C496.77,283.89,497.43,283.91,498.1,284.06z"/>
	<path style="fill-rule:evenodd;clip-rule:evenodd;fill:#FAB741;" d="M496.38,279.75c-0.9,0.01-1.69-0.16-1.94-1.2
		c-0.01-0.05-0.01-0.1-0.02-0.15c-0.03-0.21-0.02-0.41-0.01-0.62c0.01-0.28,0.06-0.54,0.2-0.78c0.62-0.6,0.45-1.67,1.31-2.11
		C496.49,276.47,496.57,278.1,496.38,279.75z"/>
	<path style="fill-rule:evenodd;clip-rule:evenodd;fill:#A6AB9A;" d="M486.49,289.91c-0.66-0.04-1.31-0.08-1.97-0.12
		c2.94-0.29,5.88-0.16,8.82,0.09c0.34,0.03,0.82,0.06,0.81,0.52c-0.01,0.43-0.47,0.5-0.82,0.56c-0.43,0.07-0.87,0.05-1.3,0.08
		c-0.41-0.25-0.85-0.09-1.28-0.12c-0.55-0.03-1.05,0.03-1.51-0.47c-0.46-0.51-1.22-0.17-1.84-0.27
		C487.08,290.16,486.75,290.16,486.49,289.91z"/>
	<path style="fill-rule:evenodd;clip-rule:evenodd;fill:#F9EA5B;" d="M473.13,289c0.83-0.04,1.66-0.08,2.49-0.14
		c0.14-0.01,0.34-0.06,0.4-0.17c0.05-0.07-0.05-0.36-0.12-0.38c-0.99-0.23-1.51-1.33-2.59-1.35c-0.07-0.04-0.1-0.08-0.08-0.13
		c0.02-0.05,0.04-0.08,0.06-0.08c0.4-0.01,0.79-0.01,1.19-0.02c0.53,0.23,1.08,0.04,1.62,0.12c0.73,0.23,1.33,0.69,1.96,1.09
		c0.38,0.25,0.83,0.54,0.52,1.13C476.77,289.05,474.95,289.03,473.13,289z"/>
	<path style="fill-rule:evenodd;clip-rule:evenodd;fill:#F9C83A;" d="M495.92,274.89c-0.55,0.67-0.22,1.82-1.25,2.23
		c-0.08-0.07-0.15-0.15-0.2-0.24c-0.1-0.25-0.17-0.5-0.32-0.73c-0.18-0.55-0.77-0.98-0.45-1.66c0.84-0.63,0.54-1.62,0.76-2.45
		C495.24,272.84,495.76,273.77,495.92,274.89z"/>
	<path style="fill-rule:evenodd;clip-rule:evenodd;fill:#B0B5A3;" d="M500.2,285.99c0.32-0.35,0.76-0.14,1.12-0.25
		c0.38-0.11,1.14,0.38,1.09-0.38c-0.03-0.5-0.45-1.05-1.23-1.06c-0.81-0.02-1.66,0.27-2.43-0.23c1.28,0.01,2.57,0.02,3.85,0.03
		c0.57,0.21,1.17,0.11,1.75,0.09c0.73-0.03,1,0.35,1.05,0.98c0.07,0.82-0.53,0.7-1.03,0.71c-0.27,0-0.55-0.06-0.8,0.1
		C502.44,285.99,501.32,285.99,500.2,285.99z"/>
	<path style="fill-rule:evenodd;clip-rule:evenodd;fill:#F9E146;" d="M488.44,289.07c-0.39,0-0.79,0.01-1.18,0.01
		c0.97-1.01,2.19-1.63,3.43-2.24c0.37,0.02,0.74-0.05,1.11,0.02c0.42,0.35,0.78,0.71,0.5,1.32l0,0c-0.09,0.06-0.18,0.13-0.26,0.19
		l-0.05,0.07l-0.08,0c-0.16,0.01-0.25,0.11-0.33,0.23c-0.26,0.35-0.63,0.37-1.01,0.34C489.86,289.03,489.15,288.92,488.44,289.07z"
		/>
	<path style="fill-rule:evenodd;clip-rule:evenodd;fill:#F4ED97;" d="M476.2,286.96c-0.57-0.08-1.18,0.16-1.71-0.23
		c2.94-0.2,5.89-0.17,8.83-0.05c-0.13,0.01-0.26,0.02-0.39,0.03c-0.17,0.16-0.39,0.15-0.59,0.22c-1.1,0.14-1.95,0.88-2.94,1.27
		C478.3,287.84,477.3,287.27,476.2,286.96z"/>
	<path style="fill-rule:evenodd;clip-rule:evenodd;fill:#999D8E;" d="M496.11,284.07c0.66,0.44,1.53,0.2,2.18,0.72
		c0.42,0.34,0.86,0.59,0.47,1.21c-0.63,0-1.26,0.04-1.89-0.01c-0.49-0.04-1.17,0.24-1.41-0.29
		C495.16,285.07,495.64,284.52,496.11,284.07z"/>
	<path style="fill-rule:evenodd;clip-rule:evenodd;fill:#F8E84F;" d="M491.36,269.15c-0.21,1.03,1.08,1.83,0.44,2.92
		c-0.53,0.19-0.8-0.31-1.21-0.45c-0.59-0.39-0.74-1.01-0.91-1.64c-0.01-0.19,0.04-0.35,0.17-0.49c0.15-0.51-0.74-0.86-0.22-1.43
		C490.27,268.33,490.87,268.66,491.36,269.15z"/>
	<path style="fill-rule:evenodd;clip-rule:evenodd;fill:#F6E32F;" d="M461.83,289.96c-0.28,0.21-0.4,0.32-0.53,0.38
		c-1.32,0.62-2.65,1.24-3.98,1.85c-0.17,0.08-0.39,0.2-0.52-0.02c-0.07-0.11-0.07-0.31-0.02-0.44c0.33-0.89,3.64-2.25,4.55-1.89
		C461.45,289.88,461.58,289.9,461.83,289.96z"/>
	<path style="fill-rule:evenodd;clip-rule:evenodd;fill:#F8E862;" d="M490.6,286.96c-0.98,0.92-2.12,1.58-3.34,2.12
		c-0.48,0.02-0.96,0.04-1.44,0.06c0.73-1.08,2.26-1.22,2.88-2.44c0.63,0.01,1.27,0.02,1.9,0.03c0.08,0.05,0.11,0.1,0.09,0.15
		C490.66,286.93,490.63,286.96,490.6,286.96z"/>
	<path style="fill-rule:evenodd;clip-rule:evenodd;fill:#888C7F;" d="M452,286.03c-0.57,0.27-1.18,0.09-1.77,0.16
		c-0.66,0.07-0.69-0.34-0.67-0.83c0.02-0.49-0.04-0.98,0.72-0.91c0.79,0.08,1.59,0.08,2.39,0.12
		C452.93,285.28,452.24,285.55,452,286.03z"/>
	<path style="fill-rule:evenodd;clip-rule:evenodd;fill:#C0C3B2;" d="M503.57,285.98c0.24-0.28,0.57-0.19,0.88-0.23
		c0.28-0.03,0.76,0.11,0.67-0.38c-0.07-0.39,0.04-0.99-0.68-1.05c-0.61-0.05-1.26,0.21-1.82-0.22c1.12-0.01,2.24-0.01,3.35-0.02
		c0.52,0.55,1.93,0.87,0.48,1.92C505.48,285.99,504.52,285.99,503.57,285.98z"/>
	<path style="fill-rule:evenodd;clip-rule:evenodd;fill:#9A9E8F;" d="M452,286.03c-0.18-0.68,0.64-0.89,0.68-1.46
		c0.64,0,1.28,0.01,1.92,0.01c-0.06,1.28,0.93,0.75,1.54,0.88c0.28,0.08,0.62,0.09,0.63,0.51
		C455.18,285.99,453.59,286.01,452,286.03z"/>
	<path style="fill-rule:evenodd;clip-rule:evenodd;fill:#B7BCAA;" d="M487.44,289.89c0.81,0.27,1.94-0.77,2.51,0.78
		c0.18,0.5,1.44-0.17,2.1,0.36c-1.52,0-3.04,0.01-4.56,0.01C486.98,290.68,486.83,290.3,487.44,289.89z"/>
	<path style="fill-rule:evenodd;clip-rule:evenodd;fill:#F9CB4B;" d="M492.3,288.18c-0.17-0.41-0.33-0.81-0.5-1.22
		c-0.21-1,0.17-1.57,1.2-1.68c0.17,0.65,0.33,1.3,0.49,1.96C493.19,287.67,492.78,287.97,492.3,288.18z"/>
	<path style="fill-rule:evenodd;clip-rule:evenodd;fill:#A6A99A;" d="M471.63,291.17c-0.23-1.23,0.97-0.88,1.45-1.33
		c0.32,0,0.64,0.01,0.96,0.01c-0.3,0.38-0.6,0.75-0.9,1.13c0.5,0.01,1.01,0.03,1.52,0.04c0.86,0.02,1.72,0.03,2.59,0.05
		C475.37,291.34,473.5,291.26,471.63,291.17z"/>
	<path style="fill-rule:evenodd;clip-rule:evenodd;fill:#A5AA99;" d="M464.61,290.04c0.94,0.07,1.99-0.12,2.49,1.03
		c-0.82,0.01-1.65,0.05-2.47,0.01c-0.38-0.02-1.03,0.27-1.1-0.3C463.43,290.11,464.09,290.08,464.61,290.04z"/>
	<path style="fill-rule:evenodd;clip-rule:evenodd;fill:#C8CABA;" d="M464.92,285.75c-0.47-2.37-2.4-1.09-3.67-1.46
		c1.28-0.41,2.61-0.13,3.91-0.25c0.71-0.07,0.73,0.62,0.76,1.13C465.95,285.95,465.4,285.8,464.92,285.75z"/>
	<path style="fill-rule:evenodd;clip-rule:evenodd;fill:#F8ED7A;" d="M476.2,286.96c1.29-0.17,2.32,0.32,3.19,1.23l0,0
		c-0.15,0.01-0.22,0.13-0.3,0.22c-0.26,0.15-0.08,0.63-0.49,0.66C478.27,287.83,476.75,287.95,476.2,286.96z"/>
	<path style="fill-rule:evenodd;clip-rule:evenodd;fill:#C9CCBB;" d="M459.4,284.34c-1.58,0.32-0.61,1.02-0.24,1.62
		c-0.24,0-0.48,0-0.72,0c-0.81-0.14-1.77-0.13-1.44-1.42C457.78,284.26,458.59,284.29,459.4,284.34z"/>
	<path style="fill-rule:evenodd;clip-rule:evenodd;fill:#ABAF9E;" d="M456.04,285.76c-0.46-0.42-2.42,1-1.44-1.18
		c0.48,0,0.96,0,1.44,0C456.37,284.97,456.36,285.36,456.04,285.76z"/>
	<path style="fill-rule:evenodd;clip-rule:evenodd;fill:#BBBEAD;" d="M456.04,285.76c0-0.39,0-0.79,0-1.18
		c0.32-0.01,0.64-0.02,0.95-0.03c0.18,0.78,0.64,1.28,1.44,1.42c-0.56,0-1.12,0-1.67,0C456.52,285.9,456.28,285.83,456.04,285.76z"
		/>
	<path style="fill-rule:evenodd;clip-rule:evenodd;fill:#C0C3B1;" d="M481.14,291.07c1.74,0,3.48,0,5.22,0
		C484.63,291.3,482.88,291.3,481.14,291.07z"/>
	<path style="fill-rule:evenodd;clip-rule:evenodd;fill:#C8CBB9;" d="M487.44,289.89c-0.24,0.39-0.2,0.78,0.05,1.15
		c-0.32,0-0.64,0.01-0.96,0.01c-0.22-0.38-0.32-0.76-0.04-1.15C486.8,289.9,487.12,289.9,487.44,289.89z"/>
	<path style="fill-rule:evenodd;clip-rule:evenodd;fill:#C8CABA;" d="M459.88,285.96c1.6-0.42,3.22-0.13,4.83-0.18
		C463.12,286.16,461.5,285.97,459.88,285.96z"/>
	<path style="fill-rule:evenodd;clip-rule:evenodd;fill:#A49871;" d="M481.45,291.95c-0.95,0.01-1.91,0.02-2.86,0.02
		c-0.15,0-0.3-0.07-0.45-0.11c0.15-0.04,0.3-0.11,0.45-0.11c0.95,0.01,1.9,0.03,2.86,0.05c0.1,0.03,0.14,0.07,0.1,0.1
		C481.52,291.94,481.48,291.95,481.45,291.95z"/>
	<path style="fill-rule:evenodd;clip-rule:evenodd;fill:#F8E862;" d="M488.44,289.07c0.7-0.33,1.41-0.23,2.12-0.06
		C489.86,289.03,489.15,289.05,488.44,289.07z"/>
	<path style="fill-rule:evenodd;clip-rule:evenodd;fill:#999D8E;" d="M498.1,284.06c-0.66,0-1.33,0.01-1.99,0.01
		C496.77,283.72,497.43,283.88,498.1,284.06z"/>
	<path style="fill-rule:evenodd;clip-rule:evenodd;fill:#918869;" d="M462.23,289.38c-0.14-0.05-0.27-0.1-0.39-0.15
		c0.19-0.04,0.38-0.1,0.58-0.11c0.13,0,0.26,0.08,0.38,0.12C462.61,289.29,462.43,289.34,462.23,289.38z"/>
	<path style="fill-rule:evenodd;clip-rule:evenodd;fill:#534B3F;" d="M481.45,291.95c0-0.05,0-0.1,0-0.15
		c0.34-0.06,0.69-0.13,1.01,0.08C482.13,292.08,481.79,292.01,481.45,291.95z"/>
	<path style="fill-rule:evenodd;clip-rule:evenodd;fill:#FAEC5F;" d="M485.44,266.54c-0.29,0-0.6,0.08-0.83-0.19
		C484.9,266.32,485.2,266.29,485.44,266.54z"/>
	<path style="fill-rule:evenodd;clip-rule:evenodd;fill:#FBEA4D;" d="M471.89,268.73c-0.17,0.07-0.35,0.15-0.52,0.22
		C471.54,268.88,471.72,268.81,471.89,268.73z"/>
	<path style="fill-rule:evenodd;clip-rule:evenodd;fill:#010101;" d="M482.33,286.93c0.13-0.25,0.34-0.3,0.59-0.22
		C482.78,286.93,482.56,286.95,482.33,286.93z"/>
	<path style="fill-rule:evenodd;clip-rule:evenodd;fill:#010101;" d="M484.6,286.74c0.11,0.06,0.22,0.13,0.33,0.19
		C484.83,286.86,484.71,286.8,484.6,286.74z"/>
	<path style="fill-rule:evenodd;clip-rule:evenodd;fill:#F4ED97;" d="M479.08,288.42c0.1-0.07,0.2-0.15,0.3-0.22
		C479.28,288.27,479.18,288.34,479.08,288.42z"/>
	<path style="fill-rule:evenodd;clip-rule:evenodd;fill:#F9CB4B;" d="M492.04,288.37c0.09-0.06,0.18-0.13,0.26-0.19
		C492.21,288.24,492.13,288.3,492.04,288.37z"/>
	<path style="fill-rule:evenodd;clip-rule:evenodd;fill:#F8E84F;" d="M492.08,269.67c-0.09-0.07-0.19-0.14-0.28-0.21
		C491.9,269.53,491.99,269.6,492.08,269.67z"/>
	<path style="fill-rule:evenodd;clip-rule:evenodd;fill:#F9CB4B;" d="M491.57,288.66c0.11-0.08,0.22-0.16,0.33-0.23
		C491.8,288.51,491.68,288.58,491.57,288.66z"/>
	<path style="fill-rule:evenodd;clip-rule:evenodd;fill:#FAC33C;" d="M466.09,273.94c-0.06,0.1-0.12,0.2-0.18,0.3
		C465.98,274.14,466.04,274.04,466.09,273.94z"/>
	<path style="fill-rule:evenodd;clip-rule:evenodd;fill:#D4D7C6;" d="M473.08,301.37c0.68-0.01,1.35-0.02,2.03-0.03
		c3.27-0.21,6.54-0.05,9.8-0.08c0.64,0,0.96,0.35,0.72,1.03c-0.39,0.28-0.84,0.14-1.27,0.14c-3.73,0.01-7.46,0.01-11.18,0.01
		C471.8,302.23,473.08,301.73,473.08,301.37z"/>
	<path style="fill-rule:evenodd;clip-rule:evenodd;fill:#95988B;" d="M472.64,302.27c4.31,0.01,8.61,0.01,12.92,0.02
		c0.14-0.11,0.29-0.12,0.45-0.05c0.06,0.06,0.09,0.12,0.07,0.18c-0.01,0.07-0.03,0.1-0.04,0.1c-7.59-0.01-15.19-0.01-22.78-0.02
		c-0.28,0-0.71,0.15-0.73-0.36c-0.02-0.39,0.33-0.55,0.63-0.61c0.54-0.11,1.1-0.21,1.65-0.21c2.2,0,4.39,0.05,6.59,0.08
		c-0.12,0.61-0.63,0.52-1.04,0.55c-0.71,0.06-1.43-0.04-2.12,0.24c-0.12,0.05-0.26,0.03-0.34-0.1c0.01,0.18,0.16,0.15,0.25,0.12
		c1.01-0.3,2.05-0.24,3.08-0.22C471.72,302.01,472.23,301.89,472.64,302.27z"/>
	<path style="fill-rule:evenodd;clip-rule:evenodd;fill:#878A7E;" d="M486.04,302.52c0-0.06,0.01-0.11,0.01-0.17
		c0.16-0.25,0.42-0.31,0.69-0.35c0.44-0.06,0.88-0.03,1.32-0.02c0.8,0.12,1.39-0.23,1.83-0.87c0.83,0.02,1.67,0,2.5,0.09
		c0.4,0.04,0.99,0.09,1,0.63c0,0.46-0.51,0.52-0.91,0.58C490.32,302.76,488.18,302.5,486.04,302.52z"/>
	<path style="fill-rule:evenodd;clip-rule:evenodd;fill:#CDCFBF;" d="M486.74,302.29c-0.23,0.02-0.46,0.04-0.69,0.06
		c-0.16-0.02-0.33-0.04-0.49-0.06c0.05-0.87-0.5-0.93-1.16-0.93c-3.09,0-6.18-0.01-9.28-0.02c1.93-0.31,3.87-0.14,5.81-0.17
		c2.02-0.04,4.05-0.02,6.07-0.03C487.19,301.58,486.96,301.93,486.74,302.29z"/>
	<path style="fill-rule:evenodd;clip-rule:evenodd;fill:#BABEAC;" d="M471.21,302.25c-0.72,0.01-1.44,0.02-2.15,0.02
		c-0.48,0-0.96-0.02-1.43-0.03c0.52-0.21,1.03-0.49,1.57-0.6c0.72-0.16,1.51,0.2,2.21-0.25c0.24,0,0.48-0.01,0.72-0.02
		C472.61,302.49,471.62,302.07,471.21,302.25z"/>
	<path style="fill-rule:evenodd;clip-rule:evenodd;fill:#9A9D8F;" d="M489.88,301.11c0.05,1.28-0.79,1.28-1.7,1.19
		c-0.67-0.56-0.12-0.86,0.26-1.19C488.92,301.11,489.4,301.11,489.88,301.11z"/>
	<path style="fill-rule:evenodd;clip-rule:evenodd;fill:#B4B7A7;" d="M488.44,301.12c-0.14,0.38-0.52,0.72-0.26,1.19
		c-0.48,0-0.96-0.01-1.44-0.01c-0.25-0.46,0.11-0.79,0.26-1.16C487.48,301.13,487.96,301.12,488.44,301.12z"/>
	<path style="fill-rule:evenodd;clip-rule:evenodd;fill:#D4C436;" d="M481.75,298.27c0.16-0.06,0.3-0.34,0.47-0.02
		c-0.02,0.51-0.03,1.03-0.06,1.54c-0.03,0.35,0.17,0.91-0.5,0.83c-0.65-0.08-0.22-0.56-0.2-0.84
		C481.51,299.27,481.65,298.77,481.75,298.27z"/>
	<path style="fill-rule:evenodd;clip-rule:evenodd;fill:#C6C8B8;" d="M471.21,302.25c0.33-0.27,1.06-0.12,0.91-0.88
		c0.32,0,0.64,0,0.96-0.01c0.44,0.59-0.15,0.67-0.44,0.9C472.16,302.26,471.68,302.26,471.21,302.25z"/>
	<path style="fill-rule:evenodd;clip-rule:evenodd;fill:#D5D8C7;" d="M455.56,295.86c1.02-0.02,2.05-0.04,3.07-0.06
		c0.38-0.13,0.77-0.07,1.17-0.05c0.3,0.67,0.25,1.25-0.44,1.65c-1.74,0-3.47,0-5.2,0c-0.64-0.15-0.61-0.7-0.54-1.13
		c0.08-0.5,0.58-0.25,0.9-0.3C454.86,295.91,455.23,296.05,455.56,295.86z"/>
	<path style="fill-rule:evenodd;clip-rule:evenodd;fill:#9CA091;" d="M453.95,297.21c1.88,0,3.76,0.01,5.64,0.01
		c0.44-0.31,0.86-0.3,1.27,0.07c-1.11,0.4-2.27,0.16-3.4,0.18c-2.66,0.04-5.32,0.01-7.98,0.01c-0.37,0-0.88,0.14-0.82-0.52
		c0.04-0.48,0.1-0.97,0.8-0.92c0.59,0.05,1.19,0.04,1.78,0.06C452.14,296.48,452.93,297.11,453.95,297.21z"/>
	<path style="fill-rule:evenodd;clip-rule:evenodd;fill:#9A9D8F;" d="M459.84,295.89c-0.4-0.03-0.81-0.06-1.21-0.09
		c1.79-0.41,3.63-0.11,5.44-0.3c0.71-0.08,0.77,0.59,0.84,1.07c0.08,0.51-0.28,0.67-0.75,0.67c-0.95,0-1.9,0.01-2.85,0.02
		C461.07,296.37,461.07,296.37,459.84,295.89z"/>
	<path style="fill-rule:evenodd;clip-rule:evenodd;fill:#F6E331;" d="M468.78,294.92c-0.56,1.46-1.38,2.75-2.6,3.75
		c-0.3,0.24-0.77,0.52-1.04,0.13c-0.18-0.25,0.22-0.58,0.43-0.87c0.83-1.16,1.84-2.14,2.9-3.08
		C468.6,294.74,468.71,294.77,468.78,294.92z"/>
	<path style="fill-rule:evenodd;clip-rule:evenodd;fill:#B7BBAA;" d="M453.95,297.21c-1.27,0.52-1.88-0.55-2.7-1.12
		c1.44-0.08,2.88-0.16,4.31-0.23c-0.18,0.08-0.37,0.25-0.52,0.22C454.03,295.86,453.85,296.39,453.95,297.21z"/>
	<path style="fill-rule:evenodd;clip-rule:evenodd;fill:#C0C2B2;" d="M459.84,295.89c1.02-0.11,2.24-0.45,1.47,1.37
		c-0.15,0.01-0.3,0.02-0.46,0.03c-0.42-0.02-0.84-0.05-1.27-0.07C459.26,296.7,459.7,296.32,459.84,295.89z"/>
	<path style="fill-rule:evenodd;clip-rule:evenodd;fill:#A09B9C;" d="M468.78,294.92c-0.1-0.02-0.21-0.05-0.31-0.07
		c0.13-0.14,0.26-0.28,0.39-0.42C469.06,294.63,468.94,294.78,468.78,294.92z"/>
	<path style="fill-rule:evenodd;clip-rule:evenodd;fill:#ACB09F;" d="M500.06,300.85c2.94,0.01,5.89,0.02,8.83,0.03
		c0.34,0,0.64,0.02,0.63,0.49c-0.01,0.42,0.04,0.84-0.6,0.74c-2.97,0.2-5.95,0.03-8.92,0.09c-0.73,0.01-1-0.58-1.38-0.99
		c-0.24-0.26-0.04-0.43,0.25-0.43C499.27,300.77,499.67,300.71,500.06,300.85z"/>
	<path style="fill-rule:evenodd;clip-rule:evenodd;fill:#A0A494;" d="M500.06,300.85c-0.28,0.01-0.56,0.02-0.84,0.05
		c-0.14,0.01-0.28,0.05-0.42,0.08c0.14,0.05,0.33,0.06,0.4,0.15c1.36,1.83,3.29,0.69,4.94,0.9c1.57,0.2,3.19,0.06,4.79,0.07
		c-3.62,0.44-7.26,0.06-10.88,0.17c-0.41,0.01-0.63-0.15-0.52-0.57c0.11-0.43,0.06-1.04,0.76-1.02
		C498.87,300.72,499.47,300.8,500.06,300.85z"/>
	<path style="fill-rule:evenodd;clip-rule:evenodd;fill:#D2C243;" d="M496.06,299.02c0,0.3-0.17,0.63-0.23,0.56
		c-0.31-0.34-0.58-0.72-0.77-1.14c-0.12-0.27,0.19-0.26,0.37-0.26C496.13,298.16,495.87,298.79,496.06,299.02z"/>
	<path style="fill-rule:evenodd;clip-rule:evenodd;fill:#B3B7A5;" d="M482.17,297.11c-3.11,0.29-6.22,0.22-9.31-0.16
		c-0.44-0.06-0.85-0.14-0.82-0.78c0.03-0.6,0.45-0.58,0.83-0.62c5.19-0.49,10.38-0.1,15.57-0.19c1-0.02,0.78,0.88,0.88,1.42
		c0.12,0.65-0.5,0.47-0.85,0.46c-1.99-0.03-3.99-0.08-5.98-0.12c1.54-0.43,3.11-0.08,4.66-0.2c0.08-0.01,0.14,0.04,0.18,0.12
		c0.01-0.03,0.01-0.07-0.02-0.12c-0.03-0.04-0.1-0.01-0.19-0.01c-1.23,0.01-2.45,0-3.68,0.01
		C483.01,296.92,482.56,296.84,482.17,297.11z"/>
	<path style="fill-rule:evenodd;clip-rule:evenodd;fill:#C7CBB9;" d="M482.17,297.11c-0.1-0.3,0.09-0.32,0.31-0.32
		c1.67,0,3.34,0,5.01,0.01c0.15,0,0.3,0.07,0.44,0.11c-0.15,0.04-0.3,0.1-0.45,0.1c-1.66,0.04-3.33,0.07-4.99,0.1
		C482.38,297.11,482.28,297.11,482.17,297.11z"/>
	<path style="fill-rule:evenodd;clip-rule:evenodd;fill:#ABAF9E;" d="M510.76,297.28c-0.36,0.39-0.83,0.19-1.24,0.2
		c-4.63,0.08-9.26,0.08-13.89-0.17c-0.43-0.02-1.25,0.32-1.14-0.55c0.08-0.64,0.28-1.42,1.3-1.4c3.55,0.04,7.1,0.04,10.66,0.05
		c0.05,0.16,0.01,0.28-0.14,0.36c-1.54,0.44-3.11,0.16-4.66,0.19c-0.46,0.03-0.93-0.03-1.4,0.04c-0.34,0.05-0.64,0.2-0.6,0.59
		c0.03,0.37,0.38,0.35,0.64,0.35c0.55,0,1.1,0.02,1.66-0.02c2.51-0.03,5.02-0.07,7.52,0.02C509.94,296.89,510.4,296.9,510.76,297.28
		z"/>
	<path style="fill-rule:evenodd;clip-rule:evenodd;fill:#BFC1B1;" d="M510.76,297.28c-0.42-0.02-0.83-0.03-1.25-0.05
		c-0.55-0.96-1.32-1.48-2.47-1.34c-0.23,0.03-0.46-0.09-0.61-0.31c0.01-0.06,0.01-0.12,0.02-0.18c0.87-0.02,1.74-0.04,2.62-0.07
		C510.4,295.28,510.87,295.81,510.76,297.28z"/>
	<path style="fill-rule:evenodd;clip-rule:evenodd;fill:#DECD55;" d="M493.44,295.27c-0.23-0.32-0.66-0.64-0.27-1.04
		c0.13-0.13,0.79-0.37,0.72,0.37C493.45,294.63,493.48,294.98,493.44,295.27z"/>
	<path style="fill-rule:evenodd;clip-rule:evenodd;fill:#ADB2A0;" d="M510.34,289.56c0.39,0.81,0.25,1.25-0.77,1.24
		c-1.78-0.02-3.56,0.03-5.35,0.05c-0.09,0.04-0.17,0.04-0.25-0.01l-0.09,0.03l-0.09-0.04c0.02-0.51-0.55-1.27,0.55-1.35
		C506.35,289.53,508.35,289.38,510.34,289.56z"/>
	<path style="fill-rule:evenodd;clip-rule:evenodd;fill:#8A8D81;" d="M500.91,290.82c-0.51,0.04-1.02,0.1-1.53,0.12
		c-0.48,0.02-1.02,0.04-0.92-0.7c0.08-0.55,0.15-1.12,0.96-1.05c0.66,0.06,1.34-0.06,1.99,0.2
		C501.94,290.11,501.6,290.53,500.91,290.82z"/>
	<path style="fill-rule:evenodd;clip-rule:evenodd;fill:#9EA293;" d="M500.91,290.82c0.49-0.37,0.55-0.88,0.5-1.44
		c0.08,0,0.16,0,0.24,0c0.7,0.29,1.48-0.14,2.17,0.25c0.45,0.41,0.29,0.8-0.03,1.19C502.83,290.83,501.87,290.82,500.91,290.82z"/>
	<path style="fill-rule:evenodd;clip-rule:evenodd;fill:#8A8D81;" d="M503.82,289.63c-0.72-0.16-1.49,0.2-2.17-0.25
		c2.9,0.06,5.8,0.11,8.7,0.17C508.17,289.58,505.99,289.61,503.82,289.63z"/>
	<path style="fill-rule:evenodd;clip-rule:evenodd;fill:#9EA293;" d="M503.98,290.83c0.08,0,0.17,0.01,0.25,0.01
		C504.15,290.84,504.06,290.83,503.98,290.83z"/>
	<path style="fill-rule:evenodd;clip-rule:evenodd;fill:#F7E42B;" d="M465.89,266.18c-0.18,0.31-0.34,0.76-0.69,0.55
		c-1.64-0.96-3.53-1.55-4.71-3.18c-0.18-0.25-0.42-0.61-0.21-0.87c0.29-0.36,0.57,0.06,0.8,0.21c1.5,0.98,2.98,1.99,4.47,2.99
		C465.67,265.97,465.78,266.08,465.89,266.18z"/>
	<path style="fill-rule:evenodd;clip-rule:evenodd;fill:#F5E22E;" d="M506.32,268.72c-0.14,0.01,0.17-0.05,0.19,0.38
		c0.02,0.32-0.11,0.5-0.44,0.6c-1.67,0.49-3.3,1.17-5.05,1.34c-0.18,0.02-0.46,0.02-0.53-0.09c-0.15-0.23,0.1-0.32,0.27-0.42
		C502.36,269.61,504.07,269,506.32,268.72z"/>
	<path style="fill-rule:evenodd;clip-rule:evenodd;fill:#F5E22C;" d="M456.2,278.39c-1.07-0.08-2.1-0.14-3.12-0.24
		c-0.15-0.01-0.29-0.22-0.43-0.33c0.12-0.07,0.23-0.2,0.35-0.21c1.93-0.09,3.88,0.24,5.8-0.24c0.31-0.08,0.37,0.2,0.36,0.46
		c-0.02,0.4-0.24,0.56-0.62,0.56C457.74,278.39,456.95,278.39,456.2,278.39z"/>
	<path style="fill-rule:evenodd;clip-rule:evenodd;fill:#F6E32D;" d="M494.28,263.42c-0.53,0.02-0.31-0.32-0.22-0.53
		c0.3-0.72,0.87-1.23,1.43-1.75c0.38-0.35,0.68-0.8,1.1-1.1c0.37-0.26,0.28-1.4,1.11-0.75c0.66,0.52,0.09,1.1-0.26,1.55
		C496.58,261.91,495.47,262.7,494.28,263.42z"/>
	<path style="fill-rule:evenodd;clip-rule:evenodd;fill:#D3C342;" d="M479.34,258.21c0-0.24-0.02-0.48,0.01-0.72
		c0.02-0.18,0.07-0.49,0.15-0.5c0.33-0.05,0.32,0.27,0.39,0.48c0.09,0.26,0.18,0.54,0.19,0.81c0.03,0.58,0.36,1.16,0,1.73
		c-0.03,0.05-0.25,0.04-0.32-0.02C479.2,259.5,479.35,258.83,479.34,258.21z"/>
	<path style="fill-rule:evenodd;clip-rule:evenodd;fill:#FCE931;" d="M480.1,260.85c-0.11,0.08-0.19,0.14-0.27,0.19
		c-0.05-0.08-0.17-0.18-0.15-0.23c0.03-0.09,0.15-0.16,0.23-0.24C479.97,260.65,480.02,260.73,480.1,260.85z"/>
	<path style="fill-rule:evenodd;clip-rule:evenodd;fill:#B4B0B0;" d="M499.96,288.16c-0.09,0.1-0.18,0.2-0.27,0.3
		c-0.14-0.17-0.27-0.35-0.41-0.52C499.61,287.68,499.73,288.1,499.96,288.16z"/>
	<path style="fill-rule:evenodd;clip-rule:evenodd;fill:#F8CC3C;" d="M470.84,285.23c0.64,1.26-0.49,2.14-0.69,3.22
		c-0.56-0.21-0.99-0.6-1.4-1.03c0.01-0.67,0.29-1.22,0.75-1.69C469.96,285.56,470.4,285.39,470.84,285.23z"/>
	<path style="fill-rule:evenodd;clip-rule:evenodd;fill:#F8CC3C;" d="M470.15,288.43c0.09,0.07,0.19,0.14,0.28,0.21
		C470.34,288.58,470.24,288.51,470.15,288.43z"/>
	<path style="fill-rule:evenodd;clip-rule:evenodd;fill:#F3F4BB;" d="M484.16,282.87c-1.03-0.54-1.93-1.84-3.12,0.07
		c-0.31,0.5-2.03,0.12-3.1,0.14c-0.16-0.02-0.19-0.09-0.09-0.21c-0.84-0.77-0.6-1.42-0.03-2.32c1.43-2.26,0.82-4-1.69-5.55
		c-0.62-0.38-1.56-0.58-1.14-1.68c-0.31-0.53,0.05-0.92,0.33-1.28c0.92-1.16,2.15-1.72,3.62-1.75c1.86-0.04,3.73,0.03,5.58-0.11
		c0.46,0.16,0.94,0.26,1.44,0.15c0.39-0.02,0.78-0.02,1.17,0c0.74,0.03,1.18,0.36,1.13,1.16c-0.04,0.11-0.11,0.22-0.19,0.3
		c-0.17,0.16-0.3,0.35-0.44,0.53c-0.42,0.56-1.05,0.69-1.69,0.78c-0.49,0.07-0.65,0.34-0.38,0.74c0.45,0.66,0.22,1.27-0.01,1.93
		c-0.54,1.54-0.12,2.97,1.12,3.98c1.42,1.15,1.42,1.15,0.19,2.48c-0.08,0.09-0.15,0.19-0.23,0.28
		C485.91,283.35,485.01,282.97,484.16,282.87z"/>
	<path style="fill-rule:evenodd;clip-rule:evenodd;fill:#FDFDFD;" d="M469.27,278.42c0.01-0.08,0.01-0.28,0.06-0.47
		c0.16-0.63,2.73-2.9,3.32-2.93c1.8-0.09,3.73,1.12,4.26,2.7c0.37,1.11,0.21,2.14-0.67,2.96c-0.49,0.46-0.99,1.1-1.54-0.02
		c-0.18-0.37-0.67-0.72-1.22-0.52c-0.57,0.2-0.83,0.67-0.72,1.23c0.2,1.09-0.41,0.89-1.01,0.68
		C470.39,281.58,469.25,279.94,469.27,278.42z"/>
	<path style="fill-rule:evenodd;clip-rule:evenodd;fill:#F9EF7C;" d="M471.41,273.06c1.92-4.4,5.6-5.48,9.97-5.31
		c1.39,0.05,2.79-0.03,4.19,0.02c1.22,0.04,2.35,0.38,3.13,1.44c-0.21,0.21-0.48,0.23-0.75,0.21c-3.26-0.75-6.58-0.42-9.86-0.27
		c-2.23,0.1-3.99,1.49-5.04,3.57c-0.19,0.38-0.27,0.85-0.71,1.06c-0.32-0.2-0.63-0.4-0.95-0.6
		C471.4,273.15,471.4,273.1,471.41,273.06z"/>
	<path style="fill-rule:evenodd;clip-rule:evenodd;fill:#F5F2A9;" d="M484.89,270.41c-2.01,0.4-4.04,0.15-6.06,0.23
		c-1.83,0.08-3.14,0.95-3.84,2.66c-0.4-0.18-0.79-0.35-1.19-0.53c-0.39-0.56-0.05-0.99,0.3-1.37c1.25-1.38,2.77-2.26,4.67-2.31
		c1.71-0.05,3.42-0.02,5.13-0.01c0.55,0.01,1.15-0.03,1.38,0.67C485.28,270.06,485.28,270.35,484.89,270.41z"/>
	<path style="fill-rule:evenodd;clip-rule:evenodd;fill:#ACB09E;" d="M482.2,283.88c2.39,0.01,4.78,0.04,7.17,0.01
		c1.01-0.01,0.86,0.78,0.96,1.33c0.14,0.82-0.53,0.6-0.96,0.6c-1.99-0.01-3.98-0.04-5.97-0.06
		C482.74,285.3,482.29,284.71,482.2,283.88z"/>
	<path style="fill-rule:evenodd;clip-rule:evenodd;fill:#F7F094;" d="M485.09,269.93c-0.12-0.65-0.64-0.48-1.04-0.49
		c-1.71-0.01-3.42-0.02-5.13,0c-2.06,0.02-3.6,1.07-4.89,2.57c-0.16,0.19-0.16,0.51-0.23,0.77c-0.72,0-0.34,1.58-1.46,1.01
		c0.95-3.23,3.41-5.14,6.79-5.05c2.95,0.08,5.93-0.52,8.83,0.41C487.09,269.72,486.05,269.7,485.09,269.93z"/>
	<path style="fill-rule:evenodd;clip-rule:evenodd;fill:#CCCEBE;" d="M477.4,283.85c0.96,0,1.92,0.01,2.88,0.01
		c0.58,0.57,1.18,1.12,1.34,1.97c-1.55,0.1-3.1,0.02-4.64,0.05c-0.51,0.01-1.01,0-0.98-0.69c0.02-0.55,0.06-1.15,0.83-1.22
		C477.02,283.95,477.22,283.97,477.4,283.85z"/>
	<path style="fill-rule:evenodd;clip-rule:evenodd;fill:#EBE7AA;" d="M484.16,282.87c0.81-0.14,1.83,0.46,2.33-0.71
		c0.52,0.32,0.98,0.28,1.51-0.08c1.13-0.77,3.06-1.19,3.91-0.95c0.55,1.15,0.31,1.83-0.78,2.23c-1.95-0.08-3.91-0.16-5.86-0.25
		C484.89,283.08,484.46,283.27,484.16,282.87z"/>
	<path style="fill-rule:evenodd;clip-rule:evenodd;fill:#F8CC69;" d="M493,285.28c-0.57,0.44-1.23,0.81-1.2,1.68c-0.4,0-0.8,0-1.2,0
		c0-0.08,0-0.15-0.01-0.23c1.76,0.08,0.51-1.35,0.97-1.93c0.78-1.01,0.87-2.34,1.56-3.39c0.11-0.05,0.22-0.06,0.33,0
		c0.49,0.07,0.6,0.29,0.55,0.82C493.9,283.34,493.34,284.27,493,285.28z"/>
	<path style="fill-rule:evenodd;clip-rule:evenodd;fill:#C4C6B6;" d="M477.4,283.85c-0.21,0.09-0.44,0.16-0.64,0.27
		c-0.49,0.28-0.46,0.83-0.47,1.26c-0.01,0.52,0.53,0.38,0.85,0.36c1.53-0.09,3.08,0.27,4.58-0.22c0.28-0.12,0.52-0.18,0.49,0.27
		c-2.32,0.22-4.65,0.36-6.96-0.05c-0.84-0.29-0.79-0.97-0.72-1.66C475.48,284,476.44,283.93,477.4,283.85z"/>
	<path style="fill-rule:evenodd;clip-rule:evenodd;fill:#C0C3B2;" d="M482.21,285.79c-0.16-0.09-0.33-0.18-0.49-0.27
		c-1.32,0.17-0.98-1.09-1.44-1.66c0.64,0,1.28,0.01,1.92,0.02c0.57,0.52,0.82,1.25,1.2,1.89C483,285.77,482.6,285.78,482.21,285.79z
		"/>
	<path style="fill-rule:evenodd;clip-rule:evenodd;fill:#F3DA83;" d="M493.24,281.45c-0.49,1.15-0.33,2.63-1.67,3.36
		c-0.15-0.49-0.3-0.97-0.45-1.45c0.77-0.53,0.94-1.25,0.67-2.11C492.36,280.76,492.83,280.93,493.24,281.45z"/>
	<path style="fill-rule:evenodd;clip-rule:evenodd;fill:#A1A496;" d="M474.52,284.08c0.24,0.55,0.48,1.11,0.72,1.66
		c-0.47-0.03-0.95-0.04-1.42-0.11c-0.44-0.07-0.95-0.01-0.95-0.77c0-0.83,0.58-0.71,1.05-0.8
		C474.12,284.02,474.32,284.07,474.52,284.08z"/>
	<path style="fill-rule:evenodd;clip-rule:evenodd;fill:#F8CC3C;" d="M473.29,286.76c0.02,0.07,0.03,0.13,0.02,0.2
		c-1.77,0.51-1.97-0.72-2.16-1.96c0.24-0.34,0.58-0.49,0.46,0.1C471.31,286.6,472.08,286.87,473.29,286.76z"/>
	<path style="fill-rule:evenodd;clip-rule:evenodd;fill:#353231;" d="M471.11,283.58c0.02-0.16,0.04-0.32,0.05-0.48
		c0.24,0.01,0.48,0.03,0.72,0.05c0.08,0.04,0.1,0.08,0.08,0.12c-0.03,0.04-0.05,0.06-0.08,0.06
		C471.81,283.98,471.57,284.13,471.11,283.58z"/>
	<path style="fill-rule:evenodd;clip-rule:evenodd;fill:#534F4B;" d="M477.85,282.86c0.07,0.06,0.1,0.13,0.09,0.21
		c-0.04,0.01-0.08,0.02-0.11,0.02c-0.38-0.01-0.76-0.03-1.15-0.05C477.02,282.7,477.46,282.96,477.85,282.86z"/>
	<path style="fill-rule:evenodd;clip-rule:evenodd;fill:#3C3837;" d="M471.88,283.33c0-0.06,0-0.12,0-0.18
		c0.33,0.03,0.67,0.06,1,0.09C472.55,283.27,472.22,283.3,471.88,283.33z"/>
	<path style="fill-rule:evenodd;clip-rule:evenodd;fill:#F4E65D;" d="M470.18,273.54c-0.35-0.43-0.04-0.46,0.29-0.48
		C470.37,273.22,470.28,273.38,470.18,273.54z"/>
	<path style="fill-rule:evenodd;clip-rule:evenodd;fill:#F8CC3C;" d="M471.14,285.01c-0.09,0.07-0.19,0.14-0.28,0.21
		C470.95,285.15,471.05,285.08,471.14,285.01z"/>
	<path style="fill-rule:evenodd;clip-rule:evenodd;fill:#F4E65D;" d="M471.41,273.06c0,0.05-0.01,0.09-0.02,0.13
		c-0.1-0.04-0.2-0.08-0.3-0.12C471.2,273.06,471.3,273.06,471.41,273.06z"/>
	<path style="fill-rule:evenodd;clip-rule:evenodd;fill:#090806;" d="M469.83,272.54l-0.08,0.02c-0.15,0.14-0.38,0.09-0.53,0.25
		c-0.17,0.09-0.33,0.21-0.52,0.28c-0.33,0.12-0.35,1.03-0.93,0.43c-0.46-0.47-0.39-1.05,0.07-1.5c0.85-0.82,1.9-1.13,3.07-1.01
		c0.13,0.05,0.27,0.1,0.4,0.15c0.04,0.07,0.08,0.14,0.11,0.21c0.05,0.08,0.05,0.16-0.03,0.23l-0.01,0.01
		c-0.08,0.08-0.15,0.17-0.25,0.23l0.01,0c-0.08,0.12-0.17,0.2-0.32,0.22l-0.09,0l-0.06,0.06c-0.1,0.08-0.19,0.16-0.32,0.19
		l-0.09-0.01l-0.07,0.06C470.1,272.45,469.98,272.52,469.83,272.54z"/>
	<path style="fill-rule:evenodd;clip-rule:evenodd;fill:#080705;" d="M485.09,269.93c0.81-0.82,1.86-0.74,2.87-0.78
		c0.24,0.02,0.49,0.04,0.73,0.07c0.39,0.09,0.78,0.19,1.17,0.28c0.01,0.13,0.02,0.26,0.03,0.39c-0.2,0.51-0.61,0.71-1.11,0.8
		c-1-0.09-1.99-0.35-3-0.07c-0.25-0.27-0.8,0.75-0.88-0.21C484.96,270.25,485.02,270.09,485.09,269.93z"/>
	<path style="fill-rule:evenodd;clip-rule:evenodd;fill:#F4E65D;" d="M470.36,272.29c0.11-0.06,0.21-0.12,0.32-0.19
		C470.57,272.17,470.47,272.23,470.36,272.29z"/>
	<path style="fill-rule:evenodd;clip-rule:evenodd;fill:#F4E65D;" d="M470.83,272.05c0.11-0.07,0.21-0.15,0.32-0.22
		C471.04,271.9,470.94,271.97,470.83,272.05z"/>
	<path style="fill-rule:evenodd;clip-rule:evenodd;fill:#F4E65D;" d="M469.83,272.54c0.12-0.07,0.25-0.13,0.37-0.2
		c0,0.07,0,0.15,0,0.22C470.08,272.55,469.95,272.55,469.83,272.54z"/>
	<path style="fill-rule:evenodd;clip-rule:evenodd;fill:#F4E65D;" d="M471.14,271.83c0.08-0.08,0.17-0.15,0.25-0.23
		C471.31,271.67,471.23,271.75,471.14,271.83z"/>
	<path style="fill-rule:evenodd;clip-rule:evenodd;fill:#F4E65D;" d="M471.4,271.59c0-0.08,0.01-0.15,0.03-0.23
		c0.02,0.06,0.05,0.11,0.06,0.17C471.49,271.55,471.43,271.57,471.4,271.59z"/>
	<path style="fill-rule:evenodd;clip-rule:evenodd;fill:#F4E65D;" d="M469.22,272.8c0.18-0.08,0.35-0.16,0.53-0.25
		C469.57,272.64,469.4,272.72,469.22,272.8z"/>
	<path style="fill-rule:evenodd;clip-rule:evenodd;fill:#010101;" d="M493.24,281.45c-0.48-0.07-0.96-0.14-1.44-0.21
		c-0.61,0-1.4-0.38-1.5,0.71c-0.01,0.05-0.15,0.15-0.17,0.14c-1.26-0.83-1.89,0.38-2.79,0.8c-0.45,0.21-0.96-0.03-0.86-0.73
		c1.26-0.83,1.28-1.39-0.09-2.32c-1.58-1.07-1.84-2.9-0.98-4.58c0.32-0.62,0.05-0.89-0.23-1.35c-0.38-0.62-0.66-1.31,0.63-1.17
		c0.62,0.07,1.29-0.01,1.67-0.67c0.15-0.12,0.09-0.37,0.3-0.45c0.05,0.02,0.1,0.02,0.15-0.01c0.65-0.03,1.29-0.11,1.93-0.23
		c0.35-0.08,0.71,0.22,1.06-0.01c0.29,0.23,0.59,0.46,0.88,0.69l0.02,0.02c0.07,0.08,0.14,0.15,0.22,0.22
		c0.56,0.73,1.11,1.45,1.67,2.18c0.25,0.56,0.5,1.12,0.75,1.67c0.18,0.23,0.04,0.55,0.2,0.78c-0.05,0.06-0.04,0.12,0.01,0.17
		c0,0.28-0.01,0.56-0.01,0.83c-0.07,0.2-0.08,0.43-0.22,0.6v0c-0.21,0.24-0.38,0.52-0.63,0.7c-0.64,0.44-1.03,0.79,0.13,0.96
		c0.23,0.03,0.53,0.07,0.48,0.39c-0.09,0.5-0.61,0.56-0.95,0.8c0,0-0.12-0.02-0.12-0.02L493.24,281.45z"/>
	<path style="fill-rule:evenodd;clip-rule:evenodd;fill:#F8E84F;" d="M492.04,272.31c-0.07-0.07-0.15-0.15-0.22-0.22
		C491.89,272.16,491.96,272.23,492.04,272.31z"/>
	<path style="fill-rule:evenodd;clip-rule:evenodd;fill:#F6B250;" d="M494.43,278.55c0.07-0.2,0.15-0.4,0.22-0.6
		C494.67,278.18,494.67,278.41,494.43,278.55z"/>
	<path style="fill-rule:evenodd;clip-rule:evenodd;fill:#FAB741;" d="M494.66,276.94c-0.07-0.26-0.13-0.52-0.2-0.78
		C494.73,276.37,494.68,276.66,494.66,276.94z"/>
	<path style="fill-rule:evenodd;clip-rule:evenodd;fill:#F2E87A;" d="M490.92,271.37c-0.33,0.08-0.66,0.16-0.99,0.24
		c-1.12,0.05-1.25-0.11-1-1.2c0.32-0.18,0.64-0.35,0.96-0.53C490.27,270.36,490.1,271.21,490.92,271.37z"/>
	<path style="fill-rule:evenodd;clip-rule:evenodd;fill:#D7DAC9;" d="M506.43,295.58c0.28,0.01,0.57,0.05,0.84,0.01
		c1.3-0.2,2.28,0.02,2.24,1.63c-2.62,0.01-5.23,0.02-7.85,0.03c-0.42-0.49-0.47-1.03-0.2-1.6
		C503.11,295.63,504.77,295.6,506.43,295.58z"/>
	<path style="fill-rule:evenodd;clip-rule:evenodd;fill:#C2C5B3;" d="M501.45,295.65c0.07,0.53,0.14,1.07,0.2,1.6
		c-0.52,0-1.04,0.03-1.56,0c-0.4-0.03-1.01,0.27-0.9-0.63c0.08-0.64,0.14-1.1,0.93-1.01C500.57,295.66,501.02,295.64,501.45,295.65z
		"/>
	<path style="fill-rule:evenodd;clip-rule:evenodd;fill:#E8E297;" d="M488.92,270.41c0.01,0.67,0.17,1.22,1,1.2
		c-0.67,0.35-1.33,0.37-1.99,0c0.25-0.74-0.1-0.97-0.78-0.96c-0.46,0-0.92-0.02-1.38-0.03C486.8,270.21,487.88,270.55,488.92,270.41
		z"/>
	<path style="fill-rule:evenodd;clip-rule:evenodd;fill:#E8E297;" d="M487.78,271.62c-0.1,0.15-0.2,0.3-0.3,0.45
		C487.47,271.85,487.53,271.68,487.78,271.62z"/>
	<path style="fill-rule:evenodd;clip-rule:evenodd;fill:#FDFDFD;" d="M490.37,273.31c1.13-0.05,2.74,2.13,2.82,3.81
		c0.04,0.83-0.25,1.49-1.04,1.85c-0.39,0.18-0.8,0.41-1.01-0.27c-0.13-0.41-0.5-0.73-0.92-0.57c-0.46,0.18-1.13,0.18-1.23,0.88
		c-0.05,0.36-0.14,0.57-0.59,0.53c-1.21-0.09-2.4-1.52-2.18-2.69C486.42,275.85,489.33,273.36,490.37,273.31z"/>
</g>
</svg>
