<?xml version="1.0" encoding="utf-8"?>
<!-- Generator: Adobe Illustrator 16.0.0, SVG Export Plug-In . SVG Version: 6.00 Build 0)  -->
<!DOCTYPE svg PUBLIC "-//W3C//DTD SVG 1.0//EN" "http://www.w3.org/TR/2001/REC-SVG-20010904/DTD/svg10.dtd" [
	<!ENTITY ns_flows "http://ns.adobe.com/Flows/1.0/">
	<!ENTITY ns_extend "http://ns.adobe.com/Extensibility/1.0/">
	<!ENTITY ns_ai "http://ns.adobe.com/AdobeIllustrator/10.0/">
	<!ENTITY ns_graphs "http://ns.adobe.com/Graphs/1.0/">
]>
<svg version="1.0" id="Layer_1" xmlns:x="&ns_extend;" xmlns:i="&ns_ai;" xmlns:graph="&ns_graphs;"
	 xmlns="http://www.w3.org/2000/svg" xmlns:xlink="http://www.w3.org/1999/xlink" xmlns:a="http://ns.adobe.com/AdobeSVGViewerExtensions/3.0/"
	 x="0px" y="0px" width="960px" height="560px" viewBox="0 0 960 560" style="enable-background:new 0 0 960 560;"
	 xml:space="preserve">
<g>
	<path style="fill-rule:evenodd;clip-rule:evenodd;fill:#FEFEFE;" d="M479.92,245.24c14.24,0,28.48,0.01,42.72-0.02
		c0.82,0,0.98,0.16,0.98,0.98c-0.03,23.2-0.03,46.4,0,69.6c0,0.82-0.16,0.98-0.98,0.98c-28.48-0.03-56.96-0.03-85.44,0
		c-0.82,0-0.98-0.16-0.98-0.98c0.03-23.2,0.03-46.4,0-69.6c0-0.82,0.16-0.99,0.98-0.98C451.44,245.25,465.68,245.24,479.92,245.24z"
		/>
	<path style="fill-rule:evenodd;clip-rule:evenodd;" d="M502.71,285.6c-1.1-0.45-1.99,0.25-3.01,0.96c-4.29,3.01-9.12,3.3-14.1,2.48
		c-0.6-0.1-1.06-0.01-1.58,0.25c-3.48,1.73-7.13,2.75-11.06,2.51c-0.52-0.03-0.88,0.15-1.3,0.44c-1.44,1-2.9,0.57-3.62-1.02
		c-0.1-0.23-0.01-0.56-0.4-0.66c-1.83-0.49-3.31-1.89-5.57-1.35c-2.11,0.5-4.26-0.29-6.03-1.7c-1.5-1.2-2.31-2.73-2.16-4.68
		c0.04-0.43-0.02-0.65-0.42-0.82c-2.47-1.09-3.11-3.15-2.87-5.61c0.25-2.56,1.37-4.64,3.56-6.06c0.36-0.23,0.53-0.46,0.61-0.92
		c0.83-5.03,8.34-8.86,12.82-6.52c0.57,0.3,0.91,0.16,1.4-0.05c9.88-4.27,19.85-4.52,29.87-0.54c2.47,0.98,4.54,2.5,5.67,5.03
		c0.57,1.28,0.83,2.61,0.14,3.92c-0.31,0.6-0.14,0.93,0.4,1.07c1.85,0.49,3.11,1.61,3.58,3.46c0.6,2.4,0.45,4.76-0.83,6.94
		C506.71,284.58,505.14,285.65,502.71,285.6z"/>
	<path style="fill-rule:evenodd;clip-rule:evenodd;fill:#030203;" d="M496.09,296.62c-1.47,0.01-2.4-0.5-3.01-1.57
		c-0.61-1.07-0.59-2.11,0.1-3.15c0.35-0.54,0.96-1,0.73-1.79c-0.08-0.27,0.09-0.37,0.31-0.38c0.33-0.02,0.76,0.07,0.78,0.39
		c0.07,1.08,0.99,1.49,1.57,2.16c0.61,0.71,1.08,1.47,1.1,2.45C497.69,295.99,497.22,296.73,496.09,296.62z"/>
	<path style="fill-rule:evenodd;clip-rule:evenodd;fill:#020202;" d="M473.68,301.67c-0.79-0.1-1.8-0.38-2.37-1.24
		c-0.61-0.93-0.24-1.91,0.34-2.8c0.39-0.6,0.88-1.17,0.88-1.93c0.01-0.76,0.5-0.62,0.98-0.67c0.62-0.07,0.41,0.33,0.55,0.66
		c0.46,1.09,1.14,2.09,1.66,3.16C476.55,300.54,475.78,301.69,473.68,301.67z"/>
	<path style="fill-rule:evenodd;clip-rule:evenodd;fill:#020202;" d="M463.19,300.11c-0.34-0.12-0.77-0.16-1.07-0.38
		c-1.28-0.95-1.31-2.27-0.92-3.66c0.37-1.33,1.13-2.27,2.63-2.36c0.42-0.03,0.77-0.1,0.47,0.59c-0.41,0.95,0.5,1.48,0.9,2.16
		c0.49,0.82,0.83,1.66,0.33,2.58C465.03,299.93,464.08,299.91,463.19,300.11z"/>
	<path style="fill-rule:evenodd;clip-rule:evenodd;fill:#030303;" d="M479.95,299.32c0-1.63,0.97-3.03,2.34-3.37
		c0.15-0.04,0.36-0.11,0.46-0.04c0.27,0.17-0.01,0.32-0.09,0.46c-0.29,0.55-0.07,1,0.29,1.4c0.32,0.36,0.66,0.69,0.98,1.04
		c0.67,0.71,1.14,1.6,0.7,2.48c-0.38,0.78-1.28,1.2-2.19,1.23c-1.02,0.03-1.69-0.57-2.1-1.48
		C480.1,300.5,479.95,299.93,479.95,299.32z"/>
	<path style="fill-rule:evenodd;clip-rule:evenodd;fill:#030303;" d="M491.96,297.86c0.17,0.76-0.34,1.12-1.04,1.38
		c-1.01,0.39-1.96,0.35-2.75-0.45c-0.8-0.8-0.95-1.82-0.77-2.88c0.17-0.95,0.69-1.78,1.59-2.1c0.7-0.25,1,0.63,1.45,1.01
		C491.71,295.93,491.97,296.52,491.96,297.86z"/>
	<path style="fill-rule:evenodd;clip-rule:evenodd;fill:#030303;" d="M504.23,291.38c-0.06,1.05-0.56,2.05-1.91,2.3
		c-0.94,0.17-2.06-1.08-2.18-2.31c-0.01-0.15-0.03-0.39,0.06-0.45c0.98-0.71,1.02-1.84,1.35-2.84c0.12-0.37,0.25-0.83,0.77-0.76
		c0.55,0.08,0.52,0.48,0.4,0.91c-0.14,0.47,0.33,0.58,0.56,0.81C503.87,289.63,504.24,290.3,504.23,291.38z"/>
	<path style="fill-rule:evenodd;clip-rule:evenodd;fill:#DCEFF8;" d="M474.16,262.07c0.07-0.06,0.14-0.08,0.22-0.04
		c1.1-0.35,1.71,0.5,2.35,1.06c1.59,1.4,3.39,2.18,5.51,2.19c0.87,0,1.75-0.06,2.62,0.02c1.14,0.1,2.32,0.07,3.29,0.84
		c0.79,2,1.62,3.98,2.31,6.01c0.01,0.78-0.55,1.4-0.58,2.17c-0.05,1.16-0.11,2.31,0.67,3.31c0.19,0.24,0.37,0.54,0.12,0.87
		c-0.62,0.56-1.39,0.45-2.12,0.45c-0.82,0-1.64,0.08-2.45,0.01c-0.16-0.04-0.32-0.12-0.36-0.27c-0.74-2.56-2.94-3.64-4.99-4.81
		c-2.24-1.28-2.6-2.06-1.78-4.53c0.14-0.29,0.41-0.48,0.65-0.69c1-0.88,1-1.16-0.01-2.06c-0.42-0.38-0.91-0.64-1.41-0.9
		c-1.25-0.65-2.39-1.45-3.4-2.44C474.45,262.94,474.03,262.64,474.16,262.07z"/>
	<path style="fill-rule:evenodd;clip-rule:evenodd;fill:#E6EDED;" d="M474.16,262.07c1.03,1.47,2.49,2.44,4.02,3.3
		c0.42,0.24,0.88,0.4,1.26,0.68c1.86,1.34,1.8,2.09-0.25,3.19c-0.87,0.44-1.73,0.12-2.58-0.07c-0.82-1.12-1.97-1.49-3.31-1.58
		c-1.07-0.07-2.14-0.26-3.11-0.8c-1.07-0.6-1.37-1.3-1.08-2.58C470.66,263.16,472.37,262.52,474.16,262.07z"/>
	<path style="fill-rule:evenodd;clip-rule:evenodd;fill:#DBE5E3;" d="M469.12,264.21c0.62,2.33,1.61,2.96,4.78,3.12
		c1.16,0.06,2.38,0.15,2.66,1.67c-0.16,1.26-1.2,1.75-2.1,2.34c-0.96,0.63-2.13,0.82-3.15,1.33c-0.86-0.28-1.2-1.04-1.6-1.74
		c0.01-0.35,0.26-0.55,0.48-0.77c0.79-0.77,0.78-0.99-0.2-1.55c-0.77-0.44-1.44-0.97-2-1.65c-0.51-0.61-0.74-1.3-0.53-2.1
		c0.09-0.24,0.23-0.43,0.48-0.5c0.12,0.1,0.23,0.19,0.35,0.29c0.13,0,0.22-0.1,0.33-0.14C468.79,264.41,468.96,264.31,469.12,264.21
		z"/>
	<path style="fill-rule:evenodd;clip-rule:evenodd;fill:#CDD2C8;" d="M487.12,288.19c-2.04-0.8-3.74,0.3-5.51,0.98
		c-0.22,0.11-0.39-0.01-0.52-0.16c-0.79-0.9-1.7-1.65-2.73-2.25c-0.24-0.14-0.45-0.33-0.44-0.66c0.78-1.38,2.1-1.37,3.42-1.32
		c0.59,0.02,1.15,0.31,1.75,0.3c0.16,0.01,0.34,0,0.46,0.09c1.25,0.93,2.69,1.31,4.21,1.46
		C488.16,287.41,487.67,287.81,487.12,288.19z"/>
	<path style="fill-rule:evenodd;clip-rule:evenodd;fill:#C5D3D0;" d="M503.7,270.47c-0.17,0.39-0.34,0.78-0.51,1.17
		c-0.29,0.25-0.6,0.14-0.89,0.01c-1.26-0.58-2.62-0.9-3.9-1.42c-0.51-0.33-0.93-0.31-1.32,0.23c-0.37,0.51-0.93,0.59-1.51,0.43
		c-0.57-0.16-0.65-0.57-0.62-1.12c0.05-0.85-0.72-0.51-1.13-0.69c-0.95-0.58-1.52-1.52-2.21-2.35c-0.22-0.26-0.43-0.61-0.1-0.97
		c1.02-0.22,1.83,0.2,2.57,0.83c0.18,0.25,0.46,0.34,0.73,0.33c1.15-0.03,2.17,0.4,3.2,0.84c1.47,0.87,3.08,1.41,4.69,1.95
		C503.1,269.86,503.71,269.78,503.7,270.47z"/>
	<path style="fill-rule:evenodd;clip-rule:evenodd;fill:#D5DCD7;" d="M498.37,269.97c1.61,0.56,3.21,1.11,4.82,1.67
		c-0.14,1.23,0.86,1.39,1.64,1.65c1.28,0.42,2.27,1.08,2.7,2.41c0.06,0.08,0.12,0.16,0.16,0.26c0.04,0.16,0.07,0.32,0.11,0.48
		c-0.37,0.55-0.94,0.91-1.38,1.39c-0.33,0.24-0.67,0.48-1.12,0.36c-0.22-0.13-0.34-0.32-0.42-0.55c-0.37-3.21-2.41-5.12-5.97-5.59
		c-0.73-0.21-1.26-0.56-1.05-1.45c0.07-0.15,0.16-0.28,0.27-0.41C498.2,270.1,498.28,270.03,498.37,269.97z"/>
	<path style="fill-rule:evenodd;clip-rule:evenodd;fill:#A5CFD8;" d="M451.81,276.43c0.02-0.32,0.05-0.64,0.07-0.96
		c0.06-0.17,0.17-0.3,0.33-0.38c1.83-0.41,3.26-1.48,4.32-2.96c2.09-2.93,4.82-5.15,7.75-7.15c0.33-0.23,0.62-0.49,0.92-0.75
		c0.3-0.26,0.61-0.54,1.06-0.31c0.33,0.62-0.2,0.93-0.47,1.33c-0.34,0.48-0.72,0.93-1.06,1.42c-0.74,0.6-1.57,1.1-2.19,1.84
		c-2.23,1.25-3.93,3.08-5.5,5.03c-0.68,0.84-1.47,1.55-2.31,2.23C453.78,276.09,452.96,277,451.81,276.43z"/>
	<path style="fill-rule:evenodd;clip-rule:evenodd;fill:#CFE9F5;" d="M488.08,266.36c-1.08-0.59-2.28-0.79-3.45-0.69
		c-3.61,0.31-6.75-0.58-9.28-3.27c-0.27-0.29-0.6-0.36-0.97-0.36c0.26-0.24,0.58-0.3,0.92-0.26c0.16-0.09,0.37-0.06,0.52-0.18
		c0.16-0.02,0.32-0.04,0.48-0.06c1.44,1.13,2.86,2.28,4.76,2.6c0.83,0.14,1.66,0.23,2.5,0.19c1.52-0.08,3.02,0.2,4.53,0.31
		c0.71,0.05,1.42,0.25,1.91,0.86c0.07,0.12,0.08,0.25,0.05,0.38C489.5,266.4,488.83,266.56,488.08,266.36z"/>
	<path style="fill-rule:evenodd;clip-rule:evenodd;fill:#BBE2F3;" d="M490,265.64c-2.07-1.05-4.32-0.96-6.54-0.94
		c-2.32,0.02-4.4-0.55-6.24-1.97c-0.41-0.32-0.86-0.6-0.9-1.2c0.28-0.24,0.62-0.27,0.97-0.22c2.72,2.07,5.87,2.41,9.15,2.3
		c1.39-0.04,2.77,0.09,4.09,0.64c0.49,0.38,0.85,0.79,0.47,1.45C490.64,265.94,490.31,265.9,490,265.64z"/>
	<path style="fill-rule:evenodd;clip-rule:evenodd;fill:#DAE3E1;" d="M470.1,286.32c-0.07,0.07-0.14,0.15-0.21,0.22
		c-0.82,0.17-1.64,0.44-2.41-0.15c-0.07-0.09-0.12-0.2-0.14-0.31c-0.01-0.18,0.02-0.35,0.07-0.52c0.1-0.29,0.2-0.58,0.6-0.51
		c2.78,0.6,7.1-1.35,8.45-3.8c0.35-0.63,0.49-1.45,1.31-1.74c0.39,0.41,0.4,0.99,0.65,1.46c0.17,0.59-0.1,1.08-0.4,1.54
		c-0.9,1.4-2.18,2.35-3.67,3.05c-1.33,0.37-2.63,0.88-4.05,0.74l0.01,0.01C470.23,286.22,470.16,286.22,470.1,286.32z"/>
	<path style="fill-rule:evenodd;clip-rule:evenodd;fill:#AFD5E0;" d="M456.82,286.79c-0.41-0.22-0.73-0.53-0.92-0.97
		c0.24-0.62,0.8-0.58,1.31-0.61c1.56-0.08,3.1-0.02,4.63,0.32c0.54,0.12,1.09,0.25,1.65,0.14c0.94,0.17,1.86,0.41,2.74,0.77
		c-0.27,0.36-0.14,0.42,0.26,0.53c0.81,0.23,1.74-0.1,2.45,0.53c-0.23,0.32-0.47,0.65-0.7,0.97c-1,0.67-1.88-0.02-2.8-0.24
		c-0.28-0.16-0.57-0.33-0.85-0.49C462.04,287.09,459.46,286.77,456.82,286.79z"/>
	<path style="fill-rule:evenodd;clip-rule:evenodd;fill:#E4E8E5;" d="M455.18,282.16c0.01-0.23,0.01-0.46,0.02-0.68
		c-0.91-0.76-0.58-1.65-0.28-2.54c0.63-0.91,1.31-1.79,2.15-2.52c0.3-0.26,0.56-0.73,1.1-0.41c0.17,1-0.52,1.84-0.52,2.8
		c-0.55,1.38-0.45,2.72,0.3,4.01c-0.17,0.59-0.56,0.96-1.13,1.16C455.39,283.61,455.12,283.31,455.18,282.16z"/>
	<path style="fill-rule:evenodd;clip-rule:evenodd;fill:#BED1CF;" d="M477.92,286.25c1.51,0.61,2.7,1.64,3.69,2.91
		c-0.42,0.31-0.9,0.46-1.42,0.49c-0.44,0.21-0.81,0-1.08-0.27c-1.48-1.49-3.37-1.85-5.35-2.01c-0.43-0.04-0.88,0-1.26-0.29
		c-0.1-0.66,0.46-0.59,0.81-0.7c0.89-0.3,1.83-0.35,2.72-0.67c0.11-0.04,0.23-0.05,0.35-0.06
		C476.94,285.74,477.43,285.99,477.92,286.25z"/>
	<path style="fill-rule:evenodd;clip-rule:evenodd;fill:#A2DBF3;" d="M490.48,264.44c-3.21-0.89-6.58-0.05-9.78-0.99
		c-1.34-0.39-2.6-0.9-3.41-2.15c0.04-0.07,0.1-0.08,0.17-0.04c0.09-0.02,0.18-0.06,0.27-0.1c0.17-0.02,0.35-0.05,0.52-0.07
		c2.59,1.53,5.45,1.8,8.38,1.79c1.03,0,2.07-0.13,3.07,0.24c0.61,0.34,1.42,0.44,1.51,1.35
		C490.95,264.66,490.71,264.61,490.48,264.44z"/>
	<path style="fill-rule:evenodd;clip-rule:evenodd;fill:#96C8D4;" d="M503.42,268.03c0.15,0.4,0.3,0.8,0.45,1.2
		c-1.41,0.06-2.62-0.56-3.85-1.11c-0.62-0.28-1.21-0.63-1.91-0.67c-1.01-0.79-2.14-1.16-3.43-0.96c-0.43-0.56-1.13-0.87-1.5-1.51
		c-0.05-0.34,0.07-0.6,0.39-0.74c1.85-0.03,3.46,0.86,5.11,1.47c1.56,0.58,3.05,1.35,4.58,2.02l-0.01-0.01
		C503.23,267.88,503.35,267.94,503.42,268.03z"/>
	<path style="fill-rule:evenodd;clip-rule:evenodd;fill:#A9CDD4;" d="M472.48,287c2.65,0.04,5.24,0.26,7.17,2.45
		c0.11,0.13,0.36,0.14,0.54,0.21c-0.54,0.29-1.11,0.45-1.72,0.45c-1.3-0.65-2.5-1.52-4.04-1.65c-0.71-0.06-1.41-0.2-2.12-0.05
		c-0.44,0.09-0.87,0.09-1.24-0.21c-0.17-0.32-0.33-0.64-0.5-0.96C471.15,286.69,471.77,286.49,472.48,287z"/>
	<path style="fill-rule:evenodd;clip-rule:evenodd;fill:#86D3F3;" d="M489.76,263.48c-1.44-0.44-2.91-0.15-4.37-0.24
		c-2.01-0.12-4.01-0.28-5.89-1.12c-0.54-0.24-0.95-0.53-1.26-1.02c0.4-0.07,0.8-0.14,1.2-0.21c1.14,0.7,2.38,1.13,3.72,1.09
		c1.91-0.05,3.79,0.28,5.7,0.2c0.96-0.04,1.9,0.14,2.77,0.58c0.11,0.07,0.2,0.16,0.28,0.27c0.03,0.06,0.06,0.12,0.08,0.17
		c0.02,0.13-0.01,0.25-0.09,0.35C491.17,264.06,490.48,263.28,489.76,263.48z"/>
	<path style="fill-rule:evenodd;clip-rule:evenodd;fill:#D4DCD7;" d="M455.2,278.84c-0.24,0.88-0.44,1.76,0,2.64
		c-1.49-0.34-2.67-1.06-3.1-2.65c0.58-0.94,1.57-1.42,2.36-2.13c0.5-0.21,0.85-0.96,1.56-0.43
		C456.33,277.32,455.63,278.04,455.2,278.84z"/>
	<path style="fill-rule:evenodd;clip-rule:evenodd;fill:#94CBDB;" d="M466.24,263.96c-2.75,2-5.67,3.78-7.9,6.42
		c-1.37,1.62-2.48,3.51-4.52,4.48c-0.56,0.27-1.11,0.43-1.72,0.38c-0.12-0.08-0.14-0.18-0.05-0.3c-0.03-0.07-0.02-0.13,0.04-0.19
		c3.01-1.18,4.73-3.79,6.75-6.07c1.33-1.51,3.02-2.6,4.62-3.78c0.61-0.45,1.21-0.91,1.75-1.44c0.29-0.15,0.58-0.11,0.87-0.03
		c0.26-0.01,0.53-0.02,0.7,0.25C466.68,263.93,466.52,264.07,466.24,263.96z"/>
	<path style="fill-rule:evenodd;clip-rule:evenodd;fill:#3EC2EC;" d="M482.09,260.6c3.39-0.43,6.74-0.2,10.08,0.5
		c0.81,0.38,1.65,0.68,2.52,0.91c0.39,0.1,0.99,0.14,0.76,0.85c-1.1,0.29-2.04-0.27-3.04-0.56c-1.84-0.59-3.73-0.64-5.64-0.64
		c-1.34,0-2.7,0.1-4.02-0.25C482.34,261.29,481.84,261.25,482.09,260.6z"/>
	<path style="fill-rule:evenodd;clip-rule:evenodd;fill:#A7D5E5;" d="M500.09,285.04c-0.14,0.1-0.29,0.2-0.43,0.3
		c-0.64,0.19-1.25,0.54-1.96,0.3c-0.28-0.26-0.29-0.57-0.19-0.91c0.43-0.62,1.16-0.7,1.79-0.84c2.07-0.47,3.56-1.71,4.84-3.3
		c0.57-0.71,1.08-1.48,1.87-2c0.67-0.16,1.21-0.88,2.02-0.48c0,0.16-0.01,0.32-0.01,0.48c-0.46,0.59-1.17,0.89-1.64,1.47
		c-0.07,0.08-0.15,0.16-0.22,0.23c-0.07,0.08-0.15,0.16-0.23,0.23c-1.08,0.92-1.82,2.16-2.88,3.11c-0.43,0.39-0.82,0.87-1.51,0.73
		c-0.54-0.19-0.8,0.29-1.19,0.48C500.25,284.92,500.17,284.98,500.09,285.04z"/>
	<path style="fill-rule:evenodd;clip-rule:evenodd;fill:#6AC2DD;" d="M501.55,265.38c0.55,0.36,0.92,0.86,1.2,1.44
		c-0.47,0.46-0.99,0.28-1.43,0.02c-2.7-1.59-5.75-2.23-8.67-3.22c-0.27-0.09-0.52-0.19-0.72-0.39l0,0c-0.08-0.1-0.1-0.21-0.08-0.33
		c0.06-0.25,0.18-0.45,0.42-0.56c0.24-0.08,0.48-0.07,0.73,0.01c1.37,0.51,2.8,0.82,4.22,1.17
		C498.76,263.9,500.23,264.47,501.55,265.38z"/>
	<path style="fill-rule:evenodd;clip-rule:evenodd;fill:#77C5DE;" d="M466.08,263.43c-0.28,0.06-0.61,0-0.81,0.29
		c-2.47,1.8-5.04,3.45-7.05,5.82c-1.1,1.3-2.08,2.72-3.43,3.79c-0.65,0.51-1.29,1.27-2.3,0.72c-0.03-0.12-0.03-0.23,0.02-0.34
		c-0.03-0.07-0.01-0.12,0.05-0.15c1.35-0.47,2.14-1.73,3.34-2.41l-0.01,0.01c0.78-1.7,2.01-3.04,3.42-4.22
		c1.59-1.33,3.2-2.65,4.99-3.71C464.92,263.16,465.52,263.1,466.08,263.43z"/>
	<path style="fill-rule:evenodd;clip-rule:evenodd;fill:#81C5D9;" d="M491.92,263.24c2.91,0.59,5.73,1.44,8.4,2.74
		c0.77,0.38,1.47,0.98,2.42,0.85c0.18,0.3,0.35,0.61,0.53,0.91c-1.11,0.17-1.99-0.44-2.89-0.89c-2.17-1.07-4.44-1.83-6.78-2.41
		c-0.62-0.22-1.5,0.02-1.68-0.96C491.92,263.4,491.92,263.32,491.92,263.24z"/>
	<path style="fill-rule:evenodd;clip-rule:evenodd;fill:#8EC7D8;" d="M497.59,285.54c0.68-0.12,1.36-0.32,2.06-0.2
		c-2.78,2.13-5.97,2.95-9.4,3.05c0.83-1.24,2.11-1.77,3.44-2.24C495.03,286.21,496.38,286.33,497.59,285.54z"/>
	<path style="fill-rule:evenodd;clip-rule:evenodd;fill:#6ACCF1;" d="M492.16,262.52c-0.08,0.16-0.16,0.32-0.24,0.49
		c-0.08,0.09-0.16,0.09-0.25,0c-3.05-0.81-6.2-0.43-9.29-0.75c-1.08-0.11-2.33-0.13-2.94-1.36c0.32-0.03,0.64-0.06,0.96-0.1
		c2.87,1.08,5.88,0.63,8.83,0.82C490.24,261.68,491.41,261.5,492.16,262.52z"/>
	<path style="fill-rule:evenodd;clip-rule:evenodd;fill:#AECED1;" d="M498.15,267.33c0.16-0.22,0.39-0.3,0.62-0.17
		c1.6,0.94,3.39,1.42,5.11,2.07c0.19,0.45,0.25,0.88-0.18,1.24c-1.93-0.87-4.1-1.18-5.85-2.47
		C497.78,267.71,497.93,267.5,498.15,267.33z"/>
	<path style="fill-rule:evenodd;clip-rule:evenodd;fill:#C4DFE7;" d="M463.64,285.74c-0.16,0.82-0.68,0.4-1.1,0.32
		c-2.2-0.45-4.4-0.83-6.64-0.24l0,0c-0.06-0.09-0.12-0.17-0.19-0.26c-0.03-0.07-0.07-0.14-0.1-0.22c0.52-1.03,1.6-0.78,2.44-1.07
		c0.8-0.09,1.58,0.06,2.36,0.17c1.06,0.15,2.09,0.16,2.96-0.61C463.78,284.44,463.9,285.06,463.64,285.74z"/>
	<path style="fill-rule:evenodd;clip-rule:evenodd;fill:#88C8DC;" d="M452.56,274.04c2-0.02,3-1.55,4.03-2.86
		c2.42-3.06,5.22-5.64,8.68-7.46c-1.15,1.4-2.77,2.21-4.17,3.3c-2.28,1.77-3.8,4.24-5.89,6.19c-0.91,0.85-1.9,1.41-3.13,1.55
		c0.08-0.24,0.16-0.48,0.25-0.72C452.41,273.95,452.49,273.95,452.56,274.04z"/>
	<path style="fill-rule:evenodd;clip-rule:evenodd;fill:#90C8D6;" d="M471.07,288.2c2.1-0.36,4.15-0.28,6.08,0.77
		c0.53,0.29,1.02,0.6,1.32,1.15c-0.44,0.27-0.94,0.28-1.43,0.27c-1.66-0.95-3.48-1.15-5.35-1.15l0,0c0.03-0.16-0.09-0.22-0.19-0.3h0
		c-0.06-0.07-0.11-0.14-0.15-0.23C471.26,288.54,471.17,288.37,471.07,288.2z"/>
	<path style="fill-rule:evenodd;clip-rule:evenodd;fill:#C1D3D2;" d="M487.12,288.19c0.24-0.48,0.48-0.95,0.72-1.43
		c0.1-0.39,0.44-0.54,0.75-0.72c1.34-0.63,2.79-0.97,4.19-1.47c0.42,0.25,0.38,0.61,0.26,1c-0.35,0.58-0.99,0.76-1.53,1.07
		c-0.55,0.3-1.2,0.49-1.63,0.96c-0.67,0.74-1.45,0.87-2.36,0.65C487.38,288.22,487.25,288.2,487.12,288.19z"/>
	<path style="fill-rule:evenodd;clip-rule:evenodd;fill:#50C7F0;" d="M492.16,262.52c-0.97-0.52-2.02-0.68-3.1-0.72
		c-2.34-0.08-4.7,0.22-7.02-0.24c-0.61-0.12-1.29-0.07-1.63-0.77c0.54-0.28,1.12-0.16,1.68-0.19c0.69,0.82,1.68,0.67,2.56,0.7
		c2.68,0.1,5.39-0.21,7.99,0.74c0.13,0.13,0.4,0.2,0.24,0.48C492.64,262.52,492.4,262.52,492.16,262.52z"/>
	<path style="fill-rule:evenodd;clip-rule:evenodd;fill:#62C1DE;" d="M464.31,263.22c-1.1,1.33-2.61,2.17-3.96,3.19
		c-1.76,1.33-3.03,3.1-4.45,4.74c0.02-0.32,0.03-0.64,0.05-0.96c0.4-1.08,1.13-1.9,1.98-2.66c1.37-1.23,2.67-2.53,4.22-3.54
		c0.2-0.13,0.41-0.27,0.4-0.55C463.1,263.12,463.71,263.17,464.31,263.22z"/>
	<path style="fill-rule:evenodd;clip-rule:evenodd;fill:#C5D9DA;" d="M472.48,287c-0.64,0.08-1.27,0.16-1.91,0.24
		c-0.1-0.31-0.19-0.62-0.29-0.93c1.37-0.33,2.74-0.66,4.12-0.99c0.74-0.25,1.43-0.29,1.92,0.48
		C475.18,286.66,473.68,286.34,472.48,287z"/>
	<path style="fill-rule:evenodd;clip-rule:evenodd;fill:#4DBEE0;" d="M492.88,262.52c-0.08-0.16-0.16-0.32-0.24-0.48
		c0.96,0.24,1.92,0.48,2.88,0.72c0.94-0.55,1.73,0.39,2.62,0.27c1.3,0.55,2.47,1.28,3.4,2.35c-2.07-0.76-4.15-1.52-6.3-2.06
		C494.44,263.13,493.67,262.79,492.88,262.52z"/>
	<path style="fill-rule:evenodd;clip-rule:evenodd;fill:#AFCFD4;" d="M487.51,288.23c0.82,0.04,1.4-0.29,2.06-0.83
		c0.99-0.8,2.26-1.27,3.41-1.88c0.24-0.01,0.39,0.13,0.52,0.31c0.05,0.09,0.09,0.19,0.1,0.3c0,0.05,0,0.11,0,0.16
		c-1.12,0.7-2.23,1.4-3.35,2.1C489.33,288.41,488.4,288.58,487.51,288.23z"/>
	<path style="fill-rule:evenodd;clip-rule:evenodd;fill:#48BEE1;" d="M462.54,263.44c0.56,0.07,0.49,0.34,0.13,0.57
		c-1.61,1.05-2.98,2.38-4.43,3.64c-0.89,0.77-1.41,1.81-2.3,2.55c-0.1-0.71,0.04-1.37,0.43-1.97c1.61-1.66,3.42-3.09,5.24-4.52
		C461.88,263.44,462.21,263.42,462.54,263.44z"/>
	<path style="fill-rule:evenodd;clip-rule:evenodd;fill:#95CDDF;" d="M456.82,286.79c2.71-0.62,5.29-0.29,7.77,0.96
		c-0.27,0.26-0.6,0.26-0.94,0.25c-1.63,0.24-3.18-0.54-4.81-0.42c-0.26,0.02-0.55,0.02-0.82-0.05
		C457.53,287.43,457.13,287.19,456.82,286.79z"/>
	<path style="fill-rule:evenodd;clip-rule:evenodd;fill:#BED1D0;" d="M454.48,276.92c-0.67,0.79-1.48,1.41-2.38,1.92
		c-0.36-0.77-0.48-1.57-0.29-2.41c1.07-0.01,1.94-0.64,2.91-0.94C455.07,276.03,454.82,276.48,454.48,276.92z"/>
	<path style="fill-rule:evenodd;clip-rule:evenodd;fill:#24BAE2;" d="M461.62,263.7c0.33,0.27,0.02,0.43-0.13,0.54
		c-1.66,1.18-3.19,2.51-4.63,3.94c-0.13,0.13-0.29,0.32-0.47,0.04C457.35,265.81,459.21,264.44,461.62,263.7z"/>
	<path style="fill-rule:evenodd;clip-rule:evenodd;fill:#73C7E3;" d="M507.96,279.33c-0.02,0.6-0.19,1.15-0.48,1.67
		c-1.07,1.08-2.05,2.24-3.07,3.37c-0.44,0.31-0.93,0.36-1.45,0.26c-0.21-0.36,0.07-0.59,0.25-0.83c1.16-1.49,2.27-3.03,3.88-4.09
		C507.37,279.56,507.58,279.24,507.96,279.33z"/>
	<path style="fill-rule:evenodd;clip-rule:evenodd;fill:#8FCEE4;" d="M507.28,279.8c-1.66,1.41-3.03,3.08-4.31,4.83
		c-0.52,0.09-1.01,0.06-1.45-0.26c1.43-0.7,2.25-2.03,3.28-3.15c0.31-0.34,0.7-0.63,1.05-0.94c0.07-0.08,0.16-0.16,0.24-0.24l0,0
		C506.46,279.87,506.79,279.45,507.28,279.8z"/>
	<path style="fill-rule:evenodd;clip-rule:evenodd;fill:#75C3DA;" d="M471.69,289.23c1.65-0.71,4.29-0.14,5.35,1.15
		c-0.37,0.28-0.79,0.21-1.21,0.2c-0.85-0.22-1.72-0.3-2.6-0.34c-0.44-0.02-0.88-0.02-1.24-0.35
		C471.9,289.67,471.79,289.45,471.69,289.23z"/>
	<path style="fill-rule:evenodd;clip-rule:evenodd;fill:#B8D8E1;" d="M466.24,263.96c0.18-0.1,0.36-0.19,0.54-0.29
		c0.48,0.07,0.87,0.3,1.17,0.68c-0.09,0.19-0.18,0.38-0.27,0.57c-0.25,0.4-0.45,0.83-0.87,1.08c-0.35,0.21-0.64,0.49-0.99,0.7
		c-0.14,0.06-0.29,0.08-0.44,0.07c-0.19-0.02-0.38-0.04-0.58-0.06c-0.1-0.02-0.18-0.07-0.24-0.14
		C464.84,265.53,465.94,265.01,466.24,263.96z"/>
	<path style="fill-rule:evenodd;clip-rule:evenodd;fill:#05B1E9;" d="M469.09,289.99c0.05-0.51,0.06-1.37,0.54-1.22
		c0.75,0.24,1.29,1.04,1.38,1.91c0.07,0.61-0.46,1.05-0.96,0.96C469.19,291.5,469.15,290.69,469.09,289.99z"/>
	<path style="fill-rule:evenodd;clip-rule:evenodd;fill:#D1DEDE;" d="M458.08,284.6c-0.82,0.24-1.72,0.24-2.46,0.75
		c-0.6-1-0.85-2.05-0.43-3.19c0.01,1.12,1.02,1.26,1.7,1.71C457.44,283.85,457.96,283.89,458.08,284.6z"/>
	<path style="fill-rule:evenodd;clip-rule:evenodd;fill:#BED8DD;" d="M468.95,287.51c-0.93-0.07-1.87,0.05-2.78-0.31
		c-0.88-0.36-0.08-0.43,0.07-0.62c0.28-0.43,0.67-0.63,1.18-0.55c0.67,0.9,1.71,0,2.46,0.52
		C469.57,286.86,469.26,287.18,468.95,287.51z"/>
	<path style="fill-rule:evenodd;clip-rule:evenodd;fill:#7CC7DF;" d="M458.02,287.52c1.32-0.56,2.61-0.25,3.91,0.09
		c0.57,0.15,1.14,0.26,1.71,0.39C461.72,288.51,459.83,288.48,458.02,287.52z"/>
	<path style="fill-rule:evenodd;clip-rule:evenodd;fill:#30B9DE;" d="M498.14,263.03c-0.93,0.43-1.75-0.2-2.62-0.27
		c-1.01-0.78-2.49-0.59-3.36-1.66c1.93,0.28,3.77,0.83,5.52,1.71c0.1,0.06,0.19,0.15,0.32,0.18
		C498.06,262.95,498.11,262.97,498.14,263.03z"/>
	<path style="fill-rule:evenodd;clip-rule:evenodd;fill:#67C1DD;" d="M455.91,271.14c-0.96,1.02-1.63,2.44-3.34,2.41
		C453.21,272.1,454.29,271.25,455.91,271.14z"/>
	<path style="fill-rule:evenodd;clip-rule:evenodd;fill:#58BDDB;" d="M472,289.89c1.31,0.03,2.69-0.26,3.84,0.69
		c-0.9,0.09-1.81,0.15-2.71,0.28C472.34,290.96,472.03,290.6,472,289.89z"/>
	<path style="fill-rule:evenodd;clip-rule:evenodd;fill:#B7D1D5;" d="M508.01,278.12c-0.64,0.24-1.29,0.48-1.93,0.72
		c-0.43-0.5,0.02-0.83,0.24-1.2c0.39-0.52,0.74-1.11,1.48-1.21C508.14,276.96,508.06,277.54,508.01,278.12z"/>
	<path style="fill-rule:evenodd;clip-rule:evenodd;fill:#4FBEE1;" d="M504.41,284.37c0.63-1.49,1.7-2.57,3.07-3.37
		C506.92,282.54,506.06,283.81,504.41,284.37z"/>
	<path style="fill-rule:evenodd;clip-rule:evenodd;fill:#93C4D2;" d="M465.45,288.24c0.93,0.08,1.87,0.16,2.8,0.24
		c-0.1,1.24-0.81,1.03-1.55,0.62C466.25,288.86,465.74,288.7,465.45,288.24z"/>
	<path style="fill-rule:evenodd;clip-rule:evenodd;fill:#91CCDE;" d="M507.28,279.8c-0.4,0.08-0.8,0.16-1.2,0.24
		c0.45-0.73,1.11-1.18,1.92-1.44c-0.01,0.24-0.02,0.48-0.04,0.73C507.74,279.5,507.64,279.83,507.28,279.8z"/>
	<path style="fill-rule:evenodd;clip-rule:evenodd;fill:#BBE2F3;" d="M475.83,261.59c-0.17,0.06-0.35,0.12-0.52,0.18
		C475.48,261.71,475.66,261.65,475.83,261.59z"/>
	<path style="fill-rule:evenodd;clip-rule:evenodd;fill:#88C8DC;" d="M452.05,274.94c0.02,0.1,0.03,0.2,0.05,0.3
		c-0.07,0.08-0.14,0.15-0.22,0.23C451.94,275.29,452,275.12,452.05,274.94z"/>
	<path style="fill-rule:evenodd;clip-rule:evenodd;fill:#AFD5E0;" d="M455.71,285.57c0.06,0.08,0.13,0.17,0.19,0.26
		C455.84,285.74,455.78,285.65,455.71,285.57z"/>
	<path style="fill-rule:evenodd;clip-rule:evenodd;fill:#C5D9DA;" d="M470.1,286.32c0.07-0.19,0.14-0.2,0.2,0l-0.1-0.01
		L470.1,286.32z"/>
	<path style="fill-rule:evenodd;clip-rule:evenodd;fill:#B7D1D5;" d="M507.69,275.95c-0.05-0.08-0.1-0.17-0.16-0.26
		C507.59,275.78,507.64,275.87,507.69,275.95z"/>
	<path style="fill-rule:evenodd;clip-rule:evenodd;fill:#81C5D9;" d="M503.42,268.03c-0.06-0.1-0.11-0.2-0.17-0.3
		C503.31,267.83,503.37,267.93,503.42,268.03z"/>
	<path style="fill-rule:evenodd;clip-rule:evenodd;fill:#D5DEDA;" d="M468.63,264.51c-0.11,0.05-0.22,0.09-0.33,0.14
		C468.41,264.6,468.52,264.55,468.63,264.51z"/>
	<path style="fill-rule:evenodd;clip-rule:evenodd;fill:#75C3DA;" d="M471.36,288.7c0.05,0.08,0.1,0.15,0.15,0.23
		C471.46,288.85,471.41,288.78,471.36,288.7z"/>
	<path style="fill-rule:evenodd;clip-rule:evenodd;fill:#75C3DA;" d="M471.51,288.93c0.06,0.1,0.13,0.2,0.19,0.3
		C471.64,289.13,471.57,289.03,471.51,288.93z"/>
	<path style="fill-rule:evenodd;clip-rule:evenodd;fill:#67C1DD;" d="M452.56,274.04l-0.11,0l-0.11,0c0.06-0.11,0.12-0.22,0.18-0.33
		C452.53,273.82,452.55,273.93,452.56,274.04z"/>
	<path style="fill-rule:evenodd;clip-rule:evenodd;fill:#4DBEE0;" d="M498,262.98c-0.11-0.06-0.21-0.12-0.32-0.18
		C497.79,262.86,497.89,262.92,498,262.98z"/>
	<path style="fill-rule:evenodd;clip-rule:evenodd;fill:#8EC7D8;" d="M500.09,285.04c0.08-0.06,0.16-0.13,0.24-0.19
		C500.25,284.91,500.17,284.98,500.09,285.04z"/>
	<path style="fill-rule:evenodd;clip-rule:evenodd;fill:#86D3F3;" d="M477.73,261.17c-0.09,0.03-0.18,0.07-0.27,0.1
		C477.55,261.24,477.64,261.2,477.73,261.17z"/>
	<path style="fill-rule:evenodd;clip-rule:evenodd;fill:#04B1EB;" d="M494.05,293.52c0.08-0.47,0.06-1.44,0.66-1.28
		c1.04,0.28,1.79,1.17,1.86,2.38c0.03,0.48-0.01,1.02-0.74,0.94C494.67,295.42,494.02,294.82,494.05,293.52z"/>
	<path style="fill-rule:evenodd;clip-rule:evenodd;fill:#03B3ED;" d="M473.67,300.53c-1.07-0.17-1.43-0.89-1.4-1.79
		c0.02-0.63,0.27-1.48,0.99-1.33c1,0.2,1.52,1.11,1.58,2.13C474.9,300.37,474.2,300.4,473.67,300.53z"/>
	<path style="fill-rule:evenodd;clip-rule:evenodd;fill:#04B2EB;" d="M464.57,297.73c0.01,0.79-0.32,1.33-1.12,1.23
		c-0.64-0.08-1.59-0.01-1.52-1.07c0.05-0.84,0.35-1.62,1.05-2.18C463.27,296.56,464.59,296.63,464.57,297.73z"/>
	<path style="fill-rule:evenodd;clip-rule:evenodd;fill:#04B1EA;" d="M482.17,301.43c-0.97,0.09-1.21-0.67-1.2-1.44
		c0.01-0.67,0.06-1.48,0.72-1.89c0.32-0.2,1.85,1.85,1.83,2.45C483.5,301.41,482.87,301.41,482.17,301.43z"/>
	<path style="fill-rule:evenodd;clip-rule:evenodd;fill:#03B3ED;" d="M488.2,296.56c0.17-0.5,0.33-1.28,0.88-1.07
		c0.82,0.32,1.93,0.64,1.84,1.88c-0.05,0.69-0.53,1.08-1.25,0.92C488.75,298.1,488.24,297.51,488.2,296.56z"/>
	<path style="fill-rule:evenodd;clip-rule:evenodd;fill:#05B2EB;" d="M503.23,291.61c-0.04,0.6-0.14,1.02-0.76,0.95
		c-0.57-0.06-1.05-0.26-0.99-0.94c0.05-0.55,0.19-1.27,0.84-1.25C503,290.4,503.16,291.11,503.23,291.61z"/>
	<path style="fill-rule:evenodd;clip-rule:evenodd;fill:#DAECF3;" d="M471.26,272.64c0.12-0.69,0.75-0.64,1.2-0.77
		c1.69-0.5,3.08-1.42,4.1-2.87c0.88,0.08,1.76,0.16,2.64,0.24c-0.07,0.35-0.17,0.69-0.21,1.04c-0.17,1.38-0.11,2.59,1.56,3.13
		c1.77,0.57,3.01,2,4.49,3.04c0.76,0.53,0.73,1.53,0.88,2.39c0.15,0.34,0.01,0.59-0.27,0.78c-0.73-0.1-1.11-0.72-1.62-1.13
		c-1.31-1.04-2.61-2.07-4.44-1.96c-1.26,0.07-2.22,0.78-3.23,1.39c-0.59,0.24-1.15,0.54-1.81,0.49c-0.79-0.14-1.59-0.17-2.39-0.21
		c-0.43-0.02-0.89-0.04-1.21-0.42C471.16,276.07,471.06,274.35,471.26,272.64z"/>
	<path style="fill-rule:evenodd;clip-rule:evenodd;fill:#020202;" d="M498.37,269.97c-0.04,0.06-0.03,0.12,0.01,0.18
		c-0.05,0.09-0.1,0.19-0.15,0.29c-0.64,0.86,0.37,1.01,0.63,1.48c0.83,0.33,0.85,1.18,1.17,1.84c0.04,0.11,0.06,0.23,0.08,0.35
		c0.03,0.18,0.04,0.36,0.05,0.55c0,0.37,0.01,0.74-0.02,1.11c-0.09,0.61-0.38,1.13-0.72,1.62c-0.18,0.26-0.39,0.51-0.48,0.82
		c-0.45,1.48-0.45,1.47-1.92,1.28c-0.99-0.13-1.99-0.11-2.97,0.13c-0.08,0.02-0.16,0.02-0.23,0.04c-2.07,0.66-2.07,0.66-3.13-1.3
		c-1.74-1.95-1.49-4.02-0.41-6.16c0.57-0.87,0.35-2,0.94-2.86c0.88-0.29,1.5,0.06,1.95,0.8c0.02,0.09,0,0.19,0,0.28
		c0,0.16,0.13,0.21,0.04,0.09c-0.1-0.13,0.21-0.06,0.06-0.08c0.11-0.52,0.1-1.06,0.57-1.42c0.53-0.4,1.13-0.31,1.55,0.06
		c0.5,0.43-0.11,0.72-0.32,1.06c-0.16,0.27,0.09,0.51,0.32,0.48c0.52-0.08,1.21,0.45,1.52-0.43
		C497.25,269.26,497.76,269.22,498.37,269.97z"/>
	<path style="fill-rule:evenodd;clip-rule:evenodd;fill:#E5F2F7;" d="M490.69,278.37c0.46,0.31,1.3,0.25,0.94,1.26
		c-0.14,0.39,0.25,0.59,0.68,0.29c0.45-0.32,0.96-0.54,1.53-0.56c0.21,0.43,0.44,0.84,0.57,1.3c-0.49,0.84-0.89,1.74-1.68,2.38
		c-1.58,0.1-3.15,0.37-4.69-0.3c-1.45-0.62-2.41-1.86-2.36-3.19c0.08-0.24,0.16-0.48,0.24-0.72c1.06-0.47,2.18-0.13,3.26-0.24
		C489.69,278.54,490.19,278.44,490.69,278.37z"/>
	<path style="fill-rule:evenodd;clip-rule:evenodd;fill:#D9E7E9;" d="M491.22,269.54c-0.18,0.94,0.34,2.12-0.95,2.67
		c-0.85-1.9-1.79-3.78-2.2-5.85c0.64-0.16,1.28-0.32,1.92-0.48c0.12-0.02,0.27-0.05,0.33,0.07
		C490.88,267.08,491.46,268.21,491.22,269.54z"/>
	<path style="fill-rule:evenodd;clip-rule:evenodd;fill:#010101;" d="M471.26,272.64c0.53,1.77,0.45,3.51-0.25,5.22
		c-0.01,0.06-0.02,0.12-0.04,0.19c-0.06,0.11-0.14,0.2-0.25,0.27c-0.39,0.23-0.88,0.32-0.89,0.97c-0.01,0.61-0.59,0.59-1,0.58
		c-1.55,0-3.1,0.09-4.64,0.22c-0.24-0.04-0.61-0.15-0.57-0.33c0.27-1.12-0.67-1.59-1.14-2.31c-0.76-1.14-1.3-2.35-1.04-3.77
		c0.15-0.58,0.4-1.11,0.77-1.58s0.38-0.92,0.1-1.42c-0.16-0.46-0.33-0.97,0.18-1.29c0.53-0.34,1-0.05,1.37,0.37
		c0.46,0.51,0.67,0.37,0.86-0.23c0.4-1.27,0.44-1.27,1.64-0.79c0.48,0.66,0.99,1,1.89,0.59c0.75-0.35,1.32-0.02,1.39,0.9
		c0.02,0.23,0.1,0.47,0.2,0.69C470.32,271.49,470.79,272.07,471.26,272.64z"/>
	<path style="fill-rule:evenodd;clip-rule:evenodd;fill:#D5DEDA;" d="M469.84,270.92c-0.28-0.15-0.73-0.14-0.55-0.69
		c0.29-0.9-0.51-0.95-0.84-0.69c-1.1,0.86-1.72,0.51-2.21-0.61c-0.27-0.27-0.08-0.54,0.01-0.81c0.07-0.17,0.13-0.34,0.12-0.53
		c-0.03-0.14-0.06-0.28-0.09-0.42c-0.02-0.1-0.02-0.2-0.02-0.3c0.04-0.38,0.17-0.72,0.46-0.98c0.23-0.41,0.54-0.73,0.96-0.96
		c-0.21,1.47,0.8,2.28,1.77,3C471.43,269.38,471.46,269.34,469.84,270.92z"/>
	<path style="fill-rule:evenodd;clip-rule:evenodd;fill:#D4D7CF;" d="M476.32,285.8c-0.64-0.16-1.28-0.32-1.92-0.48
		c1.25-0.9,2.61-1.66,3.41-3.06c0.22-0.38,0.45-0.75,0.42-1.21c0.1-0.26,0.24-0.49,0.39-0.72c0.65-1.07,0.93-1.12,1.8-0.25
		c0.29,0.29,0.66,0.4,0.99,0.61c1.21,0.78,2.1,1.92,3.14,2.89c0.93,0.86,1.97,1.59,3.21,2.01c0.33,0.11,0.83,0.13,0.79,0.7
		c-0.24,0.16-0.48,0.32-0.72,0.48c-1.86,0.4-3.28-0.64-4.77-1.44c-2-1.45-3.74-1.42-5.8,0.12c-0.22,0.17-0.43,0.34-0.73,0.36
		l-0.11,0L476.32,285.8z"/>
	<path style="fill-rule:evenodd;clip-rule:evenodd;fill:#050405;" d="M476.53,285.8c1.23-1.68,3-1.95,4.89-1.82
		c0.8,0.06,1.42,0.49,1.64,1.34c-0.41,0.6-0.78-0.01-1.13-0.08c-1.52-0.32-2.91-0.27-4.01,1.01
		C477.28,286.67,476.98,285.99,476.53,285.8z"/>
	<path style="fill-rule:evenodd;clip-rule:evenodd;fill:#D3DEDA;" d="M491.22,269.54c-0.41-1.22-0.82-2.44-1.23-3.66
		c0-0.08,0-0.16,0-0.24c0.32,0,0.64,0,0.96,0c0.27-0.13,0.39,0.03,0.48,0.25c0.56,1.23,1.74,1.98,2.4,3.13
		c-0.33,0.54,0.29,1.47-0.72,1.72c-0.07-0.06-0.1-0.12-0.07-0.18c0.02-0.06,0.05-0.09,0.07-0.09
		C492.66,269.81,492.11,269.32,491.22,269.54z"/>
	<path style="fill-rule:evenodd;clip-rule:evenodd;fill:#090909;" d="M498.15,267.33c-0.1,0.22-0.2,0.45-0.29,0.67
		c-1.2-0.81-2.78-0.28-3.98-1.1c0.1-0.35,0.22-0.68,0.7-0.57C495.95,266.01,497.24,265.98,498.15,267.33z"/>
	<path style="fill-rule:evenodd;clip-rule:evenodd;fill:#B1D3DA;" d="M494.57,266.33c-0.23,0.19-0.46,0.38-0.7,0.57
		c-0.6-0.83-1.56-0.82-2.43-1.02c-0.16-0.08-0.32-0.16-0.48-0.25c0.09-0.5-0.26-0.82-0.48-1.2c0.24,0,0.48,0,0.72,0
		c0.92-0.37,1.55,0.14,2.16,0.72C493.88,265.42,494.7,265.38,494.57,266.33z"/>
	<path style="fill-rule:evenodd;clip-rule:evenodd;fill:#E3E8E4;" d="M499.8,273.87c-0.31-0.65-0.63-1.31-0.94-1.96
		c1.68-0.37,2.95,0.64,4.18,1.44c1.47,0.96,2.32,2.4,2.07,4.28c-0.25,0.34-0.52,0.63-0.99,0.55c-0.49-0.27-0.46-0.8-0.6-1.24
		C503,275.34,501.36,273.98,499.8,273.87z"/>
	<path style="fill-rule:evenodd;clip-rule:evenodd;fill:#BDDEEA;" d="M506.32,277.64c-0.08,0.4-0.16,0.8-0.24,1.2
		c-0.97,1.09-1.93,2.17-2.9,3.26c-1.46,1.65-3.46,2.08-5.48,2.5c-0.3-0.18-0.41-0.44-0.32-0.78c0.52-0.67,1.37-0.55,2.04-0.84
		c0.55-0.24,1.13-0.39,1.64-0.71c1.21-0.71,2.11-1.76,3-2.83c0.39-0.47,0.62-1.13,1.3-1.32C505.68,277.96,506,277.8,506.32,277.64z"
		/>
	<path style="fill-rule:evenodd;clip-rule:evenodd;fill:#D2E8F1;" d="M505.36,278.12c-1.13,1.65-2.27,3.3-4.08,4.32
		c-1.17,0.43-2.31,1.02-3.63,0.69c-0.17-0.11-0.33-0.23-0.17-0.46c0.12-0.17,0.3-0.27,0.5-0.31c2.61-0.49,4.48-2.04,5.97-4.15
		c0.04-0.06,0.14-0.07,0.21-0.09c0.32-0.16,0.64-0.32,0.96-0.48C505.2,277.8,505.28,277.96,505.36,278.12z"/>
	<path style="fill-rule:evenodd;clip-rule:evenodd;fill:#C5D3D0;" d="M498.23,270.43c0.05-0.1,0.1-0.19,0.15-0.29
		C498.33,270.24,498.28,270.34,498.23,270.43z"/>
	<path style="fill-rule:evenodd;clip-rule:evenodd;fill:#BFDAE0;" d="M454.48,276.92c0.08-0.48,0.16-0.96,0.24-1.44
		c2.23-2,3.82-4.64,6.29-6.4c0.45-0.32,0.97-0.53,1.45-0.79c0.12,0.14,0.15,0.3,0.13,0.48c-0.02,0.11-0.07,0.21-0.13,0.31
		c-0.77,0.69-1.36,1.51-1.85,2.41c-1.62,1.32-2.83,3.02-4.24,4.53c-0.09,0.07-0.19,0.13-0.29,0.17c-0.06,0.01-0.11,0.01-0.17,0.02
		C455.44,276.44,454.96,276.68,454.48,276.92z"/>
	<path style="fill-rule:evenodd;clip-rule:evenodd;fill:#080808;" d="M462.4,268.76c0.02-0.16,0.04-0.31,0.06-0.47
		c0.47-0.85,1.21-1.37,2.09-1.71c0.08-0.01,0.16-0.01,0.25-0.02c0.16-0.09,0.31-0.09,0.47,0c0.16,0.02,0.32,0.04,0.47,0.06
		c0.4-0.05,0.59,0.18,0.7,0.52c-0.02,0.07,0.01,0.13,0.07,0.18c0.06,0.1,0.14,0.18,0.18,0.29c-0.07,0.13-0.14,0.27-0.21,0.4
		c-1.34-0.06-2.49,0.69-3.77,0.92C462.6,268.91,462.5,268.85,462.4,268.76z"/>
	<path style="fill-rule:evenodd;clip-rule:evenodd;fill:#E0E9E9;" d="M485.68,279.56c1.11,2.74,2.81,3.66,5.79,3.16
		c0.48-0.08,0.95-0.08,1.38,0.2c0.29,0.3,0.21,0.58-0.04,0.86c-3.26,1.04-6.97,0.55-8.38-2.43c-0.42-0.89-1.05-1.7-1.65-2.49
		c-1.52-2.01-3.68-1.8-4.76,0.45c-0.07,0.11-0.16,0.19-0.27,0.25c-1.54,4.06-4.83,5.55-8.82,5.98c-0.42,0.05-0.92,0.13-1.04-0.49
		c0.04-0.05,0.08-0.09,0.12-0.14c0.52-0.36,1.12-0.34,1.71-0.42c1.87-0.26,3.65-0.75,5.09-2.09c1.08-1,1.56-2.17,1.36-3.63
		c-0.05-0.39-0.17-0.79,0.15-1.13c2.67-2.07,5.1-1.95,7.7,0.38C484.58,278.53,485.13,279.05,485.68,279.56z"/>
	<path style="fill-rule:evenodd;clip-rule:evenodd;fill:#040404;" d="M467.42,286.02c-0.4,0.18-0.79,0.37-1.18,0.55
		c-0.94-0.05-1.87-0.12-2.6-0.83c-0.24-0.59-0.35-1.21-0.3-1.85c-0.08-0.1-0.13-0.22-0.13-0.35c0.14-0.85,0.62-1.55,1.02-2.28
		c0.37-0.7,0.93-0.8,1.61-0.45c1.46,0.75,2.01,2.08,2.33,3.57c0.01,0.27-0.06,0.5-0.27,0.68l0-0.02c-0.08,0.23-0.16,0.46-0.24,0.69
		C467.61,285.87,467.52,285.95,467.42,286.02L467.42,286.02z"/>
	<path style="fill-rule:evenodd;clip-rule:evenodd;fill:#070606;" d="M477.75,279.56l0.06-0.05l-0.01-0.08
		c1.02-1.57,2.45-1.62,3.63-0.13c0.18,0.34,0.3,0.69,0.28,1.08c-0.02,0.13-0.09,0.23-0.19,0.3c-0.06,0.02-0.12,0.03-0.18,0.05
		c-0.43-0.01-0.87,0.03-1.16-0.42c-0.17-0.25-0.07-0.81-0.63-0.64c-0.42,0.12-0.61,0.46-0.75,0.85c-0.09,0.26,0.07,0.83-0.56,0.52
		C477.68,280.68,477.62,280.15,477.75,279.56z"/>
	<path style="fill-rule:evenodd;clip-rule:evenodd;fill:#BED8DD;" d="M467.42,286.03c0.08-0.1,0.15-0.19,0.23-0.29
		C467.57,285.83,467.5,285.93,467.42,286.03z"/>
	<path style="fill-rule:evenodd;clip-rule:evenodd;fill:#ECF5F8;" d="M467.9,284.36c-0.43-1.39-1.04-2.63-2.37-3.42
		c-0.5-0.29-0.72-0.3-0.96,0.25c-0.36,0.83-0.8,1.63-1.21,2.44c-1.44,0.64-4.45,0.24-5.52-0.72c-1.19-1.24-1.13-2.63-0.48-4.08
		c0.3-0.78,0.63-1.54,1.31-2.07c0.89-0.7,1.45-0.66,2.06,0.3c0.7,1.1,1.64,1.92,2.69,2.65c0.21,0.15,0.39,0.26,0.65,0.14
		c1.59-0.4,3.22-0.2,4.83-0.29c0.34-0.02,0.88,0.26,0.44-0.65c-0.36-0.76,0.84-0.58,1.34-0.83c0.16-0.01,0.27-0.09,0.34-0.23
		l-0.01,0.01c1.21,0.02,2.44-0.1,3.62,0.26c0.9,1,1.03,1.87,0.41,3.02c-0.78,1.43-2.03,2.33-3.55,2.8
		C470.34,284.3,469.15,284.68,467.9,284.36z"/>
	<path style="fill-rule:evenodd;clip-rule:evenodd;fill:#E5F2F8;" d="M464.07,279.85c-1.69,0.24-2.43-1.11-3.25-2.11
		c-1.15-1.42-1.59-1.5-2.7,0.05c-0.25,0.35-0.51,0.7-0.77,1.05c-0.04-1.03,0.45-1.92,0.72-2.88c0.18-1.27,1.68-2.78,2.87-2.86
		c0.35-0.02,0.86-0.13,0.77,0.54c-0.07,2.01,0.49,3.72,2.25,4.89c0.35,0.24,0.45,0.5-0.06,0.78
		C463.52,279.53,463.38,279.86,464.07,279.85z"/>
	<path style="fill-rule:evenodd;clip-rule:evenodd;fill:#D7E6E8;" d="M461.72,273.64c-0.87-0.77-1.47,0.04-2.06,0.42
		c-0.7,0.45-1.15,1.18-1.58,1.89c-1.16,0.76-1.86,1.98-2.88,2.88c0.24-0.88,0.48-1.76,0.72-2.64l0,0c0.09-0.07,0.15-0.17,0.24-0.24
		c1.33-1.62,2.49-3.41,4.32-4.56c0.56-0.64,1.2-1.04,2.09-0.71c0.49,0.48,0.59,0.91,0.05,1.48
		C462.22,272.57,462.01,273.15,461.72,273.64z"/>
	<path style="fill-rule:evenodd;clip-rule:evenodd;fill:#DBEAEE;" d="M457.84,282.92c1.8,0.57,3.65,0.72,5.52,0.72
		c-0.01,0.08-0.02,0.16-0.03,0.24c-0.58,2.11-2.18,0.69-3.28,0.86c-0.59,0.09-1.31-0.14-1.98-0.14c-0.4-0.24-0.8-0.48-1.2-0.72
		C457.2,283.56,457.52,283.24,457.84,282.92z"/>
	<path style="fill-rule:evenodd;clip-rule:evenodd;fill:#97D0E3;" d="M493.36,265.16c-0.72-0.24-1.44-0.48-2.16-0.72
		c-0.48-0.32-0.96-0.64-1.44-0.96c0.72-0.63,1.44,0.18,2.16,0c0.56,0.32,1.12,0.64,1.68,0.96
		C493.33,264.61,493.37,264.89,493.36,265.16z"/>
	<path style="fill-rule:evenodd;clip-rule:evenodd;fill:#81C5D9;" d="M491.68,263c0.08,0,0.16,0,0.25,0c0,0.08,0,0.16,0,0.23
		C491.84,263.16,491.76,263.08,491.68,263z"/>
	<path style="fill-rule:evenodd;clip-rule:evenodd;fill:#040404;" d="M492.67,283.65c0.06-0.24,0.12-0.49,0.18-0.73
		c0.32-0.9,0.82-1.68,1.43-2.41c0.28-0.45,0.58-0.31,0.87-0.03c0.26,0.25,0.46,0.55,0.71,0.8c0.35,0.39,0.75,0.75,1.05,1.19
		c0.06,0.08,0.12,0.17,0.18,0.26c0.03,0.04,0.05,0.09,0.08,0.13c0.16,0.32,0.44,0.6,0.31,1.01c0.07,0.24,0.14,0.49,0.22,0.73
		c-0.03,0.31-0.07,0.63-0.1,0.94c-1.08,1.58-2.58,0.95-3.99,0.75l-0.02-0.01c-0.06-0.08-0.14-0.15-0.22-0.22
		c-0.13-0.18-0.25-0.36-0.38-0.54c-0.1-0.32-0.21-0.64-0.31-0.96c-0.05-0.04-0.09-0.07-0.14-0.11
		C492.38,284.15,492.39,283.88,492.67,283.65z"/>
	<path style="fill-rule:evenodd;clip-rule:evenodd;fill:#91CCDE;" d="M506.08,280.04c-0.08,0.08-0.16,0.16-0.24,0.24
		C505.92,280.2,506,280.12,506.08,280.04z"/>
	<path style="fill-rule:evenodd;clip-rule:evenodd;fill:#D3DCD7;" d="M481.57,280.44c-0.09-0.29-0.18-0.57-0.27-0.86
		c0.68-0.52,1.12,0,1.52,0.41c0.61,0.62,1.12,1.34,1.66,2.02c1.6,2.04,3.71,2.76,6.23,2.39c0.66-0.1,1.33-0.31,1.95,0.17l0.01-0.02
		c-1.1,1.21-2.79,1.05-4.12,1.72c-3.06-0.99-5.12-3.29-7.22-5.54l-0.01,0.01C481.46,280.69,481.54,280.58,481.57,280.44z"/>
	<path style="fill-rule:evenodd;clip-rule:evenodd;fill:#8EC7D8;" d="M493.36,286.06c0.07,0.07,0.15,0.14,0.22,0.22
		C493.51,286.21,493.44,286.14,493.36,286.06z"/>
	<path style="fill-rule:evenodd;clip-rule:evenodd;fill:#CBD7D4;" d="M466.45,267.15c-0.23-0.17-0.47-0.35-0.7-0.52
		c0.21-0.39,0.47-0.72,0.97-0.74C466.63,266.3,466.54,266.73,466.45,267.15z"/>
	<path style="fill-rule:evenodd;clip-rule:evenodd;fill:#A5CFD8;" d="M465.27,266.56c-0.16,0-0.31,0-0.47,0
		C464.96,266.35,465.12,266.35,465.27,266.56z"/>
	<path style="fill-rule:evenodd;clip-rule:evenodd;fill:#E5ECEC;" d="M467.9,284.36c0.85-0.16,1.71-0.32,2.56-0.48
		c1.55-0.29,2.83-1.02,3.87-2.21c0.99-1.13,0.9-2.31,0.31-3.55c0.56-0.16,1.12-0.32,1.68-0.48c1.34,4.58-2.74,6.65-6.43,7.19
		c-0.66,0.1-1.33,0.15-2,0.23C467.89,284.83,467.9,284.6,467.9,284.36z"/>
	<path style="fill-rule:evenodd;clip-rule:evenodd;fill:#FEFEFE;" d="M494.59,278.11c-0.72-0.14-1.44-0.22-2.12-0.43
		c-1.1-0.33-2.16-0.85-2.24-2.17c-0.09-1.43,0.61-2.54,1.89-3.19c1.4-0.71,2.88-0.88,4.4-0.44c1.52,0.45,2.32,1.49,2.37,3.06
		c0.05,1.53-0.89,2.32-2.21,2.73C496.01,277.88,495.29,277.97,494.59,278.11z"/>
	<path style="fill-rule:evenodd;clip-rule:evenodd;fill:#F5F9FA;" d="M495.7,281.51c-0.63-0.11-0.5-1.3-1.42-1
		c-0.63-0.2-0.59-0.66-0.44-1.15c1.32-0.42,2.65-0.36,3.98-0.06c0.32,0.07,0.93,0.3,0.71-0.25c-0.43-1.09,0.35-1.5,0.83-2.15
		c0.25-0.33,0.35-0.79,0.51-1.19c0.15-0.4,0.14-0.8,0.01-1.2c-0.01-0.16-0.03-0.32-0.04-0.48c1.22-0.39,1.89,0.45,2.59,1.18
		c0.77,0.81,1.07,1.77,0.65,2.85c-0.39,1.02-0.97,1.94-1.96,2.48C499.44,281.47,497.68,282.17,495.7,281.51z"/>
	<path style="fill-rule:evenodd;clip-rule:evenodd;fill:#E4F0F4;" d="M495.7,281.51c1.29,0.05,2.54-0.19,3.77-0.53
		c1.74-0.48,2.94-1.64,3.44-3.35c0.32-1.11-0.34-2-1.13-2.73c-0.54-0.49-1.16-0.84-1.92-0.86c-0.07-0.04-0.08-0.1-0.04-0.16
		c0.25-0.65,0.65-0.36,1.04-0.17c1.86,0.91,2.97,2.37,3.31,4.42c-1.21,2.54-3.3,3.89-5.96,4.52c-0.26,0.06-0.5,0.19-0.76,0.28
		c-0.16,0.16-0.33,0.13-0.49,0.01l0,0c-0.07-0.08-0.13-0.17-0.2-0.25C496.4,282.29,496.05,281.9,495.7,281.51z"/>
	<path style="fill-rule:evenodd;clip-rule:evenodd;fill:#E3E8E4;" d="M499.88,274.52c0.31,0.4,0.31,0.8-0.01,1.2
		C499.87,275.32,499.88,274.92,499.88,274.52z"/>
	<path style="fill-rule:evenodd;clip-rule:evenodd;fill:#C3C2C2;" d="M493.13,270.46c0,0.09,0,0.18,0,0.27
		c-0.18,0.23-0.58,0.4-0.64,0.16C492.37,270.48,492.99,270.75,493.13,270.46z"/>
	<path style="fill-rule:evenodd;clip-rule:evenodd;fill:#FEFEFE;" d="M466.76,278.28c-1.67,0.02-3.06-0.87-3.56-2.3
		c-0.52-1.48-0.03-3.18,1.19-4.07c0.82-0.6,4.01-0.43,4.94,0.32c1.16,0.93,1.39,2.18,0.98,3.56
		C469.86,277.28,468.46,278.25,466.76,278.28z"/>
	<path style="fill-rule:evenodd;clip-rule:evenodd;fill:#CBD7D4;" d="M462.57,270.69c-0.7,0.24-1.39,0.47-2.09,0.71
		c0.36-1.02,0.85-1.93,1.9-2.41c0.07-0.07,0.15-0.12,0.25-0.14c1.25-0.44,2.35-1.59,3.86-0.83c-0.08,0.3-0.16,0.6-0.24,0.91
		c-0.99-0.52-1.43-0.18-1.26,0.88c0.09,0.53-0.19,0.72-0.54,0.9c-0.58,0.29-0.49-0.29-0.65-0.53c-0.27-0.43-0.65-0.82-1.15-0.61
		C462.1,269.8,462.46,270.29,462.57,270.69z"/>
	<path style="fill-rule:evenodd;clip-rule:evenodd;fill:#DAECF3;" d="M471.02,277.85c-0.11,0.08-0.23,0.16-0.34,0.23
		C470.8,278.01,470.91,277.93,471.02,277.85z"/>
	<path style="fill-rule:evenodd;clip-rule:evenodd;fill:#CBD7D4;" d="M466.7,267.61c-0.06-0.1-0.12-0.19-0.18-0.29
		C466.58,267.42,466.64,267.52,466.7,267.61z"/>
	<path style="fill-rule:evenodd;clip-rule:evenodd;fill:#D2E6ED;" d="M496.95,282.93c0.16,0,0.33-0.01,0.49-0.01
		c1.32,0.16,2.58-0.18,3.84-0.48c-1.11,0.88-2.54,0.93-3.8,1.43C497.3,283.56,497.13,283.24,496.95,282.93z"/>
	<path style="fill-rule:evenodd;clip-rule:evenodd;fill:#A5CFD8;" d="M462.62,268.84c-0.08,0.05-0.17,0.09-0.25,0.14
		c0-0.07,0.02-0.15,0.03-0.22C462.48,268.8,462.55,268.82,462.62,268.84z"/>
	<path style="fill-rule:evenodd;clip-rule:evenodd;fill:#D4DCD7;" d="M456.16,275.96c-0.08,0.08-0.16,0.16-0.24,0.24
		C456,276.12,456.08,276.04,456.16,275.96z"/>
	<path style="fill-rule:evenodd;clip-rule:evenodd;fill:#DAE3E1;" d="M492.67,284.58c-1.46-0.03-2.9,0.45-4.38,0.21
		c-2.47-0.4-3.85-2.2-5.23-4c-0.45-0.59-0.82-1.31-1.75-1.21c-1.09-1.42-1.86-1.45-3.51-0.15c0.05-1.05,0.48-1.98,1.5-2.21
		c1.37-0.31,2.73-0.05,3.64,1.22c0.69,0.97,1.4,1.95,1.98,2.99c0.95,1.73,2.4,2.48,4.31,2.45c1.15-0.02,2.32,0.13,3.45-0.23
		C492.67,283.96,492.67,284.27,492.67,284.58z"/>
	<path style="fill-rule:evenodd;clip-rule:evenodd;fill:#05B2EB;" d="M464.57,284.27c0.09-0.64,0.18-1.75,0.72-1.63
		c0.85,0.19,1.64,0.99,1.68,2.07c0.03,0.88-0.7,0.83-1.27,0.84C464.86,285.56,464.43,285.15,464.57,284.27z"/>
	<path style="fill-rule:evenodd;clip-rule:evenodd;fill:#D4D7CF;" d="M481.57,280.44c-0.08,0.1-0.16,0.21-0.25,0.31
		C481.41,280.65,481.49,280.54,481.57,280.44z"/>
	<path style="fill-rule:evenodd;clip-rule:evenodd;fill:#03B3ED;" d="M495.63,285.31c-1.43,0.25-1.82-0.36-1.76-1.29
		c0.04-0.63-0.05-1.44,0.69-1.72c0.46-0.17,1.96,1.73,1.95,2.38C496.5,285.57,495.76,285.27,495.63,285.31z"/>
	<path style="fill-rule:evenodd;clip-rule:evenodd;fill:#D2E6ED;" d="M496.75,282.68c0.07,0.08,0.13,0.17,0.2,0.25
		C496.88,282.85,496.82,282.77,496.75,282.68z"/>
	<path style="fill-rule:evenodd;clip-rule:evenodd;fill:#080708;" d="M493.34,276.1c0.12-0.6,0.15-1.42,0.99-1.3
		c0.7,0.1,1.85,0.06,1.82,1.13c-0.03,1.05-1.01,1.17-1.88,1.2C493.56,277.14,493.21,276.85,493.34,276.1z"/>
	<path style="fill-rule:evenodd;clip-rule:evenodd;fill:#060505;" d="M465.96,276.59c-0.63,0.05-1.01-0.4-1.01-1
		c0.01-1.04,0.8-1.44,1.69-1.49c0.7-0.04,1.31,0.37,1.25,1.14C467.81,276.32,466.9,276.46,465.96,276.59z"/>
</g>
</svg>
