<?xml version="1.0" encoding="utf-8"?>
<!-- Generator: Adobe Illustrator 16.0.0, SVG Export Plug-In . SVG Version: 6.00 Build 0)  -->
<!DOCTYPE svg PUBLIC "-//W3C//DTD SVG 1.0//EN" "http://www.w3.org/TR/2001/REC-SVG-20010904/DTD/svg10.dtd" [
	<!ENTITY ns_flows "http://ns.adobe.com/Flows/1.0/">
	<!ENTITY ns_extend "http://ns.adobe.com/Extensibility/1.0/">
	<!ENTITY ns_ai "http://ns.adobe.com/AdobeIllustrator/10.0/">
	<!ENTITY ns_graphs "http://ns.adobe.com/Graphs/1.0/">
]>
<svg version="1.0" id="Layer_1" xmlns:x="&ns_extend;" xmlns:i="&ns_ai;" xmlns:graph="&ns_graphs;"
	 xmlns="http://www.w3.org/2000/svg" xmlns:xlink="http://www.w3.org/1999/xlink" xmlns:a="http://ns.adobe.com/AdobeSVGViewerExtensions/3.0/"
	 x="0px" y="0px" width="960px" height="560px" viewBox="0 0 960 560" style="enable-background:new 0 0 960 560;"
	 xml:space="preserve">
<g>
	<path style="fill-rule:evenodd;clip-rule:evenodd;fill:#010101;" d="M479.83,290.16c-3.94-0.16-8.24-0.74-12.07-3.09
		c-6.04-3.7-6.57-12.05-0.88-16.28c3.64-2.7,7.61-4.93,12.34-5.33c2.48-0.21,4.85,0.21,7.21,0.84c1.89,0.51,3.82,0.92,5.63,1.61
		c5.02,1.92,7.54,7.26,6,12.5c-1,3.42-3.06,5.89-6.37,7.32C488.04,289.31,484.23,290.04,479.83,290.16z"/>
	<path style="fill-rule:evenodd;clip-rule:evenodd;fill:#030303;" d="M456.87,283.29c1.04,0,2.08,0.07,3.1-0.02
		c0.94-0.09,1.29,0.42,1.28,1.16c-0.01,0.75,0.28,1.82-1,1.93c-2.98,0.24-5.96,0.43-8.94,0.66c-0.98,0.08-1.15-0.69-1.44-1.32
		c-0.33-0.72,0.11-1.12,0.68-1.42C452.55,283.21,454.73,283.46,456.87,283.29z"/>
	<path style="fill-rule:evenodd;clip-rule:evenodd;fill:#030202;" d="M467.2,301.99c-0.85,0.01-1.36-0.16-1-1.25
		c0.81-2.47,2.21-4.56,3.92-6.48c0.81-0.91,1.57-0.23,2.23,0.14c0.73,0.41-0.06,0.84-0.23,1.19c-0.84,1.71-1.8,3.36-2.62,5.08
		C469,301.7,468.22,302,467.2,301.99z"/>
	<path style="fill-rule:evenodd;clip-rule:evenodd;fill:#030202;" d="M502.9,275.94c-0.25-0.02-0.93-0.06-1.59-0.16
		c-1.01-0.16-0.85-1.01-0.9-1.69c-0.06-0.83,0.6-0.52,1.01-0.59c1.73-0.29,3.46-0.6,5.19-0.86c1.03-0.16,2.07-0.2,3.05,0.28
		c0.59,0.29,0.97,0.8,0.94,1.42c-0.04,0.65-0.73,0.47-1.15,0.58C507.44,275.41,505.43,275.94,502.9,275.94z"/>
	<path style="fill-rule:evenodd;clip-rule:evenodd;fill:#030202;" d="M491.46,298.68c0.3,1.19-0.79,1.55-1.76,2.02
		c-0.97,0.47-1.26-0.4-1.7-0.88c-1.19-1.31-2.12-2.77-2.6-4.51c-0.22-0.8-0.21-1.37,0.59-1.8c0.8-0.44,1.48-0.28,2.04,0.34
		c0.45,0.5,0.83,1.07,1.22,1.62c0.4,0.55,0.77,1.16,1.43,1.4C491.49,297.16,491.43,297.8,491.46,298.68z"/>
	<path style="fill-rule:evenodd;clip-rule:evenodd;fill:#020202;" d="M505.85,291.99c-1.03-0.09-1.9-0.57-2.73-1.14
		c-1.33-0.91-2.49-2-3.56-3.19c-0.29-0.32-0.72-0.65-0.35-1.13c0.41-0.53,1.17-1.21,1.62-0.97c2.21,1.22,4.81,1.9,6.38,4.09
		c0.3,0.42,0.85,0.88,0.5,1.48C507.32,291.82,506.63,292.05,505.85,291.99z"/>
	<path style="fill-rule:evenodd;clip-rule:evenodd;fill:#040303;" d="M459.36,273.02c-2.71-0.19-5.28-0.76-7.85-1.31
		c-0.59-0.13-0.98-0.4-0.79-1.06c0.16-0.54,0.2-1.1,1.1-1.04c2.67,0.18,5.3,0.61,7.94,1.04c1.06,0.17,1.12,1.12,1.05,1.86
		C460.72,273.57,459.8,272.81,459.36,273.02z"/>
	<path style="fill-rule:evenodd;clip-rule:evenodd;fill:#040303;" d="M500.78,260.48c0.79,0.04,1.33,0.34,1.62,0.98
		c0.31,0.7-0.37,0.89-0.71,1.19c-1.83,1.64-3.95,2.77-6.23,3.68c-1.23,0.49-1.34-0.56-1.68-1.12c-0.49-0.8,0.34-0.89,0.83-1.03
		c2.02-0.57,3.59-1.85,5.14-3.16C500.07,260.75,500.34,260.35,500.78,260.48z"/>
	<path style="fill-rule:evenodd;clip-rule:evenodd;fill:#050403;" d="M481.8,258.43c-0.11,0.72-0.2,1.47-0.35,2.21
		c-0.3,1.46-1.15,1.96-2.55,1.54c-0.41-0.12-0.76-0.35-0.8-0.79c-0.04-0.51,0.4-0.34,0.69-0.39c0.58-0.09,0.35-0.56,0.32-0.86
		c-0.08-0.91-0.29-1.81-0.35-2.73c-0.05-0.81,0.03-1.72,1.06-1.86c1.06-0.14,1.6,0.55,1.79,1.52
		C481.72,257.52,481.75,257.96,481.8,258.43z"/>
	<path style="fill-rule:evenodd;clip-rule:evenodd;fill:#040303;" d="M463.78,258.43c1.26,0.04,4.41,2.9,4.46,3.96
		c0.01,0.18-0.09,0.39-0.18,0.55c-0.6,1.02-1.42,1.07-2.13,0.14c-0.95-1.24-1.95-2.43-3.47-3c-0.57-0.21-0.4-0.44-0.16-0.76
		C462.7,258.78,463.2,258.44,463.78,258.43z"/>
	<path style="fill-rule:evenodd;clip-rule:evenodd;fill:#F5932E;" d="M472.28,287.87c-6.58-1.37-9.85-8.09-6.86-14.13
		c0.48-0.97,1.07-1.87,2.07-2.4c0.47,0.5,0.25,1.05,0.09,1.57c-0.3,0.95-0.49,1.93-0.82,2.87c-1,2.89-0.33,5.32,1.9,7.36
		c0.27,0.81-0.58,1.03-0.83,1.57c-0.06,0.12-0.18,0.17-0.32,0.19c0.12,0.08,0.23,0,0.34-0.03c0.26-0.09,0.54-0.2,0.73-0.39
		c0.78-0.78,1.45-0.65,2.08,0.18c0.12,0.16,0.28,0.29,0.39,0.46C471.42,286.05,472.26,286.77,472.28,287.87z"/>
	<path style="fill-rule:evenodd;clip-rule:evenodd;fill:#F9AF2A;" d="M468.72,283.34c-2.15-0.96-3.26-4.17-2.51-6.91
		c0.46-1.68,1.18-3.31,1.28-5.08c0.84-0.41,1.33-2.06,2.66-0.76c-0.18,0.45-0.42,0.87-0.66,1.29c-0.27,0.27-0.71,0.48-0.4,0.97
		c0.39,0.62,0.17,1.16-0.22,1.63c-0.51,0.62-0.48,1.42-0.79,2.09c-0.93,0.64-0.74,1.47-0.4,2.32c0.1,0.2,0.19,0.4,0.27,0.6
		c0.42,0.99,0.96,1.9,1.79,2.62c0.23,0.2,0.53,0.38,0.43,0.78C469.73,283.22,469.28,283.46,468.72,283.34z"/>
	<path style="fill-rule:evenodd;clip-rule:evenodd;fill:#F69C2D;" d="M494.88,271.29c2.4,2.14,2.8,4.91,2.34,7.87
		c-0.56,3.61-2.42,6.27-5.95,7.59c-0.51-0.54-0.1-1.03,0.13-1.5c0.39-0.79,1.08-1.34,1.7-1.94c0.37-0.36,0.73-0.71,0.78-1.26
		c0.33-0.28,0.86-0.29,1.04-0.78c1.63-2.7,1.09-5.41,0.07-8.13C494.77,272.55,494.27,271.95,494.88,271.29z"/>
	<path style="fill-rule:evenodd;clip-rule:evenodd;fill:#FCE81B;" d="M475.65,267.47c3.92-1.35,7.83-0.9,11.74,0.04
		c0.14,0.17,0.15,0.35,0.01,0.53c-0.91,0.32-1.87,0.48-2.74,0.91c-2.55-0.53-5.05,0.05-7.55,0.38c-0.43,0.06-0.87,0.15-1.28-0.1
		C475.32,268.69,475.17,268.11,475.65,267.47z"/>
	<path style="fill-rule:evenodd;clip-rule:evenodd;fill:#FCC221;" d="M490.06,268.43c0.4,0.16,0.79,0.32,1.19,0.48
		c0.2,0.24,0.44,0.43,0.68,0.64c0.59,0.63,1.26,1.2,1.78,1.91c0.12,0.14,0.23,0.28,0.34,0.42c1.41,2.34,1.99,4.84,1.4,7.54
		c-0.16,0.71-0.4,1.39-1.2,1.65c-0.43,0.02-0.77-0.11-0.93-0.54c0.61-1.65,0.96-3.33,0.44-5.09c-0.42-1.41-0.82-2.83-2.2-3.66
		c-0.38-0.32-0.62-0.8-1.1-1.02c-0.47-0.4-1.04-0.73-1.03-1.46c0.08-0.25,0.32-0.41,0.43-0.65
		C489.9,268.56,489.97,268.48,490.06,268.43z"/>
	<path style="fill-rule:evenodd;clip-rule:evenodd;fill:#FBE31D;" d="M488.85,287.68c-1.67,0.66-3.4,1.1-5.2,1.19
		c-0.41,0.19-0.88-0.01-1.29,0.17c-0.64,0.02-1.28,0.04-1.92,0.06c-0.66-0.7-0.13-0.95,0.44-1.18c2.57-0.43,4.8-1.69,7.02-2.96
		c0.18-0.07,0.36-0.11,0.55-0.12c0.13,0,0.25,0.04,0.36,0.11C489.4,285.84,489.14,286.76,488.85,287.68z"/>
	<path style="fill-rule:evenodd;clip-rule:evenodd;fill:#FAAD29;" d="M493.4,271.56c-0.56-0.64-1.12-1.28-1.68-1.92
		c-0.01-0.42,0.21-0.39,0.49-0.25l0,0c0.08,0.12,0.18,0.21,0.34,0.22c0.06-0.03,0.11-0.01,0.14,0.06c0.09,0.08,0.18,0.16,0.3,0.19
		c0.09-0.01,0.15,0.03,0.19,0.11c0.08,0.03,0.16,0.08,0.22,0.15l0.01,0.01c0.08,0.1,0.17,0.18,0.3,0.22
		c0.14,0.1,0.28,0.21,0.42,0.31c0.08,0.06,0.16,0.12,0.24,0.18l0.01,0c0.07,0.1,0.14,0.19,0.26,0.23l-0.01-0.01
		c0.06,0.11,0.13,0.21,0.26,0.25l0-0.01c-0.02,1.59,1.07,2.85,1.26,4.42c0.26,2.16,0.27,4.19-1.1,6.01c-0.48-0.06-0.92-0.18-0.9-0.8
		c1.5-1.21,1.29-2.92,1.13-4.48c-0.16-1.64-0.64-3.25-1.63-4.64C493.55,271.73,493.49,271.63,493.4,271.56z"/>
	<path style="fill-rule:evenodd;clip-rule:evenodd;fill:#FBD22B;" d="M475.65,267.47c0.08,0.56,0.15,1.13,0.23,1.69
		c-0.92,0.9-2.19,1.23-3.22,1.96c-0.4,0.28-0.63,0.69-0.86,1.11c-0.39,0.72-0.95,1.04-1.73,0.52c-0.07-0.12-0.09-0.25,0.01-0.38
		c-0.01-0.08-0.04-0.15-0.11-0.2c-0.1-0.07-0.21-0.12-0.32-0.16c-0.12-0.05-0.22-0.11-0.25-0.25c0.02-0.53,0.09-1.03,0.74-1.17
		c0.69,0.08,1.34-0.11,1.96-0.38c0.37-0.17,0.97-0.26,0.92-0.75c-0.04-0.38-0.58-0.29-0.93-0.32c-0.13-0.01-0.39,0.06-0.32-0.18
		c0.04-0.15,0.24-0.29,0.4-0.36C473.3,268.13,474.41,267.6,475.65,267.47z"/>
	<path style="fill-rule:evenodd;clip-rule:evenodd;fill:#FBCC26;" d="M480.92,288.16c-0.42,0.18-0.73,0.42-0.48,0.94
		c-0.73,0.14-1.45,0.08-2.17-0.06c-1.54-0.17-2.99-0.66-4.36-1.35c-1.19-0.59-1.55-1.26-1.28-2.09c0.18-0.08,0.36-0.1,0.55-0.08
		c0.25,0.04,0.49,0.09,0.74,0.12c0.56,0.09,1.11,0.23,1.58,0.52c1.48,0.92,3.05,1.55,4.81,1.67
		C480.56,287.84,480.79,287.93,480.92,288.16z"/>
	<path style="fill-rule:evenodd;clip-rule:evenodd;fill:#F8B42A;" d="M472.79,285.7c-0.21,1.2,0.81,1.49,1.52,1.83
		c1.27,0.61,2.64,1.02,3.96,1.51c-2.06-0.07-4.05-0.5-6-1.17c-0.54-0.87-1.13-1.71-1.42-2.71c0.15-0.1,0.31-0.11,0.48-0.09
		c0.17,0.02,0.34,0.05,0.5,0.07C472.21,285.25,472.71,285.12,472.79,285.7z"/>
	<path style="fill-rule:evenodd;clip-rule:evenodd;fill:#F9AD2C;" d="M493.88,282.15c0.69,0.54-0.02,0.77-0.26,1.06
		c-0.92,1.09-2.36,1.83-2.35,3.54c-0.49,0.21-0.98,0.41-1.46,0.62c-0.2-0.9,0.27-1.61,0.66-2.33c0.23-0.42,0.5-0.81,0.45-1.33
		c0.63-0.71,1.52-1.09,2.21-1.74C493.37,281.73,493.71,281.73,493.88,282.15z"/>
	<path style="fill-rule:evenodd;clip-rule:evenodd;fill:#FAC628;" d="M490.92,283.75c0.51,0.09,0.6,0.33,0.26,0.73
		c-0.71,0.84-0.98,1.9-1.38,2.9c-0.32,0.1-0.63,0.21-0.95,0.31c-0.48-0.86,0.44-1.91-0.35-2.73
		C489.01,283.95,489.81,283.54,490.92,283.75z"/>
	<path style="fill-rule:evenodd;clip-rule:evenodd;fill:#F7AE29;" d="M492.21,269.39c-0.16,0.08-0.33,0.17-0.49,0.25
		c-0.32-0.14-0.48-0.38-0.47-0.73C491.57,269.07,491.89,269.23,492.21,269.39z"/>
	<path style="fill-rule:evenodd;clip-rule:evenodd;fill:#352F30;" d="M488.32,267.77c0.41-0.02,0.74,0.12,1,0.44
		c-0.04,0.04-0.08,0.08-0.13,0.12c-0.36,0.15-0.69,0.14-0.92-0.23C488.24,267.98,488.26,267.87,488.32,267.77z"/>
	<path style="fill-rule:evenodd;clip-rule:evenodd;fill:#7B7475;" d="M488.32,267.77c0.01,0.06,0.02,0.11,0.03,0.17
		c-0.34,0.29-0.67,0.33-1.01,0c0.02-0.14,0.03-0.28,0.05-0.41C487.7,267.6,488.01,267.68,488.32,267.77z"/>
	<path style="fill-rule:evenodd;clip-rule:evenodd;fill:#FBCC26;" d="M482.36,289.04c0.39-0.33,0.85-0.18,1.29-0.17
		C483.25,289.12,482.81,289.09,482.36,289.04z"/>
	<path style="fill-rule:evenodd;clip-rule:evenodd;fill:#352F30;" d="M490.06,268.43c-0.01,0.09-0.03,0.18-0.04,0.28
		c-0.4,0.05-0.74,0.03-0.7-0.51l-0.01,0.01C489.59,268.18,489.88,268.14,490.06,268.43z"/>
	<path style="fill-rule:evenodd;clip-rule:evenodd;fill:#F7AE29;" d="M492.55,269.61c-0.11-0.07-0.23-0.15-0.34-0.22
		C492.32,269.46,492.43,269.53,492.55,269.61z"/>
	<path style="fill-rule:evenodd;clip-rule:evenodd;fill:#F69C2D;" d="M494.63,271.06c-0.08-0.08-0.17-0.15-0.26-0.23
		C494.46,270.91,494.54,270.98,494.63,271.06z"/>
	<path style="fill-rule:evenodd;clip-rule:evenodd;fill:#F69C2D;" d="M494.88,271.3c-0.09-0.08-0.17-0.16-0.26-0.25
		C494.7,271.13,494.79,271.21,494.88,271.3z"/>
	<path style="fill-rule:evenodd;clip-rule:evenodd;fill:#F7AE29;" d="M494.36,270.83c-0.08-0.06-0.16-0.12-0.24-0.18
		C494.21,270.71,494.29,270.77,494.36,270.83z"/>
	<path style="fill-rule:evenodd;clip-rule:evenodd;fill:#F7AE29;" d="M493.71,270.33c-0.1-0.07-0.2-0.14-0.3-0.22
		C493.51,270.19,493.61,270.26,493.71,270.33z"/>
	<path style="fill-rule:evenodd;clip-rule:evenodd;fill:#F7AE29;" d="M493.4,270.11c-0.07-0.05-0.15-0.1-0.22-0.15
		C493.25,270.01,493.32,270.06,493.4,270.11z"/>
	<path style="fill-rule:evenodd;clip-rule:evenodd;fill:#F7AE29;" d="M492.99,269.85c-0.1-0.06-0.2-0.13-0.3-0.19
		C492.78,269.73,492.88,269.79,492.99,269.85z"/>
	<path style="fill-rule:evenodd;clip-rule:evenodd;fill:#F7E414;" d="M456.01,285.62c-1.53,0.08-2.7-0.06-3.8,0.39
		c-0.38,0.15-0.81,0.35-0.98-0.22c-0.15-0.49,0.22-0.69,0.64-0.82c2.05-0.65,4.16-0.58,6.26-0.52c0.6,0.02,1.71-0.62,1.76,0.43
		c0.04,0.84-1.13,0.62-1.78,0.71C457.3,285.71,456.45,285.62,456.01,285.62z"/>
	<path style="fill-rule:evenodd;clip-rule:evenodd;fill:#F3E118;" d="M467.91,300.47c-0.37,0.03-0.26-0.22-0.2-0.37
		c0.61-1.51,1.28-2.98,2.44-4.17c0.09-0.09,0.26-0.11,0.39-0.16c0.01,0.11,0.06,0.24,0.02,0.33c-0.61,1.41-0.97,2.95-2.17,4.03
		C468.25,300.27,468.07,300.36,467.91,300.47z"/>
	<path style="fill-rule:evenodd;clip-rule:evenodd;fill:#EFDD1F;" d="M505.98,273.73c0.7,0.09,1.42-0.01,2.09,0.32
		c-0.59,0.47-1.33,0.44-2.01,0.6c-1.12,0.25-2.27,0.39-3.42,0.23c-0.18-0.03-0.34-0.17-0.51-0.26c0.16-0.11,0.3-0.26,0.47-0.33
		C503.69,273.88,504.83,273.76,505.98,273.73z"/>
	<path style="fill-rule:evenodd;clip-rule:evenodd;fill:#FAE712;" d="M489.92,298.57c-0.1,0.3,0.04,0.71-0.34,0.84
		c-0.32,0.12-0.5-0.2-0.69-0.38c-0.97-0.96-1.79-2.02-2.12-3.38c-0.08-0.33-0.27-0.78,0.06-0.98c0.32-0.2,0.54,0.24,0.75,0.44
		C488.62,296.1,489.75,297.02,489.92,298.57z"/>
	<path style="fill-rule:evenodd;clip-rule:evenodd;fill:#F8E613;" d="M501.04,286.65c1.53,1.29,3.79,1.49,4.98,3.34
		c0.13,0.21,0.41,0.48,0.2,0.72c-0.1,0.11-0.46,0.07-0.67,0c-1.97-0.62-3.52-1.83-4.78-3.43c-0.12-0.16-0.28-0.31-0.11-0.51
		C500.72,286.7,500.87,286.7,501.04,286.65z"/>
	<path style="fill-rule:evenodd;clip-rule:evenodd;fill:#F4E110;" d="M452.75,270.58c2.12,0.26,4.22,0.52,6.32,0.77
		c0.37,0.04,0.63,0.11,0.55,0.56c-0.08,0.45-0.38,0.28-0.64,0.24c-2.09-0.33-4.18-0.64-6.26-0.99c-0.26-0.04-0.78,0.11-0.74-0.35
		C452.02,270.37,452.49,270.61,452.75,270.58z"/>
	<path style="fill-rule:evenodd;clip-rule:evenodd;fill:#F5E211;" d="M500.99,262.02c-0.1,0.09-0.21,0.2-0.33,0.29
		c-1.5,1.1-2.98,2.24-4.67,3.05c-0.23,0.11-0.45,0.41-0.7,0.04c-0.3-0.43,0.07-0.57,0.32-0.72c1.6-0.94,3.22-1.87,4.82-2.8
		C500.64,261.76,500.85,261.6,500.99,262.02z"/>
	<path style="fill-rule:evenodd;clip-rule:evenodd;fill:#F0DD12;" d="M480.83,257.71c-0.09,0.97-0.17,1.95-0.28,2.93
		c-0.02,0.2,0.05,0.55-0.29,0.51c-0.25-0.03-0.54-0.19-0.53-0.54c0.02-1.19,0.05-2.37,0.08-3.56c0.01-0.31,0.16-0.42,0.46-0.32
		C480.74,256.89,481.05,257.14,480.83,257.71z"/>
	<path style="fill-rule:evenodd;clip-rule:evenodd;fill:#EBD812;" d="M464.21,259.35c0.21,0.12,0.46,0.2,0.62,0.36
		c0.79,0.79,1.56,1.61,2.32,2.42c0.12,0.13,0.35,0.31,0.13,0.48c-0.11,0.09-0.43,0.1-0.53,0.01c-0.94-0.87-1.85-1.76-2.75-2.67
		C463.71,259.65,463.9,259.46,464.21,259.35z"/>
	<path style="fill-rule:evenodd;clip-rule:evenodd;fill:#010101;" d="M490.92,283.75c-0.9,0.22-1.71,0.6-2.42,1.2l-0.08,0
		l-0.05,0.06c-0.1,0.09-0.19,0.17-0.32,0.21c-2.26,1.26-4.43,2.73-7.13,2.95c-1.99,0.01-3.81-0.55-5.48-1.65
		c-0.48-0.32-1.02-0.61-1.65-0.59c-0.18-0.07-0.38-0.07-0.55-0.17c-0.15-0.02-0.3-0.04-0.45-0.05c-0.39-0.09-0.77-0.17-1.16-0.26
		c-0.12,0-0.2-0.1-0.31-0.14c-0.16-0.05-0.31-0.09-0.47-0.14c-0.76-0.79-1.51-1.5-2.45-0.17c-0.2,0.28-0.7,0.43-0.95,0.14
		c-0.26-0.31,0.09-0.66,0.31-0.91c0.28-0.32,0.63-0.59,0.94-0.89c0.47-0.17,0.84-0.6,1.39-0.54c0.31-0.11,0.54,0.06,0.71,0.27
		c0.56,0.71,1.34,1.01,2.19,1.21c0.62,0.13,1.27,0.09,1.89,0.28c1.16,0.24,2.29,0.61,3.49,0.55c1.11-0.04,2.22,0.16,3.33-0.1
		c0.12-0.04,0.25-0.06,0.38-0.08c1.46-0.03,2.84-0.43,4.22-0.87c0.75-0.19,1.48-0.47,2.21-0.72c0.79-0.2,1.48-0.63,2.21-0.96
		c0.75-0.27,1.12-0.79,1.08-1.6c-0.03-0.59,0.27-0.86,0.86-0.82c0.31,0.06,0.57,0.18,0.71,0.48c0.25,0.16,0.51,0.31,0.77,0.47
		c0.3,0.27,0.6,0.54,0.9,0.8c-0.15,0.78-0.77,0.28-1.15,0.43c-0.45-0.31-0.75-0.03-0.98,0.29
		C492.4,283.13,491.68,283.47,490.92,283.75z"/>
	<path style="fill-rule:evenodd;clip-rule:evenodd;fill:#010101;" d="M469.4,271.76c0.15,0.02,0.3,0.04,0.46,0.05
		c0.08,0.06,0.16,0.12,0.25,0.16l0.04,0.08c0.06,0.07,0.06,0.14,0.02,0.22c-0.16,0.44,0.05,0.6,0.44,0.49
		c0.4-0.11,1.02,0.02,1.02-0.68c0-0.64,0.41-0.97,0.89-1.26c0.34-0.16,0.67-0.15,0.97,0.1c0.08,0.75,0.45,0.81,1.01,0.41
		c0.63-0.06,1.14,0.19,1.61,0.56c0.08,0.09,0.12,0.19,0.15,0.3c-0.33,0.71-0.36,1.42,0.08,2.11c0.22,1.01-0.02,1.96-0.66,2.7
		c-0.59,0.67-0.98,1.42-1.35,2.21c-0.25,0.22-0.52,0.19-0.79,0.07c-0.15-0.06-0.29-0.13-0.45-0.17c-0.11-0.01-0.21-0.02-0.32-0.03
		c-0.27-0.01-0.54,0-0.81,0c-0.4,0.01-0.79-0.02-1.18,0.04c-0.22,0.08-0.44,0.16-0.67,0.23c-0.78,0.19-1.56,0.46-2.38,0.16
		c-0.27-0.08-0.21-0.33-0.26-0.52c-0.05-0.06-0.07-0.13-0.07-0.2c0.01-0.07,0.02-0.11,0.03-0.11c0.05-0.16,0.15-0.29,0.26-0.41
		c0.91-0.45,0.08-1.13,0.23-1.68c-0.02-0.81,0.12-1.56,0.67-2.2c0.48-0.56,0.59-1.01,0.01-1.73
		C468,271.9,469.06,272.01,469.4,271.76z"/>
	<path style="fill-rule:evenodd;clip-rule:evenodd;fill:#FCD42E;" d="M467.72,279.51c0.8-0.14,1.59-0.28,2.39-0.42
		c0.29,0.2,0.38,0.51,0.44,0.82c0.26,1.21,0.93,2.19,1.73,3.1c0.37,0.42,0.93,0.81,0.69,1.53c-1.32,0.01-2.11-0.84-2.86-1.75
		C468.98,281.95,468.02,280.97,467.72,279.51z"/>
	<path style="fill-rule:evenodd;clip-rule:evenodd;fill:#F7C325;" d="M467.51,278.83c0.03,0.07,0.01,0.12-0.04,0.17
		c-0.87-0.79-0.25-1.69-0.11-2.5c0.09-0.52,0.37,0.03,0.56,0.1c0.04,0.07,0.06,0.16,0.11,0.2c1.13,0.82,0.87,1.37-0.34,1.73
		C467.62,278.62,467.53,278.7,467.51,278.83z"/>
	<path style="fill-rule:evenodd;clip-rule:evenodd;fill:#FDE839;" d="M473.42,271.09c-0.3-0.09-0.6-0.18-0.9-0.27
		c1.1-0.59,2.13-1.32,3.36-1.66c2.96-0.35,5.9-1.29,8.92-0.48c0.74,0.29,1.58-0.04,2.31,0.37c0.33,0.46,0.38,0.93,0.05,1.42
		c-0.23,0.16-0.48,0.2-0.74,0.19c-0.28-0.01-0.55-0.08-0.79-0.23c-1.68-0.99-3.52-0.92-5.32-0.62c-2.05,0.34-4.2,0.3-6.09,1.36
		C473.96,271.3,473.67,271.28,473.42,271.09z"/>
	<path style="fill-rule:evenodd;clip-rule:evenodd;fill:#080604;" d="M487.15,269.2c-0.62,0-1.24-0.03-1.86-0.01
		c-0.39,0.01-0.6-0.08-0.49-0.52c0.71-0.7,1.61-0.77,2.54-0.75c0.34,0,0.67,0,1.01,0c0.25,0.37,0.63,0.23,0.97,0.26
		c0.23,0.17,0.46,0.34,0.7,0.51c0.26,0.59-0.37,0.21-0.46,0.42C488.77,269.71,487.97,269.7,487.15,269.2z"/>
	<path style="fill-rule:evenodd;clip-rule:evenodd;fill:#010101;" d="M486.56,270.38c0.21-0.05,0.42-0.09,0.63-0.14
		c0.67-0.33,1.22-0.13,1.64,0.43c0.3,0.4,0.59,0.47,0.96,0.12c0.12-0.11,0.26-0.21,0.41-0.28c0.11-0.03,0.22,0,0.31,0.06
		c0.64,0.01,0.94,0.37,0.99,0.98c-0.56,1.13,0.44,1.99,0.52,3.02c0.27,1.17-0.6,2.15-0.49,3.29c0,0.61-0.1,1.16-0.81,1.31
		c-0.53,0.05-0.86-0.38-1.29-0.53c-0.44-0.07-0.87-0.08-1.3,0.08c-0.32,0.09-0.65,0.13-0.96,0.25c-0.69,0.2-1.37,0.46-2.09,0.51
		c-0.95,0.06-1.28-0.42-0.78-1.19c0.34-0.53,0.21-0.86-0.13-1.26c-0.81-0.97-1.06-2.04-0.45-3.21c0.24-0.45,0.19-0.83-0.13-1.21
		c-0.21-0.32-0.32-0.65-0.14-1.03c0.07-0.1,0.17-0.18,0.28-0.23c0.29-0.11,0.58-0.11,0.88-0.06c0.27,0.05,0.5,0.19,0.69,0.38
		c0.1,0.09,0.2,0.18,0.33,0.24c0.13,0.02,0.26,0.01,0.39-0.03c0.38-0.18,0.43-0.48,0.32-0.84
		C486.32,270.79,486.17,270.5,486.56,270.38z"/>
	<path style="fill-rule:evenodd;clip-rule:evenodd;fill:#FDD618;" d="M491.75,274.44c-0.15-0.37-0.21-0.83-0.48-1.08
		c-0.79-0.75-0.41-1.27,0.23-1.8c1.63,0.2,1.88,1.68,2.25,2.78c0.69,2.02,1.22,4.17-0.38,6.11c-0.23-0.09-0.46-0.17-0.68-0.26
		c-0.17-0.18-0.32-0.4-0.27-0.64C492.78,277.77,492.14,276.12,491.75,274.44z"/>
	<path style="fill-rule:evenodd;clip-rule:evenodd;fill:#FADC21;" d="M490.06,270.84c-0.72,1.05-0.79,1.05-1.4,0.02
		c-0.32-0.54-0.93-0.51-1.47-0.61c0-0.35-0.29-0.69-0.04-1.05c0.8-0.02,1.61-0.05,2.41-0.07c-0.01,0.7,0.72,0.92,0.95,1.46
		l-0.08,0.05l-0.09-0.01C490.22,270.66,490.13,270.74,490.06,270.84z"/>
	<path style="fill-rule:evenodd;clip-rule:evenodd;fill:#F7AE29;" d="M493.4,271.56c0.08,0.08,0.16,0.16,0.24,0.24
		C493.56,271.72,493.48,271.64,493.4,271.56z"/>
	<path style="fill-rule:evenodd;clip-rule:evenodd;fill:#FAC628;" d="M488.05,285.21c0.11-0.07,0.21-0.14,0.32-0.21
		C488.26,285.07,488.16,285.14,488.05,285.21z"/>
	<path style="fill-rule:evenodd;clip-rule:evenodd;fill:#F9AF2A;" d="M470.17,272.27c-0.03-0.07-0.03-0.14-0.02-0.22
		c0.03,0.05,0.07,0.1,0.09,0.15C470.25,272.21,470.2,272.24,470.17,272.27z"/>
	<path style="fill-rule:evenodd;clip-rule:evenodd;fill:#F9AF2A;" d="M470.11,271.97c-0.08-0.05-0.17-0.11-0.25-0.16
		C469.94,271.87,470.03,271.92,470.11,271.97z"/>
	<path style="fill-rule:evenodd;clip-rule:evenodd;fill:#F8B42A;" d="M473.24,285.75c0.18,0.06,0.37,0.12,0.55,0.17
		C473.61,285.87,473.43,285.81,473.24,285.75z"/>
	<path style="fill-rule:evenodd;clip-rule:evenodd;fill:#F5932E;" d="M471.33,285.3c0.1,0.05,0.2,0.09,0.31,0.14
		C471.53,285.39,471.43,285.34,471.33,285.3z"/>
	<path style="fill-rule:evenodd;clip-rule:evenodd;fill:#FCF394;" d="M473.51,278.98c0.22,0.07,0.43,0.14,0.65,0.22
		c0.04,0.05,0.07,0.1,0.11,0.14c-0.12,0.77,0.12,1.43,0.69,1.94c2.69,2.36,5.71,3.54,9.34,2.06c1.79-0.73,3.12-1.9,3.53-3.89
		c0.08-0.41,0.27-0.74,0.59-1.01c1.07,0.17,0.77,0.97,0.61,1.54c-0.66,2.36-2.32,3.8-4.56,4.62c-0.76,0.28-1.54,0.53-2.34,0.66
		l-0.07,0.05l-0.08-0.04c-3.59,0.14-6.52-1.17-8.66-4.07c-0.51-0.7-0.95-1.52-0.31-2.42c0.08,0.02,0.17,0.04,0.26,0.06
		C473.34,278.88,473.43,278.92,473.51,278.98z"/>
	<path style="fill-rule:evenodd;clip-rule:evenodd;fill:#FCE124;" d="M491.75,274.44c1.2,1.77,1.29,3.73,0.94,5.75
		c-0.42-0.03-0.72-0.06-0.58,0.59c0.19,0.95-0.13,1.69-1.23,1.84c-0.8-0.02-0.47-0.56-0.36-0.9c0.29-0.92,0.51-1.85,0.75-2.78
		c0.1-0.39,0.2-0.77,0-1.16c-0.31-0.28-0.35-0.56-0.09-0.91C491.72,276.16,491.75,275.3,491.75,274.44z"/>
	<path style="fill-rule:evenodd;clip-rule:evenodd;fill:#FCF182;" d="M473,278.78c-0.14,1.74,0.82,2.91,2.07,3.89
		c2.02,1.58,4.37,2.34,6.9,2.59c-1.22,0.37-2.46,0.19-3.7,0.16c-2.53-0.73-4.69-1.97-5.91-4.42c-0.34-0.69-0.79-1.41-0.32-2.24
		C472.35,278.77,472.68,278.78,473,278.78z"/>
	<path style="fill-rule:evenodd;clip-rule:evenodd;fill:#FBEA63;" d="M472.03,278.77c0.3,2.28,1.44,3.98,3.47,5.09
		c0.93,0.51,1.85,1.05,2.77,1.57c-1.24-0.02-2.46-0.17-3.62-0.63c-1.68-1.23-3.21-2.57-3.53-4.8c-0.06-0.44-0.49-0.72-0.51-1.18
		C471.08,278.8,471.56,278.79,472.03,278.77z"/>
	<path style="fill-rule:evenodd;clip-rule:evenodd;fill:#FCF083;" d="M482.12,285.26c1.93-0.85,4.01-1.42,5.45-3.16
		c0.64-0.76,1.04-1.6,1.23-2.54c0.07-0.36,0.27-0.93-0.46-1c-0.1,0.05-0.18,0.02-0.25-0.06c0.46-0.32,0.97-0.22,1.47-0.15
		c0.64,1.17,0.13,2.23-0.41,3.23c-0.62,1.17-1.63,1.99-2.69,2.75C485.07,284.9,483.62,285.21,482.12,285.26z"/>
	<path style="fill-rule:evenodd;clip-rule:evenodd;fill:#FCE443;" d="M470.6,278.82c0.3,0.22,0.7,0.26,0.75,0.8
		c0.17,1.87,1.3,3.18,2.64,4.35c0.26,0.23,0.44,0.55,0.65,0.83c-0.56-0.08-1.12-0.17-1.67-0.25c-0.86-1.58-2.52-2.68-2.75-4.63
		c-0.03-0.27-0.08-0.55-0.11-0.82C470.27,279,470.43,278.91,470.6,278.82z"/>
	<path style="fill-rule:evenodd;clip-rule:evenodd;fill:#FCEC66;" d="M486.47,284.34c0.29-0.73,0.96-1.15,1.49-1.68
		c1.21-1.2,1.69-2.65,1.61-4.31c0.47,0,0.59,0.51,0.95,0.67c0.46,1.77-0.66,2.98-1.54,4.27c-0.08,0.13-0.26,0.18-0.35,0.32
		C487.96,283.99,487.24,284.24,486.47,284.34z"/>
	<path style="fill-rule:evenodd;clip-rule:evenodd;fill:#FBE444;" d="M488.64,283.61c0.69-1.5,1.78-2.84,1.89-4.59
		c0.86-0.05,0.71-0.69,0.73-1.24c0.63,1.49-0.03,2.83-0.49,4.18c-0.1,0.28-0.28,0.49,0.1,0.66
		C490.21,283.13,489.44,283.41,488.64,283.61z"/>
	<path style="fill-rule:evenodd;clip-rule:evenodd;fill:#C37D2C;" d="M480.62,286.28c0.28,0,0.57-0.05,0.83,0.01
		c0.41,0.09,1.12-0.32,1.17,0.33c0.03,0.44-0.71,0.41-1.1,0.43c-0.78,0.04-1.58-0.07-2.36-0.13c-0.27-0.02-0.65,0-0.63-0.38
		c0.02-0.38,0.4-0.29,0.66-0.3c0.48-0.01,0.95,0,1.43,0C480.62,286.25,480.62,286.27,480.62,286.28z"/>
	<path style="fill-rule:evenodd;clip-rule:evenodd;fill:#FDF7B1;" d="M483.79,272.52c0.54,0.26,1.01,0.43,0.4,1.19
		c-0.93,1.15-0.58,2.31,0.32,3.33c0.44,0.5,1.03,0.93-0.03,1.38c-0.21,0.09-0.45,0.3-0.28,0.54c0.12,0.16,0.43,0.29,0.62,0.26
		c0.78-0.12,1.55-0.31,2.32-0.47c0.7,0.13,0.41,0.65,0.33,0.99c-0.3,1.34-1.27,2.22-2.37,2.88c-3.8,2.28-7.5,0.86-10.24-1.97
		c-0.36-0.38-0.55-0.87-0.65-1.39l-0.06-0.07c-0.05-1.05,0.58-1.7,1.26-2.39c0.68-0.68,0.8-1.6,0.67-2.55
		c-0.23-0.6,0.12-0.95,0.61-1.08c2-0.53,4.01-0.99,6.09-1.02C483.16,272.16,483.48,272.32,483.79,272.52z"/>
	<path style="fill-rule:evenodd;clip-rule:evenodd;fill:#FBFBFB;" d="M472.88,273.69c0.91,0.09,1.89,0.24,1.95,1.15
		c0.06,0.9-0.56,1.71-1.43,2.19c-0.26,0.15-0.38,0.07-0.51-0.23c-0.48-1.17-1.26-0.66-1.93-0.25c-0.39,0.24-0.63,0.73-1.13,0.17
		c-0.45-0.49-0.5-0.99-0.1-1.5C470.55,274.18,471.71,273.83,472.88,273.69z"/>
	<path style="fill-rule:evenodd;clip-rule:evenodd;fill:#FDF499;" d="M483.79,272.52c-2.34-0.15-4.57,0.52-6.83,0.93
		c-0.51,0.09-0.81,0.29-0.86,0.81c-0.32-0.67-1.25-1.36,0.05-1.99c0.27-0.32,0.63-0.48,1.03-0.56c1.48-0.31,2.98-0.57,4.49-0.73
		c0.7-0.07,1.46-0.13,1.95,0.59C483.47,271.93,483.67,272.22,483.79,272.52z"/>
	<path style="fill-rule:evenodd;clip-rule:evenodd;fill:#FCED66;" d="M486.59,271.07c0.73,0.9-0.04,0.96-0.62,1.12
		c-1.13-1.14-2.58-1.36-4.07-1.23c-1.96,0.17-3.96,0.19-5.79,1.07c-0.58-0.09-1.04-0.59-1.67-0.48c0.12-0.82,0.83-0.9,1.41-1.04
		c1.97-0.45,3.95-0.77,5.98-0.89C483.62,269.51,485.21,269.9,486.59,271.07z"/>
	<path style="fill-rule:evenodd;clip-rule:evenodd;fill:#FCEA50;" d="M486.59,271.07c-1.63-0.7-3.24-1.47-5.09-1.19
		c-2.4,0.36-4.89,0.33-7.06,1.67c-0.15,0.13-0.29,0.27-0.44,0.39c-0.27,0.23-0.43,0.88-0.87,0.55c-0.45-0.34,0.34-0.49,0.33-0.82
		c0-0.19-0.03-0.39-0.04-0.58c2.77-1.4,5.82-1.45,8.8-1.83c1.56-0.2,2.92,0.64,4.34,1.12C486.57,270.61,486.58,270.84,486.59,271.07
		z"/>
	<path style="fill-rule:evenodd;clip-rule:evenodd;fill:#FDF180;" d="M476.11,272.03c-0.21-0.45,0.12-0.6,0.43-0.65
		c2.52-0.46,5.03-1.17,7.63-0.55c0.79,0.19,1.49,0.53,1.81,1.36c-0.17,0.01-0.34,0.02-0.51,0.03c-0.08-0.02-0.13-0.07-0.15-0.16
		c-0.19-0.18-0.38-0.36-0.57-0.54c-0.3-0.14-0.61-0.11-0.92-0.02c-0.05,0.07-0.12,0.09-0.21,0.08c-2.33-0.68-4.52,0.32-6.77,0.58
		c-0.23,0.03-0.47,0.08-0.7,0.12C476.13,272.2,476.12,272.11,476.11,272.03z"/>
	<path style="fill-rule:evenodd;clip-rule:evenodd;fill:#FCF182;" d="M473.51,278.98c-0.08-0.05-0.17-0.09-0.25-0.14
		C473.34,278.89,473.42,278.94,473.51,278.98z"/>
	<path style="fill-rule:evenodd;clip-rule:evenodd;fill:#F9AF2A;" d="M467.51,278.83c0.06-0.1,0.13-0.2,0.19-0.3
		C467.63,278.63,467.57,278.73,467.51,278.83z"/>
	<path style="fill-rule:evenodd;clip-rule:evenodd;fill:#FCF5A2;" d="M474.22,279.27c1.53,2.37,3.74,3.78,6.48,4.14
		c2.39,0.32,6.15-1.35,6.57-4.14c0.03-0.22,0.05-0.38-0.13-0.52c0.27-0.26,0.61-0.25,0.95-0.25c0.08,0.02,0.17,0.04,0.25,0.06
		c-0.25,5.36-7.58,7.31-11.73,4.38c-0.99-0.7-2.13-1.24-2.66-2.47C473.72,279.93,473.73,279.58,474.22,279.27z"/>
	<path style="fill-rule:evenodd;clip-rule:evenodd;fill:#FCFCFC;" d="M490.27,275.28c0.01-0.05-0.02,0.35-0.17,0.71
		c-0.18,0.44-0.33,1-0.85,0.11c-0.5-0.86-1.61-0.72-2.28,0.17c-0.21,0.28-0.21,0.9-0.8,0.57c-0.53-0.3-1.27-0.52-1.22-1.3
		c0.08-1.26,0.9-2.01,2.02-2.41c1.11-0.39,2.19-0.4,3.07,0.58C490.36,274.04,490.34,274.43,490.27,275.28z"/>
	<path style="fill-rule:evenodd;clip-rule:evenodd;fill:#FCED66;" d="M483.82,271.5c0.31-0.27,0.62-0.27,0.92,0.02
		C484.44,271.52,484.13,271.51,483.82,271.5z"/>
	<path style="fill-rule:evenodd;clip-rule:evenodd;fill:#FCED66;" d="M485.31,272.06c0.08,0.03,0.13,0.08,0.15,0.16
		C485.41,272.16,485.36,272.11,485.31,272.06z"/>
	<path style="fill-rule:evenodd;clip-rule:evenodd;fill:#FCC221;" d="M490.06,270.84c0.1-0.07,0.19-0.14,0.29-0.21
		C490.25,270.7,490.15,270.77,490.06,270.84z"/>
	<path style="fill-rule:evenodd;clip-rule:evenodd;fill:#0A0907;" d="M480.93,282.65c-0.08-0.02-0.16-0.04-0.24-0.06
		c-0.06-0.06-0.09-0.14-0.08-0.23c0.02-0.16,0.05-0.33,0.07-0.49c-0.18-0.2-0.3-0.54-0.65-0.24c-0.08,0.04-0.11,0.1-0.09,0.19
		c-0.05,0.09-0.11,0.19-0.15,0.28c-0.1,0.09-0.21,0.19-0.31,0.28c-0.08,0.05-0.15,0.05-0.23,0.01c-0.31-0.17-0.8-0.34-0.59-0.73
		c0.28-0.54,0.69-1.2,1.19-1.38c0.53-0.19,1.23,0.21,1.63,0.73c0.36,0.46,0.98,0.91,0.4,1.62
		C481.56,282.75,481.24,282.74,480.93,282.65z"/>
	<path style="fill-rule:evenodd;clip-rule:evenodd;fill:#FCF5A2;" d="M480.02,281.64c0.37-0.35,0.57-0.22,0.65,0.24
		C480.46,281.8,480.24,281.72,480.02,281.64z"/>
	<path style="fill-rule:evenodd;clip-rule:evenodd;fill:#FCF5A2;" d="M480.93,282.65c0.31,0,0.63,0,0.94,0
		C481.56,282.93,481.24,282.92,480.93,282.65z"/>
	<path style="fill-rule:evenodd;clip-rule:evenodd;fill:#FCF5A2;" d="M479.24,282.41c0.08-0.03,0.15-0.03,0.23-0.01
		C479.4,282.4,479.32,282.4,479.24,282.41z"/>
	<path style="fill-rule:evenodd;clip-rule:evenodd;fill:#FCF5A2;" d="M480.61,282.37c0.03,0.08,0.05,0.15,0.08,0.23
		c-0.05-0.05-0.1-0.09-0.14-0.14C480.54,282.45,480.59,282.4,480.61,282.37z"/>
	<path style="fill-rule:evenodd;clip-rule:evenodd;fill:#FCF5A2;" d="M479.79,282.11c0.05-0.09,0.1-0.19,0.15-0.28
		C479.89,281.92,479.84,282.02,479.79,282.11z"/>
</g>
</svg>
