<?xml version="1.0" encoding="utf-8"?>
<!-- Generator: Adobe Illustrator 16.0.0, SVG Export Plug-In . SVG Version: 6.00 Build 0)  -->
<!DOCTYPE svg PUBLIC "-//W3C//DTD SVG 1.0//EN" "http://www.w3.org/TR/2001/REC-SVG-20010904/DTD/svg10.dtd" [
	<!ENTITY ns_flows "http://ns.adobe.com/Flows/1.0/">
	<!ENTITY ns_extend "http://ns.adobe.com/Extensibility/1.0/">
	<!ENTITY ns_ai "http://ns.adobe.com/AdobeIllustrator/10.0/">
	<!ENTITY ns_graphs "http://ns.adobe.com/Graphs/1.0/">
]>
<svg version="1.0" id="Layer_1" xmlns:x="&ns_extend;" xmlns:i="&ns_ai;" xmlns:graph="&ns_graphs;"
	 xmlns="http://www.w3.org/2000/svg" xmlns:xlink="http://www.w3.org/1999/xlink" xmlns:a="http://ns.adobe.com/AdobeSVGViewerExtensions/3.0/"
	 x="0px" y="0px" width="960px" height="560px" viewBox="0 0 960 560" style="enable-background:new 0 0 960 560;"
	 xml:space="preserve">
<g>
	<path style="fill-rule:evenodd;clip-rule:evenodd;" d="M501,241.24c0.4,0,0.8,0,1.2,0c0.93,1.6,0.43,3.4-1.18,4.21
		c-1.24,0.62-2.54,1.14-3.65,2c-0.21,0.16-0.55,0.29-0.46,0.62c0.07,0.23,0.38,0.24,0.61,0.31c1.29,0.38,2.61,0.68,3.9,1.11
		c0.86,0.16,1.68,0.38,2.21,1.15c0.33,0.65,0.98,0.76,1.6,0.92c0.5,0.28,0.75,0.7,0.7,1.26c-0.06,0.68,0.14,1.31,0.29,1.96
		c0.2,1.03,0.11,2.07-0.08,3.07c-0.39,2.15,0.09,4.35-0.41,6.48c-0.03,0.2-0.03,0.41-0.04,0.62c-0.39,1.63-0.46,3.32-0.92,4.93
		c-0.04,0.18-0.09,0.36-0.14,0.54c-0.07,0.23-0.16,0.46-0.22,0.7c-0.26,0.87-0.39,1.78-0.79,2.61c-0.5,0.74-1.29,0.95-2.08,1.18
		c-0.64,0.13-1.28,0.29-1.91,0.48c-0.63,0.13-1.24,0.33-1.86,0.47c-0.17,0.04-0.34,0.07-0.51,0.09c-0.28,0.01-0.54,0.1-0.81,0.17
		c-0.11,0.02-0.22,0.04-0.33,0.05c-0.64,0.21-1.31,0.3-1.97,0.43c-1.66,0.29-3.26,0.86-4.89,1.24c-0.08,0.05-0.17,0.1-0.25,0.16
		c-0.19,0.16-0.32,0.37-0.5,0.54c-0.07,0.07-0.14,0.14-0.22,0.2c-0.24,0.19-0.49,0.36-0.73,0.56c-0.08,0.07-0.17,0.13-0.27,0.18
		c-0.21,0.08-0.4,0.21-0.62,0.26c-0.78,0.32-1.61,0.29-2.42,0.27c-0.12-0.01-0.23-0.04-0.34-0.08c-0.62-0.25-1.26-0.41-1.89-0.63
		c-0.1-0.03-0.21-0.07-0.3-0.11c-0.19-0.1-0.39-0.16-0.59-0.22c-0.1-0.03-0.2-0.07-0.29-0.12c-0.47-0.21-0.95-0.37-1.44-0.52
		c-0.09-0.03-0.19-0.06-0.28-0.1c-0.17-0.08-0.35-0.15-0.53-0.21c-0.09-0.02-0.17-0.06-0.26-0.09c-0.16-0.07-0.34-0.12-0.51-0.18
		c-0.09-0.02-0.17-0.05-0.26-0.08c-0.17-0.07-0.35-0.1-0.52-0.16c-0.09-0.02-0.18-0.05-0.27-0.08c-0.23-0.08-0.48-0.09-0.72-0.14
		c-0.1-0.02-0.21-0.04-0.31-0.07c-0.44-0.06-0.89-0.1-1.32-0.22c-2.24-0.25-4.32-1.04-6.42-1.8c-0.56-0.2-1.1-0.46-1.71-0.51
		c-0.54-0.07-1-0.41-1.53-0.5c-0.27-0.11-0.55-0.21-0.85-0.24c-0.65-0.1-1.22-0.54-1.92-0.41c-0.57,0.01-1.1-0.35-1.69-0.17
		c-0.56,0.1-1.09-0.09-1.64-0.11c-0.97-0.13-1.04-0.83-0.97-1.58c0.1-1.17,0.18-2.34,0.47-3.48c0.21-2.49,0.84-4.91,1.26-7.36
		c0.28-1.63,0.92-3.2,0.91-4.88c0.1-0.71,0.11-1.43,0.23-2.13c0.18-0.94,0.77-1.48,1.69-1.72c0.61-0.16,1.14-0.5,1.67-0.83
		c1.16-0.7,1.59-1.88,2.03-3.06c0.27-0.72,0.77-1.12,1.55-1.14c0.47,0.08,0.94,0.04,1.39-0.12c0.11-0.03,0.23-0.05,0.35-0.07
		c0.36,0.02,0.7-0.07,1.03-0.21c0.12-0.03,0.24-0.07,0.35-0.12c1.23-0.35,2.46-0.71,3.61-1.26c2.12-1.01,4.29-1,6.53-0.6
		c1.99,0.36,4,0.64,5.97,1.16c0.19,0,0.38,0.02,0.57,0.07c0.29,0.07,0.59,0.15,0.89,0.17c1.52,0.28,3.02,0.65,4.52,1
		c1.2,0.28,1.47,0.06,1.58-1.19c0.08-0.97-0.11-1.89-0.37-2.81c-0.22-0.76-0.14-1.42,0.6-1.86c0.4,0,0.8,0,1.2,0
		c0.02,1.11,0.26,2.18,0.62,3.23c0.17,0.49,0.36,0.66,0.86,0.44c0.62-0.27,1.3-0.36,1.92-0.65c1.05-0.5,1.82-1.16,1.71-2.46
		C500.8,241.6,500.89,241.41,501,241.24z"/>
	<path style="fill-rule:evenodd;clip-rule:evenodd;fill:#CDB147;" d="M512.76,303.4c0,1.6,0,3.2,0,4.8
		c-0.1,0.09-0.12,0.22-0.12,0.35c-0.01,0.09-0.04,0.17-0.07,0.25c-0.05,0.12-0.09,0.25-0.17,0.35c-0.11,0.14-0.22,0.28-0.32,0.43
		c-0.05,0.08-0.1,0.15-0.16,0.22c-0.06,0.08-0.12,0.15-0.18,0.22c-0.14,0.31-0.28,0.62-0.37,0.95c-0.04,0.1-0.08,0.19-0.13,0.28
		c-0.05,0.09-0.12,0.17-0.18,0.25c-0.04,0.04-0.07,0.07-0.11,0.11c-0.47,0.34-0.74,0.85-1.08,1.3c-0.17,0.26-0.33,0.54-0.57,0.74
		c-0.32,0.2-0.53,0.46-0.55,0.85c-0.08,0.26-0.21,0.51-0.25,0.79c-0.04,0.12-0.09,0.22-0.15,0.32c-0.11,0.15-0.24,0.28-0.38,0.4
		c-0.58,0.69-1.31,1.1-2.18,1.39c-1.49,0.5-2.55,1.73-3.93,2.43c-0.62,0.32-1.24,1.11-1.91,0.63c-0.74-0.52-0.21-1.41-0.02-2.1
		c0.3-1.07,0.63-2.16,1.71-2.77c0.53-0.3,0.42-0.82,0.43-1.28c0.02-1.91-0.17-3.85,0.06-5.73c0.27-2.27-0.17-4.49-0.12-6.74
		c0.35-0.72,0.99-0.84,1.63-0.62c2.62,0.91,5.35,1.25,8.07,1.65C512.11,302.95,512.47,303.09,512.76,303.4z"/>
	<path style="fill-rule:evenodd;clip-rule:evenodd;fill:#D1B756;" d="M512.76,303.4c-3.06-0.26-6.11-0.61-9.02-1.68
		c-0.52-0.19-1.08-0.48-1.44,0.25c-0.19,0.03-0.27-0.1-0.35-0.23c-0.09-0.17-0.15-0.36-0.23-0.54c-0.05-0.08-0.1-0.17-0.14-0.26
		c-0.08-0.13-0.16-0.26-0.23-0.4c-0.04-0.1-0.07-0.21-0.09-0.32c-0.7-2.07,0-3.83,1.23-5.46c0.17-0.22,0.26-0.49,0.33-0.77
		c0.15-0.39,0.45-0.67,0.73-0.96c0.07-0.09,0.15-0.17,0.23-0.25c0.04-0.04,0.08-0.08,0.11-0.13c0.07-0.1,0.14-0.18,0.21-0.27
		c1.29-1.59,1.05-3.4,0.73-5.21c0.32-1.79,1.08-3.48,1.26-5.31c0.03-0.32,0.13-0.62,0.41-0.83c0.72,0,0.92,0.58,1.1,1.09
		c0.61,1.73,1.14,3.49,1.19,5.34c0.02,0.65,0.29,1.24,0.28,1.88c-0.14,1.54-0.15,3.06,0.24,4.6c0.32,1.29,0.96,2.14,2.15,2.64
		c0.47,0.2,0.95,0.41,1.31,0.81C512.76,299.4,512.76,301.4,512.76,303.4z"/>
	<path style="fill-rule:evenodd;clip-rule:evenodd;fill:#CDBB63;" d="M447.24,313.72c0-5.36,0-10.72,0-16.08
		c1.4-0.88,2.86-1.15,4.39-0.33c0.77,0.41,1.6,0.73,2.35,1.16c1.74,0.97,2.5,2.7,3.08,4.5c0.17,0.53,0.22,1.09,0.23,1.65
		c0.03,1.22,0.34,2.35,0.97,3.4c0.82,2.55,1.95,4.92,3.95,6.8c0.35,0.32,0.64,0.71,0.71,1.21c0.05,0.95,0.36,1.89,0.09,2.85
		c-0.31,0.43-0.73,0.29-1.06,0.11c-1.35-0.74-2.61-1.62-3.95-2.38c-0.24-0.14-0.37-0.4-0.42-0.69c0.44-2.07,0.13-3.96-1.36-5.58
		c-0.27-0.29-0.49-0.65-0.58-1.04c-0.49-2.16-2.19-2.86-4.03-3.42c-0.99-0.29-2.01,0.04-2.53,0.67c-0.57,0.69-1.02,1.71-0.5,2.79
		c0.56,1.15,0.62,2.48,1.17,3.65c0.19,0.41,0.2,0.87-0.26,1.18C448.68,314.42,447.91,314.31,447.24,313.72z"/>
	<path style="fill-rule:evenodd;clip-rule:evenodd;fill:#998D59;" d="M486.82,246.2c-2.16-0.37-4.35-0.64-6.48-1.13
		c-2.49-0.57-4.71,0.14-6.95,1.04c-1,0.4-1.99,0.84-3.08,0.92c-1.55-0.8-3.28-0.91-4.94-1.27c-2.08-0.45-3.93-1.31-5.41-2.86
		c-0.42-0.44-0.94-0.94-0.49-1.67c2.24,0,4.48,0,6.72,0c0.51,0.49,1.21,0.5,1.82,0.74c0.65,0.26,0.56-0.48,0.82-0.74
		c6.08,0,12.16,0,18.24,0c0.46,0.55,0.5,1.26,0.27,1.81C486.91,244.08,486.99,245.15,486.82,246.2z"/>
	<path style="fill-rule:evenodd;clip-rule:evenodd;fill:#D5C87D;" d="M447.24,258.04c0-3.52,0-7.04,0-10.56
		c1.04-1.59,2.42-2.74,4.26-3.33c0.36,0.12,0.63,0.36,0.83,0.66c1.59,2.44,3.28,4.81,4.33,7.56c0.32,0.83,0.45,1.66,0.08,2.44
		c-0.59,1.23-0.82,2.69-2.07,3.53c-1.28,0.23-2.55,0.45-3.82,0.73C449.54,259.36,448.24,259.07,447.24,258.04z"/>
	<path style="fill-rule:evenodd;clip-rule:evenodd;fill:#D0B848;" d="M447.24,289.48c0-2.48,0-4.96,0-7.44
		c0.73-0.2,0.85-0.72,0.71-1.38c-0.32-1.46-0.38-2.96-0.56-4.44c-0.03-0.15-0.03-0.3-0.03-0.45c0.02-0.17,0.13-0.34,0.01-0.52
		c-0.01-0.09-0.01-0.18-0.01-0.28c0-0.19,0-0.38,0-0.56c-0.01-0.18,0.04-0.38-0.12-0.53c0-0.16,0-0.32,0-0.48
		c1.09-0.23,1.79,0.55,2.41,1.16c0.75,0.74,1.38,1.61,2.16,2.34c0.5,0.47,0.72,1.13,0.82,1.81c0.3,2.22,1.51,4.09,2.39,6.09
		c0.4,0.91,0.61,1.71-0.23,2.49c-0.42,0.39-0.31,0.95-0.27,1.47c0.07,0.94-0.16,1.74-1.13,2.16c-0.56,0.12-1.13,0.07-1.64-0.14
		c-1.15-0.48-2.33-0.75-3.56-0.84C447.82,289.9,447.5,289.75,447.24,289.48z"/>
	<path style="fill-rule:evenodd;clip-rule:evenodd;fill:#CEBE53;" d="M447.24,269.56c0-0.32,0-0.64,0-0.96
		c0.64-0.62,1.37-0.51,2.11-0.24c2.38,0.88,4.12,2.47,5.18,4.78c0.2,0.43,0.4,0.86,0.64,1.27c1.55,3.48,3.57,6.66,6.27,9.37
		c1.36,1.36,2.94,2.44,4.56,3.45c0.1,0.06,0.19,0.13,0.28,0.2c0.09,0.07,0.17,0.15,0.24,0.24c1.29,1.13,2.82,1.93,4.15,2.99
		c0.42,0.34,0.96,0.61,0.94,1.28c-0.05,0.18-0.17,0.31-0.33,0.4c-0.7,0.27-1.34,0-1.96-0.26c-5.22-2.19-9.85-5.21-13.44-9.67
		c-0.55-0.68-1.21-1.27-1.71-2c-0.1-0.15-0.19-0.31-0.26-0.47c-0.04-0.11-0.07-0.23-0.09-0.34c-0.67-1.61-1.46-3.17-1.94-4.87
		c-0.45-1.59-1.57-2.84-2.55-4.14C448.81,269.89,447.8,270.18,447.24,269.56z"/>
	<path style="fill-rule:evenodd;clip-rule:evenodd;fill:#D4BD65;" d="M512.76,297.4c-1.76-0.17-3.65-1.34-3.91-3.34
		c-0.2-1.54-0.51-3.04-0.17-4.58c0.24-2.51,0.51-5-0.08-7.52c-0.28-1.18-0.39-2.43,0.11-3.62c0.58-0.45,0.8,0.1,0.96,0.44
		c0.86,1.8,1.8,3.58,2.15,5.57c0.22,1.26,0.53,2.49,0.94,3.7C512.76,291.16,512.76,294.28,512.76,297.4z"/>
	<path style="fill-rule:evenodd;clip-rule:evenodd;fill:#CDB147;" d="M508.44,314.45c-0.02-0.48,0.08-0.88,0.64-0.98
		c0.07-0.03,0.13-0.02,0.17,0.04c0.07,0.01,0.13-0.02,0.17-0.1c0.11-0.2,0.22-0.38,0.34-0.55c0.34-0.53,0.71-1.04,1.08-1.56
		l-0.01,0.02c0.09-0.08,0.17-0.17,0.26-0.26l-0.02,0.02c0.16-0.33,0.28-0.67,0.47-0.97c0.03-0.1,0.07-0.19,0.12-0.27
		c0.07-0.07,0.13-0.14,0.19-0.21c0.04-0.08,0.07-0.17,0.1-0.26c0.08-0.11,0.17-0.21,0.27-0.3c0.15-0.11,0.19-0.29,0.3-0.42
		l-0.02,0.02c0.08-0.16,0.16-0.16,0.25-0.01c0,4.16,0,8.32,0,12.48c-2.64,0.27-5.29,0.05-7.92,0.12c-0.53,0.04-0.73-0.2-0.55-0.72
		c0.13-0.35,0.4-0.73,0.73-0.71c1.71,0.09,1.8-1.09,1.97-2.3c0.08-0.6,0.49-1.07,0.85-1.54c0.07-0.08,0.14-0.17,0.2-0.25
		c0.08-0.13,0.18-0.24,0.27-0.36c0.09-0.15,0.18-0.31,0.24-0.48c0.02-0.08,0.02-0.17,0.02-0.25
		C508.54,314.58,508.5,314.51,508.44,314.45z"/>
	<path style="fill-rule:evenodd;clip-rule:evenodd;fill:#D0BA57;" d="M458.04,308.2c-0.76-1.02-1.11-2.18-1.2-3.44
		c-0.22-2.85-1.26-4.95-4.05-6.42c-1.94-1.02-3.64-0.97-5.55-0.7c0-1.28,0-2.56,0-3.84c0.52-0.78,1.37-0.77,2.14-0.77
		c2.16,0.01,4.34,0.04,6.37,0.92c0.49,0.42,0.39,0.96,0.13,1.42c-0.72,1.22-0.36,2.29,0.3,3.36c0.5,0.82,1.05,1.61,1.62,2.38
		c0.11,0.13,0.2,0.27,0.3,0.41c0.32,0.46,0.64,0.91,0.95,1.38c0.1,0.14,0.19,0.29,0.26,0.45c0.1,0.22,0.15,0.45,0.13,0.69
		c-0.07,0.32-0.2,0.61-0.39,0.86c-0.57,0.72-0.9,1.49-0.71,2.44C458.4,307.65,458.34,307.98,458.04,308.2z"/>
	<path style="fill-rule:evenodd;clip-rule:evenodd;fill:#A29457;" d="M486.82,246.2c-0.8-0.56-0.5-1.77-0.32-2.01
		c0.71-0.95,0.34-1.99,0.58-2.95c2.48,0,4.96,0,7.44,0c-0.39,0.6-0.37,1.19-0.15,1.88c0.43,1.37,0.65,2.77,0.05,4.19
		c-0.21,0.49-0.47,0.64-1,0.5c-1.8-0.47-3.61-0.91-5.41-1.36c-0.23-0.1-0.5,0.04-0.71-0.16
		C487.15,246.25,486.99,246.23,486.82,246.2z"/>
	<path style="fill-rule:evenodd;clip-rule:evenodd;fill:#AA9B5B;" d="M501.24,249.81c-1.58-0.41-3.17-0.81-4.75-1.23
		c-0.25-0.06-0.67-0.01-0.63-0.39c0.02-0.22,0.3-0.44,0.51-0.61c1.23-0.97,2.59-1.81,4.06-2.27c1.65-0.51,1.83-1.65,1.84-3.02
		c0-0.36-0.05-0.72-0.08-1.08c1.68,0,3.36,0,5.04,0c0.39,0.5,0.12,0.97-0.21,1.29c-2.21,2.06-3.5,4.85-5.51,7.06
		C501.43,249.67,501.34,249.74,501.24,249.81z"/>
	<path style="fill-rule:evenodd;clip-rule:evenodd;fill:#CDBD75;" d="M447.24,313.72c0.8,0.08,1.6,0.16,2.4,0.24
		c0.53-0.33,1.1-0.22,1.6,0.02c1.75,0.81,3.59,1.19,5.49,1.37c0.24,0.02,0.46,0.12,0.65,0.27c0.7,1.12,1.61,2.08,2.39,3.13
		c0.28,0.38,0.79,0.75,0.34,1.34c-1.28,0.25-2.4-0.43-3.59-0.68c-1.97-0.42-4.03-0.51-5.89-1.41c-1.25-0.6-2.52-1.19-3.38-2.36
		C447.24,315,447.24,314.36,447.24,313.72z"/>
	<path style="fill-rule:evenodd;clip-rule:evenodd;fill:#D3BB6C;" d="M512.76,288.04c-0.62-0.77-1.11-1.6-1.21-2.63
		c-0.25-2.63-1.55-4.88-2.63-7.21c-1.26-0.6-1.11-1.93-1.55-2.96c-0.24-1.75-0.75-3.46-0.58-5.26c0.5-0.53,0.77-0.02,1.01,0.28
		c0.58,0.75,1.09,1.56,1.48,2.43c1.35,2.39,1.89,5.16,3.49,7.43C512.76,282.76,512.76,285.4,512.76,288.04z"/>
	<path style="fill-rule:evenodd;clip-rule:evenodd;fill:#A49961;" d="M459.48,241.24c1.1,2.62,3.45,3.43,5.9,4.07
		c1.34,0.34,2.7,0.6,4.05,0.9c0.46,0.1,0.81,0.32,0.89,0.83l-0.01-0.01c-0.3,0.22-0.71-0.06-0.99,0.23l-0.08,0.04l-0.09-0.02
		c-0.48,0.25-1.04-0.09-1.51,0.22c-0.71-0.03-1.23,0.21-1.4,0.96c-0.36,0.29-0.76,0.24-1.14,0.1c-2.96-1.09-5.71-2.5-7.51-5.25
		c-0.41-0.62-0.9-1.28-0.27-2.07C458.04,241.24,458.76,241.24,459.48,241.24z"/>
	<path style="fill-rule:evenodd;clip-rule:evenodd;fill:#B4A76A;" d="M457.32,241.24c0.34,2.58,2.27,3.93,4.21,5.18
		c1.44,0.92,3.01,1.66,4.71,2.04c-0.28,1.26-0.88,2.31-1.96,3.06c-1.06-1.03-2.34-1.75-3.58-2.53c-2.3-1.44-4.09-3.38-5.42-5.73
		c-0.25-0.45-0.46-0.93-0.5-1.46c-0.01-0.28,0.19-0.42,0.39-0.55C455.88,241.24,456.6,241.24,457.32,241.24z"/>
	<path style="fill-rule:evenodd;clip-rule:evenodd;fill:#CFB74F;" d="M455.94,294.3c-2.88-0.6-5.75-1.23-8.7-0.5
		c0-1.44,0-2.88,0-4.32c2.21-0.3,4.15,0.84,6.24,1.2c1.32-0.12,1.86,1.06,2.75,1.67C456.47,293.05,456.85,293.77,455.94,294.3z"/>
	<path style="fill-rule:evenodd;clip-rule:evenodd;fill:#D3C576;" d="M447.24,258.04c2.48,1.38,4.96-0.07,7.44,0
		c0.13,0.1,0.28,0.22,0.27,0.37c-0.09,1.42,0.09,2.88-0.45,4.26c-0.2,0.15-0.43,0.18-0.67,0.21c-2.02,0.2-3.99-0.42-5.99-0.39
		c-0.24,0-0.42-0.21-0.59-0.37C447.24,260.76,447.24,259.4,447.24,258.04z"/>
	<path style="fill-rule:evenodd;clip-rule:evenodd;fill:#D1C084;" d="M512.76,246.76c0,0.56,0,1.12,0,1.68
		c-2.52,3.07-4,6.58-4.47,10.52c-0.37,1.73,0.19,3.38,0.4,5.05c0.18,1.41,0.84,2.74,0.65,4.2c-0.74,0.52-0.99-0.16-1.22-0.58
		c-0.64-1.14-1.28-2.29-1.71-3.53c-1.25-4.33-0.32-8.33,1.84-12.14c0.9-1.59,1.7-3.27,3.03-4.58
		C511.68,246.98,512.01,246.36,512.76,246.76z"/>
	<path style="fill-rule:evenodd;clip-rule:evenodd;fill:#D0C06A;" d="M447.24,262.12c2.42-0.17,4.8,0.3,7.2,0.48
		c1.05-0.08,1.34,0.62,1.5,1.46c-0.38,1.05-0.95,1.96-1.84,2.66c-0.6,0.27-1.2,0.12-1.81,0.04c-1.32-0.54-2.58-1.25-4.1-1.09
		c-0.37,0.04-0.69-0.16-0.95-0.43C447.24,264.2,447.24,263.16,447.24,262.12z"/>
	<path style="fill-rule:evenodd;clip-rule:evenodd;fill:#D8C88E;" d="M507.96,258.76c0.24-3.46,1.53-6.53,3.51-9.34
		c0.31-0.44,0.66-0.91,1.29-0.98c0,0.4,0,0.8,0,1.2c-0.76,1.58-1.61,3.09-2.21,4.76c-1.09,3.03-0.84,5.95,0.16,8.9
		c0.54,1.59,1.28,3.09,2.05,4.58c0,0.56,0,1.12,0,1.68c-0.68,0.39-1.07-0.11-1.4-0.54c-1.65-2.1-2.82-4.43-3.18-7.11
		C508.04,260.87,507.58,259.84,507.96,258.76z"/>
	<path style="fill-rule:evenodd;clip-rule:evenodd;fill:#CABA7F;" d="M512.76,246.76c-1.16,0.31-1.64,1.4-2.23,2.22
		c-2.21,3.06-3.76,6.51-4.48,10.19c-0.3,1.52,0.44,3.24,0.71,4.88c-0.29,0.71-0.73,0.97-1.42,0.48c0.14-3.26,0.29-6.51,0.43-9.77
		c-0.26-0.82-0.03-1.6,0.33-2.3c1.39-2.7,3.04-5.24,5.24-7.36c0.38-0.36,0.76-0.89,1.43-0.49
		C512.76,245.32,512.76,246.04,512.76,246.76z"/>
	<path style="fill-rule:evenodd;clip-rule:evenodd;fill:#B4A364;" d="M501.24,249.81c0.08-0.3,0.07-0.7,0.27-0.9
		c1.8-1.81,2.69-4.33,4.65-6.01c0.52-0.44,1-0.93,1.08-1.67c1.12,0,2.24,0,3.36,0c0.26,0.54-0.06,0.94-0.39,1.28
		c-2.36,2.45-4.4,5.15-6.31,7.96c-0.13,0.2-0.29,0.38-0.55,0.44C502.96,249.97,501.9,250.27,501.24,249.81z"/>
	<path style="fill-rule:evenodd;clip-rule:evenodd;fill:#CFB850;" d="M447.24,269.56c2.65-0.43,3.36,1.83,4.25,3.41
		c1.17,2.07,1.83,4.43,2.71,6.67c-0.96,0.32-1.33-0.53-1.92-0.96c-1.08-2.33-2.9-3.96-5.04-5.28
		C447.24,272.12,447.24,270.84,447.24,269.56z"/>
	<path style="fill-rule:evenodd;clip-rule:evenodd;fill:#BFAF71;" d="M512.76,244.6c-1.8,0.93-2.9,2.58-3.94,4.18
		c-1.21,1.87-2.79,3.6-3.05,5.97c-0.38-0.62-0.15-1.31-0.17-1.96c-0.02-0.56-0.21-0.89-0.75-1c-0.4-0.53-0.07-1,0.18-1.43
		c1.75-3,3.78-5.78,6.32-8.16c0.38-0.35,0.75-0.9,1.42-0.49C512.76,242.68,512.76,243.64,512.76,244.6z"/>
	<path style="fill-rule:evenodd;clip-rule:evenodd;fill:#CFBC5D;" d="M447.24,265.24c1.79-0.08,3.58-0.11,5.04,1.2
		c0.54,0.26,0.8,0.72,0.97,1.28c0.56,1.86,0.99,3.76,1.78,5.55c0.19,0.43,0.31,0.92-0.11,1.33c-1-1.64-1.71-3.43-3.44-4.6
		c-1.33-0.9-2.6-1.61-4.24-1.4C447.24,267.48,447.24,266.36,447.24,265.24z"/>
	<path style="fill-rule:evenodd;clip-rule:evenodd;fill:#E0D29D;" d="M512.76,251.8c0,4.64,0,9.28,0,13.92
		c-0.54,0.13-0.8-0.26-1.05-0.61c-0.49-0.68-0.85-1.43-1.1-2.23c-1.03-3.38-0.58-6.68,0.56-9.93
		C511.41,252.28,511.71,251.45,512.76,251.8z"/>
	<path style="fill-rule:evenodd;clip-rule:evenodd;fill:#D3C37D;" d="M447.24,315.64c1.17,0.64,2.3,1.39,3.53,1.91
		c3.01,1.27,6.37,1.26,9.43,2.41c1.21-0.01,1.6,0.4,1.26,1.31c-1.36,0.02-2.73,0-4.09,0.01c-2.94-0.61-5.91-1.13-8.48-2.87
		c-0.59-0.4-1.19-0.78-1.65-1.33C447.24,316.6,447.24,316.12,447.24,315.64z"/>
	<path style="fill-rule:evenodd;clip-rule:evenodd;fill:#DACB95;" d="M512.76,251.8c-0.71,0.09-0.98,0.64-1.16,1.21
		c-1.03,3.21-1.57,6.44-0.53,9.77c0.35,1.11,0.9,2.09,1.7,2.94c0,0.72,0,1.44,0,2.16c-1.96-1.57-2.37-3.96-2.98-6.13
		c-1.11-3.94-0.08-7.64,1.99-11.09c0.25-0.42,0.57-0.77,0.99-1.02C512.76,250.36,512.76,251.08,512.76,251.8z"/>
	<path style="fill-rule:evenodd;clip-rule:evenodd;fill:#B9A86B;" d="M512.76,241.72c-2.25,1.39-3.77,3.49-5.26,5.58
		c-1,1.41-2.14,2.78-2.66,4.49c-0.66-0.02-1.41,0.13-1.48-0.88c0.93-2.34,2.82-4,4.18-6.04c0.89-1.33,2.36-2.16,3.06-3.63
		c0.6,0,1.2,0.04,1.8-0.01C512.89,241.18,512.74,241.48,512.76,241.72z"/>
	<path style="fill-rule:evenodd;clip-rule:evenodd;fill:#D8C584;" d="M507.96,258.76c0.02,3.91,1.68,7.2,3.91,10.26
		c0.21,0.29,0.49,0.52,0.89,0.54c0,1.44,0,2.88,0,4.32c-1.3,0.25-1.59-0.89-2.19-1.59c-0.49-0.85-0.91-1.74-1.32-2.62
		c-0.19-0.41-0.47-0.85-0.08-1.31c-0.67-2.46-0.98-4.99-1.34-7.51C507.72,260.15,507.53,259.43,507.96,258.76z"/>
	<path style="fill-rule:evenodd;clip-rule:evenodd;fill:#020101;" d="M455.16,241.24c-0.11,0.14-0.21,0.29-0.32,0.43
		c-0.2,0.67-0.75,1.04-1.25,1.46c-0.81,0.32-1.43,1.02-2.31,1.21c-1.35,1.04-2.7,2.09-4.05,3.14c0-1.44,0-2.88,0-4.32
		c0.27-0.72,0.24-1.63,1.2-1.92c0.48,0,0.96,0,1.44,0c0.23,0.48-0.13,0.83-0.27,1.22c-0.14,0.39-0.66,0.87-0.32,1.14
		c0.26,0.21,0.7-0.38,1.03-0.65c0.83-0.68,1.6-1.45,2.69-1.71C453.72,241.24,454.44,241.24,455.16,241.24z"/>
	<path style="fill-rule:evenodd;clip-rule:evenodd;fill:#D6C173;" d="M510.84,272.2c0.66,0.54,1.01,1.43,1.92,1.68
		c0,2.08,0,4.16,0,6.24c-1.45-0.6-1.63-2.08-2.13-3.27c-0.55-1.32-1.05-2.66-1.71-3.93C509.54,272.63,510.1,272.17,510.84,272.2z"/>
	<path style="fill-rule:evenodd;clip-rule:evenodd;fill:#FEFEFE;" d="M457.07,321.12c1.52,0,3.04,0,4.56,0
		c0.96-0.79,2.09-0.37,3.15-0.42c0.38-0.02,0.77,0.12,1.16,0.05c1.59-0.16,3.19-0.11,4.78-0.03c0.4,0.02,0.79,0.08,1.19-0.03
		c1.14-0.2,2.29,0.31,3.43-0.02c3.46,0.03,6.92-0.13,10.38,0.09c0.88-0.01,1.76-0.03,2.64-0.02c0.29-0.08,0.57,0,0.86,0.01
		c0.49-0.09,0.99-0.08,1.48,0c0.43-0.08,0.86-0.08,1.29,0.01c1.83-0.15,3.67-0.13,5.5-0.04c0.14,0.03,0.29,0.04,0.44,0.05
		c1.17-0.19,2.34,0.05,3.5-0.09c0.64,0.26,1.31-0.11,1.96,0.08c0.38,0,0.73,0.09,1.04,0.33c2.77,0.02,5.55,0.04,8.32,0.06
		c-0.02,0.53-0.42,0.22-0.6,0.22c-21.44,0.02-42.88,0.02-64.32,0c-0.18,0-0.58,0.31-0.6-0.22c0.79-0.76,1.77-0.46,2.68-0.46
		c0.46,0,0.93,0.13,1.39-0.02C453.25,320.63,455.18,320.62,457.07,321.12z"/>
	<path style="fill-rule:evenodd;clip-rule:evenodd;fill:#7A552A;" d="M501,241.24c0.5,1.75,0.2,2.46-1.42,3.22
		c-0.6,0.28-1.35,0.32-1.84,0.71c-1.6,1.27-1.69,0.08-1.93-1.05c-0.21-0.96-0.96-1.89-0.09-2.88c0.8,0,1.6,0,2.4,0
		c0.49,0.8-0.22,1.32-0.46,1.95c-0.08,0.22-0.3,0.49-0.09,0.65c0.32,0.23,0.48-0.14,0.63-0.35c0.22-0.29,0.31-0.65,0.38-1
		c0.11-0.6,0.44-1.01,0.99-1.25C500.04,241.24,500.52,241.24,501,241.24z"/>
	<path style="fill-rule:evenodd;clip-rule:evenodd;fill:#D7C885;" d="M457.07,321.12c-1.92,0-3.84,0-5.76,0
		c-1.43-0.67-3.03-1.03-4.07-2.36c0-0.56,0-1.12,0-1.68c0.78-0.09,1.21,0.57,1.76,0.91c2.03,1.27,4.23,2.02,6.55,2.49
		C456.08,320.58,456.65,320.71,457.07,321.12z"/>
	<path style="fill-rule:evenodd;clip-rule:evenodd;fill:#735027;" d="M453,241.24c-1.18,0.99-2.37,1.98-3.55,2.97
		c-0.24,0.21-0.51,0.52-0.82,0.31c-0.35-0.23-0.04-0.58,0.02-0.87c0.18-0.92,0.76-1.65,1.23-2.42
		C450.92,241.24,451.96,241.24,453,241.24z"/>
	<path style="fill-rule:evenodd;clip-rule:evenodd;fill:#DDCF90;" d="M447.24,318.76c1.36,0.78,2.95,1.17,4.07,2.36
		c-1.36,0.01-2.72,0.03-4.07,0.04C447.24,320.36,447.24,319.56,447.24,318.76z"/>
	<path style="fill-rule:evenodd;clip-rule:evenodd;fill:#060604;" d="M447.46,276.05c0.49,1.76,0.84,3.54,0.95,5.36
		c0.02,0.33,0.23,0.76-0.13,1c-0.45,0.29-0.68-0.27-1.04-0.37c0-2,0-4,0-6C447.32,275.89,447.39,275.89,447.46,276.05z"/>
	<path style="fill-rule:evenodd;clip-rule:evenodd;fill:#060403;" d="M499.56,241.24c-0.62,0.67-0.57,1.6-0.93,2.38
		c-0.3,0.63-0.72,1.15-1.43,0.79c-0.79-0.4-0.11-0.91,0.09-1.35c0.27-0.61,0.56-1.21,0.84-1.82
		C498.6,241.24,499.08,241.24,499.56,241.24z"/>
	<path style="fill-rule:evenodd;clip-rule:evenodd;" d="M468.84,241.24c0.29,0.46,0.48,1.04,0.07,1.41c-0.3,0.28-0.8,0.01-1.18-0.25
		c-0.53-0.36-1.49-0.15-1.54-1.16C467.08,241.24,467.96,241.24,468.84,241.24z"/>
	<path style="fill-rule:evenodd;clip-rule:evenodd;fill:#BCAC69;" d="M448.44,241.24c-0.4,0.64-0.8,1.28-1.2,1.92
		c0-0.24,0.04-0.49-0.01-0.72C447.03,241.42,447.42,241.02,448.44,241.24z"/>
	<path style="fill-rule:evenodd;clip-rule:evenodd;fill:#262014;" d="M447.46,276.05l-0.11-0.01l-0.11,0c0-0.32,0-0.64,0-0.96
		c0.1-0.15,0.17-0.14,0.23,0.03c-0.02,0.09,0,0.16,0.07,0.22c0.04,0.07,0.05,0.15,0.01,0.22
		C447.52,275.71,447.49,275.88,447.46,276.05z"/>
	<path style="fill-rule:evenodd;clip-rule:evenodd;fill:#CFB850;" d="M447.47,275.11l-0.11-0.04l-0.12,0.01c0-0.24,0-0.48,0-0.72
		c0.06-0.12,0.14-0.13,0.23-0.03C447.47,274.59,447.47,274.85,447.47,275.11z"/>
	<path style="fill-rule:evenodd;clip-rule:evenodd;fill:#231F20;" d="M512.76,308.68c-0.08,0-0.17,0.01-0.25,0.01
		c-0.06-0.23,0.05-0.38,0.25-0.49C512.76,308.36,512.76,308.52,512.76,308.68z"/>
	<path style="fill-rule:evenodd;clip-rule:evenodd;fill:#514833;" d="M447.47,274.33c-0.08,0.02-0.15,0.03-0.23,0.03
		c0-0.16,0-0.32,0-0.48C447.5,273.94,447.47,274.14,447.47,274.33z"/>
	<path style="fill-rule:evenodd;clip-rule:evenodd;fill:#747374;" d="M464.98,268.7c-1.52-0.19-2.98-0.62-4.41-1.16
		c-0.45-0.17-0.53-0.46-0.47-0.94c0.4-3.37,1.34-6.64,1.96-9.96c0.3-1.64,0.84-1.74,2.34-1.14c5.1,2.02,10.36,3.58,15.68,4.92
		c0.11-0.07,0.22-0.07,0.32,0.01c0.26,0.07,0.52,0.14,0.78,0.2c-0.39,1.16-1.65,1.01-2.41,1.6c-0.11,0.04-0.22,0.06-0.33,0.07
		c-0.17,0-0.34-0.02-0.51-0.06c-0.56-0.15-1.11-0.35-1.69-0.4c-0.58-0.05-0.98,0.12-1.19,0.69c-0.34,0.52-0.87,0.66-1.43,0.74
		c-3.42,0.48-6.31,1.82-8.09,4.97C465.39,268.45,465.2,268.6,464.98,268.7z"/>
	<path style="fill-rule:evenodd;clip-rule:evenodd;fill:#F9E910;" d="M472.42,247.9c1.44-1.02,3.11-1.37,4.81-1.58
		c0.06,0.04,0.08,0.08,0.07,0.13c-0.01,0.05-0.02,0.08-0.04,0.08c-0.38,0.56-0.39,1.14,0.03,1.66c0.35,0.42,0.74,0.45,1-0.14
		c0.01-0.01,0.24,0.02,0.3,0.09c1.7,2.22,4.29,1.52,6.52,1.93c0.67,0.12,1.29,0.35,1.92,0.55c0.66,0.2,1.44,0.53,1.94,0.07
		c0.58-0.53,0.45-1.51,0.17-2.13c-0.36-0.8,0.05-0.62,0.44-0.53c3.56,0.78,7.07,1.74,10.55,2.83c0.72,0.23,0.67,0.48,0.12,0.89
		c-1.23,0.93-2.35,1.52-4.05,0.78c-2.13-0.93-4.43-1.43-6.84-1.01c-1.35,0.24-2.65,0.64-3.38,1.78c-0.79,1.24-1.71,1.07-2.82,0.8
		c-2.94-0.71-5.65-2.05-8.51-2.95c-1.1-0.35-0.18-0.77,0.05-1.04c0.49-0.58,1.79-0.73,1.18-1.85c-0.59-1.07-1.57-0.24-2.38-0.19
		c-0.35,0.02-0.71,0.06-1.06,0.1c-0.06-0.05-0.08-0.11-0.07-0.17C472.39,247.93,472.41,247.9,472.42,247.9z"/>
	<path style="fill-rule:evenodd;clip-rule:evenodd;fill:#C9C07C;" d="M451.29,244.34c0.64-0.62,1.18-1.39,2.19-1.44
		c0.27,0.1,0.48,0.28,0.62,0.54c1.44,2.56,3.42,4.69,5.45,6.78c0.94,0.97,1.89,2,1.4,3.56c-0.09,0.7,0.15,1.44-0.25,2.1
		c-0.71,2.71-2.08,5.08-3.7,7.33c-0.25,0.35-0.42,0.77-0.86,0.95c-0.19,0.04-0.36,0-0.5-0.13c-0.13-0.71-0.69-1.06-1.2-1.44
		c-0.32-1.54,0.07-3.04,0.24-4.56c1.02-2.06,2.69-3.91,1.19-6.52C454.46,249.04,453.14,246.53,451.29,244.34z"/>
	<path style="fill-rule:evenodd;clip-rule:evenodd;fill:#636162;" d="M490.44,275.54c-0.74,0.49-1.64,0.53-2.45,0.82
		c-0.55,0.2-1.45,0.71-1.59,0.55c-0.43-0.49,0.02-1.18,0.19-1.74c0.99-3.36,1.91-6.73,2.49-10.18c0.01-0.04,0.05-0.08,0.04-0.11
		c-0.44-2.8,1.46-3.72,3.57-4.54c1.64-0.64,3.05-1.87,4.95-1.81c0.35,0.31,0.3,0.72,0.24,1.12c-0.14,0.85-0.04,1.66,0.32,2.44
		c-0.38,0.75-1.16,0.92-1.83,1.22c-2.02,0.91-2.02,0.89-1.87,2.97c-0.14,0.64-0.67,0.96-1.11,1.36c-1.23,1.1-2.29,2.32-2.73,3.97
		c-0.22,0.82-0.3,1.64-0.09,2.48C490.69,274.57,490.87,275.09,490.44,275.54z"/>
	<path style="fill-rule:evenodd;clip-rule:evenodd;fill:#403F3E;" d="M504.38,255.62c0.5,1.19,0.27,2.45,0.19,3.64
		c-0.3,4.19-0.86,8.35-1.91,12.43c-0.18,0.69-0.48,1.15-1.23,1.42c-2.17,0.78-4.35,1.49-6.65,1.76c-1.43-1.03-1.47-2.22-0.15-3.97
		c0.99-0.58,2.09-0.27,3.14-0.34c1.19-0.09,1.37-0.24,0.97-1.38c-0.4-1.11-0.2-1.83,0.83-2.49c0.93-0.59,1.19-1.64,1.19-2.72
		c0-0.4-0.11-0.79-0.08-1.19c0.13-1.55,0.22-3.11,0.7-4.6C501.9,256.49,502.98,255.59,504.38,255.62z"/>
	<path style="fill-rule:evenodd;clip-rule:evenodd;fill:#41403F;" d="M487.52,265.71c-0.56,2.27-1.11,4.53-1.66,6.8
		c-0.09,0.36-0.38,0.48-0.63,0.36c-1.25-0.64-1.88,0.25-2.58,1c-0.29,0.31-0.67,0.8-1.08,0.52c-0.51-0.36,0.02-0.78,0.24-1.1
		c0.51-0.75-0.07-0.9-0.57-1.06c-2.16-0.71-4.43-0.83-6.65-1.23c-1.47-0.27-2.99-0.35-4.32-1.16c-0.35-0.8,0.26-1.1,0.78-1.36
		c1.15-0.58,2.38-0.98,3.67-1.03c2.31-0.08,4.62-0.37,6.94-0.28c1.6,0.06,3.07-0.36,4.44-1.19
		C486.52,265.72,486.97,265.36,487.52,265.71z"/>
	<path style="fill-rule:evenodd;clip-rule:evenodd;fill:#A49E9A;" d="M488.76,260.2c-5.8-0.33-11.5-1.21-16.85-3.6
		c-1.71-0.77-3.47-1.29-5.28-1.72c-0.53-0.13-1.1-0.29-1.53-0.6c-0.38-0.28-1.36-0.42-0.92-1.08c0.31-0.46,0.97-0.98,1.84-0.72
		c2.97,0.88,3.9,0.28,4.26-2.75c0.07-0.57,0.35-0.54,0.71-0.5c0.47,0.05,0.95,0.12,1.41,0.23c0.29,0.07,0.9-0.24,0.82,0.27
		c-0.08,0.51-0.62,0.49-1.04,0.17l0,0c-0.7-0.11-1.26-0.09-0.84,0.89c0.07,0.16,0.01,0.39-0.03,0.58c-0.4,2.45-0.41,2.47,1.8,3.49
		c2.91,1.34,5.8,2.71,8.83,3.77c0.5,0.18,0.97,0.38,1.43-0.06c0.43-0.41,0.82-1.12,1.36-0.08c0.1,0.19,0.44,0.13,0.64-0.04
		c0.18-0.16,0.3-0.41,0.5-0.5c0.68-0.3,1.41-0.83,2.08-0.77c1.14,0.11,0.06,1.09,0.38,1.61c0.12,0.2,0.13,0.46,0.19,0.69
		C488.74,259.66,489.05,259.84,488.76,260.2z"/>
	<path style="fill-rule:evenodd;clip-rule:evenodd;fill:#BA8747;" d="M499.55,275.06c0.63-0.17,1.27-0.35,1.9-0.52
		c0.68,0.76,0.17,1.65,0.23,2.47c0.04,0.58-0.16,1.16-0.29,1.72c-1.83,4.6-4.98,7.96-9.6,9.81c-1.88,0.75-3.8,1.51-5.91,1.22
		c-0.65-0.36-1.49-0.53-1.49-1.52c0.39-0.46,0.97-0.49,1.49-0.66c2.26-0.72,4.58-1.31,6.46-2.88c3.21-2.16,5.51-5.01,6.63-8.75
		C499.09,275.6,499.31,275.32,499.55,275.06z"/>
	<path style="fill-rule:evenodd;clip-rule:evenodd;fill:#A59F9B;" d="M468.13,273.19c1.97-2.8,4.54-1.05,6.87-0.84
		c1.37,0.12,2.71,0.61,4.1,0.62c0.48,0,0.65,0.17,0.75,0.69c0.46,2.54,1.44,2.93,3.57,1.53c0.53-0.35,1.13-1.16,1.73-0.69
		c0.42,0.33-0.19,1.14-0.28,1.75c-0.24,1.61-1.07,1.83-2.59,1.47c-4.64-1.11-9.18-2.55-13.69-4.12
		C468.45,273.44,467.99,273.65,468.13,273.19z"/>
	<path style="fill-rule:evenodd;clip-rule:evenodd;fill:#C1BB6B;" d="M455.64,264.04c0.16,0,0.32,0,0.48,0
		c1.03,0.39,1.17,1.38,1.51,2.23c0.25,0.63,0.16,1.43,0.87,1.85c-0.13,1.25-0.27,2.5-0.38,3.76c-0.04,0.48-0.22,1.09,0.64,1.05
		c0.11,0.11,0.3,0.19,0.35,0.32c0.83,2.29,2.13,4.34,3.17,6.52c-0.24,0.77-0.93,0.62-1.5,0.73c-0.61-0.13-0.87-0.64-1.2-1.09
		c-1.96-2.67-3.14-5.7-4.08-8.83c-0.3-0.99-0.68-1.95-1.09-2.9c-0.17-0.39-0.44-0.78-0.22-1.24
		C454.47,265.52,455.16,264.84,455.64,264.04z"/>
	<path style="fill-rule:evenodd;clip-rule:evenodd;fill:#4C4A4A;" d="M487.52,265.71c-2.82,2.25-6.18,1.85-9.45,2.02
		c-2.12,0.11-4.3-0.05-6.31,0.9c-0.58,0.28-1.36,0.34-1.49,1.2c-0.68-0.24-1.32-0.16-1.92,0.24c-0.31-0.95,0.29-1.53,0.89-2.04
		c1.11-0.95,2.42-1.53,3.86-1.83c2.56-0.52,5.17-0.45,7.75-0.6c2.08-0.12,3.9-0.68,5.47-2.08c0.45-0.41,0.96-0.93,1.68-0.44
		C487.96,263.98,487.88,264.87,487.52,265.71z"/>
	<path style="fill-rule:evenodd;clip-rule:evenodd;fill:#BFB475;" d="M460.95,253.79c0.06-1.42-0.81-2.38-1.7-3.27
		c-1.85-1.86-3.57-3.81-5.01-6.01c-0.32-0.49-0.51-1.07-0.76-1.61c0.36-0.52,0.63-1.13,1.36-1.24c0.9,1.33,1.58,2.78,2.66,4.03
		c1.44,1.66,3.2,2.79,5.01,3.92c0.74,0.46,1.73,0.75,1.76,1.89c-0.54,0.61-1.23,0.94-2.01,1.05
		C461.51,252.66,461.03,252.99,460.95,253.79z"/>
	<path style="fill-rule:evenodd;clip-rule:evenodd;fill:#615F60;" d="M485.14,261.2c0.59,0.36,1.36-0.01,1.92,0.48
		c0.12,0.54-0.28,0.8-0.62,1.06c-1.6,1.24-3.33,2.17-5.39,2.41c-1.78,0.21-3.56,0.39-5.35,0.53c-3.03,0.24-5.85,0.88-7.73,3.57
		c-0.14,0.2-0.36,0.31-0.6,0.37c-0.32-0.11-0.63-0.22-0.95-0.33c-0.43-0.77,0.12-1.3,0.51-1.81c1.79-2.35,4.36-3.2,7.14-3.61
		c0.78-0.12,1.58-0.15,2.32-0.48c0.81-0.14,1.65-0.06,2.44-0.33c1.39-0.11,2.7-0.54,3.96-1.12
		C483.56,261.59,484.33,261.33,485.14,261.2z"/>
	<path style="fill-rule:evenodd;clip-rule:evenodd;fill:#AA7C48;" d="M499.55,275.06c-0.86,4.31-3.24,7.56-6.95,9.86
		c-1.64,0.97-3.3,1.82-5.29,1.22c-0.74-0.89,0.24-1.04,0.64-1.2c1.61-0.67,2.98-1.67,4.33-2.74c1.88-1.49,3.29-3.35,4.49-5.39
		c0.26-0.45,0.53-0.89,0.86-1.29C498.27,275.37,498.91,275.21,499.55,275.06z"/>
	<path style="fill-rule:evenodd;clip-rule:evenodd;fill:#575656;" d="M467.38,269.61c1.54-3.35,4.61-3.98,7.8-4.37
		c2.32-0.28,4.66-0.42,6.97-0.78c1.95-0.31,3.42-1.6,4.91-2.79c1.37-0.25,0.9,0.74,0.94,1.4c-0.6-0.05-0.95,0.37-1.3,0.74
		c-2.23,2.28-5.16,2.26-8.02,2.38c-2.63,0.1-5.27,0.06-7.72,1.23c-1.19,0.57-2.17,1.35-2.61,2.65
		C468.03,269.92,467.7,269.76,467.38,269.61z"/>
	<path style="fill-rule:evenodd;clip-rule:evenodd;fill:#CBA755;" d="M506.52,281.08c0.16,2.22-0.82,4.19-1.44,6.23
		c-0.34,0.11-0.54-0.07-0.7-0.34c0.01-2.06-0.23-4.1-0.47-6.15c-0.14-1.18-0.22-2.37-0.48-3.53c0.01-1.23-0.19-2.45-0.12-3.68
		c0.26-0.87,0.52-1.74,0.78-2.61c1.38-0.17,1.2,1.02,1.56,1.76c0.74,2.24,1.06,4.56,1.26,6.9C506.96,280.17,507,280.7,506.52,281.08
		z"/>
	<path style="fill-rule:evenodd;clip-rule:evenodd;fill:#836F4F;" d="M488.75,277.73c1.65-0.89,3.48-1.11,5.29-1.4
		c-1.11,2.32-2.91,3.98-5.06,5.32c-1.21,0.51-2.39,1.1-3.76,0.89c-0.64-0.43-1.49-0.6-1.86-1.4c0.16-0.83,0.91-0.88,1.51-1.16
		c0.48-0.22,1.02-0.16,1.48-0.4c0.13-0.06,0.28-0.06,0.43-0.06c0.02-0.04,0.05-0.08,0.07-0.12c0.16-0.09,0.32-0.17,0.48-0.26
		l-0.02,0.02c0.33-0.25,0.65-0.49,0.98-0.74l-0.02,0.02c0.17-0.25,0.33-0.49,0.5-0.74L488.75,277.73z"/>
	<path style="fill-rule:evenodd;clip-rule:evenodd;fill:#A1794E;" d="M497.63,275.52c-0.72,2.84-2.69,4.8-4.71,6.72
		c-1.7,1.6-3.77,2.61-5.83,3.64c-0.72,0.78-1.61,0.74-2.53,0.54c-0.51-0.25-0.93-0.58-0.92-1.22c0.24-0.54,0.78-0.62,1.25-0.8
		c1-0.38,2.02-0.71,2.97-1.2c3.28-1.13,5.72-3.28,7.5-6.22c0.25-0.41,0.44-0.85,0.85-1.15c0.04-0.07,0.09-0.09,0.16-0.08
		c0.24-0.14,0.53-0.04,0.78-0.16C497.3,275.58,497.47,275.55,497.63,275.52z"/>
	<path style="fill-rule:evenodd;clip-rule:evenodd;fill:#BFBB76;" d="M458.5,268.13c-0.31,0.58-0.54,0.49-0.74-0.08
		c-0.48-1.36-0.74-2.82-1.64-4.01c1.53-2.72,3.05-5.43,4.58-8.15c-0.21,3.37-1.21,6.6-1.75,9.91
		C458.83,266.58,458.66,267.35,458.5,268.13z"/>
	<path style="fill-rule:evenodd;clip-rule:evenodd;fill:#757052;" d="M486.89,279.61c-1.25,0.23-2.3,0.91-3.41,1.47
		c-1,0.86-2.07,0.3-3.12,0.17c-1.65-0.67-3.31-1.35-4.76-2.45c-0.54-0.41-1.11-0.8-1.22-1.55c0-0.13,0.03-0.25,0.09-0.36
		c0.04-0.04,0.09-0.09,0.14-0.13c0.47,0.15,1.01-0.11,1.45,0.24l-0.02-0.02c0.33,0.09,0.65,0.17,0.98,0.26l-0.02-0.02
		c0.25,0.09,0.49,0.17,0.74,0.26l-0.02-0.02c0.25,0.09,0.49,0.17,0.74,0.26l-0.02-0.02c0.25,0.09,0.49,0.17,0.74,0.26l-0.02-0.02
		c0.65,0.25,1.29,0.49,1.94,0.74l-0.02-0.02c0.25,0.09,0.49,0.17,0.74,0.26l-0.02-0.02c0.73,0.25,1.45,0.49,2.18,0.74l-0.02-0.02
		c0.99,0.21,1.94,0.07,2.89-0.22l-0.01-0.02C486.89,279.45,486.91,279.53,486.89,279.61z"/>
	<path style="fill-rule:evenodd;clip-rule:evenodd;fill:#6A6869;" d="M476.54,263.54c-0.6,0.73-1.47,0.62-2.28,0.75
		c-3.34,0.51-6.38,1.51-7.82,5c-0.5-0.17-1.06-0.18-1.46-0.59c1.13-3.38,3.92-4.67,7-5.62c0.96-0.3,2.11,0.1,2.9-0.79
		c0.62-0.08,0.97,0.35,1.36,0.7c0.11,0.12,0.19,0.25,0.26,0.4C476.52,263.44,476.53,263.49,476.54,263.54z"/>
	<path style="fill-rule:evenodd;clip-rule:evenodd;fill:#4D4C4B;" d="M504.38,255.62c-2.72,1.02-2.88,3.43-3.13,5.79
		c-0.05,0.52-0.02,1.04-0.27,1.51c-0.29,0.26-0.62,0.45-0.99,0.58c-0.72,0.26-1.22,0.17-1.27-0.73c0.02-1.43,0.23-2.84,0.54-4.24
		c0.28-1.23,0.82-2.31,1.72-3.19c0.73-0.8,1.76-1.25,2.72-1.34C504.57,253.93,504.26,255.01,504.38,255.62z"/>
	<path style="fill-rule:evenodd;clip-rule:evenodd;fill:#D2BC79;" d="M510.84,272.2c-0.54,0.5-1.02,1.18-1.92,0.72
		c-0.64-1.04-1.28-2.08-1.92-3.12c-1.03-0.78-1.1-2.04-1.49-3.12c-0.18-0.51-0.42-1.11-0.21-1.71c0.01-0.15,0.02-0.3,0.04-0.44
		c0.56,0.08,1-0.17,1.42-0.48c0.84,1.42,1.26,3.07,2.4,4.32C509.72,269.64,510.28,270.92,510.84,272.2z"/>
	<path style="fill-rule:evenodd;clip-rule:evenodd;fill:#95734B;" d="M496.2,275.85c-1.45,3.9-4.29,6.32-8.16,7.63
		c-0.2-0.95,0.27-1.6,0.96-2.16c2.03-1.31,3.33-3.35,5.04-4.99C494.71,275.97,495.46,275.91,496.2,275.85z"/>
	<path style="fill-rule:evenodd;clip-rule:evenodd;fill:#A39D99;" d="M468.13,273.19c0.15,0.13,0.3,0.27,0.46,0.4
		c-2.77-0.64-5.56-1.19-8.29-1.95c-1.26-0.35-0.42-1.57-0.45-2.34c-0.03-0.81,0.72-0.37,1.17-0.25c1.71,0.45,3.27,1.42,5.09,1.53
		c0.7,0.04,0.42,0.68,0.48,1.03C466.74,272.53,467.05,273.22,468.13,273.19z"/>
	<path style="fill-rule:evenodd;clip-rule:evenodd;fill:#575656;" d="M490.44,275.54c-1.23-3.84,0.38-6.59,3.39-8.81
		c0.19-0.14,0.31-0.36,0.46-0.54c0.96,0.15,0.94,0.79,0.71,1.49c-0.12,0.38-0.42,0.67-0.73,0.92c-0.88,0.72-1.34,1.62-1.3,2.77
		c-0.28,1.23,0.08,2.49-0.11,3.72C492.08,275.4,491.29,275.68,490.44,275.54z"/>
	<path style="fill-rule:evenodd;clip-rule:evenodd;fill:#CBB06C;" d="M505.3,264.96c0.57,1.61,1.13,3.22,1.7,4.84
		c0.24,1.84,0.48,3.68,0.72,5.52c-0.68,0.17-0.95-0.33-1.13-0.79c-0.3-0.71-0.79-1.27-1.26-1.85c-0.5-0.5-0.34-1.47-1.23-1.68
		c0.04-0.25,0.08-0.5,0.11-0.74c0.03-0.08,0.07-0.16,0.13-0.23C504.66,268.34,504.98,266.65,505.3,264.96z"/>
	<path style="fill-rule:evenodd;clip-rule:evenodd;fill:#C0964E;" d="M503.32,273.61c0.83,1.11,0.49,2.41,0.56,3.63
		c-0.25,1.3-0.02,2.69-0.76,3.9c-0.3,0.49-0.41,1.15-1.17,1.19c-0.67-1.04-0.88-2.21-0.96-3.41c0.15-1.46,0.3-2.92,0.45-4.38
		C502.03,274.14,502.84,274.21,503.32,273.61z"/>
	<path style="fill-rule:evenodd;clip-rule:evenodd;fill:#B9B971;" d="M462.12,279.88c-1.5-2.13-2.78-4.37-3.36-6.94
		c0.56,0.01,1.12,0.01,1.69,0.02c0.7,0.28,0.72,0.98,0.95,1.55c0.27,0.69,0.57,1.38,0.83,2.08c0.71,2.23,2.15,4.04,3.49,5.91
		c0.27,0.38,0.69,0.69,0.54,1.25c-0.21,0.18-0.48,0.21-0.66,0.07C464.23,282.68,462.7,281.69,462.12,279.88z"/>
	<path style="fill-rule:evenodd;clip-rule:evenodd;fill:#A2A97B;" d="M462.12,273.19c0.68-0.03,1.31,0.19,1.92,0.45
		c0.38,0.23,0.68,0.53,0.82,0.98c0.71,2.28,2.05,4.2,3.4,6.13c0.33,0.47,0.84,0.9,0.59,1.59c-0.84,0.42-1.37-0.32-2.04-0.53
		c-2.14-2.01-3.55-4.49-4.53-7.23C462.14,274.13,461.89,273.68,462.12,273.19z"/>
	<path style="fill-rule:evenodd;clip-rule:evenodd;fill:#75775D;" d="M474.59,276.96c0.46,1.41,1.8,1.83,2.88,2.52
		c0.83,0.53,1.76,0.91,2.65,1.35c-0.43,0.52-0.99,0.39-1.54,0.32c-1.55-0.19-3-0.68-4.39-1.36c-0.98-0.41-1.7-1.18-2.29-1.99
		c-0.8-1.1-1.86-1.65-3.12-1.95c-0.7-0.18-1.32-0.57-2.01-0.76c-0.3-0.19-0.75-0.29-0.54-0.82c2.78,0.87,5.49,1.97,8.38,2.48l0-0.02
		c-0.07,0.04-0.09,0.09-0.07,0.14C474.55,276.94,474.57,276.96,474.59,276.96z"/>
	<path style="fill-rule:evenodd;clip-rule:evenodd;fill:#AEB279;" d="M462.12,273.19c0.48,1.12,0.97,2.23,1.45,3.36
		c0.8,1.89,2.14,3.41,3.35,5.02c0.26,0.17,0.49,0.36,0.3,0.72c-1.63,0.07-2.38-1.2-3.24-2.22c-0.84-1-1.43-2.18-2.1-3.3
		c-0.48-1.27-0.96-2.54-1.44-3.81C461.02,272.91,461.59,272.93,462.12,273.19z"/>
	<path style="fill-rule:evenodd;clip-rule:evenodd;fill:#9B9E75;" d="M468.84,282.28c-2.03-2.64-3.69-5.49-4.8-8.64
		c0.24,0.07,0.49,0.13,0.73,0.2c0.43,0.31,0.71,0.73,0.92,1.21c1.15,2.66,3.03,4.74,5.31,6.48c0.56,0.51,1.06,1.08,1.56,1.64
		c0.28,0.31,0.65,0.64,0.33,1.14c-0.47,0.35-0.95,0.11-1.43,0.02C470.44,283.83,469.25,283.56,468.84,282.28z"/>
	<path style="fill-rule:evenodd;clip-rule:evenodd;fill:#595858;" d="M500.99,255.34c-1.23,2.36-1.7,4.91-1.92,7.53
		c-0.14,0.08-0.27,0.03-0.4-0.04c-0.12-0.07-0.23-0.16-0.33-0.26c-0.13-0.14-0.23-0.29-0.23-0.5c-1.31-0.32-0.68-1.33-0.7-2.08
		c-0.01-0.49,0.14-0.99,0.22-1.49C498.7,257.4,499.4,255.9,500.99,255.34z"/>
	<path style="fill-rule:evenodd;clip-rule:evenodd;fill:#005C6A;" d="M490.51,252.4c2.26,0.48,4.27,1.05,5.87,2.55
		c0.18,0.16,0.56,0.33,0.34,0.65c-0.15,0.21-0.44,0.26-0.75,0.23c-1.05-0.12-1.88-0.28-2.36-1.53c-0.54-1.42-3.71-1.47-4.39-0.08
		c-0.74,1.49-2.08,1.53-3.36,1.85c-0.43,0.11-0.39-0.14-0.19-0.36C487.06,254.17,488.95,253.43,490.51,252.4z"/>
	<path style="fill-rule:evenodd;clip-rule:evenodd;fill:#909978;" d="M470.76,281.8c-2.84-2.02-4.88-4.65-5.99-7.97
		c0.48,0.15,0.97,0.3,1.45,0.45c0.23,0.18,0.46,0.37,0.7,0.55c0.4,0.35,0.64,0.81,0.87,1.28c0.69,1.4,1.53,2.71,2.57,3.89
		c0.29,0.33,0.56,0.68,0.64,1.14C471.03,281.4,470.96,281.62,470.76,281.8z"/>
	<path style="fill-rule:evenodd;clip-rule:evenodd;fill:#005C6A;" d="M473.44,252.29c0.87-0.17,1.41,0.13,1.9,0.44
		c1.92,1.25,4,2.05,6.26,2.39c0.25,0.04,0.68,0.29,0.67,0.36c-0.08,0.35-0.46,0.11-0.68,0.23c-2.2,1.18-3.76-0.42-5.44-1.32
		c-0.84-0.45-1.69-0.84-2.6-1.11c-0.37-0.11-0.89-0.16-0.85-0.65C472.75,252.03,473.33,252.32,473.44,252.29z"/>
	<path style="fill-rule:evenodd;clip-rule:evenodd;fill:#6C6B6C;" d="M485.14,261.2c-1.79,1-3.61,1.94-5.69,2.21
		c-0.17,0.02-0.36-0.06-0.54-0.1c-0.24-0.37-0.65-0.67-0.46-1.2c0.69-0.89,1.93-0.77,2.71-1.48
		C482.49,260.82,483.82,261.01,485.14,261.2z"/>
	<path style="fill-rule:evenodd;clip-rule:evenodd;fill:#484746;" d="M492.86,275.1c-0.81-1.24-0.47-2.55-0.26-3.85
		c0.69-0.34,1.38-0.75,2.16-0.21c-0.8,1.28-0.86,2.56,0.01,3.83C494.17,275.29,493.49,274.98,492.86,275.1z"/>
	<path style="fill-rule:evenodd;clip-rule:evenodd;fill:#EC353B;" d="M489.74,258.03c0.14-1.2,0.31-2.42,1.43-3.14
		c0.81-0.52,1.15-0.02,1.2,0.76c0.05,0.83,0.03,1.66-0.5,2.38C491.15,258.24,490.45,258.23,489.74,258.03z"/>
	<path style="fill-rule:evenodd;clip-rule:evenodd;fill:#07B4DF;" d="M468.63,250.89c0,0.41-0.14,0.64-0.61,0.66
		c-0.45,0.01-0.65-0.24-0.74-0.59c-0.19-0.69-0.24-1.38,0.15-2.03c0.08-0.11,0.17-0.21,0.22-0.34c1.48-0.36,1.69,0.01,1.16,2.02
		C468.73,250.7,468.68,250.79,468.63,250.89z"/>
	<path style="fill-rule:evenodd;clip-rule:evenodd;fill:#8E8885;" d="M483.23,248.69c-1.52-0.14-2.96-0.56-4.34-1.19
		c0.03-0.04,0.06-0.07,0.09-0.11c0.14-0.02,0.29-0.01,0.41-0.11c1.78-0.02,3.43,0.54,5.07,1.15
		C484.17,249.08,483.68,248.77,483.23,248.69z"/>
	<path style="fill-rule:evenodd;clip-rule:evenodd;fill:#41403E;" d="M501.71,252.75c-0.46,0.69-1.06,1.15-1.92,1.2l0.01,0.01
		c0.39-0.81,0.66-1.79,1.92-1.2L501.71,252.75z"/>
	<path style="fill-rule:evenodd;clip-rule:evenodd;fill:#726D6B;" d="M483.23,248.69c0.42-0.05,0.89,0.17,1.22-0.27
		c0.71,0.04,1.35,0.27,1.95,0.65c-0.67,0.25-1.29-0.06-1.93-0.14C484.05,248.88,483.59,249.03,483.23,248.69z"/>
	<path style="fill-rule:evenodd;clip-rule:evenodd;fill:#CEA57E;" d="M493.75,258c-0.25,0.04-0.4,0-0.29-0.3
		c0.12-0.33,0.16-0.73,0.67-0.62c0.29,0.06,0.6,0.1,0.78,0.38C494.51,257.65,494.12,257.83,493.75,258z"/>
	<path style="fill-rule:evenodd;clip-rule:evenodd;fill:#756F6E;" d="M488.76,260.2c-0.08-0.25-0.15-0.5-0.23-0.75
		c0.14,0.05,0.29,0.12,0.43,0.15c0.35,0.08,0.71,0.16,1.06,0.23C489.69,260.26,489.22,260.22,488.76,260.2z"/>
	<path style="fill-rule:evenodd;clip-rule:evenodd;fill:#E05449;" d="M489.74,258.03c0.71,0,1.42,0,2.13-0.01
		C491.15,258.45,490.45,258.44,489.74,258.03z"/>
	<path style="fill-rule:evenodd;clip-rule:evenodd;fill:#998D59;" d="M467.64,247.49c0.45-0.42,1-0.22,1.51-0.22
		C468.68,247.57,468.15,247.45,467.64,247.49z"/>
	<path style="fill-rule:evenodd;clip-rule:evenodd;fill:#998D59;" d="M469.32,247.26c0.27-0.33,0.63-0.26,0.99-0.23
		C470.02,247.29,469.66,247.24,469.32,247.26z"/>
	<path style="fill-rule:evenodd;clip-rule:evenodd;fill:#75706E;" d="M478.89,247.49c-0.18-0.03-0.47,0-0.4-0.27
		c0.08-0.29,0.28-0.13,0.43,0c0.09,0.05,0.12,0.13,0.1,0.23C478.98,247.48,478.94,247.49,478.89,247.49z"/>
	<path style="fill-rule:evenodd;clip-rule:evenodd;fill:#998D59;" d="M487.31,246.28c0.24,0.05,0.47,0.11,0.71,0.16
		C487.78,246.39,487.55,246.34,487.31,246.28z"/>
	<path style="fill-rule:evenodd;clip-rule:evenodd;fill:#95734B;" d="M497.14,275.61c-0.22,0.22-0.5,0.19-0.78,0.16
		C496.63,275.72,496.89,275.66,497.14,275.61z"/>
	<path style="fill-rule:evenodd;clip-rule:evenodd;fill:#A59F9B;" d="M479.02,247.45c-0.03-0.08-0.06-0.16-0.1-0.23
		c0.15,0.02,0.31,0.04,0.46,0.06C479.27,247.33,479.14,247.39,479.02,247.45z"/>
	<path style="fill-rule:evenodd;clip-rule:evenodd;fill:#6A6667;" d="M468.33,270.95c-0.03,0.06-0.06,0.13-0.09,0.2
		c-0.02-0.03-0.07-0.07-0.07-0.09c0.02-0.07,0.05-0.13,0.08-0.2C468.27,270.88,468.3,270.92,468.33,270.95z"/>
	<path style="fill-rule:evenodd;clip-rule:evenodd;fill:#ABAAAC;" d="M477.27,246.53c-0.02-0.07-0.03-0.14-0.03-0.21
		c0.06,0.01,0.12,0.02,0.17,0.03C477.36,246.41,477.32,246.47,477.27,246.53z"/>
	<path style="fill-rule:evenodd;clip-rule:evenodd;fill:#BDB895;" d="M472.42,247.9c0.01,0.09,0.01,0.18,0.02,0.26
		c-0.06-0.02-0.12-0.03-0.18-0.05C472.31,248.04,472.37,247.97,472.42,247.9z"/>
	<path style="fill-rule:evenodd;clip-rule:evenodd;fill:#56B1CF;" d="M467.64,248.59c-0.07,0.11-0.15,0.23-0.22,0.34
		C467.49,248.82,467.57,248.71,467.64,248.59z"/>
	<path style="fill-rule:evenodd;clip-rule:evenodd;fill:#CBA755;" d="M504.34,270.02c-0.04,0.08-0.09,0.15-0.13,0.23
		C504.25,270.18,504.3,270.1,504.34,270.02z"/>
	<path style="fill-rule:evenodd;clip-rule:evenodd;fill:#6C6B6C;" d="M480.39,260.43c-0.11,0-0.21,0-0.32-0.01
		C480.18,260.42,480.29,260.42,480.39,260.43z"/>
	<path style="fill-rule:evenodd;clip-rule:evenodd;fill:#403F3D;" d="M499.79,253.95c-0.02,0.03-0.03,0.07-0.05,0.1
		c0.02-0.03,0.04-0.06,0.06-0.09L499.79,253.95z"/>
	<path style="fill-rule:evenodd;clip-rule:evenodd;fill:#403F3D;" d="M501.72,252.77c0.02-0.03,0.03-0.07,0.05-0.1
		c-0.02,0.03-0.04,0.06-0.06,0.09L501.72,252.77z"/>
	<path style="fill-rule:evenodd;clip-rule:evenodd;fill:#5EA4BE;" d="M468.63,250.89c0.06-0.1,0.11-0.19,0.17-0.29
		C468.74,250.7,468.69,250.8,468.63,250.89z"/>
	<path style="fill-rule:evenodd;clip-rule:evenodd;fill:#231F20;" d="M490.68,321.12c-0.47-0.01-0.94-0.01-1.41-0.02
		c-0.72-0.68-0.43-1.57-0.45-2.38c-0.02-0.78-0.11-1.37-1-1.64c-0.89-0.27-1.07-1.02-0.84-1.84c0.5-1.85,1.55-3.24,3.47-3.77
		c0.72-0.2,1.32-0.52,1.84-1.03c0.46-0.45,0.99-0.86,1.65-0.91c1.17-0.1,1.85-0.84,2.41-1.75c0.68-1.12,1.34-2.26,1.92-3.45
		c0.5-1,1.08-1.96,1.8-2.81c0.38-0.45,0.74-0.96,1.43-0.97c0.08,0.03,0.15,0.03,0.23,0c0.1,0.05,0.17,0.13,0.22,0.23
		c0.04,0.08,0.07,0.17,0.1,0.25c0.05,0.15,0.05,0.32,0.14,0.46c0.04,0.16,0.08,0.31,0.13,0.47c0.62,3.5,0.01,7.01,0.14,10.52
		c0.03,0.8,0.12,1.6,0.07,2.39c-0.02,0.41,1.05,1.68-0.69,1.06c-0.28-0.1-0.54,0.32-0.65,0.62c-0.4,1.08-0.79,2.17-1.16,3.26
		c-0.06,0.17,0.01,0.38,0.03,0.57c0.18-0.06,0.43-0.06,0.54-0.18c1.01-1.22,2.62-1.55,3.75-2.66c0.96-0.95,2.72-0.69,3.6-1.96
		c0.16,0.03,0.17,0.18,0.23,0.29c-0.38,1.05-1.02,1.99-0.93,3.24c0.04,0.47-0.18,1.75-1.53,0.97c-0.65-0.37-1.03,0.43-1.26,1.02
		c-0.35,0-0.69,0-1.04,0c-0.07-0.7-0.19-1.22-0.92-0.38c-0.23,0.26-0.67,0.19-0.97,0.39c-1.19,0-2.38,0.01-3.57,0.01
		c-0.14-0.42,0.11-0.76,0.25-1.12c0.04-0.09,0.07-0.19,0.09-0.29c0.24-0.26,0.16-0.66,0.4-0.92c0.03-0.09,0.06-0.18,0.08-0.27
		c0.08-0.14,0.19-0.28,0.23-0.46c0.03-0.04,0.05-0.08,0.05-0.08c-0.02,0.04-0.02,0-0.04,0.02c-0.03,0.07-0.04,0.11-0.06,0.18
		c-0.07,0.16-0.17,0.27-0.21,0.41c-0.01,0.09-0.05,0.18-0.1,0.26c-0.17,0.29-0.17,0.65-0.37,0.93c-0.02,0.1-0.05,0.19-0.11,0.28
		c-0.2,0.35-0.16,0.81-0.53,1.07c-1.91-0.01-3.82-0.02-5.73-0.03c-0.06-0.05-0.11-0.11-0.16-0.17c-0.29-0.36-0.25-0.9-0.66-1.18
		c-0.19,0.38,0.09,0.84-0.22,1.2C490.79,321.01,490.74,321.07,490.68,321.12z"/>
	<path style="fill-rule:evenodd;clip-rule:evenodd;fill:#7E785E;" d="M510.84,311.31c-0.08,0.7-0.59,1.16-0.93,1.71
		c-0.04,0-0.08-0.01-0.12-0.01c-0.07-0.04-0.13-0.1-0.17-0.17c0-0.04-0.01-0.08-0.02-0.12
		C509.93,312.17,510.25,311.62,510.84,311.31z"/>
	<path style="fill-rule:evenodd;clip-rule:evenodd;fill:#736E5A;" d="M508.92,313.97c0.05-0.17,0.11-0.33,0.16-0.5
		c0.18-0.25,0.35-0.51,0.53-0.76l0.06,0.08c0.06,0.05,0.11,0.11,0.16,0.16l0.08,0.06c-0.26,0.39-0.51,0.79-0.77,1.18
		C509.08,314.12,509,314.04,508.92,313.97z"/>
	<path style="fill-rule:evenodd;clip-rule:evenodd;fill:#79745C;" d="M511.82,309.9c-0.08,0.5-0.42,0.84-0.75,1.19
		c0.02-0.54,0.13-1.04,0.51-1.45C511.68,309.71,511.81,309.75,511.82,309.9z"/>
	<path style="fill-rule:evenodd;clip-rule:evenodd;fill:#77715A;" d="M508.91,314.66c-0.02,0.35-0.17,0.61-0.47,0.79
		c-0.14-0.04-0.15-0.2-0.26-0.27c0.08-0.24,0.17-0.48,0.25-0.72c0.08-0.01,0.17-0.02,0.25-0.02
		C508.76,314.52,508.83,314.59,508.91,314.66z"/>
	<path style="fill-rule:evenodd;clip-rule:evenodd;fill:#231F20;" d="M512.31,309.22c-0.06,0.07-0.13,0.14-0.19,0.21
		c-0.11,0.15-0.2,0.14-0.27-0.03c0.05-0.25,0.13-0.47,0.4-0.56C512.39,308.95,512.41,309.08,512.31,309.22z"/>
	<path style="fill-rule:evenodd;clip-rule:evenodd;fill:#231F20;" d="M512.31,309.22c-0.02-0.13-0.04-0.25-0.06-0.37
		c0.09-0.06,0.19-0.12,0.28-0.18C512.46,308.85,512.38,309.04,512.31,309.22z"/>
	<path style="fill-rule:evenodd;clip-rule:evenodd;fill:#231F20;" d="M508.19,315.18c0.09,0.09,0.17,0.18,0.26,0.27
		c-0.07,0.08-0.14,0.16-0.21,0.25c-0.14-0.1-0.17-0.23-0.07-0.37C508.15,315.27,508.16,315.22,508.19,315.18z"/>
	<path style="fill-rule:evenodd;clip-rule:evenodd;fill:#231F20;" d="M508.16,315.32c0.02,0.13,0.05,0.25,0.07,0.37
		c0.02,0.08-0.01,0.14-0.08,0.18c-0.08-0.1-0.16-0.19-0.23-0.29C508,315.49,508.08,315.41,508.16,315.32z"/>
	<path style="fill-rule:evenodd;clip-rule:evenodd;fill:#231F20;" d="M511.85,309.4c0.09,0.01,0.18,0.02,0.27,0.03
		c-0.01,0.07-0.03,0.14-0.08,0.19c-0.07,0.07-0.16,0.1-0.25,0.1c-0.01-0.05-0.02-0.09-0.03-0.14
		C511.74,309.5,511.77,309.44,511.85,309.4z"/>
	<path style="fill-rule:evenodd;clip-rule:evenodd;fill:#231F20;" d="M511.82,309.9c-0.08-0.09-0.16-0.18-0.24-0.27
		c0.05-0.05,0.11-0.06,0.18-0.05l0.03,0.05c0.07,0.05,0.09,0.11,0.08,0.17C511.86,309.86,511.84,309.89,511.82,309.9L511.82,309.9z"
		/>
	<path style="fill-rule:evenodd;clip-rule:evenodd;fill:#79755E;" d="M511.09,311.07c-0.09,0.09-0.17,0.17-0.26,0.26
		C510.92,311.24,511,311.16,511.09,311.07z"/>
	<path style="fill-rule:evenodd;clip-rule:evenodd;fill:#CDB147;" d="M501.48,300.55c-1.9,1.63-2.83,3.9-4,6.02
		c-0.44,0.8-0.98,1.54-1.46,2.32c-0.43,0.7-1.32,0.69-1.82,1.06c-2.24,1.66-5.7,1.65-6.76,4.91c-0.37,1.12-0.42,1.99,1.13,2
		c0.49,0,0.68,0.26,0.67,0.77c-0.02,1.16,0.01,2.32,0.02,3.47c-0.23,0-0.47,0-0.7,0c-1.57-0.58-2.13-2.1-3.05-3.27
		c0,0.01-0.03-0.02-0.03-0.02s0.05,0.06,0.06,0.07c0.29,0.59,0.56,1.16,0.06,1.76c-0.43,0.29-0.92,0.31-1.39,0.19
		c-3.5-0.91-6.99-1.85-10.25-3.47c-0.44-0.58,0.02-0.97,0.33-1.35c2.33-2.86,1.75-2.45,0.35-4.84c-1.91-3.28-4.04-6.43-6.23-9.53
		c-0.34-0.48-0.76-0.94-0.69-1.61c0.51-1.53,1.18-2.91,2.79-3.61c0.94-0.41,1.18-1.2,0.81-2.17c-0.14-0.36-0.32-0.74-0.08-1.13
		c0.08-0.08,0.16-0.16,0.24-0.24c0.64-0.65,1.47-0.6,2.28-0.6c1.13-0.06,2.15,0.37,3.18,0.72c1.92,0.95,3.45,2.57,5.53,3.27
		c0.34,0.11,0.59,0.4,0.7,0.77c0.05,0.32-0.09,0.57-0.29,0.8c-0.07,0.08-0.15,0.16-0.23,0.24c-0.04,0.04-0.08,0.08-0.12,0.11
		c-0.07,0.08-0.14,0.16-0.21,0.24c-0.03,0.04-0.07,0.08-0.1,0.13c-0.07,0.09-0.13,0.18-0.2,0.26c-0.86,1.7-0.41,4.24,0.97,5.48
		c1.03,0.92,2.16,0.7,3.24,0.16c3.14-1.58,6.08-3.49,8.99-5.46c2.22-1.5,4.75-2.46,7.01-3.89c0.27-0.17,0.58-0.28,0.91-0.13
		c0.02,0.69-0.53,1.13-0.79,1.69c-0.58,1.26-1.55,2.44-0.68,3.98C501.77,299.85,501.55,300.25,501.48,300.55z"/>
	<path style="fill-rule:evenodd;clip-rule:evenodd;fill:#010101;" d="M503.13,293.98c-5.03,2.64-9.86,5.61-14.61,8.71
		c-0.49,0.32-1.04,0.56-1.56,0.83c-2.27,1.14-3.38,1.11-4.5-0.13c-1.46-1.62-1.75-4.22-0.64-5.91c0.03-0.14,0.12-0.24,0.24-0.31
		l-0.01,0.01c0.06-0.1,0.14-0.19,0.25-0.25l-0.01,0.01c0.08-0.12,0.17-0.2,0.31-0.23c0.14-0.14,0.29-0.28,0.43-0.42
		c0.17-0.59,0.67-0.85,1.15-1.14c1.36-0.82,2.81-1.48,4.16-2.31c1.21-0.83,2.4-1.67,3.45-2.69c2.06-1.64,4.12-3.28,6.51-4.44
		c0.93-0.45,1.88-0.89,2.95-0.89c1.58,0.06,2.71,0.8,3.34,2.27c0.16,0.08,0.32,0.15,0.48,0.23c0.93,2,0.48,3.81-0.73,5.52
		c-0.07,0.08-0.13,0.16-0.18,0.25l-0.05,0.05c-0.09,0.05-0.17,0.11-0.25,0.18C503.51,293.41,503.32,293.69,503.13,293.98z"/>
	<path style="fill-rule:evenodd;clip-rule:evenodd;fill:#D0B360;" d="M505.32,272.68c0.81,0.16,1.37,0.54,1.5,1.44
		c0.08,0.52,0.41,0.94,0.9,1.2c0.4,0.96,0.8,1.92,1.2,2.88c-0.16,2.33,0.35,4.59,0.61,6.88c0.17,1.5-0.41,2.96-0.85,4.39
		c-0.45-2.87-0.58-5.82-2.16-8.4C506.5,278.23,505.81,275.47,505.32,272.68z"/>
	<path style="fill-rule:evenodd;clip-rule:evenodd;fill:#CDB147;" d="M502.17,301.5c-0.05-0.16-0.1-0.31-0.14-0.46
		C502.08,301.19,502.13,301.35,502.17,301.5z"/>
	<path style="fill-rule:evenodd;clip-rule:evenodd;fill:#CDB147;" d="M503.87,293.31c0.08-0.06,0.17-0.12,0.25-0.18
		C504.04,293.19,503.95,293.25,503.87,293.31z"/>
	<path style="fill-rule:evenodd;clip-rule:evenodd;fill:#CDB147;" d="M504.17,293.08c0.06-0.08,0.12-0.17,0.18-0.25
		C504.29,292.91,504.23,293,504.17,293.08z"/>
	<path style="fill-rule:evenodd;clip-rule:evenodd;fill:#CDB147;" d="M501.93,300.79c-0.07-0.08-0.14-0.15-0.22-0.23
		C501.78,300.63,501.85,300.71,501.93,300.79z"/>
	<path style="fill-rule:evenodd;clip-rule:evenodd;fill:#C7B665;" d="M457.32,315.88c-2.7-0.09-5.17-1.07-7.68-1.92
		c-0.53-1.61-0.92-3.29-1.63-4.81c-0.44-0.94,0.33-1.38,0.37-2.05c0.06-0.92,0.48-1.02,1.26-1.4c2.55-1.22,3.98,0.67,5.74,1.67
		c0.24,0.13,0.46,0.52,0.46,0.79c0,1.15,0.7,1.91,1.37,2.7c1.13,1.33,1.39,3.68,0.59,5.02
		C457.64,316.03,457.48,316.02,457.32,315.88z"/>
	<path style="fill-rule:evenodd;clip-rule:evenodd;fill:#CCB453;" d="M475.31,321.12c-1.12,0-2.24,0-3.36,0
		c-3.05-0.82-5.53-2.8-8.34-4.11c-0.51-0.24-0.77-0.67-1.01-1.13c-1.78-1.86-3.42-3.81-4.25-6.32c-0.15-0.45-0.34-0.88-0.31-1.37
		c-0.64-1.75,0.17-3.09,1.22-4.37c0.69,0.01,0.9,0.6,1.21,1.03c2.46,3.43,4.88,6.9,7.42,10.28c0.79,1.06,1.67,2.02,2.63,2.92
		c1.22,0.72,2.47,1.37,3.76,1.96C474.76,320.24,475.38,320.37,475.31,321.12z"/>
	<path style="fill-rule:evenodd;clip-rule:evenodd;fill:#D2BB61;" d="M462.6,315.88c2.77,1.43,5.29,3.32,8.25,4.39
		c0.46,0.17,0.85,0.42,1.11,0.85c-2,0-4,0-5.99,0c-0.72-0.42-1.51-0.69-2.22-1.12c-0.4-0.24-0.86-0.44-0.91-1.01
		C462.61,317.97,462.55,316.93,462.6,315.88z"/>
	<path style="fill-rule:evenodd;clip-rule:evenodd;fill:#D3BF6F;" d="M462.84,319c0.91,0.9,2.47,0.84,3.12,2.12
		c-1.44,0-2.89,0-4.33,0c-0.35-0.55-0.85-0.91-1.44-1.16c-0.98-1.35-2.29-2.46-2.88-4.08c0.16,0,0.32,0,0.48,0
		C459.48,316.92,461.16,317.96,462.84,319z"/>
	<path style="fill-rule:evenodd;clip-rule:evenodd;fill:#D3BE4A;" d="M471.24,292.12c1.25,2.48,1.16,2.83-1.33,4.12
		c-0.72,0.37-1.01,0.96-1.27,1.63c-0.18,0.48-0.3,0.99-0.83,1.23c-0.64,0.04-0.87-0.49-1.19-0.88c-1.14-1.39-2.07-2.94-2.93-4.51
		c-1.37-2.51-2.92-3.27-6.22-1.79c-0.29,0.13-0.55,0.32-0.86,0.42c-0.12,0.03-0.23,0.04-0.35,0.03c-0.06-0.01-0.12-0.02-0.17-0.03
		c-1.19-0.06-1.56-1.39-2.6-1.67c0.54-0.69,0.87-1.39,0.52-2.31c-0.17-0.44-0.13-1.1,0.3-1.32c1.2-0.64,0.58-1.35,0.26-2.15
		c-0.8-2.06-2.29-3.86-2.28-6.21c0.86-0.12,1.26,0.68,1.92,0.96c0,0.08,0,0.16,0,0.24c0.09,0.07,0.15,0.17,0.24,0.24
		c3.98,5.15,8.89,9.1,14.95,11.55C469.99,291.91,470.58,292.16,471.24,292.12z"/>
	<path style="fill-rule:evenodd;clip-rule:evenodd;fill:#CFB850;" d="M447.55,275.55c-0.02-0.07-0.02-0.15-0.01-0.22
		c0.02,0.05,0.05,0.1,0.06,0.15C447.61,275.5,447.57,275.53,447.55,275.55z"/>
	<path style="fill-rule:evenodd;clip-rule:evenodd;fill:#C9BF5E;" d="M454.2,266.44c1.1,1.64,1.58,3.54,2.16,5.39
		c0.99,3.14,2.37,6.04,4.56,8.53c0.58,0.16,0.92,0.63,1.25,1.06c1.77,2.26,4.07,3.87,6.45,5.4c0.39,0.25,1.06,0.42,0.58,1.15
		c-1.04,0.58-2.02,0.28-3-0.17h0c-0.08-0.08-0.17-0.15-0.24-0.24c-3.34-1.64-5.81-4.23-7.92-7.21c-1.27-1.79-2.36-3.68-3.12-5.75
		c-0.88-2.72-1.76-5.44-2.64-8.16C452.92,266.44,453.56,266.44,454.2,266.44z"/>
	<path style="fill-rule:evenodd;clip-rule:evenodd;fill:#CAB957;" d="M466.2,287.8c1.04-0.12,2.11,0.26,3.12-0.24
		c0.09-0.08,0.19-0.12,0.31-0.13c0.83,0.14,1.49,0.59,2.1,1.14c0.5,0.66,1.23,1.1,1.75,1.75c0.3,0.38,0.8,0.72,0.4,1.32
		c-0.8,0.08-1.6,0.16-2.4,0.24C469.93,290.25,467.72,289.46,466.2,287.8z"/>
	<path style="fill-rule:evenodd;clip-rule:evenodd;fill:#CFB850;" d="M454.44,280.12c-0.08-0.08-0.16-0.16-0.24-0.24
		C454.28,279.96,454.36,280.04,454.44,280.12z"/>
	<path style="fill-rule:evenodd;clip-rule:evenodd;fill:#CAB957;" d="M465.96,287.56c0.08,0.08,0.16,0.16,0.24,0.24
		C466.12,287.72,466.04,287.64,465.96,287.56z"/>
	<path style="fill-rule:evenodd;clip-rule:evenodd;fill:#79745C;" d="M511.82,309.89c-0.01-0.09-0.02-0.18-0.03-0.26
		c0.08,0,0.17,0,0.25,0C511.97,309.72,511.89,309.81,511.82,309.89z"/>
	<path style="fill-rule:evenodd;clip-rule:evenodd;fill:#231F20;" d="M508.91,314.66c-0.07-0.08-0.15-0.15-0.22-0.23
		C508.77,314.5,508.84,314.58,508.91,314.66z"/>
	<path style="fill-rule:evenodd;clip-rule:evenodd;fill:#231F20;" d="M508.92,313.97c0.08,0.08,0.15,0.15,0.23,0.23
		C508.97,314.22,508.89,314.15,508.92,313.97z"/>
	<path style="fill-rule:evenodd;clip-rule:evenodd;fill:#020201;" d="M456.39,292.13c1.51-0.89,3.03-1.62,4.89-1.18
		c1.88,0.44,2.36,2.11,3.16,3.45c1,1.67,2.13,3.22,3.36,4.71c2.8,4.1,5.64,8.16,8.12,12.47c0.45,0.77,0.44,1.21-0.04,1.95
		c-0.61,0.94-1.4,1.71-2.08,2.57c-0.76,1.43-2.03,2-3.56,2.12c-1.99-1.61-3.3-3.79-4.81-5.8c-2.11-2.83-4.13-5.73-6.19-8.59
		c-0.12-0.15-0.24-0.3-0.36-0.45c-0.02-0.09-0.07-0.17-0.14-0.23c-0.35-0.48-0.71-0.97-1.06-1.45c-0.02-0.09-0.07-0.17-0.14-0.23
		c-0.32-0.45-0.62-0.91-0.95-1.34c-1.4-1.81-2.19-3.69-0.67-5.83c0.57-0.61-0.01-1.3,0.14-1.95l0.03-0.03
		C456.21,292.26,456.3,292.2,456.39,292.13z"/>
	<path style="fill-rule:evenodd;clip-rule:evenodd;fill:#CCB453;" d="M457.56,301.47c0.05,0.08,0.09,0.15,0.14,0.23
		C457.66,301.63,457.61,301.55,457.56,301.47z"/>
	<path style="fill-rule:evenodd;clip-rule:evenodd;fill:#CCB453;" d="M458.76,303.15c0.05,0.08,0.09,0.15,0.14,0.23
		C458.86,303.3,458.81,303.23,458.76,303.15z"/>
	<path style="fill-rule:evenodd;clip-rule:evenodd;fill:#D0B54D;" d="M470.26,318.22c1.19-0.71,2.38-1.42,3.56-2.12
		c3.24,1.03,6.41,2.28,9.71,3.14c0.67,0.17,1.32,0.27,2,0.24c0.66,0.46,0.86,0.99,0.25,1.64c-3.49,0-6.97,0-10.46,0
		c-1.35-0.71-2.69-1.44-4.05-2.14C470.88,318.78,470.45,318.66,470.26,318.22z"/>
	<path style="fill-rule:evenodd;clip-rule:evenodd;fill:#282423;" d="M485.77,321.11c-0.08-0.55-0.17-1.09-0.25-1.64
		c-0.1-0.64-0.2-1.28-0.29-1.92c0.08-0.07,0.16-0.08,0.26-0.03c1.33,0.93,1.96,2.46,3.08,3.57
		C487.63,321.1,486.7,321.11,485.77,321.11z"/>
	<path style="fill-rule:evenodd;clip-rule:evenodd;fill:#CFA67E;" d="M490.68,321.12c-0.07-0.63-0.15-1.25-0.2-1.88
		c-0.02-0.21-0.16-0.51,0.14-0.61c0.27-0.09,0.41,0.19,0.54,0.38c0.41,0.64,1.1,1.19,0.72,2.11
		C491.48,321.11,491.08,321.12,490.68,321.12z"/>
	<path style="fill-rule:evenodd;clip-rule:evenodd;fill:#6C4E2C;" d="M501.51,321.12c0.61-0.56,1.21-1.13,1.83-1.68
		c0.17-0.15,0.51-0.34,0.62-0.27c0.3,0.2,0.05,0.49-0.04,0.73c-0.16,0.41-0.34,0.8-0.51,1.2
		C502.77,321.11,502.14,321.11,501.51,321.12z"/>
	<path style="fill-rule:evenodd;clip-rule:evenodd;fill:#D3D4D6;" d="M498.31,319.95c-0.13,0.39-0.25,0.79-0.37,1.18
		c-0.11,0-0.22,0.01-0.33,0.01c0.18-0.39,0.36-0.78,0.54-1.18C498.2,319.96,498.25,319.96,498.31,319.95z"/>
	<path style="fill-rule:evenodd;clip-rule:evenodd;fill:#242021;" d="M467.05,261.15c-1.48,0.01-2.6-1.2-2.5-2.33
		c0.04-0.46,0.18-0.74,0.75-0.63c0.82,0.16,1.65,0.24,2.47,0.35c0.87,0.12,1.61,0.54,1.69,1.42c0.09,0.98-0.92,0.76-1.48,0.99
		C467.6,261.12,467.14,261.13,467.05,261.15z"/>
	<path style="fill-rule:evenodd;clip-rule:evenodd;fill:#252122;" d="M478.46,262.11c0.34,0.33,0.97,0.55,0.46,1.2
		c-0.75,0.5-1.55,0.55-2.38,0.23l0,0.01c-0.14-0.13-0.37-0.08-0.49-0.24c-0.38-0.34-0.77-0.68-1.15-1.02
		c-0.33-0.63-0.22-0.89,0.57-0.91c0.95-0.02,1.79,0.29,2.67,0.53c0.12,0.04,0.21,0.13,0.31,0.2L478.46,262.11z"/>
	<path style="fill-rule:evenodd;clip-rule:evenodd;fill:#6C6B6C;" d="M478.44,262.1c-0.1-0.07-0.21-0.13-0.31-0.2
		C478.23,261.97,478.34,262.04,478.44,262.1z"/>
	<path style="fill-rule:evenodd;clip-rule:evenodd;" d="M494.75,271.04c-0.73-0.04-1.39,0.63-2.16,0.21c-0.27-1.37,0.48-2.25,1.46-3
		c0.81-0.63,0.99-1.27,0.23-2.05c-0.78-2.13-0.76-2.15,1.34-3.02c0.84-0.35,1.66-0.73,2.5-1.09c0.16,0.09,0.31,0.19,0.47,0.28
		c0.09,0.08,0.17,0.16,0.25,0.25c0.08,0.09,0.16,0.17,0.24,0.26c0.08,0.23-0.18,0.89,0.49,0.37c0.41-0.32,0.88-0.5,1.42-0.32
		c0.57,1.93,0,3.53-1.67,4.45c-0.56,0.31-0.61,0.58-0.34,1.1c0.2,0.38,0.29,0.82,0.42,1.24c0.27,0.85,0.01,1.3-0.93,1.29
		C497.22,271,495.99,271.02,494.75,271.04z"/>
	<path style="fill-rule:evenodd;clip-rule:evenodd;fill:#A59F9B;" d="M472.19,249.89c0.12-0.07,0.24-0.13,0.36-0.2
		c0.02,0.05,0.04,0.09,0.06,0.13C472.48,249.84,472.33,249.86,472.19,249.89L472.19,249.89z"/>
	<path style="fill-rule:evenodd;clip-rule:evenodd;fill:#C49144;" d="M501.24,285.16c-3.22,0.75-5.74,2.75-8.28,4.7
		c-0.31,0.24-0.51,0.63-0.98,0.61c-2.32,0.84-4.64,1.05-6.95-0.01c-0.41-0.93,0.27-0.91,0.85-0.98c6.24-0.56,11.1-3.32,14.18-8.91
		c0.3-0.55,0.63-1.1,0.94-1.65c0.71,1.01,1,2.14,0.96,3.36C502.43,283.42,501.87,284.29,501.24,285.16z"/>
	<path style="fill-rule:evenodd;clip-rule:evenodd;fill:#B99552;" d="M485.88,289.48c-0.32,0.24-0.64,0.48-0.96,0.72
		c-0.86,1.04-2.11,0.65-3.2,0.86c-0.37,0.07-0.78-0.01-1.18-0.02c-0.96-0.05-1.86-0.22-2.43-1.13c0.24-1.22,1.24-1.83,2.07-2.59
		c0.32-0.12,0.64-0.13,0.97-0.06c0.61,0.31,1.27,0.35,1.93,0.42c0.49,0.05,1.03,0.12,1.36,0.59
		C484.92,288.68,485.4,289.08,485.88,289.48z"/>
	<path style="fill-rule:evenodd;clip-rule:evenodd;fill:#AE834E;" d="M484.44,288.28c-1.14-0.14-2.33-0.08-3.36-0.72
		c0.95-0.88,2.07-1.35,3.36-1.44c0.88-0.08,1.76-0.16,2.64-0.24c1.92,0.14,3.75-0.22,5.52-0.96
		C490.24,286.91,487.41,287.76,484.44,288.28z"/>
	<path style="fill-rule:evenodd;clip-rule:evenodd;fill:#BFBB69;" d="M469.56,287.56c-0.08,0-0.16,0-0.24,0
		c-3.27-1.55-5.89-3.91-8.18-6.66c-0.12-0.14-0.15-0.36-0.22-0.54c0.21-0.63,0.8-0.31,1.2-0.48c1.35,1.29,2.37,2.93,4.08,3.84
		c0.9,0.04,1.36,0.74,1.92,1.27C468.56,285.87,469.58,286.42,469.56,287.56z"/>
	<path style="fill-rule:evenodd;clip-rule:evenodd;fill:#CBA34B;" d="M501.24,285.16c-0.05-1.03,0.55-1.9,0.72-2.88
		c0.84-1.14,1.28-2.43,1.47-3.83c0.05-0.41,0.3-0.8,0.45-1.2c0.3,2.06,0.61,4.12,0.89,6.19c0.17,1.22,0.09,2.44-0.17,3.65
		C503.53,286.35,502.72,285.17,501.24,285.16z"/>
	<path style="fill-rule:evenodd;clip-rule:evenodd;fill:#81785A;" d="M474.12,279.4c1.92,0.82,3.9,1.38,6,1.44
		c1.12,0.08,2.24,0.16,3.36,0.24c0.54,0.42,1.36,0.46,1.68,1.2c-0.06,0.92-0.86,0.9-1.45,1.12c-0.44,0.17-0.91,0.26-1.4,0.21
		c-1.84-0.03-3.6-0.42-5.27-1.19c-0.73-0.54-1.53-1-2.2-1.63C474.46,280.41,473.92,280.09,474.12,279.4z"/>
	<path style="fill-rule:evenodd;clip-rule:evenodd;fill:#937754;" d="M482.28,283.24c1-0.2,2.04-0.27,2.88-0.96
		c1.35-0.02,2.55-0.66,3.84-0.96c-0.32,0.72-0.64,1.44-0.96,2.16c-1.3,0.91-2.82,1.26-4.32,1.68c-0.64,0.58-1.22,0.36-1.79-0.13
		C481.52,284.33,481.72,283.75,482.28,283.24z"/>
	<path style="fill-rule:evenodd;clip-rule:evenodd;" d="M486.89,279.61c-0.03-0.07-0.05-0.14-0.06-0.22
		c0.04,0.04,0.08,0.09,0.1,0.14C486.94,279.54,486.9,279.58,486.89,279.61z"/>
	<path style="fill-rule:evenodd;clip-rule:evenodd;" d="M488.75,277.73c0.03,0.01,0.06,0.02,0.1,0.03
		c-0.03-0.02-0.05-0.03-0.08-0.05L488.75,277.73z"/>
	<path style="fill-rule:evenodd;clip-rule:evenodd;" d="M487.31,279.17c0.03,0.01,0.06,0.02,0.09,0.03
		c-0.02-0.02-0.04-0.03-0.07-0.05L487.31,279.17z"/>
	<path style="fill-rule:evenodd;clip-rule:evenodd;" d="M488.27,278.45c0.03,0.01,0.06,0.02,0.09,0.03
		c-0.03-0.02-0.05-0.03-0.08-0.05C488.29,278.43,488.27,278.45,488.27,278.45z"/>
	<path style="fill-rule:evenodd;clip-rule:evenodd;fill:#A0885C;" d="M482.04,284.92c0.56,0.08,1.12,0.16,1.68,0.24
		c0.24,0.32,0.48,0.64,0.72,0.96c-1.02,0.71-2.15,1.16-3.36,1.44c-0.32,0-0.64,0-0.97,0c-0.15,0.12-0.32,0.17-0.51,0.18
		c-1-0.29-1.81-0.9-2.63-1.5c-0.31-0.23-0.64-0.48-0.51-0.96c0.41-0.61,1.1-0.69,1.72-0.91c0.86,0.02,1.71,0.07,2.57,0.07
		C481.24,284.44,481.69,284.55,482.04,284.92z"/>
	<path style="fill-rule:evenodd;clip-rule:evenodd;" d="M483.95,279.63c-0.01,0.03-0.02,0.06-0.03,0.09
		c0.02-0.02,0.03-0.05,0.05-0.07L483.95,279.63z"/>
	<path style="fill-rule:evenodd;clip-rule:evenodd;" d="M478.43,277.71c-0.01,0.03-0.02,0.06-0.03,0.09
		c0.02-0.02,0.03-0.05,0.05-0.07L478.43,277.71z"/>
	<path style="fill-rule:evenodd;clip-rule:evenodd;" d="M477.71,277.47c-0.01,0.03-0.02,0.06-0.03,0.09
		c0.02-0.02,0.03-0.05,0.05-0.07L477.71,277.47z"/>
	<path style="fill-rule:evenodd;clip-rule:evenodd;" d="M476.99,277.23c-0.01,0.03-0.02,0.06-0.03,0.08
		c0.02-0.02,0.03-0.04,0.05-0.06L476.99,277.23z"/>
	<path style="fill-rule:evenodd;clip-rule:evenodd;" d="M476.03,276.99c-0.01,0.03-0.02,0.05-0.03,0.08
		c0.02-0.02,0.03-0.04,0.05-0.06L476.03,276.99z"/>
	<path style="fill-rule:evenodd;clip-rule:evenodd;" d="M474.59,276.96c-0.02-0.05-0.05-0.11-0.06-0.17c0-0.01,0.05-0.03,0.08-0.05
		C474.61,276.82,474.6,276.89,474.59,276.96z"/>
	<path style="fill-rule:evenodd;clip-rule:evenodd;" d="M481.79,278.91c-0.01,0.02-0.02,0.05-0.03,0.07
		c0.01-0.02,0.03-0.04,0.04-0.06C481.81,278.93,481.79,278.91,481.79,278.91z"/>
	<path style="fill-rule:evenodd;clip-rule:evenodd;" d="M481.07,278.67c-0.01,0.03-0.02,0.06-0.03,0.09
		c0.02-0.02,0.03-0.05,0.05-0.07L481.07,278.67z"/>
	<path style="fill-rule:evenodd;clip-rule:evenodd;" d="M479.15,277.95c-0.01,0.03-0.02,0.06-0.03,0.09
		c0.02-0.02,0.03-0.05,0.05-0.07L479.15,277.95z"/>
	<path style="fill-rule:evenodd;clip-rule:evenodd;fill:#615F60;" d="M476.04,263.31c0.16,0.08,0.33,0.16,0.49,0.24
		C476.37,263.47,476.21,263.39,476.04,263.31z"/>
	<path style="fill-rule:evenodd;clip-rule:evenodd;fill:#B4B370;" d="M467.88,285.16c-0.56-0.48-1.12-0.96-1.68-1.44
		c-1.76-2.12-3.34-4.35-4.32-6.96c0.77,1,1.58,1.97,2.31,3c0.78,1.09,1.85,1.83,2.96,2.52c1.23,0.37,2.73,2.33,2.52,3.3
		C468.96,285.94,468.43,285.5,467.88,285.16z"/>
	<path style="fill-rule:evenodd;clip-rule:evenodd;fill:#ABA56D;" d="M469.8,285.4c-0.88-1.04-1.76-2.08-2.64-3.12
		c-0.08-0.24-0.16-0.48-0.24-0.72c0.64,0.24,1.28,0.48,1.92,0.72c0.83,0.64,1.67,1.26,2.64,1.68c0.86,0.49,1.58,1.13,2.14,1.95
		c0.21,0.32,0.52,0.62,0.23,1.05c-0.2,0.17-0.44,0.21-0.69,0.22C471.9,286.84,470.67,286.45,469.8,285.4z"/>
	<path style="fill-rule:evenodd;clip-rule:evenodd;fill:#838568;" d="M474.12,279.4c0.69,1.17,2.02,1.65,2.88,2.64
		c-0.55,0.96-1.46,0.53-2.25,0.6c-0.56,0.04-1.02-0.21-1.45-0.52c-1.6-1.5-3.1-3.08-4.17-5.03c-0.26-0.47-0.72-0.91-0.3-1.52
		c1.52,0.11,2.63,0.83,3.49,2.11C472.78,278.35,473.51,278.83,474.12,279.4z"/>
	<path style="fill-rule:evenodd;clip-rule:evenodd;fill:#898F72;" d="M468.84,275.57c0.85,1.97,2.11,3.66,3.62,5.17
		c0.33,0.33,0.63,0.7,0.94,1.05c-1.1,0.57-1.9,0.05-2.64-0.72c-1.64-1.86-3.23-3.75-3.84-6.24
		C467.64,274.88,468.24,275.22,468.84,275.57z"/>
	<path style="fill-rule:evenodd;clip-rule:evenodd;fill:#948F6A;" d="M470.76,281.08c0.88,0.24,1.76,0.48,2.64,0.72
		c0.4,0.16,0.8,0.32,1.2,0.48c1.22,0.66,2.61,1.09,3.36,2.4c-0.37,0.46-0.98,0.45-1.44,0.72c-1.45,0.34-2.62-0.15-3.6-1.2
		c-0.72-0.8-1.44-1.6-2.16-2.4C470.76,281.56,470.76,281.32,470.76,281.08z"/>
	<path style="fill-rule:evenodd;clip-rule:evenodd;fill:#A79965;" d="M472.92,284.2c1.2,0.4,2.4,0.8,3.6,1.2
		c1.04,0.72,2.08,1.44,3.12,2.16c-0.09,0.13-0.21,0.28-0.36,0.29c-1.9,0.21-3.75,0.14-5.4-1.01c-0.8-0.96-1.6-1.92-2.4-2.88
		C471.96,284.04,472.44,284.12,472.92,284.2z"/>
	<path style="fill-rule:evenodd;clip-rule:evenodd;fill:#4D4C4B;" d="M498.83,262.62c-0.08-0.08-0.17-0.17-0.25-0.25
		C498.67,262.45,498.75,262.53,498.83,262.62z"/>
	<path style="fill-rule:evenodd;clip-rule:evenodd;fill:#AB9B5A;" d="M501.19,314.46c-0.89-0.19-1.53,0.09-1.98,0.92
		c-0.42,0.76-0.93,1.49-1.43,2.2c-0.19,0.27-0.31,0.84-0.7,0.69c-0.42-0.16-0.24-0.72-0.15-1.06c0.27-1.12,0.58-2.23,0.93-3.33
		c0.53-1.64,0.95-3.25-0.39-4.73c-0.28-0.31-0.12-0.58,0.03-0.88c0.96-1.88,1.95-3.75,3.19-5.47c0.13-0.18,0.33-0.49,0.47-0.47
		c0.32,0.04,0.3,0.4,0.37,0.67c0.56,2.28,0.5,4.59,0.38,6.9c-0.05,0.95-0.14,1.91-0.21,2.86c-0.17,0.42-0.05,0.87-0.09,1.3
		C501.57,314.3,501.56,314.57,501.19,314.46z"/>
	<path style="fill-rule:evenodd;clip-rule:evenodd;fill:#D5A97D;" d="M493.91,313.68c0.16-0.4-0.04-0.68-0.31-0.94
		c-0.27-0.26-1.17-0.26-0.46-0.93c0.44-0.42,0.96-1.17,1.67-0.45c0.7,0.71,1.2,0.8,1.66-0.19c0.05-0.1,0.25-0.14,0.38-0.21
		c0.03,0.11,0.06,0.21,0.08,0.32c0.31,1.61-0.67,2.93-2.31,3.12C494.05,314.48,493.6,314.44,493.91,313.68z"/>
	<path style="fill-rule:evenodd;clip-rule:evenodd;fill:#D4A97E;" d="M491.4,313.54c-0.01,0.71-2.13,2.08-2.68,1.83
		c-0.03-0.01-0.07-0.04-0.09-0.07c-0.23-0.47,0.08-0.84,0.27-1.2c0.46-0.85,1.11-1.47,2.17-1.35
		C491.61,312.82,491.28,313.33,491.4,313.54z"/>
	<path style="fill-rule:evenodd;clip-rule:evenodd;fill:#C9A37D;" d="M492.13,316.45c-0.35,0.33,0.03,1.23-0.53,1.2
		c-0.45-0.03-1.17-0.69-1.2-1.12c-0.03-0.46,0.79-0.64,1.32-0.75C492.3,315.67,492.05,316.15,492.13,316.45z"/>
	<path style="fill-rule:evenodd;clip-rule:evenodd;fill:#E2E3E4;" d="M495.35,318.36c-0.14,0.75-0.51,1.27-1.16,1.59
		c-0.01,0.01-0.16-0.19-0.14-0.23c0.33-0.58,0.62-1.2,1.04-1.7C495.26,317.84,495.25,318.26,495.35,318.36z"/>
	<path style="fill-rule:evenodd;clip-rule:evenodd;fill:#A19877;" d="M501.19,314.46c0.56-0.45,0.04-1.22,0.49-1.7
		c0.01,0.5,0.04,1,0.02,1.49C501.69,314.64,501.5,314.73,501.19,314.46z"/>
	<path style="fill-rule:evenodd;clip-rule:evenodd;fill:#E0E1E2;" d="M498.17,319.72c0.14-0.32,0.29-0.64,0.43-0.96
		c0.06-0.14,0.13-0.14,0.2-0.01c-0.15,0.32-0.31,0.64-0.46,0.96C498.28,319.72,498.23,319.72,498.17,319.72z"/>
	<path style="fill-rule:evenodd;clip-rule:evenodd;fill:#B0B2B4;" d="M498.87,318.05c0.07-0.17,0.14-0.33,0.21-0.5
		c0.09-0.1,0.18-0.1,0.28,0c-0.09,0.16-0.18,0.32-0.27,0.48C499.02,318.17,498.95,318.17,498.87,318.05z"/>
	<path style="fill-rule:evenodd;clip-rule:evenodd;fill:#77787B;" d="M499.35,317.56c-0.09,0-0.18,0-0.28,0
		c0.12-0.11,0.31-0.33,0.34-0.31C499.59,317.36,499.49,317.47,499.35,317.56z"/>
	<path style="fill-rule:evenodd;clip-rule:evenodd;fill:#FEFEFE;" d="M498.87,318.05c0.07,0,0.15,0,0.22-0.01
		c-0.01,0.21-0.03,0.4-0.28,0.47c-0.05,0-0.09,0.01-0.14,0.01C498.74,318.36,498.8,318.21,498.87,318.05z"/>
	<path style="fill-rule:evenodd;clip-rule:evenodd;fill:#FEFEFE;" d="M498.67,318.52c0.05,0,0.09,0,0.14-0.01
		c0,0.08-0.01,0.16-0.01,0.24c-0.07,0-0.13,0-0.2,0.01C498.63,318.68,498.65,318.6,498.67,318.52z"/>
	<path style="fill-rule:evenodd;clip-rule:evenodd;fill:#EFEFF0;" d="M498.17,319.72c0.05,0,0.11,0,0.16-0.01
		c-0.01,0.08-0.02,0.16-0.03,0.24c-0.05,0-0.11,0-0.16,0.01C498.16,319.88,498.16,319.8,498.17,319.72z"/>
	<path style="fill-rule:evenodd;clip-rule:evenodd;fill:#231F20;" d="M509.83,312.96c-0.05-0.05-0.11-0.11-0.16-0.16
		C509.73,312.85,509.78,312.91,509.83,312.96z"/>
	<path style="fill-rule:evenodd;clip-rule:evenodd;fill:#CBA447;" d="M488.56,293.17c-1.74,1.23-3.65,2.13-5.53,3.12
		c-0.18-0.46-0.59-0.67-1-0.79c-1.97-0.58-3.38-2.06-5.04-3.13c1.02-1.05,2.41-1.14,3.73-1.41c0.76,0.1,1.49,0.27,2.22,0.52
		c1.26,0.42,2.53,0.67,3.87,0.72C487.5,292.2,488.41,292.1,488.56,293.17z"/>
	<path style="fill-rule:evenodd;clip-rule:evenodd;fill:#C4A954;" d="M480.6,291.16c-1.13,0.6-2.37,0.9-3.6,1.2
		c-1.04-0.24-2.08-0.48-3.12-0.72c-0.43-1.26-1.76-1.79-2.4-2.88c0.57-0.61,1.28-0.22,1.92-0.25c0.6-0.03,1.18,0.18,1.78,0.14
		c1.05,0.22,2.17,0.28,3.02,1.07c0.61,0.57,1.39,0.76,2.16,0.96C480.5,290.81,480.75,290.89,480.6,291.16z"/>
	<path style="fill-rule:evenodd;clip-rule:evenodd;fill:#CBA447;" d="M482.6,296.71c-0.1,0.08-0.21,0.16-0.31,0.23
		C482.4,296.86,482.5,296.78,482.6,296.71z"/>
	<path style="fill-rule:evenodd;clip-rule:evenodd;fill:#CBA447;" d="M482.3,296.93c-0.08,0.08-0.17,0.17-0.25,0.25
		C482.13,297.1,482.22,297.01,482.3,296.93z"/>
	<path style="fill-rule:evenodd;clip-rule:evenodd;fill:#CBA447;" d="M482.06,297.17c-0.08,0.1-0.16,0.21-0.24,0.31
		C481.9,297.38,481.98,297.27,482.06,297.17z"/>
	<path style="fill-rule:evenodd;clip-rule:evenodd;fill:#231F20;" d="M485.49,317.53c-0.08,0.01-0.17,0.02-0.26,0.03
		c0.01-0.06,0.02-0.12,0.04-0.19C485.34,317.42,485.41,317.47,485.49,317.53z"/>
	<path style="fill-rule:evenodd;clip-rule:evenodd;fill:#01B6E3;" d="M486.6,297.74c-0.39,0.62-0.84,1.22-1.15,1.88
		c-0.26,0.57-0.7,1.4-0.06,1.78c0.58,0.35,1.04-0.43,1.43-0.9c0.14-0.1,0.28-0.12,0.41,0.01c0.69,0.82,1.23,0.7,1.63-0.26
		c0.16-0.39,0.31-0.78,0.47-1.18c0.13-0.13,0.27-0.14,0.41-0.02c0.78,0.54,1.3,0.27,1.64-0.54c0.16-0.38,0.31-0.76,0.47-1.14
		c0.2-0.11,0.39-0.16,0.54,0.08c0.55,0.3,0.84,0.35,0.98-0.47c0.17-1,0.62-1.94,0.95-2.91c0.03-0.18,0.11-0.2,0.22-0.05
		c0.43,0.89,0.97,1.7,1.68,2.4c0.05,0.06,0.07,0.13,0.05,0.19c-0.02,0.06-0.04,0.09-0.06,0.09c-1.48,1.18-2.96,2.35-4.72,3.1
		c-0.44,0.25-0.95,0.38-1.29,0.8c-1.5,1.14-3.11,2.1-4.88,2.73c-0.41,0.15-0.93,0.2-1.37-0.09c-0.42-0.42-0.88-0.81-1.24-1.29
		c-1.44-2.29-1.08-3.73,0.9-4.91c1.92-1.15,3.89-2.19,5.85-3.28c0.42-0.03,0.42,0.18,0.28,0.48c-0.39,0.73-0.78,1.46-1.17,2.2
		c-0.1,0.07-0.23,0.1-0.32,0.02c-0.71-0.67-1.04-0.33-1.24,0.44C486.93,297.21,486.7,297.44,486.6,297.74z"/>
	<path style="fill-rule:evenodd;clip-rule:evenodd;fill:#F9E910;" d="M502.72,292.36c0.06,0,0.11,0.01,0.16,0.04
		c0.16,0.05,0.18,0.13,0.05,0.24c-1.32,1.54-3.03,2.44-4.93,3.05c-1.07,0.34-2.22-0.65-2.51-2.5c-0.27-0.48,0-1.04-0.2-1.54
		c-0.57-1.91,0.94-2.6,2.06-3.51c0.81-0.66,1.65-1.29,2.71-1.54c0.24,0,0.44,0.05,0.25,0.35c-0.42,2.03,0.09,3.75,1.67,5.13
		C502.14,292.36,502.51,292.14,502.72,292.36z"/>
	<path style="fill-rule:evenodd;clip-rule:evenodd;fill:#C69747;" d="M480.6,291.16c-0.08-0.16-0.16-0.32-0.24-0.48
		c1.54,0.04,3.04-0.28,4.56-0.48c2.33,0.75,4.7,0.27,7.06,0.27c-0.92,1.17-2.12,2-3.42,2.7c-0.46-0.46-1.08-0.57-1.64-0.54
		C484.66,292.74,482.66,291.87,480.6,291.16z"/>
	<path style="fill-rule:evenodd;clip-rule:evenodd;fill:#D7D7D1;" d="M502.23,287.08c0.42,0.16,0.67,0.26,0.37,0.85
		c-0.76,1.48-0.46,2.1,1.1,2.5c0.39,0.1,0.34,0.17,0.13,0.4c-0.73,0.81-1.67,0.69-2.1-0.3c-0.39-0.89-0.7-1.82-0.24-2.79
		C501.65,287.42,501.79,287.07,502.23,287.08z"/>
	<path style="fill-rule:evenodd;clip-rule:evenodd;fill:#1FB3DA;" d="M494,290.93c0.01,0.31,0.01,0.62,0.02,0.93l0.03-0.03
		c-0.16,0.02-0.32,0.04-0.48,0.07c-0.1,0.06-0.19,0.14-0.25,0.23l0.02-0.02c-0.08,0.08-0.17,0.08-0.26,0.03
		c-0.73-0.43-0.73-0.43,0.56-1.25C493.77,290.79,493.89,290.78,494,290.93z"/>
	<path style="fill-rule:evenodd;clip-rule:evenodd;fill:#0CB7E2;" d="M490.68,292.97c0.17-0.23,0.38-0.42,0.69-0.4
		c0.42-0.03,0.42,0.18,0.26,0.47c-0.12,0.25-0.25,0.5-0.37,0.75c-0.31,0.25-0.56,0.12-0.76-0.14
		C490.27,293.36,490.58,293.19,490.68,292.97z"/>
	<path style="fill-rule:evenodd;clip-rule:evenodd;fill:#2EB5D8;" d="M486.6,297.74c0.52-1.96,0.66-2.05,1.96-1.29
		c-0.01,0.04-0.03,0.07-0.04,0.11C487.17,295.79,487.26,297.38,486.6,297.74z"/>
	<path style="fill-rule:evenodd;clip-rule:evenodd;fill:#C7C3C4;" d="M503.52,289.22c-0.09-0.05-0.33,0.09-0.24-0.19
		c0.13-0.42,0.38-0.72,0.83-0.86c0.26-0.08,0.23,0.06,0.24,0.2C504.4,288.96,503.81,288.94,503.52,289.22z"/>
	<path style="fill-rule:evenodd;clip-rule:evenodd;fill:#2AB9DE;" d="M482.71,301.96c0.55,0.3,0.99,0.71,1.24,1.29
		C483.33,303.02,482.88,302.63,482.71,301.96z"/>
	<path style="fill-rule:evenodd;clip-rule:evenodd;fill:#48BADB;" d="M490.68,292.97c-0.23,0.57-0.02,0.84,0.58,0.82
		c-0.04,0.07-0.08,0.15-0.12,0.22c-0.14,0.17-0.31,0.16-0.49,0.06c-0.15-0.1-0.3-0.2-0.46-0.31c-0.15-0.14-0.15-0.3-0.04-0.47
		C490.34,293.19,490.51,293.08,490.68,292.97z"/>
	<path style="fill-rule:evenodd;clip-rule:evenodd;fill:#AFABAC;" d="M490.17,293.3c0.01,0.16,0.03,0.31,0.04,0.47
		c-0.16,0.16-0.31,0.32-0.47,0.48c-0.09-0.16-0.19-0.32-0.28-0.48C489.6,293.47,489.87,293.37,490.17,293.3z"/>
	<path style="fill-rule:evenodd;clip-rule:evenodd;fill:#2AB9DE;" d="M490.2,300.61c0.22-0.6,0.74-0.73,1.28-0.8
		C491.17,300.25,490.68,300.41,490.2,300.61z"/>
	<path style="fill-rule:evenodd;clip-rule:evenodd;fill:#F1E249;" d="M495.28,291.64c0.35,0.47,0.13,1.02,0.2,1.53
		C495.01,292.72,495.31,292.16,495.28,291.64z"/>
	<path style="fill-rule:evenodd;clip-rule:evenodd;fill:#C7C3C4;" d="M491.64,293.05c0-0.21,0-0.41-0.26-0.47
		c0.15-0.22,0.26-0.5,0.62-0.42C491.88,292.46,491.76,292.75,491.64,293.05z"/>
	<path style="fill-rule:evenodd;clip-rule:evenodd;fill:#B2ADAE;" d="M500.29,286.94c-0.08-0.12-0.16-0.23-0.25-0.35
		c0.15-0.2,0.44-0.35,0.56-0.19C500.8,286.66,500.46,286.79,500.29,286.94z"/>
	<path style="fill-rule:evenodd;clip-rule:evenodd;fill:#AAA6A6;" d="M490.66,294.08c0.16-0.02,0.33-0.04,0.49-0.06
		c-0.08,0.11-0.13,0.28-0.24,0.32C490.7,294.42,490.69,294.22,490.66,294.08z"/>
	<path style="fill-rule:evenodd;clip-rule:evenodd;fill:#C7C3C4;" d="M494.54,294.02c-0.07,0.02-0.15,0.04-0.22,0.05
		c0.02-0.22,0.03-0.45,0.05-0.67C494.42,293.61,494.48,293.81,494.54,294.02z"/>
	<path style="fill-rule:evenodd;clip-rule:evenodd;fill:#C7C3C4;" d="M489.74,299.06c-0.14,0-0.27,0.01-0.41,0.02
		c0.09-0.11,0.19-0.21,0.28-0.32C489.65,298.86,489.7,298.96,489.74,299.06z"/>
	<path style="fill-rule:evenodd;clip-rule:evenodd;fill:#AAA6A6;" d="M492.39,297.46c-0.18-0.03-0.36-0.05-0.54-0.08
		c0.04-0.14,0.09-0.28,0.13-0.42C492.11,297.13,492.25,297.29,492.39,297.46z"/>
	<path style="fill-rule:evenodd;clip-rule:evenodd;fill:#F1E249;" d="M502.72,292.36c-0.29-0.01-0.59,0.02-0.76-0.28
		C502.2,292.19,502.57,291.98,502.72,292.36z"/>
	<path style="fill-rule:evenodd;clip-rule:evenodd;fill:#C7C3C4;" d="M492.35,294.24c-0.03,0.07-0.05,0.13-0.08,0.2
		c-0.04-0.04-0.12-0.08-0.12-0.12c0-0.06,0.04-0.13,0.07-0.2C492.26,294.16,492.3,294.2,492.35,294.24z"/>
	<path style="fill-rule:evenodd;clip-rule:evenodd;fill:#C7C3C4;" d="M487.54,298.57c-0.22-0.02-0.22-0.16-0.18-0.32
		c0.01-0.03,0.06-0.05,0.09-0.08c0.03,0.14,0.06,0.27,0.08,0.41L487.54,298.57z"/>
	<path style="fill-rule:evenodd;clip-rule:evenodd;fill:#C7C3C4;" d="M494.02,291.87c0.07,0.06,0.15,0.12,0.22,0.18
		c-0.04,0.04-0.08,0.07-0.12,0.1c-0.03-0.1-0.05-0.21-0.08-0.31L494.02,291.87z"/>
	<path style="fill-rule:evenodd;clip-rule:evenodd;fill:#C7C3C4;" d="M494,290.93c-0.12-0.01-0.24-0.03-0.37-0.04
		C493.78,290.72,493.93,290.48,494,290.93z"/>
	<path style="fill-rule:evenodd;clip-rule:evenodd;fill:#C7C3C4;" d="M487.23,300.52c-0.14,0-0.27-0.01-0.41-0.01
		C486.97,300.18,487.1,300.27,487.23,300.52z"/>
	<path style="fill-rule:evenodd;clip-rule:evenodd;fill:#C7C3C4;" d="M489.95,296.24c-0.05,0.04-0.09,0.08-0.14,0.12
		c-0.02-0.07-0.07-0.13-0.07-0.2c0-0.04,0.08-0.08,0.13-0.12C489.9,296.11,489.92,296.18,489.95,296.24z"/>
	<path style="fill-rule:evenodd;clip-rule:evenodd;fill:#C7C3C4;" d="M493.32,292.14c0.08-0.08,0.17-0.15,0.25-0.23
		C493.49,291.99,493.4,292.06,493.32,292.14z"/>
	<path style="fill-rule:evenodd;clip-rule:evenodd;fill:#C7C3C4;" d="M496.21,296.7c0-0.09,0-0.19,0-0.28
		c0.06,0.06,0.12,0.12,0.17,0.18C496.33,296.63,496.27,296.67,496.21,296.7z"/>
	<path style="fill-rule:evenodd;clip-rule:evenodd;fill:#C7C3C4;" d="M502.93,292.63c-0.02-0.08-0.03-0.16-0.05-0.24
		c0.09-0.01,0.18-0.01,0.27-0.02l-0.01-0.01C503.07,292.46,503,292.54,502.93,292.63z"/>
	<path style="fill-rule:evenodd;clip-rule:evenodd;fill:#C7C3C4;" d="M490.38,297.49c0,0.02,0.01,0.06,0,0.07
		c-0.01,0.02-0.05,0.02-0.07,0.04c0-0.05,0-0.1,0-0.15C490.33,297.46,490.35,297.47,490.38,297.49z"/>
	<path style="fill-rule:evenodd;clip-rule:evenodd;fill:#6F6A6A;" d="M503.15,292.38c0.03-0.06,0.06-0.11,0.09-0.17
		c0.15,0.17-0.05,0.12-0.1,0.16L503.15,292.38z"/>
	<path style="fill-rule:evenodd;clip-rule:evenodd;fill:#363031;" d="M487.53,298.58c0.03,0.01,0.07,0.03,0.1,0.04
		c-0.03-0.02-0.06-0.04-0.09-0.06L487.53,298.58z"/>
	<path style="fill-rule:evenodd;clip-rule:evenodd;fill:#C7C3C4;" d="M487.94,299.28c-0.03-0.02-0.05-0.03-0.08-0.04
		c0.03-0.04,0.05-0.08,0.08-0.11c0.02,0.03,0.07,0.05,0.07,0.08C488.01,299.23,487.96,299.26,487.94,299.28z"/>
	<path style="fill-rule:evenodd;clip-rule:evenodd;fill:#C7C3C4;" d="M493.08,292.15c0.09-0.01,0.17-0.02,0.26-0.03
		c-0.05,0.06-0.11,0.12-0.16,0.18C493.14,292.25,493.11,292.2,493.08,292.15z"/>
	<path style="fill-rule:evenodd;clip-rule:evenodd;fill:#CFB74F;" d="M456.39,292.13c-0.09,0.06-0.18,0.13-0.27,0.19
		C456.21,292.26,456.3,292.19,456.39,292.13z"/>
	<path style="fill-rule:evenodd;clip-rule:evenodd;fill:#B9AC63;" d="M475.32,289c-1.29,0.05-2.57-0.02-3.84-0.24
		c-0.64-0.4-1.28-0.8-1.92-1.2c-0.6-0.78-1.29-1.48-1.68-2.4c0.64,0.08,1.28,0.16,1.92,0.24c1.12,0.48,2.24,0.96,3.36,1.44
		C474.23,287.21,475.14,287.74,475.32,289z"/>
	<path style="fill-rule:evenodd;clip-rule:evenodd;fill:#E22225;" d="M466.13,311.81c-1.42-2.06-2.84-4.13-4.27-6.19
		c-0.16-0.4-0.48-0.69-0.74-1.01l0.01,0.02c-0.19-0.37-0.48-0.66-0.74-0.98c-0.63-0.48-0.96-0.78,0.21-1.02
		c1.19-0.24,2.3-0.81,3.3-1.53c0.21-0.04,0.36,0.04,0.49,0.2c0.28,0.96-0.02,1.93,0.11,2.89c0.02,0.15,0.03,0.31,0.04,0.47
		c0.03,0.16,0.06,0.32,0.12,0.46c0.05,0.05,0.11,0.09,0.19,0.11c0.08-0.01,0.16-0.02,0.23-0.05c0.13-0.06,0.25-0.12,0.38-0.16
		c0.17-0.03,0.3,0.02,0.42,0.15c0.18,0.28,0.23,0.62,0.36,0.92c0.07,0.32,0.05,0.65,0.13,0.97c0.02,0.2,0.05,0.41,0.08,0.61
		c0.03,0.17,0.06,0.35,0.09,0.52c0.02,0.05,0.05,0.12,0.08,0.17c0.05,0.02,0.11,0.03,0.17-0.01c0.05-0.06,0.1-0.11,0.15-0.17
		c0.25-0.31,0.38-0.72,0.84-0.79c0.12,0.02,0.22,0.06,0.31,0.13c0.67,0.78,0.39,1.79,0.67,2.65c0.03,0.14,0.05,0.29,0.07,0.42
		c0.03,0.11,0.08,0.21,0.18,0.28c0.08,0.02,0.15,0.03,0.24,0.01c0.74-0.2,0.83,0.33,0.94,0.81c0.04,0.2,0.08,0.41,0.13,0.6
		c0.03,0.1,0.05,0.22,0.12,0.3c0.06-0.02,0.1-0.05,0.13-0.13c0.31-1.09,0.22-2.18,0.16-3.26c-0.03-0.16-0.05-0.32-0.07-0.48
		c-0.13-0.66-0.23-1.33-0.63-1.9c-0.15-0.12-0.34-0.17-0.53-0.19c-1.03-0.35-0.65-1.32-0.89-2.02c-0.06-0.16-0.09-0.32-0.14-0.48
		c-0.08-0.22-0.15-0.62-0.32-0.59c-1.53,0.27-1.32-1.09-1.76-1.82c-0.09-0.11-0.2-0.21-0.34-0.27c-0.58-0.1-1.24-0.01-1.54-0.71
		c0.48-0.7,0.97-1.4,1.45-2.1c0.05-0.17,0.13-0.18,0.24-0.05c0.7,0.69,1.26,1.48,1.68,2.37c0.37,0.6,0.74,1.21,1.22,1.73
		c1.11,1.33,2.09,2.74,2.86,4.3c0.27,0.39,0.39,0.88,0.74,1.22l-0.02-0.02c0.37,0.54,0.53,1.21,0.98,1.7
		c0.68,0.96,1.23,1.99,1.53,3.13c-0.93,0.91-1.85,1.83-2.76,2.76c-0.4,0.39-0.81,0.75-1.39,0.85c-1.46,0.54-1.96-0.74-2.77-1.44
		c-0.61-0.62-1.09-1.31-1.39-2.14C466.63,312.64,466.53,312.13,466.13,311.81z"/>
	<path style="fill-rule:evenodd;clip-rule:evenodd;fill:#00B6E3;" d="M456.36,296.72c1.88-1.05,3.99-1.78,5.28-3.68
		c0.08-0.05,0.16-0.05,0.24,0c1.28,1.22,2.69,2.3,3.18,4.17c0.2,0.77,0.02,1.31-0.38,1.81c-1.22,1.49-2.87,2.26-4.71,2.68
		c-0.45,0.1-0.96-0.01-1.17-0.38c-0.79-1.49-1.9-2.79-2.48-4.4C456.27,296.84,456.28,296.77,456.36,296.72z"/>
	<path style="fill-rule:evenodd;clip-rule:evenodd;fill:#242020;" d="M470.33,306.29c0.36,0.75,0.63,1.54,0.69,2.38
		c0.06,0.09,0.13,0.18,0.18,0.28c-0.04,1.44,0.33,2.92-0.48,4.28c-0.06,0.09-0.12,0.18-0.18,0.27c-0.48,0.01-0.48,0.01-0.53-1.2
		c-0.12-0.15-0.08-0.35-0.19-0.5c0.1-1.62-0.76,0.26-0.97-0.26c-0.1-0.05-0.18-0.12-0.23-0.23c-0.02-0.15-0.04-0.3-0.07-0.45
		c-0.06-0.09-0.12-0.18-0.18-0.27c-0.17-1.02-0.33-2.03-0.5-3.05c-0.06-0.1-0.14-0.12-0.23-0.03c-0.11,0.48-0.29,0.93-0.73,1.21
		c-0.09,0.06-0.18,0.12-0.27,0.18l-0.1,0.01l-0.1-0.02c-0.1-0.05-0.18-0.12-0.23-0.23c-0.02-0.31-0.04-0.62-0.05-0.93
		c-0.13-0.14-0.08-0.36-0.2-0.5c-0.01-0.39-0.01-0.79-0.02-1.18c-0.27-0.25,0.05-0.67-0.25-0.91c-0.09,0.06-0.17,0.11-0.26,0.17
		c-0.05,0.12-0.14,0.19-0.25,0.24c-0.22,0.07-0.43,0.15-0.65,0.22c-0.1-0.05-0.18-0.12-0.23-0.23c-0.02-0.22-0.04-0.44-0.06-0.65
		c-0.05-0.11-0.13-0.2-0.18-0.3c-0.01-1.11-0.16-2.23,0.16-3.32c-0.06-0.08-0.05-0.16,0.01-0.24c0.09-0.09,0.18-0.19,0.27-0.28
		c0.55,0.59,1.27,0.02,1.87,0.29c0.14,0.07,0.24,0.18,0.3,0.32c0.15,0.4,0.32,0.79,0.45,1.2c0.08,0.25,0.08,0.72,0.18,0.74
		c0.44,0.07,0.23-0.38,0.36-0.58c0.27-0.43,0.49-0.05,0.63,0.11c0.32,0.35,0.56,0.77,0.54,1.27c0.05,0.11,0.13,0.2,0.19,0.3
		c0.07,0.59,0.13,1.18,0.22,1.76c0.07,0.42,0.31,0.21,0.51,0.1C469.97,306.15,470.16,306.14,470.33,306.29z"/>
	<path style="fill-rule:evenodd;clip-rule:evenodd;fill:#DB4232;" d="M472.45,315.76c0.72-1.12,1.64-2.04,2.76-2.76
		C474.47,314.11,473.55,315.03,472.45,315.76z"/>
	<path style="fill-rule:evenodd;clip-rule:evenodd;fill:#D94333;" d="M468.3,315.17c0.94,0.44,1.41,1.79,2.77,1.44
		C469.5,317.36,468.94,316.17,468.3,315.17z"/>
	<path style="fill-rule:evenodd;clip-rule:evenodd;fill:#D44636;" d="M469.12,302.67c-0.68-0.39-1.05-0.99-1.22-1.73
		C468.49,301.38,468.83,302,469.12,302.67z"/>
	<path style="fill-rule:evenodd;clip-rule:evenodd;fill:#D94333;" d="M473.68,309.87c-0.65-0.38-0.83-1.03-0.98-1.7
		C473.26,308.6,473.46,309.24,473.68,309.87z"/>
	<path style="fill-rule:evenodd;clip-rule:evenodd;fill:#D44636;" d="M472.71,308.19c-0.51-0.25-0.67-0.71-0.74-1.22
		C472.41,307.26,472.6,307.7,472.71,308.19z"/>
	<path style="fill-rule:evenodd;clip-rule:evenodd;fill:#D44636;" d="M466.13,311.81c0.55,0.22,0.7,0.7,0.77,1.22
		C466.46,312.74,466.29,312.28,466.13,311.81z"/>
	<path style="fill-rule:evenodd;clip-rule:evenodd;fill:#D44636;" d="M461.13,304.61c0.43,0.2,0.73,0.5,0.74,1.01
		C461.52,305.36,461.19,305.08,461.13,304.61z"/>
	<path style="fill-rule:evenodd;clip-rule:evenodd;fill:#B9B5B6;" d="M458.02,293.46c-0.08-0.19-0.17-0.31-0.14-0.34
		c0.14-0.17,0.31-0.33,0.47-0.48c0.05,0.08,0.17,0.21,0.15,0.24C458.38,293.06,458.23,293.22,458.02,293.46z"/>
	<path style="fill-rule:evenodd;clip-rule:evenodd;fill:#D44636;" d="M460.4,303.65c0.42,0.19,0.72,0.48,0.74,0.98
		C460.77,304.39,460.47,304.11,460.4,303.65z"/>
	<path style="fill-rule:evenodd;clip-rule:evenodd;fill:#9C9798;" d="M457.56,294.73c0.05-0.29,0.27-0.23,0.46-0.22
		c0.1-0.09,0.19-0.09,0.28,0.01c-0.25,0.14-0.5,0.28-0.75,0.42c-0.04-0.05-0.06-0.1-0.04-0.14
		C457.52,294.75,457.54,294.73,457.56,294.73z"/>
	<path style="fill-rule:evenodd;clip-rule:evenodd;fill:#C7C3C4;" d="M466.22,298.57c-0.08,0.02-0.16,0.04-0.24,0.05
		c0.03-0.11,0.05-0.21,0.08-0.32C466.11,298.39,466.16,298.48,466.22,298.57z"/>
	<path style="fill-rule:evenodd;clip-rule:evenodd;fill:#C7C3C4;" d="M458.47,294.24c0.14-0.23,0.35-0.23,0.57-0.15l-0.03-0.03
		c-0.13,0.28-0.33,0.29-0.58,0.15L458.47,294.24z"/>
	<path style="fill-rule:evenodd;clip-rule:evenodd;fill:#C7C3C4;" d="M458.29,294.53c-0.09,0-0.19-0.01-0.28-0.01
		c0.16-0.09,0.31-0.18,0.46-0.27c0,0-0.03-0.03-0.04-0.03C458.59,294.4,458.47,294.48,458.29,294.53z"/>
	<path style="fill-rule:evenodd;clip-rule:evenodd;fill:#C7C3C4;" d="M459.04,294.09c0.01-0.07,0.01-0.14,0.02-0.21
		c0.04,0.02,0.08,0.04,0.13,0.06c-0.06,0.04-0.12,0.08-0.18,0.12C459.01,294.06,459.04,294.09,459.04,294.09z"/>
	<path style="fill-rule:evenodd;clip-rule:evenodd;fill:#C7C3C4;" d="M457.56,294.73c-0.03,0.07-0.03,0.14-0.01,0.21
		c-0.06-0.01-0.11-0.03-0.17-0.04C457.44,294.85,457.5,294.79,457.56,294.73z"/>
	<path style="fill-rule:evenodd;clip-rule:evenodd;fill:#C7C3C4;" d="M461.88,293.04c-0.08,0-0.16,0-0.24,0
		c0.04-0.06,0.08-0.12,0.12-0.18C461.8,292.92,461.84,292.98,461.88,293.04z"/>
	<path style="fill-rule:evenodd;clip-rule:evenodd;fill:#C7C3C4;" d="M456.36,296.72c0,0.07-0.02,0.13-0.04,0.2
		c-0.06-0.05-0.11-0.09-0.17-0.14C456.22,296.76,456.29,296.74,456.36,296.72z"/>
	<path style="fill-rule:evenodd;clip-rule:evenodd;fill:#C7C3C4;" d="M464.25,301.01c0,0.08-0.01,0.16-0.01,0.24
		c-0.11-0.05-0.21-0.1-0.32-0.15C464.03,301.07,464.14,301.04,464.25,301.01z"/>
	<path style="fill-rule:evenodd;clip-rule:evenodd;fill:#E0E1E2;" d="M486.76,320.64c-0.03-0.01-0.05-0.03-0.08-0.04
		c0.03-0.04,0.05-0.09,0.08-0.13c0.03,0.03,0.08,0.06,0.08,0.09C486.83,320.58,486.78,320.61,486.76,320.64z"/>
	<path style="fill-rule:evenodd;clip-rule:evenodd;fill:#ABACAE;" d="M466.99,259.98c-0.29-0.04-0.72,0.11-0.79-0.29
		c-0.06-0.35,0.32-0.22,0.51-0.22c0.3,0,0.73-0.08,0.8,0.29C467.57,260.07,467.18,259.93,466.99,259.98z"/>
	<path style="fill-rule:evenodd;clip-rule:evenodd;fill:#302E2E;" d="M496.53,269.33c-0.44,0.13-0.87,0.41-1.1,0.08
		c-0.28-0.38,0.38-0.56,0.42-0.86c0.12-0.86,0.58-1.78,0.07-2.59c-0.62-0.98,0.26-1.14,0.7-1.52c0.17-0.14,0.63-0.08,0.53,0.35
		c-0.38,1.68-0.44,3.27,0.77,4.71c0.22,0.26-0.24,0.28-0.42,0.23C497.13,269.64,496.89,269.18,496.53,269.33z"/>
	<path style="fill-rule:evenodd;clip-rule:evenodd;fill:#2C292A;" d="M498.75,265.89c-0.03,0.07-0.05,0.16-0.09,0.18
		c-0.05,0.02-0.16-0.03-0.17-0.08c-0.02-0.04,0.03-0.16,0.08-0.17C498.6,265.81,498.68,265.86,498.75,265.89z"/>
	<path style="fill-rule:evenodd;clip-rule:evenodd;fill:#282425;" d="M497.54,266.25c-0.02-0.01-0.07-0.02-0.07-0.03
		c0-0.03,0.02-0.06,0.03-0.09c0.02,0.01,0.07,0.02,0.07,0.03C497.57,266.19,497.55,266.22,497.54,266.25z"/>
	<path style="fill-rule:evenodd;clip-rule:evenodd;fill:#6D6D6F;" d="M499.67,265.1c-0.05,0.04-0.09,0.1-0.13,0.1
		c-0.05,0-0.1-0.06-0.14-0.09c0.03-0.02,0.05-0.07,0.08-0.07C499.53,265.04,499.6,265.07,499.67,265.1z"/>
	<path style="fill-rule:evenodd;clip-rule:evenodd;fill:#B49C5C;" d="M475.32,289c-0.72-0.72-1.44-1.44-2.16-2.16
		c0.24,0,0.48,0,0.72,0c1.92,0.26,3.79,0.85,5.75,0.72c0.16,0,0.32,0,0.48,0.01c-0.41,0.92-1.14,1.56-1.92,2.15
		C477.19,289.69,476.25,289.38,475.32,289z"/>
	<path style="fill-rule:evenodd;clip-rule:evenodd;fill:#8D8261;" d="M477.96,284.68c-1.16-0.74-2.44-1.31-3.36-2.4
		c0.81,0.02,1.62,0.03,2.4-0.24c1.73,0.54,3.46,1.08,5.28,1.2c-0.08,0.56-0.16,1.12-0.24,1.68
		C480.68,284.85,479.3,285.11,477.96,284.68z"/>
	<path style="fill-rule:evenodd;clip-rule:evenodd;fill:#8C6255;" d="M465.7,305.13c0.35,0.23,0.25,0.58,0.25,0.91
		C465.66,305.8,465.72,305.45,465.7,305.13z"/>
	<path style="fill-rule:evenodd;clip-rule:evenodd;fill:#A96855;" d="M470.33,306.29c-0.18-0.02-0.37-0.03-0.55-0.05
		C469.99,305.98,470.16,306.11,470.33,306.29z"/>
	<path style="fill-rule:evenodd;clip-rule:evenodd;fill:#A96855;" d="M465.98,307.22c0.07,0.17,0.14,0.33,0.2,0.5
		C466.12,307.56,466.05,307.39,465.98,307.22z"/>
	<path style="fill-rule:evenodd;clip-rule:evenodd;fill:#996D5D;" d="M469.83,311.79c0.06,0.17,0.13,0.34,0.19,0.5
		C469.96,312.12,469.89,311.96,469.83,311.79z"/>
	<path style="fill-rule:evenodd;clip-rule:evenodd;fill:#85695D;" d="M469.04,304.38c-0.06-0.1-0.12-0.2-0.19-0.3
		C468.92,304.18,468.98,304.28,469.04,304.38z"/>
	<path style="fill-rule:evenodd;clip-rule:evenodd;fill:#85695D;" d="M464.08,304.58c0.06,0.1,0.12,0.2,0.18,0.3
		C464.2,304.78,464.14,304.68,464.08,304.58z"/>
	<path style="fill-rule:evenodd;clip-rule:evenodd;fill:#AD725E;" d="M465.19,305.54c0.08-0.08,0.17-0.16,0.25-0.24
		C465.36,305.38,465.28,305.46,465.19,305.54z"/>
	<path style="fill-rule:evenodd;clip-rule:evenodd;fill:#85695D;" d="M464.32,305.54c0.08,0.08,0.15,0.15,0.23,0.23
		C464.47,305.69,464.39,305.61,464.32,305.54z"/>
	<path style="fill-rule:evenodd;clip-rule:evenodd;fill:#85695D;" d="M467.66,307.5c0.12-0.28,0.17-0.13,0.23,0.03
		C467.82,307.5,467.74,307.49,467.66,307.5z"/>
	<path style="fill-rule:evenodd;clip-rule:evenodd;fill:#85695D;" d="M466.24,308.66c0.08,0.08,0.15,0.15,0.23,0.23
		C466.39,308.81,466.31,308.73,466.24,308.66z"/>
	<path style="fill-rule:evenodd;clip-rule:evenodd;fill:#AD725E;" d="M466.66,308.89c0.09-0.06,0.18-0.12,0.27-0.18
		C466.84,308.77,466.75,308.83,466.66,308.89z"/>
	<path style="fill-rule:evenodd;clip-rule:evenodd;fill:#85695D;" d="M471.2,308.94c-0.06-0.09-0.12-0.18-0.18-0.28
		C471.08,308.76,471.14,308.85,471.2,308.94z"/>
	<path style="fill-rule:evenodd;clip-rule:evenodd;fill:#AD725E;" d="M468.39,310.58c0.06,0.09,0.12,0.18,0.18,0.27
		C468.51,310.76,468.45,310.67,468.39,310.58z"/>
	<path style="fill-rule:evenodd;clip-rule:evenodd;fill:#85695D;" d="M468.64,311.3c0.08,0.08,0.15,0.15,0.23,0.23
		C468.79,311.45,468.71,311.37,468.64,311.3z"/>
	<path style="fill-rule:evenodd;clip-rule:evenodd;fill:#AD725E;" d="M470.55,313.49c0.06-0.09,0.12-0.18,0.18-0.27
		C470.67,313.31,470.61,313.4,470.55,313.49z"/>
	<path style="fill-rule:evenodd;clip-rule:evenodd;fill:#AD725E;" d="M466.69,301.34c-0.1-0.11-0.2-0.22-0.29-0.32
		C466.49,301.13,466.59,301.23,466.69,301.34z"/>
	<path style="fill-rule:evenodd;clip-rule:evenodd;fill:#DFCA24;" d="M467.18,305.27c0.32,0.46,0.85-1.25,1.04,0.04
		c0.1,0.7-0.67,1.15-1.19,1.41c-0.28,0.14-0.44-0.61-0.49-1.01C466.5,305.29,466.53,304.83,467.18,305.27z"/>
	<path style="fill-rule:evenodd;clip-rule:evenodd;fill:#F5F5F5;" d="M469.68,308.78c-0.42-0.3,0.02-0.47,0.12-0.68
		c0.01-0.01,0.2,0.02,0.22,0.07C470.12,308.48,469.98,308.68,469.68,308.78L469.68,308.78z"/>
	<path style="fill-rule:evenodd;clip-rule:evenodd;fill:#FEFEFE;" d="M466,303.38c0.02-0.11,0.05-0.22,0.07-0.33
		c0.08,0.08,0.16,0.16,0.25,0.25c-0.11,0.02-0.22,0.05-0.33,0.07L466,303.38z"/>
	<path style="fill-rule:evenodd;clip-rule:evenodd;fill:#C3C4C6;" d="M469.32,308.94c-0.04,0.13-0.09,0.26-0.13,0.4
		c-0.04-0.06-0.1-0.11-0.11-0.17c-0.05-0.22,0.07-0.36,0.26-0.45c0.05,0.05,0.07,0.1,0.05,0.15
		C469.36,308.92,469.34,308.94,469.32,308.94z"/>
	<path style="fill-rule:evenodd;clip-rule:evenodd;fill:#5C5D5F;" d="M465.98,303.36c-0.03,0.03-0.06,0.07-0.09,0.1
		c0-0.02,0-0.06,0.02-0.07c0.02-0.02,0.06-0.02,0.09-0.02L465.98,303.36z"/>
	<path style="fill-rule:evenodd;clip-rule:evenodd;fill:#A1A3A6;" d="M465.12,304.06c-0.02-0.03-0.06-0.05-0.06-0.08
		s0.04-0.05,0.07-0.07c0.02,0.03,0.06,0.05,0.06,0.08C465.18,304.01,465.14,304.03,465.12,304.06z"/>
	<path style="fill-rule:evenodd;clip-rule:evenodd;fill:#FEFEFE;" d="M469.32,308.94c0.05-0.07,0.05-0.15,0.01-0.22
		c0.14-0.12,0.25-0.1,0.34,0.06c0,0-0.01-0.02-0.01-0.01C469.55,308.83,469.44,308.89,469.32,308.94z"/>
</g>
</svg>
