<?xml version="1.0" encoding="utf-8"?>
<!-- Generator: Adobe Illustrator 16.0.0, SVG Export Plug-In . SVG Version: 6.00 Build 0)  -->
<!DOCTYPE svg PUBLIC "-//W3C//DTD SVG 1.0//EN" "http://www.w3.org/TR/2001/REC-SVG-20010904/DTD/svg10.dtd" [
	<!ENTITY ns_flows "http://ns.adobe.com/Flows/1.0/">
	<!ENTITY ns_extend "http://ns.adobe.com/Extensibility/1.0/">
	<!ENTITY ns_ai "http://ns.adobe.com/AdobeIllustrator/10.0/">
	<!ENTITY ns_graphs "http://ns.adobe.com/Graphs/1.0/">
]>
<svg version="1.0" id="Layer_1" xmlns:x="&ns_extend;" xmlns:i="&ns_ai;" xmlns:graph="&ns_graphs;"
	 xmlns="http://www.w3.org/2000/svg" xmlns:xlink="http://www.w3.org/1999/xlink" xmlns:a="http://ns.adobe.com/AdobeSVGViewerExtensions/3.0/"
	 x="0px" y="0px" width="960px" height="560px" viewBox="0 0 960 560" style="enable-background:new 0 0 960 560;"
	 xml:space="preserve">
<g>
	<path style="fill-rule:evenodd;clip-rule:evenodd;fill:#8FC252;" d="M485.96,255.24c10.16,0,20.32,0,30.48,0
		c1.48,1.69,3.39,2.72,5.45,3.51c0.37,0.14,0.75,0.26,1.03,0.57c0,5.28,0,10.56,0,15.84c-0.32,0.32-0.71,0.49-1.15,0.6
		c-3.47,0.88-6.94,1.81-10.52,2.1c-1.67,0.14-3.35,0.05-5.02,0.15c-0.33-0.02-0.59-0.2-0.8-0.46c-0.74-0.95-1.64-1.74-2.49-2.59
		c-0.6-0.6-1.06-1.25-1.37-2.06c-0.42-1.09-1.04-2.09-2.46-2.09c-0.36,0-0.68-0.22-0.97-0.44c-1.13-0.84-2.28-0.76-3.49-0.17
		c-1.17,0.57-2.1,1.43-3.08,2.25c-1.12,0.94-1.54,1.3-2.49-0.07c-0.53-0.76-1.49-1.03-2.39-1.26c-0.12-0.03-0.24-0.07-0.35-0.13
		c-0.29-0.17-0.51-0.38-0.54-0.74c0-2.2,0.25-4.35,1.12-6.41c0.52-1.24,0.7-2.61,0.94-3.94c0.23-1.33-0.49-2.36-1.24-3.36
		C486.33,256.15,485.81,255.87,485.96,255.24z"/>
	<path style="fill-rule:evenodd;clip-rule:evenodd;" d="M505.93,277.75c3.64-0.23,7.31-0.17,10.88-1.08
		c2.03-0.52,4.07-1.01,6.11-1.51c0,0.24,0,0.48,0,0.72c-0.4,0.45-0.96,0.52-1.5,0.67c-4.33,1.15-8.73,1.92-13.19,2.29
		c-1.01,0.09-1.48,0.43-1.54,1.51c-0.08,1.54-0.89,2.7-2.23,3.48c-2.5,1.18-5.14,1.28-7.83,1.08c-0.08-0.01-0.23-0.16-0.26,0.07
		c0.08-0.1,0.19-0.08,0.29-0.06c1.31,0.23,2.63,0.08,3.92-0.06c1.7-0.18,3.41-0.17,5.11-0.4c5.3-0.29,10.54-1.22,15.83-1.56
		c0.47-0.03,0.96-0.15,1.39,0.18c0,0.4,0,0.8,0,1.2c-1.07,0.69-2.32,0.49-3.48,0.6c-4.16,0.38-8.32,0.86-12.49,1.08
		c-0.92,0.05-1.83-0.06-2.73,0c-0.59,0.02-1.19-0.04-1.78,0.04c-0.22,0.08-0.46,0.07-0.69,0.08c-0.08,0-0.15,0-0.23-0.01
		c0.12,0.03,0.25,0,0.38,0.01c0.49-0.03,0.97-0.17,1.47-0.12c0.36,0,0.72,0.02,1.08,0c0.87-0.05,1.49,0.03,1.27,1.23
		c-0.14,0.77,0.56,0.82,1.15,0.81c3.95-0.05,7.9-0.03,11.85-0.01c1.42,0.01,2.87-0.05,4.2,0.62c0,0.16,0,0.32,0,0.48
		c-0.49,0.45-1.11,0.38-1.7,0.38c-2.75,0.01-5.49-0.01-8.24,0.01c-1.71,0.01-3.41,0.27-5.12,0.33c-0.12,0-0.34-0.09-0.36,0.13
		c-0.01,0.1,0.17,0.13,0.27,0.19c0.72,0.46,1.41,0.93,1.38,1.92c-0.34,0.65-0.94,0.65-1.55,0.61c-0.44-0.03-0.86-0.18-1.28-0.29
		c-1.65-0.44-1.85-0.27-1.63,1.45c0.05,0.36,0.07,0.72-0.14,1.04c-0.6,0.49-1.19,0.25-1.78-0.03c-1.39-0.67-1.39-0.67-1.65,0.91
		c-0.02,0.12-0.05,0.23-0.1,0.35c-0.67,0.72-1.11,0.75-1.71,0.09c-0.27-0.29-0.45-0.65-0.58-1.01c-0.34-1.25-0.13-2.72-1.78-3.35
		c-1.27-0.48-2.47-1.1-3.88-0.71c-0.17,0.02-0.35,0.03-0.53,0.03c-0.24,0-0.46,0.08-0.69,0.13c-0.24,0.06-0.48,0.08-0.72,0.09
		c-1.17,0.08-2.32,0.32-3.48,0.46c-0.17,0.01-0.35,0.02-0.52,0.03c-0.22,0.01-0.44,0.03-0.65,0.09c-0.2,0.05-0.41,0.08-0.62,0.11
		c-0.2,0.03-0.4,0.06-0.59,0.12c-0.19,0.05-0.38,0.09-0.58,0.13c-0.14,0.04-0.29,0.08-0.43,0.12c-0.2,0.05-0.39,0.1-0.59,0.15
		c-0.15,0.05-0.3,0.09-0.45,0.14c-0.1,0.04-0.21,0.07-0.32,0.09c-1.04,0.25-2.09,0.49-3.11,0.83c-0.48,0.13-0.97,0.23-1.46,0.35
		c-0.15,0.04-0.31,0.08-0.47,0.11c-0.2,0.05-0.4,0.09-0.61,0.13c-0.15,0.04-0.3,0.08-0.45,0.12c-0.21,0.06-0.41,0.11-0.62,0.16
		c-0.11,0.04-0.21,0.07-0.32,0.1c-0.11,0.04-0.22,0.06-0.34,0.09c-1.71,0.33-3.42,0.69-5.13,1.01c-0.17,0.04-0.35,0.07-0.52,0.11
		c-0.29,0.07-0.58,0.1-0.87,0.13c-5.24,0.82-9.48,3.5-13.35,6.97c-1.06,0.95-2.02,2.05-3.38,2.61c-0.47,0.02-0.95,0.01-1.42,0
		c-0.49-0.28-0.15-0.57,0.05-0.73c2.3-1.79,4.29-3.94,6.7-5.59c0.72-0.86,1.66-1.44,2.55-2.09c0.14-0.09,0.29-0.18,0.43-0.26
		c0.1-0.06,0.2-0.11,0.3-0.16c0.89-0.44,1.78-0.87,2.71-1.21c2.93-1.03,5.98-1.49,9.02-1.97c3.17-0.68,6.24-1.71,9.41-2.37
		c0.24-0.01,0.47-0.1,0.7-0.15c0.28-0.06,0.57-0.11,0.85-0.21c0.17-0.05,0.35-0.08,0.53-0.1c0.24-0.02,0.49-0.03,0.72-0.12
		c2.17-0.32,4.31-0.93,6.52-0.89c0.13-0.04,0.27,0.08,0.41,0c-0.09-0.04-0.18,0.02-0.28,0c-0.86-0.04-1.69-0.21-2.51-0.46
		c-0.58-0.05-1.13-0.28-1.71-0.28c-0.34-0.03-0.66-0.17-1-0.2c-0.23,0.01-0.44,0.12-0.66,0.2c-0.92,0.41-1.9,0.55-2.88,0.72
		c-0.59,0-1.18,0.05-1.76,0.04c-0.79-0.02-1.57-0.17-2.35-0.29c-0.84-0.24-1.72-0.33-2.57-0.53c-1.82-0.75-3.56-1.13-4.8,1.01
		c-0.16,0.28-0.55,0.44-0.83,0.68c-1.77,1.14-3.63,1.95-5.79,1.75c-1.09-0.1-1.85,0.58-2.68,1.1c-1.18,0.7-2.47,1.08-3.78,1.42
		c-1.19,0.26-2.42,0.33-3.58,0.71c-0.14,0.17-0.08,0.33,0.04,0.49c0.57,0.38,1.26,0.49,1.82,0.88c1.38,1,1.53,1.31,1.15,2.3
		c-0.87,0.52-1.87,0.26-2.8,0.47c-0.95,0.22-1.52,0.64-1.48,1.67c0.02,0.44,0.05,0.93-0.48,1.1c-0.55,0.18-1.01-0.04-1.41-0.42
		c-0.39-0.37-0.52-0.88-0.72-1.36c-0.37-0.9-0.81-1.05-1.65-0.54c-0.55,0.33-0.97,0.83-1.55,1.11c-0.43,0.21-0.9,0.46-1.34,0.11
		c-0.43-0.33-0.36-0.85-0.32-1.33c0.04-0.44,0.26-0.83,0.42-1.23c0.11-0.39,0.32-0.74,0.49-1.11c0.19-0.44,0.13-0.78-0.39-0.93
		c-0.72-0.22-1.52-0.24-2.1-0.8c-0.18-0.2-0.24-0.43-0.19-0.69c0.36-1.02,1.21-1.21,2.15-1.27c0.47-0.03,1.06,0.2,1.28-0.49
		c0.13-0.53,0.64-1.19,0.34-1.54c-0.33-0.39-1.02,0.08-1.54,0.2c-2.55,0.6-5.09,1.22-7.68,1.63c-0.46,0.07-0.95,0.22-1.36-0.17
		c0-0.32,0-0.64,0-0.96c0.37-0.5,0.93-0.58,1.49-0.67c1.94-0.29,3.85-0.73,5.76-1.18c0.37-0.09,0.85-0.09,0.97-0.57
		c0.28-1.1,1.16-1.21,2.05-1.29c0.48-0.05,0.96,0.02,1.43,0.11c1.24,0.23,2.39,0.01,3.44-0.69c1.75-1.17,3.61-1.88,5.76-1.56
		c0.56,0.08,1.01-0.16,1.45-0.46c1.4-0.93,2.86-1.75,4.42-2.41c0.18-0.08,0.37-0.16,0.53-0.28c0.53-0.39,0.55-0.98,0.43-1.52
		c-0.11-0.53-0.64-0.41-1.01-0.39c-3.99,0.16-7.98,0.27-11.97,0.58c-4.54,0.35-9.07,0.83-13.6,1.35c-0.39,0.04-0.8,0.14-1.15-0.15
		c0-0.24,0-0.48,0-0.72c0.34-0.38,0.78-0.53,1.26-0.59c3.02-0.4,6.03-0.91,9.06-1.22c0.32,0.02,0.65-0.01,0.96-0.11
		c0.43-0.09,0.88-0.1,1.31-0.13c0.25-0.02,0.49-0.08,0.73-0.13c0.57-0.1,1.14-0.09,1.71-0.1c0.34,0.05,0.64-0.1,0.96-0.15
		c0.48-0.11,0.97-0.07,1.46-0.08c3.08-0.38,6.17-0.37,9.26-0.19c0.57,0.17,1.16,0.23,1.77,0.23c0.44-0.01,0.89,0.02,1.17,0.44
		c0.04,0.1,0.13,0.23,0.09,0.32c-0.46,1.24-0.01,2.23,0.84,3.11c0.04,0.25-0.07,0.46-0.23,0.64c-1.01,0.56-2.13,0.94-3.04,1.69
		c-0.18,0.12-0.36,0.22-0.53,0.35c-0.37,0.28-0.67,0.63-1.06,0.89c-0.08,0.06-0.16,0.12-0.24,0.17c-0.04,0.03-0.08,0.06-0.12,0.09
		c-0.07,0.06-0.15,0.12-0.22,0.19c-0.03,0.04-0.07,0.07-0.11,0.1c-0.07,0.07-0.14,0.14-0.21,0.21c-0.03,0.04-0.07,0.07-0.1,0.11
		c-0.29,0.28-0.58,0.56-0.81,0.9c-0.12,0.19-0.24,0.37-0.38,0.55c-0.87,1.29-2.12,1.66-3.59,1.5c-0.21,0.01-0.43,0.01-0.64,0.07
		c-0.14,0.04-0.29,0.06-0.44,0.09c-0.18,0.03-0.36,0.06-0.53,0.12c-0.08,0.03-0.16,0.05-0.25,0.07c-0.12,0.04-0.24,0.07-0.36,0.11
		c-0.07,0.03-0.15,0.06-0.22,0.09c-0.11,0.05-0.22,0.1-0.32,0.15c-0.07,0.04-0.14,0.08-0.21,0.11c-0.11,0.05-0.21,0.11-0.32,0.16
		c-0.07,0.04-0.14,0.08-0.21,0.12c-0.11,0.07-0.21,0.13-0.31,0.21c-0.1,0.08-0.21,0.15-0.32,0.22c-0.11,0.07-0.22,0.14-0.33,0.22
		c-0.11,0.08-0.22,0.16-0.34,0.23c-0.16,0.1-0.31,0.2-0.46,0.32c-0.14,0.13-0.29,0.25-0.44,0.36c-0.16,0.11-0.32,0.21-0.47,0.32
		c-0.19,0.16-0.37,0.33-0.58,0.47c-0.18,0.12-0.35,0.24-0.55,0.34c-0.22,0.12-0.45,0.08-0.69,0.08c-0.5,0-1,0-1.49,0
		c-0.56,0-1.12,0-1.68,0c0.57,0.02,1.14,0,1.71,0.01c0.51,0,1.02,0,1.53,0c0.84,0.62-0.03,1.03-0.18,1.52
		c-0.13,0.18-0.26,0.37-0.37,0.57c-0.16,0.28-0.35,0.54-0.61,0.74c-0.32,0.4-0.49,0.87-0.67,1.34c0.01,0.02-0.03,0.03,0,0.04
		c0.08-0.4,0.33-0.72,0.47-1.09c0.04-0.1,0.09-0.18,0.18-0.24c0.12-0.09,0.24-0.18,0.36-0.27c0.16-0.1,0.33-0.21,0.48-0.33
		c0.22-0.19,0.43-0.41,0.67-0.58c0.16-0.12,0.33-0.22,0.49-0.34c0.2-0.16,0.39-0.34,0.61-0.48c0.19-0.12,0.39-0.21,0.62-0.24
		c0.4-0.01,0.68,0.12,0.72,0.57c0,0.29-0.19,0.54-0.16,0.83c0,0.11,0,0.22,0,0.33c-0.04,0.6,0.03,1.19,0.12,1.78
		c0.01,0.04-0.06,0.14,0.07,0.12c-0.08-0.02-0.1-0.08-0.07-0.17c-0.09-0.56-0.15-1.11-0.12-1.67c0-0.17,0-0.35,0.02-0.52
		c0.03-0.23,0.18-0.42,0.25-0.63c0.11-0.21,0.28-0.33,0.52-0.33c0.34,0.02,0.46,0.37,0.72,0.51c0.11,0.08,0.22,0.17,0.31,0.26
		c0.09,0.09,0.18,0.18,0.27,0.27c0.06,0.06,0.11,0.12,0.17,0.17c0.04,0.03,0.06,0.05,0.06,0.05c0.02,0.02,0,0-0.06-0.05
		c-0.06-0.06-0.12-0.12-0.17-0.17c-0.09-0.09-0.18-0.18-0.27-0.27c-0.09-0.1-0.19-0.18-0.31-0.26c-0.2-0.13-0.31-0.35-0.45-0.54
		c-0.05-0.08-0.09-0.17-0.12-0.26c-0.06-0.19-0.12-0.37-0.17-0.56c-0.05-0.2-0.05-0.39,0.02-0.58c0.08-0.19,0.24-0.3,0.41-0.4
		c0.08-0.05,0.16-0.09,0.25-0.13c0.17-0.08,0.34-0.16,0.51-0.22c0.09-0.03,0.18-0.06,0.27-0.08c0.23-0.04,0.45-0.11,0.67-0.18
		c0.09-0.03,0.18-0.05,0.28-0.07c0.24-0.04,0.48-0.11,0.71-0.18c0.2-0.05,0.39-0.08,0.59-0.11c0.2-0.03,0.4-0.08,0.59-0.13
		c0.2-0.05,0.4-0.08,0.6-0.09c0.24-0.02,0.49-0.04,0.72-0.12c0.14-0.04,0.28-0.07,0.42-0.09c0.18-0.03,0.36-0.07,0.53-0.12
		c0.08-0.03,0.17-0.05,0.25-0.08c0.17-0.05,0.33-0.1,0.5-0.16c0.08-0.03,0.16-0.06,0.24-0.08c0.12-0.04,0.24-0.08,0.36-0.13
		c0.08-0.04,0.16-0.08,0.24-0.12c0.16-0.09,0.31-0.21,0.44-0.34c0.27-0.26,0.52-0.52,0.75-0.81c0.14-0.18,0.28-0.35,0.49-0.46
		c0.22-0.09,0.45-0.09,0.68-0.06c0.33,0.1,0.67,0.13,1.01,0.1c0.34,0,0.69,0,1.03,0.01c0.33,0.01,0.67,0,0.98-0.11
		c0.31-0.07,0.63-0.13,0.94-0.23c0.35-0.1,0.7-0.2,1.05-0.32c0.1-0.04,0.19-0.08,0.29-0.12c0.09-0.05,0.19-0.09,0.28-0.14
		c0.52-0.27,0.99-0.63,1.41-1.02c0.07-0.07,0.14-0.14,0.22-0.2c0.07-0.07,0.14-0.13,0.21-0.19c0.03-0.03,0.07-0.06,0.1-0.09
		c0.06-0.06,0.13-0.12,0.19-0.18c0.03-0.03,0.06-0.06,0.09-0.09c0.05-0.06,0.11-0.13,0.17-0.19c0.08-0.1,0.14-0.21,0.21-0.32
		c0.02-0.04,0.04-0.07,0.07-0.11c0.02-0.04,0.05-0.07,0.07-0.11c0.05-0.08,0.1-0.15,0.15-0.22c0.07-0.12,0.14-0.24,0.2-0.37
		c0.04-0.1,0.08-0.19,0.12-0.28c0.19-0.41,0.27-0.86,0.46-1.28c0.25-0.54,0.7-0.79,1.26-0.7c2.57,0.44,5.05-0.29,7.56-0.59
		c1.11-0.13,2.21-0.2,3.32-0.02c0.2,0.05,0.39,0.14,0.55,0.26c0.11,0.08,0.2,0.18,0.27,0.29c0.07,0.14,0.12,0.29,0.14,0.45
		c0.33,2.34,0.33,2.37,2.68,2.67c2.46,0.31,4.81,1.03,7.15,1.8c0.57,0.27,1.13,0.57,1.73,0.78c0.16,0.06,0.31,0.13,0.45,0.21
		c0.1,0.05,0.19,0.1,0.28,0.16c0.39,0.29,0.82,0.51,1.26,0.72c0.21,0.12,0.39,0.26,0.49,0.48c0.11,0.71,0.21,1.42,0.17,2.14
		c-0.01,0.15,0.03,0.32-0.06,0.46c0.1-0.14,0.05-0.3,0.06-0.46c0-0.54,0.02-1.08-0.08-1.62c0.02-0.25,0.14-0.47,0.31-0.65
		c0.14-0.12,0.31-0.17,0.5-0.17c0.23,0.02,0.44,0.09,0.65,0.17c0.5,0.19,0.82,0.61,1.18,0.97c0.1,0.08,0.22,0.14,0.3,0.25
		c0.07,0.06,0.09,0.13,0.04,0.21c0,0,0.08-0.08,0.08-0.09c-0.07-0.05-0.12-0.11-0.14-0.19c-0.1-0.09-0.22-0.16-0.32-0.25
		c-0.26-0.28-0.4-0.62-0.54-0.97c-0.07-0.23-0.15-0.46-0.13-0.7c0.16-0.8,0.79-0.77,1.38-0.75c1.02,0.04,1.98,0.41,2.96,0.6
		c0.06,0.02,0.13,0.04,0.2,0.06c0.15,0.04-0.06,0.03,0.1,0.03c-0.02-0.05-0.07-0.02-0.1-0.04c-0.85-0.14-1.65-0.48-2.5-0.57
		c-0.21-0.02-0.41-0.1-0.62-0.14c-0.15-0.03-0.3-0.07-0.45-0.12c-0.19-0.06-0.38-0.13-0.58-0.19c-0.1-0.03-0.2-0.06-0.29-0.09
		c-0.2-0.07-0.39-0.15-0.56-0.28c-0.17-0.15-0.24-0.34-0.17-0.57c0.1-0.21,0.3-0.26,0.5-0.33c0.06-0.03,0.14-0.02,0.2-0.06
		c-0.06,0-0.13,0.01-0.19,0.03c-0.24,0.07-0.48,0.14-0.7,0.28c-0.15,0.06-0.31,0.09-0.46,0.12c-0.28,0.02-0.54,0.12-0.81,0.17
		c-0.36,0.06-0.71,0.07-1.04-0.1c-0.69-0.65-1.42-1.26-2.3-1.67c-2.25-1.1-4.66-1.39-7.11-1.47c-0.5-0.02-1.32,0.11-1.35-0.43
		c-0.04-0.66,0.82-0.55,1.33-0.68c0.51-0.13,1.03-0.05,1.55,0.01c0.91,0.11,1.75-0.05,2.48-0.63c0.51-0.79,1.37-0.86,2.18-1.01
		c0.47-0.11,0.95-0.16,1.42-0.28c0.34-0.07,0.69-0.08,1.02-0.2c0.22-0.05,0.45-0.09,0.68-0.1c0.28,0,0.55-0.06,0.82-0.14
		c0.22-0.06,0.44-0.09,0.67-0.11c0.29,0,0.56-0.09,0.84-0.16c0.17-0.05,0.34-0.07,0.52-0.08c0.92-0.08,1.84,0.05,2.75-0.1
		c0.18-0.06,0.36-0.14,0.49-0.3c0.11-0.15,0.2-0.31,0.28-0.48c0.08-0.17,0.14-0.35,0.19-0.53c0.02-0.1,0.05-0.19,0.07-0.28
		c0.01-0.05,0.03-0.09,0.04-0.14c0.09-0.4,0.07-0.79-0.09-1.17c-0.04-0.1-0.07-0.2-0.1-0.3c-0.11-0.65-0.63-1.17-0.59-1.87
		c0.03-0.11,0.09-0.21,0.17-0.29C505.24,276.55,505.29,277.53,505.93,277.75z"/>
	<path style="fill-rule:evenodd;clip-rule:evenodd;fill:#B39D8F;" d="M437.24,283.56c3.16-0.39,6.31-0.86,9.47-1.15
		c5.99-0.55,12-0.92,18.02-1.01c0.58-0.01,0.66-0.06,0.77,0.82c0.26,2.06-1.27,1.98-2.27,2.5c-1.39,0.73-2.78,1.43-4.01,2.41
		c-0.24,0.19-0.45,0.32-0.75,0.23c-2.25-0.67-4.13,0.15-5.94,1.39c-1.16,0.79-2.43,1.03-3.83,0.68c-0.85-0.22-1.72-0.26-2.53,0.2
		c-0.34,0.19-0.83,0.22-0.13,0.8c0.58,0.48-0.31,0.49-0.54,0.54c-2.43,0.59-4.86,1.18-7.35,1.5c-0.31,0.04-0.62,0.14-0.93,0.21
		C437.24,289.64,437.24,286.6,437.24,283.56z"/>
	<path style="fill-rule:evenodd;clip-rule:evenodd;fill:#CDC97A;" d="M464.13,280.49c-3.21-0.18-6.41,0.05-9.61,0.15
		c-0.93-0.83-2.18-0.64-3.27-0.99c-1.44-0.47-2.86-0.95-4.28-1.48c-3.02-1.13-5.91-2.56-8.92-3.71c-0.31-0.12-0.58-0.26-0.81-0.49
		c0-2.08,0-4.16,0-6.24c0.38-0.32,0.74-0.16,1.1,0.05c3.75,2.23,7.86,3.42,12.09,4.33c2.33,0.5,4.67,1.04,6.67,2.48
		c0.55,0.4,1.21,0.65,1.88,0.75c2.89,0.43,5.07,2.19,7.33,3.8c0.29,0.21,0.58,0.44,0.63,0.84c-0.01,0.47-0.28,0.61-0.69,0.59
		C465.54,280.52,464.83,280.63,464.13,280.49z"/>
	<path style="fill-rule:evenodd;clip-rule:evenodd;fill:#C8C875;" d="M466.72,279.72c-1.7-0.92-3.12-2.28-4.9-3.09
		c-0.72-0.33-1.34-0.75-2.2-0.79c-0.95-0.04-1.91-0.38-2.68-0.93c-2.2-1.59-4.78-2.04-7.32-2.62c-4.11-0.93-8.13-2.08-11.7-4.42
		c-0.18-0.12-0.46-0.1-0.69-0.15c0-1.76,0-3.52,0-5.28c0.42-0.31,0.76-0.03,1.09,0.17c2.64,1.56,5.56,2.44,8.46,3.29
		c3.64,1.07,7.24,2.25,10.76,3.66c0.41,0.16,0.8,0.37,1.23,0.48c3.4,0.94,6.02,3.19,8.77,5.21c0.42,0.31,0.72,0.74,0.83,1.28
		C468.03,277.7,467.8,278.93,466.72,279.72z"/>
	<path style="fill-rule:evenodd;clip-rule:evenodd;fill:#BDC76C;" d="M437.24,258.84c0-0.4,0-0.8,0-1.2c0-2.4,0-2.4,2.4-2.4
		c1.6,1.27,3.53,1.83,5.4,2.51c3.67,1.33,7.31,2.7,11.05,3.87c3.24,1.01,6.48,2.24,9.45,3.94c2.47,1.42,4.57,3.33,6.58,5.33
		c0.36,0.36,0.65,0.81,0.75,1.34c-0.47,1.01-1.32,1.54-2.34,1.86c-0.63-0.24-0.96-0.82-1.41-1.26c-2.57-2.47-5.43-4.43-9.02-5.08
		c-0.24-0.04-0.48-0.1-0.68-0.23c-2.81-1.91-6.17-2.32-9.3-3.31C445.65,262.79,441.34,261.09,437.24,258.84z"/>
	<path style="fill-rule:evenodd;clip-rule:evenodd;fill:#C2C870;" d="M437.24,258.84c1.06-0.21,1.87,0.46,2.64,0.92
		c3.25,1.98,6.88,2.94,10.44,4.09c2.39,0.77,4.95,1.15,7.16,2.26c3.07,1.53,6.59,2.01,9.36,4.25c1.37,1.11,2.6,2.34,3.8,3.61
		c-0.64,1.04-1.27,2.09-2.42,2.66c-1.06-1.72-2.81-2.71-4.41-3.72c-4.3-2.75-9.2-4.15-14.02-5.71c-4.26-1.37-8.64-2.44-12.54-4.76
		C437.24,261.24,437.24,260.04,437.24,258.84z"/>
	<path style="fill-rule:evenodd;clip-rule:evenodd;fill:#AFC762;" d="M448.76,255.24c3.84,0,7.68,0,11.52,0
		c3.27,1.01,6.48,2.18,9.73,3.26c2.41,0.8,4.15,2.55,5.66,4.45c1.45,1.82,2.31,3.99,2.99,6.22c0.11,0.35,0.15,0.71-0.08,1.04
		c-1.05,0.6-2.16,1.01-3.38,1c-0.83-0.58-1.14-1.53-1.59-2.36c-1.5-2.76-3.93-4.56-6.56-5.97c-4.33-2.33-9-3.83-13.74-5.11
		c-1.28-0.35-2.52-0.78-3.69-1.4C449.17,256.13,448.65,255.91,448.76,255.24z"/>
	<path style="fill-rule:evenodd;clip-rule:evenodd;fill:#A3C55C;" d="M478.52,270.1c-1.48-5.33-3.92-9.82-9.69-11.58
		c-2.47-0.75-4.88-1.7-7.31-2.58c-0.44-0.16-0.83-0.46-1.24-0.69c5.04,0,10.08,0,15.12,0c3.08,1.29,5.4,3.37,6.5,6.58
		c0.55,1.62,0.49,3.37,0.79,5.06c0.11,0.62,0.08,1.27,0.16,1.9c0.06,0.47,0.11,0.97-0.38,1.29
		C481.15,270.2,479.84,270.69,478.52,270.1z"/>
	<path style="fill-rule:evenodd;clip-rule:evenodd;fill:#F7C73C;" d="M504.42,283.52c1.38-1.03,2.12-2.36,1.91-4.12
		c-0.07-0.58,0.23-0.8,0.73-0.84c5.38-0.34,10.61-1.52,15.85-2.68c0,2.4,0,4.8,0,7.2c-2.61,0.29-5.21,0.6-7.82,0.87
		c-3.13,0.32-6.23,0.85-9.38,0.85C504.96,284.71,504.52,284.28,504.42,283.52z"/>
	<path style="fill-rule:evenodd;clip-rule:evenodd;fill:#9BC457;" d="M482.6,269.86c-0.56-3.33-0.08-6.87-1.98-9.91
		c-0.98-1.56-2.28-2.84-3.93-3.71c-0.49-0.26-1.03-0.45-1.29-1c3.52,0,7.04,0,10.56,0c0.52,0.64,1.08,1.26,1.56,1.93
		c1.61,2.32,0.39,4.64-0.27,6.81c-0.56,1.84-1.05,3.63-1.05,5.54c0,0.32,0.02,0.64-0.29,0.86
		C484.71,270.81,483.64,270.39,482.6,269.86z"/>
	<path style="fill-rule:evenodd;clip-rule:evenodd;fill:#D1CA7E;" d="M437.24,273.96c2.21,0.16,3.93,1.58,5.93,2.28
		c3.49,1.23,6.75,3.13,10.53,3.47c0.61,0.06,0.85,0.35,0.83,0.92c-0.46,0.02-0.92,0.04-1.38,0.06c-0.24,0.15-0.52,0.04-0.77,0.16
		c-0.62,0.03-1.23,0.06-1.85,0.09c-0.18,0.07-0.38,0.08-0.55,0.15c-0.46,0.03-0.93,0.05-1.39,0.08c-0.24,0.15-0.53,0.04-0.77,0.17
		c-3.52,0.5-7.05,0.99-10.57,1.49C437.24,279.88,437.24,276.92,437.24,273.96z"/>
	<path style="fill-rule:evenodd;clip-rule:evenodd;fill:#C2DD90;" d="M504.41,294.83c0.11-0.56-0.04-1.08-0.22-1.61
		c-0.37-1.13,0.03-1.64,1.21-1.5c0.42,0.05,0.82,0.21,1.22,0.36c0.78,0.28,1.55,0.3,2.35,0.1c0.3-0.15,0.62-0.16,0.93-0.08
		c3.74,0.87,7.57,1.14,11.36,1.67c0.59,0.08,1.2,0.15,1.66,0.59c0,1.36,0,2.72,0,4.08c-0.37,0.33-0.81,0.27-1.25,0.22
		c-4.43-0.44-8.85-1.02-13.19-2.05C507.05,296.27,505.52,295.98,504.41,294.83z"/>
	<path style="fill-rule:evenodd;clip-rule:evenodd;fill:#B7C867;" d="M448.76,255.24c0.93,1.15,2.31,1.54,3.62,1.89
		c3.37,0.92,6.69,1.95,9.91,3.35c1.53,0.67,3.19,0.99,4.68,1.89c3.1,1.89,5.96,3.95,7.53,7.37c0.21,0.46,0.45,0.92,0.68,1.38
		c-0.1,0.47-0.43,0.39-0.75,0.3c-1.14-1.21-2-2.67-3.34-3.72c-0.57-0.45-1.11-0.92-1.81-1.14c-1.45-0.45-2.95-1.06-4.07-1.91
		c-1.42-1.08-3-1.51-4.51-2.23c-0.99-0.47-2.04-0.62-3.03-0.96c-2.34-0.8-4.9-1.07-7.03-2.2c-2.17-1.15-4.44-1.94-6.69-2.85
		c-0.51-0.21-1.24-0.31-0.94-1.19C444.92,255.24,446.84,255.24,448.76,255.24z"/>
	<path style="fill-rule:evenodd;clip-rule:evenodd;fill:#00B6CB;" d="M446.56,298.68c-0.14,0.86-0.99,2.04-0.26,2.48
		c0.76,0.47,1.61-0.62,2.31-1.25c1.08-0.97,1.99-0.68,2.44,0.7c0.17,0.51,0.21,1.11,0.76,1.4c0.34,0.18,0.74,0.44,1.1,0.2
		c0.35-0.24,0-0.55-0.05-0.84c-0.25-1.31,0.7-2.08,2.74-2.21c0.67-0.04,1.35,0,2.03,0l-0.01-0.02c-2.13,2.31-4.56,4.27-7.05,6.15
		c-0.3,0.43-0.71,0.14-1.08,0.17c-3.34-2.41-7.24-2.55-11.13-2.7c-0.4-0.02-0.8,0.04-1.12-0.26c0-0.88,0-1.76,0-2.64
		c0.09-0.07,0.18-0.18,0.29-0.2c2.88-0.57,5.79-0.95,8.72-1.16C446.37,298.51,446.47,298.61,446.56,298.68z"/>
	<path style="fill-rule:evenodd;clip-rule:evenodd;fill:#CCE197;" d="M522.92,294.36c-4.66-0.7-9.4-0.82-13.95-2.17
		c-0.19-1.35-1.24-1.76-2.33-2.15c-0.23-0.08-0.43-0.27-0.65-0.41c0.22-0.04,0.44-0.1,0.67-0.12c5.41-0.48,10.83-0.51,16.26-0.42
		C522.92,290.84,522.92,292.6,522.92,294.36z"/>
	<path style="fill-rule:evenodd;clip-rule:evenodd;fill:#BBD98B;" d="M504.41,294.83c5.93,2.42,12.26,2.81,18.51,3.61
		c0,1.12,0,2.24,0,3.36c-0.43,0.23-0.86,0.09-1.29,0.01c-3.53-0.63-7.1-1.1-10.6-1.88c-0.17-0.04-0.33-0.12-0.48-0.22
		c-0.17-0.13-0.37-0.2-0.6-0.2c-0.11-0.02-0.22-0.04-0.33-0.08c-2.37-0.66-4.81-1.08-7.07-2.11c-0.67-0.31-1.47-0.45-1.75-1.29
		c0.01-0.35,0.02-0.71,0.03-1.06c0.01-0.38-0.11-0.87,0.36-1.02c0.44-0.15,0.92-0.18,1.29,0.26
		C503,294.8,503.68,294.91,504.41,294.83z"/>
	<path style="fill-rule:evenodd;clip-rule:evenodd;fill:#00B4C9;" d="M522.92,288.6c-5.72-0.32-11.44-0.39-17.16-0.06
		c-0.18,0.01-0.73-1.24-0.59-1.41c0.96-1.11,0.03-0.92-0.62-0.93c-0.44-0.01-0.87-0.03-1.31-0.04c-0.07-0.09-0.07-0.18,0-0.27
		c0.24-0.11,0.52,0.01,0.74-0.15c6.07-0.49,12.15-0.98,18.22-1.47c0.24-0.02,0.48,0,0.72,0.01
		C522.92,285.72,522.92,287.16,522.92,288.6z"/>
	<path style="fill-rule:evenodd;clip-rule:evenodd;fill:#B7C768;" d="M443,255.24c0.18,1.03,1.16,0.96,1.79,1.09
		c2.92,0.62,5.22,2.65,8.09,3.39c2.84,0.73,5.69,1.41,8.41,2.63c1.34,0.6,2.75,0.74,3.9,1.98c0.48,0.52,1.76,0.93,2.73,1.27
		c2.97,1.02,5.15,2.94,6.53,5.76c-0.31,0.74-0.82,1.12-1.66,0.93c-2.76-3.44-6.12-6.2-10.21-7.77c-2.98-1.15-5.86-2.57-9.01-3.37
		c-4.39-1.12-8.52-3.05-12.74-4.72c-0.55-0.22-1.14-0.46-1.2-1.19C440.76,255.24,441.88,255.24,443,255.24z"/>
	<path style="fill-rule:evenodd;clip-rule:evenodd;fill:#B4D787;" d="M510.69,299.62c4.08,0.68,8.2,1.16,12.23,2.18
		c0,1.2,0,2.4,0,3.6c-1.46,0.26-2.94,0.09-4.41,0.11c-2.2,0.03-4.39,0.01-6.58,0.01c-0.55,0.05-0.72-0.17-0.47-0.69
		c0.19-0.39,0.4-0.76,0.52-1.19c0.25-0.85,0.25-1.59-0.52-2.24c-0.47-0.4-0.86-0.93-0.87-1.62
		C510.63,299.73,510.66,299.67,510.69,299.62z"/>
	<path style="fill-rule:evenodd;clip-rule:evenodd;fill:#00B0C5;" d="M437.24,302.52c3.66-0.14,7.28,0.02,10.7,1.59
		c0.66,0.3,1.12,0.73,1.54,1.25c-0.15,0.16-0.35,0.16-0.55,0.16c-3.74,0-7.49,0-11.23,0c-0.16,0-0.32-0.03-0.45-0.12
		C437.24,304.44,437.24,303.48,437.24,302.52z"/>
	<path style="fill-rule:evenodd;clip-rule:evenodd;fill:#FEFEFE;" d="M437.24,305.4c4.08-0.01,8.16-0.03,12.24-0.04
		c0.37-0.02,0.73-0.04,1.1-0.05c0.59,0.02,1.18,0.03,1.77,0.05c0.55-0.25,1.12-0.39,1.73-0.39c6.93,0,13.86,0,20.79,0
		c0.24,0,0.48,0.05,0.71,0.06c3.41-0.09,6.82-0.09,10.23,0c0.23,0.02,0.46,0.01,0.69-0.04c2.04,0,4.08-0.06,6.12,0.05
		c0.97-0.04,1.94,0.03,2.91-0.03c0.96-0.05,1.93-0.04,2.9-0.01c0.67,0.08,1.35,0.04,2.02,0.03c3.36-0.09,6.72-0.11,10.08,0.01
		c0.31,0.03,0.63,0.05,0.86,0.29c3.85,0.02,7.69,0.04,11.54,0.06c-0.02,0.53-0.42,0.22-0.6,0.22c-28.16,0.02-56.32,0.02-84.48,0
		C437.66,305.62,437.26,305.93,437.24,305.4z"/>
	<path style="fill-rule:evenodd;clip-rule:evenodd;fill:#94C75A;" d="M522.92,259.32c-2.24-0.25-3.91-1.68-5.74-2.76
		c-0.45-0.27-0.68-0.77-0.74-1.31c1.96,0,3.92,0.02,5.88-0.02c0.52-0.01,0.64,0.1,0.62,0.62C522.88,257,522.92,258.16,522.92,259.32
		z"/>
	<path style="fill-rule:evenodd;clip-rule:evenodd;fill:#81D1E1;" d="M437.24,293.64c3.59-0.48,7.09-1.39,10.6-2.24
		c0.26-0.06,0.53-0.07,0.8-0.1c-0.09,0.24-0.17,0.48-0.26,0.71c-0.2,0.54-0.41,1.08-0.61,1.62c-0.93,0.59-2.02,0.38-3.03,0.56
		c-2,0.35-4.01,0.65-6.03,0.91c-0.52,0.07-1.04,0.14-1.47-0.26C437.24,294.44,437.24,294.04,437.24,293.64z"/>
	<path style="fill-rule:evenodd;clip-rule:evenodd;fill:#72CDDD;" d="M437.24,294.84c3.25-0.43,6.49-0.85,9.74-1.3
		c0.3-0.04,0.54-0.04,0.79,0.09c0.24,0.89-0.39,0.74-0.89,0.74c-1,0-2.06-0.17-2.65,0.96c-2.04,0.59-4.14,0.81-6.24,1.01
		c-0.29,0.03-0.54-0.12-0.76-0.31C437.24,295.64,437.24,295.24,437.24,294.84z"/>
	<path style="fill-rule:evenodd;clip-rule:evenodd;fill:#1DBDD1;" d="M446.56,298.68c-3.09,0.54-6.19,0.98-9.32,1.2
		c0-0.32,0-0.64,0-0.96c0.39-0.4,0.93-0.48,1.42-0.53c2.25-0.21,4.45-0.78,6.7-1c0.58-0.06,1.2-0.18,1.68,0.33
		C446.88,298.04,446.72,298.36,446.56,298.68z"/>
	<path style="fill-rule:evenodd;clip-rule:evenodd;fill:#4CC4D7;" d="M444.43,295.83c0.72,0.24,1.44,0.48,2.16,0.72
		c-0.06,0.63-0.58,0.72-1.04,0.78c-2.37,0.27-4.72,0.73-7.07,1.09c-0.44,0.07-0.87,0.11-1.24-0.22c0-0.32,0-0.64,0-0.96
		c0.23-0.23,0.48-0.44,0.81-0.49C440.18,296.45,442.27,295.9,444.43,295.83z"/>
	<path style="fill-rule:evenodd;clip-rule:evenodd;fill:#36C1D4;" d="M437.24,298.2c2.88-0.41,5.76-0.82,8.64-1.25
		c0.25-0.04,0.48-0.26,0.71-0.39c0.97,0.07,0.84,0.57,0.45,1.17c-2.93-0.06-5.72,0.89-8.62,1.09c-0.4,0.03-0.79,0.07-1.19,0.11
		C437.24,298.68,437.24,298.44,437.24,298.2z"/>
	<path style="fill-rule:evenodd;clip-rule:evenodd;fill:#60C9DA;" d="M444.43,295.83c-1.71,0.88-3.66,0.64-5.46,1.15
		c-0.56,0.16-1.16,0.17-1.74,0.25c0-0.4,0-0.8,0-1.2c2.1-0.26,4.21-0.52,6.31-0.77c0.22-0.03,0.46,0.04,0.68,0.06
		C444.21,295.54,444.19,295.74,444.43,295.83z"/>
	<path style="fill-rule:evenodd;clip-rule:evenodd;fill:#17B07F;" d="M486.49,270.86l0.11-0.01c0.13,0.06,0.24,0.15,0.38,0.21
		c0.09,0.03,0.18,0.07,0.26,0.12c0.08,0.05,0.16,0.11,0.23,0.16c0.04,0.03,0.08,0.06,0.12,0.08c0.12,0.08,0.24,0.16,0.36,0.24
		c0.13,0.08,0.24,0.18,0.36,0.28c0.08,0.07,0.16,0.14,0.23,0.22c0.04,0.04,0.07,0.08,0.11,0.12c0.08,0.09,0.14,0.18,0.2,0.29
		c0.06,0.11,0.1,0.22,0.13,0.34c0.06,0.36-0.05,0.72-0.4,0.75c-1.32,0.12-2.58,0.84-3.96,0.45c-0.17-0.1-0.26-0.25-0.33-0.42
		c-0.05-0.15-0.09-0.32-0.14-0.47c-0.75-0.51-0.54,0.32-0.76,0.54c-0.05,0.18-0.14,0.33-0.26,0.47c-0.52,0.41-1.11,0.3-1.69,0.22
		c-0.93-0.13-1.86-0.22-2.8-0.08c-0.28,0.12-0.52,0.32-0.81,0.42c-0.12,0.03-0.24,0.05-0.36,0.04c-1.39-0.11-2.68,0.35-3.98,0.75
		c-0.64,0.17-1.26,0.46-1.95,0.38c-0.42-0.05-0.88-0.04-1.05-0.56c-0.01-0.54,0.37-0.86,0.69-1.21c1.02-1.12,2.3-1.88,3.68-2.38
		c3.01-1.09,6.1-1.8,9.35-1.46c0.28,0.03,0.54,0.12,0.81,0.19c0.17,0.04,0.35,0.04,0.53,0.05
		C485.87,270.62,486.14,270.88,486.49,270.86z"/>
	<path style="fill-rule:evenodd;clip-rule:evenodd;fill:#040403;" d="M486.49,270.86c-0.28,0.21-0.53,0.12-0.78-0.05
		c-0.14-0.11-0.29-0.1-0.45-0.05c-4.52-0.41-8.81,0.27-12.67,2.77c-0.75,0.49-1.36,1.2-2.03,1.81c-0.11,0.68-0.67,1.08-0.98,1.63
		c-0.06,0.09-0.13,0.18-0.19,0.26c-0.03,0.04-0.07,0.09-0.1,0.13c-0.69,0.95-1.28,1.96-1.78,3.03c-0.15,0.31-0.17,0.81-0.73,0.76
		c-0.24-0.8-0.91-0.38-1.39-0.47c-0.41-0.08-0.87,0.11-1.24-0.2c0.68-0.01,1.36-0.06,2.04-0.03c0.61,0.03,0.65-0.28,0.55-0.74
		c0.5-1.03,0.99-2.06,1.49-3.09c0.82-0.87,1.37-2,2.42-2.66c0.72-0.56,1.44-1.12,2.16-1.68c0.55-0.31,1.1-0.62,1.66-0.93
		c0.24-0.09,0.57,0.1,0.72-0.24c1.11-0.34,2.23-0.69,3.34-1.03c1.36-0.08,2.72-0.16,4.08-0.23c1.1,0.18,2.2,0.35,3.3,0.53
		C486.1,270.55,486.29,270.7,486.49,270.86z"/>
	<path style="fill-rule:evenodd;clip-rule:evenodd;fill:#333F27;" d="M487.88,271.8c-0.15-0.08-0.31-0.17-0.46-0.25l0,0
		c-0.09-0.06-0.18-0.12-0.27-0.18c-0.04-0.1-0.12-0.13-0.21-0.07c-0.11-0.15-0.23-0.29-0.34-0.44c1.27,0.13,2.37,0.62,3.08,1.7
		c0.33,0.51,0.44,0.64,1.01,0.2c1.48-1.16,2.75-2.63,4.67-3.17c0.86-0.24,1.73-0.39,2.37,0.21c1.02,0.97,2.97,0.29,3.48,1.81
		c0.88,2.63,3.29,3.99,4.73,6.13c-0.78-0.03-0.85-0.97-1.49-1.17c-0.78-0.17-1.12-0.91-1.7-1.34c-0.64-0.61-1.14-1.29-1.44-2.16
		c-0.36-1.06-1.03-1.89-2.29-1.98c-0.4-0.03-0.77-0.22-1.09-0.47c-1.01-0.79-2.04-0.71-3.13-0.13c-0.89,0.47-1.71,1.03-2.43,1.72
		c-0.43,0.42-0.9,0.79-1.38,1.14c-0.67,0.49-1.26,0.42-1.74-0.28C488.88,272.54,488.55,271.98,487.88,271.8z"/>
	<path style="fill-rule:evenodd;clip-rule:evenodd;" d="M500.13,269.36c-0.12-0.01-0.26,0.02-0.35-0.04
		c-0.38-0.25-0.96,0.12-1.22-0.42c-0.01-0.02,0.31-0.28,0.47-0.27c0.59,0.03,1.25-0.02,1.48,0.74c0.01,0.02-0.02,0.08-0.04,0.09
		c-0.03,0.01-0.08-0.01-0.11-0.02C500.29,269.4,500.21,269.37,500.13,269.36z"/>
	<path style="fill-rule:evenodd;clip-rule:evenodd;fill:#3F4D2F;" d="M492.95,269.43c-0.02,0.04-0.03,0.09-0.06,0.1
		c-0.34,0.2-0.78,0.78-1.04,0.39c-0.22-0.33,0.35-0.68,0.8-0.79C492.81,269.17,492.92,269.26,492.95,269.43z"/>
	<path style="fill-rule:evenodd;clip-rule:evenodd;fill:#3F4E30;" d="M494.82,268.47c0.18,0.03,0.36,0.06,0.55,0.09
		c-0.11,0.09-0.2,0.22-0.32,0.25c-0.3,0.07-0.61,0.08-0.92,0.12c-0.2-0.19-0.54,0.05-0.71-0.24c0.26-0.34,0.62-0.26,0.97-0.22
		C494.53,268.58,494.67,268.58,494.82,268.47z"/>
	<path style="fill-rule:evenodd;clip-rule:evenodd;" d="M493.41,268.69c0.25,0.03,0.56-0.1,0.71,0.24
		c-0.24,0.07-0.49,0.14-0.73,0.21c-0.14-0.05-0.21-0.14-0.18-0.3C493.28,268.79,493.34,268.74,493.41,268.69z"/>
	<path style="fill-rule:evenodd;clip-rule:evenodd;" d="M493.21,268.84c0.06,0.1,0.12,0.2,0.18,0.3c-0.09,0.04-0.18,0.08-0.27,0.12
		c-0.12-0.01-0.17-0.07-0.14-0.19C493.06,268.99,493.13,268.92,493.21,268.84z"/>
	<path style="fill-rule:evenodd;clip-rule:evenodd;" d="M492.98,269.07c0.04,0.07,0.09,0.13,0.14,0.19
		c-0.06,0.06-0.12,0.12-0.17,0.17c-0.1-0.1-0.2-0.2-0.3-0.3C492.76,269.11,492.87,269.09,492.98,269.07z"/>
	<path style="fill-rule:evenodd;clip-rule:evenodd;" d="M494.82,268.47c-0.15,0.25-0.29,0.26-0.44,0
		C494.53,268.47,494.67,268.47,494.82,268.47z"/>
	<path style="fill-rule:evenodd;clip-rule:evenodd;" d="M500.13,269.36c0.13-0.14,0.18-0.04,0.22,0.08
		C500.28,269.41,500.21,269.38,500.13,269.36z"/>
	<path style="fill-rule:evenodd;clip-rule:evenodd;fill:#86C56A;" d="M475.64,305.36c-7.76,0-15.53,0-23.29,0
		c4.86-4.37,9.69-8.8,16.57-9.74c1.18,0.74,1.74,1.96,2.35,3.11c0.37,0.7,0.76,1.4,1.11,2.12c0.55,1.13,1.17,2.12,2.37,2.73
		C475.33,303.87,476.13,304.38,475.64,305.36z"/>
	<path style="fill-rule:evenodd;clip-rule:evenodd;fill:#A7D27E;" d="M510.65,305.37c-3.42,0-6.85,0-10.27,0
		c-0.09-0.07-0.17-0.15-0.25-0.23c-0.97-0.92-2.18-1.48-3.38-1.94c-2.94-1.15-5.47-2.89-7.77-5.01c-0.53-0.49-1.09-0.92-1.72-1.28
		c-1.62-0.92-2.72-2.43-4.04-3.69c-0.2-0.19-0.29-0.48-0.14-0.77c0.04-0.06,0.09-0.07,0.15-0.05c0.13-0.01,0.21-0.1,0.31-0.15
		c0.21-0.03,0.43-0.06,0.64-0.09c0.13,0,0.21-0.1,0.32-0.15c0.23-0.03,0.46-0.05,0.68-0.08c0.16-0.1,0.36-0.08,0.52-0.17
		c0.23-0.02,0.46-0.04,0.69-0.06c0.15-0.11,0.35-0.08,0.51-0.17c0.16,0,0.33-0.01,0.49-0.01c2.15,3.19,5.57,4.82,8.62,6.87
		c1.43,0.96,3.01,1.77,4.71,2.29c2.13,0.66,4.09,1.77,6.21,2.5c1.24,0.42,2.61,0.41,3.75,1.16
		C510.94,304.68,510.99,305.03,510.65,305.37z"/>
	<path style="fill-rule:evenodd;clip-rule:evenodd;fill:#90C970;" d="M475.64,305.36c0.08-0.78-0.51-1.34-1-1.5
		c-1.89-0.61-2.27-2.38-3.03-3.78c-0.84-1.53-1.72-3.02-2.69-4.47c0.3-0.03,0.59-0.06,0.89-0.09c0.12-0.01,0.2-0.1,0.3-0.15
		c1.91-0.35,3.82-0.69,5.73-1.04c0.59,0.17,0.74,0.7,0.92,1.17c0.43,1.06,1.01,1.97,1.96,2.64c0.5,0.35,0.8,0.88,1.17,1.35
		c0.27,0.35,0.51,0.76,0.9,0.94c1.76,0.82,2.89,2.47,4.56,3.4c0.45,0.25,0.88,0.56,0.95,1.15c0,0.21-0.14,0.3-0.32,0.37
		C482.53,305.35,479.08,305.36,475.64,305.36z"/>
	<path style="fill-rule:evenodd;clip-rule:evenodd;fill:#9FCF7A;" d="M483.08,292.46c1.18,1.53,2.49,2.98,4.11,4.03
		c1.54,1,2.86,2.21,4.23,3.4c1.33,1.16,2.92,1.93,4.51,2.58c1.33,0.54,2.48,1.42,3.86,1.85c0.34,0.11,0.56,0.44,0.57,0.84
		c-0.62,0.19-1.31-0.23-1.9,0.21c-0.98-0.01-1.96-0.01-2.94-0.02c-0.88-0.27-1.76-0.54-2.7-0.21c-1.44-0.27-2.29-1.51-3.52-2.14
		c-2.08-1.08-3.74-2.78-5.61-4.18c-1.48-1.11-2.43-2.81-3.81-4.07c-0.38-0.35-0.54-0.89-0.2-1.42
		C480.79,292.94,481.9,292.56,483.08,292.46z"/>
	<path style="fill-rule:evenodd;clip-rule:evenodd;fill:#B0D586;" d="M510.47,304.43c-3.82-0.59-7.23-2.41-10.78-3.77
		c-3.18-1.22-5.97-3.29-8.77-5.26c-1.49-1.05-2.92-2.08-3.53-3.89c1.26-0.28,2.54-0.5,3.84-0.49c2.38,2.51,5.26,4.4,8.11,6.29
		c1.81,1.2,4.04,1.66,6.09,2.44c1.01,0.38,2.05,0.66,3.02,1.15c0.7,0.35,1.25,0.43,1.19-0.65c-0.02-0.31,0.03-0.64,0.32-0.86
		c0.07-0.01,0.15-0.02,0.22-0.03c0.05,0.05,0.09,0.1,0.14,0.15c0.4,0.84,0.23,1.74,0.26,2.62c-0.06,0.52-0.05,1.04,0.09,1.56
		C510.69,303.96,510.68,304.23,510.47,304.43z"/>
	<path style="fill-rule:evenodd;clip-rule:evenodd;fill:#97CC75;" d="M479.68,293.33c0.02,0.49,0.1,1.02,0.48,1.31
		c1.92,1.46,3.17,3.55,5.13,5.04c2.13,1.62,4.5,2.91,6.49,4.7c0.33,0.3,0.71,0.5,1.17,0.55c0.09,0.25-0.1,0.33-0.26,0.44
		c-2.09,0-4.17,0-6.26,0c-0.11-0.04-0.19-0.12-0.23-0.24c-0.23-0.27-0.4-0.61-0.68-0.8c-2.79-1.91-5.36-4.06-7.71-6.48
		c-0.98-1.01-1.25-2.38-1.96-3.52l0.01,0c0.08-0.05,0.17-0.1,0.25-0.15c0.24-0.03,0.47-0.05,0.71-0.08
		c0.07-0.06,0.16-0.11,0.25-0.15c0.24-0.03,0.47-0.06,0.71-0.09c0.08-0.06,0.16-0.11,0.25-0.15
		C478.58,293.59,479.13,293.46,479.68,293.33z"/>
	<path style="fill-rule:evenodd;clip-rule:evenodd;fill:#024C28;" d="M485.23,284.54c-0.08-0.01-0.16-0.02-0.24-0.03
		c-0.07-0.09-0.17-0.15-0.26-0.21c-2.89-0.24-5.68,0.58-8.52,0.85c-0.82,0.08-1.6-0.01-2.35-0.16c-0.77-0.15-1.08,0.15-1.32,0.75
		c-0.72,0.41-1.03-0.1-1.29-0.61c-0.55-1.05-0.38-2.82,0.38-3.63c0.96-1.02,2.14-1.36,3.5-0.92c0.46,0.15,0.89,0.36,1.32,0.56
		c1.26,0.57,2.54,0.76,3.95,0.69c3.35-0.17,6.71-0.1,10.05-0.54c0.99-0.13,2,0.14,2.95,0.43c0.84,0.26,1.67,0.61,1.92,1.61
		c-0.59,0.44-1.6,0.01-1.96,0.94C490.63,283.38,487.94,284.12,485.23,284.54z"/>
	<path style="fill-rule:evenodd;clip-rule:evenodd;fill:#007342;" d="M460.28,292.9c-0.08,0.01-0.16,0.02-0.23,0.03
		c-0.13,0.12-0.34,0.07-0.47,0.19c-0.09,0.02-0.17,0.03-0.26,0.05c-0.13,0.13-0.34,0.07-0.47,0.2c-0.17,0.01-0.34,0.02-0.51,0.04
		c-0.19,0.2-0.5,0.02-0.69,0.21c-0.22,0.01-0.45,0.03-0.67,0.04c-0.16,0.1-0.37,0.07-0.52,0.19c-0.24,0.02-0.48,0.03-0.72,0.05
		c-0.21,0.19-0.51,0.02-0.72,0.19c-0.09,0.01-0.18,0.03-0.28,0.04c-0.19,0.21-0.51,0.01-0.7,0.22c-0.06,0.02-0.11,0.03-0.17,0.02
		c-0.17,0.11-0.4,0.07-0.54,0.24l0.02-0.01c-0.14,0.13-0.37,0.09-0.48,0.27c0,0.23,0,0.45,0,0.68c0.12,0.14,0.07,0.35,0.2,0.49
		c0.02,0.07,0.03,0.14,0.04,0.21c0.08,0.27-0.04,0.33-0.28,0.29c-0.16,0.08-0.33,0.15-0.49,0.23c-0.12,0.14-0.08,0.35-0.19,0.49
		c-0.01,0.15-0.03,0.29-0.04,0.44c-0.14,0.15-0.28,0.16-0.42,0c-0.01-0.08-0.01-0.15,0-0.23c0.18-0.2,0-0.5,0.2-0.69
		c0.03-0.54-0.34-0.51-0.7-0.49c-0.15,0.12-0.4,0.08-0.49,0.31c-0.15,0.13-0.3,0.26-0.45,0.39c-0.15,0.15-0.44,0.1-0.5,0.37
		c-0.22,0.2-0.45,0.4-0.67,0.6c-0.17,0.13-0.45,0.09-0.54,0.34c-0.03,0.07-0.09,0.1-0.16,0.09c-0.09-0.02-0.17-0.04-0.26-0.07
		c-0.06-0.07-0.08-0.16-0.05-0.25c0.13-0.2,0.26-0.4,0.39-0.59c0.24-0.1,0.19-0.38,0.33-0.54c0.13-0.51,0.74-0.79,0.68-1.4
		c-0.06-0.04-0.08-0.08-0.06-0.12c0.02-0.04,0.04-0.06,0.06-0.06c0.16-0.09,0.31-0.19,0.47-0.28c0.16-0.13,0.43-0.09,0.54-0.31
		c0.15-0.14,0.29-0.27,0.44-0.41c0.15-0.13,0.42-0.09,0.52-0.32c0.15-0.13,0.29-0.27,0.44-0.4c0.15-0.14,0.42-0.09,0.52-0.32
		c0.06-0.05,0.13-0.11,0.19-0.16c0.16-0.13,0.44-0.09,0.53-0.34c0.06-0.05,0.13-0.1,0.19-0.14c0.15-0.13,0.4-0.09,0.53-0.26
		l-0.02,0.02c0.14-0.13,0.37-0.09,0.5-0.25l-0.02,0.01c0.14-0.13,0.37-0.09,0.5-0.25l-0.02,0.01c0.14-0.13,0.35-0.09,0.5-0.22
		c0.06-0.03,0.12-0.04,0.19-0.04c0.16-0.1,0.36-0.07,0.52-0.18c0.15-0.02,0.29-0.04,0.44-0.06c0.16-0.1,0.37-0.07,0.52-0.19
		c1.5,0.14,2.84-0.11,3.73-1.48c0.27-0.06,0.22-0.35,0.37-0.5c0.32-0.31,0.63-0.62,0.95-0.93c0.52-0.09,1.03,0.02,1.54,0.07
		c2.61,0.28,4.38-1.06,4.85-3.64c0.22-1.21,0.21-2.46,0.64-3.64c0.19-0.52,0.35-1.06,0.77-1.47c0.17-0.11,0.35-0.13,0.54-0.04
		c0.1,0.08,0.17,0.19,0.2,0.31c0.01,0.91-0.68,1.58-0.82,2.46c-0.14,0.87-0.14,1.74-0.21,2.6c-0.11,1.34-0.56,2.54-1.56,3.51
		c-0.8,0.77-1.6,1.55-2.33,2.39c-0.08,0.09-0.17,0.18-0.25,0.26c-0.4,0-0.81,0.01-1.21,0.01c-0.29-0.22-0.67,0.03-0.95-0.2
		c-0.23,0-0.46,0-0.69,0c-0.2,0.12-0.15,0.37-0.28,0.52c-0.3,0.3-0.61,0.6-0.91,0.9c-0.15,0.13-0.39,0.09-0.53,0.25l0.02-0.01
		C460.63,292.81,460.42,292.77,460.28,292.9z"/>
	<path style="fill-rule:evenodd;clip-rule:evenodd;fill:#024927;" d="M485.23,284.54c0.09-0.65,0.64-0.49,1.02-0.54
		c1.89-0.25,3.75-0.72,5.69-0.47c0.62,0.08,0.97,0.48,1.43,0.75c-0.69,0.9-1.69,0.9-2.68,0.89c-0.15,0-0.3-0.11-0.46-0.13
		c-0.8-0.12-1.56,0.08-2.31,0.31c0.64,0.36,1.34,0.08,2,0.15c2.28,0.25,4.58,0.38,6.6,1.66c0.44,1.19,0.19,1.86-0.99,2.69
		c-3.01-0.88-5.99-1.84-9.16-2.02c-0.84-0.05-1.08-0.86-1.14-1.61C485.19,285.66,485.23,285.1,485.23,284.54z"/>
	<path style="fill-rule:evenodd;clip-rule:evenodd;fill:#007041;" d="M465.32,291.01c0.4-1.21,1.49-1.82,2.31-2.65
		c1.02-1.03,1.52-2.24,1.5-3.63c-0.03-1.72,0.34-3.3,1.22-4.77c0.1-0.1,0.08-0.23,0.11-0.36c0.04-0.08,0.09-0.15,0.15-0.21
		c0.05-0.08,0.1-0.15,0.15-0.23c0.06-0.08,0.13-0.15,0.21-0.22c0.19-0.14,0.39-0.23,0.62-0.28c0.13-0.03,0.25-0.07,0.37-0.12
		c1.19-0.4,2.41-0.41,3.65-0.4c4.66,0.01,9.33,0.15,13.98-0.18c0.64-0.05,1.27-0.1,1.9,0.01c0.41,0.05,0.73,0.43,1.19,0.32
		c0.17-0.03,0.34-0.05,0.51-0.08c0.3,0,0.56-0.13,0.84-0.2c1-0.34,2.03-0.3,3.06-0.33c0.16,0.01,0.35,0.02,0.42,0.18
		c0.65,1.35,1.87,2.14,2.99,3.04c0.45,0.36,1.05,0.71,0.58,1.46c-0.15,0.02-0.29,0.03-0.44,0.05c-0.23,0.16-0.53,0.02-0.75,0.19
		c-0.24,0.02-0.48,0.03-0.72,0.05c-0.26,0.15-0.52,0.12-0.79,0.03c-0.1-0.06-0.22-0.11-0.29-0.2c-2.46-2.84-5.64-3.02-9.08-2.69
		c-2.93,0.28-5.9,0.08-8.85,0.1c-1.44,0.01-2.85-0.2-4.27-0.44c-1.11-0.18-2.23-0.12-3.31,0.23c-1.53,0.51-2.51,1.9-2.59,3.66
		c-0.05,0.99,0.05,1.99-0.12,2.98c-0.32,1.83-1.64,3.07-2.58,4.53c-0.3,0.27-0.67,0.15-1.01,0.19
		C465.96,291.17,465.64,291.17,465.32,291.01z"/>
	<path style="fill-rule:evenodd;clip-rule:evenodd;fill:#B4D787;" d="M509.96,299.39c-0.02,2.54,0.01,2.48-2.41,1.46
		c-2.26-0.95-4.55-1.85-6.9-2.58c-2.14-0.66-3.63-2.25-5.38-3.45c-0.9-0.62-1.85-1.23-2.68-1.97c-0.58-0.51-1.37-0.89-1.36-1.84
		c0.21-0.02,0.42-0.04,0.62-0.06c0.19-0.06,0.39-0.07,0.57-0.15c0.17,0,0.33-0.01,0.5-0.01c2.04,1.37,4.05,2.8,6.02,4.27
		c0.27,0.39,0.49,0.84,0.83,1.16c0.36,0.34,0.79,0.38,1.03-0.2c2.31,1.39,4.85,2.15,7.47,2.65
		C508.9,298.79,509.56,298.78,509.96,299.39z"/>
	<path style="fill-rule:evenodd;clip-rule:evenodd;fill:#005B33;" d="M495.33,283.33c-2.23-2.18-4.98-1.76-7.64-1.4
		c-1.8,0.24-3.59,0.01-5.36,0.21c-2.63,0.3-5.1,0.03-7.49-1.24c-1.21-0.64-2.42-0.02-3.12,1.03c-0.73,1.09-0.61,2.35,0.08,3.5
		c0.17,0.29,0.46,0.27,0.74,0.29c-0.03,0.45-0.14,0.88-0.49,1.2c-0.06,0.04-0.09,0.08-0.09,0.13c0,0.06,0.01,0.08,0.02,0.08
		c-0.06,0.09-0.13,0.18-0.19,0.26c-0.08,0.08-0.17,0.15-0.23,0.25l0.01,0c-0.06,0.04-0.09,0.08-0.09,0.13
		c0.01,0.06,0.02,0.08,0.04,0.08c-0.06,0.09-0.13,0.17-0.2,0.26c-0.09,0.08-0.18,0.15-0.24,0.24l0,0c-0.09,0.07-0.17,0.15-0.24,0.24
		l0,0c-0.09,0.07-0.18,0.14-0.24,0.25v0.01c-0.67-0.14-0.51-0.65-0.38-1.03c0.3-0.92,0.17-1.83-0.03-2.71
		c-0.77-3.32,1.27-6.56,5.9-5.3c3.43,0.94,6.85,0.76,10.33,0.6c2.09-0.1,4.18-0.61,6.31-0.11c1.28,0.3,2.42,0.79,3.47,1.54
		c0.41,0.29,0.71,0.65,0.54,1.21C496.33,283.4,495.82,283.31,495.33,283.33z"/>
	<path style="fill-rule:evenodd;clip-rule:evenodd;fill:#00653A;" d="M467.28,290.82c-0.11-0.67,0.23-1.14,0.65-1.6
		c1.19-1.29,1.78-2.8,1.72-4.57c-0.03-0.75-0.05-1.54,0.12-2.26c0.64-2.6,2.96-3.86,6.02-3.36c4.64,0.75,9.29,0.49,13.95,0.25
		c2.93-0.15,5.87-0.08,8.08,2.35c0.27,0.29,0.62,0.53,0.62,0.99c0.09,0.05,0.12,0.09,0.09,0.14c-0.03,0.05-0.06,0.07-0.09,0.07
		c-0.23,0.02-0.45,0.04-0.68,0.05c-0.47,0.09-0.72-0.24-1.01-0.51c-2.09-1.94-4.61-2.29-7.35-2.09c-4.32,0.32-8.66,0.9-12.95-0.28
		c-0.77-0.21-1.56-0.31-2.37-0.29c-2.31,0.06-3.8,1.54-3.84,3.86c-0.01,0.36-0.05,0.73,0.03,1.08c0.49,2.16-0.09,4.02-1.58,5.63
		l-0.02,0.01c-0.06,0.07-0.14,0.13-0.22,0.17C468.06,290.58,467.67,290.7,467.28,290.82z"/>
	<path style="fill-rule:evenodd;clip-rule:evenodd;fill:#CBDB33;" d="M481.26,288.39c-2.75,0.09-5.19-0.9-7.73-1.29
		c-0.22-0.03-0.53-0.11-0.49-0.41c0.07-0.45,0.45-0.65,0.86-0.7c0.9-0.1,1.81-0.12,2.72-0.22c2.35-0.26,4.75-0.16,7.04-0.94
		c0.1-0.04,0.29-0.06,0.34,0c0.58,0.76,0.1,1.76,0.6,2.58c0.25,0.42-0.32,0.45-0.55,0.57C483.13,288.44,482.12,288.41,481.26,288.39
		z"/>
	<path style="fill-rule:evenodd;clip-rule:evenodd;fill:#034827;" d="M455.02,290.73c-0.09,0.01-0.17,0.02-0.26,0.03
		c-0.13,0.14-0.36,0.09-0.48,0.24c-0.87,0.55-1.75,1.11-2.62,1.66c-0.08-0.06-0.16-0.13-0.23-0.2c-0.52-1.59-1.11,0.06-1.66-0.04
		c-0.08-0.04-0.15-0.08-0.24-0.11c-0.04-0.08-0.06-0.16-0.04-0.25c0.42-0.5,0.57-1.01,0.03-1.52c0.03-0.12,0.1-0.2,0.22-0.25
		c1.18,0.45,1.95-0.09,2.75-0.92c0.42-0.44,1.19-0.54,1.81-0.79c0.12-0.14,0.34-0.08,0.46-0.21c0.15-0.01,0.31-0.02,0.46-0.03
		c0.14-0.12,0.36-0.08,0.5-0.21c0.73,0,1.46,0,2.2,0c0.15,0.13,0.3,0.11,0.46,0.01c0.89,0.43,1.19-0.52,1.79-0.77
		c0.61-0.25,1.17-0.62,1.76-0.93c0.12,0.06,0.22,0.16,0.3,0.27c-0.67,0.78-1.45,1.48-1.98,2.34c-0.86,1.42-2.31,1.1-3.55,1.43
		c-0.15-0.1-0.31-0.12-0.46,0.01c-0.23,0.01-0.47,0.02-0.7,0.03C455.37,290.65,455.16,290.61,455.02,290.73z"/>
	<path style="fill-rule:evenodd;clip-rule:evenodd;fill:#65CADB;" d="M458.08,294.59c1.21-0.47,2.43-0.93,3.65-1.4
		c5.14-0.58,10.03-2.13,14.93-3.68c0.61-0.19,1.21-0.38,1.86-0.4c0.83-0.21,1.59,0.3,2.4,0.24c0.03,0.69-0.51,0.86-1,1
		c-5.89,1.7-11.66,3.87-17.81,4.54c-0.75,0.08-1.5,0.12-2.26,0.22C459.22,295.2,458.57,295.08,458.08,294.59z"/>
	<path style="fill-rule:evenodd;clip-rule:evenodd;fill:#016038;" d="M468.69,290.28c0.02-0.2-0.02-0.45,0.08-0.58
		c1.49-1.73,1.38-3.81,1.36-5.9c-0.04-2.93,1.86-4.71,4.73-4.28c3.02,0.46,6,1.1,9.09,0.86c1.7-0.13,3.42-0.11,5.11-0.31
		c3.35-0.4,6.33,0.23,8.71,2.8c-0.29,0.32-0.66,0.18-1,0.2c-0.59-1.76-4.92-2.79-7.14-2.58c-4.57,0.44-9.17,1.01-13.72-0.38
		c-3.58-1.09-6.13,1.23-5.32,4.84c0.3,1.34-0.21,2.61,0.03,3.91C470.13,289.55,469.5,290.03,468.69,290.28z"/>
	<path style="fill-rule:evenodd;clip-rule:evenodd;fill:#76CEDE;" d="M478.51,289.11c-3.05,1.37-6.29,2.15-9.48,3.05
		c-1.86,0.52-3.79,0.84-5.69,1.19c-0.52,0.1-1.11,0.22-1.61-0.16c0.98-0.92,2.06-1.45,3.47-1.26c1.95,0.26,3.49-0.86,5.12-1.66
		c1.84-0.63,3.67-1.31,5.58-1.7C476.79,288.63,477.69,288.68,478.51,289.11z"/>
	<path style="fill-rule:evenodd;clip-rule:evenodd;fill:#52C5D7;" d="M486.2,288.39c0.32,0.08,0.64,0.16,0.96,0.24
		c0.03,0.68-0.52,0.72-0.96,0.84c-4,1.08-7.93,2.39-11.9,3.55c-0.55,0.16-1.21,0.14-1.56,0.74c-3.13,0.63-6.28,1.13-9.35,2.04
		c-2.33,0.36-4.7,0.33-7.04,0.57c-0.72,0.07-1.43,0-2.1-0.32c-0.26-0.09-0.22-0.29-0.17-0.49c1.46-0.37,2.96-0.67,4.45-0.57
		c1.93,0.13,3.8-0.23,5.68-0.51c5.89-0.9,11.48-2.92,17.13-4.73c0.49-0.16,1.04-0.13,1.5-0.4c0.96-0.26,1.91-0.53,2.87-0.79
		C485.89,288.58,486.04,288.48,486.2,288.39z"/>
	<path style="fill-rule:evenodd;clip-rule:evenodd;fill:#01804E;" d="M501.08,282.33c0.03-1.12-1.03-1.3-1.63-1.84
		c-0.88-0.79-1.89-1.45-2.24-2.68c-0.26,0.17-0.45,0.09-0.6-0.16c-0.04-0.12-0.05-0.24-0.03-0.36c0.21-0.52,0.62-0.87,1.06-1.19
		c0.9-0.41,1.19,0.31,1.55,0.85c0.81,1.26,1.81,2.3,3.25,2.82c0.52,0.19,1.03,0.35,1.62,0.22c0.44-0.1,0.87,0.01,1.11,0.48
		c0.01,0.07,0,0.14-0.04,0.21c-0.13,0.15-0.1,0.36-0.2,0.53c-0.05,0.14-0.1,0.29-0.15,0.43c-0.26,0.08-0.22,0.37-0.35,0.53
		C503.34,282.57,502.2,282.28,501.08,282.33z"/>
	<path style="fill-rule:evenodd;clip-rule:evenodd;fill:#028A58;" d="M505.18,280.47c-0.7-0.51-1.45,0.07-2.19-0.14
		c-1.79-0.5-3.06-1.59-4.03-3.14c-0.27-0.43-0.35-1.28-1.25-0.84c-0.31-0.38-0.08-0.76,0-1.14c0.16-0.41,0.21-0.82,0.02-1.24
		c-0.2-0.65-0.38-1.31-0.67-1.92c-0.09-0.1-0.21-0.15-0.36-0.13c-0.27,0.05-0.49-0.03-0.69-0.19c-0.1-0.07-0.21-0.14-0.35-0.16
		c-0.08,0.02-0.17,0.03-0.25,0.06c-0.09,0.03-0.18,0.04-0.28,0.04c-0.05-0.01-0.1-0.02-0.15-0.03c-0.98-0.64-0.16-0.88,0.27-1.2
		c0.1-0.05,0.2-0.09,0.3-0.12c0.21-0.07,0.42-0.15,0.64-0.2c0.98-0.17,1.69,0.18,2.13,1.07c0.08,0.2,0.15,0.4,0.22,0.6
		c0.04,0.09,0.08,0.19,0.12,0.28c0.08,0.18,0.16,0.35,0.25,0.52c0.14,0.26,0.37,0.44,0.59,0.61c0.16,0.13,0.32,0.26,0.47,0.4
		c0.08,0.08,0.14,0.16,0.2,0.26c0.27,0.57-0.02,1.17,0.09,1.76c0.3,1.57,1.36,2.45,2.66,3.15c0.27,0.21,0.46,0.51,0.77,0.69
		c0.12,0.06,0.25,0.11,0.39,0.13c0.14-0.01,0.26-0.04,0.37-0.12c0.17-0.17,0.2-0.41,0.32-0.6c0.1-0.12,0.2-0.21,0.37-0.12
		c0.04,0.04,0.05,0.09,0.04,0.15c0.12,0.52,0.16,1.03-0.02,1.54L505.18,280.47z"/>
	<path style="fill-rule:evenodd;clip-rule:evenodd;fill:#017E50;" d="M469.88,279.71c-0.71,1.57-0.92,3.27-1.19,4.95
		c-0.56,3.59-3.3,5.09-6.74,3.71l0.03-0.03c0.07-0.07,0.13-0.13,0.2-0.2l0.04-0.04c0.07-0.07,0.13-0.13,0.2-0.2l0.04-0.04
		c0.07-0.07,0.14-0.13,0.21-0.19c0.38-0.33,0.77-0.66,1.15-0.99c0.14-0.11,0.31-0.12,0.47-0.11c1.48,0.13,2.69-0.22,3.16-1.83
		c0.08-0.13,0.16-0.26,0.23-0.39c-0.01-1.48,0.27-2.93,0.53-4.38c0.12-0.68,0.45-1.29,1.26-1.41c0.12,0,0.24,0.03,0.34,0.09
		c0.25,0.21,0.19,0.51,0.2,0.79C470.01,279.54,469.96,279.63,469.88,279.71z"/>
	<path style="fill-rule:evenodd;clip-rule:evenodd;fill:#52C5D8;" d="M482.83,289.35c-0.35,0.58-1.01,0.67-1.54,0.82
		c-4.64,1.29-9.17,2.98-13.88,3.99c-3.06,0.66-6.16,1.18-9.31,1.18c-1.34,0-2.68,0.15-4.02,0.23c-0.03-0.2-0.08-0.43,0.19-0.47
		c1.27-0.18,2.54-0.34,3.82-0.51c4.71,0.37,9.19-0.85,13.65-2.1c2.6-0.73,5.18-1.55,7.77-2.34c0.52-0.16,1.1-0.25,1.42-0.79
		C481.55,289.35,482.19,289.35,482.83,289.35z"/>
	<path style="fill-rule:evenodd;clip-rule:evenodd;fill:#0B8C5E;" d="M469.87,278.76c-1.3,0.03-1.25,1.06-1.43,1.93
		c-0.25,1.22-0.04,2.53-0.74,3.66c-1.2-0.8-1.69-1.82-0.93-3.19c0.7-1.41,1.34-2.86,2.38-4.08c1.04-0.09,2.04-0.45,3.09-0.45
		c0.57,0.2,1.11,0.01,1.66-0.1c1.19,0.17,2.35-0.53,3.54-0.09c0.38,0.88-0.36,0.94-0.83,0.94c-1.13,0.01-2.21,0.31-3.32,0.4
		c-0.53,0.04-1.04,0.09-1.35,0.6c-0.08,0.23-0.21,0.44-0.38,0.62l-0.12,0l-0.12,0c-0.1-0.07-0.2-0.15-0.27-0.25
		c-0.06-0.05-0.13-0.1-0.2-0.13c-0.13-0.03-0.26-0.02-0.39,0.01C470.26,278.68,470.08,278.77,469.87,278.76z"/>
	<path style="fill-rule:evenodd;clip-rule:evenodd;fill:#016D3F;" d="M502.44,292.93c-0.64-0.06-0.84-0.74-1.36-0.97
		c-0.13-0.14-0.34-0.08-0.47-0.22c-0.16,0-0.31,0-0.47,0c-0.18,0.12-0.13,0.34-0.23,0.5c-0.01,0.62-0.02,1.24-0.03,1.86
		c-0.08,0.15-0.16,0.15-0.24,0c-0.09-0.78-0.17-1.56-0.26-2.33c-0.1-0.21-0.36-0.15-0.5-0.29c-0.46-0.12-0.89-0.3-1.2-0.68
		c-0.05-0.79,0.33-1.42,0.77-2.01c0.38,0.01,0.75,0.02,1.13,0.03c0.23-0.16,0.53-0.03,0.76-0.19c0.18-0.02,0.35-0.03,0.53-0.05
		c0.22-0.04,0.29,0.06,0.24,0.27c-0.02,0.2,0,0.38,0.21,0.48c0.13,0.13,0.34,0.08,0.47,0.21c0.09,0.02,0.18,0.03,0.26,0.05
		c0.14,0.12,0.35,0.08,0.5,0.19c0.15,0.02,0.31,0.03,0.46,0.05c0.14,0.12,0.35,0.08,0.5,0.19c1.01,0.06,1.97,0.32,2.88,0.76
		c0.06,0.11,0.04,0.21-0.06,0.28c-1.27-0.02-2.44-0.68-3.74-0.55c-0.51,0.05-0.87,0.11-0.78,0.73c0.13,0.13,0.07,0.34,0.2,0.47
		c0.17,0.31,0.34,0.62,0.51,0.93C502.65,292.78,502.63,292.88,502.44,292.93z"/>
	<path style="fill-rule:evenodd;clip-rule:evenodd;fill:#42C2D5;" d="M472.73,293.76c-0.66-0.79,0.28-0.71,0.52-0.79
		c2.95-0.93,5.93-1.76,8.88-2.71c1.68-0.54,3.51-0.61,5.03-1.63c0.67-0.2,1.26,0.29,1.92,0.24c0.02,0.68-0.53,0.69-0.97,0.79
		c-1.54,0.35-3.07,0.74-4.6,1.15c-0.4,0.11-0.87,0.18-1.14,0.57C479.14,292.14,476,293.21,472.73,293.76z"/>
	<path style="fill-rule:evenodd;clip-rule:evenodd;fill:#B9D98C;" d="M498.95,295.07c-0.04,0-0.09,0.02-0.12,0
		c-2.17-1.15-4.22-2.46-5.9-4.27c2.04-0.76,3.67,0.39,5.24,1.33C499.15,292.72,498.81,294.05,498.95,295.07z"/>
	<path style="fill-rule:evenodd;clip-rule:evenodd;fill:#11A16F;" d="M505.15,278.76c-0.08,0.08-0.16,0.15-0.25,0.23
		c-0.09,0.08-0.19,0.1-0.3,0.05c-0.4-0.32-0.87-0.47-1.37-0.57c-2.12-0.95-2.75-2.03-2.31-3.92c0.07-0.11,0.16-0.19,0.27-0.25
		c0.73-0.22,1.07,0.4,1.54,0.72c0.54,0.63,1.28,1.09,1.67,1.86C504.63,277.52,505.18,278.03,505.15,278.76z"/>
	<path style="fill-rule:evenodd;clip-rule:evenodd;fill:#3DC1D4;" d="M454.25,296.05c2.34-0.16,4.68-0.34,7.02-0.47
		c0.71-0.04,1.44-0.18,2.11,0.22c-0.87,0.41-1.73,0.82-2.6,1.23c-0.87-0.29-1.71,0.17-2.58,0.11c-0.67-0.05-1.35,0-2.01-0.11
		C455.59,296.61,454.65,296.87,454.25,296.05z"/>
	<path style="fill-rule:evenodd;clip-rule:evenodd;fill:#30BDD0;" d="M482.36,291.38c0.54-1.17,1.79-0.93,2.72-1.33
		c1.28-0.54,2.78-0.4,4-1.18c0.88,0.24,1.76,0.48,2.64,0.72c0.09,0.04,0.12,0.08,0.09,0.11c-0.03,0.04-0.06,0.06-0.09,0.06
		c-2.33,0.38-4.65,0.77-6.98,1.15c-0.24-0.04-0.48-0.1-0.7,0.06c-0.12,0.01-0.23,0.02-0.35,0.04c-0.27,0.14-0.59,0.03-0.85,0.2
		C482.68,291.27,482.52,291.33,482.36,291.38z"/>
	<path style="fill-rule:evenodd;clip-rule:evenodd;fill:#F6B63B;" d="M504.42,283.52c0.43,0.43,0.87,0.86,1.3,1.29
		c-3.11,0.28-6.22,0.78-9.35,0.21c-0.14-0.03-0.28-0.09-0.42-0.14c0.16-0.04,0.33-0.12,0.49-0.11
		C499.18,284.81,501.85,284.47,504.42,283.52z"/>
	<path style="fill-rule:evenodd;clip-rule:evenodd;fill:#83D2E1;" d="M475.9,288.56c-1.73,0.99-3.58,1.58-5.58,1.7
		c0.52-0.62,1.32-0.94,1.68-1.74c0.36-0.82,1.02-1,1.86-0.66C474.52,288.13,475.22,288.33,475.9,288.56z"/>
	<path style="fill-rule:evenodd;clip-rule:evenodd;fill:#025630;" d="M498.46,288.79c0.09,0.8-0.33,1.41-0.77,2.01
		c-0.07-0.01-0.15-0.03-0.21-0.06c-0.08-0.09-0.17-0.16-0.28-0.21c-0.64-0.01-1.15-0.35-1.65-0.69c0.42-0.86,1.2-1.59,0.99-2.69
		C497.26,287.59,498.12,287.88,498.46,288.79z"/>
	<path style="fill-rule:evenodd;clip-rule:evenodd;fill:#1DBDD0;" d="M456.19,297.03c1.38-0.56,2.87-0.1,4.28-0.44
		c0.07-0.02,0.21,0.29,0.32,0.44l0-0.02c-0.16,0.12-0.43,0.08-0.49,0.34c-0.89,0.59-1.63,1.42-2.66,1.8l0.01,0.02
		C457.78,298.03,456.78,297.67,456.19,297.03z"/>
	<path style="fill-rule:evenodd;clip-rule:evenodd;fill:#284936;" d="M501.83,287.61c-0.25,0.09-0.5,0.18-0.75,0.27
		c-0.73,0.19-1.45,0.18-2.18,0c-0.6-0.35-1.34-0.51-1.69-1.21c-0.07-0.08-0.14-0.15-0.22-0.22c-0.32-0.04-0.6-0.16-0.71-0.49
		l-0.01,0.01c1.96-0.08,3.63,1.14,5.56,1.23C501.94,287.34,501.94,287.48,501.83,287.61z"/>
	<path style="fill-rule:evenodd;clip-rule:evenodd;fill:#09895B;" d="M467.46,284.74c0.61,0.77-0.17,1.23-0.53,1.54
		c-0.72,0.6-1.61,1-2.58,0.39c-0.12-0.11-0.12-0.22,0-0.33C465.25,285.54,466.3,285.02,467.46,284.74z"/>
	<path style="fill-rule:evenodd;clip-rule:evenodd;fill:#23502D;" d="M499.86,284.04c-0.55,0-1.16,0.01-1.16-0.37
		c0-0.36,0.62-0.36,1.02-0.35c0.08,0,0.17-0.02,0.24,0c0.63,0.26,1.64-0.82,1.8,0.15C501.85,283.97,500.43,283.85,499.86,284.04z"/>
	<path style="fill-rule:evenodd;clip-rule:evenodd;fill:#084829;" d="M451.67,297.7c0.14,0,0.28,0,0.42,0c0,0.73,0,1.46,0.01,2.18
		c-0.07,0.06-0.14,0.06-0.21,0C451.8,299.16,451.49,298.46,451.67,297.7z"/>
	<path style="fill-rule:evenodd;clip-rule:evenodd;fill:#081913;" d="M504.41,276.88c-0.57-0.57-1.13-1.13-1.7-1.7
		c0.09-0.13,0.19-0.14,0.3-0.03c0.47,0.47,0.95,0.95,1.42,1.42C504.43,276.68,504.42,276.78,504.41,276.88z"/>
	<path style="fill-rule:evenodd;clip-rule:evenodd;fill:#5A5354;" d="M447.33,299.89c-0.06-0.72,0.4-1.24,0.72-1.81
		c0,0,0.05,0.11,0.05,0.11c0.04,0.1,0.03,0.19-0.05,0.26c-0.04,0.58-0.33,1.03-0.73,1.43L447.33,299.89z"/>
	<path style="fill-rule:evenodd;clip-rule:evenodd;fill:#948E8F;" d="M450.7,298.63c-0.24,0-0.54,0.04-0.58-0.26
		c-0.02-0.13,0.18-0.37,0.33-0.41c0.43-0.12,0.41,0.22,0.42,0.5C450.83,298.54,450.77,298.59,450.7,298.63z"/>
	<path style="fill-rule:evenodd;clip-rule:evenodd;fill:#BEBABB;" d="M447.78,295.53c-0.65,0-1.31,0.17-1.95-0.09
		c0.64-0.26,1.3-0.09,1.95-0.09c0.1,0.04,0.13,0.08,0.1,0.12C447.85,295.51,447.81,295.53,447.78,295.53z"/>
	<path style="fill-rule:evenodd;clip-rule:evenodd;fill:#022211;" d="M498.91,287.88c0.73,0,1.45,0,2.18,0
		C500.36,288.26,499.64,288.26,498.91,287.88z"/>
	<path style="fill-rule:evenodd;clip-rule:evenodd;fill:#24BED2;" d="M503.24,286c0,0.06,0,0.11,0,0.17c-0.55,0-1.1,0-1.66,0
		c-0.1-0.04-0.13-0.08-0.1-0.12c0.03-0.04,0.07-0.06,0.1-0.06c0.24-0.02,0.47-0.03,0.71-0.05
		C502.62,285.82,502.94,285.74,503.24,286z"/>
	<path style="fill-rule:evenodd;clip-rule:evenodd;fill:#696765;" d="M447.78,295.53c0.02-0.06,0.02-0.12,0-0.19
		c0.55,0,1.11,0.01,1.66,0.02c0.01,0.06,0,0.12,0,0.18C448.89,295.54,448.33,295.54,447.78,295.53z"/>
	<path style="fill-rule:evenodd;clip-rule:evenodd;fill:#5D919A;" d="M503.24,286c-0.32-0.02-0.63-0.03-0.95-0.05
		c0.54-0.24,1.12-0.23,1.69-0.2C503.74,285.83,503.49,285.91,503.24,286z"/>
	<path style="fill-rule:evenodd;clip-rule:evenodd;fill:#437B60;" d="M505.17,280.46c0.01-0.51,0.01-1.03,0.02-1.54
		C505.5,279.43,505.53,279.95,505.17,280.46z"/>
	<path style="fill-rule:evenodd;clip-rule:evenodd;fill:#605E5B;" d="M501.83,287.61c0-0.14,0-0.28,0-0.41
		c0.26,0.01,0.53,0.02,0.79,0.03C502.43,287.51,502.15,287.59,501.83,287.61z"/>
	<path style="fill-rule:evenodd;clip-rule:evenodd;fill:#6E6768;" d="M463.39,285.71c-0.1,0.32-0.29,0.53-0.63,0.56
		c-0.03,0-0.12-0.14-0.11-0.15c0.2-0.23,0.42-0.44,0.76-0.39L463.39,285.71z"/>
	<path style="fill-rule:evenodd;clip-rule:evenodd;fill:#48574C;" d="M501.11,288.85c-0.08-0.09-0.16-0.18-0.24-0.27
		c0.18-0.27,0.44-0.25,0.7-0.21c0.08,0.06,0.1,0.11,0.07,0.15c-0.03,0.04-0.06,0.07-0.09,0.07
		C501.41,288.69,501.26,288.77,501.11,288.85z"/>
	<path style="fill-rule:evenodd;clip-rule:evenodd;fill:#416452;" d="M452.82,296.54c0.09-0.1,0.19-0.2,0.28-0.29
		c0.15,0.25,0.3,0.5,0.45,0.75l0,0C453.19,297.04,452.99,296.82,452.82,296.54z"/>
	<path style="fill-rule:evenodd;clip-rule:evenodd;fill:#416B52;" d="M465.32,291.01c0.32,0,0.63,0,0.95,0
		c-0.26,0.32-0.61,0.23-0.95,0.19C465.32,291.14,465.32,291.08,465.32,291.01z"/>
	<path style="fill-rule:evenodd;clip-rule:evenodd;fill:#41614D;" d="M463.16,291.01c0.33,0.02,0.69-0.12,0.95,0.2
		C463.77,291.25,463.43,291.33,463.16,291.01z"/>
	<path style="fill-rule:evenodd;clip-rule:evenodd;fill:#4C6B5B;" d="M506.34,291.06c0.02-0.09,0.04-0.19,0.06-0.28
		c0.19,0.12,0.39,0.25,0.58,0.37C506.74,291.3,506.53,291.25,506.34,291.06z"/>
	<path style="fill-rule:evenodd;clip-rule:evenodd;fill:#645D5E;" d="M449.48,292.46c-0.16,0.15-0.32,0.3-0.48,0.44l0.01,0.01
		c-0.02-0.38,0.23-0.61,0.47-0.85c0.03,0.04,0.04,0.08,0.02,0.13c0.06,0.06,0.07,0.12,0.05,0.18
		C449.52,292.43,449.5,292.46,449.48,292.46z"/>
	<path style="fill-rule:evenodd;clip-rule:evenodd;fill:#645D5E;" d="M449.72,294.13c-0.12,0.28-0.37,0.31-0.52,0.13
		c-0.11-0.14,0.07-0.33,0.27-0.38c0,0,0.1,0.01,0.1,0.01c0.06,0.03,0.11,0.08,0.14,0.14C449.71,294.03,449.72,294.13,449.72,294.13z
		"/>
	<path style="fill-rule:evenodd;clip-rule:evenodd;fill:#6E6768;" d="M503.26,288.31c-0.31,0.02-0.45,0.05-0.6,0.04
		c-0.08-0.01-0.15-0.09-0.22-0.14c0.14-0.03,0.29-0.07,0.43-0.07C502.95,288.14,503.03,288.2,503.26,288.31z"/>
	<path style="fill-rule:evenodd;clip-rule:evenodd;fill:#42C2D5;" d="M482.84,291.22c0.23-0.27,0.55-0.2,0.85-0.2
		C483.45,291.28,483.15,291.25,482.84,291.22z"/>
	<path style="fill-rule:evenodd;clip-rule:evenodd;fill:#3E664E;" d="M500.34,288.63c-0.2,0.26-0.49,0.19-0.76,0.19
		C499.79,288.54,500.07,288.6,500.34,288.63z"/>
	<path style="fill-rule:evenodd;clip-rule:evenodd;fill:#42C2D5;" d="M484.04,290.98c0.21-0.26,0.44-0.28,0.7-0.06
		C484.5,290.94,484.27,290.96,484.04,290.98z"/>
	<path style="fill-rule:evenodd;clip-rule:evenodd;fill:#365945;" d="M498.44,282.82c0-0.07,0-0.14,0-0.21c0.25,0,0.49,0,0.74,0.01
		C498.98,282.86,498.72,282.86,498.44,282.82z"/>
	<path style="fill-rule:evenodd;clip-rule:evenodd;fill:#C7C3C4;" d="M448.06,290.07c0.23,0,0.45,0,0.67,0
		c0.1,0.04,0.13,0.08,0.1,0.12c-0.03,0.04-0.06,0.06-0.1,0.06c-0.22,0-0.45,0-0.67,0c-0.1-0.04-0.13-0.08-0.1-0.12
		C448,290.09,448.03,290.07,448.06,290.07z"/>
	<path style="fill-rule:evenodd;clip-rule:evenodd;fill:#405B4A;" d="M451.87,296.79c0,0.25,0.05,0.52-0.2,0.69
		C451.62,297.21,451.6,296.96,451.87,296.79z"/>
	<path style="fill-rule:evenodd;clip-rule:evenodd;fill:#436D55;" d="M499.9,282.57c0.2-0.27,0.48-0.2,0.75-0.19
		C500.45,282.66,500.17,282.59,499.9,282.57z"/>
	<path style="fill-rule:evenodd;clip-rule:evenodd;fill:#456350;" d="M455.01,294.09c0.19-0.26,0.46-0.2,0.72-0.19
		C455.55,294.17,455.28,294.13,455.01,294.09z"/>
	<path style="fill-rule:evenodd;clip-rule:evenodd;fill:#CDC97A;" d="M447.81,281.35c0.22-0.23,0.5-0.19,0.77-0.17
		C448.32,281.24,448.06,281.29,447.81,281.35z"/>
	<path style="fill-rule:evenodd;clip-rule:evenodd;fill:#6E6768;" d="M448.06,290.07c-0.01,0.06-0.01,0.12,0,0.18
		c-0.2-0.03-0.43,0.16-0.57-0.12C447.68,290.11,447.87,290.09,448.06,290.07z"/>
	<path style="fill-rule:evenodd;clip-rule:evenodd;fill:#52C5D8;" d="M486.2,288.39c-0.13,0.15-0.19,0.51-0.49,0.17
		C485.8,288.3,486,288.35,486.2,288.39z"/>
	<path style="fill-rule:evenodd;clip-rule:evenodd;fill:#CDC97A;" d="M452.37,280.86c0.22-0.22,0.5-0.18,0.77-0.16
		C452.88,280.75,452.63,280.81,452.37,280.86z"/>
	<path style="fill-rule:evenodd;clip-rule:evenodd;fill:#405B4A;" d="M454.03,294.35c0.17-0.27,0.44-0.23,0.71-0.22
		C454.56,294.41,454.29,294.37,454.03,294.35z"/>
	<path style="fill-rule:evenodd;clip-rule:evenodd;fill:#C7C3C4;" d="M449.47,293.88c0.15-0.07,0.3-0.13,0.45-0.2
		c-0.07,0.15-0.13,0.3-0.2,0.45c0.01-0.07,0-0.13-0.03-0.18l-0.03-0.03l-0.09-0.03L449.47,293.88z"/>
	<path style="fill-rule:evenodd;clip-rule:evenodd;fill:#C6C4C5;" d="M501.58,285.99c0,0.06,0,0.12,0,0.17
		c-0.22-0.03-0.44-0.06-0.67-0.08C501.14,286.05,501.36,286.02,501.58,285.99z"/>
	<path style="fill-rule:evenodd;clip-rule:evenodd;fill:#405B4A;" d="M457.64,293.62c0.17-0.26,0.44-0.21,0.69-0.21
		C458.16,293.68,457.91,293.66,457.64,293.62z"/>
	<path style="fill-rule:evenodd;clip-rule:evenodd;fill:#405646;" d="M455.02,290.73c0.16-0.07,0.33-0.14,0.49-0.21
		C455.35,290.6,455.19,290.67,455.02,290.73z"/>
	<path style="fill-rule:evenodd;clip-rule:evenodd;fill:#405646;" d="M454.28,291c0.16-0.08,0.32-0.16,0.48-0.24
		C454.6,290.85,454.44,290.93,454.28,291z"/>
	<path style="fill-rule:evenodd;clip-rule:evenodd;fill:#B0D586;" d="M492.43,290.81c-0.19,0.05-0.38,0.1-0.57,0.15
		C492.01,290.75,492.22,290.78,492.43,290.81z"/>
	<path style="fill-rule:evenodd;clip-rule:evenodd;fill:#486D57;" d="M462.2,291.54c0.01-0.22,0.02-0.44,0.28-0.52
		C462.38,291.19,462.29,291.36,462.2,291.54z"/>
	<path style="fill-rule:evenodd;clip-rule:evenodd;fill:#496D57;" d="M456.91,291.28c-0.17,0.06-0.35,0.12-0.52,0.19
		C456.5,291.25,456.7,291.24,456.91,291.28z"/>
	<path style="fill-rule:evenodd;clip-rule:evenodd;fill:#435D4D;" d="M502.02,291.71c-0.07-0.16-0.13-0.31-0.2-0.47
		C501.88,291.4,501.95,291.55,502.02,291.71z"/>
	<path style="fill-rule:evenodd;clip-rule:evenodd;fill:#496D57;" d="M455.95,291.52c-0.17,0.06-0.35,0.12-0.52,0.18
		C455.54,291.49,455.74,291.48,455.95,291.52z"/>
	<path style="fill-rule:evenodd;clip-rule:evenodd;fill:#9FCF7A;" d="M486.91,291.53c-0.17,0.06-0.34,0.11-0.51,0.17
		C486.57,291.64,486.74,291.59,486.91,291.53z"/>
	<path style="fill-rule:evenodd;clip-rule:evenodd;fill:#3D5B49;" d="M498.88,291.48c0.21,0.01,0.42,0.03,0.5,0.29
		C499.21,291.67,499.05,291.57,498.88,291.48z"/>
	<path style="fill-rule:evenodd;clip-rule:evenodd;fill:#5A5354;" d="M503,291.49c0.11,0.02,0.23,0.04,0.34,0.05
		c-0.02,0.05-0.05,0.09-0.07,0.14c-0.09-0.07-0.17-0.13-0.26-0.2L503,291.49z"/>
	<path style="fill-rule:evenodd;clip-rule:evenodd;fill:#496D57;" d="M455.24,291.74c-0.17,0.07-0.33,0.15-0.5,0.22
		C454.84,291.73,455.04,291.72,455.24,291.74z"/>
	<path style="fill-rule:evenodd;clip-rule:evenodd;fill:#9FCF7A;" d="M485.71,291.77c-0.17,0.06-0.34,0.12-0.52,0.17
		C485.37,291.88,485.54,291.82,485.71,291.77z"/>
	<path style="fill-rule:evenodd;clip-rule:evenodd;fill:#405C4A;" d="M499.91,292.24c-0.02-0.21-0.01-0.41,0.23-0.5
		C500.06,291.9,499.99,292.07,499.91,292.24z"/>
	<path style="fill-rule:evenodd;clip-rule:evenodd;fill:#395142;" d="M500.61,291.73c0.16,0.07,0.32,0.15,0.47,0.22
		C500.93,291.88,500.77,291.81,500.61,291.73z"/>
	<path style="fill-rule:evenodd;clip-rule:evenodd;fill:#496D57;" d="M454.76,291.94c-0.17,0.08-0.33,0.17-0.5,0.25
		C454.43,292.11,454.6,292.03,454.76,291.94z"/>
	<path style="fill-rule:evenodd;clip-rule:evenodd;fill:#496D57;" d="M454.28,292.18c-0.17,0.08-0.33,0.17-0.5,0.25
		C453.87,292.2,454.08,292.2,454.28,292.18z"/>
	<path style="fill-rule:evenodd;clip-rule:evenodd;fill:#445E4D;" d="M453.8,292.42c-0.18,0.09-0.35,0.17-0.53,0.26
		C453.45,292.6,453.62,292.51,453.8,292.42z"/>
	<path style="fill-rule:evenodd;clip-rule:evenodd;fill:#3B5244;" d="M460.76,292.69c0.17-0.08,0.35-0.17,0.53-0.25
		C461.11,292.52,460.93,292.61,460.76,292.69z"/>
	<path style="fill-rule:evenodd;clip-rule:evenodd;fill:#3B5244;" d="M460.28,292.9c0.16-0.07,0.33-0.15,0.49-0.22
		C460.61,292.75,460.44,292.83,460.28,292.9z"/>
	<path style="fill-rule:evenodd;clip-rule:evenodd;fill:#6E6768;" d="M502.44,292.93c0.03-0.1,0.05-0.19,0.08-0.29
		c0.22,0.11,0.28,0.29,0.23,0.52l0.01-0.01C502.66,293.08,502.55,293,502.44,292.93z"/>
	<path style="fill-rule:evenodd;clip-rule:evenodd;fill:#445E4D;" d="M453.08,292.83c-0.07,0.28-0.29,0.32-0.53,0.34
		C452.73,293.05,452.9,292.94,453.08,292.83z"/>
	<path style="fill-rule:evenodd;clip-rule:evenodd;fill:#445E4D;" d="M458.85,293.37c0.16-0.07,0.31-0.13,0.47-0.2
		C459.16,293.24,459,293.31,458.85,293.37z"/>
	<path style="fill-rule:evenodd;clip-rule:evenodd;fill:#3B5243;" d="M452.36,293.33c-0.07,0.27-0.29,0.31-0.52,0.32
		C452.01,293.54,452.18,293.43,452.36,293.33z"/>
	<path style="fill-rule:evenodd;clip-rule:evenodd;fill:#496D57;" d="M456.45,293.84c0.17-0.06,0.35-0.12,0.52-0.19
		C456.85,293.87,456.66,293.88,456.45,293.84z"/>
	<path style="fill-rule:evenodd;clip-rule:evenodd;fill:#3B5243;" d="M451.4,294.04c-0.07,0.27-0.29,0.31-0.52,0.32
		C451.05,294.25,451.22,294.15,451.4,294.04z"/>
	<path style="fill-rule:evenodd;clip-rule:evenodd;fill:#5A5354;" d="M499.64,294.1c0.08,0,0.16,0,0.24,0
		c-0.03,0.1-0.05,0.21-0.08,0.31C499.75,294.31,499.69,294.2,499.64,294.1z"/>
	<path style="fill-rule:evenodd;clip-rule:evenodd;fill:#496D57;" d="M453.31,294.62c0.11-0.23,0.32-0.25,0.54-0.24
		C453.67,294.46,453.49,294.54,453.31,294.62z"/>
	<path style="fill-rule:evenodd;clip-rule:evenodd;fill:#496D57;" d="M452.85,294.87c0.08-0.23,0.28-0.26,0.48-0.27
		C453.17,294.69,453.01,294.78,452.85,294.87z"/>
	<path style="fill-rule:evenodd;clip-rule:evenodd;fill:#445E4D;" d="M450.44,294.77c-0.08,0.27-0.3,0.3-0.53,0.31
		C450.09,294.98,450.26,294.88,450.44,294.77z"/>
	<path style="fill-rule:evenodd;clip-rule:evenodd;fill:#445E4D;" d="M453.06,296.04c-0.07-0.16-0.14-0.33-0.2-0.49
		C452.92,295.71,452.99,295.87,453.06,296.04z"/>
	<path style="fill-rule:evenodd;clip-rule:evenodd;fill:#496D57;" d="M450.67,296.6c0.07-0.26,0.26-0.32,0.49-0.31
		C451,296.4,450.84,296.5,450.67,296.6z"/>
	<path style="fill-rule:evenodd;clip-rule:evenodd;fill:#46795F;" d="M504.94,281.21c0.07-0.18,0.13-0.35,0.2-0.53
		C505.08,280.86,505.01,281.04,504.94,281.21z"/>
	<path style="fill-rule:evenodd;clip-rule:evenodd;fill:#496D57;" d="M448.76,296.94c-0.01,0.24-0.05,0.46-0.33,0.54
		C448.54,297.31,448.65,297.13,448.76,296.94z"/>
	<path style="fill-rule:evenodd;clip-rule:evenodd;fill:#445E4D;" d="M449.72,297.36c0.05-0.28,0.26-0.35,0.5-0.37
		C450.05,297.11,449.89,297.24,449.72,297.36z"/>
	<path style="fill-rule:evenodd;clip-rule:evenodd;fill:#3DC1D4;" d="M460.29,297.36c0.06-0.26,0.25-0.35,0.49-0.34
		C460.62,297.13,460.45,297.24,460.29,297.36z"/>
	<path style="fill-rule:evenodd;clip-rule:evenodd;fill:#CDC97A;" d="M449.97,281.1c0.18-0.05,0.37-0.1,0.55-0.15
		C450.38,281.16,450.18,281.13,449.97,281.1z"/>
	<path style="fill-rule:evenodd;clip-rule:evenodd;fill:#436753;" d="M504.44,282.17c0.01-0.25,0.07-0.46,0.35-0.53
		C504.67,281.82,504.55,281.99,504.44,282.17z"/>
	<path style="fill-rule:evenodd;clip-rule:evenodd;fill:#445E4D;" d="M448.52,298.3c0.07-0.29,0.29-0.33,0.53-0.34
		C448.87,298.07,448.69,298.19,448.52,298.3z"/>
	<path style="fill-rule:evenodd;clip-rule:evenodd;fill:#5A5354;" d="M463.87,285.48c-0.1,0.21-0.26,0.27-0.48,0.23l0.02,0.02
		c0.05-0.29,0.29-0.22,0.48-0.24L463.87,285.48z"/>
	<path style="fill-rule:evenodd;clip-rule:evenodd;fill:#40735B;" d="M464.35,286.33c0,0.11,0,0.22,0,0.33
		c-0.17,0.01-0.35,0.01-0.52,0.02C464,286.56,464.17,286.45,464.35,286.33z"/>
	<path style="fill-rule:evenodd;clip-rule:evenodd;fill:#496D57;" d="M459.57,293.12c0.16-0.06,0.32-0.13,0.47-0.19
		C459.95,293.16,459.77,293.16,459.57,293.12z"/>
	<path style="fill-rule:evenodd;clip-rule:evenodd;fill:#405646;" d="M455.7,288.14c-0.17,0.07-0.33,0.14-0.5,0.21
		C455.37,288.28,455.54,288.21,455.7,288.14z"/>
	<path style="fill-rule:evenodd;clip-rule:evenodd;fill:#405646;" d="M458.36,288.15c-0.16,0.21-0.31,0.24-0.46-0.01
		C458.05,288.15,458.2,288.15,458.36,288.15z"/>
	<path style="fill-rule:evenodd;clip-rule:evenodd;fill:#3C4C40;" d="M454.75,288.38c-0.15,0.07-0.31,0.14-0.46,0.21
		C454.44,288.52,454.59,288.45,454.75,288.38z"/>
	<path style="fill-rule:evenodd;clip-rule:evenodd;fill:#C7C3C4;" d="M501.56,288.6c-0.02-0.08-0.01-0.15,0.02-0.22
		c0.1,0.04,0.2,0.08,0.3,0.11C501.77,288.53,501.66,288.57,501.56,288.6z"/>
	<path style="fill-rule:evenodd;clip-rule:evenodd;fill:#3B5345;" d="M461.01,289.3c-0.02,0.24-0.09,0.45-0.37,0.5
		C460.76,289.63,460.88,289.46,461.01,289.3z"/>
	<path style="fill-rule:evenodd;clip-rule:evenodd;fill:#385041;" d="M501.79,289.55c-0.16-0.07-0.31-0.14-0.47-0.21
		C501.48,289.41,501.63,289.48,501.79,289.55z"/>
	<path style="fill-rule:evenodd;clip-rule:evenodd;fill:#C6C4C6;" d="M491.71,289.77c0-0.06,0-0.11,0-0.17
		c0.13,0.02,0.26,0.03,0.4,0.05C492.05,289.92,491.85,289.75,491.71,289.77z"/>
	<path style="fill-rule:evenodd;clip-rule:evenodd;fill:#476B55;" d="M502.55,289.78c-0.17-0.06-0.33-0.12-0.5-0.19
		C502.22,289.66,502.39,289.72,502.55,289.78z"/>
	<path style="fill-rule:evenodd;clip-rule:evenodd;fill:#486C56;" d="M503.51,290.02c-0.17-0.06-0.33-0.13-0.5-0.19
		C503.18,289.89,503.35,289.96,503.51,290.02z"/>
	<path style="fill-rule:evenodd;clip-rule:evenodd;fill:#6E6768;" d="M448.74,290.25c0.02-0.06,0.02-0.12,0-0.18
		c0.22-0.03,0.44-0.05,0.53,0.22l0.01-0.02C449.1,290.26,448.92,290.26,448.74,290.25z"/>
	<path style="fill-rule:evenodd;clip-rule:evenodd;fill:#C7C3C4;" d="M449.72,290.3c-0.07,0.08-0.14,0.16-0.22,0.25
		c-0.07-0.09-0.15-0.18-0.22-0.27c0,0-0.01,0.02-0.01,0.02C449.42,290.29,449.57,290.3,449.72,290.3z"/>
	<path style="fill-rule:evenodd;clip-rule:evenodd;fill:#405646;" d="M456.22,290.5c0.15-0.24,0.3-0.22,0.46-0.01
		C456.52,290.49,456.37,290.49,456.22,290.5z"/>
	<path style="fill-rule:evenodd;clip-rule:evenodd;fill:#496D57;" d="M452.14,297.26c0.06-0.16,0.13-0.33,0.19-0.49
		C452.36,296.97,452.35,297.16,452.14,297.26z"/>
	<path style="fill-rule:evenodd;clip-rule:evenodd;fill:#6E6768;" d="M502.99,293.41c0.06,0.03,0.11,0.06,0.17,0.08
		c-0.17,0.15-0.12-0.05-0.15-0.1L502.99,293.41z"/>
	<path style="fill-rule:evenodd;clip-rule:evenodd;fill:#474040;" d="M496.29,285.96c-0.04-0.03-0.08-0.07-0.11-0.1
		c0.02,0.01,0.05,0.01,0.06,0.02c0.02,0.03,0.02,0.06,0.04,0.09L496.29,285.96z"/>
	<path style="fill-rule:evenodd;clip-rule:evenodd;fill:#90C970;" d="M478.02,293.72c-0.08,0.05-0.17,0.1-0.25,0.15
		C477.86,293.82,477.94,293.77,478.02,293.72z"/>
	<path style="fill-rule:evenodd;clip-rule:evenodd;fill:#90C970;" d="M477.06,293.96c-0.08,0.05-0.16,0.1-0.25,0.15
		C476.9,294.06,476.98,294.01,477.06,293.96z"/>
	<path style="fill-rule:evenodd;clip-rule:evenodd;fill:#016D3F;" d="M497.19,290.53c0.09,0.07,0.19,0.14,0.28,0.21
		C497.38,290.67,497.28,290.6,497.19,290.53z"/>
	<path style="fill-rule:evenodd;clip-rule:evenodd;fill:#90C970;" d="M476.11,294.19c-0.08,0.05-0.17,0.1-0.25,0.15
		C475.94,294.29,476.02,294.24,476.11,294.19z"/>
	<path style="fill-rule:evenodd;clip-rule:evenodd;fill:#007342;" d="M462.67,287.67c-0.07,0.06-0.14,0.12-0.21,0.19
		C462.53,287.8,462.6,287.74,462.67,287.67z"/>
	<path style="fill-rule:evenodd;clip-rule:evenodd;fill:#6E6768;" d="M463.88,285.49c0.03-0.06,0.06-0.11,0.09-0.17
		c0.15,0.17-0.05,0.11-0.1,0.16L463.88,285.49z"/>
	<path style="fill-rule:evenodd;clip-rule:evenodd;fill:#016038;" d="M470.61,288.85c0.08-0.08,0.16-0.16,0.24-0.25
		C470.77,288.69,470.69,288.77,470.61,288.85z"/>
	<path style="fill-rule:evenodd;clip-rule:evenodd;fill:#86C56A;" d="M470.11,295.38c-0.1,0.05-0.2,0.1-0.3,0.15
		C469.91,295.48,470.01,295.43,470.11,295.38z"/>
	<polygon style="fill-rule:evenodd;clip-rule:evenodd;fill:#6E6768;" points="464.49,285.06 464.52,285.14 464.44,285.14 	"/>
	<path style="fill-rule:evenodd;clip-rule:evenodd;fill:#6E6768;" d="M503.01,291.48c-0.06-0.03-0.11-0.06-0.17-0.09
		c0.17-0.15,0.11,0.05,0.16,0.1L503.01,291.48z"/>
	<path style="fill-rule:evenodd;clip-rule:evenodd;fill:#024927;" d="M484.73,284.29c0.09,0.07,0.18,0.14,0.26,0.21
		C484.91,284.43,484.82,284.36,484.73,284.29z"/>
	<polygon style="fill-rule:evenodd;clip-rule:evenodd;fill:#6E6768;" points="465.86,284.39 465.94,284.36 465.94,284.44 	"/>
	<path style="fill-rule:evenodd;clip-rule:evenodd;fill:#016038;" d="M471.52,287.87c-0.01-0.06-0.04-0.11-0.04-0.17
		c0-0.01,0.06-0.03,0.09-0.05C471.57,287.73,471.56,287.8,471.52,287.87z"/>
	<path style="fill-rule:evenodd;clip-rule:evenodd;fill:#007342;" d="M462.42,287.9c-0.07,0.07-0.13,0.13-0.2,0.2
		C462.29,288.03,462.35,287.97,462.42,287.9z"/>
	<path style="fill-rule:evenodd;clip-rule:evenodd;fill:#6E6768;" d="M453.81,297.23c-0.08-0.08-0.17-0.16-0.25-0.23l0,0
		c0.08,0.08,0.16,0.17,0.23,0.25L453.81,297.23z"/>
	<path style="fill-rule:evenodd;clip-rule:evenodd;fill:#007342;" d="M462.18,288.14c-0.07,0.07-0.13,0.13-0.2,0.2
		C462.05,288.27,462.11,288.21,462.18,288.14z"/>
	<path style="fill-rule:evenodd;clip-rule:evenodd;fill:#6E6768;" d="M454.05,297.47c-0.08-0.08-0.16-0.16-0.24-0.24l-0.02,0.02
		c0.08,0.08,0.16,0.16,0.24,0.24L454.05,297.47z"/>
	<path style="fill-rule:evenodd;clip-rule:evenodd;fill:#6E6768;" d="M454.03,297.49c0.08,0.08,0.16,0.16,0.24,0.24l0.01-0.02
		c-0.08-0.08-0.16-0.16-0.24-0.24L454.03,297.49z"/>
	<path style="fill-rule:evenodd;clip-rule:evenodd;fill:#016038;" d="M471.09,288.37c0.08-0.08,0.16-0.16,0.24-0.24
		C471.25,288.21,471.17,288.29,471.09,288.37z"/>
	<path style="fill-rule:evenodd;clip-rule:evenodd;fill:#9FCF7A;" d="M484.51,292.01c-0.11,0.05-0.21,0.1-0.32,0.15
		C484.3,292.12,484.4,292.07,484.51,292.01z"/>
	<path style="fill-rule:evenodd;clip-rule:evenodd;fill:#6E6768;" d="M454.27,297.73c0.06,0.03,0.12,0.06,0.18,0.08
		c-0.17,0.15-0.12-0.05-0.16-0.1L454.27,297.73z"/>
	<path style="fill-rule:evenodd;clip-rule:evenodd;fill:#C7C3C4;" d="M449.48,292.46c0.01-0.09,0.01-0.17,0.02-0.26
		c0.18-0.04,0.25,0.06,0.26,0.23C449.66,292.44,449.57,292.45,449.48,292.46z"/>
	<path style="fill-rule:evenodd;clip-rule:evenodd;fill:#016038;" d="M471.99,287.14c-0.01-0.06-0.03-0.11-0.03-0.17
		c0-0.02,0.06-0.03,0.09-0.05C472.05,287,472.03,287.07,471.99,287.14z"/>
	<path style="fill-rule:evenodd;clip-rule:evenodd;fill:#9FCF7A;" d="M483.55,292.26c-0.1,0.05-0.21,0.1-0.31,0.15
		C483.34,292.36,483.45,292.31,483.55,292.26z"/>
	<path style="fill-rule:evenodd;clip-rule:evenodd;fill:#C7C3C4;" d="M448.04,298.45c0.02-0.09,0.04-0.17,0.05-0.26
		c0.09,0.07,0.17,0.14,0.26,0.21C448.25,298.41,448.15,298.43,448.04,298.45z"/>
	<path style="fill-rule:evenodd;clip-rule:evenodd;fill:#C7C3C4;" d="M453.16,298.26c0.02,0,0.06-0.01,0.07,0
		c0.02,0.02,0.03,0.05,0.04,0.08c-0.05,0-0.1,0-0.15,0C453.14,298.31,453.15,298.29,453.16,298.26z"/>
	<path style="fill-rule:evenodd;clip-rule:evenodd;fill:#C7C3C4;" d="M450.7,298.63c0.06-0.06,0.11-0.11,0.17-0.17
		C450.92,298.62,450.86,298.68,450.7,298.63z"/>
	<path style="fill-rule:evenodd;clip-rule:evenodd;fill:#C7C3C4;" d="M451.42,292.46c0.08,0.07,0.16,0.13,0.23,0.2
		C451.48,292.71,451.42,292.62,451.42,292.46z"/>
	<path style="fill-rule:evenodd;clip-rule:evenodd;fill:#016038;" d="M471.57,287.65c0.08-0.08,0.16-0.17,0.23-0.25
		C471.72,287.49,471.65,287.57,471.57,287.65z"/>
	<path style="fill-rule:evenodd;clip-rule:evenodd;fill:#016038;" d="M470.85,288.61c0.08-0.08,0.16-0.16,0.24-0.24
		C471.01,288.45,470.93,288.53,470.85,288.61z"/>
	<path style="fill-rule:evenodd;clip-rule:evenodd;fill:#5A5354;" d="M447.31,299.87c-0.03,0.06-0.07,0.12-0.1,0.18
		c-0.13-0.18-0.01-0.17,0.12-0.16L447.31,299.87z"/>
	<path style="fill-rule:evenodd;clip-rule:evenodd;fill:#6E6768;" d="M451.9,299.89c0.07-0.02,0.14-0.02,0.21,0
		c-0.03,0.06-0.07,0.12-0.1,0.18C451.97,300.01,451.93,299.95,451.9,299.89z"/>
	<path style="fill-rule:evenodd;clip-rule:evenodd;fill:#474040;" d="M449,292.91c-0.03,0.04-0.07,0.08-0.1,0.12
		c0.01-0.02,0.01-0.05,0.02-0.07c0.03-0.02,0.06-0.03,0.09-0.04L449,292.91z"/>
	<path style="fill-rule:evenodd;clip-rule:evenodd;fill:#575E55;" d="M497,286.45c0.07,0.07,0.14,0.15,0.22,0.22
		C497.15,286.59,497.08,286.52,497,286.45z"/>
	<path style="fill-rule:evenodd;clip-rule:evenodd;fill:#C7C3C4;" d="M462.2,286.72c-0.1-0.09-0.2-0.18-0.3-0.27
		C462.15,286.38,462.21,286.51,462.2,286.72z"/>
	<path style="fill-rule:evenodd;clip-rule:evenodd;fill:#6E6768;" d="M502.75,293.17c0.08,0.08,0.16,0.16,0.24,0.24l0.01-0.02
		C502.93,293.31,502.85,293.23,502.75,293.17L502.75,293.17z"/>
	<path style="fill-rule:evenodd;clip-rule:evenodd;fill:#016038;" d="M468.46,290.46c0.07-0.06,0.14-0.12,0.22-0.17
		C468.6,290.35,468.53,290.41,468.46,290.46z"/>
	<path style="fill-rule:evenodd;clip-rule:evenodd;fill:#B4D787;" d="M510.18,299.37c0.1-0.14,0.2-0.12,0.29,0.01
		c-0.04,0.04-0.08,0.07-0.13,0.11c-0.05-0.03-0.1-0.06-0.15-0.08L510.18,299.37z"/>
	<path style="fill-rule:evenodd;clip-rule:evenodd;fill:#B4D787;" d="M510.47,299.37c0.07,0.08,0.15,0.17,0.22,0.25l-0.04,0.04
		c-0.2,0.01-0.33-0.03-0.21-0.27L510.47,299.37z"/>
	<path style="fill-rule:evenodd;clip-rule:evenodd;fill:#242021;" d="M510.44,299.4c0.07,0.09,0.14,0.18,0.21,0.27
		c0.43,0.74,0.84,1.47,1.57,2.03c0.78,0.6,0.3,2.49-0.84,3.65c-0.24,0.01-0.49,0.02-0.73,0.03c-0.06-0.31-0.12-0.62-0.18-0.94
		c-0.03-0.24-0.06-0.49-0.09-0.73c-0.18-0.46,0.1-0.97-0.18-1.42c0-0.96,0-1.93,0-2.89C510.28,299.4,510.36,299.4,510.44,299.4z"/>
	<path style="fill-rule:evenodd;clip-rule:evenodd;fill:#070505;" d="M492.7,305.37c0.09-0.15,0.17-0.29,0.26-0.44
		c0.98-0.63,1.79-0.25,2.56,0.42C494.58,305.36,493.64,305.36,492.7,305.37z"/>
	<path style="fill-rule:evenodd;clip-rule:evenodd;fill:#060403;" d="M498.46,305.37c0.54-0.89,1.25-0.34,1.9-0.21
		c0.04,0.07,0.05,0.14,0.03,0.22C499.74,305.37,499.1,305.37,498.46,305.37z"/>
	<path style="fill-rule:evenodd;clip-rule:evenodd;fill:#79816C;" d="M486.2,305.14c0.08,0.08,0.16,0.16,0.23,0.24
		c-0.15-0.01-0.3-0.01-0.45-0.02C486.05,305.28,486.13,305.21,486.2,305.14z"/>
	<path style="fill-rule:evenodd;clip-rule:evenodd;fill:#12A573;" d="M484.5,273.96c1.33,0.17,2.54-0.55,3.88-0.52
		c0.73,0.02,0.13-0.61,0.24-0.92c0.9,0.16,0.94,1.13,1.52,1.58c0.06,0.04,0.14,0.08,0.21,0.1c0-0.01,0.12-0.02,0.12-0.02
		c0.07-0.05,0.14-0.09,0.21-0.14c0.04-0.03,0.07-0.06,0.11-0.09c0.08-0.06,0.16-0.11,0.25-0.15c0.1-0.04,0.19-0.07,0.3-0.09
		c0.39-0.04,0.77-0.06,1.12,0.17c0.08,0.1,0.12,0.2,0.13,0.32c-0.01,0.25-0.09,0.48-0.22,0.69c-0.08,0.1-0.17,0.18-0.29,0.24
		c-1.33,0.58-2.73-0.04-4.08,0.21c-0.75-0.18-1.43,0.03-2.1,0.34c-0.91,0.17-1.88-0.08-2.76,0.38c-0.31,0.11-0.63,0.12-0.94,0.04
		c-0.52-0.28-1.09-0.35-1.68-0.36c-0.51-0.01-1.01-0.08-1.3-0.59c-0.05-0.09-0.11-0.19-0.17-0.27c-0.13-0.36-0.59-0.37-0.76-0.69
		c1.03-0.41,2.08-0.24,3.12-0.09c0.58,0.08,1.16,0.3,1.69-0.14C483.56,273.8,484.03,273.8,484.5,273.96z"/>
	<path style="fill-rule:evenodd;clip-rule:evenodd;fill:#010201;" d="M490.2,274.66c-0.71-0.58-0.76-1.65-1.58-2.14l-0.02-0.02
		c-0.07-0.07-0.14-0.13-0.23-0.17l-0.06-0.06c-0.04-0.08-0.09-0.14-0.18-0.17c-0.09-0.1-0.17-0.21-0.26-0.31
		c0.84-0.2,1.21,0.44,1.53,0.98c0.43,0.71,0.75,0.83,1.47,0.27c1.27-0.99,2.36-2.22,3.88-2.91c1.19-0.54,2.27-0.66,3.31,0.22
		c0.84,0.72,2.15,0.31,2.9,1.4c0.76,1.1,0.87,2.57,2.04,3.4c-0.1,0.01-0.2,0.02-0.3,0.03c-0.46-0.26-0.92-0.51-1.38-0.77
		c-0.14-0.09-0.29-0.04-0.44-0.05c-0.1-0.02-0.2-0.05-0.29-0.1c-0.26-0.16-0.47-0.39-0.72-0.57l0.02,0
		c-0.16-0.1-0.37-0.08-0.52-0.22c-0.32-0.26-0.84-0.37-0.74-0.96c-0.11-0.15-0.08-0.35-0.2-0.5l0.01,0.02
		c-0.16-0.14-0.12-0.38-0.26-0.54c-0.38-1.03-1.15-1.32-2.16-1.11c-0.18,0.09-0.38,0.1-0.56,0.18l-0.07,0l-0.06,0.04
		c-0.73,0.16-1.15,0.79-1.75,1.14c-0.91,0.68-1.5,1.75-2.61,2.19h0.01c-0.06,0.11-0.15,0.19-0.25,0.25l0.01-0.01
		c-0.06,0.1-0.15,0.19-0.25,0.25l0.01-0.01C490.44,274.54,490.33,274.62,490.2,274.66z"/>
	<path style="fill-rule:evenodd;clip-rule:evenodd;fill:#12A070;" d="M473.5,275.38c1.31-0.55,2.6-1.28,4.09-0.61
		c0.37,0.42,0.33,0.86,0.07,1.31c-1.16,0.27-2.34,0.44-3.54,0.46c-0.33-0.11-0.44-0.4-0.6-0.66c-0.06-0.1-0.09-0.22-0.1-0.34
		C473.45,275.49,473.47,275.43,473.5,275.38z"/>
	<path style="fill-rule:evenodd;clip-rule:evenodd;fill:#129B6C;" d="M472.26,276.84c-1.04,0.1-2.03,0.84-3.12,0.23l0.01-0.01
		c0.11-0.06,0.18-0.16,0.21-0.28c0.4-0.48,0.79-0.96,1.19-1.43c0.97,0.8,1.97-0.05,2.95,0.03c0,0-0.03,0.03-0.03,0.03
		c-0.1,0.21-0.17,0.44-0.35,0.6c-0.12,0.13-0.25,0.26-0.38,0.39c-0.09,0.1-0.17,0.2-0.26,0.3
		C472.42,276.77,472.34,276.81,472.26,276.84z"/>
	<path style="fill-rule:evenodd;clip-rule:evenodd;fill:#0F1510;" d="M477.53,276.11c0.02-0.45,0.04-0.9,0.06-1.34
		c0.07-0.03,0.14-0.06,0.22-0.09c0.08-0.08,0.17-0.1,0.28-0.04c0.27,0.42,0.55,0.44,0.83,0.02c0.1-0.06,0.2-0.05,0.29,0.02l0.1,0.04
		c0,0.48,0.26,0.97-0.09,1.43c-0.41,0.42-0.86,0.73-1.47,0.41C477.61,276.44,477.46,276.33,477.53,276.11z"/>
	<path style="fill-rule:evenodd;clip-rule:evenodd;fill:#231F20;" d="M483.1,273.47c0.56-1.18,0.85-1.28,1.43-0.46
		c-0.45,0.13-0.43,0.49-0.42,0.86C483.54,274.34,483.36,273.82,483.1,273.47z"/>
	<path style="fill-rule:evenodd;clip-rule:evenodd;fill:#ECE624;" d="M484.04,273.76c-0.23-0.18-0.61-0.29-0.38-0.71
		c0.26-0.47,0.58-0.18,0.88-0.04c0,0.15-0.01,0.3-0.01,0.45C484.4,273.61,484.33,273.86,484.04,273.76z"/>
	<path style="fill-rule:evenodd;clip-rule:evenodd;fill:#ECE624;" d="M477.5,272.72c0.24-0.3,0.47-0.71,0.89-0.23
		c0.36,0.42-0.06,0.59-0.3,0.81C477.67,273.33,477.48,273.13,477.5,272.72z"/>
	<path style="fill-rule:evenodd;clip-rule:evenodd;fill:#0B1813;" d="M478.07,274.69c-0.09,0-0.17-0.01-0.26-0.01
		c0.16-0.17,0.31-0.33,0.47-0.5c0.39,0.03,0.9-0.19,0.94,0.5c-0.08,0-0.17,0.01-0.25,0.01
		C478.67,274.94,478.37,274.94,478.07,274.69z"/>
	<path style="fill-rule:evenodd;clip-rule:evenodd;fill:#568471;" d="M484.04,273.76c0.16-0.1,0.32-0.2,0.49-0.31
		c-0.01,0.17-0.02,0.34-0.02,0.5c-0.47,0.32-0.94,0.32-1.41-0.01c0-0.16,0.01-0.32,0.01-0.48
		C483.43,273.51,483.54,274.25,484.04,273.76z"/>
	<path style="fill-rule:evenodd;clip-rule:evenodd;fill:#231F20;" d="M477.5,272.72c0.2,0.19,0.39,0.39,0.59,0.58
		c-0.22,0.24-0.5,0.31-0.71,0.05C477.22,273.15,477.28,272.9,477.5,272.72z"/>
	<path style="fill-rule:evenodd;clip-rule:evenodd;" d="M485.26,270.76c0.17-0.17,0.32-0.16,0.45,0.05
		C485.56,270.8,485.41,270.78,485.26,270.76z"/>
	<path style="fill-rule:evenodd;clip-rule:evenodd;fill:#12A573;" d="M488.13,272.11c0.06,0.06,0.12,0.11,0.18,0.17
		C488.25,272.22,488.19,272.16,488.13,272.11z"/>
	<path style="fill-rule:evenodd;clip-rule:evenodd;" d="M486.93,271.3c0.14-0.21,0.17-0.05,0.21,0.07
		C487.07,271.36,487,271.34,486.93,271.3z"/>
	<path style="fill-rule:evenodd;clip-rule:evenodd;fill:#12A573;" d="M488.37,272.33c0.08,0.06,0.15,0.12,0.23,0.17
		C488.52,272.45,488.44,272.39,488.37,272.33z"/>
	<path style="fill-rule:evenodd;clip-rule:evenodd;fill:#0B8C5E;" d="M469.37,276.78c-0.07,0.09-0.14,0.19-0.21,0.28
		C469.22,276.97,469.29,276.88,469.37,276.78z"/>
	<path style="fill-rule:evenodd;clip-rule:evenodd;" d="M487.41,271.55c0.02-0.03,0.04-0.07,0.05-0.1
		C487.45,271.48,487.43,271.51,487.41,271.55L487.41,271.55z"/>
	<path style="fill-rule:evenodd;clip-rule:evenodd;fill:#262223;" d="M475.68,299.17c-0.08-0.47-0.02-1.01,0.46-1.08
		c0.5-0.07,0.39,0.57,0.56,0.88c0.34,0.63,0.65,1.27,0.94,1.92c0.18,0.39,0.59,0.81,0.35,1.2c-0.29,0.48-0.87,0.18-1.32,0.18
		c-0.08-0.04-0.16-0.09-0.23-0.15c-0.08-0.05-0.15-0.11-0.22-0.18c-0.03-0.04-0.06-0.07-0.1-0.11c-0.06-0.08-0.11-0.16-0.16-0.25
		c-0.05-0.09-0.08-0.18-0.12-0.28c-0.07-0.19-0.13-0.38-0.17-0.58c-0.03-0.21,0.08-0.41,0.08-0.62
		C475.73,299.79,475.83,299.47,475.68,299.17z"/>
	<path style="fill-rule:evenodd;clip-rule:evenodd;fill:#2C292A;" d="M473.88,299.68c0.86-1.07,0.66,0.5,1.11,0.44
		c0.04,0.09,0.1,0.17,0.18,0.23l0,0c0.66,0.49,0.91,1.18,0.93,1.97c-0.01,0.37,0.19,0.86-0.43,0.92c-0.39,0.04-0.75,0.04-1.04-0.37
		c-0.34-0.5-0.62-1.01-0.75-1.59C473.82,300.75,473.82,300.21,473.88,299.68z"/>
	<path style="fill-rule:evenodd;clip-rule:evenodd;fill:#8B9788;" d="M476.09,302.32c-0.31-0.66-0.62-1.31-0.93-1.97
		c0.17-0.1,0.35-0.21,0.52-0.31c0.09-0.01,0.15,0.02,0.19,0.11c0.02,0.23,0.03,0.47,0.05,0.7c0.1,0.16,0.07,0.36,0.19,0.51
		c-0.01,0.08,0.01,0.15,0.06,0.21c0.05,0.09,0.12,0.15,0.2,0.2l0.02,0.02c0.06,0.09,0.13,0.17,0.21,0.23
		c0.02,0.08,0.05,0.16,0.07,0.24C476.48,302.28,476.29,302.3,476.09,302.32z"/>
	<path style="fill-rule:evenodd;clip-rule:evenodd;fill:#86C56A;" d="M473.88,299.68c0,0.53,0,1.07,0,1.6
		C473.63,300.75,473.62,300.21,473.88,299.68z"/>
	<path style="fill-rule:evenodd;clip-rule:evenodd;fill:#2C292A;" d="M475.87,300.15c-0.06-0.04-0.12-0.07-0.19-0.11
		c0-0.29,0-0.58,0-0.87C475.97,299.45,475.86,299.81,475.87,300.15z"/>
	<path style="fill-rule:evenodd;clip-rule:evenodd;fill:#8B9788;" d="M475.17,300.36c-0.06-0.08-0.12-0.15-0.18-0.23
		C475.05,300.2,475.11,300.28,475.17,300.36z"/>
	<path style="fill-rule:evenodd;clip-rule:evenodd;fill:#A7D27E;" d="M510.2,302.29c0.25,0.45,0.16,0.94,0.18,1.42
		C510.05,303.27,510.24,302.76,510.2,302.29z"/>
	<path style="fill-rule:evenodd;clip-rule:evenodd;fill:#466E5C;" d="M469.87,278.76c0.16-0.3,0.39-0.49,0.75-0.48
		c0.11,0.21,0.01,0.4-0.05,0.59c-0.11,0.23-0.1,0.49-0.14,0.74c-0.02,0.04-0.05,0.09-0.07,0.13c-0.16-0.01-0.32-0.02-0.48-0.04
		c-0.01-0.08-0.03-0.16-0.04-0.24c-0.09-0.15-0.09-0.3,0-0.46C469.85,278.93,469.86,278.85,469.87,278.76z"/>
	<path style="fill-rule:evenodd;clip-rule:evenodd;fill:#017E50;" d="M470.6,279.73c-0.08,0.08-0.16,0.15-0.24,0.23
		c0-0.07,0-0.14,0-0.21c0,0,0-0.03,0-0.03C470.45,279.62,470.53,279.62,470.6,279.73z"/>
	<path style="fill-rule:evenodd;clip-rule:evenodd;fill:#020202;" d="M492.43,274.2c0.05-0.06,0.07-0.13,0.06-0.21
		c-0.03-0.95,0.69-1.47,1.22-2.09c0.45-0.62,1.05-0.39,1.63-0.29l-0.02-0.02c0.07-0.1,0.15-0.19,0.25-0.26l-0.01,0.02
		c0.17-0.17,0.32-0.17,0.47,0.02c0.18,0.28,0.33,0.66,0.74,0.24c0.15-0.2,0.3-0.19,0.45,0.01c0.37,0.75,0.66,1.52,0.77,2.36
		c0.12,0.39,0.13,0.79,0,1.18c-0.09,0.4-0.19,0.81-0.28,1.21c-0.32,0.33-0.63,0.65-0.95,0.98c-0.07,0.05-0.09,0.1-0.07,0.15
		s0.04,0.08,0.07,0.08c0.15,0.08,0.3,0.17,0.45,0.25c-1.07,0.51-2.26,0.17-3.36,0.5c-0.2,0.17-0.51-0.01-0.7,0.2
		c-0.17,0.01-0.33,0.02-0.5,0.02c-0.21,0.15-0.38,0.1-0.54-0.08c-0.1-0.26,0-0.46,0.19-0.63c0.08-0.08,0.17-0.16,0.21-0.27
		c0-0.07-0.01-0.14-0.05-0.21c-0.01,0-0.06-0.1-0.07-0.1c-0.05-0.07-0.1-0.14-0.14-0.22c-0.05-0.08-0.08-0.17-0.12-0.26
		c-0.09-0.24-0.18-0.48-0.23-0.74c-0.06-0.42-0.05-0.81,0.26-1.13c0.04-0.06,0.05-0.12,0.03-0.18
		C492.33,274.57,492.29,274.35,492.43,274.2z"/>
	<path style="fill-rule:evenodd;clip-rule:evenodd;fill:#007A4A;" d="M492.68,277.78c-0.16,0.16-0.33,0.32-0.49,0.48
		c-0.06,0.13-0.14,0.13-0.22,0.02c-5.16,0.35-10.33,0.26-15.5,0.21c-1.67-0.01-3.31-0.08-4.91,0.5c0.01-0.24,0.02-0.47,0.02-0.71
		c1.17-0.66,2.49-0.72,3.76-0.81c1.81-0.12,3.63-0.08,5.44-0.19c0.13,0.01,0.26,0.05,0.38,0.09c0.06,0.02,0.12,0.05,0.17,0.07
		c0.38,0.27,0.77,0.23,1.18,0.05c0.12-0.03,0.25-0.07,0.37-0.1c2.15-0.44,4.35-0.11,6.51-0.36c1.01-0.12,2.05-0.28,3.07,0.01
		l-0.02,0.02c0.06,0.1,0.14,0.18,0.23,0.24l0.02,0.01c0.05,0.07,0.08,0.15,0.09,0.24C492.79,277.65,492.75,277.72,492.68,277.78z"/>
	<path style="fill-rule:evenodd;clip-rule:evenodd;fill:#ECE624;" d="M470.32,278.77c0.1-0.16,0.2-0.32,0.3-0.48
		c0.15-0.01,0.31-0.01,0.46-0.02c0.07,0.09,0.15,0.17,0.24,0.24c0,0.16,0.01,0.32,0.01,0.47c-0.15,0.1-0.3,0.21-0.45,0.31
		C470.48,279.34,470.31,279.15,470.32,278.77z"/>
	<path style="fill-rule:evenodd;clip-rule:evenodd;fill:#231F20;" d="M470.32,278.77c0.18,0.18,0.37,0.36,0.55,0.53
		c-0.01,0.06-0.01,0.11,0,0.17l-0.03,0.03c-0.08,0.07-0.16,0.15-0.24,0.22c-0.08,0-0.16-0.01-0.24-0.01
		C470.23,279.4,469.92,279.1,470.32,278.77z"/>
	<path style="fill-rule:evenodd;clip-rule:evenodd;fill:#365745;" d="M491.97,278.28c0.07,0,0.15-0.01,0.22-0.02
		c0.16,0.09,0.32,0.18,0.48,0.27C492.28,278.89,492.05,278.8,491.97,278.28z"/>
	<path style="fill-rule:evenodd;clip-rule:evenodd;fill:#3E7357;" d="M493.16,278.51c0.18-0.24,0.43-0.24,0.7-0.2
		C493.68,278.57,493.41,278.5,493.16,278.51z"/>
	<path style="fill-rule:evenodd;clip-rule:evenodd;fill:#007342;" d="M470.87,279.48c0.03,0.02,0.05,0.04,0.08,0.07
		c-0.04-0.01-0.08-0.02-0.11-0.03L470.87,279.48z"/>
	<path style="fill-rule:evenodd;clip-rule:evenodd;fill:#A2A3A0;" d="M496.76,277.56c-0.06-0.05-0.12-0.11-0.18-0.16
		c0.06-0.02,0.12-0.04,0.18-0.07C496.76,277.41,496.76,277.49,496.76,277.56z"/>
	<path style="fill-rule:evenodd;clip-rule:evenodd;fill:#099664;" d="M499.89,273.7c0.38,0.02,0.71,0.16,0.97,0.45
		c0.04,0.08,0.1,0.14,0.18,0.18c0.02,0.04,0.03,0.08,0.05,0.12c-0.35,1.95,0.66,3.09,2.3,3.84c0.29,0.51-0.08,0.61-0.45,0.71
		c-2.33-0.89-3.13-2.21-2.91-4.74C500.05,274.08,499.94,273.89,499.89,273.7z"/>
	<path style="fill-rule:evenodd;clip-rule:evenodd;fill:#040706;" d="M502.94,279c0.15-0.24,0.3-0.48,0.45-0.71
		c0.66-0.14,1.16,0,1.37,0.71c0.05,0.22,0.05,0.44,0,0.67c-0.2,0.26-0.49,0.27-0.78,0.27c-0.06-0.06-0.13-0.11-0.22-0.13
		C503.37,279.66,502.98,279.51,502.94,279z"/>
	<path style="fill-rule:evenodd;clip-rule:evenodd;fill:#1E8F65;" d="M495.35,271.6c-0.34,0.62-1.17-0.29-1.48,0.47
		c0,0-0.11-0.02-0.11-0.02c-0.07-0.03-0.13-0.07-0.18-0.13c0,0-0.08-0.08-0.08-0.08c-0.05-0.05-0.09-0.11-0.12-0.18l-0.02-0.11
		c0.56-0.51,1.17-0.94,1.97-0.94C494.86,270.95,494.49,271.28,495.35,271.6z"/>
	<path style="fill-rule:evenodd;clip-rule:evenodd;fill:#477D61;" d="M497.99,275.14c0-0.39,0-0.79,0-1.18
		C498.3,274.36,498.3,274.75,497.99,275.14z"/>
	<path style="fill-rule:evenodd;clip-rule:evenodd;fill:#01804E;" d="M504.76,279.67c0-0.22,0-0.44,0-0.67
		c0.05-0.01,0.1-0.02,0.14-0.01C504.86,279.22,504.81,279.45,504.76,279.67z"/>
	<path style="fill-rule:evenodd;clip-rule:evenodd;fill:#458165;" d="M495.47,270.58c0.14-0.21,0.34-0.22,0.56-0.18
		C495.85,270.46,495.66,270.52,495.47,270.58z"/>
	<path style="fill-rule:evenodd;clip-rule:evenodd;fill:#1E8F65;" d="M496.04,271.36c-0.16-0.01-0.31-0.01-0.47-0.02
		C495.73,271.07,495.89,271.08,496.04,271.36z"/>
	<path style="fill-rule:evenodd;clip-rule:evenodd;fill:#436452;" d="M497.23,271.61c-0.15,0-0.3,0-0.45-0.01
		C496.93,271.28,497.08,271.32,497.23,271.61z"/>
	<path style="fill-rule:evenodd;clip-rule:evenodd;fill:#467B61;" d="M498.2,271.51c0.09,0.18,0.17,0.36,0.26,0.54
		C498.37,271.87,498.28,271.69,498.2,271.51z"/>
	<path style="fill-rule:evenodd;clip-rule:evenodd;fill:#436E58;" d="M498.45,272.02c0.21,0.11,0.24,0.29,0.2,0.5
		C498.58,272.35,498.51,272.19,498.45,272.02z"/>
	<path style="fill-rule:evenodd;clip-rule:evenodd;fill:#438364;" d="M499.39,273.48c0.17,0.07,0.34,0.15,0.52,0.22
		C499.74,273.62,499.56,273.55,499.39,273.48z"/>
	<path style="fill-rule:evenodd;clip-rule:evenodd;fill:#1E8F65;" d="M495.58,271.32c-0.08,0.09-0.17,0.17-0.25,0.26
		C495.41,271.5,495.5,271.41,495.58,271.32z"/>
	<path style="fill-rule:evenodd;clip-rule:evenodd;fill:#01804E;" d="M503.76,279.81c0.07,0.04,0.14,0.09,0.22,0.13
		C503.9,279.9,503.83,279.86,503.76,279.81z"/>
	<path style="fill-rule:evenodd;clip-rule:evenodd;fill:#0B8C5E;" d="M469.84,279.01c0,0.15,0,0.3,0,0.46
		C469.63,279.31,469.64,279.16,469.84,279.01z"/>
	<path style="fill-rule:evenodd;clip-rule:evenodd;fill:#028354;" d="M481.16,277.56c-3.17,0.52-6.43-0.12-9.58,0.72
		c0.19-0.83,0.93-0.84,1.5-0.86c1.29-0.04,2.53-0.54,3.84-0.37c0.29,0.04,0.5-0.19,0.64-0.45c0.03-0.11,0.11-0.16,0.22-0.18
		c0.46,0.15,0.83-0.1,1.2-0.3c0.79,0.08,1.63-0.04,2.3,0.57c0.12,0.25,0.13,0.49,0.01,0.74
		C481.25,277.47,481.2,277.52,481.16,277.56z"/>
	<path style="fill-rule:evenodd;clip-rule:evenodd;fill:#0B9161;" d="M477.78,276.42c-0.07,0.06-0.15,0.12-0.22,0.18
		c-1.29,0.08-2.57,0.15-3.86,0.23c-0.11-0.26,0.03-0.39,0.26-0.47c1.19-0.04,2.34-0.7,3.57-0.25
		C477.62,276.22,477.7,276.32,477.78,276.42z"/>
	<path style="fill-rule:evenodd;clip-rule:evenodd;fill:#4E7F6A;" d="M473.96,276.36c-0.09,0.16-0.17,0.32-0.26,0.47
		c-0.48,0.23-0.97,0.46-1.45,0c0.01-0.09,0.03-0.17,0.04-0.26c0.04-0.02,0.07-0.05,0.11-0.08c0.04,0,0.09,0,0.13,0
		c0.13,0,0.25-0.02,0.38-0.05c0.16-0.07,0.28-0.16,0.38-0.28c0.12-0.18,0.21-0.39,0.38-0.54C474,275.78,473.95,276.09,473.96,276.36
		z"/>
	<path style="fill-rule:evenodd;clip-rule:evenodd;fill:#231F20;" d="M471.32,278.52c-0.08-0.08-0.16-0.16-0.24-0.24
		C471.16,278.35,471.24,278.44,471.32,278.52z"/>
	<path style="fill-rule:evenodd;clip-rule:evenodd;fill:#099664;" d="M501.08,274.25c0.08,0.05,0.17,0.11,0.25,0.16
		c-0.08,0.01-0.17,0.02-0.25,0.03l-0.02-0.02l-0.07-0.09L501.08,274.25z"/>
	<path style="fill-rule:evenodd;clip-rule:evenodd;fill:#C7C3C4;" d="M449.65,293.91c0,0,0.03,0.04,0.03,0.03
		c-0.02,0.03-0.03,0.06-0.05,0.08c-0.02-0.02-0.05-0.05-0.07-0.07C449.6,293.94,449.63,293.93,449.65,293.91z"/>
	<path style="fill-rule:evenodd;clip-rule:evenodd;fill:#0D9C69;" d="M492.19,274.92c0,0.48,0.01,0.96,0.01,1.44
		c-1.14,0.2-2.28,0.13-3.42,0.1c-0.4-0.01-0.79-0.08-1.04-0.47c-0.11-0.28-0.1-0.54,0.11-0.77
		C489.25,274.47,490.77,275.35,492.19,274.92z"/>
	<path style="fill-rule:evenodd;clip-rule:evenodd;fill:#0C9564;" d="M481.16,276.85c-0.63-0.55-1.63,0.06-2.18-0.73
		c0.3-0.42,0.29-0.92,0.34-1.4c0.18,0.61,0.61,0.72,1.2,0.7c0.56-0.01,1.23-0.24,1.6,0.46c0.17,0.3-0.1,0.46-0.22,0.67
		c-0.06,0.08-0.13,0.16-0.21,0.23c-0.08,0.07-0.17,0.12-0.26,0.16C481.33,276.95,481.24,276.93,481.16,276.85z"/>
	<path style="fill-rule:evenodd;clip-rule:evenodd;fill:#18A675;" d="M493.87,272.07c-0.46,0.64-0.92,1.28-1.38,1.92
		c-0.51-0.02-1.02-0.04-1.53-0.05c0.68-0.91,1.48-1.7,2.39-2.38l0.05,0.03c0.08,0.07,0.16,0.15,0.24,0.22l-0.02-0.02
		c0.08,0.08,0.15,0.15,0.22,0.23L493.87,272.07z"/>
	<path style="fill-rule:evenodd;clip-rule:evenodd;fill:#099865;" d="M483.04,275.9c0.86-0.97,1.98-0.32,2.97-0.47
		c0.3,0.34,0.27,0.7,0.1,1.08c-0.86,0.42-1.75,0.21-2.64,0.12c-0.22-0.12-0.35-0.31-0.42-0.55
		C483.05,276.02,483.04,275.96,483.04,275.9z"/>
	<path style="fill-rule:evenodd;clip-rule:evenodd;fill:#020605;" d="M481.38,276.84c0.09-0.08,0.18-0.16,0.27-0.25l0.07,0.09
		l-0.09-0.07c0.16-0.24,0.33-0.49,0.49-0.73c0.31,0.01,0.62,0.01,0.92,0.02l-0.01,0.02c0.25,0.31,0.28,0.69,0.29,1.06
		c-0.09,0.42-0.43,0.61-0.77,0.8c-0.07,0-0.13,0.01-0.2,0.03c-0.32,0.14-0.64,0.2-0.94-0.04l-0.01,0.02
		c-0.08-0.08-0.12-0.18-0.12-0.3C481.3,277.27,481.22,277.04,481.38,276.84z"/>
	<path style="fill-rule:evenodd;clip-rule:evenodd;fill:#0C1712;" d="M485.98,276.59c0.01-0.39,0.02-0.77,0.03-1.16
		c0.56-0.53,1.15-0.79,1.84-0.21c0,0.21,0,0.43-0.01,0.64C487.47,276.98,487.1,277.12,485.98,276.59z"/>
	<path style="fill-rule:evenodd;clip-rule:evenodd;fill:#18A675;" d="M492.43,274.2c-0.07,0.18-0.14,0.36-0.21,0.54
		C492.29,274.56,492.36,274.38,492.43,274.2z"/>
	<path style="fill-rule:evenodd;clip-rule:evenodd;fill:#18A675;" d="M490.2,274.66c0.1-0.08,0.21-0.16,0.31-0.24
		C490.41,274.5,490.3,274.58,490.2,274.66z"/>
	<path style="fill-rule:evenodd;clip-rule:evenodd;fill:#18A675;" d="M490.49,274.42c0.08-0.08,0.17-0.17,0.25-0.25
		C490.66,274.26,490.58,274.34,490.49,274.42z"/>
	<path style="fill-rule:evenodd;clip-rule:evenodd;fill:#18A675;" d="M490.74,274.19c0.08-0.08,0.17-0.17,0.25-0.25
		C490.9,274.02,490.82,274.1,490.74,274.19z"/>
	<path style="fill-rule:evenodd;clip-rule:evenodd;fill:#125031;" d="M500.57,273c-0.54-0.13-1.11-0.22-1.17-0.95
		c-0.15-0.75,0.27-0.66,0.74-0.49c0.58,0.31,0.65,0.93,0.9,1.44C500.88,273.14,500.72,273.13,500.57,273z"/>
	<path style="fill-rule:evenodd;clip-rule:evenodd;fill:#3B4B3F;" d="M500.13,271.56c-0.36,0-0.72-0.01-0.74,0.49
		c-0.2-0.2-0.37-0.45-0.07-0.65C499.6,271.22,499.91,271.3,500.13,271.56z"/>
	<path style="fill-rule:evenodd;clip-rule:evenodd;fill:#6E6768;" d="M500.57,273c0.15,0,0.31,0,0.46,0
		C500.88,273.38,500.73,273.22,500.57,273z"/>
	<path style="fill-rule:evenodd;clip-rule:evenodd;fill:#11A16F;" d="M501.08,274.25c0,0.06-0.01,0.11-0.02,0.17
		c-0.07-0.09-0.14-0.19-0.21-0.28C500.94,274.18,501.01,274.22,501.08,274.25z"/>
	<path style="fill-rule:evenodd;clip-rule:evenodd;fill:#231F20;" d="M473.67,275.63c0.03,0.26,0.12,0.53-0.15,0.72
		c-0.33-0.03-0.5-0.22-0.55-0.54c0.17-0.14,0.34-0.27,0.51-0.41C473.54,275.49,473.61,275.56,473.67,275.63z"/>
	<path style="fill-rule:evenodd;clip-rule:evenodd;fill:#ECE624;" d="M472.96,275.82c0.18,0.18,0.37,0.36,0.55,0.54
		c-0.16,0.3-0.36,0.53-0.75,0.47c-0.09-0.07-0.18-0.15-0.25-0.24l0.02,0.02c-0.1-0.07-0.12-0.15-0.08-0.26
		C472.63,276.16,472.8,275.99,472.96,275.82z"/>
	<path style="fill-rule:evenodd;clip-rule:evenodd;fill:#231F20;" d="M472.46,276.34c0.03,0.09,0.05,0.17,0.08,0.26
		c-0.08,0-0.16-0.01-0.24-0.01C472.35,276.5,472.41,276.42,472.46,276.34z"/>
	<path style="fill-rule:evenodd;clip-rule:evenodd;fill:#EBE526;" d="M478.07,274.69c0.3,0,0.6,0,0.9,0
		c0.08,0.52,0.03,1.04-0.64,0.95C477.73,275.56,478.13,275.02,478.07,274.69z"/>
	<path style="fill-rule:evenodd;clip-rule:evenodd;fill:#2C292A;" d="M476.1,301.35c-0.06-0.17-0.13-0.34-0.19-0.51
		C475.98,301.02,476.04,301.19,476.1,301.35z"/>
	<path style="fill-rule:evenodd;clip-rule:evenodd;fill:#2C292A;" d="M476.37,301.77c-0.07-0.07-0.13-0.14-0.2-0.2
		C476.23,301.64,476.3,301.7,476.37,301.77z"/>
	<path style="fill-rule:evenodd;clip-rule:evenodd;fill:#2C292A;" d="M476.6,302.03c-0.07-0.08-0.14-0.16-0.21-0.23
		C476.46,301.87,476.53,301.95,476.6,302.03z"/>
	<path style="fill-rule:evenodd;clip-rule:evenodd;fill:#FCFCFC;" d="M494.33,277.02c-0.36-0.01-1.45,0.28-0.32-0.94
		c0.22-0.24,0.21-0.78-0.27-0.87c-1.27-0.22-0.57-0.95-0.29-1.33c0.74-1.02,1.85-1.52,3.04-1.08c0.92,0.33,0.91,1.36,0.73,2.18
		C496.95,276.34,496.11,277.14,494.33,277.02z"/>
	<path style="fill-rule:evenodd;clip-rule:evenodd;fill:#028655;" d="M485.98,276.59c0.77,0.15,1.47,0.11,1.86-0.72
		c1.08,0.53,2.23,0.23,3.34,0.19c0.43-0.02,0.74-0.01,1.01,0.31c0.09,0.23,0.18,0.45,0.27,0.68c-1.8,0.54-3.67,0.32-5.51,0.5
		c-1.46,0.15-2.95-0.16-4.4,0.24c0.18-0.23,0.36-0.47,0.54-0.7c0.21-0.2-0.02-0.55,0.25-0.73
		C484.21,276.58,485.14,276.09,485.98,276.59z"/>
	<path style="fill-rule:evenodd;clip-rule:evenodd;fill:#028655;" d="M492.68,277.54c0-0.07,0.01-0.15,0.02-0.22
		c0.06,0.05,0.11,0.1,0.17,0.14C492.85,277.6,492.79,277.63,492.68,277.54z"/>
	<path style="fill-rule:evenodd;clip-rule:evenodd;fill:#028655;" d="M492.68,277.31c-0.08-0.08-0.15-0.16-0.23-0.24
		C492.53,277.14,492.6,277.22,492.68,277.31z"/>
	<path style="fill-rule:evenodd;clip-rule:evenodd;fill:#C3C3C1;" d="M492.68,277.54c0.06-0.02,0.13-0.05,0.19-0.07
		c0.09,0.2,0.03,0.31-0.19,0.32C492.68,277.7,492.68,277.62,492.68,277.54z"/>
	<path style="fill-rule:evenodd;clip-rule:evenodd;fill:#3B604D;" d="M481.42,277.77c0.31,0.01,0.63,0.02,0.94,0.04
		C482.03,278.12,481.72,278.17,481.42,277.77z"/>
	<path style="fill-rule:evenodd;clip-rule:evenodd;fill:#028354;" d="M481.37,277.56c0.02,0.08,0.03,0.15,0.04,0.23
		c-0.08-0.08-0.17-0.15-0.25-0.23l0.01-0.01C481.23,277.45,481.3,277.44,481.37,277.56z"/>
	<path style="fill-rule:evenodd;clip-rule:evenodd;fill:#BFC2BF;" d="M493.65,271.81c-0.08-0.07-0.16-0.15-0.24-0.22
		C493.49,271.66,493.57,271.73,493.65,271.81z"/>
	<path style="fill-rule:evenodd;clip-rule:evenodd;fill:#BFC2BF;" d="M493.85,272.02c-0.07-0.08-0.15-0.16-0.22-0.23
		C493.7,271.87,493.78,271.95,493.85,272.02z"/>
	<path style="fill-rule:evenodd;clip-rule:evenodd;fill:#3F7E60;" d="M481.37,277.56l-0.1,0l-0.1,0c0-0.24,0-0.47,0-0.71
		c0.07,0,0.15-0.01,0.22-0.01C481.38,277.08,481.37,277.32,481.37,277.56z"/>
	<path style="fill-rule:evenodd;clip-rule:evenodd;fill:#231F20;" d="M472.52,276.58c0.08,0.08,0.17,0.16,0.25,0.24
		C472.68,276.74,472.6,276.66,472.52,276.58z"/>
	<path style="fill-rule:evenodd;clip-rule:evenodd;fill:#3B6652;" d="M483.34,276.35c-0.04,0.26,0.02,0.55-0.25,0.73
		c-0.02-0.39-0.04-0.77-0.07-1.16C483.13,276.06,483.24,276.21,483.34,276.35z"/>
	<path style="fill-rule:evenodd;clip-rule:evenodd;fill:#ECE624;" d="M481.63,276.61c0.35-0.26,0.71-0.39,0.92,0.14
		c0.04,0.11-0.12,0.41-0.24,0.46c-0.55,0.19-0.67-0.16-0.66-0.61L481.63,276.61z"/>
	<path style="fill-rule:evenodd;clip-rule:evenodd;fill:#E7E126;" d="M487.1,276.3c-0.56,0.08-0.65-0.09-0.65-0.37
		c0-0.3,0.01-0.55,0.42-0.53c0.29,0.01,0.57,0,0.51,0.41C487.34,276.13,487.15,276.3,487.1,276.3z"/>
</g>
</svg>
