<?xml version="1.0" encoding="utf-8"?>
<!-- Generator: Adobe Illustrator 16.0.0, SVG Export Plug-In . SVG Version: 6.00 Build 0)  -->
<!DOCTYPE svg PUBLIC "-//W3C//DTD SVG 1.0//EN" "http://www.w3.org/TR/2001/REC-SVG-20010904/DTD/svg10.dtd" [
	<!ENTITY ns_flows "http://ns.adobe.com/Flows/1.0/">
	<!ENTITY ns_extend "http://ns.adobe.com/Extensibility/1.0/">
	<!ENTITY ns_ai "http://ns.adobe.com/AdobeIllustrator/10.0/">
	<!ENTITY ns_graphs "http://ns.adobe.com/Graphs/1.0/">
]>
<svg version="1.0" id="Layer_1" xmlns:x="&ns_extend;" xmlns:i="&ns_ai;" xmlns:graph="&ns_graphs;"
	 xmlns="http://www.w3.org/2000/svg" xmlns:xlink="http://www.w3.org/1999/xlink" xmlns:a="http://ns.adobe.com/AdobeSVGViewerExtensions/3.0/"
	 x="0px" y="0px" width="960px" height="560px" viewBox="0 0 960 560" style="enable-background:new 0 0 960 560;"
	 xml:space="preserve">
<g>
	<path style="fill-rule:evenodd;clip-rule:evenodd;fill:#010000;" d="M454.4,280.6c0-9.88,0.02-19.75-0.02-29.63
		c0-1.17,0.29-1.6,1.54-1.6c15.71,0.04,31.42,0.04,47.14,0c1.13,0,1.53,0.3,1.53,1.48c-0.03,19.91-0.03,39.82,0,59.73
		c0,1.07-0.27,1.47-1.41,1.47c-15.79-0.03-31.58-0.03-47.38,0c-1.15,0-1.41-0.43-1.4-1.48C454.41,300.59,454.4,290.59,454.4,280.6z"
		/>
	<path style="fill-rule:evenodd;clip-rule:evenodd;fill:#231F20;" d="M482.49,311.32c-0.5-0.01-1.01-0.02-1.51-0.03
		c-0.11-0.09-0.25-0.14-0.33-0.27c-0.12-0.26-0.14-0.56-0.26-0.82c-0.08-0.18-0.18-0.35-0.28-0.53c-0.06-0.09-0.11-0.18-0.15-0.28
		c-0.35-0.56-0.61-1.18-1.38-1.32c-1.33-0.24-1.63,0.05-1.33,1.38c0.02,0.64,0.19,1.29-0.25,1.86c-0.5,0-1,0.01-1.49,0.01
		c-0.15-0.14-0.3-0.15-0.45,0c-1.06-0.01-2.12-0.01-3.19-0.02c-1.32-0.73-2.19-1.95-3.25-2.96c-0.6-0.57-1.22-0.99-2.06-1.1
		c-1.15-0.16-2.17-0.79-3.31-1c-0.49-0.09-1.24-0.33-1.38,0.17c-0.1,0.38,0.74,0.4,1.17,0.56c0.11,0.04,0.23,0.08,0.35,0.09
		c2.73,0.2,4.21,1.93,5.21,4.25c-0.6-0.01-1.19-0.01-1.79-0.02c-1.71-0.16-3.43-0.13-5.14,0c-0.59,0.01-1.17,0.03-1.76,0.04
		c-0.06-0.04-0.11-0.1-0.14-0.18c0,0-0.11-0.05-0.11-0.05s-0.12,0.01-0.13,0.02c-0.31,0.15-0.66,0.01-0.96,0.16
		c-0.29,0-0.58,0.01-0.87,0.01c-0.38-0.2-0.83-0.18-1.2-0.4c-0.1-0.05-0.19-0.11-0.28-0.17c-0.13-0.1-0.25-0.2-0.37-0.32
		c-0.3-0.25-0.48-0.59-0.67-0.91c-0.01-0.36-0.01-0.72-0.02-1.09c0.3-0.12,0.56,0.02,0.81,0.16c0.51,0.37,0.98,0.8,1.53,1.12
		c0.57,0.34,1.08,0.41,1.14-0.49c0.05-0.71,0.64-0.94,1.11-1.27c0.09-0.09,0.17-0.19,0.16-0.33c-0.04-0.08-0.08-0.15-0.14-0.23
		c-0.26-0.31-0.59-0.55-0.73-0.95c-0.06-0.23-0.04-0.45,0.06-0.66c0.2-0.32,0.51-0.49,0.83-0.64c0.33-0.13,0.66-0.24,1.01-0.31
		c0.55-0.11,1.13,0.02,1.66-0.23c0.94-0.43,0.56-1.17,0.44-1.85c-0.05-0.14-0.1-0.29-0.16-0.43c-0.05-0.09-0.1-0.18-0.15-0.27
		c-0.28-0.44-0.67-0.78-1.04-1.13c-0.48-0.42-1.03-0.77-1.47-1.23c-0.67-0.83-1.4-0.77-2.19-0.19c-0.61,0.45-1.22,0.89-1.76,1.43
		c-0.3,0.3-0.57,0.69-1.09,0.63c-0.01-0.58-0.02-1.15-0.03-1.73c1.31-0.97,2.43-2.24,4.13-2.58c1.29,0.04,1.84,1.16,2.69,1.84
		c0.12,0.1-0.04-0.02,0.09,0.08c0.62,0.49,1.25,1.27,2.06,0.91c0.73-0.32,0.45-1.28,0.53-1.97c0.42-3.44,0.86-6.88,0.71-10.36
		c-0.02-0.56-0.04-1.11-0.19-1.65c-0.07-0.67-0.19-1.34-0.31-2.01c-0.2-1.11-0.54-1.34-1.64-1.18c-0.91,0.13-1.6,0.68-2.32,1.19
		c-0.81,0.59-1.65,1.13-2.6,1.46c-1.27-0.12-1.71-1.31-2.56-1.98c-0.25-0.19-0.32-0.55-0.57-0.76c0.01-1.09,0.01-2.18,0.02-3.27
		c0.9,0.14,1.42,0.99,2.28,1.21c0.37,0.1,0.83,0.41,1.1,0.05c0.29-0.38-0.16-0.72-0.37-1.03c-0.56-0.82-1.18-1.59-1.91-2.27
		c-0.4-0.43-0.83-0.84-1.1-1.38c-0.01-0.44-0.02-0.88-0.03-1.32c0.89-0.33,1.3,0.35,1.76,0.86c0.42,0.47,0.7,1.06,1.16,1.51
		c0.11,0.11,0.23,0.25,0.4,0.18c0.18-0.08,0.15-0.27,0.12-0.42c-0.21-0.9-0.13-1.82-0.28-2.72c-0.11-0.71-0.44-1.21-1.05-1.64
		c-0.9-0.64-1.79-1.34-2.1-2.49c-0.01-0.66-0.02-1.32-0.02-1.98c0.39-0.16,0.61,0.15,0.89,0.31c0.38,0.31,0.85,0.5,1.16,0.91
		c0.27,0.31,0.02,1.05,0.55,1.02c0.32-0.01,0.45-0.68,0.67-1.05c0.16-0.26,0.07-0.53-0.08-0.78c-0.34-1.04-1.16-1.73-1.8-2.55
		c-0.03-0.04-0.06-0.09-0.1-0.14c-0.06-0.09-0.12-0.19-0.18-0.28c-0.33-0.57-0.75-1.09-1.08-1.66c-0.01-0.52-0.02-1.03-0.04-1.55
		c0.31-0.28,0.67-0.12,1.01-0.13c0.27,0,0.58,0.03,0.67-0.32c0.08-0.32-0.13-0.53-0.4-0.63c-0.48-0.18-0.91-0.43-1.26-0.82
		c0-0.27,0.01-0.54,0.02-0.81c0.27-0.24,0.62-0.23,0.94-0.32c0.13-0.1,0.24-0.21,0.27-0.38c0.22-1.31,0.23-1.33,1.39-0.84
		c0.35,0.15,0.41-0.1,0.54-0.26c0.3-0.38,0.65-0.41,1.06-0.21c0.17,0.1,0.4,0.23,0.41,0.41c0,1.37,0.86,1.3,1.81,1.11
		c0.19-0.04,0.39-0.02,0.59-0.04c0.31-0.07,0.62-0.12,0.92-0.19c0.59-0.15,1.35-0.15,1.08-1.13c-0.26-0.95-0.81-1.25-1.75-0.94
		c-0.22,0.07-0.44,0.17-0.67,0.23c-0.72,0.15-1.38,0.47-2.12,0.52c-1.01-0.13-2.04-0.13-3.03-0.43c-0.53-0.02-1.05-0.09-1.43-0.53
		c-0.01-0.35-0.01-0.69-0.02-1.04c0.84-0.94,0.84-1.33,0.01-2.33c0.01-0.36,0.02-0.72,0.02-1.09c0.12-0.29,0.16-0.58-0.03-0.86
		c-0.19-1,0.25-1.33,1.22-1.24c0.81,0.07,1.64,0.03,2.46,0.04c-0.02,0.34-0.28,0.48-0.53,0.63c-0.28,0.14-0.61,0.16-0.87,0.33
		c-0.61,0.4-0.22,0.57,0.19,0.72c1.05,0.22,2.11,0.19,3.16,0.05c1.57-0.21,1.67-0.4,1.02-1.73c1.48,0,2.97,0.01,4.45,0.02
		c0.04,0.36-0.17,0.61-0.44,0.75c-0.69,0.37-0.72,0.93-0.53,1.58c0.06,0.72,0.05,1.43,0.03,2.14c-0.01,0.38-0.04,0.77,0.02,1.16
		c0.04,0.1,0.07,0.2,0.1,0.29c0.06,0.19,0.14,0.37,0.22,0.56c0.07,0.13,0.13,0.26,0.2,0.39c0.05,0.08,0.1,0.16,0.15,0.24
		c0.11,0.16,0.23,0.31,0.37,0.44c0.08,0.07,0.15,0.13,0.22,0.2c0.04,0.03,0.08,0.07,0.12,0.1c0.61,0.5,0.89-0.09,1.26-0.38
		c0.75-0.65,1.32-1.51,2.23-1.98c0.22-0.09,0.44-0.17,0.66-0.24c0.18-0.05,0.36-0.08,0.54-0.09c0.72-0.01,1.42-0.12,2.11-0.31
		c0.62-0.17,1.28-0.33,1.88-0.14c1.12,0.36,2.17,0.2,3.23-0.16c0.63,0.03,1.26,0.1,1.89,0.2c0.89,0.18,1.81,0.28,2.65,0.65
		c1.21,0.44,2.08,1.4,3.19,2c0.47,0.3,1.01,0.45,1.52,0.67c0.11,0.04,0.21,0.1,0.31,0.15c0.15,0.08,0.3,0.17,0.45,0.27
		c0.74,0.55,1.31,1.17,0.97,2.2c-0.11,0.34,0.02,0.63,0.27,0.86c1.25,1.15,1.57,2.7,1.84,4.28c0.05,1.98,0.6,3.95,0,5.91
		c-0.26,0.85-0.6,1.67-0.96,2.49c-0.07,0.14-0.16,0.27-0.26,0.39c-0.08,0.11-0.17,0.22-0.25,0.33c-0.04,0.08-0.09,0.15-0.13,0.22
		c-0.06,0.11-0.12,0.22-0.18,0.33c-0.03,0.08-0.08,0.15-0.12,0.22c-0.07,0.1-0.14,0.2-0.21,0.31c-0.06,0.11-0.13,0.22-0.19,0.33
		c-0.04,0.08-0.08,0.16-0.12,0.24c-0.04,0.09-0.08,0.17-0.13,0.25c-0.05,0.09-0.1,0.17-0.16,0.25c-0.3,0.35-0.55,0.74-0.83,1.11
		c-0.48,0.58-0.85,1.22-1.2,1.89c-0.26,0.41-0.56,0.77-0.84,1.17c-0.81,1.17-0.71,1.61,0.56,2.21c1.19,0.56,2.43,1.01,3.61,1.58
		c0.14,0.06,0.29,0.12,0.44,0.18c0.1,0.04,0.19,0.08,0.28,0.12c0.14,0.06,0.28,0.13,0.42,0.21c0.09,0.05,0.18,0.1,0.27,0.16
		c0.35,0.25,0.71,0.48,0.98,0.81c0.16,0.2,0.29,0.43,0.47,0.62c0.07,0.07,0.14,0.15,0.21,0.22c0.27,0.31,0.59,0.56,0.93,0.79
		c0.21,0.16,0.4,0.34,0.6,0.52c0.12,0.11,0.24,0.23,0.35,0.34c0.2,0.21,0.39,0.42,0.54,0.67c0.54,1.07,1.02,2.16,1.54,3.23
		c0.6,1.21,0.17,2.59,0.06,3.88c-0.11,1.3-0.53,2.66-0.48,3.88c0.05,1.36-0.61,2.56-0.35,3.99c0.25,1.35-0.48,2.81-1.11,4.1
		c-0.39,0.81-0.56,1.77-1.37,2.34c-0.43,0-0.85,0.01-1.28,0.01c-0.26-0.91,0.3-1.55,0.75-2.22c0.06-0.05,0.11-0.1,0.16-0.17
		c0.15-0.22,0.29-0.46,0.37-0.72c-0.09,0.24-0.21,0.47-0.35,0.69c-0.9,1.19-2.3,1.47-3.58,1.96c-0.56,0.05-1.03,0.41-1.59,0.47
		c-1.14,0-2.28,0.01-3.42,0.01c0.02-0.57,0.53-0.5,0.86-0.65c0.29-0.13,0.72-0.18,0.71-0.54c-0.03-1-0.63-1.78-1.2-2.54
		c-0.42-0.56-0.98-0.37-1.53-0.21c-0.79,0.23-1.52,0.76-2.4,0.51c-0.38,0.22,0.02,0.34,0.08,0.5
		C482.2,309.28,482.71,310.19,482.49,311.32z"/>
	<path style="fill-rule:evenodd;clip-rule:evenodd;fill:#FEC60B;" d="M485.16,250.13c2.76,0,5.52,0.01,8.28,0.01
		c4.81,0.49,7.05,4.02,9.13,7.72c0.96,1.71,0.98,3.67,1.25,5.55c-0.01,12.29-0.01,24.57-0.02,36.86c-0.14,0.07-0.26,0.05-0.35-0.08
		c-0.3-0.45-0.4-0.96-0.42-1.48c-0.14-3.83-0.26-7.65-0.25-11.48c0.01-3.09-0.01-6.23-0.65-9.29c-0.81-3.87-1.23-7.81-2.46-11.59
		c-0.59-1.82-0.81-3.84-1.62-5.49c-1.01-2.08-2.04-4.46-4.69-5.26c-1.34-0.4-2.69-0.75-4.04-1.13c-1.62-0.46-3.03-1.25-3.89-2.78
		C485.17,251.21,484.86,250.72,485.16,250.13z"/>
	<path style="fill-rule:evenodd;clip-rule:evenodd;fill:#242021;" d="M485.16,250.13c0.57,2.01,1.87,3.29,3.88,3.85
		c1.42,0.4,2.85,0.77,4.26,1.2c1.78,0.54,2.78,1.86,3.85,3.35c1.88,2.61,1.98,5.72,3.06,8.54c1.12,2.92,1.32,6.07,1.98,9.1
		c0.9,4.12,0.96,8.3,0.91,12.48c-0.05,3.88,0.12,7.74,0.52,11.6c0.2,0.64,0.05,1.29,0.09,1.93c0,0.72,0,1.44,0,2.16
		c0,0.93,0,1.85,0,2.78c0,0.42,0,0.83,0,1.25c-0.13,1,0,2.04-0.6,2.95c-0.34-0.01-0.69-0.02-1.03-0.04
		c-0.36-0.45-0.34-0.98-0.26-1.49c0.33-2.1,0.22-4.22,0.21-6.33c-0.15-1.54-0.25-3.08-0.25-4.63c0.05-1.99-0.44-3.97-0.21-5.96
		c-0.13-1.97,0.19-3.94-0.15-5.9c-0.05-0.21-0.07-0.43-0.1-0.64c-0.11-1.62,0.2-3.25-0.13-4.86c-0.4-5.1-1.41-10.09-2.71-15.04
		c-0.27-1.03-0.66-1.96-1.46-2.68c-0.38-0.85-0.61-1.74-0.73-2.65c-0.01-0.11-0.02-0.22-0.04-0.33c-0.03-0.1-0.05-0.21-0.08-0.31
		c-0.06-0.34-0.11-0.69-0.22-1.02c-0.05-0.18-0.11-0.36-0.19-0.53c-0.05-0.08-0.09-0.16-0.13-0.24c-0.11-0.2-0.26-0.38-0.42-0.55
		c-0.07-0.06-0.13-0.13-0.2-0.2c-0.07-0.07-0.14-0.13-0.2-0.2c-0.04-0.03-0.07-0.07-0.11-0.1c-0.08-0.06-0.15-0.13-0.22-0.2
		c-0.12-0.09-0.25-0.18-0.38-0.26c-1.56-0.89-3.31-1.24-5-1.73c-0.16-0.04-0.31-0.1-0.47-0.15c-0.16-0.05-0.31-0.1-0.45-0.17
		c-0.33-0.15-0.66-0.3-1-0.42c-0.14-0.05-0.28-0.11-0.41-0.18c-0.09-0.04-0.17-0.09-0.25-0.14c-0.08-0.05-0.15-0.11-0.23-0.17
		c-0.04-0.03-0.07-0.06-0.1-0.1c-0.07-0.06-0.14-0.13-0.2-0.2c-0.03-0.03-0.07-0.07-0.1-0.1c-0.07-0.06-0.14-0.13-0.21-0.2
		c-0.04-0.03-0.07-0.07-0.11-0.1c-0.07-0.07-0.14-0.14-0.21-0.21c-0.11-0.12-0.2-0.24-0.29-0.37c-0.46-0.9-1.25-1.66-1.19-2.78
		C484.32,250.12,484.74,250.12,485.16,250.13z"/>
	<path style="fill-rule:evenodd;clip-rule:evenodd;fill:#761A15;" d="M494.04,311.29c0.77-1.99,1.87-3.87,2.19-6.03
		c0.05-0.3,0.31-0.65,0.01-0.89c-0.72-0.59-0.39-1.04,0.07-1.57c0.24-0.28,0.69-0.64,0.05-1.05c-0.26-0.17-0.17-0.49-0.06-0.77
		c0.93-2.3,0.77-4.77,0.9-7.15c0.06-1.07-1.19-2.01-1.45-3.2c-0.07-0.31-0.22-0.59-0.33-0.89c-0.03-2.48-1.17-4.6-2.29-6.69
		c-1.22-2.28-2.47-4.54-3.48-6.92c-0.05-0.11-0.04-0.23,0.01-0.34c0-0.08,0.02-0.16,0.04-0.23c0.07-0.08,0.14-0.16,0.21-0.24
		c0.01-0.08,0.03-0.16,0.04-0.24c0.06-0.08,0.13-0.16,0.2-0.23c0.07-0.09,0.15-0.18,0.22-0.27c0.47,0.25,0.66,0.72,0.76,1.17
		c0.68,2.97,2.29,5.52,3.58,8.22c0.33,0.69,0.7,1.35,1.01,2.05c1.03,2.63,2.06,5.26,2.8,7.99c0.6,2.22,0.61,4.48,0.36,6.73
		c-0.29,2.65-0.47,5.32-1.21,7.9c-0.27,0.95-0.46,1.95-1.27,2.65C495.62,311.29,494.83,311.29,494.04,311.29z"/>
	<path style="fill-rule:evenodd;clip-rule:evenodd;fill:#287F43;" d="M460.15,307.98c-0.52,0.5-1.61,0.54-1.16,1.81
		c0.12,0.35-0.73,0.72-1.32,0.38c-0.68-0.4-1.33-0.82-1.83-1.45c-0.53-0.32-0.63-0.81-0.61-1.39c0.02-0.57,0.11-1.16-0.08-1.73
		c0-1.36,0-2.71,0-4.07c0.93-0.8,1.85-1.62,2.8-2.39c0.94-0.76,1.81-0.74,2.45,0.42c0.26,0.84-0.44,0.9-0.91,1.01
		c-0.85,0.2-1.57,0.55-2.08,1.26c-1.43,1.96-0.45,4.48,2.01,5.2c0.27,0.12,0.5,0.32,0.75,0.47l-0.01-0.01
		C460.3,307.64,460.3,307.81,460.15,307.98z"/>
	<path style="fill-rule:evenodd;clip-rule:evenodd;fill:#A93324;" d="M501.87,292.85c0.08,2,0.16,4,0.24,6
		c-0.23,2.16-0.7,4.29-0.79,6.46c-0.07,1.64-0.37,3.22-0.96,4.75c-0.21,0.54-0.49,0.99-1.06,1.21c-0.24,0-0.48,0-0.72,0
		c0.15-1.47,0.83-2.81,0.97-4.29c0.36-3.72,1.06-7.41,1.09-11.17c0.01-1.69-0.34-3.25-1.16-4.7c-0.81-1.42-1.58-2.87-2.46-4.25
		c-0.81-1.46-1.54-2.96-2.12-4.54c0.04-0.66-0.62-1.22-0.27-1.92c0.86-0.15,0.91,0.63,1.1,1.09c1,2.36,2.16,4.62,3.63,6.72
		c0.23,0.33,0.43,0.67,0.67,0.99C500.84,290.33,501.85,291.34,501.87,292.85z"/>
	<path style="fill-rule:evenodd;clip-rule:evenodd;fill:#FCDEA0;" d="M481.33,307.52c0.84,0.2,1.69,0.01,2.36-0.4
		c1.35-0.82,1.97-0.02,2.57,0.94c1.32,2.09,1.23,2.34-1.16,3.25c-0.87,0-1.74,0-2.61,0c-0.35-0.98-0.56-2.02-1.19-2.89
		C481.06,308.12,481,307.81,481.33,307.52z"/>
	<path style="fill-rule:evenodd;clip-rule:evenodd;fill:#FCDE9F;" d="M468.6,311.3c-0.52-0.18-0.8-0.58-1.01-1.07
		c-0.65-1.52-1.69-2.53-3.46-2.69c-0.86-0.08-1.7-0.43-2.54-0.67c-0.25-0.08-0.64-0.13-0.6-0.47c0.03-0.33,0.31-0.57,0.65-0.6
		c0.43-0.04,0.91-0.12,1.31,0.01c2.63,0.86,5.56,1.14,7.34,3.72c0.45,0.65,1.05,1.18,1.58,1.77
		C470.78,311.3,469.69,311.3,468.6,311.3z"/>
	<path style="fill-rule:evenodd;clip-rule:evenodd;fill:#821F19;" d="M496.41,311.28c1.71-4.06,1.98-8.42,2.31-12.71
		c0.21-2.67-0.58-5.33-1.57-7.87c-0.62-1.59-1.14-3.22-1.7-4.83c0.61-0.06,0.66,0.48,0.83,0.83c0.28,0.57,0.46,1.18,0.83,1.71
		c0.06,0.09,0.12,0.18,0.17,0.27c0.08,0.14,0.15,0.28,0.21,0.43c0.05,0.1,0.09,0.2,0.13,0.3c0.11,0.38,0.3,0.72,0.47,1.07
		c0.05,0.11,0.09,0.23,0.12,0.35c1.27,2.86,1.48,5.88,1.42,8.95c-0.12,3.35-0.39,6.68-1.28,9.92c-0.17,0.61-0.29,1.27-0.97,1.56
		C497.05,311.28,496.73,311.28,496.41,311.28z"/>
	<path style="fill-rule:evenodd;clip-rule:evenodd;fill:#8D241C;" d="M497.37,311.28c1.16-2.39,1.35-5,1.65-7.58
		c0.15-1.29,0.17-2.6,0.25-3.91c0.37-3.25-0.07-6.38-1.44-9.36l0,0c-0.2-0.38-0.27-0.82-0.48-1.2l0,0
		c-0.14-0.13-0.09-0.35-0.24-0.48l0,0c-0.78-1.6-1.57-3.19-2.42-4.75c-0.16-0.29-0.26-0.58-0.12-0.9c0.64-0.37,0.68,0.25,0.87,0.56
		c0.68,1.11,1.02,2.41,1.81,3.47c0.06,0.08,0.11,0.17,0.17,0.25c0.08,0.12,0.14,0.25,0.19,0.39c0.05,0.08,0.09,0.16,0.13,0.24
		c0.06,0.12,0.1,0.24,0.16,0.36c0.04,0.07,0.08,0.15,0.12,0.23c0.04,0.08,0.08,0.15,0.12,0.23c0.04,0.08,0.08,0.15,0.12,0.23
		c0.06,0.12,0.13,0.24,0.19,0.36c0.06,0.08,0.1,0.17,0.15,0.25c0.09,0.14,0.17,0.28,0.24,0.43c0.06,0.11,0.12,0.21,0.17,0.32
		c1.6,2.92,1.42,6.09,1.26,9.23c-0.07,1.31-0.15,2.62-0.28,3.93c-0.22,2.06-0.34,4.13-0.99,6.11c-0.21,0.64-0.41,1.32-1.16,1.57
		C497.69,311.28,497.53,311.28,497.37,311.28z"/>
	<path style="fill-rule:evenodd;clip-rule:evenodd;fill:#312E74;" d="M455.15,270.09c0.9,0.94,1.67,2.02,2.88,2.62
		c0.32,0.16,0.42,0.44,0.46,0.78c0.15,1.26,0.33,2.51,0.46,3.76c0.03,0.26,0.02,0.66-0.14,0.77c-0.35,0.24-0.56-0.17-0.75-0.39
		c-0.46-0.54-0.91-1.1-1.31-1.69c-0.4-0.59-0.95-0.94-1.62-1.13C455.14,273.24,455.14,271.66,455.15,270.09z"/>
	<path style="fill-rule:evenodd;clip-rule:evenodd;fill:#262222;" d="M503.82,263.41c-0.26-1.04-0.51-2.08-0.77-3.11
		c-0.99-4.01-3.44-6.93-6.83-9.16c-0.85-0.56-1.85-0.68-2.78-1.01c1,0,1.99,0,2.99,0c3.75,1.84,6.6,4.44,7.37,8.79
		C503.81,260.42,503.82,261.91,503.82,263.41z"/>
	<path style="fill-rule:evenodd;clip-rule:evenodd;fill:#F8CB8B;" d="M459.22,297.4c-1.57,0.44-2.5,1.99-4.1,2.39
		c0.01-0.7,0.02-1.39,0.03-2.09c0.82-1.81,2.23-3.2,3.4-4.76c0.18-0.06,0.36-0.06,0.54,0.01c0.61,0.47,0.45,1.15,0.44,1.77
		c-0.01,0.76,0.15,1.41,0.74,1.93c0.25,0.56,0.4,1.04-0.53,0.71C459.56,297.3,459.38,297.24,459.22,297.4z"/>
	<path style="fill-rule:evenodd;clip-rule:evenodd;fill:#282323;" d="M458.48,293.08c-0.73,1.81-2.12,3.15-3.32,4.63
		c-0.01-0.52-0.02-1.03-0.03-1.55c0.24-0.31,0.37-0.69,0.66-0.97c1.2-1.16,1.41-2.57,0.97-4.12c-0.04-1.08-0.27-2.14-0.37-3.21
		c-0.15-0.76-0.89-1.1-1.25-1.71c0-0.5,0-0.99,0-1.49c2.15,0.54,3.1,1.84,3.21,4.37c0.02,0.68-0.06,1.38,0.17,2.04
		c0.09,0.49,0.04,1,0.15,1.49C458.67,292.75,458.61,292.93,458.48,293.08z"/>
	<path style="fill-rule:evenodd;clip-rule:evenodd;fill:#9C2A20;" d="M497.85,311.28c1.29-1.62,1.36-3.6,1.66-5.52
		c0.11-0.7,0.17-1.42,0.25-2.12c0.25-2.83,0.59-5.67,0.46-8.52c-0.09-1.85-0.8-3.54-1.66-5.16l0,0c-0.14-0.13-0.09-0.35-0.24-0.48
		l0,0c-0.14-0.13-0.09-0.35-0.24-0.48l0,0c-0.14-0.13-0.1-0.35-0.24-0.48l0,0c-0.14-0.13-0.09-0.35-0.24-0.48h0
		c-0.14-0.13-0.09-0.35-0.24-0.48l0,0c-0.13-0.31-0.54-0.55-0.24-0.96c2.89,3.8,4.63,7.92,3.69,12.85c-0.6,3.11-0.53,6.32-1.28,9.42
		c-0.21,0.85-0.4,1.71-0.95,2.42C498.33,311.28,498.09,311.28,497.85,311.28z"/>
	<path style="fill-rule:evenodd;clip-rule:evenodd;fill:#BF412A;" d="M499.29,311.28c1.21-1.73,1.6-3.72,1.63-5.75
		c0.03-2.12,0.73-4.13,0.82-6.23c0.01-0.15,0.24-0.29,0.36-0.44c0.08,1.52,0.17,3.04,0.26,4.55c-0.2,2.08-0.07,4.2-0.91,6.19
		c-0.28,0.66-0.47,1.36-1.2,1.69C499.93,311.28,499.61,311.28,499.29,311.28z"/>
	<path style="fill-rule:evenodd;clip-rule:evenodd;fill:#03ADCD;" d="M456.39,277.27c1.05,0.87,1.84,1.97,2.55,3.11
		c0.14,0.22,0.4,0.47,0.23,0.75c-0.2,0.33-0.57,0.21-0.87,0.18c-1.31-0.12-2.24-0.92-3.14-1.77c0-0.63-0.01-1.26-0.01-1.89
		C455.46,277.21,455.85,276.99,456.39,277.27z"/>
	<path style="fill-rule:evenodd;clip-rule:evenodd;fill:#B03725;" d="M464.97,254.93c-0.01-0.88-0.01-1.76-0.02-2.65
		c0.2-0.14,0.46-0.13,0.65-0.27c1.73-1.3,3.63-2.01,5.82-1.85c2.25,0,4.49,0,6.74,0c0.06,0.14,0.02,0.25-0.1,0.34
		c-0.42,0.25-0.9,0.17-1.35,0.2c-1.08,0.01-2.16-0.05-3.23,0c-2.69,0.12-5.09,0.89-6.82,3.14c-0.37,0.48-0.71,0.96-0.87,1.56
		c-0.09,0.32-0.09,0.76-0.6,0.75l0-0.02C464.94,255.76,465.24,255.3,464.97,254.93z"/>
	<path style="fill-rule:evenodd;clip-rule:evenodd;fill:#07B0CF;" d="M458.25,250.49c0.18-0.11,0.36-0.23,0.55-0.34
		c0.99,0,1.99-0.01,2.98-0.01c0.37,0.44,1.31,0.61,1.15,1.2c-0.18,0.65-1.07,0.67-1.73,0.8c-1.22,0.24-2.44,0.23-3.65-0.05
		C457.27,251.33,457.99,251.01,458.25,250.49z"/>
	<path style="fill-rule:evenodd;clip-rule:evenodd;fill:#E4AB6A;" d="M503.8,258.92c-1.14-4.03-4.01-6.62-7.37-8.79
		c0.87,0.01,1.73,0.02,2.6,0.03c1.72,1.56,3.2,3.32,4.32,5.36c0.1,0.18,0.28,0.28,0.45,0.38C503.8,256.91,503.8,257.91,503.8,258.92
		z"/>
	<path style="fill-rule:evenodd;clip-rule:evenodd;fill:#E26C27;" d="M457.96,288.95c0.39-2.31-1.44-3.15-2.83-4.29
		c0.01-0.62,0.01-1.23,0.02-1.85c0.96,0.42,1.48,1.34,2.23,2c0.26,0.23,0.39,0.6,0.82,0.55c1.31-0.06,1.05,1.11,1.41,1.8
		c0.02,0.6-0.44,0.97-0.68,1.44c-0.13,0.21-0.26,0.41-0.5,0.51C458.23,289.15,458.07,289.13,457.96,288.95z"/>
	<path style="fill-rule:evenodd;clip-rule:evenodd;fill:#EA3F2C;" d="M457.01,291.16c0.74,1.97,0.19,3.44-1.88,5
		c0.01-0.95,0.02-1.9,0.03-2.85c0.36-0.82,0.93-1.52,1.27-2.37C456.7,290.21,456.86,290.92,457.01,291.16z"/>
	<path style="fill-rule:evenodd;clip-rule:evenodd;fill:#CD5032;" d="M500.25,311.28c1.27-2.15,1.75-4.52,1.91-6.98
		c0.02-0.31-0.06-0.64,0.21-0.89c0.19,2.64,0.08,5.26-0.28,7.88C501.48,311.29,500.86,311.28,500.25,311.28z"/>
	<path style="fill-rule:evenodd;clip-rule:evenodd;fill:#BE3C28;" d="M471.42,250.16c-2.24,0.1-4.19,0.93-5.9,2.37
		c-0.28,0.23-0.37-0.19-0.58-0.24c-0.82-1.46,0.86-1.42,1.28-2.13C467.96,250.16,469.69,250.16,471.42,250.16z"/>
	<path style="fill-rule:evenodd;clip-rule:evenodd;fill:#D79152;" d="M503.81,255.9c-0.23,0.21-0.43,0.51-0.68,0
		c-0.94-1.92-2.15-3.64-3.84-4.98c-0.17-0.14-0.17-0.5-0.25-0.75c0.32,0,0.64,0,0.96,0c1.14,0.82,1.92,1.97,2.7,3.1
		c0.31,0.45,0.57,0.95,1.11,1.2C503.8,254.94,503.8,255.42,503.81,255.9z"/>
	<path style="fill-rule:evenodd;clip-rule:evenodd;fill:#F8F8F8;" d="M480.86,311.06c0.04,0.08,0.08,0.15,0.12,0.23
		c-1.26-0.01-2.52-0.01-3.78-0.02c-0.25-0.48-0.11-1-0.11-1.5c-0.01-1.01,0.16-1.13,1.07-0.61c0.66,0.37,1.35,0.6,2.06,0.8
		C480.69,310.18,480.57,310.74,480.86,311.06z"/>
	<path style="fill-rule:evenodd;clip-rule:evenodd;fill:#C0432B;" d="M478.16,250.36c0-0.07,0-0.13,0-0.2
		c1.91-0.01,3.82-0.03,5.73-0.04c0.51,0.96,1.01,1.91,1.52,2.87c-0.6,0.29-0.95-0.19-1.36-0.46c-1.32-0.86-2.54-1.95-4.27-1.84
		c-0.38-0.01-0.75,0.01-1.13-0.04C478.46,250.61,478.28,250.52,478.16,250.36z"/>
	<path style="fill-rule:evenodd;clip-rule:evenodd;fill:#9CDAF0;" d="M455.87,268.59c-0.25-0.16-0.5-0.32-0.75-0.48
		c0.01-0.56,0.02-1.11,0.03-1.67c1.07-0.51,2.27-0.07,2.7,0.98c0.26,0.64-0.22,1.36-0.97,1.41
		C456.53,268.87,456.19,268.77,455.87,268.59z"/>
	<path style="fill-rule:evenodd;clip-rule:evenodd;fill:#F8F8F8;" d="M489.95,310.64c1.18-0.68,2.67-0.79,3.57-1.97
		c0.4,0,0.42,0.19,0.23,0.48c-0.33,0.71-0.66,1.43-0.99,2.14c-0.79-0.04-1.61,0.23-2.36-0.22
		C490.31,310.86,489.81,311.09,489.95,310.64z"/>
	<path style="fill-rule:evenodd;clip-rule:evenodd;fill:#C26F3A;" d="M503.8,254.46c-0.19,0.06-0.3,0.51-0.55,0.18
		c-1.1-1.48-2.18-2.99-3.27-4.48c0.32,0,0.64,0,0.96,0c1.22,0.88,1.93,2.2,2.85,3.33C503.81,253.81,503.8,254.14,503.8,254.46z"/>
	<path style="fill-rule:evenodd;clip-rule:evenodd;fill:#F5C113;" d="M455.13,260.46c0.71-0.14,1.06,0.68,1.79,0.66
		c0.3-0.01,0.42,0.62,0.38,1.02c-0.04,0.49-0.46,0.5-0.81,0.47c-0.47-0.04-0.92-0.17-1.39-0.26
		C455.12,261.72,455.13,261.09,455.13,260.46z"/>
	<path style="fill-rule:evenodd;clip-rule:evenodd;fill:#EAE9EA;" d="M480.31,310.13c-0.53-0.07-1.06,0.05-1.59-0.27
		c-1.49-0.89-1.51-0.86-1.51,0.93c0,0.16,0,0.31-0.01,0.47c-0.07,0.03-0.13,0.04-0.2,0.03c-0.02-0.7-0.05-1.4-0.08-2.09
		c-0.05-0.45-0.33-1.02,0.18-1.29c0.49-0.27,1.03,0,1.43,0.36c0.57,0.51,1.32,0.76,1.84,1.33l0,0c0.05,0.14,0.08,0.28,0.05,0.43
		C480.38,310.07,480.35,310.1,480.31,310.13z"/>
	<path style="fill-rule:evenodd;clip-rule:evenodd;fill:#E54046;" d="M455.12,286.15c0.7,0.22,1.22,0.63,1.45,1.35
		c0.13,0.6,0.21,1.2-0.06,1.79c-1.08,0.29-1.29-0.39-1.36-1.22C455.14,287.42,455.13,286.78,455.12,286.15z"/>
	<path style="fill-rule:evenodd;clip-rule:evenodd;fill:#71C8E1;" d="M455.87,268.59c0.73-0.03,1.87,0.2,1.78-0.81
		c-0.12-1.32-1.36-1.44-2.5-1.33c0-0.17,0-0.33-0.01-0.5c0.42-0.39,0.92-0.35,1.43-0.26c0.79,0.8,1.65,1.54,1.93,2.7
		c-0.39,0.47-0.83,0.88-1.45,1.03C456.66,269.15,456.27,268.87,455.87,268.59z"/>
	<path style="fill-rule:evenodd;clip-rule:evenodd;fill:#B3592E;" d="M503.81,253.49c-1.29-0.82-1.98-2.15-2.85-3.33
		c0.32,0,0.64,0,0.96,0c0.78,0.49,1.18,1.35,1.89,1.9C503.8,252.53,503.8,253.01,503.81,253.49z"/>
	<path style="fill-rule:evenodd;clip-rule:evenodd;fill:#E45D44;" d="M456.33,289.24c0.45-0.53,0.14-1.17,0.25-1.75
		c0.27,1.21,0.49,2.42,0.43,3.67c-0.15,0.01-0.35-0.56-0.42-0.04c-0.13,0.99-0.7,1.63-1.44,2.19c0-0.16,0-0.32,0-0.49
		C455.76,291.7,455.87,290.41,456.33,289.24z"/>
	<path style="fill-rule:evenodd;clip-rule:evenodd;fill:#9D4124;" d="M503.8,252.06c-1.18-0.09-1.34-1.18-1.89-1.9
		C503.91,250.06,503.91,250.06,503.8,252.06z"/>
	<path style="fill-rule:evenodd;clip-rule:evenodd;fill:#4BC2E1;" d="M455.15,256.66c0.47,0.07,0.93,0.15,1.4,0.22
		c0.14,0.12,0.18,0.31,0.07,0.41c-0.78,0.69-0.67,1.49-0.36,2.34c-0.37,0.01-0.73,0.02-1.1,0.02
		C455.15,258.66,455.15,257.66,455.15,256.66z"/>
	<path style="fill-rule:evenodd;clip-rule:evenodd;fill:#F8CE0E;" d="M455.13,253.29c1.41-0.09,0.9,1.01,1,1.68
		c0.14,0.87-0.49,0.71-1.01,0.65C455.13,254.84,455.13,254.07,455.13,253.29z"/>
	<path style="fill-rule:evenodd;clip-rule:evenodd;fill:#0AAFD0;" d="M456.58,265.7c-0.41,0.44-0.95,0.16-1.43,0.26
		c0-0.69,0-1.37,0.01-2.06c0.65,0.34,1.02,0.92,1.32,1.56c-0.02,0.11,0.02,0.2,0.11,0.26L456.58,265.7z"/>
	<path style="fill-rule:evenodd;clip-rule:evenodd;fill:#F1735D;" d="M456.33,289.24c0.08,1.35-0.12,2.61-1.17,3.58
		c0-0.16,0-0.33,0.01-0.49c0.16-1.03,0.74-2.05,0-3.08c0-0.4,0-0.79,0-1.19C455.3,288.7,455.77,289.01,456.33,289.24z"/>
	<path style="fill-rule:evenodd;clip-rule:evenodd;fill:#E4A460;" d="M455.17,309.49c0.31,0.27,0.63,0.55,0.94,0.82
		c0.05,0.13,0.12,0.23,0.26,0.25l0-0.02c0.14,0.26,0.16,0.51-0.07,0.74C454.45,311.62,455.23,310.29,455.17,309.49z"/>
	<path style="fill-rule:evenodd;clip-rule:evenodd;fill:#F8C811;" d="M503.12,311.32c-0.09-1,0.37-1.9,0.51-2.86
		c0.05-0.14,0.11-0.13,0.18-0.01c0.01,0.76-0.01,1.52,0.05,2.27C503.9,311.34,503.55,311.35,503.12,311.32z"/>
	<path style="fill-rule:evenodd;clip-rule:evenodd;fill:#C8CCCD;" d="M461.67,311.28c1.71-0.41,3.43-0.46,5.14,0
		C465.1,311.28,463.38,311.28,461.67,311.28z"/>
	<path style="fill-rule:evenodd;clip-rule:evenodd;fill:#F59D8A;" d="M455.16,289.25c1.03-0.01,0.67,0.78,0.66,1.26
		c0,0.66-0.21,1.3-0.66,1.82c0-0.24,0-0.47,0-0.71c0.14-0.71,0.14-1.42,0-2.13C455.16,289.41,455.16,289.33,455.16,289.25z"/>
	<path style="fill-rule:evenodd;clip-rule:evenodd;fill:#79C0D8;" d="M456.39,277.27c-0.41,0.13-0.83,0.26-1.24,0.38
		c0.01-0.51,0.01-1.02,0.02-1.53C455.58,276.51,455.98,276.89,456.39,277.27z"/>
	<path style="fill-rule:evenodd;clip-rule:evenodd;fill:#5C824D;" d="M455.15,305.59c0.56,0.97-0.22,2.23,0.69,3.12
		c-0.23-0.1-0.46-0.21-0.69-0.31C455.15,307.47,455.15,306.53,455.15,305.59z"/>
	<path style="fill-rule:evenodd;clip-rule:evenodd;fill:#817D5D;" d="M503.64,307.27c0-0.98,0-1.95,0-2.93c0.05,0,0.1,0,0.15,0
		c0,0.97,0,1.95,0,2.92C503.75,307.27,503.69,307.27,503.64,307.27z"/>
	<path style="fill-rule:evenodd;clip-rule:evenodd;fill:#D98343;" d="M456.31,311.28c0.02-0.25,0.04-0.49,0.07-0.74
		c0.44,0.25,0.88,0.5,1.32,0.74C457.23,311.28,456.77,311.28,456.31,311.28z"/>
	<path style="fill-rule:evenodd;clip-rule:evenodd;fill:#B7B8BB;" d="M489.95,310.64c0.15,0.14,0.3,0.29,0.46,0.43
		c-0.63,0.07-1.25,0.15-1.88,0.22C488.99,311.08,489.47,310.86,489.95,310.64z"/>
	<path style="fill-rule:evenodd;clip-rule:evenodd;fill:#B5A65A;" d="M503.8,304.34c-0.05,0-0.1,0-0.15,0
		c0-0.72-0.01-1.43-0.01-2.15c0.06-0.11,0.12-0.11,0.17,0C503.8,302.91,503.8,303.63,503.8,304.34z"/>
	<path style="fill-rule:evenodd;clip-rule:evenodd;fill:#F9C4B9;" d="M455.16,289.49c0.35,0.71,0.32,1.42,0,2.13
		C455.16,290.91,455.16,290.2,455.16,289.49z"/>
	<path style="fill-rule:evenodd;clip-rule:evenodd;fill:#DDBF39;" d="M503.81,302.2c-0.06,0-0.12,0-0.17,0
		c0-0.65-0.01-1.29-0.01-1.94c0.06,0.01,0.12,0.02,0.18,0.02C503.81,300.91,503.81,301.55,503.81,302.2z"/>
	<path style="fill-rule:evenodd;clip-rule:evenodd;fill:#C57249;" d="M459.94,311.15c0,0.06,0,0.12-0.03,0.17
		c-0.45-0.01-0.9-0.03-1.35-0.05c0.39-0.14,0.78-0.27,1.17-0.41C459.84,310.93,459.97,310.98,459.94,311.15z"/>
	<path style="fill-rule:evenodd;clip-rule:evenodd;fill:#C6B14C;" d="M503.64,307.27c0.05-0.01,0.11-0.01,0.16,0
		c0,0.4,0,0.79,0.01,1.19l-0.09,0l-0.09,0.01C503.63,308.07,503.64,307.67,503.64,307.27z"/>
	<path style="fill-rule:evenodd;clip-rule:evenodd;fill:#5898AF;" d="M455.13,251.35c0.39,0.27,0.35,0.56,0.03,0.86
		C455.15,251.92,455.14,251.63,455.13,251.35z"/>
	<path style="fill-rule:evenodd;clip-rule:evenodd;fill:#B1B3B3;" d="M475.06,311.31c0.09-0.08,0.19-0.16,0.28-0.24
		c0.05,0.08,0.11,0.16,0.16,0.24C475.36,311.31,475.21,311.31,475.06,311.31z"/>
	<path style="fill-rule:evenodd;clip-rule:evenodd;fill:#F17A23;" d="M459.67,271.23c-0.17-0.71,0.39-1.08,0.73-1.55
		c0.31-0.43,0.75-1.09,0.25-1.37c-1.11-0.61-0.9-1.63-1.17-2.53c-0.12-0.42-0.13-1.73-1.07-0.44c-0.2,0.28-0.45,0.09-0.59-0.1
		c-0.36-0.47-0.95-0.82-1-1.44c-0.03-0.37,0.43-0.23,0.68-0.28c1.05-0.23,1.43-0.82,1.02-1.83c-0.32-0.78-0.09-0.98,0.74-1.07
		c1.82-0.2,3.62-0.6,5.47-0.43c0.53,0.05,1.23,0.16,1.31,0.63c0.09,0.54-0.66,0.56-1.07,0.72c-1.05,0.41-2.12,0.65-3.25,0.17
		c-0.64-0.28-1.17,0.09-1.63,0.49c-0.45,0.39-0.48,0.74,0.21,0.87c0.56,0.1,1.05,0.35,1.52,0.67c0.21,0.14,0.38,0.38,0.69,0.03
		c0.91-1.02,2.09-0.62,3.2-0.47c0.32,0.04,0.64,0.28,0.65,0.62c0.01,0.45-0.44,0.4-0.72,0.46c-0.82,0.17-1.66,0.25-2.47,0.44
		c-0.45,0.1-0.81,0.44-0.74,0.95c0.08,0.61,0.57,0.49,1.03,0.49c1.25,0.02,2.46,0.24,3.51,0.99c0.36,0.26,0.72,0.56,0.63,1.08
		c-0.09,0.52-0.51,0.72-0.95,0.79c-0.71,0.1-1.43,0.09-2.14,0.17c-0.34,0.04-0.91-0.28-0.96,0.33c-0.04,0.45,0.43,0.7,0.81,0.77
		c0.94,0.16,1.9,0.23,2.85,0.34c0.47,0.05,1.14,0.01,1.19,0.56c0.05,0.59-0.69,0.64-1.09,0.66c-0.96,0.04-1.81,0.65-2.8,0.47
		c-0.21-0.04-0.54-0.08-0.55,0.26c0,0.15,0.19,0.35,0.34,0.45c0.44,0.31,0.97,0.34,1.49,0.38c0.32,0.02,0.63,0.09,0.95,0.12
		c1.02,0.08,1.88,0.88,1.83,1.58c-0.05,0.76-1.22,0.54-1.95,0.54c-1.02,0-2.04-0.62-3.05,0.01c0.05,0.09,0.1,0.18,0.15,0.27
		l0.04,0.06c-0.1,0.78-0.67,0.76-1.22,0.68c-0.57-0.08-0.58-0.54-0.56-0.99c0.02-0.31-0.08-0.63,0.11-0.91
		c0.31-0.13,0.85,0.01,0.91-0.4c0.06-0.46-0.47-0.25-0.72-0.36c-0.59-0.24-0.65-0.71-0.66-1.26c-0.02-0.92-0.27-1.66-1.41-1.59
		C460.01,271.38,459.84,271.38,459.67,271.23z"/>
	<path style="fill-rule:evenodd;clip-rule:evenodd;fill:#FEDFA0;" d="M482.02,293.16c-0.26,0.53-0.75,0.81-1.22,1.12
		c-0.32,0.23-0.78,0.26-0.98,0.67c-0.88,0.73-1.68,1.52-2.45,2.39c-1.08,1.21-2.69,1.02-4.17,0.92c-0.6-0.04-0.42-0.61-0.35-0.96
		c0.21-0.97,0.82-1.71,1.53-2.38c3.14-2.99,6.64-5.57,9.98-8.31c0.55-0.46,1.3-1.07,2.01-0.34c0.7,0.71,0.52,1.6,0.03,2.42
		c-0.37,0.64-0.99,1.02-1.51,1.5C483.56,290.8,482.54,291.73,482.02,293.16z"/>
	<path style="fill-rule:evenodd;clip-rule:evenodd;fill:#FEDFA0;" d="M482.5,299.65c0.39,0.05,0.77,0.1,1.16,0.15
		c0.24,0.25,0.49,0.26,0.77,0.07c0.22,0.06,0.45,0.11,0.67,0.17c0.22,0.24,0.49,0.25,0.79,0.18c0.87,0.05,1.19,0.65,1.13,1.38
		c-0.07,0.83-0.83,0.57-1.32,0.61c-1.82,0.13-3.64,0.21-5.47,0.3c-0.41,0.02-0.94,0.25-0.87-0.53c-0.69-0.28-1.17,0.18-1.69,0.49
		c-2.18,0.4-4.33-0.41-6.52-0.17c-0.7,0.08-0.52-0.68-0.61-1.09c-0.1-0.45-0.03-0.94-0.03-1.41c0.07-0.14,0.16-0.15,0.27-0.03
		c0.91,0.19,1.63-0.83,2.58-0.41c1.36,0.32,2.72,0.28,4.08,0.05c1.36,0.06,2.72,0.11,4.08,0.17
		C481.83,299.79,482.15,299.87,482.5,299.65z"/>
	<path style="fill-rule:evenodd;clip-rule:evenodd;fill:#E9EAEC;" d="M474.75,262.66c-1.67-0.47-3.39-0.89-4.75-2.15
		c-0.11-0.1-0.19-0.23-0.32-0.3c-0.5-0.28-1.78,0.17-1.33-1.01c0.64-1.7,2.17-2.63,3.07-1.99c0.93,0.66,1.93-0.26,2.87,0.44
		c0.34,0.25,0.81,0.4,1.13,0.81c0.81,1.06,1.94,1.48,3.23,1.53c0.18,0.01,0.43-0.1,0.5,0.17c0.02,0.08-0.06,0.23-0.14,0.28
		C477.66,261.24,476.45,262.34,474.75,262.66z"/>
	<path style="fill-rule:evenodd;clip-rule:evenodd;fill:#FDDEA0;" d="M475.52,264.48c-0.22-0.05-0.55-0.03-0.63-0.16
		c-0.16-0.3,0.18-0.38,0.37-0.48c2.97-1.59,5.8-3.46,9.01-4.58c1.08-0.38,2.14-0.62,3.15,0.23c0.62,0.53,0.74,1.07,0.05,1.55
		c-2.11,1.49-4.21,3.06-6.94,3.16c-1.67,0.06-3.34,0.01-5.01,0.01C475.52,264.31,475.52,264.39,475.52,264.48z"/>
	<path style="fill-rule:evenodd;clip-rule:evenodd;fill:#DCDCDA;" d="M474.45,291.86c-0.43,0.08-0.81,0.05-0.98-0.43
		c-0.17-0.47-0.24-0.93,0.17-1.33c2.23-2.18,4.51-4.31,7.21-5.92c0.67-0.4,1.55-0.29,2.22-0.06c1.06,0.37,1.1,1.39,0.18,2.05
		c-2.07,1.49-4.21,2.88-5.87,4.89C476.65,291.94,475.45,291.69,474.45,291.86z"/>
	<path style="fill-rule:evenodd;clip-rule:evenodd;fill:#FCFCFC;" d="M485.58,269.52c-3.16,0.59-6.29,0.79-9.53,0.47
		c-1.57-0.16-3.28,0.69-4.99,0.52c-0.39-0.04-1.04,0.29-1.03-0.4c0.01-0.59,0.64-0.2,0.98-0.29c0.65-0.17,1.34-0.25,1.97-0.47
		c0.7-0.24,1.55-0.47,1.6-1.41c0.05-1-0.77-1.39-1.51-1.82c-0.3-0.18-0.96-0.08-0.88-0.41c0.11-0.44,0.67-0.13,1.03-0.14
		c2.28-0.06,4.55-0.08,6.83-0.12c0.29-0.05,0.65-0.33,0.74,0.23c-0.54,0.33-1.11,0.64-1.61,1.02c-0.41,0.3-1.08,0.75-1.04,1.05
		c0.08,0.6,0.84,0.76,1.39,0.95c1.72,0.6,3.52,0.59,5.31,0.58C485.12,269.26,485.49,268.96,485.58,269.52z"/>
	<path style="fill-rule:evenodd;clip-rule:evenodd;fill:#C34B29;" d="M469.29,298.63c0.07,1.47,0.12,2.94,0.21,4.4
		c0.05,0.79-0.24,1-0.99,0.75c-0.52-0.17-1.09-0.39-1.61-0.34c-1.13,0.1-1.35-0.39-1.24-1.38c0.26-2.28,0.46-4.56,0.69-6.84
		c0.4-0.75,0.07-1.55,0.18-2.32c0.04-0.3-0.14-0.7,0.24-0.85c0.4-0.16,0.7,0.13,0.88,0.44
		C468.76,294.39,469.91,296.28,469.29,298.63z"/>
	<path style="fill-rule:evenodd;clip-rule:evenodd;fill:#C15429;" d="M469.29,298.63c0.46-2.37-1.08-4.1-1.95-6.04
		c-0.07-0.15-0.3-0.35-0.43-0.34c-0.31,0.03-0.23,0.35-0.27,0.57c-0.13,0.8,0.31,1.67-0.29,2.4c0.1-2.88,0.2-5.76,0.3-8.63
		c0.38,0.14,0.75,0.49,1.07-0.16c0.4-0.82,1.24-1.31,1.69-2.11c0.06-0.33,0.05-0.69,0.39-0.91c0.58,2.2,0.28,4.43,0.16,6.65
		C469.8,292.93,469.52,295.78,469.29,298.63z"/>
	<path style="fill-rule:evenodd;clip-rule:evenodd;fill:#FDDEA0;" d="M486.53,273.74c0.38,0.27,1.27,0.68,1.81,1.36
		c0.42,0.53-0.25,1.18-0.61,1.67c-1.18,1.65-1.83,1.72-3.58,0.86c-1.35-0.66-2.8-1.11-4.2-1.67c-0.2-0.08-0.52-0.21-0.54-0.36
		c-0.04-0.32,0.32-0.26,0.52-0.35C481.89,274.35,483.88,273.54,486.53,273.74z"/>
	<path style="fill-rule:evenodd;clip-rule:evenodd;fill:#A53123;" d="M478.16,250.36c0.16,0,0.32,0,0.48,0
		c0.45,0.28,0.97,0.2,1.46,0.29c0.12,0.03,0.23,0.07,0.34,0.12c1.86,0.62,3.43,1.69,4.73,3.14c1.2,1.34,2.71,2.35,3.89,3.71
		c2.16,2.48,2.88,5.54,3.59,8.62c0.66,2.85,0.74,5.75,0.97,8.64c0.14,1.72,0.67,3.35,1.26,4.96c0.02,0.2-0.01,0.38-0.16,0.53
		c0.16,0.64,0.32,1.28,0.48,1.92c-0.74,0.07-0.79-0.58-0.99-1c-1.25-2.63-1.79-5.44-2.01-8.33c-0.18-2.42-0.56-4.81-0.82-7.22
		c-0.41-1.53-0.65-3.16-2.16-4.11c-0.19-0.12-0.29-0.34-0.16-0.51c0.98-1.24-0.06-1.75-0.82-2.38c-0.08-0.07-0.16-0.14-0.25-0.2
		v0.01c-2.17-2.38-4.11-5.01-7.12-6.48c-0.98-0.48-2.04-0.69-3.07-1c-0.4-0.12-1.01-0.02-1.08-0.7
		C477.2,250.36,477.68,250.36,478.16,250.36z"/>
	<path style="fill-rule:evenodd;clip-rule:evenodd;fill:#FDDEA0;" d="M475.76,282.32c-0.75,0.09-1.03-0.17-1.26-0.53
		c-0.28-0.44,0.05-0.68,0.32-0.89c1.57-1.22,3.14-2.46,4.75-3.61c0.63-0.45,3.48,0.61,3.92,1.32c0.28,0.44-0.09,0.58-0.31,0.75
		C480.93,281.18,478.21,281.79,475.76,282.32z"/>
	<path style="fill-rule:evenodd;clip-rule:evenodd;fill:#CB522C;" d="M465.41,285.89c0.46,2.99,0.27,5.97-0.02,8.95
		c-0.15,1.55-0.35,3.09-0.48,4.64c-0.11,1.33-0.7,1.5-1.79,0.91c-0.61-0.33-1.13-0.73-1.56-1.26c0.36-0.5,0.55-1.1,0.94-1.59
		c1.36-1.89,1.43-4.1,1.62-6.28c0.11-1.23-0.13-2.47,0.14-3.69C464.96,287.23,464.66,286.19,465.41,285.89z"/>
	<path style="fill-rule:evenodd;clip-rule:evenodd;fill:#FAFAEB;" d="M475.98,272.64c-0.52-1.33,0.08-1.54,1.19-1.17
		c1.23,0.42,2.35-0.51,3.56-0.26c0.58-0.19,1.19-0.09,1.78-0.08c1.05,0.01,1.3,0.37,1.16,1.52l-0.06,0.07l-0.09-0.01
		c-0.14,0.01-0.23,0.1-0.33,0.18c-1.74,1.02-3.66,1.52-5.6,1.96c-0.51,0.12-0.94-0.03-1.36-0.28c-0.2-0.19-0.52-0.01-0.71-0.22h0
		c-0.31-0.4-0.39-0.81-0.02-1.22l-0.01,0C475.74,273.05,475.89,272.88,475.98,272.64z"/>
	<path style="fill-rule:evenodd;clip-rule:evenodd;fill:#85221A;" d="M486.31,257.81c-1.04-0.65-2.08-1.29-3.12-1.94
		c-0.48-0.31-0.78-0.79-1.19-1.17c-2.3-2.16-5.11-2.87-8.17-2.7c-1.35,0.08-2.68,0.32-3.85,1.14c-1.48,1.04-2.4,2.42-2.85,4.15
		c-0.09,0.33,0.02,0.99-0.72,0.74l-0.02-0.01c-0.08-0.07-0.15-0.14-0.22-0.22c-0.15-0.17-0.3-0.34-0.45-0.51
		c0.04-2.4,2.06-5.09,4.52-5.92c5.13-1.75,11.53-0.38,15.32,4.54C485.99,256.46,486.56,256.99,486.31,257.81z"/>
	<path style="fill-rule:evenodd;clip-rule:evenodd;fill:#9A2C20;" d="M486.31,257.81c-2.22-4.05-5.55-6.37-10.22-6.75
		c-3.14-0.25-6.07,0.02-8.41,2.44c-1.03,1.07-1.34,2.5-1.96,3.78c-0.04-0.06-0.06-0.12-0.06-0.2c-0.07-0.09-0.14-0.17-0.21-0.25
		c-0.09-0.23-0.18-0.46-0.27-0.7c0.98-4.17,5.12-5.85,8.67-5.79c0.95,0.01,1.91,0,2.86,0c0.83,0.24,1.65,0.5,2.48,0.72
		c2.63,0.72,4.61,2.37,6.41,4.32c0.59,0.64,1.18,1.28,1.79,1.91c0.34,0.35,0.69,0.67,0.58,1.23
		C487.39,258.38,486.79,258.23,486.31,257.81z"/>
	<path style="fill-rule:evenodd;clip-rule:evenodd;fill:#6F1812;" d="M466.42,258.03c0.17-0.01,0.28-0.07,0.32-0.27
		c0.82-4.68,4.32-6.33,8.41-6.16c2.43,0.1,4.78,0.77,6.71,2.47c0.6,0.52,0.97,1.14,1.34,1.79c-0.88-0.23-1.76-0.47-2.65-0.7
		c-2.21-2.43-5.1-2.61-8.03-2.19c-2.65,0.38-3.96,2.29-4.43,4.82C467.6,258.39,467.16,259.35,466.42,258.03z"/>
	<path style="fill-rule:evenodd;clip-rule:evenodd;fill:#440501;" d="M490.41,285.62c-1.35-0.59-2.72-1.14-4.05-1.77
		c-1.45-0.68-1.55-1.14-0.64-2.46c0.31-0.45,0.71-0.85,1.06-1.27c0.38-0.31,0.77-0.2,1.08,0.08c1.41,1.27,2.84,2.54,3.72,4.26
		c0.23,0.46,0.67,1.08-0.22,1.42l0,0c-0.13-0.15-0.35-0.1-0.48-0.24l0,0C490.73,285.5,490.58,285.48,490.41,285.62z"/>
	<path style="fill-rule:evenodd;clip-rule:evenodd;fill:#FAFAEB;" d="M488.72,292.37c-1.81,0.49-3.06,1.98-4.77,2.65
		c-0.7,0.02-1.52,0.48-1.96-0.51l0,0c0.08-0.07,0.16-0.13,0.25-0.18c0.03-0.07,0.08-0.1,0.16-0.08c0.15-0.03,0.25-0.12,0.31-0.26
		c0.75-1.87,2.46-2.8,3.88-4.02c0.09-0.16,0.38-0.08,0.4-0.33l-0.02,0.01c0.17,0,0.25-0.08,0.25-0.25c1.45,0.35,2.13,1.41,1.77,2.75
		l0.01-0.01C488.88,292.18,488.8,292.28,488.72,292.37z"/>
	<path style="fill-rule:evenodd;clip-rule:evenodd;fill:#530904;" d="M491.36,285.88c0.54-0.56,0.09-1.05-0.17-1.5
		c-0.92-1.61-2.32-2.79-3.64-4.05c-0.17-0.16-0.51-0.15-0.78-0.21c0.21-0.76,0.6-1.41,1.22-1.91c0.51-0.21,0.86,0.06,1.12,0.44
		c1.27,1.79,2.67,3.48,3.8,5.37c0.47,0.79,0.86,1.64,0.92,2.57c0.04,0.52,0.12,1.2-0.81,0.99l0,0c-0.17-0.24-0.29-0.51-0.5-0.72
		C492.14,286.52,491.75,286.2,491.36,285.88z"/>
	<path style="fill-rule:evenodd;clip-rule:evenodd;fill:#CACBCC;" d="M479.17,259.08c-0.54-0.12-1.09-0.19-1.61-0.38
		c-0.61-0.23-1.18-0.6-1.07-1.38c0.13-0.86,0.82-1.47,1.54-1.4c1.96,0.2,3.92,0.5,5.74,1.36c0.23,0.11,0.59,0.35,0.11,0.48
		C482.32,258.2,480.87,259.06,479.17,259.08z"/>
	<path style="fill-rule:evenodd;clip-rule:evenodd;fill:#E8E9EA;" d="M476.24,306.5c-1.07-0.03-2.15-0.06-3.22-0.07
		c-0.87-0.01-1.44-0.43-1.34-1.29c0.09-0.84,0.22-1.84,1.47-1.79c1.67,0.08,3.34,0.19,5.01,0.29c0.15,0.17,0.21,0.41,0.06,0.54
		C477.45,304.87,477.05,305.86,476.24,306.5z"/>
	<path style="fill-rule:evenodd;clip-rule:evenodd;fill:#FCDEA0;" d="M490.77,301.66c1.38,0.24,2.46,0.82,3.53,1.44
		c0.36,0.21,0.3,0.45,0.19,0.8c-0.98,3.04-1.45,3.17-3.72,0.98c-0.29-0.28-0.61-0.51-0.88-0.8c-0.29-0.31-1.06-0.43-0.75-1
		C489.51,302.4,490.01,301.74,490.77,301.66z"/>
	<path style="fill-rule:evenodd;clip-rule:evenodd;fill:#E46826;" d="M462.08,274.88c0.11,0.52-0.29,1.21,0.29,1.55
		c0.43,0.25,1.02,0.23,1.37-0.33c0.94,0.69,2.1,0.65,3.16,0.94c0.72,0.19,1.69,0.39,1.49,1.33c-0.19,0.88-1.1,1.02-1.96,0.85
		c-1.28-0.25-2.51-0.79-3.85-0.73c-0.26,0.15-0.86,0.04-0.49,0.66l0.02,0.02c0.21,0.45-0.06,0.68-0.42,0.8
		c-0.26,0.09-0.57,0.12-0.58-0.32c0.03-0.09,0.05-0.17,0.08-0.26c0.06-0.08,0.11-0.17,0.15-0.26
		C461.57,277.71,461.83,276.29,462.08,274.88z"/>
	<path style="fill-rule:evenodd;clip-rule:evenodd;fill:#5B0D08;" d="M468.09,257.81c-0.47-1.37,0.37-2.38,1.07-3.33
		c2.25-3.02,8.98-2.29,11.02-0.16c0.2,0.21,0.25,0.56,0.37,0.85c-0.64-0.05-1.31,0.1-1.91-0.24c-1.92-1.1-3.94-1.75-6.15-1.03
		c-1,0.33-2.08,0.66-2.26,1.97C469.52,256.51,468.8,257.16,468.09,257.81z"/>
	<path style="fill-rule:evenodd;clip-rule:evenodd;fill:#FCFCFC;" d="M487.06,304.9c0.33-0.53,0.72-0.62,1.29-0.28
		c1.33,0.79,2.27,2,3.38,3.02c0.08,0.08,0.21,0.24,0.19,0.27c-0.69,0.89-1.76,1.15-2.7,1.63c-0.59,0.31-0.75-0.15-0.97-0.53
		c-0.48-0.83-0.98-1.64-1.47-2.46C486.38,305.92,486.55,305.38,487.06,304.9z"/>
	<path style="fill-rule:evenodd;clip-rule:evenodd;fill:#64120D;" d="M493.03,287.56c1.03-0.28,0.54-1.04,0.39-1.54
		c-0.64-2.31-2.28-4.03-3.66-5.9c-0.51-0.69-0.73-1.69-1.77-1.92c0.22-0.48,0.44-0.95,0.93-1.21c0.49-0.35,0.89-0.12,1.09,0.31
		c1.47,3.09,3.62,5.82,4.77,9.07c0.16,0.45,0.34,0.91,0.38,1.38c0.05,0.66-0.13,1.15-0.96,0.78
		C493.64,288.43,493.33,288,493.03,287.56z"/>
	<path style="fill-rule:evenodd;clip-rule:evenodd;fill:#4B0601;" d="M470.23,255.87c-0.3-0.28-0.52-0.49-0.13-0.95
		c1.89-2.26,7.14-2.07,8.54,0.01c-1,0.52-1.91,0.73-3.12,0.3c-1.4-0.5-2.84,0.63-4.33,0.4c-0.16-0.1-0.32-0.18-0.47,0.02
		C470.56,255.72,470.39,255.79,470.23,255.87z"/>
	<path style="fill-rule:evenodd;clip-rule:evenodd;fill:#962B20;" d="M491.37,265.73c0.4,2.32,0.95,4.63,1.15,6.98
		c0.28,3.24,0.96,6.33,2.32,9.27c0.06,0.13,0.23,0.2,0.36,0.3c0.64,1.44,1.28,2.88,1.92,4.32c0.08,0.32,0.16,0.64,0.24,0.96
		c-0.99-0.96-1.28-2.33-1.97-3.46c-0.22-0.37-0.45-0.73-0.67-1.1c-0.43-0.11-0.62-0.48-0.79-0.83c-1.01-2.11-1.93-4.26-2.2-6.61
		c-0.13-1.13-0.67-2.21-0.38-3.38C491.94,270.03,491.37,267.88,491.37,265.73z"/>
	<path style="fill-rule:evenodd;clip-rule:evenodd;fill:#84221A;" d="M491.34,272.17c0.81,3.71,1.39,7.48,3.38,10.82
		c0.36,1.85,1.65,3.31,2.18,5.09c0.07,0.23,0.14,0.45,0.22,0.67c-1.02-0.69-0.83-2.09-1.68-2.88c-1.64-3.1-3.54-6.07-4.42-9.53
		c-0.16-0.61-0.42-1.19-0.64-1.78C490.7,273.77,491.02,272.97,491.34,272.17z"/>
	<path style="fill-rule:evenodd;clip-rule:evenodd;fill:#FAC30E;" d="M459.81,253.42c0.49-0.03,1-0.08,1.52-0.1
		c0.59-0.02,1.17,0.16,1.38,0.73c0.22,0.59-0.16,1.11-0.62,1.44c-1.15,0.83-2.49,1.13-3.84,0.76c-1.3-0.36-0.77-1.68-0.88-2.54
		c-0.1-0.72,0.79-0.29,1.24-0.35C458.98,253.31,459.39,253.39,459.81,253.42z"/>
	<path style="fill-rule:evenodd;clip-rule:evenodd;fill:#C54028;" d="M465.41,285.89c-0.32,0.32-0.19,0.74-0.21,1.11
		c-0.03,0.59-0.33,0.52-0.7,0.31c-0.73-1.26-1.94-1.6-3.28-1.72c-0.67-0.39-0.77-0.98-0.61-1.67c0.05-0.06,0.09-0.13,0.15-0.18
		c1.1-0.95,2.49-1.77,3.79-1.11C465.6,283.16,465.24,284.75,465.41,285.89z"/>
	<path style="fill-rule:evenodd;clip-rule:evenodd;fill:#E7E9EA;" d="M494.53,297.88c0.58-0.01,1.24-0.04,1.08,0.82
		c-0.2,1.08-0.15,2.39-1.24,3c-0.57,0.32-3.18-1.11-3.18-1.49C491.23,298.31,491.75,297.94,494.53,297.88z"/>
	<path style="fill-rule:evenodd;clip-rule:evenodd;fill:#C74928;" d="M469.76,284.68c-0.79,0.55-1.34,1.32-1.93,2.06
		c-0.24,0.3-0.32,0.85-0.75,0.81c-0.17-0.01-0.28-0.62-0.42-0.95c-0.14-0.97-0.26-1.94-0.42-2.91c-0.13-0.8-0.07-1.48,0.86-1.79
		c0.38-0.12,0.71-0.35,0.78-0.81c0.94,0.6,1.08,1.68,1.52,2.58C469.54,283.99,469.51,284.39,469.76,284.68z"/>
	<path style="fill-rule:evenodd;clip-rule:evenodd;fill:#FCFCFC;" d="M491.84,297.07c-0.61,0.06-0.75-0.25-0.75-0.8
		c0-0.96,1.29-1.41,0.94-2.48c0.23-0.01,0.48-0.07,0.7-0.02c0.63,0.12,1.24,0.29,1.86,0.44c0.5,0.12,1.34-0.25,1.17,0.83
		c-0.13,0.82-0.03,1.73-1.3,1.74C493.58,296.79,492.71,296.97,491.84,297.07z"/>
	<path style="fill-rule:evenodd;clip-rule:evenodd;fill:#EAEBEA;" d="M485.14,295.97c0.99-0.88,2.12-1.56,3.27-2.19
		c0.86-0.47,1.31-0.17,1.21,0.82c-0.16,1.58-0.95,2.76-2.34,3.53C486.4,297.58,485.82,296.73,485.14,295.97z"/>
	<path style="fill-rule:evenodd;clip-rule:evenodd;fill:#F7F7E8;" d="M485.14,295.97c1.04,0.4,1.59,1.29,2.15,2.16l0.01,0
		c-0.1,0.06-0.17,0.15-0.26,0.21l-0.01,0.01c-0.11,0.16-0.36,0.1-0.44,0.29l0.02-0.01c-0.27,0.12-0.53,0.27-0.75,0.48
		c-1.29-0.11-2.59-0.16-3.87-0.37c-0.63-0.1-0.43-0.59-0.05-0.84c0.8-0.52,1.64-0.97,2.46-1.46c0.13-0.14,0.39-0.07,0.46-0.29
		l-0.03,0.02c0.13-0.01,0.21-0.11,0.3-0.18L485.14,295.97z"/>
	<path style="fill-rule:evenodd;clip-rule:evenodd;fill:#FAFAFA;" d="M475.24,278.03c-1.26-0.13-2.64-0.66-3.52-2.07
		c-0.18-0.29-0.7-0.8,0.06-1.03c0.55-0.16,1.62-0.23,1.58,0.26c-0.08,1.02,0.61,0.82,1.02,0.9c1.01,0.2,2.05,0.26,3.08,0.4
		c0.22,0.03,0.55,0.09,0.62,0.23c0.15,0.32-0.21,0.47-0.41,0.64C477.07,277.86,476.35,278.06,475.24,278.03z"/>
	<path style="fill-rule:evenodd;clip-rule:evenodd;fill:#731913;" d="M494.21,288.53c0.79,0.02,0.74-0.39,0.63-1.01
		c-0.47-2.85-2.31-5-3.64-7.42c-0.44-0.8-0.88-1.6-1.29-2.42c-0.21-0.42-0.44-0.76-0.98-0.69c0.01-0.08,0.02-0.16,0.03-0.24
		c0.08-0.08,0.15-0.16,0.23-0.24l0,0c0.16-0.12,0.1-0.35,0.25-0.46c0.08-0.09,0.15-0.18,0.23-0.27c1.12,1.46,1.54,3.27,2.49,4.82
		c1.28,2.1,2.41,4.3,3.22,6.64c0.28,0.81,0.68,1.65,0.05,2.49c-0.16-0.16-0.32-0.32-0.48-0.49c-0.07-0.09-0.15-0.17-0.25-0.24
		C494.54,288.85,494.38,288.69,494.21,288.53z"/>
	<path style="fill-rule:evenodd;clip-rule:evenodd;fill:#C7C9CA;" d="M476.22,283.39c0.42-0.01,0.81,0.11,0.99,0.52
		c0.19,0.42-0.01,0.79-0.34,1.05c-1.02,0.8-2.28,1.26-3.21,2.22c-0.31,0.32-0.84,0.05-1.24-0.11c-0.16-0.07-0.26-0.26-0.39-0.4
		c0.16-0.1,0.31-0.25,0.48-0.28c0.54-0.08,1.41,0.25,0.78-0.93C473.11,285.13,475.62,283.4,476.22,283.39z"/>
	<path style="fill-rule:evenodd;clip-rule:evenodd;fill:#CB4A29;" d="M461.1,279.64c0.59,0.38,0.83,0.01,1-0.48
		c0.96,0.73,2.14,0.77,3.24,1.09c0.43,0.13,1.06,0.22,1.02,0.82c-0.04,0.58-0.67,0.63-1.12,0.68c-1.43,0.17-2.75-0.25-3.99-0.94
		C460.7,280.5,460.7,280.09,461.1,279.64z"/>
	<path style="fill-rule:evenodd;clip-rule:evenodd;fill:#F0F0E4;" d="M481.99,294.51c0.56,0.52,1.39,0.02,1.96,0.51
		c-1.29,1.06-2.58,2.11-3.85,3.2c-0.47,0.4-0.98,0.5-1.42,0.16c-0.64-0.49,0.08-0.87,0.31-1.16
		C479.83,296.15,480.83,295.23,481.99,294.51z"/>
	<path style="fill-rule:evenodd;clip-rule:evenodd;fill:#C6DE9D;" d="M460.89,305.03c-0.33,0.09-0.67,0.18-1,0.28
		c-0.94-0.03-1.47-0.59-1.46-1.53c0.02-0.98,1.01-1.93,1.97-1.85c0.95,0.08,1.65,0.62,2.04,1.47
		C462.89,304.35,462.36,304.87,460.89,305.03z"/>
	<path style="fill-rule:evenodd;clip-rule:evenodd;fill:#F7F7F7;" d="M478.69,283.53c-0.18-0.77,0.17-0.83,0.47-0.94
		c1.83-0.67,3.69-1.3,5.25-2.54c0.19-0.15,0.46-0.28,0.65-0.07c0.23,0.25-0.09,0.41-0.21,0.58c-0.21,0.29-0.51,0.54-0.63,0.87
		c-0.41,1.03-0.75,1.77-2.2,1.2c-0.77-0.3-1.6,0.71-2.41,1.14c-0.26,0.14-0.47,0.61-0.78,0.34
		C478.63,283.95,478.69,283.52,478.69,283.53z"/>
	<path style="fill-rule:evenodd;clip-rule:evenodd;fill:#F8F8F8;" d="M469.95,264.62c-0.38,0.08-0.65,0.01-0.72-0.32
		c-0.18-0.85-0.79-1.61-0.66-2.5c0.05-0.34,0.47-0.11,0.7,0.01c1.26,0.61,2.52,1.2,3.88,1.56c0.17,0.04,0.32,0.2,0.48,0.3
		c-0.15,0.12-0.29,0.27-0.46,0.35C472.12,264.52,470.98,264.5,469.95,264.62z"/>
	<path style="fill-rule:evenodd;clip-rule:evenodd;fill:#3B8946;" d="M459.45,307.23c-1.61,0.16-3.06-2.15-3.13-3.48
		c-0.07-1.53,1.27-3.17,2.89-3.46c0.51-0.09,1.06-0.07,1.19-0.74c0.48,0.4,0.95,0.8,1.43,1.2c-0.21,0.51-0.65,0.34-1.03,0.34
		c-1.49,0.01-2.87,0.69-3.12,1.71c-0.31,1.31-0.1,2.53,1.1,3.39c0.08,0.07,0.16,0.15,0.23,0.24
		C459.12,306.72,459.6,306.81,459.45,307.23z"/>
	<path style="fill-rule:evenodd;clip-rule:evenodd;fill:#F7F7F7;" d="M472.56,280.56c-1.13-0.21-1.86-0.8-1.8-2.13
		c0.02-0.5-0.08-1-0.12-1.5c0.6,0.03,0.81,0.59,1.19,0.9c0.75,0.62,1.56,1.09,2.52,1.27c0.17,0.03,0.33,0.12,0.5,0.18
		c-0.1,0.11-0.18,0.25-0.3,0.34C473.96,280.05,473.35,280.42,472.56,280.56z"/>
	<path style="fill-rule:evenodd;clip-rule:evenodd;fill:#F8F8F9;" d="M484.95,267.95c-0.38,0-0.53,0.01-0.53,0
		c-0.19-1-0.7-1.64-1.8-1.64c0.11-0.1,0.2-0.27,0.33-0.29c1.33-0.27,2.67-0.5,4.01-0.09c0.4,0.12,0.78,0.34,0.8,0.78
		c0.02,0.46-0.38,0.68-0.77,0.79C486.22,267.68,485.44,267.84,484.95,267.95z"/>
	<path style="fill-rule:evenodd;clip-rule:evenodd;fill:#E6E8E8;" d="M475.51,273.14c0,0.41,0.01,0.81,0.02,1.22
		c-1.26-0.24-2.48-0.57-3.44-1.5c-0.25-0.25-0.51-0.56-0.39-0.95c0.13-0.4,0.56-0.16,0.83-0.28
		C474.15,270.89,474.78,272.11,475.51,273.14z"/>
	<path style="fill-rule:evenodd;clip-rule:evenodd;fill:#C7C9CA;" d="M472.72,281.66c0.62,0.07,0.65,0.78,1.01,1.16
		c0.31,0.32,0.05,0.58-0.2,0.8c-0.27,0.24-0.53,0.5-0.83,0.69c-0.52,0.32-1.03,1.28-1.47,0.92c-0.58-0.48-0.35-1.49-0.16-2.26
		C471.26,282.19,471.9,281.85,472.72,281.66z"/>
	<path style="fill-rule:evenodd;clip-rule:evenodd;fill:#09B0CF;" d="M461.86,256.78c0.68-0.07,1.28-1.1,2.05-0.07
		c1.39,1.84,1.15,2.26-1.57,2.67c-0.12-0.01-0.27,0.02-0.34-0.04C461.63,258.96,461.55,257.34,461.86,256.78z"/>
	<path style="fill-rule:evenodd;clip-rule:evenodd;fill:#91D3EA;" d="M461.86,256.78c0.18,0.86,0.02,1.79,0.48,2.6
		c-0.24,0.03-0.48,0.12-0.71,0.08c-0.85-0.12-2.57,1.18-2.07-1.23c0.03-0.12-0.23-0.31-0.35-0.46c-0.14-0.45,0.37-0.23,0.46-0.44
		C460.4,257.14,461.13,256.96,461.86,256.78z"/>
	<path style="fill-rule:evenodd;clip-rule:evenodd;fill:#F7F8F8;" d="M474.38,307.8c0.88-0.07,0.93,0.63,0.86,1.05
		c-0.15,0.99-0.97,1.74-1.77,1.96c-0.59,0.17-1.35-0.92-1.23-1.48C472.44,308.33,473.48,307.99,474.38,307.8z"/>
	<path style="fill-rule:evenodd;clip-rule:evenodd;fill:#E4E6E7;" d="M490.51,289.36c0.07-0.72,0.18-1.52,0.96-1.47
		c0.8,0.06,1.64,0.89,1.56,1.52c-0.1,0.81-0.86,1.91-1.73,1.87C490.44,291.24,490.76,290,490.51,289.36z"/>
	<path style="fill-rule:evenodd;clip-rule:evenodd;fill:#F3F3F4;" d="M487.05,268.86c0.15-0.05,0.3-0.09,0.45-0.15
		c0.88-0.38,1.91-0.69,1.91-1.86c0-1.13-1.02-1.5-1.84-1.98c-0.21-0.12-0.6,0.05-0.6-0.35c0-0.03,0.42-0.08,0.64-0.08
		c2.04,0.02,3.39,2.07,2.44,3.89c-0.46,0.88-1.64,0.54-2.48,0.79C487.32,269.18,487.04,269.32,487.05,268.86z"/>
	<path style="fill-rule:evenodd;clip-rule:evenodd;fill:#D45C28;" d="M469.76,284.68c-0.92-1.04-1.23-2.4-1.88-3.58
		c-0.14-0.26-0.66-0.54-0.4-0.76c0.47-0.38,1.09-0.64,1.68-0.78c0.36-0.09,0.45,0.39,0.5,0.69c0.12,0.7,0.32,1.41-0.19,2.06
		c-0.07,0.15-0.08,0.3,0.02,0.45l0.04,0.04c0.13,0.12,0.11,0.31,0.23,0.43c0.04,0.06,0.06,0.13,0.05,0.2
		C469.78,283.84,469.77,284.26,469.76,284.68z"/>
	<path style="fill-rule:evenodd;clip-rule:evenodd;fill:#ACCB83;" d="M460.89,305.03c0.55-0.31,1.61-0.17,1.39-1.22
		c-0.2-0.92-0.94-1.48-1.87-1.58c-0.89-0.1-1.45,0.54-1.62,1.28c-0.19,0.83,0.16,1.56,1.11,1.81c-0.22,0.18-0.44,0.35-0.66,0.53
		c-1.42-0.62-1.85-2.5-0.83-3.64c0.82-0.92,2.43-1.11,3.51-0.41c1.2,0.77,1.46,1.68,0.9,3.07
		C462.18,304.92,461.53,304.98,460.89,305.03z"/>
	<path style="fill-rule:evenodd;clip-rule:evenodd;fill:#F6F6F6;" d="M490.3,270.96c-0.75,0.98-0.46,2.33-1.5,2.75
		c-0.32,0.13-1.59-0.64-1.45-1.07c0.26-0.77,0.27-2.06,1.6-2.05C489.37,270.59,489.79,270.81,490.3,270.96z"/>
	<path style="fill-rule:evenodd;clip-rule:evenodd;fill:#669D54;" d="M458.96,306.51c-1.41-0.64-2.13-1.99-1.63-3.63
		c0.37-1.24,1.39-2,2.75-2.11c0.58-0.05,1.17-0.02,1.75-0.03c0.46,0.34,0.93,0.67,1.16,1.23c-0.03,0.1,0.01,0.17,0.11,0.21
		c0.05,0.08,0.1,0.17,0.15,0.26c-0.59,0.73-0.81-0.09-1.08-0.31c-1.07-0.87-2.5-0.91-3.48-0.02c-0.79,0.72-0.96,2.01-0.38,2.92
		C458.59,305.5,459.07,305.87,458.96,306.51z"/>
	<path style="fill-rule:evenodd;clip-rule:evenodd;fill:#F3F3F4;" d="M470.77,294.85c-0.28-1.25,0.08-1.72,1.35-1.29
		c0.35,0.12,0.78,0,1.18,0c0.14,0,0.28,0.05,0.42,0.08c-0.08,0.12-0.15,0.25-0.23,0.36c-0.36,0.47-0.71,0.95-1.08,1.41
		c-0.38,0.46-0.85,1.1-1.41,0.9C470.42,296.11,470.83,295.33,470.77,294.85z"/>
	<path style="fill-rule:evenodd;clip-rule:evenodd;fill:#7AA25F;" d="M458.96,306.51c-0.25-0.41-0.49-0.82-0.74-1.22
		c-0.82-1.29-0.65-2.5,0.51-3.46c1-0.84,2.46-0.78,3.47,0.11c0.29,0.26,0.47,0.82,1.05,0.5c0.29,0.88,0.69,1.79-0.43,2.42
		c-0.04-2.14-0.69-3.05-2.19-3.15c-0.96-0.07-1.84,0.17-2.22,1.05c-0.36,0.83-0.41,1.79,0.38,2.53c0.17,0.16,0.3,0.36,0.45,0.55
		c0.01,0.22,0.02,0.45,0.03,0.67C459.16,306.62,459.07,306.63,458.96,306.51L458.96,306.51z"/>
	<path style="fill-rule:evenodd;clip-rule:evenodd;fill:#2F7843;" d="M460.64,282.39c-0.65,0.51-1.31,1.01-1.95,1.54
		c-0.29,0.24-0.54,0.27-0.85,0.03c-0.56-0.43-1.49-0.81-1.31-1.53c0.23-0.92,1.05-0.1,1.61-0.12c0.75-0.03,1.5,0.03,2.22-0.26
		C460.55,282.07,460.66,282.18,460.64,282.39z"/>
	<path style="fill-rule:evenodd;clip-rule:evenodd;fill:#89CCE2;" d="M459.68,257.32c-0.15,0.15-0.31,0.29-0.46,0.44
		c-0.11-0.04-0.3-0.14-0.32-0.11c-0.56,0.79-1,1.46-1.88,0.17c-0.24-0.35-0.38,0.36-0.34,0.75c0.03,0.39,0.65,1.08-0.42,1.06
		c-1.52-1.09-0.26-1.88,0.29-2.75C457.61,256.86,458.59,257.47,459.68,257.32z"/>
	<path style="fill-rule:evenodd;clip-rule:evenodd;fill:#EFEFEF;" d="M489.9,298.76c-0.09,0.74,0.13,1.55-0.89,1.77
		c-0.38,0.08-0.27,0.41-0.24,0.69c0.01,0.14-0.14,0.42-0.21,0.29c-0.34-0.69-0.92-1.5-0.79-2.13c0.13-0.6,0.96-1.24,1.62-1.48
		C490.17,297.63,489.68,298.51,489.9,298.76z"/>
	<path style="fill-rule:evenodd;clip-rule:evenodd;fill:#D05829;" d="M460.62,283.93c0.17,0.46,0.34,0.91,0.5,1.37
		c-0.2,0.97-0.44,1.9-1.68,2.01c-0.54-0.57-0.28-1.66-1.26-1.94C459,284.88,459.81,284.41,460.62,283.93z"/>
	<path style="fill-rule:evenodd;clip-rule:evenodd;fill:#F1F1F1;" d="M464.62,309.92c-1.13-0.19-2.23-0.37-3.32-0.55
		c-0.24-0.04-0.55-0.07-0.53-0.35c0.01-0.13,0.36-0.28,0.57-0.33c1.28-0.26,2.53,0.03,3.77,0.25c0.42,0.07,0.79,0.53,0.64,0.85
		C465.51,310.33,464.98,309.62,464.62,309.92z"/>
	<path style="fill-rule:evenodd;clip-rule:evenodd;fill:#F2F2F3;" d="M471.76,307.64c-0.15,0.16-0.31,0.34-0.48,0.5
		c-0.22,0.21-0.43,0.12-0.62-0.06c-1.01-0.96-2.17-1.76-2.94-2.94c-0.09-0.14-0.11-0.32-0.16-0.49c0.15,0.02,0.31,0.02,0.43,0.08
		c1.39,0.65,2.17,2.11,3.62,2.69C471.67,307.44,471.7,307.54,471.76,307.64z"/>
	<path style="fill-rule:evenodd;clip-rule:evenodd;fill:#E3E2DB;" d="M488.99,292.16c0.06-1.33-0.88-2.03-1.77-2.75
		c0.28-0.42,0.37-1.18,0.87-1.16c0.63,0.02,0.92,0.76,1.03,1.31C489.29,290.41,490.33,291.37,488.99,292.16z"/>
	<path style="fill-rule:evenodd;clip-rule:evenodd;fill:#757A7B;" d="M485.18,304.63c-0.28,0.36-0.6,0.54-1.03,0.24
		c-1.3-0.13-2.43,0.41-3.56,0.95c-0.42,0.2-0.83,0.45-1.23,0.71c-0.97,0.37-1.94,0.39-2.91,0.05c0.15-0.24,0.38-0.32,0.64-0.36
		c0.25-0.03,0.49-0.04,0.74-0.03c0.18-0.01,0.36-0.04,0.53-0.09c1.35-1.24,2.88-2.09,4.76-2.08
		C483.87,304.01,484.66,303.89,485.18,304.63z"/>
	<path style="fill-rule:evenodd;clip-rule:evenodd;fill:#F5F5F6;" d="M494.29,292.95c-0.57-0.3-1.43-0.06-1.95-0.71
		c-0.09-0.11,1.69-1.67,1.82-1.58c0.73,0.49,0.54,1.36,0.77,2.05C495.09,293.15,494.62,292.98,494.29,292.95z"/>
	<path style="fill-rule:evenodd;clip-rule:evenodd;fill:#616768;" d="M479.36,306.53c1.15-1.45,3.42-2.24,4.79-1.65
		C482.65,305.71,481.02,306.15,479.36,306.53z"/>
	<path style="fill-rule:evenodd;clip-rule:evenodd;fill:#10ADCB;" d="M457.06,269.43c0.4-0.46,0.76-0.98,1.45-1.03
		c0.32,0.2,0.67,0.64,0.44,0.84c-0.62,0.51-0.67,1.73-1.12,1.77C456.94,271.09,456.96,270.15,457.06,269.43z"/>
	<path style="fill-rule:evenodd;clip-rule:evenodd;fill:#D6773F;" d="M462.33,297.9c0.24,0.72-0.13,1.06-0.78,1.22
		c-0.79-0.56-1.28-1.52-2.34-1.72c0.03-0.72,1.11,0.52,0.96-0.52C461.14,296.71,461.82,297.12,462.33,297.9z"/>
	<path style="fill-rule:evenodd;clip-rule:evenodd;fill:#B3B3B4;" d="M480.37,309.61c-0.72-0.18-1.41-0.37-1.96-0.97
		c-0.29-0.31-0.63-0.82-1.18-0.59c-0.53,0.22-0.1,0.8-0.3,1.16c-0.15-0.46-0.54-1.19,0.02-1.33c0.81-0.2,1.82-0.52,2.56,0.22
		C479.91,308.49,480.3,308.98,480.37,309.61z"/>
	<path style="fill-rule:evenodd;clip-rule:evenodd;fill:#EDEEEE;" d="M471.01,289.12c0.32-0.3-0.35-1.15,0.5-1.14
		c0.67,0.01,1.33,0.34,2,0.54c-0.73,0.46-1.42,1.02-2.21,1.33C470.85,290.02,471.08,289.44,471.01,289.12z"/>
	<path style="fill-rule:evenodd;clip-rule:evenodd;fill:#8C8F91;" d="M485.18,304.63c-2.54-1-4.6-0.21-6.36,1.7
		c-0.1,0.1-0.28,0.13-0.42,0.19c-0.17-0.99,0.6-1.4,1.22-1.85c0.68-0.5,1.47-0.79,2.34-0.79c0.11-0.01,0.23-0.02,0.34-0.04
		c0.82,0,1.63-0.01,2.45,0.02C485.28,303.86,485.6,304.06,485.18,304.63z"/>
	<path style="fill-rule:evenodd;clip-rule:evenodd;fill:#E9EAE6;" d="M483.68,272.65c-0.25-1.98-1.81-1.26-2.94-1.44
		c1.17-0.39,2.38-0.13,3.56-0.24c0.27-0.07,0.58-0.21,0.58,0.28C485.07,272.22,484.37,272.44,483.68,272.65z"/>
	<path style="fill-rule:evenodd;clip-rule:evenodd;fill:#ECECED;" d="M490.68,287c-0.18,0.15-0.32,0.28-0.48,0.39
		c-0.3,0.23-0.62,0.39-0.94,0.04c-0.3-0.32-0.63-0.61-0.88-0.97c-0.25-0.35-0.99-0.61-0.71-0.98c0.21-0.28,0.81,0.27,1.22,0.48
		C489.48,286.26,490.05,286.63,490.68,287z"/>
	<path style="fill-rule:evenodd;clip-rule:evenodd;fill:#DDDEDF;" d="M477.19,306.49c-0.25,0.03-0.5,0.05-0.75,0.08
		c-0.08-0.01-0.14-0.03-0.21-0.07c0.18-1.26,1.45-1.79,1.92-2.86c0.16,0,0.32,0.01,0.48,0.01c0.13,0.12,0.3,0.11,0.45,0.15
		c0.08,0.09,0.1,0.19,0.07,0.3C478.43,304.84,477.82,305.67,477.19,306.49z"/>
	<path style="fill-rule:evenodd;clip-rule:evenodd;fill:#F2E9CE;" d="M482.02,293.16c0.06-1.49,1.71-3.19,2.89-2.98
		C483.95,291.17,482.98,292.17,482.02,293.16z"/>
	<path style="fill-rule:evenodd;clip-rule:evenodd;fill:#7ECCE4;" d="M458.25,250.49c0.16,0.71-0.5,1.05-0.71,1.6
		c-0.44-0.05-0.99,0.13-1.04-0.61c-0.04-0.63,0.44-0.64,0.84-0.74C457.65,250.66,457.95,250.57,458.25,250.49z"/>
	<path style="fill-rule:evenodd;clip-rule:evenodd;fill:#D8D9DA;" d="M472.69,267.66c-0.05,0.08-0.14,0.25-0.16,0.24
		c-0.81-0.29-1.63-0.44-2.48-0.2c-0.01-0.1-0.07-0.23-0.03-0.28c0.43-0.52,1.02-0.52,1.62-0.47
		C472.1,266.99,472.45,267.22,472.69,267.66z"/>
	<path style="fill-rule:evenodd;clip-rule:evenodd;fill:#848588;" d="M460.16,273.16c0.38,1.03,0.26,2.11,0.25,3.17
		c0,0.16-0.15,0.47-0.22,0.46c-0.35-0.02-0.25-0.34-0.25-0.54c-0.02-1.03-0.02-2.06-0.02-3.09
		C459.99,273.08,460.07,273.08,460.16,273.16z"/>
	<path style="fill-rule:evenodd;clip-rule:evenodd;fill:#FAEFCF;" d="M477.43,299.42c-1.37,0.64-2.73,0.59-4.08-0.05
		C474.71,299.27,476.08,299.05,477.43,299.42z"/>
	<path style="fill-rule:evenodd;clip-rule:evenodd;fill:#DEDEDF;" d="M465.7,265.26c0.51-0.02,1.03,0.01,1.5-0.27
		c0.21-0.13,0.5-0.22,0.59,0.08c0.09,0.29,0.13,0.65,0.03,0.92c-0.11,0.3-0.4,0.02-0.61-0.01c-0.51-0.08-1.01-0.19-1.51-0.28
		C465.54,265.55,465.54,265.41,465.7,265.26z"/>
	<path style="fill-rule:evenodd;clip-rule:evenodd;fill:#DBDCDD;" d="M488.32,263.29c-0.38-0.2-1.04,0.13-1.2-0.35
		c-0.1-0.3,0.44-0.63,0.87-0.54c0.41,0.08,0.91,0.22,0.94,0.73C488.95,263.45,488.56,263.25,488.32,263.29z"/>
	<path style="fill-rule:evenodd;clip-rule:evenodd;fill:#D4D5D6;" d="M470.77,299.78c-0.09,0.01-0.18,0.02-0.27,0.03
		c-0.11-0.78-0.16-1.73,0.55-2.05c0.56-0.26,0.24,0.44,0.17,0.7c-0.1,0.38-0.31,0.72-0.47,1.09
		C470.73,299.6,470.76,299.7,470.77,299.78z"/>
	<path style="fill-rule:evenodd;clip-rule:evenodd;fill:#C2C3C5;" d="M487.05,268.86c0.17,0.08,0.35,0.17,0.52,0.25
		c-0.64,0.26-1.3,0.4-1.99,0.41c-0.25-0.08-0.5-0.16-0.75-0.24C485.57,269.14,486.31,269,487.05,268.86z"/>
	<path style="fill-rule:evenodd;clip-rule:evenodd;fill:#CECFD0;" d="M470.18,273.25c0.06-0.2-0.05-0.67,0.2-0.53
		c0.33,0.19,0.52,0.66,0.69,1.05c0.1,0.23-0.17,0.34-0.36,0.35C470.07,274.12,470.28,273.59,470.18,273.25z"/>
	<path style="fill-rule:evenodd;clip-rule:evenodd;fill:#505052;" d="M493.75,309.16c-0.03-0.18,0.1-0.45-0.23-0.48
		c0.27-0.49,0.39-1.08,0.89-1.43c0.12,0.66-0.21,1.21-0.48,1.77C493.9,309.07,493.81,309.11,493.75,309.16z"/>
	<path style="fill-rule:evenodd;clip-rule:evenodd;fill:#C2C2C3;" d="M487.06,304.9c-0.09,0.55-0.19,1.1-0.28,1.65
		C485.43,305.75,486.53,305.38,487.06,304.9z"/>
	<path style="fill-rule:evenodd;clip-rule:evenodd;fill:#B6B7B9;" d="M470.99,303.63c-0.3,0.23-0.21,0.86-0.79,0.88
		c-0.08,0-0.26-0.29-0.23-0.32c0.27-0.33,0.54-0.67,0.87-0.93C470.94,303.17,471.04,303.42,470.99,303.63z"/>
	<path style="fill-rule:evenodd;clip-rule:evenodd;fill:#E7DDBF;" d="M477.66,302.48c0.37-0.83,0.94-0.97,1.69-0.49
		C478.75,302.04,478.35,302.74,477.66,302.48z"/>
	<path style="fill-rule:evenodd;clip-rule:evenodd;fill:#C2C0BF;" d="M460.16,273.16c-0.08,0-0.16,0-0.25,0.01l0,0
		c-0.2-0.2-0.01-0.53-0.23-0.73c0-0.4-0.01-0.81-0.01-1.21c0.17,0.01,0.35,0.03,0.52,0.04C460.18,271.9,460.17,272.53,460.16,273.16
		z"/>
	<path style="fill-rule:evenodd;clip-rule:evenodd;fill:#8C8F91;" d="M479.83,303.66c0.82,0.01,1.66-0.11,2.46,0.17
		c-0.04,0.03-0.09,0.07-0.13,0.1c-0.5,0.09-1.01,0.13-1.51,0.2c-0.26,0.04-0.52,0.03-0.75-0.13
		C479.79,303.91,479.77,303.79,479.83,303.66z"/>
	<path style="fill-rule:evenodd;clip-rule:evenodd;fill:#D8D9DB;" d="M474.85,256.1c0.2,0.08,0.55-0.13,0.59,0.16
		c0.04,0.26-0.29,0.35-0.52,0.36c-0.29,0.01-0.65-0.13-0.65-0.38C474.28,255.95,474.65,256.15,474.85,256.1z"/>
	<path style="fill-rule:evenodd;clip-rule:evenodd;fill:#E5E5E6;" d="M484.88,271.25c-0.19-0.09-0.39-0.19-0.58-0.28
		c0.03-0.02,0.07-0.06,0.1-0.06c0.62-0.04,1.24-0.07,1.86-0.1C485.95,271.44,485.2,270.65,484.88,271.25z"/>
	<path style="fill-rule:evenodd;clip-rule:evenodd;fill:#E4DCC1;" d="M479.83,294.94c-0.02-0.73,0.49-0.67,0.98-0.67
		C480.63,294.72,480.3,294.93,479.83,294.94z"/>
	<path style="fill-rule:evenodd;clip-rule:evenodd;fill:#669D54;" d="M458.97,306.52c0.1,0,0.2,0,0.29-0.01
		c0.3,0.32,0.61,0.65,0.91,0.97c-0.24-0.08-0.48-0.17-0.72-0.25C459.29,307,459.13,306.76,458.97,306.52z"/>
	<path style="fill-rule:evenodd;clip-rule:evenodd;fill:#DCDCDD;" d="M472.24,292.06c0.05,0.17,0.01,0.33-0.19,0.29
		c-0.31-0.06-0.41-0.32-0.41-0.6c0-0.11,0.15-0.31,0.21-0.31C472.23,291.48,472.15,291.83,472.24,292.06z"/>
	<path style="fill-rule:evenodd;clip-rule:evenodd;fill:#76736B;" d="M481.33,307.52c-0.01,0.3-0.01,0.61-0.02,0.91
		c-0.32-0.1-0.52-0.31-0.49-0.65C480.85,307.48,481.08,307.46,481.33,307.52z"/>
	<path style="fill-rule:evenodd;clip-rule:evenodd;fill:#D0D1D3;" d="M480.79,265.69c-0.25-0.08-0.5-0.15-0.74-0.23
		c0.33-0.09,0.65-0.17,0.98-0.26c0.24-0.08,0.5-0.18,0.46,0.25C481.25,265.53,481.02,265.61,480.79,265.69z"/>
	<path style="fill-rule:evenodd;clip-rule:evenodd;fill:#FAF0D2;" d="M482.5,299.65c-0.38,0.73-0.68,0.33-0.98-0.07
		C481.85,299.47,482.19,299.39,482.5,299.65z"/>
	<path style="fill-rule:evenodd;clip-rule:evenodd;fill:#6C6D6F;" d="M481.48,265.45c-0.15-0.08-0.31-0.17-0.46-0.25
		c0.32-0.21,0.64-0.37,0.99-0.08C481.84,265.23,481.66,265.34,481.48,265.45z"/>
	<path style="fill-rule:evenodd;clip-rule:evenodd;fill:#FAF3DA;" d="M484.42,299.87c-0.12,0.12-0.22,0.32-0.36,0.35
		c-0.29,0.06-0.36-0.19-0.4-0.42C483.92,299.74,484.18,299.68,484.42,299.87z"/>
	<path style="fill-rule:evenodd;clip-rule:evenodd;fill:#ADAFB1;" d="M465.71,304.84c0,0.24,0.02,0.44-0.19,0.42
		c-0.12-0.02-0.27-0.18-0.29-0.3c-0.02-0.1,0.14-0.23,0.22-0.34C465.55,304.7,465.65,304.79,465.71,304.84z"/>
	<path style="fill-rule:evenodd;clip-rule:evenodd;fill:#F1E8CB;" d="M485.89,300.23c-0.37,0.41-0.64,0.36-0.79-0.18
		C485.39,299.98,485.68,299.93,485.89,300.23z"/>
	<path style="fill-rule:evenodd;clip-rule:evenodd;fill:#424143;" d="M470.07,265.97c-0.1,0.05-0.2,0.09-0.3,0.14
		c-0.04-0.09-0.08-0.17-0.11-0.26c0.11-0.03,0.21-0.07,0.32-0.08C470,265.76,470.03,265.88,470.07,265.97z"/>
	<path style="fill-rule:evenodd;clip-rule:evenodd;fill:#68696B;" d="M465.7,265.26c0,0.15,0.01,0.29,0.01,0.44
		c-0.24,0.04-0.54,0.02-0.53-0.26C465.18,265.11,465.49,265.24,465.7,265.26z"/>
	<path style="fill-rule:evenodd;clip-rule:evenodd;fill:#EAE9EA;" d="M480.86,311.06c-0.41-0.17-0.31-0.65-0.55-0.92l0.04-0.04
		c0.08-0.09,0.16-0.08,0.23,0.02C480.68,310.42,480.77,310.74,480.86,311.06z"/>
	<path style="fill-rule:evenodd;clip-rule:evenodd;fill:#C8C9CB;" d="M468.43,273.47c-0.08-0.25-0.14-0.39-0.17-0.53
		c-0.05-0.22,0.14-0.28,0.26-0.25c0.11,0.03,0.2,0.18,0.26,0.29C468.8,273.03,468.68,273.13,468.43,273.47z"/>
	<path style="fill-rule:evenodd;clip-rule:evenodd;fill:#9A2C20;" d="M464.97,254.93c0.38,0.34,0.19,0.79,0.21,1.19
		C464.85,255.77,465.02,255.33,464.97,254.93z"/>
	<path style="fill-rule:evenodd;clip-rule:evenodd;fill:#CB4A29;" d="M462.09,279.14c-0.54-0.75,0.02-0.67,0.49-0.66
		C462.37,278.66,461.98,278.72,462.09,279.14z"/>
	<path style="fill-rule:evenodd;clip-rule:evenodd;fill:#64120D;" d="M492.54,286.84c0.34,0.12,0.5,0.37,0.5,0.72
		C492.72,287.43,492.56,287.18,492.54,286.84z"/>
	<path style="fill-rule:evenodd;clip-rule:evenodd;fill:#DCDCDB;" d="M459.94,311.15c-0.07-0.09-0.14-0.19-0.21-0.28
		c0.2-0.14,0.35-0.45,0.67-0.18C460.24,310.84,460.09,310.99,459.94,311.15z"/>
	<path style="fill-rule:evenodd;clip-rule:evenodd;fill:#B0B4AE;" d="M460.64,282.39c-0.09-0.12-0.19-0.23-0.28-0.35
		c0.14-0.13,0.3-0.32,0.48-0.1C461.01,282.15,460.8,282.28,460.64,282.39z"/>
	<path style="fill-rule:evenodd;clip-rule:evenodd;fill:#656668;" d="M490.84,269.63c0.09,0.05,0.15,0.09,0.21,0.12
		c-0.05,0.08-0.1,0.17-0.17,0.22c-0.02,0.02-0.12-0.06-0.18-0.09C490.75,269.81,490.8,269.72,490.84,269.63z"/>
	<path style="fill-rule:evenodd;clip-rule:evenodd;fill:#EAEBEA;" d="M485.85,299.1c0.13-0.35,0.37-0.52,0.75-0.48
		C486.35,298.79,486.1,298.94,485.85,299.1z"/>
	<path style="fill-rule:evenodd;clip-rule:evenodd;fill:#AAABAD;" d="M479.83,303.66c0.01,0.06,0.02,0.13,0.02,0.19
		c-0.24,0.24-0.48,0.23-0.72,0.02l0,0c-0.09-0.04-0.12-0.09-0.09-0.14c0.03-0.05,0.05-0.08,0.08-0.08
		C479.36,303.65,479.6,303.66,479.83,303.66z"/>
	<path style="fill-rule:evenodd;clip-rule:evenodd;fill:#E6E8E8;" d="M475.52,274.36c0.27-0.02,0.53-0.04,0.71,0.22
		C476,274.5,475.76,274.43,475.52,274.36z"/>
	<path style="fill-rule:evenodd;clip-rule:evenodd;fill:#E6E8E8;" d="M475.98,272.64c0.02,0.35-0.14,0.52-0.49,0.5
		C475.66,272.97,475.82,272.81,475.98,272.64z"/>
	<path style="fill-rule:evenodd;clip-rule:evenodd;fill:#5B0D08;" d="M470.72,255.64c-0.1-0.13-0.06-0.24,0.09-0.22
		c0.14,0.02,0.26,0.13,0.39,0.2C471.03,255.63,470.87,255.63,470.72,255.64z"/>
	<path style="fill-rule:evenodd;clip-rule:evenodd;fill:#848588;" d="M459.69,272.44c0.23,0.19,0.29,0.44,0.23,0.73
		C459.67,272.97,459.64,272.72,459.69,272.44z"/>
	<path style="fill-rule:evenodd;clip-rule:evenodd;fill:#64120D;" d="M489.44,276.05c-0.08,0.15-0.16,0.31-0.25,0.46
		C489.28,276.36,489.36,276.2,489.44,276.05z"/>
	<path style="fill-rule:evenodd;clip-rule:evenodd;fill:#EAEBEA;" d="M484.85,296.14c-0.07,0.24-0.25,0.29-0.46,0.29
		C484.54,296.34,484.7,296.24,484.85,296.14z"/>
	<path style="fill-rule:evenodd;clip-rule:evenodd;fill:#EAEBEA;" d="M486.58,298.64c0.15-0.1,0.3-0.19,0.44-0.29
		C486.87,298.45,486.72,298.54,486.58,298.64z"/>
	<path style="fill-rule:evenodd;clip-rule:evenodd;fill:#530904;" d="M490.41,285.62c0.17-0.23,0.33-0.2,0.47,0.03
		C490.72,285.63,490.57,285.63,490.41,285.62z"/>
	<path style="fill-rule:evenodd;clip-rule:evenodd;fill:#530904;" d="M490.88,285.64c0.16,0.08,0.32,0.16,0.48,0.24
		C491.2,285.8,491.04,285.72,490.88,285.64z"/>
	<path style="fill-rule:evenodd;clip-rule:evenodd;fill:#C74928;" d="M469.75,283.23c-0.08-0.14-0.15-0.29-0.23-0.43
		C469.59,282.94,469.67,283.08,469.75,283.23z"/>
	<path style="fill-rule:evenodd;clip-rule:evenodd;fill:#CDCECE;" d="M479.12,303.65c0.01,0.07,0.01,0.15,0.01,0.22
		c-0.16-0.07-0.33-0.14-0.49-0.22C478.8,303.65,478.96,303.65,479.12,303.65z"/>
	<path style="fill-rule:evenodd;clip-rule:evenodd;fill:#669D54;" d="M460.15,307.98c0-0.17,0-0.34,0.01-0.51
		C460.44,307.64,460.42,307.81,460.15,307.98z"/>
	<path style="fill-rule:evenodd;clip-rule:evenodd;fill:#E3E2DB;" d="M486.98,289.64c-0.02,0.24-0.18,0.32-0.4,0.33
		C486.72,289.86,486.85,289.75,486.98,289.64z"/>
	<path style="fill-rule:evenodd;clip-rule:evenodd;fill:#C74928;" d="M469.48,282.75c-0.2-0.14-0.23-0.29-0.02-0.45
		C469.47,282.45,469.48,282.6,469.48,282.75z"/>
	<path style="fill-rule:evenodd;clip-rule:evenodd;fill:#B3B3B4;" d="M480.59,310.1l-0.12,0l-0.12-0.02c0-0.16,0.01-0.32,0.01-0.48
		C480.44,309.77,480.51,309.94,480.59,310.1z"/>
	<path style="fill-rule:evenodd;clip-rule:evenodd;fill:#EAEBEA;" d="M487.03,298.34c0.09-0.07,0.17-0.14,0.26-0.21
		C487.21,298.2,487.12,298.27,487.03,298.34z"/>
	<path style="fill-rule:evenodd;clip-rule:evenodd;fill:#E46826;" d="M463.7,276.03c-0.05-0.09-0.1-0.18-0.15-0.27
		C463.6,275.85,463.65,275.94,463.7,276.03z"/>
	<path style="fill-rule:evenodd;clip-rule:evenodd;fill:#731913;" d="M489.91,275.31c-0.07,0.08-0.14,0.16-0.21,0.24
		C489.78,275.47,489.84,275.39,489.91,275.31z"/>
	<path style="fill-rule:evenodd;clip-rule:evenodd;fill:#64120D;" d="M494.71,289.01c0.08,0.08,0.16,0.16,0.25,0.24
		C494.87,289.17,494.79,289.09,494.71,289.01z"/>
	<path style="fill-rule:evenodd;clip-rule:evenodd;fill:#F0F0E4;" d="M482.24,294.33c-0.08,0.06-0.17,0.12-0.25,0.18
		C482.07,294.45,482.15,294.39,482.24,294.33z"/>
	<path style="fill-rule:evenodd;clip-rule:evenodd;fill:#F0F0E4;" d="M482.7,293.99c-0.1,0.08-0.2,0.17-0.31,0.26
		C482.5,294.16,482.6,294.08,482.7,293.99z"/>
	<path style="fill-rule:evenodd;clip-rule:evenodd;fill:#EAEBEA;" d="M485.13,295.98c-0.1,0.06-0.2,0.12-0.3,0.18
		C484.93,296.1,485.03,296.04,485.13,295.98z"/>
	<path style="fill-rule:evenodd;clip-rule:evenodd;fill:#64120D;" d="M489.19,276.52c-0.08,0.08-0.15,0.16-0.23,0.24
		C489.04,276.68,489.12,276.6,489.19,276.52z"/>
	<path style="fill-rule:evenodd;clip-rule:evenodd;fill:#9A2C20;" d="M487.98,258.53c0.08,0.07,0.17,0.13,0.25,0.2
		C488.15,258.66,488.07,258.6,487.98,258.53z"/>
	<path style="fill-rule:evenodd;clip-rule:evenodd;fill:#6F1812;" d="M466.18,257.8c0.07,0.07,0.15,0.15,0.22,0.22
		C466.33,257.95,466.25,257.88,466.18,257.8z"/>
	<path style="fill-rule:evenodd;clip-rule:evenodd;fill:#85221A;" d="M465.46,256.85c0.07,0.08,0.14,0.16,0.21,0.25
		C465.6,257.01,465.53,256.93,465.46,256.85z"/>
	<path style="fill-rule:evenodd;clip-rule:evenodd;fill:#CB4A29;" d="M461.32,279.12c-0.05,0.09-0.1,0.17-0.15,0.26
		C461.23,279.29,461.27,279.21,461.32,279.12z"/>
	<path style="fill-rule:evenodd;clip-rule:evenodd;fill:#E3E2DB;" d="M487.22,289.41c-0.08,0.08-0.17,0.17-0.25,0.25
		C487.05,289.58,487.14,289.49,487.22,289.41z"/>
	<path style="fill-rule:evenodd;clip-rule:evenodd;fill:#7AA25F;" d="M463.1,302.19c-0.05-0.04-0.11-0.08-0.16-0.12
		c-0.01,0,0.03-0.06,0.05-0.09C463.02,302.05,463.06,302.12,463.1,302.19z"/>
	<path style="fill-rule:evenodd;clip-rule:evenodd;fill:#71C8E1;" d="M456.58,265.72c-0.04-0.09-0.07-0.17-0.11-0.26
		C456.51,265.55,456.54,265.63,456.58,265.72z"/>
	<path style="fill-rule:evenodd;clip-rule:evenodd;fill:#D98343;" d="M456.37,310.56c-0.09-0.08-0.18-0.16-0.26-0.25
		C456.2,310.39,456.29,310.48,456.37,310.56z"/>
	<path style="fill-rule:evenodd;clip-rule:evenodd;fill:#731913;" d="M490.16,274.83c-0.07,0.08-0.13,0.16-0.2,0.23
		C490.02,274.99,490.09,274.91,490.16,274.83z"/>
	<path style="fill-rule:evenodd;clip-rule:evenodd;fill:#E3E2DB;" d="M488.72,292.37c0.09-0.08,0.18-0.15,0.27-0.23
		C488.91,292.22,488.82,292.3,488.72,292.37z"/>
	<path style="fill-rule:evenodd;clip-rule:evenodd;fill:#E9EAE6;" d="M483.2,272.89c0.11-0.06,0.22-0.12,0.33-0.18
		C483.42,272.77,483.31,272.83,483.2,272.89z"/>
	<path style="fill-rule:evenodd;clip-rule:evenodd;fill:#F0724E;" d="M497.13,263.54c1.11,0.44,1.35,1.44,1.61,2.45
		c1.32,5.02,2.48,10.07,2.73,15.29c0.28,1.07-0.07,2.14-0.04,3.21c0.02,0.69-0.56,0.67-1.03,0.35c-0.5-0.34-0.83-0.86-1.14-1.38
		c-1.46-2.42-2.4-5.02-2.75-7.85c-0.44-3.58-0.19-7.18-0.22-10.76C496.29,264.3,496.25,263.59,497.13,263.54z"/>
	<path style="fill-rule:evenodd;clip-rule:evenodd;fill:#B93E29;" d="M494.72,280.36c0-0.16,0-0.32,0-0.48
		c-1.17-2.85-1.38-5.86-1.56-8.88c-0.23-3.88-1.06-7.63-2.43-11.27c-0.25-0.65-0.67-1.18-1.16-1.66c-1.75-1.69-3.53-3.35-5.34-4.97
		c-1.2-1.08-2.56-1.89-4.15-2.26h0c-0.13-0.13-0.39-0.2-0.24-0.48c1.83-0.12,3.08,1.07,4.47,1.95c0.37,0.23,0.74,0.45,1.11,0.68
		c0.07,0.08,0.13,0.16,0.2,0.25c0.06,0.08,0.13,0.16,0.21,0.23l0.03,0.03c0.07,0.07,0.14,0.14,0.21,0.21l0.04,0.04
		c0.07,0.07,0.14,0.13,0.21,0.2l0.03,0.03c0.08,0.08,0.17,0.15,0.27,0.2c0.08,0,0.15,0.03,0.22,0.08c0.08,0.06,0.18,0.12,0.28,0.16
		c0.44,0.06,0.85,0.18,1.18,0.48c0.12,0.22,0.32,0.36,0.53,0.47c3.08,1.48,3.98,4.22,4.35,7.33c0.37,3.11,1,6.18,1.33,9.3
		c0.15,3.69,0.82,7.25,2.51,10.56c0.93,2.26,2.14,4.34,4.02,5.96c0.24,0.21,0.34,0.53,0.55,0.76c-0.15-0.25-0.21-0.53-0.22-0.82
		c0-0.2-0.02-0.4-0.01-0.6c0.03-0.38,0-0.78,0.39-1.01c0.29,2,0.13,4.01,0.13,6.02c-0.11,0.01-0.23,0.01-0.34,0.02
		c0.03-1.95-1.52-3.06-2.48-4.44C497.3,285.89,496.23,283.01,494.72,280.36z"/>
	<path style="fill-rule:evenodd;clip-rule:evenodd;fill:#E66540;" d="M497.13,263.54c-0.42,0.21-0.5,0.58-0.49,1
		c0.11,4.52-0.38,9.08,0.72,13.55c0.58,2.36,1.68,4.46,3.1,6.4c0.12,0.17,0.38,0.31,0.59,0.31s0.29-0.23,0.23-0.46
		c-0.25-1.04,0.33-2.04,0.2-3.07c0.29,1.69,0.23,3.39,0.19,5.09c-0.67,0.86-1.23,0.3-1.66-0.21c-1.68-2.02-2.86-4.32-3.66-6.81
		c-0.76-2.37-1.12-4.81-1.03-7.31c0.04-0.96-0.36-1.89-0.22-2.86c0.08-1.94-0.26-3.88-0.04-5.82c0.08-0.75,0.12-1.51,0.43-2.21
		c0.18-0.4,0.38-0.81,0.94-0.74l0,0.02c0.05,0.06,0.09,0.13,0.12,0.21C496.74,261.6,496.93,262.57,497.13,263.54z"/>
	<path style="fill-rule:evenodd;clip-rule:evenodd;fill:#CA442A;" d="M494.24,271.96c-0.4-2.49-0.79-4.98-1.2-7.47
		c-0.25-1.53-0.5-3.05-0.77-4.57c-0.36-2.03-1.92-3.11-3.43-4.22c-0.27-0.2-0.85-0.21-0.56-0.81c0.15,0.03,0.3,0.06,0.46,0.09
		c0.09,0.06,0.18,0.11,0.28,0.16c1.9,0.42,3.83,0.79,5.47,1.94c0.23,0.4,0.29,0.82,0.1,1.26c-1.13,2.7-0.72,5.47-0.38,8.24
		c0.17,1.34,0.28,2.69,0.36,4.04C494.6,271.08,494.65,271.59,494.24,271.96z"/>
	<path style="fill-rule:evenodd;clip-rule:evenodd;fill:#DB5B39;" d="M495.44,269.32c0.14,5.35,0.53,10.63,3.76,15.22
		c0.37,0.52,0.74,1.03,1.12,1.54c0.35,0.47,0.79,0.67,1.33,0.3c0.03,0.15,0.06,0.3,0.08,0.45c-0.03,0.4-0.07,0.79-0.1,1.19
		c-0.73,0.12-1.16-0.4-1.59-0.82c-0.92-0.92-1.65-1.99-2.29-3.12c-2.1-3.82-2.99-7.96-3.15-12.27c-0.01-0.28-0.05-0.56-0.12-0.83
		c-0.01-0.14-0.02-0.27-0.02-0.41c0.09-1.26-0.39-2.53,0.11-3.78c0.58-0.31,0.52,0.19,0.6,0.48
		C495.37,267.93,495.21,268.65,495.44,269.32z"/>
	<path style="fill-rule:evenodd;clip-rule:evenodd;fill:#CF5031;" d="M494.72,270.76c0,0.08,0,0.16,0,0.24
		c0.25,1.53,0.09,3.08,0.36,4.62c0.37,2.12,0.88,4.2,1.74,6.18c0.11,0.25,0.26,0.5,0.18,0.8c-0.04,0.06-0.08,0.11-0.12,0.17
		c-1.34-2.24-2.12-4.67-2.39-7.25c-0.12-1.18-0.17-2.36-0.25-3.55c0.06-2.93-0.49-5.82-0.74-8.73c-0.18-2.15,0.53-4.13,0.98-6.16
		c0.08,0.07,0.17,0.14,0.25,0.21c0.05,0.11,0.13,0.2,0.25,0.26l-0.01-0.01c0.06,0.11,0.14,0.19,0.25,0.25l0.01-0.01
		c0.14,0.27,0.12,0.53-0.02,0.8c-1.18,2.32-0.91,4.77-0.73,7.23c0.1,1.38-0.05,2.77,0.12,4.16
		C494.63,270.23,494.52,270.52,494.72,270.76z"/>
	<path style="fill-rule:evenodd;clip-rule:evenodd;fill:#DF5B37;" d="M495.44,269.32c-0.24-0.88-0.48-1.76-0.72-2.64
		c-0.18,0.03-0.33-0.05-0.34-0.23c-0.15-2.36-0.47-4.74,0.38-7.03c0.16-0.44,0.24-1.36,1.15-0.68l0.01,0.03
		c0.14,0.12,0.08,0.33,0.22,0.45c0.25,0.36,0.31,0.76,0.28,1.18c-0.9,0.68-0.93,1.71-0.96,2.68
		C495.4,265.16,495.44,267.24,495.44,269.32z"/>
	<path style="fill-rule:evenodd;clip-rule:evenodd;fill:#CF5132;" d="M495.91,258.75c-0.46-0.23-0.65,0.04-0.79,0.41
		c-0.93,2.46-0.8,4.99-0.41,7.52c0,1.36,0,2.72,0,4.08c-0.52-4.35-1.72-8.74,0.51-12.98C495.63,257.98,495.84,258.32,495.91,258.75z
		"/>
	<path style="fill-rule:evenodd;clip-rule:evenodd;fill:#CF5132;" d="M496.14,259.23c-0.07-0.15-0.14-0.3-0.22-0.45
		C496,258.93,496.07,259.08,496.14,259.23z"/>
	<path style="fill-rule:evenodd;clip-rule:evenodd;fill:#B03725;" d="M486.06,253.71c-0.07-0.07-0.14-0.14-0.21-0.21
		C485.92,253.57,485.99,253.64,486.06,253.71z"/>
	<path style="fill-rule:evenodd;clip-rule:evenodd;fill:#B93E29;" d="M489.01,255.13c-0.09-0.05-0.18-0.1-0.28-0.16
		C488.83,255.03,488.92,255.08,489.01,255.13z"/>
	<path style="fill-rule:evenodd;clip-rule:evenodd;fill:#B03725;" d="M486.3,253.95c-0.07-0.07-0.14-0.14-0.21-0.2
		C486.16,253.81,486.23,253.88,486.3,253.95z"/>
	<path style="fill-rule:evenodd;clip-rule:evenodd;fill:#B03725;" d="M485.83,253.47c-0.07-0.08-0.14-0.15-0.21-0.23
		C485.69,253.31,485.76,253.39,485.83,253.47z"/>
	<path style="fill-rule:evenodd;clip-rule:evenodd;fill:#DF5B37;" d="M496.54,260.64c-0.04-0.07-0.08-0.14-0.12-0.21
		C496.46,260.5,496.5,260.57,496.54,260.64z"/>
	<path style="fill-rule:evenodd;clip-rule:evenodd;fill:#CF5132;" d="M495.22,257.78c-0.08-0.08-0.17-0.17-0.25-0.25
		C495.06,257.62,495.14,257.7,495.22,257.78z"/>
	<path style="fill-rule:evenodd;clip-rule:evenodd;fill:#CF5132;" d="M494.98,257.55c-0.08-0.09-0.16-0.18-0.25-0.26
		C494.82,257.37,494.9,257.46,494.98,257.55z"/>
	<path style="fill-rule:evenodd;clip-rule:evenodd;fill:#B03725;" d="M487.09,254.41c-0.09-0.05-0.18-0.1-0.28-0.16
		C486.91,254.3,487,254.35,487.09,254.41z"/>
	<path style="fill-rule:evenodd;clip-rule:evenodd;fill:#B03725;" d="M486.6,254.17c-0.09-0.07-0.18-0.13-0.27-0.2
		C486.42,254.04,486.51,254.11,486.6,254.17z"/>
	<path style="fill-rule:evenodd;clip-rule:evenodd;fill:#84221A;" d="M497.84,290.44c1.69,2.93,1.97,6.08,1.44,9.36
		C499.48,296.57,498.87,293.47,497.84,290.44z"/>
	<path style="fill-rule:evenodd;clip-rule:evenodd;fill:#84221A;" d="M497.36,289.24c0.38,0.31,0.49,0.73,0.48,1.2
		C497.46,290.13,497.35,289.71,497.36,289.24z"/>
	<path style="fill-rule:evenodd;clip-rule:evenodd;fill:#84221A;" d="M497.12,288.76c0.08,0.16,0.16,0.32,0.24,0.48
		C497.28,289.08,497.2,288.92,497.12,288.76z"/>
	<path style="fill-rule:evenodd;clip-rule:evenodd;fill:#962B20;" d="M498.56,289.96c1.63,2.28,2.03,4.87,1.9,7.58
		c-0.09,1.86-0.3,3.72-0.47,5.58c-0.02,0.18-0.15,0.35-0.23,0.53c0.08-2.14,0.07-4.29,0.26-6.41
		C500.26,294.63,499.46,292.3,498.56,289.96z"/>
	<path style="fill-rule:evenodd;clip-rule:evenodd;fill:#962B20;" d="M498.08,289c0.08,0.16,0.16,0.32,0.24,0.48
		C498.24,289.32,498.16,289.16,498.08,289z"/>
	<path style="fill-rule:evenodd;clip-rule:evenodd;fill:#962B20;" d="M497.84,288.52c0.08,0.16,0.16,0.32,0.24,0.48
		C498,288.84,497.92,288.68,497.84,288.52z"/>
	<path style="fill-rule:evenodd;clip-rule:evenodd;fill:#962B20;" d="M497.36,287.56c0.08,0.16,0.16,0.32,0.24,0.48
		C497.52,287.88,497.44,287.72,497.36,287.56z"/>
	<path style="fill-rule:evenodd;clip-rule:evenodd;fill:#962B20;" d="M497.6,288.04c0.08,0.16,0.16,0.32,0.24,0.48
		C497.76,288.36,497.68,288.2,497.6,288.04z"/>
	<path style="fill-rule:evenodd;clip-rule:evenodd;fill:#962B20;" d="M498.32,289.48c0.08,0.16,0.16,0.32,0.24,0.48
		C498.48,289.8,498.4,289.64,498.32,289.48z"/>
	<path style="fill-rule:evenodd;clip-rule:evenodd;fill:#252021;" d="M462.33,297.9c-0.72-0.34-1.43-0.68-2.15-1.02
		c-0.79-0.28-0.97-0.84-0.94-1.65c0.03-0.72,0.19-1.5-0.28-2.17c-0.33-0.36-0.51-0.77-0.48-1.26c0-0.21,0-0.41-0.01-0.62
		c-0.16-0.92-0.13-1.82,0.23-2.7c0.02-0.54,0.56-0.75,0.74-1.19c0.87-0.41,1.1-1.35,1.68-2.01c1.45,0.14,3.02,0.05,3.38,2.02
		c0,3.1,0.14,6.23-1.01,9.19C463.28,297.06,463.34,297.97,462.33,297.9z"/>
	<path style="fill-rule:evenodd;clip-rule:evenodd;fill:#B9B6B4;" d="M458.69,291.9c0.09,0.39,0.18,0.78,0.28,1.17
		c-0.16,0-0.32,0.01-0.49,0.01c-0.01-0.14-0.03-0.27-0.04-0.41C458.44,292.39,458.12,292,458.69,291.9z"/>
	<path style="fill-rule:evenodd;clip-rule:evenodd;fill:#767779;" d="M457.96,288.95c0.17,0,0.35,0,0.52,0
		c0.24,0.69,0.08,1.4,0.1,2.09c-0.06,0.16-0.17,0.2-0.33,0.13C457.91,290.46,458.04,289.69,457.96,288.95z"/>
	<path style="fill-rule:evenodd;clip-rule:evenodd;fill:#949699;" d="M458.25,291.17c0.07,0,0.15,0,0.22,0
		c0.15,0.03,0.17,0.17,0.23,0.28c-0.01,0.15-0.01,0.31-0.02,0.46c-0.08,0.26-0.17,0.51-0.25,0.77
		C458.21,292.19,458.21,291.68,458.25,291.17z"/>
	<path style="fill-rule:evenodd;clip-rule:evenodd;fill:#282323;" d="M458.71,291.44c-0.08-0.09-0.15-0.18-0.23-0.28
		c0-0.74,0-1.48,0-2.22c0.08-0.15,0.15-0.3,0.22-0.45C458.7,289.47,458.7,290.46,458.71,291.44z"/>
	<path style="fill-rule:evenodd;clip-rule:evenodd;fill:#B03725;" d="M479.84,250.36c0.08,0.16,0.16,0.32,0.24,0.48
		c-0.54,0.02-1.06-0.02-1.44-0.48C479.04,250.36,479.44,250.36,479.84,250.36z"/>
	<path style="fill-rule:evenodd;clip-rule:evenodd;fill:#B03725;" d="M480.08,250.84c2.23,0.01,3.68,1.58,5.26,2.79
		c1.38,1.06,2.53,2.43,3.87,3.55c1.49,1.25,2.15,2.9,2.63,4.69c1.08,4.04,1.51,8.17,1.7,12.33c0.09,1.95,0.83,3.78,1.18,5.68
		c-0.98-1.52-1.29-3.25-1.41-4.99c-0.27-3.81-0.58-7.59-1.64-11.29c-0.85-2.99-2.21-5.58-4.74-7.52c-1.42-1.09-2.49-2.57-3.93-3.68
		C482.1,251.71,480.95,251.55,480.08,250.84z"/>
	<path style="fill-rule:evenodd;clip-rule:evenodd;fill:#CDCECE;" d="M479.13,303.87c0.24-0.01,0.48-0.01,0.72-0.02
		c0.22,0.02,0.44,0.04,0.66,0.06c0.09,0.17,0.02,0.32-0.13,0.38c-1.12,0.42-1.8,1.31-2.48,2.22c-0.24,0-0.48-0.01-0.72-0.01
		C477.34,305.25,478.3,304.6,479.13,303.87z"/>
	<path style="fill-rule:evenodd;clip-rule:evenodd;fill:#AAABAD;" d="M477.91,306.5c0.21-1.53,1.57-1.9,2.61-2.6
		c0.55,0.01,1.1,0.01,1.65,0.02c-1.48,0.53-3.1,0.88-3.77,2.59C478.23,306.51,478.07,306.51,477.91,306.5z"/>
	<path style="fill-rule:evenodd;clip-rule:evenodd;fill:#CF5031;" d="M498.08,284.2c1.1,1.36,1.92,2.97,3.56,3.82
		c0,0.47,0,0.95,0,1.42c-0.34-0.3-0.68-0.6-1.02-0.9c-1.77-1.59-3.04-3.5-3.74-5.78l0,0C497.77,282.83,497.57,283.81,498.08,284.2z"
		/>
	<path style="fill-rule:evenodd;clip-rule:evenodd;fill:#CF5132;" d="M498.08,284.2c-0.4-0.48-0.8-0.96-1.2-1.44
		c-0.64-2.33-1.62-4.56-2-6.98c-0.25-1.6-0.07-3.19-0.16-4.78c0.22,1.59,0.49,3.18,0.66,4.77c0.29,2.76,1.22,5.31,2.48,7.76
		C497.96,283.74,498.01,283.97,498.08,284.2z"/>
	<path style="fill-rule:evenodd;clip-rule:evenodd;fill:#E73128;" d="M460.15,292.12c-0.34-1.39-1.07-2.8,0.21-4.1
		c0.11-0.05,0.2-0.13,0.27-0.23l0,0c0.09-0.06,0.17-0.14,0.24-0.22l0.02-0.01c0.07-0.07,0.15-0.14,0.23-0.2l0.04-0.02
		c1.24-0.02,1.59,0.61,1.16,2.1c-0.21,0.38-0.42,0.76-0.5,1.2c-0.27,0.8,0.08,1.67-0.3,2.46
		C460.56,293.65,460.47,293.58,460.15,292.12z"/>
	<path style="fill-rule:evenodd;clip-rule:evenodd;fill:#D63132;" d="M462.08,289.44c0.22-0.94,0.34-1.83-0.93-2.11
		c0.35-0.39,0.54-1.07,1.22-0.95c0.79,0.14,0.69,0.88,0.78,1.44c0.08,0.54,0.07,1.1,0.1,1.65
		C462.85,290.13,462.46,289.94,462.08,289.44z"/>
	<path style="fill-rule:evenodd;clip-rule:evenodd;fill:#C6292E;" d="M462.82,294.08c-0.05,0.39-0.11,0.79-0.15,1.18
		c-0.13,1.36-0.71,1.66-1.8,0.79c-0.43-0.64-0.38-1.29,0.18-1.77C461.55,293.85,462.16,293.49,462.82,294.08z"/>
	<path style="fill-rule:evenodd;clip-rule:evenodd;fill:#D0443E;" d="M462.82,294.08c-1.69,0.02-2.08,0.41-1.95,1.97
		c-0.81-1.21-0.31-2.65-0.72-3.93c0.46,0.26,0.07,1.57,1.21,0.97c0.56-0.01,1.07-0.46,1.66-0.21
		C463.06,293.3,463.1,293.71,462.82,294.08z"/>
	<path style="fill-rule:evenodd;clip-rule:evenodd;fill:#EA9182;" d="M463.02,292.88c-0.55,0.14-1.03,0.75-1.66,0.21
		c0.13-0.88-0.29-1.82,0.25-2.66c0.55-1.09,1.1-0.42,1.66,0C463.33,291.26,463.33,292.09,463.02,292.88z"/>
	<path style="fill-rule:evenodd;clip-rule:evenodd;fill:#DE6559;" d="M463.26,290.43c-0.55,0.01-1.11-0.66-1.66,0
		c-0.02-0.42,0.08-0.78,0.48-0.99c0.39,0.08,0.77,0.39,1.17,0.02C463.25,289.78,463.26,290.1,463.26,290.43z"/>
	<path style="fill-rule:evenodd;clip-rule:evenodd;fill:#D63132;" d="M460.63,287.79c-0.09,0.08-0.18,0.15-0.27,0.23
		C460.45,287.94,460.54,287.86,460.63,287.79z"/>
	<path style="fill-rule:evenodd;clip-rule:evenodd;fill:#D63132;" d="M461.12,287.35c-0.08,0.07-0.15,0.13-0.23,0.2
		C460.96,287.48,461.04,287.42,461.12,287.35z"/>
	<path style="fill-rule:evenodd;clip-rule:evenodd;fill:#D63132;" d="M460.87,287.56c-0.08,0.07-0.16,0.15-0.24,0.22
		C460.71,287.71,460.79,287.64,460.87,287.56z"/>
	<path style="fill-rule:evenodd;clip-rule:evenodd;fill:#F8CEC9;" d="M461.59,291.67c0.04-0.42-0.11-0.97,0.57-0.96
		c0.49,0.01,0.65,0.37,0.66,0.81c0.02,0.59-0.33,0.92-0.85,0.94C461.4,292.48,461.69,291.94,461.59,291.67z"/>
</g>
</svg>
