<?xml version="1.0" encoding="utf-8"?>
<!-- Generator: Adobe Illustrator 16.0.0, SVG Export Plug-In . SVG Version: 6.00 Build 0)  -->
<!DOCTYPE svg PUBLIC "-//W3C//DTD SVG 1.0//EN" "http://www.w3.org/TR/2001/REC-SVG-20010904/DTD/svg10.dtd" [
	<!ENTITY ns_flows "http://ns.adobe.com/Flows/1.0/">
	<!ENTITY ns_extend "http://ns.adobe.com/Extensibility/1.0/">
	<!ENTITY ns_ai "http://ns.adobe.com/AdobeIllustrator/10.0/">
	<!ENTITY ns_graphs "http://ns.adobe.com/Graphs/1.0/">
]>
<svg version="1.0" id="Layer_1" xmlns:x="&ns_extend;" xmlns:i="&ns_ai;" xmlns:graph="&ns_graphs;"
	 xmlns="http://www.w3.org/2000/svg" xmlns:xlink="http://www.w3.org/1999/xlink" xmlns:a="http://ns.adobe.com/AdobeSVGViewerExtensions/3.0/"
	 x="0px" y="0px" width="960px" height="560px" viewBox="0 0 960 560" style="enable-background:new 0 0 960 560;"
	 xml:space="preserve">
<g>
	<path style="fill-rule:evenodd;clip-rule:evenodd;fill:#010000;" d="M505.52,280.84c0,9.88-0.02,19.76,0.03,29.64
		c0.01,1.29-0.38,1.59-1.63,1.59c-16-0.04-32-0.04-47.99,0c-1.22,0-1.55-0.33-1.55-1.54c0.04-19.8,0.03-39.59,0-59.39
		c0-1.26,0.31-1.75,1.68-1.75c15.92,0.04,31.84,0.04,47.75,0c1.32,0,1.73,0.39,1.73,1.7C505.5,261.01,505.52,270.92,505.52,280.84z"
		/>
	<path style="fill-rule:evenodd;clip-rule:evenodd;fill:#231F20;" d="M477.03,311.29c-1.06,0.01-2.12,0.03-3.19,0.04
		c-0.77-0.96-1.19-1.95-0.93-3.28c0.28-1.41-0.41-2.72-0.95-4c-0.05-0.13-0.12-0.33-0.32-0.25c-0.16,0.06-0.16,0.25-0.19,0.41
		c-0.37,1.83-0.8,3.65-1.15,5.48c-0.11,0.57-0.13,1.2-0.69,1.59c-0.35,0.02-0.71,0.03-1.06,0.05c-0.13-0.22-0.12-0.46-0.06-0.69
		c0.67-2.26,0.78-4.63,1.25-6.92c0.25-1.24,0.17-1.35-1.06-1.55c-0.12-0.02-0.24-0.03-0.35-0.06c-0.56-0.17-1.13-0.78-1.68,0.02
		c-0.5,0.74-0.53,2.24,0.09,2.79c1.23,1.1,1.45,2.5,1.43,4.02c-0.09,0.81,0.23,1.66-0.33,2.4c-0.4,0-0.81,0-1.21,0
		c-0.23-0.26-0.33-0.58-0.34-0.92c0-0.64,0.08-1.28-0.13-1.9c-0.3-2.46-0.34-2.49-2.76-3.1c-1.17-0.29-2.37-0.18-3.54-0.38
		c-0.43-0.07-0.76,0.2-0.99,0.55c-0.66,1.04-1.65,1.57-2.79,1.89c-0.33,0.07-0.65,0.06-0.93-0.16c0-0.21,0.01-0.42,0.01-0.62
		c0.32-0.55,1.02-0.56,1.41-1c0.17-0.19,0.56-0.33,0.39-0.63c-0.12-0.21-0.42,0.01-0.63,0.06c-0.41,0.1-0.82,0.33-1.21-0.04
		c0.01-0.26,0.02-0.53,0.03-0.79c1.09-1.15,0.34-2.3,0.01-3.45c0-1.49-0.01-2.97-0.01-4.46c0.15-0.21,0.06-0.48,0.16-0.71
		c0.21-1.45,0.7-2.85,0.71-4.34c0.01-0.78,0.65-0.91,1.19-1.12c0.43-0.76,0.27-1.13-0.6-1.34c-0.51-0.12-1.13,0.04-1.46-0.55
		c0-0.34,0-0.68,0-1.02c2.05-0.29,3.39,0.28,3.89,1.68c0.39,1.1,0.2,1.85-0.79,2.48c-0.57,0.36-0.83,0.79-0.88,1.45
		c-0.12,1.45-0.6,2.81-1.14,4.15c-0.18,0.45-0.32,0.9-0.42,1.38c-0.17,0.84,0.06,1.43,1,1.55c3.02,0.38,6.05,0.52,9.08,0.4
		c0.86-0.04,1.08-0.63,0.92-1.35c-0.4-1.8-0.4-3.54,0.32-5.29c0.33-0.8,0.08-1.66-0.23-2.46c-1.32-3.4-3.07-6.44-6.13-8.68
		c-1.58-1.16-2.99-2.51-4.93-3.06c-0.32-0.09-0.55-0.32-0.7-0.62c0-0.25,0.01-0.5,0.01-0.75c0.76-0.35,1.38,0.14,2.04,0.37
		c3.24,1.09,5.42,3.54,7.59,5.99c1.31,1.48,2.12,3.26,2.98,5.01c0.28,0.47,0.31,1.37,1.26,0.75c0.14-0.09,0.28-0.17,0.43-0.24
		c0.1-0.06,0.2-0.11,0.3-0.15c0.1-0.05,0.21-0.09,0.31-0.13c0.11-0.04,0.22-0.07,0.33-0.09c1.07-0.14,2.1-0.41,3.1-0.83
		c1.15-0.48,2.3-0.62,3.44,0.06c0.36,0.21,0.76,0.23,1.16,0.19c0.35-0.04,0.96,0.41,0.93-0.43c-0.02-0.66-0.22-1.22-1.05-1.1
		c-1.38,0.2-2.75,0.35-4.15,0.06c-1.38-0.29-2.58-0.81-3.25-2.16c-0.28-0.69-0.22-1.39-0.09-2.11c0.36-1.92,0.05-2.52-1.67-3.46
		c-1.18-0.65-2.52-1-3.58-1.87c-0.18-0.15-0.37-0.3-0.52-0.49c-0.44-0.73-1.04-0.86-1.85-0.62c-1.92,0.58-3.89,0.87-5.88,1.1
		c-0.64,0.07-1.28,0.15-1.84-0.28c0-0.25,0-0.5,0-0.75c0.41-0.4,0.98-0.26,1.45-0.46c0.44-0.11,0.89-0.08,1.33-0.1
		c0.38,0.02,0.74-0.03,1.1-0.14c2.55-0.03,4.86-0.92,7.13-1.94c1.91-0.95,3.32-2.34,3.95-4.43c0.3-1.02,0.14-1.22-0.91-1.22
		c-0.84,0-1.66,0.29-2.5,0.24c-0.3-0.01-0.58,0.09-0.86,0.15c-0.48,0.1-0.96,0.09-1.45,0.1c-0.36-0.02-0.71-0.01-1.06,0.12
		c-0.12,0.03-0.24,0.06-0.36,0.07c-0.36,0.04-0.72,0.04-1.09,0.05c-0.18,0-0.36,0-0.54-0.01c-0.48,0-0.97-0.03-1.44,0.15
		c-0.19,0.05-0.38,0.07-0.57,0.08c-0.39,0.06-0.79-0.01-1.19,0.04c-0.75,0.03-1.5-0.02-2.25-0.03c-0.29-0.01-0.55-0.12-0.76-0.32
		c0-0.26,0.01-0.52,0.01-0.77c0.1-0.09,0.21-0.16,0.34-0.21c0.59-0.08,1.17-0.27,1.77-0.33c1.1-0.12,2.21,0.09,3.31-0.06
		c1.03-0.27,2.07-0.2,3.12-0.21c0.72-0.14,1.45-0.23,2.18-0.23c0.94-0.03,1.89,0.06,2.83-0.15c0.22-0.05,0.63-0.05,0.62-0.19
		c-0.04-0.27-0.38-0.14-0.59-0.14c-1.19-0.02-2.37,0.01-3.57-0.02c-0.73,0.05-1.46-0.01-2.17,0.18c-0.78,0.12-1.55,0.11-2.33,0.08
		c-0.86-0.06-1.72-0.02-2.57,0.01c-0.57-0.09-1.14,0.04-1.72-0.03c-0.45,0.02-0.87-0.03-1.22-0.35c0.01-0.34,0.01-0.67,0.02-1.01
		c0.19-0.25,0.06-0.54,0.13-0.81c0.25-1,0.99-1.51,1.88-1.86c1.12-0.44,2.29-0.67,3.5-0.74c1.02-0.05,1.23-0.46,0.92-1.39
		c-0.39-1.15-1.47-1.58-2.28-2.29c-0.23-0.2-0.53,0.05-0.76,0.2c-0.54,0.34-0.98,0.81-1.48,1.22c-0.55,0.45-1.12,0.92-1.93,0.68
		c0-0.41,0-0.82,0.01-1.23c0.94-0.55,1.54-1.5,2.43-2.11c0.5-0.34,0.33-0.82,0.27-1.3c-0.2-1.5-0.37-3-0.41-4.52
		c-0.01-0.47-0.06-0.97,0.27-1.38c0.34-0.02,0.67-0.03,1.01-0.04c0.56,0.66,0.53,1.49,0.59,2.27c0.07,0.95,0.24,1.9,0.3,2.85
		c0.02,0.3-0.01,0.84,0.25,0.82c0.28-0.02,0.11-0.51,0.08-0.79c-0.13-1.31-0.29-2.61-0.44-3.92c-0.05-0.43-0.15-0.88,0.24-1.23
		c0.3,0,0.6,0,0.9,0c0.67,1.01,0.54,2.17,0.62,3.28c0.14,0.7,0.22,1.41,0.29,2.13c0.07,0.73,0.37,1.09,1.18,0.86
		c0.58-0.16,1.2-0.17,1.73,0.22c0.31,0.23,0.52,0.53,0.42,0.93c-0.11,0.48-0.51,0.42-0.87,0.38c-0.16-0.02-0.32-0.06-0.48-0.04
		c-0.29,0.04-0.72-0.05-0.75,0.33c-0.01,0.14,0.49-0.02,0.75-0.04c0.81-0.09,1.68-0.4,2.24,0.54c-0.13,0.48-0.56,0.57-0.94,0.72
		c-0.19,0.06-0.38,0.11-0.58,0.11c-0.96,0-1.16,0.5-0.9,1.32c0.02,0.11,0.02,0.22,0.03,0.33c0.1,0.59-0.31,1.49,0.43,1.68
		c0.66,0.17,0.67-0.82,1.03-1.25c0.43-0.51,0.73-1.13,1.23-1.6c0.35-0.33,0.73-0.64,1.27-0.42c0.09,0.07,0.15,0.16,0.19,0.27
		c0.02,0.61-0.46,0.89-0.83,1.24c-0.75,0.71-1.35,1.49-1.21,2.6c0.05,0.42,0.24,0.79,0.48,1.13c0.23,0.52,0.67,0.58,1.16,0.53
		c1.1,0.06,1.66-0.45,1.96-1.51c0.61-2.16,2.14-3.48,4.18-4.29c1.68-0.67,3.41-1.11,5.19-1.37c0.27,0.01,0.51,0.07,0.7,0.26
		c0.02,0.65-0.49,0.71-0.93,0.82c-0.61,0.14-1.22,0.25-1.82,0.4c-1.75,0.49-3.54,0.88-4.82,2.37c-0.88,1.02-1.27,2.07-0.56,3.36
		c0.32,0.59,0.42,1.28,0.69,1.9c0.31,1.25-0.06,2.39-0.59,3.51c-0.9,0.96-1.03,2.04-0.66,3.29c0.44,1.49,1.3,2.62,2.58,3.46
		c2.71,1.77,5.75-1.13,5.95-3.27c0.04-0.39-0.19-0.48-0.5-0.48c-0.99,0.08-1.97,0.25-2.95,0.34c-0.48,0.05-0.96,0.14-1.28-0.37
		c0-0.12,0.04-0.22,0.11-0.31c1.11-0.7,2.43-0.58,3.64-0.91c0.14-0.04,0.3,0.01,0.43-0.08c-0.15,0.03-0.31,0.05-0.46,0.03
		c-0.98-0.13-2.05,0.35-2.94-0.42c0.11-0.62,0.6-0.68,1.07-0.72c0.55-0.05,1.1-0.11,1.64-0.21c0.94,0.05,1.67-0.22,2.18-1.12
		c0.37-0.65,1.1-0.89,1.82-1.05c0.62-0.14,1.26-0.2,1.86-0.42c3.44-1.23,4.15-5.34,1.43-8.25c-0.37-0.39-0.94-0.66-0.9-1.33
		c0.63-0.45,1.05,0.03,1.46,0.36c2.16,1.74,2.68,4.03,2.21,6.66c-0.06,0.31-0.51,0.7,0.05,1c1.89-0.71,3.79-1.37,5.82-1.46
		c0.15-0.03,0.07,0.17,0.07,0.01c0-0.12-0.13-0.08-0.19-0.13c-0.56,0.12-1.04,0.08-1.21-0.59c-0.28-1.1-1.05-1.94-1.58-2.91
		c-0.65-1.21-1.38-2.37-2.41-3.3c-0.44-0.45-0.86-0.93-1.46-1.19c-2.22-1.33-4.63-1.87-7.21-1.74c-0.88,0.05-1.75-0.03-2.59-0.34
		c-0.29-0.13-0.57-0.29-0.65-0.63c0.52-0.7,0.55-1.5,0.44-2.32c0.09-0.78-0.19-1.61,0.33-2.32c0.25,0,0.51,0,0.77-0.01
		c0.59,0.96,0.56,2.04,0.58,3.11c0,0.12,0.01,0.24,0.01,0.36c0.19-0.1,0.05-0.25,0.04-0.36c-0.06-0.63,0-1.27-0.16-1.9
		c-0.12-0.43-0.11-0.87,0.26-1.22c0.31,0,0.62,0,0.94,0c0.08,0.08,0.15,0.16,0.2,0.25c0.17,0.45,0.06,0.93,0.18,1.38
		c0.07,0.27,0.14,0.58,0.52,0.31c0.07-0.08,0.14-0.15,0.21-0.22c0.07-0.08,0.14-0.15,0.22-0.23c0.29-0.25,0.53-0.56,0.91-0.67
		c0.38-0.06,0.77,0.05,0.97,0.33c0.74,1.05,1.34,0.58,1.94-0.11c1.6-1.02,1.65-1.04,2.99,0.21c0.42,0.39,0.73,0.34,1.11-0.01
		c0.43-0.4,0.83-0.86,1.49-0.86c0.08,0.01,0.15,0.04,0.22,0.07c0.56,0.18,0.87,0.96,1.46,0.86c0.56-0.09,0.76-0.86,1.29-1.15
		c0.22-0.04,0.44-0.02,0.67-0.02c0.6,0.09,1.08,0.55,1.82,0.26c0.74-0.29,0.94,0.41,0.93,1.01c0,0.85-0.56,1.46-1.02,2.12
		c-0.53,0.74-1.15,0.9-1.97,0.52c-0.39-0.18-0.68,0.12-0.95,0.35c-0.6,0.51-1.3,0.6-1.87,0.12c-1.03-0.87-1.86-0.6-2.69,0.24
		c-0.15,0.09-0.3,0.16-0.47,0.21c-0.29,0.06-0.56-0.01-0.82-0.14c-0.59-0.3-1.07-1.14-1.89-0.43c-0.96,0.3-1.91,0.64-2.92,0.22
		c-0.05-0.02-0.11-0.13-0.18-0.03c0.08,0.02,0.15,0.07,0.22,0.08c1.56,0.29,3.17,0.4,4.64,1.11c1.91,1.1,3.44,2.6,4.52,4.52
		c0.97,1.73,2.06,3.31,3.89,4.27c0.7,0.36,1.13,0.93,0.5,1.75c-0.24,0.31-0.08,0.6,0.16,0.86c0.93,0.99,1.92,1.91,2.82,2.93
		c0.55,0.63,1.39,0.07,2.06,0.33c0.37,0.13,0.65,0.35,0.81,0.71c0.06,0.19,0.05,0.37,0,0.56c-0.1,0.31-0.27,0.58-0.49,0.8
		c-0.53,0.53-0.64,1.11-0.45,1.84c0.37,1.51,0.19,2.99-0.4,4.43c-0.47,0.65-1.02,1.19-1.8,1.45c-0.42,0.11-0.85,0.22-1.23,0.44
		c-0.21,0.12-0.5,0.26-0.36,0.53c0.59,1.11-0.32,1.59-0.9,2.19c-0.38,0.4-0.87,0.69-1.3,1.04c-0.26,0.2-0.56,0.34-0.87,0.46
		c-0.34,0.06-0.53,0.36-0.81,0.52c-0.44,0.28-0.88,0.54-1.32,0.81c-0.1,0.06-0.23,0.16-0.14,0.27c0.08,0.1,0.22,0.04,0.33-0.02
		c0.47-0.24,0.65-0.81,1.14-1.03c0.29-0.19,0.5-0.5,0.87-0.55c0.35-0.16,0.7-0.15,1.06-0.05c1.56,0.56,2.34,1.8,2.84,3.28
		c-0.02,0.18-0.11,0.33-0.25,0.44c-1.33,1.5-1.37,1.52-2.84,0.76c-0.24-0.16-0.46-0.34-0.55-0.62c-0.01-0.65,0.34-1.13,0.73-1.59
		c0.17-0.2,0.5-0.37,0.25-0.7c-0.18-0.24-0.49-0.27-0.77-0.22c-0.5,0.1-0.87,0.4-1.11,0.84c-0.24,0.45,0.05,0.75,0.33,1.05
		c0.19,0.2,0.4,0.39,0.53,0.65c0.15,0.25,0.35,0.43,0.59,0.59c0.91,0.87,1.96,1.64,1.93,3.09c-0.24,0.64-0.88,0.86-1.36,1.26
		c-0.09,0.07-0.19,0.12-0.29,0.17c-0.3,0.39-0.76,0.57-1.13,0.87c-0.18,0.15-0.42,0.36-0.29,0.59c0.2,0.33,0.5,0.07,0.74-0.01
		c0.66-0.22,0.32-0.92,0.61-1.33c0.1-0.14,0.26-0.21,0.39-0.31c0.86-0.69,1.78-0.97,2.82-0.43c0.3,0.16,0.6,0.16,0.89,0
		c0.2-0.11,0.57-0.26,0.49-0.44c-0.19-0.42-0.38,0.07-0.58,0.11c-0.31,0.07-0.61,0.11-0.93,0.01c-0.73-0.35-1.16-0.89-1.09-1.73
		c0.02-0.12,0.05-0.23,0.1-0.33c0.3-0.64,1.26-0.4,1.5-1.13c0.11-0.14,0.25-0.21,0.44-0.17c1.05,0.64,1.61,1.62,1.94,2.76
		c0.15,0.52,0.17,1.04-0.3,1.43c-0.48,0.4-0.44,0.88-0.31,1.41c0.24,0.95,0.67,1.79,1.2,2.59c0.54,0.83,1.24,1.57,1.41,2.61
		c0.02,0.15,0.09,0.35,0.27,0.33c0.2-0.02,0.17-0.24,0.17-0.39c0.01-1.04,0.33-2.05,0.24-3.1c0-0.25-0.03-0.5-0.01-0.74
		c0.08-1.45,0.38-2.87,0.55-4.31c0.29-0.8,0.14-1.64,0.21-2.46c0.01-0.13,0.05-0.25,0.1-0.37c0.04-0.05,0.07-0.11,0.11-0.16
		c0.11-0.1,0.22-0.11,0.34-0.03c-0.01,2.43-0.03,4.85-0.04,7.28c-0.13,0.77-0.16,1.53,0.02,2.3c0,0.26,0,0.52,0,0.78
		c-0.39,0.46-0.16,1-0.22,1.51c0.13,1.31-0.28,2.65,0.22,3.94c0,0.27,0.01,0.53,0.01,0.8c-0.22,0.37-0.53,0.48-0.93,0.32
		c-0.68-0.69-0.79-1.64-1.19-2.46c-0.07-0.15-0.13-0.3-0.21-0.45c-0.05-0.09-0.1-0.19-0.15-0.29c-0.48-0.64-0.39-1.69-1.42-1.92
		c-0.53,0.09-1,0.38-1.5,0.54c-2.24,0.96-2.28,1.13-0.73,3.08c0.75,0.94,1.53,1.85,2.33,2.74c0.84,0.92,1.65,2.02,3.2,1.64
		c0.24-0.06,0.42,0.19,0.6,0.35c-0.16,0.66,0.56,1.82-0.96,1.71c-0.06-0.07-0.14-0.14-0.22-0.19c-0.33-0.13-0.65-0.28-0.98-0.43
		c-2.45-1.12-3.81-3.34-5.37-5.35c-0.44-0.57-0.86-1.15-1.35-1.68c-0.34-0.53-1.04-0.53-1.44-1.03c-0.33-0.42-0.55-0.01-0.68,0.27
		c-0.62,1.43-1.22,2.88-1.15,4.49c0.06,1.22-0.14,2.39-0.6,3.52c-0.09,0.16-0.23,0.26-0.38,0.36c-0.34,0.02-0.68,0.03-1.02,0.05
		c-0.09-0.13-0.18-0.11-0.27,0c-0.57-0.01-1.14-0.03-1.72-0.04c-0.39-0.27-0.77-0.26-1.14,0.03c-0.72,0-1.43,0.01-2.15,0.01
		c-0.19-0.3-0.02-0.57,0.15-0.75c0.78-0.79,0.66-1.59,0.09-2.43c-0.04-0.24-0.01-0.47,0.08-0.7c0.26-0.45,0.65-0.71,1.13-0.87
		c0.31-0.06,0.6-0.02,0.79,0.26c0.1,0.22,0.06,0.43-0.01,0.66c-0.07,0.21-0.48,0.4-0.16,0.58c0.12,0.07,0.21-0.43,0.31-0.67
		c0.05-0.22,0.13-0.44,0.12-0.67c0.04-0.97,0.28-1.9,0.58-2.81c0.17-0.44,0.33-0.88,0.46-1.33c0.69-1.54,1.14-3.1,0.9-4.84
		c-0.07-0.51-0.2-0.23-0.36-0.16c-0.31,0.13-0.62,0.25-0.84-0.11c-0.21-0.34-0.12-0.7,0.08-1.02c0.28-0.46,0.72-0.74,1.18-0.98
		c0.41-0.22,0.75-0.49,0.71-1.01c-0.05-0.61,0.22-1.4-0.6-1.64c-0.8-0.24-0.7,0.69-1.08,1.01c-1.28,1.11-1.12,2.37-0.64,3.82
		c0.5,1.53,0.33,3.16,0.26,4.76c-0.16,0.96-1.02,1.29-1.64,1.84c-0.58,0.34-1.19,0.59-1.83,0.78c-0.47,0.11-0.95,0.11-1.42,0.03
		c-0.77-0.12-2.35,0.83-2.64,1.57c-0.11,0.29,0.05,0.34,0.24,0.4c0.27,0.08,0.52,0.18,0.75,0.36c0.7,0.58,0.97,1.25,0.51,2.1
		c-0.45,0.83-1.22,1.12-2.33,0.89c-0.11-0.06-0.2-0.14-0.29-0.22c-0.08-0.08-0.15-0.18-0.21-0.27c-0.2-0.31-0.26-0.68-0.39-1.02
		c-0.77,0.12-0.91,0.87-1.34,1.32C477.61,310.55,477.39,310.98,477.03,311.29z"/>
	<path style="fill-rule:evenodd;clip-rule:evenodd;fill:#302D2F;" d="M455.13,278.93c6.06,2.17,9.97,6.45,12.17,12.4
		c0.42,1.12,0.43,2.21-0.11,3.35c-0.59,1.23-0.44,2.58-0.1,3.86c0.47,1.76,0.15,2.21-1.69,2.23c-2.91,0.03-5.8-0.1-8.69-0.42
		c-1.33-0.15-1.56-0.84-1.3-1.84c0.57-2.22,1.78-4.28,1.67-6.67c-0.02-0.44,0.44-0.37,0.72-0.47c0.77-0.26,1.3-0.79,1.1-1.6
		c-0.22-0.88-0.34-2.03-1.69-1.93c-0.77,0.06-1.38-0.34-2.07-0.5C455.13,284.52,455.13,281.72,455.13,278.93z"/>
	<path style="fill-rule:evenodd;clip-rule:evenodd;fill:#D98A49;" d="M488.02,254.97c0.33-0.29,0.67-0.56,0.99-0.86
		c0.48-0.47,0.85-0.53,1.38,0.03c0.83,0.88,1.75,1.32,2.6-0.05c0.16-0.25,0.44-0.55,0.76-0.17c0.43,0.49,0.89,0.74,1.38,0.15
		c0.67-0.81,1.58-1.52,1.28-2.78c-0.06-0.24-0.32-0.56-0.47-0.37c-0.89,1.16-1.33-0.01-1.93-0.32c-0.09-0.05-0.12-0.1-0.1-0.16
		c0.03-0.06,0.05-0.09,0.08-0.09c0.97-0.01,1.94-0.01,2.91-0.02c0.74,0.68,0.57,1.59,0.59,2.44c0.02,0.47,0.03,0.95-0.01,1.42
		c0.01,1.96-0.19,3.93,0.12,5.88c0.09,0.42,0.13,0.85,0.11,1.28c0,1.08-0.13,2.17,0.09,3.24c0.14,0.5,0.07,1.03,0.24,1.53
		c0.06,0.31,0.07,0.62-0.07,0.91c-0.51,0.43-0.62-0.1-0.75-0.36c-1.36-2.77-3.83-4.75-5.3-7.46c-0.9-1.67-2.56-2.68-3.95-3.93
		C487.94,255.18,487.95,255.07,488.02,254.97z"/>
	<path style="fill-rule:evenodd;clip-rule:evenodd;fill:#F16B4D;" d="M466.64,310.38c0,0.31,0,0.63,0,0.94
		c-0.64-0.01-1.29-0.02-1.93-0.03c-0.38-0.16-0.92-0.06-1.08-0.6c-0.18-0.34-0.1-0.81-0.52-1.04c-0.56-0.13-0.73,0.3-0.93,0.66
		c-0.18,0.33-0.26,0.73-0.58,0.98c-1.07,0.39-1.86-0.7-2.89-0.52c-0.33-0.1-0.75,0.04-0.95-0.35c-0.51-0.96-1.24-1.73-2.01-2.47
		c-0.48-0.46,0.1-0.53,0.32-0.72c1.1-0.48,2.24-0.9,2.64-2.21c0.13-0.42,0.49-0.35,0.8-0.33c1.59,0.08,3.18,0.15,4.73,0.6
		c2.15,0.62,2.26,0.77,2.19,3.08C466.69,309.01,466.33,309.73,466.64,310.38z"/>
	<path style="fill-rule:evenodd;clip-rule:evenodd;fill:#D78949;" d="M501.45,271.48c-0.24-0.18-0.48-0.36-0.72-0.54
		c-1.36-0.15-1.38-0.17-0.9-1.01c0.28-0.19,0.56-0.39,0.75-0.69c0.15-0.28,0.32-0.55,0.62-0.7c1.04-0.3,1.29-1.16,1.3-2.06
		c0.06-4.83,0.04-9.65,0.02-14.48c0-0.55-0.41-1.07-0.12-1.63c2.4-0.19,2.4-0.19,2.4,2.23c-0.01,4.22-0.03,8.44-0.04,12.65
		c-0.58,1.64-1.08,3.31-1.84,4.89c-0.33,0.69-0.2,1.47-0.21,2.23c-0.02,1.24,0.33,2.55-0.49,3.69c-0.13,0.07-0.25,0.06-0.37-0.02
		c-0.2-1.2-0.08-2.43-0.25-3.64C501.56,272.09,501.67,271.76,501.45,271.48z"/>
	<path style="fill-rule:evenodd;clip-rule:evenodd;fill:#242021;" d="M500.78,269.54c-0.14,0.36-0.49,0.4-0.79,0.52
		c-1.44,0.8-2.37-0.25-2.49-1.9c0.02-0.36,0.02-0.74,0.33-1.01c-0.01-0.32-0.02-0.65-0.03-0.97c-0.15-0.73-0.01-1.5-0.3-2.21
		c-0.08-0.88,0.11-1.78-0.12-2.66c0-0.36,0-0.73,0-1.09c-0.3-1.37-0.06-2.75-0.14-4.13c-0.04-0.67,0.12-1.35-0.11-2
		c-0.07-1.25-0.15-2.5-0.22-3.75c0.31,0.01,0.63,0.02,0.94,0.03c0.45,0.46,0.54,1.05,0.59,1.65c0.27,3.58,0.47,7.16,0.49,10.74
		c0.01,1.52,0.22,3.02,0.3,4.53c0.02,0.33,0,0.86,0.38,0.86c0.31,0,0.21-0.53,0.23-0.83c0.11-1.76-0.14-3.51-0.3-5.25
		c-0.31-3.41-0.5-6.84-0.83-10.25c-0.05-0.52-0.06-1.04,0.33-1.47c0.31-0.01,0.62-0.01,0.93-0.02c0.22,0.23,0.34,0.51,0.41,0.81
		c0.48,2.13,0.21,4.3,0.44,6.45c0.25,2.38,0.39,4.78,0.32,7.18C501.09,266.38,501.21,267.98,500.78,269.54z"/>
	<path style="fill-rule:evenodd;clip-rule:evenodd;fill:#8A4B30;" d="M467.59,289.73c-1.73-3.66-4.17-6.75-7.38-9.22
		c-1.52-1.17-3.3-1.73-5.07-2.33c0-0.15-0.01-0.3-0.01-0.45c2.61-0.05,5.18-0.41,7.67-1.19c1.12-0.35,1.81-0.22,2.17,0.94
		c-1.14,0.49-2.37,0.58-3.57,0.81c-0.31,0.06-0.67,0.04-0.79,0.41c-0.11,0.32,0.17,0.52,0.36,0.7c0.66,0.62,1.17,1.44,2.17,1.62
		c0.69,0.16,1.23,0.59,1.8,0.95c2.82,1.52,2.73,4.29,2.97,6.92C467.94,289.2,467.87,289.51,467.59,289.73z"/>
	<path style="fill-rule:evenodd;clip-rule:evenodd;fill:#242021;" d="M461.83,250.36c0.26,0.01,0.52,0.02,0.79,0.02
		c0.46,0.62,0.44,1.37,0.49,2.07c0.08,0.91,0.44,1.37,1.38,1.44c2.95,0.24,5.9,0.3,8.85-0.08c0.19-0.02,0.56,0.07,0.52-0.28
		c-0.02-0.18-0.33-0.15-0.52-0.16c-2.32-0.02-4.64-0.01-6.95-0.01c-0.56,0-1.12,0.02-1.68-0.03c-0.69-0.06-1.28-0.25-1.3-1.1
		c-0.02-0.8,0.24-1.46,1.1-1.62c1.02-0.19,2.06-0.27,3.1-0.27c1.12-0.01,2.24,0.01,3.36,0c1.29,0,2.58,0,3.86,0
		c0.03,0.75-0.51,0.92-1.08,1.04c-2.71,0.12-5.41,0.3-8.11,0.53c-0.09,0.01-0.16,0.03-0.21,0.09c0.09-0.03,0.18-0.07,0.28-0.08
		c2.71-0.03,5.41,0.04,8.1-0.05c0.63-0.02,1.27-0.07,1.87,0.23c0.13,0.08,0.23,0.2,0.29,0.33c0.28,1.77,0,2.22-1.75,2.55
		c-2.08,0.38-4.17,0.59-6.29,0.51c-0.44,0.05-0.87,0.01-1.31-0.01c-1.22-0.15-2.45-0.23-3.66-0.44c-0.51-0.09-1.03-0.17-1.31-0.7
		C461.54,253.02,461.13,251.67,461.83,250.36z"/>
	<path style="fill-rule:evenodd;clip-rule:evenodd;fill:#D98A49;" d="M503.78,311.08c0.02,0.08,0.04,0.16,0.05,0.24
		c-3.19-0.01-6.38-0.02-9.57-0.04c-0.93-1.8-0.81-3.52,0.35-5.18c0.91-1.3,1.52-1.32,2.43-0.03c0.9,1.27,1.87,2.46,3.05,3.5
		C501.16,310.53,502.48,310.73,503.78,311.08z"/>
	<path style="fill-rule:evenodd;clip-rule:evenodd;fill:#FBED04;" d="M455.12,260.93c1.28-0.41,2.24-1.29,3.21-2.19
		c0.8-0.74,1.11-0.63,1.47,0.27c0.03,0.08,0.13,0.2,0.21,0.2c1.78,0.05,1.67,1.6,2.09,2.69c0.25,0.66-0.07,0.99-0.85,0.97
		c-1.15-0.03-2.3,0.12-3.41,0.45c-1.07,0.32-1.96,0.87-2.47,1.9c-0.06,0.11-0.13,0.13-0.21,0.02c0-0.69,0-1.38-0.01-2.08
		c0.02-0.08,0.06-0.14,0.12-0.2c0.25-0.26,0.66-0.22,0.91-0.47c-0.31-0.24-0.74,0.13-1.03-0.22
		C455.13,261.83,455.13,261.38,455.12,260.93z"/>
	<path style="fill-rule:evenodd;clip-rule:evenodd;fill:#D98B4A;" d="M457.69,250.39c0.24,2.2-0.01,4.46,0.75,6.6
		c0.04,0.11,0.04,0.33,0,0.34c-1.29,0.53-1.66,2.35-3.31,2.37c0-2.59,0.08-5.18-0.04-7.76c-0.06-1.35,0.29-1.9,1.66-1.64
		C457.05,250.36,457.37,250.36,457.69,250.39z"/>
	<path style="fill-rule:evenodd;clip-rule:evenodd;fill:#F06B4D;" d="M467.86,308.67c-0.15-1.37-0.25-2.62-1.54-3.68
		c-0.95-0.78-0.4-2.35,0.09-3.36c0.4-0.83,1.31-0.39,1.94,0.15c0.27,0.24,0.53-0.06,0.78-0.05c0.66,0.04,1.35,0.34,1.17,1.07
		c-0.71,2.81-0.58,5.8-1.74,8.51c-0.16-0.01-0.32-0.02-0.47-0.03C467.76,310.44,468.15,309.53,467.86,308.67z"/>
	<path style="fill-rule:evenodd;clip-rule:evenodd;fill:#7C803A;" d="M499.04,250.36c0.37,4.77,0.75,9.53,1.1,14.3
		c0.09,1.23,0.07,2.47,0.07,3.71c0,0.38-0.19,0.77-0.56,0.84c-0.46,0.08-0.58-0.38-0.62-0.72c-0.18-1.34-0.41-2.68-0.44-4.03
		c-0.12-4.7-0.2-9.41-0.74-14.09C498.25,250.36,498.64,250.36,499.04,250.36z"/>
	<path style="fill-rule:evenodd;clip-rule:evenodd;fill:#F06E50;" d="M503.91,306.29c0.29-0.07,0.58-0.14,0.88-0.21
		c0,1.18,0,2.35,0.01,3.53c-0.69-0.5-1.38,0.52-2.2-0.14c-2.18-1.74-3.85-3.88-5.38-6.17c-0.28-0.42-0.15-0.75,0.31-0.96
		c0.58-0.26,1.16-0.52,1.74-0.77c0.6,0.14,0.6,0.69,0.72,1.11C501,306.26,500.74,305.66,503.91,306.29z"/>
	<path style="fill-rule:evenodd;clip-rule:evenodd;fill:#D88A4A;" d="M469.62,311.28c0.52-2.56,1.05-5.12,1.57-7.68
		c0.06-0.3,0.01-0.75,0.36-0.81c0.37-0.06,0.43,0.41,0.55,0.68c0.78,1.77,1.67,3.51,1.03,5.58c-0.25,0.82,0.89,1.38,0.73,2.27
		C472.44,311.31,471.03,311.29,469.62,311.28z"/>
	<path style="fill-rule:evenodd;clip-rule:evenodd;fill:#31368E;" d="M467.59,250.6c-0.91,0.09-1.82,0.23-2.74,0.27
		c-1.08,0.05-1.17,0.81-1.15,1.57c0.03,0.95,0.83,0.53,1.28,0.54c2.96,0.04,5.91,0.02,8.87,0.04c0.41,0,1.03-0.14,1.05,0.47
		c0.02,0.59-0.55,0.66-1.06,0.71c-3.34,0.33-6.68,0.38-10.03,0.02c-0.76-0.08-1.05-0.32-1.04-1.09c0.01-0.91-0.1-1.82-0.16-2.74
		c0.06-0.01,0.12-0.03,0.18-0.06c1.55-0.19,3.11-0.06,4.67-0.07C467.64,250.32,467.68,250.44,467.59,250.6z"/>
	<path style="fill-rule:evenodd;clip-rule:evenodd;fill:#F5BC7D;" d="M504.76,271.49c0,4.88,0,9.75,0,14.63
		c-0.89,0.22-1.09-0.52-1.3-1.06c-0.7-1.8-1.03-3.7-0.88-5.6c0.19-2.29,0.58-4.56,1.24-6.78
		C503.98,272.18,503.99,271.52,504.76,271.49z"/>
	<path style="fill-rule:evenodd;clip-rule:evenodd;fill:#FCCA17;" d="M483.46,304.82c0.54,0,1.08-0.01,1.61-0.01
		c1.07-0.13,0.85,0.66,0.71,1.15c-0.34,1.21-0.67,2.44-1.42,3.5c-0.35,0.48-0.7,0.96-0.93,1.51c-0.06,0.1-0.12,0.2-0.2,0.29
		c-1.53,0.01-3.05,0.02-4.58,0.03c0.07-0.75,0.35-1.33,1.2-1.43l0.01,0.01c0.06,0.08,0.13,0.16,0.2,0.23
		c0.95,0.57,1.61,0.03,2.13-0.65c0.57-0.75,0.18-1.42-0.44-1.97c-0.29-0.19-0.49-0.46-0.31-0.79
		C481.91,305.86,482.31,304.92,483.46,304.82z"/>
	<path style="fill-rule:evenodd;clip-rule:evenodd;fill:#E6A05C;" d="M502.16,276.04c0.29-1.45,0.34-2.9,0.13-4.38
		c-0.06-0.45-0.05-1.03,0.18-1.39c1.01-1.57,1-3.59,2.29-5.02c0,1.2,0,2.4,0,3.6c-1.31,3.72-2.03,7.55-2.25,11.48
		c-0.15,2.62,0.44,5,2.25,6.99c0,0.24,0,0.48,0,0.72c-0.51,0.31-0.83-0.08-1.14-0.36c-0.94-0.85-1.62-1.86-1.96-3.1
		c-0.53-1.92-0.62-3.85-0.09-5.79C501.59,277.84,501.58,276.88,502.16,276.04z"/>
	<path style="fill-rule:evenodd;clip-rule:evenodd;fill:#ECAB68;" d="M504.76,287.32c-2.04-1.03-2.43-3.06-2.54-4.95
		c-0.24-4.32,0.49-8.56,1.93-12.67c0.12-0.34,0.26-0.68,0.61-0.86c0,0.88,0,1.76,0,2.64c-0.88,1.29-0.91,2.82-1.26,4.27
		c-0.7,2.9-0.8,5.79,0.09,8.68c0.21,0.69,0.44,1.35,1.17,1.68C504.76,286.52,504.76,286.92,504.76,287.32z"/>
	<path style="fill-rule:evenodd;clip-rule:evenodd;fill:#9A5533;" d="M491.67,311.28c0.05-0.07,0.11-0.13,0.17-0.2
		c0.78-0.33,0.96-0.93,0.87-1.73c-0.25-2.14,1.05-3.76,1.95-5.5c0.31-0.6,0.97-0.62,1.56-0.23c1.12,1.44,2.23,2.89,3.38,4.3
		c0.91,1.12,2.08,1.95,3.32,2.67c-0.74,0.58-1.37,0.11-1.94-0.27c-1.43-0.96-2.61-2.19-3.58-3.62c-0.35-0.53-0.68-1.08-1.15-1.51
		c-0.45-0.4-0.81-0.35-1.17,0.18c-1.14,1.68-1.78,3.43-1.03,5.47c0.08,0.22-0.08,0.37-0.27,0.47
		C493.07,311.29,492.37,311.28,491.67,311.28z"/>
	<path style="fill-rule:evenodd;clip-rule:evenodd;fill:#BF7642;" d="M500.04,251.06c-0.02-0.24-0.04-0.48-0.07-0.72
		c0.81,0.01,1.62,0.02,2.43,0.03c0.36,0.73,0.49,1.49,0.49,2.31c-0.02,4.47,0.01,8.93-0.02,13.4c-0.01,1.3-0.1,2.64-1.89,2.77
		c-0.21-0.22-0.13-0.47,0.02-0.65c0.93-1.09,0.97-2.46,0.97-3.74c0.01-3.9,0.24-7.81-0.16-11.7
		C501.64,251.1,501.67,251.1,500.04,251.06z"/>
	<path style="fill-rule:evenodd;clip-rule:evenodd;fill:#E49D58;" d="M501.92,278.92c-0.66,2.63-0.51,5.18,1.01,7.5
		c0.44,0.68,0.96,1.37,1.83,1.62c0.01,0.48,0.03,0.96,0.04,1.44c-0.05,0.02-0.1,0.04-0.15,0.04c-1.46-0.39-2.3-1.52-3.06-2.67
		c-0.93-1.42-1.29-3.07-1.42-4.75C500.07,280.66,500.79,279.43,501.92,278.92z"/>
	<path style="fill-rule:evenodd;clip-rule:evenodd;fill:#BB6D3B;" d="M493.77,311.29c-0.54-2.17-0.21-4.15,0.98-6.08
		c0.57-0.92,0.97-1.09,1.65-0.25c1.2,1.48,2.18,3.14,3.66,4.38c0.83,0.69,1.63,1.44,2.84,1.24c0.34,0.08,0.68,0.16,0.87,0.5
		c-3.35,0.31-4.89-2.16-6.65-4.31c-0.28-0.34-0.47-0.74-0.75-1.08c-0.33-0.39-0.72-0.52-1.09-0.03c-1.12,1.5-1.86,3.07-0.95,4.95
		c0.13,0.26,0,0.46-0.09,0.67C494.09,311.29,493.93,311.29,493.77,311.29z"/>
	<path style="fill-rule:evenodd;clip-rule:evenodd;fill:#F3B36E;" d="M494,250.36c0,0.08,0.01,0.16,0.02,0.24
		c-0.21,0.02-0.43,0.03-0.64,0.05c-0.96,0.54-1.98,0.29-2.99,0.25c-0.18,0.06-0.43,0.07-0.54,0.2c-1,1.2-1.84,1.81-2.99,0
		c-0.49-0.77-1.3,0.2-1.94,0.48c-0.26,0.15-0.55,0.18-0.79,0.02c-0.67-0.46-1.41-0.66-2.2-0.76c-0.23-0.03-0.45-0.16-0.4-0.47
		C485.68,250.37,489.84,250.36,494,250.36z"/>
	<path style="fill-rule:evenodd;clip-rule:evenodd;fill:#4FA046;" d="M461.35,269.1c0.16,0,0.32,0,0.49-0.01
		c0.4,1.65-0.39,2.92-1.55,3.86c-1.27,1.03-2.44,2.15-3.61,3.28c-0.29,0.28-0.61,0.51-1.02,0.58c-0.18,0.05-0.35,0.08-0.5-0.06
		c0-0.16,0-0.33,0-0.49c0.73-1.51,1.95-2.59,3.21-3.64c0.95-0.79,1.95-1.58,2.12-2.92C460.56,269.09,461.05,269.29,461.35,269.1z"/>
	<path style="fill-rule:evenodd;clip-rule:evenodd;fill:#DC9350;" d="M473.83,251.13c0.46-0.09,0.82-0.31,0.99-0.77
		c0.72,0.01,1.43,0.01,2.15,0.02c0.26,1.68,0.02,2.04-1.29,1.95c-3.43-0.08-6.86-0.15-10.29-0.23c0.68-0.59,1.54-0.35,2.29-0.38
		C469.74,251.65,471.82,251.74,473.83,251.13z"/>
	<path style="fill-rule:evenodd;clip-rule:evenodd;fill:#B5B335;" d="M459.71,250.34c0.23,2.01,0.49,4.02,0.69,6.03
		c0.03,0.32,0.29,0.86-0.34,0.96c-0.64,0.11-0.68-0.38-0.72-0.83c-0.21-2.05-0.43-4.1-0.64-6.15
		C459.04,250.35,459.37,250.35,459.71,250.34z"/>
	<path style="fill-rule:evenodd;clip-rule:evenodd;fill:#ED6C4E;" d="M455.14,288.34c0.55,0.06,1.09,0.15,1.64,0.16
		c0.63,0.01,0.95,0.41,1.13,0.89c0.14,0.38,0.29,0.88-0.34,1.06c-0.55,0.25-1.37-0.16-1.64,0.81c-0.11,0.38-0.53,0.12-0.77-0.1
		C455.15,290.22,455.15,289.28,455.14,288.34z"/>
	<path style="fill-rule:evenodd;clip-rule:evenodd;fill:#B0CF35;" d="M455.84,269.34c0.8,0,1.6,0,2.4,0c0.4,0.19,0.5,0.53,0.31,0.88
		c-0.78,1.46-1.74,2.8-2.85,4.03c-0.13,0.15-0.34,0.19-0.55,0.11c0-0.24,0-0.48,0-0.72c0.12-0.29,0.14-0.62,0.32-0.88
		C456.24,271.68,456.35,270.54,455.84,269.34z"/>
	<path style="fill-rule:evenodd;clip-rule:evenodd;fill:#6CAC43;" d="M461.35,269.1c-0.17,0.1-0.45,0.18-0.48,0.31
		c-0.67,3.32-4.11,4.33-5.71,6.86c0-0.24,0-0.48,0-0.72c0.75-1.44,1.91-2.52,3.08-3.61c0.79-0.74,1.56-1.49,1.63-2.67
		C460.33,268.95,460.85,269.07,461.35,269.1z"/>
	<path style="fill-rule:evenodd;clip-rule:evenodd;fill:#F1795B;" d="M456.07,307.22c-0.09,0.13-0.18,0.25-0.27,0.38
		c1.29,0.76,1.64,2.38,2.91,3.17c-0.11,0.03-0.23,0.05-0.34,0.08c-1.77,0.27-2.06,0.08-3.21-2.16c0-0.46,0-0.92-0.01-1.38
		C455.46,307.28,455.76,307.25,456.07,307.22z"/>
	<path style="fill-rule:evenodd;clip-rule:evenodd;fill:#E77A5F;" d="M455.16,291.16c0.87-0.02,1.4-1.2,2.42-0.71
		c-1.13,0.05-1.43,0.63-1.34,1.72c0.1,1.31-0.37,2.56-0.89,3.76c-0.06,0.13-0.12,0.14-0.19,0
		C455.15,294.35,455.15,292.75,455.16,291.16z"/>
	<path style="fill-rule:evenodd;clip-rule:evenodd;fill:#EE6D22;" d="M483.23,311.26c-0.02-0.06-0.02-0.11-0.02-0.17
		c0.65-0.69,1.24-1.42,1.73-2.24c0.19-0.32,0.35-0.74,0.87-0.63c1.71,1.3-0.04,2.11-0.44,3.11
		C484.66,311.31,483.94,311.28,483.23,311.26z"/>
	<path style="fill-rule:evenodd;clip-rule:evenodd;fill:#CCDA2E;" d="M455.84,269.34c0.9,0.79,0.93,2.16,0.06,3.37
		c-0.23,0.32-0.49,0.61-0.74,0.92c-0.01-1.43-0.02-2.86-0.03-4.29C455.37,269.34,455.6,269.34,455.84,269.34z"/>
	<path style="fill-rule:evenodd;clip-rule:evenodd;fill:#9AC53B;" d="M455.16,274.35c1.3-1.18,2.12-2.72,3.11-4.14
		c0.21-0.31,0.15-0.59-0.03-0.88c0.4,0,0.8,0,1.2,0c0.6,0.86-0.06,1.45-0.52,1.97c-1.11,1.22-2.39,2.27-3.33,3.65
		c-0.09,0.13-0.26,0.17-0.42,0.13C455.16,274.83,455.16,274.59,455.16,274.35z"/>
	<path style="fill-rule:evenodd;clip-rule:evenodd;fill:#E7A35E;" d="M481.53,250.37c1.22,0.14,2.33,0.62,3.39,1.22
		c-0.69,0.88-1.36,1.85-2.25,0.15c-0.16-0.31-0.52-0.5-0.93-0.42c-0.61-0.05-1.04-0.32-1.17-0.95
		C480.88,250.37,481.21,250.37,481.53,250.37z"/>
	<path style="fill-rule:evenodd;clip-rule:evenodd;fill:#83B940;" d="M455.16,275.07c1.31-1.51,2.61-3.02,3.93-4.52
		c0.32-0.36,0.38-0.77,0.34-1.22c0.14-0.02,0.29-0.04,0.43-0.06c0.55,0.72,0.06,1.29-0.36,1.76c-1.42,1.54-2.89,3.02-4.35,4.53
		C455.16,275.39,455.16,275.23,455.16,275.07z"/>
	<path style="fill-rule:evenodd;clip-rule:evenodd;fill:#E98A71;" d="M455.16,308.69c0.37,0.36,0.86,0.66,1.07,1.09
		c0.46,0.95,1.18,1.2,2.13,1.07c-0.14,0.06-0.28,0.15-0.42,0.18C455.09,311.63,455,311.56,455.16,308.69z"/>
	<path style="fill-rule:evenodd;clip-rule:evenodd;fill:#C42024;" d="M455.12,305.08c0.57-0.17,1.15-0.32,1.71-0.5
		c0.26-0.09,0.51-0.28,0.72,0.07c0.18,0.3,0.03,0.53-0.16,0.75c-0.59,0.69-1.34,1.12-2.23,1.29
		C455.15,306.15,455.13,305.61,455.12,305.08z"/>
	<path style="fill-rule:evenodd;clip-rule:evenodd;fill:#ACAA38;" d="M478.65,250.35c0.12,1.22,0.25,2.44,0.36,3.67
		c0.03,0.32,0.27,0.8-0.31,0.82c-0.44,0.01-0.5-0.41-0.52-0.79c-0.07-1.23-0.17-2.45-0.25-3.68
		C478.17,250.36,478.41,250.36,478.65,250.35z"/>
	<path style="fill-rule:evenodd;clip-rule:evenodd;fill:#D99F63;" d="M461.83,250.36c0,1.38,0,2.75-0.01,4.13
		c-0.58,0.16-0.4-0.3-0.48-0.57c-0.13-0.46-0.23,0.22-0.36,0.01c-0.12-1.2-0.25-2.39-0.37-3.59
		C461.02,250.35,461.42,250.36,461.83,250.36z"/>
	<path style="fill-rule:evenodd;clip-rule:evenodd;fill:#EB7924;" d="M477.03,311.29c0.32-1.25,1.29-2.07,2.06-3.01
		c0.1-0.13,0.28-0.38,0.46-0.15c0.09,0.12,0.02,0.37,0.02,0.56c-0.18,1.1-0.75,1.96-1.65,2.6
		C477.63,311.29,477.33,311.29,477.03,311.29z"/>
	<path style="fill-rule:evenodd;clip-rule:evenodd;fill:#E56C50;" d="M455.16,300.84c0.56-0.03,0.77,0.19,0.71,0.78
		c-0.05,0.46-0.03,0.97,0.13,1.4c0.34,0.9,0.02,1.24-0.85,1.27C455.15,303.14,455.16,301.99,455.16,300.84z"/>
	<path style="fill-rule:evenodd;clip-rule:evenodd;fill:#2A2424;" d="M463.29,309.44c0.88,0.06,0.33,0.8,0.56,1.17
		c0.02,0.24,0.08,0.48-0.06,0.7c-0.51,0-1.02-0.01-1.54-0.01C461.96,310.32,462.42,309.77,463.29,309.44z"/>
	<path style="fill-rule:evenodd;clip-rule:evenodd;fill:#D79051;" d="M480.56,250.37c0.39,0.32,0.78,0.63,1.17,0.95
		c-0.23,0.24-0.47,0.49-0.7,0.73c-0.08,0.07-0.15,0.15-0.21,0.24l-0.01,0.01c-1.11-0.07-0.65-1.23-1.18-1.71
		c-0.01-0.08-0.03-0.16-0.04-0.25C479.91,250.36,480.24,250.36,480.56,250.37z"/>
	<path style="fill-rule:evenodd;clip-rule:evenodd;fill:#3F7A46;" d="M504.78,305.28c-0.86-0.34-0.43-1.05-0.44-1.61
		c-0.02-0.82,0.02-1.63,0.03-2.45c0.13-0.12,0.27-0.12,0.4,0C504.77,302.57,504.77,303.93,504.78,305.28z"/>
	<path style="fill-rule:evenodd;clip-rule:evenodd;fill:#242021;" d="M467.62,250.36c-1.61-0.01-3.21-0.02-4.82-0.03
		c2.64-0.32,5.29-0.37,7.93,0.02C469.69,250.56,468.65,250.54,467.62,250.36z"/>
	<path style="fill-rule:evenodd;clip-rule:evenodd;fill:#A4B3D5;" d="M455.39,268.54c-0.08,0.01-0.17,0.01-0.25,0.02
		c-0.01-0.55-0.01-1.1-0.02-1.64c0.4,0,0.8,0.01,1.2,0.01C456.83,268.13,456.7,268.36,455.39,268.54z"/>
	<path style="fill-rule:evenodd;clip-rule:evenodd;fill:#F5A120;" d="M477.93,311.29c0.55-0.87,1.1-1.74,1.65-2.6
		c0.09,0.39,0.18,0.78,0.27,1.17c-0.4,0.48-0.8,0.96-1.2,1.43C478.41,311.29,478.17,311.29,477.93,311.29z"/>
	<path style="fill-rule:evenodd;clip-rule:evenodd;fill:#D4563E;" d="M463.29,309.44c-0.55,0.5-0.94,1.09-1.03,1.85
		c-0.22,0-0.44,0-0.66,0C461.9,310.44,461.67,309.09,463.29,309.44z"/>
	<path style="fill-rule:evenodd;clip-rule:evenodd;fill:#CD7F43;" d="M475.68,252.33c1.19-0.15,1.4-0.95,1.29-1.95
		c0.07-0.03,0.13-0.03,0.2-0.01c0,0.87,0,1.75,0,2.62c-0.68,0.53-1.21,0.58-1.38-0.45C475.73,252.48,475.7,252.41,475.68,252.33z"/>
	<path style="fill-rule:evenodd;clip-rule:evenodd;fill:#39362A;" d="M455.14,262.28c0.64-0.01,1.69-0.69,1.79-0.16
		c0.16,0.91-1.02,0.77-1.67,1.01c-0.04,0.01-0.08,0.02-0.11,0.03C455.14,262.87,455.14,262.58,455.14,262.28z"/>
	<path style="fill-rule:evenodd;clip-rule:evenodd;fill:#494867;" d="M467.62,250.36c1.04,0,2.07-0.01,3.11-0.01
		c0.08,0.01,0.15,0.01,0.23,0.01c-1.09,0.47-2.24,0.14-3.36,0.23C467.6,250.52,467.61,250.44,467.62,250.36z"/>
	<path style="fill-rule:evenodd;clip-rule:evenodd;fill:#A8C880;" d="M504.77,301.22c-0.13,0-0.27,0-0.4,0
		c0.17-0.45-0.42-1.13,0.42-1.39C504.78,300.29,504.77,300.75,504.77,301.22z"/>
	<path style="fill-rule:evenodd;clip-rule:evenodd;fill:#DB9177;" d="M467.86,308.67c0.45,0.84,0.11,1.75,0.22,2.62l-0.11,0.04
		l-0.12-0.02C467.85,310.44,467.86,309.55,467.86,308.67z"/>
	<path style="fill-rule:evenodd;clip-rule:evenodd;fill:#994B2B;" d="M504.79,299.05c-0.48-0.76-0.28-1.53-0.02-2.3
		C504.77,297.52,504.78,298.29,504.79,299.05z"/>
	<path style="fill-rule:evenodd;clip-rule:evenodd;fill:#C0C1C2;" d="M487.52,311.32c0.37-0.56,0.74-0.81,1.14-0.03
		C488.28,311.3,487.9,311.31,487.52,311.32z"/>
	<path style="fill-rule:evenodd;clip-rule:evenodd;fill:#EC947B;" d="M463.79,311.3c0.02-0.23,0.04-0.46,0.06-0.7
		c0.13,0.42,0.61,0.41,0.86,0.69C464.4,311.3,464.1,311.3,463.79,311.3z"/>
	<path style="fill-rule:evenodd;clip-rule:evenodd;fill:#79A044;" d="M455.16,276.76c0.15-0.01,0.31-0.01,0.46-0.02
		c0.23-0.14,0.49-0.16,0.75-0.15c0.1,0.04,0.18,0.1,0.24,0.19c-0.45,0.4-0.98,0.21-1.48,0.2
		C455.12,276.91,455.13,276.83,455.16,276.76z"/>
	<path style="fill-rule:evenodd;clip-rule:evenodd;fill:#AAA141;" d="M455.15,265.25c0.07,0,0.14,0,0.21-0.02
		c-0.01,0.25,0.08,0.53-0.22,0.69C455.14,265.69,455.15,265.47,455.15,265.25z"/>
	<path style="fill-rule:evenodd;clip-rule:evenodd;fill:#B18273;" d="M455.15,295.94c0.06,0.01,0.13,0,0.19,0
		c0.02,0.18,0.02,0.37-0.19,0.45C455.15,296.24,455.15,296.09,455.15,295.94z"/>
	<path style="fill-rule:evenodd;clip-rule:evenodd;fill:#F0F0F1;" d="M490.38,311.33c0.05-0.08,0.09-0.16,0.14-0.24
		c0.05,0.08,0.09,0.16,0.14,0.24C490.56,311.33,490.47,311.33,490.38,311.33z"/>
	<path style="fill-rule:evenodd;clip-rule:evenodd;" d="M470.95,271c0.29-1.1,0.63-2.19,0.5-3.35c0.03-0.77-0.36-1.43-0.51-2.15
		c-0.39-1.93,0.22-3.31,1.9-4.37c1.31-0.83,2.81-1.11,4.27-1.52c0.89-0.2,1.77-0.41,2.63-0.75c1.74-0.7,3.89,0.1,5.29,1.84
		c1.14,1.41,1.58,3.03,1.35,4.81c-0.25,1.99-1.91,3.33-4.44,3.65c-0.44,0.05-0.88,0.03-1.31,0.11c-0.55,0.11-1.04,0.37-1.08,0.96
		c-0.08,1.05-0.69,1.43-1.63,1.49c-0.85,0.61-2.11-0.3-2.85,0.75c-0.05,0.03-0.09,0.07-0.13,0.1c-0.15,0.05-0.3,0.05-0.45,0.07
		c-0.4,0.06-0.94-0.01-1.03,0.53c-0.11,0.63,0.35,0.88,0.89,1c1.15-0.1,2.32-0.07,3.44-0.43c0.26-0.08,0.46-0.06,0.62,0.16
		c0.48,0.22,0.43,0.61,0.34,1.02c-0.58,2.7-3.7,4.05-6.03,2.59C470.66,276.2,469.77,272.94,470.95,271z"/>
	<path style="fill-rule:evenodd;clip-rule:evenodd;fill:#302D2F;" d="M467.6,274.59c0.91-1.01,1.41-0.72,1.91,0.45
		c0.62,1.46,1.49,2.82,2.85,3.75c2.79,1.9,5.86,1.09,7.44-1.92c0.22-0.41,0.35-1.15,0.81-1.05c0.45,0.1,0.39,0.84,0.45,1.35
		c0.2,1.97,1.03,3.83,0.97,5.87c-0.04,1.35-0.46,2.29-1.78,2.77c-2.35,0.85-4.7,1.55-7.2,0.57c-0.27-0.11-0.51-0.21-0.64-0.49
		c-0.79-0.61-0.41-1.47-0.38-2.19c0.06-1.42-0.04-2.69-1.01-3.88c-1.05-1.29-2.04-2.64-3.02-3.99
		C467.73,275.47,467.25,275.15,467.6,274.59z"/>
	<path style="fill-rule:evenodd;clip-rule:evenodd;fill:#F06D4F;" d="M485.22,271.26c0.28-1.3,1.24-2,2.31-2.58
		c1.74-0.94,3.71-1.17,5.59-1.64c0.47-0.12,0.74,0.2,1.05,0.43c1.38,1.05,2.46,2.39,3.47,3.76c0.47,0.64,0.91,0.95,1.68,0.59
		c0.27-0.13,0.66-0.27,0.84,0.08c0.15,0.3-0.19,0.51-0.41,0.65c-0.86,0.54-0.86,1.25-0.46,2.06c0.06,0.33-0.01,0.65-0.2,0.9
		c-1.08,1.44-2.02,2.94-2.66,4.63c-0.25,0.13-0.51,0.26-0.76,0.39c-0.58-0.28-0.3-0.74-0.21-1.13c0.13-0.58,0.36-1.13,0.53-1.7
		c0.46-1.55,0.48-3.04-0.55-4.4c-0.14-0.24-0.24-0.5-0.32-0.77c-0.34-1.15-1.1-1.71-2.3-1.69c-0.4,0.01-0.8,0.01-1.19-0.08
		c-0.47-0.16-0.9-0.38-1.1-0.87c0.08-0.79,0.77-0.8,1.31-1c0.14-0.05,0.3,0,0.42-0.1c-0.13-0.14-0.29-0.1-0.45-0.1
		c-0.91-0.02-1.62,0.36-2.16,1.08c-0.29,0.55-0.68,0.94-1.31,1.13c-0.84,0.25-1.59,0.69-2.21,1.34c-0.21,0.22-0.43,0.58-0.78,0.39
		c-0.24-0.14-0.1-0.51-0.12-0.78C485.23,271.66,485.25,271.46,485.22,271.26z"/>
	<path style="fill-rule:evenodd;clip-rule:evenodd;fill:#8B4B31;" d="M497.61,288.51c-0.68-1.21-1.35-2.43-2.65-3.1
		c-0.27-0.19-0.55-0.38-0.52-0.78c0.63-0.54,1.28-1.05,1.87-1.63c0.37-0.37,1.1-0.81,0.01-1.29c-0.51-0.22-0.18-0.51,0.13-0.65
		c0.61-0.27,1.15-0.71,1.87-0.71c0.52,0.78,0.01,1.49-0.27,2.13c-0.47,1.08-0.42,1.95,0.43,2.82c0.58,0.59,1,1.34,1.56,1.97
		c1.56,1.75,2.28,3.83,2.19,6.13c-0.07,1.66,0.04,3.16,1.56,4.19c-0.08,1.23-0.14,2.46-0.24,3.68c-0.02,0.21-0.16,0.5-0.32,0.58
		c-0.28,0.13-0.44-0.19-0.49-0.4c-0.49-2.34-2.58-3.91-2.97-6.29c-0.05-0.33-0.42-0.76,0.01-0.98c1.74-0.9,0.55-1.9,0.1-2.82
		c-0.25-0.52-0.72-0.94-1.1-1.41C498.11,289.71,497.71,289.23,497.61,288.51z"/>
	<path style="fill-rule:evenodd;clip-rule:evenodd;fill:#F06B4D;" d="M480.56,286.68c1.95-1.32,2.64-3.27,2.08-5.96
		c-0.14-0.69-0.27-1.42-0.58-2.05c-0.59-1.22-0.08-1.33,0.93-1.07c0.18,0,0.36-0.01,0.52,0.1c0.45,0.97,0.22,2.04,0.49,3.05
		c0.32,1.19,0.8,2.26,1.68,3.12c1.49,1.46,3.08,1.22,4.71,0.26c0.11-0.06,0.22-0.1,0.34-0.13c0.26-0.03,0.5-0.01,0.67,0.21
		c-0.16,0.79-0.88,0.98-1.46,1.28c-2,1.04-3.63,2.43-4.56,4.53c-0.25,0.57-0.74,0.87-1.32,0.88c-0.96,0.01-1.9-0.25-2.76-0.66
		c-0.49-0.23-0.57-0.72-0.52-1.24c0.06-0.67,0.15-1.35-0.23-1.97C480.51,286.92,480.52,286.79,480.56,286.68z"/>
	<path style="fill-rule:evenodd;clip-rule:evenodd;fill:#D98C4B;" d="M501.92,278.92c-2.3,2.87-1.38,7.42,2,9.99
		c0.25,0.19,0.49,0.4,0.73,0.61l-0.04-0.01c-0.23,0.11-0.17,0.32-0.18,0.51c-0.06,0.79,0.13,1.58-0.11,2.36
		c0.07,1.54-0.37,3.02-0.51,4.54c-1.13-0.34-1.69-1.09-1.66-2.29c0.02-0.72-0.05-1.44,0-2.16c0.16-2.37-1.31-4.01-2.5-5.79
		c-0.16-0.23-0.35-0.43-0.53-0.65c-1.95-2.46-1.57-4.84,1.09-6.61c0.69-0.46,1.1-1.01,1.13-1.85c0.02-0.56,0.08-1.12,0.56-1.52
		c0.08,0,0.16,0,0.24,0C502.08,277,502,277.96,501.92,278.92z"/>
	<path style="fill-rule:evenodd;clip-rule:evenodd;fill:#EF6323;" d="M473.38,289.73c0.03-0.05,0.08-0.06,0.13-0.03
		c0.26-0.16,0.6,0,0.84-0.23c1.83-0.22,2.9,0.43,3.59,2.16c0.19,0.47,0.24,0.79-0.43,0.71c-0.12-0.01-0.24-0.01-0.36-0.01
		c-0.7,0.02-1.22,0.33-1.5,0.99c-0.13,0.31-0.01,0.55,0.26,0.71c0.63,0.37,1.21,0.17,1.82-0.08c0.31-0.12,0.54-1.06,0.94-0.29
		c0.34,0.66,1.01,1.49-0.06,2.2c-0.51,0.33-0.94,0.96-1.54,0.06c-0.25-0.38-0.7-0.64-1.05-0.95c-0.19,0.08-0.08,0.21-0.04,0.32
		c0.66,0.79,1.51,1.37,0.76,2.73c-0.5,0.9-1.21,0.83-1.88,1.14c-0.72,0.33-1.38,0.65-1.7-0.48c-0.08-0.28-0.43-0.36-0.72-0.25
		c-0.45,0.16-0.7,0.49-0.79,0.96c-0.14,0.77-0.01,2.14-1,1.87c-0.94-0.25-0.14-1.44,0-2.21c0.04-0.2,0.05-0.39,0.07-0.59
		c0.27-1.06,1.16-1.77,2.23-1.78c0.38,0.17,0.77,0.53,1.2,0.16c0.52-0.46-0.02-0.96-0.02-1.45c0.45-1,0.56-2.1,0.92-3.13
		c0.15-0.48,0.24-0.94-0.23-1.31C474.25,290.63,473.26,290.83,473.38,289.73z"/>
	<path style="fill-rule:evenodd;clip-rule:evenodd;fill:#268A45;" d="M466.39,274.56c-2.33,1.11-4.69,2.11-7.36,1.98
		c-0.32,0.21-0.73-0.04-1.04,0.23c-0.46,0-0.92,0.01-1.37,0.02l-0.07-0.02c0.51-0.96,1.52-1.36,2.36-1.85
		c2.31-1.34,3.94-3.05,4.15-5.83c0.05-0.02,0.11-0.03,0.17-0.02c0.31-0.21,0.72,0.02,1.03-0.21c0.54-0.01,1.09-0.02,1.63-0.03
		c0.25-0.15,0.53-0.09,0.8-0.09c0.41,0.16,0.35,0.52,0.27,0.81c-0.4,1.44-0.5,2.89-0.3,4.37
		C466.67,274.15,466.54,274.37,466.39,274.56z"/>
	<path style="fill-rule:evenodd;clip-rule:evenodd;fill:#595E5C;" d="M476.95,255.35c2.54,0.62,5.24-0.05,7.75,0.97
		c0.89,0.36,1.71,0.82,2.55,1.27c-0.54,0.76-1.02,0-1.53-0.05c-2.67-0.9-5.24-1.37-8.08-0.18c-2.09,0.87-4.44,1.15-6.54,2.15
		c-1.35,0.64-2.57,1.41-3.39,2.71c-0.36,0.58-0.84,1.06-1.36,1.5c-0.32,0.27-0.64,0.65-1.14,0.33c-0.37-1.26,0.47-2.04,1.18-2.86
		c0.3-0.35,0.66-0.67,0.99-1c0.21-0.48,0.5-0.92,0.95-1.2c1.86-1.16,3.59-2.51,5.62-3.39C474.91,255.17,475.91,255.07,476.95,255.35
		z"/>
	<path style="fill-rule:evenodd;clip-rule:evenodd;fill:#2E2C2E;" d="M490.88,262.12c0.72,0.88,1.51,1.75,1.66,2.92
		c0.15,1.15,0.93-0.09,1.22,0.38c0,0.23,0.2,0.37,0.24,0.57c-2.15,0.29-4.22,0.86-6.24,1.65c-0.32-0.39-0.06-0.75,0.06-1.11
		c1-2.89-0.13-6.31-3.88-7.52c-0.38-0.12-0.79-0.21-0.77-0.74c0.45-0.38,0.91-0.13,1.36,0c1.45,0.41,2.82,1.08,4.26,1.53
		C489.94,260.15,490.22,261.31,490.88,262.12z"/>
	<path style="fill-rule:evenodd;clip-rule:evenodd;fill:#914F32;" d="M497.85,268.13c0.06,1.37,0.59,2.22,2.14,1.94
		c-0.88,1.23,0.83,0.3,0.73,0.88c-1.34,0.34-2.36,0.03-3.17-1.23c-0.57-0.89-1.46-1.57-2.21-2.34c-0.34-0.34-0.49-0.66,0.07-0.92
		c0.61-0.28,0.57-0.74,0.08-0.96c-2.66-1.23-3.74-3.8-5.28-6c-0.89-1.27-2.14-2.23-3.41-3.13c0.59-0.89,1.35-0.52,1.99-0.17
		c1.39,0.77,2.44,1.93,3.3,3.24c1.14,1.73,2.21,3.48,3.7,4.96C496.81,265.4,497.25,266.83,497.85,268.13z"/>
	<path style="fill-rule:evenodd;clip-rule:evenodd;fill:#EB2024;" d="M478.26,304.24c0.93,0.29,1.81-0.12,2.72-0.14
		c0.18,0,0.36,0.08,0.55,0.12c-0.06,0.14-0.08,0.31-0.18,0.41c-1.74,1.8-3.13,3.96-5.35,5.27c-0.51,0.3-1.03,0.74-1.62,0.2
		c-0.61-0.57-0.29-1.16,0.05-1.73c0.89-1.48,1.66-3.05,3.23-3.98c0.1-0.06,0.16-0.19,0.26-0.21
		C478.02,304.16,478.15,304.22,478.26,304.24z"/>
	<path style="fill-rule:evenodd;clip-rule:evenodd;fill:#F9CA17;" d="M483.22,298.12c0.05,0.05,0.06,0.11,0.03,0.17
		c0.08,0.18,0.03,0.4,0.22,0.53c1.22-0.21,2.07,0.47,2.91,1.19c0.43,0.37,0.51,0.81,0.2,1.27c-0.25,0.38-0.58,0.71-1.08,0.6
		c-0.5-0.11-0.52-0.52-0.5-0.95c0.03-0.57,0.3-1.27-0.62-1.41c-0.87-0.14-1.16,0.55-1.5,1.13c-0.27,0.45,0.01,1.25-0.91,1.28
		c-0.27,0.01-0.3,0.41-0.14,0.59c1.02,1.16-0.03,0.84-0.61,0.89c-1.02,0.08-2.03,0.43-3.07-0.01c-1.34-0.57-1.86-1.7-1.2-2.74
		c-0.07-0.16-0.02-0.21,0.14-0.14c0.98,0.27,0.55-0.42,0.46-0.74c-0.18-0.63-0.33-1.17,0.61-1.19c0.13-0.12,0.12-0.27,0.08-0.43
		l-0.1-0.01c-0.08-0.07-0.1-0.16-0.07-0.25c0.09-0.11,0.24-0.16,0.3-0.3c-0.02-0.07-0.02-0.13,0.02-0.19
		c0.82,0.27,1.03,1.09,1.52,1.66c0.02,0.11,0.01,0.21-0.02,0.32c-0.11,0.19-0.26,0.35-0.39,0.52c-0.26,0.35-0.59,0.64-0.8,1.04
		c-0.18,0.35-0.4,0.75-0.07,1.1c0.33,0.37,0.77,0.32,1.21,0.15c0.85-0.32,1.25-1.05,1.64-1.79c0.19-0.31,0.24-0.66,0.17-1.02
		c-0.01-0.11,0.01-0.21,0.04-0.31C482.05,298.53,482.44,298.01,483.22,298.12z"/>
	<path style="fill-rule:evenodd;clip-rule:evenodd;fill:#FACC17;" d="M488.32,302.47c-0.32-1.59,0.21-3.27-0.41-4.81
		c-0.61-1.51-0.9-2.85,0.75-3.88c0.12-0.07,0.12-0.31,0.22-0.42c0.34-0.36,0.1-1.43,0.77-1.13c0.51,0.23,1.41,0.36,1.35,1.72
		c-0.06,1.37-0.57,1.73-1.53,2.14c-0.21,0.09-0.4,0.27-0.56,0.44c-0.23,0.25-0.36,0.62-0.17,0.88c0.31,0.41,0.51-0.08,0.75-0.2
		c0.31-0.15,0.62-0.33,0.92-0.5c0.15,0.4-0.15,0.69-0.33,0.93c-0.55,0.73,0.49,1.21,0.21,1.9c-0.42,1.03-0.75,2.1-1.12,3.15
		C488.78,303.05,488.44,303.19,488.32,302.47z"/>
	<path style="fill-rule:evenodd;clip-rule:evenodd;fill:#995532;" d="M475.78,252.54c0.27,0.74,0.87,0.45,1.38,0.45
		c-0.05,0.71,0.65,1.68-0.67,1.95c-1.88,0.41-3.63,1.14-5.24,2.17c-1,0.64-2.01,1.28-3.02,1.91c-1.1,0.38-2.05,1.05-3.06,1.6
		c-0.34,0.19-0.63,0.52-1.08,0.39c-0.38-0.9,0.5-1,0.9-1.41c0.1-0.06,0.2-0.11,0.31-0.14c0.82-0.41,1.42-0.83,1.17-1.99
		c-0.21-0.93,0.56-1.57,1.39-1.83c0.8-0.25-0.48-0.32,0-0.45c2-0.16,4-0.35,6-0.49C475.23,254.62,476.11,254.13,475.78,252.54z"/>
	<path style="fill-rule:evenodd;clip-rule:evenodd;fill:#343334;" d="M490.88,262.12c-1.87-2.66-4.94-2.92-7.68-3.84
		c-1.32,0.27-2.69-0.05-4.01,0.27c-0.27,0.06-0.56,0.04-0.8,0.21c-2.46,0.55-4.99,0.89-7.07,2.55c-0.93,0.75-1.74,1.61-1.91,2.77
		c-0.24,1.6-1.11,2.05-2.55,1.88c-0.73-0.13-1.04-0.43-0.36-1.02c0.86-0.74,1.47-1.69,2.16-2.56c1.74-2.18,4.12-3.22,6.75-3.79
		c1.29-0.28,2.56-0.62,3.81-1.04c1.46-0.49,2.92-0.37,4.37,0.03c1.01,0.28,2.04,0.43,3.07,0.5c0.72,0.05,1.3,0.23,1.83,0.68
		C489.65,259.63,490.38,260.8,490.88,262.12z"/>
	<path style="fill-rule:evenodd;clip-rule:evenodd;fill:#FCF3DE;" d="M493.99,299.36c-0.64,0.03-1.41-0.33-2.21-0.09
		c-0.29,0.08-0.72,0.04-0.6-0.45c0.06-0.25-0.09-0.83,0.58-0.6c0.87,0.3,0.58-0.76,1.08-0.96c1.81-0.72,3.56-1.66,5.43-2.16
		c1.12-0.3,0.84,1.17,1.28,1.78c0.38,0.52-0.05,0.64-0.49,0.76C497.38,298.09,495.99,299.39,493.99,299.36z"/>
	<path style="fill-rule:evenodd;clip-rule:evenodd;fill:#276D3C;" d="M466.39,274.56c-0.49-1.93-0.07-3.83,0.24-5.73
		c-0.07-0.05-0.1-0.09-0.07-0.14c0.02-0.05,0.05-0.07,0.07-0.07c1.02-0.09,2.04-0.17,3.06-0.26c0.81-0.07,1.13,0.11,0.9,1.08
		C470,271.86,468.56,273.49,466.39,274.56z"/>
	<path style="fill-rule:evenodd;clip-rule:evenodd;fill:#894A30;" d="M470.76,285.35c1.78,2.51,4.36,2.17,6.91,1.93
		c0.48-0.04,1.04-0.52,1.41,0.07c0.42,0.66,0.32,1.46,0.29,2.22c0,0.08-0.15,0.15-0.23,0.22c-0.62-0.86-1.64,0.11-2.39-0.6
		c-0.89-0.83-2.03-0.52-3.04-0.09c-1.19,0.51-2.39,0.88-3.69,0.86c-0.46-0.69,0.03-1.07,0.52-1.29c0.94-0.43,0.87-0.85,0.24-1.55
		C470.31,286.62,469.85,285.94,470.76,285.35z"/>
	<path style="fill-rule:evenodd;clip-rule:evenodd;fill:#DA904E;" d="M460.99,253.94c0.36-0.44-0.1-1.47,0.35-1.4
		c0.56,0.09,0.15,1,0.26,1.53c0.03,0.16-0.09,0.41,0.23,0.42c1.61,0.23,3.22,0.47,4.82,0.7c0.42,0.79-0.3,3.49-1.02,3.81
		c-0.86-0.79-1.79-0.29-2.69-0.13c-0.38,0.07-0.82,0.39-1.03-0.13c-0.25-0.62,0.4-0.69,0.75-0.85c0.39-0.18,0.81-0.28,1.27-0.15
		c0.22,0.06,0.54,0.64,0.72,0.01c0.12-0.39-0.17-0.71-0.55-0.8c-0.67-0.17-1.35-0.09-1.99,0.19c-0.55,0.23-0.76,0.16-0.8-0.49
		C461.27,255.74,461.1,254.84,460.99,253.94z"/>
	<path style="fill-rule:evenodd;clip-rule:evenodd;fill:#121011;" d="M477.92,271.71c0.83-0.24,1.29-0.64,1.26-1.66
		c-0.03-0.92,0.83-1.2,1.64-1.19c0.93,0.01,1.82-0.1,2.69-0.42c3.86-1.39,2.8-6.03,0.85-8.04c-1.9-1.96-4.03-1.4-6.22-0.88
		c-0.38,0.09-0.78,0.13-1.17,0.2c-0.24,0.16-0.48,0.16-0.73,0c0.87-0.59,2.08-0.16,2.89-0.96c1.77-0.82,3.45-0.73,5.03,0.48
		c1.24,1.25,2.37,2.5,2.73,4.36c0.51,2.64-1.09,5.22-3.75,5.72c-1.35,0.25-2.77,0.31-3.47,1.88
		C479.39,271.81,478.57,271.76,477.92,271.71z"/>
	<path style="fill-rule:evenodd;clip-rule:evenodd;fill:#C77B41;" d="M501.92,276.04c-0.14,1.74-0.52,3.17-2.29,4.21
		c-1.83,1.07-1.75,3.76-0.13,5.7c1.97,2.35,3.46,4.88,2.88,8.09c-0.25,1.39,0.75,2.02,1.43,2.86c-0.01,0.23-0.02,0.46-0.03,0.7
		c-1.3-0.38-2.07-1.15-1.87-2.6c0.55-3.91-1.32-6.89-3.77-9.58c-0.91-1-0.93-1.89-0.4-3.02c0.3-0.63,0.39-1.36,0.57-2.05
		c0.56-0.4,1.12-0.8,1.68-1.21c1.36-1.6,1.27-3.54,1.27-5.45c0-0.6-0.08-1.19,0.15-1.76c0.01-0.15,0.03-0.3,0.04-0.45
		c0.79,1.07,0.62,2.31,0.61,3.52C502.06,275.35,501.97,275.7,501.92,276.04z"/>
	<path style="fill-rule:evenodd;clip-rule:evenodd;fill:#9A5633;" d="M497.85,268.13c-0.46-0.19-0.52-0.67-0.76-1.02
		c-2.34-3.46-4.64-6.95-7.53-10c-0.72-0.76-1.62-1.34-2.76-0.74c-1.73-0.41-3.46-0.81-5.19-1.22c-0.25-0.06-0.77,0.17-0.65-0.36
		c0.07-0.31,0.53-0.62,0.87-0.35c1.12,0.88,2.2,0.25,3.29,0.02c0.72-0.15,1.26,0.37,1.91,0.49c0.23,0.07,0.47,0.14,0.7,0.2
		c0.09-0.08,0.18-0.07,0.26,0.02c2.15,1.18,3.83,2.9,4.98,5.01c1.37,2.52,3.87,4.23,4.86,6.99
		C497.84,267.48,497.84,267.8,497.85,268.13z"/>
	<path style="fill-rule:evenodd;clip-rule:evenodd;fill:#424442;" d="M488.51,258.76c-3.62-0.36-7.16-2.03-10.91-0.38
		c-1.65,0.73-3.53,0.8-5.23,1.55c-1.72,0.76-2.91,2.03-4.03,3.45c-0.51,0.65-0.92,1.41-1.68,1.84c-0.9,0.51,0.25,0.45,0.21,0.73
		c-0.6,0.1-1.01-0.12-1.19-0.71c0.1-0.34,0.03-0.7,0.28-1.01c2.13-2.64,4.46-4.95,7.94-5.79c1.93-0.47,3.87-0.89,5.73-1.65
		c1.57-0.64,3.14,0.04,4.69,0.31c0.51,0.09,1.01,0.2,1.52,0.23c0.5-0.1,0.84,0.65,1.4,0.27
		C487.8,257.82,488.15,258.29,488.51,258.76z"/>
	<path style="fill-rule:evenodd;clip-rule:evenodd;fill:#935032;" d="M470.76,285.35c-0.56,0.86-0.01,1.44,0.56,1.94
		c0.77,0.68,0.58,1.08-0.27,1.43c-0.55,0.23-1.16,0.44-1.05,1.24v0c-0.07,0.07-0.15,0.13-0.23,0.19c-0.07,0.03-0.15,0.05-0.23,0.06
		c-0.08,0.06-0.18,0.09-0.28,0.1c-0.51-0.15-0.36-0.51-0.26-0.85c0.04-0.09,0.09-0.18,0.14-0.26c0.05-0.08,0.12-0.16,0.18-0.23
		c0.03-0.04,0.07-0.07,0.1-0.11c0.06-0.07,0.14-0.14,0.21-0.21c0.04-0.03,0.07-0.07,0.11-0.1c0.07-0.07,0.15-0.13,0.24-0.18
		c0.09-0.06,0.17-0.11,0.27-0.16c0.67-0.42,0.18-0.78-0.05-1.16c-0.06-0.09-0.12-0.19-0.16-0.29c-0.1-0.26-0.2-0.52-0.3-0.79
		c-0.43-1.11-0.31-2.28-0.28-3.43c0.03-1.08-0.49-1.74-1.4-2.12c-0.99-0.43-1.96-0.92-2.82-1.55c-1.04-0.76-2.09-0.6-3.18-0.33
		c-0.7,0.17-0.67,0.6-0.29,1.05c0.34,0.39,0.81,0.63,1.14,1.05c0.14,0.21,0.26,0.41,0.14,0.67c-1.29-0.25-1.93-1.33-2.71-2.19
		c-0.47-0.53-0.04-1.08,0.54-1.09c1.39-0.04,2.68-0.73,4.09-0.55c1.24,1.03,2.8,1.46,4.19,2.2c1.73,0.92,2.1,1.76,1.62,3.68
		C470.62,284.03,470.65,284.69,470.76,285.35z"/>
	<path style="fill-rule:evenodd;clip-rule:evenodd;fill:#4E514E;" d="M485.84,257.32c-1.42,0.58-2.69-0.38-4.06-0.38
		c-0.55,0-1.13-0.22-1.64,0.02c-2.29,1.05-4.79,1.39-7.16,2.17c-2.43,0.8-4.3,2.18-5.73,4.24c-0.47,0.67-1.33,1.02-1.57,1.87
		c-0.23-0.37-0.6-0.68-0.49-1.2c0.91-0.19,1.46-0.92,1.88-1.58c2.27-3.52,6.01-4.18,9.61-5.15c0.34-0.09,0.72-0.11,1.03-0.27
		C480.48,255.56,483.16,256.27,485.84,257.32z"/>
	<path style="fill-rule:evenodd;clip-rule:evenodd;fill:#F3866A;" d="M485.22,271.26c0.1,0.39,0.19,0.78,0.29,1.17
		c0.27-0.28,0.51-0.62,0.83-0.83c0.59-0.39,1.2-0.87,1.86-0.99c0.72-0.13,0.96-0.57,1.23-1.08c0.18,0.21,0.31,0.58,0.67,0.16
		c0.12-0.14,0.36-0.1,0.55,0c0.23,0.43,0.65,0.61,1.04,0.84c-0.16,0.65-0.69,0.9-1.23,1.13c-1.65-0.07-2.92,0.7-4.02,1.83
		c-0.41,0.15-0.71,0.42-0.87,0.84c-0.43,0.56-0.6,1.2-0.64,1.89c-0.08,1.68,0.17,3.33,0.64,4.93c0.46,1.54,2.58,3.06,4.23,2.48
		c0.38-0.13,0.84-0.29,1.27-0.02c0.31,0.53-0.31,0.36-0.43,0.57v0c-2.67,1.16-4.85,0.26-5.95-2.46c-0.56-1.38-1.03-2.77-0.8-4.29
		c0.17-0.23,0.13-0.45-0.05-0.65c-0.22-0.85-0.4-1.7,0.29-2.45c-0.04-0.14-0.13-0.41-0.13-0.42
		C485.35,273.47,484.97,272.22,485.22,271.26z"/>
	<path style="fill-rule:evenodd;clip-rule:evenodd;fill:#FAC617;" d="M470.68,291.89c0.37,0.42,1.75,0.24,0.79,1.49
		c-0.18,0.24,0.56,0.46,0.9,0.24c0.5-0.33,0.88-0.25,1.25,0.16c0.24,0.3,0.3,0.63,0.22,1c-0.03,0.11-0.07,0.22-0.13,0.32
		c-0.03,0.05-0.06,0.09-0.1,0.14c-0.07,0.09-0.15,0.17-0.23,0.26c-0.04,0.04-0.08,0.08-0.12,0.12c-0.08,0.08-0.17,0.15-0.26,0.22
		c-0.09,0.07-0.18,0.14-0.27,0.2c-0.64,0.49-1.24,1.02-1.93,1.45c-0.29,0.13-0.55,0.32-0.83,0.47c-1.09,0.58-2.01-0.02-2.15-1.26
		c-0.21-1.8,0.8-3.09,1.74-4.4C469.79,291.99,470.16,291.61,470.68,291.89z"/>
	<path style="fill-rule:evenodd;clip-rule:evenodd;fill:#E11F25;" d="M458.1,265.98c-0.64,0.07-1.72,0.53-1.85-0.02
		c-0.2-0.84,0.81-1.28,1.52-1.59c2.18-0.94,4.34-0.91,6.38,0.45c0.31,0.21,0.77,0.48,0.64,0.91c-0.12,0.41-0.63,0.24-0.96,0.24
		C461.93,265.99,460.02,265.98,458.1,265.98z"/>
	<path style="fill-rule:evenodd;clip-rule:evenodd;fill:#D28446;" d="M464.98,301.47c0.74,0.65,0.03,1.3-0.01,1.95
		c-2.34,0.23-4.68,0.21-7.02,0.05c-1.18-0.31-1.45-1.12-0.91-2.08c0.5-0.89,1.29,0.1,1.94-0.1c1.57,0.18,3.15,0.03,4.72,0.08
		C464.12,301.38,464.56,301.26,464.98,301.47z"/>
	<path style="fill-rule:evenodd;clip-rule:evenodd;fill:#C94F3A;" d="M480.58,286.83c0.51,0.4,0.75,0.85,0.57,1.55
		c-0.15,0.62-0.46,1.5,0.48,1.7c1.15,0.25,2.67,1.38,3.47-0.1c1.38-2.55,3.35-4.27,5.9-5.47c0.14-0.06,0.24-0.2,0.36-0.3
		c1.13-0.81,2.2-1.73,3.65-1.93c0.39,0.47,0.44,0.53-0.28,0.99c-2.05,1.3-4.14,2.54-6.21,3.82c-1.05,0.64-2.16,1.22-2.73,2.42
		c-0.07,0.09-0.15,0.17-0.17,0.29c-0.01,0.3-0.03,0.6-0.04,0.9c-0.58,0.77-1.44,0.63-2.2,0.55c-0.93-0.09-1.86-0.24-2.8-0.32
		l-0.03-0.02c-0.08-0.07-0.17-0.14-0.26-0.2l0,0.01c-0.22-0.29-0.43-0.59-0.22-0.98l0-0.01c0.09-0.08,0.17-0.17,0.22-0.28
		c0.22-0.55,0.06-1.08-0.04-1.62c-0.05-0.14,0.57-0.08,0.1-0.38c-0.16-0.1-0.38-0.29-0.27-0.57c0.06-0.04,0.13-0.06,0.2-0.05
		C480.39,286.75,480.48,286.75,480.58,286.83z"/>
	<path style="fill-rule:evenodd;clip-rule:evenodd;fill:#359747;" d="M463.04,269.08c0.45,2.12-0.63,3.64-2.14,4.82
		c-1.36,1.07-2.9,1.91-4.37,2.86c-0.31-0.01-0.61-0.01-0.92-0.02c1.73-1.61,3.43-3.24,5.19-4.81c0.88-0.79,0.59-1.92,1.02-2.83
		C462.24,269.09,462.64,269.09,463.04,269.08z"/>
	<path style="fill-rule:evenodd;clip-rule:evenodd;fill:#F6A691;" d="M503.91,306.29c-2.22,0.39-3.56-0.22-3.83-1.98
		c-0.14-0.93-0.53-1.82-0.8-2.73c0.56-0.21,1.12-0.42,1.67-0.64c0.44,0.16,0.51,0.57,0.58,0.95c0.12,0.64,0.49,1.04,1.08,1.27
		c0.06,0.05,0.08,0.11,0.07,0.18c0.04,0.1,0.08,0.19,0.14,0.28C503.18,304.51,503.55,305.4,503.91,306.29z"/>
	<path style="fill-rule:evenodd;clip-rule:evenodd;fill:#FACC17;" d="M491.82,292.08c0.13-0.54,0.11-1.11-0.32-1.36
		c-1.33-0.77-0.14-1.31,0.14-1.91c0.15-0.33,0.38-0.3,0.65-0.03c0.9,0.9,1.84,1.76,2.73,2.67c0.37,0.38,0.68,0.89,0.25,1.38
		c-0.53,0.61-1.29,0.9-2.05,1.15C493.43,292.89,491.69,293.13,491.82,292.08z"/>
	<path style="fill-rule:evenodd;clip-rule:evenodd;fill:#121111;" d="M470.95,271c-0.71,2.9,0.34,5.63,2.53,6.53
		c1.29,0.53,2.58,0.35,3.57-0.57c0.85-0.78,1.69-1.72,1.35-3.08c0.92-0.48,1.05,0,0.91,0.76c-0.33,1.85-2.28,3.87-3.88,4.04
		c-2,0.2-4.19-1.27-4.98-3.35C469.59,273.08,469.73,271.94,470.95,271z"/>
	<path style="fill-rule:evenodd;clip-rule:evenodd;fill:#8A4B30;" d="M496.21,303.61c-0.91-0.1-1.32,0.3-1.74,1.17
		c-0.9,1.87-1.83,3.62-1.32,5.85c0.17,0.73-0.85,0.3-1.32,0.45c0.72-2.85,0.17-5.97,1.78-8.64c0.15-0.25,0.09-0.69,0.54-0.67
		c0.32,0.01,0.51,0.27,0.55,0.55C494.84,303.2,496.15,302.69,496.21,303.61z"/>
	<path style="fill-rule:evenodd;clip-rule:evenodd;fill:#E92124;" d="M496.16,301.95c-0.74-0.09-1.04-0.6-1.29-1.07
		c-0.23-0.43,0.24-0.61,0.51-0.81c1.11-0.82,2.41-1.26,3.72-1.56c0.8-0.19,1.23,0.69,1.55,1.22c0.33,0.54-0.46,0.59-0.81,0.74
		C498.61,301,497.35,301.48,496.16,301.95z"/>
	<path style="fill-rule:evenodd;clip-rule:evenodd;fill:#3F3F3F;" d="M467.6,274.59c0.75,1.44,1.84,2.64,2.84,3.89
		c1.04,1.3,1.71,2.74,2.05,4.33c0.1,0.48-0.24,1.04-0.31,1.58c-0.06,0.51-0.06,1.03,0.22,1.5c-0.51-0.09-0.68-0.34-0.66-0.9
		c0.05-1.18,0.02-2.36-0.07-3.53c-0.08-1.03-0.94-1.49-1.72-1.96c-0.37-0.22-0.77-0.39-1.15-0.58c-0.68-1.04-1.4-2.02-2.5-2.67
		c-0.25-0.15-0.39-0.4-0.38-0.7C466.48,275.23,467.04,274.91,467.6,274.59z"/>
	<path style="fill-rule:evenodd;clip-rule:evenodd;fill:#F27A5D;" d="M495.02,282.27c-1.21,0.65-2.29,1.56-3.65,1.93
		c-0.24,0-0.48,0-0.72,0c0.16-0.16,0.32-0.32,0.48-0.48c0.08-0.24,0.27-0.39,0.46-0.54c2.67-2.11,4.02-4.78,3.54-8.24
		c0.11-0.63,0.07-1.3,0.57-1.79c1.31,1.56,1.05,3.26,0.52,5.02c-0.23,0.77-0.78,1.48-0.54,2.36
		C495.29,281.05,493.92,281.19,495.02,282.27z"/>
	<path style="fill-rule:evenodd;clip-rule:evenodd;fill:#262426;" d="M484.16,259.24c-1.61-0.84-3.3-0.87-5.03-0.48
		c-0.24,0-0.48,0-0.73-0.01c1.52-0.99,3.15-0.83,4.8-0.48c0.86,0.47,1.68,1.02,2.58,1.39c2.6,1.08,3.44,5.29,2.15,7.41
		c-0.1,0.16-0.12,0.37-0.17,0.56c-0.22,0.06-0.52,0.25-0.66,0.17c-0.36-0.21,0-0.48,0.08-0.7c0.98-2.89,0.4-5.25-1.78-7.22
		C485.04,259.55,484.66,259.29,484.16,259.24z"/>
	<path style="fill-rule:evenodd;clip-rule:evenodd;fill:#F27A5D;" d="M483.88,277.44c0.26,1.12,0.42,2.26,0.79,3.35
		c1.08,3.18,2.52,3.98,5.97,3.41c-2.33,1.66-3.86,1.49-5.66-0.61c-1.43-1.65-1.61-3.75-1.55-5.86c0.05-0.11,0.14-0.18,0.25-0.22
		C483.74,277.46,483.81,277.44,483.88,277.44z"/>
	<path style="fill-rule:evenodd;clip-rule:evenodd;fill:#C54C39;" d="M496.44,280.14c-0.02-1.84,1.27-3.05,2.14-4.47
		c0.23-0.36,0.48-0.71,0.72-1.07C500.22,277.25,499.71,279.28,496.44,280.14z"/>
	<path style="fill-rule:evenodd;clip-rule:evenodd;fill:#8A4B31;" d="M464,260.92c1.42-0.63,2.6-1.72,4.13-2.13
		c0.07,0.6-0.34,0.89-0.77,1.15c-1.66,0.39-2.08,1.91-2.82,3.12c-0.17,0.27-0.04,0.81-0.59,0.68c-0.46-0.11-0.92-0.32-0.9-0.94
		c0.02-0.47,0.03-0.95,0.04-1.42C463.34,261.13,463.52,260.73,464,260.92z"/>
	<path style="fill-rule:evenodd;clip-rule:evenodd;fill:#9E5934;" d="M501.41,271.94c0.42,1.96,0.27,3.9-0.19,5.84
		c-0.17,0.74-0.47,1.23-1.23,1.37c0.44-1.65,0.8-3.28,0.15-5C499.73,273.05,501.04,272.72,501.41,271.94z"/>
	<path style="fill-rule:evenodd;clip-rule:evenodd;fill:#F6AD1E;" d="M479.85,299.33c-0.49-0.64-0.98-1.29-1.46-1.93
		c-0.17-0.62,0.35-0.75,0.71-1c0.73,0.06,0.47,0.69,0.63,1.08c0.19,0.48,0.54,0.85,1.05,0.87c0.52,0.02,0.91-0.34,1.07-0.82
		c0.14-0.44,0.09-0.84-0.4-1.13c-0.35-0.2-0.87-0.3-0.87-0.87c0.25-0.15,0.49-0.3,0.74-0.45c1.25,0.15,1.63,1.19,2.13,2.1
		c-0.07,0.32-0.15,0.63-0.22,0.95c-0.52,0.37-1.14,0.6-1.47,1.2C481.12,299.52,480.49,299.77,479.85,299.33z"/>
	<path style="fill-rule:evenodd;clip-rule:evenodd;fill:#9B5835;" d="M457.95,303.47c2.34-0.47,4.68-0.49,7.02-0.05
		c0.09,0.81-0.12,1.17-1.05,0.94c-1.43-0.37-2.91-0.26-4.37-0.27C458.93,304.08,458.35,304,457.95,303.47z"/>
	<path style="fill-rule:evenodd;clip-rule:evenodd;fill:#F3A21F;" d="M470.68,291.89c-1.42,0.69-2.89,3.57-2.59,5.07
		c0.18,0.89,1.11,1.24,1.96,0.71c0.3-0.18,0.5-0.52,0.91-0.51c0.14,0.47-0.17,0.65-0.52,0.8c-0.46,0.04-0.6,0.47-0.88,0.72
		c-0.51,0.15-1.01,0.05-1.52,0c-1.04-2.41-0.49-5.16,1.34-6.69C469.79,291.65,470.19,291.3,470.68,291.89z"/>
	<path style="fill-rule:evenodd;clip-rule:evenodd;fill:#121010;" d="M476.24,259.72c0.24,0,0.48,0,0.73,0
		c-1.22,0.65-2.64,0.7-3.84,1.49c-2.14,1.41-2.34,2.79-1.54,5.56c0.11,0.37,0.34,0.64-0.14,0.87c-0.61-1.68-2-3.29-0.47-5.18
		C472.34,260.78,474.18,260.04,476.24,259.72z"/>
	<path style="fill-rule:evenodd;clip-rule:evenodd;fill:#F6EEDA;" d="M488.86,308.97c0.12-0.28-0.31-0.86,0.15-1.01
		c0.71-0.23,1.43-0.42,2.14-0.65c0.43-0.13,0.25,0.55,0.24,0.85c-0.03,1.13-0.4,2.08-1.71,2.19
		C488.69,310.43,488.73,309.73,488.86,308.97z"/>
	<path style="fill-rule:evenodd;clip-rule:evenodd;fill:#F2EAD7;" d="M474.76,302.51c0.73,0.12,1.78-0.2,1.64,0.92
		c-0.13,1.03-1.09,1.5-2.05,1.43c-1.08-0.09-0.79-1.2-0.83-1.81C473.45,301.99,474.4,302.73,474.76,302.51z"/>
	<path style="fill-rule:evenodd;clip-rule:evenodd;fill:#C74C39;" d="M480.59,290.92c0.68-0.37,1.29-0.4,2.09-0.11
		c0.91,0.33,1.95,0.19,2.92-0.13c0.17,0.24,0.36,0.46,0.69,0.42c0.24-0.04,0.34,0.05,0.29,0.3c-0.32,0.74-1.04,0.71-1.62,0.68
		C483.43,292.01,481.87,291.93,480.59,290.92z"/>
	<path style="fill-rule:evenodd;clip-rule:evenodd;fill:#F7C61A;" d="M483.44,297.17c-0.88-0.53-1.15-1.68-2.13-2.1
		c0.08-0.03,0.16-0.05,0.23-0.08c0.04-0.08,0.1-0.12,0.19-0.12c1.25-0.59,2.42,0.15,3.63,0.26c0.16,0.01,0.29,0.33,0.44,0.51
		c-0.18,0.07-0.35,0.15-0.53,0.2c-0.68,0.17-1.22,0.55-1.64,1.1c-0.05,0.08-0.1,0.15-0.17,0.21L483.44,297.17z"/>
	<path style="fill-rule:evenodd;clip-rule:evenodd;fill:#2C2A2C;" d="M484.55,269.92c0,0,0.16,0.08,0.15,0.1
		c-0.28,0.82-0.45,1.72-0.9,2.43c-0.33,0.52-0.92-0.06-1.39-0.19c-0.26-0.07-0.49-0.26-0.71-0.43c-0.35-0.27-0.87,0.13-1.17-0.31
		c0.45-0.23,0.88-0.5,1.34-0.67C482.73,270.52,483.6,270.25,484.55,269.92z"/>
	<path style="fill-rule:evenodd;clip-rule:evenodd;fill:#EB6124;" d="M493.92,289.23c-1.57-1.42-1.59-2.06-0.11-2.9
		c0.76-0.43,1.36-0.13,1.9,0.41c0.18,0.18,0.33,0.45-0.03,0.54c-0.9,0.24-1.06,1.1-1.53,1.7
		C494.15,289.12,494.14,289.27,493.92,289.23z"/>
	<path style="fill-rule:evenodd;clip-rule:evenodd;fill:#F6A71E;" d="M485.81,308.21c-0.53,0.73-1.04,1.47-1.58,2.19
		c-0.25,0.34-0.48,0.75-1.02,0.68c-0.29-0.48,0.14-0.72,0.36-1c0.93-1.21,1.45-2.61,1.9-4.04c0.15-0.49,0.37-1.03-0.39-1.24
		c0.57-0.27,1.14-0.54,1.72-0.81c0.09,1.27-0.6,2.34-0.93,3.51C485.85,307.74,485.83,307.98,485.81,308.21z"/>
	<path style="fill-rule:evenodd;clip-rule:evenodd;fill:#303288;" d="M465.2,266.72c1.47-0.02,2.93-0.05,4.4-0.04
		c0.31,0,0.82-0.18,0.81,0.39c-0.01,0.43-0.47,0.49-0.81,0.55c-1.21,0.2-2.43,0.33-3.66,0.26
		C465.45,267.64,464.71,267.56,465.2,266.72z"/>
	<path style="fill-rule:evenodd;clip-rule:evenodd;fill:#F2C41C;" d="M475.07,272.46c1.39-0.04,2.78-0.09,4.17-0.12
		c0.18,0,0.49,0.03,0.52,0.11c0.09,0.34-0.27,0.36-0.44,0.4c-1.66,0.38-3.32,0.73-4.99,1.09c-0.48,0.17-0.77-0.03-0.83-0.49
		c-0.06-0.4,0.24-0.6,0.55-0.79c0.32-0.19,0.7,0,1-0.2L475.07,272.46z"/>
	<path style="fill-rule:evenodd;clip-rule:evenodd;fill:#4E5151;" d="M465.92,275.55c1.14,0.89,2.34,1.7,3.03,3.05
		c0.18,0.34,0.03,0.28-0.16,0.32c-1.22-0.44-2.39-0.94-3.22-2.04C465.09,276.23,465.17,275.84,465.92,275.55z"/>
	<path style="fill-rule:evenodd;clip-rule:evenodd;fill:#DE6B25;" d="M494.71,289.56c0.91,0.18,2.01,0.92,2.2-0.84
		c0.03-0.26,0.31-0.03,0.47,0.04c0.35,0.24,0.72,0.47,0.6,1c-0.22,0.54-0.67,0.95-0.84,1.52c0.01,0.07-0.01,0.13-0.06,0.17
		c-0.31,0.43,0.42,1.37-0.69,1.4c-0.06-1.38-1.23-2.07-1.89-3.08C494.51,289.64,494.58,289.57,494.71,289.56z"/>
	<path style="fill-rule:evenodd;clip-rule:evenodd;fill:#EE7254;" d="M484.12,274.34c-0.09,0.82-0.19,1.64-0.29,2.45
		c-0.24-0.01-0.47-0.02-0.71-0.01c-0.85,0.01-1.56-0.27-1.49-1.23c0.07-0.94,0.75-1.31,1.67-1.25
		C483.58,274.32,483.85,274.33,484.12,274.34z"/>
	<path style="fill-rule:evenodd;clip-rule:evenodd;fill:#446BB2;" d="M460.64,266.93c0.8-0.01,1.6-0.03,2.41-0.04
		c0.37,0.31,0.69,0.65,0.7,1.18c-1.05,0.07-2.09,0.14-3.14,0.21c-0.39-0.07-0.79-0.04-1.18-0.04c-0.45,0-0.92,0.02-0.9-0.62
		c0.02-0.65,0.52-0.56,0.95-0.58C459.87,267.02,460.27,267.13,460.64,266.93z"/>
	<path style="fill-rule:evenodd;clip-rule:evenodd;fill:#2A2626;" d="M467.36,259.94c0.26-0.38,0.52-0.77,0.77-1.15
		c2.33-1.44,4.56-3.09,7.3-3.72c0.34-0.08,0.7-0.09,1.06-0.14c0.15,0.14,0.31,0.27,0.46,0.41c-3.91,0.2-6.65,2.72-9.59,4.84
		C467.36,260.11,467.36,260.03,467.36,259.94z"/>
	<path style="fill-rule:evenodd;clip-rule:evenodd;fill:#E82026;" d="M488.98,306.13c0.49-0.45-0.11-1.76,1.03-1.67
		c0.47,0.04,1.44-0.06,1.62,0.72c0.15,0.65-1.53,1.92-2.24,1.84C488.81,306.96,489.01,306.54,488.98,306.13z"/>
	<path style="fill-rule:evenodd;clip-rule:evenodd;fill:#AA6036;" d="M469.28,289.24c0.07,0.32-0.41,0.64,0,0.96
		c0.06,0.05,0.08,0.1,0.06,0.15s-0.04,0.07-0.06,0.07c-1.22,1.38-1.44,0.31-1.68-0.69c-0.12-2.88-0.01-5.84-2.88-7.69
		c0.05-0.04,0.09-0.07,0.14-0.11c1.37,0.2,2.15,1.1,2.63,2.29c0.49,1.22,0.7,2.53,0.67,3.85
		C468.13,288.93,468.4,289.34,469.28,289.24z"/>
	<path style="fill-rule:evenodd;clip-rule:evenodd;fill:#EF6723;" d="M487.56,306.97c-0.16-0.35-0.44-0.2-0.7-0.18
		c-0.73-0.45-0.73-1.1-0.01-2.19c0.67-1.01,1.31-1.29,1.95-0.84c0.03,0.02-0.02,0.14-0.05,0.21c-0.18,1.01-0.37,2.02-0.55,3.04
		c-0.12,0.11-0.25,0.15-0.41,0.15C487.69,307.12,487.61,307.06,487.56,306.97z"/>
	<path style="fill-rule:evenodd;clip-rule:evenodd;fill:#F38921;" d="M480.57,295.53c0.27,0.16,0.52,0.36,0.81,0.47
		c0.78,0.29,1.03,0.86,0.81,1.6c-0.19,0.64-0.73,1.16-1.38,1.13c-0.73-0.03-1.3-0.53-1.44-1.34c-0.06-0.34,0.06-0.72-0.27-0.99
		C479.59,296.11,480.08,295.82,480.57,295.53z"/>
	<path style="fill-rule:evenodd;clip-rule:evenodd;fill:#B16739;" d="M465.63,259c0.32-0.16,0.53-0.5,0.48-0.77
		c-0.2-1.1,0.52-2,0.54-3.04c0.4,0,0.8,0.01,1.2,0.01c0.32,0.11,0.64,0.22,0.96,0.33c-0.29,0.1-0.62,0.15-0.87,0.32
		c-0.78,0.53-1.55,0.95-1.1,2.24c0.45,1.3-0.98,1.18-1.64,1.63c-0.22-0.01-0.43-0.04-0.52-0.29C465,259.29,465.32,259.15,465.63,259
		z"/>
	<path style="fill-rule:evenodd;clip-rule:evenodd;fill:#D28A4E;" d="M488.53,289.81c-0.14,0.01-0.4,0.01-0.67,0.05
		c-0.34,0.05-0.71,0.54-0.94,0.24c-0.27-0.34,0.25-0.67,0.42-0.99c0.15-0.27,0.39-0.5,0.64-0.69c0.57-0.42,1.1-0.9,1.82-1.08
		c-0.19,0.78-0.38,1.56-0.58,2.34C489.14,290,488.91,289.99,488.53,289.81z"/>
	<path style="fill-rule:evenodd;clip-rule:evenodd;fill:#F5EDDA;" d="M491.87,301.7c0.31,0.06,0.77-0.11,0.64,0.36
		c-0.22,0.79-0.33,1.8-1.32,1.94c-0.67,0.09-1-0.59-1.02-1.24C490.12,301.37,491.42,302.2,491.87,301.7z"/>
	<path style="fill-rule:evenodd;clip-rule:evenodd;fill:#EF8322;" d="M488.75,303.97c-0.89-0.56-1.23,0.3-1.64,0.73
		c-0.56,0.58-0.85,1.31-0.24,2.09c-0.33,0.24-0.67,0.48-1,0.72c-0.15-1.29,0.46-2.38,0.93-3.51c0.43-0.59,1.36-0.68,1.52-1.53
		c0.2,0.4,0.55,0.25,0.86,0.22C489.04,303.12,488.89,303.54,488.75,303.97z"/>
	<path style="fill-rule:evenodd;clip-rule:evenodd;fill:#D35627;" d="M496.38,292.84c0.74-0.22,0.3-1.02,0.69-1.4
		c-0.09,0.8,0.34,1.28,0.98,1.64c0.31,0.28,0.93,0.17,0.99,0.78c-0.25,0.21-0.54,0.44-0.84,0.2c-0.97-0.82-1.92-0.34-2.88-0.03
		c-0.06,0.03-0.13,0.06-0.19,0.09c0.03-0.07,0.06-0.13,0.09-0.2C495.6,293.56,495.99,293.2,496.38,292.84z"/>
	<path style="fill-rule:evenodd;clip-rule:evenodd;fill:#E05926;" d="M495,294.35c0.29,1,0,1.63-1.1,1.78
		c-0.29,0.04-0.66,0.39-0.82-0.03c-0.15-0.38-0.21-0.88,0.28-1.16c0.51-0.29,1.04-0.56,1.56-0.84c0.08,0.04,0.12,0.09,0.12,0.15
		C495.04,294.32,495.02,294.35,495,294.35z"/>
	<path style="fill-rule:evenodd;clip-rule:evenodd;fill:#F3A91F;" d="M483.46,304.82c-0.76,0.77-1.99,1.23-1.72,2.67
		c-0.51-0.09-1.02-0.19-1.53-0.28c0.38-0.45,0.69-0.97,1.15-1.32C481.99,305.42,482.2,304.04,483.46,304.82z"/>
	<path style="fill-rule:evenodd;clip-rule:evenodd;fill:#ED7822;" d="M468.04,298.69c0.5-0.61,1.01-0.09,1.52,0
		c-0.06,0.71,0.21,1.5-0.58,2.03c-0.37,0.25-0.58,0.47-0.67-0.17C468.23,299.92,468.13,299.31,468.04,298.69z"/>
	<path style="fill-rule:evenodd;clip-rule:evenodd;fill:#577CBB;" d="M460.64,266.93c-0.2,0.25-0.49,0.19-0.76,0.23
		c-0.41,0.07-1.12-0.27-1.09,0.5c0.03,0.73,0.73,0.34,1.14,0.45c0.22,0.06,0.45,0.11,0.67,0.16c-1.18,0.03-2.37,0.06-3.55,0.09
		c-0.45-0.98,0.14-1.27,0.94-1.43C458.87,266.94,459.76,266.94,460.64,266.93z"/>
	<path style="fill-rule:evenodd;clip-rule:evenodd;fill:#E19E5C;" d="M490.38,250.91c0.95-0.62,1.99-0.2,2.99-0.25
		C492.25,252.4,492.25,252.4,490.38,250.91z"/>
	<path style="fill-rule:evenodd;clip-rule:evenodd;fill:#394A99;" d="M463.74,268.07c-0.37-0.31-0.7-0.65-0.7-1.18
		c0.69-0.36,1.43-0.16,2.15-0.17c-0.11,0.61,0.39,0.83,0.73,1.16C465.2,267.94,464.47,268.01,463.74,268.07z"/>
	<path style="fill-rule:evenodd;clip-rule:evenodd;fill:#EBC221;" d="M486.34,302.89c-0.74,1.06-1.72,1.46-2.97,1.06
		c-0.23-0.07-0.62-0.43-0.18-0.47c1.06-0.1,1.9-0.83,2.95-0.87C486.31,302.62,486.4,302.71,486.34,302.89z"/>
	<path style="fill-rule:evenodd;clip-rule:evenodd;fill:#EFB31C;" d="M473.37,291.15c-0.39,0.31-0.12,1.23-0.88,1.1
		c-0.36-0.06-0.79-0.29-0.85-0.95c-0.07-0.72,0.1-1.01,0.75-1.14C472.92,290.29,473.59,290.27,473.37,291.15z"/>
	<path style="fill-rule:evenodd;clip-rule:evenodd;fill:#E28724;" d="M473.37,295.24c0.07-0.08,0.15-0.17,0.22-0.25
		c0.31-0.24,0.14-0.73,0.49-0.95c0.18-0.04,0.65,0.01,0.19-0.31c-0.8-0.56-0.87-0.86,0.21-1.02c0.2-0.03,0.36-0.3,0.54-0.46
		c0.16,1.16-0.26,2.19-0.69,3.22C473.94,295.68,473.64,295.54,473.37,295.24z"/>
	<path style="fill-rule:evenodd;clip-rule:evenodd;fill:#F3A01F;" d="M470.43,297.96c0.17-0.27,0.35-0.54,0.52-0.8
		c0.6-0.54,1.1-1.21,1.95-1.41c0.31,0.4,0.33,0.79-0.01,1.18c-1.13-0.07-1.5,0.96-2.2,1.53
		C470.61,298.29,470.52,298.13,470.43,297.96z"/>
	<path style="fill-rule:evenodd;clip-rule:evenodd;fill:#D12B27;" d="M492.05,300.02c0.42,0.16,1.35,0.03,1.23,0.3
		c-0.33,0.75-1.26,0.61-1.99,0.7c-0.29,0.04-0.76,0.1-0.64-0.4C490.84,299.89,491.52,300.09,492.05,300.02z"/>
	<path style="fill-rule:evenodd;clip-rule:evenodd;fill:#CC884F;" d="M493.04,285.9c-0.56,0.53-0.58,1.83-1.87,1.35
		c-0.18-0.07-0.34-0.18-0.51-0.27c0.12-0.14,0.21-0.34,0.36-0.42c0.63-0.34,1.27-0.64,1.91-0.95
		C493.11,285.65,493.15,285.74,493.04,285.9z"/>
	<path style="fill-rule:evenodd;clip-rule:evenodd;fill:#ED937C;" d="M502.61,303.16c-0.85,0.44-1.08-0.19-1.29-0.77
		c-0.17-0.46-0.25-0.96-0.37-1.45c0.87-0.36,0.79,0.48,1.02,0.85C502.24,302.21,502.4,302.7,502.61,303.16z"/>
	<path style="fill-rule:evenodd;clip-rule:evenodd;fill:#2B2725;" d="M475.05,272.46c-0.27,0.12-0.55,0.24-0.82,0.37
		c-0.27,0.13-0.64,0.2-0.57,0.63c0.06,0.37,0.31,0.52,0.68,0.48c0,0.07,0.01,0.14,0.01,0.21c-0.9,0.54-1.01-0.17-1.26-0.76
		c-0.3-0.68,0.16-0.78,0.61-0.96C474.16,272.25,474.6,272.28,475.05,272.46z"/>
	<path style="fill-rule:evenodd;clip-rule:evenodd;fill:#BF7D48;" d="M479.63,250.6c0.97,0.17,0.39,1.41,1.18,1.71
		c-0.2,0.33-0.34,0.88-0.73,0.83c-0.45-0.06-0.27-0.66-0.37-1.01C479.57,251.65,479.64,251.11,479.63,250.6z"/>
	<path style="fill-rule:evenodd;clip-rule:evenodd;fill:#EBC221;" d="M486.65,297.31c0.22,0.67,0.44,1.28,0.63,1.89
		c0.05,0.16-0.09,0.39-0.22,0.25c-0.38-0.42-1.23-0.32-1.3-0.93C485.71,298.15,486.05,297.64,486.65,297.31z"/>
	<path style="fill-rule:evenodd;clip-rule:evenodd;fill:#BB7B48;" d="M464.68,259.43c0.17,0.1,0.34,0.19,0.52,0.29l0,0
		c-0.9,0.2-1.3,1.13-2.12,1.43C462.59,259.58,462.63,259.54,464.68,259.43z"/>
	<path style="fill-rule:evenodd;clip-rule:evenodd;fill:#E9AD20;" d="M499.04,293.86c-0.33-0.26-0.66-0.52-0.99-0.78
		c0.3-0.06,0.62-0.07,0.89-0.19c0.31-0.13,0.14-0.91,0.72-0.65c0.2,0.09,0.32,0.53,0.35,0.83
		C500.06,293.75,499.43,293.67,499.04,293.86z"/>
	<path style="fill-rule:evenodd;clip-rule:evenodd;fill:#7996CC;" d="M457.99,266.94c-0.62,0.27-0.89,0.77-0.94,1.43
		c-0.55,0.06-1.11,0.12-1.66,0.17c0.99-0.14,0.99-0.86,0.93-1.61C456.88,266.94,457.43,266.94,457.99,266.94z"/>
	<path style="fill-rule:evenodd;clip-rule:evenodd;fill:#EDB61D;" d="M497.13,291.27c-0.12-0.72,0.08-1.28,0.78-1.6
		c0.41-0.03,0.52,0.26,0.64,0.56c0.14,0.3,0.47,0.68-0.24,0.65C497.86,290.86,497.48,291.02,497.13,291.27z"/>
	<path style="fill-rule:evenodd;clip-rule:evenodd;fill:#ACAA3B;" d="M485.57,252.44c0.41-0.65,0.81-0.67,1.23-0.01
		c0.23,0.36,0.49,0.71,0.73,1.06c0.03,0.24-0.04,0.38-0.32,0.27c-0.57-0.26-0.77-1.09-1.56-1.03c-0.04-0.01-0.09-0.02-0.13-0.04
		C485.49,252.6,485.51,252.51,485.57,252.44z"/>
	<path style="fill-rule:evenodd;clip-rule:evenodd;fill:#592618;" d="M487.56,306.97c0.05,0,0.11,0.02,0.16,0.04
		c0.23,0.09,0.15,0.35,0.27,0.51c0.05,0.47-0.12,0.87-0.44,1.19c-0.23,0.24-0.42,0.08-0.57-0.15c-0.17-0.25-0.49-0.51-0.04-0.78
		C487.27,307.59,487.52,307.37,487.56,306.97z"/>
	<path style="fill-rule:evenodd;clip-rule:evenodd;fill:#B79571;" d="M464.98,301.47c-2-0.09-4.01,0.24-6-0.19
		C460.98,301.31,462.99,300.99,464.98,301.47z"/>
	<path style="fill-rule:evenodd;clip-rule:evenodd;fill:#E87C23;" d="M473.37,291.15c-0.04-0.61-0.78-0.53-0.98-0.99
		c0.27-0.29,0.61-0.4,0.98-0.43c0.27,0.64,0.92,0.84,1.42,1.21C474.3,290.85,473.82,290.88,473.37,291.15z"/>
	<path style="fill-rule:evenodd;clip-rule:evenodd;fill:#5E281D;" d="M480.93,308.08c0.33,0.13,0.78,0.17,0.74,0.63
		c-0.04,0.43-0.43,0.74-0.81,0.73c-0.53-0.01,0.04-0.6-0.35-0.9C480.2,308.29,480.72,308.19,480.93,308.08z"/>
	<path style="fill-rule:evenodd;clip-rule:evenodd;fill:#EAC225;" d="M484.32,302.24c-0.16,0.38-0.49,0.47-0.85,0.48
		c-0.31,0.01-0.73-0.03-0.66-0.44c0.07-0.44,0.55-0.33,0.88-0.37C483.97,301.87,484.25,301.86,484.32,302.24z"/>
	<path style="fill-rule:evenodd;clip-rule:evenodd;fill:#B16739;" d="M463.08,261.15c0.55-0.71,1.13-1.38,2.12-1.43
		c-0.4,0.4-0.8,0.8-1.2,1.2c-0.3,0.16-0.6,0.31-0.9,0.47C463.07,261.31,463.06,261.23,463.08,261.15z"/>
	<path style="fill-rule:evenodd;clip-rule:evenodd;fill:#B1693A;" d="M487.03,254.94c-0.73,0.21-1.28-0.3-1.91-0.49
		C486.07,253.4,486.46,254.54,487.03,254.94z"/>
	<path style="fill-rule:evenodd;clip-rule:evenodd;fill:#E7E7E8;" d="M485.67,296.95c-0.19,0.33-0.31,0.75-0.84,0.67
		c-0.17-0.03-0.49,0.06-0.38-0.24c0.14-0.39,0.54-0.57,0.93-0.66C485.5,296.68,485.72,296.68,485.67,296.95z"/>
	<path style="fill-rule:evenodd;clip-rule:evenodd;fill:#542211;" d="M495.7,288.16c0.29,0.12,0.37,0.38,0.41,0.65
		c0.04,0.23-0.1,0.39-0.33,0.38c-0.31-0.01-0.54-0.19-0.5-0.52C495.31,288.46,495.4,288.21,495.7,288.16z"/>
	<path style="fill-rule:evenodd;clip-rule:evenodd;fill:#41362B;" d="M498.54,290.23c-0.21-0.19-0.42-0.38-0.64-0.56
		c-0.18-0.3-0.36-0.61-0.54-0.91c0.08-0.08,0.16-0.16,0.24-0.24c0.39,0.49,0.78,0.98,1.17,1.47
		C498.7,290.06,498.63,290.14,498.54,290.23z"/>
	<path style="fill-rule:evenodd;clip-rule:evenodd;fill:#582716;" d="M491.99,293.64c0.38,0.12,0.32,0.38,0.32,0.61
		c0,0.21-0.07,0.45-0.31,0.4c-0.32-0.06-0.44-0.33-0.35-0.63C491.71,293.86,491.89,293.75,491.99,293.64z"/>
	<path style="fill-rule:evenodd;clip-rule:evenodd;fill:#DFDFE0;" d="M480.15,292.55c-0.06,0.3-0.06,0.67-0.47,0.71
		c-0.22,0.02-0.33-0.2-0.3-0.42c0.05-0.31,0.12-0.68,0.44-0.77C480.19,291.98,480.11,292.34,480.15,292.55z"/>
	<path style="fill-rule:evenodd;clip-rule:evenodd;fill:#A7663D;" d="M494.44,284.63c0.17,0.26,0.35,0.52,0.52,0.78
		c-0.4,0.01-0.79,0.01-1.19,0.02c-0.13-0.09-0.15-0.2-0.04-0.32C493.96,284.95,494.2,284.79,494.44,284.63z"/>
	<path style="fill-rule:evenodd;clip-rule:evenodd;fill:#C49E76;" d="M504.33,292.37c0-0.88,0-1.76,0-2.65
		c0.07-0.08,0.15-0.08,0.23-0.02C504.52,290.6,504.77,291.51,504.33,292.37z"/>
	<path style="fill-rule:evenodd;clip-rule:evenodd;fill:#CACBCD;" d="M481.51,273.58c0.16-0.11,0.32-0.21,0.48-0.32
		c0.29-0.22,0.67-0.28,0.77,0.09c0.12,0.45-0.37,0.21-0.57,0.31c-0.21,0.1-0.44,0.14-0.66,0.2
		C481.37,273.78,481.37,273.68,481.51,273.58z"/>
	<path style="fill-rule:evenodd;clip-rule:evenodd;fill:#D6D6D8;" d="M474.99,306.16c-0.14,0.21-0.21,0.55-0.55,0.47
		c-0.09-0.02-0.15-0.33-0.15-0.5c0-0.3,0.23-0.35,0.48-0.34C475.03,305.8,475.07,305.94,474.99,306.16z"/>
	<path style="fill-rule:evenodd;clip-rule:evenodd;fill:#C74C39;" d="M480.08,289.72c0.07,0.33,0.15,0.65,0.22,0.98
		C479.43,290.25,479.41,290.18,480.08,289.72z"/>
	<path style="fill-rule:evenodd;clip-rule:evenodd;fill:#5B2715;" d="M490.64,291.09c0.2,0.25,0.36,0.38,0.42,0.54
		c0.08,0.21-0.02,0.44-0.27,0.38c-0.14-0.04-0.28-0.26-0.34-0.43C490.41,291.49,490.54,291.34,490.64,291.09z"/>
	<path style="fill-rule:evenodd;clip-rule:evenodd;fill:#F3A01F;" d="M474.09,294.04c0.01,0.41-0.04,0.79-0.49,0.95
		c0.01-0.4,0.02-0.81,0.03-1.21C473.77,293.86,473.93,293.95,474.09,294.04z"/>
	<path style="fill-rule:evenodd;clip-rule:evenodd;fill:#CACBCD;" d="M487.47,292.12c0.04-0.07,0.07-0.14,0.12-0.21
		c0.24-0.31,0.49-0.61,0.73-0.91c0.07,0.08,0.2,0.17,0.18,0.23c-0.07,0.43-0.39,0.67-0.72,0.89
		C487.67,292.24,487.56,292.23,487.47,292.12z"/>
	<path style="fill-rule:evenodd;clip-rule:evenodd;fill:#727376;" d="M474.55,300.02c0.32-0.29,0.87-0.7,1.07-0.3
		c0.22,0.45-0.6,0.24-0.82,0.56C474.66,300.25,474.57,300.17,474.55,300.02z"/>
	<path style="fill-rule:evenodd;clip-rule:evenodd;fill:#50240F;" d="M474.55,291.77c-0.25,0.14-0.4,0.27-0.56,0.3
		c-0.09,0.01-0.2-0.16-0.3-0.25c0.14-0.11,0.26-0.27,0.41-0.32C474.19,291.47,474.33,291.63,474.55,291.77z"/>
	<path style="fill-rule:evenodd;clip-rule:evenodd;fill:#C74C39;" d="M480.09,286.87c0.14,0.3,1.01,0.47,0.17,0.94
		C480.12,287.52,479.59,287.29,480.09,286.87z"/>
	<path style="fill-rule:evenodd;clip-rule:evenodd;fill:#CACBCD;" d="M487.04,292.84c-0.14,0.18-0.27,0.36-0.41,0.54
		c-0.09-0.12-0.27-0.24-0.26-0.35c0.02-0.39,0.42-0.4,0.67-0.55C487.14,292.6,487.14,292.72,487.04,292.84z"/>
	<path style="fill-rule:evenodd;clip-rule:evenodd;fill:#D38870;" d="M466.64,310.38c-0.45-0.63-0.16-1.34-0.21-2.02
		C466.71,309.01,466.69,309.69,466.64,310.38z"/>
	<path style="fill-rule:evenodd;clip-rule:evenodd;fill:#87898B;" d="M491.88,253.76c-0.75,0.29-0.88-0.41-1.23-0.77
		c0.12-0.08,0.23-0.08,0.35,0.01c0.21,0.16,0.41,0.33,0.62,0.49C491.7,253.58,491.86,253.6,491.88,253.76z"/>
	<path style="fill-rule:evenodd;clip-rule:evenodd;fill:#FAFAFA;" d="M490.6,288.73c-0.07-0.13-0.17-0.24-0.15-0.28
		c0.11-0.2,0.25-0.38,0.38-0.56c0.1,0.09,0.21,0.19,0.31,0.28C490.97,288.34,490.81,288.5,490.6,288.73z"/>
	<path style="fill-rule:evenodd;clip-rule:evenodd;fill:#5A3020;" d="M496.51,294.98c-0.07-0.09-0.17-0.2-0.16-0.22
		c0.12-0.14,0.24-0.31,0.4-0.38c0.16-0.08,0.34,0.05,0.25,0.22C496.92,294.75,496.71,294.83,496.51,294.98z"/>
	<path style="fill-rule:evenodd;clip-rule:evenodd;fill:#97999B;" d="M494,252.04c0.32,0.22,0.52,0.51,0.59,0.89
		c-0.47,0.03-0.62-0.35-0.83-0.66C493.84,252.2,493.93,252.13,494,252.04z"/>
	<path style="fill-rule:evenodd;clip-rule:evenodd;fill:#D0D1D2;" d="M479.85,294.58c0.03-0.37,0.24-0.49,0.47-0.54
		c0.07-0.01,0.16,0.09,0.25,0.14c-0.13,0.19-0.24,0.39-0.4,0.55C480.14,294.77,479.94,294.63,479.85,294.58z"/>
	<path style="fill-rule:evenodd;clip-rule:evenodd;fill:#BFC0C2;" d="M482.29,252.99c0.32,0.1,0.52,0.32,0.61,0.63
		c-0.56,0.13-0.69-0.49-1.08-0.64C481.98,252.86,482.14,252.89,482.29,252.99z"/>
	<path style="fill-rule:evenodd;clip-rule:evenodd;fill:#4E2A15;" d="M498.2,291.69c0.11,0.15,0.24,0.28,0.22,0.31
		c-0.07,0.11-0.19,0.2-0.31,0.27c-0.02,0.01-0.2-0.16-0.18-0.21C497.97,291.95,498.08,291.85,498.2,291.69z"/>
	<path style="fill-rule:evenodd;clip-rule:evenodd;fill:#5C5B56;" d="M478.23,297.87c-0.03,0.09-0.06,0.18-0.08,0.27
		c-0.22-0.01-0.56,0.05-0.56-0.22c0-0.38,0.4-0.22,0.63-0.28C478.26,297.71,478.27,297.79,478.23,297.87z"/>
	<path style="fill-rule:evenodd;clip-rule:evenodd;fill:#B0B0AC;" d="M486.34,302.89c-0.07-0.09-0.14-0.19-0.21-0.28
		c0.26-0.13,0.47-0.41,0.82-0.24C486.75,302.54,486.55,302.71,486.34,302.89z"/>
	<path style="fill-rule:evenodd;clip-rule:evenodd;fill:#F5F5F6;" d="M481.51,273.58c0,0.09,0,0.19,0.01,0.28
		c-0.23,0.1-0.46,0.2-0.69,0.3c-0.03-0.1-0.1-0.22-0.08-0.3C480.87,273.45,481.22,273.6,481.51,273.58z"/>
	<path style="fill-rule:evenodd;clip-rule:evenodd;fill:#AC9E92;" d="M494.71,289.56c-0.07,0.07-0.15,0.14-0.22,0.21
		c-0.19-0.18-0.37-0.36-0.56-0.54c0.08-0.08,0.16-0.17,0.24-0.25C494.34,289.17,494.52,289.36,494.71,289.56z"/>
	<path style="fill-rule:evenodd;clip-rule:evenodd;fill:#B8B3AD;" d="M493.73,285.1c0.01,0.11,0.03,0.22,0.04,0.32
		c-0.24,0.16-0.49,0.31-0.73,0.47c-0.04-0.1-0.07-0.19-0.11-0.29C493.19,285.44,493.46,285.27,493.73,285.1z"/>
	<path style="fill-rule:evenodd;clip-rule:evenodd;fill:#898A8D;" d="M487.04,292.84c0-0.12,0-0.24,0-0.36
		c0.14-0.12,0.29-0.24,0.43-0.36c0.1,0,0.2,0.01,0.31,0.01C487.53,292.37,487.29,292.61,487.04,292.84z"/>
	<path style="fill-rule:evenodd;clip-rule:evenodd;fill:#6E6F71;" d="M485.66,252.73c-0.18,0.18-0.44,0.51-0.61,0.33
		c-0.26-0.27,0.12-0.4,0.33-0.52c0.06,0.07,0.14,0.1,0.23,0.1L485.66,252.73z"/>
	<path style="fill-rule:evenodd;clip-rule:evenodd;fill:#CCCDCE;" d="M474.55,300.02c0.08,0.08,0.17,0.17,0.25,0.25
		c-0.15,0.13-0.18,0.54-0.43,0.36C474.07,300.42,474.34,300.19,474.55,300.02z"/>
	<path style="fill-rule:evenodd;clip-rule:evenodd;fill:#666769;" d="M477.29,293.47c-0.24,0.13-0.34,0.21-0.45,0.22
		c-0.09,0.01-0.18-0.08-0.27-0.13c0.07-0.08,0.12-0.21,0.2-0.24C476.85,293.3,476.97,293.38,477.29,293.47z"/>
	<path style="fill-rule:evenodd;clip-rule:evenodd;fill:#AFB1B3;" d="M484.96,293.4c-0.18,0.07-0.3,0.15-0.43,0.16
		c-0.19,0.02-0.29-0.12-0.18-0.28c0.07-0.1,0.24-0.15,0.37-0.17C484.77,293.12,484.84,293.26,484.96,293.4z"/>
	<path style="fill-rule:evenodd;clip-rule:evenodd;fill:#B7B5B6;" d="M494,265.99c-0.32-0.09-0.52-0.23-0.24-0.57
		C493.99,265.55,494.2,265.69,494,265.99z"/>
	<path style="fill-rule:evenodd;clip-rule:evenodd;fill:#9D9FA1;" d="M474.12,301.45c-0.11,0.1-0.19,0.21-0.24,0.2
		c-0.09-0.02-0.19-0.11-0.24-0.19c-0.02-0.03,0.1-0.2,0.15-0.2C473.88,301.27,473.97,301.36,474.12,301.45z"/>
	<path style="fill-rule:evenodd;clip-rule:evenodd;fill:#359747;" d="M457.99,276.77c0.28-0.36,0.68-0.23,1.04-0.23
		C458.74,276.89,458.35,276.79,457.99,276.77z"/>
	<path style="fill-rule:evenodd;clip-rule:evenodd;fill:#B1B3B5;" d="M482.22,293.66c0.1,0.06,0.16,0.1,0.22,0.13
		c-0.05,0.08-0.09,0.18-0.17,0.23c-0.04,0.02-0.13-0.05-0.21-0.08C482.12,293.85,482.17,293.75,482.22,293.66z"/>
	<path style="fill-rule:evenodd;clip-rule:evenodd;fill:#CACBCD;" d="M472.41,301.17c0-0.39-0.02-0.58,0.01-0.75
		c0.01-0.05,0.05-0.3,0.2-0.1c0.08,0.11,0.08,0.29,0.07,0.44C472.68,300.83,472.59,300.91,472.41,301.17z"/>
	<path style="fill-rule:evenodd;clip-rule:evenodd;fill:#669346;" d="M464.24,268.86c-0.29,0.34-0.67,0.2-1.03,0.21
		C463.5,268.75,463.88,268.83,464.24,268.86z"/>
	<path style="fill-rule:evenodd;clip-rule:evenodd;fill:#C5C5C7;" d="M483.56,292.98c-0.14,0.09-0.26,0.21-0.3,0.18
		c-0.11-0.06-0.19-0.19-0.28-0.29c0.1-0.03,0.2-0.1,0.29-0.09C483.36,292.8,483.44,292.89,483.56,292.98z"/>
	<path style="fill-rule:evenodd;clip-rule:evenodd;fill:#D0D1D3;" d="M478.34,290.73c0.1-0.09,0.21-0.21,0.23-0.2
		c0.12,0.08,0.28,0.17,0.33,0.3c0.04,0.1,0.02,0.35-0.22,0.24C478.55,291.02,478.47,290.87,478.34,290.73z"/>
	<path style="fill-rule:evenodd;clip-rule:evenodd;fill:#534832;" d="M475.97,295.29c-0.11-0.14-0.33-0.37-0.3-0.41
		c0.12-0.17,0.26-0.06,0.35,0.09C476,295.08,475.98,295.19,475.97,295.29z"/>
	<path style="fill-rule:evenodd;clip-rule:evenodd;fill:#E87C23;" d="M474.34,289.47c-0.22,0.3-0.53,0.25-0.84,0.23
		C473.78,289.62,474.06,289.55,474.34,289.47z"/>
	<path style="fill-rule:evenodd;clip-rule:evenodd;fill:#F3866A;" d="M483.68,277.51c-0.08,0.07-0.17,0.15-0.25,0.22
		c-0.14-0.04-0.29-0.09-0.43-0.13C483.22,277.57,483.45,277.54,483.68,277.51z"/>
	<path style="fill-rule:evenodd;clip-rule:evenodd;fill:#302D2F;" d="M480.24,274.87c0.03,0.05,0.06,0.1,0.08,0.15
		c-0.04,0.01-0.08,0.05-0.1,0.04c-0.06-0.02-0.12-0.07-0.18-0.1C480.11,274.92,480.18,274.9,480.24,274.87z"/>
	<path style="fill-rule:evenodd;clip-rule:evenodd;fill:#C2C3C5;" d="M483.97,300.89c-0.03-0.06-0.09-0.12-0.08-0.16
		c0.01-0.06,0.08-0.11,0.12-0.17c0.04,0.06,0.11,0.13,0.12,0.2C484.13,300.79,484.03,300.84,483.97,300.89z"/>
	<path style="fill-rule:evenodd;clip-rule:evenodd;fill:#628742;" d="M466.63,268.62c0.01,0.07,0.01,0.14,0,0.21
		c-0.25,0-0.5-0.01-0.76-0.01C466.06,268.54,466.35,268.6,466.63,268.62z"/>
	<path style="fill-rule:evenodd;clip-rule:evenodd;fill:#B09082;" d="M486.58,291.4c-0.1-0.1-0.2-0.2-0.29-0.3
		c0.12-0.14,0.27-0.33,0.45-0.14C486.9,291.13,486.74,291.28,486.58,291.4z"/>
	<path style="fill-rule:evenodd;clip-rule:evenodd;fill:#B2B3B5;" d="M487.21,253.75c0.11-0.09,0.21-0.18,0.32-0.27
		c0.15,0.11,0.32,0.25,0.11,0.42C487.46,254.06,487.31,253.95,487.21,253.75z"/>
	<path style="fill-rule:evenodd;clip-rule:evenodd;fill:#CCCDCF;" d="M481.5,292.29c0.07,0.16,0.14,0.24,0.14,0.32
		c0,0.05-0.12,0.15-0.15,0.14c-0.08-0.03-0.2-0.11-0.21-0.18C481.27,292.51,481.39,292.43,481.5,292.29z"/>
	<path style="fill-rule:evenodd;clip-rule:evenodd;fill:#CECFD0;" d="M487.11,294.3c-0.12,0.06-0.23,0.15-0.26,0.13
		c-0.08-0.05-0.12-0.16-0.18-0.24c0.08-0.05,0.17-0.16,0.22-0.14C486.96,294.07,487.01,294.18,487.11,294.3z"/>
	<path style="fill-rule:evenodd;clip-rule:evenodd;fill:#C1986A;" d="M487.99,307.51c-0.25-0.08-0.25-0.3-0.27-0.51
		c0.16,0,0.32,0,0.48,0C488.13,307.17,488.06,307.34,487.99,307.51z"/>
	<path style="fill-rule:evenodd;clip-rule:evenodd;fill:#F6AD1E;" d="M478.25,298.15c0.19,0.19,0.16,0.33-0.08,0.43
		C478.19,298.43,478.22,298.29,478.25,298.15z"/>
	<path style="fill-rule:evenodd;clip-rule:evenodd;fill:#E6E7E8;" d="M490.4,252.35c0.1,0.12,0.2,0.24,0.29,0.36
		c-0.03,0.03-0.06,0.06-0.1,0.09c-0.07-0.08-0.14-0.15-0.21-0.23C490.32,252.49,490.33,252.42,490.4,252.35z"/>
	<path style="fill-rule:evenodd;clip-rule:evenodd;fill:#CACBCD;" d="M491.88,253.76c-0.09-0.09-0.18-0.18-0.27-0.27
		c0.13,0.03,0.27,0.06,0.4,0.09C491.97,253.64,491.92,253.7,491.88,253.76z"/>
	<path style="fill-rule:evenodd;clip-rule:evenodd;fill:#F6AD1E;" d="M483.46,298.82c-0.23-0.11-0.26-0.31-0.22-0.53
		C483.31,298.47,483.39,298.64,483.46,298.82z"/>
	<path style="fill-rule:evenodd;clip-rule:evenodd;fill:#E9EAEB;" d="M482.29,252.99c-0.16,0-0.31,0-0.47-0.01
		c0.05-0.08,0.1-0.16,0.15-0.25C482.08,252.82,482.19,252.91,482.29,252.99z"/>
	<path style="fill-rule:evenodd;clip-rule:evenodd;fill:#A7A8AB;" d="M492.04,295.81c-0.02,0.06-0.04,0.15-0.07,0.16
		c-0.05,0.02-0.13-0.02-0.19-0.04c0.03-0.07,0.05-0.14,0.1-0.2C491.89,295.73,491.98,295.79,492.04,295.81z"/>
	<path style="fill-rule:evenodd;clip-rule:evenodd;fill:#914F32;" d="M487.99,255.16c-0.09,0-0.17-0.01-0.26-0.02
		c0.1-0.06,0.19-0.12,0.29-0.18C488.02,255.03,488.01,255.1,487.99,255.16z"/>
	<path style="fill-rule:evenodd;clip-rule:evenodd;fill:#C74C39;" d="M480.3,290.69c0.09,0.07,0.17,0.14,0.26,0.21
		C480.47,290.83,480.39,290.76,480.3,290.69z"/>
	<path style="fill-rule:evenodd;clip-rule:evenodd;fill:#B7B9BB;" d="M476.95,300.65c-0.08-0.1-0.29-0.16-0.09-0.32
		c0.02-0.01,0.15,0.12,0.23,0.18C477.05,300.56,477,300.6,476.95,300.65z"/>
	<path style="fill-rule:evenodd;clip-rule:evenodd;fill:#AFB2B3;" d="M485.61,252.64c-0.08-0.03-0.16-0.07-0.23-0.1
		c0.06-0.05,0.12-0.08,0.2-0.1C485.58,252.5,485.59,252.57,485.61,252.64z"/>
	<path style="fill-rule:evenodd;clip-rule:evenodd;fill:#894A30;" d="M469.27,290.42c0-0.07,0-0.15,0-0.22
		c0.09,0,0.18,0.01,0.27,0.01C469.45,290.28,469.36,290.35,469.27,290.42z"/>
	<path style="fill-rule:evenodd;clip-rule:evenodd;fill:#894A30;" d="M469.77,290.15c0.08-0.06,0.16-0.12,0.23-0.19
		C469.92,290.02,469.85,290.08,469.77,290.15z"/>
	<path style="fill-rule:evenodd;clip-rule:evenodd;fill:#E3E4E5;" d="M490.99,253c-0.12,0-0.23,0-0.35-0.01
		c-0.06-0.05-0.08-0.12-0.05-0.19c0.03-0.03,0.06-0.06,0.1-0.09C490.79,252.81,490.89,252.9,490.99,253z"/>
	<path style="fill-rule:evenodd;clip-rule:evenodd;fill:#E6E7E8;" d="M490.4,252.35c0,0.07-0.01,0.14-0.02,0.22
		c-0.07-0.06-0.15-0.12-0.22-0.18C490.24,252.37,490.32,252.36,490.4,252.35z"/>
	<path style="fill-rule:evenodd;clip-rule:evenodd;fill:#C8AA93;" d="M495,294.35c-0.03-0.09-0.05-0.17-0.08-0.26
		c0.1-0.06,0.19-0.11,0.29-0.17c0.03,0.04,0.06,0.08,0.11,0.11C495.21,294.14,495.11,294.25,495,294.35z"/>
	<path style="fill-rule:evenodd;clip-rule:evenodd;fill:#E49D58;" d="M504.56,289.71c-0.08,0.01-0.16,0.01-0.23,0.02
		c0.1-0.07,0.19-0.15,0.29-0.22C504.64,289.58,504.62,289.65,504.56,289.71z"/>
	<path style="fill-rule:evenodd;clip-rule:evenodd;fill:#F6AD1E;" d="M478.23,297.87c-0.01-0.08-0.01-0.15-0.01-0.23
		c0.05-0.03,0.1-0.04,0.16-0.05C478.32,297.68,478.28,297.77,478.23,297.87z"/>
	<path style="fill-rule:evenodd;clip-rule:evenodd;fill:#F6AD1E;" d="M481.72,294.87c-0.04,0.07-0.1,0.12-0.19,0.12
		C481.6,294.95,481.66,294.91,481.72,294.87z"/>
	<path style="fill-rule:evenodd;clip-rule:evenodd;fill:#FEFEFE;" d="M494,252.04c-0.08,0.08-0.16,0.16-0.24,0.24
		C493.71,252.07,493.77,251.97,494,252.04z"/>
	<path style="fill-rule:evenodd;clip-rule:evenodd;fill:#BF7D48;" d="M480.82,252.29c0.07-0.08,0.14-0.16,0.21-0.24
		C480.96,252.13,480.89,252.21,480.82,252.29z"/>
	<path style="fill-rule:evenodd;clip-rule:evenodd;fill:#C74C39;" d="M485.63,289.78c0.06-0.1,0.12-0.19,0.17-0.29
		C485.74,289.59,485.69,289.68,485.63,289.78z"/>
	<path style="fill-rule:evenodd;clip-rule:evenodd;fill:#C74C39;" d="M480.58,286.83c-0.1,0-0.19,0-0.29,0
		c0.09-0.05,0.18-0.1,0.27-0.15C480.57,286.73,480.58,286.78,480.58,286.83z"/>
	<path style="fill-rule:evenodd;clip-rule:evenodd;fill:#ED937C;" d="M502.82,303.62c-0.05-0.09-0.09-0.19-0.14-0.28
		C502.72,303.43,502.77,303.53,502.82,303.62z"/>
	<path style="fill-rule:evenodd;clip-rule:evenodd;fill:#F5A120;" d="M480.06,310.1c-0.07-0.08-0.14-0.15-0.2-0.23
		C479.93,309.95,479.99,310.03,480.06,310.1z"/>
	<path style="fill-rule:evenodd;clip-rule:evenodd;fill:#C74C39;" d="M480.31,289.44c-0.07,0.09-0.15,0.19-0.22,0.28
		C480.16,289.63,480.23,289.53,480.31,289.44z"/>
	<polygon style="fill-rule:evenodd;clip-rule:evenodd;fill:#78797C;" points="476.07,310.71 476.15,310.69 476.14,310.76 	"/>
	<path style="fill-rule:evenodd;clip-rule:evenodd;fill:#F6AD1E;" d="M483.45,297.15c0.06-0.07,0.11-0.14,0.17-0.21
		C483.56,297.01,483.51,297.08,483.45,297.15z"/>
	<path style="fill-rule:evenodd;clip-rule:evenodd;fill:#CF9964;" d="M497.13,254.1c0.27,2.04,0.33,4.08,0.25,6.13
		C496.81,258.2,497.26,256.14,497.13,254.1z"/>
	<path style="fill-rule:evenodd;clip-rule:evenodd;fill:#CA9765;" d="M497.38,261.32c0.09,0.91,0.19,1.82,0.28,2.74
		c0.05,0.25,0.15,0.51-0.1,0.72C497.14,263.64,497.44,262.47,497.38,261.32z"/>
	<path style="fill-rule:evenodd;clip-rule:evenodd;fill:#914F32;" d="M497.56,264.78c0.03-0.24,0.06-0.48,0.1-0.72
		c0.29,0.7,0.12,1.42,0.14,2.13C497.39,265.77,497.67,265.24,497.56,264.78z"/>
	<path style="fill-rule:evenodd;clip-rule:evenodd;fill:#AE6A3F;" d="M500.04,251.06c0.46-0.65,1.15-0.56,1.73-0.4
		c0.68,0.19,0.33,0.88,0.38,1.35c0.46,4.04,0.19,8.1,0.23,12.16c0.01,0.98-0.17,1.97-0.25,2.96c-0.06,0.79-0.98,1.01-1.15,1.73
		c-0.07,0.23-0.13,0.46-0.2,0.69C500.89,263.37,500.45,257.22,500.04,251.06z"/>
	<path style="fill-rule:evenodd;clip-rule:evenodd;fill:#AA6036;" d="M463.04,281.32c-0.08-0.16-0.16-0.32-0.24-0.48
		c1.13-0.14,1.63,0.17,1.92,1.2l-0.01,0.01C464.16,281.8,463.6,281.56,463.04,281.32z"/>
	<path style="fill-rule:evenodd;clip-rule:evenodd;fill:#DCA56A;" d="M473.83,251.13c-2.66,1.71-5.64,0.54-8.44,0.97
		c-0.11-0.42-0.08-0.52,0.37-0.55C468.45,251.37,471.12,250.97,473.83,251.13z"/>
	<path style="fill-rule:evenodd;clip-rule:evenodd;fill:#252122;" d="M495.7,273.15c-0.09,0.63-0.18,1.25-0.27,1.88
		c-0.25,0.63-0.37,1.31-0.77,1.87c-0.34,0.2-0.75,0.17-1.1,0.32c-0.71,0.17-1.3,0.57-1.94,0.9c-0.8,0.42-1.13,0.25-1.11-0.62
		c0.02-0.65-0.33-0.92-0.78-1.21c-1.02-0.65-2.17-0.97-3.27-1.45c-0.3-0.15-0.58-0.33-0.79-0.61c-0.02-0.05-0.04-0.1-0.06-0.16
		c-0.63-1.06,0.47-0.39,0.65-0.65c1.82,0.26,2.93-1.01,4.19-1.95c0.41-0.31,0.82-0.63,1.22-0.94
		C494.42,270.37,494.76,270.59,495.7,273.15z"/>
	<path style="fill-rule:evenodd;clip-rule:evenodd;fill:#2D2828;" d="M490.64,269.7c-0.36-0.39-1.02,1.47-1.22-0.16
		c1.01-1.15,2.43-1.54,3.37-0.91c0.18,0.12,0.28,0.35,0.42,0.53c-0.18,0.02-0.38,0.09-0.55,0.05
		C491.91,269.06,491.26,269.32,490.64,269.7z"/>
	<path style="fill-rule:evenodd;clip-rule:evenodd;fill:#2C231F;" d="M472.9,296.93c0-0.39,0-0.79,0.01-1.18l-0.01,0
		c0.05-0.1,0.14-0.18,0.21-0.27l0.01-0.01c0.08-0.07,0.16-0.14,0.23-0.23c0,0,0.02,0,0.02,0c0.32,0.08,0.64,0.16,0.97,0.23
		c0.42,0.57,0.74,1.17,0.07,1.74C473.84,297.7,473.33,297.41,472.9,296.93z"/>
	<path style="fill-rule:evenodd;clip-rule:evenodd;fill:#292524;" d="M479.85,299.33c0.63,0.07,1.26-0.46,1.89-0.01l0.02,0.02
		c0.19,0.31,0.15,0.62,0.02,0.93c-0.33,1.03-0.85,1.91-1.95,2.26c-0.55,0.18-1.16,0.19-1.59-0.22c-0.48-0.45-0.1-1.01,0.12-1.43
		c0.25-0.48,0.67-0.87,1.02-1.3c0.11-0.16,0.33-0.1,0.46-0.24L479.85,299.33z"/>
	<path style="fill-rule:evenodd;clip-rule:evenodd;fill:#F6AD1E;" d="M481.78,300.27c-0.01-0.31-0.02-0.62-0.02-0.93
		C482.11,299.64,482.08,299.95,481.78,300.27z"/>
	<path style="fill-rule:evenodd;clip-rule:evenodd;fill:#F6AD1E;" d="M479.84,299.33c-0.15,0.08-0.31,0.16-0.46,0.24
		C479.53,299.49,479.69,299.41,479.84,299.33z"/>
	<path style="fill-rule:evenodd;clip-rule:evenodd;fill:#B86A39;" d="M464.72,282.04c-0.44-0.73-1.16-0.99-1.92-1.2
		c-0.07-0.04-0.15-0.06-0.2-0.12c-0.57-0.63-1.74-0.89-1.52-2.03c0.11-0.56,2.72-0.96,3.48-0.55c1.33,0.72,2.6,1.53,3.97,2.17
		c0.82,0.38,1.35,1.16,1.25,2.25c-0.11,1.18-0.08,2.39,0.21,3.56c0.22,0.19,0.01,0.53,0.24,0.72l0,0c0.53,0.65,0.67,1.24-0.23,1.69
		h0c-0.09,0.07-0.17,0.15-0.24,0.24l0,0c-0.08,0.08-0.16,0.16-0.24,0.24l0,0c-0.08,0.08-0.17,0.15-0.24,0.24h0
		c-0.41,0.03-0.41,0.83-0.92,0.54c-0.4-0.22-0.49-0.7-0.52-1.15c-0.07-0.95-0.13-1.9-0.25-2.85
		C467.37,283.98,466.48,282.67,464.72,282.04z"/>
	<path style="fill-rule:evenodd;clip-rule:evenodd;fill:#AA6036;" d="M470.01,288.53c0.5-0.5,0.47-1.08,0.23-1.69
		c0.44,0.25,0.79,0.56,0.69,1.13C470.83,288.48,470.42,288.52,470.01,288.53z"/>
	<path style="fill-rule:evenodd;clip-rule:evenodd;fill:#AA6036;" d="M470.24,286.84c-0.27-0.17-0.24-0.45-0.24-0.72
		C470.27,286.3,470.23,286.58,470.24,286.84z"/>
	<path style="fill-rule:evenodd;clip-rule:evenodd;fill:#AA6036;" d="M469.28,289.24c0.08-0.08,0.16-0.16,0.24-0.24
		C469.44,289.08,469.36,289.16,469.28,289.24z"/>
	<path style="fill-rule:evenodd;clip-rule:evenodd;fill:#AA6036;" d="M469.52,289c0.08-0.08,0.16-0.16,0.24-0.24
		C469.68,288.84,469.6,288.92,469.52,289z"/>
	<path style="fill-rule:evenodd;clip-rule:evenodd;fill:#AA6036;" d="M469.76,288.76c0.08-0.08,0.16-0.16,0.24-0.24
		C469.92,288.6,469.84,288.68,469.76,288.76z"/>
	<path style="fill-rule:evenodd;clip-rule:evenodd;fill:#F48D72;" d="M494.73,276.76c-0.4-0.83,0.35-1.2,0.7-1.73
		c0.54,3.52-1.4,7.44-4.31,8.69c-3.29,0.52-4.85-0.06-5.77-2.2c-0.48-1.13-0.57-2.37-0.72-3.58c-0.11-0.91-0.15-1.81,0.09-2.69
		c0.13-0.47,0.27-1.03,0.89-1.16l-0.01,0.01c0.32,0.22,0.36,0.5,0.16,0.83c-0.61,0.98-0.58,2.02-0.35,3.12
		c0.18,0.86,0.33,1.72,0.53,2.58c0.45,1.87,2.7,3.57,5.08,2.06c1.97-1.25,2.83-3.16,3.49-5.24
		C494.59,277.21,494.62,276.97,494.73,276.76z"/>
	<path style="fill-rule:evenodd;clip-rule:evenodd;fill:#F29F89;" d="M490.46,271.49c-1.03,1.45-2.08,2.83-4.19,1.95
		C487.3,272,488.63,271.21,490.46,271.49z"/>
	<path style="fill-rule:evenodd;clip-rule:evenodd;fill:#312A23;" d="M471.28,295.45c-0.41,0.81-0.96,1.28-1.63,1.49
		c-0.57,0.17-0.79-0.31-0.77-0.79c0.02-0.91,0.54-1.57,1.38-1.72C470.98,294.29,470.67,295.31,471.28,295.45z"/>
	<path style="fill-rule:evenodd;clip-rule:evenodd;fill:#F3A01F;" d="M473.35,295.24c-0.08,0.08-0.15,0.15-0.23,0.23
		C473.19,295.39,473.27,295.31,473.35,295.24z"/>
	<path style="fill-rule:evenodd;clip-rule:evenodd;fill:#F3A01F;" d="M473.11,295.48c-0.07,0.09-0.14,0.18-0.21,0.27
		C472.97,295.66,473.04,295.57,473.11,295.48z"/>
	<path style="fill-rule:evenodd;clip-rule:evenodd;fill:#F26E22;" d="M481.73,297.33c-0.17,0.49-0.49,0.83-1.04,0.76
		c-0.47-0.06-0.85-0.36-0.8-0.86c0.06-0.53,0.46-0.83,1.01-0.77C481.38,296.52,481.67,296.83,481.73,297.33z"/>
	<path style="fill-rule:evenodd;clip-rule:evenodd;fill:#F7A995;" d="M486.33,274.54c1.43,0.53,2.95,0.87,4.17,1.89
		c0.42,0.35,0.77,0.54,0.21,1.04c-0.17,0.16-0.24,0.44-0.05,0.64c0.23,0.23,0.42-0.02,0.61-0.12c0.72-0.4,1.37-0.95,2.24-1.01
		c0.87,0.04,0.82,0.69,0.68,1.21c-0.59,2.09-1.75,3.78-3.79,4.66c-2.02,0.88-4.02-0.27-4.43-2.43c-0.21-1.09-0.51-2.17-0.61-3.28
		C485.27,276.15,485.26,275.13,486.33,274.54z"/>
	<path style="fill-rule:evenodd;clip-rule:evenodd;fill:#F59B84;" d="M486.33,274.54c-0.57,0.94-0.88,1.9-0.54,3.05
		c0.29,1.02,0.35,2.11,0.56,3.16c0.38,1.89,2.88,2.69,4.66,1.45c1.41-0.98,2.39-2.31,2.88-3.98c0.15-0.52,0.16-0.94-0.37-1.23
		c0.36-0.34,0.83-0.08,1.22-0.23c0.16,2.3-1.09,4.02-2.57,5.47c-1.15,1.13-2.62,1.95-4.43,1.06c-1.54-0.76-2.02-2.11-2.38-3.62
		c-0.45-1.89-0.6-3.74,0.25-5.57C485.85,274.25,486.09,274.39,486.33,274.54z"/>
	<path style="fill-rule:evenodd;clip-rule:evenodd;fill:#FCFCFC;" d="M494.45,274.35c-1.44,2.12-3.66,2.18-5.09,0.13
		c-0.1-0.14-0.2-0.23-0.05-0.39c0.74-0.77,1.37-1.71,2.24-2.29c1.17-0.78,2.12,0.04,2.94,0.87c-0.29,0.17-0.29,0.18-0.81,0.19
		c-0.25,0-0.48,0.03-0.6,0.27c-0.07,0.15-0.05,0.31,0.06,0.44c0.19,0.22,0.41,0.21,0.64,0.08
		C494.96,272.97,494.6,273.77,494.45,274.35z"/>
	<path style="fill-rule:evenodd;clip-rule:evenodd;fill:#322F31;" d="M494.45,274.35c0-0.27,0-0.54,0-0.81
		c-0.15,0.15-0.31,0.3-0.45,0.46c-0.29,0.32-0.61,0.33-0.95,0.1c-0.37-0.25-0.47-0.66-0.44-1.05c0.03-0.46,0.45-0.53,0.8-0.54
		c0.36,0,0.73,0.11,1.09,0.17C494.87,273.25,494.9,273.8,494.45,274.35z"/>
	<path style="fill-rule:evenodd;clip-rule:evenodd;fill:#E3E3E4;" d="M480.79,300.24c-0.1,0.44-0.37,0.61-0.78,0.56
		c-0.18-0.02-0.6,0.17-0.47-0.19c0.09-0.26,0.54-0.41,0.84-0.56C480.56,299.96,480.77,299.97,480.79,300.24z"/>
	<path style="fill-rule:evenodd;clip-rule:evenodd;fill:#A2A4A7;" d="M479.87,301.6c-0.34,0.21-0.42,0.3-0.51,0.3
		c-0.05,0-0.17-0.16-0.15-0.2c0.04-0.08,0.14-0.17,0.23-0.19C479.54,301.49,479.65,301.55,479.87,301.6z"/>
	<path style="fill-rule:evenodd;clip-rule:evenodd;fill:#D48546;" d="M463.44,278.43c0.86,0.01,1.42,0.59,2.11,0.86
		c2.81,1.11,4.44,2.84,3.79,6.11c-0.1,0.51,0.14,1.16,0.5,1.68c0.26,0.36,0.27,0.8-0.13,1.06c-0.34,0.23-0.64,0.71-1.13,0.53
		c-0.42-0.15-0.52-0.61-0.48-1.01c0.38-3.59-1.74-5.55-4.57-7.06c-0.21-0.11-0.46-0.18-0.63-0.34c-0.37-0.37-1.13-0.62-0.89-1.24
		C462.21,278.49,462.94,278.53,463.44,278.43z"/>
	<path style="fill-rule:evenodd;clip-rule:evenodd;fill:#AC977D;" d="M470.2,295.7c-0.09,0.06-0.17,0.12-0.26,0.18
		c-0.03-0.09-0.12-0.21-0.09-0.25c0.05-0.07,0.17-0.09,0.27-0.11C470.13,295.51,470.17,295.62,470.2,295.7z"/>
</g>
</svg>
