<?xml version="1.0" encoding="utf-8"?>
<!-- Generator: Adobe Illustrator 16.0.0, SVG Export Plug-In . SVG Version: 6.00 Build 0)  -->
<!DOCTYPE svg PUBLIC "-//W3C//DTD SVG 1.0//EN" "http://www.w3.org/TR/2001/REC-SVG-20010904/DTD/svg10.dtd" [
	<!ENTITY ns_flows "http://ns.adobe.com/Flows/1.0/">
	<!ENTITY ns_extend "http://ns.adobe.com/Extensibility/1.0/">
	<!ENTITY ns_ai "http://ns.adobe.com/AdobeIllustrator/10.0/">
	<!ENTITY ns_graphs "http://ns.adobe.com/Graphs/1.0/">
]>
<svg version="1.0" id="Layer_1" xmlns:x="&ns_extend;" xmlns:i="&ns_ai;" xmlns:graph="&ns_graphs;"
	 xmlns="http://www.w3.org/2000/svg" xmlns:xlink="http://www.w3.org/1999/xlink" xmlns:a="http://ns.adobe.com/AdobeSVGViewerExtensions/3.0/"
	 x="0px" y="0px" width="960px" height="560px" viewBox="0 0 960 560" style="enable-background:new 0 0 960 560;"
	 xml:space="preserve">
<g>
	<path style="fill-rule:evenodd;clip-rule:evenodd;fill:#FEFEFE;" d="M504.64,250.24c0.96-0.22,0.72,0.48,0.72,0.96
		c0,19.8,0,39.6,0,59.4c0,0.24-0.05,0.49,0.01,0.72c0.18,0.73-0.32,0.61-0.73,0.6c-0.08-0.14-0.11-0.29-0.06-0.45
		c0.26-0.53,0.18-1.1,0.18-1.65c-0.04-7.94-0.01-15.89-0.03-23.83c-0.02-8.82,0.03-17.64,0.02-26.46c0-2.48,0.04-4.95,0.01-7.43
		c-0.01-0.48,0.04-0.96-0.18-1.41C504.53,250.53,504.55,250.38,504.64,250.24z"/>
	<path style="fill-rule:evenodd;clip-rule:evenodd;fill:#202020;" d="M454.24,311.44c0-20.24,0-40.48,0-60.72
		c0.17-0.06,0.3-0.02,0.4,0.14c0.25,0.49,0.18,1.02,0.18,1.53c-0.02,6.76,0.02,13.51,0.02,20.27c0,11.63-0.07,23.26,0.01,34.89
		c0.01,1.22,0.18,2.48-0.21,3.69C454.55,311.38,454.41,311.45,454.24,311.44z"/>
	<path style="fill-rule:evenodd;clip-rule:evenodd;fill:#222222;" d="M504.64,250.24c0.04,0.06,0.06,0.13,0.05,0.21
		c-0.43,0.48-1.03,0.42-1.57,0.41c-6.99-0.09-13.99-0.05-20.98-0.02c-8.71,0.03-17.41-0.09-26.12,0.03c-0.4,0.01-0.8-0.04-1.17-0.22
		c-0.15-0.1-0.2-0.23-0.14-0.4C471.36,250.24,488,250.24,504.64,250.24z"/>
	<path style="fill-rule:evenodd;clip-rule:evenodd;fill:#222222;" d="M504.69,311.71c0.01,0.08-0.01,0.15-0.05,0.21
		c-16.64,0-33.28,0-49.92,0c-0.01-0.17,0.06-0.31,0.2-0.4c1.29-0.38,2.62-0.18,3.92-0.19c7.1-0.04,14.2-0.03,21.29-0.03
		c7.62,0,15.24,0.01,22.86,0.05C503.58,311.34,504.22,311.18,504.69,311.71z"/>
	<path style="fill-rule:evenodd;clip-rule:evenodd;fill:#FBFAFA;" d="M454.72,250.24c-0.04,0.07-0.06,0.14-0.05,0.21
		c-0.03,0.11-0.1,0.19-0.21,0.21l-0.11-0.01l-0.1,0.06C454.14,250.3,454.3,250.14,454.72,250.24z"/>
	<path style="fill-rule:evenodd;clip-rule:evenodd;fill:#FBFAFA;" d="M454.68,311.72c-0.02,0.07-0.01,0.14,0.04,0.2
		c-0.42,0.1-0.58-0.06-0.48-0.48c0.06,0.08,0.12,0.09,0.2,0.04l0.11-0.02c0.07,0.03,0.12,0.08,0.16,0.15
		C454.7,311.61,454.68,311.72,454.68,311.72z"/>
	<path style="fill-rule:evenodd;clip-rule:evenodd;" d="M454.45,250.67c0.07-0.07,0.14-0.14,0.21-0.21c16.68,0,33.35,0,50.03,0
		c0.53,0.24,0.41,0.72,0.41,1.15c0,19.65,0,39.31,0,58.96c0,0.42,0.13,0.9-0.41,1.14c-16.67,0-33.34,0.01-50.01,0.01l0,0
		c-0.04-0.13-0.12-0.22-0.25-0.25l0,0c0.01-2.8,0.04-5.6,0.04-8.39C454.47,285.61,454.46,268.14,454.45,250.67z"/>
	<path style="fill-rule:evenodd;clip-rule:evenodd;fill:#202020;" d="M454.44,311.47c0.08,0.08,0.17,0.17,0.25,0.25
		C454.6,311.64,454.52,311.56,454.44,311.47z"/>
	<path style="fill-rule:evenodd;clip-rule:evenodd;fill:#F9B58D;" d="M471.98,271.08c0.83-1.13,1.14-2.17,0.17-3.51
		c-0.34-0.47-0.12-1.23-1.07-0.85c-0.15,0.01-0.23-0.06-0.24-0.22c0.04-0.25,0.77-0.21,0.3-0.66c-0.29-0.27-0.73-0.33-0.97-0.02
		c-0.4,0.5-0.85,0.67-1.44,0.49c-0.05-0.02-0.12-0.22-0.08-0.27c0.37-0.47,0.65-0.96,1.36-1.11c4.87-1.05,9.65-0.62,14.39,0.73
		c0.42,0.12,0.85,0.26,0.16,0.66c-0.4,0.24-0.64,0.73-1.18,0.76c-0.12,0.07-0.23,0.05-0.32-0.06c0.28-0.38-0.06-0.51-0.28-0.69
		c-0.23-0.27-0.46-0.15-0.69-0.01c-0.34,0.92-0.61,1.85-1.18,2.71c-0.59,0.89,0.15,1.78,0.62,2.61c0.13,0.23,0.71,0.49,0.08,0.8
		c-0.34,0.17-0.94,0.28-0.73,0.73c0.2,0.42,0.79,0.05,1.21,0.1c0.17-0.14,0.41-0.15,0.46,0.05c0.08,0.37-0.26,0.49-0.51,0.64
		c-0.83,0.27-0.64,0.88-0.43,1.44c0.62,1.7,2.05,2.14,3.66,2.27c0.12,0.03,0.22,0.08,0.32,0.15c0.09,0.09,0.15,0.19,0.17,0.31
		c-0.04,0.28-0.26,0.41-0.48,0.53c-0.17,0.1-0.34,0.18-0.52,0.26c-4.73,1.5-9.47,1.78-14.23,0.2c-0.11-0.05-0.2-0.14-0.31-0.2
		c0.05,0.1,0.16,0.13,0.25,0.19c1.42,0.74,2.94,0.95,4.51,1.02c3.9,0.19,7.73-0.07,11.37-1.62c0.27-0.12,0.75,0,0.76-0.39
		c0-0.2-0.47-0.21-0.73-0.31c-0.22-0.08-0.45-0.17-0.63-0.33c-0.21-0.27-0.02-0.42,0.16-0.57c1.71-1.43,1.86-2.72,0.51-4.31
		c1.87-1.4,1.96-1.9,0.98-4.19c-0.3-0.71,0.56-0.79,0.88-1.11c0.27-0.27,0.66,0.13,0.71,0.52c0.12,0.82-0.34,1.92,1.05,2.13
		c0.05,0.01-0.02,0.45,0.06,0.66c0.31,0.92,1.42,1.39,1.41,2.54c0,0.13,0.82,0.12,1.23-0.08c0.68-0.33,1.16-0.01,1.27,0.58
		c0.13,0.69-0.54,0.37-0.86,0.42c-0.84,0.12-1.29,0.69-1.46,1.4c-0.57,2.39-1.9,3.68-4.29,4.72c-1.91,0.83-3.76,1.78-5.81,2.03
		c-4.62,0.57-9.11,0.08-13.1-2.55c-3.04-2-3.99-5.34-2.6-8.69c0.09-0.22,0.08-0.86,0.43-0.58c0.26,0.21,0.9,0.59,0.56,1.21
		c-0.09,0.17-0.26,0.29-0.4,0.43c-0.15,0.22,0.04,0.43,0.02,0.64c-0.12,1.33,0.31,2.19,1.39,2.75c1.19,0.62,2.31,0.42,3.36-0.35
		c0.35-0.26,0.58-0.66,0.94-0.92c0.17-0.1,0.48-0.01,0.52-0.23c0.19-1.12,0.8-0.99,1.55-0.58c0.09,0.05,0.27,0.17,0.29,0.1
		c0.04-0.18-0.16-0.21-0.29-0.27c-0.51-0.24-1.12-0.03-1.61-0.37C472.36,272.27,471.84,271.8,471.98,271.08z"/>
	<path style="fill-rule:evenodd;clip-rule:evenodd;fill:#F7EE0A;" d="M486.95,287.65c0.08-0.02,0.14,0,0.18,0.08
		c0.11,0.07,0.2,0.16,0.34,0.16c0.07-0.02,0.12,0,0.14,0.08c0.14,0.09,0.33,0.07,0.45,0.2l0.03,0.01c0.13,0.13,0.34,0.08,0.46,0.22
		l0.02,0.01c0.13,0.13,0.34,0.09,0.47,0.22l0.01,0.01c0.13,0.16,0.35,0.11,0.5,0.22c1.7,0.84,3.6,1.64,5.31,1.9
		c2.54,0.38,4.98,1.5,7.61,1.3c1.33-0.1,2.02,0.34,1.96,1.86c-0.11,2.63-0.05,5.28-0.07,7.92c-0.5,0.09-0.69-0.32-0.94-0.61
		c-1.28-1.49-2.89-2.49-4.67-3.27c-0.44-0.19-0.88-0.39-1.32-0.57c-3.4-1.34-6.13-3.52-8.22-6.53c-0.69-0.99-1.54-1.83-2.51-2.55
		c-0.18-0.13-0.41-0.32-0.28-0.59C486.54,287.49,486.76,287.58,486.95,287.65z"/>
	<path style="fill-rule:evenodd;clip-rule:evenodd;fill:#F7ED0A;" d="M490.48,261.55c0.04-0.07,0.09-0.09,0.16-0.06
		c0.13-0.02,0.21-0.1,0.32-0.16c0.05-0.07,0.11-0.1,0.2-0.07c0.16-0.1,0.37-0.07,0.53-0.19c0.06-0.07,0.12-0.08,0.21-0.05
		c0.26-0.14,0.51-0.14,0.77-0.01l0,0.01c0.13,0.21,0.09,0.43,0.08,0.66c-0.95,0.16-1.47,1.03-2.29,1.4
		c-0.09,0.04-0.19,0.08-0.29,0.11c-0.19,0.07-0.36,0.17-0.49,0.33c-0.42,0.48-0.39,0.98-0.12,1.5c0.09,0.12,0.2,0.22,0.34,0.3
		c0.15,0.07,0.29,0.16,0.41,0.28c0.1,0.34,0.34,0.73-0.32,0.73c-0.07-0.03-0.15-0.05-0.22-0.08c-0.1-0.05-0.19-0.1-0.29-0.15
		c-4.05-1.7-8.3-2.57-12.66-2.93c-0.27-0.19-0.57-0.07-0.86-0.1c-0.41-0.01-0.83,0.03-1.24-0.03c-0.07-0.98,0.78-1.13,1.36-1.52
		c0.16-0.12,0.33-0.21,0.51-0.3c0.39-0.19,0.66-0.45,0.54-0.93c-0.13-0.5-0.52-0.68-0.98-0.74c-0.32-0.04-0.63,0.1-0.95,0.12
		c-0.41-0.19-0.87,0.56-1.26-0.06c0.13-0.15,0.24-0.31,0.38-0.45c2.17-2.15,3.16-3.45,5.51,0.01c0.65,0.96,1.57,1.14,2.56,0.33
		c0.88-0.71,2-0.94,3-1.42c1.13-0.54,1.55-0.14,1.74,0.95c0.11,0.62,0.36,1.21,0.47,1.83c0.17,0.96,0.63,1.41,1.63,1.12
		c0.23-0.17,0.56,0.01,0.76-0.23l0,0C490.13,261.63,490.34,261.67,490.48,261.55z"/>
	<path style="fill-rule:evenodd;clip-rule:evenodd;fill:#F3B6D2;" d="M458.66,278.51c1,0.28,2.04,0.58,3.08,0.86
		c0.81,0.21,1.7,0.7,2.43,0.52c2.55-0.61,4.45,0.89,6.56,1.72c0.85,0.33,1.74,0.54,2.62,0.8c0.3,0.09,0.71,0.12,0.54,0.58
		c-0.16,0.44-0.53,0.42-0.89,0.24c-0.42-0.22-0.81-0.53-1.24-0.7c-1.03-0.41-1.83-0.18-2.35,0.9c-0.64,1.32-1.58,2.08-3.22,1.74
		c-1.48-0.3-3.01-0.35-4.51-0.55c-1.11-0.15-2.18-0.49-3.15-1.08c-0.63-0.38-0.88-0.75-0.2-1.34c0.73-0.64,0.7-1.05-0.36-1.31
		c-0.39-0.09-1.31,0.3-1.17-0.65C456.93,279.25,457.6,278.68,458.66,278.51z"/>
	<path style="fill-rule:evenodd;clip-rule:evenodd;fill:#13B3D7;" d="M472.23,297.22c0.81-0.79,1.82-1.23,2.89-1.54
		c0.3,0.11,0.55,0,0.79-0.18c0.22-0.05,0.48,0.06,0.66-0.18c0.08-0.04,0.16-0.08,0.23-0.11c0.26,0.02,0.53,0.11,0.76-0.11
		c0.22-0.05,0.44-0.1,0.67-0.15c0.34,0.06,0.67,0.15,0.99-0.06c1.33-0.4,1.74-1.7,2.51-2.63c0.78-0.95,1.32-0.75,1.97,0.05
		c0.89,1.09,1.35,1.99,0.37,3.52c-1.07,1.67-2.26,2.78-4.14,3.29c-2,0.54-3.97,1.19-5.95,1.79c-0.18-0.11-0.14-0.35-0.27-0.49
		c-0.41-0.77-0.82-1.55-1.22-2.32c-0.05-0.13-0.14-0.24-0.26-0.32l0.02,0.02C472.09,297.59,472.11,297.41,472.23,297.22z"/>
	<path style="fill-rule:evenodd;clip-rule:evenodd;fill:#F3B6D2;" d="M493.39,285.3c-2.06,0.04-2.29-0.17-3.11-2.75
		c-0.58-1.84-0.56-1.75,1.35-2.1c2.03-0.37,4.03-0.9,6.03-1.44c0.7-0.19,0.98-0.18,1.01,0.66c0.05,1.2,0.36,2.38,1.13,3.34
		c0.5,0.62,0.15,0.78-0.36,0.99C497.51,284.85,495.49,285.24,493.39,285.3z"/>
	<path style="fill-rule:evenodd;clip-rule:evenodd;fill:#F8DD0C;" d="M486.95,287.65c-0.12,0.06-0.43,0.11-0.3,0.2
		c2.74,1.86,4.04,5.11,6.76,7c1.49,1.03,3.11,1.82,4.75,2.5c2.45,1.02,4.58,2.37,6.2,4.48c0.11,0.71,0.08,1.38-0.46,1.93
		c-0.11,0.07-0.22,0.07-0.33,0.02c-1.56-2.6-4.05-3.97-6.76-5.03c-4.1-1.6-6.94-4.68-9.57-8.05c-2.06-2.63-4.75-4.19-8.17-4.36
		c-0.92-0.04-1.74,0.22-2.45,0.77c-0.39,0.3-0.76,0.6-1.28,0.34l-0.11,0.02l-0.09-0.06c-0.13-0.11-0.35-0.17-0.23-0.42
		c0.05-0.06,0.11-0.09,0.19-0.06c0.1-0.05,0.19-0.11,0.28-0.18c0.02-0.07,0.07-0.09,0.14-0.08c0.15-0.01,0.25-0.1,0.34-0.21
		l0.01-0.01c0.08-0.07,0.16-0.14,0.24-0.2l0.04-0.03c0.06-0.08,0.12-0.15,0.2-0.2l0.04-0.04c0.05-0.08,0.11-0.13,0.19-0.17
		c0.15-0.03,0.3-0.05,0.46-0.08c0.38-0.23,0.84,0.02,1.23-0.19c1.13-0.12,2.25-0.13,3.38,0c0.25,0.14,0.55,0.05,0.81,0.17
		c0.13,0.02,0.26,0.04,0.38,0.06c0.15,0.13,0.36,0.08,0.51,0.19c0.08-0.03,0.16,0,0.21,0.07c0.08,0.05,0.16,0.11,0.24,0.18
		l0.01,0.02c0.12,0.15,0.08,0.43,0.36,0.46c0.08,0,0.16-0.01,0.24-0.01c0.11-0.05,0.21-0.04,0.3,0.05l0.04,0.04
		c0.17,0.08,0.37,0.06,0.53,0.17C485.87,287.04,486.43,287.3,486.95,287.65z"/>
	<path style="fill-rule:evenodd;clip-rule:evenodd;fill:#BE692C;" d="M454.95,291.05c0-1.92,0-3.84,0-5.76
		c0-0.19-0.01-0.51,0.08-0.54c0.3-0.13,0.37,0.2,0.48,0.38c1.1,1.76,2.22,3.51,3.01,5.44c0.23,0.57,0.55,1.05,1.09,1.38
		c1.4,0.83,1.5,1.43,0.11,2.24c-1.36,0.79-2.36,2.03-3.75,2.73c-0.31,0.15-0.58,0.62-0.9,0.41c-0.18-0.12-0.11-0.65-0.11-1
		C454.95,294.57,454.96,292.81,454.95,291.05C454.96,291.05,454.95,291.05,454.95,291.05z"/>
	<path style="fill-rule:evenodd;clip-rule:evenodd;fill:#F8B58E;" d="M463.79,297c0.33,0.23,0.9,0.49,1.29,0.92
		c0.66,0.73,2,0.57,2.22,1.97c0.09,0.57,1.13,0.31,1.75,0.24c0.27-0.03,0.67-0.22,0.77-0.11c0.22,0.24-0.13,0.47-0.25,0.69
		c-1.08,1.88-2.9,2.89-4.7,3.9c-0.23,0.13-0.62,0.27-0.76,0c-0.15-0.29,0.25-0.43,0.44-0.62c0.5-0.49,1.71-0.77,1.21-1.56
		c-0.3-0.47-1.15,0.51-1.76,0.81c-0.04,0.02-0.06,0.05-0.1,0.07c-0.6,0.37-1.38,1.11-1.87,0.57c-0.3-0.34,0.85-0.67,1.3-1.07
		c0.15-0.13,0.34-0.23,0.46-0.38c0.21-0.26,0.63-0.54,0.38-0.9c-0.24-0.33-0.58,0.05-0.85,0.15c-0.71,0.26-1.38,0.62-2.1,0.86
		c-0.3,0.1-0.81,0.24-0.92-0.18c-0.1-0.36,0.42-0.38,0.68-0.51c0.39-0.19,0.81-0.33,1.18-0.56c0.23-0.14,0.49-0.42,0.36-0.69
		c-0.18-0.37-0.48-0.07-0.72,0.01c-0.79,0.26-1.55,0.68-2.42,0.61c-0.22-0.02-0.54,0.06-0.61-0.23c-0.07-0.32,0.27-0.35,0.47-0.43
		c1.03-0.44,2.11-0.77,3.08-1.31c0.69-0.38,1.95-0.68,1-1.99C463.14,297.01,463.31,296.91,463.79,297z"/>
	<path style="fill-rule:evenodd;clip-rule:evenodd;fill:#AD3C95;" d="M493.59,268.43c0.64-0.3,0.63,0.3,0.76,0.6
		c1.22,2.73,2.4,5.47,3.65,8.18c0.32,0.7,0.09,0.91-0.52,1.09c-2.17,0.65-4.36,1.24-6.6,1.58c-0.18,0.03-0.38,0-0.57,0
		c0.08-0.17,0.13-0.37,0.26-0.5c0.71-0.73,1.16-1.62,1.56-2.53c0.47-1.06,0.87-2.02,2.29-2.26c1.11-0.18,1.07-1.12-0.19-2.08
		c-0.7-0.54-0.98-1.09-0.81-1.91C493.62,269.91,493.32,269.15,493.59,268.43z"/>
	<path style="fill-rule:evenodd;clip-rule:evenodd;fill:#F58E21;" d="M499.13,305.63c-1.53,0.04-2.98-0.21-4.37-0.92
		c-0.51-0.26-1.13-0.38-1.71-0.45c-2.98-0.35-5.04-1.79-5.79-4.81c-0.22-0.88-0.43-1.77-0.65-2.65c0.53-0.18,0.84,0.21,1.13,0.49
		c2.33,2.22,5.37,3.42,7.79,5.5c0.49,0.42,1.13,0.57,1.77,0.65c0.69,0.09,1.33,0.33,1.82,0.83
		C499.55,304.69,499.89,305.18,499.13,305.63z"/>
	<path style="fill-rule:evenodd;clip-rule:evenodd;fill:#9B672D;" d="M460,265.83c-0.34-0.07-0.67-0.13-1.01-0.2
		c-0.51-0.38-0.18-1-0.41-1.46c0.04-1.74,0.79-2.2,2.53-1.79c1.77,0.42,3.64,0,5.46-0.1c0.47-0.03,1.15-0.35,1.31,0.39
		c0.18,0.86,0.76,1.64,0.22,2.67c-0.63,1.18-1.44,1.07-2.42,0.78c0.04-0.09,0.1-0.11,0.18-0.09c0.04,0.01,0.01-0.08-0.08-0.07
		c-1.28,0.05-2.57-0.12-3.85,0.09c-0.43,0.01-0.87,0.06-1.27-0.18c0.15-0.16,0.31-0.24,0.5-0.03c-0.12-0.24-0.33-0.1-0.5-0.11
		C460.44,265.71,460.2,265.66,460,265.83z"/>
	<path style="fill-rule:evenodd;clip-rule:evenodd;fill:#565956;" d="M456.39,281.4c0.5,0.15,1.06-0.22,1.29,0.26
		c0.18,0.36-0.35,0.56-0.57,0.82c-0.46,0.53-0.1,0.88,0.24,1.22c0.71,0.7,1.65,0.96,2.56,1.25c0.68,0.22,0.61,0.45,0.17,0.88
		c-0.94,0.91-0.71,1.72,0.58,2.09c0.34,0.1,0.71,0.14,1.06,0.18c0.58,0.07,1.67-0.31,0.5,0.9c-0.76,0.79,0.27,1.15,0.8,1.23
		c1.08,0.15,0.81,0.6,0.37,1.12c-0.37,0.44-0.8,0.83-1.2,1.25c-0.92-0.98-2.49-1.13-3.14-2.49c-0.62-1.29-1.26-2.58-1.96-3.83
		c-0.48-0.87-0.98-1.77-1.64-2.49c-0.58-0.64-0.63-1.32-0.45-1.99C455.23,281.04,456.01,281.68,456.39,281.4z"/>
	<path style="fill-rule:evenodd;clip-rule:evenodd;fill:#EE7522;" d="M504.38,263.02c0,2.75,0.1,4.96-0.04,7.15
		c-0.06,0.94-1.25,0.74-1.9,1.03c-0.58,0.26-0.36-0.49-0.41-0.81c-0.1-0.67,0.11-1.29,0.53-1.79c0.64-0.76,0.47-1.39-0.35-1.71
		c-1-0.39-0.74-0.96-0.4-1.59c0.2-0.39,0.47-0.74,0.71-1.11c0.79-1.15,1.46-2.26-0.37-3.13c-0.61-0.29-0.66-0.85-0.37-1.43
		c0.35-0.71,0.73-1.41,1.07-2.13c0.39-0.85,0.43-1.64-0.57-2.12c-0.44-0.21-0.91-0.36-0.83-1c0.04-0.33,0.26-0.4,0.51-0.3
		c0.48,0.18,1,0.14,1.28,0.85C504.32,257.73,504.7,260.6,504.38,263.02z"/>
	<path style="fill-rule:evenodd;clip-rule:evenodd;fill:#14B3D7;" d="M475.84,293.21c1.82-0.43,3.24-1.29,3.63-3.3
		c0.12-0.61,0.52-0.33,0.81-0.17c0.45,0.25,0.87,0.54,1.31,0.81c0.15,0.17,0.13,0.33,0.01,0.51l0.01-0.02
		c-0.11,0.08-0.2,0.19-0.25,0.32c-0.7,0.86-1.39,1.72-2.09,2.58c-0.56,0.29-1.22-0.09-1.78,0.23c-1.83,0.43-3.53,1.2-5.19,2.06
		c-1.04,0.54-1.82,0.18-2.16-0.85c-0.54-1.62-0.98-3.27-0.76-5.01c0.07-0.11,0.13-0.11,0.2,0c0.26,0.53,0.79,0.79,1.21,1.16
		c0.1,0.09,0.19,0.18,0.31,0.24c0.03,0.03,0.09,0.06,0.08,0.08c-0.23,1.8,0.7,2.04,2.14,1.59
		C474.15,293.15,475.02,293.5,475.84,293.21z"/>
	<path style="fill-rule:evenodd;clip-rule:evenodd;fill:#ECEDDA;" d="M481.5,303.13c1.78,0.51,2.19,0.2,1.99-1.48
		c-0.09-0.13-0.07-0.24,0.04-0.35c1.86,1.46,2.99,3.53,4.23,5.44c0.87,1.34,1.5,2.87,2.4,4.23c-1.03,0.19-2.06,0.17-3.1,0.01
		c-2.46-2.19-4.01-5.03-5.54-7.88L481.5,303.13z"/>
	<path style="fill-rule:evenodd;clip-rule:evenodd;fill:#14B3D7;" d="M482.8,307.81c-0.19,0.05-0.38,0.11-0.58,0.15
		c-1.02,0.18-2.07,0.61-3.04,0.46c-1.06-0.17-0.91-1.55-1.4-2.33c-1.03-1.66-2.7-2.26-4.28-3.05c-0.23-0.46,0.46-0.27,0.41-0.59
		c0.4-1.06,1.08-0.73,1.7-0.29c0.97,0.68,1.92,1.11,3,0.25c0.09-0.07,0.39-0.07,0.42-0.01c0.73,1.36,2.78,1.5,3.05,3.27
		c0.14,0.15,0.09,0.37,0.23,0.52c0.17,0.38,0.34,0.75,0.51,1.13C482.92,307.47,482.94,307.64,482.8,307.81z"/>
	<path style="fill-rule:evenodd;clip-rule:evenodd;fill:#ED4A63;" d="M462.44,311.2c-0.56-0.02-1.02,0.28-0.63-0.73
		c0.32-0.83-0.45-2.01,0.41-2.96c0.04-0.05-0.72-0.86-1.14-1.28c-0.51-0.5-1.09-0.95-1.39-1.62c-0.2-0.46-0.66-1.15-0.27-1.4
		c0.47-0.29,0.34,0.66,0.74,0.84c0.1,0.05,0.18,0.2,0.28,0.22c1.76,0.32,3.26,1.97,5.29,0.97c0.81-0.4,1.55,0.21,2.04,0.66
		c0.45,0.41-0.3,0.87-0.57,1.26c-0.66,0.95-1.18,2.05-2.52,2.32c-0.5,0.1-0.88,0.57-1.11,1.04
		C463.3,311.06,462.96,311.33,462.44,311.2z"/>
	<path style="fill-rule:evenodd;clip-rule:evenodd;fill:#AD3C95;" d="M455.48,265.13c-0.52-2.11-0.58-4.25-0.51-6.41
		c0.01-0.27-0.02-0.67,0.12-0.76c0.27-0.17,0.48,0.18,0.67,0.36c0.77,0.76,1.5,1.55,2.27,2.31c0.26,0.26,0.31,0.54,0.25,0.87
		c-0.5,2.86-0.9,5.73-1.75,8.52c-0.19,0.64-0.45,0.98-1.15,0.86c-0.72-0.12-0.35-0.68-0.39-1.05c-0.13-0.98,0.43-1.85,0.5-2.8
		C455.62,266.4,455.61,265.76,455.48,265.13z"/>
	<path style="fill-rule:evenodd;clip-rule:evenodd;fill:#F8B58D;" d="M502.35,275.93c0.53-0.01,0.98,0.1,0.88,0.92
		c-0.08,0.64,0.15,1.25,0.69,1.69c0.19,0.15,0.66,0.18,0.38,0.55c-0.23,0.29-0.59,0.55-1.04,0.31c-0.68-0.35-1.68-1.25-2.03-0.52
		c-0.31,0.64,1.1,0.98,1.78,1.23c1.87,0.67,1.36,2.16,1.39,3.47c0.03,1.79,0.01,1.79-1.5,1.04c-3.57-1.78-4.17-5.82-1.27-8.53
		C501.83,275.89,502.02,275.85,502.35,275.93z"/>
	<path style="fill-rule:evenodd;clip-rule:evenodd;fill:#F8D60C;" d="M475.31,287.46c0.83,0.14,0.98-0.81,1.65-1.02
		c3.16-0.98,5.8,0.09,8.32,1.91c2.11,1.52,3.38,3.77,5.1,5.63c2.17,2.35,4.88,3.79,7.75,5.01c2.35,1,4.48,2.26,5.54,4.77
		c0.06,0.06,0.09,0.12,0.07,0.19c-0.02,0.07-0.03,0.1-0.05,0.1c-0.04,0.07-0.07,0.13-0.11,0.2c-0.02,0.09-0.07,0.15-0.16,0.18
		l-0.03,0.04c-0.06,0.08-0.13,0.16-0.2,0.23l-0.01,0.01c-0.25,0.06-0.39-0.09-0.45-0.28c-0.64-2.06-2.32-3.07-4.05-4.01
		c-1.26-0.69-2.61-1.2-3.9-1.83c-2.75-1.35-4.94-3.34-6.76-5.76c-1.15-1.53-2.32-3.05-3.97-4.1c-1.36-0.87-2.8-1.48-4.47-1.48
		c-0.88,0-1.65,0.19-2.35,0.69C476.56,287.93,475.92,287.74,475.31,287.46z"/>
	<path style="fill-rule:evenodd;clip-rule:evenodd;fill:#F7A31E;" d="M499.13,305.63c0.56-1.6-0.86-1.67-1.65-1.8
		c-1.26-0.2-2.15-0.82-3.12-1.54c-1.58-1.18-3.32-2.15-4.95-3.27c-0.97-0.67-1.86-1.47-2.79-2.21c-0.4-1.2-0.8-2.4-1.21-3.6
		c0.75-0.16,1.1,0.44,1.43,0.87c2.97,3.86,7.06,6.14,11.34,8.15c1.15,0.54,2.15,1.21,2.76,2.36c0.16,0.29,0.35,0.53,0.67,0.64
		c0.1,0.07,0.17,0.15,0.22,0.26C500.95,305.84,500.04,305.66,499.13,305.63z"/>
	<path style="fill-rule:evenodd;clip-rule:evenodd;fill:#ED4A62;" d="M464.38,287.94c1.45,0.37,2.73,0.28,4,0.31
		c0.32,0.01,0.7-0.15,0.55,0.53c-0.55,2.41-1.39,4.43-4.28,4.86c-1.36,0.2-2.64,0.86-3.97,1.3c-0.18,0.06-0.38,0.04-0.57,0.05
		c0.1-0.16,0.17-0.37,0.31-0.49c0.68-0.56,1.21-1.24,2.2-1.47c1.25-0.3,1.82-1.48,2.23-2.63c0.23-0.64-0.38-0.65-0.75-0.82
		c-0.34-0.15-1.12,0.25-0.98-0.42C463.25,288.57,463.81,288.04,464.38,287.94z"/>
	<path style="fill-rule:evenodd;clip-rule:evenodd;fill:#01B0D8;" d="M476.22,253.9c0.19,0.77,0.25,1.45-0.72,1.77
		c-0.27,0.09-0.58,0.35-0.15,0.72c0.17,0.15,0.72-0.07,0.5,0.33c-0.17,0.31-0.48,0.66-1.04,0.62c-3.03-0.27-5.44-2.2-6.33-5.22
		c-0.1-0.33-0.49-0.83-0.12-1.06c0.36-0.22,0.99-0.27,1.35,0.08c0.36,0.35,0.64,0.41,1.03,0.14c0.67,0.33,0.85,1.11,1.42,1.53
		C473.22,254.28,474.69,254.19,476.22,253.9z"/>
	<path style="fill-rule:evenodd;clip-rule:evenodd;fill:#F18DBA;" d="M487.63,257.67c-0.81-1.66-1.91-0.42-2.91-0.3
		c-0.08-0.05-0.11-0.09-0.09-0.14c0.03-0.05,0.05-0.08,0.08-0.08c1.99-1.43,3.4-3.2,3.39-5.8c0-0.54,0.41-0.39,0.69-0.39
		c1.04,0,2.08,0.02,3.11,0.03c-0.06,1.83-0.58,3.54-1.67,5.01C489.6,256.87,488.82,257.64,487.63,257.67z"/>
	<path style="fill-rule:evenodd;clip-rule:evenodd;fill:#B84699;" d="M494.55,251c0.04-0.01,0.09-0.03,0.12-0.02
		c1.32,1.03,0.67,2.62,1.09,3.91c0.19,0.58-0.1,0.88-0.64,1.04c-0.62,0.19-1.17,0.51-1.56,1.04c-0.43,0.58-0.45,1.25,0.22,1.51
		c1.09,0.41,0.54,1.12,0.49,1.74c-0.03,0.43-0.4,0.45-0.58,0.2c-0.66-0.91-1.44-0.38-2.15-0.2c-0.69,0.17-1.36,0.45-2,0.75
		c-0.76,0.36-1.1,0.11-1.17-0.67c0.14-0.39,0.4-0.67,0.78-0.86c2.8-1.35,4.14-3.71,4.62-6.68
		C493.88,252.13,493.82,251.38,494.55,251z"/>
	<path style="fill-rule:evenodd;clip-rule:evenodd;fill:#A3328F;" d="M499.58,263.87c0.13-0.27,0.55-0.69,0.57-0.55
		c0.09,0.73,1.3,0.83,0.95,1.65c-0.46,1.08-0.66,1.97,0.69,2.54c0.45,0.19,0.58,0.68,0.18,0.97c-1.6,1.2-0.67,2.55-0.3,3.88
		c0.17,0.6,0.87,1.17,0.49,1.77c-0.78,1.2-1.49,2.47-2.63,3.39c-0.37,0.3-0.55-0.07-0.65-0.4c-0.3-0.51,0.13-0.73,0.43-0.94
		c1.1-0.78,1.26-1.85,1.01-3.06c-0.11-0.54-0.24-1.09-0.45-1.6c-0.86-2.07-0.82-4.26-0.92-6.43c-0.05-0.11-0.1-0.22-0.14-0.33
		c-0.08-0.29,0.1-0.44,0.31-0.57l0,0C499.25,264.02,499.49,264.07,499.58,263.87z"/>
	<path style="fill-rule:evenodd;clip-rule:evenodd;fill:#922885;" d="M498.88,264.64c0.41,0.06,0.5,0.35,0.47,0.7
		c-0.19,2.51,0.42,4.88,1.19,7.23c0.55,1.69,0.43,3.25-1.46,4.13c-0.11,0.05-0.14,0.27-0.2,0.41c-0.85-1.25-1.42-2.62-1.96-4.02
		c-0.06-0.17-0.01-0.32,0.15-0.39c0.96-0.39,1.23-1.21,1.19-2.12c-0.06-1.67,0.38-3.3,0.29-4.97
		C498.54,265.26,498.56,264.89,498.88,264.64z"/>
	<path style="fill-rule:evenodd;clip-rule:evenodd;fill:#F8B31A;" d="M501.53,305.41c-0.34,0.04-0.6,0.01-0.75-0.39
		c-0.45-1.26-1.47-1.92-2.62-2.46c-4.35-2.02-8.52-4.31-11.51-8.24c-0.33-0.43-0.82-0.74-1.24-1.11c-1.09-1.86-2.7-3.13-4.62-4.04
		c0.39-0.78,0.99-0.5,1.54-0.26c1.81,0.79,3.25,2.09,4.32,3.69c2.13,3.18,4.99,5.43,8.32,7.2c1.48,0.79,2.98,1.52,4.45,2.32
		c0.86,0.47,1.53,1.14,2.04,1.98C501.72,304.51,501.92,304.95,501.53,305.41z"/>
	<path style="fill-rule:evenodd;clip-rule:evenodd;fill:#F9CC0F;" d="M477.23,287.95c0.57-1.03,2.12-1.33,3.94-0.86
		c3.12,0.82,5.24,2.92,7.02,5.43c2.31,3.27,5.44,5.43,9.1,6.9c1.38,0.55,2.65,1.3,3.84,2.17c1.06,0.78,1.68,1.88,2.06,3.12
		c-0.13,0.3-0.37,0.45-0.67,0.54c-0.11-0.05-0.19-0.14-0.25-0.24c-0.45-1.82-1.8-2.88-3.32-3.73c-1.36-0.76-2.79-1.39-4.19-2.07
		c-3.4-1.64-5.97-4.21-8.14-7.25c-0.84-1.18-1.9-2.19-3.13-2.94c-1.7-1.04-3.53-1.64-5.54-0.86l-0.11,0.02l-0.1-0.06
		c-0.15-0.12-0.35-0.1-0.51-0.18H477.23z"/>
	<path style="fill-rule:evenodd;clip-rule:evenodd;fill:#F2B6D1;" d="M487.12,286.03c-1.13,0.03-2.22,0.16-2.62-1.41
		c-0.35-1.35-1.69-0.98-2.71-1.09c-0.25-0.03-0.68,0.16-0.7-0.2c-0.02-0.32,0.44-0.24,0.68-0.3c1.61-0.4,3.25-0.72,4.76-1.45
		c0.52-0.25,0.68-0.1,0.87,0.35c0.41,0.98,0.8,1.98,1.33,2.9c0.5,0.88,0.44,1.27-0.65,1.2
		C487.75,286.02,487.44,286.03,487.12,286.03z"/>
	<path style="fill-rule:evenodd;clip-rule:evenodd;fill:#F48523;" d="M474.43,257.98c-0.45,0.6-0.92,0.96-1.67,0.37
		c-0.25-0.19-0.69-0.15-1.04-0.2c-3.6-0.5-6-2.99-6.34-6.59c-0.04-0.38-0.04-0.7,0.42-0.59c0.56,0.14,1.36-0.52,1.68,0.49
		c0.26,0.83,0.53,1.66,0.85,2.46c1.02,2.56,3.24,3.41,5.68,3.93C474.18,257.81,474.34,257.76,474.43,257.98z"/>
	<path style="fill-rule:evenodd;clip-rule:evenodd;fill:#14B3D7;" d="M485.43,296.32c0.05,0.04,0.06,0.09,0.05,0.15
		c0.01,0.14,0.11,0.24,0.18,0.36c0.02,0.12,0.04,0.24,0.06,0.36c0.01,0.14,0.11,0.24,0.18,0.36c0.02,0.13,0.03,0.26,0.05,0.38
		c0.1,0.17,0.06,0.39,0.2,0.54c0.6,1.46,1.06,2.98,2.05,4.27c0.51,0.67,0.07,1.45-0.21,2.15c-0.09,0.23-0.29,0.23-0.46,0.02
		c-1.25-1.53-2.3-3.22-3.63-4.71c-0.43-0.48-0.72-2.45,0.58-3.44c0.29-0.22,0.46-0.61,0.68-0.93
		C485.34,295.95,485.29,296.19,485.43,296.32z"/>
	<path style="fill-rule:evenodd;clip-rule:evenodd;fill:#E87FB2;" d="M470.23,259.64c-0.07,0.02-0.12-0.01-0.15-0.07
		c-0.1-0.07-0.19-0.15-0.31-0.18c-0.71-0.24-1.42-0.51-2.14-0.69c-0.5-0.13-0.98-0.08-0.92,0.66c-0.12,0.08-0.23,0.06-0.33-0.04
		c-0.29-0.67-0.76-1.17-1.27-1.68c-1.83-1.83-2.34-4.14-2.21-6.64c1.08-0.2,1.63-0.06,1.77,1.34c0.39,3.9,3.05,5.75,6.62,6.57
		c0.16,0.12,0.37,0.1,0.55,0.18c0.14,0.03,0.28,0.05,0.41,0.08c0.17,0.1,0.39,0.16,0.24,0.43l0,0c-0.59,0.1-1.12,0.5-1.76,0.28
		l-0.09,0l-0.07-0.06C470.46,259.73,470.37,259.65,470.23,259.64z"/>
	<path style="fill-rule:evenodd;clip-rule:evenodd;fill:#FABD16;" d="M501.53,305.41c-0.24-2.05-1.83-2.81-3.4-3.61
		c-3.58-1.84-7.23-3.57-9.94-6.69c-1.27-1.47-2.19-3.25-3.76-4.45c-1.06-0.81-2-2-3.62-1.48l-0.09,0l-0.06-0.07
		c-0.14-0.13-0.36-0.09-0.51-0.21l-0.12,0l-0.1-0.07c-0.11-0.06-0.2-0.15-0.33-0.16c-0.23-0.08-0.47-0.15-0.7-0.23
		c0.42-0.61,1-0.68,1.69-0.58c2.31,0.34,4.03,1.66,5.53,3.32c0.67,0.74,1.27,1.54,1.85,2.35c1.97,2.73,4.65,4.56,7.63,6.01
		c1.15,0.56,2.31,1.1,3.43,1.72c1.61,0.89,2.95,2.04,3.46,3.91l0.06,0.09c-0.18,0.23-0.43,0.25-0.69,0.23
		C501.74,305.46,501.63,305.43,501.53,305.41z"/>
	<path style="fill-rule:evenodd;clip-rule:evenodd;fill:#B23F96;" d="M465.05,277.1c0.29,0.63,0.98,1.62,0.8,1.81
		c-0.51,0.56-1.4,0.17-2.13,0.09c-1.54-0.17-2.98-0.76-4.44-1.24c0.17-3.35-0.79-6.81,1-10.01c0.24-0.43,0.35-0.9,0.97-0.84
		c0.7,0.4,0.26,0.91,0.06,1.32c-0.43,0.9-0.88,1.82-1.01,2.8c-0.29,2.18,0.39,4.73,2.53,5.67
		C463.56,277.04,464.32,276.93,465.05,277.1z"/>
	<path style="fill-rule:evenodd;clip-rule:evenodd;fill:#FAC512;" d="M502.46,305.17c-1.64-3.51-5.22-4.48-8.24-6.06
		c-3.57-1.86-5.95-4.78-8.34-7.82c-1.26-1.59-2.94-2.74-5.04-3.14c-0.72-0.13-1.32,0.1-1.96,0.29c-0.33,0.02-0.65-0.02-0.91-0.26
		c1.44-1.41,3.71-0.6,5.94,0.77c1.61,0.99,2.82,2.46,3.9,3.99c2.06,2.91,4.81,4.92,7.99,6.43c2,0.96,4.15,1.71,5.66,3.49
		C502.04,303.53,502.64,304.18,502.46,305.17z"/>
	<path style="fill-rule:evenodd;clip-rule:evenodd;fill:#03B3DB;" d="M482.63,251.41c0.64-0.95,1.57-0.36,2.35-0.34
		c0.17,0-0.06,0.88-0.24,1.33c-0.82,2.01-2.31,3.38-4.21,4.33c-0.3,0.15-0.69,0.23-1.03,0.22c-0.57-0.02-1.19-0.25-1.39-0.77
		c-0.23-0.58,0.42-0.83,0.81-1.13c1.04-0.35,2.07-0.74,2.91-1.5l-0.01,0.04C482.22,252.92,482.44,252.17,482.63,251.41z"/>
	<path style="fill-rule:evenodd;clip-rule:evenodd;fill:#FDFDFD;" d="M487.14,270.29c0.02,0.63-0.14,0.78-0.84,0.7
		c-0.41-0.05-1.75-0.7-1.35,0.87c0.07,0.27-0.19,0.29-0.39,0.28c-1.03-0.01-1.85-0.44-2.43-1.28c-0.38-0.55-0.59-1.21-0.13-1.78
		c0.57-0.71,1.33-0.76,2.27-0.84c1.15-0.09,1.88,0.07,2.51,0.95C487.02,269.52,487.19,269.88,487.14,270.29z"/>
	<path style="fill-rule:evenodd;clip-rule:evenodd;fill:#F7E30D;" d="M471.53,304.75c2.01-0.58,5.28,1.84,4.97,3.76
		c-0.14,0.84-1.29,0.56-1.82,1.06c-0.61,0.56-1.11,0.5-1.5-0.25c-0.14-0.19-0.29-0.19-0.46-0.05l-0.01,0.01
		c-0.67-0.14-0.58-0.69-0.5-1.1C472.48,306.92,472.25,305.79,471.53,304.75z"/>
	<path style="fill-rule:evenodd;clip-rule:evenodd;fill:#AE3C95;" d="M499.52,250.96c0.56,0,1.12-0.04,1.67,0.01
		c0.47,0.04,1.29-0.27,1.33,0.21c0.04,0.45-0.59,1.13-1.16,1.22c-1.6,0.27-2.72,1.25-3.85,2.25c-0.65,0.58-0.89,0.34-1.05-0.42
		C495.79,250.96,495.78,250.96,499.52,250.96z"/>
	<path style="fill-rule:evenodd;clip-rule:evenodd;fill:#692363;" d="M496.25,271.59c-0.46-1.05-0.94-2.1-1.37-3.16
		c-0.09-0.23-0.11-0.73-0.01-0.78c1.36-0.61,1.28-2.39,2.52-3.07c0.83,0.35,0.89,1.09,0.8,1.81c-0.17,1.38-0.36,2.76-0.71,4.12
		C497.34,271.12,497.17,271.82,496.25,271.59z"/>
	<path style="fill-rule:evenodd;clip-rule:evenodd;fill:#FBFAFA;" d="M468.9,271.05c-0.83,0.11-1.58-0.18-1.81-1.26
		c-0.2-0.95,0.12-1.74,0.93-2.27c0.59-0.38,3.27,0.4,3.62,1.01c0.29,0.49-0.14,0.38-0.37,0.44c-0.55,0.13-0.94,0.43-0.99,1.03
		C470.17,271.09,470.18,271.09,468.9,271.05z"/>
	<path style="fill-rule:evenodd;clip-rule:evenodd;fill:#00AAC3;" d="M462.99,285.42c1.45,0.27,2.89,0.56,4.34,0.8
		c0.76,0.13,1.68-0.51,2.24,0.56c0.11,0.21,0.35,0.31,0.14,0.57c-0.16,0.2-0.24,0.45-0.64,0.39c-2.57-0.39-5.19-0.48-7.71-1.22
		c-0.21-0.06-0.6-0.06-0.63-0.15c-0.07-0.33,0.25-0.46,0.5-0.57C461.78,285.53,462.37,285.46,462.99,285.42z"/>
	<path style="fill-rule:evenodd;clip-rule:evenodd;fill:#F18523;" d="M487.36,251.76c-0.37,1.5-0.75,3.03-2.27,3.97
		c-1.29,0.79-2.52,1.7-3.93,2.28c-0.33,0.14-0.8,0.27-0.96-0.13c-0.15-0.39,0.37-0.43,0.61-0.57c2.45-1.36,4.81-2.79,5.12-5.99
		c0.06-0.66,0.62-0.32,0.95-0.36C487.5,250.9,487.34,251.37,487.36,251.76z"/>
	<path style="fill-rule:evenodd;clip-rule:evenodd;fill:#F8D70C;" d="M471.53,304.75c1.5,0.56,1.18,1.83,1.1,2.95
		c-0.04,0.54-0.33,1.07,0.09,1.58c-0.06,0.27-0.26,0.61-0.16,0.79c0.75,1.42-0.3,1.14-1.04,1.13c-1.27-0.01-2.54-0.04-3.8-0.06
		c0.02-0.45,0.39-0.41,0.68-0.49c1.65-0.13,2.77-1.9,2.51-3.96c-0.05-0.42-0.29-0.83-0.11-1.28
		C471.03,305.19,471.28,304.97,471.53,304.75z"/>
	<path style="fill-rule:evenodd;clip-rule:evenodd;fill:#872B78;" d="M456.42,277.31c-0.43,0.1-0.8-0.11-1.19-0.25
		c1.15-1.48,1.69-3.12,1.36-5c1.25-1.14,0.8-2.8,1.23-4.19c0.41-1.32,1-1.64,2.19-1.11c-0.03,0.06-0.06,0.11-0.09,0.17
		c-1.08,1.59-1.36,3.42-1.48,5.28c-0.12,1.71-0.31,3.38-1.31,4.85C456.92,277.23,456.65,277.21,456.42,277.31z"/>
	<path style="fill-rule:evenodd;clip-rule:evenodd;fill:#7B2770;" d="M459.75,260.08c-0.98-2.81-1.28-5.76-1.69-8.69
		c-0.11-0.82,0.65-0.27,0.99-0.4c0.2,0.08,0.36,0.21,0.45,0.41c0.44,2.1,0.75,4.22,1.21,6.32c0.12,0.55,0.16,1.12,0,1.66
		C460.59,259.83,460.43,260.35,459.75,260.08z"/>
	<path style="fill-rule:evenodd;clip-rule:evenodd;fill:#C856A0;" d="M494.55,251c-0.63,1.67-0.6,3.5-1.46,5.13
		c-1.07,2.02-2.8,3.19-4.72,4.18c-0.08-0.32-0.16-0.64-0.24-0.96c0.19-0.54,0.67-0.76,1.11-1.04c2.03-1.3,3.26-3.11,3.59-5.53
		c0.09-0.65,0.04-1.39,0.77-1.78C493.91,251,494.23,251,494.55,251z"/>
	<path style="fill-rule:evenodd;clip-rule:evenodd;fill:#F7A682;" d="M471.98,271.08c0.34,0.56,0.82,1.05,0.75,1.78
		c0.02,0.5-0.14,0.93-0.47,1.31c-0.66,1.6-2.33,2.36-4,1.81c-1.69-0.55-2.44-1.84-2.02-3.44c0.16-0.13,0.35-0.11,0.54-0.1
		c0.73,0.02,0.67,0.6,0.75,1.08c-0.01,0.23,0.05,0.45,0.17,0.65c0.88,0.79,1.73,0.92,2.58,0.38c0.92-0.59,1.15-1.46,0.7-2.69
		l0.01,0.01c-0.12-0.48,0.37-0.31,0.52-0.5C471.67,271.28,471.83,271.18,471.98,271.08z"/>
	<path style="fill-rule:evenodd;clip-rule:evenodd;fill:#AD3D91;" d="M466.55,261.32c-1.62,0.31-3.24,0.29-4.88,0.2
		c0.74-2,0.08-3.87-0.52-5.77c-0.49-1.54-0.47-3.2-0.91-4.76c0.32,0,0.64,0,0.96,0c0.71,0.37,0.73,1.1,0.77,1.74
		c0.06,0.91,0.29,1.77,0.49,2.65c0.25,1.87,1.23,3.43,2.11,5.04c0.19,0.35,0.51,0.47,0.89,0.51
		C465.86,260.98,466.29,260.93,466.55,261.32z"/>
	<path style="fill-rule:evenodd;clip-rule:evenodd;fill:#00AAC1;" d="M468.62,299.19c0.26-0.17,0.51-0.36,0.79-0.5
		c0.77-0.39,1.34-0.78,0.11-1.33c-0.13-0.06-0.22-0.19-0.32-0.29c0.13-0.05,0.26-0.14,0.39-0.14c1.19-0.04,3.82,3.16,3.35,4.25
		c-0.32,0.75-1.37,0.85-2.04,1.32c-0.2,0.14-0.42,0.11-0.59-0.17c-0.4-0.65-0.18-1.2,0.16-1.78c0.24-0.43,0.8-0.92,0.45-1.38
		c-0.42-0.53-1.03-0.02-1.55,0.1c-0.23,0.05-0.46,0.09-0.7,0.13c-0.06-0.04-0.09-0.09-0.08-0.14
		C468.59,299.22,468.6,299.19,468.62,299.19z"/>
	<path style="fill-rule:evenodd;clip-rule:evenodd;fill:#AB3D93;" d="M456.42,252.4c0.77,0.01,0.38-0.5,0.37-0.83
		c-0.01-0.2-0.5-0.45,0.03-0.59c0.43-0.11,0.54,0.15,0.53,0.54c-0.05,1.63,0.71,3.14,0.67,4.79c-0.03,1.09,0.33,2.19,0.51,3.28
		c-0.08,0.15-0.18,0.17-0.31,0.05c-0.03-0.02-0.06-0.05-0.09-0.07c-2.45-1.82-1.34-4.63-1.93-6.96
		C456.24,252.51,456.31,252.44,456.42,252.4z"/>
	<path style="fill-rule:evenodd;clip-rule:evenodd;fill:#B84797;" d="M465.05,277.1c-2.25,0.87-4.63-1.15-5.1-3.97
		c-0.38-2.32,0.79-4.11,1.49-6.08c0.25-0.21,0.51-0.15,0.78-0.05c0.07-0.04,0.12-0.03,0.17,0.03c0.39,0.7-0.18,1.08-0.5,1.56
		c-1.11,1.61-1.48,3.32-0.67,5.18c0.48,1.1,1.31,1.79,2.48,2.03c0.44,0.09,0.86,0.16,1.1,0.6
		C464.89,276.64,464.97,276.87,465.05,277.1z"/>
	<path style="fill-rule:evenodd;clip-rule:evenodd;fill:#F6A683;" d="M486.41,272.6c1.1,0.31,1.25,1.12,1.21,2.13
		c-0.06,1.35-0.67,2.21-1.94,2.64c0.14,0.23-0.02,0.32-0.19,0.41c-1.99,0.58-4.35-1.09-4.38-3.1c-0.01-0.52,0.02-0.98,0.73-0.92
		c0.17,0.23,0.07,0.49,0.08,0.73c-0.04,0.39,0.18,0.65,0.44,0.9c0.83,0.82,1.7,1.5,2.95,0.89c0.9-0.44,1.09-0.97,0.69-1.88
		c-0.36-0.79,0.5-0.34,0.63-0.63C487.08,273.28,486.01,273.08,486.41,272.6z"/>
	<path style="fill-rule:evenodd;clip-rule:evenodd;fill:#DD2C2C;" d="M489.58,282.98c1.31,3.38,1.52,3.52,5.18,3.05
		c1.61-0.21,3.21-0.5,4.81-0.76c0.27-0.09,0.33,0.04,0.28,0.28c-2.84,0.89-5.73,1.52-8.7,1.81c-0.31,0.03-0.52-0.12-0.65-0.41
		c-0.41-0.9-0.75-1.86-1.29-2.68c-0.36-0.55,0.42-0.71,0.18-1.11C489.35,282.98,489.41,282.93,489.58,282.98z"/>
	<path style="fill-rule:evenodd;clip-rule:evenodd;fill:#9C3386;" d="M460.25,251c0.91,0.58,0.58,1.55,0.77,2.38
		c0.38,1.69,0.87,3.36,1.26,5.05c0.26,1.1,0.31,2.2-0.6,3.1c-0.49-0.01-1.02,0.17-1.45-0.22c-0.08-0.21,0.03-0.36,0.15-0.51
		c0.87-0.92,0.59-2.09,0.42-3.08c-0.35-2.04-0.71-4.08-1.19-6.09c-0.08-0.16-0.2-0.3-0.33-0.43c-0.07-0.07-0.15-0.13-0.22-0.2
		C459.46,251,459.85,251,460.25,251z"/>
	<path style="fill-rule:evenodd;clip-rule:evenodd;fill:#C92427;" d="M488.36,305.92c0.97-2.02,0.97-2.02,3.1-1.33
		c0.04,0.01,0.07,0.03,0.11,0.04c2.21,0.7,2.23,0.78,0.64,2.55C490.74,307.32,489.42,307,488.36,305.92z"/>
	<path style="fill-rule:evenodd;clip-rule:evenodd;fill:#A6388E;" d="M462.22,267.01c-0.26,0.02-0.52,0.03-0.78,0.05
		c-0.22,0.07-0.57,0.07-0.63,0.21c-1.02,2.32-1.68,4.73-1.21,7.29c0.21,1.13,0.26,2.19-0.32,3.21c-0.96-0.15-1.91-0.31-2.87-0.46
		c0.15-0.07,0.31-0.13,0.46-0.2c0.85-0.37,1.24-1.06,1.39-1.94c0.13-0.75,0.15-1.5,0.19-2.26c0.1-2.13,0.66-4.14,1.55-6.07
		l0.01-0.07C460.75,266.8,461.51,266.71,462.22,267.01z"/>
	<path style="fill-rule:evenodd;clip-rule:evenodd;fill:#07B6D1;" d="M499.41,306.37c0.46,0.02,0.91,0.04,1.36,0.06
		c0.39,0.13,0.84,0.27,0.57,0.8c-0.62,1.2-1.25,2.4-1.83,3.62c-0.11,0.24-0.42,0.2-0.62,0.31c-0.96,0-1.92,0-2.88,0
		c-0.03-0.33,0.23-0.38,0.45-0.47c0.62-0.04,0.94-0.4,1.18-0.96c0.49-1.1,0.79-2.26,1.06-3.42
		C498.95,306.28,499.19,306.26,499.41,306.37z"/>
	<path style="fill-rule:evenodd;clip-rule:evenodd;fill:#F8E6D2;" d="M454.98,310.2c-0.07-2.18-0.07-2.18,2.08-1.79
		c1.21,0.22,1.98,1.51,1.34,2.51c-0.43,0.69-1.31,0.16-1.98,0.26C455.91,310.9,455.31,310.76,454.98,310.2z"/>
	<path style="fill-rule:evenodd;clip-rule:evenodd;fill:#8C2881;" d="M468.64,293.04c-0.01,0.08,0,0.21-0.05,0.23
		c-1.36,0.7-1.67,2.29-2.73,3.24c-0.45,0.4-2.72-0.35-2.94-0.92c-0.17-0.43,0.12-0.58,0.42-0.71c1.63-0.69,3.53-0.76,4.9-2.07
		C468.43,292.63,468.58,292.82,468.64,293.04z"/>
	<path style="fill-rule:evenodd;clip-rule:evenodd;fill:#BF2326;" d="M455,303.52c-0.01-1.47-0.03-2.94-0.03-4.41
		c0-0.14,0.07-0.28,0.1-0.42c0.08,0.07,0.17,0.12,0.24,0.2c0.66,0.81,0.91,1.93,2.28,2.2c0.53,0.1,0.49,1.39,0.49,2.19
		c-0.37-0.12-0.66-0.35-1.12,0.01C456.42,303.72,455.72,304.08,455,303.52z"/>
	<path style="fill-rule:evenodd;clip-rule:evenodd;fill:#E67DB2;" d="M487.63,257.67c2.42-1.2,3.61-3.21,3.84-5.85
		c0.03-0.28,0.29-0.55,0.44-0.82c0.32,0,0.64,0,0.96,0c0.28,2.59-1.54,6.1-3.77,7.23c-0.37,0.19-0.76,0.49-1.21,0.16
		C487.8,258.16,487.71,257.92,487.63,257.67z"/>
	<path style="fill-rule:evenodd;clip-rule:evenodd;fill:#BC2326;" d="M501,290.78c-0.14,0.35-0.37,0.44-0.74,0.34
		c-1.27-0.35-2.56-0.68-3.84-1.01c0.25-1.1,0.82-1.91,1.99-2.14c0.92-0.17,1.61,0.26,2.22,0.9
		C501.17,289.45,501.11,290.1,501,290.78z"/>
	<path style="fill-rule:evenodd;clip-rule:evenodd;fill:#DF2529;" d="M458.29,306.15c0.46,1.5-0.08,1.58-1.46,1.32
		c-1.45-0.27-2.26-0.67-1.83-2.27c0.76-0.6,1.74-0.73,2.57-1.18c0.45-0.24,0.62,0.01,0.63,0.49
		C458.22,305.06,458.1,305.62,458.29,306.15z"/>
	<path style="fill-rule:evenodd;clip-rule:evenodd;fill:#D566A7;" d="M462.89,251c0.56,1.82,0.43,3.84,1.64,5.5
		c0.38,0.53,0.83,0.97,1.31,1.34c0.54,0.42,0.73,0.89,0.65,1.52c-0.6,0.23-0.96-0.2-1.33-0.52c-0.98-0.86-1.84-1.82-2.4-3.02
		c-0.64-1.54-0.97-3.13-0.82-4.81C462.25,251,462.57,251,462.89,251z"/>
	<path style="fill-rule:evenodd;clip-rule:evenodd;fill:#D061A3;" d="M464.14,267.25c0.48-0.12,0.98,0.33,1.48-0.13
		c0.25-0.23,0.8-0.27,1-0.01c0.25,0.31-0.16,0.62-0.37,0.89c-0.23,0.41-0.59,0.4-1,0.38c-0.79-0.05-1.55,0.08-2.14,0.69
		c-0.12,0.12-0.24,0.24-0.35,0.35c-1.54,1.83-1.19,3.8,0.9,4.94c0.32,0.17,0.65,0.3,0.77,0.69c0.01,0.19,0,0.37-0.16,0.5
		c-1.17,0.38-1.94-0.35-2.59-1.07c-1.92-2.14-0.73-6.36,2-7.28C463.84,267.15,463.99,267.18,464.14,267.25z"/>
	<path style="fill-rule:evenodd;clip-rule:evenodd;fill:#85D1EC;" d="M476.22,253.9c-2.14,0.97-2.77,0.82-4.23-1.02
		c-0.03-0.21,0.02-0.33,0.26-0.24c0.97,0.06,1.7-1.26,2.25-0.99c0.65,0.32,1.03,1.23,2.01,1.31
		C476.94,252.98,476.93,253.09,476.22,253.9z"/>
	<path style="fill-rule:evenodd;clip-rule:evenodd;fill:#F3846C;" d="M486.63,273.77c0.02,0.33-0.58,0.06-0.47,0.48
		c0.39,0.95-0.15,1.52-0.87,1.95c-0.76,0.45-1.64,0.2-2.37-0.54c-0.61-0.62-0.52-1.26-0.2-1.98c0.22-0.5,0.62-0.56,1.05-0.64
		C484.8,272.96,485.57,273.94,486.63,273.77z"/>
	<path style="fill-rule:evenodd;clip-rule:evenodd;fill:#F6B58E;" d="M497.87,260.25c0.3-0.29-0.54-1.07,0.52-1.29
		c1.32-0.27,1.73,0.31,1.7,1.48c-0.01,0.28,0,0.57-0.08,0.83c-0.23,0.74-0.37,1.99-1.04,1.95c-0.92-0.06-0.97-1.27-1.09-2.13
		C497.84,260.84,497.87,260.6,497.87,260.25z"/>
	<path style="fill-rule:evenodd;clip-rule:evenodd;fill:#C7569F;" d="M464.14,267.25c-3.44,1.63-3.77,4.62-2.48,6.67
		c0.59,0.94,1.47,1.54,2.66,1.51c0.08-0.14,0.17-0.14,0.25,0c0.27,0.27,0.24,0.62,0.24,0.97c-1.89-0.29-3.51-0.94-4.1-3.02
		c-0.53-1.89-0.2-3.59,1.05-5.1c0.31-0.37,0.58-0.75,0.63-1.25C462.99,267,463.58,267.02,464.14,267.25z"/>
	<path style="fill-rule:evenodd;clip-rule:evenodd;fill:#D668A8;" d="M487.89,258.4c2.35-0.75,3.59-2.5,4.27-4.75
		c0.26-0.87,0.48-1.76,0.72-2.64c0.24,0,0.48,0,0.72,0c-0.57,1.4-0.44,2.98-1.15,4.35c-0.96,1.85-2.51,3.06-4.31,4
		C488.05,259.03,487.97,258.71,487.89,258.4z"/>
	<path style="fill-rule:evenodd;clip-rule:evenodd;fill:#EF8BB8;" d="M466.01,269.46c-0.84,1.05-1.44,2.2-1.49,3.58
		c-0.13,0.19-0.03,0.52-0.35,0.6c-1.17-0.3-1.89-1.23-1.77-2.26c0.14-1.23,1.28-2.36,2.43-2.38c0.39,0,0.79,0.02,1.17,0.12
		C466.11,269.24,466.11,269.35,466.01,269.46z"/>
	<path style="fill-rule:evenodd;clip-rule:evenodd;fill:#EF846B;" d="M467.21,273.77c-0.12-0.42,0.26-1.03-0.47-1.21
		c-0.16-0.09-0.15-0.15,0.03-0.19c1.39-0.53,2.79-0.55,4.21-0.15c0.4,0.87,0.03,1.54-0.6,2.09c-0.77,0.67-1.61,0.55-2.43,0.04
		C467.71,274.15,467.46,273.96,467.21,273.77z"/>
	<path style="fill-rule:evenodd;clip-rule:evenodd;fill:#D92C2C;" d="M473.1,286.67c-0.41-0.07-0.65-0.09-0.88-0.14
		c-0.47-0.12-1.39,0.14-1.11-0.75c0.21-0.67,0.72-1.51,1.75-1.05c0.26,0.11,0.5,0.22,0.58-0.04c0.2-0.72,0.62-0.58,1.06-0.32
		c0.45,0.27,0.9,0.58,0.84,1.19c-0.05,0.58-0.57,0.74-1.01,0.88C473.89,286.57,473.41,286.61,473.1,286.67z"/>
	<path style="fill-rule:evenodd;clip-rule:evenodd;fill:#C82527;" d="M501,290.78c-0.4-0.54-0.08-1.29-0.69-1.84
		c-1.25-1.13-2.7-0.92-3.34,0.64c-0.12,0.3-0.25,0.48-0.55,0.53c-0.32-0.08-0.64-0.17-0.96-0.25c-0.14-1.72-0.08-1.84,1.27-2.45
		c0.16,0.18,0.32,0.35,0.47,0.53c0.09,0.07,0.17,0.06,0.23-0.04l-0.01,0.01c0.1-0.07,0.19-0.15,0.23-0.27l-0.02,0.03
		c1.03-0.87,1.55-0.94,2.48-0.1c0.82,0.74,1.84,1.43,1.62,2.8C501.49,290.51,501.25,290.64,501,290.78z"/>
	<path style="fill-rule:evenodd;clip-rule:evenodd;fill:#007976;" d="M491.46,310.97c-0.17-2.28,1.5-3.64,2.62-5.28
		c0.53,0.1,0.75,0.43,0.61,0.94c-0.42,1.56-0.86,3.11-1.88,4.42C492.36,311.05,491.9,311.18,491.46,310.97z"/>
	<path style="fill-rule:evenodd;clip-rule:evenodd;fill:#F6E20D;" d="M482.08,311.24c-1.52-0.01-2.17-1.1-3.13-1.6
		c-0.47-0.25,0.13-0.38,0.32-0.4c1.1-0.16,2.2-0.28,3.3-0.45c0.55-0.08,0.62,0.17,0.5,0.61
		C482.89,310.17,483.35,311.4,482.08,311.24z"/>
	<path style="fill-rule:evenodd;clip-rule:evenodd;fill:#00A9C1;" d="M476.1,291.02c-0.62-0.09-1.25-0.17-1.87-0.29
		c-0.11-0.02-0.26-0.17-0.29-0.28c-0.18-0.81,1.24-2.09,2.03-1.84c0.23,0.07,0.47,0.12,0.68,0.22c0.38,0.19,1.04-0.01,1.1,0.58
		C477.81,289.97,476.64,291.02,476.1,291.02z"/>
	<path style="fill-rule:evenodd;clip-rule:evenodd;fill:#BE6A2C;" d="M460.29,299.37c-0.62,0.16-0.7-0.18-0.88-0.44
		c-0.54-0.74-0.72-1.77-1.75-2.13c-0.38-0.13-0.05-0.34,0.06-0.38c0.61-0.23,1.3-0.98,1.86-0.08c0.33,0.53,0.8,0.85,1.21,1.27
		c0.32,0.33,1.08,0.53,0.92,0.96C461.5,299.17,460.67,299.18,460.29,299.37z"/>
	<path style="fill-rule:evenodd;clip-rule:evenodd;fill:#F09521;" d="M471.78,263.24c-0.35,0.07-0.69,0.2-1.04,0.19
		c-0.24-0.01-1.22,0.63-0.52-0.56c0.43-0.73-0.38-1.15-1.07-1.36c-0.43-0.13-1,0-1.15-0.63c-0.1-0.41-0.38-0.99-0.21-1.19
		c0.31-0.37,0.78,0.06,1.18,0.19c1.04,0.32,1.81,1.33,3.03,1.19c0.05,0.1,0.05,0.21,0,0.31c-0.4,0.46-0.57,0.98-0.33,1.58
		C471.73,263.04,471.76,263.14,471.78,263.24z"/>
	<path style="fill-rule:evenodd;clip-rule:evenodd;fill:#B64696;" d="M466.55,261.32c-1.63,0.35-2.37-0.58-2.95-1.91
		c-0.55-1.28-1.28-2.48-1.45-3.89c0.62-0.01,0.68,0.53,0.88,0.91c0.23,0.44,0.35,0.94,0.77,1.27c0.89,1.1,1.91,2.04,3.24,2.6
		c0.19,0.3,0.43,0.59,0.34,0.99c-0.08,0.07-0.17,0.08-0.27,0.04C466.92,261.32,466.74,261.32,466.55,261.32z"/>
	<path style="fill-rule:evenodd;clip-rule:evenodd;fill:#D82629;" d="M488.36,305.92c1.22,0.62,2.56,0.86,3.85,1.26
		c-0.01,0.08-0.04,0.14-0.1,0.18c-0.04,0.09-0.11,0.16-0.18,0.22l-0.01,0.02c-0.08,0.09-0.16,0.17-0.21,0.28
		c-0.48,0.63-0.5,1.95-1.15,1.92c-0.67-0.03-0.87-1.26-1.26-1.97c-0.11-0.2-0.18-0.43-0.26-0.65c-0.04-0.11-0.12-0.2-0.2-0.29
		c-0.09-0.15-0.18-0.3-0.28-0.45c-0.06-0.09-0.13-0.18-0.2-0.27C488.35,306.08,488.35,306,488.36,305.92z"/>
	<path style="fill-rule:evenodd;clip-rule:evenodd;fill:#F5CD10;" d="M489.97,266.33c0.35-0.28,0.3-0.54-0.04-0.79
		c0.02-0.17,0.09-0.33,0.24-0.38c0.95-0.34,1.44-1.05,1.64-2c0.41-0.4,0.42-1.02,0.77-1.46c0.02-0.23,0.05-0.46,0.07-0.69
		c0.31,0.86-0.01,1.82,0.46,2.65c0.09,0.1,0.18,0.19,0.32,0.22c0.06-0.03,0.11-0.02,0.15,0.04c-0.52,0.96-1.11,1.88-1.37,2.96
		c-0.05,0.21-0.2,0.45-0.51,0.37C491.13,266.96,490.55,266.65,489.97,266.33z"/>
	<path style="fill-rule:evenodd;clip-rule:evenodd;fill:#017370;" d="M501.99,291.08c0.58-1.17,1.15-2.35,1.76-3.51
		c0.15-0.29,0.17-0.7,0.57-0.82c0.03,0.31,0.06,0.61,0.07,0.92c0.01,0.44,0,0.88,0,1.32c0,2.61,0,2.61-2.57,2.22
		c-0.09,0-0.13-0.03-0.12-0.08c0-0.06,0.02-0.09,0.04-0.09l0,0.01C501.84,290.96,501.92,290.97,501.99,291.08z"/>
	<path style="fill-rule:evenodd;clip-rule:evenodd;fill:#F9C811;" d="M470.78,305.41c1.16,1.68,0.15,3.94-0.81,5.32
		c-0.35,0.51-1.05,0.15-1.58,0.23c-0.29-0.38-0.06-0.7,0.18-0.94c1.07-1.1,1.48-2.39,1.21-3.89l0,0.01c0.13-0.02,0.19-0.13,0.28-0.2
		C470.31,305.76,470.55,305.58,470.78,305.41z"/>
	<path style="fill-rule:evenodd;clip-rule:evenodd;fill:#F29375;" d="M483.76,273.03c-0.79,0.4-1.21,1.17-0.97,1.91
		c0.21,0.67,0.92,1.25,1.75,1.19c1.1-0.08,1.45-0.93,1.62-1.88c0.86,0.33,0.56,1.01,0.27,1.45c-0.57,0.88-1.46,1.39-2.54,1.09
		c-0.76-0.21-1.47-0.61-1.82-1.41c-0.1-0.34-0.21-0.68-0.47-0.94c0.08-0.22,0.16-0.45,0.24-0.67c0.18-0.12,0.35-0.24,0.53-0.35
		c-0.1-0.04-0.19-0.09-0.29-0.13C482.62,273.04,483.14,272.65,483.76,273.03z"/>
	<path style="fill-rule:evenodd;clip-rule:evenodd;fill:#692363;" d="M497.49,264.39c-0.01-0.31-0.19-0.5-0.46-0.62
		c-1.71-0.77-2.01-1.39-1.54-3.24c0.25,0.01,0.16-0.31,0.36-0.36c0.25-0.11,0.5-0.11,0.76-0.02c0.1,0.05,0.17,0.13,0.21,0.23
		c0.08,0.3-0.1,0.64,0.16,0.91c0.32,0.79,0.4,1.68,0.99,2.35C497.87,263.93,498.01,264.37,497.49,264.39z"/>
	<path style="fill-rule:evenodd;clip-rule:evenodd;fill:#77256F;" d="M497.49,264.39c0.16-0.25,0.32-0.5,0.48-0.75
		c0.07,0.07,0.14,0.14,0.21,0.2c0.12,0.22,0.31,0.4,0.41,0.63c0.03,0.13,0.04,0.26,0.05,0.39c0.14,1.94-0.23,3.85-0.41,5.76
		c-0.09,0.92-0.36,1.82-1.53,1.96c-0.15-0.34-0.3-0.67-0.45-1.01c0.51-0.11,0.82-0.43,0.9-0.93c0.26-1.47,0.51-2.94,0.76-4.41
		c0.11-0.63-0.24-1.14-0.51-1.67C497.41,264.51,497.44,264.45,497.49,264.39z"/>
	<path style="fill-rule:evenodd;clip-rule:evenodd;fill:#01A6BF;" d="M459.07,306.36c0.02-0.19-0.01-0.49,0.08-0.53
		c0.23-0.1,0.31,0.15,0.39,0.32c0.02,0.04,0.02,0.09,0.05,0.11c1.2,0.66,2.38,1.29,0.35,2.46c-0.38,0.22-0.14,0.65,0.24,0.96
		c0.43,0.34,0.33,0.88,0.15,1.32c-0.12,0.3-0.5,0.25-0.75,0.18c-0.56-0.17-0.28-0.67-0.29-1.01c-0.04-1.27-0.01-2.54-0.01-3.81
		C459.21,306.37,459.14,306.36,459.07,306.36z"/>
	<path style="fill-rule:evenodd;clip-rule:evenodd;fill:#CB2E2D;" d="M501.74,290.37c-0.38-1.31-1.31-2.19-2.35-2.98
		c-0.66-0.5-1.18,0.13-1.76,0.27c0.36-1.38,1.66-0.72,2.46-1.14c1.38,0.1,2.2,0.94,2.16,2.22c-0.11,0.55-0.23,1.1-0.34,1.65
		c0,0.02-0.06,0.04-0.08,0.03C501.8,290.42,501.77,290.39,501.74,290.37z"/>
	<path style="fill-rule:evenodd;clip-rule:evenodd;fill:#75266B;" d="M456.59,272.07c1.17,0.72,0.29,1.7,0.21,2.49
		c-0.1,0.99-0.32,2.14-1.57,2.51c-0.64-0.92,0.14-1.71,0.28-2.53C455.66,273.66,456,272.79,456.59,272.07z"/>
	<path style="fill-rule:evenodd;clip-rule:evenodd;fill:#CC2427;" d="M458.29,306.15c0.04-2.16-1.03-1.87-2.37-1.09
		c-0.25,0.15-0.61,0.1-0.92,0.14c0-0.56,0-1.12,0-1.68c0.74,0.1,1.47-0.09,1.98-0.57c0.68-0.65,0.88-0.27,1.09,0.33
		C458.37,304.22,458.33,305.19,458.29,306.15z"/>
	<path style="fill-rule:evenodd;clip-rule:evenodd;fill:#85277A;" d="M496.7,272.59c1.36-0.79,1.25-2.22,1.42-3.46
		c0.21-1.56,0.2-3.15,0.28-4.73c0.27-0.15,0.36,0.08,0.48,0.24v0c-0.08,2.1-0.14,4.2-0.25,6.29c-0.06,1.09-0.46,1.97-1.7,2.16
		C496.85,272.92,496.77,272.76,496.7,272.59z"/>
	<path style="fill-rule:evenodd;clip-rule:evenodd;fill:#008180;" d="M492.88,310.96c0.2-1.31,1.04-2.4,1.33-3.67
		c0.12-0.52,0.56-1.12-0.13-1.6c0.61-0.22,1.17,0,1.74,0.19c-0.28,1.54-0.7,3.03-1.42,4.42
		C494.07,310.96,493.63,311.3,492.88,310.96z"/>
	<path style="fill-rule:evenodd;clip-rule:evenodd;fill:#F8B818;" d="M469.79,306.12c1.06,1.45,0.12,2.56-0.63,3.7
		c-0.25,0.38-0.75,0.59-0.77,1.14c-0.23,0.06-0.46,0.12-0.7,0.18c-0.28-0.04-0.22-0.27-0.25-0.45c-0.17-0.1-0.1-0.32-0.21-0.45
		c-0.03-0.07-0.06-0.15-0.09-0.22c1.04-0.92,1.66-2.09,1.95-3.43C469.33,306.43,469.56,306.28,469.79,306.12z"/>
	<path style="fill-rule:evenodd;clip-rule:evenodd;fill:#008C92;" d="M492.88,310.96c0.59,0.08,0.96-0.14,1.21-0.7
		c0.5-1.12,0.97-2.25,1.21-3.46c0.07-0.33-0.07-0.85,0.52-0.91c0.48,0.08,0.96,0.16,1.43,0.24c-0.07,0.16-0.21,0.26-0.35,0.35
		c-0.7,0.98-0.81,2.21-1.38,3.25c-0.21,0.38-0.32,0.81-0.57,1.17c-0.16,0.21-0.43,0.14-0.62,0.26c-0.96-0.02-1.94,0.26-2.87-0.19
		C491.94,310.96,492.41,310.96,492.88,310.96z"/>
	<path style="fill-rule:evenodd;clip-rule:evenodd;fill:#EDB18D;" d="M500.74,255.05c0.3,0.32,0.54,0.75,0.9,0.94
		c0.76,0.39,0.79,0.83,0.37,1.49c-0.36,0.56-0.76,1.59-1.3,1.31c-0.58-0.3,0.36-0.91,0.53-1.42c0.08-0.25,0.35-0.55,0.11-0.77
		c-0.35-0.32-0.52,0.18-0.79,0.28c-0.63,0.25-1.14,1.45-1.67,0.9c-0.45-0.47,0.69-1.05,1.09-1.6c0.18-0.26,0.36-0.52,0.53-0.78
		C500.43,255.18,500.51,255.07,500.74,255.05z"/>
	<path style="fill-rule:evenodd;clip-rule:evenodd;fill:#01A8C0;" d="M467.91,298.31c-0.41-0.11-0.8-0.19-1.17-0.31
		c-0.79-0.25-0.89-0.54-0.25-1.19c0.69-0.7,1.18-1.58,1.78-2.37c0.12-0.16,0.21-0.51,0.51-0.3c0.14,0.1,0.27,0.48,0.24,0.5
		c-0.62,0.42-0.28,1.34-0.96,1.74c-0.72,0.42-0.38,0.79,0.11,1.16c0.22,0.16,0.77,0.08,0.59,0.53
		C468.69,298.24,468.2,298.24,467.91,298.31z"/>
	<path style="fill-rule:evenodd;clip-rule:evenodd;fill:#01A9C1;" d="M473,290.55c-0.61-0.47-1.4-0.79-1.39-1.47
		c0-0.62,0.08-1.56,1-1.66c0.58-0.06,1.41,0.29,1.37,0.87C473.9,289.04,473.36,289.76,473,290.55z"/>
	<path style="fill-rule:evenodd;clip-rule:evenodd;fill:#3CC2DC;" d="M498.89,311.16c0.75-1.37,1.52-2.73,2.26-4.1
		c0.2-0.37-0.25-0.42-0.38-0.63c0.66-0.22,1.22-0.03,1.71,0.44c0.02,0.04,0.06,0.08,0.05,0.1c-0.72,1.51-1.41,3.04-2.68,4.19
		C499.53,311.16,499.21,311.16,498.89,311.16z"/>
	<path style="fill-rule:evenodd;clip-rule:evenodd;fill:#F8BD16;" d="M491.71,267.27c0.67-1.08,0.46-2.67,1.88-3.33
		c0.32,0.08,0.64,0.17,0.96,0.25c-0.23,0.98-0.96,1.78-0.96,2.84C493.02,267.56,492.47,268.19,491.71,267.27z"/>
	<path style="fill-rule:evenodd;clip-rule:evenodd;fill:#F5E90B;" d="M477.74,250.96c0.55-0.03,1.26-0.03,1.95,0.23
		c0.19,0.07,0.53-0.06,0.5,0.32c-0.02,0.3-0.17,0.56-0.5,0.58c-1.15,0.08-2.3,0.2-3.45,0.01c-0.36-0.06-0.56-0.26-0.52-0.66
		c0.04-0.42,0.28-0.51,0.65-0.49C476.78,250.98,477.18,250.96,477.74,250.96z"/>
	<path style="fill-rule:evenodd;clip-rule:evenodd;fill:#892C7A;" d="M459.28,251.2c0.16,0,0.32,0,0.48,0
		c0.38,2.18,0.76,4.36,1.21,6.52c0.23,1.13,0.28,2.29-0.49,3.31c-0.08,0.09-0.17,0.18-0.25,0.27c-0.16-0.41-0.32-0.81-0.47-1.22
		c1.15-0.54,0.74-1.52,0.61-2.36C460.01,255.54,459.4,253.41,459.28,251.2z"/>
	<path style="fill-rule:evenodd;clip-rule:evenodd;fill:#F4CB12;" d="M473.93,259.61c0.45,0.16,0.73-0.47,1.19-0.24
		c0.08,0.22-0.08,0.36-0.18,0.54c-0.45,0.85-0.31,1.19,0.6,1.5c0.26,0.09,0.55,0.1,0.75,0.33c-0.55,0.4-1.1,0.81-1.66,1.21
		c-0.9,0.33-1.48,0.18-1.44-0.95c0.02-0.58-0.4-1.16-0.04-1.75C473.43,260.04,473.68,259.83,473.93,259.61z"/>
	<path style="fill-rule:evenodd;clip-rule:evenodd;fill:#00A2B5;" d="M494.34,311.16c0.15-0.07,0.31-0.13,0.46-0.2
		c1.34-1.3,1.62-3.04,1.97-4.76c0.16-0.03,0.33-0.05,0.49-0.08c0.72,0.08,1.44,0.16,2.16,0.24c-0.24,0.02-0.48,0.05-0.73,0.07
		c-0.34,0.22-0.64,0.34-0.74,0.9c-0.22,1.29-0.56,2.58-1.47,3.61c-0.16,0.07-0.31,0.13-0.46,0.2
		C495.46,311.16,494.9,311.16,494.34,311.16z"/>
	<path style="fill-rule:evenodd;clip-rule:evenodd;fill:#D82F2D;" d="M481.06,299.71c0.09,0.03,0.39,0.04,0.42,0.14
		c0.13,0.35-0.24,0.32-0.43,0.4c-1.09,0.48-2.17,0.98-3.11,1.72c-0.44,0.34-0.94,0.43-1.24-0.04c-0.44-0.68,0.34-0.64,0.64-0.8
		C478.5,300.53,479.59,299.78,481.06,299.71z"/>
	<path style="fill-rule:evenodd;clip-rule:evenodd;fill:#F0B18C;" d="M504.4,253.54c0,0.52,0.01,1.03-0.01,1.55
		c-0.01,0.24-0.08,0.47-0.12,0.71c-0.1-0.25-0.33-0.51-0.29-0.73c0.14-0.91-0.23-1.38-1.11-1.54c-0.24-0.04-0.64-0.02-0.65-0.37
		c-0.01-0.34,0.3-0.57,0.59-0.67c0.63-0.22,1.21-0.43,1.05-1.27c-0.04-0.24,0.11-0.24,0.27-0.24c0.28,0.01,0.27,0.22,0.27,0.42
		C504.4,252.11,504.4,252.83,504.4,253.54z"/>
	<path style="fill-rule:evenodd;clip-rule:evenodd;fill:#F3A31E;" d="M469.1,306.59c0.22,1.64-0.37,2.82-1.95,3.43
		c-0.71-1.01,0.07-1.67,0.61-2.33C468.11,307.25,468.64,306.95,469.1,306.59z"/>
	<path style="fill-rule:evenodd;clip-rule:evenodd;fill:#F39477;" d="M467.95,274c1.81,0.93,2.47,0.54,3.04-1.78
		c0-0.12,0-0.23,0-0.35c0.9,0.44,0.6,1.28,0.44,1.88c-0.2,0.74-0.86,1.29-1.64,1.4c-0.87,0.12-1.85,0.25-2.35-0.82
		C467.49,274.03,467.73,274.02,467.95,274z"/>
	<path style="fill-rule:evenodd;clip-rule:evenodd;fill:#F5A71E;" d="M493.59,267.02c-0.55-1.24,0.3-2.01,0.96-2.84
		c0.54,0.1,1.08,0.19,1.62,0.29c-0.19,0.59-0.64,1-1.08,1.39C494.63,266.28,494.09,266.63,493.59,267.02z"/>
	<path style="fill-rule:evenodd;clip-rule:evenodd;fill:#BC4B98;" d="M463.6,257.92c-0.9-0.55-0.67-1.78-1.44-2.4
		c-0.56-1.46-0.33-3.08-0.95-4.52c0.24,0,0.48,0,0.72,0c0.55,1.55,0.29,3.3,1.18,4.76C463.09,256.52,463.89,257.1,463.6,257.92z"/>
	<path style="fill-rule:evenodd;clip-rule:evenodd;fill:#C5549E;" d="M463.6,257.92c-0.16-0.72-0.64-1.37-0.48-2.16
		c0.75,1.55,1.87,2.75,3.37,3.59c0.07,0,0.14,0,0.22,0c0.11,0.31,0.22,0.63,0.34,0.94C465.3,260.37,464.61,258.92,463.6,257.92z"/>
	<path style="fill-rule:evenodd;clip-rule:evenodd;fill:#5BC7E0;" d="M499.85,311.16c0.88-1.43,1.76-2.86,2.63-4.3
		c0.62,0.16,1.25,0.32,1.87,0.48c-0.14,0.19-0.35,0.27-0.57,0.31c-0.11,0.02-0.21,0.04-0.32,0.05c-0.82,0.41-1.1,1.24-1.49,1.98
		c-0.25,0.39-0.41,0.84-0.7,1.21c-0.08,0.06-0.17,0.11-0.27,0.16c-0.15,0.03-0.31,0.02-0.44,0.11
		C500.33,311.16,500.09,311.16,499.85,311.16z"/>
	<path style="fill-rule:evenodd;clip-rule:evenodd;fill:#00A8C2;" d="M494.41,288.6c0.11,0.84-0.23,1.14-1.14,0.76
		c-0.73-0.31-1.49-0.54-2.23-0.82c-0.12-0.05-0.21-0.2-0.31-0.3c0.1-0.04,0.19-0.11,0.3-0.12c0.99-0.11,1.97-0.2,2.96-0.3
		C494.57,287.76,494.51,288.12,494.41,288.6z"/>
	<path style="fill-rule:evenodd;clip-rule:evenodd;fill:#F8BB16;" d="M473.17,260.25c0.08,0.76,0.56,1.41,0.43,2.27
		c-0.12,0.79,0.68,0.28,1.04,0.43c0.48,0.01,0.95,0.01,1.42,0.02c0.08,0.04,0.11,0.09,0.08,0.13c-0.03,0.04-0.06,0.07-0.08,0.07
		c-1.43,0.03-2.86,0.05-4.29,0.08l-0.02-0.07c0.03-0.64,0.42-1.23,0.24-1.9c0-0.07,0-0.14,0-0.22l0.03-0.01
		c0.1-0.16,0.33-0.11,0.44-0.26C472.71,260.61,472.94,260.43,473.17,260.25z"/>
	<path style="fill-rule:evenodd;clip-rule:evenodd;fill:#E23A39;" d="M454.96,277.49c0.86,0.85,1.97,0.38,1.88,0.91
		c-0.14,0.8-0.51,1.84-1.41,2.18c-0.61,0.23-0.44-0.47-0.46-0.81C454.93,279.14,454.96,278.51,454.96,277.49z"/>
	<path style="fill-rule:evenodd;clip-rule:evenodd;fill:#EEB08B;" d="M500.74,255.05c-0.07,0.12-0.15,0.23-0.22,0.35
		c-0.8-0.71-1.33,0.17-1.98,0.35c-0.29,0.08-0.55,0.41-0.84,0.06c-0.33-0.4,0.16-0.53,0.32-0.74c0.16-0.22,0.39-0.39,0.6-0.57
		C500.05,253.27,500.28,253.34,500.74,255.05z"/>
	<path style="fill-rule:evenodd;clip-rule:evenodd;fill:#8AD4E8;" d="M503.68,307.38c0.22-0.01,0.45-0.02,0.67-0.04
		c0,0.41,0.01,0.82,0.01,1.23c-0.51,1.12-0.87,2.36-2.35,2.59c-0.32,0-0.64,0-0.96,0c-0.08-0.04-0.11-0.09-0.09-0.13
		c0.03-0.05,0.05-0.07,0.08-0.07v0c0.68-0.33,0.88-1.02,1.19-1.61c0.05-0.1,0.11-0.19,0.17-0.28
		C502.83,308.51,503.19,307.9,503.68,307.38z"/>
	<path style="fill-rule:evenodd;clip-rule:evenodd;fill:#B42225;" d="M454.96,253.95c0-0.79-0.01-1.59,0.01-2.39
		c0-0.2-0.11-0.53,0.27-0.51c0.07,0,0.19,0.32,0.18,0.49c-0.05,1.6,0.18,3.17,0.45,4.73c0.05,0.28,0.16,0.69-0.37,0.68
		c-0.39-0.01-0.55-0.23-0.54-0.62C454.97,255.54,454.96,254.75,454.96,253.95z"/>
	<path style="fill-rule:evenodd;clip-rule:evenodd;fill:#C06C2C;" d="M476.8,309.69c0.86,0.19,1.57,0.7,2.31,1.17
		c0.24,0.15,0.22,0.34-0.09,0.34c-0.83,0-1.67,0.04-2.49-0.09c-0.39-0.06-0.89-0.49-0.83-0.89
		C475.76,309.76,476.38,309.83,476.8,309.69z"/>
	<path style="fill-rule:evenodd;clip-rule:evenodd;fill:#BE6A2C;" d="M469.85,305.18c-0.44,0.18-0.89,0.42-1.36,0.18
		c-0.48-0.25-1.17-0.42-1.25-0.96c-0.08-0.47,0.55-0.74,0.95-0.94c0.66-0.34,0.81,0.45,1.2,0.71c0.23,0.15,0.31,0.51,0.45,0.78
		c0.05,0.05,0.06,0.1,0.05,0.16C469.88,305.16,469.86,305.18,469.85,305.18z"/>
	<path style="fill-rule:evenodd;clip-rule:evenodd;fill:#CE342F;" d="M470.86,289.8c0.6,0.75,1.7,1.06,1.84,2.2
		c0.03,0.24,0.36,0.28,0.47,0.17c0.94-0.94,2.07-0.26,3.1-0.39c0.18,0.06,0.18,0.14,0.03,0.24c-1.12,0.44-2.32,0.37-3.48,0.59
		c-0.37,0.07-0.56-0.06-0.62-0.48c-0.09-0.71-0.6-1.17-1.14-1.59c-0.1-0.05-0.19-0.14-0.28-0.21l0.01,0.01
		c-0.09-0.1-0.16-0.2-0.25-0.3l-0.02-0.08c-0.01-0.09,0.02-0.17,0.1-0.22C470.71,289.72,470.79,289.74,470.86,289.8z"/>
	<path style="fill-rule:evenodd;clip-rule:evenodd;fill:#D52F2D;" d="M469.61,285.08c0.04-1.43,0.99-2.21,2.07-1.73
		c0.44,0.19,0.53,0.32,0.04,0.56c-0.59,0.3-0.98,0.79-1.31,1.36c-0.14,0.24-0.02,0.77-0.5,0.64
		C469.55,285.81,469.6,285.4,469.61,285.08z"/>
	<path style="fill-rule:evenodd;clip-rule:evenodd;fill:#F1B692;" d="M498.12,257.19c-0.12,0.52-0.34,0.8-0.97,0.76
		c-0.67-0.05-1.35,0.06-2.02,0.11c-0.35,0.03-0.72,0.17-0.96-0.23c-0.2-0.33,0.03-0.54,0.26-0.69c0.34-0.23,0.78-0.76,1.12-0.34
		c0.78,0.95,1.58,0.37,2.39,0.21C498.01,257.05,498.07,257.11,498.12,257.19z"/>
	<path style="fill-rule:evenodd;clip-rule:evenodd;fill:#C06D2D;" d="M477.96,283.71c-0.38,0.26-0.78,0.56-1.2,0.84
		c-0.26,0.17-0.55,0.42-0.84,0.1c-0.43-0.47-1.25-1.23-1.14-1.42c0.37-0.65,1.01,0.06,1.56,0.06c0.39,0,0.79,0.05,1.18,0.08
		C477.7,283.39,477.93,283.34,477.96,283.71z"/>
	<path style="fill-rule:evenodd;clip-rule:evenodd;fill:#8DD2EC;" d="M482.63,251.41c0.44,0.99-0.15,1.6-0.82,2.19
		c0.02-0.28,0.05-0.55-0.31-0.66c-0.75-0.22-0.92-0.62-0.44-1.29C481.53,251.03,481.98,250.64,482.63,251.41z"/>
	<path style="fill-rule:evenodd;clip-rule:evenodd;fill:#89287E;" d="M484.92,311.21c-0.61-0.03-1.32,0.2-1.14-0.75
		c0.08-0.46,0.09-1.38,0.52-1.19c0.65,0.28,1.3,1.02,1.53,1.7C485.99,311.44,485.15,310.97,484.92,311.21z"/>
	<path style="fill-rule:evenodd;clip-rule:evenodd;fill:#EFE311;" d="M480.11,253.07c-0.05,0.35-2.23,1.77-2.53,1.7
		c-0.25-0.06-0.53-0.2-0.47-0.44c0.07-0.28,0.29-0.69,0.52-0.74c0.56-0.13,1.13-0.09,1.42-0.77c0.04-0.1,0.59,0.01,0.9,0.06
		C480.01,252.9,480.07,253.03,480.11,253.07z"/>
	<path style="fill-rule:evenodd;clip-rule:evenodd;fill:#BE6D2E;" d="M492.39,270.36c-0.57-0.26-1.81,0.39-1.49-1.09
		c0.01-0.05-0.07-0.16-0.13-0.18c-0.52-0.15-1.47-0.17-0.87-0.96c0.34-0.46,1,0.34,1.46,0.63c0.51,0.32,1.15,0.6,1.07,1.4
		c0.06,0.06,0.07,0.11,0.04,0.15C492.44,270.34,492.41,270.36,492.39,270.36z"/>
	<path style="fill-rule:evenodd;clip-rule:evenodd;fill:#A3DCEF;" d="M502.01,311.16c1.19-0.49,1.46-1.83,2.35-2.59
		c0.01,0.12,0.03,0.24,0.04,0.36C504.44,311.29,504.44,311.29,502.01,311.16z"/>
	<path style="fill-rule:evenodd;clip-rule:evenodd;fill:#DC4944;" d="M502.26,288.75c-0.34-1.11-1.12-1.79-2.16-2.22
		c0.56-0.17,1.11-0.34,1.67-0.51c0.91,0.26,1.18,0.87,0.98,1.75C502.58,288.1,502.42,288.43,502.26,288.75z"/>
	<path style="fill-rule:evenodd;clip-rule:evenodd;fill:#DEA787;" d="M500.83,262.44c0.11-0.35-0.07-1.05,0.36-0.94
		c0.54,0.14,1.23,0.49,1.39,1.11c0.04,0.14-0.82,0.69-1.3,0.74C500.81,263.4,500.89,262.79,500.83,262.44z"/>
	<path style="fill-rule:evenodd;clip-rule:evenodd;fill:#DC5A5A;" d="M502.75,287.77c-0.18-0.67-0.5-1.25-0.98-1.75
		c0.53-0.18,1.01-0.95,1.62-0.12C504.07,286.84,503,287.16,502.75,287.77z"/>
	<path style="fill-rule:evenodd;clip-rule:evenodd;fill:#D92D2D;" d="M465.53,311.25c-0.36-0.21-1.06,0.25-1.03-0.34
		c0.03-0.52,0.7-0.93,1.22-1.01c0.52-0.08,0.9,0.53,0.88,0.95C466.56,311.64,465.84,310.95,465.53,311.25z"/>
	<path style="fill-rule:evenodd;clip-rule:evenodd;fill:#902F7D;" d="M495.76,260.33c-0.05,0.12,0.06,0.47-0.27,0.2
		c0.01-0.32,0-0.64,0.03-0.96c0.05-0.7,0.46-0.96,1.13-0.91c0.95,0.07,0.3,0.7,0.37,1.07c0.04,0.19-0.03,0.4-0.05,0.59
		c-0.08,0.11-0.17,0.11-0.25,0l0,0C496.4,260.01,496.08,260.01,495.76,260.33z"/>
	<path style="fill-rule:evenodd;clip-rule:evenodd;fill:#DD71AC;" d="M466.01,269.46c-0.03-0.07-0.05-0.14-0.07-0.22
		c-0.61-0.44-1.29-0.22-1.95-0.19c-0.33-0.02-0.65,0.13-0.98,0.01c-0.04-0.04-0.09-0.07-0.13-0.11c0.54-0.95,1.48-0.91,2.36-0.91
		c0.34,0,0.67,0.15,1-0.05C466.17,268.49,466.09,268.98,466.01,269.46z"/>
	<path style="fill-rule:evenodd;clip-rule:evenodd;fill:#E2AA89;" d="M458.13,298.22c-0.47,0.28-0.97,0.64-1.53,0.88
		c-0.27,0.11-0.61-0.23-0.49-0.49c0.25-0.57,0.82-0.85,1.41-0.98C457.82,297.57,458.06,297.72,458.13,298.22z"/>
	<path style="fill-rule:evenodd;clip-rule:evenodd;fill:#EBE9D3;" d="M504.42,274.27c0.05,0.98-0.87,0.7-1.34,0.99
		c-0.24,0.15-0.47-0.09-0.36-0.39c0.24-0.66,0.86-0.97,1.43-1.18C504.56,273.53,504.32,274.05,504.42,274.27z"/>
	<path style="fill-rule:evenodd;clip-rule:evenodd;fill:#6CB9D3;" d="M481.82,253.56c-0.62,1.18-1.62,1.61-2.91,1.5
		C479.75,254.29,480.72,253.8,481.82,253.56z"/>
	<path style="fill-rule:evenodd;clip-rule:evenodd;fill:#C02F2B;" d="M482.76,284.92c-1.09-0.35-2.29,0.17-3.36-0.38
		c0.18-0.09,0.36-0.19,0.54-0.27c0.98-0.02,1.99-0.42,2.89,0.3C482.9,284.71,482.88,284.83,482.76,284.92z"/>
	<path style="fill-rule:evenodd;clip-rule:evenodd;fill:#0299B0;" d="M488.3,286.82c1.04-0.25,1.43,0.18,1.63,0.86
		c0.06,0.21-0.16,0.28-0.29,0.21c-0.64-0.34-1.48-0.38-1.89-1.03C487.67,286.72,488.28,286.82,488.3,286.82z"/>
	<path style="fill-rule:evenodd;clip-rule:evenodd;fill:#A06D30;" d="M494.65,262.62c0.08,0.39,0.06,0.65-0.37,0.57
		c-0.76-0.15-0.39-0.85-0.59-1.28c-0.18-0.38,0.24-0.65,0.53-0.56C494.9,261.56,494.47,262.25,494.65,262.62z"/>
	<path style="fill-rule:evenodd;clip-rule:evenodd;fill:#DBA586;" d="M486.16,266.24c0.37,0.25,0.96,0.17,1.28,0.64
		c-0.36,0.21-0.7,0.55-1.08,0.6c-0.34,0.04-0.77-0.19-0.66-0.74C485.75,266.49,485.63,266.12,486.16,266.24z"/>
	<path style="fill-rule:evenodd;clip-rule:evenodd;fill:#D72829;" d="M496.73,287.42c-0.83,0.6-1.24,1.43-1.27,2.45
		c-0.53-0.73-0.32-1.54-0.03-2.22C495.58,287.26,496.21,287.04,496.73,287.42z"/>
	<path style="fill-rule:evenodd;clip-rule:evenodd;fill:#CD322F;" d="M504.39,305.35c0.05,0.63,0.09,1.18-0.73,1.04
		c-0.23-0.04-0.75,0.09-0.56-0.31c0.24-0.51,0.67-1.03,1.15-1.31C504.5,304.64,504.23,305.23,504.39,305.35z"/>
	<path style="fill-rule:evenodd;clip-rule:evenodd;fill:#E6E5E6;" d="M481.52,303.1c-0.23-0.23-0.21-0.72-0.74-0.63
		c-0.42,0.07-0.8-0.17-0.71-0.55c0.06-0.25,0.54-0.53,0.84-0.54c0.33-0.01,0.8,0.14,0.72,0.7c-0.05,0.35-0.08,0.69-0.13,1.04
		C481.5,303.13,481.52,303.1,481.52,303.1z"/>
	<path style="fill-rule:evenodd;clip-rule:evenodd;fill:#C7332F;" d="M489.24,282.67c-0.2-0.24-0.44-0.46-0.59-0.73
		c-0.2-0.35-0.68-0.62-0.45-1.13c0.05-0.1,0.3-0.19,0.42-0.15c0.51,0.15,0.49,0.67,0.65,1.05c0.12,0.28,0.15,0.61,0.22,0.91
		C489.44,282.77,489.35,282.79,489.24,282.67z"/>
	<path style="fill-rule:evenodd;clip-rule:evenodd;fill:#D24A46;" d="M454.95,272.95c0.12-0.41-0.3-1.08,0.56-1.17
		c0.29-0.03,0.52,0.05,0.39,0.36c-0.23,0.57-0.53,1.11-0.8,1.67C454.8,273.56,455.03,273.24,454.95,272.95z"/>
	<path style="fill-rule:evenodd;clip-rule:evenodd;fill:#6FC0DA;" d="M472.25,252.63c-0.09,0.08-0.18,0.16-0.26,0.24
		c-0.64-0.36-0.99-0.95-1.25-1.6c0.18-0.09,0.36-0.19,0.54-0.28c0.2,0.19,0.43,0.34,0.67,0.46
		C471.95,251.87,471.92,252.3,472.25,252.63z"/>
	<path style="fill-rule:evenodd;clip-rule:evenodd;fill:#B07A32;" d="M461.93,266.05c1.46-0.47,2.96-0.1,4.43-0.21
		c0.1-0.01,0.22,0.05,0.32,0.08c-0.33,0.07-0.67,0.13-1,0.2C464.44,266.1,463.18,266.08,461.93,266.05z"/>
	<path style="fill-rule:evenodd;clip-rule:evenodd;fill:#BC342D;" d="M472.2,303.82c-0.24,0-0.47,0-0.71-0.02
		c-0.41-0.03-0.84,0.36-1.22-0.06c-0.03-0.04-0.03-0.17,0-0.19c0.46-0.24,0.93-0.44,1.47-0.28c0.19,0.05,0.36,0.17,0.53,0.25
		c0.02,0.05,0.04,0.11,0.06,0.16C472.28,303.74,472.24,303.78,472.2,303.82z"/>
	<path style="fill-rule:evenodd;clip-rule:evenodd;fill:#D9302D;" d="M499.85,285.54c-0.09-0.09-0.19-0.18-0.28-0.28
		c0.45-0.24,0.88-0.52,1.35-0.71c0.22-0.09,0.59-0.15,0.62,0.29c0.02,0.37-0.22,0.52-0.53,0.43
		C500.55,285.14,500.17,285.14,499.85,285.54z"/>
	<path style="fill-rule:evenodd;clip-rule:evenodd;fill:#333132;" d="M454.98,310.2c0.57,0.19,1.13,0.4,1.45,0.98
		C455.76,311.13,454.78,311.54,454.98,310.2z"/>
	<path style="fill-rule:evenodd;clip-rule:evenodd;fill:#CFA286;" d="M457.43,299.92c0.02-0.04,0.02-0.08,0.05-0.11
		c0.36-0.3,0.71-0.64,1.24-0.55c0.07,0.01,0.18,0.29,0.14,0.36c-0.3,0.44-0.77,0.52-1.27,0.49
		C457.51,300.07,457.46,300,457.43,299.92z"/>
	<path style="fill-rule:evenodd;clip-rule:evenodd;fill:#D873A7;" d="M470.72,259.88c0.58-0.11,1.09-0.69,1.76-0.28
		C471.97,260.22,471.42,260.51,470.72,259.88z"/>
	<path style="fill-rule:evenodd;clip-rule:evenodd;fill:#FBFBE9;" d="M487.07,310.98c1.03,0,2.07-0.01,3.1-0.01
		C489.13,311.37,488.1,311.32,487.07,310.98z"/>
	<path style="fill-rule:evenodd;clip-rule:evenodd;fill:#9B2977;" d="M469.72,262.66c-0.21,0.07-0.41,0.17-0.63,0.2
		c-0.26,0.04-0.46-0.08-0.41-0.39c0.05-0.26,0.27-0.23,0.46-0.2C469.37,262.3,469.6,262.33,469.72,262.66z"/>
	<path style="fill-rule:evenodd;clip-rule:evenodd;fill:#DE73AC;" d="M464.32,273.52c0.07-0.16,0.14-0.32,0.2-0.47
		c0.02,0.8,0.03,1.59,0.05,2.39c-0.08,0-0.17,0-0.25,0c0-0.16,0-0.31-0.01-0.47c-0.08-0.3-0.53-0.33-0.52-0.7
		C463.89,273.96,464.1,273.74,464.32,273.52z"/>
	<path style="fill-rule:evenodd;clip-rule:evenodd;fill:#43B2D1;" d="M475.84,293.21c-0.8,0.47-1.68,0.14-2.51,0.21
		C474.14,293.05,475,293.21,475.84,293.21z"/>
	<path style="fill-rule:evenodd;clip-rule:evenodd;fill:#EDECEC;" d="M461.98,295.71c-0.18,0.48-0.6,0.43-0.89,0.57
		c-0.09,0.04-0.37,0.06-0.29-0.17c0.13-0.35,0.46-0.51,0.82-0.54C461.74,295.57,461.86,295.66,461.98,295.71z"/>
	<path style="fill-rule:evenodd;clip-rule:evenodd;fill:#BC599F;" d="M493.59,268.43c-0.07,0.73,0.21,1.49-0.17,2.19
		C493.43,269.89,493.13,269.13,493.59,268.43z"/>
	<path style="fill-rule:evenodd;clip-rule:evenodd;fill:#F37C63;" d="M476.36,305.65c0.07,0.06,0.14,0.12,0.21,0.18
		c0.1,0.14,0.11,0.28,0.03,0.43c-0.56-0.27-0.92-0.74-1.25-1.25l0.06-0.06c0.23,0.15,0.46,0.3,0.69,0.45
		C476.15,305.52,476.23,305.61,476.36,305.65z"/>
	<path style="fill-rule:evenodd;clip-rule:evenodd;fill:#8DC4DA;" d="M471.95,251.45c-0.76,0.63-0.51-0.21-0.67-0.46
		C471.55,251.08,472.25,250.53,471.95,251.45z"/>
	<path style="fill-rule:evenodd;clip-rule:evenodd;fill:#37302F;" d="M492.39,270.36c-0.02-0.07,0-0.14,0.04-0.21
		c0.31,0.56,0.34,1.13,0.02,1.7c-0.17,0.01-0.19-0.16-0.28-0.23C492.24,271.2,492.32,270.78,492.39,270.36z"/>
	<path style="fill-rule:evenodd;clip-rule:evenodd;fill:#DAD9C4;" d="M504.44,277.1c-0.12,0.27,0.16,0.61-0.22,0.76
		c-0.05-0.17-0.17-0.35-0.15-0.52c0.04-0.33,0.16-0.66,0.25-0.99C504.36,276.61,504.41,276.88,504.44,277.1z"/>
	<path style="fill-rule:evenodd;clip-rule:evenodd;fill:#E3E1E2;" d="M504.17,272.76c-0.3-0.01-0.59-0.02-0.89-0.03
		c0.03-0.1,0.04-0.26,0.09-0.27c0.33-0.08,0.7-0.36,0.98,0.1C504.33,272.67,504.26,272.73,504.17,272.76z"/>
	<path style="fill-rule:evenodd;clip-rule:evenodd;fill:#B77D33;" d="M458.59,264.17c0.14,0.49,0.27,0.97,0.41,1.46
		C458.02,265.38,458.76,264.65,458.59,264.17z"/>
	<path style="fill-rule:evenodd;clip-rule:evenodd;fill:#B7579E;" d="M455.48,265.13c0.32,0.63,0.32,1.27,0,1.9
		C455.48,266.4,455.48,265.76,455.48,265.13z"/>
	<path style="fill-rule:evenodd;clip-rule:evenodd;fill:#585354;" d="M477.49,308.33c-0.13-0.42-0.27-0.84-0.4-1.26
		c0.04-0.1,0.11-0.17,0.22-0.21c0.13,0.43,0.27,0.85,0.4,1.28C477.67,308.24,477.59,308.3,477.49,308.33z"/>
	<path style="fill-rule:evenodd;clip-rule:evenodd;fill:#EEE11B;" d="M474.69,311.23c-0.26-0.12-0.62,0.19-0.69-0.25
		c-0.01-0.04,0.26-0.18,0.38-0.16c0.25,0.04,0.5,0.17,0.74,0.25C474.97,311.13,474.81,311.19,474.69,311.23z"/>
	<path style="fill-rule:evenodd;clip-rule:evenodd;fill:#7E787A;" d="M470.52,289.96c-0.2-0.36-0.34-0.72,0.02-1.08
		c0.07-0.12,0.15-0.12,0.24-0.02c0.01,0.24,0.01,0.48,0.02,0.72c-0.06,0.1-0.15,0.18-0.23,0.26
		C470.54,289.88,470.53,289.91,470.52,289.96z"/>
	<path style="fill-rule:evenodd;clip-rule:evenodd;fill:#4AB2D0;" d="M477.5,294.16c0.54-0.47,1.19-0.15,1.78-0.23
		C478.71,294.22,478.09,294.12,477.5,294.16z"/>
	<path style="fill-rule:evenodd;clip-rule:evenodd;fill:#504A4C;" d="M472.46,303.54c0.31,0.01,0.6,0.07,0.74,0.39
		c-0.35,0.14-0.69,0.11-1-0.11l0.06-0.1C472.33,303.66,472.39,303.6,472.46,303.54z"/>
	<path style="fill-rule:evenodd;clip-rule:evenodd;fill:#BCB9BA;" d="M478.73,284.53c-0.18,0.36-0.44,0.26-0.65,0.27
		c-0.14,0-0.36-0.04-0.18-0.24c0.12-0.13,0.33-0.22,0.51-0.25C478.51,284.3,478.63,284.46,478.73,284.53z"/>
	<path style="fill-rule:evenodd;clip-rule:evenodd;fill:#B87B32;" d="M460,265.83c0.23-0.31,0.56-0.23,0.87-0.22
		c0.08,0,0.37-0.1,0.23,0.16c-0.04,0.08-0.29,0.07-0.44,0.1C460.44,265.86,460.22,265.85,460,265.83z"/>
	<path style="fill-rule:evenodd;clip-rule:evenodd;fill:#F5F5F5;" d="M483.48,257.89c0.33-0.21,0.67-0.43,1-0.64
		c0.07,0.04,0.09,0.08,0.07,0.12c-0.02,0.04-0.05,0.06-0.07,0.06c-0.22,0.33-0.57,0.45-0.94,0.53L483.48,257.89z"/>
	<path style="fill-rule:evenodd;clip-rule:evenodd;fill:#F0725A;" d="M482.13,299.23c0.24-0.04,0.59-0.23,0.62,0.14
		c0.03,0.32-0.36,0.29-0.62,0.32C481.95,299.54,481.91,299.39,482.13,299.23z"/>
	<path style="fill-rule:evenodd;clip-rule:evenodd;fill:#3C99B2;" d="M473.91,302.44c-0.14,0.2-0.28,0.39-0.41,0.59
		c-0.19-0.07-0.37-0.13-0.56-0.19c0.01-0.04,0.02-0.08,0.03-0.12c0.08-0.03,0.15-0.07,0.22-0.12
		C473.42,302.54,473.66,302.49,473.91,302.44z"/>
	<path style="fill-rule:evenodd;clip-rule:evenodd;fill:#CAC9CB;" d="M472.93,302.83c-0.21-0.05-0.42-0.1-0.63-0.15
		c0.19-0.28,0.4-0.5,0.73-0.17c0.04,0.09,0.02,0.17-0.06,0.23L472.93,302.83z"/>
	<path style="fill-rule:evenodd;clip-rule:evenodd;fill:#7E7879;" d="M478.26,290.33c0.12-0.28,0.25-0.56,0.37-0.84
		c0.16,0.31,0.18,0.59-0.11,0.84C478.43,290.47,478.35,290.47,478.26,290.33z"/>
	<path style="fill-rule:evenodd;clip-rule:evenodd;fill:#A39E9F;" d="M478.26,290.33c0.09,0,0.18,0,0.26,0
		c-0.04,0.32-0.14,0.6-0.48,0.71c-0.07,0.04-0.15,0.07-0.23,0.09c-0.02-0.04-0.04-0.07-0.06-0.11
		C477.92,290.8,478.09,290.56,478.26,290.33z"/>
	<path style="fill-rule:evenodd;clip-rule:evenodd;fill:#F8D60C;" d="M478.23,285.56c-0.37,0.34-0.81,0.17-1.23,0.19
		C477.41,285.68,477.82,285.62,478.23,285.56z"/>
	<path style="fill-rule:evenodd;clip-rule:evenodd;fill:#ACA8A9;" d="M458.73,260.1c-0.03,0.27,0.45,0.67,0.08,0.75
		c-0.34,0.07-0.2-0.49-0.28-0.77C458.6,259.99,458.67,260,458.73,260.1z"/>
	<path style="fill-rule:evenodd;clip-rule:evenodd;fill:#E3D622;" d="M472.92,251.41c0.08-0.31,0.3-0.43,0.6-0.43
		c0.05,0,0.15,0.1,0.14,0.12c-0.12,0.31-0.36,0.48-0.68,0.54c-0.06-0.04-0.09-0.09-0.08-0.14
		C472.89,251.44,472.9,251.41,472.92,251.41z"/>
	<path style="fill-rule:evenodd;clip-rule:evenodd;fill:#FCCEAC;" d="M482.08,266.33c0.23-0.23,0.47-0.47,0.69,0.01
		C482.54,266.34,482.31,266.33,482.08,266.33z"/>
	<path style="fill-rule:evenodd;clip-rule:evenodd;fill:#56C7ED;" d="M479.21,294.88c-0.31,0.35-0.64,0.29-0.99,0.06
		C478.55,294.92,478.88,294.9,479.21,294.88z"/>
	<path style="fill-rule:evenodd;clip-rule:evenodd;fill:#DEDDDE;" d="M462.39,297.82c-0.24-0.13-0.61-0.31-0.44-0.57
		c0.19-0.28,0.34,0.09,0.47,0.24C462.52,297.61,462.51,297.72,462.39,297.82z"/>
	<path style="fill-rule:evenodd;clip-rule:evenodd;fill:#4FBEE2;" d="M476.56,295.32c-0.17,0.33-0.49,0.26-0.77,0.29
		c-0.09,0.09-0.16,0.08-0.22-0.03C475.85,295.34,476.2,295.31,476.56,295.32z"/>
	<path style="fill-rule:evenodd;clip-rule:evenodd;fill:#A29E9B;" d="M483.53,301.29c-0.01,0.12-0.03,0.23-0.04,0.35
		c-0.15-0.17-0.3-0.34-0.45-0.5c-0.08-0.05-0.11-0.11-0.08-0.16c0.03-0.05,0.05-0.08,0.08-0.08
		C483.2,301.02,483.36,301.16,483.53,301.29z"/>
	<path style="fill-rule:evenodd;clip-rule:evenodd;fill:#922885;" d="M498.88,264.64c-0.16-0.08-0.32-0.16-0.48-0.24l0,0
		c-0.07-0.24,0-0.34,0.25-0.25c0.16,0,0.31,0.01,0.47,0.01C499.04,264.32,498.96,264.48,498.88,264.64z"/>
	<path style="fill-rule:evenodd;clip-rule:evenodd;fill:#A5A2A3;" d="M482.54,258.33c0.05-0.2,0.18-0.22,0.35-0.18
		c0.14-0.09,0.27-0.08,0.4,0.02c-0.25,0.14-0.5,0.28-0.75,0.42c-0.08-0.06-0.1-0.11-0.08-0.17
		C482.49,258.36,482.52,258.33,482.54,258.33z"/>
	<path style="fill-rule:evenodd;clip-rule:evenodd;fill:#F39477;" d="M471.52,271.38c-0.17,0.17-0.35,0.33-0.52,0.5
		C470.7,271.21,471.3,271.49,471.52,271.38z"/>
	<path style="fill-rule:evenodd;clip-rule:evenodd;fill:#918D8E;" d="M477.76,291.32c-0.17,0.13-0.33,0.26-0.49,0.38
		c-0.07-0.06-0.1-0.12-0.08-0.17c0.02-0.06,0.05-0.09,0.07-0.09c0.16-0.14,0.32-0.28,0.48-0.41l0.1,0.06
		C477.84,291.18,477.81,291.25,477.76,291.32z"/>
	<path style="fill-rule:evenodd;clip-rule:evenodd;fill:#ECB19F;" d="M476.59,306.25c-0.01-0.14-0.02-0.28-0.03-0.43
		c0.18,0.25,0.35,0.5,0.53,0.74c0.03,0.1-0.01,0.14-0.11,0.13C476.86,306.55,476.72,306.4,476.59,306.25z"/>
	<path style="fill-rule:evenodd;clip-rule:evenodd;fill:#504A4B;" d="M460.63,303.74c-0.1-0.12-0.16-0.21-0.23-0.29
		c0.09-0.05,0.17-0.12,0.26-0.14c0.05-0.01,0.17,0.1,0.16,0.12C460.78,303.51,460.71,303.6,460.63,303.74z"/>
	<path style="fill-rule:evenodd;clip-rule:evenodd;fill:#802873;" d="M496.72,260.32c0.08,0,0.17,0,0.25,0c0,0.32,0,0.65,0.01,0.97
		C496.62,261.04,496.75,260.66,496.72,260.32z"/>
	<path style="fill-rule:evenodd;clip-rule:evenodd;fill:#59C1E4;" d="M477.55,295.1c-0.21,0.32-0.47,0.31-0.76,0.11
		C477.05,295.17,477.3,295.13,477.55,295.1z"/>
	<path style="fill-rule:evenodd;clip-rule:evenodd;fill:#85277A;" d="M498.65,264.15c-0.08,0.08-0.17,0.17-0.25,0.25
		c-0.07-0.18-0.15-0.37-0.22-0.55C498.34,263.95,498.5,264.05,498.65,264.15z"/>
	<path style="fill-rule:evenodd;clip-rule:evenodd;fill:#F8D60C;" d="M474.89,287c0.08,0.14,0.15,0.28,0.23,0.42
		c-0.15-0.03-0.37,0-0.43-0.09C474.61,287.21,474.68,287.03,474.89,287z"/>
	<path style="fill-rule:evenodd;clip-rule:evenodd;fill:#CAC7C8;" d="M492.17,271.62c0.09,0.08,0.19,0.16,0.28,0.23
		c-0.07,0.12-0.13,0.24-0.2,0.36C492.22,272.01,492.2,271.82,492.17,271.62z"/>
	<path style="fill-rule:evenodd;clip-rule:evenodd;fill:#4D342D;" d="M466.78,272.37c-0.01,0.06-0.02,0.13-0.03,0.19
		c-0.17,0-0.33-0.01-0.5-0.01c0.07-0.16,0.15-0.32,0.22-0.48C466.57,272.17,466.67,272.27,466.78,272.37z"/>
	<path style="fill-rule:evenodd;clip-rule:evenodd;fill:#44BFE6;" d="M475.56,295.58c0.08,0.01,0.15,0.01,0.22,0.03
		c-0.19,0.34-0.43,0.24-0.67,0.07C475.26,295.65,475.41,295.62,475.56,295.58z"/>
	<path style="fill-rule:evenodd;clip-rule:evenodd;fill:#8C7F85;" d="M458.73,260.1l-0.1,0.01c0,0-0.1-0.02-0.1-0.03
		c-0.1-0.15-0.2-0.29-0.31-0.44c0.1-0.02,0.2-0.03,0.31-0.05C458.59,259.76,458.66,259.93,458.73,260.1z"/>
	<path style="fill-rule:evenodd;clip-rule:evenodd;fill:#696569;" d="M474.43,257.98c-0.14-0.04-0.28-0.08-0.42-0.12
		c0.16-0.04,0.32-0.08,0.48-0.12C474.47,257.82,474.45,257.9,474.43,257.98z"/>
	<path style="fill-rule:evenodd;clip-rule:evenodd;fill:#F8D60C;" d="M482.42,285.73c-0.29,0.02-0.58,0.09-0.81-0.17
		C481.88,285.62,482.15,285.67,482.42,285.73z"/>
	<path style="fill-rule:evenodd;clip-rule:evenodd;fill:#FAFAFA;" d="M483.03,300.89c0,0.08,0,0.16,0,0.25
		c-0.17-0.03-0.48,0.01-0.43-0.24C482.67,300.57,482.88,300.85,483.03,300.89z"/>
	<path style="fill-rule:evenodd;clip-rule:evenodd;fill:#F1DD0E;" d="M492.66,261.02c-0.26,0-0.51,0-0.77,0.01
		C492.14,260.9,492.4,260.67,492.66,261.02z"/>
	<path style="fill-rule:evenodd;clip-rule:evenodd;fill:#D0322D;" d="M479.94,284.28c-0.11,0.22-0.31,0.27-0.54,0.27
		C479.49,284.27,479.6,284.05,479.94,284.28z"/>
	<path style="fill-rule:evenodd;clip-rule:evenodd;fill:#F4CB12;" d="M476.08,263.16c0-0.06,0-0.13,0-0.2
		c0.26,0,0.54-0.04,0.72,0.22C476.56,263.18,476.32,263.17,476.08,263.16z"/>
	<path style="fill-rule:evenodd;clip-rule:evenodd;fill:#6D6769;" d="M482.32,258.65c-0.12,0.05-0.23,0.1-0.35,0.16
		c-0.08-0.31,0.15-0.35,0.36-0.4c0.07,0.06,0.09,0.11,0.06,0.16C482.37,258.62,482.34,258.65,482.32,258.65z"/>
	<path style="fill-rule:evenodd;clip-rule:evenodd;fill:#D873A7;" d="M472.48,259.6c-0.08-0.14-0.16-0.29-0.24-0.43
		C472.5,259.22,472.89,259.19,472.48,259.6z"/>
	<path style="fill-rule:evenodd;clip-rule:evenodd;fill:#1E1718;" d="M471.4,263.94c0.06,0.03,0.12,0.07,0.18,0.1
		c-0.06,0.03-0.12,0.09-0.18,0.09c-0.06,0-0.12-0.06-0.18-0.09C471.28,264.01,471.34,263.97,471.4,263.94z"/>
	<path style="fill-rule:evenodd;clip-rule:evenodd;fill:#F1DD0E;" d="M489.99,261.75c-0.19,0.3-0.48,0.26-0.76,0.23
		C489.48,261.9,489.74,261.83,489.99,261.75z"/>
	<path style="fill-rule:evenodd;clip-rule:evenodd;fill:#856B67;" d="M482.76,284.92c0.02-0.12,0.05-0.23,0.07-0.35
		c0.11,0.13,0.22,0.25,0.32,0.38C483.02,284.94,482.89,284.93,482.76,284.92z"/>
	<path style="fill-rule:evenodd;clip-rule:evenodd;fill:#E3E1E2;" d="M470.83,266.51c0.08,0.07,0.16,0.15,0.24,0.22
		c-0.13-0.02-0.26-0.03-0.39-0.05C470.73,266.62,470.78,266.57,470.83,266.51z"/>
	<path style="fill-rule:evenodd;clip-rule:evenodd;fill:#F8D60C;" d="M484.13,286.7c-0.27-0.04-0.36-0.21-0.36-0.46
		C483.9,286.39,484.01,286.54,484.13,286.7z"/>
	<path style="fill-rule:evenodd;clip-rule:evenodd;fill:#FAF9E7;" d="M504.17,272.76c0.06-0.07,0.12-0.13,0.18-0.2
		c-0.01,0.09-0.02,0.19-0.02,0.28C504.27,272.82,504.22,272.79,504.17,272.76z"/>
	<path style="fill-rule:evenodd;clip-rule:evenodd;fill:#EEEEEE;" d="M477.49,308.33c0.07-0.06,0.14-0.13,0.22-0.19
		c-0.01,0.13-0.02,0.26-0.02,0.4C477.62,308.47,477.56,308.4,477.49,308.33z"/>
	<path style="fill-rule:evenodd;clip-rule:evenodd;fill:#FAC512;" d="M477.24,287.95c0.17,0.06,0.34,0.12,0.51,0.18
		C477.59,288.07,477.41,288.01,477.24,287.95z"/>
	<path style="fill-rule:evenodd;clip-rule:evenodd;fill:#F8D70C;" d="M472.72,309.27c0.18-0.24,0.33-0.22,0.46,0.05
		C473.03,309.3,472.88,309.28,472.72,309.27z"/>
	<path style="fill-rule:evenodd;clip-rule:evenodd;fill:#F8DD0C;" d="M488.05,288.16c-0.15-0.07-0.3-0.14-0.45-0.2
		C487.75,288.03,487.9,288.1,488.05,288.16z"/>
	<path style="fill-rule:evenodd;clip-rule:evenodd;fill:#F8D60C;" d="M485.24,286.94c-0.18-0.06-0.35-0.11-0.53-0.17
		C484.89,286.83,485.07,286.88,485.24,286.94z"/>
	<path style="fill-rule:evenodd;clip-rule:evenodd;fill:#F3A31E;" d="M467.24,310.24c0.07,0.15,0.14,0.3,0.21,0.45
		C467.38,310.54,467.31,310.39,467.24,310.24z"/>
	<path style="fill-rule:evenodd;clip-rule:evenodd;fill:#F8DD0C;" d="M488.54,288.4c-0.15-0.07-0.3-0.15-0.46-0.22
		C488.24,288.25,488.39,288.33,488.54,288.4z"/>
	<path style="fill-rule:evenodd;clip-rule:evenodd;fill:#77CFE7;" d="M501.04,310.96c0,0.07,0,0.13,0,0.2c-0.16,0-0.32,0-0.48,0
		C500.72,311.1,500.88,311.03,501.04,310.96z"/>
	<path style="fill-rule:evenodd;clip-rule:evenodd;fill:#F0EFEF;" d="M470.78,288.86c-0.08,0.01-0.16,0.01-0.24,0.02
		c0.03-0.19-0.06-0.45,0.25-0.5l0.03,0.03C470.81,288.56,470.79,288.71,470.78,288.86z"/>
	<path style="fill-rule:evenodd;clip-rule:evenodd;fill:#F8DD0C;" d="M489.03,288.63c-0.16-0.07-0.31-0.15-0.47-0.22
		C488.72,288.49,488.88,288.56,489.03,288.63z"/>
	<path style="fill-rule:evenodd;clip-rule:evenodd;fill:#F8B31A;" d="M480.13,288.89c0.17,0.07,0.34,0.14,0.51,0.21
		C480.47,289.03,480.3,288.96,480.13,288.89z"/>
	<path style="fill-rule:evenodd;clip-rule:evenodd;fill:#922885;" d="M499.58,263.87c-0.07,0.22-0.24,0.29-0.46,0.29
		C499.27,264.06,499.43,263.96,499.58,263.87z"/>
	<path style="fill-rule:evenodd;clip-rule:evenodd;fill:#5DA7BD;" d="M481.61,291.06c0-0.17-0.01-0.34-0.01-0.51
		C482,290.71,481.88,290.88,481.61,291.06z"/>
	<path style="fill-rule:evenodd;clip-rule:evenodd;fill:#B0ACAD;" d="M477.26,291.44c0,0.09,0,0.18,0,0.26
		c-0.16,0.02-0.32,0.03-0.47,0.05l0.01,0.01C476.81,291.45,477.1,291.53,477.26,291.44z"/>
	<path style="fill-rule:evenodd;clip-rule:evenodd;fill:#ADB1B5;" d="M476.31,292.02c-0.01-0.08-0.02-0.16-0.03-0.24
		c0.18,0,0.35,0,0.53,0l-0.01-0.01C476.76,292.07,476.5,291.98,476.31,292.02z"/>
	<path style="fill-rule:evenodd;clip-rule:evenodd;fill:#F1DD0E;" d="M490.48,261.55c-0.16,0.07-0.32,0.13-0.48,0.2
		C490.16,261.68,490.32,261.61,490.48,261.55z"/>
	<path style="fill-rule:evenodd;clip-rule:evenodd;fill:#58AFCB;" d="M485.43,296.32c-0.09-0.16-0.18-0.32-0.27-0.48
		C485.47,295.87,485.44,296.1,485.43,296.32z"/>
	<path style="fill-rule:evenodd;clip-rule:evenodd;fill:#F1DD0E;" d="M491.68,261.07c-0.18,0.06-0.35,0.13-0.53,0.19
		C491.33,261.2,491.5,261.13,491.68,261.07z"/>
	<path style="fill-rule:evenodd;clip-rule:evenodd;fill:#4CB4D2;" d="M472.23,297.22c0,0.19,0,0.37,0,0.56
		C471.92,297.59,471.84,297.41,472.23,297.22z"/>
	<path style="fill-rule:evenodd;clip-rule:evenodd;fill:#F1A51D;" d="M472.48,260.79c-0.15,0.09-0.3,0.17-0.45,0.26
		C472.18,260.97,472.33,260.88,472.48,260.79z"/>
	<path style="fill-rule:evenodd;clip-rule:evenodd;fill:#BBB7B8;" d="M462.39,297.82c0.01-0.11,0.02-0.22,0.03-0.33
		c0.18,0.09,0.28,0.21,0.18,0.41C462.6,297.91,462.46,297.85,462.39,297.82z"/>
	<path style="fill-rule:evenodd;clip-rule:evenodd;fill:#58ABC6;" d="M486.14,298.48c-0.07-0.18-0.13-0.36-0.2-0.54
		C486.16,298.06,486.17,298.26,486.14,298.48z"/>
	<path style="fill-rule:evenodd;clip-rule:evenodd;fill:#D9DCDF;" d="M482.13,299.23c0,0.16,0,0.31,0.01,0.47
		c-0.17,0.04-0.32,0.03-0.31-0.2C481.82,299.3,481.95,299.23,482.13,299.23z"/>
	<path style="fill-rule:evenodd;clip-rule:evenodd;fill:#63B3CE;" d="M473.7,300.4c0.09,0.16,0.18,0.33,0.27,0.49
		C473.66,300.85,473.67,300.63,473.7,300.4z"/>
	<path style="fill-rule:evenodd;clip-rule:evenodd;fill:#F8DD0C;" d="M489.55,288.86c-0.17-0.07-0.33-0.15-0.5-0.22
		C489.22,288.71,489.38,288.79,489.55,288.86z"/>
	<path style="fill-rule:evenodd;clip-rule:evenodd;fill:#403A3C;" d="M482.73,302.38c-0.03,0.01-0.07,0.03-0.08,0.02
		c-0.02-0.02-0.03-0.06-0.04-0.1c0.05-0.01,0.09-0.02,0.14-0.03C482.74,302.3,482.74,302.34,482.73,302.38z"/>
	<path style="fill-rule:evenodd;clip-rule:evenodd;fill:#D873A7;" d="M471.83,259.09c-0.18-0.06-0.36-0.12-0.55-0.18
		C471.46,258.97,471.65,259.03,471.83,259.09z"/>
	<path style="fill-rule:evenodd;clip-rule:evenodd;fill:#DDD1CD;" d="M489.24,282.67c0.08-0.02,0.17-0.03,0.25-0.05
		c0.03,0.12,0.05,0.24,0.08,0.36c-0.06,0.06-0.13,0.12-0.19,0.18C489.34,282.99,489.29,282.83,489.24,282.67z"/>
	<path style="fill-rule:evenodd;clip-rule:evenodd;fill:#D2D1D2;" d="M483.29,258.17c-0.13-0.01-0.26-0.01-0.4-0.02
		c0.19-0.09,0.39-0.17,0.58-0.26l0.06,0.07C483.46,258.03,483.38,258.1,483.29,258.17z"/>
	<path style="fill-rule:evenodd;clip-rule:evenodd;fill:#706B6C;" d="M496.72,256.52c-0.07-0.01-0.2,0-0.21-0.02
		c-0.04-0.17,0.03-0.26,0.22-0.23C496.8,256.35,496.79,256.44,496.72,256.52z"/>
	<path style="fill-rule:evenodd;clip-rule:evenodd;fill:#B480A3;" d="M456.42,252.4c-0.08,0.07-0.15,0.14-0.23,0.21
		c0.01-0.13,0.03-0.26,0.04-0.39C456.3,252.28,456.36,252.34,456.42,252.4z"/>
	<path style="fill-rule:evenodd;clip-rule:evenodd;fill:#61B3CE;" d="M482.31,306.18c-0.08-0.17-0.15-0.35-0.23-0.52
		C482.16,305.83,482.23,306,482.31,306.18z"/>
	<path style="fill-rule:evenodd;clip-rule:evenodd;fill:#C8BDB8;" d="M483.06,267.03c0.11,0.02,0.21,0.04,0.32,0.06
		c-0.11,0.19-0.26,0.25-0.46,0.15C482.96,267.17,483.01,267.1,483.06,267.03z"/>
	<path style="fill-rule:evenodd;clip-rule:evenodd;fill:#F8D60C;" d="M483.32,285.98c-0.17-0.06-0.34-0.13-0.51-0.19
		C482.98,285.85,483.15,285.92,483.32,285.98z"/>
	<path style="fill-rule:evenodd;clip-rule:evenodd;fill:#C2C2C3;" d="M477.31,306.86c-0.07,0.07-0.15,0.14-0.22,0.21
		c-0.03-0.12-0.07-0.25-0.1-0.37c0.04-0.04,0.07-0.08,0.11-0.13C477.17,306.67,477.24,306.77,477.31,306.86z"/>
	<path style="fill-rule:evenodd;clip-rule:evenodd;fill:#5EADC6;" d="M482.8,307.81c0.01-0.17,0.01-0.34,0.02-0.51
		C483.04,307.48,483.21,307.65,482.8,307.81z"/>
	<path style="fill-rule:evenodd;clip-rule:evenodd;fill:#F8DD0C;" d="M487.47,287.89c-0.11-0.05-0.23-0.11-0.34-0.16
		C487.24,287.78,487.35,287.83,487.47,287.89z"/>
	<path style="fill-rule:evenodd;clip-rule:evenodd;fill:#F5CD10;" d="M489.46,266.11c0.1,0.05,0.2,0.1,0.29,0.15
		C489.65,266.21,489.56,266.16,489.46,266.11z"/>
	<path style="fill-rule:evenodd;clip-rule:evenodd;fill:#BC2326;" d="M497.65,287.64c-0.08,0.09-0.15,0.18-0.23,0.27
		C497.5,287.82,497.58,287.73,497.65,287.64z"/>
	<path style="fill-rule:evenodd;clip-rule:evenodd;fill:#BC2326;" d="M497.43,287.9c-0.06,0.14-0.13,0.16-0.23,0.04
		C497.28,287.92,497.35,287.91,497.43,287.9z"/>
	<path style="fill-rule:evenodd;clip-rule:evenodd;fill:#CECDCE;" d="M470.79,288.38c0.04-0.07,0.09-0.15,0.13-0.22
		c0.02,0.03,0.07,0.07,0.07,0.07c-0.05,0.06-0.11,0.12-0.17,0.18L470.79,288.38z"/>
	<path style="fill-rule:evenodd;clip-rule:evenodd;fill:#F1DD0E;" d="M490.96,261.33c-0.11,0.05-0.21,0.11-0.32,0.16
		C490.74,261.44,490.85,261.38,490.96,261.33z"/>
	<path style="fill-rule:evenodd;clip-rule:evenodd;fill:#F9CC0F;" d="M503.2,304.71c0.07-0.08,0.13-0.16,0.2-0.23
		C503.34,304.56,503.27,304.63,503.2,304.71z"/>
	<path style="fill-rule:evenodd;clip-rule:evenodd;fill:#D873A7;" d="M470.23,259.64c0.11,0.06,0.22,0.12,0.33,0.18
		C470.45,259.76,470.34,259.7,470.23,259.64z"/>
	<path style="fill-rule:evenodd;clip-rule:evenodd;fill:#C2C0C1;" d="M482.32,258.65c0-0.08,0-0.16,0.01-0.24
		c0.07-0.03,0.14-0.06,0.22-0.08c0,0.09,0,0.17,0.01,0.26C482.47,258.61,482.4,258.63,482.32,258.65z"/>
	<path style="fill-rule:evenodd;clip-rule:evenodd;fill:#C9C7C7;" d="M475.34,305.01c-0.07-0.06-0.13-0.12-0.2-0.18
		c0.03-0.02,0.07-0.07,0.07-0.07c0.07,0.06,0.13,0.13,0.19,0.19C475.4,304.95,475.34,305.01,475.34,305.01z"/>
	<path style="fill-rule:evenodd;clip-rule:evenodd;fill:#847C79;" d="M469.85,305.18c0-0.08-0.01-0.16-0.01-0.24
		c0.06,0.05,0.11,0.1,0.17,0.16C469.95,305.13,469.9,305.15,469.85,305.18z"/>
	<path style="fill-rule:evenodd;clip-rule:evenodd;fill:#D4D1C4;" d="M472.92,251.41c0.02,0.08,0.04,0.15,0.05,0.23
		c-0.06,0-0.12-0.01-0.18-0.01C472.83,251.56,472.88,251.48,472.92,251.41z"/>
	<path style="fill-rule:evenodd;clip-rule:evenodd;fill:#FCD0B1;" d="M498.12,257.19c-0.06-0.06-0.13-0.12-0.19-0.19
		C498.12,256.94,498.19,256.99,498.12,257.19z"/>
	<path style="fill-rule:evenodd;clip-rule:evenodd;fill:#F8BD16;" d="M493.44,263.89c-0.11-0.07-0.21-0.14-0.32-0.22
		C493.23,263.75,493.33,263.82,493.44,263.89z"/>
	<path style="fill-rule:evenodd;clip-rule:evenodd;fill:#E8866F;" d="M476.36,305.65c-0.09-0.09-0.18-0.17-0.27-0.26
		C476.18,305.48,476.27,305.57,476.36,305.65z"/>
	<path style="fill-rule:evenodd;clip-rule:evenodd;fill:#716B6C;" d="M485.38,266.93c-0.02,0.02-0.05,0.04-0.07,0.06
		c-0.02-0.02-0.06-0.05-0.05-0.07s0.04-0.04,0.07-0.06C485.34,266.88,485.36,266.91,485.38,266.93z"/>
	<path style="fill-rule:evenodd;clip-rule:evenodd;fill:#19BAE7;" d="M472.98,302.74c0-0.08,0.02-0.16,0.06-0.23
		c0.07-0.01,0.12,0.02,0.15,0.08C473.11,302.64,473.05,302.69,472.98,302.74z"/>
	<path style="fill-rule:evenodd;clip-rule:evenodd;fill:#E0D9D8;" d="M468.62,299.19c0.01,0.07,0.02,0.15,0.04,0.22
		c-0.09-0.02-0.18-0.03-0.26-0.05C468.47,299.31,468.54,299.25,468.62,299.19z"/>
	<path style="fill-rule:evenodd;clip-rule:evenodd;fill:#58A8C0;" d="M471.1,291.75c-0.1-0.08-0.21-0.16-0.31-0.24
		C470.89,291.6,471,291.68,471.1,291.75z"/>
	<path style="fill-rule:evenodd;clip-rule:evenodd;fill:#F8B818;" d="M470.08,305.93c-0.09,0.07-0.19,0.13-0.28,0.2
		C469.89,306.06,469.99,306,470.08,305.93z"/>
	<path style="fill-rule:evenodd;clip-rule:evenodd;fill:#868081;" d="M501.75,291.03c0.03,0.05,0.06,0.11,0.08,0.17
		c-0.08-0.02-0.16-0.05-0.24-0.07C501.65,291.09,501.7,291.06,501.75,291.03z"/>
	<path style="fill-rule:evenodd;clip-rule:evenodd;fill:#58ACC5;" d="M472.22,297.76c0.09,0.11,0.17,0.21,0.26,0.32
		C472.39,297.97,472.3,297.87,472.22,297.76z"/>
	<path style="fill-rule:evenodd;clip-rule:evenodd;fill:#5BA9C0;" d="M481.37,291.35c0.08-0.11,0.17-0.21,0.25-0.32
		C481.53,291.14,481.45,291.25,481.37,291.35z"/>
	<path style="fill-rule:evenodd;clip-rule:evenodd;fill:#C92427;" d="M488.35,306.16c0.07,0.09,0.13,0.18,0.2,0.27
		C488.48,306.34,488.42,306.25,488.35,306.16z"/>
	<path style="fill-rule:evenodd;clip-rule:evenodd;fill:#67A1B6;" d="M485.89,297.55c-0.06-0.12-0.12-0.24-0.18-0.36
		C485.77,297.31,485.83,297.43,485.89,297.55z"/>
	<path style="fill-rule:evenodd;clip-rule:evenodd;fill:#F8D60C;" d="M476.55,285.82c-0.06,0.06-0.13,0.12-0.19,0.17
		C476.42,285.94,476.48,285.88,476.55,285.82z"/>
	<path style="fill-rule:evenodd;clip-rule:evenodd;fill:#66A0B4;" d="M485.65,296.83c-0.06-0.12-0.12-0.24-0.18-0.36
		C485.53,296.59,485.59,296.71,485.65,296.83z"/>
	<path style="fill-rule:evenodd;clip-rule:evenodd;fill:#F8D60C;" d="M476.31,286.04c-0.07,0.07-0.14,0.13-0.2,0.2
		C476.18,286.17,476.25,286.1,476.31,286.04z"/>
	<path style="fill-rule:evenodd;clip-rule:evenodd;fill:#E3E2E3;" d="M477.76,291.32c0.03-0.08,0.05-0.15,0.08-0.23
		c0.08,0.03,0.14,0.01,0.19-0.05C477.95,291.14,477.85,291.23,477.76,291.32z"/>
	<path style="fill-rule:evenodd;clip-rule:evenodd;fill:#F8D60C;" d="M483.76,286.22c-0.08-0.06-0.16-0.12-0.24-0.18
		C483.61,286.1,483.68,286.16,483.76,286.22z"/>
	<path style="fill-rule:evenodd;clip-rule:evenodd;fill:#B2B4B9;" d="M472.46,303.54c-0.07,0.06-0.13,0.12-0.2,0.19
		c-0.02-0.06-0.02-0.13,0-0.19C472.33,303.52,472.39,303.52,472.46,303.54z"/>
	<path style="fill-rule:evenodd;clip-rule:evenodd;fill:#958F91;" d="M501.99,291.08c-0.08-0.01-0.16-0.03-0.24-0.04
		c0.05-0.08,0.1-0.15,0.15-0.23C501.92,290.9,501.96,290.99,501.99,291.08z"/>
	<path style="fill-rule:evenodd;clip-rule:evenodd;fill:#C92427;" d="M488.82,306.88c0.07,0.1,0.13,0.19,0.2,0.29
		C488.95,307.08,488.89,306.98,488.82,306.88z"/>
	<path style="fill-rule:evenodd;clip-rule:evenodd;fill:#F8D60C;" d="M476.07,286.27c-0.08,0.07-0.16,0.14-0.24,0.2
		C475.92,286.4,476,286.33,476.07,286.27z"/>
	<path style="fill-rule:evenodd;clip-rule:evenodd;fill:#CBC1BC;" d="M457.43,299.92c0.05,0.06,0.11,0.12,0.16,0.19
		C457.44,300.12,457.31,300.13,457.43,299.92z"/>
	<path style="fill-rule:evenodd;clip-rule:evenodd;fill:#C92427;" d="M491.92,307.58c0.06-0.07,0.12-0.14,0.19-0.22
		C492.04,307.44,491.98,307.51,491.92,307.58z"/>
	<path style="fill-rule:evenodd;clip-rule:evenodd;fill:#F8D60C;" d="M475.83,286.48c-0.11,0.07-0.23,0.14-0.34,0.21
		C475.6,286.62,475.72,286.55,475.83,286.48z"/>
	<path style="fill-rule:evenodd;clip-rule:evenodd;fill:#C92427;" d="M491.69,307.87c0.07-0.09,0.14-0.18,0.21-0.28
		C491.83,307.69,491.76,307.78,491.69,307.87z"/>
	<path style="fill-rule:evenodd;clip-rule:evenodd;fill:#AD3D91;" d="M467.11,261.32c0.09-0.01,0.18-0.03,0.27-0.04
		C467.32,261.5,467.22,261.42,467.11,261.32z"/>
	<path style="fill-rule:evenodd;clip-rule:evenodd;fill:#F7F8F8;" d="M484.48,257.43c0-0.06,0-0.12,0-0.18
		c0.08-0.03,0.15-0.07,0.23-0.1c-0.03,0.07-0.03,0.15,0.01,0.22C484.64,257.39,484.56,257.41,484.48,257.43z"/>
	<path style="fill-rule:evenodd;clip-rule:evenodd;fill:#AC544A;" d="M470.79,290.33c0.09,0.07,0.19,0.14,0.28,0.21
		C470.97,290.47,470.88,290.4,470.79,290.33z"/>
	<path style="fill-rule:evenodd;clip-rule:evenodd;fill:#F8D60C;" d="M475.35,286.76c-0.09,0.06-0.18,0.12-0.28,0.18
		C475.17,286.88,475.26,286.82,475.35,286.76z"/>
	<path style="fill-rule:evenodd;clip-rule:evenodd;fill:#F9CC0F;" d="M503.7,304.05c-0.01-0.1-0.01-0.19-0.02-0.29
		c0.07,0,0.14,0,0.21,0C503.83,303.86,503.76,303.95,503.7,304.05z"/>
	<path style="fill-rule:evenodd;clip-rule:evenodd;fill:#D873A7;" d="M469.76,259.39c0.1,0.06,0.21,0.12,0.31,0.18
		C469.97,259.51,469.87,259.45,469.76,259.39z"/>
	<path style="fill-rule:evenodd;clip-rule:evenodd;fill:#AC544A;" d="M470.54,290.03c0.08,0.1,0.17,0.2,0.25,0.3
		C470.71,290.23,470.63,290.13,470.54,290.03z"/>
	<path style="fill-rule:evenodd;clip-rule:evenodd;fill:#86888C;" d="M469.58,290.36l-0.1-0.01l-0.1,0.01
		c0.05-0.07,0.09-0.14,0.14-0.21C469.54,290.22,469.56,290.29,469.58,290.36z"/>
	<path style="fill-rule:evenodd;clip-rule:evenodd;fill:#AC544A;" d="M470.57,289.84c0.08-0.09,0.15-0.17,0.23-0.26
		c0.04,0.07,0.06,0.14,0.06,0.22C470.76,289.81,470.67,289.83,470.57,289.84z"/>
	<path style="fill-rule:evenodd;clip-rule:evenodd;fill:#F9CC0F;" d="M503.43,304.43c0.05-0.06,0.1-0.12,0.16-0.18
		C503.54,304.31,503.48,304.37,503.43,304.43z"/>
	<path style="fill-rule:evenodd;clip-rule:evenodd;fill:#AFAEB0;" d="M496.72,256.52c0-0.08,0.01-0.17,0.01-0.25
		c0.06,0.02,0.13,0.05,0.19,0.07C496.86,256.4,496.79,256.46,496.72,256.52z"/>
	<path style="fill-rule:evenodd;clip-rule:evenodd;fill:#F8B31A;" d="M479.58,288.67c0.11,0.05,0.22,0.11,0.33,0.16
		C479.8,288.78,479.69,288.72,479.58,288.67z"/>
	<path style="fill-rule:evenodd;clip-rule:evenodd;fill:#F8D60C;" d="M484.67,286.73c-0.1-0.02-0.2-0.03-0.3-0.05
		C484.49,286.56,484.6,286.53,484.67,286.73z"/>
	<path style="fill-rule:evenodd;clip-rule:evenodd;fill:#030202;" d="M485.5,277.78c0.06-0.14,0.12-0.27,0.19-0.41
		c0.69,0.17,1.39,0.33,2.08,0.5c0.22,0.06,0.52,0.1,0.49,0.4c-0.01,0.11-0.28,0.22-0.45,0.28c-4.33,1.43-8.74,2.46-13.35,1.93
		c-1.55-0.18-3.21-0.13-4.42-1.41c-0.06-0.11-0.04-0.21,0.05-0.3c4.99,1.47,9.96,1.41,14.89-0.27c0.09-0.05,0.18-0.1,0.28-0.16
		c0.19-0.01,0.44,0.06,0.38-0.28C485.57,277.98,485.52,277.88,485.5,277.78L485.5,277.78z"/>
	<path style="fill-rule:evenodd;clip-rule:evenodd;fill:#302B2B;" d="M472.26,274.17c-0.15-0.54,0.03-0.97,0.47-1.31
		c0.79-0.14,1.59-0.32,2.22,0.39c0.2,0.23,0.54,0.5,0.31,0.81c-0.26,0.36-0.57,0.04-0.83-0.12c-0.27-0.17-0.49-0.42-0.77-0.55
		c-0.41-0.19-0.69-0.08-0.68,0.45c0.01,0.3,0.52,0.56,0.18,0.79C473.03,274.72,472.57,274.34,472.26,274.17z"/>
	<path style="fill-rule:evenodd;clip-rule:evenodd;fill:#453E3C;" d="M480.32,274.62c0.03,0.24-0.1,0.43-0.3,0.36
		c-0.19-0.06-0.37-0.27-0.45-0.46c-0.09-0.21,0.09-0.37,0.31-0.36C480.16,274.17,480.26,274.38,480.32,274.62z"/>
	<path style="fill-rule:evenodd;clip-rule:evenodd;fill:#785D54;" d="M470.08,278.77c-0.02,0.1-0.03,0.2-0.05,0.3
		c-0.19-0.07-0.21-0.21-0.12-0.37C469.91,278.69,470.02,278.75,470.08,278.77z"/>
	<path style="fill-rule:evenodd;clip-rule:evenodd;fill:#F6A683;" d="M485.49,277.78c0.04,0.09,0.09,0.19,0.13,0.28
		C485.58,277.97,485.54,277.88,485.49,277.78z"/>
	<path style="fill-rule:evenodd;clip-rule:evenodd;fill:#F6A683;" d="M485.25,278.34c-0.09,0.05-0.18,0.1-0.28,0.16
		C485.06,278.45,485.16,278.4,485.25,278.34z"/>
	<path style="fill-rule:evenodd;clip-rule:evenodd;fill:#2C2725;" d="M485.29,262.64c-0.66-0.16-1.77-0.18-1.7-0.91
		c0.07-0.8,0.77-1.72,1.81-1.78c1.1-0.07,1.03,0.94,1.15,1.62C486.72,262.51,485.92,262.49,485.29,262.64z"/>
	<path style="fill-rule:evenodd;clip-rule:evenodd;fill:#302B28;" d="M476.31,261.74c-0.42-0.05-0.89-0.01-1.26-0.17
		c-1.06-0.46-1.01-1.36,0.08-2.19c0.35-0.05,0.71-0.16,1.05-0.14c0.64,0.04,1.14,0.34,1.31,1.02
		C477.73,261.24,476.9,261.4,476.31,261.74z"/>
	<path style="fill-rule:evenodd;clip-rule:evenodd;fill:#2D2827;" d="M491.89,263.25c0.25,1.53-0.91,1.86-1.95,2.3
		c-0.12,0.01-0.25,0.02-0.37,0.02c-0.11-0.04-0.19-0.12-0.26-0.21c-0.28-0.75-0.66-1.51,0.25-2.11c0.11-0.21,0.34-0.16,0.51-0.26
		c0.07,0.02,0.14,0,0.18-0.06c0.29-0.15,0.62-0.06,0.92-0.17c0.22,0,0.41,0.08,0.58,0.22C491.82,263.06,491.87,263.15,491.89,263.25
		z"/>
	<path style="fill-rule:evenodd;clip-rule:evenodd;fill:#F1DD0E;" d="M491.46,262.96c-0.4-0.01-0.81-0.02-1.21-0.03
		c0.9-0.17,1.04-1.81,2.35-1.22c0.05,0.64,0.23,1.35-0.7,1.54l0.01-0.01C491.82,263.04,491.57,263.11,491.46,262.96z"/>
	<path style="fill-rule:evenodd;clip-rule:evenodd;fill:#F1DD0E;" d="M490.06,262.99c-0.17,0.09-0.34,0.17-0.51,0.26
		C489.64,263,489.83,262.97,490.06,262.99z"/>
	<path style="fill-rule:evenodd;clip-rule:evenodd;fill:#F5CD10;" d="M489.3,265.36c0.09,0.07,0.18,0.14,0.26,0.21
		C489.47,265.5,489.38,265.43,489.3,265.36z"/>
	<path style="fill-rule:evenodd;clip-rule:evenodd;fill:#3C352B;" d="M467.45,263.76c-0.07,0.23,0.16,0.68-0.22,0.63
		c-0.37-0.04-0.27-0.52-0.26-0.81c0.01-0.22-0.18-0.68,0.23-0.62C467.6,263.01,467.4,263.48,467.45,263.76z"/>
	<path style="fill-rule:evenodd;clip-rule:evenodd;fill:#312F2F;" d="M483.48,303.78c1.07,0.04,1.49,0.34,1.59,0.97
		c0.09,0.53-0.27,0.89-0.72,0.86c-0.59-0.03-0.99-0.44-1.06-1.07C483.23,304.07,483.38,303.77,483.48,303.78z"/>
	<path style="fill-rule:evenodd;clip-rule:evenodd;fill:#993184;" d="M460,266.84c-0.03,1.09-0.37,2.1-0.73,3.11
		c-0.66,1.84-0.28,3.79-0.7,5.66c-0.21,0.94-0.5,1.71-1.69,1.51c0.75-1.59,1.27-3.24,1.19-5.02c-0.08-1.71,0.81-3.2,1-4.85
		C459.13,266.66,459.62,266.84,460,266.84z"/>
	<path style="fill-rule:evenodd;clip-rule:evenodd;fill:#534744;" d="M467.95,274c-0.08,0.26-0.28,0.32-0.52,0.32
		c-0.07-0.19-0.15-0.37-0.22-0.56C467.51,273.68,467.76,273.75,467.95,274z"/>
	<path style="fill-rule:evenodd;clip-rule:evenodd;fill:#4F4441;" d="M481.6,274.44c0.67,0.06,0.8,0.38,0.47,0.94
		C481.55,275.25,481.46,274.9,481.6,274.44z"/>
	<path style="fill-rule:evenodd;clip-rule:evenodd;fill:#8C2C7B;" d="M460.48,261.04c0.95-2.19,0.06-4.28-0.32-6.41
		c-0.2-1.13-0.27-2.28-0.4-3.42c0.71,2.88,1.51,5.74,1.43,8.75C461.18,260.43,461.1,260.92,460.48,261.04z"/>
	<path style="fill-rule:evenodd;clip-rule:evenodd;fill:#00A9C0;" d="M496.48,310.96c0.44-1.38,0.92-2.74,1.3-4.13
		c0.17-0.65,0.57-0.35,0.91-0.39c0.51,1.71-0.76,2.94-1.21,4.38C497.43,310.96,496.82,310.92,496.48,310.96z"/>
	<path style="fill-rule:evenodd;clip-rule:evenodd;fill:#DD71AC;" d="M463.84,274.24c0.15,0.25,0.51,0.35,0.48,0.72
		c-3.03-1.23-3.82-3.94-1.68-5.76c0.03,0.03,0.07,0.06,0.1,0.09c0.04,0.08,0.06,0.17,0.05,0.26c-0.01,0.09-0.03,0.17-0.07,0.25
		c-0.03,0.08-0.07,0.16-0.11,0.24c-0.03,0.08-0.07,0.16-0.11,0.24c-0.05,0.13-0.11,0.26-0.15,0.39c-0.02,0.1-0.05,0.19-0.08,0.28
		c-0.05,0.61-0.17,1.23,0.18,1.8c0.06,0.08,0.11,0.17,0.16,0.26c0.14,0.27,0.32,0.5,0.58,0.66c0.08,0.05,0.16,0.11,0.24,0.16
		c0.12,0.08,0.24,0.17,0.34,0.27C463.79,274.15,463.82,274.2,463.84,274.24z"/>
	<path style="fill-rule:evenodd;clip-rule:evenodd;fill:#DD71AC;" d="M462.64,269.2c0.08-0.08,0.16-0.16,0.24-0.24l0,0
		C462.94,269.18,462.86,269.26,462.64,269.2L462.64,269.2z"/>
	<path style="fill-rule:evenodd;clip-rule:evenodd;fill:#E67EB1;" d="M462.16,270.64c0-0.08,0-0.16,0-0.24
		c0.09-0.07,0.15-0.17,0.24-0.24c0-0.08,0-0.16,0-0.24c0.09-0.07,0.16-0.16,0.24-0.24v0c0.24-0.52,0.8-0.64,1.2-0.96
		c0.56-0.01,1.12,0.03,1.67-0.05c0.58-0.08,0.45,0.26,0.43,0.57c-0.84,0.28-1.85-0.14-2.57,0.76c-1.15,1.45-0.84,2.75,0.94,3.51
		c0.01,0.35,0,0.69-0.48,0.72l0,0c-0.13-0.15-0.35-0.1-0.48-0.24h0c-0.39-0.25-0.71-0.57-0.96-0.96l0,0
		C461.87,272.29,461.99,271.47,462.16,270.64z"/>
	<path style="fill-rule:evenodd;clip-rule:evenodd;fill:#514643;" d="M468.87,273.42c0.18,0.12,0.24,0.16,0.29,0.2
		c-0.08,0.06-0.14,0.14-0.23,0.16c-0.04,0.01-0.17-0.08-0.16-0.11C468.78,273.58,468.84,273.49,468.87,273.42z"/>
	<path style="fill-rule:evenodd;clip-rule:evenodd;fill:#F1A51D;" d="M472,261.28c0.94,0.76,0.21,1.31-0.24,1.9
		c-0.28-0.03-0.79,0.08-0.58-0.41C471.4,262.25,470.84,261.26,472,261.28z"/>
	<path style="fill-rule:evenodd;clip-rule:evenodd;fill:#802873;" d="M495.76,260.33c0.03-0.25,0.13-0.44,0.42-0.46
		c0.33-0.02,0.51,0.13,0.54,0.46C496.4,260.32,496.08,260.32,495.76,260.33z"/>
	<path style="fill-rule:evenodd;clip-rule:evenodd;fill:#0097A4;" d="M496.76,306.2c0.38,0.28,0.37,0.6,0.21,1.02
		c-0.4,1.02-0.79,2.05-1.11,3.1c-0.18,0.6-0.56,0.69-1.07,0.64C495.38,309.34,495.76,307.64,496.76,306.2z"/>
	<path style="fill-rule:evenodd;clip-rule:evenodd;fill:#74CEE5;" d="M501.76,309.76c0.24-1.02,0.67-1.91,1.68-2.39
		c0.1,0.85-0.79,1.19-0.96,1.91l0,0C502.27,309.48,502.2,309.91,501.76,309.76z"/>
	<path style="fill-rule:evenodd;clip-rule:evenodd;fill:#77CFE7;" d="M501.76,309.76c0.24-0.16,0.48-0.32,0.72-0.48
		c-0.29,0.73-0.3,1.69-1.44,1.68C501.31,310.58,501.21,309.98,501.76,309.76z"/>
	<path style="fill-rule:evenodd;clip-rule:evenodd;fill:#77CFE7;" d="M502.48,309.28c-0.1-0.84,0.79-1.2,0.96-1.91
		c0.08,0,0.16,0.01,0.25,0.01C503.66,308.25,503.01,308.73,502.48,309.28z"/>
	<path style="fill-rule:evenodd;clip-rule:evenodd;fill:#DE73AC;" d="M463.84,268.72c-0.4,0.32-0.8,0.64-1.2,0.96
		c0-0.16,0-0.32,0-0.48c0.08-0.08,0.16-0.16,0.24-0.24C463.2,268.88,463.52,268.8,463.84,268.72z"/>
	<path style="fill-rule:evenodd;clip-rule:evenodd;fill:#743060;" d="M485.05,262c-0.22-0.04-0.55-0.01-0.43-0.38
		c0.12-0.36,0.4-0.59,0.8-0.58c0.27,0,0.48,0.13,0.42,0.43C485.78,261.9,485.45,262.01,485.05,262z"/>
	<path style="fill-rule:evenodd;clip-rule:evenodd;fill:#7A2C63;" d="M475.76,261.25c-0.37-0.06-0.66-0.22-0.61-0.6
		c0.08-0.53,0.44-0.82,0.99-0.81c0.35,0.01,0.64,0.21,0.6,0.58C476.69,261,476.2,261.12,475.76,261.25z"/>
	<path style="fill-rule:evenodd;clip-rule:evenodd;fill:#782E62;" d="M491.2,263.92c-0.04,0.56-0.47,0.77-0.93,0.91
		c-0.28,0.08-0.66,0.03-0.57-0.35c0.13-0.54,0.72-0.69,1.16-0.92C491.08,263.45,491.17,263.69,491.2,263.92z"/>
	<path style="fill-rule:evenodd;clip-rule:evenodd;fill:#F5CD10;" d="M491.46,262.96c0.21,0,0.37,0.06,0.44,0.28
		C491.75,263.15,491.6,263.06,491.46,262.96z"/>
	<path style="fill-rule:evenodd;clip-rule:evenodd;fill:#757679;" d="M484.22,304.93c-0.06-0.04-0.17-0.06-0.18-0.11
		c-0.02-0.06,0.04-0.14,0.07-0.21c0.06,0.04,0.15,0.07,0.18,0.13C484.31,304.78,484.25,304.86,484.22,304.93z"/>
	<path style="fill-rule:evenodd;clip-rule:evenodd;fill:#DE73AC;" d="M462.16,270.64c-0.02,0.81-0.04,1.62,0.24,2.4
		C461.62,272.31,461.83,271.48,462.16,270.64z"/>
	<path style="fill-rule:evenodd;clip-rule:evenodd;fill:#DE73AC;" d="M462.4,273.04c0.32,0.32,0.64,0.64,0.96,0.96
		C462.79,273.93,462.47,273.61,462.4,273.04z"/>
	<path style="fill-rule:evenodd;clip-rule:evenodd;fill:#DE73AC;" d="M463.36,274c0.16,0.08,0.32,0.16,0.48,0.24
		C463.68,274.16,463.52,274.08,463.36,274z"/>
	<path style="fill-rule:evenodd;clip-rule:evenodd;fill:#DE73AC;" d="M462.4,270.16c-0.08,0.08-0.16,0.16-0.24,0.24
		C462.24,270.32,462.32,270.24,462.4,270.16z"/>
	<path style="fill-rule:evenodd;clip-rule:evenodd;fill:#DE73AC;" d="M462.64,269.68c-0.08,0.08-0.16,0.16-0.24,0.24
		C462.48,269.84,462.56,269.76,462.64,269.68z"/>
</g>
</svg>
