<?xml version="1.0" encoding="utf-8"?>
<!-- Generator: Adobe Illustrator 16.0.0, SVG Export Plug-In . SVG Version: 6.00 Build 0)  -->
<!DOCTYPE svg PUBLIC "-//W3C//DTD SVG 1.0//EN" "http://www.w3.org/TR/2001/REC-SVG-20010904/DTD/svg10.dtd" [
	<!ENTITY ns_flows "http://ns.adobe.com/Flows/1.0/">
	<!ENTITY ns_extend "http://ns.adobe.com/Extensibility/1.0/">
	<!ENTITY ns_ai "http://ns.adobe.com/AdobeIllustrator/10.0/">
	<!ENTITY ns_graphs "http://ns.adobe.com/Graphs/1.0/">
]>
<svg version="1.0" id="Layer_1" xmlns:x="&ns_extend;" xmlns:i="&ns_ai;" xmlns:graph="&ns_graphs;"
	 xmlns="http://www.w3.org/2000/svg" xmlns:xlink="http://www.w3.org/1999/xlink" xmlns:a="http://ns.adobe.com/AdobeSVGViewerExtensions/3.0/"
	 x="0px" y="0px" width="960px" height="560px" viewBox="0 0 960 560" style="enable-background:new 0 0 960 560;"
	 xml:space="preserve">
<g>
	<path style="fill-rule:evenodd;clip-rule:evenodd;fill:#010000;" d="M505.08,280.85c0,9.84-0.02,19.67,0.03,29.51
		c0.01,1.33-0.42,1.71-1.73,1.71c-15.43-0.04-30.87-0.04-46.3,0c-1.33,0-1.71-0.42-1.7-1.73c0.03-19.75,0.04-39.5,0-59.25
		c0-1.33,0.42-1.71,1.73-1.71c15.43,0.04,30.87,0.04,46.3,0c1.33,0,1.71,0.42,1.7,1.73C505.06,261.02,505.08,270.94,505.08,280.85z"
		/>
	<path style="fill-rule:evenodd;clip-rule:evenodd;fill:#231F20;" d="M490.49,311.3c-1.07,0-2.14-0.01-3.22-0.01
		c0.03-0.34,0.3-0.45,0.56-0.49c0.98-0.13,1.15-0.78,1.06-1.6c0-1.35,0-2.69,0-4.04c0-0.48,0-0.95,0.28-1.36
		c0.07-0.13,0.18-0.25,0.22-0.41c0.42-1.53,0.37-1.69-0.71-2.04c-1.43-0.47-1.79-0.3-2.34,1.12c-0.16,0.48-0.17,0.97-0.01,1.45
		c0.04,0.23,0.03,0.45-0.03,0.67c-0.41,1.14-0.69,2.29-0.09,3.46c0.01,0.11-0.01,0.22-0.06,0.32c-0.03,0.05-0.05,0.1-0.08,0.14
		c-0.27,0.34-0.41,0.72-0.35,1.16c0.01,0.11,0.02,0.22,0.03,0.33c0.09,0.45,0.26,0.89-0.09,1.3c-1.77,0-3.55,0-5.32,0
		c-0.55-1.05-1.37-1.33-2.54-1.11c-1.14,0.21-2.3-0.02-3.45-0.19c-1.55-0.05-3.1-0.1-4.63,0.27c-0.11,0.06-0.22,0.13-0.32,0.21
		c-0.1,0.08-0.21,0.16-0.32,0.23c-1.98,0.62-3.91,0.39-5.81-0.31c-0.28-0.2-0.56-0.17-0.9-0.12c-1.51,0.23-2.99,0.2-4.29-0.77
		c-0.57-0.43-1.47-0.04-1.92-0.77c-0.02-0.35-0.03-0.7-0.05-1.06c0.83-0.12,1.24-0.43,0.96-1.4c-0.26-0.92,0.12-1.82,0.41-2.69
		c0.44-1.33,0.85-2.67,1.12-4.04c0.07-0.38,0.33-0.85-0.04-1.13c-0.39-0.3-0.83,0.03-1.23,0.2c-0.4,0.17-0.7,0.55-1.18,0.53
		c-0.01-0.44-0.02-0.88-0.04-1.31c0.12-0.12,0.19-0.3,0.34-0.4c0.11-0.08,0.23-0.14,0.35-0.19c0.08-0.04,0.17-0.07,0.26-0.09
		c0.18-0.05,0.35-0.12,0.53-0.19c0.1-0.04,0.19-0.07,0.29-0.09c0.1-0.03,0.2-0.05,0.31-0.07c0.11-0.04,0.21-0.06,0.32-0.09
		c2.19-0.2,4.21-1.08,6.32-1.61c0.59-0.15,0.79-0.64,0.88-1.17c0.15-0.82,0.25-1.65,0.39-2.48c0.15-1.14,0.64-2.02,1.76-2.48
		c0.59-0.24,0.95-0.71,1.06-1.34c0.13-0.78,0.57-1.25,1.28-1.57c1.11-0.5,1.26-1.08,0.66-2.18c-0.51-0.94-1.16-1.8-1.67-2.74
		c-0.09-0.13-0.17-0.25-0.28-0.37c-0.33-0.31-0.65-0.02-0.98,0.01c-0.31,0.02-0.57-0.08-0.72-0.37c-0.07-0.17-0.08-0.35-0.05-0.53
		c0.05-0.24,0.18-0.44,0.35-0.6c0.31-0.24,0.5-0.51,0.26-0.91c-0.54-0.89-1.05-1.78-1.55-2.69c-0.24-0.44-0.68-0.52-1.12-0.56
		c-0.11-0.01-0.22-0.04-0.33-0.07c-0.16-0.04-0.32-0.09-0.49-0.11c-0.18-0.01-0.35-0.01-0.53,0c-0.5,0.02-0.99-0.02-1.49,0.02
		c-0.53,0.03-1.05-0.04-1.58,0c-0.61-0.02-1.25,0.08-1.72-0.46c-0.07-0.12-0.08-0.25-0.04-0.39c0.44-0.47,1.03-0.51,1.62-0.55
		c1.14,0,2.28,0,3.43-0.01c0.23,0,0.52,0.05,0.63-0.21c0.1-0.24-0.13-0.43-0.26-0.63c-0.77-1.23-2-1.24-3.25-1.23
		c-0.51-0.18-0.93-0.41-0.83-1.06c0.04-0.12,0.11-0.22,0.21-0.29c0.1-0.06,0.21-0.1,0.32-0.14c0.36-0.11,0.42-0.36,0.22-0.64
		c-1.37-2-2.49-4.16-3.95-6.1c-0.12-0.16-0.28-0.28-0.48-0.33c-0.16-0.05-0.3-0.14-0.43-0.24c-0.01-0.36-0.02-0.72-0.03-1.07
		c0.06-0.05,0.08-0.09,0.05-0.13c-0.02-0.04-0.04-0.06-0.06-0.06c0-0.49,0-0.97,0-1.46c0.28-0.1,0.49,0.04,0.62,0.24
		c0.87,1.33,2.16,2.36,2.83,3.84c0.93,2.05,2.43,3.75,3.6,5.65c0.08,0.14,0.18,0.28,0.32,0.36c2.55,1.51,3.67,4.12,5.12,6.5
		c1.14,1.88,1.95,3.93,3.19,5.74c0.59,0.86,2.32,0.93,2.94,0.06c0.25-0.35-0.19-0.33-0.31-0.46c-2.38-2.43-4.68-4.92-5.99-8.13
		c-0.17-0.41-0.42-0.85-0.32-1.26c0.29-1.24-0.49-1.9-1.24-2.64c-3.16-3.17-6.34-6.3-9.71-9.25c-0.42-0.37-0.78-0.8-1.04-1.31
		c-0.01-0.33-0.02-0.67-0.02-1c1.14,0.11,1.74,1.09,2.62,1.61c0.09,0.07,0.17,0.14,0.25,0.22c0.08,0.07,0.16,0.15,0.25,0.22
		c1.42,1.06,2.51,2.5,3.96,3.53c0.8,0.81,1.61,1.62,2.42,2.42c0.56,0.58,1.14,1.16,1.72,1.72c0.2,0.19,0.38,0.39,0.57,0.58
		c1.03,1.01,1.17,1,2.02-0.19c1.08-1.78,2.29-3.45,3.86-4.84c0.96-0.85,1.52-2.04,2.44-2.93c1.37-1.35,2.98-2.22,4.86-2.61
		c0.28-0.06,0.53-0.16,0.77-0.29c1.67-0.92,3.39-1,5.16-0.31c0.23,0.09,0.47,0.09,0.71,0.08c0.95-0.07,1.89-0.01,2.8,0.27
		c0.34,0.1,0.69,0.17,1.05,0.19c0.29,0.01,0.58-0.01,0.87-0.01c0.74-0.12,1.38,0.13,1.94,0.59c1.21,0.94,2.06,2.19,2.98,3.38
		c0.51,0.66,0.98,1.35,1.57,1.94c0.36,0.48,0.71,0.96,1.07,1.44c0.1,0.13,0.19,0.27,0.28,0.4c1.27,2.21,2.93,4.17,4.04,6.48
		c0,1.15,0,2.29,0,3.43c-1.47,1.82-2.91,3.66-4.77,5.12c-0.25,0.2-0.53,0.35-0.77,0.56c-1.13,0.92-1.09,1.36,0.29,1.81
		c1.73,0.57,2.87,2.11,4.6,2.66c0.36,0.11,0.46,0.53,0.65,0.82c-0.01,0.36-0.02,0.72-0.04,1.08c-1.01,0.39-1.75-0.18-2.51-0.69
		c-0.1-0.07-0.11-0.27-0.3-0.21c0.07,0.1,0.11,0.21,0.14,0.33c0.29,0.91,0.97,1.54,1.62,2.19c0.44,0.45,0.98,0.84,0.98,1.57
		c-0.44,0.65-0.75,1.3,0.08,1.91c0,0.61,0.01,1.22,0.01,1.83c-0.53-0.08-0.55-0.66-0.9-0.91c-0.07-0.06-0.15-0.12-0.23-0.18
		c-0.08-0.04-0.17-0.09-0.26-0.13c-0.09-0.03-0.18-0.06-0.27-0.1c-0.73,0.04-0.31,0.5-0.3,0.81c0.08,0.18,0.18,0.36,0.27,0.53
		c0.08,0.13,0.14,0.27,0.2,0.41c0.06,0.14,0.11,0.29,0.16,0.44c0.06,0.15,0.1,0.3,0.14,0.46c-0.08,0.98,0.53,1.59,1.18,2.17
		c0,0.35,0.01,0.7,0.01,1.04c-0.65,2.01-2.71,3.06-4.95,2.54c-1.75-0.41-3.53-0.58-5.33-0.55c-0.65,0.01-1.28,0.1-1.83,0.45
		c-0.67,0.43-1.13,0.93-0.48,1.74c0.48,0.61,0.22,1.04-0.39,1.32c-0.97,0.43-0.97,1.07-0.38,1.8c0.33,0.41,0.38,0.76,0.04,1.17
		c-0.57,0.67-0.53,1.39-0.14,2.11C491.22,310.35,491.24,310.91,490.49,311.3z"/>
	<path style="fill-rule:evenodd;clip-rule:evenodd;fill:#85D2F5;" d="M498.82,264.09c-1.32-1.17-2.09-2.79-3.31-4.04
		c-0.41-0.42-0.82-0.86-1.23-1.28c-0.08-1.4-0.4-2.74-1.03-4c-0.2-0.4-0.23-0.84-0.15-1.28c0.08-0.45-0.03-0.85-0.22-1.26
		c-0.65-1.35-0.63-1.38,0.68-2.06c2.32,0,4.64,0,6.96,0c0.15,0.16,0.19,0.36,0.14,0.56c-0.78,3.04,0.34,6.02,0.29,9.04
		c-0.01,0.72,0.43,1.35,0.78,1.99c0.83,1.5,1.76,2.94,2.59,4.45c0,1.04,0,2.08,0,3.12c-0.6,0.12-1.01-0.26-1.33-0.63
		c-1.07-1.21-2.4-2.2-3.16-3.68C499.62,264.59,499.4,264.12,498.82,264.09z"/>
	<path style="fill-rule:evenodd;clip-rule:evenodd;fill:#F1C849;" d="M490.49,311.3c0.28-0.5,0.65-0.84,0.02-1.52
		c-0.56-0.6-0.72-1.64,0.13-2.32c0.48-0.39,0.57-0.64-0.02-0.89c-0.91-0.38-0.3-1.1-0.38-1.65c-0.07-0.52,0.46-0.55,0.86-0.56
		c0.34-0.01,0.68-0.09,0.74-0.45c0.05-0.33-0.32-0.36-0.51-0.53c-0.9-0.8-0.28-1.48,0.38-1.94c1.53-1.06,3.29-0.72,4.98-0.58
		c1.32,0.1,2.63,0.44,3.95,0.61c1.07,0.13,1.96-0.2,2.29-1.36c0.21-0.73,1.38-0.05,1.42-0.99c-0.01,2.23-0.02,4.46-0.02,6.69
		c-0.48,0.45-1.07,0.37-1.57,0.18c-1.92-0.7-3.63-0.11-5.32,0.74c-0.37,0.12-0.74,0.12-1.11,0.05c-0.82-0.28-1.66-0.4-2.3,0.31
		c-0.73,0.8-0.73,1.77-0.44,2.77c0.13,0.46,0.59,0.88,0.23,1.43C492.7,311.29,491.59,311.29,490.49,311.3z"/>
	<path style="fill-rule:evenodd;clip-rule:evenodd;fill:#87D3F5;" d="M463.05,264.11c-1.35-1.22-2.7-2.43-4.05-3.65
		c-0.08-0.09-0.16-0.19-0.27-0.24l0.01,0.02c-0.08-0.14-0.17-0.3-0.13-0.45c0.73-3.02-0.96-5.41-2.09-7.94
		c-0.11-0.25-0.23-0.51-0.36-0.75c-0.19-0.75,0.04-1.07,0.86-0.98c0.65,0.07,1.32,0.04,1.98,0.05c0.18,0.16,0.41,0.29,0.48,0.52
		c0.47,1.6,2.01,1.76,3.21,2.35c0.49,0.24,1.19,0.16,1.51-0.37c0.72-1.18,2.05-1.58,2.96-2.5c1.12,0,2.24,0,3.36,0
		c0.3,0.6-0.16,0.89-0.52,1.16c-1.43,1.11-2.78,2.4-3.73,3.84c-1.54,2.32-3.11,4.78-2.81,7.82
		C463.5,263.42,463.6,263.88,463.05,264.11z"/>
	<path style="fill-rule:evenodd;clip-rule:evenodd;fill:#FEE38B;" d="M462.37,274.65c0.56,0.01,1.12,0.02,1.69,0.03
		c1.95,2.11,3.3,4.57,3.37,7.44c0.08,3.22-1.64,5.8-4.97,7.19c-1.73,0.72-3.25,1.64-4.53,3.01c-0.47,0.5-0.89,1.18-1.77,1
		c-0.01-1.91-0.02-3.82-0.03-5.73c0.43-0.49,1.02-0.29,1.55-0.36c0.39-0.05,0.9,0.21,1.11-0.38c1.17-1.55,1.9-3.29,2.37-5.16
		c0.22-0.87,0.92-1.23,1.81-1.29c1.14-0.08,1.3-0.34,1.01-1.44c-0.27-1.01-0.77-1.92-1.22-2.86
		C462.54,275.65,462.18,275.22,462.37,274.65z"/>
	<path style="fill-rule:evenodd;clip-rule:evenodd;fill:#8E723F;" d="M456.15,259.28c3.57,3,6.92,6.25,10.18,9.58
		c1.03,1.05,2.25,1.78,2.19,3.81c-0.06,2,1.5,3.8,2.91,5.33c1.29,1.41,2.11,3.31,4.07,4.08c0.41,0.16-0.07,0.27-0.13,0.31
		c-0.86,0.41-1.72,0.83-2.6,1.19c-0.7,0.28-0.78-0.43-0.97-0.77c-1.81-3.11-3.57-6.24-5.34-9.37c-0.46-0.81-0.98-1.61-1.75-2.1
		c-2.42-1.57-3.62-4.08-4.96-6.43c-1.03-1.81-2.39-3.31-3.6-4.96C456.14,259.73,456.14,259.5,456.15,259.28z"/>
	<path style="fill-rule:evenodd;clip-rule:evenodd;fill:#AADEF8;" d="M491.64,258.28c-0.33-0.01-0.69,0.11-0.99-0.15
		c-0.41-0.77-0.66-1.61-1.12-2.38c-1.22-2.05-3.08-3.19-5.28-3.89c-2.67-0.85-5.36-0.86-8.04-0.15c-3.17,0.84-5.53,2.83-7.2,5.59
		c-1.7,2.81-2.17,5.88-1.59,9.12c0.1,0.58,0.49,1.26-0.28,1.72c-0.57-0.55-1.13-1.09-1.7-1.64c-0.55-2.06-0.55-4.16,0.06-6.15
		c1.43-4.68,4.08-8.38,8.85-10.21c3.6,0,7.2,0,10.81,0c2.96,1.35,5.37,3.26,6.52,6.43C491.88,257.15,492.12,257.73,491.64,258.28z"
		/>
	<path style="fill-rule:evenodd;clip-rule:evenodd;fill:#FEDE75;" d="M456.16,293.31c0.24-0.14,0.54-0.23,0.72-0.43
		c1.68-1.87,3.76-3.05,6.02-4.18c4.86-2.43,5.27-7.17,2.6-11.57c-0.49-0.81-1.21-1.49-1.44-2.46c0.18,0.03,0.35,0.06,0.53,0.1
		c0.08-0.05,0.14-0.03,0.19,0.05c0.08-0.03,0.16-0.02,0.23,0.03c1.44,1.21,2.39,2.69,2.65,4.58c-0.12,0.15-0.23,0.31-0.35,0.46
		c-0.03,0.15-0.04,0.29,0.01,0.43c0.2,0.28,0.5,0.27,0.79,0.25c0.99-0.01,1,0.74,1.05,1.41c0.28,3.83-1.7,7.13-5.29,8.86
		c-2.4,1.15-4.5,2.71-6.27,4.71c-0.38,0.43-0.79,0.81-1.44,0.63C456.16,295.23,456.16,294.27,456.16,293.31z"/>
	<path style="fill-rule:evenodd;clip-rule:evenodd;fill:#FEDB67;" d="M456.16,296.19c1.45-0.72,2.26-2.15,3.51-3.12
		c1.77-1.37,3.82-2.25,5.65-3.51c2.79-1.93,3.76-4.68,3.53-7.97c-0.04-0.5-0.33-0.79-0.73-1.01c0.32-0.18,0.64-0.74,0.98-0.02
		c0.06,0.1,0.15,0.18,0.21,0.28c0.72,1.09,1.53,2.12,2.12,3.27c0.44,0.86,0.42,1.82-0.79,2.19c-0.76,0.23-1.34,0.46-1.37,1.46
		c-0.02,0.62-0.37,1.28-1.15,1.49c-1.07,0.3-1.57,1.09-1.72,2.15c-0.45,0.91-1.36,1.23-2.2,1.54c-2.36,0.85-4.07,2.57-5.91,4.13
		c-0.09,0.01-0.17,0.02-0.26,0.03c-0.08-0.04-0.15-0.03-0.22,0.02c-0.09,0.01-0.17,0.03-0.26,0.04c-0.12,0.13-0.31,0.12-0.46,0.18
		c-0.08,0.02-0.16,0.04-0.23,0.07c-0.07,0.07-0.15,0.12-0.24,0.16c-0.16,0.1-0.32,0.19-0.48,0.29
		C456.14,297.3,456.15,296.75,456.16,296.19z"/>
	<path style="fill-rule:evenodd;clip-rule:evenodd;fill:#FEF1C3;" d="M459.03,274.18c0.02,0.04,0.02,0.09-0.01,0.13
		c0.26,0.45,0.28,0.92,0.04,1.37c-0.66,1.22-0.56,2.41-0.02,3.66c0.5,1.16,0.41,2.43,0.17,3.65c-0.22,1.11-0.88,1.94-1.85,2.53
		c-0.38,0.23-0.77,0.46-1.2,0.11c0-6,0-11.99,0-17.99c0.55-0.06,0.78,0.36,0.98,0.73c0.78,1.39,1.51,2.8,2,4.33
		C459.31,273.21,459.38,273.71,459.03,274.18z"/>
	<path style="fill-rule:evenodd;clip-rule:evenodd;fill:#9AD9F6;" d="M474.36,250.16c-0.6,0.95-1.75,1.06-2.57,1.68
		c-4.24,3.21-6.5,7.38-6.31,12.77c0.02,0.64-0.02,1.28-0.03,1.91c-0.8-0.8-1.6-1.61-2.4-2.41c0.19-0.33,0.17-0.65,0.09-1.03
		c-0.42-1.89,0.53-3.48,1.18-5.14c1.14-2.92,3.33-4.95,5.61-6.93c0.28-0.24,0.56-0.45,0.59-0.85
		C471.8,250.16,473.08,250.16,474.36,250.16z"/>
	<path style="fill-rule:evenodd;clip-rule:evenodd;fill:#69CBF3;" d="M504.34,286.57c-2.21-1.06-3.98-2.92-6.42-3.57
		c-0.55-0.15-0.57-0.46-0.28-0.87c0.13-0.2,0.22-0.46,0.4-0.58c2.45-1.61,4.11-4.06,6.31-5.94
		C504.34,279.26,504.34,282.92,504.34,286.57z"/>
	<path style="fill-rule:evenodd;clip-rule:evenodd;fill:#95D7F6;" d="M504.32,266.19c-1.94-2.37-3.81-4.73-3.83-8.05
		c-0.01-1.53-0.31-3.06-0.45-4.6c-0.11-1.16,0.04-2.3,0.48-3.39c0.8,0,1.6,0,2.4,0c0.63,0.95,0.37,2,0.25,3
		c-0.22,1.94-0.43,3.86,0.08,5.79c0.31,1.15,0.7,2.27,1.06,3.4C504.32,263.63,504.32,264.91,504.32,266.19z"/>
	<path style="fill-rule:evenodd;clip-rule:evenodd;fill:#FEECAF;" d="M456.16,285.64c2.16-0.52,3.37-2.16,2.73-5.04
		c-0.49-2.21-0.73-4.2,0.13-6.28c0.51,0.32,1.11,0.25,1.67,0.33c0.96,0.44,1.48,1.23,0.92,2.32c-1.01,1.97-0.88,4.09-1.32,6.13
		c-0.43,2.01-1.73,3.36-3.8,3.87c-0.14,0-0.26-0.05-0.35-0.15C456.14,286.42,456.15,286.03,456.16,285.64z"/>
	<path style="fill-rule:evenodd;clip-rule:evenodd;fill:#93D7F6;" d="M493.56,250.16c-0.7,0.65-0.38,1.33-0.37,2.15
		c0.01,2.26,1.93,4.13,1.1,6.45c-0.51-0.35-1.03-0.66-1.68-0.55c-0.46-1.78-1.32-3.37-2.22-4.96c-0.44-0.76-0.79-1.55-1.44-2.17
		c-0.25-0.24-0.52-0.51-0.41-0.93C490.2,250.16,491.88,250.16,493.56,250.16z"/>
	<path style="fill-rule:evenodd;clip-rule:evenodd;fill:#ECBE3F;" d="M456.17,299.17c0.26-0.25,0.48-0.55,0.78-0.72
		c0.65-0.38,1.44-0.87,2.11-0.47c0.58,0.35-0.02,1.11-0.12,1.63c-0.29,1.47-0.78,2.9-1.18,4.34c-0.23,0.83-0.54,1.64-0.31,2.55
		c0.43,1.7,0.4,1.71-1.31,1.2c0-2.07,0-4.13,0.01-6.2c0.32-0.49,0.45-0.98-0.01-1.47C456.14,299.74,456.16,299.45,456.17,299.17z"/>
	<path style="fill-rule:evenodd;clip-rule:evenodd;fill:#78CFF4;" d="M467.16,250.16c-0.12,0.65-0.6,1.1-1.13,1.3
		c-0.65,0.25-1.02,0.64-1.38,1.2c-0.73,1.11-1.61,0.81-2.72,0.39c-1.48-0.56-2.61-1.26-2.93-2.89
		C461.72,250.16,464.44,250.16,467.16,250.16z"/>
	<path style="fill-rule:evenodd;clip-rule:evenodd;fill:#A9DEF8;" d="M504.32,262.35c-1.14-1.28-1.32-2.91-1.64-4.49
		c-0.52-2.59,0.49-5.13,0.24-7.71c1.07-0.23,1.51,0.02,1.47,1.28C504.28,255.08,504.33,258.72,504.32,262.35z"/>
	<path style="fill-rule:evenodd;clip-rule:evenodd;fill:#9AD9F6;" d="M456.16,251.09c0.94,0.61,1.27,1.6,1.65,2.56
		c0.41,1.03,0.7,2.1,1.22,3.1c0.6,1.15-0.1,2.32-0.29,3.48c-0.87-0.65-1.75-1.3-2.62-1.95
		C456.13,255.88,456.15,253.48,456.16,251.09z"/>
	<path style="fill-rule:evenodd;clip-rule:evenodd;fill:#A2DCF7;" d="M488.52,250.16c1.81,1.69,2.66,3.97,3.79,6.08
		c0.34,0.64,0.27,1.31,0.29,1.97c-0.32,0.02-0.64,0.04-0.96,0.07c-0.05-2.65-1.63-4.41-3.53-5.95c-0.95-0.77-1.96-1.45-2.95-2.17
		C486.28,250.16,487.4,250.16,488.52,250.16z"/>
	<path style="fill-rule:evenodd;clip-rule:evenodd;fill:#FEE596;" d="M456.17,262.68c0.14-0.01,0.29-0.02,0.43-0.03
		c1.46,2.47,2.48,5.16,3.9,7.65c-0.27,0.67,0.35,0.7,0.67,0.95c0.2,0.13,0.42,0.23,0.55,0.43c0.35,0.56,1,1.11,0.7,1.78
		c-0.28,0.62-1.06,0.18-1.61,0.29c-0.51,0-0.64-0.4-0.8-0.76c-1.04-2.24-2.2-4.43-3.28-6.66c-0.25-0.51-0.3-1.08-0.56-1.58
		C456.16,264.07,456.17,263.38,456.17,262.68z"/>
	<path style="fill-rule:evenodd;clip-rule:evenodd;fill:#F5911E;" d="M474.35,309.7c1.66,0.1,3.31,0.24,4.99-0.01
		c1.24-0.19,0.59,1.12,1.01,1.62c-2.88-0.01-5.75-0.01-8.63-0.02c-0.14-0.15-0.15-0.33-0.09-0.52
		C472.19,309.52,473.36,309.84,474.35,309.7z"/>
	<path style="fill-rule:evenodd;clip-rule:evenodd;fill:#F6931E;" d="M502.69,309.86c0.41,0.58,1.95-0.47,1.62,1
		c-0.23,1.02-1.27,0.4-1.92,0.43c-2.07,0.08-4.14,0.03-6.21,0.03c-0.07-0.09-0.09-0.19-0.06-0.3c0.07-0.15,0.17-0.28,0.27-0.4
		c0.52-0.44-0.23-1.21,0.44-1.61c0.19-0.05,0.37-0.05,0.56-0.02c1.43,0.26,2.86,0.56,4.32,0.55
		C502.07,309.53,502.43,309.56,502.69,309.86z"/>
	<path style="fill-rule:evenodd;clip-rule:evenodd;fill:#FEECAE;" d="M456.16,264.77c0.71,0.53,0.85,1.41,1.22,2.13
		c1.17,2.22,2.21,4.51,3.3,6.77c0.01,0.05,0.02,0.09,0.03,0.14c-0.56,0.13-1.12,0.26-1.68,0.39c-0.24-2.49-1.45-4.56-2.87-6.54
		C456.16,266.69,456.16,265.73,456.16,264.77z"/>
	<path style="fill-rule:evenodd;clip-rule:evenodd;fill:#FCEDBA;" d="M497.2,309.19c-0.14-0.01-0.27-0.02-0.41-0.03
		c-0.67-0.11-1.37-0.2-0.91-1.18c0.23-0.17,0.5-0.3,0.77-0.3c2.27-0.01,4.52-0.48,6.8-0.29c0.33,0.03,0.63,0.08,0.87,0.33
		c0.01,0.47,0.02,0.93,0.02,1.4c-1.16,0.48-2.4,0.42-3.61,0.37C499.56,309.45,498.37,309.4,497.2,309.19z"/>
	<path style="fill-rule:evenodd;clip-rule:evenodd;fill:#F9AA18;" d="M456.18,308.76c1.5-0.23,2.53,1.09,3.96,1.21
		c0.83,0.07,1.64,0.27,2.44-0.09c0.32-0.14,0.61-0.17,0.77,0.23c-0.53,0.81-1.46,0.69-2.23,0.95c-0.29,0.1-0.63,0.06-0.92,0.23
		c-0.55,0.01-1.1,0.04-1.65,0.04C455.99,311.32,455.99,311.32,456.18,308.76z"/>
	<path style="fill-rule:evenodd;clip-rule:evenodd;fill:#75CDF3;" d="M498.82,264.09c0.54-0.4,0.82-0.13,1.08,0.37
		c1.02,2.03,2.67,3.49,4.42,4.85c0.01,0.95,0.02,1.9,0.02,2.85c-1.68-1.97-2.97-4.21-4.31-6.41c-0.06-0.1-0.13-0.18-0.21-0.27
		C499.49,265.02,499.15,264.55,498.82,264.09z"/>
	<path style="fill-rule:evenodd;clip-rule:evenodd;fill:#FABB11;" d="M460.21,311.28c0.89-0.81,2.12-0.73,3.14-1.18
		c1.89,0.58,3.78,1.1,5.74,0.25c0.08-0.08,0.15-0.16,0.22-0.25h0c0.87,0.03,1.8-0.16,2.41,0.73c0,0.15-0.01,0.29-0.01,0.44
		C467.88,311.28,464.04,311.28,460.21,311.28z"/>
	<path style="fill-rule:evenodd;clip-rule:evenodd;fill:#F8DC81;" d="M496.2,306.52c0.4,0,0.8,0,1.2-0.01
		c1.88-0.35,3.77-0.65,5.7-0.36c0.43,0.07,0.88,0.02,1.22,0.37c0,0.24,0,0.48,0,0.71c-0.62,0.42-1.29,0.22-1.95,0.18
		c-2.29-0.14-4.54,0.33-6.8,0.41c-0.76,0.49-1.06,1.12-0.68,2.01c0.16,0.36,0.22,0.77-0.2,1.07c-0.92-0.47-1.32-1.27-1.17-2.31
		c0.14-0.97,1-1.95,1.86-2.08C495.64,306.48,495.93,306.45,496.2,306.52z"/>
	<path style="fill-rule:evenodd;clip-rule:evenodd;fill:#EABD3F;" d="M504.17,290.91c-0.02-0.67-0.64-0.87-1.01-1.25
		c-0.55-0.57-1.18-1.08-1.51-1.83c-0.23-0.52-0.36-1.09-0.54-1.64c0.62-0.05,0.71,0.67,1.17,0.82c0.67,0.23,1.35,0.42,2.02,0.63
		c0,1.09,0,2.18-0.01,3.27C504.26,290.91,504.21,290.91,504.17,290.91z"/>
	<path style="fill-rule:evenodd;clip-rule:evenodd;fill:#F5D25E;" d="M504.32,306.53c-1.94,0.11-3.89-0.37-5.82,0.21
		c-0.34,0.1-0.79,0.15-1.1-0.22c1.63-1.3,3.44-1.47,5.39-0.89c0.49,0.14,1.02,0.13,1.53,0.18
		C504.32,306.04,504.32,306.28,504.32,306.53z"/>
	<path style="fill-rule:evenodd;clip-rule:evenodd;fill:#FBE6A2;" d="M495.24,307.72c0.09-0.59,0.57-0.53,0.93-0.46
		c1.47,0.27,2.9-0.11,4.35-0.21c1.26-0.08,2.53,0.12,3.8,0.19c0,0.16,0,0.32,0,0.48c-2.89-0.05-5.77,0.11-8.63,0.49
		c-0.09,0.06-0.19,0.07-0.29,0.02C495.23,308.1,495.1,307.95,495.24,307.72z"/>
	<path style="fill-rule:evenodd;clip-rule:evenodd;fill:#F4D163;" d="M496.2,306.52c-1.13,0.28-2.15,0.78-2.36,2.04
		c-0.15,0.87,0,1.76,0.92,2.26c0.1-0.06,0.19-0.06,0.27,0.02c0.07,0.27-0.13,0.36-0.31,0.47c-0.31-0.01-0.62-0.02-0.93-0.03
		c-0.48-1.21-1.12-2.4-0.5-3.76C493.86,306.28,494.89,305.91,496.2,306.52z"/>
	<path style="fill-rule:evenodd;clip-rule:evenodd;fill:#262220;" d="M494.74,311.31c0.06-0.15,0.13-0.3,0.19-0.45
		c-0.04-0.95-0.13-1.92,0.55-2.72c0.06,0.06,0.13,0.08,0.21,0.08c0.2,0.51,0.75,0.62,1.1,0.95c-0.16,0.57,0.81,1.37-0.36,1.74
		c-0.15,0.02-0.29,0.05-0.34,0.22c0.03,0.07,0.06,0.13,0.1,0.2C495.7,311.31,495.22,311.31,494.74,311.31z"/>
	<path style="fill-rule:evenodd;clip-rule:evenodd;fill:#262018;" d="M497.2,309.19c2.38-0.02,4.76-0.04,7.14-0.06
		c-0.19,1.04-1.25,0.14-1.65,0.74C500.82,309.97,498.99,309.71,497.2,309.19z"/>
	<path style="fill-rule:evenodd;clip-rule:evenodd;fill:#EBC756;" d="M485.67,311.3c-0.06-0.46-0.12-0.92-0.18-1.39
		c0.16-0.08,0.33-0.05,0.49,0c0.74,0.31,1.44,0.2,2.14-0.17c0.33-0.17,0.64-0.48,1.08-0.34c0.55,1.84-1.02,1.52-1.92,1.88
		C486.74,311.29,486.2,311.3,485.67,311.3z"/>
	<path style="fill-rule:evenodd;clip-rule:evenodd;fill:#F4CF5D;" d="M504.33,298.07c-1.44-0.13-1.52-1.14-1.44-2.24
		c-0.01-0.14-0.11-0.23-0.17-0.34c-0.02-0.16-0.04-0.32-0.05-0.48c-0.07-0.07-0.12-0.15-0.16-0.23c-0.11-0.16-0.22-0.32-0.32-0.49
		c0.04-0.52,0.19-0.97,0.73-1.18c0.09,0.02,0.17,0.04,0.26,0.07c0.08,0.03,0.15,0.08,0.21,0.15l0.01,0.01
		c-0.08,1.23-0.15,2.45,0.93,3.35C504.33,297.14,504.33,297.6,504.33,298.07z"/>
	<path style="fill-rule:evenodd;clip-rule:evenodd;fill:#F9DA7A;" d="M504.32,296.68c-1.45-0.73-1.66-1.48-0.93-3.35
		c0.68,0.14,0.64,0.82,0.93,1.25C504.32,295.28,504.32,295.98,504.32,296.68z"/>
	<path style="fill-rule:evenodd;clip-rule:evenodd;fill:#292521;" d="M456.14,286.81c0.08-0.01,0.16-0.02,0.23-0.02
		c0.89-0.08,1.81-0.4,2.63,0.26c0.15,0.1,0.43,0.19,0.43,0.29c0.01,0.27-0.26,0.22-0.44,0.22c-0.95,0.01-1.9,0.02-2.85,0.03
		C456.13,287.33,456.13,287.07,456.14,286.81z"/>
	<path style="fill-rule:evenodd;clip-rule:evenodd;fill:#EBC758;" d="M504.17,290.91c0.04,0.01,0.09,0.01,0.13,0
		c0,0.61,0.01,1.22,0.01,1.83C502.8,291.95,502.8,291.95,504.17,290.91z"/>
	<path style="fill-rule:evenodd;clip-rule:evenodd;fill:#2B2621;" d="M456.13,300.03c1.33,0.48,0.82,0.97,0.01,1.47
		C456.13,301.01,456.13,300.52,456.13,300.03z"/>
	<path style="fill-rule:evenodd;clip-rule:evenodd;fill:#FEE492;" d="M456.13,261.41c0.06,0.02,0.11,0.03,0.17,0.05
		c-0.05,0.05-0.11,0.1-0.16,0.15C456.12,261.54,456.12,261.48,456.13,261.41z"/>
	<path style="fill-rule:evenodd;clip-rule:evenodd;fill:#CEEAFA;" d="M487.57,257.75c-0.17,0.08-0.43,0.29-0.51,0.23
		c-1.88-1.32-3.63-0.81-5.4,0.28c-0.49,0.3-1.15,0.05-1.77,0.34c-4.2,1.96-6.39,5.88-9.2,9.21c-0.23,0.27-0.42,0.56-0.64,0.84
		c-0.45-0.09-0.63-0.44-0.79-0.82c-2.7-6.6,2.3-15.26,10.01-15.19c2.19,0.02,4.27,0.41,6.27,1.3c1.18,0.52,2.02,1.41,2.69,2.46
		C488.74,257.17,488.54,257.5,487.57,257.75z"/>
	<path style="fill-rule:evenodd;clip-rule:evenodd;fill:#FEF2C9;" d="M496.21,287.1c0.08,0.14,0.16,0.27,0.25,0.41
		c0.66,0.79,0.69,1.77,0.79,2.71c0.21,2.01-0.02,3.97-0.86,5.83c-0.3,0.66-0.68,1.26-1.32,1.66c-1.13,0.7-2.14,0.33-2.75-1.01
		l0.02,0.02c-0.29-0.39-0.55-0.82-0.52-1.31c0.18-2.55-1.05-4.71-1.93-6.96c-0.53-1.33-1.06-2.66-1.49-4.03
		c-0.52-1.65-0.07-3.22,1.14-4.08c1.75-1.25,4.16-0.19,4.53,1.99c-0.15,0.07-0.31,0.14-0.46,0.21c-0.09,0.06-0.18,0.12-0.27,0.18
		c-0.74,0.41-1.55,0.24-2.33,0.29c-0.18,0.01-0.45-0.05-0.46,0.21c-0.01,0.27,0.25,0.25,0.44,0.26c1.18,0.1,2.37,0.19,3.55,0.29
		C495.62,284.61,495.98,285.82,496.21,287.1z"/>
	<path style="fill-rule:evenodd;clip-rule:evenodd;fill:#B5E2F9;" d="M487.57,257.75c0.97-0.39,0.65-0.92,0.21-1.53
		c-1.24-1.76-3.11-2.5-5.05-2.91c-3.02-0.64-5.95-0.44-8.76,1.17c-3.43,1.96-5.98,7.83-4.81,11.61c0.27,0.86,0.28,1.82,0.9,2.56
		c-0.5,1.31-1.2,1.53-2.14,0.38c-0.24-0.3-0.52-0.58-0.78-0.86c0.24-1.74-0.32-3.42-0.27-5.17c0.14-5.78,5.32-11.33,11.08-11.95
		c3.61-0.39,6.95,0.11,9.84,2.26c1.54,1.14,2.88,2.65,2.86,4.84C489.63,257.96,488.63,257.57,487.57,257.75z"/>
	<path style="fill-rule:evenodd;clip-rule:evenodd;fill:#8E723F;" d="M476.84,308.93c-1.61-0.23-3.68-0.38-5.75-0.18
		c-0.45,0.04-0.43-0.11-0.38-0.46c0.2-1.33,0.36-2.67,0.53-4c0.12-0.97,0.54-1.55,1.63-1.38c2.23,0.37,4.49,0.26,6.74,0.25
		c0.57,0,1.04,0.18,0.65,0.94c-0.32,0.63-0.13,1.33-0.14,2C480.1,308.26,479.44,308.94,476.84,308.93z"/>
	<path style="fill-rule:evenodd;clip-rule:evenodd;fill:#FBB21B;" d="M499.31,273.19c0.29-0.1,0.6-0.17,0.88-0.3
		c0.23-0.11,0.62-0.17,0.54-0.5c-0.08-0.33-0.47-0.1-0.7-0.22c-0.71-0.42-0.99-1.16-1.39-1.81c-0.55-0.72-1.42,0.03-2.04-0.43
		c-0.38-0.35-0.98-0.59-0.62-1.29c0.64-0.13,1.29-0.25,1.73-0.8c-0.54-0.4-1.16-0.08-1.73-0.19c-0.59-0.27-0.99-0.59-0.27-1.16
		c1.45-0.92,2.13,0.12,2.85,1.11c0.6,0.83,1.22,1.64,1.84,2.46c2.33,3.1,1.98,5.37-1.2,7.93c-1.11,0.9-2.22,1.81-3.24,2.81
		c-0.47,0.46-0.48,0.06-0.63-0.16c-0.28-0.43-0.51-0.91-0.82-1.31c-1.03-1.34-1.03-1.29,0.74-1.62c1.03-0.19,2.05-0.26,3.09-0.26
		c0.4,0,0.93-0.14,0.94-0.56c0.02-0.63-0.6-0.35-0.92-0.36c-2.4-0.06-4.72,0.63-7.09,0.83c-0.18,0.02-0.38,0.17-0.54,0.12
		c-0.4-0.12-0.86-0.15-1.09-0.59c0.33-0.04,0.66-0.08,0.99-0.12c2.76-0.3,5.47-1.05,8.27-1.04c0.35,0,0.98-0.14,0.97-0.53
		c-0.02-0.52-0.65-0.51-1.06-0.53c-0.55-0.02-1.1,0.08-1.66,0.13C497.68,274,498.57,273.69,499.31,273.19z"/>
	<path style="fill-rule:evenodd;clip-rule:evenodd;fill:#ECBE3F;" d="M484.85,300.24c-1.6-0.09-2.77,0.62-3.48,2.03
		c-0.16,0.32-0.17,0.53-0.51,0.19c-0.79-0.79-1.81-0.55-2.72-0.45c-1.71,0.2-3.4,0.28-5.11-0.02c-0.85-0.15-1.74-0.13-2.58,0.23
		c-0.25,0.11-0.47,0.6-0.75,0.26c-0.15-0.18-0.03-0.61,0.02-0.92c0.14-0.82,1.13-1.31,1.49-1.44c2.22-0.8,4.55-1.27,6.85-1.85
		c0.18-0.04,0.47-0.14,0.53-0.06c1.93,2.24,4.53,1.02,6.82,1.3c0.46,0.06,1.17-0.38,1.21,0.34c0.02,0.4-0.78,0.45-1.29,0.42
		C485.17,300.26,485.01,300.25,484.85,300.24z"/>
	<path style="fill-rule:evenodd;clip-rule:evenodd;fill:#FEE28B;" d="M472.68,287.8c-0.14,0.02-0.28,0.04-0.42,0.05
		c-0.42-0.44-0.1-0.76,0.16-1.12c0.9-1.2,2.15-1.94,3.39-2.7c0.55-0.27,1.3-0.11,1.67-0.77c1.11-1.9,2.44-3.57,4.63-4.29
		c0.83-0.28,1.68-0.2,2.26,0.57c0.72,0.95,0.1,1.71-0.4,2.47c-0.95,0.86-2.18,1.48-2.45,2.92c-0.59,0.81-0.83,1.91-1.87,2.36
		c-0.55,0.02-1.1,0.04-1.65,0.06c-0.79-1.73-2.12-1.97-3.82-0.69C473.67,287.04,473.36,287.67,472.68,287.8z"/>
	<path style="fill-rule:evenodd;clip-rule:evenodd;fill:#EEC448;" d="M485.64,275.07c-1.69,0.66-3.47,0.8-5.26,0.71
		c-0.88-0.04-3.21-2.64-3.38-3.67c-0.05-0.27-0.08-0.55-0.13-0.83c-0.45-2.73-0.19-3.03,2.55-2.89c0.21,0.97-0.07,1.98,0.29,2.93
		c0,0.31-0.84,0.6-0.03,0.94c0.45,0.32,0.81,0.73,1.13,1.18c0.29,0.43,0.75,0.22,1.13,0.29c2.09,0.52,2.98-0.8,3.68-2.41
		c0.45-0.32,0.92-0.47,1.45-0.18C487.56,272.47,486.98,274.03,485.64,275.07z"/>
	<path style="fill-rule:evenodd;clip-rule:evenodd;fill:#FEE69C;" d="M459,287.04c-0.88-0.09-1.75-0.17-2.63-0.26
		c2.43-0.83,3.85-2.76,3.81-5.39c-0.02-1.34,0.12-2.56,0.85-3.74c0.61-0.99,0.71-2.12-0.34-3.01c0.56,0,1.12,0,1.68,0.01
		c0.72,1.46,1.57,2.86,2.01,4.45c0.35,1.27,0.01,1.65-1.39,1.6c-0.67-0.02-1.3,0.19-1.48,0.92
		C461.01,283.6,460.36,285.48,459,287.04z"/>
	<path style="fill-rule:evenodd;clip-rule:evenodd;fill:#FDF1C7;" d="M479.57,271.41c-0.79-0.97-0.47-1.99-0.15-3.01
		c0.63-0.21,1.27-0.18,1.84-0.79c0.62-0.67,0.6-1.06,0-1.6c0.34-1.12,1.79-1.5,2.94-0.78c0.34,0.21,0.61,0.49,0.82,0.83
		c0.23,0.42,0.21,0.9,0.29,1.35c0.03,0.13,0.05,0.26,0.08,0.39c0.03,0.13,0.05,0.26,0.07,0.39c0.01,0.75,0.16,1.5-0.13,2.24
		C483.99,271.76,480.94,272.28,479.57,271.41z"/>
	<path style="fill-rule:evenodd;clip-rule:evenodd;fill:#F7D25F;" d="M490.02,278.42c0.14,0.02,0.28,0.04,0.42,0.06
		c0.06,0.61-0.45,0.68-0.83,0.86c-1.52,0.72-2.45,1.77-2.48,3.58c-0.04,1.75,0.07,3.43,0.86,5.01c0.62,1.25,0.91,2.64,1.55,3.88
		c0.13,0.25,0.17,0.54-0.01,0.8c-0.46,0.2-0.88,0.07-1.29-0.16c-0.82-1.2-1.09-2.63-1.59-3.96c-0.44-1.19-0.8-2.42-1.01-3.68
		c0.02-1.08-0.78-1.85-1.11-2.79c-0.01-0.32,0.13-0.62,0.2-0.93c0.29-1.29-0.12-1.96-1.37-2.32c-0.34-0.1-0.86,0.01-0.84-0.6
		l-0.01,0.01c0.09-0.05,0.12-0.12,0.11-0.22c0.3-0.34-0.06-0.9,0.4-1.18c1.24,0.27,2.32,0.8,3.08,1.87c0.39,0.56,0.88,0.59,1.46,0.3
		c0.57-0.28,1.1-0.65,1.72-0.83c0.16,0.04,0.31,0.08,0.47,0.12C489.82,278.32,489.92,278.37,490.02,278.42z"/>
	<path style="fill-rule:evenodd;clip-rule:evenodd;fill:#ECBE3F;" d="M485.64,275.07c0.72-1.18,1.46-2.35,1.44-3.8
		c-0.39-0.53-1.13-0.71-1.4-1.36c-0.09-0.28-0.09-0.57,0-0.85c0.69-0.87,1.68-1.08,2.66-0.92c0.84,0.14,1.02-0.31,1.27-0.86
		c0.29-0.67-0.08-1.05-0.58-1.36c-0.84-0.52-1.75-0.36-2.66-0.27c-0.24,0.02-0.47,0.07-0.71,0.01c-0.17-0.07-0.3-0.17-0.27-0.39
		c1.06-0.59,2.17-0.95,3.4-0.61c0.29,0.08,0.55,0.08,0.8-0.07c0.76-0.44,0.87,0.01,0.86,0.63c-0.02,0.96,0.02,1.89,0.79,2.64
		c0.38,0.37,0.3,0.97-0.17,1.1c-2.07,0.6-2.09,2.64-2.81,4.09C487.64,274.26,486.87,274.84,485.64,275.07z"/>
	<path style="fill-rule:evenodd;clip-rule:evenodd;fill:#F6D260;" d="M495.71,299.88c-1.21-0.17-2.4-0.08-3.59,0.13
		c-1.26-0.64-2.27-2.06-2.17-3.08c0.54,0.03,1.09,0.05,1.63,0.08c2.35,2.24,4.43,1.76,5.7-1.26c0.52-1.23,0.48-2.49,0.51-3.76
		c0.01-0.57-0.18-1.23,0.46-1.63c0.62-0.1,0.91,0.27,1.02,0.78c0.21,0.97,0.51,1.94,0.35,2.95c-0.37,0.36-0.49,0.72-0.02,1.09
		C499.9,297.2,498.07,299.42,495.71,299.88z"/>
	<path style="fill-rule:evenodd;clip-rule:evenodd;fill:#FDEAAD;" d="M494.06,282.32c-0.33-0.44-0.61-0.95-1-1.32
		c-0.98-0.91-2.05-1.32-3.3-0.43c-1.14,0.81-1.57,2.38-1.02,3.83c1.08,2.85,2.23,5.67,3.17,8.57c0.38,1.17,0.3,2.5,0.42,3.75
		c-0.31-0.17-0.63-0.33-0.94-0.5c-0.57-0.48-0.63-1.19-0.77-1.84c-0.48-2.27-1.12-4.46-2.16-6.56c-0.78-1.58-1.16-3.31-0.98-5.11
		c0.25-2.42,2.53-4.1,4.65-3.4c1.02,0.34,1.53,1.23,2.16,1.99C494.54,281.72,494.86,282.15,494.06,282.32z"/>
	<path style="fill-rule:evenodd;clip-rule:evenodd;fill:#FED960;" d="M458.29,297.07c0.4-1.4,1.74-1.98,2.73-2.71
		c1.64-1.2,3.57-1.99,5.38-2.95c-0.08,0.79-0.13,1.58-0.23,2.37c-0.14,1.1-0.67,1.67-1.89,1.87c-1.45,0.24-2.82,0.9-4.25,1.3
		C459.47,297.1,458.87,297.04,458.29,297.07z"/>
	<path style="fill-rule:evenodd;clip-rule:evenodd;fill:#EDC141;" d="M495.71,299.88c2.1-0.91,3.42-2.46,3.89-4.72
		c1.92-0.42,2.51,0.56,2.34,2.26c-0.05,0.55,0.6,0.83,0.38,1.42c-0.34,0.88-0.62,1.6-1.88,1.47c-1.33-0.13-2.68-0.07-4.01-0.32
		c-0.15-0.1-0.31-0.09-0.47-0.03C495.88,299.94,495.79,299.91,495.71,299.88z"/>
	<path style="fill-rule:evenodd;clip-rule:evenodd;fill:#FDE18B;" d="M471.19,288.92c0.29-0.3,0.67-0.09,0.99-0.18
		c0.19,0.65-0.19,1.22-0.28,1.83c-0.29,1.85,0.56,2.6,2.28,1.94c0.37-0.14,0.75-0.23,1.12-0.34c0.32,0,0.64,0,0.96,0
		c0.04,0.21-0.08,0.34-0.22,0.46c-1.34,1.11-2.54,2.4-4.02,3.34c-0.64,0.4-1.23,0.98-2.05,0.58c-0.82-0.4-1.16-1.11-1.13-2.02
		l-0.01-0.01c-0.32-0.82,0.25-1.44,0.48-2.14c0.6-0.09,1.3-0.08,0.96-1.04C470.02,290.31,470.66,289.64,471.19,288.92z"/>
	<path style="fill-rule:evenodd;clip-rule:evenodd;fill:#FDE9AA;" d="M475.31,292.16c-0.36,0.25-0.69,0.56-1.09,0.72
		c-0.71,0.3-1.46,0.38-2.16-0.08c-0.68-0.45-0.67-1.16-0.56-1.83c0.13-0.77,0.15-1.59,0.68-2.24c0.19-0.3,0.71-0.42,0.49-0.94
		c0.85-1.23,1.96-2.02,3.48-2.25c1.19-0.18,2.01,0.56,1.84,1.8l0,0c-0.1,0.04-0.19,0.1-0.27,0.16c-0.24,0.5-0.24,0.5,0.7,0.8
		c0.02,1.39-0.89,2.16-1.91,2.86c-0.4,0-0.8,0.01-1.19,0.01c-0.19-0.53,0.26-0.79,0.49-1.13c0.29-0.43,0.62-0.83,0.76-1.34
		c0.15-0.56-0.02-1.02-0.47-1.38c-0.43-0.34-0.89-0.35-1.34-0.07c-1.03,0.64-1.68,1.58-1.92,2.76c-0.13,0.64,0.21,1.06,0.83,1.25
		c0.33,0.1,0.73,0.05,0.96,0.39C474.76,291.98,475.03,292.08,475.31,292.16z"/>
	<path style="fill-rule:evenodd;clip-rule:evenodd;fill:#FDE9A9;" d="M498.13,290.45c-0.07,2.05,0.24,4.13-0.77,6.09
		c-0.64,1.23-1.64,1.97-2.9,2.26c-1.15,0.27-2.08-0.36-2.78-1.26c-0.1-0.13-0.06-0.35-0.09-0.54c0.23-0.13,0.6,0.08,0.72-0.3
		c1.57,1.56,2.91,1.31,3.78-0.79c0.95-2.3,1.14-4.68,0.6-7.12c-0.09-0.42-0.15-0.86-0.23-1.29c0.31,0.11,0.62,0.21,0.93,0.32
		c0.42,0.49,0.47,1.04,0.24,1.63c-0.48,0.46-0.01,0.59,0.27,0.79c0.06,0.04,0.13,0.07,0.2,0.09L498.13,290.45z"/>
	<path style="fill-rule:evenodd;clip-rule:evenodd;fill:#EFC444;" d="M485.87,284.68c0.8,2.55,1.61,5.1,2.41,7.65
		c-0.08,0.25-0.84,0.57,0.08,0.7c0.23,0.03,0.46,0.08,0.65,0.24c0.05,0.89,0.36,1.74,0.44,2.62c-1.68,0.18-2.36-0.57-2.57-2.26
		c-0.21-1.72-0.94-3.36-1.22-5.08c-0.29-1.73-1.46-2.16-2.87-2.41c-0.09,0.06-0.18,0.12-0.27,0.18c-0.16,0.02-0.31,0.04-0.47,0.07
		c-0.16-0.17-0.16-0.36-0.04-0.55c0.25-0.22,0.56-0.28,0.88-0.28C483.96,285.53,485.06,285.61,485.87,284.68z"/>
	<path style="fill-rule:evenodd;clip-rule:evenodd;fill:#EDC243;" d="M484.43,310.12c0.15,0.24,0.23,0.48-0.02,0.72
		c-1.98,0.32-2.83-0.32-2.63-1.96c-0.08-0.21-0.17-0.42-0.25-0.63c-0.17-0.24-0.18-0.48,0.02-0.71c0.19-0.21,0.58-0.35,0.2-0.75
		c-1.17-1.23-0.83-2.87,0.72-3.42c0.45-0.16,0.54-0.39,0.48-0.79c-0.17-1.07,0.96-1.92,2.05-1.6c0.51,0.15,0.21,0.4,0.17,0.62
		c-0.11,0.58-0.22,1.16-0.34,1.75c-0.66,0-0.99,0.45-1.21,0.96C482.71,306.42,482.76,308.38,484.43,310.12z"/>
	<path style="fill-rule:evenodd;clip-rule:evenodd;fill:#FEF0C3;" d="M474.65,291.66c-0.8,0-1.68,0.09-2.07-0.8
		c-0.4-0.9,0.06-1.72,0.58-2.42c0.39-0.52,0.7-1.12,1.35-1.47c0.79-0.43,1.4-0.38,2.03,0.24c0.62,0.6,0.62,1.29,0.23,1.95
		c-0.42,0.71-0.96,1.35-1.45,2.01C475.1,291.34,474.88,291.5,474.65,291.66z"/>
	<path style="fill-rule:evenodd;clip-rule:evenodd;fill:#745C3D;" d="M473.41,298.37c0.03-0.52,0.41-0.71,0.81-0.7
		c1.31,0.04,1.87-0.7,2.24-1.83c0.9-2.77,2.45-5.18,4.35-7.35c0.8-0.91,1.77-1.5,3.06-0.96c0.26,0.11,0.38,0.31,0.36,0.55
		c0,0.07-0.24,0.2-0.34,0.18c-2.26-0.38-3.36,1.23-4.45,2.7c-1.03,1.37-0.86,3.04-0.7,4.62c0.09,0.84-0.19,1.33-0.87,1.61
		c-1.43,0.58-2.92,1.01-4.46,1.16L473.41,298.37z"/>
	<path style="fill-rule:evenodd;clip-rule:evenodd;fill:#FDF0C5;" d="M477.44,276.78c-0.62-0.16-1.25-0.32-1.87-0.48
		c-0.59-0.03-0.75-0.31-0.48-0.83c0.22,0.02,0.48,0.21,0.64-0.05c0.17-0.26-0.08-0.42-0.25-0.57c-0.49-0.45-1.12-0.2-1.68-0.31
		c-0.19-0.47-0.28-0.94,0.03-1.39c0.42,0,0.98,0.2,1.16-0.32c0.14-0.41-0.24-0.71-0.63-0.87c-0.64-0.37-0.62-0.85-0.23-1.39
		c0.1-0.29,1.29,0.04,0.46-0.79c-0.58-0.32-0.52-0.77-0.19-1.2c0.41-0.53,0.91-0.93,1.62-0.44c-0.77,3.19,0.1,5.83,2.68,7.88
		C478.38,276.43,477.95,276.67,477.44,276.78z"/>
	<path style="fill-rule:evenodd;clip-rule:evenodd;fill:#755C3E;" d="M484.45,258.05c0.74,0.05,1.85-0.1,1.89,1.3
		c0.03,1.51-1.3,2.85-2.76,2.76c-0.82-0.05-1.86,0.1-1.8-1.37C481.86,258.73,482.39,258.06,484.45,258.05z"/>
	<path style="fill-rule:evenodd;clip-rule:evenodd;fill:#F5D471;" d="M467.73,298.54c0.29-0.13,0.58-0.26,0.87-0.39
		c0.11,0.37-0.11,0.62-0.33,0.84c-1.8,1.78-2.17,4.1-2.41,6.44c-0.14,1.44,0.98,2.79,2.25,2.94c0.31,0.04,0.56,0.04,0.61-0.35
		c0.02-0.24,0.02-0.47,0.01-0.71c0.02-0.45-0.04-0.92,0.38-1.25c0.17,1.16,0.64,2.37-0.48,3.35c-0.9,0.48-1.66,0.11-2.4-0.4
		c-0.73-0.5-1.38-1.2-2.4-1.06c0.02-1.43,0.03-2.87,0.05-4.3c0.94-0.38,1.4-1.08,1.63-2.05c0.17-0.73,0.35-1.49,0.79-2.12
		C466.66,299,467,298.47,467.73,298.54z"/>
	<path style="fill-rule:evenodd;clip-rule:evenodd;fill:#FDF0C2;" d="M469.12,306.07c-0.02,0.47-0.04,0.94-0.06,1.41
		c-0.94,0.61-1.9,0.27-2.34-0.81c-0.61-1.53,0.4-5.97,1.62-7.13c0.27-0.25,0.57-0.47,0.96-0.37c0.32,0.08,0.47,0.29,0.26,0.63
		c-1.34,1.2-0.61,2.74-0.65,4.14C468.89,304.64,469.04,305.36,469.12,306.07z"/>
	<path style="fill-rule:evenodd;clip-rule:evenodd;fill:#EFC548;" d="M489.26,278.13c-0.56,0.86-1.56,1-2.38,1.44
		c-0.13,0.07-0.47-0.01-0.53-0.12c-0.76-1.35-2.14-1.89-3.34-2.66c1.55-0.51,3.29-0.3,4.75-1.32c0.42-0.29,0.4,0.46,0.41,0.71
		C488.16,277.06,488.52,277.69,489.26,278.13z"/>
	<path style="fill-rule:evenodd;clip-rule:evenodd;fill:#FCE393;" d="M494.29,281.31c-0.67-0.55-1.26-1.29-2.03-1.61
		c-1.94-0.82-4.22,0.66-4.44,2.83c-0.21,2.03,0.3,3.91,1.24,5.74c1.28,2.49,1.7,5.26,2.33,7.96c-0.16-0.03-0.32-0.05-0.47-0.08
		c-0.91-0.8-0.96-1.95-1.22-3.02c-0.02-0.13-0.03-0.25-0.01-0.38c-0.27-1.42-0.88-2.71-1.45-4.02c-0.83-1.91-1.42-3.84-1.16-5.97
		c0.37-3.09,3.02-4.66,5.83-3.41l-0.02-0.01c0.02,0.15,0.13,0.22,0.25,0.28c0.23,0.25,0.45,0.5,0.68,0.75
		c0.07,0.06,0.12,0.13,0.16,0.21C494.07,280.82,494.18,281.07,494.29,281.31z"/>
	<path style="fill-rule:evenodd;clip-rule:evenodd;fill:#FAB71C;" d="M479.39,276.53c0.2,0.46,0.11,2.17-0.14,2.39
		c-1.11,0.93-2.35,1.48-3.84,1.22c-0.09-0.02-0.17-0.12-0.25-0.19c0.11-0.09,0.2-0.25,0.32-0.27c0.27-0.05,0.55-0.05,0.83-0.05
		c0.3,0,0.7,0.18,0.66-0.37c-0.02-0.38-0.28-0.57-0.64-0.57c-0.4,0-0.79,0.04-1.19,0.09c-0.27,0.03-0.55,0.16-0.81,0.13
		c-0.61-0.06-1.14-0.58-1.21-1c-0.06-0.38,0.69-0.39,1.13-0.43c0.51-0.05,1.02-0.11,1.53-0.17c0.53,0.12,1.06,0.04,1.59,0.05
		C477.99,276.93,478.47,276.18,479.39,276.53z"/>
	<path style="fill-rule:evenodd;clip-rule:evenodd;fill:#ECBF40;" d="M459.9,301.92c-0.41-1.43,0.18-2.74,0.69-3.97
		c0.38-0.9,1.12-0.68,1.79,0c1.2,1.21,0.64,2.64,0.66,4C462,301.66,460.95,302.21,459.9,301.92z"/>
	<path style="fill-rule:evenodd;clip-rule:evenodd;fill:#EBBF41;" d="M489.95,296.92c0.34,1.29,1.46,2.05,2.17,3.08
		c-1.46,1.08-2.88,0.16-4.13-0.35c-0.85-0.35-0.94-1.76-0.51-2.53C488.01,296.19,489.09,296.69,489.95,296.92z"/>
	<path style="fill-rule:evenodd;clip-rule:evenodd;fill:#ECBF40;" d="M481.29,263.81c-0.46-0.08-0.92-0.19-1.39-0.24
		c-0.37-0.04-0.75-0.01-1.13-0.01c0.24-0.44,0.67-0.65,1.1-0.84c0.83-0.37,1.64-0.07,2.43,0.16c1.38,0.39,2.64,0.27,3.86-0.52
		c1.13-0.73,2.89-0.29,3.58,0.83c0.1,0.17,0.29,0.32,0.12,0.51c-0.06,0.06-0.28-0.01-0.42-0.04c-1.57-0.32-3.05,0.01-4.49,0.63
		C483.73,264.11,482.49,264.09,481.29,263.81z"/>
	<path style="fill-rule:evenodd;clip-rule:evenodd;fill:#EABD3F;" d="M497.54,283.84c0.82,0.39,1.65,0.75,2.45,1.18
		c0.26,0.14,0.41,0.38,0.33,0.79c-0.41,2.01,0.57,3.37,2.16,4.42c0.18,0.12,0.54,0.25,0.31,0.49c-0.32,0.33-0.73,0.62-1.16,0.79
		c-0.22,0.09-0.11-0.29-0.17-0.45c-0.53-1.6-2-2.48-2.89-3.81c-0.66-1-0.5-2.33-1.37-3.24C497.1,283.88,497.36,283.83,497.54,283.84
		z"/>
	<path style="fill-rule:evenodd;clip-rule:evenodd;fill:#FDF0C4;" d="M486.09,308.14c-0.75-0.78-0.74-2.72,0.01-3.55
		c1.04-0.87,2.32-0.51,2.68,0.76c0.35,1.23-0.29,2.92-1.4,3.55c-0.6,0.34-1.21,0.47-1.48-0.44l0.01-0.01
		C485.98,308.35,486.06,308.26,486.09,308.14z"/>
	<path style="fill-rule:evenodd;clip-rule:evenodd;fill:#FADB78;" d="M482.5,278.18c0.13,0.08,0.25,0.21,0.39,0.23
		c2.28,0.38,2.82,1.49,1.78,3.65c-0.33,0.15-0.65,0.19-0.96-0.06c0.13-0.24,0.25-0.49,0.38-0.73c0.25-0.46,0.53-0.91,0.14-1.44
		c-0.36-0.49-0.82-0.71-1.44-0.67c-1.83,0.12-2.88,1.43-3.93,2.66c-0.44,0.52-0.9,0.99-1.39,1.45c-0.38-0.05-1.06-0.03-1.08-0.16
		c-0.12-0.53,0.62-0.53,0.77-0.9C478.14,279.77,480.7,279.49,482.5,278.18z"/>
	<path style="fill-rule:evenodd;clip-rule:evenodd;fill:#FCF0C6;" d="M498.12,272.19c-1.84,0.39-3.68,0.79-5.52,1.18
		c-0.5-0.67-0.75-1.38-0.31-2.19c1.49-0.73,3.05-0.95,4.69-0.67C497.59,270.91,498.41,271.18,498.12,272.19z"/>
	<path style="fill-rule:evenodd;clip-rule:evenodd;fill:#FAB51D;" d="M493.06,265.93c-0.31,0.07-0.62,0.14-0.93,0.21
		c-0.59,0.13-0.5-0.4-0.6-0.67c-0.16-0.41,0.19-0.43,0.47-0.47c0.82-0.1,1.66-0.13,2.41-0.52c0.19-0.1,0.46-0.27,0.35-0.54
		c-0.04-0.1-0.34-0.14-0.51-0.13c-0.74,0.07-1.5,0.1-2.22,0.29c-0.47,0.12-0.63,0.05-0.75-0.39c-0.16-0.58,0.29-0.6,0.6-0.61
		c0.72-0.04,1.42-0.13,1.96-0.66c0.37-0.36,0.53-0.1,0.73,0.16c0.49,0.62,0.97,1.26,1.48,1.86c0.49,0.57,1.02,1.1-0.35,1.05
		c-0.3-0.01-0.6,0.15-0.91,0.23C494.24,265.98,493.62,265.69,493.06,265.93z"/>
	<path style="fill-rule:evenodd;clip-rule:evenodd;fill:#FDE07F;" d="M460.5,270.3c-1.87-2.26-2.91-4.94-3.9-7.65
		c0.54-0.19,0.7,0.26,0.91,0.57c1.38,2.14,2.74,4.28,4.11,6.43c0.1,0.16,0.15,0.35,0.23,0.52c-0.31,0.02-0.62,0.04-0.92,0.06
		c-0.08-0.05-0.16-0.05-0.23,0.02C460.63,270.3,460.57,270.32,460.5,270.3z"/>
	<path style="fill-rule:evenodd;clip-rule:evenodd;fill:#F9DA79;" d="M492.89,279.35c-4.25-0.75-6.6,2.11-5.43,6.43
		c0.66,2.43,2.11,4.56,2.48,7.08c-0.28,0.05-0.44-0.06-0.47-0.34c-0.65-1.61-1.26-3.24-1.97-4.83c-0.87-1.93-0.91-3.97-0.58-5.96
		c0.2-1.21,1.2-2.11,2.4-2.63c0.39-0.17,0.89-0.15,1.12-0.62C491.32,278.6,492.25,278.57,492.89,279.35z"/>
	<path style="fill-rule:evenodd;clip-rule:evenodd;fill:#F7DD8D;" d="M469.05,308.18c-0.02,0.48-0.18,0.69-0.74,0.61
		c-1.67-0.23-3.03-1.89-2.81-3.55c0.36-2.65,0.96-5.21,3.1-7.08c0.29-0.2,0.6-0.32,0.96-0.25c0.39,0.2,0.77-0.09,1.17,0
		c0.74,0.16,0.95,0.63,0.5,1.2c-0.24,0.04-0.47,0.08-0.71,0.13c-1.64-0.4-2.22-0.16-2.91,1.38c-0.71,1.57-1.13,3.22-1.05,4.97
		c0.08,1.61,0.48,2.06,2.08,2.39C468.79,308,468.92,308.08,469.05,308.18z"/>
	<path style="fill-rule:evenodd;clip-rule:evenodd;fill:#FBE8AC;" d="M469.05,308.18c-1.98,0.03-2.79-0.67-2.83-2.65
		c-0.04-2.02,0.43-3.95,1.43-5.71c0.71-1.25,2.02-1.49,2.87-0.59c-0.32,0.19-0.64,0.38-0.96,0.56c-0.21-0.79-0.67-0.48-0.93-0.12
		c-1.46,2.03-1.97,4.36-1.63,6.79c0.13,0.9,1.01,1.4,2.05,1.01C469.06,307.71,469.05,307.95,469.05,308.18z"/>
	<path style="fill-rule:evenodd;clip-rule:evenodd;fill:#3B3B37;" d="M502.91,273.65c-0.07-0.08-0.14-0.17-0.21-0.25
		c-0.24-0.38-0.15-0.78-0.04-1.17c0.91,0.57,1.43,1.35,0.94,2.41c-0.88,1.88-2.49,3.18-3.89,4.64c-1.06,1.11-2.51,1.83-3.3,3.23
		c-0.15,0.27-0.48,0.57-0.77,0.32c-0.33-0.29,0.01-0.58,0.24-0.79c1.84-1.7,3.71-3.38,5.55-5.08c0.55-0.51,1.06-1.08,1.26-1.84
		C502.98,274.66,502.63,274.11,502.91,273.65z"/>
	<path style="fill-rule:evenodd;clip-rule:evenodd;fill:#FCEAB2;" d="M460.16,306.26c0.21-0.29,0.33-0.59,0-0.89
		c-0.28-1.08,0.52-1.44,1.25-1.67c0.73-0.23,1.42-0.01,1.66,0.88c-0.02,0.8-0.04,1.6-0.07,2.4
		C461.6,307.82,460.95,307.65,460.16,306.26z"/>
	<path style="fill-rule:evenodd;clip-rule:evenodd;fill:#FBDC74;" d="M460.71,273.8c-0.02-0.04-0.03-0.09-0.03-0.14
		c1.74-0.06,1.74-0.06,0.91-1.57c-0.15-0.27-0.28-0.56-0.42-0.84c1.83-0.46,3.05,0.29,3.9,1.89c0.29,0.55,0.29,0.77-0.42,0.74
		C463.34,273.83,462.02,273.82,460.71,273.8z"/>
	<path style="fill-rule:evenodd;clip-rule:evenodd;fill:#F1CC58;" d="M484.43,310.12c-1.7-0.4-1.9-3.06-1.56-4.72
		c0.18-0.85,0.58-1.61,1.21-2.27c0.52-0.55,0.58-0.05,0.77,0.23c0.02,0.17,0.04,0.34,0.06,0.52c-0.81,1.53-1.14,3.11-0.5,4.79
		C484.41,309.15,484.42,309.64,484.43,310.12z"/>
	<path style="fill-rule:evenodd;clip-rule:evenodd;fill:#F7E3A4;" d="M485.89,308.46c1.59,1.16,1.92-0.47,2.42-1.25
		c0.44-0.67,0.45-1.61-0.14-2.35c-0.59-0.73-1.33-0.58-2.07-0.27c0-0.24,0-0.49,0-0.73c-0.21-0.68,0.32-0.71,0.73-0.77
		c1.24-0.18,2.25,0.68,2.28,1.94c0.02,0.95,0,1.9,0.01,2.84c-0.55,1.68-1.96,2.37-3.67,1.77
		C485.38,309.17,485.25,308.67,485.89,308.46z"/>
	<path style="fill-rule:evenodd;clip-rule:evenodd;fill:#FAB11B;" d="M488.88,258.7c0.39,0.51,1.98-0.83,1.7,1.11
		c-0.04,0.31,0.59,0.16,0.87-0.08c0.4-0.35,0.64,0.02,0.74,0.24c0.18,0.4-0.25,0.43-0.48,0.45c-1.07,0.12-2.22-0.27-3.16,0.67
		c-0.11,0.11-1-0.2-1.09-0.47c-0.2-0.57-0.21-1.25-0.1-1.86c0.08-0.42,0.54,0,0.82-0.06C488.37,258.67,488.58,258.7,488.88,258.7z"
		/>
	<path style="fill-rule:evenodd;clip-rule:evenodd;fill:#EEC64B;" d="M486.07,302.41c0.1-0.73,0.3-1.47,1.12-1.62
		c1-0.19,1.91,0.36,2.83,0.64c0.39,0.12-0.06,0.55-0.08,0.84c-0.03,0.46-0.15,0.91-0.23,1.36
		C488.44,303.42,487.29,302.81,486.07,302.41z"/>
	<path style="fill-rule:evenodd;clip-rule:evenodd;fill:#FCEFC1;" d="M495.98,268.63c0.01,0.54,0.55,0.74,0.75,1.16
		c-1.3,0.9-2.84,0.8-4.3,1.04c-0.58-0.1-0.83-0.45-0.81-1.03C492.75,268.24,494.47,268.84,495.98,268.63z"/>
	<path style="fill-rule:evenodd;clip-rule:evenodd;fill:#F8B31E;" d="M473.45,272.16c-1.01,0.2-2.02,0.38-3.05,0.28
		c-0.31-0.03-0.93,0.32-0.91-0.34c0.01-0.51,0.1-1.14,0.87-1.21c1.02-0.09,2.04-0.22,3.06-0.34
		C474.08,271.08,474.05,271.61,473.45,272.16z"/>
	<path style="fill-rule:evenodd;clip-rule:evenodd;fill:#EFCC5E;" d="M462.76,307.95c-0.2,0.53-0.2,1.26-1.05,1.18
		c-0.91-0.08-2.03,0.4-2.49-0.93c-0.16-0.48-0.45-0.92-0.62-1.39c-0.3-0.84,0.17-0.69,0.66-0.49c0.29,0.11,0.6,0.19,0.83,0.43
		c0.58,0.6,1.26,0.95,2.13,0.87C462.46,307.59,462.69,307.65,462.76,307.95z"/>
	<path style="fill-rule:evenodd;clip-rule:evenodd;fill:#F9D873;" d="M468.85,294.52c0.91,2.25,1.62,2.27,3.34,0.97
		c1.32-1,2.35-2.35,3.85-3.12c0.18,0.4-0.02,0.72-0.26,0.97c-1.31,1.33-2.54,2.75-4.3,3.54c-0.55,0.02-1.1,0.04-1.66,0.06
		c-1.26,0.06-1.76-0.43-1.7-1.67c0.06-0.04,0.13-0.06,0.21-0.06c0.09-0.05,0.17-0.11,0.26-0.18
		C468.67,294.87,468.76,294.69,468.85,294.52z"/>
	<path style="fill-rule:evenodd;clip-rule:evenodd;fill:#F2D16B;" d="M486.07,302.41c1.42-0.21,2.52,0.55,3.64,1.22
		c-0.47,0.31-0.55,0.75-0.54,1.28c0.03,1.5,0.01,3,0.01,4.5c-1.01,0.65-1.99,1.5-3.31,0.71c0.3-0.37,0.74-0.17,1.1-0.28
		c0.89-0.27,1.64-0.73,2-1.65c0.01-1.08,0.03-2.15,0.01-3.23c-0.01-0.81-0.58-1.23-1.24-1.43c-0.55-0.17-1.25-0.5-1.65,0.33
		C485.63,303.39,485.83,302.9,486.07,302.41z"/>
	<path style="fill-rule:evenodd;clip-rule:evenodd;fill:#EEC84F;" d="M463.84,307.95c0.55-0.53,0.99-0.52,1.59,0.04
		c0.88,0.81,1.84,1.62,3.2,1.42c-0.72,0.63-4.13,0.67-4.64,0.02C463.67,309.01,463.82,308.46,463.84,307.95z"/>
	<path style="fill-rule:evenodd;clip-rule:evenodd;fill:#F1CC59;" d="M467.73,298.54c-1.44,0.77-1.62,2.24-2.01,3.59
		c-0.26,0.9-0.59,1.76-1.82,1.52c0.06-0.49,0.12-0.97,0.19-1.46c0.58-0.99,1.1-2,1.62-3.02c0.23-0.45,0.43-0.95,1-1.1
		C467.04,298.23,467.38,298.39,467.73,298.54z"/>
	<path style="fill-rule:evenodd;clip-rule:evenodd;fill:#FAB51F;" d="M473.83,273.14c-0.03,0.46,0.35,0.94-0.03,1.39
		c-0.79,0.11-1.58,0.2-2.35,0.35c-0.78,0.15-1.17-0.3-1.5-0.9c-0.22-0.4-0.14-0.55,0.33-0.59
		C471.46,273.31,472.63,273.01,473.83,273.14z"/>
	<path style="fill-rule:evenodd;clip-rule:evenodd;fill:#F2CF61;" d="M475.8,284.03c-0.54,0.86-1.47,1.25-2.21,1.87
		c-0.63,0.53-1.35,0.99-1.34,1.95l-0.01-0.02c-0.17,0.07-0.36,0.07-0.52,0.17c-0.46-0.07-1.16,0.43-1.32-0.24
		c-0.15-0.63,0.63-0.74,1.07-0.88c0.76-0.25,1.18-0.61,1.2-1.5c0.02-0.75,0.56-1.16,1.36-1.18
		C474.63,284.18,475.22,284.09,475.8,284.03z"/>
	<path style="fill-rule:evenodd;clip-rule:evenodd;fill:#F2C94B;" d="M499.63,294.08c-0.47-0.73-0.38-1.58-0.56-2.38
		c-0.12-0.54-0.02-1.29-0.94-1.25l-0.02-0.03c0.01-0.05,0.02-0.09,0.03-0.14c0.7,0.11,1.58-0.48,2.06,0.45
		c0.5,0.97,0.48,2.09,0.59,3.14C500.82,294.24,500.03,293.99,499.63,294.08z"/>
	<path style="fill-rule:evenodd;clip-rule:evenodd;fill:#ECC650;" d="M481.29,263.81c1.28-0.3,2.52-0.3,3.66,0.48
		c-0.07,0.22-0.15,0.43-0.22,0.65c-0.19,0.21-0.42,0.14-0.65,0.08c-1.01-0.26-1.99-0.33-2.87,0.4c-0.18,0.15-0.43,0.18-0.66,0.07
		c-0.87-0.15-1.68-0.81-2.63-0.32c-0.12,0.06-0.38,0.06-0.32-0.14c0.06-0.19,0.29-0.45,0.46-0.46c0.8-0.06,1.6-0.01,2.39-0.08
		C480.83,264.47,481.54,264.67,481.29,263.81z"/>
	<path style="fill-rule:evenodd;clip-rule:evenodd;fill:#EDC345;" d="M466.7,298.07c-1.03,1.27-1.2,3.09-2.62,4.12
		c0.1-0.97,0.17-1.95,0.32-2.91C464.62,297.91,465.44,297.55,466.7,298.07z"/>
	<path style="fill-rule:evenodd;clip-rule:evenodd;fill:#3C3C38;" d="M500.76,268.84c-1.69-2.1-3.37-4.2-5.06-6.3
		c-0.7-0.87-1.42-1.71-2.11-2.58c-0.1-0.13-0.09-0.35-0.13-0.53c0.1,0.04,0.23,0.06,0.29,0.13
		C496.11,262.64,499.09,265.24,500.76,268.84L500.76,268.84z"/>
	<path style="fill-rule:evenodd;clip-rule:evenodd;fill:#FEE9A2;" d="M492.29,274.31c2.07-0.61,4.11-1.37,6.33-1.12
		c0.04,0.33-0.15,0.59-0.42,0.64c-1.49,0.27-2.76,1.19-4.25,1.43C493.14,275.39,492.54,275.16,492.29,274.31z"/>
	<path style="fill-rule:evenodd;clip-rule:evenodd;fill:#FAD145;" d="M492.29,274.31c1.17,1.08,2.33,1,3.42-0.09
		c0.52-0.52,1.21-0.25,1.79-0.5c0.38-0.17,0.89-0.05,1.12-0.54c0.23,0,0.46,0,0.69,0c-0.49,0.84-1.3,1.25-2.14,1.61
		c-1.52,0.22-2.98,0.82-4.55,0.73c-0.49-0.24-0.93-0.5-0.75-1.17C492.01,274.35,492.15,274.33,492.29,274.31z"/>
	<path style="fill-rule:evenodd;clip-rule:evenodd;fill:#F6D263;" d="M471.48,296.88c1.2-1.06,2.41-2.11,3.58-3.2
		c0.39-0.37,0.66-0.87,0.98-1.31c0.08-0.07,0.15-0.14,0.23-0.21c0.22,0.02,0.63,0,0.64,0.05c0.06,0.35-0.13,0.63-0.37,0.88
		c-0.89,1.32-2.1,2.39-2.9,3.78C472.92,296.87,472.2,296.88,471.48,296.88z"/>
	<path style="fill-rule:evenodd;clip-rule:evenodd;fill:#F9B31B;" d="M473.14,269.59c-0.38,0.08-0.76,0.19-1.15,0.24
		c-0.5,0.07-1.41,0.49-1.42,0.02c-0.01-0.72,0.4-1.64,1.33-1.88c0.64-0.17,1.32-0.19,1.98-0.28
		C474.14,268.52,473.54,269.02,473.14,269.59z"/>
	<path style="fill-rule:evenodd;clip-rule:evenodd;fill:#F7B31C;" d="M491.86,274.36c0.25,0.39,0.5,0.78,0.75,1.17
		c-0.85,0.17-1.69,0.35-2.54,0.49c-0.33,0.05-0.76,0.53-0.94,0.15c-0.21-0.42-0.15-1.01-0.08-1.5c0.07-0.45,0.51-0.23,0.8-0.25
		C490.52,274.38,491.19,274.38,491.86,274.36z"/>
	<path style="fill-rule:evenodd;clip-rule:evenodd;fill:#EABF42;" d="M467.63,297.35c-1.18-0.25-2.35-0.47-3.41,0.36
		c-0.31,0.25-0.53,0.24-0.75-0.15c-0.26-0.45-0.06-0.69,0.31-0.83c0.88-0.34,1.85-0.42,2.63-1.02c0.1-0.07,0.2-0.15,0.27-0.25
		l-0.02,0.01c0.08-0.07,0.17-0.12,0.26-0.18c0.23,0,0.46,0.01,0.69,0.01C467.48,295.99,467.78,296.67,467.63,297.35z"/>
	<path style="fill-rule:evenodd;clip-rule:evenodd;fill:#FEDF74;" d="M467.66,279.44c-0.71-1.63-1.65-3.12-2.65-4.58
		c0.86-0.17,1.38,0.12,1.72,0.98c0.34,0.83,0.79,1.65,1.36,2.33C468.76,278.97,468.54,279.27,467.66,279.44z"/>
	<path style="fill-rule:evenodd;clip-rule:evenodd;fill:#F7B31B;" d="M476.06,266.37c0.03,0.32,0.02,0.68-0.76,0.39
		c-0.44-0.16-1.02-0.05-1.52,0.04c-0.43,0.08-1.05,0.31-1.22,0.03c-0.24-0.38,0.38-0.69,0.61-1.04c0.67-1.02,1.64-0.22,2.47-0.32
		C476.15,265.4,476.03,265.83,476.06,266.37z"/>
	<path style="fill-rule:evenodd;clip-rule:evenodd;fill:#FBBE24;" d="M491.87,273.38c-2.72,0.17-2.73,0.17-1.51-2.33
		c0.06-0.12,0.21-0.19,0.33-0.28c0.05,0.02,0.11,0.04,0.16,0.05c0.39,0.23,0.81,0.42,1.03,0.86
		C491.99,272.25,492.37,272.82,491.87,273.38z"/>
	<path style="fill-rule:evenodd;clip-rule:evenodd;fill:#FCEAB0;" d="M496.21,287.1c-0.56-1.11-1.13-2.23-1.69-3.34
		c1.73-0.47,1.83,1.13,2.45,2C497.5,286.5,496.49,286.66,496.21,287.1z"/>
	<path style="fill-rule:evenodd;clip-rule:evenodd;fill:#EEC853;" d="M459.9,301.92c1.05-0.2,2.1-0.96,3.14,0.03
		c0.06,0.62,0.12,1.23,0.18,1.85c-0.78-0.09-1.51-0.28-1.83-1.13C461.04,302.15,459.95,303.08,459.9,301.92z"/>
	<path style="fill-rule:evenodd;clip-rule:evenodd;fill:#F7AF1B;" d="M491.36,262.29c-0.92,0.14-1.18-0.23-1.5-0.44
		c-0.11-0.07-0.16-0.24-0.24-0.37c0.15-0.03,0.29-0.08,0.44-0.08c0.85,0,1.66-0.15,2.34-0.68c0.32-0.25,0.49-0.09,0.68,0.14
		c0.21,0.28,0.58,0.56,0.58,0.85c0.01,0.32-0.45,0.12-0.69,0.18C492.28,262.08,491.59,262.23,491.36,262.29z"/>
	<path style="fill-rule:evenodd;clip-rule:evenodd;fill:#F7AF1B;" d="M475.01,264.56c-0.12-0.04-0.59,0.07-0.5-0.12
		c0.22-0.48,0.54-1.05,0.98-1.27c0.77-0.37,1.65-0.5,2.49-0.72c0.11-0.03,0.23,0,0.34,0c-0.05,0.1-0.07,0.23-0.15,0.31
		C477.3,263.63,476.53,264.67,475.01,264.56z"/>
	<path style="fill-rule:evenodd;clip-rule:evenodd;fill:#EFC850;" d="M473.63,296.87c-0.14-0.24-0.3-0.5-0.02-0.74
		c1.07-0.92,1.68-2.28,2.92-3.04c-0.44,1.01-0.9,2.01-1.32,3.02C474.9,296.84,474.22,296.75,473.63,296.87z"/>
	<path style="fill-rule:evenodd;clip-rule:evenodd;fill:#F4D473;" d="M480.54,265.5c1.28-1.08,2.66-1.31,4.18-0.56
		c0,0,0,0.01,0,0.01c0,0.14,0.11,0.19,0.19,0.27c0.16,0.01,0.32,0.03,0.47,0.04c0.09,0.08,0.18,0.16,0.27,0.24
		c-0.03,0.47-0.23,0.75-0.74,0.7c-1.67-1.31-2.63-1.36-3.65-0.2C480.94,265.95,480.71,265.76,480.54,265.5z"/>
	<path style="fill-rule:evenodd;clip-rule:evenodd;fill:#F6E8B7;" d="M495.24,267.82c-0.7,0.12-1.4,0.24-2.11,0.35
		c-0.72,0.12-0.93-0.57-1.05-0.93c-0.17-0.5,0.51-0.25,0.78-0.42c0.51-0.3,1.08-0.13,1.63-0.12
		C494.97,266.93,495.4,267.18,495.24,267.82z"/>
	<path style="fill-rule:evenodd;clip-rule:evenodd;fill:#F3D98A;" d="M461.4,302.68c0.61,0.38,1.22,0.75,1.83,1.13
		c0.09,0.29,0.03,0.55-0.15,0.79c-1.36-1.12-2.18-0.9-2.91,0.78c-0.35-0.19-0.85,0.19-1.12-0.29c0.46-0.56,0.74-1.32,1.62-1.4
		C461.2,303.56,461.52,303.28,461.4,302.68z"/>
	<path style="fill-rule:evenodd;clip-rule:evenodd;fill:#F1D582;" d="M476.52,291.17c0.6-0.97,1.55-1.72,1.91-2.86
		c0.38-0.03,0.86-0.39,1.09-0.04c0.21,0.32-0.36,0.51-0.54,0.79c-0.39,0.59-0.89,1.12-1.19,1.75
		C477.46,291.51,477.09,291.56,476.52,291.17z"/>
	<path style="fill-rule:evenodd;clip-rule:evenodd;fill:#F5B41E;" d="M474.55,276.45c-0.78,0.11-1.56,0.24-2.34,0.31
		c-0.5,0.05-0.93-0.33-0.97-0.7c-0.06-0.53,0.52-0.22,0.8-0.3c0.6-0.17,1.22-0.23,1.84-0.34
		C474.39,275.58,474.55,275.96,474.55,276.45z"/>
	<path style="fill-rule:evenodd;clip-rule:evenodd;fill:#F3D782;" d="M484.41,308.67c-1.09-1.37-0.86-3.56,0.5-4.79
		c0.06,0.05,0.08,0.11,0.06,0.18c0.04,0.11,0.04,0.21-0.03,0.3C484.26,305.74,484.68,307.25,484.41,308.67z"/>
	<path style="fill-rule:evenodd;clip-rule:evenodd;fill:#F6A918;" d="M471.72,310.84c-0.8-0.24-1.61-0.49-2.41-0.73
		c1.63-0.71,3.35-0.44,5.04-0.41C473.39,309.89,472.39,309.99,471.72,310.84z"/>
	<path style="fill-rule:evenodd;clip-rule:evenodd;fill:#EBC042;" d="M481.79,308.88c0.34,1.37,1.06,2.23,2.63,1.96
		c-1.81,0.63-2.97,0.22-3.39-0.96C480.69,308.95,481.22,308.97,481.79,308.88z"/>
	<path style="fill-rule:evenodd;clip-rule:evenodd;fill:#F5D264;" d="M482.06,285.85c0,0.17,0,0.35,0,0.53
		c-0.78,0.38-1.37,1.25-2.41,0.92c0.55-0.79,1.11-1.58,1.66-2.38C481.78,285.05,482.11,285.3,482.06,285.85z"/>
	<path style="fill-rule:evenodd;clip-rule:evenodd;fill:#F4AD1B;" d="M476.77,261.88c0.31-0.62,0.85-1.02,1.39-1.42
		c0.09,0.03,0.13,0.08,0.12,0.14c-0.01,0.07-0.03,0.1-0.05,0.1c-0.15,0.92,0.42,0.39,0.67,0.3c0.41-0.15,0.79-0.33,1.25-0.32
		c0.39,0.01,0.46,0.21,0.46,0.53c0,0.31-0.13,0.35-0.43,0.37c-1.14,0.07-2.28,0.19-3.42,0.29L476.77,261.88z"/>
	<path style="fill-rule:evenodd;clip-rule:evenodd;fill:#E6C55C;" d="M471.23,299.11c0.35-0.72-0.19-0.85-0.67-0.97
		c-0.33-0.08-0.71,0.07-1-0.22c0.65-0.19,1.29-0.29,1.98-0.21c0.6,0.07,1.4,0.15,1.28,0.83
		C472.71,299.09,471.95,299.42,471.23,299.11z"/>
	<path style="fill-rule:evenodd;clip-rule:evenodd;fill:#F0CB58;" d="M467.63,297.35c-0.18-0.68-0.92-1.35-0.03-2.04
		c0.17-0.01,0.35-0.02,0.52-0.03c0.36,0.76,0.61,1.65,1.7,1.67C469.09,297.08,468.36,297.22,467.63,297.35z"/>
	<path style="fill-rule:evenodd;clip-rule:evenodd;fill:#F6DC8A;" d="M462.76,307.95c-1.51,0.18-2.63-0.45-3.5-1.63
		c0.3-0.02,0.61-0.04,0.91-0.06c0.78,0.89,1.73,1.16,2.85,0.73C462.93,307.31,462.84,307.63,462.76,307.95z"/>
	<path style="fill-rule:evenodd;clip-rule:evenodd;fill:#F3CC53;" d="M468.12,294.25c-0.57,0.12-0.93,0.07-1-0.7
		c-0.11-1.17,0.33-1.67,1.48-1.59C469.23,292.89,468.4,293.51,468.12,294.25z"/>
	<path style="fill-rule:evenodd;clip-rule:evenodd;fill:#E6C151;" d="M469.55,291.1c-0.52-0.16-1.43,0.32-1.53-0.23
		c-0.1-0.59,0.66-1.04,1.33-1.24c0.22-0.07,0.44-0.16,0.66-0.24C470.29,290.07,469.95,290.6,469.55,291.1z"/>
	<path style="fill-rule:evenodd;clip-rule:evenodd;fill:#F4D168;" d="M469.55,291.1c-0.1-0.64,0.31-1.14,0.46-1.71
		c0.39-0.16,0.79-0.31,1.18-0.47c-0.31,0.8-0.61,1.61-0.92,2.41C470.04,291.25,469.8,291.18,469.55,291.1z"/>
	<path style="fill-rule:evenodd;clip-rule:evenodd;fill:#F6D56B;" d="M468.12,294.25c-0.2-0.84,0.59-1.47,0.48-2.29
		c0.4-0.16,0.54,0.15,0.71,0.41c0.34,0.83-0.42,1.4-0.48,2.14C468.6,294.42,468.36,294.33,468.12,294.25z"/>
	<path style="fill-rule:evenodd;clip-rule:evenodd;fill:#F4D474;" d="M488.97,308.19c-0.19,1.35-1.09,1.92-3.09,1.93
		c-0.13-0.07-0.26-0.14-0.4-0.2c-0.01-0.09-0.02-0.18-0.04-0.27C486.88,309.79,488.05,309.29,488.97,308.19z"/>
	<path style="fill-rule:evenodd;clip-rule:evenodd;fill:#F9D977;" d="M489.94,293.04c0.32,1.04,0.65,2.07,0.97,3.1
		c-0.39-0.08-0.79-0.16-1.18-0.24c-0.16-0.85-0.68-1.65-0.4-2.57C489.48,293.12,489.66,292.99,489.94,293.04z"/>
	<path style="fill-rule:evenodd;clip-rule:evenodd;fill:#EFCA59;" d="M489.48,293.39c-0.2,0.87,0.8,1.62,0.25,2.52
		c-0.09-0.01-0.19-0.02-0.28-0.03c-0.51-0.76-0.99-1.52-0.46-2.47C489.14,293.18,489.31,293.19,489.48,293.39z"/>
	<path style="fill-rule:evenodd;clip-rule:evenodd;fill:#FCE69E;" d="M476.01,268.12c-1.03,0.06-1.86,0.3-1.42,1.64
		c-0.27-0.05-0.54-0.1-0.81-0.16c-0.43-1.08,0.27-1.53,1.07-1.92C475.23,267.84,475.94,267.14,476.01,268.12z"/>
	<path style="fill-rule:evenodd;clip-rule:evenodd;fill:#EEA81B;" d="M478.41,260.26c0.51-0.48,1.15-0.7,1.78-0.93
		c0.25-0.09,0.61-0.25,0.69,0.11c0.08,0.35-0.18,0.51-0.58,0.56c-0.62,0.09-1.22,0.29-1.84,0.45c-0.08-0.02-0.12-0.06-0.11-0.11
		C478.38,260.29,478.39,260.26,478.41,260.26z"/>
	<path style="fill-rule:evenodd;clip-rule:evenodd;fill:#F0CE69;" d="M460.67,303.69c-0.79,0.18-0.69,1.38-1.62,1.4
		C458.63,303.52,459.54,303.47,460.67,303.69z"/>
	<path style="fill-rule:evenodd;clip-rule:evenodd;fill:#FCE69A;" d="M491.87,273.38c-0.07-0.62-0.14-1.25-0.21-1.87
		c0.17-0.26,0.37-0.44,0.7-0.21c0.08,0.69,0.17,1.38,0.25,2.08C492.36,273.38,492.11,273.38,491.87,273.38z"/>
	<path style="fill-rule:evenodd;clip-rule:evenodd;fill:#F9D251;" d="M479.39,276.53c-0.64,0.31-1.28,0.62-1.91,0.93
		c-0.09-0.05-0.12-0.1-0.09-0.16c0.03-0.05,0.06-0.08,0.08-0.08c-0.01-0.15-0.02-0.3-0.03-0.44c0.28-0.48,0.68-0.77,1.25-0.77
		C478.93,276.18,479.16,276.36,479.39,276.53z"/>
	<path style="fill-rule:evenodd;clip-rule:evenodd;fill:#F9CB3B;" d="M474.85,267.68c-0.48,0.57-1.09,1.07-1.07,1.92
		c-0.21,0-0.43-0.01-0.64-0.01c-0.09-0.76,0.59-1.22,0.73-1.89C474.2,267.69,474.52,267.68,474.85,267.68z"/>
	<path style="fill-rule:evenodd;clip-rule:evenodd;fill:#F2D47A;" d="M497.63,289.45c-0.31-0.51-0.21-1.08-0.24-1.63
		c0.74,0.03,1.01,0.66,1.13,1.16C498.61,289.34,497.98,289.36,497.63,289.45z"/>
	<path style="fill-rule:evenodd;clip-rule:evenodd;fill:#FECB2F;" d="M498.83,270.25c0.4,0.64,0.8,1.28,1.19,1.92
		c-0.24,0-0.49,0-0.73,0c-0.62-0.37-0.92-0.93-1.02-1.63C498.4,270.31,498.57,270.18,498.83,270.25z"/>
	<path style="fill-rule:evenodd;clip-rule:evenodd;fill:#F2CD59;" d="M502.92,293.1c-0.24,0.39-0.49,0.79-0.73,1.18
		c-0.26-0.13-0.22-0.38-0.24-0.6c-0.03-0.34-0.14-0.92-0.02-0.97C502.29,292.55,502.6,292.91,502.92,293.1z"/>
	<path style="fill-rule:evenodd;clip-rule:evenodd;fill:#F5CB48;" d="M495.24,267.82c-0.25-0.37-0.49-0.74-0.74-1.11
		c0.4-0.08,0.81-0.16,1.21-0.23c-0.41,0.5,0.06,0.8,0.27,1.16C495.76,267.83,495.52,267.89,495.24,267.82z"/>
	<path style="fill-rule:evenodd;clip-rule:evenodd;fill:#FEE89C;" d="M473.45,272.16c0.22-0.54,0.23-1.08-0.04-1.61
		c0.24,0,0.47,0,0.71,0c-0.01,0.48-0.05,0.96,0.23,1.39C474.1,272.21,473.79,272.24,473.45,272.16z"/>
	<path style="fill-rule:evenodd;clip-rule:evenodd;fill:#FBD862;" d="M498.36,270.54c0.31,0.54,0.63,1.08,0.94,1.62
		c-0.23,0-0.46,0-0.7,0c-0.25-0.51-0.87-0.82-0.82-1.5C497.93,270.42,498.11,270.34,498.36,270.54z"/>
	<path style="fill-rule:evenodd;clip-rule:evenodd;fill:#FEE89F;" d="M497.88,270.71c0.19,0.51,0.86,0.79,0.72,1.46
		c-0.16,0.01-0.32,0.02-0.48,0.03c-0.03-0.67-0.73-0.88-0.96-1.41C497.38,270.55,497.62,270.54,497.88,270.71z"/>
	<path style="fill-rule:evenodd;clip-rule:evenodd;fill:#F9E08E;" d="M475.09,275.46c-0.02,0.38,0.14,0.66,0.48,0.83
		c-0.22,0.22-0.49,0.2-0.77,0.13c-0.25-0.31-0.56-0.59-0.47-1.06C474.6,275.32,474.86,275.24,475.09,275.46z"/>
	<path style="fill-rule:evenodd;clip-rule:evenodd;fill:#FBDE7D;" d="M491.61,269.8c0.33,0.16,0.23,0.74,0.72,0.75
		c-0.4,0.53-0.4,0.53-1.29,0.13c-0.04-0.05-0.07-0.09-0.11-0.14C491.16,270.29,491.38,270.04,491.61,269.8z"/>
	<path style="fill-rule:evenodd;clip-rule:evenodd;fill:#3C3C38;" d="M500.76,268.84c0.6,0.51,1.01,1.15,1.19,1.92l0.01,0
		C501.35,270.25,500.95,269.62,500.76,268.84L500.76,268.84z"/>
	<path style="fill-rule:evenodd;clip-rule:evenodd;fill:#0A0905;" d="M479.36,294.13c0.05-0.33,0.1-0.67,0.15-1.01
		c0.04,0.37,0.13,0.75,0.11,1.12c-0.01,0.32,0.17,0.67-0.13,0.96C479.45,294.84,479.41,294.5,479.36,294.13z"/>
	<path style="fill-rule:evenodd;clip-rule:evenodd;fill:#FED54A;" d="M474.34,275.37c0.16,0.35,0.31,0.7,0.47,1.06
		c-0.08,0.01-0.17,0.01-0.25,0.02c-0.22-0.34-0.45-0.69-0.67-1.03C474.03,275.4,474.19,275.39,474.34,275.37z"/>
	<path style="fill-rule:evenodd;clip-rule:evenodd;fill:#0B0A02;" d="M481.45,298.87c-0.21-0.05-0.4-0.09-0.59-0.14
		c0.3-0.04,0.6-0.11,0.9-0.12c0.16,0,0.32,0.08,0.48,0.13C481.97,298.79,481.7,298.83,481.45,298.87z"/>
	<path style="fill-rule:evenodd;clip-rule:evenodd;fill:#F2F3F3;" d="M469.83,304.34c0.06-0.33-0.31-0.89,0.19-0.96
		c0.47-0.07,0.21,0.44,0.2,0.71c-0.04,0.1-0.09,0.2-0.16,0.28l0,0C469.96,304.48,469.89,304.47,469.83,304.34z"/>
	<path style="fill-rule:evenodd;clip-rule:evenodd;fill:#403F38;" d="M481.9,277.01c-0.32,0.11-0.46,0.2-0.57,0.19
		c-0.12-0.02-0.23-0.14-0.34-0.21c0.12-0.07,0.23-0.19,0.35-0.2C481.45,276.78,481.58,276.88,481.9,277.01z"/>
	<path style="fill-rule:evenodd;clip-rule:evenodd;fill:#050601;" d="M483.77,289.26c-0.18-0.05-0.36-0.1-0.53-0.16
		c0.22-0.04,0.44-0.1,0.66-0.1c0.18,0,0.35,0.08,0.53,0.12C484.22,289.17,484,289.22,483.77,289.26z"/>
	<path style="fill-rule:evenodd;clip-rule:evenodd;fill:#DFBF56;" d="M493.06,265.93c0.54-0.42,1.15-0.14,1.73-0.18
		C494.26,266.16,493.64,265.89,493.06,265.93z"/>
	<path style="fill-rule:evenodd;clip-rule:evenodd;fill:#EBC042;" d="M481.56,307.55c-0.01,0.24-0.02,0.47-0.02,0.71
		c-0.21-0.06-0.6-0.1-0.61-0.18C480.89,307.66,481.32,307.7,481.56,307.55z"/>
	<path style="fill-rule:evenodd;clip-rule:evenodd;fill:#F9D452;" d="M477.47,277.22c0,0.08,0,0.16,0.01,0.24
		c-0.56-0.02-1.15,0.19-1.69-0.15C476.35,277.28,476.91,277.25,477.47,277.22z"/>
	<path style="fill-rule:evenodd;clip-rule:evenodd;fill:#0A0901;" d="M484.5,298.88c-0.19-0.06-0.36-0.11-0.53-0.16
		c0.22-0.04,0.44-0.1,0.66-0.1c0.17,0,0.35,0.07,0.52,0.11C484.93,298.78,484.72,298.83,484.5,298.88z"/>
	<path style="fill-rule:evenodd;clip-rule:evenodd;fill:#070601;" d="M502.91,273.65c-0.06,0.49,0.19,1.03-0.23,1.46
		C502.76,274.63,502.48,274.08,502.91,273.65z"/>
	<path style="fill-rule:evenodd;clip-rule:evenodd;fill:#E4E4E5;" d="M480.1,267.2c-0.19-0.07-0.42,0-0.32-0.26
		c0.05-0.14,0.14-0.26,0.22-0.39c0.12,0.12,0.27,0.23,0.35,0.38C480.37,266.96,480.18,267.11,480.1,267.2z"/>
	<path style="fill-rule:evenodd;clip-rule:evenodd;fill:#070603;" d="M502.66,272.23c0.01,0.39,0.03,0.78,0.04,1.17
		C502.33,273.02,502.32,272.63,502.66,272.23z"/>
	<path style="fill-rule:evenodd;clip-rule:evenodd;fill:#97989A;" d="M469.83,304.34c0.08,0,0.15,0.02,0.22,0.03
		c-0.04,0.17-0.07,0.35-0.11,0.52C469.67,304.76,469.8,304.54,469.83,304.34z"/>
	<path style="fill-rule:evenodd;clip-rule:evenodd;fill:#3C3C38;" d="M501.96,270.76c0.06,0.08,0.12,0.17,0.18,0.25
		C501.86,271.07,502.02,270.84,501.96,270.76C501.96,270.76,501.96,270.76,501.96,270.76z"/>
	<path style="fill-rule:evenodd;clip-rule:evenodd;fill:#FEE28B;" d="M471.73,288c0.17-0.06,0.34-0.11,0.52-0.17
		C472.14,288.09,471.93,288.03,471.73,288z"/>
	<path style="fill-rule:evenodd;clip-rule:evenodd;fill:#FEDF74;" d="M467.32,280.34c-0.17-0.14-0.17-0.29-0.01-0.43
		C467.31,280.05,467.31,280.19,467.32,280.34z"/>
	<path style="fill-rule:evenodd;clip-rule:evenodd;fill:#FED960;" d="M457.09,297.34c0.15-0.06,0.3-0.12,0.46-0.18
		C457.4,297.22,457.25,297.28,457.09,297.34z"/>
	<path style="fill-rule:evenodd;clip-rule:evenodd;fill:#999485;" d="M478.41,260.26c0.02,0.06,0.04,0.13,0.06,0.19
		c-0.08,0.08-0.16,0.17-0.24,0.25c-0.02-0.08-0.05-0.16-0.07-0.24C478.25,260.4,478.33,260.33,478.41,260.26z"/>
	<path style="fill-rule:evenodd;clip-rule:evenodd;fill:#F6D260;" d="M495.96,299.97c0.17-0.18,0.33-0.19,0.47,0.03
		C496.27,299.99,496.12,299.98,495.96,299.97z"/>
	<path style="fill-rule:evenodd;clip-rule:evenodd;fill:#F9DA79;" d="M493.13,279.62c-0.08-0.09-0.17-0.19-0.25-0.28
		C492.96,279.43,493.05,279.53,493.13,279.62z"/>
	<path style="fill-rule:evenodd;clip-rule:evenodd;fill:#F9DA79;" d="M490.02,278.42c-0.1-0.06-0.19-0.11-0.29-0.17
		C489.82,278.31,489.92,278.37,490.02,278.42z"/>
	<path style="fill-rule:evenodd;clip-rule:evenodd;fill:#97989A;" d="M470.06,304.37c0.05-0.09,0.11-0.19,0.16-0.28
		C470.17,304.18,470.11,304.28,470.06,304.37z"/>
	<path style="fill-rule:evenodd;clip-rule:evenodd;fill:#8A7538;" d="M473.39,298.35c-0.04,0.04-0.07,0.08-0.11,0.12
		c0.01-0.03,0-0.06,0.02-0.07c0.03-0.02,0.07-0.02,0.1-0.04L473.39,298.35z"/>
	<path style="fill-rule:evenodd;clip-rule:evenodd;fill:#FADB78;" d="M482.6,277.97c-0.04,0.07-0.07,0.15-0.11,0.22
		C482.53,278.12,482.56,278.04,482.6,277.97z"/>
	<path style="fill-rule:evenodd;clip-rule:evenodd;fill:#F5D264;" d="M482.52,286.31c0.09-0.06,0.18-0.12,0.27-0.18
		C482.7,286.19,482.61,286.25,482.52,286.31z"/>
	<path style="fill-rule:evenodd;clip-rule:evenodd;fill:#FEE596;" d="M460.68,270.25c0.08-0.01,0.15-0.01,0.23-0.02l-0.11,0.03
		L460.68,270.25z"/>
	<path style="fill-rule:evenodd;clip-rule:evenodd;fill:#FEE28B;" d="M477.73,287.51c0.09-0.05,0.18-0.11,0.27-0.16
		C477.91,287.4,477.82,287.46,477.73,287.51z"/>
	<path style="fill-rule:evenodd;clip-rule:evenodd;fill:#85D2F5;" d="M499.82,265.48c0.07,0.09,0.14,0.18,0.21,0.27
		C499.96,265.66,499.89,265.57,499.82,265.48z"/>
	<path style="fill-rule:evenodd;clip-rule:evenodd;fill:#ECC650;" d="M484.92,265.22c-0.06-0.09-0.13-0.18-0.19-0.27
		C484.79,265.04,484.85,265.13,484.92,265.22z"/>
	<path style="fill-rule:evenodd;clip-rule:evenodd;fill:#F6D260;" d="M498.14,290.28c-0.01,0.05-0.02,0.09-0.03,0.14
		c-0.07-0.06-0.14-0.12-0.21-0.17C497.98,290.26,498.06,290.27,498.14,290.28z"/>
	<path style="fill-rule:evenodd;clip-rule:evenodd;fill:#FEDF74;" d="M464.78,274.83c-0.07,0-0.13-0.02-0.19-0.05
		C464.67,274.73,464.73,274.74,464.78,274.83z"/>
	<path style="fill-rule:evenodd;clip-rule:evenodd;fill:#977E1F;" d="M476.76,261.87c-0.03,0.05-0.05,0.11-0.08,0.16
		c-0.15-0.16,0.01-0.13,0.09-0.15L476.76,261.87z"/>
	<path style="fill-rule:evenodd;clip-rule:evenodd;fill:#F9DA79;" d="M493.97,280.58c-0.05-0.07-0.11-0.14-0.16-0.21
		C493.86,280.44,493.91,280.51,493.97,280.58z"/>
	<path style="fill-rule:evenodd;clip-rule:evenodd;fill:#F2CD59;" d="M503.38,293.32c-0.07-0.05-0.14-0.1-0.21-0.15
		C503.25,293.22,503.32,293.27,503.38,293.32z"/>
	<path style="fill-rule:evenodd;clip-rule:evenodd;fill:#F7E3A4;" d="M486.09,308.14c-0.06,0.1-0.12,0.2-0.19,0.3
		C485.96,308.34,486.03,308.24,486.09,308.14z"/>
	<path style="fill-rule:evenodd;clip-rule:evenodd;fill:#F2CD59;" d="M502.51,294.77c0.05,0.08,0.11,0.16,0.16,0.23
		C502.62,294.93,502.56,294.85,502.51,294.77z"/>
	<path style="fill-rule:evenodd;clip-rule:evenodd;fill:#9AD9F6;" d="M458.73,260.21c0.09,0.08,0.18,0.16,0.27,0.24
		C458.91,260.37,458.82,260.29,458.73,260.21z"/>
	<path style="fill-rule:evenodd;clip-rule:evenodd;fill:#F0CB58;" d="M468.58,295.04c-0.09,0.06-0.17,0.12-0.26,0.18
		C468.41,295.16,468.5,295.1,468.58,295.04z"/>
	<path style="fill-rule:evenodd;clip-rule:evenodd;fill:#F0CB58;" d="M466.92,295.3c-0.09,0.06-0.17,0.12-0.26,0.18
		C466.74,295.41,466.83,295.35,466.92,295.3z"/>
	<path style="fill-rule:evenodd;clip-rule:evenodd;fill:#FDEAAD;" d="M493.33,282.71c0.09-0.06,0.18-0.12,0.27-0.18
		C493.5,282.59,493.42,282.65,493.33,282.71z"/>
	<path style="fill-rule:evenodd;clip-rule:evenodd;fill:#F0CB58;" d="M466.67,295.46c-0.09,0.08-0.18,0.17-0.27,0.25
		C466.5,295.63,466.59,295.54,466.67,295.46z"/>
	<path style="fill-rule:evenodd;clip-rule:evenodd;fill:#F9DA7A;" d="M502.73,295.48c0.06,0.11,0.11,0.23,0.17,0.34
		C502.84,295.71,502.78,295.6,502.73,295.48z"/>
	<path style="fill-rule:evenodd;clip-rule:evenodd;fill:#FED960;" d="M457.81,297.11c0.07-0.01,0.15-0.01,0.22-0.02l-0.11,0.04
		L457.81,297.11z"/>
	<path style="fill-rule:evenodd;clip-rule:evenodd;fill:#FED960;" d="M456.61,297.56c0.08-0.05,0.16-0.1,0.24-0.16
		C456.78,297.46,456.7,297.51,456.61,297.56z"/>
	<path style="fill-rule:evenodd;clip-rule:evenodd;fill:#F3F3F1;" d="M490.69,270.77c-0.04-0.2,0.07-0.25,0.24-0.24l-0.02-0.02
		c0.07,0.23-0.01,0.31-0.24,0.24L490.69,270.77z"/>
	<path style="fill-rule:evenodd;clip-rule:evenodd;fill:#F6A918;" d="M469.31,310.11c-0.07,0.08-0.15,0.17-0.22,0.25
		C469.16,310.27,469.24,310.19,469.31,310.11z"/>
	<path style="fill-rule:evenodd;clip-rule:evenodd;fill:#FEDE75;" d="M469.3,280.84c-0.07-0.09-0.14-0.19-0.21-0.28
		C469.16,280.66,469.23,280.75,469.3,280.84z"/>
	<path style="fill-rule:evenodd;clip-rule:evenodd;fill:#F1CC58;" d="M484.93,304.36c0.01-0.1,0.02-0.2,0.03-0.3
		C485.13,304.18,485.09,304.28,484.93,304.36z"/>
	<path style="fill-rule:evenodd;clip-rule:evenodd;fill:#26211D;" d="M498.99,302.24c0.33,0.11,1.33-0.37,1.35,0.31
		c0.02,0.73-0.95,0.23-1.46,0.37c-0.69,0.17-1.38,0.32-2.08,0.43c-0.27,0.04-0.71,0.25-0.81-0.17c-0.09-0.36,0.31-0.53,0.6-0.64
		C497.28,302.28,498.01,302.11,498.99,302.24z"/>
	<path style="fill-rule:evenodd;clip-rule:evenodd;fill:#272321;" d="M464.14,282.94c0.14,0.01,0.21,0.02,0.29,0.03
		c0.68,0.07,1.45-0.1,1.9,0.65c-0.62,0.3-1.22-0.04-1.83-0.08c-0.44-0.03-0.89,0.05-1.31-0.06c-0.34-0.09-0.81,0.49-0.94-0.06
		c-0.05-0.23,0.56-0.44,0.98-0.42C463.56,283,463.88,282.96,464.14,282.94z"/>
	<path style="fill-rule:evenodd;clip-rule:evenodd;fill:#D2CFC3;" d="M496.09,311.12c-0.15-0.17-0.2-0.35,0-0.49
		c0.03-0.02,0.23,0.17,0.34,0.27C496.31,310.97,496.2,311.05,496.09,311.12z"/>
	<path style="fill-rule:evenodd;clip-rule:evenodd;fill:#F4E0A1;" d="M495.47,308.14c0.2,0.98-0.54,1.78-0.55,2.72
		c-0.05-0.02-0.11-0.03-0.16-0.04c-0.05-0.3,0-0.67-0.16-0.9c-0.7-1.02-0.22-1.65,0.63-2.2C495.32,307.86,495.39,308,495.47,308.14z
		"/>
	<path style="fill-rule:evenodd;clip-rule:evenodd;fill:#2A2623;" d="M490.67,270.75c0.17,0.01,0.25-0.06,0.24-0.24
		c0.48-0.18,0.94,0.47,1.42,0.03c1.46-0.25,2.93-0.51,4.39-0.76c0.58-0.05,1.16-0.09,1.74-0.15c0.58-0.06,0.74,0.11,0.37,0.61
		c-0.16,0.1-0.32,0.2-0.47,0.3c-0.16,0.06-0.32,0.11-0.48,0.17c-0.24,0.02-0.48,0.05-0.72,0.07c-1.63-0.06-3.23,0.17-4.81,0.52
		c-0.23,0.07-0.46,0.14-0.7,0.21C491.28,271.31,490.67,271.42,490.67,270.75z"/>
	<path style="fill-rule:evenodd;clip-rule:evenodd;fill:#24201F;" d="M482.06,285.85c-0.25-0.31-0.5-0.62-0.75-0.93
		c0.03-1.62,1.27-2.24,2.42-2.93c0.33-0.12,0.65-0.11,0.96,0.06c0.74,0.72,1.22,1.55,1.2,2.62c-0.2,1.48-1.33,1.19-2.29,1.2
		C483.07,285.88,482.57,285.86,482.06,285.85z"/>
	<path style="fill-rule:evenodd;clip-rule:evenodd;fill:#272322;" d="M485.87,270.02c0.42,0.4,1.32,0.34,1.21,1.25
		c-0.48,0.08-0.96,0.17-1.44,0.25c-1.89,1.03-3.85,1.61-6,0.94c-0.37-0.22-1.12,0-1.07-0.65c0.03-0.48,0.63-0.33,1.01-0.4
		c1.97,0.17,3.88,0,5.61-1.06C485.34,270.07,485.53,269.89,485.87,270.02z"/>
	<path style="fill-rule:evenodd;clip-rule:evenodd;fill:#F9E7AC;" d="M479.64,272.46c2.06,0.08,4.02-0.52,6-0.94
		c-0.42,2.3-1.53,3-3.85,2.42c0.04-0.16,0.16-0.26,0.27-0.37c0.15-0.15,0.54-0.19,0.43-0.43c-0.1-0.21-0.42-0.01-0.64,0.03
		c-0.14,0.05-0.28,0.11-0.41,0.19c-0.26,0.14-0.47,0.41-0.82,0.3C480.3,273.26,479.97,272.86,479.64,272.46z"/>
	<path style="fill-rule:evenodd;clip-rule:evenodd;fill:#2B2724;" d="M481.45,272.99c0.62-0.09,1.52-0.76,1.79-0.04
		c0.21,0.57-0.87,0.74-1.44,0.99c-0.41-0.01-0.95,0.57-1.16-0.27c0.26-0.21,0.52-0.43,0.78-0.64L481.45,272.99z"/>
	<path style="fill-rule:evenodd;clip-rule:evenodd;fill:#242020;" d="M484.92,266.2c0.25-0.23,0.5-0.47,0.74-0.7
		c1.28-0.32,2.56-0.56,3.76,0.25c0.71,0.48,0.75,2.47,0.06,2.93c-0.11,0.07-0.33,0.1-0.42,0.04c-1.17-0.79-2.17-0.17-3.18,0.36
		c-0.41,0.26-0.56,0.06-0.59-0.33c-0.03-0.3,0.17-0.62-0.12-0.88l0.01,0.01c-0.11-0.07-0.2-0.16-0.24-0.29
		C484.94,267.12,484.93,266.66,484.92,266.2z"/>
	<path style="fill-rule:evenodd;clip-rule:evenodd;fill:#2B2726;" d="M482.89,269.64c0.03,0.17-0.28,0.14-0.28,0.13
		c-0.32-0.96-1.7,0.47-1.78-0.75c-0.04-0.63,0.65-0.37,1.05-0.42C482.6,268.5,482.67,269.09,482.89,269.64z"/>
	<path style="fill-rule:evenodd;clip-rule:evenodd;fill:#F8E5A7;" d="M485.17,267.86c0.38,0.01,0.6,0.12,0.37,0.55
		c-0.2,0.37-0.23,0.67,0.34,0.66c0,0.31-0.01,0.63-0.01,0.94c-0.23,0.11-0.46,0.22-0.69,0.33
		C485.18,269.52,485.18,268.69,485.17,267.86z"/>
	<path style="fill-rule:evenodd;clip-rule:evenodd;fill:#F8E5A7;" d="M484.95,267.58c0.08,0.1,0.16,0.19,0.24,0.29
		C485.11,267.77,485.03,267.68,484.95,267.58z"/>
	<path style="fill-rule:evenodd;clip-rule:evenodd;fill:#2D2822;" d="M489.48,293.39c-0.16,0.01-0.33,0.01-0.49,0.02
		c-0.27-0.04-0.54-0.06-0.81-0.13c-0.37-0.1-1.04,0.17-1.02-0.44c0.01-0.66,0.71-0.4,1.12-0.51c0.4,0.06,0.79,0.13,1.19,0.2
		c0.16,0.11,0.32,0.23,0.47,0.34c-0.01,0.06-0.01,0.12-0.01,0.18C489.79,293.16,489.63,293.27,489.48,293.39z"/>
	<path style="fill-rule:evenodd;clip-rule:evenodd;fill:#735C3A;" d="M483.89,283.31c-0.23,0.57-0.51,1.06-1.05,1.28
		c-0.23,0.09-0.35-0.18-0.27-0.38c0.21-0.53,0.62-0.91,1.12-1.15C483.92,282.96,483.87,283.22,483.89,283.31z"/>
	<path style="fill-rule:evenodd;clip-rule:evenodd;fill:#3A3A36;" d="M484.55,284.87c-0.23-0.04-0.36-0.18-0.29-0.39
		c0.06-0.16,0.21-0.37,0.35-0.39c0.25-0.04,0.28,0.19,0.27,0.4C484.89,284.7,484.79,284.85,484.55,284.87z"/>
	<polygon style="fill-rule:evenodd;clip-rule:evenodd;fill:#EEC448;" points="481.45,272.99 481.45,273.04 481.41,273.03 	"/>
	<path style="fill-rule:evenodd;clip-rule:evenodd;fill:#E0E1E2;" d="M488.65,266.58c-0.1,0.12-0.17,0.19-0.23,0.27
		c-0.06-0.06-0.15-0.12-0.18-0.19c-0.02-0.04,0.06-0.17,0.1-0.17C488.42,266.48,488.51,266.53,488.65,266.58z"/>
	<path style="fill-rule:evenodd;clip-rule:evenodd;fill:#FEFEFE;" d="M486.56,266.81c-0.06,0.04-0.13,0.11-0.18,0.1
		c-0.07-0.02-0.13-0.09-0.19-0.15c0.07-0.02,0.13-0.07,0.19-0.07C486.45,266.71,486.5,266.77,486.56,266.81z"/>
</g>
</svg>
