<?xml version="1.0" encoding="utf-8"?>
<!-- Generator: Adobe Illustrator 16.0.0, SVG Export Plug-In . SVG Version: 6.00 Build 0)  -->
<!DOCTYPE svg PUBLIC "-//W3C//DTD SVG 1.0//EN" "http://www.w3.org/TR/2001/REC-SVG-20010904/DTD/svg10.dtd" [
	<!ENTITY ns_flows "http://ns.adobe.com/Flows/1.0/">
	<!ENTITY ns_extend "http://ns.adobe.com/Extensibility/1.0/">
	<!ENTITY ns_ai "http://ns.adobe.com/AdobeIllustrator/10.0/">
	<!ENTITY ns_graphs "http://ns.adobe.com/Graphs/1.0/">
]>
<svg version="1.0" id="Layer_1" xmlns:x="&ns_extend;" xmlns:i="&ns_ai;" xmlns:graph="&ns_graphs;"
	 xmlns="http://www.w3.org/2000/svg" xmlns:xlink="http://www.w3.org/1999/xlink" xmlns:a="http://ns.adobe.com/AdobeSVGViewerExtensions/3.0/"
	 x="0px" y="0px" width="960px" height="560px" viewBox="0 0 960 560" style="enable-background:new 0 0 960 560;"
	 xml:space="preserve">
<g>
	<path style="fill-rule:evenodd;clip-rule:evenodd;fill:#010101;" d="M483.01,280.32c0.87,3.1,1.78,6.2,2.58,9.32
		c0.19,0.76,0.4,0.79,1.02,0.51c2.04-0.91,2.3-0.72,2.21,1.49c-0.06,1.35-0.59,2.45-1.64,3.32c-0.72,0.6-1.65,1.25-0.29,2.18
		c0.07,0.05,0.06,0.28,0.02,0.4c-0.05,0.14-0.19,0.25-0.29,0.38c0.95,0.75,0.3,2.14,1.16,2.93c0.11,0.1,0.28,0.12,0.43,0.18
		c-1.11,1.34,1.15,1.77,0.79,2.91c-0.19,0.62,0.09,0.85,0.71,0.89c1.41,0.1,2.31,0.92,2.61,2.25c0.33,1.48,0.41,2.95-1.01,4.03
		c-0.24,0.18-0.6,0.46-0.59,0.69c0.06,1.84-0.89,1.27-1.74,0.72c-0.46-0.29-0.92-0.21-1.38-0.24c-2.05-0.13-3.79-1.52-4.09-3.26
		c-0.18-1.03,0.21-1.86,0.78-2.67c0.6-0.85,0.5-1.63-0.06-2.58c-0.58-0.97-1.05-2.09-1.05-3.28c0-1.34-1.62-3.74-2.94-4.18
		c-1.15-0.39-2.23-0.88-3.06-1.79c-0.38-0.41-0.8-0.9-0.65-1.47c0.18-0.65,0.92-0.7,1.41-0.66c1.69,0.14,1.68-0.43,1.07-1.78
		c-3.49-7.62-6.55-15.42-8.89-23.45c-1.01-3.48-1.22-7.21-1.71-10.84c-0.27-1.98-0.37-3.98-0.53-5.97
		c-0.05-0.57-0.03-1.27,0.52-1.46c0.5-0.17,0.69,0.54,0.96,0.91c1.58,2.19,3.06,4.47,4.75,6.58c3.69,4.63,5.25,10.11,6.54,15.72
		c0.11,0.25,0.15,0.47-0.17,0.59c-0.51-0.25-0.49-0.78-0.65-1.21c-0.05-0.17-0.04-0.35-0.07-0.52c-0.44-0.63-0.33-1.43-0.65-2.1
		c-0.06-0.15-0.14-0.3-0.15-0.47c-0.06-0.41-0.05-0.84-0.28-1.22c-0.1-0.18-0.16-0.38-0.29-0.54c-0.04-0.15-0.07-0.3-0.13-0.44
		c-0.11-0.33-0.23-0.66-0.35-0.98c-0.06-0.23-0.15-0.46-0.23-0.69c-0.05-0.13-0.05-0.27-0.1-0.4c-0.07-0.16-0.07-0.35-0.17-0.5
		c-0.05-0.07-0.09-0.15-0.12-0.24c-0.03-0.13-0.09-0.25-0.15-0.37c-0.05-0.08-0.09-0.17-0.12-0.25c-0.07-0.13-0.13-0.26-0.2-0.39
		c-0.35-0.64-0.75-1.23-1.06-1.88c-0.14-0.33-0.34-0.64-0.55-0.93c-0.15-0.26-0.29-0.54-0.49-0.77c-0.22-0.28-0.39-0.59-0.55-0.9
		c-0.15-0.19-0.35-0.34-0.51-0.51c-0.06-0.07-0.09-0.16-0.1-0.26c-0.06-0.16-0.18-0.28-0.28-0.38c-0.03,0.03,0.02,0.04,0.02,0.05
		c0.09,0.09,0.17,0.18,0.23,0.29c0.02,0.09,0.04,0.17,0.08,0.26c0.12,0.15,0.27,0.26,0.4,0.4c0.1,0.11,0.2,0.22,0.26,0.36
		c0.11,0.29,0.32,0.52,0.49,0.77c0.19,0.25,0.32,0.53,0.49,0.8c0.26,0.28,0.38,0.64,0.56,0.96c0.45,0.87,1.01,1.68,1.39,2.58
		c0.06,0.14,0.09,0.29,0.17,0.43c0.06,0.08,0.1,0.17,0.13,0.26c0.03,0.14,0.08,0.28,0.12,0.41c0.01,0.14,0.07,0.28,0.12,0.41
		c0.08,0.23,0.13,0.46,0.23,0.68c0.12,0.33,0.23,0.65,0.35,0.98c0.03,0.1,0.05,0.2,0.08,0.29c0.17,0.26,0.29,0.55,0.44,0.82
		c0.08,0.42,0.11,0.85,0.22,1.27c0.05,0.1,0.09,0.2,0.13,0.31c0.25,0.63,0.17,1.36,0.58,1.94c0.03,0.23,0.04,0.46,0.13,0.68
		c0.17,0.75,0.57,1.43,0.76,2.17c0.96,3.81,1.76,7.67,2.81,11.47c0.05,0.19,0.06,0.4,0.14,0.58c0.07,0.15,0.13,0.29,0.17,0.45
		c0.03-0.11-0.05-0.19-0.08-0.28c-0.37-1.21-0.58-2.47-1-3.68c-0.18-0.52-0.31-1.08-0.17-1.65
		C482.59,280.51,482.66,280.25,483.01,280.32z"/>
	<path style="fill-rule:evenodd;clip-rule:evenodd;fill:#191718;" d="M483.01,280.32c-0.1,0.19-0.2,0.38-0.29,0.57
		c-0.71-0.28-0.59-0.98-0.74-1.52c-0.54-1.95-1.05-3.9-1.59-5.85c0.02-0.29-0.32-0.6,0.02-0.88c0.07-0.18,0.15-0.35,0.22-0.53
		C481.81,274.73,482.32,277.55,483.01,280.32z"/>
	<path style="fill-rule:evenodd;clip-rule:evenodd;fill:#AE9FA5;" d="M480.35,288.01c-0.24-0.55-0.48-1.11-0.73-1.66
		c0.36-3.28-0.38-6.41-1.31-9.51c-0.03-0.12-0.01-0.37-0.21-0.31c-0.11,0.04-0.04,0.29-0.08,0.44c-0.18,0.73-0.03,1.68-1.18,1.75
		c-0.38-0.36-0.52-0.84-0.48-1.31c0.21-2.78-0.53-5.35-1.54-7.89c-0.95-2.39-1-4.9-0.77-7.41c0.09-0.98,0.42-1.04,1.3-0.32
		c1.06,1.66,1.79,3.46,2.36,5.33c-0.75,2.12-0.27,3.95,1.22,5.62c0.49,0.54,0.5,1.4,0.7,2.13c0.06,0.22-0.01,0.49,0.29,0.59
		c0.3,1.3,0.6,2.6,0.9,3.91c-0.02,1.49,0.51,2.87,0.85,4.29c0.29,1.22,0.54,2.41,0.04,3.62
		C481.45,287.88,481.13,288.37,480.35,288.01z"/>
	<path style="fill-rule:evenodd;clip-rule:evenodd;fill:#F9F7F8;" d="M470.02,260.41c1.95,9.63,5.77,18.62,9.39,27.67
		c0.14,0.34,0.53,0.84,0.04,1.05c-0.5,0.22-0.57-0.44-0.71-0.75c-3.26-6.93-5.7-14.17-8.09-21.43c-0.63-1.9-0.6-4.01-0.88-6.03
		C469.7,260.69,469.56,260.41,470.02,260.41z"/>
	<path style="fill-rule:evenodd;clip-rule:evenodd;fill:#B5A5AB;" d="M475.34,261.79c-1.13-0.58-0.9,0.23-1,0.89
		c-0.54,3.5,0.89,6.6,1.83,9.82c0.48,1.63,0.86,3.31,0.46,5.06c-0.09,0.38,0.07,0.78,0.37,1.08c0.14,0.13,0.18,0.29,0.15,0.48
		c-0.07,0.18-0.17,0.31-0.39,0.24l0,0c-0.14-0.13-0.1-0.33-0.2-0.47c-0.05-0.06-0.07-0.13-0.05-0.21c-0.12-0.15-0.07-0.36-0.2-0.51
		c-0.05-0.05-0.07-0.12-0.05-0.19c-0.06-0.12-0.09-0.24-0.09-0.37c-0.52-2.94-1.2-5.82-2.17-8.66c-0.55-1.61-0.67-3.35-0.7-5.07
		c-0.02-0.99-0.04-1.98-0.18-2.97c-0.17-1.16-0.69-1.99-1.62-2.66c-0.47-0.33-1.09-0.58-1.08-1.31c0.79-0.7,1.51,0.06,2.26,0.11
		C473.68,258.56,474.62,260.12,475.34,261.79z"/>
	<path style="fill-rule:evenodd;clip-rule:evenodd;fill:#A6989F;" d="M477,279.12c0-0.16,0-0.32,0-0.48
		c0.82-0.62,0.69-1.52,0.73-2.38c0.01-0.29-0.17-0.73,0.24-0.81c0.29-0.05,0.35,0.36,0.45,0.61c1.13,2.9,1.35,5.99,1.86,9.02
		c0.1,0.57-0.5,0.81-0.66,1.27c-0.85-1.91-1.8-3.77-2.39-5.79C477.2,280.07,477.01,279.61,477,279.12z"/>
	<path style="fill-rule:evenodd;clip-rule:evenodd;fill:#B3B1B6;" d="M480.35,288.01c0.95-0.21,1.63-1.69,1.35-3.03
		c-0.3-1.46-0.64-2.92-0.98-4.38c-0.1-0.43-0.27-0.84,0.08-1.23c0.02,0.13,0.04,0.26,0.06,0.39c0.07,0.18,0.06,0.39,0.17,0.56
		c0.02,0.13,0.04,0.27,0.07,0.4c0.07,0.18,0.07,0.38,0.15,0.55c0.02,0.16,0.05,0.31,0.07,0.46c0.19,0.21,0.03,0.52,0.19,0.74
		c0.03,0.13,0.05,0.26,0.08,0.38c0.05,0.19,0.06,0.4,0.16,0.58c0.02,0.08,0.03,0.15,0.05,0.23c0.2,0.21,0.04,0.51,0.19,0.73
		c0.41,1.29,0.81,2.57,1.22,3.86c0.16,0.93,0.51,1.8,0.84,2.67c-1.01,0.3-2.04,0.59-3.04,0.92c-0.58,0.19-0.73-0.26-0.82-0.59
		c-0.12-0.44-0.93-0.93-0.32-1.29C480.81,289.4,480.48,288.72,480.35,288.01z"/>
	<path style="fill-rule:evenodd;clip-rule:evenodd;fill:#BFB1B5;" d="M470.52,256.8c0.01,0.36,0.2,0.59,0.51,0.74
		c2.13,1.06,2.66,2.97,2.59,5.11c-0.12,3.36,0.67,6.54,1.79,9.67c0.62,1.74,0.63,3.57,0.87,5.37c-0.07,0.08-0.13,0.08-0.19,0
		c-0.17-0.48-0.34-0.96-0.51-1.44c-0.01-1.22-0.64-2.26-0.99-3.38c-0.42-1.32-1.05-2.58-1.4-3.93c-0.47-1.77-0.58-3.6-0.59-5.43
		c-0.01-1.04-0.2-2.05-0.29-3.08c-0.05-0.49-0.36-0.87-0.7-1.22c-0.5-0.51-1.02-1.01-1.31-1.68c-0.06-0.04-0.08-0.1-0.04-0.16
		c-0.1-0.23-0.09-0.47-0.08-0.7c0.02-0.21-0.08-0.59,0.24-0.52C470.78,256.2,470.67,256.54,470.52,256.8z"/>
	<path style="fill-rule:evenodd;clip-rule:evenodd;fill:#D0C3C6;" d="M470.28,257.52c1.84,1.17,2.72,2.87,2.62,5.01
		c-0.2,4.36,1.05,8.4,2.6,12.39c0.17,0.43,0.53,0.85,0.07,1.31c-0.05-0.05-0.07-0.11-0.04-0.17c-0.02-0.12-0.12-0.19-0.15-0.3
		c-0.03-0.13-0.06-0.27-0.1-0.4c-0.01-0.13-0.1-0.22-0.17-0.32c-0.8-2.32-1.61-4.64-2.41-6.97c0.13-0.36,0.03-0.74-0.09-1.04
		c-0.67-1.66-0.71-3.4-0.74-5.13c-0.01-0.92-0.3-1.71-0.89-2.39c-0.24-0.26-0.19-0.66-0.45-0.91c-0.17-0.16-0.1-0.41-0.22-0.6
		C470.31,257.84,470.3,257.68,470.28,257.52z"/>
	<path style="fill-rule:evenodd;clip-rule:evenodd;fill:#F3F2F2;" d="M480.55,273.38c0.72,2.5,1.44,5,2.16,7.51
		c0.5,1.99,1.01,3.98,1.48,5.97c0.05,0.22,0.54,0.58-0.08,0.72c-0.39,0.09-0.56-0.16-0.65-0.52c-1.04-4.4-2.08-8.79-3.12-13.19
		C480.25,273.64,480.12,273.39,480.55,273.38z"/>
	<path style="fill-rule:evenodd;clip-rule:evenodd;fill:#B9ADB1;" d="M479.91,275.46c-0.18,0.65-0.38,0.2-0.4-0.03
		c-0.13-1.48-0.95-2.59-1.75-3.79c-0.94-1.4-1.27-3-0.06-4.52c0.23,0.88,0.47,1.76,0.7,2.65c-0.19,0.4,0.07,0.76,0.09,1.14
		c0.01,0.14,0.04,0.29,0.07,0.43c-0.01-0.16-0.02-0.31,0.13-0.42C479.27,272.39,479.66,273.91,479.91,275.46z"/>
	<path style="fill-rule:evenodd;clip-rule:evenodd;fill:#2C2625;" d="M489.48,308.62c0.07-0.15,0.14-0.31,0.21-0.46
		c1.49-0.36,1.94,0.23,1.48,1.93l0.01-0.02c-0.73,0.98-1.76,1.35-2.93,1.44c-0.56-0.1-1.13-0.12-1.68-0.29
		c-0.67-0.34-0.81-0.75-0.18-1.27c0.44-0.21,1.21,0.09,1.24-0.78c0.24-0.4,0.58-0.52,1.02-0.37
		C488.97,308.91,489.27,309,489.48,308.62z"/>
	<path style="fill-rule:evenodd;clip-rule:evenodd;fill:#AB9CA2;" d="M470.52,256.8c-0.03-0.15-0.03-0.41-0.08-0.42
		c-0.27-0.05-0.12,0.19-0.14,0.3c-0.04,0.22-0.04,0.45-0.06,0.68c-0.31-0.85-0.24-1.73-0.23-2.61c-0.12-0.26-0.03-0.57-0.17-0.82
		c-0.02-0.14-0.04-0.29-0.06-0.43c-0.07-0.33-0.35-0.74,0.29-0.81l-0.01-0.01c0.02,0.12,0.13,0.18,0.19,0.28
		c0.06,0.03,0.08,0.08,0.06,0.14c0.02,0.15,0.11,0.25,0.22,0.34l-0.01-0.01c0.07,0.07,0.12,0.15,0.16,0.24
		c0.66,1.13,1.32,2.25,1.98,3.38C471.88,257.56,471.24,256.83,470.52,256.8z"/>
	<path style="fill-rule:evenodd;clip-rule:evenodd;fill:#E6BF15;" d="M478.19,293.04c1.5-0.01,2.91-0.47,4.35-0.79
		c0.11,0.27-0.02,0.43-0.25,0.55c-0.32,0.12-0.91-0.26-0.93,0.37c-0.02,0.52,0.39,0.82,0.92,0.9c0.03,0,0.06,0.02,0.1,0.03
		c-0.02,0.03-0.05,0.06-0.07,0.09c-0.1,0.09-0.22,0.18-0.08,0.33c-0.35,0.46-0.18,1.36-1.11,1.34c-0.04-0.04-0.08-0.07-0.11-0.11
		c-0.01-0.05-0.02-0.1-0.03-0.15c-0.01-0.15-0.01-0.31-0.03-0.47c-0.27-1.02-0.78-1.71-1.97-1.58c-0.27,0.03-0.55-0.04-0.78-0.23
		C478.12,293.24,478.12,293.14,478.19,293.04z"/>
	<path style="fill-rule:evenodd;clip-rule:evenodd;fill:#BCBBC0;" d="M484.05,290.93c-0.85-0.71-1.23-1.57-0.84-2.67l0.02,0.01
		c0.18,0.12,0.39,0.12,0.58,0.18c1.11-0.31,0.94,0.67,1.11,1.18C485.18,290.35,484.83,290.82,484.05,290.93z"/>
	<path style="fill-rule:evenodd;clip-rule:evenodd;fill:#DBCFD2;" d="M471.01,259.19c1.48,0.92,1.32,2.52,1.27,3.84
		c-0.05,1.39,0.17,2.64,0.55,3.93c0.11,0.38,0.21,0.77-0.12,1.11c-0.06-0.05-0.08-0.12-0.05-0.19c-0.11-0.16-0.08-0.36-0.18-0.52
		c-0.03-0.12-0.06-0.24-0.09-0.37c-0.05-0.2-0.06-0.41-0.17-0.59c-0.06-0.06-0.07-0.13-0.04-0.21c-0.19-0.22-0.01-0.54-0.21-0.75
		c-0.06-0.05-0.07-0.11-0.04-0.18c-0.13-0.25-0.08-0.53-0.09-0.79c-0.15-1.57-0.66-3.06-0.91-4.61
		C470.9,259.62,470.82,259.4,471.01,259.19z"/>
	<path style="fill-rule:evenodd;clip-rule:evenodd;fill:#E16445;" d="M486.73,301.85c0.52,0.18,0.5,0.7,0.74,1.03
		c0.27,0.37-0.15,0.44-0.38,0.55c-0.39,0.19-0.78,0.38-1.19,0.55c-0.65,0.27-0.84-0.32-1.09-0.66c-0.43-0.57,0.27-0.51,0.48-0.65
		C485.74,302.35,486.25,302.12,486.73,301.85z"/>
	<path style="fill-rule:evenodd;clip-rule:evenodd;fill:#DC6243;" d="M486.38,299.42c-0.62,0.47-1.19,1.03-1.98,1.07
		c-0.71,0.04-0.4-0.84-0.81-1.12c0.63-0.39,1.23-0.85,1.91-1.09C485.63,298.23,486.06,299,486.38,299.42z"/>
	<path style="fill-rule:evenodd;clip-rule:evenodd;fill:#E47922;" d="M486.59,310.08c-0.68,0.33-0.57,0.65,0.01,0.96
		c0.06,0.22,0,0.33-0.25,0.26c-0.18-0.07-0.4-0.11-0.54-0.23c-0.48-0.41-1.51-0.51-0.95-1.53c0.61-1.12,1.16-0.11,1.73,0.09
		C486.74,309.78,486.74,309.93,486.59,310.08z"/>
	<path style="fill-rule:evenodd;clip-rule:evenodd;fill:#E17820;" d="M483.55,295.84c-0.28-0.23-0.92,0.32-0.83-0.3
		c0.08-0.52,0.37-1.31,1.01-1.29c0.49,0.02,0.95,0.57,1.43,0.88C484.7,295.57,484.18,295.87,483.55,295.84z"/>
	<path style="fill-rule:evenodd;clip-rule:evenodd;fill:#E7E0E2;" d="M471.01,259.19c0.29,1.77,0.98,3.47,0.95,5.29
		c-0.08,0.11-0.15,0.1-0.21-0.01c-0.34-1.5-0.68-3-1.02-4.5c-0.19-0.31,0.04-0.71-0.2-1.02c-0.05-0.05-0.07-0.12-0.04-0.19
		c-0.1-0.13-0.07-0.22,0.09-0.25C470.87,258.65,470.99,258.89,471.01,259.19z"/>
	<path style="fill-rule:evenodd;clip-rule:evenodd;fill:#D1583B;" d="M483.96,296.69c0.53,0.08,0.94-0.9,1.51-0.21
		c0.24,0.3,0.32,0.74-0.11,1.04c-0.29,0.2-0.57,0.4-0.86,0.6c-0.59-0.31-1.21-0.57-1.49-1.24c0.07-0.03,0.14-0.03,0.21-0.01
		C483.43,296.69,483.73,296.83,483.96,296.69z"/>
	<path style="fill-rule:evenodd;clip-rule:evenodd;fill:#322C27;" d="M483.71,291.86c0.1-0.22,0.28-0.28,0.5-0.26
		c0.3,0.28,0.77-0.04,1.06,0.31c0.22,0.43,0.68,0.8,0.37,1.38c-0.55,0.36-1.12,0.27-1.69,0.06
		C483.41,292.93,483.11,292.47,483.71,291.86z"/>
	<path style="fill-rule:evenodd;clip-rule:evenodd;fill:#D67624;" d="M491.16,310.09c0.11-1.11-0.09-1.97-1.48-1.93
		c0.08-0.46,0.23-0.88,0.82-0.7c0.58,0.17,1.12,0.46,1.16,1.16C491.71,309.16,491.67,309.72,491.16,310.09z"/>
	<path style="fill-rule:evenodd;clip-rule:evenodd;fill:#D25638;" d="M486.17,305.25c-0.28-0.01-0.62-0.05-0.51-0.25
		c0.41-0.74,1.26-0.84,1.95-1.14c0.35-0.15,0.64,0.25,0.52,0.41C487.63,304.91,486.75,304.86,486.17,305.25z"/>
	<path style="fill-rule:evenodd;clip-rule:evenodd;fill:#DCD4A4;" d="M483.71,291.86c-0.16,0.49-0.11,0.94,0.28,1.31
		c0.11,0.11,0.1,0.21-0.04,0.29c-0.64,0.01-1.37,0.23-1.67-0.65c0.08-0.18,0.17-0.37,0.25-0.55
		C482.93,292.12,483.32,291.99,483.71,291.86z"/>
	<path style="fill-rule:evenodd;clip-rule:evenodd;fill:#D1593C;" d="M485.16,300.98c0.44-0.16,0.69-0.84,1.28-0.51
		c0.17,0.09,0.35,0.45,0.3,0.61c-0.16,0.46-0.64,0.52-1.05,0.63c-0.09,0.05-0.19,0.11-0.28,0.17c-0.08,0.03-0.16,0.06-0.23,0.1
		c-0.28-0.13-0.51-0.32-0.74-0.51l0,0c-0.06-0.09-0.05-0.17,0.01-0.26l0,0C484.64,300.99,484.96,301.17,485.16,300.98z"/>
	<path style="fill-rule:evenodd;clip-rule:evenodd;fill:#D37223;" d="M489.48,308.62c0.15,0.56,0.02,0.86-0.6,0.57
		c-0.36-0.17-0.69-0.38-1.07-0.07c-0.16,0.14-0.31,0.14-0.46,0c-0.22-0.84,0.23-0.97,0.9-0.82
		C488.66,308.4,489,308.76,489.48,308.62z"/>
	<path style="fill-rule:evenodd;clip-rule:evenodd;fill:#B0452E;" d="M483,296.88c0.51,0.4,1.37,0.38,1.49,1.24
		c-0.29,0.29-0.95,0.53-1,0.39C483.3,297.99,482.79,297.53,483,296.88z"/>
	<path style="fill-rule:evenodd;clip-rule:evenodd;fill:#DAD8D8;" d="M477.3,263.99c-0.06-0.06-0.08-0.13-0.07-0.21
		c-0.06-0.08-0.12-0.17-0.16-0.26c-0.49-0.96-0.98-1.93-1.47-2.89c0.06-0.12,0.07-0.26,0.24-0.29c0.39,0.73,0.79,1.46,1.18,2.19
		c0.06,0.09,0.12,0.18,0.17,0.27c0.06,0.05,0.09,0.12,0.08,0.2c0.04,0.11,0.13,0.19,0.19,0.28c0.06,0.04,0.08,0.1,0.07,0.17
		c0.07,0.16,0.09,0.32,0.06,0.5c-0.04,0.04-0.08,0.08-0.12,0.12C477.4,264.04,477.35,264.02,477.3,263.99z"/>
	<path style="fill-rule:evenodd;clip-rule:evenodd;fill:#D34C24;" d="M487.01,290.58c0.86-0.55,1.2-0.26,1.06,0.69
		c-0.08,0.53,0.12,1.11-0.25,1.59c-0.21-0.09-0.32-0.27-0.41-0.46c-0.15-0.36-0.13-0.79-0.36-1.13
		C486.92,291.05,487.05,290.81,487.01,290.58z"/>
	<path style="fill-rule:evenodd;clip-rule:evenodd;fill:#DBB11E;" d="M487.01,290.58c0.23,0.11,0.2,0.26,0.08,0.43
		c-0.07,0.44-0.49,0.35-0.75,0.5c-0.24,0.09-0.49,0.18-0.73,0.27c-0.1,0.04-0.2,0.06-0.3,0.07c-0.05,0-0.1,0-0.15-0.01
		c-0.44,0.39-0.71,0.16-0.94-0.25C485.15,291.26,486.08,290.92,487.01,290.58z"/>
	<path style="fill-rule:evenodd;clip-rule:evenodd;fill:#DBD3A8;" d="M483.96,293.46c0.01-0.1,0.02-0.19,0.04-0.29
		c0.54,0.48,1.12-0.22,1.66,0.06c0.05,0.02,0.11,0.04,0.17,0.06c0.25,0.18,0.43,0.39,0.34,0.73c-0.09,0.08-0.2,0.1-0.31,0.06
		C485.11,294.19,484.53,293.85,483.96,293.46z"/>
	<path style="fill-rule:evenodd;clip-rule:evenodd;fill:#A0632F;" d="M488.32,311.32c1.11-0.06,1.97-0.68,2.85-1.24
		c-0.28,1.11-1.26,1.22-2.13,1.5C488.78,311.54,488.39,311.91,488.32,311.32z"/>
	<path style="fill-rule:evenodd;clip-rule:evenodd;fill:#AF5A28;" d="M478.19,293.04c0,0.09,0,0.18,0,0.27
		c-0.18,0.63,0.64,0.8,0.62,1.35c-0.01,0.11-0.05,0.21-0.13,0.29c-0.33-0.27-0.69-0.5-0.98-0.82
		C477.1,293.46,477.18,293.03,478.19,293.04z"/>
	<path style="fill-rule:evenodd;clip-rule:evenodd;fill:#DFBE0C;" d="M485.18,306.98c-0.56,0.37,0.65,1.26-0.44,1.48
		c-0.46,0.01-0.45-0.26-0.34-0.58c0.17-0.39,0.34-0.77,0.51-1.16C485.14,306.67,485.25,306.74,485.18,306.98z"/>
	<path style="fill-rule:evenodd;clip-rule:evenodd;fill:#A0822D;" d="M478.69,294.96c0-0.11,0.01-0.22,0.01-0.33
		c1-0.1,1.73,0.41,2.39,1.07c0.03,0.06,0.03,0.12,0.02,0.18c-0.83,0.06-1.52-0.3-2.18-0.73
		C478.83,295.1,478.75,295.03,478.69,294.96L478.69,294.96z"/>
	<path style="fill-rule:evenodd;clip-rule:evenodd;fill:#CDCACB;" d="M480.55,273.38c-0.07,0.16-0.14,0.33-0.21,0.49
		c-0.22-0.74-0.43-1.47-0.65-2.21c0.05-0.1,0.06-0.24,0.21-0.27c0.17,0.41,0.33,0.83,0.5,1.24
		C480.45,272.88,480.5,273.13,480.55,273.38z"/>
	<path style="fill-rule:evenodd;clip-rule:evenodd;fill:#714D2A;" d="M488.32,311.32c0.24,0.08,0.48,0.17,0.72,0.25
		c-0.94,0.38-1.81-0.01-2.69-0.27c0.08-0.09,0.17-0.18,0.25-0.26C487.17,311.13,487.75,311.22,488.32,311.32z"/>
	<path style="fill-rule:evenodd;clip-rule:evenodd;fill:#AD6A2D;" d="M487.35,309.12c0.15,0,0.31,0,0.46,0
		c0.16,1.04-0.53,1-1.22,0.95c0-0.15,0-0.3,0-0.44C486.96,309.63,487.36,309.67,487.35,309.12z"/>
	<path style="fill-rule:evenodd;clip-rule:evenodd;fill:#CFCDCD;" d="M479.58,270.98c-0.53-0.55-0.35-1.32-0.6-1.95
		c0.05-0.1,0.05-0.24,0.2-0.26c0.21,0.74,0.43,1.47,0.64,2.21C479.75,271.08,479.67,271.08,479.58,270.98z"/>
	<path style="fill-rule:evenodd;clip-rule:evenodd;fill:#B89622;" d="M489.25,305.71c-0.42-0.05-0.84-0.11-1.26-0.17
		c-0.04-0.01-0.05-0.13-0.08-0.2c0.63-0.11,1.24-0.05,1.84,0.15C489.65,305.71,489.4,305.59,489.25,305.71z"/>
	<path style="fill-rule:evenodd;clip-rule:evenodd;fill:#ECCA09;" d="M490.25,305.73c0.38,0.11,0.83,0.32,0.78,0.69
		c-0.04,0.31-0.52,0.03-0.79,0.1c-0.29,0.07-0.37-0.07-0.33-0.33c-0.01-0.05,0-0.09,0.01-0.14
		C489.89,305.79,489.95,305.64,490.25,305.73z"/>
	<path style="fill-rule:evenodd;clip-rule:evenodd;fill:#DABB20;" d="M485.84,294.08c0.12-0.04,0.24-0.09,0.36-0.14
		c0.23-0.34,0.56-0.49,0.96-0.52c0.17,0.06,0.3,0.13,0.17,0.34C486.93,294.31,486.54,294.9,485.84,294.08z"/>
	<path style="fill-rule:evenodd;clip-rule:evenodd;fill:#BFA115;" d="M486.89,307.98c-0.14,0.33-0.24,0.63-0.57,0.61
		c-0.22-0.02-0.42-0.18-0.63-0.28c0.29-0.18,0.58-0.38,0.89-0.53C486.63,307.74,486.78,307.91,486.89,307.98z"/>
	<path style="fill-rule:evenodd;clip-rule:evenodd;fill:#C9C6C7;" d="M469.05,255.89c-0.31-0.55-0.19-1.15-0.21-1.73
		c-0.04-0.06-0.07-0.13-0.04-0.17c0.07-0.11,0.16-0.07,0.25-0.03c0.08,0.55,0.16,1.1,0.24,1.65
		C469.21,255.71,469.2,255.86,469.05,255.89z"/>
	<path style="fill-rule:evenodd;clip-rule:evenodd;fill:#D1C7CB;" d="M478.7,270.92c-0.02,0.15,0,0.33-0.07,0.45
		c-0.12,0.19-0.17-0.01-0.19-0.09c-0.15-0.5-0.48-1-0.03-1.51C478.5,270.15,478.6,270.54,478.7,270.92z"/>
	<path style="fill-rule:evenodd;clip-rule:evenodd;fill:#A39FA4;" d="M470.07,252.68c-0.3,0.2-0.27,0.52-0.29,0.81
		c-0.07-0.22-0.2-0.44-0.21-0.67c-0.02-0.37-0.35-0.7-0.14-1.1C469.8,251.95,469.93,252.32,470.07,252.68z"/>
	<path style="fill-rule:evenodd;clip-rule:evenodd;fill:#E4C50C;" d="M489.22,307.16c-0.2,0.21-0.3,0.59-0.72,0.46
		c-0.23-0.07-0.31-0.25-0.27-0.45c0.09-0.39,0.42-0.24,0.67-0.28C489.15,306.82,489.25,306.91,489.22,307.16z"/>
	<path style="fill-rule:evenodd;clip-rule:evenodd;fill:#EFEEEF;" d="M469.32,256.56c0.34,0.6,0.22,1.27,0.3,1.91
		c-0.08,0.08-0.17,0.09-0.26,0.01c-0.08-0.64-0.15-1.28-0.23-1.91C469.19,256.45,469.26,256.45,469.32,256.56z"/>
	<path style="fill-rule:evenodd;clip-rule:evenodd;fill:#AE9FA5;" d="M477,279.12c0.25,0.45,0.52,0.9,0.24,1.44l0,0
		c-0.07-0.06-0.12-0.14-0.15-0.23c-0.11-0.32-0.22-0.65-0.33-0.97C476.84,279.28,476.92,279.2,477,279.12z"/>
	<path style="fill-rule:evenodd;clip-rule:evenodd;fill:#D08825;" d="M487.33,293.77c-0.07-0.08-0.14-0.17-0.21-0.25
		c-0.22-0.56,0.03-0.92,0.49-1.19c0.07,0.18,0.14,0.36,0.21,0.54C487.79,293.23,487.66,293.55,487.33,293.77z"/>
	<path style="fill-rule:evenodd;clip-rule:evenodd;fill:#8D8889;" d="M478.91,268.81c-0.37-0.39-0.13-0.9-0.24-1.33
		c-0.09-0.14-0.08-0.27,0.04-0.39c0.14,0.42,0.29,0.84,0.43,1.26C478.99,268.47,479.1,268.71,478.91,268.81z"/>
	<path style="fill-rule:evenodd;clip-rule:evenodd;fill:#524C4E;" d="M469.04,253.96c-0.07,0.07-0.14,0.13-0.21,0.2
		c-0.23-0.33-0.46-0.79-0.04-0.97C469.03,253.1,469.1,253.64,469.04,253.96z"/>
	<path style="fill-rule:evenodd;clip-rule:evenodd;fill:#701F59;" d="M488.72,306.22c-0.16,0.08-0.32,0.19-0.49,0.22
		c-0.24,0.06-0.52,0.02-0.5-0.28c0.02-0.25,0.3-0.14,0.47-0.15C488.37,306.01,488.57,305.9,488.72,306.22z"/>
	<path style="fill-rule:evenodd;clip-rule:evenodd;fill:#B2472F;" d="M484.43,301.45c0.38-0.03,0.72,0.01,0.74,0.51
		C484.44,302.48,484.59,301.74,484.43,301.45z"/>
	<path style="fill-rule:evenodd;clip-rule:evenodd;fill:#E6E4E5;" d="M475.83,260.34c-0.08,0.1-0.16,0.2-0.24,0.29
		c-0.18-0.31-0.35-0.62-0.53-0.94c-0.11-0.26,0.02-0.3,0.24-0.25C475.48,259.74,475.66,260.04,475.83,260.34z"/>
	<path style="fill-rule:evenodd;clip-rule:evenodd;fill:#BE9C1A;" d="M489.22,307.16c-0.1-0.09-0.21-0.18-0.31-0.26
		c0.34-0.24,0.67-0.48,1.01-0.71c0.11,0.11,0.22,0.22,0.33,0.33C489.9,306.73,489.56,306.95,489.22,307.16z"/>
	<path style="fill-rule:evenodd;clip-rule:evenodd;fill:#878082;" d="M478.19,266.41c-0.14-0.33-0.28-0.66-0.42-0.99
		c0.07-0.1,0.08-0.24,0.23-0.26c0.14,0.34,0.27,0.68,0.41,1.03C478.36,266.29,478.29,266.36,478.19,266.41z"/>
	<path style="fill-rule:evenodd;clip-rule:evenodd;fill:#D0CECF;" d="M470.02,260.41c-0.08,0.18-0.16,0.35-0.25,0.53
		c-0.23-0.31-0.22-0.66-0.18-1.02c0.08-0.09,0.09-0.23,0.23-0.26C469.88,259.9,469.95,260.15,470.02,260.41z"/>
	<path style="fill-rule:evenodd;clip-rule:evenodd;fill:#C7C3C4;" d="M475.31,259.44c-0.08,0.08-0.16,0.17-0.24,0.25
		c-0.16-0.24-0.32-0.48-0.48-0.72c-0.1-0.26,0.02-0.31,0.25-0.26C475,258.96,475.15,259.2,475.31,259.44z"/>
	<path style="fill-rule:evenodd;clip-rule:evenodd;fill:#B09318;" d="M485.18,306.98c-0.09-0.09-0.17-0.17-0.26-0.26
		c0.12-0.3,0.47-0.65,0.64-0.48C485.9,306.6,485.32,306.73,485.18,306.98z"/>
	<path style="fill-rule:evenodd;clip-rule:evenodd;fill:#C0BCBC;" d="M474.84,258.72c-0.08,0.09-0.17,0.17-0.25,0.26
		c-0.21-0.25-0.47-0.47-0.47-0.84c-0.03-0.1-0.07-0.2-0.11-0.29c0.04-0.03,0.08-0.07,0.12-0.1
		C474.37,258.07,474.6,258.39,474.84,258.72z"/>
	<path style="fill-rule:evenodd;clip-rule:evenodd;fill:#6A2555;" d="M486.87,306.38c0.35-0.02,0.4,0.23,0.47,0.45
		c0.03,0.08-0.02,0.19-0.04,0.28c-0.21-0.16-0.42-0.33-0.63-0.49C486.74,306.53,486.81,306.45,486.87,306.38z"/>
	<path style="fill-rule:evenodd;clip-rule:evenodd;fill:#D0CECF;" d="M469.36,258.47c0.09,0,0.17,0,0.26-0.01
		c0.04,0.17,0.09,0.34,0.14,0.51c-0.12,0.15-0.01,0.39-0.21,0.5C469.48,259.14,469.42,258.81,469.36,258.47z"/>
	<path style="fill-rule:evenodd;clip-rule:evenodd;fill:#9F811F;" d="M484.4,307.88c0.06,0.22,0.06,0.48,0.34,0.58
		c-0.12,0.17-0.33,0.35-0.47,0.19C484.08,308.41,484.25,308.12,484.4,307.88z"/>
	<path style="fill-rule:evenodd;clip-rule:evenodd;fill:#C6A51C;" d="M490.25,305.73c-0.11,0.11-0.22,0.21-0.33,0.32
		c-0.22-0.11-0.45-0.22-0.67-0.33c0.17-0.07,0.34-0.14,0.5-0.22C489.92,305.57,490.09,305.65,490.25,305.73z"/>
	<path style="fill-rule:evenodd;clip-rule:evenodd;fill:#B3AFB0;" d="M478,265.16c-0.08,0.09-0.15,0.17-0.23,0.26
		c-0.08-0.24-0.15-0.48-0.23-0.72c0.03-0.11,0.1-0.2,0.21-0.25C477.83,264.68,477.91,264.92,478,265.16z"/>
	<path style="fill-rule:evenodd;clip-rule:evenodd;fill:#A6A1A2;" d="M478.7,267.09c-0.01,0.13-0.02,0.26-0.04,0.39
		c-0.13-0.28-0.26-0.57-0.4-0.85c0.08-0.1,0.16-0.1,0.24,0C478.57,266.78,478.63,266.93,478.7,267.09z"/>
	<path style="fill-rule:evenodd;clip-rule:evenodd;fill:#B0ABAC;" d="M473.84,257.77c-0.13-0.17-0.26-0.34-0.39-0.5
		c0.1-0.09,0.2-0.09,0.3,0.01c0.13,0.16,0.26,0.31,0.39,0.47c-0.02,0.04-0.04,0.07-0.07,0.1
		C473.98,257.83,473.91,257.81,473.84,257.77z"/>
	<path style="fill-rule:evenodd;clip-rule:evenodd;fill:#F0EFEF;" d="M469.32,256.56h-0.1h-0.1c-0.03-0.22-0.05-0.45-0.08-0.67
		c0.08-0.09,0.16-0.18,0.24-0.28C469.3,255.93,469.31,256.24,469.32,256.56z"/>
	<path style="fill-rule:evenodd;clip-rule:evenodd;fill:#F9F7F8;" d="M469.54,259.48c0.07-0.17,0.14-0.33,0.21-0.5
		c0.02,0.22,0.04,0.45,0.07,0.67c-0.08,0.09-0.16,0.17-0.23,0.26C469.57,259.77,469.55,259.62,469.54,259.48z"/>
	<path style="fill-rule:evenodd;clip-rule:evenodd;fill:#D0C3C6;" d="M470.53,258.96c0.32,0.29,0.24,0.66,0.2,1.02
		C470.66,259.64,470.6,259.3,470.53,258.96z"/>
	<path style="fill-rule:evenodd;clip-rule:evenodd;fill:#AE9FA5;" d="M482,284.39c-0.24-0.2-0.21-0.46-0.19-0.73
		C481.87,283.91,481.93,284.15,482,284.39z"/>
	<path style="fill-rule:evenodd;clip-rule:evenodd;fill:#AE9FA5;" d="M481.52,282.48c-0.24-0.2-0.22-0.47-0.19-0.74
		C481.39,281.98,481.46,282.23,481.52,282.48z"/>
	<path style="fill-rule:evenodd;clip-rule:evenodd;fill:#EDECEC;" d="M479.58,270.98c0.08,0,0.17,0,0.25-0.01
		c0.03,0.14,0.05,0.28,0.08,0.42c-0.07,0.09-0.14,0.18-0.21,0.27C479.66,271.43,479.62,271.2,479.58,270.98z"/>
	<path style="fill-rule:evenodd;clip-rule:evenodd;fill:#B2472F;" d="M485.16,300.98c-0.19,0.26-0.45,0.25-0.72,0.22
		C484.68,301.12,484.92,301.05,485.16,300.98z"/>
	<path style="fill-rule:evenodd;clip-rule:evenodd;fill:#D0C3C6;" d="M471.98,265.44c0.27,0.2,0.23,0.48,0.21,0.75
		C472.12,265.94,472.05,265.69,471.98,265.44z"/>
	<path style="fill-rule:evenodd;clip-rule:evenodd;fill:#D0C3C6;" d="M471.75,264.48c0.07,0,0.14,0.01,0.21,0.01
		c-0.01,0.26-0.02,0.52-0.02,0.77C471.87,265,471.81,264.74,471.75,264.48z"/>
	<path style="fill-rule:evenodd;clip-rule:evenodd;fill:#B0452E;" d="M483.96,296.69c-0.2,0.25-0.47,0.23-0.74,0.18
		C483.46,296.81,483.71,296.75,483.96,296.69z"/>
	<path style="fill-rule:evenodd;clip-rule:evenodd;fill:#EFEEEE;" d="M477.74,264.45c-0.07,0.08-0.14,0.16-0.21,0.25
		c-0.03-0.13-0.06-0.27-0.09-0.4c-0.06-0.11-0.05-0.2,0.04-0.29l0,0c0.07-0.12,0.14-0.12,0.2,0
		C477.71,264.15,477.73,264.3,477.74,264.45z"/>
	<path style="fill-rule:evenodd;clip-rule:evenodd;fill:#BFB1B5;" d="M470.58,258.52c-0.03,0.08-0.06,0.17-0.09,0.25
		c-0.21-0.22-0.2-0.49-0.16-0.77C470.41,258.17,470.5,258.35,470.58,258.52z"/>
	<path style="fill-rule:evenodd;clip-rule:evenodd;fill:#C7C4C5;" d="M473.16,256.53c0.29,0.05,0.34,0.31,0.43,0.52
		c-0.09,0.08-0.18,0.08-0.28,0c-0.06-0.08-0.12-0.15-0.17-0.23C473.06,256.72,473.07,256.62,473.16,256.53z"/>
	<path style="fill-rule:evenodd;clip-rule:evenodd;fill:#A39FA4;" d="M469.84,253.93c0.26,0.23,0.19,0.53,0.17,0.82
		C469.95,254.47,469.89,254.2,469.84,253.93z"/>
	<path style="fill-rule:evenodd;clip-rule:evenodd;fill:#F2F1F1;" d="M478.91,268.81c0.08-0.16,0.15-0.31,0.23-0.47
		c0.02,0.14,0.04,0.28,0.06,0.41c-0.07,0.09-0.14,0.18-0.2,0.26C478.93,268.96,478.91,268.89,478.91,268.81z"/>
	<path style="fill-rule:evenodd;clip-rule:evenodd;fill:#AE9FA5;" d="M476.3,278.16c0.07,0.17,0.14,0.34,0.2,0.51
		C476.44,278.5,476.37,278.33,476.3,278.16z"/>
	<path style="fill-rule:evenodd;clip-rule:evenodd;fill:#B3B1B6;" d="M483.82,288.45c-0.23,0.04-0.43,0.02-0.58-0.18
		C483.43,288.32,483.62,288.39,483.82,288.45z"/>
	<path style="fill-rule:evenodd;clip-rule:evenodd;fill:#AE9FA5;" d="M481.76,283.44c-0.05-0.19-0.11-0.38-0.16-0.58
		C481.65,283.05,481.71,283.24,481.76,283.44z"/>
	<path style="fill-rule:evenodd;clip-rule:evenodd;fill:#D0C3C6;" d="M472.48,267.36c0.06,0.17,0.12,0.35,0.18,0.52
		C472.6,267.71,472.54,267.54,472.48,267.36z"/>
	<path style="fill-rule:evenodd;clip-rule:evenodd;fill:#6C3317;" d="M482.17,293.38c0.02,0.06,0.05,0.12,0.05,0.18
		c0,0.02-0.05,0.04-0.07,0.06c-0.02-0.06-0.05-0.12-0.06-0.18C482.08,293.43,482.14,293.41,482.17,293.38z"/>
	<path style="fill-rule:evenodd;clip-rule:evenodd;fill:#FEF58B;" d="M482.22,294.54c-0.08-0.07-0.16-0.14-0.24-0.21
		c0.11-0.04,0.21-0.08,0.32-0.12C482.27,294.32,482.25,294.43,482.22,294.54z"/>
	<path style="fill-rule:evenodd;clip-rule:evenodd;fill:#C8C5C7;" d="M478.5,266.63l-0.12-0.02l-0.12,0.02
		c-0.05-0.06-0.07-0.13-0.08-0.21c0.07-0.08,0.14-0.15,0.21-0.23C478.44,266.33,478.47,266.48,478.5,266.63z"/>
	<path style="fill-rule:evenodd;clip-rule:evenodd;fill:#AE9FA5;" d="M481.26,281.27c-0.05-0.18-0.1-0.37-0.15-0.55
		C481.16,280.9,481.21,281.09,481.26,281.27z"/>
	<path style="fill-rule:evenodd;clip-rule:evenodd;fill:#AE9FA5;" d="M481.05,280.32c-0.06-0.19-0.11-0.37-0.17-0.56
		C480.93,279.95,480.99,280.13,481.05,280.32z"/>
	<path style="fill-rule:evenodd;clip-rule:evenodd;fill:#D0C3C6;" d="M472.23,266.4c0.06,0.2,0.11,0.4,0.17,0.59
		C472.34,266.8,472.29,266.6,472.23,266.4z"/>
	<path style="fill-rule:evenodd;clip-rule:evenodd;fill:#C9C7C7;" d="M477.69,264.01l-0.1-0.01l-0.1,0.01
		c0.01-0.19,0.02-0.37,0.03-0.56C477.57,263.64,477.63,263.82,477.69,264.01z"/>
	<path style="fill-rule:evenodd;clip-rule:evenodd;fill:#FEFEFE;" d="M490.04,312.3c-0.04,0.05-0.07,0.13-0.12,0.14
		c-0.06,0.01-0.12-0.04-0.18-0.06c0.03-0.05,0.06-0.14,0.09-0.14C489.9,312.22,489.97,312.27,490.04,312.3z"/>
	<path style="fill-rule:evenodd;clip-rule:evenodd;fill:#958F90;" d="M473.16,256.53c-0.01,0.1-0.01,0.2-0.02,0.3
		c-0.07-0.14-0.29-0.25-0.1-0.45C473.08,256.43,473.12,256.48,473.16,256.53z"/>
	<path style="fill-rule:evenodd;clip-rule:evenodd;fill:#AE9FA5;" d="M476.56,278.88c0.07,0.16,0.13,0.31,0.2,0.47
		C476.69,279.2,476.63,279.04,476.56,278.88z"/>
	<path style="fill-rule:evenodd;clip-rule:evenodd;fill:#C9C7C7;" d="M477.07,263.52c0.05,0.09,0.11,0.18,0.16,0.26
		C477.18,263.7,477.12,263.61,477.07,263.52z"/>
	<path style="fill-rule:evenodd;clip-rule:evenodd;fill:#C9C7C7;" d="M477.45,263.28c-0.06-0.09-0.13-0.19-0.19-0.28
		C477.32,263.09,477.38,263.18,477.45,263.28z"/>
	<path style="fill-rule:evenodd;clip-rule:evenodd;fill:#C9C7C7;" d="M477.18,262.8c-0.06-0.09-0.11-0.18-0.17-0.27
		C477.07,262.62,477.12,262.71,477.18,262.8z"/>
	<path style="fill-rule:evenodd;clip-rule:evenodd;fill:#AF5A28;" d="M478.68,294.95c0.08,0.06,0.16,0.13,0.24,0.19
		C478.84,295.08,478.76,295.02,478.68,294.95z"/>
	<path style="fill-rule:evenodd;clip-rule:evenodd;fill:#FDFCFC;" d="M473.84,257.77c0.08,0.03,0.15,0.05,0.23,0.08
		c0.02,0.1,0.04,0.19,0.06,0.29C474.03,258.01,473.93,257.89,473.84,257.77z"/>
	<path style="fill-rule:evenodd;clip-rule:evenodd;fill:#F4F4F4;" d="M473.32,257.05c0.09,0,0.18,0,0.28,0
		c0.05,0.07,0.1,0.15,0.15,0.22c-0.1,0-0.2-0.01-0.3-0.01C473.4,257.19,473.36,257.12,473.32,257.05z"/>
	<path style="fill-rule:evenodd;clip-rule:evenodd;fill:#BFB1B5;" d="M475.12,275.04c0.06,0.11,0.11,0.21,0.17,0.32
		C475.23,275.25,475.17,275.15,475.12,275.04z"/>
	<path style="fill-rule:evenodd;clip-rule:evenodd;fill:#AE9FA5;" d="M476.09,277.67c0.06,0,0.13,0,0.19,0
		c-0.01,0.1-0.02,0.2-0.02,0.3C476.2,277.88,476.14,277.77,476.09,277.67z"/>
	<path style="fill-rule:evenodd;clip-rule:evenodd;fill:#A6989F;" d="M477.09,280.33c0.05,0.08,0.1,0.15,0.15,0.23
		C477.19,280.48,477.14,280.41,477.09,280.33z"/>
	<path style="fill-rule:evenodd;clip-rule:evenodd;fill:#A39FA4;" d="M470.69,253.67c-0.05-0.08-0.11-0.16-0.16-0.24
		C470.58,253.51,470.63,253.59,470.69,253.67z"/>
	<path style="fill-rule:evenodd;clip-rule:evenodd;fill:#A39FA4;" d="M470.53,253.44c-0.07-0.11-0.15-0.23-0.22-0.34
		C470.38,253.21,470.46,253.32,470.53,253.44z"/>
	<path style="fill-rule:evenodd;clip-rule:evenodd;fill:#C9C7C7;" d="M477.49,264c-0.01,0.1-0.03,0.19-0.04,0.29
		c-0.05-0.1-0.1-0.2-0.15-0.3C477.36,263.99,477.42,264,477.49,264z"/>
	<path style="fill-rule:evenodd;clip-rule:evenodd;fill:#B2472F;" d="M485.4,301.87c0.09-0.05,0.19-0.11,0.28-0.17
		C485.59,301.76,485.49,301.81,485.4,301.87z"/>
	<path style="fill-rule:evenodd;clip-rule:evenodd;fill:#A39FA4;" d="M470.25,252.96c-0.06-0.09-0.12-0.19-0.19-0.28
		C470.13,252.77,470.19,252.86,470.25,252.96z"/>
	<path style="fill-rule:evenodd;clip-rule:evenodd;fill:#BFB1B5;" d="M475.38,275.76c0.05,0.1,0.1,0.2,0.15,0.3
		C475.48,275.96,475.43,275.86,475.38,275.76z"/>
	<path style="fill-rule:evenodd;clip-rule:evenodd;fill:#B2472F;" d="M484.44,301.19c0,0.09-0.01,0.17-0.01,0.26
		C484.26,301.36,484.14,301.27,484.44,301.19z"/>
	<path style="fill-rule:evenodd;clip-rule:evenodd;fill:#A43B7F;" d="M488.12,311.03c-0.31-0.03-0.81,0.05-0.81-0.29
		c0-0.36,0.52-0.09,0.75-0.22c0.61-0.35,1.2-0.73,1.8-1.09c0.13-0.08,0.27-0.14,0.41-0.21c0.02,0.18,0.1,0.38,0.05,0.55
		C489.99,310.87,489.04,310.92,488.12,311.03z"/>
	<path style="fill-rule:evenodd;clip-rule:evenodd;fill:#2F2925;" d="M481.09,295.69c-0.8-0.36-1.59-0.71-2.39-1.07
		c-0.15-0.45-1.23-0.53-0.51-1.32c2.46-0.03,2.77,0.18,3.09,2.09C481.25,295.52,481.16,295.59,481.09,295.69L481.09,295.69z"/>
	<path style="fill-rule:evenodd;clip-rule:evenodd;fill:#A0822D;" d="M481.09,295.68c0.06-0.1,0.13-0.19,0.19-0.29
		C481.22,295.49,481.16,295.59,481.09,295.68z"/>
	<path style="fill-rule:evenodd;clip-rule:evenodd;fill:#231A0D;" d="M485.41,291.62c0.23-0.09,0.47-0.18,0.7-0.27
		c0.37,0.02,1.02-0.58,0.92,0.43c-0.23,0.3-0.58,0.34-0.92,0.41c-0.1,0-0.21,0.01-0.32,0.01c0.1,0.04,0.18,0.1,0.24,0.2
		c0.04,0.1,0.07,0.21,0.08,0.32c-0.05,0.26-0.01,0.59-0.44,0.54l-0.02-0.02c-0.05-0.5-0.6-0.83-0.5-1.39l0.01-0.01
		C485.24,291.76,485.32,291.69,485.41,291.62z"/>
	<path style="fill-rule:evenodd;clip-rule:evenodd;fill:#DF6C22;" d="M484.38,292.35c0.1,0.15,0.15,0.24,0.21,0.33
		c-0.09,0.04-0.17,0.09-0.26,0.1c-0.03,0-0.11-0.11-0.1-0.17C484.23,292.54,484.3,292.47,484.38,292.35z"/>
	<path style="fill-rule:evenodd;clip-rule:evenodd;fill:#322C27;" d="M486.83,291.84c0.26-0.91-0.5-0.3-0.72-0.49
		c0.33-0.11,0.66-0.22,0.99-0.34c0.62,0.26,0.41,0.84,0.52,1.31c-0.16,0.4-0.33,0.8-0.49,1.19c-0.26,0.24-0.51,0.5-0.92,0.44
		c-0.18-0.23-0.36-0.46-0.53-0.69c0.07-0.25,0.15-0.49,0.22-0.74C486.42,292.59,486.59,292.17,486.83,291.84z"/>
	<path style="fill-rule:evenodd;clip-rule:evenodd;fill:#322C27;" d="M485.41,291.62c-0.08,0.07-0.16,0.14-0.24,0.22
		C485.24,291.76,485.32,291.69,485.41,291.62z"/>
	<path style="fill-rule:evenodd;clip-rule:evenodd;fill:#C76E2A;" d="M480.29,294.43c0.02,0.18-0.05,0.32-0.24,0.29
		c-0.44-0.06-0.84-0.25-1.04-0.65c-0.1-0.21,0.17-0.3,0.38-0.29C479.82,293.81,480.1,294.07,480.29,294.43z"/>
	<path style="fill-rule:evenodd;clip-rule:evenodd;fill:#D57326;" d="M486.83,291.84c0.06,0.47,0.15,1.02-0.32,1.26
		c-0.34,0.17-0.38-0.4-0.62-0.57c0.01-0.07-0.01-0.13-0.05-0.19c-0.05-0.09-0.05-0.18,0.02-0.25
		C486.13,291.77,486.49,291.84,486.83,291.84z"/>
	<path style="fill-rule:evenodd;clip-rule:evenodd;fill:#322C27;" d="M485.87,292.08c-0.01,0.08-0.02,0.17-0.02,0.25
		c-0.02-0.06-0.05-0.12-0.07-0.19C485.78,292.13,485.84,292.1,485.87,292.08z"/>
</g>
</svg>
