<?xml version="1.0" encoding="utf-8"?>
<!-- Generator: Adobe Illustrator 16.0.0, SVG Export Plug-In . SVG Version: 6.00 Build 0)  -->
<!DOCTYPE svg PUBLIC "-//W3C//DTD SVG 1.0//EN" "http://www.w3.org/TR/2001/REC-SVG-20010904/DTD/svg10.dtd" [
	<!ENTITY ns_flows "http://ns.adobe.com/Flows/1.0/">
	<!ENTITY ns_extend "http://ns.adobe.com/Extensibility/1.0/">
	<!ENTITY ns_ai "http://ns.adobe.com/AdobeIllustrator/10.0/">
	<!ENTITY ns_graphs "http://ns.adobe.com/Graphs/1.0/">
]>
<svg version="1.0" id="Layer_1" xmlns:x="&ns_extend;" xmlns:i="&ns_ai;" xmlns:graph="&ns_graphs;"
	 xmlns="http://www.w3.org/2000/svg" xmlns:xlink="http://www.w3.org/1999/xlink" xmlns:a="http://ns.adobe.com/AdobeSVGViewerExtensions/3.0/"
	 x="0px" y="0px" width="960px" height="560px" viewBox="0 0 960 560" style="enable-background:new 0 0 960 560;"
	 xml:space="preserve">
<g>
	<path style="fill-rule:evenodd;clip-rule:evenodd;fill:#010000;" d="M453.78,286.5c0.36-5.94-1.35-11.58-2.53-17.29
		c-0.84-4.02-1.55-8.05-1.78-12.16c-0.08-1.32,0.53-1.82,1.86-1.33c4.39,1.63,8.91,2.71,13.57,3.12c3.34,0.3,6.7,0.27,10.06,0.05
		c11.31-0.72,22.44-3.15,33.8-3.45c1.8-0.05,2.1,0.29,2.03,2.15c-0.28,6.91-1.74,13.67-2.62,20.5c-0.95,7.33-0.72,14.55,2.03,21.55
		c0.3,0.76,1.01,1.68,0.16,2.41c-0.79,0.68-1.59-0.1-2.29-0.45c-7.31-3.61-15.04-4.39-23.06-3.8c-7.29,0.54-14.38,2.24-21.58,3.32
		c-4.11,0.62-8.23,1.01-12.38,1.24c-1.37,0.07-1.87-0.7-1.15-1.88c2.03-3.33,3-7,3.72-10.76
		C453.81,288.68,453.74,287.58,453.78,286.5z"/>
	<path style="fill-rule:evenodd;clip-rule:evenodd;fill:#ED3332;" d="M509.79,257.31c-0.17,7.2-1.71,13.96-2.59,20.8
		c-0.95,7.34-0.71,14.57,2.02,21.57c0.18,0.46,0.66,1.08,0.31,1.42c-0.36,0.35-0.92-0.21-1.35-0.43c-7.31-3.58-15.06-4.41-23.07-3.8
		c-8.94,0.68-17.62,2.99-26.5,4c-2.5,0.28-5.02,0.4-7.53,0.57c-1.03,0.07-0.4-0.53-0.24-0.78c1.9-3.16,2.93-6.64,3.55-10.23
		c0.61-3.56,0.54-7.18-0.11-10.73c-1.03-5.64-2.26-11.25-3.31-16.89c-0.35-1.92-0.39-3.89-0.58-5.84c-0.08-0.86,0.51-0.4,0.75-0.33
		c2.52,0.72,4.95,1.76,7.54,2.26c6.56,1.27,13.17,1.39,19.8,0.65c8.01-0.9,16.01-1.92,24.03-2.81c2.18-0.24,4.39-0.21,6.58-0.36
		C510.22,256.31,509.75,257.07,509.79,257.31z"/>
	<path style="fill-rule:evenodd;clip-rule:evenodd;fill:#F9EE1A;" d="M464.04,272.92c-0.25-0.19-0.51-0.39-0.76-0.58
		c-1.88-1.42-1.87-1.41-3.71,0.08c-0.23,0.19-0.44,0.49-0.8,0.41c-0.05-0.01-0.09-0.3-0.05-0.42c1.04-2.71-0.47-4.31-2.47-5.7
		c-0.2-0.14-0.49-0.28-0.46-0.62c0.23,0.04,0.46,0.07,0.7,0.11c0.04,0.01,0.08,0.01,0.12,0.02c2.69,0.55,2.68,0.55,3.43-2.04
		c0.08-0.27,0.02-0.74,0.44-0.73c0.14,0,0.27,0.43,0.4,0.67c0.04,0.07,0.06,0.15,0.08,0.23c0.41,2.08,1.68,2.98,3.78,2.84
		c0.35-0.02,0.83-0.19,1.06,0.23c0.03,0.06-0.48,0.44-0.77,0.63c-1.84,1.26-1.84,1.26-0.71,4.36c0.03,0.11,0.11,0.2,0.16,0.3
		c0.03,0.07,0.05,0.13,0.07,0.2c0.06,0.23-0.01,0.32-0.25,0.22l-0.01,0C464.2,273.07,464.12,273,464.04,272.92z"/>
	<path style="fill-rule:evenodd;clip-rule:evenodd;fill:#F8D91E;" d="M475.57,267.43c0.13,0.44-0.18,0.29-0.29,0.38
		c-1.08,0.85-1.75-0.26-2.59-0.51c0.62-0.31,0.81-0.9,0.97-1.5c0.48,0.56,1.16,0.21,1.73,0.37
		C475.2,266.66,474.89,267.17,475.57,267.43z"/>
	<path style="fill-rule:evenodd;clip-rule:evenodd;fill:#F8DA1E;" d="M471.69,263.71c-0.78-0.14-0.79,0.69-1.19,1.11
		c-0.29-0.86-1.16-0.42-1.69-0.75c0.78-0.34-0.05-1.36,0.48-1.52C470.32,262.23,471.26,262.55,471.69,263.71z"/>
	<path style="fill-rule:evenodd;clip-rule:evenodd;fill:#F9E01D;" d="M473.85,273.48c-1.3-1.06,0.29-1.5,0.56-2.28
		c0.15,0.79,0.94,0.85,1.42,1.27c-0.81,0.27,0,1.2-0.56,1.44c-0.2,0.09-0.61-0.43-1.02-0.03
		C473.65,274.46,473.65,274.11,473.85,273.48z"/>
	<path style="fill-rule:evenodd;clip-rule:evenodd;fill:#F9E21C;" d="M470.03,277.23c0.06-0.1,0.2-0.26,0.17-0.3
		c-0.87-1.33,0.71-1.01,1.05-1.52c0.22-0.33,0.25,0.09,0.27,0.23c0.04,0.27,0.03,0.53,0.26,0.76c0.16,0.17,0.68,0.65,0.42,0.53
		c-1.01-0.46,0.16,2.44-1.26,0.74c-0.26-0.31-0.59,0.06-0.89,0.06c-0.23,0.06-0.32,0-0.21-0.24l-0.01,0
		C469.88,277.4,469.95,277.32,470.03,277.23z"/>
	<path style="fill-rule:evenodd;clip-rule:evenodd;fill:#F5972D;" d="M464.31,273.12c0.08-0.07,0.17-0.15,0.25-0.22
		c0.14,0.1,0.24,0.25,0.09,0.38C464.49,273.41,464.38,273.28,464.31,273.12z"/>
	<path style="fill-rule:evenodd;clip-rule:evenodd;fill:#F3772F;" d="M469.83,277.5c0.07,0.08,0.14,0.16,0.21,0.24
		c-0.12,0.03-0.31,0.12-0.34,0.07C469.57,277.67,469.68,277.56,469.83,277.5z"/>
	<path style="fill-rule:evenodd;clip-rule:evenodd;fill:#F5972D;" d="M464.49,272.7c-0.05-0.1-0.11-0.2-0.16-0.3
		C464.38,272.5,464.43,272.6,464.49,272.7z"/>
	<path style="fill-rule:evenodd;clip-rule:evenodd;fill:#F5972D;" d="M464.04,272.92c0.09,0.07,0.17,0.14,0.26,0.21
		C464.22,273.05,464.13,272.99,464.04,272.92z"/>
	<path style="fill-rule:evenodd;clip-rule:evenodd;fill:#F3772F;" d="M470.03,277.23c-0.07,0.09-0.13,0.18-0.2,0.27
		C469.89,277.41,469.96,277.32,470.03,277.23z"/>
</g>
</svg>
