<?xml version="1.0" encoding="utf-8"?>
<!-- Generator: Adobe Illustrator 16.0.0, SVG Export Plug-In . SVG Version: 6.00 Build 0)  -->
<!DOCTYPE svg PUBLIC "-//W3C//DTD SVG 1.0//EN" "http://www.w3.org/TR/2001/REC-SVG-20010904/DTD/svg10.dtd" [
	<!ENTITY ns_flows "http://ns.adobe.com/Flows/1.0/">
	<!ENTITY ns_extend "http://ns.adobe.com/Extensibility/1.0/">
	<!ENTITY ns_ai "http://ns.adobe.com/AdobeIllustrator/10.0/">
	<!ENTITY ns_graphs "http://ns.adobe.com/Graphs/1.0/">
]>
<svg version="1.0" id="Layer_1" xmlns:x="&ns_extend;" xmlns:i="&ns_ai;" xmlns:graph="&ns_graphs;"
	 xmlns="http://www.w3.org/2000/svg" xmlns:xlink="http://www.w3.org/1999/xlink" xmlns:a="http://ns.adobe.com/AdobeSVGViewerExtensions/3.0/"
	 x="0px" y="0px" width="960px" height="560px" viewBox="0 0 960 560" style="enable-background:new 0 0 960 560;"
	 xml:space="preserve">
<g>
	<path style="fill-rule:evenodd;clip-rule:evenodd;" d="M468.17,298.17c-3.18,0.02-8.45,1-13.61,2.62
		c-1.77,0.56-2.28,0.04-1.84-1.79c1.3-5.42,1.99-10.91,1.83-16.48c-0.13-4.52-1.04-8.95-1.51-13.43c-0.24-2.34-0.4-4.69-0.57-7.04
		c-0.08-1.1,0.48-1.61,1.58-1.57c6.95,0.26,13.78,1.49,20.6,2.73c6.03,1.09,12.09,1.86,18.19,1.25c4.02-0.41,7.99-1.35,11.59-3.42
		c1.57-0.9,2.25-0.41,2.17,1.44c-0.24,5.14-1.13,10.2-1.78,15.3c-0.58,4.52-0.57,9.07,0.02,13.61c0.35,2.76,0.94,5.47,1.59,8.17
		c0.3,1.24-0.3,1.65-1.35,1.6c-3.59-0.18-7.17-0.39-10.75-0.79C486.37,299.46,478.47,297.93,468.17,298.17z"/>
	<path style="fill-rule:evenodd;clip-rule:evenodd;fill:#F9EF1A;" d="M504.84,270.86c-0.94,5.68-1.58,11.39-1.36,17.16
		c-0.41,0.44-0.98,0.5-1.53,0.6c-3.43,0.62-6.92,1-10.36,0.87c-4.26-0.15-8.53-0.02-12.79-0.28c-5.37-0.33-10.73-0.85-16.12-0.83
		c-1.99,0.01-3.98-0.27-5.97-0.23c-0.43,0.01-0.89-0.02-1.19-0.42c0.28-5.88-0.55-11.67-1.36-17.46c0.38-0.42,0.86-0.33,1.34-0.3
		c7.17,0.58,14.33,1.23,21.49,1.84c3.42,0.29,6.85,0.44,10.29,0.46c5.31,0.02,10.52-0.59,15.67-1.86c0.65-0.16,1.31-0.45,1.96,0.01
		c-0.02,0.14-0.05,0.29-0.07,0.43L504.84,270.86z"/>
	<path style="fill-rule:evenodd;clip-rule:evenodd;fill:#ED2F2E;" d="M455.51,287.72c11.79,0.15,23.53,1.38,35.33,1.39
		c4.24,0,8.45-0.46,12.64-1.09c0.45,3.8,0.96,7.58,1.97,11.28c0.19,0.68,0.16,0.94-0.7,0.92c-6.03-0.2-12.02-0.9-17.98-1.76
		c-8.61-1.24-17.22-1.94-25.85-0.3c-2.19,0.42-4.31,1.16-6.47,1.74c-0.44,0.12-1.06,0.41-0.84-0.51
		C454.53,295.54,455.03,291.64,455.51,287.72z"/>
	<path style="fill-rule:evenodd;clip-rule:evenodd;fill:#ED2F2E;" d="M504.92,270.41c-4.08,0.91-8.16,1.78-12.35,2.06
		c-4.91,0.33-9.81,0.21-14.71-0.17c-5.96-0.46-11.91-1.05-17.86-1.58c-1.94-0.17-3.89-0.31-5.84-0.47
		c-0.47-2.47-0.49-4.99-0.73-7.48c-0.11-1.11,0.13-1.58,1.3-1.25c0.23,0.06,0.47,0.05,0.71,0.07c1.25,0.35,2.54-0.07,3.79,0.24
		c4.73,0.4,9.39,1.27,14.05,2.09c4.75,0.83,9.51,1.56,14.34,1.73c1.43-0.19,2.87-0.03,4.3-0.09c0.43-0.02,0.88,0.1,1.3-0.1
		c2.84-0.74,5.82-0.93,8.54-2.16c1.01-0.46,2.04-0.9,3.02-1.42c0.74-0.39,0.97-0.28,0.88,0.58
		C505.39,265.11,505.16,267.76,504.92,270.41z"/>
	<path style="fill-rule:evenodd;clip-rule:evenodd;fill:#8F645E;" d="M493.22,265.46c-1.85,0.46-3.73,0.17-5.59,0.19
		C489.48,265.28,491.35,265.49,493.22,265.46z"/>
	<path style="fill-rule:evenodd;clip-rule:evenodd;fill:#84645F;" d="M459.23,261.83c-1.26-0.05-2.55,0.22-3.79-0.24
		C456.71,261.63,457.99,261.44,459.23,261.83z"/>
	<path style="fill-rule:evenodd;clip-rule:evenodd;fill:#ED2F2E;" d="M504.84,270.86c0,0,0-0.02,0-0.02L504.84,270.86z"/>
</g>
</svg>
