<?xml version="1.0" encoding="utf-8"?>
<!-- Generator: Adobe Illustrator 16.0.0, SVG Export Plug-In . SVG Version: 6.00 Build 0)  -->
<!DOCTYPE svg PUBLIC "-//W3C//DTD SVG 1.0//EN" "http://www.w3.org/TR/2001/REC-SVG-20010904/DTD/svg10.dtd" [
	<!ENTITY ns_flows "http://ns.adobe.com/Flows/1.0/">
	<!ENTITY ns_extend "http://ns.adobe.com/Extensibility/1.0/">
	<!ENTITY ns_ai "http://ns.adobe.com/AdobeIllustrator/10.0/">
	<!ENTITY ns_graphs "http://ns.adobe.com/Graphs/1.0/">
]>
<svg version="1.0" id="Layer_1" xmlns:x="&ns_extend;" xmlns:i="&ns_ai;" xmlns:graph="&ns_graphs;"
	 xmlns="http://www.w3.org/2000/svg" xmlns:xlink="http://www.w3.org/1999/xlink" xmlns:a="http://ns.adobe.com/AdobeSVGViewerExtensions/3.0/"
	 x="0px" y="0px" width="960px" height="560px" viewBox="0 0 960 560" style="enable-background:new 0 0 960 560;"
	 xml:space="preserve">
<g>
	<path style="fill-rule:evenodd;clip-rule:evenodd;fill:#222221;" d="M482.62,324.85c-0.34-2.67-1.71-4.72-3.73-6.35
		c-1.56-1.26-2.64-2.4-1.34-4.58c0.36-0.61,1.6-2.46-0.81-2.7c-0.04,0-0.06-0.28-0.07-0.43c-0.31-3.92-2.88-5.65-6.56-4.36
		c-0.46,0.16-0.71,0.17-0.92-0.27c-0.38,0.54,0.53,1.42-0.48,1.79c-0.32,0.5-0.37,1.06-0.27,1.62c0.21,1.11,0.17,2.23,0.18,3.34
		c0,0.6,0.08,1.19,0.19,1.78c0.15,0.81,0.59,1.29,1.41,1.41c2.25,0.33,4.19-0.25,5.7-2c0.1-0.12,0.19-0.24,0.26-0.38
		c0.09,0.19-0.08,0.29-0.15,0.42c-0.51,1.01-1.33,1.66-2.4,2.03c-3.55,1.23-7.16,1.97-10.93,1.36c-0.39-0.06-0.83,0.05-1.16-0.28
		c0.43-0.11,0.86-0.2,1.3-0.16c0.2,0.02,0.4,0.04,0.59,0.09c1.34,0.34,2.37-0.25,3.15-1.24c0.78-0.98,1.25-2.13,1.27-3.42
		c0.03-1.71-0.57-3.48,0.42-5.11c0.03-0.06,0-0.16-0.02-0.23c-0.13-0.49-0.33-0.94-0.74-1.27c-1.36,0-2.74-0.17-4.06,0.04
		c-1.4,0.22-2.17,0.02-2.97-1.34c-0.99-1.68-1.76-3.39-2.26-5.24c-0.18-0.66-0.27-1.35,0.34-1.89c1.5-1.32,1.82-3.1,1.98-4.97
		c0.26-2.92-1.5-4.9-3.03-7.07c-2.86-4.07-6.55-6.16-11.62-5.69c-1.09,0.1-2.41-0.28-3.09-1c-0.79-0.84-0.98-2.24-1.51-3.35
		c-0.38-0.8-0.11-1.08,0.64-1.37c3.56-1.4,6.82-3.32,9.69-5.87c3.48-3.09,5.54-6.89,5.57-11.62c0-0.89,0.2-1.31,1.11-1.58
		c1.15-0.34,1.92-1.28,2.44-2.35c0.9-1.83,0.25-3.03-1.76-3.3c-0.23-0.03-0.51,0.2-0.64-0.38c-0.34-1.57,0.7-2.4,1.51-3.39
		c1.17-1.44,2.23-2.93,2.42-4.85c0.02-0.23,0.06-0.56-0.07-0.68c-0.25-0.23-0.55,0.03-0.73,0.18c-0.64,0.53-1.23,1.14-1.85,1.69
		c-0.17,0.15-0.52,0.36-0.6,0.3c-0.23-0.17-0.02-0.43,0.06-0.65c0.52-1.55,1.07-3.11,1.15-4.76c0.04-0.78,0.09-1.91-0.56-2.17
		c-0.53-0.2-0.9,0.93-1.31,1.5c-0.52,0.72-0.6,1.73-1.46,2.22c-0.33-0.97-0.14-1.95-0.05-2.92c0.16-1.79,0.44-3.58,0.05-5.37
		c-0.1-0.47-0.23-1.05-0.81-1.05c-0.49,0-0.43,0.6-0.55,0.95c-0.15,0.41-0.17,0.86-0.3,1.28c-0.29,0.92-0.22,1.99-1.09,2.67
		c-0.44-0.91-0.25-1.88-0.28-2.83c-0.04-1.63,0.06-3.29-0.78-4.79c-0.16-0.29-0.32-0.76-0.72-0.67c-0.2,0.05-0.37,0.49-0.44,0.78
		c-0.3,1.28-0.55,2.57-0.85,3.85c-0.08,0.34-0.33,0.91-0.47,0.9c-0.4-0.02-0.4-0.53-0.51-0.85c-0.63-1.85-1.15-3.75-2.24-5.4
		c-0.42-0.64-0.96-1.53-1.65-1.37c-0.6,0.14-0.19,1.18-0.29,1.81c-0.15,0.87,0.29,2.18-0.5,2.48c-0.5,0.19-0.99-1.24-1.49-1.95
		c-0.76-1.07-1.07-2.43-2.11-3.31c-0.2-0.17-0.51-0.35-0.73-0.32c-0.34,0.06-0.24,0.47-0.24,0.71c0.01,1.36,0.07,2.71,0.08,4.07
		c0,0.34,0.1,0.83-0.28,0.98c-0.38,0.15-0.6-0.31-0.83-0.55c-1.27-1.27-2.52-2.57-3.8-3.83c-0.29-0.29-0.6-0.71-1.06-0.6
		c-0.09,0.02-0.05,0.72-0.03,1.1c0.06,1.12,0.16,2.23,0.22,3.35c0.01,0.28,0.26,0.69-0.13,0.83c-0.15,0.05-0.47-0.24-0.65-0.43
		c-1.46-1.54-2.9-3.09-4.35-4.63c-0.13-0.14-0.34-0.36-0.45-0.33c-0.31,0.08-0.16,0.4-0.16,0.61c-0.01,1.64,0,3.28-0.01,4.91
		c0,0.22,0.12,0.53-0.16,0.63c-0.29,0.11-0.38-0.21-0.54-0.37c-0.93-0.99-1.84-2-2.79-2.97c-0.27-0.27-0.57-0.77-0.94-0.61
		c-0.4,0.18-0.35,0.76-0.33,1.18c0.06,1.4,0.17,2.79,0.23,4.19c0.01,0.21,0.13,0.53-0.17,0.61c-0.13,0.04-0.34-0.15-0.5-0.26
		c-1.04-0.74-2.09-1.47-3.12-2.24c-0.92-0.68-1.12-0.29-1.07,0.64c0.04,0.88,0.07,1.76,0.05,2.64c-0.01,0.37,0.19,0.9-0.24,1.06
		c-0.22,0.08-0.62-0.25-0.9-0.47c-0.88-0.69-1.73-1.42-2.62-2.1c-0.24-0.18-0.55-0.25-0.83-0.38c-0.04,0.31-0.13,0.63-0.09,0.92
		c0.11,0.91,0.2,1.83,0.44,2.71c0.3,1.11-0.05,1.36-1.09,1.1c-0.89-0.22-1.79-0.4-2.7-0.53c-0.45-0.06-1.06-0.36-1.34,0.09
		c-0.27,0.44,0.06,1.01,0.26,1.48c0.09,0.22,0.27,0.39,0.39,0.6c0.36,0.64,1.6,0.94,1.25,1.63c-0.23,0.47-1.43,0.45-2.19,0.65
		c-0.11,0.03-0.24,0.01-0.36,0.04c-0.92,0.25-2.51-0.02-2.62,0.79c-0.14,1.09,1.36,1.32,2.3,1.72c0.24,0.1,0.61,0.29,0.62,0.46
		c0.03,0.37-0.4,0.46-0.67,0.56c-1.13,0.39-2.28,0.7-3.41,1.1c-0.61,0.22-1.34,0.64-1.3,1.26c0.05,0.67,0.88,0.79,1.51,0.93
		c0.59,0.13,1.18,0.19,1.78,0.08c0.19-0.04,0.53-0.06,0.56,0.01c0.12,0.28-0.17,0.4-0.35,0.54c-1.1,0.86-2.39,1.48-3.27,2.61
		c-0.54,0.7-1.22,1.71-0.7,2.37c0.63,0.79,1.59,0.01,2.35-0.39c0.14-0.07,0.26-0.19,0.41-0.25c0.17-0.07,0.46-0.2,0.52-0.14
		c0.24,0.23-0.06,0.41-0.17,0.57c-0.67,0.89-1.52,1.66-1.91,2.74c-0.24,0.65-0.39,1.43,0.02,1.96c0.45,0.58,1.08-0.08,1.63-0.16
		c0.2-0.03,0.38-0.11,0.57-0.17c0.18-0.06,0.39-0.22,0.5,0.05c0.04,0.1-0.07,0.29-0.15,0.41c-0.43,0.72-0.91,1.41-1.31,2.14
		c-0.2,0.37-0.46,0.87-0.12,1.21c0.28,0.28,0.77,0.14,1.13-0.02c0.9-0.41,0.84-0.05,0.67,0.67c-0.34,1.4,0.5,2.95,1.72,2.69
		c2.12-0.45,2.45,0.97,3.2,2.2c0.51,0.85,1.2,1.59,1.85,2.35c0.41,0.49,1.21,0.97-0.22,1.07c-0.44,0.03-0.48,0.4-0.51,0.8
		c-0.09,1.27-0.25,2.54-0.36,3.81c-0.13,1.43-0.43,2.93,0.33,4.23c0.48,0.83,0.31,1.34-0.23,1.97c-0.82,0.95-1.45,2.01-1.45,3.33
		c0,0.21-0.1,0.48-0.24,0.63c-1.71,1.82-2.13,4.06-2.07,6.43c0.02,0.91-0.06,2,0.61,2.63c1.36,1.28,2.3,3.01,3.98,3.93
		c0.53,0.29,0.45,0.53,0.27,0.94c-0.57,1.28-1.16,2.55-1.66,3.85c-0.61,1.57-1.27,3.21-0.64,4.88c0.5,1.32-0.18,1.21-1.02,1.14
		c-2.19-0.16-4.39-0.27-6.57-0.49c-1.61-0.16-2.57,0.51-3.33,1.89c-1.32,2.41-2.37,4.99-4,7.22c-2.27,3.11-2.63,6.89-3.75,10.4
		c-0.15,0.47-0.06,1.04,0.01,1.54c0.08,0.56,0.34,0.84,1.06,0.77c2.7-0.26,5.41-0.51,8.12-0.59c6.43-0.19,12.88,0.2,19.3-0.41
		c6.72-0.64,13.4-0.26,20.09,0.51c3.69,0.43,7.42,0.99,11.11,0.67c4.51-0.39,9.01-0.39,13.52-0.53c4.64-0.14,9.26-0.33,13.82-1.28
		C482.47,326.08,482.73,325.76,482.62,324.85z M419.59,284.55c-0.61-0.1-1.5,0.08-1.48-1.11c0.02-1.48,1.42-3.99,2.25-3.98
		c0.85,0.01,2.89,1.81,2.92,2.59C423.34,283.28,421.51,284.55,419.59,284.55z M432.06,276.73c-0.1,1.51-0.72,2.86-2.13,3.79
		c-0.19,0.13-0.49,0.29-0.64,0.22c-0.27-0.12-0.04-0.4-0.02-0.62c0.17-1.98,0.26-3.91-2.26-4.56c-0.11-0.03-0.26-0.24-0.24-0.33
		c0.05-0.27,0.26-0.35,0.54-0.32c1.38,0.18,2.75,0.35,4.13,0.51C432.25,275.52,432.06,276.1,432.06,276.73z"/>
	<path style="fill-rule:evenodd;clip-rule:evenodd;fill:#323231;" d="M424.56,213.24c1.86,1.41,2.13,3.61,2.8,5.62
		c0.03,0.09-0.03,0.22-0.05,0.32c-0.12-0.09-0.3-0.15-0.36-0.27c-0.44-0.89-0.85-1.79-1.27-2.68c-0.46-0.99-0.92-1.99-1.37-2.98
		C424.4,213.24,424.48,213.24,424.56,213.24z"/>
	<path style="fill-rule:evenodd;clip-rule:evenodd;fill:#222221;" d="M486.37,316.55c0.66-2.26,1.35-4.51,1.96-6.78
		c0.16-0.58,0.29-0.72,0.93-0.61c2.22,0.37,4.47,0.14,6.7,0c0.22-0.01,0.83,0.25,0.53-0.51c-1.25-3.23-0.62-6.37,0.67-9.42
		c2.71-6.41,6.25-12.3,11.01-17.42c1.24-1.33,1.94-3.17,3.76-3.94c0.23-0.1,0.24-0.28,0.15-0.49c-0.09-0.22-0.17-0.45-0.24-0.68
		c-0.8-2.67-0.8-2.65-3.61-2.67c-1.96-0.01-3.91,0.08-5.82,0.62c-0.34,0.1-0.74,0.23-0.99-0.14c-0.73-1.07-1.76-0.87-2.77-0.65
		c-1.43,0.31-2.5,0.01-2.96-1.53c-0.17-0.59-0.51-0.84-1.2-0.89c-3.47-0.29-4.44-1.46-4.18-4.9c0.03-0.34,0.03-0.53-0.34-0.75
		c-2.08-1.22-2.59-2.37-2.2-4.77c0.08-0.51,0.17-1.03,0.36-1.51c0.46-1.23,1.11-2.26-0.68-3.24c-1.16-0.63-0.87-2.21-0.41-3.42
		c0.46-1.18,0.93-2.3,0.78-3.66c-0.14-1.24,0.71-2.24,1.45-3.2c0.88-1.13,1.77-2.23,1.96-3.77c0.07-0.54,0.73-1,1.13-1.5
		c1.45-1.81,2.72-3.76,4.39-5.39c1.76-1.72,3.77-2.84,6.32-2.59c0.54,0.05,0.91-0.2,1.34-0.39c1.9-0.85,3.83-1.47,5.87-0.48
		c0.41,0.2,0.67,0,0.99-0.15c0.98-0.44,1.95-0.92,2.96-1.27c0.63-0.22,1.45-0.51,1.97-0.28c2.18,0.95,4.63,0.59,6.78,1.57
		c0.43,0.2,0.98,0.37,1.23,0.72c1.16,1.62,2.68,1.62,4.46,1.44c2.1-0.21,2.96,0.61,3.15,2.69c0.08,0.84,0.49,0.71,1,0.71
		c2.59,0,3.64,0.72,4.56,3.16c0.19,0.51,0.63,0.7,0.98,1c1.84,1.54,3.24,3.25,2.36,5.89c-0.11,0.32-0.11,0.74-0.01,1.07
		c1.37,4.69-0.41,9.45,0.33,14.17c0.2,1.27-0.28,2.54-1.37,3.43c-0.29,0.24-0.3,0.49-0.27,0.84c0.18,1.96-0.57,3.59-2.14,4.68
		c-2.19,1.51-4.42,3.18-7.35,1.83c-0.47-0.22-0.55,0-0.55,0.41c0,1.33-0.2,2.62-0.59,3.89c-0.23,0.73,0.29,1.22,0.77,1.47
		c3.48,1.83,5.48,5.19,8.2,7.8c1.41,1.36,2.74,2.83,4.39,3.89c3.44,2.2,5.43,5.34,6.19,9.3c0.34,1.76,1.36,3.34,1.31,5.19
		c-0.01,0.6,1.07,0.32,0.88,1.07c0,0.05-0.01,0.11-0.01,0.16c-0.33,0.84-1.01,1.39-1.64,1.98c-0.08,0.06-0.16,0.12-0.25,0.17
		c-0.08,0.05-0.16,0.1-0.24,0.15c-0.04,0.03-0.08,0.05-0.12,0.08c-0.07,0.05-0.15,0.1-0.23,0.15c-0.07,0.05-0.15,0.09-0.23,0.13
		c-0.12,0.06-0.23,0.12-0.35,0.17c-0.08,0.04-0.16,0.08-0.24,0.12c-0.12,0.06-0.24,0.12-0.37,0.17c-0.09,0.04-0.17,0.07-0.27,0.11
		c-0.19,0.07-0.37,0.16-0.56,0.25c-0.42,0.19-0.85,0.35-1.3,0.48c-3.59,0.54-7.17,0.45-10.74-0.14c-1.85-0.31-3.71-0.59-5.54-1
		c-0.81-0.18-1.31-0.04-1.36,0.92c-0.05,0.92-0.68,1.56-1.49,1.66c-2.5,0.29-3.64,1.75-4.02,4.09c-0.1,0.61-0.5,1.17-0.86,1.7
		c-0.24,0.33-0.55,0.6-0.84,0.89c-0.07,0.08-0.15,0.15-0.24,0.22c-0.04,0.04-0.08,0.07-0.12,0.11c-0.08,0.07-0.16,0.14-0.24,0.2
		c-0.08,0.06-0.17,0.12-0.26,0.17c-0.13,0.08-0.27,0.14-0.42,0.2c-0.1,0.04-0.19,0.08-0.29,0.11c-0.2,0.07-0.41,0.14-0.62,0.19
		c-0.45,0.08-0.89,0.09-1.34-0.02c-0.11-0.03-0.21-0.08-0.3-0.14c-0.04-0.03-0.09-0.07-0.13-0.1c-0.08-0.07-0.16-0.15-0.22-0.24
		c-0.07-0.08-0.12-0.18-0.17-0.27c-0.07-0.14-0.14-0.28-0.19-0.42c-0.03-0.09-0.06-0.18-0.08-0.27c-0.03-0.11-0.05-0.23-0.09-0.34
		c-0.04-0.05-0.09-0.08-0.16-0.07c-0.06,0.03-0.12,0.06-0.17,0.11c0,0-0.08,0.07-0.08,0.07c-0.06,0.06-0.12,0.1-0.19,0.14
		c-0.07,0.05-0.15,0.09-0.22,0.13c-0.08,0.05-0.16,0.09-0.24,0.14c-0.08,0.05-0.17,0.09-0.26,0.13c-0.2,0.09-0.4,0.13-0.62,0.1
		c-0.78-0.29-1.05-0.93-1.12-1.68c-0.04-0.37,0.02-0.6-0.48-0.27c-1.5,0.98-1.71,0.92-2.97-0.43c-0.29-0.31-0.66-0.44-1.01-0.62
		c-1.51-0.8-1.93-1.8-1.44-3.46c0.2-0.69,0.54-1.33,0.84-1.97c0.13-0.28,0.4-0.59,0.13-0.88c-0.2-0.22-0.53-0.06-0.8-0.01
		c-0.27,0.05-0.54,0.12-0.83,0.14c-0.82-0.04-1.61,0.35-2.44,0.17c-0.79-0.23-1.5-0.24-2.26,0.27c-0.73,0.48-1.69,0.56-2.56,0.51
		c-2.72-0.16-5.41,0.45-8.13,0.17c-0.77-0.08-0.91,0.56-1.04,1.09c-0.28,1.18-0.7,2.29-1.25,3.36c-0.05,0.1-0.11,0.2-0.16,0.3
		c-0.05,0.1-0.1,0.19-0.16,0.28c-0.05,0.09-0.1,0.18-0.15,0.27c-0.1,0.18-0.17,0.36-0.25,0.55c-0.08,0.19-0.2,0.35-0.38,0.45
		c-0.16,0.04-0.29,0.01-0.38-0.13C486.38,316.75,486.37,316.65,486.37,316.55z"/>
	<path style="fill-rule:evenodd;clip-rule:evenodd;fill:#232322;" d="M486.45,316.67c0.07,0.08,0.15,0.17,0.22,0.25
		c0.43,0.42,0.19,0.91,0.08,1.34c-0.5,2.01-0.8,4.07-1.44,6.04c-0.29,0.88,0.04,1.15,0.88,1.15c1.2,0,2.39-0.02,3.57-0.23
		c3.85-0.48,7.69-0.72,11.56-0.86c2.28-0.08,4.57-0.6,6.87-0.72c3.18-0.16,6.35-0.53,9.54-0.59c0.41-0.01,0.79-0.1,1.18-0.19
		c2.38-0.11,4.75-0.2,7.12-0.34c0.67-0.04,1.34-0.09,2.01-0.18c5.07-0.16,10.15-0.21,15.22-0.04c4.5,0.15,9.01,0.27,13.51,0.68
		c0.36,0.03,0.72,0.06,1.07,0.05c2.49-0.18,4.95,0.46,7.45,0.26c0.47-0.04,0.95,0.05,1.4-0.08c0.55-0.38,0.14-0.79,0.01-1.16
		c-0.83-2.27-2.2-4.25-3.36-6.35c-0.29-0.53-0.61-1.03-0.83-1.6c-0.32-0.95-0.86-1.8-1.29-2.7c-0.69-1.26-1.18-2.61-1.92-3.84
		c-0.44-0.73-0.94-1.12-1.84-0.94c-1.8,0.36-3.65,0.22-5.45,0.58c-0.66,0.13-1.41,0.16-1.47-0.86l-0.01,0.03
		c0.47-0.57,1.07-0.74,1.8-0.72c2.08,0.04,4.15-0.09,6.16-0.7c0.5-0.15,0.73,0.02,0.95,0.42c0.43,0.81,0.95,1.58,1.33,2.41
		c1.92,4.21,4.02,8.32,6.34,12.34c2.35,4.06,2.02,4.4-2.58,4.31c-12.14-0.25-24.26-1.19-36.41-0.76
		c-9.78,0.34-19.52,1.29-29.27,2.05c-4.82,0.38-9.64,0.65-14.46,1c-0.72,0.05-0.86-0.04-0.72-0.8c0.61-3.18,1.67-6.23,2.64-9.31
		C486.37,316.62,486.41,316.64,486.45,316.67z"/>
	<path style="fill-rule:evenodd;clip-rule:evenodd;fill:#30302F;" d="M450.84,221.06c-0.42-0.26-0.27-0.57-0.13-0.85
		c0.8-1.6,1.6-3.2,2-4.96c0.09-0.38,0.29-0.4,0.61-0.31c0.3,0.09,0.39,0.26,0.26,0.53c-0.84,1.8-1.68,3.6-2.53,5.39
		C451.01,220.94,450.91,221,450.84,221.06z"/>
	<path style="fill-rule:evenodd;clip-rule:evenodd;fill:#3A3A39;" d="M468.16,242.44c-0.28,0-0.58,0.07-0.83-0.02
		c-0.35-0.12-0.92,0.56-1.04-0.25c-0.13-0.85,0.64-0.68,1.06-0.75c0.91-0.16,1.81,0.03,2.69,0.32c0.22,0.07,0.54,0.11,0.5,0.39
		c-0.02,0.11-0.38,0.24-0.59,0.26c-0.59,0.03-1.19,0.01-1.78,0.01C468.16,242.42,468.16,242.43,468.16,242.44z"/>
	<path style="fill-rule:evenodd;clip-rule:evenodd;fill:#2A2A29;" d="M395.99,243.83c1.56,0.04,2.83,0.81,4.24,1.1
		c0.1,0.02,0.18,0.11,0.27,0.16c-0.12,0.1-0.23,0.25-0.36,0.28c-0.52,0.14-1.02,0.04-1.53-0.11c-0.83-0.25-1.62-0.69-2.54-0.58
		c-0.45,0.05-1.03,0.02-0.99-0.54C395.12,243.66,395.74,243.93,395.99,243.83z"/>
	<path style="fill-rule:evenodd;clip-rule:evenodd;fill:#2F2F2E;" d="M402.4,260.57c0.44,0.02,0.83,0.04,1.16,0.31
		c-0.32,0.1-0.64,0.18-0.95,0.3c-1.06,0.43-2.11,0.9-3.18,1.3c-0.26,0.1-0.83,0.04-0.87-0.09c-0.13-0.38,0.33-0.46,0.56-0.62
		C400.13,261.08,401.23,260.67,402.4,260.57z"/>
	<path style="fill-rule:evenodd;clip-rule:evenodd;fill:#2C2C2B;" d="M407.53,221.79c0.93,0.31,1.43,1.08,1.98,1.81
		c0.43,0.57,0.84,1.14,1.5,1.49c0.26,0.14,0.84-0.01,0.74,0.29c-0.15,0.46-0.69,0.23-1.04,0.11c-1.64-0.55-2.37-2.01-3.24-3.32
		C407.4,222.04,407.41,221.91,407.53,221.79z"/>
	<path style="fill-rule:evenodd;clip-rule:evenodd;fill:#0D0C0B;" d="M469.19,306.16c-0.08,0.41,0.2,0.62,0.43,0.87
		c0.17,0.19,0.35,0.44,0.16,0.73c-0.25,0.38-0.54,0.12-0.81,0.03c-0.23,0.16-0.38-0.01-0.53-0.14c-0.09-0.1-0.17-0.21-0.23-0.33
		c-0.05-0.06-0.11-0.12-0.18-0.17c-0.17-0.42-0.63-0.73-0.51-1.27C468.16,305.46,468.64,306.01,469.19,306.16z"/>
	<path style="fill-rule:evenodd;clip-rule:evenodd;fill:#353534;" d="M465.69,232.24c-0.3-0.12-0.76,0.19-0.8-0.25
		c-0.02-0.19,0.37-0.55,0.63-0.6c0.92-0.19,1.86-0.28,2.8-0.4c0.09-0.01,0.19,0.06,0.28,0.1c-0.08,0.13-0.14,0.29-0.25,0.37
		C467.53,232.02,466.6,232.15,465.69,232.24z"/>
	<path style="fill-rule:evenodd;clip-rule:evenodd;fill:#343433;" d="M467.61,255.42c-0.7-0.27-1.87,0.09-1.9-0.72
		c-0.02-0.48,1.26-0.44,2-0.31c0.5,0.09,1.31,0.15,1.25,0.63C468.89,255.54,468.05,255.22,467.61,255.42z"/>
	<path style="fill-rule:evenodd;clip-rule:evenodd;fill:#696868;" d="M407.53,221.79c-0.02,0.13-0.04,0.26-0.06,0.38
		c-0.1-0.14-0.31-0.31-0.28-0.42C407.23,221.6,407.43,221.61,407.53,221.79z"/>
	<path style="fill-rule:evenodd;clip-rule:evenodd;fill:#E4B753;" d="M486.45,316.67c-0.05,0-0.08-0.02-0.11-0.06
		c0,0-0.02-0.06-0.02-0.06s0.06,0,0.06,0C486.42,316.57,486.45,316.61,486.45,316.67z"/>
	<path style="fill-rule:evenodd;clip-rule:evenodd;fill:#462E1D;" d="M452.88,231.16c-0.03,1.02-0.06,2.37,0.43,3.68
		c0.15,0.39,0.29,0.82,0.72,0.86c0.46,0.05,0.67-0.39,0.82-0.76c0.28-0.66,0.5-1.35,0.78-2c0.08-0.18,0.01-0.57,0.35-0.5
		c0.27,0.06,0.29,0.39,0.21,0.61c-0.47,1.35-0.06,2.77-0.38,4.16c-0.19,0.81,0.09,1.73,0.18,2.6c0.08,0.76,0.5,0.27,0.75,0.17
		c1.18-0.45,1.34-1.73,2.03-2.58c0.14-0.17,0.16-0.5,0.47-0.38c0.04,0.02-0.04,0.35-0.05,0.54c-0.07,2-1.14,3.72-1.63,5.6
		c-0.08,0.31-0.27,0.63,0,0.9c0.3,0.29,0.6-0.01,0.88-0.12c0.96-0.4,1.52-1.28,2.26-1.94c0.12-0.1,0.34-0.28,0.37-0.25
		c0.23,0.19-0.02,0.32-0.1,0.48c-0.72,1.49-1.88,2.67-2.85,3.97c-0.34,0.45-0.74,1.63-1.72,0.37c-0.35-0.45-1.07,0.2-1.58,0.48
		c-0.19,0.1-0.42,0.34-0.64,0.1c-0.21-0.22-0.04-0.44,0.1-0.64c0.02-0.03,0.06-0.06,0.07-0.1c0.21-0.63,1.13-1.19,0.55-1.89
		c-0.54-0.65-1.39-0.37-2.11-0.06c-0.18,0.08-0.38,0.23-0.53,0.02c-0.06-0.09,0.03-0.29,0.08-0.44c0.04-0.11,0.11-0.21,0.17-0.32
		c0.33-0.6,1.13-1.22,0.62-1.89c-0.59-0.79-1.57-0.6-2.44-0.32c-0.82,0.26-1.35,0.34-1-0.89c0.31-1.13-0.06-1.77-1.45-1.29
		c-0.65,0.22-1.91,0.67-1.02-0.98c0.31-0.57-0.01-0.84-0.66-0.89c-1.05-0.09-1.82,0.51-2.68,0.91c-0.5,0.23-0.96,0.49-0.67-0.47
		c0.2-0.67-0.16-0.92-0.84-0.91c-0.64,0-1.16,0.29-1.68,0.58c-0.74,0.42-1.5,1.23-1.82-0.39c-0.07-0.36-0.43-0.32-0.79-0.27
		c-1.31,0.19-2.42,0.76-3.42,1.59c-0.26,0.21-0.45,0.71-0.85,0.5c-0.21-0.11-0.3-0.54-0.37-0.84c-0.33-1.54-0.83-1.76-2.21-0.9
		c-0.37,0.23-0.71,0.53-1.01,0.84c-0.8,0.86-1.35,1.85-2.81,0.58c-0.87-0.76-1.83,0.38-2.43,1.14c-0.65,0.81-0.95,0.83-1.44-0.13
		c-0.5-0.98-1.26-0.87-1.87,0.15c-1.06,1.79-1.08,1.83-2.8,1.23c-0.87-0.3-1.17,0.15-1.43,0.78c-0.09,0.21-0.09,0.46-0.12,0.7
		c-0.26,2.22-0.26,2.22-2.25,1.28c-0.96-0.45-1.45,0.02-1.57,0.93c-0.08,0.59-0.06,1.2-0.01,1.8c0.09,0.93,0.7,2.02-1.23,1.6
		c-0.74-0.16-0.53,0.95-0.27,1.4c0.69,1.19,0.7,2.01-0.73,2.65c-0.75,0.34-0.16,1.64,0.92,2.17c0.31,0.15,0.99-0.07,0.91,0.5
		c-0.08,0.54-0.65,0.59-1.16,0.62c-1.09,0.06-1.69,0.97-2.52,1.5c-0.24,0.16-0.55,0.53-0.82,0.23c-0.24-0.26,0.19-0.45,0.33-0.67
		c0.06-0.1,0.15-0.19,0.21-0.29c0.56-0.91,1.6-2.03,1.04-2.85c-0.46-0.67-1.61,0.54-2.52,0.69c-0.34,0.05-0.69,0.55-0.95,0.24
		c-0.26-0.3,0.05-0.76,0.26-1.07c0.76-1.12,1.57-2.21,2.32-3.33c0.34-0.51,0.64-1.22,0.21-1.67c-0.51-0.53-0.97,0.18-1.42,0.44
		c-0.48,0.28-0.92,0.63-1.4,0.91c-0.22,0.12-0.49,0.45-0.73,0.16c-0.21-0.25,0.07-0.53,0.22-0.74c0.91-1.21,2.23-1.91,3.44-2.75
		c0.54-0.38,1.51-0.81,1.27-1.37c-0.29-0.69-1.32-0.53-2.07-0.44c-0.73,0.09-1.95,0.53-2.04-0.04c-0.13-0.77,1.13-0.85,1.83-1.13
		c0.91-0.37,1.97-0.32,2.76-1.04c0.29-0.27,0.72-0.45,0.62-0.93c-0.08-0.43-0.43-0.62-0.85-0.74c-0.65-0.19-1.83-0.39-1.7-0.87
		c0.18-0.69,1.27-0.56,2.02-0.57c0.28,0,0.58,0.03,0.83-0.05c0.81-0.26,2.03-0.2,2.21-1.11c0.14-0.69-1.04-0.93-1.61-1.38
		c-0.48-0.38-1.18-0.76-0.88-1.35c0.23-0.45,1.01-0.2,1.55-0.03c0.95,0.3,1.87,0.65,2.91,0.59c0.65-0.04,0.87-0.18,0.63-0.85
		c-0.25-0.67-0.41-1.37-0.61-2.06c-0.11-0.38-0.32-0.84,0.1-1.08c0.45-0.26,0.7,0.24,0.97,0.5c0.53,0.49,1.01,1.03,1.54,1.51
		c0.36,0.32,0.79,0.65,1.29,0.45c0.53-0.21,0.53-0.75,0.53-1.23c0-0.92,0-1.84,0-2.76c0-0.62,0.15-0.87,0.74-0.37
		c0.94,0.8,1.89,1.58,2.86,2.35c0.27,0.21,0.57,0.45,0.98,0.27c0.51-0.22,0.22-0.62,0.21-0.93c-0.05-1.31,0.17-2.64-0.21-3.93
		c-0.06-0.21-0.1-0.55,0.19-0.61c0.19-0.05,0.51,0.05,0.64,0.2c0.49,0.57,0.93,1.19,1.38,1.79c0.17,0.22,0.3,0.48,0.48,0.68
		c0.44,0.48,1.01,1,1.61,0.85c0.47-0.12,0.37-0.92,0.41-1.38c0.12-1.11,0.05-2.24,0.07-3.35c0-0.26-0.11-0.64,0.24-0.72
		c0.3-0.07,0.47,0.24,0.64,0.46c0.96,1.28,1.9,2.57,3.22,3.5c1.09,0.77,1.58,0.54,1.62-0.8c0.03-0.87-0.15-1.74-0.21-2.61
		c-0.02-0.23-0.02-0.59,0.1-0.66c0.32-0.17,0.47,0.2,0.65,0.38c1.21,1.27,2.4,2.56,3.61,3.84c0.27,0.29,0.54,0.64,1.01,0.52
		c0.57-0.14,0.31-0.64,0.4-1c0.31-1.18,0.22-2.38,0.24-3.57c0-0.23,0.01-0.61,0.11-0.65c0.38-0.13,0.41,0.3,0.53,0.5
		c0.8,1.33,1.57,2.69,2.36,4.03c0.21,0.36,0.31,0.92,0.89,0.78c0.48-0.12,0.55-0.61,0.69-1.04c0.29-0.9,0.19-1.82,0.22-2.73
		c0.01-0.26-0.11-0.64,0.25-0.71c0.33-0.06,0.45,0.29,0.55,0.54c0.74,1.85,1.45,3.71,2.19,5.56c0.2,0.49,0.27,1.3,0.9,1.21
		c0.79-0.11,1.2-0.85,1.37-1.65c0.18-0.85,0.36-1.71,0.57-2.56c0.03-0.13,0.18-0.23,0.28-0.34c0.04,0.13,0.12,0.26,0.12,0.39
		C452.89,229.3,452.88,230.06,452.88,231.16z"/>
	<path style="fill-rule:evenodd;clip-rule:evenodd;fill:#E6B853;" d="M399.58,315.22c0.24-0.47,0.49-0.95,0.73-1.42
		c0.61-0.87,1.55-1.24,2.5-1.52c1.61-0.48,3.27-0.71,4.95-0.76c4.98-0.14,9.94-0.1,14.87,0.95c3.65,0.78,7,2.14,10.1,4.19
		c0.34,0.22,0.65,0.46,0.92,0.75c0.06,0.11,0.12,0.21,0.17,0.32c0.28,0.61,0.53,1.44,1.26,1.41c0.81-0.04,1.03-0.88,1.21-1.6
		c0.06-0.25-0.01-0.65,0.33-0.68c0.12-0.01,0.28,0.42,0.41,0.65c0.09,0.17,0.15,0.37,0.25,0.54c0.22,0.43,0.51,0.95,1.02,0.88
		c0.43-0.06,0.58-0.62,0.66-1.05c0.14-0.74,0.2-1.49,0.3-2.24c0.03-0.19,0.04-0.49,0.14-0.52c0.31-0.11,0.35,0.23,0.46,0.41
		c0.38,0.61,0.72,1.24,1.1,1.85c0.23,0.38,0.48,0.78,1.04,0.48c0.21-0.08,0.16-0.32,0.3-0.45l0-0.01c1.5-0.66,3.4,0.1,4.19,1.71
		c0.66,1.34,0.65,2.71,0,4.05c-0.56,1.16-1.5,2.06-2.2,3.13c-0.24,0.37-0.63,0.46-1.06,0.25c-5.33-0.33-10.67-0.46-16-0.47
		c-1.64,0.21-3.24,0.13-4.82-0.45c-3.07-1.13-6.29-1.46-9.54-1.6c-2.63-0.11-5.27-0.17-7.88-0.54c-1.43-0.2-2.83-0.54-4.05-1.37
		c-2.32-1.59-2.9-3.91-1.58-6.32C399.48,315.6,399.47,315.39,399.58,315.22z"/>
	<path style="fill-rule:evenodd;clip-rule:evenodd;fill:#E4AE8A;" d="M446.26,301.82c-2.49-0.53-5.83-0.76-8.88-2.33
		c-1.63-0.84-3.4-1.38-5.08-2.11c-1.83-0.8-3.4-1.93-4.43-3.7c-0.5-0.87-1.55-0.81-2.28-1.34c-1.11-0.79-1.42,0.69-1.88,1.28
		c-0.6,0.78-1.33,0.93-2.18,1c-1.83,0.15-3.65-0.46-5.49,0c-0.22,0.06-0.54-0.13-0.76-0.27c-0.33-0.21-0.92-0.6-0.88-0.71
		c0.19-0.48,0.67-0.11,1.02-0.15c0.68-0.09,1.73,0.18,1.88-0.51c0.09-0.43-1.08-0.5-1.74-0.56c-0.75-0.07-1.51-0.16-2.26-0.28
		c-0.82-0.13-1.24-0.6-1.27-1.47c-0.01-0.62-0.04-0.97,0.71-0.51c0.83,0.51,1.75,0.77,2.74,0.74c0.21-0.01,0.54,0.02,0.57-0.28
		c0.01-0.14-0.2-0.33-0.35-0.45c-0.62-0.48-1.38-0.62-2.12-0.75c-0.97-0.18-1.43-0.78-1.63-1.68c-0.23-1.06-0.14-2.09,0.56-2.96
		c0.48-0.59,0.57,0.12,0.7,0.34c0.69,1.12,1.73,1.61,2.97,1.78c0.28,0.04,0.71,0.24,0.78-0.24c0.05-0.32-0.18-0.67-0.53-0.7
		c-1.42-0.12-2.28-0.79-2.42-2.26c-0.17-1.82,0.15-3.5,1.42-4.91c0.42-0.46,0.94-0.73,1.52-0.91c0.53-0.16,1.1-0.09,1.47,0.26
		c0.38,0.35,0.21,0.93,0.01,1.35c-0.36,0.75-0.83,1.46-1.19,2.21c-0.5,1.07-0.57,2.17,0.14,3.19c0.67,0.97,1.73,0.97,2.72,0.81
		c1.78-0.28,3.26-1.07,4-2.85c0.39-0.93,0.31-1.87-0.44-2.54c-0.78-0.69-0.4-0.88,0.23-1.29c0.73-0.47,1.36-1.11,2.04-1.66
		c0.53-0.43,1.12-0.6,1.78-0.29c0.66,0.31,0.44,0.9,0.4,1.37c-0.22,2.45,0.01,4.97-1.04,7.3c-0.31,0.68-0.11,1.31,0.49,1.68
		c1.1,0.68,2.19,1.28,3.57,1.41c4.32,0.42,8.66,0.78,12.88,1.91c2.17,0.58,4.24,1.39,6.07,2.74c1.97,1.46,3.03,3.44,3.45,5.82
		c0.12,0.7-0.13,1.08-0.81,1.33C450.91,301.35,449.04,301.86,446.26,301.82z"/>
	<path style="fill-rule:evenodd;clip-rule:evenodd;fill:#E4AE8A;" d="M413.97,255.66c0.82-1.53,0.75-1.66-1.01-2.11
		c-0.32-0.08-0.7-0.14-0.75-0.48c-0.05-0.32,0.36-0.36,0.58-0.49c1.06-0.61,0.91-1.45,0.54-2.38c-0.09-0.22-0.62-0.75,0.16-0.73
		c1.38,0.03,1.33-0.91,1.26-1.79c-0.06-0.71-0.31-1.4-0.44-2.1c-0.11-0.58-0.03-0.94,0.74-0.66c3,1.12,3.03,1.11,3.22-2.16
		c0.05-0.86,0.38-0.69,0.87-0.39c2.36,1.44,2.35,1.44,3.11-1.2c0.08-0.28,0.03-0.74,0.42-0.79c0.38-0.05,0.45,0.4,0.58,0.67
		c0.25,0.52,0.52,1.12,1.12,1.13c0.66,0.01,0.94-0.65,1.22-1.18c0.11-0.21,0.22-0.43,0.32-0.64c0.21-0.43,0.39-1,0.92-0.99
		c0.51,0.02,0.57,0.61,0.69,1.01c0.34,1.14,0.89,1.02,1.58,0.31c0.8-0.83,1.6-1.68,2.42-2.5c0.21-0.21,0.49-0.58,0.79-0.4
		c0.21,0.12,0.29,0.53,0.37,0.83c0.06,0.23,0.03,0.48,0.04,0.72c0.01,0.45,0.06,0.95,0.47,1.16c0.41,0.21,0.73-0.2,1.04-0.42
		c0.98-0.68,1.79-1.61,2.95-2.02c0.25-0.09,0.6-0.16,0.79-0.05c0.31,0.18,0.05,0.51-0.03,0.74c-0.16,0.44-0.32,0.89,0.08,1.21
		c0.42,0.34,0.85-0.04,1.2-0.25c0.68-0.41,1.31-0.91,1.98-1.34c0.18-0.12,0.44-0.12,0.66-0.18c-0.01,0.22,0.03,0.45-0.03,0.65
		c-0.33,1.04,0.28,1.13,0.99,0.9c0.83-0.27,1.61-0.69,2.42-1.03c0.33-0.14,0.77-0.49,0.61,0.38c-0.33,1.82-0.02,2.05,1.78,1.52
		c0.32-0.1,0.73-0.47,0.99-0.16c0.26,0.3-0.14,0.63-0.32,0.92c-0.63,1.05-0.12,1.45,0.89,1.57c0.12,0.01,0.25,0.01,0.36-0.02
		c1.36-0.4,2.85-1.04,1.48,1.47c-0.35,0.65-0.24,1.69,1.11,1.42c0.47-0.09,0.89-0.5,1.43-0.25c-0.23,0.5-0.47,1-0.7,1.5
		c-0.92,1.27-1.16,2.76-1.45,4.25c-0.16,0.86-0.35,1.81-1.63,1.56c-0.08-0.08-0.14-0.18-0.17-0.29c-0.03-0.22,0.03-0.43,0.09-0.64
		c0.02-0.1,0.06-0.19,0.09-0.28c0.06-0.17,0.12-0.35,0.13-0.54c-0.01-0.14-0.03-0.27-0.08-0.4c-0.07-0.13-0.16-0.24-0.26-0.36
		c-0.51-0.57-0.93-1.22-1.61-1.59c-0.67-0.37-1.19-0.81-1.02-1.69c0.04-0.19,0-0.45-0.22-0.5c-0.36-0.1-0.37,0.23-0.39,0.45
		c-0.07,0.69-0.54,0.83-1.1,0.84c-1.01,0.01-2.01-0.06-2.76-0.88c-0.4-0.43-0.63-0.48-0.91,0.17c-0.44,1.02-0.99,1.2-1.97,0.73
		c-0.38-0.18-0.78-0.12-1.16-0.23c-1.41-1.15-2.84-0.75-4.21,0.03c-1.77,1.03-3.18,2.47-4.33,4.16c-0.29,0.42-0.52,0.9-1.05,1.09
		c-1.44-1.06-3.35-1.15-4.73-2.33c-0.49-0.42-0.69-0.12-0.8,0.36c-0.16,0.74-0.76,0.87-1.37,0.92c-0.47,0.04-0.89-0.08-0.9-0.69
		c0-0.19,0.03-0.44-0.24-0.47c-0.22-0.02-0.31,0.18-0.39,0.38c-0.51,1.34-1.1,1.51-2.41,0.67c-0.22-0.14-0.62-0.18-0.55,0.05
		c0.37,1.2-0.77,1.97-0.76,3.04c0,0.24,0.02,0.48,0.04,0.72c0.02,0.19,0.03,0.37-0.01,0.56c-0.04,0.13-0.12,0.24-0.22,0.33
		c-0.71,0.46-1.49,0.35-2.26,0.26c-0.39-0.05-0.77-0.2-0.75-0.72c0.03-0.06,0.08-0.09,0.15-0.08
		C413.83,255.9,413.93,255.8,413.97,255.66z"/>
	<path style="fill-rule:evenodd;clip-rule:evenodd;fill:#A7221F;" d="M431.33,282.18c0-0.02-0.03,0.23,0.03,0.46
		c0.16,0.6,0.12,1.41,0.88,1.56c0.69,0.13,1.16-0.44,1.56-0.94c2.09-2.65,2.67-2.75,5.54-0.89c0.07,0.04,0.13,0.09,0.2,0.14
		c2.91,1.83,3,1.8,3.72-1.54c0.05-0.24,0.06-0.56,0.38-0.45c1.15,0.39,2.48,0.05,3.52,0.95c0.51,0.44,1.27,0.93,1.31-0.4
		c0.02-0.61,0.39-0.34,0.64-0.3c4.52,0.69,9.8,6.04,10.45,10.59c0.39,2.74-1.84,6.84-4.33,8.03c-0.49,0.24-0.59,0.13-0.67-0.36
		c-0.51-3.08-2.08-5.5-4.69-7.2c-0.62-0.41-0.37-0.71-0.16-1.16c0.88-1.83,0.25-4.6-1.31-5.89c-0.2-0.17-0.44-0.48-0.69-0.28
		c-0.12,0.1-0.04,0.53,0.05,0.77c0.38,1.01,0.86,1.98,1.19,3c0.25,0.77,0.28,1.62-0.36,2.26c-0.6,0.6-1.29,0.16-1.92-0.01
		c-4.87-1.27-9.84-1.96-14.82-2.59c-1.22-0.15-2.26-0.63-3.3-1.17c-0.29-0.15-0.44-0.37-0.37-0.67c0.43-1.84,0.65-3.78,2.51-4.89
		c0.2-0.12,0.48-0.38,0.61-0.17C431.43,281.25,431.33,281.62,431.33,282.18z"/>
	<path style="fill-rule:evenodd;clip-rule:evenodd;fill:#E4AE8A;" d="M438.19,314.17c-0.02,0.89,0.27,1.81-0.13,2.68
		c-0.78-0.7-0.57-1.72-0.83-2.59c-0.25-0.87-0.29-1.83-1.03-2.49c-0.63,0.75-0.52,1.67-0.6,2.54c-0.08,0.91-0.15,1.83-0.23,2.74
		c-0.02,0.22,0.02,0.56-0.28,0.56c-0.16,0-0.38-0.28-0.45-0.47c-0.49-1.26-0.31-2.6-0.47-3.9c-0.06-0.51-0.16-1.02-0.25-1.52
		c-0.04-0.24-0.14-0.49-0.41-0.53c-0.32-0.04-0.55,0.16-0.6,0.46c-0.15,0.83-0.59,0.61-1.09,0.34c-1.45-0.77-2.37-2.31-2.11-3.97
		c0.2-1.27-0.33-1.04-1.18-0.91c-2.71,0.44-5.36,1.23-8.11,1.36c-2.45,0.11-4.35-1.13-6.02-2.76c-0.21-0.21-0.36-0.53-0.44-0.83
		c-0.41-1.56,1.2-4.74,2.69-5.25c2.37-0.82,4.79-1.24,7.28-0.59c0.24,0.06,0.66,0.06,0.65,0.41c-0.01,0.32-0.48,0.07-0.56,0.2
		c-0.96,1.63-2.87,0.75-4.12,1.6c-0.19,0.13-0.56,0.26-0.55,0.34c0.06,0.38,0.44,0.21,0.67,0.25c1.53,0.28,3-0.27,4.5-0.35
		c3.68-0.21,7.2,0.67,10.71,1.58c0.9,0.23,1.66,0.92,1.95,1.83c0.31,0.97,0.97,1.17,1.82,1.17c1.28,0,2.56-0.05,3.83-0.03
		c0.28,0,0.76-0.07,0.82,0.29c0.07,0.43-0.43,0.52-0.73,0.65c-0.36,0.15-0.78,0.18-1.15,0.31c-0.38,0.13-1.03-0.13-1.06,0.5
		c-0.03,0.57,0.27,1.22,0.85,1.31c2.37,0.37,2.85,2.42,3.77,4.08c0.11,0.21,0.44,0.5,0.16,0.72c-0.13,0.1-0.54-0.04-0.75-0.19
		c-1.18-0.82-2.33-1.69-3.51-2.5c-0.27-0.19-0.64-0.25-0.96-0.36c0.07,0.34,0.08,0.7,0.21,1.01c0.4,1.04,0.97,2.03,0.92,3.19
		c-0.01,0.22-0.05,0.6-0.17,0.64c-0.37,0.14-0.46-0.28-0.54-0.49c-0.38-1.04-1.18-1.89-1.37-3.03c-0.07-0.41-0.37-0.79-0.83-0.7
		c-0.5,0.09-0.29,0.58-0.3,0.9C438.17,312.96,438.19,313.57,438.19,314.17z"/>
	<path style="fill-rule:evenodd;clip-rule:evenodd;fill:#C79F48;" d="M459.61,327.03c-3.95,0.39-7.89,0.25-11.83-0.24
		c2.7-2.6,2.73-7.81,0.66-10.22c-0.6-0.7-1.4-1.02-2.06-1.58c0.38-0.83,0.35-1.68-0.14-2.41c-0.96-1.44-1.27-3.39-3.21-4.07
		c-0.34-0.12-0.26-0.38,0.04-0.47c0.67-0.21,1.19-0.76,2-0.69c4.93,0.42,9.87,0.35,14.81,0c0.19-0.01,0.45-0.17,0.6,0.11
		c-0.17,0.09-0.33,0.21-0.51,0.27c-0.91,0.32-1.64,0.8-1.85,1.83c-0.11,0.55-0.65,0.53-1.05,0.64c-1.43,0.37-2.89,0.63-4.17,1.42
		c-1.83,1.13-1.98,2.17-1.04,4.09c1.8,3.69,5.29,4.28,8.73,5.02c0.77,0.17,1.58,0.19,2.37,0.28c0.33,0.54-0.1,0.82-0.41,1.09
		C460.98,323.4,459.98,325.03,459.61,327.03z"/>
	<path style="fill-rule:evenodd;clip-rule:evenodd;fill:#A7221F;" d="M451.18,306.58c-0.98,0-2.14,0-3.3,0
		c-1.15,0-2.18-0.03-3.1-1.08c-0.84-0.97-2.24-0.65-3.41-0.45c-1.43,0.24-2.81,0.21-3.68-1.07c-1.93-2.88-4.84-3.23-7.89-3.33
		c-1.12-0.03-2.24-0.03-3.36-0.06c-0.32-0.01-0.69-0.01-0.69-0.47c0-0.46,0.36-0.42,0.68-0.47c0.31-0.05,0.81,0.22,0.89-0.3
		c0.05-0.34-0.31-0.54-0.6-0.67c-0.58-0.26-0.73-0.67-0.53-1.26c0.08-0.26,0.07-0.55,0.07-0.83c0-0.54,0.16-1.15-0.49-1.48
		c-0.18-0.09-0.41-0.2-0.54,0.01c-0.31,0.48-0.22,1.03-0.08,1.51c0.32,1.09-0.02,1.54-1.14,1.32c-2.55-0.51-4.99,0.02-7.42,0.73
		c-0.25,0.07-0.53,0.36-0.77,0.11c-0.23-0.25,0.08-0.51,0.16-0.75c0.61-1.83,1.68-2.78,3.81-2.48c1.69,0.24,3.45,0.2,4.8-1.24
		c0.42-0.45,0.9-0.07,1.32,0.13c1.86,0.89,3.3,2.37,4.97,3.53c1.44,1,2.97,1.69,4.72,1.91c0.2,0.02,0.45,0,0.58,0.11
		c2.1,1.84,4.88,1.5,7.31,2.25c4.54,1.42,8.85,0.41,12.79-2.11c0.9-0.58,1.27-0.67,1.54,0.51c0.39,1.66,0.84,3.33,2.09,4.62
		c0.21,0.22,0.48,0.51,0.33,0.85c-0.16,0.37-0.56,0.23-0.86,0.24C456.71,306.41,454.04,306.74,451.18,306.58z"/>
	<path style="fill-rule:evenodd;clip-rule:evenodd;fill:#DAA17D;" d="M449.74,252.57c0.76,0.37,1.07-0.05,1.22-0.71
		c0.23-0.99,0.44-1.99,0.65-2.99c0.17-0.77,0.56-1.38,1.25-1.79c-0.05,0.54-0.29,1.15,0.28,1.53c0.57,0.38,1.05-0.09,1.55-0.29
		c0.28-0.12,0.58-0.49,0.84-0.23c0.14,0.13,0.03,0.59-0.05,0.87c-0.53,2.02-0.31,2.25,1.65,1.75c0.5-0.13,1.01-0.25,1.53-0.29
		c0.5-0.04,1.12-0.17,1.37,0.44c0.25,0.63,0.18,1.26-0.35,1.77c-0.77,0.74-1.69,1.21-2.71,1.46c-0.6,0.15-0.77,0.44-0.75,1.08
		c0.28,7.54-3.93,12.23-10.07,15.65c-0.62-0.27-0.55-0.83-0.5-1.34c0.08-0.76,0.34-1.47,0.68-2.16c0.38-0.75,0.78-1.49,1.11-2.26
		c0.78-1.85,0.53-2.38-1.37-2.92c-2.8-0.8-3.89-2.14-4.18-5.13c0.04-0.28,0.2-0.46,0.44-0.58c0.17-0.08,0.36-0.12,0.55-0.11
		c0.13,0.02,0.23,0.09,0.29,0.2c0.21,0.4,0.16,0.85,0.22,1.28c0.19,1.29,0.83,2.26,2.11,2.64c1.4,0.42,2.79,0.36,3.96-0.63
		c0.98-0.84,0.97-2.47,0.1-3.85c-0.38-0.6-0.96-1.09-0.98-1.88C448.81,253.46,448.95,252.77,449.74,252.57z"/>
	<path style="fill-rule:evenodd;clip-rule:evenodd;fill:#CEA54B;" d="M433.67,317.4c-1-0.01-1.65-0.77-2.39-1.24
		c-3.47-2.21-7.37-3.05-11.33-3.83c-2.92-0.58-5.87-0.57-8.77-0.57c-3.68,0-7.52-0.12-10.85,2.04c0.53-2.11,1.78-3.82,3.02-5.53
		c0.7-0.96,1.58-1.45,2.78-1.2c2.6,0.53,5.23,0.48,7.86,0.31c0.61-0.04,1.26,0.07,1.71,0.44c2.88,2.33,6.06,1.76,9.27,1.08
		c0.19-0.04,0.39-0.1,0.58-0.13c2.48-0.41,2.48-0.41,3.62,1.77c0.75,1.44,1.79,2.56,3.42,2.97c0.49,0.12,0.62,0.35,0.66,0.81
		C433.35,315.35,433.52,316.37,433.67,317.4z"/>
	<path style="fill-rule:evenodd;clip-rule:evenodd;fill:#E5B853;" d="M479.46,320.28c0.27,0.29,0.57,0.56,0.81,0.88
		c0.87,1.15,1.74,2.58,1.19,3.83c-0.44,1.02-2.11,0.91-3.28,0.99c-4.9,0.31-9.79,0.55-14.69,0.81c-0.79,0.19-0.66-0.35-0.53-0.75
		c0.27-0.82,0.88-1.41,1.54-1.94c2.22-1.81,4.81-2.81,7.54-3.5c1.59-0.4,3.2-0.66,4.83-0.85
		C477.77,319.64,478.71,319.55,479.46,320.28z"/>
	<path style="fill-rule:evenodd;clip-rule:evenodd;fill:#D4AA4D;" d="M399.58,315.22c-0.06,1.06-0.78,1.99-0.6,3.1
		c0.4,2.47,2.14,4.06,4.95,4.6c2.78,0.53,5.6,0.58,8.4,0.71c4.06,0.18,8.04,0.61,11.84,2.25c0.89,0.38,2.04,0.14,3.07,0.19
		c-3.47,0.38-6.95,0.51-10.44,0.5c-1.9-0.01-3.81-0.06-5.71-0.09c-2.57-0.17-5.15-0.01-7.71-0.33c-2.35-0.29-4.32-1.29-5.87-3.07
		c-0.41-0.46-0.85-0.95-0.83-1.65c0.02-0.15,0.04-0.29,0.06-0.44c0.18-0.21,0.01-0.51,0.21-0.71l0,0c0.23-0.2,0.05-0.53,0.23-0.75
		c-0.02-0.08-0.01-0.14,0.04-0.21c0.14-0.15,0.1-0.36,0.2-0.52c-0.02-0.07-0.01-0.14,0.04-0.2c0.14-0.13,0.08-0.35,0.21-0.49
		C398.02,316.95,398.83,316.11,399.58,315.22z"/>
	<path style="fill-rule:evenodd;clip-rule:evenodd;fill:#D5AB4D;" d="M446.39,314.99c1.39-0.07,2.01,0.97,2.69,1.88
		c1.64,2.21,1.53,6.98-0.17,9.17c-0.29,0.37-0.55,0.8-1.13,0.75c-1.51-0.08-3.02-0.17-4.53-0.25c2.42-0.8,4.19-5.46,2.83-7.56
		c-0.88-1.37-2.26-1.66-3.77-1.59c0.01-1.03,0.07-2.06,0.03-3.08c-0.04-0.84,0.23-0.88,0.87-0.49
		C444.19,314.42,445.14,315.11,446.39,314.99z"/>
	<path style="fill-rule:evenodd;clip-rule:evenodd;fill:#D7AC4E;" d="M479.46,320.28c-3.33-0.63-6.44,0.4-9.55,1.33
		c-2.47,0.74-4.7,1.94-6.37,3.97c-0.29,0.36-0.78,0.77-0.05,1.2c-0.8,0.29-1.63,0.19-2.46,0.17c-0.17-0.11-0.33-0.11-0.47,0.04
		c-0.32,0.01-0.63,0.02-0.95,0.03c-0.4-2.26,1.21-3.54,2.48-4.96c0.3-0.34,0.83-0.49,0.87-1.06c3.87-0.24,7.79-0.92,11.23-2.44
		C477.06,317.31,478.01,318.83,479.46,320.28z"/>
	<path style="fill-rule:evenodd;clip-rule:evenodd;fill:#E5AB23;" d="M460.14,314.35c0.03-0.73-0.02-1.24-0.37-1.59
		c-1.03-1.02-0.77-2.21-0.36-3.31c0.42-1.11,1.54-0.97,2.49-0.94c0.86,0.02,1.59-0.17,2.37-0.61c0.68-0.38,1.65-0.07,2.36-0.75
		c0.15-0.14,0.17,0.44,0.03,0.6c-0.73,0.83-0.52,1.71-0.38,2.69c0.23,1.62,0.36,3.28-0.98,4.61c-0.49,0.49-1.02,0.71-1.72,0.61
		c-0.55-0.08-1.15-0.19-1.66-0.05C460.51,315.99,459.28,316.35,460.14,314.35z"/>
	<path style="fill-rule:evenodd;clip-rule:evenodd;fill:#F2E631;" d="M415.86,269.86c-0.18-0.87,0.21-1.02,1.12-0.86
		c2.79,0.47,5.54,1.07,8.27,1.82c0.4,0.11,0.86,0.08,0.96,0.7c0.08,0.52-0.01,0.83-0.49,1.05c-0.17,0.07-0.29,0.27-0.41,0.43
		c-0.46,0.63-0.35,1.63-1.42,1.89c-1.49,0.37-2.94,0.67-4.46,0.19C417.2,274.36,415.88,272.5,415.86,269.86z"/>
	<path style="fill-rule:evenodd;clip-rule:evenodd;fill:#DAA17C;" d="M413.53,256.01c1.04,0.79,2.13,0.45,3.21,0.16
		c0.6-0.03,0.85,0.34,0.91,0.85c0.09,0.81,0.32,1.6,0.24,2.43c-0.18,0.76-0.38,1.52-0.49,2.31c-0.26,1.82,0.44,3.32,1.42,4.76
		c0.28,0.42,0.83,0.82,0.45,1.47c-0.08-0.03-0.17-0.06-0.25-0.09c-0.09-0.06-0.18-0.11-0.27-0.16c-0.08,0.01-0.15-0.02-0.21-0.08
		c-0.09-0.05-0.17-0.11-0.26-0.16c-0.09,0.01-0.16-0.02-0.22-0.08c-0.09-0.05-0.16-0.1-0.24-0.17c-2.05-1.09-3.26-2.85-4.02-4.97
		c-0.11-0.3-0.11-0.7-0.31-0.89c-1.83-1.66,0.04-3.48-0.25-5.2C413.24,256.15,413.43,256.07,413.53,256.01z"/>
	<path style="fill-rule:evenodd;clip-rule:evenodd;fill:#E4AF8E;" d="M442.06,256.82c0.26,0.92,0.39,1.89,0.8,2.73
		c0.68,1.37,1.98,2.17,3.44,2.3c2.25,0.19,2.24,1.46,1.49,3.33c-0.55,1.36-1.46,2.56-1.77,4.03c-0.12,0.57-0.15,1.1,0.14,1.62
		l-0.02,0.01c-0.04,0.08-0.11,0.13-0.2,0.15c-0.08,0.04-0.16,0.07-0.24,0.1c-0.07,0.07-0.15,0.12-0.24,0.15
		c-0.08,0.03-0.16,0.06-0.23,0.09c-0.08,0.06-0.16,0.12-0.25,0.17c-0.08,0.02-0.15,0.05-0.23,0.07c-0.07,0.06-0.15,0.11-0.25,0.15
		c-2.65,1.31-5.39,2.24-8.39,2.26c-0.87,0.28-1.79-0.07-2.66,0.2c-0.16,0-0.32,0.01-0.49,0.01c-0.74-1.7-2.1-2.73-3.71-3.52
		c-0.89-0.44-1.75-0.95-2.55-1.54c-1.28-0.95-1.46-1.76-0.77-3.19c0.55-1.14,1.2-2.22,1.32-3.54c0.07-0.8-0.62-1.51-0.16-2.31
		c0.08-0.1,0.19-0.15,0.32-0.17c0.13,0,0.24,0.04,0.34,0.12c0.8,1.59,0.56,3.17-0.05,4.74c-0.16,0.41-0.39,0.79-0.56,1.19
		c-0.45,1.06-0.31,1.82,0.67,2.36c2.32,1.27,4.47,2.79,6.67,4.22c0.88,0.57,1.83,0.7,2.87,0.47c1.02-0.23,2.02-0.49,3-0.81
		c1.7-0.55,3.03-1.53,3.85-3.19c0.63-1.29,1.42-2.5,2.13-3.74c0.8-1.39,0.52-2.14-0.98-2.63c-1.96-0.65-3.33-1.84-3.84-3.9
		c-0.1-0.39-0.33-0.73-0.48-1.1C441.11,257.03,441.4,256.7,442.06,256.82z"/>
	<path style="fill-rule:evenodd;clip-rule:evenodd;fill:#94C7D7;" d="M468.48,307.32c0.16,0.16,0.33,0.31,0.49,0.47
		c-0.34,2.5-0.04,4.98,0.29,7.45c0.04,0.31,0.3,0.4,0.6,0.48c2.44,0.64,5.22-0.58,6.41-2.8c0.09-0.17,0.03-0.57,0.36-0.46
		c0.12,0.04,0.24,0.43,0.19,0.62c-0.32,1.27-0.87,2.49-2.13,3.01c-4.32,1.81-8.79,2.54-13.45,1.55c-0.27-0.06-0.56-0.07-0.73-0.34
		c0.24-0.12,0.47-0.31,0.72-0.36c0.58-0.11,1.19-0.27,1.77-0.22c2.58,0.25,4.24-1.08,4.51-3.73c0.05-0.47,0.14-0.99,0.01-1.43
		c-0.44-1.56-0.14-3,0.53-4.41c0.05,0.01,0.09-0.01,0.12-0.04C468.29,307.15,468.39,307.23,468.48,307.32z"/>
	<path style="fill-rule:evenodd;clip-rule:evenodd;fill:#DDA683;" d="M427.21,260.07c0.79,2.35,0,4.41-1.18,6.4
		c-0.65,1.1,0.03,1.85,0.87,2.39c1.33,0.86,2.79,1.54,4.08,2.46c0.96,0.68,2.17,1.33,1.98,2.86c-0.96,0.01-1.92,0.06-2.87,0.01
		c-2.9-0.16-2.95-0.22-2.73-3.05c0.06-0.8-0.3-1.15-1.04-1.27c-0.43-0.07-0.86-0.18-1.29-0.27c-1.16-0.32-1.44-0.8-1.04-1.88
		c0.25-0.67,0.61-1.28,1.08-1.84c1.29-1.53,2.07-3.19,1.28-5.24c-0.12-0.3-0.12-0.63,0.14-0.89c0.11-0.07,0.23-0.1,0.36-0.09
		C427.05,259.73,427.17,259.87,427.21,260.07z"/>
	<path style="fill-rule:evenodd;clip-rule:evenodd;fill:#E4AE8A;" d="M438.15,274.94c1.78-0.4,2.09,1.01,2.64,2.12
		c0.11,0.22,0.04,0.36-0.15,0.5c-0.97,0.7-1.9,1.45-2.89,2.1c-0.67,0.44-1.44,0.43-2.16,0.04c-0.49-0.26-0.94-0.68-1.46-0.81
		c-1.42-0.35-1.21-1.29-1.1-2.36c0.14-1.28,1.05-1.03,1.82-1.14C435.95,275.23,437.05,275.09,438.15,274.94z"/>
	<path style="fill-rule:evenodd;clip-rule:evenodd;fill:#D99974;" d="M426.73,259.79c-0.62,0.67,0.19,1.16,0.25,1.75
		c0.18,1.81-0.52,3.27-1.66,4.56c-0.46,0.52-0.73,1.13-1.05,1.73c-0.47,0.9,0,1.41,0.75,1.79c-1.99-0.28-3.95-0.68-5.75-1.62
		c-0.36-0.64-0.66-1.34-1.1-1.92c-1.56-2.1-1.42-4.3-0.53-6.58c1.33,0.81,1.48,1.17,1,2.5c0.09,1,0.39,1.95,0.89,2.81
		c1.01,1.75,2.65,2.15,4.34,1.12c2.14-1.32,2.68-3.2,1.56-5.48c-0.16-0.32-0.35-0.63-0.15-1.01
		C425.9,258.98,426.44,258.92,426.73,259.79z"/>
	<path style="fill-rule:evenodd;clip-rule:evenodd;fill:#94C8D8;" d="M459.18,314.35c-0.32,0.91-0.63,1.8-0.97,2.68
		c-0.03,0.08-0.29,0.13-0.41,0.09c-1.86-0.46-3.72-0.92-5.12-2.39c-0.43-0.46-0.49-0.84-0.07-1.34c1.23-1.48,2.96-1.76,4.7-2.02
		c0.11-0.02,0.32,0.02,0.33,0.07C457.89,312.54,459.04,313.18,459.18,314.35z"/>
	<path style="fill-rule:evenodd;clip-rule:evenodd;fill:#CAA249;" d="M396.69,321.43c0.99,1.35,2.02,2.62,3.58,3.4
		c2.31,1.16,4.82,1.17,7.3,1.43c1.17,0.12,2.38-0.22,3.54,0.21c-4.99,0.05-9.99-0.26-14.96,0.47c-0.34,0.05-0.66,0.01-0.55-0.5
		C395.96,324.77,396.32,323.1,396.69,321.43z"/>
	<path style="fill-rule:evenodd;clip-rule:evenodd;fill:#E4AA23;" d="M420.77,278.52c-0.54,0.1-0.91-0.09-1.27-0.66
		c-0.72-1.14-1.9-1.61-3.2-1.39c-0.84,0.14-0.94-0.37-1.15-0.87c-0.3-0.74-0.32-1.51,0.09-2.19c0.18-0.3,0.37,0.11,0.47,0.27
		c1.8,2.84,7,3.7,9.49,1.45c0.13-0.12,0.47-0.47,0.49-0.11c0.03,0.54,0.89,1.01,0.17,1.6C424.4,277.81,422.76,278.55,420.77,278.52z
		"/>
	<path style="fill-rule:evenodd;clip-rule:evenodd;fill:#F1E531;" d="M469.86,311.15c-0.03-0.89,0.03-1.96,0.33-3.01
		c0.14-0.49,0.35-0.67,0.83-0.37c0.23,0.15,0.52,0.21,0.76,0.34c0.84,0.46,2.06,0.64,1.92,1.95c-0.16,1.49-0.28,3.16-2.18,3.55
		c-0.57,0.12-0.84,0.97-1.19,0.69c-0.62-0.5-0.44-1.39-0.46-2.14C469.85,311.89,469.86,311.62,469.86,311.15z"/>
	<path style="fill-rule:evenodd;clip-rule:evenodd;fill:#586B6C;" d="M471.38,318.65c-5.16,1.73-10.3,1.64-15.4-0.22
		c-0.44-0.16-0.83-0.47-1.23-0.73c-0.12-0.08-0.3-0.29-0.27-0.36c0.12-0.26,0.32-0.05,0.48,0c2.24,0.72,4.5,1.24,6.84,1.55
		c3.17,0.42,6.26,0.15,9.36-0.48C471.24,318.47,471.4,318.49,471.38,318.65z"/>
	<path style="fill-rule:evenodd;clip-rule:evenodd;fill:#C6483A;" d="M442.32,281.03c-0.16,0.51,0.11,1.31-0.7,1.18
		c-1.17-0.2-2.24-0.77-3.06-1.61c-0.25-0.25,2.12-2,2.73-1.79C442.36,279.17,441.97,280.31,442.32,281.03z"/>
	<path style="fill-rule:evenodd;clip-rule:evenodd;fill:#DDA624;" d="M473.54,307.28c2.56,1.28,2.94,4.7,0.7,6.46
		c-0.15,0.12-0.44,0.3-0.49,0.25c-0.28-0.23,0.06-0.38,0.15-0.56c0.97-2.05,1.19-4.04-0.41-5.9
		C473.42,307.43,473.44,307.35,473.54,307.28z"/>
	<path style="fill-rule:evenodd;clip-rule:evenodd;fill:#DFAB88;" d="M410.95,261.28c-0.73-0.06-1.39-0.02-1.32-0.84
		c0.09-0.94,0.68-1.48,1.61-1.61c0.33-0.04,0.79,0.03,0.58,0.44C411.49,259.94,411.91,261.03,410.95,261.28z"/>
	<path style="fill-rule:evenodd;clip-rule:evenodd;fill:#BE483B;" d="M432.47,281.9c-0.31-0.79,0.91-1.18,0.45-2.05
		c-0.05-0.09,0.82,0.07,1.23,0.21c0.39,0.13,0.63,0.39,0.28,0.79c-0.5,0.56-0.93,1.24-1.55,1.61
		C432.11,282.92,432.63,282.05,432.47,281.9z"/>
	<path style="fill-rule:evenodd;clip-rule:evenodd;fill:#DDA683;" d="M433.45,274.18c0.86-0.45,1.77-0.13,2.66-0.2
		C435.23,274.26,434.34,274.18,433.45,274.18z"/>
	<path style="fill-rule:evenodd;clip-rule:evenodd;fill:#A8A7A7;" d="M471.84,318.35c0.47-0.37,1.04-0.46,1.6-0.56
		c0.13-0.01,0.19,0.05,0.16,0.18c-0.59,0.19-1.18,0.38-1.77,0.57c-0.08-0.05-0.1-0.09-0.07-0.14
		C471.78,318.37,471.81,318.35,471.84,318.35z"/>
	<path style="fill-rule:evenodd;clip-rule:evenodd;fill:#A7A7A7;" d="M473.44,317.79c0.27-0.2,0.56-0.35,0.91-0.3
		c-0.11,0.38-0.43,0.42-0.75,0.48C473.55,317.92,473.49,317.86,473.44,317.79z"/>
	<path style="fill-rule:evenodd;clip-rule:evenodd;fill:#C8C8C8;" d="M471.84,318.35c-0.01,0.07-0.02,0.13-0.01,0.2
		c-0.15,0.03-0.3,0.06-0.45,0.1c-0.07-0.08-0.15-0.17-0.22-0.25C471.39,318.38,471.61,318.37,471.84,318.35z"/>
	<path style="fill-rule:evenodd;clip-rule:evenodd;fill:#A69C7A;" d="M473.54,307.28c-0.02,0.08-0.04,0.17-0.05,0.25
		c-0.14-0.12-0.29-0.24-0.43-0.36C473.27,307,473.41,307.11,473.54,307.28z"/>
	<path style="fill-rule:evenodd;clip-rule:evenodd;fill:#CAA249;" d="M396.95,320.28c0.01,0.26,0.05,0.53-0.21,0.71
		C396.81,320.75,396.88,320.52,396.95,320.28z"/>
	<path style="fill-rule:evenodd;clip-rule:evenodd;fill:#CAA249;" d="M397.18,319.52c0.02,0.28,0.06,0.57-0.23,0.75
		C397.03,320.02,397.1,319.77,397.18,319.52z"/>
	<path style="fill-rule:evenodd;clip-rule:evenodd;fill:#C79F48;" d="M460.56,327c0.14-0.23,0.3-0.25,0.47-0.04
		C460.88,326.98,460.72,326.99,460.56,327z"/>
	<path style="fill-rule:evenodd;clip-rule:evenodd;fill:#D5AB4D;" d="M442.31,317.4c0.01,0.22-0.05,0.4-0.3,0.45
		C442.11,317.7,442.21,317.55,442.31,317.4z"/>
	<path style="fill-rule:evenodd;clip-rule:evenodd;fill:#CAA249;" d="M397.67,318.11c-0.07,0.16-0.14,0.33-0.21,0.49
		C397.53,318.43,397.6,318.27,397.67,318.11z"/>
	<path style="fill-rule:evenodd;clip-rule:evenodd;fill:#CAA249;" d="M397.42,318.79c-0.07,0.17-0.13,0.35-0.2,0.52
		C397.28,319.14,397.35,318.97,397.42,318.79z"/>
	<path style="fill-rule:evenodd;clip-rule:evenodd;fill:#DAA17D;" d="M444.49,271.72c0.08-0.05,0.16-0.1,0.25-0.15
		C444.66,271.62,444.57,271.67,444.49,271.72z"/>
	<path style="fill-rule:evenodd;clip-rule:evenodd;fill:#DAA17D;" d="M444.97,271.5c0.08-0.06,0.17-0.11,0.25-0.17
		C445.13,271.39,445.05,271.44,444.97,271.5z"/>
	<path style="fill-rule:evenodd;clip-rule:evenodd;fill:#DAA17D;" d="M445.45,271.24c0.08-0.05,0.16-0.1,0.24-0.15
		C445.61,271.14,445.53,271.19,445.45,271.24z"/>
	<path style="fill-rule:evenodd;clip-rule:evenodd;fill:#DAA17D;" d="M445.93,270.98c0.07-0.05,0.13-0.1,0.2-0.15
		C446.07,270.88,446,270.93,445.93,270.98z"/>
	<path style="fill-rule:evenodd;clip-rule:evenodd;fill:#D99974;" d="M418.75,267.74c0.09,0.05,0.18,0.11,0.27,0.16
		C418.93,267.85,418.84,267.79,418.75,267.74z"/>
	<path style="fill-rule:evenodd;clip-rule:evenodd;fill:#D99974;" d="M418.28,267.5c0.09,0.05,0.17,0.11,0.26,0.16
		C418.46,267.6,418.37,267.55,418.28,267.5z"/>
	<path style="fill-rule:evenodd;clip-rule:evenodd;fill:#D99974;" d="M417.83,267.25c0.08,0.06,0.16,0.11,0.24,0.17
		C417.99,267.36,417.91,267.31,417.83,267.25z"/>
	<path style="fill-rule:evenodd;clip-rule:evenodd;fill:#DAA17C;" d="M413.97,255.66c-0.1,0.09-0.19,0.18-0.29,0.27
		C413.78,255.84,413.88,255.75,413.97,255.66z"/>
	<path style="fill-rule:evenodd;clip-rule:evenodd;fill:#E4AE8A;" d="M500.68,261.73c0.06,0.46-0.52,0.99-0.09,1.34
		c0.49,0.4,0.69-0.22,1-0.51c0.34-0.32,0.57,0.09,0.8,0.26c3.28,2.51,6.89,4.17,11.11,4.14c0.59,0,0.63,0.22,0.28,0.6
		c-1.26,1.33-2.27,2.78-2.42,4.69c-0.03,0.37-0.32,0.53-0.68,0.54c-0.52,0.01-1.09,0.17-1.55,0.01c-4.22-1.5-8.76-2.38-12-5.84
		c-3.12-3.33-4.34-7.18-3.02-11.68c0.08-0.27,0.39-0.58,0.03-0.87c-0.3-0.23-0.59-0.11-0.9,0.03c-0.81,0.38-1.54-0.13-1.17-0.74
		c0.64-1.08,0.66-2.84,2.42-2.99c0.72-0.06,0.68-0.59,0.82-0.99c0.62-1.81,1.02-3.7,2.07-5.34c0.46-0.72,0.93-1.25,2.01-1.09
		c1.51,0.22,2.39-0.91,3.11-2.05c0.37-0.58,0.67-0.8,1.41-0.62c1.36,0.33,2.43-0.34,3.2-1.4c0.41-0.57,0.68-0.62,1.34-0.37
		c1.67,0.63,3.3,0.45,4.73-0.71c0.31-0.25,0.63-0.66,0.9-0.05c0.56,1.25,1.53,1.03,2.52,0.77c0.85-0.23,1.69-0.47,2.53-0.7
		c0.59-0.16,1.25-0.08,1.51,0.43c0.7,1.35,1.96,1.14,3.09,1.25c1.46,0.14,2.87,0.09,2.95,2.21c0.04,1.03,1.05,1.46,2.06,1.43
		c0.68-0.02,0.96,0.11,1.02,0.88c0.1,1.34,0.55,2.53,2.17,2.7c0.61,0.06,0.37,0.5,0.37,0.81c0.01,2.44,0.49,3.12,2.82,3.71
		c0.51,0.13,0.89,0.32,0.8,0.82c-0.18,1.03,0.54,2.26-0.99,3.03c-0.58,0.29-0.47,1.61-0.32,2.49c0.6,3.67-0.06,7.07-2.11,10.19
		c-0.77,1.18-1.69,2.22-2.9,2.99c-0.53,0.34-0.84,0.32-1.03-0.34c-0.12-0.42-0.33-0.81-0.52-1.21c-0.4-0.83-1.3-1.54,0.31-2.32
		c1.05-0.51,0.61-1.84,0.27-2.84c0.14-0.51,0.59-0.72,0.95-1.02c2.22-1.83,2.55-4.09,0.96-6.49c-0.29-0.43-0.66-0.79-0.91-1.25
		c-0.1-0.24-0.03-0.46,0.05-0.68c0.06-0.16,0.13-0.32,0.19-0.48c0.83-2.13,0.45-4.15-0.54-6.13c-0.34-0.69-0.87-1.13-1.63-1.28
		c-0.74-0.14-1.51-0.2-1.99-0.94c-0.19-0.29-0.43-0.15-0.54,0.11c-0.28,0.67-0.95,0.82-1.48,1.14c-0.56,0.34-1.06,0.39-1.31-0.38
		c-0.05-0.14-0.13-0.36-0.31-0.31c-0.23,0.06-0.23,0.31-0.21,0.5c0.08,0.95-0.42,1.5-1.13,2.08c-2,1.65-1.69,4.38,0.58,5.63
		c0.42,0.23,0.88,0.38,1.3,0.61c0.77,0.43,0.77,0.67,0.05,1.16c-0.26,0.18-0.76,0.13-0.68,0.66c0.47,0.35,0.61,0.83,0.55,1.38
		c-0.19,1.6,0.29,2.98,1.28,4.22c0.25,0.32,0.67,0.63,0.36,1.15c-2.06,1.26-4.45,1.2-6.7,1.59c-3.88,0.67-7.69,0.1-11.29-1.58
		c-0.16-0.51,0.13-0.86,0.49-1.12c2.09-1.52,2.66-3.56,2.12-6.01c-0.06-0.27-0.04-0.56,0.07-0.82c0.05-0.1,0.13-0.19,0.23-0.24
		c0.31-0.19,0.78,0.27,1.02-0.23c-0.47-0.7-0.12-1.21,0.37-1.68c0.72-0.7,1.36-1.45,1.65-2.44c0.44-1.49,0.02-2.77-1.24-3.68
		c-0.58-0.42-1.2-0.78-1.88-1.04c-0.56-0.22-1.11-0.48-1.46-1c-0.29-0.42-0.53-0.66-1.02-0.23c-0.32,0.28-0.71,0.07-0.99-0.13
		c-0.84-0.61-1.49-0.49-2.14,0.33c-0.43,0.53-1.13,0.74-1.76,0.98c-0.66,0.25-1.01,0.71-1.16,1.39c-0.45,2.01-0.24,3.88,1.06,5.55
		c0.06,0.1,0.11,0.21,0.15,0.32c0,0.06,0.01,0.12,0.01,0.18c-0.06,0.33-0.26,0.58-0.48,0.81c-1.72,1.84-1.92,3.86-0.74,6.05
		C500.6,261.26,500.64,261.49,500.68,261.73z"/>
	<path style="fill-rule:evenodd;clip-rule:evenodd;fill:#E8B31C;" d="M533.03,238.42c2.52-0.04,2.54-0.05,3.31,2.35
		c0.14,0.45,0.34,0.75,0.75,1c2.32,1.36,3.1,3.02,2.66,5.72c-0.08,0.53-0.09,0.96,0.19,1.46c0.73,1.3,0.57,2.75,0.25,4.1
		c-0.64,2.75-0.37,5.48-0.11,8.22c0.08,0.89-0.01,1.75-0.27,2.59c-0.08,0.25-0.29,0.67-0.41,0.66c-1.51-0.09-1,0.99-1.07,1.75
		c-0.06,0.71-0.09,1.44-0.26,2.13c-0.13,0.53-0.35,1.39-0.67,1.46c-2.06,0.45-3.21,2.67-5.43,2.7c-0.42,0.01-1.03,0.17-1.22-0.23
		c-0.22-0.47,0.43-0.67,0.71-0.96c3.6-3.76,4.72-8.3,4.3-13.34c-0.05-0.55-0.2-1.08,0.28-1.57c2.01-2.08,1.44-5.48-1.25-6.61
		c-1.2-0.5-1.42-1.02-1.11-2.18c0.27-1.02-0.05-1.87-1.38-1.78c-1,0.07-1.27-0.55-1.24-1.36c0.05-1.68-0.45-2.7-2.4-2.29
		c-0.7,0.15-0.81-0.48-1-0.96c-0.98-2.45-1.25-2.68-3.89-2.57c-1.14,0.04-2.03-0.24-2.7-1.18c-0.6-0.83-1.36-1.04-2.3-0.57
		c-0.54,0.26-1.1,0.48-1.66,0.67c-0.97,0.33-1.85,0.44-2.43-0.73c-0.31-0.63-0.72-0.95-1.43-0.2c-1.42,1.47-3.36,1.76-5.17,0.81
		c-0.65-0.34-0.82-0.15-1.14,0.39c-0.95,1.59-2.2,2-3.81,1.28c-0.44-0.2-0.58-0.15-0.8,0.27c-0.81,1.57-1.65,3.13-3.91,2.38
		c-0.37-0.12-0.52,0.3-0.71,0.54c-1.27,1.66-2.33,3.46-2.92,5.46c-0.33,1.14-0.84,2-1.92,2.53c-0.42,0.2-0.9,0.43-0.49,1.09
		c0.28,0.45-0.18,0.62-0.45,0.82c-1.3,0.92-1.29,2.42,0.11,3.14c0.55,0.29,0.61,0.53,0.55,1.09c-0.54,5.51,1.32,9.95,5.98,13.11
		c1.76,1.19,3.68,2.08,5.66,2.85c0.26,0.1,0.65,0.13,0.64,0.43c-0.01,0.16-0.41,0.38-0.66,0.43c-1.04,0.23-2.16,0.63-2.84-0.65
		c-0.22-0.41-0.45-0.18-0.7-0.14c-0.71,0.1-1.42,0.17-2.12,0.32c-0.93,0.2-1.51-0.16-1.7-1.03c-0.23-1.07-0.97-1.33-1.89-1.43
		c-0.55-0.06-1.11-0.13-1.65-0.26c-1.23-0.29-2.2-0.64-1.85-2.37c0.3-1.49,0.22-3.04-1.86-3.57c-0.73-0.19-1.15-1.11-0.88-2.01
		c0.37-1.22,0.78-2.43,1.2-3.63c0.42-1.23,0.31-2.2-1.13-2.65c-0.93-0.29-1.18-0.92-0.96-1.87c0.22-0.96,0.65-1.79,1.17-2.6
		c0.38-0.59,0.99-1.15-0.02-1.76c-0.28-0.17-0.13-0.61,0-0.9c0.27-0.62,0.58-1.22,0.88-1.83c0.75-1.56,2.34-2.44,2.73-4.45
		c0.34-1.73,2.04-3.18,3.53-4.43c0.27-0.22,0.54-0.41,0.7-0.78c1.22-2.73,3.13-3.91,6.04-3.61c0.7,0.07,1.2-0.1,1.78-0.4
		c1.8-0.92,3.63-1.82,5.56-0.23c0.45,0.38,0.73-0.12,1.03-0.31c1.35-0.89,2.95-2.04,4.39-1.58c2.04,0.65,4.13,0.34,6.1,0.93
		c1.29,0.39,2.41,1.13,3.09,2.33c0.38,0.67,0.72,0.72,1.41,0.48c1.07-0.38,2.2-0.42,3.3-0.05c1,0.34,1.65,1.06,1.34,2.08
		c-0.47,1.56,0.38,1.57,1.45,1.51C532.55,238.41,532.79,238.42,533.03,238.42z"/>
	<path style="fill-rule:evenodd;clip-rule:evenodd;fill:#E4AE8A;" d="M496.93,304.9c0.08-1.96,0.57-3.8,1.31-5.58
		c0.11-0.27,0.18-0.77,0.57-0.65c1.46,0.45,2.75-0.22,4.1-0.49c0.25-0.05,0.6-0.3,0.75,0.02c0.14,0.3-0.25,0.45-0.44,0.63
		c-1.35,1.36-2.78,2.67-3.16,4.69c-0.04,0.21-0.27,0.47,0.03,0.61c0.11,0.05,0.35-0.14,0.5-0.26c0.91-0.75,1.51-1.75,2.13-2.73
		c0.79-1.24,1.69-2.33,3.2-2.71c0.17-0.04,0.38-0.15,0.47-0.3c1.09-1.66,2.8-2.48,4.51-3.25c0.86-0.39,1.24-0.9,1.44-1.79
		c0.76-3.34,2.72-5.72,5.92-7.02c0.24-0.1,0.52-0.1,0.78-0.15c0,0.27,0.06,0.56,0,0.81c-0.11,0.46-0.31,0.91-0.44,1.37
		c-0.46,1.62-0.17,2.03,1.48,2.09c0.55,0.02,1.12-0.37,1.62,0.32c0.21,0.29,0.51-0.22,0.67-0.46c0.57-0.87,0.47-1.83,0.33-2.79
		c-0.11-0.72,0.08-0.92,0.83-0.75c2.39,0.56,3.05,2.48,1.49,4.4c-0.33,0.4-0.69,0.79-0.97,1.22c-0.17,0.27-0.6,0.61-0.23,0.91
		c0.21,0.17,0.72,0.12,1.02,0c0.85-0.33,1.31-1.14,1.95-1.74c0.2-0.19,0.4-0.45,0.71-0.32c0.33,0.13,0.23,0.47,0.26,0.73
		c0.09,0.86-0.29,1.55-0.79,2.2c-0.49,0.63-1.02,1.23-1.5,1.88c-0.19,0.26-0.61,0.6-0.31,0.92c0.35,0.37,0.89,0.22,1.19-0.1
		c0.65-0.69,1.21-1.48,1.82-2.21c0.2-0.24,0.48-0.58,0.78-0.44c0.38,0.18,0.21,0.64,0.16,0.96c-0.15,0.8-0.75,1.29-1.31,1.8
		c-0.35,0.32-0.73,0.63-1,1.01c-0.26,0.38-0.26,0.92,0.08,1.22c0.32,0.27,0.65-0.13,0.93-0.33c0.23-0.16,0.4-0.4,0.61-0.57
		c0.3-0.25,0.62-0.87,0.88-0.66c0.37,0.3,0.14,0.98-0.14,1.3c-1.85,2.13-3.83,4.17-6.8,4.53c-1.32,0.16-2.43-0.88-3.62-1.39
		c-1.18-0.5-2-0.22-2.57,0.67c-2.54,3.98-6.44,5.24-10.82,5.62c-1.73,0.15-3.43-0.03-5.06-0.65c-0.45-0.17-0.8-0.44-1.17,0.24
		c-0.27,0.49-1.78,0.1-1.91-0.48C497.1,306.49,497.04,305.69,496.93,304.9z"/>
	<path style="fill-rule:evenodd;clip-rule:evenodd;fill:#E4AE8A;" d="M540.62,309.49c-4.77-0.08-9.05-1.12-13.38-1.8
		c-0.16-0.02-0.31-0.1-0.47-0.1c-0.46-0.02-1.14-0.21-1.32,0.01c-0.34,0.41-0.01,1.01,0.26,1.44c0.61,0.97,0.15,1.52-0.71,1.83
		c-0.75,0.26-1.56,0.52-2.33,0.49c-1.07-0.04-1.35,0.51-1.56,1.36c-0.29,1.16-0.64,2.3-1,3.44c-0.11,0.33-0.3,0.65-0.5,0.95
		c-0.63,0.93-1.64,1.74-2.58,1.26c-0.85-0.44-0.3-1.66,0.03-2.48c0.38-0.96,0.89-1.87,1.33-2.81c0.25-0.52,0.49-1.19-0.08-1.52
		c-0.69-0.4-0.77,0.46-1.01,0.82c-0.96,1.42-1.63,3.03-2.89,4.25c-0.22,0.21-0.48,0.59-0.77,0.4c-0.16-0.11-0.13-0.6-0.08-0.9
		c0.13-0.87,0.75-1.48,1.21-2.18c0.5-0.77,1.07-1.51,1.05-2.49c-0.01-0.3-0.04-0.74-0.23-0.87c-0.34-0.22-0.55,0.21-0.73,0.43
		c-0.68,0.83-1.32,1.71-1.99,2.54c-0.45,0.56-0.91,1.12-1.44,1.6c-0.31,0.29-0.74,0.89-1.15,0.53c-0.34-0.3,0.04-0.92,0.3-1.3
		c0.66-0.99,1.4-1.94,2.07-2.93c0.18-0.27,0.48-0.68,0.12-0.95c-0.3-0.23-0.69,0.03-0.98,0.24c-0.77,0.56-1.07,1.48-1.61,2.21
		c-0.57,0.77-1.3,1.87-2.24,1.35c-1.01-0.56-0.54-1.8-0.07-2.69c0.9-1.7,1.77-3.32,3.93-3.96c2-0.59,3.67-2.01,4.93-3.68
		c0.99-1.3,2.12-1.24,3.08-0.45c1.71,1.4,3.31,0.86,5.01,0.21c1.28-0.48,2.54-1.04,3.58-1.9c1.7-1.41,3.73-1.38,5.69-1.36
		c2.3,0.02,4.63,0.18,6.82,1.04c0.28,0.11,0.62,0.13,0.93,0.12c0.35-0.02,0.6-0.27,0.66-0.6c0.08-0.4-0.3-0.42-0.53-0.51
		c-1.05-0.37-2.11-0.71-3.17-1.06c-0.62-0.21-1.21-0.5-1.53-1.09c-0.39-0.72-0.46-1.35,0.57-1.65c2.38-0.67,4.74-1.14,7.11,0.04
		c0.13,0.06,0.31,0.16,0.42,0.11c0.71-0.29,0.71-0.3,1.02,0.47c1.11,2.84,1.64,5.82,2.22,8.79c0.14,0.71-0.26,1.02-0.73,1.35
		C545.6,309.12,542.96,309.43,540.62,309.49z"/>
	<path style="fill-rule:evenodd;clip-rule:evenodd;fill:#C9A149;" d="M518.92,323.19c-3.01,0.24-6.03,0.49-9.04,0.72
		c-2.23,0.17-4.48,0.16-6.68,0.49c-4.52,0.68-9.1,0.5-13.61,1.16c-0.15-0.37,0.09-0.62,0.3-0.85c2.78-3.19,1.27-7.46-2.04-8.88
		c-0.18-0.08-0.35-0.19-0.44-0.38c0.5-1.38,1.15-2.69,1.5-4.14c0.18-0.75,0.49-1.89,1.75-0.84c0.2,0.17,0.69-0.01,1.05-0.03
		c2.75-0.15,5.49-0.3,8.24-0.46c1.06-0.06,1.91-1.37,3.13-0.51c-2.07,1.19-2.71,2.64-2.21,5.14c0.38,1.88,1.43,3.35,2.96,4.49
		c2.03,1.5,4.36,2.28,6.82,2.74c2.08,0.39,4.19,0.48,6.28,0.76C517.61,322.68,518.36,322.63,518.92,323.19z"/>
	<path style="fill-rule:evenodd;clip-rule:evenodd;fill:#CDA44A;" d="M557.99,323.38c-6.45-0.24-12.9-0.54-19.35-0.71
		c-3.54-0.09-7.1,0.02-10.64,0.04c0.07-0.87,0.84-0.81,1.39-1.03c4.03-1.64,8.26-2.38,12.58-2.72c1.73-0.13,3.35-0.74,4.81-1.71
		c2.62-1.75,3.46-4.84,2.11-7.69c-0.17-0.35-0.46-0.68-0.27-1.11c0.65-0.7,1.3-1.4,1.95-2.1c0.24,0.4,0.55,0.75,1.05,0.61
		c2.02-0.54,4.13-0.3,6.16-0.75c0.74-0.16,1.2,0.03,1.57,0.69c0.81,1.47,1.62,2.93,2.22,4.5c-0.28,0.48-0.8,0.46-1.24,0.62
		c-2.62,0.95-4.48,2.58-4.77,5.52c-0.18,1.84,0.54,3.41,1.7,4.81C557.52,322.68,558.01,322.85,557.99,323.38z"/>
	<path style="fill-rule:evenodd;clip-rule:evenodd;fill:#D1D626;" d="M533.62,299.39c-0.4,0-0.8,0.01-1.2,0
		c-1.02-0.02-3.13,1.06-1.56-1.56c-0.86-1.73-0.8-3.69-1.34-5.52c-0.56-1.91-2.47-2.68-2.79-4.68c-0.25-1.59-2.41-2.4-4.46-2.19
		c-0.41,0.04-0.98,0.33-0.96-0.41c0.02-0.71-0.58-1.77,0.46-2.07c2.29-0.67,4.54-1.32,5.99-3.43c0.18-0.27,0.46-0.18,0.63-0.01
		c1.1,1.05,2.68,1.37,3.68,2.61c3.57,4.42,7.5,8.49,12.06,11.92c0.37,0.28,0.97,0.65,0.79,1.08c-0.14,0.32-0.76-0.11-1.18-0.14
		c-2.11-0.15-4.25-0.32-6.25,0.57c-0.89,0.4-1.29,0.21-1.61-0.66c-0.28-0.75-0.41-1.66-1.39-1.92c-0.15,0.82,0.19,1.54,0.46,2.27
		c0.38,1.01,0.78,2.01,1.19,3c0.33,0.83,0.2,1.29-0.84,1.16C534.74,299.33,534.18,299.39,533.62,299.39z"/>
	<path style="fill-rule:evenodd;clip-rule:evenodd;fill:#DCB050;" d="M548.61,308.45c2.92,4.51,0.69,9.16-5.12,10.6
		c-2.81,0.7-5.77,0.45-8.57,1.23c-2.36,0.66-4.72,1.32-6.93,2.42c-3.01,0.34-6.04,0.44-9.07,0.48c-4.18-0.64-8.47-0.56-12.49-2.19
		c-4-1.62-6.24-4.61-6.04-8.38c0.11-2.07,0.98-3.09,2.67-3.16c0.87-0.06,1.73-0.12,2.6-0.18c0.05,0.58-0.4,0.85-0.75,1.14
		c-2.53,2.06-1.47,4.89,0.3,6.26c1.56,1.2,3.34,1.87,5.23,2.29c3.6,0.81,7.29,0.92,10.95,1.17c1.38,0.09,2.75,0.34,4.18,0.14
		c1.77-0.25,3.46-0.66,5.06-1.4c2.92-1.36,6.02-1.85,9.19-2.06c1.24-0.08,2.46-0.31,3.67-0.57c0.96-0.21,1.8-0.67,2.52-1.33
		c1.22-1.12,1.53-2.48,0.92-4.02c-0.13-0.33-0.31-0.65-0.35-1.02c0-0.14,0.04-0.26,0.14-0.36c0.05-0.06,0.11-0.08,0.19-0.07
		c0.09-0.05,0.19-0.1,0.28-0.16c0.05-0.06,0.12-0.09,0.2-0.08c0.11-0.04,0.19-0.11,0.28-0.18c0.03-0.06,0.08-0.09,0.15-0.07
		c0.15-0.01,0.24-0.1,0.33-0.2l0.01-0.01c0.07-0.07,0.15-0.13,0.23-0.18C548.46,308.53,548.54,308.49,548.61,308.45z"/>
	<path style="fill-rule:evenodd;clip-rule:evenodd;fill:#E6B954;" d="M520.32,317.89c0.78-1.39,1.39-2.87,1.75-4.42
		c0.19-0.8,0.58-1.18,1.43-1.28c0.74-0.09,1.46-0.36,2.17-0.62c0.77-0.28,1.28-0.81,1.15-1.72c-0.15-1.07,0.37-1.13,1.27-0.96
		c4.27,0.8,8.51,1.75,12.9,1.65c1.36-0.03,2.69-0.23,4.04-0.38c1.04,0.38,1.31,1.22,1.29,2.2c-0.03,1.17-0.69,1.96-1.73,2.37
		c-1.46,0.58-3.01,0.79-4.57,0.88c-3.73,0.22-7.39,0.66-10.68,2.68c-0.95,0.59-2.07,0.82-3.19,0.96c-1.6,0.2-3.18-0.01-4.75-0.3
		C520.83,318.84,520.27,318.65,520.32,317.89z"/>
	<path style="fill-rule:evenodd;clip-rule:evenodd;fill:#D1D626;" d="M506.54,293.24c-0.45,4.02,0.38,3.54-3.71,3.97
		c-0.87,0.09-1.74,0.23-2.61,0.32c-0.33,0.04-0.74,0.46-0.97,0.07c-0.13-0.21,0.08-0.69,0.23-0.99c2.42-4.87,5.48-9.31,8.88-13.54
		c1.1-1.37,2.32-2.64,3.44-3.99c0.47-0.57,0.76-0.63,1.26,0c1.55,1.95,3.62,3.09,6.02,3.66c0.48,0.11,0.87,0.19,0.8,0.8
		c-0.06,0.47-0.08,0.89-0.72,1.06c-4.25,1.14-6.78,3.98-7.96,8.14c-0.11,0.39-3.07,2.55-3.46,2.56c-0.43,0.01-0.27-0.24-0.24-0.47
		c0.06-0.51,0.34-0.99,0.16-1.53c-0.17-0.51-0.39-1.13-0.98-1.02C506.17,292.37,506.66,292.95,506.54,293.24z"/>
	<path style="fill-rule:evenodd;clip-rule:evenodd;fill:#E2B652;" d="M520.32,317.89c0.38,0.9,1.29,0.8,1.96,0.88
		c2.75,0.33,5.39,0.18,7.92-1.33c2.16-1.29,4.62-1.85,7.18-1.99c2.09-0.11,4.2-0.38,6.26-0.77c2.52-0.48,3.02-2.3,1.38-4.53
		c0.41-0.15,0.81-0.29,1.22-0.44c0.16-0.13,0.32-0.15,0.48,0.02c2.49,3.4-0.4,6.43-3.37,6.92c-2.89,0.48-5.8,0.81-8.71,1.22
		c-1.52,0.22-2.91,0.88-4.26,1.51c-3.57,1.66-7.26,1.38-10.98,0.94c-3.03-0.36-6.11-0.27-9.1-1.01c-2.07-0.51-4.03-1.26-5.69-2.65
		c-2.06-1.74-2.1-4.57-0.1-6.38c0.38-0.35,0.77-0.68,1.16-1.02c0.71-0.2,1.68-0.72,2.1-0.25c0.42,0.47-0.44,1.24-0.65,1.91
		c-0.34,1.06-1.18,2.04-0.64,3.27c0.23,0.53,0.6,0.99,1.15,1.16c0.76,0.24,1.27,0.59,1.68,1.36c0.49,0.92,1.34,0.38,1.95-0.06
		c0.69-0.5,1.19-0.98,1.15,0.45c-0.02,0.68,0.31,1.33,1.14,1.47c0.16-0.1,0.39-0.06,0.52-0.22l0.01,0c0.06-0.06,0.14-0.11,0.22-0.15
		c0.03-0.07,0.08-0.11,0.15-0.12c0.16-0.02,0.26-0.1,0.33-0.25l-0.02,0.01c0.12-0.05,0.21-0.13,0.26-0.25l0-0.01
		c0.62-0.05,0.2,0.6,0.5,0.76c0.05,0.05,0.05,0.11,0.02,0.17c0.04,0.1,0.09,0.2,0.15,0.29c0.07,0.03,0.1,0.09,0.09,0.16
		c0.02,0.15,0.11,0.25,0.24,0.31l-0.01-0.01c0.07,0.13,0.17,0.22,0.33,0.24c0.51,0,1.02,0,1.53,0c0.17-0.1,0.38-0.06,0.53-0.2
		c0.05-0.06,0.12-0.07,0.2-0.04c0.16-0.1,0.39-0.05,0.52-0.24l0,0c0.08-0.06,0.17-0.12,0.26-0.18l0.05-0.04
		c0.03-0.09,0.1-0.15,0.19-0.18C519.84,318.41,520.08,318.15,520.32,317.89z"/>
	<path style="fill-rule:evenodd;clip-rule:evenodd;fill:#E4B753;" d="M487.41,315.44c2.03,0.43,3.19,1.78,3.91,3.63
		c0.8,2.06,0.3,3.88-0.94,5.58c-0.23,0.32-0.51,0.6-0.77,0.9c-1.45,0.36-2.93,0.15-4.4,0.2c-0.7,0.02-0.61-0.32-0.47-0.84
		c0.67-2.66,1.3-5.33,1.94-7.99c0.1-0.16,0.19-0.32,0.29-0.48c0.16-0.14,0.11-0.36,0.22-0.52c-0.01-0.08,0.01-0.14,0.07-0.2
		C487.3,315.63,487.36,315.54,487.41,315.44L487.41,315.44z"/>
	<path style="fill-rule:evenodd;clip-rule:evenodd;fill:#C5177F;" d="M525.13,274.47c0.06,1.09-0.09,2.03-0.51,2.9
		c-0.16,0.33-0.24,0.83-0.79,0.73c-0.58-0.11-0.75-0.6-0.77-1.08c-0.02-0.38,0.12-0.78,0.28-1.14c0.47-1.1-0.09-2.13-1.24-2.18
		c-0.35-0.02-0.8-0.09-0.93,0.34c-0.11,0.38,0.16,0.72,0.54,0.81c0.81,0.2,0.5,0.59,0.14,0.89c-0.9,0.75-1.81,0.49-2.61-0.16
		c-0.77-0.63-1.19-1.45-0.62-2.42c0.98-1.66,3.49-2.28,5.18-1.37C524.93,272.4,525.31,273.35,525.13,274.47z"/>
	<path style="fill-rule:evenodd;clip-rule:evenodd;fill:#C31B1F;" d="M521.98,267.77c-0.04,1.48-1.7,3.11-3.32,3.32
		c-1.4,0.18-3.1-1.02-3.56-2.48c-0.15-0.47,0.07-0.67,0.4-0.86c1.79-1.07,3.75-1.52,5.83-1.44
		C522.56,266.35,521.77,267.33,521.98,267.77z"/>
	<path style="fill-rule:evenodd;clip-rule:evenodd;fill:#2E74B8;" d="M514.53,275.16c-1.69,0.01-2.37-0.96-2.09-3.01
		c0.05-0.35,0.15-0.71,0.29-1.03c0.31-0.73,0.53-1.75,1.24-1.93c0.52-0.13,0.72,1.01,1.2,1.48c0.28,0.28,0.61,0.54,0.8,0.88
		c0.37,0.63,1.96-0.01,1.49,1.43C516.84,274.85,516.42,275.15,514.53,275.16z"/>
	<path style="fill-rule:evenodd;clip-rule:evenodd;fill:#DD9B75;" d="M529.6,255.46c3.07,2.38,3.3,6.58-0.97,8.92
		c-0.35-0.69-1.76-0.96-0.79-2.18c0.45-0.57,0.83-0.62,1.4-0.22c0.26,0.18,0.41,0.77,0.8,0.48c0.38-0.28,0.23-0.8,0.09-1.22
		c-0.06-0.08-0.12-0.15-0.19-0.23l-0.03-0.04c-0.51-0.91-0.32-1.99-0.76-2.91c-0.05-0.35-0.14-0.68-0.35-0.98
		c-0.24-0.33-0.83-0.54-0.6-1.03C528.45,255.52,529.01,255.38,529.6,255.46z"/>
	<path style="fill-rule:evenodd;clip-rule:evenodd;fill:#E3AE1A;" d="M522.97,268.5c0.08-0.58-0.29-1.37,0.15-1.6
		c0.5-0.27,1.06,0.35,1.54,0.68c1.61,1.1,2.65,2.62,3.2,4.49c0.14,0.46,0.27,0.86-0.36,1.03c-0.49,0.13-1.03,0.41-1.36-0.23
		c-0.61-1.19-1.58-1.98-2.74-2.58C522.51,269.84,523.19,269.05,522.97,268.5z"/>
	<path style="fill-rule:evenodd;clip-rule:evenodd;fill:#309647;" d="M517.5,275.75c0.66,0.19,1.4,0.43,0.82,1.5
		c-0.5,0.91-1.02,1.81-1.48,2.73c-0.29,0.58-0.62,0.33-0.97,0.14c-1.19-0.68-2-1.68-2.57-2.91c-0.28-0.6-0.18-0.82,0.54-0.89
		C515.03,276.21,516.2,275.96,517.5,275.75z"/>
	<path style="fill-rule:evenodd;clip-rule:evenodd;fill:#D37451;" d="M504.86,260.53c-0.8-0.46-1.65-0.54-2.53-0.29
		c-0.39-0.35-0.42-0.84-0.5-1.31c-0.21-1.24,0.32-2.27,1.38-2.76c1-0.47,2.14-0.21,2.92,0.67c0.75,0.83,0.89,2.18,0.29,3.1
		C506.05,260.5,505.62,260.99,504.86,260.53z"/>
	<path style="fill-rule:evenodd;clip-rule:evenodd;fill:#D37653;" d="M529.41,257.85c0.48,0.99,0.6,2.04,0.5,3.13
		c-0.92-0.27-1.54-1.77-2.84-0.54c-0.35,0.33-0.65,0.33-0.23,0.79c0.38,0.42-0.03,0.71-0.25,1.01c-1.37-0.58-2.08-1.61-2.03-2.91
		c0.05-1.22,0.73-1.91,2.4-2.43C527.84,257.06,528.62,257.46,529.41,257.85z"/>
	<path style="fill-rule:evenodd;clip-rule:evenodd;fill:#E3AD1A;" d="M519.58,281.17c-0.29-0.03-0.57-0.05-0.84-0.08
		c-0.94-0.1-1.32-0.42-0.56-1.28c0.29-0.32,0.4-0.81,0.71-1.09c0.48-0.45-0.08-1.54,1.06-1.57c1.6-0.05,2.43,0.97,3.18,2.13
		c0.24,0.37-0.14,0.58-0.36,0.78C521.87,280.86,520.75,281.11,519.58,281.17z"/>
	<path style="fill-rule:evenodd;clip-rule:evenodd;fill:#DFA07A;" d="M509.04,255.95c0.11,1.87,0.71,3.75-0.46,5.54
		c-0.66,1.01-1.88,1.47-2.4,2.58c-0.59-0.45-1.19-0.9-1.78-1.35c0.19-0.56,0.71-0.74,1.17-0.93c2.05-0.83,2.43-3.31,1.51-4.92
		c-0.25-0.44-0.58-0.88-0.25-1.44c0.1-0.09,0.21-0.15,0.34-0.18C507.86,255.29,508.64,255.09,509.04,255.95z"/>
	<path style="fill-rule:evenodd;clip-rule:evenodd;fill:#D98D67;" d="M506.88,255.48c-0.03,0.97,0.9,1.55,0.97,2.52
		c0.15,2.16-0.41,3.2-2.39,4.19c-0.36,0.18-0.72,0.35-1.07,0.53c-0.52-0.25-1.04-0.5-1.57-0.75c-0.51-0.24-0.6-0.48-0.04-0.76
		c0.52,0.06,1.04,0.06,1.55,0.05c1.46-0.03,2.7-1.26,2.63-2.57c-0.08-1.59-1.5-2.97-2.95-2.86c-1.45,0.11-2.41,1.34-2.34,2.93
		c0.03,0.58,0.53,1.12,0.15,1.73c-0.03,0.06-0.08,0.08-0.15,0.07c-0.79,0.14-0.89-0.49-1.06-0.99c-0.57-1.7,0.25-3.05,1.15-4.37
		c0.06-0.09,0.14-0.17,0.23-0.24c0.19-0.01,0.4,0.04,0.56-0.12c0.14-0.06,0.29-0.1,0.44-0.14c0.2-0.05,0.4-0.11,0.61-0.16
		c0.27-0.06,0.53-0.05,0.79,0.01c0.2,0.05,0.41,0.11,0.62,0.12c0.27,0.03,0.53,0.05,0.79,0.11c0.16,0.04,0.32,0.08,0.47,0.12
		c0.22,0.06,0.43,0.12,0.6,0.27C506.97,255.29,506.96,255.39,506.88,255.48z"/>
	<path style="fill-rule:evenodd;clip-rule:evenodd;fill:#D88B65;" d="M501.84,260.48c-0.49-1.29-0.88-2.55,0.1-3.83
		c0.81-1.06,2.21-1.52,3.37-0.99c1.27,0.58,2.26,2.42,1.95,3.63c-0.36,1.4-1.75,2.55-3.03,2.35c-0.47-0.08-1.06,0.03-1.44-0.43
		c0.59-0.53,1.46-0.22,2.07-0.67c1.4-0.1,1.66-1.05,1.56-2.18c-0.12-1.29-1.33-2.34-2.42-2.11c-1.23,0.26-1.99,0.99-1.9,2.35
		c0.04,0.55,0.15,1.1,0.23,1.64C502.16,260.32,502,260.4,501.84,260.48z"/>
	<path style="fill-rule:evenodd;clip-rule:evenodd;fill:#DE9C77;" d="M524.16,264.06c-0.74-1.32-1.97-2.38-2-4.07
		c-0.01-0.39-0.1-0.75,0.03-1.15c0.2-0.64,0.03-1.16-0.66-1.4c0.76-0.6,1.63-0.6,2.51-0.46c0.33,0.19,0.4,0.53,0.29,0.83
		c-0.55,1.62-0.33,3.06,0.87,4.33c0.29,0.31,0.37,0.72-0.06,1.04C524.91,263.59,524.61,263.91,524.16,264.06z"/>
	<path style="fill-rule:evenodd;clip-rule:evenodd;fill:#DE9D77;" d="M502.11,254.96c0.03,0.52-0.31,0.86-0.59,1.25
		c-1.08,1.5-0.99,3.34,0.17,4.35c-0.33,0.39-0.67,0.78-1.01,1.18c-1.81-2.1-1.72-4.89,0.21-6.87c0.25-0.25,0.47-0.54,0.7-0.81
		C502.28,254.07,502.36,254.42,502.11,254.96z"/>
	<path style="fill-rule:evenodd;clip-rule:evenodd;fill:#319447;" d="M528,275.3c-0.01,2.62-1.37,4.3-3.52,5.44
		c-0.16,0.09-0.45,0.18-0.54,0.11c-0.23-0.2,0.07-0.33,0.18-0.44c1.42-1.37,2.07-3.08,2.22-5.01c0.06-0.75,0.52-1.09,1.16-1.11
		C528.34,274.26,527.86,274.99,528,275.3z"/>
	<path style="fill-rule:evenodd;clip-rule:evenodd;fill:#D78762;" d="M525.15,263.19c0-0.23,0.09-0.57-0.03-0.66
		c-1.81-1.54-1.65-3.41-0.95-5.38c1.02-0.95,2.15-0.96,2.96-0.02c-2.76,1.05-3.08,2.71-0.89,4.64c0.14,0.13,0.24,0.31,0.36,0.46
		C526.48,263.12,525.74,263.04,525.15,263.19z"/>
	<path style="fill-rule:evenodd;clip-rule:evenodd;fill:#C54237;" d="M526.3,266.56c-0.83-0.04-2.2-0.15-2.2-0.94
		c0-0.82,1.35-1.16,2.31-1.21c0.83-0.05,1.38,0.49,1.38,1.31C527.79,266.63,527.01,266.54,526.3,266.56z"/>
	<path style="fill-rule:evenodd;clip-rule:evenodd;fill:#DCB050;" d="M515.52,318.36c-0.17-0.25-0.34-0.51-0.5-0.76
		C515.97,317.34,515.3,318.14,515.52,318.36z"/>
	<path style="fill-rule:evenodd;clip-rule:evenodd;fill:#919090;" d="M520.69,288.13c0.06,0.19,0.14,0.31,0.12,0.39
		c-0.03,0.09-0.14,0.17-0.24,0.23c-0.02,0.01-0.18-0.15-0.17-0.18C520.46,288.43,520.55,288.32,520.69,288.13z"/>
	<path style="fill-rule:evenodd;clip-rule:evenodd;fill:#C9A149;" d="M487.17,315.92c0.04,0.22,0,0.41-0.22,0.52
		C487.03,316.26,487.1,316.09,487.17,315.92z"/>
	<path style="fill-rule:evenodd;clip-rule:evenodd;fill:#CDA44A;" d="M546.72,309.73c-0.16-0.01-0.32-0.01-0.48-0.02
		c0.16-0.06,0.32-0.12,0.48-0.19C546.72,309.6,546.72,309.66,546.72,309.73z"/>
	<path style="fill-rule:evenodd;clip-rule:evenodd;fill:#DCB050;" d="M514.07,318.35c-0.11,0.22-0.31,0.24-0.52,0.22
		C513.72,318.5,513.9,318.43,514.07,318.35z"/>
	<path style="fill-rule:evenodd;clip-rule:evenodd;fill:#DCB050;" d="M518.39,319.34c-0.18,0.07-0.35,0.13-0.53,0.2
		C518.04,319.47,518.22,319.4,518.39,319.34z"/>
	<path style="fill-rule:evenodd;clip-rule:evenodd;fill:#DCB050;" d="M519.11,319.06c-0.11,0.23-0.3,0.26-0.52,0.24
		C518.76,319.22,518.93,319.14,519.11,319.06z"/>
	<path style="fill-rule:evenodd;clip-rule:evenodd;fill:#CDA44A;" d="M548.15,308.76c-0.11,0.07-0.22,0.14-0.33,0.2
		C547.93,308.89,548.04,308.83,548.15,308.76z"/>
	<path style="fill-rule:evenodd;clip-rule:evenodd;fill:#CDA44A;" d="M547.67,309.04c-0.09,0.06-0.19,0.12-0.28,0.18
		C547.48,309.16,547.58,309.1,547.67,309.04z"/>
	<path style="fill-rule:evenodd;clip-rule:evenodd;fill:#CDA44A;" d="M547.19,309.3c-0.09,0.05-0.19,0.1-0.28,0.16
		C547,309.4,547.1,309.35,547.19,309.3z"/>
	<path style="fill-rule:evenodd;clip-rule:evenodd;fill:#CDA44A;" d="M548.39,308.57c-0.08,0.06-0.16,0.12-0.23,0.18
		C548.24,308.69,548.31,308.63,548.39,308.57z"/>
	<path style="fill-rule:evenodd;clip-rule:evenodd;fill:#D37653;" d="M529.94,261.01c0.06,0.08,0.13,0.15,0.19,0.23
		C530.07,261.16,530,261.09,529.94,261.01z"/>
	<path style="fill-rule:evenodd;clip-rule:evenodd;fill:#DCB050;" d="M514.3,318.2c-0.08,0.05-0.15,0.1-0.22,0.15
		C514.15,318.3,514.23,318.25,514.3,318.2z"/>
	<path style="fill-rule:evenodd;clip-rule:evenodd;fill:#C9A149;" d="M487.41,315.45c-0.06,0.09-0.12,0.18-0.17,0.26
		C487.3,315.63,487.35,315.54,487.41,315.45z"/>
	<path style="fill-rule:evenodd;clip-rule:evenodd;fill:#DCB050;" d="M519.6,318.66c-0.06,0.06-0.13,0.12-0.19,0.18
		C519.48,318.78,519.54,318.72,519.6,318.66z"/>
	<path style="fill-rule:evenodd;clip-rule:evenodd;fill:#DCB050;" d="M519.36,318.89c-0.09,0.06-0.17,0.12-0.26,0.18
		C519.19,319.01,519.28,318.95,519.36,318.89z"/>
	<path style="fill-rule:evenodd;clip-rule:evenodd;fill:#DCB050;" d="M516.03,319.3c-0.08-0.1-0.16-0.21-0.24-0.31
		C515.87,319.09,515.95,319.2,516.03,319.3z"/>
	<path style="fill-rule:evenodd;clip-rule:evenodd;fill:#DCB050;" d="M515.02,317.61c-0.09,0.08-0.17,0.17-0.26,0.25
		C514.85,317.77,514.93,317.69,515.02,317.61z"/>
	<path style="fill-rule:evenodd;clip-rule:evenodd;fill:#DCB050;" d="M516.34,319.53c-0.11-0.08-0.22-0.16-0.33-0.24
		C516.12,319.37,516.23,319.45,516.34,319.53z"/>
	<path style="fill-rule:evenodd;clip-rule:evenodd;fill:#DCB050;" d="M514.78,317.84c-0.11,0.08-0.22,0.16-0.33,0.25
		C514.56,318.01,514.67,317.92,514.78,317.84z"/>
	<path style="fill-rule:evenodd;clip-rule:evenodd;fill:#DCB050;" d="M515.7,318.83c-0.05-0.1-0.1-0.2-0.15-0.29
		C515.6,318.63,515.65,318.73,515.7,318.83z"/>
	<path style="fill-rule:evenodd;clip-rule:evenodd;fill:#E5B853;" d="M562.79,314.04c1.49,2.75,3.27,5.34,4.39,8.29
		c0.13,0.33,0.47,0.66,0.15,1.07c-2.65,0.31-5.22,0.3-7.54-1.35c-1.67-1.19-2.52-2.98-2.08-4.98c0.42-1.91,1.82-2.81,3.6-3.24
		C561.84,313.7,562.35,313.64,562.79,314.04z"/>
	<path style="fill-rule:evenodd;clip-rule:evenodd;fill:#DAAF4F;" d="M562.79,314.04c-2.48,0.01-4.45,1.25-4.78,3.01
		c-0.44,2.37,0.79,4.13,3.16,5.43c2.02,1.11,4.08,0.84,6.16,0.92c-2.08,0.51-4.17,0.08-6.26,0.12c-1.03,0.02-2.06-0.09-3.08-0.14
		c-3.87-2.39-3.61-8.64,0.43-10.88c0.99-0.55,2.03-0.9,3.14-1.09C561.97,312.28,562.38,313.16,562.79,314.04z"/>
	<path style="fill-rule:evenodd;clip-rule:evenodd;fill:#222221;" d="M468.48,307.32c-0.11-0.07-0.21-0.14-0.32-0.21
		C468.26,307.19,468.37,307.25,468.48,307.32z"/>
	<path style="fill-rule:evenodd;clip-rule:evenodd;fill:#E9BD9D;" d="M428.87,252.86c1.31-2.12,2.85-4.02,4.99-5.34
		c1.17-0.72,2.42-1.2,3.84-0.74c0.41,0.13,0.75,0.27,0.78,0.76c0.44,0.83,0.2,1.48-0.4,2.15c-1.78,1.98-1.12,5.51,1.25,6.76
		c0.52,0.28,0.87,0.67,1.21,1.12c0.16,0.18,0.33,0.33,0.49,0.51c0.37,0.57,0.52,1.21,0.55,1.88c-0.01,0.12-0.05,0.23-0.09,0.34
		c-0.71,0.69-1.42,1.39-1.84,2.31c-0.1,0.22-0.27,0.43-0.48,0.52c-1.26,0.47-2.53,0.9-3.71,1.59c-0.56,0.33-1.26-0.65-1.65-0.28
		c-0.47,0.44,0.77,0.76,0.47,1.47c-0.27,0.63-0.33,1.31-0.26,2c0.03,0.24,0.06,0.53,0.34,0.57c0.3,0.05,0.35-0.24,0.43-0.47
		c0.72-1.97,3.35-3.05,5.23-2.16c0.25,0.12,0.5,0.27,0.79,0.23c0.25-0.03,0.52-0.12,0.19-0.42c-0.35-0.31-0.36-0.79-0.62-1.15
		c-0.46-0.63-0.41-1.3,0.01-1.89c0.46-0.64,0.57-1.5,1.29-1.97c0.3,0.01,0.55,0.15,0.74,0.35c0.78,0.77,1.7,1.28,2.72,1.68
		c1.22,0.49,1.57,1.45,0.99,2.62c-2.01,4.02-5.22,6.35-9.74,6.77c-1.14,0.1-2.24-0.17-3.22-0.74c-1.59-0.92-3.13-1.91-4.72-2.82
		c-1.31-0.75-1.63-1.58-1-2.91c0.89-1.86,1.04-3.73,0.5-5.68c-0.04-0.39,0.34-0.89-0.52-1.02c-0.76-0.11-0.85-0.7-0.34-1.32
		c0.25-0.3,0.57-0.55,0.85-0.83c0.84-0.85,1.25-1.82,0.86-3.02C428.73,253.47,428.61,253.15,428.87,252.86z"/>
	<path style="fill-rule:evenodd;clip-rule:evenodd;fill:#232322;" d="M440.41,257.91c-0.33-0.77-1.02-1.02-1.71-1.38
		c-2.27-1.18-2.71-5.69-0.64-7.21c0.83-0.61-0.07-1.28,0.42-1.77c0.54-0.12,0.97-0.44,1.57,0.21c0.43,0.46,1.17-0.05,1.3-0.79
		c0.06-0.34-0.08-0.8,0.36-0.91c0.36-0.09,0.73,0.13,0.9,0.47c0.71,1.41,2.08,0.79,3.16,1c0.57,0.11,0.19-0.44,0.23-0.69
		c0.06-0.49,0.07-1.02,0.8-0.88c0.59,0.12,0.84,0.57,0.58,1.07c-0.4,0.75-0.08,1.02,0.55,1.32c0.93,0.45,1.5,1.29,2.08,2.1
		c0.08,0.09,0.16,0.18,0.19,0.3c0,0.12,0,0.24,0,0.36c-0.09,0.17-0.07,0.37-0.18,0.53c-0.01,0.08-0.03,0.16-0.04,0.24
		c-0.14,0.13-0.1,0.33-0.18,0.48c-0.05,0.06-0.08,0.14-0.07,0.22c-0.31,0.5-0.63,1-0.94,1.5c-0.3,0.46-0.59,0.89-0.14,1.47
		c0.25,0.32,0.17,0.75-0.07,1.1c-0.33,0.39-0.74,0.47-1.19,0.28c-0.95-0.39-1.94-0.41-2.94-0.39c-0.17,0-0.34-0.01-0.5-0.01
		c-0.21,0-0.42,0.02-0.64,0.04c-0.11,0-0.2-0.04-0.28-0.12c-0.09,0.01-0.17,0.03-0.26,0.04c-0.09,0.06-0.19,0.11-0.3,0.15
		c-0.14,0.06-0.29,0.12-0.43,0.18c-0.4,0.17-0.75,0.39-0.9,0.83c0.04,0.21-0.07,0.31-0.25,0.35
		C440.73,258,440.56,258.01,440.41,257.91z"/>
	<path style="fill-rule:evenodd;clip-rule:evenodd;fill:#232322;" d="M428.87,252.86c0.83,2.18,0.59,3.04-1.26,4.71
		c-0.25,0.23-0.85,0.3-0.59,0.86c0.26,0.55,0.64,0.22,1.01,0.11c0.16-0.05,0.49-0.04,0.53,0.05c0.23,0.5-0.25,0.77-0.43,1.15
		c-0.05,0.25-0.15,0.41-0.44,0.32c-0.08-0.01-0.16-0.01-0.24-0.02c-0.13-0.14-0.32-0.09-0.47-0.18c-0.08-0.02-0.16-0.04-0.24-0.06
		c-0.43-0.43-0.9-0.58-1.45-0.21c-0.08,0.09-0.17,0.16-0.28,0.22c-0.5,0.21-1.02,0.29-1.55,0.34c-0.71,0.14-1.43,0.26-2.09,0.6
		c-0.75,0.34-1.24,1-1.88,1.49c-0.48,0.22-0.96,0.39-1.28-0.23c1.14-1.14-0.12-1.74-0.56-2.52c-0.44-1.07,0.26-2.44-0.89-3.32
		c-0.05-0.07-0.1-0.15-0.15-0.22c-0.06-0.1-0.15-0.18-0.17-0.3c-0.14-0.89-0.2-1.78,0.59-2.43c0.45-0.37,0.13-0.7,0.08-1.07
		c-0.05-0.35-0.41-0.89,0.22-0.95c0.38-0.03,1.16-0.38,1.19,0.52c0.03,0.79,0.49,0.32,0.69,0.22c0.33-0.18,1.19,0.24,0.91-0.66
		c-0.29-0.94,0.34-1.06,0.94-1.07c0.89-0.01,0.53,0.54,0.34,0.98c-0.15,0.36,0.12,0.48,0.34,0.4c0.47-0.19,1.32,0.2,1.34-0.72
		c0.01-0.42-0.05-0.87,0.42-0.99c0.48-0.13,0.89,0.2,1.03,0.62c0.16,0.52,0.53,0.53,0.92,0.59
		C426.78,251.29,427.93,251.86,428.87,252.86z"/>
	<path style="fill-rule:evenodd;clip-rule:evenodd;fill:#252524;" d="M422.22,246.81c-2.34-0.1-4.11,0.71-5.46,2.44
		c-0.13,0.17-0.23,0.52-0.5,0.37c-0.13-0.07-0.14-0.43-0.12-0.65c0.06-0.69,0.49-1.17,0.98-1.59c1.25-1.05,2.69-1.7,4.32-1.87
		c0.2-0.02,0.4-0.02,0.59,0.01c0.66,0.1,1.43,0.32,1.31,1.1C423.2,247.52,422.44,246.3,422.22,246.81z"/>
	<path style="fill-rule:evenodd;clip-rule:evenodd;fill:#262624;" d="M441.89,242.97c0.86,0.03,1.57,0.09,2.23,0.45
		c0.46,0.25,0.42,0.67,0.29,1.05c-0.12,0.38-0.48,0.4-0.79,0.22c-2.08-1.19-3.9-0.17-5.75,0.66c-0.25,0.11-0.53,0.54-0.78,0.24
		c-0.21-0.24,0.05-0.62,0.26-0.85C438.59,243.32,440.31,243.15,441.89,242.97z"/>
	<path style="fill-rule:evenodd;clip-rule:evenodd;fill:#DAA17D;" d="M450.03,251.63c0.06-0.18,0.12-0.35,0.18-0.53
		C450.15,251.28,450.09,251.46,450.03,251.63z"/>
	<path style="fill-rule:evenodd;clip-rule:evenodd;fill:#DAA17D;" d="M449.81,252.35c0.06-0.16,0.12-0.32,0.18-0.48
		C449.93,252.03,449.87,252.19,449.81,252.35z"/>
	<path style="fill-rule:evenodd;clip-rule:evenodd;fill:#DAA17C;" d="M416.43,255.65c0.06,0.1,0.11,0.2,0.17,0.3
		C416.54,255.85,416.49,255.75,416.43,255.65z"/>
	<path style="fill-rule:evenodd;clip-rule:evenodd;fill:#DAA17D;" d="M450.21,250.75c-0.06-0.1-0.13-0.2-0.19-0.3
		C450.08,250.55,450.14,250.65,450.21,250.75z"/>
	<path style="fill-rule:evenodd;clip-rule:evenodd;fill:#DA926C;" d="M443.04,256.45c0.06-0.05,0.13-0.07,0.21-0.05
		c0.15-0.09,0.33-0.06,0.48-0.15c0.17-0.01,0.33-0.02,0.5-0.03c0.34,0.34,0.16,0.74,0.14,1.13c-0.05,0.91,0.27,1.64,1.09,2.08
		c0.78,0.41,1.55,0.3,2.24-0.19c0.74-0.53,1.08-1.25,0.8-2.18c-0.07-0.23-0.08-0.47-0.02-0.7c-0.01-0.27,0.08-0.71-0.05-0.78
		c-1.53-0.92,0.17-1.03,0.35-1.51c0.31,1.09,1.37,1.75,1.65,2.87c0.52,2.14-0.49,3.66-2.7,4.03c-2.51,0.42-4.51-0.95-4.7-3.21
		C443.01,257.33,443.04,256.89,443.04,256.45z"/>
	<path style="fill-rule:evenodd;clip-rule:evenodd;fill:#DA926C;" d="M442.49,256.64c0.1-0.05,0.2-0.1,0.3-0.15
		C442.68,256.54,442.58,256.59,442.49,256.64z"/>
	<path style="fill-rule:evenodd;clip-rule:evenodd;fill:#373429;" d="M460.83,310.86c0.1-0.26,0.12-0.64,0.5-0.55
		c0.33,0.08,0.74,0.23,0.64,0.72c-0.05,0.25-0.05,0.63-0.45,0.58C461.12,311.54,460.96,311.2,460.83,310.86z"/>
	<path style="fill-rule:evenodd;clip-rule:evenodd;fill:#2C2B27;" d="M463.2,311.89c0.38,0.1,0.48,0.39,0.48,0.73
		c0,0.2-0.03,0.45-0.29,0.4c-0.36-0.07-0.48-0.37-0.49-0.72C462.91,312.09,462.93,311.9,463.2,311.89z"/>
	<path style="fill-rule:evenodd;clip-rule:evenodd;fill:#3C3B2D;" d="M418.37,270.23c-0.02,0.49,0,0.84-0.49,0.78
		c-0.56-0.08-0.6-0.57-0.68-0.97c-0.09-0.45,0.31-0.34,0.55-0.36C418.33,269.6,418.39,269.96,418.37,270.23z"/>
	<path style="fill-rule:evenodd;clip-rule:evenodd;fill:#33332A;" d="M419.4,270.69c0.46,0.2,1.06,0.25,1.04,0.96
		c-0.01,0.31-0.21,0.43-0.48,0.37c-0.49-0.11-0.91-0.33-0.92-0.92C419.03,270.87,418.99,270.56,419.4,270.69z"/>
	<path style="fill-rule:evenodd;clip-rule:evenodd;fill:#403F2E;" d="M422.29,271.55c-0.45-0.06-0.69-0.34-0.75-0.76
		c-0.05-0.34,0.1-0.52,0.47-0.46c0.43,0.07,0.73,0.31,0.79,0.74C422.84,271.41,422.61,271.55,422.29,271.55z"/>
	<path style="fill-rule:evenodd;clip-rule:evenodd;fill:#313029;" d="M418.16,273.05c-0.45,0-0.61-0.29-0.64-0.68
		c-0.02-0.29,0.03-0.58,0.42-0.55c0.36,0.03,0.77,0.11,0.73,0.56C418.65,272.63,418.63,273.06,418.16,273.05z"/>
	<path style="fill-rule:evenodd;clip-rule:evenodd;fill:#39382C;" d="M421.67,273.47c-0.2-0.18-0.62-0.38-0.66-0.64
		c-0.05-0.33,0.41-0.41,0.71-0.49c0.32-0.09,0.58,0.04,0.54,0.41C422.21,273.04,422.21,273.41,421.67,273.47z"/>
	<path style="fill-rule:evenodd;clip-rule:evenodd;fill:#3A3A2C;" d="M422.82,273.05c-0.04-0.35,0.1-0.56,0.38-0.5
		c0.28,0.06,0.72,0.05,0.72,0.45c0,0.25,0.05,0.72-0.41,0.73C423.07,273.73,423.03,273.26,422.82,273.05z"/>
	<path style="fill-rule:evenodd;clip-rule:evenodd;fill:#3E3D2D;" d="M420.02,274.21c-0.05,0.35-0.39,0.4-0.62,0.43
		c-0.42,0.06-0.49-0.34-0.56-0.64c-0.07-0.28,0.09-0.49,0.4-0.4C419.56,273.68,419.99,273.69,420.02,274.21z"/>
	<path style="fill-rule:evenodd;clip-rule:evenodd;fill:#E4B18E;" d="M427.68,260.05c0.15-0.11,0.29-0.21,0.44-0.32
		c0.77,1.87,0.72,3.7-0.17,5.53c-0.83,1.72-0.64,2.27,0.97,3.19c1.69,0.97,3.29,2.14,5.08,2.87c2.98,1.22,7.94-0.51,9.93-3.25
		c0.7-0.96,1.37-1.96,1.97-2.98c0.53-0.9,0.23-1.75-0.72-2.01c-1.46-0.41-2.49-1.36-3.55-2.31c-0.14-0.07-0.18-0.2-0.19-0.34
		c0.03-0.14,0.04-0.27-0.07-0.38c-0.16-0.64-0.32-1.28-0.48-1.92c-0.09-0.05-0.11-0.1-0.08-0.15c0.03-0.05,0.06-0.07,0.09-0.07
		c0.09-0.09,0.18-0.18,0.27-0.27c0.5,0.08,0.6,0.48,0.67,0.88c0.39,2.15,1.82,3.28,3.79,3.86c1.57,0.47,1.98,1.48,1.16,2.89
		c-0.85,1.44-1.73,2.87-2.51,4.34c-1.32,2.5-3.85,2.85-6.18,3.63c-2.25,0.75-3.96-0.34-5.58-1.59c-1.4-1.08-2.92-1.93-4.46-2.77
		c-1.59-0.87-1.96-1.74-1.08-3.29C427.98,263.81,428.1,261.98,427.68,260.05z"/>
	<path style="fill-rule:evenodd;clip-rule:evenodd;fill:#D99974;" d="M426.97,259.85c0.16,0.06,0.31,0.12,0.47,0.19
		c-0.08,0.02-0.15,0.03-0.23,0.04C427.13,260,427.05,259.92,426.97,259.85z"/>
	<path style="fill-rule:evenodd;clip-rule:evenodd;fill:#D58B65;" d="M425.03,259.61c0.08-0.01,0.17-0.02,0.25-0.03
		c2.33,2.85,0.7,5.54-1.65,6.84c-1.59,0.88-3.46,0.34-4.38-1.45c-0.47-0.92-0.71-1.97-1.05-2.96c0.47,0.52,0.88,0.04,1.31-0.07
		c0.42,0.32,0.45,0.82,0.59,1.27c0.51,1.63,1.79,2.5,3.08,2.08c1.6-0.51,2.55-2.35,2.02-3.9
		C425.01,260.81,424.52,260.26,425.03,259.61z"/>
	<path style="fill-rule:evenodd;clip-rule:evenodd;fill:#34342B;" d="M471.24,311.67c0.41,0.11,0.73,0.31,0.8,0.76
		c0.07,0.43-0.24,0.43-0.52,0.42c-0.45-0.02-0.75-0.29-0.82-0.71C470.63,311.78,470.97,311.73,471.24,311.67z"/>
	<path style="fill-rule:evenodd;clip-rule:evenodd;fill:#323129;" d="M472.12,309.82c-0.06,0.25,0,0.62-0.42,0.54
		c-0.52-0.1-0.6-0.56-0.68-0.99c-0.06-0.33,0.16-0.42,0.42-0.38C471.9,309.07,472.08,309.39,472.12,309.82z"/>
	<path style="fill-rule:evenodd;clip-rule:evenodd;fill:#232322;" d="M527.13,257.13c-0.99-0.61-1.97-0.33-2.96,0.02
		c-0.88,0.1-1.76,0.2-2.64,0.3c-0.58-0.96,0.46-0.71,0.77-0.98c0.22-0.2,0.56-0.26,0.84-0.39c-0.29-0.13-0.57-0.27-0.87-0.39
		c-2.67-1.08-3.4-2.06-3.15-4.25c0.08-0.73,0.29-1.49,0.85-1.93c1.07-0.83,2-1.65,1.52-3.19c-0.05-0.18,0.01-0.43,0.28-0.43
		c0.4,0,0.62,0.27,0.84,0.58c0.22,0.31-0.11,1.12,0.32,0.92c0.67-0.3,1.54-0.48,1.91-1.24c0.16-0.34,0.07-0.9,0.55-0.93
		c0.42-0.03,0.63,0.42,0.77,0.81c0.31,0.86,1.17,0.6,1.75,0.72c0.76,0.16,1.23,0.51,1.57,1.12c1.22,2.2,1.6,4.48,0.68,6.9
		c-0.07,0.06-0.12,0.13-0.15,0.22c-0.13,0.16-0.26,0.32-0.4,0.48c-0.24,0.13-0.46,0.3-0.72,0.39c-0.53,0.19-0.85,0.33-0.1,0.71
		c0.5,0.25,0.72,0.71,0.62,1.28C528.47,258.16,527.87,257.41,527.13,257.13z"/>
	<path style="fill-rule:evenodd;clip-rule:evenodd;fill:#232322;" d="M502.11,254.96c-0.11-0.34,0.02-0.81-0.51-0.9l-0.02-0.01
		c-0.04-0.08-0.11-0.13-0.2-0.16c-1.45-1.63-1.9-4.76-1-6.63c0.27-0.55,0.77-0.65,1.24-0.83c0.85-0.33,1.6-0.65,2.14-1.56
		c0.49-0.83,1.25-0.09,1.82,0.25c0.51,0.31,0.86,0.73,1.1-0.29c0.17-0.75,0.74-0.18,0.78,0.08c0.15,1.03,0.94,1.27,1.71,1.61
		c4.14,1.78,4.68,4.69,1.4,7.81c-0.78,0.74-0.58,1.06,0.23,1.41c-0.4,0.67-0.98,0.26-1.5,0.26c-0.08-0.02-0.17-0.03-0.25-0.05
		c-0.63-0.17-1.25-0.33-1.88-0.5c-0.09-0.04-0.19-0.09-0.28-0.14c-0.21-0.03-0.43-0.06-0.64-0.1c-0.09-0.04-0.18-0.08-0.28-0.1
		c-0.32-0.04-0.64-0.08-0.96-0.12c-0.14-0.11-0.32-0.1-0.48-0.15c-0.34,0-0.67,0-1.01,0c-0.16,0.05-0.34,0.04-0.48,0.15
		c-0.16,0.02-0.31,0.04-0.47,0.06l-0.1,0.04l-0.11-0.02C502.26,255.03,502.19,254.99,502.11,254.96z"/>
	<path style="fill-rule:evenodd;clip-rule:evenodd;fill:#2A2927;" d="M507.75,243.29c-1.16-0.08-2.26-0.79-3.37,0.11
		c-0.26,0.21-0.55-0.2-0.38-0.58c0.22-0.53,0.63-0.78,1.21-0.82c0.94-0.07,1.81,0.23,2.68,0.5c0.28,0.08,0.81-0.09,0.78,0.31
		C508.62,243.26,508.09,243.25,507.75,243.29z"/>
	<path style="fill-rule:evenodd;clip-rule:evenodd;fill:#272625;" d="M513.09,258.63c-0.07-0.78,0.33-1.23,0.95-1.39
		c0.67-0.17,1.42-0.18,1.86,0.46c0.29,0.44,0.29,1.11-0.12,1.45c-0.5,0.41-0.57-0.26-0.8-0.53c-0.52-0.62-0.79-0.17-1.06,0.27
		c-0.13,0.2-0.28,0.44-0.55,0.38C513,259.18,513.15,258.82,513.09,258.63z"/>
	<path style="fill-rule:evenodd;clip-rule:evenodd;fill:#2C2B29;" d="M522.61,243.51c-0.68-0.11-1.43-0.2-2.17-0.36
		c-0.21-0.04-0.47-0.24-0.39-0.51c0.03-0.1,0.32-0.18,0.49-0.17c0.83,0.02,1.69-0.06,2.4,0.52c0.13,0.11,0.28,0.36,0.24,0.49
		C523.08,243.75,522.85,243.48,522.61,243.51z"/>
	<path style="fill-rule:evenodd;clip-rule:evenodd;fill:#DFA07A;" d="M509.29,255.99c0.49-0.16,1.07,0.23,1.49-0.26
		C510.42,256.58,509.84,256.19,509.29,255.99z"/>
	<path style="fill-rule:evenodd;clip-rule:evenodd;fill:#DD9B75;" d="M530,254.99c0.05-0.07,0.1-0.14,0.15-0.22
		C530.1,254.84,530.05,254.91,530,254.99z"/>
	<path style="fill-rule:evenodd;clip-rule:evenodd;fill:#DE9D77;" d="M501.37,253.89c0.07,0.05,0.13,0.1,0.2,0.16
		C501.51,253.99,501.44,253.94,501.37,253.89z"/>
	<path style="fill-rule:evenodd;clip-rule:evenodd;fill:#D88B65;" d="M506.88,255.31c0.09,0.05,0.19,0.1,0.28,0.14
		c-0.09,0.01-0.18,0.02-0.27,0.03C506.88,255.42,506.88,255.36,506.88,255.31z"/>
	<path style="fill-rule:evenodd;clip-rule:evenodd;fill:#D88B65;" d="M504.5,254.83c0.16,0.05,0.32,0.1,0.48,0.15
		C504.83,254.93,504.67,254.88,504.5,254.83z"/>
	<path style="fill-rule:evenodd;clip-rule:evenodd;fill:#D88B65;" d="M503.01,254.99c0.16-0.05,0.32-0.1,0.48-0.15
		C503.33,254.88,503.17,254.94,503.01,254.99z"/>
	<path style="fill-rule:evenodd;clip-rule:evenodd;fill:#D88B65;" d="M505.95,255.11c0.09,0.03,0.19,0.07,0.28,0.1
		C506.14,255.18,506.05,255.14,505.95,255.11z"/>
	<path style="fill-rule:evenodd;clip-rule:evenodd;fill:#D88B65;" d="M502.34,255.07c0.07-0.03,0.14-0.03,0.21-0.02
		C502.48,255.06,502.41,255.06,502.34,255.07z"/>
	<path style="fill-rule:evenodd;clip-rule:evenodd;fill:#232322;" d="M441.57,260.35c0.02,0.14,0.03,0.28,0.05,0.41
		c-0.21,0.51-0.37,1.05-0.65,1.52c-0.87,1.47-0.73,2.23,0.59,3.21c0.56,0.41,0.17,0.78-0.2,1.01c-0.32,0.2-0.76,0.15-1.02-0.08
		c-1.93-1.69-3.37,0.05-4.96,0.69c-0.48,0.19-0.2,0.72-0.22,1.08c-0.03,0.5-0.12,0.84-0.72,0.85c-0.6,0.01-0.75-0.3-0.71-0.83
		c0.06-0.71-0.22-1.45,0.17-2.11c0.31-0.53,0.11-0.78-0.37-0.99c-0.38-0.16-0.76-0.39-0.45-0.9c0.29-0.48,0.82-0.52,1.13-0.19
		c0.8,0.86,1.37,0.1,2.12-0.04c2.37-0.42,3.38-2.47,5.02-3.74C441.47,260.2,441.54,260.23,441.57,260.35z"/>
	<path style="fill-rule:evenodd;clip-rule:evenodd;fill:#272625;" d="M432.98,260.08c0.21-0.8,0.2-1.83,1.26-2.18
		c1.05-0.34,1.98,0.04,2.69,0.84c0.35,0.39,0.62,0.98,0.16,1.4c-0.44,0.41-0.77-0.17-1.1-0.39c-0.39-0.26-0.71-0.71-1.25-0.43
		c-0.42,0.22-0.37,0.65-0.45,1.04c-0.09,0.44,0.38,1.26-0.36,1.26C433.23,261.63,433.02,260.85,432.98,260.08z"/>
	<path style="fill-rule:evenodd;clip-rule:evenodd;fill:#E4AF8E;" d="M440.88,257.91c0,0.07,0,0.14,0,0.22
		c-0.16-0.07-0.31-0.14-0.47-0.21C440.56,257.91,440.72,257.91,440.88,257.91z"/>
	<path style="fill-rule:evenodd;clip-rule:evenodd;fill:#E4AF8E;" d="M441.57,260.35c-0.08-0.02-0.15-0.05-0.21-0.09
		c0-0.07,0-0.14,0-0.21C441.43,260.14,441.5,260.25,441.57,260.35z"/>
	<path style="fill-rule:evenodd;clip-rule:evenodd;fill:#FEFEFE;" d="M438.21,253.47c0.02-4.49,2.98-5.38,7.37-4.62
		c0.46,0.08,0.95,0.25,1.33,0.5c0.8,0.53,2.07,0.76,1.89,2.1c-0.21,1.48-1.98,3.06-3.26,3.12c-0.68,0.04-0.37-0.48-0.44-0.73
		c-0.19-0.65-0.37-1.29-1.2-1.22c-0.89,0.07-0.93,0.8-0.84,1.44c0.11,0.77-0.24,1.05-0.88,1.28c-1.02,0.37-2.04,0.33-3.06,0.08
		C437.99,255.15,438.28,254.16,438.21,253.47z"/>
	<path style="fill-rule:evenodd;clip-rule:evenodd;fill:#D57B58;" d="M448.5,256.36c0.77,1.09,0.65,2.1-0.33,2.97
		c-0.93,0.84-2,0.99-3.06,0.28c-1.01-0.67-1.34-1.62-0.95-2.8c0.06-0.19,0.06-0.39,0.08-0.59c1.11-0.11,2.21-0.1,3.24,0.38
		C447.93,256.83,448.22,256.68,448.5,256.36z"/>
	<path style="fill-rule:evenodd;clip-rule:evenodd;fill:#D57B58;" d="M443.74,256.26c-0.16,0.05-0.32,0.1-0.48,0.15
		C443.41,256.35,443.57,256.31,443.74,256.26z"/>
	<path style="fill-rule:evenodd;clip-rule:evenodd;fill:#FEFEFE;" d="M422.43,257.53c0.19,2.18-1.54,1.59-2.5,1.94
		c-1.11,0.41-1.38-0.43-1.41-1.29c-0.05-1.72-0.64-3.57,1-4.96c1.31-1.11,6.33-1.33,7.69-0.29c1.04,0.79,1.07,1.81,0.44,2.86
		c-0.43,0.72-1.06,1.31-1.82,1.68c-0.46,0.23-1.18,1.13-1.22-0.41c-0.02-0.83-0.82-0.93-1.56-0.86
		C421.94,256.33,422.63,257.21,422.43,257.53z"/>
	<path style="fill-rule:evenodd;clip-rule:evenodd;fill:#D06948;" d="M421.2,260.51c0.65-0.46,1.42-0.52,2.17-0.64
		c1.63,0.97,2.17,2.3,1.46,3.64c-0.55,1.05-1.68,1.59-2.68,1.27c-1.08-0.34-1.76-1.45-1.61-2.63
		C420.63,261.56,420.87,261.02,421.2,260.51z"/>
	<path style="fill-rule:evenodd;clip-rule:evenodd;fill:#D37B57;" d="M421.2,260.51c-0.13,0.65-0.38,1.31-0.37,1.96
		c0.01,0.97,0.48,1.76,1.49,2.06c0.95,0.27,1.64-0.23,2.12-0.95c0.52-0.78,0.6-1.63-0.03-2.42c-0.34-0.43-0.69-0.85-1.03-1.28
		c0.55-0.09,1.11-0.17,1.66-0.26c-0.07,0.63,0.27,1.14,0.51,1.68c0.61,1.41-0.08,3.13-1.59,4.04c-1.26,0.75-2.71,0.45-3.65-0.82
		c-0.55-0.75-0.64-1.68-0.78-2.57C419.99,261.36,420.47,260.78,421.2,260.51z"/>
	<path style="fill-rule:evenodd;clip-rule:evenodd;fill:#FEFEFE;" d="M526.08,255.05c-1.24-0.02-2.45-0.13-3.66-0.46
		c-2.03-0.55-3.14-3.61-1.01-4.82c1.22-0.7,2.29-1.7,3.59-2.16c1.89-0.67,3.94,0.91,4.41,3.16c0.02,0.08,0.02,0.16,0.03,0.24
		C529.92,254.11,529.15,255.03,526.08,255.05z"/>
	<path style="fill-rule:evenodd;clip-rule:evenodd;fill:#FEFEFE;" d="M506.38,253.87c-0.61-0.08-1.68-0.28-2.75-0.36
		c-1.74-0.14-2.22-1.38-2.42-2.77c-0.19-1.37-0.39-2.71,1.17-3.66c2.39-1.45,5.32-1,8.06,1.46c1.78,1.6,1.18,4.29-1.12,5.07
		C508.52,253.88,507.68,253.84,506.38,253.87z"/>
	<path style="fill-rule:evenodd;clip-rule:evenodd;fill:#676767;" d="M437.95,264.76c-0.09-0.05-0.17-0.09-0.26-0.13
		c0.12-0.09,0.23-0.21,0.37-0.26c0.07-0.03,0.18,0.07,0.28,0.11C438.22,264.56,438.1,264.65,437.95,264.76z"/>
	<path style="fill-rule:evenodd;clip-rule:evenodd;fill:#2B2B2A;" d="M525,253.62c0.34-0.37-0.25-1.48,0.78-1.4
		c0.53,0.04,1.61-0.01,1.46,1.11c-0.11,0.77-0.52,1.38-1.38,1.35C525.33,254.68,524.8,254.47,525,253.62z"/>
	<path style="fill-rule:evenodd;clip-rule:evenodd;fill:#2E2E2D;" d="M505.53,253.02c-0.88,0.15-0.99-0.49-1.02-1.16
		c-0.04-1.04,1.11-0.75,1.55-1.29c0.07-0.08,0.81,0.13,0.77,0.77C506.79,252.2,506.23,253.01,505.53,253.02z"/>
</g>
</svg>
