<?xml version="1.0" encoding="utf-8"?>
<!-- Generator: Adobe Illustrator 16.0.0, SVG Export Plug-In . SVG Version: 6.00 Build 0)  -->
<!DOCTYPE svg PUBLIC "-//W3C//DTD SVG 1.0//EN" "http://www.w3.org/TR/2001/REC-SVG-20010904/DTD/svg10.dtd" [
	<!ENTITY ns_flows "http://ns.adobe.com/Flows/1.0/">
	<!ENTITY ns_extend "http://ns.adobe.com/Extensibility/1.0/">
	<!ENTITY ns_ai "http://ns.adobe.com/AdobeIllustrator/10.0/">
	<!ENTITY ns_graphs "http://ns.adobe.com/Graphs/1.0/">
]>
<svg version="1.0" id="Layer_1" xmlns:x="&ns_extend;" xmlns:i="&ns_ai;" xmlns:graph="&ns_graphs;"
	 xmlns="http://www.w3.org/2000/svg" xmlns:xlink="http://www.w3.org/1999/xlink" xmlns:a="http://ns.adobe.com/AdobeSVGViewerExtensions/3.0/"
	 x="0px" y="0px" width="960px" height="560px" viewBox="0 0 960 560" style="enable-background:new 0 0 960 560;"
	 xml:space="preserve">
<g>
	<path style="fill-rule:evenodd;clip-rule:evenodd;fill:#0D0D09;" d="M487.21,308.66c-0.01,0.32,0.1,0.71-0.42,0.74
		c-0.09,0.06-0.19,0.1-0.3,0.1c-0.32-0.06-0.61-0.23-0.92-0.32c-0.46-0.16-0.92-0.31-1.39-0.46c-0.52-0.18-1.02-0.42-1.54-0.6
		c-0.4-0.2-0.84-0.33-1.06-0.78c-0.07-0.32,0.11-0.53,0.31-0.74c0.08-0.08,0.17-0.14,0.27-0.18c0.17-0.02,0.31,0.06,0.42,0.18
		c0.17,0.18,0.28,0.42,0.52,0.54c0.22,0.12,0.46,0.21,0.69,0.3c0.29,0.12,0.59,0.21,0.89,0.28c0.28,0.06,0.62,0.16,0.72-0.19
		c0.38-1.25,0.81-2.48,0.88-3.8c0.01-0.11-0.11-0.2-0.2-0.28c-0.46-0.34-0.98-0.58-1.51-0.8c-0.31-0.13-0.61,0.08-0.92,0.03
		c-0.16-0.1-0.24-0.25-0.27-0.43c-0.02-0.35,0.1-0.61,0.42-0.76c0.51-0.14,0.77-0.45,0.92-0.97c2.46-8.26,5.19-16.44,7.49-24.75
		c0.75-2.73,1.4-5.48,2.35-8.15c0.05-0.16,0.11-0.32,0.18-0.48c0.05-0.14,0.11-0.29,0.17-0.44c0.05-0.13,0.11-0.27,0.15-0.41
		c0.04-0.13,0.08-0.26,0.13-0.39c0.06-0.17,0.11-0.33,0.14-0.51c0.02-0.13,0.05-0.26,0.09-0.38c0.04-0.12,0.09-0.24,0.13-0.37
		c0.02-0.08,0.05-0.17,0.07-0.25c0.02-0.08,0.05-0.17,0.08-0.25c0.04-0.13,0.08-0.25,0.12-0.38c0.03-0.14,0.07-0.27,0.11-0.41
		c0.05-0.2,0.09-0.39,0.13-0.59c0.28-0.99,0.63-1.96,0.94-2.94c0.05-0.15,0.1-0.29,0.15-0.43c0.05-0.19,0.09-0.38,0.15-0.56
		c0.04-0.13,0.1-0.26,0.16-0.39c0.03-0.08,0.08-0.16,0.12-0.24c0.05-0.12,0.11-0.24,0.15-0.37c0.03-0.13,0.08-0.26,0.12-0.38
		c0.04-0.13,0.08-0.26,0.12-0.4c0.04-0.15,0.08-0.29,0.12-0.43c0.04-0.16,0.08-0.31,0.13-0.46c0.17-1.15,0.61-2.23,0.75-3.37
		c0.08-0.23,0.19-0.44,0.37-0.6c0.95-0.26,1.55,0.25,2.06,0.95c0.06,0.16,0.05,0.32,0,0.48c-0.03,0.1-0.06,0.19-0.11,0.28
		c-0.05,0.13-0.1,0.27-0.14,0.41c-0.04,0.18-0.07,0.36-0.13,0.54c-0.04,0.13-0.08,0.26-0.13,0.4c-0.04,0.14-0.08,0.27-0.12,0.41
		c-0.06,0.19-0.1,0.38-0.14,0.57c-0.03,0.16-0.07,0.31-0.12,0.46c-0.05,0.16-0.11,0.32-0.17,0.48c-1.05,3.56-1.96,7.15-3.02,10.71
		c-0.06,0.22-0.17,0.43-0.21,0.66c-0.03,0.17-0.08,0.33-0.13,0.49c-0.04,0.16-0.1,0.32-0.14,0.49c-0.04,0.17-0.09,0.34-0.16,0.51
		c-1.39,4.47-2.61,8.99-3.92,13.48c-0.06,0.23-0.17,0.44-0.21,0.68c-0.03,0.17-0.07,0.34-0.13,0.51c-0.05,0.17-0.11,0.34-0.15,0.51
		c-0.93,3.1-1.98,6.17-2.86,9.29c-0.05,0.16-0.11,0.31-0.18,0.47c-0.05,0.15-0.11,0.3-0.16,0.45c-0.05,0.14-0.1,0.29-0.15,0.43
		c-0.04,0.15-0.08,0.3-0.13,0.45c-0.07,0.2-0.1,0.41-0.14,0.62c-0.49,1.35-0.84,2.75-1.36,4.09c-0.19,0.49-0.36,0.97-0.23,1.51
		c0.25,0.38,0.46,0.77,0.35,1.25c-0.04,0.22-0.12,0.43-0.13,0.65c-0.02,0.22-0.06,0.44-0.12,0.66c-0.14,0.42-0.28,0.83-0.34,1.26
		c-0.07,0.55-0.34,1.08-0.21,1.66c0.14,0.2,0.36,0.07,0.53,0.13C487.35,308.27,487.35,308.46,487.21,308.66z"/>
	<path style="fill-rule:evenodd;clip-rule:evenodd;fill:#22201C;" d="M505.68,247.92c-1.13,3.8-2.07,7.67-3.44,11.39
		c-1.92,5.22-3.23,10.62-4.95,15.9c-1.97,6.07-3.81,12.18-5.7,18.27c-0.16,0.52-0.34,1.04-0.51,1.57c-0.26-0.13-0.37-0.36-0.42-0.62
		c-0.05-0.86,0.3-1.65,0.55-2.44c1.39-4.37,2.78-8.75,4.13-13.14c1.03-2.64,1.68-5.4,2.57-8.07c0.13-0.62,0.36-1.21,0.55-1.81
		c0.06-0.2,0.15-0.4,0.2-0.61c0.03-0.15,0.07-0.3,0.12-0.44c0.04-0.14,0.09-0.28,0.14-0.43c0.04-0.15,0.09-0.29,0.14-0.43
		c0.04-0.15,0.09-0.3,0.13-0.46c0.04-0.17,0.08-0.33,0.15-0.49c1.35-5.48,3.56-10.7,5.04-16.13c0.03-0.11,0.08-0.21,0.12-0.31
		c0.08-0.19,0.16-0.38,0.23-0.58c0.03-0.09,0.06-0.18,0.09-0.28c0.09-0.23,0.06-0.47,0.06-0.7c0.04-0.16,0.13-0.26,0.27-0.33
		c0.1-0.03,0.2-0.04,0.3-0.02C505.53,247.78,505.61,247.84,505.68,247.92z"/>
	<path style="fill-rule:evenodd;clip-rule:evenodd;fill:#22201C;" d="M480.95,305.75c1.29-5.07,2.93-10.04,4.53-15.02
		c1.99-6.19,3.72-12.45,5.58-18.69c0.13-0.45,0.34-0.88,0.51-1.32c0.24-0.01,0.33,0.14,0.4,0.33c0.12,0.79-0.31,1.46-0.52,2.16
		c-0.74,2.58-1.56,5.14-2.22,7.74c-0.03,0.18-0.06,0.37-0.11,0.54c-0.08,0.23-0.15,0.47-0.18,0.71c-1.11,3.91-2.46,7.74-3.64,11.62
		c-1.2,3.66-2.46,7.31-3.28,11.09c-0.11,0.5-0.14,1.04-0.64,1.35C480.99,306.29,481,306,480.95,305.75z"/>
	<path style="fill-rule:evenodd;clip-rule:evenodd;fill:#8DC6E2;" d="M434.88,310.78c-0.38-0.09-0.6-0.4-0.32-0.66
		c0.38-0.36,0.74,0,0.97,0.32c1.03,1.42,1.77,3,2.52,4.58c0.5,1.06,0.98,2.13,1.49,3.19c0.16,0.33,0.13,0.78,0.73,0.77
		c0.53-0.01,0.66-0.35,0.84-0.7c0.96-1.91,1.92-3.83,2.87-5.74c0.14-0.28,0.26-0.59,0.43-0.85c0.29-0.43,0.59-1.34,0.95-1.15
		c0.7,0.37-0.13,0.91-0.24,1.39c-0.62,2.63-1.94,4.98-3.01,7.43c-0.51,1.17-1.63,0.55-2.33,1.11c-0.2,0.16-0.49-0.62-0.67-0.99
		c-1.33-2.81-2.64-5.64-3.96-8.46C435.2,310.77,435.12,310.68,434.88,310.78z"/>
	<path style="fill-rule:evenodd;clip-rule:evenodd;fill:#131311;" d="M507.12,318.93c-1.64,0.48-3.31,0.26-4.97,0.21
		c-1.22-0.03-2.43-0.15-3.65-0.23c0.02-0.45,0.4-0.44,0.69-0.55c0.7-0.24,1.4-0.02,2.1-0.02c0.73,0,1.5,0.23,2.15-0.31
		c0.2-0.77-0.39-0.59-0.78-0.64c-0.93-0.12-1.92,0.27-2.78-0.37c0.05-0.38,0.27-0.38,0.55-0.24c0.06-0.03,0.12-0.03,0.18-0.01
		c0.11-0.06,0.21-0.06,0.32,0c0.05-0.03,0.1-0.03,0.16,0c0.96-0.26,1.96,0.09,2.92-0.2c0.62-1.98,0.75-4.02,0.75-6.07
		c0-0.4-0.3-0.89,0.21-1.17c0.46-0.26,0.83,0.03,1.19,0.29c0.21,0.13,0.42,0.25,0.54,0.48c0.15,0.29,0.21,0.59,0.2,0.91
		c-0.22,0.87-0.17,1.75-0.15,2.64c0.02,0.31,0.01,0.63,0,0.94c-0.03,0.3-0.03,0.6-0.08,0.89c-0.11,0.51,0.15,0.71,0.62,0.75
		c0.38,0.04,0.79-0.01,1.08,0.34c-0.32,0.88-1.18,0.36-1.72,0.68c-0.08,0.07-0.15,0.14-0.21,0.23c-0.55,0.82,0.19,0.91,0.66,1.15
		c0.06,0.06,0.08,0.13,0.06,0.19C507.15,318.9,507.14,318.93,507.12,318.93z"/>
	<path style="fill-rule:evenodd;clip-rule:evenodd;fill:#2F6383;" d="M506.65,310.81c-0.06-0.22-0.13-0.45-0.19-0.67
		c1.04-0.55,2.08-0.06,3.09,0.06c2.35,0.29,4.69,0.7,6.99,1.31c0.29,0.08,0.61,0.22,0.93,0.06c0.22,0.05,0.45,0.1,0.67,0.15
		c0.8,0.58,1.78,0.54,2.68,0.77c0.37,0.09,1.02,0,0.57,0.75c-0.87,0.49-1.8,0.39-2.67,0.13c-3.53-1.02-7.13-1.55-10.81-1.51
		C507.15,311.87,506.72,311.58,506.65,310.81z"/>
	<path style="fill-rule:evenodd;clip-rule:evenodd;fill:#23211D;" d="M491.78,271c-0.07-0.09-0.14-0.18-0.22-0.28
		c-0.03-0.08-0.03-0.15-0.01-0.23c0.07-0.09,0.11-0.18,0.14-0.29c1.98-6.12,3.96-12.24,5.92-18.36c0.78-2.45,1.5-4.92,2.25-7.38
		c0.16,0.01,0.27,0.1,0.36,0.22c0.08,0.12,0.11,0.26,0.12,0.4c0,0.09-0.01,0.18-0.02,0.27c-0.02,0.18,0,0.36,0.01,0.54
		c-0.02,0.18-0.09,0.33-0.28,0.4c-0.29,0.19,0.11,0.38,0,0.58c-0.03,0.29-0.14,0.55-0.28,0.81c-1.16,3.18-2.03,6.45-3.06,9.67
		c-0.34,1.06-0.77,2.09-1.07,3.17c-0.08,0.23-0.18,0.45-0.23,0.69c-0.03,0.12-0.07,0.24-0.11,0.35c-0.89,2.59-1.76,5.18-2.56,7.79
		C492.54,269.96,492.6,270.75,491.78,271z"/>
	<path style="fill-rule:evenodd;clip-rule:evenodd;fill:#10100D;" d="M499.65,247.51c0.08-0.28,0.16-0.56,0.25-0.84
		c-0.1-0.16-0.13-0.31,0.07-0.43c0.07-0.16,0.13-0.32,0.2-0.48c-0.14-0.17-0.13-0.33,0.01-0.49l-0.01,0.02
		c0.08-0.17,0.26-0.35-0.04-0.5c-0.09-0.11-0.17-0.21-0.26-0.32c-0.6-0.7-0.5-1.15,0.38-1.57c0.99-0.47,1.93-0.89,3.03-0.47
		c0.04,0.32-0.21,0.38-0.43,0.47c-0.45,0.09-0.9,0.15-1.33,0.31c-0.47,0.21-1.13,0.27-0.5,1.06c0.3,0.38,0.06,0.91-0.06,1.38
		c-0.1,0.4-0.42,0.8-0.05,1.22c1.16,0.25,2.17,0.96,3.37,1.03c0.14-0.29,0.13-0.61,0.13-0.92c0.02-1.04,0.46-1.77,1.51-2.07
		c0.14-0.1,0.28-0.18,0.46-0.11c0.49,1.2-0.63,2.04-0.69,3.11c-0.09,0-0.17,0-0.26,0c-0.33-0.53,0.25-0.97,0.14-1.47
		c0-0.07,0-0.14-0.03-0.21c0.02,0.07,0.02,0.14,0.02,0.22c-0.01,0.52-0.26,0.98-0.36,1.47c-0.07,0.09-0.15,0.19-0.22,0.28
		c0.12,0.23,0.15,0.46-0.03,0.69l0.01-0.02c-0.23,0.2-0.03,0.54-0.25,0.74l0.02-0.02c-0.19,0.17-0.35,0.04-0.52-0.05
		c-0.19-0.14-0.34-0.31-0.52-0.47c-0.11-0.08-0.22-0.16-0.34-0.22c-0.09-0.04-0.17-0.08-0.26-0.12c-0.14-0.06-0.27-0.11-0.41-0.16
		c-0.55-0.21-1.12-0.33-1.69-0.46C500.54,247.89,499.88,248.17,499.65,247.51z"/>
	<path style="fill-rule:evenodd;clip-rule:evenodd;fill:#1F1910;" d="M482.15,306.7c-0.16,0.17-0.31,0.34-0.47,0.5
		c-0.1,0.12-0.23,0.2-0.38,0.24c-0.18,0.05-0.38,0.07-0.54,0.19c-0.22,0.29-0.02,0.57,0,0.86c-0.13,1.46-0.22,2.91-0.15,4.36
		c0.02,0.38-0.12,0.81,0.31,1.06c0.1,0.05,0.2,0.1,0.31,0.14c0.38,0.11,0.76,0.23,1.13,0.39c0.16,0.07,0.3,0.16,0.44,0.26
		c0.19,0.19,0.5,0.32,0.35,0.69c-0.43,0.84-0.87,1.67-1.29,2.52c-0.23,0.47-0.7,0.55-1.1,0.56c-0.48,0.01-0.4-0.48-0.46-0.81
		c-0.7-3.42-0.1-6.87-0.26-10.3c-0.01-0.21,0.29-0.43,0.44-0.65c0.27,0.01,0.5-0.13,0.76-0.19c0.16-0.04,0.32-0.06,0.48-0.04
		C481.88,306.51,482.02,306.59,482.15,306.7z"/>
	<path style="fill-rule:evenodd;clip-rule:evenodd;fill:#2C2D2D;" d="M491.14,318.5c-0.83-0.03-1.66-0.02-2.47-0.11
		c-0.31-0.03-0.85,0.2-0.9-0.28c-0.04-0.36,0.38-0.66,0.75-0.82c1.04-0.47,2.09-0.9,3.25-0.92c0.49,0.2,1.04-0.03,1.53,0.17
		c0.17,0,0.34,0,0.51-0.01c0.24-0.1,0.49-0.08,0.73,0c0.09,0,0.18,0,0.27,0.01c0.13-0.07,0.26-0.07,0.39,0
		c1.33,0.02,2.67,0.04,4,0.07c0.15,0.2,0.13,0.38-0.04,0.55c-1.08,0.42-2.21,0.26-3.31,0.16c-1.59-0.13-3.17-0.25-4.76-0.08
		c-0.52,0.11-1.05,0.22-1.56,0.42c-0.1,0.04-0.21,0.03-0.29,0.11c0.11-0.03,0.22-0.06,0.33-0.07c0.47-0.03,0.93,0.05,1.39,0.16
		c0.19,0.02,0.37,0,0.56,0c0.67,0.06,1.39-0.14,1.97,0.37c0.04,0.16-0.02,0.27-0.17,0.34C492.59,318.57,491.86,318.69,491.14,318.5z
		"/>
	<path style="fill-rule:evenodd;clip-rule:evenodd;fill:#232B2C;" d="M524.25,315.51c-2.53,0.87-4.96,2.06-7.69,2.28
		c-0.24,0.08-0.47,0.16-0.61-0.15c0.01-0.13,0.08-0.23,0.19-0.29c0.27-0.14,0.57-0.19,0.85-0.29c0.17-0.05,0.34-0.09,0.52-0.11
		c1.1-0.13,2.13-0.61,3.24-0.7c0.15-0.01,0.29-0.09,0.43-0.17c-0.14-0.02-0.21,0.13-0.35,0.14c-0.94,0.06-1.83,0.54-2.81,0.43
		c-0.38-0.07-0.82-0.04-0.87-0.58c0.73-0.86,1.79-0.54,2.7-0.72c0.89-0.18,1.81-0.25,2.69-0.53c0.62-0.2,1.26-0.26,1.83,0.19
		c0.11,0.11,0.12,0.24,0.04,0.37l-0.06,0.08L524.25,315.51z"/>
	<path style="fill-rule:evenodd;clip-rule:evenodd;fill:#2C2F30;" d="M517.47,311.57c-1.63,0.41-3.07-0.51-4.62-0.67
		c-2.13-0.22-4.23-0.79-6.39-0.76c-0.1-0.17-0.2-0.34-0.3-0.52C509.99,309.89,513.76,310.53,517.47,311.57z"/>
	<path style="fill-rule:evenodd;clip-rule:evenodd;fill:#2D3234;" d="M524.41,315.38c-0.01-0.1-0.01-0.2-0.02-0.3
		c0.38-1.08,0.38-1.08-1.32-1.42c-0.26-0.07-0.5-0.16-0.75-0.25c-0.15-0.05-0.29-0.11-0.43-0.17c-0.14-0.07-0.27-0.15-0.34-0.3
		c-1.06-0.25-2.13-0.5-3.18-0.78c-0.09-0.03-0.84,0.04-0.22-0.44c2.26,0.52,4.52,1.03,6.78,1.55c0.51,0.12,0.86,0.51,0.92,0.97
		c0.09,0.66-0.59,0.73-1,1l-0.09,0.07C524.63,315.33,524.52,315.35,524.41,315.38z"/>
	<path style="fill-rule:evenodd;clip-rule:evenodd;fill:#2A2825;" d="M487.21,308.66c-0.07-0.16-0.14-0.33-0.21-0.49
		c-0.26-0.21-0.22-0.49-0.16-0.76c0.6-2.42,1.18-4.84,2.06-7.17c0.04-0.11,0.15-0.18,0.24-0.25c0.43-0.09,0.26,0.35,0.43,0.49
		C488.79,303.2,488,305.93,487.21,308.66z"/>
	<path style="fill-rule:evenodd;clip-rule:evenodd;fill:#161514;" d="M489.58,300.47c-0.09-0.18-0.18-0.37-0.27-0.55
		c-0.45-0.78,0.07-1.47,0.19-2.2c0.53-1.05,0.33-2.4,1.35-3.24c0.08,0.18,0.16,0.37,0.23,0.55
		C490.82,296.92,490.24,298.71,489.58,300.47z"/>
	<path style="fill-rule:evenodd;clip-rule:evenodd;fill:#33261E;" d="M483.14,315.4c-0.17-0.17-0.34-0.33-0.5-0.5
		c1.13-1.47,2.11-3.05,2.97-4.7c0.18-0.36,0.26-0.87,0.85-0.85c0.11,0.01,0.23,0.03,0.34,0.04
		C485.75,311.51,484.64,313.57,483.14,315.4z"/>
	<path style="fill-rule:evenodd;clip-rule:evenodd;fill:#2D3334;" d="M516,317.59c0.19,0.07,0.37,0.14,0.56,0.2
		c-1.75,0.52-3.58,0.61-5.37,0.88c-0.08-0.12-0.1-0.25-0.04-0.38C512.69,317.52,514.3,317.21,516,317.59z"/>
	<path style="fill-rule:evenodd;clip-rule:evenodd;fill:#282926;" d="M506.38,244.81c-0.08,0.09-0.16,0.18-0.24,0.26
		c-0.43,0.02-0.54-0.36-0.75-0.61c-0.42-0.62-1.07-0.9-1.74-1.17c-0.34-0.14-0.82-0.09-0.88-0.63c0.17-0.08,0.34-0.16,0.51-0.24
		C504.62,242.81,505.92,243.26,506.38,244.81z"/>
	<path style="fill-rule:evenodd;clip-rule:evenodd;fill:#2C2D2D;" d="M499.25,318.69c-0.25,0.07-0.5,0.14-0.75,0.22
		c-0.25,0-0.5,0-0.75-0.01c-0.24-0.12-0.53-0.02-0.77-0.16c-1.02-0.02-2.04-0.05-3.05-0.07c-0.06-0.11-0.05-0.21,0.04-0.29
		c0.19-0.14,0.42-0.17,0.64-0.19c0.11-0.01,0.23-0.02,0.34-0.02c0.17-0.01,0.35-0.01,0.52-0.01c0.18-0.01,0.36-0.02,0.55-0.01
		c0.2-0.01,0.39-0.01,0.58-0.02c0.54-0.03,1.09-0.05,1.63,0.01C498.63,318.17,499.11,318.14,499.25,318.69z"/>
	<path style="fill-rule:evenodd;clip-rule:evenodd;fill:#52B2D7;" d="M447.49,319.56c-0.2,0.38-0.48,0.68-0.88,0.72
		c-0.36,0.04-0.43-0.28-0.39-0.57c0.07-0.42,0.39-0.76,0.74-0.82C447.31,318.83,447.3,319.34,447.49,319.56z"/>
	<path style="fill-rule:evenodd;clip-rule:evenodd;fill:#181917;" d="M511.19,318.46c-0.01,0.07-0.01,0.14,0,0.21
		c-1.36,0.09-2.72,0.17-4.08,0.26c0-0.08,0-0.15,0-0.23C508.43,317.76,509.8,317.93,511.19,318.46z"/>
	<path style="fill-rule:evenodd;clip-rule:evenodd;fill:#0D0D09;" d="M481.23,306.66c-0.23,0.34-0.48,0.38-0.76,0.05
		c0.16-0.32,0.31-0.64,0.47-0.96c0.1,0.18,0.2,0.37,0.3,0.55C481.34,306.43,481.34,306.55,481.23,306.66z"/>
	<path style="fill-rule:evenodd;clip-rule:evenodd;fill:#414242;" d="M504.01,316.58c-0.94,0.53-1.95,0.17-2.92,0.2
		C502.03,316.31,503.04,316.72,504.01,316.58z"/>
	<path style="fill-rule:evenodd;clip-rule:evenodd;fill:#32302D;" d="M493.92,318.49c0,0.06,0,0.13,0,0.19
		c-0.93,0.03-1.86,0.07-2.78-0.18c0.76-0.01,1.53-0.02,2.29-0.03C493.6,318.33,493.77,318.35,493.92,318.49z"/>
	<path style="fill-rule:evenodd;clip-rule:evenodd;fill:#414242;" d="M499.2,317c0-0.13,0-0.27,0-0.4c0.43-0.06,0.84-0.03,1.23,0.19
		c-0.16,0.07-0.33,0.14-0.49,0.21C499.69,317.25,499.44,317.25,499.2,317z"/>
	<path style="fill-rule:evenodd;clip-rule:evenodd;fill:#36332F;" d="M493.3,316.53c-0.52-0.01-1.05,0.19-1.53-0.17
		C492.29,316.31,492.81,316.29,493.3,316.53z"/>
	<path style="fill-rule:evenodd;clip-rule:evenodd;fill:#32A6D0;" d="M434.88,310.78c0.04-0.12,0-0.38,0.22-0.29
		c0.23,0.1,0.35,0.31,0.05,0.52C435.06,310.93,434.97,310.86,434.88,310.78z"/>
	<path style="fill-rule:evenodd;clip-rule:evenodd;fill:#263336;" d="M496.98,318.75c0.27-0.02,0.55-0.07,0.77,0.16
		C497.49,318.85,497.23,318.8,496.98,318.75z"/>
	<path style="fill-rule:evenodd;clip-rule:evenodd;fill:#36332F;" d="M494.54,316.53c-0.24,0-0.49,0-0.73,0
		C494.05,316.28,494.3,316.35,494.54,316.53z"/>
	<path style="fill-rule:evenodd;clip-rule:evenodd;fill:#8897A1;" d="M491.69,270.21c-0.05,0.1-0.09,0.19-0.14,0.29
		C491.6,270.4,491.64,270.3,491.69,270.21z"/>
	<polygon style="fill-rule:evenodd;clip-rule:evenodd;fill:#3A84A7;" points="524.74,315.3 524.77,315.23 524.84,315.24 
		524.82,315.31 	"/>
	
		<rect x="524.26" y="315.44" transform="matrix(-0.251 0.968 -0.968 -0.251 961.2671 -112.8616)" style="fill-rule:evenodd;clip-rule:evenodd;fill:#3A84A7;" width="0.08" height="0.08"/>
	<path style="fill-rule:evenodd;clip-rule:evenodd;fill:#36332F;" d="M495.2,316.53c-0.13,0-0.26,0-0.39,0
		C494.94,316.4,495.07,316.41,495.2,316.53z"/>
	<path style="fill-rule:evenodd;clip-rule:evenodd;fill:#414242;" d="M500.93,316.77c-0.11,0-0.22,0-0.32,0
		C500.71,316.6,500.81,316.58,500.93,316.77z"/>
	<path style="fill-rule:evenodd;clip-rule:evenodd;fill:#31A6D3;" d="M485.34,301.83c0.42-2.67,1.3-4.94,2.05-7.24
		c2.64-8.15,4.93-16.4,7.26-24.64c0.53-1.88,1.1-3.74,1.71-5.6c0.12-0.35,0.03-1.12,0.83-0.84c0.66,0.23,0.33,0.71,0.22,1.1
		c-2.63,8.9-5.04,17.86-7.88,26.7c-1.13,3.52-2.21,7.06-3.3,10.6c-0.09,0.29-0.11,0.59-0.5,0.46
		C485.37,302.24,485.3,301.94,485.34,301.83z"/>
	<path style="fill-rule:evenodd;clip-rule:evenodd;fill:#E3E3E5;" d="M495.64,265.04c-0.03,0.14-0.05,0.27-0.08,0.41
		c-0.1,0.16-0.07,0.36-0.18,0.52c-0.03,0.15-0.07,0.3-0.1,0.44c-0.04,0.1-0.08,0.19-0.14,0.28c-0.03,0.15-0.06,0.29-0.09,0.44
		c-0.05,0.1-0.09,0.2-0.14,0.3c-2.21,7.48-4.17,15.03-6.51,22.47c-1.2,3.79-2.67,7.5-3.43,11.43c-0.19,0.98-0.72,0.32-1.13,0.33
		c-0.57-0.28-0.36-0.76-0.22-1.13c0.91-2.41,1.46-4.93,2.39-7.33c0.69-1.41,1-2.94,1.48-4.42c1.75-5.43,3.31-10.91,5.09-16.33
		c0.73-2.22,1.61-4.42,2.04-6.75c0.1-0.54,0.3-1.08,0.76-1.46c0.24-0.07,0.36,0.06,0.43,0.26c-0.01,0.08-0.02,0.17-0.03,0.25
		C495.74,264.83,495.64,264.91,495.64,265.04z"/>
	<path style="fill-rule:evenodd;clip-rule:evenodd;fill:#FAFAFA;" d="M503.32,248.62c0.07-0.02,0.13,0.01,0.18,0.07
		c0.05,0.2-0.04,0.35-0.16,0.5c-0.26,0.26-0.44,0.54-0.46,0.92c-0.13,1.88-1.02,3.54-1.53,5.31c-0.2,0.29-0.23,0.76-0.75,0.69
		c-0.09-0.18-0.09-0.36,0.02-0.53c0.02-0.15,0.05-0.3,0.07-0.45c0.04-0.11,0.15-0.19,0.14-0.32c0.03-0.21,0.07-0.43,0.1-0.64
		c0.05-0.1,0.1-0.19,0.15-0.29c-0.02-0.08,0.01-0.15,0.09-0.19c0.04-0.11,0.13-0.19,0.15-0.3c-0.35-0.8-1.18-0.81-1.84-1.1
		c-0.11,0.07-0.21,0.07-0.32,0c-0.06-0.11-0.08-0.22-0.09-0.34c0.35-1.38,0.64-2.79,1.18-4.12c0.3,0,0.6-0.07,0.88,0.07
		c0.69,0,1.29,0.3,1.9,0.56C503.13,248.51,503.23,248.56,503.32,248.62z"/>
	<path style="fill-rule:evenodd;clip-rule:evenodd;fill:#E3A61D;" d="M482.4,314.69c-0.39-0.11-0.79-0.23-1.18-0.34
		c-0.67-0.83,0.01-1.6,0.16-2.36c0.28-1.41,0.39-2.9,1.27-4.14c0.56,0.2,1.12,0.4,1.67,0.59c0.13,0.16,0.19,0.36,0.14,0.55
		c-0.51,1.9-1.16,3.76-1.9,5.59C482.51,314.62,482.45,314.66,482.4,314.69z"/>
	<path style="fill-rule:evenodd;clip-rule:evenodd;fill:#E0E2E4;" d="M492.45,283.65c1.26-4.68,2.49-9.36,4.08-13.94
		c0.69-0.72,0.69-0.72,1.14-0.44c-0.69,2.49-1.52,4.94-2.24,7.41c-0.63,2.14-1.32,4.25-1.98,6.38c-0.16,0.52-0.28,1.09-0.83,1.39
		c-0.15-0.01-0.23-0.09-0.24-0.24C492.36,284.02,492.35,283.82,492.45,283.65z"/>
	<path style="fill-rule:evenodd;clip-rule:evenodd;fill:#DEE1E5;" d="M500.55,253.62c-0.22,0.85-0.43,1.66-0.65,2.46
		c-0.61,2.13-1.22,4.26-1.84,6.39c-0.1,0.34,0.02,0.86-0.68,0.63c-0.61-0.2-0.43-0.56-0.3-0.93c0.93-2.73,1.86-5.47,2.78-8.2
		c0.09-0.27,0.13-0.56,0.47-0.61C500.58,253.32,500.53,253.52,500.55,253.62z"/>
	<path style="fill-rule:evenodd;clip-rule:evenodd;fill:#B9BEC4;" d="M486.24,293.28c-0.73,2.34-1.47,4.67-2.2,7.01
		c-0.14,0.44-0.46,0.85-0.2,1.35c-0.33,0.12-0.31,0.4-0.29,0.67c0.16,1.27-0.42,2.33-0.99,3.4c-0.09,0.09-0.21,0.13-0.33,0.12
		c-0.12-0.05-0.2-0.14-0.25-0.26c-0.12-0.82,0.19-1.57,0.4-2.33c0.42-1.5,0.85-3,1.36-4.46c0.11-0.24,0.24-0.48,0.32-0.74
		c0.03-0.09,0.07-0.19,0.1-0.28c0.09-0.22,0.13-0.46,0.18-0.69c0.02-0.09,0.05-0.18,0.08-0.27c0.06-0.18,0.12-0.35,0.17-0.54
		c0.02-0.09,0.05-0.18,0.08-0.27c0.05-0.19,0.09-0.38,0.13-0.57c0.02-0.1,0.04-0.2,0.08-0.3c0.06-0.21,0.12-0.41,0.18-0.62
		c0.03-0.11,0.07-0.22,0.11-0.33c0.42-1.5,0.95-2.96,1.38-4.45c0.14-0.48,0.07-1.27,0.97-1.19
		C487.36,290.18,486.76,291.72,486.24,293.28z"/>
	<path style="fill-rule:evenodd;clip-rule:evenodd;fill:#EFEFF0;" d="M497.51,269.03c-0.36,0.15-0.45,0.51-0.63,0.79
		c-0.28,0.44-0.28,0.06-0.35-0.12c0.03-0.14,0.05-0.29,0.08-0.43c0.06-0.11,0.15-0.2,0.15-0.33c0.03-0.13,0.05-0.26,0.08-0.39
		c0.1-0.18,0.11-0.39,0.16-0.58c1.07-3.73,2.14-7.45,3.22-11.18c0.06-0.1,0.11-0.19,0.16-0.29c0.02-0.14,0.04-0.28,0.06-0.42
		c0.07-0.12,0.13-0.13,0.2,0c0.16-0.24,0.32-0.48,0.49-0.72c0.24,0.19,0.25,0.46,0.23,0.73c-0.01,0.1-0.04,0.21-0.07,0.31
		c-0.08,0.24-0.13,0.49-0.19,0.74c-0.02,0.1-0.06,0.19-0.1,0.29c-0.19,0.36-0.3,0.74-0.37,1.14c-0.02,0.1-0.05,0.2-0.09,0.3
		c-0.07,0.21-0.13,0.41-0.21,0.62c-0.04,0.11-0.09,0.21-0.16,0.3c-0.96,2.5-1.59,5.1-2.12,7.72c-0.02,0.11-0.05,0.22-0.08,0.33
		c-0.12,0.31-0.15,0.64-0.25,0.96C497.67,268.89,497.6,268.97,497.51,269.03z"/>
	<path style="fill-rule:evenodd;clip-rule:evenodd;fill:#8C9AA4;" d="M489.78,297.83c-0.16,0.7-0.31,1.4-0.47,2.1
		c-0.86,2.72-1.71,5.45-2.31,8.24c-0.13,0.47-0.29,0.85-0.76,0.23c0.09-0.72,0.43-1.4,0.29-2.14c0.13-0.42,0.26-0.84,0.39-1.26
		c0.64-2.02,0.89-4.16,1.71-6.13c0.11-0.28,0.2-0.56,0.37-0.81C489.21,297.81,489.43,297.6,489.78,297.83z"/>
	<path style="fill-rule:evenodd;clip-rule:evenodd;fill:#D6B97E;" d="M484.51,307.97c-0.3-0.11-0.6-0.22-0.89-0.33
		c-0.18-1.42,0.57-2.66,0.83-4c0.08-0.41,0.54-0.55,0.98-0.48c0.41,0.07,0.58,0.38,0.63,0.76c0.06,0.43,0.07,0.87-0.02,1.29
		c-0.12,0.7-0.28,1.38-0.52,2.05C485.36,307.74,485.14,308.15,484.51,307.97z"/>
	<path style="fill-rule:evenodd;clip-rule:evenodd;fill:#C43E1B;" d="M486.45,309.36c-0.95,1.59-1.9,3.19-2.85,4.77
		c-0.22,0.37-0.43,0.78-0.96,0.77c-0.08-0.07-0.16-0.14-0.24-0.21l-0.01-0.08c0.39-0.39,0.46-0.92,0.61-1.41
		c0.5-1.7,1.56-3.02,2.76-4.26C486.03,309.01,486.35,309,486.45,309.36z"/>
	<path style="fill-rule:evenodd;clip-rule:evenodd;fill:#CD631D;" d="M485.76,308.94c-1.12,1.89-2.25,3.78-3.37,5.67
		c0.64-2.05,1.29-4.11,1.93-6.16C484.8,308.61,485.28,308.78,485.76,308.94z"/>
	<path style="fill-rule:evenodd;clip-rule:evenodd;fill:#E5E6E8;" d="M492.44,284.08c0.02,0.11,0.04,0.22,0.05,0.33
		c0.17,0.15,0.2,0.35,0.18,0.57c-0.02,0.15-0.07,0.29-0.12,0.44c-0.04,0.14-0.09,0.28-0.14,0.41c-0.05,0.14-0.09,0.27-0.14,0.41
		c-0.04,0.14-0.08,0.28-0.12,0.42c-0.06,0.19-0.1,0.38-0.14,0.58c-0.14,0.54-0.32,1.07-0.49,1.59c-0.05,0.14-0.1,0.28-0.16,0.42
		c-0.04,0.14-0.09,0.27-0.15,0.41c-0.05,0.13-0.1,0.27-0.14,0.4c-0.04,0.14-0.08,0.28-0.12,0.41c-0.04,0.14-0.08,0.29-0.11,0.43
		c-0.07,0.36-0.2,0.7-0.33,1.04c-0.11,0.26-0.11,0.54-0.14,0.81c-0.53,1.29-0.58,2.74-1.42,3.91c-0.12,0.06-0.24,0.06-0.36,0
		c-0.08-0.18-0.09-0.37,0.02-0.54c0.02-0.15,0.04-0.29,0.06-0.44c0.07-0.1,0.15-0.19,0.17-0.31c0.03-0.14,0.06-0.27,0.09-0.41
		c0.06-0.11,0.15-0.19,0.15-0.32c0.99-3.25,1.97-6.5,2.96-9.75c0.05-0.1,0.15-0.18,0.14-0.31c0.03-0.14,0.05-0.27,0.08-0.41
		l0.06-0.1L492.44,284.08z"/>
	<path style="fill-rule:evenodd;clip-rule:evenodd;fill:#CA581D;" d="M482.65,307.85c-0.47,2.16-0.95,4.33-1.42,6.49
		c-0.09-0.01-0.17-0.02-0.26-0.04c-0.31-0.36-0.37-0.79-0.28-1.23c0.35-1.76,0.46-3.53,0.33-5.31c-0.01-0.2,0.06-0.39,0.19-0.55
		c0.16-0.01,0.31-0.01,0.47-0.02C482,307.42,482.32,307.63,482.65,307.85z"/>
	<path style="fill-rule:evenodd;clip-rule:evenodd;fill:#BA9B60;" d="M485.77,305.29c-0.2-0.62,0.46-1.68-0.46-1.83
		c-1.13-0.18-0.62,1.03-0.86,1.6c-0.35,0.83-0.56,1.72-0.83,2.59c-0.24-0.08-0.48-0.16-0.72-0.24c0.39-1.73,0.76-3.46,1.66-5.02
		c0.56,0.26,1.11,0.52,1.67,0.78C486.4,303.94,486.54,304.71,485.77,305.29z"/>
	<path style="fill-rule:evenodd;clip-rule:evenodd;fill:#7E6B49;" d="M484.56,302.38c-0.42,1.72-0.7,3.48-1.66,5.02
		c-0.33-0.08-0.3-0.42-0.45-0.63c0.08-1.5,0.88-2.78,1.35-4.15C483.93,302.15,484.17,302.01,484.56,302.38z"/>
	<path style="fill-rule:evenodd;clip-rule:evenodd;fill:#E5E6E7;" d="M488.63,296.64c0.08,0,0.16,0,0.24,0
		c0.4,0.57-0.07,1.05-0.21,1.54c-0.13,0.46-0.15,0.93-0.25,1.38c-0.23,0.8-0.47,1.59-0.74,2.38c-0.14,0.42-0.29,0.97-0.98,0.71
		c0.04-2.16,1.23-3.99,1.73-6.01C488.49,296.52,488.56,296.52,488.63,296.64z"/>
	<path style="fill-rule:evenodd;clip-rule:evenodd;fill:#B9BEC4;" d="M486.7,302.66c1.26-0.69,0.83-2.16,1.46-3.14
		c0.39-0.39-0.08-1.23,0.74-1.4c0.13,0.23,0.14,0.46-0.01,0.68c-0.56,2.01-1.11,4.02-1.67,6.03c-0.05,0.16-0.09,0.31-0.3,0.16
		c0.03-0.22,0.06-0.45,0.09-0.67c0.08-0.17,0.06-0.36,0.16-0.53C487.27,303.31,487.11,302.93,486.7,302.66z"/>
	<path style="fill-rule:evenodd;clip-rule:evenodd;fill:#947C51;" d="M485.77,305.29c0.45-0.64,0.11-1.46,0.45-2.13
		c0.44,0.26,0.55,0.59,0.4,1.11c-0.31,1.03-0.61,2.07-0.79,3.13c-0.17,0.97-0.62,0.97-1.32,0.58
		C485.63,307.4,485.36,306.19,485.77,305.29z"/>
	<path style="fill-rule:evenodd;clip-rule:evenodd;fill:#E9E9EA;" d="M498.05,257.61c-0.03,0.13-0.06,0.25-0.1,0.38
		c-0.08,0.08-0.17,0.12-0.29,0.13c-0.11-0.02-0.2-0.08-0.26-0.17c-0.21-0.49,0.05-0.94,0.11-1.41c0.02-0.1,0.05-0.2,0.09-0.3
		c0.07-0.2,0.13-0.4,0.19-0.61c0.03-0.11,0.06-0.21,0.1-0.31c0.3-0.72,0.54-1.45,0.64-2.22c0.19-0.32,0.06-0.89,0.68-0.86l-0.01,0
		c0.15,0.17,0.12,0.35,0.02,0.53c0.02,1.33-0.54,2.53-0.81,3.8c-0.05,0.1-0.1,0.2-0.15,0.3c-0.02,0.14-0.05,0.28-0.07,0.42
		C498.13,257.39,498.04,257.48,498.05,257.61z"/>
	<path style="fill-rule:evenodd;clip-rule:evenodd;fill:#EFEFF0;" d="M497.51,258c0.08,0,0.16,0,0.24,0
		c0.07,0.05,0.09,0.11,0.08,0.17c-0.02,0.06-0.03,0.09-0.05,0.09c0.01,0.08-0.01,0.15-0.06,0.21c-0.06,0.1-0.15,0.19-0.15,0.33
		c-0.04,0.21-0.07,0.42-0.1,0.64c-0.04,0.11-0.14,0.19-0.14,0.31c-0.34,1.1-0.68,2.19-1.02,3.29c-0.13,0.15-0.08,0.36-0.2,0.51
		c-0.03,0.15-0.06,0.3-0.09,0.45c-0.04,0.1-0.09,0.19-0.14,0.29c0.02,0.07,0,0.14-0.05,0.19c-0.08-0.08-0.15-0.16-0.23-0.25
		c-0.26-0.27-0.21-0.58-0.12-0.89c0.48-1.59,1.04-3.16,1.51-4.76C497.05,258.3,497.22,258.08,497.51,258z"/>
	<path style="fill-rule:evenodd;clip-rule:evenodd;fill:#242019;" d="M483.8,302.62c-0.17,1.48-0.9,2.77-1.35,4.15
		c-0.08-0.1-0.16-0.19-0.25-0.29c-0.08-0.06-0.13-0.14-0.13-0.24c0.03-0.21,0.19-0.34,0.3-0.49c0.39-1.15,0.79-2.29,1.18-3.44
		C483.64,302.42,483.72,302.52,483.8,302.62z"/>
	<path style="fill-rule:evenodd;clip-rule:evenodd;fill:#A2ACB4;" d="M486.53,306.26c0.42,0.79-0.01,1.46-0.29,2.14
		C486,307.64,486.37,306.96,486.53,306.26z"/>
	<path style="fill-rule:evenodd;clip-rule:evenodd;fill:#CCD2D9;" d="M482.17,306.25c-0.01,0.08,0,0.16,0.03,0.24
		c-0.04,0.07-0.05,0.14-0.05,0.21c-0.16,0.01-0.31,0.01-0.47,0.02c-0.07-0.44-0.13-0.87,0.48-0.96l0,0
		C482.31,305.92,482.29,306.08,482.17,306.25z"/>
	<path style="fill-rule:evenodd;clip-rule:evenodd;fill:#D2D4D8;" d="M488.63,296.64c-0.07,0-0.14,0-0.2,0.01
		c0.06-0.17,0.13-0.35,0.19-0.52C488.63,296.29,488.63,296.46,488.63,296.64z"/>
	<path style="fill-rule:evenodd;clip-rule:evenodd;fill:#D0D2D5;" d="M496.1,263.55c0.07-0.17,0.13-0.34,0.2-0.51
		C496.23,263.21,496.16,263.38,496.1,263.55z"/>
	<path style="fill-rule:evenodd;clip-rule:evenodd;fill:#8C9AA4;" d="M487.17,303.8c-0.05,0.17-0.1,0.35-0.16,0.53
		C487.07,304.15,487.12,303.97,487.17,303.8z"/>
	<path style="fill-rule:evenodd;clip-rule:evenodd;fill:#CACCD1;" d="M499.22,252.76c-0.01-0.18-0.01-0.35-0.02-0.53
		c0.1,0.01,0.19,0.02,0.29,0.04C499.4,252.43,499.31,252.6,499.22,252.76z"/>
	<path style="fill-rule:evenodd;clip-rule:evenodd;fill:#E0E2E4;" d="M500.63,256.08c-0.07,0-0.14,0-0.2,0
		c0.06-0.17,0.13-0.34,0.19-0.51C500.63,255.74,500.63,255.91,500.63,256.08z"/>
	<path style="fill-rule:evenodd;clip-rule:evenodd;fill:#D0D2D5;" d="M495.38,265.96c0.06-0.17,0.12-0.35,0.18-0.52
		C495.5,265.62,495.44,265.79,495.38,265.96z"/>
	<path style="fill-rule:evenodd;clip-rule:evenodd;fill:#A4AEB6;" d="M492.44,284.08c-0.06,0.03-0.12,0.06-0.18,0.08
		c0.06-0.17,0.13-0.34,0.19-0.52C492.45,283.79,492.44,283.93,492.44,284.08z"/>
	<path style="fill-rule:evenodd;clip-rule:evenodd;fill:#E0E2E4;" d="M497,267.98c-0.05,0.19-0.11,0.39-0.16,0.58
		C496.89,268.36,496.94,268.17,497,267.98z"/>
	<path style="fill-rule:evenodd;clip-rule:evenodd;fill:#D2D4D8;" d="M489.08,294.63c-0.05,0.11-0.1,0.22-0.15,0.32
		C488.98,294.85,489.03,294.74,489.08,294.63z"/>
	<path style="fill-rule:evenodd;clip-rule:evenodd;fill:#E0E2E4;" d="M496.76,268.94c-0.05,0.11-0.1,0.22-0.15,0.33
		C496.66,269.17,496.71,269.06,496.76,268.94z"/>
	<path style="fill-rule:evenodd;clip-rule:evenodd;fill:#A4AEB6;" d="M492.18,284.57c-0.05,0.1-0.09,0.21-0.14,0.31
		C492.09,284.78,492.13,284.68,492.18,284.57z"/>
	<path style="fill-rule:evenodd;clip-rule:evenodd;fill:#D0D2D5;" d="M494.91,267.42c0.05-0.1,0.09-0.2,0.14-0.3
		C495,267.22,494.95,267.32,494.91,267.42z"/>
	<path style="fill-rule:evenodd;clip-rule:evenodd;fill:#D0D2D5;" d="M495.14,266.68c0.05-0.09,0.09-0.19,0.14-0.28
		C495.23,266.5,495.19,266.59,495.14,266.68z"/>
	<path style="fill-rule:evenodd;clip-rule:evenodd;fill:#D0D2D5;" d="M495.64,265.04c0.05-0.1,0.09-0.21,0.14-0.31
		C495.73,264.83,495.68,264.93,495.64,265.04z"/>
	<path style="fill-rule:evenodd;clip-rule:evenodd;fill:#D0D2D5;" d="M495.86,264.28c0.05-0.1,0.09-0.19,0.14-0.29
		C495.96,264.09,495.91,264.19,495.86,264.28z"/>
	<path style="fill-rule:evenodd;clip-rule:evenodd;fill:#E0E2E4;" d="M501.09,253.87c-0.05,0.1-0.1,0.2-0.15,0.29
		C501,254.06,501.04,253.96,501.09,253.87z"/>
	<path style="fill-rule:evenodd;clip-rule:evenodd;fill:#D0D2D5;" d="M497.32,259.75c0.05-0.1,0.09-0.21,0.14-0.31
		C497.41,259.54,497.37,259.65,497.32,259.75z"/>
	<path style="fill-rule:evenodd;clip-rule:evenodd;fill:#D0D2D5;" d="M497.57,258.8c0.05-0.11,0.1-0.22,0.15-0.33
		C497.67,258.59,497.62,258.7,497.57,258.8z"/>
	<path style="fill-rule:evenodd;clip-rule:evenodd;fill:#D0D2D5;" d="M497.77,258.27c-0.01-0.09-0.01-0.18-0.02-0.27
		c0.07,0,0.13-0.01,0.2-0.01C497.89,258.08,497.83,258.18,497.77,258.27z"/>
	<path style="fill-rule:evenodd;clip-rule:evenodd;fill:#D0D2D5;" d="M498.05,257.61c0.05-0.11,0.1-0.22,0.15-0.33
		C498.15,257.39,498.1,257.5,498.05,257.61z"/>
	<path style="fill-rule:evenodd;clip-rule:evenodd;fill:#E0E2E4;" d="M500.38,256.5c-0.05,0.1-0.11,0.19-0.16,0.29
		C500.27,256.7,500.32,256.6,500.38,256.5z"/>
	<path style="fill-rule:evenodd;clip-rule:evenodd;fill:#D0D2D5;" d="M498.27,256.86c0.05-0.1,0.1-0.2,0.15-0.3
		C498.37,256.66,498.32,256.76,498.27,256.86z"/>
	<path style="fill-rule:evenodd;clip-rule:evenodd;fill:#E0E2E4;" d="M500.84,254.8c-0.05,0.11-0.1,0.21-0.14,0.32
		C500.75,255.01,500.79,254.91,500.84,254.8z"/>
	<path style="fill-rule:evenodd;clip-rule:evenodd;fill:#E0E2E4;" d="M501.33,253.37c-0.05,0.1-0.1,0.2-0.15,0.3
		C501.23,253.58,501.28,253.48,501.33,253.37z"/>
	<path style="fill-rule:evenodd;clip-rule:evenodd;fill:#D2D4D8;" d="M488.84,295.37c-0.06,0.1-0.11,0.21-0.17,0.31
		C488.73,295.57,488.79,295.47,488.84,295.37z"/>
	<path style="fill-rule:evenodd;clip-rule:evenodd;fill:#33A7D1;" d="M457.75,312.68c0.49-0.55,0.69-1.18,0.05-1.77
		c-0.93-0.87-1.99-1.18-3.13-0.46c-0.49,0.31-0.98,0.54-1.54,0.57c-0.99,0.06-1.3,0.62-1.24,1.51c0.13,1.91-0.23,3.8-0.2,5.72
		c0.03,1.64,0.26,2.14,1.86,2.15c2.13,0.13,2.91-0.89,4.22-3.07c0.37-0.62,0.28-1.23-0.15-1.78
		C456.84,314.55,456.91,313.62,457.75,312.68z M452.67,313.27c0.17-0.9,2.27-2.69,3.28-2.71c0.53,0.13,1.46,0.11,1.62,0.72
		c0.15,0.58-0.16,1.39-0.85,1.8c-0.83,0.5-1.64,1.04-2.5,1.48c-0.28,0.14-0.7,0.44-1.05,0
		C452.85,314.18,452.58,313.79,452.67,313.27z M456.89,317.73c-0.84,0.87-1.69,1.69-3.18,1.69c-0.37-0.18-1.53-0.25-1.42-0.46
		c0.48-0.87-0.22-2.4,1.41-2.67c0.51-0.08,1.07-0.35,1.43-0.72c0.87-0.87,1.43-0.26,1.98,0.31
		C457.76,316.56,457.46,317.14,456.89,317.73z"/>
	<path style="fill-rule:evenodd;clip-rule:evenodd;fill:#35A7D1;" d="M478.28,317.65c-0.01-0.72,1.04-1.31,0.23-2.08
		c-0.1-0.1-0.32-0.07-0.44-0.16c-1.22-1-2.57-0.4-3.87-0.3c-0.38,0.04-0.79-0.2-1.16,0.07c-0.78,0.57-1.27,2.58-0.61,3.36
		c0.73,0.86,1.68,1.5,2.96,0.86c0.32-0.16,0.84-0.23,1.13-0.08c0.3,0.16,0.13,0.66,0.06,1c-0.48,2.16-2.2,3.12-4.23,2.38
		c-0.24-0.09-0.75-0.44-0.68,0.07c0.15,1.1,1.47,0.92,2.09,1.57c0.29,0.31,0.55,0.02,0.81-0.19c1.33-1.07,2.26-2.42,2.88-3.99
		c0.14-0.35,0.15-0.85,0.62-0.94C479.67,318.93,478.28,318.15,478.28,317.65z M475.75,318.3c-0.42-0.19-0.94-0.21-1.41-0.22
		c-0.96-0.02-1.08-0.59-0.79-1.28c0.57-1.34,1.9-0.96,2.92-1.07c0.91-0.09,0.63,0.79,0.67,1.08
		C477.19,318.06,477.16,318.93,475.75,318.3z"/>
	<path style="fill-rule:evenodd;clip-rule:evenodd;fill:#A4AEB6;" d="M489.78,297.83c-0.21,0.09-0.43,0.17-0.64,0.26
		c-0.04-0.04-0.08-0.08-0.13-0.12c-0.09-0.16-0.11-0.33-0.09-0.51c0.03-0.11,0.07-0.22,0.13-0.32c0.16-0.8,0.58-1.54,0.58-2.38
		c2.3-7.5,4.72-14.96,6.97-22.47c1.97-6.6,3.7-13.28,5.9-19.81c0.24-0.72,0.32-1.48,0.48-2.22c0.12-0.55,0.22-1.11,0.8-1.4
		c0.26,0.06,0.44,0.2,0.48,0.48c-0.13,1.56-0.68,3.01-1.07,4.51c-1,3.86-2.79,7.47-3.58,11.39c-0.08,0.39-0.11,0.78-0.16,1.17
		c-0.03,0.16-0.05,0.31-0.08,0.47c-0.04,0.1-0.09,0.19-0.14,0.28c-0.04,0.15-0.07,0.29-0.11,0.44c-0.03,0.1-0.08,0.19-0.13,0.27
		c-0.02,0.15-0.04,0.3-0.06,0.45c-0.1,0.15-0.05,0.35-0.19,0.49c-0.18,0.63-0.36,1.27-0.54,1.9c-0.65,0.84-0.81,1.87-1.09,2.85
		c-0.51,1.77-1.18,3.5-1.5,5.32c-1.58,5.2-3.17,10.4-4.75,15.6C490.49,295.6,490.13,296.71,489.78,297.83z"/>
	<path style="fill-rule:evenodd;clip-rule:evenodd;fill:#8D9BA5;" d="M499.45,266.41c-0.28-0.44-0.2-0.88-0.09-1.37
		c1.04-4.43,2.93-8.6,4.03-13.01c0.23-0.92,0.21-1.91,0.86-2.69c0.16,0.08,0.32,0.17,0.47,0.25c-1.21,3.71-1.94,7.55-3.61,11.12
		c-0.58,1.24-0.72,2.68-1.08,4.03C499.88,265.31,499.65,265.85,499.45,266.41z"/>
	<path style="fill-rule:evenodd;clip-rule:evenodd;fill:#8A98A2;" d="M495.6,278.88c-0.06-0.26-0.23-0.56-0.16-0.78
		c0.67-2.27,1.39-4.53,2.09-6.8c0.11-0.34,0.3-0.54,0.66-0.59C497.38,273.45,496.72,276.24,495.6,278.88z"/>
	<path style="fill-rule:evenodd;clip-rule:evenodd;fill:#6B6B6E;" d="M505.2,247.92c0.08-0.56,0.17-1.13,0.25-1.69
		c0.06-0.07,0.12-0.08,0.19-0.02c0.19,0.6-0.25,1.12-0.22,1.7l-0.11,0.01L505.2,247.92z"/>
	<path style="fill-rule:evenodd;clip-rule:evenodd;fill:#596369;" d="M504.71,249.61c0-0.27-0.05-0.57,0.25-0.74
		C504.95,249.14,505.01,249.43,504.71,249.61z"/>
	<path style="fill-rule:evenodd;clip-rule:evenodd;fill:#51585D;" d="M504.95,248.89c0.01-0.23,0.02-0.46,0.03-0.69
		C505.31,248.45,505.21,248.67,504.95,248.89z"/>
	<path style="fill-rule:evenodd;clip-rule:evenodd;fill:#8D9BA5;" d="M498.73,268.81c0.06-0.16,0.13-0.33,0.19-0.49
		C498.85,268.49,498.79,268.65,498.73,268.81z"/>
	<path style="fill-rule:evenodd;clip-rule:evenodd;fill:#8D9BA5;" d="M498.98,267.88c0.04-0.09,0.09-0.18,0.13-0.27
		C499.07,267.7,499.02,267.79,498.98,267.88z"/>
	<path style="fill-rule:evenodd;clip-rule:evenodd;fill:#8D9BA5;" d="M499.22,267.17c0.05-0.09,0.1-0.19,0.14-0.28
		C499.32,266.98,499.27,267.07,499.22,267.17z"/>
	<path style="fill-rule:evenodd;clip-rule:evenodd;fill:#37A8D1;" d="M460.74,317.56c1.43-1.17,2.55-2.64,3.75-4.01
		c0.48-0.54,1.05-1.4,0.36-2.14c-0.73-0.77-1.61-0.25-2.07,0.33c-1.84,2.32-3.15,4.92-3.84,7.82c-0.08,0.51,0.23,0.73,0.61,0.93
		c0.6,0.33,3.73-0.3,4.1-0.88c0.12-0.18,0.21-0.51,0.12-0.65c-0.2-0.31-0.59-0.22-0.87-0.1c-0.55,0.23-1.04,0.58-1.6,0.78
		c-0.46,0.16-1.1,0.51-1.43,0.03c-0.36-0.52-0.08-1.15,0.35-1.63C460.39,317.87,460.56,317.71,460.74,317.56z M460.83,316.52
		c0.53-1.69,1.38-3.2,2.59-4.5c0.17-0.18,0.57-0.46,0.85-0.17c0.33,0.34,0.14,0.79-0.12,1.08
		C463.06,314.16,462.2,315.58,460.83,316.52c0,0.01-0.01,0.03-0.02,0.04l-0.02-0.02C460.8,316.54,460.81,316.53,460.83,316.52z"/>
	<path style="fill-rule:evenodd;clip-rule:evenodd;fill:#FEFEFE;" d="M460.79,316.55c-0.03,0.06-0.06,0.13-0.09,0.19
		c-0.16-0.18,0.05-0.13,0.11-0.17L460.79,316.55z"/>
	<path style="fill-rule:evenodd;clip-rule:evenodd;fill:#8897A1;" d="M491.78,271c1.09-3.23,2.17-6.45,3.26-9.68
		c0.93,0.18,0.49,0.84,0.36,1.26c-0.48,1.6-0.97,3.2-1.5,4.78c-0.39,1.17-0.67,2.38-1.1,3.53c-0.05,0.16-0.12,0.32-0.2,0.47
		c-0.04,0.09-0.09,0.19-0.14,0.28c-0.09,0.17-0.15,0.36-0.19,0.55c-0.02,0.14-0.06,0.28-0.1,0.41c-0.04,0.13-0.09,0.27-0.13,0.4
		c-0.04,0.14-0.08,0.27-0.12,0.41c-0.04,0.15-0.08,0.29-0.11,0.43c-0.07,0.36-0.18,0.71-0.3,1.05c-0.05,0.14-0.1,0.28-0.15,0.42
		c-0.04,0.13-0.09,0.27-0.14,0.4c-0.05,0.13-0.09,0.25-0.14,0.38c-0.04,0.13-0.08,0.25-0.12,0.38c-0.04,0.13-0.09,0.25-0.13,0.38
		c-0.03,0.13-0.07,0.26-0.12,0.38c-0.06,0.17-0.1,0.35-0.13,0.53c-0.02,0.14-0.06,0.28-0.1,0.42c-0.04,0.15-0.08,0.29-0.13,0.44
		c-0.04,0.16-0.08,0.32-0.13,0.48c-0.11,0.49-0.21,0.99-0.45,1.44c-0.17,0.32-0.32,0.76-0.85,0.49
		C489.66,277.64,490.84,274.35,491.78,271z"/>
	<path style="fill-rule:evenodd;clip-rule:evenodd;fill:#97A2AB;" d="M488.93,281.04c0.99-0.4,0.6-1.54,1.15-2.17
		c0.17,0.13,0.24,0.3,0.27,0.5c-0.51,2.44-1.39,4.77-2.13,7.14c-0.21,0.66-0.26,1.41-0.78,1.96c-0.91,1.48-1.07,3.22-1.67,4.81
		c-0.15,0.4-0.32,0.8-0.47,1.2c-0.28-0.18-0.23-0.46-0.25-0.73c1.22-3.92,2.44-7.84,3.65-11.77c0.09-0.16,0.07-0.36,0.17-0.52
		C488.88,281.33,488.9,281.19,488.93,281.04z"/>
	<path style="fill-rule:evenodd;clip-rule:evenodd;fill:#8C99A3;" d="M485.04,293.76c0.28,0.18,0.23,0.47,0.25,0.73
		c0,0.08-0.01,0.15-0.01,0.23c-0.15,0.13-0.09,0.36-0.22,0.5c0,0.07,0,0.15-0.01,0.22c-0.23,0.19-0.03,0.53-0.24,0.72l0,0
		c-0.23,0.19-0.04,0.52-0.24,0.72v0c-0.28,0.27,0.01,0.68-0.25,0.95l0,0c-0.22,0.19-0.02,0.53-0.24,0.72
		c-0.53,2.43-1.73,4.68-1.92,7.2c-0.16,0.32-0.32,0.64-0.48,0.96c-0.15-0.02-0.3-0.04-0.45-0.06c0-0.12,0.01-0.24,0.01-0.35
		c1.07-3.79,1.99-7.63,3.31-11.35C484.7,294.55,484.88,294.16,485.04,293.76z"/>
	<path style="fill-rule:evenodd;clip-rule:evenodd;fill:#8897A1;" d="M488.86,281.47c-0.06,0.17-0.11,0.35-0.17,0.52
		C488.75,281.82,488.8,281.65,488.86,281.47z"/>
	<path style="fill-rule:evenodd;clip-rule:evenodd;fill:#32A6D0;" d="M439.43,319.21c1.24,0.26,1.88-0.33,2.31-1.45
		c0.67-1.74,1.89-3.23,2.5-5.01c0.07-0.2,0.27-0.35,0.41-0.52c-0.01,0.23,0.03,0.47-0.03,0.69c-0.22,0.84-0.64,1.58-1.06,2.34
		c-0.69,1.26-0.94,2.72-1.72,3.97c-0.47,0.75-1.1,0.65-1.75,0.74c-0.63,0.08-0.55-0.41-0.64-0.77L439.43,319.21z"/>
	<path style="fill-rule:evenodd;clip-rule:evenodd;fill:#32A6D0;" d="M439.45,319.2c-0.39-0.72-0.82-1.42-1.15-2.16
		c-0.09-0.2-0.46-0.56-0.06-0.75c0.16-0.07,0.46,0.3,0.46,0.59c0.01,0.86,0.84,1.45,0.74,2.33L439.45,319.2z"/>
	<path style="fill-rule:evenodd;clip-rule:evenodd;fill:#32A6D0;" d="M437.03,313.93c0.12,0.15,0.28,0.29,0.35,0.46
		c0.16,0.42,0.57,0.75,0.5,1.27c-0.07-0.01-0.15,0-0.2-0.04c-0.4-0.36-0.63-0.8-0.64-1.34c0-0.12,0-0.24,0-0.36L437.03,313.93z"/>
	<path style="fill-rule:evenodd;clip-rule:evenodd;fill:#32A6D0;" d="M436.33,312.47c-0.06-0.08-0.13-0.17-0.19-0.25
		c0.03-0.02,0.06-0.04,0.09-0.07c0.03,0.11,0.06,0.22,0.08,0.33L436.33,312.47z"/>
	<path style="fill-rule:evenodd;clip-rule:evenodd;fill:#32A6D0;" d="M436.31,312.48c0.06,0.09,0.13,0.17,0.19,0.26
		c-0.03,0.02-0.06,0.04-0.1,0.06c-0.03-0.11-0.05-0.22-0.08-0.33L436.31,312.48z"/>
	<path style="fill-rule:evenodd;clip-rule:evenodd;fill:#32A6D0;" d="M437.05,313.92c-0.06-0.09-0.13-0.17-0.19-0.26
		c0.03-0.02,0.06-0.04,0.1-0.06c0.03,0.11,0.05,0.22,0.08,0.33L437.05,313.92z"/>
	<path style="fill-rule:evenodd;clip-rule:evenodd;fill:#3A84A7;" d="M522.97,313.43c0.35,0.03,0.73,0,1.06,0.11
		c0.43,0.14,1.08-0.01,1.22,0.55c0.15,0.6-0.56,0.66-0.86,0.99c-2.44,0.05-4.78,0.73-7.18,1.02c-0.2,0.22-0.46,0.3-0.74,0.33
		c-2.07,0.24-4.14,0.66-6.22,0.28c-0.66-0.12-1.33,0.36-1.96-0.12c-0.47-0.03-0.94-0.09-1.41-0.08c-0.78,0.01-0.91-0.29-0.5-0.92
		c0.23-0.38,0.58-0.47,1.01-0.5c2.46-0.18,4.91,0.13,7.37,0.16c1.93,0.03,3.75-0.71,5.67-0.76c0.09,0,0.2-0.01,0.21-0.06
		c0.05-0.2-0.14-0.15-0.23-0.16c-2.73-0.28-5.31-1.37-8.09-1.49c-1.51-0.07-3.02-0.19-4.53-0.23c-0.39-0.01-0.92,0.04-0.89-0.63
		c1.13-0.35,2.3-0.22,3.43-0.14c2.61,0.18,5.22,0.4,7.72,1.27C519.65,313.61,521.33,313.28,522.97,313.43z"/>
	<path style="fill-rule:evenodd;clip-rule:evenodd;fill:#47A9D3;" d="M506.42,314.64c0.01-0.32,0.03-0.64,0.04-0.96
		c0.25-0.39-0.24-0.99,0.37-1.28c1.87,0.05,3.74,0.18,5.6,0.32c1.43,0.1,2.83,0.33,4.21,0.72c0.53,0.15,1.17,0.29,1.13,1.01
		c-0.04,0.71-0.71,0.63-1.19,0.76c-0.62,0.18-1.26,0.16-1.9,0.14c-2.5-0.06-4.99-0.34-7.49-0.22
		C506.75,315.16,506.52,315.05,506.42,314.64z"/>
	<path style="fill-rule:evenodd;clip-rule:evenodd;fill:#4198BF;" d="M506.42,314.64c0.16,0.11,0.33,0.32,0.48,0.3
		c2.91-0.35,5.8,0.32,8.71,0.17c0.16-0.01,0.32,0.02,0.48-0.01c0.54-0.08,1.33-0.06,1.44-0.61c0.16-0.76-0.77-0.74-1.2-0.84
		c-1.46-0.37-2.93-0.64-4.45-0.71c-1.74-0.08-3.47-0.29-5.2-0.45c-0.21-0.28-0.22-0.48,0.21-0.49c1.68,0.57,3.45,0.29,5.17,0.4
		c3.16,0.2,6.1,1.44,9.24,1.58c0.24,0.01,0.61,0.12,0.58,0.48c-0.03,0.34-0.35,0.41-0.63,0.41c-3.28,0-6.46,1.19-9.82,0.56
		c-1.61-0.3-3.35,0.09-5.03,0.17C506.39,315.28,506.41,314.96,506.42,314.64z"/>
	<path style="fill-rule:evenodd;clip-rule:evenodd;fill:#49A7D2;" d="M499.25,318.69c-0.91-0.37-1.87-0.18-2.81-0.25
		c-0.23-0.08-0.46-0.11-0.7,0c-0.09,0-0.18,0-0.27,0c-0.23-0.09-0.46-0.11-0.68,0l-0.05,0c-0.42-0.19-0.88,0.01-1.3-0.17
		c-0.68-0.02-1.36-0.04-2.04-0.07c-0.24-0.1-0.48-0.1-0.72,0c-0.18-0.06-0.36-0.13-0.55-0.17c-0.49-0.09-1.03,0.13-1.49-0.22
		c0.48-0.24,0.95-0.5,1.45-0.71c0.21-0.09,0.46-0.06,0.69-0.09c1.43-0.19,2.84,0.11,4.26,0.18c2.62,0.14,5.24,0.2,7.86,0.2
		c0.57,0,1.23-0.08,0.89,0.87c-0.17,0.68-0.73,0.44-1.16,0.47C501.5,318.84,500.38,318.42,499.25,318.69z"/>
	<path style="fill-rule:evenodd;clip-rule:evenodd;fill:#3A84A7;" d="M518.22,316.34c0.98-0.13,1.96-0.27,2.94-0.4
		c0.19-0.03,0.39-0.02,0.58-0.03c-0.16,0.09-0.3,0.2-0.47,0.26c-1.25,0.49-2.53,0.88-3.86,1.05c-2.08,0.14-4.13,0.57-6.2,0.8
		c-1.29,0.14-2.6,0.11-3.9,0.08c-0.55-0.01-1.03-0.17-1.13-0.82c0-0.08-0.01-0.16-0.01-0.24c1.53-0.09,3.04-0.41,4.6-0.28
		c1.78,0.15,3.56-0.21,5.33-0.32C516.8,316.41,517.53,316.61,518.22,316.34z"/>
	<path style="fill-rule:evenodd;clip-rule:evenodd;fill:#3A83A6;" d="M503.78,318.27c0.03-0.72-0.45-0.51-0.87-0.52
		c-4.05-0.09-8.12,0.03-12.13-0.72c1.44-0.51,2.91-0.07,4.37-0.13c1.35-0.06,2.7,0.06,4.05,0.11c0.25,0,0.49,0,0.73,0
		c0.99,0.01,1.98,0.07,2.96,0.02C503.91,316.97,504.2,317.34,503.78,318.27z"/>
	<path style="fill-rule:evenodd;clip-rule:evenodd;fill:#33799A;" d="M506.88,312c-0.07,0.16-0.14,0.33-0.21,0.49
		c-0.07,0.4-0.14,0.79-0.21,1.19c-0.09-0.97-0.11-1.93,0.19-2.88c0.27,0.3,0.36,0.74,0.96,0.73c3.91-0.09,7.73,0.48,11.49,1.58
		c0.77,0.23,1.66,0.25,2.45-0.18c0.15,0.03,0.3,0.06,0.46,0.09c0.1,0.04,0.18,0.09,0.25,0.16c0.24,0.08,0.48,0.16,0.72,0.24
		c-1.5,0.56-3.05,0.29-4.45-0.12C514.7,312.17,510.82,311.93,506.88,312z"/>
	<path style="fill-rule:evenodd;clip-rule:evenodd;fill:#47A4D1;" d="M506.18,317.29c0.28,0.31,0.6,0.45,1.04,0.47
		c2.96,0.13,5.89-0.14,8.81-0.62c0.47-0.08,0.94-0.24,1.38,0.08c-0.13,0.03-0.26,0.06-0.4,0.09c-0.24,0.13-0.53,0.03-0.77,0.14
		c-0.08,0.04-0.16,0.08-0.23,0.13c-1.6,0.33-3.28,0.21-4.81,0.87c-1.36-0.03-2.73-0.17-4.07,0.24
		C505.88,318.85,505.5,318.42,506.18,317.29z"/>
	<path style="fill-rule:evenodd;clip-rule:evenodd;fill:#243135;" d="M518.22,316.34c-3.51,0.76-7.07,0.62-10.62,0.71
		c-0.48,0.01-0.95,0-1.43,0c0.61-0.61,1.5,0.08,2.13-0.46c1.89-0.48,3.83,0.11,5.74-0.25c1.04-0.2,2.11-0.17,3.17-0.24
		C517.48,316.43,517.88,316.28,518.22,316.34z"/>
	<path style="fill-rule:evenodd;clip-rule:evenodd;fill:#3E94BD;" d="M505.89,312.26c-0.08,1.37,0.13,2.77-0.4,4.1
		c-0.29,0.17-0.21,0.81-0.64,0.67c-0.49-0.15-0.2-0.64-0.19-1c0.36-1.31,0.08-2.71,0.57-4.01
		C505.54,311.84,505.72,312.05,505.89,312.26z"/>
	<path style="fill-rule:evenodd;clip-rule:evenodd;fill:#325F7D;" d="M504.66,316.03c0.04,0.27-0.01,0.69,0.14,0.78
		c0.37,0.21,0.35-0.45,0.69-0.45c0.01,0.74,0.06,1.48-0.31,2.16c-0.14,0.27-0.37,0.43-0.67,0.37c-0.41-0.09-0.25-0.43-0.22-0.67
		C504.4,317.48,504.54,316.76,504.66,316.03z"/>
	<path style="fill-rule:evenodd;clip-rule:evenodd;fill:#316081;" d="M505.89,312.26c-0.22-0.08-0.44-0.16-0.66-0.23
		c-0.01-0.39-0.08-0.79-0.02-1.17c0.05-0.36-0.29-1.03,0.26-1c0.43,0.03,0.7,0.68,0.62,1.25
		C506.03,311.49,505.96,311.87,505.89,312.26z"/>
	<path style="fill-rule:evenodd;clip-rule:evenodd;fill:#38A9D1;" d="M469.09,314.77c-0.36-0.54-0.63-0.05-0.78,0.22
		c-0.91,1.58-1.78,3.17-2.67,4.76c-0.11,0.2-0.31,0.44-0.06,0.63c0.37,0.28,0.47-0.15,0.62-0.33c0.9-1.06,2.12-0.98,2.76,0.21
		c0.11,0.21,0.27,0.38,0.42,0.15c0.42-0.63,0.31-1.57,1.61-1.94C469.05,317.63,469.84,315.89,469.09,314.77z M468.12,317.99
		c-0.22-0.01-0.7,0.12-0.5-0.36c0.26-0.63,0.64-1.21,0.98-1.82c0.06,0.32,0.12,0.64,0.17,0.95
		C468.52,317.19,469.15,318.01,468.12,317.99z"/>
	<path style="fill-rule:evenodd;clip-rule:evenodd;fill:#9DA7B0;" d="M490.08,279.37c0-0.17-0.01-0.33-0.01-0.5
		c0-0.16,0-0.31,0.01-0.47c0.09-0.07,0.16-0.16,0.23-0.25c0-0.16,0.01-0.32,0.01-0.47c0.15-0.13,0.09-0.35,0.23-0.48
		c0-0.16,0-0.32,0.01-0.48c0.08-0.08,0.16-0.16,0.23-0.24c0-0.16,0-0.32,0.01-0.48c0.08-0.07,0.16-0.16,0.23-0.25
		c0-0.16,0.01-0.32,0.01-0.47c0.08-0.08,0.16-0.16,0.23-0.25c0.09-0.48,0.17-0.95,0.26-1.43c0.08-0.08,0.15-0.16,0.23-0.25
		c0-0.16,0.01-0.32,0.01-0.47c0.08-0.08,0.15-0.16,0.23-0.25c0-0.16,0.01-0.32,0.01-0.47c0.15-0.13,0.09-0.35,0.23-0.48
		c0-0.08,0-0.16,0-0.24c0.08-0.07,0.16-0.16,0.23-0.25c0.87-2.86,1.75-5.73,2.59-8.6c0.11-0.39,0.59-0.86-0.02-1.27
		c0.02-0.08,0.06-0.15,0.11-0.21c0.12-0.14,0.08-0.36,0.2-0.5c1.32-4.27,2.63-8.55,3.96-12.82c0.04-0.12,0.22-0.19,0.34-0.29
		c0.4,0.5,1.08-0.07,1.49,0.38c-0.31,0.03-0.62,0.05-0.93,0.08c-0.95,3.19-2.07,6.34-2.94,9.55c-0.01,0.12-0.03,0.24-0.07,0.36
		c-0.39,1.02-0.71,2.06-0.96,3.12c-1.26,3.61-2.27,7.29-3.43,10.92c-0.73,2.27-1.43,4.55-2.2,6.81
		C490.54,279,490.56,279.41,490.08,279.37z"/>
	<path style="fill-rule:evenodd;clip-rule:evenodd;fill:#677487;" d="M499.96,246.25c-0.02,0.14-0.04,0.28-0.07,0.43
		c-0.27-0.06-0.21-0.26-0.17-0.44C499.73,246.22,499.88,246.24,499.96,246.25z"/>
	<path style="fill-rule:evenodd;clip-rule:evenodd;fill:#8A93A4;" d="M500.12,244.79c0.08-0.05,0.15-0.1,0.23-0.15
		c0.07,0.26,0.09,0.5-0.19,0.65C500.15,245.13,500.13,244.96,500.12,244.79z"/>
	<path style="fill-rule:evenodd;clip-rule:evenodd;fill:#8A93A4;" d="M500.17,245.27c0,0.16-0.01,0.33-0.01,0.49
		c-0.08-0.06-0.21-0.12-0.23-0.19C499.9,245.41,499.96,245.27,500.17,245.27z"/>
	<path style="fill-rule:evenodd;clip-rule:evenodd;fill:#8897A1;" d="M495.35,260.62c-0.07,0.17-0.13,0.33-0.2,0.5
		C495.21,260.95,495.28,260.78,495.35,260.62z"/>
	<path style="fill-rule:evenodd;clip-rule:evenodd;fill:#D2D4D8;" d="M503.77,248.86c-1.29,5.59-3.44,10.94-4.82,16.51
		c-0.27,1.08-0.52,2.17-0.85,3.23c-2.74,8.79-5.5,17.58-8.25,26.36c-0.23,0.8-0.51,1.59-0.72,2.4l0,0c-0.18,0.17-0.1,0.4-0.14,0.6
		c-0.03,0.04-0.07,0.08-0.1,0.12c-0.41,0.39-0.18,1.11-0.72,1.44c-0.15-1.06,0.49-1.92,0.72-2.88c0.4-1.36,0.81-2.72,1.21-4.07
		c0.22-0.2,0.01-0.53,0.24-0.73c0.08-0.4,0.17-0.79,0.25-1.19c0.07-0.09,0.14-0.18,0.22-0.25c0.01-0.16,0.01-0.31,0.02-0.47
		c0.07-0.09,0.14-0.18,0.22-0.25c0-0.16,0.01-0.31,0.02-0.47c0.07-0.09,0.14-0.17,0.22-0.25c0.17-0.64,0.33-1.27,0.5-1.91
		c0.13-0.14,0.08-0.36,0.22-0.49c0.01-0.16,0.01-0.31,0.02-0.47c0.07-0.09,0.14-0.18,0.22-0.25c0-0.16,0.01-0.31,0.01-0.47
		c0.07-0.09,0.15-0.17,0.22-0.25c0.01-0.24,0.01-0.47,0.02-0.71c1.58-3.82,2.53-7.85,3.82-11.77c0.39-1.2,0.8-2.4,1.2-3.6
		c0.01-0.08,0.01-0.16,0.01-0.23c0.27-0.27-0.02-0.68,0.24-0.96l0,0c0.7-2.83,1.28-5.69,2.4-8.4l0,0c0.23-0.19,0.03-0.52,0.24-0.72
		l0,0c0.19-0.47,0.22-1,0.48-1.44l0,0c0.27-0.27-0.02-0.68,0.24-0.96l0,0c0.42-2.12,1.46-4.08,1.62-6.27
		c0.03-0.45,0.28-0.82,0.53-1.17c0.08-0.06,0.15-0.13,0.22-0.19C503.59,248.75,503.68,248.8,503.77,248.86z"/>
	<path style="fill-rule:evenodd;clip-rule:evenodd;fill:#31A5CF;" d="M502.76,242.67c1.01,0.46,2.25,0.52,2.9,1.64
		c-0.2,0.31-0.55,0.45-0.79,0.72c-0.97,1.09-1.07,2.01-0.33,3.19c-0.05,0.27-0.13,0.46-0.46,0.25c-1.05-0.67-2.24-0.96-3.42-1.29
		c0.16-1.43,0.68-2.8,0.73-4.25C501.85,242.84,502.3,242.75,502.76,242.67z"/>
	<path style="fill-rule:evenodd;clip-rule:evenodd;fill:#1F749F;" d="M504.54,248.21c-0.53-0.24-1.34-0.58-1.06-1.14
		c0.52-1.03,0.54-2.58,2.18-2.77c0.16,0.25,0.32,0.51,0.48,0.77C504.32,245.47,504.88,247.07,504.54,248.21z"/>
	<path style="fill-rule:evenodd;clip-rule:evenodd;fill:#1E79A5;" d="M501.39,242.92c0.51,1.54-0.12,2.9-0.73,4.25
		c-0.91-0.22-0.16-0.72-0.15-1.07c0.03-0.76,1.05-1.59-0.27-2.23C499.97,243.75,500.1,243.56,501.39,242.92z"/>
	<path style="fill-rule:evenodd;clip-rule:evenodd;fill:#E0E2E4;" d="M503.32,248.62c-0.09-0.06-0.19-0.12-0.28-0.17
		C503.13,248.5,503.23,248.56,503.32,248.62z"/>
	<path style="fill-rule:evenodd;clip-rule:evenodd;fill:#CCCED5;" d="M505.64,246.21c-0.06,0.01-0.13,0.02-0.19,0.02
		c0.01-0.06,0.03-0.12,0.04-0.18C505.54,246.11,505.59,246.16,505.64,246.21z"/>
	<path style="fill-rule:evenodd;clip-rule:evenodd;fill:#BE361B;" d="M481.21,307.23c0.49,1.9,0.21,3.78-0.1,5.67
		c-0.08,0.47-0.09,0.94-0.14,1.42c-0.64-0.04-0.72-0.45-0.7-0.98c0.07-1.73,0.12-3.46,0.18-5.18c-0.07-0.32-0.22-0.66,0.11-0.93
		C480.77,307.22,480.99,307.22,481.21,307.23z"/>
	<path style="fill-rule:evenodd;clip-rule:evenodd;fill:#E0AE4D;" d="M480.31,315.58c0.15-0.27-0.38-0.92,0.35-0.81
		c0.69,0.11,1.82,0.1,1.86,0.83c0.04,0.68-0.5,1.94-1.24,1.94C480.32,317.56,480.37,316.4,480.31,315.58z"/>
	<path style="fill-rule:evenodd;clip-rule:evenodd;fill:#0D0D09;" d="M480.56,307.21c-0.04,0.31-0.08,0.62-0.11,0.93
		C480.17,307.79,480.11,307.47,480.56,307.21z"/>
	<path style="fill-rule:evenodd;clip-rule:evenodd;fill:#263336;" d="M493.44,318.28c0.44,0,0.9-0.11,1.3,0.17
		c-0.27,0.01-0.54,0.03-0.81,0.04c-0.16-0.01-0.33-0.02-0.49-0.02C493.44,318.4,493.44,318.34,493.44,318.28z"/>
	<path style="fill-rule:evenodd;clip-rule:evenodd;fill:#32302D;" d="M490.68,318.21c0.24-0.16,0.48-0.16,0.72,0
		C491.16,318.21,490.92,318.21,490.68,318.21z"/>
	<path style="fill-rule:evenodd;clip-rule:evenodd;fill:#3A84A7;" d="M516.24,317.46c0.22-0.24,0.5-0.19,0.77-0.14
		C516.79,317.56,516.51,317.49,516.24,317.46z"/>
	<path style="fill-rule:evenodd;clip-rule:evenodd;fill:#2F6383;" d="M522.25,313.19c-0.08-0.05-0.17-0.11-0.25-0.16
		C522.08,313.09,522.17,313.14,522.25,313.19z"/>
	<path style="fill-rule:evenodd;clip-rule:evenodd;fill:#263336;" d="M494.79,318.45c0.23-0.14,0.46-0.14,0.68,0
		C495.24,318.45,495.01,318.45,494.79,318.45z"/>
	<path style="fill-rule:evenodd;clip-rule:evenodd;fill:#263336;" d="M495.75,318.45c0.23-0.18,0.46-0.17,0.69,0
		C496.21,318.45,495.98,318.45,495.75,318.45z"/>
	<path style="fill-rule:evenodd;clip-rule:evenodd;fill:#D0D2D5;" d="M490.08,279.37c1.38-3.36,2.2-6.9,3.35-10.33
		c0.91-2.71,1.5-5.53,2.63-8.17c0.38-1.02,0.67-2.08,0.97-3.12l0,0c0.32-0.44,0.02-1.19,0.73-1.44c-0.08,0.56-0.17,1.12-0.25,1.68
		c-0.64,2.08-1.29,4.16-1.93,6.23c-0.76,2.26-1.55,4.5-2.27,6.77c-1.38,4.37-2.71,8.75-4.06,13.13c-0.79,2.59-1.56,5.18-2.36,7.77
		c-0.15,0.48-0.2,1.04-0.65,1.38c0.4-1.6,0.8-3.2,1.19-4.81c0.73-2.42,1.46-4.85,2.21-7.27
		C489.83,280.6,490.12,280.03,490.08,279.37z"/>
	<path style="fill-rule:evenodd;clip-rule:evenodd;fill:#CACCD1;" d="M497.76,256.32c-0.24,0.48-0.49,0.96-0.73,1.44
		c0.52-2.88,1.65-5.59,2.48-8.38c0.14-0.46-0.22-1.3,0.7-1.41c0.13,1.53-0.59,2.86-1,4.27c-0.16,0.32-0.33,0.64-0.49,0.97
		c-0.17,0.82-0.5,1.59-0.72,2.4v0C497.77,255.79,497.97,256.13,497.76,256.32L497.76,256.32z"/>
	<path style="fill-rule:evenodd;clip-rule:evenodd;fill:#E0E2E4;" d="M503.28,248.88c-0.6,2.12-0.85,4.33-1.65,6.4
		c-0.14,0.37-0.17,0.77-0.5,1.04c0-0.32,0-0.64,0-0.96c0.36-1.93,1.47-3.67,1.48-5.71C502.6,249.29,502.94,249.04,503.28,248.88z"/>
	<path style="fill-rule:evenodd;clip-rule:evenodd;fill:#97A2AB;" d="M484.32,297.84c0.03-0.33-0.1-0.71,0.25-0.95
		C484.53,297.21,484.65,297.58,484.32,297.84z"/>
	<path style="fill-rule:evenodd;clip-rule:evenodd;fill:#97A2AB;" d="M484.8,296.16c0-0.27-0.04-0.55,0.24-0.72
		C485.04,295.71,485.06,295.98,484.8,296.16z"/>
	<path style="fill-rule:evenodd;clip-rule:evenodd;fill:#97A2AB;" d="M484.08,298.56c0-0.26-0.03-0.54,0.24-0.72
		C484.32,298.11,484.35,298.38,484.08,298.56z"/>
	<path style="fill-rule:evenodd;clip-rule:evenodd;fill:#97A2AB;" d="M484.57,296.88c0-0.27-0.04-0.55,0.24-0.72
		C484.8,296.43,484.82,296.7,484.57,296.88z"/>
	<path style="fill-rule:evenodd;clip-rule:evenodd;fill:#8C99A3;" d="M482.17,306.25c0-0.16-0.01-0.33-0.01-0.49
		c0.07,0.01,0.14,0.01,0.21-0.01C482.3,305.92,482.24,306.08,482.17,306.25z"/>
	<path style="fill-rule:evenodd;clip-rule:evenodd;fill:#97A2AB;" d="M485.05,295.22c0.07-0.17,0.15-0.33,0.22-0.5
		C485.2,294.88,485.13,295.05,485.05,295.22z"/>
	<path style="fill-rule:evenodd;clip-rule:evenodd;fill:#E0E2E4;" d="M500.16,259.44c-0.8,2.8-1.6,5.6-2.4,8.4
		C498.22,264.94,498.73,262.06,500.16,259.44z"/>
	<path style="fill-rule:evenodd;clip-rule:evenodd;fill:#E0E2E4;" d="M500.88,257.28c-0.02,0.53-0.13,1.02-0.48,1.44
		C500.38,258.18,500.42,257.66,500.88,257.28z"/>
	<path style="fill-rule:evenodd;clip-rule:evenodd;fill:#E0E2E4;" d="M501.12,256.32c-0.03,0.33,0.1,0.71-0.24,0.96
		C500.91,256.95,500.78,256.57,501.12,256.32z"/>
	<path style="fill-rule:evenodd;clip-rule:evenodd;fill:#E0E2E4;" d="M497.76,267.84c-0.02,0.33,0.1,0.7-0.24,0.96
		C497.54,268.47,497.42,268.09,497.76,267.84z"/>
	<path style="fill-rule:evenodd;clip-rule:evenodd;fill:#E0E2E4;" d="M500.4,258.72c0,0.27,0.03,0.54-0.24,0.72
		C500.16,259.17,500.13,258.9,500.4,258.72z"/>
	<path style="fill-rule:evenodd;clip-rule:evenodd;fill:#A4AEB6;" d="M488.89,298.81c0-0.24-0.01-0.48-0.01-0.72l0,0
		c0.08-0.12,0.15-0.11,0.23,0l0.02,0.02C489.12,298.35,489.15,298.63,488.89,298.81z"/>
	<path style="fill-rule:evenodd;clip-rule:evenodd;fill:#E0E2E4;" d="M490.32,291.84c-0.01,0.26,0.02,0.54-0.24,0.73
		C490.09,292.3,490.05,292.02,490.32,291.84z"/>
	<path style="fill-rule:evenodd;clip-rule:evenodd;fill:#E0E2E4;" d="M492,286.56c-0.07,0.16-0.15,0.33-0.22,0.49
		C491.85,286.89,491.92,286.72,492,286.56z"/>
	<path style="fill-rule:evenodd;clip-rule:evenodd;fill:#E0E2E4;" d="M492.24,285.84c-0.07,0.08-0.15,0.17-0.22,0.25
		C492.09,286.01,492.16,285.92,492.24,285.84z"/>
	<path style="fill-rule:evenodd;clip-rule:evenodd;fill:#E0E2E4;" d="M492.47,285.12c-0.07,0.08-0.15,0.17-0.22,0.25
		C492.32,285.29,492.4,285.2,492.47,285.12z"/>
	<path style="fill-rule:evenodd;clip-rule:evenodd;fill:#E0E2E4;" d="M490.8,290.4c-0.07,0.08-0.15,0.17-0.22,0.25
		C490.65,290.57,490.72,290.48,490.8,290.4z"/>
	<path style="fill-rule:evenodd;clip-rule:evenodd;fill:#E0E2E4;" d="M491.04,289.68c-0.08,0.08-0.15,0.17-0.22,0.25
		C490.89,289.85,490.96,289.76,491.04,289.68z"/>
	<path style="fill-rule:evenodd;clip-rule:evenodd;fill:#E0E2E4;" d="M491.27,288.96c-0.07,0.08-0.15,0.17-0.22,0.25
		C491.13,289.13,491.2,289.04,491.27,288.96z"/>
	<path style="fill-rule:evenodd;clip-rule:evenodd;fill:#D0D2D5;" d="M498,255.6c0-0.87,0.28-1.66,0.72-2.4
		C498.8,254.1,498.44,254.86,498,255.6z"/>
	<path style="fill-rule:evenodd;clip-rule:evenodd;fill:#D0D2D5;" d="M497.76,256.32c0-0.27-0.04-0.55,0.24-0.72
		C498,255.87,498.03,256.14,497.76,256.32z"/>
	<path style="fill-rule:evenodd;clip-rule:evenodd;fill:#B9BEC4;" d="M489.12,297.36c0-0.87,0.28-1.66,0.72-2.4
		C489.84,295.83,489.56,296.62,489.12,297.36z"/>
	<path style="fill-rule:evenodd;clip-rule:evenodd;fill:#B9BEC4;" d="M489.12,298.08c-0.08,0-0.16,0-0.23,0
		c0-0.27-0.03-0.54,0.24-0.72C489.12,297.6,489.12,297.84,489.12,298.08z"/>
	<path style="fill-rule:evenodd;clip-rule:evenodd;fill:#97A2AB;" d="M492.24,271.68c-0.08,0.16-0.16,0.32-0.23,0.48
		C492.08,272,492.16,271.84,492.24,271.68z"/>
	<path style="fill-rule:evenodd;clip-rule:evenodd;fill:#97A2AB;" d="M490.56,277.2c-0.08,0.16-0.16,0.32-0.23,0.48
		C490.4,277.52,490.48,277.36,490.56,277.2z"/>
	<path style="fill-rule:evenodd;clip-rule:evenodd;fill:#97A2AB;" d="M492,272.63c-0.08,0.08-0.15,0.16-0.23,0.25
		C491.84,272.8,491.92,272.72,492,272.63z"/>
	<path style="fill-rule:evenodd;clip-rule:evenodd;fill:#97A2AB;" d="M492.47,271.19c-0.08,0.08-0.15,0.17-0.23,0.25
		C492.32,271.36,492.4,271.28,492.47,271.19z"/>
	<path style="fill-rule:evenodd;clip-rule:evenodd;fill:#97A2AB;" d="M490.31,278.15c-0.08,0.08-0.15,0.17-0.23,0.25
		C490.16,278.32,490.24,278.24,490.31,278.15z"/>
	<path style="fill-rule:evenodd;clip-rule:evenodd;fill:#97A2AB;" d="M491.76,273.36c-0.08,0.08-0.15,0.16-0.23,0.25
		C491.6,273.52,491.68,273.44,491.76,273.36z"/>
	<path style="fill-rule:evenodd;clip-rule:evenodd;fill:#97A2AB;" d="M491.04,275.75c-0.08,0.08-0.15,0.16-0.23,0.25
		C490.88,275.92,490.96,275.84,491.04,275.75z"/>
	<path style="fill-rule:evenodd;clip-rule:evenodd;fill:#97A2AB;" d="M490.8,276.48c-0.08,0.08-0.15,0.16-0.23,0.24
		C490.64,276.64,490.72,276.56,490.8,276.48z"/>
	<path style="fill-rule:evenodd;clip-rule:evenodd;fill:#97A2AB;" d="M491.27,275.03c-0.08,0.08-0.15,0.17-0.23,0.25
		C491.12,275.2,491.2,275.11,491.27,275.03z"/>
	<path style="fill-rule:evenodd;clip-rule:evenodd;fill:#CACCD1;" d="M497.03,257.75c-0.12,1.1-0.31,2.19-0.97,3.12
		C496.16,259.76,496.52,258.73,497.03,257.75z"/>
</g>
</svg>
