<?xml version="1.0" encoding="utf-8"?>
<!-- Generator: Adobe Illustrator 16.0.0, SVG Export Plug-In . SVG Version: 6.00 Build 0)  -->
<!DOCTYPE svg PUBLIC "-//W3C//DTD SVG 1.0//EN" "http://www.w3.org/TR/2001/REC-SVG-20010904/DTD/svg10.dtd" [
	<!ENTITY ns_flows "http://ns.adobe.com/Flows/1.0/">
	<!ENTITY ns_extend "http://ns.adobe.com/Extensibility/1.0/">
	<!ENTITY ns_ai "http://ns.adobe.com/AdobeIllustrator/10.0/">
	<!ENTITY ns_graphs "http://ns.adobe.com/Graphs/1.0/">
]>
<svg version="1.0" id="Layer_1" xmlns:x="&ns_extend;" xmlns:i="&ns_ai;" xmlns:graph="&ns_graphs;"
	 xmlns="http://www.w3.org/2000/svg" xmlns:xlink="http://www.w3.org/1999/xlink" xmlns:a="http://ns.adobe.com/AdobeSVGViewerExtensions/3.0/"
	 x="0px" y="0px" width="960px" height="560px" viewBox="0 0 960 560" style="enable-background:new 0 0 960 560;"
	 xml:space="preserve">
<g>
	<path style="fill-rule:evenodd;clip-rule:evenodd;fill:#050301;" d="M504.72,268c3.18,4.86,4.23,10.27,3.75,15.94
		c-1.38,16.1-18.08,27.34-34.33,23.43c-0.54-0.13-1.05-0.36-1.57-0.54c-0.02-0.21,0.11-0.3,0.28-0.37c0.81-0.12,1.54,0.28,2.32,0.37
		c0.18,0.02,0.35,0.1,0.53,0.12c-0.14-0.07-0.3-0.1-0.44-0.18c-1.18-0.71-2.41-1.35-3.5-2.19c-0.63-0.43-1.09-1.05-1.71-1.48
		c-0.35-0.25-0.66-0.53-0.96-0.83c-0.26-0.26-0.52-0.52-0.78-0.78c-0.37-0.38-0.64-0.85-1.02-1.23c-1.83-2.15-3.09-4.64-4.27-7.18
		c-0.63-1.36-0.82-1.38-2.17-0.64c-0.71,0.39-1.31,0.91-1.85,1.49c-0.1,0.11-0.2,0.23-0.29,0.36c-0.05,0.09-0.11,0.17-0.17,0.26
		c-0.11,0.16-0.23,0.33-0.34,0.49c-0.06,0.11-0.13,0.22-0.17,0.35c-0.01,0.08-0.01,0.16,0,0.24c0.04,0.13,0.1,0.24,0.17,0.35
		c0.06,0.08,0.11,0.16,0.17,0.23c0.32,0.43,0.69,0.82,0.9,1.32c0.03,0.11,0.03,0.22,0,0.33c-0.08,0.16-0.18,0.29-0.39,0.18
		c-3.31-3.89-5.56-8.23-5.69-13.46c0.26-0.61-0.3-1.28,0.12-1.88c0.78-0.06,0.67,0.6,0.63,0.96c-0.17,1.63,0.73,2.39,2.09,2.87
		c1.38,0.49,2.76,0.99,4.2,1.29c0.22,0.01,0.44,0.06,0.65,0.1c0.18,0.02,0.35,0.02,0.39-0.22c0-0.25-0.04-0.5-0.05-0.75
		c0.01-0.29-0.11-0.55-0.16-0.83c-0.15-0.66,0.02-1.35-0.23-1.99c-0.06-0.24-0.09-0.49-0.1-0.73c0.01-0.51-0.05-1.02,0-1.53
		c0.09-0.93-0.19-1.69-0.91-2.29c-0.08-0.17-0.08-0.33,0.01-0.5c0.07-0.08,0.16-0.14,0.26-0.18c0.1-0.02,0.2-0.03,0.3-0.03
		c0.13,0.02,0.26,0.05,0.4,0.05c0.08-0.03,0.14-0.08,0.17-0.16c0.07-0.28,0.03-0.57,0.04-0.86c0.47-5.27,2.97-9.42,7-12.72
		c0.62-0.5,1.16-1.09,1.82-1.54c0.09-0.07,0.18-0.14,0.27-0.2c0.04-0.04,0.09-0.07,0.13-0.1c0.08-0.07,0.16-0.14,0.25-0.22
		c0.04-0.04,0.08-0.07,0.12-0.11c0.08-0.08,0.16-0.15,0.24-0.22c0.04-0.04,0.08-0.07,0.13-0.1c1.26-0.84,2.58-1.6,3.81-2.47
		c0.13-0.1,0.27-0.19,0.41-0.28c0.09-0.06,0.19-0.11,0.28-0.16c0.77-0.41,1.58-0.7,2.37-1.05c0.14-0.07,0.28-0.14,0.43-0.21
		c0.09-0.05,0.19-0.09,0.28-0.13c0.24-0.1,0.49-0.18,0.75-0.24c0.21-0.05,0.41-0.13,0.62-0.21c0.11-0.05,0.21-0.09,0.32-0.12
		c0.93-0.32,1.86-0.62,2.84-0.77c1.79-0.38,3.6-0.48,5.42-0.37c0.39,0.1,0.8-0.18,1.18,0.07c0.64,0.23,1.34,0.29,1.9,0.73
		c0.06,0.27-0.13,0.37-0.32,0.46c-1.09,0.17-2.17-0.27-3.26-0.1c-0.85,0.08-1.72-0.16-2.57,0.12c-0.56,0.15-1.16,0.03-1.71,0.23
		c-1.29,0.15-2.52,0.54-3.75,0.92c-1.17,0.37-2.29,0.85-3.38,1.43c-1.31,0.69-2.5,1.56-3.66,2.46c-3,2.12-6.06,4.16-8.1,7.34
		c-1.57,2.45-2.35,5.13-2.66,7.99c-0.11,0.96,0.27,1.48,1.23,1.71c1.41,0.33,2.8,0.13,4.16-0.14c1.76-0.34,3.48-0.83,4.96-1.97
		c3.35-2.59,6.53-5.39,10.05-7.75c1.73-1.16,3.45-2.3,5.29-3.27c0.15-0.07,0.3-0.14,0.45-0.21c0.09-0.05,0.19-0.09,0.28-0.13
		c0.27-0.12,0.55-0.24,0.81-0.37c0.13-0.06,0.26-0.13,0.38-0.19c0.08-0.05,0.17-0.09,0.25-0.13c0.08-0.05,0.17-0.09,0.25-0.13
		c0.08-0.05,0.17-0.09,0.25-0.13c0.22-0.1,0.45-0.18,0.68-0.27c0.14-0.06,0.29-0.12,0.43-0.17c0.1-0.05,0.2-0.08,0.3-0.12
		c0.49-0.17,0.96-0.41,1.48-0.47c0.99-0.21,1.96-0.43,2.97-0.48c0.91-0.06,1.79,0.18,2.68,0.3c1.14,0.23,2.24,0.59,3.25,1.19
		c0.57,0.46,1.04,1.02,1.58,1.52C504.09,267.43,504.49,267.64,504.72,268z"/>
	<path style="fill-rule:evenodd;clip-rule:evenodd;fill:#19140F;" d="M457.91,266.53c1.77-2.85,4.14-5.07,6.97-6.86
		c3.09-1.94,6.39-3.35,9.98-4.01c0.43-0.08,0.87-0.08,1.3-0.11c0.16,0.14,0.51,0,0.52,0.36c-0.24,0.42-0.67,0.39-1.05,0.45
		c-4.01,0.66-7.65,2.23-11.01,4.47c-1.47,0.98-2.71,2.23-4.01,3.41c-0.8,0.89-1.47,1.91-2.47,2.62
		C457.95,266.84,457.81,266.77,457.91,266.53z"/>
	<path style="fill-rule:evenodd;clip-rule:evenodd;fill:#1C1712;" d="M491.22,257.71c0.1-0.09,0.2-0.18,0.3-0.28
		c5.75,1.83,10.24,5.24,13.2,10.56c-0.37-0.2-0.82-0.29-0.98-0.76c-0.44-0.55-0.91-1.08-1.39-1.61c-1.06-0.91-1.82-2.11-2.91-3.01
		c-2.06-1.69-4.31-3.01-6.79-3.97C492.13,258.45,491.44,258.41,491.22,257.71z"/>
	<path style="fill-rule:evenodd;clip-rule:evenodd;fill:#110C08;" d="M460.15,279c-0.1,0.09-0.2,0.17-0.3,0.26
		c-0.4,0.25-0.67-0.08-0.98-0.23c-0.13-0.08-0.26-0.17-0.39-0.25c-0.09-0.05-0.17-0.11-0.26-0.17c-0.24-0.2-0.46-0.42-0.69-0.63
		c-0.08-0.07-0.16-0.14-0.23-0.22c-0.04-0.04-0.08-0.08-0.11-0.11c-0.46-0.47-0.9-0.96-1.19-1.56c-0.06-0.09-0.11-0.19-0.16-0.29
		c-0.06-0.1-0.1-0.2-0.15-0.3c-0.22-0.71-0.55-1.4-0.39-2.18c-0.34,0.61-0.39,1.34-0.77,1.94c-0.09,0.14-0.2,0.24-0.39,0.21
		c-0.28-0.25-0.17-0.55-0.09-0.84c0.44-2.12,1.46-4.01,2.41-5.93c0.11-0.09,0.22-0.08,0.33,0.01c0.27,0.54-0.04,1-0.19,1.48
		c-0.3,0.99-0.63,1.98-0.33,3.03c0.03,0.16,0.04,0.33,0.06,0.49c0.02,0.15,0.05,0.3,0.09,0.45c0.04,0.14,0.08,0.28,0.12,0.43
		c0.05,0.14,0.1,0.28,0.16,0.42c0.05,0.09,0.08,0.19,0.12,0.28c0.2,0.44,0.47,0.83,0.79,1.18c0.31,0.35,0.64,0.67,0.97,1
		c0.07,0.07,0.15,0.14,0.21,0.21c0.07,0.07,0.15,0.13,0.22,0.2c0.04,0.03,0.08,0.06,0.12,0.09c0.09,0.05,0.17,0.1,0.26,0.16
		C459.71,278.36,460.16,278.48,460.15,279z"/>
	<path style="fill-rule:evenodd;clip-rule:evenodd;fill:#120E0A;" d="M458.85,298.01c0.09-0.09,0.18-0.18,0.27-0.26
		c0.8-0.08,0.93,0.71,1.38,1.07c1.43,1.22,2.71,2.63,4.33,3.64c2.16,1.52,4.52,2.64,7.01,3.49c0.37,0.13,0.92,0.08,0.98,0.68
		c-0.08,0.07-0.17,0.13-0.25,0.2C467.01,305.42,462.51,302.38,458.85,298.01z"/>
	<path style="fill-rule:evenodd;clip-rule:evenodd;fill:#33241D;" d="M489.62,256.71c-0.35,0.07-0.7,0.14-1.05,0.21
		c-3.05-0.48-6.11-0.98-9.22-0.79c-0.47,0.03-0.95,0.02-1.42-0.07c-0.33-0.06-0.64-0.18-0.94-0.35c-0.11-0.08-0.18-0.19-0.21-0.32
		c0.35-0.03,0.71-0.05,1.06-0.08c1.75,0.03,3.51,0.15,5.26,0C485.34,255.5,487.52,255.94,489.62,256.71z"/>
	<path style="fill-rule:evenodd;clip-rule:evenodd;" d="M453.39,282.59c-0.14,0.65,0.18,1.35-0.22,1.97
		c-0.41-1.91-0.22-3.83-0.01-5.74c0.71,0.18,0.45,0.8,0.58,1.25C453.67,280.91,453.96,281.81,453.39,282.59z"/>
	<path style="fill-rule:evenodd;clip-rule:evenodd;fill:#2A1F19;" d="M453.38,280.03c-0.13-0.4,0.14-0.87-0.23-1.22
		c0.18-1.42,0.45-2.81,0.89-4.17c0.07,0.26,0.15,0.53,0.22,0.79c0.22,0.17,0.25,0.41,0.2,0.64c-0.26,1.12-0.5,2.24-0.58,3.39
		C453.86,279.73,453.74,280.01,453.38,280.03z"/>
	<path style="fill-rule:evenodd;clip-rule:evenodd;" d="M483.11,255.32c-1.75,0.3-3.51,0.31-5.26,0
		C479.6,255.09,481.36,255.1,483.11,255.32z"/>
	<path style="fill-rule:evenodd;clip-rule:evenodd;fill:#322620;" d="M456.84,268.73c-0.13-0.01-0.26-0.02-0.39-0.02
		c0.36-0.81,0.81-1.56,1.46-2.17c0.07,0.09,0.15,0.18,0.22,0.26C458.11,267.72,457.68,268.36,456.84,268.73z"/>
	<path style="fill-rule:evenodd;clip-rule:evenodd;fill:#070501;" d="M476.85,255.5c0.25,0.07,0.49,0.15,0.74,0.22
		c-0.29,0.32-0.6,0.32-0.92,0.06c-0.17-0.07-0.33-0.15-0.5-0.22c0.19-0.04,0.38-0.09,0.57-0.13
		C476.78,255.45,476.81,255.47,476.85,255.5z"/>
	<path style="fill-rule:evenodd;clip-rule:evenodd;fill:#CA5424;" d="M476.85,255.5c-0.06,0.01-0.1-0.01-0.11-0.07l-0.01-0.06
		c0,0,0.06,0.03,0.06,0.03C476.83,255.42,476.85,255.45,476.85,255.5z"/>
	<path style="fill-rule:evenodd;clip-rule:evenodd;fill:#E3A752;" d="M488.63,266.76c-0.04,0.06-0.09,0.08-0.16,0.07
		c-0.12,0.02-0.22,0.1-0.31,0.18c-5.67,3.08-10.54,7.28-15.61,11.19c-2.6,2-5.74,2.46-8.94,2.21c-1.73-0.14-2-0.71-1.82-2.44
		c0.58-5.54,3.29-9.8,7.74-13.03c1.06-0.77,2.03-1.67,3.22-2.24c3.27-0.66,6.53-0.83,9.81-0.09c2.38,0.54,4.28,1.85,5.91,3.61
		C488.61,266.36,488.68,266.55,488.63,266.76z"/>
	<path style="fill-rule:evenodd;clip-rule:evenodd;fill:#E3A752;" d="M464.88,281c4.87,0.1,8.42-2.54,11.9-5.52
		c3.62-3.09,7.46-5.92,11.8-7.98c0.11-0.04,0.2-0.11,0.29-0.19c0.07-0.04,0.15-0.09,0.22-0.13c2.44,3.33,1.92,8.58-1.25,11.49
		c-1.5,1.38-2.95,2.8-4.63,3.98c-2.28,1.61-4.83,2.63-7.43,3.54c-2.54,0.89-4.83,0.06-6.87-1.43c-1.25-0.91-2.39-2-3.66-2.91
		C464.98,281.66,464.6,281.46,464.88,281z"/>
	<path style="fill-rule:evenodd;clip-rule:evenodd;fill:#C63C1E;" d="M506.15,277.56c0.35-0.4,0.65-1.12,1.16-1.02
		c0.46,0.09,0.13,0.83,0.18,1.26c0.31,2.85,0.04,5.66-0.87,8.39c-0.01,0.62-0.3,1.12-0.64,1.63c-2.52,3.8-5.89,6.62-9.89,8.74
		c-2.65,1.4-5.54,1.9-8.48,2.24c-0.35,0.04-0.72,0.02-1.04-0.17c-0.38-0.52,0.09-0.79,0.35-1.1c0.26-0.31,0.6-0.53,0.97-0.68
		c5.27-2.15,8.53-6.42,11.51-10.96c1.34-2.04,2.7-4.05,4.25-5.93C504.39,279.05,505.5,278.55,506.15,277.56z"/>
	<path style="fill-rule:evenodd;clip-rule:evenodd;fill:#C4371C;" d="M506.84,286.47c0.33-0.27,0.27-0.82,0.72-0.99
		c-0.06,0.39-0.09,0.78-0.19,1.16c-0.32,1.23-0.67,2.45-1,3.68c-1.83,1.12-3.17,2.77-4.61,4.31c-4.34,4.63-9.33,8.3-15.78,9.27
		c-3.39,0.51-6.84,0.43-10.23-0.3c-1.79-0.39-3.54-0.96-5.36-1.25c-1.17-0.94-2.21-2-2.84-3.4c0.42-0.72,0.99-0.32,1.47-0.14
		c2.43,0.92,4.9,1.68,7.48,2.04c3.84,0.53,7.54-0.01,11.14-1.41c0.21-0.08,0.33-0.21,0.26-0.45c0.01-0.58,0.52-0.46,0.8-0.47
		c4.53-0.27,8.28-2.33,11.86-4.93c2.39-1.73,4-4.08,5.71-6.37C506.45,286.96,506.54,286.64,506.84,286.47z"/>
	<path style="fill-rule:evenodd;clip-rule:evenodd;fill:#DF9943;" d="M464.88,281c2.63,2.01,4.79,4.78,8.41,5.21
		c1.16,0.14,2.25-0.18,3.26-0.57c3.64-1.43,7.05-3.24,9.87-6.1c1.44-1.46,2.83-2.82,3.49-4.84c0.73-2.2,0.35-4.23-0.45-6.27
		c-0.16-0.4-0.24-0.83-0.36-1.25c0.57-0.42,1.19-0.74,1.9-0.89c0.68-0.04,0.68,0.56,0.86,0.95c2.31,4.97,0.73,9.18-2.63,12.98
		c-1.27,1.43-2.79,2.62-4.23,3.89c-1.59,1.4-3.69,1.86-5.49,2.91c-0.75,0.44-1.59,0.75-2.38,1.14c-0.75,0.38-1.56,0.22-2.34,0.28
		c-2.74,0.3-5.07-0.75-7.21-2.31c-1.29-0.94-2.46-2.03-3.73-3c-0.67-0.51-1.37-0.96-2.11-1.36c-0.09-0.11-0.09-0.22,0-0.33
		c-0.11-0.64-0.13-1.08,0.8-0.78C463.28,280.87,464.1,280.89,464.88,281z"/>
	<path style="fill-rule:evenodd;clip-rule:evenodd;fill:#CD5C20;" d="M491.74,285.26c1.34-0.57,2.69-1.13,4.03-1.7
		c0.12-0.08,0.24-0.07,0.36,0.01c0.26,0.51-0.01,0.94-0.24,1.34c-2.31,4.04-5.3,7.4-9.63,9.32c-2.58,1.14-5.35,1.57-8.15,1.69
		c-1.38,0.06-2.79,0.19-4.14-0.31c-2.52-1.44-5.05-2.87-7.57-4.31c-0.85-0.48-1.72-0.85-2.73-0.71c-0.86,0.12-1.07-0.46-1.26-1.11
		c-0.14-0.48,0.05-0.55,0.46-0.52c0.99,0.07,1.98,0.12,2.98,0.18c1.41,0.62,2.55,1.7,3.95,2.33c0.43,0.2,0.85,0.41,1.31,0.53
		c5.32,1.77,10.3,0.77,15.07-1.83C488.38,288.96,490.46,287.55,491.74,285.26z"/>
	<path style="fill-rule:evenodd;clip-rule:evenodd;fill:#C94A20;" d="M506.15,277.56c-0.27,1.26-1.5,1.67-2.23,2.53
		c-1.96,2.31-3.54,4.88-5.22,7.39c-2.2,3.3-4.79,6.22-8.13,8.42c-0.52,0.35-1.15,0.54-1.73,0.8c-0.92,0.41-1.8,0.86-2.37,1.74
		c-0.6,0.6-1.33,0.32-2.02,0.32c-0.46-0.15-0.93-0.2-1.42-0.18c-0.97-0.02-1.93-0.08-2.81-0.55c-0.16-0.08-0.32-0.16-0.49-0.24
		c-0.09-0.8,0.56-0.91,1.06-1c7.23-1.14,12.28-5.27,15.84-11.47c0.57-1,1.37-1.86,1.76-2.97c0.58-0.31,1.16-0.62,1.74-0.92
		c0.07-0.08,0.15-0.14,0.24-0.19l0.05-0.04c0.03-0.08,0.08-0.13,0.16-0.15c0.09-0.03,0.18-0.07,0.27-0.1
		c0.05-0.07,0.13-0.12,0.21-0.15c0.15-0.04,0.3-0.07,0.46-0.11c0.09-0.05,0.18-0.1,0.27-0.15c0.06-0.06,0.13-0.09,0.21-0.09
		c0.1-0.05,0.19-0.12,0.27-0.19c0.15-0.1,0.3-0.19,0.45-0.29c0.1-0.06,0.19-0.12,0.27-0.19c0.15-0.09,0.3-0.19,0.45-0.28
		c0.1-0.06,0.19-0.14,0.28-0.21l0.02-0.01c0.04-0.08,0.11-0.13,0.19-0.16c0.16-0.11,0.33-0.22,0.49-0.33
		c0.08-0.07,0.16-0.14,0.26-0.2l0.04-0.03c0.03-0.08,0.09-0.14,0.17-0.16c0.16-0.11,0.31-0.23,0.47-0.34
		c0.09-0.06,0.17-0.12,0.26-0.18C505.83,277.78,505.99,277.67,506.15,277.56z"/>
	<path style="fill-rule:evenodd;clip-rule:evenodd;fill:#C7411D;" d="M487.87,298.94c0.34,0.05,0.69,0.09,1.03,0.14
		c-0.11,0.5-0.58,0.47-0.92,0.62c-6.54,2.69-12.97,1.96-19.33-0.66c-0.37-0.15-0.72-0.37-1.11-0.08c-1.63-2.07-3.03-4.27-3.96-6.74
		c-0.34-0.89-0.2-1.34,0.86-0.95c-0.06,0.21-0.02,0.39,0.12,0.56c2.63,3.07,5.76,5.29,9.86,5.88c1.29,0.18,2.54,0.77,3.88,0.37
		c0.54,0.07,1.08,0.15,1.62,0.22c0.84-0.09,1.66,0.04,2.48,0.23c0.39,0.12,0.8,0.1,1.2,0.11c1,0.14,2,0.08,2.99,0.11
		C487.04,298.73,487.49,298.62,487.87,298.94z"/>
	<path style="fill-rule:evenodd;clip-rule:evenodd;fill:#D57A28;" d="M490.33,285.07c-1.85,0.79-3.81,1.23-5.76,1.68
		c-0.38-0.82,0.3-1.16,0.75-1.53c1.6-1.32,3.25-2.59,4.65-4.13c2.7-2.96,4.29-6.39,4.33-10.46c0.01-1.18-0.3-2.28-0.77-3.36
		c-0.23-0.55-0.58-1.05-0.59-1.68c0.99-0.49,2.04-0.61,3.13-0.51c1.69,1.56,2.29,3.3,1.7,5.68c-1.12,4.5-3.17,8.49-5.93,12.16
		C491.32,283.63,490.86,284.37,490.33,285.07z"/>
	<path style="fill-rule:evenodd;clip-rule:evenodd;fill:#DA8934;" d="M492.95,265.59c1.71,2.32,2.04,4.93,1.48,7.68
		c-1.07,5.28-4.5,8.88-8.61,11.98c-0.53,0.4-1.16,0.73-1.25,1.5c-2.44,0.68-4.92,1.21-7.45,1.4c1.36-1.43,3.29-1.87,4.96-2.75
		c0.95-0.5,1.97-0.87,2.76-1.6c2.82-2.61,5.98-4.91,7.22-8.85c0.97-3.1,0.53-5.93-1.07-8.66
		C491.59,265.9,492.26,265.72,492.95,265.59z"/>
	<path style="fill-rule:evenodd;clip-rule:evenodd;fill:#D06921;" d="M490.33,285.07c-0.07-1.1,0.78-1.71,1.34-2.45
		c3.03-4,5.15-8.4,6.06-13.36c0.19-1.04-0.13-1.98-0.87-2.75c-0.4-0.41-0.74-0.84-0.79-1.43c0.65-0.23,1.29-0.16,1.93,0.04
		c1.06,0.53,1.83,1.4,2.53,2.31c0.9,1.19,1.12,2.48,0.48,3.92c-0.82,1.86-1.78,3.64-2.93,5.32c-1.54,2.27-2.76,4.74-4.16,7.09
		C492.75,284.29,491.61,284.87,490.33,285.07z"/>
	<path style="fill-rule:evenodd;clip-rule:evenodd;fill:#D16C23;" d="M491.74,285.26c0.43,1.05-0.52,1.57-1.01,2.01
		c-4.29,3.81-9.22,6.13-15.1,5.91c-1.62-0.06-3.24-0.27-4.75-0.95c-0.61-0.44-1.18-0.9-0.71-1.77c0.5-0.28,1.02-0.11,1.51,0.02
		c4,1.09,7.61-0.27,11.18-1.79c0.93-0.4,1.83-0.94,2.65-1.57C487.58,286.51,489.66,285.89,491.74,285.26z"/>
	<path style="fill-rule:evenodd;clip-rule:evenodd;fill:#CA501F;" d="M498.42,282.36c0.42,0.26,0.19,0.57,0.02,0.82
		c-1.96,2.88-3.52,6.09-6.19,8.42c-3.23,2.82-6.82,5-11.23,5.45c-0.54,0.05-1.01,0.23-1.28,0.75c-2.12-0.22-4.02-1.01-5.78-2.18
		c3.14,0.04,6.28,0.02,9.35-0.77c4.38-1.12,7.83-3.58,10.4-7.27c0.88-1.26,1.94-2.43,2.36-3.97c-0.07-0.04-0.09-0.09-0.07-0.13
		c0.02-0.04,0.04-0.06,0.07-0.06c0.08-0.02,0.16-0.03,0.24-0.05c0.06-0.07,0.13-0.12,0.22-0.15c0.08-0.03,0.17-0.06,0.25-0.09
		c0.06-0.07,0.14-0.12,0.23-0.15c0.22-0.12,0.45-0.23,0.67-0.35c0.1-0.04,0.2-0.09,0.3-0.15
		C498.13,282.43,498.27,282.4,498.42,282.36z"/>
	<path style="fill-rule:evenodd;clip-rule:evenodd;fill:#AC311F;" d="M470.39,302.35c0.41-0.45,0.86-0.24,1.32-0.11
		c3.34,0.9,6.69,1.54,10.2,1.58c5.63,0.05,10.48-1.75,14.88-5.17c2.33-1.81,4.49-3.76,6.33-6.08c0.83-1.04,1.8-2.04,3.25-2.26
		c-0.37,0.81-0.59,1.7-1.16,2.41c-0.65,0.47-1.24,1.03-1.73,1.66c-2.5,3.22-5.84,5.43-9.17,7.64c-3.27,2.17-7,2.84-10.83,3.04
		c-3.69,0.19-7.35-0.06-10.93-1.01C471.76,303.56,471,303.05,470.39,302.35z"/>
	<path style="fill-rule:evenodd;clip-rule:evenodd;fill:#72271C;" d="M501.64,298.02c-2.46,3.34-5.83,5.51-9.51,7.22
		c-3.82,1.77-7.87,2.42-12.08,2.41c-1.94,0-3.39-0.94-4.88-1.92c0.2-0.97,1-0.67,1.52-0.6c2.11,0.29,4.23,0.21,6.34,0.17
		c3.22-0.06,6.34-0.74,9.34-1.91c2.16-0.84,3.85-2.4,5.7-3.73c0.71-0.51,1.41-1.05,2.15-1.53
		C500.66,297.86,501.13,297.57,501.64,298.02z"/>
	<path style="fill-rule:evenodd;clip-rule:evenodd;fill:#C63D1F;" d="M453.38,280.03c0.29-1.53,0.59-3.07,0.88-4.6
		c0.28-0.98,0.5-1.98,1.01-2.88c0.2,0.84,0.39,1.69,0.59,2.53c0.04,0.19,0.1,0.38,0.15,0.57c0.19,1.46-0.01,2.93,0.25,4.39
		c0.42,2.34,1.36,4.37,3.06,6.06c0.55,0.54,1.25,1.05,0.98,2.01c-1.79-0.25-3.44-0.9-5.1-1.58c-1.2-0.49-1.8-1.21-1.66-2.54
		c0.05-0.46-0.1-0.94-0.16-1.41C453.39,281.73,453.38,280.88,453.38,280.03z"/>
	<path style="fill-rule:evenodd;clip-rule:evenodd;fill:#DC903D;" d="M460.15,279c-0.35-0.25-0.69-0.5-1.03-0.75
		c-0.09-0.05-0.16-0.1-0.23-0.18l0,0c-0.08-0.08-0.15-0.18-0.27-0.22l0.01,0.01c-0.49-2.98-0.11-5.81,1.4-8.45
		c1.35-2.41,2.94-4.62,5.24-6.24c0.65-0.46,1.28-0.94,2.02-1.26c2.12-0.92,4.29-1.7,6.54-2.24c0.55-0.13,1.25-0.48,1.61,0.37
		c-0.05,0.05-0.11,0.06-0.17,0.05c-0.12,0.03-0.2,0.13-0.3,0.19c-1.23,1.09-2.67,1.85-4.08,2.66c-5.64,1.88-9.39,5.48-10.5,11.5
		c-0.2,1.1,0.15,2.13,0.3,3.18c0.07,0.48,0.34,1.04-0.35,1.34C460.27,279,460.21,279,460.15,279z"/>
	<path style="fill-rule:evenodd;clip-rule:evenodd;fill:#8E2C20;" d="M501.64,298.02c-1.4,0.05-2.21,1.16-3.23,1.86
		c-2.15,1.48-4.08,3.3-6.63,4.14c-2.91,0.96-5.88,1.66-8.96,1.64c-2.02-0.02-4.06,0.2-6.08-0.2c-0.49-0.1-1.12-0.25-1.57,0.27
		c-0.89-0.54-1.94-0.84-2.63-1.69c0.44-0.51,0.93-0.21,1.43-0.1c5.99,1.33,12.01,1.4,17.7-1c4.34-1.83,8.05-4.79,11.18-8.38
		c0.65-0.75,1.14-1.78,2.35-1.85C504.34,294.7,503.26,296.54,501.64,298.02z"/>
	<path style="fill-rule:evenodd;clip-rule:evenodd;fill:#CA5424;" d="M476.67,255.78c0.31-0.02,0.61-0.04,0.92-0.06
		c3.28,0.02,6.57-0.19,9.77,0.79c0.41,0.13,0.81,0.27,1.22,0.41c-1.92-0.07-3.82,0.15-5.71,0.48c-2.86-0.08-5.72-0.29-8.54,0.33
		c-1.94,0.2-3.64,1.12-5.42,1.81c-5.87,2.25-9.21,6.78-11.21,12.5c-0.24,0.68-0.34,1.39-0.44,2.11c-0.06,0.46-0.1,0.98-0.74,1.05
		c-0.05-0.05-0.06-0.1-0.05-0.17c-0.02-0.12-0.11-0.2-0.17-0.3c-0.02-0.15-0.04-0.3-0.06-0.45c-0.06-0.09-0.11-0.18-0.15-0.27
		c-0.02-0.17-0.03-0.33-0.05-0.5c0.62-3.09,2.21-5.74,3.81-8.39c0.18-0.3,0.33-0.62,0.5-0.93c4.23-4.53,9.48-7.15,15.55-8.2
		C476.15,255.95,476.41,255.85,476.67,255.78z"/>
	<path style="fill-rule:evenodd;clip-rule:evenodd;fill:#C8451F;" d="M502.59,266.97c2.41,2.17,3.83,4.92,4.6,8.03
		c0.13,0.52-0.19,0.94-0.52,1.25c-1.83,1.79-3.82,3.36-6.25,4.28c-0.56-0.77,0.02-1.37,0.36-1.95c1.15-1.9,2.02-3.88,2.27-6.1
		c0.16-1.44,0.26-2.85-0.47-4.19C502.36,267.88,502.15,267.4,502.59,266.97z"/>
	<path style="fill-rule:evenodd;clip-rule:evenodd;fill:#C5391C;" d="M462.07,290.29c0.2,0.65-0.21,0.65-0.48,0.77
		c-1.64,0.73-2.98,1.83-3.94,3.34c-0.37,0.58-0.55,0.38-0.8-0.04c-1.32-2.29-2.29-4.72-2.87-7.3c-0.14-0.6,0.02-0.62,0.5-0.38
		c2.05,1.01,4.22,1.67,6.47,2.02C462.09,288.88,461.99,289.71,462.07,290.29z"/>
	<path style="fill-rule:evenodd;clip-rule:evenodd;fill:#E1A04A;" d="M460.33,278.98c0.45-0.67,0.01-1.32-0.1-1.95
		c-0.75-4.36,1.06-7.77,4.07-10.6c1.66-1.56,3.45-3.09,5.82-3.58c0.28-0.06,0.54-0.17,0.75,0.11l-0.01,0
		c-0.07,0.08-0.15,0.15-0.24,0.19l-0.04,0.04c-0.04,0.1-0.1,0.16-0.2,0.21l-0.03,0.03c-0.05,0.09-0.11,0.16-0.2,0.21
		c-2.91,2.49-5.75,5.01-7.43,8.59c-0.88,1.88-1.08,3.89-1.5,5.87c-0.18,0.37,0.07,0.81-0.18,1.17c-0.08,0-0.17,0-0.25,0
		c-0.08-0.08-0.18-0.16-0.3-0.19C460.42,279.08,460.37,279.05,460.33,278.98z"/>
	<path style="fill-rule:evenodd;clip-rule:evenodd;fill:#CB5520;" d="M502.59,266.97c-0.12,1.21,0.96,2.03,0.97,3.26
		c0,3.07-0.77,5.87-2.43,8.44c-0.37,0.57-0.78,1.12-0.71,1.85c-1.2,1.03-2.71,1.45-4.08,2.13c-0.48-0.57-0.08-1.07,0.16-1.54
		c0.8-1.56,1.81-3.01,2.73-4.51c0.98-1.6,1.85-3.26,2.46-5.04c0.52-1.49,0.27-2.79-0.74-4.02c-0.47-0.57-1.29-1.03-1.01-2.01
		c0.56,0.21,1.13,0.42,1.69,0.62c0.09,0.03,0.16,0.08,0.21,0.16C502.08,266.54,502.33,266.75,502.59,266.97z"/>
	<path style="fill-rule:evenodd;clip-rule:evenodd;fill:#DF9A44;" d="M488.63,266.76c-3.94-4.29-8.88-4.91-14.27-3.87
		c-0.57,0.11-1.1,0.1-1.61-0.19c1.13-0.9,2.19-1.92,3.61-2.39c5.15-0.21,9.95,0.58,13.58,4.72c0.21,0.24,0.49,0.43,0.38,0.81
		l-0.01,0c-0.05,0.07-0.13,0.12-0.22,0.15c-0.08,0.03-0.17,0.07-0.25,0.1c-0.07,0.07-0.15,0.12-0.24,0.16
		C489.29,266.42,488.96,266.59,488.63,266.76z"/>
	<path style="fill-rule:evenodd;clip-rule:evenodd;fill:#CD5E1F;" d="M499.93,265.54c0.14,0.47,0.4,0.86,0.76,1.19
		c1.94,1.83,1.94,3.91,0.86,6.19c-1.22,2.6-2.79,5-4.28,7.45c-0.43,0.71-0.96,1.39-0.94,2.28l0-0.01c-0.08,0.06-0.17,0.12-0.25,0.18
		c-0.06,0.05-0.14,0.07-0.22,0.06c-0.08,0.06-0.17,0.11-0.26,0.15c-0.13,0.04-0.27,0.07-0.4,0.11c-0.13,0.01-0.22,0.1-0.33,0.17
		c-0.32,0.15-0.65,0.3-0.97,0.45c0.18-1.93,1.65-3.22,2.44-4.85c1.23-2.53,3.18-4.66,4.19-7.34c0.85-2.24,0.71-3.07-1-4.8
		c-0.53-0.54-1.03-1.1-1.54-1.66C498.69,265.06,499.32,265.27,499.93,265.54z"/>
	<path style="fill-rule:evenodd;clip-rule:evenodd;fill:#D47B2B;" d="M485.5,287.14c-1.5,1.9-3.74,2.39-5.86,3.19
		c-3.16,1.19-6.31,1.02-9.49,0.23c-0.2,0.04-0.4,0.01-0.58-0.08c-0.42-0.22-0.98-0.46-0.83-1.01c0.13-0.47,0.69-0.17,1.06-0.23
		c0.35-0.05,0.72,0.05,1.07-0.08c4.61-0.03,9.1-0.93,13.6-1.77c0.13-0.01,0.22-0.09,0.32-0.16
		C485.03,287.21,485.27,287.18,485.5,287.14z"/>
	<path style="fill-rule:evenodd;clip-rule:evenodd;fill:#C63B1C;" d="M458.31,294.37c0.05-0.07,0.1-0.14,0.15-0.21
		c0.04-0.09,0.1-0.17,0.18-0.23c0.34-0.38,0.65-0.81,1.03-1.14c2.06-1.79,2.82-1.69,3.91,0.72c1.07,2.37,2.36,4.59,3.95,6.64
		c-0.51,0.37-0.52,0.38-1.03,0.17c-0.59-0.25-1.15-0.58-1.66-0.95c-2.13-1.54-4.22-3.14-6.35-4.69
		C458.4,294.61,458.35,294.48,458.31,294.37z"/>
	<path style="fill-rule:evenodd;clip-rule:evenodd;fill:#C94E1F;" d="M478.31,298.06c-0.38,0.61-1,0.46-1.52,0.41
		c-5.08-0.52-9.38-2.55-12.65-6.58c-0.48-0.59-0.21-0.61,0.3-0.63c0.23,0.04,0.47,0.08,0.7,0.12c0.09,0.03,0.16,0.07,0.22,0.14
		c0.08,0.02,0.17,0.04,0.25,0.06c0.09,0.06,0.18,0.11,0.27,0.17c1.63,0.9,3.27,1.8,4.89,2.71c1.56,0.88,3.12,1.77,4.68,2.65
		c0.09,0.05,0.18,0.11,0.26,0.17c0.31,0.11,0.63,0.22,0.94,0.34c0.09,0.04,0.17,0.09,0.23,0.15c0.08,0.02,0.16,0.03,0.24,0.05
		c0.15,0.1,0.35,0.06,0.49,0.18C477.85,298.01,478.08,298.04,478.31,298.06z"/>
	<path style="fill-rule:evenodd;clip-rule:evenodd;fill:#C5361E;" d="M491.22,257.71c4.22,1.57,8.06,3.7,10.92,7.31
		c0.15,0.19,0.28,0.38,0.42,0.57c0.05,0.23-0.02,0.33-0.27,0.26c-1.04-0.4-2.09-0.79-3.13-1.19c0.14-0.18,0.32-0.22,0.53-0.16
		c-0.11-0.09-0.25-0.11-0.36-0.18c-3.38-2.1-7.1-3.62-10.3-6.02c-0.36-0.27-0.97-0.21-1.09-0.81
		C489.05,257.37,490.14,257.52,491.22,257.71z"/>
	<path style="fill-rule:evenodd;clip-rule:evenodd;fill:#DB8F39;" d="M490.32,265.84c-2.39-2.44-5.01-4.53-8.55-4.94
		c-1.8-0.21-3.64-0.1-5.41-0.59c1.02-0.72,2.15-1.17,3.36-1.44c4.8,0.13,8.72,2.06,11.81,5.72c0.18,0.21,0.34,0.45,0.23,0.75
		c-0.04,0.05-0.1,0.07-0.16,0.05c-0.13,0.01-0.21,0.1-0.31,0.16C490.96,265.65,490.64,265.74,490.32,265.84z"/>
	<path style="fill-rule:evenodd;clip-rule:evenodd;fill:#CB5127;" d="M460.31,288.11c-0.25-0.99-1.07-1.54-1.69-2.26
		c-2.53-2.97-3.37-6.38-2.61-10.19l0,0.01c0.06,0.08,0.11,0.16,0.17,0.25c0.42,0.56,0.84,1.12,1.27,1.69
		c-0.11,2.57,0.84,4.72,2.57,6.58c0.45,0.48,0.76,0.45,1.05-0.12c0.32,0.7,0.2,1.45,0.23,2.17c0.18,0.21,0.04,0.49,0.16,0.71
		c0.03,0.32,0.06,0.63,0.09,0.95c0.01,0.46-0.26,0.4-0.56,0.3C460.76,288.16,460.54,288.13,460.31,288.11z"/>
	<path style="fill-rule:evenodd;clip-rule:evenodd;fill:#D7802E;" d="M491.76,265.34c-2.77-3.33-6.1-5.67-10.57-6
		c-0.5-0.04-0.98-0.31-1.47-0.48c1.21-0.56,2.48-0.9,3.82-0.97c1.45,0.01,2.71,0.62,3.81,1.46c1.84,1.39,3.69,2.76,5.58,4.09
		c0.26,0.19,0.5,0.39,0.67,0.67c0.29,0.47,0.01,0.63-0.39,0.73C492.72,265.01,492.24,265.17,491.76,265.34z"/>
	<path style="fill-rule:evenodd;clip-rule:evenodd;fill:#D47832;" d="M460.32,269.44c-1.08,2.27-1.86,4.58-1.46,7.16
		c0.06,0.4-0.15,0.84-0.24,1.27c-0.53-0.28-0.9-0.73-1.24-1.2c-0.38-3.66,1.13-6.74,2.94-9.74c1.42-2.25,3.13-4.23,5.52-5.49
		c3.42-1.8,6.85-3.59,10.81-3.86c0.6-0.04,1.18-0.25,1.78-0.2c0.6,0.05,1.31-0.06,1.56,0.75l-0.1,0.04l-0.11,0
		c-0.14,0.13-0.33,0.09-0.48,0.18c-0.25,0.09-0.49,0.18-0.74,0.27c-2.12-0.34-4.1,0.21-6.04,0.98c-3.25,1.3-6.55,2.49-9.07,5.11
		C462.1,266.1,461.13,267.71,460.32,269.44z"/>
	<path style="fill-rule:evenodd;clip-rule:evenodd;fill:#CB5321;" d="M487.94,257.51c1.34,0.25,2.16,1.36,3.29,1.97
		c2.65,1.43,5.26,2.93,7.89,4.41c0.27,0.15,0.62,0.26,0.58,0.64c0,0.06-0.35,0.1-0.54,0.15c-0.94-0.08-1.89-0.16-2.83-0.24
		c-3.87-2.01-7.35-4.64-11.13-6.8C486.1,257.31,487.02,257.43,487.94,257.51z"/>
	<path style="fill-rule:evenodd;clip-rule:evenodd;fill:#D8883D;" d="M461.81,281.66c1.91,0.37,3.1,1.86,4.45,3.01
		c2.49,2.13,5.21,3.57,8.52,3.75c-1.26,0.41-2.56,0.29-3.85,0.24c-1.33,0.24-2.48,0.09-3.64-0.83c-1.65-1.31-3.28-2.64-4.99-3.87
		C461.42,283.34,461.53,282.53,461.81,281.66z"/>
	<path style="fill-rule:evenodd;clip-rule:evenodd;fill:#D78330;" d="M460.32,269.44c0.71-2.54,2.19-4.59,4.24-6.17
		c3.4-2.61,7.36-4.06,11.5-5.02c0.83-0.19,1.75-0.33,2.5,0.36c-0.05,0.05-0.11,0.06-0.18,0.05c-0.1,0.05-0.2,0.11-0.28,0.17
		c-0.89,0.41-1.77,0.81-2.66,1.22c-0.97-0.56-1.86,0.01-2.73,0.27c-3.3,0.99-6.54,2.07-9.09,4.64
		C462.27,266.32,461.45,267.98,460.32,269.44z"/>
	<path style="fill-rule:evenodd;clip-rule:evenodd;fill:#D16D27;" d="M485.21,257.63c1.21-0.13,2.02,0.69,2.85,1.3
		c2.32,1.7,4.78,3.17,7.31,4.53c0.4,0.21,0.9,0.4,0.97,0.97c-1.04,0.14-2.08,0.27-3.12,0.41c0.41-0.28,0.35-0.57-0.03-0.81
		c-3.22-2.04-5.87-4.98-9.65-6.14C484.05,257.55,484.65,257.71,485.21,257.63z"/>
	<path style="fill-rule:evenodd;clip-rule:evenodd;fill:#D16D29;" d="M479.99,258.13c-1.79-0.93-3.65-0.36-5.34,0.09
		c-4.4,1.18-8.68,2.74-11.97,6.13c-0.79,0.82-1.42,1.79-2.12,2.7c-0.39-0.57,0.06-0.99,0.31-1.4c1.18-1.94,2.84-3.43,4.77-4.56
		c2.63-1.54,5.46-2.69,8.36-3.64c2.95-0.61,5.91-0.85,8.87-0.04C481.91,257.64,480.95,257.88,479.99,258.13z"/>
	<path style="fill-rule:evenodd;clip-rule:evenodd;fill:#0E0903;" d="M487.87,298.94c-1.49,0-2.98,0-4.47,0
		c-0.3-0.2-0.67-0.02-0.98-0.17c-0.83-0.17-1.66-0.33-2.49-0.5c0.1-0.08,0.2-0.16,0.3-0.24c0.95,0.07,1.91,0.15,2.86,0.22
		c0.38,0.23,0.82,0,1.21,0.17c0.72,0.01,1.45,0.01,2.17,0.02c4.96,0,9.3-1.69,13.31-4.56c2.89-2.07,4.94-4.79,6.83-7.69
		c0.07,0.09,0.15,0.18,0.22,0.28c-1.71,3.31-4.16,5.9-7.2,8.06C496.08,297.07,492.17,298.47,487.87,298.94z"/>
	<path style="fill-rule:evenodd;clip-rule:evenodd;fill:#D37331;" d="M461.81,281.66c-0.25,1.07,0.17,1.69,1.09,2.33
		c1.94,1.35,3.73,2.93,5.61,4.38c0.72,0.56,1.62,0.12,2.42,0.29c-1.78,0.45-3.55-0.08-5.33-0.06c-1.32-1.05-2.85-1.84-3.8-3.32
		c-0.16-1.29-0.45-2.57-0.06-3.87C461.76,281.5,461.79,281.58,461.81,281.66z"/>
	<path style="fill-rule:evenodd;clip-rule:evenodd;fill:#70261C;" d="M472.82,306.63c-2.9-1.03-5.8-2.06-8.22-4.04
		c0.73-0.62,1.44-0.19,2.12,0.07c1.67,0.64,3.36,1.22,5.1,1.61c1.4,0.85,2.79,1.7,4.19,2.55c0.19,0.11,0.5,0.16,0.4,0.47
		c-0.02,0.06-0.37,0.05-0.56,0.01C474.84,307.08,473.83,306.85,472.82,306.63z"/>
	<path style="fill-rule:evenodd;clip-rule:evenodd;fill:#842B1F;" d="M471.82,304.26c-0.58,0.5-1.12,0.05-1.68-0.06
		c-1.9-0.37-3.53-1.64-5.54-1.62c-1.65-0.94-2.95-2.29-4.25-3.63c0.95-0.63,1.69,0,2.38,0.49c1.41,0.98,2.81,1.97,4.43,2.58
		c0.97,0.36,1.92,0.77,2.97,0.83C470.7,303.32,471.26,303.79,471.82,304.26z"/>
	<path style="fill-rule:evenodd;clip-rule:evenodd;fill:#D06A2E;" d="M461.06,284.05c-0.05,0.34,0,0.9-0.17,0.98
		c-0.4,0.19-0.69-0.25-0.97-0.52c-1.68-1.65-2.57-3.67-2.86-5.99c-0.05-0.4,0.1-0.69,0.38-0.93l0,0c0.06,0.11,0.16,0.16,0.26,0.23
		c0.24,0.22,0.48,0.44,0.72,0.66c0.51,1.82,1.65,3.3,2.6,4.87C461.04,283.59,461.05,283.82,461.06,284.05z"/>
	<path style="fill-rule:evenodd;clip-rule:evenodd;fill:#9A2E20;" d="M470.14,302.85c-0.43,0.62-0.96,0.19-1.39,0.07
		c-2.2-0.62-4.21-1.67-6-3.09c-0.71-0.56-1.47-0.95-2.4-0.87c-0.41-0.4-0.82-0.8-1.22-1.2c-0.01-0.07-0.02-0.15-0.01-0.22
		c0.32-0.66,0.85-0.45,1.34-0.32c0.75,0.2,1.4,0.62,2,1.07c2.08,1.58,4.35,2.8,6.77,3.76C469.53,302.31,469.83,302.58,470.14,302.85
		z"/>
	<path style="fill-rule:evenodd;clip-rule:evenodd;fill:#B4331E;" d="M458.31,294.37c2.02,1.05,3.69,2.59,5.53,3.9
		c1.13,0.8,2.14,1.88,3.69,1.88c0.32,0.39,0.65,0.78,0.97,1.17c-0.21,0.63-0.6,0.23-0.88,0.12c-1.03-0.41-2.06-0.87-2.95-1.54
		c-2.06-1.56-4.22-2.97-6.69-3.82c-0.06-0.05-0.08-0.11-0.08-0.18c-0.04-0.11-0.12-0.2-0.18-0.29c0-0.09,0-0.17,0-0.26
		c0.07-0.1,0.15-0.19,0.17-0.32C457.88,294.71,458.06,294.52,458.31,294.37z"/>
	<path style="fill-rule:evenodd;clip-rule:evenodd;fill:#B2321E;" d="M457.98,296.08c2.45,0.07,4.08,1.77,5.94,3.01
		c1.43,0.95,2.73,2.14,4.57,2.23c0.24,0.24,0.48,0.48,0.72,0.72c-2.2-0.27-3.99-1.42-5.73-2.68c-0.96-0.7-1.94-1.35-3.03-1.83
		c-0.44-0.19-0.9-0.34-1.35,0C458.74,297.04,458.36,296.56,457.98,296.08z"/>
	<path style="fill-rule:evenodd;clip-rule:evenodd;fill:#CD692A;" d="M470.87,289.17c-0.14,0.06-0.27,0.14-0.42,0.18
		c-0.5,0.15-1.32-0.29-1.45,0.23c-0.13,0.5,0.85,0.53,1.17,0.98c0.1,0.62,0.34,1.18,0.72,1.68c-1.9-0.68-3.59-1.69-5.04-3.1
		C467.52,289.15,469.19,289.16,470.87,289.17z"/>
	<path style="fill-rule:evenodd;clip-rule:evenodd;fill:#D68038;" d="M461.02,283.36c-1.4-1.34-2.59-2.79-2.6-4.87
		c0.08,0.05,0.16,0.11,0.23,0.16c0.09,0.03,0.16,0.08,0.22,0.16c0.32,0.15,0.65,0.31,0.97,0.47
		C461.91,280.15,460.84,281.93,461.02,283.36z"/>
	<path style="fill-rule:evenodd;clip-rule:evenodd;fill:#CA5C26;" d="M461.8,285.29c1.27,1.1,2.8,1.9,3.8,3.32
		C462.04,288.82,462.04,288.82,461.8,285.29z"/>
	<path style="fill-rule:evenodd;clip-rule:evenodd;fill:#84331D;" d="M502.29,265.86c0.09-0.09,0.18-0.18,0.27-0.26
		c0.5,0.47,0.97,0.96,1.18,1.64C503.26,266.78,502.78,266.32,502.29,265.86z"/>
	<path style="fill-rule:evenodd;clip-rule:evenodd;fill:#DC903D;" d="M461.04,279.26c0.03-0.39-0.13-0.82,0.18-1.17
		C461.22,278.49,461.39,278.91,461.04,279.26z"/>
	<path style="fill-rule:evenodd;clip-rule:evenodd;fill:#C63D1F;" d="M460.99,288.19c0.19-0.1,0.37-0.2,0.56-0.3
		c0.03,0.14,0.13,0.37,0.08,0.4C461.41,288.45,461.18,288.37,460.99,288.19z"/>
	<path style="fill-rule:evenodd;clip-rule:evenodd;fill:#C63D1F;" d="M461.46,286.94c-0.05-0.24-0.11-0.48-0.16-0.71
		C461.35,286.47,461.41,286.71,461.46,286.94z"/>
	<path style="fill-rule:evenodd;clip-rule:evenodd;fill:#D16D29;" d="M479.29,258.34c0.16-0.06,0.32-0.12,0.48-0.18
		C479.61,258.23,479.45,258.29,479.29,258.34z"/>
	<path style="fill-rule:evenodd;clip-rule:evenodd;fill:#C7411D;" d="M477.62,297.99c-0.16-0.06-0.33-0.12-0.49-0.18
		C477.3,297.87,477.46,297.93,477.62,297.99z"/>
	<path style="fill-rule:evenodd;clip-rule:evenodd;fill:#C63C1E;" d="M500.62,281.06c-0.04,0.06-0.09,0.11-0.16,0.15
		C500.51,281.16,500.56,281.11,500.62,281.06z"/>
	<path style="fill-rule:evenodd;clip-rule:evenodd;fill:#C63C1E;" d="M500.4,281.25c-0.08,0.06-0.16,0.13-0.24,0.19
		C500.24,281.37,500.32,281.31,500.4,281.25z"/>
	<path style="fill-rule:evenodd;clip-rule:evenodd;fill:#C94A20;" d="M497.99,282.47c-0.1,0.05-0.2,0.1-0.3,0.15
		C497.79,282.57,497.89,282.52,497.99,282.47z"/>
	<path style="fill-rule:evenodd;clip-rule:evenodd;fill:#CB5520;" d="M496.09,282.83c0.08-0.06,0.17-0.12,0.25-0.18
		C496.25,282.71,496.17,282.77,496.09,282.83z"/>
	<path style="fill-rule:evenodd;clip-rule:evenodd;fill:#CB5520;" d="M495.61,283.05c0.09-0.05,0.17-0.1,0.26-0.15
		C495.79,282.94,495.7,283,495.61,283.05z"/>
	<path style="fill-rule:evenodd;clip-rule:evenodd;fill:#C94A20;" d="M497.02,282.96c-0.08,0.05-0.15,0.1-0.23,0.15
		C496.87,283.06,496.94,283.01,497.02,282.96z"/>
	<path style="fill-rule:evenodd;clip-rule:evenodd;fill:#CB5520;" d="M494.89,283.32c0.11-0.06,0.22-0.11,0.32-0.17
		C495.11,283.21,495,283.26,494.89,283.32z"/>
	<path style="fill-rule:evenodd;clip-rule:evenodd;fill:#C94A20;" d="M496.54,283.21c-0.07,0.05-0.15,0.1-0.22,0.15
		C496.39,283.31,496.46,283.26,496.54,283.21z"/>
	<path style="fill-rule:evenodd;clip-rule:evenodd;fill:#C94A20;" d="M496.08,283.4c0,0.07,0,0.13,0,0.2
		c-0.1-0.01-0.21-0.02-0.31-0.03C495.87,283.51,495.98,283.46,496.08,283.4z"/>
	<path style="fill-rule:evenodd;clip-rule:evenodd;fill:#DF9943;" d="M488.88,267.31c-0.1,0.06-0.19,0.13-0.29,0.19
		C488.68,267.43,488.78,267.37,488.88,267.31z"/>
	<path style="fill-rule:evenodd;clip-rule:evenodd;fill:#DF9A44;" d="M488.16,267.01c0.1-0.06,0.21-0.12,0.31-0.18
		C488.37,266.89,488.27,266.95,488.16,267.01z"/>
	<path style="fill-rule:evenodd;clip-rule:evenodd;fill:#C8451F;" d="M501.83,266.32c-0.07-0.05-0.14-0.1-0.21-0.16
		C501.69,266.22,501.76,266.27,501.83,266.32z"/>
	<path style="fill-rule:evenodd;clip-rule:evenodd;fill:#DB8F39;" d="M489.61,266.24c0.08-0.05,0.16-0.1,0.24-0.16
		C489.77,266.14,489.69,266.19,489.61,266.24z"/>
	<path style="fill-rule:evenodd;clip-rule:evenodd;fill:#DB8F39;" d="M490.09,265.98c0.07-0.05,0.14-0.1,0.22-0.15
		C490.24,265.89,490.17,265.94,490.09,265.98z"/>
	<path style="fill-rule:evenodd;clip-rule:evenodd;fill:#D7802E;" d="M491.29,265.56c0.1-0.05,0.21-0.11,0.31-0.16
		C491.49,265.45,491.39,265.5,491.29,265.56z"/>
	<path style="fill-rule:evenodd;clip-rule:evenodd;fill:#D16C23;" d="M484.79,287.25c-0.11,0.05-0.21,0.11-0.32,0.16
		C484.58,287.35,484.69,287.3,484.79,287.25z"/>
	<path style="fill-rule:evenodd;clip-rule:evenodd;fill:#DC903D;" d="M470.15,263.64c0.07-0.07,0.14-0.14,0.2-0.21
		C470.29,263.5,470.22,263.57,470.15,263.64z"/>
	<path style="fill-rule:evenodd;clip-rule:evenodd;fill:#C63C1E;" d="M503.76,279.3c-0.09,0.07-0.19,0.14-0.28,0.21
		C503.58,279.44,503.67,279.37,503.76,279.3z"/>
	<path style="fill-rule:evenodd;clip-rule:evenodd;fill:#DC903D;" d="M470.39,263.4c0.07-0.07,0.13-0.14,0.2-0.21
		C470.52,263.26,470.45,263.33,470.39,263.4z"/>
	<path style="fill-rule:evenodd;clip-rule:evenodd;fill:#DC903D;" d="M470.63,263.15c0.08-0.06,0.16-0.13,0.24-0.19
		C470.79,263.02,470.71,263.08,470.63,263.15z"/>
	<path style="fill-rule:evenodd;clip-rule:evenodd;fill:#D78330;" d="M474.96,260.3c0.1-0.06,0.2-0.13,0.3-0.19
		C475.16,260.17,475.06,260.23,474.96,260.3z"/>
	<path style="fill-rule:evenodd;clip-rule:evenodd;fill:#D16D29;" d="M478.09,258.84c0.09-0.06,0.19-0.12,0.28-0.17
		C478.28,258.72,478.18,258.78,478.09,258.84z"/>
	<path style="fill-rule:evenodd;clip-rule:evenodd;fill:#C7411D;" d="M465.36,291.51c-0.07-0.05-0.15-0.09-0.22-0.14
		C465.22,291.42,465.29,291.47,465.36,291.51z"/>
	<path style="fill-rule:evenodd;clip-rule:evenodd;fill:#C7411D;" d="M465.88,291.74c-0.09-0.06-0.18-0.11-0.27-0.17
		C465.7,291.63,465.79,291.69,465.88,291.74z"/>
	<path style="fill-rule:evenodd;clip-rule:evenodd;fill:#C63C1E;" d="M503.03,279.79c-0.09,0.06-0.18,0.13-0.27,0.19
		C502.85,279.92,502.94,279.86,503.03,279.79z"/>
	<path style="fill-rule:evenodd;clip-rule:evenodd;fill:#B2321E;" d="M458.64,293.92c-0.06,0.08-0.12,0.15-0.18,0.23
		C458.52,294.08,458.58,294,458.64,293.92z"/>
	<path style="fill-rule:evenodd;clip-rule:evenodd;fill:#C63C1E;" d="M502.31,280.27c-0.09,0.06-0.18,0.13-0.27,0.19
		C502.13,280.4,502.22,280.34,502.31,280.27z"/>
	<path style="fill-rule:evenodd;clip-rule:evenodd;fill:#B2321E;" d="M457.72,295.61c0.06,0.1,0.12,0.19,0.18,0.29
		C457.84,295.8,457.78,295.71,457.72,295.61z"/>
	<path style="fill-rule:evenodd;clip-rule:evenodd;fill:#C7411D;" d="M475.72,297.26c-0.09-0.05-0.17-0.11-0.26-0.17
		C475.54,297.15,475.63,297.21,475.72,297.26z"/>
	<path style="fill-rule:evenodd;clip-rule:evenodd;fill:#C7411D;" d="M476.89,297.75c-0.08-0.05-0.15-0.1-0.23-0.15
		C476.73,297.65,476.81,297.7,476.89,297.75z"/>
	<path style="fill-rule:evenodd;clip-rule:evenodd;fill:#C63C1E;" d="M501.82,280.55c-0.09,0.05-0.18,0.1-0.27,0.15
		C501.65,280.65,501.73,280.6,501.82,280.55z"/>
	<path style="fill-rule:evenodd;clip-rule:evenodd;fill:#C63C1E;" d="M504.94,278.41c-0.06,0.05-0.12,0.11-0.17,0.16
		C504.82,278.51,504.88,278.46,504.94,278.41z"/>
	<path style="fill-rule:evenodd;clip-rule:evenodd;fill:#C63C1E;" d="M501.1,280.81c-0.07,0.05-0.14,0.1-0.21,0.15
		C500.96,280.91,501.03,280.86,501.1,280.81z"/>
	<path style="fill-rule:evenodd;clip-rule:evenodd;fill:#C63C1E;" d="M504.73,278.6c-0.08,0.07-0.17,0.13-0.26,0.2
		C504.55,278.73,504.64,278.67,504.73,278.6z"/>
	<path style="fill-rule:evenodd;clip-rule:evenodd;fill:#C63C1E;" d="M505.67,277.89c-0.09,0.06-0.17,0.12-0.26,0.18
		C505.5,278.01,505.58,277.95,505.67,277.89z"/>
	<path style="fill-rule:evenodd;clip-rule:evenodd;fill:#DC903D;" d="M460.5,279.07c0.1,0.06,0.2,0.13,0.3,0.19
		C460.7,279.19,460.6,279.13,460.5,279.07z"/>
	<path style="fill-rule:evenodd;clip-rule:evenodd;fill:#C63C1E;" d="M503.98,279.12c-0.06,0.05-0.13,0.11-0.19,0.16
		C503.85,279.23,503.92,279.18,503.98,279.12z"/>
	<path style="fill-rule:evenodd;clip-rule:evenodd;fill:#B2321E;" d="M457.89,295.03c-0.06,0.11-0.11,0.21-0.17,0.32
		C457.78,295.24,457.84,295.14,457.89,295.03z"/>
	<path style="fill-rule:evenodd;clip-rule:evenodd;fill:#C84925;" d="M460.33,264.19c-0.49,2.09-1.82,3.78-2.76,5.65
		c-0.61,1.2-0.55,2.66-1.54,3.68c-0.61-1.74,0.18-3.25,0.81-4.79c0.43-0.64,0.86-1.29,1.29-1.93
		C458.86,265.93,459.6,265.06,460.33,264.19z"/>
	<path style="fill-rule:evenodd;clip-rule:evenodd;fill:#CF632C;" d="M474,257.44c-3.13,1.45-6.47,2.49-9.3,4.54
		c-1.82,1.32-3.43,2.83-4.14,5.06c-0.41,0.82-0.76,1.67-1.23,2.44c-1.2,1.95-1.63,4.09-1.65,6.34c0,0.32,0.02,0.64-0.3,0.85
		c-0.45-0.39-0.77-0.87-0.87-1.47c0.64-0.55,0.33-1.35,0.53-2.02c1.9-6.54,5.48-11.62,12.13-14.09
		C470.76,258.5,472.28,257.68,474,257.44z"/>
	<path style="fill-rule:evenodd;clip-rule:evenodd;fill:#D47832;" d="M458.61,277.86c0.09,0.07,0.18,0.15,0.27,0.22
		C458.79,278.01,458.7,277.93,458.61,277.86z"/>
	<path style="fill-rule:evenodd;clip-rule:evenodd;fill:#CB5127;" d="M457.7,277.83c-0.09-0.08-0.17-0.15-0.26-0.23
		C457.53,277.67,457.62,277.75,457.7,277.83z"/>
	<path style="fill-rule:evenodd;clip-rule:evenodd;fill:#C63D1F;" d="M456.18,275.91c-0.06-0.08-0.11-0.16-0.17-0.25
		C456.07,275.74,456.12,275.83,456.18,275.91z"/>
	<path style="fill-rule:evenodd;clip-rule:evenodd;fill:#C84925;" d="M456.29,274.73c0.06,0.1,0.11,0.2,0.17,0.3
		C456.4,274.93,456.34,274.83,456.29,274.73z"/>
	<path style="fill-rule:evenodd;clip-rule:evenodd;fill:#C84925;" d="M456.07,274.01c0.05,0.09,0.1,0.18,0.15,0.27
		C456.17,274.19,456.12,274.1,456.07,274.01z"/>
	<path style="fill-rule:evenodd;clip-rule:evenodd;fill:#D47832;" d="M458.88,278.08c0.08,0.06,0.15,0.12,0.23,0.18
		C459.03,278.2,458.96,278.14,458.88,278.08z"/>
	<path style="fill-rule:evenodd;clip-rule:evenodd;fill:#D06A2E;" d="M458.87,278.8c-0.07-0.05-0.15-0.1-0.22-0.16
		C458.73,278.69,458.8,278.75,458.87,278.8z"/>
	<path style="fill-rule:evenodd;clip-rule:evenodd;fill:#C63C1E;" d="M484.3,298.43c-0.42,0.02-0.83,0.06-1.21-0.17
		C483.5,298.27,483.93,298.11,484.3,298.43z"/>
	<path style="fill-rule:evenodd;clip-rule:evenodd;fill:#C4371C;" d="M482.42,298.77c0.33,0.06,0.66,0.11,0.98,0.17
		C483.06,298.94,482.71,299.05,482.42,298.77z"/>
</g>
</svg>
