<?xml version="1.0" encoding="utf-8"?>
<!-- Generator: Adobe Illustrator 16.0.0, SVG Export Plug-In . SVG Version: 6.00 Build 0)  -->
<!DOCTYPE svg PUBLIC "-//W3C//DTD SVG 1.0//EN" "http://www.w3.org/TR/2001/REC-SVG-20010904/DTD/svg10.dtd" [
	<!ENTITY ns_flows "http://ns.adobe.com/Flows/1.0/">
	<!ENTITY ns_extend "http://ns.adobe.com/Extensibility/1.0/">
	<!ENTITY ns_ai "http://ns.adobe.com/AdobeIllustrator/10.0/">
	<!ENTITY ns_graphs "http://ns.adobe.com/Graphs/1.0/">
]>
<svg version="1.0" id="Layer_1" xmlns:x="&ns_extend;" xmlns:i="&ns_ai;" xmlns:graph="&ns_graphs;"
	 xmlns="http://www.w3.org/2000/svg" xmlns:xlink="http://www.w3.org/1999/xlink" xmlns:a="http://ns.adobe.com/AdobeSVGViewerExtensions/3.0/"
	 x="0px" y="0px" width="960px" height="560px" viewBox="0 0 960 560" style="enable-background:new 0 0 960 560;"
	 xml:space="preserve">
<g>
	<path style="fill-rule:evenodd;clip-rule:evenodd;fill:#1B1B13;" d="M495.63,271.87l0.01,0.09c0.13,0.34,0.06,0.68,0.08,1.03
		c-0.04,0.25,0.05,0.63-0.44,0.45c-0.24-0.31-0.29-0.66-0.27-1.04c0.01-2.04,0.01-4.07,0-6.11c-0.08-1.05-0.05-2.1,0-3.15
		c0.02-0.62,0.15-1.23,0.27-1.84c0.04-0.17,0.19-0.43,0.04-0.51c-0.15-0.08-0.32,0.17-0.48,0.27c-0.36,0.24-0.73,0.45-1.13,0.61
		c-0.33,0.11-0.68,0.12-1.02,0.17c-0.17,0.03-0.34,0.07-0.51,0.11c-0.23,0.05-0.47,0.08-0.71,0.07c-0.3-0.04-0.6-0.08-0.73-0.41
		c0.02-0.2,0.17-0.28,0.33-0.35c0.2-0.07,0.42-0.12,0.62-0.19c0.15-0.05,0.3-0.1,0.45-0.14c0.25-0.08,0.49-0.16,0.73-0.24
		c0.35-0.12,0.67-0.3,0.99-0.47c0.32-0.17,0.61-0.36,0.88-0.6c1.42-1.24,1.33-2.03-0.34-2.91c-1.05-0.43-2.17-0.63-3.26-0.91
		c-0.53-0.13-1.08-0.12-1.62-0.22c-0.38-0.04-0.75-0.15-1.12-0.27c-0.36-0.14-0.73-0.18-1.11-0.13c-0.51-0.06-1.02-0.1-1.54-0.06
		c-0.12,0.01-0.24,0.01-0.37,0c-0.48,0-0.95-0.03-1.42-0.09c-0.35-0.05-0.74-0.1-0.68-0.61c0.25-0.35,0.57-0.22,0.89-0.13
		c3.69-0.12,7.27,0.44,10.73,1.71c1.41,0.52,1.94,1.56,1.66,3.12c-0.4,2.3-0.81,4.61-0.76,6.96c-0.25,1.13,0.07,2.29-0.18,3.42
		c0.01,0.11,0.01,0.22,0.02,0.32c0.07,0.22,0.09,0.44-0.01,0.65c0.04,0.04,0.04,0.07-0.01,0.1
		C495.77,270.98,495.76,271.42,495.63,271.87z"/>
	<path style="fill-rule:evenodd;clip-rule:evenodd;fill:#17160E;" d="M495.8,280.92c0,0.08,0,0.16,0,0.25
		c-0.23,1.54,0.08,3.1-0.16,4.64c0.06,4.29,0.16,8.57,0.16,12.86c0,0.86,0.53,1.62,0.38,2.4c-0.21,1.12-0.67,2.15-1.71,2.88
		c-1.24,0.87-2.45,1.77-3.81,2.45c-0.2,0.1-0.33,0-0.43-0.16c-0.03-0.11-0.03-0.23,0-0.34c1.17-1.15,2.79-1.68,3.89-2.92
		c0.15-0.17,0.34-0.31,0.36-0.56c-0.05-0.17-0.16-0.3-0.3-0.41c-0.12-0.08-0.24-0.14-0.36-0.21c-0.09-0.04-0.17-0.09-0.26-0.13
		c-0.13-0.07-0.25-0.16-0.36-0.28c-0.05-0.09-0.06-0.19-0.03-0.29c0.17-0.24,0.43-0.28,0.69-0.29c0.15,0,0.31,0.03,0.45,0.07
		c0.13,0.04,0.26,0.1,0.38,0.17c0.1,0.04,0.2,0.1,0.32,0.07c0.04-0.2-0.06-0.36-0.08-0.55c0.08-6.34-0.01-12.66,0.04-18.98
		c0-0.4,0.01-0.8,0.18-1.17C496.03,279.73,495.54,280.81,495.8,280.92z"/>
	<path style="fill-rule:evenodd;clip-rule:evenodd;fill:#1F1F18;" d="M484.18,254.25c-0.29,0.05-0.62-0.02-0.82,0.28
		c-0.33,0.37-0.82,0.3-1.23,0.44c-1.32,0.02-2.65-0.35-3.97,0.07c-1.26,0.2-2.54-0.04-3.8,0.24c-0.33,0.06-0.66,0.07-0.98,0.08
		c-0.63-0.08-1.25,0.03-1.86,0.18c-0.36,0.04-0.73,0.04-1.07,0.17c-0.12,0.03-0.23,0.06-0.35,0.07c-0.47,0.05-0.94,0.04-1.4,0.03
		c-0.16,0-0.33,0-0.49-0.01c-0.26-0.01-0.52,0-0.77,0.07c-0.1,0.03-0.2,0.06-0.3,0.08c-0.2,0.04-0.41,0.06-0.61,0.08
		c-0.43,0-0.76,0.3-1.15,0.4c-0.19,0.05-0.39,0.09-0.58,0.16c-0.09,0.04-0.19,0.07-0.28,0.1c-0.39,0.12-0.71,0.36-1.07,0.55
		c-0.45,0.19-0.9,0.4-1.41,0.33c-0.28-0.06-0.55-0.14-0.72-0.39c5.09-2.74,10.71-2.57,16.23-2.93
		C479.74,254.09,481.96,253.86,484.18,254.25z"/>
	<path style="fill-rule:evenodd;clip-rule:evenodd;fill:#252019;" d="M490.32,306.12c0.11,0.09,0.22,0.19,0.33,0.28
		c-3.5,1.91-7.31,2.41-11.22,2.31c-1.04-0.03-2.1,0.34-3.12-0.14c0.45-0.05,0.19-0.61,0.54-0.74c0.82-0.27,1.67-0.19,2.5-0.15
		c3.39,0.16,6.65-0.45,9.84-1.55c0.19-0.06,0.38-0.12,0.58-0.17C489.97,305.94,490.16,305.98,490.32,306.12z"/>
	<path style="fill-rule:evenodd;clip-rule:evenodd;fill:#25251E;" d="M462.73,278.28c-0.01-0.83-0.02-1.67-0.04-2.5
		c-0.23-0.83,0.05-1.7-0.17-2.54c-0.17-2.74-0.42-5.48-0.47-8.22c-0.03-1.51-0.62-2.67-1.51-3.77c0.09-0.22,0.23-0.36,0.49-0.31
		c1.12,0.6,1.71,1.65,1.74,2.81c0.1,3.26,0.69,6.48,0.56,9.75c-0.02,0.31-0.04,0.62-0.04,0.94c0,0.16,0,0.33-0.01,0.5
		c0,0.2,0.01,0.4,0.04,0.6c0.02,0.09,0.02,0.19,0.01,0.28c-0.03,0.18-0.08,0.35-0.08,0.53c0.01,0.09,0.02,0.18,0.04,0.27
		c0.04,0.14,0.07,0.28,0.09,0.42c0.01,0.16,0,0.31-0.04,0.46C463.19,277.79,463.31,278.3,462.73,278.28z"/>
	<path style="fill-rule:evenodd;clip-rule:evenodd;fill:#22201B;" d="M476.64,308.08c0.15,0.13,0.3,0.27,0.45,0.4
		c-0.26,0.03-0.52,0.06-0.78,0.09c-3.92,0.18-7.13-1.85-10.5-3.4c0.02-0.18,0.11-0.32,0.25-0.44c0.15-0.11,0.31-0.17,0.49-0.14
		c1.41,0.69,2.88,1.23,4.35,1.77c1.33,0.55,2.7,0.89,4.12,1.08C475.6,307.52,476.23,307.55,476.64,308.08z"/>
	<path style="fill-rule:evenodd;clip-rule:evenodd;fill:#13120B;" d="M460.83,260.94c-0.1,0.1-0.19,0.2-0.29,0.3
		c-0.26-0.25-0.51-0.5-0.78-0.73c-0.37-0.32-1.21-0.33-1.11-0.89c0.13-0.69,0.51-1.4,1.26-1.75c0.47-0.22,0.92-0.47,1.37-0.71
		c0.23,0.07,0.46,0.14,0.69,0.21c-0.01,0.05-0.02,0.11-0.02,0.16c-0.05,0.1-0.12,0.19-0.2,0.26c-0.08,0.07-0.18,0.14-0.27,0.19
		c-0.44,0.31-1.35,0.59-1.22,0.92c0.19,0.5,0.95,0.01,1.48,0.08c0.5,0.07,1.02-0.03,1.53,0.1c0.11,0.03,0.21,0.08,0.3,0.14
		c0.04,0.03,0.09,0.07,0.13,0.1c0.08,0.07,0.16,0.16,0.22,0.25c0.06,0.09,0.1,0.2,0.12,0.31c0.01,0.17-0.04,0.32-0.18,0.43
		c-0.1,0.04-0.2,0.06-0.31,0.04c-0.1-0.01-0.21-0.03-0.31-0.05c-0.51-0.08-1.03,0.06-1.53-0.09
		C461.07,260.02,460.88,260.4,460.83,260.94z"/>
	<path style="fill-rule:evenodd;clip-rule:evenodd;fill:#18170F;" d="M466.08,304.91c-0.09,0.09-0.18,0.18-0.27,0.27
		c-2.3-1.73-2.28-4.36-2.64-6.84c-0.24-1.24,0.07-2.5-0.17-3.73c-0.01-0.24-0.02-0.48-0.04-0.72c0.19-0.15,0.38-0.13,0.56,0.02
		c0.38,0.57,0.29,1.22,0.27,1.84c-0.02,1.08,0.16,2.13,0.34,3.17c0.08,0.36,0.09,0.74,0.21,1.09c0.07,0.27,0.1,0.55,0.1,0.83
		c0,0.13-0.01,0.26,0.02,0.39c0.05,0.05,0.12,0.07,0.2,0.05c0.12-0.04,0.23-0.08,0.35-0.09c0.1,0,0.18,0.02,0.27,0.07
		c0.12,0.11,0.17,0.24,0.13,0.39c-0.1,0.23-0.27,0.41-0.47,0.56c-0.07,0.07-0.23,0.05-0.22,0.21c0.03,0.07,0.06,0.14,0.1,0.2
		c0.04,0.07,0.07,0.14,0.11,0.21c0.04,0.07,0.07,0.14,0.1,0.21c0.05,0.11,0.1,0.21,0.15,0.31c0.04,0.07,0.08,0.13,0.11,0.2
		c0.04,0.07,0.08,0.13,0.11,0.2c0.04,0.06,0.09,0.13,0.13,0.19c0.05,0.06,0.11,0.12,0.16,0.17c0,0,0.08,0.08,0.09,0.08
		c0.06,0.06,0.12,0.11,0.17,0.17c0.03,0.03,0.05,0.06,0.08,0.09c0.05,0.07,0.09,0.14,0.12,0.22c0,0.04,0,0.08,0,0.13
		C466.14,304.84,466.11,304.87,466.08,304.91z"/>
	<path style="fill-rule:evenodd;clip-rule:evenodd;fill:#1A180D;" d="M462.93,286.37c0-0.5,0-0.99,0-1.49
		c-0.15-1.85-0.11-3.71-0.03-5.56c0.1-0.12,0.22-0.18,0.37-0.18c0.26,0.04,0.32,0.24,0.37,0.44c-0.01,2.44,0.27,4.88,0,7.33
		c-0.22,1.07-0.04,2.15-0.12,3.22c-0.03,0.44,0.1,1-0.58,1.11c0-0.23,0-0.46,0-0.69c-0.14-0.26-0.14-0.53,0-0.79
		c-0.01-0.19-0.02-0.38-0.03-0.57C462.8,288.25,462.79,287.31,462.93,286.37z"/>
	<path style="fill-rule:evenodd;clip-rule:evenodd;fill:#25231E;" d="M495.8,280.92c-0.13-0.24-0.27-0.47-0.4-0.71
		c-0.65-0.63-0.25-1.49-0.46-2.21c-0.04-0.19-0.05-0.38-0.03-0.58c0.03-0.25,0.12-0.5,0.11-0.76c0-0.13,0-0.26,0-0.4
		c0.14-0.92-0.32-1.93,0.37-2.77c0.07-0.16,0.14-0.32,0.22-0.48c0.07-0.11,0.13-0.11,0.19,0.01
		C495.79,275.64,495.8,278.28,495.8,280.92z"/>
	<path style="fill-rule:evenodd;clip-rule:evenodd;fill:#201E18;" d="M462.95,291.24c0.53-1.03,0.12-2.14,0.25-3.21
		c0.06-0.46-0.12-0.94,0.18-1.36c0.13,0.09,0.28,0.2,0.3,0.36c0.26,2.2,0.34,4.39-0.04,6.58c-0.02,0.12-0.14,0.18-0.22,0.27
		c-0.15,0-0.3,0-0.45,0C462.96,293,462.95,292.12,462.95,291.24z"/>
	<path style="fill-rule:evenodd;clip-rule:evenodd;fill:#252520;" d="M463.25,279.21c-0.6,1.25-0.14,2.58-0.27,3.87
		c-0.06,0.59-0.04,1.2-0.05,1.8c-0.34-2.19-0.12-4.4-0.19-6.6c0.14-0.32,0.28-0.64,0.42-0.96
		C463.73,277.92,463.63,278.56,463.25,279.21z"/>
	<path style="fill-rule:evenodd;clip-rule:evenodd;fill:#25231E;" d="M495.63,285.81c0-1.55-0.26-3.11,0.16-4.64
		C495.81,282.71,495.9,284.27,495.63,285.81z"/>
	<path style="fill-rule:evenodd;clip-rule:evenodd;fill:#201E18;" d="M463,294.6c0.42,1.23,0.13,2.49,0.17,3.73
		C462.83,297.1,463.01,295.85,463,294.6z"/>
	<path style="fill-rule:evenodd;clip-rule:evenodd;fill:#313732;" d="M495.63,269.46c0.03-1.14-0.24-2.3,0.18-3.42
		C495.78,267.18,496,268.33,495.63,269.46z"/>
	<path style="fill-rule:evenodd;clip-rule:evenodd;fill:#362E28;" d="M462.93,286.37c0,0.94-0.01,1.88-0.01,2.83
		C462.68,288.25,462.68,287.31,462.93,286.37z"/>
	<path style="fill-rule:evenodd;clip-rule:evenodd;fill:#2D302A;" d="M462.52,273.24c0.4,0.82,0.14,1.69,0.17,2.54
		C462.43,274.95,462.52,274.09,462.52,273.24z"/>
	<path style="fill-rule:evenodd;clip-rule:evenodd;fill:#313732;" d="M495.63,271.87c0-0.44,0-0.89,0-1.33
		C495.81,270.98,495.91,271.42,495.63,271.87z"/>
	<path style="fill-rule:evenodd;clip-rule:evenodd;fill:#313732;" d="M495.79,273c-0.06,0-0.13,0-0.19-0.01
		c0.01-0.35,0.03-0.69,0.04-1.04C495.93,272.27,495.81,272.65,495.79,273z"/>
	<path style="fill-rule:evenodd;clip-rule:evenodd;fill:#362E28;" d="M462.94,289.76c0,0.26,0,0.53,0,0.79
		C462.71,290.29,462.68,290.02,462.94,289.76z"/>
	<path style="fill-rule:evenodd;clip-rule:evenodd;fill:#313732;" d="M495.63,270.43c0-0.22,0.01-0.43,0.01-0.65
		C495.89,270,495.84,270.22,495.63,270.43z"/>
	<path style="fill-rule:evenodd;clip-rule:evenodd;fill:#AED4E8;" d="M495.31,276.6c0.04,0.07,0.04,0.15,0.01,0.23
		c-0.05,0.08-0.12,0.14-0.21,0.16c-0.1,0.01-0.19,0-0.28-0.03c-0.13-0.04-0.26-0.1-0.39-0.16c-0.09-0.04-0.18-0.08-0.27-0.12
		c-0.09-0.04-0.18-0.08-0.28-0.12c-0.1-0.04-0.19-0.08-0.29-0.13c-0.63-0.35-1.47-0.33-1.86-1.09c-0.57-0.84-0.91-1.77-1.12-2.76
		c-0.58-2.75-0.8-5.51-0.36-8.3c0.13-0.84,0.45-1.61,1.01-2.26c0.08-0.1,0.18-0.19,0.27-0.28c0.23-0.02,0.46-0.04,0.69-0.07
		c0.11-0.04,0.19-0.13,0.3-0.15c0.36-0.02,0.71-0.04,1.07-0.07c0.77,0.34,0.14,0.76-0.02,1.02c-0.86,1.4-1.22,2.95-1.23,4.55
		c-0.01,2.07,0.25,4.12,0.9,6.1c0.34,1.04,0.83,1.98,1.8,2.59C495.32,275.95,495.17,276.32,495.31,276.6z"/>
	<path style="fill-rule:evenodd;clip-rule:evenodd;fill:#C0DDEE;" d="M482.08,254.72c0.39-0.26,0.84-0.19,1.27-0.19
		c0.69,0.37,1.46,0.02,2.16,0.26c0.1,1.36,0.86,2.45,1.52,3.58c0.35,0.58,0.66,1.18,0.95,1.8c0.55,1.17,0.5,1.29-0.77,1.82
		c-1.44,0.13-2.89,0.67-4.33-0.04c0.51-0.78,0.43-1.6,0.23-2.46C482.76,257.89,482.36,256.32,482.08,254.72z"/>
	<path style="fill-rule:evenodd;clip-rule:evenodd;fill:#9FCCDF;" d="M495.1,275.89c-0.82,0.01-1.25-0.53-1.5-1.18
		c-1.72-4.34-2.7-8.69,0.13-12.99c0.03-0.05-0.08-0.19-0.12-0.28c0.72-0.44,1.45-0.88,2.17-1.33c-0.14,0.85-0.27,1.71-0.41,2.56
		c-0.01,0.08-0.03,0.16-0.05,0.23c-1.96,1.21-1.74,3.23-1.7,5.05c0.05,2.02,0.28,4.06,1.43,5.87
		C495.43,274.41,495.35,275.2,495.1,275.89z"/>
	<path style="fill-rule:evenodd;clip-rule:evenodd;fill:#8EC3D7;" d="M495.1,275.89c0.05-0.91-0.25-1.65-0.65-2.5
		c-1.39-2.98-1.65-6.16-0.68-9.35c0.19-0.62,0.45-1.57,1.55-1.13c0,1.02,0,2.05,0,3.07c-0.15,2.2-0.14,4.41-0.01,6.61
		c0.02,0.29,0.04,0.59,0.07,0.89c-0.02,1.04-0.05,2.08-0.07,3.12C495.24,276.36,495.17,276.13,495.1,275.89z"/>
	<path style="fill-rule:evenodd;clip-rule:evenodd;fill:#ADD1E5;" d="M487.19,261.68c0.77-0.23,1.04-0.57,0.52-1.37
		c-0.75-1.17-1.35-2.42-2.05-3.62c-0.37-0.63-0.55-1.23-0.15-1.9c0.08,0,0.17,0,0.25,0c0.79,0,1.14,0.48,1.59,1.12
		c1.17,1.69,2.02,3.58,3.23,5.24c0.06,0.11,0.08,0.22,0.04,0.34c-0.12,0.15-0.28,0.23-0.46,0.29c-0.24,0.06-0.47,0.15-0.72,0.2
		c-0.38,0.08-0.77,0.07-1.15,0.09C487.88,262.05,487.47,262.06,487.19,261.68z"/>
	<path style="fill-rule:evenodd;clip-rule:evenodd;fill:#588C9E;" d="M491.04,255.48c1.21,0.29,2.48,0.38,3.59,1.02
		c0.26,0.3,0.1,0.61-0.02,0.89c-0.42,1-0.39,2.09-0.69,3.11c-0.32,0.15-0.64,0.3-0.97,0.45c-0.53-0.36-0.57-0.92-0.56-1.48
		c0.01-0.95-0.24-1.78-0.9-2.5C491.12,256.57,490.78,256.1,491.04,255.48z"/>
	<path style="fill-rule:evenodd;clip-rule:evenodd;fill:#7AABC0;" d="M492.22,261.18c-0.15,0.04-0.31,0.08-0.46,0.13
		c-0.12,0.04-0.24,0.03-0.34-0.04c-1-1.89-1.81-3.88-3.15-5.58c-0.14-0.18-0.07-0.46,0.13-0.65c0.4,0.08,0.8,0.16,1.2,0.24
		c0.8,0.88,1.62,1.73,2.14,2.82C492.2,259.08,492.51,260.08,492.22,261.18z"/>
	<path style="fill-rule:evenodd;clip-rule:evenodd;fill:#689BB0;" d="M492.22,261.18c-0.19-2.08-0.98-3.88-2.51-5.33
		c-0.11-0.11-0.08-0.38-0.11-0.57c0.48,0.07,0.96,0.14,1.45,0.21c1.2,1.62,1.9,3.43,1.91,5.47
		C492.71,261.03,492.46,261.1,492.22,261.18z"/>
	<path style="fill-rule:evenodd;clip-rule:evenodd;fill:#91BDD2;" d="M488.39,255.03c0.08,0.26,0.07,0.59,0.24,0.77
		c1.44,1.56,2.25,3.45,2.88,5.43c-0.04,0.16-0.18,0.17-0.3,0.21c-0.14,0.02-0.27,0.04-0.41,0.06c-0.1,0.06-0.19,0.04-0.25-0.06
		c0-0.07,0-0.13,0-0.2c-0.39-0.32-0.5-0.78-0.64-1.24c-0.4-1.28-1.31-2.25-2.07-3.3c-0.38-0.52-0.76-1.04-0.45-1.73
		C487.74,254.72,488.07,254.78,488.39,255.03z"/>
	<path style="fill-rule:evenodd;clip-rule:evenodd;fill:#508393;" d="M493.92,260.5c-0.49-1.47,0.25-2.71,0.71-4.01
		c1.81,0.71,1.99,1.9,0.47,3.25C494.75,260.05,494.31,260.25,493.92,260.5z"/>
	<path style="fill-rule:evenodd;clip-rule:evenodd;fill:#9DC6DA;" d="M487.39,254.97c0.05,0.92,0.66,1.56,1.19,2.2
		c1,1.21,1.75,2.51,1.98,4.08c-0.55,0.06-0.8-0.27-0.92-0.73c-0.54-2-2.24-3.34-2.99-5.24c-0.09-0.24-0.58-0.33-0.88-0.49
		C486.31,254.85,486.85,254.91,487.39,254.97z"/>
	<path style="fill-rule:evenodd;clip-rule:evenodd;fill:#313732;" d="M495.32,272.59c-0.25-2.2-0.31-4.41,0.01-6.61
		C495.32,268.19,495.32,270.39,495.32,272.59z"/>
	<path style="fill-rule:evenodd;clip-rule:evenodd;fill:#2C3231;" d="M490.55,261.44c0.08,0.02,0.17,0.04,0.25,0.06
		c0.18,0.28,0.49,0.18,0.74,0.23c-0.03,0.06-0.04,0.11-0.05,0.17c-0.55,0.6-1.27,0.45-1.96,0.47c-0.4-0.17-1,0.02-1.14-0.62
		c0.4-0.04,0.8-0.07,1.2-0.11c0.17-0.06,0.37-0.06,0.53-0.15C490.28,261.48,490.41,261.46,490.55,261.44z"/>
	<path style="fill-rule:evenodd;clip-rule:evenodd;fill:#2C3231;" d="M491.21,261.44c0.1-0.07,0.2-0.14,0.3-0.21
		c0.08,0.02,0.16,0.05,0.24,0.07C491.58,261.35,491.4,261.4,491.21,261.44z"/>
	<path style="fill-rule:evenodd;clip-rule:evenodd;fill:#2C3231;" d="M492.54,261.51c-0.1,0.05-0.2,0.1-0.3,0.15
		C492.34,261.62,492.44,261.56,492.54,261.51z"/>
	<path style="fill-rule:evenodd;clip-rule:evenodd;fill:#951D1B;" d="M476.64,308.08c-2.03-0.38-4.12-0.5-6-1.5
		c-0.11-0.13-0.18-0.28-0.12-0.44c0.66-2-0.01-3.66-1.28-5.17c-0.18-0.21-0.36-0.43-0.35-0.74c0.66-0.77,1.63-0.78,2.49-0.92
		c1.75-0.29,3.44-0.93,5.22-1.01c0.12-0.03,0.25-0.04,0.37-0.03c0.22,0.08,0.48,0.07,0.68,0.21c0.42,0.97,0.44,1.99,0.41,3.02
		c-0.01,0.63,0.18,0.99,0.91,0.83c0.71-0.16,1.41,0.08,2.12,0.12c0.11,0.02,0.22,0.04,0.31,0.06c-0.75-0.23-1.5-0.25-2.24-0.23
		c-0.75,0.02-1.17-0.27-1.08-1.03c0.11-0.92-0.3-1.79-0.13-2.71c0.07-0.1,0.15-0.17,0.26-0.22c0.28-0.07,0.57-0.11,0.85-0.17
		c0.66-0.08,1.31-0.09,1.97,0c0.3,0.05,0.59,0.04,0.89-0.01c1.44,0.15,2.9,0.05,4.31,0.45c0.42,0.16,0.82,0.42,1.31,0.35
		c0.91,0.12,1.78,0.42,2.65,0.69c0.16,0.07,0.31,0.16,0.45,0.27c0.14,0.1,0.28,0.22,0.39,0.36c0.11,0.15,0.14,0.32,0.1,0.5
		c-0.7,0.84-1.38,1.68-1.6,2.83c-0.18,0.99-0.08,1.78,0.85,2.31c-0.02,0.07-0.04,0.15-0.07,0.21c-0.16,0-0.31,0-0.47,0
		c-0.08,0.07-0.16,0.13-0.24,0.2c-3.74,1.58-7.66,1.9-11.66,1.75C477.51,308.06,477.07,308.07,476.64,308.08z"/>
	<path style="fill-rule:evenodd;clip-rule:evenodd;fill:#9D1C1C;" d="M495.12,277.81c0.5,0.75,0.08,1.6,0.28,2.39
		c-0.02,6.27-0.05,12.54-0.07,18.81c0,0.75,0.03,1.5,0.04,2.25c0,0.19-0.17,0.2-0.28,0.27c-0.14-0.07-0.29-0.15-0.43-0.22
		c-0.08-0.07-0.17-0.14-0.26-0.2c-0.16-0.01-0.32-0.02-0.48-0.04c-0.62-0.23-1.32-0.09-1.93-0.42c-0.42-0.23-0.88-0.39-0.8-1.01
		c0.74-1.84,0.87-3.77,0.93-5.73c0.13-4.37,0.66-8.72,0.46-13.1c-0.02-0.19-0.07-0.44,0.06-0.57
		C493.48,279.45,494.04,278.37,495.12,277.81z"/>
	<path style="fill-rule:evenodd;clip-rule:evenodd;fill:#8B1D1A;" d="M490.39,305.91c-0.98,0.08-1.34-0.36-1.28-1.34
		c0.09-1.63,0.56-3.02,1.95-4c0.89-0.25,1.52,0.25,2.15,0.75l0,0c0.13,0.15,0.34,0.1,0.47,0.21c0.07,0.02,0.14,0.04,0.21,0.04
		c0.09,0.06,0.17,0.13,0.26,0.18c0.4,0.1,0.72,0.27,0.73,0.74c-0.2,0.14-0.36,0.3-0.48,0.51
		C493.38,304.42,491.8,305.04,490.39,305.91z"/>
	<path style="fill-rule:evenodd;clip-rule:evenodd;fill:#201C14;" d="M493.2,301.32c-0.72-0.25-1.43-0.5-2.15-0.75
		c-0.08-0.07-0.17-0.14-0.25-0.21c-0.07-0.08-0.14-0.14-0.23-0.19c-0.09-0.08-0.18-0.16-0.27-0.24c-0.06-0.05-0.08-0.11-0.08-0.18
		c0-0.07,0.01-0.1,0.02-0.1c0.11-0.13,0.25-0.17,0.42-0.17c0.16,0.02,0.3,0.08,0.43,0.17c0.08,0.06,0.15,0.14,0.19,0.23
		c0.74,0.71,1.86,0.58,2.64,1.2C493.66,301.09,493.38,301.04,493.2,301.32z"/>
	<path style="fill-rule:evenodd;clip-rule:evenodd;fill:#895F5D;" d="M494.4,303.01c-0.01-0.33,0.14-0.52,0.48-0.51
		C494.72,302.67,494.56,302.84,494.4,303.01z"/>
	<path style="fill-rule:evenodd;clip-rule:evenodd;fill:#201C14;" d="M493.67,301.53c-0.16-0.07-0.32-0.14-0.47-0.21
		C493.36,301.39,493.52,301.46,493.67,301.53z"/>
	<path style="fill-rule:evenodd;clip-rule:evenodd;fill:#5A605E;" d="M495.09,301.53c0.09-0.09,0.19-0.18,0.28-0.27
		C495.55,301.64,495.3,301.57,495.09,301.53z"/>
	<path style="fill-rule:evenodd;clip-rule:evenodd;fill:#201C14;" d="M494.4,301.11c0.08,0.07,0.17,0.13,0.25,0.2
		C494.57,301.25,494.49,301.18,494.4,301.11z"/>
	<path style="fill-rule:evenodd;clip-rule:evenodd;fill:#201C14;" d="M494.15,301.75c-0.09-0.06-0.18-0.12-0.26-0.18
		C493.97,301.63,494.06,301.69,494.15,301.75z"/>
	<path style="fill-rule:evenodd;clip-rule:evenodd;fill:#EDF5FA;" d="M474.24,255.01c1.33-0.47,2.71-0.19,4.06-0.26
		c0.21-0.16,0.46-0.11,0.69-0.11c1.48-0.03,1.48-0.03,1.51,1.48c0.01,0.77,0.25,1.49,0.59,2.18c0.41,0.83,0.71,1.7,0.84,2.62
		c0.06,0.44,0.08,0.89-0.34,1.21c-0.84,0.33-1.72,0.12-2.58,0.18c-1.89-0.06-3.79,0.11-5.67-0.1c-0.52-0.19-0.41-0.6-0.32-0.99
		c0.15-0.66,0.22-1.34,0.48-1.96C474.09,257.9,474.33,256.49,474.24,255.01z"/>
	<path style="fill-rule:evenodd;clip-rule:evenodd;fill:#DAEBF5;" d="M481.68,261.92c0-1.29-0.41-2.48-0.98-3.61
		c-0.46-0.93-0.8-1.88-0.46-2.93c0.16-0.5-0.04-0.63-0.51-0.61c-0.47,0.02-0.95-0.01-1.42-0.02c1.26-0.3,2.52-0.16,3.78-0.03
		c0.29,0.07,0.49,0.2,0.55,0.54c0.31,1.72,0.56,3.46,1.02,5.13c0.25,0.91,0.04,1.31-0.79,1.52c-0.02,0.04-0.05,0.09-0.08,0.13
		c-0.08,0.06-0.18,0.1-0.28,0.13c-0.16,0.03-0.31,0.03-0.47,0C481.88,262.14,481.75,262.08,481.68,261.92z"/>
	<path style="fill-rule:evenodd;clip-rule:evenodd;fill:#C4E0EF;" d="M473.09,261.89c2.01,0.04,4.01,0.08,6.02,0.12
		c0,0.17-0.07,0.29-0.22,0.37c-2.6,0.34-5.2,0.15-7.81,0.1c-0.31-0.01-0.6-0.18-0.88-0.34c-0.86-1.22-0.72-2.62-0.6-3.98
		c0.08-0.89,0.29-1.78,0.55-2.65c0.07-0.04,0.14-0.05,0.22-0.03c0.28-0.25,0.69,0.02,0.97-0.23c0.62-0.25,1.27-0.25,1.92-0.21
		c-0.86,1.98-0.91,4.12-1.21,6.2C471.95,261.98,472.89,261.44,473.09,261.89z"/>
	<path style="fill-rule:evenodd;clip-rule:evenodd;fill:#D9EAF4;" d="M473.09,261.89c-0.95,0.15-1.6,0.37-1.35-1.22
		c0.25-1.62,0.84-3.23,0.63-4.92c-0.09-0.73,0.71-0.35,0.9-0.72c0.32-0.01,0.65-0.02,0.97-0.02c0.49,0.84,0.51,1.7,0.21,2.61
		C473.98,259.04,473.54,260.47,473.09,261.89z"/>
	<path style="fill-rule:evenodd;clip-rule:evenodd;fill:#B1D4E7;" d="M470.17,255.51c0.07,0.34,0.3,0.75,0.19,1.02
		c-0.73,1.79-0.38,3.6-0.19,5.41c-0.57,0.51-1.13,0.4-1.69-0.03c-0.81-2.13-1.09-4.27,0.01-6.4
		C469.05,255.51,469.61,255.51,470.17,255.51z"/>
	<path style="fill-rule:evenodd;clip-rule:evenodd;fill:#9FC7DB;" d="M468.49,255.5c0.05,0.11,0.18,0.25,0.14,0.32
		c-1.01,1.93-0.26,3.9-0.14,5.86c-0.31,0.22-0.58,0.06-0.86-0.06c-1.18-1.27-1.38-2.77-0.94-4.37c0.14-0.52,0.33-1.05,0.58-1.54l0,0
		c0.22-0.17,0.5-0.05,0.73-0.16C468.16,255.53,468.32,255.52,468.49,255.5z"/>
	<path style="fill-rule:evenodd;clip-rule:evenodd;fill:#8BB8CE;" d="M467.26,255.7c0.27,0.38,0.16,0.73-0.04,1.1
		c-0.88,1.66-0.43,3.17,0.54,4.61c-0.69,0.54-1.26,0.17-1.82-0.25c-0.52-1.53-1.13-3.05-0.22-4.65c0.2-0.35,0.36-0.7,0.82-0.75
		C466.79,255.75,467.03,255.72,467.26,255.7z"/>
	<path style="fill-rule:evenodd;clip-rule:evenodd;fill:#7BABC0;" d="M466.55,255.77c-0.93,1.24-1.27,2.58-0.68,4.08
		c0.14,0.36,0.14,0.77,0.2,1.16c-0.47,0.35-0.86,0.16-1.23-0.18c-0.31-1.46-0.9-2.9-0.21-4.41l0,0c0.14-0.12,0.33-0.09,0.48-0.18
		C465.6,256.12,465.98,255.65,466.55,255.77z"/>
	<path style="fill-rule:evenodd;clip-rule:evenodd;fill:#6FA1B6;" d="M464.63,256.43c0.08,1.42,0.17,2.84,0.25,4.26
		c-0.81,0.28-0.71-0.51-0.98-0.85l-0.03-0.04c-0.04-0.1-0.1-0.17-0.2-0.21l0.03-0.07c-0.02-0.86-0.6-1.67-0.25-2.56
		C463.78,256.66,464.15,256.4,464.63,256.43z"/>
	<path style="fill-rule:evenodd;clip-rule:evenodd;fill:#6194A8;" d="M463.45,256.96c0.14,0.85,0.81,1.65,0.25,2.56
		c-0.09-0.06-0.18-0.12-0.27-0.17c-1.04-0.11-1.76-0.53-1.69-1.73v0.01c0.09-0.06,0.18-0.12,0.27-0.18l-0.02-0.07
		C462.47,257.24,462.96,257.1,463.45,256.96z"/>
	<path style="fill-rule:evenodd;clip-rule:evenodd;fill:#B1D4E7;" d="M471.36,255.25c-0.26,0.33-0.63,0.23-0.97,0.23
		C470.66,255.19,471.02,255.24,471.36,255.25z"/>
	<path style="fill-rule:evenodd;clip-rule:evenodd;fill:#8BB8CE;" d="M467.99,255.54c-0.2,0.24-0.47,0.2-0.73,0.16
		C467.5,255.65,467.75,255.6,467.99,255.54z"/>
	<path style="fill-rule:evenodd;clip-rule:evenodd;fill:#6FA1B6;" d="M465.11,256.25c-0.16,0.06-0.32,0.12-0.48,0.18
		C464.79,256.37,464.95,256.31,465.11,256.25z"/>
	<path style="fill-rule:evenodd;clip-rule:evenodd;fill:#8B1D1A;" d="M489.61,306.32c0.08-0.06,0.16-0.13,0.24-0.2
		C489.77,306.19,489.69,306.25,489.61,306.32z"/>
	<path style="fill-rule:evenodd;clip-rule:evenodd;fill:#83BDD1;" d="M463.25,279.21c-0.03-0.63-0.06-1.26-0.09-1.9
		c0-0.16,0-0.33,0-0.49c-0.06-0.11-0.15-0.2-0.16-0.33l0.01-0.06c0.06-0.18,0.07-0.38,0.16-0.56c0-0.08,0-0.17,0-0.25
		c-0.09-0.18-0.1-0.38-0.16-0.56c0-0.1,0-0.21-0.01-0.31c0.12-0.37,0.15-0.73-0.01-1.09c-0.15-3.22-0.27-6.44-0.48-9.66
		c-0.08-1.23-0.78-2.23-1.67-3.07c-0.09-0.31-0.69-0.52-0.38-0.83c0.33-0.34,0.86-0.54,1.34-0.09c2.13,1.85,3.28,4.25,3.94,6.93
		c0.14,0.56,0.23,1.1-0.22,1.56c-0.07,0.22-0.89,0.14-0.15,0.73c0.67,0.53,0.08,1.39-0.16,2.07c-0.18,0.49-0.61,0.99,0.12,1.4
		c0.66,0.88,0.24,1.81,0.14,2.72c-0.08,0.75-0.32,1.45-0.55,2.16c-0.02,0.11-0.06,0.22-0.1,0.33c-0.08,0.21-0.24,0.37-0.42,0.5
		c-0.12,0.1-0.24,0.2-0.35,0.31c-0.18,0.18-0.32,0.42-0.61,0.44C463.36,279.2,463.3,279.21,463.25,279.21z"/>
	<path style="fill-rule:evenodd;clip-rule:evenodd;fill:#2D302A;" d="M462.98,273.67c0.21,0.36,0.25,0.73,0.01,1.09
		C462.99,274.39,462.99,274.03,462.98,273.67z"/>
	<path style="fill-rule:evenodd;clip-rule:evenodd;fill:#2D302A;" d="M463.16,275.88c-0.05,0.19-0.11,0.37-0.16,0.56
		C463.05,276.26,463.1,276.07,463.16,275.88z"/>
	<path style="fill-rule:evenodd;clip-rule:evenodd;fill:#2D302A;" d="M463,275.07c0.21,0.14,0.21,0.35,0.16,0.56
		C463.11,275.45,463.05,275.26,463,275.07z"/>
	<path style="fill-rule:evenodd;clip-rule:evenodd;fill:#252520;" d="M462.99,276.51c0.05,0.11,0.11,0.22,0.16,0.33
		C463.1,276.72,463.04,276.61,462.99,276.51z"/>
	<path style="fill-rule:evenodd;clip-rule:evenodd;fill:#8A1D1A;" d="M468.91,300.34c2.07,1.54,2.72,3.89,1.73,6.24
		c-1.45-0.56-3-0.91-4.26-1.9c-0.11,0.1-0.21,0.09-0.31-0.01l0.02,0.02c-0.08-0.09-0.17-0.18-0.26-0.26l0.02,0.02
		c-0.08-0.09-0.17-0.17-0.26-0.26l0.01,0.02c-0.08-0.09-0.16-0.17-0.24-0.25h0.01c-0.14-0.13-0.1-0.35-0.25-0.48v0.01
		c-0.13-0.14-0.09-0.37-0.24-0.49l0,0.01c-0.13-0.14-0.09-0.36-0.24-0.49l0,0.01c-0.06-0.06-0.07-0.12-0.05-0.18
		c0.02-0.06,0.04-0.09,0.06-0.09c0.23-0.24,0.47-0.49,0.7-0.73C466.33,300.52,467.51,300.11,468.91,300.34z"/>
	<path style="fill-rule:evenodd;clip-rule:evenodd;fill:#78A0D5;" d="M466.07,304.67c0.1,0,0.21,0.01,0.31,0.01
		c-0.1,0.07-0.2,0.15-0.3,0.22C466.06,304.83,466.05,304.75,466.07,304.67z"/>
	<path style="fill-rule:evenodd;clip-rule:evenodd;fill:#9AC9DD;" d="M465.36,268.43c0.45-1.41-0.28-2.63-0.76-3.83
		c-0.6-1.5-1.35-2.96-2.73-3.96c-0.16-0.12-0.35-0.36-0.1-0.61c0.55,0,1.1,0.01,1.65,0.01c0.08,0.08,0.16,0.15,0.25,0.22l0.01,0.01
		c0.46,0.24,0.9,0.51,1.15,0.99c1.29,2.46,2.12,5.06,2.58,7.8c-0.43,0.95-0.07,2.04-0.55,2.98c-0.24,0.24-0.55,0.3-0.88,0.34
		c-0.96,0.1-1.2-0.16-0.87-1.05C465.48,270.37,465.66,269.43,465.36,268.43z"/>
	<path style="fill-rule:evenodd;clip-rule:evenodd;fill:#22241E;" d="M464.65,261.23c-0.35-0.29-0.78-0.5-0.96-0.96
		c0.07-0.14,0.14-0.28,0.21-0.42c0.33,0.28,0.66,0.56,0.98,0.85c0.4,0.11,0.79,0.21,1.19,0.32c0.56,0.13,1.13,0.27,1.69,0.4
		c0.24,0.09,0.48,0.17,0.72,0.26c0.53,0.28,1.1,0.31,1.68,0.26c2.94,0.44,5.9,0.15,8.84,0.25c1.01-0.2,2.03-0.1,3.05-0.06
		c0.13,0.1,0.16,0.23,0.08,0.38c-0.55,0.42-1.21,0.31-1.83,0.32c-1.31,0.02-2.62-0.03-3.92,0.08c-0.89,0.03-1.78,0.2-2.67,0.13
		c-0.75,0.05-1.49,0.03-2.23-0.04c-1.32-0.26-2.71-0.19-3.98-0.71c-0.22-0.07-0.44-0.17-0.67-0.21c-0.22-0.03-0.43-0.07-0.65-0.13
		c-0.25-0.07-0.5-0.16-0.74-0.25c-0.19-0.07-0.38-0.14-0.56-0.24C464.78,261.39,464.71,261.32,464.65,261.23z"/>
	<path style="fill-rule:evenodd;clip-rule:evenodd;fill:#518291;" d="M461.74,257.62c0.51,0.63,0.76,1.52,1.69,1.73
		c-1.02-0.07-2.05-0.19-3.05,0.14c-0.33,0.11-0.65,0.08-0.83-0.25c-0.23-0.42,0.16-0.58,0.41-0.72
		C460.53,258.19,461.14,257.92,461.74,257.62z"/>
	<path style="fill-rule:evenodd;clip-rule:evenodd;fill:#22241E;" d="M463.67,259.6c0.07,0.07,0.13,0.14,0.2,0.21
		C463.8,259.74,463.73,259.67,463.67,259.6z"/>
	<path style="fill-rule:evenodd;clip-rule:evenodd;fill:#518291;" d="M462.01,257.45c-0.09,0.06-0.18,0.12-0.27,0.18
		C461.83,257.57,461.92,257.51,462.01,257.45z"/>
	<path style="fill-rule:evenodd;clip-rule:evenodd;fill:#22241E;" d="M463.69,260.26c-0.08-0.07-0.17-0.15-0.25-0.22
		C463.52,260.12,463.6,260.19,463.69,260.26z"/>
	<path style="fill-rule:evenodd;clip-rule:evenodd;fill:#971D1B;" d="M463.42,293.88c-0.01-2.4-0.02-4.81-0.03-7.21
		c0.15-2.34-0.27-4.68,0.06-7.01c0.33-0.23,0.7-0.19,1.01-0.01c0.87,0.53,1.85,0.83,2.74,1.32c0.56,1.04,1.29,2.04,0.89,3.33
		c-0.04,0.09-0.1,0.18-0.16,0.27c-0.03,0.04-0.06,0.07-0.09,0.11c-0.08,0.09-0.17,0.19-0.18,0.33c0,0.08,0,0.17-0.02,0.25
		c-0.03,0.13-0.06,0.25-0.1,0.37c-0.03,0.13-0.07,0.26-0.11,0.38c-0.04,0.13-0.08,0.26-0.12,0.4c-0.03,0.14-0.07,0.28-0.11,0.43
		c-0.09,0.3-0.13,0.61-0.26,0.9c-0.48,0.62-0.44,1.22-0.04,1.88c0.56,0.92,0.95,1.94,1.64,2.79c0.22,0.48,0.32,0.99,0.3,1.5
		c-0.09,1.83,0.23,3.61,0.72,5.36c-0.04,0.71-0.67,0.75-1.11,0.87c-1.15,0.32-2.23,0.81-3.37,1.14c-0.07,0.01-0.13,0.03-0.19,0.07
		c-0.09,0.07-0.17,0.14-0.25,0.21c-0.07,0-0.15,0.01-0.22,0.01c-0.17-0.13-0.09-0.37-0.23-0.51c-0.01-0.3-0.01-0.6-0.02-0.91
		c-0.25-0.29,0.08-0.75-0.3-1C463.3,297.43,463.56,295.64,463.42,293.88z"/>
	<path style="fill-rule:evenodd;clip-rule:evenodd;fill:#29211C;" d="M465.06,301.27c1.28-1.07,3-1.08,4.41-1.84
		c0.07-0.16,0.21-0.25,0.36-0.33c0.15-0.08,0.31-0.14,0.47-0.2c0.34-0.12,0.68-0.23,1.04-0.3c1.39-0.27,2.77-0.56,4.17-0.74
		c0.46-0.06,0.93-0.22,1.38,0.04c0.12,0.19,0.13,0.37,0.01,0.56c-2.49,0.55-4.98,1.09-7.47,1.65c-0.18,0.04-0.35,0.15-0.53,0.23
		c-1.24,0.24-2.41,0.68-3.56,1.19C465.25,301.44,465.16,301.36,465.06,301.27z"/>
	<path style="fill-rule:evenodd;clip-rule:evenodd;fill:#90A0B7;" d="M463.85,299.15c0.55,0.2,0.22,0.66,0.3,1
		C463.74,299.91,463.93,299.49,463.85,299.15z"/>
	<path style="fill-rule:evenodd;clip-rule:evenodd;fill:#29211C;" d="M464.17,301.06c0.08,0.17,0.16,0.34,0.23,0.51
		C463.93,301.58,464.25,301.22,464.17,301.06z"/>
	<path style="fill-rule:evenodd;clip-rule:evenodd;fill:#474C61;" d="M464.63,302.52c0.27,0.07,0.25,0.28,0.24,0.49
		C464.62,302.93,464.6,302.74,464.63,302.52z"/>
	<path style="fill-rule:evenodd;clip-rule:evenodd;fill:#474C61;" d="M464.87,303c0.08,0.16,0.16,0.33,0.24,0.49
		C464.88,303.41,464.86,303.21,464.87,303z"/>
	<path style="fill-rule:evenodd;clip-rule:evenodd;fill:#5F4F36;" d="M465.11,303.48c0.08,0.16,0.17,0.32,0.25,0.48
		C465.28,303.8,465.2,303.64,465.11,303.48z"/>
	<path style="fill-rule:evenodd;clip-rule:evenodd;fill:#29211C;" d="M464.63,301.55c0.08-0.07,0.17-0.14,0.25-0.21
		C464.79,301.41,464.71,301.48,464.63,301.55z"/>
	<path style="fill-rule:evenodd;clip-rule:evenodd;fill:#474C61;" d="M464.64,302.26c0,0.09,0,0.18,0,0.27
		C464.43,302.43,464.53,302.34,464.64,302.26z"/>
	<path style="fill-rule:evenodd;clip-rule:evenodd;fill:#3A7A87;" d="M465.35,303.96c0.08,0.08,0.16,0.17,0.24,0.25
		C465.52,304.13,465.44,304.04,465.35,303.96z"/>
	<path style="fill-rule:evenodd;clip-rule:evenodd;fill:#70A2C2;" d="M465.59,304.19c0.09,0.09,0.17,0.17,0.26,0.26
		C465.76,304.36,465.68,304.28,465.59,304.19z"/>
	<path style="fill-rule:evenodd;clip-rule:evenodd;fill:#58A2B6;" d="M465.83,304.43c0.09,0.09,0.17,0.17,0.26,0.26
		C466,304.61,465.91,304.52,465.83,304.43z"/>
	<path style="fill-rule:evenodd;clip-rule:evenodd;fill:#1A170D;" d="M467.04,281.15c-1.34-0.16-2.27-1.31-3.6-1.49
		c-0.01-0.16-0.01-0.31-0.02-0.47c0.18-0.22,0.36-0.44,0.54-0.67c0.04-0.09,0.1-0.15,0.2-0.17c0.15-0.11,0.3-0.22,0.46-0.33
		c0.22-0.09,0.3,0.04,0.34,0.22c-0.28,0.61-0.16,1.04,0.51,1.32c0.63,0.26,1.26,0.49,1.92,0.65c0.16,0.04,0.31,0.1,0.46,0.15
		c0.1,0.03,0.2,0.07,0.3,0.11c0.59,0.22,1.06,0.69,1.68,0.87c0.3,0.1,0.61,0.2,0.92,0.3c0.48,0.16,0.95,0.32,1.41,0.53
		c0.26,0.14,0.56,0.22,0.67,0.55c-0.13,0.36-0.45,0.39-0.76,0.44c-0.57,0.03-1.11-0.12-1.64-0.3
		C469.26,282.37,468.07,281.91,467.04,281.15z"/>
	<path style="fill-rule:evenodd;clip-rule:evenodd;fill:#1B1811;" d="M476.9,298.47c0-0.16-0.01-0.32-0.01-0.47
		c0.36-0.99,0.46-2,0.38-3.06c-0.13-1.67-0.07-3.35-0.04-5.03c0.04-1.76-0.13-3.51-0.26-5.25c-0.03-0.28-0.13-0.5-0.47-0.53
		c-0.28-0.03-0.57-0.06-0.83-0.16c-0.33-0.24-0.86-0.46-0.12-0.84c0.11-0.02,0.23-0.02,0.34-0.01c0.44,0.06,0.97,0.34,1.08-0.44
		c0.03-2.41,0.02-4.8-0.01-7.19c0.02-0.38-0.3-0.62-0.39-0.96c0.02-0.24,0.16-0.42,0.29-0.62c0.33-0.35,0.04-1.09,0.75-1.2
		c0.38,0.41,0.39,0.97,0.59,1.46c0.04,0.25-0.02,0.48-0.05,0.72c0,0.2,0,0.4,0.01,0.6c0.08,1.68,0.09,1.69,1.82,1.67
		c0.38,0,0.92-0.17,1.03,0.33c0.12,0.55-0.43,0.69-0.84,0.81c-1.97,0.6-1.97,0.6-1.97,2.7c0,0.2,0,0.4,0,0.6
		c0.04,1.2,0.19,1.36,1.43,1.34c1.16-0.03,2.32-0.09,3.45-0.34c2.02-0.45,4.08-0.77,6.04-1.45c0.11-0.04,0.22-0.07,0.33-0.1
		c0.1-0.03,0.21-0.06,0.31-0.09c0.3-0.08,0.6-0.14,0.88-0.28c0.09-0.05,0.18-0.1,0.26-0.15c0.08-0.06,0.17-0.11,0.26-0.16
		c0.36-0.21,0.66-0.5,1.02-0.71c0.87-0.48,1.54-1.15,1.9-2.08c0-0.09-0.01-0.18-0.02-0.27c-0.02-0.04-0.04-0.08-0.05-0.12
		c-0.05-0.07-0.11-0.14-0.17-0.2c-0.04-0.03-0.07-0.06-0.1-0.09c-0.11-0.09-0.22-0.18-0.31-0.29c-0.03-0.1-0.02-0.19,0.03-0.28
		c0.18-0.17,0.36-0.09,0.55-0.03c0.07-0.02,0.13,0,0.18,0.06c0.08,0.07,0.17,0.13,0.26,0.19l-0.01-0.01
		c0.11,0.19,0.35,0.13,0.5,0.25c0.07-0.02,0.13-0.01,0.19,0.03c0.18,0.14,0.15,0.28,0.03,0.44c0,0.17-0.01,0.35-0.01,0.52
		c-0.64,1.03-1.48,1.87-2.42,2.61c-0.04,0.1-0.09,0.18-0.16,0.25c-0.11,0.11-0.23,0.2-0.36,0.3c-0.49,0.33-1.02,0.57-1.54,0.83
		c-0.1,0.05-0.2,0.09-0.31,0.13c-0.22,0.08-0.42,0.21-0.63,0.31c-2.01,0.78-4.11,1.12-6.23,1.42c-0.25,0.01-0.48,0.12-0.73,0.17
		c-1.04,0.28-2.12,0.3-3.19,0.4c-0.37,0.04-0.97-0.04-0.99,0.42c-0.02,0.51,0.58,0.4,0.95,0.45c0.31,0.04,0.64,0.02,0.95,0.11
		c0.32,0.09,0.62,0.22,0.62,0.62c0,0.46-0.34,0.58-0.71,0.66c-0.35,0.08-0.71,0.06-1.07,0.08c-0.52,0.03-0.83,0.27-0.83,0.81
		c-0.02,2.06-0.12,4.13,0.07,6.19c0.01,0.16,0.1,0.3,0.18,0.43c0.29,0.39,0.06,0.76-0.04,1.13c-0.18,0.81-0.4,1.62,0.11,2.39
		c0.21,0.12,0.45,0.12,0.66,0.23c0.14,0.07,0.31,0.14,0.3,0.32c-0.02,0.28-0.26,0.25-0.43,0.23c-0.36-0.03-0.68,0.11-1.03,0.14
		c0.02,1.05,0.02,2.1,0.08,3.15c0.03,0.53,0.49,0.41,0.82,0.43c0.87,0.06,1.74,0.13,2.61,0.15c0.32,0.01,0.46,0.21,0.47,0.43
		c0.01,0.29-0.27,0.35-0.52,0.36c-0.12-0.04-0.21-0.12-0.31-0.18c-0.94,0.04-1.85-0.39-2.82-0.07c-0.65,0.22-0.79-0.26-0.78-0.82
		c0.01-1.17,0.01-2.35-0.46-3.46c-0.09,0.08-0.19,0.08-0.28,0.01l-0.09,0.01L476.9,298.47z"/>
	<path style="fill-rule:evenodd;clip-rule:evenodd;fill:#729AAC;" d="M495.13,277.29c-0.01-0.15-0.02-0.29-0.03-0.44
		c0.07-0.01,0.15-0.02,0.22-0.03C495.34,277.01,495.41,277.22,495.13,277.29z"/>
	<path style="fill-rule:evenodd;clip-rule:evenodd;fill:#BCDCEF;" d="M489.59,262.16c0.64-0.08,1.27-0.17,1.91-0.25
		c-1.87,3.92-1.1,7.89-0.23,11.86c0.13,0.61,0.89,0.92,0.7,1.64c-0.1,0.07-0.21,0.1-0.33,0.1c-0.18-0.01-0.37-0.04-0.55-0.07
		c-0.98-0.43-2.22-0.11-3.03-1.05c-0.45-1.15-0.37-2.37-0.46-3.55c-0.17-2.11-0.44-4.21-0.67-6.31c-0.08-0.75-0.24-1.52,0.38-2.15
		C488.02,261.92,488.83,262.27,489.59,262.16z"/>
	<path style="fill-rule:evenodd;clip-rule:evenodd;fill:#26231F;" d="M491.76,275.36c0.06,0.05,0.13,0.07,0.21,0.05
		c0.67,0.31,1.34,0.61,2.01,0.92c-0.18,0.09-0.36,0.18-0.54,0.26c-0.11,0.14-0.26,0.19-0.43,0.2c-0.39-0.02-0.72-0.23-1.08-0.35
		c-0.46-0.15-0.88-0.37-1.33-0.56c-0.11-0.04-0.21-0.08-0.32-0.12c-0.24-0.05-0.48-0.08-0.72-0.12c-3.56-0.73-7.13-1.13-10.75-0.69
		c-0.36,0.04-0.72,0.02-0.98-0.3c0.08-0.15,0.16-0.29,0.24-0.44c0.29-0.5,0.79-0.47,1.26-0.52c2.02-0.19,4.04-0.17,6.06,0.03
		c0.52,0.08,1.04,0.11,1.55,0.18c0.51,0.09,1.01,0.22,1.44,0.53c1.03,0.25,2.05,0.49,3.07,0.74
		C491.57,275.22,491.66,275.3,491.76,275.36z"/>
	<path style="fill-rule:evenodd;clip-rule:evenodd;fill:#26231F;" d="M494.91,276.82c-0.22,0.02-0.41-0.02-0.5-0.25
		C494.58,276.66,494.74,276.74,494.91,276.82z"/>
	<path style="fill-rule:evenodd;clip-rule:evenodd;fill:#26231F;" d="M494.42,276.58c-0.09-0.06-0.17-0.13-0.26-0.19
		C494.25,276.45,494.34,276.52,494.42,276.58z"/>
	<path style="fill-rule:evenodd;clip-rule:evenodd;fill:#1C1E19;" d="M489.59,262.16c-0.66,0.52-1.46,0.03-2.15,0.28
		c-0.8,0.52-1.66,0.39-2.53,0.28c-0.61-0.42-1.61,0.24-2.02-0.73l-0.03-0.07c1.45,0.05,2.9,0.01,4.33-0.23
		c0.4,0.03,0.8,0.05,1.21,0.08C488.8,261.9,489.19,262.03,489.59,262.16z"/>
	<path style="fill-rule:evenodd;clip-rule:evenodd;fill:#9DC6DA;" d="M490.14,261.5c-0.18,0.05-0.36,0.1-0.53,0.15
		C489.78,261.61,489.96,261.56,490.14,261.5z"/>
	<path style="fill-rule:evenodd;clip-rule:evenodd;fill:#25211C;" d="M478.28,298.45c0.3-0.46,0.87-0.05,1.21-0.39
		c-0.35-0.25-0.86,0.09-1.18-0.31c1.08-0.75,2.32-0.44,3.46-0.36c2.17,0.14,4.35,0.27,6.46,0.89c0.5,0.14,0.99,0.31,1.44,0.55
		c0.32,0.16,0.63,0.34,0.67,0.75c-0.02,0.12-0.03,0.23-0.05,0.35c-0.96-0.24-1.91-0.49-2.86-0.73c-0.34,0.04-0.62-0.18-0.94-0.24
		c-1.61-0.16-3.22-0.32-4.82-0.48c-0.18,0.1-0.35,0.09-0.51-0.04c-0.78,0-1.56,0.01-2.35,0.01c-0.16,0.13-0.33,0.12-0.5,0.04
		L478.28,298.45z"/>
	<path style="fill-rule:evenodd;clip-rule:evenodd;fill:#837D70;" d="M486.49,298.96c0.38-0.18,0.64,0.1,0.94,0.24
		C487.01,299.57,486.78,299.15,486.49,298.96z"/>
	<path style="fill-rule:evenodd;clip-rule:evenodd;fill:#706A5E;" d="M478.3,298.49c0.17-0.01,0.34-0.03,0.5-0.04
		C478.66,298.66,478.49,298.74,478.3,298.49z"/>
	<path style="fill-rule:evenodd;clip-rule:evenodd;fill:#976243;" d="M481.16,298.43c0.17,0.01,0.34,0.03,0.51,0.04
		C481.48,298.71,481.31,298.67,481.16,298.43z"/>
	<path style="fill-rule:evenodd;clip-rule:evenodd;fill:#29211C;" d="M477.08,298.46c0.09,0,0.19-0.01,0.28-0.01
		C477.28,298.59,477.19,298.59,477.08,298.46z"/>
	<path style="fill-rule:evenodd;clip-rule:evenodd;fill:#8B1D1A;" d="M490.57,300.17c0.08,0.06,0.15,0.13,0.23,0.19
		C490.72,300.3,490.65,300.23,490.57,300.17z"/>
	<path style="fill-rule:evenodd;clip-rule:evenodd;fill:#7E746E;" d="M481.43,302.79c0.1,0.06,0.21,0.12,0.31,0.18
		C481.64,302.91,481.53,302.85,481.43,302.79z"/>
	<path style="fill-rule:evenodd;clip-rule:evenodd;fill:#B71820;" d="M490.34,299.58c-0.17-0.14-0.34-0.28-0.51-0.42
		c-0.5-0.31-0.52-0.77-0.39-1.26c0.73-2.73,0.34-5.55,0.73-8.3c0.37-2.65,0.13-5.32,0.37-7.97c0.57-0.32,1.13-0.63,1.7-0.95
		c0.07-0.07,0.15-0.13,0.24-0.17c0.07-0.04,0.14-0.07,0.22-0.09c0.34,0.27,0.25,0.65,0.26,1c0.17,5.38-0.42,10.72-0.73,16.07
		c-0.05,0.89-0.36,1.71-0.95,2.39c-0.08-0.02-0.17-0.04-0.25-0.07c-0.09-0.04-0.17-0.1-0.24-0.16
		C490.64,299.63,490.49,299.6,490.34,299.58z"/>
	<path style="fill-rule:evenodd;clip-rule:evenodd;fill:#9D1C1C;" d="M490.79,299.65c0.08,0.05,0.16,0.11,0.24,0.16
		C490.95,299.76,490.87,299.71,490.79,299.65z"/>
	<path style="fill-rule:evenodd;clip-rule:evenodd;fill:#333233;" d="M482.16,262.2c-1.05,0-2.1-0.01-3.15-0.01
		c0.05-0.05,0.08-0.11,0.1-0.18c0.85-0.03,1.71-0.06,2.56-0.09c0.16,0.03,0.33,0.06,0.49,0.08c0.02,0.03,0.05,0.07,0.07,0.1
		C482.21,262.14,482.19,262.17,482.16,262.2z"/>
	<path style="fill-rule:evenodd;clip-rule:evenodd;fill:#333233;" d="M482.89,261.98c0.56,0.49,1.34-0.11,1.89,0.4
		c-0.04,0.06-0.08,0.11-0.12,0.17c-0.57,0.33-1.19,0.24-1.8,0.21c-0.28-0.03-0.55-0.1-0.71-0.36c0-0.07,0-0.13,0-0.2l0,0
		c0.12-0.15,0.34-0.08,0.47-0.2C482.72,261.99,482.81,261.99,482.89,261.98z"/>
	<path style="fill-rule:evenodd;clip-rule:evenodd;fill:#1C1E19;" d="M482.63,261.99c-0.16,0.07-0.31,0.14-0.47,0.2
		c0-0.06,0-0.13,0-0.19C482.32,262,482.47,262,482.63,261.99z"/>
	<path style="fill-rule:evenodd;clip-rule:evenodd;fill:#2A2825;" d="M476.64,274.42c0.22,0.19,0.44,0.39,0.67,0.58
		c-2.16,0.42-4.32,0.8-6.47,1.22c-0.17,0.03-0.35,0.06-0.52,0.1c-0.16,0.04-0.32,0.08-0.47,0.12c-0.39,0.1-0.76,0.29-1.14,0.42
		c-0.14,0.05-0.28,0.1-0.42,0.15c-0.14,0.05-0.27,0.09-0.41,0.13c-0.23,0.07-0.45,0.14-0.68,0.23c-0.09,0.04-0.18,0.08-0.26,0.12
		c-0.08,0.05-0.17,0.1-0.26,0.14c-0.5,0.27-0.94,0.63-1.51,0.75c-0.11,0-0.2-0.04-0.28-0.12c-0.09-0.08-0.17-0.15-0.26-0.23
		c0.02-0.07,0.04-0.14,0.06-0.21c0.04-0.09,0.1-0.17,0.17-0.24c0.1-0.11,0.21-0.21,0.34-0.3c0.38-0.27,0.8-0.46,1.2-0.69
		c0.53-0.28,1.09-0.5,1.65-0.7c0.69-0.22,1.38-0.45,2.07-0.68c0.32-0.09,0.66-0.16,0.98-0.25c0.17-0.05,0.34-0.08,0.51-0.1
		c0.3-0.02,0.58-0.12,0.86-0.19c0.12-0.04,0.24-0.06,0.37-0.07c0.83-0.12,1.64-0.33,2.47-0.44
		C475.76,274.09,476.25,274.04,476.64,274.42z"/>
	<path style="fill-rule:evenodd;clip-rule:evenodd;fill:#92C5D9;" d="M464.89,277.71c-0.07,0.04-0.14,0.07-0.21,0.11
		c0.19-1.06,0.37-2.12,0.58-3.18c0.13-0.64,0.2-1.25-0.14-1.85c0.44-0.48,0.97-0.39,1.5-0.22c0.45,0.75,0.12,1.52,0.06,2.29
		c-0.05,0.68-0.17,1.35-0.31,2.01c-0.42,0.23-0.85,0.46-1.27,0.68C465.05,277.64,464.98,277.69,464.89,277.71z"/>
	<path style="fill-rule:evenodd;clip-rule:evenodd;fill:#202620;" d="M466.76,272.67c-0.55,0.04-1.09,0.08-1.64,0.12
		c-0.6-0.02-0.89-0.17-0.55-0.86c0.33-0.66,0.54-1.39,0.74-2.11c0.07-0.24,0.12-0.68-0.45-0.51c-0.24,0.07-0.11,0.87-0.57,0.33
		c-0.24-0.28,0.04-0.7,0.31-0.92c0.2-0.16,0.49-0.2,0.75-0.29c0.83,0.84,0.29,1.74,0.01,2.54c-0.32,0.93-0.36,1.4,0.83,1.08
		c0.18-0.05,0.39-0.01,0.59-0.01c0.04,0.04,0.07,0.07,0.11,0.1C466.98,272.36,466.98,272.55,466.76,272.67z"/>
	<path style="fill-rule:evenodd;clip-rule:evenodd;fill:#2A2825;" d="M464.16,278.36c-0.07,0.06-0.13,0.11-0.2,0.17
		C464.03,278.47,464.09,278.42,464.16,278.36z"/>
	<path style="fill-rule:evenodd;clip-rule:evenodd;fill:#ACD3E7;" d="M465.39,261.46c0.23,0.07,0.47,0.14,0.7,0.21
		c0.84,0.41,1.27,1.12,1.54,1.99c0.35,1.14,0.68,2.28,0.86,3.45c0.1,0.68,0.12,1.35-0.44,1.88c-0.27,0.13-0.52,0.14-0.76-0.08
		c-0.34-0.26-0.44-0.63-0.5-1.04c-0.29-1.97-0.92-3.83-1.86-5.6c-0.16-0.31-0.57-0.61-0.29-1.06c0.08,0.02,0.16,0.03,0.24,0.05
		C465.04,261.38,465.24,261.35,465.39,261.46z"/>
	<path style="fill-rule:evenodd;clip-rule:evenodd;fill:#1A1C15;" d="M467.29,268.92c0.24-0.01,0.48-0.03,0.71-0.04
		c0.79,0.04,0.87,0.65,1,1.23c-0.15,1.08-0.27,2.18-1.38,2.78c-0.63,0.05-0.61-0.53-0.83-0.87l0.01,0.03
		C466.9,271,466.48,269.86,467.29,268.92z"/>
	<path style="fill-rule:evenodd;clip-rule:evenodd;fill:#F0F7FB;" d="M476.64,274.42c-1.4-0.17-2.69,0.52-4.08,0.5
		c-0.36-0.71,0.01-1.5-0.27-2.22c0.02-0.66-0.12-1.5,1.03-0.94c0.13,0.06,0.32,0.19,0.4,0.05c0.08-0.14-0.1-0.28-0.24-0.35
		c-0.29-0.14-0.55-0.29-0.65-0.63c-0.03-0.12-0.04-0.23-0.04-0.35c0.37-2.88,1.78-5.33,3.14-7.81c0.06-0.11,0.2-0.09,0.32-0.04
		c1.97-0.08,3.94-0.16,5.91-0.24c0.24,0.03,0.48,0.05,0.72,0.08c0.85,1.26,1.38,2.67,1.8,4.11c0.65,2.21,0.96,4.49,1.03,6.79
		c0.01,0.24-0.01,0.48-0.21,0.65c-2.48-0.1-4.95-0.2-7.42,0.19c-0.77-0.27-0.33-0.97-0.52-1.45c-0.35-1.14-0.27-2.33-0.41-3.49
		c-0.08-0.68,0.43-0.85,1-0.83c0.35-0.04,0.66,0.14,1,0.21c0.19,0.04,0.39,0.02,0.58,0.02c-0.22-0.01-0.44,0-0.66-0.04
		c-0.27-0.09-0.53-0.19-0.82-0.2c-1.04-0.06-1.26,0.11-1.1,1.13c0.24,1.55,0.23,3.09,0.01,4.64
		C476.98,274.28,476.81,274.35,476.64,274.42z"/>
	<path style="fill-rule:evenodd;clip-rule:evenodd;fill:#BCDCEF;" d="M468.76,270.12c-0.1-0.51-0.37-0.9-0.76-1.24
		c0.41-2.68-0.43-5.03-1.91-7.2c0.24,0.03,0.48,0.06,0.71,0.09c0.18,0.09,0.38,0.09,0.56,0.16c1.33,0.25,2.67,0.5,4,0.74
		c0.38,0.23,0.82,0.5,0.67,1c-0.45,1.42-0.51,2.96-1.36,4.25c-0.67,0.45-1.12,1.04-1.26,1.85c-0.07,0.16-0.18,0.29-0.33,0.38
		C468.96,270.2,468.86,270.19,468.76,270.12z"/>
	<path style="fill-rule:evenodd;clip-rule:evenodd;fill:#DFEEF7;" d="M472.51,272.42c0.34,0.82,0.37,1.66,0.05,2.49l-0.08,0.05
		l-0.09-0.02c-0.25,0.14-0.55,0.03-0.79,0.17c-0.16,0.02-0.32,0.04-0.47,0.06c-0.44-1.42-0.01-2.86,0.14-4.24
		c0.32-2.87,1.01-5.71,2.49-8.26c0.83,0.07,1.65-0.31,2.48-0.04c-0.2,0.94-0.79,1.68-1.29,2.46c-1.06,1.68-1.4,3.62-1.91,5.49
		c-0.22,0.33-0.82,0.24-0.85,0.77c-0.03,0.29-0.05,0.58-0.02,0.86c0.02,0.07,0.06,0.13,0.13,0.16
		C472.37,272.4,472.44,272.41,472.51,272.42z"/>
	<path style="fill-rule:evenodd;clip-rule:evenodd;fill:#D1E6F3;" d="M473.76,262.69c0.18,1.27-0.7,2.23-1.06,3.34
		c-0.87,2.7-1.13,5.46-1.35,8.25c-0.02,0.31-0.15,0.61-0.22,0.92c-0.26,0.27-0.61,0.2-0.93,0.24c-0.62,0.06-0.54-0.45-0.6-0.79
		c-0.08-0.46-0.1-0.93-0.08-1.4c0.15-0.71,0.75-1.2,0.98-1.89c0.21-0.65,0.41-1.29,0.22-1.98c-0.09-0.31-0.15-0.62-0.27-0.92
		c-0.04-0.1-0.06-0.2-0.07-0.31c0-0.05,0.01-0.1,0.01-0.16c0.79-1.31,0.7-2.91,1.39-4.26c0.22-0.44-0.27-0.7-0.41-1.05
		C472.16,262.68,472.96,262.68,473.76,262.69z"/>
	<path style="fill-rule:evenodd;clip-rule:evenodd;fill:#9AC9DD;" d="M465.39,261.46c-0.17-0.06-0.34-0.12-0.51-0.18
		C465.05,261.34,465.22,261.4,465.39,261.46z"/>
	<path style="fill-rule:evenodd;clip-rule:evenodd;fill:#ACD3E7;" d="M467.36,261.93c-0.19-0.05-0.37-0.11-0.56-0.16
		C466.99,261.82,467.18,261.87,467.36,261.93z"/>
	<path style="fill-rule:evenodd;clip-rule:evenodd;fill:#AF1A1E;" d="M471.12,298.92c-0.31,0.09-0.61,0.18-0.92,0.27
		c-0.1,0.05-0.19,0.11-0.28,0.18c-0.15,0.02-0.3,0.05-0.45,0.07c-0.82-1.11-0.86-2.45-0.98-3.73c-0.1-1.15,0.06-2.31-0.25-3.44
		c0.14-0.22,0.38-0.34,0.61-0.28c0.98,0.27,2.03,0.23,2.97,0.64c-1.26,1.46-0.7,3.11-0.51,4.73
		C471.38,297.88,471.55,298.44,471.12,298.92z"/>
	<path style="fill-rule:evenodd;clip-rule:evenodd;fill:#1B180F;" d="M471.83,292.64c-1.25,0.39-2.36-0.49-3.58-0.38
		c-1.5-1.09-2.3-3.67-1.47-4.69c0.16,0.1,0.24,0.25,0.29,0.42c0.07,0.72,0.32,1.38,0.67,2.02c0.56,1.04,1.8,1.71,2.94,1.59
		c0.4-0.04,0.66-0.25,0.84-0.58c0.63-1.17,1.25-2.33,0.36-3.66c-0.2-0.29-0.27-0.66-0.44-0.98c-0.13-0.24-0.36-0.39-0.55-0.58
		c-0.06-0.11-0.06-0.21-0.01-0.32c0.17-0.2,0.4-0.25,0.65-0.26c0.24,0.01,0.47,0.07,0.67,0.21c1.04,0.8,1.77,3.45,1.17,4.63
		C472.91,290.94,472.76,292.03,471.83,292.64z"/>
	<path style="fill-rule:evenodd;clip-rule:evenodd;fill:#AE1A1E;" d="M467.04,281.15c1.26,0.16,2.25,0.96,3.38,1.43
		c0.1,0.81,0.18,1.61,0.04,2.42c-0.14,0.15-0.32,0.2-0.51,0.22c-0.61-0.13-1.26-0.08-1.86-0.28c-0.18-0.1-0.29-0.24-0.32-0.45
		C468.29,283.21,467.36,282.25,467.04,281.15z"/>
	<path style="fill-rule:evenodd;clip-rule:evenodd;fill:#272013;" d="M468.07,284.73c0.61,0.11,1.27-0.08,1.85,0.27
		c-0.02,0.62-0.53,0.46-0.87,0.56c-0.34,0.02-0.69,0.06-0.99,0.25c-0.15,0.11-0.24,0.26-0.3,0.43c-0.03,0.09-0.06,0.18-0.1,0.26
		c-0.06,0.14-0.14,0.26-0.23,0.37c-0.08,0.07-0.17,0.11-0.27,0.11c-0.15-0.07-0.25-0.16-0.14-0.34c0.02-0.15,0.04-0.3,0.07-0.46
		c0.07-0.09,0.13-0.18,0.18-0.28c0.02-0.15,0.03-0.29,0.05-0.44c0.08-0.09,0.16-0.17,0.18-0.29c-0.01-0.04-0.01-0.08,0-0.13
		c-0.05-0.11-0.04-0.21,0.02-0.31v0C467.69,284.62,467.88,284.64,468.07,284.73z"/>
	<path style="fill-rule:evenodd;clip-rule:evenodd;fill:#342721;" d="M467.01,286.65c0.09,0.09,0.17,0.18,0.26,0.27
		c0.25,0.56,0.18,1.01-0.46,1.24c-0.01-0.2-0.03-0.4-0.04-0.6C466.8,287.24,466.74,286.9,467.01,286.65z"/>
	<path style="fill-rule:evenodd;clip-rule:evenodd;fill:#342721;" d="M468.07,284.73c-0.19,0.01-0.38,0.01-0.57,0.02
		c0.09-0.08,0.17-0.17,0.26-0.25C467.86,284.57,467.97,284.65,468.07,284.73z"/>
	<path style="fill-rule:evenodd;clip-rule:evenodd;fill:#342721;" d="M467.5,284.74c-0.01,0.1-0.01,0.21-0.02,0.31
		C467.36,284.94,467.32,284.83,467.5,284.74z"/>
	<path style="fill-rule:evenodd;clip-rule:evenodd;fill:#342721;" d="M467.48,285.18c-0.06,0.1-0.12,0.2-0.18,0.3
		C467.37,285.38,467.42,285.28,467.48,285.18z"/>
	<path style="fill-rule:evenodd;clip-rule:evenodd;fill:#342721;" d="M467.26,285.92c-0.06,0.09-0.12,0.19-0.18,0.28
		C467.14,286.1,467.2,286.01,467.26,285.92z"/>
	<path style="fill-rule:evenodd;clip-rule:evenodd;fill:#C31725;" d="M470.4,284.97c-0.32-0.8-0.45-1.59,0.02-2.39
		c0.54,0.09,1.07,0.19,1.61,0.28c1.27,0.08,2.51,0.29,3.65,0.92c0.3,0.02,0.6,0.04,0.89,0.05c0.24,0.16,0.56,0,0.79,0.22
		c0.35,4.33,0.23,8.67,0.29,13c0.01,0.57-0.11,0.94-0.75,0.94c-1.92,0.31-3.85,0.62-5.77,0.92c-0.16-1.41-0.3-2.81-0.48-4.21
		c-0.14-1.02,0.03-1.82,1.2-2.07c0.3-0.65,0.49-1.38,0.91-1.94c1.37-1.85,0.1-3.35-0.57-4.93c-0.12-0.29-0.43-0.33-0.72-0.32
		C471.11,285.26,470.54,285.58,470.4,284.97z"/>
	<path style="fill-rule:evenodd;clip-rule:evenodd;fill:#971D1B;" d="M469.92,299.36c0.09-0.06,0.19-0.12,0.28-0.18
		C470.11,299.24,470.01,299.3,469.92,299.36z"/>
	<path style="fill-rule:evenodd;clip-rule:evenodd;fill:#CA546A;" d="M468.47,276.65c0.41-0.16,0.82-0.32,1.23-0.48
		c1.33,0.51,1.76,1.77,2.34,2.88c0.33,0.63,0.51,1.34,0.68,2.03c0.12,0.5,0.03,0.95-0.46,1.24c-0.06,0.02-0.11,0.04-0.17,0.06
		c-0.48-0.18-0.97-0.35-1.45-0.53c-0.27-1.9-1.11-3.46-2.7-4.58c-0.13-0.09-0.22-0.23-0.17-0.41c0.13-0.02,0.26-0.04,0.39-0.06
		C468.29,276.8,468.37,276.7,468.47,276.65z"/>
	<path style="fill-rule:evenodd;clip-rule:evenodd;fill:#B7373E;" d="M465.11,278.26c0.56-0.31,1.13-0.63,1.69-0.95
		c1.74,0.59,2.51,2.07,3.22,3.59c0.13,0.28,0.03,0.55-0.31,0.65c-0.57-0.3-1.14-0.59-1.7-0.89c-0.69-0.83-1.43-1.59-2.53-1.89
		C465.25,278.71,465.01,278.58,465.11,278.26z"/>
	<path style="fill-rule:evenodd;clip-rule:evenodd;fill:#C44959;" d="M469.7,281.55c-0.07-1.61-1.11-2.64-2.21-3.63
		c-0.23-0.21-0.46-0.41-0.69-0.61l0,0c0.07-0.07,0.15-0.13,0.24-0.17c0.25-0.09,0.49-0.18,0.74-0.27c1.98,1.01,3.37,3.43,2.87,4.99
		C470.33,281.76,470.01,281.66,469.7,281.55z"/>
	<path style="fill-rule:evenodd;clip-rule:evenodd;fill:#AB292B;" d="M465.11,278.26c1.16,0.56,2.61,0.77,2.89,2.4
		c-0.08-0.01-0.17-0.03-0.25-0.04c-0.1-0.05-0.18-0.13-0.29-0.17c-0.89-0.02-1.65-0.41-2.44-0.76c-0.97-0.42-0.98-0.87-0.14-1.44
		C464.95,278.27,465.03,278.27,465.11,278.26z"/>
	<path style="fill-rule:evenodd;clip-rule:evenodd;fill:#29221F;" d="M475.68,283.77c-1.26-0.13-2.48-0.45-3.65-0.92
		c0.24-0.07,0.49-0.14,0.73-0.22c0.04-0.05,0.09-0.1,0.13-0.15c1.02-0.02,2.06-0.11,2.8,0.82
		C474.9,283.45,475.76,283.62,475.68,283.77z"/>
	<path style="fill-rule:evenodd;clip-rule:evenodd;fill:#29221F;" d="M472.76,282.64c-0.22-0.08-0.45-0.16-0.67-0.25l-0.02-0.09
		c0.31-0.08,0.66-0.26,0.74,0.28L472.76,282.64z"/>
	<path style="fill-rule:evenodd;clip-rule:evenodd;fill:#B7373E;" d="M467.45,280.45c0.1,0.06,0.19,0.11,0.29,0.17
		C467.65,280.56,467.55,280.51,467.45,280.45z"/>
	<path style="fill-rule:evenodd;clip-rule:evenodd;fill:#C31725;" d="M490.54,281.63c0.57,2.03,0.23,4.09,0.21,6.14
		c-0.02,1.94-0.34,3.87-0.41,5.8c-0.05,1.56-0.09,3.1-0.61,4.58c-0.14,0.39-0.06,0.7,0.1,1.02c-3.74-1.29-7.61-1.53-11.52-1.42
		c-0.05-0.91-0.43-1.85,0.24-2.7c0.55-0.3,1.08-0.02,1.62,0.05c-0.46-0.23-1.08-0.13-1.41-0.65c-0.79-0.05-0.65-0.67-0.66-1.15
		c-0.02-1.99,0.04-3.99-0.06-5.97c-0.04-0.93,0.25-1.17,1.12-1.16c0.58,0.01,1.67,0.28,1.65-0.33c-0.02-0.74-1.03-0.3-1.61-0.31
		c-0.62-0.02-1.25,0.09-1.33-0.78c-0.08-0.97,0.66-0.77,1.22-0.83c1.26-0.13,2.52-0.27,3.79-0.41c0.49,0.11,0.29,0.47,0.24,0.73
		c-0.08,0.43-0.36,0.79-0.49,1.2c-0.16,0.52,0.29-0.04,0.35,0.16c0.11,0.03,0.2,0.09,0.26,0.19c0.06,0.11,0.08,0.22,0.09,0.34
		c0.01,0.16,0,0.32-0.01,0.48c0.04-0.12,0.02-0.25,0.03-0.38c0.04-0.96-0.39-1.93,0.07-2.88c2.19-0.29,4.33-0.78,6.42-1.47
		c0.12-0.15,0.32-0.09,0.46-0.2C490.38,281.66,490.46,281.64,490.54,281.63z"/>
	<path style="fill-rule:evenodd;clip-rule:evenodd;fill:#CE5F78;" d="M477.83,274.66c2.81-0.27,5.63-0.39,8.43,0.03
		c1.29,0.19,2.55,0.51,3.82,0.78c0.16,0.06,0.34,0.05,0.49,0.16l0,0c0.2,0.46-0.05,0.85-0.18,1.26c-0.44,1.41-0.68,2.84-0.51,4.31
		l-0.01-0.01c-0.09,0.05-0.18,0.1-0.27,0.16c-3.52,1.19-7.13,1.91-10.85,2.03c-0.63,0.02-0.99-0.15-0.91-0.87
		c0.05-0.43-0.02-0.88-0.02-1.31c0-0.88-0.25-1.88,0.1-2.59c0.36-0.75,1.48-0.36,2.26-0.55c0.29-0.07,0.76-0.15,0.67-0.52
		c-0.09-0.34-0.48-0.02-0.73-0.01C477.6,277.62,477.59,277.62,477.83,274.66z"/>
	<path style="fill-rule:evenodd;clip-rule:evenodd;fill:#CE5F78;" d="M472.81,282.58c-0.25-0.09-0.49-0.18-0.74-0.28
		c1.02-1.41-0.2-2.5-0.6-3.67c-0.32-0.95-1.06-1.72-1.78-2.46c0.14-0.02,0.27-0.05,0.41-0.07c0.09-0.05,0.19-0.11,0.28-0.16
		c1.87-0.34,3.74-0.7,5.62-1.01c0.42-0.07,0.86,0.04,1.29,0.07c0.01,2.76,0.03,5.52,0.04,8.28c-0.46,0.29-0.94,0.17-1.42,0.08
		c-0.07-0.04-0.15-0.06-0.23-0.04C474.73,283.07,473.77,282.82,472.81,282.58z"/>
	<path style="fill-rule:evenodd;clip-rule:evenodd;fill:#C85065;" d="M489.88,281.2c-1.07-1.41-0.11-2.78,0.12-4.15
		c0.08-0.49,0.38-0.95,0.58-1.42c0.47,0.19,0.93,0.37,1.4,0.56c-0.26,1.51-0.6,3-0.93,4.5v0c-0.07,0.07-0.15,0.12-0.23,0.17
		C490.5,280.97,490.19,281.08,489.88,281.2z"/>
	<path style="fill-rule:evenodd;clip-rule:evenodd;fill:#BF404C;" d="M491.04,280.68c-0.24-1.61,0.16-3.09,0.93-4.5
		c0.33,0.14,0.66,0.27,1,0.41c0.05,1.17-0.34,2.25-0.73,3.32C491.84,280.18,491.59,280.66,491.04,280.68z"/>
	<path style="fill-rule:evenodd;clip-rule:evenodd;fill:#B02D30;" d="M492.24,279.92c-0.15-1.19,0.23-2.27,0.73-3.32
		c0.16,0,0.32,0,0.48,0l0,0c0.12,0.16,0.35,0.1,0.47,0.24l0,0c0.07,0.08,0.16,0.15,0.25,0.22l0.02,0.02
		c0.06,0.09,0.13,0.17,0.21,0.24C494.23,278.65,493.37,279.4,492.24,279.92z"/>
	<path style="fill-rule:evenodd;clip-rule:evenodd;fill:#1E1912;" d="M482.82,285.73c-0.28,0.24-0.31,0.98-0.71,0.77
		c-0.44-0.22,0.1-0.67,0.2-1.02c0.19-0.66,0.83-1.17,0.59-1.96c0.18-0.05,0.36-0.11,0.53-0.16c0.32,1.24,0.12,2.5,0.15,3.76
		c0.01,0.3,0.12,0.73-0.36,0.7c-0.46-0.03-0.31-0.47-0.29-0.76c0.03-0.43,0.1-0.86,0.15-1.29c-0.06-0.08-0.05-0.2-0.12-0.28
		C482.97,285.61,482.91,285.67,482.82,285.73z"/>
	<path style="fill-rule:evenodd;clip-rule:evenodd;fill:#24241D;" d="M478.52,268.7c-0.99-0.16-1.23,0.34-1.15,1.22
		c0.09,0.95,0.13,1.9,0.19,2.85c-0.44,0.39,0.06,1.05-0.4,1.44c-0.09-1.5-0.14-3.01-0.27-4.51c-0.09-1.12-0.09-2.05,1.48-1.45
		c0.29,0.11,0.6,0.15,0.91,0.22C479.17,269.03,478.81,268.75,478.52,268.7z"/>
	<path style="fill-rule:evenodd;clip-rule:evenodd;fill:#1C1710;" d="M478.76,294.45c0.62,0.11,1.25,0.23,1.87,0.34
		c0.2,0.03,0.55-0.18,0.49,0.25c-0.04,0.26-0.22,0.52-0.59,0.44c-0.66-0.15-1.32-0.28-1.97-0.42
		C478.31,294.74,478.56,294.6,478.76,294.45z"/>
	<path style="fill-rule:evenodd;clip-rule:evenodd;fill:#29221F;" d="M475.92,283.36c0.47-0.03,0.95-0.05,1.42-0.08
		C476.9,283.74,476.42,283.64,475.92,283.36z"/>
	<path style="fill-rule:evenodd;clip-rule:evenodd;fill:#29221F;" d="M477.36,284.05c-0.26-0.07-0.52-0.15-0.79-0.22
		C476.86,283.81,477.16,283.74,477.36,284.05z"/>
	<path style="fill-rule:evenodd;clip-rule:evenodd;fill:#26231F;" d="M493.92,276.84c-0.16-0.08-0.32-0.16-0.47-0.24
		C493.6,276.68,493.76,276.76,493.92,276.84z"/>
	<path style="fill-rule:evenodd;clip-rule:evenodd;fill:#B71820;" d="M490.31,281.68c-0.15,0.07-0.31,0.13-0.46,0.2
		C490,281.81,490.16,281.75,490.31,281.68z"/>
	<path style="fill-rule:evenodd;clip-rule:evenodd;fill:#9D1C1C;" d="M492.47,280.51c-0.08,0.06-0.16,0.11-0.24,0.17
		C492.32,280.62,492.4,280.56,492.47,280.51z"/>
	<path style="fill-rule:evenodd;clip-rule:evenodd;fill:#26231F;" d="M494.17,277.06c-0.08-0.07-0.16-0.14-0.25-0.22
		C494,276.91,494.08,276.98,494.17,277.06z"/>
	<path style="fill-rule:evenodd;clip-rule:evenodd;fill:#BF404C;" d="M490.81,280.85c0.08-0.06,0.16-0.11,0.23-0.17
		C490.97,280.74,490.89,280.8,490.81,280.85z"/>
	<path style="fill-rule:evenodd;clip-rule:evenodd;fill:#C85065;" d="M489.6,281.34c0.09-0.05,0.18-0.1,0.27-0.16
		C489.78,281.24,489.69,281.29,489.6,281.34z"/>
	<path style="fill-rule:evenodd;clip-rule:evenodd;fill:#26231F;" d="M494.39,277.32c-0.07-0.08-0.14-0.16-0.21-0.24
		C494.25,277.15,494.32,277.23,494.39,277.32z"/>
	<path style="fill-rule:evenodd;clip-rule:evenodd;fill:#CFE5F3;" d="M484.79,262.38c0.88,0.02,1.77,0.04,2.65,0.06
		c-0.56,1.01-0.09,2.03,0.01,3.04c0.29,2.99,0.63,5.98,0.95,8.96c-0.49-0.02-0.99,0.02-1.44-0.25c-0.41-0.32-0.55-0.76-0.58-1.26
		c-0.21-3.23-0.5-6.44-1.57-9.52c-0.1-0.3-0.16-0.62,0.01-0.93L484.79,262.38z"/>
	<path style="fill-rule:evenodd;clip-rule:evenodd;fill:#AED4E8;" d="M491.76,275.36c-0.1-0.06-0.19-0.12-0.29-0.18
		C491.56,275.24,491.66,275.3,491.76,275.36z"/>
	<path style="fill-rule:evenodd;clip-rule:evenodd;fill:#DFEEF7;" d="M484.82,262.48c1.35,3.14,1.61,6.49,1.91,9.84
		c0.05,0.63,0.15,1.25,0.23,1.87c-0.49-0.05-1,0.14-1.46-0.16c-0.36-2.97-0.54-5.96-1.63-8.8c-0.35-0.91-1.09-1.69-0.99-2.76
		C483.52,262.32,484.17,262.32,484.82,262.48z"/>
	<path style="fill-rule:evenodd;clip-rule:evenodd;fill:#C85065;" d="M490.57,275.63c-0.16-0.05-0.32-0.11-0.49-0.16
		C490.25,275.52,490.41,275.58,490.57,275.63z"/>
	<path style="fill-rule:evenodd;clip-rule:evenodd;fill:#B8D9EC;" d="M469.68,273.01c0.55,0.72-0.12,1.71,0.52,2.41
		c-0.72,0.24-1.44,0.48-2.16,0.71c-0.57,0.24-0.79-0.14-0.74-0.56c0.11-0.93-0.16-1.89,0.23-2.8c0.83-0.7,1.06-1.67,1.24-2.67
		c0.06,0,0.12,0,0.17,0c0.17,0.11,0.25,0.27,0.29,0.45c0.07,0.35,0.05,0.71,0.06,1.06C469.18,272.15,469.61,272.53,469.68,273.01z"
		/>
	<path style="fill-rule:evenodd;clip-rule:evenodd;fill:#A4CFE2;" d="M467.52,272.78c0.24,0.81,0.38,1.62,0.09,2.46
		c-0.15,0.42-0.14,0.8,0.43,0.9c-0.56,0.24-1.11,0.49-1.67,0.73c-0.41-1.45,0.11-2.81,0.39-4.2c0.01-0.22,0.02-0.43,0.03-0.65
		C467.15,272.16,467.07,272.73,467.52,272.78z"/>
	<path style="fill-rule:evenodd;clip-rule:evenodd;fill:#D1E6F3;" d="M471.6,275.12c0.22-0.25,0.51-0.2,0.79-0.17
		C472.17,275.19,471.89,275.16,471.6,275.12z"/>
	<path style="fill-rule:evenodd;clip-rule:evenodd;fill:#B7373E;" d="M467.03,277.15c-0.08,0.06-0.16,0.12-0.24,0.17
		C466.88,277.26,466.95,277.2,467.03,277.15z"/>
	<path style="fill-rule:evenodd;clip-rule:evenodd;fill:#C44959;" d="M468.47,276.65c-0.1,0.05-0.21,0.11-0.31,0.16
		C468.27,276.76,468.37,276.71,468.47,276.65z"/>
	<path style="fill-rule:evenodd;clip-rule:evenodd;fill:#83BDD1;" d="M464.89,277.71c0.07-0.05,0.14-0.1,0.21-0.16
		C465.03,277.61,464.96,277.66,464.89,277.71z"/>
	<path style="fill-rule:evenodd;clip-rule:evenodd;fill:#CA546A;" d="M470.39,275.94c-0.09,0.05-0.19,0.11-0.28,0.16
		C470.2,276.05,470.3,275.99,470.39,275.94z"/>
	<path style="fill-rule:evenodd;clip-rule:evenodd;fill:#ACCBE0;" d="M467.4,270.85c0.09-0.31-0.19-0.99,0.39-1.16
		c0.36-0.11,0.5,0.44,0.43,0.8c-0.1,0.51-0.13,1.21-0.72,1.31C467.18,271.85,467.37,271.29,467.4,270.85z"/>
	<path style="fill-rule:evenodd;clip-rule:evenodd;fill:#1F2018;" d="M472.51,272.42c-0.06,0.11-0.13,0.22-0.19,0.34
		c-0.17,0.13-0.33,0.15-0.46-0.05c0-0.44,0.01-0.89,0.01-1.33c0.15-0.7,0.56-0.85,1.17-0.53c0.09,0.12,0.19,0.36,0.28,0.35
		c0.52-0.04,1.13,0.76,0.94,1.3c-0.03,0.09-0.14,0.21-0.21,0.2c-0.09-0.01-0.24-0.13-0.23-0.2c0.1-0.9-1.14-0.02-1.09-0.82
		C472.65,271.93,472.58,272.18,472.51,272.42z"/>
	<path style="fill-rule:evenodd;clip-rule:evenodd;fill:#2E2F29;" d="M475.22,270.65c0.46,0.56-0.64,1.64,0.64,1.96
		c0.06,0.01-0.23,0.34-0.43,0.45c-0.39,0.21-0.53-0.02-0.53-0.34c0.01-0.86,0.06-1.73,0.09-2.59
		C475.44,270.14,475.3,270.41,475.22,270.65z"/>
	<path style="fill-rule:evenodd;clip-rule:evenodd;fill:#31312D;" d="M478.52,268.7c0.26-0.05,0.56,0.04,0.75-0.23
		c0.2,0,0.43-0.08,0.59,0c0.43,0.22,1.2-0.66,1.24,0.16c0.03,0.58-0.87,0.23-1.33,0.31C479.37,269,478.89,269.02,478.52,268.7z"/>
	<path style="fill-rule:evenodd;clip-rule:evenodd;fill:#484948;" d="M475.22,270.65c-0.08-0.17-0.15-0.34-0.23-0.51
		c-0.01-0.56-0.23-1.14,0.15-1.66c0.58,0.46,0.15,1.1,0.26,1.64C475.44,270.27,475.29,270.47,475.22,270.65z"/>
	<path style="fill-rule:evenodd;clip-rule:evenodd;fill:#D1E6F3;" d="M473.03,270.85c-0.53-0.13-1-0.12-1.17,0.53
		c-0.13-1.04,0.65-0.73,1.18-0.79C473.04,270.68,473.04,270.77,473.03,270.85z"/>
	<path style="fill-rule:evenodd;clip-rule:evenodd;fill:#161711;" d="M468.98,271.79c0-0.4,0.01-0.8,0.01-1.2
		c0.16-0.23,0.02-0.53,0.18-0.77c0.08-0.82,0.08-1.71,1.21-1.85l-0.01-0.01c0.1,0.06,0.18,0.15,0.27,0.22
		c0.09,0.29,0.18,0.58,0.28,0.86c0.06,0.28,0.16,0.57-0.04,0.84c-1.13-0.51-0.9,0.59-1.22,1.04
		C469.45,271.23,469.56,271.78,468.98,271.79z"/>
	<path style="fill-rule:evenodd;clip-rule:evenodd;fill:#252623;" d="M469.17,269.83c0.03,0.28,0.06,0.55-0.18,0.77
		c-0.02-0.16-0.04-0.32-0.06-0.48C469.01,270.02,469.09,269.92,469.17,269.83z"/>
	<path style="fill-rule:evenodd;clip-rule:evenodd;fill:#D1E6F3;" d="M471.85,272.71c0.15,0.02,0.31,0.03,0.46,0.05
		C472.14,273.01,471.98,273.01,471.85,272.71z"/>
	<path style="fill-rule:evenodd;clip-rule:evenodd;fill:#252623;" d="M468.98,271.79c0.14-0.32,0.27-0.64,0.41-0.96
		c0.38,0.53,0.7,0.73,0.88-0.14c0.06-0.3,0.09-0.63,0.4-0.82c0.08-0.27,0.17-0.55,0.25-0.82c0.5,1.6,0,2.9-1.24,3.96
		C469.05,272.83,468.92,272.37,468.98,271.79z"/>
	<path style="fill-rule:evenodd;clip-rule:evenodd;fill:#BCDCEF;" d="M470.64,268.19c-0.09-0.07-0.18-0.14-0.27-0.22
		C470.46,268.05,470.55,268.12,470.64,268.19z"/>
	<path style="fill-rule:evenodd;clip-rule:evenodd;fill:#F8DD0F;" d="M466.81,288.16c0.15-0.41,0.31-0.82,0.46-1.24l0.01-0.01
		c0.15-0.12,0.1-0.33,0.2-0.47c0.04-0.06,0.06-0.13,0.05-0.2c0.12-0.15,0.08-0.37,0.2-0.52c0.3-0.15,0.59-0.3,0.89-0.45
		c0.71,0.33,1.62-0.3,2.24,0.47l0,0c0.2,0.21,0.55-0.01,0.72,0.26c1.14,1.77,1.57,3.53,0.15,5.41c-0.3,0.4-0.52,0.59-1,0.6
		C468.62,292.02,466.89,290.34,466.81,288.16z"/>
	<path style="fill-rule:evenodd;clip-rule:evenodd;fill:#2B261F;" d="M470.86,285.73c-0.75-0.16-1.49-0.31-2.24-0.47
		c0.43-0.1,0.93,0.14,1.29-0.27c0.16-0.01,0.32-0.02,0.49-0.03c0.35,0.16,0.69,0.32,1.04,0.48
		C471.25,285.54,471.06,285.64,470.86,285.73z"/>
	<path style="fill-rule:evenodd;clip-rule:evenodd;fill:#2B261F;" d="M471.59,286c-0.24-0.09-0.48-0.17-0.72-0.26
		C471.14,285.71,471.43,285.69,471.59,286z"/>
	<path style="fill-rule:evenodd;clip-rule:evenodd;fill:#342721;" d="M467.74,285.71c-0.07,0.17-0.14,0.35-0.2,0.52
		C467.6,286.06,467.67,285.89,467.74,285.71z"/>
	<path style="fill-rule:evenodd;clip-rule:evenodd;fill:#342721;" d="M467.48,286.44c-0.07,0.16-0.14,0.32-0.2,0.47
		C467.35,286.75,467.42,286.59,467.48,286.44z"/>
	<path style="fill-rule:evenodd;clip-rule:evenodd;fill:#1E160F;" d="M485,293.33c-0.07,0.06-0.15,0.19-0.23,0.2
		c-1.54,0.05-1.34,0.46-0.33,1.24c0.54,0.42-0.01,2.15-0.67,2.39c-0.31,0.11-0.47-0.05-0.56-0.28c-0.09-0.23-0.27-0.55,0.3-0.47
		c0.56,0.08,0.59-0.47,0.64-0.83c0.07-0.52-0.25-0.62-0.75-0.63c-0.81-0.02-0.36-0.75-0.46-1.12c-0.15-0.55,0.35-0.79,0.86-0.93
		c0.41-0.12,0.78-0.19,1.08,0.2C484.93,293.15,484.95,293.23,485,293.33z"/>
	<path style="fill-rule:evenodd;clip-rule:evenodd;fill:#251D18;" d="M490.07,284.02c0,0.32,0,0.64-0.01,0.97
		c-0.12,0.14-0.09,0.33-0.17,0.48c-0.02,0.16-0.04,0.33-0.06,0.49c-0.07,0.07-0.12,0.14-0.15,0.23c-0.03,0.08-0.06,0.17-0.09,0.25
		c-0.07,0.07-0.12,0.15-0.17,0.23c-0.24,0.29-0.52,0.61-0.87,0.22c-0.59-0.66-0.77-1.54-0.57-2.33c0.18-0.72,0.53-1.54,1.58-1.45
		c0.11,0.05,0.19,0.13,0.25,0.24c0.03,0.08,0.05,0.15,0.08,0.23C489.96,283.72,489.94,283.9,490.07,284.02z"/>
	<path style="fill-rule:evenodd;clip-rule:evenodd;fill:#1D140E;" d="M484.82,286.9c-0.47-1.04-0.06-2,0.48-2.79
		c0.6-0.87,1.03-0.07,1.42,0.4c0.16,0.22,0.13,0.41-0.1,0.56c-0.96-0.07-0.94,0.79-1.26,1.33
		C485.24,286.64,485.22,286.98,484.82,286.9z"/>
	<path style="fill-rule:evenodd;clip-rule:evenodd;fill:#29201C;" d="M487.67,293.17c0.59,1.08,0.3,2.73-0.64,3.39
		c-0.61,0.42-0.96,0.19-1.06-0.51c0.13-0.49-0.19-1.08,0.32-1.49c0.42-0.1,0.38,0.66,0.65,0.47c0.42-0.28,0.29-0.86,0.35-1.32
		C487.35,293.48,487.46,293.28,487.67,293.17z"/>
	<path style="fill-rule:evenodd;clip-rule:evenodd;fill:#221510;" d="M487.67,293.17c-0.08,0.16-0.16,0.32-0.24,0.47
		c-0.42,0.23-0.61,0.68-0.99,0.96c-0.45,0.39,0.06,1.09-0.47,1.45c-0.42-0.94-0.14-1.9,0.13-2.76
		C486.38,292.38,487.09,292.6,487.67,293.17z"/>
	<path style="fill-rule:evenodd;clip-rule:evenodd;fill:#2B201C;" d="M484.82,286.9c0.08-0.25,0.17-0.5,0.25-0.75
		c1.04,0.32,0.93-0.8,1.43-1.16c0.08-0.16,0.15-0.33,0.23-0.49c0.62,1.27-0.19,2.11-0.98,2.87
		C485.26,287.85,484.88,287.55,484.82,286.9z"/>
	<path style="fill-rule:evenodd;clip-rule:evenodd;fill:#B71820;" d="M489.89,285.46c0.06-0.16,0.11-0.32,0.17-0.48
		C490,285.15,489.95,285.31,489.89,285.46z"/>
	<path style="fill-rule:evenodd;clip-rule:evenodd;fill:#779FA7;" d="M482.82,285.73c0.07-0.13,0.13-0.25,0.2-0.38
		c0.02,0.14,0.04,0.28,0.07,0.41C482.99,285.75,482.91,285.74,482.82,285.73z"/>
	<path style="fill-rule:evenodd;clip-rule:evenodd;fill:#B71820;" d="M490.07,284.02c-0.06-0.15-0.12-0.3-0.18-0.45
		C489.95,283.72,490.01,283.87,490.07,284.02z"/>
	<path style="fill-rule:evenodd;clip-rule:evenodd;fill:#B71820;" d="M489.68,286.18c0.05-0.08,0.1-0.15,0.15-0.23
		C489.78,286.03,489.73,286.1,489.68,286.18z"/>
	<path style="fill-rule:evenodd;clip-rule:evenodd;fill:#B71820;" d="M489.42,286.67c0.06-0.08,0.11-0.16,0.17-0.23
		C489.53,286.51,489.48,286.59,489.42,286.67z"/>
	<path style="fill-rule:evenodd;clip-rule:evenodd;fill:#B71820;" d="M489.81,283.34c-0.08-0.08-0.17-0.16-0.25-0.24
		C489.65,283.18,489.73,283.26,489.81,283.34z"/>
	<path style="fill-rule:evenodd;clip-rule:evenodd;fill:#1E1912;" d="M484.35,279c0.3-0.27,0.43-0.69,0.22-0.96
		c-0.3-0.4-0.48,0.19-0.74,0.25c-0.2,0.05-0.59,0.34-0.57,0.06c0.04-0.69,0.18-1.44,0.51-2.04c0.23-0.43,0.89-0.49,1.42-0.35
		c0.21,0.05,0.52,0.12,0.47,0.42c-0.01,0.08-0.32,0.16-0.49,0.17c-0.42,0.03-0.95,0.12-1.04,0.45c-0.16,0.56,0.49,0.1,0.72,0.39
		c0.41,0.5,0.27,2.16-0.34,2.39c-0.53,0.2-0.81,0.04-0.43-0.55C484.16,279.15,484.26,279.08,484.35,279z"/>
	<path style="fill-rule:evenodd;clip-rule:evenodd;fill:#1E1813;" d="M487.95,277.62c-0.17,0.75-0.11,1.98-1.09,2.01
		c-1.02,0.03-0.72-1.25-0.81-1.93c-0.09-0.64,0.13-1.61,0.95-1.66C487.85,275.98,487.89,276.86,487.95,277.62z"/>
	<path style="fill-rule:evenodd;clip-rule:evenodd;fill:#1C1912;" d="M482.49,277.95c-0.31,0.46,0.31,1.44-0.28,1.43
		c-0.6-0.01-0.26-1-0.25-1.54c0.01-0.62-0.33-1.3,0.21-1.86C482.69,276.56,482.23,277.28,482.49,277.95z"/>
	<path style="fill-rule:evenodd;clip-rule:evenodd;fill:#CFAFB7;" d="M484.35,279c-0.09,0.08-0.19,0.16-0.28,0.23
		C484.16,279.15,484.26,279.08,484.35,279z"/>
	<path style="fill-rule:evenodd;clip-rule:evenodd;fill:#B7D6EB;" d="M470.67,269.88c-0.05,0.35-0.03,0.73-0.15,1.05
		c-0.19,0.49-0.22,1.34-0.82,1.26c-0.52-0.07-0.18-0.88-0.3-1.35c0.11-0.34,0.16-0.71,0.33-1.01c0.2-0.35-0.02-1.07,0.46-1.05
		C470.61,268.79,470.56,269.47,470.67,269.88z"/>
	<path style="fill-rule:evenodd;clip-rule:evenodd;fill:#B61F28;" d="M488.4,285.33c0.08-0.66,0.05-1.32,0.71-1.48
		c0.52-0.12,0.5,0.4,0.46,0.74c-0.08,0.62-0.09,1.44-0.67,1.65C488.49,286.39,488.58,285.59,488.4,285.33z"/>
	<path style="fill-rule:evenodd;clip-rule:evenodd;fill:#B91E28;" d="M486.5,285c0.03,0.49-0.11,0.92-0.41,1.31
		c-0.16,0.21-0.21,0.57-0.53,0.56c-0.42-0.01-0.25-0.52-0.48-0.71c0.19-0.32,0.4-0.6,0.47-1.02
		C485.67,284.37,486.08,284.34,486.5,285z"/>
	<path style="fill-rule:evenodd;clip-rule:evenodd;fill:#BE1C28;" d="M486.45,294.6c0.23-0.43-0.18-1.5,0.99-0.96
		c0.17,0.32,0.3,0.64,0.12,1.01c-0.23,0.48-0.32,1.28-0.9,1.21C486.24,295.82,486.54,295.04,486.45,294.6z"/>
	<path style="fill-rule:evenodd;clip-rule:evenodd;fill:#A25063;" d="M487.52,277.61c-0.05,0.54-0.04,1.24-0.62,1.41
		c-0.37,0.11-0.38-0.52-0.35-0.84c0.05-0.53-0.09-1.26,0.55-1.43C487.49,276.66,487.48,277.25,487.52,277.61z"/>
</g>
</svg>
