<?xml version="1.0" encoding="utf-8"?>
<!-- Generator: Adobe Illustrator 16.0.0, SVG Export Plug-In . SVG Version: 6.00 Build 0)  -->
<!DOCTYPE svg PUBLIC "-//W3C//DTD SVG 1.0//EN" "http://www.w3.org/TR/2001/REC-SVG-20010904/DTD/svg10.dtd" [
	<!ENTITY ns_flows "http://ns.adobe.com/Flows/1.0/">
	<!ENTITY ns_extend "http://ns.adobe.com/Extensibility/1.0/">
	<!ENTITY ns_ai "http://ns.adobe.com/AdobeIllustrator/10.0/">
	<!ENTITY ns_graphs "http://ns.adobe.com/Graphs/1.0/">
]>
<svg version="1.0" id="Layer_1" xmlns:x="&ns_extend;" xmlns:i="&ns_ai;" xmlns:graph="&ns_graphs;"
	 xmlns="http://www.w3.org/2000/svg" xmlns:xlink="http://www.w3.org/1999/xlink" xmlns:a="http://ns.adobe.com/AdobeSVGViewerExtensions/3.0/"
	 x="0px" y="0px" width="960px" height="560px" viewBox="0 0 960 560" style="enable-background:new 0 0 960 560;"
	 xml:space="preserve">
<g>
	<path style="fill-rule:evenodd;clip-rule:evenodd;fill:#641E17;" d="M449.56,258.58c2.8,0.32,5.59,0.72,8.32,1.4
		c1.82,0.54,3.73,0.68,5.58,1.04c0.9,0.18,1.45,0.63,1.63,1.5c0.09,0.45,0.16,0.98-0.48,1.17c-0.84-0.77-1.9-0.99-2.97-1.13
		c-3.48-0.48-6.93-1.16-10.42-1.55c-0.46-0.58-1.03-0.97-1.8-1.05c-1.5-0.24-2.98-0.47-4.47-0.71c-0.76-0.12-1.5-0.1-2.24,0.12
		c-0.57,0.02-1.16,0.09-1.47-0.56c0.34-0.86,1.01-1.11,1.88-1.07c1.46,0.05,2.91,0.25,4.33,0.56
		C448.17,258.46,448.88,258.37,449.56,258.58z"/>
	<path style="fill-rule:evenodd;clip-rule:evenodd;fill:#376D3A;" d="M518.02,276.11c0.1,0.08,0.19,0.16,0.29,0.25
		c-0.04,0.18-0.06,0.36-0.16,0.52c-0.4,0.5-0.88,0.7-1.5,0.45c-0.83-0.68-1.86-0.43-2.77-0.49c-1.88-0.12-3.79-0.6-5.66,0.15
		c-0.93,0.35-1.91,0.33-2.85,0.22c-2.35-0.3-4.7-0.15-7.06-0.21c-1.27-0.04-2.55-0.09-3.76-0.59c-0.05-1.07,0.47-1.63,1.56-1.71
		c1.15-0.08,2.28,0.2,3.43,0.12c0.43-0.03,0.87,0.05,1.3-0.06c0.23-0.02,0.46-0.04,0.7-0.06c0.39-0.09,0.78-0.09,1.18-0.02
		c0.14,0.02,0.27,0.06,0.4,0.1c2.32-0.04,4.62,0.22,6.92,0.34c2.14,0.11,4.29,0.06,6.42,0.43
		C517.04,275.63,517.48,276,518.02,276.11z"/>
	<path style="fill-rule:evenodd;clip-rule:evenodd;fill:#621E17;" d="M458.56,267.01c-4.71-0.54-9.44-0.99-14.07-2.04
		c-0.86-0.19-1.71-0.39-2.57-0.56c-0.57-0.12-1.08-0.3-1.33-0.89c-0.16-0.66-0.65-1.41,0.46-1.73c0.86,0.06,1.74,0.07,2.45,0.67
		c-0.06,0.46-0.01,0.82,0.57,0.94c0.39,0.08,0.77,0.19,1.16,0.32c1.61,0.15,3.16,0.61,4.78,0.63c3.81,0.86,7.68,1.34,11.54,1.85
		c0.74,0.1,1.42,0.26,1.68,1.1c-0.45,0.64-0.99,0.17-1.5,0.12C460.66,267.31,459.61,267.13,458.56,267.01z"/>
	<path style="fill-rule:evenodd;clip-rule:evenodd;fill:#CE6421;" d="M475.65,293.77c0.3-0.1,0.59-0.19,0.89-0.29
		c0.36,0.13,0.65-0.08,0.96-0.2c1.04-0.19,2.03-0.53,3.03-0.83c0.18-0.03,0.35-0.09,0.52-0.14c1-0.31,2.01-0.53,3.04-0.69
		c0.32,0.01,0.61-0.12,0.93-0.13c0.45-0.01,0.89-0.01,1.34,0.01c0.89,0.18,1.81,0.31,2.08,1.41c-0.86,0.91-1.47,0.91-3.08,0.01
		c-0.45-0.46-0.99-0.4-1.56-0.26c-1.44,0.34-2.87,0.71-4.27,1.16c-0.43,0.19-0.66,0.57-0.87,0.97c-0.08,0.09-0.17,0.16-0.28,0.2
		c-2.8,0.77-5.51,1.83-8.31,2.59c-0.38,0.1-0.75,0.27-1.16,0.29c-0.7-0.29-1.63-0.32-1.67-1.4c1.56-0.51,3.19-0.82,4.71-1.44
		c0.29-0.07,0.54-0.28,0.85-0.3C473.8,294.53,474.77,294.28,475.65,293.77z"/>
	<path style="fill-rule:evenodd;clip-rule:evenodd;fill:#CD6522;" d="M479.9,300.65c-0.26,0.07-0.51,0.14-0.77,0.2
		c-0.29,0.1-0.6,0.11-0.86,0.3c-1.07,0.26-2.09,0.7-3.15,1c-0.8,0.1-1.51,0.66-2.36,0.43c-0.32-0.64,0.19-0.85,0.58-1.07
		c2.12-1.19,4.37-2.04,6.72-2.61c2.36-0.12,4.39-1.26,6.52-2.12c0.41-0.16,0.5-0.6,0.77-0.89c0.53-0.42,1.05-0.81,1.76-0.39
		c0.12,0.19,0.09,0.37-0.03,0.55l0.01-0.01c-0.26,0.33-0.53,0.64-0.85,0.92c-0.1,0.12-0.26,0.17-0.36,0.29l0.01-0.01
		c-0.19,0.1-0.37,0.22-0.55,0.33c-0.63,0.28-1.24,0.6-1.87,0.88l0.01-0.01c-0.15,0.12-0.37,0.08-0.5,0.25l0.01-0.01
		c-0.63,0.28-1.33,0.38-1.93,0.73l0.01-0.01c-0.21,0.14-0.49,0.09-0.68,0.27c-0.17,0.1-0.4,0.03-0.54,0.22l0.02-0.01
		c-0.49,0.21-1.01,0.31-1.48,0.53C480.25,300.52,479.99,300.37,479.9,300.65z"/>
	<path style="fill-rule:evenodd;clip-rule:evenodd;fill:#4A3E3C;" d="M457.65,283.6c4.67-0.04,9.33-0.05,14-0.12
		c8.29-0.13,16.58-0.08,24.87,0.1c0.06,0.17,0.02,0.3-0.14,0.39c-0.55,0.3-1.16,0.24-1.76,0.24c-11.64-0.01-23.28,0.04-34.92,0
		c-0.15,0-0.29-0.01-0.44-0.03c-0.21,0.01-0.43,0-0.64-0.02C458.26,284.05,457.74,284.19,457.65,283.6z"/>
	<path style="fill-rule:evenodd;clip-rule:evenodd;fill:#425341;" d="M477.91,274.16c0.52,0.02,1.04,0.04,1.57,0.07
		c0.06,0.16,0.02,0.29-0.13,0.38c-1.69,0.42-3.42,0.24-5.12,0.15c-4.03-0.19-8.06-0.21-12.08-0.41c-5.22-0.25-10.45-0.22-15.66-0.52
		c-0.36-0.03-0.71-0.19-1.08-0.2c-0.11,0.01-0.22,0.01-0.33,0c-0.17-0.03-0.3-0.13-0.4-0.26c-0.05-0.1-0.04-0.2,0.02-0.29
		c6.33,0.22,12.67,0.21,19,0.58c3.5,0.2,7.01,0.23,10.52,0.34C475.43,274.24,476.68,273.93,477.91,274.16z"/>
	<path style="fill-rule:evenodd;clip-rule:evenodd;fill:#3B312D;" d="M518.02,276.11c-4.8-0.67-9.65-0.74-14.48-0.95
		c-0.28-0.01-0.57,0.02-0.76-0.24c-0.04-0.16-0.21-0.12-0.3-0.2c-0.04-0.09-0.04-0.18-0.01-0.28c0.06-0.08,0.14-0.14,0.23-0.18
		c0.26-0.08,0.51-0.06,0.77,0c0.16,0.03,0.31,0.07,0.47,0.11c0.22,0.04,0.44,0.08,0.66,0.13c0.41,0.13,0.82,0.08,1.24,0.07
		c0.65-0.01,1.29,0.02,1.94,0.02c0.4,0,0.79,0,1.19,0.04c0.68,0.24,1.39,0.2,2.09,0.2c0.24,0,0.48,0,0.71,0
		c1.35-0.07,1.19-1.08,1.21-1.97c0.01-0.28-0.11-0.54-0.15-0.81c-0.04-0.22-0.06-0.44-0.08-0.66c-0.17-0.92-1.3-0.43-1.64-1.1
		c0.06-0.19,0.15-0.3,0.36-0.18c1.02,0.17,2.04,0.35,3.05,0.52c0.08,0.09,0.15,0.19,0.22,0.29c0.3,0.76,0.09,1.54,0.11,2.31
		c-0.01,0.45-0.17,0.89-0.23,1.33c0.23,0.98,1.06,0.36,1.57,0.57c0.28,0.03,0.55,0.1,0.81,0.22c0.15,0.08,0.28,0.19,0.4,0.32
		C517.6,275.8,517.81,275.95,518.02,276.11z"/>
	<path style="fill-rule:evenodd;clip-rule:evenodd;fill:#394236;" d="M500.84,274.74c-1.44,0.42-2.9,0.15-4.35,0.15
		c-1.1,0-1.74,0.36-1.86,1.49c0.61,0.91,0.27,1.92,0.31,2.89c0,0.19,0,0.39,0.02,0.59c0.1,0.54,0.54,0.62,0.96,0.69
		c0.65,0.11,1.31,0.19,1.97,0.3c0.33,0.05,0.86-0.02,0.77,0.61c-0.26,0.07-0.51,0.09-0.75-0.04c-3.19-0.18-6.37-0.36-9.56-0.54
		c-0.06-0.15-0.03-0.26,0.1-0.35c1.32-0.46,2.69-0.22,4.04-0.2c1.01,0.02,1.42-0.29,1.27-1.28c-0.03-0.72-0.04-1.44,0.05-2.15
		c0.03-0.28,0.2-0.55,0.1-0.85c-0.07-0.09-0.14-0.17-0.24-0.23c-1.16-0.1-2.31-0.22-3.45-0.34c-0.44-0.05-1.12,0.2-1.12-0.65
		c0.41-0.05,0.82-0.11,1.22,0.05c0.93,0.06,1.87,0.12,2.8,0.19c0.77,0.06,1.52,0.09,2.16-0.45c0.3-0.16,0.64-0.02,0.94-0.13
		c0.11,0,0.22,0,0.33,0.01c0.46,0.13,0.95-0.07,1.41,0.13C498.93,274.68,499.89,274.71,500.84,274.74z"/>
	<path style="fill-rule:evenodd;clip-rule:evenodd;fill:#584944;" d="M489.93,289.84c-0.25,0-0.5,0-0.75,0
		c-0.13,0.06-0.26,0.06-0.39-0.01c-0.1,0-0.2,0-0.29,0.01c-0.72,0.14-1.44,0.14-2.16,0l0,0c-0.72,0.14-1.44,0.14-2.17,0l0.01,0
		c-1.49,0.19-2.99,0.04-4.49,0.08c-0.25,0.01-0.49-0.03-0.44-0.38c0.38-0.37,0.87-0.38,1.35-0.38c9.06-0.01,18.13-0.03,27.19,0.01
		c0.24,0,0.48,0.03,0.71,0.07c1.21,0.39,2.47,0.19,3.7,0.23c0.25,0,0.5,0,0.75-0.07c0.18-0.03,0.36-0.02,0.53,0.04
		c0.11,0.06,0.18,0.15,0.21,0.26c0.01,0.12-0.04,0.22-0.12,0.31c-5.24-0.06-10.47-0.11-15.71-0.17c-0.41,0.12-0.82,0.12-1.22,0
		c-0.07,0-0.14,0-0.21,0c-2.01,0.15-4.02,0.15-6.03,0l0.03,0.01C490.25,289.89,490.09,289.89,489.93,289.84z"/>
	<path style="fill-rule:evenodd;clip-rule:evenodd;fill:#38302C;" d="M467.23,296.55c0.57,0.38,1.14,0.76,1.71,1.14
		c0.21,0.04,0.37,0.17,0.5,0.33c0.07,0.08,0.12,0.16,0.17,0.25c0.08,0.13,0.17,0.26,0.26,0.38c0.1,0.13,0.19,0.26,0.27,0.4
		c0.14,0.26,0.23,0.53,0.27,0.82c0.05,0.61,0.04,1.21,0.02,1.82c-0.01,0.19-0.04,0.37-0.09,0.55c-0.13,0.35-0.23,0.73-0.64,0.87
		c-0.13,0.01-0.25-0.01-0.35-0.08c-0.16-0.2-0.18-0.44-0.16-0.68c0.52-1.66,0.25-3.1-1.2-4.2c-0.17-0.12-0.31-0.28-0.5-0.39
		c-0.69-0.29-1.14,0.02-1.48,0.59c-0.17,0.35-0.12,0.72-0.13,1.09c-0.01,0.54-0.01,1.09,0.14,1.61c0.07,0.31,0.19,0.59,0.42,0.82
		c0.4,0.5,0.91,0.86,1.44,1.21c0.19,0.19,0.48,0.34,0.3,0.69c-0.2,0.16-0.43,0.16-0.66,0.13c-0.17-0.03-0.33-0.11-0.49-0.17
		c-2.21-1.2-2.87-3.15-2.01-5.99c0.01-0.11-0.01-0.22-0.03-0.32c0.58-0.47,1.15-0.99,1.98-0.93
		C467.08,296.41,467.16,296.43,467.23,296.55z"/>
	<path style="fill-rule:evenodd;clip-rule:evenodd;fill:#54302D;" d="M491.48,272.71c-5.93-0.8-11.8-1.94-17.65-3.17
		c-2.76-0.58-5.6-0.72-8.33-1.5c0.06-0.13,0.15-0.23,0.29-0.28c0.92-0.22,1.83,0.03,2.72,0.18c3.58,0.57,7.13,1.29,10.69,2.02
		c2.85,0.59,5.73,0.99,8.6,1.51c1.2,0.33,2.52,0.2,3.64,0.87C491.53,272.45,491.54,272.57,491.48,272.71z"/>
	<path style="fill-rule:evenodd;clip-rule:evenodd;fill:#43302E;" d="M458.56,267.01c1.23-0.1,2.42,0.19,3.63,0.36
		c0.35,0.05,0.69,0.21,0.98-0.13c0.15-0.28,0.42-0.48,0.51-0.8c0.43-0.89,0.32-1.97,0.96-2.79c0.48-1.57,0.07-2.07-1.36-2.45
		c-1.78-0.48-3.71-0.27-5.38-1.21c2.02,0.33,4.09,0.5,6.04,1.06c1.1,0.32,2.08,1.12,3.31,1.18c0.05,0.2-0.07,0.31-0.22,0.39
		c-0.47,0.36-1.27-0.32-1.6,0.5c-0.01,0.67-0.03,1.34-0.27,1.97c-0.11,0.29-0.22,0.59-0.28,0.89c-0.02,0.09-0.05,0.19-0.08,0.28
		c-0.04,0.13-0.09,0.26-0.12,0.39c-0.03,0.17-0.05,0.34,0.06,0.5c0.3,0.25,0.87,0.21,0.85,0.79c-0.03,0.03-0.05,0.07-0.06,0.1
		C463.21,267.56,460.82,267.72,458.56,267.01z"/>
	<path style="fill-rule:evenodd;clip-rule:evenodd;fill:#403732;" d="M477.07,290c-7.21,0.02-14.43,0.04-21.64,0.03
		c-0.77,0-1.53-0.37-2.34-0.27c-0.1-0.31,0.17-0.45,0.29-0.65c0.16-0.24,0.26-0.54,0.6-0.59c0.42-0.17,0.16-0.77,0.6-0.93
		c0.12,0.02,0.22,0.08,0.3,0.17c0.24,0.38,0.28,0.85,0.61,1.19c0.69,0.57,1.52,0.45,2.3,0.45c5.91,0.02,11.81-0.01,17.72,0.02
		C476.05,289.58,476.78,289.22,477.07,290z"/>
	<path style="fill-rule:evenodd;clip-rule:evenodd;fill:#403533;" d="M441.08,261.96c-0.86,0.3-0.44,1.01-0.5,1.56
		c-0.32-0.52-0.64-1.03-0.95-1.55c-0.13-0.2,0.01-0.28,0.16-0.36c0.13-0.04,0.33,0.03,0.4-0.08c0.1-0.15-0.11-0.21-0.18-0.32
		c-0.08-0.14-0.1-0.29-0.07-0.44c0-0.19,0.27-0.27,0.21-0.46c-0.01-0.04-0.21,0.05-0.33,0.05c-0.17-0.05-0.29-0.13-0.18-0.33
		c1.34-1.23,2.26-3.13,4.71-2.45c1.69,0.47,3.51,0.48,5.22,0.99c-1.77,0.16-3.44-0.48-5.17-0.61c-1.14-0.08-2.33-0.42-3.05,0.89
		c0.1,0.39,0.14,0.8,0.25,1.19C441.65,260.75,441.75,261.46,441.08,261.96z"/>
	<path style="fill-rule:evenodd;clip-rule:evenodd;fill:#58413A;" d="M454.01,288.6c-0.13,0.24-0.27,0.49-0.4,0.73
		c-0.05-0.04-0.11-0.08-0.16-0.11c-0.08-0.11-0.14-0.23-0.18-0.35c-0.25-1.09-0.38-2.19-0.29-3.31c0.01-0.26,0.03-0.52,0.09-0.77
		c0.11-0.37,0.21-0.74,0.46-1.05c1.37-0.05,2.73-0.09,4.1-0.14c0.28,0.29,0.66,0.16,0.99,0.22c-0.17,0.62-0.7,0.53-1.15,0.57
		c-0.82,0.06-1.65-0.05-2.47,0.05c-0.51,0.24-0.39,0.66-0.29,1.07c0.09,0.36,0.08,0.73,0.11,1.1c0.02,0.15,0.04,0.31,0.06,0.46
		c0.02,0.16,0.02,0.31-0.05,0.46c-0.04,0.04-0.08,0.07-0.11,0.11c-0.08,0-0.17,0-0.25,0c-0.68-0.35-0.4-1.05-0.57-1.58
		c-0.03-0.09,0.01-0.19,0.05-0.28c-0.13,0.08-0.05,0.2-0.05,0.3C453.88,286.91,454.44,287.74,454.01,288.6z"/>
	<path style="fill-rule:evenodd;clip-rule:evenodd;fill:#554644;" d="M496.52,283.81c0-0.08,0-0.16,0-0.23c0.24,0,0.49,0,0.73,0.01
		c0.31,0.15,0.63,0.14,0.95,0c4.8,0.08,9.61,0.16,14.41,0.25c0.14,0.21,0.13,0.39-0.07,0.56c-0.36,0.22-0.77,0.18-1.17,0.17
		c-4.46-0.18-8.93-0.16-13.39-0.17C497.43,284.39,496.83,284.44,496.52,283.81z"/>
	<path style="fill-rule:evenodd;clip-rule:evenodd;fill:#523735;" d="M466.97,262.47c0.09-0.08,0.18-0.16,0.27-0.24
		c5.25,0.48,10.42,1.46,15.6,2.42c0.06,0.15,0.01,0.27-0.13,0.35c-0.53,0.27-1.08,0.12-1.63,0.05c-3.05-0.43-6.04-1.28-9.12-1.51
		c-1.32-0.18-2.65-0.27-3.96-0.49C467.6,262.98,467.1,263.04,466.97,262.47z"/>
	<path style="fill-rule:evenodd;clip-rule:evenodd;fill:#445841;" d="M488.36,280.66c0,0.07,0,0.15,0,0.22
		c-4.4-0.15-8.8-0.29-13.2-0.44c-0.08-0.15-0.04-0.28,0.1-0.38c0.78-0.38,1.62-0.1,2.43-0.26c3.22-0.06,6.43,0.25,9.65,0.29
		C487.75,280.1,488.25,280.05,488.36,280.66z"/>
	<path style="fill-rule:evenodd;clip-rule:evenodd;fill:#4A5046;" d="M517.93,282.07c-1.17,1.01-2.55,0.37-3.82,0.44
		c-3.19,0.18-6.36-0.1-9.51-0.59c0.25-0.36,0.65-0.35,1.02-0.4c3.54,0.29,7.09,0.27,10.63,0.23c0.23,0.01,0.47,0.03,0.71,0.02
		c0.1-0.02,0.2-0.05,0.29-0.08c0.13-0.06,0.27-0.13,0.41-0.18c0.14-0.05,0.29-0.06,0.43-0.03c0.09,0.03,0.17,0.09,0.23,0.17
		c-0.08,0.09-0.16,0.19-0.23,0.29C518.03,281.96,517.98,282.01,517.93,282.07z"/>
	<path style="fill-rule:evenodd;clip-rule:evenodd;fill:#495B45;" d="M460.04,279.68c-4.89,0.09-9.76-0.4-14.65-0.51
		c-0.01-0.17,0.06-0.29,0.2-0.37c2.21-0.33,4.44-0.24,6.64-0.09c1.7,0.12,3.4,0.11,5.1,0.16c0.88,0.02,1.74,0.05,2.56,0.42
		C460.04,279.39,460.09,279.52,460.04,279.68z"/>
	<path style="fill-rule:evenodd;clip-rule:evenodd;fill:#485643;" d="M460.04,279.68c0-0.07,0-0.14,0-0.21
		c1.3-0.77,2.71-0.37,4.07-0.3c3.28,0.16,6.56,0.48,9.84,0.67c0.44,0.02,0.88-0.01,1.21,0.36c0,0.08,0,0.16,0,0.25
		c-4.5,0.08-8.97-0.43-13.46-0.68C461.15,279.74,460.59,279.71,460.04,279.68z"/>
	<path style="fill-rule:evenodd;clip-rule:evenodd;fill:#2F332D;" d="M445.37,279.01c0,0.06,0,0.11,0.03,0.16
		c-0.16,0.01-0.31,0.02-0.47,0.03c-0.47-0.11-0.98-0.14-1.23-0.66c-0.17-0.28-0.27-0.58-0.3-0.9c-0.03-0.77-0.02-1.54-0.02-2.32
		c-0.01-0.25,0.03-0.5,0.09-0.75c0.14-0.41,0.32-0.79,0.57-1.14c0.18-0.16,0.36-0.32,0.63-0.2c0.08,0.08,0.16,0.16,0.24,0.23
		c-0.28,1.14-0.95,2.19-0.72,3.43c0.02,0.08-0.05,0.2,0.09,0.25c-0.05-0.05-0.07-0.12-0.08-0.21c-0.14-1.28,0.25-2.42,0.94-3.47
		c0.24-0.28,0.48-0.3,0.72-0.01c0.05,0.39-0.15,0.73-0.25,1.08c-0.09,0.25-0.19,0.5-0.29,0.75c-0.4,0.81-0.35,1.64-0.13,2.48
		c0.03,0.26,0.07,0.51,0.15,0.76C445.4,278.71,445.4,278.86,445.37,279.01z"/>
	<path style="fill-rule:evenodd;clip-rule:evenodd;fill:#463B36;" d="M489.09,296.06c0-0.17,0-0.34-0.01-0.5
		c-0.24-0.58-0.19-1.23-0.43-1.81c-0.05-0.14-0.11-0.28-0.17-0.42c-0.07-0.14-0.1-0.28-0.08-0.43c-0.45-0.75-1.14-1.1-1.98-1.21
		c-0.47-0.15-0.95-0.14-1.42-0.01c-0.32,0.03-0.63,0.05-0.95,0.08c-0.24,0.08-0.31-0.03-0.27-0.25c0.21-0.02,0.42-0.05,0.63-0.07
		c0.13,0.02,0.22-0.09,0.33-0.13c1.66-0.44,3.1,0.4,4.56,0.91c1.17,0.41,1.38,1.77,0.57,2.72
		C489.58,295.29,489.64,295.89,489.09,296.06z"/>
	<path style="fill-rule:evenodd;clip-rule:evenodd;fill:#544D4A;" d="M513.56,290c0-0.06,0-0.13,0-0.19c0.17-0.2,0.1-0.58,0.48-0.6
		c0.17-0.01,0.33,0.01,0.5,0.02c0.69-0.12,1.56,0.39,2.01-0.58c0.07-1.31-0.19-2.63,0.19-3.92c0.22-0.3,0.43-0.3,0.63,0.03
		c0.03,0.79,0.08,1.58,0.07,2.37c-0.03,2.97-0.04,2.97-3.05,2.9C514.11,290.02,513.84,290,513.56,290z"/>
	<path style="fill-rule:evenodd;clip-rule:evenodd;fill:#383A32;" d="M518.32,281.63l-0.11,0l-0.11,0
		c-0.07-0.08-0.12-0.17-0.16-0.27c0.02-0.54-0.33-1-0.35-1.53c-0.06-1.09,0.79-2.05,0.48-3.18c0.08-0.1,0.15-0.2,0.23-0.3
		c0.51,0.59,0.77,1.32,1.29,1.93c0.7,0.81,0.36,1.85-0.47,2.51C518.82,281.05,518.58,281.34,518.32,281.63z"/>
	<path style="fill-rule:evenodd;clip-rule:evenodd;fill:#543837;" d="M511.46,270.09c-0.1,0.08-0.2,0.16-0.29,0.24
		c-0.24,0.2-0.53,0.18-0.79,0.13c-2.91-0.54-5.83-1.04-8.71-1.76c-0.16-0.04-0.28-0.14-0.39-0.26c0.04-0.45,0.32-0.36,0.6-0.27
		C505.08,268.81,508.27,269.45,511.46,270.09z"/>
	<path style="fill-rule:evenodd;clip-rule:evenodd;fill:#523A38;" d="M486.03,265.29c3.25,0.6,6.5,1.2,9.76,1.8
		c-0.02,0.25-0.21,0.34-0.41,0.41c-0.39,0.11-0.79,0.09-1.17,0c-2.31-0.55-4.68-0.81-7-1.29c-0.54-0.11-1.11-0.16-1.51-0.61
		C485.68,265.35,485.71,265.16,486.03,265.29z"/>
	<path style="fill-rule:evenodd;clip-rule:evenodd;fill:#513D37;" d="M467.96,304.21c-1.5-0.02-2.75-0.54-3.32-2.02
		c-0.63-1.62-1.07-3.27,0.35-4.76c0.05,0.01,0.09,0.03,0.12,0.07c-0.12,1.07-0.51,2.09-0.28,3.22c0.28,1.38,0.91,2.41,2.27,2.9
		c0.26,0.15,0.54,0.24,0.83,0.27C468.01,303.99,468.02,304.1,467.96,304.21z"/>
	<path style="fill-rule:evenodd;clip-rule:evenodd;fill:#4E4745;" d="M514.55,270.89c-0.01-0.09-0.02-0.19-0.03-0.28
		c0.89-0.1,1.71,0.26,2.54,0.49c0.78,0.21,0.9,0.9,0.79,1.63c-0.15,0.97-0.31,1.95-0.46,2.92c-0.17-0.01-0.34-0.02-0.52-0.04
		c-0.4-0.68-0.13-1.35,0.02-2.03c0.33-1.46,0.16-1.74-1.23-2.11C515.24,271.37,514.78,271.35,514.55,270.89z"/>
	<path style="fill-rule:evenodd;clip-rule:evenodd;fill:#4A5747;" d="M490.33,274.9c-0.42,0.01-0.84,0.02-1.26,0.03
		c-0.77,0.63-1.69,0.46-2.53,0.37c-1.79-0.19-3.58-0.17-5.38-0.22c-0.54-0.02-1.24,0.15-1.46-0.65c1.78-0.15,3.56-0.15,5.34,0
		C486.82,274.45,488.58,274.57,490.33,274.9z"/>
	<path style="fill-rule:evenodd;clip-rule:evenodd;fill:#726967;" d="M445.11,287.11c2.55-1.16,5.03-2.51,7.73-3.3
		c0.22,0.14,0.41,0.28,0.19,0.57c-2.12,0.84-4.26,1.63-6.28,2.7c-0.43,0.17-0.83,0.46-1.32,0.42
		C445.26,287.42,445.15,287.3,445.11,287.11z"/>
	<path style="fill-rule:evenodd;clip-rule:evenodd;fill:#453633;" d="M512.6,284.25c0-0.14,0-0.28,0-0.42c0.24,0,0.47,0,0.71,0
		c0.15,0.15,0.29,0.3,0.38,0.5c0.39,1.82,0.3,3.58-0.61,5.25c-0.15,0.06-0.3,0.13-0.45,0.19c-0.09-0.08-0.15-0.17-0.18-0.29
		c-0.02-0.35,0.09-0.68,0.15-1.02c0.14-0.39,0.16-0.79,0.13-1.19c0-0.53,0-1.06,0-1.58c0.01-0.17,0.01-0.33,0.01-0.5
		C512.77,284.87,512.58,284.58,512.6,284.25z"/>
	<path style="fill-rule:evenodd;clip-rule:evenodd;fill:#6C4E48;" d="M477.07,290c-0.44-0.36-0.97-0.11-1.45-0.24
		c0.78-0.79,2.49-0.86,3.62-0.14c1.63,0.4,3.29,0.02,4.92,0.21C481.81,290.21,479.44,289.96,477.07,290z"/>
	<path style="fill-rule:evenodd;clip-rule:evenodd;fill:#615858;" d="M443.96,278.52c0.32,0.23,0.64,0.46,0.96,0.68
		c-0.88-0.05-1.76-0.06-2.62-0.17c-1.76-0.23-2.23-1.01-1.73-2.72c0.22,0.08,0.32,0.27,0.42,0.46c0.08,0.19,0.11,0.39,0.14,0.6
		c0.02,0.09,0.04,0.19,0.06,0.28c0.07,0.24,0.26,0.38,0.47,0.5C442.41,278.42,443.19,278.41,443.96,278.52z"/>
	<path style="fill-rule:evenodd;clip-rule:evenodd;fill:#603B39;" d="M501.53,274.48c-2.39-0.47-4.79-0.95-7.18-1.42
		c0.04-0.06,0.08-0.11,0.12-0.17c0.87-0.46,1.73-0.08,2.57,0.08c1.44,0.28,2.9,0.48,4.32,0.87c0.36,0.1,0.84,0.01,0.92,0.56
		C502.05,274.66,501.79,274.63,501.53,274.48z"/>
	<path style="fill-rule:evenodd;clip-rule:evenodd;fill:#563938;" d="M495.54,267.25c0.08-0.05,0.16-0.11,0.24-0.16
		c2.03,0.36,4.07,0.72,6.1,1.09c-0.19,0.08-0.38,0.16-0.56,0.23c-1.93,0.29-3.74-0.29-5.57-0.77
		C495.59,267.59,495.53,267.42,495.54,267.25z"/>
	<path style="fill-rule:evenodd;clip-rule:evenodd;fill:#76513F;" d="M472.76,302.55c0.8-0.17,1.6-0.34,2.4-0.5
		c0.08,0.04,0.11,0.09,0.08,0.13c-0.03,0.04-0.06,0.07-0.08,0.07c-1.84,0.56-3.68,1.12-5.53,1.68c-0.39-0.23-0.58-0.47-0.05-0.76
		C470.67,303.12,471.63,302.38,472.76,302.55z"/>
	<path style="fill-rule:evenodd;clip-rule:evenodd;fill:#4B4440;" d="M444.68,273.24c-0.15,0.08-0.3,0.16-0.46,0.24
		c-0.88,0.38-1.95,0-2.76,0.68c-0.12,0.3-0.14,0.67-0.51,0.82c-0.33-0.04-0.18-0.37-0.32-0.53c0.01-1.03,0.55-1.49,1.57-1.45
		c0.83,0.03,1.66,0.05,2.48,0.07C444.68,273.13,444.68,273.18,444.68,273.24z"/>
	<path style="fill-rule:evenodd;clip-rule:evenodd;fill:#6E4839;" d="M467.23,296.55c-0.08-0.02-0.17-0.03-0.25-0.05
		c1.44-0.74,3.04-0.95,4.56-1.43c0.18-0.12,0.35-0.12,0.53,0.01C470.53,295.83,468.88,296.19,467.23,296.55z"/>
	<path style="fill-rule:evenodd;clip-rule:evenodd;fill:#495142;" d="M497.92,281.42c0.25-0.01,0.49-0.03,0.74-0.04
		c1.66-0.7,3.3-0.39,4.94,0.1c0.14,0.09,0.19,0.22,0.13,0.38C501.78,281.82,499.84,281.73,497.92,281.42z"/>
	<path style="fill-rule:evenodd;clip-rule:evenodd;fill:#383129;" d="M469.62,303.25c-0.36,0.23-0.14,0.46,0.01,0.68
		c-0.06,0.06-0.12,0.08-0.2,0.06c-0.15,0.1-0.35,0.07-0.5,0.17c-0.32,0.05-0.63,0.38-0.97,0.05c0.01-0.07,0.01-0.14,0.01-0.2
		c0.01-0.11,0.07-0.19,0.19-0.22c-0.15-0.17-0.29-0.33-0.44-0.5c0.46-0.48,1.02-0.43,1.59-0.31c0.12,0.01,0.24,0.02,0.35,0.04
		C469.72,303.1,469.7,303.18,469.62,303.25z"/>
	<path style="fill-rule:evenodd;clip-rule:evenodd;fill:#6C4E48;" d="M490.39,289.82c2.01,0,4.02,0,6.03,0
		C494.41,290.08,492.4,290.11,490.39,289.82z"/>
	<path style="fill-rule:evenodd;clip-rule:evenodd;fill:#544D4A;" d="M513.35,284.32c-0.01-0.16-0.02-0.33-0.04-0.49
		c1.19,0,2.38,0.01,3.57,0.01c0.07,0.06,0.09,0.13,0.07,0.2c-0.02,0.07-0.04,0.1-0.06,0.1c-0.23,0.2-0.52,0.29-0.8,0.37
		c-0.51,0.11-1.02,0.11-1.53,0.03c-0.3-0.05-0.6-0.18-0.92-0.15C513.54,284.39,513.45,284.36,513.35,284.32z"/>
	<path style="fill-rule:evenodd;clip-rule:evenodd;fill:#596155;" d="M485.05,274.42c-1.78,0.01-3.56,0.02-5.34,0.03
		c-0.07,0.07-0.15,0.07-0.22,0c0-0.07-0.01-0.15-0.02-0.22C481.33,274.28,483.21,274.04,485.05,274.42z"/>
	<path style="fill-rule:evenodd;clip-rule:evenodd;fill:#573B3A;" d="M486.03,265.29c-0.1,0.08-0.21,0.15-0.31,0.23
		c-1.26,0.41-2.26,0.18-2.89-0.66c0-0.07,0-0.14,0-0.21C483.9,264.86,484.96,265.08,486.03,265.29z"/>
	<path style="fill-rule:evenodd;clip-rule:evenodd;fill:#594A3E;" d="M444.92,288.12c-0.14,0.06-0.29,0.12-0.43,0.17
		c-0.48,0.15-1.1,0.16-1.2-0.33c-0.1-0.5,0.58-0.47,0.96-0.61c0.22-0.08,0.45-0.11,0.68-0.17c0.09,0.17,0.01,0.31-0.08,0.44
		c-0.13,0.18,0.12,0.17,0.15,0.27C445.02,287.98,445,288.05,444.92,288.12z"/>
	<path style="fill-rule:evenodd;clip-rule:evenodd;fill:#67473B;" d="M483.8,291.5c0.09,0.08,0.18,0.17,0.27,0.25
		c-1.04,0.25-2.08,0.49-3.12,0.74c-0.07-0.06-0.09-0.13-0.07-0.19c0.02-0.07,0.04-0.1,0.06-0.1
		C481.88,291.97,482.84,291.74,483.8,291.5z"/>
	<path style="fill-rule:evenodd;clip-rule:evenodd;fill:#64463D;" d="M480.67,292.64c-1.1,0.26-2.21,0.52-3.31,0.79
		c-0.12,0.09-0.22,0.08-0.31-0.04c0.71-0.49,1.55-0.55,2.36-0.73c0.12-0.01,0.2-0.11,0.31-0.15c0.14-0.03,0.29-0.06,0.43-0.09
		C480.39,292.33,480.66,292.19,480.67,292.64z"/>
	<path style="fill-rule:evenodd;clip-rule:evenodd;fill:#66493E;" d="M475.65,293.77c-0.78,0.83-1.82,0.95-2.86,1.06
		c0-0.05-0.01-0.11-0.01-0.16C473.73,294.36,474.69,294.07,475.65,293.77z"/>
	<path style="fill-rule:evenodd;clip-rule:evenodd;fill:#625956;" d="M448.46,288.62c-0.94-0.17-1.89-0.35-2.83-0.52
		c-0.07-0.13-0.05-0.25,0.07-0.34c0.36-0.22,0.75-0.19,1.15-0.12c0.64,0.26,1.48,0,1.96,0.71
		C448.8,288.58,448.74,288.75,448.46,288.62z"/>
	<path style="fill-rule:evenodd;clip-rule:evenodd;fill:#775142;" d="M475.16,302.24c0-0.07,0-0.13,0-0.2
		c1.04-0.34,2.07-0.67,3.11-1.01c0.07,0.05,0.09,0.1,0.06,0.14c-0.02,0.05-0.05,0.07-0.07,0.07
		C477.23,301.58,476.2,301.91,475.16,302.24z"/>
	<path style="fill-rule:evenodd;clip-rule:evenodd;fill:#645B59;" d="M448.46,288.62c0.1-0.07,0.2-0.14,0.3-0.21
		c0.94-0.4,1.74-0.1,2.47,0.5c0.04,0.13,0.02,0.26-0.07,0.37l-0.11,0.01l-0.11-0.01c-0.15-0.11-0.36-0.08-0.52-0.17
		C449.77,288.95,449.12,288.79,448.46,288.62z"/>
	<path style="fill-rule:evenodd;clip-rule:evenodd;fill:#5D5451;" d="M451.16,289.29c0-0.1,0.01-0.19,0.01-0.29
		c0.86-0.45,1.62-0.1,2.37,0.31l0.07,0.03c-0.17,0.14-0.34,0.28-0.52,0.42C452.45,289.6,451.81,289.44,451.16,289.29z"/>
	<path style="fill-rule:evenodd;clip-rule:evenodd;fill:#596155;" d="M477.91,274.16c-1.24,0-2.49,0.25-3.71-0.17
		C475.44,273.96,476.68,273.88,477.91,274.16z"/>
	<path style="fill-rule:evenodd;clip-rule:evenodd;fill:#3A3532;" d="M440.64,274.45c0.08,0.18,0.16,0.35,0.24,0.53
		c0.55,0.64,0.56,1.26-0.07,1.85c-0.08-0.17-0.15-0.34-0.23-0.51C440.59,275.69,440.61,275.07,440.64,274.45z"/>
	<path style="fill-rule:evenodd;clip-rule:evenodd;fill:#714D3F;" d="M485.48,298.46c0.54-0.53,1.24-0.75,1.92-1.03
		c0.06,0.05,0.08,0.11,0.06,0.16c-0.02,0.05-0.05,0.08-0.07,0.08C486.78,297.99,486.25,298.51,485.48,298.46z"/>
	<path style="fill-rule:evenodd;clip-rule:evenodd;fill:#4F2A27;" d="M491.48,272.71c0-0.06,0-0.13,0-0.19
		c0.56-0.44,1.1-0.38,1.63,0.06c0.09,0.11,0.11,0.24,0.04,0.37C492.58,273.02,492.02,272.91,491.48,272.71z"/>
	<path style="fill-rule:evenodd;clip-rule:evenodd;fill:#775345;" d="M483.08,299.42c0.53-0.53,1.21-0.69,1.93-0.73
		C484.46,299.18,483.79,299.34,483.08,299.42z"/>
	<path style="fill-rule:evenodd;clip-rule:evenodd;fill:#605755;" d="M439.86,261.73c-0.07,0.08-0.15,0.16-0.22,0.24
		c-0.37-0.64-0.4-1.29,0.01-1.93c0.07,0.08,0.13,0.15,0.2,0.23c0.1,0.06,0.14,0.14,0.13,0.26c-0.11,0.31-0.11,0.62,0.01,0.92
		C439.98,261.56,439.94,261.65,439.86,261.73z"/>
	<path style="fill-rule:evenodd;clip-rule:evenodd;fill:#26231C;" d="M445.65,287.86c0,0.08-0.01,0.17-0.02,0.25
		c-0.24,0-0.48,0.01-0.71,0.01c-0.01-0.1-0.02-0.19-0.04-0.29c-0.11-0.03-0.17-0.11-0.18-0.22c0.07-0.14,0.15-0.29,0.22-0.43
		c0.05-0.06,0.12-0.08,0.19-0.07c0.09,0.09,0.18,0.17,0.27,0.26C445.44,287.55,445.63,287.66,445.65,287.86z"/>
	<path style="fill-rule:evenodd;clip-rule:evenodd;fill:#76574D;" d="M480.2,300.36c0.54-0.24,1.07-0.52,1.69-0.47
		c-0.49,0.42-1.09,0.57-1.7,0.68c-0.08-0.05-0.1-0.1-0.08-0.14C480.15,300.39,480.18,300.36,480.2,300.36z"/>
	<path style="fill-rule:evenodd;clip-rule:evenodd;fill:#6C4E48;" d="M484.15,289.83c0.72,0,1.44,0,2.17,0
		C485.6,290.07,484.88,290.03,484.15,289.83z"/>
	<path style="fill-rule:evenodd;clip-rule:evenodd;fill:#3A4A38;" d="M503.72,281.85c0-0.07,0-0.14,0-0.21
		c0.69-0.41,1.37-0.7,1.9,0.22c-0.34,0.02-0.68,0.04-1.02,0.06C504.31,281.9,504.02,281.87,503.72,281.85z"/>
	<path style="fill-rule:evenodd;clip-rule:evenodd;fill:#6C4E48;" d="M486.32,289.83c0.72,0,1.44,0,2.16,0
		C487.76,290.09,487.04,290,486.32,289.83z"/>
	<path style="fill-rule:evenodd;clip-rule:evenodd;fill:#453633;" d="M516.21,284.24c0.25-0.08,0.5-0.15,0.75-0.23
		c0.07-0.07,0.14-0.07,0.21,0.01l-0.02,0.04c0.09,0.05,0.15,0.12,0.18,0.22c0.01,0.16,0.03,0.31,0.04,0.47
		c-0.15-0.08-0.29-0.16-0.44-0.24c-0.05,0-0.11,0.01-0.16,0.01C516.54,284.52,516.33,284.47,516.21,284.24z"/>
	<path style="fill-rule:evenodd;clip-rule:evenodd;fill:#A79EA0;" d="M501.53,274.48c0.25-0.01,0.5-0.01,0.75-0.02l0.12,0.01
		c0.03,0.07,0.08,0.14,0.13,0.2l0,0c0.08,0.07,0.1,0.12,0.06,0.16c-0.03,0.03-0.07,0.05-0.11,0.05c-0.33-0.01-0.67,0.08-0.93-0.22
		C501.53,274.61,501.53,274.55,501.53,274.48z"/>
	<path style="fill-rule:evenodd;clip-rule:evenodd;fill:#24241E;" d="M453.12,284.22c-0.09-0.14-0.18-0.28-0.27-0.42
		c0.05-0.04,0.11-0.06,0.18-0.04c0.12-0.06,0.24-0.06,0.37-0.01c0.05-0.03,0.1-0.04,0.15-0.01c0,0.35,0.09,0.71-0.19,1.01
		c-0.05-0.03-0.09-0.05-0.14-0.08C453.12,284.54,453.09,284.39,453.12,284.22z"/>
	<path style="fill-rule:evenodd;clip-rule:evenodd;fill:#6C4D44;" d="M488.1,297c0.28-0.37,0.55-0.76,1-0.95
		c0.02,0.53-0.39,0.71-0.75,0.95C488.27,297.1,488.18,297.09,488.1,297z"/>
	<path style="fill-rule:evenodd;clip-rule:evenodd;fill:#376D3A;" d="M497.97,274.65c-0.47-0.01-0.96,0.18-1.41-0.13
		C497.04,274.58,497.53,274.38,497.97,274.65z"/>
	<path style="fill-rule:evenodd;clip-rule:evenodd;fill:#78625A;" d="M472.77,294.66c0.01,0.05,0.01,0.11,0.01,0.16
		c-0.24,0.08-0.48,0.17-0.73,0.25c-0.18,0-0.35-0.01-0.53-0.01C471.95,294.93,472.36,294.8,472.77,294.66z"/>
	<path style="fill-rule:evenodd;clip-rule:evenodd;fill:#4A2B27;" d="M493.16,272.94c0-0.06,0-0.11,0-0.17
		c0.46-0.33,0.9-0.52,1.19,0.19l0,0.1C493.95,273.02,493.55,272.98,493.16,272.94z"/>
	<path style="fill-rule:evenodd;clip-rule:evenodd;fill:#376D3A;" d="M496.24,274.51c-0.28,0.26-0.62,0.16-0.94,0.13
		C495.58,274.42,495.91,274.47,496.24,274.51z"/>
	<path style="fill-rule:evenodd;clip-rule:evenodd;fill:#734939;" d="M482.35,299.65c0.19-0.28,0.47-0.27,0.75-0.24
		c-0.13,0.35-0.48,0.28-0.74,0.39C482.36,299.75,482.35,299.7,482.35,299.65z"/>
	<path style="fill-rule:evenodd;clip-rule:evenodd;fill:#83655C;" d="M478.27,301.25c0-0.07,0-0.14,0-0.21
		c0.25-0.24,0.55-0.22,0.86-0.19C478.84,300.98,478.56,301.11,478.27,301.25z"/>
	<path style="fill-rule:evenodd;clip-rule:evenodd;fill:#6C4E48;" d="M496.63,289.83c0.41,0,0.81,0,1.22,0
		C497.44,290.01,497.03,290.01,496.63,289.83z"/>
	<path style="fill-rule:evenodd;clip-rule:evenodd;fill:#4A3E3C;" d="M498.19,283.59c-0.32,0.29-0.63,0.29-0.95,0
		C497.56,283.59,497.88,283.59,498.19,283.59z"/>
	<path style="fill-rule:evenodd;clip-rule:evenodd;fill:#69554F;" d="M480.67,292.64c-0.17-0.07-0.35-0.15-0.52-0.22
		c0.26-0.07,0.52-0.15,0.77-0.22c0,0.1,0.01,0.2,0.01,0.29C480.85,292.54,480.76,292.59,480.67,292.64z"/>
	<path style="fill-rule:evenodd;clip-rule:evenodd;fill:#4E352D;" d="M477.05,293.38c0.1,0.01,0.2,0.03,0.31,0.04
		c-0.25,0.32-0.53,0.25-0.82,0.06C476.71,293.45,476.88,293.42,477.05,293.38z"/>
	<path style="fill-rule:evenodd;clip-rule:evenodd;fill:#866558;" d="M487.39,297.67c0-0.08,0-0.16,0.01-0.24
		c0.17-0.06,0.33-0.12,0.5-0.18C487.73,297.39,487.56,297.53,487.39,297.67z"/>
	<path style="fill-rule:evenodd;clip-rule:evenodd;fill:#C1BEC1;" d="M450.42,289.12c0.17,0.06,0.35,0.12,0.52,0.17
		C450.77,289.24,450.6,289.18,450.42,289.12z"/>
	<path style="fill-rule:evenodd;clip-rule:evenodd;fill:#866558;" d="M488.1,297c0.09,0,0.17,0,0.26,0
		c-0.16,0.09-0.31,0.17-0.46,0.26C487.96,297.17,488.03,297.08,488.1,297z"/>
	<path style="fill-rule:evenodd;clip-rule:evenodd;fill:#674134;" d="M482.35,299.65c0,0.05,0.01,0.1,0.01,0.16
		c-0.16,0.03-0.32,0.06-0.48,0.09C481.96,299.67,482.14,299.64,482.35,299.65z"/>
	<path style="fill-rule:evenodd;clip-rule:evenodd;fill:#6E493B;" d="M480.2,300.36c0,0.07-0.01,0.14-0.01,0.21
		c-0.1,0.03-0.2,0.05-0.29,0.08C479.74,300.28,480.05,300.4,480.2,300.36z"/>
	<path style="fill-rule:evenodd;clip-rule:evenodd;fill:#694A3E;" d="M485,298.7c0.08-0.25,0.28-0.26,0.5-0.25
		C485.43,298.72,485.22,298.72,485,298.7z"/>
	<path style="fill-rule:evenodd;clip-rule:evenodd;fill:#76513F;" d="M468.93,304.16c0.17-0.06,0.33-0.11,0.5-0.17
		C469.27,304.04,469.1,304.1,468.93,304.16z"/>
	<path style="fill-rule:evenodd;clip-rule:evenodd;fill:#544D4A;" d="M517.33,284.28c-0.06-0.07-0.12-0.14-0.18-0.22
		C517.21,284.13,517.27,284.21,517.33,284.28z"/>
	<path style="fill-rule:evenodd;clip-rule:evenodd;fill:#ABA7A9;" d="M517.17,284.02l-0.11,0l-0.1-0.01
		c-0.04-0.05-0.06-0.11-0.08-0.17C516.98,283.9,517.08,283.96,517.17,284.02z"/>
	<path style="fill-rule:evenodd;clip-rule:evenodd;fill:#448A42;" d="M517.93,282.07c0.02-0.08,0.07-0.13,0.16-0.15
		C518.04,281.97,517.99,282.02,517.93,282.07z"/>
	<path style="fill-rule:evenodd;clip-rule:evenodd;fill:#58413A;" d="M453.39,283.75c-0.12,0-0.24,0.01-0.37,0.01
		C453.14,283.6,453.27,283.61,453.39,283.75z"/>
	<path style="fill-rule:evenodd;clip-rule:evenodd;fill:#6C4E48;" d="M489.93,289.84c0.16,0,0.32,0,0.49,0
		C490.25,289.98,490.09,289.97,489.93,289.84z"/>
	<path style="fill-rule:evenodd;clip-rule:evenodd;fill:#69554F;" d="M479.72,292.5c-0.1,0.05-0.21,0.1-0.31,0.15
		C479.51,292.6,479.62,292.55,479.72,292.5z"/>
	<path style="fill-rule:evenodd;clip-rule:evenodd;fill:#6C4E48;" d="M488.78,289.82c0.13,0,0.26,0.01,0.39,0.01
		C489.04,289.83,488.91,289.83,488.78,289.82z"/>
	<path style="fill-rule:evenodd;clip-rule:evenodd;fill:#67473B;" d="M484.75,291.3c-0.11,0.04-0.22,0.08-0.33,0.13
		C484.53,291.39,484.64,291.35,484.75,291.3z"/>
	<path style="fill-rule:evenodd;clip-rule:evenodd;fill:#C21825;" d="M441.08,261.96c0.24-0.7,0.27-1.42,0.23-2.15
		c0.3-0.92,1.06-0.3,1.58-0.48c0.36-0.02,0.68,0.15,1,0.26c1.74,0.5,3.53,0.74,5.34,0.84c0.58,0.03,1.2-0.15,1.69,0.33
		c3.43-0.05,6.72,1.02,10.1,1.35c0.93,0.09,1.84,0.47,2.77,0.55c0.74,0.06,0.85,0.41,0.83,0.99c-0.09,1.07-0.31,2.12-0.76,3.1
		c-1.65-0.34-3.35-0.4-4.98-0.77c-2.74-0.62-5.59-0.58-8.28-1.4c-1.08-0.83-2.42-0.87-3.67-1.16c-0.29-0.09-0.58-0.17-0.89-0.16
		c-0.31-0.01-0.62-0.03-0.92-0.1c-0.5-0.25-1.17,0.03-1.57-0.51C442.72,262.41,441.9,262.18,441.08,261.96z"/>
	<path style="fill-rule:evenodd;clip-rule:evenodd;fill:#503535;" d="M450.92,260.75c-2.47,0.13-4.88-0.19-7.23-0.93
		c0.06-0.2,0.19-0.33,0.39-0.39c1.94,0.32,3.91,0.49,5.85,0.85c0.08,0.02,0.18,0.02,0.27-0.02c-0.08,0-0.16,0.03-0.24,0.01
		c-0.37-0.08-0.91,0.13-0.96-0.53c0.25-0.08,0.5-0.11,0.74,0.05C451.35,260.06,451.35,260.06,450.92,260.75z"/>
	<path style="fill-rule:evenodd;clip-rule:evenodd;fill:#3F3432;" d="M449.74,259.79c-0.27,0.01-0.54,0.03-0.8,0.04
		c-1.14,0.51-2.22-0.1-3.33-0.15c-0.55-0.02-1.08-0.38-1.64-0.05c-0.09,0.06-0.18,0.12-0.27,0.18c-0.23-0.09-0.46-0.17-0.69-0.26
		c-0.12-0.14-0.4-0.2-0.22-0.48c1.84-0.67,3.59,0.19,5.37,0.35C448.66,259.48,449.29,259.36,449.74,259.79z"/>
	<path style="fill-rule:evenodd;clip-rule:evenodd;fill:#89201D;" d="M442.78,259.09c0.07,0.16,0.15,0.32,0.22,0.48
		c-0.56,0.09-1.18-0.21-1.69,0.24c-0.38-0.32-0.16-0.63,0.03-0.94C441.82,258.94,442.3,259.01,442.78,259.09z"/>
	<path style="fill-rule:evenodd;clip-rule:evenodd;fill:#539B43;" d="M518.08,276.65c0.63,0.67,0.41,1.32,0.05,2.04
		c-0.19,0.37-0.18,0.84-0.26,1.26c-0.68,0.24-1.08-0.11-1.42-0.63c-0.73-0.81-1.76-0.57-2.65-0.67c-1.22-0.14-2.47,0.01-3.71-0.05
		c-0.75-0.04-1.07,0.27-1.15,0.96c-1.19,0.57-2.46,0.39-3.65,0.23c-1.83-0.26-3.66-0.17-5.49-0.19c-1.73-0.02-3.46-0.23-5.2-0.11
		c0.01-1.03,0.02-2.07,0.04-3.1c3.32,0.13,6.64,0.26,9.96,0.39c1.22,0.05,2.46,0.28,3.66-0.15c2.85,0.72,5.73,1.06,8.67,0.71
		C517.31,277.1,517.7,276.87,518.08,276.65z"/>
	<path style="fill-rule:evenodd;clip-rule:evenodd;fill:#353834;" d="M516.92,277.32c-0.32,0.16-0.62,0.43-0.94,0.45
		c-2.31,0.13-4.6-0.06-6.85-0.6c-0.35-0.08-0.7-0.19-0.88-0.55c1.91-0.8,3.87-0.25,5.78-0.08
		C514.98,276.62,516.26,276.03,516.92,277.32z"/>
	<path style="fill-rule:evenodd;clip-rule:evenodd;fill:#603B39;" d="M502.47,274.9c0.03-0.07,0.05-0.14,0.05-0.21
		c0.11,0.05,0.42-0.12,0.25,0.23C502.68,274.91,502.58,274.9,502.47,274.9z"/>
	<path style="fill-rule:evenodd;clip-rule:evenodd;fill:#991F1F;" d="M450.44,264.36c3.29,0.52,6.58,1.05,9.87,1.57
		c1.2,0.19,2.49,0,3.55,0.82c0.01,0.52-0.36,0.47-0.7,0.49c-0.68-0.56-1.48-0.61-2.32-0.75c-3.61-0.64-7.31-0.8-10.85-1.85
		C450.05,264.39,450.17,264.25,450.44,264.36z"/>
	<path style="fill-rule:evenodd;clip-rule:evenodd;fill:#433533;" d="M450.44,264.36c-0.15,0.09-0.3,0.18-0.45,0.27
		c-1.73,0.02-3.41-0.32-5.08-0.74c0.16-0.22,0.4-0.28,0.65-0.31c1.11,0.01,2.17,0.38,3.27,0.53c0.05,0.01,0.11,0.01,0.16,0
		c-0.08,0-0.17,0.02-0.24-0.02c-0.69-0.36-1.64,0.06-2.21-0.69c0.02-0.21,0.08-0.36,0.33-0.25
		C448.08,263.49,449.57,263.04,450.44,264.36z"/>
	<path style="fill-rule:evenodd;clip-rule:evenodd;fill:#473936;" d="M445.67,263.87c-0.25,0.01-0.51,0.01-0.76,0.02
		c-0.53-0.15-1.06-0.27-1.57-0.46c-0.19-0.07-0.45-0.31-0.45-0.47c0.01-0.39,0.42-0.23,0.65-0.32c0.56,0.07,1.15-0.08,1.68,0.25
		c-0.09,0.23-0.29,0.34-0.51,0.42c-0.23,0.02-0.46,0-0.69-0.09c-0.03-0.01-0.06-0.03-0.07-0.08c-0.03-0.16,0.1-0.25,0.01-0.12
		c-0.05,0.08-0.02,0.09-0.02,0.09C444.37,263.7,445.4,262.92,445.67,263.87z"/>
	<path style="fill-rule:evenodd;clip-rule:evenodd;fill:#DA9020;" d="M488.81,293.4c0.38,0.68,0.58,1.39,0.27,2.16
		c-0.64-0.16-1.09,0.37-1.65,0.48c-1.69,0.81-3.5,1.33-5.24,2.02c-0.3,0.12-0.62,0.18-0.92,0.01c-0.54-0.74,0.57-0.75,0.55-1.26
		c1.26-1,2.9-1.06,4.28-1.74c0.35-0.17,0.76-0.24,1.12-0.42c0.17-0.09,0.4-0.21,0.3-0.44c-0.09-0.22-0.32-0.16-0.52-0.11
		c-0.9,0.21-1.71,0.67-2.6,0.88c-0.16,0.04-0.32,0.05-0.48,0.04c-0.49-0.13-0.95,0.03-1.4,0.17c-3.83,1.19-7.65,2.4-11.47,3.61
		c-0.41,0.13-0.8,0.39-1.26,0.17c-0.05-0.09-0.11-0.17-0.16-0.26c-0.07-0.08-0.13-0.16-0.18-0.25c-0.04-0.08-0.08-0.15-0.12-0.23
		c1.08-0.98,2.53-1.08,3.83-1.53c1.99-0.69,4.04-1.21,5.97-2.06c1.17-0.51,2.45-0.71,3.64-1.18c0.95-0.09,1.76-0.71,2.73-0.75
		c0.94,0.48,1.89,0.93,2.91,0.2c0.07,0.08,0.13,0.16,0.2,0.24C488.67,293.22,488.74,293.31,488.81,293.4z"/>
	<path style="fill-rule:evenodd;clip-rule:evenodd;fill:#D57D21;" d="M479.25,294.87c-3.19,1.45-6.6,2.24-9.91,3.34
		c-0.13-0.18-0.26-0.35-0.4-0.53c3.01-1,6.02-2.01,9.04-3c0.16-0.05,0.38,0.09,0.57,0.14c0.06-0.07,0.14-0.12,0.23-0.15
		c0.09-0.01,0.19-0.01,0.28,0.01C479.14,294.72,479.21,294.79,479.25,294.87z"/>
	<path style="fill-rule:evenodd;clip-rule:evenodd;fill:#493B35;" d="M485.5,292.69c-0.75,0.68-1.68,0.89-2.65,1.01
		c-0.08-0.09-0.1-0.19-0.08-0.3c0.12-0.21,0.34-0.25,0.53-0.32c0.13-0.03,0.27-0.05,0.4-0.11c-0.07-0.01-0.12,0.04-0.19,0.05
		c-0.16,0.02-0.3,0.08-0.45,0.12c-0.94,0.47-1.99,0.59-2.98,0.91c-0.11,0.01-0.22,0-0.33-0.03c-0.22-0.07-0.41-0.18-0.51-0.4
		c1.62-0.67,3.34-0.99,5.03-1.4C484.74,292.12,485.24,292.13,485.5,292.69z"/>
	<path style="fill-rule:evenodd;clip-rule:evenodd;fill:#1D1B14;" d="M479.23,293.63c0.15,0.06,0.29,0.12,0.44,0.18
		c0.04,0.52-0.37,0.73-0.69,0.99l-0.11,0.02l-0.1-0.02c-0.1-0.04-0.18-0.11-0.24-0.19C478.48,294.07,478.78,293.8,479.23,293.63z"/>
	<path style="fill-rule:evenodd;clip-rule:evenodd;fill:#67473B;" d="M485.01,291.68c0.48-0.3,0.95-0.3,1.42,0.01
		C485.96,291.68,485.48,291.68,485.01,291.68z"/>
	<path style="fill-rule:evenodd;clip-rule:evenodd;fill:#51433D;" d="M478.53,294.6c0.08,0.06,0.16,0.13,0.24,0.19
		c-0.07,0.03-0.15,0.04-0.22,0.03C478.53,294.75,478.52,294.68,478.53,294.6z"/>
	<path style="fill-rule:evenodd;clip-rule:evenodd;fill:#D68120;" d="M469.62,303.25c0.01-0.08,0.03-0.16,0.04-0.24
		c0.14-0.25,0.27-0.49,0.41-0.74c0.1-0.07,0.2-0.14,0.3-0.21c2.73-0.98,5.23-2.54,8.05-3.32c0.53-0.15,1.04-0.44,1.62-0.21
		c0.11,0.06,0.2,0.15,0.26,0.26c0.04,0.13,0.02,0.25-0.04,0.36c-2.32,0.65-4.6,1.43-6.71,2.62c-0.33,0.19-0.78,0.27-0.78,0.78
		C471.74,302.87,470.79,303.57,469.62,303.25z"/>
	<path style="fill-rule:evenodd;clip-rule:evenodd;fill:#493B36;" d="M480.26,299.15c-0.01-0.06-0.02-0.12-0.03-0.18
		c0.07-0.13,0.05-0.27,0.06-0.41c0.02-0.09,0.07-0.18,0.12-0.25c0.17-0.18,0.36-0.31,0.61-0.35c0.05,0,0.1,0,0.14,0
		c1.81-0.3,3.4-1.27,5.15-1.77c0.38-0.11,0.72-0.37,1.13-0.15c0.02,0.42-0.07,0.8-0.5,0.98c-2.07,0.88-4.12,1.83-6.35,2.26
		C480.48,299.29,480.37,299.19,480.26,299.15z"/>
	<path style="fill-rule:evenodd;clip-rule:evenodd;fill:#CD5E21;" d="M512.6,284.25c0.32,0.15,0.47,0.4,0.42,0.75
		c-0.5,0.48-1.13,0.35-1.71,0.33c-7.27-0.31-14.54-0.42-21.8-0.15c-4.22,0.16-8.45,0.55-12.67,0.36c-4.75-0.21-9.51-0.05-14.25-0.25
		c-2.07-0.09-4.15-0.1-6.21-0.21c-0.69-0.04-1.57,0.15-1.87-0.84c1.34-0.51,2.8,0.1,4.14-0.42c0.14,0,0.27,0,0.41,0
		c0.1,0.09,0.2,0.09,0.3,0c12.39,0,24.78,0,37.17,0c0.8,0.37,1.66,0.19,2.49,0.21C503.53,284.11,508.07,284.18,512.6,284.25z"/>
	<path style="fill-rule:evenodd;clip-rule:evenodd;fill:#58413A;" d="M459.35,283.81c-0.1,0.14-0.2,0.14-0.3,0
		C459.15,283.82,459.25,283.81,459.35,283.81z"/>
	<path style="fill-rule:evenodd;clip-rule:evenodd;fill:#498C41;" d="M479.49,274.45c0.07,0,0.15,0,0.22,0
		c0.22,0.08,0.43,0.22,0.65,0.23c2.9,0.1,5.81,0.17,8.71,0.25c1.29,0.34,2.61,0.39,3.93,0.49c0.45,0.03,0.96-0.19,1.34,0.24
		c-0.66,0.56-1.46,0.57-2.27,0.59c-3.55,0.1-7.13,0.11-10.64-0.32c-5.95-0.72-11.9-0.08-17.83-0.44c-4.42-0.27-8.86-0.27-13.27-0.59
		c-1.35-0.1-2.71,0.26-4.06-0.08c-0.31-0.08-0.63-0.09-0.86-0.36c0-0.4,0.15-0.72,0.46-0.98c4.06,0.09,8.13,0.09,12.18,0.28
		c5,0.24,10,0.33,14.99,0.52C475.2,274.35,477.35,274.37,479.49,274.45z"/>
	<path style="fill-rule:evenodd;clip-rule:evenodd;fill:#36633A;" d="M445.15,273.48c-0.17,1.36-1.02,2.6-0.72,4.05
		c0.01,0.07-0.08,0.16-0.12,0.24c-0.07-0.13-0.17-0.26-0.2-0.41c-0.29-1.41-0.23-2.75,0.82-3.88
		C445,273.48,445.08,273.48,445.15,273.48z"/>
	<path style="fill-rule:evenodd;clip-rule:evenodd;fill:#8F201E;" d="M482.83,264.86c0.87,0.64,1.94,0.36,2.89,0.66
		c3.28,0.58,6.55,1.15,9.83,1.73c1.87,0.68,3.88,0.63,5.78,1.16c3.28,0.64,6.57,1.28,9.85,1.92c0.7,0.21,1.77-0.28,1.89,1
		c-0.37,0.33-0.8,0.34-1.24,0.19c-2.43-0.8-4.94-0.92-7.45-0.8c-2.32,0.11-4.52-0.54-6.72-1.02c-4.99-1.09-10.06-1.69-15.03-2.85
		c-3.1-0.73-6.15-1.68-9.24-2.48c-0.6-0.16-1.24-0.39-1.35-1.17c3.17,0.23,6.24,1.1,9.38,1.53
		C481.88,264.78,482.36,264.81,482.83,264.86z"/>
	<path style="fill-rule:evenodd;clip-rule:evenodd;fill:#A82525;" d="M472.04,263.19c2.01,1.43,4.47,1.55,6.73,2.23
		c7.66,2.3,15.67,2.98,23.42,4.87c1.17,0.29,2.47,0.12,3.7,0.05c2.46-0.13,4.79,0.63,7.18,0.98c0.01,0.23,0.02,0.47,0.03,0.7
		c-0.27,0.26-0.6,0.2-0.9,0.12c-3.21-0.82-6.51-0.89-9.79-1.03c-4.88-0.97-9.79-1.76-14.71-2.48c-3.49-0.51-6.82-1.65-10.2-2.56
		c-3.34-0.9-6.7-1.74-10.15-2.14c-0.56-0.06-1.07-0.3-1.6-0.48c-0.27-0.09-0.44-0.3-0.6-0.52c-0.05-0.39-0.1-0.74,0.52-0.59
		c0.42,0.1,0.87,0.09,1.3,0.13C468.66,262.71,470.35,262.95,472.04,263.19z"/>
	<path style="fill-rule:evenodd;clip-rule:evenodd;fill:#BF353C;" d="M502.28,270.84c3.65-0.01,7.27,0.2,10.81,1.19
		c0.06,0.24,0.11,0.48,0.17,0.71c-0.6,0.27-1.18,0.05-1.75-0.08c-2.81-0.61-5.66-0.96-8.54-0.98c-0.88-0.01-1.75-0.16-2.62-0.23
		c-0.12-0.01-0.24-0.01-0.36-0.01c0.06,0.15,0.22,0.15,0.34,0.2c1.48,0.5,3,0.82,4.55,1.01c1.99,0.23,3.91,0.77,5.81,1.4
		c0.53,0.18,1.22,0.29,1.2,1.11c-0.24-0.01-0.49-0.02-0.73-0.03c-0.67-0.12-1.36-0.16-1.99-0.44c-0.11-0.02-0.21-0.05-0.31-0.09
		c-0.51-0.22-1.05-0.32-1.59-0.43c-0.12-0.03-0.23-0.07-0.35-0.11c-1.31-0.37-2.64-0.44-3.99-0.52c-1.51-0.08-2.93-0.66-4.39-1.03
		c-2.08-0.56-4.2-0.97-6.32-1.34c-0.63-0.11-1.24-0.3-1.81-0.61c-0.29-0.16-0.52-0.41-0.43-0.77c0.08-0.31,0.37-0.42,0.65-0.45
		c0.84-0.1,1.67-0.11,2.5,0.05C496.16,269.98,499.25,270.19,502.28,270.84z"/>
	<path style="fill-rule:evenodd;clip-rule:evenodd;fill:#C33943;" d="M511.88,275.15c-1.62-1.32-3.65-1.47-5.56-1.88
		c-2.21-0.47-4.49-0.64-6.62-1.46c-0.3-0.11-0.72-0.16-0.79-0.61c0.3-0.04,0.61-0.13,0.9-0.11c4.51,0.33,9.06,0.32,13.45,1.66
		C513.23,273.79,513.66,275.11,511.88,275.15z"/>
	<path style="fill-rule:evenodd;clip-rule:evenodd;fill:#972120;" d="M494.35,272.96c-0.35-0.35-0.78-0.17-1.19-0.19
		c-0.52-0.34-1.11-0.24-1.67-0.26c-1.2-0.24-2.4-0.48-3.6-0.72c-0.82-0.6-1.77-0.86-2.74-1.11c-3.74-1-7.68-0.79-11.41-1.98
		c-2.11-0.68-4.29-1.23-6.53-1.43c-0.96-0.08-1.91,0.13-2.85-0.02c0.02-0.24,0.05-0.48,0.07-0.72c0.13-0.05,0.25-0.11,0.38-0.16
		c1.94-0.52,3.79,0.04,5.65,0.44c2.95,0.63,5.81,1.68,8.85,1.91c3.55,0.27,6.92,1.47,10.39,2.07c4.12,0.72,8.17,1.72,12.26,2.57
		c1.2,0.25,2.46,0.22,3.68,0.36c0.64,0.07,1.24,0.26,1.84,0.49c0.33,0.13,0.58,0.3,0.35,0.7c-0.72,0-1.44-0.01-2.16-0.01
		c-0.37-0.24-0.83,0.04-1.2-0.2c-0.24-0.02-0.48-0.03-0.72-0.05c-0.08-0.06-0.16-0.12-0.25-0.17c-0.32-0.01-0.64-0.03-0.96-0.04
		c-0.08,0.08-0.17,0.09-0.26,0.01l0.01,0.01C499.68,273.7,497.03,273.27,494.35,272.96z"/>
	<path style="fill-rule:evenodd;clip-rule:evenodd;fill:#AC2627;" d="M507.8,274.91c-0.42-0.89-1.38-0.87-2.06-0.88
		c-4.88-0.07-9.4-2.02-14.18-2.56c-3.45-0.38-6.67-1.93-10.13-2.15c-4.73-0.31-9.17-1.92-13.77-2.74c-1-0.18-2.05-0.05-3.07-0.06
		c-0.05-0.05-0.08-0.1-0.06-0.16c0.01-0.06,0.03-0.09,0.04-0.09l0.02,0c1.04-1.06,2.35-0.63,3.5-0.46c2.96,0.44,5.84,1.28,8.78,1.84
		c1.53,0.29,3.07,0.54,4.61,0.73c3.08,0.37,5.97,1.5,8.96,2.21c2.48,0.59,5.01,0.96,7.49,1.58c2.57,0.86,5.22,1.24,7.91,1.42
		c0.52,0.04,0.98,0.26,1.48,0.36l0,0c0.54,0.22,1.13,0.28,1.68,0.48l0,0c0.14,0.16,0.15,0.33,0,0.49
		C508.6,274.92,508.2,274.92,507.8,274.91z"/>
	<path style="fill-rule:evenodd;clip-rule:evenodd;fill:#D8D3D6;" d="M517.22,273.51c-0.12,0.7-0.24,1.4-0.35,2.1
		c-0.22-0.07-0.45-0.14-0.67-0.22c-0.47-0.32-1.03-0.25-1.54-0.38c-0.17-0.04-0.52,0.05-0.39-0.35c0.09-0.47,0.18-0.94,0.28-1.41
		c0.25-0.34-0.2-1.11,0.71-1.07C516.29,272.22,517.05,272.69,517.22,273.51z"/>
	<path style="fill-rule:evenodd;clip-rule:evenodd;fill:#928D92;" d="M517.22,273.51c-0.39-1.04-1.44-0.76-2.19-1.03
		c-0.41-0.15-0.18,0.59-0.49,0.77c0-0.79,0-1.57,0-2.36c0.49,0.12,0.98,0.28,1.48,0.35C517.52,271.44,517.66,272.32,517.22,273.51z"
		/>
	<path style="fill-rule:evenodd;clip-rule:evenodd;fill:#5D1E17;" d="M514.3,272.65c-0.05,0.24-0.12,0.62-0.2,1
		c-0.11,0.49-0.09,1.03-0.61,1.33c-0.17-0.46,0.25-0.8,0.25-1.21c-0.01-0.66-0.14-1.32-0.16-1.98c-0.01-0.27-0.19-0.7,0.25-0.77
		c0.1-0.01,0.31,0.48,0.4,0.76C514.3,272.01,514.27,272.26,514.3,272.65z"/>
	<path style="fill-rule:evenodd;clip-rule:evenodd;fill:#BBB5B8;" d="M514.27,274.66c0.67,0.17,1.48-0.02,1.93,0.73
		c-0.58-0.04-1.17-0.06-1.74-0.12C513.98,275.22,513.96,274.98,514.27,274.66z"/>
	<path style="fill-rule:evenodd;clip-rule:evenodd;fill:#B32D30;" d="M509,274.93c0-0.16,0-0.33,0-0.49
		c0.72,0.23,1.43,0.45,2.15,0.68C510.42,275.15,509.7,275.23,509,274.93z"/>
	<path style="fill-rule:evenodd;clip-rule:evenodd;fill:#603B39;" d="M504.45,274.7c0.41,0.02,0.84-0.13,1.2,0.2
		C505.24,274.88,504.8,275.05,504.45,274.7z"/>
	<path style="fill-rule:evenodd;clip-rule:evenodd;fill:#603B39;" d="M503.48,274.48c0.08,0.06,0.17,0.12,0.25,0.17
		C503.65,274.59,503.57,274.54,503.48,274.48z"/>
	<path style="fill-rule:evenodd;clip-rule:evenodd;fill:#603B39;" d="M502.27,274.45c0.09,0,0.17-0.01,0.26-0.01
		c0,0.08,0,0.16-0.01,0.24C502.43,274.6,502.35,274.53,502.27,274.45z"/>
	<path style="fill-rule:evenodd;clip-rule:evenodd;fill:#74AC45;" d="M444.94,278.03c-0.21-0.98-0.5-1.97,0.22-2.87
		c0.39-0.36,0.87-0.39,1.35-0.35c4.41,0.4,8.85,0.25,13.27,0.51c5.67,0.34,11.34,0.12,17,0.18c2.32,0.02,4.6,0.45,6.91,0.53
		c3.31,0.12,6.61,0.31,9.92,0.16c0.12-0.01,0.24,0.04,0.35,0.06c0.18,0.06,0.23,0.18,0.17,0.35c-0.02,0.79-0.04,1.59-0.05,2.38
		c-0.07,0.25-0.24,0.38-0.49,0.41c-4.46-0.39-8.94-0.06-13.39-0.34c-3.49-0.22-7.01-0.18-10.47-0.87c-0.16-0.03-0.32-0.03-0.48-0.02
		c-4.62,0.05-9.24-0.4-13.87-0.26c-2.67,0.08-5.34-0.01-8.01-0.02C446.56,277.88,445.78,278.46,444.94,278.03z"/>
	<path style="fill-rule:evenodd;clip-rule:evenodd;fill:#5B9D43;" d="M494.11,276.37c-2.17,0.49-4.37,0.22-6.55,0.18
		c-2.14-0.03-4.28-0.27-6.42-0.44c-6.42-0.51-12.85-0.06-19.28-0.25c-5.57-0.17-11.13-0.47-16.7-0.71c0.09-0.24,0.17-0.48,0.26-0.71
		c4.36,0.08,8.75-0.14,13.08,0.31c6.46,0.66,12.9,0.18,19.35,0.43c2.64,0.1,5.27,0.52,7.91,0.64c2.86,0.13,5.73,0.2,8.59-0.18
		c0.01,0.08,0,0.16-0.01,0.23C494.19,276.01,494.3,276.26,494.11,276.37z"/>
	<path style="fill-rule:evenodd;clip-rule:evenodd;fill:#488940;" d="M493.88,279.23c0.07-0.08,0.14-0.17,0.2-0.25
		c0.26,1.29-0.13,1.88-1.58,1.73c-1.37-0.14-2.76-0.05-4.14-0.05c-0.25-0.27-0.58-0.21-0.9-0.22c-3.3-0.08-6.6-0.17-9.9-0.25
		c-1.19-0.47-2.45-0.28-3.67-0.32c-3.6-0.11-7.14-0.8-10.74-0.86c-1.87-0.03-3.75-0.12-5.63-0.11c-3.59,0.02-7.18-0.32-10.78-0.03
		c-0.43,0.04-0.88,0.05-1.31-0.04c-0.16-0.73,0.42-0.75,0.86-0.85c1.26-0.29,2.54-0.19,3.81-0.21c2.95-0.04,5.89,0.09,8.84,0.05
		c3.51-0.05,7.03,0.03,10.51,0.41c5.44,0.59,10.88,0.8,16.34,0.94c2.39,0.06,4.79,0.03,7.17,0.25
		C493.31,279.45,493.6,279.43,493.88,279.23z"/>
	<path style="fill-rule:evenodd;clip-rule:evenodd;fill:#37703B;" d="M505.62,281.86c-0.59-0.44-1.27-0.13-1.9-0.22
		c-1.69-0.09-3.38-0.17-5.06-0.26c-0.96-0.15-1.91-0.32-2.87-0.45c-0.61-0.08-1.22-0.12-1.18-0.97c0.58-0.63,1.37-0.64,2.1-0.57
		c2.29,0.21,4.6-0.08,6.89,0.23c1.56,0.21,3.16,0.22,4.67,0.74c0.63,0.52,1.37,0.75,2.19,0.71c1.69-0.09,3.39,0.2,5.07-0.17
		c0.17-0.05,0.36-0.04,0.54-0.11c0.11-0.04,0.23-0.08,0.35-0.1c0.69-0.06,1.34-0.04,1.7,0.7c0,0.08,0,0.17,0.01,0.25
		c-0.15,0-0.3,0-0.45,0c-0.08,0.08-0.17,0.15-0.25,0.23l0,0.01c-0.12,0.13-0.33,0.09-0.45,0.22
		C513.18,282.1,509.39,282.27,505.62,281.86z"/>
	<path style="fill-rule:evenodd;clip-rule:evenodd;fill:#448A42;" d="M518.1,281.38c-0.59-0.35-1.22-0.53-1.92-0.48
		c-2.63-0.37-5.27-0.52-7.92-0.23c-4.52-0.84-9.06-1.33-13.66-0.72c0-0.16,0-0.32,0-0.48c1.05-0.47,2.11-0.36,3.24-0.29
		c3.45,0.21,6.92,0.22,10.38,0.28c0.26,0,0.52-0.14,0.78-0.21c0.21-0.24,0.48-0.29,0.76-0.22c1.96,0.47,3.92,0.42,5.89,0.11
		c0.34-0.05,0.71-0.1,1.04,0.11c0.22,0.53,0.8,0.43,1.18,0.69C517.82,280.45,518.63,280.8,518.1,281.38z"/>
	<path style="fill-rule:evenodd;clip-rule:evenodd;fill:#498C41;" d="M494.11,276.37c0.08-0.16,0.15-0.33,0.23-0.49
		c0.02,0.27,0.04,0.53-0.2,0.72C494.12,276.53,494.11,276.45,494.11,276.37z"/>
	<path style="fill-rule:evenodd;clip-rule:evenodd;fill:#CD5E21;" d="M479.24,289.63c-1.21,0-2.42-0.24-3.62,0.14
		c-6.3,0-12.61,0.01-18.92-0.02c-0.66,0-1.63,0.31-1.72-0.9c0.17-0.77,0.77-0.83,1.39-0.83c1.63-0.02,3.26,0.18,4.89,0.21
		c6.39,0.09,12.78,0.23,19.16-0.01c9.97-0.37,19.95-0.05,29.92-0.19c0.87-0.01,1.77-0.07,2.49,0.58c-0.08,0.32-0.16,0.64-0.23,0.96
		c-1.28,0.21-2.57,0.16-3.85,0.02C498.92,289.59,489.08,289.61,479.24,289.63z"/>
	<path style="fill-rule:evenodd;clip-rule:evenodd;fill:#453633;" d="M513.57,284.26c0.25-0.3,0.49-0.26,0.71,0.03
		c0.1,0.11,0.18,0.23,0.24,0.37c0.21,1.6,0.22,3.17-0.51,4.66c-0.15,0.17-0.3,0.33-0.45,0.49c-0.02-0.1-0.04-0.2-0.05-0.3
		c-0.31-0.71,0.1-1.38,0.13-2.08C513.68,286.38,513.77,285.31,513.57,284.26z"/>
	<path style="fill-rule:evenodd;clip-rule:evenodd;fill:#B25932;" d="M513.57,284.26c0.51,1.76,0.2,3.51-0.07,5.25
		c-0.14,0.02-0.29,0.05-0.43,0.07c0.2-1.75,0.88-3.47,0.27-5.26C513.42,284.3,513.5,284.28,513.57,284.26z"/>
	<path style="fill-rule:evenodd;clip-rule:evenodd;fill:#783B2B;" d="M508.75,289.58c1.28-0.01,2.57-0.01,3.85-0.02
		c0,0.07,0.01,0.15,0.03,0.22C511.33,289.71,510.02,290.02,508.75,289.58z"/>
	<path style="fill-rule:evenodd;clip-rule:evenodd;fill:#E1A01F;" d="M481.81,296.96c0.14,0.56-0.63,0.53-0.65,0.99l0,0
		c-2.55,0.74-5.08,1.51-7.47,2.71c-1.03,0.52-2.04,1.07-3.2,1.24c-0.13-0.03-0.21-0.11-0.23-0.25c-0.07-0.67,0.1-1.35-0.1-2.01
		c-0.12-0.23-0.24-0.46-0.36-0.7c4.36-1.69,8.9-2.86,13.33-4.32c0.3-0.1,0.63-0.09,0.91,0.13c-0.06,0.23-0.26,0.27-0.44,0.33
		c-0.13,0.04-0.27,0.08-0.41,0.12c-0.08,0.03-0.17,0.05-0.26,0.08c-0.17,0.04-0.34,0.09-0.5,0.16c-0.08,0.04-0.16,0.08-0.24,0.11
		c-0.12,0.06-0.24,0.11-0.37,0.16c-0.13,0.04-0.26,0.07-0.39,0.09c-0.17,0.03-0.34,0.08-0.51,0.14c-0.12,0.05-0.25,0.09-0.37,0.14
		c-0.12,0.07-0.21,0.16-0.29,0.28c-0.12,0.25-0.22,0.5,0.05,0.71c0.16,0.06,0.33,0.05,0.5,0c0.08-0.03,0.16-0.06,0.24-0.1
		c0.12-0.06,0.24-0.11,0.37-0.14C481.58,296.84,481.71,296.86,481.81,296.96z"/>
	<path style="fill-rule:evenodd;clip-rule:evenodd;fill:#D08322;" d="M469.31,302.97c-0.46,0.45-1.04,0.3-1.59,0.31
		c-0.57-0.26-1.06-0.62-1.43-1.12c-0.1-0.31-0.29-0.57-0.48-0.82c-0.29-0.6-0.29-1.24-0.24-1.88c0.27-0.42-0.01-0.93,0.23-1.35
		c0.46-0.76,1.05-1.12,1.91-0.6c0.08,0.22-0.06,0.36-0.17,0.53c-1.19,1.95-0.45,3.67,1.77,4.13c0.05,0.03,0.09,0.06,0.14,0.09
		C469.4,302.5,469.36,302.73,469.31,302.97z"/>
	<path style="fill-rule:evenodd;clip-rule:evenodd;fill:#B35022;" d="M468,297.91c1.54,0.66,2.09,2.31,1.45,4.35
		c0,0-0.07,0.03-0.07,0.03c-2.14-0.63-3.01-2.51-1.86-4.05C467.64,298.08,467.79,297.96,468,297.91z"/>
	<path style="fill-rule:evenodd;clip-rule:evenodd;fill:#C16822;" d="M468,297.91c-1.15,2.2-1.03,2.58,1.38,4.38
		c-1.25,0.37-1.96-0.41-2.4-1.34c-0.6-1.26-0.52-2.51,0.73-3.44C467.8,297.64,467.9,297.78,468,297.91z"/>
	<path style="fill-rule:evenodd;clip-rule:evenodd;fill:#C3622A;" d="M467.25,303.72c-2.08-0.3-3.34-3.01-2.48-5.35
		c0.11-0.29,0.23-0.58,0.34-0.88c0.75,0.27,0.09,0.63,0.01,0.88c-0.63,2.11,0.16,4.11,2.08,5.12c0.04,0.03,0.08,0.06,0.12,0.1
		C467.3,303.63,467.27,303.68,467.25,303.72z"/>
	<path style="fill-rule:evenodd;clip-rule:evenodd;fill:#D68120;" d="M470.15,299.65c0.44,0.68,0.12,1.43,0.21,2.15
		c-0.07,0.08-0.13,0.08-0.2,0C470.15,301.08,470.15,300.37,470.15,299.65z"/>
	<path style="fill-rule:evenodd;clip-rule:evenodd;fill:#C39B54;" d="M465.79,298.11c-0.03,0.46,0.14,0.95-0.23,1.35
		C465.45,298.98,465.49,298.52,465.79,298.11z"/>
	<path style="fill-rule:evenodd;clip-rule:evenodd;fill:#A8694A;" d="M468.16,303.78c-0.06,0.07-0.12,0.15-0.19,0.22
		c-0.24-0.09-0.48-0.19-0.72-0.28c0,0-0.01,0.01-0.01,0.01c0.07-0.09,0.15-0.1,0.24-0.04C467.7,303.72,467.93,303.75,468.16,303.78z
		"/>
	<path style="fill-rule:evenodd;clip-rule:evenodd;fill:#B39C7E;" d="M465.8,301.34c0.35,0.16,0.52,0.43,0.48,0.82
		C466.03,301.95,465.82,301.7,465.8,301.34z"/>
	<path style="fill-rule:evenodd;clip-rule:evenodd;fill:#E1A01F;" d="M470.16,301.8c0.07,0,0.14,0,0.2,0h0
		c0.15,0.16,0.14,0.32,0,0.48c-0.09,0-0.19-0.01-0.28-0.01C470.1,302.11,470.13,301.96,470.16,301.8z"/>
	<path style="fill-rule:evenodd;clip-rule:evenodd;fill:#D57D21;" d="M469.45,298.45c0.06,0.08,0.12,0.16,0.18,0.25
		C469.57,298.61,469.51,298.53,469.45,298.45z"/>
	<path style="fill-rule:evenodd;clip-rule:evenodd;fill:#513D37;" d="M467.48,303.68c-0.08,0.01-0.16,0.03-0.24,0.04
		c0.01-0.08-0.01-0.16-0.03-0.23C467.3,303.56,467.39,303.62,467.48,303.68z"/>
	<path style="fill-rule:evenodd;clip-rule:evenodd;fill:#8B201E;" d="M464.34,267.24c1.84-0.8,3.76-0.47,5.48,0.08
		c5.11,1.63,10.43,2.03,15.64,3.05c0.94,0.18,2.02,0.23,2.41,1.41c-4.13-0.58-8.23-1.35-12.32-2.2c-3.31-0.69-6.63-1.27-9.99-1.65
		C465.16,267.71,464.75,267.47,464.34,267.24z"/>
	<path style="fill-rule:evenodd;clip-rule:evenodd;fill:#BB2E32;" d="M497.96,272.28c-4.56-0.87-9.09-1.86-13.61-2.89
		c-5.49-1.24-11.06-2.11-16.57-3.3c-1.01-0.22-2.15-0.27-3.18,0.18c0.05-0.34-0.05-0.71,0.23-0.99c1.48-0.15,2.94-0.03,4.4,0.27
		c3.21,0.65,6.43,1.23,9.67,1.66c0.12,0.02,0.24,0.19,0.37,0.02c-0.12-0.02-0.23-0.07-0.34-0.11c-2-0.84-4.11-1.3-6.23-1.69
		c-1.81-0.33-3.61-0.66-5.4-1.1c-0.68-0.17-1.54-0.23-1.73-1.17c5.67,1.01,11.25,2.32,16.79,3.91c5.49,1.57,11.21,2.07,16.83,3.06
		c1.04,0.18,2.06,0.47,3.1,0.71c-2.75-0.34-5.52-0.63-8.26-1.06c-1.08-0.17-2.15-0.07-3.22-0.13c-0.22-0.01-0.55-0.08-0.61,0.22
		c-0.08,0.37,0.27,0.42,0.53,0.51c2.07,0.74,4.29,0.82,6.4,1.41c0.53,0.15,1.1,0.14,1.57,0.48
		C498.44,272.44,498.2,272.45,497.96,272.28z"/>
	<path style="fill-rule:evenodd;clip-rule:evenodd;fill:#BE3238;" d="M465.56,263.16c1.75,1.3,3.9,1.23,5.9,1.65
		c2.76,0.59,5.54,1.09,8.15,2.19c0.31,0.13,0.88,0.17,0.8,0.54c-0.07,0.36-0.62,0.2-0.94,0.15c-3.83-0.65-7.66-1.31-11.48-2.01
		c-0.84-0.15-1.67-0.17-2.49-0.05c-0.37,0.05-0.63,0.11-0.69-0.34c0.11-0.79,0.22-1.57,0.33-2.36
		C465.29,263,465.42,263.08,465.56,263.16z"/>
	<path style="fill-rule:evenodd;clip-rule:evenodd;fill:#8B201E;" d="M464.57,266.28c0.01,0.08,0.02,0.16,0.02,0.24
		c-0.06,0-0.12,0-0.18,0.01C464.46,266.44,464.52,266.36,464.57,266.28z"/>
	<path style="fill-rule:evenodd;clip-rule:evenodd;fill:#D68020;" d="M512.83,288.6c-10.13-0.54-20.27-0.33-30.4-0.15
		c-7.14,0.12-14.28,0.08-21.42,0.11c-1.58,0.01-3.17-0.18-4.76-0.21c-0.52-0.01-0.94,0.1-1.27,0.49c-0.08-0.4-0.16-0.8-0.24-1.21
		c0.04,0.02,0.09,0.04,0.13,0.06c0.66-0.33,1.38-0.45,2.1-0.38c5.94,0.57,11.89,0.37,17.84,0.39c5.27,0.02,10.54-0.37,15.81-0.3
		c6.75,0.09,13.51,0.03,20.26,0.08c0.72,0,1.43-0.1,2.15-0.08C513.12,287.83,513.04,288.22,512.83,288.6z"/>
	<path style="fill-rule:evenodd;clip-rule:evenodd;fill:#BA5A2A;" d="M454.01,288.6c-0.25-0.89-0.25-1.79-0.22-2.7
		c0-0.13,0.07-0.26,0.11-0.39c0.05,0.14,0.11,0.27,0.15,0.41c0.15,0.57,0.3,1.14,0.45,1.71c0,0.35,0.02,0.7,0.01,1.05
		c-0.01,0.2,0.1,0.53-0.25,0.51C454.16,289.19,454.09,288.81,454.01,288.6z"/>
	<path style="fill-rule:evenodd;clip-rule:evenodd;fill:#E6E1E5;" d="M439.82,260.49c0.02-0.07,0.03-0.15,0.01-0.22
		c0.19-0.33,0.45-0.59,0.85-0.43c0.11,0.04,0.16,0.34,0.16,0.52c0,0.61-0.66-0.06-0.76,0.38
		C439.86,260.8,439.76,260.72,439.82,260.49z"/>
	<path style="fill-rule:evenodd;clip-rule:evenodd;fill:#E0DBDF;" d="M439.86,261.73c0.01-0.08,0.01-0.15-0.01-0.22
		c-0.06-0.25,0.05-0.33,0.29-0.27c0.12,0.27,0.75-0.45,0.59,0.28C440.61,262.05,440.25,262.08,439.86,261.73z"/>
	<path style="fill-rule:evenodd;clip-rule:evenodd;fill:#ADA2A3;" d="M440.13,261.23c-0.1,0.09-0.19,0.18-0.29,0.27
		c-0.26-0.33-0.28-0.67-0.02-1.01c0.09,0.08,0.17,0.16,0.26,0.24C440.1,260.9,440.12,261.06,440.13,261.23z"/>
	<path style="fill-rule:evenodd;clip-rule:evenodd;fill:#E1A21F;" d="M513.04,287.41c-0.22,0.21-0.24,0.53-0.77,0.52
		c-6.19-0.06-12.38-0.08-18.58-0.05c-9.82,0.05-19.63,0.16-29.45,0.23c-2.43,0.02-4.86-0.13-7.26-0.49
		c-0.74-0.11-1.4,0.72-2.12,0.07c-0.06-0.17-0.12-0.34-0.18-0.52c-0.03-0.09-0.06-0.18-0.1-0.26c-0.03-0.48-0.05-0.95-0.08-1.43
		c0.1-0.64,0.58-0.53,1.01-0.52c5.99,0.12,11.98,0.2,17.97,0.34c3.59,0.08,7.21,0.42,10.76,0.09c6.63-0.62,13.25-0.32,19.87-0.37
		c2.71-0.02,5.42,0.26,8.14,0.21c0.28-0.01,0.56,0.03,0.78,0.24C513.04,286.13,513.04,286.77,513.04,287.41z"/>
	<path style="fill-rule:evenodd;clip-rule:evenodd;fill:#D78320;" d="M513.04,285.49c-7.86-0.08-15.74-0.38-23.59-0.16
		c-4.17,0.12-8.36,0.52-12.53,0.35c-4.95-0.2-9.9-0.06-14.84-0.26c-2.11-0.09-4.22-0.13-6.33-0.18c-0.42-0.01-0.89-0.15-1.24,0.24
		c-0.26-0.41-0.36-0.83-0.01-1.25c0.48,0.41,1.09,0.48,1.67,0.5c2.67,0.11,5.34,0.21,8.01,0.25c6.51,0.1,13.03,0.46,19.52,0.15
		c5.26-0.25,10.52-0.4,15.78-0.38c4.51,0.02,9.02,0.15,13.53,0.24C513.03,285.17,513.04,285.33,513.04,285.49z"/>
	<path style="fill-rule:evenodd;clip-rule:evenodd;fill:#E9E7E8;" d="M445.65,287.86c-0.17-0.12-0.45-0.18-0.27-0.49
		c0.4-0.16,0.8-0.31,1.2-0.47c0.76-0.18,1.43-0.58,2.19-0.77c1.33,0.02,2.62-0.14,3.85-0.69c0.23-0.1,0.46-0.14,0.67,0.05
		c0.1,1.2,0.19,2.4,0.29,3.6c-1.67-0.46-3.36-0.86-5.09-1.09c-0.55-0.07-1.1-0.08-1.65-0.12
		C446.44,287.87,446.05,287.87,445.65,287.86z"/>
	<path style="fill-rule:evenodd;clip-rule:evenodd;fill:#C1BEC1;" d="M446.84,287.88c2.36-0.26,4.66-0.15,6.73,1.21
		c0.04,0.08,0.03,0.15-0.03,0.22c-0.79-0.1-1.58-0.21-2.37-0.31c-0.81-0.19-1.61-0.39-2.42-0.58
		C448.12,288.24,447.48,288.06,446.84,287.88z"/>
	<path style="fill-rule:evenodd;clip-rule:evenodd;fill:#D0CED0;" d="M453.28,285.49c-1.43,0.72-2.92,1.09-4.53,0.93
		c-0.01-0.12,0.01-0.28,0.12-0.31c1.5-0.38,2.9-1.05,4.43-1.33l0.06-0.03C453.33,284.99,453.31,285.24,453.28,285.49z"/>
	<path style="fill-rule:evenodd;clip-rule:evenodd;fill:#BA5A2A;" d="M454.58,286.92c0.04,0.09,0.07,0.18,0.1,0.26
		C454.65,287.09,454.62,287.01,454.58,286.92z"/>
	<path style="fill-rule:evenodd;clip-rule:evenodd;fill:#427F3F;" d="M445.39,278.75c4.53-0.31,9.07-0.28,13.61-0.21
		c4,0.06,8.01,0.06,11.97,0.87c1.73,0.36,3.56,0.23,5.34,0.31c0.47,0.02,0.98-0.07,1.25,0.48c-0.8,0-1.6,0-2.4,0.01
		c-5.05-0.05-10.07-0.79-15.12-0.72c-4.89-0.31-9.77-0.56-14.67-0.46c-0.06-0.09-0.12-0.18-0.18-0.27
		C445.26,278.66,445.33,278.66,445.39,278.75z"/>
	<path style="fill-rule:evenodd;clip-rule:evenodd;fill:#5E8784;" d="M516.96,282.1c0.15-0.07,0.3-0.15,0.45-0.22
		C517.26,281.95,517.11,282.02,516.96,282.1z"/>
	<path style="fill-rule:evenodd;clip-rule:evenodd;fill:#448A42;" d="M517.41,281.87c0.08-0.08,0.17-0.15,0.25-0.23
		C517.58,281.71,517.49,281.79,517.41,281.87z"/>
	<path style="fill-rule:evenodd;clip-rule:evenodd;fill:#5A9B43;" d="M445.39,278.75h-0.1l-0.1,0c-0.08-0.24-0.16-0.48-0.25-0.71
		c1.88-0.69,3.83-0.49,5.76-0.48c1.92,0,3.84-0.02,5.75,0.01c4.27,0.07,8.55-0.1,12.79,0.29c7.31,0.68,14.61,1,21.94,0.93
		c0.89-0.01,1.79,0.29,2.68,0.45c0.03,0.48-0.13,0.74-0.69,0.69c-3.93-0.29-7.87-0.34-11.81-0.48c-4.6-0.16-9.18-0.56-13.76-1.03
		c-3.24-0.33-6.56-0.41-9.88-0.27c-3.12,0.13-6.29-0.1-9.44-0.09C447.3,278.07,446.23,277.97,445.39,278.75z"/>
	<path style="fill-rule:evenodd;clip-rule:evenodd;fill:#CEC8CC;" d="M440.8,276.83c0.14-0.61,0.2-1.23,0.07-1.85
		c0.09-0.32,0.18-0.64,0.27-0.96c0.9-0.02,1.74,0.24,2.61,0.42c-0.02,0.24-0.04,0.48-0.06,0.72c-0.18,0.62-0.04,1.26-0.08,1.89
		c0,0.11-0.03,0.22-0.09,0.32c-0.1,0.05-0.21,0.08-0.32,0.08c-0.69-0.13-1.36-0.06-2.01,0.2c-0.05,0-0.11,0-0.16,0
		c-0.04-0.03-0.09-0.06-0.13-0.09C440.86,277.31,440.83,277.07,440.8,276.83z"/>
	<path style="fill-rule:evenodd;clip-rule:evenodd;fill:#938E94;" d="M443.75,274.44c-0.95,0.35-1.79,0.05-2.61-0.42
		c0.9-0.95,2-0.69,3.09-0.53C444.07,273.8,443.91,274.12,443.75,274.44z"/>
	<path style="fill-rule:evenodd;clip-rule:evenodd;fill:#918C92;" d="M443.96,278.52c-0.94,0.52-1.79,0.11-2.65-0.23
		c0.65-0.94,1.06-1.02,2.37-0.5C443.77,278.03,443.87,278.28,443.96,278.52z"/>
	<path style="fill-rule:evenodd;clip-rule:evenodd;fill:#A8A1A8;" d="M443.67,277.79c-0.81,0.04-1.68-0.16-2.36,0.5
		c-0.22-0.11-0.4-0.25-0.41-0.52c0.04-0.09,0.11-0.16,0.19-0.21l0,0c0.7-0.23,1.4-0.45,2.15-0.24h0c0.08,0.08,0.15,0.07,0.21-0.02
		c0.13-0.71-0.18-1.47,0.23-2.15C443.68,276.03,443.68,276.91,443.67,277.79z"/>
	<path style="fill-rule:evenodd;clip-rule:evenodd;fill:#BEBDC2;" d="M488.92,292.34c0.78,0.34,0.97,0.96,1.03,1.66
		c0.01,0.07-0.11,0.15-0.17,0.22c-0.36-0.59-0.71-1.19-1.07-1.78C488.79,292.41,488.88,292.37,488.92,292.34z"/>
	<path style="fill-rule:evenodd;clip-rule:evenodd;fill:#CE6421;" d="M488.81,293.4c-0.07-0.09-0.13-0.18-0.2-0.27
		C488.68,293.22,488.74,293.31,488.81,293.4z"/>
	<path style="fill-rule:evenodd;clip-rule:evenodd;fill:#E8E7E8;" d="M514.01,289.31c0.1-1.59,0.2-3.18,0.3-4.77
		c0.17-0.08,0.31,0,0.4,0.13c0.54,0.79,1.1,0.76,1.7,0.07c0.13-0.14,0.26-0.3,0.49-0.2l0.04-0.03c-0.01,1.52-0.01,3.04-0.02,4.56
		c-0.92-0.07-1.88-0.37-2.63,0.49C514.19,289.48,514.1,289.4,514.01,289.31z"/>
	<path style="fill-rule:evenodd;clip-rule:evenodd;fill:#C2C0C4;" d="M514.28,289.56c0.52-1.15,1.52-1.34,2.63-0.49
		C516.2,290.12,515.16,289.43,514.28,289.56z"/>
	<path style="fill-rule:evenodd;clip-rule:evenodd;fill:#C3BDC4;" d="M519.07,279.27c-0.12-0.25-0.63,0.15-0.59-0.32
		c0.02-0.25,0.08-0.57,0.42-0.64c0.34-0.06,0.51,0.21,0.59,0.45c0.14,0.4,0.21,0.84-0.17,1.19c-0.08,0.09-0.17,0.11-0.28,0.04
		c-0.06-0.1-0.05-0.2,0.03-0.29l0,0C519.21,279.57,519.25,279.42,519.07,279.27z"/>
	<path style="fill-rule:evenodd;clip-rule:evenodd;fill:#E0DBE2;" d="M519.02,279.92c0.1,0.01,0.2,0.03,0.3,0.04
		c-0.06,0.39-0.29,0.57-0.67,0.46c-0.39-0.11-0.29-0.41-0.21-0.68l0.11,0c0.06,0.02,0.13,0.03,0.19,0.03
		C518.86,279.77,518.95,279.82,519.02,279.92z"/>
	<path style="fill-rule:evenodd;clip-rule:evenodd;fill:#4B4747;" d="M519.07,279.27c0.22,0.15,0.24,0.3,0,0.45
		C519.08,279.57,519.08,279.42,519.07,279.27z"/>
	<path style="fill-rule:evenodd;clip-rule:evenodd;fill:#4B4747;" d="M519.02,279.92c-0.09-0.05-0.19-0.1-0.28-0.15
		c0.11-0.02,0.22-0.03,0.33-0.05C519.06,279.78,519.04,279.85,519.02,279.92z"/>
	<path style="fill-rule:evenodd;clip-rule:evenodd;fill:#C3BDC4;" d="M518.55,279.74l-0.11,0
		C518.48,279.55,518.52,279.64,518.55,279.74z"/>
	<path style="fill-rule:evenodd;clip-rule:evenodd;fill:#B6B4B8;" d="M453.29,284.78c-1.35,1-3,1.18-4.54,1.65
		c-0.72,0.19-1.39,0.58-2.17,0.48c2.07-1.17,4.21-2.15,6.54-2.67C453.34,284.36,453.35,284.56,453.29,284.78z"/>
	<path style="fill-rule:evenodd;clip-rule:evenodd;fill:#C2BCC0;" d="M441.08,277.56c-0.06,0.07-0.12,0.14-0.19,0.21
		c-0.03-0.07-0.03-0.14-0.01-0.22C440.95,277.56,441.02,277.56,441.08,277.56z"/>
	<path style="fill-rule:evenodd;clip-rule:evenodd;fill:#ABA7A9;" d="M516.89,284.55c-0.99,1.54-1.77,1.54-2.58,0
		c-0.01-0.09-0.02-0.17-0.02-0.26c0.64-0.01,1.28-0.03,1.92-0.04C516.44,284.35,516.78,284.19,516.89,284.55z"/>
	<path style="fill-rule:evenodd;clip-rule:evenodd;fill:#D0A330;" d="M444.7,287.61c0.06,0.07,0.12,0.15,0.18,0.22
		c-0.25,0-0.51,0.22-0.73-0.07C444.34,287.71,444.52,287.66,444.7,287.61z"/>
	<path style="fill-rule:evenodd;clip-rule:evenodd;fill:#533433;" d="M449.88,262.79c-2.39-0.03-4.51-0.55-6.62-1.12
		c-0.4-0.11-0.77-0.35-0.69-0.84c0.06-0.34,0.4-0.38,0.68-0.33c2.23,0.4,4.45,0.81,6.67,1.25c0.31,0.06,0.8,0.16,0.69,0.65
		C450.5,262.83,450,262.7,449.88,262.79z"/>
	<path style="fill-rule:evenodd;clip-rule:evenodd;fill:#473936;" d="M446.88,263.14c-0.09,0.07-0.19,0.15-0.28,0.22
		c-0.41,0.43-0.82,0.29-1.23,0.01c0.02-0.55,0.51-0.2,0.72-0.38C446.35,263.04,446.62,263.09,446.88,263.14z"/>
	<path style="fill-rule:evenodd;clip-rule:evenodd;fill:#433533;" d="M446.09,262.99c-0.25,0.07-0.5,0.13-0.75,0.2
		c-0.25,0.17-0.47,0.18-0.67-0.08c0.18-0.07,0.36-0.15,0.54-0.22C445.51,262.92,445.8,262.95,446.09,262.99z"/>
	<path style="fill-rule:evenodd;clip-rule:evenodd;fill:#DCD8DD;" d="M443.96,259.64c-0.14-0.1-0.47-0.05-0.41-0.31
		c0.08-0.32,0.37-0.18,0.59-0.15c1.6,0.22,3.19,0.44,4.79,0.66c0.42,0.36,1.14-0.03,1.45,0.6c-0.55-0.03-1.1-0.06-1.65-0.09
		C447.13,260.24,445.53,260.04,443.96,259.64z"/>
	<path style="fill-rule:evenodd;clip-rule:evenodd;fill:#3A3D36;" d="M516.69,279.26c-2.56,0.7-5.13,0.53-7.7,0
		c-0.67-0.48-0.55-0.91,0.21-0.96c2.37-0.14,4.73-0.03,7.09,0.19C516.76,278.54,516.88,278.84,516.69,279.26z"/>
	<path style="fill-rule:evenodd;clip-rule:evenodd;fill:#D3CFD9;" d="M510.5,276.63c1.74,0.14,3.45,0.27,5.15,0.41
		c0.16,0.01,0.31,0.12,0.46,0.19c-0.14,0.05-0.28,0.13-0.42,0.14c-2,0.2-3.95-0.15-5.92-0.41c-0.11-0.02-0.21-0.18-0.31-0.28
		C509.83,276.66,510.18,276.64,510.5,276.63z"/>
	<path style="fill-rule:evenodd;clip-rule:evenodd;fill:#E0DBDE;" d="M444.68,263.1c0.22,0.03,0.44,0.05,0.67,0.08
		c0.39,0.27,0.83,0.17,1.25,0.17c0.89,0.19,1.77,0.37,2.66,0.58c0.14,0.03,0.35,0.17,0.35,0.25c-0.01,0.3-0.29,0.17-0.43,0.16
		c-1.17-0.15-2.34-0.31-3.51-0.48c-0.34-0.09-0.69-0.14-1.01-0.28c-0.34-0.15-1.04-0.04-0.98-0.41
		C443.75,262.76,444.34,263.23,444.68,263.1z"/>
	<path style="fill-rule:evenodd;clip-rule:evenodd;fill:#493D36;" d="M480.45,295.8c0.16-0.02,0.32-0.04,0.48-0.06
		c0.16-0.08,0.35-0.05,0.49-0.18c0.16-0.03,0.32-0.06,0.47-0.09c0.09-0.03,0.17-0.08,0.24-0.15c0.08-0.02,0.16-0.03,0.24-0.05
		c0.15-0.09,0.35-0.04,0.47-0.19c0.08-0.02,0.17-0.03,0.25-0.05c0.1-0.05,0.19-0.14,0.31-0.16c0.21-0.03,0.43-0.06,0.64-0.1
		c0.94-0.33,1.88-0.65,2.81-0.99c0.47-0.17,1.03-0.33,1.25,0.24c0.24,0.62-0.36,0.79-0.8,0.96c-1.82,0.67-3.65,1.32-5.48,1.98
		c-0.14,0.03-0.28,0.05-0.42,0.08c-0.1,0.06-0.18,0.14-0.29,0.18c-0.07,0-0.13,0.02-0.19,0.05c-0.16,0.11-0.36,0.08-0.52,0.19
		c-1.23-0.36-0.49-0.96-0.18-1.5C480.31,295.93,480.39,295.88,480.45,295.8z"/>
	<path style="fill-rule:evenodd;clip-rule:evenodd;fill:#51433D;" d="M478.98,294.8c0.05-0.46,0.31-0.77,0.69-0.99l0.05,0.07
		c0.85,0.18,1.56-0.41,2.37-0.47c0.25-0.02,0.51-0.28,0.76,0.02c0,0.09,0.01,0.18,0.01,0.27c-1.2,0.39-2.4,0.78-3.61,1.17
		C479.16,294.85,479.07,294.83,478.98,294.8z"/>
	<path style="fill-rule:evenodd;clip-rule:evenodd;fill:#D1CED5;" d="M482.84,293.44c-0.77,0.2-1.53,0.44-2.3,0.6
		c-0.25,0.05-0.67,0.48-0.82-0.15c1.12-0.3,2.25-0.61,3.37-0.91c0.11,0.03,0.19,0.1,0.24,0.2
		C483.17,293.26,483.01,293.35,482.84,293.44z"/>
	<path style="fill-rule:evenodd;clip-rule:evenodd;fill:#9A9BB1;" d="M483.54,292.89c0.3-0.23,0.63-0.3,0.99-0.16
		c-0.25,0.13-0.5,0.25-0.75,0.38C483.66,293.07,483.58,293,483.54,292.89z"/>
	<path style="fill-rule:evenodd;clip-rule:evenodd;fill:#E5E3EB;" d="M483.54,292.89c0.08,0.07,0.16,0.15,0.23,0.22
		c-0.14,0.02-0.29,0.04-0.43,0.05c-0.08-0.07-0.16-0.13-0.24-0.2C483.24,292.94,483.39,292.92,483.54,292.89z"/>
	<path style="fill-rule:evenodd;clip-rule:evenodd;fill:#DA9020;" d="M470.36,302.28c0-0.16,0-0.32,0-0.48
		c3.21-1.34,6.35-2.83,9.68-3.89c0.42-0.13,0.75-0.17,1.12,0.05c-0.24,0.16-0.48,0.32-0.72,0.48c-0.05,0.07-0.09,0.13-0.12,0.21
		c-0.04,0.01-0.08,0.02-0.11,0.04c-2.27,0.3-4.29,1.29-6.33,2.22C472.71,301.41,471.63,302.08,470.36,302.28z"/>
	<path style="fill-rule:evenodd;clip-rule:evenodd;fill:#CD6522;" d="M480.36,298.67c-0.05,0.1-0.09,0.19-0.14,0.29
		c-0.01-0.09-0.02-0.19-0.03-0.28l0.01-0.01C480.26,298.67,480.31,298.67,480.36,298.67z"/>
	<path style="fill-rule:evenodd;clip-rule:evenodd;fill:#D4D1D9;" d="M486.19,296.95c-1.52,0.55-2.95,1.34-4.55,1.67
		c-0.08-0.05-0.11-0.09-0.08-0.13s0.05-0.07,0.08-0.07c1.47-0.69,2.98-1.31,4.56-1.72c0.07,0.06,0.09,0.11,0.06,0.17
		C486.23,296.92,486.21,296.95,486.19,296.95z"/>
	<path style="fill-rule:evenodd;clip-rule:evenodd;fill:#B6B1B8;" d="M486.19,296.95c0-0.08,0.01-0.17,0.01-0.25
		c0.18-0.19,0.56-0.42,0.62-0.22C486.93,296.88,486.41,296.8,486.19,296.95z"/>
	<path style="fill-rule:evenodd;clip-rule:evenodd;fill:#E5E5ED;" d="M481.64,298.42c-0.01,0.07-0.01,0.13,0,0.2
		c-0.13-0.01-0.26-0.01-0.39-0.02C481.29,298.36,481.49,298.46,481.64,298.42z"/>
	<path style="fill-rule:evenodd;clip-rule:evenodd;fill:#D68120;" d="M480.36,298.67l-0.08,0l-0.08,0c0.08-0.08,0.15-0.16,0.23-0.24
		C480.41,298.52,480.39,298.59,480.36,298.67z"/>
	<path style="fill-rule:evenodd;clip-rule:evenodd;fill:#B32D30;" d="M497.96,272.28c0.24,0,0.48,0,0.72,0
		c2.47,0.72,5.01,1.01,7.57,1.24c0.37,0.03,0.72,0.29,1.07,0.44C504.19,273.43,500.95,273.54,497.96,272.28z"/>
	<path style="fill-rule:evenodd;clip-rule:evenodd;fill:#B32D30;" d="M509,274.44c-0.61,0.02-1.19-0.08-1.68-0.48
		C507.93,273.94,508.51,274.04,509,274.44z"/>
	<path style="fill-rule:evenodd;clip-rule:evenodd;fill:#343630;" d="M508.26,280.67c0.21-0.41,0.58-0.49,1-0.49
		c2.13-0.03,4.25,0.04,6.37,0.26c0.32,0.03,0.53,0.12,0.56,0.47l0,0.01c-0.07,0.08-0.14,0.09-0.23,0.03
		c-0.26,0.16-0.42,0.47-0.79,0.47c-1.86-0.02-3.73,0.02-5.59-0.05C509.11,281.33,508.54,281.21,508.26,280.67z"/>
	<path style="fill-rule:evenodd;clip-rule:evenodd;fill:#448A42;" d="M515.96,280.94c0.07-0.03,0.15-0.04,0.23-0.03
		C516.13,281.05,516.06,281.08,515.96,280.94z"/>
	<path style="fill-rule:evenodd;clip-rule:evenodd;fill:#DA9020;" d="M482.84,295.08c-0.16,0.06-0.31,0.13-0.47,0.19
		C482.53,295.21,482.68,295.14,482.84,295.08z"/>
	<path style="fill-rule:evenodd;clip-rule:evenodd;fill:#DA9020;" d="M481.42,295.57c-0.16,0.06-0.33,0.12-0.49,0.18
		C481.09,295.69,481.26,295.63,481.42,295.57z"/>
	<path style="fill-rule:evenodd;clip-rule:evenodd;fill:#DA9020;" d="M480.39,297.46c0.17-0.06,0.35-0.12,0.52-0.19
		C480.74,297.33,480.57,297.4,480.39,297.46z"/>
	<path style="fill-rule:evenodd;clip-rule:evenodd;fill:#DA9020;" d="M483.4,294.87c-0.1,0.05-0.21,0.11-0.31,0.16
		C483.19,294.98,483.29,294.92,483.4,294.87z"/>
	<path style="fill-rule:evenodd;clip-rule:evenodd;fill:#DA9020;" d="M481.1,297.22c0.1-0.06,0.2-0.12,0.29-0.18
		C481.3,297.1,481.2,297.16,481.1,297.22z"/>
	<path style="fill-rule:evenodd;clip-rule:evenodd;fill:#DA9020;" d="M482.13,295.32c-0.08,0.05-0.16,0.1-0.24,0.15
		C481.97,295.42,482.05,295.37,482.13,295.32z"/>
	<path style="fill-rule:evenodd;clip-rule:evenodd;fill:#DA9020;" d="M480.45,295.8c-0.08,0.05-0.16,0.1-0.24,0.15
		C480.29,295.91,480.37,295.85,480.45,295.8z"/>
	<path style="fill-rule:evenodd;clip-rule:evenodd;fill:#C2BCC0;" d="M443.24,277.33c-0.72,0.08-1.44,0.16-2.15,0.24
		C441.74,276.94,442.46,276.9,443.24,277.33z"/>
	<path style="fill-rule:evenodd;clip-rule:evenodd;fill:#C2BCC0;" d="M443.45,277.31c-0.06,0.16-0.13,0.14-0.21,0.02
		C443.31,277.32,443.38,277.31,443.45,277.31z"/>
	<path style="fill-rule:evenodd;clip-rule:evenodd;fill:#DEDADD;" d="M444.05,260.94c1.69,0.32,3.53,0.67,5.36,1.03
		c0.19,0.04,0.42,0.09,0.4,0.35c0,0.05-0.25,0.12-0.38,0.12c-2.05-0.04-4.02-0.53-5.97-1.15c-0.11-0.04-0.19-0.18-0.28-0.28
		C443.41,260.99,443.65,260.98,444.05,260.94z"/>
	<path style="fill-rule:evenodd;clip-rule:evenodd;fill:#DDDADF;" d="M514.99,279.2c-1.58,0.04-3.17,0.16-4.74-0.14
		c-0.26-0.05-0.77,0.07-0.73-0.28c0.04-0.34,0.54-0.2,0.84-0.19c1.78,0.06,3.55,0.14,5.33,0.21
		C515.72,279.4,515.15,278.94,514.99,279.2z"/>
	<path style="fill-rule:evenodd;clip-rule:evenodd;fill:#B7AEB5;" d="M514.99,279.2c0.23-0.13,0.47-0.27,0.7-0.4
		c0.14,0.04,0.28,0.08,0.42,0.12c-0.06,0.08-0.11,0.22-0.17,0.23C515.63,279.19,515.31,279.19,514.99,279.2z"/>
	<path style="fill-rule:evenodd;clip-rule:evenodd;fill:#DCD8DE;" d="M480.61,296.88c-0.12,0.05-0.29,0.03-0.3-0.16
		c0-0.11,0.14-0.3,0.26-0.34c2.21-0.76,4.43-1.51,6.66-2.24c0.11-0.04,0.27,0.07,0.4,0.12c-0.07,0.09-0.12,0.23-0.22,0.26
		C485.17,295.3,482.91,296.08,480.61,296.88z"/>
	<path style="fill-rule:evenodd;clip-rule:evenodd;fill:#CFCACE;" d="M514.28,281.11c-1.55-0.06-3.1-0.1-4.65-0.17
		c-0.21-0.01-0.53,0.05-0.52-0.29c0-0.06,0.41-0.15,0.62-0.14c1.59,0.07,3.18,0.16,4.77,0.24
		C514.57,280.95,514.45,281.05,514.28,281.11z"/>
	<path style="fill-rule:evenodd;clip-rule:evenodd;fill:#C6BFC2;" d="M514.28,281.11c0.07-0.12,0.15-0.25,0.22-0.37
		c0.21,0.02,0.59-0.03,0.53,0.21C514.95,281.31,514.55,281.12,514.28,281.11z"/>
</g>
</svg>
