<?xml version="1.0" encoding="utf-8"?>
<!-- Generator: Adobe Illustrator 16.0.0, SVG Export Plug-In . SVG Version: 6.00 Build 0)  -->
<!DOCTYPE svg PUBLIC "-//W3C//DTD SVG 1.0//EN" "http://www.w3.org/TR/2001/REC-SVG-20010904/DTD/svg10.dtd" [
	<!ENTITY ns_flows "http://ns.adobe.com/Flows/1.0/">
	<!ENTITY ns_extend "http://ns.adobe.com/Extensibility/1.0/">
	<!ENTITY ns_ai "http://ns.adobe.com/AdobeIllustrator/10.0/">
	<!ENTITY ns_graphs "http://ns.adobe.com/Graphs/1.0/">
]>
<svg version="1.0" id="Layer_1" xmlns:x="&ns_extend;" xmlns:i="&ns_ai;" xmlns:graph="&ns_graphs;"
	 xmlns="http://www.w3.org/2000/svg" xmlns:xlink="http://www.w3.org/1999/xlink" xmlns:a="http://ns.adobe.com/AdobeSVGViewerExtensions/3.0/"
	 x="0px" y="0px" width="960px" height="560px" viewBox="0 0 960 560" style="enable-background:new 0 0 960 560;"
	 xml:space="preserve">
<g>
	<path style="fill-rule:evenodd;clip-rule:evenodd;fill:#010101;" d="M478.59,289.39c-0.02-0.48-0.01-0.96-0.07-1.43
		c-0.04-0.32,0.23-0.88-0.19-0.91c-0.41-0.03-0.96-0.02-1.28,0.57c-0.65,1.19-3.04,2.14-3.98,1.69c-1.29-0.63-2.16-2.76-1.68-4.27
		c0.33-1.03,1.29-1.43,2.17-1.58c0.93-0.17,2.04-0.21,2.58,0.96c0.23,0.49,0.42,0.93,1.17,0.95c0.96,0.03,1.45-0.08,1.13-1.18
		c-0.16-0.55-0.11-1.24,0.28-1.59c1.06-0.96,0.89-2.05,0.87-3.31c-0.09-5.31-0.28-10.6-0.67-15.9c-0.05-0.72-0.25-0.93-0.97-0.92
		c-3.22,0.06-6.44,0.09-9.66,0.07c-1.23-0.01-2.47-0.12-3.7-0.25c-0.93-0.1-2.83-2.3-2.89-3.25c-0.03-0.48,0.18-0.68,0.64-0.58
		c1.36,0.3,1.35-0.36,1.19-1.44c-0.78-5.55-0.65-11.13-0.43-16.71c0.01-0.19,0.08-0.38,0.13-0.57c0.23-0.08,0.4,0.02,0.55,0.17
		c0.08,0.11,0.14,0.23,0.18,0.36c0.21,3.31-0.01,6.63,0.06,9.94c0.04,2.28,0.38,4.53,0.82,6.77c0.18,0.9,0.74,1.19,1.56,1.07
		c1.31-0.19,2.63-0.23,3.95-0.22c0.66,0,1.11-0.2,0.96-0.98c-0.02-0.4-0.08-0.8-0.04-1.2c0-0.2,0-0.4,0-0.61
		c0.04-0.55-0.05-1.09-0.2-1.62c-0.09-2.03-0.17-4.06-0.32-6.09c-0.04-0.51-0.04-1.04,0.24-1.51c0.09-0.13,0.22-0.18,0.38-0.16
		c0.82,0.54,0.83,1.43,0.84,2.25c0.02,2.84,0.64,5.63,0.82,8.46c0.08,1.23,0.36,1.46,1.59,1.44c1.87-0.04,3.75,0.2,5.61-0.11
		c1.89-0.07,3.79-0.18,5.68-0.01c0.6,0.23,1.24,0.15,1.86,0.2c0.29,0.13,0.81,0.06,0.59,0.65c-1.53,0.74-3.17,0.52-4.78,0.5
		c-3.49,0.22-6.99,0.38-10.48,0.35c-2.11-0.02-4.2,0.18-6.3,0.17c-1.05-0.09-2.11-0.06-3.16-0.03c-0.11,0.03-0.23,0.05-0.34,0.08
		c-0.09,0.03-0.23,0.05-0.22,0.15c0.02,0.15-0.05,0,0.11-0.03c0.12,0.04,0.22,0.09,0.32,0.17c0.65,0.85,1.49,1.27,2.55,1.37
		c3.03,0.28,6.06,0.17,9.09,0.09c1.55-0.04,3.1-0.29,4.66-0.05c1.19,0.12,2.38,0.14,3.56,0.1c3.54-0.13,7.07-0.32,10.6-0.57
		c2.38-0.17,4.76-0.42,7.15-0.36c0.4,0.01,0.8,0.02,1.19-0.06c0.49-0.09,1.01-0.23,1-0.83c-0.01-0.66-0.65-0.39-1.02-0.53
		c-2.41-0.45-4.85-0.14-7.27-0.22c-0.59-0.02-1.2,0.07-1.74-0.28c-0.27-0.33-0.04-0.53,0.18-0.73c0.91-0.41,1.89-0.19,2.83-0.25
		c1.17-0.07,1.37-0.29,1.27-1.48c-0.03-0.4-0.12-0.79-0.21-1.18c-1.05-4.51-0.91-9.09-1.02-13.67c-0.07-3.11-0.12-6.21-0.17-9.32
		c-0.01-0.66-0.32-1.03-0.97-1.15c-0.9-0.17-1.81-0.28-2.73-0.28c-1.36,0-2.71,0.03-4.07-0.01c-1.37-0.08-2.75,0.19-4.11-0.13
		c-0.29-0.13-0.49-0.33-0.43-0.69c4.15-0.16,8.29-0.17,12.43,0.17c0.65,0.05,0.87,0.23,0.78,0.84c-0.03,0.24-0.04,0.48-0.05,0.72
		c-0.11,2.31,0.45,2.8,2.79,2.44c0.43-0.07,0.86-0.13,1.29-0.2c2.15-0.34,2.49-0.1,2.61,2.12c0.32,6.09,0.45,12.18,0.23,18.27
		c-0.05,1.46-0.14,2.95,0.89,4.28c0.63,0.81-0.89,3.1-2.02,3.15c-3.26,0.15-6.53,0.24-9.79,0.54c-3.41,0.31-6.85,0.39-10.28,0.52
		c-0.71,0.03-0.86,0.23-0.83,0.9c0.21,5.57,0.03,11.21,0.67,16.7c0.53,4.6,0.78,9.21,1.09,13.8c0.37,5.3,1.03,10.63,0.62,15.98
		c-0.14,1.85-0.34,3.77-0.14,5.54c0.11,0.94,0.7,2.45,1.93,3.25c3.8,2.48,7.52,5.09,11.62,7.08c0.33,0.16,0.98,0.15,0.75,0.84
		c-0.19,0.58-0.62,0.67-1.2,0.71c-4.12,0.32-8.2-0.44-12.32-0.27c-0.78,0.03-0.96,0.2-0.88,0.92c0.05,0.55-0.01,1.12-0.08,1.67
		c-0.16,1.2-1.41,2-2.59,1.73c-0.54-0.13-0.52-0.58-0.56-0.93c-0.09-0.95-0.14-1.91-0.16-2.87c-0.02-0.73-0.28-0.99-1.02-0.7
		c-2.91,1.16-6.03,1.71-8.88,3.04c-0.22,0.1-0.45,0.27-0.66,0.25c-0.75-0.06-1.7,0.22-2.13-0.6c-0.41-0.79,0.48-1.17,0.9-1.6
		c0.84-0.84,1.8-1.56,2.71-2.33c0.22-0.08,0.3,0.05,0.36,0.23c0,0.51-0.39,0.76-0.73,1.02c-0.6,0.47-1.11,1.03-1.64,1.57
		c-0.08,0.08-0.21,0.2-0.12,0.3c0.06,0.06,0.2-0.08,0.28-0.15c0.38-0.35,0.75-0.72,1.11-1.09c2.6-2.7,5.39-5.21,7.88-8.03
		c0.45-0.51,0.11-0.71,0.03-1.06c0.03-0.81,0.14-1.59,0.83-2.13c0.35-0.28,0.25-0.61,0.23-0.97c-0.31-6.19-0.6-12.38-0.9-18.58
		c-0.03-0.67-0.1-1.34-0.15-2.02c-0.03-0.76-0.4-1.55,0.2-2.25c0.39,0.25,0.39,0.67,0.44,1.06c0.28,2.06,0.43,4.12,0.49,6.2
		c0.07,2.54,0.04,5.09,0.35,7.61c0.09,1.85,0.36,3.68,0.35,5.54c0,0.87,0.04,1.74,0.41,2.54c0.66,0.54,1.26,0.3,1.84-0.17
		c0.1-0.12,0.19-0.25,0.28-0.38c0.21-0.42,0.12-0.86,0.13-1.3c0-0.12,0-0.24,0-0.36c0-0.26,0-0.51-0.03-0.77
		c0.04-4.1,0.24-8.19-0.22-12.27c-0.01-0.58,0.06-1.17-0.07-1.75c-0.02-0.12-0.03-0.25-0.02-0.38c0.13-0.6,0.14-1.2-0.06-1.79
		c-0.1-0.49-0.07-0.98-0.08-1.47c0.01-0.37-0.01-0.73-0.14-1.08c-0.05-0.19-0.08-0.37-0.09-0.56c-0.02-0.26-0.04-0.52-0.02-0.78
		c-0.02-1.04,0.09-2.09-0.09-3.12c-0.25-1.53-0.06-3.08-0.19-4.61c-0.07-0.89-0.08-1.89-1.3-2.09c-0.44,0-0.87,0.05-1.21,0.39
		c-0.51,0.87-0.56,1.82-0.5,2.8c-0.14,0.76-0.05,1.52-0.09,2.28C479.02,288.51,479.36,289.18,478.59,289.39z"/>
	<path style="fill-rule:evenodd;clip-rule:evenodd;fill:#D79E43;" d="M471.58,255.56c0.01,0.4,0.03,0.81,0.04,1.21
		c-1.18,0.22-2.35,0.38-3.51-0.14c-0.52-0.23-0.98-0.52-1.37-0.94c-1.64-1.79-2.37-6.53-1.33-8.7c0.28-0.58,0.54-1.16,0.66-1.79
		c0.27-1.56,0.03-2.95-1.35-3.94c-0.47-0.34-0.81-0.76-1.02-1.3l-0.05,0.01c-0.28-1.14-0.53-2.26-0.37-3.46
		c0.06-0.46,0.33-1-0.1-1.46l0.01,0.01c-0.26-0.61,0.08-0.81,0.6-0.84c1.98-0.08,3.96-0.12,5.95-0.15c0.47-0.01,0.79,0.21,0.9,0.63
		c0.36,1.4,0.58,2.8,0.11,4.22c-0.38,0.29-0.49-0.06-0.58-0.3c-0.17-0.41-0.15-0.86-0.14-1.29c0.17-0.83-0.18-1.36-0.93-1.71
		c-1.06-0.49-2.11-0.51-3.05,0.19c-1.87,1.38-1.82,3.16,0.15,4.43c1.2,0.78,1.7,1.77,1.68,3.19c-0.02,1.61-0.03,3.18-0.99,4.6
		c-0.39,0.57-0.42,1.26-0.32,1.96c0.17,1.19,0.47,2.35,0.78,3.5c0.38,1.41,1.39,2.09,2.86,1.93
		C470.69,255.38,471.16,255.16,471.58,255.56z"/>
	<path style="fill-rule:evenodd;clip-rule:evenodd;fill:#75838D;" d="M478.76,318.42c0.97,0.32,0.96,0.3,0.06,1.38
		c-2.79,3.33-6.16,6.09-9.1,9.27c-0.21,0.22-0.47,0.69-0.87,0.31c-0.4-0.37,0.01-0.65,0.25-0.88c0.91-0.89,1.83-1.75,2.75-2.63
		c0.55-1,1.44-1.69,2.22-2.46c1.3-1.29,2.54-2.64,3.95-3.81c0.21-0.17,0.48-0.34,0.31-0.69
		C478.47,318.75,478.62,318.59,478.76,318.42z"/>
	<path style="fill-rule:evenodd;clip-rule:evenodd;fill:#3D3833;" d="M470.59,238.99c0.07-1.32,0.02-2.63-0.16-3.93
		c-0.06-0.45-0.13-0.79-0.67-0.77c-1.95,0.05-3.89,0.11-5.84,0.15c-0.44,0.01-0.66,0.2-0.72,0.62c-0.73-1.02,0.12-1.05,0.73-1.09
		c1.78-0.09,3.58-0.21,5.36-0.13c0.96,0.04,1.16-0.29,1.16-1.12c0-0.83-0.11-2.3,0.19-2.39c1.21-0.39,2.55-0.28,3.84,0.01
		c0.08,0.12,0.07,0.24-0.02,0.35c-0.57,0.39-1.23,0.28-1.85,0.27c-0.98-0.02-1.35,0.45-1.37,1.37c-0.02,0.95,0.18,1.9,0.09,2.85
		c-0.31,1.19,0.39,2.4-0.08,3.59c-0.1,0.24-0.22,0.47-0.51,0.53C470.6,239.23,470.55,239.13,470.59,238.99z"/>
	<path style="fill-rule:evenodd;clip-rule:evenodd;fill:#0E0E0C;" d="M478.33,318.92c0.63,0.2,0.33,0.49,0.06,0.75
		c-2.18,2.08-4.36,4.15-6.55,6.22c-0.08-0.08-0.16-0.16-0.24-0.24C473.66,323.22,476.03,321.11,478.33,318.92z"/>
	<path style="fill-rule:evenodd;clip-rule:evenodd;fill:#473F3B;" d="M463.19,235.04c0.74-0.18,0.53,0.4,0.48,0.69
		c-0.27,1.42-0.06,2.82-0.01,4.23c-0.15-0.08-0.29-0.15-0.44-0.23C463.04,238.17,462.93,236.6,463.19,235.04z"/>
	<path style="fill-rule:evenodd;clip-rule:evenodd;fill:#21211F;" d="M479.02,292.53c-0.43,0.69-0.05,1.48-0.25,2.19
		c-0.36-1.77-0.19-3.55-0.18-5.33c0.39-0.43,0.1-0.97,0.22-1.44c0.17,0,0.35,0.07,0.38,0.22
		C479.51,289.64,479.77,291.11,479.02,292.53z"/>
	<path style="fill-rule:evenodd;clip-rule:evenodd;fill:#535657;" d="M474.47,230.56c-0.01-0.08,0-0.16,0-0.23
		c0.89-0.38,1.83-0.23,2.75-0.22c0.27-0.12,0.57-0.07,0.85-0.17c0.08,0,0.17-0.01,0.25-0.01c0.18,0.07,0.34,0.16,0.31,0.4
		c-0.06,0.12-0.16,0.2-0.27,0.27c-0.12,0.06-0.24,0.1-0.37,0.14C476.8,230.88,475.61,231.33,474.47,230.56z"/>
	<path style="fill-rule:evenodd;clip-rule:evenodd;fill:#4C4C4B;" d="M478.56,230.32c0-0.07-0.01-0.14-0.01-0.21
		c-0.06-0.05-0.08-0.1-0.06-0.14c0.02-0.04,0.04-0.07,0.06-0.07c0.38-0.02,0.77-0.03,1.15-0.05c0.96-0.27,1.96,0.06,2.92-0.18
		c0.41,0,0.81,0,1.22,0c0.08,0.13,0.16,0.27,0.24,0.4c-0.64,0.64-1.45,0.35-2.19,0.42c-0.26-0.01-0.52-0.04-0.78-0.03
		c-0.12,0.01-0.25,0.01-0.37,0.01c-0.41-0.03-0.82-0.03-1.23-0.03c-0.22,0-0.45,0.03-0.67,0.03
		C478.73,230.47,478.64,230.41,478.56,230.32z"/>
	<path style="fill-rule:evenodd;clip-rule:evenodd;fill:#575A5A;" d="M482.64,229.68c-0.95,0.42-1.95,0.13-2.92,0.18
		C480.67,229.55,481.66,229.74,482.64,229.68z"/>
	<path style="fill-rule:evenodd;clip-rule:evenodd;fill:#575A5A;" d="M478.07,229.93c-0.24,0.25-0.55,0.16-0.85,0.17
		C477.51,230.05,477.79,229.99,478.07,229.93z"/>
	<path style="fill-rule:evenodd;clip-rule:evenodd;fill:#575A5A;" d="M478.56,229.91c0,0.07-0.01,0.14-0.01,0.21
		c-0.08-0.07-0.15-0.13-0.23-0.2C478.4,229.92,478.48,229.91,478.56,229.91z"/>
	<path style="fill-rule:evenodd;clip-rule:evenodd;fill:#CCE4EF;" d="M488.4,230.14c2.39-0.1,4.77-0.05,7.15,0.22
		c0.78,0.09,0.9,0.5,0.92,1.2c0.2,6.33,0.09,12.68,0.57,19c0.13,1.79,0.51,3.53,0.9,5.28c0.42,1.87,0.22,2.06-1.64,2.09
		c-0.95,0.01-1.91,0.05-2.86,0.08c-0.48,0.27-1,0.32-1.54,0.3c-0.92-0.1-1.83,0.18-2.75,0.01c-0.26-0.07-0.5-0.21-0.77-0.22
		c-0.25-0.01-0.51-0.05-0.74,0.08c-0.56-0.06-1.13-0.12-1.69-0.18c0.68-0.73,1.59-1.07,2.51-1.3c2.51-0.63,4.07-2.42,5.5-4.37
		c0.69-0.94,0.75-2.03,0.3-3.08c-0.58-1.38-0.46-2.68,0.01-4.07c0.77-2.26,0.68-4.65,0.68-6.99c0-1.36-1.02-2.29-2.05-3.09
		c-0.88-0.69-1.85-1.27-2.45-2.26c-0.13-0.19-0.29-0.37-0.45-0.55c-0.54-0.39-1.19-0.58-1.75-0.92c-0.3-0.18-0.67-0.34-0.66-0.74
		C487.6,230.07,488.16,230.36,488.4,230.14z"/>
	<path style="fill-rule:evenodd;clip-rule:evenodd;fill:#CCE4EF;" d="M480.32,258c-2.28,0.35-4.58,0.12-6.87,0.22
		c-0.65,0.03-0.67-0.46-0.69-0.89c-0.19-3.08-0.99-6.1-0.83-9.22c0.04-0.82-0.09-1.66-0.6-2.37c-0.4-1.67-0.4-3.38-0.53-5.07
		c0-0.13,0.01-0.26,0.03-0.39c0.01-0.13,0.04-0.25,0.08-0.37c0.19-0.37,0.15-0.96,0.71-1c0.59-0.04,0.91,0.43,1.18,0.88
		c0.33,0.54,0.39,1.14,0.29,1.74c-0.29,1.65,0.37,2.95,1.41,4.13c0.18,0.14,0.37,0.28,0.51,0.47c0.29,1.27-0.16,2.63,0.44,3.87
		c0.04,0.16,0.07,0.32,0.09,0.48c0.07,0.52,0.42,0.98,0.37,1.53c-0.03,0.24-0.04,0.49,0.08,0.72c0.24,0.51,0.25,1.1,0.51,1.61
		c0.02,0.11,0,0.21-0.05,0.3c-0.03,0.02-0.06,0.04-0.1,0.06c-0.1,0.06-0.24-0.04-0.33,0.07c0.12-0.04,0.2,0.04,0.29,0.11
		c0.59,1.05,1.49,1.71,2.58,2.16C479.42,257.26,480.02,257.41,480.32,258z"/>
	<path style="fill-rule:evenodd;clip-rule:evenodd;fill:#CE8B31;" d="M463.71,239.95c0.85,0.88,2.13,1.33,2.56,2.61
		c0.49,1.48,0.37,2.92-0.39,4.27c-1.68,2.97-0.31,5.66,0.89,8.26c0.6,1.29,1.97,1.76,3.47,1.46c0.48-0.1,0.96-0.03,1.39,0.22
		c0.41,0.98,0.34,1.5-0.98,1.46c-1.67-0.05-3.34,0.11-5.01,0.23c-0.66,0.04-0.91-0.1-1.07-0.84
		C463.25,251.77,463.67,245.85,463.71,239.95z"/>
	<path style="fill-rule:evenodd;clip-rule:evenodd;fill:#DDEDF4;" d="M480.32,258c-1.23-0.6-2.62-0.92-3.59-1.99
		c-0.3-0.33-0.63-0.62-0.56-1.12c0.06-0.12,0.16-0.19,0.29-0.2c0.23-0.12,0.48-0.16,0.74-0.13c0.19,0.02,0.38,0.08,0.55,0.17
		c1.16,1.15,2.62,1.43,4.17,1.44c1.59,0.01,3.17,0.04,4.75-0.28c1.76-0.36,3.38-0.89,4.56-2.35c0.23-0.28,0.59-0.4,0.87-0.62
		c0.11-0.15,0.22-0.3,0.35-0.43c1.09-0.91,1.33-2.01,0.77-3.32c-0.48-1.12-0.5-2.27-0.01-3.37c1-2.26,0.81-4.68,1.02-7.04
		c0.1-1.1-0.49-2.07-1.39-2.78c-0.56-0.44-1.18-0.82-1.65-1.37c-0.11-0.13-0.21-0.27-0.32-0.4c-0.45-0.32-0.98-0.58-0.94-1.26
		c0.05-0.25,0.21-0.37,0.44-0.43c0.05-0.01,0.11-0.01,0.16-0.02c0.82,1.22,2.14,1.89,3.21,2.83c1.49,1.3,1.84,2.94,1.57,4.77
		c-0.32,2.15-0.14,4.37-1.09,6.43c-0.29,0.63-0.13,1.48,0.22,2.21c0.86,1.77,0.25,3.17-0.86,4.72c-1.93,2.68-4.83,3.47-7.64,4.53
		C484.07,257.99,482.2,257.99,480.32,258z"/>
	<path style="fill-rule:evenodd;clip-rule:evenodd;fill:#7C5127;" d="M502.31,258.69c0.57,0.14,1.55-0.46,1.63,0.52
		c0.08,0.91-0.47,1.62-1.62,1.63c-6.3,0-12.56,0.81-18.85,0.95c-1.25,0.03-2.5-0.13-3.75-0.2c0.15-0.74,0.75-1,1.36-1.21
		c1.93-0.66,3.88-1.21,5.96-1.13c4.03,0.16,8.05-0.34,12.08-0.27C500.18,259,501.25,258.78,502.31,258.69z"/>
	<path style="fill-rule:evenodd;clip-rule:evenodd;fill:#8E5D2A;" d="M502.31,258.69c-1.21,0.32-2.38,0.72-3.67,0.73
		c-4.33,0.02-8.67,0.03-13,0.27c-2.07,0.11-4.17,0.58-5.92,1.9c-4.08,0.07-8.16,0.35-12.25,0.18c-1.81-0.07-3.62-0.12-4.52-2.13
		c0.4-0.27,0.82-0.27,1.24-0.04c1.38,0.75,2.89,0.84,4.41,0.86c3.27,0.05,6.53-0.08,9.79-0.45c1.8-0.2,3.47-0.84,5.2-1.3
		c1.59-0.1,3.19-0.2,4.78-0.3c1.01-0.3,2.06-0.16,3.09-0.22c0.59,0.05,1.2-0.14,1.76,0.2C496.25,258.55,499.3,258.11,502.31,258.69z
		"/>
	<path style="fill-rule:evenodd;clip-rule:evenodd;fill:#C3CBD2;" d="M483.15,315.43c-0.48,1.08-1.4,0.49-2.15,0.57
		c0.65-3.15-0.25-6.26-0.28-9.39c-0.02-2.71-0.07-5.42-0.12-8.13c-0.07-3.55,0.13-7.1-0.22-10.65c-0.1-1-0.48-1.93-0.68-2.91
		c-0.15-0.75-0.27-1.49-0.19-2.25c0.32-0.38,0.72-0.53,1.21-0.46c0.56,0.28,0.59,0.81,0.61,1.33c0.03,0.6-0.02,1.21,0.18,1.78
		c0.81,2.3,0.87,4.68,0.77,7.07c-0.16,3.71,0.28,7.39,0.46,11.08c0.09,1.79-0.32,3.56-0.26,5.37c0.06,1.76,0.11,3.5,0.69,5.18
		C483.33,314.5,483.34,314.97,483.15,315.43z"/>
	<path style="fill-rule:evenodd;clip-rule:evenodd;fill:#CC8830;" d="M497.27,238.27c-0.07-1.07-0.08-2.15-0.23-3.21
		c-0.13-0.86,0.31-0.97,0.92-0.85c1.32,0.25,2.61,0.07,3.9-0.21c1.08-0.23,1.06,0.58,1.16,1.21c0.41,2.53,0.3,5.07,0.23,7.61
		c-0.79-0.06-1.29-0.58-1.69-1.16c-0.87-1.24-1.94-2.19-3.4-2.66C497.77,238.88,497.48,238.63,497.27,238.27z"/>
	<path style="fill-rule:evenodd;clip-rule:evenodd;fill:#5A6067;" d="M479.52,282.68c0.73,2.65,1.49,5.27,1.45,8.08
		c-0.07,4.15-0.08,8.31,0.04,12.46c0.1,3.3,0.14,6.61,0.61,9.9c0.14,0.98,0.38,2.1-0.62,2.89c-0.95-0.54-0.67-1.52-0.73-2.31
		c-0.17-2.09-0.2-4.19-0.28-6.28c-0.21-1.58,0.07-3.16-0.03-4.74c-0.21-3.25,0.08-6.52-0.31-9.77c-0.1-0.87-0.07-1.75-0.04-2.63
		c0.06-1.61-0.09-3.18-0.58-4.71C478.58,284.5,479.04,283.58,479.52,282.68z"/>
	<path style="fill-rule:evenodd;clip-rule:evenodd;fill:#99A2A9;" d="M496.42,326.66c-2.91,0.56-5.8-0.26-8.71-0.1
		c-0.24,0.01-0.48-0.01-0.72-0.01c-3.29,0.02-3.29,0.02-3.36-3.32c0.09-0.1,0.17-0.19,0.25-0.3c1.03-0.83,2.19-0.64,3.28-0.29
		c1.62,0.53,3.17,1.22,4.84,1.59c0.5,0.11,0.98,0.36,1.4,0.65C494.37,325.55,495.31,326.23,496.42,326.66z"/>
	<path style="fill-rule:evenodd;clip-rule:evenodd;fill:#F0CE89;" d="M471.14,245.73c0.08,2.64,0.17,5.27,0.25,7.91
		c0.12,0.27,0.12,0.54-0.02,0.8c-0.62,0.62-1.33,0.86-2.17,0.49c-0.86-0.38-1.04-1.11-1.09-1.96c-0.13-2-0.2-3.97,0.55-5.89
		c0.34-0.86,0.2-1.82,0.16-2.73c-0.06-1.49,0.59-2.59,1.71-3.48c0.33,0.12,0.32,0.41,0.34,0.68c-0.03,0.41,0.06,0.8,0.22,1.18
		C470.97,243.73,471.49,244.72,471.14,245.73z"/>
	<path style="fill-rule:evenodd;clip-rule:evenodd;fill:#A36C2F;" d="M483.59,258.72c-1.33,1.09-2.98,1.39-4.58,1.6
		c-3.26,0.43-6.56,0.59-9.85,0.52c-1.86-0.04-3.75,0.07-5.39-1.1c-0.19-0.14-0.54-0.07-0.82-0.09l0,0
		c-0.06-0.08-0.06-0.16,0.01-0.24c0.07-0.03,0.13-0.04,0.21-0.02c1.12-0.27,2.26,0.05,3.38-0.17
		C472.23,259.04,477.91,258.88,483.59,258.72z"/>
	<path style="fill-rule:evenodd;clip-rule:evenodd;fill:#D5DCE2;" d="M483.15,315.43c-0.91-2.8-1.19-5.68-0.98-8.6
		c0.45-6-0.5-11.97-0.34-17.97c0.06-2.19-0.95-4.38-1.11-6.64c1.11-0.11,1.63,0.31,1.76,1.5c0.2,1.78,0.17,3.55,0.19,5.33
		c0.21,1.15-0.06,2.33,0.16,3.48c0.01,0.24,0.01,0.48,0.02,0.73c0.16,2.81,0.24,5.62,0.42,8.42c0.13,2.02,0.24,4.04-0.29,6.06
		c-0.46,1.77-0.17,3.57,0.38,5.31c0.05,0.13,0.11,0.25,0.19,0.36c0,0.08,0,0.16,0,0.24c-0.21,0.48,0.05,1.01-0.18,1.49
		C483.3,315.23,483.23,315.33,483.15,315.43z"/>
	<path style="fill-rule:evenodd;clip-rule:evenodd;fill:#E0B261;" d="M503.31,244.03c0,0.16,0,0.33-0.01,0.49
		c-0.66,0.51-1.53,0.42-2.25,0.76c-0.93,0.45-1.38,1.17-0.91,2.02c0.9,1.61,1.5,3.35,2.43,4.93c0.16,0.28,0.38,0.51,0.66,0.69
		c-0.01,0.17-0.01,0.33-0.02,0.5c-0.11,0.18,0.02,0.5-0.32,0.54c-1.12-0.45-1.5-1.54-1.91-2.48c-0.61-1.38-1.3-2.37-3-2.06
		c-0.22,0.04-0.36-0.14-0.44-0.33c-0.38-2.72-0.25-5.45-0.24-8.18c0.3-0.6,0.77-0.47,1.23-0.26c0.52,0.24,1.01,0.6,1.22,1.11
		C500.44,243.34,501.65,244.02,503.31,244.03z"/>
	<path style="fill-rule:evenodd;clip-rule:evenodd;fill:#CD8830;" d="M503.24,254.85c0.01,0.12,0.05,0.24,0.03,0.36
		c-0.17,0.92,0.78,2.37,0,2.63c-1.24,0.4-2.74,0-4.13-0.09c-0.29-0.02-0.36-0.27-0.4-0.52c-0.38-2.23-0.76-4.46-1.14-6.69
		c1.62,0.08,2.54,1.05,3.23,2.41C501.31,253.92,502.03,254.73,503.24,254.85z"/>
	<path style="fill-rule:evenodd;clip-rule:evenodd;fill:#E0B15C;" d="M471.58,255.56c-0.35,0.05-0.71,0.09-1.05,0.16
		c-1.74,0.36-3.08-0.46-3.5-2.19c-0.31-1.27-0.59-2.55-0.86-3.83c-0.2-0.94,0.3-1.71,0.74-2.45c1.02-1.72,0.63-3.55,0.46-5.35
		c-0.07-0.74-0.85-1.03-1.41-1.38c-1.12-0.7-1.8-1.62-1.54-2.97c0.23-1.17,1.05-1.94,2.12-2.39c1.32-0.54,2.49-0.14,3.56,0.7
		c0.43,0.34,0.24,0.8,0.27,1.22c-0.62,0.27-0.84-0.27-1.14-0.6c-0.65-0.69-1.36-0.92-2.26-0.51c-0.96,0.44-1.56,1.3-1.52,2.22
		c0.03,0.76,0.34,1.28,1.1,1.52c0.38,0.11,0.76,0.24,1.13,0.4c0.79,0.35,1.18,0.95,1.03,1.82c-0.16,0.95-0.17,1.91-0.14,2.87
		c0.04,1.18-0.2,2.27-0.71,3.35c-0.96,2.03-0.15,4.01,0.44,5.92c0.25,0.79,1.16,1.19,2.11,0.9c0.27-0.08,0.52-0.2,0.81-0.12
		c0.12,0.05,0.22,0.12,0.31,0.21C471.57,255.24,471.58,255.4,471.58,255.56z"/>
	<path style="fill-rule:evenodd;clip-rule:evenodd;fill:#73818B;" d="M481.21,325.9c0.11-2.02,0.13-4.04,0-6.07
		c-0.03-0.5-0.07-1.16,0.66-1.19c0.91-0.05,0.51,0.72,0.56,1.15c0.35,2.68,0.64,5.37,1.01,8.05c0.1,0.74-0.05,1.43-0.1,2.14
		c-0.06,0.92-0.84,0.68-1.38,0.77c-0.65,0.11-0.54-0.42-0.55-0.79C481.36,328.6,481.04,327.26,481.21,325.9z"/>
	<path style="fill-rule:evenodd;clip-rule:evenodd;fill:#9AA3AA;" d="M480.51,324.4c0.42,1.04,0.16,1.63-1,1.97
		c-2.8,0.82-5.56,1.76-8.34,2.65c-0.13,0.1-0.25,0.08-0.36-0.04c0.51-0.92,1.4-1.47,2.15-2.16c1.7-0.87,3.15-2.17,4.91-2.95
		c0.7-0.31,1.4-0.6,2.18-0.36C480.55,323.63,480.21,324.18,480.51,324.4z"/>
	<path style="fill-rule:evenodd;clip-rule:evenodd;fill:#D8EAF2;" d="M488.4,230.14c-0.48,0.27-0.98,0.52-0.06,0.92
		c0.68,0.3,1.32,0.68,1.97,1.02c-0.48,0.38-1.05,0.36-1.62,0.4c-3.54-1.48-6.96-1.05-10.3,0.68c-0.41,0.47-1.04,0.58-1.51,0.97
		c-0.28,0.1-0.56,0.12-0.83,0c-0.44-0.32-0.1-0.7-0.07-1.06c0.01-0.16,0.03-0.33,0.07-0.49c0.04-0.1,0.11-0.19,0.19-0.27
		c0.73-0.5,1.58-0.71,2.37-1.06c0.18-0.08,0.52-0.14,0.5-0.25c-0.05-0.23-0.37-0.11-0.55-0.22c-0.14-0.09-0.25-0.18-0.22-0.37
		c0.08-0.03,0.15-0.06,0.23-0.08c0.08,0,0.16,0,0.24,0c0.17-0.09,0.36-0.08,0.55-0.08c0.49-0.02,0.99,0.06,1.48-0.08l0.03,0
		c0.31,0.11,0.61,0.11,0.92,0c0.77-0.03,1.55-0.06,2.32-0.08C485.53,230.1,486.96,230.12,488.4,230.14z"/>
	<path style="fill-rule:evenodd;clip-rule:evenodd;fill:#4A4D50;" d="M479.03,285.56c0.9,0.64,0.93,1.65,0.95,2.57
		c0.12,4.81,0.16,9.61,0.27,14.42c0.04,1.63-0.1,3.25-0.25,4.87c-0.44-1.26-0.3-2.6-0.32-3.88c-0.04-3.68-0.36-7.34-0.65-11.01
		c-0.07-1.53,0.27-3.07-0.21-4.58C478.86,287.15,478.62,286.33,479.03,285.56z"/>
	<path style="fill-rule:evenodd;clip-rule:evenodd;fill:#CAD5DE;" d="M483.55,322.3c-0.14-1.02-0.31-2.03-0.42-3.05
		c-0.03-0.27-0.18-0.73,0.26-0.8c0.47-0.07,0.89-0.49,1.45-0.06c1.31,1.03,2.69,1.97,4.04,2.94c0.09,0.07,0.17,0.15,0.28,0.2
		c0.15,0.1,0.3,0.21,0.45,0.31c0.09,0.06,0.18,0.11,0.27,0.17c0.08-0.02,0.14,0,0.19,0.06c-0.2,0.73-0.74,0.55-1.23,0.46
		c-0.67-0.12-1.25-0.48-1.91-0.63C485.75,321.64,484.63,321.75,483.55,322.3z"/>
	<path style="fill-rule:evenodd;clip-rule:evenodd;fill:#DAE0E6;" d="M483.36,313.4c-1.32-2.03-1.16-4.24-0.59-6.41
		c0.57-2.18,0.31-4.35,0.25-6.53c-0.07-2.4-0.46-4.8-0.15-7.21c0.01,0.14,0.03,0.29,0.04,0.43c0.2,0.31-0.01,0.69,0.18,1
		c0.03,0.53,0.05,1.06,0.08,1.59c0.12,0.62,0.13,1.24-0.01,1.85l0,0.09c0.21,0.57-0.05,1.18,0.17,1.75
		c0.45,4.23,0.49,8.48,0.23,12.72C483.4,312.9,483.58,313.2,483.36,313.4z"/>
	<path style="fill-rule:evenodd;clip-rule:evenodd;fill:#979DA3;" d="M480.44,280.57c-0.49-1.03-0.13-2.11-0.13-3.16
		c-0.01-3.69-0.48-7.36-0.29-11.06c0.69-0.22,0.82,0.29,0.94,0.75c0.26,1.01,0.34,2.04,0.35,3.07c0.03,1.91-0.14,3.82,0.2,5.72
		C481.67,277.57,481.71,279.22,480.44,280.57z"/>
	<path style="fill-rule:evenodd;clip-rule:evenodd;fill:#F0CF89;" d="M503.27,244.76c-0.01,2.55-0.02,5.11-0.03,7.66
		c-0.71,0.02-0.88-0.56-1.13-1.04c-0.63-1.21-0.93-2.52-1.18-3.84C500.63,245.92,501.54,244.85,503.27,244.76z"/>
	<path style="fill-rule:evenodd;clip-rule:evenodd;fill:#A9B2BB;" d="M496.42,326.66c-0.98,0.03-1.72-0.3-2.48-1.03
		c-1.26-1.2-3.1-1.31-4.7-1.86c-1.21-0.41-2.34-1.19-3.74-1.04c-0.61,0.06-1.17,0.11-1.66,0.5c-0.03-1,0.37-1.46,1.46-1.47
		c0.87-0.01,1.73,0.13,2.55,0.49c1.56,0.68,3.2,1.14,4.87,1.51c0.97,0.58,1.93,1.15,2.9,1.73c0.1,0.05,0.19,0.09,0.29,0.14
		c0.07-0.02,0.13-0.01,0.18,0.04c0.09,0.09,0.19,0.18,0.33,0.19c0.06-0.02,0.11,0,0.15,0.05c0.1,0.1,0.2,0.19,0.35,0.19
		c0.06-0.02,0.1-0.01,0.13,0.05c0.09,0.09,0.19,0.18,0.33,0.2c0.14,0.04,0.27,0.09,0.17,0.28c-0.2,0.16-0.42,0.09-0.63,0.04
		C496.75,326.65,496.58,326.65,496.42,326.66z"/>
	<path style="fill-rule:evenodd;clip-rule:evenodd;fill:#E9C172;" d="M503.27,244.76c-2.09,0.85-2.31,1.34-1.79,3.62
		c0.34,1.47,0.64,2.93,1.76,4.04c0,0.16,0,0.33,0,0.49c-1.01,0.27-1.08-0.7-1.32-1.18c-0.68-1.34-1.16-2.77-2.01-4.04
		c-0.69-1.02-0.27-2.11,0.86-2.64c0.8-0.38,1.65-0.58,2.54-0.54C503.29,244.6,503.28,244.68,503.27,244.76z"/>
	<path style="fill-rule:evenodd;clip-rule:evenodd;fill:#CDD5DB;" d="M481.42,276c-0.79-1.65-0.38-3.42-0.46-5.14
		c-0.05-1.18,0.04-2.37-0.25-3.54c-0.1-0.43-0.15-0.88-0.7-0.97c-0.09-1.05-0.38-2.1-0.14-3.17c0.09-0.38,0.19-0.65,0.68-0.62
		c0.51,0.03,0.56,0.29,0.56,0.7c0.02,1.23,0.07,2.47,0.11,3.7c0.27,0.56-0.19,1.25,0.31,1.77c0.04,1.61,0.07,3.22,0.11,4.83
		c-0.15,0.03-0.26-0.03-0.3-0.18c-0.04-1.06-0.01-2.13-0.02-3.2c0-0.1,0.06-0.2,0.02-0.3c-0.22,0.08-0.02,0.22-0.01,0.3
		c0.09,1.17-0.25,2.36,0.2,3.51C481.55,274.46,481.7,275.24,481.42,276z"/>
	<path style="fill-rule:evenodd;clip-rule:evenodd;fill:#D3973E;" d="M497.27,238.27c2.69,0.62,4.11,2.88,5.98,4.57
		c0.02,0.24,0.04,0.48,0.06,0.72c-0.83,0.6-1.64,0.25-2.08-0.4c-0.97-1.43-2.02-2.72-3.63-3.45c-0.16-0.07-0.19-0.34-0.36-0.46
		C496.88,238.91,497.31,238.6,497.27,238.27z"/>
	<path style="fill-rule:evenodd;clip-rule:evenodd;fill:#D59A3F;" d="M503.24,254.85c-0.27,0.37-0.5,0.44-0.96,0.15
		c-0.88-0.56-1.43-1.35-1.95-2.2c-0.54-0.89-0.91-2.03-2.36-1.73c-0.09,0.02-0.26-0.34-0.39-0.52c-0.01-0.32-0.01-0.64-0.02-0.97
		c1.81-0.15,2.93,0.68,3.68,2.33c0.35,0.78,0.62,1.84,1.78,1.98c0.06-0.15,0.13-0.3,0.19-0.45
		C503.23,253.89,503.23,254.37,503.24,254.85z"/>
	<path style="fill-rule:evenodd;clip-rule:evenodd;fill:#DAA64F;" d="M497.24,239.25c1.76,0.74,3.23,1.75,4.07,3.58
		c0.34,0.75,1.22,0.79,2.01,0.72c0,0.16,0,0.32,0,0.48c-1.62,0.54-2.55,0.1-3.42-1.45c-0.55-0.98-1.06-2.15-2.58-1.68
		C497.29,240.35,497.26,239.8,497.24,239.25z"/>
	<path style="fill-rule:evenodd;clip-rule:evenodd;fill:#BFC9D2;" d="M492.71,323.75c-1.74,0.32-3.21-0.54-4.75-1.1
		c-1.1-0.4-2.15-0.83-3.35-0.43c-0.55,0.18-0.82,0.45-0.79,1.02l-0.1,0l-0.1,0c-0.02-0.31-0.05-0.62-0.07-0.93
		c1.2-1.55,2.69-0.76,4.1-0.51c0.8,0.14,1.51,1,2.41,0.3C491.04,322.5,491.88,323.12,492.71,323.75z"/>
	<path style="fill-rule:evenodd;clip-rule:evenodd;fill:#CBD6DF;" d="M473.73,286.89c-0.01-0.85,0.19-1.51,0.48-2.12
		c0.21-0.44,0.6-0.88,1.11-0.44c0.32,0.28,0.79,0.63,0.14,1.25c-0.76,0.72-0.64,1.41,0.53,1.66c0.17,0.04,0.33,0.13,0.5,0.19
		c-0.11,0.2-0.19,0.44-0.35,0.59c-0.5,0.47-1.17,0.66-1.76,0.39C473.73,288.11,473.78,287.37,473.73,286.89z"/>
	<path style="fill-rule:evenodd;clip-rule:evenodd;fill:#C9D4DD;" d="M477.83,322.01c0.33-0.38,0.64-0.8,1.01-1.15
		c0.54-0.53,0.86-1.29,1.62-1.6c0.03,0.74,0.05,1.48,0.08,2.22c0.12,0.57,0.04,1.15,0.06,1.72c0.01,0.13-0.03,0.24-0.13,0.34
		c-0.13,0.03-0.24,0-0.34-0.08c-0.35-0.44-0.74-0.59-1.34-0.48c-0.5,0.1-1.2,0.36-1.44-0.49l0,0c0.11-0.06,0.19-0.15,0.24-0.26
		l-0.01,0.01C477.69,322.21,477.76,322.11,477.83,322.01z"/>
	<path style="fill-rule:evenodd;clip-rule:evenodd;fill:#CAD1D8;" d="M481.07,318.03c-0.6-0.05-1.45,0.21-1.42-0.73
		c0.03-0.79,0.77-0.62,1.39-0.6c0.74,0.02,1.5-0.07,2.22-0.25c0.59-0.15,0.9,0.19,1.01,0.55c0.14,0.47-0.34,0.67-0.73,0.73
		C482.72,317.86,481.9,317.93,481.07,318.03z"/>
	<path style="fill-rule:evenodd;clip-rule:evenodd;fill:#DCA950;" d="M503.03,253.87c-0.59,0.67-0.85-0.12-1.07-0.35
		c-0.46-0.48-0.81-1.08-1.12-1.68c-0.56-1.08-1.05-2.19-2.63-1.84c-0.18,0.04-0.43-0.28-0.65-0.44c0-0.16-0.01-0.32-0.01-0.49
		c1.97-0.31,3.17,0.43,3.79,2.4C501.62,252.36,502.13,253.31,503.03,253.87z"/>
	<path style="fill-rule:evenodd;clip-rule:evenodd;fill:#ADB7BF;" d="M480.23,323.73c-1.48-0.14-2.68,0.55-3.83,1.33
		c-1.08,0.73-2.11,1.54-3.44,1.77c0.75-1.04,1.74-1.82,2.71-2.63c0.8-0.15,1.42-0.72,2.18-0.94c0.81-0.24,1.68-0.71,2.39,0.23l0,0
		c0.06,0.06,0.07,0.12,0.05,0.17C480.28,323.7,480.25,323.73,480.23,323.73z"/>
	<path style="fill-rule:evenodd;clip-rule:evenodd;fill:#CED5DB;" d="M481.44,273.56c0.07,0,0.14,0,0.2,0
		c0.02,2.42,0.05,4.83,0.07,7.25c0,0.34,0.06,0.65-0.52,0.66c-0.74,0.01-0.75-0.39-0.75-0.9c-0.01-0.61,0.17-1.08,0.6-1.58
		c0.75-0.85,0.29-1.99,0.38-3C481.43,275.18,481.43,274.37,481.44,273.56L481.44,273.56z"/>
	<path style="fill-rule:evenodd;clip-rule:evenodd;fill:#BEC9D1;" d="M480.24,323.47c-1-0.5-1.88-0.13-2.8,0.29
		c-0.54,0.24-1.02,1-1.77,0.42l0,0c0.11-0.05,0.17-0.16,0.25-0.24c0.48-0.48,0.95-0.96,1.43-1.44c0.53,0.45,1.12,0.26,1.69,0.13
		C479.75,322.47,480.22,322.65,480.24,323.47z"/>
	<path style="fill-rule:evenodd;clip-rule:evenodd;fill:#4A423B;" d="M471.14,245.73c-0.1-1.04-0.2-2.09-0.3-3.14
		c-0.16-0.32,0.03-0.7-0.17-1.01c-0.02-0.21-0.04-0.43-0.06-0.64c-0.42-0.59-0.44-1.16,0.08-1.7c0.09-0.19,0.17-0.37,0.26-0.56
		c0.56,0.34,0.24,0.83,0.21,1.27c-0.02,0.09-0.05,0.17-0.07,0.26c-0.06,0.08-0.06,0.15,0,0.23c-0.03,1.77,0.59,3.52,0.23,5.3
		l-0.09,0.01L471.14,245.73z"/>
	<path style="fill-rule:evenodd;clip-rule:evenodd;fill:#CED5DD;" d="M477.06,285.91c0.42,0.2,1.36-0.06,1.21,0.33
		c-0.26,0.65-1.21,0.43-1.88,0.49c-0.33,0.03-0.81-0.08-0.67-0.44C475.95,285.73,476.57,285.89,477.06,285.91z"/>
	<path style="fill-rule:evenodd;clip-rule:evenodd;fill:#3D3E3D;" d="M491.53,258.43c-1.05,0-2.1-0.01-3.15-0.01
		c-0.25-0.08-0.49-0.17-0.74-0.25c0.26-0.08,0.51-0.15,0.77-0.23c0.16-0.11,0.31-0.11,0.47,0c0.96,0.38,1.93-0.2,2.89,0.07
		C491.87,258.25,491.65,258.31,491.53,258.43z"/>
	<path style="fill-rule:evenodd;clip-rule:evenodd;fill:#586C84;" d="M472.6,287.52c-0.57-0.02-0.56-0.49-0.65-0.85
		c-0.09-0.34,0.13-0.43,0.42-0.34c0.34,0.11,0.8,0.08,0.7,0.7C473.01,287.35,472.98,287.56,472.6,287.52z"/>
	<path style="fill-rule:evenodd;clip-rule:evenodd;fill:#506778;" d="M471.94,285.32c0.03-0.29,0.25-0.48,0.55-0.37
		c0.27,0.1,0.81-0.13,0.76,0.48c-0.02,0.32-0.19,0.57-0.52,0.5C472.41,285.88,471.98,285.86,471.94,285.32z"/>
	<path style="fill-rule:evenodd;clip-rule:evenodd;fill:#8E5D2A;" d="M466.55,259.21c-1.11,0.39-2.26,0.12-3.38,0.17
		C464.28,259,465.42,259.22,466.55,259.21z"/>
	<path style="fill-rule:evenodd;clip-rule:evenodd;fill:#C3CBD2;" d="M482.84,292.52c-0.41-1.14-0.16-2.31-0.16-3.48
		C482.99,290.19,482.83,291.36,482.84,292.52z"/>
	<path style="fill-rule:evenodd;clip-rule:evenodd;fill:#181712;" d="M491.53,258.43c0.08-0.14,0.16-0.28,0.24-0.42
		c0.56,0,1.12,0,1.68-0.01c-0.07,0.13-0.15,0.26-0.22,0.39C492.65,258.41,492.09,258.42,491.53,258.43z"/>
	<path style="fill-rule:evenodd;clip-rule:evenodd;fill:#9AA3AA;" d="M480.4,323.46c0.04-0.66,0.09-1.32,0.14-1.98
		c0.31,0.93,0.21,1.85-0.02,2.77C480.28,324.02,480.37,323.73,480.4,323.46z"/>
	<path style="fill-rule:evenodd;clip-rule:evenodd;fill:#CED5DB;" d="M481.54,268.73c-0.65-0.5-0.23-1.18-0.31-1.77
		C481.7,267.49,481.36,268.15,481.54,268.73z"/>
	<path style="fill-rule:evenodd;clip-rule:evenodd;fill:#C3CBD2;" d="M483.15,298.12c0-0.62,0-1.24,0.01-1.85
		C483.43,296.88,483.36,297.5,483.15,298.12z"/>
	<path style="fill-rule:evenodd;clip-rule:evenodd;fill:#C3CBD2;" d="M483.32,299.96c-0.38-0.55-0.18-1.16-0.17-1.75
		C483.43,298.77,483.34,299.37,483.32,299.96z"/>
	<path style="fill-rule:evenodd;clip-rule:evenodd;fill:#54677A;" d="M472.82,288.21c0.56-0.48,0.52,0.25,0.76,0.39
		c0.03,0.02-0.02,0.25-0.03,0.25c-0.26,0-0.43-0.14-0.51-0.38C472.97,288.38,472.91,288.28,472.82,288.21z"/>
	<path style="fill-rule:evenodd;clip-rule:evenodd;fill:#D79E43;" d="M471.56,255.08h-0.11l-0.11,0c-0.19-0.24-0.19-0.48-0.02-0.73
		c0.02-0.24,0.04-0.47,0.06-0.71C471.7,254.09,471.57,254.59,471.56,255.08z"/>
	<path style="fill-rule:evenodd;clip-rule:evenodd;fill:#C3CBD2;" d="M483.38,315.13c0-0.5-0.17-1.02,0.18-1.49
		C483.6,314.15,483.7,314.67,483.38,315.13z"/>
	<path style="fill-rule:evenodd;clip-rule:evenodd;fill:#BEC9D1;" d="M480.4,323.46c0.04,0.26,0.08,0.53,0.11,0.79
		c0.04,0.05,0.04,0.1,0,0.15c-0.5-0.05-0.15-0.46-0.28-0.67c0-0.08,0.01-0.17,0.01-0.25C480.3,323.47,480.35,323.47,480.4,323.46z"
		/>
	<path style="fill-rule:evenodd;clip-rule:evenodd;fill:#C3CBD2;" d="M483.08,294.68c-0.31-0.29-0.21-0.65-0.18-1
		C483.18,293.97,483.07,294.33,483.08,294.68z"/>
	<path style="fill-rule:evenodd;clip-rule:evenodd;fill:#91AFC7;" d="M473.46,284c0.11,0.05,0.19,0.09,0.28,0.13
		c-0.1,0.09-0.19,0.21-0.31,0.25c-0.09,0.03-0.22-0.05-0.33-0.08C473.22,284.2,473.33,284.11,473.46,284z"/>
	<path style="fill-rule:evenodd;clip-rule:evenodd;fill:#C3CBD2;" d="M483.36,313.4c0.01-0.25-0.06-0.53,0.19-0.72
		c0,0.24,0,0.48,0.01,0.72C483.49,313.4,483.42,313.4,483.36,313.4z"/>
	<path style="fill-rule:evenodd;clip-rule:evenodd;fill:#919FA7;" d="M470.81,328.98c0.12,0.01,0.24,0.03,0.36,0.04
		c-0.14,0.09-0.27,0.26-0.47,0.11C470.7,329.13,470.77,329.03,470.81,328.98z"/>
	<path style="fill-rule:evenodd;clip-rule:evenodd;fill:#99A2A9;" d="M496.91,326.64c0.21-0.01,0.42-0.03,0.63-0.04
		C497.35,326.89,497.13,326.73,496.91,326.64z"/>
	<path style="fill-rule:evenodd;clip-rule:evenodd;fill:#BEC9D1;" d="M477.58,322.25c-0.08,0.09-0.16,0.17-0.24,0.26
		C477.42,322.42,477.5,322.34,477.58,322.25z"/>
	<path style="fill-rule:evenodd;clip-rule:evenodd;fill:#8E5D2A;" d="M462.96,259.41c0,0.08,0,0.16-0.01,0.24
		C462.81,259.56,462.68,259.48,462.96,259.41z"/>
	<path style="fill-rule:evenodd;clip-rule:evenodd;fill:#ABC9EB;" d="M472.82,288.21c0.07,0.09,0.15,0.17,0.22,0.26
		C472.96,288.39,472.89,288.3,472.82,288.21z"/>
	<path style="fill-rule:evenodd;clip-rule:evenodd;fill:#BFC9D2;" d="M489.16,321.54c-0.09-0.07-0.18-0.13-0.28-0.2
		C488.97,321.41,489.07,321.48,489.16,321.54z"/>
	<path style="fill-rule:evenodd;clip-rule:evenodd;fill:#BFC9D2;" d="M489.88,322.02c-0.09-0.06-0.18-0.11-0.27-0.17
		C489.7,321.91,489.79,321.97,489.88,322.02z"/>
	<path style="fill-rule:evenodd;clip-rule:evenodd;fill:#A7B0B7;" d="M495.9,325.62c-0.1-0.05-0.19-0.1-0.29-0.14
		C495.71,325.52,495.8,325.57,495.9,325.62z"/>
	<path style="fill-rule:evenodd;clip-rule:evenodd;fill:#A7B0B7;" d="M496.41,325.84c-0.11-0.06-0.22-0.13-0.33-0.19
		C496.19,325.72,496.3,325.78,496.41,325.84z"/>
	<path style="fill-rule:evenodd;clip-rule:evenodd;fill:#A7B0B7;" d="M496.92,326.08c-0.12-0.06-0.24-0.13-0.35-0.19
		C496.68,325.96,496.8,326.02,496.92,326.08z"/>
	<path style="fill-rule:evenodd;clip-rule:evenodd;fill:#A7B0B7;" d="M497.37,326.33c-0.11-0.07-0.22-0.13-0.33-0.2
		C497.15,326.19,497.26,326.26,497.37,326.33z"/>
	<path style="fill-rule:evenodd;clip-rule:evenodd;fill:#BEC9D1;" d="M477.83,322.01c-0.09,0.08-0.17,0.17-0.26,0.25
		C477.66,322.18,477.74,322.09,477.83,322.01z"/>
	<path style="fill-rule:evenodd;clip-rule:evenodd;fill:#ADB7BF;" d="M475.92,323.95c-0.08,0.08-0.17,0.16-0.25,0.24
		C475.75,324.11,475.83,324.03,475.92,323.95z"/>
	<path style="fill-rule:evenodd;clip-rule:evenodd;fill:#E7BE6F;" d="M471.33,254.35c0.01,0.24,0.01,0.49,0.02,0.73
		c-2.73,0.45-3.27-0.01-3.89-2.87c-0.38-1.76-0.59-3.42,0.48-5.04c0.28-0.42,0.27-1.07,0.3-1.62c0.05-0.96-0.19-1.98,0.06-2.87
		c0.47-1.63-0.15-2.3-1.65-2.58c-0.99-0.18-1.45-0.83-1.54-1.85c-0.12-1.32,0.71-1.99,1.65-2.54c0.81-0.47,1.66-0.45,2.44,0.25
		c0.41,0.37,0.59,0.97,1.19,1.13c0.13,0.63-0.17,1.3,0.22,1.9c0.03,0.08,0.06,0.17,0.09,0.25c-0.03,0.57-0.05,1.14-0.08,1.7
		c-2.36,2.66-1.04,6.23-2.23,9.23c-0.36,0.91,0,2.34,0.14,3.52C468.64,254.75,469.64,254.96,471.33,254.35z"/>
	<path style="fill-rule:evenodd;clip-rule:evenodd;fill:#DCECF3;" d="M471.15,239.95c-0.13-0.41,0.12-0.89-0.21-1.27
		c0.52-1.15-0.46-2.37,0.16-3.51c0.53-0.52,1.15-0.94,1.76-1.36c0.34-0.23,0.7-0.55,1.17-0.29c0.06,0.09,0.1,0.19,0.12,0.3
		c0.01,0.2-0.05,0.41-0.02,0.62c0.1,0.43,0.41,0.84,0.17,1.32c-0.05,0.09-0.11,0.18-0.17,0.25c-0.1,0.11-0.22,0.22-0.34,0.31
		c-0.2,0.17-0.36,0.37-0.51,0.58c-0.14,0.2-0.31,0.37-0.41,0.59c-0.42,0.93-0.04,1.47,0.99,1.4c1.83-0.13,1.83-0.12,1.1,1.55
		c-0.09,0.22,0.03,0.38,0.08,0.57c-0.49,1.16-0.42,2.28,0.19,3.38c0.23,0.42,0.32,0.89,0.1,1.36c-0.22,0.27-0.47,0.42-0.81,0.23
		c-1.05-0.52-2.13-2.82-1.85-4.03c0.17-0.72,0.24-1.41-0.16-2.06c-0.21-0.33-0.44-0.75-0.85-0.75
		C471.18,239.12,471.5,239.77,471.15,239.95z"/>
	<path style="fill-rule:evenodd;clip-rule:evenodd;fill:#CBE3EF;" d="M474,233.72c-0.82-0.13-1.23,0.54-1.76,0.94
		c-0.36,0.27-0.67,0.55-1.14,0.5c-0.06-1.17-0.17-2.35-0.17-3.52c0-0.7,0.32-1.14,1.17-1.06c0.78,0.07,1.58,0,2.37-0.02
		c1.29-0.05,2.58-0.1,3.86-0.15c0.48,0.5,1.56-0.19,1.59,0.44c0.02,0.47-1.08,0.63-1.7,0.88c-0.7,0.28-1.41,0.54-2.11,0.81
		C475.33,232.78,474.86,233.59,474,233.72z"/>
	<path style="fill-rule:evenodd;clip-rule:evenodd;fill:#575A5A;" d="M480.82,230.16c-0.49,0.28-1.02,0.19-1.55,0.16
		c-0.08-0.04-0.11-0.08-0.08-0.13c0.03-0.04,0.05-0.06,0.08-0.06C479.8,230.14,480.31,230.15,480.82,230.16z"/>
	<path style="fill-rule:evenodd;clip-rule:evenodd;fill:#575A5A;" d="M481.78,230.16c-0.31,0.28-0.61,0.2-0.92,0
		C481.17,230.16,481.47,230.16,481.78,230.16z"/>
	<path style="fill-rule:evenodd;clip-rule:evenodd;fill:#535657;" d="M479.28,230.13c0,0.06,0,0.12,0,0.18c-0.16,0-0.32,0-0.48,0
		C478.96,230.26,479.12,230.2,479.28,230.13z"/>
	<path style="fill-rule:evenodd;clip-rule:evenodd;fill:#41403F;" d="M488.63,232.24c0.56-0.02,1.1-0.34,1.68-0.16
		c0.08,0.14,0.15,0.28,0.23,0.42l0.01-0.01c-0.21,0.22-0.54,0.15-0.78,0.31c-0.75,0.03-1.58,0.4-2.14-0.47
		C487.94,232.02,488.29,232.17,488.63,232.24z"/>
	<path style="fill-rule:evenodd;clip-rule:evenodd;fill:#DDEDF4;" d="M488.87,257.94c-0.16,0-0.31,0-0.47,0
		C488.56,257.72,488.72,257.72,488.87,257.94z"/>
	<path style="fill-rule:evenodd;clip-rule:evenodd;fill:#EAF3F7;" d="M475.22,250.09c-0.61-1.24-0.53-2.53-0.25-3.84
		c0.42-0.47,1.01-0.52,1.57-0.65c0.38-0.13,0.76-0.21,1.16-0.21c0.87,0,1.71-0.34,2.59-0.25c0.86,0.04,1.73-0.1,2.57,0.11
		c0.51,0.78,0.41,1.4-0.36,1.67c-0.59,0.21-1.23,0.43-1.87,0.16c-0.35-0.15-0.61-0.08-0.86,0.16c-0.89,0.24-1.82,0.17-2.71,0.39
		c-0.08,0.02-0.16,0.02-0.24,0.02c0.05,0,0.1,0,0.15,0c0.97-0.07,1.93-0.42,2.92-0.17c0.57,1.97,0.37,2.29-1.69,2.68
		c-0.47,0.04-0.92,0.25-1.4,0.22C476.26,250.35,475.69,250.48,475.22,250.09z"/>
	<path style="fill-rule:evenodd;clip-rule:evenodd;fill:#E1EEF3;" d="M475.68,252.16c-0.16-0.55-0.32-1.11-0.48-1.66
		c0.47-0.44,1.06-0.32,1.62-0.33c0.31,0.01,0.62,0,0.93-0.05c0.68,0.45,0.64,1.21,0.79,1.89
		C477.61,252.52,476.67,252.85,475.68,252.16z"/>
	<path style="fill-rule:evenodd;clip-rule:evenodd;fill:#DBE9EF;" d="M476.47,254.4c-0.99-0.23-0.28-1.25-0.79-1.7
		c0.52-0.41,1.11-0.45,1.73-0.29c0.44,0.69,0.3,1.34-0.16,1.96C477,254.56,476.74,254.59,476.47,254.4z"/>
	<path style="fill-rule:evenodd;clip-rule:evenodd;fill:#4C4A4A;" d="M477.37,252.49c-0.56,0.07-1.12,0.14-1.69,0.21
		c-0.19-0.18-0.33-0.36,0-0.54c0.97,0.04,1.94,0.1,2.83-0.4c0.42-0.31,0.91-0.37,1.42-0.42c0.65,0.13,1.35-0.1,1.96,0.3
		c0.09,0.12,0.09,0.23,0.01,0.35C480.42,252.46,478.93,252.86,477.37,252.49z"/>
	<path style="fill-rule:evenodd;clip-rule:evenodd;fill:#534D4B;" d="M476.47,254.4c0.22-0.03,0.44-0.05,0.65-0.08
		c0.08-0.06,0.17-0.12,0.26-0.18c0.19-0.11,0.39-0.19,0.61-0.24c0.23-0.05,0.46-0.06,0.69-0.01c0.23,0.08,0.45,0.19,0.4,0.5
		c-0.38,0.35-0.84,0.42-1.34,0.39c-0.23-0.07-0.46-0.08-0.68,0.04c-0.22,0-0.44-0.01-0.67-0.01c-0.08-0.05-0.11-0.1-0.08-0.15
		c0.03-0.05,0.06-0.08,0.08-0.08C476.42,254.52,476.45,254.46,476.47,254.4z"/>
	<path style="fill-rule:evenodd;clip-rule:evenodd;fill:#666463;" d="M476.6,245.9c-0.55,0.12-1.09,0.23-1.64,0.35
		c-0.17-0.06-0.42,0.01-0.45-0.28c0.23-0.09,0.46-0.18,0.69-0.27c0.32-0.27,0.69-0.32,1.09-0.21
		C476.47,245.57,476.63,245.66,476.6,245.9z"/>
	<path style="fill-rule:evenodd;clip-rule:evenodd;fill:#767979;" d="M476.89,250.24c-0.56,0.08-1.12,0.17-1.69,0.25
		c0-0.14,0.01-0.27,0.01-0.41c0.56-0.01,1.11-0.03,1.67-0.04c0.08,0.04,0.1,0.08,0.08,0.13
		C476.94,250.22,476.92,250.24,476.89,250.24z"/>
	<path style="fill-rule:evenodd;clip-rule:evenodd;fill:#3E3B39;" d="M476.39,254.58c0,0.08,0,0.15,0,0.23
		c-0.08,0.03-0.15,0.06-0.23,0.09c-0.14-0.06-0.42,0.05-0.37-0.21C475.81,254.62,476.18,254.62,476.39,254.58z"/>
	<path style="fill-rule:evenodd;clip-rule:evenodd;fill:#3D3833;" d="M471.08,240.43c-0.03-0.05-0.06-0.1-0.08-0.16
		c0-0.01,0.05-0.04,0.07-0.07C471.08,240.28,471.08,240.36,471.08,240.43z"/>
	<path style="fill-rule:evenodd;clip-rule:evenodd;fill:#F5F9FB;" d="M478.55,254.1c-0.23,0.01-0.46,0.02-0.69,0.03
		c-0.14,0.13-0.34,0.09-0.5,0.18c-0.08,0.01-0.16,0.01-0.24,0.02c0.08-0.61,0.16-1.22,0.24-1.83c1.51-0.27,3.02-0.55,4.53-0.82
		c0.11-0.05,0.21-0.05,0.32-0.02c0.15,0.04,0.31,0.07,0.47,0.06c0.52-0.04,1.05-0.06,1.56-0.15c-0.51,0.07-1.03,0.06-1.54,0.14
		c-0.27,0.06-0.53-0.19-0.8-0.02c-0.7-0.19-1.46,0.33-2.13-0.2c0.27-0.49,0.77-0.84,0.82-1.49c0.04-0.49,0.58-0.42,0.92-0.56
		c0.33-0.02,0.65-0.01,0.98-0.01c0.07,0,0.15-0.01,0.22-0.02c0.07-0.01,0.1-0.02,0.11-0.02c0.12-0.11,0.03,0.19,0.06,0.03
		c0-0.01-0.04-0.05-0.09-0.03c-0.15,0.04-0.29,0.03-0.45,0.04c-0.38,0.01-0.75-0.04-1.13,0.08c-0.93,0.12-1.06-0.52-1.08-1.19
		c-0.02-0.67,0.23-1.12,1.01-1.19c0.62-0.06,1.23-0.29,1.86-0.23c0.78,0.23,0.9,0.94,1.12,1.57c0.1,0.06-0.15,0.55,0.29,0.22
		c0.15-0.03,0.29-0.01,0.42,0.08c0.1,0.12,0.16,0.27,0.21,0.41c0.22,0.52,0.76,0.47,1.17,0.67c0.51,0.25,1.02,0.5,0.63,1.2
		c0.24,0.25,0.51,0,0.77,0.06c1.06-0.01,2.1-0.01,3.14-0.01c0.96-0.02,1.69,0.22,1.57,1.4c-0.19,0.5-0.63,0.34-1,0.39
		c-0.24,0-0.48-0.01-0.71,0.06c-0.11,0.03-0.22,0.05-0.33,0.05c-0.32,0.01-0.65-0.01-0.97,0.01c0.31-0.01,0.62,0,0.93,0
		c0.2,0,0.38-0.04,0.58-0.1c0.56,0.01,1.14-0.17,1.65,0.2c-0.56,0.27-1.04,0.61-1.47,1.1c-1.55,1.76-3.77,1.99-5.87,2.22
		c-1.71,0.19-3.48,0.2-5.22-0.15c-1-0.21-1.79-0.59-2.32-1.47c-0.09-0.05-0.11-0.09-0.08-0.13c0.03-0.04,0.06-0.06,0.09-0.06
		c0.47-0.1,0.94-0.21,1.41-0.31c0.41-0.45,1.01-0.22,1.49-0.42c-0.54,0.12-1.08,0.17-1.63,0.1
		C478.76,253.99,478.65,254.03,478.55,254.1z"/>
	<path style="fill-rule:evenodd;clip-rule:evenodd;fill:#E5F1F6;" d="M492.24,252.63c-0.21-0.74-0.49-1.38-1.46-1.16
		c-0.03-0.11,0-0.2,0.06-0.29c0.27-0.3,0.81-0.11,1-0.55c0.21-0.66-0.05-1.25-0.26-1.85c-0.03-0.18-0.03-0.36,0.01-0.54
		c1.01-2.78,1.59-5.63,1.74-8.59c0.08-1.54-0.32-2.71-1.64-3.56c-0.52-0.33-1.13-0.65-1.09-1.44c0.04-0.2,0.14-0.36,0.31-0.48
		c0.13-0.07,0.25-0.06,0.37,0.02c0.4,0.68,1.11,1,1.71,1.45c1.09,0.8,1.73,1.94,1.59,3.18c-0.27,2.42-0.01,4.94-1.12,7.25
		c-0.48,1-0.35,2.06,0.11,3.12c0.71,1.64,0.29,2.84-1.1,3.49C492.38,252.76,492.3,252.74,492.24,252.63z"/>
	<path style="fill-rule:evenodd;clip-rule:evenodd;fill:#E5F1F6;" d="M487.7,232.29c0.66,0.5,1.44,0.13,2.15,0.29
		c0.12,0.02,0.2,0.09,0.23,0.21c0.02,0.63,0.49,0.88,0.97,1.12c-0.03,0.05-0.07,0.09-0.1,0.14c-0.42,0.25-0.87,0.43-1.36,0.36
		c-0.34-0.05-0.15,0.21-0.25,0.3c-0.43,0.35-0.89,0.32-1.36,0.1c-0.55-0.75-1.1-1.5-0.61-2.51
		C487.47,232.21,487.58,232.21,487.7,232.29z"/>
	<path style="fill-rule:evenodd;clip-rule:evenodd;fill:#5B5757;" d="M492.24,252.63c0.08,0.02,0.16,0.04,0.24,0.05
		c0,0.16,0,0.31-0.01,0.47c-0.63-0.01-1.27-0.02-1.9-0.03c-0.09-0.04-0.12-0.07-0.09-0.11c0.03-0.04,0.06-0.06,0.09-0.06l-0.03-0.07
		c0.16-0.09,0.37-0.07,0.52-0.19C491.46,252.67,491.85,252.65,492.24,252.63z"/>
	<path style="fill-rule:evenodd;clip-rule:evenodd;fill:#CCE4EF;" d="M490.07,232.79c-0.08-0.07-0.15-0.14-0.23-0.21
		c0.23-0.03,0.47-0.06,0.71-0.09C490.39,232.59,490.23,232.69,490.07,232.79z"/>
	<path style="fill-rule:evenodd;clip-rule:evenodd;fill:#DBE9EF;" d="M477.61,254.65c0,0.06-0.01,0.13-0.01,0.19
		c-0.18-0.01-0.36-0.01-0.54-0.02C477.24,254.76,477.42,254.7,477.61,254.65z"/>
	<path style="fill-rule:evenodd;clip-rule:evenodd;fill:#CCE4EF;" d="M491.28,234.2c-0.06,0-0.13,0-0.19,0.01
		c-0.08-0.04-0.11-0.08-0.1-0.14c0.01-0.06,0.03-0.09,0.05-0.09l0.01-0.05C491.12,234.01,491.2,234.1,491.28,234.2z"/>
	<path style="fill-rule:evenodd;clip-rule:evenodd;fill:#E7BE6F;" d="M470.66,241.58c0.06,0.34,0.12,0.67,0.17,1.01
		C470.55,242.3,470.64,241.93,470.66,241.58z"/>
	<path style="fill-rule:evenodd;clip-rule:evenodd;fill:#F6FAFC;" d="M488,234.68c0.46-0.04,0.95,0.15,1.37-0.19
		c0.48-0.23,0.96-0.4,1.44,0c-0.1,0.67,0.42,0.91,0.86,1.15c1.68,0.92,2.21,2.32,2.04,4.18c-0.24,2.65-0.56,5.27-1.49,7.77
		c-0.11,0.28-0.33,0.53-0.49,0.79c-0.14,0.16-0.11,0.31,0.04,0.45c0.88,0.57,0.35,1.46,0.48,2.19c-0.45,0.19-0.94,0.01-1.39,0.12
		c-0.39,0.12-0.8,0.07-1.2,0.09c-0.79,0.14-1.6,0.12-2.4,0.11c-0.26-0.03-0.54,0.09-0.76-0.15c0.73-0.8,0.02-0.93-0.53-1.14
		c-0.43-0.17-1.11,0.04-1.13-0.75c0.31-0.11,0.19-0.27,0.04-0.43c-0.21,0-0.43,0.01-0.64,0.01l-0.05,0c-0.47-0.47-0.61-1.1-0.81-1.7
		c1.11-0.76,2.36-0.53,3.58-0.51c0.42,0.01,0.66,0.3,0.45,0.75c-0.47,1.01,0.1,1.19,0.92,1.18c0.16,0-0.04,0,0.12,0
		c0.48,0.01,0.96-0.12,1.43,0.06c-0.33-0.27-0.52-0.64-0.68-1.03c-0.44-1.06-0.63-2.15-0.35-3.27c0.13-0.5,0.21-0.83-0.53-0.76
		c-0.9,0.09-1.73-0.22-2.49-0.71c-0.29-0.18-0.53-0.37-0.7,0.16c-0.19,0.58,0.07,1.37-0.61,1.73c-0.83,0.44-1.77,0.42-2.69,0.44
		c-0.55-0.01-1.1,0-1.64,0.12c-0.84-0.04-1.66,0.06-2.47,0.23c-0.45,0.02-0.89,0.02-1.33,0.09c-0.38,0.01-0.77,0.02-1.15,0.03
		c0.1-0.73-0.33-1.29-0.59-1.9c-0.44-1-0.53-1.97,0.36-2.81c0.19-0.67,0.6-1.28,0.5-2.04c-0.07-0.48,0.37-0.74,0.66-1.07
		c0.6-0.69,0.43-1.52-0.36-1.85c-0.44-0.18-1.21-0.03-1.11-0.77c0.09-0.69,0.6-1.18,1.35-1.29c0.32-0.02,0.64-0.04,0.97-0.06
		c0.44-0.56,1.13-0.51,1.71-0.73c0.23-0.04,0.44-0.11,0.66-0.17c0.66-0.08,1.32-0.19,1.98-0.32c0.11-0.02,0.22-0.03,0.32-0.04
		c0.11-0.02,0.21-0.03,0.32-0.04c0.32,0.02,0.65-0.01,0.97-0.01c0.85,0,1.7-0.33,2.56-0.04c0.17,0.08,0.29,0.2,0.32,0.4
		c-0.11,0.39-0.43,0.55-0.75,0.71c-0.75,0.22-1.49,0.44-2.29,0.16c-0.74-0.26-0.83,0.32-0.98,0.81c-0.36,0.39,0.29,0.13,0.23,0.34
		c0.68,1.39,0.58,1.75-0.57,2.2c-0.11,0.01-0.22,0.01-0.34,0.01c-0.19-0.01-0.38-0.07-0.58-0.08c0.03,0.2,0.31,0.24,0.3,0.46
		c0.02,0.38-0.14,0.67-0.46,0.87c-0.03,0.01-0.07,0.03-0.11,0.04c-0.3,0.11-0.62-0.11-0.92,0.06c0.29-0.1,0.59,0.02,0.88,0.01
		c0.64,0.18,1.25-0.15,1.88-0.14c0.19,0.02,0.38,0.01,0.57,0.01c0,0,0.02-0.01,0.02-0.01s-0.08,0-0.1,0
		c-0.21-0.01-0.41,0.02-0.53-0.2c0.44-1.22,1.42-1.59,2.58-1.68c0.39-0.02,0.79,0.03,1.18-0.09c0.6-0.02,0.87-0.5,1.19-0.9
		c0.11-0.11,0.24-0.2,0.38-0.26C487.78,235.24,487.72,234.79,488,234.68z"/>
	<path style="fill-rule:evenodd;clip-rule:evenodd;fill:#343332;" d="M476.01,233.97c-0.22,0.23-0.44,0.46-0.64,0.7
		c-0.22,0.26-0.7,0.42-0.57,0.82c0.13,0.41,0.55,0.11,0.84,0.15c0.89,0.13,1.68,1.48,1.07,2.02c-0.83,0.74-1.05,1.57-1.11,2.57
		c-0.02,0.33-0.19,0.7-0.63,0.77c-0.3-0.02-0.71,0.09-0.8-0.32c-0.1-0.46,0.33-0.43,0.61-0.53c0.55-0.18,0.56-0.64,0.43-1.06
		c-0.16-0.55-0.56-0.12-0.76-0.05c-0.82,0.31-1.64,0.42-2.04-0.49c-0.38-0.84,0.14-1.49,0.89-1.93c0.03,0.04,0.07,0.09,0.1,0.13
		c0.1,0.32-0.07,0.61-0.11,0.91c-0.04,0.29-0.02,0.56,0.29,0.69c0.32,0.14,0.62,0.03,0.86-0.19c0.25-0.24,0.13-0.49-0.03-0.73
		c-0.14-0.19-0.29-0.37-0.37-0.59c-0.14-0.32,0.02-0.67-0.09-1c0.58-0.52-0.02-0.9-0.15-1.34c0.1-0.16,0.09-0.36,0.18-0.52
		c0.01-0.08,0.03-0.16,0.04-0.24c0.62-0.54,1.07-1.4,2.12-1.19c0.05,0.08,0.09,0.16,0.14,0.24c0.02,0.1,0.06,0.19,0.12,0.27
		C476.26,233.35,476.13,233.66,476.01,233.97z"/>
	<path style="fill-rule:evenodd;clip-rule:evenodd;fill:#E8F1F5;" d="M485.76,232.96c-0.08-0.07-0.17-0.14-0.25-0.2
		c-0.91-0.41-1.84,0.13-2.75-0.1c-0.27,0.1-0.58-0.03-0.84,0.11l0.02-0.01c-0.09,0.08-0.2,0.12-0.32,0.12
		c-0.47-0.04-0.92,0.07-1.38,0.12c-0.27,0.01-0.55-0.02-0.82,0.06c-0.1,0.04-0.2,0.08-0.3,0.12c-0.16,0.05-0.32,0.05-0.48,0.03
		c-0.1-0.04-0.19-0.09-0.27-0.17c-0.04-0.01-0.08-0.01-0.12-0.03c-0.06-0.04-0.11-0.09-0.17-0.13c3.44-1.54,6.9-2.51,10.54-0.62
		c-0.31,0.02-0.62,0.03-0.93,0.05c-0.09,0-0.18,0-0.28,0c-0.4,0.36-0.96,0.44-1.38,0.77C485.93,233.08,485.83,233.04,485.76,232.96z
		"/>
	<path style="fill-rule:evenodd;clip-rule:evenodd;fill:#484544;" d="M478.37,233.03c0.05,0.03,0.1,0.03,0.15-0.01
		c0.17,0.1,0.42,0.16,0.26,0.45c-0.65-0.06-1.22,0.24-1.81,0.44C477.12,233.12,477.92,233.35,478.37,233.03z"/>
	<path style="fill-rule:evenodd;clip-rule:evenodd;fill:#CBE3EF;" d="M476.38,233.04c-0.04-0.09-0.08-0.18-0.12-0.27
		C476.3,232.86,476.34,232.95,476.38,233.04z"/>
	<path style="fill-rule:evenodd;clip-rule:evenodd;fill:#CED5DB;" d="M481.44,273.56c-0.53-1.22-0.11-2.51-0.23-3.76
		c-0.01-0.09,0.08-0.19,0.12-0.28c0.03,0.15,0.1,0.3,0.1,0.45C481.44,271.17,481.44,272.36,481.44,273.56L481.44,273.56z"/>
	<path style="fill-rule:evenodd;clip-rule:evenodd;fill:#F0CE88;" d="M469.2,237.39c0.01,1.28-1,2.34-2.12,2.3
		c-0.89-0.03-1.38-0.64-1.44-1.45c-0.08-1.06,1.06-2.08,2.12-2.13C468.82,236.05,469.15,236.64,469.2,237.39z"/>
	<path style="fill-rule:evenodd;clip-rule:evenodd;fill:#585558;" d="M473.93,235.83c0.44,0.26,0.33,0.66,0.28,1.05
		c-0.36,0.03-0.66-0.11-0.95-0.29l0.02,0.02c-0.04-0.27,0.05-0.44,0.33-0.49c0.16-0.03,0.29-0.12,0.38-0.26L473.93,235.83z"/>
	<path style="fill-rule:evenodd;clip-rule:evenodd;fill:#CBE3EF;" d="M473.96,233.96c-0.06,0.17-0.12,0.35-0.18,0.52
		C473.84,234.31,473.9,234.14,473.96,233.96z"/>
	<path style="fill-rule:evenodd;clip-rule:evenodd;fill:#343332;" d="M474,235.86c-0.13,0.09-0.25,0.17-0.38,0.26
		C473.75,236.03,473.87,235.95,474,235.86z"/>
	<path style="fill-rule:evenodd;clip-rule:evenodd;fill:#020202;" d="M481.93,245.03c0.24-0.03,0.47-0.08,0.71-0.08
		c1.47,0.02,2.27-0.57,2.18-2.17c-0.04-0.8,0.23-0.95,0.92-0.31c0.91,0.83,2.08,1.12,3.32,0.73c0.24-0.08,0.51-0.22,0.65-0.04
		c0.3,0.37-0.2,0.4-0.33,0.58c-0.64,0.85-0.34,3.93,0.45,4.68c0.03,0.03,0.05,0.06,0.07,0.09c0.23,0.35,0.73-0.48,0.89,0.2
		c-0.42,0.07-0.84,0.16-1.26,0.19c-0.59,0.04-1.19,0.04-1.78,0.01c-0.29-0.01-0.67,0.39-0.87-0.23c-0.14-0.45-0.24-0.82,0.14-1.2
		c0.15-0.15,0.48-0.31,0.28-0.54c-0.11-0.13-0.45-0.12-0.68-0.1c-1.09,0.1-2.17,0.22-3.26,0.34c-0.73-0.14-1.42,0.17-2.12,0.18
		c-1.02,0.01-0.67,0.72-0.75,1.24c-0.15,0.87,0.45,0.72,0.94,0.73c0.09,0.04,0.13,0.09,0.11,0.15c-0.02,0.06-0.05,0.09-0.08,0.09
		c-0.23,0.25-0.85,0.1-0.58,0.86c0.26,0.76-0.71,0.7-1.09,1.06c-0.41,0.17-0.77,0.58-1.27,0.26c-0.98-0.16-0.53-0.95-0.66-1.49
		c-0.14-0.27,0.07-0.34,0.25-0.42c1.76,0.03,2.04-0.97,1.65-2.41c-0.13-0.1-0.13-0.21,0-0.32c0.19-0.33-0.12-0.93,0.39-1.02
		c0.46-0.08,0.22,0.57,0.39,0.68c0.63,0.42,1.27-0.14,1.92-0.09c0.38,0.03,0.45-0.14,0.42-0.5c-0.02-0.2,0.15-0.42,0.23-0.64
		C482.86,245.01,482.06,245.77,481.93,245.03z"/>
	<path style="fill-rule:evenodd;clip-rule:evenodd;fill:#1C1B19;" d="M479.74,247.12c0,0.1,0,0.21,0,0.32
		c-1.33,0.15-2.66,0.31-3.99,0.45c-0.22,0.02-0.55,0.08-0.57-0.24c-0.02-0.38,0.34-0.21,0.53-0.23
		C477.06,247.31,478.4,247.22,479.74,247.12z"/>
	<path style="fill-rule:evenodd;clip-rule:evenodd;fill:#242221;" d="M481.93,245.03c0.27,0.44,0.95-0.05,1.16,0.52
		c-0.95-0.04-1.9-0.08-2.85-0.12c0-0.05,0-0.1,0-0.15C480.76,244.89,481.36,245.04,481.93,245.03z"/>
	<path style="fill-rule:evenodd;clip-rule:evenodd;fill:#393736;" d="M480.25,245.28c0.01,0.05,0.01,0.1,0,0.15
		c-0.88,0.09-1.75,0.18-2.63,0.27c-0.09-0.04-0.13-0.08-0.11-0.14c0.02-0.06,0.05-0.09,0.08-0.09
		C478.45,245.09,479.35,245.2,480.25,245.28z"/>
	<path style="fill-rule:evenodd;clip-rule:evenodd;fill:#8F8D8D;" d="M477.59,245.47c0,0.08,0.01,0.15,0.03,0.22
		c-0.34,0.07-0.68,0.14-1.01,0.21c-0.08-0.08-0.17-0.15-0.25-0.23C476.72,245.32,477.17,245.51,477.59,245.47z"/>
	<path style="fill-rule:evenodd;clip-rule:evenodd;fill:#464545;" d="M478.09,249.85c-0.08,0.14-0.17,0.28-0.25,0.42
		c-0.32-0.01-0.63-0.02-0.95-0.03c-0.01-0.06-0.01-0.13-0.01-0.2C477.29,249.98,477.69,249.92,478.09,249.85z"/>
	<path style="fill-rule:evenodd;clip-rule:evenodd;fill:#A3A09F;" d="M478.55,254.1c0.06-0.05,0.12-0.13,0.19-0.13
		c0.65-0.02,1.3-0.03,1.96-0.05c-0.49,0.42-1.14,0.17-1.67,0.42C478.86,254.26,478.7,254.18,478.55,254.1z"/>
	<path style="fill-rule:evenodd;clip-rule:evenodd;fill:#DBE9EF;" d="M477.36,254.3c0.17-0.06,0.33-0.12,0.5-0.18
		C477.69,254.19,477.53,254.25,477.36,254.3z"/>
	<path style="fill-rule:evenodd;clip-rule:evenodd;fill:#B1B1B2;" d="M487.19,251.25c0.81-0.08,1.62-0.15,2.44-0.23
		c0.34,0.21,0.72,0.04,1.07,0.12c0.04,0.04,0.07,0.08,0.11,0.11c0,0.07-0.01,0.14-0.03,0.21c-1.19,0.01-2.38,0.02-3.56,0.02
		c-0.08-0.05-0.12-0.1-0.09-0.15C487.14,251.28,487.16,251.25,487.19,251.25z"/>
	<path style="fill-rule:evenodd;clip-rule:evenodd;fill:#6C6766;" d="M482.63,251.53c0.8,0.01,1.6,0.02,2.4,0.03
		c-0.83,0.12-1.67,0.26-2.5,0.36c-0.12,0.01-0.26-0.13-0.39-0.19C482.25,251.54,482.48,251.64,482.63,251.53z"/>
	<path style="fill-rule:evenodd;clip-rule:evenodd;fill:#ABAAAA;" d="M485.77,253.47c-0.63,0.28-1.28,0.24-1.93,0.08
		c0.64-0.12,1.29-0.24,1.93-0.36c0.07,0.06,0.1,0.12,0.07,0.18S485.79,253.47,485.77,253.47z"/>
	<path style="fill-rule:evenodd;clip-rule:evenodd;fill:#888483;" d="M490.58,252.95c0,0.06,0,0.11,0,0.17
		c-0.76,0.05-1.51,0.09-2.27,0.13c-0.01,0-0.04-0.19-0.03-0.19C489.03,252.81,489.81,252.95,490.58,252.95z"/>
	<path style="fill-rule:evenodd;clip-rule:evenodd;fill:#8B8786;" d="M485.77,253.47c0-0.09,0-0.18,0-0.27
		c0.65,0.07,1.31-0.25,1.95,0.06C487.07,253.32,486.42,253.4,485.77,253.47z"/>
	<path style="fill-rule:evenodd;clip-rule:evenodd;fill:#7D7784;" d="M484.86,248.88c0.31,0.26,0.87-0.29,0.92,0.08
		c0.04,0.28-0.61,0.29-0.97,0.35C484.83,249.17,484.85,249.02,484.86,248.88z"/>
	<path style="fill-rule:evenodd;clip-rule:evenodd;fill:#B4B2B4;" d="M482.66,253.91c-0.2-0.05-0.38-0.1-0.55-0.15
		c0.17-0.05,0.34-0.13,0.51-0.14c0.18,0,0.36,0.07,0.54,0.11C482.99,253.8,482.83,253.85,482.66,253.91z"/>
	<path style="fill-rule:evenodd;clip-rule:evenodd;fill:#585968;" d="M481.46,249.58c-0.01-0.08-0.02-0.16-0.03-0.24
		c0.41-0.01,0.81-0.02,1.22-0.03c0.08,0.06,0.1,0.11,0.07,0.16c-0.03,0.04-0.06,0.07-0.09,0.07
		C482.23,249.55,481.84,249.56,481.46,249.58z"/>
	<path style="fill-rule:evenodd;clip-rule:evenodd;fill:#706B6A;" d="M487.19,251.25c0.01,0.08,0.01,0.16,0.02,0.24
		c-0.33,0.03-0.68,0.16-0.93-0.18c0.07-0.03,0.13-0.07,0.2-0.1C486.72,251.22,486.95,251.24,487.19,251.25z"/>
	<path style="fill-rule:evenodd;clip-rule:evenodd;fill:#AAA9B4;" d="M482.62,249.54c0.01-0.08,0.02-0.15,0.03-0.23
		c0.25-0.12,0.56-0.48,0.75-0.07C483.46,249.37,482.95,249.57,482.62,249.54z"/>
	<path style="fill-rule:evenodd;clip-rule:evenodd;fill:#CECFCF;" d="M481.44,253.73c0.04,0.05,0.09,0.1,0.13,0.15
		c-0.08,0.05-0.15,0.1-0.23,0.14c-0.02-0.06-0.08-0.14-0.06-0.19C481.29,253.79,481.38,253.77,481.44,253.73z"/>
	<path style="fill-rule:evenodd;clip-rule:evenodd;fill:#4B454F;" d="M484.17,248.89l0.05,0c0.01,0.13,0.02,0.26,0.03,0.4
		c-0.1-0.01-0.21-0.02-0.31-0.04C484.02,249.13,484.09,249.01,484.17,248.89z"/>
	<path style="fill-rule:evenodd;clip-rule:evenodd;fill:#66605F;" d="M482.63,251.53c-0.17,0.07-0.33,0.13-0.49,0.2
		c-0.08-0.02-0.16-0.04-0.24-0.06c0,0,0.01,0.02,0.01,0.02C482.1,251.44,482.36,251.44,482.63,251.53z"/>
	<path style="fill-rule:evenodd;clip-rule:evenodd;fill:#E5F1F6;" d="M491.07,252.69c-0.17,0.06-0.34,0.13-0.52,0.19
		C490.72,252.82,490.89,252.75,491.07,252.69z"/>
	<path style="fill-rule:evenodd;clip-rule:evenodd;fill:#595653;" d="M490.8,234.49c-0.48,0-0.96,0-1.44,0
		c0.42-0.62,1.1-0.39,1.67-0.52c0.02,0.08,0.04,0.16,0.05,0.23C490.99,234.3,490.89,234.4,490.8,234.49z"/>
	<path style="fill-rule:evenodd;clip-rule:evenodd;fill:#818180;" d="M490.79,251.07c0.48-0.02,0.96-0.03,1.44-0.05
		c-0.4,0.56-0.98-0.01-1.42,0.23c0-0.05,0-0.09-0.02-0.14L490.79,251.07z"/>
	<path style="fill-rule:evenodd;clip-rule:evenodd;fill:#A5A5A4;" d="M491.75,248.83c-0.19-0.01-0.44,0.05-0.41-0.25
		c0.01-0.08,0.24-0.13,0.37-0.19C491.72,248.54,491.74,248.69,491.75,248.83z"/>
	<path style="fill-rule:evenodd;clip-rule:evenodd;fill:#2B2924;" d="M486,233c0.14-0.91,0.83-0.71,1.42-0.71
		c-0.12,0.87,0.32,1.61,0.58,2.4c-0.15,0.27,0.62,1.19-0.53,0.76c-0.37-0.08-0.68-0.28-1.01-0.44c-0.14-0.09-0.25-0.21-0.3-0.37
		c0-0.11,0.03-0.21,0.09-0.3c0.32-0.38,0.43-0.75-0.03-1.11C486.13,233.16,486.06,233.09,486,233z"/>
	<path style="fill-rule:evenodd;clip-rule:evenodd;fill:#070706;" d="M482.15,238.5c-0.62,0.14-1.19,0.8-1.88,0.19
		c-0.17-0.12-0.17-0.25-0.02-0.38c0.19-0.25,0.37-0.5,0.56-0.75c-0.04-0.32,0.06-0.57,0.39-0.68c1.94-0.22,0.67-1.23,0.49-1.97
		c-0.09-0.04-0.13-0.1-0.11-0.16c0.01-0.07,0.03-0.1,0.06-0.1c-0.28-1.28,0.25-1.58,1.35-1.06c0.74,0.35,1.37-0.18,2.05-0.16
		c0.07,0.09,0.1,0.2,0.08,0.31c-0.16,0.36-0.5,0.48-0.83,0.59c-0.34,0.11-0.93,0.03-0.46,0.68c-0.25,0.26-0.88,0.25-0.72,0.8
		c0.21,0.71,0.97,0.35,1.43,0.6c0.16,0.09,0.29,0.19,0.23,0.4c-1.07,0.09-1.99,0.45-2.56,1.42
		C482.31,238.34,482.29,238.43,482.15,238.5z"/>
	<path style="fill-rule:evenodd;clip-rule:evenodd;fill:#1B1A14;" d="M488.2,239.47c-0.01-0.2-0.06-0.4-0.03-0.59
		c0.09-0.75,0.68-1.02,1.28-1.23c0.37-0.13,0.54,0.21,0.54,0.46c0,0.7-0.49,1.01-1.11,1.16c-0.1,0.03-0.18,0.13-0.28,0.2
		C488.47,239.62,488.34,239.62,488.2,239.47z"/>
	<path style="fill-rule:evenodd;clip-rule:evenodd;fill:#4D4643;" d="M477.76,240.69c0.38,0.15,0.85-0.2,1.18,0.23
		c-0.45,0.31-0.97,0.24-1.46,0.23c-0.32-0.01-0.95,0.18-0.87-0.27C476.69,240.46,477.36,240.82,477.76,240.69z"/>
	<path style="fill-rule:evenodd;clip-rule:evenodd;fill:#353330;" d="M487.25,235.67c-0.39,0.35-0.47,1.11-1.25,0.94
		c-0.22,0.13-0.29-0.03-0.37-0.18c-0.1-0.57-0.04-1.05,0.68-1.13C486.66,235.33,487.02,235.33,487.25,235.67z"/>
	<path style="fill-rule:evenodd;clip-rule:evenodd;fill:#282523;" d="M481.2,236.88c-0.13,0.23-0.26,0.45-0.39,0.68
		c-0.02-0.03-0.03-0.08-0.06-0.1c-0.5-0.48-1.32,0.34-1.75-0.43C479.72,236.71,480.47,236.85,481.2,236.88z"/>
	<path style="fill-rule:evenodd;clip-rule:evenodd;fill:#5C5756;" d="M482.68,232.57c0.94,0.06,1.92-0.4,2.83,0.18
		c-0.96-0.09-1.91,0.36-2.87-0.01c-0.06-0.05-0.07-0.1-0.04-0.13C482.63,232.59,482.65,232.57,482.68,232.57z"/>
	<path style="fill-rule:evenodd;clip-rule:evenodd;fill:#535050;" d="M480.25,238.31c0.01,0.13,0.01,0.26,0.02,0.38
		c-0.04,0-0.08,0-0.12,0c-0.65-0.16-1.36,0.38-1.97-0.19C478.84,238.02,479.56,238.34,480.25,238.31z"/>
	<path style="fill-rule:evenodd;clip-rule:evenodd;fill:#D4D6DA;" d="M481.99,240.98c-0.22-0.08-0.38-0.14-0.54-0.2
		c0.4-0.12,0.8-0.25,1.21-0.34c0.21-0.04,0.48-0.07,0.58,0.23C482.82,240.78,482.39,240.88,481.99,240.98z"/>
	<path style="fill-rule:evenodd;clip-rule:evenodd;fill:#747170;" d="M479,232.99c0.1-0.02,0.19-0.04,0.29-0.06
		c0.25-0.08,0.53,0,0.77-0.14c0.53,0.01,1.06,0.02,1.59,0.03v0.12c-0.79,0.13-1.58,0.26-2.37,0.38
		C479.06,233.31,478.95,233.21,479,232.99z"/>
	<path style="fill-rule:evenodd;clip-rule:evenodd;fill:#BBBBC5;" d="M484.61,240.72c-0.22-0.04-0.49-0.08-0.75-0.13
		c0.51-0.13,1.02-0.28,1.54-0.39c0.13-0.03,0.28,0.08,0.42,0.13C485.57,240.88,485.05,240.58,484.61,240.72z"/>
	<path style="fill-rule:evenodd;clip-rule:evenodd;fill:#040402;" d="M487.25,235.67c-0.37-0.04-0.78,0.07-1.05-0.3
		c0.01-0.05,0.02-0.09,0.02-0.14c0.04-0.09,0.08-0.17,0.15-0.23c0.04-0.02,0.08-0.04,0.12-0.07c0.56-0.27,0.75,0.14,0.97,0.51
		C487.39,235.51,487.32,235.59,487.25,235.67z"/>
	<path style="fill-rule:evenodd;clip-rule:evenodd;fill:#878388;" d="M485.78,236.4c0.07,0.07,0.14,0.13,0.22,0.2
		c-0.39,0.23-0.79,0.33-1.24,0.2c-0.07-0.07-0.14-0.15-0.21-0.22C484.87,235.9,485.31,236.04,485.78,236.4z"/>
	<path style="fill-rule:evenodd;clip-rule:evenodd;fill:#373330;" d="M488.2,239.47c0.14,0,0.27,0,0.41,0
		c-0.23,0.29,0.71,1.13-0.46,0.98c-0.12-0.09-0.13-0.19-0.04-0.3C488.14,239.92,488.17,239.7,488.2,239.47z"/>
	<path style="fill-rule:evenodd;clip-rule:evenodd;fill:#645F5F;" d="M485.04,233.72c0-0.1,0-0.2,0-0.3
		c0.24-0.15,0.48-0.31,0.72-0.46c0.08,0.01,0.16,0.03,0.24,0.04c0.08,0,0.16,0,0.24,0C486.14,233.73,485.64,233.81,485.04,233.72z"
		/>
	<path style="fill-rule:evenodd;clip-rule:evenodd;fill:#403E40;" d="M478.37,235.46c-0.13-0.03-0.39-0.09-0.65-0.16
		c0.29-0.06,0.58-0.15,0.87-0.19c0.22-0.03,0.64-0.1,0.61,0.13C479.17,235.59,478.76,235.39,478.37,235.46z"/>
	<path style="fill-rule:evenodd;clip-rule:evenodd;fill:#8A8687;" d="M488.11,240.15c0.01,0.1,0.03,0.2,0.04,0.3
		c-0.26-0.13-0.78,0.19-0.78-0.16C487.37,239.89,487.83,240.11,488.11,240.15z"/>
	<path style="fill-rule:evenodd;clip-rule:evenodd;fill:#D0D2D3;" d="M482.83,238.31c0.26-0.02,0.52-0.04,0.78-0.05
		c0,0,0.01,0.13,0.02,0.21c-0.27,0.01-0.54,0.01-0.81,0.02l-0.07-0.09L482.83,238.31z"/>
	<path style="fill-rule:evenodd;clip-rule:evenodd;fill:#615C5C;" d="M488.92,236.16c0.12-0.01,0.23-0.02,0.35-0.02
		c0.25,0.01,0.54-0.15,0.75,0.13c-0.26,0.03-0.52,0.06-0.78,0.08c-0.12,0.01-0.23,0-0.35-0.01c-0.06-0.05-0.08-0.1-0.05-0.14
		C488.86,236.17,488.89,236.16,488.92,236.16z"/>
	<path style="fill-rule:evenodd;clip-rule:evenodd;fill:#BEBCC0;" d="M488.92,236.16c-0.01,0.06-0.02,0.12-0.04,0.18
		c-0.11,0.2-0.27,0.25-0.46,0.11c-0.05-0.04-0.11-0.15-0.09-0.18C488.48,236.01,488.71,236.14,488.92,236.16z"/>
	<path style="fill-rule:evenodd;clip-rule:evenodd;fill:#6D6764;" d="M490.79,251.07c0,0,0,0.04,0,0.04
		c-0.4,0.14-0.8,0.27-1.16-0.09C490.01,251.04,490.4,251.06,490.79,251.07z"/>
	<path style="fill-rule:evenodd;clip-rule:evenodd;fill:#A7A6A6;" d="M482.68,232.57c0,0.06-0.01,0.12-0.04,0.18
		c-0.24,0.38-0.48,0.15-0.73,0.02C482.11,232.46,482.39,232.5,482.68,232.57z"/>
	<path style="fill-rule:evenodd;clip-rule:evenodd;fill:#686361;" d="M490.1,240.25c-0.21,0.1-0.3,0.19-0.39,0.18
		c-0.14-0.01-0.28-0.08-0.42-0.13c0.08-0.06,0.17-0.17,0.25-0.17C489.69,240.12,489.84,240.19,490.1,240.25z"/>
	<path style="fill-rule:evenodd;clip-rule:evenodd;fill:#D8EAF2;" d="M479,232.99c0.09,0.11,0.18,0.22,0.27,0.33
		c-0.16,0.05-0.33,0.1-0.49,0.15c-0.09-0.15-0.18-0.3-0.26-0.45C478.68,233.01,478.84,233,479,232.99z"/>
	<path style="fill-rule:evenodd;clip-rule:evenodd;fill:#494746;" d="M482.83,238.31c0.01,0.06,0,0.12,0,0.18
		c-0.23,0.01-0.45,0.01-0.68,0.02c0.02-0.09,0.03-0.19,0.05-0.28C482.41,238.25,482.62,238.28,482.83,238.31z"/>
	<path style="fill-rule:evenodd;clip-rule:evenodd;fill:#838283;" d="M481.63,234.65c0.02,0.09,0.04,0.18,0.06,0.26
		c-0.19-0.04-0.37-0.07-0.56-0.11C481.3,234.75,481.46,234.7,481.63,234.65z"/>
	<path style="fill-rule:evenodd;clip-rule:evenodd;fill:#C9C9CA;" d="M477.97,242.49c-0.04,0.07-0.07,0.15-0.12,0.18
		c-0.04,0.02-0.12-0.03-0.18-0.04c0.03-0.06,0.05-0.16,0.1-0.18C477.81,242.42,477.9,242.47,477.97,242.49z"/>
	<path style="fill-rule:evenodd;clip-rule:evenodd;fill:#C3C3C4;" d="M480.4,240.73c0.07,0.02,0.13,0.05,0.2,0.07
		c-0.04,0.06-0.06,0.14-0.12,0.17c-0.04,0.02-0.12-0.04-0.17-0.06C480.33,240.86,480.36,240.8,480.4,240.73z"/>
	<path style="fill-rule:evenodd;clip-rule:evenodd;fill:#7F7B7B;" d="M486.86,240.22c-0.05,0.09-0.09,0.2-0.12,0.19
		c-0.11,0-0.21-0.04-0.32-0.07c0.03-0.06,0.06-0.15,0.09-0.16C486.62,240.18,486.73,240.21,486.86,240.22z"/>
	<path style="fill-rule:evenodd;clip-rule:evenodd;fill:#D0D2D3;" d="M484.4,238.36c0,0.03,0.01,0.07-0.01,0.08
		c-0.03,0.02-0.07,0.02-0.1,0.02c0-0.05,0.01-0.09,0.01-0.14C484.33,238.34,484.36,238.35,484.4,238.36z"/>
	<path style="fill-rule:evenodd;clip-rule:evenodd;fill:#A7A6A6;" d="M481.64,232.94v-0.12c0.09-0.02,0.19-0.04,0.29-0.06
		C481.83,232.81,481.74,232.88,481.64,232.94z"/>
	<path style="fill-rule:evenodd;clip-rule:evenodd;fill:#EAF0F5;" d="M473.26,236.59c0.38-0.12,0.82-0.42,0.95,0.29
		c0.57,0.33,1.14,0.83,0.71,1.45c-0.26,0.38-1.01,0.68-1.58,0.42c-0.79-0.37-0.53-1.01-0.23-1.61
		C473.2,236.97,473.22,236.77,473.26,236.59z"/>
	<path style="fill-rule:evenodd;clip-rule:evenodd;fill:#CADFED;" d="M476.41,237.06c0.01,0.46-0.23,0.7-0.56,0.88
		c-0.21-0.48-0.42-0.95-0.61-1.43c-0.09-0.24,0.07-0.4,0.29-0.37C476.08,236.22,476.26,236.66,476.41,237.06z"/>
	<path style="fill-rule:evenodd;clip-rule:evenodd;fill:#E2EAF3;" d="M475.71,233.46c-0.19,0.52-0.49,1.05-1.07,1.27
		c-0.24,0.09-0.19-0.28-0.18-0.44c0.03-0.63,0.43-1.02,0.96-1.25C475.69,232.93,475.72,233.19,475.71,233.46z"/>
	<path style="fill-rule:evenodd;clip-rule:evenodd;fill:#D8EAF2;" d="M480.06,232.79c-0.22,0.26-0.5,0.17-0.77,0.14
		C479.55,232.88,479.8,232.83,480.06,232.79z"/>
	<path style="fill-rule:evenodd;clip-rule:evenodd;fill:#F4F7F9;" d="M485.29,243.98c0.11-0.36-0.15-0.99,0.34-0.71
		c0.95,0.54,2.57,0.09,2.89,1.2c0.38,1.3-0.58,2.17-1.98,1.86C485.48,246.09,485.61,244.76,485.29,243.98z"/>
	<path style="fill-rule:evenodd;clip-rule:evenodd;fill:#626489;" d="M485.24,246.29c-0.04,0.05-0.07,0.13-0.11,0.13
		c-0.06,0-0.12-0.05-0.18-0.07c0.04-0.04,0.07-0.11,0.11-0.12C485.12,246.22,485.18,246.27,485.24,246.29z"/>
	<path style="fill-rule:evenodd;clip-rule:evenodd;fill:#F4F7F9;" d="M485.78,236.4c-0.42,0.02-0.87-0.2-1.23,0.18
		c-0.31,0.01-0.63,0-0.94,0.04c-0.72,0.08-0.9-0.25-0.96-0.94c-0.11-1.12,0.71-0.61,1.15-0.77c0.55-0.52,1.28-0.21,1.9-0.43
		c0.21-0.02,0.4,0.02,0.57,0.14c0.07,0.1,0.14,0.21,0.21,0.31l-0.01,0c-0.16,0.11-0.09,0.36-0.29,0.44l0,0
		C485.58,235.52,486,236.08,485.78,236.4z"/>
	<path style="fill-rule:evenodd;clip-rule:evenodd;fill:#EDEFF1;" d="M485.76,234.74c-0.63,0.36-1.3,0.12-1.96,0.17
		c-0.19-0.77-1.36-0.02-1.25-0.56c0.1-0.51,1.06,0.01,1.59-0.32c0.26-0.16,0.59-0.21,0.89-0.3c0.4-0.24,0.8-0.48,1.2-0.72
		c0.96-0.47,0.51,0.49,0.65,0.73c0.34,0.61-0.21,0.66-0.64,0.73c-0.5,0.2-1.02,0.05-1.53,0.1c-0.11,0.01-0.15-0.05-0.21-0.11
		c-0.01,0.23,0.16,0.09,0.24,0.11C485.09,234.63,485.48,234.41,485.76,234.74z"/>
	<path style="fill-rule:evenodd;clip-rule:evenodd;fill:#7E797C;" d="M485.76,234.74c-0.5-0.05-1-0.1-1.51-0.15
		c0.51-0.06,1.02-0.12,1.53-0.17c0.15-0.01,0.31,0.02,0.47,0.04c0.04,0.05,0.05,0.1,0.02,0.16
		C486.1,234.66,485.93,234.7,485.76,234.74z"/>
	<path style="fill-rule:evenodd;clip-rule:evenodd;fill:#353330;" d="M486.19,235.37c0.1-0.15,0.19-0.29,0.29-0.44
		C486.49,235.14,486.42,235.3,486.19,235.37z"/>
</g>
</svg>
