<?xml version="1.0" encoding="utf-8"?>
<!-- Generator: Adobe Illustrator 16.0.0, SVG Export Plug-In . SVG Version: 6.00 Build 0)  -->
<!DOCTYPE svg PUBLIC "-//W3C//DTD SVG 1.0//EN" "http://www.w3.org/TR/2001/REC-SVG-20010904/DTD/svg10.dtd" [
	<!ENTITY ns_flows "http://ns.adobe.com/Flows/1.0/">
	<!ENTITY ns_extend "http://ns.adobe.com/Extensibility/1.0/">
	<!ENTITY ns_ai "http://ns.adobe.com/AdobeIllustrator/10.0/">
	<!ENTITY ns_graphs "http://ns.adobe.com/Graphs/1.0/">
]>
<svg version="1.0" id="Layer_1" xmlns:x="&ns_extend;" xmlns:i="&ns_ai;" xmlns:graph="&ns_graphs;"
	 xmlns="http://www.w3.org/2000/svg" xmlns:xlink="http://www.w3.org/1999/xlink" xmlns:a="http://ns.adobe.com/AdobeSVGViewerExtensions/3.0/"
	 x="0px" y="0px" width="960px" height="560px" viewBox="0 0 960 560" style="enable-background:new 0 0 960 560;"
	 xml:space="preserve">
<g>
	<path style="fill-rule:evenodd;clip-rule:evenodd;fill:#080804;" d="M447.68,288.34c-0.15-0.08-0.3-0.15-0.45-0.23
		c-0.07-0.09-0.1-0.19-0.08-0.3c0.18-1.02-0.67-1.22-1.28-1.61c-0.11-0.04-0.2-0.1-0.29-0.16c-0.08-0.08-0.13-0.18-0.16-0.29
		c0.06-0.64,0.17-1.32-0.51-1.7c-0.77-0.43-0.76-0.91-0.26-1.52c0.1-0.12,0.09-0.3,0.11-0.46c-0.03-0.37,0.13-1.04-0.21-1.01
		c-0.5,0.04-0.1,0.62-0.14,0.96c-0.01,0.08,0.01,0.15,0.02,0.24c-0.31,0.86,0,1.61,0.38,2.36c0.24,0.45,0.44,0.94,0.42,1.48
		c-0.05,0.2-0.14,0.35-0.38,0.31c-1.38-1.55-1.3-3.49-1.36-5.36c-0.03-0.85,0.27-1.71,0.42-2.56c0.21-0.29-0.04-0.68,0.21-0.96l0,0
		c0.21-0.07,0.32,0.06,0.42,0.22c0.11,0.27,0.1,0.56,0.05,0.83c-0.03,0.18-0.11,0.36-0.07,0.56c0.72-0.21,0.52-0.75,0.43-1.21
		c-0.06-0.3-0.28-0.58-0.01-0.88c0.41-0.25,0.69-0.6,0.79-1.07c0.14-0.4,0.31-0.79,0.5-1.17c0.05-0.1,0.1-0.19,0.16-0.28
		c0.09-0.14,0.18-0.27,0.27-0.4c0.59-0.89,1.46-1.57,1.96-2.53c0.06-0.16,0.15-0.3,0.27-0.41c1.27-0.34,2.41-0.99,3.59-1.53
		c0.54,0.22,1.1,0.3,1.68,0.13c0.51,0.02,0.89-0.25,1.27-0.54c1.04,0.23,2.05,0.39,3.13,0.05c0.65-0.2,1.3,0.17,1.7,0.81
		c-0.02,0.29-0.23,0.41-0.47,0.5c-0.65,0.22-1.32,0.3-2.01,0.28c-1.44-0.04-2.87,0.09-4.3,0.23c-2.98,0.28-4.95,1.96-6.19,4.51
		c-1.09,2.23-1.45,4.69-1.09,7.14c0.27,1.82,1.19,3.37,2.95,4.27c3.17,1.64,6.26,1.78,9.27-0.36c0.52-0.37,0.96-0.76,0.61-1.48
		c-0.11-0.28-0.2-0.57-0.28-0.86c-0.03-0.12-0.05-0.23-0.06-0.35c-0.02-0.17-0.02-0.35-0.02-0.52c-0.01-0.27,0-0.55,0-0.82
		c-0.03-0.38,0.08-0.82-0.47-0.95c-0.48-0.07-0.96-0.08-1.43-0.09c-0.57,0-1.01-0.22-1.12-0.84c-0.01-0.12-0.01-0.24,0.01-0.35
		c0.21-0.78,0.14-1.57,0.09-2.36c-0.03-0.11-0.04-0.21-0.04-0.32c0-0.05,0.01-0.11,0.01-0.16c0.05-0.25,0.11-0.51,0.17-0.76
		c0.05-0.2,0.15-0.37,0.28-0.54c0.09-0.12,0.19-0.22,0.3-0.33c0.1-0.11,0.2-0.21,0.31-0.31c0.18-0.17,0.37-0.33,0.59-0.45
		c0.13-0.08,0.27-0.14,0.42-0.18c0.1-0.01,0.2-0.01,0.3,0.02c0.15,0.04,0.29,0.1,0.44,0.13c0.46,0.07,0.96-0.11,1.38,0.21
		c0.47,0.29,0.95,0.5,1.47,0.11c0.57-0.25,1.15-0.43,1.79-0.41c0.54,0.12,0.94,0.3,0.42,0.9c-0.53,0.38-1.19,0.43-1.79,0.65
		c-0.38,0.14-0.77,0.26-0.95,0.66c-0.15,0.33-0.27,0.71-0.06,1.03c0.22,0.34,0.58,0.16,0.87,0.09c1.71-0.43,3.46-0.57,5.19-0.85
		c2.28-0.37,4.53,0.09,6.8,0.17c0.41,0.01,0.89,0.12,0.98,0.7c-0.84,0.76-1.86,0.26-2.79,0.42c-3.31-0.06-6.6,0.11-9.84,0.85
		c-0.9,0.2-1.68,0.53-1.93,1.52c-0.04,0.49-0.33,0.95-0.15,1.47c0.07,0.27,0.1,0.54,0.11,0.82c0.05,0.38-0.11,0.87,0.37,1.04
		c0.4,0.14,0.64-0.25,0.88-0.5c0.65-0.65,1.33-1.26,2.04-1.84c0.29-0.24,0.57-0.48,0.77-0.81c0.21-0.33,0.32-0.73,0.73-0.89
		c0.58-0.08,1.15-0.23,1.73-0.33c0.54-0.1,1,0.09,1.37,0.51c0.15,0.18,0.26,0.38,0.36,0.58c0.06,0.1,0.1,0.2,0.15,0.31
		c0.15,0.37,0.28,0.74,0.42,1.12c0.7,2.55,1.75,4.97,2.88,7.36c0.16,0.38,0.39,0.75,0.43,1.17c0.01,0.25-0.08,0.46-0.24,0.64
		c-1.11,0.67-1.22,0.63-1.21-0.59c0.01-1.07-0.75-1.44-1.49-1.86c-0.09-0.5,0.34-1,0.01-1.51c-0.68-0.72-0.76-1.66-0.98-2.57
		c-0.13-0.56-0.27-1.16-0.74-1.57c-0.31-0.28-0.26-0.63-0.19-0.99c0.07-0.32,0-0.63-0.15-0.92c-0.21-0.39-0.52-0.46-0.89-0.26
		c-0.45,0.23-0.38,0.56-0.11,0.87c0.49,0.57,0.98,1.13,1.34,1.81c0.75,1.18,0.9,2.52,1.14,3.85c0.12,0.62-0.03,1.26,0.2,1.87
		c0.07,0.32,0.1,0.65,0.08,0.98c-0.08,0.31-0.06,0.7-0.54,0.71c-0.63-1.2-0.61-2.53-0.71-3.82c-0.1-1.38-0.54-2.62-1.18-3.82
		c-0.48-0.89-0.96-1.05-1.67-0.19c-0.94,1.13-1.94,2.2-2.91,3.29c-0.15,0.12-0.31,0.14-0.48,0.06c-0.08-0.09-0.11-0.2-0.09-0.31
		c0.2-0.58,0.73-0.89,1.08-1.35c0.12-0.15,0.27-0.33,0.09-0.51c-0.18-0.18-0.37-0.03-0.51,0.09c-0.32,0.28-0.62,0.59-0.91,0.9
		c-0.09,0.13-0.18,0.26-0.28,0.37c-0.08,0.07-0.17,0.1-0.27,0.11c-0.22-0.11-0.29,0-0.29,0.2c-0.71,0.77-1.53,1.43-2.19,2.26
		c-0.6-0.04-1.19-0.02-1.76,0.21c-0.24,0.05-0.42,0.14-0.32,0.44c-0.16,0.33-0.46,0.38-0.7,0.22c-0.55-0.37-1.13-0.27-1.71-0.24
		c-0.7-0.09-1.4-0.06-2.1,0.07c-0.11-0.03-0.21-0.08-0.29-0.15c-0.78-0.82-1.74-1.22-2.88-1.2
		C448.1,288.32,447.89,288.47,447.68,288.34z"/>
	<path style="fill-rule:evenodd;clip-rule:evenodd;fill:#060602;" d="M506,278c0.52,0.88-0.13,2.39,1.47,2.67
		c0.1,0.26-0.04,0.44-0.18,0.63c-0.86,1.63-0.6,2.3,1.14,2.51c1.31,0.16,2.6,0.88,3.96,0.26c0.14-0.07,0.28-0.14,0.42-0.21
		c0.17-0.1,0.33-0.21,0.49-0.33c0.1-0.09,0.2-0.19,0.27-0.32c-0.02-0.58-0.93-0.41-0.86-1.05c0.16-0.25,0.37-0.22,0.59-0.11
		c2.59,0.43,2.97,1.49,2.11,4.26c-0.61,1.96-2.08,2.31-3.65,2.68c-1.36,0.31-2.74,0.62-4.12,0.69c-1.27,0.06-2.22,0.29-2.36,1.75
		c-1.06-0.67-1.27-1.17-0.74-1.74c0.08-0.04,0.17-0.07,0.25-0.1c0.19-0.1,0.13-0.3,0.17-0.46c0.19-0.49,0.47-0.92,0.65-1.41
		c0.28-0.74-0.08-1.13-0.73-1.34c-0.66-0.21-0.94,0.16-1.09,0.74c-0.15,0.57-0.22,1.17-0.63,1.64c-0.21,0.11-0.21,0.27-0.08,0.45
		c0.02,0.18-0.03,0.34-0.14,0.49c-0.38,0.31-0.75,0.42-1.08-0.06c0.01-1.04,0.48-1.97,0.78-2.94c0.04-0.15,0.09-0.3,0-0.45
		c0.01,0.15-0.03,0.28-0.15,0.37c-0.14,0.11-0.29,0.1-0.42-0.04c-0.33-1.18,0.02-1.66,1.17-1.54c0.35,0.04,0.69,0.08,1.04,0.07
		c0.62,0,0.88-0.38,1.04-0.94c0.36-1.27,0.43-2.57,0.39-3.88c-0.02-0.35-0.14-0.68-0.19-1.02c-0.03-0.3-0.1-0.58-0.18-0.87
		c-0.07-0.37-0.1-0.74,0.04-1.1c0.09-0.18,0.21-0.31,0.44-0.25v0C506.04,277.32,505.81,277.71,506,278z"/>
	<path style="fill-rule:evenodd;clip-rule:evenodd;fill:#090904;" d="M490.1,299.15c-3.43-0.11-6.8-0.73-9.99-1.87
		c-1.61-0.58-3.22-1.12-4.85-1.64c-0.52-0.17-0.92-0.18-1.21,0.34c-0.46-0.07-0.38-0.41-0.35-0.72c0.07-0.18,0.19-0.32,0.37-0.4
		c0.35-0.13,0.72-0.12,1.08-0.05c0.17,0.03,0.34,0.08,0.51,0.13c0.12,0.02,0.23,0.04,0.34,0.07c0.4,0.1,0.8,0.2,1.21,0.28
		c1.45,0.39,2.9,0.7,4.4,0.86c0.53-0.04,1.02,0.17,1.54,0.22c1.5-0.06,3.01,0.08,4.5-0.09c0.59-0.06,1.08-0.39,1.56-0.7
		c0.43-0.24,0.77-0.6,1.07-0.99c1.08-1.29,1.95-2.7,2.62-4.24c0.29-0.59,0.52-1.2,0.64-1.85c0.42-1.98,0.67-3.97,0.61-5.99
		c0.1-0.74-0.13-1.44-0.31-2.14c-0.12-0.56-0.43-1.04-0.7-1.53c-0.63-1.6-1.75-2.87-2.81-4.18c-0.42-0.47-0.98-0.76-1.49-1.11
		c-0.09-0.05-0.18-0.11-0.27-0.16c-0.14-0.07-0.29-0.13-0.44-0.19c-0.92-0.45-1.91-0.71-2.89-1c-1.41-0.41-2.81-0.85-4.26-1.08
		c-1.18-0.36-2.49-0.18-3.55-0.96c-0.1-0.19-0.11-0.38-0.01-0.57c0.29-0.28,0.65-0.3,1.01-0.24c3.58,0.62,7.13,1.37,10.49,2.83
		c1.09,0.48,1.96,1.23,2.73,2.11c2.9,3.29,4.5,6.95,3.79,11.51c-0.54,3.46-1.7,6.55-3.86,9.28c-0.47,0.44-0.82,1-1.37,1.36
		c-0.14,0.11-0.29,0.21-0.43,0.31c-0.14,0.11-0.29,0.21-0.45,0.3c-1.77,0.85-3.62,0.83-5.49,0.52c-0.11-0.03-0.21-0.07-0.32-0.11
		c-0.31-0.12-0.63-0.2-0.97-0.08c0.29-0.1,0.58-0.04,0.87,0.06c2.03,0.37,4.06,0.69,6.11,0.86c0.77,0.06,1.61-0.04,2.17,0.7
		C491.2,299.45,490.64,299.2,490.1,299.15z"/>
	<path style="fill-rule:evenodd;clip-rule:evenodd;fill:#18170F;" d="M490.1,299.15c0.5-0.15,1.07,0.12,1.54-0.23
		c0.97-0.77,2.1-0.33,3.16-0.39c1.18,0.04,2.35-0.13,3.52-0.29c0.6-0.16,1.25-0.22,1.74-0.68c0.38-0.32,0.73-0.68,1.07-1.04
		c1.22-1.23,2.12-2.69,2.92-4.22c0.25-0.48,0.53-1.03-0.04-1.52c-0.23-0.13-0.48-0.21-0.75-0.22c-0.23-0.01-0.45-0.03-0.68-0.04
		c-0.49-0.08-0.94,0.17-1.41,0.21c-0.88,0.07-1.27-0.35-1.12-1.22c0.12-0.63,0.49-1.17,0.75-1.74c0.23-0.5,0.61-0.97,0.55-1.55
		c-0.1-0.98,0.47-1.35,1.29-1.53c0.52-0.03,1,0.09,1.47,0.3c0.17,0.11,0.3,0.23,0.24,0.46c-0.28,0-0.58,0.06-0.82-0.03
		c-1.33-0.47-1.53,0.17-1.31,1.27c0.44,0.61-0.14,1.02-0.3,1.52c-0.14,0.45-0.63,0.91,0.05,1.34c0.33,0.41,0.64,0.1,0.95-0.02
		c0.69-0.2,1.35-0.25,1.93,0.29c-0.84,0.8,0.46,1.04,0.43,1.62c-0.95,2.54-2.51,4.67-4.42,6.56c-0.93,0.92-2.17,1.1-3.4,1.22
		C495,299.43,492.55,299.5,490.1,299.15z"/>
	<path style="fill-rule:evenodd;clip-rule:evenodd;fill:#0D0D08;" d="M462.13,266.2c0.27,0.14,0.52,0.38,0.87,0.24
		c0.2-0.1,0.32,0,0.41,0.16c-0.17,0.91,0.23,1.28,1.14,1.25c0.59-0.02,1.18,0,1.77-0.02c0.48-0.01,0.95-0.01,1.41,0.08
		c0.18,0.03,0.35,0.08,0.53,0.13c0.24,0.03,0.49,0.02,0.74,0.04c0.88,0.17,1.78,0.2,2.65,0.43c0.86,0.07,1.79-0.12,2.5,0.58
		c-0.16,0.83-0.86,0.49-1.34,0.61c-0.14,0.02-0.27,0.02-0.41,0.01c-0.47-0.03-0.95,0.04-1.42-0.03c-1.25-0.17-2.49-0.43-3.76-0.46
		c-0.34,0-0.67,0.01-1.01-0.05c-0.46-0.11-0.92-0.24-1.4-0.18c-2.01,0.06-4.01-0.21-6-0.35c-0.29-0.14-0.48-0.35-0.14-0.6
		c0.48-0.35,0.98-0.66,1.63-0.54c0.5,0.09,1.02,0.18,1.48-0.13c0.06-0.08,0.11-0.17,0.13-0.28
		C461.92,266.78,461.83,266.44,462.13,266.2z"/>
	<path style="fill-rule:evenodd;clip-rule:evenodd;fill:#10100B;" d="M448.91,271.41c0,0.12,0,0.25,0,0.37
		c-0.89,0.25-1.39,0.98-1.97,1.6c-0.29,0.31-0.46,0.74-0.93,0.86c-0.18-0.04-0.32-0.11-0.22-0.33c1.76-3.39,4.83-4.77,8.35-5.46
		c0.78-0.15,1.57-0.22,2.36-0.33c0.61-0.38,1.2-0.43,1.78,0.05c-0.05,0.7-0.66,0.63-1.1,0.75c-0.6,0.16-1.23-0.03-1.82,0.2
		c-0.44,0.25-0.95,0.13-1.4,0.27c-0.46,0.05-0.91,0.22-1.38,0.21C451.24,269.96,450.12,270.78,448.91,271.41z"/>
	<path style="fill-rule:evenodd;clip-rule:evenodd;fill:#11100B;" d="M498.38,269.83c0.83,1.11,0.69,2.73,1.89,3.65
		c0.04,0.39-0.27,0.51-0.53,0.66c-0.9,0.32-1.8,0.67-2.75,0.86c-0.61,0.17-1.21,0.31-1.75-0.17c-0.22-0.27-0.2-0.55-0.03-0.83
		c0.07-0.09,0.15-0.17,0.24-0.24c0.13-0.09,0.28-0.17,0.43-0.24c0.09-0.05,0.19-0.1,0.29-0.15c0.14-0.07,0.29-0.14,0.44-0.2
		c0.15-0.06,0.3-0.11,0.45-0.15c1.54-0.39,1.54-0.39,0.94-1.92c-0.13-0.44-0.48-0.85-0.14-1.34
		C498.06,269.69,498.22,269.7,498.38,269.83z"/>
	<path style="fill-rule:evenodd;clip-rule:evenodd;fill:#181610;" d="M483.23,266.03c4.17,0.47,8.4,0.54,12.48,1.68
		c-0.01,0.48-0.4,0.45-0.71,0.53c-0.72,0.06-1.43,0.01-2.14-0.18c-0.26-0.05-0.52-0.07-0.78-0.14c-0.2-0.04-0.39-0.08-0.59-0.13
		c-2.83-0.36-5.67-0.48-8.48-0.93c-0.46-0.07-0.97,0.02-1.26-0.49C482.1,265.61,482.79,266.34,483.23,266.03z"/>
	<path style="fill-rule:evenodd;clip-rule:evenodd;fill:#2E2B27;" d="M458.27,268.36c-0.54-0.42-1.19-0.08-1.76-0.24
		c-0.39-0.91,0.13-1.49,0.84-1.79c0.74-0.31,1.53-0.61,2.38-0.53c0.47,0.13,0.94,0.14,1.42-0.01c0.38,0,0.73,0.1,0.98,0.41
		c0.07,0.34,0.14,0.68,0.21,1.02c-0.23,0.13-0.5,0.17-0.67-0.01c-0.98-1.06-2.11-0.65-3.22-0.37c-0.31,0.08-0.84,0.16-0.74,0.59
		c0.07,0.27,0.6,0.2,0.88,0.08c1.25-0.54,2.5-0.22,3.75-0.09c-0.34,0.48-0.86,0.61-1.35,0.47c-0.93-0.25-1.69,0.04-2.46,0.47
		C458.44,268.45,458.36,268.44,458.27,268.36z"/>
	<path style="fill-rule:evenodd;clip-rule:evenodd;fill:#1B1A12;" d="M461.37,287.11c0.18,0.01,0.35,0.01,0.53,0.02
		c-0.81,1.04-1.77,1.94-2.95,2.55c-0.66,0.34-0.96,0.78-0.9,1.5c0.13,0.25,0.16,0.49-0.02,0.73l-0.01,0.01
		c-0.06,0.09-0.14,0.15-0.24,0.2c-0.16,0.01-0.31,0.02-0.47,0.04c-0.08-0.09-0.11-0.19-0.09-0.31c0.22-0.82-0.17-1-0.88-0.85
		c-0.77,0.16-1.56,0.42-2.2-0.32c0.02-0.2,0.14-0.31,0.3-0.39c0.74-0.19,1.51-0.28,2.24-0.52c0.44-0.08,0.88-0.21,1.28-0.43
		c0.98-0.38,1.77-1.04,2.54-1.73C460.75,287.38,460.93,287,461.37,287.11z"/>
	<path style="fill-rule:evenodd;clip-rule:evenodd;fill:#1D1C16;" d="M463.32,266.73c-0.11-0.09-0.21-0.19-0.32-0.28
		c0.55-0.38,1.2-0.68,1.63-1.17c1.65-1.88,3.64-1.41,5.64-0.92c-0.2,0.75-0.84,0.44-1.31,0.55c-0.42,0.02-0.84,0-1.26-0.04
		c-0.46-0.09-0.93-0.13-1.34,0.18c-0.36,0.22-0.71,0.45-1.03,0.72C464.72,266.22,464.22,266.9,463.32,266.73z"/>
	<path style="fill-rule:evenodd;clip-rule:evenodd;fill:#2E2B27;" d="M473.87,295.28c0.06,0.23,0.12,0.46,0.18,0.69
		c-0.37,0.88-0.96,1.2-1.88,0.77c-0.21-0.1-0.45-0.15-0.68-0.2c-2.67-0.68-2.74-0.78-2.4-3.42c0.6,0.01,0.59,0.68,0.99,0.92
		c-0.38,0.89-0.05,1.4,0.87,1.56c0.9,0.16,1.89,0.95,2.61-0.33C473.67,295.21,473.77,295.21,473.87,295.28z"/>
	<path style="fill-rule:evenodd;clip-rule:evenodd;fill:#1F1E17;" d="M499.8,273.88c0.16-0.13,0.31-0.27,0.47-0.4
		c1.88,1.14,4.12,1.71,5.53,3.56c-0.09,0.1-0.18,0.2-0.28,0.3c-0.91-0.13-1.37-1-2.18-1.3c-0.41-0.24-0.85-0.44-1.27-0.67
		c-0.41-0.25-0.8-0.53-1.24-0.72C500.46,274.43,500,274.33,499.8,273.88z"/>
	<path style="fill-rule:evenodd;clip-rule:evenodd;fill:#25231E;" d="M468.77,264.6c0.49-0.12,1.05,0.14,1.5-0.24
		c1.86,0.3,3.73,0.6,5.59,0.89c-0.2,0.33-0.55,0.42-0.89,0.53c-1.95,0.06-3.82-0.47-5.73-0.72
		C469.01,265.02,468.81,264.87,468.77,264.6z"/>
	<path style="fill-rule:evenodd;clip-rule:evenodd;fill:#18190F;" d="M507.23,281.06c0.08-0.13,0.16-0.26,0.24-0.38
		c2.01,0.15,3.97,0.53,5.82,1.38c-0.18,0.07-0.35,0.14-0.53,0.21c-0.13,0.18-0.33,0.24-0.53,0.19c-1.48-0.35-2.97-0.63-4.45-0.99
		C507.56,281.42,507.34,281.3,507.23,281.06z"/>
	<path style="fill-rule:evenodd;clip-rule:evenodd;fill:#1B1912;" d="M447.68,288.34c0.15-0.09,0.31-0.18,0.46-0.27
		c1.19,0.22,2.25,0.71,3.2,1.46l-0.03-0.02c0.69,0.13,1.41,0.17,2.04,0.53c0.1,0.06,0.17,0.15,0.22,0.25
		c-0.01,0.4,0.04,0.82-0.52,0.9c-0.07-0.02-0.1-0.07-0.08-0.15c-0.06-0.14-0.06-0.28,0-0.41
		C451.07,290.17,449.33,289.35,447.68,288.34z"/>
	<path style="fill-rule:evenodd;clip-rule:evenodd;fill:#13120F;" d="M470.06,294.12c-0.82,0.15-0.63-0.68-0.98-1
		c-0.32-0.44-0.7-0.85-0.71-1.44c0.07-0.24,0.14-0.47,0.21-0.71c0.17-0.07,0.34-0.01,0.38,0.15c0.32,1.1,1.18,1.82,1.84,2.68
		c0.02,0.31-0.17,0.42-0.43,0.45C470.27,294.25,470.16,294.2,470.06,294.12z"/>
	<path style="fill-rule:evenodd;clip-rule:evenodd;fill:#2B2923;" d="M494.98,267.93c0.26-0.02,0.54,0.03,0.73-0.22
		c1.28,0.22,2.16,0.94,2.67,2.13c-0.15,0.01-0.3,0.01-0.46,0.01c-0.99-0.35-1.67-1.27-2.73-1.5
		C495.04,268.25,494.93,268.13,494.98,267.93z"/>
	<path style="fill-rule:evenodd;clip-rule:evenodd;fill:#1E1D16;" d="M445.79,273.91c0.06,0.08,0.12,0.17,0.17,0.25
		c0.11,0.05,0.16,0.14,0.16,0.25c-0.14,0.46-0.46,0.85-0.57,1.32c-0.16,0.41-0.24,0.85-0.55,1.19c-0.34,0.19-0.06,0.84-0.63,0.85
		c-0.08-0.09-0.16-0.17-0.25-0.26C444.55,276.26,444.71,274.87,445.79,273.91z"/>
	<path style="fill-rule:evenodd;clip-rule:evenodd;fill:#2A2824;" d="M453.04,291.19c0.14-0.31,0.28-0.61,0.42-0.92
		c0.4-0.32,0.77-0.39,1.01,0.18c-0.09,0.09-0.19,0.18-0.28,0.27c-0.3,0.57-0.14,0.97,0.43,1.24c0.28,0.16,0.66,0.14,0.84,0.47
		C454.19,292.94,453.29,292.7,453.04,291.19z"/>
	<path style="fill-rule:evenodd;clip-rule:evenodd;fill:#2D2B27;" d="M480.75,265.73c0.69,0.03,1.4-0.11,2.05,0.24
		c-0.34,0.34-0.91-0.08-1.21,0.37c-0.28,0.19-0.6,0.2-0.92,0.17c-0.49-0.1-0.99-0.14-1.44-0.39c-0.26-0.28-0.08-0.43,0.17-0.57
		c0.16,0,0.33,0,0.49,0.01C480.16,265.68,480.47,265.64,480.75,265.73z"/>
	<path style="fill-rule:evenodd;clip-rule:evenodd;fill:#2B2923;" d="M444.85,286.39c0.08-0.09,0.16-0.17,0.24-0.26
		c0.1-0.06,0.21-0.07,0.32-0.04c0.63,0.56,1.67,0.68,1.84,1.73c-0.01,0.09-0.01,0.18-0.02,0.28
		C446.33,287.68,445.49,287.17,444.85,286.39z"/>
	<path style="fill-rule:evenodd;clip-rule:evenodd;fill:#100F09;" d="M475.08,265.48c0.26-0.08,0.52-0.16,0.78-0.24
		c0.72,0.11,1.47-0.08,2.16,0.24c-0.02,0.16-0.12,0.27-0.25,0.35c-0.09,0.04-0.19,0.06-0.29,0.07c-0.21,0.02-0.4,0.07-0.61,0.11
		c-0.51,0.07-1.02,0.11-1.52-0.1C475.2,265.82,475.1,265.68,475.08,265.48z"/>
	<path style="fill-rule:evenodd;clip-rule:evenodd;fill:#262320;" d="M455.47,292.43c-0.34-0.07-0.73,0.07-1.02-0.24
		c0.89-0.8,1.85-0.88,2.87-0.28c0,0.08,0,0.15,0,0.23l-0.09,0.05l-0.11-0.01c-0.23,0.16-0.53,0.02-0.76,0.18
		C456.06,292.39,455.76,292.41,455.47,292.43z"/>
	<path style="fill-rule:evenodd;clip-rule:evenodd;fill:#2F2C28;" d="M479.4,265.56c-0.08,0.14-0.16,0.27-0.24,0.41
		c-0.17,0.25-0.42,0.29-0.69,0.29c-0.27-0.04-0.5-0.12-0.58-0.42c0.26-0.39,0.72-0.04,1.02-0.29
		C479.07,265.55,479.23,265.55,479.4,265.56z"/>
	<path style="fill-rule:evenodd;clip-rule:evenodd;fill:#060602;" d="M481.57,266.2c0.36-0.37,0.84-0.09,1.24-0.23
		c0.14,0.02,0.29,0.04,0.43,0.06c-0.44,0.37-0.97,0.12-1.45,0.22C481.7,266.31,481.63,266.3,481.57,266.2z"/>
	<path style="fill-rule:evenodd;clip-rule:evenodd;fill:#0A0903;" d="M461.15,265.8c-0.47,0.32-0.94,0.31-1.42,0.01
		C460.21,265.8,460.68,265.8,461.15,265.8z"/>
	<path style="fill-rule:evenodd;clip-rule:evenodd;fill:#0E0E05;" d="M478.91,265.55c-0.27,0.33-0.66,0.17-1,0.24
		c-0.09,0.04-0.15,0.03-0.2-0.06c0.1-0.08,0.2-0.16,0.31-0.23C478.32,265.51,478.62,265.53,478.91,265.55z"/>
	<path style="fill-rule:evenodd;clip-rule:evenodd;fill:#1F1E17;" d="M506,278c-0.29-0.27-0.21-0.62-0.2-0.96
		C506.09,277.31,506.04,277.66,506,278z"/>
	<path style="fill-rule:evenodd;clip-rule:evenodd;fill:#1E1D16;" d="M444.12,277.52c0.01,0.34,0.09,0.69-0.21,0.96
		C443.88,278.14,443.83,277.79,444.12,277.52z"/>
	<path style="fill-rule:evenodd;clip-rule:evenodd;fill:#2F2C28;" d="M480.75,265.73c-0.3,0.01-0.62,0.09-0.87-0.17
		C480.18,265.62,480.46,265.68,480.75,265.73z"/>
	<path style="fill-rule:evenodd;clip-rule:evenodd;fill:#51504D;" d="M458.03,291.91c0.01-0.24,0.02-0.49,0.02-0.73
		C458.2,291.43,458.45,291.68,458.03,291.91z"/>
	<path style="fill-rule:evenodd;clip-rule:evenodd;fill:#51504D;" d="M456.35,292.36c0.22-0.22,0.48-0.26,0.76-0.18
		C456.9,292.41,456.64,292.44,456.35,292.36z"/>
	<path style="fill-rule:evenodd;clip-rule:evenodd;fill:#2A2824;" d="M452.96,290.63c0,0.14,0,0.28,0,0.41
		C452.78,290.91,452.75,290.77,452.96,290.63z"/>
	<path style="fill-rule:evenodd;clip-rule:evenodd;fill:#51504D;" d="M457.79,292.11c0.08-0.06,0.16-0.13,0.24-0.2
		C457.95,291.98,457.87,292.04,457.79,292.11z"/>
	<path style="fill-rule:evenodd;clip-rule:evenodd;fill:#E4F1FB;" d="M467.83,280.9c-0.51-0.52-1.07-0.69-1.74-0.28
		c-0.41,0.25-0.84,0.31-1.28,0.05c-1.78-0.14-3.42,0.49-5.1,0.93c-0.13-1.2,0.37-1.94,1.57-2.19c3.41-0.7,6.84-1.23,10.34-0.89
		c1.13,0.28,2.31-0.16,3.42,0.23c0.49,0.55,0.15,1.13,0.03,1.7c-0.99,4.61,3.46,9.35,8.14,8.67c3.32-0.48,4.94-3.64,3.44-6.65
		c-0.26-0.53-0.89-0.99-0.46-1.72c0.85-0.32,1.58-0.11,2.24,0.46c1.33,3.25,0.72,6.46-1.64,8.43c-1.63,1.36-3.59,1.75-5.63,1.6
		c-1.8-0.13-3.56-0.53-5.24-1.22c-2.21-0.91-3.78-2.36-4.12-4.87c-0.06-0.44-0.18-0.86-0.26-1.29c-0.22-1.13-0.88-1.85-1.98-2.18
		C468.95,281.51,468.33,281.34,467.83,280.9z"/>
	<path style="fill-rule:evenodd;clip-rule:evenodd;fill:#90BD89;" d="M474.58,278.29c-3.07-0.51-6.16-0.7-9.25-0.16
		c-1.52,0.26-3.04,0.52-4.52,0.93c-0.74,0.2-0.61-0.15-0.59-0.55c0.07-1.88,0.37-2.12,3.34-2.71c0.25-0.05,0.39-0.29,0.6-0.4
		c0.11-0.06,0.23-0.1,0.35-0.12c1.74-0.49,3.51-0.22,5.27-0.18c0.29,0.05,0.57,0.18,0.87,0.2c0.17,0.02,0.35,0.05,0.52,0.09
		c0.11,0.02,0.23,0.05,0.34,0.09c0.57,0.12,1.17,0.02,1.74,0.13c1.69,0.31,3.4,0.27,5.1,0.48c1.16,0.23,2.32,0.36,3.49,0.49
		c2.3,0.14,4.52,0.83,6.83,0.88c1.88,0.03,2.9,1.11,3.06,2.99c0.07,0.82-0.2,1.02-1.23,0.82c-1.98-0.4-3.97-0.73-5.97-1.04
		c-0.78-0.2-1.55-0.4-2.36-0.44c-2.25-0.31-4.47-0.77-6.71-1.15C475.14,278.55,474.84,278.49,474.58,278.29z"/>
	<path style="fill-rule:evenodd;clip-rule:evenodd;fill:#9DCFF1;" d="M459.21,284.96c0.89,0.7,0.56,1.17-0.21,1.75
		c-3.83,2.88-7.26,2.3-10.86,0.15c-1.31-0.79-2.14-2.29-2.28-3.74c-0.37-4.01,0.21-7.83,3.48-10.72c1.76-1.56,3.95-1.59,6.08-1.81
		c1.41-0.15,2.86,0.13,4.27-0.24c0.15,0.09,0.36,0.14,0.33,0.38c-0.25,0.54-0.79,0.64-1.28,0.8c-2.09,0.67-4.14,1.46-6.28,2
		c-2.28,0.57-4.09,1.71-4.99,4.04c-1.59,4.13,0.5,8.57,4.32,9.35c1.28,0.26,2.46-0.07,3.6-0.54c0.96-0.39,1.95-0.72,2.81-1.32
		C458.5,284.84,458.85,284.67,459.21,284.96z"/>
	<path style="fill-rule:evenodd;clip-rule:evenodd;fill:#E2F0FB;" d="M459.74,275.56c-0.42-0.54-1.07,0.51-1.47-0.2
		c-0.07-0.08-0.15-0.15-0.25-0.2l-0.11-0.01l-0.11,0.01c-0.08,0.06-0.17,0.11-0.25,0.16c-0.22,0.18-0.44,0.36-0.66,0.54
		c-1.14,0.18-2.28,0.35-3.37,0.75c-1.7,0.63-2.45,1.6-2.33,3.04c0.11,1.38,1.37,2.73,2.87,2.97c1.25,0.2,2.47,0.08,3.53-0.71
		c0.29-0.22,0.62-0.35,0.93-0.53c1.01,0.06,0.33,0.77,0.45,1.17c-0.3,0.91-1.13,1.19-1.86,1.58c-1.28,0.69-2.61,1.21-4.1,1.16
		c-1.87-0.06-3.18-1-3.93-2.67c-1.36-3.02,0.1-6.43,3.23-7.51c2.38-0.82,4.76-1.63,7.24-2.07c0.5-0.09,1.03-0.27,1.45,0.22
		c0.06,0.12,0.09,0.25,0.09,0.38c-0.07,0.6-0.35,1.14-0.63,1.67C460.32,275.59,460.12,275.9,459.74,275.56z"/>
	<path style="fill-rule:evenodd;clip-rule:evenodd;fill:#9ECFF1;" d="M471.96,291.19c-0.15-0.32-0.3-0.64-0.45-0.95
		c0.62-0.44,1.03,0.08,1.5,0.33c3.83,1.97,7.87,2.6,12.03,1.42c3.22-0.92,5.18-3.81,5.29-7.2c0.03-1.01-0.28-2.08,0.32-3.04
		c1.08-0.17,1.46,0.04,1.54,1.04c0.1,1.28,0.13,2.56-0.3,3.8c-0.63,1.77-1.25,3.55-2.11,5.21c-1.03,2-2.65,3.07-4.99,3.11
		c-3.46,0.07-6.83-0.45-10.14-1.35c-0.16-0.08-0.31-0.18-0.46-0.28c-0.09-0.05-0.19-0.12-0.28-0.18c-0.13-0.08-0.27-0.17-0.4-0.25
		c-0.17-0.1-0.34-0.22-0.5-0.35c-0.08-0.06-0.16-0.12-0.24-0.19c-0.04-0.03-0.08-0.07-0.12-0.1
		C472.25,291.98,472.19,291.53,471.96,291.19z"/>
	<path style="fill-rule:evenodd;clip-rule:evenodd;fill:#B3D9F4;" d="M490.7,281.79c-0.08,2.29,0.22,4.61-0.96,6.77
		c-1.55,2.82-3.99,4.17-7.08,4.29c-3.23,0.13-6.43-0.17-9.39-1.69c-0.59-0.3-0.96-1.01-1.75-0.92c-1.23-2.46-2.49-4.92-2.92-7.68
		c0.95-0.39,1.5,0.18,1.97,0.86c0.47,0.67,0.6,1.48,0.72,2.26c0.35,2.34,1.78,3.8,3.87,4.63c2.32,0.92,4.78,1.31,7.27,1.24
		c4.65-0.14,7.81-4.33,6.78-8.85c-0.1-0.46-0.32-0.92,0-1.38C489.84,281.02,490.38,281.07,490.7,281.79z"/>
	<path style="fill-rule:evenodd;clip-rule:evenodd;fill:#D0E7F9;" d="M489.24,281.38c0.61,1.86,0.73,3.77,0.04,5.6
		c-1.21,3.23-3.86,4.98-7.38,4.92c-2.35-0.04-4.67-0.4-6.88-1.25c-2.58-0.99-3.97-2.94-4.26-5.68c-0.14-1.32-0.74-2.25-2.17-2.42
		c-0.15-0.32-0.29-0.64-0.44-0.96c0.05-0.1,0.02-0.18-0.09-0.22c-0.08-0.16-0.15-0.32-0.23-0.48c3.59,0.79,3.77,0.96,4.36,4.47
		c0.26,1.54,0.97,2.78,2.35,3.53c3.12,1.7,6.39,2.64,9.93,1.59c3.27-0.97,5.08-4.48,4.12-7.79c-0.13-0.45-0.2-0.92-0.3-1.39
		C488.63,281.08,488.95,281.08,489.24,281.38z"/>
	<path style="fill-rule:evenodd;clip-rule:evenodd;fill:#F1F7FD;" d="M458.52,281.39c-2.13,2.55-6.1,2.17-7.42-0.72
		c-0.58-1.27-0.29-2.92,0.88-3.62c1.48-0.89,3.07-1.68,4.91-1.19c-0.08,0.08-0.16,0.16-0.25,0.23c-0.12,0.06-0.21,0.15-0.27,0.27
		c-0.09,0.15-0.18,0.3-0.27,0.45c-0.2,0.2-0.04,0.5-0.19,0.72l-0.02,0.03c-0.06,1.02-0.01,2.04-0.02,3.06
		C456.46,281.89,457.7,280.91,458.52,281.39z"/>
	<path style="fill-rule:evenodd;clip-rule:evenodd;fill:#DFEFFB;" d="M463.09,275.37c-0.56,0.16-1.13,0.32-1.69,0.48
		c-0.83,0.28-1.04-0.08-0.82-0.82c0.11-0.38,0.33-0.73,0.49-1.09c0.06-0.11,0.11-0.21,0.15-0.33c0.08-0.17,0.18-0.32,0.29-0.47
		c0.29-0.37,0.64-0.63,1.15-0.55c2.04,0.11,4.06-0.14,6.07-0.44c2.3-0.34,4.39,0.63,6.54,1.2c0.18,0.05,0.35,0.11,0.53,0.17
		c0.22,0.06,0.44,0.12,0.65,0.19c0.2,0.06,0.41,0.12,0.62,0.15c0.21,0.03,0.41,0.06,0.61,0.11c0.19,0.05,0.39,0.11,0.59,0.13
		c0.2,0.02,0.4,0.06,0.6,0.11c0.19,0.05,0.38,0.11,0.58,0.15c0.15,0.03,0.29,0.06,0.43,0.1c0.19,0.05,0.38,0.1,0.57,0.13
		c0.19,0.02,0.39,0.05,0.58,0.11c0.14,0.04,0.28,0.09,0.42,0.14c0.28,0.09,0.55,0.2,0.81,0.33c0.14,0.06,0.27,0.13,0.4,0.2
		c0.1,0.04,0.19,0.09,0.28,0.14c0.15,0.08,0.28,0.17,0.4,0.29c0.21,0.25,0.34,0.5-0.04,0.73c-0.61,0.25-1.22,0.07-1.83,0.03
		c-0.36-0.07-0.71-0.14-1.08-0.15c-0.24-0.05-0.48-0.08-0.73-0.1c-0.18-0.04-0.36-0.09-0.55-0.1c-1.34-0.09-2.67-0.35-4.01-0.36
		c-0.19-0.02-0.37-0.07-0.55-0.15c-0.11-0.05-0.22-0.12-0.32-0.19c-0.16-0.11-0.3-0.25-0.44-0.39c-2.54-2.26-5.14-2.35-7.82-0.27
		C465.07,275.38,464.05,275.19,463.09,275.37z"/>
	<path style="fill-rule:evenodd;clip-rule:evenodd;fill:#AAD4F2;" d="M459.21,284.96c-1.79,0.73-3.44,1.75-5.38,2.22
		c-3.43,0.85-6.63-2.25-7.05-5.09c-0.73-4.84,1.44-7.96,5.96-9.04c2.47-0.59,4.91-1.35,7.21-2.47c1.13-0.71,2.28-0.35,3.42-0.05
		c0.55,0.14,0.54,0.51,0.13,0.85c-0.28,0.23-0.61,0.36-0.96,0.43c-2.29,0.04-4.46,0.58-6.58,1.42c-1.25,0.5-2.57,0.83-3.86,1.19
		c-2.25,0.28-3.45,1.72-4.12,3.75c-0.03,0.11-0.07,0.22-0.12,0.33c-0.67,1.95-0.29,3.79,0.75,5.48c1.16,1.87,3.31,2.68,5.5,2.22
		c1.34-0.29,2.57-0.83,3.7-1.59c0.36-0.24,0.68-0.58,1.18-0.37C459.18,284.45,459.3,284.67,459.21,284.96z"/>
	<path style="fill-rule:evenodd;clip-rule:evenodd;fill:#CEE6F8;" d="M460.92,273.44c-0.78-0.51-1.58-0.05-2.27,0.13
		c-2.23,0.57-4.44,1.28-6.62,2.03c-2.03,0.7-3.35,3.05-3.09,5.28c0.25,2.15,1.61,3.84,3.47,4.05c2.54,0.29,4.62-0.91,6.57-2.36
		c0,0.32,0,0.64,0,0.96c-1.98,1.74-4.18,2.94-6.92,2.49c-2.14-0.35-3.82-2.23-4.16-4.4c-0.5-3.24,0.98-6.25,4.41-7.22
		c2.19-0.62,4.29-1.51,6.49-2.08c0.89-0.23,1.84-0.56,2.8-0.18C461.86,272.83,461.61,273.25,460.92,273.44z"/>
	<path style="fill-rule:evenodd;clip-rule:evenodd;fill:#0F0F09;" d="M460.92,273.44c0.26-0.39,0.51-0.79,0.77-1.18
		c0-0.46,0.42-0.52,0.7-0.72c0.43-0.15,0.9-0.24,1.17-0.67c-0.41-0.1-0.81-0.25-1.22-0.27c-0.79-0.04-1.59-0.01-2.38,0
		c-0.09-0.08-0.18-0.17-0.27-0.25c0.17-0.08,0.34-0.16,0.51-0.23c0.51-0.73,1.02-1.05,1.97-0.54c0.71,0.38,1.61,0.4,2.33-0.21
		c0.08-0.08,0.16-0.16,0.25-0.23c0.09-0.07,0.19-0.11,0.3-0.14c0.66-0.08,0.6,0.89,1.23,0.85c0.32,0.08,0.63,0.15,0.96,0.15
		c1.23-0.41,2.33,0.2,3.47,0.46c0.66,0.13,0.89-0.79,1.55-0.66c0.74,0.93,2.26,1.42,3.48,1.03c0.5-0.16,0.81-0.08,1.29,0.18
		c1.27,0.69,2.65,0.61,3.99,0.1c0.46,0.5,1.2,0.77,1.31,1.57c-0.21,0.3-0.52,0.35-0.84,0.38c-2.65-0.3-5.29-0.66-7.93-1.05
		c-2.47-0.37-4.97-0.59-7.46-0.81c-0.82-0.07-1.57,0.23-2.26,0.63c-0.19,0.13-0.41,0.22-0.62,0.32c-0.13,0.07-0.27,0.14-0.4,0.22
		c-0.15,0.11-0.29,0.26-0.48,0.31c-0.25,0.25-0.5,0.51-0.75,0.76c-0.05,0.09-0.11,0.17-0.19,0.25l0,0c-0.16,0.14-0.33,0.13-0.49,0
		C460.91,273.6,460.92,273.52,460.92,273.44z"/>
	<path style="fill-rule:evenodd;clip-rule:evenodd;fill:#BBDDF5;" d="M462.38,271.53c-0.23,0.24-0.47,0.48-0.7,0.72
		c-3.83,0.23-7.28,1.8-10.81,3.11c-0.47,0.17-0.92,0.52-1.25,0.89c-2.21,2.44-1.99,6.4,0.48,8.55c1.07,0.93,2.36,1.18,3.77,0.94
		c1.89-0.32,3.42-1.43,5.09-2.23c0,0.16,0,0.32,0,0.48c-1.29,0.86-2.57,1.72-4.09,2.17c-4.59,1.37-7.5-2.12-7.46-5.95
		c0.01-0.66,0.04-1.35,0.3-1.98l0,0c0.7-2.02,2.06-3.38,4.08-4.08c2.92-0.63,5.58-2.09,8.57-2.52
		C461.05,271.55,461.71,271.55,462.38,271.53z"/>
	<path style="fill-rule:evenodd;clip-rule:evenodd;fill:#ECF5FC;" d="M470.75,293.88c-1.18-0.63-1.76-1.7-2.15-2.91
		c-0.01-0.29-0.01-0.59-0.02-0.88c-0.14-0.6-0.04-0.99,0.71-0.81c1.33,0.37,2.26,0.97,1.5,2.57c-0.03,0.06,0.08,0.19,0.13,0.28
		c0.26-0.15,0.52-0.3,0.78-0.44c0.4,0.1,0.67,0.42,1,0.63c0.08,0.05,0.17,0.1,0.25,0.15c0.08,0.06,0.15,0.12,0.23,0.18
		c0.04,0.03,0.08,0.06,0.11,0.09c0.08,0.06,0.16,0.11,0.25,0.15c0.09,0.05,0.17,0.1,0.25,0.17c0.08,0.07,0.14,0.15,0.2,0.25
		c0.02,0.05,0.03,0.1,0.05,0.15c0.02,0.11,0.02,0.22,0,0.33c-0.17,0.4-0.1,0.91-0.57,1.17
		C472.41,294.97,471.49,294.64,470.75,293.88z"/>
	<path style="fill-rule:evenodd;clip-rule:evenodd;fill:#EDF5FC;" d="M464.76,269.36c-0.03,0.34,0.04,0.87-0.49,0.71
		c-0.9-0.26-2.09,0.79-2.73-0.63c-0.08-0.17-0.49-0.06-0.53,0.23c-0.08,0.55-0.48,0.39-0.8,0.43c-0.76-0.22-1.4-0.67-2.34-0.29
		c-0.74,0.31-1.73,0.36-2.43-0.43c-0.27,0.04-0.38-0.06-0.3-0.33c0.91-0.87,2.16-0.17,3.14-0.68c0.08,0,0.17,0,0.25,0
		c2.16,0.11,4.31,0.21,6.47,0.32c0.15,0.14,0.14,0.29,0,0.43l-0.01,0C464.91,269.2,464.84,269.28,464.76,269.36z"/>
	<path style="fill-rule:evenodd;clip-rule:evenodd;fill:#B3D9F4;" d="M447.72,278.24c0.05,1.41-0.33,2.85,0.21,4.23
		c1.51,3.92,5.38,4.99,9.18,2.56c0.6-0.38,1.11-0.92,1.86-1.03c0.01,0.08,0.01,0.16,0.02,0.24c-1.9,1.25-3.81,2.43-6.22,2.41
		C448.81,286.6,445.91,281.81,447.72,278.24z"/>
	<path style="fill-rule:evenodd;clip-rule:evenodd;fill:#232422;" d="M463.09,275.37c0.96-0.24,1.91-0.49,2.87-0.73
		c1.23-0.63,2.49-0.43,3.76-0.14c0.48,0.25,0.99,0.33,1.54,0.27c0.72,0.05,1.48-0.15,2.1,0.4c0.19,0.29,0.12,0.5-0.19,0.64
		c-0.65-0.02-1.32,0.25-1.92-0.21c0.32-0.21,0.69-0.06,1.03-0.12c-0.34,0.05-0.71-0.11-1.03,0.12c-0.17-0.01-0.33-0.02-0.5-0.03
		c-0.23-0.15-0.53-0.02-0.76-0.18c-1.91,0-3.83-0.24-5.73,0.18c-0.09-0.05-0.16-0.03-0.22,0.05c-0.11,0.21-0.29,0.21-0.49,0.17
		C463.83,275.17,463.27,275.48,463.09,275.37z"/>
	<path style="fill-rule:evenodd;clip-rule:evenodd;fill:#7B9E75;" d="M456.3,278.87c0.01-0.78-0.1-1.59,0.52-2.24
		c0.49-0.51,1.15-0.37,1.17,0.17c0.04,1.17,0.22,2.47-0.75,3.42c-0.2,0.19-0.28,0.68-0.65,0.54c-0.4-0.15-0.27-0.61-0.29-0.95
		C456.29,279.5,456.3,279.19,456.3,278.87z"/>
	<path style="fill-rule:evenodd;clip-rule:evenodd;fill:#F0E64A;" d="M459.77,278c-0.19,0.84-0.33,1.69-0.58,2.51
		c-0.17,0.57-0.73,0.44-1.12,0.34c-0.6-0.15-0.11-0.55-0.02-0.73c0.49-1.02,0.34-2.15,0.65-3.19c0.1-0.33-0.2-0.84,0.48-0.86
		c0.87-0.03,0.19,0.54,0.32,0.79C459.71,277.21,459.79,277.58,459.77,278z"/>
	<path style="fill-rule:evenodd;clip-rule:evenodd;fill:#CDE5F8;" d="M459.71,281.6c1.56-1.05,3.21-1.65,5.1-0.93
		c-0.36,0.22-0.08,0.79-0.52,0.97c-1.35,0.03-2.66,0.2-3.83,0.94c-0.23,0.15-0.52,0.2-0.77-0.01
		C459.7,282.24,459.71,281.92,459.71,281.6z"/>
	<path style="fill-rule:evenodd;clip-rule:evenodd;fill:#A0CFF0;" d="M463.58,282.33c-0.72,0.67-1.41,1.37-2.16,2
		c-0.36,0.3-0.55,1.06-1.16,0.76c-0.59-0.29-0.66-0.94-0.52-1.57C461.1,282.08,462.28,281.71,463.58,282.33z"/>
	<path style="fill-rule:evenodd;clip-rule:evenodd;fill:#1F1F1D;" d="M474.58,278.29c1.8-0.11,3.5,0.53,5.25,0.78
		c0.82,0.12,1.63,0.27,2.44,0.41c-0.02,0.49-0.43,0.45-0.74,0.54c-2.15-0.32-4.38-0.2-6.45-1.05c-1.08-0.7-2.35,0.07-3.46-0.44
		C472.6,278.31,473.62,278.68,474.58,278.29z"/>
	<path style="fill-rule:evenodd;clip-rule:evenodd;fill:#ECF4FB;" d="M461.37,287.11c-0.95,1.03-1.94,2.01-3.32,2.46
		c-0.22-0.24-0.23-0.49-0.02-0.74c0.23-1.25,1.48-1.59,2.16-2.44c0.07-0.07,0.15-0.08,0.24-0.06c0.08,0.03,0.15,0.06,0.23,0.08
		c0.27-0.01,0.48,0.13,0.66,0.31c0.02,0.04,0.05,0.09,0.07,0.13C461.39,286.95,461.38,287.03,461.37,287.11z"/>
	<path style="fill-rule:evenodd;clip-rule:evenodd;fill:#D0E5F5;" d="M467.19,284.23c-0.34-0.43-0.63-0.9-1.02-1.28
		c-0.4-0.39-0.96-0.93-0.68-1.33c0.28-0.4,1.14-0.94,1.59-0.54c0.42,0.38,1.08,1.09,0.5,1.9c-0.16,0.23-0.24,0.4,0.06,0.56
		C467.88,284.04,467.68,284.23,467.19,284.23z"/>
	<path style="fill-rule:evenodd;clip-rule:evenodd;fill:#B7DAF5;" d="M463.58,282.33c-1.52-0.39-2.58,0.72-3.84,1.19
		c-0.01-0.32-0.03-0.64-0.04-0.95c1.19-0.46,2.23-1.37,3.63-1.21c0.34,0.04,0.72-0.07,0.97,0.28
		C464.05,281.87,463.82,282.1,463.58,282.33z"/>
	<path style="fill-rule:evenodd;clip-rule:evenodd;fill:#A1CEEF;" d="M467.19,284.23c0.28-0.14,0.44-0.36,0.44-0.68
		c0.96,0.16,0.73,1.07,0.88,1.62c0.25,0.93,0.5,1.84,1.01,2.66c-0.31,0.43-0.69,0.58-1.16,0.24
		C468.06,286.78,467.85,285.44,467.19,284.23z"/>
	<path style="fill-rule:evenodd;clip-rule:evenodd;fill:#99CCEE;" d="M445.31,286.19c-0.07-0.01-0.15-0.03-0.22-0.06
		c-0.62-1.28-1.17-2.58-0.96-4.06c0.3-0.46,0.61-0.56,0.92-0.01c-0.76,1.1,0.13,1.75,0.71,2.43c0.52,0.62-0.23,0.94-0.2,1.42
		C445.52,286.07,445.45,286.16,445.31,286.19z"/>
	<path style="fill-rule:evenodd;clip-rule:evenodd;fill:#9ECDEF;" d="M454.48,290.46c-0.29-0.33-0.66-0.21-1.01-0.18l0.02-0.08
		c-0.27-0.29-0.26-0.59-0.01-0.89c0.69-0.1,1.34-0.18,1.94,0.34c0.35,0.3,0.46,0.01,0.43-0.33c0.07-0.1,0.16-0.16,0.28-0.18
		c0.18-0.05,0.34-0.03,0.5,0.06c0.21,0.22,0.36,0.47,0.21,0.79C456.09,290.34,455.31,290.5,454.48,290.46z"/>
	<path style="fill-rule:evenodd;clip-rule:evenodd;fill:#9CCEF0;" d="M460.7,285.88c0.45-0.42,0.96-0.79,1.33-1.27
		c0.47-0.6,0.68-0.09,0.99,0.13c0.56,0.39,0.03,0.58-0.17,0.78c-0.46,0.47-0.97,0.9-1.45,1.34c0,0,0.01,0.02,0.01,0.02
		C461.09,286.61,460.87,286.27,460.7,285.88z"/>
	<path style="fill-rule:evenodd;clip-rule:evenodd;fill:#84C1EB;" d="M445.96,274.37c0.01-0.07,0.01-0.14,0.01-0.21
		c0.62-0.81,1.2-1.65,2.01-2.31c0.32-0.26,0.58-0.59,0.94-0.08c-0.53,1.03-1.48,1.72-2.17,2.62c-0.07,0.1-0.17,0.16-0.22,0.27
		l0.02-0.01C446.24,274.78,446.07,274.63,445.96,274.37z"/>
	<path style="fill-rule:evenodd;clip-rule:evenodd;fill:#85C1EB;" d="M448.91,271.41c0.99-1.05,2.17-1.77,3.61-2.01
		c0.13,0.13,0.13,0.27,0,0.4C451.48,270.69,450.27,271.21,448.91,271.41z"/>
	<path style="fill-rule:evenodd;clip-rule:evenodd;fill:#E3F0F9;" d="M444.37,277.78c0.17-0.32,0.34-0.64,0.52-0.97
		c0.21-0.01,0.31,0.07,0.22,0.29c0.04,0.72,0.48,1.37,0.11,2.17c-0.22,0.49-0.62,0.49-0.91,0.55c-0.32,0.07-0.11-0.34-0.14-0.54
		c0.06-0.19,0.07-0.39,0.15-0.57C444.33,278.41,444.35,278.09,444.37,277.78z"/>
	<path style="fill-rule:evenodd;clip-rule:evenodd;fill:#DFEDF8;" d="M465.16,282.68c-0.48,0.56-0.98,1.17-1.53,1.74
		c-0.04,0.04-0.46-0.23-0.65-0.41c-0.23-0.22,0.07-0.33,0.18-0.43c0.46-0.43,0.97-0.8,1.4-1.24
		C465.03,281.85,464.99,282.35,465.16,282.68z"/>
	<path style="fill-rule:evenodd;clip-rule:evenodd;fill:#D5E7F5;" d="M445.31,286.19c0.08-0.09,0.16-0.18,0.24-0.27l0.01,0.01
		c0.07,0.07,0.14,0.08,0.23,0.04c1.15-0.18,1.38,0.89,1.93,1.48c0.22,0.23-0.16,0.43-0.48,0.37
		C446.6,287.29,445.95,286.74,445.31,286.19z"/>
	<path style="fill-rule:evenodd;clip-rule:evenodd;fill:#A4D0EF;" d="M451.33,289.53c-1.16-0.28-2.17-0.9-3.2-1.46
		C449.15,287.72,451.12,288.62,451.33,289.53z"/>
	<path style="fill-rule:evenodd;clip-rule:evenodd;fill:#C2DFF6;" d="M468.37,288.08c0.39-0.08,0.77-0.16,1.16-0.24
		c0.6,0.6,0.1,1.01-0.25,1.44c-0.51,0.03-0.66,0.37-0.71,0.81C468.12,289.46,468.41,288.76,468.37,288.08z"/>
	<path style="fill-rule:evenodd;clip-rule:evenodd;fill:#CCE5F7;" d="M456.84,289.99c-0.09-0.25-0.19-0.5-0.28-0.75
		c-0.11-0.1-0.25-0.08-0.38-0.11c-0.03-0.04-0.06-0.07-0.08-0.11c0.62-0.35,1.23-0.82,1.95-0.19c0.01,0.25,0.01,0.49,0.02,0.74
		C457.73,289.93,457.31,290.04,456.84,289.99z"/>
	<path style="fill-rule:evenodd;clip-rule:evenodd;fill:#B0D2EC;" d="M445.04,282.07c-0.31-0.23-0.61-0.19-0.92,0.01
		c-0.06-0.31-0.17-0.62-0.15-0.92c0.02-0.43,0.06-0.86,0.72-0.81c0.65,0.04,0.36,0.5,0.39,0.78
		C445.11,281.44,445.06,281.76,445.04,282.07z"/>
	<path style="fill-rule:evenodd;clip-rule:evenodd;fill:#2B2C28;" d="M460.91,273.68c0.16,0,0.33,0,0.49,0
		c-0.21,0.48-0.43,0.97-0.64,1.45c-0.29,0.69,0.06,0.8,0.64,0.71c-0.67,0.55-1.15,0.03-1.67-0.29
		C460.63,275.25,460.38,274.22,460.91,273.68z"/>
	<path style="fill-rule:evenodd;clip-rule:evenodd;fill:#BCDCF4;" d="M453.48,289.31c0,0.3,0.01,0.59,0.01,0.89
		c-0.81,0.02-1.52-0.26-2.19-0.69C451.99,289.05,452.73,289.16,453.48,289.31z"/>
	<path style="fill-rule:evenodd;clip-rule:evenodd;fill:#ADD5F3;" d="M452.53,269.8c0-0.13,0-0.27,0-0.4
		c0.48-0.09,0.92-0.39,1.44-0.25c0.27,0.26,0.42,0.54,0.24,0.92C453.6,270.25,452.96,270.65,452.53,269.8z"/>
	<path style="fill-rule:evenodd;clip-rule:evenodd;fill:#CCDEF1;" d="M454.2,270.06c-0.08-0.3-0.16-0.61-0.24-0.92
		c0.37-0.28,0.77-0.25,1.17-0.1c0.1,0.11,0.2,0.22,0.3,0.33C455.46,270.4,454.73,270.05,454.2,270.06z"/>
	<path style="fill-rule:evenodd;clip-rule:evenodd;fill:#9FCFF0;" d="M445.96,274.37c0.2,0.1,0.39,0.19,0.59,0.29
		c-0.18,0.47-0.36,0.94-0.54,1.41c-0.42,0.13-0.54-0.16-0.65-0.46C445.31,275.08,445.6,274.71,445.96,274.37z"/>
	<path style="fill-rule:evenodd;clip-rule:evenodd;fill:#C1DDF2;" d="M445.36,275.61c0.22,0.15,0.43,0.31,0.65,0.46
		c-0.38,0.28,0.12,1.31-0.9,1.03c-0.07-0.1-0.15-0.19-0.22-0.29C445.04,276.41,445.2,276.01,445.36,275.61z"/>
	<path style="fill-rule:evenodd;clip-rule:evenodd;fill:#1D1D17;" d="M472.69,292.58c-0.44-0.17-0.73-0.51-0.99-0.89
		c0.09-0.17,0.18-0.33,0.26-0.5c0.32,0.32,0.64,0.64,0.96,0.97C472.91,292.34,472.81,292.47,472.69,292.58z"/>
	<path style="fill-rule:evenodd;clip-rule:evenodd;fill:#7B9E75;" d="M455.87,280.62c-0.33-1.02-0.37-2.04,0.02-3.06
		c0.04,0.07,0.06,0.14,0.05,0.22c0.07,0.87,0.08,1.73-0.01,2.6C455.92,280.46,455.9,280.54,455.87,280.62z"/>
	<path style="fill-rule:evenodd;clip-rule:evenodd;" d="M455.95,280.38c0-0.87,0-1.73,0.01-2.6
		C456.21,278.65,456.22,279.51,455.95,280.38z"/>
	<path style="fill-rule:evenodd;clip-rule:evenodd;fill:#1F1F1D;" d="M460.7,285.88c0.31,0.29,0.75,0.48,0.71,1.01
		c-0.36,0.02-0.61-0.13-0.74-0.47C460.68,286.25,460.69,286.07,460.7,285.88z"/>
	<path style="fill-rule:evenodd;clip-rule:evenodd;fill:#7B9E75;" d="M455.92,277.53c-0.04-0.27-0.14-0.55,0.19-0.72
		C456.11,277.07,456.2,277.35,455.92,277.53z"/>
	<path style="fill-rule:evenodd;clip-rule:evenodd;fill:#1E1D16;" d="M444.31,278.72c0.05,0.22,0.09,0.43-0.15,0.57
		C444.21,279.1,444.26,278.91,444.31,278.72z"/>
	<path style="fill-rule:evenodd;clip-rule:evenodd;fill:#ECF5FC;" d="M456.11,289.28c-0.09,0.01-0.17,0.03-0.26,0.04
		c-0.05-0.07-0.1-0.14-0.16-0.21c0.13-0.03,0.26-0.05,0.4-0.08l0.02,0.01c0.09,0.05,0.12,0.1,0.09,0.16S456.14,289.28,456.11,289.28
		z"/>
	<path style="fill-rule:evenodd;clip-rule:evenodd;fill:#1F1F1D;" d="M460.44,286.34c-0.08,0.02-0.16,0.04-0.24,0.06
		C460.24,286.23,460.32,286.2,460.44,286.34z"/>
	<path style="fill-rule:evenodd;clip-rule:evenodd;fill:#E2F0FB;" d="M456.38,276.36c0.09-0.09,0.18-0.18,0.27-0.27
		C456.55,276.18,456.46,276.27,456.38,276.36z"/>
	<path style="fill-rule:evenodd;clip-rule:evenodd;fill:#7B9E75;" d="M458.02,275.16c0.17-0.05,0.24,0.03,0.25,0.2
		C458.18,275.29,458.1,275.23,458.02,275.16z"/>
	<path style="fill-rule:evenodd;clip-rule:evenodd;fill:#E4F1FB;" d="M468.06,281.38c0.05,0.04,0.11,0.08,0.15,0.13
		c0,0-0.04,0.06-0.06,0.09C468.1,281.53,468.08,281.46,468.06,281.38z"/>
	<path style="fill-rule:evenodd;clip-rule:evenodd;fill:#7B9E75;" d="M457.55,275.32c0.08-0.05,0.17-0.11,0.25-0.16
		C457.72,275.21,457.64,275.26,457.55,275.32z"/>
	<path style="fill-rule:evenodd;clip-rule:evenodd;fill:#9FCFF0;" d="M446.53,274.67c0.07-0.09,0.14-0.18,0.22-0.27
		C446.67,274.49,446.6,274.58,446.53,274.67z"/>
	<path style="fill-rule:evenodd;clip-rule:evenodd;fill:#99CCEE;" d="M445.79,285.98c-0.1,0.13-0.18,0.1-0.23-0.04
		C445.64,285.94,445.71,285.95,445.79,285.98z"/>
	<path style="fill-rule:evenodd;clip-rule:evenodd;fill:#5CA457;" d="M507.23,281.06c1.87,0.29,3.73,0.65,5.54,1.21
		c0.26,0.09,0.52,0.18,0.77,0.28c0.27,0.12,0.54,0.25,0.8,0.38c-0.23,0.2-0.45,0.41-0.68,0.61c-0.04,0.07-0.09,0.13-0.17,0.17
		c-0.17,0.1-0.34,0.21-0.51,0.31c-0.06,0.06-0.13,0.12-0.21,0.15c-1.62,1.27-3.2,0.01-4.79-0.11c-1.38-0.11-1.97-1.68-1.21-2.88
		C506.84,281.08,507.08,281.1,507.23,281.06z"/>
	<path style="fill-rule:evenodd;clip-rule:evenodd;fill:#D1E7F8;" d="M502.2,275.15c0.41,0.22,0.81,0.44,1.22,0.66
		c0.35,0.39,0.32,0.87,0.33,1.34c0.01,0.47-0.02,0.95,0.05,1.41c0.19,1.16,0.53,1.4,2.21,1.6c0.15,1.5-0.09,2.97-0.42,4.43
		c-0.17,0.76-0.55,0.96-1.23,0.84c-0.08-0.08-0.16-0.16-0.24-0.25c-0.3-0.31-0.33-0.71-0.36-1.11c-0.08-1.18-0.46-2.27-1.14-3.23
		c-0.66-0.94-0.94-1.94-0.63-3.05C502.24,276.92,501.54,275.98,502.2,275.15z"/>
	<path style="fill-rule:evenodd;clip-rule:evenodd;fill:#F7E90D;" d="M504.85,289.8c-0.65-0.08-1.32,0.06-1.93-0.29
		c-0.02-0.16-0.03-0.32-0.05-0.47c-0.04-0.08-0.04-0.16,0-0.24c0.23-0.67,0.63-1.33,0.67-2.01c0.07-1.19,0.85-1.01,1.46-0.8
		c0.67,0.23,1.56,0.53,1.02,1.62c-0.32,0.63-0.62,1.28-0.93,1.92c0.07,0.1,0.04,0.16-0.08,0.16
		C504.95,289.72,504.9,289.76,504.85,289.8z"/>
	<path style="fill-rule:evenodd;clip-rule:evenodd;fill:#B9DBF5;" d="M506,280.16c-1.55,0.69-2.53,0.03-2.59-1.76
		c-0.03-0.87,0-1.73,0.01-2.6c0.9,0.24,1.48,0.93,2.11,1.53c0.03,0.38,0.05,0.76,0.08,1.14c0.15,0.22-0.01,0.53,0.2,0.73
		C505.86,279.53,505.93,279.85,506,280.16z"/>
	<path style="fill-rule:evenodd;clip-rule:evenodd;fill:#288A43;" d="M515.43,283.77c-0.18,0.19-0.3,0.34-0.44,0.46
		c-2.23,1.89-4.96,2.59-7.7,3.26c-0.25,0.06-0.49,0.11-0.53-0.23c-0.04-0.29,0.01-0.54,0.38-0.63c0.85-0.2,1.68-0.44,2.53-0.65
		c1.68-0.41,3.23-1.1,4.58-2.2C514.6,283.5,514.97,283.37,515.43,283.77z"/>
	<path style="fill-rule:evenodd;clip-rule:evenodd;fill:#2A9348;" d="M507.38,288.36c-0.25-0.08-0.5,0.11-0.66-0.16
		c0.18-0.06,0.36-0.12,0.54-0.18c2.52-0.79,5.2-1.14,7.35-2.89c0.09-0.08,0.26-0.05,0.4-0.08c-0.03,0.15-0.07,0.29-0.08,0.44
		c-0.02,0.4-0.36,0.51-0.61,0.67C512.17,287.49,509.75,287.91,507.38,288.36z"/>
	<path style="fill-rule:evenodd;clip-rule:evenodd;fill:#2B9348;" d="M514.43,286.88c0.02,0.58-0.35,0.85-0.82,1.03
		c-2.2,0.83-4.53,1.04-6.84,1.38c-0.16,0.02-0.39,0.12-0.46-0.14c0-0.02,0.25-0.14,0.4-0.16c2.67-0.37,5.22-1.17,7.74-2.1
		L514.43,286.88z"/>
	<path style="fill-rule:evenodd;clip-rule:evenodd;fill:#FBFAFB;" d="M507.62,285.94c-0.7,0.11-1.15-0.19-1.54-0.54
		c-0.07-0.06,0.07-0.43,0.19-0.62c0.38-0.61,0.85-0.24,1.32-0.12c0.6,0.15,1.22,0.21,1.84,0.3c0.24,0.03,0.51,0.05,0.55,0.32
		c0.01,0.06-0.35,0.21-0.56,0.26C508.79,285.7,508.18,286.03,507.62,285.94z"/>
	<path style="fill-rule:evenodd;clip-rule:evenodd;fill:#2A934A;" d="M501.97,289.53c-0.28,0.1-0.59,0.4-0.86,0.1
		c-0.27-0.29,0.04-0.55,0.17-0.83c0.34-0.7,0.62-1.41,0.93-2.12c0.2-0.27,0.4-0.54,0.6-0.81c0.26,0.35,0.15,0.76,0.05,1.1
		C502.61,287.84,502.27,288.68,501.97,289.53z"/>
	<path style="fill-rule:evenodd;clip-rule:evenodd;fill:#1F1E17;" d="M505.8,279.21c-0.31-0.18-0.25-0.46-0.2-0.73
		C505.67,278.72,505.73,278.97,505.8,279.21z"/>
	<path style="fill-rule:evenodd;clip-rule:evenodd;fill:#2B9348;" d="M514.45,286.89c0.02-0.06,0.04-0.11,0.07-0.17
		c0.17,0.16-0.04,0.11-0.08,0.16L514.45,286.89z"/>
	<path style="fill-rule:evenodd;clip-rule:evenodd;fill:#18170F;" d="M502.87,288.8c0,0.08,0,0.16,0,0.24
		c-0.03-0.06-0.06-0.11-0.07-0.17C502.79,288.85,502.84,288.82,502.87,288.8z"/>
	<path style="fill-rule:evenodd;clip-rule:evenodd;fill:#E5D7E3;" d="M505.01,289.68c0.03-0.05,0.06-0.11,0.08-0.16
		c0.05,0.04,0.11,0.07,0.16,0.11C505.17,289.65,505.09,289.67,505.01,289.68z"/>
	<path style="fill-rule:evenodd;clip-rule:evenodd;fill:#288A43;" d="M513.5,283.71c0.06-0.06,0.11-0.11,0.17-0.17
		C513.61,283.6,513.55,283.65,513.5,283.71z"/>
	<path style="fill-rule:evenodd;clip-rule:evenodd;fill:#288A43;" d="M512.78,284.17c0.07-0.05,0.14-0.1,0.21-0.15
		C512.92,284.07,512.85,284.12,512.78,284.17z"/>
	<path style="fill-rule:evenodd;clip-rule:evenodd;fill:#E3F0FB;" d="M502.2,275.15c0.08,1.21,0.38,2.4,0.02,3.63
		c-0.16,0.55,0.13,1.08,0.48,1.54c1.1,1.44,1.58,3.08,1.42,4.89c-0.48-0.09-0.96-0.18-1.44-0.27c-0.26-0.27-0.16-0.6-0.14-0.91
		c0.04-0.7-0.14-1.35-0.41-1.98c-0.29-0.67-0.77-1.21-1.55-1.09c-0.82,0.12-0.99,0.87-1.06,1.55c-0.08,0.72,0.11,1.43,0.26,2.14
		c0.22,1.06-0.09,1.84-0.95,2.51c-1.38,1.08-1.98,4.14-1.2,5.7c0.64,1.29,2.49,1.53,3.44,0.45c0.43-0.49,0.63-1.1,0.85-1.71
		c0.17-0.48,0.26-1.02,0.76-1.32c0.24,0,0.48,0.01,0.72,0.01c0.16,1.89-0.67,3.39-2,4.61c-1.14,1.04-2.5,0.87-3.84,0.38
		c-0.64-0.24-1.26-0.5-1.84-0.87c-0.93-0.58-1.79-0.56-2.61,0.23c-0.37,0.36-0.79,0.69-1.26,0.9c-0.45,0.2-0.46,0.18-0.67-0.42
		c2.49-3.14,3.68-6.73,4.07-10.7c0.5-5.08-3.65-11.97-9.7-13.15c-2.68-0.52-5.3-1.37-8.05-1.62c-0.54,0.18-1.06,0.04-1.59-0.06
		c-0.18-0.05-0.34-0.14-0.48-0.26c-0.1-0.08-0.15-0.19-0.17-0.31c0.17-0.67,0.77-0.74,1.29-0.88c1.47-0.38,2.86-0.91,4.07-1.86
		c0.32-0.02,0.64-0.05,0.97-0.07c0.07,0.03,0.14,0.04,0.22,0.04c1.65,0.23,3.3,0.47,4.96,0.69c1.71,0.23,3.46,0.14,5.14,0.57
		c0.09,0.04,0.18,0.1,0.26,0.16c0.23,0.02,0.46,0.03,0.69,0.05c-0.12,1.17-0.72,2-1.73,2.57c-1.34-0.08-2.47-0.87-3.77-1.1
		c-0.77-0.33-1.59-0.48-2.41-0.64c-0.39-0.08-0.79-0.09-1.17,0.08c-0.29,0.13-0.63,0.24-0.7,0.59c-0.09,0.44,0.34,0.46,0.59,0.61
		c0.37,0.23,0.75,0.44,1.19,0.55c2.14,0.63,4.24,1.4,6.41,1.88c0.39,0.15,0.6,0.5,0.81,0.84c0.73,1.2,1.76,1.79,3.2,1.52
		c0.54,0.39,1.1,0.3,1.67,0.07c0.37,0.52,0.02,1-0.11,1.48c-0.27,0.99,0.09,1.62,0.98,2.02c0.37,0.16,0.74,0.3,1.13,0.4
		c1.44,0.35,2.33-0.49,2.11-1.97c-0.1-0.72-0.62-1.44-0.03-2.17C501.4,274.68,501.8,274.91,502.2,275.15z"/>
	<path style="fill-rule:evenodd;clip-rule:evenodd;fill:#C9E3F7;" d="M494.99,298.84c-1.12,0.03-2.24,0.05-3.36,0.08
		c-2.82-0.42-5.71-0.4-8.43-1.44c0.17-0.21,0.36-0.17,0.57-0.07c1.91-0.05,3.87,0.21,5.65-0.79c0.15,0.05,0.33,0.01,0.47,0.05
		c1.6,0.46,2.93,0.27,3.86-1.32c0.28-0.47,0.95-0.62,1.52-0.53c1.55,0.24,3.02,0.74,4.31,1.66c0.39,0.28,0.71,0.65,0.69,1.19
		c-0.41,0.56-1,0.72-1.65,0.74c-0.53,0.12-0.53-0.36-0.66-0.64c-0.27-0.59-0.74-0.9-1.33-1.08c-1.18-0.35-1.82,0.2-1.66,1.44
		C495.03,298.38,495.12,298.61,494.99,298.84z"/>
	<path style="fill-rule:evenodd;clip-rule:evenodd;fill:#DAECFA;" d="M500.29,297.69c-1.24-1.75-3.2-2.12-5.09-2.57
		c-0.55-0.13-1.15,0.19-1.55,0.71c-1.36,1.75-2.19,1.9-4.22,0.8c0.09-0.05,0.18-0.1,0.27-0.15c0.08-0.07,0.16-0.13,0.25-0.19
		c0.4-0.39,0.81-0.79,1.21-1.18c0.45,0.84,0.68,0.01,0.92-0.15c1.11-0.74,2.03-2.1,3.62-0.96c0.56,0.4,1.17,0.65,1.8,0.89
		c2.46,0.93,4.28,0.13,5.16-2.34c0.27-0.75,0.49-1.51,0.73-2.26c0.31-0.14,0.49,0.1,0.71,0.24c0,1.44-0.65,2.66-1.43,3.79
		c-0.54,0.78-1.03,1.58-1.44,2.44C500.93,297.06,500.61,297.37,500.29,297.69z"/>
	<path style="fill-rule:evenodd;clip-rule:evenodd;fill:#E8F3FB;" d="M494.5,282.32c0.1,2.2-0.05,4.37-0.73,6.48
		c-0.3,0.56-0.83,0.69-1.39,0.76c-1.13-0.27-1.32-0.58-0.98-1.62c0.05-0.15,0.12-0.29,0.18-0.44c0.48-1.07,1.16-2.05,0.73-3.36
		c-0.21-0.65,0.5-1.43-0.19-2.14c-0.19-0.19-0.04-0.61,0.16-0.89C493.39,280.84,494.02,281.44,494.5,282.32z"/>
	<path style="fill-rule:evenodd;clip-rule:evenodd;fill:#ECF5FC;" d="M481.07,271.25c-1.08,1-2.41,0.81-3.46,0.27
		c-1.29-0.66-2.56,0.07-3.82-0.38c-0.73-0.26-1.68,0.04-1.62-1.2c-0.18-0.32,0.05-0.43,0.27-0.54c0.07-0.03,0.13-0.04,0.2-0.02
		c1.16,0.23,2.35-0.02,3.52,0.22c0.47,0.1,0.94,0.13,1.32,0.45c1.2,0.26,2.39,0.53,3.59,0.79
		C481.22,270.98,481.22,271.11,481.07,271.25z"/>
	<path style="fill-rule:evenodd;clip-rule:evenodd;fill:#E9F4FB;" d="M488.06,296.53c-1.67,0.45-3.37,0.14-5.05,0.15
		c-0.2-0.18-0.23-0.41-0.19-0.65c0.22-0.98,0.84-1.29,1.82-1.25c1.1,0.05,2.26,0.28,3.19-0.66c0.18-0.18,0.51-0.21,0.78-0.05
		C489.38,295.11,488.58,295.78,488.06,296.53z"/>
	<path style="fill-rule:evenodd;clip-rule:evenodd;fill:#9DCEF0;" d="M493.14,290.51c-0.61,1.62-1.54,3.03-2.69,4.32
		c-0.44-0.42-0.41-0.97-0.45-1.51c-0.13-0.93-0.25-1.85,0.35-2.69c0.16-0.22,0.28-0.48,0.6-0.51
		C491.69,290.21,492.45,290.18,493.14,290.51z"/>
	<path style="fill-rule:evenodd;clip-rule:evenodd;fill:#8DC6ED;" d="M490.44,274.42c1.22,1.26,2.39,2.56,2.92,4.28
		c-0.43,0.46-1.01,0.33-1.53,0.4c-0.61,0-0.79-0.47-0.95-0.92c-0.28-0.78-0.47-1.6-1.13-2.18
		C489.79,275.39,489.89,274.81,490.44,274.42z"/>
	<path style="fill-rule:evenodd;clip-rule:evenodd;fill:#8FC8EE;" d="M481.56,296.44c-1.58-0.04-3.09-0.38-4.56-0.94
		c-0.16-0.5,0.1-0.82,0.47-1.08c1.29,0.37,2.72-0.13,3.96,0.62C481.66,295.49,481.89,295.94,481.56,296.44z"/>
	<path style="fill-rule:evenodd;clip-rule:evenodd;fill:#AFD6F2;" d="M481.07,271.25c0-0.14,0-0.27,0-0.41
		c1.53,0.07,2.94,0.62,4.35,1.14c-0.07,0.27-0.27,0.42-0.5,0.53c-0.89,0.46-1.77,0.58-2.64-0.04
		C481.74,272.21,480.89,272.24,481.07,271.25z"/>
	<path style="fill-rule:evenodd;clip-rule:evenodd;fill:#D8EAF8;" d="M484.9,272.25c0.18-0.09,0.35-0.18,0.53-0.27
		c1.1,0.17,2.13,0.54,3.1,1.07c0.09,0.03,0.16,0.08,0.22,0.16l0.01,0c0.21,0.24,0.1,0.43-0.1,0.59c-0.42,0.21-0.82,0.68-1.3,0.45
		c-0.86-0.41-1.84-0.56-2.59-1.18C484.44,272.8,484.68,272.5,484.9,272.25z"/>
	<path style="fill-rule:evenodd;clip-rule:evenodd;fill:#B6D9F2;" d="M488.56,273.67c0.07-0.15,0.13-0.31,0.2-0.46
		c0.69,0.23,1.22,0.67,1.68,1.21c-0.16,0.56-0.33,1.12-0.49,1.69c-0.57,0.1-0.82-0.37-1.17-0.65
		C488.3,274.91,487.68,274.38,488.56,273.67z"/>
	<path style="fill-rule:evenodd;clip-rule:evenodd;fill:#C6E2F6;" d="M494.5,282.32c-0.64-0.53-1.33-0.98-2.15-1.18
		c-0.67-0.71-0.61-0.9,0.39-1.41c0.49,0,0.95,0.1,1.35,0.41C494.38,280.84,494.62,281.54,494.5,282.32z"/>
	<path style="fill-rule:evenodd;clip-rule:evenodd;fill:#BBDCF4;" d="M493.14,290.51c-0.79,0.31-1.52,0.06-2.23-0.28
		c-0.26-0.57,0.16-0.67,0.53-0.72c0.3-0.04,0.61,0,0.86-0.2c0.49-0.17,0.97-0.33,1.46-0.5C493.74,289.44,493.5,289.99,493.14,290.51
		z"/>
	<path style="fill-rule:evenodd;clip-rule:evenodd;fill:#D3E8F8;" d="M488.06,296.53c0-0.86,1.02-1.54,0.44-2.5
		c0.07-0.57,0.31-0.89,0.94-0.62c0.54,0.76,0.52,1.53,0.03,2.3C489.06,296.08,488.63,296.43,488.06,296.53z"/>
	<path style="fill-rule:evenodd;clip-rule:evenodd;fill:#333135;" d="M477.49,270.05c-1.62-0.2-3.26-0.24-4.84-0.67
		c0.48-0.1,1.02,0.13,1.47-0.22c0.39-0.4,0.79-0.4,1.22-0.07c0.06,0.05,0.12,0.06,0.19,0.04c0.08,0.06,0.18,0.11,0.27,0.15
		c0.55,0.19,1.19-0.1,1.69,0.35C477.49,269.77,477.49,269.91,477.49,270.05z"/>
	<path style="fill-rule:evenodd;clip-rule:evenodd;fill:#9FCDED;" d="M494.09,280.14c-0.43-0.03-0.92,0.19-1.26-0.26
		c-0.38-0.32-1.55,0.37-1.18-0.92c0.52-0.46,1.15-0.14,1.72-0.26C493.7,279.13,494.06,279.55,494.09,280.14z"/>
	<path style="fill-rule:evenodd;clip-rule:evenodd;fill:#BCDDF5;" d="M489.47,295.71c-0.04-0.8,0.17-1.62-0.24-2.38
		c0.19-0.78,0.55-0.64,0.97-0.18c0.08,0.56,0.17,1.11,0.25,1.67C490.19,295.19,489.93,295.56,489.47,295.71z"/>
	<path style="fill-rule:evenodd;clip-rule:evenodd;fill:#B3D7F2;" d="M481.56,296.44c-0.08-0.45-0.16-0.91-0.24-1.36
		c1.12-0.47,1.44-0.29,1.68,0.91c0,0.23,0,0.46,0,0.68C482.53,296.6,482.04,296.52,481.56,296.44z"/>
	<path style="fill-rule:evenodd;clip-rule:evenodd;fill:#DFEDF8;" d="M475.29,295.06c-0.37-0.02-0.74-0.03-1.12-0.05
		c-0.18-0.05-0.33-0.12-0.37-0.33c0.41-1.15,0.51-1.2,1.86-0.81c0.11,0.04,0.21,0.1,0.3,0.17c0.08,0.08,0.14,0.18,0.18,0.29
		c0.05,0.36-0.07,0.67-0.34,0.91c-0.08-0.01-0.16-0.01-0.23-0.02C475.47,295.17,475.38,295.12,475.29,295.06z"/>
	<path style="fill-rule:evenodd;clip-rule:evenodd;fill:#252420;" d="M473.88,294.8c0.09,0.07,0.19,0.14,0.28,0.21
		c-0.1,0.09-0.2,0.18-0.3,0.27l-0.12,0h-0.11c-1.13,0.41-2.72-0.14-3.39-1.17c0.17-0.08,0.33-0.15,0.5-0.23
		c0.98,0.23,1.81,0.91,2.86,0.91C473.7,294.7,473.79,294.7,473.88,294.8z"/>
	<path style="fill-rule:evenodd;clip-rule:evenodd;fill:#B5D9F3;" d="M475.8,295.24c0.09-0.32,0.18-0.64,0.28-0.96
		c0.53-0.25,1.05-0.44,1.44,0.22c-0.17,0.33-0.34,0.66-0.5,0.99C476.56,295.62,476.18,295.41,475.8,295.24z"/>
	<path style="fill-rule:evenodd;clip-rule:evenodd;fill:#C1E1F7;" d="M483.78,297.41c-0.19,0.02-0.38,0.05-0.57,0.07
		c-0.2-0.01-0.39-0.01-0.59-0.04c-0.15-0.02-0.29-0.08-0.43-0.13c0.16-0.04,0.34-0.16,0.48-0.12
		C483.03,297.29,483.46,297.08,483.78,297.41z"/>
	<path style="fill-rule:evenodd;clip-rule:evenodd;fill:#9DD1E8;" d="M481.42,297.09c-0.17,0.05-0.27,0.12-0.38,0.12
		c-0.12,0-0.33,0.06-0.29-0.17c0.01-0.04,0.2-0.08,0.31-0.08C481.16,296.97,481.26,297.03,481.42,297.09z"/>
	<path style="fill-rule:evenodd;clip-rule:evenodd;fill:#B6D9F2;" d="M488.75,273.2c-0.07-0.05-0.14-0.1-0.22-0.16
		C488.6,273.1,488.67,273.15,488.75,273.2z"/>
	<path style="fill-rule:evenodd;clip-rule:evenodd;fill:#B5D9F3;" d="M475.29,295.06c0.09,0.05,0.18,0.11,0.28,0.16
		C475.47,295.17,475.38,295.11,475.29,295.06z"/>
	<path style="fill-rule:evenodd;clip-rule:evenodd;fill:#C9E3F7;" d="M489.96,296.29c-0.08,0.06-0.17,0.13-0.25,0.19
		C489.79,296.41,489.87,296.35,489.96,296.29z"/>
	<path style="fill-rule:evenodd;clip-rule:evenodd;fill:#ECF5FC;" d="M502.68,290.27c-0.21,0.65-0.4,1.29-0.62,1.93
		c-0.61,1.76-1.7,2.45-3.23,2.07c-1.29-0.32-2.11-1.72-1.89-3.33c0.23-1.72,0.25-3.53,2.16-4.48c0.57-0.28,0.52-0.94,0.42-1.51
		c-0.12-0.66-0.36-1.32-0.38-1.98c-0.03-1.01,0.1-2.16,1.25-2.44c1.06-0.26,1.77,0.5,2.13,1.49c0.34,0.94,0.61,1.91,0.16,2.9
		c-0.49,0.32-1.38,0.2-0.86,1.42c0.24,0.56-0.73,1.63-1.16,2.47c-0.25,0.49-0.66,1.06-0.23,1.53c0.39,0.43,1.01,0.06,1.42-0.18
		C502.23,289.94,502.42,290.09,502.68,290.27z"/>
	<path style="fill-rule:evenodd;clip-rule:evenodd;fill:#B1D8F4;" d="M494.99,298.84c-0.59-0.95-0.8-1.87,0.39-2.5
		c0.84-0.44,2.54,0.33,2.91,1.25c0.11,0.28,0.02,0.65,0.35,0.84C497.46,298.88,496.24,298.94,494.99,298.84z"/>
	<path style="fill-rule:evenodd;clip-rule:evenodd;fill:#CAE4F7;" d="M501.25,296.74c-0.07-0.53,0.02-1.07,0.36-1.46
		c1.24-1.39,1.78-3.13,2.5-4.77c0.83,0.07,0.68,0.68,0.51,1.12C503.87,293.58,502.8,295.33,501.25,296.74z"/>
	<path style="fill-rule:evenodd;clip-rule:evenodd;fill:#B9DBF5;" d="M477.72,265.72c0.06,0.05,0.12,0.07,0.2,0.06
		c0.17,0.08,0.35,0.17,0.52,0.25c-0.07,0.91-0.87,0.96-1.47,1.13c-1.84,0.51-3.67,1.06-5.48,1.66c-0.88-0.15-1.77-0.31-2.65-0.46
		c-1.09-0.4-2.11-0.89-2.55-2.07c-0.17-0.46-0.41-0.95-0.09-1.46c0.36-0.26,0.67-0.79,1.2-0.25c1.29,2.3,2.54,2.76,5.14,1.9
		c0.93-0.31,1.81-0.79,2.83-0.75c0.63-0.01,1.25-0.02,1.88-0.03c0.08-0.04,0.15-0.03,0.23,0.01
		C477.56,265.72,477.64,265.72,477.72,265.72z"/>
	<path style="fill-rule:evenodd;clip-rule:evenodd;fill:#D3E8F9;" d="M471.48,268.83c1.12-1.11,2.71-1.07,4.05-1.62
		c0.96-0.4,2.14-0.27,2.9-1.17c0.24-0.03,0.48-0.05,0.72-0.08c0.48,0.13,1.02-0.06,1.44,0.31c-0.77,1.54-2.4,1.58-3.73,2.1
		c-0.53,0.21-1.18,0.14-1.54,0.72c-0.41,0.02-0.81,0.04-1.22,0.07C473.24,269.05,472.36,268.94,471.48,268.83z"/>
	<path style="fill-rule:evenodd;clip-rule:evenodd;fill:#565552;" d="M462.33,267.42c-1.57,0.17-3.14,0.35-4.71,0.5
		c-0.26,0.03-0.61,0.09-0.71-0.27c-0.1-0.38,0.19-0.55,0.48-0.73c1.15-0.71,2.41-0.71,3.7-0.68c0.72,0.02,0.52,1.05,1.24,0.98
		C462.35,267.29,462.35,267.35,462.33,267.42z"/>
	<path style="fill-rule:evenodd;clip-rule:evenodd;fill:#DFEEFB;" d="M463.32,266.73c0.64-0.41,1.28-0.81,1.92-1.22
		c0.5,0.81,1.24,1.53,0.96,2.63c-0.86-0.01-1.72,0.01-2.58-0.07c-0.16-0.02-0.56,0.1-0.69-0.43
		C462.82,267.1,463.07,266.97,463.32,266.73z"/>
	<path style="fill-rule:evenodd;clip-rule:evenodd;fill:#93C9EE;" d="M470.76,270.77c-0.64-0.08-1.41,0.14-1.75-0.69
		c-0.59,0.31-1.21,0.35-1.85,0.21c-0.39-0.46-0.38-0.93,0-1.39c1.31-0.1,2.57,0.19,3.83,0.48
		C471.21,269.9,471.11,270.36,470.76,270.77z"/>
	<path style="fill-rule:evenodd;clip-rule:evenodd;fill:#CBE4F8;" d="M466.2,268.14c-0.14-0.94-0.99-1.62-0.96-2.63
		c0.32-0.22,0.64-0.45,0.96-0.67c0.09,1.77,1.36,2.65,2.64,3.53c-0.24-0.02-0.48-0.03-0.72-0.05c-0.09-0.03-0.18-0.08-0.25-0.16
		C467.31,268.15,466.75,268.15,466.2,268.14z"/>
	<path style="fill-rule:evenodd;clip-rule:evenodd;fill:#B8DBF5;" d="M470.76,270.77c0-0.48-0.05-0.96,0.23-1.39
		c0.48,0.01,0.96,0.01,1.45,0.02c-0.09,0.18-0.18,0.36-0.27,0.54C471.63,270.1,471.7,271.29,470.76,270.77z"/>
	<path style="fill-rule:evenodd;clip-rule:evenodd;fill:#AED6F4;" d="M467.16,268.9c0,0.46,0,0.93,0,1.39
		c-0.37,0.12-0.69,0.04-0.97-0.24c-0.3-0.39-0.35-0.77,0.01-1.16C466.52,268.9,466.84,268.9,467.16,268.9z"/>
	<path style="fill-rule:evenodd;clip-rule:evenodd;fill:#C9E1F5;" d="M466.2,268.9c0,0.39-0.01,0.77-0.01,1.16
		c-1.12,0.59-0.61-0.87-1.2-0.94c0-0.14,0-0.29,0-0.43C465.43,268.6,465.85,268.57,466.2,268.9z"/>
	<path style="fill-rule:evenodd;clip-rule:evenodd;fill:#B9DBF5;" d="M467.87,268.16c0.08,0.05,0.16,0.1,0.25,0.16
		C468.03,268.27,467.95,268.22,467.87,268.16z"/>
	<path style="fill-rule:evenodd;clip-rule:evenodd;fill:#EDF5FC;" d="M501,274.44c0.1,0.66,0.17,1.34,0.32,1.99
		c0.41,1.78-0.68,2.93-2.4,2.5c-2.64-0.65-2.91-1.23-2-4.26c0.96-0.27,1.92-0.53,2.88-0.8C500.2,274.07,500.6,274.25,501,274.44z"/>
	<path style="fill-rule:evenodd;clip-rule:evenodd;fill:#C0DFF6;" d="M495.23,268.19c1.21,0.05,1.96,0.82,2.69,1.65
		c0.13,0.4,0.27,0.8,0.4,1.19c-0.92,1.46-1.95,2.77-3.88,2.86c-1.53-0.67-2.18-1.63-2.01-2.97
		C492.62,269.41,493.59,268.46,495.23,268.19z"/>
	<path style="fill-rule:evenodd;clip-rule:evenodd;fill:#D4E9F9;" d="M495.23,268.19c-0.69,0.57-1.67,0.74-2.15,1.62
		c-0.84,1.54-0.35,2.9,1.43,3.87c0.28,0.29,0.72-0.07,0.99,0.25c-0.09,0.23-0.17,0.45-0.26,0.68c-0.98,0.68-2.31,0.32-3.19-0.91
		c-0.28-0.38-0.45-0.84-0.67-1.26c-0.12-0.13-0.16-0.29-0.16-0.46c0.25-0.65-0.12-1.25-0.12-1.89c0.75-0.67,1.17-1.58,1.72-2.39
		c0.72,0.07,1.43,0.14,2.15,0.21C495.06,268.02,495.15,268.11,495.23,268.19z"/>
	<path style="fill-rule:evenodd;clip-rule:evenodd;fill:#D4E8F8;" d="M495.51,273.93c-0.34-0.04-0.73,0.09-0.99-0.25
		c1.35,0.03,2.03-1.01,2.89-1.79c0.31-0.28,0.41-0.79,0.92-0.85c0.92,1.44,0.73,2.3-1.17,2.31c-0.23,0-0.45,0.07-0.68,0.1
		c-0.08,0.06-0.17,0.12-0.27,0.16c-0.06,0.06-0.13,0.09-0.22,0.08c-0.08,0.06-0.17,0.12-0.26,0.17
		C495.66,273.91,495.59,273.93,495.51,273.93z"/>
	<path style="fill-rule:evenodd;clip-rule:evenodd;fill:#3A76B8;" d="M497.03,274.13c-0.01-0.06-0.03-0.11-0.04-0.16
		c0.07,0,0.14-0.01,0.2,0c0.02,0,0.03,0.05,0.05,0.08C497.17,274.09,497.1,274.11,497.03,274.13z"/>
	<path style="fill-rule:evenodd;clip-rule:evenodd;fill:#C0DFF6;" d="M496.2,273.61c0.09-0.05,0.18-0.11,0.27-0.16
		C496.38,273.51,496.29,273.56,496.2,273.61z"/>
	<path style="fill-rule:evenodd;clip-rule:evenodd;fill:#C0DFF6;" d="M495.72,273.86c0.09-0.06,0.18-0.12,0.26-0.17
		C495.9,273.75,495.81,273.81,495.72,273.86z"/>
	<path style="fill-rule:evenodd;clip-rule:evenodd;fill:#D4E9F9;" d="M492.14,267.67c-0.09-0.05-0.17-0.11-0.26-0.16
		C491.97,267.56,492.06,267.62,492.14,267.67z"/>
	<path style="fill-rule:evenodd;clip-rule:evenodd;fill:#51504D;" d="M457.32,291.91c-0.97,0.01-1.94-0.01-2.87,0.28
		c-0.72-0.07-0.8-0.67-0.86-1.18c-0.05-0.39,0.38-0.25,0.62-0.29c0.83,0.24,1.63,0.12,2.43-0.14c0.39-0.13,0.76-0.21,1.02,0.27
		C457.91,291.34,457.81,291.68,457.32,291.91z"/>
	<path style="fill-rule:evenodd;clip-rule:evenodd;fill:#A3D0F0;" d="M475.36,265.74c-1.71,0.71-3.37,1.58-5.3,1.47
		c-1.84-0.11-2.62-0.87-2.66-2.62c0.46,0,0.92,0.01,1.37,0.01c2.1,0.3,4.21,0.59,6.31,0.89
		C475.18,265.57,475.27,265.65,475.36,265.74z"/>
	<path style="fill-rule:evenodd;clip-rule:evenodd;fill:#555452;" d="M470.25,294.11c1.07,0.57,2.14,1.14,3.39,1.17
		c-0.05,1-0.49,1.36-1.49,0.99c-0.63-0.24-1.32-0.32-1.94-0.58c-0.95-0.4-1.4-0.92-0.15-1.57
		C470.13,294.1,470.19,294.1,470.25,294.11z"/>
	<path style="fill-rule:evenodd;clip-rule:evenodd;fill:#0E0E05;" d="M477.47,265.71c-0.08,0-0.15,0-0.23-0.01
		C477.32,265.71,477.4,265.71,477.47,265.71z"/>
	<path style="fill-rule:evenodd;clip-rule:evenodd;fill:#F2F8FD;" d="M475.08,278.96c1.76-0.04,3.47,0.39,5.2,0.65
		c0.39,0.06,0.79,0.07,1.18,0.1c1.16-0.05,2.27,0.3,3.4,0.47c0.44,0.19,1.08,0,1.27,0.66c0.91,1.56,1.84,3.1,1.32,5.04
		c-0.73,2.7-3.49,4.28-6.28,3.55c-4.58-1.21-7.93-4.92-6.12-10.1C475.1,279.21,475.07,279.08,475.08,278.96z"/>
	<path style="fill-rule:evenodd;clip-rule:evenodd;fill:#080804;" d="M486.13,280.84c-0.3-0.44-0.87-0.12-1.22-0.44
		c-0.16-0.16-0.36-0.12-0.56-0.13c-0.21-0.01-0.46-0.05-0.39-0.3c0.06-0.21,0.31-0.19,0.51-0.08c2.1,0.37,4.22,0.68,6.3,1.14
		c0.87,0.19,0.82-0.04,0.64-0.7c-0.59-2.19-1.02-2.44-3.32-2.63c-2.1-0.18-4.19-0.59-6.28-0.9c0.07-0.09,0.16-0.15,0.27-0.19
		c0.44-0.09,0.9,0.04,1.34-0.12c0.11-0.05,0.21-0.09,0.32-0.14c0.61-0.18,1.18,0.16,1.77,0.13c0.61-0.02,1.18,0.29,1.8,0.22
		c0.63,0.01,1.27-0.03,1.89,0.06c0.13-0.02,0.21,0.2,0.33,0.11c0.11-0.1-0.02,0.09-0.08-0.07c-0.38-0.35-0.82-0.66-0.81-1.25
		c0.07-0.16,0.16-0.29,0.37-0.19c0.31,0.25,0.63,0.5,0.94,0.76c0.6,0.23,1.32,0.27,0.96,1.34c-0.13,0.38,0.47,1,0.74,1.51
		c0.08,0.43,0.12,0.89,0.78,0.54c0.28-0.15,0.39,0.12,0.4,0.38c-0.81,0.17-0.92,0.61-0.48,1.26c0.27,0.43-0.75,1.8,0.9,1.22
		c0.07-0.02,0.19,0.09,0.29,0.14c-0.05,0.09-0.08,0.21-0.15,0.28c-1.17,1.15-1.16,1.86,0.04,2.71c0.21,0.15,0.18,0.34-0.17,0.42
		c-1.59,0.34-1.23,1.92-1.8,2.9c-0.21,0.37,0.47,0.48,0.86,0.51c-0.11,0.45-0.45,0.48-0.82,0.46c-0.33-0.02-0.66-0.03-0.58,0.46
		c-0.21,0.86-1.51,1.56-0.38,2.61c-0.11,0.11-0.22,0.21-0.34,0.32c-0.33,0-0.76-0.53-0.97,0.18c-0.24,0.23-0.48,0.47-0.73,0.7
		c-0.38,0.45-1.49,0.19-1.23,1.3c0.05,0.21-0.28,0.24-0.41,0.05c-0.44-0.63-1.09-0.34-1.64-0.35c-0.85-0.01-1.9-0.31-2.22,0.96
		c-0.35-0.68-0.8-1.18-1.68-0.91c-0.8,0.2-1.79-0.96-2.45,0.37c-0.07,0.14-0.4-0.1-0.39-0.29c0.02-0.78-0.56-0.57-0.98-0.65
		c-0.43-0.38-0.96-0.12-1.44-0.22l0,0c-0.1-0.05-0.19-0.11-0.27-0.18c-0.78-0.16-1.66-0.6-1.92,0.68c-0.09,0-0.19-0.01-0.28-0.01
		c-0.08-0.45,0.05-0.84,0.33-1.19c0.04-0.1,0.02-0.17-0.06-0.23l0.01,0c-0.07-0.1-0.16-0.18-0.26-0.24c-0.08,0-0.15-0.03-0.22-0.07
		c-0.09-0.05-0.17-0.11-0.25-0.18l0,0c-0.07-0.09-0.16-0.18-0.26-0.24c-0.08,0-0.15-0.02-0.21-0.06c0.08-0.14,0.16-0.28,0.24-0.43
		l0,0c0.07,0.1,0.17,0.17,0.26,0.23c0.15,0.09,0.31,0.19,0.46,0.28c0.09,0.06,0.17,0.13,0.26,0.2c0.08,0,0.15,0.03,0.22,0.07
		c0.09,0.04,0.17,0.1,0.25,0.17c3.7,1.16,7.49,1.65,11.36,1.42c1.41-0.09,2.63-0.87,3.27-2.09c1.53-2.96,3.14-5.92,2.91-9.44
		c-0.06-0.84-0.33-1.27-1.2-1.21c-0.46-0.24-0.91-0.49-1.46-0.41c-0.31-0.02-0.63-0.05-0.94-0.07
		C487.62,280.96,486.9,280.81,486.13,280.84z"/>
	<path style="fill-rule:evenodd;clip-rule:evenodd;fill:#1A1A16;" d="M473.17,275.8c0.08-0.13,0.16-0.26,0.23-0.39
		c0.05-0.09,0.13-0.15,0.24-0.16c0.32-0.01,0.57,0.21,0.88,0.23c0.1,0,0.2,0.01,0.3,0.04c1.5,0.12,3.01,0.23,4.51,0.35
		c0.14,0.05,0.17,0.14,0.08,0.27c-0.37,0.32-0.81,0.08-1.21,0.15C476.52,276.2,474.82,276.28,473.17,275.8z"/>
	<path style="fill-rule:evenodd;clip-rule:evenodd;fill:#080802;" d="M478.21,276.29c0.35-0.33,0.8-0.13,1.19-0.21
		c0.07-0.09,0.15-0.1,0.23-0.03c0.24,0.02,0.48,0.04,0.72,0.07c0.29,0.18,0.64,0,0.94,0.15c0.72,0.04,1.44,0.07,2.16,0.11
		c0.07,0.03,0.1,0.07,0.08,0.11c-0.02,0.05-0.04,0.07-0.06,0.07l-0.09,0.05c-0.43,0.2-0.91-0.07-1.33,0.17
		c-0.08,0.01-0.16,0.01-0.24,0.02C480.6,276.75,479.39,276.63,478.21,276.29z"/>
	<path style="fill-rule:evenodd;clip-rule:evenodd;fill:#292A29;" d="M484.48,279.89c-0.23,0.49,0.49,0.18,0.44,0.52
		c-1.15-0.23-2.31-0.46-3.46-0.69c0.27-0.08,0.54-0.16,0.81-0.24C483.03,279.46,483.77,279.59,484.48,279.89z"/>
	<path style="fill-rule:evenodd;clip-rule:evenodd;fill:#2A2A28;" d="M469.99,275.38c0.27-0.01,0.55-0.06,0.76,0.18
		C470.47,275.6,470.2,275.64,469.99,275.38z"/>
	<path style="fill-rule:evenodd;clip-rule:evenodd;fill:#080804;" d="M464.04,275.61c0.07-0.02,0.15-0.04,0.22-0.05
		C464.19,275.59,464.12,275.61,464.04,275.61z"/>
	<path style="fill-rule:evenodd;clip-rule:evenodd;fill:#1D1D17;" d="M473.18,292.39c-0.09-0.08-0.17-0.16-0.26-0.23
		C473.01,292.24,473.09,292.31,473.18,292.39z"/>
	<path style="fill-rule:evenodd;clip-rule:evenodd;fill:#1D1D17;" d="M473.9,292.87c-0.09-0.06-0.17-0.13-0.26-0.2
		C473.73,292.74,473.81,292.81,473.9,292.87z"/>
	<path style="fill-rule:evenodd;clip-rule:evenodd;fill:#1D1D17;" d="M474.37,293.12c-0.08-0.06-0.16-0.12-0.25-0.17
		C474.2,293,474.28,293.06,474.37,293.12z"/>
	<path style="fill-rule:evenodd;clip-rule:evenodd;fill:#D0E7F8;" d="M483.48,276.56c-0.02-0.06-0.03-0.12-0.03-0.18
		c-0.15-0.18-0.3-0.36-0.46-0.54c-0.07-0.09-0.17-0.15-0.24-0.24c-0.08,0-0.16,0-0.24,0c-0.07-0.09-0.17-0.15-0.24-0.24
		c-0.32-0.08-0.64-0.16-0.96-0.24c-0.07-0.09-0.17-0.15-0.24-0.24c-0.24,0-0.48,0-0.72,0c-0.12-0.15-0.35-0.09-0.48-0.24
		c-0.16,0-0.32,0-0.48,0c-0.12-0.15-0.35-0.09-0.48-0.24c-0.24,0-0.48,0-0.72,0c-0.12-0.15-0.35-0.09-0.48-0.24
		c-0.24,0-0.48,0-0.72,0c-0.12-0.15-0.35-0.09-0.48-0.24c-0.24,0-0.48,0-0.72,0c-0.07-0.09-0.17-0.15-0.24-0.24
		c-0.94,0.05-1.81-0.31-2.63-0.64c-2.18-0.85-4.33-0.56-6.54-0.22c-1.34,0.21-2.72,0.4-4.05-0.16c0.01-0.19,0.01-0.38,0.24-0.45
		c0.09-0.06,0.17-0.13,0.26-0.19c0.16-0.08,0.33-0.16,0.49-0.25c2.35,0.06,4.7-0.56,7.04-0.25c4.55,0.62,9.09,1.33,13.3,3.31
		c0.47,0.22,0.92,0.48,1.32,0.82c0.33,0.28,0.72,0.56,0.42,1.1C484.76,276.7,484.12,276.63,483.48,276.56z"/>
	<path style="fill-rule:evenodd;clip-rule:evenodd;fill:#E9F3FB;" d="M473.64,275.41c-0.08,0-0.16,0.01-0.24,0.01
		c-0.67-0.46-1.44-0.19-2.16-0.3c-0.45-0.29-0.99,0.03-1.44-0.21c-1.25-0.46-2.56-0.15-3.84-0.27c2.15-2.15,5.27-2.18,7.68-0.1
		c0.27,0.23,0.48,0.53,0.72,0.8C474.14,275.56,473.89,275.48,473.64,275.41z"/>
	<path style="fill-rule:evenodd;clip-rule:evenodd;fill:#90BD89;" d="M481.3,276.27c-0.31-0.05-0.63-0.1-0.94-0.15
		C480.69,276.05,481.03,275.92,481.3,276.27z"/>
	<path style="fill-rule:evenodd;clip-rule:evenodd;fill:#232422;" d="M473.64,275.41c0.24-0.02,0.48-0.05,0.72-0.07
		c0.09,0.02,0.17,0.04,0.26,0.06c0.02,0.05,0.04,0.1,0.06,0.15C474.32,275.59,473.96,275.69,473.64,275.41z"/>
	<path style="fill-rule:evenodd;clip-rule:evenodd;fill:#E0EEF9;" d="M479.88,274.64c0.16,0.08,0.32,0.16,0.48,0.24
		C480.2,274.8,480.04,274.72,479.88,274.64z"/>
	<path style="fill-rule:evenodd;clip-rule:evenodd;fill:#E0EEF9;" d="M478.92,274.4c0.16,0.08,0.32,0.16,0.48,0.24
		C479.24,274.56,479.08,274.48,478.92,274.4z"/>
	<path style="fill-rule:evenodd;clip-rule:evenodd;fill:#E0EEF9;" d="M477.72,274.16c0.16,0.08,0.32,0.16,0.48,0.24
		C478.04,274.32,477.88,274.24,477.72,274.16z"/>
	<path style="fill-rule:evenodd;clip-rule:evenodd;fill:#E0EEF9;" d="M476.52,273.92c0.16,0.08,0.32,0.16,0.48,0.24
		C476.84,274.08,476.68,274,476.52,273.92z"/>
	<path style="fill-rule:evenodd;clip-rule:evenodd;fill:#E0EEF9;" d="M479.64,276.05l-0.11,0.03l-0.12-0.01
		c-0.03-0.07-0.05-0.14-0.07-0.21C479.43,275.93,479.54,275.99,479.64,276.05z"/>
	<path style="fill-rule:evenodd;clip-rule:evenodd;fill:#E0EEF9;" d="M482.76,275.6c0.08,0.08,0.16,0.16,0.24,0.24
		C482.92,275.76,482.84,275.68,482.76,275.6z"/>
	<path style="fill-rule:evenodd;clip-rule:evenodd;fill:#E0EEF9;" d="M482.28,275.36c0.08,0.08,0.16,0.16,0.24,0.24
		C482.44,275.52,482.36,275.44,482.28,275.36z"/>
	<path style="fill-rule:evenodd;clip-rule:evenodd;fill:#90BD89;" d="M474.68,275.54c-0.03-0.05-0.05-0.1-0.06-0.15
		c0.07,0.04,0.14,0.08,0.2,0.12C474.78,275.54,474.73,275.55,474.68,275.54z"/>
	<path style="fill-rule:evenodd;clip-rule:evenodd;fill:#E0EEF9;" d="M475.56,273.68c0.08,0.08,0.16,0.16,0.24,0.24
		C475.72,273.84,475.64,273.76,475.56,273.68z"/>
	<path style="fill-rule:evenodd;clip-rule:evenodd;fill:#2B2C28;" d="M461.4,273.68c0.06-0.08,0.12-0.16,0.19-0.25
		C461.52,273.52,461.46,273.6,461.4,273.68z"/>
	<path style="fill-rule:evenodd;clip-rule:evenodd;fill:#E0EEF9;" d="M481.08,274.88c0.08,0.08,0.16,0.16,0.24,0.24
		C481.24,275.04,481.16,274.96,481.08,274.88z"/>
	<path style="fill-rule:evenodd;clip-rule:evenodd;fill:#B3D9F4;" d="M451.8,274.16c-1.78,0.94-3.19,2.25-4.08,4.08
		C448.09,276.11,449.67,274.53,451.8,274.16z"/>
	<path style="fill-rule:evenodd;clip-rule:evenodd;fill:#B8DBF5;" d="M485.4,276.77c-0.66-1.43-2.1-1.79-3.36-2.21
		c-4.33-1.47-8.74-2.71-13.35-2.76c-1.64-0.02-3.28,0.53-4.94,0.19c-0.15-0.03-0.28-0.13-0.42-0.2c1.71-1.64,3.73-0.89,5.64-0.68
		c3.53,0.38,7.04,0.9,10.57,1.36c0.66,0.09,1.33,0.18,1.99,0.27c0.19,0.13,0.44,0.09,0.64,0.18c1.68,0.8,3.36,1.59,4.64,3
		c0.29,0.31,0.69,0.56,0.51,1.09C486.68,276.93,486.04,276.85,485.4,276.77z"/>
	<path style="fill-rule:evenodd;clip-rule:evenodd;fill:#14140F;" d="M482.04,272.99c-0.17-0.08-0.35-0.17-0.52-0.25
		c0.28-0.03,0.58,0.02,0.77-0.27c0.89,0.08,1.78,0.21,2.62-0.22c-0.11,0.41-0.17,0.73,0.41,0.9c0.66,0.19,1.36,0.45,1.89,0.86
		c0.71,0.56,0.79-0.73,1.36-0.34c-0.53,0.74-0.03,1.21,0.45,1.68c-0.09,0.09-0.18,0.18-0.26,0.27c-0.2,0.07-0.41,0.04-0.57-0.07
		C486.33,274.22,484.12,273.77,482.04,272.99z"/>
	<path style="fill-rule:evenodd;clip-rule:evenodd;fill:#C9E1F5;" d="M464.76,269.36c0.08-0.08,0.15-0.16,0.23-0.25
		C464.91,269.2,464.83,269.28,464.76,269.36z"/>
	<path style="fill-rule:evenodd;clip-rule:evenodd;fill:#B8DBF5;" d="M462.83,272.04c-0.09,0.06-0.17,0.13-0.26,0.19
		C462.66,272.16,462.75,272.1,462.83,272.04z"/>
	<path style="fill-rule:evenodd;clip-rule:evenodd;fill:#1D1D17;" d="M472.9,292.65c0.09,0.08,0.17,0.16,0.26,0.24
		C473.07,292.81,472.98,292.73,472.9,292.65z"/>
	<path style="fill-rule:evenodd;clip-rule:evenodd;fill:#1D1D17;" d="M473.15,292.88c0.08,0.06,0.16,0.12,0.25,0.18
		C473.32,293,473.23,292.94,473.15,292.88z"/>
	<path style="fill-rule:evenodd;clip-rule:evenodd;fill:#1D1D17;" d="M473.61,293.13c0.09,0.08,0.17,0.16,0.26,0.24
		C473.79,293.29,473.7,293.21,473.61,293.13z"/>
	<path style="fill-rule:evenodd;clip-rule:evenodd;fill:#1D1D17;" d="M473.87,293.37c0.17,0.04,0.21,0.11,0.06,0.23
		C473.91,293.52,473.89,293.44,473.87,293.37z"/>
	<path style="fill-rule:evenodd;clip-rule:evenodd;fill:#020200;" d="M471.25,275.59c0.41-0.39,0.89-0.19,1.35-0.15
		c-0.23,0.37-0.58,0.08-0.87,0.15C471.57,275.62,471.41,275.59,471.25,275.59L471.25,275.59z"/>
	<path style="fill-rule:evenodd;clip-rule:evenodd;fill:#2A2A28;" d="M469.8,274.91c0.49,0.03,1-0.14,1.44,0.21
		C470.76,275.06,470.24,275.28,469.8,274.91z"/>
	<path style="fill-rule:evenodd;clip-rule:evenodd;fill:#141511;" d="M457.44,277.69c-0.02-0.07-0.06-0.14-0.07-0.21
		c0-0.03,0.04-0.06,0.07-0.09c0.03,0.07,0.06,0.14,0.08,0.21C457.52,277.63,457.47,277.66,457.44,277.69z"/>
	<path style="fill-rule:evenodd;clip-rule:evenodd;fill:#5E95C1;" d="M456.11,289.28c-0.01-0.08-0.01-0.16,0-0.24
		c0.15,0.07,0.3,0.14,0.45,0.2C456.41,289.25,456.26,289.27,456.11,289.28z"/>
	<path style="fill-rule:evenodd;clip-rule:evenodd;fill:#548262;" d="M504.78,289.17c-0.02,0.03-0.05,0.05-0.07,0.08
		c-0.02-0.03-0.06-0.05-0.06-0.08c0-0.02,0.04-0.05,0.07-0.07C504.74,289.12,504.77,289.15,504.78,289.17z"/>
	<path style="fill-rule:evenodd;clip-rule:evenodd;fill:#0D0C0A;" d="M484.66,270.57c-0.71,0.06-1.34-0.41-1.81-0.69
		c-0.75-0.45-0.27-1.17,0.47-1.47c1.42-0.57,2.7,0.07,3.99,0.52c0.04,0.31-0.19,0.37-0.41,0.44c-0.61,0.1-1.17-0.23-1.76-0.25
		c-0.48-0.01-0.97-0.02-0.6,0.69c0.11,0.11,0.22,0.22,0.33,0.33c0.07,0.08,0.11,0.18,0.12,0.28
		C484.93,270.58,484.85,270.71,484.66,270.57z"/>
	<path style="fill-rule:evenodd;clip-rule:evenodd;fill:#171511;" d="M484.66,270.57c0.09-0.08,0.17-0.16,0.26-0.24
		c0.63-0.55,1.29-0.19,1.89,0.03c1.45,0.53,2.94,0.86,4.43,1.24c0.18,0.1,0.32,0.22,0.2,0.45c-0.02,0.13-0.03,0.26-0.04,0.38
		c-2.06,0.01-3.84-1.09-5.79-1.52C485.3,270.86,484.86,270.96,484.66,270.57z"/>
	<path style="fill-rule:evenodd;clip-rule:evenodd;fill:#262521;" d="M491.43,272.06c-0.1-0.1-0.19-0.21-0.29-0.31
		c-0.77-1.2-2.09-1.49-3.29-1.97c-0.38-0.15-0.91-0.05-1.04-0.62c0.17-0.08,0.33-0.16,0.5-0.25c1.27,0.4,2.54,0.79,3.8,1.19
		C491.68,270.68,491.89,271.31,491.43,272.06z"/>
	<path style="fill-rule:evenodd;clip-rule:evenodd;fill:#D3E8F9;" d="M475.8,269.29c-0.09-0.05-0.18-0.1-0.27-0.15
		C475.61,269.19,475.7,269.24,475.8,269.29z"/>
	<path style="fill-rule:evenodd;clip-rule:evenodd;fill:#B5D9F3;" d="M475.8,294.12c0.09,0.06,0.18,0.12,0.27,0.18
		C475.98,294.23,475.89,294.17,475.8,294.12z"/>
	<path style="fill-rule:evenodd;clip-rule:evenodd;fill:#ACD5F3;" d="M495.19,272.48c-1.12,0-1.38-0.62-1.37-1.34
		c0.02-1.06,0.69-1.55,1.72-1.54c0.73,0.01,1.37,0.44,1.29,1.1C496.73,271.69,496.19,272.51,495.19,272.48z"/>
	<path style="fill-rule:evenodd;clip-rule:evenodd;fill:#9BCBED;" d="M482.04,272.99c2.52,0.15,4.72,1.14,6.71,2.64
		c0.22,0.54,1.03,0.68,0.96,1.42l0.03-0.02c-0.81-0.01-1.61-0.01-2.42-0.02c-1-1.35-2.29-2.35-3.8-3.09
		C482.99,273.67,482.38,273.54,482.04,272.99z"/>
	<path style="fill-rule:evenodd;clip-rule:evenodd;fill:#030300;" d="M482.06,276.78c0.4-0.38,0.88-0.18,1.33-0.17
		C482.99,276.98,482.51,276.73,482.06,276.78z"/>
	<path style="fill-rule:evenodd;clip-rule:evenodd;fill:#627AB3;" d="M489.71,277.05c0.06,0.02,0.11,0.05,0.17,0.07
		c-0.04,0.03-0.07,0.05-0.11,0.08c-0.01-0.06-0.02-0.11-0.03-0.17L489.71,277.05z"/>
	<path style="fill-rule:evenodd;clip-rule:evenodd;fill:#545351;" d="M486.81,269.16c1.23,0.35,2.44,0.74,3.61,1.31
		c0.64,0.31,0.8,0.67,0.73,1.28c-1.41,0.11-2.65-0.52-3.94-0.9c-0.75-0.23-1.48-0.51-2.28-0.51c-0.06-0.03-0.13-0.04-0.19-0.03
		c-0.11-0.05-0.2-0.14-0.28-0.23c-0.19-0.23-0.83-0.14-0.46-0.79c0.23-0.4,0.3-0.6,0.87-0.53
		C485.53,268.82,486.14,269.08,486.81,269.16z"/>
	<path style="fill-rule:evenodd;clip-rule:evenodd;fill:#171511;" d="M484.44,270.07c0.09,0.08,0.19,0.15,0.28,0.23
		C484.63,270.23,484.54,270.15,484.44,270.07z"/>
</g>
</svg>
