<?xml version="1.0" encoding="utf-8"?>
<!-- Generator: Adobe Illustrator 16.0.0, SVG Export Plug-In . SVG Version: 6.00 Build 0)  -->
<!DOCTYPE svg PUBLIC "-//W3C//DTD SVG 1.0//EN" "http://www.w3.org/TR/2001/REC-SVG-20010904/DTD/svg10.dtd" [
	<!ENTITY ns_flows "http://ns.adobe.com/Flows/1.0/">
	<!ENTITY ns_extend "http://ns.adobe.com/Extensibility/1.0/">
	<!ENTITY ns_ai "http://ns.adobe.com/AdobeIllustrator/10.0/">
	<!ENTITY ns_graphs "http://ns.adobe.com/Graphs/1.0/">
]>
<svg version="1.0" id="Layer_1" xmlns:x="&ns_extend;" xmlns:i="&ns_ai;" xmlns:graph="&ns_graphs;"
	 xmlns="http://www.w3.org/2000/svg" xmlns:xlink="http://www.w3.org/1999/xlink" xmlns:a="http://ns.adobe.com/AdobeSVGViewerExtensions/3.0/"
	 x="0px" y="0px" width="960px" height="560px" viewBox="0 0 960 560" style="enable-background:new 0 0 960 560;"
	 xml:space="preserve">
<g>
	<path style="fill-rule:evenodd;clip-rule:evenodd;fill:#010000;" d="M479.9,254.34c11.84-0.13,19.96,5.73,25.17,15.99
		c1.1,2.16,1.65,4.62,2.04,7.09c0.34,2.11,0.31,4.2,0.18,6.26c-0.13,2.18-0.83,4.29-1.56,6.38c-1.62,4.68-4.44,8.51-8.17,11.66
		c-3.43,2.89-7.34,4.8-11.78,5.76c-3.29,0.71-6.6,0.55-9.85,0.35c-3.68-0.22-7.13-1.61-10.3-3.55c-4.34-2.65-7.74-6.18-10.17-10.68
		c-2.31-4.28-3.24-8.83-3.06-13.66c0.28-7.36,3.29-13.41,8.55-18.45c2.19-2.1,4.66-3.72,7.43-4.94c1.8-0.79,3.62-1.48,5.54-1.9
		C475.89,254.22,477.89,254.48,479.9,254.34z"/>
	<path style="fill-rule:evenodd;clip-rule:evenodd;fill:#CAC7CA;" d="M470.15,257.26c0.59-0.38,1.23-0.63,1.93-0.7
		c1.46-0.32,2.67,0.28,3.96,0.9c4.64,2.25,8.21,5.91,12.14,9.08c1.68,1.36,3.23,2.85,4.58,4.55c2.63,3.32,2.34,8.58,0.23,11.95
		c-2.71,4.35-8.94,6-13.83,4.29c-5.33-1.86-8.4-6.27-8.37-11.97c0.01-2.87,0.35-5.73-0.22-8.6c-0.2-1.02-0.45-2.02-0.77-3.01
		c-0.43-1.34-0.76-2.69-0.92-4.09C468.76,258.6,469,257.68,470.15,257.26z"/>
	<path style="fill-rule:evenodd;clip-rule:evenodd;fill:#646062;" d="M453.85,285.36c-0.06-0.4-0.12-0.79-0.18-1.19
		c0.78-0.14,1.03,0.49,1.35,0.97c0.87,1.3,1.51,2.73,2.29,4.08c1.38,2.35,2.9,4.6,4.64,6.7c3.06,3.69,6.9,6.37,11.4,7.9
		c4.17,1.41,8.49,1.45,12.72,0.07c3.93-1.28,7.66-3.01,11.1-5.33c0.4-0.27,0.78-0.57,1.22-0.75c0.45-0.18,0.93-0.37,1.22,0.25
		c-3.88,4.74-8.99,7.5-14.9,8.52c-9.31,1.6-17.45-1.06-24.09-7.81c-3.59-3.65-5.87-8.09-6.75-13.18
		C453.94,285.5,453.93,285.43,453.85,285.36z"/>
	<path style="fill-rule:evenodd;clip-rule:evenodd;fill:#C4C1C4;" d="M470.15,257.26c-1.56,1.24-0.97,2.83-0.58,4.28
		c0.76,2.83,1.66,5.63,1.7,8.59c0.02,1.94-0.2,3.9-0.13,5.84c0.23,6.04,4.38,11.05,10.77,11.6c3.28,0.28,6.19-0.42,8.71-2.39
		c1.99-1.55,3.1-3.71,3.56-6.27c0.96-5.33-2.07-8.59-5.7-11.65c-3.1-2.61-6.12-5.34-9.45-7.65c-2.09-1.46-4.29-2.83-6.96-3.05
		c0.57-0.34,1.18-0.53,1.85-0.5c0.1-0.05,0.2-0.09,0.3-0.15c0.37-0.04,0.73-0.07,1.1-0.11c1.31-0.04,2.37,0.61,3.38,1.32
		c1.31,0.92,2.49,2,3.64,3.12c3.08,3.01,6.34,5.83,9.47,8.8c3.92,3.72,4.53,7.98,2.59,12.93c-2.11,5.38-7.12,7.37-12.35,6.71
		c-3.35-0.42-6.35-1.49-8.73-4.03c-2.32-2.46-3.29-5.46-3.47-8.72c-0.16-2.83,0.02-5.66-0.52-8.47c-0.43-2.22-1.28-4.28-2.09-6.36
		c-0.29-0.73-0.7-1.46-0.43-2.3C467.87,258.15,468.92,257.5,470.15,257.26z"/>
	<path style="fill-rule:evenodd;clip-rule:evenodd;fill:#7C787B;" d="M493.23,258.95c0.08,0.06,0.16,0.12,0.24,0.18
		c1.6,2.16,3.65,3.86,5.76,5.49c0.79,0.61,1.49,1.3,2.2,1.98l-0.04-0.02c0.04,0.15,0.15,0.22,0.28,0.27
		c0.06,0.08,0.12,0.16,0.18,0.23c0.06,0.08,0.12,0.16,0.16,0.25c0.19,0.31,0.38,0.62,0.56,0.93c0.06,0.09,0.11,0.18,0.16,0.27
		c0.06,0.05,0.09,0.11,0.09,0.19c0.04,0.12,0.12,0.21,0.2,0.3c0.04,0.05,0.05,0.11,0.04,0.17c0.04,0.13,0.12,0.22,0.21,0.31
		c0.04,0.05,0.05,0.11,0.03,0.18c0.73,2.27,0.67,4.57,0.4,6.91c-0.15,1.25-0.22,2.51-0.32,3.77c0.02,0.9-0.29,1.76-0.31,2.65
		c-0.06,0.32-0.2,0.62-0.19,0.95c-0.34,2.05-0.73,4.08-1.69,5.95c-1.55,3.01-3.95,5.18-6.78,6.93c-3.68,2.28-7.65,3.84-11.95,4.34
		c-5.04,0.59-9.54-0.98-13.62-3.86c-3.84-2.71-6.53-6.4-8.85-10.41c-1.67-2.9-2.83-5.96-3.26-9.31c-0.26-2.02,0.12-3.98,0.25-5.96
		c0.08-1.19,0.3-2.38,0.2-3.58c0.32-0.5,0.64-0.99,0.96-1.49c0.6,0.39,0.56,1.01,0.6,1.6c0.11,1.65-0.11,3.28-0.33,4.89
		c-0.58,4.21,0.3,8.13,2.22,11.82c2.02,3.89,4.49,7.46,7.94,10.26c3.11,2.53,6.55,4.33,10.63,4.49c7.34,0.29,13.6-2.27,18.76-7.45
		c2.07-2.08,2.97-4.82,3.48-7.63c0.64-3.53,1.06-7.09,1.05-10.7c-0.01-3.16-1.07-5.71-3.57-7.73c-1.86-1.5-3.74-2.99-5.36-4.78
		c-0.54-0.6-1.04-1.22-1.44-1.91c-0.23-0.38-0.47-0.77-0.11-1.2c0.16,0.09,0.33,0.18,0.49,0.27c0.09,0.06,0.18,0.12,0.27,0.18
		c0.07,0.03,0.15,0.07,0.22,0.1C493.07,258.84,493.15,258.89,493.23,258.95z"/>
	<path style="fill-rule:evenodd;clip-rule:evenodd;fill:#848082;" d="M492,258.25c0.12,1.06,0.83,1.79,1.48,2.52
		c1.83,2.06,4.02,3.74,6.13,5.49c1.95,1.61,3.07,3.74,3.15,6.21c0.17,5.75-0.17,11.51-2.5,16.86c-1.73,3.98-5.22,6.36-9.05,8.14
		c-3.04,1.42-6.26,2.5-9.61,2.67c-3.45,0.17-6.82-0.55-9.84-2.37c-6.93-4.17-11.16-10.39-13.4-18.04c-0.86-2.94-0.36-5.93-0.08-8.89
		c0.13-1.44,0.26-2.85-0.12-4.26c0.11-0.15,0.23-0.3,0.34-0.44c0.04-0.09,0.09-0.17,0.15-0.25c0.08-0.09,0.15-0.18,0.22-0.28
		c0.93,1.2,0.82,2.61,0.69,3.97c-0.42,4.5-0.81,8.98,1.05,13.31c1.27,2.96,3,5.63,4.99,8.14c2.35,2.97,5.28,5.24,8.77,6.67
		c4.1,1.68,8.3,1.62,12.52,0.26c3.46-1.11,6.71-2.58,9.43-5.03c2.53-2.29,3.85-5.23,4.48-8.53c0.71-3.69,1.08-7.41,0.97-11.18
		c-0.06-2.13-0.8-3.93-2.27-5.49c-1.89-2.02-4.21-3.56-6.09-5.58c-0.85-0.91-1.59-1.9-2.25-2.94c-0.29-0.45-0.54-0.91-0.11-1.42
		C491.36,257.94,491.68,258.1,492,258.25z"/>
	<path style="fill-rule:evenodd;clip-rule:evenodd;fill:#C0BDC0;" d="M466.81,258.79c0.79,2.21,1.68,4.38,2.36,6.63
		c0.96,3.19,1.08,6.49,0.99,9.81c-0.06,2.27,0.5,4.43,1.51,6.45c2.02,4.01,5.45,5.93,9.76,6.59c3.28,0.5,6.36,0.15,9.11-1.8
		c2.5-1.78,3.75-4.34,4.34-7.3c0.96-4.87-1.3-8.25-4.8-11.27c-3.28-2.83-6.31-5.95-9.51-8.87c-1.53-1.39-3.22-2.59-5.24-3.21
		c0.18-0.3,0.48-0.2,0.74-0.24c0.82-0.17,1.65-0.04,2.46-0.08c1.27,0.64,2.22,1.66,3.15,2.7c2.26,2.54,4.71,4.88,7.18,7.22
		c1.74,1.65,3.61,3.19,5.09,5.07c2.05,2.61,2.61,5.63,1.94,8.93c-0.51,2.49-1.42,4.77-3.13,6.63c-1.68,1.84-3.81,3.02-6.33,3.35
		c-5.24,0.69-9.95-0.39-13.75-4.28c-2.33-2.39-3.42-5.34-3.57-8.65c-0.19-4.1-0.22-8.22-1.7-12.15c-0.45-1.2-1.09-2.31-1.51-3.52
		c-0.15-0.45-0.4-0.89-0.09-1.37l-0.01,0.01c0.11-0.04,0.18-0.13,0.27-0.21C466.32,259.07,466.57,258.93,466.81,258.79z"/>
	<path style="fill-rule:evenodd;clip-rule:evenodd;fill:#736F71;" d="M504.57,272.6c0.28,0.69,0.71,1.33,0.66,2.13
		c-0.25,4.61-0.54,9.22-1.79,13.69c-1.09,3.91-3.75,6.61-6.99,8.83c-3.29,2.25-6.87,3.89-10.71,4.96
		c-5.74,1.61-11.12,0.71-16.23-2.31c-4.59-2.71-7.67-6.78-10.42-11.19c-1.87-3.01-3.33-6.18-3.95-9.7
		c-0.15-0.85-0.04-1.51,0.82-1.88c0.65,0.08,0.67,0.65,0.73,1.08c0.91,6.11,4.22,10.97,8.05,15.55c3.33,3.98,7.6,6.44,12.69,7.39
		c3.12,0.58,6.22,0.24,9.23-0.75c3.51-1.16,6.81-2.7,9.81-4.92c3.89-2.88,5.83-6.77,6.46-11.45c0.25-1.82,0.53-3.63,0.6-5.48
		c0.07-1.58,0.36-3.14,0.36-4.72C503.9,273.36,503.72,272.67,504.57,272.6z"/>
	<path style="fill-rule:evenodd;clip-rule:evenodd;fill:#6C686A;" d="M453.59,279.6c0-0.4,0-0.8,0-1.19
		c0.12-0.1,0.13-0.23,0.13-0.37c0-0.14,0.03-0.27,0.1-0.4c0-0.22,0-0.44,0-0.67c0.07-0.04,0.1-0.09,0.08-0.15
		c-0.01-0.06-0.03-0.09-0.05-0.09c0.06-0.17,0.11-0.34,0.17-0.51c0.75-0.01,0.79,0.59,0.82,1.07c0.25,4.38,2.2,8.13,4.42,11.76
		c1.86,3.05,3.97,5.9,6.66,8.28c3.07,2.72,6.57,4.7,10.64,5.42c4.15,0.73,8.16,0.08,12.07-1.47c3.66-1.46,7.06-3.32,10.12-5.83
		c3.13-2.57,4.78-5.92,5.36-9.85c0.32-2.13,0.67-4.25,0.76-6.41c0.02-0.5,0-1.07,0.62-1.32c0.24-0.03,0.32,0.15,0.42,0.3
		c0.75,3.69,0.08,7.26-1.02,10.76c-0.47,1.51-1.02,3.01-1.92,4.34c-0.56,0.15-0.75,0.69-1.11,1.05c-5.45,5.41-12.01,8.78-19.54,9.98
		c-4.9,0.78-9.49-0.54-13.73-3.16c-3.83-2.37-6.76-5.59-9.21-9.29c-1.28-1.93-2.4-3.97-3.59-5.96
		C454.62,283.93,454.29,281.71,453.59,279.6z"/>
	<path style="fill-rule:evenodd;clip-rule:evenodd;fill:#696567;" d="M453.59,279.6c0.6,0.59,0.73,1.4,1,2.14
		c2.57,7.25,6.57,13.57,12.79,18.17c6.42,4.75,13.5,5.43,20.94,2.53c5.22-2.04,10.03-4.72,13.87-8.9c0.21-0.23,0.42-0.51,0.8-0.27
		c-0.05,0.09-0.1,0.18-0.14,0.27c-0.14,0.07-0.23,0.17-0.26,0.33c0.04,0.39-0.26,0.6-0.44,0.88c-0.15,0.06-0.25,0.16-0.28,0.32
		c-0.07,0.13-0.14,0.26-0.21,0.4c-0.14,0.06-0.24,0.17-0.27,0.32c-0.01,0.07-0.04,0.12-0.1,0.17c-0.05,0.09-0.1,0.18-0.15,0.27
		c-0.05,0.07-0.1,0.14-0.16,0.2c-0.18,0.04-0.28,0.14-0.32,0.32c-0.01,0.07-0.04,0.12-0.1,0.16c-0.06,0.26-0.26,0.42-0.42,0.6
		c-0.1,0.11-0.2,0.21-0.29,0.32c-0.04,0.08-0.11,0.15-0.19,0.21l-0.04,0.04c-0.66-0.43-1.12,0-1.61,0.35
		c-3.67,2.54-7.66,4.46-11.89,5.81c-3.41,1.09-6.9,1.23-10.45,0.48c-7.24-1.53-12.34-5.92-16.43-11.82
		c-1.62-2.34-2.92-4.85-4.34-7.3c-0.32-0.55-0.61-1.13-1.24-1.41C453.58,282.65,453.11,281.13,453.59,279.6z"/>
	<path style="fill-rule:evenodd;clip-rule:evenodd;fill:#706C6E;" d="M505.68,277.92c-0.5,0.23-0.45,0.68-0.49,1.12
		c-0.19,2.73-0.52,5.45-1.05,8.14c-1.09,5.46-4.85,8.77-9.38,11.43c-3.91,2.3-8.02,4.15-12.57,4.65c-4.56,0.5-8.84-0.53-12.79-2.95
		c-4.91-3-8.25-7.41-11.1-12.26c-1.71-2.9-3.1-5.91-3.68-9.27c-0.15-0.86,0.3-1.89-0.6-2.58c0.26-2.12,1.02-4.08,1.97-5.98
		c0.55,0.05,0.6,0.51,0.59,0.88c-0.02,1.86-0.19,3.72-0.29,5.58c-0.01,0.2-0.13,0.37-0.3,0.5c-0.96,0.75-0.58,1.7-0.37,2.61
		c1.22,5.25,4.08,9.64,7.32,13.83c2.68,3.47,6.05,6.04,10.09,7.64c3.98,1.58,8.1,1.85,12.29,0.68c5.26-1.47,10.04-3.8,14.08-7.55
		c2.96-2.74,3.99-6.31,4.62-10.12c0.52-3.17,0.39-6.43,1.21-9.56c0.33,0.69,0.55,1.4,0.47,2.18c0.06,0.1,0.09,0.22,0.09,0.34
		C505.78,277.47,505.86,277.72,505.68,277.92z"/>
	<path style="fill-rule:evenodd;clip-rule:evenodd;fill:#7A7678;" d="M456,277.2c-0.03-1.91,0-3.82,0.23-5.72
		c0.05-0.41,0.16-0.89-0.23-1.24c0.31-0.77,0.65-1.52,1.19-2.17c1.03,1.03,0.34,2.28,0.16,3.28c-1.08,5.89,0.31,11.2,3.38,16.18
		c2.18,3.54,4.63,6.83,8.06,9.33c5.26,3.84,10.99,5.11,17.27,3.3c4.61-1.33,8.84-3.39,12.3-6.85c2.61-2.62,3.73-5.85,4.21-9.39
		c0.23-0.19,0.02-0.53,0.24-0.72c0.08-0.88,0.16-1.76,0.24-2.64c0.37-0.5-0.25-1.43,0.72-1.68c-0.2,4.32-0.56,8.67-2.91,12.42
		c-2.52,4.02-6.45,6.42-10.76,8.18c-2.69,1.1-5.42,2.02-8.38,2.23c-4.26,0.29-8.15-0.82-11.7-3.03c-6.03-3.74-9.62-9.44-12.43-15.78
		C456.75,281.04,456.81,279.02,456,277.2z"/>
	<path style="fill-rule:evenodd;clip-rule:evenodd;fill:#AFABAD;" d="M478.79,255.63c-0.91-0.02-1.81-0.04-2.72-0.07
		c2.77-0.2,5.53-0.52,8.28,0.21c1.1,1.65,1.98,3.44,3.27,4.97c1.7,1.99,3.33,4.04,5.44,5.65c1.08,1.18,2.31,2.2,3.28,3.5
		c2.01,2.69,2.19,5.73,1.86,8.9c-0.23,2.21-0.88,4.27-1.69,6.33c-1.83,4.65-5.46,6.77-10.13,7.51c-2.49,0.39-5.02,0.5-7.5-0.06
		c-4.67-1.05-8.24-3.69-10.88-7.66c-1.92-2.89-2.65-6.14-2.73-9.53c-0.06-2.63-0.01-5.27-0.53-7.87c-0.32-1.61-0.9-3.14-1.54-4.65
		c-0.18-0.43-0.51-0.83-0.3-1.35c0.17-0.14,0.33-0.27,0.5-0.41c0.06,0.02,0.12,0.03,0.18,0.05c0.49,0.34,0.65,0.89,0.87,1.4
		c1.63,3.72,2.26,7.61,2.21,11.65c-0.03,2.65,0.42,5.22,1.38,7.72c1.3,3.37,3.63,5.77,6.71,7.52c4.76,2.71,9.66,2.65,14.75,0.92
		c4.89-1.66,6.3-5.74,7.4-10.08c0.55-2.16,0.37-4.36-0.07-6.53c-0.42-2.08-1.62-3.69-3.16-5.08c-4.11-3.29-7.74-7.02-10.58-11.48
		c-0.61-0.96-1.3-1.47-2.44-1.24C480.03,255.94,479.36,256.07,478.79,255.63z"/>
	<path style="fill-rule:evenodd;clip-rule:evenodd;fill:#A4A1A3;" d="M485.82,256.06c0.07-0.04,0.13-0.03,0.18,0.03
		c0.32,0.18,0.57,0.43,0.72,0.77c1.68,3.81,4.57,6.64,7.59,9.37c0.15,0.13,0.3,0.26,0.44,0.41c1.34,1.37,2.76,2.65,3.62,4.44
		c1.12,2.31,1.03,4.75,0.89,7.17c-0.18,2.92-0.89,5.73-2.1,8.43c-1.41,3.15-3.87,5.16-6.91,6.48c-2.69,1.16-5.55,1.63-8.51,1.72
		c-3.06,0.09-5.72-0.89-8.29-2.35c-3.55-2.01-6.13-4.94-8.04-8.5c-1.46-2.74-1.95-5.73-2.06-8.79c-0.1-2.95,0.2-5.91-0.45-8.84
		c-0.21-0.94-0.5-1.85-0.85-2.74c-0.18-0.46-0.34-0.9-0.07-1.37l-0.01,0.01c0.11-0.07,0.24-0.1,0.37-0.09
		c1.24,1.25,1.57,2.9,1.9,4.53c0.56,2.83,0.47,5.7,0.55,8.57c0.2,7.13,3.28,12.54,9.58,16.14c3.66,2.09,7.45,2.36,11.45,1.67
		c1.54-0.26,3.04-0.67,4.47-1.28c0.1-0.05,0.21-0.1,0.32-0.15c0.25-0.11,0.5-0.22,0.72-0.4c0.08-0.06,0.17-0.12,0.26-0.18
		c0.4-0.24,0.8-0.49,1.17-0.78c0.08-0.07,0.17-0.12,0.27-0.17c0.52-0.32,0.92-0.77,1.29-1.24c0.05-0.09,0.12-0.17,0.18-0.25
		c0.06-0.08,0.13-0.16,0.2-0.23c0.03-0.04,0.07-0.07,0.1-0.11c0.06-0.08,0.13-0.15,0.2-0.22c0.03-0.04,0.07-0.07,0.1-0.11
		c0.21-0.21,0.39-0.43,0.52-0.7c0.04-0.09,0.09-0.18,0.14-0.27c0.23-0.41,0.42-0.83,0.55-1.27c0.03-0.1,0.07-0.19,0.12-0.29
		c0.24-0.45,0.47-0.91,0.61-1.41c0.03-0.1,0.07-0.2,0.1-0.29c0.17-0.43,0.29-0.87,0.39-1.32c0.02-0.1,0.04-0.2,0.08-0.3
		c0.08-0.24,0.13-0.49,0.18-0.74c0.02-0.1,0.04-0.2,0.07-0.3c0.15-0.45,0.15-0.93,0.17-1.4c0.01-0.11,0.04-0.21,0.07-0.31
		c0.1-0.53,0.18-1.06,0.15-1.59c0-0.21,0-0.41,0.01-0.62c0.01-0.2,0.08-0.39,0.04-0.59c-0.02-0.1-0.03-0.2-0.04-0.3
		c-0.01-0.15-0.01-0.3-0.01-0.46c0-0.16,0-0.31,0-0.47c0-0.53-0.08-1.05-0.16-1.57c-0.03-0.1-0.05-0.2-0.07-0.3
		c-0.01-0.24-0.06-0.48-0.15-0.71c-0.03-0.08-0.05-0.17-0.08-0.26c-0.03-0.13-0.07-0.25-0.11-0.38c-0.03-0.08-0.06-0.16-0.09-0.23
		c-0.05-0.11-0.1-0.22-0.15-0.33c-0.04-0.07-0.08-0.14-0.11-0.22c-0.06-0.11-0.11-0.22-0.17-0.32c-0.05-0.07-0.09-0.14-0.13-0.21
		c-0.09-0.14-0.18-0.28-0.29-0.42c-0.05-0.07-0.1-0.14-0.15-0.22c-0.09-0.15-0.19-0.3-0.3-0.44c-0.07-0.07-0.13-0.14-0.19-0.21
		c-0.07-0.07-0.13-0.15-0.19-0.23c-0.06-0.08-0.12-0.17-0.17-0.25c-0.32-0.42-0.7-0.78-1.11-1.12c-0.08-0.05-0.17-0.11-0.25-0.17
		c-0.08-0.06-0.15-0.12-0.22-0.19c-0.03-0.03-0.07-0.07-0.1-0.1c-0.07-0.06-0.13-0.13-0.2-0.2c-0.03-0.03-0.06-0.07-0.1-0.1
		c-0.07-0.06-0.13-0.13-0.2-0.2c-0.03-0.03-0.07-0.07-0.1-0.1c-0.07-0.06-0.14-0.13-0.21-0.2c-0.04-0.04-0.07-0.07-0.11-0.11
		c-0.08-0.07-0.14-0.15-0.21-0.23c-0.04-0.04-0.07-0.08-0.11-0.12c-2.95-2.43-5.34-5.31-7.21-8.64c-0.27-0.48-0.78-0.97-0.32-1.62
		C485.49,255.96,485.66,255.97,485.82,256.06z"/>
	<path style="fill-rule:evenodd;clip-rule:evenodd;fill:#BBB7BA;" d="M478.79,255.63c0.72,0,1.44,0,2.16-0.01
		c1.67,1.81,3.08,3.86,4.79,5.63c2.77,2.86,5.63,5.62,8.47,8.41c0.5,0.49,0.9,1.01,1.01,1.72c2.6,5.16,1.42,9.94-1.59,14.43
		c-1.24,1.85-3.17,3.06-5.36,3.63c-5.5,1.44-10.63,0.7-15.08-3.03c-2.82-2.36-4.36-5.48-4.58-9.15c-0.16-2.62-0.44-5.24-0.59-7.86
		c-0.16-2.85-1.47-5.44-2.6-8.04c-0.2-0.47-0.56-0.9-0.36-1.46l-0.01,0.01c0.12-0.04,0.2-0.13,0.28-0.22l0,0
		c0.07-0.07,0.15-0.12,0.24-0.16c0.08-0.03,0.15-0.07,0.23-0.1c0.7,2.41,2.05,4.58,2.63,7.04c0.76,3.19,0.94,6.45,0.97,9.71
		c0.06,7.01,6.07,13.01,13.11,13.05c2.69,0.01,5.33-0.03,7.73-1.55c3.21-2.03,4.64-5.07,5.35-8.66c0.98-4.97-1.49-8.29-4.92-11.39
		c-3.16-2.85-6.32-5.73-9.04-9.02C480.76,257.53,479.45,256.9,478.79,255.63z"/>
	<path style="fill-rule:evenodd;clip-rule:evenodd;fill:#8B878A;" d="M459.06,265.41c0.18-0.23,0.35-0.47,0.53-0.7
		c0.06,0.02,0.12,0.04,0.17,0.06c0.1,0.07,0.19,0.16,0.25,0.26c0.15,0.28,0.24,0.57,0.32,0.87c0.11,0.63,0.03,1.29,0.27,1.91
		c0.16,2.27-0.14,4.52-0.38,6.77c-0.15,1.37,0.14,2.69,0.25,4.02c0.14,0.36,0.14,0.75,0.26,1.11c0.11,0.33,0.12,0.69,0.25,1.02
		c0.11,0.43,0.29,0.84,0.48,1.25c0.35,0.92,0.54,1.91,1.11,2.73c0.11,0.18,0.21,0.38,0.31,0.57c0.18,0.37,0.37,0.74,0.6,1.08
		c0.1,0.16,0.2,0.34,0.31,0.5c0.08,0.11,0.16,0.23,0.23,0.35c0.1,0.16,0.19,0.31,0.3,0.46c0.09,0.11,0.17,0.22,0.24,0.34
		c0.15,0.24,0.32,0.47,0.48,0.7c0.21,0.34,0.48,0.62,0.72,0.94c0.25,0.4,0.59,0.72,0.91,1.05c0.11,0.12,0.21,0.24,0.3,0.37
		c0.31,0.5,0.72,0.9,1.2,1.23c0.13,0.09,0.25,0.19,0.37,0.3c0.12,0.1,0.23,0.21,0.35,0.32c0.12,0.11,0.23,0.21,0.34,0.32
		c0.47,0.5,1.06,0.87,1.63,1.25c0.25,0.18,0.5,0.36,0.77,0.51c0.18,0.1,0.36,0.19,0.53,0.3c0.38,0.26,0.77,0.49,1.2,0.68
		c0.2,0.09,0.39,0.18,0.59,0.28c0.56,0.3,1.16,0.52,1.76,0.73c3.35,0.92,6.71,1.24,10.09,0.2c0.33-0.14,0.71-0.14,1.04-0.27
		c0.26-0.09,0.54-0.15,0.81-0.24c0.46-0.11,0.92-0.22,1.36-0.43c0.23-0.09,0.48-0.16,0.71-0.25c0.18-0.07,0.35-0.15,0.53-0.23
		c0.17-0.08,0.34-0.16,0.5-0.24c0.16-0.08,0.33-0.16,0.49-0.24c0.16-0.08,0.32-0.16,0.48-0.24c0.16-0.08,0.32-0.16,0.47-0.23
		c0.15-0.08,0.31-0.15,0.46-0.23c0.15-0.08,0.3-0.16,0.44-0.26c0.1-0.08,0.21-0.15,0.32-0.22c0.14-0.09,0.29-0.18,0.43-0.28
		c0.1-0.08,0.21-0.15,0.32-0.23c0.11-0.07,0.22-0.14,0.33-0.22c0.1-0.08,0.21-0.17,0.3-0.26c0.1-0.1,0.2-0.19,0.3-0.29
		c0.11-0.1,0.22-0.18,0.33-0.27c0.24-0.16,0.46-0.34,0.66-0.54c0.1-0.1,0.2-0.2,0.3-0.29c0.09-0.1,0.19-0.2,0.27-0.31
		c0.08-0.11,0.16-0.22,0.24-0.33c0.08-0.11,0.16-0.22,0.25-0.32c0.08-0.1,0.17-0.21,0.25-0.31c0.07-0.11,0.15-0.22,0.22-0.33
		c0.07-0.11,0.15-0.22,0.23-0.32c0.1-0.14,0.19-0.29,0.27-0.44c0.08-0.16,0.16-0.31,0.25-0.46c0.07-0.12,0.14-0.23,0.21-0.34
		c0.06-0.12,0.11-0.24,0.16-0.36c0.03-0.09,0.06-0.17,0.1-0.25c0.07-0.16,0.15-0.32,0.23-0.49c0.07-0.17,0.12-0.33,0.17-0.51
		c0.02-0.09,0.05-0.17,0.08-0.26c0.08-0.22,0.14-0.43,0.21-0.65c0.05-0.18,0.1-0.35,0.13-0.53c0.01-0.09,0.04-0.18,0.06-0.27
		c0.02-0.09,0.05-0.17,0.08-0.26c0.04-0.13,0.08-0.25,0.11-0.38c0.02-0.13,0.04-0.27,0.08-0.4c0.02-0.09,0.05-0.17,0.08-0.26
		c0.05-0.17,0.08-0.35,0.12-0.53c0.02-0.09,0.04-0.18,0.07-0.27c0.08-0.22,0.12-0.45,0.14-0.68c0.01-0.15,0.03-0.29,0.06-0.43
		c0.02-0.1,0.04-0.19,0.07-0.29c0.09-0.35,0.07-0.71,0.06-1.07c0-0.27,0-0.55,0.04-0.82c0.01-0.11,0.04-0.22,0.06-0.33
		c0.14-0.38,0.12-0.78,0.13-1.18c0-0.24,0.01-0.47,0.04-0.71c0.01-0.12,0.04-0.24,0.07-0.35c0.23-1.19,0.1-2.39,0.08-3.58
		c-0.04-0.11-0.07-0.22-0.09-0.33c-0.04-0.22-0.06-0.44-0.07-0.66c-0.01-0.3,0-0.61-0.1-0.9c-0.03-0.09-0.06-0.18-0.08-0.28
		c-0.04-0.13-0.08-0.27-0.12-0.4c-0.02-0.04-0.03-0.09-0.04-0.13c-0.03-0.08-0.05-0.17-0.07-0.26c-0.04-0.17-0.09-0.34-0.17-0.5
		c-0.08-0.16-0.15-0.31-0.24-0.47c-0.07-0.11-0.13-0.22-0.21-0.33c-0.05-0.07-0.1-0.14-0.15-0.21c-0.05-0.07-0.09-0.14-0.14-0.21
		c-0.06-0.1-0.12-0.21-0.18-0.32c-0.07-0.1-0.14-0.19-0.22-0.28c-0.08-0.08-0.16-0.17-0.24-0.25c-0.08-0.08-0.16-0.16-0.24-0.25
		c-0.08-0.08-0.16-0.16-0.24-0.24c-0.08-0.08-0.16-0.16-0.24-0.24c-0.08-0.08-0.16-0.16-0.24-0.24c-0.08-0.08-0.16-0.16-0.24-0.24
		c-0.08-0.08-0.16-0.16-0.24-0.24c-0.08-0.08-0.16-0.16-0.24-0.24c-0.08-0.08-0.17-0.16-0.25-0.24c-0.09-0.08-0.17-0.15-0.26-0.22
		c-0.07-0.04-0.13-0.08-0.2-0.13c-0.07-0.04-0.14-0.08-0.2-0.13c-0.1-0.07-0.19-0.14-0.27-0.23c-0.09-0.08-0.17-0.16-0.25-0.25
		c-0.08-0.08-0.17-0.16-0.25-0.25c-0.08-0.08-0.17-0.16-0.25-0.25c-0.08-0.08-0.17-0.16-0.25-0.24c-0.09-0.08-0.17-0.15-0.26-0.22
		c-0.07-0.04-0.13-0.08-0.2-0.13c-0.07-0.04-0.14-0.08-0.2-0.13c-0.1-0.07-0.19-0.14-0.27-0.23c-0.09-0.08-0.17-0.16-0.25-0.25
		c-0.08-0.08-0.16-0.16-0.24-0.25c-0.08-0.08-0.16-0.16-0.24-0.24c-0.08-0.08-0.16-0.16-0.24-0.24c-0.08-0.08-0.17-0.16-0.25-0.24
		c-0.09-0.08-0.17-0.16-0.25-0.25c-0.09-0.08-0.17-0.17-0.26-0.25c-0.09-0.09-0.18-0.18-0.27-0.27c-0.09-0.1-0.17-0.2-0.24-0.31
		c-0.08-0.11-0.15-0.22-0.22-0.33c-0.08-0.1-0.15-0.21-0.22-0.32c-0.07-0.11-0.14-0.22-0.21-0.32c-0.07-0.1-0.15-0.2-0.23-0.3
		c-0.08-0.09-0.16-0.19-0.22-0.29c-0.04-0.07-0.08-0.14-0.12-0.21c-0.06-0.1-0.12-0.2-0.2-0.3c-0.08-0.09-0.15-0.19-0.22-0.29
		c-0.05-0.07-0.09-0.14-0.13-0.22c-0.06-0.11-0.12-0.22-0.18-0.34c-0.08-0.16-0.16-0.32-0.23-0.48c-0.08-0.22-0.15-0.44-0.17-0.68
		c0-0.1,0.04-0.18,0.11-0.25c0.16,0.04,0.32,0.08,0.48,0.13c0.09,0.03,0.17,0.08,0.24,0.14l-0.01,0c1.58,3.29,4.17,5.7,6.94,7.95
		c0.93,0.76,1.78,1.6,2.59,2.48c2,2.19,2.15,4.92,2.07,7.63c-0.09,3.31-0.54,6.58-1.26,9.82c-0.93,4.19-3.32,7.25-6.85,9.55
		c-2.92,1.89-6.13,3.06-9.5,3.74c-2.33,0.47-4.67,0.42-7.08-0.08c-4.32-0.9-7.74-3.24-10.6-6.31c-3.83-4.1-6.69-8.84-7.42-14.56
		c-0.22-1.73-0.15-3.5,0.04-5.26C459.49,270.12,459.79,267.75,459.06,265.41z"/>
	<path style="fill-rule:evenodd;clip-rule:evenodd;fill:#989597;" d="M460.51,263.74c0.16-0.16,0.32-0.32,0.48-0.48
		c0.64-0.06,0.68,0.5,0.78,0.86c0.82,2.85,1.24,5.73,0.91,8.73c-0.27,2.49-0.12,4.97,0.58,7.46c0.98,3.48,2.72,6.52,5.15,9.06
		c2.95,3.08,6.36,5.49,10.85,6c5.28,0.6,10-0.8,14.39-3.62c0.1-0.06,0.2-0.11,0.3-0.17c0.05-0.03,0.1-0.05,0.14-0.08
		c0.09-0.06,0.18-0.12,0.27-0.18c0.04-0.03,0.08-0.06,0.13-0.1c0.08-0.07,0.16-0.13,0.24-0.19c0.08-0.06,0.16-0.12,0.25-0.18
		c0.26-0.15,0.45-0.38,0.61-0.63c0.05-0.08,0.11-0.16,0.17-0.24c0.19-0.22,0.38-0.43,0.53-0.68c0.05-0.08,0.1-0.16,0.16-0.23
		c0.1-0.14,0.21-0.28,0.31-0.43c0.04-0.07,0.09-0.14,0.14-0.21c0.06-0.11,0.13-0.21,0.18-0.32c0.03-0.07,0.07-0.14,0.11-0.21
		c0.06-0.11,0.11-0.21,0.16-0.32c0.03-0.08,0.07-0.15,0.11-0.22c0.03-0.08,0.07-0.15,0.11-0.22c0.03-0.08,0.07-0.15,0.11-0.22
		c0.05-0.11,0.11-0.22,0.16-0.34c0.03-0.08,0.06-0.16,0.09-0.24c0.04-0.12,0.08-0.25,0.12-0.37c0.02-0.09,0.05-0.17,0.09-0.25
		c0.06-0.17,0.11-0.34,0.16-0.52c0.02-0.09,0.05-0.18,0.08-0.27c0.09-0.28,0.13-0.56,0.21-0.84c0.07-0.25,0.15-0.49,0.22-0.74
		c0.11-0.31,0.13-0.64,0.22-0.96c0.13-0.39,0.1-0.82,0.23-1.21c0.17-2.33,0.6-4.63,0.39-7c-0.22-2.59-1.39-4.59-3.17-6.37
		c-0.54-0.54-1.49-0.89-1.31-1.95c0.34-0.16,0.64-0.03,0.88,0.19c1.72,1.61,3.49,3.22,4.1,5.61c0.49,1.92,0.63,3.86,0.45,5.89
		c-0.23,2.55-0.57,5.04-1.25,7.5c-0.23,0.85-0.62,1.64-0.86,2.48c-2.54,5.39-7.25,7.76-12.72,8.94c-8.83,1.91-15.32-1.79-20.4-8.73
		c-2.14-2.92-3.48-6.19-4.06-9.74c-0.29-1.81-0.28-3.7-0.04-5.5c0.37-2.76-0.04-5.4-0.62-8.05
		C460.57,264.21,460.56,263.97,460.51,263.74z"/>
	<path style="fill-rule:evenodd;clip-rule:evenodd;fill:#878385;" d="M459.06,265.41c0.85,1.26,0.87,2.73,0.7,4.1
		c-0.61,4.88-0.75,9.68,1.44,14.26c1.96,4.1,4.49,7.77,8.1,10.62c1.92,1.52,3.98,2.86,6.31,3.57c3.07,0.93,6.23,1.17,9.41,0.35
		c4.37-1.13,8.44-2.8,11.74-6.05c2.47-2.43,3.53-5.46,4.08-8.72c0.45-2.66,0.85-5.35,0.93-8.03c0.12-3.72-0.9-7.01-4.1-9.45
		c-2.66-2.02-5.14-4.31-6.9-7.23c-0.25-0.42-0.51-0.81-0.47-1.33c0.08,0.02,0.17,0.04,0.25,0.06c0.09,0.06,0.18,0.11,0.27,0.17
		c0.07-0.02,0.14,0,0.2,0.04c0.17,1.67,1.34,2.79,2.39,3.87c1.92,1.96,4.02,3.75,6.04,5.61c1.84,1.7,2.58,3.81,2.64,6.3
		c0.09,4.13-0.38,8.19-1.27,12.19c-1.03,4.61-3.95,7.87-8,10.06c-3.81,2.07-7.86,3.51-12.29,3.46c-4.44-0.06-8.28-1.7-11.66-4.52
		c-4.2-3.5-7.13-7.89-9.04-12.99c-1.17-3.11-1.13-6.33-0.85-9.56c0.19-2.21,0.48-4.41-0.14-6.6
		C458.93,265.55,458.99,265.48,459.06,265.41z"/>
	<path style="fill-rule:evenodd;clip-rule:evenodd;fill:#9F9C9F;" d="M461.97,262.29c0.48,1.84,1.26,3.57,1.5,5.5
		c0.29,2.36,0.18,4.7,0.19,7.05c0.01,5.72,2.01,10.64,6.13,14.55c5.51,5.23,11.95,6.44,19.14,3.9c3-1.06,5.68-2.6,7.17-5.42
		c2.77-5.26,3.99-10.81,1.92-16.67c-0.68-1.92-2.43-3.02-3.62-4.55c0.44-0.3,0.75,0,1.05,0.26c2.84,2.41,4.38,5.41,4.13,9.2
		c-0.06,0.95,0.02,1.91-0.09,2.86c-0.02,0.12-0.05,0.24-0.07,0.36c-0.17,0.51-0.12,1.04-0.17,1.56c-0.01,0.11-0.04,0.22-0.06,0.33
		c-0.11,0.3-0.16,0.62-0.2,0.94c-0.01,0.1-0.04,0.2-0.07,0.3c-0.1,0.28-0.16,0.57-0.24,0.86c-0.07,0.22-0.14,0.45-0.22,0.67
		c-0.03,0.09-0.06,0.17-0.1,0.25c-0.07,0.16-0.12,0.33-0.17,0.5c-0.02,0.08-0.05,0.17-0.09,0.25c-0.06,0.16-0.11,0.33-0.16,0.5
		c-0.02,0.09-0.05,0.17-0.09,0.25c-0.04,0.13-0.08,0.25-0.13,0.38c-0.03,0.08-0.06,0.17-0.1,0.25c-0.05,0.12-0.11,0.24-0.17,0.35
		c-0.03,0.08-0.07,0.16-0.11,0.24c-0.04,0.08-0.08,0.16-0.12,0.23c-0.04,0.08-0.08,0.15-0.12,0.23c-0.04,0.08-0.08,0.15-0.12,0.23
		c-0.04,0.08-0.08,0.15-0.12,0.22c-0.06,0.11-0.12,0.23-0.18,0.34c-0.04,0.08-0.09,0.15-0.14,0.22c-0.05,0.07-0.11,0.14-0.17,0.21
		c-0.03,0.04-0.06,0.07-0.08,0.11c-0.11,0.15-0.21,0.31-0.3,0.48c-0.04,0.1-0.09,0.19-0.14,0.28c-0.08,0.16-0.16,0.3-0.27,0.44
		c-1.81,2.14-4.18,3.4-6.78,4.3c-3.65,1.27-7.39,1.73-11.18,0.88c-2.6-0.58-4.85-2.01-6.95-3.63c-2.61-2.02-4.52-4.6-6.02-7.5
		c-1.81-3.51-2.35-7.28-2.02-11.16c0.26-3.07-0.08-6.03-1.02-8.95c-0.12-0.37-0.38-0.72-0.15-1.14
		C461.66,262.6,461.82,262.44,461.97,262.29z"/>
	<path style="fill-rule:evenodd;clip-rule:evenodd;fill:#A8A5A8;" d="M498,272.4c0,0.08,0,0.16,0,0.24
		c0.22,0.19,0.01,0.53,0.24,0.72c0,0.08,0,0.16,0,0.24c0.32,0.61-0.09,1.31,0.24,1.92c0,0.16,0,0.32,0,0.48
		c-0.15,0.16-0.14,0.32,0,0.48v0c0.13,0.16,0.14,0.32,0,0.48c0,0.24,0,0.48,0,0.72c-0.33,0.61,0.08,1.31-0.24,1.92
		c-0.32,0.53,0.07,1.15-0.24,1.68c-0.27,0.27,0.02,0.68-0.24,0.96c-0.22,0.54-0.28,1.13-0.48,1.68c-0.24,0.56-0.5,1.11-0.72,1.68
		c-0.24,0.56-0.5,1.11-0.72,1.68c-0.22,0.33-0.51,0.62-0.72,0.96c-0.08,0.08-0.16,0.16-0.24,0.24c-0.08,0.08-0.16,0.16-0.24,0.24
		l0,0c-0.47,0.65-1.03,1.21-1.68,1.68l0,0c-0.49,0.3-1,0.58-1.44,0.96c-0.23,0.18-0.49,0.3-0.72,0.48c-3.65,1.48-7.44,2-11.33,1.52
		c-2.81-0.35-5.24-1.71-7.45-3.34c-3.94-2.92-6.43-6.84-7.07-11.74c-0.31-2.39-0.27-4.83-0.33-7.25c-0.07-3.08-0.66-6.08-2.13-8.85
		c-0.1-0.12-0.1-0.24-0.01-0.35c0.15-0.11,0.29-0.22,0.44-0.33c2.15,4.06,2.84,8.41,2.69,12.95c-0.1,2.99,0.41,5.91,1.74,8.57
		c2.39,4.77,6.19,8.01,11.46,9.14c4.57,0.98,9.1,0.49,13.2-1.83c2.49-1.4,3.76-3.94,4.72-6.56c1.22-3.35,1.65-6.82,0.98-10.34
		c-0.33-1.71-1.35-3.14-2.51-4.43c-0.8-0.89-1.65-1.74-2.47-2.6c0.16-0.15,0.32-0.13,0.48,0l0,0c0.08,0.08,0.16,0.16,0.24,0.24l0,0
		c0.08,0.08,0.16,0.16,0.24,0.24l0,0c0.08,0.08,0.16,0.16,0.24,0.24l0,0c0.08,0.08,0.16,0.16,0.24,0.24l0,0
		c0.08,0.08,0.16,0.16,0.24,0.24v0c0.65,0.47,1.21,1.03,1.68,1.68l0,0c0.08,0.08,0.16,0.16,0.24,0.24l0,0
		c0.18,0.23,0.3,0.5,0.48,0.72l0,0c0.18,0.23,0.3,0.5,0.48,0.72l0,0c0.14,0.13,0.09,0.35,0.24,0.48v0c0.14,0.13,0.1,0.35,0.24,0.48
		l0,0C497.9,272.05,497.85,272.28,498,272.4z"/>
	<path style="fill-rule:evenodd;clip-rule:evenodd;fill:#B4B2B4;" d="M463.92,260.68c0.24-0.17,0.48-0.34,0.72-0.51
		c1.08,1.41,1.59,3.09,2.28,4.69c1.28,3.01,1.19,6.22,1.44,9.39c0.21,2.72,0.3,5.44,1.62,7.99c1.53,2.95,3.8,4.96,6.71,6.39
		c0.36,0.18,0.74,0.31,1.08,0.5c1.04,0.64,2.17,0.98,3.4,0.93c0.61-0.02,1.18,0.16,1.77,0.21c3.12,0.27,5.99-0.57,8.7-2.04
		c1.86-1.02,2.52-3.02,3.63-4.64c0.22-0.32,0.2-0.91,0.83-0.84c0.33,0.39,0.08,0.74-0.06,1.11c-1.65,4.27-4.88,6.59-9.28,7.37
		c-5.96,1.06-11.27-0.27-15.64-4.6c-2.7-2.67-3.87-6.03-4.21-9.79c-0.25-2.7-0.19-5.42-0.61-8.11c-0.39-2.51-1.3-4.84-2.32-7.15
		c-0.08-0.18-0.17-0.36-0.19-0.57C463.79,260.9,463.84,260.78,463.92,260.68z"/>
	<path style="fill-rule:evenodd;clip-rule:evenodd;fill:#9C999C;" d="M461.5,262.75c1.15,2.55,1.51,5.29,1.6,8.02
		c0.05,1.53-0.14,3.09-0.13,4.65c0.02,4.78,1.73,8.92,4.69,12.62c2.35,2.95,5.34,5.03,8.79,6.38c2.8,1.1,5.8,1.01,8.72,0.49
		c3.53-0.63,6.87-1.79,9.51-4.39c0.33-0.33,0.62-0.71,0.93-1.08c0.09-0.07,0.16-0.16,0.24-0.24c0.18-0.23,0.3-0.49,0.48-0.72
		c0.08-0.08,0.16-0.16,0.24-0.24l0,0c0.15-0.13,0.1-0.35,0.24-0.48c0.15-0.13,0.1-0.35,0.24-0.48c0.15-0.13,0.1-0.35,0.24-0.48
		c0.14-0.13,0.1-0.35,0.24-0.48c0.22-0.19,0.03-0.53,0.24-0.72c0.22-0.19,0.03-0.52,0.24-0.72c0.22-0.19,0.03-0.52,0.24-0.72
		c0.13-0.05,0.23-0.02,0.32,0.09c0.03,0.3,0.12,0.6-0.08,0.87c-0.22,0.19-0.03,0.52-0.24,0.72c-0.22,0.19-0.03,0.52-0.24,0.72l0,0
		c-0.15,0.13-0.1,0.35-0.24,0.48c-0.15,0.13-0.1,0.35-0.24,0.48c-0.14,0.13-0.1,0.35-0.24,0.48c-0.15,0.13-0.1,0.35-0.24,0.48
		c-0.18,0.23-0.3,0.49-0.48,0.72c-0.22,0.33-0.51,0.62-0.72,0.96c-0.25,0.39-0.57,0.71-0.96,0.96l0,0
		c-0.08,0.08-0.16,0.16-0.24,0.24c-0.08,0.08-0.16,0.16-0.24,0.24c-0.08,0.08-0.17,0.15-0.24,0.24c-3.08,2.2-6.56,3.32-10.26,3.88
		c-4.57,0.69-8.66-0.49-12.36-3.13c-3.44-2.46-6-5.7-7.67-9.56c-1.46-3.37-1.94-6.89-1.48-10.6c0.39-3.14-0.02-6.25-1.39-9.17
		C461.16,263.09,461.33,262.92,461.5,262.75z"/>
	<path style="fill-rule:evenodd;clip-rule:evenodd;fill:#B9B7B9;" d="M477.6,289.44c-4.33-1.89-7.45-4.91-8.91-9.52
		c-0.55-1.74-0.56-3.54-0.64-5.3c-0.17-3.38-0.29-6.74-1.48-9.97c-0.56-1.53-1.61-2.85-1.93-4.49l0,0c0.06-0.07,0.14-0.13,0.23-0.17
		c0.07-0.04,0.15-0.07,0.22-0.11c1.89,3.93,3.56,7.87,3.45,12.41c-0.06,2.4,0.25,4.86,0.8,7.2c0.99,4.21,3.65,7.22,7.64,8.9
		c4.72,1.98,9.46,2.13,13.96-0.6c3.41-2.07,4.56-5.47,5.2-9.24c0.45-2.68-0.25-5-1.25-7.35c0.68-0.06,0.84,0.5,1.07,0.94
		c1.18,2.19,1.08,4.55,0.84,6.91c-0.29,2.91-1.67,5.39-3.37,7.68c-1.41,1.91-3.57,2.63-5.73,3.24c-3.12,0.88-6.23,0.6-9.29-0.32
		C478.13,289.57,477.83,289.64,477.6,289.44z"/>
	<path style="fill-rule:evenodd;clip-rule:evenodd;fill:#939092;" d="M460.51,263.74c1.07,1.77,1.06,3.78,1.21,5.73
		c0.1,1.29-0.11,2.61-0.21,3.92c-0.44,6.01,1.56,11.17,5.32,15.77c2.53,3.1,5.57,5.6,9.39,6.7c6.58,1.89,12.62,0.36,18.15-3.59
		c1.75-1.25,2.66-3.09,3.86-4.74c0.31,0.36,0.08,0.72-0.01,1.08c-0.07,0.2-0.17,0.38-0.28,0.57c-0.08,0.13-0.17,0.26-0.25,0.38
		c-0.12,0.17-0.23,0.34-0.34,0.51c-0.19,0.25-0.39,0.49-0.57,0.75c-0.09,0.13-0.18,0.24-0.29,0.36c-0.1,0.11-0.2,0.22-0.31,0.32
		c-0.1,0.11-0.21,0.21-0.32,0.32c-0.18,0.18-0.38,0.35-0.59,0.51c-0.47,0.31-0.83,0.76-1.31,1.07c-4.13,2.69-8.64,4.19-13.57,4.03
		c-3.33-0.1-6.41-1.29-9.13-3.2c-4.81-3.37-8.1-7.91-9.81-13.5c-0.8-2.6-0.94-5.31-0.62-8.06c0.28-2.34,0.21-4.7-0.3-7.03
		c-0.12-0.54-0.28-1.08-0.28-1.65C460.35,263.9,460.43,263.82,460.51,263.74z"/>
	<path style="fill-rule:evenodd;clip-rule:evenodd;fill:#938F92;" d="M460.27,263.98c0.89,1.41,0.87,3.02,0.99,4.59
		c0.15,1.95-0.19,3.9-0.19,5.84c0.01,9.25,4.45,16,12.22,20.6c4.92,2.92,10.16,2.57,15.41,0.68c1.92-0.69,3.67-1.7,5.46-2.64
		c0.02,0.06,0.03,0.13,0.05,0.19c-0.26,0.77-1,1.01-1.6,1.34c-3.4,1.89-7.03,3-10.92,3.31c-0.53,0.04-1.04,0.01-1.55-0.04
		c-4.48-0.45-8.34-2.2-11.6-5.36c-2.44-2.36-4.56-4.94-6.01-8c-1.63-3.43-2.54-6.98-2.14-10.88c0.31-3,0.52-6.07-0.42-9.04
		c-0.01-0.13,0.02-0.26,0.09-0.37C460.13,264.12,460.2,264.05,460.27,263.98z"/>
	<path style="fill-rule:evenodd;clip-rule:evenodd;fill:#938F92;" d="M498,288.72c0.08-0.4,0.16-0.8,0.24-1.2
		c0.46-1.64,1.04-3.27,1.34-4.94c0.67-3.71,1.36-7.47,0.1-11.18c-0.81-2.38-2.46-4.13-4.56-5.48c-2.11-1.16-3.54-3.03-5.04-4.84
		c-0.76-0.92-1.37-1.96-1.88-3.04c-0.19-0.41-0.51-0.87,0.01-1.29c0.14,0.03,0.28,0.05,0.42,0.08c0.09,0.06,0.16,0.17,0.28,0.18
		l-0.01-0.02c0.21,0.31,0.48,0.58,0.61,0.94c0.25,0.57,0.48,1.15,0.88,1.64c0.18,0.37,0.44,0.67,0.72,0.97
		c0.16,0.25,0.29,0.53,0.52,0.74c0.07,0.08,0.13,0.16,0.18,0.25c0.05,0.09,0.11,0.18,0.17,0.27c0.82,0.87,1.59,1.79,2.58,2.49
		c0.14,0.08,0.26,0.18,0.38,0.29c0.11,0.11,0.22,0.22,0.33,0.33c0.3,0.28,0.55,0.6,0.9,0.82c0.09,0.05,0.18,0.11,0.26,0.16
		c0.09,0.06,0.17,0.12,0.25,0.19c0.12,0.11,0.23,0.23,0.35,0.34c0.67,0.71,1.43,1.33,2.02,2.13c1.97,2.63,2.28,5.6,1.89,8.75
		c-0.26,2.04-0.27,4.11-0.78,6.12c-0.19,0.73-0.44,1.44-0.51,2.19c-0.4,1.09-0.65,2.26-1.48,3.15
		C498.12,288.74,498.06,288.73,498,288.72z"/>
	<path style="fill-rule:evenodd;clip-rule:evenodd;fill:#9E9B9D;" d="M499.2,279.12c-0.1-2.59,0.45-5.24-0.7-7.73
		c-0.91-1.98-2.19-3.63-4.1-4.75c-3.54-2.93-6.59-6.25-8.4-10.55c0.45-0.14,0.79,0.19,1.2,0.26c1.52,2.91,3.26,5.66,5.74,7.87
		c1.37,1.22,2.63,2.55,3.94,3.82c2.37,2.3,3.18,5.13,2.94,8.35c-0.07,0.91,0.02,1.83-0.29,2.71
		C499.42,279.2,499.31,279.21,499.2,279.12z"/>
	<path style="fill-rule:evenodd;clip-rule:evenodd;fill:#9A9597;" d="M499.44,279.12c0.16-1.78,0.34-3.54,0.12-5.34
		c-0.42-3.51-2.7-5.72-5.15-7.86c-2.86-2.51-5.51-5.19-7.03-8.77c-0.11-0.25-0.13-0.54-0.18-0.8c0.24,0.08,0.48,0.17,0.72,0.25
		c0.1,0.05,0.16,0.17,0.29,0.16l0.01-0.01c0.25,1.96,1.58,3.31,2.66,4.82c1.19,1.67,2.89,2.83,4.24,4.34
		c1.15,1.48,2.74,2.56,3.67,4.23c1.59,2.84,1.38,5.89,0.98,8.94c-0.1,0.73,0.2,1.53-0.33,2.19c-0.05-0.05-0.09-0.1-0.14-0.15
		C499.16,280.45,499.09,279.77,499.44,279.12z"/>
	<path style="fill-rule:evenodd;clip-rule:evenodd;fill:#7A7678;" d="M501.42,266.61c-2.77-1.82-5.27-3.96-7.53-6.38
		c-0.27-0.29-0.45-0.66-0.43-1.09C496.71,260.99,499.48,263.37,501.42,266.61z"/>
	<path style="fill-rule:evenodd;clip-rule:evenodd;fill:#A6A4A7;" d="M493.2,266.4c-0.16,0-0.32,0-0.48,0
		c-3.45-2.69-6.06-6.08-8.22-9.83c-0.13-0.22-0.1-0.53-0.15-0.79c0.31,0.03,0.62,0.06,0.93,0.09c0.09,0.05,0.12,0.09,0.09,0.14
		c-0.03,0.05-0.06,0.07-0.09,0.07c0.97,2.39,2.4,4.48,4.12,6.38C490.62,263.81,491.93,265.09,493.2,266.4z"/>
	<path style="fill-rule:evenodd;clip-rule:evenodd;fill:#7A7678;" d="M503.76,278.88c-0.64,0.39-0.27,1.21-0.72,1.68
		c0.34-3.62,0.73-7.23,0.26-10.87c0.65,0.87,1.02,1.86,1.26,2.91c-0.66,1.36-0.23,2.87-0.54,4.29
		C503.89,277.53,503.97,278.23,503.76,278.88z"/>
	<path style="fill-rule:evenodd;clip-rule:evenodd;fill:#646062;" d="M499.91,297.61c0.22-0.24,0.44-0.47,0.66-0.71
		c0.01,0.48-0.33,0.69-0.67,0.91c-0.02-0.04-0.04-0.07-0.06-0.11C499.85,297.67,499.88,297.64,499.91,297.61z"/>
	<path style="fill-rule:evenodd;clip-rule:evenodd;fill:#8F8B8D;" d="M489.36,258c-0.32-0.26-0.47-0.6-0.44-1.01
		c0.15,0.03,0.29,0.06,0.44,0.09c0.13,0.11,0.11,0.26,0.14,0.4c0.04,0.15,0.04,0.29-0.03,0.43
		C489.43,257.93,489.4,257.97,489.36,258z"/>
	<path style="fill-rule:evenodd;clip-rule:evenodd;fill:#736F71;" d="M505.68,277.92c0-0.24,0-0.48,0-0.72
		c0.06-0.08,0.12-0.08,0.18,0c0.02,0.32,0.04,0.64,0.05,0.96C505.84,278.08,505.76,278,505.68,277.92z"/>
	<path style="fill-rule:evenodd;clip-rule:evenodd;fill:#696567;" d="M453.82,277.63c0.01,0.18,0.01,0.35,0.02,0.53
		c-0.07,0.07-0.14,0.07-0.21,0C453.69,277.99,453.76,277.81,453.82,277.63z"/>
	<path style="fill-rule:evenodd;clip-rule:evenodd;fill:#9E9B9D;" d="M485.28,256.08c0-0.07,0-0.14,0-0.21
		c0.18,0.06,0.36,0.13,0.54,0.19C485.64,256.06,485.46,256.07,485.28,256.08z"/>
	<path style="fill-rule:evenodd;clip-rule:evenodd;fill:#8E8A8D;" d="M489.36,257.52c0-0.15,0-0.3,0-0.45
		c0.08,0.06,0.17,0.11,0.25,0.17c0,0.09-0.01,0.19-0.01,0.28c-0.04,0.03-0.08,0.06-0.12,0.09
		C489.44,257.58,489.4,257.55,489.36,257.52z"/>
	<path style="fill-rule:evenodd;clip-rule:evenodd;fill:#8B878A;" d="M459.59,264.71c0.07-0.09,0.15-0.17,0.22-0.26
		c0.04,0.02,0.08,0.04,0.11,0.06c0.02,0.09,0,0.17-0.05,0.25c-0.08,0.05-0.16,0.04-0.23-0.02L459.59,264.71z"/>
	<path style="fill-rule:evenodd;clip-rule:evenodd;fill:#7C787B;" d="M458.63,265.89c-0.05,0.08-0.1,0.17-0.15,0.25
		C458.53,266.06,458.58,265.98,458.63,265.89z"/>
	<path style="fill-rule:evenodd;clip-rule:evenodd;fill:#706C6E;" d="M453.63,278.16c0.07,0,0.14,0,0.21,0
		c-0.08,0.08-0.17,0.16-0.25,0.24C453.6,278.32,453.62,278.24,453.63,278.16z"/>
	<path style="fill-rule:evenodd;clip-rule:evenodd;fill:#6C686A;" d="M505.86,277.2l-0.09,0l-0.09,0c0.01-0.1,0.01-0.2,0.02-0.29
		C505.76,277.01,505.81,277.11,505.86,277.2z"/>
	<path style="fill-rule:evenodd;clip-rule:evenodd;fill:#696567;" d="M453.85,285.36c0.03,0.05,0.07,0.1,0.1,0.15
		c0.01,0.01-0.04,0.05-0.06,0.07C453.85,285.52,453.84,285.44,453.85,285.36z"/>
	<path style="fill-rule:evenodd;clip-rule:evenodd;fill:#7A7678;" d="M503.27,269.52c-0.07-0.1-0.14-0.21-0.21-0.31
		C503.13,269.31,503.2,269.42,503.27,269.52z"/>
	<path style="fill-rule:evenodd;clip-rule:evenodd;fill:#C0BDC0;" d="M474.23,255.91c-0.1,0.05-0.2,0.1-0.3,0.15
		C474.03,256.01,474.13,255.96,474.23,255.91z"/>
	<path style="fill-rule:evenodd;clip-rule:evenodd;fill:#8F8B8D;" d="M488.21,256.76c-0.1-0.05-0.19-0.11-0.29-0.16
		C488.02,256.65,488.12,256.7,488.21,256.76z"/>
	<path style="fill-rule:evenodd;clip-rule:evenodd;fill:#8F8B8D;" d="M488.93,257.01c-0.09-0.06-0.19-0.12-0.28-0.18
		C488.74,256.89,488.83,256.95,488.93,257.01z"/>
	<path style="fill-rule:evenodd;clip-rule:evenodd;fill:#848082;" d="M490.33,257.51c-0.08-0.05-0.16-0.1-0.24-0.14
		C490.17,257.42,490.25,257.47,490.33,257.51z"/>
	<path style="fill-rule:evenodd;clip-rule:evenodd;fill:#848082;" d="M490.84,257.75c-0.09-0.06-0.18-0.11-0.27-0.17
		C490.66,257.63,490.75,257.69,490.84,257.75z"/>
	<path style="fill-rule:evenodd;clip-rule:evenodd;fill:#7A7678;" d="M492.76,258.71c-0.09-0.06-0.18-0.12-0.27-0.18
		C492.58,258.59,492.67,258.65,492.76,258.71z"/>
	<path style="fill-rule:evenodd;clip-rule:evenodd;fill:#7A7678;" d="M493.23,258.95c-0.08-0.05-0.16-0.09-0.24-0.14
		C493.06,258.86,493.14,258.91,493.23,258.95z"/>
	<path style="fill-rule:evenodd;clip-rule:evenodd;fill:#B9B7B9;" d="M466.08,259.22c-0.09,0.07-0.18,0.14-0.27,0.21
		C465.9,259.35,465.99,259.29,466.08,259.22z"/>
	<path style="fill-rule:evenodd;clip-rule:evenodd;fill:#B4B2B4;" d="M465.59,259.51c-0.08,0.05-0.16,0.11-0.24,0.16
		C465.43,259.62,465.51,259.57,465.59,259.51z"/>
	<path style="fill-rule:evenodd;clip-rule:evenodd;fill:#7A7678;" d="M503.02,269.04c-0.07-0.1-0.14-0.2-0.2-0.3
		C502.89,268.84,502.96,268.94,503.02,269.04z"/>
	<path style="fill-rule:evenodd;clip-rule:evenodd;fill:#706C6E;" d="M453.86,276.72c0.02,0.06,0.05,0.12,0.06,0.18
		c0,0.02-0.06,0.04-0.09,0.06C453.84,276.88,453.85,276.8,453.86,276.72z"/>
	<path style="fill-rule:evenodd;clip-rule:evenodd;fill:#B4B2B4;" d="M464.87,259.99c-0.08,0.06-0.15,0.11-0.23,0.17
		C464.72,260.11,464.8,260.05,464.87,259.99z"/>
	<path style="fill-rule:evenodd;clip-rule:evenodd;fill:#7A7678;" d="M502.73,268.54c-0.05-0.09-0.1-0.18-0.16-0.27
		C502.63,268.36,502.68,268.45,502.73,268.54z"/>
	<path style="fill-rule:evenodd;clip-rule:evenodd;fill:#A8A5A8;" d="M463.92,260.68c0,0.07,0,0.14,0,0.21
		c-0.05,0.02-0.09,0.05-0.14,0.07c-0.04-0.03-0.08-0.06-0.12-0.09C463.75,260.8,463.84,260.74,463.92,260.68z"/>
	<path style="fill-rule:evenodd;clip-rule:evenodd;fill:#A8A5A8;" d="M463.41,261.09c0.08-0.08,0.17-0.15,0.25-0.23l0.04,0.05
		c0.02,0.18-0.05,0.25-0.23,0.23L463.41,261.09z"/>
	<path style="fill-rule:evenodd;clip-rule:evenodd;fill:#7A7678;" d="M502.01,267.34c-0.05-0.08-0.11-0.17-0.16-0.25
		C501.9,267.18,501.96,267.26,502.01,267.34z"/>
	<path style="fill-rule:evenodd;clip-rule:evenodd;fill:#B4B2B4;" d="M465.36,259.68c-0.09,0.07-0.19,0.15-0.28,0.22
		C465.17,259.82,465.26,259.75,465.36,259.68z"/>
	<path style="fill-rule:evenodd;clip-rule:evenodd;fill:#9F9C9F;" d="M462.47,261.83c0,0.08,0,0.17,0.01,0.25
		c-0.05,0.03-0.1,0.05-0.15,0.08c-0.04-0.04-0.08-0.08-0.13-0.11C462.3,261.98,462.39,261.9,462.47,261.83z"/>
	<path style="fill-rule:evenodd;clip-rule:evenodd;fill:#6C686A;" d="M502.58,293.86c0.09-0.11,0.17-0.22,0.26-0.33
		C502.76,293.64,502.67,293.75,502.58,293.86z"/>
	<path style="fill-rule:evenodd;clip-rule:evenodd;fill:#9F9C9F;" d="M462.24,262.32c-0.09-0.01-0.18-0.02-0.27-0.03
		c0.08-0.08,0.16-0.16,0.24-0.24l0.06,0.06c0.07,0.06,0.09,0.11,0.06,0.15C462.3,262.3,462.27,262.32,462.24,262.32z"/>
	<path style="fill-rule:evenodd;clip-rule:evenodd;fill:#6C686A;" d="M501.86,295.06c0.09-0.11,0.19-0.21,0.28-0.32
		C502.05,294.84,501.96,294.95,501.86,295.06z"/>
	<path style="fill-rule:evenodd;clip-rule:evenodd;fill:#7A7678;" d="M501.67,266.86c-0.09-0.09-0.19-0.18-0.28-0.27
		C501.48,266.68,501.57,266.77,501.67,266.86z"/>
	<path style="fill-rule:evenodd;clip-rule:evenodd;fill:#6C686A;" d="M501.38,295.78c0.09-0.11,0.18-0.22,0.27-0.32
		C501.56,295.56,501.47,295.67,501.38,295.78z"/>
	<path style="fill-rule:evenodd;clip-rule:evenodd;fill:#646062;" d="M501.14,296.22c0.05-0.09,0.1-0.18,0.15-0.28
		C501.23,296.03,501.19,296.12,501.14,296.22z"/>
	<path style="fill-rule:evenodd;clip-rule:evenodd;fill:#6C686A;" d="M500.66,296.74c0.11-0.11,0.21-0.21,0.32-0.32
		C500.87,296.53,500.77,296.63,500.66,296.74z"/>
	<path style="fill-rule:evenodd;clip-rule:evenodd;fill:#8E8A8D;" d="M460.06,264.19c0.01,0.1,0.01,0.19,0.02,0.29
		c-0.07,0.07-0.14,0.08-0.22,0.02l-0.05-0.04C459.9,264.37,459.98,264.28,460.06,264.19z"/>
	<path style="fill-rule:evenodd;clip-rule:evenodd;fill:#646062;" d="M499.66,298.02c0.01-0.06,0.02-0.13,0.03-0.19
		c0.05-0.07,0.11-0.08,0.19-0.03l0.01,0.01C499.81,297.88,499.74,297.95,499.66,298.02z"/>
	<path style="fill-rule:evenodd;clip-rule:evenodd;fill:#D2D0D2;" d="M472.5,275.44c0.17-2.46,0.57-4.93,0.42-7.37
		c-0.11-1.84,0.24-3.64,0.14-5.46c-0.07-1.24,1.48-2.09,2.69-1.72c4.99,1.53,9.1,4.55,12.91,7.92c2.49,2.2,4.71,4.75,4.56,8.54
		c-0.17,4.41-4.31,8.68-8.7,9c-3.46,0.25-6.61-0.32-9.1-2.84C473.24,281.3,472.34,278.55,472.5,275.44z"/>
	<path style="fill-rule:evenodd;clip-rule:evenodd;fill:#7A7678;" d="M502.8,283.2c-0.01,0.27,0.03,0.54-0.24,0.72
		C502.57,283.66,502.53,283.38,502.8,283.2z"/>
	<path style="fill-rule:evenodd;clip-rule:evenodd;fill:#6C686A;" d="M499.88,297.8c-0.06,0.02-0.12,0.03-0.19,0.03
		c0.07-0.07,0.14-0.15,0.21-0.22C499.91,297.67,499.9,297.74,499.88,297.8z"/>
	<path style="fill-rule:evenodd;clip-rule:evenodd;fill:#AFADB0;" d="M463.47,261.15c0.08-0.08,0.15-0.16,0.23-0.23
		c0.07-0.01,0.15-0.02,0.22-0.02c1.61,3.4,2.84,6.87,2.93,10.73c0.07,2.88,0.25,5.8,0.91,8.63c1.2,5.1,6.75,9.85,11.91,10.68
		c3.99,0.65,7.77,0.36,11.36-1.48c2.74-1.4,4.29-3.79,5.04-6.73c0-0.04,0-0.08,0-0.13c0.01-0.13,0.05-0.25,0.09-0.37
		c0.02-0.08,0.05-0.17,0.07-0.25c0.04-0.17,0.05-0.35,0.07-0.53c0.01-0.14,0.04-0.28,0.08-0.42c0.05-0.19,0.14-0.37,0.18-0.57
		c0.02-0.1,0.04-0.2,0.07-0.3c0.1-0.32,0.06-0.65,0.12-0.97c0.17-2.46,0.35-4.91-0.88-7.19c-0.45-0.84-0.94-1.64-1.61-2.33
		c-0.35-0.36-0.74-0.74-0.59-1.34c1.92,1.38,3.1,3.27,3.55,5.55c0.92,4.68-0.11,9.01-2.58,13.04c-1.75,2.87-4.66,3.95-7.67,4.6
		c-3.37,0.72-6.85,0.73-10.09-0.62c-5.5-2.29-9.03-6.24-10.15-12.31c-0.64-3.47-0.12-6.99-0.87-10.44
		C465.34,265.69,464.47,263.4,463.47,261.15z"/>
	<path style="fill-rule:evenodd;clip-rule:evenodd;fill:#B5B2B4;" d="M496.56,281.04c0,0.16,0,0.32,0,0.48
		c-0.23,0.19-0.02,0.52-0.24,0.72l0,0c-0.14,0.13-0.1,0.35-0.24,0.48l0,0c-1.4,2.43-2.44,5.14-5.3,6.38
		c-4.35,1.87-8.74,2.19-13.18,0.34c1.86,0.37,3.73,0.64,5.62,0.85c2.73,0.3,8.69-1.53,10.5-4.28c2.46-3.74,3.34-7.66,2.58-12
		c-0.18-1.04-0.56-2.07-1.41-2.82c-0.27-1.14-1.26-1.72-2.01-2.44c-3.89-3.78-7.85-7.49-11.17-11.8c-0.32-0.42-0.66-0.8-0.75-1.33
		c1.09-0.24,1.71,0.23,2.29,1.17c2.75,4.49,6.44,8.16,10.44,11.53c0.96,1.5,2.32,2.71,2.91,4.48c0.73,2.17,0.59,4.36,0.45,6.56
		c-0.27,0.27,0.02,0.68-0.24,0.96c0,0.08,0,0.16,0,0.24C496.65,280.68,496.71,280.91,496.56,281.04z"/>
	<path style="fill-rule:evenodd;clip-rule:evenodd;fill:#A6A4A7;" d="M462.24,262.32c0-0.07,0.01-0.14,0.03-0.21
		c0.07-0.02,0.14-0.03,0.21-0.03c1.35,2.08,1.82,4.43,2.16,6.83c0.49,3.39,0.01,6.84,0.7,10.22c1.08,5.33,4.11,9.18,8.74,11.91
		c4.85,2.87,9.93,2.61,15.11,1.21c0.54-0.14,1.07-0.28,1.61-0.43c-2.2,1.36-4.7,1.66-7.17,1.9c-6.62,0.65-11.63-2.39-15.6-7.33
		c-2.15-2.68-3.21-5.86-3.43-9.37c-0.24-3.78,0.08-7.62-0.91-11.34C463.37,264.5,462.88,263.38,462.24,262.32z"/>
	<path style="fill-rule:evenodd;clip-rule:evenodd;fill:#A6A4A7;" d="M496.08,269.28c-0.66-0.46-1.22-1.02-1.68-1.68
		C495.24,267.88,495.8,268.44,496.08,269.28z"/>
	<path style="fill-rule:evenodd;clip-rule:evenodd;fill:#A6A4A7;" d="M492.96,290.4c0.46-0.66,1.02-1.22,1.68-1.68
		C494.36,289.56,493.8,290.12,492.96,290.4z"/>
	<path style="fill-rule:evenodd;clip-rule:evenodd;fill:#A6A4A7;" d="M491.52,291.36c0.31-0.58,0.81-0.86,1.44-0.96
		C492.6,290.9,492.11,291.21,491.52,291.36z"/>
	<path style="fill-rule:evenodd;clip-rule:evenodd;fill:#A6A4A7;" d="M495.84,287.28c0-0.66,0.28-1.21,0.72-1.68
		C496.56,286.26,496.28,286.8,495.84,287.28z"/>
	<path style="fill-rule:evenodd;clip-rule:evenodd;fill:#A6A4A7;" d="M496.56,285.6c0-0.66,0.28-1.2,0.72-1.68
		C497.28,284.58,497,285.12,496.56,285.6z"/>
	<path style="fill-rule:evenodd;clip-rule:evenodd;fill:#A6A4A7;" d="M498.24,279.6c0.1-0.64-0.23-1.33,0.24-1.92
		C498.38,278.32,498.71,279.01,498.24,279.6z"/>
	<path style="fill-rule:evenodd;clip-rule:evenodd;fill:#A6A4A7;" d="M498.48,275.52c-0.47-0.59-0.14-1.28-0.24-1.92
		C498.71,274.19,498.38,274.88,498.48,275.52z"/>
	<path style="fill-rule:evenodd;clip-rule:evenodd;fill:#A6A4A7;" d="M497.28,283.92c-0.01-0.61,0.08-1.19,0.48-1.68
		C497.77,282.85,497.68,283.43,497.28,283.92z"/>
	<path style="fill-rule:evenodd;clip-rule:evenodd;fill:#A6A4A7;" d="M498,281.28c0.09-0.56-0.21-1.17,0.24-1.68
		C498.15,280.16,498.45,280.77,498,281.28z"/>
	<path style="fill-rule:evenodd;clip-rule:evenodd;fill:#A6A4A7;" d="M495.12,288.24c0.02-0.48,0.33-0.75,0.72-0.96
		C495.82,287.76,495.5,288.03,495.12,288.24z"/>
	<path style="fill-rule:evenodd;clip-rule:evenodd;fill:#A6A4A7;" d="M497.76,282.24c0.03-0.33-0.1-0.71,0.24-0.96
		C497.97,281.61,498.1,281.99,497.76,282.24z"/>
	<path style="fill-rule:evenodd;clip-rule:evenodd;fill:#A6A4A7;" d="M490.8,291.84c0.14-0.32,0.38-0.48,0.72-0.48
		C491.38,291.68,491.14,291.84,490.8,291.84z"/>
	<path style="fill-rule:evenodd;clip-rule:evenodd;fill:#A6A4A7;" d="M496.8,270.24c-0.32-0.14-0.48-0.38-0.48-0.72
		C496.64,269.66,496.8,269.9,496.8,270.24z"/>
	<path style="fill-rule:evenodd;clip-rule:evenodd;fill:#A6A4A7;" d="M497.28,270.96c-0.32-0.14-0.48-0.38-0.48-0.72
		C497.12,270.38,497.28,270.62,497.28,270.96z"/>
	<path style="fill-rule:evenodd;clip-rule:evenodd;fill:#A6A4A7;" d="M498.24,273.36c-0.27-0.18-0.23-0.46-0.24-0.72
		C498.27,272.82,498.23,273.1,498.24,273.36z"/>
	<path style="fill-rule:evenodd;clip-rule:evenodd;fill:#A6A4A7;" d="M498.48,276.48c-0.24-0.16-0.24-0.32,0-0.48
		C498.48,276.16,498.48,276.32,498.48,276.48z"/>
	<path style="fill-rule:evenodd;clip-rule:evenodd;fill:#A6A4A7;" d="M497.52,271.44c-0.08-0.16-0.16-0.32-0.24-0.48
		C497.36,271.12,497.44,271.28,497.52,271.44z"/>
	<path style="fill-rule:evenodd;clip-rule:evenodd;fill:#A6A4A7;" d="M498.48,276.96c0-0.16,0-0.32,0-0.48
		C498.72,276.64,498.72,276.8,498.48,276.96z"/>
	<path style="fill-rule:evenodd;clip-rule:evenodd;fill:#A6A4A7;" d="M497.76,271.92c-0.08-0.16-0.16-0.32-0.24-0.48
		C497.6,271.6,497.68,271.76,497.76,271.92z"/>
	<path style="fill-rule:evenodd;clip-rule:evenodd;fill:#A6A4A7;" d="M498,272.4c-0.08-0.16-0.16-0.32-0.24-0.48
		C497.84,272.08,497.92,272.24,498,272.4z"/>
	<path style="fill-rule:evenodd;clip-rule:evenodd;fill:#A6A4A7;" d="M496.32,269.52c-0.08-0.08-0.16-0.16-0.24-0.24
		C496.16,269.36,496.24,269.44,496.32,269.52z"/>
	<path style="fill-rule:evenodd;clip-rule:evenodd;fill:#A6A4A7;" d="M494.88,288.48c0.08-0.08,0.16-0.16,0.24-0.24
		C495.04,288.32,494.96,288.4,494.88,288.48z"/>
	<path style="fill-rule:evenodd;clip-rule:evenodd;fill:#A6A4A7;" d="M494.64,288.72c0.08-0.08,0.16-0.16,0.24-0.24
		C494.8,288.56,494.72,288.64,494.64,288.72z"/>
	<path style="fill-rule:evenodd;clip-rule:evenodd;fill:#A6A4A7;" d="M494.4,267.6c-0.08-0.08-0.16-0.16-0.24-0.24
		C494.24,267.44,494.32,267.52,494.4,267.6z"/>
	<path style="fill-rule:evenodd;clip-rule:evenodd;fill:#A6A4A7;" d="M494.16,267.36c-0.08-0.08-0.16-0.16-0.24-0.24
		C494,267.2,494.08,267.28,494.16,267.36z"/>
	<path style="fill-rule:evenodd;clip-rule:evenodd;fill:#A6A4A7;" d="M493.92,267.12c-0.08-0.08-0.16-0.16-0.24-0.24
		C493.76,266.96,493.84,267.04,493.92,267.12z"/>
	<path style="fill-rule:evenodd;clip-rule:evenodd;fill:#A6A4A7;" d="M493.68,266.88c-0.08-0.08-0.16-0.16-0.24-0.24
		C493.52,266.72,493.6,266.8,493.68,266.88z"/>
	<path style="fill-rule:evenodd;clip-rule:evenodd;fill:#A6A4A7;" d="M493.44,266.64c-0.08-0.08-0.16-0.16-0.24-0.24
		C493.28,266.48,493.36,266.56,493.44,266.64z"/>
	<path style="fill-rule:evenodd;clip-rule:evenodd;fill:#8F8B8D;" d="M499.44,285.84c0.52-2.84,1.03-5.68,1.29-8.58
		c0.28-3.09-0.01-5.93-1.87-8.5c-0.09-0.12-0.09-0.3-0.14-0.45c0.03-0.03,0.06-0.06,0.09-0.09c0.04,0,0.08,0,0.13-0.01
		c0.04,0.02,0.07,0.05,0.11,0.07c0.06,0.06,0.12,0.11,0.18,0.17c0.03,0.03,0.06,0.06,0.09,0.09c0.06,0.06,0.11,0.12,0.17,0.18
		c0.08,0.09,0.11,0.22,0.2,0.31l0,0c0.05,0.06,0.09,0.12,0.12,0.2c0.06,0.1,0.14,0.19,0.2,0.29c0.02,0.08,0.05,0.15,0.07,0.23
		c0.04,0.07,0.09,0.13,0.14,0.2c0.04,0.07,0.06,0.15,0.08,0.23c0.05,0.11,0.13,0.21,0.19,0.32c0.02,0.08,0.03,0.16,0.04,0.25
		c0.02,0.08,0.06,0.16,0.12,0.22c0.12,0.13,0.12,0.29,0.12,0.45c-0.04,0.23,0.12,0.39,0.22,0.57c0.03,0.21,0.02,0.42,0.02,0.63
		c0.03,0.25-0.09,0.53,0.12,0.75c0.19,1.36,0.19,2.72,0,4.08c0,0.08,0,0.16,0,0.24c-0.22,0.26-0.08,0.57-0.12,0.86
		c-0.04,0.35,0.11,0.73-0.12,1.06c0,0.08,0,0.16,0,0.24c-0.24,0.33-0.07,0.71-0.12,1.07c-0.04,0.36,0.11,0.75-0.12,1.09
		c-0.16,0.16-0.11,0.36-0.12,0.55c0,0.15,0,0.3-0.06,0.44c-0.16,0.16-0.19,0.36-0.17,0.57c-0.01,0.21,0.04,0.42-0.12,0.6l0,0
		c-0.16,0.16-0.11,0.36-0.12,0.55c0,0.15,0,0.29-0.12,0.41l0,0c-0.09,0.09-0.13,0.21-0.12,0.34c0,0.13,0,0.25-0.04,0.38
		c-0.06,0.07-0.13,0.1-0.22,0.09C499.5,285.9,499.47,285.87,499.44,285.84z"/>
	<path style="fill-rule:evenodd;clip-rule:evenodd;fill:#8E8A8D;" d="M460.32,278.88c-0.46-1.32-0.6-2.7-0.45-4.07
		c0.25-2.4,0.47-4.8,0.45-7.21c0.07,0,0.14,0,0.22,0c0.35,1.69,0.16,3.39,0.01,5.07c-0.18,2.02,0.02,4.03-0.08,6.04
		C460.42,278.77,460.37,278.83,460.32,278.88z"/>
	<path style="fill-rule:evenodd;clip-rule:evenodd;fill:#8E8A8D;" d="M486,297.36c-3.55,1.35-7.07,1.03-10.56-0.24
		c0.06-0.04,0.11-0.08,0.17-0.12c2.06,0.03,4,0.91,6.1,0.75c1.39-0.1,2.73-0.46,4.12-0.51C485.89,297.28,485.94,297.32,486,297.36z"
		/>
	<path style="fill-rule:evenodd;clip-rule:evenodd;fill:#8E8A8D;" d="M501.12,277.44c0-1.36,0-2.72,0-4.08
		C501.5,274.72,501.5,276.08,501.12,277.44z"/>
	<path style="fill-rule:evenodd;clip-rule:evenodd;fill:#8E8A8D;" d="M462.48,284.88c-0.9-0.75-0.95-1.86-1.2-2.88
		c0.06-0.01,0.11-0.03,0.17-0.04c0.54,0.86,0.88,1.81,1.14,2.78C462.55,284.79,462.52,284.83,462.48,284.88z"/>
	<path style="fill-rule:evenodd;clip-rule:evenodd;fill:#8E8A8D;" d="M470.88,294.72c-0.8-0.26-1.47-0.71-1.92-1.44
		c0.05-0.03,0.09-0.07,0.14-0.1c0.77,0.25,1.41,0.67,1.84,1.38C470.92,294.61,470.9,294.67,470.88,294.72z"/>
	<path style="fill-rule:evenodd;clip-rule:evenodd;fill:#8E8A8D;" d="M468.24,292.56c-0.76-0.2-1.24-0.68-1.44-1.44
		c0.06-0.02,0.11-0.04,0.17-0.06c0.63,0.25,1.08,0.69,1.33,1.33C468.28,292.45,468.26,292.5,468.24,292.56z"/>
	<path style="fill-rule:evenodd;clip-rule:evenodd;fill:#8E8A8D;" d="M475.44,297.12c-0.66,0-1.2-0.28-1.68-0.72
		c0.05-0.04,0.09-0.08,0.14-0.12C474.53,296.35,475.17,296.4,475.44,297.12z"/>
	<path style="fill-rule:evenodd;clip-rule:evenodd;fill:#8E8A8D;" d="M460.32,267.6c-0.47-0.59-0.14-1.28-0.24-1.92
		c0.07,0,0.14-0.01,0.2-0.01C460.47,266.31,460.76,266.95,460.32,267.6L460.32,267.6z"/>
	<path style="fill-rule:evenodd;clip-rule:evenodd;fill:#8E8A8D;" d="M466.56,290.88c-0.45-0.3-0.9-0.59-0.96-1.2
		c0.05-0.02,0.11-0.03,0.16-0.05c0.42,0.27,0.89,0.51,0.9,1.12C466.63,290.79,466.59,290.83,466.56,290.88z"/>
	<path style="fill-rule:evenodd;clip-rule:evenodd;fill:#8E8A8D;" d="M463.44,286.56c-0.48-0.25-0.64-0.71-0.72-1.2
		c0.06-0.02,0.11-0.03,0.16-0.05c0.46,0.23,0.6,0.65,0.66,1.12C463.51,286.47,463.48,286.52,463.44,286.56z"/>
	<path style="fill-rule:evenodd;clip-rule:evenodd;fill:#8E8A8D;" d="M489.12,296.4c-0.38,0.46-0.9,0.5-1.44,0.48
		c-0.01-0.05-0.03-0.11-0.04-0.16c0.42-0.25,0.84-0.5,1.36-0.43C489.04,296.33,489.08,296.36,489.12,296.4z"/>
	<path style="fill-rule:evenodd;clip-rule:evenodd;fill:#8E8A8D;" d="M473.28,296.16c-0.49-0.08-0.94-0.24-1.2-0.72
		c0.05-0.03,0.09-0.07,0.14-0.1c0.47,0.04,0.88,0.21,1.11,0.66C473.31,296.05,473.3,296.11,473.28,296.16z"/>
	<path style="fill-rule:evenodd;clip-rule:evenodd;fill:#8E8A8D;" d="M465.6,289.68c-0.38-0.21-0.7-0.48-0.72-0.96
		c0.05-0.02,0.11-0.03,0.16-0.05C465.38,288.92,465.93,289.06,465.6,289.68L465.6,289.68z"/>
	<path style="fill-rule:evenodd;clip-rule:evenodd;fill:#8E8A8D;" d="M496.32,292.08c-0.21,0.38-0.48,0.7-0.96,0.72
		c-0.02-0.05-0.04-0.1-0.06-0.15c0.01-0.23,0.15-0.4,0.31-0.55c0.08-0.07,0.17-0.13,0.28-0.16c0.11-0.02,0.21-0.01,0.32,0.03
		C496.24,292.01,496.28,292.04,496.32,292.08z"/>
	<path style="fill-rule:evenodd;clip-rule:evenodd;fill:#8E8A8D;" d="M461.28,282c-0.38-0.31-0.49-0.73-0.48-1.2
		c0.06-0.01,0.12-0.02,0.18-0.04C461.33,281.11,461.61,281.48,461.28,282L461.28,282z"/>
	<path style="fill-rule:evenodd;clip-rule:evenodd;fill:#8E8A8D;" d="M500.88,279.6c0-0.4,0-0.8,0-1.2c0.08-0.11,0.16-0.11,0.24,0
		C501.07,278.81,501.27,279.26,500.88,279.6z"/>
	<path style="fill-rule:evenodd;clip-rule:evenodd;fill:#8E8A8D;" d="M500.64,282c0-0.4,0-0.8,0-1.2c0.08-0.11,0.16-0.11,0.24,0
		C500.83,281.21,501.03,281.66,500.64,282z"/>
	<path style="fill-rule:evenodd;clip-rule:evenodd;fill:#8E8A8D;" d="M460.56,279.84c-0.34-0.25-0.21-0.63-0.24-0.96l0,0
		c0.65,0.03,0.45,0.46,0.37,0.82C460.65,279.75,460.6,279.79,460.56,279.84z"/>
	<path style="fill-rule:evenodd;clip-rule:evenodd;fill:#8E8A8D;" d="M460.8,280.8c-0.34-0.25-0.21-0.63-0.24-0.96l0,0
		C461.16,280.03,461.03,280.4,460.8,280.8L460.8,280.8z"/>
	<path style="fill-rule:evenodd;clip-rule:evenodd;fill:#8E8A8D;" d="M500.88,280.8c-0.08,0-0.16,0-0.24,0
		c0.03-0.33-0.1-0.71,0.24-0.96C500.88,280.16,500.88,280.48,500.88,280.8z"/>
	<path style="fill-rule:evenodd;clip-rule:evenodd;fill:#8E8A8D;" d="M464.88,288.72c-0.32-0.14-0.48-0.38-0.48-0.72
		c0.05-0.02,0.11-0.04,0.16-0.06C464.87,288.12,465.2,288.29,464.88,288.72L464.88,288.72z"/>
	<path style="fill-rule:evenodd;clip-rule:evenodd;fill:#8E8A8D;" d="M471.6,295.2c-0.34,0-0.58-0.16-0.72-0.48
		c0.43-0.32,0.6,0,0.77,0.32C471.63,295.09,471.62,295.15,471.6,295.2z"/>
	<path style="fill-rule:evenodd;clip-rule:evenodd;fill:#8E8A8D;" d="M486.96,297.12c-0.25,0.34-0.63,0.21-0.96,0.24
		c0.06-0.59,0.46-0.44,0.82-0.37C486.87,297.03,486.91,297.08,486.96,297.12z"/>
	<path style="fill-rule:evenodd;clip-rule:evenodd;fill:#8E8A8D;" d="M500.88,272.64c0-0.24,0-0.48,0-0.72
		c-0.07-0.05-0.09-0.11-0.07-0.16c0.02-0.05,0.04-0.08,0.07-0.08c0.34,0.25,0.21,0.63,0.24,0.96
		C501.04,272.75,500.96,272.75,500.88,272.64z"/>
	<path style="fill-rule:evenodd;clip-rule:evenodd;fill:#8E8A8D;" d="M500.4,282.96c0-0.16,0-0.32,0-0.48
		c0.08-0.11,0.16-0.11,0.24,0c-0.01,0.26,0.03,0.54-0.24,0.72c-0.07-0.05-0.09-0.11-0.07-0.16S500.38,282.96,500.4,282.96z"/>
	<path style="fill-rule:evenodd;clip-rule:evenodd;fill:#8E8A8D;" d="M500.88,272.64c0.08,0,0.16,0,0.24,0c0,0.24,0,0.48,0,0.72
		C500.85,273.18,500.89,272.9,500.88,272.64z"/>
	<path style="fill-rule:evenodd;clip-rule:evenodd;fill:#8E8A8D;" d="M489.6,257.52c0.27,0.18,0.23,0.46,0.24,0.72
		c-0.05,0.02-0.09,0.04-0.14,0.05c-0.17-0.06-0.21-0.2-0.21-0.36C489.49,257.79,489.47,257.63,489.6,257.52L489.6,257.52z"/>
	<path style="fill-rule:evenodd;clip-rule:evenodd;fill:#8E8A8D;" d="M460.08,265.68c-0.27-0.18-0.23-0.46-0.24-0.72
		c0.06-0.01,0.12-0.03,0.17-0.04C460.28,265.15,460.33,265.4,460.08,265.68L460.08,265.68z"/>
	<path style="fill-rule:evenodd;clip-rule:evenodd;fill:#8E8A8D;" d="M499.68,285.84c0-0.16,0-0.32,0-0.48
		c0.08-0.08,0.16-0.08,0.24,0c-0.01,0.26,0.03,0.54-0.24,0.72c-0.03-0.04-0.06-0.08-0.09-0.12
		C499.62,285.92,499.65,285.88,499.68,285.84z"/>
	<path style="fill-rule:evenodd;clip-rule:evenodd;fill:#8E8A8D;" d="M500.16,284.16c0-0.24,0-0.48,0-0.72
		c0.08-0.11,0.16-0.11,0.24,0C500.39,283.7,500.43,283.98,500.16,284.16z"/>
	<path style="fill-rule:evenodd;clip-rule:evenodd;fill:#8E8A8D;" d="M499.68,286.08c-0.01,0.26,0.03,0.54-0.24,0.72
		c-0.04-0.04-0.07-0.08-0.11-0.12c-0.02-0.22-0.03-0.43,0.08-0.63C499.51,285.98,499.6,285.99,499.68,286.08z"/>
	<path style="fill-rule:evenodd;clip-rule:evenodd;fill:#8E8A8D;" d="M501.12,278.4c-0.08,0-0.16,0-0.24,0
		c0.01-0.26-0.03-0.54,0.24-0.72C501.12,277.92,501.12,278.16,501.12,278.4z"/>
	<path style="fill-rule:evenodd;clip-rule:evenodd;fill:#8E8A8D;" d="M489.84,296.16c-0.18,0.27-0.46,0.23-0.72,0.24
		c-0.03-0.49,0.3-0.38,0.58-0.36C489.75,296.08,489.79,296.12,489.84,296.16z"/>
	<path style="fill-rule:evenodd;clip-rule:evenodd;fill:#8E8A8D;" d="M487.68,296.88c-0.18,0.27-0.46,0.23-0.72,0.24
		C487.04,296.55,487.36,296.72,487.68,296.88L487.68,296.88z"/>
	<path style="fill-rule:evenodd;clip-rule:evenodd;fill:#8E8A8D;" d="M499.92,269.76c0-0.08,0-0.16,0-0.24
		c-0.03-0.04-0.07-0.08-0.1-0.12c0.03-0.04,0.07-0.08,0.1-0.12c0.08,0.16,0.16,0.32,0.24,0.48c-0.04,0.03-0.08,0.06-0.12,0.09
		C500,269.82,499.96,269.79,499.92,269.76z"/>
	<path style="fill-rule:evenodd;clip-rule:evenodd;fill:#8E8A8D;" d="M500.64,282.48c-0.08,0-0.16,0-0.24,0
		c0.08-0.16,0.16-0.32,0.24-0.48C500.64,282.16,500.64,282.32,500.64,282.48z"/>
	<path style="fill-rule:evenodd;clip-rule:evenodd;fill:#8E8A8D;" d="M500.4,270.72c0-0.08,0-0.16,0-0.24
		c-0.03-0.04-0.07-0.08-0.1-0.12c0.03-0.04,0.07-0.08,0.1-0.12c0.08,0.16,0.16,0.32,0.24,0.48
		C500.56,270.8,500.48,270.8,500.4,270.72z"/>
	<path style="fill-rule:evenodd;clip-rule:evenodd;fill:#8E8A8D;" d="M489.84,258.24c0.08,0.16,0.16,0.32,0.24,0.48
		c-0.05,0.02-0.1,0.03-0.16,0.05C489.7,258.62,489.65,258.45,489.84,258.24L489.84,258.24z"/>
	<path style="fill-rule:evenodd;clip-rule:evenodd;fill:#8E8A8D;" d="M500.4,283.44c-0.08,0-0.16,0-0.24,0
		c0.08-0.16,0.16-0.32,0.24-0.48c0,0.08,0,0.16,0,0.24S500.4,283.36,500.4,283.44z"/>
	<path style="fill-rule:evenodd;clip-rule:evenodd;fill:#8E8A8D;" d="M491.28,260.4c0.08,0.16,0.16,0.32,0.24,0.48
		c-0.05,0.02-0.1,0.03-0.16,0.05c-0.1-0.05-0.17-0.13-0.2-0.24c0-0.05,0-0.11,0.01-0.16C491.21,260.48,491.24,260.44,491.28,260.4z"
		/>
	<path style="fill-rule:evenodd;clip-rule:evenodd;fill:#8E8A8D;" d="M500.16,270.24c0-0.08,0-0.16,0-0.24
		c-0.06-0.05-0.08-0.11-0.06-0.16c0.02-0.05,0.04-0.08,0.06-0.08l0,0c0.08,0.16,0.16,0.32,0.24,0.48l0,0
		C500.32,270.32,500.24,270.32,500.16,270.24z"/>
	<path style="fill-rule:evenodd;clip-rule:evenodd;fill:#8E8A8D;" d="M499.92,284.64c0.08-0.16,0.16-0.32,0.24-0.48
		c0,0.16,0,0.32,0,0.48C500.08,284.75,500,284.75,499.92,284.64z"/>
	<path style="fill-rule:evenodd;clip-rule:evenodd;fill:#8E8A8D;" d="M499.92,284.64c0.08,0,0.16,0,0.24,0
		c-0.08,0.16-0.16,0.32-0.24,0.48C499.92,284.96,499.92,284.8,499.92,284.64z"/>
	<path style="fill-rule:evenodd;clip-rule:evenodd;fill:#8E8A8D;" d="M462.72,285.36c-0.08-0.16-0.16-0.32-0.24-0.48l0,0
		C462.92,284.86,462.87,285.08,462.72,285.36L462.72,285.36z"/>
	<path style="fill-rule:evenodd;clip-rule:evenodd;fill:#8E8A8D;" d="M491.76,261.12c0.08,0.16,0.16,0.32,0.24,0.48
		c-0.04,0.03-0.08,0.06-0.12,0.09c-0.04-0.03-0.08-0.06-0.12-0.09l0,0c-0.06-0.07-0.11-0.15-0.12-0.24
		c0.01-0.05,0.02-0.09,0.02-0.14C491.69,261.18,491.73,261.15,491.76,261.12z"/>
	<path style="fill-rule:evenodd;clip-rule:evenodd;fill:#8E8A8D;" d="M463.68,287.04c-0.08-0.16-0.16-0.32-0.24-0.48l0,0
		c0.34-0.1,0.35,0.11,0.34,0.35C463.75,286.95,463.71,287,463.68,287.04z"/>
	<path style="fill-rule:evenodd;clip-rule:evenodd;fill:#8E8A8D;" d="M499.44,287.04c-0.08,0.16-0.16,0.32-0.24,0.48
		c-0.03-0.03-0.07-0.06-0.1-0.09c-0.04-0.08-0.05-0.17-0.04-0.26c0.03-0.09,0.08-0.16,0.16-0.21
		C499.31,286.93,499.39,286.96,499.44,287.04z"/>
	<path style="fill-rule:evenodd;clip-rule:evenodd;fill:#8E8A8D;" d="M464.16,287.76c-0.08-0.16-0.16-0.32-0.24-0.48
		c0.05-0.02,0.1-0.03,0.16-0.05c0.18,0.08,0.22,0.22,0.18,0.4C464.23,287.67,464.19,287.72,464.16,287.76z"/>
	<path style="fill-rule:evenodd;clip-rule:evenodd;fill:#8E8A8D;" d="M499.2,287.52c-0.08,0.16-0.16,0.32-0.24,0.48
		c-0.04-0.04-0.07-0.08-0.1-0.11c-0.06-0.16-0.03-0.3,0.08-0.43C499.04,287.42,499.13,287.44,499.2,287.52z"/>
	<path style="fill-rule:evenodd;clip-rule:evenodd;fill:#8E8A8D;" d="M498.96,288.24c-0.08,0.16-0.16,0.32-0.24,0.48
		c-0.03-0.03-0.07-0.06-0.1-0.09c-0.04-0.08-0.05-0.17-0.04-0.26c0.03-0.09,0.08-0.16,0.16-0.21
		C498.83,288.13,498.91,288.16,498.96,288.24z"/>
	<path style="fill-rule:evenodd;clip-rule:evenodd;fill:#8E8A8D;" d="M499.68,269.04c-0.08-0.08-0.16-0.16-0.24-0.24
		c-0.03-0.04-0.07-0.08-0.1-0.12c0.03-0.04,0.07-0.08,0.1-0.12C499.52,268.72,499.6,268.88,499.68,269.04z"/>
	<path style="fill-rule:evenodd;clip-rule:evenodd;fill:#8E8A8D;" d="M498.48,288.96c-0.08,0.16-0.16,0.32-0.24,0.48
		c-0.03-0.03-0.06-0.07-0.09-0.1c-0.03-0.09-0.03-0.18,0-0.27c0.05-0.08,0.12-0.14,0.21-0.17
		C498.4,288.92,498.44,288.94,498.48,288.96z"/>
	<path style="fill-rule:evenodd;clip-rule:evenodd;fill:#8E8A8D;" d="M498.24,289.44c-0.08,0.16-0.16,0.32-0.24,0.48
		c-0.03-0.03-0.06-0.06-0.1-0.09c-0.04-0.08-0.04-0.17-0.04-0.26c0.03-0.09,0.08-0.16,0.15-0.21
		C498.11,289.33,498.19,289.36,498.24,289.44z"/>
	<path style="fill-rule:evenodd;clip-rule:evenodd;fill:#8E8A8D;" d="M493.92,294c-0.16,0.08-0.32,0.16-0.48,0.24
		c-0.02-0.05-0.03-0.1-0.05-0.16c0.08-0.17,0.23-0.21,0.4-0.19C493.84,293.93,493.88,293.96,493.92,294z"/>
	<path style="fill-rule:evenodd;clip-rule:evenodd;fill:#8E8A8D;" d="M497.04,291.12c-0.08,0.16-0.16,0.32-0.24,0.48
		c-0.03-0.04-0.06-0.08-0.09-0.13c-0.03-0.17,0.02-0.31,0.18-0.39C496.94,291.09,496.99,291.11,497.04,291.12z"/>
	<path style="fill-rule:evenodd;clip-rule:evenodd;fill:#8E8A8D;" d="M500.64,271.44c0-0.16,0-0.32,0-0.48
		c0.08,0.16,0.16,0.32,0.24,0.48C500.8,271.55,500.72,271.55,500.64,271.44z"/>
	<path style="fill-rule:evenodd;clip-rule:evenodd;fill:#8E8A8D;" d="M494.64,293.52c-0.16,0.08-0.32,0.16-0.48,0.24
		c-0.02-0.05-0.03-0.1-0.05-0.16c0.08-0.17,0.22-0.22,0.4-0.18C494.55,293.45,494.6,293.49,494.64,293.52z"/>
	<path style="fill-rule:evenodd;clip-rule:evenodd;fill:#8E8A8D;" d="M493.2,294.48c-0.16,0.08-0.32,0.16-0.48,0.24
		c-0.02-0.05-0.03-0.1-0.05-0.16c0.08-0.17,0.23-0.21,0.4-0.19C493.12,294.41,493.16,294.44,493.2,294.48z"/>
	<path style="fill-rule:evenodd;clip-rule:evenodd;fill:#8E8A8D;" d="M500.64,271.44c0.08,0,0.16,0,0.24,0c0,0.08,0,0.16,0,0.24
		c0,0.08,0,0.16,0,0.24C500.8,271.76,500.72,271.6,500.64,271.44z"/>
	<path style="fill-rule:evenodd;clip-rule:evenodd;fill:#8E8A8D;" d="M492.72,294.72c-0.16,0.08-0.32,0.16-0.48,0.24
		c-0.02-0.05-0.03-0.1-0.05-0.16C492.34,294.58,492.51,294.53,492.72,294.72z"/>
	<path style="fill-rule:evenodd;clip-rule:evenodd;fill:#8E8A8D;" d="M497.76,290.16c-0.08,0.16-0.16,0.32-0.24,0.48
		c-0.03-0.03-0.06-0.07-0.09-0.1c-0.03-0.09-0.03-0.18,0-0.27c0.05-0.08,0.12-0.13,0.21-0.16
		C497.68,290.13,497.72,290.14,497.76,290.16z"/>
	<path style="fill-rule:evenodd;clip-rule:evenodd;fill:#8E8A8D;" d="M472.08,295.44c-0.16-0.08-0.32-0.16-0.48-0.24
		C471.88,295.05,472.1,295,472.08,295.44z"/>
	<path style="fill-rule:evenodd;clip-rule:evenodd;fill:#8E8A8D;" d="M491.76,295.2c-0.16,0.08-0.32,0.16-0.48,0.24
		c-0.02-0.05-0.03-0.1-0.05-0.16c0.08-0.17,0.23-0.21,0.4-0.19C491.68,295.13,491.72,295.17,491.76,295.2z"/>
	<path style="fill-rule:evenodd;clip-rule:evenodd;fill:#8E8A8D;" d="M491.28,295.44c-0.16,0.08-0.32,0.16-0.48,0.24
		c-0.02-0.05-0.03-0.1-0.05-0.16C490.9,295.3,491.07,295.25,491.28,295.44L491.28,295.44z"/>
	<path style="fill-rule:evenodd;clip-rule:evenodd;fill:#8E8A8D;" d="M490.8,295.68c-0.16,0.08-0.32,0.16-0.48,0.24
		c-0.02-0.05-0.03-0.1-0.05-0.16C490.42,295.54,490.59,295.49,490.8,295.68L490.8,295.68z"/>
	<path style="fill-rule:evenodd;clip-rule:evenodd;fill:#8E8A8D;" d="M490.32,295.92c-0.16,0.08-0.32,0.16-0.48,0.24l0,0
		C489.82,295.71,490.05,295.77,490.32,295.92z"/>
	<path style="fill-rule:evenodd;clip-rule:evenodd;fill:#8E8A8D;" d="M473.76,296.4c-0.16-0.08-0.32-0.16-0.48-0.24
		C473.56,296.01,473.78,295.96,473.76,296.4z"/>
	<path style="fill-rule:evenodd;clip-rule:evenodd;fill:#8E8A8D;" d="M492.24,294.96c-0.16,0.08-0.32,0.16-0.48,0.24l0,0
		C491.74,294.76,491.96,294.81,492.24,294.96z"/>
	<path style="fill-rule:evenodd;clip-rule:evenodd;fill:#8E8A8D;" d="M494.88,264.24c0.08,0.08,0.16,0.16,0.24,0.24
		c-0.03,0.03-0.07,0.06-0.1,0.09c-0.04,0-0.09,0-0.13-0.01c-0.03-0.03-0.06-0.06-0.09-0.09c0-0.04,0-0.09-0.01-0.13
		C494.82,264.31,494.85,264.27,494.88,264.24z"/>
	<path style="fill-rule:evenodd;clip-rule:evenodd;fill:#8E8A8D;" d="M495.12,264.48c0.08,0.08,0.16,0.16,0.24,0.24
		c-0.05,0.03-0.09,0.06-0.14,0.08c-0.05-0.02-0.1-0.04-0.15-0.06c-0.02-0.05-0.04-0.1-0.06-0.15
		C495.05,264.56,495.09,264.52,495.12,264.48L495.12,264.48z"/>
	<path style="fill-rule:evenodd;clip-rule:evenodd;fill:#8E8A8D;" d="M459.64,264.75c0.06-0.02,0.13-0.03,0.2-0.03
		c0.05,0.05,0.07,0.11,0.05,0.16c-0.02,0.05-0.04,0.08-0.05,0.08l0,0C459.77,264.89,459.71,264.82,459.64,264.75z"/>
	<path style="fill-rule:evenodd;clip-rule:evenodd;fill:#8E8A8D;" d="M495.36,264.72c0.08,0.08,0.16,0.16,0.24,0.24
		c-0.03,0.03-0.07,0.06-0.1,0.09c-0.1,0-0.17-0.03-0.23-0.11C495.24,264.84,495.27,264.77,495.36,264.72L495.36,264.72z"/>
	<path style="fill-rule:evenodd;clip-rule:evenodd;fill:#8E8A8D;" d="M495.6,264.96c0.08,0.08,0.16,0.16,0.24,0.24
		c-0.05,0.01-0.11,0.02-0.16,0.04c-0.07-0.05-0.11-0.1-0.11-0.17C495.57,265,495.58,264.96,495.6,264.96L495.6,264.96z"/>
	<path style="fill-rule:evenodd;clip-rule:evenodd;fill:#8E8A8D;" d="M495.84,265.2c0.08,0.08,0.16,0.16,0.24,0.24
		c-0.05,0.01-0.11,0.02-0.16,0.04c-0.07-0.05-0.11-0.1-0.11-0.17C495.81,265.24,495.82,265.2,495.84,265.2L495.84,265.2z"/>
	<path style="fill-rule:evenodd;clip-rule:evenodd;fill:#8E8A8D;" d="M496.08,265.44c0.08,0.08,0.16,0.16,0.24,0.24
		c-0.05,0.01-0.11,0.03-0.16,0.04c-0.07-0.05-0.11-0.11-0.1-0.17C496.05,265.48,496.06,265.44,496.08,265.44L496.08,265.44z"/>
	<path style="fill-rule:evenodd;clip-rule:evenodd;fill:#8E8A8D;" d="M496.32,265.68c0.08,0,0.16,0,0.24,0
		c0.06,0.08,0.06,0.16,0,0.24c-0.08,0.06-0.16,0.06-0.24,0l0,0c-0.08-0.05-0.11-0.11-0.08-0.16
		C496.27,265.71,496.29,265.68,496.32,265.68L496.32,265.68z"/>
	<path style="fill-rule:evenodd;clip-rule:evenodd;fill:#8E8A8D;" d="M496.56,265.92c0-0.08,0-0.16,0-0.24
		c0.08,0.08,0.16,0.16,0.24,0.24l-0.07,0.08l-0.11,0L496.56,265.92z"/>
	<path style="fill-rule:evenodd;clip-rule:evenodd;fill:#8E8A8D;" d="M496.8,265.92c0.08,0.08,0.16,0.16,0.24,0.24
		c-0.04,0.03-0.09,0.05-0.13,0.08c-0.05-0.02-0.1-0.04-0.15-0.06c-0.02-0.05-0.04-0.1-0.06-0.15
		C496.73,266,496.77,265.96,496.8,265.92L496.8,265.92z"/>
	<path style="fill-rule:evenodd;clip-rule:evenodd;fill:#8E8A8D;" d="M500.4,270.72c0.08,0,0.16,0,0.24,0c0,0.08,0,0.16,0,0.24
		C500.56,270.88,500.48,270.8,500.4,270.72z"/>
	<path style="fill-rule:evenodd;clip-rule:evenodd;fill:#8E8A8D;" d="M499.92,285.36c-0.08,0-0.16,0-0.24,0
		c0.08-0.08,0.16-0.16,0.24-0.24C499.92,285.2,499.92,285.28,499.92,285.36z"/>
	<path style="fill-rule:evenodd;clip-rule:evenodd;fill:#8E8A8D;" d="M499.44,287.04c-0.08,0-0.16,0-0.24,0
		c-0.07-0.23,0.01-0.31,0.24-0.24l0,0C499.44,286.88,499.44,286.96,499.44,287.04z"/>
	<path style="fill-rule:evenodd;clip-rule:evenodd;fill:#8E8A8D;" d="M463.92,287.28c-0.08-0.08-0.16-0.16-0.24-0.24l0,0
		C463.9,286.98,463.99,287.05,463.92,287.28L463.92,287.28z"/>
	<path style="fill-rule:evenodd;clip-rule:evenodd;fill:#8E8A8D;" d="M490.08,258.72c0.08,0.08,0.16,0.16,0.24,0.24
		c-0.09,0.08-0.18,0.09-0.28,0.04C489.98,258.89,489.99,258.8,490.08,258.72L490.08,258.72z"/>
	<path style="fill-rule:evenodd;clip-rule:evenodd;fill:#8E8A8D;" d="M490.08,258.96c0.08,0,0.16,0,0.24,0c0,0.08,0,0.16,0,0.24
		c-0.05,0.01-0.11,0.02-0.16,0.04c-0.07-0.05-0.11-0.1-0.11-0.17C490.05,259,490.06,258.96,490.08,258.96z"/>
	<path style="fill-rule:evenodd;clip-rule:evenodd;fill:#8E8A8D;" d="M499.68,269.28c0-0.08,0-0.16,0-0.24
		c0.08,0.08,0.16,0.16,0.24,0.24v0C499.84,269.36,499.76,269.36,499.68,269.28z"/>
	<path style="fill-rule:evenodd;clip-rule:evenodd;fill:#8E8A8D;" d="M490.32,259.2c0.08,0.08,0.16,0.16,0.24,0.24
		c-0.03,0.03-0.07,0.06-0.1,0.09c-0.1,0-0.17-0.03-0.23-0.11C490.2,259.32,490.24,259.25,490.32,259.2L490.32,259.2z"/>
	<path style="fill-rule:evenodd;clip-rule:evenodd;fill:#8E8A8D;" d="M464.4,288c-0.08-0.08-0.16-0.16-0.24-0.24l0,0
		C464.38,287.7,464.47,287.77,464.4,288L464.4,288z"/>
	<path style="fill-rule:evenodd;clip-rule:evenodd;fill:#8E8A8D;" d="M490.56,259.44c0.08,0.08,0.16,0.16,0.24,0.24
		c-0.04,0.03-0.09,0.06-0.13,0.09c-0.05-0.02-0.1-0.04-0.15-0.05C490.46,259.61,490.47,259.52,490.56,259.44L490.56,259.44z"/>
	<path style="fill-rule:evenodd;clip-rule:evenodd;fill:#8E8A8D;" d="M498.96,288.24c-0.08,0-0.16,0-0.24,0
		c-0.07-0.23,0.02-0.3,0.24-0.24l0,0C498.96,288.08,498.96,288.16,498.96,288.24z"/>
	<path style="fill-rule:evenodd;clip-rule:evenodd;fill:#8E8A8D;" d="M490.56,259.68c0.08,0,0.16,0,0.24,0c0,0.08,0,0.16,0,0.24
		c-0.05,0.01-0.11,0.02-0.16,0.04c-0.07-0.05-0.11-0.1-0.11-0.17C490.53,259.72,490.54,259.68,490.56,259.68z"/>
	<path style="fill-rule:evenodd;clip-rule:evenodd;fill:#8E8A8D;" d="M490.8,259.92c0.08,0.08,0.16,0.16,0.24,0.24
		c-0.05,0.01-0.11,0.02-0.16,0.04c-0.07-0.05-0.11-0.1-0.11-0.17C490.77,259.96,490.78,259.92,490.8,259.92L490.8,259.92z"/>
	<path style="fill-rule:evenodd;clip-rule:evenodd;fill:#8E8A8D;" d="M498.72,288.72c-0.08,0.08-0.16,0.16-0.24,0.24h0
		c-0.06-0.05-0.09-0.11-0.08-0.18c0.01-0.07,0.02-0.1,0.04-0.1C498.54,288.62,498.64,288.63,498.72,288.72L498.72,288.72z"/>
	<path style="fill-rule:evenodd;clip-rule:evenodd;fill:#8E8A8D;" d="M491.04,260.16c0.08,0.08,0.16,0.16,0.24,0.24l0,0
		c-0.08,0.09-0.17,0.1-0.28,0.04C490.94,260.34,490.95,260.24,491.04,260.16L491.04,260.16z"/>
	<path style="fill-rule:evenodd;clip-rule:evenodd;fill:#8E8A8D;" d="M499.2,268.32c0.08,0.08,0.16,0.16,0.24,0.24l0,0
		c-0.08,0.07-0.16,0.08-0.24,0c-0.03-0.04-0.06-0.08-0.09-0.12C499.14,268.4,499.17,268.36,499.2,268.32z"/>
	<path style="fill-rule:evenodd;clip-rule:evenodd;fill:#8E8A8D;" d="M498.96,268.08c0.08,0.08,0.16,0.16,0.24,0.24l0,0
		c-0.08,0.08-0.16,0.08-0.24,0c-0.03-0.04-0.06-0.08-0.09-0.12C498.9,268.16,498.93,268.12,498.96,268.08z"/>
	<path style="fill-rule:evenodd;clip-rule:evenodd;fill:#8E8A8D;" d="M498,289.92c-0.08,0.08-0.16,0.16-0.24,0.24l0,0
		c-0.05-0.06-0.08-0.12-0.07-0.18c0.01-0.06,0.02-0.1,0.04-0.1C497.83,289.82,497.92,289.83,498,289.92L498,289.92z"/>
	<path style="fill-rule:evenodd;clip-rule:evenodd;fill:#8E8A8D;" d="M498.72,267.84c0.08,0.08,0.16,0.16,0.24,0.24l0,0
		c-0.08,0.09-0.17,0.1-0.27,0.04c-0.02-0.05-0.04-0.1-0.06-0.15C498.67,267.93,498.69,267.88,498.72,267.84z"/>
	<path style="fill-rule:evenodd;clip-rule:evenodd;fill:#8E8A8D;" d="M498.48,267.6c0.08,0.08,0.16,0.16,0.24,0.24l0,0
		c-0.11,0.05-0.21,0.02-0.28-0.08C498.46,267.71,498.47,267.65,498.48,267.6z"/>
	<path style="fill-rule:evenodd;clip-rule:evenodd;fill:#8E8A8D;" d="M497.52,290.64c-0.08,0.08-0.16,0.16-0.24,0.24
		c-0.01-0.05-0.02-0.11-0.03-0.16C497.32,290.62,497.41,290.6,497.52,290.64L497.52,290.64z"/>
	<path style="fill-rule:evenodd;clip-rule:evenodd;fill:#8E8A8D;" d="M466.8,291.12c-0.08-0.08-0.16-0.16-0.24-0.24l0,0
		C466.78,290.82,466.85,290.91,466.8,291.12L466.8,291.12z"/>
	<path style="fill-rule:evenodd;clip-rule:evenodd;fill:#8E8A8D;" d="M497.28,290.88c-0.08,0.08-0.16,0.16-0.24,0.24l0,0
		C496.98,290.9,497.06,290.82,497.28,290.88z"/>
	<path style="fill-rule:evenodd;clip-rule:evenodd;fill:#8E8A8D;" d="M498.24,267.36c0.08,0.08,0.16,0.16,0.24,0.24l0,0
		c-0.11,0.05-0.21,0.02-0.28-0.08C498.22,267.47,498.23,267.41,498.24,267.36z"/>
	<path style="fill-rule:evenodd;clip-rule:evenodd;fill:#8E8A8D;" d="M491.52,260.88c0.08,0.08,0.16,0.16,0.24,0.24l0,0
		c-0.08,0.09-0.17,0.1-0.28,0.04C491.42,261.06,491.43,260.96,491.52,260.88L491.52,260.88z"/>
	<path style="fill-rule:evenodd;clip-rule:evenodd;fill:#8E8A8D;" d="M492,261.6c0.08,0.08,0.16,0.16,0.24,0.24
		c-0.06,0.01-0.11,0.03-0.17,0.04c-0.08-0.05-0.11-0.1-0.11-0.17C491.97,261.64,491.98,261.6,492,261.6L492,261.6z"/>
	<path style="fill-rule:evenodd;clip-rule:evenodd;fill:#8E8A8D;" d="M496.8,291.6c-0.08,0.08-0.16,0.16-0.24,0.24
		c-0.01-0.05-0.02-0.11-0.03-0.16C496.6,291.58,496.69,291.56,496.8,291.6L496.8,291.6z"/>
	<path style="fill-rule:evenodd;clip-rule:evenodd;fill:#8E8A8D;" d="M496.56,291.84c-0.08,0.08-0.16,0.16-0.24,0.24h0
		C496.26,291.86,496.35,291.79,496.56,291.84L496.56,291.84z"/>
	<path style="fill-rule:evenodd;clip-rule:evenodd;fill:#8E8A8D;" d="M498,267.12c0.08,0.08,0.16,0.16,0.24,0.24l0,0
		c-0.11,0.05-0.21,0.02-0.28-0.08C497.98,267.23,497.99,267.17,498,267.12z"/>
	<path style="fill-rule:evenodd;clip-rule:evenodd;fill:#8E8A8D;" d="M468.48,292.8c-0.08-0.08-0.16-0.16-0.24-0.24v0
		c0.11-0.04,0.2-0.01,0.27,0.08C468.5,292.69,468.49,292.75,468.48,292.8z"/>
	<path style="fill-rule:evenodd;clip-rule:evenodd;fill:#8E8A8D;" d="M468.72,293.04c-0.08-0.08-0.16-0.16-0.24-0.24l0,0
		c0.11-0.04,0.2-0.01,0.27,0.08C468.74,292.93,468.73,292.99,468.72,293.04z"/>
	<path style="fill-rule:evenodd;clip-rule:evenodd;fill:#8E8A8D;" d="M495.36,292.8c-0.08,0.08-0.16,0.16-0.24,0.24
		c-0.01-0.05-0.02-0.11-0.03-0.16C495.16,292.78,495.25,292.76,495.36,292.8L495.36,292.8z"/>
	<path style="fill-rule:evenodd;clip-rule:evenodd;fill:#8E8A8D;" d="M468.96,293.28c-0.08-0.08-0.16-0.16-0.24-0.24l0,0
		C468.93,292.99,469.02,293.06,468.96,293.28z"/>
	<path style="fill-rule:evenodd;clip-rule:evenodd;fill:#8E8A8D;" d="M495.12,293.04c-0.08,0.08-0.16,0.16-0.24,0.24
		c-0.01-0.05-0.02-0.11-0.03-0.16C494.92,293.02,495.01,293,495.12,293.04L495.12,293.04z"/>
	<path style="fill-rule:evenodd;clip-rule:evenodd;fill:#8E8A8D;" d="M497.76,266.88c0.08,0.08,0.16,0.16,0.24,0.24l0,0
		c-0.11,0.05-0.21,0.02-0.28-0.08C497.74,266.99,497.75,266.93,497.76,266.88z"/>
	<path style="fill-rule:evenodd;clip-rule:evenodd;fill:#8E8A8D;" d="M494.88,293.28c-0.08,0.08-0.16,0.16-0.24,0.24l0,0
		C494.58,293.3,494.66,293.22,494.88,293.28z"/>
	<path style="fill-rule:evenodd;clip-rule:evenodd;fill:#8E8A8D;" d="M494.16,293.76c-0.08,0.08-0.16,0.16-0.24,0.24
		C493.85,293.77,493.94,293.7,494.16,293.76L494.16,293.76z"/>
	<path style="fill-rule:evenodd;clip-rule:evenodd;fill:#8E8A8D;" d="M493.44,294.24c-0.08,0.08-0.16,0.16-0.24,0.24
		C493.13,294.25,493.22,294.18,493.44,294.24L493.44,294.24z"/>
	<path style="fill-rule:evenodd;clip-rule:evenodd;fill:#8E8A8D;" d="M492.24,261.84c0.08,0.08,0.16,0.16,0.24,0.24
		c-0.05,0.01-0.11,0.02-0.16,0.04c-0.07-0.05-0.11-0.1-0.11-0.17C492.21,261.88,492.22,261.84,492.24,261.84L492.24,261.84z"/>
	<path style="fill-rule:evenodd;clip-rule:evenodd;fill:#8E8A8D;" d="M492.48,262.08c0.08,0.08,0.16,0.16,0.24,0.24
		c-0.05,0.01-0.11,0.02-0.16,0.04c-0.07-0.05-0.11-0.1-0.11-0.17C492.45,262.12,492.46,262.08,492.48,262.08L492.48,262.08z"/>
	<path style="fill-rule:evenodd;clip-rule:evenodd;fill:#8E8A8D;" d="M492.72,262.32c0.08,0.08,0.16,0.16,0.24,0.24
		c-0.05,0.01-0.11,0.02-0.16,0.04c-0.07-0.05-0.11-0.1-0.11-0.17C492.69,262.36,492.7,262.32,492.72,262.32L492.72,262.32z"/>
	<path style="fill-rule:evenodd;clip-rule:evenodd;fill:#8E8A8D;" d="M492.96,262.56c0.08,0.08,0.16,0.16,0.24,0.24
		c-0.05,0.01-0.11,0.02-0.16,0.04c-0.07-0.05-0.11-0.1-0.11-0.17C492.93,262.6,492.94,262.56,492.96,262.56L492.96,262.56z"/>
	<path style="fill-rule:evenodd;clip-rule:evenodd;fill:#8E8A8D;" d="M493.2,262.8c0.08,0.08,0.16,0.16,0.24,0.24
		c-0.05,0.01-0.11,0.02-0.16,0.04c-0.07-0.05-0.11-0.1-0.11-0.17C493.17,262.84,493.18,262.8,493.2,262.8L493.2,262.8z"/>
	<path style="fill-rule:evenodd;clip-rule:evenodd;fill:#8E8A8D;" d="M493.44,263.04c0.08,0.08,0.16,0.16,0.24,0.24
		c-0.05,0.01-0.11,0.02-0.16,0.04c-0.07-0.05-0.11-0.1-0.11-0.17C493.41,263.08,493.42,263.04,493.44,263.04L493.44,263.04z"/>
	<path style="fill-rule:evenodd;clip-rule:evenodd;fill:#8E8A8D;" d="M493.68,263.28c0.08,0.08,0.16,0.16,0.24,0.24
		c-0.05,0.01-0.11,0.02-0.16,0.04c-0.07-0.05-0.11-0.1-0.11-0.17C493.65,263.32,493.66,263.28,493.68,263.28L493.68,263.28z"/>
	<path style="fill-rule:evenodd;clip-rule:evenodd;fill:#8E8A8D;" d="M493.92,263.52c0.08,0.08,0.16,0.16,0.24,0.24
		c-0.05,0.01-0.11,0.02-0.16,0.04c-0.07-0.05-0.11-0.1-0.11-0.17C493.89,263.56,493.9,263.52,493.92,263.52L493.92,263.52z"/>
	<path style="fill-rule:evenodd;clip-rule:evenodd;fill:#8E8A8D;" d="M494.16,263.76c0.08,0.08,0.16,0.16,0.24,0.24
		c-0.05,0.01-0.11,0.02-0.16,0.04c-0.07-0.05-0.11-0.1-0.11-0.17C494.13,263.8,494.14,263.76,494.16,263.76L494.16,263.76z"/>
	<path style="fill-rule:evenodd;clip-rule:evenodd;fill:#8E8A8D;" d="M494.4,264c0.08,0,0.16,0,0.24,0c0.07,0.1,0.06,0.18-0.03,0.26
		C494.42,264.27,494.31,264.21,494.4,264L494.4,264z"/>
	<path style="fill-rule:evenodd;clip-rule:evenodd;fill:#8E8A8D;" d="M497.52,266.64c0.08,0.08,0.16,0.16,0.24,0.24l0,0
		c-0.11,0.05-0.21,0.02-0.28-0.08C497.5,266.75,497.51,266.69,497.52,266.64z"/>
	<path style="fill-rule:evenodd;clip-rule:evenodd;fill:#8E8A8D;" d="M494.64,264.24c0-0.08,0-0.16,0-0.24
		c0.08,0.08,0.16,0.16,0.24,0.24l0,0c-0.04,0.03-0.08,0.07-0.12,0.1C494.72,264.31,494.68,264.27,494.64,264.24z"/>
	<path style="fill-rule:evenodd;clip-rule:evenodd;fill:#8E8A8D;" d="M497.28,266.4c0.08,0.08,0.16,0.16,0.24,0.24l0,0
		c-0.11,0.05-0.21,0.02-0.28-0.08C497.26,266.51,497.27,266.45,497.28,266.4z"/>
	<path style="fill-rule:evenodd;clip-rule:evenodd;fill:#8E8A8D;" d="M497.04,266.16c0.08,0.08,0.16,0.16,0.24,0.24h0
		c-0.08,0.09-0.17,0.1-0.28,0.04C496.94,266.33,496.95,266.24,497.04,266.16L497.04,266.16z"/>
	<path style="fill-rule:evenodd;clip-rule:evenodd;fill:#9A9597;" d="M494.88,291.12c0.32-0.32,0.64-0.64,0.96-0.96
		C495.77,290.73,495.45,291.05,494.88,291.12z"/>
	<path style="fill-rule:evenodd;clip-rule:evenodd;fill:#9A9597;" d="M495.84,290.16c0.02-0.48,0.34-0.75,0.72-0.96
		C496.54,289.68,496.22,289.95,495.84,290.16z"/>
	<path style="fill-rule:evenodd;clip-rule:evenodd;fill:#9A9597;" d="M499.44,281.28c-0.05,0.41,0.15,0.86-0.24,1.2
		c-0.05-0.05-0.09-0.09-0.14-0.14C499.01,281.92,498.74,281.43,499.44,281.28L499.44,281.28z"/>
	<path style="fill-rule:evenodd;clip-rule:evenodd;fill:#9A9597;" d="M499.2,282.48c-0.03,0.33,0.1,0.71-0.24,0.96
		c-0.04-0.05-0.09-0.09-0.13-0.14C498.75,282.94,498.56,282.52,499.2,282.48L499.2,282.48z"/>
	<path style="fill-rule:evenodd;clip-rule:evenodd;fill:#9A9597;" d="M496.56,289.2c0-0.34,0.16-0.58,0.48-0.72
		C497.04,288.82,496.88,289.06,496.56,289.2z"/>
	<path style="fill-rule:evenodd;clip-rule:evenodd;fill:#9A9597;" d="M498.48,285.12c0-0.32,0-0.64,0-0.96l0.07-0.07
		c0,0,0.1,0,0.1,0l0.07,0.07C498.69,284.49,498.82,284.87,498.48,285.12z"/>
	<path style="fill-rule:evenodd;clip-rule:evenodd;fill:#9A9597;" d="M498,286.56c0.01-0.26-0.03-0.54,0.24-0.72
		C498.23,286.1,498.27,286.38,498,286.56z"/>
	<path style="fill-rule:evenodd;clip-rule:evenodd;fill:#9A9597;" d="M498.24,285.84c0.01-0.26-0.03-0.54,0.24-0.72
		C498.47,285.38,498.51,285.66,498.24,285.84z"/>
	<path style="fill-rule:evenodd;clip-rule:evenodd;fill:#9A9597;" d="M498.96,283.44c-0.01,0.26,0.03,0.54-0.24,0.72l0,0
		c-0.17-0.14-0.22-0.33-0.18-0.54c0.04-0.09,0.09-0.18,0.16-0.25C498.8,283.33,498.89,283.36,498.96,283.44L498.96,283.44z"/>
	<path style="fill-rule:evenodd;clip-rule:evenodd;fill:#9A9597;" d="M497.76,287.04c0.08-0.16,0.16-0.32,0.24-0.48
		C497.92,286.72,497.84,286.88,497.76,287.04z"/>
	<path style="fill-rule:evenodd;clip-rule:evenodd;fill:#9A9597;" d="M497.52,287.52c0.08-0.16,0.16-0.32,0.24-0.48
		C497.68,287.2,497.6,287.36,497.52,287.52z"/>
	<path style="fill-rule:evenodd;clip-rule:evenodd;fill:#9A9597;" d="M497.28,288c0.08-0.16,0.16-0.32,0.24-0.48
		C497.44,287.68,497.36,287.84,497.28,288z"/>
	<path style="fill-rule:evenodd;clip-rule:evenodd;fill:#9A9597;" d="M497.04,288.48c0.08-0.16,0.16-0.32,0.24-0.48
		C497.2,288.16,497.12,288.32,497.04,288.48z"/>
	<path style="fill-rule:evenodd;clip-rule:evenodd;fill:#9A9597;" d="M494.4,291.6c0.08-0.08,0.16-0.16,0.24-0.24
		C494.56,291.44,494.48,291.52,494.4,291.6z"/>
	<path style="fill-rule:evenodd;clip-rule:evenodd;fill:#9A9597;" d="M494.16,291.84c0.08-0.08,0.16-0.16,0.24-0.24
		C494.32,291.68,494.24,291.76,494.16,291.84z"/>
	<path style="fill-rule:evenodd;clip-rule:evenodd;fill:#9A9597;" d="M494.64,291.36c0.08-0.08,0.16-0.16,0.24-0.24
		C494.8,291.2,494.72,291.28,494.64,291.36z"/>
	<path style="fill-rule:evenodd;clip-rule:evenodd;fill:#9C999C;" d="M498.96,283.44c-0.08,0-0.16,0-0.24,0
		c-0.18-0.32-0.18-0.64,0-0.96c0-0.08,0-0.16,0-0.24c0.27-0.27-0.02-0.69,0.24-0.96c0-0.08,0-0.16,0-0.24
		c0.32-0.53-0.07-1.15,0.24-1.68c0-0.08,0-0.16,0-0.24c0.08,0,0.16,0,0.24,0c0,0.72,0,1.44,0,2.16c-0.39,0.34-0.19,0.79-0.24,1.2
		C498.86,282.73,498.99,283.11,498.96,283.44z"/>
	<path style="fill-rule:evenodd;clip-rule:evenodd;fill:#9E9B9D;" d="M499.2,279.36c-0.09,0.56,0.21,1.17-0.24,1.68
		C499.05,280.48,498.75,279.87,499.2,279.36z"/>
	<path style="fill-rule:evenodd;clip-rule:evenodd;fill:#9E9B9D;" d="M498.96,281.28c-0.03,0.33,0.1,0.71-0.24,0.96
		C498.75,281.91,498.62,281.53,498.96,281.28z"/>
	<path style="fill-rule:evenodd;clip-rule:evenodd;fill:#9E9B9D;" d="M498.72,282.48c0,0.32,0,0.64,0,0.96
		c-0.04,0.03-0.08,0.06-0.12,0.09c-0.04-0.03-0.08-0.06-0.12-0.09C498.51,283.11,498.38,282.73,498.72,282.48z"/>
	<path style="fill-rule:evenodd;clip-rule:evenodd;fill:#9E9B9D;" d="M496.32,288.48c0,0.34-0.17,0.58-0.48,0.72
		C495.84,288.86,496,288.62,496.32,288.48z"/>
	<path style="fill-rule:evenodd;clip-rule:evenodd;fill:#9E9B9D;" d="M498.24,284.16c-0.01,0.26,0.03,0.54-0.24,0.72
		C498.01,284.62,497.97,284.34,498.24,284.16z"/>
	<path style="fill-rule:evenodd;clip-rule:evenodd;fill:#9E9B9D;" d="M497.76,285.6c-0.01,0.26,0.03,0.54-0.24,0.72
		C497.53,286.06,497.49,285.78,497.76,285.6z"/>
	<path style="fill-rule:evenodd;clip-rule:evenodd;fill:#9E9B9D;" d="M498.48,284.16c-0.08,0-0.16,0-0.24,0
		c0.01-0.26-0.03-0.54,0.24-0.72C498.65,283.68,498.65,283.92,498.48,284.16z"/>
	<path style="fill-rule:evenodd;clip-rule:evenodd;fill:#9E9B9D;" d="M498,284.88c-0.01,0.26,0.03,0.54-0.24,0.72
		C497.77,285.33,497.73,285.06,498,284.88z"/>
	<path style="fill-rule:evenodd;clip-rule:evenodd;fill:#9E9B9D;" d="M497.52,286.32c-0.08,0.16-0.16,0.32-0.24,0.48
		C497.36,286.64,497.44,286.48,497.52,286.32z"/>
	<path style="fill-rule:evenodd;clip-rule:evenodd;fill:#9E9B9D;" d="M497.28,286.8c-0.08,0.16-0.16,0.32-0.24,0.48
		C497.12,287.12,497.2,286.96,497.28,286.8z"/>
	<path style="fill-rule:evenodd;clip-rule:evenodd;fill:#9E9B9D;" d="M497.04,287.28c-0.08,0.16-0.16,0.32-0.24,0.48
		C496.88,287.6,496.96,287.44,497.04,287.28z"/>
	<path style="fill-rule:evenodd;clip-rule:evenodd;fill:#9E9B9D;" d="M496.8,287.76c-0.08,0.16-0.16,0.32-0.24,0.48
		C496.64,288.08,496.72,287.92,496.8,287.76z"/>
	<path style="fill-rule:evenodd;clip-rule:evenodd;fill:#9E9B9D;" d="M496.56,288.24c-0.08,0.08-0.16,0.16-0.24,0.24
		C496.4,288.4,496.48,288.32,496.56,288.24z"/>
	<path style="fill-rule:evenodd;clip-rule:evenodd;fill:#9E9B9D;" d="M495.84,289.2c-0.08,0.08-0.16,0.16-0.24,0.24
		C495.68,289.36,495.76,289.28,495.84,289.2z"/>
	<path style="fill-rule:evenodd;clip-rule:evenodd;fill:#938F92;" d="M494.16,293.04c0.3-0.45,0.59-0.9,1.2-0.96
		c0.02,0.05,0.04,0.11,0.06,0.16C495.06,292.61,494.94,293.34,494.16,293.04L494.16,293.04z"/>
	<path style="fill-rule:evenodd;clip-rule:evenodd;fill:#938F92;" d="M496.56,290.88c0.02-0.48,0.34-0.75,0.72-0.96
		c0.04,0.04,0.07,0.08,0.11,0.11c0.03,0.16,0.01,0.31-0.08,0.44c-0.18,0.18-0.34,0.4-0.6,0.47
		C496.65,290.92,496.61,290.9,496.56,290.88z"/>
	<path style="fill-rule:evenodd;clip-rule:evenodd;fill:#938F92;" d="M495.36,292.08c0.16-0.16,0.32-0.32,0.48-0.48
		c0.03,0.03,0.07,0.07,0.1,0.1c0.05,0.15,0.03,0.28-0.1,0.38l0,0C495.68,292.21,495.52,292.23,495.36,292.08
		C495.36,292.08,495.36,292.08,495.36,292.08z"/>
	<path style="fill-rule:evenodd;clip-rule:evenodd;fill:#938F92;" d="M497.76,289.2c0.08-0.16,0.16-0.32,0.24-0.48l0,0
		c0.08,0.06,0.13,0.15,0.13,0.25c-0.01,0.1-0.04,0.19-0.11,0.27c-0.05,0.01-0.1,0.03-0.14,0.04
		C497.84,289.26,497.8,289.23,497.76,289.2z"/>
	<path style="fill-rule:evenodd;clip-rule:evenodd;fill:#938F92;" d="M497.28,289.92c0.08-0.16,0.16-0.32,0.24-0.48
		c0.03,0.04,0.07,0.09,0.1,0.13C497.64,289.82,497.62,290.02,497.28,289.92L497.28,289.92z"/>
	<path style="fill-rule:evenodd;clip-rule:evenodd;fill:#938F92;" d="M497.52,289.44c0.08-0.08,0.16-0.16,0.24-0.24v0
		C497.85,289.45,497.74,289.5,497.52,289.44L497.52,289.44z"/>
	<path style="fill-rule:evenodd;clip-rule:evenodd;fill:#938F92;" d="M496.32,291.12c0.08-0.08,0.16-0.16,0.24-0.24l0,0
		c0.05,0.11,0.02,0.2-0.08,0.27C496.43,291.14,496.37,291.13,496.32,291.12z"/>
	<path style="fill-rule:evenodd;clip-rule:evenodd;fill:#938F92;" d="M496.08,291.36c0.08-0.08,0.16-0.16,0.24-0.24h0
		c0.04,0.11,0.01,0.2-0.08,0.27C496.19,291.38,496.13,291.37,496.08,291.36z"/>
	<path style="fill-rule:evenodd;clip-rule:evenodd;fill:#938F92;" d="M495.84,291.6c0.08-0.08,0.16-0.16,0.24-0.24l0,0
		C496.13,291.57,496.06,291.66,495.84,291.6L495.84,291.6z"/>
	<path style="fill-rule:evenodd;clip-rule:evenodd;fill:#8E8A8D;" d="M495.36,292.08c0.16,0,0.32,0,0.48,0
		c-0.16,0.24-0.32,0.48-0.48,0.72c-0.08,0.08-0.16,0.16-0.24,0.24s-0.16,0.16-0.24,0.24c-0.08,0.08-0.16,0.16-0.24,0.24
		c-0.16,0.08-0.32,0.16-0.48,0.24c-0.08,0.08-0.16,0.16-0.24,0.24c-0.16,0.08-0.32,0.16-0.48,0.24c-0.08,0.08-0.16,0.16-0.24,0.24
		c-0.16,0.08-0.32,0.16-0.48,0.24s-0.32,0.16-0.48,0.24c-0.16,0.08-0.32,0.16-0.48,0.24s-0.32,0.16-0.48,0.24
		c-0.16,0.08-0.32,0.16-0.48,0.24s-0.32,0.16-0.48,0.24c-0.16,0.08-0.32,0.16-0.48,0.24c-0.26,0.01-0.54-0.03-0.72,0.24
		c-0.53,0.02-1.02,0.13-1.44,0.48c-0.26,0.01-0.54-0.03-0.72,0.24c-0.33,0.03-0.71-0.1-0.96,0.24c-1.13,0.16-2.26,0.35-3.39,0.47
		c-2.43,0.25-4.79-0.3-7.17-0.71c-0.48-0.44-1.02-0.72-1.68-0.72c-0.16-0.08-0.32-0.16-0.48-0.24c-0.26-0.48-0.71-0.64-1.2-0.72
		c-0.16-0.08-0.32-0.16-0.48-0.24c-0.14-0.32-0.38-0.48-0.72-0.48c-0.5-0.67-1.14-1.14-1.92-1.44c-0.08-0.08-0.16-0.16-0.24-0.24
		s-0.16-0.16-0.24-0.24s-0.16-0.16-0.24-0.24c-0.39-0.57-0.86-1.05-1.44-1.44c-0.08-0.08-0.16-0.16-0.24-0.24
		c-0.06-0.61-0.51-0.9-0.96-1.2c-0.02-0.48-0.34-0.75-0.72-0.96c0-0.34-0.16-0.58-0.48-0.72c-0.08-0.08-0.16-0.16-0.24-0.24
		c-0.08-0.16-0.16-0.32-0.24-0.48c-0.08-0.08-0.16-0.16-0.24-0.24c-0.08-0.16-0.16-0.32-0.24-0.48c-0.08-0.49-0.24-0.94-0.72-1.2
		c-0.08-0.16-0.16-0.32-0.24-0.48c-0.41-0.96-0.53-2.03-1.2-2.88c0.01-0.47-0.1-0.89-0.48-1.2c-0.03-0.33,0.1-0.71-0.24-0.96
		c-0.03-0.33,0.1-0.71-0.24-0.96c-0.14-3.35,0.11-6.69,0.23-10.03c0.02-0.42,0.15-0.89-0.23-1.25c-0.1-0.64,0.23-1.33-0.24-1.92
		c-0.01-0.26,0.03-0.54-0.24-0.72c0-0.08,0-0.16,0-0.24c0-0.07,0.01-0.15,0.02-0.22c0.07-0.01,0.14-0.02,0.22-0.02
		c0.59,0.95,0.7,2.02,0.71,3.08c0.01,2.42,0.03,4.84-0.18,7.26c-0.24,2.85,0.44,5.63,1.59,8.23c2.5,5.63,6.3,10.17,11.92,12.88
		c3.63,1.76,7.51,2.12,11.48,1.05c2.71-0.73,5.34-1.6,7.71-3.14c0.34-0.22,0.68-0.42,0.86-0.8
		C494.77,292.98,495.06,292.53,495.36,292.08z"/>
	<path style="fill-rule:evenodd;clip-rule:evenodd;fill:#8F8B8D;" d="M494.4,264c0.08,0.08,0.16,0.16,0.24,0.24
		c0.04,0.04,0.07,0.08,0.11,0.12c-0.03,0.04-0.07,0.08-0.11,0.12c-1.25-0.67-2.21-1.63-2.88-2.88c0.08,0,0.16,0,0.24,0
		c0.08,0.08,0.16,0.16,0.24,0.24c0.08,0.08,0.16,0.16,0.24,0.24c0.08,0.08,0.16,0.16,0.24,0.24c0.08,0.08,0.16,0.16,0.24,0.24
		s0.16,0.16,0.24,0.24c0.08,0.08,0.16,0.16,0.24,0.24s0.16,0.16,0.24,0.24c0.08,0.08,0.16,0.16,0.24,0.24s0.16,0.16,0.24,0.24
		C494.24,263.84,494.32,263.92,494.4,264z"/>
	<path style="fill-rule:evenodd;clip-rule:evenodd;fill:#8F8B8D;" d="M498,289.2c0-0.16,0-0.32,0-0.48
		c0.48-0.96,0.96-1.92,1.44-2.88l0,0c0.07,0.05,0.09,0.11,0.07,0.16c-0.02,0.05-0.05,0.08-0.07,0.08c0,0.24,0,0.48,0,0.72
		c-0.08,0.08-0.16,0.16-0.24,0.24c0,0.08,0,0.16,0,0.24c-0.08,0.08-0.14,0.18-0.24,0.24c0,0.16,0,0.32,0,0.48
		c-0.08,0.08-0.16,0.16-0.24,0.24c0,0.08,0,0.16,0,0.24c-0.08,0.08-0.14,0.18-0.24,0.24c0,0.08,0,0.16,0,0.24
		c-0.08,0.08-0.16,0.16-0.24,0.24C498.16,289.3,498.08,289.3,498,289.2z"/>
	<path style="fill-rule:evenodd;clip-rule:evenodd;fill:#8F8B8D;" d="M497.04,266.4c0.08,0,0.16,0,0.24,0
		c0.08,0.08,0.16,0.16,0.24,0.24s0.16,0.16,0.24,0.24s0.16,0.16,0.24,0.24s0.16,0.16,0.24,0.24c0.08,0.08,0.16,0.16,0.24,0.24
		s0.16,0.16,0.24,0.24c0,0.08,0,0.16,0,0.24c0.07,0.05,0.09,0.11,0.07,0.16c-0.02,0.05-0.05,0.08-0.07,0.08l0,0
		c-0.74-0.54-1.38-1.18-1.92-1.92c0.04-0.04,0.08-0.07,0.12-0.11C496.96,266.33,497,266.36,497.04,266.4z"/>
	<path style="fill-rule:evenodd;clip-rule:evenodd;fill:#8F8B8D;" d="M490.32,259.2c0,0.08,0,0.16,0,0.24
		c0.04,0.04,0.07,0.08,0.11,0.12c-0.04,0.04-0.07,0.08-0.11,0.12c-0.6-0.4-0.79-1.04-0.96-1.68l0,0c0.08-0.11,0.16-0.11,0.24,0
		c0.08,0.08,0.16,0.16,0.24,0.24c0.08,0.16,0.16,0.32,0.24,0.48c0,0.08,0,0.16,0,0.24C490.16,259.04,490.24,259.12,490.32,259.2z"/>
	<path style="fill-rule:evenodd;clip-rule:evenodd;fill:#8F8B8D;" d="M496.32,265.68c0,0.08,0,0.16,0,0.24
		c-0.61-0.06-0.9-0.51-1.2-0.96c0.04-0.04,0.08-0.07,0.12-0.11c0.04,0.04,0.08,0.07,0.12,0.11c0.08,0,0.16,0,0.24,0
		c0.08,0.08,0.16,0.16,0.24,0.24s0.16,0.16,0.24,0.24S496.24,265.6,496.32,265.68z"/>
	<path style="fill-rule:evenodd;clip-rule:evenodd;fill:#8F8B8D;" d="M491.04,260.16c0,0.08,0,0.16,0,0.24
		c0.04,0.04,0.07,0.08,0.11,0.12c-0.04,0.04-0.07,0.08-0.11,0.12c-0.38-0.21-0.7-0.48-0.72-0.96l0,0c0.08-0.09,0.16-0.09,0.24,0
		c0.08,0.08,0.16,0.16,0.24,0.24S490.96,260.08,491.04,260.16z"/>
	<path style="fill-rule:evenodd;clip-rule:evenodd;fill:#8F8B8D;" d="M491.52,260.88c0,0.08,0,0.16,0,0.24
		c0.04,0.04,0.07,0.08,0.11,0.12c-0.04,0.04-0.07,0.08-0.11,0.12c-0.32-0.14-0.48-0.38-0.48-0.72l0,0c0.08-0.09,0.16-0.09,0.24,0
		C491.36,260.72,491.44,260.8,491.52,260.88z"/>
	<path style="fill-rule:evenodd;clip-rule:evenodd;fill:#8F8B8D;" d="M494.88,264.72c-0.08-0.08-0.16-0.16-0.24-0.24l0,0
		c0.08-0.09,0.16-0.09,0.24,0c0.04,0.04,0.07,0.08,0.11,0.12C494.95,264.64,494.92,264.68,494.88,264.72z"/>
	<path style="fill-rule:evenodd;clip-rule:evenodd;fill:#8F8B8D;" d="M495.12,264.96c-0.08-0.08-0.16-0.16-0.24-0.24l0,0
		c0.08-0.09,0.16-0.09,0.24,0c0.06,0.05,0.08,0.11,0.06,0.16S495.14,264.96,495.12,264.96L495.12,264.96z"/>
	<path style="fill-rule:evenodd;clip-rule:evenodd;fill:#8F8B8D;" d="M496.32,265.92c0.08,0,0.16,0,0.24,0
		c0.04,0.04,0.07,0.08,0.11,0.12c-0.03,0.04-0.07,0.08-0.11,0.12C496.48,266.08,496.4,266,496.32,265.92z"/>
	<path style="fill-rule:evenodd;clip-rule:evenodd;fill:#8F8B8D;" d="M496.8,266.4c-0.08-0.08-0.16-0.16-0.24-0.24l0,0
		c0.08-0.09,0.16-0.09,0.24,0c0.06,0.05,0.08,0.11,0.06,0.16C496.84,266.37,496.82,266.4,496.8,266.4L496.8,266.4z"/>
	<path style="fill-rule:evenodd;clip-rule:evenodd;fill:#8F8B8D;" d="M491.76,261.36c0,0.08,0,0.16,0,0.24
		c-0.08-0.08-0.16-0.16-0.24-0.24l0,0C491.6,261.27,491.68,261.27,491.76,261.36z"/>
	<path style="fill-rule:evenodd;clip-rule:evenodd;fill:#8E8A8D;" d="M489.6,258h-0.12h-0.12c0-0.16,0-0.32,0-0.48
		c0.08,0,0.16,0,0.24,0C489.6,257.68,489.6,257.84,489.6,258z"/>
	<path style="fill-rule:evenodd;clip-rule:evenodd;fill:#D7D4D6;" d="M491.76,276.86c0,4.31-3.06,7.54-7.37,8.31
		c-6.47,1.15-11.67-4.08-10.44-10.7c0.55-2.96,0.8-5.97,2.14-8.75c0.47-0.99,1-1.12,2.05-0.98c4.53,0.6,7.87,3.26,11.03,6.2
		C491.17,272.79,491.76,274.39,491.76,276.86z"/>
	<path style="fill-rule:evenodd;clip-rule:evenodd;fill:#B4B2B4;" d="M496.8,280.32c0.03-0.33-0.1-0.71,0.24-0.96
		C497.01,279.69,497.14,280.07,496.8,280.32z"/>
	<path style="fill-rule:evenodd;clip-rule:evenodd;fill:#B4B2B4;" d="M496.32,282.24c0.01-0.26-0.03-0.54,0.24-0.72
		C496.55,281.78,496.59,282.06,496.32,282.24z"/>
	<path style="fill-rule:evenodd;clip-rule:evenodd;fill:#B4B2B4;" d="M496.56,281.04c0.08-0.16,0.16-0.32,0.24-0.48
		C496.72,280.72,496.64,280.88,496.56,281.04z"/>
	<path style="fill-rule:evenodd;clip-rule:evenodd;fill:#B4B2B4;" d="M496.08,282.72c0.08-0.16,0.16-0.32,0.24-0.48
		C496.24,282.4,496.16,282.56,496.08,282.72z"/>
	<path style="fill-rule:evenodd;clip-rule:evenodd;fill:#8E8A8D;" d="M500.16,270.24c0.08,0,0.16,0,0.24,0c0,0.08,0,0.16,0,0.24
		C500.32,270.4,500.24,270.32,500.16,270.24z"/>
	<path style="fill-rule:evenodd;clip-rule:evenodd;fill:#8E8A8D;" d="M500.16,269.76c0,0.08,0,0.16,0,0.24
		c-0.08-0.08-0.16-0.16-0.24-0.24C500,269.76,500.08,269.76,500.16,269.76z"/>
	<path style="fill-rule:evenodd;clip-rule:evenodd;fill:#8E8A8D;" d="M499.68,269.28c0.08,0,0.16,0,0.24,0c0,0.08,0,0.16,0,0.24
		C499.84,269.44,499.76,269.36,499.68,269.28z"/>
	<path style="fill-rule:evenodd;clip-rule:evenodd;fill:#8E8A8D;" d="M499.44,286.08c0-0.08,0-0.16,0-0.24c0.08,0,0.16,0,0.24,0
		c0,0.08,0,0.16,0,0.24C499.6,286.08,499.52,286.08,499.44,286.08z"/>
	<path style="fill-rule:evenodd;clip-rule:evenodd;fill:#8E8A8D;" d="M499.2,268.56c0.08,0,0.16,0,0.24,0c0,0.08,0,0.16,0,0.24
		C499.36,268.72,499.28,268.64,499.2,268.56z"/>
	<path style="fill-rule:evenodd;clip-rule:evenodd;fill:#8E8A8D;" d="M498.96,268.32c0.08,0,0.16,0,0.24,0c0,0.08,0,0.16,0,0.24
		C499.12,268.48,499.04,268.4,498.96,268.32z"/>
	<path style="fill-rule:evenodd;clip-rule:evenodd;fill:#8E8A8D;" d="M498.72,268.32c0-0.08,0-0.16,0-0.24c0.08,0,0.16,0,0.24,0
		c0,0.08,0,0.16,0,0.24h-0.12H498.72z"/>
	<path style="fill-rule:evenodd;clip-rule:evenodd;fill:#8E8A8D;" d="M495.84,291.6c0.08-0.08,0.16-0.16,0.24-0.24
		s0.16-0.16,0.24-0.24s0.16-0.16,0.24-0.24c0.24-0.16,0.48-0.32,0.72-0.48c0.08-0.11,0.16-0.12,0.24,0c0,0.08,0,0.16,0,0.24
		c-0.08,0.08-0.16,0.16-0.24,0.24c-0.08,0.08-0.16,0.16-0.24,0.24c-0.08,0.16-0.16,0.32-0.24,0.48c-0.08,0.08-0.16,0.16-0.24,0.24
		s-0.16,0.16-0.24,0.24c-0.16,0-0.32,0-0.48,0C495.84,291.92,495.84,291.76,495.84,291.6z"/>
	<path style="fill-rule:evenodd;clip-rule:evenodd;fill:#8E8A8D;" d="M491.28,260.64c-0.08,0-0.16,0-0.24,0c0-0.08,0-0.16,0-0.24
		c0.08,0,0.16,0,0.24,0C491.28,260.48,491.28,260.56,491.28,260.64z"/>
	<path style="fill-rule:evenodd;clip-rule:evenodd;fill:#8E8A8D;" d="M491.76,261.36c-0.08,0-0.16,0-0.24,0c0-0.08,0-0.16,0-0.24
		c0.08,0,0.16,0,0.24,0C491.76,261.2,491.76,261.28,491.76,261.36z"/>
	<path style="fill-rule:evenodd;clip-rule:evenodd;fill:#8E8A8D;" d="M498.96,287.52c0.08-0.08,0.16-0.16,0.24-0.24
		c0,0.08,0,0.16,0,0.24C499.12,287.52,499.04,287.52,498.96,287.52z"/>
	<path style="fill-rule:evenodd;clip-rule:evenodd;fill:#8E8A8D;" d="M498.48,288.72c0.08-0.08,0.16-0.16,0.24-0.24
		c0,0.08,0,0.16,0,0.24C498.64,288.72,498.56,288.72,498.48,288.72z"/>
	<path style="fill-rule:evenodd;clip-rule:evenodd;fill:#8E8A8D;" d="M498,289.2c0.08,0,0.16,0,0.24,0c0,0.08,0,0.16,0,0.24
		c-0.08,0-0.16,0-0.24,0c-0.07-0.05-0.1-0.11-0.07-0.16C497.95,289.23,497.98,289.2,498,289.2z"/>
	<path style="fill-rule:evenodd;clip-rule:evenodd;fill:#8F8B8D;" d="M498,289.2c0,0.08,0,0.16,0,0.24c0,0.08,0,0.16,0,0.24
		c-0.08,0.08-0.14,0.18-0.24,0.24c0,0.08,0,0.16,0,0.24c-0.08,0.08-0.16,0.16-0.24,0.24c-0.08,0-0.16,0-0.24,0c0-0.16,0-0.32,0-0.48
		c0.08-0.16,0.16-0.32,0.24-0.48c0.08-0.08,0.16-0.16,0.24-0.24C497.84,289.2,497.92,289.2,498,289.2z"/>
	<path style="fill-rule:evenodd;clip-rule:evenodd;fill:#8E8A8D;" d="M497.76,289.92c0.08-0.08,0.16-0.16,0.24-0.24
		c0,0.08,0,0.16,0,0.24C497.92,289.92,497.84,289.92,497.76,289.92z"/>
	<path style="fill-rule:evenodd;clip-rule:evenodd;fill:#8E8A8D;" d="M494.88,264.48c-0.08,0-0.16,0-0.24,0c0-0.08,0-0.16,0-0.24
		c0.08,0,0.16,0,0.24,0C494.88,264.32,494.88,264.4,494.88,264.48z"/>
	<path style="fill-rule:evenodd;clip-rule:evenodd;fill:#8E8A8D;" d="M495.12,264.72c-0.08,0-0.16,0-0.24,0c0-0.08,0-0.16,0-0.24
		c0.08,0,0.16,0,0.24,0C495.12,264.56,495.12,264.64,495.12,264.72z"/>
	<path style="fill-rule:evenodd;clip-rule:evenodd;fill:#8E8A8D;" d="M495.12,264.96c0-0.08,0-0.16,0-0.24c0.08,0,0.16,0,0.24,0
		c0,0.08,0,0.16,0,0.24h-0.12H495.12z"/>
	<path style="fill-rule:evenodd;clip-rule:evenodd;fill:#8E8A8D;" d="M496.8,266.16c-0.08,0-0.16,0-0.24,0c0-0.08,0-0.16,0-0.24
		c0.08,0,0.16,0,0.24,0C496.8,266,496.8,266.08,496.8,266.16z"/>
	<path style="fill-rule:evenodd;clip-rule:evenodd;fill:#8E8A8D;" d="M496.8,266.4c0-0.08,0-0.16,0-0.24c0.08,0,0.16,0,0.24,0
		c0,0.08,0,0.16,0,0.24h-0.12H496.8z"/>
	<path style="fill-rule:evenodd;clip-rule:evenodd;fill:#8E8A8D;" d="M490.56,259.68c-0.08,0-0.16,0-0.24,0c0-0.08,0-0.16,0-0.24
		c0.08,0,0.16,0,0.24,0C490.56,259.52,490.56,259.6,490.56,259.68z"/>
	<path style="fill-rule:evenodd;clip-rule:evenodd;fill:#9C999C;" d="M498.48,284.16c0-0.24,0-0.48,0-0.72c0.08,0,0.16,0,0.24,0
		c0,0.24,0,0.48,0,0.72C498.64,284.16,498.56,284.16,498.48,284.16z"/>
	<path style="fill-rule:evenodd;clip-rule:evenodd;fill:#DBD9DB;" d="M482.54,284.4c-4.91,0.24-9-4.17-7.51-10.21
		c0.38-1.55,0.87-3.04,1.51-4.51c1.33-3.06,2.93-3.17,5.83-2.11c2.66,0.97,4.98,2.66,6.85,4.98c2.88,3.58,1.06,9.04-2.47,10.77
		C485.33,284.01,484,284.49,482.54,284.4z"/>
	<path style="fill-rule:evenodd;clip-rule:evenodd;fill:#E0DFE1;" d="M482.31,283.44c-4.83,0-7.74-4.61-5.95-9.3
		c0.57-1.49,1.42-2.76,2.42-3.94c0.74-0.87,1.71-0.87,2.82-0.71c2.09,0.3,3.85,1.17,5.37,2.57c1.87,1.72,2.92,5.12,1.92,7.25
		C487.74,281.76,485.23,283.44,482.31,283.44z"/>
	<path style="fill-rule:evenodd;clip-rule:evenodd;fill:#E2E1E2;" d="M482.14,282.72c-3.02,0-5.61-2.5-5.48-5.45
		c0.14-2.99,2.15-6.49,4.78-6.36c3.43,0.17,6.72,3.05,6.71,6.2C488.16,280.3,485.55,282.72,482.14,282.72z"/>
	<path style="fill-rule:evenodd;clip-rule:evenodd;fill:#E9E9EA;" d="M486.48,277.32c-0.02,2.3-2.05,4.29-4.41,4.3
		c-2.31,0.01-4.23-2.16-4.03-4.28c0.2-2.15,2.03-4.49,3.96-4.39C484.62,273.08,486.81,275.32,486.48,277.32z"/>
</g>
</svg>
