<?xml version="1.0" encoding="utf-8"?>
<!-- Generator: Adobe Illustrator 16.0.0, SVG Export Plug-In . SVG Version: 6.00 Build 0)  -->
<!DOCTYPE svg PUBLIC "-//W3C//DTD SVG 1.0//EN" "http://www.w3.org/TR/2001/REC-SVG-20010904/DTD/svg10.dtd" [
	<!ENTITY ns_flows "http://ns.adobe.com/Flows/1.0/">
	<!ENTITY ns_extend "http://ns.adobe.com/Extensibility/1.0/">
	<!ENTITY ns_ai "http://ns.adobe.com/AdobeIllustrator/10.0/">
	<!ENTITY ns_graphs "http://ns.adobe.com/Graphs/1.0/">
]>
<svg version="1.0" id="Layer_1" xmlns:x="&ns_extend;" xmlns:i="&ns_ai;" xmlns:graph="&ns_graphs;"
	 xmlns="http://www.w3.org/2000/svg" xmlns:xlink="http://www.w3.org/1999/xlink" xmlns:a="http://ns.adobe.com/AdobeSVGViewerExtensions/3.0/"
	 x="0px" y="0px" width="960px" height="560px" viewBox="0 0 960 560" style="enable-background:new 0 0 960 560;"
	 xml:space="preserve">
<g>
	<path style="fill-rule:evenodd;clip-rule:evenodd;fill:#010000;" d="M479.46,303.89c-15.15,0-30.31,0-45.46,0
		c-1.56,0-2.06-0.85-1.41-2.32c5.15-11.52,10.29-23.05,15.42-34.58c1.32-2.97,2.78-5.89,3.88-8.94c0.56-1.56,1.39-1.66,2.75-1.65
		c16.83,0.04,33.67,0.04,50.5,0c1.11,0,1.49,0.26,1.9,1.42c1.03,2.91,2.43,5.69,3.7,8.51c3.09,6.89,6.2,13.77,9.28,20.67
		c2.17,4.84,4.29,9.7,6.46,14.54c0.69,1.54,0.22,2.35-1.44,2.35C509.85,303.89,494.66,303.89,479.46,303.89z"/>
	<path style="fill-rule:evenodd;clip-rule:evenodd;fill:#E8E8E9;" d="M479.48,302c-14.6,0-29.19-0.01-43.79,0.03
		c-1.13,0-1.18-0.28-0.78-1.18c3.58-7.98,7.12-15.98,10.7-23.97c2.51-5.61,5.21-11.15,7.48-16.85c0.68-1.7,1.49-1.72,2.85-1.72
		c15.96,0.02,31.91,0.02,47.87,0c1.06,0,1.62,0.14,2.08,1.31c1.58,3.93,3.38,7.77,5.11,11.65c4.42,9.91,8.84,19.82,13.27,29.73
		c0.39,0.88,0.18,1.04-0.76,1.04C508.84,301.99,494.16,302,479.48,302z"/>
</g>
</svg>
