<?xml version="1.0" encoding="utf-8"?>
<!-- Generator: Adobe Illustrator 16.0.0, SVG Export Plug-In . SVG Version: 6.00 Build 0)  -->
<!DOCTYPE svg PUBLIC "-//W3C//DTD SVG 1.1//EN" "http://www.w3.org/Graphics/SVG/1.1/DTD/svg11.dtd">
<svg version="1.1" id="Layer_1" xmlns="http://www.w3.org/2000/svg" xmlns:xlink="http://www.w3.org/1999/xlink" x="0px" y="0px"
	 width="960px" height="560px" viewBox="0 0 960 560" enable-background="new 0 0 960 560" xml:space="preserve">
<path fill="#231F20" d="M528.99,272.01c0-0.38-0.03-0.7-0.58-0.68c-4.29,0.15-8.53-0.49-12.79-0.73c-2.36-0.13-4.86-0.47-6.13,2.34
	c-0.271,0.6-0.601,0.53-1.061,0.07c-1.34-1.34-3.029-1.56-4.79-1.19c-1.729,0.36-1.949,0.22-1.97-1.6c-0.02-1.04,0.4-1.94,0.84-2.83
	c0.641-1.28,1.33-2.54,1.92-3.84c0.17-0.39,0.58-1.03,0.2-1.3c-0.49-0.34-0.899,0.26-1.26,0.62c-0.16,0.16-0.37,0.42-0.53,0.4
	c-0.319-0.04-0.149-0.38-0.18-0.59c-0.05-0.38,0.11-0.91-0.4-1.01c-0.449-0.09-0.67,0.39-0.88,0.7c-2.05,3.09-2.66,6.42-1.7,10.03
	c0.141,0.52,0.83,1.2,0.46,1.44c-0.51,0.33-1.189-0.27-1.659-0.65c-3.73-3.03-8.141-3.55-12.73-3.66
	c-5.96-0.14-11.91,0.18-17.86,0.3c-3.199,0.06-6.47-0.16-8.689,2.85c-0.021,0.03-0.061,0.04-0.101,0.06
	c-0.329,0.19-0.779,0.65-1.039,0.35c-0.36-0.41,0.239-0.73,0.489-1.03c0.4-0.49,0.891-0.91,1.33-1.38
	c0.521-0.56,0.97-1.17,1.17-1.92c0.101-0.41,0.15-0.9-0.5-0.77c-1.52,0.31-3.279,0.14-4.029,2.03c-0.19,0.47-0.601,0.84-0.891,1.27
	c-1.1,1.59-3.41,1.67-4.62,0.12c-0.819-1.04-1.76-1.84-3.12-2.03c-4.68-0.64-9.409-0.44-14.109-0.81c-0.95-0.08-1.4,0.4-1.69,1.3
	c-0.95,2.99-1.439,6.08-2.34,9.09c-0.87,2.931-0.22,6.101,1.22,8.94c0.521,1.029,1.37,1.529,2.58,1.64
	c4.391,0.41,8.79,0.101,13.181,0.2c1.3,0.029,2.319-0.21,3.06-1.35c0.21-0.311,0.63-0.971,0.93-0.681
	c0.41,0.41-0.109,0.96-0.47,1.31c-0.39,0.381-0.88,0.681-1.34,0.99c-0.7,0.471-1.42,0.891-2.09,1.4c-0.34,0.25-0.761,0.67-0.54,1.08
	c0.17,0.32,0.649-0.051,0.989-0.09c0.311-0.041,0.771-0.2,0.91-0.061c0.29,0.301-0.239,0.48-0.319,0.76
	c-0.101,0.34-0.36,0.65-0.07,1c0.3,0.351,0.6,0.03,0.88-0.039c1.94-0.511,3.24-1.82,4.24-3.471c0.35-0.58,0.72-0.859,1.47-0.93
	c2.95-0.25,4.3-1.83,3.8-4.24c-0.12-0.24-0.029-0.5-0.04-0.67c-0.069-0.25-0.229-0.45-0.34-0.68c-0.05-0.09-0.1-0.18-0.149-0.271
	c-0.051-0.09-0.101-0.18-0.15-0.271c-0.28-0.56-0.68-1.039-0.92-1.619c-0.72-1.18,0.36-1.66,0.91-2.34
	c0.56-0.71,0.99-1.51,1.43-2.29c0.13-0.33,0.19-0.69,0.311-1.02c0.029-0.12,0.05-0.24,0.06-0.36c0.04-0.44,0.03-0.88-0.021-1.32
	c-0.27-0.86,0.41-1.25,0.91-1.65c0.98-0.78,2.16-1.16,3.38-1.44c3.74-0.87,7.551-0.47,11.33-0.54c0.49-0.01,1.261-0.15,1.311,0.49
	c0.06,0.79-0.8,0.54-1.28,0.68c-0.53,0.15-1.27-0.14-1.42,0.74c0.53,0.89,1.55,0.87,2.36,1.25c0.83,0.27,1.76,0.48,1.34,1.71
	c-0.05,0.22-0.08,0.46-0.061,0.69c0.03,0.42-0.029,0.92,0.471,1.1c0.43,0.15,0.729-0.19,1.01-0.45c0.31-0.29,0.56-0.65,0.83-0.99
	c0.319-0.4,0.66-0.8,1.1-1.07c1.141-0.71,3.15-0.2,3.63,0.91c-0.029,0.11-0.06,0.21-0.08,0.32c-0.06,0.22-0.18,0.43-0.26,0.64
	c-0.16,0.47-0.57,1.03-0.149,1.44c0.43,0.41,0.949-0.08,1.409-0.26c0.07-0.03,0.15-0.06,0.21-0.11c1.471-1.18,3.16-1.58,5.021-1.4
	c0.15,0.01,0.31-0.03,0.47-0.07c0.4-0.15,0.84-0.14,1.24-0.31c0.16-0.08,0.29-0.19,0.39-0.35c0.28-0.75-0.189-1.1-0.729-1.42
	c-0.641-0.39-1.37-0.61-1.97-1.1c-0.08-0.11-0.12-0.24-0.101-0.37c0.03-0.08,0.07-0.17,0.101-0.25c0.14-0.31,0.329-0.6,0.539-0.87
	c0.421-0.76,1.07-0.87,1.841-0.63c1.069,0.34,2.13,0.67,3.12,1.21c0.56,0.24,1.05,0.6,1.56,0.92c0.09,0.06,0.19,0.11,0.29,0.16
	c0.63,0.43,1.28,0.86,2,1.06c1.68,0.48,2.6,1.53,2.82,3.24c0.08,0.2,0.17,0.4,0.27,0.6c0.05,0.1,0.09,0.2,0.15,0.29
	c0.25,0.54,0.609,1.04,0.689,1.66c0,0.32-0.109,0.63-0.05,0.949c0.06,0.271,0.14,0.531,0.24,0.781c0.229,0.489,0.62,1.029-0.42,1
	c-0.17-0.011-0.34,0.17-0.5,0.289c-0.04,0.03-0.09,0.07-0.13,0.1c-0.091,0.07-0.171,0.141-0.25,0.211
	c-0.091,0.06-0.181,0.13-0.261,0.189c-0.18,0.12-0.37,0.23-0.54,0.37c-0.609,0.521-1.109,1.13-1.609,1.761
	c-1.2,1.52-2.561,2.629-4.69,1.89c-0.64-0.22-1.229-0.04-1.53,0.59c-0.439,0.92-1.199,1.21-2.119,1.271
	c-0.891,0.189-1.79,0.08-2.69,0.09c-0.27,0-0.54,0.039-0.8,0.1c-2.061,0.29-4.13,0.13-6.2,0.1c-0.96-0.27-0.55-0.74-0.18-1.199
	c0.88-1.11,2.26-1.601,3.229-2.59c0.561-0.98-0.609-1.121-0.85-1.721c-0.3-0.43-0.59-0.87-0.601-1.42
	c-0.01-0.21-0.02-0.43-0.02-0.641c0.01-0.43-0.04-0.859,0.11-1.279c0.069-0.26,0.149-0.52,0.25-0.77
	c0.109-0.31,0.27-0.61,0.149-0.95c-0.06-0.1-0.149-0.16-0.26-0.18c-0.17,0-0.32,0.05-0.47,0.13c-0.29,0.15-0.53,0.36-0.761,0.58
	c-0.33,0.34-0.68,0.67-0.979,1.04c-0.61,0.78-1.271,0.87-1.99,0.15c-0.04-0.03-0.08-0.07-0.12-0.109
	c-0.09-0.07-0.18-0.15-0.27-0.211c-0.311-0.21-0.641-0.31-1.011-0.17c-0.159,0.09-0.289,0.21-0.369,0.381
	c-0.07,0.17-0.08,0.34-0.051,0.52c0.101,0.39,0.101,0.79,0.2,1.17c0.13,0.35,0.141,0.73,0.23,1.1c0.13,0.391,0.2,0.78-0.05,1.15
	c-0.66,0.76-1.881,0.65-2.471,1.54c-0.01,0.06-0.029,0.11-0.05,0.17c-0.01,0.06-0.01,0.12-0.01,0.18c0.02,0.12,0.07,0.23,0.14,0.33
	c0.05,0.04,0.09,0.091,0.13,0.13c0.641,0.461,1.38,0.5,2.12,0.521c0.46,0.02,0.95-0.06,1.32,0.329c0.439,1.5,0.2,1.871-1.25,1.871
	c-1.96,0-3.91,0.1-5.87-0.051c-0.37-0.18-0.29-0.41-0.08-0.649c0.3-0.351,0.641-0.681,0.98-1c0.8-0.771,0.819-0.761,1.29,0.319
	c0.229,0.431-0.051,1.131,0.68,1.301c0.73-0.461,0.52-1.131,0.42-1.791c-0.03-0.109-0.06-0.219-0.1-0.329s-0.07-0.21-0.12-0.31
	c-0.061-0.141-0.13-0.281-0.2-0.421c-0.05-0.09-0.09-0.18-0.14-0.27c-0.061-0.14-0.131-0.271-0.19-0.4
	c-0.06-0.14-0.12-0.28-0.2-0.409c-0.83-0.69-1.189,0.189-1.72,0.51c-0.04,0.039-0.08,0.069-0.12,0.109
	c-0.08,0.08-0.16,0.15-0.24,0.23c-0.04,0.029-0.08,0.07-0.12,0.109c-0.079,0.08-0.17,0.16-0.239,0.24
	c-0.62,0.57-1.061,1.29-1.641,1.891c-0.279,0.289-0.54,0.619-0.97,0.64c-1.63,0.08-3.26,0.18-4.77-0.681
	c-1.221-0.689-2.301-1.56-3.271-2.569c-0.439-0.4-0.86-0.81-1.27-1.229c-0.08-0.08-0.15-0.15-0.23-0.221
	c-0.03-0.04-0.07-0.07-0.11-0.109c-0.069-0.07-0.149-0.15-0.229-0.211c-0.08-0.07-0.17-0.13-0.26-0.18c-0.2-0.09-0.4-0.13-0.59,0.03
	c-0.131,0.26,0.04,0.38,0.229,0.489c0.93,1.141,1.84,2.301,2.82,3.41c1.33,1.51,3.01,2.301,5.06,2.311
	c7.38,0.02,14.76,0.97,22.15,0.05c3.35-0.41,6.79-0.38,9.8-2.271c0.12-0.08,0.26-0.109,0.4-0.17c-0.04,0.181-0.07,0.36-0.11,0.541
	c-0.521,2.1,0.43,3.52,2.6,3.789c0.551,0.061,1.12-0.01,1.681,0.041c0.41,0.029,1.02-0.351,1.18,0.079
	c0.15,0.41-0.38,0.82-0.7,1.171c-1.03,1.119-2.5,1.75-3.37,3.039c-0.189,0.271-0.62,0.6-0.37,0.9c0.23,0.279,0.66-0.03,1-0.109
	c0.381-0.091,0.801-0.551,1.101-0.23c0.28,0.289-0.21,0.67-0.32,1.02c-0.1,0.34-0.39,0.68-0.07,0.99c0.25,0.24,0.601,0.05,0.9-0.04
	c1.96-0.61,3.22-1.979,4.01-3.83c1.07-2.521,1.221-5.18,1.141-7.87c-0.011-0.27-0.04-0.73,0.06-0.77c0.39-0.141,0.48,0.3,0.64,0.529
	c0.98,1.44,2.091,2.721,4.03,2.541c2.55-0.23,4.99,0.33,7.45,0.85c2.44,0.52,4.86,1.29,7.43,0.83c0.721-0.131,0.96-0.42,1.11-1.12
	C529.48,284.63,529.09,278.32,528.99,272.01z M504.06,288.93c-0.399,0.561-0.92,0.73-1.55,0.37c-0.7-0.399-0.3-0.96-0.06-1.329
	c0.59-0.891,1.28-1.711,1.95-2.541c0.08-0.1,0.239-0.15,0.359-0.22c0.061,0.3,0.12,0.601,0.15,0.72
	C504.8,287.109,504.66,288.09,504.06,288.93z"/>
<path fill="#98999B" d="M458.18,284.68c0.09,0.16,0.17,0.311,0.261,0.471c-0.091,0.09-0.181,0.17-0.271,0.26
	c-0.26-0.189-0.24-0.45-0.2-0.73l0.05-0.07h0.091L458.18,284.68z"/>
<path fill="#F7CDE0" d="M477.42,275.58c0.05,0.61-0.45,1.53,0.14,1.75c0.631,0.23,0.96-0.74,1.391-1.22
	c0.1-0.12,0.22-0.22,0.33-0.33c1.47-0.67,3-0.39,4.51-0.29c0.29,0.02,0.63,0.15,0.59,0.58c0.021,0.08,0,0.15-0.07,0.21
	c-0.109,0.14-0.04,0.34-0.199,0.46c0,0.54-0.551,0.98-0.32,1.57c0.5-0.23,1.11-0.36,1.479-0.72c1.601-1.57,3.61-1.28,5.54-1.33
	c1.091,0.27,1.811,1.21,1.681,2.19c-0.12,0.94-0.931,1.49-2.08,1.42c-0.13-0.07-0.24-0.18-0.351-0.29
	c-0.93-1.03-0.93-1.03-1.54,0.16c-0.069,0.14-0.17,0.25-0.3,0.36c-0.1,0.07-0.21,0.12-0.319,0.16c-0.061,0.01-0.12,0.01-0.181,0.02
	c-1.02-0.06-2.029-0.04-3.05-0.06c-0.58-0.01-1.06-0.16-1.29-0.77l-0.08,0.01l-0.069-0.04c-0.11,0.03-0.2,0.11-0.301,0.15
	c-0.25,0.18-0.5,0.35-0.75,0.53c-0.51,0.39-1.119,0.37-1.72,0.39c-1.83,0.07-3.66,0.01-5.49,0.15c-0.62,0.039-1.21-0.011-1.51-0.681
	c-0.02-0.14,0.01-0.27,0.08-0.39c0.17-0.19,0.42-0.28,0.62-0.43c0.27-0.25,0.87-0.26,0.77-0.76c-0.08-0.42-0.58-0.31-0.92-0.38
	c-0.43-0.08-0.859-0.17-1.29-0.23c-0.33-0.05-0.819-0.03-0.8-0.51c0.021-0.41,0.45-0.5,0.811-0.58c0.189-0.04,0.39-0.08,0.59-0.1
	c0.979-0.11,1.83-0.49,2.56-1.17C476.84,274.9,476.97,274.91,477.42,275.58z"/>
<path fill="#5D1248" d="M488.44,290.189c-0.24,0.011-0.471,0.011-0.71,0.021c-2.25,0.181-4.49,0.19-6.74,0
	c-1.37-0.16-0.53-0.88-0.25-1.26c0.939-1.261,2.35-1.95,3.609-2.82c0.98-0.71,2.12-0.18,3.17-0.399
	c0.12,0.029,0.221,0.09,0.311,0.189c0.26,0.43,0.189,0.92,0.29,1.38c0.01,0.16-0.03,0.32-0.021,0.47
	c0.011,0.301-0.229,0.701,0.16,0.86c0.28,0.12,0.46-0.239,0.67-0.41c1.181-0.94,2.28-2.03,3.91-2.17
	c0.66-0.06,1.33,0.11,1.971-0.149c0.09-0.061,0.18-0.121,0.279-0.17c0.66-0.53,1.42-0.41,2.17-0.371
	c1.271-0.299,2.351-0.969,3.36-1.77c0.09-0.07,0.18-0.13,0.27-0.189c0.051-0.03,0.091-0.061,0.141-0.09
	c0.09-0.07,0.189-0.121,0.3-0.17c0.11-0.041,0.22-0.07,0.34-0.07c0.38,0.07,0.75,0.14,0.45,0.67v0.01
	c-0.07,0.08-0.15,0.15-0.23,0.22l-0.02,0.011c-0.12,0.149-0.35,0.1-0.46,0.27c-0.73,0.84-1.49,1.641-2.17,2.51
	c-1.17,1.49-2.61,2.17-4.45,1.49c-0.83-0.311-1.25,0.07-1.47,0.689c-0.36,1.011-1.101,1.131-1.99,1.041
	C490.38,290.279,489.38,289.88,488.44,290.189z"/>
<path fill="#252121" d="M442.6,274.33c0.061-0.07,0.12-0.14,0.181-0.22c0.5,0.2,0.56,0.74,0.83,1.11c0.06,0.09,0.12,0.17,0.18,0.26
	c0.1,0.13,0.19,0.26,0.28,0.39c0.51,0.61,0.93,1.35,1.859,1.38c0.09-0.03,0.181-0.07,0.261-0.12c0.04-0.03,0.079-0.06,0.109-0.09
	c0.061-0.07,0.13-0.15,0.19-0.23c0.02-0.04,0.05-0.09,0.08-0.13c0.189-0.39,0.29-0.83,0.63-1.13c0.31-0.24,0.67-0.31,1.04-0.32
	c1.7,0,2,0.29,2.08,1.98c-0.601,0.61-1.4,0.11-2.061,0.37c-0.06,0.08-0.13,0.16-0.189,0.24c-0.08,0.13-0.16,0.27-0.221,0.41
	c-0.149,0.37-0.27,0.75-0.439,1.1c-0.311,0.63-0.2,1.14,0.39,1.54c0.38,0.33,0.92,0.46,1.18,0.94c0.07,0.17,0.08,0.34,0.04,0.52
	c-0.04,0.109-0.1,0.21-0.189,0.3c-1.61,0.271-3.12,0.74-4.271,1.99c-0.5,0.28-0.84,0.75-1.319,1.05
	c-0.11,0.05-0.221,0.061-0.34,0.03c-0.28-0.171-0.33-0.46-0.33-0.75c0-0.33,0.14-0.64,0.17-0.97c0.01-0.15,0.029-0.311,0.04-0.461
	c0.01-0.199,0.01-0.39,0-0.59c-0.021-0.09-0.03-0.189-0.05-0.279c-0.07-0.131-0.171-0.23-0.301-0.32
	c-1.069-0.53-2.25-0.801-3.25-1.46c-0.529-0.351-1.18-0.77-0.229-1.4c0.16-0.07,0.33-0.12,0.5-0.14c0.29-0.02,0.56-0.11,0.84-0.17
	c0.15-0.04,0.31-0.06,0.47-0.07c1.76-0.16,1.79-0.19,1.51-1.96c-0.01-0.13-0.01-0.26-0.02-0.39
	C442.29,275.93,442.13,275.09,442.6,274.33z"/>
<path fill="#5D1248" d="M471.88,287.359c-0.42,0.531-0.84,1.061-1.27,1.58c-1.25,1.471-4.141,1.801-6.32,0.66
	c-1.42-0.74-2.72-1.67-3.69-2.979c-0.25-0.88,0.45-0.81,0.891-0.771c1.01,0.09,2.029,0.07,3.01,0.34c0.1,0.041,0.21,0.09,0.31,0.16
	c0.681,0.48,1.181,1.09,1.381,1.91c0.35-0.81,0.96-1.35,1.75-1.689c0.72-0.311,1.369-0.801,2.21-0.78c0.52,0.14,1.06,0.19,1.59,0.29
	c0.39,0.08,0.91,0.13,0.64,0.779v-0.01c-0.09,0.07-0.17,0.16-0.25,0.25l0.01-0.01C472.03,287.16,471.95,287.25,471.88,287.359z"/>
<path fill="#B85DA3" d="M458.92,274.59c-0.42-0.55-0.1-0.94,0.28-1.35c1.51-1.61,3.52-2.13,5.58-2.44c3.68-0.55,7.39-0.2,11.09-0.31
	c0.78-0.02,0.77,0.53,0.89,1.01c0.181,0.7-0.399,0.67-0.79,0.73c-0.51,0.08-1.029,0.06-1.54,0.12c-0.35,0.04-0.87-0.14-0.84,0.53
	c-0.41,0.27-0.82,0.08-1.22-0.02c-0.78-0.55-1.601,0.08-2.4-0.08c-2.489-0.48-4.939-0.23-7.38,0.33c-1.56-0.38-2.49,0.37-3.109,1.71
	C459.18,275.01,459.06,274.79,458.92,274.59z"/>
<path fill="#B85DA3" d="M489.9,271.96c0.27-1.21,1.04-1.4,2.119-1.07c1.171,0.35,2.33,0.72,3.36,1.39
	c0.67,0.58,1.32,1.18,1.601,2.06c0.069,0.43,0.239,0.81,0.539,1.13c0.521,0.56,0.32,0.96-0.279,1.26c-0.141,0.1-0.25,0.23-0.21,0.43
	c0.029,0.09,0.06,0.17,0.09,0.26c0.06,0.14,0.12,0.28,0.16,0.42c0.029,0.11,0.04,0.21,0.04,0.32c-0.351,1.44-1.2,2.32-2.25,2.32
	c-0.051-0.11-0.08-0.22-0.08-0.33c0.029-0.28,0.1-0.56,0.149-0.84c0.021-0.11,0.051-0.22,0.08-0.33c1.09-2.66-1.35-5.47-3.76-6.29
	C490.93,272.52,490.26,272.55,489.9,271.96z"/>
<path fill="#F4A526" d="M433.75,270.33c-1.56,5.49-3.08,10.99-1.74,16.779c0.04,0.181,0.04,0.381,0.05,0.561
	c-0.14-0.12-0.319-0.22-0.42-0.37c-0.83-1.271-1.18-2.71-1.25-4.19c-0.189-4.27,0.92-8.29,2.44-12.219
	c0.12-0.32,0.42-0.56,0.63-0.85C433.72,269.98,433.81,270.07,433.75,270.33z"/>
<path fill="#B24F9C" d="M450.04,277.27c0.229-1.5-0.61-1.88-1.89-1.8c-0.141-1.1-0.95-1.57-1.82-2.02
	c-0.521-0.27-1.17-0.28-1.58-0.79c0.72-0.67,1.63-0.71,2.55-0.79c0.41-0.04,1.03,0.31,1.19-0.11c0.17-0.47-0.42-0.77-0.8-1.04
	c-0.011-0.43,0.229-0.33,0.47-0.22c0.78,0.11,1.42,0.5,1.99,1.01c0.649,0.58,1.13,1.14,0.43,2.12c-0.62,0.86-0.45,1.98,0,2.87
	c0.67,1.32,0.36,1.7-1.021,1.39c-0.17-0.06-0.43,0-0.46-0.25c-0.04-0.29,0.221-0.24,0.4-0.26
	C449.67,277.35,449.87,277.39,450.04,277.27z"/>
<path fill="#5D1349" d="M513.37,289.73c-2-0.25-3.74-1-5.01-2.641c-0.08-0.08-0.16-0.17-0.24-0.25l0,0
	c-0.08-0.08-0.16-0.16-0.24-0.24l0,0c-0.229-0.33-0.09-0.56,0.19-0.76c0.09-0.04,0.189-0.05,0.29-0.04
	c0.09,0.03,0.17,0.091,0.239,0.15c0.021,0.04,0.04,0.079,0.061,0.12c-0.021,0.16-0.17,0.09-0.021,0.09c0.07,0,0.08-0.131,0.11-0.2
	c0.15-0.17,0.32-0.12,0.48-0.04c0.149,0.08,0.31,0.13,0.479,0.13c0.08-0.021,0.17-0.04,0.25-0.06c0.21-0.11,0.34-0.32,0.53-0.45
	c0.1-0.05,0.2-0.07,0.3-0.08c0.51,0.01,0.97,0.14,1.4,0.41l0,0c0.069,0.09,0.149,0.17,0.239,0.239l0,0
	c0.07,0.091,0.17,0.17,0.25,0.24c1.021,0.721,1.49,1.86,2.15,2.851c0.11,0.17,0.35,0.13,0.479,0.27l0,0
	c0.051,0.05,0.061,0.11,0.051,0.16c-0.021,0.05-0.03,0.08-0.051,0.08l0,0C514.67,289.92,514.02,289.9,513.37,289.73z"/>
<path fill="#5E1349" d="M526.07,289.221c-0.49,1.149-0.801,2.42-2.57,2.209c-1.78-0.209-2.61-0.89-3.33-3.17
	c0.271-1.199,1.311-0.66,2.01-0.88c0.94,0.19,1.88,0.39,2.78,0.72C525.5,288.29,525.99,288.561,526.07,289.221z"/>
<path fill="#FCCA1C" d="M445.2,271.25c-0.61,0.17-1.57-0.38-1.601,1.11c-0.01,0.73-1.13,1.28-1.909,1.67
	c-0.561,0.28-0.41-0.31-0.45-0.55c-0.29-1.41-0.48-2.86-2.351-3.09c-0.56-0.07-0.34-0.38-0.04-0.61c0.851-0.61,1.83-0.65,2.75-0.38
	c1.53,0.44,3.011,1.02,4.511,1.56c0.12,0.04,0.22,0.18,0.33,0.27c-0.11,0.03-0.23,0.08-0.341,0.07
	C445.81,271.3,445.54,271.28,445.2,271.25z"/>
<path fill="#B14D9B" d="M437.51,273.17c-0.85-0.17-1.54,0.22-2.229,0.63c-0.19,0.12-0.53,0.28-0.63,0.21
	c-0.301-0.23,0.06-0.48,0.109-0.72c0.19-0.85,1.29-1.73-0.18-2.53c-0.14-0.08,0.09-1.28,0.89-1.47c0.42-0.1,0.88-0.13,1.3-0.06
	c0.29,0.05,1.53-0.25,0.421,0.73c-0.351,0.31-0.04,0.56,0.29,0.69c0.63,0.24,1.26,0.48,1.899,0.71c0.43,0.15,0.851,0.28,0.76,0.88
	C439.65,273.19,438.42,273.64,437.51,273.17z"/>
<path fill="#F6CDDF" d="M518.15,281.48c0.119-0.201,0.27-0.391,0.359-0.601c0.16-0.37,0.74-0.64,0.41-1.12
	c-0.33-0.47-0.84-0.26-1.3-0.14c-0.24,0.06-0.49,0.38-0.71,0.09c-0.04-0.06,0.28-0.43,0.47-0.62c0.74-0.71,1.49-1.39,2.24-2.09
	c0.35-0.61,0.77-0.65,1.37-0.27c0.91,0.58,1.37,1.41,1.55,2.41c0.189,1.09-0.28,1.719-1.44,1.99c-0.12,0-0.239-0.021-0.35-0.04
	c-0.771-0.29-0.71,0.25-0.71,0.73c-0.04,0.13-0.101,0.229-0.2,0.32C519.08,282.391,518.33,282.641,518.15,281.48z"/>
<path fill="#F2A427" d="M527.72,281.029c0.2-2.439-0.38-4.839-0.399-7.27c0-0.4-0.011-0.8,0.029-1.19c0.04-0.34,0.24-0.63,0.61-0.61
	c0.4,0.02,0.33,0.39,0.34,0.65c0.28,5.87,0.13,11.72-0.7,17.541c-0.05,0.34,0,0.77-0.439,0.91c-0.37,0.119-0.83,0.43-1.11,0.149
	c-0.27-0.271,0.28-0.46,0.391-0.739c0.92-2.171,1.079-4.49,1.26-6.791C527.78,282.79,527.72,281.91,527.72,281.029z"/>
<path fill="#DFA8CB" d="M439.06,279.69c-0.75,0.44-0.13,0.71,0.171,0.86c1.189,0.601,2.42,1.15,3.63,1.71
	c0.06,0.09,0.13,0.18,0.21,0.26c0.01,0.08,0.02,0.17,0.029,0.25c-1.369,0.98-4.04,0.471-5.09-0.869
	c-0.439-0.561-0.76-1.11-0.479-1.84c-0.021-0.07,0-0.13,0.06-0.18c0.05-0.06,0.07-0.11,0.04-0.16c-0.02-0.05-0.04-0.08-0.06-0.08
	v-0.01c-0.17-0.24-0.221-0.5-0.17-0.79c0.3-2.04,3.069-3.76,5-3.1c0.149,0.36,0.08,0.75,0.069,1.12c-0.26,0.52-0.79,0.44-1.229,0.54
	C439.99,277.69,439.15,278.33,439.06,279.69z"/>
<path fill="#FDCA1C" d="M481.97,283.82c1.13,1.3,1.74,2.51-0.52,3.27c-0.141,0.051-0.23,0.28-0.36,0.29
	c-0.399,0.03-0.89,2.39-1.27-0.069c-0.13-0.84-1.25-0.25-1.891-0.41c-0.359-0.09-0.79,0.18-1.08-0.221
	c0.29-0.18,0.57-0.41,0.881-0.539c0.75-0.301,1.149-0.801,1.1-1.621c-0.06-0.109-0.1-0.279,0.01-0.299
	C479.87,284.04,480.88,283.58,481.97,283.82z"/>
<path fill="#B0519B" d="M508.81,276.26c0.37-1.23,0.99-2.34,1.551-3.48c0.79-1.63,2.17-1.64,3.649-1.5
	c0.11,0.01,0.221,0.05,0.33,0.08c-0.09,0.11-0.17,0.28-0.28,0.31c-0.329,0.08-0.409,0.26-0.46,0.58c-0.33,2.14-0.35,2.16-2.25,1.37
	c-0.67-0.28-0.699,0.17-0.699,0.55c0,0.34,0.18,0.68,0.27,1.03c0.12,0.46,0.87,0.83,0.58,1.2c-0.33,0.42-1.03,0.19-1.58,0.07
	c-0.25-0.05-0.53,0.06-0.8,0.1C508.88,276.6,508.75,276.52,508.81,276.26z"/>
<path fill="#F7A727" d="M506.3,293c-0.24,2.359-1.13,4.32-3.189,5.609c-0.221,0.141-0.601,0.32-0.75,0.221
	c-0.33-0.2,0-0.49,0.109-0.71c0.33-0.67,0.87-1.32-0.5-1.44c-0.45-0.039-0.04-0.359,0.08-0.459c1.29-1.07,2.62-2.091,3.12-3.83
	c0.1-0.341,0.65-0.471,0.92-0.351C506.45,292.2,506.2,292.68,506.3,293z"/>
<path fill="#5C1248" d="M475.23,287.12c1.189,0.739,2.609,0.149,3.85,0.67c0.41,2.53,0.41,2.53-2.07,2.53c-0.68,0-1.359,0-2.04,0
	c-0.239,0-0.5-0.01-0.47-0.37c0.37-0.63,0.3-1.28,0.06-1.931c0.04-0.08,0.04-0.149-0.029-0.209c-0.021-0.08-0.03-0.16-0.03-0.24
	c-0.14-0.131-0.09-0.36-0.23-0.49l0,0c-0.14-0.13-0.1-0.35-0.239-0.471c-0.061-0.079-0.13-0.159-0.19-0.239
	c0.54-0.351,1.061-0.55,1.391,0.25l0,0c-0.061,0.04-0.091,0.09-0.08,0.14c0.01,0.061,0.02,0.09,0.04,0.09c0,0.08,0,0.17,0,0.25
	l-0.07,0.101L475.23,287.12z"/>
<path fill="#AE4C99" d="M496.94,274.4c-0.601-0.64-1.181-1.31-1.561-2.11c0.49,0.29,0.98,0.57,1.46,0.86
	c0.05,0.08,0.13,0.11,0.22,0.09c1.311,0.64,2.62,1.29,3.95,1.91c1.07,0.5,0.721,1.87,1.13,2.8c0.12,0.15,0.07,0.36,0.21,0.5
	l0.011,0.02c-0.36,0.88-1.011,0.44-1.591,0.35c-0.989-0.75-2.22-1.3-2-2.94c0.061-0.44-0.369-0.86-0.85-1.07
	C497.59,274.66,497.2,274.69,496.94,274.4z"/>
<path fill="#E9BCD3" d="M473.56,279.7c0.171,0.59,0.66,0.7,1.141,0.64c2.479-0.29,4.979-0.18,7.47-0.23
	c-0.28,0.34-0.57,0.67-0.85,1.01c-0.801,0.41-1.63,0.54-2.5,0.21h0.01c-0.061-0.109-0.15-0.18-0.25-0.25
	c-0.3-0.16-0.561-0.45-0.96-0.26c-0.061,0.1-0.16,0.18-0.18,0.3c0,0.149,0,0.29,0,0.44c-0.051,0.039-0.101,0.08-0.15,0.119
	c-1.49,0.24-2.98,0.211-4.48,0.18c-0.59-0.09-1.18-0.209-1.729-0.469c-0.46-0.221-0.63-0.621-0.15-0.891
	C471.73,280.04,472.53,279.45,473.56,279.7z"/>
<path fill="#5E1449" d="M450.04,287.09c-1.31,1.54-2.93,2.32-4.99,2.16c-0.81-0.061-0.91-0.41-0.51-0.971
	c0.43-0.59,0.53-1.209,0.46-1.899c0.1-0.09,0.22-0.101,0.34-0.06c0.49,0.27,1,0.18,1.51,0.05c0.891-0.229,1.78-0.47,2.69-0.54
	c0.46-0.03,1.07-0.25,1.229,0.52l-0.01,0.01c-0.08,0.07-0.16,0.15-0.24,0.24l0,0c-0.09,0.07-0.17,0.15-0.239,0.24l0,0
	C450.19,286.92,450.12,287.01,450.04,287.09z"/>
<path fill="#F4A528" d="M499.94,269.37c0.029-2.11,0.659-4.07,1.56-5.95c0.1-0.2,0.17-0.56,0.44-0.46
	c0.25,0.1,0.079,0.41,0.029,0.63c-0.08,0.34-0.26,0.72,0.141,0.97c0.35,0.22,0.58-0.07,0.819-0.27c0.09-0.08,0.19-0.33,0.34-0.11
	c0.061,0.09,0.011,0.31-0.06,0.44c-0.49,0.87-0.97,1.74-1.51,2.57c-0.98,1.52-1.53,3.06-0.47,4.79c0.22,0.35,0.489,1.05,0.149,1.18
	c-0.479,0.19-0.689-0.51-0.899-0.9C500,271.38,499.88,270.39,499.94,269.37z"/>
<path fill="#B761A3" d="M519.09,273.71c-0.979-0.7-1.88-0.31-2.78,0.2c-0.25,0.14-0.51,0.54-0.819,0.29
	c-0.3-0.24-0.061-0.62,0.06-0.89c0.28-0.64-0.08-1.71,0.601-1.9c0.96-0.27,2.21-0.42,3.039-0.01c0.801,0.4,1.391,1.35,2.261,1.89
	c0.27,0.17,0.109,0.75-0.08,1.12C520.74,273.74,520.06,273.27,519.09,273.71z"/>
<path fill="#B962A4" d="M437.51,273.17c1.03,0.1,1.83-0.43,2.63-0.95c0.17,0.84,0.37,1.68,0.511,2.52
	c0.05,0.33,0.029,0.64,0.489,0.6c0.061,0.48-0.359,0.45-0.529,0.34c-1.08-0.75-1.771-0.07-2.46,0.62
	c-0.11,0.11-0.23,0.21-0.391,0.26c-0.779-0.63-1.43-0.11-2.09,0.25c-0.24,0.04-0.33-0.06-0.28-0.29
	C436.17,275.44,437.25,274.57,437.51,273.17z"/>
<path fill="#7C2864" d="M503.11,281.3c0.08,0.24,0.159,0.479,0.25,0.72c-0.03,0.641-0.561,0.53-0.94,0.601c-0.49,0.09-1,0-1.49,0.14
	c-0.979,0.061-1.859,0.45-2.71,0.91c-1.149,0.301-2.189,0.9-3.29,1.34c-0.12,0.02-0.239,0.01-0.35-0.02
	c-0.11-0.051-0.21-0.12-0.3-0.19c-0.24-0.27-0.511-0.53-0.34-0.95c1.67-0.89,3.21-2.08,5.119-2.47c0.311-0.101,0.62-0.22,0.95-0.3
	c0.21-0.05,0.42-0.09,0.63-0.12c0.11-0.021,0.21-0.021,0.32-0.01C501.67,281.07,502.43,280.93,503.11,281.3z"/>
<path fill="#FBDFA9" d="M501.25,289.109c0.8,1.601,1.57,1.67,3.38,0.32c0.98,0.44,0.72,1.17,0.43,1.9
	c-1.89,1.109-3.989,1.15-4.979,0.09C499.52,289.83,499.81,289.26,501.25,289.109z"/>
<path fill="#C271AE" d="M489.9,271.96c2.46,0.48,4.47,1.55,5.56,3.97c0.5,1.12,0.57,2.2-0.1,3.27c-0.061,0-0.11,0.01-0.17,0.01
	c-0.301-0.04-0.561-0.13-0.69-0.44c-0.03-2.9-1.11-4.34-3.9-5.26c-0.439-0.15-0.96-0.16-1.239-0.63
	C489.54,272.57,489.72,272.26,489.9,271.96z"/>
<path fill="#AD6197" d="M456.32,282.029c-1.13-1.359,0.229-1.919,0.87-2.699c0.449,0.27,0.659,0.83,1.189,1.02
	c0.521,0.61,1.37,0.23,1.96,0.65c-0.439,0.58-0.03,0.71,0.43,0.79c0.591,0.101,1.181,0.5,1.801,0.05c0.1-0.07,0.21-0.109,0.33-0.12
	c0.13,0.03,0.22,0.11,0.279,0.22c0.16,0.371,0.17,0.75,0.09,1.141c-0.14,0.52-0.529,0.62-0.989,0.57
	c-0.62-0.061-1.23-0.041-1.851-0.101c-0.25-0.03-0.479-0.11-0.7-0.239c-0.1-0.061-0.199-0.131-0.29-0.19
	c-0.5-0.44-1.09-0.71-1.739-0.841C457.25,282.17,456.72,282.439,456.32,282.029z"/>
<path fill="#F3C843" d="M485.46,274.84c-0.54-0.36-1.11-0.61-1.75-0.72c-0.17-0.03-0.43,0.05-0.44-0.23c0-0.06,0.24-0.18,0.37-0.19
	c1.11-0.1,2.04-0.33,1.511-1.8c-0.04-0.1,0.02-0.23,0.029-0.34c0.13,0.08,0.311,0.12,0.38,0.24c0.75,1.18,1.69,1.15,2.75,0.49
	c0.12-0.08,0.28-0.1,0.421-0.14c-0.011,0.1,0.02,0.23-0.03,0.29c-0.86,1.05-0.141,1.53,0.7,1.97c0.22,0.34,0.64,0.64,0.239,1.12
	c-0.3,0.02-0.609,0.04-0.909,0.06c-0.74-1.13-1.671-1.42-2.851-0.67C485.75,274.99,485.59,274.96,485.46,274.84z"/>
<path fill="#D090BD" d="M458.91,276.26c-0.021-0.08-0.01-0.15,0.04-0.22c0.189-0.38,0.38-0.76,0.819-0.9
	c0.101-0.04,0.19-0.07,0.301-0.1c0.21-0.05,0.38-0.15,0.55-0.28c0.46-0.35,0.899-0.71,1.42-0.99c1.46-0.57,2.91-0.82,4.38-0.08
	c0.14,0.14,0.26,0.3,0.34,0.48c0.19,0.43,0.48,0.9,0.11,1.33c-0.351,0.4-0.811,0.16-1.22,0.03c-0.57-0.19-1.131-0.37-1.73-0.28
	c-0.63,0.04-1.04,0.5-1.49,0.86c-0.41,0.03-0.76-0.26-1.17-0.24c-0.18,0-0.37,0.02-0.55,0.07c-0.08,0.03-0.17,0.05-0.26,0.08
	c-0.13,0.04-0.25,0.09-0.37,0.15c-0.07,0.06-0.15,0.11-0.22,0.17c-0.07,0.07-0.141,0.13-0.21,0.19c-0.2,0.16-0.381,0.35-0.67,0.28
	C458.78,276.65,458.77,276.47,458.91,276.26z"/>
<path fill="#CC86B8" d="M489.36,272.87c2.01,0.39,3.81,1.12,4.96,2.96c0.609,0.98,0.66,2.01,0.359,3.09
	c0.08,0.1,0.09,0.21,0.04,0.33c-0.279,0.34-0.59,0.6-1.069,0.38c-0.28-0.41-0.07-0.84-0.04-1.27c0.09-1.12-0.221-2.04-1.29-2.57
	c0.09-0.91-0.71-1-1.23-1.35c-0.64-0.43-1.61-0.38-1.91-1.3C489.25,273.07,489.35,273.01,489.36,272.87L489.36,272.87z"/>
<path fill="#772C61" d="M445.24,286.37c-0.08,0-0.16,0.01-0.24,0.021c-0.58,0.239-1.19,0.42-1.73,0.729
	c-1.859,1.069-1.85,1.09-3.069-0.74c0.83-0.729,1.91-0.5,2.87-0.75l-0.011,0.011c1.421-0.541,2.881-0.98,4.391-1.181
	c0.43,0.07,0.859,0.13,1.27,0.31c0.12,0.07,0.17,0.17,0.17,0.301C447.8,285.85,446.52,286.109,445.24,286.37z"/>
<path fill="#B960A4" d="M523.73,274.86c0.229,0.06,0.46,0.11,0.689,0.17c2.62,0.68,2.311,0.04,2.45,3.13
	c0.01,0.83,0.2,1.71-0.521,2.38c-0.47,0.3-0.909,0.84-1.489,0.181c0.71-1.611,0.21-3.061-0.561-4.491
	C524.07,275.79,523.58,275.45,523.73,274.86z"/>
<path fill="#F5A628" d="M449.29,292.16c-0.021-0.11,0-0.221-0.05-0.26c-1.721-1.32,0.37-1.15,0.68-1.631
	c0.29-0.439,0.84-0.709,1.26-1.08c0.271-0.229,0.41-0.789,0.91-0.31c0.38,0.36,0.771,0.7,0.32,1.31
	c-0.76,1.041-1.54,2.041-2.68,2.69c-0.25,0.14-0.561,0.511-0.811,0.29c-0.25-0.22,0.23-0.43,0.271-0.689
	C449.22,292.359,449.26,292.24,449.29,292.16z"/>
<path fill="#CD8CB9" d="M437.76,276.56c0.71-1.51,1.561-1.8,2.98-1.04c0.08,0.04,0.26-0.11,0.399-0.18
	c0.32-0.19,0.63-0.39,0.95-0.58c0.38,0.3,0.561,0.64,0.2,1.08c-2.56-0.1-4.34,1.33-4.74,3.8c-0.25-0.09-0.51-0.27-0.75-0.26
	c-0.37,0.02-0.72,0.18-1.09,0.28c0.271-0.37,0.521-0.75,0.8-1.11C437,277.92,437.5,277.31,437.76,276.56z"/>
<path fill="#F4C524" d="M501.25,289.109c-1.19,0.371-1.36,1.25-1.17,2.311c-0.68-0.72-0.71-1.59-0.46-2.46
	c0.59-2.069,1.979-3.5,3.81-4.55c0.16-0.09,0.44-0.2,0.521-0.131c0.25,0.211,0.01,0.441-0.13,0.601
	c-0.551,0.63-1.13,1.24-1.69,1.851C501.53,287.41,501.12,288.16,501.25,289.109z"/>
<path fill="#DBA5C8" d="M477.42,275.58c-0.57-0.52-1.02-0.24-1.43,0.22c-0.82-0.16-1.641-0.12-2.471,0.01
	c-0.51,0.08-1.029,0.12-1.529,0.02c-1.03-0.21-1.181-0.75-0.471-1.64c1.48-0.41,2.98-0.53,4.511-0.36
	C476.83,274.15,477.95,274.21,477.42,275.58z"/>
<path fill="#6D2357" d="M475.25,286.609c-0.4-0.43-0.93-0.18-1.4-0.25c-0.77-0.68-0.97,0.391-1.489,0.49
	c-0.141-0.709-0.71-0.459-1.13-0.479c-0.48-0.021-0.921-0.11-1.28-0.45c0.08-0.51,0.46-0.73,0.87-0.93
	c2.14-0.36,4.29-0.24,6.43-0.15c0.24,0.01,0.46,0.13,0.62,0.33C477.22,286.05,476.04,285.971,475.25,286.609z"/>
<path fill="#0B4F29" d="M435.88,285.18c-0.78,1.03-1.79,1.891-2.39,3.061c-0.061,0.1-0.15,0.119-0.25,0.05
	c-0.54-0.89-0.71-1.87-0.721-2.88c-0.21-1.32-0.21-1.32,1.091-1.11c0.35,0.06,0.72,0.05,1.069,0.14l0,0
	c0.271,0.221,0.59,0.08,0.88,0.131C435.94,284.62,436.1,284.8,435.88,285.18z"/>
<path fill="#E8B8D3" d="M520.79,280.87c0.7,0.021,1.31-0.16,1.42-0.94c0.17-1.15-0.34-2.05-1.15-2.84
	c-0.479-0.47-0.93-0.5-1.439-0.1c-0.04-1.11-0.84-0.66-1.4-0.66c-0.189,0-0.38,0.13-0.569,0.15c-0.41,0.04-0.761,0.46-1.211,0.2
	c0.261-0.33,0.521-0.68,0.801-1c0.13-0.15,0.3-0.25,0.449-0.38c0.641-0.35,1.33-0.41,2.04-0.28c0.69,0.13,1.141,0.48,1.08,1.26
	c0.24,0.16,0.49,0.31,0.73,0.47c1.08-0.03,1.37,0.28,1.53,1.6c-0.011,0.13-0.03,0.27-0.061,0.4c-0.21,0.57-0.12,1.17-0.14,1.76
	C522.46,281.74,521.75,281.87,520.79,280.87z"/>
<path fill="#A95094" d="M448.85,282.25c-0.01-0.12-0.02-0.25-0.029-0.37c-0.15-0.989,0.449-1.53,1.21-1.96
	c0.52-0.26,1.31,0.05,1.54-0.83c0.069-0.27,0.3,0.02,0.41,0.15c0.68,0.76,0.84,1.609,0.42,2.55c-0.131,0.16-0.28,0.31-0.5,0.351
	c-0.101,0.01-0.21,0-0.311-0.021c-0.1-0.021-0.2-0.04-0.31-0.06c-0.53-0.021-0.971,0.27-1.45,0.41
	C449.47,282.58,449.09,282.77,448.85,282.25z"/>
<path fill="#B95FA3" d="M444.75,272.67c1.15,0.1,2.1,0.67,3.02,1.29c0.591,0.4,0.761,0.89,0.381,1.52c-0.33,0.1-0.66,0.21-0.99,0.31
	c-1.21-0.84-2.67-1.18-3.92-1.96C443.67,273.35,444.12,272.89,444.75,272.67z"/>
<path fill="#F9C824" d="M455.56,286.23c0.48-0.961,0.421-1.92,0-2.881c-0.1-0.229-0.369-0.439-0.159-0.75
	c0.21,0.17,0.47,0.311,0.63,0.51c0.45,0.561,0.91,1.111,1.27,1.73c0.9,1.561,0.63,2.49-0.939,3.46
	C455.78,287.74,455.44,287.07,455.56,286.23z"/>
<path fill="#C275AE" d="M523.73,274.86c1.09,1.26,1.659,2.74,1.89,4.38c0.09,0.63-0.14,1.07-0.68,1.38
	c-0.101-0.04-0.181-0.11-0.25-0.19c-0.101-0.13-0.19-0.26-0.261-0.41c-0.319-0.8-0.63-1.6-1.229-2.25
	c0.189-0.77-0.351-1.24-0.73-1.77C522.85,275.59,523.03,274.93,523.73,274.86z"/>
<path fill="#10502B" d="M513.88,284.46c-0.31,0.71-0.31,0.71,1.2,0.7c0.45,0.061,1.27-0.73,1.2,0.52
	c-1.811,2.381-1.011,2.36-3.36,0.021c-0.41-0.4-0.64-0.98-0.95-1.48c-0.14-0.18-0.16-0.36,0.011-0.54c0.159-0.08,0.279,0,0.409,0.08
	c0.091,0.04,0.181,0.061,0.271,0.07c0.13,0.02,0.25,0.109,0.38-0.02c0.09-0.051,0.18-0.08,0.29-0.101
	C513.73,283.8,514.53,283.59,513.88,284.46z"/>
<path fill="#6A1B54" d="M445.24,286.37c1.05-0.851,2.46-0.82,3.609-1.44c0.4-0.47,0.931-0.6,1.5-0.539
	c0.431,0.049,0.931,0.149,0.66,0.81c-0.06,0.39,0.13,0.829-0.24,1.159c-1.63-0.64-3.079,0.33-4.609,0.561
	C445.59,287,445.21,287.13,445.24,286.37z"/>
<path fill="#7F3568" d="M477.88,285.17c-2.399,0.13-4.82-0.3-7.21,0.23c-0.31-0.23-0.7-0.33-1.01-0.561
	c-0.29-0.23-0.271-0.439,0.06-0.619c2.74-0.19,5.46-0.561,8.21-0.291C478.18,284.35,478.25,284.77,477.88,285.17z"/>
<path fill="#FAE0B0" d="M455.56,286.23c0.391,0.64,0.75,1.299,0.811,2.069c-1.01,0.71-2.061,1.03-3.24,0.421
	c-0.13-0.091-0.31-0.08-0.43-0.211l-0.01-0.01c-0.32-0.55-0.431-1.061,0.229-1.45C453.97,287.34,454.82,286.95,455.56,286.23z"/>
<path fill="#F3A529" d="M506.39,276.09c-0.109,1.21-0.899,2.84-1.279,2.69c-1.091-0.42-0.83-1.87-1.051-2.93
	c-0.119-0.56,0.091-0.83,0.681-0.75C505.47,275.2,506.3,275.17,506.39,276.09z"/>
<path fill="#F7C720" d="M457.47,274.14c0.95,0.38,1.03,1.05,0.69,1.92c-0.43,1.08-1.01,2.06-1.74,2.96
	c-0.36,0.45-0.74,0.46-1.11,0.16c-0.51-0.4,0.101-0.6,0.261-0.8c0.569-0.75,1.34-1.39,1.189-2.48c-0.17-0.41-0.13-0.84-0.04-1.25
	C456.8,274.29,456.9,273.84,457.47,274.14z"/>
<path fill="#BB73A6" d="M443.08,283.49c-0.021,0.16-0.04,0.32-0.061,0.48c-0.02,0.039-0.029,0.079-0.06,0.1
	c-1.12,0.869-4.44,0.66-5.41-0.35c-0.16-0.121-0.3-0.301-0.47-0.341c-1.44-0.34-1.44-0.34-0.32-1.851
	c0.34-0.159,0.51,0.101,0.69,0.291c1.21,1.31,2.71,1.66,4.41,1.4C442.31,283.16,442.73,283.15,443.08,283.49z"/>
<path fill="#F3A52A" d="M505.64,283.029c-1.479,0.201-1.75-1.18-1.67-1.809c0.09-0.681,1.351-0.631,2.11-0.771
	c0.76-0.14,0.88,0.579,0.82,1.149C506.81,282.35,506.87,283.35,505.64,283.029z"/>
<path fill="#FBC91C" d="M471.14,290.21c-0.38-0.08-0.479-0.28-0.199-0.569c0.71-0.75,1.319-1.69,2.18-2.19
	c0.979-0.56,0.57,0.72,0.95,1.05c0.06,0.141,0.08,0.3,0.09,0.46c0.04,1.36,0.04,1.37-1.28,1.351
	C472.3,290.3,471.71,290.43,471.14,290.21z"/>
<path fill="#F2A529" d="M460.01,269.28c-0.21,0.27-0.43,0.6-0.7,0.89c-0.72,0.79-1.609,1.44-2.1,2.43
	c-0.14,0.29-0.35,0.44-0.67,0.26c-0.28-0.16-0.55-0.29-0.5-0.72c0.11-0.92,2.69-3.22,3.6-3.19
	C459.83,268.96,460.04,268.89,460.01,269.28z"/>
<path fill="#F8C826" d="M452.37,278.47c-1.101-1.18-1.42-2.68-1.4-4.19c0.021-1.13,1.17-0.9,1.92-1.07
	c0.78,0.68,0.24,1.17-0.22,1.68c-0.74,1.18-0.38,2.35,0.07,3.51C452.64,278.55,452.51,278.57,452.37,278.47z"/>
<path fill="#D9A0C5" d="M492.32,275.8c1.47-0.3,1.399,0.97,1.58,1.74c0.149,0.64-0.11,1.39-0.19,2.08
	c-0.06,1.11-0.94,1.59-1.729,2.04c-0.561,0.32-1.061-0.051-1.221-0.71c0.061-0.39,0.38-0.58,0.65-0.8
	c1.609-1.3,1.729-1.97,0.71-3.72c-0.08-0.14-0.141-0.28-0.16-0.44C492.09,275.93,492.21,275.87,492.32,275.8z"/>
<path fill="#81B96E" d="M511.96,282.05c-0.97-1.05-0.97-1.05-0.49-1.47c1.32,0.8,2.681,0.9,4.09,0.279
	c0.12-0.01,0.24-0.01,0.36-0.029c0.57-0.1,1.14-0.2,1.71-0.301c-0.07,0.781-0.66,1.221-1.13,1.73
	C514.95,282.84,513.43,282.971,511.96,282.05z"/>
<path fill="#F3C321" d="M478.6,275.3c-0.42,0.35-0.52,0.33-0.46,0.06c0.311-1.4-0.64-1.79-1.659-2.14
	c-0.141-0.05-0.271-0.14-0.41-0.21c0.069-0.08,0.13-0.21,0.22-0.24c1.15-0.32,2.24-0.89,3.479-0.88c0.24,0,0.29,0.13,0.181,0.28
	c-0.391,0.54-0.88,1.04-0.11,1.69c0.13,0.12-0.24,0.19-0.41,0.23c-0.399,0.09-0.949,0.04-0.77,0.74
	C478.62,274.99,478.6,275.14,478.6,275.3z"/>
<path fill="#F4A629" d="M454.01,275.6c0.471,0.36,1.75-0.02,1.73,0.95c-0.021,0.92-0.96,2.09-1.75,1.99
	c-0.96-0.12-0.78-1.47-0.851-2.37C453.1,275.63,453.36,275.46,454.01,275.6z"/>
<path fill="#CD8CB9" d="M443.08,283.49c-0.98-0.2-1.9,0.34-2.93,0.14c-1.45-0.271-2.561-0.909-3.391-2.09
	c0.25-0.49,0.51-0.979,0.76-1.48c0.261,2.161,2.421,3.02,4.181,2.879c0.46-0.039,0.93-0.109,1.39-0.17
	C443.09,283.01,443.09,283.25,443.08,283.49z"/>
<path fill="#A04288" d="M500.63,278.47c0.58,0.16,1.15,0.44,1.72-0.01c0.391,0.6,0.881,1.15,0.95,1.9
	c-0.729,0.5-1.54,0.201-2.319,0.27c-0.721-0.2-1.4-0.48-2.07-0.8c-0.47-0.31-0.75-0.67-0.271-1.19
	C499.28,278.29,499.99,278.77,500.63,278.47z"/>
<path fill="#F7D89A" d="M481.97,283.82c-0.97,0.58-2.12,0.38-3.149,0.709c-0.08-0.299-0.17-0.609-0.221-0.92
	c-0.09-0.52-0.58-1.18-0.189-1.52c0.3-0.27,0.689,0.49,1.109,0.7c0.301,0.149,0.601,0.271,0.891,0.04
	C481.87,281.68,481.88,282.811,481.97,283.82z"/>
<path fill="#681C53" d="M464.71,286.6c-1.15-0.16-2.3-0.32-3.45-0.47c-0.35-0.04-0.62,0.08-0.66,0.479
	c-0.399-0.399-0.8-0.799-1.199-1.199c-0.08-0.08-0.16-0.17-0.25-0.25l0,0c-0.08-0.08-0.15-0.18-0.25-0.24v0.01
	c-0.101-0.3,0.109-0.35,0.319-0.41c0.11,0,0.21,0.011,0.32,0.03c0.27,0.06,0.54,0.07,0.81,0.06c0.12-0.01,0.23-0.01,0.351,0
	c1.08,0.361,2.27-0.02,3.33,0.521C464.48,285.52,464.99,285.88,464.71,286.6z"/>
<path fill="#924D7B" d="M477.93,283.93c-0.229,0.28-0.55,0.271-0.87,0.28c-2.529,0.08-5.06,0.17-7.59,0.25
	c-0.189,0.11-0.38,0.11-0.5-0.09c-0.14-0.24-0.02-0.45,0.19-0.591c0.46-0.309,0.979-0.459,1.53-0.469
	c2.22,0.1,4.439,0.219,6.63-0.381c0.1-0.08,0.22-0.14,0.35-0.17C477.98,283.09,477.83,283.54,477.93,283.93z"/>
<path fill="#B7DAAB" d="M512.68,277.24c0.051-0.04,0.11-0.05,0.17-0.03c1.061-0.79,1.32-0.73,2.261,0.5
	c0.08-0.02,0.149-0.01,0.22,0.02c0.83,0.45,1,1.07,0.46,1.86c-0.17,0.26-0.35,0.51-0.53,0.77c-0.189,0.58-0.53,0.96-1.2,0.951
	c-0.489-0.011-0.87-0.131-0.899-0.711c-0.01-0.16-0.03-0.31-0.04-0.47c0.229-0.21,0.54-0.13,0.79-0.22
	c0.569-0.22,0.89-0.61,0.609-1.21c-0.27-0.58-0.76-0.65-1.31-0.34c-0.28,0.16-0.45,0.46-0.771,0.57
	c-0.08-0.08-0.159-0.17-0.239-0.25c-0.08-0.08-0.15-0.16-0.21-0.24l-0.011-0.01C511.44,277.57,512.3,277.55,512.68,277.24z"/>
<path fill="#F4C41E" d="M522.26,274.29c0.03-0.57,0.33-1.16-0.24-1.67c-0.22-0.2-0.789-0.21-0.659-0.54
	c0.159-0.4,0.7-0.18,1.069-0.2c0.23-0.01,0.471,0.06,0.71,0.08c0.75,0.08,1.61-0.01,1.381,1.23c-0.091,0.52,0.93,0.95,0.59,1.26
	c-0.311,0.27-0.9-0.51-1.36-0.67c-0.67-0.23-0.83,0.66-1.25,1.03C522.04,274.83,522.17,274.55,522.26,274.29z"/>
<path fill="#C478B0" d="M443.24,273.83c1.479,0.31,2.96,0.6,3.92,1.96c-0.08,0.43-0.16,0.86-0.49,1.19
	c-1.02-0.51-1.83-1.47-3.1-1.43c-0.391-0.41-0.69-0.86-0.78-1.43C442.94,274.02,443.09,273.92,443.24,273.83z"/>
<path fill="#70235A" d="M522.04,287.57c-0.55,0.42-1.47-0.141-1.87,0.689c0.021-1.35-0.689-0.689-1.24-0.439
	c-0.68,0.09-1.34-0.061-1.989-0.2c-0.41-0.091-0.891-0.149-0.9-0.75c0.24-0.24,0.479-0.479,0.72-0.72
	c1.55-0.17,3.08,0.189,4.62,0.18c0.62,0.12,0.53,0.66,0.64,1.08C522.03,287.46,522.04,287.51,522.04,287.57z"/>
<path fill="#C288AD" d="M517.49,284.21c-0.12-0.021-0.24-0.06-0.351-0.05c-0.46,0.029-0.909,0.07-1.37,0.109
	c0.2-0.58,0.681-0.92,1.131-1.289c0.739-0.4,1.529,0,2.29-0.11c0.46-0.07,0.909-0.181,1.369-0.29c0.74-0.02,1.19,0.33,1.381,1.04
	c-0.07,0.56-0.53,0.64-0.94,0.729c-1.04,0.24-2.09,0.28-3.15,0.08C517.71,284.38,517.6,284.3,517.49,284.21z"/>
<path fill="#AC5097" d="M526.12,280.34c0.689-0.58,0.52-1.44,0.75-2.18c0.34,2.41,0.32,4.83-0.05,7.24
	c-0.75,0.26-0.67-0.43-0.891-0.771c-0.12-0.29-0.21-0.59-0.37-0.86c-0.449-0.779-0.39-1.489,0.221-2.16
	C526.11,281.25,526.36,280.85,526.12,280.34z"/>
<path fill="#EABCD5" d="M484.38,276.08c-1.67-0.62-3.41-0.1-5.1-0.3c1.22-1.66,3.6-1.96,5.09-0.63
	C484.72,275.46,484.65,275.77,484.38,276.08z"/>
<path fill="#FCE2B4" d="M503.99,272.5c0.84-0.14,1.67-0.14,2.47,0.2c0.46,0.3,0.85,0.65,0.63,1.27c-0.16,0.45-0.5,0.6-0.95,0.47
	c-0.67-0.25-1.37-0.29-2.08-0.25c-0.55,0.15-0.72-0.19-0.779-0.63C503.21,273.01,503.41,272.62,503.99,272.5z"/>
<path fill="#EAB9D4" d="M491.98,276c1.939,1.57,1.51,3.41-1.131,4.84c-0.05-0.02-0.1-0.05-0.149-0.07
	c-0.13-0.1-0.24-0.229-0.32-0.379c-0.13-0.25-0.26-0.51,0.01-0.75c0.87,0.17,1.53-0.21,1.75-0.99c0.311-1.13-0.489-1.81-1.319-2.39
	C491.2,276.17,491.59,276.08,491.98,276z"/>
<path fill="#802F69" d="M433.24,288.29c0.08-0.021,0.16-0.03,0.25-0.05c1.24-0.07,1.6-1.23,2.37-1.881
	c0.1-0.079,0.189-0.149,0.26-0.26H436.1c0.681-0.189,1.381-0.57,1.931,0.26c-0.09,0.391-0.181,0.791-0.261,1.181
	c-0.909,0.319-1.84,0.59-2.6,1.229C434.53,288.561,433.7,289.21,433.24,288.29z"/>
<path fill="#4AA95F" d="M514.39,274.84c0.95,0.67,1.61-0.21,2.391-0.46c0.25-0.08,0.47-0.35,0.77-0.15
	c-0.14,0.19-0.25,0.4-0.42,0.56c-0.51,0.5-1.04,0.98-1.569,1.47c-0.98-0.2-1.98-0.01-2.961-0.21c-0.18-0.15-0.39-0.28-0.539-0.45
	c-0.221-0.25-0.681-0.51-0.45-0.85c0.22-0.33,0.56,0.08,0.81,0.2c0.73,0.35,1.29,0.33,1.54-0.57
	C514.27,274.38,514.33,274.6,514.39,274.84z"/>
<path fill="#B662A2" d="M480.97,271.93c0.32-0.69,0.38-1.57,1.45-1.65c1.811-0.13,1.86-0.09,1.89,2.14
	c-0.75-0.08-1.489-0.19-2.25-0.14C481.67,272.31,481.25,272.31,480.97,271.93z"/>
<path fill="#B3D6A6" d="M433.92,280.6c0.24,0.67,0.72,0.371,1.17,0.34c0.44-0.039,0.9-0.68,1.18-0.279
	c0.2,0.29-0.319,0.811-0.659,1.14c-1.2,0.53-2.04,0.37-2.74-0.51c-0.61-0.771-0.62-2.38,0-3.13c0.22-0.27,0.479-0.42,0.82-0.17
	l0.029,0.02c0.101,0.06,0.181,0.16,0.311,0.16c0.14,0.02,0.279,0.03,0.41,0.05c0.1,0.28-0.101,0.45-0.271,0.6
	C433.56,279.34,433.51,279.93,433.92,280.6z"/>
<path fill="#631B4F" d="M516.04,286.859c0.81,0.791,2.05,0.25,2.89,0.951h-0.01c-0.1,0.06-0.16,0.16-0.24,0.229l0,0
	c-0.08,0.08-0.16,0.149-0.239,0.229c-0.631,0.771-2.79,0.811-3.171-0.02C515,287.641,515.6,287.23,516.04,286.859z"/>
<path fill="#CCE5C6" d="M512.43,278.93c0.28-0.88,0.82-1.38,1.761-1.02c0.649,0.25,1.04,0.78,0.739,1.51
	c-0.34,0.82-0.96,1.109-1.819,0.72c-0.15-0.3-0.311-0.61-0.46-0.91C512.62,279.1,512.54,279,512.43,278.93L512.43,278.93z"/>
<path fill="#F3C52A" d="M507.75,273.39c1.55,1,0.46,2.17,0.15,3.24c-0.19,0.65-0.5,1.32-1.15,1.72c0.08-0.57,0.19-1.14,0.22-1.71
	c0.03-0.47-0.04-0.95-0.069-1.42C506.94,274.49,506.82,273.7,507.75,273.39z"/>
<path fill="#EBBFD5" d="M483.38,279.45c0.72,0.6,1.58,0.4,2.41,0.43c0.729,0.03,1.49-0.16,2.18,0.24c0.351,0.61,0,0.94-0.529,1
	c-1.25,0.14-2.511,0.271-3.761,0.01c-0.41-0.09-0.76-0.29-0.54-0.83C483.21,280.02,483.29,279.74,483.38,279.45z"/>
<path fill="#C88FB3" d="M482.69,282.52c-0.03-0.51-0.12-1.029,0.18-1.5c1.16,0.32,2.35,0.291,3.53,0.24
	c0.58-0.029,1.199-0.18,1.67,0.381c0,1.369-1.12,1.02-1.87,1.229C485.04,282.721,483.8,283.279,482.69,282.52z"/>
<path fill="#82316C" d="M506.47,284.439c-0.02-0.069-0.04-0.149-0.05-0.229c-0.11-0.149-0.13-0.3,0.03-0.431
	c0.77-0.689,1.439-1.799,2.63-0.569c0.47,0.47,1.32-0.31,1.68,0.511h0.021c0.06,0.069,0.12,0.149,0.17,0.239
	c0.02,0.08,0.04,0.16,0.06,0.25c-0.04,0.67-0.609,0.479-0.979,0.62c-0.11,0-0.221-0.01-0.33-0.04c-0.101-0.03-0.21-0.08-0.3-0.12
	c-0.48-0.24-0.9-0.73-1.54-0.41c-0.4,0.18-0.551,0.811-1.141,0.65c-0.02-0.07-0.04-0.131-0.05-0.2
	C506.6,284.609,506.54,284.529,506.47,284.439z"/>
<path fill="#96C487" d="M433.69,277.98c-1.181,0.26-1.141,1.31-1.07,2.08c0.07,0.87,0.7,1.59,1.7,1.73
	c0.43,0.06,0.87,0.01,1.31,0.01c-0.24,0.32-0.47,0.64-0.71,0.97c-1.04,0.371-1.89,0.03-2.63-0.709
	c-0.06-1.381-0.021-2.75,0.29-4.101c0.189-0.43,0.22-1.2,0.97-0.46C433.58,277.65,433.64,277.81,433.69,277.98z"/>
<path fill="#BF76AC" d="M480.97,271.93c1.08,0.35,2.36-0.62,3.34,0.49c0.07,0.62-0.43,0.41-0.72,0.51
	c-0.79,0.28-1.76-0.06-2.39,0.78c-0.22,0.3-0.4-0.06-0.54-0.2c-0.51-0.49-0.271-0.92,0.13-1.32
	C480.87,272.11,480.93,272.02,480.97,271.93L480.97,271.93z"/>
<path fill="#9F4889" d="M511.19,282.3c-0.061,0.271-0.25,0.21-0.431,0.171c-0.38-0.181-0.37,0.539-0.76,0.319
	c-0.25-0.13-0.49-0.25-0.73-0.38c-0.569-0.29-1.569-0.29-1.489-1.07c0.069-0.63,1.04-0.529,1.609-0.72
	c1.24-0.4,0.92,1.101,1.61,1.399C511.08,282.109,511.14,282.2,511.19,282.3z"/>
<path fill="#F2C322" d="M451.95,287.54c-0.63-1.72-0.08-3.8,1.26-4.69c0.18-0.119,0.5-0.27,0.6-0.199
	c0.24,0.16,0.04,0.43-0.069,0.629c-0.57,1.091-1.16,2.171-1.29,3.431C452.62,287.18,452.53,287.51,451.95,287.54z"/>
<path fill="#AA5F94" d="M437.55,283.73c1.79,0.74,3.63,0.609,5.47,0.25c-0.079,0.31-0.149,0.629-0.229,0.939
	c-0.09,0.08-0.2,0.141-0.32,0.17c-1.149,0.21-2.31,0.27-3.479,0.1h-0.011c-0.149-0.17-0.3-0.159-0.46-0.01l0,0
	c-0.609,0.141-1.239,0.33-1.489-0.529C437.21,284.33,437.38,284.029,437.55,283.73z"/>
<path fill="#84396D" d="M521.73,286.6c-1.671-0.02-3.351,0.16-4.961-0.459c0.141-0.17,0.28-0.341,0.42-0.511
	c1.601-0.53,3.2-0.58,4.79,0.03C522.26,286.07,522.1,286.359,521.73,286.6z"/>
<path fill="#F7DDAC" d="M485.46,274.84c1.84-1.17,2.81-0.95,3.271,0.73c-0.211-0.05-0.421-0.09-0.631-0.14l-0.029-0.02
	c-0.24-0.23-0.42-0.68-0.811-0.1c-0.42,0.61-1.06,1.01-1.71,1.35c-0.22-0.14-0.29-0.35-0.27-0.59
	C485.32,275.66,485.63,275.29,485.46,274.84z"/>
<path fill="#6E2759" d="M487.72,285.88c-1.09,0.479-2.25,0.05-3.359,0.24c0.22-0.841-0.86-0.8-0.96-1.431
	c0.659-0.609,1.5-0.25,2.239-0.41C486.55,284.529,487.48,284.75,487.72,285.88z"/>
<path fill="#CD8BB9" d="M476.02,273.83c-1.449,0.35-2.92,0.42-4.399,0.52c-0.22-0.77,0.13-1.29,0.77-1.67
	c0.4,0.07,0.79,0.14,1.19,0.21C474.4,273.21,475.21,273.52,476.02,273.83z"/>
<path fill="#F8C720" d="M505.24,288.74c0.229-0.67,0.479-1.33,0.68-2.01c0.09-0.291,0.08-0.61,0.12-0.92
	c0.43,0.14,0.41,0.56,0.49,0.879c0.3,1.201,0.489,2.41-0.33,3.511c-0.08,0.09-0.19,0.159-0.23,0.28l0.021,0.01
	C505.19,290.141,505.04,289.51,505.24,288.74z"/>
<path fill="#70235A" d="M526.07,289.221c-1.061-1.24-2.71-1.031-4.021-1.65l-0.01-0.021c0.09-0.729,0.72-0.76,1.229-0.95
	c1.221,0.18,2.54,0.19,3.061,1.66C526.23,288.58,526.15,288.9,526.07,289.221z"/>
<path fill="#EFC122" d="M439.91,288.971c-0.41-0.301-1.46,0.379-1.33-0.711c0.07-0.6-0.04-1.85,0.53-1.77
	c0.979,0.15,1.33,1.39,1.739,2.25C441.04,289.141,440.27,288.82,439.91,288.971z"/>
<path fill="#B97DA3" d="M477.66,282.75c-0.03,0.07-0.05,0.15-0.061,0.221c-1.739,0.379-3.479,0.67-5.229,0.069
	c-0.311-0.569,0.01-0.931,0.41-1.271c1.2,0.23,2.41,0.131,3.62,0.16c0.39,0.01,0.68-0.13,0.93-0.41h0.07l0.029,0.061
	C477.51,281.971,477.59,282.359,477.66,282.75z"/>
<path fill="#DCABC7" d="M487.95,281.561c-1.45,0-2.9-0.041-4.34,0.039c-0.53,0.03-0.721-0.08-0.73-0.58
	c0.09-0.239,0.17-0.47,0.26-0.709c0.08,0.54,0.48,0.53,0.88,0.53c1.091,0,2.171-0.02,3.261,0c0.52,0.01,0.7-0.25,0.689-0.72l0,0
	c0.12-0.09,0.24-0.08,0.34,0.04C488.56,280.73,488.47,281.2,487.95,281.561z"/>
<path fill="#944B7D" d="M521.97,285.88c-1.569-0.521-3.189-0.09-4.78-0.25c0.03-0.08,0.061-0.159,0.091-0.239
	c0.069-0.08,0.13-0.181,0.17-0.281c0.02-0.299,0.03-0.6,0.05-0.899c0.08-0.021,0.15-0.021,0.229-0.01
	c1.021,0.729,2.16,0.239,3.24,0.329c0.51,0.041,1.03-0.209,1.53,0.061C522.85,285.24,522.62,285.641,521.97,285.88z"/>
<path fill="#E2B4CD" d="M520.65,282.68c-1.181,1.041-2.48,0.49-3.75,0.301c0.05-0.07,0.109-0.15,0.17-0.221
	c0.029-0.09,0.09-0.17,0.18-0.21c0.3-0.36,0.6-0.72,0.9-1.079c0.479,0.77,1.09,0.739,1.76,0.279
	C520.45,281.83,520.61,282.21,520.65,282.68z"/>
<path fill="#A95D98" d="M487.26,270.5c0.63,0.19,1.8-0.14,1.74,0.27c-0.11,0.77-1.18,1.03-1.93,1.09
	c-0.681,0.06-1.551-0.65-1.42-1.18C485.85,269.95,486.74,270.82,487.26,270.5z"/>
<path fill="#C37FB0" d="M447.86,277.68c-0.011-0.07,0.01-0.13,0.06-0.19c0.67,0.07,0.71,0.43,0.44,0.94c-0.301,0.4-0.4,0.8,0,1.2
	c0.42,0.79,0.239,1.3-0.7,1.431c-1.851-1.061-0.12-2.081,0.03-3.121C447.75,277.86,447.81,277.77,447.86,277.68z"/>
<path fill="#BD79AB" d="M458.17,280.36c-0.97,0.27-0.71-0.62-0.97-1.03c0.5-0.69,0.99-1.39,1.49-2.08
	c0.04,0.04,0.079,0.07,0.119,0.11c0.36,0.44,0,1.06,0.381,1.5c0.149,0.31,0.119,0.62,0.05,0.95
	C458.98,280.18,458.71,280.55,458.17,280.36z"/>
<path fill="#F0C223" d="M519.63,290.609c-0.53-0.379-1.66,0.211-1.729-0.629c-0.03-0.44,0.989-1.291,1.609-1.351
	c0.431-0.05,0.63,1.08,0.771,1.72C520.39,290.8,519.91,290.54,519.63,290.609z"/>
<path fill="#6C2458" d="M435.16,288.77c0.52-1.14,1.479-1.35,2.6-1.22C437.8,289,437,289.37,435.16,288.77z"/>
<path fill="#D69BC2" d="M520.8,276.27c-0.66-1.53-2.05-0.75-3.12-0.97c0.32-0.32,0.641-0.64,0.96-0.96
	c1.551-0.69,2.521-0.18,2.49,1.3C521.02,275.85,520.91,276.06,520.8,276.27z"/>
<path fill="#6B2357" d="M500.66,282.54c0.81-0.601,1.88,0.11,2.689-0.521c0.19,0.34,0.431,0.66,0.551,1.03
	c0.159,0.46-0.381,0.81-0.511,0.591c-0.56-0.961-0.859,0.149-1.279,0.08c-0.03-0.48-0.37-0.471-0.721-0.471
	C501.02,283.15,500.65,283.05,500.66,282.54z"/>
<path fill="#F9DFB0" d="M455.73,275.13c-0.461-0.11-0.931-0.22-1.391-0.33c-0.38-0.14-0.96-0.06-0.85-0.73
	c0.09-0.56,0.51-0.77,1.04-0.79c0.7-0.02,1.399,0.08,1.7,0.81C456.39,274.5,456.48,275.07,455.73,275.13z"/>
<path fill="#883B73" d="M526.18,284.43c0.351,0.23-0.02,0.93,0.641,0.961c0.149,0.739-0.21,1.42-0.29,2.129
	c-0.82-0.459-1.75-0.709-2.391-1.459C524.52,285.141,525.69,285.21,526.18,284.43z"/>
<path fill="#F6D692" d="M455.73,275.13c0.5-1.04,0.14-1.68-0.94-1.73c-0.49-0.02-0.86,0.17-1.06,0.6c-0.28,0.6,0.42,0.52,0.609,0.8
	c-0.56,0.03-1.109,0.06-1.67,0.08c0.17-0.55,0.49-1.08,0.22-1.68c1.08-0.16,2.141-0.17,3.17,0.25c0.96,0.81,0.971,1.31,0.021,1.87
	C455.97,275.26,455.85,275.2,455.73,275.13z"/>
<path fill="#5A9350" d="M511.96,282.05c1.49,0.421,3.021,0.171,4.53,0.21c-0.26,0.49-0.641,0.83-1.15,1.03
	c-0.97,0.03-1.939,0.12-2.859-0.32C512.3,282.67,512.13,282.359,511.96,282.05z"/>
<path fill="#4E3E46" d="M471.14,290.21c0.44,0,0.88-0.06,1.301,0.011c1.43,0.239,1.93-0.351,1.63-1.721
	c0.47,0.38,0.01,1.05,0.439,1.439c1.34,0.561,2.74,0.181,4.11,0.211c0.57,0.02,0.439-0.561,0.45-0.94c0.02-0.479,0-0.96,0-1.44
	c0.739,2.08,0.39,2.701-1.681,2.631C475.31,290.35,473.21,290.75,471.14,290.21z"/>
<path fill="#C17FAF" d="M521.13,275.64c-0.22-1.6-1.439-1.3-2.49-1.3c0.15-0.21,0.301-0.42,0.45-0.63c0.19-0.71,0.75-0.58,1.24-0.5
	c0.65,0.11,1.04,0.51,1.04,1.2C521.34,274.83,521.4,275.26,521.13,275.64z"/>
<path fill="#F4C41D" d="M503.54,278.91c-1.06-1.42-1.42-3.02-1.18-4.77c0.79,0.01,0.77,0.62,0.84,1.15
	c0.069,0.57-0.13,1.17,0.12,1.73c0.17,0.53,0.35,1.06,0.529,1.59C503.96,278.92,503.8,278.97,503.54,278.91z"/>
<path fill="#894574" d="M485.79,284.5c-0.771,0.37-1.6,0.08-2.39,0.189c-0.391-0.41-0.66-0.869-0.67-1.449
	c0.68-0.19,1.369-0.09,2.06-0.1C485.26,283.49,485.69,283.88,485.79,284.5z"/>
<path fill="#A96098" d="M511.54,279.92c-0.31-0.19-1.04,0.05-0.89-0.34c0.409-1.12-1.73-0.34-1.03-1.53c0.31-0.54,0.57-0.73,1-0.12
	c0.37,0.52,0.81,0.98,1.2,1.48c0.09,0.11,0.149,0.26,0.22,0.39C511.87,279.83,511.69,279.88,511.54,279.92z"/>
<path fill="#5EA959" d="M432.82,276.52c-0.051-1.3,0.979-1.41,1.859-1.69c0.36,0.02,0.681,0.12,0.82,0.5
	c-0.35,0.39-0.7,0.79-1.06,1.18C433.9,276.49,433.36,276.9,432.82,276.52z"/>
<path fill="#E8A02D" d="M455.11,284.37c0.01,0.61-0.15,1.09-0.521,1.479c-0.33,0.34-0.81,0.851-1.18,0.551
	c-0.521-0.42,0.12-0.82,0.399-1.131c0.28-0.31,0.44-0.619,0.49-1.039c0.04-0.33,0.01-0.931,0.38-0.881
	C455.16,283.42,455.07,284.029,455.11,284.37z"/>
<path fill="#C7E0BF" d="M433.92,280.6c-1.1-0.68-0.99-1.189,0.521-2.39c0.079-0.01,0.159-0.02,0.229-0.03
	c0.35,0.1,0.78,0.15,0.47,0.7C434.74,279.45,434.33,280.02,433.92,280.6z"/>
<path fill="#97C586" d="M513.15,280.6c0.819,0.95,1.46,0.34,2.1-0.24c0.1,0.17,0.2,0.33,0.3,0.5c-0.92,1.15-3.01,1-4.09-0.279
	C512.03,280.59,512.59,280.6,513.15,280.6z"/>
<path fill="#7D2B66" d="M524.17,286.109c0.85,0.36,1.88,0.431,2.36,1.41c-0.07,0.25-0.141,0.49-0.21,0.74
	c-0.811-0.949-1.92-1.24-3.08-1.42C523.23,286.189,523.49,285.88,524.17,286.109z"/>
<path fill="#EAA22F" d="M453.84,281.5c-0.54,0.12-0.71-0.05-0.71-0.529c-0.01-0.991,0.76-0.971,1.38-1.101
	c0.24-0.05,0.7-0.07,0.561,0.33C454.86,280.811,454.86,281.76,453.84,281.5z"/>
<path fill="#974980" d="M437.03,284.641c0.39,0.479,1.069,0.149,1.489,0.529c-0.17,0.4-0.329,0.79-0.5,1.189
	c-0.579-0.549-1.329,0.201-1.93-0.26C436.26,285.52,436.61,285.05,437.03,284.641z"/>
<path fill="#AB6C95" d="M484.86,283.27c-0.71,0.28-1.431,0.36-2.141-0.02c-0.01-0.24-0.02-0.48-0.029-0.73
	c1.199,0,2.399,0.01,3.59,0.01C486.07,283.279,485.49,283.311,484.86,283.27z"/>
<path fill="#B668A2" d="M447.67,281.07c0.6-0.301,0.75-0.811,0.7-1.43c0.56,0.09,1.11,0.19,1.67,0.28
	c-0.4,0.65-0.81,1.311-1.21,1.96C448.44,281.609,448.05,281.34,447.67,281.07z"/>
<path fill="#772C61" d="M451.01,285.2c-0.58-1.21-1.45-0.13-2.16-0.28l-0.01-0.01c0.47-0.939,1.351-1.41,2.21-1.91
	c0.32-0.05,0.62-0.02,0.86,0.23C451.6,283.891,451.3,284.55,451.01,285.2z"/>
<path fill="#974980" d="M438.99,285.18c1.18-0.459,2.399-0.229,3.609-0.25c0.24,0.391,0,0.631-0.319,0.711
	c-0.83,0.189-1.65,0.56-2.521,0.229C439.5,285.641,439.25,285.41,438.99,285.18z"/>
<path fill="#8B3573" d="M500.86,280.39c0.81-0.01,1.62-0.02,2.439-0.03c-0.06,0.31-0.13,0.63-0.189,0.94
	c-0.83,0.04-1.66,0.16-2.45-0.239C500.55,280.779,500.64,280.57,500.86,280.39z"/>
<path fill="#5F9456" d="M432.28,282.04c0.88,0.239,1.75,0.479,2.63,0.71c-0.15,0.25-0.3,0.49-0.45,0.74
	c-0.79,0.47-1.479,0.16-2.16-0.26C432.29,282.84,432.28,282.439,432.28,282.04z"/>
<path fill="#D9A0C5" d="M522.45,275.99c0.729,0.36,1.68,0.61,0.79,1.71c0.149,0.43,0,0.7-0.45,0.79c0.01-0.89-0.32-1.55-1.271-1.75
	C521.83,276.49,522.14,276.24,522.45,275.99z"/>
<path fill="#893E72" d="M439.76,285.859c0.87-0.539,2.13,0.091,2.84-0.939c0.061-0.01,0.131-0.01,0.19-0.01
	c0.07,0.25-0.04,0.56,0.28,0.71c-0.83,0.76-1.91,0.521-2.87,0.75C440.06,286.2,439.91,286.029,439.76,285.859z"/>
<path fill="#692355" d="M509.82,284.68c0.399-0.16,0.79-0.32,1.189-0.479c0.4,0.56,0.8,1.11,1.2,1.67
	c-0.56-0.08-1.13-0.16-1.69-0.24C510.05,285.49,509.68,285.26,509.82,284.68z"/>
<path fill="#A25C93" d="M479.83,270.34c0.01,0,0.15,0.04,0.3,0.08c-0.06,0.13-0.09,0.31-0.2,0.38c-0.35,0.24-0.71,0.58-1.1,0.64
	c-0.46,0.07-1.08-0.15-1.101-0.68c-0.01-0.47,0.57-0.19,0.891-0.26C478.97,270.43,479.33,270.41,479.83,270.34z"/>
<path fill="#A55E95" d="M526.62,273.67c-0.11,0.3,0.04,0.9-0.05,0.82c-0.471-0.38-0.9-0.88-1.15-1.42
	c-0.11-0.24,0.19-0.92,0.62-0.85C526.94,272.36,526.4,273.2,526.62,273.67z"/>
<path fill="#924B7F" d="M456.32,282.029c0.47-0.02,0.939-0.039,1.41-0.059c0.109,0.459,0.38,0.859,0.5,1.319
	c0.039,0.11,0.06,0.21,0.079,0.319c0.011,0.111,0,0.221-0.04,0.33c-0.25,0.371-0.51,0.44-0.779,0.011l-0.01-0.011
	c-0.08-0.069-0.141-0.14-0.181-0.239C456.97,283.15,456.65,282.59,456.32,282.029z"/>
<path fill="#72AB62" d="M515.77,277.68c0.721-0.21,1.431-0.43,2.15-0.62c0.17-0.04,0.37,0.03,0.55,0.05
	c-0.1,0.16-0.159,0.36-0.3,0.48c-0.46,0.38-0.939,0.72-1.41,1.08C516.41,278.35,516.04,278.06,515.77,277.68z"/>
<path fill="#D3A3BF" d="M478.82,281.34c0.81-0.3,1.649-0.3,2.5-0.21C480.3,282.391,479.81,282.439,478.82,281.34z"/>
<path fill="#70BD75" d="M512.6,276.06c1.011-0.27,2.03-0.65,2.96,0.21c-0.14,0.17-0.29,0.34-0.43,0.51
	c-0.76,0.04-1.49-0.15-2.24-0.25C512.8,276.37,512.7,276.21,512.6,276.06z"/>
<path fill="#6C2959" d="M506.72,284.9c0.3-0.311,0.601-0.631,0.9-0.94c0.399,0.58,0.78,1.17,0.74,1.92
	c-0.32,0.14-0.471,0.38-0.48,0.72C507.43,286.08,506.93,285.58,506.72,284.9z"/>
<path fill="#F9CB43" d="M505.24,288.74c0.25,0.58,0.5,1.17,0.74,1.75c-0.171,0.43-0.511,0.68-0.931,0.85
	c-0.149-0.63,0.19-1.369-0.43-1.9C504.83,289.2,505.04,288.971,505.24,288.74z"/>
<path fill="#249052" d="M514.39,274.84c-0.14-0.15-0.279-0.3-0.42-0.45c0.05-0.17,0.101-0.34,0.16-0.51c0.26-0.3,0.01-0.7,0.21-1.01
	c0.03-0.32,0.03-0.77,0.42-0.73c0.4,0.04,0.351,0.49,0.26,0.79C514.83,273.57,514.6,274.2,514.39,274.84z"/>
<path fill="#F8D275" d="M503.99,272.5c-0.55,0.58-0.8,1.16,0.069,1.68c-0.189,0.23-0.38,0.45-0.579,0.68
	c-0.921-0.24-0.66-1.09-0.87-1.69C502.84,272.47,503.4,272.44,503.99,272.5z"/>
<path fill="#427D43" d="M512.48,282.98c0.96,0,1.949-0.201,2.859,0.319c-0.17,0.15-0.33,0.29-0.5,0.44
	c-0.63,0.17-1.33-0.29-1.92,0.22l0,0c-0.08,0.08-0.16,0.08-0.24,0.011c-0.08-0.011-0.149-0.011-0.22-0.021
	c-0.03-0.03-0.07-0.07-0.1-0.101c0.029-0.039,0.06-0.069,0.1-0.109C512.85,283.5,512.46,283.23,512.48,282.98z"/>
<path fill="#81B770" d="M432.82,276.52c0.54-0.07,1.08-0.52,1.63-0.01l-0.021,0.02c-0.069,0.07-0.14,0.15-0.21,0.22
	c-0.229,0.25-0.46,0.49-0.68,0.74c-0.56-0.36-0.7,0.18-0.97,0.46C432.65,277.47,432.73,276.99,432.82,276.52z"/>
<path fill="#4D3846" d="M480.99,290.21c2.25,0,4.49,0,6.74,0C485.48,290.59,483.24,290.59,480.99,290.21z"/>
<path fill="#93C284" d="M515.77,277.68c0.631,0.03,1.07,0.25,0.99,0.98c-0.33,0.31-0.649,0.62-0.979,0.93
	c0.08-0.68,0.05-1.33-0.46-1.86C515.47,277.71,515.62,277.7,515.77,277.68z"/>
<path fill="#93C98F" d="M512.9,276.52c0.81-0.5,1.52-0.11,2.239,0.25c-0.08,0.31-0.46,0.6-0.04,0.93c-0.67-0.51-1.359-1-2.26-0.5
	C512.86,276.98,512.88,276.75,512.9,276.52z"/>
<path fill="#E5BA25" d="M442.73,289.07c-0.261-0.08-0.601,0.13-0.851-0.16c0.65-0.41,1.311-0.82,1.96-1.221
	c0,0,0.12,0.131,0.13,0.211C444.04,288.52,443.45,289.08,442.73,289.07z"/>
<path fill="#266036" d="M434.68,284.439c-0.39,0.23-0.85,0.381-1.239,0.181c-1.07-0.57-0.94,0.159-0.921,0.8
	c-0.409-0.43-0.18-0.97-0.22-1.46c0.8-0.649,1.49-0.37,2.141,0.25C434.52,284.279,434.6,284.359,434.68,284.439z"/>
<path fill="#F8D47E" d="M507.75,273.39c-0.28,0.61-0.56,1.22-0.85,1.83c-0.261-0.26-0.511-0.52-0.771-0.79
	c1.22-0.37,0.75-1.06,0.33-1.73C506.99,272.74,507.39,273.03,507.75,273.39z"/>
<path fill="#EFC33E" d="M502.62,273.17c0.61,0.4,0.25,1.29,0.87,1.69c-0.24,0.7-0.17,1.43-0.17,2.15c-0.5-0.9,0.04-2.14-0.96-2.87
	C502.31,273.78,502.35,273.45,502.62,273.17z"/>
<path fill="#EFC862" d="M456.09,275.33c0.76-0.63,0.42-1.25-0.02-1.87c0.529,0.09,1.01,0.29,1.399,0.68
	c-0.89,0.32-0.239,1.27-0.71,1.76C456.53,275.71,456.31,275.52,456.09,275.33z"/>
<path fill="#B36BA2" d="M448.36,278.44c0.01-0.39-0.03-0.75-0.44-0.94c0.6-1.02,1.44,0.11,2.11-0.23c0.18,0.48-1.101-0.21-0.49,0.61
	C449.15,278.07,448.76,278.25,448.36,278.44z"/>
<path fill="#417843" d="M434.44,284.2c-0.69-0.31-1.41-0.341-2.141-0.25c0-0.24,0-0.479,0-0.72c0.72,0.09,1.44,0.18,2.16,0.26
	C434.45,283.73,434.44,283.971,434.44,284.2z"/>
<path fill="#356847" d="M434.43,272.33c-0.229,0.55-0.34,1.23-0.97,1.61c-0.04-0.08-0.13-0.19-0.1-0.25
	c0.25-0.62,0.479-1.25,0.81-1.82C434.23,271.75,434.42,272.05,434.43,272.33z"/>
<path fill="#925185" d="M507.88,278.44c0.73,0.71-0.12,1.05-0.38,1.52c-0.03,0.06-0.29,0.04-0.4-0.02
	c-0.21-0.13-0.18-0.34-0.04-0.51c0.271-0.33,0.561-0.66,0.841-0.98L507.88,278.44z"/>
<path fill="#2B6539" d="M512.92,283.96c0.55-0.88,1.24-0.51,1.92-0.22c-0.22,0.38-0.51,0.66-0.96,0.72
	C513.99,283.471,513.2,284.189,512.92,283.96z"/>
<path fill="#CFAB38" d="M495.53,289.1c-0.38,0.5-0.931,0.311-1.34,0.5c-0.16,0.08-0.45,0.15-0.391-0.16
	c0.061-0.35,0.29-0.68,0.72-0.619C494.85,288.87,495.17,289,495.53,289.1z"/>
<path fill="#72305F" d="M457.49,283.96c0.319,0.181,0.569,0.149,0.71-0.229c0.689-0.051,1.08,0.27,1.21,0.939
	c-0.17,0.08-0.33,0.17-0.5,0.25c-0.24-0.08-0.48-0.16-0.72-0.25l0.02,0.01c-0.08-0.09-0.16-0.09-0.24,0h0.021
	C457.69,284.529,457.49,284.311,457.49,283.96z"/>
<path fill="#96C48A" d="M512.68,277.24c-0.17,0.43-0.859,0.55-0.71,1.18c-0.399-0.26-0.989-0.68-0.8-1.02
	C511.45,276.89,512.15,277.23,512.68,277.24z"/>
<path fill="#8E457C" d="M451.9,283.23c-0.301,0-0.601,0.01-0.891,0.01c-0.189-0.34,0.101-0.51,0.25-0.74
	c0.09-0.109,0.17-0.21,0.26-0.32c0.061-0.07,0.141-0.119,0.221-0.149c0.22-0.08,0.45-0.16,0.67-0.24
	c-0.09,0.33-0.18,0.649-0.271,0.979c-0.04,0.09-0.1,0.16-0.17,0.221C451.94,283.08,451.92,283.15,451.9,283.23z"/>
<path fill="#BA7EAA" d="M459.93,275.3c-0.33,0.25-0.649,0.5-0.979,0.74c-0.01-0.48-0.021-0.96-0.03-1.45
	c0.15,0.08,0.3,0.16,0.45,0.24c0.189-0.18,0.37-0.51,0.67-0.25C460.34,274.83,460.08,275.08,459.93,275.3z"/>
<path fill="#378E50" d="M435.5,275.33c-0.27-0.17-0.55-0.34-0.82-0.5c0.13-0.08,0.25-0.21,0.391-0.23c0.35-0.04,0.739-0.6,1-0.18
	C436.28,274.77,435.76,275.06,435.5,275.33z"/>
<path fill="#EECA72" d="M451.95,287.54c0.34-0.17,0.39-0.53,0.5-0.83c0.149,0.12,0.31,0.229,0.46,0.351
	c-0.25,0.459-0.24,0.959-0.23,1.449C452.25,288.33,452.04,287.98,451.95,287.54z"/>
<path fill="#754F6C" d="M510.01,282.79c0.28-0.04,0.3-0.7,0.76-0.319c-0.47,0.42,0.141,0.84-0.01,1.25
	c-0.479-0.441-1.229,0.01-1.68-0.511C509.42,283.141,509.98,283.54,510.01,282.79z"/>
<path fill="#7B707C" d="M508.81,276.26c0.101,0.1,0.21,0.2,0.311,0.31c-0.561,0.53-0.51,1.46-1.24,1.87l0.01,0.01
	C507.99,277.63,508.41,276.95,508.81,276.26z"/>
<path fill="#E6BC34" d="M489.65,275.51c-0.08-0.37-0.16-0.74-0.24-1.12c0.43,0.18,1.02,0.3,1.109,0.76
	C490.57,275.44,490,275.5,489.65,275.51z"/>
<path fill="#D5B140" d="M449.56,279.22c-0.189-0.08-0.59,0.11-0.489-0.25c0.09-0.33,0.51-0.31,0.819-0.32
	c0.21,0,0.601-0.07,0.551,0.2C450.36,279.3,449.88,279.15,449.56,279.22z"/>
<path fill="#C478B0" d="M442.3,275.83c0.12-0.39-0.05-0.73-0.2-1.08c0.17-0.14,0.341-0.28,0.511-0.42
	c-0.021,0.89-0.03,1.77-0.051,2.66c-0.029,0.03-0.06,0.06-0.1,0.08c-0.03-0.03-0.06-0.06-0.1-0.08
	C442.34,276.61,442.32,276.22,442.3,275.83z"/>
<path fill="#385C40" d="M516.28,285.689c-0.12-0.819-0.771-0.42-1.2-0.52c0.28-0.109,0.56-0.21,0.84-0.32
	c0.25-0.1,0.561-0.279,0.74,0C516.9,285.24,516.56,285.471,516.28,285.689z"/>
<path fill="#395C3F" d="M435.88,285.18c-0.04-0.83-0.96-0.25-1.2-0.75c0.28-0.02,0.561-0.02,0.83-0.06
	c0.25-0.04,0.57-0.33,0.74,0.01C436.4,284.7,436.11,284.96,435.88,285.18z"/>
<path fill="#4C3644" d="M488.44,290.189c0.93-0.469,1.92-0.119,2.88-0.229C490.39,290.45,489.4,290.1,488.44,290.189z"/>
<path fill="#B3D6A6" d="M435.15,278.88c-0.16-0.23-0.32-0.47-0.471-0.7c0.16-0.07,0.32-0.15,0.48-0.22c0.33-0.17,0.54-0.13,0.55,0.3
	C435.52,278.46,435.33,278.67,435.15,278.88z"/>
<path fill="#82987D" d="M435.7,278.25c-0.181-0.1-0.37-0.2-0.55-0.3c0.319-0.26,0.71-0.67,1.06-0.43
	C436.41,277.66,435.97,278.06,435.7,278.25z"/>
<path fill="#F3C843" d="M485.28,276.07c0.09,0.2,0.18,0.39,0.27,0.59c-0.2,0.17-0.46,0.55-0.64,0.31
	C484.69,276.67,485.03,276.33,485.28,276.07z"/>
<path fill="#C8A94D" d="M509.74,279.46c-0.46,0.27-0.71,0.44-0.99,0.58c-0.12,0.06-0.4,0.08-0.28-0.14c0.11-0.21,0.4-0.36,0.63-0.48
	C509.21,279.37,509.37,279.43,509.74,279.46z"/>
<path fill="#4F3848" d="M513.37,289.73c0.649,0,1.3-0.01,1.95-0.01C514.67,290.08,514.02,290.1,513.37,289.73z"/>
<path fill="#987C53" d="M433.75,270.33c-0.09-0.09-0.19-0.19-0.28-0.28c0.19-0.31,0.45-0.7,0.79-0.39
	C434.42,269.81,433.99,270.14,433.75,270.33z"/>
<path fill="#7E687D" d="M448.15,270.5c-0.16,0.07-0.311,0.15-0.471,0.22c-0.279-0.09-0.63-0.03-0.77-0.4
	C447.34,270.22,447.77,270.19,448.15,270.5z"/>
<path fill="#A7924E" d="M503.54,278.91c0.1-0.1,0.2-0.2,0.31-0.31c0.19,0.26,0.61,0.54,0.311,0.83
	C503.97,279.59,503.67,279.19,503.54,278.91z"/>
<path fill="#425C44" d="M512.2,283.73c-0.08,0.17-0.16,0.33-0.23,0.5c-0.18-0.201-0.5-0.42-0.239-0.67
	c0.21-0.211,0.52-0.08,0.72,0.18l0,0C512.36,283.811,512.27,283.811,512.2,283.73z"/>
<path fill="#6D596A" d="M435.39,276.51c0.091,0.1,0.19,0.19,0.28,0.29c-0.17,0.19-0.35,0.56-0.63,0.23
	C434.89,276.85,435.17,276.62,435.39,276.51z"/>
<path fill="#C1A653" d="M522.26,274.29c0.08,0.17,0.17,0.35,0.25,0.52c-0.12,0.13-0.24,0.25-0.359,0.38
	C521.87,274.85,522.07,274.57,522.26,274.29z"/>
<path fill="#BA7EAA" d="M458.91,276.26c0.06,0.16,0.12,0.33,0.18,0.49c0.17,0.43-0.05,0.52-0.42,0.49l0.021,0.01
	C458.67,276.9,458.65,276.55,458.91,276.26z"/>
<path fill="#4D855D" d="M514.33,272.87c0,0.35,0.13,0.73-0.21,1.01C514.13,273.53,514.04,273.16,514.33,272.87z"/>
<path fill="#FEC70A" d="M478.6,275.3c-0.279-0.19-0.199-0.33,0.051-0.46C478.9,275.02,478.78,275.16,478.6,275.3z"/>
<path fill="#4C4C4E" d="M516.46,289.52c-0.05,0.041-0.1,0.11-0.15,0.11c-0.06,0-0.119-0.069-0.17-0.101
	c0.061-0.06,0.12-0.129,0.181-0.189C516.36,289.4,516.4,289.45,516.46,289.52z"/>
<path fill="#B29B5A" d="M452.37,278.47c0.12-0.02,0.25-0.04,0.37-0.06c0.04,0.12,0.12,0.33,0.109,0.34
	C452.58,278.85,452.48,278.65,452.37,278.47z"/>
<path fill="#6D2357" d="M474.28,287.08c0.08,0.16,0.16,0.33,0.229,0.49C474.44,287.41,474.36,287.24,474.28,287.08z"/>
<path fill="#6B2357" d="M501.4,284.23c0.149-0.09,0.31-0.181,0.46-0.271C501.71,284.05,501.55,284.141,501.4,284.23z"/>
<path fill="#EABCD5" d="M484.11,276.74c0.069-0.15,0.13-0.31,0.199-0.46C484.25,276.44,484.18,276.59,484.11,276.74z"/>
<path fill="#A04288" d="M502.34,278.44c-0.07-0.17-0.14-0.33-0.21-0.5C502.21,278.11,502.28,278.27,502.34,278.44z"/>
<path fill="#EECA72" d="M452.69,288.52c0.14,0.07,0.29,0.141,0.43,0.211C452.98,288.66,452.84,288.59,452.69,288.52z"/>
<path fill="#4F3848" d="M515.32,289.48c-0.16-0.09-0.32-0.181-0.48-0.271C515,289.3,515.16,289.391,515.32,289.48z"/>
<path fill="#6C2959" d="M506.45,283.779c-0.01,0.141-0.021,0.291-0.03,0.431C506.23,284.061,506.15,283.91,506.45,283.779z"/>
<path fill="#974980" d="M438.53,285.17c0.16-0.25,0.31-0.25,0.46,0.01C438.83,285.17,438.68,285.17,438.53,285.17z"/>
<path fill="#6D2357" d="M474.04,286.6c0.08,0.16,0.16,0.32,0.24,0.471C474.2,286.92,474.12,286.76,474.04,286.6z"/>
<path fill="#6C2959" d="M506.47,284.439c0.061,0.08,0.13,0.17,0.19,0.25C506.6,284.609,506.54,284.529,506.47,284.439z"/>
<path fill="#B7DAAB" d="M512.43,278.93c0.07,0.1,0.141,0.2,0.221,0.3C512.58,279.13,512.5,279.03,512.43,278.93z"/>
<path fill="#96C48A" d="M511.98,278.43c0.069,0.08,0.14,0.16,0.21,0.24C512.12,278.6,512.05,278.51,511.98,278.43z"/>
<path fill="#96C487" d="M434.02,278.16c-0.1-0.05-0.21-0.11-0.31-0.16C433.82,278.05,433.92,278.1,434.02,278.16z"/>
<path fill="#72305F" d="M458.91,284.92c0.08,0.08,0.17,0.16,0.25,0.24C459.08,285.08,458.99,285,458.91,284.92z"/>
<path fill="#72305F" d="M459.15,285.16c0.08,0.08,0.159,0.17,0.25,0.25C459.32,285.33,459.24,285.24,459.15,285.16z"/>
<path fill="#84396D" d="M517.44,285.109c-0.061,0.091-0.12,0.19-0.171,0.281C517.33,285.3,517.38,285.21,517.44,285.109z"/>
<path fill="#5EA959" d="M434.22,276.75c0.07-0.07,0.141-0.15,0.21-0.22C434.35,276.61,434.29,276.68,434.22,276.75z"/>
<path fill="#CD8CB9" d="M437.56,279.64c0.03,0.05,0.07,0.11,0.101,0.17c0,0.01-0.05,0.05-0.08,0.07
	C437.56,279.8,437.55,279.72,437.56,279.64z"/>
<path fill="#692355" d="M512.44,286.12c-0.08-0.08-0.16-0.16-0.24-0.24C512.28,285.96,512.36,286.04,512.44,286.12z"/>
<path fill="#974980" d="M436.12,286.1c-0.09,0.08-0.17,0.17-0.26,0.26C435.94,286.27,436.03,286.189,436.12,286.1z"/>
<path fill="#72305F" d="M457.3,283.721c0.061,0.079,0.12,0.159,0.181,0.239C457.42,283.88,457.36,283.8,457.3,283.721z"/>
<path fill="#F3C843" d="M488.07,275.41l0.029,0.02L488.07,275.41z"/>
<path fill="#692355" d="M512.7,286.359c-0.08-0.08-0.17-0.159-0.25-0.239C512.53,286.2,512.61,286.279,512.7,286.359z"/>
<path fill="#B85DA3" d="M497.06,273.23c-0.069-0.03-0.14-0.06-0.22-0.09C496.93,273.15,497,273.18,497.06,273.23z"/>
<path fill="#6B2357" d="M501.88,283.939c0.08-0.069,0.15-0.149,0.23-0.219C502.04,283.79,501.96,283.87,501.88,283.939z"/>
<path fill="#6A1B54" d="M450.53,286.609c0.08-0.08,0.16-0.159,0.239-0.239C450.68,286.45,450.6,286.529,450.53,286.609z"/>
<path fill="#EBBFD5" d="M482.92,279.58c0.1-0.05,0.2-0.1,0.3-0.15C483.13,279.48,483.03,279.53,482.92,279.58z"/>
<path fill="#6A1B54" d="M450.28,286.84c0.08-0.08,0.16-0.16,0.239-0.24C450.44,286.689,450.36,286.76,450.28,286.84z"/>
<path fill="#C288AD" d="M517.25,282.55c-0.06,0.07-0.12,0.14-0.18,0.21C517.13,282.7,517.19,282.62,517.25,282.55z"/>
<path fill="#6D2357" d="M475.2,286.83c-0.021-0.061-0.04-0.12-0.05-0.18c0-0.01,0.06-0.041,0.09-0.051
	C475.24,286.68,475.23,286.76,475.2,286.83z"/>
<path fill="#6C2959" d="M507.88,286.6c0.08,0.08,0.16,0.16,0.24,0.24C508.04,286.76,507.96,286.68,507.88,286.6z"/>
<path fill="#6A1B54" d="M450.04,287.09c0.08-0.08,0.16-0.17,0.24-0.25C450.2,286.93,450.12,287.01,450.04,287.09z"/>
<path fill="#C271AE" d="M489.37,272.88c-0.061,0.09-0.13,0.18-0.19,0.27C489.24,273.06,489.3,272.97,489.37,272.88z"/>
<path fill="#6D2357" d="M472.12,287.09c0.08-0.08,0.16-0.16,0.25-0.25C472.29,286.92,472.2,287.01,472.12,287.09z"/>
<path fill="#6C2959" d="M508.12,286.84c0.08,0.08,0.16,0.17,0.24,0.25C508.28,287,508.2,286.92,508.12,286.84z"/>
<path fill="#692355" d="M510.95,283.96c-0.061-0.08-0.12-0.16-0.17-0.239C510.83,283.8,510.89,283.88,510.95,283.96z"/>
<path fill="#6D2357" d="M471.88,287.359c0.08-0.09,0.16-0.18,0.24-0.27C472.05,287.17,471.96,287.27,471.88,287.359z"/>
<path fill="#B662A2" d="M480.98,271.93c-0.061,0.08-0.12,0.17-0.181,0.25C480.86,272.1,480.92,272.02,480.98,271.93z"/>
<path fill="#772C61" d="M451.97,283c0.061-0.08,0.11-0.15,0.17-0.23C452.08,282.85,452.02,282.92,451.97,283z"/>
<path fill="#6D2357" d="M474.55,287.811c0.03,0.049,0.061,0.09,0.09,0.14c0,0.01-0.04,0.04-0.06,0.069
	C474.55,287.95,474.54,287.88,474.55,287.811z"/>
<path fill="#754F6C" d="M511.19,282.3c-0.061-0.09-0.131-0.18-0.19-0.28C511.07,282.109,511.13,282.2,511.19,282.3z"/>
<path fill="#70235A" d="M518.68,288.04c0.08-0.08,0.16-0.16,0.24-0.229C518.84,287.88,518.76,287.96,518.68,288.04z"/>
<path fill="#70235A" d="M518.44,288.279c0.079-0.079,0.159-0.149,0.239-0.229C518.6,288.12,518.52,288.2,518.44,288.279z"/>
<path fill="#4F3848" d="M515.32,289.721c0-0.08,0-0.16,0-0.24C515.49,289.561,515.49,289.641,515.32,289.721z"/>
<path fill="#CC98B7" d="M477.43,281.141c0.061-0.101,0.12-0.201,0.181-0.301C477.55,280.939,477.49,281.04,477.43,281.141z"/>
<path fill="#F9CB43" d="M505.97,290.471c0.08-0.091,0.16-0.181,0.23-0.281C506.13,290.29,506.05,290.38,505.97,290.471z"/>
<path fill="#D3A3BF" d="M478.57,281.09c0.08,0.08,0.17,0.17,0.25,0.25C478.74,281.26,478.66,281.18,478.57,281.09z"/>
<path fill="#231F20" d="M457.96,284.7c0.08-0.21,0.16-0.21,0.24,0C458.12,284.7,458.04,284.7,457.96,284.7z"/>
<path fill="#242021" d="M472.88,281.811c0.061,0.449-0.36,0.609-0.56,0.91c-0.36,0.619-0.96,0.77-1.62,0.809
	c-0.48,0.16-1.01,0.23-1.431,0.49c-0.46,0.28-0.079,0.381,0.2,0.44c0.33,0.41,1.36-0.08,1.2,0.95c-0.24,0.17-0.479,0.35-0.71,0.52
	c-1.229,0.791-2.87,0.94-3.6,2.5c-0.17,0.37-0.311-0.14-0.41-0.27c-0.4-0.53-0.641-1.18-1.23-1.561
	c-0.239-0.399-0.479-0.8-0.72-1.199c-0.24-0.311-0.55-0.57-0.72-0.93c-0.36-0.451-0.08-1-0.23-1.48c-0.03-0.4-0.06-0.79-0.09-1.19
	c-0.1-0.149-0.11-0.31-0.03-0.479c0.471-0.23,0.82-0.471,0.38-1.05c-0.31-0.41-0.569-0.86-0.689-1.38
	c-0.01-0.68,0.38-0.89,0.99-0.88c1.229,0.02,1.229,0.02,0.689-1.13c-0.05-0.09-0.09-0.19-0.14-0.28c-0.05-0.09-0.09-0.18-0.13-0.27
	c-0.101-0.23-0.19-0.45-0.261-0.69c-0.039-0.14-0.05-0.29-0.029-0.43c0.01-0.05,0.02-0.1,0.02-0.14c0.71-0.52,1.34-0.02,2,0.15
	c0.33,0.09,0.811,0.38,0.95,0.26c0.37-0.32-0.12-0.69-0.17-1.05c-0.03-0.19-0.14-0.36-0.22-0.55c-0.271-0.77,0.1-0.95,0.77-0.83
	c0.271,0.05,0.51,0.22,0.74,0.38c0.7,0.5,1.3,0.61,1.64-0.4c0.11-0.32,0.33-0.56,0.73-0.38c0.729-0.02,1.49-1.05,2.2,0.04
	c-0.25,0.56-0.511,1.11-0.771,1.67c-0.689,0.73-0.43,1.15,0.46,1.17c0.78,0.02,1.57-0.19,2.36-0.2c0.54-0.01,1.229-0.31,1.54,0.49
	c-0.86,0.9-2.021,1.03-3.16,1.22c-0.29,0.05-0.8-0.05-0.8,0.29s0.5,0.19,0.77,0.23c0.67,0.1,1.351,0.11,2.01,0.23
	c0.431,0.08,0.91,0.32,0.931,0.8c0.029,0.47-0.55,0.33-0.83,0.52c-0.2,0.13-0.42,0.21-0.63,0.32c-0.141,0.14-0.36,0.09-0.511,0.22
	c-0.079-0.02-0.149,0-0.21,0.07c-0.25,0.1-0.51,0.18-0.76,0.29c-0.66,0.31-1.31,0.63-1.97,0.95c0.65,0.22,1.3,0.431,1.95,0.649
	c0.1,0.011,0.149,0.041,0.149,0.101C472.92,281.77,472.91,281.811,472.88,281.811z"/>
<path fill="#252122" d="M484.86,283.27c0.479-0.25,0.949-0.49,1.43-0.74c0.58-0.279,1.62,0.221,1.66-0.969
	c0.08-0.48,0.16-0.961,0.24-1.44c-0.061-0.06-0.08-0.12-0.051-0.17c0.03-0.05,0.051-0.07,0.07-0.07c0.021-0.03,0.04-0.07,0.06-0.1
	c0.33-0.46-0.109-1.4,0.61-1.48c0.79-0.09,1.13,0.73,1.5,1.34c0.08,0.24,0.17,0.48,0.25,0.73c0.11,0.14,0.05,0.35,0.21,0.46v0.01
	c0.351,0.93,0.94,0.86,1.54,0.301c0.49-0.461,0.89-1,1.33-1.511c0.32-0.18,0.64-0.35,0.97-0.53c0.24-0.06,0.49-0.15,0.69,0.09
	l-0.01,0.01c-0.03,0.05-0.03,0.1,0,0.15c-0.15,0.24-0.021,0.54-0.181,0.77c-0.04,0.06-0.06,0.13-0.06,0.21
	c-0.101,0.29-0.021,0.619-0.2,0.89c-0.06,0.13-0.13,0.261-0.2,0.39c-0.04,0.08-0.08,0.17-0.13,0.25c-0.09,0.16-0.17,0.33-0.25,0.49
	c-0.06,0.131-0.11,0.26-0.17,0.391c-0.03,0.1-0.05,0.189-0.08,0.289c-0.04,0.311-0.01,0.621-0.08,0.931
	c0.16,0.25,0.32,0.5,0.48,0.75c0.04,0.09,0.1,0.16,0.18,0.21l0.02,0.01c0.381,0.221,0.65,0.49,0.461,0.971
	c-0.011,0.069-0.011,0.149-0.011,0.22c-0.77,0.36-1.63-0.091-2.399,0.25c-1.58,0.18-2.59,1.3-3.75,2.2
	c-0.36,0.279-0.641,0.99-1.09,0.75c-0.471-0.25-0.171-0.94-0.171-1.44c0-0.19,0.101-0.38,0.16-0.569
	c-0.2-0.451,0.101-0.971-0.189-1.41l0,0c-0.511-0.641-1.25-0.971-1.931-1.381C485.42,284.141,484.85,283.92,484.86,283.27z"/>
<path fill="#E9BCD3" d="M473.77,279.63c0.171-0.07,0.341-0.15,0.511-0.22C474.11,279.48,473.94,279.55,473.77,279.63z"/>
<path fill="#EBBFD5" d="M488.21,279.88c-0.01,0.08-0.02,0.16-0.02,0.24c-0.07,0-0.15,0-0.221,0
	C488.04,280.04,488.13,279.96,488.21,279.88z"/>
<path fill="#262223" d="M500.66,282.54c0.25,0.229,0.49,0.47,0.74,0.7l0,0c-0.091,0.07-0.16,0.16-0.24,0.24l0,0
	c-0.08,0.08-0.17,0.149-0.24,0.24c-1.07,0.899-2.24,1.609-3.61,1.939c-0.859,0.16-0.68-0.43-0.579-0.87
	c0.159-0.67,0.76-0.979,1.29-1.31C498.82,282.939,499.64,282.48,500.66,282.54z"/>
<path fill="#681E54" d="M498.02,283.48c-0.31,0.399-0.67,0.779-0.93,1.209c-0.21,0.34-0.54,0.811,0.22,0.98
	c-0.71,0.16-1.479-0.3-2.14,0.221c-0.16-0.32-0.31-0.65-0.46-0.971C495.73,284.26,496.81,283.721,498.02,283.48z"/>
<path fill="#4D3C48" d="M492.75,286.359c0.76-0.5,1.6-0.109,2.4-0.25C494.4,286.63,493.55,286.25,492.75,286.359z"/>
<path fill="#6E2759" d="M487.72,285.88c0.42,0.42,0.181,0.931,0.19,1.41C487.56,286.859,487.78,286.35,487.72,285.88z"/>
<path fill="#6B2357" d="M501.16,283.48c0.08-0.08,0.16-0.16,0.24-0.24C501.32,283.32,501.24,283.4,501.16,283.48z"/>
<path fill="#6B2357" d="M500.92,283.721c0.08-0.08,0.16-0.16,0.24-0.24C501.08,283.561,501,283.641,500.92,283.721z"/>
<path fill="#F1C5DB" d="M439.06,279.69c-0.75-1.15,0.2-1.68,0.9-2.17c0.69-0.49,1.55-0.58,2.41-0.52v0.01
	c0.08,0.07,0.149,0.15,0.2,0.24c0.56,1.97,0.56,1.97-2.32,2.19c-0.23,0.15-0.53,0.02-0.77,0.17
	C439.34,279.63,439.2,279.66,439.06,279.69z"/>
<path fill="#252122" d="M451.73,282.029c-0.021,0.08-0.03,0.15-0.03,0.23c-0.061,0.08-0.13,0.16-0.19,0.25
	c-0.17,0.24-0.34,0.49-0.51,0.73c-0.72,0.56-1.44,1.109-2.17,1.67c-0.41-0.051-0.88,0.15-1.23-0.23
	c-0.229-0.34-0.069-0.66,0.07-0.97c0.24-0.54,0.63-0.93,1.16-1.18c0.01-0.091,0.01-0.181,0.02-0.28c0.62,0.45,1.011-0.23,1.521-0.32
	c0.39-0.07,0.729-0.59,1.18-0.13c0.03,0.101,0.09,0.171,0.18,0.22L451.73,282.029z"/>
<path fill="#FAD682" d="M446.48,278.72c-0.23,0.87-0.931,1.74,0.06,2.58c-0.06,0.31-0.32,0.4-0.55,0.53
	c-0.16,0.01-0.32,0.029-0.48,0.04c-0.8,0.37-1.49,0.351-2.149-0.351c-0.42-0.449-0.73-0.84-0.29-1.43c0.149,0,0.29-0.01,0.439-0.01
	c0.11,0.04,0.2,0.1,0.271,0.19c0.1,0.12,0.18,0.27,0.29,0.38c0.27,0.279,0.59,0.41,0.97,0.229c0.2-0.09,0.29-0.28,0.25-0.5
	c-0.07-0.43-0.38-0.58-0.771-0.61c-0.199-0.01-0.399,0.01-0.6-0.04c-0.05-0.03-0.09-0.07-0.13-0.1c0-0.32,0-0.64,0-0.96
	c0.4-0.4,0.83-0.17,1.26-0.05c0.44,0.31,0.84,0.24,1.2-0.15C446.45,278.41,446.56,278.46,446.48,278.72z"/>
<path fill="#9A5384" d="M448.83,282.529c-0.32,0.4-0.64,0.791-0.96,1.191c-0.72,0.649-1.63,0.889-2.54,1.119
	c-0.38,0.09-0.86,0.28-1.03-0.35C445.5,283.12,446.96,282.33,448.83,282.529z"/>
<path fill="#D095BD" d="M443.57,275.55c1.52-0.57,2.279,0.49,3.1,1.43l-0.01,0.02c-0.07,0.08-0.141,0.17-0.2,0.26l0,0
	c-0.11,0.04-0.18,0.14-0.25,0.23c-1.44,0.4-1.79-0.84-2.45-1.63c-0.029-0.12-0.1-0.22-0.189-0.3V275.55z"/>
<path fill="#893E72" d="M444.31,284.49c0.881,0.47,1.561-0.28,2.33-0.41c0.42-0.07,0.82-0.24,1.23-0.359
	c-0.09,0.319-0.18,0.639-0.26,0.959c-1.54,0.18-2.931,1.1-4.54,0.95C443.48,285.25,443.89,284.87,444.31,284.49z"/>
<path fill="#F4C948" d="M443.06,280.08c-0.069,1.8,1.24,1.72,2.44,1.779c-0.14,0.281-0.23,0.601-0.42,0.841
	c-0.24,0.31-0.54,0.76-0.84,0.78c-0.391,0.02-0.19-0.561-0.33-0.851c-0.33-0.739-0.95-1.149-1.57-1.58
	C441.94,280.16,442.02,280.06,443.06,280.08L443.06,280.08z"/>
<path fill="#EABF37" d="M445.03,278.62c-0.42,0.02-0.84,0.03-1.261,0.05c-0.26-0.57-0.529-1.14-0.409-1.79
	c0.38,0.38,0.76,0.75,1.13,1.13C444.68,278.2,444.85,278.41,445.03,278.62z"/>
<path fill="#E2B930" d="M443.06,280.08c-0.64,0.03-0.97,0.28-0.71,0.96c-0.51-0.261-1.159-0.21-1.55-0.73
	c0.55-0.38,1.19-0.35,1.811-0.35C442.76,279.96,442.91,280.03,443.06,280.08z"/>
<path fill="#E3BC46" d="M445.99,281.82c0.08-0.291,0.27-0.45,0.55-0.53c0.28,0.17,0.89,0.36,0.72,0.59
	C446.96,282.27,446.41,281.99,445.99,281.82z"/>
<path fill="#535355" d="M448.45,276.07c0.09,0.12,0.16,0.2,0.229,0.29c-0.08,0.05-0.18,0.15-0.239,0.13
	c-0.08-0.02-0.15-0.14-0.221-0.21C448.28,276.21,448.35,276.15,448.45,276.07z"/>
<path fill="#A79358" d="M446.48,278.72c-0.08-0.08-0.171-0.16-0.25-0.25c0.109-0.21,0.18-0.62,0.5-0.39
	C446.91,278.21,446.7,278.55,446.48,278.72z"/>
<path fill="#DFA8CB" d="M439.48,279.6c0.21-0.25,0.489-0.22,0.77-0.17C439.99,279.49,439.74,279.54,439.48,279.6z"/>
<path fill="#FAD682" d="M443.5,280.07c0.09-0.15,0.18-0.3,0.28-0.45l0.06,0.05c0.101,0.26,0.08,0.45-0.26,0.47L443.5,280.07z"/>
<path fill="#B36BA2" d="M447.86,277.68c-0.061,0.09-0.11,0.18-0.17,0.27C447.75,277.86,447.81,277.77,447.86,277.68z"/>
<path fill="#C478B0" d="M446.21,277.49c0.08-0.08,0.17-0.15,0.25-0.23C446.38,277.34,446.3,277.41,446.21,277.49z"/>
<path fill="#C478B0" d="M446.46,277.26c0.07-0.09,0.13-0.18,0.2-0.26C446.59,277.09,446.53,277.17,446.46,277.26z"/>
<path fill="#DFA8CB" d="M442.57,277.24c-0.07-0.08-0.13-0.16-0.2-0.24c0.06,0,0.13,0,0.189,0
	C442.56,277.08,442.56,277.16,442.57,277.24z"/>
<path fill="#C478B0" d="M443.57,275.56c0.06,0.1,0.13,0.2,0.189,0.3C443.7,275.76,443.64,275.66,443.57,275.56z"/>
<path fill="#CD8CB9" d="M443.07,282.52c-0.07-0.09-0.141-0.17-0.21-0.26C442.93,282.34,443,282.43,443.07,282.52z"/>
<path fill="#C06FAB" d="M470.19,272.64c-0.771,1.75-1.801,1.89-3.23,0.65c-0.62-0.53-0.62,0.16-0.65,0.58
	c-1.52-0.5-3-0.25-4.47,0.25c-0.22-0.57,0.021-0.94,0.51-1.2c2.23-0.9,4.57-0.72,6.891-0.69
	C469.56,272.23,469.87,272.49,470.19,272.64z"/>
<path fill="#2C282A" d="M462.35,272.92c-0.17,0.4-0.34,0.8-0.51,1.2c-0.41,0.32-0.83,0.65-1.24,0.97c-0.14,0.13-0.359,0.08-0.5,0.21
	c-0.06-0.01-0.109-0.02-0.17-0.01c0.061-0.44,0.04-0.8-0.56-0.46C459.69,273.1,460.95,272.29,462.35,272.92z"/>
<path fill="#262223" d="M500.63,278.47c-0.51,0.88-1.26,0.15-1.88,0.27c-0.79,0.18-1.33-0.11-1.62-0.87
	c-0.01-0.07-0.04-0.12-0.09-0.16c-0.06-0.09-0.12-0.17-0.18-0.26c0-0.08-0.011-0.15-0.051-0.22c-0.1-0.24-0.119-0.48,0.021-0.71
	c0.95-0.09,1.02-0.45,0.3-1.03c-0.39-0.32-0.7-0.63-0.189-1.1c1.59-0.08,2.09,0.6,2.109,2.18
	C499.06,277.39,499.99,277.92,500.63,278.47z"/>
<path fill="#AD5697" d="M497.12,277.87c0.54,0.29,1.08,0.58,1.62,0.87c-0.351,0.43,0,0.64,0.26,0.88c-0.9,0.5-2.01,0.67-2.54,1.72
	c-0.68,0.16-1.25,0.84-2.05,0.46c0.03-0.079,0.06-0.159,0.09-0.25c0.04-0.09,0.1-0.17,0.17-0.239c0.15-0.33,0.311-0.66,0.46-0.991
	C496.32,279.93,496.98,279.11,497.12,277.87z"/>
<path fill="#AD5697" d="M495.19,280.11c0.06-0.26,0.119-0.51,0.18-0.77C495.4,279.62,495.45,279.9,495.19,280.11z"/>
<path fill="#AD5697" d="M496.82,276.52c-0.011,0.24-0.021,0.47-0.021,0.71C496.54,276.99,496.53,276.75,496.82,276.52z"/>
<path fill="#AD5697" d="M496.85,277.45c0.061,0.09,0.12,0.17,0.181,0.26C496.97,277.63,496.91,277.54,496.85,277.45z"/>
<path fill="#262223" d="M508.36,285.88c-0.38-0.59-0.83-1.149-0.74-1.92c0.83-0.55,1.34,0.149,1.95,0.49
	c0.069,0.079,0.149,0.149,0.229,0.21l0.021,0.02c0.229,0.32,0.47,0.641,0.699,0.961l0,0c-0.189,0.229-0.3,0.51-0.5,0.719h-0.1
	l-0.11,0.011c-0.189-0.229-0.529-0.021-0.729-0.25c-0.08,0-0.16,0-0.24,0c-0.08,0.069-0.16,0.069-0.24,0l0.011,0.01
	C508.52,286.04,508.45,285.96,508.36,285.88L508.36,285.88z"/>
<path fill="#692355" d="M510.01,286.359c0.04-0.33,0.21-0.569,0.5-0.719C510.52,285.99,510.35,286.24,510.01,286.359z"/>
<path fill="#6C2959" d="M509.08,286.12c0.26,0.021,0.54-0.011,0.729,0.25C509.54,286.35,509.25,286.4,509.08,286.12z"/>
<path fill="#6C2959" d="M508.36,285.88c0.08,0.08,0.159,0.16,0.25,0.24C508.52,286.04,508.44,285.96,508.36,285.88z"/>
<path fill="#6C2959" d="M508.6,286.109c0.08,0,0.16,0,0.24,0C508.76,286.25,508.68,286.25,508.6,286.109z"/>
<path fill="#252122" d="M522.79,278.49c0.15-0.26,0.3-0.53,0.45-0.79c1.25,0.35,0.99,1.63,1.49,2.43c0.039,0.1,0.14,0.18,0.14,0.3
	c-0.01,0.07,0,0.12,0.06,0.16c0.551,0.58,0.79-0.18,1.19-0.27c1.229-0.03,0.63,0.77,0.32,1c-1.29,0.979-0.94,2-0.261,3.1
	c0.07,0.66-0.189,0.99-0.88,1.09c-0.399,0.061-0.76,0.381-1.13,0.59c-0.45,0.07-0.71,0.381-0.93,0.73c-0.4,0.24-0.8,0.47-1.2,0.71
	c-0.81-0.09-0.29-0.61-0.3-0.95c0.08-0.24,0.16-0.48,0.24-0.72c0.21-0.38,0.51-0.729,0.5-1.2c-0.391-0.27-0.391-0.79-0.681-1.12
	c-0.38-0.29-0.75-0.58-1.13-0.87c-0.25-0.31-0.5-0.619-0.75-0.93c0.021-0.08,0-0.141-0.05-0.189c-0.22-0.721,0.01-0.98,0.74-0.73
	c0.06,0.061,0.12,0.07,0.199,0.04c0.601-0.101,1.57,1.229,1.75-0.46c0.261-0.55-0.069-1.18,0.21-1.73
	C522.8,278.63,522.82,278.57,522.79,278.49z"/>
<path fill="#E2B4CD" d="M520.6,280.83c-0.659-0.18-0.779,0.189-0.739,0.73c-0.271-0.261-0.311-0.57-0.061-0.82
	C520.05,280.47,520.35,280.57,520.6,280.83z"/>
<path fill="#6D2357" d="M475.23,287.12c-0.021,0.03-0.04,0.05-0.061,0.08c0.01-0.04,0.021-0.07,0.03-0.11L475.23,287.12z"/>
<path fill="#CC98B7" d="M472.88,281.811c-0.03-0.07-0.07-0.141-0.1-0.211c1.52-0.029,3.04-0.05,4.56-0.08
	c0.021,0.23,0.09,0.49-0.14,0.65C476.69,282.51,473.4,282.23,472.88,281.811z"/>
<path fill="#FAC81C" d="M496.33,281.32c0.28-1.53,1.49-1.6,2.67-1.7c0.67,0.14,1.29,0.37,1.85,0.77
	c-0.069,0.219-0.13,0.45-0.199,0.67h0.01c-0.11,0.16-0.351,0.109-0.47,0.27c-0.32,0.08-0.641,0.17-0.96,0.25
	c-0.74,0.13-1.49,0.18-2.25,0.23C496.71,281.73,496.48,281.59,496.33,281.32z"/>
<path fill="#8D3A75" d="M496.91,281.54c0.78,0.01,1.56,0.03,2.33,0.04c-1.9,0.45-3.38,1.811-5.23,2.359
	c-0.29-0.369-0.46-0.76-0.109-1.189C494.88,282.26,495.7,281.4,496.91,281.54z"/>
<path fill="#8B3573" d="M500.2,281.33c0.16-0.09,0.31-0.18,0.47-0.27C500.52,281.15,500.36,281.24,500.2,281.33z"/>
<path fill="#681E54" d="M494.68,284.9c-0.06-0.07-0.12-0.141-0.18-0.211C494.56,284.76,494.62,284.83,494.68,284.9z"/>
<path fill="#B85DA3" d="M495.38,279.19c-0.229-0.03-0.46-0.06-0.689-0.09c-0.011-0.06-0.011-0.12,0-0.18
	C494.95,278.93,495.24,278.86,495.38,279.19z"/>
<path fill="#2D292A" d="M458.17,280.36c0.34-0.23,0.67-0.47,1.01-0.7c0.061-0.1,0.141-0.18,0.24-0.25c0.2-0.12,0.42-0.2,0.65-0.25
	c0.68-0.14,1.39-0.01,2.069-0.15c0.12-0.01,0.23,0,0.351,0.03c0.819,0.77,0.1,1.19-0.37,1.68c-0.09,0.07-0.18,0.13-0.28,0.181
	c-0.09,0.06-0.189,0.109-0.29,0.149c-0.25,0.11-0.49,0.22-0.77,0.24c-0.17,0.01-0.32-0.021-0.45-0.14
	C459.58,280.96,458.52,281.6,458.17,280.36z"/>
<path fill="#863F6F" d="M463.04,282.98c0.15,0.49,0.31,0.97,0.46,1.459c-1.04,0.721-2.05,0.17-3.07-0.06
	c-0.37-0.29-0.6-0.63-0.34-1.12c0.78,0.02,1.57,0,2.351,0.09C462.82,283.4,462.95,283.279,463.04,282.98z"/>
<path fill="#2B2727" d="M460.1,283.26c0.101,0.311,0.21,0.62,0.311,0.93c0.16,0.261,0.16,0.511-0.09,0.721l-0.08-0.01l-0.08,0.01
	c-0.21-0.2-0.55-0.02-0.76-0.24h0.01c-0.4-0.311-0.811-0.63-1.21-0.939l-0.01-0.01c-0.07-0.08-0.141-0.171-0.221-0.25
	c0-0.511-0.739-0.91-0.239-1.5c0.699,0.229,1.489,0.289,1.92,1.029c-0.11,0.17-0.5,0.21-0.311,0.5c0.17,0.27,0.17,0.04,0.17-0.1
	c-0.01-0.16,0.021-0.301,0.141-0.42C459.79,283.08,459.94,283.17,460.1,283.26z"/>
<path fill="#BC81A7" d="M460.33,281.16c0.17-0.02,0.34-0.04,0.51-0.061c0.61,0.36,1.48,0.19,1.91,0.93
	c-0.39,1.041-1.07-0.02-1.6,0.201c-0.2,0.08-0.53-0.121-0.78-0.221c-0.4-0.16-0.79-0.35-1.18-0.529
	C459.57,281.37,459.95,281.26,460.33,281.16z"/>
<path fill="#CF9CBA" d="M462.75,282.029c-0.58-0.42-1.56-0.029-1.91-0.93c0.23-0.09,0.47-0.18,0.7-0.27c0.479,0.02,1-0.08,1.3,0.46
	c0.04,0.181,0.07,0.36-0.08,0.51C462.76,281.88,462.76,281.95,462.75,282.029z"/>
<path fill="#BC81A7" d="M462.76,281.8c0-0.159,0-0.319,0-0.47c0.08-0.061,0.16-0.061,0.24,0c-0.02,0.16-0.04,0.311-0.06,0.47
	C462.89,281.8,462.82,281.8,462.76,281.8z"/>
<path fill="#292526" d="M458.67,277.24c0.14-0.16,0.28-0.32,0.42-0.49c0.18-0.17,0.37-0.35,0.55-0.52
	c0.091-0.05,0.17-0.11,0.25-0.18l0,0c0.12-0.16,0.351-0.11,0.49-0.24c0.08,0.01,0.16-0.01,0.23-0.06
	c0.159-0.08,0.359-0.06,0.51-0.17c0.41,0.1,0.979-0.23,1.16,0.45c0.029,0.23-0.03,0.44-0.15,0.63c-0.479,0.6-0.859,1.28-1.52,1.72
	c-0.08,0.07-0.181,0.13-0.271,0.19c-0.04,0.03-0.09,0.06-0.13,0.09c-0.33,0.17-0.62,0.45-1.04,0.31
	C458.11,278.64,459.04,277.76,458.67,277.24z"/>
<path fill="#E5B5D1" d="M461.96,276.49c0.11-0.15,0.21-0.3,0.32-0.45c0.31-0.6,0.67-1.13,1.47-0.98l0,0
	c0.09,0.15,0.07,0.35,0.18,0.5c0.101,0.24,0.19,0.48,0.29,0.71C463.51,276.78,462.77,277.05,461.96,276.49z"/>
<path fill="#BA7EAA" d="M461.12,275.58c-0.17,0.06-0.34,0.11-0.51,0.17C460.77,275.69,460.95,275.64,461.12,275.58z"/>
<path fill="#BA7EAA" d="M460.38,275.81c-0.16,0.08-0.33,0.16-0.49,0.24C460.05,275.97,460.21,275.89,460.38,275.81z"/>
<path fill="#BA7EAA" d="M460.1,275.31c0.17-0.07,0.33-0.14,0.5-0.21C460.43,275.17,460.26,275.24,460.1,275.31z"/>
<path fill="#BA7EAA" d="M459.89,276.05c-0.08,0.06-0.17,0.12-0.25,0.18C459.72,276.17,459.81,276.11,459.89,276.05z"/>
<path fill="#D9A0C5" d="M522.75,278.68c-0.07,0.58-0.14,1.15-0.21,1.73C522.55,279.83,522.33,279.22,522.75,278.68z"/>
<path fill="#8E457C" d="M451.73,282.02c-0.061-0.069-0.12-0.149-0.181-0.22C451.61,281.88,451.67,281.95,451.73,282.02z"/>
<path fill="#B960A4" d="M524.88,280.44c-0.05-0.1-0.09-0.2-0.14-0.3C524.78,280.24,524.83,280.34,524.88,280.44z"/>
<path fill="#2B6539" d="M512.2,283.73c0.08,0,0.16,0.01,0.25,0.01c0,0.07,0,0.14,0.01,0.21C512.37,283.88,512.28,283.8,512.2,283.73
	z"/>
<path fill="#2B6539" d="M512.67,283.971c0.08,0,0.16-0.011,0.24-0.011C512.84,284.1,512.76,284.1,512.67,283.971z"/>
<path fill="#72305F" d="M460.32,284.91c0.029-0.24,0.06-0.48,0.09-0.721c1.03,0.08,2.06,0.17,3.1,0.25
	c0.16,0.32,0.32,0.641,0.49,0.961C462.76,285.24,461.54,285.07,460.32,284.91z"/>
<path fill="#72305F" d="M459.4,284.67c0.25,0.08,0.5,0.16,0.76,0.24C459.88,284.91,459.58,284.971,459.4,284.67z"/>
<path fill="#A4648D" d="M470.7,283.529c0.54-0.27,1.08-0.539,1.62-0.809c1.739,0.609,3.52,0.149,5.279,0.26
	c-0.43,1.09-1.39,0.41-2.08,0.56C473.95,283.87,472.31,283.88,470.7,283.529z"/>
<path fill="#AC6795" d="M521.78,283.561c0.45,0.239,0.77,0.549,0.68,1.119c-1.29,0.36-2.61,0.221-3.92,0.25
	c-0.521,0.01-0.87-0.119-0.82-0.72C519.09,284.07,520.55,284.55,521.78,283.561z"/>
<path fill="#D9A0C5" d="M490.84,280.83c-0.07-0.15-0.14-0.311-0.21-0.46C490.71,280.52,490.77,280.68,490.84,280.83z"/>
<path fill="#692355" d="M509.8,284.66c-0.08-0.07-0.149-0.141-0.229-0.21C509.64,284.52,509.72,284.59,509.8,284.66z"/>
<path fill="#D4A7C2" d="M459.16,278.97c0.32-0.16,0.649-0.32,0.97-0.48c0.68,0.42,1.59,0.11,2.21,0.72
	c-0.8,0.08-1.6,0.17-2.399,0.25c-0.171,0.06-0.37,0.05-0.53,0.14c-0.07,0.04-0.15,0.06-0.23,0.06
	C458.82,279.43,459.06,279.2,459.16,278.97z"/>
<path fill="#72305F" d="M457.97,283.48c0.07,0.08,0.141,0.17,0.221,0.25C458.11,283.641,458.04,283.561,457.97,283.48z"/>
<path fill="#772C61" d="M451.51,282.51c0.061-0.08,0.13-0.16,0.19-0.25C451.64,282.35,451.58,282.43,451.51,282.51z"/>
<path fill="#F3C9DD" d="M462.34,279.2c-0.689-0.38-1.81,0.56-2.21-0.72l0.04-0.03c0.03-0.1,0.1-0.15,0.19-0.17
	c0.529-0.6,1.06-1.2,1.59-1.8c0.75-0.07,1.51-0.15,2.26-0.22v-0.01c0.06,0.08,0.11,0.17,0.16,0.26c0.11,0.17,0.24,0.32,0.32,0.51
	c0.22,0.53,0.89,1.08,0.54,1.57c-0.271,0.38-0.91-0.23-1.41-0.28c-0.46-0.04-1.011-0.22-1.021,0.56c0.08,0.29-0.06,0.37-0.33,0.32
	l-0.06,0.03L462.34,279.2z"/>
<path fill="#ACD59F" d="M470.68,280.09c-0.3,0.19-0.609,0.37-0.91,0.551c-0.039-0.041-0.079-0.08-0.119-0.121
	c-0.11-0.399,0.029-0.79-0.021-1.189c-0.11-0.81-0.67-1.2-1.39-1.21c-0.59,0-1.04,0.36-1.061,1.06c-0.029,0.74,0.07,1.38,0.95,1.55
	c0.351,0.069,0.72,0.029,1.05,0.209c0.101,0.08,0.15,0.181,0.15,0.311c-0.48,0.82-1.22,0.74-1.86,0.359
	c-0.609-0.359-1.37-0.77-1.029-1.759c0.1-0.3,0.109-0.63-0.03-0.93c-0.05-0.06-0.07-0.13-0.07-0.21c-0.229-0.61-0.05-1.09,0.48-1.42
	c0.83-0.51,1.71-0.53,2.6-0.17c0.271,0.11,0.38,0.39,0.61,0.54l-0.021-0.01C471.14,278.6,471.22,278.92,470.68,280.09z"/>
<path fill="#50AB61" d="M470.28,275.07c-0.4,1.32,0.649,0.87,1.22,0.99c0.43,0.09,1.17-0.21,1.23,0.16
	c0.06,0.38-0.721,0.24-1.101,0.42c-0.46,0.22-0.95,0.37-1.43,0.55c-0.72-0.5-1.61-0.44-2.4-0.7c-0.03-0.23-0.08-0.47-0.1-0.7
	c-0.04-0.49-0.681-1.11-0.29-1.35c0.439-0.27,0.79,0.47,1.149,0.82c0.7,0.69,0.79-0.26,1.171-0.43
	C469.93,274.88,470.12,274.93,470.28,275.07z"/>
<path fill="#0F522B" d="M467.8,286.37c-1.7,1.14-1.7,1.14-2.64-0.72c-0.29-0.771,0.28-1,0.8-1.17c0.74-0.24,1.43-0.041,1.93,0.56
	C468.24,285.48,468.39,285.96,467.8,286.37z"/>
<path fill="#86BF71" d="M470.51,281.76c0.13,0.03,0.26,0.051,0.391,0.08c0.069,0.631-0.391,0.801-0.851,0.891
	c-0.6,0.119-1.22,0.17-1.84,0.09c-0.12-0.01-0.24-0.041-0.35-0.07c-0.271-0.09-0.54-0.16-0.811-0.23
	c-0.109-0.029-0.21-0.06-0.31-0.109c-0.29-0.141-0.59-0.27-0.87-0.439c-0.09-0.061-0.17-0.141-0.24-0.23
	c-0.24-0.35-0.45-0.721-0.7-1.07c-0.3-0.41-0.27-0.79,0.19-1.09c0.11-0.05,0.22-0.04,0.32,0.02c0.229,0.08,0.46,0.17,0.689,0.25
	c0.34,1.74,2,2.419,3.59,1.48c0.16,0.09,0.33,0.18,0.49,0.27C470.31,281.67,470.39,281.76,470.51,281.76z"/>
<path fill="#8BC67F" d="M467.8,276.5c0.931-0.23,1.851-0.41,2.4,0.7c-0.061,0.16-0.11,0.32-0.17,0.48
	c-0.88-0.36-1.771-0.66-2.73-0.29c-0.609,0.24-0.97,0.66-0.97,1.34c-0.25-0.49-0.49-0.98-0.74-1.48c0.26-0.74,0.87-0.78,1.51-0.75
	C467.33,276.5,467.56,276.5,467.8,276.5z"/>
<path fill="#1F6935" d="M467.8,286.37c0.4-0.841-0.069-1.32-0.76-1.55c-0.82-0.271-1.59-0.19-1.88,0.84
	c-0.16-0.24-0.32-0.49-0.48-0.73c-0.33-0.699,0.011-1.07,0.65-1.229c0.59-0.15,1.189-0.14,1.77,0.05c0.57,0.73,1.2,1.38,2.221,1.42
	C469.16,285.98,468.39,286.061,467.8,286.37z"/>
<path fill="#5A994F" d="M468.05,283.67c-0.08,0.02-0.17,0.04-0.25,0.061c-0.09,0.08-0.189,0.109-0.3,0.08
	c-1.13-0.271-2.27-0.881-3.32,0.199c-0.12-0.199-0.3-0.38-0.359-0.59c-0.101-0.4-0.32-0.97-0.15-1.189
	c0.25-0.311,0.66,0.229,1.03,0.26c0.31,0.02,0.62,0.47,0.939,0.029c1.24-0.239,2.36,0.07,3.391,0.761
	c-0.24,0.079-0.49,0.159-0.73,0.239C468.23,283.561,468.14,283.609,468.05,283.67z"/>
<path fill="#D9B0C5" d="M462.46,279.2c0.11-0.11,0.22-0.22,0.33-0.32c0.26,0.44,0.52,0.87,0.77,1.31c0.21,0.371,0.62,0.69,0.48,1.13
	c-0.03,0.1-0.68,0.01-1.04,0.01l-0.12-0.01l-0.12,0.01c-0.41-0.17-0.819-0.34-1.22-0.5l0,0c0.08-0.061,0.17-0.12,0.25-0.17
	C462.13,280.22,462.89,279.98,462.46,279.2z"/>
<path fill="#438743" d="M464.19,284.01c0.529-1.25,1.68-1.35,3.38-0.3c-0.03,0.14-0.12,0.229-0.25,0.271
	c-0.58,0-1.17-0.01-1.75-0.021c-0.65-0.01-0.91,0.34-0.87,0.96C464.4,284.68,464.23,284.38,464.19,284.01z"/>
<path fill="#9FCE8E" d="M469.72,281.34c-0.7,1.439-1.76,0.6-2.6,0.301c-0.68-0.24-1.66-0.641-1-1.781c0.46-0.21,0.18-0.62,0.27-0.94
	c0.41,0.7-0.1,1.721,0.88,2.26c0.74,0.41,1.351,0.67,1.961-0.109c0.09-0.08,0.18-0.08,0.27-0.01
	C469.58,281.16,469.65,281.25,469.72,281.34z"/>
<path fill="#68AC55" d="M471.87,278.23c0.85,0.03,1.72-0.22,2.53,0.22c-0.62,0.75-1.551,0.88-2.4,1.16c-0.04,0.01-0.08,0-0.12,0
	C471.55,279.16,471.26,278.7,471.87,278.23z"/>
<path fill="#8BC67F" d="M471.87,278.23c0,0.46,0.01,0.92,0.01,1.38c-0.399,0.16-0.8,0.32-1.2,0.48c0.141-0.91-0.109-1.72-0.68-2.43
	C470.62,277.85,471.25,278.04,471.87,278.23z"/>
<path fill="#1D9C53" d="M470.28,275.07c-0.24,0.07-0.561,0.33-0.55-0.23c0.01-0.04,0.02-0.08,0.029-0.11
	c0.25-0.62,0.48-1.26,1.12-1.6c0.061-0.03,0.26,0.06,0.26,0.11C471.22,274.02,470.78,274.56,470.28,275.07z"/>
<path fill="#6CAE5F" d="M467.09,276.5c-0.5,0.25-1,0.5-1.51,0.75c-0.28-0.4-0.89-1.04-0.53-1.25
	C465.7,275.61,466.42,276.23,467.09,276.5z"/>
<path fill="#77B263" d="M467.8,282.52c1.04-0.209,2.29,0.551,3.11-0.68c0.22,0.04,0.57,0.01,0.64,0.131
	c0.141,0.25-0.149,0.42-0.35,0.51c-0.46,0.209-0.94,0.369-1.42,0.549C469.08,283.01,468.34,283.16,467.8,282.52z"/>
<path fill="#73AE5E" d="M467.8,282.52c0.66,0.17,1.32,0.34,1.98,0.51c-0.24,0.08-0.49,0.171-0.73,0.25
	c-1.13-0.25-2.26-0.51-3.39-0.76c-0.08-0.24-0.16-0.479-0.24-0.72c0.16-0.149,0.311-0.13,0.47,0l0,0
	c0.261,0.271,0.641,0.32,0.96,0.479l0,0C467.11,282.55,467.52,282.26,467.8,282.52L467.8,282.52z"/>
<path fill="#77B263" d="M465.88,281.8c-0.16,0-0.31,0-0.47,0l-0.01-0.01c-0.07-0.05-0.12-0.12-0.15-0.2s-0.07-0.17-0.1-0.26
	c-0.07-0.08-0.141-0.15-0.2-0.24c-0.101-0.15-0.19-0.311-0.29-0.46c-0.061-0.101-0.141-0.18-0.22-0.27l-0.011-0.01
	c-0.069-0.06-0.13-0.13-0.17-0.21c-0.03-0.08-0.07-0.16-0.1-0.24c0.08-0.27,0.06-0.65,0.54-0.51c0.149,0.03,0.3,0.06,0.45,0.1
	c0.069,0.04,0.09,0.07,0.069,0.11c-0.02,0.04-0.04,0.06-0.06,0.06C464.48,280.67,465.79,281.04,465.88,281.8z"/>
<path fill="#466146" d="M467.31,283.98c0.08-0.09,0.171-0.181,0.25-0.271c0.08,0.011,0.16,0.011,0.24,0.021
	c-0.29,1.31,1.061,0.89,1.51,1.42C468.4,285.18,467.6,285.01,467.31,283.98z"/>
<path fill="#73AE5E" d="M464.71,279.38c-0.18,0.17-0.36,0.34-0.54,0.51c-0.2-0.16-0.32-0.41-0.16-0.59
	C464.22,279.06,464.49,279.2,464.71,279.38z"/>
<path fill="#D090BD" d="M463.92,275.55c-0.06-0.17-0.12-0.33-0.18-0.5C463.81,275.22,463.86,275.39,463.92,275.55z"/>
<path fill="#73AE5E" d="M464.96,281.09c0.07,0.08,0.13,0.16,0.2,0.24C465.09,281.25,465.02,281.17,464.96,281.09z"/>
<path fill="#ACD59F" d="M469.77,280.65c-0.079,0.08-0.159,0.16-0.239,0.24c-0.03-0.051-0.061-0.101-0.09-0.141
	c0.05-0.109,0.14-0.17,0.26-0.17L469.77,280.65z"/>
<path fill="#73AE5E" d="M464.45,280.36c0.069,0.09,0.149,0.18,0.22,0.27C464.6,280.54,464.52,280.45,464.45,280.36z"/>
<path fill="#438743" d="M468.05,283.67c0.09-0.05,0.181-0.1,0.271-0.15C468.23,283.57,468.14,283.62,468.05,283.67z"/>
<path fill="#E5B5D1" d="M464.37,276.52c-0.05-0.09-0.11-0.17-0.16-0.26C464.27,276.35,464.32,276.43,464.37,276.52z"/>
<path fill="#73AE5E" d="M465.17,279.65c0-0.06-0.01-0.12-0.01-0.17c0.09,0.05,0.18,0.09,0.27,0.14
	C465.34,279.63,465.25,279.64,465.17,279.65z"/>
<path fill="#77B263" d="M470.51,281.76c-0.1-0.05-0.2-0.1-0.3-0.16C470.31,281.66,470.41,281.71,470.51,281.76z"/>
<path fill="#73AE5E" d="M465.25,281.58c0.05,0.07,0.1,0.141,0.15,0.199C465.35,281.721,465.3,281.65,465.25,281.58z"/>
<path fill="#73AE5E" d="M464.27,280.14c0.061,0.07,0.11,0.14,0.171,0.21C464.38,280.28,464.33,280.21,464.27,280.14z"/>
<path fill="#ACD59F" d="M469.51,281.07c-0.09,0-0.18,0.01-0.27,0.01l-0.01-0.01c-0.061-0.2,0.029-0.271,0.22-0.26l0.069,0.069
	C469.53,280.95,469.53,281.01,469.51,281.07z"/>
<path fill="#FBCA28" d="M486.7,284.23c-0.09,0-0.16-0.03-0.2-0.11c-0.08-0.03-0.14-0.08-0.18-0.16l-0.051-0.04
	c-0.079-0.05-0.149-0.109-0.199-0.199l-0.04-0.041l-0.08-0.08l0.06-0.09l0.04-0.039c0.181-0.201,0.48-0.031,0.67-0.201
	c0.08-0.02,0.16-0.029,0.23-0.049c0.21-0.191,0.52-0.011,0.729-0.211c0.061-0.06,0.131-0.07,0.21-0.039
	c0.221-0.121,0.44-0.111,0.671-0.041c0.35,0.211,0.35,0.59,0.46,0.92c0.17,0.541,0.529,0.78,1.079,0.621
	c0.45-0.131,0.62-0.49,0.53-0.931c-0.13-0.59-0.56-0.7-1.09-0.63c-0.3,0.04-0.6,0.25-0.92,0.07c-0.07-0.061-0.09-0.121-0.08-0.19
	s0.03-0.101,0.05-0.101c0.021-0.16,0.03-0.319,0.061-0.469c0.159-0.891,0.31-1.791,0.47-2.681c0.76,0.43,0.88,1.34,1.43,1.931
	c0.98,1.049,1.71,0.619,2.47-0.24c0.23-0.26,0.54-0.78,0.79-0.59c0.37,0.279-0.01,0.77-0.22,1.049
	c-0.81,1.101-0.859,2.141,0.07,3.201c0.45,0.51,0.21,0.75-0.37,0.83c-0.16,0.02-0.33,0.129-0.46,0.09
	c-1.91-0.511-2.86,0.859-3.94,1.979c-0.489,0.03-0.38-0.24-0.27-0.521c0.24-0.93,0.229-1.789-0.73-2.35
	c-0.1-0.15-0.319-0.1-0.43-0.24l-0.04-0.02c-0.09-0.09-0.189-0.18-0.33-0.18c-0.069,0.01-0.12-0.01-0.149-0.07
	C486.9,284.34,486.82,284.26,486.7,284.23z"/>
<path fill="#9D4C86" d="M496.91,281.54c-1.061,0.26-1.82,1.26-3,1.21c0.03-0.08,0.05-0.16,0.08-0.24
	c0.08-0.08,0.149-0.17,0.17-0.289c0.09-0.141,0.17-0.291,0.26-0.431c0.69,0.06,1.15-0.83,1.92-0.47
	C496.53,281.391,496.72,281.471,496.91,281.54z"/>
<path fill="#D9B54D" d="M488.67,287.279c0.09,0.171,0.18,0.351,0.271,0.521c-0.131,0.13-0.25,0.271-0.381,0.4
	C488.29,287.859,488.46,287.57,488.67,287.279z"/>
<path fill="#F2C426" d="M486.75,283.279c-0.17,0.24-0.43,0.211-0.67,0.201C486.3,283.41,486.53,283.34,486.75,283.279z"/>
<path fill="#F2C426" d="M488.63,282.7c0.01,0.079,0.021,0.17,0.04,0.25l-0.04,0.04c-0.229-0.01-0.47-0.01-0.7-0.02
	C488.16,282.88,488.4,282.79,488.63,282.7z"/>
<path fill="#F2C426" d="M487.71,283.02c-0.19,0.26-0.46,0.23-0.729,0.211C487.23,283.16,487.47,283.09,487.71,283.02z"/>
<path fill="#F2C426" d="M487.51,284.68c0.141,0.08,0.29,0.16,0.431,0.24C487.8,284.84,487.65,284.76,487.51,284.68z"/>
<path fill="#F2C426" d="M487.14,284.48c0.11,0.06,0.221,0.119,0.33,0.18C487.36,284.6,487.25,284.54,487.14,284.48z"/>
<path fill="#F2C426" d="M486.03,283.51c0.01,0.061,0.02,0.11,0.02,0.17c-0.04-0.039-0.069-0.09-0.109-0.13
	C485.97,283.54,486,283.52,486.03,283.51z"/>
<path fill="#F2C426" d="M486.08,283.721c0.07,0.069,0.13,0.129,0.2,0.199C486.21,283.85,486.15,283.79,486.08,283.721z"/>
<path fill="#8D3A75" d="M494.16,282.221c-0.061,0.1-0.11,0.189-0.17,0.289C494.04,282.42,494.1,282.32,494.16,282.221z"/>
<path fill="#F2C426" d="M486.7,284.23c0.1,0.06,0.189,0.109,0.29,0.17C486.9,284.35,486.8,284.29,486.7,284.23z"/>
<path fill="#9D4C86" d="M494.67,281.311c-0.05,0.08-0.11,0.16-0.17,0.239C494.56,281.471,494.61,281.391,494.67,281.311z"/>
<path fill="#F2C426" d="M486.33,283.96c0.06,0.05,0.12,0.11,0.18,0.16C486.44,284.07,486.38,284.01,486.33,283.96z"/>
<path fill="#D8DADB" d="M498.21,284.74c-0.01-0.211-0.05-0.33-0.02-0.36c0.18-0.149,0.369-0.29,0.569-0.409
	c0.021-0.011,0.12,0.119,0.181,0.18C498.73,284.32,498.53,284.49,498.21,284.74z"/>
<path fill="#4C4C4E" d="M499.79,283.63c-0.1-0.101-0.15-0.159-0.21-0.22c0.08-0.07,0.16-0.16,0.25-0.189
	c0.08-0.021,0.18,0.029,0.27,0.059C500.01,283.37,499.92,283.48,499.79,283.63z"/>
<path fill="#CCAB42" d="M448.81,284.141c-0.14-0.011-0.38,0.06-0.26-0.201c0.17-0.35,0.45-0.64,0.851-0.739
	c0.08-0.021,0.3,0.19,0.29,0.239C449.57,283.88,449.11,283.91,448.81,284.141z"/>
<path fill="#FEE2B0" d="M443.58,280.14c0.09-0.16,0.17-0.31,0.26-0.47c0.771-0.45,1.47-0.43,1.82,0.48
	c0.189,0.491,0.109,1.071-0.61,1.15C444.21,281.391,443.55,281.189,443.58,280.14z"/>
<path fill="#C6C7C9" d="M460.92,273.69c0.03,0,0.061-0.01,0.08,0c0.02,0.01,0.03,0.05,0.04,0.08c-0.06,0-0.12,0-0.17-0.01
	C460.89,273.74,460.9,273.71,460.92,273.69z"/>
<path fill="#D3B042" d="M497.83,275.04c0.37,0.03,0.55,0.25,0.66,0.51c0.02,0.05-0.11,0.23-0.13,0.22
	c-0.311-0.09-0.591-0.25-0.71-0.57C497.64,275.17,497.78,275.08,497.83,275.04z"/>
<path fill="#888271" d="M498.27,277.25c0.211,0.09,0.54,0.26,0.4,0.45c-0.2,0.26-0.47,0-0.66-0.19
	C498.03,277.35,498.17,277.32,498.27,277.25z"/>
<path fill="#B9B8B4" d="M498.27,277.25c-0.09,0.09-0.17,0.17-0.26,0.26c-0.13-0.13-0.25-0.26-0.38-0.4
	C497.9,276.92,498.07,277.16,498.27,277.25z"/>
<path fill="#CAA943" d="M509.77,285.37c-0.029,0.271-0.189,0.28-0.329,0.18c-0.351-0.25-0.71-0.51-0.99-0.819
	c-0.12-0.131,0.13-0.301,0.27-0.23C509.14,284.71,509.59,284.891,509.77,285.37z"/>
<path fill="#F8D584" d="M523.29,283.74c-0.1-0.1-0.19-0.19-0.29-0.29c-0.55-0.81,0.05-1.271,0.58-1.681s1.04-0.24,1.439,0.28
	c-0.199,0.37-0.439,0.71-0.369,1.16c-0.181,0.101-0.521-0.09-0.5-0.01c0.06,0.27,0.359,0.22,0.58,0.229
	c0.159,0.25,0.319,0.51,0.479,0.76c-0.16,0.301-0.52,0.271-0.75,0.44c-0.08,0.03-0.16,0.06-0.229,0.091
	c-0.351-0.051-0.65-0.15-0.78-0.531c-0.021-0.069-0.021-0.149,0-0.219C523.39,283.9,523.35,283.811,523.29,283.74z"/>
<path fill="#EEC554" d="M525.01,282.05c-1.359-0.43-1.859-0.079-2.02,1.4c-0.17-0.11-0.34-0.21-0.5-0.32
	c-0.311-0.55-0.03-0.819,0.46-0.989c0.17-0.461,0.33-0.91,0.5-1.371c0.229,0.16,0.479,0.271,0.77,0.24
	C524.26,281.529,525.28,281.3,525.01,282.05z"/>
<path fill="#DCB74C" d="M523.43,284.21c0.301,0.12,0.63,0.2,0.78,0.53c-0.45,0.41-0.57,1.14-1.26,1.33
	C522.89,285.391,523.25,284.82,523.43,284.21z"/>
<path fill="#E2B932" d="M522.95,282.141c-0.22,0.299-0.48,0.58-0.46,0.989c-0.07-0.05-0.141-0.101-0.21-0.149
	c-0.101-0.09-0.2-0.181-0.341-0.211c-0.42-0.189-0.97-0.399-0.859-0.91c0.05-0.219,0.63,0.021,0.939,0.171
	c0.141,0.149,0.311,0.14,0.49,0.09C522.66,282.13,522.81,282.13,522.95,282.141z"/>
<path fill="#E9BE2C" d="M524.22,281.01c-0.109,0.24-0.3,0.42-0.55,0.36c-0.31-0.07-0.16-0.39-0.22-0.601
	c-0.021-0.479-0.17-0.979,0.12-1.43C524.07,279.79,524.03,280.44,524.22,281.01z"/>
<path fill="#FEE1AA" d="M524.72,283.439c-0.439,0.431-0.859,0.391-1.16-0.14c-0.149-0.271-0.01-0.55,0.28-0.69
	c0.62-0.289,0.521,0.42,0.8,0.601C524.67,283.29,524.69,283.37,524.72,283.439z"/>
<path fill="#DCB74C" d="M524.44,284.641c0.159-0.311,0.409-0.451,0.75-0.44C525.32,284.99,524.71,284.529,524.44,284.641z"/>
<path fill="#EEC554" d="M522.52,282.12c-0.199,0.17-0.359,0.13-0.489-0.091C522.19,282.061,522.35,282.09,522.52,282.12z"/>
<path fill="#DCB74C" d="M523.29,283.74c0.05,0.08,0.09,0.17,0.14,0.25C523.38,283.91,523.33,283.82,523.29,283.74z"/>
<path fill="#EEC554" d="M521.95,282.77c0.109,0.07,0.229,0.141,0.34,0.211C522.17,282.92,522.06,282.84,521.95,282.77z"/>
<path fill="#F0D071" d="M498.93,280.52c-0.33,0.131-0.529,0.221-0.75,0.28c-0.05,0.011-0.21-0.14-0.199-0.17
	c0.1-0.26,0.35-0.28,0.579-0.28C498.65,280.34,498.73,280.42,498.93,280.52z"/>
<path fill="#CAA938" d="M460,280.68c-0.21-0.039-0.67-0.02-0.6-0.15c0.319-0.569,1.02-0.439,1.55-0.649
	c0.12-0.05,0.53-0.09,0.359,0.16C461.05,280.46,460.57,280.721,460,280.68z"/>
<path fill="#BD79AB" d="M459.4,279.6c0.18-0.05,0.359-0.1,0.529-0.14C459.76,279.5,459.58,279.55,459.4,279.6z"/>
<path fill="#CF9CBA" d="M461.79,280.65c-0.08,0.06-0.17,0.119-0.25,0.17C461.63,280.77,461.71,280.71,461.79,280.65z"/>
<path fill="#C7A637" d="M459.63,282.99c0.08,0.23,0.17,0.449,0.23,0.68c0.05,0.18,0.13,0.49,0.06,0.54
	c-0.25,0.16-0.4-0.12-0.58-0.239c-0.03-0.021-0.07-0.051-0.09-0.08c-0.22-0.36-0.7-0.531-0.75-1.011c0.38,0.05,0.76,0.091,1.14,0.14
	L459.63,282.99z"/>
<path fill="#BCA04B" d="M459.81,277.69c-0.069-0.04-0.229-0.12-0.229-0.13c0.21-0.44,0.56-0.74,0.979-0.97
	c0.051-0.03,0.25,0.09,0.25,0.1C460.66,277.18,460.22,277.39,459.81,277.69z"/>
<path fill="#D4A7C2" d="M460.36,278.29c-0.061,0.06-0.13,0.12-0.19,0.17C460.23,278.4,460.3,278.34,460.36,278.29z"/>
<path fill="#BEDEB3" d="M469.46,280.82c-0.07,0.09-0.15,0.17-0.22,0.26c-1.09,0.02-2.24,0.17-2.4-1.42
	c-0.109-1.1,0.33-1.91,1.44-1.88c1.05,0.03,1.779,0.69,1.67,1.9c-0.03,0.31-0.17,0.6-0.25,0.9
	C469.62,280.66,469.54,280.74,469.46,280.82z"/>
<path fill="#77B263" d="M466.84,282.279c-0.41,0.021-0.78-0.039-0.96-0.479C466.26,281.84,466.59,281.971,466.84,282.279z"/>
<path fill="#77B263" d="M467.8,282.52c-0.33-0.029-0.71,0.101-0.96-0.24C467.17,282.311,467.54,282.18,467.8,282.52z"/>
<path fill="#FEDD97" d="M488.67,282.95c0.59-0.341,1.19-0.671,1.87-0.3c0.58,0.32,0.63,0.89,0.5,1.449
	c-0.15,0.641-0.63,0.851-1.26,0.83c-0.59-0.02-0.98-0.3-1.09-0.88c-0.07-0.35-0.051-0.71-0.07-1.06L488.67,282.95z"/>
<path fill="#CFE7C8" d="M469.48,279.43c-0.15,0.61-0.511,1.089-1.16,1.14c-0.66,0.05-1-0.41-1-1.05c0-0.65,0.359-1.03,1.02-1.06
	C469,278.42,469.37,278.76,469.48,279.43z"/>
</svg>
