<?xml version="1.0" encoding="utf-8"?>
<!-- Generator: Adobe Illustrator 16.0.0, SVG Export Plug-In . SVG Version: 6.00 Build 0)  -->
<!DOCTYPE svg PUBLIC "-//W3C//DTD SVG 1.0//EN" "http://www.w3.org/TR/2001/REC-SVG-20010904/DTD/svg10.dtd" [
	<!ENTITY ns_flows "http://ns.adobe.com/Flows/1.0/">
	<!ENTITY ns_extend "http://ns.adobe.com/Extensibility/1.0/">
	<!ENTITY ns_ai "http://ns.adobe.com/AdobeIllustrator/10.0/">
	<!ENTITY ns_graphs "http://ns.adobe.com/Graphs/1.0/">
]>
<svg version="1.0" id="Layer_1" xmlns:x="&ns_extend;" xmlns:i="&ns_ai;" xmlns:graph="&ns_graphs;"
	 xmlns="http://www.w3.org/2000/svg" xmlns:xlink="http://www.w3.org/1999/xlink" xmlns:a="http://ns.adobe.com/AdobeSVGViewerExtensions/3.0/"
	 x="0px" y="0px" width="960px" height="560px" viewBox="0 0 960 560" style="enable-background:new 0 0 960 560;"
	 xml:space="preserve">
<g>
	<path style="fill-rule:evenodd;clip-rule:evenodd;fill:#231F20;" d="M473.12,284.84c0.07-0.05,0.14-0.05,0.21-0.01
		c0.15-0.12,0.36-0.08,0.51-0.19c1.88-0.15,2.19-1.26,1.95-2.92c-0.23-1.65,0.28-3.25,0.74-4.83c0.12-0.43,0.35-1.06,0.84-1.02
		c0.51,0.04,0.82,0.61,0.98,1.12c0.44,1.42,0.2,2.85-0.1,4.25c-0.54,2.52-0.56,2.44,2.06,2.38c1.36-0.03,1.72-0.52,1.72-1.82
		c-0.01-1.92,0.47-3.78,1.16-5.58c0.4-1.05,1.12-0.73,1.86-0.61c0.9,0.15,0.78,0.69,0.61,1.33c-0.46,1.81-0.86,3.64-1.35,5.44
		c-0.18,0.65-0.06,0.82,0.63,0.83c1.38,0.01,2.5,0.17,2.92-1.83c0.49-2.38,2.01-4.4,3.78-6.13c0.25-0.25,0.45-0.77,0.96-0.5
		c0.45,0.24,0.51,0.7,0.45,1.15c-0.33,2.5-1.47,4.61-3.17,6.42c-0.56,0.6-0.83,0.82,0.23,1.16c2.56,0.83,3.85,2.64,4.38,5.34
		c1.02,5.16,2.09,10.29,2.29,15.57c0.11,2.94-0.04,5.89,0.34,8.82c0.22,1.7,0.49,3.38,0.55,5.11c0.09,2.52-1.43,3.79-3.33,4.79
		c-1.76,0.92-3.74,1.05-5.67,1.28c-0.67,0.08-0.88,0.18-0.44,0.82c0.5,0.73,0.81,1.55,1,2.41c0.99,4.31,2.99,8.1,5.83,11.48
		c0.84,1,1.52,2.15,2.22,3.26c0.28,0.45,0.34,1.06-0.04,1.47c-0.36,0.39-0.71-0.15-1.02-0.29c-6.11-2.88-9.23-7.83-9.92-14.43
		c-0.12-1.11-0.29-2.23-0.04-3.34c0.22-0.97-0.19-1.19-1.07-1.04c-2.32,0.37-4.62,0.18-6.9-0.26c-0.66-0.13-1.31-0.36-1.96-0.54
		c-3.46-0.97-4.19-3.68-4.67-6.81c-1.02-6.61-2.18-13.21-2.6-19.9c-0.17-2.7-0.15-5.41-0.25-8.11c-0.08-2.35,1.7-3,3.36-3.77
		C472.4,285,472.7,284.8,473.12,284.84z"/>
	<path style="fill-rule:evenodd;clip-rule:evenodd;fill:#242021;" d="M467.13,256.21c1.04,0.19,2.16,0.11,2.92-1.46
		c0.48-1,1.45-0.2,1.52,0.45c0.19,1.62,1.25,1.87,2.51,2.06c0.43,0.07,1.13,0.07,1.17,0.6c0.04,0.51-0.59,0.75-1.05,0.81
		c-1.91,0.23-1.82,1.31-1.22,2.66c0.14,0.32,0.31,0.62-0.02,0.98c-0.39,0.43-0.64-0.01-0.93-0.09c-0.22-0.06-0.49-0.18-0.61-0.36
		c-1.28-1.94-2.62-1.44-4.04-0.18c-0.28,0.25-0.73,0.65-1.16,0.29c-0.45-0.37-0.17-0.88-0.04-1.33c0.02-0.08,0.05-0.16,0.1-0.22
		c1.13-1.24,0.53-1.95-0.74-2.46c-0.18-0.07-0.35-0.19-0.5-0.32c-0.37-0.31-0.82-0.7-0.66-1.17c0.13-0.39,0.71-0.14,1.08-0.18
		C465.9,256.25,466.34,256.25,467.13,256.21z"/>
	<path style="fill-rule:evenodd;clip-rule:evenodd;fill:#242021;" d="M459.48,265.44c-0.12,0.87-0.74,1.3-1.26,1.77
		c-0.69,0.63-0.63,1.1,0.13,1.61c0.56,0.37,1.2,0.66,1.55,1.28c0.13,0.22,0.44,0.49,0.16,0.73c-0.24,0.21-0.59,0.42-0.94,0.11
		c-0.03-0.03-0.07-0.04-0.1-0.06c-0.76-0.44-1.59-1.14-2.4-0.88c-0.87,0.28-0.43,1.48-0.81,2.19c-0.2,0.38-0.32,0.94-0.82,0.92
		c-0.46-0.02-0.78-0.48-0.82-0.92c-0.14-1.72-1.17-2.04-2.62-1.76c-0.12,0.02-0.24,0.02-0.36,0.01c-0.5-0.04-1.21,0.17-1.39-0.36
		c-0.13-0.39,0.48-0.79,0.86-1.04c1.2-0.78,1.91-1.64,1.38-3.23c-0.37-1.11,0.65-1.34,1.21-0.82c1.61,1.5,3.04,0.81,4.63,0.07
		C458.33,264.85,459.28,264.22,459.48,265.44z"/>
	<path style="fill-rule:evenodd;clip-rule:evenodd;fill:#242021;" d="M489.1,240.92c-0.16-0.01-0.29,0.02-0.4-0.02
		c-1.8-0.66-2.35,0.24-2.39,1.85c-0.01,0.56-0.33,1.06-0.83,1.22c-0.57,0.18-0.95-0.44-1-0.81c-0.27-2.27-1.94-2.07-3.51-2.11
		c-0.33-0.01-0.82,0.19-0.95-0.25c-0.11-0.38,0.12-0.87,0.48-1.03c1.58-0.7,1.64-1.99,1.48-3.43c-0.04-0.37-0.05-1.17,0.61-0.59
		c1.59,1.41,2.91,0.58,4.3-0.25c0.31-0.18,0.66-0.28,0.97-0.46c0.34-0.19,0.61-0.1,0.87,0.13c0.27,0.24,0.19,0.5,0.06,0.76
		c-0.16,0.32-0.29,0.67-0.53,0.93c-0.97,1.1-0.62,1.85,0.59,2.4c0.18,0.08,0.38,0.15,0.53,0.27c0.33,0.27,0.97,0.35,0.84,0.96
		C490.1,241.21,489.47,240.81,489.1,240.92z"/>
	<path style="fill-rule:evenodd;clip-rule:evenodd;fill:#242021;" d="M491.5,251.42c1.42-1.83-0.14-2.44-1.56-3.15
		c-0.21-0.1-0.45-0.45-0.42-0.65c0.04-0.36,0.45-0.18,0.7-0.25c1.55-0.41,3.19-0.55,3.98-2.37c0.31-0.71,1.34-0.86,1.57-0.02
		c0.44,1.66,1.61,1.79,2.93,1.89c0.47,0.04,1.15,0.08,1.19,0.55c0.05,0.5-0.54,0.91-1.04,0.99c-1.65,0.26-1.87,1.06-1.09,2.41
		c0.15,0.25,0.37,0.68,0.02,0.98c-0.31,0.27-0.67,0.16-1.01,0c-0.11-0.05-0.25-0.05-0.33-0.13c-1.24-1.07-2.34-1-3.36,0.34
		c-0.26,0.34-0.73,0.53-1.19,0.41C491.5,252.33,491.59,251.93,491.5,251.42z"/>
	<path style="fill-rule:evenodd;clip-rule:evenodd;fill:#1A3628;" d="M443.13,252.79c0.01,0.48-1.98,3.58-2.43,3.77
		c-0.09,0.04-0.23,0.04-0.31-0.01c-1.29-0.67-2.78-0.93-3.92-1.93c-0.5-0.44-0.59-0.79-0.15-1.38c0.53-0.7,0.92-1.54,0.82-2.43
		c-0.15-1.3,0.64-1.12,1.36-0.93c0.74,0.19,1.32,0.71,1.87,1.23c0.67,0.64,1.39,1.19,2.35,1.32
		C442.93,252.45,443.25,252.37,443.13,252.79z"/>
	<path style="fill-rule:evenodd;clip-rule:evenodd;fill:#242021;" d="M501.79,260.23c1.68-1.46,0.81-2.43-0.78-3.31
		c-0.5-0.27,0.02-0.5,0.3-0.56c1.77-0.39,3.44-0.9,4.19-2.82c0.09-0.23,0.33-0.48,0.67-0.37c0.41,0.14,0.76,0.45,0.75,0.85
		c-0.04,1.38,0.84,1.76,1.95,1.94c0.44,0.07,1.03,0.22,1.05,0.64c0.02,0.47-0.51,0.79-1,0.88c-1.16,0.22-1.51,0.8-1.08,1.93
		c0.17,0.43,0.29,1.06-0.07,1.36c-0.42,0.35-1.11,0.13-1.43-0.22c-1.16-1.22-2.09-0.69-3.09,0.19c-0.31,0.27-0.78,0.48-1.22,0.29
		C501.89,261,501.9,260.64,501.79,260.23z"/>
	<path style="fill-rule:evenodd;clip-rule:evenodd;fill:#242021;" d="M485.91,224.21c-0.26-0.06-0.54-0.09-0.8-0.19
		c-1.23-0.47-1.99-0.1-2.33,1.19c-0.14,0.53-0.27,1.25-0.9,1.26c-0.63,0.01-0.88-0.67-0.95-1.22c-0.16-1.23-1.13-0.82-1.83-1.01
		c-0.63-0.17-1.68,0.12-1.81-0.53c-0.16-0.76,0.76-1.24,1.44-1.55c1.03-0.46,0.48-1.28,0.56-1.96c0.04-0.29-0.36-0.66,0.07-0.84
		c0.21-0.09,0.61-0.02,0.77,0.14c1.31,1.23,2.5,0.76,3.73-0.15c0.47-0.34,1.18-0.64,1.65-0.2c0.37,0.34,0.1,1.01-0.17,1.44
		c-0.8,1.26-0.58,2.1,0.89,2.57c0.27,0.09,0.61,0.37,0.51,0.73C486.65,224.3,486.21,224.1,485.91,224.21z"/>
	<path style="fill-rule:evenodd;clip-rule:evenodd;fill:#242021;" d="M475.65,252.92c-0.09-0.02-0.39,0-0.51-0.14
		c-0.24-0.28-0.02-0.59,0.11-0.88c0.73-1.64,0.73-1.65-1.12-1.87c-2-0.25-2.72-1.46-1.95-3.34c0.56-1.37,1.66-2.08,3.05-2.41
		c0.53-0.13,1.07-0.07,1.38,0.45c0.29,0.5,0.17,1.01-0.23,1.42c-0.55,0.56-0.78,0.97,0.25,1.27c1.23,0.35,2.52,0.73,2.33,2.48
		C478.81,251.27,477.34,252.7,475.65,252.92z"/>
	<path style="fill-rule:evenodd;clip-rule:evenodd;fill:#242021;" d="M461.34,227.58c-0.01-2.39,0.77-3.06,3.04-2.56
		c0.51,0.11,0.86,0.03,1.28-0.33c0.87-0.74,1.91-1.07,2.95-0.37c0.99,0.67,1.08,1.69,0.76,2.78c-0.06,0.19-0.06,0.4-0.12,0.58
		c-0.34,1.06-0.66,2.19-1.4,3c-0.92,1-1.83-0.31-2.8-0.3c-0.65,0.01-1.32-0.23-1.96-0.43C461.49,229.43,461.35,229.21,461.34,227.58
		z"/>
	<path style="fill-rule:evenodd;clip-rule:evenodd;fill:#242021;" d="M461.78,243.51c-0.19-0.7-2.43,0.68-1.42-1.46
		c0.1-0.22-0.13-0.33-0.28-0.46c-1.14-1.04-1.06-2.23-0.36-3.45c0.71-1.24,1.84-1.7,3.23-1.53c1.03,0.13,1.26,0.68,0.73,1.57
		c-0.06,0.1-0.15,0.19-0.2,0.29c-0.27,0.47-0.88,1-0.55,1.46c0.27,0.38,0.94-0.09,1.43-0.17c0.71-0.11,1.51-0.29,1.92,0.52
		c0.42,0.83-0.09,1.43-0.71,1.94C464.5,243.08,463.22,243.34,461.78,243.51z"/>
	<path style="fill-rule:evenodd;clip-rule:evenodd;fill:#242021;" d="M477.67,261.07c0.03-2.07,1.45-3.5,3.32-3.35
		c1.16,0.1,1.86,0.99,1.45,2.04c-0.25,0.64-0.1,0.75,0.47,0.8c0.71,0.07,1.56,0.12,1.73,0.96c0.2,0.98-0.67,1.35-1.36,1.72
		c-0.66,0.35-1.33,0.78-2.05,0.92C479.03,264.62,477.64,263.36,477.67,261.07z"/>
	<path style="fill-rule:evenodd;clip-rule:evenodd;fill:#252122;" d="M512.61,261.26c1.17,1.31,2.5-0.69,3.99,0.04
		c1.04,0.51,1.17,1.1,0.89,1.93c-0.54,1.63-2.04,2.6-2.91,4.02c-0.13,0.22-0.38,0.21-0.61,0.03c-1.05-0.79-2.14-1.52-3.15-2.35
		c-0.73-0.6-1.06-1.45-0.64-2.35C510.61,261.7,511.45,261.32,512.61,261.26z"/>
	<path style="fill-rule:evenodd;clip-rule:evenodd;fill:#242021;" d="M514.33,253.63c-2.08,0.02-3.04-1.46-2.34-3.25
		c0.46-1.16,1.28-1.87,2.52-2.12c0.54-0.11,1.1-0.14,1.44,0.29c0.39,0.49-0.04,0.95-0.28,1.41c-0.14,0.26-0.57,0.39-0.4,0.75
		c0.03,0.06,0.49-0.09,0.75-0.15c0.66-0.14,1.45-0.76,1.89,0.17c0.4,0.84-0.31,1.41-0.91,1.87
		C516.16,253.24,515.19,253.56,514.33,253.63z"/>
	<path style="fill-rule:evenodd;clip-rule:evenodd;fill:#242021;" d="M510.16,229.4c0.54,0.23,1-0.05,1.51-0.44
		c0.68-0.52,1.52-0.83,2.32-0.23c0.84,0.63,0.58,1.52,0.29,2.29c-0.4,1.07-1.2,1.95-1.45,3.11c-0.08,0.4-0.39,0.58-0.91,0.33
		c-0.89-0.42-1.86-0.67-2.77-1.04c-1.03-0.41-2.22-0.78-2.09-2.22C507.14,230.14,508.64,229.32,510.16,229.4z"/>
	<path style="fill-rule:evenodd;clip-rule:evenodd;fill:#242021;" d="M456.57,252.55c-0.01,0.24,0.03,0.49-0.04,0.71
		c-0.29,0.89-0.08,1.97-0.73,2.7c-0.94,1.05-1.52-0.51-2.42-0.48c-0.82,0.03-1.7-0.37-2.49-0.71c-0.79-0.34-1.47-0.94-1.21-1.93
		c0.27-1.07,0.9-1.86,2.14-1.89c0.42-0.01,0.86,0.19,1.23-0.2c0.74-0.77,1.63-0.98,2.59-0.48
		C456.56,250.76,456.6,251.65,456.57,252.55z"/>
	<path style="fill-rule:evenodd;clip-rule:evenodd;fill:#242021;" d="M496.66,226.98c-0.16,1.37-0.44,2.67-0.31,3.99
		c0.07,0.71-0.57,0.55-0.76,0.52c-1.32-0.24-2.65-0.52-3.94-0.89c-0.85-0.24-1.49-0.82-1.48-1.8c0.01-1,0.67-1.55,1.55-1.66
		c1.01-0.12,1.72-0.65,2.47-1.24c0.58-0.46,1.32-0.54,2.04-0.23C496.9,225.96,496.52,226.58,496.66,226.98z"/>
	<path style="fill-rule:evenodd;clip-rule:evenodd;fill:#242021;" d="M493.73,262.57c-2.02,0.12-3.59-1.61-2.52-3.83
		c0.54-1.12,1.18-1.22,2.01-1.28c0.98-0.07,1.82,0.24,1.99,1.43c0.07,0.51,0.51,0.25,0.78,0.25c0.93-0.03,1.07,0.44,0.9,1.22
		C496.6,261.66,495.35,262.56,493.73,262.57z"/>
	<path style="fill-rule:evenodd;clip-rule:evenodd;fill:#252123;" d="M522.24,232.23c0.76,0.03,1.28-0.03,1.56,0.48
		c0.27,0.47-0.04,0.87-0.31,1.18c-0.91,1.07-1.29,2.07,0.05,3.12c0.39,0.31,0.31,0.81,0.09,1.21c-0.27,0.5-0.66,0.24-1.04,0.11
		c-0.83-0.28-1.7-0.46-2.48-0.82c-1.4-0.65-1.74-1.88-0.86-3.14C520.05,233.24,521,232.27,522.24,232.23z"/>
	<path style="fill-rule:evenodd;clip-rule:evenodd;fill:#242021;" d="M464.54,263.38c1.3,0.01,2.28,0.46,3.04,1.37
		c0.59,0.7,0.85,1.58,0.43,2.33c-0.42,0.75-1.34,0.58-2.07,0.37c-0.7-0.21-1.2-0.39-1.27,0.66c-0.06,0.79-0.67,0.77-1.25,0.5
		c-1.43-0.67-1.57-1.9-1.33-3.23C462.33,263.97,463.33,263.44,464.54,263.38z"/>
	<path style="fill-rule:evenodd;clip-rule:evenodd;fill:#242122;" d="M447.91,235.94c-0.02,0.16-0.02,0.24-0.04,0.32
		c-0.33,1.25-0.01,3.23-1.08,3.58c-1.45,0.47-3.02-0.85-4.59-1.26c-0.31-0.08-0.32-0.31-0.28-0.55c0.22-1.41,0.44-2.82,0.65-4.23
		c0.08-0.58,0.28-0.64,0.74-0.28c1.21,0.94,2.55,1.6,4.09,1.8C447.88,235.38,447.99,235.6,447.91,235.94z"/>
	<path style="fill-rule:evenodd;clip-rule:evenodd;fill:#252122;" d="M475.09,271.89c-1.88-0.02-2.96-1-2.94-2.43
		c0.02-1.38,1.07-2.4,2.47-2.34c0.42,0.02,1.1,0.01,1.1,0.48c0,1.53,0.82,0.98,1.6,0.77c0.53-0.14,0.93,0.18,1.2,0.6
		c0.27,0.43,0.14,0.85-0.17,1.2C477.42,271.27,476.22,271.8,475.09,271.89z"/>
	<path style="fill-rule:evenodd;clip-rule:evenodd;fill:#252122;" d="M529.33,245.21c-0.9,1.14-1.73,2.27-2.98,2.97
		c-0.89,0.5-1.21-0.38-1.64-0.78c-2.06-1.89-2.05-1.98-0.43-4.23c1.32-1.84,2.25-1.78,3.4,0.17c0.27,0.47,0.72,0.84,1.08,1.26
		C528.93,244.81,529.12,245,529.33,245.21z"/>
	<path style="fill-rule:evenodd;clip-rule:evenodd;fill:#252122;" d="M451.74,243.34c1.91,0.18,3.84,0.31,5.26,1.87
		c1.08,1.19,0.97,1.99-0.29,2.65c-0.54,0.28-0.92,0.17-1.36-0.23c-1.08-1.01-2.14-2.05-3.76-2.14c-1.05-0.06-1.84-0.58-2.39-1.48
		C449.99,243.53,450.83,243.3,451.74,243.34z"/>
	<path style="fill-rule:evenodd;clip-rule:evenodd;fill:#262223;" d="M473.12,284.84c-0.24,0.31-0.58,0.44-0.95,0.48
		c-0.4-0.91-1.37-1.21-1.99-1.91c-1.35-1.52-1.91-3.4-2.66-5.2c0.08-0.09,0.17-0.13,0.29-0.14c1.17,0.52,1.4,1.74,2.03,2.66
		c0.09,0.18,0.17,0.37,0.26,0.54c0.05,0.08,0.09,0.17,0.14,0.25c0.09,0.15,0.19,0.3,0.31,0.44c0.06,0.05,0.11,0.11,0.16,0.17
		c0.04,0.04,0.09,0.08,0.16,0.06c-0.35-1.42-1.45-2.43-1.93-3.77c-0.16-0.45-0.63-0.7-1.17-0.41c-0.09,0.06-0.18,0.12-0.26,0.19
		c-0.27-0.97-0.27-2.25,0.54-2.56c0.66-0.25,1.39,0.96,1.61,1.77c0.64,2.27,2.08,4.08,3.3,6.01
		C473.27,283.92,473.33,284.34,473.12,284.84z"/>
	<path style="fill-rule:evenodd;clip-rule:evenodd;fill:#252122;" d="M458.53,226.13c0.02,0.67-1.94,3.64-2.43,3.78
		c-0.15,0.04-0.36-0.05-0.52-0.12c-0.29-0.12-0.57-0.28-0.85-0.42c-3.47-1.76-3.56-2.14-1.33-5.29c0.22-0.32,0.38-0.29,0.67-0.23
		c1.58,0.37,2.81,1.47,4.29,2.05C458.47,225.94,458.52,226.12,458.53,226.13z"/>
	<path style="fill-rule:evenodd;clip-rule:evenodd;fill:#252122;" d="M472.83,231.35c1.75,0.4,3.2,1.36,4.5,2.55
		c0.27,0.25,0.07,0.51-0.07,0.75c-0.63,1.03-1.5,1.85-2.33,2.7c-0.14,0.15-0.28,0.28-0.5,0.14c-1.11-0.69-2.23-1.36-3.32-2.08
		c-0.38-0.25-0.06-0.57,0.08-0.83c0.5-0.96,1.52-1.68,1.24-2.98C472.37,231.32,472.63,231.32,472.83,231.35z"/>
	<path style="fill-rule:evenodd;clip-rule:evenodd;fill:#252122;" d="M510.02,245.37c-1.04,0.08-3.95-1.73-3.97-2.47
		c-0.02-0.62,2.16-3.3,2.73-3.34c0.34-0.02,3.43,2.25,3.45,2.54C512.26,242.66,510.46,245.33,510.02,245.37z"/>
	<path style="fill-rule:evenodd;clip-rule:evenodd;fill:#252122;" d="M501.14,223.44c-0.52,0.12-0.77-0.22-1-0.63
		c-0.46-0.81-0.68-1.71-0.76-2.62c-0.11-1.3,1.23-1.1,1.89-1.56c2.39-1.68,2.46-1.62,3.03,1.16c0.14,0.67,0.58,1.36,0.26,2.06
		C504.34,222.32,501.75,223.44,501.14,223.44z"/>
	<path style="fill-rule:evenodd;clip-rule:evenodd;fill:#242021;" d="M521.99,252.92c0.52,0.03,1.43,0.08,1.48,1.04
		c0.05,0.95-0.76,1.14-1.6,1.14c-1.11-0.01-1.98,0.43-2.57,1.44c-0.37,0.62-0.98,1.3-1.72,0.91c-0.83-0.43-0.69-1.33-0.38-2.12
		C517.81,253.79,519.5,252.9,521.99,252.92z"/>
	<path style="fill-rule:evenodd;clip-rule:evenodd;fill:#252122;" d="M496.35,267.82c0.44-0.9,0.82-2.05,1.52-2.95
		c0.26-0.34,1.34-0.55,1.84,0.31c0.14,0.24,0.29,0.47,0.48,0.68c1.58,1.74,1.57,1.96-0.03,3.68c-0.36,0.39-0.58,1.16-1.24,0.82
		c-0.96-0.49-2.1-0.81-2.53-1.99C496.35,268.26,496.37,268.14,496.35,267.82z"/>
	<path style="fill-rule:evenodd;clip-rule:evenodd;fill:#252122;" d="M488.04,271.18c-0.64-0.1-1.59,0.15-1.77-1.08
		c-0.18-1.26,0.58-2.96,1.56-3.34c0.04-0.01,0.08-0.01,0.12-0.02c1.21-0.44,2.42-0.87,3.52,0.28c0.6,0.62,0.68,1.31,0.34,2.08
		C491.27,270.3,489.74,271.18,488.04,271.18z"/>
	<path style="fill-rule:evenodd;clip-rule:evenodd;fill:#262223;" d="M473.84,284.64c-0.17,0.06-0.34,0.13-0.51,0.19
		C473.5,284.76,473.67,284.7,473.84,284.64z"/>
	<path style="fill-rule:evenodd;clip-rule:evenodd;fill:#EDB336;" d="M467.6,278.12c0.01,0.06-0.02,0.09-0.08,0.1l-0.04,0.02
		c0,0,0.02-0.03,0.02-0.03l0.03-0.07l0.08,0L467.6,278.12z"/>
	<path style="fill-rule:evenodd;clip-rule:evenodd;fill:#FEF4C7;" d="M485.8,297c0.08-0.08,0.17-0.17,0.25-0.25
		c0.25,0.08,0.43,0.26,0.49,0.49c0.52,2.02,1.24,3.97,2.04,5.88c0.1,0.23,0.08,0.47-0.09,0.68c-0.96,0.71-2.04,1.01-3.24,0.95
		c-0.53-0.03-1.19,0.07-1.31,0.59c-0.11,0.45,0.54,0.61,0.93,0.77c0.45,0.18,0.52,0.38,0.23,0.79c-1.21,1.71-1.86,3.68-2.63,5.6
		c-0.15,0.36-0.18,0.99-0.67,0.99c-0.41,0-0.43-0.61-0.63-0.93c-0.13-0.2-0.25-0.41-0.37-0.61c-0.36-0.2-0.69-0.42-0.76-0.87
		c-0.25-1.73-0.71-3.43-0.71-5.19c0.73-1.19,0.71-2.69,1.8-3.76c1.55-1.53,2.95-3.22,4.41-4.85
		C485.68,297.25,485.78,297.16,485.8,297z"/>
	<path style="fill-rule:evenodd;clip-rule:evenodd;fill:#0F51A2;" d="M490.78,337.88c-1.39-1.42-2.14-3.19-2.79-5.02
		c-0.23-0.28,0.01-0.66-0.21-0.95c-0.01-0.17-0.03-0.33-0.04-0.5c-0.27-0.69,0.06-1.43-0.19-2.13c-0.02-0.5-0.04-0.99-0.07-1.48
		c-0.02-0.42-0.38-0.91,0.26-1.18c0.08,0.12,0.16,0.25,0.24,0.37c0.26,0.31-0.03,0.76,0.26,1.06c0.07,0.22,0.15,0.45,0.22,0.67
		c0.21,0.22,0.02,0.55,0.23,0.77c0.4,1.09,0.8,2.18,1.2,3.27c0.18,0.56,0.42,1.09,0.74,1.59c0.16,0.26,0.31,0.53,0.47,0.79
		c0.12,0.3,0.29,0.57,0.49,0.82l-0.01-0.01c0.17,0.24,0.29,0.51,0.49,0.73l-0.01-0.01c0.18,0.25,0.29,0.55,0.56,0.74
		c0.06,0.05,0.11,0.11,0.14,0.19c0.17,0.25,0.3,0.54,0.51,0.77l-0.01-0.01c0.19,0.25,0.29,0.56,0.57,0.74
		c0.05,0.06,0.09,0.13,0.14,0.19c0.17,0.25,0.3,0.53,0.5,0.76l-0.01-0.01c0.17,0.24,0.29,0.51,0.49,0.73l-0.01-0.01
		c0.16,0.25,0.31,0.5,0.47,0.75c0.06,0.17,0.11,0.35,0.17,0.52c-0.46,0.06-0.81-0.15-1.12-0.46c-0.28-0.33-0.64-0.58-1-0.83
		c-0.46-0.46-0.92-0.93-1.39-1.39C491.73,338.79,491.24,338.35,490.78,337.88z"/>
	<path style="fill-rule:evenodd;clip-rule:evenodd;fill:#E35153;" d="M477.77,300.42c-0.32-0.88,0.39-1.32,0.85-1.81
		c0.7-0.74,1.51-1.38,2.21-2.11c0.22-0.23,0.36-0.64,0.37-0.97c0.01-0.31-0.35-0.34-0.63-0.4c-0.39-0.08-0.99,0.28-1.15-0.28
		c-0.19-0.65,0.44-0.96,0.86-1.3c0.3-0.24,0.67-0.41,1.01-0.61c0.73,1.45,1.91,2.67,2.25,4.33c0.05,0.23,0.17,0.45,0.14,0.7
		c-0.01,0.06-0.05,0.11-0.11,0.13c-0.03,0.04-0.07,0.07-0.1,0.11c-0.68,0.91-1.35,1.81-2.03,2.72c-0.93,0.24-1.78-0.04-2.61-0.41
		C478.48,300.34,478.15,300.16,477.77,300.42z"/>
	<path style="fill-rule:evenodd;clip-rule:evenodd;fill:#0679BC;" d="M475.53,304.04c-0.4-0.09-0.8-0.17-1.2-0.26
		c-0.35-0.5-0.21-0.89,0.25-1.21c0.65,0.24,0.9,1.44,1.91,0.77c0.13-0.15,0.51-0.24,0.11-0.5c-0.89-0.73-1.04-1.84-1.36-2.83
		c-0.27-0.84,0.6-1.04,1.11-1.45c0.38-0.31,1.45-0.22,0.87-1.23c-0.49-0.22-0.99-0.19-1.49-0.02c-1.03,0.55-1.83,0.75-2.21-0.79
		c-0.17-0.68-0.85-0.92-1.42-0.15c-0.15,0.12-0.29,0.15-0.41-0.03c-0.06-1.04,0.48-2.15,1.21-2.33c0.69-0.17,0.92,1.2,1.43,1.84
		c0.86,0.3,1.74,0.19,2.61,0.07c0.32,0,0.64,0,0.95,0c0.17,0.12,0.39,0.1,0.58,0.2c0.23-0.01,0.48,0.09,0.65-0.16
		c0.16-0.23,0.41-0.33,0.58-0.08c0.17,0.24,0.09,0.48-0.19,0.69c-1.22,0.91-2.68,1.88-2.98,3.29c-0.3,1.43,1.15,2.68,1.62,4.1
		c-0.27,0.55-0.27,0.55-1.45,0.35c-0.08,0-0.15-0.01-0.22-0.03C476.21,304.03,475.81,304.29,475.53,304.04z"/>
	<path style="fill-rule:evenodd;clip-rule:evenodd;fill:#CA2125;" d="M493.32,319.41c-0.17,0.44-0.35,0.88-0.52,1.32
		c-0.8,2.12-1.91,2.82-4.22,2.76c-0.65-0.02-0.84-0.15-0.6-0.81c0.79-2.18,1.82-4.21,3.37-5.96
		C492.23,317.45,492.72,318.47,493.32,319.41z"/>
	<path style="fill-rule:evenodd;clip-rule:evenodd;fill:#FEF3C4;" d="M483.2,290.32c-1.02,0.37-2.1,0.24-3.15,0.32
		c-0.47,0.13-0.94,0.1-1.42,0.02c-0.65-1.28-0.49-2.54,0.18-3.73c0.49-0.88,1.45-1.15,2.37-0.79c1.14,0.44,2.42,2.41,2.37,3.62
		C483.54,290.02,483.45,290.21,483.2,290.32z"/>
	<path style="fill-rule:evenodd;clip-rule:evenodd;fill:#FBC425;" d="M492.79,297.74c-0.74,0.45-0.93,1.67-2.11,1.5
		c-0.51,0.6-0.99,0.38-1.14-0.21c-0.43-1.67-0.96-3.34-0.82-5.1c0.67-0.87,1.53-1.52,2.38-2.18c0.35,0.22,0.43,0.58,0.38,0.94
		c-0.21,1.62,0.26,3.05,1.15,4.39C492.77,297.27,492.87,297.49,492.79,297.74z"/>
	<path style="fill-rule:evenodd;clip-rule:evenodd;fill:#F38923;" d="M484.44,284.29c1.31-0.05,2.71-0.39,3.9-0.05
		c1.15,0.33,2.41,0.61,3.45,1.27c1.1,0.7,1.05,1.71,0.01,2.54c-0.7,0.56-1.54,0.8-2.38,1.05c-0.71-0.19-1-0.74-1.15-1.39
		c-0.15-0.62-0.33-1.25-0.29-1.88c0.07-1.04-0.48-1.21-1.31-1.13c-0.66,0.01-1.31,0.09-1.95-0.13
		C484.59,284.51,484.5,284.42,484.44,284.29z"/>
	<path style="fill-rule:evenodd;clip-rule:evenodd;fill:#D63534;" d="M482.75,314.84c-0.01-0.6,0.14-1.16,0.43-1.68
		c0.25-0.42,0.66-0.5,1.1-0.58c1.78-0.35,2.36-1.54,1.53-3.11c-0.21-0.39-0.47-0.75-0.22-1.21c0.28-0.45,0.27-1.3,1.16-0.92
		c0.68,0.29,1.34,0.39,1.33,1.57c-0.03,2.32-1.02,4.07-2.46,5.69C484.66,314.75,483.7,314.72,482.75,314.84z"/>
	<path style="fill-rule:evenodd;clip-rule:evenodd;fill:#FCE286;" d="M478.65,290.56c0.47,0.03,0.94,0.05,1.41,0.08
		c-1.05,0.25-2.09,0.23-3.14,0c-0.96-1.69-0.35-3.22,0.48-4.73c0.23-0.41,0.64-0.71,0.76-1.2c1.35-0.14,2.7-0.45,4.07-0.3
		c-0.03,0.46,0.38,0.57,0.64,0.79c1.51,1.27,2.24,2.94,2.5,4.85c-0.32,0.03-0.64,0.06-0.95,0.09c-0.72-0.3-0.62-1.05-0.86-1.61
		c-0.56-1.28-1.18-2.47-2.79-2.6c-1.22-0.1-1.95,0.34-2.48,1.45C477.78,288.4,477.94,289.8,478.65,290.56z"/>
	<path style="fill-rule:evenodd;clip-rule:evenodd;fill:#C92327;" d="M485.61,295.48c-0.1,0.13-0.2,0.25-0.3,0.37
		c-0.43,0.33-0.7,0.01-0.87-0.28c-0.58-1-1.18-1.99-1.79-2.97c-0.11-0.18-0.07-0.38,0.06-0.56l0.02-0.01
		c0.13-0.13,0.37-0.09,0.45-0.3c0.78-0.89,1.92-0.62,2.89-0.86c0.75,0.81,0.81,1.91,1.24,2.86c-0.47,0.48-0.94,0.96-1.41,1.44
		C485.76,295.23,485.66,295.33,485.61,295.48z"/>
	<path style="fill-rule:evenodd;clip-rule:evenodd;fill:#FCECB4;" d="M488.76,318.26c-0.06,0.38-0.19,0.68-0.66,0.68
		c-1.55,0-2.48-1.32-1.88-2.77c0.45-1.09,0.79-2.26,2.02-2.79c0.13-0.12,0.34-0.06,0.46-0.22l0.03-0.01
		c0.63,0.11,0.56,0.63,0.49,1.01C488.99,315.52,489.18,316.92,488.76,318.26z"/>
	<path style="fill-rule:evenodd;clip-rule:evenodd;fill:#F7A422;" d="M492.79,297.74c-1.68-1.68-1.75-3.82-1.69-5.99
		c0.45-0.38,0.91-0.75,1.35-1.14c0.73-0.64,1.16-0.49,1.29,0.48c-0.08,0.35-0.29,0.65-0.44,0.98c-0.59,1.29-0.61,2.54,0.27,3.73
		c0.23,0.32,0.51,0.62,0.49,1.06C493.64,297.16,493.22,297.45,492.79,297.74z"/>
	<path style="fill-rule:evenodd;clip-rule:evenodd;fill:#FDECAB;" d="M478.65,290.56c-0.62,0.11-1.03-0.03-0.97-0.78
		c0.07-0.86-0.17-1.74,0.25-2.58c0.63-1.25,1.56-1.8,2.99-1.66c1.5,0.15,2.16,1.21,2.74,2.33c0.36,0.7,0.51,1.5,0.75,2.25
		c-0.37,0.31-0.79,0.22-1.21,0.19c0.16-1.58-0.6-2.77-1.75-3.67c-1.2-0.94-2.65-0.06-2.79,1.65
		C478.59,289.04,478.65,289.8,478.65,290.56z"/>
	<path style="fill-rule:evenodd;clip-rule:evenodd;fill:#670808;" d="M474.32,314.14c-0.07,0.47-0.13,0.94-0.21,1.41
		c-0.06,0.39-0.33,0.5-0.69,0.49c-0.32-0.01-0.76,0.02-0.8-0.35c-0.23-2.12-1.41-4.17-0.43-6.37c0.49-0.29,0.8,0.05,0.96,0.4
		C473.76,311.13,474.47,312.53,474.32,314.14z"/>
	<path style="fill-rule:evenodd;clip-rule:evenodd;fill:#C92226;" d="M492.32,300.32c0-0.86,1.52-2.37,2.26-2.42
		c0.48-0.03,0.35,0.34,0.38,0.57c0.15,1.14,0.29,2.29,0.43,3.43c0.04,0.29,0.05,0.65-0.32,0.64c-0.54-0.01-1.19,0.59-1.56,0.04
		C493.02,301.85,492.43,301.1,492.32,300.32z"/>
	<path style="fill-rule:evenodd;clip-rule:evenodd;fill:#D73736;" d="M482.71,292.05c0.93,1.23,1.29,2.84,2.6,3.81
		c-0.54,0.7-1.08,1.41-1.62,2.11c-0.64-1.75-1.99-3.16-2.39-5.02C481.77,292.64,482.24,292.34,482.71,292.05z"/>
	<path style="fill-rule:evenodd;clip-rule:evenodd;fill:#F38A24;" d="M473.11,290.29c-1.22-0.3-2.84-0.36-3.02-1.84
		c-0.16-1.33,1.39-1.75,2.36-2.4c0.13-0.09,0.29-0.13,0.43-0.19c0.24,0.06,0.44,0.17,0.58,0.39
		C474,287.09,473.78,289.49,473.11,290.29z"/>
	<path style="fill-rule:evenodd;clip-rule:evenodd;fill:#C62226;" d="M474.06,306.18c0.62-1.02,2.97-1.43,3.81-0.68
		c0.33,0.29,0.03,0.49-0.09,0.7c-0.53,0.98-1.07,1.94-1.61,2.91c-0.04,0.08-0.09,0.15-0.16,0.22c-0.01,0.08-0.03,0.15-0.06,0.22
		c-0.44,0.1-0.71-0.18-0.86-0.49C474.67,308.12,474.16,307.22,474.06,306.18z"/>
	<path style="fill-rule:evenodd;clip-rule:evenodd;fill:#313E66;" d="M494.67,303.35c0.87-0.05,0.91,0.49,0.67,1.01
		c-0.63,1.4-1.19,2.75,0.44,3.9c0.25,0.18,0.24,0.63,0.02,0.88c-0.29,0.34-0.67,0.15-0.98-0.03c-0.46-0.26-1.28-0.38-1-1.09
		c0.23-0.57-0.02-0.85-0.24-1.22c-0.4-0.68-0.43-1.27,0.31-1.74c0.15-0.1,0.26-0.26,0.38-0.39c-0.17-0.05-0.34-0.12-0.52-0.14
		c-0.41-0.05-1.06,0.14-1.08-0.44c-0.03-0.7,0.68-0.43,1.1-0.53C494.1,303.49,494.4,303.41,494.67,303.35z"/>
	<path style="fill-rule:evenodd;clip-rule:evenodd;fill:#DF4746;" d="M485.58,308.26c0,0.34,0.16,0.6,0.39,0.84
		c0.67,0.72,0.79,1.57,0.41,2.44c-0.4,0.91-1.12,1.41-2.17,1.39c-0.34,0-0.69,0.14-1.04,0.22
		C483.6,311.34,484.42,309.71,485.58,308.26z"/>
	<path style="fill-rule:evenodd;clip-rule:evenodd;fill:#C42427;" d="M470.01,292.82c0-0.04,0-0.08,0-0.12
		c0-2.4,0.56-2.72,2.68-1.57c0.37,0.2,0.29,0.37,0.13,0.65c-0.7,1.16-1.37,2.33-2.06,3.49c-0.09,0.16-0.25,0.28-0.38,0.42
		c-0.08-0.17-0.2-0.32-0.22-0.49c-0.09-0.79-0.14-1.58-0.21-2.37C469.97,292.82,469.99,292.82,470.01,292.82z"/>
	<path style="fill-rule:evenodd;clip-rule:evenodd;fill:#620606;" d="M493.79,313.9c0.55-0.73,1.17-1.83,2.03-1.55
		c0.76,0.25,0.5,1.51,0.59,2.35c0.14,1.23-0.25,2.09-1.45,2.53C493.96,316.33,493.76,315.16,493.79,313.9z"/>
	<path style="fill-rule:evenodd;clip-rule:evenodd;fill:#0F7CBD;" d="M476.97,322.06c0.04-0.02,0.08-0.02,0.11-0.05
		c1.47-1.44,2.67-1.09,3.69,0.54c0.13,0.07,0.24,0.17,0.39,0.21l0.01,0c1-0.5,1.76-0.24,2.27,0.75c0.03,0.06,0.04,0.11,0.02,0.17
		c-1.12,0.3-2.24,0.21-3.36,0.03c-0.78-0.81-1.52-1.64-2.81-0.78c-0.42,0.28-0.9-0.1-1.29-0.38
		C476.04,321.83,476.71,322.37,476.97,322.06z"/>
	<path style="fill-rule:evenodd;clip-rule:evenodd;fill:#F27C23;" d="M494.06,296.87c-1.92-2.14-2.04-4.27-0.32-5.77
		c0.65,1.55,0.66,3.23,0.96,4.85C494.79,296.43,494.64,296.81,494.06,296.87z"/>
	<path style="fill-rule:evenodd;clip-rule:evenodd;fill:#FBCF21;" d="M475.15,294.69c-0.67-0.73-1.5-1.73-1.13-2.54
		c0.45-0.97,1.8-0.71,2.82-0.68c0.11,0,0.23,0.06,0.34,0.09c0.13,0.08,0.34,0.17,0.31,0.33c-0.23,1.03-0.28,2.13-1.16,2.89
		C475.93,294.79,475.53,294.85,475.15,294.69z"/>
	<path style="fill-rule:evenodd;clip-rule:evenodd;fill:#FBBA2D;" d="M484.66,284.39c0.71,0,1.43,0,2.14-0.01
		c0.58,1.65,1.05,3.33,0.98,5.11c-0.3,0.05-0.59,0.1-0.89,0.15c-0.11,0.07-0.23,0.09-0.36,0.05c-0.33-0.14-0.46-0.43-0.54-0.74
		c-0.31-1.24-0.78-2.41-1.33-3.57C484.53,285.07,484.35,284.73,484.66,284.39z"/>
	<path style="fill-rule:evenodd;clip-rule:evenodd;fill:#FBC238;" d="M474.48,285.29c0.72-0.37,1.48-0.21,2.23-0.17
		c0.59,0.31,0.28,0.76,0.15,1.14c-0.31,0.87-0.5,1.75-0.5,2.68c-0.01,1.59-0.2,1.71-1.88,1.41c-0.29-0.38-0.32-0.83-0.25-1.25
		C474.44,287.83,474.36,286.55,474.48,285.29z"/>
	<path style="fill-rule:evenodd;clip-rule:evenodd;fill:#F7A025;" d="M487.79,289.5c-0.48-1.67-0.99-3.34-0.98-5.11
		c0.98-0.09,1.76-0.26,1.53,1.36c-0.16,1.08,0.04,2.46,1.09,3.35C488.88,289.23,488.33,289.36,487.79,289.5z"/>
	<path style="fill-rule:evenodd;clip-rule:evenodd;fill:#FDEEAC;" d="M488.49,303.8c-0.98-2.29-1.84-4.63-2.44-7.05
		c0.2-0.22,0.39-0.44,0.58-0.67c0.03-0.07,0.08-0.13,0.15-0.16l0.04-0.05c0.31-0.02,0.43,0.21,0.47,0.44
		c0.44,2.34,1.23,4.57,2.14,6.75C489.51,303.81,489.04,303.87,488.49,303.8z"/>
	<path style="fill-rule:evenodd;clip-rule:evenodd;fill:#F8A527;" d="M474.48,285.29c0.65,0.94,0.33,1.99,0.23,2.96
		c-0.08,0.71-0.15,1.4-0.1,2.11c-0.03,0.04-0.06,0.08-0.08,0.12c-0.47-0.06-0.94-0.13-1.41-0.19c0.28-1.5,0.63-3-0.22-4.44
		c0.29-0.1,0.59-0.21,0.88-0.31c0.18-0.1,0.4-0.07,0.56-0.22C474.37,285.27,474.42,285.26,474.48,285.29z"/>
	<path style="fill-rule:evenodd;clip-rule:evenodd;fill:#AE1D21;" d="M474.06,306.18c0.98,0.93,0.68,2.57,1.9,3.37
		c-0.25,0.64-0.5,1.29-0.75,1.93c-0.43,0.28-0.75-0.03-0.84-0.33c-0.38-1.18-1.24-2.2-1.25-3.51c0.02-0.08,0.05-0.16,0.07-0.24
		c0.04-0.08,0.1-0.16,0.16-0.22C473.58,306.84,473.82,306.51,474.06,306.18z"/>
	<path style="fill-rule:evenodd;clip-rule:evenodd;fill:#98C0E2;" d="M481.96,317.49c1.13,0.38,2.26,0.76,3.39,1.16
		c0.27,0.1,0.72,0.07,0.66,0.53c-0.04,0.32-0.4,0.32-0.63,0.46c-0.81,0.48-2.02,0.3-2.42,1.45c-0.61-0.03-0.76-0.41-0.73-0.94
		c0.35-0.27,1.05-0.25,1.04-0.77c0-0.51-0.61-0.61-1.05-0.75c-1.11-0.49-1.16-0.64-0.5-1.37l0.01,0.02
		C481.84,317.33,481.91,317.4,481.96,317.49z"/>
	<path style="fill-rule:evenodd;clip-rule:evenodd;fill:#881417;" d="M473.11,307.64c0.47,1,1.1,1.92,1.32,3.04
		c0.07,0.38,0.28,0.76,0.77,0.79c-0.29,0.89-0.59,1.78-0.88,2.67c-0.4-1.24-0.79-2.49-1.2-3.73c-0.16-0.49-0.27-1.03-0.93-1.1
		C472.49,308.76,472.8,308.2,473.11,307.64z"/>
	<path style="fill-rule:evenodd;clip-rule:evenodd;fill:#FCD543;" d="M488.72,293.93c0.58,1.45,0.63,3.01,0.96,4.51
		c0.12,0.56,0.14,1.19,1.01,0.8c-0.18,0.55-0.36,1.11-0.53,1.66c-0.75,0.71-0.99-0.06-1.13-0.49c-0.39-1.2-0.79-2.41-0.87-3.67
		c-0.05-0.7-0.47-1.37-0.15-2.09C488.24,294.41,488.48,294.17,488.72,293.93z"/>
	<path style="fill-rule:evenodd;clip-rule:evenodd;fill:#CD2629;" d="M482.75,314.84c0.89-0.81,1.87-0.55,2.86-0.23l-0.01,0.01
		c-0.16,0.13-0.1,0.36-0.24,0.5c0.01,0.08-0.01,0.15-0.05,0.22c-0.07,0.1-0.15,0.2-0.18,0.32c-0.34,0.55,0.27,1.8-1.07,1.61
		C482.62,317.05,482.58,315.98,482.75,314.84z"/>
	<path style="fill-rule:evenodd;clip-rule:evenodd;fill:#EF7324;" d="M493.52,309.37c0.8,0.36,2.03,0.53,2.07,1.47
		c0.04,1.05-1.31,1.25-2.03,1.85c-0.89,0.01-0.95-0.71-1.01-1.29C492.47,310.57,492.55,309.73,493.52,309.37z"/>
	<path style="fill-rule:evenodd;clip-rule:evenodd;fill:#B31F22;" d="M493.32,319.41c-1.04-0.62-1.45-1.7-1.98-2.69
		c0.34-0.69,0.86-1.23,1.45-1.69c0.73,0.86,1.04,1.93,1.47,2.94C493.95,318.45,493.64,318.93,493.32,319.41z"/>
	<path style="fill-rule:evenodd;clip-rule:evenodd;fill:#D94140;" d="M477.77,300.42c0.22-0.13,0.07-0.79,0.58-0.46
		c0.95,0.62,2.08,0.59,3.09,0.96c-0.62,0.71-1.45,1.2-1.92,2.06c-0.28,0.52-0.53,0.27-0.71-0.16
		C478.48,302.02,478.12,301.22,477.77,300.42z"/>
	<path style="fill-rule:evenodd;clip-rule:evenodd;fill:#FBD660;" d="M474.52,290.48c0.03-0.04,0.06-0.08,0.08-0.12
		c1.07,0.17,1.61-0.22,1.39-1.36c-0.27-1.39,0.6-2.57,0.71-3.88c0.48-0.14,0.97-0.28,1.45-0.42c0.15,0.14,0.52,0.22,0.22,0.5
		c-1.59,1.52-1.79,3.4-1.46,5.43C476.12,290.58,475.32,290.53,474.52,290.48z"/>
	<path style="fill-rule:evenodd;clip-rule:evenodd;fill:#5E0504;" d="M489.18,290.1c1.02-0.51,2.05-1.01,3.07-1.53
		c0.31-0.16,0.62-0.51,0.91-0.06c0.25,0.4,0.09,0.73-0.3,1c-1.07,0.74-2.12,1.52-3.18,2.28C489.24,291.3,489.14,290.72,489.18,290.1
		z"/>
	<path style="fill-rule:evenodd;clip-rule:evenodd;fill:#FABF38;" d="M492.33,313.83c-0.53,0.43-0.64,1.24-1.37,1.5
		c-0.78,0.31-0.85-0.29-0.8-0.74c0.13-1.3,0.23-2.61,0.7-3.85l0,0.02c0.12-0.08,0.21-0.19,0.25-0.34c0.24-0.22,0.48-0.45,0.72-0.67
		C492.5,311.04,492.16,312.46,492.33,313.83z"/>
	<path style="fill-rule:evenodd;clip-rule:evenodd;fill:#2C3C69;" d="M473.11,303.8c-0.28,0.33-0.58,0.65-0.85,0.99
		c-0.32,0.42-0.61,1.24-1.2,0.74c-0.58-0.49-0.67-1.38-0.52-2.2c1.37,0.25,1.31-1.48,2.35-1.69
		C472.95,302.37,472.71,303.12,473.11,303.8z"/>
	<path style="fill-rule:evenodd;clip-rule:evenodd;fill:#F7CB22;" d="M496.43,318.63c-0.21,1.48-1.11,2.59-2.38,3.44
		c-0.42,0.28-0.45,0.05-0.36-0.33c0.35-1.48,1.18-2.68,2.16-3.79c0.09-0.1,0.31-0.21,0.39-0.16
		C496.56,317.95,496.38,318.27,496.43,318.63z"/>
	<path style="fill-rule:evenodd;clip-rule:evenodd;fill:#F6DB70;" d="M475.15,294.69c0.44-0.01,0.88-0.02,1.32-0.02
		c0.5-0.36,1.11-0.54,1.4-1.22c0.3-0.7,0.61-1.3-0.18-1.85c0.91-0.01,1.82-0.02,2.73-0.02c0.21,0,0.51-0.12,0.59,0.21
		c0.07,0.27-0.12,0.45-0.32,0.58c-0.94,0.62-1.58,1.57-2.42,2.24C477.42,295.3,476.21,295.03,475.15,294.69z"/>
	<path style="fill-rule:evenodd;clip-rule:evenodd;fill:#FCCF4B;" d="M484.66,284.39c0.7,1.72,1.47,3.41,1.9,5.23
		c-0.67,0.33-1.13,0.01-1.31-0.57c-0.44-1.43-1.12-2.72-2.01-3.91c-0.17-0.22-0.27-0.5-0.03-0.76c0.41-0.03,0.82-0.06,1.23-0.08
		C484.52,284.33,484.59,284.36,484.66,284.39z"/>
	<path style="fill-rule:evenodd;clip-rule:evenodd;fill:#F39829;" d="M492.33,313.83c-0.88-1.28-0.34-2.72-0.49-4.08
		c0.48-0.49,0.98-0.88,1.68-0.37c-0.8,1.11-1.12,2.22,0.03,3.32C493.22,313.15,492.9,313.63,492.33,313.83z"/>
	<path style="fill-rule:evenodd;clip-rule:evenodd;fill:#FAC12D;" d="M475.72,313.64c0.27-0.8,0.53-1.6,0.8-2.39
		c0.07-0.12,0.17-0.22,0.19-0.37l-0.03-0.06l0.05-0.04c0.3-0.24,0.57-0.09,0.67,0.17c0.45,1.11,1,2.21,0.53,3.47
		c-0.16,0.16-0.32,0.32-0.48,0.47C476.62,314.83,476.16,314.25,475.72,313.64z"/>
	<path style="fill-rule:evenodd;clip-rule:evenodd;fill:#FCE588;" d="M489.44,303.07c-1.56-1.9-1.84-4.26-2.4-6.53
		c-0.06-0.22-0.14-0.44-0.21-0.66c0.23-0.25,0.46-0.5,0.7-0.75c0.36,0.25,0.45,0.66,0.51,1.04c0.28,1.85,0.67,3.66,1.49,5.35
		c0.12,0.25,0.06,0.55,0.15,0.81C489.6,302.58,489.52,302.83,489.44,303.07z"/>
	<path style="fill-rule:evenodd;clip-rule:evenodd;fill:#AE1D20;" d="M487.31,293.73c-1.01-0.69-0.86-1.89-1.24-2.86
		c0.48-0.1,0.96-0.21,1.44-0.31c1.04,0.21,1.35,0.9,0.95,2.16C488.08,293.06,487.7,293.39,487.31,293.73z"/>
	<path style="fill-rule:evenodd;clip-rule:evenodd;fill:#FCEDAB;" d="M479.32,305.9c0.78,1.29,0.48,2.82,0.88,4.2
		c0.18,0.63,0.1,1.33,0.59,1.86c-0.4,0.19-0.79,0.37-1.19,0.56c-0.76-1.25-0.5-2.71-0.81-4.05c-0.11-0.5-0.16-1.02-0.2-1.54
		C478.85,306.58,479.08,306.24,479.32,305.9z"/>
	<path style="fill-rule:evenodd;clip-rule:evenodd;fill:#FDDB68;" d="M483.21,284.38c0.88,1.53,1.98,2.95,2.39,4.74
		c0.1,0.46,0.52,0.57,0.96,0.51c0.11,0.01,0.23,0.02,0.34,0.02c-0.51,0.13-1.02,0.26-1.53,0.39c-0.83-1.38-0.92-3.16-2.29-4.24
		c-0.34-0.27-0.65-0.58-1.03-0.8c-0.86-0.5,0.26-0.36,0.17-0.6C482.55,284.4,482.88,284.39,483.21,284.38z"/>
	<path style="fill-rule:evenodd;clip-rule:evenodd;fill:#2981BA;" d="M489.45,307.88c-0.24-0.21-0.49-0.43-0.73-0.64
		c-0.25-0.53,0.01-0.8,0.49-0.96c0.75,0.11,1.59,0.15,0.8,1.27c-0.17,0.24-0.27,0.65,0.02,0.87c0.44,0.34,0.78-0.07,1.14-0.28
		c0.3-0.04,0.42,0.09,0.4,0.38c-0.64,0.64-1.27,1.28-1.92,1.91c-0.16,0.15-0.42,0.38-0.56,0.34c-0.26-0.09-0.13-0.39-0.08-0.61
		c0.14-0.61,0.29-1.21,0.44-1.82C489.59,308.19,489.58,308.04,489.45,307.88z"/>
	<path style="fill-rule:evenodd;clip-rule:evenodd;fill:#FBB82D;" d="M484.63,277.12c0.13,0.97-0.72,1.58-0.74,2.49
		c-0.01,0.53,0.82,1.49-0.2,1.53c-0.87,0.03-0.6-1.12-0.75-1.82c-0.24-1.13,1-1.77,0.86-2.84c-0.01-0.06,0.36-0.26,0.47-0.22
		C484.65,276.42,484.69,276.79,484.63,277.12z"/>
	<path style="fill-rule:evenodd;clip-rule:evenodd;fill:#FCDE64;" d="M489.68,302.34c-1.39-2.2-1.74-4.71-2.16-7.21
		c0.16-0.16,0.32-0.32,0.47-0.49c0.4,1.81,0.78,3.63,1.23,5.42c0.1,0.4,0.06,1.18,0.92,0.84
		C490.12,301.42,489.96,301.9,489.68,302.34z"/>
	<path style="fill-rule:evenodd;clip-rule:evenodd;fill:#FAE38F;" d="M488.76,318.26c-0.3-1.31-0.02-2.61,0.09-3.9
		c0.04-0.43,0.23-0.84-0.13-1.21c0.48-0.58,0.96-1.16,1.44-1.75c0.43,0.45,0.24,0.96,0.14,1.46c-0.26,1.28-0.52,2.57-0.57,3.88
		C489.41,317.25,489.09,317.75,488.76,318.26z"/>
	<path style="fill-rule:evenodd;clip-rule:evenodd;fill:#FCD764;" d="M489.74,316.75c-0.74-1.15,0.03-2.26,0.09-3.38
		c0.04-0.66,0.22-1.31,0.33-1.96c0.16-0.3,0.35-0.56,0.7-0.67c0.14,1.24-0.12,2.43-0.35,3.63c-0.09,0.46-0.22,0.88,0.45,0.96
		C490.55,315.8,490.14,316.27,489.74,316.75z"/>
	<path style="fill-rule:evenodd;clip-rule:evenodd;fill:#FBB82D;" d="M477.67,280.41c0,0.48,0.02,0.95-0.01,1.43
		c-0.02,0.43-0.3,0.67-0.71,0.57c-0.34-0.08-0.81-0.47-0.66-0.7c0.46-0.72,0.1-1.43,0.16-2.13c0.05-0.58,0.2-1.15,0.75-1.14
		c0.66,0.01,0.43,0.7,0.47,1.14C477.7,279.85,477.68,280.13,477.67,280.41C477.68,280.41,477.68,280.41,477.67,280.41z"/>
	<path style="fill-rule:evenodd;clip-rule:evenodd;fill:#881416;" d="M494.27,317.96c-0.91-0.77-1.19-1.85-1.47-2.94
		c0.33-0.38,0.66-0.75,0.99-1.13c0.39,1.11,0.79,2.22,1.18,3.33C494.74,317.47,494.5,317.72,494.27,317.96z"/>
	<path style="fill-rule:evenodd;clip-rule:evenodd;fill:#FCD444;" d="M477.93,314.41c-0.31-1.24-0.1-2.65-1.21-3.63
		c0.1-0.62,0.35-1.17,0.71-1.67c0.6-0.65,0.73-0.02,0.8,0.35c0.28,1.39,0.54,2.79,0.4,4.22
		C478.4,313.93,478.17,314.17,477.93,314.41z"/>
	<path style="fill-rule:evenodd;clip-rule:evenodd;fill:#FCD53D;" d="M477.69,291.6c0.15,0.47,1.37-0.16,0.92,0.77
		c-0.46,0.94-0.3,2.6-2.14,2.3c-0.04-1.09,0.89-1.97,0.71-3.1C477.35,291.58,477.52,291.59,477.69,291.6z"/>
	<path style="fill-rule:evenodd;clip-rule:evenodd;fill:#F28832;" d="M485.57,323.73c-0.39,0.16-0.84,0.29-0.91-0.28
		c-0.1-0.86-1.05-1.71-0.11-2.62c0.69-0.26,1.22-0.02,1.44,0.65C486.26,322.27,486.48,323.12,485.57,323.73z"/>
	<path style="fill-rule:evenodd;clip-rule:evenodd;fill:#5896C8;" d="M482.23,320.14c0.24,0.31,0.48,0.63,0.73,0.94
		c0.25,0.79,0.5,1.57,0.47,2.41c-0.72-0.37-1.31-1.1-2.27-0.75c0.8-0.31,0.69-0.88,0.45-1.51
		C481.38,320.65,481.37,320.14,482.23,320.14z"/>
	<path style="fill-rule:evenodd;clip-rule:evenodd;fill:#FADC67;" d="M478.64,313.68c-0.56-1.36-0.38-2.85-0.7-4.26
		c-0.08-0.37-0.15-0.5-0.5-0.32c0.02-0.4,0.23-0.7,0.48-0.99c0.1-0.1,0.2-0.2,0.23-0.36l-0.02-0.06l0.05-0.04
		c0.31-0.04,0.47,0.17,0.51,0.4c0.29,1.64,0.75,3.26,0.44,4.95C478.97,313.24,478.8,313.46,478.64,313.68z"/>
	<path style="fill-rule:evenodd;clip-rule:evenodd;fill:#FCE589;" d="M479.13,313.01c-0.51-1.75-0.18-3.65-0.95-5.35
		c0.14-0.25,0.29-0.5,0.43-0.74c0.83,0.59,0.46,1.54,0.64,2.31c0.26,1.06,0.25,2.18,0.36,3.28
		C479.45,312.68,479.29,312.85,479.13,313.01z"/>
	<path style="fill-rule:evenodd;clip-rule:evenodd;fill:#F39727;" d="M475.72,313.64c0.73,0.2,1.15,0.84,1.73,1.24
		c-0.17,0.21-0.36,0.41-0.52,0.64c-0.43,0.63-1.14,0.75-1.67,0.46c-0.58-0.31,0.01-0.91,0.07-1.38
		C475.37,314.27,475.58,313.96,475.72,313.64z"/>
	<path style="fill-rule:evenodd;clip-rule:evenodd;fill:#74A3CD;" d="M481.73,317.26c-0.57,0.72,0.06,1.01,0.5,1.37
		c-1.22,0-2.13-0.28-1.78-1.83c0.09-0.4-0.08-0.78-0.35-1.1c-0.02-0.55,0.08-1.05,0.5-1.44c0.08,0.18,0.16,0.36,0.23,0.54
		c0.04,0.09,0.08,0.17,0.13,0.25C481.22,315.78,481.48,316.52,481.73,317.26z"/>
	<path style="fill-rule:evenodd;clip-rule:evenodd;fill:#F4B532;" d="M489.18,280.7c0.34-1.34,1.11-2.45,1.88-3.57
		c0.13-0.19,0.26-0.45,0.55-0.25c0.18,0.12,0.25,0.31,0.13,0.52c-0.56,0.99-0.7,2.23-1.76,2.92
		C489.69,280.4,489.65,280.99,489.18,280.7z"/>
	<path style="fill-rule:evenodd;clip-rule:evenodd;fill:#287BB4;" d="M479.36,315.92c-0.56,0.6-1.13,1.19-1.7,1.79
		c-0.44,0.09-0.94,0.45-1.19-0.28c0.07,0.02,0.15,0.03,0.22,0.03c0.1-0.06,0.17-0.13,0.24-0.22l0.01-0.02
		c0.11-0.05,0.18-0.13,0.19-0.26c0.63-0.79,1.27-1.57,1.9-2.36C479.99,314.83,479.58,315.4,479.36,315.92z"/>
	<path style="fill-rule:evenodd;clip-rule:evenodd;fill:#2F4973;" d="M476.48,317.43c0.31,0.47,0.78,0.25,1.19,0.28
		c-0.82,0.52-1.81,0.25-2.7,0.63c-0.36,0.15-0.85-0.68-0.91-1.15c-0.07-0.57,0.56-0.36,0.91-0.41
		C475.59,316.71,476.16,316.78,476.48,317.43z"/>
	<path style="fill-rule:evenodd;clip-rule:evenodd;fill:#17568F;" d="M473.11,303.8c-1.06-0.62-0.66-1.38-0.22-2.15
		c0.07-0.01,0.14-0.02,0.22-0.01c0.2,0.22,0.53,0.03,0.75,0.23c0.16,0.15,0.33,0.3,0.49,0.45c0.04,0.12,0.11,0.21,0.22,0.28
		l0.01-0.02c-0.08,0.4-0.17,0.81-0.25,1.21c-0.24,0-0.48,0-0.72,0c-0.16-0.11-0.33-0.14-0.48,0.01L473.11,303.8z"/>
	<path style="fill-rule:evenodd;clip-rule:evenodd;fill:#216197;" d="M476.97,322.06c-0.33,0.16-0.66,0.32-0.98,0.48
		c-0.38-0.26-1.19-0.23-0.91-0.97c0.29-0.75,0.78-1.42,1.21-2.1c0.02-0.03,0.38,0.09,0.51,0.22c0.3,0.29,0.03,0.55-0.06,0.85
		C476.58,321.05,475.54,321.77,476.97,322.06z"/>
	<path style="fill-rule:evenodd;clip-rule:evenodd;fill:#781212;" d="M488.46,292.72c-0.23-0.76,0.03-1.73-0.95-2.16
		c0.55-0.16,1.11-0.31,1.66-0.46c0.42,0.49,0.52,1.07,0.5,1.69C489.39,292.26,488.9,292.46,488.46,292.72z"/>
	<path style="fill-rule:evenodd;clip-rule:evenodd;fill:#274C7C;" d="M470.25,298.32c-0.07-0.75,0.49-1.11,1.03-1.19
		c0.63-0.09,0.65,0.5,0.67,1c0.02,0.7-0.19,1.11-0.99,1.13C470.22,299.27,470.24,298.82,470.25,298.32z"/>
	<path style="fill-rule:evenodd;clip-rule:evenodd;fill:#5E9BCE;" d="M489.21,306.29c-0.16,0.32-0.33,0.64-0.49,0.96
		c-0.24-0.14-0.49-0.29-0.73-0.43c-0.38-0.57-1.03-1.11-0.23-1.82c0.29-0.08,0.58-0.21,0.88-0.23c0.25-0.02,0.58-0.12,0.73,0.18
		c0.13,0.26-0.11,0.43-0.28,0.56C488.61,305.85,488.93,306.06,489.21,306.29z"/>
	<path style="fill-rule:evenodd;clip-rule:evenodd;fill:#1476B2;" d="M490.41,304.27c0.12-0.62,0.18-1.25,0.36-1.85
		c0.13-0.42-0.03-1.15,0.56-1.15c0.47,0,0.49,0.73,0.73,1.13c0.36,0.61-0.09,0.7-0.51,0.86c-0.46,0.18-0.55,0.65-0.72,1.04
		C490.69,304.41,490.54,304.43,490.41,304.27z"/>
	<path style="fill-rule:evenodd;clip-rule:evenodd;fill:#F7A446;" d="M485.57,323.73c0.63-1.66,0.28-2.66-1.02-2.9
		c0.19-0.26,0.45-0.29,0.74-0.24c1.07-0.29,1.51,0.27,1.66,1.23c-0.04,0.07-0.09,0.15-0.14,0.22c-0.17,0.14-0.13,0.38-0.25,0.54
		C486.73,323.39,486.58,323.93,485.57,323.73z"/>
	<path style="fill-rule:evenodd;clip-rule:evenodd;fill:#ECC425;" d="M474.07,299.95c-0.15,0.29,0.43,1.12-0.55,0.85
		c-0.41-0.11-1.29,0.11-1.04-0.71c0.12-0.4-0.07-1.33,0.89-1.23C474.02,298.93,474.43,299.18,474.07,299.95z"/>
	<path style="fill-rule:evenodd;clip-rule:evenodd;fill:#F3BD48;" d="M479.32,319.91c-0.55,0-1.18,0.09-1.34-0.63
		c-0.16-0.75,0.6-1.03,0.97-1.48c0.26-0.32,0.45,0.07,0.43,0.38c-0.04,0.48,0.19,0.83,0.46,1.18
		C480.07,319.91,479.85,320.05,479.32,319.91z"/>
	<path style="fill-rule:evenodd;clip-rule:evenodd;fill:#5897CC;" d="M479.36,315.92c-0.08-0.45,0.21-0.98-0.32-1.32
		c0.39-0.38,0.74-0.84,1.2-1.11c0.15-0.09,0.39,0.42,0.36,0.77c-0.02,0.53-0.05,1.06-0.5,1.44
		C479.85,315.77,479.61,315.84,479.36,315.92z"/>
	<path style="fill-rule:evenodd;clip-rule:evenodd;fill:#DE722A;" d="M473.29,319.09c0.05-0.24-0.13-0.68,0.23-0.56
		c0.62,0.21,1.06,0.76,1.18,1.38c0.08,0.41-0.39,1.01-0.75,0.89C473.17,320.54,473.45,319.67,473.29,319.09z"/>
	<path style="fill-rule:evenodd;clip-rule:evenodd;fill:#F5C071;" d="M486.96,321.81c-0.51-0.47-0.7-1.37-1.66-1.23
		c0.21-0.09,0.42-0.23,0.63-0.25c0.63-0.05,1.4-0.85,1.8-0.27C488.07,320.57,487.3,321.25,486.96,321.81z"/>
	<path style="fill-rule:evenodd;clip-rule:evenodd;fill:#1F6297;" d="M491.58,308.53c-0.13-0.13-0.27-0.26-0.4-0.38
		c0.14-0.42,0.38-0.76,0.74-1.03c0.3-0.23,0.59-0.18,0.83,0.09c0.18,0.2,0.45,0.43,0.45,0.64c-0.01,0.4-0.42,0.19-0.65,0.27
		C492.21,308.25,491.89,308.4,491.58,308.53z"/>
	<path style="fill-rule:evenodd;clip-rule:evenodd;fill:#7FADD6;" d="M487.76,304.98c-0.23,0.65,0.08,1.22,0.23,1.82
		c-0.18-0.07-0.39-0.12-0.54-0.23c-0.45-0.33-1.44-0.24-1.31-0.94C486.26,305.01,487.14,305.05,487.76,304.98z"/>
	<path style="fill-rule:evenodd;clip-rule:evenodd;fill:#3F4765;" d="M470.47,301.51c0.02-0.35-0.1-0.78,0.44-0.81
		c0.42-0.02,0.54,0.27,0.51,0.62c-0.03,0.39-0.08,0.88-0.53,0.94C470.33,302.34,470.56,301.8,470.47,301.51z"/>
	<path style="fill-rule:evenodd;clip-rule:evenodd;fill:#6C839C;" d="M480.08,323.71c1.12-0.01,2.24-0.02,3.36-0.03
		C482.33,324.22,481.21,324.05,480.08,323.71z"/>
	<path style="fill-rule:evenodd;clip-rule:evenodd;fill:#E6C249;" d="M492.4,305.37c-0.13,0.4-0.13,0.76-0.53,0.81
		c-0.26,0.03-0.48-0.12-0.51-0.37c-0.04-0.43,0.4-0.4,0.64-0.54C492.08,305.21,492.27,305.33,492.4,305.37z"/>
	<path style="fill-rule:evenodd;clip-rule:evenodd;fill:#ADA175;" d="M471.67,306.95c0.31-0.36,0.61-0.73,0.92-1.09
		c0.09,0,0.15,0.04,0.18,0.12c-0.48,0.34-0.12,1.23-0.89,1.39C471.77,307.25,471.76,307.08,471.67,306.95z"/>
	<path style="fill-rule:evenodd;clip-rule:evenodd;fill:#558CB7;" d="M476.95,295.91c-0.88,0.31-1.75,0.45-2.61-0.07
		C475.21,295.86,476.08,295.88,476.95,295.91z"/>
	<path style="fill-rule:evenodd;clip-rule:evenodd;fill:#596177;" d="M490.78,337.88c0.65,0.3,1.13,0.76,1.32,1.47
		C491.58,338.93,491.05,338.52,490.78,337.88z"/>
	<path style="fill-rule:evenodd;clip-rule:evenodd;fill:#5C6E95;" d="M487.56,329.29c0.38,0.68,0.15,1.42,0.19,2.13
		C487.29,330.74,487.59,330,487.56,329.29z"/>
	<path style="fill-rule:evenodd;clip-rule:evenodd;fill:#62809D;" d="M476.71,304.29c0.48-0.15,1.09,0.28,1.45-0.35
		C477.95,305.18,477.25,304.39,476.71,304.29z"/>
	<path style="fill-rule:evenodd;clip-rule:evenodd;fill:#545F77;" d="M490.65,334.35c-0.52-0.4-0.75-0.94-0.74-1.59
		C490.26,333.25,490.56,333.75,490.65,334.35z"/>
	<path style="fill-rule:evenodd;clip-rule:evenodd;fill:#DDD6C7;" d="M489.18,280.7c0.27-0.13,0.53-0.26,0.8-0.39
		c-0.17,0.42-0.28,0.95-0.87,0.87C488.91,281.15,489.06,280.86,489.18,280.7z"/>
	<path style="fill-rule:evenodd;clip-rule:evenodd;fill:#5E6270;" d="M487.75,326.63c-0.42,0.32-0.15,0.79-0.26,1.18
		C487.37,327.36,486.76,326.81,487.75,326.63z"/>
	<path style="fill-rule:evenodd;clip-rule:evenodd;fill:#D0BE9E;" d="M479.32,319.91c0.35-0.03,0.54-0.2,0.52-0.56
		c0.21,0.06,0.41,0.12,0.62,0.18C480.13,319.84,479.9,320.4,479.32,319.91z"/>
	<path style="fill-rule:evenodd;clip-rule:evenodd;fill:#6A88A6;" d="M475.73,297.31c0.5-0.35,1-0.36,1.49,0.02
		C476.73,297.32,476.23,297.32,475.73,297.31z"/>
	<path style="fill-rule:evenodd;clip-rule:evenodd;fill:#535F7A;" d="M493.49,340.74c0.5,0.07,0.84,0.34,1,0.83
		C494.04,341.43,493.74,341.12,493.49,340.74z"/>
	<path style="fill-rule:evenodd;clip-rule:evenodd;fill:#E9E4CF;" d="M471.67,306.95c0.27,0.04,0.18,0.26,0.21,0.42
		c-0.13,0.12-0.25,0.24-0.38,0.36C471.28,307.41,471.46,307.17,471.67,306.95z"/>
	<path style="fill-rule:evenodd;clip-rule:evenodd;fill:#617C98;" d="M476.61,302.84c0.21,0.03,0.43,0.11,0.4,0.34
		c-0.01,0.07-0.33,0.11-0.52,0.17C476.53,303.18,476.57,303.01,476.61,302.84z"/>
	<path style="fill-rule:evenodd;clip-rule:evenodd;fill:#D1D2DA;" d="M490.41,304.27c0.14,0.01,0.29,0.02,0.43,0.03
		c-0.04,0.26-0.18,0.4-0.44,0.34C490.37,304.64,490.4,304.4,490.41,304.27z"/>
	<path style="fill-rule:evenodd;clip-rule:evenodd;fill:#5D6B8A;" d="M487.78,331.91c0.33,0.26,0.19,0.62,0.21,0.95
		C487.67,332.6,487.76,332.25,487.78,331.91z"/>
	<path style="fill-rule:evenodd;clip-rule:evenodd;fill:#55627C;" d="M495.43,341.5c-0.31-0.16-0.46-0.41-0.47-0.75
		C495.26,340.91,495.46,341.14,495.43,341.5z"/>
	<path style="fill-rule:evenodd;clip-rule:evenodd;fill:#5B7D9F;" d="M475.53,304.04c0.34,0.01,0.69-0.09,0.96,0.22
		C476.15,304.28,475.79,304.38,475.53,304.04z"/>
	<path style="fill-rule:evenodd;clip-rule:evenodd;fill:#55617B;" d="M488.26,328.06c-0.36-0.28-0.24-0.69-0.26-1.06
		C488.27,327.3,488.26,327.68,488.26,328.06z"/>
	<path style="fill-rule:evenodd;clip-rule:evenodd;fill:#56627D;" d="M491.61,335.96c-0.38-0.14-0.49-0.45-0.49-0.82
		C491.35,335.38,491.62,335.59,491.61,335.96z"/>
	<path style="fill-rule:evenodd;clip-rule:evenodd;fill:#54627E;" d="M492.64,337.41c-0.39-0.09-0.54-0.37-0.56-0.74
		C492.4,336.82,492.54,337.1,492.64,337.41z"/>
	<path style="fill-rule:evenodd;clip-rule:evenodd;fill:#5A6175;" d="M493.29,338.36c-0.36-0.13-0.49-0.41-0.51-0.77
		C493.04,337.79,493.3,337.99,493.29,338.36z"/>
	<path style="fill-rule:evenodd;clip-rule:evenodd;fill:#54617C;" d="M493.85,339.09c-0.4-0.09-0.54-0.36-0.57-0.74
		C493.59,338.5,493.74,338.78,493.85,339.09z"/>
	<path style="fill-rule:evenodd;clip-rule:evenodd;fill:#5A6176;" d="M494.49,340.04c-0.36-0.13-0.49-0.41-0.5-0.76
		C494.25,339.47,494.5,339.67,494.49,340.04z"/>
	<path style="fill-rule:evenodd;clip-rule:evenodd;fill:#57627B;" d="M494.97,340.76c-0.34-0.12-0.48-0.39-0.49-0.73
		C494.77,340.19,494.97,340.41,494.97,340.76z"/>
	<path style="fill-rule:evenodd;clip-rule:evenodd;fill:#58637D;" d="M492.09,336.68c-0.34-0.12-0.48-0.39-0.49-0.73
		C491.9,336.1,492.08,336.33,492.09,336.68z"/>
	<path style="fill-rule:evenodd;clip-rule:evenodd;fill:#8B8B95;" d="M471.69,296.34c0.14,0.01,0.27,0.02,0.41,0.03
		c-0.02,0.2-0.11,0.35-0.32,0.33C471.74,296.7,471.72,296.46,471.69,296.34z"/>
	<path style="fill-rule:evenodd;clip-rule:evenodd;fill:#656668;" d="M472.6,305.86c0.05-0.19,0.18-0.41,0.35-0.28
		c0.17,0.13-0.05,0.29-0.17,0.41C472.69,305.97,472.63,305.93,472.6,305.86z"/>
	<path style="fill-rule:evenodd;clip-rule:evenodd;fill:#5F667B;" d="M488.71,329.5c-0.29-0.19-0.21-0.49-0.23-0.77
		C488.73,328.93,488.74,329.21,488.71,329.5z"/>
	<path style="fill-rule:evenodd;clip-rule:evenodd;fill:#2C3C69;" d="M473.86,301.87c-0.28,0.02-0.55,0.04-0.75-0.23
		C473.39,301.6,473.66,301.63,473.86,301.87z"/>
	<path style="fill-rule:evenodd;clip-rule:evenodd;fill:#D63534;" d="M485.37,315.11c0.08-0.17,0.16-0.33,0.24-0.5
		C485.52,314.77,485.45,314.94,485.37,315.11z"/>
	<path style="fill-rule:evenodd;clip-rule:evenodd;fill:#F5C071;" d="M486.57,322.58c0.08-0.18,0.17-0.36,0.25-0.54
		C486.74,322.22,486.65,322.4,486.57,322.58z"/>
	<path style="fill-rule:evenodd;clip-rule:evenodd;fill:#2C3C69;" d="M473.13,303.79c0.16-0.26,0.32-0.21,0.48-0.01
		C473.45,303.79,473.29,303.79,473.13,303.79z"/>
	<path style="fill-rule:evenodd;clip-rule:evenodd;fill:#BABEC6;" d="M489.45,307.88c0.28,0.15,0.32,0.31,0,0.47
		C489.46,308.19,489.45,308.04,489.45,307.88z"/>
	<path style="fill-rule:evenodd;clip-rule:evenodd;fill:#558CB7;" d="M478.48,296.1c-0.19-0.07-0.38-0.13-0.58-0.2
		C478.13,295.87,478.34,295.87,478.48,296.1z"/>
	<path style="fill-rule:evenodd;clip-rule:evenodd;fill:#FBC238;" d="M474.33,285.33c-0.19,0.07-0.38,0.14-0.56,0.22
		C473.96,285.47,474.14,285.4,474.33,285.33z"/>
	<path style="fill-rule:evenodd;clip-rule:evenodd;fill:#FAE38F;" d="M488.7,313.16c-0.15,0.07-0.3,0.15-0.46,0.22
		C488.39,313.3,488.55,313.23,488.7,313.16z"/>
	<path style="fill-rule:evenodd;clip-rule:evenodd;fill:#D73736;" d="M483.19,291.73c-0.06,0.23-0.24,0.3-0.45,0.3
		C482.88,291.93,483.03,291.83,483.19,291.73z"/>
	<path style="fill-rule:evenodd;clip-rule:evenodd;fill:#D63534;" d="M485.14,315.64c0.06-0.11,0.12-0.21,0.18-0.32
		C485.26,315.43,485.2,315.54,485.14,315.64z"/>
	<path style="fill-rule:evenodd;clip-rule:evenodd;fill:#FCE588;" d="M486.79,295.93c-0.02,0.08-0.07,0.14-0.15,0.16
		C486.69,296.03,486.74,295.98,486.79,295.93z"/>
	<path style="fill-rule:evenodd;clip-rule:evenodd;fill:#2F4973;" d="M477.14,316.96c-0.06,0.09-0.13,0.17-0.19,0.26
		C477.01,317.13,477.08,317.04,477.14,316.96z"/>
	<path style="fill-rule:evenodd;clip-rule:evenodd;fill:#2F4973;" d="M476.94,317.23c-0.08,0.08-0.16,0.15-0.24,0.22
		C476.78,317.38,476.86,317.31,476.94,317.23z"/>
	<path style="fill-rule:evenodd;clip-rule:evenodd;fill:#FCD764;" d="M491.12,310.42c-0.08,0.11-0.17,0.23-0.25,0.34
		C490.95,310.64,491.03,310.53,491.12,310.42z"/>
	<path style="fill-rule:evenodd;clip-rule:evenodd;fill:#74A3CD;" d="M481.96,317.49c-0.07-0.07-0.14-0.14-0.22-0.21
		C481.82,317.35,481.89,317.42,481.96,317.49z"/>
	<path style="fill-rule:evenodd;clip-rule:evenodd;fill:#FDEEAC;" d="M485.8,297c-0.09,0.1-0.18,0.19-0.27,0.29
		C485.62,297.19,485.71,297.1,485.8,297z"/>
	<path style="fill-rule:evenodd;clip-rule:evenodd;fill:#D73736;" d="M483.48,298.2c0.01-0.06,0.05-0.1,0.1-0.11
		C483.59,298.17,483.56,298.21,483.48,298.2z"/>
	<path style="fill-rule:evenodd;clip-rule:evenodd;fill:#AE1D21;" d="M476.02,309.32c0.05-0.07,0.1-0.15,0.16-0.22
		C476.12,309.17,476.07,309.25,476.02,309.32z"/>
	<path style="fill-rule:evenodd;clip-rule:evenodd;fill:#FCE589;" d="M478.15,307.77c-0.08,0.12-0.15,0.24-0.23,0.36
		C478,308,478.07,307.89,478.15,307.77z"/>
	<path style="fill-rule:evenodd;clip-rule:evenodd;fill:#0679BC;" d="M474.57,302.59c-0.07-0.09-0.15-0.19-0.22-0.28
		C474.42,302.41,474.5,302.5,474.57,302.59z"/>
	<path style="fill-rule:evenodd;clip-rule:evenodd;fill:#881417;" d="M473.34,307.17c-0.05,0.07-0.11,0.15-0.16,0.22
		C473.23,307.32,473.29,307.25,473.34,307.17z"/>
	<path style="fill-rule:evenodd;clip-rule:evenodd;fill:#D73736;" d="M485.61,295.48c0.1-0.1,0.19-0.21,0.29-0.32
		C485.8,295.27,485.71,295.38,485.61,295.48z"/>
	<path style="fill-rule:evenodd;clip-rule:evenodd;fill:#FCD444;" d="M476.71,310.88c-0.06,0.12-0.13,0.25-0.19,0.37
		C476.58,311.12,476.65,311,476.71,310.88z"/>
	<path style="fill-rule:evenodd;clip-rule:evenodd;fill:#5897CC;" d="M480.96,315.04c-0.04-0.08-0.08-0.17-0.13-0.25
		C480.87,314.88,480.92,314.96,480.96,315.04z"/>
	<path style="fill-rule:evenodd;clip-rule:evenodd;fill:#5896C8;" d="M481.16,322.75c-0.13-0.07-0.26-0.14-0.39-0.21
		C480.89,322.62,481.02,322.69,481.16,322.75z"/>
	<path style="fill-rule:evenodd;clip-rule:evenodd;fill:#05713A;" d="M467.86,257.22c1.08,0.41,2.14,0.79,2.4-0.92
		c0.47-0.2,0.24,0.34,0.45,0.42c0.01,1.18,1.07,0.94,1.71,1.25c0.05,0.05,0.06,0.11,0.04,0.16c-0.02,0.05-0.04,0.07-0.06,0.07
		c-0.62,0.29-1.4,0.41-1.22,1.43c0.07,0.39-0.26,0.34-0.43,0.12c-0.67-0.88-1.38-0.51-2.1-0.1c-0.21,0.12-0.62,0.21-0.5-0.11
		c0.53-1.33-0.6-1.51-1.27-2.03C467.01,256.79,467.49,257.18,467.86,257.22z"/>
	<path style="fill-rule:evenodd;clip-rule:evenodd;fill:#4C604E;" d="M467.86,257.22c-0.33,0.07-0.75-0.13-0.98,0.3
		C466.96,256.63,467.44,257.02,467.86,257.22z"/>
	<path style="fill-rule:evenodd;clip-rule:evenodd;fill:#4E6A56;" d="M470.7,256.73c-0.15-0.14-0.3-0.28-0.45-0.43
		c0.08-0.06,0.18-0.19,0.24-0.17C470.79,256.23,470.7,256.5,470.7,256.73z"/>
	<path style="fill-rule:evenodd;clip-rule:evenodd;fill:#8E9093;" d="M472.39,258.21c0.01-0.08,0.01-0.15,0.02-0.23
		c0.06,0.04,0.11,0.08,0.17,0.12C472.52,258.13,472.46,258.17,472.39,258.21z"/>
	<path style="fill-rule:evenodd;clip-rule:evenodd;fill:#F8CD27;" d="M457.08,266.86c-0.12,0.58-0.93,0.99-0.39,1.73
		c0.04,0.05-0.04,0.2-0.06,0.3c-1.3-1.02-1.13,1.46-2.23,0.94c-0.32-0.15-0.67-0.25-1.01-0.34c-0.36-0.1-0.96,0.2-1.07-0.19
		c-0.14-0.48,0.46-0.71,0.83-0.85c0.86-0.32,0.61-0.78,0.31-1.33c-0.1-0.18-0.07-0.44-0.1-0.66c0.15,0,0.37-0.05,0.43,0.02
		c1.03,1.25,2.1,0.55,3.17,0.1C457.12,266.61,457.16,266.71,457.08,266.86z"/>
	<path style="fill-rule:evenodd;clip-rule:evenodd;fill:#B9BABC;" d="M457.08,266.86c-0.04-0.1-0.08-0.19-0.13-0.29
		c0.1-0.2,0.24-0.26,0.44-0.13C457.29,266.58,457.19,266.72,457.08,266.86z"/>
	<path style="fill-rule:evenodd;clip-rule:evenodd;fill:#6B2C89;" d="M486.79,237.83c0,0.24-0.06,0.49,0.01,0.71
		c0.2,0.64,0.62,1.27-0.62,1.33c-0.45,0.02-0.48,0.75-0.69,1.17c-0.11,0.22,0.02,0.64-0.34,0.65c-0.13,0-0.36-0.32-0.4-0.52
		c-0.19-0.99-1.05-0.82-1.68-0.93c-0.6-0.11-0.78,0.02-0.56-0.84c0.38-1.52,1.04-2.22,2.61-2.04c0.22,0.03,0.46-0.1,0.68-0.19
		C486.8,236.77,486.8,236.76,486.79,237.83z"/>
	<path style="fill-rule:evenodd;clip-rule:evenodd;fill:#F9CA2B;" d="M493.15,249.67c0.02-0.44,0.07-0.86-0.42-1.14
		c-0.25-0.14-0.82-0.07-0.71-0.46c0.1-0.37,0.64-0.46,1.01-0.41c0.92,0.12,1.42-0.19,1.45-1.17c0.01-0.23,0.15-0.5,0.43-0.46
		c0.13,0.02,0.24,0.27,0.35,0.42c0.05,0.06,0.11,0.14,0.1,0.21c-0.04,1.08,1.71,0.99,1.44,1.28c-0.58,0.61-0.95,0.98-0.66,1.87
		c0.21,0.63-0.18,0.51-0.57,0.27c-0.58-0.37-1.17-0.7-1.8-0.03c-0.14,0.16-0.39,0.37-0.61,0.16
		C493.08,250.13,493.15,249.86,493.15,249.67z"/>
	<path style="fill-rule:evenodd;clip-rule:evenodd;fill:#6C2D89;" d="M506.24,259.17c-0.53-0.25-1.03-0.63-1.68-0.45
		c-0.47,0.13-0.47-0.06-0.3-0.41c0.1-0.2,0.07-0.43-0.12-0.53c-2.21-1.08-0.08-1.15,0.38-1.46c0.67-0.45,1.25-1.53,2.28-0.21
		c0.51,0.66,1.02,0.74-0.08,1.26c-0.57,0.27-0.13,1.18-0.26,1.79C506.39,259.24,506.32,259.24,506.24,259.17z"/>
	<path style="fill-rule:evenodd;clip-rule:evenodd;fill:#C2C3C5;" d="M506.24,259.17c0.07-0.01,0.15-0.01,0.22,0
		c-0.02,0.06-0.04,0.11-0.05,0.17C506.35,259.28,506.3,259.23,506.24,259.17z"/>
	<path style="fill-rule:evenodd;clip-rule:evenodd;fill:#B01F23;" d="M484.08,220.5c0.08,0.71-1.48,3.46-2.01,3.4
		c-0.94-0.11-1.84-0.51-2.8-0.67c-0.2-0.03,0.17-0.52,0.41-0.48c1.13,0.21,0.93-0.44,0.75-1.09c-0.09-0.33-0.06-0.83,0.35-0.59
		c1.16,0.68,1.94-0.09,2.81-0.56C483.78,220.41,484.01,220.2,484.08,220.5z"/>
	<path style="fill-rule:evenodd;clip-rule:evenodd;fill:#C86BA8;" d="M475.24,245.77c-1.12,1.7-1.03,2.02,1.14,2.52
		c1.25,0.29,1.56,0.94,1.24,2.04c-0.1,0.34-0.37,0.72-0.68,0.08c-0.42-0.85-1.29-0.99-2.06-1.28c-0.69-0.27-1.76,0.08-1.78-1.25
		c-0.02-1.24,0.5-1.94,1.69-2.18C474.96,245.59,475.12,245.56,475.24,245.77z"/>
	<path style="fill-rule:evenodd;clip-rule:evenodd;fill:#DEDEDF;" d="M475.24,245.77c-0.15-0.02-0.31-0.05-0.46-0.07
		c0.09-0.22,0.25-0.46,0.48-0.38C475.53,245.41,475.29,245.62,475.24,245.77z"/>
	<path style="fill-rule:evenodd;clip-rule:evenodd;fill:#017EC3;" d="M465.22,229.42c-0.59-0.09-1.19-0.1-1.76-0.27
		c-1.43-0.43-1.09-1.5-0.86-2.54c0.25-1.12,1.14-0.99,1.76-0.7c1.03,0.48,1.65,0.49,2.26-0.63c0.39-0.71,1.11-0.74,1.47,0.22
		c0.15,0.53,0.15,1.06,0,1.59c0.04,0.74-0.35,1.36-0.52,2.05c-0.22,0.93-0.86,0.53-1.4,0.49
		C465.9,229.4,465.51,229.64,465.22,229.42z"/>
	<path style="fill-rule:evenodd;clip-rule:evenodd;fill:#5689AE;" d="M468.1,227.09c0-0.53,0-1.06,0-1.59
		C468.46,226.03,468.43,226.56,468.1,227.09z"/>
	<path style="fill-rule:evenodd;clip-rule:evenodd;fill:#5B7D98;" d="M465.22,229.42c0.34-0.01,0.69-0.1,0.96,0.2
		C465.85,229.64,465.49,229.73,465.22,229.42z"/>
	<path style="fill-rule:evenodd;clip-rule:evenodd;fill:#05703A;" d="M462.77,242.37c-0.44,0.09-1.01,0.47-0.79-0.52
		c0.09-0.41-0.54-0.52-0.82-0.78c-1.28-1.14-1.04-2.8,0.53-3.54c0.24-0.11,0.51-0.33,0.76-0.06c0.2,0.21,0.04,0.45-0.06,0.66
		c-0.02,0.04-0.04,0.07-0.05,0.11c-0.24,0.75-1.17,1.44-0.47,2.28c0.7,0.84,1.62,0.3,2.44,0.1c0.23-0.06,0.47-0.21,0.66,0.02
		c0.22,0.28,0.01,0.54-0.16,0.75C464.29,242.06,463.63,242.46,462.77,242.37z"/>
	<path style="fill-rule:evenodd;clip-rule:evenodd;fill:#047BC0;" d="M479.53,263c-1.26-1.44-0.88-3.29,0.82-4.05
		c0.25-0.11,0.44-0.37,0.73-0.08c0.23,0.23,0.25,0.53,0.16,0.78c-0.14,0.37-0.39,0.69-0.57,1.04c-0.11,0.23-0.36,0.42-0.16,0.75
		c0.2,0.34,0.43,0.17,0.71,0.17c0.64-0.01,1.7-0.46,1.81,0.19c0.12,0.72-0.88,1.09-1.66,1.22
		C480.75,263.16,480.14,263.19,479.53,263z"/>
	<path style="fill-rule:evenodd;clip-rule:evenodd;fill:#5D87AD;" d="M479.53,263c0.61,0.01,1.22,0.02,1.83,0.02
		C480.75,263.38,480.14,263.36,479.53,263z"/>
	<path style="fill-rule:evenodd;clip-rule:evenodd;fill:#D8579F;" d="M512.84,262.28c-0.02-0.01,0.25,0.03,0.38,0.18
		c0.74,0.89,1.4,1,2.02-0.1c0.2-0.35,0.48-0.36,0.82-0.21c0.38,0.18,0.39,0.51,0.28,0.82c-0.4,1.18-1.22,2.17-2.21,2.74
		c-0.75,0.43-1.39-0.65-2.02-1.14c-0.45-0.36-0.93-0.84-0.59-1.53C511.73,262.62,511.98,262.16,512.84,262.28z"/>
	<path style="fill-rule:evenodd;clip-rule:evenodd;fill:#D9B737;" d="M513.98,250.11c-0.47,1.44,0.27,1.79,1.52,1.7
		c0.15-0.01,0.3,0.02,0.45,0.03c-0.1,0.15-0.17,0.36-0.31,0.42c-0.78,0.34-1.72,0.76-2.36,0.1c-0.71-0.73-0.27-1.63,0.36-2.34
		C513.79,249.92,513.91,249.95,513.98,250.11z"/>
	<path style="fill-rule:evenodd;clip-rule:evenodd;fill:#818284;" d="M513.98,250.11c-0.11-0.03-0.23-0.06-0.34-0.09
		c0.12-0.21,0.3-0.46,0.51-0.33C514.34,249.8,514.17,250.02,513.98,250.11z"/>
	<path style="fill-rule:evenodd;clip-rule:evenodd;fill:#B11E22;" d="M513.42,230c-0.23,1.06-0.72,2.25-1.53,2.94
		c-0.62,0.54-1.76-0.28-2.65-0.53c-0.48-0.13-0.88-0.44-0.98-0.96c-0.08-0.41,0.24-0.68,0.54-0.87c0.47-0.31,1.02-0.61,1.55-0.21
		c0.89,0.7,1.49,0.56,1.93-0.48c0.14-0.34,0.44-0.61,0.84-0.57C513.37,229.35,513.42,229.64,513.42,230z"/>
	<path style="fill-rule:evenodd;clip-rule:evenodd;fill:#A71C20;" d="M455.55,252.4c-0.02,0.16-0.01,0.28-0.05,0.39
		c-0.25,0.72,0.04,1.67-0.77,2.13c-0.44,0.25-3.52-1.09-3.77-1.5c-0.3-0.48-0.06-0.85,0.24-1.18c0.26-0.29,0.54-0.55,1.02-0.26
		c0.63,0.38,1.3,0.78,1.53-0.47c0.09-0.47,0.65-0.59,1.09-0.46C455.52,251.26,455.4,251.93,455.55,252.4z"/>
	<path style="fill-rule:evenodd;clip-rule:evenodd;fill:#04703A;" d="M493.99,230.13c-0.63-0.09-1.28-0.11-1.88-0.3
		c-0.6-0.19-0.86-0.74-0.63-1.34c0.23-0.6,0.74-0.79,1.36-0.57c0.73,0.26,1.6,0.92,1.48-0.69c-0.03-0.39,0.45-0.6,0.79-0.59
		c0.49,0.02,0.32,0.48,0.31,0.75c-0.04,0.75-0.15,1.5-0.24,2.25C495,230.3,494.56,230.37,493.99,230.13z"/>
	<path style="fill-rule:evenodd;clip-rule:evenodd;fill:#3F6549;" d="M493.99,230.13c0.49,0.05,0.91-0.07,1.2-0.5
		C495.17,230.71,494.59,230.43,493.99,230.13z"/>
	<path style="fill-rule:evenodd;clip-rule:evenodd;fill:#B82828;" d="M495.47,260.62c-0.35,0.59-0.93,0.87-1.54,1.07
		c-0.72,0.24-1.44,0.12-1.76-0.59c-0.38-0.83-0.1-1.66,0.55-2.3c0.23-0.23,0.65-0.22,0.9-0.03c0.26,0.2-0.04,0.4-0.17,0.58
		c-0.27,0.39-1.08,0.62-0.71,1.2c0.43,0.65,1.15,0.27,1.75,0.08c0.3-0.1,0.61-0.19,0.91-0.28
		C495.54,260.41,495.57,260.5,495.47,260.62z"/>
	<path style="fill-rule:evenodd;clip-rule:evenodd;fill:#696A6D;" d="M495.47,260.62c-0.02-0.09-0.04-0.18-0.07-0.27
		c0.06-0.03,0.17-0.1,0.18-0.08C495.71,260.43,495.63,260.54,495.47,260.62z"/>
	<path style="fill-rule:evenodd;clip-rule:evenodd;fill:#08B5EB;" d="M522.11,233.81c-0.43,1.01-1.36,2.02-0.01,3.05
		c0.07,0.05,0.07,0.2,0.1,0.3c-0.14,0-0.3,0.04-0.43-0.01c-0.85-0.27-1.59-0.75-1.57-1.71c0.01-1.08,0.82-1.55,1.79-1.76
		C522.13,233.63,522.17,233.67,522.11,233.81z"/>
	<path style="fill-rule:evenodd;clip-rule:evenodd;fill:#CACBCD;" d="M521.99,233.69c0.06-0.17,0.06-0.4,0.33-0.4
		c0.05,0,0.11,0.07,0.16,0.11c-0.12,0.14-0.24,0.28-0.37,0.42C522.08,233.76,522.04,233.72,521.99,233.69z"/>
	<path style="fill-rule:evenodd;clip-rule:evenodd;fill:#057FC2;" d="M464.25,266.35c-0.39,0.06-0.41,0.78-0.9,0.57
		c-0.13-0.05-0.13-0.51-0.1-0.78c0.06-0.69,0.2-1.45,0.94-1.64c0.93-0.24,1.82,0.01,2.44,0.83c0.22,0.29,0.38,0.68,0.2,1
		c-0.26,0.46-0.62-0.08-0.94,0C465.34,266.19,464.79,266.16,464.25,266.35z"/>
	<path style="fill-rule:evenodd;clip-rule:evenodd;fill:#5882A1;" d="M464.25,266.35c0.54-0.36,1.09-0.34,1.64-0.02
		C465.34,266.34,464.79,266.34,464.25,266.35z"/>
	<path style="fill-rule:evenodd;clip-rule:evenodd;fill:#037BBF;" d="M445.73,238.78c-0.79-0.29-1.58-0.57-2.36-0.86
		c-0.15-0.3-0.16-0.61-0.02-0.92c0.01-0.21,0.03-0.41,0.04-0.62c0.25-0.36-0.06-0.83,0.23-1.18c0.97,0.29,2.05,0.41,2.89,0.92
		c0.86,0.52,0.02,1.39-0.03,2.1C446.3,238.52,446.34,239.08,445.73,238.78z"/>
	<path style="fill-rule:evenodd;clip-rule:evenodd;fill:#5C7E9D;" d="M445.73,238.78c0.41,0.04,0.5-0.36,0.74-0.56
		C446.44,238.71,446.51,239.31,445.73,238.78z"/>
	<path style="fill-rule:evenodd;clip-rule:evenodd;fill:#6884A2;" d="M443.61,235.2c-0.06,0.4,0.13,0.84-0.23,1.18
		C443.41,235.98,443.17,235.52,443.61,235.2z"/>
	<path style="fill-rule:evenodd;clip-rule:evenodd;fill:#5F8BB2;" d="M443.34,237c0.01,0.31,0.02,0.61,0.02,0.92
		C443.01,237.62,443.05,237.32,443.34,237z"/>
	<path style="fill-rule:evenodd;clip-rule:evenodd;fill:#F6C932;" d="M475.25,270.93c-0.92-0.02-1.63-0.17-1.94-0.94
		c-0.27-0.69,0.28-1.09,0.69-1.5c0.34-0.34,0.57-0.26,0.55,0.23c-0.09,1.65,0.86,1.34,1.85,1.01c0.3-0.1,0.67-0.56,0.91-0.13
		c0.15,0.27-0.23,0.64-0.55,0.83C476.25,270.73,475.71,270.97,475.25,270.93z"/>
	<path style="fill-rule:evenodd;clip-rule:evenodd;fill:#B11F23;" d="M527.66,245.3c-0.43,0.7-0.93,1.76-1.51,1.68
		c-0.75-0.1-1.86-0.7-1.86-1.7c0-0.99,1.04-1.93,1.76-2C526.94,243.19,527.03,244.62,527.66,245.3z"/>
	<path style="fill-rule:evenodd;clip-rule:evenodd;fill:#C470A8;" d="M452.74,244.27c1.52,0.14,2.81,0.74,3.77,1.97
		c0.13,0.17,0.39,0.39,0.09,0.59c-0.12,0.08-0.43,0.06-0.53-0.04c-0.99-0.99-2.29-1.39-3.53-1.91c-0.2-0.09-0.53-0.33-0.51-0.42
		C452.13,244.07,452.49,244.36,452.74,244.27z"/>
	<path style="fill-rule:evenodd;clip-rule:evenodd;fill:#EDB336;" d="M467.61,278.13c-0.1-0.34-0.09-0.68,0.35-0.71
		c0.66-0.04,1.36,0.42,1.41,0.88c0.13,1.22,1.13,1.9,1.5,2.93c0.14,0.4,0.27,0.81,0.38,1.22c0.05,0.18,0.38,0.44-0.01,0.55
		c-0.12,0.04-0.34-0.28-0.51-0.43c-0.04-0.16-0.13-0.27-0.26-0.37l0.01,0.01c-0.16-0.25-0.29-0.51-0.49-0.73l0.01,0.01
		c-0.13-0.16-0.1-0.43-0.36-0.5c-0.69-0.96-0.83-2.3-2.04-2.88L467.61,278.13z"/>
	<path style="fill-rule:evenodd;clip-rule:evenodd;fill:#DDD0B4;" d="M469.99,281.48c0.38,0.1,0.51,0.36,0.49,0.73
		C470.16,282.07,470.01,281.82,469.99,281.48z"/>
	<path style="fill-rule:evenodd;clip-rule:evenodd;fill:#CDBFA1;" d="M469.63,281c0.27,0.06,0.37,0.23,0.36,0.5
		C469.87,281.33,469.75,281.16,469.63,281z"/>
	<path style="fill-rule:evenodd;clip-rule:evenodd;fill:#DDD0B4;" d="M470.46,282.2c0.09,0.12,0.17,0.24,0.26,0.37
		C470.64,282.45,470.55,282.33,470.46,282.2z"/>
	<path style="fill-rule:evenodd;clip-rule:evenodd;fill:#FACE24;" d="M454.46,224.94c0.98,0.7,2.35,0.86,2.67,1.88
		c0.16,0.51-0.67,1.82-1.56,1.75c-0.96-0.07-2.14-0.66-2.39-1.65C453.05,226.39,453.77,225.49,454.46,224.94z"/>
	<path style="fill-rule:evenodd;clip-rule:evenodd;fill:#FACE25;" d="M473.77,232.73c0.81,0.54,2.11,0.67,2.29,1.56
		c0.13,0.67-0.78,1.81-1.53,1.87c-0.74,0.06-1.93-0.54-2.07-1.4C472.34,234.08,473.07,233.28,473.77,232.73z"/>
	<path style="fill-rule:evenodd;clip-rule:evenodd;fill:#077BBF;" d="M510.92,242.4c-0.48,0.64-0.43,1.73-1.42,1.61
		c-0.75-0.09-1.9-0.26-1.94-1.16c-0.03-0.66,0.45-1.8,1.4-1.77C509.68,241.11,510.51,241.57,510.92,242.4z"/>
	<path style="fill-rule:evenodd;clip-rule:evenodd;fill:#FACE25;" d="M503.4,220.73c-0.02,1.17-0.93,1.58-1.59,1.61
		c-0.9,0.03-1.28-1.03-1.26-1.73c0.03-1.11,1.25-1.45,2.02-1.48C503.46,219.09,503.04,220.29,503.4,220.73z"/>
	<path style="fill-rule:evenodd;clip-rule:evenodd;fill:#AC829C;" d="M519.02,255.11c-0.03-0.01-0.12-0.04-0.21-0.08
		c0.17-0.37,0.46-0.66,0.83-0.78c0.47-0.15,0.92-0.48,1.46-0.31c-0.04,0.08-0.05,0.2-0.12,0.23
		C520.35,254.48,519.72,254.77,519.02,255.11z"/>
	<path style="fill-rule:evenodd;clip-rule:evenodd;fill:#07703B;" d="M500.29,267.47c-0.51,0.64-0.66,1.55-1.43,1.59
		c-0.52,0.03-1.28-0.52-1.11-1.13c0.18-0.65,0.2-1.75,1-1.8C499.22,266.1,499.75,266.98,500.29,267.47z"/>
	<path style="fill-rule:evenodd;clip-rule:evenodd;fill:#FBCF24;" d="M488.26,270.32c-0.42-0.03-0.8-0.1-0.8-0.65
		c0.01-0.73,0.08-1.43,0.82-1.83c0.13-0.07,0.33,0.02,0.47-0.04c0.7-0.33,1.58-1.06,1.87,0.27c0.26,1.24-0.71,1.81-1.77,2.15
		C488.65,270.28,488.45,270.29,488.26,270.32z"/>
	<path style="fill-rule:evenodd;clip-rule:evenodd;fill:#0078BB;" d="M471.08,301.04c-0.03,0.03-0.06,0.08-0.07,0.07
		c-0.06-0.01-0.12-0.04-0.17-0.07c0.02-0.03,0.05-0.07,0.07-0.07C470.96,300.99,471.02,301.02,471.08,301.04z"/>
</g>
</svg>
