<?xml version="1.0" encoding="utf-8"?>
<!-- Generator: Adobe Illustrator 16.0.0, SVG Export Plug-In . SVG Version: 6.00 Build 0)  -->
<!DOCTYPE svg PUBLIC "-//W3C//DTD SVG 1.0//EN" "http://www.w3.org/TR/2001/REC-SVG-20010904/DTD/svg10.dtd" [
	<!ENTITY ns_flows "http://ns.adobe.com/Flows/1.0/">
	<!ENTITY ns_extend "http://ns.adobe.com/Extensibility/1.0/">
	<!ENTITY ns_ai "http://ns.adobe.com/AdobeIllustrator/10.0/">
	<!ENTITY ns_graphs "http://ns.adobe.com/Graphs/1.0/">
]>
<svg version="1.0" id="Layer_1" xmlns:x="&ns_extend;" xmlns:i="&ns_ai;" xmlns:graph="&ns_graphs;"
	 xmlns="http://www.w3.org/2000/svg" xmlns:xlink="http://www.w3.org/1999/xlink" xmlns:a="http://ns.adobe.com/AdobeSVGViewerExtensions/3.0/"
	 x="0px" y="0px" width="960px" height="560px" viewBox="0 0 960 560" style="enable-background:new 0 0 960 560;"
	 xml:space="preserve">
<g>
	<path style="fill-rule:evenodd;clip-rule:evenodd;fill:#231F20;" d="M457.44,327.04c-0.37-1.04,0.14-1.72,0.91-2.34
		c2.27-1.83,4.81-3.14,7.63-3.89c2.73-0.73,3.27-2.29,3.26-4.66c-0.01-2.46-0.48-4.87-0.09-7.39c0.19-1.24,0.48-1.95,1.39-2.79
		c0.78-0.73,1.12-1.98,1.49-3.05c0.18-0.53-0.52-0.55-0.85-0.57c-1.13-0.06-1.27-0.78-1.2-1.66c0.12-1.46,0.61-2.82,1.29-4.09
		c1.45-2.67,1.61-5.66,2.23-8.53c0.02-0.1,0.03-0.29-0.02-0.31c-1.82-0.91-0.78-2.39-0.72-3.66c0.01-0.23,0.14-0.46,0.17-0.7
		c0.07-0.58,0.54-1.06,0.41-1.69c-0.65,0.27-1.33,0.44-1.89,0.92c-0.82,0.7-1.63,1.43-2.52,2.02c-3.59,2.37-7.54,2-10.62-0.99
		c-0.52-0.51-0.97-0.7-1.74-0.64c-1.06,0.08-2.16,0.18-3.04-0.89c-0.45-0.55-1.38-0.29-2.12-0.05c-2.11,0.66-4.11,0.42-5.95-0.84
		c-1.63-1.11-2.11-2.43-1.6-4.33c0.05-0.18,0.23-0.38,0-0.52c-0.08-0.05-0.28,0.08-0.42,0.15c-0.59,0.35-1.16,0.67-1.89,0.65
		c-0.78-0.02-1.43-0.22-1.8-0.95c-0.34-0.67-0.05-1.25,0.34-1.77c0.49-0.65,1.24-0.92,1.92-0.6c1.58,0.75,2.48-0.46,3.5-1.14
		c0.68-0.45-0.19-0.44-0.38-0.58c-0.37-0.28-1.1-0.37-1.02-0.87c0.08-0.55,0.78-0.55,1.29-0.63c0.08-0.01,0.16-0.02,0.24-0.04
		c0.52-0.11,1.29,0.13,1.51-0.39c0.17-0.4-0.6-0.64-0.86-1.03c-1.01-1.54-1.36-3.32-1.82-5.05c-0.15-0.58-0.2-1.19-0.39-1.75
		c-1.59-4.61-0.69-9.05,0.84-13.46c1.46-4.2,4.8-6.44,8.56-8.24c0.94-0.45,0.54,0.38,0.49,0.66c-0.38,2.11-0.36,4.22,0.11,6.31
		c0.36,1.59,1,3.06,2.29,4.12c0.56,0.46,0.31,0.73,0.01,1.15c-1.89,2.68-3.73,5.4-4.45,8.69c-0.48,2.24-0.37,4.42,0.62,6.53
		c0.32,0.69,0.5,0.12,0.78,0.04c0.72-0.21,1.62-1.59,2.06,0.43c0.09,0.4,1.51-0.08,2.16-0.65c0.26-0.23,0.41-0.6,0.68-0.81
		c0.61-0.49,1.38-0.6,2.04-0.31c0.77,0.34,0.42,1.2,0.52,1.84c0.13,0.79-0.52,0.87-1.02,1.08c-1.23,0.53-2.63,0.65-3.74,1.48
		c-0.27,0.2-0.84,0.12-0.82,0.52c0.01,0.19,0.56,0.36,0.86,0.55c0.5,0.32,1.04,0.6,1.48,1c0.61,0.55,0.74,1.35,0.23,1.95
		c-0.69,0.8-0.2,0.99,0.38,1.38c1.29,0.87,2.52,1.83,3.8,2.71c0.49,0.34,1.02,0.64,1.58,0.82c0.9,0.3,1.57-0.3,2.09-0.88
		c0.45-0.5-0.34-0.66-0.55-0.98c-0.89-1.36-0.37-3.42,1.16-3.82c3.17-0.83,5.15-3.17,7.41-5.26c1.6-1.47,2.94-3.52,5.42-3.84
		c0.52-0.07,0.43-0.5,0.36-0.85c-0.1-0.48-0.24-0.86-0.92-0.84c-2.13,0.06-4.22-0.25-6.3-0.69c-3.37-0.72-6.34-2.19-8.67-4.78
		c-0.39-0.43-0.57-0.58-1.1-0.1c-1.35,1.22-3.09,0.93-4.11-0.58c-0.46-0.68-0.73-1.46-0.7-2.26c0.05-1.84,1.03-3.59,0.38-5.53
		c-0.2-0.61,0.35-1.55,1.07-1.69c1.08-0.21,1.27-0.99,1.69-1.76c1.94-3.6,3.57-7.42,7.69-9.29c4.57-2.07,9.34-2.58,14.25-2.29
		c3.53,0.21,6.88,1.08,9.67,3.42c2.98,2.5,3.81,6.18,5.02,9.62c0.44,1.26,1.07,2.3,2.03,3.23c2.63,2.55,3.73,5.79,3.74,9.39
		c0,0.98-0.6,1.28-1.51,0.55c-1.42-1.14-1.85-2.74-2.33-4.36c-0.1-0.32-0.04-0.9-0.42-0.89c-0.41,0.01-0.28,0.57-0.33,0.89
		c-0.29,1.6-0.23,3.28-0.98,4.79c-0.28,0.56-0.54,1.38-1.19,1.36c-0.53-0.02-0.82-0.81-1.04-1.36c-0.21-0.51-0.3-1.07-0.42-1.61
		c-0.1-0.45,0.17-1.06-0.26-1.31c-0.16-0.09-0.69,0.42-1.04,0.68c-2.43,1.79-4.97,3.34-7.96,4.03c-0.3,0.07-0.71,0.04-0.76,0.45
		c-0.05,0.49,0.4,0.53,0.72,0.65c2.84,1.08,5.74,2,8.39,3.53c0.85,0.49,1.51,1.12,2.83,0.89c1.44-0.25,2.9,0.93,4.05,1.81
		c1.94,1.48,4.19,2.1,6.35,2.99c1.45,0.6,1.58,0.89,0.46,2.04c-0.56,0.57-0.5,0.91-0.07,1.49c1.73,2.35,3.5,4.67,4.71,7.36
		c0.66,1.47,0.98,3,1.15,4.62c0.12,1.18,0.23,2.39,1.66,3.19c1.19,0.66,2.14,1.83,3.35,2.6c0.28,0.18,0.86,0.45,0.64,0.86
		c-0.17,0.32-0.69,0.6-1.08,0.63c-0.85,0.07-0.96,0.31-0.64,1.11c0.47,1.17-0.28,2.04-1.51,1.75c-0.67-0.16-0.99-0.16-1.19,0.57
		c-0.16,0.58-0.53,1.19-1.21,1.16c-0.7-0.02-0.95-0.67-1.05-1.28c-0.13-0.81-0.4-0.71-0.86-0.21c-0.57,0.62-1.19,1.19-2.01,1.48
		c-0.4,0.15-0.82,0.43-1.2-0.03c-0.37-0.44-0.49-0.95-0.15-1.44c0.52-0.75,1.1-1.47,1.63-2.21c0.31-0.44,0.58-1.02,0.2-1.43
		c-0.37-0.41-0.77,0.16-1.14,0.32c-0.7,0.29-1.36,0.67-2.07,0.94c-1.03,0.41-1.34-0.22-1.26-1.07c0.09-1.02,0.43-1.94,1.43-2.48
		c1.15-0.62,1.43-1.59,1.15-2.84c-0.55-2.48-1.43-4.83-2.51-7.11c-0.25-0.52-0.6-0.92-1.1-1.23c-2.03-1.26-3.84-3.04-6.57-2.58
		c-0.36,0.06-0.79-0.33-1.2-0.46c-0.4-0.13-0.58-0.85-1.02-0.54c-0.17,0.12-0.04,0.85,0.13,1.22c0.79,1.69,1.91,3.23,2.27,5.13
		c0.04,0.19,0.42,0.33,0.67,0.45c0.61,0.29,1.25,0.54,1.86,0.83c2.61,1.29,3.06,3.59,0.97,5.62c-0.64,0.62-0.59,1.12-0.4,1.78
		c0.68,2.41,2.03,4.51,3.03,6.77c0.65,1.46,0.48,1.95-1.1,2.2c-1.37,0.22-1.39,0.8-0.94,1.84c0.55,1.29,1.37,2.35,2.53,3.12
		c0.53,0.35,0.73,0.77,0.81,1.37c0.3,2.19,0.11,4.39,0.14,6.58c0.02,1.56,0.64,2.54,2.24,2.88c3.26,0.68,4.73,3.17,5.85,5.96
		c0.28,0.69-0.37,0.8-0.74,1.01c-2.68,1.5-5.62,1.37-8.54,1.3c-1.08-0.03-2.16-0.22-3.23-0.18c-1.6,0.06-2.2-0.81-2.41-2.21
		c-0.15-0.99,0-1.96,0.47-2.79c0.55-0.96,0.38-1.8,0.07-2.73c-0.99-2.95-2.39-5.66-4.49-7.99c-0.58-0.65-0.88-1.36-0.35-2.23
		c0.27-0.44-1.04-4.01-1.54-4.22c-0.19-0.08-0.48-0.05-0.67,0.04c-1.28,0.54-1.96,0-2.31-1.22c-0.09-0.31-0.21-0.61-0.35-0.89
		c-0.4-0.81-0.16-2.25-0.98-2.41c-1.19-0.24-2.51,0.2-3.78,0.37c-0.49,0.07-0.42,0.49-0.49,0.84c-0.12,0.62-0.24,1.25-0.41,1.86
		c-0.26,0.94-0.77,1.5-1.82,0.99c-1.06-0.51-1.6,0.08-2.11,0.91c-0.7,1.15-1.35,2.69-0.74,3.62c1.48,2.3-0.45,3.8-0.84,5.64
		c-0.24,1.12-0.77,2.18-1.14,3.28c-0.45,1.31-0.72,2.43,0.35,3.82c1.19,1.54,0.88,3.51-0.2,5.19c-1.03,1.61-2.14,1.88-4.25,0.78
		c-1.22-0.64-2.28-1.17-3.49-0.14c-0.19,0.21-0.55-0.02-0.72,0.27l0.02-0.01c-0.33,0.09-0.8,0.27-0.94-0.08
		c-0.2-0.5,0.39-0.66,0.66-0.94c0.05-0.06,0.08-0.14,0.06-0.23c-2.98-0.25-5.95-0.3-8.91-0.04c-0.29,0.03-1.15-0.09-0.39,0.69
		c0.48,0.49,0.1,0.66-0.4,0.69C458.63,327.44,458.01,327.38,457.44,327.04z"/>
	<path style="fill-rule:evenodd;clip-rule:evenodd;fill:#282828;" d="M469.39,326.3c-0.15,0.12-0.29,0.24-0.44,0.36
		c-0.19,0.16-0.62,0.16-0.51,0.5c0.04,0.12,0.49,0.1,0.75,0.14c-2.19,0.81-4.45,0.55-6.7,0.41c-1.35-0.08-2.7-0.15-4.04-0.25
		c-0.37-0.03-0.82,0.07-1.01-0.43c0.35,0.07,0.69,0.18,1.04,0.21c0.38,0.03,1.02,0.2,1.09-0.13c0.12-0.52-0.55-0.17-0.78-0.38
		c-0.13-0.12-0.32-0.29-0.32-0.43c0-0.34,0.31-0.43,0.59-0.46c1.69-0.16,3.39-0.54,5.06-0.42c1.66,0.12,3.32,0.12,4.98,0.18
		c0.24,0.01,0.62-0.13,0.64,0.3C469.75,326.03,469.51,326.17,469.39,326.3L469.39,326.3z"/>
	<path style="fill-rule:evenodd;clip-rule:evenodd;fill:#282828;" d="M469.17,327.31c0.16-0.32,0.45-0.28,0.72-0.27
		C469.71,327.29,469.45,327.32,469.17,327.31z"/>
	<path style="fill-rule:evenodd;clip-rule:evenodd;fill:#F48D6C;" d="M473.47,247.32c2.21,0.9,4.42,1.8,6.65,2.68
		c0.56,0.22,0.91,0.43,0.86,1.18c-0.09,1.3,0.64,2.25,1.6,3.05c0.22,0.18,0.84,0.31,0.18,0.72c-1.34,0.84-0.17,0.82,0.35,1.01
		c0.04-0.02,0.08-0.04,0.12-0.05c0.19-0.06,0.38-0.13,0.58-0.19c0.18,0.98,0.25,2,0.92,2.83c0.18,0.22,0.03,0.44-0.19,0.59
		c-2.62,1-5.34,0.93-8.06,0.76c-1.11-0.07-2.24-0.13-3.34-0.36c-0.43-0.09-0.88-0.09-1.19-0.47c-0.21-1.09,0.27-2.09,0.37-3.14
		c0.19-0.37,0.84-0.57,0.39-1.19c-0.18-0.26,0.02-0.52,0.19-0.76c1.95-2.66,1.95-2.66-0.09-5.48c-0.23-0.31-0.37-0.64-0.18-1
		C472.83,247.14,473.15,247.21,473.47,247.32z"/>
	<path style="fill-rule:evenodd;clip-rule:evenodd;fill:#F48D6C;" d="M515.17,296.46c-0.98-0.58-0.95,0.25-1.12,0.8
		c-0.16,0.17-0.31,0.17-0.46-0.02c-0.27-1.14-0.71-1.2-1.36-0.23c-0.24,0.35-0.54,0.67-0.81,1c-0.24,0.09-0.32,0-0.29-0.23
		c0.05-0.19,0.11-0.38,0.14-0.58c0.17-0.9,0.52-1.88-0.42-2.53c-0.94-0.66-1.72,0.03-2.5,0.52c-0.41,0.25-0.89,1.01-1.25,0.57
		c-0.37-0.45,0.22-1.34,0.66-1.45c1.33-0.34,1.63-1.21,1.71-2.39c0.09-1.19-0.12-2.31-0.56-3.4c-0.86-2.13-1.67-4.29-2.64-6.37
		c-0.55-1.18-2.1-1.2-2.96-2.1c-0.43-0.45-1.18-0.74,0.14-1.06c0.72-0.17,1.35-0.81,1.95-1.32c0.59-0.49,0.94-0.31,1.38,0.2
		c3.42,3.85,5.68,8.19,5.61,13.48c-0.01,0.67,0.14,1.09,0.87,1.11c1.43,0.05,1.89,1.48,2.94,2.06c0.11,0.15,0.09,0.28-0.07,0.38
		c-0.75,0.02-1.68-0.1-0.87,1.13C515.36,296.2,515.42,296.37,515.17,296.46z"/>
	<path style="fill-rule:evenodd;clip-rule:evenodd;fill:#F48D6C;" d="M463.86,256.99c-1.31-1.19-2.28-2.56-2.14-4.44
		c0.08-1.02-0.32-1.41-1.38-1.37c-1.31,0.04-1.63-0.56-1.08-1.74c0.2-0.43,0.36-0.73,0.83-0.24c0.58,0.62,0.94,0.19,1.11-0.36
		c0.48-1.54,0.99-3.03,1.91-4.42c0.54-0.83,0.78-0.89,1.57-0.57c2.57,1.05,5.17,2.04,7.76,3.06c0.4,0.28,0.13,0.51-0.11,0.61
		c-0.74,0.34-1.52,0.59-2.25-0.04c-0.37-0.32-0.69-0.52-1.15-0.16c-0.54,0.42-1.12,0.58-1.78,0.2c-0.39-0.23-0.63-0.04-0.62,0.38
		c0.03,0.69-0.29,1.22-0.69,1.73c-0.58,0.75-0.46,1.56-0.18,2.4c0.17,0.52,0.57,0.98,0.43,1.59c-0.85,0.59-1.36,1.41-1.64,2.39
		C464.34,256.39,464.26,256.79,463.86,256.99z"/>
	<path style="fill-rule:evenodd;clip-rule:evenodd;fill:#F088B7;" d="M480.44,290.56c1.37,0.33,2.74,0.66,4.12,0.97
		c0.37,0.08,0.44,0.32,0.4,0.61c-0.54,3.41-1.11,6.82-1.65,10.23c-0.12,0.76-0.62,0.71-1.16,0.61c-0.73-0.15-1.46-0.31-2.19-0.46
		c-0.66-0.11-0.82-0.57-0.75-1.14c0.35-3.21,0.05-6.45,0.41-9.65C479.66,291.23,479.41,290.39,480.44,290.56z"/>
	<path style="fill-rule:evenodd;clip-rule:evenodd;fill:#F48D6C;" d="M464.75,285.33c-2.78-0.02-4.37-1.29-5.92-2.64
		c-0.38-0.33-0.15-0.6-0.02-0.94c0.7-1.73-0.19-3.15-2-3.06c-0.67,0.03-0.86-0.24-1.01-0.72c-0.1-0.33-0.3-0.88-0.18-0.98
		c0.4-0.32,0.93-0.14,1.33,0.1c0.92,0.55,1.81,1.16,2.71,1.75c1,0.66,1.98,1.33,2.97,2.01c1.18,0.8,2.23,0.7,3.13-0.44
		c0.52-0.66,1.1-0.82,1.86-0.33c0.53,0.34,1.14,0.58,1.71,0.86c1.37,0.68,1.48,1.18,0.21,2.02
		C467.92,284.05,466.23,285.13,464.75,285.33z"/>
	<path style="fill-rule:evenodd;clip-rule:evenodd;fill:#272828;" d="M490.52,251.46c0.21,1.24-0.68,1.77-1.7,2.15
		c-1.83,0.66-3.59,1.68-5.5-0.05c-1.82-1.65-1.72-3.71,0.58-4.76c1.68-0.77,3.54-0.74,5.25-0.12
		C490.25,249.07,490.57,250.19,490.52,251.46z"/>
	<path style="fill-rule:evenodd;clip-rule:evenodd;fill:#1C56A6;" d="M505.12,276.63c-1.17,1.12-2.54,1.87-4.12,2.24
		c-2.14,0.5-4.6-0.1-5.38-2.04c-0.79-1.95-1.13-4.19-0.93-6.4c0.02-0.25,0.26-0.55,0.46-0.39c0.85,0.67,0.87-0.17,1.14-0.57
		c0.44,0.39,0.59,0.93,0.77,1.46c0.96,2.79,3,4.29,5.8,4.92C503.62,276.03,504.57,275.78,505.12,276.63z"/>
	<path style="fill-rule:evenodd;clip-rule:evenodd;fill:#BE3F96;" d="M491.95,271.64c0.01,2.72,0.43,5.39,1.2,8
		c0.07,0.24,0.36,0.54,0.07,0.76c-0.27,0.2-0.51-0.08-0.74-0.22c-1.5-0.96-2.27-2.61-3.53-3.81c-1.06-1.01-1.95-2.22-2.92-3.33
		c-0.45-0.51-0.86-1.03-0.19-1.64c0.62-0.57,1.02-1.67,2.22-0.98c0.52,0.3,1.13,0.46,1.59,0.82c0.59,0.46,1.17,0.58,1.86,0.35
		C491.67,271.46,491.82,271.46,491.95,271.64z"/>
	<path style="fill-rule:evenodd;clip-rule:evenodd;fill:#242122;" d="M466.09,253.6c-1.02-1.65-1.72-3.28,0.1-4.9
		c0.53-0.47-0.54-1.22,0.19-1.74c0.79-0.56,0.92,0.79,1.57,0.55c0.32-0.12,0.72-0.28,0.88-0.54c0.51-0.8,0.89-0.56,1.29,0.06
		c0.47,0.73,1.74,0.67,2.33-0.11c0.34,0.14,0.68,0.27,1.03,0.41c-0.25,0.04-0.58-0.12-0.66,0.3c-0.07,0.35,0.05,0.54,0.34,0.78
		c2.22,1.86,2.21,3.83-0.02,5.73c-0.28,0.24-0.56,0.41-0.03,0.65c0.31,0.14,0.61,0.36,0.48,0.71c-0.2,0.5-0.68,0.22-1.05,0.24
		c-0.06,0.01-0.12,0.02-0.18,0.02c-0.12,0.01-0.24,0-0.35-0.02c-0.52-0.12-1.05-0.14-1.58-0.11c-1.31-0.15-2.53,0.58-3.83,0.4
		c-0.41-0.15-0.85-0.5-0.47-0.84C466.81,254.55,466.18,254.12,466.09,253.6z"/>
	<path style="fill-rule:evenodd;clip-rule:evenodd;fill:#F38D6C;" d="M488.4,261.05c-2.73,1.21-5.56,1.51-8.55,1.51
		c-2.96,0-5.86-0.14-8.74-0.8c-0.58-0.13-1.13-0.37-1.7-0.56c0.46-0.63,0.92-1.26,1.67-1.61c1.75,0.1,3.46,0.54,5.21,0.59
		c2.67,0.09,5.32-0.14,7.93-0.71c0.39-0.08,0.78-0.18,1.17-0.1C486.16,260.33,487.4,260.47,488.4,261.05z"/>
	<path style="fill-rule:evenodd;clip-rule:evenodd;fill:#F38E6C;" d="M482.08,249.02c-0.33,0.38-0.7,0.41-1.16,0.22
		c-4.81-1.91-9.62-3.8-14.43-5.7c-0.17-0.07-0.44-0.22-0.44-0.32c0.01-0.34,0.34-0.24,0.55-0.25c1.86-0.1,3.64,0.29,5.39,0.88
		c2.82,0.96,5.6,2,8.65,2.15c1.22,0.06,2.42,0.74,3.62,1.14c0.15,0.16,0.15,0.31-0.01,0.46c-0.32,0.16-0.63,0.31-0.95,0.47
		c-0.12,0.15-0.34,0.09-0.46,0.25l-0.02,0.01c-0.08,0.08-0.17,0.15-0.26,0.21l0.01-0.01c-0.07,0.1-0.15,0.19-0.26,0.24l0.01-0.01
		C482.29,248.89,482.19,248.96,482.08,249.02z"/>
	<path style="fill-rule:evenodd;clip-rule:evenodd;fill:#F8A026;" d="M451.94,257.98c-0.43,1.49-0.87,2.99-1.3,4.48
		c-0.21,0.33,0.11,0.79-0.28,1.07c-0.55,0.08-0.78-0.33-1.02-0.69c-0.4-0.6-0.77-1.24-0.93-1.94c-1.06-4.83-0.4-9.29,2.99-13.1
		c0.37-0.41,0.84-1.03,1.43-0.19c0.06,0.05,0.06,0.1,0.03,0.17c0.18,0.23,0.02,0.56,0.22,0.79c0.07,0.04,0.09,0.1,0.07,0.18
		c0.08,0.46-0.24,0.73-0.49,1.02c-1.88,2.24-2.09,4.69-0.94,7.32C451.83,257.38,452.01,257.65,451.94,257.98z"/>
	<path style="fill-rule:evenodd;clip-rule:evenodd;fill:#8AC870;" d="M483.57,235.83c0.55,0.1,1.15-0.12,1.67,0.25
		c0.75,0.11,0.96,0.52,0.78,1.24c-0.25,0.97-0.49,1.94-0.89,2.86c-0.39,0.89-0.64,1.79-0.7,2.77c-0.07,1.11-0.6,1.73-1.41,1.8
		c-0.92,0.08-1.78-0.57-1.88-1.63c-0.11-1.16-0.57-2.15-1.05-3.16c-0.47-0.99-0.58-1.96-0.04-2.99
		C480.86,235.41,482.21,235.63,483.57,235.83z"/>
	<path style="fill-rule:evenodd;clip-rule:evenodd;fill:#C47B2C;" d="M487.65,287.72c0.09,2.96,0.09,2.97-2.84,2.85
		c-1.2-0.05-2.35-0.36-3.52-0.63c-0.85-0.19-1.02-0.71-0.83-1.41c0.26-1,0.6-1.98,0.87-2.97c0.15-0.54,0.41-0.55,0.89-0.39
		c0.98,0.32,1.99,0.55,2.99,0.82c0.36,0.24,0.77,0.11,1.15,0.12C487.89,286.14,487.89,286.13,487.65,287.72z"/>
	<path style="fill-rule:evenodd;clip-rule:evenodd;fill:#87361F;" d="M496.77,307.63c0.57-0.85,1.26-1.6,2.17-2.07
		c0.38-0.2,0.82-0.26,1.18,0.13c0.28,0.35,0.13,0.7-0.06,1c-0.63,0.99-0.55,2.02-0.31,3.1c0.32,1.41,0.77,2.76,1.55,3.98
		c0.77,1.21,1.77,2.03,3.33,1.77c0.06,0.47,0.15,0.93,0.16,1.4c0.01,0.89,1.79,1.34,0.41,2.67c-0.83,0.8-1.61,1.28-2.68,1.42
		c-0.28-0.27-0.32-0.63-0.38-0.98c-0.24-1.3-0.72-2.52-1.39-3.66c-0.93-1.58-1.67-3.24-2.3-4.96c-0.36-0.97-0.79-1.9-1.42-2.74
		C496.79,308.38,496.48,308.07,496.77,307.63z"/>
	<path style="fill-rule:evenodd;clip-rule:evenodd;fill:#F5F3C1;" d="M444.71,259.36c-0.06-0.07-0.07-0.14-0.05-0.22
		c-0.19-0.21-0.02-0.52-0.19-0.73c-0.09-0.51-0.3-1.03-0.25-1.52c0.64-5.51,2.1-10.62,7.03-13.98c0.45-0.31,0.99-0.96,1.41-0.69
		c0.45,0.29-0.02,1.01-0.09,1.55c-0.06,0.1-0.12,0.21-0.17,0.31c-0.07,0.1-0.13,0.2-0.2,0.3c-1.21,1.37-2.45,2.71-3.61,4.12
		c-1.74,2.13-2.08,4.68-2.36,7.25c-0.12,1.15-0.41,2.27-0.56,3.41c-0.04,0.32-0.19,0.64-0.56,0.7
		C444.77,259.91,444.84,259.54,444.71,259.36z"/>
	<path style="fill-rule:evenodd;clip-rule:evenodd;fill:#F089B7;" d="M491.04,302.32c-1.04-3.15-1.52-6.42-1.93-9.7
		c-0.04-0.3-0.11-0.64,0.14-0.9c0.72-0.24,1.26,0.09,1.7,0.58c2.23,2.46,2.79,5.43,2.43,8.6
		C493.23,302.26,492.05,302.85,491.04,302.32z"/>
	<path style="fill-rule:evenodd;clip-rule:evenodd;fill:#87361F;" d="M481.12,276.65c-1.54-1.35-2.44-3.19-3.62-4.81
		c1.3-0.68,2.67-1.26,3.65-2.43c0.9,1.04,2.47,1.48,2.72,3.14c0.06,0.43,0.96,0.12,1.1,0.73c0.17,0.42-0.04,0.68-0.38,0.86
		c-1.08,0.56-1.89,1.39-2.52,2.42c-0.14,0.23-0.35,0.44-0.68,0.32l0-0.01C481.32,276.79,481.23,276.71,481.12,276.65z"/>
	<path style="fill-rule:evenodd;clip-rule:evenodd;fill:#1D56A5;" d="M486,299.25c-1.21,0.21-1.34-0.31-1.12-1.36
		c0.36-1.74,0.61-3.51,0.83-5.28c0.1-0.78,0.42-1.06,1.2-1.13c0.88-0.08,1,0.43,1.11,1.04c0.28,1.6,0.49,3.21,0.81,4.8
		c0.23,1.14-0.03,1.74-1.31,1.7C487.02,299,486.51,299.17,486,299.25z"/>
	<path style="fill-rule:evenodd;clip-rule:evenodd;fill:#E01E26;" d="M474.08,302.61c1.63,0.17,3.25,0.33,4.88,0.51
		c0.69,0.08,0.93,0.45,0.47,1.04c-0.87,1.11-1.38,2.28-0.96,3.74c0.1,0.37,0,0.85-0.4,1.05c-0.38,0.19-0.67-0.17-0.95-0.37
		c-0.82-0.56-1.19-1.48-1.77-2.24c-0.62-0.81-0.92-2-2.3-1.98c-0.34,0.01-0.26-0.35-0.14-0.55
		C473.21,303.32,473.11,302.43,474.08,302.61z"/>
	<path style="fill-rule:evenodd;clip-rule:evenodd;fill:#75BC64;" d="M483.57,235.83c-0.82,0.19-1.73-0.34-2.5,0.39
		c-1.13,1.07-1.4,2.26-0.66,3.66c0.54,1.02,1.07,2.02,1.03,3.26c-0.02,0.8,0.61,1.25,1.43,1.34c0.74,0.08,1.15-0.49,1.13-0.99
		c-0.12-2.29,1.33-4.13,1.7-6.28c0.09-0.52,0.06-0.91-0.47-1.13c0.4,0.06,0.85-0.09,1.2,0.24c0.74,0.44,0.63,1.16,0.48,1.8
		c-0.47,1.88-1.09,3.72-1.69,5.56c-0.46,1.39-1.37,1.91-2.67,1.79c-0.08,0.01-0.14-0.02-0.2-0.06c-1.21-0.13-2.01-0.85-2.26-1.97
		c-0.32-1.44-0.93-2.79-1.25-4.23c-0.32-1.44,0.09-2.66,1.23-3.62c0.12-0.08,0.24-0.08,0.36,0
		C481.48,235.71,482.55,235.39,483.57,235.83z"/>
	<path style="fill-rule:evenodd;clip-rule:evenodd;fill:#6F2315;" d="M496.77,307.63c2.17,3.33,3.28,7.17,5.19,10.63
		c0.47,0.84,0.62,1.79,0.56,2.76c-1,0.17-1.44-0.34-1.67-1.25c-0.81-3.21-2.28-6.07-4.44-8.59
		C495.34,309.94,495.55,308.7,496.77,307.63z"/>
	<path style="fill-rule:evenodd;clip-rule:evenodd;fill:#1B59A7;" d="M475.41,274.24c-0.04,2.35-0.6,4.5-2.45,6.13
		c-0.63,0.56-1.26,0.76-2.05,0.25c-1.18-0.77-2.77-0.8-3.7-2.02c0.32-0.44,0.85-0.39,1.29-0.52c2.27-0.67,4.48-1.45,6.01-3.42
		C474.73,274.39,474.97,274.08,475.41,274.24z"/>
	<path style="fill-rule:evenodd;clip-rule:evenodd;fill:#109745;" d="M477.31,244.72c-0.08-0.01-0.17-0.03-0.25-0.04
		c-0.21-0.16-0.51,0.02-0.7-0.2c-0.92,0.06-1.61-0.56-2.43-0.79c-0.08-0.04-0.15-0.08-0.22-0.13c-0.09-0.03-0.17-0.06-0.26-0.09
		c-0.08-0.05-0.15-0.1-0.22-0.16l-0.02-0.01c-0.61-1.38-0.38-2.69,0.31-3.98c0.71-1.31,1.98-2.02,3.06-2.94
		c0.15-0.12,0.37-0.14,0.54,0.02c0.08,0.14,0.15,0.31,0.09,0.46c-0.98,2.29-0.12,4.45,0.4,6.64
		C477.73,243.9,478.16,244.51,477.31,244.72z"/>
	<path style="fill-rule:evenodd;clip-rule:evenodd;fill:#C24698;" d="M499.65,302.08c-1.34,0.31-2.7,0.48-4.08,0.46
		c-0.37-0.36-0.3-0.8-0.23-1.23c0.48-3.14-0.57-5.96-1.83-8.73c-0.21-0.46-0.6-0.86-0.46-1.43c0.78-0.46,1.39-0.36,1.82,0.51
		c1.61,3.23,2.81,6.65,4.69,9.75C499.68,301.6,499.76,301.84,499.65,302.08z"/>
	<path style="fill-rule:evenodd;clip-rule:evenodd;fill:#7F301C;" d="M475.66,320.08c-0.19,0.96-1.02,1.47-1.75,1.58
		c-0.82,0.12-1.02-0.91-1.4-1.52c-0.33-0.55-0.16-1.08,0.09-1.59c0.89-1.76,1.31-3.65,1.55-5.6c0.13-1.07,0.37-2.12,0.93-3.06
		c0.23-0.38,0.41-0.94,1.07-0.62c0.39,0.17,0.77,0.35,1.16,0.52c0.23,0.27,0.14,0.55-0.04,0.76c-1.75,2.06-1.52,4.61-1.74,7.03
		C475.46,318.41,475.42,319.26,475.66,320.08z"/>
	<path style="fill-rule:evenodd;clip-rule:evenodd;fill:#216DB5;" d="M505.12,276.63c-1.5-0.49-3.12-0.41-4.58-1.19
		c-2.44-1.31-3.76-3.33-4.26-5.97c0.82-0.12,1.55,0.1,2.18,0.65c1.03,3.29,3.52,4.78,6.83,4.07c0.27-0.06,0.56-0.02,0.82-0.12
		c0.35,0.12,0.89,0.07,0.92,0.53c0.04,0.56-0.51,0.81-0.89,1.12c-0.08,0.06-0.16,0.12-0.23,0.19l-0.04,0.03
		c-0.06,0.08-0.13,0.14-0.21,0.19l-0.05,0.04c-0.05,0.08-0.11,0.14-0.2,0.19l-0.05,0.05c-0.04,0.08-0.11,0.14-0.19,0.19
		L505.12,276.63z"/>
	<path style="fill-rule:evenodd;clip-rule:evenodd;fill:#F6E7A9;" d="M444.71,259.36c0.67,0.67,0.62,0.05,0.69-0.38
		c0.26-1.81,0.56-3.61,0.76-5.42c0.35-3.16,2.18-5.5,4.24-7.69c0.61-0.65,1.11-1.45,1.96-1.86c0.31,0.74-0.19,1.18-0.59,1.67
		c-1.32,1.58-2.82,3.02-3.79,4.9c-1.12,2.17-0.99,4.56-1.39,6.86c-0.41,2.33-0.02,4.53,1.32,6.5c0.72,1.06,1.33,2.18,1.8,3.37
		c0.17,0.44,0.42,0.87,0.25,1.38c-0.38,0.77-0.8,0.6-1.25,0.07c-0.18-1.44-1.06-2.56-1.75-3.76c-0.34-0.59-0.65-1.19-0.99-1.77
		c-0.08-0.13-0.05-0.31-0.18-0.42c0.04,0.17-0.02,0.31-0.15,0.42C445.32,261.93,445.02,260.65,444.71,259.36z"/>
	<path style="fill-rule:evenodd;clip-rule:evenodd;fill:#0D3C1E;" d="M467.01,242.06c-0.36,0.01-0.72,0.01-1.07,0.04
		c-0.51,0.04-1.14,0.57-1.49-0.09c-0.33-0.63,0.39-0.96,0.73-1.36c1.76-2.08,3.96-3.47,6.63-4.08c0.18,0.21,0.19,0.46,0.07,0.67
		c-0.64,1.14-1.17,2.34-1.92,3.43C469.22,241.75,468.2,242.04,467.01,242.06z"/>
	<path style="fill-rule:evenodd;clip-rule:evenodd;fill:#802360;" d="M472.78,301.57c-1.69,0.07-2.01-0.27-1.63-1.91
		c0.19-0.81,0.45-1.63,0.87-2.34c1.24-2.1,1.08-4.63,2.18-6.75c0.4,0.28,0.53,0.71,0.55,1.15c0.14,2.8,0.06,5.58-0.79,8.29
		C473.75,300.64,473.48,301.27,472.78,301.57z"/>
	<path style="fill-rule:evenodd;clip-rule:evenodd;fill:#E478AF;" d="M491.04,302.32c1.23,0.25,1.97-0.53,2.04-1.48
		c0.23-3.17-0.23-6.21-2.66-8.6c-0.34-0.33-0.7-0.51-1.17-0.52c0.67-0.15,1.35-0.29,2.02-0.44c0.91-0.01,1.32,0.69,1.71,1.32
		c1.56,2.56,1.96,5.38,1.66,8.31c-0.08,0.83-0.4,1.64-1.23,2.09C492.36,303.67,491.52,303.59,491.04,302.32z"/>
	<path style="fill-rule:evenodd;clip-rule:evenodd;fill:#8C286A;" d="M496.54,290.76c0.91,0.39,1.82,0.79,2.74,1.16
		c0.31,0.13,0.52,0.24,0.61,0.63c0.6,2.7,1.94,5.11,3.04,7.62c-0.79,0.32-1.32-0.17-1.75-0.67c-1.93-2.24-3.41-4.78-4.72-7.42
		C496.26,291.66,496.1,291.17,496.54,290.76z"/>
	<path style="fill-rule:evenodd;clip-rule:evenodd;fill:#F9B23B;" d="M452.82,247.62c-0.41-0.32-0.71-0.13-1.03,0.18
		c-3.56,3.53-4.54,10.65-2.43,14.43c0.26,0.47,0.44,1.04,1.06,1.21c0.26,0.36,0.13,0.77,0.12,1.15c0,0.33,0.21,0.83-0.18,0.97
		c-0.5,0.18-0.74-0.33-1-0.67c-2.17-2.85-2.54-6.1-2.05-9.51c0.15-1.06,0.18-2.14,0.5-3.17c0.7-2.22,2.06-4.01,3.75-5.58
		c0.28-0.26,0.6-0.57,1.04-0.22C452.68,246.82,452.75,247.22,452.82,247.62z"/>
	<path style="fill-rule:evenodd;clip-rule:evenodd;fill:#EE5B26;" d="M450.18,273.99c-0.14-1.25-1.34-0.4-1.84-0.93
		c-0.17-0.15-0.2-0.31-0.01-0.47c0.38-0.57-0.21-0.55-0.46-0.75c-0.22-0.16-0.22-0.31,0-0.47c1.03-0.51,2.34-0.57,2.89-1.86
		c0.08-0.18,0.45-0.44,0.52-0.12c0.38,1.68,1.15,0.25,1.73,0.26c0.29-0.06,0.4,0.06,0.35,0.34c-0.01,0.47,0.16,0.89-0.47,1.26
		c-0.83,0.49-0.68,2.05,0.11,2.62c0.16,0.12,0.33,0.23,0.48,0.35c0.25,0.19,0.66,0.4,0.44,0.73c-0.22,0.34-0.6,0.08-0.83-0.12
		c-0.76-0.67-1.62-0.8-2.56-0.55C450.25,274.38,450.15,274.26,450.18,273.99z"/>
	<path style="fill-rule:evenodd;clip-rule:evenodd;fill:#E96839;" d="M488.08,276.88c0.35,0.33,0.72,0.64,1.04,0.99
		c1.37,1.52,1.21,2.11-0.75,2.86c-1.51,0.36-2.75-0.17-3.73-1.27c-1.09-1.21-0.46-2.86,1.16-3.13c0.71-0.11,1.43-0.14,2.07,0.3
		l0.03,0.03C487.96,276.72,488.03,276.8,488.08,276.88z"/>
	<path style="fill-rule:evenodd;clip-rule:evenodd;fill:#F9C55E;" d="M452.6,246.43c-2.41,1.43-3.86,3.63-4.52,6.26
		c-0.6,2.37-0.75,4.85-0.51,7.3c0.19,1.96,1.36,3.52,2.33,5.15c0.07,0.12,0.26,0.25,0.37,0.23c0.27-0.05,0.16-0.32,0.17-0.49
		c0.01-0.48-0.01-0.96-0.01-1.43c0.07-0.33,0.14-0.65,0.21-0.98c0.03,1.58-0.15,3.18,0.39,4.72c0.19,0.55-0.19,0.79-0.57,1.02
		c-0.28-0.12-0.42-0.36-0.54-0.62c-0.6-1.35-1.35-2.62-2.14-3.86c-1.49-2.33-1.5-4.92-1.09-7.52c0.14-0.9,0.21-1.82,0.34-2.72
		c0.34-2.31,1.45-4.19,2.95-5.89c0.47-0.54,1-1.03,1.47-1.57c0.28-0.32,0.59-0.68,1.11-0.56
		C452.58,245.78,452.59,246.1,452.6,246.43z"/>
	<path style="fill-rule:evenodd;clip-rule:evenodd;fill:#B53B8B;" d="M499.65,302.08c-2.15-3.13-3.31-6.75-4.98-10.11
		c-0.38-0.76-0.74-1.04-1.51-0.9c-0.2,0.12-0.37,0.1-0.5-0.09c0.8-0.28,1.62-0.12,2.43-0.15c1.08,1.1,1.52,2.58,2.27,3.88
		c1.3,2.24,2.55,4.48,4.58,6.18c0.26,0.22,0.62,0.48,0.38,0.89c-0.16,0.28-0.46,0.23-0.73,0.06
		C500.94,301.92,500.29,302,499.65,302.08z"/>
	<path style="fill-rule:evenodd;clip-rule:evenodd;fill:#681E12;" d="M475.66,320.08c-0.97-0.78-0.52-1.86-0.45-2.76
		c0.15-1.98,0.02-4.02,1.01-5.88c0.32-0.6,1.02-0.91,1.1-1.65c1.49,0.02,1.68,0.74,1.16,2c-0.78,1.91-1.5,3.85-2.18,5.79
		C476.01,318.39,475.86,319.24,475.66,320.08z"/>
	<path style="fill-rule:evenodd;clip-rule:evenodd;fill:#046C36;" d="M488.55,246.41c-0.22-0.01-0.44-0.01-0.67-0.02
		c-0.43-0.49-0.26-1.01,0.04-1.42c1.39-1.85,2.54-3.83,3.32-6.01c0.04-0.11,0.16-0.18,0.26-0.23c0.31,0.32,0.61,0.65,0.92,0.97
		c0.05,0.32,0.03,0.64-0.06,0.95c-0.45,1.51-0.58,3.04-0.3,4.6c0.08,0.43,0.05,0.88-0.05,1.31c-0.1,0.39-0.2,0.82-0.78,0.59
		c-0.64-0.17-1.28-0.34-1.92-0.52C489.1,246.43,488.78,246.6,488.55,246.41z"/>
	<path style="fill-rule:evenodd;clip-rule:evenodd;fill:#F8D785;" d="M452.56,245.46c-5.25,3.83-6.08,9.36-5.63,15.24
		c0.14,1.88,1.48,3.49,2.47,5.12c0.46,0.76,0.82,1.54,1.06,2.39c-0.17,0.16-0.33,0.32-0.5,0.48c-0.76-1.84-1.67-3.59-2.74-5.27
		c-1.47-2.31-0.97-4.86-0.86-7.41c0.2-4.5,2.42-7.86,5.47-10.86c0.32-0.32,0.59-0.65,0.54-1.14l0,0c0.07-0.08,0.14-0.08,0.21,0.01
		C452.57,244.49,452.56,244.97,452.56,245.46z"/>
	<path style="fill-rule:evenodd;clip-rule:evenodd;fill:#F28E6C;" d="M483.33,264.01c0.51,1.76,0.95,3.52,0.72,5.38
		c-0.03,0.26,0.1,0.63-0.25,0.71c-0.16,0.03-0.38-0.23-0.57-0.35c-1.16-0.73-2.1-1.65-2.52-2.98c-0.31-0.96,0.06-1.96-0.01-2.95
		c-0.02-0.31,1.37-0.08,2.1-0.16C483.14,263.54,483.4,263.53,483.33,264.01z"/>
	<path style="fill-rule:evenodd;clip-rule:evenodd;fill:#D361A4;" d="M492.65,290.98c0.17,0.03,0.34,0.06,0.5,0.09
		c1.16,2.17,2.04,4.44,2.52,6.87c0.31,1.56-0.01,3.08-0.11,4.61c-0.72,0.16-1.44,0.31-2.16,0.47c1.9-3.69,0.89-9.24-2.14-11.72
		C491.66,290.9,492.17,290.99,492.65,290.98z"/>
	<path style="fill-rule:evenodd;clip-rule:evenodd;fill:#913B22;" d="M476.15,309.27c-1.09,0.62-1.27,1.74-1.46,2.8
		c-0.43,2.36-0.68,4.77-1.91,6.92c-0.19,0.33-0.19,0.76-0.27,1.14c-0.16-0.11-0.32-0.22-0.48-0.33c-0.08-0.06-0.16-0.12-0.23-0.19
		c-0.25-0.1-0.5-0.26-0.76-0.29c-1.12-0.11-1.35-0.68-0.92-1.65c0.2-0.19,0.41-0.37,0.67-0.49c1.58-0.72,2.23-2.01,2.36-3.68
		c0.13-1.67,0.63-3.26,1.12-4.85c0.1-0.34,0.24-0.68,0.64-0.8C475.33,308.33,475.74,308.8,476.15,309.27z"/>
	<path style="fill-rule:evenodd;clip-rule:evenodd;fill:#1272B6;" d="M475.41,274.24c-1.78,2.26-4.15,3.55-6.92,4.17
		c-0.42,0.09-0.85,0.13-1.28,0.19l0.01-0.02c-0.06-0.12-0.16-0.19-0.28-0.23c-0.58-0.06-0.68-0.47-0.71-0.95
		c0.13-0.24,0.36-0.33,0.6-0.33c1.79,0.01,3.28-0.87,4.83-1.57c2.17-0.98,2.84-2.61,2.1-4.87c1.06-0.7,1.76-0.4,1.84,0.91
		C475.66,272.43,475.72,273.36,475.41,274.24z"/>
	<path style="fill-rule:evenodd;clip-rule:evenodd;fill:#A4317C;" d="M501.58,301.84c0.84-0.03,0.66-0.25,0.17-0.68
		c-3.19-2.82-4.94-6.58-6.68-10.34c0.48-0.2,0.96-0.44,1.47-0.06c0.31,2.47,1.98,4.25,3.19,6.25c0.79,1.3,1.51,2.73,3.19,3.15
		c0.18,0.48,0.87,0.95,0.36,1.46C502.88,302.04,502.22,302.31,501.58,301.84z"/>
	<path style="fill-rule:evenodd;clip-rule:evenodd;fill:#E276AE;" d="M480.44,290.56c-0.57,0.1-0.47,0.55-0.48,0.93
		c-0.08,2.91-0.19,5.82-0.22,8.73c-0.01,0.76-0.79,1.62,0.21,2.3c-0.64-0.08-1.29-0.17-1.93-0.25c-0.21-0.14-0.5,0.03-0.69-0.19
		c-0.08-0.01-0.16-0.03-0.24-0.04c-0.02-0.08-0.06-0.18-0.02-0.23c1.77-2.71,0.98-5.78,1.24-8.7c0.08-0.89-0.28-1.89,0.68-2.54
		C479.47,290.43,479.95,290.14,480.44,290.56z"/>
	<path style="fill-rule:evenodd;clip-rule:evenodd;fill:#E66739;" d="M502.74,307.36c1.42,0.42,1.95,1.45,1.97,2.85
		c0.18,0.75,0.08,1.51,0.07,2.26c-0.01,1-0.62,1.41-1.58,1.14c-0.16-0.04-0.3-0.11-0.43-0.19c-1.23-0.73-2.18-3.93-1.5-5.18
		C501.58,307.67,501.93,307.08,502.74,307.36z"/>
	<path style="fill-rule:evenodd;clip-rule:evenodd;fill:#0C3F1F;" d="M493.4,241.12c1.53,1.91,2.19,4.2,2.83,6.49
		c0.14,0.52-0.17,0.71-0.66,0.71c-0.76,0-1.5-0.09-2.17-0.48c-0.68-1.83-0.98-3.73-0.99-5.66
		C492.41,241.69,492.48,240.92,493.4,241.12z"/>
	<path style="fill-rule:evenodd;clip-rule:evenodd;fill:#8D3B22;" d="M469.15,320.3c1.35-0.62,2.54-0.18,3.06,1.15
		c0.19,0.48,0.28,0.99,0.43,1.49c0.43,1.46-0.21,2.34-1.71,2.1c-0.92-0.15-1.83-0.09-2.73-0.22c-0.06-0.1-0.07-0.21-0.04-0.33
		C469.09,323.23,469.66,321.89,469.15,320.3z"/>
	<path style="fill-rule:evenodd;clip-rule:evenodd;fill:#F18B6A;" d="M490.74,253.61c0.45-1.02,1.37-0.72,2.17-0.78
		c1.02-0.08,2.33-0.86,2.94-0.25c0.56,0.55-0.51,1.73-0.68,2.69c-0.33,1.82-1.92,2.6-3.15,3.67c-0.64-0.62,0.15-1.35-0.16-1.99
		c0.08-0.59,0.57-0.8,1-1.06c0.19-0.11,0.59-0.1,0.53-0.36c-0.08-0.32-0.47-0.37-0.78-0.38c-0.31-0.01-0.43,0.31-0.67,0.43
		C491.17,255.14,491.23,254.21,490.74,253.61z"/>
	<path style="fill-rule:evenodd;clip-rule:evenodd;fill:#108540;" d="M491.51,238.72c-0.52,1.91-1.21,3.73-2.53,5.27
		c-0.58,0.68-1.22,1.38-1.1,2.4c-0.25-0.01-0.5-0.02-0.75-0.03c-0.39-0.19-0.84,0.04-1.22-0.18c0.49-1.5,1.23-2.89,1.98-4.26
		c0.59-1.08,1.22-2.11,1.52-3.33c0.16-0.66,0.51-1.24,1.33-0.59C491,238.24,491.26,238.48,491.51,238.72z"/>
	<path style="fill-rule:evenodd;clip-rule:evenodd;fill:#208CC9;" d="M473.76,270.64c1.24,0.69,0.75,1.81,0.48,2.69
		c-0.35,1.16-1.21,1.98-2.39,2.47c-1.81,0.77-3.54,1.8-5.62,1.61c-0.21-0.55-0.64-1.08-0.2-1.71c2.5,0.6,4.31-0.92,6.23-2.05
		c0.85-0.51,0.67-1.45,0.54-2.29C473.12,271.12,473.44,270.88,473.76,270.64z"/>
	<path style="fill-rule:evenodd;clip-rule:evenodd;fill:#932A6E;" d="M472.78,301.57c1.93-3.48,1.82-7.23,1.42-11.01
		c0.24-0.74-0.22-1.81,0.97-2.12c0.97,0.97,0.72,2.28,0.71,3.4c-0.02,2.38-0.06,4.79-0.62,7.14c-0.24,1.01-0.54,2.01-1.29,2.79
		C473.57,301.7,473.17,301.63,472.78,301.57z"/>
	<path style="fill-rule:evenodd;clip-rule:evenodd;fill:#A64627;" d="M504.63,315.53c-1.09,1.09-2.06,0.23-2.62-0.47
		c-2.24-2.76-3.8-5.74-1.89-9.38c0.64,0.4,1.27,0.8,1.91,1.19c-2.26,2.2-1.24,6.37,1.79,7.29c0.31,0.09,0.63,0.15,0.86,0.4
		C504.66,314.89,504.65,315.21,504.63,315.53z"/>
	<path style="fill-rule:evenodd;clip-rule:evenodd;fill:#E46739;" d="M470.15,315.28c-0.24-2.09-0.27-4.18-0.06-6.29
		c0.11-1.09,0.49-1.89,1.49-2.35c0.11-0.15,0.35-0.08,0.44-0.27l0.01-0.01c0.56,0.05,0.57,0.51,0.59,0.89
		c0.04,0.87,0.11,1.75-0.2,2.6c-0.46,1.28-0.8,2.56-0.78,3.95C471.65,314.88,471.14,315.28,470.15,315.28z"/>
	<path style="fill-rule:evenodd;clip-rule:evenodd;fill:#F07658;" d="M491.87,256.93c0.53,0.04,0.5,0.33,0.38,0.74
		c-0.13,0.4-0.16,0.84-0.23,1.26L492,258.9c-0.13,0.04-0.2,0.14-0.27,0.25l0.02-0.02c-0.11,0.06-0.18,0.16-0.26,0.25
		c-0.92,0.75-1.93,1.35-3.09,1.67c-0.69-0.14-1.39-0.23-2.05-0.44c-0.42-0.13-0.94-0.36-0.62-1.01c-0.02-0.58,0.5-0.54,0.83-0.67
		c1.52-0.59,3.06-1.13,4.5-1.92c0.16-0.06,0.32-0.1,0.49-0.12C491.66,256.86,491.77,256.88,491.87,256.93z"/>
	<path style="fill-rule:evenodd;clip-rule:evenodd;fill:#C27B2E;" d="M476.85,283.58c-0.16,0.74-0.28,1.66-0.58,2.52
		c-0.19,0.54-0.42,1.32-1.29,1.11c-0.83-0.19-1.43-0.57-1.29-1.64c0.12-0.96,0.24-1.9,0.6-2.79c0.16-0.4,0.29-1.11,0.93-0.8
		C475.86,282.3,476.9,282.28,476.85,283.58z"/>
	<path style="fill-rule:evenodd;clip-rule:evenodd;fill:#F48624;" d="M451.94,257.98c-2.14-2.78-1.71-6.12,1.2-9.24
		c0.23,0.5,0.47,1,0.7,1.49c-0.05,0.24-0.15,0.46-0.3,0.65c-1.27,1.65-1.28,3.46-0.68,5.35c-0.05,0.1-0.11,0.2-0.16,0.3
		c-0.03,0.04-0.06,0.08-0.08,0.12C452.4,257.1,452.17,257.54,451.94,257.98z"/>
	<path style="fill-rule:evenodd;clip-rule:evenodd;fill:#DB6EA9;" d="M485.55,283.08c1.14-0.11,1.42,0.91,1.88,1.57
		c0.32,0.45-0.29,0.4-0.55,0.42c-1.94,0.09-3.77-0.3-5.49-1.22c-0.9-0.98-1.23-3.63-0.58-4.7c0.2-0.33,0.44-0.57,0.87-0.38l0,0.01
		c0.02,0.14,0.12,0.2,0.23,0.25c0.14,0.17,0.28,0.34,0.43,0.51c0,0.16-0.04,0.32-0.05,0.47
		C482.02,282.7,482.91,283.54,485.55,283.08z"/>
	<path style="fill-rule:evenodd;clip-rule:evenodd;fill:#F18E6D;" d="M490.53,248.06c1.52,0.47,3.01,1.06,4.6,1.24
		c0.78,0.09,0.61,0.69,0.7,1.17c0.1,0.55-0.14,0.84-0.65,0.92c-0.9,0.15-1.81,0.28-2.71,0.41c-0.47,0.07-0.77-0.08-0.76-0.63
		c0.04-1.14-0.51-1.97-1.41-2.61c-0.09-0.07-0.16-0.16-0.27-0.21l-0.02,0C490.01,247.91,490.24,247.93,490.53,248.06z"/>
	<path style="fill-rule:evenodd;clip-rule:evenodd;fill:#DD2127;" d="M499.93,303.08c0.39,0,0.85-0.14,1.03,0.35
		c0.1,0.28,0.2,0.68,0.08,0.91c-0.26,0.48-0.7,0.13-1.07,0.07c-1.62-0.29-2.45,0.86-3.37,1.85c-0.26,0.28-0.36,0.85-0.81,0.78
		c-0.44-0.07-0.4-0.63-0.53-0.98c-0.76-2-0.61-2.31,1.46-2.65C497.78,303.24,498.86,303.19,499.93,303.08z"/>
	<path style="fill-rule:evenodd;clip-rule:evenodd;fill:#3DA7DB;" d="M472.8,271.36c0.81,0.93,0.63,2.08-0.72,2.89
		c-1.28,0.77-2.7,1.34-4.11,1.88c-0.65,0.25-1.42,0.27-1.94-0.43c0.17-0.15,0.32-0.4,0.52-0.45
		C469.04,274.6,470.96,273.03,472.8,271.36z"/>
	<path style="fill-rule:evenodd;clip-rule:evenodd;fill:#0B5229;" d="M467.01,242.06c3.1-0.52,3.55-3.35,4.79-5.49
		c0.87-0.2,1.7-0.57,2.62-0.5c0.3,0.39,0.08,0.73-0.2,0.92c-1.61,1.08-2.17,2.74-2.66,4.48c-0.11,0.38-0.23,0.76-0.49,1.07
		C469.74,242.22,468.4,241.98,467.01,242.06z"/>
	<path style="fill-rule:evenodd;clip-rule:evenodd;fill:#A5347C;" d="M473.96,301.77c1.32-2.97,1.45-6.15,1.57-9.32
		c0.05-1.35-0.09-2.68-0.36-4.01c0.41-0.01,0.85-0.19,1.19,0.21c0.32,0.35,0.37,0.78,0.37,1.23c0.01,2.9,0.1,5.81-0.51,8.67
		c-0.26,1.23-0.57,2.49-1.76,3.25C474.29,301.78,474.13,301.78,473.96,301.77z"/>
	<path style="fill-rule:evenodd;clip-rule:evenodd;fill:#D05FA0;" d="M478.98,290.57c-0.62,1.43-0.18,2.94-0.29,4.41
		c-0.13,1.62-0.07,3.25-0.22,4.87c-0.08,0.91-0.82,1.52-1.38,2.2c-0.33-0.01-0.66-0.02-0.99-0.02c-0.61-0.44-0.17-0.89,0.07-1.22
		c1.07-1.42,1.28-3.05,1.27-4.74c-0.01-1.63-0.02-3.26,0.11-4.89c0.04-0.52,0.05-1.06,0.75-1.14l0,0.02
		c0.04,0.14,0.15,0.21,0.28,0.24C478.72,290.38,478.85,290.47,478.98,290.57z"/>
	<path style="fill-rule:evenodd;clip-rule:evenodd;fill:#EF9ABF;" d="M485.27,265.85c-0.22-0.37-0.08-0.51,0.31-0.43
		c1.44,0.28,3.41,2.37,3.69,3.9c0.1,0.55-0.24,0.42-0.47,0.3c-1.04-0.52-2.02-0.93-3,0.19c-0.33,0.37-0.52,0.02-0.52-0.38
		C485.27,268.24,485.27,267.05,485.27,265.85z"/>
	<path style="fill-rule:evenodd;clip-rule:evenodd;fill:#EF6325;" d="M452.87,256.24c-1.34-1.49-0.84-4.57,0.97-5.99
		c0.03,0.02,0.08,0.04,0.1,0.07c1.54,2.16,1.54,2.16-0.06,4.46C453.54,255.26,453.2,255.75,452.87,256.24z"/>
	<path style="fill-rule:evenodd;clip-rule:evenodd;fill:#279F49;" d="M477.31,244.72c0.44-0.89-0.1-1.75-0.36-2.46
		c-0.75-2.04-0.69-3.97,0.12-5.93l-0.02-0.11c-0.03-0.07-0.08-0.13-0.14-0.17c-0.06-0.05-0.1-0.11-0.14-0.18
		c-0.05-0.09-0.03-0.15,0.06-0.2c0.48,0,0.96-0.01,1.44-0.02c0.27,0.35,0.08,0.69-0.04,1.02c-0.54,1.41-0.39,2.81-0.03,4.23
		c0.34,1.34,1.02,2.6,1.03,4.02C478.59,244.9,477.92,245.13,477.31,244.72z"/>
	<path style="fill-rule:evenodd;clip-rule:evenodd;fill:#B6418A;" d="M474.45,301.79c1.74-2.54,1.79-5.47,1.9-8.38
		c0.06-1.59,0.01-3.18,0.01-4.77c0.09,0.02,0.17,0.04,0.26,0.07c0.08,0.04,0.16,0.09,0.22,0.16c0.24,0.16,0.47,0.33,0.71,0.49
		c-0.15,3.21,0.16,6.44-0.56,9.6c-0.25,1.11-0.75,2.18-1.81,2.83C474.93,301.8,474.69,301.79,474.45,301.79z"/>
	<path style="fill-rule:evenodd;clip-rule:evenodd;fill:#FBEC06;" d="M480.23,284.65c-0.36,1.47-0.69,2.78-1.01,4.08
		c-0.09,0.35-0.36,0.52-0.6,0.28c-0.65-0.64-1.97-0.92-1.28-2.36c0.25-0.52,0.21-1.17,0.39-1.73c0.13-0.4-0.16-1.17,0.51-1.15
		c0.64,0.02,1.27,0.38,1.9,0.62C480.22,284.43,480.23,284.67,480.23,284.65z"/>
	<path style="fill-rule:evenodd;clip-rule:evenodd;fill:#8B3A21;" d="M506.14,324.6c-1.26-0.27-3.01,0.46-3.38-1.65
		c0.22-0.46,0.25-0.46,0.73-0.02c1.18-0.84,1.67-2.3,2.8-3.17c0.37-0.28,0.64-0.91,1.27-0.41c-0.58,1.42-1.26,2.82-0.78,4.45
		C506.93,324.28,506.57,324.51,506.14,324.6z"/>
	<path style="fill-rule:evenodd;clip-rule:evenodd;fill:#CA5830;" d="M504.67,314.56c-2.19-0.06-3.33-0.96-3.86-3.14
		c-0.27-1.1-0.71-2.2-0.24-3.37c0.28-0.68,0.66-1.18,1.46-1.18c0.24,0.16,0.48,0.32,0.72,0.48c-1.36,0.55-1.74,1.54-1.18,2.86
		c0.36,0.86,0.2,1.89,1,2.61c0.5,0.45,1,0.66,1.61,0.47c0.68-0.21,0.47-0.83,0.5-1.32c0.03-0.59,0.03-1.19,0.04-1.78
		C505.07,311.66,504.93,313.11,504.67,314.56z"/>
	<path style="fill-rule:evenodd;clip-rule:evenodd;fill:#269547;" d="M490.74,238.01c-0.9-0.37-0.95,0.36-1.13,0.89
		c-0.85,2.6-2.31,4.9-3.66,7.25c-0.87,0.35-0.99-0.15-0.64-0.71c0.89-1.4,1.29-2.98,1.84-4.51c0.37-1.01,0.79-2,0.89-3.08
		c0.04-0.47,0.27-0.83,0.76-0.96C489.55,237.1,490.33,237.24,490.74,238.01z"/>
	<path style="fill-rule:evenodd;clip-rule:evenodd;fill:#C95932;" d="M487.86,276.64c-0.43,0-0.88,0.04-1.3-0.01
		c-1.11-0.13-1.95,0.3-2.17,1.36c-0.21,1,0.62,1.62,1.38,1.99c0.8,0.39,1.72,0.51,2.6,0.75c-2.5,1.59-2.98,1.43-5.12-1.67
		c-0.05-1.85,0.58-2.94,1.97-3.46c0.59-0.22,1.16-0.3,1.73,0.05C487.25,275.98,487.55,276.31,487.86,276.64z"/>
	<path style="fill-rule:evenodd;clip-rule:evenodd;fill:#0C552C;" d="M493.4,241.12c-0.85,0.48-0.73,1.26-0.65,2.05
		c0.17,1.57,0.78,3.07,0.65,4.68c-0.77-0.1-1.5-0.31-2.16-0.71c0.98-0.82,0.49-1.89,0.36-2.81c-0.25-1.68,0.18-3.16,0.84-4.64
		C492.79,240.14,493.3,240.5,493.4,241.12z"/>
	<path style="fill-rule:evenodd;clip-rule:evenodd;fill:#EE553F;" d="M489.79,255.44l-0.01-0.09c-0.17-0.28,0.05-0.36,0.23-0.32
		c0.48,0.1,0.69,0.45,0.71,0.92c-0.01,0.12-0.04,0.24-0.09,0.35c-0.08,0.16-0.2,0.3-0.34,0.42c-1.05,0.74-2.23,1.16-3.45,1.54
		c-0.18,0.05-0.35,0.08-0.54,0.09c-0.13,0-0.25-0.02-0.37-0.07c-1.14-1.11-1.25-1.84-0.44-2.99c1.3-0.18,2.56,0.03,3.82,0.3
		C489.53,255.68,489.68,255.64,489.79,255.44z"/>
	<path style="fill-rule:evenodd;clip-rule:evenodd;fill:#A64627;" d="M474.91,307.86c-0.66,1.98-1.31,3.96-1.44,6.08
		c-0.13,2.01-1.4,3.38-3.34,3.74c0-0.25,0.01-0.49,0.02-0.74c0.13-0.38,0.29-0.71,0.71-0.89c1.04-0.43,1.45-1.34,1.55-2.36
		c0.19-2.02,0.88-3.94,1.02-5.96c0.03-0.46,0.15-0.98,0.83-0.88C474.48,307.19,474.69,307.53,474.91,307.86z"/>
	<path style="fill-rule:evenodd;clip-rule:evenodd;fill:#AF4D2C;" d="M469.15,320.3c0.98,0.89,0.54,1.95,0.21,2.89
		c-0.19,0.55-0.76,0.97-1.16,1.46c-1.1,0.25-2.21,0.13-3.31,0.08c-1.03-0.05-1.59-0.88-1.48-1.96c0.32-0.09,0.64-0.17,0.96-0.26
		c0.25,0.01,0.45,0.15,0.62,0.31c0.62,0.58,1.32,0.91,2.15,0.48c0.82-0.42,1.2-1.12,1.11-2.05c-0.01-0.12,0.01-0.24,0.04-0.35
		c0.03-0.11,0.08-0.21,0.15-0.3c0.07-0.04,0.14-0.06,0.22-0.08c0.09-0.05,0.17-0.1,0.25-0.15
		C468.99,320.35,469.07,320.32,469.15,320.3z"/>
	<path style="fill-rule:evenodd;clip-rule:evenodd;fill:#C35096;" d="M475.17,301.8c2.15-2.66,1.82-5.86,1.99-8.96
		c0.06-1.16-0.05-2.35,0.38-3.47c0.25,0.22,0.51,0.44,0.77,0.66c-0.84,0.86-0.37,1.95-0.48,2.92c-0.21,1.81,0.13,3.64-0.23,5.46
		c-0.18,0.93-0.57,1.7-1.08,2.47c-0.21,0.32-0.71,0.6-0.43,1.13C475.79,301.94,475.48,301.87,475.17,301.8z"/>
	<path style="fill-rule:evenodd;clip-rule:evenodd;fill:#5CAC57;" d="M482.55,245.47c1.11-0.07,1.92-0.7,2.26-1.67
		c0.7-1.96,1.27-3.98,1.83-5.99c0.14-0.48,0.08-1.03-0.21-1.5c0.33,0.04,0.7-0.07,0.96,0.24c0.62,0.34,0.56,0.91,0.46,1.47
		c-0.44,2.32-1.34,4.49-2.26,6.65c-0.27,0.64-0.69,1.28-1.57,1.26C483.54,245.79,483.05,245.63,482.55,245.47z"/>
	<path style="fill-rule:evenodd;clip-rule:evenodd;fill:#419F4D;" d="M484.03,245.94c2.05-1.45,2.07-3.93,2.95-5.96
		c0.46-1.05,0.94-2.2,0.42-3.42c0.47,0.11,0.94,0.21,1.42,0.32c-0.6,1.83-1.24,3.64-1.78,5.49c-0.32,1.08-0.69,2.1-1.36,3.01
		c-0.25,0.34-0.65,0.82,0.28,0.77c0.39,0.07,0.83-0.11,1.17,0.21C486.08,246.4,485.01,246.47,484.03,245.94z"/>
	<path style="fill-rule:evenodd;clip-rule:evenodd;fill:#EB693B;" d="M493.92,288.14c-0.07-0.03-0.16-0.04-0.22-0.09
		c-0.68-0.59-1.72-1.09-1.6-2.07c0.12-0.93,1.24-1.1,2.04-1.43c0.06-0.08,0.14-0.14,0.23-0.19l0.05-0.04
		c0.21-0.18,0.43-0.17,0.64-0.02l0.04,0.03c0.07,0.07,0.15,0.13,0.22,0.2l0.02,0.02C496.3,286.25,495.68,287.82,493.92,288.14z"/>
	<path style="fill-rule:evenodd;clip-rule:evenodd;fill:#F06E51;" d="M466.09,253.6c0.55,0.52,1.95,0.98,0.11,1.68
		c-0.25,0.09-0.01,0.33,0.07,0.49c-0.16,0.74-0.21,1.47,0.29,2.12c0.1,0.35,0.03,0.67-0.1,1c-0.09,0.16-0.2,0.28-0.41,0.22
		c-0.78-0.46-1.39-1.1-1.95-1.8c-0.03-0.15-0.13-0.27-0.25-0.35l0,0.03c0.21-0.89,0.46-1.76,0.92-2.57
		C465.08,253.9,465.43,253.53,466.09,253.6z"/>
	<path style="fill-rule:evenodd;clip-rule:evenodd;fill:#5DB057;" d="M480.21,235.62c-1.15,1.41-1.48,2.94-0.73,4.66
		c0.38,0.87,0.64,1.77,0.8,2.73c0.19,1.12,0.91,2.01,2.07,2.4c-0.72-0.15-1.44-0.3-2.15-0.45c-0.23-0.15-0.52-0.28-0.62-0.55
		c-0.8-2.04-1.68-4.07-1.61-6.33c0.02-0.61,0.25-1.17,0.52-1.71C478.85,235.63,479.36,235.24,480.21,235.62z"/>
	<path style="fill-rule:evenodd;clip-rule:evenodd;fill:#BC512D;" d="M474.26,306.86c-0.37,0.16-0.49,0.45-0.54,0.84
		c-0.31,2.1-0.69,4.19-0.97,6.29c-0.21,1.61-1.45,2.23-2.61,2.96c0-0.32-0.01-0.64-0.01-0.95c0.17-0.39,0.56-0.55,0.86-0.81
		c0.43-0.38,0.73-0.82,0.7-1.45c-0.06-1.01,0.15-1.98,0.47-2.94c0.39-1.19,0.58-2.4,0.5-3.65c-0.03-0.52-0.04-1.05,0.34-1.48
		c0.77-0.37,0.72,0.39,0.98,0.71c0.07,0.08,0.13,0.16,0.19,0.24C474.19,306.71,474.22,306.78,474.26,306.86z"/>
	<path style="fill-rule:evenodd;clip-rule:evenodd;fill:#328FCD;" d="M506.1,274.06c-2.89,1.95-6.97-0.35-7.84-3.43
		c-0.04-0.14,0.13-0.34,0.2-0.51c0.08,0.04,0.17,0.07,0.25,0.11c0.07,0.04,0.14,0.09,0.2,0.14c0.4,0.24,0.81,0.49,1.21,0.73
		c0.49,1.46,1.72,1.95,3.04,2.28c0.49,0.12,1.01,0.16,1.53,0.14C505.16,273.7,505.63,273.88,506.1,274.06z"/>
	<path style="fill-rule:evenodd;clip-rule:evenodd;fill:#7E321D;" d="M475.58,324.67c-0.58-0.19-1.55,0.26-1.62-0.36
		c-0.11-0.88,0.72-1.61,1.2-2.37c0.28-0.44,0.76-0.87,1.29-0.62c1.13,0.54,0.88,1.67,0.84,2.6
		C477.23,325.23,476.13,324.37,475.58,324.67z"/>
	<path style="fill-rule:evenodd;clip-rule:evenodd;fill:#671C11;" d="M476.11,270.4c-0.4-1.17,0.88-3.53,2.05-3.55
		c1.02-0.02,1.42,1,2.05,1.62C479.16,269.78,477.88,270.62,476.11,270.4z"/>
	<path style="fill-rule:evenodd;clip-rule:evenodd;fill:#792719;" d="M476.11,270.4c1.57-0.2,2.81-1.12,4.09-1.93
		c0.32,0.32,0.64,0.63,0.96,0.95c-0.67,1.63-2.06,2.18-3.65,2.43C477.04,271.36,476.57,270.88,476.11,270.4z"/>
	<path style="fill-rule:evenodd;clip-rule:evenodd;fill:#B03B86;" d="M477.75,275.63c0.09-0.28-0.09-0.69,0.27-0.84
		c0.4-0.17,0.52,0.25,0.7,0.47c0.5,0.59,0.99,1.19,1.49,1.79c0.49,0.87,0.18,1.79,0.1,2.67c-0.11,1.11,0.05,2.29-0.58,3.32
		c-0.32-0.16-0.64-0.31-0.96-0.47c-0.29-0.33-0.31-0.72-0.25-1.13c0.29-1.85,0.14-3.65-0.7-5.36
		C477.74,275.95,477.71,275.79,477.75,275.63z"/>
	<path style="fill-rule:evenodd;clip-rule:evenodd;fill:#057439;" d="M496.05,259.11c-0.08-1.79-0.08-3.58,0.71-5.26
		c0.23-0.38,0.28-0.83,0.49-1.22l0,0.01c0.46-0.25,0.59,0.03,0.58,0.4c-0.02,0.75,0.12,1.51-0.09,2.26
		c0.03,1.48-0.39,2.88-0.76,4.29c-0.15,0.2-0.08,0.64-0.46,0.57C495.87,260.07,496.36,259.4,496.05,259.11z"/>
	<path style="fill-rule:evenodd;clip-rule:evenodd;fill:#F4F1BE;" d="M445.63,263.22c0.1-0.17,0.1-0.78,0.31-0.44
		c1.11,1.81,2.48,3.49,3.01,5.6c0.02,0.1-0.16,0.25-0.24,0.37c-2.74-0.36-2.31-2.74-2.86-4.49c-0.11-0.26-0.01-0.57-0.17-0.82
		C445.61,263.38,445.59,263.3,445.63,263.22z"/>
	<path style="fill-rule:evenodd;clip-rule:evenodd;fill:#41A74F;" d="M480.21,235.62c-1.15,0.07-1.97,1.1-1.91,2.75
		c0.08,2.34,0.94,4.49,1.89,6.59c-0.32-0.01-0.64-0.02-0.96-0.04c-0.86-2.14-1.71-4.27-1.71-6.66c0-0.99,0.53-1.74,0.76-2.61
		c0.71-0.34,1.42-0.4,2.15-0.07C480.36,235.6,480.28,235.61,480.21,235.62z"/>
	<path style="fill-rule:evenodd;clip-rule:evenodd;fill:#056F36;" d="M476.84,235.67c0,0.06,0,0.11,0,0.17
		c-0.38,0.63-0.93,1.1-1.54,1.46c-1.57,0.91-2.39,2.28-2.65,4.04c-0.08,0.54-0.04,1.14-0.61,1.48c-0.32-0.09-0.63-0.18-0.95-0.27
		c0.36-2.07,0.75-4.12,2.6-5.47c0.36-0.26,0.74-0.48,0.75-0.99l0.01-0.01c0.14-0.13,0.34-0.09,0.48-0.2
		C475.56,235.8,476.2,235.73,476.84,235.67z"/>
	<path style="fill-rule:evenodd;clip-rule:evenodd;fill:#EB84B4;" d="M485.55,283.08c-1.02,0.92-2.03,0.71-2.96-0.1
		c-0.88-0.77-0.97-2.5-0.26-3.44l0.02,0.03c0.08,0.04,0.14,0.1,0.17,0.19c0.91,1.04,1.82,2.07,2.73,3.11
		c0.07,0.1,0.13,0.21,0.28,0.21H485.55z"/>
	<path style="fill-rule:evenodd;clip-rule:evenodd;fill:#0A823E;" d="M472.03,242.81c0.35-1.2,0.3-2.52,0.92-3.65
		c0.88-1.59,2.49-2.33,3.89-3.32c0.08,0.01,0.17,0.01,0.25,0.02c0.13,0.15,0.12,0.31,0,0.46l-0.01,0.01
		c-0.78,0.66-1.56,1.32-2.34,1.97c-1.58,1.33-1.57,3.16-1.52,4.99C472.76,243.28,472.35,243.14,472.03,242.81z"/>
	<path style="fill-rule:evenodd;clip-rule:evenodd;fill:#D35C33;" d="M472.99,305.67c0.49,2.96-0.95,5.7-1.04,8.61
		c-0.03,0.91-0.98,1.38-1.83,1.72c0-0.24,0.01-0.48,0.02-0.72c0.58-0.08,1.14-0.52,1.08-0.95c-0.32-2.44,1.34-4.56,1.06-6.97
		c-0.04-0.35,0.05-0.72-0.26-1c0.16-0.15,0.33-0.3,0.49-0.46c0.07-0.06,0.15-0.11,0.23-0.15
		C472.83,305.73,472.91,305.7,472.99,305.67z"/>
	<path style="fill-rule:evenodd;clip-rule:evenodd;fill:#0A723A;" d="M499.68,252.86c1.62,1.35,1.91,3.31,2.33,5.2
		c0.11,0.49,0.07,1,0.1,1.51c-0.2,0.06-0.33-0.08-0.48-0.18c-1.45-1.92-1.54-4.31-2.24-6.48
		C499.48,252.81,499.57,252.79,499.68,252.86z"/>
	<path style="fill-rule:evenodd;clip-rule:evenodd;fill:#812D1C;" d="M500.36,291.04c-1.03,0.12-1.85-0.38-2.65-0.92
		c-0.07-1.42,0.66-2.9,1.67-3.34c0.09,0.06,0.18,0.12,0.27,0.19c0.06,0.08,0.13,0.09,0.22,0.05c0.32,0.15,0.64,0.31,0.97,0.46
		c0.12,0.29,0,0.55-0.15,0.77C500.07,289.12,500.25,290.08,500.36,291.04z"/>
	<path style="fill-rule:evenodd;clip-rule:evenodd;fill:#C45496;" d="M479.72,283.05c0.16-2,0.33-3.99,0.49-5.99
		c0.52,0.54,1.14,0.98,1.47,1.69c-1.29,0.64-0.71,1.86-0.77,2.82c-0.05,0.74,0.31,1.51,0.49,2.27
		C480.83,283.57,480.28,283.31,479.72,283.05z"/>
	<path style="fill-rule:evenodd;clip-rule:evenodd;fill:#9B4226;" d="M481.39,276.9c0.85-1.54,2.34-2.45,3.58-3.61
		c0.32,0.4,0.64,0.8,0.96,1.2c0,0.21-0.03,0.45-0.21,0.53c-1.34,0.58-2.2,1.66-2.95,2.85c-0.08,0.13-0.26,0.18-0.42,0.2
		C481.88,277.81,481.62,277.37,481.39,276.9z"/>
	<path style="fill-rule:evenodd;clip-rule:evenodd;fill:#C95932;" d="M511.65,322.24c0.79,1.8,0.38,2.26-2.17,2.45
		c-0.06-0.02-0.12-0.04-0.18-0.06c-1.62-1.2-1.91-2.79-0.71-3.97c0.38-0.38,0.79-0.67,1.35-0.34c0.52,0.29,1.08,0.52,1.24,1.19
		c-0.29,0.18-0.53-0.07-0.8-0.08c-0.47-0.03-0.75,0.24-0.9,0.64c-0.17,0.43,0,0.79,0.37,1.04c0.37,0.26,0.75,0.21,1.1-0.07
		C511.22,322.81,511.32,322.43,511.65,322.24z"/>
	<path style="fill-rule:evenodd;clip-rule:evenodd;fill:#9C4226;" d="M506.14,324.6c0.4-0.29,0.41-0.62,0.3-1.11
		c-0.33-1.55-0.12-3,1.13-4.14c0.52,0.04,1.01,0.16,1.44,0.48c-0.07,0.24-0.27,0.39-0.43,0.56c-1.52,1.71-1.18,3.31,0.89,4.22
		l0,0.07C508.35,325.16,507.25,324.51,506.14,324.6z"/>
	<path style="fill-rule:evenodd;clip-rule:evenodd;fill:#BB4496;" d="M491.48,271.11c-0.65-1.23-1.31-2.45-1.95-3.69
		c-0.08-0.16-0.2-0.43-0.13-0.52c0.18-0.23,0.43-0.08,0.64,0.03c0.53,0.27,1.05,0.57,1.6,0.79c0.94,0.38,0.95,1.01,0.63,1.83
		c-0.18,0.47-0.19,1.01-0.28,1.52C491.83,271.26,491.66,271.26,491.48,271.11z"/>
	<path style="fill-rule:evenodd;clip-rule:evenodd;fill:#892767;" d="M477.81,282.12c-1.63-0.24-1.87-1.21-1.33-2.57
		c0.32-0.8,0.32-1.7,0.83-2.43c0.25,0.04,0.44,0.19,0.58,0.38C478.65,278.52,478.6,281.14,477.81,282.12z"/>
	<path style="fill-rule:evenodd;clip-rule:evenodd;fill:#9E2F77;" d="M477.81,282.12c0.3-1.71,0.61-3.42-0.49-5
		c0.15-0.49,0.29-0.99,0.44-1.48c1.46,1.71,1.35,3.73,1.14,5.77c-0.04,0.39-0.08,0.79-0.13,1.18
		C478.45,282.42,478.13,282.27,477.81,282.12z"/>
	<path style="fill-rule:evenodd;clip-rule:evenodd;fill:#F4E511;" d="M488.88,289.01c0-0.32,0.03-0.64,0-0.95
		c-0.08-0.77,0.83-0.76,1.01-1.32c0.51,0.19,0.39,0.71,0.52,1.08c0.18,0.52,0.23,1.08,0.33,1.62c0.15,0.76,0.04,1.26-0.92,1.36
		c-1.07,0.11-0.91-0.58-0.95-1.19c-0.01-0.2,0-0.4,0-0.59C488.87,289.01,488.88,289.01,488.88,289.01z"/>
	<path style="fill-rule:evenodd;clip-rule:evenodd;fill:#F0E212;" d="M494.52,280.24c-1.05-2.04-1.09-4.29-1.34-6.49
		c-0.07-0.59-0.12-1.19-0.16-1.79c-0.02-0.37-0.3-0.95,0.2-1.04c0.6-0.11,0.41,0.56,0.45,0.88c0.17,1.38,0.31,2.78,0.4,4.17
		c0.09,1.48,0.49,2.87,1.06,4.23C494.94,280.39,494.73,280.39,494.52,280.24z"/>
	<path style="fill-rule:evenodd;clip-rule:evenodd;fill:#913E24;" d="M463.41,322.76c0.37,1.28,1.11,2.02,2.55,1.89
		c0.74-0.07,1.49-0.01,2.24-0.01c0,0.06,0,0.11,0,0.17c-1.28,0.04-2.57,0.07-3.85,0.11c-1.18,0.17-2.37,0.04-3.55,0.07
		c-0.39,0.01-0.75-0.05-0.52-0.59C461.32,323.85,462.37,323.31,463.41,322.76z"/>
	<path style="fill-rule:evenodd;clip-rule:evenodd;fill:#8F3B23;" d="M499.38,286.77c-1.01,0.89-1.1,2.24-1.67,3.34
		c-0.48-0.23-0.96-0.45-1.45-0.68c-0.07-1.38,0.63-2.42,1.46-3.42C498.27,286.27,498.83,286.52,499.38,286.77z"/>
	<path style="fill-rule:evenodd;clip-rule:evenodd;fill:#EC7456;" d="M466.06,259.11c0.07-0.08,0.15-0.16,0.22-0.24
		c1.4-0.46,3.61,0.04,4.3,0.97c0.3,1.06-0.79,0.9-1.18,1.36C468.13,260.76,466.98,260.12,466.06,259.11z"/>
	<path style="fill-rule:evenodd;clip-rule:evenodd;fill:#F07254;" d="M485.51,255.27c-0.33,1.11-0.36,2.14,0.73,2.89
		c-0.29,0.69-0.77,0.91-1.46,0.6c-1.16-0.75-1.42-1.78-0.97-3.04C484.3,255.27,484.89,255.21,485.51,255.27z"/>
	<path style="fill-rule:evenodd;clip-rule:evenodd;fill:#EEDF13;" d="M461.53,257.72c-1.17,0.63-1.96-0.27-2.54-0.92
		c-0.59-0.67-0.97-1.71-0.38-2.66c0.12-0.2,0.21-0.39,0.28-0.6c0.18-0.48,0.39-1.23,0.93-1.01c0.55,0.22-0.12,0.71-0.23,1.08
		c-0.45,1.54-0.05,3.09,0.74,3.52c0.52,0.29,0.97-0.4,1.39,0.08C461.67,257.38,461.57,257.54,461.53,257.72z"/>
	<path style="fill-rule:evenodd;clip-rule:evenodd;fill:#702215;" d="M500.36,291.04c-1.12-1.36-0.24-2.45,0.47-3.57
		c0.64,0.19,1.02,0.53,0.98,1.28c-0.05,0.89-0.16,1.75-0.83,2.41C500.8,291.34,500.53,291.27,500.36,291.04z"/>
	<path style="fill-rule:evenodd;clip-rule:evenodd;fill:#E76638;" d="M511.65,322.24c-0.04,0.83-0.46,1.35-1.29,1.43
		c-0.7,0.06-1.12-0.4-1.31-1c-0.23-0.68,0.23-1.1,0.7-1.5c0.66-0.56,0.97,0.18,1.43,0.34C511.44,321.68,511.61,321.92,511.65,322.24
		z"/>
	<path style="fill-rule:evenodd;clip-rule:evenodd;fill:#B34D2B;" d="M482.36,278.07c0.74-1.64,2-2.77,3.58-3.58l0.03,0.02
		c0.08,0.05,0.14,0.12,0.19,0.19c0.26,0.31,0.52,0.63,0.79,0.94c-2.36,0.12-3.01,0.69-3.4,2.93c-0.03,0.17-0.19,0.32-0.29,0.48
		c-0.22-0.25-0.44-0.5-0.66-0.75c-0.07-0.08-0.14-0.16-0.21-0.23L482.36,278.07z"/>
	<path style="fill-rule:evenodd;clip-rule:evenodd;fill:#B24D2B;" d="M509.47,324.62c-1.41,0.36-1.79-0.66-2.09-1.64
		c-0.37-1.2,0.39-2.57,1.63-3.14c0.31,0.17,0.62,0.33,0.93,0.49c-1.79,0.42-2.37,2.16-1.17,3.49
		C509.01,324.08,509.24,324.35,509.47,324.62z"/>
	<path style="fill-rule:evenodd;clip-rule:evenodd;fill:#EC8E6F;" d="M454.42,272.76c0.85,0.15,1.6,0.33,2.18,0.84
		c0.68,0.6,0.27,1.11-0.21,1.62c-0.38,0.4-1.05,0.62-1.03,0.02c0.03-1.18-0.91-1.34-1.46-1.91c-0.08-0.09-0.1-0.41-0.06-0.42
		C454.05,272.82,454.28,272.79,454.42,272.76z"/>
	<path style="fill-rule:evenodd;clip-rule:evenodd;fill:#45A5DA;" d="M504.69,273.52c-1.62,0.86-4.04-0.63-4.9-1.96
		c-0.21-0.32,0.1-0.39,0.33-0.46C501.64,271.91,503.17,272.71,504.69,273.52z"/>
	<path style="fill-rule:evenodd;clip-rule:evenodd;fill:#C95931;" d="M468.43,320.8c0.48,1.26-0.05,2.2-1.1,2.78
		c-1.31,0.73-2.23-0.03-2.97-1.08c0.15-0.17,0.3-0.34,0.45-0.51c0.29,0.03,0.5,0.23,0.74,0.36c1.1,0.58,1.7,0.21,1.7-1.06
		c0.31-0.17,0.62-0.35,0.93-0.52C468.28,320.71,468.36,320.71,468.43,320.8z"/>
	<path style="fill-rule:evenodd;clip-rule:evenodd;fill:#ECA02D;" d="M445.61,278.56c0.45,1.33,1.7,1.48,2.78,1.87
		c0.44,0.16,0.87,0.32,1.31,0.48c0.2,0.14,0.15,0.28,0,0.43c-2.57,0.02-4.08-0.22-4.71-2.77
		C445.19,278.36,445.4,278.38,445.61,278.56z"/>
	<path style="fill-rule:evenodd;clip-rule:evenodd;fill:#F0A02B;" d="M455.94,282.21c-0.39-0.07-1.1,0.11-1.07-0.54
		c0.03-0.77,0.64-0.2,1-0.23c0.18-0.01,0.38-0.1,0.51-0.21c0.05-0.05,0-0.32-0.09-0.4c-0.3-0.28-0.88-0.6-0.39-0.97
		c0.38-0.28,1.09-0.3,1.57,0.06c0.46,0.35,0.56,0.83,0.21,1.37C457.31,281.87,456.74,282.2,455.94,282.21z"/>
	<path style="fill-rule:evenodd;clip-rule:evenodd;fill:#CD5C34;" d="M493.92,288.14c1.51-0.78,1.89-2.01,1.42-3.58
		c0.48,0.32,0.96,0.64,1.44,0.96c0.04,1.41-0.45,2.57-1.67,3.35l-0.04-0.01c-0.12-0.12-0.31-0.09-0.43-0.22
		C494.4,288.47,494.16,288.31,493.92,288.14z"/>
	<path style="fill-rule:evenodd;clip-rule:evenodd;fill:#AB4B2B;" d="M495.1,288.88c0.73-1.03,1.27-2.16,1.67-3.35
		c0.32,0.16,0.63,0.33,0.95,0.49c-0.49,1.14-0.97,2.28-1.46,3.42C495.87,289.25,495.49,289.06,495.1,288.88z"/>
	<path style="fill-rule:evenodd;clip-rule:evenodd;fill:#B87A35;" d="M493.32,290.08c-1.17,0-2.06-1.17-1.84-2.24
		c0.1-0.46,0.32-0.4,0.55-0.16c0.63,0.67,1.32,1.25,2.12,1.7c0.18,0.1,0.38,0.27,0.26,0.46
		C494.12,290.31,493.61,289.93,493.32,290.08z"/>
	<path style="fill-rule:evenodd;clip-rule:evenodd;fill:#ED6E51;" d="M490.54,256.26c-0.05-0.47,0.03-1.05-0.75-0.91
		c-1.38-1.51,0.77-1.08,0.96-1.74c1.04,0.26,0.87,1.22,1.12,1.94C491.6,256.3,491.47,256.37,490.54,256.26z"/>
	<path style="fill-rule:evenodd;clip-rule:evenodd;fill:#DE6438;" d="M467.26,321.28c0.75,0.28,0.58,0.84,0.23,1.21
		c-0.53,0.55-1.26,0.67-1.95,0.26c-0.29-0.17-0.48-0.51-0.72-0.77l0.02-0.01c0.08-0.06,0.17-0.13,0.24-0.21
		C465.8,321.61,466.53,321.45,467.26,321.28z"/>
	<path style="fill-rule:evenodd;clip-rule:evenodd;fill:#F0F0F1;" d="M447.53,277.13c0.09,0.48,0.3,0.83,0.85,0.81
		c1.01-0.03,0.68,1.42,1.62,1.45c-0.06,0.09-0.13,0.26-0.18,0.26c-0.91-0.12-1.77-0.38-2.54-0.91c-0.68-0.47-0.3-1.05-0.18-1.61
		C447.24,276.98,447.39,276.98,447.53,277.13z"/>
	<path style="fill-rule:evenodd;clip-rule:evenodd;fill:#682618;" d="M501.8,323.61c-0.02,0.37,0.04,0.82-0.42,0.73
		c-0.48-0.1-1.31-0.07-1.17-0.83c0.08-0.47-0.21-1.44,0.59-1.4C501.52,322.14,501.58,323.07,501.8,323.61z"/>
	<path style="fill-rule:evenodd;clip-rule:evenodd;fill:#E89C2C;" d="M442.81,275.42c-0.23,0.5-0.67,0.7-1.14,0.77
		c-0.5,0.07-0.85-0.26-0.93-0.74c-0.08-0.52,0.31-0.73,0.74-0.7C442,274.79,442.51,274.9,442.81,275.42z"/>
	<path style="fill-rule:evenodd;clip-rule:evenodd;fill:#DF8D70;" d="M452.2,275.61c-0.62,0.35-1.22,0.71-1.83,1.04
		c-0.24,0.13-0.49,0.3-0.78,0.16c-0.06-0.03-0.11-0.12-0.11-0.19c-0.02-0.37,0.26-0.48,0.53-0.53c0.73-0.14,1.06-1.18,1.97-0.85
		C452.07,275.27,452.1,275.43,452.2,275.61z"/>
	<path style="fill-rule:evenodd;clip-rule:evenodd;fill:#CEC32B;" d="M496.93,283.78c0.06,0.42-0.11,0.6-0.39,0.51
		c-0.6-0.2-0.91-0.71-1.1-1.27c-0.07-0.21,0.15-0.45,0.31-0.4C496.37,282.82,496.58,283.44,496.93,283.78z"/>
	<path style="fill-rule:evenodd;clip-rule:evenodd;fill:#CD6031;" d="M453.53,275.49c1,0.28,0.58,1.39,1.14,1.93
		c-0.11,0.1-0.22,0.28-0.31,0.27c-0.17-0.03-0.41-0.12-0.48-0.26c-0.17-0.31-0.25-0.66-0.36-0.99
		C453.42,276.12,453.39,275.8,453.53,275.49z"/>
	<path style="fill-rule:evenodd;clip-rule:evenodd;fill:#C9846B;" d="M452.53,279.96c-0.52,0.03-0.68-0.12-0.63-0.4
		c0.12-0.63,0.7-0.88,1.14-1.2c0.17-0.13,0.38,0.13,0.27,0.33C453.07,279.17,452.75,279.62,452.53,279.96z"/>
	<path style="fill-rule:evenodd;clip-rule:evenodd;fill:#E0E1E2;" d="M460.3,255.16c0.05-0.34-0.01-0.67,0.29-0.89
		c0.3,0.48,0.64,0.93,0.88,1.44c0.12,0.25-0.19,0.45-0.42,0.43C460.44,256.09,460.36,255.6,460.3,255.16z"/>
	<path style="fill-rule:evenodd;clip-rule:evenodd;fill:#DA8A6E;" d="M452.5,277.43c-0.4,0.21-0.28,1.05-1.04,0.88
		c-0.2-0.05-0.6-0.01-0.44-0.34c0.21-0.45,0.55-0.88,1.13-0.9C452.35,277.07,452.54,277.13,452.5,277.43z"/>
	<path style="fill-rule:evenodd;clip-rule:evenodd;fill:#E9DA22;" d="M492.83,281.76c0.04,0.32-0.15,0.46-0.34,0.39
		c-0.58-0.2-0.93-0.7-1.29-1.15c-0.11-0.14-0.03-0.34,0.19-0.3C492.05,280.83,492.49,281.27,492.83,281.76z"/>
	<path style="fill-rule:evenodd;clip-rule:evenodd;fill:#696A6C;" d="M454.24,270.58c0.03-0.03,0.05-0.07,0.08-0.08
		c0.75-0.27,1.34-0.92,2.21-0.9c-0.35,0.96-1.39,0.79-2.04,1.25C454.39,270.79,454.25,270.75,454.24,270.58z"/>
	<path style="fill-rule:evenodd;clip-rule:evenodd;fill:#DCCE27;" d="M445.61,278.56c-0.21,0-0.41,0-0.62,0.01
		c-0.17-0.53,0.01-1,0.24-1.47c0.22-0.14,0.37-0.35,0.49-0.58c0.1-0.13,0.22-0.22,0.39-0.13
		C446.15,277.17,445.38,277.75,445.61,278.56z"/>
	<path style="fill-rule:evenodd;clip-rule:evenodd;fill:#282828;" d="M460.28,324.4c0.05,0.61,0.52,0.47,0.89,0.48
		c1.06,0.02,2.12,0.03,3.18,0.04c-1.26,0.43-2.55,0.13-3.82,0.17C460.04,325.11,459.92,324.79,460.28,324.4z"/>
	<path style="fill-rule:evenodd;clip-rule:evenodd;fill:#C6C7C9;" d="M515.17,296.46c0.03-0.14,0.07-0.29,0.1-0.43
		c0.59,0.43,1.22,0.97,1.12,1.71c-0.07,0.53-0.43,0.12-0.58-0.14C515.58,297.23,515.38,296.84,515.17,296.46z"/>
	<path style="fill-rule:evenodd;clip-rule:evenodd;fill:#6E2A1C;" d="M503.49,322.94c-0.24-0.02-0.5-0.34-0.73,0.02
		c-0.36-0.34-0.34-0.7-0.01-1.03c0.18-0.19,0.44-0.19,0.66-0.05C503.92,322.18,503.45,322.58,503.49,322.94z"/>
	<path style="fill-rule:evenodd;clip-rule:evenodd;fill:#EDDF1C;" d="M490.48,285.3c-0.78,0.07-1.27-0.37-1.69-0.94
		c-0.02-0.09-0.04-0.18-0.05-0.27c0.04-0.1,0.1-0.13,0.19-0.06c0.52,0.25,1.04,0.5,1.57,0.75
		C490.67,284.96,490.67,285.14,490.48,285.3z"/>
	<path style="fill-rule:evenodd;clip-rule:evenodd;fill:#E39D37;" d="M459.3,267.75c0.38,0.08,0.3,0.4,0.31,0.65
		c0.02,0.49-0.32,0.7-0.73,0.72c-0.34,0.02-0.34-0.29-0.25-0.5C458.76,268.27,458.84,267.85,459.3,267.75z"/>
	<path style="fill-rule:evenodd;clip-rule:evenodd;fill:#9E8661;" d="M487.65,287.72c0.17-1.13-0.21-1.7-1.45-1.49
		c-0.33,0.06-0.71,0.06-0.99-0.23c0.43,0,0.87,0.04,1.3-0.01C488.07,285.81,488.16,286.56,487.65,287.72z"/>
	<path style="fill-rule:evenodd;clip-rule:evenodd;fill:#CDC127;" d="M493.59,270.39c-0.32-0.1-0.38-0.41-0.4-0.64
		c-0.02-0.36,0.14-0.73,0.57-0.74c0.31-0.01,0.34,0.27,0.23,0.51C493.86,269.81,494.09,270.27,493.59,270.39z"/>
	<path style="fill-rule:evenodd;clip-rule:evenodd;fill:#E1D630;" d="M488.55,284.13c-0.38-0.41-0.97-0.67-0.99-1.34
		c0-0.04,0.14-0.14,0.17-0.12c0.57,0.3,0.91,0.81,1.2,1.37c-0.04,0.02-0.07,0.04-0.11,0.06
		C488.74,284.16,488.65,284.18,488.55,284.13z"/>
	<path style="fill-rule:evenodd;clip-rule:evenodd;fill:#B7B8BB;" d="M511.14,297.77c0.1,0.08,0.19,0.16,0.29,0.23
		c-0.46,0.67-0.87,1.38-1.74,1.59C509.88,298.75,510.76,298.46,511.14,297.77z"/>
	<path style="fill-rule:evenodd;clip-rule:evenodd;fill:#DED23E;" d="M494.52,280.24c0.2-0.01,0.41-0.03,0.61-0.04
		c0.17,0.42,0.34,0.84,0.51,1.26c-0.03,0.22-0.14,0.33-0.37,0.29C495.02,281.25,494.77,280.75,494.52,280.24z"/>
	<path style="fill-rule:evenodd;clip-rule:evenodd;fill:#4D654C;" d="M497.74,255.31c-0.26-0.87,0.5-1.93-0.49-2.66
		c0.38-0.41,0.68-0.29,0.68,0.21C497.93,253.68,498.18,254.53,497.74,255.31z"/>
	<path style="fill-rule:evenodd;clip-rule:evenodd;fill:#A9ABAE;" d="M513.59,297.24c0.15,0.01,0.3,0.01,0.46,0.02
		c-0.05,0.52,0.23,1.12-0.38,1.49C513.4,298.25,513.56,297.74,513.59,297.24z"/>
	<path style="fill-rule:evenodd;clip-rule:evenodd;fill:#6B6A63;" d="M447.53,273.31c-0.39,0.16-0.72,0.48-1.19,0.35
		c0.2-0.58,0.72-0.7,1.22-0.86c0.08,0.07,0.13,0.16,0.13,0.26C447.67,273.17,447.62,273.25,447.53,273.31z"/>
	<path style="fill-rule:evenodd;clip-rule:evenodd;fill:#646467;" d="M447.87,271.36c0,0.16,0,0.31,0,0.47
		c-0.44-0.1-1.16,0.31-1.26-0.32C446.56,271.25,447.41,271.37,447.87,271.36z"/>
	<path style="fill-rule:evenodd;clip-rule:evenodd;fill:#526A54;" d="M496.05,259.11c0.41-0.03-0.05,1.6,0.93,0.48
		c-0.01,0.38,0.01,0.96-0.46,0.87C495.78,260.33,496.13,259.6,496.05,259.11z"/>
	<path style="fill-rule:evenodd;clip-rule:evenodd;fill:#6E6F71;" d="M490.53,248.06c-0.18,0.09-0.35,0.18-0.53,0.28
		c-0.34-0.06-0.92-0.32-0.78-0.48C489.64,247.38,490.11,247.85,490.53,248.06z"/>
	<path style="fill-rule:evenodd;clip-rule:evenodd;fill:#CDCED0;" d="M449.7,281.34c0-0.14,0-0.29,0-0.43
		c0.15-0.04,0.3-0.12,0.45-0.12c0.28,0.01,0.75-0.19,0.78,0.15c0.03,0.36-0.48,0.26-0.76,0.33
		C450.01,281.32,449.85,281.32,449.7,281.34z"/>
	<path style="fill-rule:evenodd;clip-rule:evenodd;fill:#A0A2A5;" d="M489.33,282.15c0.03,0.03,0.06,0.05,0.08,0.09
		c0.21,0.42,0.88,0.56,0.74,1.2c-0.55-0.14-0.8-0.61-1.11-1.01C489,282.18,489.1,282.09,489.33,282.15z"/>
	<path style="fill-rule:evenodd;clip-rule:evenodd;fill:#DAD9CA;" d="M492.68,284.27c-0.15-0.01-0.51,0.19-0.4-0.1
		c0.18-0.46,0.54-0.92,1.07-1c0.24-0.04,0.1,0.29,0.03,0.45c-0.08,0.07-0.15,0.15-0.21,0.24l0.01-0.01
		c-0.1,0.07-0.19,0.15-0.25,0.25l0.01-0.01C492.86,284.15,492.77,284.21,492.68,284.27z"/>
	<path style="fill-rule:evenodd;clip-rule:evenodd;fill:#C06439;" d="M449.99,274.67c-0.28,0.19-0.71,0.54-0.86,0.12
		c-0.17-0.49,0.44-0.49,0.79-0.58C450.11,274.34,450.09,274.5,449.99,274.67z"/>
	<path style="fill-rule:evenodd;clip-rule:evenodd;fill:#C6C8C9;" d="M516.14,294.9c0.02-0.13,0.05-0.25,0.07-0.38
		c0.04,0.01,0.08,0.01,0.11,0.04c0.34,0.22,1.1,0.36,0.89,0.71C516.95,295.7,516.49,295.13,516.14,294.9z"/>
	<path style="fill-rule:evenodd;clip-rule:evenodd;fill:#E5D71C;" d="M446.11,276.4c-0.08,0.09-0.17,0.19-0.25,0.28
		c-0.16,0.08-0.31,0.11-0.44-0.05c0.17-0.41,0.32-0.97,0.84-0.88C446.56,275.82,446.26,276.19,446.11,276.4z"/>
	<path style="fill-rule:evenodd;clip-rule:evenodd;fill:#C5846D;" d="M453.78,280.63c-0.13,0.07-0.28,0.21-0.44,0.22
		c-0.16,0.01-0.27-0.17-0.15-0.33c0.08-0.11,0.22-0.23,0.35-0.26C453.75,280.22,453.78,280.39,453.78,280.63z"/>
	<path style="fill-rule:evenodd;clip-rule:evenodd;fill:#666769;" d="M497.57,250.34c-0.23,0.11-0.35,0.21-0.47,0.22
		c-0.06,0.01-0.21-0.17-0.19-0.21c0.06-0.12,0.16-0.26,0.27-0.29C497.25,250.03,497.38,250.19,497.57,250.34z"/>
	<path style="fill-rule:evenodd;clip-rule:evenodd;fill:#6C6D6F;" d="M453.36,269.98c-0.12-0.11-0.23-0.23-0.35-0.34
		c0.18-0.19,0.39-0.52,0.63-0.28C453.88,269.6,453.54,269.81,453.36,269.98z"/>
	<path style="fill-rule:evenodd;clip-rule:evenodd;fill:#7A7B7D;" d="M483.33,264.01c-0.06-0.29-0.31-0.29-0.52-0.36
		c0.26-0.16,0.57-0.38,0.81-0.09C483.83,263.81,483.55,263.94,483.33,264.01z"/>
	<path style="fill-rule:evenodd;clip-rule:evenodd;fill:#595A5C;" d="M489.33,282.15c-0.1,0.09-0.19,0.18-0.29,0.27
		c-0.2-0.17-0.55-0.35-0.22-0.62C489,281.65,489.22,281.92,489.33,282.15z"/>
	<path style="fill-rule:evenodd;clip-rule:evenodd;fill:#3C5B40;" d="M497.25,252.64c0.01,0.47-0.12,0.9-0.49,1.22
		C496.75,253.38,496.87,252.96,497.25,252.64z"/>
	<path style="fill-rule:evenodd;clip-rule:evenodd;fill:#7F8083;" d="M505.87,325.53c0.19,0.07,0.33,0.12,0.46,0.17
		c-0.17,0.29-0.46,0.16-0.69,0.17c-0.12,0.01-0.25-0.11-0.37-0.17C505.47,325.65,505.68,325.58,505.87,325.53z"/>
	<path style="fill-rule:evenodd;clip-rule:evenodd;fill:#5F5F61;" d="M455.06,279.06c-0.15,0.01-0.28,0.06-0.33,0.02
		c-0.07-0.06-0.08-0.2-0.12-0.3c0.1-0.03,0.23-0.1,0.28-0.07C454.97,278.77,454.99,278.9,455.06,279.06z"/>
	<path style="fill-rule:evenodd;clip-rule:evenodd;fill:#6B6A61;" d="M495.27,281.75c0.12-0.1,0.25-0.19,0.37-0.29
		c0.22,0.19,0.22,0.46,0.02,0.59C495.46,282.17,495.33,281.94,495.27,281.75z"/>
	<path style="fill-rule:evenodd;clip-rule:evenodd;fill:#8F9193;" d="M490.48,285.3c0.01-0.17,0.01-0.35,0.02-0.52
		c0.21,0,0.55-0.09,0.56,0.16C491.08,285.24,490.78,285.34,490.48,285.3z"/>
	<path style="fill-rule:evenodd;clip-rule:evenodd;fill:#B0B2B4;" d="M447.53,277.13c-0.15,0-0.29,0-0.44-0.01
		c-0.02-0.3,0.11-0.63,0.38-0.59C447.69,276.56,447.6,276.92,447.53,277.13z"/>
	<path style="fill-rule:evenodd;clip-rule:evenodd;fill:#AFAB80;" d="M447.54,273.1c0.01-0.1,0.01-0.2,0.02-0.3
		c0.25-0.07,0.51-0.15,0.76-0.22c0,0.16,0.01,0.32,0.01,0.47l-0.04-0.01C448.06,273.24,447.81,273.25,447.54,273.1z"/>
	<path style="fill-rule:evenodd;clip-rule:evenodd;fill:#898A8C;" d="M491.48,271.11c0.17-0.01,0.34-0.02,0.51-0.03
		c-0.01,0.18-0.03,0.37-0.04,0.56c-0.15-0.02-0.3-0.04-0.45-0.06C491.5,271.42,491.49,271.27,491.48,271.11z"/>
	<path style="fill-rule:evenodd;clip-rule:evenodd;fill:#8A8B8E;" d="M453.53,275.49c-0.01,0.32-0.02,0.63-0.02,0.95
		C453.19,276.11,453.2,275.8,453.53,275.49z"/>
	<path style="fill-rule:evenodd;clip-rule:evenodd;fill:#A9ABAE;" d="M484.26,247.6c0-0.15,0.01-0.31,0.01-0.46
		c0.22-0.01,0.41,0.05,0.37,0.3C484.63,247.51,484.39,247.55,484.26,247.6z"/>
	<path style="fill-rule:evenodd;clip-rule:evenodd;fill:#7B7C7E;" d="M449.99,274.67c-0.02-0.15-0.04-0.31-0.06-0.46
		c0.08-0.07,0.17-0.15,0.25-0.22c0.12,0.1,0.24,0.2,0.35,0.29C450.35,274.41,450.17,274.54,449.99,274.67z"/>
	<path style="fill-rule:evenodd;clip-rule:evenodd;fill:#B3AE81;" d="M445.42,276.64c0.15,0.02,0.29,0.03,0.44,0.04
		c-0.16,0.21-0.29,0.47-0.63,0.42C445.29,276.95,445.36,276.79,445.42,276.64z"/>
	<path style="fill-rule:evenodd;clip-rule:evenodd;fill:#A4A6A9;" d="M454.24,270.58c0.09,0.09,0.17,0.19,0.26,0.28
		c-0.14,0.02-0.35,0.1-0.41,0.04C453.93,270.74,454.1,270.65,454.24,270.58z"/>
	<path style="fill-rule:evenodd;clip-rule:evenodd;fill:#E7D820;" d="M447.54,273.1c0.25-0.02,0.5-0.04,0.75-0.06
		c-0.01,0.07-0.03,0.14-0.05,0.21c-0.22,0.22-0.46,0.16-0.7,0.05l-0.02,0C447.55,273.24,447.55,273.17,447.54,273.1z"/>
	<path style="fill-rule:evenodd;clip-rule:evenodd;fill:#F9B23B;" d="M453.07,248.57c-0.26-0.21-0.22-0.5-0.22-0.79
		C452.92,248.05,452.99,248.31,453.07,248.57z"/>
	<path style="fill-rule:evenodd;clip-rule:evenodd;fill:#F6E7A9;" d="M445.67,263.44c0.27,0.23,0.21,0.53,0.17,0.82
		C445.78,263.99,445.73,263.72,445.67,263.44z"/>
	<path style="fill-rule:evenodd;clip-rule:evenodd;fill:#D05FA0;" d="M477.34,302.08c0.23,0.06,0.46,0.12,0.69,0.19
		C477.77,302.3,477.52,302.32,477.34,302.08z"/>
	<path style="fill-rule:evenodd;clip-rule:evenodd;fill:#279F49;" d="M476.36,244.48c0.23,0.07,0.47,0.13,0.7,0.2
		C476.8,244.71,476.54,244.73,476.36,244.48z"/>
	<path style="fill-rule:evenodd;clip-rule:evenodd;fill:#108540;" d="M488.55,246.41c0.28-0.01,0.56-0.06,0.76,0.21
		C489.04,246.63,488.76,246.65,488.55,246.41z"/>
	<path style="fill-rule:evenodd;clip-rule:evenodd;fill:#6B6A63;" d="M447.54,273.31c0.23-0.02,0.46-0.04,0.7-0.05
		C448.03,273.61,447.8,273.59,447.54,273.31z"/>
	<path style="fill-rule:evenodd;clip-rule:evenodd;fill:#A2ADA2;" d="M501.64,259.39c0.16,0.06,0.32,0.12,0.48,0.18
		C501.83,259.84,501.73,259.62,501.64,259.39z"/>
	<path style="fill-rule:evenodd;clip-rule:evenodd;fill:#FEEF02;" d="M461.53,257.72c0.07-0.17,0.14-0.34,0.21-0.51
		C461.92,257.48,461.82,257.64,461.53,257.72z"/>
	<path style="fill-rule:evenodd;clip-rule:evenodd;fill:#F6E7A9;" d="M444.47,258.4c0.25,0.2,0.22,0.47,0.19,0.73
		C444.45,258.93,444.44,258.67,444.47,258.4z"/>
	<path style="fill-rule:evenodd;clip-rule:evenodd;fill:#CD5C34;" d="M495.05,284.32c-0.21,0.01-0.43,0.01-0.64,0.02
		C494.62,284.04,494.83,284.04,495.05,284.32z"/>
	<path style="fill-rule:evenodd;clip-rule:evenodd;fill:#272828;" d="M482.85,248.32c0.15-0.08,0.3-0.16,0.46-0.25
		C483.16,248.16,483.01,248.24,482.85,248.32z"/>
	<path style="fill-rule:evenodd;clip-rule:evenodd;fill:#D35C33;" d="M472.02,306.37c-0.15,0.09-0.29,0.18-0.44,0.27
		C471.73,306.55,471.87,306.46,472.02,306.37z"/>
	<path style="fill-rule:evenodd;clip-rule:evenodd;fill:#0B5229;" d="M474.92,235.87c-0.16,0.07-0.32,0.13-0.48,0.2
		C474.6,236,474.76,235.94,474.92,235.87z"/>
	<path style="fill-rule:evenodd;clip-rule:evenodd;fill:#AB4B2B;" d="M494.64,288.64c0.14,0.08,0.29,0.15,0.43,0.22
		C494.92,288.79,494.78,288.71,494.64,288.64z"/>
	<path style="fill-rule:evenodd;clip-rule:evenodd;fill:#ED6E51;" d="M489.79,255.44c-0.09,0.27-0.23,0.35-0.46,0.13
		C489.49,255.53,489.64,255.48,489.79,255.44z"/>
	<path style="fill-rule:evenodd;clip-rule:evenodd;fill:#1C56A6;" d="M505.65,276.12c0.07-0.06,0.14-0.13,0.21-0.19
		C505.78,275.99,505.71,276.06,505.65,276.12z"/>
	<path style="fill-rule:evenodd;clip-rule:evenodd;fill:#F18B6A;" d="M491.49,259.38c0.09-0.08,0.17-0.17,0.26-0.25
		C491.66,259.21,491.57,259.29,491.49,259.38z"/>
	<path style="fill-rule:evenodd;clip-rule:evenodd;fill:#272828;" d="M482.08,249.02c0.09-0.09,0.17-0.17,0.26-0.26
		C482.25,248.85,482.17,248.94,482.08,249.02z"/>
	<path style="fill-rule:evenodd;clip-rule:evenodd;fill:#272828;" d="M482.33,248.78c0.09-0.08,0.17-0.16,0.26-0.24
		C482.5,248.62,482.41,248.7,482.33,248.78z"/>
	<path style="fill-rule:evenodd;clip-rule:evenodd;fill:#6E6F71;" d="M490.03,248.34c0.09,0.07,0.18,0.14,0.27,0.21
		C490.21,248.48,490.12,248.41,490.03,248.34z"/>
	<path style="fill-rule:evenodd;clip-rule:evenodd;fill:#272828;" d="M482.58,248.55c0.08-0.07,0.17-0.14,0.26-0.21
		C482.75,248.4,482.66,248.47,482.58,248.55z"/>
	<path style="fill-rule:evenodd;clip-rule:evenodd;fill:#F6E7A9;" d="M452.57,244.01c-0.07,0-0.14-0.01-0.21-0.01
		c0.07-0.08,0.14-0.16,0.22-0.24C452.58,243.85,452.58,243.93,452.57,244.01z"/>
	<path style="fill-rule:evenodd;clip-rule:evenodd;fill:#F18B6A;" d="M491.73,259.14c0.09-0.08,0.18-0.16,0.27-0.25
		C491.91,258.98,491.82,259.06,491.73,259.14z"/>
	<path style="fill-rule:evenodd;clip-rule:evenodd;fill:#0A823E;" d="M473.72,243.55c0.07,0.04,0.15,0.09,0.22,0.13
		C473.86,243.64,473.79,243.59,473.72,243.55z"/>
	<path style="fill-rule:evenodd;clip-rule:evenodd;fill:#CD5C34;" d="M494.36,284.37c-0.08,0.06-0.15,0.13-0.23,0.19
		C494.21,284.49,494.29,284.43,494.36,284.37z"/>
	<path style="fill-rule:evenodd;clip-rule:evenodd;fill:#BC512D;" d="M472.75,305.75c-0.08,0.05-0.15,0.1-0.23,0.15
		C472.59,305.85,472.67,305.8,472.75,305.75z"/>
	<path style="fill-rule:evenodd;clip-rule:evenodd;fill:#0A823E;" d="M473.24,243.3c0.07,0.05,0.15,0.11,0.22,0.16
		C473.38,243.41,473.31,243.35,473.24,243.3z"/>
	<path style="fill-rule:evenodd;clip-rule:evenodd;fill:#8F3B23;" d="M499.86,287.01c-0.07-0.02-0.15-0.04-0.22-0.05
		C499.72,286.96,499.79,286.98,499.86,287.01z"/>
	<path style="fill-rule:evenodd;clip-rule:evenodd;fill:#FEEF02;" d="M492.68,284.27c0.08-0.06,0.17-0.12,0.25-0.18
		C492.95,284.28,492.84,284.31,492.68,284.27z"/>
	<path style="fill-rule:evenodd;clip-rule:evenodd;fill:#D0D1D3;" d="M488.55,284.13c0.09-0.01,0.18-0.02,0.27-0.03
		c-0.01,0.09-0.02,0.18-0.03,0.27C488.71,284.29,488.63,284.21,488.55,284.13z"/>
	<path style="fill-rule:evenodd;clip-rule:evenodd;fill:#F48D6C;" d="M463.86,256.96c0.08,0.12,0.17,0.24,0.25,0.35
		C464.03,257.2,463.94,257.08,463.86,256.96z"/>
	<path style="fill-rule:evenodd;clip-rule:evenodd;fill:#FEEF02;" d="M492.93,284.1c0.08-0.08,0.17-0.17,0.25-0.25
		C493.2,284.04,493.12,284.12,492.93,284.1z"/>
	<path style="fill-rule:evenodd;clip-rule:evenodd;fill:#EF6325;" d="M452.62,256.66c0-0.06,0.03-0.1,0.08-0.12
		c0,0-0.01,0.08-0.01,0.08L452.62,256.66z"/>
	<path style="fill-rule:evenodd;clip-rule:evenodd;fill:#F07254;" d="M483.23,255.92c-0.03,0.05-0.07,0.07-0.13,0.05
		c0,0,0.05-0.07,0.05-0.07L483.23,255.92z"/>
	<path style="fill-rule:evenodd;clip-rule:evenodd;fill:#FEEF02;" d="M493.17,283.86c0.07-0.08,0.14-0.16,0.21-0.24
		C493.31,283.7,493.24,283.78,493.17,283.86z"/>
	<path style="fill-rule:evenodd;clip-rule:evenodd;fill:#9B4226;" d="M486.15,274.71c-0.06-0.07-0.13-0.13-0.19-0.2
		C486.03,274.58,486.09,274.65,486.15,274.71z"/>
	<path style="fill-rule:evenodd;clip-rule:evenodd;fill:#7F301C;" d="M471.8,319.62c0.08,0.06,0.16,0.13,0.23,0.19
		C471.95,319.74,471.87,319.68,471.8,319.62z"/>
	<path style="fill-rule:evenodd;clip-rule:evenodd;fill:#DB6EA9;" d="M482.52,279.75c-0.06-0.06-0.12-0.13-0.17-0.19
		C482.41,279.62,482.47,279.69,482.52,279.75z"/>
	<path style="fill-rule:evenodd;clip-rule:evenodd;fill:#A5347C;" d="M476.83,288.87c-0.07-0.05-0.15-0.11-0.22-0.16
		C476.69,288.77,476.76,288.82,476.83,288.87z"/>
	<path style="fill-rule:evenodd;clip-rule:evenodd;fill:#8D3B22;" d="M468.91,320.37c-0.08,0.05-0.17,0.1-0.25,0.15
		C468.74,320.47,468.83,320.42,468.91,320.37z"/>
	<path style="fill-rule:evenodd;clip-rule:evenodd;fill:#CD5C34;" d="M495.31,284.54c-0.07-0.07-0.15-0.13-0.22-0.2
		C495.17,284.41,495.24,284.48,495.31,284.54z"/>
	<path style="fill-rule:evenodd;clip-rule:evenodd;fill:#8D3B22;" d="M468.43,320.8c-0.08-0.01-0.16-0.02-0.24-0.04
		c0.08-0.06,0.17-0.11,0.25-0.17C468.44,320.67,468.44,320.73,468.43,320.8z"/>
	<path style="fill-rule:evenodd;clip-rule:evenodd;fill:#C45496;" d="M481.9,279.02c-0.08-0.08-0.15-0.17-0.23-0.25
		C481.75,278.85,481.83,278.93,481.9,279.02z"/>
	<path style="fill-rule:evenodd;clip-rule:evenodd;fill:#1B59A7;" d="M466.94,278.35c0.09,0.08,0.19,0.15,0.28,0.23
		C467.13,278.5,467.03,278.43,466.94,278.35z"/>
	<path style="fill-rule:evenodd;clip-rule:evenodd;fill:#C35096;" d="M478.59,290.28c-0.09-0.08-0.19-0.16-0.28-0.24
		C478.4,290.12,478.5,290.2,478.59,290.28z"/>
	<path style="fill-rule:evenodd;clip-rule:evenodd;fill:#1C56A6;" d="M505.89,275.9c0.08-0.06,0.16-0.13,0.23-0.19
		C506.05,275.77,505.97,275.83,505.89,275.9z"/>
	<path style="fill-rule:evenodd;clip-rule:evenodd;fill:#C95931;" d="M465.07,321.78c-0.08,0.07-0.16,0.14-0.24,0.21
		C464.91,321.91,464.99,321.84,465.07,321.78z"/>
	<path style="fill-rule:evenodd;clip-rule:evenodd;fill:#216DB5;" d="M498.91,270.37c-0.07-0.05-0.13-0.1-0.2-0.14
		C498.77,270.28,498.84,270.32,498.91,270.37z"/>
	<path style="fill-rule:evenodd;clip-rule:evenodd;fill:#DB6EA9;" d="M485.53,283.08c-0.09-0.07-0.19-0.14-0.28-0.21
		C485.35,282.93,485.44,283,485.53,283.08z"/>
	<path style="fill-rule:evenodd;clip-rule:evenodd;fill:#9B4226;" d="M482.37,278.09c0.07,0.08,0.14,0.15,0.21,0.23
		C482.51,278.24,482.44,278.17,482.37,278.09z"/>
	<path style="fill-rule:evenodd;clip-rule:evenodd;fill:#C95932;" d="M488.08,276.88c-0.06-0.07-0.13-0.14-0.19-0.22
		C487.95,276.74,488.01,276.81,488.08,276.88z"/>
	<path style="fill-rule:evenodd;clip-rule:evenodd;fill:#8F9194;" d="M499.68,252.86c-0.1,0.01-0.19,0.03-0.29,0.04
		c0.02-0.06,0.04-0.13,0.06-0.19C499.53,252.76,499.61,252.81,499.68,252.86z"/>
	<path style="fill-rule:evenodd;clip-rule:evenodd;fill:#9B4226;" d="M481.12,276.65c0.09,0.08,0.18,0.16,0.27,0.24
		C481.3,276.81,481.21,276.73,481.12,276.65z"/>
	<path style="fill-rule:evenodd;clip-rule:evenodd;fill:#858689;" d="M501.2,325.54c-0.02-0.03-0.05-0.05-0.05-0.07
		s0.04-0.04,0.06-0.06c0.02,0.02,0.05,0.05,0.05,0.07C501.26,325.49,501.22,325.52,501.2,325.54z"/>
	<path style="fill-rule:evenodd;clip-rule:evenodd;fill:#1C56A6;" d="M505.16,276.59c0.06-0.06,0.13-0.12,0.19-0.19
		C505.29,276.47,505.23,276.53,505.16,276.59z"/>
	<path style="fill-rule:evenodd;clip-rule:evenodd;fill:#1C56A6;" d="M505.41,276.36c0.07-0.06,0.13-0.13,0.2-0.19
		C505.54,276.23,505.47,276.29,505.41,276.36z"/>
	<path style="fill-rule:evenodd;clip-rule:evenodd;fill:#A64627;" d="M474.16,306.63c-0.06-0.08-0.12-0.16-0.19-0.24
		C474.03,306.47,474.1,306.55,474.16,306.63z"/>
	<path style="fill-rule:evenodd;clip-rule:evenodd;fill:#87888B;" d="M469.39,326.3c-0.06-0.09-0.13-0.17-0.19-0.26
		c0.05-0.02,0.1-0.05,0.14-0.07C469.36,326.08,469.37,326.2,469.39,326.3L469.39,326.3z"/>
	<path style="fill-rule:evenodd;clip-rule:evenodd;fill:#242122;" d="M490.54,256.26c0.51-0.11,1-0.27,1.33-0.72
		c0.2-0.29-0.17-1.09,0.58-0.85c0.6,0.19,1.35,0.29,1.7,0.93c0.13,0.24-0.2,0.4-0.44,0.4c-0.78-0.02-1.32,0.42-1.83,0.92
		c-0.07-0.01-0.12,0.01-0.15,0.07c-0.09,0.06-0.19,0.12-0.27,0.19c-1.84,0.96-3.78,1.67-5.72,2.39c-5.03,1.16-10.07,1.27-15.14,0.25
		c-1.39-0.53-2.8-0.94-4.3-0.97c0.08-0.32,0.15-0.63,0.23-0.95c0.02-0.06,0.04-0.12,0.06-0.18c0.07-0.11,0.16-0.19,0.27-0.24
		c1.01-0.44,1.67,0.44,2.51,0.65c0.55,0.2,1.13,0.22,1.69,0.36c0.17,0.03,0.35,0.05,0.52,0.1c0.18,0.05,0.32,0.15,0.42,0.3
		c4.27,0.79,8.54,1.13,12.79-0.15c0.49-0.2,0.98-0.4,1.46-0.6c0.07,0.01,0.14,0,0.2-0.05c0.11-0.06,0.2-0.15,0.32-0.18
		c1.26-0.29,2.43-0.8,3.51-1.51c0.1-0.05,0.18-0.11,0.26-0.18L490.54,256.26z"/>
	<path style="fill-rule:evenodd;clip-rule:evenodd;fill:#F16F52;" d="M471.99,258.91c-0.14-0.02-0.28-0.04-0.42-0.06
		c-0.15-0.11-0.31-0.11-0.48-0.04c-0.58-0.13-1.17-0.26-1.75-0.4c0.99-0.54,1.33-1.38,1.1-2.47c-0.05-0.23-0.02-0.47,0.15-0.67
		c0.58,0.02,1.18-0.15,1.69,0.28c0.09,0.06,0.18,0.12,0.27,0.2l0-0.02C472.58,256.83,472.53,257.91,471.99,258.91z"/>
	<path style="fill-rule:evenodd;clip-rule:evenodd;fill:#2B2728;" d="M477.83,257.72c-0.23-0.17-0.53-0.27-0.58-0.44
		c-0.22-0.81,0.03-1.74,0.6-2.1c0.5-0.32,1.38,0.09,1.8,0.75c0.1,0.16,0.02,0.44,0.02,0.66
		C478.85,256.57,478.37,257.15,477.83,257.72z"/>
	<path style="fill-rule:evenodd;clip-rule:evenodd;fill:#FDFDFD;" d="M469.68,248.34c1.31,0.1,2.61,0.74,3.69,1.83
		c0.57,0.57,0.5,1.25,0.2,1.89c-0.42,0.87-1.18,1.42-2.07,1.71c-0.43,0.14-0.31-0.35-0.37-0.58c-0.18-0.64-0.58-1.11-1.23-1.14
		c-0.69-0.03-0.95,0.54-0.98,1.13c-0.03,0.64-0.31,0.59-0.77,0.43c-1.35-0.46-2.27-1.73-2.06-2.88
		C466.33,249.42,467.83,248.35,469.68,248.34z"/>
	<path style="fill-rule:evenodd;clip-rule:evenodd;fill:#EE563F;" d="M470.58,255.28c0.25,0.68,0.35,1.39,0.23,2.11
		c-0.14,0.81-0.68,1.11-1.47,1.03c-0.95,0.13-1.46-1.26-2.52-0.73c-0.11,0.06-0.21,0.13-0.3,0.23l0,0c-1-0.61-1.01-1.34-0.24-2.15
		C467.74,255.93,469.09,254.97,470.58,255.28z"/>
	<path style="fill-rule:evenodd;clip-rule:evenodd;fill:#F48D6C;" d="M472.54,255.75c-0.09-0.07-0.18-0.13-0.27-0.2
		C472.36,255.62,472.45,255.69,472.54,255.75z"/>
	<path style="fill-rule:evenodd;clip-rule:evenodd;fill:#F18B6A;" d="M491.45,257.2c0.09-0.06,0.18-0.13,0.27-0.19
		C491.63,257.07,491.54,257.13,491.45,257.2z"/>
	<path style="fill-rule:evenodd;clip-rule:evenodd;fill:#109745;" d="M477.08,236.31c0-0.15,0-0.31,0-0.46
		C477.33,236.01,477.31,236.16,477.08,236.31z"/>
	<path style="fill-rule:evenodd;clip-rule:evenodd;fill:#F07254;" d="M486.76,257.93c-0.11,0.06-0.21,0.12-0.32,0.18
		C486.55,258.05,486.66,257.99,486.76,257.93z"/>
	<path style="fill-rule:evenodd;clip-rule:evenodd;fill:#ED6E51;" d="M490.54,256.25c-0.09,0.06-0.17,0.12-0.26,0.18
		C490.36,256.37,490.45,256.31,490.54,256.25z"/>
	<polygon style="fill-rule:evenodd;clip-rule:evenodd;fill:#C7C4C2;" points="454.22,277.25 454.14,277.28 454.15,277.2 	"/>
	<path style="fill-rule:evenodd;clip-rule:evenodd;fill:#F48D6C;" d="M471.08,258.81c0.18-0.19,0.34-0.17,0.48,0.04
		C471.4,258.84,471.24,258.83,471.08,258.81z"/>
	<path style="fill-rule:evenodd;clip-rule:evenodd;fill:#F06E51;" d="M466.52,257.92c0.1-0.08,0.2-0.15,0.3-0.23
		C466.72,257.76,466.62,257.84,466.52,257.92z"/>
</g>
</svg>
