<?xml version="1.0" encoding="utf-8"?>
<!-- Generator: Adobe Illustrator 16.0.0, SVG Export Plug-In . SVG Version: 6.00 Build 0)  -->
<!DOCTYPE svg PUBLIC "-//W3C//DTD SVG 1.0//EN" "http://www.w3.org/TR/2001/REC-SVG-20010904/DTD/svg10.dtd" [
	<!ENTITY ns_flows "http://ns.adobe.com/Flows/1.0/">
	<!ENTITY ns_extend "http://ns.adobe.com/Extensibility/1.0/">
	<!ENTITY ns_ai "http://ns.adobe.com/AdobeIllustrator/10.0/">
	<!ENTITY ns_graphs "http://ns.adobe.com/Graphs/1.0/">
]>
<svg version="1.0" id="Layer_1" xmlns:x="&ns_extend;" xmlns:i="&ns_ai;" xmlns:graph="&ns_graphs;"
	 xmlns="http://www.w3.org/2000/svg" xmlns:xlink="http://www.w3.org/1999/xlink" xmlns:a="http://ns.adobe.com/AdobeSVGViewerExtensions/3.0/"
	 x="0px" y="0px" width="960px" height="560px" viewBox="0 0 960 560" style="enable-background:new 0 0 960 560;"
	 xml:space="preserve">
<g>
	<path style="fill-rule:evenodd;clip-rule:evenodd;fill:#231F20;" d="M457.3,278.72c-2.09-2.12-4.91-2.82-7.53-3.93
		c-1.65-0.7-3.34-1.27-4.95-2.07c-4.21-2.09-4.44-8.56-0.13-10.69c2.96-1.46,5.83-3.08,8.71-4.69c1.5-0.84,2.84-1.9,3.81-3.37
		c0.61-0.93,1.1-0.25,1.46,0.24c0.94,1.28,0.58,3.85-0.71,5.34c-1.77,2.05-4.17,3.13-6.56,4.22c-2.02,0.92-4.1,1.7-6.03,2.83
		c-0.81,0.48-0.74,0.74,0,1.2c2.43,1.48,5.19,2.17,7.78,3.26c2.71,1.14,5.22,2.6,5.97,5.72c0.71,2.95,0.96,5.86-2.13,7.85
		c-0.81,0.52-0.71,1.24,0.11,1.7c1,0.56,1.32,1.36,1.32,2.47c0,2.23,0.11,4.46-0.86,6.57c-0.16,0.35-0.02,0.86,0.06,1.29
		c0.79,4.33-1.26,8.19-4.98,9.5c-0.92,0.32-1.49,0.22-1.87-0.71c-0.13-0.33-0.39-0.6-0.56-0.92c-1.43-2.7-1.31-2.96,1.57-3.8
		c0.72-0.21,1.39-0.55,2.08-0.85c0.25-0.11,0.56-0.29,0.46-0.6c-0.11-0.34-0.51-0.22-0.72-0.16c-1.02,0.31-2.03,0.68-3.03,1.04
		c-1.41,0.5-2.8,0.84-4.28,0.18c-2.17-0.98-2.82-2.41-2.42-5.56c0.29-2.31,0.41-2.47,2.81-2.39c1.67,0.05,3.32,0.32,4.99,0.46
		c0.6,0.05,1.2,0.07,1.8,0.03c1.19-0.08,2.44-0.53,2.5-1.77c0.05-1.11-1.29-1.33-2.22-1.62c-1.74-0.53-3.49-0.07-5.21,0.1
		c-1.25,0.12-2.46,0.13-3.67-0.16c-0.88-0.21-1.7-0.54-1.56-1.72c0.02-0.15-0.08-0.3-0.11-0.46c-0.54-3.16,0.17-4.21,3.28-3.96
		c4.15,0.33,7.71-0.67,10.64-3.68c0.04-0.04,0.07-0.08,0.11-0.12c-0.01-0.07,0.02-0.11,0.09-0.12c0.11,0,0.2,0.04,0.27,0.13
		c0.14,0.76-0.61,1.05-0.86,1.6c-0.22,0.29-0.48,0.55-0.74,0.81c-0.07,0.08-0.15,0.14-0.23,0.21c-0.08,0.07-0.17,0.13-0.25,0.18
		c-0.31,0.18-0.6,0.38-0.92,0.55c-0.09,0.05-0.18,0.09-0.27,0.13c-0.13,0.06-0.27,0.13-0.4,0.19c-0.17,0.09-0.35,0.18-0.52,0.28
		c-0.26,0.15-0.5,0.33-0.76,0.49c-0.47,0.25-0.98,0.39-1.45,0.62c-0.24,0.1-0.49,0.17-0.73,0.26c-0.09,0.04-0.19,0.07-0.29,0.1
		c-0.3,0.09-0.59,0.18-0.89,0.26c-0.36,0.08-0.72,0.19-1.08,0.28c-0.11,0.03-0.22,0.05-0.33,0.07c-0.33,0.11-0.67,0.17-1.02,0.19
		c-0.3,0.02-0.59,0-0.89,0.02c-0.23,0.01-0.47-0.01-0.7,0c-0.36,0.1-1-0.31-1.05,0.03c-0.12,0.72-0.38,1.59,0.44,2.17
		c0.33,0.12,0.65,0.21,1,0.24c0.55,0.04,1.11-0.03,1.66,0.01c0.25,0,0.5-0.02,0.74,0c0.18,0,0.36-0.01,0.55,0
		c0.53,0,1.06,0.07,1.57-0.11c0.28-0.08,0.56-0.15,0.83-0.25c0.78-0.13,1.44-0.73,2.29-0.59c0.18,0.58,0.3,1.23,1.11,1.27
		c0.26,0.09,0.51,0.2,0.76,0.3c0.11,0.04,0.22,0.11,0.33,0.13c0.44,0.08,0.92,0.71,1.25,0.33c0.4-0.46,0.17-1.12-0.26-1.6
		c-0.14-0.14-0.31-0.24-0.51-0.31c-0.1-0.03-0.2-0.06-0.29-0.09c-0.38-0.11-0.74-0.01-1.09,0.11c-0.36,0.09-0.72,0.27-1.1,0.06
		c-0.08-0.07-0.14-0.17-0.17-0.27c0.09-0.28,0.33-0.41,0.54-0.58c0.08-0.06,0.17-0.12,0.26-0.18c0.21-0.13,0.42-0.28,0.61-0.45
		c0.34-0.31,0.66-0.64,0.98-0.98c0.38-0.37,0.68-0.81,0.96-1.27c0.05-0.09,0.1-0.19,0.16-0.28c0.08-0.14,0.17-0.27,0.26-0.4
		c0.09-0.13,0.19-0.26,0.29-0.38c0.5-1.03,0.82-2.07,0.18-3.17C457.29,279.28,457.42,278.96,457.3,278.72z"/>
	<path style="fill-rule:evenodd;clip-rule:evenodd;fill:#231F20;" d="M509.03,294.75c-0.05,2.93-2.38,4.79-5.27,4.07
		c-1.38-0.34-2.71-0.92-4.07-1.35c-0.36-0.11-0.95-0.27-1.1,0.08c-0.23,0.53,0.38,0.74,0.76,0.87c1.16,0.41,2.33,0.79,3.52,1.1
		c0.68,0.17,0.78,0.48,0.63,1.1c-0.33,1.34-1,2.5-1.75,3.64c-0.34,0.52-0.77,0.38-1.25,0.23c-3.11-0.96-5.41-3.61-5.24-7.16
		c0.13-2.73-0.67-5.24-0.78-7.88c-0.04-1.07,0-2.15,0.07-3.22c0.05-0.75,0.62-1.13,1.21-1.52c0.85-0.56,1.02-1.34,0.05-1.87
		c-4.26-2.34-2.35-9.8,0.71-11.74c2.88-1.82,6.16-2.58,9.17-4.01c0.87-0.41,2.26-0.66,2.29-1.6c0.03-0.88-1.36-1.14-2.18-1.54
		c-3.15-1.5-6.53-2.56-9.36-4.69c-1.69-1.27-2.85-2.88-2.76-5.15c0.03-0.72,0.3-1.32,0.75-1.84c0.29-0.33,0.73-0.64,1.09-0.1
		c1.76,2.64,4.53,3.9,7.18,5.33c2.06,1.11,4.25,1.99,6.15,3.4c3.37,2.51,3.24,7.35-0.26,9.68c-2.42,1.61-5.28,2.22-7.88,3.4
		c-1.55,0.7-3.17,1.25-4.51,2.37c-0.75,0.63-0.88,1.11-0.06,1.92c2.68,2.64,5.82,3.74,9.54,3.28c0.24-0.03,0.48-0.03,0.72-0.01
		c0.98,0.1,2.3-0.42,2.86,0.58c0.83,1.48,0.76,3.34,0.06,4.75c-0.62,1.25-2.35,1.08-3.69,1.07c-2.06,0-4.1-0.67-6.18-0.25
		c-0.62,0.12-1.22,0.28-1.77,0.66c-1.13,0.79-1.12,1.61,0.1,2.33c1.57,0.94,3.25,0.5,4.9,0.35c1.46-0.14,2.91-0.49,4.4-0.35
		c1.11,0.11,1.92,0.4,1.79,1.79C508.81,293.23,508.97,294,509.03,294.75z"/>
	<path style="fill-rule:evenodd;clip-rule:evenodd;fill:#231F20;" d="M479.59,270.53c0.41,0,1.18,0.08,1.92-0.02
		c1.55-0.21,1.92,0.69,2.03,1.95c0.25,2.95-0.54,3.81-3.57,3.83c-2.11,0.01-4.21-0.49-6.33-0.24c-0.43,0.05-0.89,0.08-1.27,0.25
		c-0.66,0.29-1.66,0.44-1.64,1.32c0.02,0.93,0.88,1.33,1.73,1.56c1.75,0.47,3.5,0.07,5.22-0.15c1.24-0.16,2.47-0.14,3.7-0.11
		c0.76,0.02,1.37,0.32,1.32,1.3c-0.04,0.75,0.1,1.51,0.11,2.26c0.02,2.47-2.46,4.39-4.93,3.76c-1.37-0.35-2.7-0.88-4.07-1.25
		c-0.44-0.12-1.18-0.41-1.35,0.13c-0.15,0.47,0.58,0.67,1.01,0.8c1.06,0.33,2.13,0.63,3.21,0.88c0.65,0.15,0.85,0.41,0.65,1.07
		c-0.36,1.16-0.98,2.17-1.67,3.15c-0.43,0.61-0.98,0.43-1.49,0.26c-3.07-1.01-5.11-3.16-5.05-6.35c0.05-2.39-0.56-4.6-0.73-6.9
		c-0.14-1.87-0.61-3.85,1.63-5.02c0.65-0.34,0.24-1-0.21-1.25c-2.02-1.12-2.75-2.82-2.59-5.07c0.2-2.74,1.48-4.73,3.87-6.05
		c1.93-1.06,4.02-1.68,6.09-2.36c1.7-0.55,3.32-1.24,4.87-2.14c0.83-0.48,1.92-0.21,2.72-0.99c0.33-0.32,0.29,0.29,0.31,0.49
		c0.24,2.43-1.02,4.4-3.73,5.5c-2.93,1.2-5.92,2.23-8.88,3.36c-1.18,0.45-2.82,0.88-2.96,2.08c-0.15,1.25,1.57,1.69,2.53,2.4
		C474.19,270.62,476.71,270.65,479.59,270.53z"/>
	<path style="fill-rule:evenodd;clip-rule:evenodd;fill:#6A1614;" d="M457.48,279.4c-0.06-0.01-0.12-0.02-0.18-0.04
		c0-0.21,0-0.43,0-0.64C457.36,278.95,457.42,279.17,457.48,279.4L457.48,279.4z"/>
	<path style="fill-rule:evenodd;clip-rule:evenodd;fill:#6A1614;" d="M457.2,279.49c-0.01,0.06-0.05,0.1-0.11,0.12
		c0,0,0.02-0.09,0.02-0.09L457.2,279.49z"/>
	<path style="fill-rule:evenodd;clip-rule:evenodd;fill:#F3A4A9;" d="M451.72,262.57c-0.66,0.53-1.37,0.96-2.18,1.23
		c-1.12,0.36-1.57,0.2-2.11-0.75c-0.43-0.76-0.42-1.42,0.44-1.87c0.97-0.49,1.94-0.98,2.91-1.47c0.11-0.16,0.32-0.1,0.46-0.21
		l0.03-0.02c0.62-0.32,1.22-0.36,1.66,0.28c0.42,0.6,0.26,1.2-0.12,1.75C452.52,261.94,452.19,262.33,451.72,262.57z"/>
	<path style="fill-rule:evenodd;clip-rule:evenodd;fill:#F2F2BF;" d="M449.53,270.76c1.25,0.39,2.52,0.74,3.62,1.47
		c0.13,0.11,0.35,0.06,0.44,0.23l0.02,0.02c0.25,1.47-0.41,2.13-1.9,1.89c-1.24-0.28-2.46-0.65-3.6-1.23
		c-0.78-0.5-0.48-1.13-0.19-1.74C448.25,270.71,448.77,270.41,449.53,270.76z"/>
	<path style="fill-rule:evenodd;clip-rule:evenodd;fill:#F4A4A9;" d="M450.99,284.43c0.5-0.38,1.08-0.59,1.7-0.72
		c0.92-0.3,1.22,0.37,1.42,1c0.19,0.59,0.27,1.24,0,1.86l-0.01,0.01c-0.21,0.19-0.48,0.3-0.69,0.48c0,0.08,0,0.17-0.01,0.25
		l0.02-0.02c-0.81,0.25-1.61,0.49-2.42,0.74c-1.12-0.06-1.63-0.67-1.52-1.82c0.06-0.62,0.34-1.12,0.79-1.55l0,0
		C450.47,284.47,450.81,284.67,450.99,284.43z"/>
	<path style="fill-rule:evenodd;clip-rule:evenodd;fill:#EF9EA2;" d="M449.07,296.01c0.57-0.1,1.14-0.2,1.7-0.3
		c0.25-0.26,0.68,0.08,0.91-0.26l0.03-0.01c0.88,0.55,1.02,1.38,0.41,2.28c-0.66,0.96-2.01,1.25-2.84,0.62
		C448.46,297.7,448.38,296.79,449.07,296.01z"/>
	<path style="fill-rule:evenodd;clip-rule:evenodd;fill:#791A19;" d="M456.53,300.98c-0.16,0.84-0.5,1.59-1.12,2.19
		c-1.14-0.18-1.67-1.19-1.29-2.47c0.48-0.37,0.96-0.74,1.44-1.11c0.3-0.17,0.53-0.62,0.88-0.49c0.39,0.16,0.17,0.63,0.19,0.96
		C456.64,300.36,456.71,300.69,456.53,300.98z"/>
	<path style="fill-rule:evenodd;clip-rule:evenodd;fill:#DB7E7A;" d="M449.07,296.01c-0.49,0.89-0.24,1.69,0.54,2.18
		c0.71,0.45,1.49,0.19,2.05-0.41c0.68-0.73,0.77-1.54,0.05-2.34c0.18-0.06,0.35-0.13,0.53-0.19c0.92,0.62,1.01,2,0.19,2.9
		c-0.21,0.23-0.52,0.35-0.7,0.63c-0.65,0.19-1.29,0.38-1.94,0.57c-1.53-0.26-2.16-1.38-1.89-3.33
		C448.29,296.01,448.68,296.01,449.07,296.01z"/>
	<path style="fill-rule:evenodd;clip-rule:evenodd;fill:#E9723B;" d="M445.21,271.68c-1.07-0.51-1.85-1.27-2.18-2.45
		c-0.08-0.31-0.23-0.62,0.06-0.88c0.29-0.27,0.59-0.1,0.87,0.06c0.51,0.29,1.02,0.58,1.53,0.87
		C446.06,270.15,445.68,270.92,445.21,271.68z"/>
	<path style="fill-rule:evenodd;clip-rule:evenodd;fill:#5E0606;" d="M444.51,266.18c-0.55,0.32-1.11,0.65-1.66,0.97
		c-0.39-1.4-0.16-2.58,1.19-3.35l0.01,0.01c0.89-0.3,1.18,0.37,1.43,0.96C445.88,265.69,445.02,265.83,444.51,266.18z"/>
	<path style="fill-rule:evenodd;clip-rule:evenodd;fill:#AB2F2B;" d="M453.87,294.48c0.33-0.23,0.66-0.47,0.99-0.7
		c0.74,0.03,1.18,0.58,1.72,0.97c-0.4,0.85-1.02,1.53-1.68,2.18c-0.12,0.06-0.22,0.13-0.29,0.24l0,0.01
		c-0.87-0.59-0.92-1.51-0.98-2.43l0,0.01C453.73,294.68,453.81,294.59,453.87,294.48z"/>
	<path style="fill-rule:evenodd;clip-rule:evenodd;fill:#640A0A;" d="M456.51,256.09c0.5-0.45,0.84-1.51,1.53-1.19
		c0.67,0.32,0.17,1.31,0.13,2c-0.03,0.51-0.31,0.98-0.66,1.37C456.27,258.02,456,257.44,456.51,256.09z"/>
	<path style="fill-rule:evenodd;clip-rule:evenodd;fill:#610B09;" d="M444.54,288.23c-1.48-0.49-0.66-1.71-0.66-2.53
		c0-0.74,0.89-0.14,1.35-0.29c0.65,0.34,0.84,0.9,0.68,1.58C445.74,287.7,445.29,288.13,444.54,288.23z"/>
	<path style="fill-rule:evenodd;clip-rule:evenodd;fill:#EC7E3C;" d="M456.59,287.31c0.03,0.02,0.07,0.03,0.1,0.05
		c0.76,0.65,0.86,1.64,0.34,2.22c-0.65,0.74-1.28-0.4-1.97-0.52c-0.75-1.07,0.19-1.49,0.79-2.04c0.06-0.03,0.11-0.02,0.14,0.03
		C456.16,287.23,456.4,287.19,456.59,287.31z"/>
	<path style="fill-rule:evenodd;clip-rule:evenodd;fill:#6A1614;" d="M456.51,281.03c0.06-0.7,0.98-0.88,0.96-1.63l0.01-0.01
		c0.58-0.04,0.74,0.26,0.73,0.8c-0.02,0.99,0,1.98-0.73,2.77C456.67,282.56,456.11,282.04,456.51,281.03z"/>
	<path style="fill-rule:evenodd;clip-rule:evenodd;fill:#D17D7A;" d="M447.88,261.19c-0.52,0.55-0.61,1.14-0.16,1.79
		c0.45,0.65,0.96,1.11,1.83,0.83c-0.63,0.53-1.46,0.62-2.19,0.94c-0.73-0.7-1.23-1.5-1.16-2.56
		C446.76,261.86,447.17,261.28,447.88,261.19z"/>
	<path style="fill-rule:evenodd;clip-rule:evenodd;fill:#E4979A;" d="M451.52,304.82c-0.66-0.14-0.87-0.64-0.99-1.21
		c-0.29-0.85,0.11-1.29,0.91-1.4c0.65-0.09,1.4,0.59,1.48,1.27C453,304.25,452.55,304.68,451.52,304.82z"/>
	<path style="fill-rule:evenodd;clip-rule:evenodd;fill:#AB3B34;" d="M454.38,282.72c0.35-0.3,0.67-0.64,1.17-0.71
		c0.66,0.41,0.96,1.12,1.43,1.69c-0.29,0.55-0.59,1.1-1.15,1.42C454.78,284.66,454.54,283.71,454.38,282.72z"/>
	<path style="fill-rule:evenodd;clip-rule:evenodd;fill:#F59B3B;" d="M455.68,273.87c0.57,0.28,1,0.69,1.3,1.25
		c0.01,0.63-0.19,1.1-0.91,1.16c-0.56-0.31-1.11-0.63-1.67-0.94C454.44,274.17,454.71,273.87,455.68,273.87z"/>
	<path style="fill-rule:evenodd;clip-rule:evenodd;fill:#F09540;" d="M445.21,271.68c0.09-0.8,0.19-1.6,0.28-2.4
		c0.55,0.24,1.11,0.48,1.66,0.72c0.28,0.96-0.29,1.64-0.75,2.36C446.01,272.13,445.61,271.91,445.21,271.68z"/>
	<path style="fill-rule:evenodd;clip-rule:evenodd;fill:#E17D41;" d="M447.38,295.02c-0.9,0.07-1.72-0.1-2.28-0.89
		c-0.11-0.16-0.14-0.43,0.07-0.51c0.81-0.33,1.65-0.43,2.49-0.11C447.77,294.05,447.82,294.58,447.38,295.02z"/>
	<path style="fill-rule:evenodd;clip-rule:evenodd;fill:#E26F3E;" d="M456.08,276.27c0.3-0.39,0.61-0.77,0.91-1.16
		c0.8,0.76,1.76,1.97,0.98,2.68C457.27,278.42,456.73,276.83,456.08,276.27z"/>
	<path style="fill-rule:evenodd;clip-rule:evenodd;fill:#9A2926;" d="M456.81,259c-0.24,0.24-0.48,0.48-0.73,0.72
		c-0.11,0.06-0.21,0.14-0.29,0.25l0.01-0.01c-0.09,0.07-0.18,0.15-0.25,0.25l0.01-0.01c-0.09,0.07-0.17,0.15-0.24,0.24l0,0
		c-0.09,0.07-0.17,0.14-0.24,0.24l0,0.01c-0.04,0-0.11,0.01-0.12,0c-0.29-1.06-0.6-2.12-0.14-3.21c0.18-0.13,0.35-0.27,0.53-0.4
		C456.29,257.38,456.29,258.39,456.81,259z"/>
	<path style="fill-rule:evenodd;clip-rule:evenodd;fill:#C14B41;" d="M453.62,294.74c0.33,0.81,0.66,1.62,0.98,2.43
		c-0.29,0.63-0.73,1.04-1.45,1.1c-0.08-0.02-0.2-0.05-0.2-0.1c0.09-1.06-0.13-2.12,0.01-3.18
		C453.15,294.83,453.34,294.66,453.62,294.74z"/>
	<path style="fill-rule:evenodd;clip-rule:evenodd;fill:#B7564E;" d="M454.33,261.3c-0.42,0.27-0.81,0.63-1.37,0.51
		c0.56-1.08,0.31-2.1-0.27-3.08c0.36-0.46,0.94-0.54,1.43-0.78C455.14,259.01,454.68,260.16,454.33,261.3z"/>
	<path style="fill-rule:evenodd;clip-rule:evenodd;fill:#D88684;" d="M452.69,258.73c1.26,1.07,1.35,2.15,0.27,3.08
		c-0.48,0.14-0.67,0.76-1.24,0.76c0.24-0.31,0.53-0.6,0.71-0.95c0.27-0.51,0.72-1.01,0.34-1.65c-0.35-0.6-0.94-0.48-1.49-0.48
		C451.74,259.24,452.22,258.98,452.69,258.73z"/>
	<path style="fill-rule:evenodd;clip-rule:evenodd;fill:#DB8480;" d="M451.52,304.82c0.55-0.3,1.28-0.52,1.11-1.34
		c-0.11-0.57-0.53-1.02-1.17-1.01c-0.69,0.01-0.94,0.5-0.94,1.14c-0.75-1.36-0.01-1.79,1.21-1.91c0.98,0.09,1.47,0.75,1.67,1.6
		c0.19,0.79-0.22,1.37-0.94,1.73C452.12,305.05,451.78,305.11,451.52,304.82z"/>
	<path style="fill-rule:evenodd;clip-rule:evenodd;fill:#9D2925;" d="M447.38,288.53c-0.62-0.03-1.23-0.06-1.85-0.08
		c0.55-0.94,0.7-1.95,0.45-3.01c0.31-0.01,0.62-0.02,0.94-0.03C447.88,286.15,448.04,287.22,447.38,288.53z"/>
	<path style="fill-rule:evenodd;clip-rule:evenodd;fill:#9B3831;" d="M446.19,262.18c0.39,0.85,0.78,1.71,1.16,2.56
		c-0.39,0.18-0.78,0.36-1.17,0.53c-0.49-0.69-0.84-1.46-1.25-2.19C445.35,262.79,445.77,262.48,446.19,262.18z"/>
	<path style="fill-rule:evenodd;clip-rule:evenodd;fill:#650B0B;" d="M444.74,295.46c0-0.07,0.01-0.14,0.02-0.21
		c0.15-0.16,0.3-0.15,0.47-0.02l0.01,0c0.12,0.15,0.34,0.1,0.47,0.24l0.01,0c0.88,0.88,0.97,1.81,0.23,2.45
		c-0.4,0.35-0.82,0.53-1.19-0.05l-0.01,0.01C444.57,297.08,444.58,296.27,444.74,295.46z"/>
	<path style="fill-rule:evenodd;clip-rule:evenodd;fill:#CE675F;" d="M454.38,282.72c0.48,0.8,0.96,1.6,1.44,2.4
		c-0.32,0.32-0.65,0.64-0.97,0.96c-0.21-0.04-0.41-0.17-0.42-0.37c-0.05-0.94-0.71-1.63-0.99-2.48c0.17-0.1,0.34-0.19,0.51-0.29
		c0.04-0.03,0.07-0.05,0.11-0.08C454.16,282.82,454.27,282.77,454.38,282.72z"/>
	<path style="fill-rule:evenodd;clip-rule:evenodd;fill:#B8584F;" d="M447.9,296.01c0.42,1.23,0.26,2.79,1.89,3.33
		c-0.85,0.34-1.72,0.25-2.59,0.12c0.46-0.51,0.23-1.07,0.16-1.64c-0.07-0.58-0.08-1.17-0.07-1.77c0.03-0.05,0.05-0.1,0.08-0.15
		C447.55,295.95,447.72,295.98,447.9,296.01z"/>
	<path style="fill-rule:evenodd;clip-rule:evenodd;fill:#E18D8B;" d="M450.28,284.68c0.06,0.42-0.26,0.72-0.36,1.08
		c-0.3,1.05-0.15,1.95,1.09,2.29c-0.17,0.31-0.5,0.17-0.74,0.25c-1.19-0.11-1.64-0.74-1.51-2.09c0.05-0.48,0.17-0.93,0.55-1.26
		C449.63,284.86,449.95,284.77,450.28,284.68z"/>
	<path style="fill-rule:evenodd;clip-rule:evenodd;fill:#7B1615;" d="M445.98,285.43c0.8,1.05,0.61,2.32-0.45,3.01
		c-0.33-0.07-0.66-0.14-0.98-0.21c1.12-0.72,1.53-1.62,0.69-2.82C445.48,285.42,445.73,285.43,445.98,285.43z"/>
	<path style="fill-rule:evenodd;clip-rule:evenodd;fill:#761C1A;" d="M444.93,263.09c0.89,0.46,1.19,1.26,1.25,2.19
		c-0.51,0.39-1,0.82-1.67,0.9c1.12-1.06,0.99-1.72-0.46-2.38C444.34,263.56,444.64,263.33,444.93,263.09z"/>
	<path style="fill-rule:evenodd;clip-rule:evenodd;fill:#A63E36;" d="M454.12,300.69c0.2,0.94,0.26,1.96,1.29,2.47
		c-0.05,0.09-0.09,0.18-0.14,0.27c-0.04,0.06-0.09,0.12-0.15,0.17c-0.15,0.1-0.29,0.2-0.44,0.3c-0.32,0.16-0.57-0.02-0.68-0.26
		c-0.37-0.79-0.94-1.51-0.85-2.46C453.47,301.02,453.8,300.85,454.12,300.69z"/>
	<path style="fill-rule:evenodd;clip-rule:evenodd;fill:#CE6D65;" d="M449.31,284.95c-0.08,1.23-0.92,2.68,0.96,3.35
		c-0.52,0.35-1.11,0.17-1.68,0.21c-0.46-1.05-0.47-2.17-0.46-3.29C448.52,285.13,448.91,285.04,449.31,284.95z"/>
	<path style="fill-rule:evenodd;clip-rule:evenodd;fill:#DB8583;" d="M453.44,283.23c1.06,0.66,1.08,1.83,1.41,2.85
		c-0.16,0.29-0.38,0.49-0.73,0.5c-0.43-0.63-0.03-1.41-0.35-2.04c-0.21-0.41-0.55-0.77-1.07-0.82
		C452.83,283.38,453.14,283.32,453.44,283.23z"/>
	<path style="fill-rule:evenodd;clip-rule:evenodd;fill:#821A19;" d="M456.81,259c-1.01-0.25-0.83-1.39-1.46-1.92
		c0.39-0.33,0.77-0.66,1.16-0.99c-0.07,0.91,0.01,1.75,1,2.19C457.28,258.52,457.05,258.76,456.81,259z"/>
	<path style="fill-rule:evenodd;clip-rule:evenodd;fill:#CF6A61;" d="M452.96,294.99c0.47,1.07,0.28,2.18,0.19,3.28
		c-0.47,0.17-0.95,0.33-1.42,0.5c0.62-1.11,1.59-2.17,0.51-3.53C452.48,295.16,452.72,295.07,452.96,294.99z"/>
	<path style="fill-rule:evenodd;clip-rule:evenodd;fill:#8F201E;" d="M456.97,283.7c-0.81-0.28-1.13-0.97-1.43-1.69l0,0.02
		c0.11-0.08,0.19-0.18,0.25-0.3c0.24-0.23,0.48-0.47,0.71-0.7c-0.05,0.83,0.61,1.3,0.96,1.94c-0.08,0.08-0.16,0.17-0.24,0.25
		c-0.09,0.1-0.18,0.2-0.23,0.33C457.02,283.61,457.01,283.66,456.97,283.7z"/>
	<path style="fill-rule:evenodd;clip-rule:evenodd;fill:#F0D998;" d="M449.53,270.76c-1.31,0.13-1.85,1.04-1.42,2.38
		c-0.4-0.18-0.8-0.36-1.2-0.54c-0.13-0.96,0.34-1.69,0.95-2.35C448.42,270.42,448.97,270.59,449.53,270.76z"/>
	<path style="fill-rule:evenodd;clip-rule:evenodd;fill:#CB6961;" d="M452.45,305.03c1.1-1.55,1.03-1.87-0.72-3.33
		c0.24-0.08,0.48-0.16,0.72-0.24c1.08,0.4,1.6,1.53,1.43,3.1C453.45,304.87,452.99,305.07,452.45,305.03z"/>
	<path style="fill-rule:evenodd;clip-rule:evenodd;fill:#8C2D28;" d="M446.45,299.27c-0.41-0.11-0.8-0.26-1.03-0.66
		c1.03-0.73,1.05-1.81,1.01-2.91c0.31,0.07,0.63,0.14,0.94,0.21l0.03,0.08c-0.04,0.6,0.01,1.19,0,1.79
		C447.39,298.48,447.15,299.01,446.45,299.27z"/>
	<path style="fill-rule:evenodd;clip-rule:evenodd;fill:#7B1D1B;" d="M456.58,294.75c-0.84,0.15-1.15-0.63-1.72-0.97
		c0.39-0.39,0.79-0.77,1.18-1.16c0.36,0.37,0.67,0.77,0.96,1.19C457.04,294.2,456.96,294.54,456.58,294.75z"/>
	<path style="fill-rule:evenodd;clip-rule:evenodd;fill:#EBE3AD;" d="M449.82,293.76c0.68,0.03,1.89,0.06,1.85,0.44
		c-0.07,0.71-1.13,0.58-1.79,0.79c-0.18,0.06-0.39,0.02-0.58,0.03C449,294.4,448.75,293.8,449.82,293.76z"/>
	<path style="fill-rule:evenodd;clip-rule:evenodd;fill:#771D1B;" d="M446.43,295.71c0.38,1.22,0.65,2.4-1.01,2.91
		c-0.42-0.06-0.64-0.31-0.66-0.73c1.11,0.35,1.37-0.36,1.37-1.2c0-0.4-0.27-0.8-0.41-1.2C445.99,295.47,446.25,295.47,446.43,295.71
		z"/>
	<path style="fill-rule:evenodd;clip-rule:evenodd;fill:#A03E37;" d="M454.33,261.3c-0.04-1.12,0.26-2.26-0.22-3.35
		c0.24-0.16,0.47-0.31,0.71-0.47c0.08,1.07,0.17,2.14,0.25,3.21C454.94,261.02,454.72,261.27,454.33,261.3z"/>
	<path style="fill-rule:evenodd;clip-rule:evenodd;fill:#A73D36;" d="M446.45,299.27c1.08-0.87,0.39-2.25,0.94-3.28
		c0.49,0.93,0.09,2,0.5,2.97c0.23,0.54-0.55,0.21-0.7,0.5C446.95,299.4,446.7,299.33,446.45,299.27z"/>
	<path style="fill-rule:evenodd;clip-rule:evenodd;fill:#620909;" d="M457.01,293.8c-0.68-0.11-0.99-0.51-0.96-1.19l-0.01-0.02
		c0.23-0.33,0.51-0.62,0.72-0.97l0,0.01c0.15-0.13,0.11-0.37,0.29-0.48c0.05,0,0.1,0,0.15,0c0.29,0.17,0.06,0.53,0.28,0.72
		c0,0.16,0,0.31,0,0.47c-0.27,0.36,0.05,0.84-0.23,1.21l-0.01-0.01C457.16,293.65,457.07,293.71,457.01,293.8L457.01,293.8z"/>
	<path style="fill-rule:evenodd;clip-rule:evenodd;fill:#C35148;" d="M448.13,285.22c0.52,1.05,0.48,2.17,0.46,3.29
		c-0.16,0.01-0.32,0.01-0.49,0.02c-0.7-1.05-0.58-2.17-0.24-3.3C447.95,285.23,448.04,285.22,448.13,285.22z"/>
	<path style="fill-rule:evenodd;clip-rule:evenodd;fill:#F6BD67;" d="M447.86,270.25c-0.32,0.78-0.63,1.57-0.95,2.35
		c-0.17-0.08-0.34-0.16-0.51-0.24c-0.05-0.88,0.55-1.56,0.75-2.36C447.39,270.08,447.63,270.16,447.86,270.25z"/>
	<path style="fill-rule:evenodd;clip-rule:evenodd;fill:#B8544B;" d="M453.87,304.56c-0.38-1.08-0.26-2.38-1.43-3.1
		c0.23-0.09,0.47-0.18,0.7-0.27c0.71,0.79,0.57,2.06,1.53,2.72C454.48,304.2,454.26,304.48,453.87,304.56z"/>
	<path style="fill-rule:evenodd;clip-rule:evenodd;fill:#DDB274;" d="M453.4,287.33c0.41-0.09,0.82-0.19,1.23-0.28
		c0.47,0.66,0.04,1.19-0.24,1.74c-0.71-0.24-1.92-0.16-0.96-1.48L453.4,287.33z"/>
	<path style="fill-rule:evenodd;clip-rule:evenodd;fill:#AC3D36;" d="M447.86,285.24c0.08,1.1,0.16,2.2,0.24,3.3
		c-0.24,0-0.48,0-0.72,0c-0.09-1.05,0.36-2.18-0.47-3.12C447.23,285.35,447.55,285.29,447.86,285.24z"/>
	<path style="fill-rule:evenodd;clip-rule:evenodd;fill:#E1964B;" d="M454.39,288.79c-0.33-0.64,0.45-1.12,0.24-1.74
		c0.41-0.22,0.81-0.3,1.23-0.03c-0.05,0.76-1.2,1.1-0.79,2.04C454.84,288.97,454.61,288.88,454.39,288.79z"/>
	<path style="fill-rule:evenodd;clip-rule:evenodd;fill:#F7C162;" d="M455.68,273.87c-0.87,0.1-0.86,0.96-1.27,1.46
		c-0.18-0.07-0.35-0.15-0.53-0.22c-0.26-1.02-0.01-1.62,0.82-1.97C455.11,273.27,455.43,273.52,455.68,273.87z"/>
	<path style="fill-rule:evenodd;clip-rule:evenodd;fill:#F7AE56;" d="M447.38,295.02c0.1-0.5-0.15-1.07,0.28-1.51
		c0.23,0.02,0.45,0.04,0.68,0.05c0.44,0.43,0.39,0.95,0.26,1.48C448.19,295.38,447.79,295.03,447.38,295.02z"/>
	<path style="fill-rule:evenodd;clip-rule:evenodd;fill:#F3CC82;" d="M448.6,295.04c-0.41-0.44-0.16-0.99-0.26-1.48
		c0.51-0.03,1.02-0.05,1.49,0.2c-0.74,0.19-0.44,0.8-0.52,1.26C449.07,295.02,448.84,295.03,448.6,295.04z"/>
	<path style="fill-rule:evenodd;clip-rule:evenodd;fill:#E6DAA1;" d="M451.72,274.36c1.34,0.08,1.69-0.83,1.9-1.89
		c0.26,0.15,0.51,0.29,0.77,0.44c-0.43,0.64-0.58,1.45-1.22,1.95C452.66,274.78,452.15,274.69,451.72,274.36z"/>
	<path style="fill-rule:evenodd;clip-rule:evenodd;fill:#F5D486;" d="M453.17,274.86c0.21-0.77,0.46-1.52,1.22-1.95
		c0.1,0.08,0.2,0.15,0.31,0.23c-0.39,0.61-0.76,1.22-0.82,1.97C453.64,275.02,453.41,274.94,453.17,274.86z"/>
	<path style="fill-rule:evenodd;clip-rule:evenodd;fill:#F69A30;" d="M445.85,284.69c-0.41-0.16-1.06,0.12-0.98-0.3
		c0.08-0.41,0.78-0.36,1.25-0.37c0.43-0.01,0.87,0,1.22,0.32C446.81,284.46,446.28,284.58,445.85,284.69z"/>
	<path style="fill-rule:evenodd;clip-rule:evenodd;fill:#56342A;" d="M444.04,263.8c-1.01,0.9-1.45,2-1.19,3.35
		C442.2,265.4,442.52,264.5,444.04,263.8z"/>
	<path style="fill-rule:evenodd;clip-rule:evenodd;fill:#613D33;" d="M456.53,300.98c0-0.27-0.04-0.54,0-0.81
		c0.18-1.04-0.34-0.89-0.97-0.59c0.23-0.36,0.6-0.95,0.92-0.63C457.02,299.49,456.88,300.29,456.53,300.98z"/>
	<path style="fill-rule:evenodd;clip-rule:evenodd;fill:#F1AA36;" d="M456.25,297.21c-0.09,0.39-0.33,0.68-0.72,0.82
		c-0.24,0.08-0.4-0.01-0.32-0.27c0.11-0.39,0.4-0.66,0.77-0.82C456.14,296.88,456.27,296.99,456.25,297.21z"/>
	<path style="fill-rule:evenodd;clip-rule:evenodd;fill:#4E342B;" d="M444.74,295.46c0,0.81,0,1.61,0.01,2.42
		C444.38,297.08,444.4,296.27,444.74,295.46z"/>
	<path style="fill-rule:evenodd;clip-rule:evenodd;fill:#56342C;" d="M456.76,291.63c-0.03,0.48-0.33,0.76-0.72,0.97
		C456.05,292.11,456.38,291.85,456.76,291.63z"/>
	<path style="fill-rule:evenodd;clip-rule:evenodd;fill:#653025;" d="M457.24,293.56c0.05-0.41-0.15-0.86,0.23-1.21
		C457.44,292.77,457.62,293.22,457.24,293.56z"/>
	<path style="fill-rule:evenodd;clip-rule:evenodd;fill:#DB8583;" d="M453.41,287.07c0.12-0.32,0.35-0.48,0.69-0.48
		C453.97,286.9,453.75,287.08,453.41,287.07z"/>
	<path style="fill-rule:evenodd;clip-rule:evenodd;fill:#DB7E7A;" d="M451.68,295.45c-0.21,0.4-0.58,0.25-0.91,0.26
		C451.08,295.62,451.38,295.53,451.68,295.45z"/>
	<path style="fill-rule:evenodd;clip-rule:evenodd;fill:#653025;" d="M457.47,291.89c-0.09-0.24-0.19-0.48-0.28-0.72
		C457.54,291.3,457.47,291.61,457.47,291.89z"/>
	<path style="fill-rule:evenodd;clip-rule:evenodd;fill:#E18D8B;" d="M450.99,284.43c-0.17,0.29-0.44,0.26-0.71,0.24
		C450.44,284.36,450.75,284.5,450.99,284.43z"/>
	<path style="fill-rule:evenodd;clip-rule:evenodd;fill:#E6DAA1;" d="M453.6,272.46c-0.15-0.08-0.3-0.15-0.44-0.23
		C453.3,272.31,453.45,272.38,453.6,272.46z"/>
	<path style="fill-rule:evenodd;clip-rule:evenodd;fill:#E1964B;" d="M456.59,287.31c-0.2-0.08-0.39-0.17-0.59-0.25
		C456.2,287.14,456.39,287.22,456.59,287.31z"/>
	<path style="fill-rule:evenodd;clip-rule:evenodd;fill:#771D1B;" d="M445.72,295.48c-0.16-0.08-0.31-0.16-0.47-0.24
		C445.4,295.32,445.56,295.4,445.72,295.48z"/>
	<path style="fill-rule:evenodd;clip-rule:evenodd;fill:#D88684;" d="M451.24,259.51c-0.15,0.07-0.31,0.14-0.46,0.21
		C450.94,259.65,451.09,259.58,451.24,259.51z"/>
	<path style="fill-rule:evenodd;clip-rule:evenodd;fill:#56342C;" d="M457.04,291.16c-0.1,0.16-0.19,0.32-0.29,0.48
		C456.75,291.42,456.81,291.24,457.04,291.16z"/>
	<path style="fill-rule:evenodd;clip-rule:evenodd;fill:#771D1B;" d="M445.23,295.24c-0.16,0.01-0.31,0.01-0.47,0.02
		C444.91,294.96,445.07,295.02,445.23,295.24z"/>
	<path style="fill-rule:evenodd;clip-rule:evenodd;fill:#A03E37;" d="M455.08,260.68c0.08-0.08,0.16-0.16,0.24-0.24
		C455.25,260.52,455.17,260.6,455.08,260.68z"/>
	<path style="fill-rule:evenodd;clip-rule:evenodd;fill:#A03E37;" d="M455.32,260.45c0.08-0.08,0.16-0.16,0.24-0.24
		C455.49,260.28,455.41,260.37,455.32,260.45z"/>
	<path style="fill-rule:evenodd;clip-rule:evenodd;fill:#A03E37;" d="M455.56,260.21c0.08-0.08,0.17-0.16,0.25-0.25
		C455.73,260.05,455.65,260.13,455.56,260.21z"/>
	<path style="fill-rule:evenodd;clip-rule:evenodd;fill:#A03E37;" d="M455.8,259.97c0.09-0.08,0.19-0.16,0.28-0.25
		C455.99,259.81,455.9,259.89,455.8,259.97z"/>
	<path style="fill-rule:evenodd;clip-rule:evenodd;fill:#C14B41;" d="M454.6,297.17c0.1-0.08,0.2-0.16,0.29-0.24
		C454.8,297.01,454.7,297.09,454.6,297.17z"/>
	<path style="fill-rule:evenodd;clip-rule:evenodd;fill:#7B1D1B;" d="M457,293.8c0.08-0.08,0.15-0.17,0.23-0.25
		C457.15,293.64,457.08,293.72,457,293.8z"/>
	<path style="fill-rule:evenodd;clip-rule:evenodd;fill:#AB3B34;" d="M455.8,281.73c-0.08,0.1-0.17,0.2-0.25,0.3
		C455.63,281.94,455.71,281.83,455.8,281.73z"/>
	<path style="fill-rule:evenodd;clip-rule:evenodd;fill:#AB3B34;" d="M454.05,282.86c-0.01,0.06-0.04,0.09-0.11,0.08
		c0,0,0.03-0.08,0.03-0.08H454.05z"/>
	<path style="fill-rule:evenodd;clip-rule:evenodd;fill:#C14B41;" d="M453.87,294.48c-0.08,0.09-0.16,0.18-0.24,0.28
		C453.71,294.66,453.79,294.57,453.87,294.48z"/>
	<path style="fill-rule:evenodd;clip-rule:evenodd;fill:#AB3B34;" d="M457,283.55c0.08-0.11,0.15-0.22,0.23-0.33
		C457.16,283.33,457.08,283.44,457,283.55z"/>
	<path style="fill-rule:evenodd;clip-rule:evenodd;fill:#791A19;" d="M455.12,303.6c0.02-0.08,0.07-0.14,0.15-0.17
		C455.26,303.52,455.21,303.58,455.12,303.6z"/>
	<path style="fill-rule:evenodd;clip-rule:evenodd;fill:#86CFE7;" d="M501.14,282.51c1.22,0.35,2.45,0.69,3.68,1.04
		c0.82,1.04,0.62,2.21-0.54,3.25c-1.28-0.01-2.49-0.32-3.62-0.91c-0.85-0.36-1.44-0.9-1.13-1.91
		C499.75,283.19,500,282.34,501.14,282.51z"/>
	<path style="fill-rule:evenodd;clip-rule:evenodd;fill:#FBD4AD;" d="M504.04,271.71c-1.64,0.71-3.33,1.29-5.06,1.75
		c-0.36-0.63-0.67-1.28-0.83-2c1.31-1.09,2.86-1.68,4.47-2.14c0.19-0.22,0.49-0.04,0.69-0.21l0.03-0.02
		C504.2,269.71,504.44,270.61,504.04,271.71z"/>
	<path style="fill-rule:evenodd;clip-rule:evenodd;fill:#87D0E7;" d="M501.12,257.57c1.77,0.73,3.51,1.54,5.08,2.66
		c0.51,0.76,0.34,1.46-0.44,1.39c-1.76-0.18-3.69-0.04-4.96-1.69C500.1,259.01,500.22,258.16,501.12,257.57z"/>
	<path style="fill-rule:evenodd;clip-rule:evenodd;fill:#87D0E8;" d="M501.87,294.02c0.09,0.02,0.17,0.04,0.26,0.06
		c0.29,0.19,0.66-0.05,0.94,0.2c0.25,0.02,0.49,0.04,0.74,0.06c0.86,0.34,1.14,1.01,0.88,1.84c-0.33,1.02-1.13,1.38-2.16,1.26
		l-0.09,0.02l-0.08-0.04c-0.85-0.51-1.52-1.13-1.48-2.23c0.02-0.5,0.16-0.93,0.65-1.18C501.63,293.95,501.75,293.95,501.87,294.02z"
		/>
	<path style="fill-rule:evenodd;clip-rule:evenodd;fill:#73BDDF;" d="M501.12,257.57c-0.85,1.45,0.07,3.19,1.8,3.32
		c0.68,0.05,1.31,0.19,1.97,0.39c0.78,0.24,1.73,0.35,1.31-1.05c0.34,0,0.55,0.2,0.72,0.47c0.13,1.08-0.82,1.9-2.04,1.68
		c-0.78-0.15-1.54-0.39-2.26-0.74c-0.92-0.32-1.74-0.79-2.43-1.48c-0.71-0.94-0.65-1.87,0.06-2.78c0.1-0.09,0.22-0.12,0.35-0.1
		C500.78,257.38,500.95,257.48,501.12,257.57z"/>
	<path style="fill-rule:evenodd;clip-rule:evenodd;fill:#1085C2;" d="M498.19,284.43c-0.53-0.5-1.07-1-1.6-1.5
		c-0.09-0.01-0.14-0.06-0.14-0.16c-0.05-0.08-0.1-0.16-0.15-0.24c0.5-0.66,0.76-1.56,1.74-1.74c0.08,0.05,0.17,0.1,0.25,0.15
		c0.09,0,0.14,0.04,0.16,0.13c0.49,0.29,0.99,0.58,1.48,0.87c0.13,1-0.59,1.65-1,2.43C498.81,284.63,498.46,284.6,498.19,284.43z"/>
	<path style="fill-rule:evenodd;clip-rule:evenodd;fill:#A8662B;" d="M506.71,267.9c0.76-0.42,1.53-0.83,2.28-1.26
		c0.26-0.15,0.52-0.24,0.78-0.04c0.3,0.24,0.24,0.54,0.14,0.87c-0.37,1.2-1.09,2.07-2.28,2.53
		C507,269.44,506.66,268.75,506.71,267.9z"/>
	<path style="fill-rule:evenodd;clip-rule:evenodd;fill:#063A57;" d="M495.66,257.04c-0.99-0.95-1.43-2.06-1.04-3.43
		c0.24-0.84,0.59-0.73,1.02-0.15c0.36,0.67,1.12,1.02,1.42,1.75C497.07,256.19,496.72,256.89,495.66,257.04z"/>
	<path style="fill-rule:evenodd;clip-rule:evenodd;fill:#B76F2C;" d="M497.83,287.37c-0.03,0.03-0.05,0.07-0.09,0.08
		c-0.66,0.12-1.22,1.03-1.87,0.54c-0.49-0.37-0.37-1.21-0.15-1.8c0.31-0.8,1.03-1.02,1.85-0.96
		C498.47,285.84,498.08,286.61,497.83,287.37z"/>
	<path style="fill-rule:evenodd;clip-rule:evenodd;fill:#0F7FBB;" d="M498.03,259.24c-0.5-0.48-0.99-0.95-1.49-1.43
		c0.43-0.72,0.64-1.61,1.52-1.99c0.4,0.24,0.79,0.48,1.19,0.73c0.39,0.91-0.17,1.67-0.43,2.47
		C498.73,259.32,498.38,259.46,498.03,259.24z"/>
	<path style="fill-rule:evenodd;clip-rule:evenodd;fill:#7DC4E0;" d="M500.91,300.01c0.58,0.2,1.52-0.14,1.66,0.72
		c0.16,1.01-0.12,1.96-1.22,2.42c-0.92-0.11-0.96-0.83-0.97-1.5C500.38,301.06,500.49,300.47,500.91,300.01z"/>
	<path style="fill-rule:evenodd;clip-rule:evenodd;fill:#DE872E;" d="M506.71,267.9c0.31,0.7,0.61,1.4,0.92,2.11
		c-0.49,0.32-0.92,0.75-1.55,0.77c-0.96-0.25-1.25-0.88-1.03-2.19c0.45-0.17,0.89-0.34,1.34-0.51c0.12-0.01,0.2-0.09,0.29-0.16
		L506.71,267.9z"/>
	<path style="fill-rule:evenodd;clip-rule:evenodd;fill:#0F81BE;" d="M499.02,296.35c-0.42-0.45-0.85-0.91-1.27-1.36
		c-0.04-0.08-0.1-0.14-0.17-0.2l-0.06-0.06c-0.06-0.06-0.12-0.13-0.17-0.19l-0.03-0.06c0.12-0.83,0.55-1.46,1.21-1.95
		c0.08,0.04,0.16,0.08,0.23,0.12c0.08,0.05,0.15,0.09,0.23,0.13c0.15,0.1,0.3,0.2,0.45,0.3c0.12,0.08,0.22,0.17,0.36,0.22
		c0.04-0.03,0.08-0.02,0.11,0.02c0.04,0.95-0.46,1.82-0.41,2.79C499.52,296.33,499.2,296.3,499.02,296.35z"/>
	<path style="fill-rule:evenodd;clip-rule:evenodd;fill:#6DB7DB;" d="M502.52,297.44c2.2-0.75,2.49-1.45,1.28-3.1
		c0.56-0.01,1.11-0.02,1.67-0.03c0.23,1.17,0.03,2.33,0.01,3.5C504.47,297.9,503.46,297.94,502.52,297.44z"/>
	<path style="fill-rule:evenodd;clip-rule:evenodd;fill:#146590;" d="M506.45,294.06c0.56-0.07,0.97-1.12,1.67-0.25
		c-0.74,0.99-0.6,2.17-0.71,3.3l-0.06,0.07c-0.03,0.08-0.08,0.12-0.17,0.13c-0.25,0.09-0.5,0.18-0.75,0.27
		C505.56,296.67,505.56,295.01,506.45,294.06z"/>
	<path style="fill-rule:evenodd;clip-rule:evenodd;fill:#033C5A;" d="M496.38,293.31c-0.57-0.3-0.71-0.83-0.74-1.41
		c-0.28-0.36,0.04-0.84-0.23-1.21c0-0.16,0-0.32,0-0.48c0.17-0.29,0.23-0.9,0.71-0.24l-0.01-0.01c0.23,0.35,0.5,0.67,0.77,0.97
		c0.21,0.24,0.42,0.48,0.63,0.73C497.53,292.47,497.44,293.22,496.38,293.31z"/>
	<path style="fill-rule:evenodd;clip-rule:evenodd;fill:#F6BD83;" d="M504.29,293.34c-1.12,0.05-2.21-0.07-3.16-0.74
		c0.86-0.71,1.95-0.54,2.94-0.75c0.3-0.07,0.63,0.01,0.95,0.02C505.29,292.62,504.85,293.01,504.29,293.34z"/>
	<path style="fill-rule:evenodd;clip-rule:evenodd;fill:#084262;" d="M507.86,283.75c0.32,0,0.65-0.01,0.97-0.01
		c0.19,0.88,0.19,1.76,0,2.64c-0.47,0.13-0.95,0.27-1.42,0.4C506.8,285.58,506.94,284.63,507.86,283.75z"/>
	<path style="fill-rule:evenodd;clip-rule:evenodd;fill:#083954;" d="M495.15,280.82c-0.33-0.55-0.49-1.16-0.46-1.79
		c0.02-0.41-0.25-1.01,0.21-1.19c0.59-0.23,0.64,0.54,0.97,0.82c0.18,0.34,0.5,0.58,0.67,0.94
		C496.34,280.93,496.01,281.22,495.15,280.82z"/>
	<path style="fill-rule:evenodd;clip-rule:evenodd;fill:#5DA9D1;" d="M502.63,261.64c0.69-0.08,1.32,0.2,1.96,0.38
		c1.19,0.33,1.98-0.11,2.33-1.31c0.35,0.01,0.55,0.24,0.73,0.5c-0.17,1.11-1.07,1.51-1.91,1.96
		C504.7,262.65,503.51,262.45,502.63,261.64z"/>
	<path style="fill-rule:evenodd;clip-rule:evenodd;fill:#A3642D;" d="M496.83,274.6c-0.15,0.18-0.3,0.37-0.45,0.55
		c-0.42,0.5-0.84,1.47-1.5,0.99c-0.62-0.45,0.02-1.3,0.32-1.93c0.15-0.32,0.32-0.65,0.69-0.78
		C496.48,273.6,496.71,274.05,496.83,274.6z"/>
	<path style="fill-rule:evenodd;clip-rule:evenodd;fill:#2E88B9;" d="M506.45,294.06c-0.39,1.17-0.39,2.35-0.01,3.52
		c-0.32,0.08-0.63,0.16-0.95,0.23c-0.65-1.17-0.23-2.33-0.01-3.5C505.8,294.22,506.12,294.14,506.45,294.06z"/>
	<path style="fill-rule:evenodd;clip-rule:evenodd;fill:#58A9D4;" d="M498.19,284.43c1.22-0.38,0.91-1.84,1.75-2.49
		c0.4,0.19,0.79,0.38,1.19,0.57c-1.68,0.84-1.87,2.16-0.49,3.38C499.66,285.68,498.98,284.97,498.19,284.43z"/>
	<path style="fill-rule:evenodd;clip-rule:evenodd;fill:#1479AE;" d="M499,302.86c-0.32-0.24-0.64-0.48-0.95-0.71
		c-0.15-1.11,0.44-1.97,0.97-2.86c0.28-0.05,0.51,0.05,0.71,0.25C500.19,300.7,499.89,302.07,499,302.86z"/>
	<path style="fill-rule:evenodd;clip-rule:evenodd;fill:#C97C32;" d="M496.83,274.6c-0.31-0.39-0.62-0.78-0.93-1.17l0.02-0.02
		c0.06-0.08,0.12-0.17,0.19-0.25c0.28-0.5,0.71-0.85,1.21-1.12c0.58,0.48,1.08,1,0.7,1.85C497.61,274.12,497.22,274.36,496.83,274.6
		z"/>
	<path style="fill-rule:evenodd;clip-rule:evenodd;fill:#3295C9;" d="M504.27,286.8c0.48-1.03,1.07-2.05,0.54-3.25
		c0.46,0.07,0.92,0.14,1.38,0.21c0.16,1.12-0.04,2.15-0.69,3.09C505.09,286.83,504.68,286.81,504.27,286.8z"/>
	<path style="fill-rule:evenodd;clip-rule:evenodd;fill:#0F689A;" d="M496.38,293.31c0.72-0.32,0.76-1.1,1.14-1.66l0.06,0.03
		c0.06,0.05,0.12,0.1,0.18,0.16c0.26,0.23,0.52,0.46,0.77,0.69c-0.28,0.73-0.7,1.37-1.21,1.95
		C496.99,294.1,496.52,293.84,496.38,293.31z"/>
	<path style="fill-rule:evenodd;clip-rule:evenodd;fill:#114D70;" d="M507.41,297.11c-0.3-1.21-0.75-2.46,0.71-3.3
		C508.43,295.03,508.71,296.24,507.41,297.11z"/>
	<path style="fill-rule:evenodd;clip-rule:evenodd;fill:#063B58;" d="M510.05,263.32c0.28,0.25,0.24,0.58,0.21,0.89
		c-0.04,0.41,0.25,0.99-0.26,1.17c-0.46,0.16-0.89-0.18-1.16-0.62c-0.71-0.67-0.18-1.22,0.22-1.71
		C509.5,262.5,509.78,263,510.05,263.32z"/>
	<path style="fill-rule:evenodd;clip-rule:evenodd;fill:#10618E;" d="M498.06,255.83c-0.49,0.67-0.66,1.59-1.52,1.99
		c-0.29-0.26-0.59-0.51-0.88-0.77c0.66-0.47,1.23-0.99,1.18-1.9c0.17-0.13,0.34-0.13,0.5,0.03
		C497.57,255.39,497.82,255.61,498.06,255.83z"/>
	<path style="fill-rule:evenodd;clip-rule:evenodd;fill:#CB853F;" d="M497.83,287.37c-0.22-0.7,0.22-1.48-0.26-2.14
		c0.9,0.06,2.06,0.29,2.14,1.13C499.79,287.1,498.51,287.05,497.83,287.37z"/>
	<path style="fill-rule:evenodd;clip-rule:evenodd;fill:#177DB2;" d="M505.5,286.84c0.23-1.03,0.46-2.06,0.69-3.09
		c0.24,0,0.47,0,0.71,0c0.21,1.03,0.35,2.06-0.23,3.04C506.28,286.82,505.89,286.83,505.5,286.84z"/>
	<path style="fill-rule:evenodd;clip-rule:evenodd;fill:#2F87B6;" d="M505.74,263.16c0.64-0.65,1.27-1.3,1.91-1.96
		c0.24,0.17,0.47,0.34,0.71,0.51c-0.16,0.84-0.78,1.42-1.19,2.12C506.69,263.61,506.21,263.38,505.74,263.16z"/>
	<path style="fill-rule:evenodd;clip-rule:evenodd;fill:#2891C8;" d="M499,302.86c0.49-1.05,0.68-2.17,0.72-3.31
		c0.16,0.07,0.32,0.15,0.47,0.22c0.26,0.2,0.49,0.42,0.39,0.8c-0.19,0.71-0.18,1.41-0.07,2.13c0.07,0.44-0.1,0.72-0.61,0.48
		C499.54,303.25,499.28,303.04,499,302.86z"/>
	<path style="fill-rule:evenodd;clip-rule:evenodd;fill:#E6943E;" d="M505.23,291.82c0.26-0.05,0.54-0.17,0.79-0.13
		c0.58,0.11,1.59-0.1,1.63,0.46c0.06,0.77-0.92,0.94-1.59,1.14c-0.25,0.08-0.54,0.01-0.82,0.01c-0.18-0.37-0.01-0.74,0.22-0.95
		C506,291.86,505.11,292.08,505.23,291.82z"/>
	<path style="fill-rule:evenodd;clip-rule:evenodd;fill:#073D5C;" d="M496.38,299.57c-0.01-0.08-0.02-0.16-0.03-0.24
		c-0.06-0.1-0.12-0.21-0.11-0.33c0.07-0.53-0.28-1.33,0.19-1.54c0.49-0.21,0.83,0.57,1.22,0.94c0.17,0.23,0.23,0.5,0.23,0.78
		c0,0.55,0.03,1.23-0.62,1.39C496.54,300.75,496.63,299.95,496.38,299.57z"/>
	<path style="fill-rule:evenodd;clip-rule:evenodd;fill:#E59F59;" d="M498.01,273.88c-0.23-0.62-0.47-1.23-0.7-1.85
		c0.24-0.26,0.47-0.53,0.85-0.58c0.58,0.54,0.95,1.16,0.83,2C498.66,273.59,498.33,273.74,498.01,273.88z"/>
	<path style="fill-rule:evenodd;clip-rule:evenodd;fill:#134E70;" d="M496.38,299.57c0.38,0.18,0.27,0.99,0.85,0.79
		c0.49-0.17,0.3-0.75,0.32-1.17c0.01-0.28,0-0.55-0.01-0.83c0.09-0.1,0.18-0.11,0.28,0c0.33,0.03,0.55,0.2,0.67,0.49
		c0.09,1.08,0.04,2.1-1.17,2.59C496.7,300.98,496.42,300.34,496.38,299.57z"/>
	<path style="fill-rule:evenodd;clip-rule:evenodd;fill:#0F6A9C;" d="M498.05,280.79c-0.7,0.46-0.83,1.49-1.74,1.74
		c-0.15-0.17-0.29-0.35-0.44-0.52c-0.08-0.05-0.13-0.12-0.17-0.2l-0.04-0.07c0.31-0.77,0.83-1.32,1.62-1.61
		C497.54,280.35,497.79,280.57,498.05,280.79z"/>
	<path style="fill-rule:evenodd;clip-rule:evenodd;fill:#14628D;" d="M506.67,286.8c0.1-1.01-0.21-2.05,0.23-3.04
		c0.32,0,0.64-0.01,0.96-0.01c-0.52,0.96-0.5,1.99-0.45,3.03C507.16,286.79,506.92,286.79,506.67,286.8z"/>
	<path style="fill-rule:evenodd;clip-rule:evenodd;fill:#2B90C5;" d="M498.03,259.24c1.18-0.54,0.73-1.83,1.22-2.69
		c0.24,0.14,0.48,0.28,0.71,0.42c0.23,0.87-0.39,1.63-0.33,2.5c0.02,0.35-0.38,0.43-0.73,0.25
		C498.57,259.65,498.25,259.54,498.03,259.24z"/>
	<path style="fill-rule:evenodd;clip-rule:evenodd;fill:#EFA55A;" d="M505.04,268.58c0.43,0.69,0.09,1.74,1.03,2.19
		c-0.36,0.36-0.82,0.5-1.29,0.64c-0.58-0.78-0.93-1.61-0.48-2.59C504.55,268.75,504.8,268.67,505.04,268.58z"/>
	<path style="fill-rule:evenodd;clip-rule:evenodd;fill:#6DB7DB;" d="M501.66,294.09c-1.28,1.42,0,2.32,0.69,3.34
		c-0.41-0.12-0.82-0.24-1.22-0.36c-0.09-0.04-0.17-0.08-0.26-0.12c-0.08,0.02-0.14-0.01-0.19-0.07c-0.49-1.09-0.66-2.15,0.25-3.13
		c0.17,0.05,0.34,0.1,0.52,0.15C501.56,293.91,501.63,293.97,501.66,294.09z"/>
	<path style="fill-rule:evenodd;clip-rule:evenodd;fill:#2994CC;" d="M499.02,296.35c0.45-0.96,0.1-2.16,0.9-3.02
		c0.16,0.08,0.32,0.15,0.49,0.23c0.27,0.92-0.19,1.8-0.12,2.72c0.02,0.3-0.38,0.3-0.66,0.17
		C499.42,296.42,499.22,296.39,499.02,296.35z"/>
	<path style="fill-rule:evenodd;clip-rule:evenodd;fill:#146895;" d="M507.17,263.83c-0.1-0.99,0.67-1.48,1.19-2.12
		c0.17,0.14,0.34,0.27,0.51,0.41c0.21,0.95-0.25,1.6-0.95,2.15l-0.06-0.03c-0.13-0.09-0.3-0.07-0.41-0.18
		C507.35,263.98,507.26,263.91,507.17,263.83z"/>
	<path style="fill-rule:evenodd;clip-rule:evenodd;fill:#52A5D2;" d="M499.91,303.17c0.6-1.09,0.25-2.27,0.29-3.41
		c0.24,0.08,0.48,0.16,0.71,0.24c0.06,1.06-0.77,2.25,0.44,3.14C500.87,303.46,500.39,303.51,499.91,303.17z"/>
	<path style="fill-rule:evenodd;clip-rule:evenodd;fill:#0E618E;" d="M497.34,301.44c0.81-0.67,0.8-1.72,1.17-2.59
		c0.09,0.07,0.19,0.14,0.28,0.21c0.06,0.1,0.12,0.2,0.23,0.25c0,0,0.01-0.02,0.01-0.02c-0.03,1.05-0.64,1.91-0.97,2.86
		c-0.17-0.15-0.34-0.31-0.5-0.46c-0.07-0.05-0.13-0.12-0.18-0.19L497.34,301.44z"/>
	<path style="fill-rule:evenodd;clip-rule:evenodd;fill:#124E70;" d="M507.92,264.27c0.32-0.71,0.63-1.43,0.95-2.15
		c0.64,0.16,1.02,0.57,1.19,1.2c-1.6-0.53-1.14,0.69-1.22,1.44C508.48,264.69,508.13,264.6,507.92,264.27z"/>
	<path style="fill-rule:evenodd;clip-rule:evenodd;fill:#F5C28E;" d="M504.31,268.83c0.16,0.86,0.32,1.72,0.48,2.59
		c-0.25,0.1-0.5,0.19-0.75,0.29c-0.06-0.91-0.23-1.8-0.69-2.61C503.67,269.01,503.99,268.92,504.31,268.83z"/>
	<path style="fill-rule:evenodd;clip-rule:evenodd;fill:#56A8D4;" d="M499.62,296.45c0.24-0.03,0.58-0.09,0.47-0.37
		c-0.37-0.92,0.26-1.68,0.32-2.52c0.17,0.06,0.34,0.13,0.52,0.19c-0.35,1.02-0.22,2.09-0.25,3.13
		C500.32,296.74,499.97,296.6,499.62,296.45z"/>
	<path style="fill-rule:evenodd;clip-rule:evenodd;fill:#54A5D2;" d="M498.91,259.73c0.57-0.03,0.61-0.43,0.56-0.84
		c-0.09-0.71,0.26-1.29,0.5-1.91c0.17,0.07,0.35,0.15,0.52,0.22c0,0.04-0.01,0.08-0.02,0.13c-0.54,0.91-0.44,1.87-0.27,2.84
		C499.74,260.11,499.28,260.04,498.91,259.73z"/>
	<path style="fill-rule:evenodd;clip-rule:evenodd;fill:#104D71;" d="M497.28,280.14c-0.46,0.62-0.97,1.18-1.62,1.61
		c-0.36-0.21-0.43-0.56-0.51-0.92c1,0.2,1-0.6,1.2-1.2c0.32-0.12,0.5,0.14,0.74,0.26C497.16,279.97,497.22,280.05,497.28,280.14z"/>
	<path style="fill-rule:evenodd;clip-rule:evenodd;fill:#F18C20;" d="M507.89,282.53c0.2-0.28,0.46-0.34,0.63-0.03
		c0.08,0.16-0.05,0.62-0.07,0.62c-0.82-0.04-1.73,0.55-2.44-0.3C506.58,282.38,507.29,282.87,507.89,282.53z"/>
	<path style="fill-rule:evenodd;clip-rule:evenodd;fill:#F6A85A;" d="M505.23,291.82c1.21,0.48,0.16,0.99,0.02,1.49
		c-0.32,0.11-0.63,0.34-0.96,0.03c0.24-0.49,0.48-0.98,0.73-1.47C505.08,291.83,505.15,291.81,505.23,291.82z"/>
	<path style="fill-rule:evenodd;clip-rule:evenodd;fill:#3B4D61;" d="M497.83,298.36c-0.09,0-0.19,0-0.28,0
		c-0.35-0.25-0.69-0.5-1.04-0.76c-0.33,0.55-0.07,1.15-0.16,1.72c-0.36-0.69-0.53-1.66,0.02-2.01
		C496.99,296.94,497.37,297.93,497.83,298.36z"/>
	<path style="fill-rule:evenodd;clip-rule:evenodd;fill:#E99031;" d="M497.65,295.91c0.06,0.33,0.04,0.5-0.17,0.47
		c-0.43-0.06-0.68-0.34-0.82-0.73c-0.07-0.2,0-0.47,0.23-0.36C497.21,295.44,497.46,295.75,497.65,295.91z"/>
	<path style="fill-rule:evenodd;clip-rule:evenodd;fill:#36465A;" d="M497.33,255.17c-0.17-0.01-0.33-0.02-0.5-0.03
		c-0.29-0.63-1.13-0.88-1.2-1.68C496.2,254.03,496.76,254.6,497.33,255.17z"/>
	<path style="fill-rule:evenodd;clip-rule:evenodd;fill:#3A4352;" d="M508.83,286.38c0-0.88,0-1.76,0-2.64
		C509.24,284.62,509.22,285.5,508.83,286.38z"/>
	<path style="fill-rule:evenodd;clip-rule:evenodd;fill:#F6F5F4;" d="M507.89,282.53c-0.57,0.5-1.27,0.09-1.89,0.29
		c-0.05-0.1-0.69-0.14-0.08-0.27C506.55,282.4,507.23,282.52,507.89,282.53z"/>
	<path style="fill-rule:evenodd;clip-rule:evenodd;fill:#3A4C5F;" d="M497.1,279.88c-0.25-0.09-0.49-0.17-0.74-0.26
		c-0.16-0.32-0.32-0.64-0.49-0.96C496.28,279.07,496.69,279.48,497.1,279.88z"/>
	<path style="fill-rule:evenodd;clip-rule:evenodd;fill:#344B60;" d="M496.12,289.96c-0.35-0.25-0.5,0.08-0.71,0.24
		c0-0.3-0.1-0.7,0.29-0.79C496.05,289.33,496.09,289.69,496.12,289.96z"/>
	<path style="fill-rule:evenodd;clip-rule:evenodd;fill:#3F4B5C;" d="M496.89,290.92c-0.44-0.18-0.74-0.47-0.77-0.97
		C496.51,290.17,496.8,290.47,496.89,290.92z"/>
	<path style="fill-rule:evenodd;clip-rule:evenodd;fill:#344B60;" d="M495.41,290.68c0.38,0.35,0.17,0.8,0.23,1.21
		C495.26,291.55,495.44,291.1,495.41,290.68z"/>
	<path style="fill-rule:evenodd;clip-rule:evenodd;fill:#6DB7DB;" d="M503.07,294.28c-0.33,0-0.67,0.1-0.94-0.2
		C502.44,294.14,502.75,294.21,503.07,294.28z"/>
	<path style="fill-rule:evenodd;clip-rule:evenodd;fill:#F5C28E;" d="M503.32,269.11c-0.18,0.25-0.44,0.22-0.69,0.21
		C502.86,269.25,503.09,269.18,503.32,269.11z"/>
	<path style="fill-rule:evenodd;clip-rule:evenodd;fill:#56A8D4;" d="M501.66,294.09c-0.08-0.06-0.15-0.13-0.23-0.19
		c0.15,0.04,0.29,0.08,0.44,0.12C501.8,294.05,501.74,294.07,501.66,294.09z"/>
	<path style="fill-rule:evenodd;clip-rule:evenodd;fill:#124E70;" d="M507.44,264.05c0.14,0.06,0.28,0.12,0.42,0.18
		C507.72,264.18,507.58,264.11,507.44,264.05z"/>
	<path style="fill-rule:evenodd;clip-rule:evenodd;fill:#0F689A;" d="M497.58,294.79c0.06,0.07,0.11,0.13,0.17,0.2
		C497.69,294.92,497.64,294.86,497.58,294.79z"/>
	<path style="fill-rule:evenodd;clip-rule:evenodd;fill:#A8662B;" d="M506.68,267.91c-0.1,0.05-0.19,0.11-0.29,0.16
		C506.48,268.02,506.58,267.96,506.68,267.91z"/>
	<path style="fill-rule:evenodd;clip-rule:evenodd;fill:#033C5A;" d="M497.76,291.84c-0.06-0.05-0.12-0.11-0.18-0.16
		C497.64,291.74,497.7,291.79,497.76,291.84z"/>
	<path style="fill-rule:evenodd;clip-rule:evenodd;fill:#0F6A9C;" d="M496.46,282.78c0.08,0.03,0.12,0.08,0.14,0.16
		C496.55,282.88,496.5,282.83,496.46,282.78z"/>
	<path style="fill-rule:evenodd;clip-rule:evenodd;fill:#0F6A9C;" d="M498.46,281.07c-0.08-0.01-0.14-0.05-0.16-0.13
		C498.4,280.93,498.45,280.97,498.46,281.07z"/>
	<path style="fill-rule:evenodd;clip-rule:evenodd;fill:#0F689A;" d="M499,292.79c-0.08-0.04-0.15-0.09-0.23-0.13
		C498.84,292.7,498.92,292.74,499,292.79z"/>
	<path style="fill-rule:evenodd;clip-rule:evenodd;fill:#2994CC;" d="M499.8,293.31c-0.12-0.07-0.24-0.15-0.36-0.22
		C499.57,293.16,499.68,293.24,499.8,293.31z"/>
	<path style="fill-rule:evenodd;clip-rule:evenodd;fill:#2B90C5;" d="M500.47,257.32c-0.01-0.04-0.01-0.09,0.02-0.13l0.09,0.01
		l0.04,0.09C500.57,257.31,500.52,257.32,500.47,257.32z"/>
	<path style="fill-rule:evenodd;clip-rule:evenodd;fill:#104D71;" d="M495.7,281.81c0.06,0.07,0.11,0.13,0.17,0.2
		C495.82,281.94,495.76,281.88,495.7,281.81z"/>
	<path style="fill-rule:evenodd;clip-rule:evenodd;fill:#56A8D4;" d="M500.86,296.96c0.09,0.04,0.18,0.08,0.26,0.12
		C501.04,297.03,500.95,296.99,500.86,296.96z"/>
	<path style="fill-rule:evenodd;clip-rule:evenodd;fill:#114D70;" d="M507.18,297.31c0.04-0.07,0.09-0.11,0.17-0.13
		C507.29,297.22,507.23,297.26,507.18,297.31z"/>
	<path style="fill-rule:evenodd;clip-rule:evenodd;fill:#1479AE;" d="M499.01,299.31c-0.08-0.08-0.15-0.17-0.23-0.25
		C498.86,299.14,498.94,299.23,499.01,299.31z"/>
	<path style="fill-rule:evenodd;clip-rule:evenodd;fill:#0F689A;" d="M497.35,294.54c0.06,0.06,0.12,0.13,0.17,0.19
		C497.47,294.67,497.41,294.61,497.35,294.54z"/>
	<path style="fill-rule:evenodd;clip-rule:evenodd;fill:#134E70;" d="M497.37,301.49c0.06,0.06,0.12,0.13,0.18,0.19
		C497.48,301.62,497.43,301.56,497.37,301.49z"/>
	<path style="fill-rule:evenodd;clip-rule:evenodd;fill:#A3642D;" d="M496.1,273.15c-0.06,0.08-0.13,0.17-0.19,0.25
		C495.97,273.32,496.03,273.24,496.1,273.15z"/>
	<path style="fill-rule:evenodd;clip-rule:evenodd;fill:#E6B4D1;" d="M472.12,261.17c1.53-1.02,3.23-1.59,5-1.98
		c1.11,0.54,0.89,1.49,0.74,2.42c-1.46,0.68-3.02,1.03-4.55,1.48C472.05,263.17,471.64,262.5,472.12,261.17z"/>
	<path style="fill-rule:evenodd;clip-rule:evenodd;fill:#B8DDBC;" d="M474.07,270.97c0.08,0,0.15,0.02,0.21,0.07
		c0.14,0.11,0.34,0.05,0.47,0.2c0.8,0.26,1.61,0.51,2.41,0.77c0.74,0.35,0.9,0.93,0.65,1.66c-0.3,0.88-0.99,1.26-2.13,1.21
		c-0.78-0.09-1.46-0.46-2.15-0.79c-0.12-0.1-0.31-0.07-0.4-0.21l-0.06-0.04c-0.08-0.06-0.16-0.11-0.25-0.14l-0.01-0.03
		c-0.71-0.59-0.63-1.28-0.25-1.99C472.89,271.08,473.32,270.67,474.07,270.97z"/>
	<path style="fill-rule:evenodd;clip-rule:evenodd;fill:#B6DCBA;" d="M475.25,281.74c0.16,0.03,0.31,0.06,0.47,0.1
		c0.3,0.2,0.68-0.03,0.98,0.19c0.08-0.02,0.15-0.01,0.22,0.04c0.22,0.16,0.49,0.06,0.73,0.14c0.12,0.05,0.22,0.13,0.31,0.23
		c0.57,1.8-0.06,2.69-1.77,2.49c-0.55-0.16-1.11-0.33-1.66-0.49C473.7,283.19,473.89,282.51,475.25,281.74z"/>
	<path style="fill-rule:evenodd;clip-rule:evenodd;fill:#7B2E85;" d="M482.43,259.46c-0.64,0.39-1.28,0.78-1.92,1.17
		c-0.47,0.07-0.97,0.2-1.19-0.43c-0.21-0.61-0.44-1.23,0.23-1.73c0.64-0.24,1.27-0.47,1.91-0.71
		C482.29,258.04,482.39,258.73,482.43,259.46z"/>
	<path style="fill-rule:evenodd;clip-rule:evenodd;fill:#58255B;" d="M477.64,279.83c1.13-0.4,2.29-0.16,3.43-0.16
		c0.29,0,0.55,0.15,0.6,0.48c0.06,0.33-0.16,0.5-0.4,0.67c-0.89,0.62-1.89,0.54-2.89,0.51C478.17,280.8,478.43,280.06,477.64,279.83
		z"/>
	<path style="fill-rule:evenodd;clip-rule:evenodd;fill:#0D5A2F;" d="M469.72,270.97c-1.02-0.92-1.24-2.13-1.19-3.41
		c0.03-0.8,0.39-0.45,0.7-0.17c0.35,0.68,1.15,1,1.38,1.77C470.49,269.85,470.63,270.67,469.72,270.97z"/>
	<path style="fill-rule:evenodd;clip-rule:evenodd;fill:#0C4D28;" d="M469.96,280.85c-0.14-0.19-0.29-0.37-0.4-0.58
		c-0.43-0.82-0.69-2.05-0.1-2.43c0.71-0.46,0.87,0.92,1.43,1.32c-0.07,0.09-0.06,0.17,0.03,0.23l0,0.01
		c0.08,0.08,0.15,0.16,0.24,0.24l0,0c0.2,1.14,0.03,1.4-0.96,1.45l-0.01-0.01C470.12,281,470.04,280.92,469.96,280.85z"/>
	<path style="fill-rule:evenodd;clip-rule:evenodd;fill:#9C659C;" d="M477.64,279.83c1.8-0.27,0.88,0.8,0.74,1.49
		c-1.04,0.05-2.04-0.16-3.03-0.48c-0.23-0.07-0.5-0.15-0.42-0.44c0.03-0.12,0.3-0.22,0.48-0.25
		C476.14,280.03,476.89,279.94,477.64,279.83z"/>
	<path style="fill-rule:evenodd;clip-rule:evenodd;fill:#ADD8B1;" d="M475.99,287.54c0.73,0.11,0.46,0.61,0.36,1
		c-0.22,0.84-0.57,1.58-1.59,1.65c-0.86-0.35-0.92-1.05-0.67-1.77C474.39,287.52,475.09,287.25,475.99,287.54z"/>
	<path style="fill-rule:evenodd;clip-rule:evenodd;fill:#5A255E;" d="M482.43,259.46c-0.32-0.57-0.64-1.13-0.96-1.7
		c0.09-0.07,0.17-0.19,0.28-0.22c0.68-0.18,1.42-1.22,1.99-0.44c0.57,0.78-0.31,1.51-0.9,2.11
		C482.72,259.32,482.56,259.38,482.43,259.46z"/>
	<path style="fill-rule:evenodd;clip-rule:evenodd;fill:#8BC592;" d="M475.68,274.88c1.85-0.44,2.4-1.49,1.48-2.87
		c0.49,0.09,0.98,0.17,1.46,0.26c0.7,1.16-0.08,2.06-0.51,3.03C477.27,275.34,476.45,275.24,475.68,274.88z"/>
	<path style="fill-rule:evenodd;clip-rule:evenodd;fill:#8AC492;" d="M474.07,270.97c-1.35,0.34-1.71,1.12-1.26,2.7
		c-0.72-0.24-1.22-0.77-1.76-1.26c0.3-0.82,0.63-1.63,1.06-2.39C472.77,270.34,473.42,270.65,474.07,270.97z"/>
	<path style="fill-rule:evenodd;clip-rule:evenodd;fill:#42A85E;" d="M478.11,275.29c-0.22-1.08,0.85-1.93,0.51-3.03
		c0.54,0.08,1.09,0.16,1.63,0.24c-0.45,0.89-0.15,1.96-0.66,2.84C479.1,275.33,478.61,275.31,478.11,275.29z"/>
	<path style="fill-rule:evenodd;clip-rule:evenodd;fill:#62B071;" d="M473.1,280.82c0.31,0.16,0.63,0.33,0.94,0.49
		c0.21,1.01-0.07,1.95-0.48,2.86c-0.71,0.05-1.14-0.33-1.45-0.92c-0.01-0.89,0.39-1.66,0.7-2.46
		C472.91,280.73,473.01,280.74,473.1,280.82z"/>
	<path style="fill-rule:evenodd;clip-rule:evenodd;fill:#5B285E;" d="M470.67,264.28c-0.47,0.64-0.94,1.29-1.81,1.4
		c-0.23,0.03-0.35-0.19-0.34-0.4c0.08-0.9,0.4-1.68,1.2-2.19C470.73,262.94,470.63,263.66,470.67,264.28z"/>
	<path style="fill-rule:evenodd;clip-rule:evenodd;fill:#8D4C94;" d="M479.55,258.47c-0.23,0.96-0.42,1.91,0.96,2.16
		c-0.64,0.25-1.27,0.49-1.91,0.74c-0.48-0.74-0.54-1.6-0.74-2.42C478.42,258.79,478.99,258.63,479.55,258.47z"/>
	<path style="fill-rule:evenodd;clip-rule:evenodd;fill:#1F8D49;" d="M472.8,280.82c0.23,0.94-0.33,1.65-0.69,2.42l0.01,0
		c-0.07-0.1-0.18-0.17-0.26-0.26c-0.43-0.21-0.73-0.54-0.94-0.96c0.18-0.64,0.38-1.28,0.91-1.74
		C472.25,280.29,472.57,280.47,472.8,280.82z"/>
	<path style="fill-rule:evenodd;clip-rule:evenodd;fill:#086835;" d="M481.94,281.35c0.01,0.07,0.02,0.13,0.03,0.2
		c0.16,0.72,0.17,1.45,0,2.17c-0.02,0.33-0.15,0.57-0.46,0.71c-0.17,0.15-0.36,0.17-0.56,0.09c-0.85-0.81-0.51-1.71-0.18-2.6
		c0.21-0.37,0.63-0.42,0.95-0.61l-0.01,0.01C481.8,281.25,481.87,281.26,481.94,281.35z"/>
	<path style="fill-rule:evenodd;clip-rule:evenodd;fill:#0B6232;" d="M470.45,287.3c-0.08-0.24-0.17-0.48-0.25-0.71
		c-0.22-0.46-0.12-0.94-0.09-1.41c0.03-0.36,0.27-0.46,0.59-0.25c0.23,0.23,0.47,0.46,0.7,0.7c0.08,0.09,0.15,0.18,0.24,0.25l0,0
		c0.57,0.88,0.26,1.41-0.97,1.7l0.01,0C470.6,287.48,470.52,287.39,470.45,287.3z"/>
	<path style="fill-rule:evenodd;clip-rule:evenodd;fill:#128742;" d="M479.59,275.34c0.19-0.95-0.66-2.15,0.66-2.84
		c0.24,0,0.48,0,0.72-0.01c-0.38,0.93,0.36,1.77,0.21,2.68c-0.39,0.1-0.82-0.1-1.18,0.16C479.87,275.33,479.73,275.34,479.59,275.34
		z"/>
	<path style="fill-rule:evenodd;clip-rule:evenodd;fill:#36A155;" d="M472.11,270.02c0.1,1-0.32,1.76-1.06,2.39
		c-0.31-0.31-0.61-0.63-0.92-0.94c0.48-0.63,0.69-1.44,1.26-2.01c0.16,0.12,0.32,0.24,0.49,0.36c0.1,0.06,0.16,0.17,0.26,0.23
		L472.11,270.02z"/>
	<path style="fill-rule:evenodd;clip-rule:evenodd;fill:#9FCFA4;" d="M473.56,284.16c-0.13-1,0.12-1.94,0.48-2.86
		c0.08,0.02,0.16,0.04,0.24,0.05c0.14,0.1,0.34,0.06,0.48,0.17c0.16,0.07,0.33,0.14,0.49,0.2c-0.74,0.77-1.21,1.61-0.74,2.71
		C474.2,284.35,473.88,284.26,473.56,284.16z"/>
	<path style="fill-rule:evenodd;clip-rule:evenodd;fill:#064D26;" d="M481.46,272.47c0.41-0.01,0.81-0.01,1.21-0.02
		c0.19,0.8,0.19,1.6,0,2.39l-0.03,0c-0.84,0.36-1.14-0.28-1.43-0.83C480.93,273.47,480.78,272.89,481.46,272.47z"/>
	<path style="fill-rule:evenodd;clip-rule:evenodd;fill:#8DC894;" d="M475.99,287.54c-1.71,0.18-2.17,1.16-1.23,2.65
		c-0.4,0.25-0.79,0.02-1.19-0.03c-0.57-1.5-0.44-2.08,0.71-3.08C474.84,287.23,475.42,287.39,475.99,287.54z"/>
	<path style="fill-rule:evenodd;clip-rule:evenodd;fill:#682A6D;" d="M470.93,276.09c-0.42,0.2-0.93,0.89-1.28,0.3
		c-0.35-0.59-0.48-1.45,0.28-2.03C471.04,274.36,471.34,274.88,470.93,276.09z"/>
	<path style="fill-rule:evenodd;clip-rule:evenodd;fill:#996499;" d="M472.12,261.17c0.13,0.81-0.1,1.84,1.2,1.92
		c-0.47,0.18-0.95,0.35-1.42,0.53c-0.97-0.19-1.09-0.87-0.96-1.69C471.34,261.68,471.59,261.21,472.12,261.17z"/>
	<path style="fill-rule:evenodd;clip-rule:evenodd;fill:#743978;" d="M470.94,261.93c0.3,0.58,0.32,1.31,0.96,1.69
		c-0.41,0.22-0.82,0.44-1.23,0.66c-0.36-0.36-0.27-1.08-0.94-1.18C470.04,262.61,470.41,262.18,470.94,261.93z"/>
	<path style="fill-rule:evenodd;clip-rule:evenodd;fill:#128A43;" d="M471.39,269.46c-0.19,0.81-0.25,1.71-1.26,2.01
		c-0.14-0.16-0.27-0.33-0.41-0.49c0.58-0.52,0.39-1.32,0.71-1.93c0.18-0.11,0.36-0.1,0.53,0.03
		C471.11,269.2,471.25,269.33,471.39,269.46z"/>
	<path style="fill-rule:evenodd;clip-rule:evenodd;fill:#98CE9E;" d="M476.18,284.93c1.61-0.16,2.02-0.91,1.46-2.66
		c0.47-0.24,0.89-0.11,1.1,0.33c0.33,0.68,0.22,1.39-0.17,2.04c-0.21,0.36-0.52,0.59-0.97,0.54
		C477.12,285.19,476.62,285.24,476.18,284.93z"/>
	<path style="fill-rule:evenodd;clip-rule:evenodd;fill:#076A35;" d="M481.46,272.47c-0.47,1.22,0.01,1.97,1.19,2.37
		c-0.4,0.13-0.8,0.26-1.2,0.39c-0.11-0.01-0.18-0.06-0.23-0.16c-0.46-0.83-1.27-1.62-0.25-2.59
		C481.14,272.48,481.3,272.48,481.46,272.47z"/>
	<path style="fill-rule:evenodd;clip-rule:evenodd;fill:#B87EB3;" d="M477.86,258.95c0.82,0.63,0.71,1.55,0.74,2.42
		c-0.25,0.08-0.49,0.16-0.74,0.24c-0.43-0.75-0.05-1.75-0.74-2.42C477.37,259.11,477.61,259.03,477.86,258.95z"/>
	<path style="fill-rule:evenodd;clip-rule:evenodd;fill:#76B47F;" d="M477.61,285.19c0.88-0.51,1.07-1.32,0.97-2.25
		c-0.06-0.58-0.46-0.68-0.94-0.67l0,0c-0.08-0.04-0.11-0.08-0.08-0.13c0.03-0.04,0.05-0.07,0.08-0.07c0.56-0.01,1.12-0.01,1.68-0.02
		c0.37,0.99-0.29,1.98,0.02,2.96c0.05,0.1,0.05,0.2,0.01,0.3C478.76,285.37,478.16,285.56,477.61,285.19z"/>
	<path style="fill-rule:evenodd;clip-rule:evenodd;fill:#359F54;" d="M472.37,286.34c0.23,0.09,0.46,0.18,0.69,0.26
		c0.34,1.14-0.12,2.33-1.04,2.66c-0.45-0.08-0.66-0.43-0.86-0.78C471.53,287.75,472.1,287.13,472.37,286.34z"/>
	<path style="fill-rule:evenodd;clip-rule:evenodd;fill:#1F8446;" d="M472.37,286.34c0.14,1.02-0.38,1.67-1.21,2.15
		c-0.32-0.22-0.47-0.53-0.49-0.92c0.46-0.49,1.42-0.69,0.97-1.7c0.16,0.08,0.32,0.16,0.48,0.24c0.08,0.08,0.15,0.18,0.25,0.24
		L472.37,286.34z"/>
	<path style="fill-rule:evenodd;clip-rule:evenodd;fill:#55AF67;" d="M472.02,289.26c0.74-0.73,0.82-1.73,1.04-2.66
		c0.17,0.07,0.33,0.14,0.5,0.2c0.06,0.05,0.17,0.13,0.16,0.16c-0.31,0.97-0.14,2.08-0.87,2.92
		C472.58,289.68,472.3,289.47,472.02,289.26z"/>
	<path style="fill-rule:evenodd;clip-rule:evenodd;fill:#106938;" d="M471.88,280.33c-0.33,0.56-0.26,1.35-0.97,1.7
		c-0.42-0.18-0.54-0.58-0.72-0.94c0.87-0.12,0.74-0.9,0.96-1.45c0.16,0.08,0.31,0.15,0.47,0.23
		C471.76,280,472.01,280.06,471.88,280.33z"/>
	<path style="fill-rule:evenodd;clip-rule:evenodd;fill:#389E55;" d="M479.34,285.32c-0.02-0.05-0.04-0.11-0.04-0.16
		c-0.16-1.07-0.06-2.11,0.28-3.14c0.31-0.08,0.63-0.15,0.94-0.23c0.02,0.05,0.04,0.11,0.05,0.16c-0.31,0.94-0.2,1.92-0.17,2.88
		c-0.02,0.12-0.07,0.22-0.16,0.29C479.94,285.2,479.64,285.26,479.34,285.32z"/>
	<path style="fill-rule:evenodd;clip-rule:evenodd;fill:#7F4183;" d="M470.93,276.09c-0.05-0.74,0.02-1.55-0.99-1.73
		c0.18-0.29,0.41-0.49,0.78-0.43c1.22,0.31,1.5,0.87,0.93,1.86C471.4,275.89,471.16,275.99,470.93,276.09z"/>
	<path style="fill-rule:evenodd;clip-rule:evenodd;fill:#74BC7E;" d="M472.85,289.89c0.24-1.03,0.47-2.05,0.71-3.08
		c0.24,0.09,0.48,0.18,0.71,0.27c-0.67,0.93-0.79,1.98-0.71,3.08C473.33,290.07,473.09,289.98,472.85,289.89z"/>
	<path style="fill-rule:evenodd;clip-rule:evenodd;fill:#A07C9B;" d="M471.65,273.91c0.51-0.16,0.95,0.14,1.42,0.21l-0.01-0.02
		c0.2,0.32,0.8,0.49,0.57,0.94c-0.23,0.45-0.81,0.43-1.27,0.51C472.14,275,471.85,274.48,471.65,273.91z"/>
	<path style="fill-rule:evenodd;clip-rule:evenodd;fill:#57B169;" d="M479.58,282.02c-0.01,1.05,0.01,2.11-0.28,3.14
		c-0.21-0.04-0.57,0.07-0.52-0.27c0.14-0.95,0.35-1.89,0.54-2.83C479.4,282.05,479.49,282.04,479.58,282.02z"/>
	<path style="fill-rule:evenodd;clip-rule:evenodd;fill:#A0659F;" d="M471.65,273.91c0.75,0.33,0.92,0.9,0.71,1.64
		c-0.24,0.08-0.48,0.16-0.72,0.24c0.24-0.9-0.12-1.49-0.93-1.86C471.02,273.92,471.34,273.92,471.65,273.91z"/>
	<path style="fill-rule:evenodd;clip-rule:evenodd;fill:#823D8E;" d="M480.81,271.81c-0.49-0.23-1.51,0.11-1.41-0.28
		c0.15-0.61,1.08-0.21,1.68-0.28c0.33-0.03,0.96-0.1,0.9,0.27C481.86,272.22,481.18,271.52,480.81,271.81z"/>
	<path style="fill-rule:evenodd;clip-rule:evenodd;fill:#3C5D43;" d="M470.97,269.07c-0.18-0.01-0.35-0.02-0.53-0.03
		c-0.31-0.62-1.12-0.87-1.21-1.65C469.81,267.95,470.39,268.51,470.97,269.07z"/>
	<path style="fill-rule:evenodd;clip-rule:evenodd;fill:#7A4F82;" d="M471.18,283.92c-0.41-0.1-0.66-0.37-0.72-0.78
		c-0.01-0.08,0.1-0.25,0.14-0.25c0.37,0.05,0.62,0.27,0.78,0.6C471.27,283.61,471.28,283.79,471.18,283.92z"/>
	<path style="fill-rule:evenodd;clip-rule:evenodd;fill:#334836;" d="M482.68,274.84c0-0.8,0-1.6,0-2.39
		C483.05,273.25,483.06,274.05,482.68,274.84z"/>
	<path style="fill-rule:evenodd;clip-rule:evenodd;fill:#415A45;" d="M470.7,284.93c-0.94,0.32-0.31,1.11-0.5,1.66
		C470.1,285.96,469.18,285.08,470.7,284.93z"/>
	<path style="fill-rule:evenodd;clip-rule:evenodd;fill:#3B473D;" d="M481.97,283.72c0-0.72,0-1.45,0-2.17
		C482.33,282.27,482.34,283,481.97,283.72z"/>
	<path style="fill-rule:evenodd;clip-rule:evenodd;fill:#526E57;" d="M471.88,280.33c-0.08-0.16-0.17-0.31-0.25-0.47
		c0.57,0.19,1.07,0.5,1.47,0.96c-0.1,0-0.2,0.01-0.3,0.01C472.49,280.66,472.19,280.5,471.88,280.33z"/>
	<path style="fill-rule:evenodd;clip-rule:evenodd;fill:#49624D;" d="M480.24,285.14c0.02-0.08,0.03-0.15,0.04-0.23
		c0.12-0.36,0.39-0.46,0.73-0.45c0.17-0.01,0.33-0.02,0.5-0.02C481.21,284.88,480.78,285.1,480.24,285.14z"/>
	<path style="fill-rule:evenodd;clip-rule:evenodd;fill:#436D4E;" d="M481.72,281.31c-0.24,0.17-0.47,0.33-0.71,0.49
		c-0.17,0.13-0.34,0.15-0.52,0.02l0.03-0.03C480.84,281.43,481.25,281.3,481.72,281.31z"/>
	<path style="fill-rule:evenodd;clip-rule:evenodd;fill:#42A85E;" d="M481.22,275.08c0.08,0.05,0.15,0.1,0.23,0.16
		c-0.48,0.03-0.97,0.06-1.45,0.1C480.35,274.95,480.81,275.14,481.22,275.08z"/>
	<path style="fill-rule:evenodd;clip-rule:evenodd;fill:#9FCFA4;" d="M476.7,282.03c-0.34,0.03-0.7,0.11-0.98-0.19
		C476.05,281.9,476.38,281.96,476.7,282.03z"/>
	<path style="fill-rule:evenodd;clip-rule:evenodd;fill:#98CE9E;" d="M477.64,282.08c0,0.06,0.01,0.13,0.01,0.19
		c-0.26,0-0.53,0.04-0.72-0.21C477.16,282.07,477.4,282.08,477.64,282.08z"/>
	<path style="fill-rule:evenodd;clip-rule:evenodd;fill:#8AC492;" d="M474.75,271.23c-0.16-0.07-0.31-0.13-0.47-0.2
		C474.44,271.1,474.59,271.17,474.75,271.23z"/>
	<path style="fill-rule:evenodd;clip-rule:evenodd;fill:#CFD1D2;" d="M471.18,283.92c0-0.18-0.07-0.38,0.2-0.43
		C471.43,283.69,471.48,283.88,471.18,283.92z"/>
	<path style="fill-rule:evenodd;clip-rule:evenodd;fill:#62B071;" d="M474.76,281.53c-0.16-0.06-0.32-0.11-0.48-0.17
		C474.44,281.42,474.6,281.48,474.76,281.53z"/>
	<path style="fill-rule:evenodd;clip-rule:evenodd;fill:#A07C9B;" d="M473.13,273.88c0.14,0.07,0.27,0.14,0.4,0.21
		c-0.16,0.01-0.31,0.01-0.47,0.02l0.01,0.02C473.09,274.04,473.11,273.96,473.13,273.88z"/>
	<path style="fill-rule:evenodd;clip-rule:evenodd;fill:#436D4E;" d="M481.94,281.35c-0.08,0-0.15-0.01-0.23-0.03
		C481.81,281.14,481.89,281.14,481.94,281.35z"/>
	<path style="fill-rule:evenodd;clip-rule:evenodd;fill:#106938;" d="M469.96,280.85c0.08,0.08,0.15,0.15,0.23,0.23
		C470.11,281,470.04,280.92,469.96,280.85z"/>
	<path style="fill-rule:evenodd;clip-rule:evenodd;fill:#1F8446;" d="M470.45,287.3c0.08,0.09,0.15,0.18,0.23,0.26
		C470.6,287.48,470.52,287.39,470.45,287.3z"/>
	<path style="fill-rule:evenodd;clip-rule:evenodd;fill:#106938;" d="M471.16,279.63c-0.08-0.08-0.16-0.16-0.24-0.24
		C471,279.48,471.08,279.56,471.16,279.63z"/>
	<path style="fill-rule:evenodd;clip-rule:evenodd;fill:#359F54;" d="M472.37,286.35c-0.08-0.08-0.17-0.16-0.25-0.24
		C472.2,286.19,472.29,286.27,472.37,286.35z"/>
	<path style="fill-rule:evenodd;clip-rule:evenodd;fill:#106938;" d="M470.92,279.39c-0.04-0.05-0.08-0.1-0.1-0.16
		c0-0.01,0.05-0.05,0.08-0.08C470.92,279.23,470.93,279.31,470.92,279.39z"/>
	<path style="fill-rule:evenodd;clip-rule:evenodd;fill:#62B071;" d="M471.86,282.99c0.09,0.09,0.17,0.17,0.26,0.26
		C472.03,283.16,471.95,283.08,471.86,282.99z"/>
	<path style="fill-rule:evenodd;clip-rule:evenodd;fill:#8AC492;" d="M472.14,270.04c-0.09-0.08-0.17-0.15-0.26-0.23
		C471.96,269.89,472.05,269.97,472.14,270.04z"/>
	<path style="fill-rule:evenodd;clip-rule:evenodd;fill:#A07C9B;" d="M472.82,273.7c0.08,0.05,0.17,0.09,0.25,0.14
		C472.99,273.79,472.9,273.74,472.82,273.7z"/>
	<path style="fill-rule:evenodd;clip-rule:evenodd;fill:#1F8446;" d="M471.64,285.88c-0.08-0.08-0.16-0.17-0.24-0.25
		C471.48,285.71,471.56,285.79,471.64,285.88z"/>
	<path style="fill-rule:evenodd;clip-rule:evenodd;fill:#168843;" d="M480.49,281.83c0.17-0.01,0.35-0.02,0.52-0.02
		c-0.12,0.88-0.54,1.77-0.01,2.65c-0.24,0.15-0.49,0.3-0.73,0.45C479.95,283.85,479.73,282.81,480.49,281.83z"/>
</g>
</svg>
