<?xml version="1.0" encoding="utf-8"?>
<!-- Generator: Adobe Illustrator 16.0.0, SVG Export Plug-In . SVG Version: 6.00 Build 0)  -->
<!DOCTYPE svg PUBLIC "-//W3C//DTD SVG 1.0//EN" "http://www.w3.org/TR/2001/REC-SVG-20010904/DTD/svg10.dtd" [
	<!ENTITY ns_flows "http://ns.adobe.com/Flows/1.0/">
	<!ENTITY ns_extend "http://ns.adobe.com/Extensibility/1.0/">
	<!ENTITY ns_ai "http://ns.adobe.com/AdobeIllustrator/10.0/">
	<!ENTITY ns_graphs "http://ns.adobe.com/Graphs/1.0/">
]>
<svg version="1.0" id="Layer_1" xmlns:x="&ns_extend;" xmlns:i="&ns_ai;" xmlns:graph="&ns_graphs;"
	 xmlns="http://www.w3.org/2000/svg" xmlns:xlink="http://www.w3.org/1999/xlink" xmlns:a="http://ns.adobe.com/AdobeSVGViewerExtensions/3.0/"
	 x="0px" y="0px" width="960px" height="560px" viewBox="0 0 960 560" style="enable-background:new 0 0 960 560;"
	 xml:space="preserve">
<path style="fill-rule:evenodd;clip-rule:evenodd;fill:#020101;" d="M455.83,271.46c-0.18,0.06-0.36,0.13-0.54,0.19
	c-0.96,0.46-1.97,0.03-2.94,0.17c-3.56,0.04-6.73,1.19-9.52,3.38c-2.01,1.2-3.36,2.98-4.46,5c-2.73,3.44-3.19,7.36-2.6,11.57
	c0.3,2.14,0.76,4.25,1.06,6.38c0.12,0.88,0.4,1.72,0.83,2.49c1.62,2.9,3.11,5.85,4.34,8.93c0.35,0.88,1.01,0.84,1.78,0.67
	c3.13-0.69,6.35-0.64,9.5-1.2c3.75-0.47,7.49-0.74,11.06-2.29c2.24-0.97,4.46-1.9,6.5-3.24c1.1-0.73,2.1-1.53,2.76-2.75
	c0.7-1.29,1.96-2.21,2.52-3.62c0.45-1.42,0.68-2.87,0.67-4.37c-0.11-0.92,0.16-1.87-0.16-2.78c-0.11-1.13-0.82-2.2-0.28-3.38
	c0.11-0.19,0.23-0.39,0.34-0.58c1.35,3.82,1.91,7.72,0.19,11.52c-1.42,3.14-3.61,5.71-6.63,7.55c-2.33,1.42-4.88,2.32-7.39,3.25
	c-3.02,1.12-6.27,1.35-9.46,1.75c-3.12,0.39-6.33,0.38-9.35,1.15c-1.91,0.48-2.53,0.69-3.2-1.52c-0.99-3.26-2.68-6.31-4.46-9.27
	c-0.81-1.34-0.61-2.94-0.91-4.42c-0.42-2.03-0.61-4.11-0.85-6.17c-0.38-3.29,0.32-6.25,2.05-9.17c2.29-3.86,5.17-7.01,9.32-8.62
	C449.1,270.89,452.45,270.29,455.83,271.46z"/>
<path style="fill-rule:evenodd;clip-rule:evenodd;" d="M522.31,274.48c-0.05-0.31-0.02-0.73-0.43-0.75
	c-1.26-0.05-2.61-0.36-3.73,0.42c-0.71,0.49-1.43,0.7-2.22,0.66c-4.47-0.2-9.01,0.18-13.33-1.41c-2.23-0.82-4.37-1.78-6.23-3.34
	c-2.72-2.28-5.87-3.58-9.43-2.66c-1.57,0.4-2.76,0.76-3.99-0.68c-0.47-0.55-1.36-0.89-2.22-1.03c-0.63-0.1-0.91-0.38-0.52-1.14
	c2.01-3.92,1.97-7.84-0.02-11.79c-1.12-2.22-3.16-3.6-5.17-3.29c-3.65,0.56-6.5,2.36-8.35,5.59c-0.61,1.07-1.16,2.29-1.08,3.49
	c0.2,3.28,1.75,6.15,3.19,9.02c0.58,1.15,0.21,2.48-1.06,2.84c-1.27,0.36-1.8,1.07-1.43,2.38c0.05,0.17,0.07,0.49-0.03,0.55
	c-1.3,0.89-2.2,2.32-3.8,2.83c-0.59,0.19-0.86-0.01-0.98-0.49c-0.76-2.92-3.13-3.67-5.65-4.21c-0.21-0.09-0.42-0.15-0.59,0.08
	c0.1,0.66,0.77,0.62,1.15,0.95c0.08,0.06,0.16,0.12,0.24,0.18c0.14,0.15,0.19,0.35,0.27,0.52c0.23,0.38,0.6,0.52,1.01,0.4
	c0.65-0.19,1.04,0.15,1.43,0.56c0.25,0.24,0.51,0.46,0.73,0.72c0.08,0.11,0.15,0.22,0.2,0.35c0.05,0.17,0.08,0.35,0.13,0.52
	c0.04,0.13,0.08,0.26,0.13,0.39c0.02,0.09,0.05,0.18,0.08,0.27c0.03,0.09,0.06,0.18,0.11,0.27c0.06,0.13,0.13,0.27,0.21,0.39
	c0.26,0.44,0.57,0.86,0.84,1.29c0.29,0.43,0.59,0.84,0.7,1.36c0.03,0.1,0.06,0.2,0.1,0.3c0.12,0.31,0.13,0.65,0.37,0.91
	c0.09,0.07,0.19,0.12,0.3,0.16c0.33,0.08,0.66,0.11,0.99,0.19c0.39,0.04,0.77-0.08,1.16-0.08c0.29-0.03,0.56,0.08,0.83,0.15
	c0.11,0.03,0.23,0.05,0.35,0.06c0.43,0.04,0.86,0.05,1.29,0.04c1.07-0.1,2.05,0.36,3.1,0.45c1.35,0.09,2.44,0.67,3.33,1.67
	c0.28,0.31,0.4,0.56-0.19,0.55c-0.98-0.01-1.1,0.61-1,1.37c0.08,0.59,0.22,1.17,0.37,1.75c0.13,0.49,0.64,1.11,0.27,1.43
	c-0.45,0.39-0.98-0.27-1.5-0.42c-0.65-0.18-1.29-0.77-1.97-0.08c-0.47,1.5,0.16,2.81,0.71,4.13c0.08,0.33,0.43,0.72,0.14,0.99
	c-0.36,0.33-0.71-0.12-1.04-0.28c-0.25-0.12-0.44-0.32-0.67-0.47c-0.87-0.58-1.54-1.49-2.64-1.71c-0.51,0.1-0.66,0.53-0.83,0.93
	c-0.43,1.07-0.95,2.11-1.2,3.24c-0.17,0.76-0.48,1-1.2,0.67c-0.1,0.05-0.17,0.14-0.21,0.25c-0.03,0.62,0.39,1.04,0.68,1.52
	c0.11,0.14,0.24,0.25,0.41,0.31c0.12,0.02,0.23,0.01,0.34-0.03c0.15-0.08,0.28-0.2,0.37-0.35c0.33-0.59,0.47-1.25,0.71-1.88
	c0.1-0.38,0.18-0.76,0.28-1.14c0.56-2.14,0.79-2.23,2.57-0.95c0.13,0.09,0.26,0.19,0.4,0.28c0.09,0.06,0.18,0.12,0.27,0.18
	c0.42,0.25,0.83,0.52,1.26,0.73c0.2,0.1,0.41,0.2,0.63,0.26c0.63,0.19,1.21,0.27,1.37-0.61c0.01-0.17,0-0.35-0.04-0.52
	c-0.05-0.21-0.12-0.42-0.17-0.63c-0.03-0.16-0.06-0.32-0.11-0.47c-0.03-0.1-0.07-0.2-0.12-0.3c-0.04-0.1-0.08-0.2-0.14-0.29
	c-0.1-0.22-0.21-0.43-0.28-0.65c-0.17-0.63-0.75-1.48-0.3-1.88c0.54-0.49,1.28,0.23,1.91,0.51c0.33,0.2,0.72,0.11,1.06,0.24
	c0.15,0.06,0.29,0.13,0.45,0.17c0.11,0.02,0.22,0.04,0.33,0.03c0.87-0.16,0.56-0.71,0.37-1.17c-0.35-0.84-0.87-1.61-1.09-2.51
	c-0.08-0.34-0.21-0.76,0.15-0.99c0.41-0.27,0.75,0,1.04,0.31c0.26,0.27,0.4,0.73,0.92,0.6c0.24-0.17,0.2-0.4,0.11-0.63
	c-0.08-1.63-1.23-2.63-2.26-3.65c-1.45-1.44-3.43-1.49-5.3-1.79c-0.49-0.08-1.13,0.05-1.26-0.61c-0.34-1.72,1.01-3.99,2.7-4.63
	c0.51-0.19,1.17-0.55,1.11-0.98c-0.21-1.55,1.3-2.16,1.67-3.38c0.22-0.72,1.56-0.93,2.04-0.35c0.51,0.62,1.13,0.91,1.89,1.14
	c0.68,0.21,1.35,0.68,1.86,1.2c0.39,0.4-0.27,0.81-0.36,1.27c-0.49,2.46-0.75,4.94,0.37,7.26c2.03,4.19,4.59,8.11,6.02,12.6
	c1.13,3.53,1.55,7.09,0.58,10.69c-0.71,2.61,0.04,3.77,2.71,3.43c3.33-0.42,6.75-0.52,9.81-2.19c0.27-0.15,0.6-0.23,0.91-0.28
	c3.72-0.67,6.75-2.79,9.82-4.78c3.62-2.33,6.24-5.79,9.42-8.62c0.54-0.48,0.94-1.07,1.22-1.75c0.8-1.96,1.74-3.87,2.23-5.96
	C522.66,281.29,522.92,277.91,522.31,274.48z M477.91,265.25c-0.15,0.47-0.66,0.55-1.02,0.77c-0.85,0.51-1.67,0.96-2.09,2.01
	c-0.27,0.66-0.92,0.84-1.83,0.44c-2.6-1.13-2.35-3.8-3.28-5.8c-0.66-1.43-0.99-3.06-0.86-4.75c0.31-3.96,4.55-6.36,7.93-4.31
	c1.3,0.79,2.11,2.1,2.33,3.67c0.12,0.83,0.17,1.67,0.25,2.49C479.33,261.73,478.49,263.46,477.91,265.25z"/>
<path style="fill-rule:evenodd;clip-rule:evenodd;fill:#E58727;" d="M442.53,275c2.83-2.23,6-3.51,9.64-3.48
	c0.69,0.2,1.5-0.1,2.08,0.58c0.4,0.47,0.53,0.87-0.08,1.24c-0.51,0.28-1.04,0.44-1.63,0.41c-1.2-0.64-2.45-0.58-3.72-0.25
	c-4.62,1.21-7.78,5.2-7.82,9.98c-0.01,1.19-0.39,2.38-0.05,3.57c0.09,1.61-0.21,3.17-0.48,4.75c-0.35,2-0.63,4.03-0.38,6.07
	c0.57,4.57,3.77,7.33,8.57,7.59c2.79,0.15,5.34-0.58,7.57-2.15c3.19-2.25,6.72-3.8,10.18-5.53c1.7-0.85,3.4-1.78,4.71-3.23
	c0.49,0.02,1.27,0.7,1.23-0.52c0.79-0.95,1.51-1.94,1.99-3.09c0.12-0.29,0.25-0.6,0.64-0.62c0.99,0.16,1.18,0.51,0.78,1.55
	c-0.68,1.77-1.9,3.15-3.4,4.23c-2.75,1.99-5.72,3.57-8.89,4.81c-1.33,0.52-2.64,1.12-3.79,2c-0.09,0.08-0.19,0.15-0.29,0.22
	c-0.33,0.18-0.61,0.43-0.92,0.64c-2.53,1.57-5.11,3-8.15,3.25c-4.09,0.34-7.59-0.79-10.08-4.24c-1.7-2.36-2.07-5.06-1.78-7.88
	c0.3-3.02,0.81-6.02,0.62-9.07C438.82,281.78,439.71,278.09,442.53,275z"/>
<path style="fill-rule:evenodd;clip-rule:evenodd;fill:#D1ECF5;" d="M495.32,280.59c0.69,1.19,1-0.3,1.53-0.22
	c1.06-0.14,1.94,0.42,2.82,0.82c2.8,1.27,5.68,2.22,8.71,2.74c0.54,0.09,1.07,0.29,1.58,0.53c0.17,0.09,0.33,0.19,0.47,0.32
	c2.7,2.63,2.81,5.27,0.39,8.12c-1.01,1.19-2.26,2.02-3.63,2.69c-0.71,0.35-1.5,0.62-2.28,0.11c-0.36-0.34-0.83-0.63-0.69-1.24
	c0.24-0.3,0.58-0.4,0.94-0.47c1.95-0.38,3.42-1.52,4.57-3.06c1.42-1.9,0.67-4.14-1.57-4.91c-1.33-0.46-2.74-0.57-4.12-0.79
	c-1-0.16-1.95-0.45-2.79-1.03c-1.2-0.84-2.53-1.37-3.95-1.68c-1.61-0.36-3.16-0.85-4.54-1.8c-0.62-0.43-1.33-0.69-1.97-0.07
	c-0.59,0.57-0.37,1.26-0.08,1.9c0.45,0.99,1.01,1.92,1.76,2.7c1.41,1.47,2.65,3.1,4.21,4.43c0.2,0.75,0.84,1.46,0.15,2.26
	c-0.36,0.07-0.64-0.12-0.82-0.38c-1.53-2.3-3.66-4.09-5.36-6.24c-0.67-0.85-1.23-1.78-1.6-2.79c-0.41-1.13-0.51-2.32,0.44-3.24
	c0.89-0.85,2.01-0.87,3.13-0.42c0.85,0.34,1.74,0.6,2.44,1.23C495.16,280.25,495.25,280.42,495.32,280.59z"/>
<path style="fill-rule:evenodd;clip-rule:evenodd;fill:#01B5C0;" d="M486.83,302.91c0.06-1.56,1.13-0.85,1.89-0.84
	c0.27,0,0.65,0.14,0.78,0.02c0.25-0.26,0.01-0.62-0.17-0.85c-0.42-0.53-0.85-1.07-1.36-1.49c-0.88-0.72-0.74-1.28,0.13-1.83
	c0.17-0.11,0.35-0.21,0.48-0.35c0.27-0.32,0.89-0.49,0.74-0.98c-0.15-0.52-0.75-0.28-1.15-0.36c-0.53-0.1-1.37,0.24-1.55-0.24
	c-0.38-0.97-1.05-1.89-1.01-2.99c0.04-0.86,0.5-1.3,1.41-1.12c0.27,0.05,0.54,0.12,0.81,0.16c0.5,0.07,1.17,0.32,1.42-0.21
	c0.25-0.54-0.51-0.67-0.82-0.99c-0.08-0.08-0.2-0.12-0.3-0.19c-1.66-1.06-1.66-1.06-0.41-2.6c0.44-0.1,0.67,0.21,0.86,0.5
	c1.86,2.86,3.47,5.82,3.93,9.27c0.37,2.8-1.6,5.39-4.36,5.74c-0.44,0.06-0.88,0.12-1.2-0.3
	C486.87,303.17,486.83,303.05,486.83,302.91z"/>
<path style="fill-rule:evenodd;clip-rule:evenodd;fill:#B5262D;" d="M480.29,260.44c-0.12-1.07-0.03-2.14-0.26-3.21
	c-0.63-2.88-2.4-4.64-5.19-5.29c-1.64-0.38-3,0.6-4.25,1.53c-1.92,1.43-3.63,4.6-2.22,7.77c0.89,2,1.42,4.16,2.13,6.24
	c0.08,0.23,0.24,0.46-0.04,0.63c-0.28,0.18-0.42-0.06-0.56-0.26c-1.77-2.55-3-5.39-3.51-8.39c-0.55-3.25,2.04-6.83,5.58-8.37
	c0.89-0.39,1.83-0.82,2.77-0.92c2.42-0.25,4.41,1.04,5.19,3.53c0.68,2.17,1.52,4.4,0.73,6.76
	C480.53,260.58,480.4,260.58,480.29,260.44z"/>
<path style="fill-rule:evenodd;clip-rule:evenodd;fill:#901E21;" d="M462.72,279.64c0.04,0.06,0.04,0.11,0.03,0.18
	c0.22,0.3-0.08,0.74,0.25,1.02c0.07,0,0.15,0.02,0.22,0.04c0.32,0.18,0.7,0,1.02,0.17c0.38-0.06,0.75-0.12,1.13-0.17
	c0.22,0.16,0.52,0,0.73,0.19c0.07,0,0.15,0.01,0.22,0.03c0.71,0.91,0.35,2.01,0.5,3.01c0.24,1.7,0.23,3.42,0.37,5.13
	c0.05,0.58,0.1,1.21-0.39,1.69c-1.07,1.22-1.45,2.79-1.8,4.28c-0.32,1.35-0.7,1.35-1.55,0.5c-0.56-0.42-1.03-0.93-1.59-1.35
	c-0.12-0.14-0.2-0.29-0.24-0.46c-0.02-0.19,0.02-0.36,0.12-0.52c2.82-2.2,3.16-5.24,2.7-8.45c-0.43-3.06-2.56-4.45-5.72-3.91
	c-1.81,0.31-3.46,0.97-4.79,2.3c-0.12,0.07-0.24,0.1-0.37,0.11c-0.21,0-0.39-0.06-0.52-0.23c-0.16-0.52,0.15-0.84,0.5-1.1
	c2.4-1.76,5.15-2.54,8.07-2.8C462.01,279.27,462.41,279.34,462.72,279.64z"/>
<path style="fill-rule:evenodd;clip-rule:evenodd;fill:#EBA12C;" d="M471.12,294.56c0.42,0.59-0.14,0.76-0.46,0.99
	c-2.77,2.04-5.85,3.53-9,4.88c-1.96,0.84-3.62,2.16-5.36,3.32c-4.08,2.72-11.13,3.11-14.55-1.02c-2-2.42-2.21-5.22-1.99-8.21
	c0.19-2.49,1.06-4.9,0.87-7.43c0.85,0.17,0.67,1.01,0.97,1.53c0.21,0.91,0.04,1.81-0.14,2.7c-0.29,2.21-0.86,4.38-0.51,6.66
	c0.51,3.28,3.21,5.98,6.46,6.55c3.62,0.63,6.67-0.53,9.54-2.59c1.42-1.02,2.74-2.21,4.39-2.89c3.47-0.81,6.42-2.67,9.29-4.7
	C470.8,294.41,470.96,294.48,471.12,294.56z"/>
<path style="fill-rule:evenodd;clip-rule:evenodd;fill:#B1E0ED;" d="M504.95,295.48c0.53,0.36,1.07,0.2,1.59,0.01
	c2.62-0.98,6-3.83,5.64-6.99c-0.17-1.52-1.08-2.5-1.98-3.55c0.03-0.05,0.05-0.11,0.08-0.17c0.3-0.34,0.67-0.55,1.13-0.56
	c2.01,0.68,3.25,3.14,2.67,5.26c-1.68,3.3-4.25,5.79-7.22,7.91c-1.78,0.76-3.56,0.57-5.33-0.01c-0.52-0.17-0.93-0.47-0.88-1.11
	c0.11-0.52,0.43-0.92,0.97-0.9C502.73,295.43,503.85,295.19,504.95,295.48z"/>
<path style="fill-rule:evenodd;clip-rule:evenodd;fill:#01B6C1;" d="M486.94,268.03c0.33-0.24,0.68-0.45,1.09-0.38
	c2.43,0.39,4.94,0.48,6.92,2.29c0.81,0.74,1.77,1.31,2.67,1.95c0.33,0.24,0.92,0.25,0.82,0.86c-0.08,0.47-0.46,0.76-0.88,0.89
	c-0.56,0.17-1.15,0.26-1.73,0.39c-3.06-1.31-5.68-3.34-8.43-5.17C487.13,268.67,486.72,268.51,486.94,268.03z"/>
<path style="fill-rule:evenodd;clip-rule:evenodd;fill:#D3E7C2;" d="M515.02,294.73c-2,1.93-3.7,4.2-6.22,5.55
	c-1.34,0.22-2.08-0.53-1.93-1.96c1.64-1.73,3.76-2.92,5.31-4.76c0.33-0.42,0.6-1.1,1.27-0.78
	C514.24,293.16,515.13,293.57,515.02,294.73z"/>
<path style="fill-rule:evenodd;clip-rule:evenodd;fill:#C7E8F2;" d="M495.12,280.36c-0.87-0.4-1.74-0.79-2.61-1.19
	c-1.04-0.47-2.09-0.4-2.89,0.38c-0.78,0.78-0.67,1.86-0.31,2.81c0.45,1.2,1.12,2.29,1.97,3.26c1.82,2.09,3.67,4.17,5.5,6.25
	c0.22,0.19,0.22,0.42,0.11,0.66c-0.47,0.31-0.81-0.05-1-0.34c-1.76-2.68-4.36-4.65-6.13-7.32c-0.62-0.94-1.12-1.93-1.48-2.99
	c-0.31-0.93-0.88-1.48-1.92-1.47c-0.64,0-1.27-0.13-1.83-0.47c-0.08-0.09-0.13-0.2-0.15-0.32c-0.02-0.66,0.41-0.9,0.97-0.99
	c0.32-0.05,0.64-0.02,0.95,0.03c0.62,0.1,1.46,0.47,1.78-0.07c0.33-0.53-0.5-0.94-0.87-1.38c-0.76-0.9-0.66-1.61,0.39-2.97
	c0.12-0.14,0.25-0.26,0.39-0.37c0.1-0.08,0.21-0.12,0.34-0.13c0.98,0.25,1.04,1.19,1.21,1.89c0.37,1.5,1.16,2.3,2.71,2.56
	c1.19,0.21,2.39,0.6,3.16,1.7c-0.03,0.08-0.05,0.15-0.08,0.23C495.29,280.23,495.22,280.31,495.12,280.36z"/>
<path style="fill-rule:evenodd;clip-rule:evenodd;fill:#46080A;" d="M471.11,281.58c1.67-0.01,2.74,1.08,3.81,2.14
	c0.18,0.18,0.37,0.48,0.18,0.76c-0.18,0.26-0.44,0.05-0.65-0.01c-1.14-0.32-1.34,0.18-1.05,1.17c0.26,0.87,0.48,1.76,0.71,2.63
	c0.08,0.29,0.36,0.64,0.09,0.87c-0.28,0.25-0.68,0.07-1.01-0.08c-0.9-0.4-1.74-0.97-2.78-1.02c-0.43,0.06-0.53-0.27-0.65-0.55
	C469.02,285.76,469.69,282.85,471.11,281.58z"/>
<path style="fill-rule:evenodd;clip-rule:evenodd;fill:#721819;" d="M466.8,290.94c-0.16-3.28-0.32-6.56-0.48-9.84
	c0.48,0.01,0.97,0.01,1.46,0.02c1.06-0.04,1.26,0.48,1.02,1.43c-0.42,1.64-0.4,3.29-0.17,4.97c0.27,2,1.03,3.66,2.69,4.86
	c0.12,0.49,0.58,1.11,0.17,1.45c-0.48,0.4-1.01-0.2-1.43-0.49C468.93,292.58,467.88,291.74,466.8,290.94z"/>
<path style="fill-rule:evenodd;clip-rule:evenodd;fill:#E37825;" d="M459.36,302.92c1-1.24,2.51-1.7,3.87-2.24
	c3.16-1.25,6.12-2.83,8.88-4.77c1.51-1.06,2.72-2.45,3.4-4.22c0.22-0.56,0.48-1.22-0.56-1.26c-0.08-0.04-0.11-0.09-0.08-0.14
	c0.03-0.05,0.05-0.07,0.08-0.07c0.49,0.01,0.78-0.04,0.44-0.65c-0.47-0.87-0.9-1.77-1.25-2.69c-0.22-0.58-0.43-1.46,0.28-1.66
	c0.59-0.17,1.5,0,1.69,0.98c0.03,0.15,0.14,0.28,0.21,0.42c0.19,1.09,0.38,2.19,0.57,3.28c0.02,1.95-0.89,3.5-2.13,4.9
	c-2.29,2.58-5.29,4.09-8.33,5.52c-1.99,0.94-4.11,1.56-6.07,2.55C460.05,303.04,459.71,303.2,459.36,302.92z"/>
<path style="fill-rule:evenodd;clip-rule:evenodd;fill:#62C8D8;" d="M488.61,286.6c-0.06-0.3-0.1-0.61-0.46-0.72
	c-0.53-0.1-0.77-0.55-0.99-0.95c-0.66-1.22-1.6-2.14-2.78-2.85c-0.37-0.22-0.78-0.44-0.7-0.99c0.06-0.18,0.18-0.3,0.37-0.32
	c1.51,0.59,2.82,1.42,3.65,2.9c1.43,2.55,3.49,4.64,5.31,6.9c1.02,1.27,1.52,2.79,2.41,4.1c-0.23,0.63,0.13,1.07,0.5,1.51
	c0.83,2.59,0.46,4.99-1.05,7.23c-0.62,0.52-1.4,0.61-2.15,0.79c-0.31-0.35-0.14-0.7,0.07-0.98c2.73-3.86,1.56-7.55-0.45-11.23
	c-0.94-1.73-2.3-3.15-3.4-4.76C488.81,287.03,488.65,286.84,488.61,286.6z"/>
<path style="fill-rule:evenodd;clip-rule:evenodd;fill:#01B6C1;" d="M479.59,280.84c-0.03-0.13-0.06-0.27-0.08-0.4
	c-0.02-0.12-0.12-0.2-0.16-0.32c-0.05-0.23-0.1-0.47-0.15-0.7c0.4-0.27,0.72-0.03,0.94,0.23c1.41,1.72,3.47,2.68,4.93,4.32
	c0.69,0.77,1.61,1.44,1.65,2.63l0.01-0.01c-0.07,0.07-0.16,0.13-0.25,0.17c-0.14,0.07-0.28,0.15-0.42,0.22
	c-1.74,0.77-3.06,0.41-4.01-1.26c-0.84-1.49-1.8-2.93-2.3-4.59C479.69,281.04,479.64,280.94,479.59,280.84z"/>
<path style="fill-rule:evenodd;clip-rule:evenodd;fill:#99D8E7;" d="M514.09,289.49c-0.08-2.63-1.1-4.43-2.87-5.05
	c0.28-1.17,1.05-1.61,2.02-1.15c0.25,0.12,0.47,0.3,0.72,0.42c0.17,0.09,0.37,0.21,0.55,0.04c0.12-0.12,0.07-0.3,0.02-0.45
	c-0.13-0.38-0.28-0.75-0.1-1.16c0.82-0.78,1.91-1.08,2.85-1.65c0.27-0.16,0.61-0.17,0.88,0.09
	C517.29,283.79,515.93,286.75,514.09,289.49z"/>
<path style="fill-rule:evenodd;clip-rule:evenodd;fill:#9CD9E8;" d="M500.88,296.22c-0.08,0.59,0.36,0.68,0.77,0.85
	c1.7,0.7,3.47,0.31,5.21,0.33c-2.5,2.28-5.47,3.71-8.62,4.82c-0.64-1.09-0.22-2.12,0.2-3.14c0.09-0.08,0.21-0.13,0.33-0.15
	c0.17-0.03,0.34-0.03,0.5-0.07c0.69-0.27,0.6-0.97,0.83-1.5C500.28,296.92,500.14,296.26,500.88,296.22z"/>
<path style="fill-rule:evenodd;clip-rule:evenodd;fill:#5F4491;" d="M500.86,278.69c0.01,0.41-0.13,0.56-0.5,0.34
	c-0.07-0.04-0.14-0.09-0.18-0.16c-1.11-2-2.06-1.17-2.99,0.17c-0.18,0.26-0.5,0.61-0.76,0.46c-0.28-0.15-0.1-0.58,0.02-0.87
	c0.56-1.24,0.83-2.4-0.55-3.35c-0.48-0.33-0.33-0.57,0.26-0.73c1.11-0.3,2.37-0.27,3.02-1.61c0.27-0.56,0.86-0.09,0.88,0.35
	c0.05,1.15,0.74,0.86,1.41,0.79c0.27-0.03,0.64-0.42,0.81,0.05c0.13,0.35-0.23,0.63-0.49,0.74c-1.84,0.74-1.75,2.01-1.02,3.48
	C500.84,278.47,500.84,278.6,500.86,278.69z"/>
<path style="fill-rule:evenodd;clip-rule:evenodd;fill:#1FBDCB;" d="M486.98,303.17c2.59,0.66,5.58-2.05,5.23-4.93
	c-0.45-3.83-2.17-7.16-4.51-10.19c0-0.33,0.1-0.61,0.43-0.74c1.11,0.29,1.53,1.34,2.09,2.13c1.73,2.43,2.85,5.18,3.26,8.15
	c0.5,3.67-1.91,6.69-5.42,6.93c-0.47,0.03-0.87-0.01-1.17-0.41C486.85,303.79,486.75,303.47,486.98,303.17z"/>
<path style="fill-rule:evenodd;clip-rule:evenodd;fill:#5F1214;" d="M471.31,292.37c-1.69-0.38-2.32-1.74-2.69-3.16
	c-0.57-2.22-0.87-4.5-0.15-6.77c0.23-0.72,0.06-1.16-0.7-1.32c1.15-0.13,2.23,0.3,3.34,0.47c-0.97,1.59-1.42,3.3-1.18,5.17
	c0.06,0.47,0.14,0.93,0.49,1.29C470.19,289.6,470.74,290.99,471.31,292.37z"/>
<path style="fill-rule:evenodd;clip-rule:evenodd;fill:#5F1214;" d="M459.6,274.09c0.24,0.25,0.48,0.5,0.72,0.75
	c0.08,0.07,0.14,0.15,0.2,0.24c0.02,0.23,0.04,0.46,0.06,0.68c0.05,0.11,0.12,0.19,0.2,0.28c0,0.08,0,0.17,0,0.25
	c-0.42,0.99-1.34,1.43-2.2,1.91c-1.25,0.7-2.62,1.14-3.91,1.76c-1.77,0.85-3.28,2.09-4.63,3.51c-0.51,0.34-1.04,0.41-1.61,0.18
	c-0.11-0.06-0.19-0.16-0.23-0.28c-0.06-0.3,0.05-0.56,0.25-0.76c1.27-1.26,2.38-2.7,3.95-3.64c1.42-0.62,2.84-1.26,4.27-1.86
	C458.07,276.51,458.76,275.23,459.6,274.09z"/>
<path style="fill-rule:evenodd;clip-rule:evenodd;fill:#81D1E0;" d="M498.93,299.08c-0.86,0.91-0.61,2.06-0.69,3.14
	c-0.75,0.65-1.73,0.69-2.61,0.97c-0.15,0.1-0.35,0.07-0.5,0.17c-0.08,0.02-0.17,0.03-0.25,0.05c0.2-1.32,0.87-2.48,1.04-3.85
	c0.16-1.28-0.1-2.41-0.33-3.59c1.58-0.77,2.9-0.18,3.22,1.48C498.91,297.98,499.2,298.51,498.93,299.08z"/>
<path style="fill-rule:evenodd;clip-rule:evenodd;fill:#ADDFEB;" d="M509.97,284.71c-4.58-0.83-8.91-2.42-13.13-4.34
	c0.23-0.25,0.46-0.49,0.69-0.74c1.25-0.42,2.26,0.23,3.3,0.73c0.18,0.18,0.37,0.37,0.55,0.55c0.44-0.1,0.87-0.07,1.28,0.11
	c1.61,0.7,3.31,1,5.04,1.25c0.8,0.12,1.64,0.29,2.33,0.82c0.31,0.4,0.32,0.84,0.2,1.31C510.17,284.54,510.08,284.64,509.97,284.71z"
	/>
<path style="fill-rule:evenodd;clip-rule:evenodd;fill:#00753F;" d="M517.75,284.23c0.41-1.49,1.42-2.76,1.63-4.33
	c0.81-0.24,1.61-0.28,2.34,0.24c-0.23,2.55-0.47,5.09-1.64,7.43C519.07,286.61,518.58,285.3,517.75,284.23z"/>
<path style="fill-rule:evenodd;clip-rule:evenodd;fill:#73191B;" d="M450,283.23c1.65-2.23,4.02-3.44,6.5-4.41
	c1.58-0.62,2.97-1.48,4.28-2.53c0.02,0.06,0.03,0.13,0.03,0.19c0.05,0.11,0.13,0.2,0.21,0.28c0.31,0.48,0.62,0.97,0.94,1.45
	c-0.4,0.63-1.11,0.73-1.73,0.96c-1.94,0.71-3.97,1.13-5.76,2.25c-0.83,0.51-1.49,1.17-2.19,1.82
	C451.52,283.51,450.76,283.84,450,283.23z"/>
<path style="fill-rule:evenodd;clip-rule:evenodd;fill:#4F0C0E;" d="M459.6,274.09c-0.32,1.23-0.92,2.24-2.09,2.88
	c-1.64,0.89-3.33,1.64-5.1,2.19c0.29-1.3,1.53-1.69,2.37-2.47c0.34-0.32,0.79-0.52,1.11-0.88c0.39-0.44,0.27-0.71-0.25-0.85
	c-0.42-0.12-0.85-0.2-1.24-0.42c-0.25-0.14-0.46-0.35-0.42-0.66c0.04-0.33,0.32-0.43,0.6-0.49c0.53-0.11,1.14,0,1.48-0.6
	c0.17-0.22,0.32-0.48,0.67-0.35l0,0c0.15,0.14,0.24,0.31,0.24,0.52c0.15,0.32,0.49,0.59,0.74,0.42
	C458.75,272.63,459.11,273.5,459.6,274.09z"/>
<path style="fill-rule:evenodd;clip-rule:evenodd;fill:#007640;" d="M481.89,267.12c1.03,0.06,1.53,0.58,1.86,1.13
	c0.36,0.62-0.37,0.87-0.71,1.21c-0.82,0.82-1.75,1.53-2.49,2.41c-0.57,0.67-1.03,0.54-1.63,0.17c-0.7-0.43-0.58-0.94-0.22-1.52
	c0.67-1.09,1.24-2.25,2.37-2.96C481.4,267.36,481.71,267.09,481.89,267.12z"/>
<path style="fill-rule:evenodd;clip-rule:evenodd;fill:#4EC3D3;" d="M488.61,286.6c3.05,3.17,5.54,6.7,6.11,11.16
	c0.23,1.78-0.15,3.65-1.37,5.18c-0.28,0.35-0.66,0.72-0.62,1.26c-0.56,0.14-1.12,0.28-1.68,0.41c-0.07,0.06-0.14,0.11-0.22,0.14
	c-0.25,0.04-0.5,0.08-0.75,0.12c-0.15-0.39,0.11-0.63,0.38-0.78c3.22-1.71,3.75-5.84,2.55-8.73c-0.77-2.55-1.96-4.88-3.7-6.91
	c-0.36-0.42-0.66-0.91-0.95-1.38C488.45,286.91,488.53,286.75,488.61,286.6z"/>
<path style="fill-rule:evenodd;clip-rule:evenodd;fill:#05B7C4;" d="M502.33,275.36c1-1.32,2.31-0.55,3.48-0.47
	c2.52,0.18,5.03,0.46,7.54,0.71c-0.1,0.94-0.88,1.05-1.56,1.22c-1.45,0.36-2.92,0.4-4.4,0.21c-1.39-0.18-2.77-0.39-4.14-0.65
	C502.74,276.28,502.07,276.22,502.33,275.36z"/>
<path style="fill-rule:evenodd;clip-rule:evenodd;fill:#1FBCCB;" d="M502.33,275.36c0.02,0.37,0.21,0.62,0.58,0.65
	c2.36,0.17,4.67,0.98,7.06,0.72c1.18-0.13,2.49-0.06,3.39-1.13c0.56,0,1.13,0,1.69,0c0.31,0.53-0.1,0.81-0.42,1.07
	c-0.62,0.48-1.27,0.94-2.08,1.04c-0.51-0.08-0.99,0.09-1.47,0.25c-3.01,0.02-6-0.1-8.91-0.93c-0.42-0.12-0.85-0.23-0.98-0.74
	C501.45,275.85,501.88,275.59,502.33,275.36z"/>
<path style="fill-rule:evenodd;clip-rule:evenodd;fill:#52C4D4;" d="M501.57,278.71c-0.29-0.25-0.22-0.6-0.26-0.92
	c-0.03-0.1-0.06-0.19-0.11-0.27c-0.01-0.09-0.03-0.18-0.04-0.27c0.31-0.3,0.67-0.21,1.02-0.13c2.87,0.72,5.81,0.85,8.74,1.03
	c0.2,0.99-0.12,1.46-1.12,1.83c-0.95,0.35-1.9-0.06-2.85,0.08C505.16,279.62,503.27,279.54,501.57,278.71z"/>
<path style="fill-rule:evenodd;clip-rule:evenodd;fill:#90D5E3;" d="M510.01,283.23c-2.86-0.82-5.9-0.97-8.62-2.31
	c0.09-0.12,0.19-0.23,0.28-0.35c0.22-1.02,0.95-0.78,1.58-0.58c1.29,0.41,2.61,0.63,3.93,0.86c0.4,0.07,0.78,0.11,1.17,0.01
	c0.64-0.05,1.13,0.32,1.62,0.65C510.68,282,510.67,282.47,510.01,283.23z"/>
<path style="fill-rule:evenodd;clip-rule:evenodd;fill:#7ECFDC;" d="M483.17,270.29c0.15-0.27,0.37-0.46,0.7-0.49
	c1.36-0.58,2.56-0.09,3.71,0.59c1.21,0.71,2.12,1.77,3.05,2.81c1.24,1.38,2.79,2.32,4.46,3.1c0.43,0.2,1.04,0.27,1.02,0.97
	c-0.01,0.41,0.04,0.83-0.26,1.17c-1.19-0.56-2.35-1.16-3.55-1.68c-1.38-0.59-2.14-1.88-2.98-3.02c-1.07-1.46-2.26-2.66-4.08-3.08
	C484.55,270.49,483.79,270.83,483.17,270.29z"/>
<path style="fill-rule:evenodd;clip-rule:evenodd;fill:#1EBCCA;" d="M486.94,268.03c2.43,1.75,4.78,3.63,7.51,4.92
	c0.53,0.25,1.11,0.46,1.38,1.06c-0.45,0.23-1.02-0.1-1.43,0.33c-0.97,0.16-1.63-0.49-2.33-0.94c-0.79-0.52-1.54-1.13-2.21-1.81
	c-1.06-1.07-2.34-1.75-3.77-2.17c-0.33-0.1-0.87,0.04-0.8-0.6C485.83,268.55,486.39,268.29,486.94,268.03z"/>
<path style="fill-rule:evenodd;clip-rule:evenodd;fill:#87D1E0;" d="M518.14,280.6c-1.35,0.22-2.34,1.22-3.58,1.68
	c-0.86-0.51-0.93-0.96-0.18-1.66c0.55-0.51,1.13-0.99,1.26-1.79c0.92-0.62,1.4-1.78,2.57-2.1c0.07,0.08,0.14,0.17,0.21,0.25
	c0.12,0.14,0.08,0.34,0.18,0.48C518.88,278.57,518.52,279.59,518.14,280.6z"/>
<path style="fill-rule:evenodd;clip-rule:evenodd;fill:#99D8E5;" d="M483.17,270.29c2.6-0.24,4.65,0.68,6.09,2.89
	c1.31,2.01,3,3.53,5.33,4.3c0.48,0.16,1.12,0.28,1.26,0.96c-0.02,0.4,0.05,0.82-0.25,1.17c-0.88-0.77-1.91-1.29-3.01-1.63
	c-1.71-0.52-2.7-1.71-3.38-3.26c-0.19-0.43-0.31-0.91-0.77-1.16c-0.26-0.24-0.15-0.64-0.4-0.88c-1.3-1.22-2.74-2.03-4.61-1.69
	c-0.28,0.05-0.56,0.03-0.77-0.22c0.08-0.08,0.17-0.16,0.25-0.24c0.05-0.09,0.13-0.16,0.22-0.2L483.17,270.29z"/>
<path style="fill-rule:evenodd;clip-rule:evenodd;fill:#F2AF1B;" d="M470.63,294.34c-1.06,1.65-2.89,2.28-4.46,3.19
	c-1.42,0.82-3.09,1.21-4.65,1.79c-0.08-0.09-0.12-0.2-0.11-0.32c0.71-0.84,1.68-1.22,2.71-1.48c0.12,0.01,0.23,0.04,0.34,0.1l0.1,0
	c0.16-0.04,0.26-0.14,0.3-0.3c0.25-0.62,0.49-1.23,0.74-1.85c0.42,0.24,0.81,0.25,1.21-0.08c0.79-0.65,1.71-1.14,2.44-1.87
	C469.71,293.79,470.17,294.06,470.63,294.34z"/>
<path style="fill-rule:evenodd;clip-rule:evenodd;fill:#E1802B;" d="M468.5,274.42c0.51,1.22-0.5,1.96-0.91,2.89
	c-1.21-0.83-2.85-0.53-3.77,0.72c-0.19,0.25-0.27,0.58-0.63,0.66c-0.98-1.08-0.9-1.86,0.56-2.43c0.61-0.24,1.15-0.7,1.69-1.11
	c0.7-0.55,1.17-1.88,2.32-0.58c0.11-0.1,0.23-0.2,0.34-0.3c-0.01-0.08,0-0.18,0.03-0.18C468.32,274.11,468.45,274.22,468.5,274.42z"
	/>
<path style="fill-rule:evenodd;clip-rule:evenodd;fill:#00753F;" d="M497.52,305.53c-1.6,0.74-3.22,1.4-5.04,1.22
	c-0.89-0.44-0.61-1.03-0.23-1.64c1.43-0.4,2.71-1.31,4.28-1.26C497.09,304.27,497.64,304.7,497.52,305.53z"/>
<path style="fill-rule:evenodd;clip-rule:evenodd;fill:#37C0CF;" d="M488.37,287.07c2.23,2.36,4.05,4.96,4.84,8.17
	c0.41,1.37,0.67,2.73,0.48,4.19c-0.43,3.24-3.14,5.68-6.12,5.44c-0.12-0.03-0.25-0.05-0.37-0.08c-0.09-0.05-0.16-0.11-0.23-0.18l0,0
	c-0.13-0.17-0.14-0.33,0.03-0.48c3.68,0.74,6.92-2.89,6.15-6.83c-0.75-3.8-2.4-7.12-5-9.99
	C488.21,287.23,488.29,287.15,488.37,287.07z"/>
<path style="fill-rule:evenodd;clip-rule:evenodd;fill:#017841;" d="M487.21,287.38c-0.04,0.19-0.01,0.45-0.13,0.57
	c-1,1.1-1.26,2.08,0.25,3c0.34,0.21,0.19,0.52-0.23,0.42c-0.61-0.15-1.16-0.22-1.67,0.26c-0.21,0.2-0.45,0.16-0.58-0.11
	c-0.53-1.07-1.05-2.14-1.57-3.21c-0.09-0.18-0.09-0.52,0.16-0.36c1.37,0.86,2.26-0.56,3.42-0.63
	C487.01,287.19,487.13,287.22,487.21,287.38z"/>
<path style="fill-rule:evenodd;clip-rule:evenodd;fill:#1DBBC9;" d="M486.73,286.61c-1.27-2.04-2.95-3.66-4.99-4.93
	c-0.97-0.6-1.43-1.79-2.53-2.25c-0.21-0.47-0.17-0.96-0.11-1.45c0.54-0.1,0.8,0.3,1.05,0.64c0.84,1.15,1.98,1.96,3.09,2.8
	c1.56,0.96,3,2.05,3.96,3.66c0.2,0.33,0.48,0.63,0.48,1.06C487.35,286.29,487.04,286.45,486.73,286.61z"/>
<path style="fill-rule:evenodd;clip-rule:evenodd;fill:#F6C612;" d="M469.24,293.52c0.06,0.27,0.12,0.51-0.2,0.72
	c-0.8,0.52-1.55,1.11-2.35,1.62c-0.49,0.31-1.07,0.65-1.1-0.4c0.08-0.42,0.15-0.85,0.25-1.26c0.68-2.73,0.98-2.82,3.11-0.88
	C469.05,293.4,469.12,293.51,469.24,293.52L469.24,293.52z"/>
<path style="fill-rule:evenodd;clip-rule:evenodd;fill:#8E1E21;" d="M452.41,282.98c0.73-1.67,2.37-2.17,3.83-2.79
	c1.86-0.79,3.82-1.33,5.73-1.98c0.32,0.44,0.73,0.84,0.75,1.43c-3.2-0.02-6.14,0.83-8.81,2.6c-0.37,0.25-0.74,0.47-0.78,0.97
	C452.77,283.48,452.56,283.33,452.41,282.98z"/>
<path style="fill-rule:evenodd;clip-rule:evenodd;fill:#62BA74;" d="M499.21,302.49c1.78-0.51,3.37-1.45,5.03-2.23
	c0.76,0.56,1.98,0.2,2.48,1.27c-0.09,0.07-0.17,0.15-0.26,0.22c-1.44,0.11-2.64,0.79-3.84,1.51c-0.78,0.47-1.66,0.62-2.54,0.35
	C499.58,303.46,498.91,303.31,499.21,302.49z"/>
<path style="fill-rule:evenodd;clip-rule:evenodd;fill:#78CEDD;" d="M508.32,281.06c-1.79,0.36-3.44-0.24-5.09-0.74
	c-0.61-0.18-1.13-0.37-1.56,0.26c-0.03-0.62-0.06-1.25-0.09-1.87c1.77,0.25,3.54,0.48,5.21,1.16
	C507.47,280.04,508.15,280.22,508.32,281.06z"/>
<path style="fill-rule:evenodd;clip-rule:evenodd;fill:#4BC3D2;" d="M485.28,268.81c2.72,0.56,4.65,2.38,6.67,4.11
	c0.71,0.61,1.63,0.95,2.46,1.42c0.48,0.49,0.95,0.97,1.43,1.46c-0.63,0.51-1.23,0.17-1.77-0.13c-1.35-0.76-2.72-1.52-3.72-2.74
	c-1.48-1.8-3.37-2.94-5.57-3.62C484.95,269.14,485.11,268.98,485.28,268.81z"/>
<path style="fill-rule:evenodd;clip-rule:evenodd;fill:#5FC7D6;" d="M484.78,269.31c1.75,0.13,3.2,0.96,4.4,2.14
	c1.43,1.41,2.89,2.73,4.64,3.73c0.64,0.37,1.27,0.65,2.02,0.62c0.4,0.43,0.55,0.91,0.28,1.47c-1.76-1.18-3.91-1.75-5.33-3.48
	c-0.65-0.79-1.41-1.49-2.15-2.2c-1.32-1.28-2.9-1.91-4.76-1.78c0.12-0.1,0.24-0.19,0.36-0.29c0.12,0.01,0.2-0.09,0.31-0.12
	C484.62,269.37,484.7,269.34,484.78,269.31z"/>
<path style="fill-rule:evenodd;clip-rule:evenodd;fill:#B2E1EC;" d="M488.46,273.4c0.65,0.08,0.75,0.66,0.96,1.1
	c0.73,1.63,1.82,2.76,3.61,3.34c0.94,0.3,2.25,0.43,2.57,1.77c-0.06,0.1-0.13,0.19-0.19,0.29c-1.42-0.81-2.9-1.45-4.52-1.72
	c-1.16-0.19-1.17-1.26-1.52-2.06c-0.34-0.77-0.29-1.73-1.15-2.23C488.03,273.58,488.21,273.48,488.46,273.4z"/>
<path style="fill-rule:evenodd;clip-rule:evenodd;fill:#BEE4EE;" d="M480.21,273.58c0.48-0.92,1.19-1.66,1.97-2.33
	c2.31-1.04,4.24-0.29,5.97,1.32c0.04,0.05,0.07,0.11,0.11,0.16c0,0.06,0.01,0.13,0.02,0.19c-0.04,0.12-0.09,0.24-0.16,0.35
	c-0.17,0.22-0.38,0.3-0.65,0.24c-0.8-0.79-1.65-1.47-2.86-1.56c-1.49-0.12-2.7,0.75-3.2,2.15c-0.3,0.85,0.41,1.29,0.5,1.96
	c-0.41,0.37-0.86,0.33-1.34,0.15C479.61,275.44,479.87,274.51,480.21,273.58z"/>
<path style="fill-rule:evenodd;clip-rule:evenodd;fill:#028A4C;" d="M517.75,284.23c1.22,0.8,1.72,2.11,2.33,3.33
	c-0.03,0.08-0.06,0.16-0.08,0.25c-0.03,0.09-0.08,0.17-0.16,0.22c-0.11,0.74-0.39,1.41-0.96,1.92c-0.17,0.04-0.35-0.02-0.38-0.18
	c-0.27-1.44-0.82-2.8-1.31-4.17C517.38,285.15,517.56,284.69,517.75,284.23z"/>
<path style="fill-rule:evenodd;clip-rule:evenodd;fill:#E9A539;" d="M463.18,278.7c0.33-1.55,1.71-1.89,2.89-2.34
	c0.68-0.26,1.31,0.15,1.51,0.95c-0.04,0.15-0.1,0.3-0.12,0.46c-0.46,2.67-0.71,2.87-3.32,2.41
	C463.36,280.04,463.49,279.2,463.18,278.7z"/>
<path style="fill-rule:evenodd;clip-rule:evenodd;fill:#65BA75;" d="M516.23,287.53c0-0.08,0.02-0.14,0.06-0.2
	c0.77-0.25,0.85,0.4,1,0.84c0.54,1.58,0.14,3.11-0.34,4.62c-0.24,0.25-0.47,0.5-0.71,0.76c-0.35-0.3-0.33-0.71-0.32-1.1
	c0.05-1.01-0.37-1.76-1.22-2.28c0.43-0.8,0.7-1.7,1.35-2.37C516.11,287.7,516.17,287.61,516.23,287.53z"/>
<path style="fill-rule:evenodd;clip-rule:evenodd;fill:#6BC9D9;" d="M518.2,276.73c-0.82,0.71-1.31,1.8-2.45,2.15
	c-0.66,0.64-1.54,0.51-2.34,0.65c-0.44,0.08-0.71-0.28-0.66-0.77c0.11-0.28,0.36-0.44,0.62-0.53c1.4-0.52,2.44-1.49,3.33-2.65
	C517.58,275.48,517.9,276.1,518.2,276.73z"/>
<path style="fill-rule:evenodd;clip-rule:evenodd;fill:#37BFCE;" d="M510.95,278.19c-2.37,0.56-4.68-0.16-7.01-0.4
	c-0.94-0.09-1.86-0.37-2.78-0.56c-0.05-0.32-0.38-0.64,0.01-0.95c2.31,0.96,4.75,1.2,7.22,1.29c0.93,0.03,1.87,0.09,2.8,0.14
	c0.09,0.06,0.11,0.14,0.09,0.25c-0.05,0.09-0.11,0.16-0.2,0.21C511.05,278.18,511,278.18,510.95,278.19z"/>
<path style="fill-rule:evenodd;clip-rule:evenodd;fill:#46AC68;" d="M499.21,302.49c0.57,1.29,1.65,0.96,2.62,0.75
	c0.52-0.11,1.04-0.41,1.46-0.75c0.95-0.77,1.96-1.11,3.16-0.75c-1.77,1.11-3.56,2.17-5.57,2.82c-0.6-0.18-1.27-0.15-1.79-0.58
	c-0.33-0.27-0.74-0.51-0.62-1.05C498.72,302.79,498.96,302.64,499.21,302.49z"/>
<path style="fill-rule:evenodd;clip-rule:evenodd;fill:#001B05;" d="M519.35,277c-0.1-0.21-0.22-0.41-0.31-0.62
	c-0.28-0.69-0.98-1.63,0.26-1.9c0.86-0.19,2.06-0.16,2.24,1.25c0.07,0.5,0.14,1.01,0.21,1.51C520.89,277.81,520.1,277.64,519.35,277
	z"/>
<path style="fill-rule:evenodd;clip-rule:evenodd;fill:#F2BD15;" d="M471.88,292.36c-0.52-0.82-0.77-1.75-0.97-2.67
	c-0.15-0.71,0.12-1.19,0.89-0.7c0.56,0.35,1.38,0.2,1.75,0.89c0.42,1.33-0.21,2.47-1.52,2.78l0.01,0
	C472.04,292.52,471.93,292.46,471.88,292.36z"/>
<path style="fill-rule:evenodd;clip-rule:evenodd;fill:#4CC3D3;" d="M516.71,275.57c-0.56,1.94-2.19,2.55-3.86,3.1
	c-0.66-0.17-0.67-0.65-0.56-1.18c1.11-0.35,2.22-0.7,2.75-1.9C515.6,275.59,516.15,275.58,516.71,275.57z"/>
<path style="fill-rule:evenodd;clip-rule:evenodd;fill:#001905;" d="M489.37,307.49c-0.85,0.52-1.7,0.18-2.53-0.06
	c-0.62-0.18-0.6-0.77-0.59-1.3c0.02-0.68,0.54-0.57,0.96-0.57c0.64-0.01,1.28,0,1.92,0C489.96,306.12,489.42,306.83,489.37,307.49z"
	/>
<path style="fill-rule:evenodd;clip-rule:evenodd;fill:#7FC483;" d="M514.71,290.17c1.14-0.14,1.36,0.71,1.51,1.51
	c0.11,0.61,0.02,1.25,0.02,1.87c-0.16,0.16-0.32,0.32-0.49,0.48c-0.46-1-1.33-1.58-2.2-2.17
	C513.81,291.21,514.21,290.65,514.71,290.17z"/>
<path style="fill-rule:evenodd;clip-rule:evenodd;fill:#3BBFCE;" d="M487.56,304.87c4.59-0.73,6.78-3.98,5.79-8.57
	c-0.08-0.35-0.1-0.7-0.16-1.05c1.65,3.27,0.54,7.22-2.53,9.08c-0.23,0.14-0.4,0.37-0.59,0.55
	C489.24,305.19,488.4,305.21,487.56,304.87z"/>
<path style="fill-rule:evenodd;clip-rule:evenodd;fill:#EDA51F;" d="M472.03,292.65c1-0.66,1.5-1.59,1.52-2.78
	c0.3,0.08,0.65-0.32,0.93,0.09c0.09,0.09,0.19,0.19,0.32,0.21c0.06-0.02,0.11,0,0.15,0.06c0,0.07,0,0.14,0,0.21
	c-0.81,1.24-1,2.93-2.6,3.6c-0.01-0.15-0.03-0.3-0.04-0.45c-0.12-0.14-0.09-0.34-0.18-0.5C472.1,292.94,472.06,292.8,472.03,292.65z
	"/>
<path style="fill-rule:evenodd;clip-rule:evenodd;fill:#F3BE21;" d="M464.15,297.64c-0.88,0.48-1.76,0.96-2.64,1.44
	c-0.51,0.1-0.61-0.24-0.68-0.62c0.41-1.12,1.32-1.87,2.04-2.75c0.29-0.13,0.42,0.07,0.55,0.28c0.06,0.56,0.81,0.76,0.74,1.39
	C464.25,297.46,464.24,297.55,464.15,297.64z"/>
<path style="fill-rule:evenodd;clip-rule:evenodd;fill:#55C4D2;" d="M483.14,281.54c-1.27-0.54-2.2-1.51-3.09-2.52
	c-0.31-0.36-0.64-0.7-0.96-1.04c-0.03-0.9-0.15-1.8,0.15-2.68c0.4,0.28,0.56,0.73,0.81,1.12c0.09,0.33-0.15,0.68,0.05,1.01
	c0.7,1.04,1.48,2,2.57,2.65c0.17,0.12,0.31,0.28,0.4,0.48c0.06,0.14,0.12,0.28,0.16,0.42c0.04,0.15,0.04,0.29-0.01,0.44
	C483.2,281.46,483.17,281.5,483.14,281.54z"/>
<path style="fill-rule:evenodd;clip-rule:evenodd;fill:#4EC3D3;" d="M487.67,286.13c-1.22-1.82-2.77-3.31-4.53-4.59l0.04-0.05
	c0.19-0.17,0.26-0.55,0.65-0.39c0.03,0.26,0.18,0.43,0.42,0.54c1.9,0.86,2.87,2.58,3.91,4.24
	C487.99,285.96,487.83,286.05,487.67,286.13z"/>
<path style="fill-rule:evenodd;clip-rule:evenodd;fill:#46AC68;" d="M516.95,292.79c-0.19-1.49,0.62-2.97,0.03-4.47
	c-0.16-0.4-0.15-0.88-0.69-0.99c0.15-0.25,0.3-0.49,0.45-0.74c0.9-0.24,1.05,0.47,1.24,1.04c0.47,1.45,0.38,2.87-0.29,4.25
	C517.44,292.18,517.2,292.49,516.95,292.79z"/>
<path style="fill-rule:evenodd;clip-rule:evenodd;fill:#ADD4A1;" d="M513.55,291.86c1.26,0.19,2.18,0.72,2.2,2.17l0,0
	c-0.07,0.09-0.15,0.17-0.23,0.24c-0.17,0.15-0.33,0.3-0.5,0.46c-0.93-1.72-1.72-2.04-2.85-1.17
	C512.4,292.8,513.13,292.46,513.55,291.86z"/>
<path style="fill-rule:evenodd;clip-rule:evenodd;fill:#AF282E;" d="M469.02,271.36c1.25-0.05,1.45,0.98,1.88,1.66
	c0.16,0.26-0.11,0.71-0.6,0.62c-1.05-0.19-1.93-0.85-2.23-1.73C467.73,270.91,468.96,272.01,469.02,271.36z"/>
<path style="fill-rule:evenodd;clip-rule:evenodd;fill:#1E9B58;" d="M517.69,291.88c0.05-1.4,0.5-2.8-0.02-4.2
	c-0.18-0.48-0.28-1.01-0.93-1.09c0.05-0.38,0.16-0.72,0.45-0.99c1.26,1.18,1.2,2.87,1.69,4.35
	C518.66,290.71,518.22,291.32,517.69,291.88z"/>
<path style="fill-rule:evenodd;clip-rule:evenodd;fill:#068B4D;" d="M497.52,305.53c-0.33-0.56-0.66-1.12-0.99-1.68l0.01,0.01
	c0.09-0.06,0.17-0.12,0.26-0.18c0.33-0.15,0.65-0.29,0.98-0.44c0.79,0.44,1.65,0.78,2.14,1.61c-0.4,0.34-0.91,0.41-1.4,0.49
	c-0.16,0.1-0.36,0.07-0.51,0.17C497.84,305.52,497.68,305.53,497.52,305.53z"/>
<path style="fill-rule:evenodd;clip-rule:evenodd;fill:#821D1E;" d="M477.15,267.16c-0.39,1.06-1.06,2.13,0.23,3.07
	c0.17,0.12,0.25,0.36,0.06,0.5c-0.12,0.09-0.37,0.06-0.53,0.01c-0.61-0.21-1.19-0.46-1.24-1.24c-0.08-1.16,0.23-2.1,1.39-2.6
	C477.21,266.93,477.24,267.02,477.15,267.16z"/>
<path style="fill-rule:evenodd;clip-rule:evenodd;fill:#023116;" d="M519.35,277c0.8,0.08,1.6,0.16,2.4,0.25
	c0.07,0.88,0.56,1.76,0.02,2.65c-0.42-1.12-1.7-0.79-2.4-1.44C519.37,277.97,519.36,277.48,519.35,277z"/>
<path style="fill-rule:evenodd;clip-rule:evenodd;fill:#DC6F27;" d="M456.72,272.43c-0.17,0.15-0.34,0.3-0.51,0.45
	c-0.67,0.46-1.35,0.79-2.13,0.22c0.6-1.05-0.5-1-0.92-1.34c-0.23-0.19-0.7,0.05-0.99-0.25c1.04,0.11,2.09-0.19,3.11,0.13
	C455.75,271.93,456.36,271.95,456.72,272.43z"/>
<path style="fill-rule:evenodd;clip-rule:evenodd;fill:#01572F;" d="M519.38,278.45c0.88,0.34,2.47-0.49,2.4,1.44
	c-0.02,0.08-0.03,0.16-0.05,0.24c-0.78-0.09-1.6,0.16-2.34-0.24C519.38,279.42,519.38,278.93,519.38,278.45z"/>
<path style="fill-rule:evenodd;clip-rule:evenodd;fill:#8ED1DE;" d="M500.83,280.37c-1.1-0.24-2.2-0.49-3.3-0.73
	c0.5-1.25,1.18-1.61,2.18-0.46C500.07,279.59,500.46,279.98,500.83,280.37z"/>
<path style="fill-rule:evenodd;clip-rule:evenodd;fill:#013217;" d="M489.37,307.49c-0.67-0.57,0.37-1.35-0.24-1.92
	c0.64-0.08,1.28-0.15,1.92-0.23c0.21,0.63-0.25,1.27-0.01,1.9C490.54,307.7,489.92,307.39,489.37,307.49z"/>
<path style="fill-rule:evenodd;clip-rule:evenodd;fill:#015930;" d="M491.04,307.24c-1.11-0.64-0.02-1.27,0.01-1.9
	c0.4-0.08,0.8-0.15,1.2-0.23c0.07,0.55-0.22,1.15,0.23,1.64C492.06,307.11,491.56,307.21,491.04,307.24z"/>
<path style="fill-rule:evenodd;clip-rule:evenodd;fill:#A0D9E4;" d="M488.17,272.68c-1.74-1.54-3.72-2.07-5.99-1.43
	c0.16-0.16,0.32-0.32,0.48-0.48c2.32-0.52,4.26,0.1,5.78,1.96c-0.05,0.02-0.1,0.04-0.15,0.05
	C488.25,272.75,488.21,272.71,488.17,272.68z"/>
<path style="fill-rule:evenodd;clip-rule:evenodd;fill:#A4D09B;" d="M505.22,299.61c0.38-0.29,0.76-0.57,1.14-0.86
	c0.29,0.84,1,1.37,1.52,2.04c-0.1,0.07-0.2,0.14-0.3,0.21c-0.05,0.08-0.13,0.13-0.23,0.15c-0.07,0.04-0.14,0.07-0.21,0.11
	C506.15,301.13,505.39,300.72,505.22,299.61z"/>
<path style="fill-rule:evenodd;clip-rule:evenodd;fill:#A4D9E4;" d="M479.95,276.52c-0.48-0.27-0.66-0.71-0.7-1.22
	c0.2-0.64,0.46-1.25,0.96-1.72c0.15,0.84-0.29,1.81,0.56,2.49C480.67,276.54,480.41,276.71,479.95,276.52z"/>
<path style="fill-rule:evenodd;clip-rule:evenodd;fill:#7ABD80;" d="M505.22,299.61c0.52,0.7,1.12,1.3,1.93,1.65
	c-0.15,0.09-0.29,0.18-0.44,0.27c-0.51-0.26-1-0.58-1.63-0.54c-0.5,0.04-0.81-0.21-0.85-0.73
	C504.56,300.04,504.89,299.83,505.22,299.61z"/>
<path style="fill-rule:evenodd;clip-rule:evenodd;fill:#C2DFB3;" d="M507.89,300.79c-0.92-0.37-1.69-0.85-1.52-2.04
	c0.17-0.14,0.33-0.29,0.5-0.43c0.31,0.99,0.67,1.92,1.93,1.96C508.5,300.45,508.19,300.62,507.89,300.79z"/>
<path style="fill-rule:evenodd;clip-rule:evenodd;fill:#259C5A;" d="M499.92,304.85c-0.8-0.42-1.63-0.81-2.14-1.61
	c0.23-0.1,0.47-0.2,0.7-0.3c0.42,1.11,1.73,0.9,2.41,1.63C500.56,304.66,500.24,304.76,499.92,304.85z"/>
<path style="fill-rule:evenodd;clip-rule:evenodd;fill:#CAC8C9;" d="M478.01,269.73c-0.09-0.06-0.16-0.1-0.21-0.15
	c-0.44-0.36-0.12-0.72,0.13-0.88c0.6-0.39,0.75-1.38,1.71-1.27c0.03,0,0.09,0.14,0.07,0.17
	C479.14,268.32,478.58,269.03,478.01,269.73z"/>
<path style="fill-rule:evenodd;clip-rule:evenodd;fill:#EAE9EA;" d="M471.57,270.39c-0.14,0.33-0.09,0.9-0.63,0.82
	c-0.34-0.05-0.88-0.41-0.89-0.63c0-0.43,0.44-0.72,0.91-0.78C471.38,269.74,471.5,270.03,471.57,270.39z"/>
<path style="fill-rule:evenodd;clip-rule:evenodd;fill:#B5262D;" d="M480.29,260.44c0.12,0.01,0.24,0.02,0.36,0.02
	c-0.01,0.11-0.01,0.22-0.02,0.32l-0.01,0.03c-0.2,1.02-0.38,2.05-0.9,2.97c-0.09,0.09-0.19,0.1-0.28,0
	C479.67,262.66,480.26,261.62,480.29,260.44z"/>
<path style="fill-rule:evenodd;clip-rule:evenodd;fill:#7B201F;" d="M488.05,301.39c-0.38-0.2-1.02-0.04-1.06-0.73
	c-0.01-0.22-0.03-0.61,0.26-0.53c0.49,0.14,0.84,0.58,1.08,1.03C488.42,301.31,488.25,301.43,488.05,301.39z"/>
<path style="fill-rule:evenodd;clip-rule:evenodd;fill:#CAC8C9;" d="M468.5,274.42c-0.14-0.05-0.27-0.1-0.41-0.15
	c-0.11-0.28-0.23-0.57-0.34-0.85c-0.1-0.11-0.1-0.21,0.02-0.3c0.55,0.35,1.1,0.7,1.65,1.05c0.03,0.23-0.04,0.33-0.28,0.23
	C468.92,274.41,468.71,274.41,468.5,274.42z"/>
<path style="fill-rule:evenodd;clip-rule:evenodd;fill:#7A211F;" d="M487.28,297.76c-0.38,0.1-0.49-0.04-0.52-0.27
	c-0.05-0.41,0.15-0.59,0.55-0.57c0.22,0.01,0.6-0.04,0.53,0.27C487.77,297.44,487.42,297.62,487.28,297.76z"/>
<path style="fill-rule:evenodd;clip-rule:evenodd;fill:#1E1208;" d="M463.43,295.98c-0.16-0.09-0.31-0.18-0.47-0.27
	c-0.64-0.19-1.07-0.55-1.06-1.28c0.04-0.05,0.08-0.09,0.12-0.14c0.66,0.3,1.25,0.66,1.42,1.43
	C463.44,295.8,463.44,295.89,463.43,295.98z"/>
<path style="fill-rule:evenodd;clip-rule:evenodd;fill:#827F81;" d="M472.64,270.11c-0.06,0.2-0.13,0.44-0.2,0.68
	c-0.08-0.49-0.16-0.98-0.22-1.47c-0.01-0.09,0.03-0.2,0.05-0.29C472.73,269.26,472.51,269.71,472.64,270.11z"/>
<path style="fill-rule:evenodd;clip-rule:evenodd;fill:#CAC8C9;" d="M469.14,274.4c0.09-0.08,0.19-0.15,0.28-0.23
	c0.33,0.08,0.66,0.16,0.99,0.24c0.05,0.05,0.06,0.09,0.04,0.14c-0.02,0.04-0.04,0.06-0.05,0.06
	C469.9,275.04,469.52,274.68,469.14,274.4z"/>
<path style="fill-rule:evenodd;clip-rule:evenodd;fill:#3BBFCE;" d="M486.99,304.12c-0.01,0.16-0.02,0.32-0.03,0.48
	c-0.38-0.54-0.15-1.12-0.12-1.69c0.05,0.09,0.1,0.17,0.15,0.26C486.98,303.49,486.98,303.81,486.99,304.12z"/>
<path style="fill-rule:evenodd;clip-rule:evenodd;fill:#C9806C;" d="M479.97,266.25c0.23,0.11,0.75,0.07,0.66,0.28
	c-0.18,0.41-0.55,0.09-0.84-0.03C479.79,266.37,479.85,266.29,479.97,266.25z"/>
<path style="fill-rule:evenodd;clip-rule:evenodd;fill:#3B393A;" d="M469.54,269.83c-0.25,0.11-0.3-0.02-0.26-0.12
	c0.06-0.13,0.17-0.24,0.29-0.32c0.05-0.03,0.17,0.04,0.26,0.07C469.72,269.61,469.61,269.75,469.54,269.83z"/>
<path style="fill-rule:evenodd;clip-rule:evenodd;fill:#525051;" d="M467.2,272.68c-0.23-0.15-0.43-0.51-0.21-0.58
	c0.32-0.11,0.38,0.35,0.51,0.6C467.4,272.76,467.3,272.75,467.2,272.68z"/>
<path style="fill-rule:evenodd;clip-rule:evenodd;fill:#8E1E21;" d="M463,280.83c-0.41-0.26-0.25-0.66-0.25-1.02
	C462.83,280.16,462.91,280.49,463,280.83z"/>
<path style="fill-rule:evenodd;clip-rule:evenodd;fill:#A19E9F;" d="M456.96,272.95c-0.22-0.11-0.33-0.27-0.24-0.52
	c0.16,0.06,0.32,0.12,0.48,0.19C457.12,272.72,457.04,272.83,456.96,272.95z"/>
<path style="fill-rule:evenodd;clip-rule:evenodd;fill:#8E1E21;" d="M464.23,281.05c-0.35,0-0.72,0.13-1.02-0.17
	C463.56,280.88,463.94,280.74,464.23,281.05z"/>
<path style="fill-rule:evenodd;clip-rule:evenodd;fill:#B5262D;" d="M479.45,263.79c0.09,0,0.19,0,0.28,0
	c-0.06,0.21-0.14,0.53-0.38,0.45C479.15,264.18,479.27,263.92,479.45,263.79z"/>
<path style="fill-rule:evenodd;clip-rule:evenodd;fill:#721819;" d="M466.09,281.07c-0.26,0.01-0.53,0.04-0.73-0.19
	C465.64,280.83,465.9,280.81,466.09,281.07z"/>
<path style="fill-rule:evenodd;clip-rule:evenodd;fill:#FEFEFE;" d="M479.97,266.25c-0.06,0.08-0.13,0.17-0.19,0.25
	c-0.1-0.05-0.32-0.05-0.19-0.24C479.64,266.2,479.84,266.25,479.97,266.25z"/>
<path style="fill-rule:evenodd;clip-rule:evenodd;fill:#858082;" d="M477.15,267.16c-0.03-0.09-0.06-0.18-0.1-0.27
	c0.08-0.05,0.22-0.14,0.23-0.13C477.45,266.95,477.31,267.06,477.15,267.16z"/>
<path style="fill-rule:evenodd;clip-rule:evenodd;fill:#262525;" d="M474.55,269.47c-0.03,0.01-0.06,0.02-0.08,0.03
	c-0.01-0.04-0.02-0.08-0.03-0.12c0.03,0.01,0.07,0,0.09,0.02C474.55,269.41,474.55,269.44,474.55,269.47z"/>
<path style="fill-rule:evenodd;clip-rule:evenodd;fill:#262525;" d="M473.76,269.61c0.03,0.01,0.06,0.03,0.1,0.04
	c-0.04,0.03-0.09,0.07-0.13,0.1c-0.02-0.03-0.05-0.06-0.05-0.08C473.69,269.64,473.73,269.63,473.76,269.61z"/>
<path style="fill-rule:evenodd;clip-rule:evenodd;fill:#B2E1EC;" d="M495.12,280.36c0.07-0.08,0.14-0.16,0.21-0.23
	c0,0.16-0.01,0.31-0.01,0.47C495.25,280.52,495.19,280.44,495.12,280.36z"/>
<path style="fill-rule:evenodd;clip-rule:evenodd;fill:#6BC9D9;" d="M518.59,277.46c-0.06-0.16-0.12-0.32-0.18-0.48
	C518.48,277.14,518.54,277.3,518.59,277.46z"/>
<path style="fill-rule:evenodd;clip-rule:evenodd;fill:#C1BFC1;" d="M467.77,273.11c-0.01,0.1-0.01,0.2-0.02,0.3
	c-0.09-0.15-0.18-0.3-0.27-0.45l0.07-0.07C467.62,272.97,467.69,273.04,467.77,273.11z"/>
<path style="fill-rule:evenodd;clip-rule:evenodd;fill:#686567;" d="M487.21,287.38c-0.11-0.02-0.23-0.05-0.34-0.07
	c0.11-0.06,0.21-0.13,0.32-0.19C487.2,287.2,487.21,287.29,487.21,287.38z"/>
<path style="fill-rule:evenodd;clip-rule:evenodd;fill:#E58727;" d="M472.13,293.09c0.06,0.17,0.12,0.33,0.18,0.5
	C472.25,293.42,472.19,293.25,472.13,293.09z"/>
<path style="fill-rule:evenodd;clip-rule:evenodd;fill:#62C8D8;" d="M495.13,303.35c0.17-0.06,0.33-0.11,0.5-0.17
	C495.46,303.24,495.3,303.3,495.13,303.35z"/>
<path style="fill-rule:evenodd;clip-rule:evenodd;fill:#00753F;" d="M498.01,305.52c0.17-0.06,0.34-0.11,0.51-0.17
	C498.35,305.4,498.18,305.46,498.01,305.52z"/>
<path style="fill-rule:evenodd;clip-rule:evenodd;fill:#1DBBC9;" d="M479.59,280.84c0.05,0.1,0.11,0.19,0.16,0.29
	C479.7,281.04,479.64,280.94,479.59,280.84z"/>
<path style="fill-rule:evenodd;clip-rule:evenodd;fill:#1DBBC9;" d="M479.35,280.12c0.05,0.11,0.1,0.21,0.16,0.32
	C479.45,280.33,479.4,280.23,479.35,280.12z"/>
<path style="fill-rule:evenodd;clip-rule:evenodd;fill:#5F1214;" d="M461.03,276.76c-0.07-0.09-0.14-0.19-0.21-0.28
	C460.89,276.57,460.96,276.67,461.03,276.76z"/>
<path style="fill-rule:evenodd;clip-rule:evenodd;fill:#E58727;" d="M474.8,290.17c-0.11-0.07-0.22-0.14-0.32-0.21
	C474.59,290.03,474.69,290.1,474.8,290.17z"/>
<path style="fill-rule:evenodd;clip-rule:evenodd;fill:#46AC68;" d="M516.23,287.53c-0.06,0.09-0.11,0.18-0.17,0.26
	C516.11,287.7,516.17,287.62,516.23,287.53z"/>
<path style="fill-rule:evenodd;clip-rule:evenodd;fill:#7FC483;" d="M515.52,294.27c0.08-0.08,0.15-0.16,0.23-0.24
	C515.67,294.11,515.59,294.19,515.52,294.27z"/>
<path style="fill-rule:evenodd;clip-rule:evenodd;fill:#F2AF1B;" d="M469.25,293.53c-0.1-0.07-0.19-0.14-0.29-0.21
	C469.05,293.39,469.15,293.46,469.25,293.53z"/>
<path style="fill-rule:evenodd;clip-rule:evenodd;fill:#4F0C0E;" d="M460.52,275.08c-0.07-0.08-0.13-0.16-0.2-0.24
	C460.39,274.92,460.45,275,460.52,275.08z"/>
<path style="fill-rule:evenodd;clip-rule:evenodd;fill:#4BC3D2;" d="M484.54,269.4c-0.1,0.04-0.21,0.08-0.31,0.12
	C484.34,269.48,484.44,269.44,484.54,269.4z"/>
<path style="fill-rule:evenodd;clip-rule:evenodd;fill:#7ECFDC;" d="M483.13,270.32c-0.07,0.07-0.15,0.13-0.22,0.2
	C482.99,270.46,483.06,270.39,483.13,270.32z"/>
<path style="fill-rule:evenodd;clip-rule:evenodd;fill:#C0C0C2;" d="M467.2,272.68c0.1,0.01,0.2,0.01,0.3,0.02
	c0.04,0.06,0.05,0.13,0.04,0.2c0,0-0.07,0.07-0.07,0.07C467.38,272.87,467.29,272.77,467.2,272.68z"/>
<path style="fill-rule:evenodd;clip-rule:evenodd;fill:#1DBBC9;" d="M486.48,286.77c0.08-0.06,0.17-0.11,0.25-0.17
	C486.65,286.66,486.57,286.71,486.48,286.77z"/>
<path style="fill-rule:evenodd;clip-rule:evenodd;fill:#37BFCE;" d="M501.2,277.51c0.04,0.09,0.08,0.18,0.11,0.28
	C501.27,277.69,501.23,277.6,501.2,277.51z"/>
<path style="fill-rule:evenodd;clip-rule:evenodd;fill:#EBA12C;" d="M464.15,297.64c0.01-0.09,0.01-0.18,0.02-0.27
	c0.09,0.08,0.19,0.17,0.28,0.25C464.35,297.62,464.25,297.63,464.15,297.64z"/>
<polygon style="fill-rule:evenodd;clip-rule:evenodd;fill:#B5262D;" points="480.63,260.82 480.58,260.79 480.64,260.79 
	480.67,260.82 "/>
<path style="fill-rule:evenodd;clip-rule:evenodd;fill:#FEFEFE;" d="M470.4,274.6c0.02-0.07,0.02-0.13,0.01-0.2
	c0.07,0.02,0.13,0.04,0.2,0.05C470.54,274.51,470.47,274.55,470.4,274.6z"/>
<path style="fill-rule:evenodd;clip-rule:evenodd;fill:#4F0C0E;" d="M460.78,276.04c-0.07-0.09-0.13-0.19-0.2-0.28
	C460.65,275.85,460.71,275.95,460.78,276.04z"/>
<path style="fill-rule:evenodd;clip-rule:evenodd;fill:#EDA51F;" d="M471.88,292.36c0.05,0.1,0.1,0.2,0.16,0.29
	C471.99,292.55,471.94,292.45,471.88,292.36z"/>
<path style="fill-rule:evenodd;clip-rule:evenodd;fill:#7ABD80;" d="M507.36,301.15c0.08-0.05,0.15-0.1,0.23-0.15
	C507.51,301.05,507.43,301.1,507.36,301.15z"/>
<path style="fill-rule:evenodd;clip-rule:evenodd;fill:#00753F;" d="M519.84,288.03c0.05-0.07,0.11-0.15,0.16-0.22
	C519.94,287.88,519.89,287.96,519.84,288.03z"/>
<path style="fill-rule:evenodd;clip-rule:evenodd;fill:#00753F;" d="M496.8,303.68c-0.09,0.06-0.17,0.12-0.26,0.18
	C496.63,303.8,496.71,303.74,496.8,303.68z"/>
<path style="fill-rule:evenodd;clip-rule:evenodd;fill:#3BBFCE;" d="M486.96,304.6c0.08,0.06,0.16,0.12,0.23,0.18
	C487.12,304.73,487.04,304.67,486.96,304.6z"/>
<path style="fill-rule:evenodd;clip-rule:evenodd;fill:#3BBFCE;" d="M490.83,304.75c0.08-0.05,0.15-0.09,0.22-0.14
	C490.98,304.66,490.9,304.71,490.83,304.75z"/>
<path style="fill-rule:evenodd;clip-rule:evenodd;fill:#EBA12C;" d="M464.85,297.32c-0.1,0.1-0.2,0.2-0.3,0.3
	C464.66,297.52,464.75,297.42,464.85,297.32z"/>
<path style="fill-rule:evenodd;clip-rule:evenodd;fill:#DB5F28;" d="M453.36,309.37c-3.43,0.64-6.97,0.46-10.36,1.42
	c-0.54,0.15-0.86,0.06-1.1-0.53c-1.31-3.32-2.95-6.5-4.65-9.64c-1.15-2.12-1.2-4.53-1.55-6.83c-0.4-2.57-0.81-5.15-0.36-7.81
	c0.4-2.35,1.43-4.3,2.9-6.09c0.59,0.27,0.49,0.78,0.4,1.24c-0.36,1.82-0.27,3.64-0.11,5.48c0.24,2.8-0.33,5.57-0.56,8.35
	c-0.34,4.14,0.48,7.95,4.15,10.49c3.42,2.37,7.18,2.7,11.1,1.4c1.68-0.55,3.26-1.33,4.72-2.31c2.41-1.61,5.06-2.69,7.73-3.78
	c4.07-1.66,7.87-3.75,10.47-7.49c0.21-0.3,0.41-0.75,0.94-0.45c0,1.56-0.13,3.1-0.73,4.56c-3.34,2.78-6.94,5.06-11.11,6.44
	c-1.93,0.64-3.77,1.52-5.53,2.57C457.72,307.62,455.67,308.78,453.36,309.37z"/>
<path style="fill-rule:evenodd;clip-rule:evenodd;fill:#E07329;" d="M477.1,292.84c-0.88,0.38-1,1.37-1.6,2
	c-2.6,2.75-5.73,4.78-9.21,6.07c-3.62,1.35-6.87,3.29-10.22,5.12c-5.2,2.85-11.4,2.82-15.75-1.67c-2.5-2.58-3.03-5.92-2.74-9.34
	c0.28-3.24,0.95-6.43,0.44-9.72c-0.23-1.45-0.02-2.94,0.32-4.38c0.09-0.39,0.08-0.7-0.1-1.02c0.92-2.07,2.39-3.66,4.28-4.89
	c-0.27,1.25-1.27,2.08-1.79,3.2c-0.82,1.77-1.38,3.59-1.28,5.53c0.22,4.4-0.62,8.73-0.7,13.09c-0.11,6.34,5.65,10.86,11.9,9.83
	c2.98-0.49,5.39-2.01,7.99-3.25c0.23-0.18,0.5-0.29,0.72-0.48l0,0c4.5-1.98,9.25-3.46,13.23-6.5c2.19-1.67,3.67-3.82,4.31-6.52
	C477.26,290.86,477.17,291.85,477.1,292.84z"/>
<path style="fill-rule:evenodd;clip-rule:evenodd;fill:#D85128;" d="M453.36,309.37c1.84-1.1,3.92-1.73,5.71-2.93
	c2.94-1.99,6.42-2.8,9.57-4.32c2.34-1.13,4.49-2.58,6.57-4.13c0.36-0.27,0.71-0.52,1.16-0.58c-2.39,4.34-5.88,7.3-10.52,9.19
	c-3.71,1.51-7.53,2.19-11.41,2.79C454.09,309.43,453.72,309.37,453.36,309.37z"/>
<path style="fill-rule:evenodd;clip-rule:evenodd;fill:#EFA220;" d="M441.36,288.52c-0.24-0.48-0.48-0.96-0.72-1.44
	c-1.78-6.8,3.67-14.28,10.31-14.17c0.69,0.01,1.25,0.16,1.66,0.73c0.53,0.08,0.86,0.52,1.32,0.73c0.22,0.15,0.46,0.23,0.72,0.25
	c0.11,0.03,0.2,0.08,0.29,0.14c0.34,0.33,0.58,0.7,0.47,1.21c-0.05,0.11-0.13,0.2-0.23,0.27c-0.1,0.07-0.21,0.11-0.33,0.15
	c-0.06,0.01-0.12,0.01-0.18,0.01c-0.12-0.01-0.23-0.05-0.34-0.11c-1.15-1.18-2.43-2.17-4.2-1.82c-3.24,0.64-5.79,2.23-7.1,5.42
	c-0.29,0.7-0.5,1.44-0.73,2.16c-0.21,1.53-0.62,3.03-0.38,4.6C442.02,287.31,441.96,288.02,441.36,288.52z"/>
<path style="fill-rule:evenodd;clip-rule:evenodd;fill:#080402;" d="M454.8,274.87c-0.08-0.01-0.16-0.02-0.24-0.04
	c-0.2-0.22-0.52-0.03-0.72-0.22c-0.47-0.25-0.95-0.49-1.24-0.98c0.37-0.5,1.03-0.22,1.47-0.53c0.73,0.13,1.43-0.11,2.13-0.22
	c-0.09,0.88-0.8,0.69-1.35,0.76c-0.25,0.03-0.65-0.12-0.67,0.27c-0.02,0.32,0.34,0.39,0.61,0.46c0.11,0.03,0.23,0.08,0.34,0.12
	c0.52,0.21,1.42,0.03,1.49,0.69c0.07,0.68-0.69,1.13-1.25,1.47c-1.12,0.69-2.06,1.57-2.97,2.49c-1.42,1.31-2.87,2.6-4.1,4.12
	c-0.1,0.1-0.15,0.19,0.05,0.22c0.56-0.02,1.14,0.08,1.65-0.28c0.82,0.09,1.61-0.08,2.4-0.25c0.24,0.08,0.48,0.15,0.71,0.23
	c0.14,0.02,0.29,0.03,0.43,0.05c0.17,0.09,0.23,0.25,0.24,0.43c0,0.24-0.09,0.45-0.18,0.66c-0.29,0.61-0.67,1.16-1.06,1.7
	c-1.01,1.27-2.07,2.5-3.18,3.69c-0.1,0.11-0.29,0.23-0.22,0.37c0.09,0.16,0.27-0.01,0.41-0.03c0.35-0.05,0.71-0.18,0.94,0.24
	c-0.88,0.99-2.03,1.38-3.31,1.45c-0.5-0.5-0.04-0.85,0.21-1.21c0.75-1.11,1.83-1.94,2.59-3.04c0.22-0.25,0.43-0.51,0.65-0.76
	c0.48-0.36,0.82-0.84,1.08-1.38c0.05-0.09,0.12-0.18,0.18-0.27c0.03-0.04,0.07-0.08,0.1-0.13c0.06-0.09,0.12-0.17,0.19-0.26
	c0.02-0.04,0.05-0.09,0.08-0.14c0.22-0.75-0.38-0.55-0.71-0.56c-1.41-0.04-2.75,0.38-4.1,0.72c-0.48-0.02-0.99,0.06-1.2-0.54
	c-0.01-0.54,0.38-0.87,0.74-1.15c2.19-1.71,3.92-3.91,6.08-5.65c0.41-0.34,0.83-0.66,1.28-0.94c0.14-0.07,0.3-0.07,0.42-0.19
	l0.01-0.01c0.1-0.08,0.19-0.17,0.31-0.2c0.08,0.02,0.13-0.01,0.16-0.08C455.61,275.41,455.3,275.1,454.8,274.87z"/>
<path style="fill-rule:evenodd;clip-rule:evenodd;fill:#E37825;" d="M459.36,302.92c-0.14,0.32-0.38,0.48-0.72,0.48
	C458.78,303.08,459.02,302.92,459.36,302.92z"/>
<path style="fill-rule:evenodd;clip-rule:evenodd;fill:#E6F5FA;" d="M496.58,289.73c-0.15-0.04-0.35-0.04-0.45-0.14
	c-2.09-2.12-4.32-4.13-5.7-6.85c-0.41-0.81-0.72-1.69,0.08-2.41c0.82-0.75,1.67-0.5,2.48,0.14c1.91,1.53,4.55,1.26,6.52,2.49
	c2.58,1.61,5.45,2.01,8.3,2.65c3.07,0.69,3.94,3.66,1.81,6.02c-1.46,1.61-3.22,2.69-5.44,2.9c-0.9,0.28-1.45-0.31-1.88-0.89
	c-0.49-0.67,0.11-1.16,0.51-1.65c0.18-0.23,0.62-0.44,0.38-0.77c-0.2-0.27-0.59-0.02-0.88,0.07c-0.26,0.08-0.52,0.19-0.77,0.32
	c-1.42,0.75-2.63,0.71-3.59-0.79C497.65,290.34,497.01,290.14,496.58,289.73z"/>
<path style="fill-rule:evenodd;clip-rule:evenodd;fill:#030302;" d="M496.58,289.73c0.87-0.07,1.41,0.51,1.79,1.13
	c0.68,1.1,1.47,1.29,2.58,0.69c0.66-0.35,1.38-0.61,2.09-0.84c0.28-0.09,0.69-0.17,0.89,0.13c0.23,0.34-0.11,0.58-0.32,0.81
	c-0.03,0.03-0.06,0.05-0.09,0.08c-1.61,1.7-1.57,1.89,0.67,2.82c0.18,0.37,0.71,0.46,0.76,0.94c-0.95,0.6-1.98,0.22-2.97,0.21
	c-0.5,0-0.93-0.09-1.1,0.52c-0.51,0.65-0.42,1.49-0.73,2.2c-0.18,0.42-0.22,1.07-0.97,0.9c-0.06-0.09-0.13-0.16-0.22-0.21
	l-0.02-0.03c-0.13-0.29-0.38-0.58-0.37-0.87c0.1-2.22-1.34-2.35-2.97-2.25c-0.97-0.21-1.19-0.58-0.27-1.21
	c0.03-0.27,0.18-0.48,0.33-0.68c0.06-0.08,0.14-0.14,0.21-0.2c0.11-0.08,0.24-0.15,0.35-0.23c0.14-0.11,0.24-0.25,0.28-0.43
	c0.05-0.23,0.08-0.46,0.27-0.63c0-0.24,0.01-0.48,0.02-0.71C497.16,291.12,496.4,290.47,496.58,289.73z"/>
<path style="fill-rule:evenodd;clip-rule:evenodd;fill:#ADDFEB;" d="M510.21,284.95c-0.08-0.08-0.16-0.16-0.24-0.24l0.07-0.07
	c0.17-0.01,0.26,0.07,0.22,0.25L510.21,284.95z"/>
<path style="fill-rule:evenodd;clip-rule:evenodd;fill:#A62327;" d="M453.43,284.21c0.08-0.17,0.15-0.33,0.23-0.5
	c0.09-0.14,0.02-0.35,0.18-0.47c1.27-2,3.37-2.44,5.44-2.6c3.62-0.27,5.58,1.75,5.61,5.42c0.02,2.08,0,4.12-1.34,5.91
	c-0.52,0.69-1.05,1.29-1.85,1.62c-0.84-0.18-1.37-0.6-1.22-1.55c0.23-0.38,0.61-0.62,0.94-0.9c1.86-1.56,2.27-3.59,1.8-5.84
	c-0.55-2.66-3.04-3.87-6-3.04c-0.99,0.28-1.76,0.89-2.56,1.49C454.31,284.02,454,284.5,453.43,284.21z"/>
<path style="fill-rule:evenodd;clip-rule:evenodd;fill:#0B0403;" d="M460.5,292.16c0.28,0.58,0.69,1.05,1.2,1.43
	c0.02,0.13,0.03,0.27,0.05,0.4c-0.03,0.04-0.06,0.08-0.09,0.12c-0.21,0.09-0.4,0.03-0.57-0.1c-0.08-0.07-0.15-0.14-0.21-0.22
	c-0.12-0.16-0.23-0.33-0.37-0.48c-0.3-0.24-0.51-0.66-1-0.48c-0.43,0.14-0.75,0.55-1.25,0.53c-0.3-0.18-0.23-0.43-0.11-0.68
	c0.05-0.09,0.11-0.17,0.18-0.25c0.06-0.08,0.14-0.16,0.21-0.23c0.03-0.04,0.07-0.07,0.11-0.11c0.07-0.08,0.15-0.15,0.22-0.22
	c0.33-0.29,0.68-0.52,1.14-0.26c0.14,0.08,0.26,0.17,0.37,0.28C460.43,291.97,460.47,292.06,460.5,292.16z"/>
<path style="fill-rule:evenodd;clip-rule:evenodd;fill:#8E1E21;" d="M453.84,283.24c-0.06,0.16-0.12,0.31-0.18,0.47
	c-0.03-0.15-0.07-0.3-0.1-0.45C453.65,283.25,453.74,283.25,453.84,283.24z"/>
<path style="fill-rule:evenodd;clip-rule:evenodd;fill:#A62327;" d="M461.74,294c0.09,0.1,0.19,0.19,0.28,0.29l-0.05-0.02
	c-0.2,0.04-0.28-0.01-0.21-0.22L461.74,294z"/>
<path style="fill-rule:evenodd;clip-rule:evenodd;fill:#F0B934;" d="M461.04,298.36c0,0.34,0.16,0.58,0.48,0.71
	c0,0.08,0,0.16,0,0.24c-1.71,0.71-3.07,1.94-4.54,3c-3.34,2.41-6.94,3.5-10.98,2.18c-4-1.31-5.92-5.36-5.48-9.23
	c0.15-1.3,0.4-2.58,0.6-3.87c0.35-0.62,0.38-1.36,0.67-2c0.18-0.39,0.35-0.81,0.83-0.95c0.21,0.04,0.32,0.17,0.39,0.36
	c0,1.61-0.71,3.1-0.88,4.68c-0.12,1.23-0.5,2.44-0.33,3.68c0.66,4.74,4.76,7.5,9.51,6.45c1.95-0.43,3.65-1.35,5.26-2.5
	c1.33-0.95,2.46-2.16,3.94-2.91C460.71,298.18,460.89,298.22,461.04,298.36z"/>
<path style="fill-rule:evenodd;clip-rule:evenodd;fill:#F1B225;" d="M442.56,288.52c-0.48,0.96-0.96,1.92-1.44,2.88
	c0.22-0.95,0.29-1.91,0.24-2.88c0.4-1.97-0.03-4,0.47-5.96c0.07-0.26-0.01-0.56,0.25-0.76c0.48,0.47,0.39,1.09,0.37,1.67
	c-0.04,1.5,0.12,2.98,0.34,4.46C442.79,288.15,442.73,288.36,442.56,288.52z"/>
<path style="fill-rule:evenodd;clip-rule:evenodd;fill:#020202;" d="M510.26,284.9c-0.08-0.08-0.15-0.17-0.22-0.25
	c-0.01-0.47-0.02-0.94-0.03-1.41c0.92-1.87-0.99-1.55-1.68-2.18c-0.51-0.4-1.03-0.79-1.54-1.19c0.58-0.44,1.18-0.11,1.78-0.07
	c1.2,0.09,2.18-0.2,2.39-1.61l0.03-0.04c0.08-0.02,0.11-0.07,0.11-0.15c0.04-0.1,0.07-0.2,0.11-0.3c0.31-0.37,0.62-0.68,1.09-0.21
	c0.19,0.39,0.37,0.79,0.56,1.18c0.05,0.43,0.14,0.88,0.71,0.57c0.7-0.38,1.47-0.2,2.19-0.37c0.53,1.06-0.51,1.36-1,1.78
	c-0.66,0.56-0.83,0.99-0.19,1.62c-0.05,0.73,1.04,1.5,0.29,2.04c-0.56,0.41-1.19-0.53-1.81-0.83c-1.05-0.51-1.3,0.47-1.82,0.96
	C510.88,284.57,510.71,285.02,510.26,284.9z"/>
<path style="fill-rule:evenodd;clip-rule:evenodd;fill:#020201;" d="M479.95,276.52c0.27-0.15,0.55-0.3,0.82-0.45
	c0.37-0.07,0.81,0.1,1.1-0.28c0.69-0.68,1.01-1.46,0.77-2.45c-0.09-0.38-0.05-0.82,0.4-1.01c0.42-0.18,0.77,0.03,1.09,0.29
	c0.19,0.15,0.32,0.35,0.46,0.54c0.8,1.08,0.8,1.08,1.89,0.31c0.15-0.09,0.3-0.16,0.47-0.21c0.18-0.03,0.34,0.01,0.49,0.13
	c0.23,0.06,0.39-0.01,0.48-0.24c0.08-0.07,0.16-0.14,0.23-0.22h0.01c0.06-0.11,0.16-0.17,0.28-0.19l0,0
	c0.36,0.21-0.07,0.45,0.02,0.67c-0.08,0.16-0.16,0.32-0.24,0.48c-0.06,0.05-0.09,0.12-0.08,0.2c-0.05,0.11-0.14,0.19-0.22,0.27
	c-1.36,1.67-1.35,1.7,0.54,3.78c0.19,0.21,0.66,0.28,0.37,0.71c-0.19,0.28-0.46,0.41-0.82,0.36c-0.74-0.11-1.49-0.19-2.24-0.27
	c-0.57-0.06-1.15-0.12-1.21,0.71c-0.1,0.11-0.11,0.23-0.07,0.36c0.01,0.09,0.01,0.18-0.01,0.27c-0.02,0.09-0.06,0.18-0.11,0.26
	c-0.08,0.12-0.18,0.23-0.32,0.27c-0.07,0.1-0.14,0.2-0.22,0.3c-0.22,0.13-0.43,0.26-0.65,0.39c-0.07-0.16-0.15-0.33-0.22-0.49
	l-0.05-0.1c-0.06-0.18-0.13-0.37-0.19-0.55c-0.29-0.22-0.39-0.56-0.52-0.88c-0.06-0.97-0.6-1.46-1.56-1.51
	c-0.31-0.16-0.65-0.26-0.87-0.56C479.25,276.99,479.81,276.8,479.95,276.52z"/>
<path style="fill-rule:evenodd;clip-rule:evenodd;fill:#B1E0EC;" d="M484.35,280.12c0.01-0.08,0.03-0.16,0.04-0.24
	c0.06-0.1,0.12-0.1,0.19-0.01c0.83,0.09,1.65,0.17,2.48,0.27c0.9,0.11,1.25,0.81,1.49,1.53c0.77,2.36,2.08,4.37,3.93,5.99
	c1.66,1.46,2.58,3.53,4.28,4.94c0.01,0.32,0.02,0.65,0.04,0.97c-0.52,0.27-0.89-0.05-1.1-0.42c-1.63-2.88-4.23-4.97-6.11-7.64
	c-0.59-0.85-1.21-1.68-1.64-2.64c-0.48-1.08-1.18-1.87-2.45-2.02C485.05,280.78,484.55,280.66,484.35,280.12z"/>
<path style="fill-rule:evenodd;clip-rule:evenodd;fill:#9DD9E5;" d="M484.58,279.87c-0.06,0.01-0.13,0.01-0.19,0.01
	c0.05-0.08,0.11-0.16,0.17-0.24C484.57,279.71,484.58,279.79,484.58,279.87z"/>
<path style="fill-rule:evenodd;clip-rule:evenodd;fill:#B2E1EC;" d="M487.92,274.35c0.07-0.09,0.15-0.18,0.22-0.27
	C488.07,274.17,487.99,274.26,487.92,274.35z"/>
<path style="fill-rule:evenodd;clip-rule:evenodd;fill:#84D1DE;" d="M484.05,280.8c0.08-0.17,0.15-0.33,0.23-0.5
	c0.47,0.32,1.04,0.39,1.57,0.58c1.01,0.35,1.71,1.02,2.15,1.96c0.85,1.82,2.03,3.42,3.43,4.84c1.72,1.75,3.15,3.69,4.37,5.81
	c0.12,0.21,0.24,0.42,0.07,0.67c-0.18,0.2-0.37,0.4-0.55,0.6c-0.78-0.38-0.86-1.21-1.2-1.86c-1.5-2.88-4.1-4.94-5.75-7.68
	C487.27,283.37,485.89,281.89,484.05,280.8z"/>
<path style="fill-rule:evenodd;clip-rule:evenodd;fill:#81D1E0;" d="M498.95,299.11c0.07,0.07,0.15,0.14,0.22,0.21
	C499.1,299.25,499.03,299.18,498.95,299.11z"/>
<path style="fill-rule:evenodd;clip-rule:evenodd;fill:#8F7D7A;" d="M448.36,283.5c-0.13,0.12-0.34,0.33-0.43,0.15
	c-0.12-0.24,0.21-0.28,0.38-0.37C448.3,283.36,448.32,283.43,448.36,283.5z"/>
<path style="fill-rule:evenodd;clip-rule:evenodd;fill:#DAEFF6;" d="M486.73,273.59c-1.43,1.26-1.44,1.27-2.43-0.36
	c-0.26-0.43-0.63-0.88-1.09-0.74c-0.58,0.18-0.33,0.75-0.22,1.2c0.26,1.02,0.03,1.8-1.11,2.1c-0.67,0.04-0.91-0.3-0.91-0.95
	c0-1.54,1.05-2.79,2.71-3.18c1.5-0.35,3.13,0.4,3.77,1.71c-0.14,0.01-0.29,0.03-0.43,0.04
	C486.91,273.47,486.82,273.53,486.73,273.59z"/>
<path style="fill-rule:evenodd;clip-rule:evenodd;fill:#7ECFDC;" d="M488.44,272.73c-0.09,0.06-0.19,0.13-0.28,0.19
	c-0.01-0.08-0.01-0.16,0-0.24C488.26,272.7,488.35,272.71,488.44,272.73z"/>
<path style="fill-rule:evenodd;clip-rule:evenodd;fill:#A0D9E4;" d="M488.15,272.92c-0.08,0.08-0.16,0.15-0.23,0.22
	C488,273.07,488.08,272.99,488.15,272.92z"/>
<path style="fill-rule:evenodd;clip-rule:evenodd;fill:#F6E25E;" d="M467.05,277.88c-0.09,1.02-0.94,1.37-1.88,1.47
	c-0.59,0.06-1.36-0.2-1.21-0.95c0.25-1.23,1.55-1.19,2.44-1.55C466.91,276.65,467.04,277.28,467.05,277.88z"/>
<path style="fill-rule:evenodd;clip-rule:evenodd;fill:#1FBCCB;" d="M511.09,278.01c0.01,0.08-0.02,0.13-0.11,0.15
	C510.99,278.09,511.03,278.04,511.09,278.01z"/>
<path style="fill-rule:evenodd;clip-rule:evenodd;fill:#F6D332;" d="M461.04,298.36c-0.16,0-0.32,0-0.48,0
	c-0.97-0.18-0.72-0.97-0.79-1.59c0.28-1.05,0.61-2.08,1.27-2.97c0.24,0.08,0.49,0.16,0.73,0.24c0.07,0.07,0.14,0.15,0.21,0.22
	c-0.05,0.74,0.7,0.93,0.99,1.44C462.63,296.81,461.65,297.46,461.04,298.36z"/>
<path style="fill-rule:evenodd;clip-rule:evenodd;fill:#7CCCD8;" d="M482.47,279.38c0.08,0.32,0.16,0.64,0.25,0.96
	c-1.41-0.55-2.16-1.76-2.94-2.95c0.31,0.11,0.63,0.21,0.94,0.32C481.4,278.17,481.89,278.82,482.47,279.38z"/>
<path style="fill-rule:evenodd;clip-rule:evenodd;fill:#1DBBC9;" d="M482.91,280.9l0.07,0.03c0,0-0.01,0.07-0.01,0.07
	C482.92,280.98,482.9,280.95,482.91,280.9z"/>
<path style="fill-rule:evenodd;clip-rule:evenodd;fill:#F5BC17;" d="M442.56,288.04c-0.7-2.04-0.43-4.15-0.48-6.23
	c0.81-4.1,3.46-6.44,7.32-7.6c1.87-0.56,3.62,0.15,5.16,2.07c0.07,0.06,0.09,0.12,0.07,0.18c-0.02,0.06-0.04,0.09-0.06,0.09
	c-0.4,0.34-0.79,0.68-1.19,1.01c-0.27-0.12-0.41-0.37-0.56-0.6c-0.66-1.02-1.61-1.21-2.71-0.94c-3.62,0.88-5.85,3.38-6.24,7.07
	c-0.07,0.67-0.18,1.34-0.29,2.01c-0.12,0.59-0.15,1.19-0.25,1.78C443.25,287.35,443.26,287.95,442.56,288.04z"/>
<path style="fill-rule:evenodd;clip-rule:evenodd;fill:#E69C20;" d="M454.8,274.87c0.36-0.01,0.79-0.03,0.92,0.36
	c0.1,0.31-0.15,0.59-0.44,0.75C455.12,275.61,454.96,275.24,454.8,274.87z"/>
<path style="fill-rule:evenodd;clip-rule:evenodd;fill:#E69C20;" d="M453.84,274.62c0.24,0.07,0.48,0.14,0.72,0.22
	C454.3,274.84,454.03,274.88,453.84,274.62z"/>
<path style="fill-rule:evenodd;clip-rule:evenodd;fill:#E69C20;" d="M455.11,276.06c-0.1,0.07-0.21,0.14-0.31,0.2
	C454.9,276.2,455.01,276.13,455.11,276.06z"/>
<path style="fill-rule:evenodd;clip-rule:evenodd;fill:#E69C20;" d="M454.57,276.55c0-0.09-0.01-0.18-0.02-0.27
	c0.08,0,0.16,0,0.23,0C454.72,276.37,454.65,276.46,454.57,276.55z"/>
<path style="fill-rule:evenodd;clip-rule:evenodd;fill:#F6E862;" d="M447.12,291.64c1.18-0.36,2.36-0.72,3.39-1.43
	c0.03-0.05,0.06-0.1,0.09-0.15c1.02-0.67,2.17-0.96,3.34-1.23c1.34-0.3,2.16,0.29,2.35,1.64c0.16,1.13-0.16,2.21-0.31,3.31
	c-0.1,0.74-0.27,1.47-0.21,2.21c0.08-0.01,0.15-0.03,0.22-0.08c0.03-0.03,0.07-0.05,0.1-0.08c0.07-0.07,0.13-0.13,0.2-0.19
	c0.04-0.04,0.07-0.07,0.11-0.1c0.08-0.08,0.15-0.14,0.24-0.21c0.05-0.03,0.09-0.06,0.14-0.09c0.1-0.06,0.21-0.08,0.33-0.08
	c0.06,0.02,0.11,0.05,0.16,0.08c0.08,0.1,0.13,0.21,0.16,0.33c-0.21,2.08-1.65,3.3-3.21,4.35c-2.18,1.47-4.5,1.96-6.96,0.57
	c-3.08-1.75-3.38-5.91-1.29-8.66C446.23,291.47,446.64,291.01,447.12,291.64z"/>
<path style="fill-rule:evenodd;clip-rule:evenodd;fill:#F9D00D;" d="M443.28,284.92c0.28-1.72,0.33-3.5,1.12-5.09
	c1.27-2.55,3.65-3.61,6.21-4.23c1.44-0.35,2.45,0.46,2.78,1.96c-2.3,2.14-4.59,4.28-6.89,6.42c-0.62,0.41-1.18,0.93-1.89,1.21
	C444.11,285.4,443.62,285.53,443.28,284.92z"/>
<path style="fill-rule:evenodd;clip-rule:evenodd;fill:#F6DE4D;" d="M461.04,293.8c0.01,1.07-0.75,1.89-0.96,2.88
	c-1.69,3.79-7.43,8.27-12.95,6.4c-3.32-1.12-5.43-4.82-4.82-8.69c0.19-1.23,0.52-2.42,1.11-3.53c1.74-3.06,4.18-5.31,7.58-6.4
	c0.54-0.17,1.28-0.61,1.44,0.49l0-0.01c-0.13,0.04-0.21,0.13-0.26,0.26l0.02-0.02c-0.14,0.05-0.21,0.15-0.25,0.28
	c-0.21,0.63-0.56,1.14-1.2,1.4c-0.05-0.03-0.1-0.05-0.15-0.08c-0.96-0.23-1.61,0.41-2.22,0.9c-2.75,2.19-4.47,4.92-4.31,8.61
	c0.15,3.45,2.77,5.63,6.12,5.5c4.21-0.17,8.21-3.76,9.12-7.9c0.1-0.44,0.15-0.86,0.07-1.3c0.85-0.46,1.01,0.38,1.41,0.75
	C460.96,293.46,460.89,293.69,461.04,293.8L461.04,293.8z"/>
<path style="fill-rule:evenodd;clip-rule:evenodd;fill:#B6272E;" d="M460.5,292.16c-0.07-0.02-0.14-0.06-0.19-0.11
	c-0.09-0.04-0.16-0.09-0.21-0.17c-0.5-0.39-0.83-0.04-1.19,0.25c-0.1,0.07-0.19,0.14-0.26,0.24l0.01-0.01
	c-0.1,0.07-0.18,0.15-0.25,0.25l0.01,0c-0.69,0.31-1.33,0.16-1.96-0.17c-0.24-0.28-0.21-0.61-0.16-0.94
	c0.38-0.78,1.06-0.5,1.68-0.47c1.6,0.09,2.95-0.48,3.76-1.87c0.89-1.54,1.05-3.18,0-4.75c-1.53-2.3-5.32-2.01-6.91,0.44
	c-0.79,1.23-0.62,2.51-0.62,3.81c-0.09,0.19-0.27,0.26-0.45,0.31c-0.19,0.04-0.38,0.1-0.57,0.14c-0.21,0.06-0.4,0.04-0.59-0.07
	c-0.85-1.01-0.66-2.09-0.21-3.18c0.34-0.56,0.69-1.11,1.03-1.67c0.67-0.49,1.31-1.01,2-1.45c3.09-1.95,7.19-1.48,8.18,2.57
	C464.29,288.13,463.06,290.77,460.5,292.16z"/>
<path style="fill-rule:evenodd;clip-rule:evenodd;fill:#F7E559;" d="M447.12,291.64c-0.5-0.29-0.74,0.11-0.98,0.4
	c-1.58,1.92-1.58,5.18,0,7.13c1.43,1.76,4.33,2.31,6.55,1.2c2.18-1.1,4.13-2.43,4.51-5.13c-0.03-0.04-0.07-0.07-0.1-0.11
	c0-0.05-0.01-0.1-0.01-0.15c0.02-0.1,0.05-0.19,0.09-0.28c0.04-0.09,0.09-0.18,0.15-0.26c0.06-0.09,0.12-0.17,0.19-0.24
	c0.03-0.04,0.07-0.08,0.11-0.12c0.07-0.08,0.14-0.16,0.22-0.24c0.04-0.04,0.08-0.08,0.12-0.12c0.08-0.08,0.18-0.15,0.28-0.21
	c0.05-0.03,0.1-0.06,0.16-0.09c0.89-0.5,0.98,0.04,0.87,0.7c-0.25,1.46-1.03,2.69-1.94,3.8c-1.17,1.43-2.57,2.63-4.32,3.34
	c-1.56,0.63-3.19,0.75-4.81,0.3c-2.78-0.77-4.36-3.08-4.18-6.2c0.19-3.43,1.96-6,4.7-7.95c0.44-0.31,0.92-0.49,1.46-0.22
	c0.12,0.09,0.14,0.2,0.06,0.33c-0.68,1.3-1.92,2.14-2.74,3.33C447.32,291.11,446.99,291.25,447.12,291.64z"/>
<path style="fill-rule:evenodd;clip-rule:evenodd;fill:#F8DA34;" d="M452.44,284.95c-0.29-0.65-0.76-0.39-1.21-0.25
	c-3.34,1.05-5.74,3.23-7.47,6.21c-0.94-0.39-0.47-1.29-0.7-1.94c-0.01-0.24,0.04-0.49,0.21-0.67c1.34-1.39,2.48-3,4.32-3.83
	c1.47-0.74,3.1-0.87,4.68-0.82C453.49,283.7,452.63,284.47,452.44,284.95z"/>
<path style="fill-rule:evenodd;clip-rule:evenodd;fill:#F8D21F;" d="M447.59,284.48c-1.46,1.4-3.04,2.69-4.31,4.28
	c-0.16,0.14-0.32,0.14-0.48,0c-0.08-0.08-0.16-0.16-0.24-0.24c0-0.16,0-0.32,0-0.49c0.77-0.92,0.27-2.13,0.72-3.12
	c0.79,0.51,1.37-0.07,1.94-0.44c0.41-0.26,0.74-0.61,1.27-0.49C446.45,285.06,447.25,284.27,447.59,284.48z"/>
<path style="fill-rule:evenodd;clip-rule:evenodd;fill:#9D2125;" d="M452.4,285.87c0.16,1.04-0.38,2.19,0.48,3.13
	c-0.6,0.8-1.67,0.66-2.39,1.22l0.03-0.01c-0.16,0-0.32-0.02-0.47,0c-0.54,0.05-1.21,0.74-1.49,0.32c-0.21-0.31,0.55-0.94,0.94-1.38
	C450.46,288.06,451.43,286.96,452.4,285.87z"/>
<path style="fill-rule:evenodd;clip-rule:evenodd;fill:#F6DE4D;" d="M450.23,287.54c-0.01-0.07-0.01-0.14-0.02-0.21
	c-0.06-0.38,0.12-0.54,0.49-0.5l0.04,0.04C450.58,287.09,450.4,287.31,450.23,287.54z"/>
<path style="fill-rule:evenodd;clip-rule:evenodd;fill:#F8DA34;" d="M451.95,285.46c0.08-0.09,0.17-0.19,0.25-0.28
	C452.12,285.28,452.03,285.37,451.95,285.46z"/>
<path style="fill-rule:evenodd;clip-rule:evenodd;fill:#F8DA34;" d="M452.18,285.2c0.09-0.09,0.17-0.17,0.26-0.26
	C452.36,285.03,452.27,285.11,452.18,285.2z"/>
<path style="fill-rule:evenodd;clip-rule:evenodd;fill:#F5E45C;" d="M502.55,291.63c-0.08,0.17-0.12,0.38-0.24,0.51
	c-0.9,0.92-0.98,1.68,0.33,2.29c0.26,0.12,0.74,0.23,0.64,0.58c-0.12,0.41-0.56,0.17-0.82,0.09c-1.67-0.49-2.43,0.24-2.67,1.84
	c-0.03,0.21,0.04,0.66-0.34,0.65c-0.38,0-0.34-0.44-0.33-0.66c0.05-1.43-0.87-1.54-1.95-1.52c-0.3,0.01-0.8-0.08-0.86-0.25
	c-0.11-0.31,0.29-0.54,0.55-0.68c0.95-0.5,1.14-1.15,0.68-2.13c-0.17-0.36-0.14-1.16,0.02-1.24c0.44-0.19,0.49,0.45,0.74,0.7
	c0.78,0.82,1.52,1.32,2.63,0.45c0.44-0.35,1.09-0.42,1.65-0.62L502.55,291.63z"/>
<path style="fill-rule:evenodd;clip-rule:evenodd;fill:#9DD9E5;" d="M495.87,294.16c-1.51-2.57-3.29-4.92-5.36-7.1
	c-1.08-1.14-2.14-2.43-2.72-4c-0.45-1.2-1.52-1.79-2.67-2.19c-0.36-0.12-0.68-0.2-0.85-0.56c-0.01-0.07,0.01-0.14,0.06-0.19
	c2.81,0.22,3.85,2.39,4.99,4.49c1.09,2.02,2.89,3.47,4.35,5.2c0.78,0.91,1.31,1.97,2.05,2.9c0.3,0.38,0.49,0.83,1.06,0.86
	c-0.02,0.32-0.27,0.23-0.45,0.26c-0.09,0.05-0.18,0.11-0.26,0.17C496.02,294.05,495.95,294.1,495.87,294.16z"/>
<path style="fill-rule:evenodd;clip-rule:evenodd;fill:#84D1DE;" d="M496.09,293.99c0.09-0.06,0.17-0.11,0.26-0.17
	C496.26,293.88,496.18,293.94,496.09,293.99z"/>
<path style="fill-rule:evenodd;clip-rule:evenodd;fill:#98989A;" d="M502.57,291.65c0.03-0.06,0.06-0.12,0.09-0.18
	c0.03,0.04,0.06,0.07,0.09,0.11c-0.06,0.02-0.13,0.03-0.19,0.05L502.57,291.65z"/>
<path style="fill-rule:evenodd;clip-rule:evenodd;fill:#F7E558;" d="M450.71,286.83c-0.16,0.17-0.33,0.33-0.49,0.5
	c-0.69-0.08-1.23,0.23-1.75,0.63c-2.58,1.97-4.1,4.55-4.21,7.8c-0.13,3.9,3.47,6.71,7.44,5.63c3.6-0.97,6.02-3.43,7.19-7.03
	c0.09-0.28,0.39-0.64,0.07-0.88c-0.31-0.24-0.53,0.28-0.85,0.28c-0.05-0.09-0.07-0.19-0.05-0.29c0.03-0.04,0.06-0.08,0.1-0.12
	c0.4-0.25,0.81-0.49,1.21-0.74c0.52,0.08,0.46,0.44,0.4,0.82c-0.73,4.52-5.25,8.71-9.76,8.73c-3.35,0.01-6.2-2.06-6.26-5.96
	c-0.08-4.64,2.31-7.7,6.21-9.8C450.31,286.21,451.14,285.53,450.71,286.83z"/>
<path style="fill-rule:evenodd;clip-rule:evenodd;fill:#A92429;" d="M456.5,292.36c0.66-0.05,1.29,0.05,1.91,0.25
	c-0.08,0.25-0.16,0.49-0.25,0.73l0.01-0.03c-0.72,0.66-0.94,1.83-2.1,2.03c-0.12-0.06-0.21-0.15-0.26-0.27
	C455.92,294.14,455.67,293.11,456.5,292.36z"/>
<path style="fill-rule:evenodd;clip-rule:evenodd;fill:#F6D332;" d="M461.04,293.8c-0.08-0.15-0.17-0.3-0.25-0.45
	C460.87,293.5,460.96,293.65,461.04,293.8z"/>
<path style="fill-rule:evenodd;clip-rule:evenodd;fill:#A62327;" d="M460.1,291.88c0.07,0.06,0.14,0.11,0.21,0.17
	C460.24,291.99,460.17,291.93,460.1,291.88z"/>
<path style="fill-rule:evenodd;clip-rule:evenodd;fill:#A92429;" d="M458.65,292.37c0.09-0.08,0.17-0.16,0.26-0.24
	C458.82,292.21,458.73,292.29,458.65,292.37z"/>
<path style="fill-rule:evenodd;clip-rule:evenodd;fill:#A92429;" d="M458.41,292.61c0.08-0.08,0.16-0.17,0.25-0.25
	C458.57,292.45,458.49,292.53,458.41,292.61z"/>
<path style="fill-rule:evenodd;clip-rule:evenodd;fill:#F4CE3A;" d="M442.8,288.76c0.16,0,0.32,0,0.48,0
	c0.36,0.67,0.02,1.5,0.48,2.16c-1.2,2.53-1.71,5.13-0.64,7.83c1.5,3.79,5.19,4.86,8.36,4.28c3.9-0.71,6.3-3.45,8.6-6.34
	c0,0.61-0.06,1.23,0.48,1.68c-2.59,2.09-5.03,4.4-8.34,5.38c-3.82,1.13-7.98-0.2-9.77-3.28c-1.44-2.47-1.09-5.12-0.52-7.75
	C442.21,291.39,442.51,290.08,442.8,288.76z"/>
<path style="fill-rule:evenodd;clip-rule:evenodd;fill:#E83091;" d="M513.89,280.41c-0.84,0.56-0.88,1.26-0.38,2.06
	c-0.01,0.14-0.08,0.2-0.21,0.21c-0.79-0.73-1.28-0.02-1.84,0.38c-0.1,0.03-0.2,0.02-0.28-0.05c0.56-1.26-0.32-1.57-1.23-1.88
	c-0.25-0.09-0.63-0.16-0.59-0.48c0.04-0.33,0.45-0.33,0.7-0.3c0.82,0.13,1.01-0.37,1.16-1.01c0.06-0.24,0.26-0.57,0.45-0.62
	c0.33-0.09,0.45,0.3,0.52,0.54c0.24,0.93,0.84,1.05,1.63,0.83C513.95,280.17,513.97,280.27,513.89,280.41z"/>
<path style="fill-rule:evenodd;clip-rule:evenodd;fill:#C3ABB7;" d="M513.89,280.41c-0.02-0.11-0.05-0.21-0.07-0.32
	c0.14-0.11,0.26-0.29,0.47-0.13C514.16,280.1,514.02,280.25,513.89,280.41z"/>
<path style="fill-rule:evenodd;clip-rule:evenodd;fill:#FEFEFE;" d="M513.3,282.68c0.07-0.07,0.14-0.14,0.21-0.21
	c-0.01,0.09-0.02,0.19-0.03,0.28C513.42,282.72,513.36,282.7,513.3,282.68z"/>
<path style="fill-rule:evenodd;clip-rule:evenodd;fill:#E1D7DD;" d="M511.18,283c0.09,0.02,0.19,0.03,0.28,0.05
	c-0.08,0.05-0.16,0.09-0.24,0.14C511.21,283.13,511.2,283.07,511.18,283z"/>
<path style="fill-rule:evenodd;clip-rule:evenodd;fill:#861C1D;" d="M484.03,275.58c-0.18-0.58-0.64-1.15-0.42-1.85
	c0.7,0.27,0.71,1.09,1.23,1.53c0.68,0.58,0.88-0.12,1.25-0.37c0.24-0.16,0.41-0.63,0.75-0.4c0.28,0.18,0.02,0.52-0.1,0.76
	c-0.53,1.03-0.67,1.93,0.59,2.56c0.2,0.1,0.55,0.31,0.35,0.65c-0.14,0.25-0.42,0.11-0.66,0.07c-0.43-0.06-0.9-0.01-1.3-0.15
	c-0.95-0.35-1.53-0.19-1.71,0.9c-0.04,0.27-0.15,0.72-0.54,0.66c-0.15-0.02-0.25-0.45-0.35-0.71c-0.33-0.88-0.13-2.2-1.73-2.03
	c-0.21,0.02-0.45-0.43-0.14-0.4c0.68,0.05,1.21-1.36,1.96-0.19c0.06,0.09,0.39,0.14,0.4,0.12
	C483.76,276.36,483.88,276,484.03,275.58z"/>
<path style="fill-rule:evenodd;clip-rule:evenodd;fill:#A1D7E2;" d="M482.47,279.38c-0.87-0.25-1.41-0.86-1.75-1.66
	C481.93,277.61,482.55,278.13,482.47,279.38z"/>
<path style="fill-rule:evenodd;clip-rule:evenodd;fill:#BEE4EE;" d="M486.73,273.59c0.09-0.06,0.19-0.11,0.28-0.17
	C486.91,273.48,486.82,273.53,486.73,273.59z"/>
<path style="fill-rule:evenodd;clip-rule:evenodd;fill:#060302;" d="M456.23,295.26c0.74-0.56,1.04-1.55,1.95-1.94
	c-0.02,0.14-0.04,0.29-0.06,0.43l0.01,0c-0.04,0.12-0.12,0.21-0.22,0.29l0,0c-0.07,0.09-0.16,0.16-0.23,0.25l-0.01,0.01
	c-0.08,0.06-0.14,0.13-0.18,0.22c-0.07,0.03-0.1,0.09-0.09,0.17c-0.03,0.14-0.12,0.23-0.22,0.32l0,0c-0.07,0.09-0.14,0.17-0.22,0.25
	l-0.01,0.01c-0.09,0.06-0.16,0.13-0.21,0.23l-0.02,0.02c-0.09,0.05-0.17,0.12-0.23,0.21l-0.02,0.01c-0.09,0.07-0.17,0.14-0.25,0.22
	l0,0c-0.08,0.07-0.14,0.14-0.19,0.24c-0.24,0.29-0.37,0.72-0.86,0.71c0.04-0.37,0.06-0.74,0.11-1.11c0.25-1.74,0.77-3.46,0.64-5.23
	c-0.11-1.5-0.65-1.82-2.13-1.37c-1.11,0.34-2.22,0.68-3.34,1.03c0.63-0.74,1.66-0.69,2.39-1.22c0.17-0.03,0.33-0.05,0.5-0.08
	c0.1-0.03,0.18-0.08,0.25-0.16c0.16-0.02,0.31-0.04,0.47-0.06c0.41-0.32,0.88-0.28,1.36-0.23c0.66,0.14,1.05,0.56,1.25,1.19
	c0.08,0.25,0.11,0.52,0.11,0.79c0.02,0.34-0.14,0.63-0.27,0.93c-0.01,0.32-0.01,0.65-0.02,0.97c-0.15,0.96-0.31,1.92-0.46,2.88
	C456.09,295.32,456.16,295.34,456.23,295.26z"/>
<path style="fill-rule:evenodd;clip-rule:evenodd;fill:#F7E558;" d="M456.98,295.25c0.07-0.08,0.15-0.17,0.22-0.25
	c0,0.08,0,0.16,0,0.25C457.12,295.24,457.05,295.24,456.98,295.25z"/>
<path style="fill-rule:evenodd;clip-rule:evenodd;fill:#F7E558;" d="M456.76,295.49c0.07-0.08,0.14-0.15,0.21-0.23
	C456.9,295.34,456.83,295.41,456.76,295.49z"/>
<path style="fill-rule:evenodd;clip-rule:evenodd;fill:#F7E558;" d="M456.5,295.73c0.08-0.07,0.15-0.14,0.23-0.21
	C456.66,295.58,456.58,295.66,456.5,295.73z"/>
<path style="fill-rule:evenodd;clip-rule:evenodd;fill:#F7E558;" d="M456.24,295.96c0.08-0.07,0.16-0.15,0.25-0.22
	C456.41,295.81,456.32,295.89,456.24,295.96z"/>
<path style="fill-rule:evenodd;clip-rule:evenodd;fill:#F7E558;" d="M456.05,296.2c0.06-0.08,0.13-0.16,0.19-0.24
	C456.18,296.04,456.12,296.12,456.05,296.2z"/>
<path style="fill-rule:evenodd;clip-rule:evenodd;fill:#C42B33;" d="M456.52,291.39c-0.01-0.32-0.01-0.63-0.02-0.95
	c0.73-0.35,1.49-0.01,2.23-0.08c1.43-0.14,2.83-1.39,3.13-2.88c0.3-1.5-0.51-3.23-1.79-3.86c-2.24-1.1-5.29,0.71-5.4,3.2
	c-0.02,0.58,0.02,1.13,0.6,1.46c0.15,0.11,0.26,0.24,0.24,0.44c-0.48,0-0.96,0-1.43-0.01c-0.61-2.12-0.05-3.95,1.59-5.24
	c1.37-1.08,3.8-1.27,5.2-0.42c1.65,1,2.34,3.47,1.55,5.54c-0.72,1.91-2.81,3.14-4.77,2.75
	C457.25,291.25,456.89,291.13,456.52,291.39z"/>
<path style="fill-rule:evenodd;clip-rule:evenodd;fill:#9D2125;" d="M453.61,288.76c-0.08,0.05-0.16,0.1-0.25,0.16
	C453.45,288.87,453.53,288.82,453.61,288.76z"/>
<path style="fill-rule:evenodd;clip-rule:evenodd;fill:#F7E558;" d="M457.69,294.28c0.08-0.08,0.15-0.17,0.23-0.25
	C457.84,294.11,457.76,294.2,457.69,294.28z"/>
<path style="fill-rule:evenodd;clip-rule:evenodd;fill:#F7E558;" d="M457.5,294.51c0.06-0.07,0.12-0.15,0.18-0.22
	C457.62,294.36,457.56,294.44,457.5,294.51z"/>
<path style="fill-rule:evenodd;clip-rule:evenodd;fill:#F7E558;" d="M457.19,295c0.07-0.11,0.15-0.21,0.22-0.32
	C457.34,294.78,457.27,294.89,457.19,295z"/>
<path style="fill-rule:evenodd;clip-rule:evenodd;fill:#F7E558;" d="M457.91,294.03c0.07-0.1,0.15-0.19,0.22-0.29
	C458.06,293.84,457.98,293.94,457.91,294.03z"/>
<path style="fill-rule:evenodd;clip-rule:evenodd;fill:#D4D7D8;" d="M456.23,295.26c-0.06,0.05-0.11,0.11-0.17,0.16
	c-0.01-0.06-0.02-0.12-0.02-0.18C456.1,295.25,456.17,295.26,456.23,295.26z"/>
<path style="fill-rule:evenodd;clip-rule:evenodd;fill:#D9323D;" d="M455.52,288.71c-0.07-0.07-0.15-0.14-0.22-0.21
	c-1.06-1.34-0.7-3.16,0.9-4.48c1.34-1.12,3.49-1.03,4.72,0.18c1.31,1.31,1.36,3.48,0.12,4.9c-1.29,1.48-3.1,1.72-4.58,0.63
	C456.25,289.29,455.94,288.94,455.52,288.71z"/>
<path style="fill-rule:evenodd;clip-rule:evenodd;fill:#C82D36;" d="M456.45,289.73c0.89,0.11,1.7,0.55,2.67,0.25
	c1.79-0.54,2.7-1.99,2.4-4.08c-0.2-1.37-1.8-2.51-3.4-2.42c-1.52,0.08-2.98,1.59-3.07,3.14c-0.04,0.65,0.04,1.27,0.25,1.88
	c-0.92,0.07-0.88-0.68-0.95-1.22c-0.26-2,1.66-4.15,3.78-4.29c2.36-0.16,4.04,1.26,4.12,3.47c0.09,2.41-1.56,4.22-3.86,4.2
	c-0.63-0.01-1.25-0.15-1.88-0.23C456.48,290.2,456.47,289.97,456.45,289.73z"/>
<path style="fill-rule:evenodd;clip-rule:evenodd;fill:#E73646;" d="M458.44,284.68c1.11,0.01,2.12,1.05,2.1,2.16
	c-0.01,1.04-1.21,2.13-2.35,2.14c-0.89,0.01-2.11-1.22-2.12-2.14C456.07,285.58,457.07,284.66,458.44,284.68z"/>
</svg>
