<?xml version="1.0" encoding="utf-8"?>
<!-- Generator: Adobe Illustrator 16.0.0, SVG Export Plug-In . SVG Version: 6.00 Build 0)  -->
<!DOCTYPE svg PUBLIC "-//W3C//DTD SVG 1.0//EN" "http://www.w3.org/TR/2001/REC-SVG-20010904/DTD/svg10.dtd" [
	<!ENTITY ns_flows "http://ns.adobe.com/Flows/1.0/">
	<!ENTITY ns_extend "http://ns.adobe.com/Extensibility/1.0/">
	<!ENTITY ns_ai "http://ns.adobe.com/AdobeIllustrator/10.0/">
	<!ENTITY ns_graphs "http://ns.adobe.com/Graphs/1.0/">
]>
<svg version="1.0" id="Layer_1" xmlns:x="&ns_extend;" xmlns:i="&ns_ai;" xmlns:graph="&ns_graphs;"
	 xmlns="http://www.w3.org/2000/svg" xmlns:xlink="http://www.w3.org/1999/xlink" xmlns:a="http://ns.adobe.com/AdobeSVGViewerExtensions/3.0/"
	 x="0px" y="0px" width="960px" height="560px" viewBox="0 0 960 560" style="enable-background:new 0 0 960 560;"
	 xml:space="preserve">
<g>
	<path style="fill-rule:evenodd;clip-rule:evenodd;fill:#292828;" d="M515.56,273.06c2.29,2.46,2.8,5.51,2.49,8.65
		c-0.59,5.99-2.72,11.41-7.18,15.59c-3.4,3.19-7.6,4.73-12.28,4.87c-0.76,0.02-1.5-0.08-2.22-0.39c-0.39-0.17-0.97-0.41-1.25-0.25
		c-1.89,1.1-4-0.07-5.91,0.65c-1.55,0.59-2.67-0.65-3.99-1.02c-0.34-0.1-0.69-0.26-0.96-0.48c-1.45-1.2-2.72-1.26-3.79,0.47
		c-0.22,0.1-0.28-0.05-0.32-0.22c0.01-0.23,0.1-0.43,0.22-0.61c0.47-0.59,1.04-1.09,1.52-1.68c0.11-0.12,0.22-0.24,0.33-0.37
		c0.15-0.17,0.31-0.33,0.55-0.38c0.33-0.03,0.56,0.13,0.73,0.39c1.44,1.55,3.17,2.54,5.32,2.68c1.07,0.07,2.13-0.21,3.2-0.04
		c1.02,0.12,1.96-0.26,2.92-0.49c0.36-0.08,0.73-0.09,1.09-0.04c4.23,1.33,7.9-0.25,11.49-2.21c0.28-0.18,0.57-0.35,0.86-0.51
		c0.14-0.08,0.27-0.16,0.41-0.25c0.08-0.07,0.16-0.13,0.25-0.2c0.08-0.08,0.16-0.15,0.23-0.22c1.4-1.28,2.87-2.49,3.91-4.12
		c0.8-1.48,1.75-2.88,2.31-4.48c0.09-0.21,0.2-0.41,0.32-0.61c0.29-0.39,0.35-0.86,0.42-1.33c0.94-2.91,0.87-5.89,0.54-8.87
		c-0.11-0.97-0.63-1.8-1.09-2.64c-0.24-0.45-0.57-0.87-0.6-1.42C515.13,273.28,515.16,272.98,515.56,273.06z"/>
	<path style="fill-rule:evenodd;clip-rule:evenodd;fill:#312C29;" d="M483.35,298.28c-0.23-0.08-0.45-0.16-0.68-0.24
		c-0.23-0.58,0.19-0.98,0.42-1.42c1.43-2.81,2.54-5.73,2.94-8.88c0.13-1.02,0.22-2.05-0.02-3.07c-0.15-0.53-0.04-1.1-0.22-1.63
		c-0.04-0.11-0.06-0.23-0.08-0.35c-0.06-0.74-0.21-1.47-0.37-2.2c-0.04-0.1-0.06-0.21-0.09-0.32c-0.05-0.21-0.11-0.42-0.18-0.62
		c-0.09-0.25-0.17-0.51-0.29-0.75c-1.18-2.51-2.97-4.42-5.52-5.59c-1.48-0.7-3.08-0.86-4.67-1.11c-2.64-0.24-5.23-0.25-7.72,0.94
		c-1.89,0.9-3.85,1.22-5.88,0.22c-1.29-0.64-2.68-1.05-4.15-1.07c-0.96-0.05-1.91,0.01-2.85,0.23c-0.38,0.09-0.78,0.22-1.15-0.05
		c0.35-1.38,1.54-1.15,2.52-1.33c2.25-0.14,4.4,0.31,6.48,1.19c0.27,0.12,0.88,0.75,1.03-0.21c0.06-0.18,0.15-0.3,0.37-0.18
		c0.21,0.08,0.41,0.15,0.62,0.23c0.18-0.13,0.36-0.02,0.54-0.01c0.2-0.05,0.28-0.2,0.35-0.38c0.18-0.51-0.24-1.26,0.6-1.5
		c-0.21,2.04,0.6,2.05,2.35,1.55c2.96-0.84,6.05-0.8,9.08-0.07c0.62,0.15,1.05,0.05,1.46-0.46c0.45-0.55,0.97-1.06,1.67-1.3
		c0.2-0.11,0.31,0,0.39,0.17c0.01,0.26-0.16,0.43-0.32,0.6c-1.08,1.07-1.08,1.07,0.27,1.8c0.1,0.05,0.19,0.1,0.29,0.16
		c0.14,0.08,0.28,0.17,0.42,0.25c1.02,0.62,1.87,1.45,2.78,2.21c0.07,0.07,0.13,0.16,0.19,0.24c0.08,0.12,0.16,0.25,0.24,0.38
		c0.06,0.08,0.12,0.15,0.18,0.23c0.07,0.07,0.13,0.15,0.19,0.23c0.12,0.16,0.24,0.32,0.35,0.48c0.33,0.47,0.6,0.98,0.87,1.49
		c0.29,0.61,0.46,1.26,0.7,1.89c0.06,0.17,0.11,0.34,0.15,0.52c0.04,0.12,0.08,0.24,0.11,0.36c0.68,2.56,0.91,5.15,0.53,7.78
		c-0.41,1.57-0.85,3.12-1.38,4.66c-0.03,0.11-0.07,0.21-0.12,0.32c-0.04,0.1-0.09,0.2-0.14,0.29c-0.04,0.1-0.1,0.19-0.15,0.28
		c-0.07,0.14-0.14,0.28-0.2,0.43c-0.04,0.1-0.08,0.2-0.12,0.3c-0.22,0.55-0.29,1.16-0.54,1.7c-0.19,0.39-0.37,0.78-0.6,1.15
		C483.84,298.05,483.65,298.25,483.35,298.28z"/>
	<path style="fill-rule:evenodd;clip-rule:evenodd;fill:#302E2C;" d="M494.65,265.37c0.06,0.05,0.14,0.09,0.18,0.15
		c0.39,0.59,0.78,1.18,1.17,1.77c0.41-0.52,0.78-1.09,1.24-1.56c0.3-0.3,0.62-0.93,1.16-0.51c0.44,0.35,0,0.78-0.17,1.17
		c-0.34,0.75-1.38,1.65-1.03,2.12c0.41,0.55,1.34-0.41,2.11-0.55c4.33-0.78,8.48-0.52,12.28,1.95c1.09,0.71,2.41,1.06,3.22,2.18
		c0.06,0.1,0.14,0.19,0.23,0.27v0c0.21,0.34,0.11,0.51-0.29,0.52c-0.11-0.02-0.21-0.06-0.31-0.11c-0.15-0.06-0.3-0.13-0.45-0.2
		c-1.25-0.91-2.68-1.55-3.9-2.49c-0.11-0.09-0.22-0.19-0.34-0.28c-0.08-0.05-0.15-0.1-0.22-0.15c-0.11-0.07-0.22-0.13-0.34-0.19
		c-0.08-0.03-0.15-0.07-0.23-0.1c-0.12-0.05-0.24-0.09-0.36-0.12c-0.13-0.03-0.25-0.06-0.38-0.1c-0.18-0.05-0.36-0.08-0.54-0.1
		c-0.2-0.02-0.4-0.05-0.59-0.1c-0.21-0.06-0.42-0.09-0.63-0.12c-0.46-0.06-0.9-0.21-1.36-0.27c-0.12-0.02-0.24-0.05-0.36-0.08
		c-1.31-0.15-2.62-0.2-3.92,0.04c-0.4,0.13-0.8,0.27-1.22,0.32c-0.92,0.25-2.02,0.16-2.46,1.32c-0.03,0.35-0.07,0.7-0.26,1
		c0.27-0.24,0.6-0.35,0.93-0.47c0.9-0.29,1.63-0.88,2.47-1.29c1.27-0.56,2.54-1.06,3.95-0.51c0.15,0.14,0.21,0.32,0.2,0.52
		c-0.17,0.64-0.71,0.53-1.16,0.56c-1.2,0.08-2.34,0.35-3.4,0.94c-0.5,0.29-0.99,0.58-1.53,0.77c-1.57,0.68-3.15,0.59-4.75,0.13
		c-0.73-0.21-1.47-0.3-2.23-0.31c-0.94-0.07-1.86-0.44-2.82-0.12c-0.68,0.13-1.33,0.36-2.01,0.48c-0.2,0-0.39-0.05-0.54-0.19
		c-0.05-0.13-0.04-0.26,0.04-0.38c0.79-0.73,1.79-0.82,2.78-0.95c1.14,0,2.28-0.02,3.42,0.01c0.13,0,0.26,0.02,0.38,0.05
		c0.35,0.1,0.7,0.2,1.06,0.23c0.48,0.12,0.85,0.05,0.98-0.52c0.1-0.47-0.08-0.74-0.51-0.93c-0.29-0.13-0.74-0.14-0.69-0.65
		c0.28-0.22,0.57-0.11,0.86-0.06c0.42-0.14,0.96,0.43,1.28-0.16c0.28-0.52-0.06-1-0.3-1.43c-0.25-0.44-0.59-0.82-0.89-1.23
		C494.4,265.5,494.49,265.4,494.65,265.37z"/>
	<path style="fill-rule:evenodd;clip-rule:evenodd;fill:#403733;" d="M463.25,271.86c-0.09,0.08-0.19,0.17-0.28,0.25
		c-0.61,0.24-1.07-0.17-1.56-0.4c-1.2-0.57-2.45-0.95-3.79-0.94c-2.49-0.09-4.88,0.31-7.12,1.46c-1.31,0.52-2.45,1.35-3.66,2.06
		c-0.72,0.38-1.33,0.91-1.87,1.52c-2.78,3.09-4.04,6.68-3.56,10.84c0.1,0.83-0.1,1.67,0.18,2.48c0.16,1.2,0.4,2.39,0.75,3.55
		c0.06,0.33,0.13,0.66,0.24,0.98c0.04,0.1,0.07,0.2,0.11,0.3c0.04,0.1,0.08,0.2,0.12,0.29c0.14,0.4,0.42,0.75,0.34,1.21
		c-0.08,0.16-0.18,0.27-0.37,0.18l0.01,0.01c-0.06-0.08-0.12-0.17-0.18-0.26c-1.06-1.92-1.45-4.02-1.79-6.15
		c-0.72-4.49-0.28-8.72,2.37-12.58c1.23-1.78,2.99-2.86,4.76-3.93c3.96-2.39,8.13-3.73,12.76-2.19
		C461.62,270.85,462.48,271.27,463.25,271.86z"/>
	<path style="fill-rule:evenodd;clip-rule:evenodd;fill:#463D39;" d="M442.78,295.66c0.09-0.09,0.17-0.17,0.26-0.26
		c0.09-0.07,0.19-0.08,0.29-0.04c0.26,0.2,0.43,0.47,0.64,0.72c0.31,0.58,0.79,1.02,1.25,1.47c1.33,1.72,2.96,3.1,4.73,4.35
		c2.43,1.71,5,3.11,7.95,3.7c0.35,0.07,0.71,0.26,1.05,0.14c1.72-0.62,3.37-0.17,5.02,0.29c0.1,0.05,0.19,0.13,0.24,0.23
		c0.04,0.32-0.28,0.27-0.42,0.41c-0.12,0.1-0.27,0.17-0.34,0.32l0.02,0c-0.19,0.07-0.38,0.07-0.57,0l0.02,0
		c-0.05-0.1-0.13-0.17-0.22-0.22c-0.08-0.07-0.16-0.14-0.25-0.21c-1.06-0.75-2.08-0.36-3.1,0.11c-0.08,0.01-0.16,0.02-0.24,0.03
		c-0.66,0.08-1.26-0.32-1.92-0.29C450.97,304.74,446.21,301.09,442.78,295.66z"/>
	<path style="fill-rule:evenodd;clip-rule:evenodd;fill:#4B413C;" d="M484.89,264.96c-4.58,1.35-9.19,2.3-14.02,1.72
		c-3.15-0.38-5.91-1.55-8.4-3.44c0.09-0.1,0.21-0.17,0.34-0.19c0.52-0.06,0.93,0.2,1.33,0.46c3.87,2.5,8.17,2.72,12.58,2.4
		c2.56-0.19,5-1.04,7.53-1.38C484.52,264.58,484.76,264.69,484.89,264.96z"/>
	<path style="fill-rule:evenodd;clip-rule:evenodd;fill:#48403B;" d="M466.79,253.92c2.95,0.92,5.86,0.02,8.79-0.19
		c1.73-0.12,3.4,0.39,4.94,1.2c2.32,1.21,4.61,2.49,6.92,3.74c0.12,0.29-0.04,0.45-0.27,0.58c-0.29,0.03-0.55-0.09-0.77-0.25
		c-2.15-1.5-4.59-2.49-6.9-3.71c-1.77-0.54-3.54-1.08-5.43-0.69c-0.62,0.1-1.23,0.2-1.8,0.49c-0.96,0.36-1.91,0.31-2.87,0.01
		c-0.71-0.2-1.45-0.3-2.18-0.37c-0.42-0.04-0.87,0-1.17-0.41C466.09,253.78,466.59,254.14,466.79,253.92z"/>
	<path style="fill-rule:evenodd;clip-rule:evenodd;fill:#3C3430;" d="M466.79,253.92c-0.25,0.07-0.5,0.15-0.75,0.22
		c-0.34,0.35-0.78,0.35-1.21,0.34c-1.27-0.03-2.51,0.16-3.75,0.34c-0.54,0.08-1.07,0.19-1.56,0.43c-2.59,1.01-4.6,2.84-6.56,4.71
		c-0.35,0.52-0.83,0.92-1.23,1.4c-0.16,0.18-0.21,0.42-0.3,0.64c-0.43,0.16-0.97,0.66-1.28,0.19c-0.29-0.44,0.45-0.63,0.71-0.93
		c1.52-1.8,3.15-3.47,5.07-4.87C459.22,254,462.82,253.19,466.79,253.92z"/>
	<path style="fill-rule:evenodd;clip-rule:evenodd;fill:#3D3530;" d="M464.16,306.44c0-0.08,0.01-0.16,0.01-0.24
		c0.29-0.49,0.82-0.55,1.28-0.72c0.39-0.09,0.8-0.15,1.18-0.05c3.96,1.06,7.36-0.26,10.58-2.41c0.19-0.12,0.38-0.24,0.58-0.35
		c0.08-0.06,0.18-0.11,0.26-0.17c0.04-0.03,0.08-0.06,0.12-0.09c0.08-0.07,0.16-0.13,0.24-0.19c0.11-0.1,0.23-0.21,0.35-0.3
		c0.18-0.12,0.37-0.21,0.59-0.16c0.15,0.08,0.27,0.16,0.17,0.36c-3.13,3.02-6.82,4.79-11.21,4.58c-1.18-0.05-2.33-0.75-3.56-0.23
		C464.54,306.54,464.34,306.6,464.16,306.44z"/>
	<path style="fill-rule:evenodd;clip-rule:evenodd;fill:#4A413C;" d="M451.43,262c-0.09-0.23-0.36-0.45-0.02-0.69
		c1.6-0.79,3.18-1.64,5.02-1.76c0.29-0.01,0.58,0,0.87,0.02c0.4,0.03,0.77,0.16,1.14,0.28c0.1,0.04,0.2,0.08,0.29,0.14
		c0.22,0.14,0.43,0.3,0.66,0.42c0.18,0.1,0.36,0.2,0.54,0.31c0.26,0.17,0.53,0.34,0.79,0.52c0.63,0.71,1.85,0.81,2.04,1.97
		c-0.1,0.01-0.2,0.02-0.3,0.03c-0.93-0.61-1.9-1.17-2.77-1.85c-1.79-1.4-3.66-1.34-5.62-0.49C453.2,261.29,452.31,261.64,451.43,262
		z"/>
	<path style="fill-rule:evenodd;clip-rule:evenodd;fill:#4B413D;" d="M464.44,272.57c-0.19-0.16-0.39-0.32-0.58-0.48
		c0.33-1.68,0.39-3.36-0.18-5.01c0.13-0.33,0.37-0.48,0.72-0.49c1.09,1,0.96,2.32,0.95,3.61c-0.53,0.56,0.06,1.37-0.42,1.94
		c-0.42-0.34-0.25-0.78-0.22-1.2c0.08-1.02,0.17-2.05-0.17-3.04c-0.01-0.14-0.12-0.25-0.15-0.4c-0.01,0.17,0.18,0.26,0.15,0.45
		C464.95,269.5,464.78,271.04,464.44,272.57z"/>
	<path style="fill-rule:evenodd;clip-rule:evenodd;fill:#4B413C;" d="M484.89,264.96c-0.19-0.08-0.38-0.16-0.57-0.24
		c0.66-0.85,1.68-0.6,2.54-0.8c0.66-0.16,1.35-0.11,2.03-0.09c1.25-0.12,2.49-0.01,3.73,0.21c0.12,0,0.24,0,0.34,0.05
		c0.44,0.22,1.14,0.42,0.88,1c-0.21,0.46-0.74-0.1-1.14-0.15c-0.08-0.01-0.15-0.02-0.23-0.02
		C489.95,264.16,487.42,264.66,484.89,264.96z"/>
	<path style="fill-rule:evenodd;clip-rule:evenodd;fill:#3E3938;" d="M494.28,268.48c-0.28,0.09-0.56,0.18-0.83,0.26
		c-1.01,0.52-2.04,0.04-3.06,0.05c-0.79-0.3-1.61-0.09-2.41-0.15c-0.54-0.05-1.09,0.06-1.62-0.12c-0.19-0.09-0.37-0.19-0.35-0.45
		C488.8,267.47,491.54,267.93,494.28,268.48z"/>
	<path style="fill-rule:evenodd;clip-rule:evenodd;fill:#3C3830;" d="M487.21,259.14c0.08-0.16,0.15-0.32,0.23-0.48
		c1.02-0.16,1.44,0.77,2.06,1.23c1.51,1.13,3.07,2.25,4.17,3.83c-0.1,0.24-0.27,0.36-0.54,0.26c-0.96-1.09-2.11-1.97-3.22-2.89
		c-0.59-0.57-1.32-0.92-2.06-1.24C487.59,259.66,487.27,259.51,487.21,259.14z"/>
	<path style="fill-rule:evenodd;clip-rule:evenodd;fill:#433E3C;" d="M486.01,268.08c0.1,0.08,0.2,0.16,0.29,0.24
		c0.03,0.13-0.01,0.24-0.12,0.32c-0.89,0.4-1.9,0.33-2.8,0.66c-0.39,0.1-0.76,0.23-1.14,0.36c-0.42,0.12-0.83,0.28-1.22,0.48
		c-0.26,0.09-0.52,0.23-0.79,0.04c-0.1-0.09-0.2-0.18-0.31-0.27C481.74,268.62,483.86,268.32,486.01,268.08z"/>
	<path style="fill-rule:evenodd;clip-rule:evenodd;fill:#24231A;" d="M493.18,263.94c0.16-0.07,0.33-0.14,0.49-0.22l0,0.01
		c0.15,0.12,0.1,0.35,0.26,0.46c0.24,0.39,0.48,0.78,0.72,1.17c-0.1,0.1-0.19,0.19-0.29,0.29c-0.69,0.23-1.09-0.38-1.64-0.57
		c-0.09-0.04-0.18-0.1-0.25-0.17l0,0c0.06-0.05,0.13-0.15,0.17-0.14c0.36,0.07,0.72,0.17,1.08,0.26c-0.21-0.44-0.66-0.58-1.02-0.84
		c-0.05,0-0.09-0.01-0.14-0.01c-0.09-0.01-0.18-0.03-0.27-0.07c-0.09-0.04-0.17-0.1-0.24-0.17c-0.07-0.08-0.11-0.16-0.14-0.26
		c0.01-0.05,0.01-0.1,0.02-0.15c0.09-0.14,0.22-0.2,0.38-0.21C492.71,263.39,492.98,263.62,493.18,263.94z"/>
	<path style="fill-rule:evenodd;clip-rule:evenodd;fill:#453E39;" d="M459.36,306.66c1.21-0.97,2.32-0.96,3.35,0.03
		c-0.09,0.09-0.18,0.1-0.29,0.03C461.42,305.98,460.39,306.53,459.36,306.66z"/>
	<path style="fill-rule:evenodd;clip-rule:evenodd;fill:#453E39;" d="M457.21,306.4c0.71-0.41,1.31,0,1.92,0.29
		C458.41,307.07,457.79,306.85,457.21,306.4z"/>
	<path style="fill-rule:evenodd;clip-rule:evenodd;fill:#323029;" d="M464.4,266.59c-0.24,0.16-0.48,0.32-0.72,0.49
		c-0.05-0.26-0.75-0.26-0.35-0.65C463.66,266.11,464.11,266.12,464.4,266.59z"/>
	<path style="fill-rule:evenodd;clip-rule:evenodd;fill:#545047;" d="M479.52,302.13c-0.08-0.09-0.17-0.17-0.26-0.26
		c0-0.66,0.3-1.01,0.99-0.95c0.07,0.08,0.15,0.16,0.22,0.24C480.29,301.61,479.9,301.86,479.52,302.13z"/>
	<path style="fill-rule:evenodd;clip-rule:evenodd;fill:#453F3B;" d="M514.55,272.6c0.26,0.12,0.49,0.17,0.49-0.24
		c0.17,0.23,0.35,0.47,0.52,0.7c-0.09,0.17-0.18,0.34-0.27,0.51C514.62,273.57,514.33,273.28,514.55,272.6z"/>
	<path style="fill-rule:evenodd;clip-rule:evenodd;fill:#453E39;" d="M464.16,306.44c0.2,0.01,0.39,0.02,0.59,0.04
		c-0.25,0.08-0.49,0.16-0.74,0.25c-0.09,0.01-0.17,0.03-0.26,0.07c-0.02-0.04-0.05-0.07-0.07-0.11
		C463.84,306.6,464,306.52,464.16,306.44z"/>
	<path style="fill-rule:evenodd;clip-rule:evenodd;fill:#475E31;" d="M462.91,306.97c0.19,0,0.38,0,0.57,0
		C463.3,307.17,463.1,307.18,462.91,306.97z"/>
	<path style="fill-rule:evenodd;clip-rule:evenodd;fill:#3C3830;" d="M493.93,264.2c-0.09-0.15-0.17-0.31-0.26-0.46
		C493.76,263.89,493.84,264.04,493.93,264.2z"/>
	<path style="fill-rule:evenodd;clip-rule:evenodd;fill:#4B413C;" d="M492.48,264.92c0.08,0.06,0.17,0.11,0.25,0.17
		C492.64,265.04,492.56,264.98,492.48,264.92z"/>
	<path style="fill-rule:evenodd;clip-rule:evenodd;fill:#463D39;" d="M442.61,295.4c0.06,0.09,0.12,0.17,0.18,0.26
		C442.73,295.58,442.67,295.49,442.61,295.4z"/>
	<path style="fill-rule:evenodd;clip-rule:evenodd;fill:#453F3B;" d="M515.04,272.36c-0.08-0.09-0.15-0.18-0.23-0.27
		C514.89,272.18,514.96,272.27,515.04,272.36z"/>
	<path style="fill-rule:evenodd;clip-rule:evenodd;fill:#475E31;" d="M462.43,306.71c0.1-0.01,0.19-0.02,0.29-0.03l0,0
		c0.06,0.05,0.07,0.09,0.05,0.13c-0.02,0.04-0.04,0.07-0.06,0.07C462.62,306.83,462.52,306.77,462.43,306.71z"/>
	<path style="fill-rule:evenodd;clip-rule:evenodd;fill:#453E39;" d="M462.71,306.88c0.01-0.07,0.01-0.13,0.01-0.2
		c0.07,0.1,0.14,0.19,0.21,0.29C462.86,306.95,462.79,306.92,462.71,306.88z"/>
	<path style="fill-rule:evenodd;clip-rule:evenodd;fill:#453E39;" d="M463.47,306.97c0.07-0.1,0.14-0.2,0.21-0.29l0.01,0.01
		c0.05,0.04,0.07,0.08,0.05,0.13c-0.02,0.04-0.04,0.06-0.06,0.06C463.61,306.91,463.54,306.94,463.47,306.97z"/>
	<path style="fill-rule:evenodd;clip-rule:evenodd;fill:#475E31;" d="M463.68,306.87c0-0.06,0-0.13,0-0.19
		c0.11,0.01,0.21,0.03,0.32,0.04C463.9,306.77,463.79,306.82,463.68,306.87z"/>
	<path style="fill-rule:evenodd;clip-rule:evenodd;fill:#70251E;" d="M514.55,272.6c0.04,0.48,0.35,0.75,0.74,0.97
		c2.82,4.18,2.41,8.64,1.18,13.19c-0.29,0.34-0.25,0.82-0.47,1.2c-0.08,0.17-0.16,0.33-0.24,0.5c-1.69,2.13-3.49,4.12-5.51,5.96
		c-2.66,2.41-5.7,3.77-9.21,4.16c-3.49,0.39-6.99,0.7-10.5,0.52c-2.31-0.12-4.45-0.87-6.2-2.47c0.33-0.61,0.22-1.37,0.71-1.92
		c0.26,0.01,0.48,0.12,0.64,0.3c1.77,1.95,4.04,2.56,6.59,2.53c3.43-0.04,6.85-0.15,10.22-0.81c3.8-0.74,6.56-3.14,9.05-5.9
		c0.77-0.85,1.44-1.79,2.03-2.8c1.09-1.87,1.68-3.86,1.67-6.03c0.01-0.12,0.04-0.24,0.08-0.36c0.19-0.52,0.1-1.07,0.12-1.61
		c-0.04-1.08,0.07-2.15-0.09-3.23c-0.33-2.27-1.85-3.64-3.58-4.86c-0.59-0.41-1.21-0.78-1.79-1.19c-1.29-0.9-2.7-1.34-4.29-1.16
		c-0.46,0.05-0.96,0.18-1.4-0.11c-0.01-0.16-0.03-0.31-0.04-0.47c0.23-0.37,0.73-0.36,0.98-0.71c0.48,0.08,0.96,0.16,1.44,0.24
		c0.14,0.14,0.36,0.09,0.51,0.22c0.23,0.01,0.47,0.02,0.7,0.03c0.14,0.13,0.36,0.08,0.49,0.21c0.16,0.01,0.31,0.03,0.47,0.04
		c0.08,0.07,0.16,0.13,0.24,0.2c0.08,0,0.15,0.01,0.23,0.03c0.08,0.07,0.17,0.14,0.25,0.21c0.08,0,0.16,0.01,0.23,0.03
		c0.08,0.07,0.17,0.14,0.25,0.21c1.43,0.88,2.86,1.76,4.29,2.65C514.39,272.44,514.48,272.52,514.55,272.6L514.55,272.6z"/>
	<path style="fill-rule:evenodd;clip-rule:evenodd;fill:#60813B;" d="M442.37,293.96c-0.08-0.32-0.16-0.64-0.24-0.97
		c0.53-0.46,1.06-0.26,1.53,0.07c2.16,1.51,4.32,3,6.39,4.63c2.26,1.78,4.88,2.8,7.71,3.36c2.78,0.55,5.56,1.19,8.4,1
		c2.57-0.17,5.14,0.56,7.72-0.2c5.86-1.73,9.23-5.66,10.59-11.5c0.46-1.96,0.91-3.94,1.78-5.78c0.57,2.32,0.02,4.54-0.63,6.74
		c-0.7,2.36-1.65,4.62-2.95,6.73c-0.09,0.15-0.19,0.31-0.28,0.46c-0.07,0.09-0.15,0.17-0.22,0.26c-0.55,0.57-1.1,1.14-1.65,1.71
		c-1.6,0.82-3.25,1.51-4.9,2.22c-3.52,1.52-7.22,1.02-10.86,0.86c-2.42-0.11-4.81-0.58-7.19-1.06c-2.94-0.59-5.64-1.67-8-3.54
		c-2.22-1.75-4.53-3.38-7.01-4.75l-0.01-0.01C442.48,294.13,442.42,294.05,442.37,293.96z"/>
	<path style="fill-rule:evenodd;clip-rule:evenodd;fill:#581D15;" d="M484.32,296.61c0.91,0.12,1.54,0.81,2.34,1.16
		c3.05,1.37,6.22,1.02,9.41,0.81c2.82-0.19,5.63-0.33,8.38-1.11c2.07-0.59,3.7-1.8,5.29-3.13c1.88-1.56,3.58-3.28,5.04-5.24
		c0.22-0.3,0.65-0.44,0.98-0.66c-0.51,1.67-1.43,3.13-2.39,4.55c-1.33,1.32-2.73,2.57-4.2,3.73c-2.22,1.77-4.88,2.47-7.63,2.84
		c-3.43,0.47-6.89,0.57-10.34,0.93c-2.86,0.3-5.23-0.93-7.37-2.7C484,297.4,484.16,297.01,484.32,296.61z"/>
	<path style="fill-rule:evenodd;clip-rule:evenodd;fill:#48180D;" d="M483.83,297.8c2.21,0.95,4.18,2.66,6.78,2.38
		c4.18-0.44,8.39-0.47,12.54-1.21c3.2-0.57,5.83-2.22,8.12-4.47c0.62-0.61,1.25-1.21,2.1-1.5c-0.96,1.82-2.54,3.05-4.08,4.32
		c-0.08,0.08-0.17,0.16-0.24,0.24l0,0c-0.13,0.13-0.35,0.09-0.48,0.24c-0.24,0.16-0.48,0.32-0.72,0.48
		c-3.68,1.96-7.67,2.41-11.76,2.39c-0.4,0-0.8,0.01-1.2,0.01c-0.96,0.2-1.93,0.28-2.89,0.48c-1.17,0.07-2.34,0.29-3.49,0.19
		c-2.03-0.18-3.61-1.46-5.26-2.53c-0.06-0.04,0.07-0.36,0.11-0.54C483.51,298.12,483.67,297.96,483.83,297.8z"/>
	<path style="fill-rule:evenodd;clip-rule:evenodd;fill:#577338;" d="M442.57,294.2c2.1,0.43,3.76,1.71,5.28,3.06
		c3.99,3.54,8.74,5.01,13.9,5.6c2.29,0.26,4.59,0.35,6.88,0.5c3.65,0.25,6.91-0.81,10.08-2.4c0.57-0.29,1.12-0.64,1.81-0.49
		c-0.09,0.15-0.18,0.3-0.26,0.45c-0.33,0.32-0.66,0.63-0.99,0.95c-0.16,0.09-0.31,0.17-0.47,0.26c-1.65,0.34-3.13,1.17-4.74,1.65
		c-1.23,0.37-2.47,0.58-3.76,0.61c-5.09,0.13-10.08-0.58-15-1.82c-2.96-0.74-5.41-2.48-7.71-4.43c-1.31-1.11-2.64-2.19-4.32-2.72
		c-0.08,0-0.15-0.01-0.23-0.02C442.88,295,442.73,294.6,442.57,294.2z"/>
	<path style="fill-rule:evenodd;clip-rule:evenodd;fill:#47180D;" d="M496.08,300.67c1.44-0.76,3.03-0.42,4.54-0.55
		c2.52-0.23,4.8-1.29,7.22-1.84C504.21,300.48,500.46,302.12,496.08,300.67z"/>
	<path style="fill-rule:evenodd;clip-rule:evenodd;fill:#47180D;" d="M492,301.17c0.87-0.7,1.91-0.43,2.89-0.48
		C493.96,301.04,493.04,301.48,492,301.17z"/>
	<path style="fill-rule:evenodd;clip-rule:evenodd;fill:#5D463E;" d="M516,287.95c0-0.46-0.06-0.94,0.47-1.2
		C516.52,287.23,516.38,287.64,516,287.95z"/>
	<path style="fill-rule:evenodd;clip-rule:evenodd;fill:#47180D;" d="M508.56,297.8c0.16-0.08,0.32-0.16,0.48-0.24
		C508.88,297.64,508.72,297.72,508.56,297.8z"/>
	<path style="fill-rule:evenodd;clip-rule:evenodd;fill:#47180D;" d="M509.04,297.56c0.08-0.08,0.16-0.16,0.24-0.24
		C509.2,297.4,509.12,297.48,509.04,297.56z"/>
	<path style="fill-rule:evenodd;clip-rule:evenodd;fill:#312C29;" d="M482.17,298.76c0.07-0.08,0.15-0.17,0.22-0.25
		C482.32,298.59,482.25,298.67,482.17,298.76z"/>
	<path style="fill-rule:evenodd;clip-rule:evenodd;fill:#973732;" d="M484.6,276.67c-0.09-0.16-0.19-0.31-0.28-0.47
		c-0.08-0.08-0.15-0.15-0.22-0.24l-0.02-0.02c-0.15-0.11-0.1-0.34-0.26-0.45v0c-0.06-1.18,0.7-0.59,1.07-0.42
		c1.41,0.65,2.44,1.77,3.38,2.98c2.24,2.91,2.64,6.27,2.32,9.78c-0.17,1.79,0.25,3.18,1.82,4.22c1.07,0.71,2.12,1.42,3.32,1.89
		c0.67,0.26,1.39,0.47,2.11,0.34c1.51-0.27,3.03-0.21,4.54-0.18c1.17,0.02,2.22-0.32,3.2-0.88c3.44-1.98,5.96-4.77,7.35-8.52
		c0.18-0.49,0.34-0.98,0.67-1.4c0.23-0.19,0.38-0.58,0.79-0.31c0.36,0.79-0.09,1.51-0.32,2.19c-1.7,4.82-4.96,8.21-9.58,10.33
		c-1.18,0.54-2.47,0.65-3.73,0.8c-2.54,0.31-5.08,0.6-7.63,0.61c-1.45,0.01-2.88-0.21-4.18-0.9c-1.63-0.86-2.12-2.02-1.56-3.79
		c0.59-1.86,1.6-3.56,2.02-5.5c0.86-4.04-1.72-8.37-3.92-9.68C485.19,276.89,484.9,276.78,484.6,276.67z"/>
	<path style="fill-rule:evenodd;clip-rule:evenodd;fill:#66853E;" d="M486.26,284.57c-1.13,4.69-1.71,9.69-5.17,13.34
		c-3.06,3.23-6.9,5.14-11.66,4.5c-1.86-0.25-3.81,0.12-5.69-0.08c-4.71-0.5-9.44-1.11-13.41-4.03c-2.21-1.63-4.4-3.27-6.66-4.84
		c-0.51-0.35-0.97-0.49-1.54-0.46c-0.46-1.24-0.79-2.5-0.78-3.83c-0.19-0.42-0.17-0.87-0.01-1.28c0.91-2.32,1.25-4.79,1.89-7.19
		c0.48-1.78,1.48-3.38,1.71-5.23c0.42-0.64,1.06-1.02,1.71-1.39c0.55,0.64,0.21,1.31-0.04,1.91c-0.8,1.99-1.71,3.95-2.16,6.06
		c-0.53,2.45-0.92,4.92-1.49,7.36c-0.14,0.61-0.01,1.19,0.19,1.75c0.05,0.1,0.1,0.21,0.14,0.32c0.07,0.15,0.15,0.3,0.25,0.44
		c1.32,1.49,3.09,2.43,4.59,3.69c0.08,0.07,0.16,0.14,0.24,0.21c0.04,0.03,0.08,0.07,0.12,0.1c0.09,0.06,0.17,0.13,0.25,0.19
		c0.35,0.25,0.65,0.55,0.97,0.83c0.09,0.06,0.18,0.13,0.27,0.2c0.05,0.03,0.1,0.06,0.15,0.09c0.11,0.06,0.21,0.12,0.31,0.18
		c4.26,2.74,9.01,3.69,13.98,3.86c2.31,0.08,4.62-0.05,6.93,0.21c2.86,0.31,5.26-0.94,7.47-2.63c2.99-2.29,4.25-5.58,5.15-9.05
		c0.57-2.19,1.09-4.4,1.76-6.56c0.05-0.16,0.14-0.28,0.28-0.38C486.37,283.4,486.21,284,486.26,284.57z"/>
	<path style="fill-rule:evenodd;clip-rule:evenodd;fill:#9C3D37;" d="M513.84,283.4c-1.1,2.6-2.12,5.27-4.26,7.23
		c-1.55,1.41-3.15,2.8-5.19,3.52c-0.5,0.18-0.98,0.35-1.5,0.29c-2.22-0.26-4.44,0.52-6.64,0.02c-2.17-0.49-3.87-1.85-5.43-3.32
		c-0.76-0.71-0.73-1.9-0.6-2.92c0.56-4.57-0.34-8.64-3.92-11.82c-0.53-0.47-1.19-0.79-1.79-1.17c-0.34-0.21-0.61-0.2-0.67,0.28
		c-1.04-0.82-2.08-1.65-3.12-2.47c-0.08-0.04-0.15-0.1-0.2-0.17c-0.08-0.01-0.15-0.03-0.23-0.06c-0.07-0.39,0.26-0.55,0.46-0.78
		c0.56-0.64,0.73-1.3,0.23-2.05c0.31-0.34,0.71-0.48,1.16-0.49c0.06,0.01,0.12,0.03,0.17,0.04c0.65,0.45,0.81,1.16,0.95,1.86
		c0.26,1.27,0.86,2.24,2.01,2.95c1.98,1.22,3.37,3,4.4,5.07c1.18,2.51,1.54,5.18,1.5,7.92c-0.02,1.12,0.41,2.1,1.28,2.86
		c1.92,1.69,4.05,2.84,6.7,2.72c0.6-0.03,1.21-0.08,1.8,0.01c3.46,0.54,5.99-1.22,8.33-3.38c1.89-1.75,3.02-3.98,3.83-6.39
		c0.15-0.45,0.06-1.09,0.76-1.21c0.15,0.14,0.22,0.32,0.24,0.52C514.06,282.78,514,283.1,513.84,283.4z"/>
	<path style="fill-rule:evenodd;clip-rule:evenodd;fill:#6F9440;" d="M485.54,280.25c0.28,0.79,0.46,1.59,0.46,2.43
		c-0.9,2.3-1.3,4.74-1.93,7.12c-0.72,2.71-1.6,5.38-3.5,7.51c-2.56,2.87-5.62,4.63-9.69,4.08c-2.42-0.33-4.87,0.02-7.3-0.13
		c-5.8-0.36-11.29-1.63-15.7-5.8c-0.58-0.55-1.22-1.04-1.87-1.48c-2.4-1.62-3.36-3.76-2.58-6.6c0.02-0.19,0.07-0.38,0.11-0.57
		c0.07-0.25,0.12-0.5,0.13-0.76c0.42-2.06,0.65-4.15,1.3-6.16c0.51-1.6,1.28-3.08,2.03-4.57c0.52-1.05,1.43-1.71,2.56-1.99
		c1.66-0.41,3.36-0.65,5.06-0.8c0.91-0.08,1.83,0.05,2.58,0.7c0.07,0.12,0.08,0.25,0.02,0.37c-0.26,0.24-0.58,0.28-0.89,0.23
		c-2.16-0.38-4.18,0.31-6.17,0.94c-1.83,0.58-2.63,2.22-3.42,3.79c-1.42,2.8-1.57,5.88-1.91,8.92c-0.03,0.24-0.03,0.48-0.07,0.71
		c-0.44,1.56,0.16,2.83,1.15,3.98c0.33,0.39,0.71,0.73,1.06,1.1c0.07,0.07,0.14,0.15,0.21,0.22c0.07,0.07,0.13,0.14,0.19,0.22
		c0.03,0.03,0.06,0.07,0.09,0.11c0.06,0.06,0.13,0.13,0.19,0.2c0.03,0.03,0.06,0.07,0.09,0.1c0.07,0.06,0.13,0.13,0.19,0.19
		c0.03,0.03,0.06,0.06,0.1,0.09c0.07,0.06,0.14,0.11,0.21,0.17c0.04,0.03,0.07,0.05,0.11,0.08c0.08,0.05,0.16,0.1,0.24,0.15
		c0.2,0.13,0.38,0.28,0.56,0.44c0.07,0.06,0.14,0.13,0.21,0.19c0.03,0.03,0.07,0.06,0.1,0.1c0.13,0.12,0.27,0.24,0.42,0.34
		c0.08,0.05,0.15,0.1,0.22,0.15c0.07,0.05,0.14,0.11,0.2,0.17c0.03,0.03,0.06,0.06,0.1,0.09c0.07,0.06,0.13,0.11,0.2,0.17
		c0.04,0.02,0.07,0.05,0.11,0.08c0.12,0.07,0.24,0.13,0.36,0.2c0.09,0.05,0.17,0.1,0.26,0.16c0.35,0.25,0.74,0.42,1.11,0.61
		c0.09,0.04,0.18,0.09,0.27,0.14c0.09,0.04,0.17,0.09,0.25,0.14c0.08,0.04,0.16,0.09,0.24,0.14c0.08,0.05,0.15,0.1,0.22,0.15
		c0.04,0.02,0.07,0.05,0.11,0.07c0.12,0.06,0.24,0.11,0.36,0.16c0.09,0.02,0.17,0.06,0.25,0.09c0.13,0.05,0.25,0.11,0.37,0.16
		c0.09,0.03,0.17,0.06,0.26,0.09c0.19,0.05,0.37,0.09,0.56,0.13c0.1,0.02,0.2,0.04,0.3,0.07c0.31,0.1,0.63,0.13,0.95,0.2
		c0.12,0.03,0.23,0.06,0.35,0.09c3.21,0.66,6.42,1.28,9.72,0.95c1.72-0.17,3.4-0.02,5.11,0.21c3.87,0.53,6.44-1.62,8.42-4.58
		c2.41-3.58,3.24-7.75,4.1-11.9C484.5,282.58,484.27,281.13,485.54,280.25z"/>
	<path style="fill-rule:evenodd;clip-rule:evenodd;fill:#882F29;" d="M484.6,276.67c1.22-0.53,1.8,0.53,2.34,1.14
		c3.34,3.83,3.83,8.08,1.54,12.63c-0.11,0.21-0.22,0.43-0.32,0.64c-1.43,3.11-0.44,4.93,2.99,5.26c4.62,0.44,9.32,0.39,13.6-1.42
		c5.2-2.2,8.43-6.37,9.57-12.01c-0.01-0.05-0.02-0.11-0.03-0.16c-0.05-0.27-0.03-0.55-0.01-0.83c0.29-1.7,0.4-3.39-0.01-5.09
		c-0.32-1.32-0.94-2.44-1.9-3.39c-0.1-0.06-0.2-0.13-0.29-0.21c-0.09-0.08-0.17-0.18-0.23-0.29c-0.06-0.11-0.08-0.23-0.07-0.36
		c0.05-0.21,0.17-0.33,0.39-0.31c2.26,1.22,3.19,3.25,3.33,5.68c0.09,1.5,0.08,3.02-0.23,4.5c0,0.12-0.01,0.24-0.02,0.35
		c-0.06,0.27-0.14,0.54-0.17,0.83c-0.02,0.16-0.06,0.33-0.09,0.49c-0.04,0.16-0.08,0.32-0.12,0.48c-0.52,1.8-1.26,3.49-2.38,5
		c-0.1,0.13-0.2,0.25-0.3,0.38c-0.12,0.18-0.26,0.34-0.4,0.5c-0.07,0.09-0.13,0.17-0.2,0.26c-0.03,0.04-0.07,0.09-0.1,0.13
		c-0.07,0.09-0.14,0.18-0.21,0.27c-2.55,2.73-5.36,5.04-9.19,5.68c-0.41,0.05-0.81,0.1-1.21,0.21c-0.18,0.02-0.36,0.03-0.54,0.03
		c-0.54,0.05-1.08,0.08-1.61,0.21c-0.12,0.02-0.25,0.03-0.37,0.03c-0.65-0.04-1.27,0.06-1.89,0.23c-0.4,0.03-0.8,0.01-1.2,0.02
		c-1.22-0.01-2.45,0.02-3.67,0c-0.18,0-0.37,0-0.56-0.01c-0.33-0.02-0.65-0.15-0.98-0.18c-0.1-0.02-0.2-0.04-0.3-0.07
		c-0.22-0.07-0.44-0.16-0.67-0.23c-0.08-0.03-0.17-0.06-0.25-0.1c-0.11-0.05-0.23-0.11-0.34-0.17c-0.08-0.03-0.15-0.07-0.22-0.11
		c-0.11-0.05-0.22-0.11-0.33-0.17c-0.08-0.04-0.15-0.09-0.21-0.14c-0.07-0.05-0.14-0.11-0.2-0.16c-0.04-0.03-0.07-0.06-0.1-0.08
		c-0.15-0.11-0.3-0.21-0.46-0.31c-0.09-0.06-0.17-0.12-0.24-0.19c-0.08-0.08-0.15-0.16-0.21-0.24c-0.07-0.09-0.12-0.19-0.17-0.29
		c-0.77-1.36-0.38-2.63,0.31-3.85c0.53-0.94,1.07-1.87,1.5-2.86c1.5-3.47,0.89-6.61-1.5-9.45c-0.3-0.36-0.62-0.74-1.14-0.81
		C485.21,277.64,484.91,277.16,484.6,276.67z"/>
	<path style="fill-rule:evenodd;clip-rule:evenodd;fill:#6C8C41;" d="M443.76,287.24c-0.81,2.89,0.39,4.81,2.62,6.68
		c3.31,2.78,6.65,5.34,11.02,6.13c2.34,0.43,4.66,0.95,7.08,0.9c2.46-0.05,4.93-0.06,7.4,0.16c4.36,0.39,8.76-2.83,10.53-7.19
		c1.24-3.04,1.86-6.23,2.65-9.39c0.17-0.68,0.24-1.44,0.94-1.86c0.02,0.06,0.03,0.13,0.03,0.2c-1.33,5.16-1.75,10.75-5.53,14.9
		c-2.67,2.94-6.08,4.72-10.36,3.94c-1.24-0.23-2.55-0.09-3.83-0.07c-5.81,0.1-11.33-0.9-16.31-4.09c-0.07-0.09-0.16-0.16-0.24-0.24
		h0c-0.08-0.08-0.16-0.16-0.24-0.24c-0.32-0.24-0.64-0.48-0.96-0.72c-0.07-0.09-0.16-0.16-0.24-0.24h0
		c-0.08-0.08-0.16-0.16-0.24-0.24c-1.64-1.23-3.48-2.21-4.8-3.84c-0.09-0.07-0.15-0.17-0.24-0.24c0-0.08,0-0.16,0-0.24
		c-0.44-1.21-0.21-2.4,0.13-3.57C443.26,287.7,443.23,287.22,443.76,287.24z"/>
	<path style="fill-rule:evenodd;clip-rule:evenodd;fill:#769845;" d="M485.54,280.25c-1.2,2.84-1.25,5.96-2.17,8.87
		c-1.08,3.45-2.28,6.82-5.09,9.31c-2.14,1.89-4.57,2.78-7.46,2.12c-2.6-0.6-5.22,0.1-7.83-0.1c-2.22-0.17-4.37-0.62-6.51-1.21
		c0.59-0.53,1.29-0.38,1.92-0.21c1.58,0.42,3.21,0.5,4.81,0.8c1.16,0.21,2.29-0.08,3.37-0.52c1.84-0.58,3.67-0.5,5.5,0.07
		c1.7,0.54,3.19,0.09,4.58-0.93c1.39-1.02,2.57-2.24,3.42-3.74c0.1-0.18,0.21-0.37,0.32-0.54c0.04-0.08,0.1-0.16,0.15-0.24
		c0.04-0.08,0.09-0.15,0.13-0.23c0.04-0.08,0.08-0.15,0.12-0.22c0.06-0.11,0.12-0.21,0.17-0.33c0.03-0.07,0.07-0.15,0.1-0.22
		c0.05-0.11,0.11-0.22,0.16-0.33c0.03-0.08,0.06-0.15,0.09-0.22c0.04-0.12,0.08-0.23,0.11-0.35c0.02-0.08,0.05-0.16,0.08-0.23
		c0.04-0.12,0.09-0.23,0.13-0.35c0.03-0.12,0.07-0.24,0.12-0.35c0.05-0.11,0.1-0.22,0.15-0.33c0.03-0.08,0.07-0.15,0.1-0.22
		c0.05-0.11,0.09-0.23,0.12-0.34c0.03-0.12,0.07-0.24,0.11-0.36c0.06-0.16,0.11-0.32,0.15-0.48c0.02-0.08,0.05-0.17,0.08-0.25
		c0.04-0.13,0.08-0.25,0.1-0.38c0.03-0.18,0.06-0.36,0.12-0.53c0.05-0.18,0.1-0.36,0.13-0.54c0.02-0.14,0.06-0.28,0.1-0.42
		c0.06-0.19,0.1-0.38,0.14-0.58c0.03-0.16,0.06-0.31,0.1-0.46c0.09-0.27,0.11-0.54,0.17-0.82c0.02-0.12,0.06-0.24,0.1-0.35
		c0.42-1.5,0.52-3.05,0.76-4.58c0.1-0.62,0.12-1.29,0.82-1.61c0.25,0.17,0.26,0.43,0.26,0.69c0.11,0.15,0.06,0.37,0.2,0.51
		C485.53,280.1,485.54,280.17,485.54,280.25z"/>
	<path style="fill-rule:evenodd;clip-rule:evenodd;fill:#6A8D3E;" d="M443.76,287.24c-0.83,1.34-0.73,2.84-0.72,4.32
		c-0.9-1.19-0.32-2.43-0.1-3.65c0.75-4.26,1.63-8.48,3.48-12.43c0.19-0.41,0.16-0.93,0.23-1.39c1.17-0.7,2.25-1.57,3.58-1.98
		c0.91-0.11,1.85-0.43,2.69,0.24c1.25-0.33,2.49-0.62,3.8-0.47c2.09,1.28,4.39,1.85,6.8,2.06c0.57,0.05,1.22-0.17,1.65,0.44
		c-0.46,0.75-1.21,0.51-1.83,0.47c-2.13-0.15-4.26-0.35-6.14-1.52c-2.76-0.96-5.41-0.08-8.06,0.51c-1.11,0.25-1.64,1.28-2.2,2.22
		c-1.89,3.16-2.47,6.67-2.94,10.23c-0.15,0.12-0.09,0.35-0.24,0.48C443.76,286.92,443.76,287.08,443.76,287.24z"/>
	<path style="fill-rule:evenodd;clip-rule:evenodd;fill:#822C25;" d="M502.08,296.6c3.78-0.75,6.62-2.99,9.12-5.76
		c0.08-0.08,0.16-0.16,0.24-0.24l0,0c0.08-0.08,0.16-0.16,0.24-0.24c0.08-0.16,0.16-0.32,0.24-0.48c0.09-0.07,0.15-0.17,0.24-0.24
		c1.05-1.65,2.04-3.32,2.4-5.28c0.09-0.07,0.15-0.17,0.24-0.24c0-0.16,0-0.32,0-0.48c0.23-0.19,0.02-0.52,0.24-0.72l0,0
		c0.4-0.3-0.29-1.04,0.48-1.2c0.17,5.08-2.71,8.54-6.16,11.73c-3.22,2.98-7.12,3.95-11.38,4.16c-2.78,0.14-5.54,0.4-8.31,0
		c-1.96-0.28-3.45-1.37-4.63-2.92l0.02-0.02c0.14-0.13,0.08-0.35,0.21-0.49c0-0.08,0.01-0.16,0.03-0.23
		c0.07-0.08,0.14-0.16,0.21-0.24l0-0.01c0.46-0.11,0.53,0.22,0.61,0.53c0.12,0.43,0.34,0.81,0.6,1.16v0
		c0.08,0.08,0.16,0.16,0.24,0.24l0,0c0.23,0.18,0.49,0.3,0.72,0.48c0.08,0.08,0.16,0.16,0.24,0.24l0,0c0.13,0.15,0.35,0.1,0.48,0.24
		l0,0c0.13,0.15,0.35,0.1,0.48,0.24l0,0c0.19,0.23,0.53,0.02,0.72,0.24c0.08,0,0.16,0,0.24,0c0.27,0.27,0.69-0.02,0.96,0.24
		c0.16,0,0.32,0,0.48,0c1.36,0.2,2.72,0.2,4.08,0c0.4,0,0.8,0,1.2,0c0.61-0.32,1.31,0.09,1.92-0.24c0.08,0,0.16,0,0.24,0
		c0.53-0.31,1.16,0.08,1.68-0.24c0.16,0,0.32,0,0.48,0C501.24,296.55,501.72,296.89,502.08,296.6z"/>
	<path style="fill-rule:evenodd;clip-rule:evenodd;fill:#708D43;" d="M457.2,273.32c2.26,0.48,4.45,1.33,6.81,1.2
		c0.38-0.02,0.8,0.12,1.11-0.24c2.3-0.93,4.64-1.79,7.02-2.47c0.79-0.22,1.73-0.17,2.59,0.06c1.67,0.12,3.34,0.26,4.82,1.19
		c-0.24,0.79-0.89,0.8-1.55,0.83c-0.69,0.02-1.33-0.3-2.02-0.22c-0.2,0-0.41,0-0.62,0.01c-2.32-0.38-4.47,0.24-6.67,0.94
		c-1.88,0.61-3.87,0.98-5.9,0.66c-1.44-0.37-2.96-0.4-4.37-0.91c-0.47-0.17-1.02-0.23-1.23-0.8
		C457.2,273.48,457.2,273.4,457.2,273.32z"/>
	<path style="fill-rule:evenodd;clip-rule:evenodd;fill:#617D3D;" d="M474.73,271.87c-1.67-0.07-3.22,0.1-4.76,0.99
		c-1.45,0.83-3.15,1.24-4.85,1.42c-2.64,0.09-5.17-0.39-7.57-1.52c-0.4-0.19-0.82-0.34-0.82-0.89c1.66-0.16,3.19,0.42,4.57,1.14
		c1.96,1.02,3.85,0.55,5.5-0.29c1.68-0.86,3.36-1,5.12-1.06C472.85,271.63,473.82,271.42,474.73,271.87z"/>
	<path style="fill-rule:evenodd;clip-rule:evenodd;fill:#7CA344;" d="M475.92,273.32c1.21-0.1,2.49,0.78,3.62-0.26
		c2.58,1.21,4.49,3.06,5.5,5.77c-0.85,1.86-0.56,3.95-1.19,5.86c-0.07,0.21-0.17,0.42-0.26,0.63c-0.41-0.37-0.31-0.86-0.32-1.32
		c0-0.19,0.03-0.39,0.07-0.58c0.21-0.53,0.16-1.08,0.16-1.63c-0.12-1.71-0.17-3.43-1.32-4.87c-0.7-0.88-1.63-1.4-2.6-1.88
		c-0.21-0.1-0.42-0.2-0.64-0.26c-0.11-0.03-0.22-0.08-0.33-0.12c-0.57-0.28-1.18-0.44-1.78-0.62
		C476.46,273.93,475.92,273.94,475.92,273.32z"/>
	<path style="fill-rule:evenodd;clip-rule:evenodd;fill:#832D26;" d="M486.72,295.4c-0.77-0.3-0.49-1.36-1.21-1.7
		c0.48-1.6,0.96-3.2,1.44-4.8c2.04-2.96,1.73-6.76-0.72-8.84c-0.24-0.64-0.48-1.29-0.72-1.93c0.34-0.96,0.67-0.15,0.89,0.05
		c2.92,2.67,3.7,6.96,1.93,10.62c-0.4,0.83-0.83,1.64-1.33,2.41C486.13,292.57,485.98,293.95,486.72,295.4z"/>
	<path style="fill-rule:evenodd;clip-rule:evenodd;fill:#6F241D;" d="M486.23,280.06c0.26-0.36,0.47-0.14,0.68,0.06
		c1.87,1.8,2.25,6.24,0.73,8.39c-0.18,0.25-0.38,0.4-0.69,0.39c0.19-2.75,0.15-5.49-0.66-8.16c0.05-0.07,0.04-0.14-0.02-0.21
		C486.26,280.37,486.25,280.22,486.23,280.06z"/>
	<path style="fill-rule:evenodd;clip-rule:evenodd;fill:#4F6138;" d="M457.67,270.45c1.97-0.11,3.61,0.85,5.29,1.66
		c0.25,0.21,0.82,0.23,0.64,0.7c-0.2,0.51-0.62,0.13-0.92,0.04c-2.34-0.73-4.61-1.78-7.17-1.47c0.08-0.63,0.6-0.49,0.99-0.56
		C456.92,270.76,457.37,270.86,457.67,270.45z"/>
	<path style="fill-rule:evenodd;clip-rule:evenodd;fill:#5F7D3B;" d="M457.67,270.45c0.05,0.6-0.29,0.71-0.8,0.72
		c-0.45,0.01-0.95-0.17-1.35,0.22c-0.96,0.07-1.94,0.08-2.6,0.96c-0.9-0.08-1.8-0.16-2.69-0.24
		C452.5,270.6,455.05,270.36,457.67,270.45z"/>
	<path style="fill-rule:evenodd;clip-rule:evenodd;fill:#8B322B;" d="M480.95,269.96c1.35,0.39,0.56,1.25,0.32,1.87
		c-0.15,0.39-0.66,0.64-1.01,0.96c-2.12-1.12-2.12-1.12-0.04-2.6C480.47,270.11,480.71,270.04,480.95,269.96z"/>
	<path style="fill-rule:evenodd;clip-rule:evenodd;fill:#A1A63C;" d="M464.39,267.57c0.87,0.98,0.35,2.18,0.51,3.27
		c0.06,0.43,0.02,0.87,0.03,1.3c-0.16,0.14-0.32,0.29-0.48,0.43c-0.04-1.67,0.44-3.35-0.04-5.02L464.39,267.57z"/>
	<path style="fill-rule:evenodd;clip-rule:evenodd;fill:#832D26;" d="M485.27,294.19c-0.07,0.16-0.14,0.32-0.21,0.49
		C485.13,294.51,485.2,294.35,485.27,294.19z"/>
	<path style="fill-rule:evenodd;clip-rule:evenodd;fill:#6F9440;" d="M485.5,280.03c-0.07-0.17-0.13-0.34-0.2-0.51
		C485.37,279.69,485.43,279.86,485.5,280.03z"/>
	<path style="fill-rule:evenodd;clip-rule:evenodd;fill:#9C3D37;" d="M483.82,275.49c0.09,0.15,0.17,0.3,0.26,0.45
		C484,275.79,483.91,275.64,483.82,275.49z"/>
	<path style="fill-rule:evenodd;clip-rule:evenodd;fill:#832D26;" d="M485.51,293.71c-0.07,0.08-0.14,0.16-0.21,0.24
		C485.37,293.87,485.44,293.79,485.51,293.71z"/>
	<path style="fill-rule:evenodd;clip-rule:evenodd;fill:#9C3D37;" d="M484.1,275.96c0.07,0.08,0.15,0.16,0.22,0.24
		C484.25,276.12,484.17,276.04,484.1,275.96z"/>
	<path style="fill-rule:evenodd;clip-rule:evenodd;fill:#8B322B;" d="M480.5,272.85c0.07,0.06,0.14,0.11,0.2,0.17
		C480.63,272.96,480.56,272.91,480.5,272.85z"/>
	<path style="fill-rule:evenodd;clip-rule:evenodd;fill:#832D26;" d="M486.27,280.53c0.03,0.05,0.06,0.09,0.08,0.14
		c0,0.01-0.04,0.04-0.06,0.06C486.27,280.67,486.26,280.6,486.27,280.53z"/>
	<path style="fill-rule:evenodd;clip-rule:evenodd;fill:#BB615E;" d="M486.03,271.46c0.01,0.05,0.01,0.09,0,0.14
		c0.14,0.25,0.38,0.14,0.58,0.15c0.98,0,1.89-0.31,2.78-0.68c0.2-0.02,0.48-0.11,0.57,0.03c0.5,0.8,1.3,1.08,2.12,1.36
		c0.2,0.07,0.28,0.27,0.25,0.49c-0.37,0.6-0.9,0.32-1.4,0.27c-1.22-0.12-1.7,0.36-1.4,1.53c0.65,2.5,2,4.68,3.26,6.9
		c0.32,0.56,0.92,0.86,1.6,0.93c0.92,0.1,1.79,0.41,2.62,0.8c2.91,1.4,5.93,1.13,8.88,0.36c1.96-0.51,3.31-1.85,3.58-4.04
		c0.13-1.03,0.69-1.95,1-2.94c0.07-0.22,0.23-0.43,0.54-0.32c0.28,0.34,0.25,0.72,0.19,1.11c-0.33,1.04-0.44,2.09-0.21,3.19
		c0.23,1.09-0.11,2.05-0.88,2.86c-1.39,1.47-3.03,2.44-5.11,2.56c-1.08,0.06-2.15,0.15-3.22,0.25c-2.75,0.24-5.19-0.73-7.64-1.7
		c-1.54-0.61-2.31-1.95-2.88-3.37c-0.88-2.19-2.13-4.2-3.13-6.33c-0.69-1.46-2.18-2.2-3.19-3.37c-0.08-0.08-0.15-0.17-0.22-0.26
		c-0.12-0.17-0.22-0.36-0.33-0.53c-0.06-0.08-0.12-0.16-0.17-0.23c-0.06-0.07-0.12-0.15-0.17-0.23c-0.06-0.08-0.11-0.16-0.15-0.24
		c-0.07-0.13-0.13-0.27-0.18-0.41c-0.02-0.1-0.03-0.2-0.01-0.31c0.06-0.17,0.16-0.27,0.35-0.24
		C484.74,269.92,485.79,270.33,486.03,271.46z"/>
	<path style="fill-rule:evenodd;clip-rule:evenodd;fill:#A54A45;" d="M491.3,271.14c0.67-0.04,1.34,0.02,1.98,0.23
		c1.73,0.56,3.47,0.55,5.2,0.02c0.7,0.58,1.51,0.41,2.28,0.3c1.21-0.18,2.41-0.47,3.6-0.78c2.26-0.57,4.48-0.66,6.43,0.96
		c0.72,0.75,1.48,1.48,1.7,2.56c0.66,1.88,0.66,3.89,1.13,5.81c0.14,0.57,0.36,1.37-0.48,1.77c-0.66-1.2-0.87-2.54-1.06-3.85
		c-0.14-0.99-0.39-1.93-0.71-2.87c-0.97-3.07-2.88-4.11-6.06-3.39c-1.1,0.25-2.11,0.75-3.2,1.01c-2.34,0.54-4.68-0.03-7.02-0.12
		c-1.05-0.04-2.18,0.07-3.16-0.5C491.51,272.04,490.95,271.85,491.3,271.14z"/>
	<path style="fill-rule:evenodd;clip-rule:evenodd;fill:#812E27;" d="M515.52,281.72c-0.16,0.4-0.32,0.8-0.48,1.2
		c0.06-2.13,0.59-4.26-0.02-6.38c-0.51-1.77-1.36-3.3-3.1-4.17c-0.41,0.16-0.7-0.09-0.97-0.31c-2.08-1.76-4.45-1.71-6.9-1.13
		c-1.01,0.24-2.03,0.47-3.06,0.54c-0.56,0.04-1.26,0.12-1.31-0.78c1.35-1.07,3.03-0.9,4.59-1.21c3.31-1.02,5.67,0.83,8.17,2.53
		c2.93,1.99,3.57,4.8,3.31,8.04C515.44,280.57,515.83,281.19,515.52,281.72L515.52,281.72z"/>
	<path style="fill-rule:evenodd;clip-rule:evenodd;fill:#B05955;" d="M491.3,271.14c-0.01,0.63,0.49,0.86,0.93,0.92
		c3.38,0.49,6.77,1.08,10.17,0.42c1.42-0.28,2.74-1,4.25-1.1c2.3-0.15,4.58,1,5.03,3.86c0.14,0.68,0.32,1.35,0.18,2.05
		c-0.21,0.35-0.5,0.49-0.9,0.35c0-0.4,0-0.8,0-1.2c-0.63-0.7-0.05-1.72-0.66-2.42c-0.07-0.11-0.13-0.22-0.18-0.33
		c-1.18-1.7-2.83-1.89-4.66-1.4c-0.84,0.23-1.69,0.47-2.48,0.85c-1.15,0.56-2.35,0.69-3.6,0.54c-2.05-0.26-4.09-0.52-6.16-0.51
		c-0.36,0-0.72-0.03-0.99-0.33c-1.2-0.15-2.04-0.92-2.88-1.67c-0.33,0.14-0.65,0.21-0.97-0.03
		C489.36,270.66,490.33,271.04,491.3,271.14z"/>
	<path style="fill-rule:evenodd;clip-rule:evenodd;fill:#953B34;" d="M499.68,270.68c1.12,1.1,2.31,0.17,3.44,0.05
		c1.75-0.18,3.46-0.78,5.27-0.3c1.34,0.36,2.35,1.29,3.52,1.92c0,0.16,0,0.32,0,0.48c-0.59,0.08-0.75-0.56-1.2-0.72
		c-2.69-2.07-5.53-1.08-8.34-0.38c-1.17,0.29-2.34,0.44-3.55,0.38c-0.58-0.03-0.89-0.18-0.34-0.73
		C498.88,271.15,499.28,270.92,499.68,270.68z"/>
	<path style="fill-rule:evenodd;clip-rule:evenodd;fill:#8A3129;" d="M490.34,268.52c1.03,0.07,2.07,0.15,3.1,0.22
		c0.75,0.26,2.02-0.12,1.51,1.56c-0.28,0.91-0.55,0.99-1.26,0.62c-0.3-0.27-0.71,0-1.02-0.23c-0.06,0-0.12,0-0.18-0.01
		c-0.32-0.25-0.73-0.02-1.06-0.2c-0.54-0.27-1.05-0.57-1.54-0.91c-0.32-0.22-0.79-0.47-0.59-0.92
		C489.51,268.2,489.97,268.37,490.34,268.52z"/>
	<path style="fill-rule:evenodd;clip-rule:evenodd;fill:#B76A67;" d="M486.03,271.46c-0.73-0.74-1.46-1.48-2.19-2.22
		c-0.07,0.08-0.16,0.13-0.27,0.16c-0.22-0.01-0.43-0.02-0.42-0.33c0.99-0.38,2.02-0.54,3.08-0.58c0.93,0.45,1.42,1.47,2.4,1.85
		c0.08,0.1,0.08,0.2-0.01,0.29C487.72,270.83,486.84,271.03,486.03,271.46z"/>
	<path style="fill-rule:evenodd;clip-rule:evenodd;fill:#70241D;" d="M505.21,268.3c0.09,0.81-0.53,0.64-0.98,0.71
		c-1.42-0.15-2.76,0.19-4.06,0.72c-0.58,0.25-1.02,0.05-1.27-0.48c-0.24-0.51,0.27-0.54,0.54-0.71c0.4-0.08,0.8-0.17,1.2-0.25
		c1.44-0.19,2.88-0.17,4.31,0C505.04,268.28,505.12,268.29,505.21,268.3z"/>
	<path style="fill-rule:evenodd;clip-rule:evenodd;fill:#812E26;" d="M499.45,268.53c-0.97,1.14,0.26,0.93,0.73,1.2
		c-0.77,0.45-1.41,1.17-2.39,1.2c-0.8,0.41-0.81-0.26-0.97-0.72C496.97,268.51,498.51,269,499.45,268.53z"/>
	<path style="fill-rule:evenodd;clip-rule:evenodd;fill:#94973D;" d="M495.79,270.71c-0.48-0.05-0.43-0.36-0.33-0.69
		c0.45-1.46,1.2-2.77,2.11-4c0.08-0.11,0.18-0.31,0.36-0.14c0.04,0.04,0.01,0.23-0.05,0.31c-0.84,1.3-1.76,2.57-1.63,4.25
		C496.26,270.69,496,270.7,495.79,270.71z"/>
	<path style="fill-rule:evenodd;clip-rule:evenodd;fill:#BD6967;" d="M488.39,271.14c0.32,0.01,0.65,0.02,0.97,0.03
		c-0.74,1.15-1.84,0.79-2.88,0.7c0-0.05,0-0.11,0-0.16C487.08,271.39,487.69,271.12,488.39,271.14z"/>
	<path style="fill-rule:evenodd;clip-rule:evenodd;fill:#4B403C;" d="M504.96,268.27c-1.44,0-2.88,0-4.31,0
		C502.08,267.89,503.52,267.9,504.96,268.27z"/>
	<path style="fill-rule:evenodd;clip-rule:evenodd;fill:#7A6159;" d="M488.62,270.65c0.01-0.07,0.02-0.14,0.03-0.21
		c0.26-0.32,0.64-0.31,1-0.36c0.66-0.05,1.3-0.01,1.88,0.35c0.34,0.04,0.71-0.08,0.97,0.25
		C491.2,270.67,489.91,270.66,488.62,270.65z"/>
	<path style="fill-rule:evenodd;clip-rule:evenodd;fill:#6D4B41;" d="M496.81,270.2c0.26,0.32,0.36,0.86,0.97,0.72
		c-0.38,0.15-0.77,0.29-1.15,0.44C496.69,270.98,496.75,270.59,496.81,270.2z"/>
	<path style="fill-rule:evenodd;clip-rule:evenodd;fill:#6D5049;" d="M492.67,270.69c0.36,0.01,0.74-0.11,1.02,0.23
		C493.34,270.91,492.96,271.01,492.67,270.69z"/>
	<path style="fill-rule:evenodd;clip-rule:evenodd;fill:#812E27;" d="M508.35,269c-0.17-0.07-0.33-0.14-0.49-0.21
		C508.02,268.85,508.18,268.93,508.35,269z"/>
	<path style="fill-rule:evenodd;clip-rule:evenodd;fill:#812E27;" d="M507.15,268.75c-0.17-0.07-0.34-0.14-0.51-0.22
		C506.81,268.61,506.98,268.68,507.15,268.75z"/>
	<path style="fill-rule:evenodd;clip-rule:evenodd;fill:#B15651;" d="M486.48,271.71c0,0.05,0,0.11,0,0.16
		c-0.21,0-0.38-0.05-0.45-0.28C486.18,271.63,486.33,271.67,486.48,271.71z"/>
	<path style="fill-rule:evenodd;clip-rule:evenodd;fill:#812E27;" d="M509.06,269.24c-0.08-0.07-0.16-0.13-0.24-0.2
		C508.9,269.1,508.98,269.17,509.06,269.24z"/>
	<path style="fill-rule:evenodd;clip-rule:evenodd;fill:#453F3B;" d="M514.56,272.61c-0.08-0.08-0.17-0.16-0.25-0.24
		C514.39,272.44,514.48,272.52,514.56,272.61z"/>
	<path style="fill-rule:evenodd;clip-rule:evenodd;fill:#812E27;" d="M510.01,269.72c-0.08-0.07-0.16-0.14-0.25-0.21
		C509.85,269.58,509.93,269.65,510.01,269.72z"/>
	<path style="fill-rule:evenodd;clip-rule:evenodd;fill:#812E27;" d="M509.53,269.48c-0.08-0.07-0.17-0.14-0.25-0.21
		C509.37,269.34,509.45,269.41,509.53,269.48z"/>
	<path style="fill-rule:evenodd;clip-rule:evenodd;fill:#5A7B39;" d="M444.94,275.47c0.48,0.46,0.26,0.97,0.05,1.43
		c-1.34,3-2.02,6.18-2.69,9.37c-0.21,1-1.14,1.77-0.94,2.9C440.3,284.56,441.17,278.89,444.94,275.47z"/>
	<path style="fill-rule:evenodd;clip-rule:evenodd;fill:#567138;" d="M442.37,293.96c0.06,0.07,0.12,0.15,0.19,0.22
		C442.49,294.11,442.43,294.04,442.37,293.96z"/>
	<path style="fill-rule:evenodd;clip-rule:evenodd;fill:#4F6834;" d="M477.6,303.08c-2.57,2.09-5.54,3.06-8.83,3.11
		c-1.16,0.02-2.21-0.73-3.41-0.47c-3.78-0.31-7.49-1.02-11.14-2.02c-2.55-0.7-4.72-2.1-6.64-3.89c-0.85-0.79-1.7-1.55-2.63-2.24
		c-0.61-0.3-1-0.79-1.2-1.44c0.27-0.81,0.71-0.31,1.08-0.12c1.47,0.75,2.71,1.83,3.94,2.91c2.63,2.31,5.73,3.48,9.11,4.18
		c2.72,0.57,5.48,1.02,8.23,1.16c3.34,0.17,6.8,0.43,9.94-1.33C476.52,302.66,477.17,302.27,477.6,303.08z"/>
	<path style="fill-rule:evenodd;clip-rule:evenodd;fill:#475E31;" d="M444.95,297.57c0.87-0.06,1.44,0.58,1.9,1.09
		c3.28,3.67,7.63,5.05,12.26,5.84c1.72,0.29,3.45,0.52,5.18,0.72c0.44,0.05,0.72,0.32,1.06,0.5c-0.4,0.16-0.8,0.32-1.2,0.48
		c-0.62,0.09-1.2,0.2-1.78-0.26c-0.53-0.42-1.28-0.35-1.86-0.19c-2.95,0.82-5.47-0.49-7.86-1.78c-2.5-1.35-4.9-2.96-6.8-5.17
		C445.52,298.43,445.25,297.99,444.95,297.57z"/>
	<path style="fill-rule:evenodd;clip-rule:evenodd;fill:#567138;" d="M477.6,303.08c-0.44-0.26-0.89-0.32-1.35-0.04
		c-3.25,1.96-6.86,1.63-10.37,1.42c-3.91-0.23-7.78-0.93-11.56-2.05c-2.52-0.74-4.49-2.33-6.43-3.98c-1.07-0.91-2.22-1.67-3.4-2.4
		c-0.27-0.17-0.52-0.19-0.73,0.1c-0.3-0.14-0.47-0.38-0.48-0.72c1.42-0.38,2.27,0.71,3.16,1.4c2.71,2.1,5.25,4.45,8.67,5.34
		c3.22,0.84,6.49,1.44,9.83,1.69c2.57,0.19,5.12,0.36,7.67-0.04c1.55-0.24,2.95-0.93,4.4-1.49c0.57-0.22,1.15-0.63,1.8-0.18
		c-0.09,0.08-0.17,0.16-0.26,0.24c-0.07,0.07-0.14,0.15-0.22,0.21l-0.03,0.03c-0.06,0.08-0.14,0.14-0.22,0.2
		C477.92,302.9,477.76,302.99,477.6,303.08z"/>
	<path style="fill-rule:evenodd;clip-rule:evenodd;fill:#85B25C;" d="M489.12,264.16c-1.62-0.01-3.22,0.2-4.8,0.57
		c-4.68,1.3-9.41,2.12-14.29,1.39c-2.25-0.34-4.29-1.2-6.21-2.38c-0.33-0.21-0.71-0.35-1.06-0.52c-0.74-0.62-1.49-1.24-2.23-1.87
		c0.05-0.04,0.11-0.09,0.16-0.13c1.71,0.2,3.35,0.62,4.85,1.48c0.54,0.31,1.06,0.42,1.71,0.27c1.35-0.31,2.69,0.19,4.05,0.19
		c1.97-0.01,3.91-0.07,5.81-0.64c1.98-0.59,4.06-0.25,6.07-0.55c0.44-0.07,0.86,0.1,1.26,0.3c0.62,0.31,1.25,0.43,1.96,0.24
		c0.81-0.22,1.58,0.07,2.31,0.41c0.28,0.14,0.53,0.32,0.73,0.56C489.84,263.94,489.47,264.05,489.12,264.16z"/>
	<path style="fill-rule:evenodd;clip-rule:evenodd;fill:#72A34F;" d="M487.21,259.14c0.24,0.17,0.48,0.33,0.72,0.49
		c0.31,0.71-0.08,1.1-0.64,1.4c-0.6,0.15-1.1-0.07-1.54-0.45c-0.68-0.92-1.52-1.53-2.75-1.3c-0.05,0.01-0.11,0.02-0.16,0.03
		c-0.06,0-0.11,0-0.17,0c-0.11-0.01-0.22-0.03-0.33-0.06c-0.11-0.03-0.21-0.06-0.32-0.1s-0.21-0.09-0.3-0.15
		c-0.94-0.64-1.9-1.23-2.81-1.91c-0.39-0.29-0.9-0.52-0.94-1.12c0.31-0.89,1.16-0.67,1.8-0.87
		C482.32,256.3,484.86,257.54,487.21,259.14z"/>
	<path style="fill-rule:evenodd;clip-rule:evenodd;fill:#82B159;" d="M469.46,254.82c0.94,0.2,1.89,0.24,2.83-0.02
		c1.11-0.11,2.21-0.13,3.27,0.32c0.57,0.25,1.13,0.5,1.06,1.25c-0.08,0.82-0.66,1.13-1.39,1.21c-1.03,0.1-2.06,0.06-3.09,0.04
		c-0.52-0.01-1.03-0.03-1.53,0.11c-1.05-0.02-2.04-0.29-2.95-0.82c-0.94-1.27-0.75-1.76,0.78-1.93
		C468.77,254.93,469.1,254.73,469.46,254.82z"/>
	<path style="fill-rule:evenodd;clip-rule:evenodd;fill:#6FA248;" d="M470.38,257.49c1.47-0.54,3-0.15,4.5-0.24
		c0.67-0.04,1.35-0.03,1.48-0.85c0.14-0.88-0.7-0.79-1.18-1.06c-0.91-0.5-2,0.02-2.89-0.55c0.48-0.43,1.08-0.46,1.68-0.46
		c1.08,0.04,2.05,0.42,2.97,0.96c1.33,1.25,2.81,2.31,4.36,3.27c0.24,0.15,0.51,0.27,0.34,0.64c-0.09,0.09-0.19,0.15-0.31,0.19
		c-0.71,0.2-1.37-0.15-2.05-0.23c-0.31-0.11-0.62-0.16-0.95-0.15c-2.03-0.24-4.07-0.41-6.11-0.54
		C471.61,258.14,470.62,258.52,470.38,257.49z"/>
	<path style="fill-rule:evenodd;clip-rule:evenodd;fill:#76A751;" d="M469.46,254.82c-0.34,0.17-0.59,0.53-1.02,0.49
		c-1.5-0.13-1.18,0.59-0.67,1.41c-0.08,0.11-0.18,0.19-0.31,0.24c-0.37,0.1-0.72,0.01-1.04-0.15c-0.91-0.46-1.83-0.45-2.78-0.13
		c-0.75,0.25-1.5,0.16-2.22-0.15c-0.98-0.41-1.14-0.92-0.64-1.97c1.72-0.53,3.5-0.46,5.26-0.42
		C467.14,254.59,468.38,254.27,469.46,254.82z"/>
	<path style="fill-rule:evenodd;clip-rule:evenodd;fill:#639A49;" d="M476.85,255.56c-0.96-0.41-1.92-0.82-2.89-1.22
		c2.03-0.54,3.92-0.01,5.79,0.75c-0.29,0.8-1.39,0.14-1.68,0.94C477.55,256.2,477.38,255.42,476.85,255.56z"/>
	<path style="fill-rule:evenodd;clip-rule:evenodd;fill:#6B9E46;" d="M460.78,254.57c-0.09,1.38,0.67,2.29,2.04,1.88
		c1.7-0.51,3.18-0.28,4.72,0.32c1.42,0.56,2.84,1.12,4.32,1.51c0.6,0.76-0.2,0.79-0.53,0.89c-0.65,0.19-1.34,0.08-2.02,0.09
		c-0.27-0.01-0.53-0.02-0.79-0.1c-2.07-1.17-4.4-1.41-6.67-1.9c-0.68-0.3-1.28-0.74-1.88-1.17c-0.33-0.24-0.75-0.46-0.61-1.01
		C459.74,254.67,460.25,254.59,460.78,254.57z"/>
	<path style="fill-rule:evenodd;clip-rule:evenodd;fill:#568D45;" d="M459.36,255.08c0.58,0.91,1.67,1.18,2.4,1.89
		c-0.35,0.45-0.87,0.33-1.33,0.35c-0.67,0.04-1.35,0.04-2.03,0.12c-2.06,0.25-3.6,1.41-5.1,2.68c-0.28,0.09-0.51,0.07-0.63-0.23
		C454.63,257.91,456.64,256,459.36,255.08z"/>
	<path style="fill-rule:evenodd;clip-rule:evenodd;fill:#85B25C;" d="M452.67,259.89c0.14,0.08,0.27,0.16,0.41,0.24
		c0.05-0.01,0.1-0.01,0.15-0.02c0.15-0.06,0.24-0.18,0.35-0.29c0.26-0.21,0.53-0.38,0.88-0.38c0.64,0.22,1.47-0.55,1.97,0.38
		c-1.54,0.11-2.86,0.9-4.28,1.38c-0.23,0.08-0.44,0.41-0.73,0.1C451.83,260.84,452.25,260.36,452.67,259.89z"/>
	<path style="fill-rule:evenodd;clip-rule:evenodd;fill:#4F6834;" d="M478.33,302.58c0.07-0.07,0.15-0.14,0.22-0.21
		C478.47,302.44,478.4,302.51,478.33,302.58z"/>
	<path style="fill-rule:evenodd;clip-rule:evenodd;fill:#4F6834;" d="M478.09,302.81c0.07-0.07,0.14-0.14,0.22-0.2
		C478.23,302.68,478.16,302.74,478.09,302.81z"/>
	<path style="fill-rule:evenodd;clip-rule:evenodd;fill:#5B8E42;" d="M456.43,259.82c-0.66-0.58-1.47,0.41-2.12-0.21
		c0.53-1.29,1.64-1.71,2.9-1.88c0.3-0.01,0.55,0.11,0.73,0.34c0.9,1.16,2.26,1.56,3.51,2.11c1.09,0.48,1.45,0.2,1.41-0.99
		c-0.01-0.32-0.07-0.63-0.14-0.94c-0.12-0.51,0.09-0.75,0.6-0.77c0.54-0.02,1.06,0.07,1.57,0.23c0,0.57-0.92,0.67-0.67,1.43
		c0.17,0.53,0.28,0.96,0.91,1.02c0.6,0.16,1.12-0.33,1.71-0.18c2.08-0.01,4.17-0.05,5.96,1.27c0.22,0.17,0.47,0.3,0.67,0.49
		c0.27,0.27,0.45,0.57,0.3,0.96c-0.15,0.39-0.46,0.52-0.85,0.52c-1.31-0.01-2.62-0.05-3.93-0.08c-1.56-0.03-3.03-0.14-4.48-0.86
		c-1.69-0.84-3.69-0.89-5.33-1.93c-0.2-0.05-0.38-0.12-0.55-0.24l0.02,0.01c-0.37-0.14-0.71-0.44-1.15-0.31
		C457.14,259.83,456.78,259.83,456.43,259.82z"/>
	<path style="fill-rule:evenodd;clip-rule:evenodd;fill:#85B25C;" d="M457.49,259.83c0.51-0.37,0.82,0.01,1.15,0.31
		C458.26,260.03,457.88,259.93,457.49,259.83z"/>
	<path style="fill-rule:evenodd;clip-rule:evenodd;fill:#85B25C;" d="M458.63,260.12c0.16,0,0.32,0,0.49,0
		c0.12,0.09,0.26,0.17,0.31,0.32c-0.02,0.05-0.04,0.1-0.06,0.14C459.04,260.56,458.78,260.42,458.63,260.12z"/>
	<path style="fill-rule:evenodd;clip-rule:evenodd;fill:#85B25C;" d="M460.53,261.35c-0.31-0.06-0.55-0.21-0.71-0.49
		c0.04-0.04,0.08-0.08,0.12-0.12c0.39,0,0.69,0.08,0.62,0.58L460.53,261.35z"/>
	<path style="fill-rule:evenodd;clip-rule:evenodd;fill:#85B25C;" d="M459.82,260.86c-0.15-0.09-0.3-0.18-0.46-0.27l0,0
		c0.27-0.15,0.5-0.19,0.48,0.24L459.82,260.86z"/>
	<path style="fill-rule:evenodd;clip-rule:evenodd;fill:#A9AE37;" d="M464.41,267.55c-0.06-0.08-0.13-0.16-0.19-0.23
		c0.04-0.03,0.09-0.05,0.13-0.08c0.02,0.11,0.03,0.22,0.05,0.33L464.41,267.55z"/>
	<path style="fill-rule:evenodd;clip-rule:evenodd;fill:#608F49;" d="M489.12,264.16c0.72-0.52-0.31-0.57-0.24-0.92
		c-0.83-0.54-1.69-0.86-2.7-0.55c-0.51,0.16-1.1,0.15-1.51-0.12c-0.57-0.38-1.18-0.42-1.8-0.51c-1.27-0.19-1.43-0.49-0.81-1.6
		c0.1-0.17,0.22-0.33,0.35-0.48c0.09-0.09,0.2-0.15,0.33-0.18c0.2,0,0.34,0.1,0.47,0.24c0.18,0.26,0.22,0.59,0.41,0.85
		c0.67,0.91,1.57,0.93,2.48,0.06c2.22,0.38,4.15,1.35,5.86,2.78l0.01-0.01c0.1,0.06,0.18,0.14,0.26,0.22
		c0.06,0.02,0.13,0.03,0.19,0.03c0.12,0.04,0.19,0.14,0.29,0.21c0,0-0.01,0.01-0.01,0.01C491.51,264.19,490.32,264.17,489.12,264.16
		z"/>
	<path style="fill-rule:evenodd;clip-rule:evenodd;fill:#9C463E;" d="M491.52,270.43c-0.64,0-1.29,0-1.93,0
		c-0.64-0.2-1.23-0.48-1.69-0.98c-0.33-0.36-0.65-0.76,0-1.13c0.82,0.01,1.65-0.22,2.44,0.2c-0.28,0.06-0.7-0.16-0.81,0.23
		c-0.04,0.13,0.31,0.4,0.52,0.55C490.55,269.67,491.23,269.8,491.52,270.43z"/>
	<path style="fill-rule:evenodd;clip-rule:evenodd;fill:#A95D58;" d="M487.91,268.32c-0.45,0.81,0.29,0.96,0.71,1.29
		c0.33,0.26,0.65,0.54,0.97,0.81c-0.32,0-0.63,0.01-0.95,0.01c-1.27-0.07-1.83-1.03-2.42-1.94c0.02-0.06,0.04-0.13,0.08-0.18
		C486.83,268.32,487.37,268.32,487.91,268.32z"/>
	<path style="fill-rule:evenodd;clip-rule:evenodd;fill:#4A7742;" d="M493.18,263.94c-0.31-0.15-0.62-0.31-0.93-0.46
		c-1.27-0.39-2.45-0.95-3.44-1.86c0.17-0.67,0.71-0.73,1.26-0.76C491.12,261.87,492.57,262.48,493.18,263.94z"/>
	<path style="fill-rule:evenodd;clip-rule:evenodd;fill:#5C9147;" d="M490.06,260.86c-0.4,0.24-0.8,0.48-1.2,0.71
		c-0.73,0.15-1.32-0.01-1.7-0.7c0.49-0.27,0.67-0.73,0.76-1.24C488.74,259.86,489.48,260.23,490.06,260.86z"/>
	<path style="fill-rule:evenodd;clip-rule:evenodd;fill:#B15651;" d="M483.15,269.07c0.15,0.06,0.3,0.12,0.45,0.18
		c0.16,0.11,0.09,0.35,0.24,0.47l0,0c0.14,0.13,0.09,0.35,0.24,0.48l0,0c0.08,0.08,0.16,0.16,0.24,0.24l0,0
		c0.18,0.23,0.3,0.49,0.48,0.72l0,0c0.91,1.26,2.18,2.22,3.07,3.5c0.58,0.82,1.37,1.56,1.27,2.71c-0.26,0.16-0.51,0.03-0.62-0.17
		c-1.09-1.9-2.96-3.1-4.27-4.8c-0.62-0.8-0.89-1.79-1.53-2.56c-0.16-0.15-0.38-0.21-0.55-0.35l-0.06-0.01
		C482.46,269.34,482.8,269.21,483.15,269.07z"/>
	<path style="fill-rule:evenodd;clip-rule:evenodd;fill:#3C3830;" d="M487.17,260.88c0.49,0.42,1.1,0.53,1.7,0.7
		c1.13,0.64,2.25,1.27,3.38,1.91c-0.09,0.09-0.18,0.17-0.27,0.26c-2-0.86-3.81-2.17-5.97-2.67c-0.61,0.05-1.17-0.02-1.51-0.63
		c0.03-0.19,0.14-0.32,0.3-0.41c0.39-0.09,0.69,0.07,0.97,0.32C486.23,260.53,486.7,260.7,487.17,260.88z"/>
	<path style="fill-rule:evenodd;clip-rule:evenodd;fill:#3C3830;" d="M492.25,263.95c-0.09-0.07-0.17-0.14-0.26-0.22
		C492.07,263.81,492.16,263.88,492.25,263.95z"/>
	<path style="fill-rule:evenodd;clip-rule:evenodd;fill:#3C3830;" d="M492.72,264.2c-0.1-0.07-0.19-0.14-0.29-0.21
		C492.53,264.06,492.63,264.13,492.72,264.2z"/>
	<path style="fill-rule:evenodd;clip-rule:evenodd;fill:#822C25;" d="M515.52,281.72c0.09-0.56-0.21-1.17,0.24-1.68
		C515.67,280.6,515.97,281.21,515.52,281.72z"/>
	<path style="fill-rule:evenodd;clip-rule:evenodd;fill:#953B34;" d="M512.16,273.08c1.88,1.04,2.32,2.89,2.62,4.77
		c0.24,1.45,0.04,2.91-0.23,4.35c-0.22,0.19-0.02,0.52-0.24,0.72h0c-0.16,0.16-0.32,0.32-0.48,0.48c0-0.32,0-0.64,0-0.96
		c0.41-3.02,0.04-5.91-1.52-8.59C512.18,273.62,512.01,273.38,512.16,273.08z"/>
	<path style="fill-rule:evenodd;clip-rule:evenodd;fill:#6A8D3E;" d="M448.08,295.88c0.08,0.08,0.16,0.16,0.24,0.24
		C448.24,296.04,448.16,295.96,448.08,295.88z"/>
	<path style="fill-rule:evenodd;clip-rule:evenodd;fill:#6A8D3E;" d="M448.32,296.12c0.08,0.08,0.16,0.16,0.24,0.24
		C448.48,296.28,448.4,296.2,448.32,296.12z"/>
	<path style="fill-rule:evenodd;clip-rule:evenodd;fill:#6A8D3E;" d="M449.76,297.32c0.08,0.08,0.16,0.16,0.24,0.24
		C449.92,297.48,449.84,297.4,449.76,297.32z"/>
	<path style="fill-rule:evenodd;clip-rule:evenodd;fill:#6A8D3E;" d="M443.04,291.8c0.08,0.08,0.16,0.16,0.24,0.24
		C443.2,291.96,443.12,291.88,443.04,291.8z"/>
	<path style="fill-rule:evenodd;clip-rule:evenodd;fill:#6A8D3E;" d="M449.52,297.08c0.08,0.08,0.16,0.16,0.24,0.24
		C449.68,297.24,449.6,297.16,449.52,297.08z"/>
	<path style="fill-rule:evenodd;clip-rule:evenodd;fill:#A3423D;" d="M513.12,281.96c0.78-1.63-0.38-3.11-0.37-4.7
		c0.01-0.99-0.38-1.99-0.59-2.98c0.35-0.09,0.53,0.14,0.64,0.4c1.01,2.33,1.67,4.71,1.04,7.28c-0.91,2.94-2.1,5.73-4.41,7.89
		c-1.44,1.34-3.03,2.45-4.85,3.21c-1.27,0.53-2.6,0.05-3.9,0.18c-3.27,0.33-6.12-0.57-8.55-2.83c-0.75-0.7-1.28-1.53-1.27-2.48
		c0.03-2.97-0.38-5.85-1.51-8.61c0.04-0.03,0.08-0.07,0.12-0.1c0.05,0,0.1,0.01,0.15,0.01c0.09,0.04,0.17,0.1,0.25,0.17
		c0.06,0.08,0.11,0.16,0.15,0.25c0.05,0.13,0.09,0.26,0.14,0.4c0.04,0.08,0.07,0.17,0.1,0.25c0.06,0.12,0.11,0.25,0.17,0.37
		c0.04,0.08,0.07,0.17,0.1,0.25c0.05,0.13,0.09,0.26,0.13,0.39c0.04,0.08,0.06,0.17,0.09,0.26c0.05,0.18,0.11,0.36,0.18,0.53
		c0.04,0.09,0.07,0.18,0.1,0.27c0.08,0.25,0.17,0.48,0.24,0.73c0.04,0.17,0.07,0.33,0.08,0.5c0.01,0.88,0.12,1.75,0.19,2.62
		c0.2,2.33,1.47,3.83,3.48,4.79c3.95,1.89,7.81,1.52,11.59-0.55c2.16-1.18,3.89-2.78,4.99-5c0.18-0.33,0.37-0.66,0.54-1
		c0.06-0.13,0.13-0.27,0.19-0.41c0.05-0.14,0.1-0.27,0.15-0.4c0.05-0.13,0.11-0.26,0.17-0.38c0.03-0.09,0.07-0.17,0.1-0.26
		c0.08-0.22,0.1-0.46,0.14-0.69C512.93,282.17,512.99,282.05,513.12,281.96z"/>
	<path style="fill-rule:evenodd;clip-rule:evenodd;fill:#A94844;" d="M489.6,279.32c-0.08,0-0.16,0-0.24,0
		c-1.31-2.18-2.9-4.07-5.15-5.35c-0.66-0.38-0.92-1.09-1.08-1.8c-0.21-0.94-0.49-1.84-0.96-2.68c0.24,0,0.47,0,0.7,0
		c0.81,2.2,2.05,4.06,3.96,5.51c1.2,0.91,1.87,2.34,2.75,3.55C489.75,278.78,489.83,279.06,489.6,279.32z"/>
	<path style="fill-rule:evenodd;clip-rule:evenodd;fill:#973F39;" d="M513.84,281.96c0.12-2.36-0.21-4.64-1.12-6.83
		c-0.14-0.33-0.17-0.7-0.56-0.85c-0.19-0.92-0.97-1.43-1.44-2.16c0.56-0.02,0.76,0.55,1.2,0.72l0,0c0.07,0.09,0.15,0.16,0.24,0.24
		l0,0c1.78,2.74,2.66,5.68,1.9,8.95c-0.03,0.14-0.14,0.27-0.22,0.41C513.84,282.28,513.84,282.12,513.84,281.96z"/>
	<path style="fill-rule:evenodd;clip-rule:evenodd;fill:#769944;" d="M457.2,273.56c1.74,0.87,3.71,0.86,5.52,1.44
		c-0.57,0.53-1.28,0.39-1.91,0.26c-0.96-0.2-1.93-0.36-2.88-0.58c-2.68-0.76-5.22-0.12-7.7,0.86c-1.42,0.56-2.22,1.83-2.84,3.12
		c-1.39,2.87-1.78,5.94-1.53,9.1c0.29,3.82,2.62,6.27,5.57,8.35c2.97,2.09,6.46,2.4,9.85,3.03c1.61,0.3,3.24,0.4,4.88,0.1
		c0.24-0.04,0.48,0.04,0.64,0.24c-1.85,1.2-3.81,0.58-5.75,0.37c-1.53-0.16-3-0.77-4.57-0.62l0,0c-0.27-0.27-0.69,0.02-0.96-0.24
		h-0.12h-0.12c-0.19-0.23-0.53-0.02-0.72-0.24c-0.08,0-0.16,0-0.24,0c-0.07-0.09-0.17-0.15-0.24-0.24c-0.08,0-0.16,0-0.24,0
		c-0.12-0.15-0.35-0.1-0.48-0.24h0c-0.08-0.08-0.16-0.16-0.24-0.24c-0.08,0-0.16,0-0.24,0c-0.07-0.09-0.16-0.16-0.24-0.24h0
		c-0.51-0.4-1.16-0.57-1.68-0.96l0,0c-0.13-0.14-0.35-0.1-0.48-0.24l0,0c-0.08-0.08-0.16-0.16-0.24-0.24
		c-0.08-0.08-0.16-0.16-0.24-0.24l0,0c-0.23-0.18-0.49-0.3-0.72-0.48l0,0c-0.08-0.08-0.17-0.16-0.24-0.24
		c-0.24-0.16-0.48-0.32-0.72-0.48c-0.07-0.09-0.16-0.16-0.24-0.24h0c-0.08-0.08-0.16-0.16-0.24-0.24l0,0
		c-0.08-0.08-0.16-0.16-0.24-0.24l0,0c-0.08-0.08-0.16-0.16-0.24-0.24h0c-0.08-0.08-0.16-0.16-0.24-0.24l0,0
		c-1.06-1.31-2.31-2.5-2.62-4.26c-0.06-0.34-0.27-0.67-0.02-1.02c0.14-3.64,0.58-7.2,2.15-10.56c1.38-2.98,3.95-3.88,6.91-4.36
		C454.79,273.32,455.98,273.49,457.2,273.56z"/>
	<path style="fill-rule:evenodd;clip-rule:evenodd;fill:#769845;" d="M444.48,288.44c0.16,1.73,1.19,3.04,2.12,4.39
		c0.2,0.29,0.52,0.49,0.52,0.89c-1.36-1.11-2.57-2.31-2.8-4.18C444.27,289.15,444.12,288.76,444.48,288.44z"/>
	<path style="fill-rule:evenodd;clip-rule:evenodd;fill:#769845;" d="M450.96,296.84c0.64,0.17,1.28,0.36,1.68,0.96
		C452,297.63,451.36,297.44,450.96,296.84z"/>
	<path style="fill-rule:evenodd;clip-rule:evenodd;fill:#769845;" d="M455.52,299c0.33,0.03,0.71-0.1,0.96,0.24
		C456.15,299.21,455.77,299.34,455.52,299z"/>
	<path style="fill-rule:evenodd;clip-rule:evenodd;fill:#769845;" d="M449.28,295.64c0.34,0,0.58,0.16,0.72,0.48
		C449.66,296.12,449.42,295.96,449.28,295.64z"/>
	<path style="fill-rule:evenodd;clip-rule:evenodd;fill:#769845;" d="M454.56,298.76c0.26,0.01,0.54-0.03,0.72,0.24
		C455.02,298.99,454.74,299.03,454.56,298.76z"/>
	<path style="fill-rule:evenodd;clip-rule:evenodd;fill:#769845;" d="M450.48,296.6c0.16,0.08,0.32,0.16,0.48,0.24
		C450.8,296.76,450.64,296.68,450.48,296.6z"/>
	<path style="fill-rule:evenodd;clip-rule:evenodd;fill:#769845;" d="M453.36,298.28c0.16,0.08,0.32,0.16,0.48,0.24
		C453.68,298.44,453.52,298.36,453.36,298.28z"/>
	<path style="fill-rule:evenodd;clip-rule:evenodd;fill:#6C8C41;" d="M443.76,286.76c0.08-0.16,0.16-0.32,0.24-0.48
		C443.92,286.44,443.84,286.6,443.76,286.76z"/>
	<path style="fill-rule:evenodd;clip-rule:evenodd;fill:#769845;" d="M447.12,293.72c0.08,0.08,0.16,0.16,0.24,0.24
		C447.28,293.88,447.2,293.8,447.12,293.72z"/>
	<path style="fill-rule:evenodd;clip-rule:evenodd;fill:#769845;" d="M447.36,293.96c0.08,0.08,0.16,0.16,0.24,0.24
		C447.52,294.12,447.44,294.04,447.36,293.96z"/>
	<path style="fill-rule:evenodd;clip-rule:evenodd;fill:#769845;" d="M447.6,294.2c0.08,0.08,0.16,0.16,0.24,0.24
		C447.76,294.36,447.68,294.28,447.6,294.2z"/>
	<path style="fill-rule:evenodd;clip-rule:evenodd;fill:#769845;" d="M447.84,294.44c0.08,0.08,0.16,0.16,0.24,0.24
		C448,294.6,447.92,294.52,447.84,294.44z"/>
	<path style="fill-rule:evenodd;clip-rule:evenodd;fill:#769845;" d="M448.08,294.68c0.08,0.08,0.16,0.16,0.24,0.24
		C448.24,294.84,448.16,294.76,448.08,294.68z"/>
	<path style="fill-rule:evenodd;clip-rule:evenodd;fill:#769845;" d="M449.04,295.4c0.08,0.08,0.16,0.16,0.24,0.24
		C449.2,295.56,449.12,295.48,449.04,295.4z"/>
	<path style="fill-rule:evenodd;clip-rule:evenodd;fill:#769845;" d="M450,296.12c0.08,0.08,0.16,0.16,0.24,0.24
		C450.16,296.28,450.08,296.2,450,296.12z"/>
	<path style="fill-rule:evenodd;clip-rule:evenodd;fill:#769845;" d="M450.24,296.36c0.08,0.08,0.16,0.16,0.24,0.24
		C450.4,296.52,450.32,296.44,450.24,296.36z"/>
	<path style="fill-rule:evenodd;clip-rule:evenodd;fill:#769845;" d="M452.64,297.8c0.08,0.08,0.16,0.16,0.24,0.24
		C452.8,297.96,452.72,297.88,452.64,297.8z"/>
	<path style="fill-rule:evenodd;clip-rule:evenodd;fill:#769845;" d="M453.12,298.04c0.08,0.08,0.16,0.16,0.24,0.24
		C453.28,298.2,453.2,298.12,453.12,298.04z"/>
	<path style="fill-rule:evenodd;clip-rule:evenodd;fill:#769845;" d="M454.08,298.52c0.08,0.08,0.16,0.16,0.24,0.24
		C454.24,298.68,454.16,298.6,454.08,298.52z"/>
	<path style="fill-rule:evenodd;clip-rule:evenodd;fill:#832D26;" d="M495.36,297.32c-1.36,0.38-2.72,0.38-4.08,0
		C492.64,297.32,494,297.32,495.36,297.32z"/>
	<path style="fill-rule:evenodd;clip-rule:evenodd;fill:#832D26;" d="M498.48,297.08c-0.59,0.47-1.28,0.14-1.92,0.24
		C497.15,296.85,497.84,297.18,498.48,297.08z"/>
	<path style="fill-rule:evenodd;clip-rule:evenodd;fill:#832D26;" d="M500.4,296.84c-0.51,0.45-1.12,0.15-1.68,0.24
		C499.23,296.63,499.84,296.93,500.4,296.84z"/>
	<path style="fill-rule:evenodd;clip-rule:evenodd;fill:#832D26;" d="M502.08,296.6c-0.34,0.39-0.79,0.19-1.2,0.24
		C501.22,296.45,501.67,296.65,502.08,296.6z"/>
	<path style="fill-rule:evenodd;clip-rule:evenodd;fill:#832D26;" d="M487.68,296.12c-0.34,0-0.58-0.16-0.72-0.48
		C487.3,295.64,487.54,295.8,487.68,296.12z"/>
	<path style="fill-rule:evenodd;clip-rule:evenodd;fill:#832D26;" d="M490.8,297.32c-0.33-0.03-0.71,0.1-0.96-0.24
		C490.17,297.11,490.55,296.98,490.8,297.32z"/>
	<path style="fill-rule:evenodd;clip-rule:evenodd;fill:#812E27;" d="M515.04,282.92c-0.01,0.26,0.03,0.54-0.24,0.72
		C514.81,283.38,514.77,283.1,515.04,282.92z"/>
	<path style="fill-rule:evenodd;clip-rule:evenodd;fill:#832D26;" d="M489.6,297.08c-0.26-0.01-0.54,0.03-0.72-0.24
		C489.14,296.85,489.42,296.81,489.6,297.08z"/>
	<path style="fill-rule:evenodd;clip-rule:evenodd;fill:#973732;" d="M514.32,282.92c0.01-0.26-0.03-0.54,0.24-0.72
		C514.55,282.47,514.59,282.74,514.32,282.92z"/>
	<path style="fill-rule:evenodd;clip-rule:evenodd;fill:#832D26;" d="M488.88,296.84c-0.16-0.08-0.32-0.16-0.48-0.24
		C488.56,296.68,488.72,296.76,488.88,296.84z"/>
	<path style="fill-rule:evenodd;clip-rule:evenodd;fill:#832D26;" d="M488.4,296.6c-0.16-0.08-0.32-0.16-0.48-0.24
		C488.08,296.44,488.24,296.52,488.4,296.6z"/>
	<path style="fill-rule:evenodd;clip-rule:evenodd;fill:#832D26;" d="M486.96,295.64c-0.08-0.08-0.16-0.16-0.24-0.24
		C486.8,295.48,486.88,295.56,486.96,295.64z"/>
	<path style="fill-rule:evenodd;clip-rule:evenodd;fill:#953B34;" d="M512.16,273.08c-0.08-0.08-0.16-0.16-0.24-0.24
		C512,272.92,512.08,273,512.16,273.08z"/>
	<path style="fill-rule:evenodd;clip-rule:evenodd;fill:#832D26;" d="M487.92,296.36c-0.08-0.08-0.16-0.16-0.24-0.24
		C487.76,296.2,487.84,296.28,487.92,296.36z"/>
	<path style="fill-rule:evenodd;clip-rule:evenodd;fill:#812E27;" d="M514.8,284.12c-0.08,0.08-0.16,0.16-0.24,0.24
		C514.64,284.28,514.72,284.2,514.8,284.12z"/>
	<path style="fill-rule:evenodd;clip-rule:evenodd;fill:#812E27;" d="M512.16,289.64c-0.08,0.08-0.16,0.16-0.24,0.24
		C512,289.8,512.08,289.72,512.16,289.64z"/>
	<path style="fill-rule:evenodd;clip-rule:evenodd;fill:#812E27;" d="M511.68,290.36c-0.08,0.08-0.16,0.16-0.24,0.24
		C511.52,290.52,511.6,290.44,511.68,290.36z"/>
	<path style="fill-rule:evenodd;clip-rule:evenodd;fill:#812E27;" d="M511.44,290.6c-0.08,0.08-0.16,0.16-0.24,0.24
		C511.28,290.76,511.36,290.68,511.44,290.6z"/>
	<path style="fill-rule:evenodd;clip-rule:evenodd;fill:#7EA248;" d="M466.8,299.48c-4.12,0.75-8.11-0.21-11.95-1.38
		c-3.94-1.21-7.22-3.65-8.73-7.69c-1.33-3.53-0.67-7.11,0.41-10.63c1.49-4.83,6.25-6.31,11.39-5.5c0.05,0.24-0.1,0.35-0.28,0.45
		c-1.21,0.32-2.45,0.07-3.69,0.24c-4.45,0.63-6.73,3.26-7.29,7.71c-0.35,2.77-0.04,5.41,0.82,8.02c0.94,2.85,3.11,4.76,5.66,5.88
		c3.39,1.49,7.08,2.22,10.83,2.3c1.29,0.03,2.53-0.34,3.78-0.56c1.57-0.28,3.1-0.18,4.61,0.34c1.42,0.48,2.72,0.28,3.95-0.62
		c1.55-1.14,2.74-2.55,3.61-4.25c1.35-2.65,2.25-5.45,2.9-8.34c0.12-0.54-0.1-1.35,0.76-1.57c0,0.48,0,0.96,0,1.44
		c0,0.08,0,0.16,0,0.24c-0.23,0.19-0.02,0.53-0.24,0.72c0,0.16,0,0.32,0,0.48c-0.15,0.12-0.09,0.35-0.24,0.48c0,0.16,0,0.32,0,0.48
		c-0.15,0.12-0.09,0.35-0.24,0.48c0,0.24,0,0.48,0,0.72c-0.09,0.07-0.16,0.16-0.24,0.24c0,0.08,0,0.16,0,0.24
		c-0.15,0.12-0.09,0.35-0.24,0.48c0,0.16,0,0.32,0,0.48c-0.09,0.07-0.15,0.17-0.24,0.24c0,0.08,0,0.16,0,0.24
		c-0.09,0.07-0.15,0.17-0.24,0.24c0,0.16,0,0.32,0,0.48c-0.09,0.07-0.15,0.17-0.24,0.24c0,0.08,0,0.16,0,0.24
		c-0.15,0.12-0.09,0.35-0.24,0.48c0,0.08,0,0.16,0,0.24c-0.09,0.07-0.15,0.17-0.24,0.24c0,0.08,0,0.16,0,0.24
		c-0.09,0.07-0.15,0.17-0.24,0.24c0,0.08,0,0.16,0,0.24c-0.09,0.07-0.16,0.16-0.24,0.24c-0.15,0.13-0.09,0.35-0.24,0.48
		c-1.19,2.49-3.01,4.31-5.63,5.28c-0.81,0.3-1.61,0.34-2.44,0.07C470.57,299.2,468.7,299.05,466.8,299.48z"/>
	<path style="fill-rule:evenodd;clip-rule:evenodd;fill:#7CA344;" d="M483.36,286.28c0.01-0.26-0.03-0.54,0.24-0.72
		C483.59,285.82,483.63,286.1,483.36,286.28z"/>
	<path style="fill-rule:evenodd;clip-rule:evenodd;fill:#7CA344;" d="M480.48,294.44c0.08-0.16,0.16-0.32,0.24-0.48
		C480.64,294.12,480.56,294.28,480.48,294.44z"/>
	<path style="fill-rule:evenodd;clip-rule:evenodd;fill:#7CA344;" d="M483.12,287.24c0.08-0.16,0.16-0.32,0.24-0.48
		C483.28,286.92,483.2,287.08,483.12,287.24z"/>
	<path style="fill-rule:evenodd;clip-rule:evenodd;fill:#7CA344;" d="M482.4,289.88c0.08-0.16,0.16-0.32,0.24-0.48
		C482.56,289.56,482.48,289.72,482.4,289.88z"/>
	<path style="fill-rule:evenodd;clip-rule:evenodd;fill:#7CA344;" d="M482.88,288.2c0.08-0.16,0.16-0.32,0.24-0.48
		C483.04,287.88,482.96,288.04,482.88,288.2z"/>
	<path style="fill-rule:evenodd;clip-rule:evenodd;fill:#7CA344;" d="M481.44,292.52c0.08-0.16,0.16-0.32,0.24-0.48
		C481.6,292.2,481.52,292.36,481.44,292.52z"/>
	<path style="fill-rule:evenodd;clip-rule:evenodd;fill:#7CA344;" d="M480.96,293.48c0.08-0.08,0.16-0.16,0.24-0.24
		C481.12,293.32,481.04,293.4,480.96,293.48z"/>
	<path style="fill-rule:evenodd;clip-rule:evenodd;fill:#7CA344;" d="M480.72,293.96c0.08-0.08,0.16-0.16,0.24-0.24
		C480.88,293.8,480.8,293.88,480.72,293.96z"/>
	<path style="fill-rule:evenodd;clip-rule:evenodd;fill:#7CA344;" d="M482.64,289.16c0.08-0.08,0.16-0.16,0.24-0.24
		C482.8,289,482.72,289.08,482.64,289.16z"/>
	<path style="fill-rule:evenodd;clip-rule:evenodd;fill:#7CA344;" d="M482.16,290.6c0.08-0.08,0.16-0.16,0.24-0.24
		C482.32,290.44,482.24,290.52,482.16,290.6z"/>
	<path style="fill-rule:evenodd;clip-rule:evenodd;fill:#7CA344;" d="M481.92,291.08c0.08-0.08,0.16-0.16,0.24-0.24
		C482.08,290.92,482,291,481.92,291.08z"/>
	<path style="fill-rule:evenodd;clip-rule:evenodd;fill:#7CA344;" d="M481.68,291.8c0.08-0.08,0.16-0.16,0.24-0.24
		C481.84,291.64,481.76,291.72,481.68,291.8z"/>
	<path style="fill-rule:evenodd;clip-rule:evenodd;fill:#7CA344;" d="M481.2,293c0.08-0.08,0.16-0.16,0.24-0.24
		C481.36,292.84,481.28,292.92,481.2,293z"/>
	<path style="fill-rule:evenodd;clip-rule:evenodd;fill:#819D4C;" d="M457.68,274.52c0.08-0.08,0.16-0.16,0.24-0.24
		c1.58,0.35,3.14,0.85,4.8,0.72c3.44,0.38,6.54-1.08,9.77-1.81c1.04-0.23,1.96,0.31,2.95,0.13c0.23,0.25,0.81,0.34,0.37,0.87
		c-0.18,0.11-0.37,0.15-0.57,0.17c-1.2,0.11-2.43-0.16-3.62,0.2c-2.11,0.53-4.22,1.06-6.39,1.31c-2,0.23-3.94-0.05-5.89-0.31
		c-0.37-0.12-0.75-0.23-1.12-0.34C457.94,275.06,457.6,274.95,457.68,274.52z"/>
	<path style="fill-rule:evenodd;clip-rule:evenodd;fill:#7EA248;" d="M475.92,274.04c-0.16-0.24-0.32-0.48-0.48-0.72
		c0.16,0,0.32,0,0.48,0c0.85,0.67,2.09,0.38,2.88,1.2C477.74,274.96,476.8,274.69,475.92,274.04z"/>
	<path style="fill-rule:evenodd;clip-rule:evenodd;fill:#82A648;" d="M475.92,274.04c0.96,0.16,1.92,0.32,2.88,0.48
		c0.08,0,0.16,0,0.24,0c0.12,0.15,0.35,0.09,0.48,0.24c2.99,0.98,4.3,3.1,4.32,6.96c-0.32,0.53,0.07,1.15-0.24,1.68
		c0,0.16,0,0.32,0,0.48c-0.4,1.57-0.72,3.16-1.22,4.7c-0.95,2.96-1.98,5.9-4.16,8.25c-1.8,1.93-3.75,3.11-6.56,1.99
		c-1.88-0.75-3.86-0.18-5.77,0.21c-2.7,0.56-5.31-0.01-7.9-0.63c-1.92-0.46-3.96-0.7-5.67-1.78c-5.32-3.37-6.6-7.64-5.99-13.73
		c0.27-2.69,1.05-5.06,3.32-6.71c1.78-1.29,3.88-1.54,5.98-1.71c0.67-0.05,1.35,0.03,2.03,0.05c0.16,0.16,0.32,0.32,0.48,0.48
		c-0.9,0.65-1.91,0.1-2.89,0.27c-6.32,1.1-7.55,3.79-8.01,8.46c-0.13,1.31-0.1,2.62,0.44,3.89c0.33,0.77,0.52,1.6,0.69,2.42
		c0.6,2.91,2.4,4.86,5.06,5.93c3.01,1.21,6.21,1.75,9.41,2.19c1.61,0.22,3.18-0.22,4.72-0.67c1.64-0.48,3.14-0.53,4.69,0.48
		c1.22,0.8,2.59,0.61,3.83-0.25c2.23-1.55,3.44-3.84,4.49-6.23c1.26-2.84,1.81-5.85,2.18-8.91c0.17-1.46-0.12-2.86-0.72-4.19
		c-0.17-0.31-0.32-0.64-0.59-0.88c-1.23-1.58-3.02-2.14-4.83-2.72c-0.42-0.14-1.1-0.01-1.18-0.75
		C475.6,274.04,475.76,274.04,475.92,274.04z"/>
	<path style="fill-rule:evenodd;clip-rule:evenodd;fill:#7EA248;" d="M483.6,283.4c0.09-0.56-0.21-1.17,0.24-1.68
		C483.75,282.28,484.05,282.89,483.6,283.4z"/>
	<path style="fill-rule:evenodd;clip-rule:evenodd;fill:#7EA248;" d="M479.52,274.76c-0.16-0.08-0.32-0.16-0.48-0.24
		C479.2,274.6,479.36,274.68,479.52,274.76z"/>
	<path style="fill-rule:evenodd;clip-rule:evenodd;fill:#B55753;" d="M489.12,277.4c-0.43-1.73-1.79-2.84-2.84-4.15
		c-0.54-0.67-1.18-1.25-1.48-2.09c1.94,1.55,3.67,3.23,4.65,5.62c0.84,2.05,1.96,3.99,2.95,5.98c0.28,0.55,0.67,1.03,1.2,1.3
		c3.27,1.65,6.7,2.33,10.39,1.91c2.21-0.25,4.18-0.77,5.77-2.42c0.88-0.92,1.2-1.95,0.87-3.16c-0.27-0.98-0.13-1.87,0.33-2.74
		c0.24-0.08,0.48-0.16,0.72-0.24c0.12,1.19,0.45,2.32,0.72,3.48c0.51,2.2-0.5,4.09-1.99,5.52c-2.73,2.6-5.91,4.53-9.76,4.98
		c-2.46,0.29-4.68-0.47-6.63-1.94c-1.02-0.77-1.62-1.86-1.94-3.09c-0.63-2.39-1.1-4.83-2.19-7.07c-0.12-0.25-0.24-0.5-0.4-0.73
		c-0.13-0.31-0.22-0.65-0.34-0.97C489.13,277.51,489.13,277.46,489.12,277.4z"/>
	<path style="fill-rule:evenodd;clip-rule:evenodd;fill:#BD6967;" d="M510.48,273.8c0.79,0.77,0.37,1.75,0.48,2.64
		c-0.42,1.31-1.02,2.55-1.25,3.94c-0.34,2.02-1.84,3.24-3.69,3.69c-3.07,0.76-6.2,1.13-9.21-0.42c-0.6-0.31-1.27-0.65-1.91-0.66
		c-1.69-0.03-2.48-1.05-3.1-2.39c-0.83-1.76-1.89-3.41-2.46-5.3c-0.66-2.2-0.21-2.73,2.03-2.31c0.32,0.06,0.63,0.15,0.88-0.16
		c2.47-0.09,4.92,0.22,7.37,0.51c1.08,0.12,2.09-0.03,3.12-0.44c1.75-0.7,3.51-1.6,5.51-1.02
		C509.25,272.18,510.12,272.71,510.48,273.8c-0.19,0.15-0.37,0.06-0.55-0.02c-0.13-0.07-0.24-0.17-0.33-0.28
		c-0.06-0.07-0.12-0.15-0.18-0.22c-0.03-0.03-0.06-0.07-0.1-0.1c-0.08-0.06-0.15-0.13-0.23-0.18c-0.05-0.02-0.09-0.05-0.13-0.07
		c-0.1-0.04-0.19-0.08-0.29-0.12c-0.11-0.04-0.21-0.08-0.33-0.11c-1.48-0.54-2.91-0.18-4.16,0.54c-2.33,1.34-4.68,1.45-7.15,0.61
		c-1.95-0.28-3.88-0.28-5.83,0.03c-0.82,0.13-1.04,0.6-1,1.34c0.03,0.57,0.21,1.1,0.45,1.6c0.58,1.23,1.25,2.41,1.89,3.6
		c0.46,0.86,1.15,1.3,2.07,1.43c0.96,0.14,1.88,0.43,2.73,0.86c1.25,0.63,2.56,0.86,3.95,0.83c1.16-0.02,2.31-0.17,3.46-0.33
		c1.76-0.24,3.01-1.36,3.75-2.88c0.87-1.77,1.87-3.55,1.67-5.66C510.13,274.35,510.22,274.03,510.48,273.8z"/>
	<path style="fill-rule:evenodd;clip-rule:evenodd;fill:#B55753;" d="M484.8,271.16c-0.31-0.14-0.47-0.37-0.48-0.72
		C484.64,270.58,484.8,270.82,484.8,271.16z"/>
	<path style="fill-rule:evenodd;clip-rule:evenodd;fill:#B55753;" d="M484.08,270.2c-0.08-0.16-0.16-0.32-0.24-0.48
		C483.92,269.88,484,270.04,484.08,270.2z"/>
	<path style="fill-rule:evenodd;clip-rule:evenodd;fill:#B55753;" d="M483.84,269.72c-0.08-0.16-0.16-0.31-0.24-0.47
		c0.08-0.01,0.16-0.01,0.24-0.01C483.84,269.4,483.84,269.56,483.84,269.72z"/>
	<path style="fill-rule:evenodd;clip-rule:evenodd;fill:#B55753;" d="M484.32,270.44c-0.08-0.08-0.16-0.16-0.24-0.24
		C484.16,270.28,484.24,270.36,484.32,270.44z"/>
	<path style="fill-rule:evenodd;clip-rule:evenodd;fill:#AA4944;" d="M489.6,278.12c1.4,2.7,2.15,5.62,2.91,8.54
		c0.57,2.21,3.57,4.13,6.42,4.44c4.06,0.44,11.68-3.74,12.86-7.37c0.42-1.28,0.6-2.47,0.01-3.69c-0.43-0.88-0.5-1.75-0.12-2.65
		c0-0.72,0-1.44,0-2.16c0.79,2.17,1.16,4.44,1.44,6.72c0,0.16,0,0.32,0,0.48c-0.23,0.19-0.02,0.53-0.24,0.72c0,0.08,0,0.16,0,0.24
		c-0.09,0.07-0.15,0.17-0.24,0.24c0,0.16,0,0.32,0,0.48c-0.09,0.07-0.15,0.17-0.24,0.24c-0.04,0.38-0.17,0.71-0.48,0.96
		c-1.76,3.46-4.78,5.43-8.33,6.46c-3.9,1.14-7.63,0.72-10.75-2.27c-1.42-1.36-1.41-3.21-1.67-4.96c-0.06-0.38,0.12-0.79-0.12-1.16
		c0-0.16,0-0.32,0-0.48c-0.22-0.19-0.01-0.53-0.24-0.72l0,0c-0.21-0.2-0.02-0.53-0.24-0.72h0c-0.21-0.2-0.01-0.53-0.24-0.72v0
		c-0.14-0.13-0.09-0.35-0.24-0.48l0,0c-0.14-0.13-0.09-0.36-0.24-0.48c0-0.08,0-0.16,0-0.24c-0.08-0.08-0.15-0.17-0.24-0.24l0,0
		c-0.94-2.06-2.23-3.84-4.09-5.17c-1.62-1.15-2.08-2.93-2.63-4.67c1.33,3.23,4.35,5.12,6.24,7.92l0,0
		C489.3,277.63,489.42,277.9,489.6,278.12z"/>
	<path style="fill-rule:evenodd;clip-rule:evenodd;fill:#689C43;" d="M482.63,259.92c-1.02,1.53-0.4,1.95,1.22,2.19
		c1.08,0.17,2.07,0.44,3.2,0.25c0.62-0.11,1.41,0.18,1.83,0.87c-1.02-0.3-2.04-0.72-3.13-0.25c-0.1,0.04-0.25,0.03-0.35-0.01
		c-3.5-1.22-6.9-0.25-10.35,0.38c-1.77,0.32-3.65,0.13-5.47,0.02c-0.87-0.05-1.73-0.23-2.59,0.01c-1,0.28-1.59-0.56-2.4-0.83
		c-1.33-0.44-2.69-0.83-4.03-1.24c-0.14-0.31-0.38-0.47-0.72-0.48c-0.16-0.08-0.32-0.16-0.48-0.24c-0.08-0.16-0.17-0.31-0.25-0.47
		c2.19,1.16,4.68,1.47,6.95,2.45c2.22,0.96,4.65,0.27,6.99,0.41c0.27,0.02,0.45-0.17,0.52-0.41c0.12-0.41-0.22-0.56-0.47-0.73
		c-1.48-1.02-3.09-1.59-4.93-1.49c-0.53,0.03-1.12,0.2-1.61-0.21c0.38-1.16,1.48-0.66,2.23-0.96c0.61-0.04,1.21,0,1.82-0.04
		c2.25-0.72,4.54-0.72,6.85-0.35c0.49,0.33,0.71,0.63-0.12,0.72c-0.98,0.11-1.94,0.31-2.9,0.49c-0.25,0.21-0.61,0.2-0.87,0.41
		c0.36-0.16,0.7-0.35,1.09-0.42c2.02-0.36,4-0.92,6.07-0.6c0.32,0,0.64,0,0.96,0c0.32,0.04,0.6,0.15,0.84,0.36
		C482.57,259.82,482.6,259.87,482.63,259.92z"/>
	<path style="fill-rule:evenodd;clip-rule:evenodd;fill:#2C2520;" d="M481.89,259.66c-0.31-0.02-0.61-0.04-0.92-0.05
		c-0.61-0.19-1.23-0.03-1.85-0.1c-0.27-0.03-0.46-0.16-0.38-0.44c0.08-0.28,0.31-0.29,0.55-0.16c0.71,0.1,1.42,0.2,2.13,0.3
		c0.07,0.04,0.14,0.05,0.22,0.03c0.08-0.04,0.12-0.09,0.14-0.17c0-0.1,0.05-0.15,0.14-0.16c0.08,0,0.15,0.02,0.22,0.04
		c0.07,0.06,0.15,0.09,0.24,0.1c0.09,0.01,0.17,0.05,0.25,0.1l-0.01,0.06c0.08,0.04,0.16,0.07,0.24,0.08
		c0.04,0.01,0.08,0.02,0.13,0.02c0.12,0.03,0.25,0.07,0.37,0.11c0.08,0.02,0.16,0.05,0.24,0.08c0.12,0.04,0.23,0.09,0.35,0.13
		c0.12,0.03,0.24,0.07,0.36,0.12c0.12,0.05,0.23,0.12,0.33,0.19c0.07,0.06,0.12,0.12,0.14,0.21c-0.08,0.08-0.17,0.16-0.25,0.24
		c-0.11,0.12-0.25,0.15-0.4,0.13c-0.15-0.02-0.29-0.06-0.43-0.11c-0.14-0.04-0.27-0.1-0.39-0.19c-0.1-0.18-0.3-0.22-0.46-0.32
		c-0.08,0-0.15,0.01-0.23,0.03l0.02-0.06C482.43,259.67,482.11,259.84,481.89,259.66z"/>
	<path style="fill-rule:evenodd;clip-rule:evenodd;fill:#494F3A;" d="M481.93,258.9c0,0.09-0.01,0.17-0.01,0.26
		c-0.04,0.03-0.09,0.07-0.13,0.1c-0.04-0.04-0.08-0.07-0.12-0.11c-1.6-1.19-3.21-2.39-4.81-3.58c0.66-0.5,0.77,0.43,1.22,0.46
		C479.36,256.98,480.64,257.94,481.93,258.9z"/>
	<path style="fill-rule:evenodd;clip-rule:evenodd;fill:#618D4B;" d="M484.79,260.14c-0.06-0.02-0.13-0.04-0.19-0.04
		c-0.09-0.06-0.19-0.12-0.28-0.18c-0.14-0.02-0.29-0.04-0.43-0.07c-0.11-0.04-0.19-0.12-0.29-0.18c-0.08-0.02-0.15-0.03-0.23-0.03
		c-0.13-0.14-0.35-0.1-0.49-0.23l0,0l-0.07-0.09l0.06-0.1c0.9-0.67,2.3-0.12,2.9,1.14C485.44,260.28,485.11,260.21,484.79,260.14z"
		/>
	<path style="fill-rule:evenodd;clip-rule:evenodd;fill:#494F3A;" d="M482.43,259.13c-0.09-0.06-0.19-0.13-0.28-0.19
		c0.08,0,0.16-0.01,0.24-0.01l0.08,0.09L482.43,259.13z"/>
	<path style="fill-rule:evenodd;clip-rule:evenodd;fill:#618D4B;" d="M482.43,259.13c-0.02-0.07-0.03-0.13-0.04-0.2
		c0.08,0.07,0.17,0.14,0.25,0.22l-0.11,0.01L482.43,259.13z"/>
	<path style="fill-rule:evenodd;clip-rule:evenodd;fill:#3C3830;" d="M482.87,259.21c0,0.06,0,0.13,0.01,0.19
		c-0.08-0.07-0.16-0.14-0.25-0.2C482.71,259.19,482.79,259.19,482.87,259.21z"/>
	<path style="fill-rule:evenodd;clip-rule:evenodd;fill:#485C3B;" d="M471.62,258.42c-1.39-0.48-2.87-0.73-4.08-1.65
		c0.08,0,0.16-0.02,0.23-0.04c0.87,0.25,1.74,0.51,2.61,0.77c0.43,0.58,1.22,0.29,1.72,0.69C472,258.39,471.74,258.26,471.62,258.42
		z"/>
	<path style="fill-rule:evenodd;clip-rule:evenodd;fill:#40332F;" d="M471.62,258.42c0.16-0.08,0.32-0.16,0.48-0.24
		c2.16,0.01,4.3,0.26,6.44,0.52c-0.18,0.65-0.58,0.38-0.96,0.23c-2.34-0.16-4.68-0.22-6.97,0.44c-0.4-0.36-1.12,0.32-1.41-0.42
		c0.88-0.1,1.79,0.13,2.64-0.27c0.02-0.01,0.04-0.09,0.03-0.09C471.79,258.53,471.7,258.48,471.62,258.42z"/>
	<path style="fill-rule:evenodd;clip-rule:evenodd;fill:#494F3A;" d="M477.58,258.93c0.32-0.06,0.7,0.1,0.96-0.23
		c0.28-0.02,0.55-0.03,0.76,0.2c-0.38,0.13-0.68,0.3-0.03,0.46c0.56,0.14,1.18-0.16,1.7,0.24c-2.26-0.11-4.49,0.25-6.73,0.51l0,0
		c0.83-0.53,1.76-0.65,2.72-0.74C477.2,259.36,477.83,259.69,477.58,258.93z"/>
	<path style="fill-rule:evenodd;clip-rule:evenodd;fill:#494F3A;" d="M481.67,259.39c-0.08-0.06-0.17-0.12-0.25-0.19
		c0.08-0.02,0.16-0.04,0.24-0.06l0.04,0.04C481.76,259.26,481.75,259.33,481.67,259.39z"/>
	<path style="fill-rule:evenodd;clip-rule:evenodd;fill:#3C322D;" d="M464.9,257.94c-0.52-0.38-1.13-0.16-1.7-0.23
		c-0.72-0.1-1.41,0.23-2.13,0.12c-0.51,0.02-1.02,0-1.53,0c-0.24,0-0.48-0.03-0.72-0.02c-0.23,0-0.45,0.05-0.67,0.1
		c-0.32,0.11-0.65-0.23-0.96,0.03c-1.22,0.1-2.15,0.73-2.89,1.67c-0.24,0.17-0.47,0.34-0.71,0.51c-0.15,0.13-0.31,0.11-0.47,0.05
		c0,0-0.04-0.05-0.04-0.05c1.86-2.34,4.37-3.16,7.25-3.15c0.48,0,0.96,0,1.43,0c2.3,0.44,4.71,0.52,6.73,1.93
		c0.13,0.16,0.14,0.32,0.05,0.5c-0.18,0.12-0.34,0.03-0.49-0.05C467.08,258.69,465.82,258.71,464.9,257.94z"/>
	<path style="fill-rule:evenodd;clip-rule:evenodd;fill:#27221B;" d="M468.5,259.38c0-0.16,0-0.32-0.01-0.48
		c0.24,0.02,0.47,0.04,0.71,0.05c0.47,0.14,0.94,0.28,1.41,0.42c-0.62,0.02-1.25,0.03-1.87,0.05
		C468.65,259.51,468.57,259.49,468.5,259.38z"/>
	<path style="fill-rule:evenodd;clip-rule:evenodd;fill:#568D45;" d="M453.12,260.17c0.16-0.02,0.31-0.03,0.47-0.05
		C453.45,260.34,453.3,260.39,453.12,260.17z"/>
	<path style="fill-rule:evenodd;clip-rule:evenodd;fill:#4D7E3E;" d="M468.83,261.09c0.6,0.04,1.5-0.18,2.3,0.35
		c0.28,0.18,0.59,0.36,0.54,0.71c-0.04,0.37-0.45,0.53-0.72,0.52c-1.46-0.04-2.92-0.05-4.35-0.42c-0.3-0.08-0.51-0.28-0.48-0.6
		c0.03-0.38,0.3-0.55,0.66-0.56C467.38,261.08,467.98,261.09,468.83,261.09z"/>
	<path style="fill-rule:evenodd;clip-rule:evenodd;fill:#4C7F3E;" d="M461.06,257.5c0.72,0.06,1.47-0.22,2.15,0.21
		c-0.5,0.66,0.09,1.31,0.04,1.99c-0.09,1.2-0.64,1.34-1.57,0.96c-1.64-0.67-3.24-1.4-4.48-2.72c0.26-0.31,0.63-0.21,0.96-0.24
		c0.14-0.13,0.34-0.08,0.48-0.19c0.24,0,0.47-0.01,0.71-0.01c-0.05,1.12,0.98,2.07,2.08,1.91c0.62-0.09,0.49-0.47,0.32-0.88
		C461.58,258.14,461,258.03,461.06,257.5z"/>
	<path style="fill-rule:evenodd;clip-rule:evenodd;fill:#689C42;" d="M464.9,257.94c1.16,0.2,2.29,0.51,3.3,1.17
		c-1.07,0.3-1.92,1.15-3.07,1.25c-0.89,0.4-1.19-0.15-1.18-0.86C463.95,258.85,463.39,257.72,464.9,257.94z"/>
	<path style="fill-rule:evenodd;clip-rule:evenodd;fill:#434736;" d="M465.13,260.36c1.01-0.45,1.91-1.17,3.07-1.25
		c0.1,0.09,0.2,0.18,0.3,0.27c0.08,0.01,0.16,0.02,0.24,0.04c-0.66,0.44-1.62-0.03-2.18,0.72
		C466.08,260.18,465.71,260.94,465.13,260.36z"/>
	<path style="fill-rule:evenodd;clip-rule:evenodd;fill:#4E7C41;" d="M483.36,260.09c0.15,0.01,0.3,0.03,0.45,0.04
		c0.1,0.06,0.18,0.14,0.27,0.21c0.15,0.01,0.3,0.02,0.45,0.03c0.49,0.23,0.97,0.46,1.46,0.69c0.28,0.66-0.16,0.93-0.66,0.94
		c-0.91,0.02-1.71-0.33-2.16-1.18c-0.1-0.19-0.04-0.47-0.05-0.7C483.19,260.03,483.27,260.01,483.36,260.09z"/>
	<path style="fill-rule:evenodd;clip-rule:evenodd;fill:#3C3830;" d="M483.36,260.09c-0.08,0.01-0.16,0.02-0.24,0.04
		c-0.09-0.08-0.18-0.16-0.27-0.23C483.02,259.96,483.19,260.03,483.36,260.09z"/>
	<path style="fill-rule:evenodd;clip-rule:evenodd;fill:#A94844;" d="M491.04,283.4c0.48,0.74,0.34,1.62,0.42,2.41
		c0.34,3.08,2.27,4.74,4.92,5.7c5.25,1.92,12.46-1.17,15.11-5.8c0.09-0.16,0.28-0.27,0.43-0.4c-1.17,3.18-3.78,4.82-6.63,6.19
		c-4.12,1.98-9.73,1.18-12.62-1.81C490.96,287.93,491.11,285.62,491.04,283.4z"/>
	<path style="fill-rule:evenodd;clip-rule:evenodd;fill:#A54A45;" d="M512.88,283.16c0.01-0.26-0.03-0.54,0.24-0.72
		C513.11,282.71,513.15,282.98,512.88,283.16z"/>
	<path style="fill-rule:evenodd;clip-rule:evenodd;fill:#A94844;" d="M490.8,282.2c0.27,0.18,0.23,0.46,0.24,0.72
		C490.77,282.74,490.81,282.46,490.8,282.2z"/>
	<path style="fill-rule:evenodd;clip-rule:evenodd;fill:#A94844;" d="M490.56,281.48c0.27,0.18,0.23,0.46,0.24,0.72
		C490.53,282.02,490.57,281.75,490.56,281.48z"/>
	<path style="fill-rule:evenodd;clip-rule:evenodd;fill:#A94844;" d="M490.32,280.76c0.27,0.17,0.23,0.46,0.24,0.72
		C490.29,281.3,490.33,281.02,490.32,280.76z"/>
	<path style="fill-rule:evenodd;clip-rule:evenodd;fill:#A94844;" d="M490.08,280.28c0.08,0.16,0.16,0.32,0.24,0.48
		C490.24,280.6,490.16,280.44,490.08,280.28z"/>
	<path style="fill-rule:evenodd;clip-rule:evenodd;fill:#A94844;" d="M489.84,279.8c0.08,0.16,0.16,0.32,0.24,0.48
		C490,280.12,489.92,279.96,489.84,279.8z"/>
	<path style="fill-rule:evenodd;clip-rule:evenodd;fill:#A94844;" d="M489.6,279.32c0.08,0.08,0.16,0.16,0.24,0.24
		C489.76,279.48,489.68,279.4,489.6,279.32z"/>
	<path style="fill-rule:evenodd;clip-rule:evenodd;fill:#A54A45;" d="M512.64,283.64c0.08-0.08,0.16-0.16,0.24-0.24
		C512.8,283.48,512.72,283.56,512.64,283.64z"/>
	<path style="fill-rule:evenodd;clip-rule:evenodd;fill:#A54A45;" d="M512.4,284.36c0.08-0.08,0.16-0.16,0.24-0.24
		C512.56,284.2,512.48,284.28,512.4,284.36z"/>
	<path style="fill-rule:evenodd;clip-rule:evenodd;fill:#8CAD50;" d="M482.16,278.12c0.95,1.35,1.1,2.91,0.93,4.46
		c-0.42,3.86-1.27,7.62-3.17,11.06c-0.93,1.69-1.98,3.25-3.61,4.38c-1.3,0.9-3.11,1.13-4.37,0.2c-1.23-0.91-2.45-0.95-3.81-0.5
		c-5.37,1.79-10.41,0.11-15.32-1.72c-2.61-0.98-4.18-3.19-4.82-6.11c-0.53-2.44-1.27-4.72-0.94-7.35c0.58-4.65,3.55-6.79,7.82-7.55
		c1.12-0.2,2.2-0.06,3.3,0.02c0.33,0.03,0.71-0.1,0.96,0.24c-0.85,0.93-2.05,0.36-3.03,0.7c-0.9,0.13-1.82,0.18-2.71,0.43
		c-4.34,1.2-5.41,3.63-5.24,7.43c0.11,2.58,0.75,5.13,1.53,7.6c0.79,2.49,2.84,3.65,5.19,4.36c2.45,0.74,4.96,1.23,7.49,1.59
		c2.4,0.34,4.67-0.37,6.78-1.52c0.71-0.38,1.41-0.75,2.25-0.71c0.68,0.1,1.09,0.59,1.53,1.05c1.05,1.12,1.8,1.21,3.14,0.45
		c0.74-0.43,1.27-1.06,1.82-1.68c0.14-0.13,0.29-0.25,0.42-0.39c0.05-0.07,0.11-0.13,0.17-0.19c0.05-0.06,0.11-0.13,0.16-0.19
		c0.02-0.03,0.05-0.06,0.08-0.1c0.07-0.1,0.13-0.21,0.18-0.32c0.03-0.08,0.07-0.15,0.11-0.23c0.06-0.12,0.11-0.25,0.18-0.37
		c0.05-0.09,0.1-0.17,0.15-0.26c0.18-0.26,0.3-0.54,0.4-0.84c0.03-0.09,0.07-0.18,0.11-0.27c0.07-0.17,0.14-0.34,0.2-0.52
		c0.03-0.09,0.06-0.17,0.1-0.25c0.05-0.12,0.11-0.24,0.17-0.36c0.03-0.08,0.07-0.17,0.1-0.25c0.04-0.14,0.08-0.27,0.12-0.41
		c0.02-0.1,0.06-0.19,0.09-0.29c0.05-0.16,0.11-0.31,0.17-0.46c0.05-0.11,0.08-0.22,0.12-0.33c0.79-2.63,1.52-5.26,1.42-8.06
		c-0.03-0.88-0.51-1.69-0.28-2.58C482.08,278.22,482.12,278.17,482.16,278.12z"/>
	<path style="fill-rule:evenodd;clip-rule:evenodd;fill:#91AA57;" d="M456,275.72c0.99-0.48,2.12-0.09,3.12-0.48
		c4,0.67,7.92,0.42,11.77-0.91c0.22-0.08,0.47-0.03,0.71-0.05c1.21-0.27,2.42-0.12,3.62,0.07c0.34,0.06,0.81,0.08,0.96,0.56
		c-0.93,0.66-2.01,0.26-3,0.44c-1.95-0.22-3.8,0.44-5.66,0.77c-3.4,0.6-6.75,0.25-10.12-0.02c-0.41-0.07-0.85-0.01-1.24-0.23
		C456.1,275.82,456.05,275.77,456,275.72z"/>
	<path style="fill-rule:evenodd;clip-rule:evenodd;fill:#8CAD50;" d="M476.16,275c-1.43-0.82-3-0.72-4.56-0.72
		c1.25-0.52,2.56-0.1,3.84-0.24c1.12,0.39,2.23,0.78,3.35,1.16c1.21,0.41,2.15,1.17,2.89,2.2c-0.04,0.03-0.09,0.07-0.14,0.1
		c-0.3,0.08-0.55-0.05-0.75-0.24c-1.19-1.12-2.74-1.47-4.22-1.97c-0.11-0.04-0.21-0.09-0.3-0.16
		C476.23,275.09,476.19,275.05,476.16,275z"/>
	<path style="fill-rule:evenodd;clip-rule:evenodd;fill:#8CAD50;" d="M481.68,277.4c0.32,0.14,0.48,0.38,0.48,0.72l0,0
		C481.62,278.13,481.45,277.9,481.68,277.4L481.68,277.4z"/>
	<path style="fill-rule:evenodd;clip-rule:evenodd;fill:#B15651;" d="M489.6,278.12c-0.32-0.14-0.48-0.38-0.48-0.72
		C489.44,277.54,489.6,277.78,489.6,278.12z"/>
	<path style="fill-rule:evenodd;clip-rule:evenodd;fill:#CA7C7C;" d="M509.76,273.32c0.08,0.08,0.16,0.16,0.24,0.24
		c0.64,1.14,0.46,2.32,0.04,3.46c-0.53,1.43-1.29,2.75-2.2,3.96c-0.95,1.27-2.22,2.06-3.87,2.05c-0.68,0-1.35,0.16-2.02,0.21
		c-1.78,0.15-3.51,0.02-5.1-0.93c-0.7-0.42-1.51-0.49-2.29-0.67c-0.98-0.22-1.78-0.7-2.28-1.59c-0.63-1.11-1.32-2.18-1.77-3.39
		c-0.73-1.96,0-3.11,2.13-3.22c1.35-0.07,2.71-0.03,4.07,0c1.54,0.59,3.09,1.11,4.78,0.82c0.28-0.05,0.55-0.02,0.78,0.15
		c-0.04,1.13-0.96,1-1.63,1.01c-1.12,0.02-2.22-0.28-3.25-0.75c-1.41-0.65-2.84-0.7-4.32-0.35c-1.16,0.27-1.61,0.94-1.35,2.07
		c0.47,2.04,2.15,3.56,4.25,3.78c0.61,0.06,1.17,0.25,1.71,0.52c0.46,0.23,0.92,0.57,1.43,0.59c1.95,0.04,3.9-0.07,5.82-0.38
		c0.31-0.05,0.65-0.2,0.83-0.45c0.87-1.25,2.13-2.16,3.04-3.36c1.21-1.6,1.12-2.34-0.23-3.88c-0.16-0.18-0.33-0.35-0.29-0.62
		c0.18-0.12,0.35-0.13,0.52,0.01c0.08,0,0.16,0,0.24,0.01c0.08,0.08,0.16,0.16,0.23,0.23l0,0c0.08,0.08,0.16,0.16,0.24,0.23l0,0
		C509.6,273.16,509.68,273.24,509.76,273.32z"/>
	<path style="fill-rule:evenodd;clip-rule:evenodd;fill:#C47170;" d="M496.8,273.56c-1.55,0.08-3.11-0.17-4.66,0.15
		c-1.49,0.3-1.96,1.3-1.49,2.56c0.94,2.51,1.89,4.89,5.22,5.35c1.85,0.26,3.55,1.68,5.6,1.28c1.72-0.33,3.66,0.21,5.12-1.17
		c1.69-1.61,4.59-5.72,3.4-8.17c0.16,0.08,0.32,0.16,0.48,0.24l0,0c0.17,3.17-0.84,5.9-2.89,8.31c-1.53,1.79-3.67,1.51-5.64,1.75
		c-1.71,0.2-3.41-0.04-4.97-0.93c-0.58-0.33-1.27-0.66-1.91-0.65c-1.86,0.02-2.66-1.15-3.32-2.59c-0.55-1.19-1.25-2.32-1.7-3.55
		c-0.66-1.77-0.29-2.46,1.56-2.69c1.79-0.22,3.63-0.38,5.43,0.11C496.96,273.65,496.88,273.66,496.8,273.56z"/>
	<path style="fill-rule:evenodd;clip-rule:evenodd;fill:#CB7878;" d="M496.8,273.56c0.08,0,0.16,0,0.24,0
		c2.7,0.89,5.2,0.44,7.67-0.91c1.26-0.68,2.72-0.92,4.09-0.05c-0.16,0-0.32,0-0.48,0c-0.45,0.46-0.99,0.03-1.47,0.16
		c-1.1,0.3-2.23,0.51-3.14,1.29c-0.37,0.31-0.79,0.69-1.38,0.47C500.36,274.88,498.54,274.44,496.8,273.56z"/>
	<path style="fill-rule:evenodd;clip-rule:evenodd;fill:#CB7878;" d="M509.76,273.32c-0.08-0.08-0.16-0.16-0.23-0.24
		C509.6,273.16,509.68,273.24,509.76,273.32z"/>
	<path style="fill-rule:evenodd;clip-rule:evenodd;fill:#CB7878;" d="M509.52,273.08c-0.08-0.08-0.16-0.16-0.24-0.23
		C509.36,272.92,509.44,273,509.52,273.08z"/>
	<path style="fill-rule:evenodd;clip-rule:evenodd;fill:#CB7878;" d="M509.28,272.84c-0.08-0.08-0.16-0.16-0.23-0.23
		C509.12,272.68,509.2,272.76,509.28,272.84z"/>
	<path style="fill-rule:evenodd;clip-rule:evenodd;fill:#486739;" d="M474.24,260.12c-0.02,0.03-0.04,0.08-0.07,0.1
		c-0.38,0.19-0.76,0.37-1.13,0.56c-0.02-0.06-0.08-0.16-0.06-0.18C473.32,260.23,473.76,260.1,474.24,260.12L474.24,260.12z"/>
	<path style="fill-rule:evenodd;clip-rule:evenodd;fill:#3C3830;" d="M481.89,259.66c0.28-0.03,0.56-0.05,0.76,0.21
		C482.39,259.8,482.14,259.73,481.89,259.66z"/>
	<path style="fill-rule:evenodd;clip-rule:evenodd;fill:#3C3830;" d="M482.88,259.4c0.16,0.08,0.33,0.16,0.49,0.23
		C483.21,259.56,483.04,259.48,482.88,259.4z"/>
	<path style="fill-rule:evenodd;clip-rule:evenodd;fill:#3C3830;" d="M481.67,259.39c0.01-0.07,0.02-0.14,0.03-0.21
		c0.07-0.01,0.14-0.02,0.21-0.03C481.84,259.24,481.75,259.31,481.67,259.39z"/>
	<path style="fill-rule:evenodd;clip-rule:evenodd;fill:#3C3830;" d="M483.6,259.67c0.1,0.06,0.19,0.12,0.29,0.18
		C483.79,259.79,483.7,259.73,483.6,259.67z"/>
	<path style="fill-rule:evenodd;clip-rule:evenodd;fill:#3C3830;" d="M484.32,259.92c0.09,0.06,0.19,0.12,0.28,0.18
		C484.5,260.04,484.41,259.98,484.32,259.92z"/>
	<path style="fill-rule:evenodd;clip-rule:evenodd;fill:#3C3830;" d="M484.08,260.34c-0.09-0.07-0.18-0.14-0.27-0.21
		C483.9,260.2,483.99,260.27,484.08,260.34z"/>
	<path style="fill-rule:evenodd;clip-rule:evenodd;fill:#3E6F3A;" d="M461.06,257.5c0.27,0.21,0.58,0.39,0.8,0.65
		c0.33,0.39,0.68,0.83,0.35,1.37c-0.34,0.54-0.82,0.22-1.28,0.15c-0.61-0.1-1.14-0.35-1.61-0.71c-0.61-0.46-0.75-0.98,0.02-1.45
		C459.91,257.5,460.49,257.5,461.06,257.5z"/>
	<path style="fill-rule:evenodd;clip-rule:evenodd;fill:#3E6F3A;" d="M458.63,257.51c-0.16,0.06-0.32,0.13-0.48,0.19
		C458.31,257.64,458.47,257.58,458.63,257.51z"/>
	<path style="fill-rule:evenodd;clip-rule:evenodd;fill:#90B84B;" d="M471.6,295.4c-0.79-0.03-1.49,0.25-2.15,0.62
		c-3.01,1.7-6.13,2.19-9.53,1.25c-2.13-0.59-4.34-0.87-6.45-1.65c-3.35-1.24-4.49-3.93-4.85-7.06c-0.16-1.4-0.73-2.66-0.83-4.08
		c-0.39-5.69,2.4-8.74,8.2-8.76l0,0c-0.02,0.63-0.58,0.57-0.95,0.69c-0.96,0.31-1.79,0.84-2.67,1.33c-3.22,1.82-3.63,7.08-0.17,9.55
		c1.2,0.86,2.37,1.76,3.68,2.46c1.94,1.03,3.61,2.48,5.43,3.7c2.27,1.53,4.64,2.02,7.26,1.13c0.38-0.13,0.77-0.22,1.17-0.23
		C470.51,294.46,471.31,294.49,471.6,295.4z"/>
	<path style="fill-rule:evenodd;clip-rule:evenodd;fill:#98B65A;" d="M471.6,295.4c-0.6-0.34-1.15-0.82-1.92-0.72
		c0.47-0.99,1.34-1.33,2.34-1.48c0.8,0.08,1.36,0.62,1.94,1.1c1.22,1.02,2.1,0.92,3.11-0.4c1.33-1.73,2.25-3.67,2.72-5.8
		c0.46-2.01,0.87-4.03,0.78-6.11c-0.1-2.27-1.23-3.88-3.18-4.97c-0.15-0.1-0.3-0.2-0.45-0.3c-0.1-0.06-0.2-0.13-0.3-0.19
		c-0.81-0.51-1.66-0.88-2.63-0.99c-0.32-0.04-0.76,0-0.74-0.54c0.96,0,1.92,0,2.88,0h0c0.15,0.14,0.36,0.13,0.54,0.2
		c5.4,1.73,5.82,6.15,5.1,10.75c-0.18,1.16-0.43,2.33-0.84,3.45l0,0c-0.15,0.13-0.09,0.35-0.24,0.48c0,0.08,0,0.16,0,0.24
		c-0.15,0.12-0.1,0.35-0.24,0.48l0,0c-0.15,0.13-0.1,0.35-0.24,0.48l0,0c-0.22,0.19-0.03,0.52-0.24,0.72l0,0
		c-0.23,0.49-0.39,1.01-0.72,1.44l0,0c-0.15,0.13-0.1,0.35-0.24,0.48v0c-0.15,0.13-0.1,0.35-0.24,0.48l0,0
		c-0.08,0.08-0.16,0.16-0.24,0.24h0c-0.15,0.13-0.1,0.35-0.24,0.48c-0.75,0.8-1.4,1.71-2.44,2.17c-1.19,0.52-2.32,0.73-3.17-0.65
		C472.46,296.02,471.98,295.74,471.6,295.4z"/>
	<path style="fill-rule:evenodd;clip-rule:evenodd;fill:#8FB14E;" d="M480.96,289.4c0.21-1.88,0.66-3.71,0.77-5.62
		c0.24-4.19-1.39-7.04-5.33-8.54c-0.06-0.05-0.07-0.11-0.06-0.16c0.02-0.05,0.04-0.08,0.06-0.08c2,0.28,3.66,1.28,5.28,2.4
		c0.01,0.34,0.17,0.58,0.48,0.72C483.28,282.04,482.35,285.75,480.96,289.4z"/>
	<path style="fill-rule:evenodd;clip-rule:evenodd;fill:#8FB14E;" d="M479.28,293.24c0.1-0.55,0.32-1.04,0.72-1.44
		C479.99,292.4,479.83,292.92,479.28,293.24z"/>
	<path style="fill-rule:evenodd;clip-rule:evenodd;fill:#8FB14E;" d="M480,291.8c0.01-0.26-0.03-0.54,0.24-0.72
		C480.23,291.34,480.27,291.62,480,291.8z"/>
	<path style="fill-rule:evenodd;clip-rule:evenodd;fill:#8FB14E;" d="M479.04,293.72c0.08-0.16,0.16-0.32,0.24-0.48
		C479.2,293.4,479.12,293.56,479.04,293.72z"/>
	<path style="fill-rule:evenodd;clip-rule:evenodd;fill:#8FB14E;" d="M478.8,294.2c0.08-0.16,0.16-0.32,0.24-0.48
		C478.96,293.88,478.88,294.04,478.8,294.2z"/>
	<path style="fill-rule:evenodd;clip-rule:evenodd;fill:#8FB14E;" d="M478.32,294.92c0.08-0.16,0.16-0.32,0.24-0.48
		C478.48,294.6,478.4,294.76,478.32,294.92z"/>
	<path style="fill-rule:evenodd;clip-rule:evenodd;fill:#8FB14E;" d="M480.72,289.88c0.08-0.16,0.16-0.32,0.24-0.48
		C480.88,289.56,480.8,289.72,480.72,289.88z"/>
	<path style="fill-rule:evenodd;clip-rule:evenodd;fill:#8FB14E;" d="M480.48,290.6c0.08-0.16,0.16-0.32,0.24-0.48
		C480.64,290.28,480.56,290.44,480.48,290.6z"/>
	<path style="fill-rule:evenodd;clip-rule:evenodd;fill:#8FB14E;" d="M480.24,291.08c0.08-0.16,0.16-0.32,0.24-0.48
		C480.4,290.76,480.32,290.92,480.24,291.08z"/>
	<path style="fill-rule:evenodd;clip-rule:evenodd;fill:#8FB14E;" d="M478.56,294.44c0.08-0.08,0.16-0.16,0.24-0.24
		C478.72,294.28,478.64,294.36,478.56,294.44z"/>
	<path style="fill-rule:evenodd;clip-rule:evenodd;fill:#9CBD54;" d="M472.08,293.48c-1.02-0.05-1.57,0.85-2.4,1.2
		c-2.04,0.46-4.03,1.1-6.2,0.29c-1.46-0.55-2.77-1.36-3.89-2.29c-2.32-1.93-5-3.25-7.44-4.97c-3.66-2.57-3.72-8.4,0.68-10.68
		c1.03-0.54,2.14-0.81,3.17-1.31c0.4,0,0.8,0,1.2,0c-0.02,0.93-1.04,0.85-1.42,1.41c-1.09,0.6-2.12,1.27-2.75,2.41
		c-1.3,2.32-0.73,5.11,1.4,6.88c1.02,0.85,2.22,1.41,3.37,2.04c1.27,0.69,2.46,1.48,3.55,2.41c2.25,1.91,4.77,2.67,7.67,1.96
		c0.71-0.17,1.42-0.17,2.14-0.12C471.58,292.84,472.08,292.87,472.08,293.48z"/>
	<path style="fill-rule:evenodd;clip-rule:evenodd;fill:#9FB65F;" d="M455.76,276.92c0.2-0.74,1.15-0.57,1.44-1.2
		c1.86,0.16,3.71,0.42,5.57,0.45c2.71,0.04,5.37-0.44,8.01-1.04c0.84-0.19,1.67-0.08,2.5-0.14c1.21,0.45,2.66,0.32,3.6,1.44
		c-0.45,0.42-0.94,0.11-1.42,0.09c-2.09-0.66-4.16-0.49-6.26,0c-1.55,0.36-3.15,0.48-4.74,0.51c-2.16,0.05-4.31-0.08-6.46-0.01
		c-0.39,0.02-0.78-0.05-1.16,0.09c-0.12,0.04-0.25,0.05-0.38,0.06C456.19,277.18,455.94,277.14,455.76,276.92z"/>
	<path style="fill-rule:evenodd;clip-rule:evenodd;fill:#91AA57;" d="M476.4,275c0,0.08,0,0.16,0,0.24
		c-0.08-0.08-0.16-0.16-0.24-0.24C476.24,275,476.32,275,476.4,275z"/>
	<path style="fill-rule:evenodd;clip-rule:evenodd;fill:#D0888B;" d="M502.32,274.52c1.04-0.41,1.76-1.35,2.87-1.66
		c1.04-0.29,2.05-0.6,3.13-0.26c2.22,1.78,2.13,3.99-0.22,5.83c-0.34,0.27-0.84,0.48-0.99,0.83c-0.91,2.08-2.73,1.92-4.57,2.31
		c-3.01,0.64-5.47-1.01-8.21-1.35c-1.43-0.18-3.25-3.33-3.04-4.77c0.09-0.65,0.4-1.17,1.06-1.32c1.68-0.38,3.33-0.55,5.04,0.15
		C498.95,274.93,500.61,275.83,502.32,274.52z"/>
	<path style="fill-rule:evenodd;clip-rule:evenodd;fill:#A2C05A;" d="M475.68,276.2c0.4,0.08,0.8,0.16,1.2,0.24
		c0.08,0,0.16,0,0.24,0c0.07,0.09,0.17,0.15,0.24,0.24c3.16,1.45,3.93,4.23,3.46,7.48c-0.2,1.36-0.18,2.77-0.82,4.04
		c-0.47-1.8-0.94-3.6-1.41-5.39c-0.13-0.74-0.26-1.49-0.37-2.23c-0.21-1.36-0.8-2.48-1.88-3.35
		C476.02,276.97,475.56,276.76,475.68,276.2z"/>
	<path style="fill-rule:evenodd;clip-rule:evenodd;fill:#A5C064;" d="M478.8,282.68c0.48,1.82,1.45,3.54,1.2,5.52
		c-0.32,2.5-1.54,4.6-3.15,6.44c-0.92,1.06-2.08,1.05-3.1-0.07c-0.45-0.5-0.98-0.93-1.67-1.08c-0.24-0.31-0.58-0.44-0.96-0.48
		c-0.13-0.16-0.19-0.34-0.16-0.54c0.03-0.13,0.11-0.23,0.21-0.31c1.1-0.47,2.01,0.06,2.93,0.55c1.6,0.86,2.26,0.68,3.24-0.85
		c1.42-2.2,1.69-4.58,1.26-7.11C478.48,284.04,478.25,283.31,478.8,282.68z"/>
	<path style="fill-rule:evenodd;clip-rule:evenodd;fill:#9FB65F;" d="M477.36,276.68c-0.08-0.08-0.16-0.16-0.24-0.24
		C477.2,276.52,477.28,276.6,477.36,276.68z"/>
	<path style="fill-rule:evenodd;clip-rule:evenodd;fill:#A8C45D;" d="M471.12,292.52c0,0.16,0,0.32,0,0.48
		c-1.25-0.07-2.44,0.29-3.66,0.42c-2.07,0.22-4.04-0.38-5.56-1.73c-2.33-2.06-5.23-3.17-7.67-5.01c-1.65-1.25-2.51-3.07-2.24-5.12
		c0.29-2.23,1.52-3.9,3.77-4.64c0.24,0,0.48,0,0.72,0c0.08,0.53-0.4,0.63-0.69,0.86c-2.29,1.8-3.02,3.92-2.06,6.17
		c0.57,1.34,1.65,2.28,2.89,2.94c2.15,1.15,4.26,2.33,6.16,3.88c1.33,1.09,2.94,1.49,4.7,1.46
		C468.69,292.21,469.96,291.87,471.12,292.52z"/>
	<path style="fill-rule:evenodd;clip-rule:evenodd;fill:#A9C166;" d="M478.8,282.68c-0.05,2.27,0.82,4.53-0.01,6.8
		c-0.54,1.49-1.01,3.01-2.47,3.92c-0.66,0.41-1.26,0.36-1.88-0.09c-0.99-0.72-2.06-1.2-3.33-1.03c-1.18-0.15-2.37,0.03-3.55-0.01
		c-0.39-0.01-0.92,0.19-1.06-0.46c2.48-0.71,4.96-1.5,7.56-0.5c1.96,0.76,3,0.19,3.49-1.86c0.11-0.47,0.21-0.95,0.14-1.42
		c-0.34-2.21-0.1-4.46-0.45-6.68c-0.43-2.73-2.63-4.59-5.37-4.37c-4.17,0.33-8.32,0.95-12.53,0.81c-1.17-0.04-2.25,0.48-3.39,0.68
		c-0.6-0.27-0.32-0.6-0.03-0.88c0.31-0.29,0.72-0.45,1.08-0.67c0.2-0.13,0.48-0.06,0.66-0.23c1.53,0,3.07-0.02,4.6,0
		c2.66,0.03,5.3-0.08,7.9-0.72c1.84-0.45,3.69-0.4,5.5,0.24C477.96,277.76,478.82,280.01,478.8,282.68z"/>
	<path style="fill-rule:evenodd;clip-rule:evenodd;fill:#A9C45F;" d="M466.56,291.8c0.78,0.48,1.64,0.31,2.42,0.15
		c0.8-0.16,1.46-0.03,2.14,0.33c0,0.08,0,0.16,0,0.24c-0.56,0-1.12-0.05-1.67,0.01c-3.24,0.31-6.1-0.39-8.52-2.77
		c-1.1-1.08-2.64-1.61-4.02-2.31c-1.48-0.76-2.81-1.75-3.49-3.3c-1.3-2.96,0.19-5.15,2.38-6.76c0.22-0.16,0.45-0.31,0.68-0.47
		c0.08,0,0.16,0,0.24,0c0.16-0.14,0.32-0.14,0.48,0c-0.44,0.52-1.39,0.53-1.44,1.44c0.16,0.53-0.27,0.8-0.51,1.14
		c-1.56,2.3-1.06,4.79,1.28,6.32c0.64,0.42,1.32,0.75,2,1.08c1.55,0.75,3.03,1.62,4.33,2.77c0.79,0.7,1.69,1.21,2.69,1.54
		C465.93,291.34,466.34,291.4,466.56,291.8z"/>
	<path style="fill-rule:evenodd;clip-rule:evenodd;fill:#A8C45D;" d="M457.2,276.92c-0.16,0-0.32,0-0.48,0
		c0.25-0.34,0.63-0.21,0.96-0.24C457.52,276.76,457.36,276.84,457.2,276.92z"/>
	<path style="fill-rule:evenodd;clip-rule:evenodd;fill:#D9989D;" d="M494.42,274.28c1.74-0.01,3.84,1.4,3.81,2.42
		c-0.02,0.62-2.22,2.12-3.12,2.12c-1.21,0-2.84-1.67-2.87-2.92C492.2,274.12,493.66,274.58,494.42,274.28z"/>
	<path style="fill-rule:evenodd;clip-rule:evenodd;fill:#D8979C;" d="M507.23,277.15c-1.82,0-3.73-0.96-3.7-1.87
		c0.04-1.22,1.9-2.47,3.64-2.45c1.28,0.01,2.29,0.91,2.33,2.06C509.54,275.83,508.2,277.16,507.23,277.15z"/>
	<path style="fill-rule:evenodd;clip-rule:evenodd;fill:#B2C96E;" d="M466.56,291.8c-1.69-0.32-3.09-1.15-4.38-2.29
		c-1.22-1.08-2.67-1.87-4.18-2.51c-3.64-1.54-5.73-4.99-2.24-8.64c1.3-0.68,2.69-1.01,4.14-0.95c4.11,0.15,8.16-0.43,12.22-0.88
		c1.91-0.21,4.64,1.38,5.16,3.51c0.78,3.21,0.99,6.53,0.52,9.8c-0.31,2.15-1.81,2.73-3.78,1.87c-1.29-0.57-2.65-0.76-4.05-0.36
		C468.86,291.66,467.73,291.88,466.56,291.8z"/>
	<path style="fill-rule:evenodd;clip-rule:evenodd;fill:#BFD178;" d="M463.25,278.6c2.05,0.19,4.51-0.26,6.98-0.71
		c3.69-0.68,6.44,1.97,5.62,5.78c-0.29,1.31-0.84,2.57-1.27,3.85c-0.14,0.41-0.43,0.67-0.83,0.8c-1.96,0.66-3.9,1.4-5.9,1.94
		c-1.32,0.36-2.63-0.15-3.5-1.11c-1.7-1.88-3.95-2.79-6.1-3.92c-1.18-0.61-2.34-1.31-2.47-2.82c-0.16-1.86,1.65-3.74,3.64-3.81
		C460.53,278.57,461.65,278.6,463.25,278.6z"/>
</g>
</svg>
