<?xml version="1.0" encoding="utf-8"?>
<!-- Generator: Adobe Illustrator 16.0.0, SVG Export Plug-In . SVG Version: 6.00 Build 0)  -->
<!DOCTYPE svg PUBLIC "-//W3C//DTD SVG 1.0//EN" "http://www.w3.org/TR/2001/REC-SVG-20010904/DTD/svg10.dtd" [
	<!ENTITY ns_flows "http://ns.adobe.com/Flows/1.0/">
	<!ENTITY ns_extend "http://ns.adobe.com/Extensibility/1.0/">
	<!ENTITY ns_ai "http://ns.adobe.com/AdobeIllustrator/10.0/">
	<!ENTITY ns_graphs "http://ns.adobe.com/Graphs/1.0/">
]>
<svg version="1.0" id="Layer_1" xmlns:x="&ns_extend;" xmlns:i="&ns_ai;" xmlns:graph="&ns_graphs;"
	 xmlns="http://www.w3.org/2000/svg" xmlns:xlink="http://www.w3.org/1999/xlink" xmlns:a="http://ns.adobe.com/AdobeSVGViewerExtensions/3.0/"
	 x="0px" y="0px" width="960px" height="560px" viewBox="0 0 960 560" style="enable-background:new 0 0 960 560;"
	 xml:space="preserve">
<g>
	<path style="fill-rule:evenodd;clip-rule:evenodd;fill:#383A34;" d="M499.59,289.17c-2.76,2.27-6,3.15-9.51,3.17
		c-0.55,0-1.11-0.02-1.66,0.01c-0.54,0.02-1.13,0.01-0.92,0.88c0.04,0.16-0.21,0.53-0.35,0.55c-0.49,0.06-0.23-0.38-0.29-0.59
		c-0.1-0.34-0.16-0.89-0.51-0.81c-0.44,0.1-0.15,0.58-0.04,0.89c0.09,0.27,0.04,0.5-0.17,0.63c-0.07,0.04-0.3-0.13-0.44-0.24
		c-0.32-0.24-0.64-0.48-0.94-0.74c-0.39-0.33-0.6-0.49-0.68,0.25c-0.08,0.66-0.44,1.13-1.16,0.43c-0.31-0.3-0.73-0.48-1.06-0.77
		c-0.65-0.57-1-0.31-1.15,0.4c-0.07,0.33-0.15,0.72-0.49,0.71c-0.35-0.01-0.26-0.45-0.26-0.69c-0.04-1.2-0.51-1.43-1.47-0.72
		c-0.07-0.09-0.11-0.19-0.11-0.31c0.32-0.77,0.77-0.98,1.67-0.8c1.01,0.2,1.95,0.38,2.78,1.04c0.38,0.3,0.57,0.03,0.49-0.4
		c-0.06-0.35-0.23-0.68-0.13-1.05c0.08-0.17,0.22-0.27,0.39-0.32c1.73,0.43,3.32-0.13,4.9-0.72c0.32-0.11,0.67-0.13,0.99-0.25
		c0.26-0.08,0.53-0.16,0.8-0.24c0.32-0.09,0.65-0.14,0.96-0.25c0.32-0.09,0.65-0.14,0.96-0.25c1.86-0.38,3.18-1.58,4.41-2.91
		c1.46-1.69,2.18-3.69,2.57-5.85c0.34-2.98,0.08-5.84-1.66-8.4c-0.08-0.09-0.14-0.18-0.21-0.28c-0.06-0.09-0.12-0.19-0.18-0.28
		c-0.03-0.04-0.06-0.09-0.09-0.13c-0.07-0.08-0.13-0.17-0.2-0.26c-0.1-0.12-0.19-0.25-0.28-0.38c-0.3-0.49-0.71-0.87-1.11-1.27
		c-0.25-0.26-0.49-0.52-0.78-0.74c-0.25-0.19-0.52-0.35-0.79-0.51c-1.29-0.74-2.64-1.35-4.08-1.75c-0.1-0.03-0.2-0.07-0.3-0.11
		c-0.25-0.1-0.51-0.13-0.78-0.13c-0.11,0-0.22-0.01-0.33-0.03c-0.27-0.07-0.56-0.13-0.57-0.5c0.12-0.17,0.29-0.22,0.48-0.24
		c0.18-0.02,0.36,0.08,0.53-0.01c-0.18,0-0.36,0.01-0.54,0c-0.83-0.14-1.7-0.01-2.5-0.34c-0.25-0.21-0.13-0.42,0.01-0.63
		c1.2-0.28,0.38-0.98,0.31-1.52c-0.31-1.9-1.13-3.61-1.83-5.37c-0.41-1.03-0.79-2.06-0.89-3.18c0.03-0.13,0.1-0.22,0.21-0.28
		c0.91,0.55,0.8,1.58,1.09,2.41c0.72,2.07,1.82,3.99,2.29,6.18c0.17,0.82,1.35,0.94,2.16,1.11c0.48,0.1,1.02-0.05,1.54-0.08
		c0.29-0.09,0.57-0.18,0.82,0.08c-0.21,0.74-0.93,0.58-1.44,0.8c-0.13,0.06-0.32-0.03-0.42,0.14c0.12,0,0.23,0.07,0.34,0.09
		c1.65,0.29,2.69,1.73,4.25,2.18c0.13,0.08,0.26,0.18,0.39,0.27c0.09,0.05,0.17,0.11,0.25,0.17c0.2,0.15,0.38,0.33,0.58,0.48
		c0.14,0.08,0.27,0.17,0.41,0.25c0.1,0.06,0.18,0.13,0.27,0.21c1.31,1.56,2.69,3.06,3.47,5c1.12,2.77,1.2,5.59,0.54,8.47
		c-0.18,0.83-0.55,1.59-0.92,2.34c-0.04,0.1-0.09,0.2-0.14,0.3c-0.07,0.15-0.13,0.3-0.19,0.46c-1.21,2.22-2.99,3.84-5.26,4.94
		c-0.15,0.08-0.3,0.15-0.46,0.21c-0.1,0.05-0.21,0.09-0.32,0.12c-0.33,0.1-0.65,0.22-0.97,0.33c-1.27,0.33-2.53,0.68-3.78,1.08
		c-0.15,0.05-0.3,0.06-0.44,0.11c0.15,0.01,0.31,0,0.46,0c2.02-0.09,4.04-0.31,6.05-0.5c0.1-0.03,0.21-0.05,0.31-0.08
		c0.25-0.06,0.51-0.12,0.75-0.21c0.24-0.08,0.48-0.14,0.72-0.23c0.09-0.04,0.19-0.07,0.28-0.1c0.19-0.07,0.37-0.17,0.55-0.28
		c0.95-0.39,1.69-1.26,2.82-1.21c0.07,0.06,0.09,0.12,0.07,0.19S499.61,289.17,499.59,289.17z"/>
	<path style="fill-rule:evenodd;clip-rule:evenodd;fill:#353832;" d="M478.44,292.2c0.01,0.11,0.02,0.22,0.03,0.32
		c-0.48,0.94-1.56,0.47-2.31,0.92c-0.43,0.25-0.19-0.6-0.17-0.91c0.07-0.84,0.16-1.57-1.05-0.92c-0.66,0.35-0.27-0.65-0.92-0.68
		c-1.1-0.06-2.22,0.05-3.32-0.23c-0.64-0.16-0.22,0.45-0.14,0.62c0.81,1.65,1.84,3.07,3.82,3.43c0.08,0.35-0.2,0.43-0.42,0.55
		c-0.1,0.03-0.2,0.04-0.31,0.03c-0.15-0.02-0.3-0.05-0.46-0.08c-0.35-0.07-0.7-0.18-1.05-0.25c-0.26-0.07-0.5-0.17-0.66-0.4
		c-0.11-0.22-0.06-0.5-0.3-0.67c-0.04-0.03-0.08-0.07-0.12-0.1c-0.04-0.04-0.08-0.07-0.12-0.11c-1.06-1.32-1.72-2.82-2.18-4.43
		c-0.08-0.27-0.13-0.75-0.52-0.65c-0.27,0.07-0.12,0.49-0.09,0.75c0.04,0.43,0.09,0.86,0.01,1.3c-0.07,0.24-0.17,0.45-0.44,0.5
		c-0.39-0.1-0.56-0.42-0.71-0.75c-0.34-0.58,0.29-1.64-0.89-1.81c-0.22-0.12-0.32-0.31-0.33-0.56c0.37-1.1,1.38-1.25,2.23-1.18
		c1.14,0.09,0.62-0.32,0.38-0.76c-0.82-1.54-2.09-2.45-3.78-2.83c-0.69-0.16-1.42-0.22-2.06-0.56c-0.52-0.2-0.87-0.65-1.39-0.86
		c-0.34-0.04-0.68-0.04-1.01-0.11c-0.66-0.22-1.31-0.46-2.02-0.39c-0.17,0-0.35-0.01-0.52,0c-0.17,0-0.34,0-0.51-0.01
		c-0.38-0.01-0.76-0.02-1.13,0.1c-0.11,0.03-0.21,0.06-0.32,0.08c-0.28,0.05-0.55,0.12-0.82,0.18c-0.24,0.03-0.47,0.01-0.67-0.16
		c-0.06-0.11-0.06-0.22,0-0.33l-0.01,0.01c0.1-0.04,0.19-0.09,0.28-0.15c0.3-0.03,0.6-0.05,0.9-0.08c0.12-0.02,0.2-0.11,0.3-0.16
		c0.23-0.02,0.45-0.05,0.68-0.07c0.3-0.22,0.71,0.05,1-0.23l-0.01,0.01c0.2-0.16,0.1-0.58,0.49-0.58c0.47,0.07,0.92,0.32,1.42,0.27
		c0.16,0,0.33,0,0.49,0.01c0.16,0,0.33,0.03,0.49,0.06c0.26,0.06,0.51,0.17,0.76,0.27c0.29,0.13,0.6,0.18,0.9,0.26
		c0.15,0.04,0.31,0.09,0.46,0.14c0.16,0.04,0.31,0.1,0.46,0.16c0.89,0.58,2.08,0.33,2.94,1.03c0.12,0.1,0.23,0.21,0.35,0.31
		c0.2,0.16,0.44,0.24,0.67,0.35c0.14,0.07,0.27,0.16,0.4,0.24c0.86,0.56,1.52,1.33,2.23,2.06c0.07,0.08,0.13,0.17,0.19,0.27
		c0.22,0.35,0.22,0.84,0.69,1.01c0.1,0.05,0.18,0.11,0.26,0.19c0.37,0.46,0.24,0.89-0.1,1.29c-0.2,0.24-0.47,0.45-0.36,0.82
		c0.03,0.1,0.05,0.21,0.07,0.31c0.33,1.27,1.34,0.91,2.2,0.92c0.72,0.19,1.42,0.04,2.12-0.07c0.18-0.08,0.48,0.12,0.52-0.25
		c-1.18-1.45-2.06-3.06-2.84-4.74c-0.05-0.1-0.09-0.21-0.13-0.31c-0.09-0.28-0.19-0.55-0.3-0.82c-0.43-1.21-0.69-2.47-0.99-3.72
		c-0.05-0.69,0.07-1.39-0.17-2.07c-0.06-0.25-0.09-0.51-0.1-0.77c-0.06-2.79,0.6-5.4,1.86-7.87c0.27-0.52,0.49-1.1,1.15-1.27
		c0.45,0.1,0.34,0.43,0.28,0.72c-0.27,0.54-0.56,1.08-0.78,1.65c-0.09,0.2-0.19,0.39-0.28,0.59c-0.04,0.1-0.09,0.2-0.13,0.3
		c-0.42,0.96-0.35,2.05-0.78,3.01c-0.15,0.29-0.18,0.6-0.17,0.92c0,0.11,0,0.21,0,0.32c-0.01,0.42-0.02,0.84,0.06,1.26
		c0.01,0.1,0.01,0.21-0.01,0.31c-0.13,0.17-0.11,0.33,0.05,0.47c0.07,0.15,0.1,0.31,0.12,0.47c0.05,0.54-0.04,1.09,0.12,1.63
		c0.05,0.16,0.09,0.32,0.13,0.48c0.05,0.16,0.1,0.32,0.15,0.48c0.03,0.11,0.06,0.22,0.08,0.33c0.15,1.13,0.54,2.19,0.9,3.27
		c0.43,1.49,1.27,2.75,2.21,3.96c0.11,0.12,0.21,0.25,0.32,0.37c0.08,0.08,0.15,0.16,0.21,0.24c0.07,0.08,0.14,0.17,0.21,0.25
		c0.34,0.4,0.73,0.74,1.19,0.97c0.72,0.35,1.08,0.04,1.01-0.84c-0.87-1.41-1.51-2.9-1.62-4.58c0.05-0.31,0.09-0.62,0.45-0.74
		c0.58,0.29,0.56,0.92,0.77,1.41c0.45,1.05,0.72,2.19,1.36,3.16c0.1,0.14,0.19,0.28,0.27,0.43c0.06,0.09,0.1,0.19,0.15,0.29
		c0.28,0.56,0.74,0.79,1.34,0.76c0.09-0.03,0.19-0.05,0.28-0.08c0.09-0.04,0.18-0.06,0.27-0.09c0.18-0.05,0.36-0.07,0.54-0.12
		c0.08-0.03,0.17-0.07,0.25-0.1c0.04-0.03,0.08-0.05,0.12-0.07c0.08-0.05,0.16-0.09,0.24-0.13c0.09-0.03,0.18-0.04,0.28-0.04
		c0.09,0.01,0.18,0.05,0.25,0.1c0.05,0.08,0.08,0.16,0.08,0.25c-0.02,0.09-0.05,0.17-0.09,0.25c-0.02,0.04-0.04,0.07-0.06,0.11
		c-0.05,0.12-0.08,0.24-0.08,0.36c0,0.09-0.03,0.17-0.06,0.25c-0.09,0.11-0.21,0.17-0.35,0.19c-0.09,0-0.19-0.01-0.28-0.02
		c-0.19-0.04-0.38-0.03-0.58,0.02c-0.64,0.25-1.25,0.33-1.95,0.13C478.94,290.64,478.24,291.31,478.44,292.2z"/>
	<path style="fill-rule:evenodd;clip-rule:evenodd;fill:#3C3E37;" d="M488.52,303.36c2.27,2.35,4.55,4.69,6.8,7.06
		c0.29,0.31,0.94,0.73,0.53,1.18c-0.51,0.55-0.74-0.29-1.08-0.5c-2.33-1.44-4.82-2.17-7.58-1.84c-3.12,0.37-5.92,1.78-8.89,2.63
		c-2.68,0.77-5.34,0.43-8-0.16c-0.07-0.12-0.08-0.25-0.03-0.39c0.22-0.32,0.56-0.35,0.9-0.39c0.87-0.02,1.71,0.25,2.58,0.22
		c0.91,0.01,1.83-0.02,2.74-0.04c2.13-0.36,4.23-0.79,6.11-1.97c0.6-0.38,1.31-0.33,1.97-0.44c2.38-0.39,4.76-0.6,7.15-0.06
		c0.17,0.04,0.41,0.2,0.52-0.03c0.09-0.19-0.12-0.36-0.22-0.53c-0.6-0.95-1.73-1.27-2.47-2.06c-0.27-0.33-0.5-0.71-0.79-1.03
		c-0.2-0.24-0.36-0.5-0.54-0.76c-0.09-0.13-0.17-0.26-0.24-0.4c-0.03-0.1-0.04-0.21-0.03-0.31c0.03-0.1,0.08-0.19,0.16-0.26
		C488.25,303.21,488.39,303.24,488.52,303.36z"/>
	<path style="fill-rule:evenodd;clip-rule:evenodd;fill:#43443D;" d="M451.33,311.58c-0.09-0.86-0.25-1.72-0.27-2.58
		c-0.03-2.4-1.68-3.81-3.28-5.13c-3.32-2.76-4-6.46-4.09-10.44c0-0.13,0.13-0.27,0.2-0.4c0.46-0.09,0.48,0.29,0.59,0.56
		c0.21,1.16,0.36,2.34,0.47,3.52c0.14,1.37,0.47,2.65,1.41,3.7c0.08,0.09,0.15,0.18,0.21,0.27c0.07,0.09,0.14,0.18,0.21,0.28
		c0.59,0.96,1.39,1.74,2.26,2.45c1.43,1.17,2.43,2.61,2.99,4.37c0.06,0.28,0.08,0.56,0.02,0.84c-0.05,0.26-0.14,0.52-0.1,0.8
		C452.04,310.5,451.68,311.04,451.33,311.58z"/>
	<path style="fill-rule:evenodd;clip-rule:evenodd;fill:#3D3F38;" d="M466,288.01c0.09,0.17,0.18,0.33,0.27,0.5
		c0.06,0.1,0.07,0.2,0.04,0.3c-0.06,0.15-0.14,0.29-0.22,0.43c-0.32,0.57-0.63,1.14-0.77,1.79c-0.03,0.11-0.06,0.21-0.11,0.31
		c-0.07,0.15-0.16,0.28-0.25,0.42c-0.18,0.27-0.32,0.55-0.44,0.86c-0.32,0.58-0.24,1.39-1,1.71c-0.2-0.05-0.32-0.14-0.19-0.37
		c-0.01-0.29-0.02-0.58-0.02-0.87c-0.02-0.17-0.09-0.2-0.2-0.06c-3.14,2.65-6.05,5.51-8.18,9.08c-0.03,0.12-0.11,0.21-0.18,0.3
		c-0.09,0.08-0.18,0.16-0.27,0.23c-0.18-0.04-0.3-0.15-0.34-0.34c0.65-2.43,2.34-4.11,4.14-5.71c0.08-0.07,0.16-0.14,0.24-0.21
		c0.04-0.04,0.08-0.07,0.12-0.11c0.07-0.07,0.15-0.14,0.22-0.21c0.04-0.04,0.07-0.07,0.11-0.11c0.26-0.24,0.46-0.53,0.66-0.82
		c0.15-0.21,0.33-0.4,0.51-0.59c0.47-0.44,0.76-1.03,1.23-1.46c0.55-0.51,1.11-1,1.76-1.38c0.59-0.35,1.04-0.84,1.24-1.52
		c0.14-0.31,0.31-0.59,0.49-0.88C465.27,288.89,465.25,288.1,466,288.01z"/>
	<path style="fill-rule:evenodd;clip-rule:evenodd;fill:#3F4039;" d="M496,263.3c1.97-0.26,3.71,0.47,5.45,1.26
		c4.16,1.9,6.1,5.25,6.37,9.69c0.1,1.71,0.28,3.43-0.35,5.1c-0.23,0.03-0.33-0.12-0.41-0.3c-0.09-1.62,0.02-3.25-0.11-4.88
		c-0.05-0.6-0.11-1.18-0.22-1.77c-0.94-4.85-4.28-7.11-8.76-8.15c-0.63-0.23-1.34-0.22-1.92-0.61
		C495.94,263.53,495.93,263.42,496,263.3z"/>
	<path style="fill-rule:evenodd;clip-rule:evenodd;fill:#43413F;" d="M464.56,263.31c3.29-1.75,6.71-1.58,10.12-0.51
		c1.08,0.34,2.27,0.57,3.12,0.13c0.97-0.5,1.42-1.75,1.36-2.97c-0.04-0.79-0.15-1.57-0.24-2.36c-0.12-0.25,0.01-0.34,0.23-0.38
		c0.88,0.62,0.56,1.59,0.66,2.42c0.12,1,0.09,2,0,3.01c-1.15,1.34-2.73,1.29-4.28,1.36c-0.31-0.07-0.61-0.17-0.91-0.27
		c-0.4-0.17-0.79-0.37-1.21-0.5c-2.1-0.27-4.2-0.59-6.3,0.03c-0.75,0.12-1.43,0.6-2.24,0.47
		C464.69,263.65,464.54,263.55,464.56,263.31z"/>
	<path style="fill-rule:evenodd;clip-rule:evenodd;fill:#43433F;" d="M464.56,263.31c0.1,0.08,0.2,0.16,0.3,0.25
		c-0.04,0.48-0.43,0.66-0.76,0.85c-1.24,0.71-2.2,1.71-3.12,2.77c-0.1,0.13-0.2,0.26-0.29,0.39c-0.37,0.54-0.87,0.95-1.29,1.45
		c-0.67,1.05-1.17,2.17-1.53,3.36c-0.02,0.11-0.05,0.22-0.09,0.32c-0.07,0.21-0.14,0.43-0.2,0.65c-0.16,0.9-0.32,1.8-0.39,2.71
		c-0.01,0.33,0.02,0.65,0.12,0.97c0.03,0.1,0.05,0.21,0.07,0.31c0.04,0.21,0.09,0.41,0.15,0.61c0.05,0.15,0.08,0.31,0.11,0.47
		c-0.06,0.57,0.52,1.08,0.16,1.67c-0.16,0.16-0.31,0.31-0.47,0.47c-0.45-2.07-1.3-4.07-0.73-6.29c0.62-2.46,1.19-4.87,3.13-6.76
		c1.17-1.14,1.96-2.67,3.45-3.52C463.65,263.73,464.03,263.37,464.56,263.31z"/>
	<path style="fill-rule:evenodd;clip-rule:evenodd;fill:#3B3F38;" d="M454.28,302.4c0.06,0.08,0.13,0.15,0.19,0.23
		c-0.01,0.08-0.01,0.15-0.01,0.23c-0.07,0.08-0.12,0.17-0.17,0.26c-0.84,2.77-2.22,5.42-1.9,8.47c0.05,0.46,0.29,1.39-0.33,1.43
		c-0.63,0.04-0.5-0.92-0.73-1.43c-0.22-0.64,0.56-1.13,0.28-1.78c0.22-0.17,0.01-0.49,0.22-0.66c-0.01-0.34-0.01-0.69-0.02-1.03
		c-0.23-0.72-0.28-1.42,0.15-2.09c0.04-0.1,0.09-0.19,0.15-0.28c0.04-0.09,0.1-0.18,0.15-0.26c0.05-0.09,0.1-0.17,0.15-0.25
		c0.13-0.19,0.27-0.37,0.35-0.6c0.04-0.13,0.08-0.26,0.13-0.4c0.07-0.23,0.1-0.46,0.1-0.7c0-0.15,0-0.3,0.01-0.45
		c0-0.1,0.02-0.21,0.04-0.31c0.06-0.21,0.15-0.39,0.38-0.45C453.7,302.33,453.99,302.4,454.28,302.4z"/>
	<path style="fill-rule:evenodd;clip-rule:evenodd;fill:#41433C;" d="M471.05,311.27c-0.28,0.01-0.58-0.02-0.75,0.29
		c-0.07,0.04-0.15,0.06-0.24,0.04c-0.17-0.05-0.33-0.1-0.5-0.14c-0.05-0.06-0.12-0.09-0.19-0.11c-0.32-0.16-0.71-0.24-0.95-0.48
		c-1.93-1.88-3.71-3.93-5.17-6.17c-1.06-1.62-1.12-3.69-0.84-5.67c0.15-0.14,0.31-0.14,0.48-0.06c0.08,0.09,0.12,0.2,0.13,0.31
		c-0.03,0.55-0.14,1.12,0.12,1.65c0.39,0.87,0.29,1.84,0.61,2.73c0.2,0.56,0.39,1.1,0.83,1.52c0.12,0.12,0.23,0.24,0.34,0.36
		c0.18,0.2,0.37,0.39,0.57,0.58c0.49,0.49,1,0.97,1.36,1.56c0.17,0.25,0.32,0.52,0.51,0.76c0.1,0.11,0.2,0.23,0.3,0.34
		c0.21,0.23,0.42,0.46,0.63,0.69c0.63,0.55,1.3,1.02,2.14,1.23C470.7,310.8,471.1,310.8,471.05,311.27z"/>
	<path style="fill-rule:evenodd;clip-rule:evenodd;fill:#4E4947;" d="M444.2,293.81c-0.05-0.28,0-0.6-0.3-0.79
		c0.82-3.97,2.87-7.14,6.14-9.52c0.44-0.32,0.89-0.65,1.33-0.98c0.08,0.09,0.12,0.2,0.12,0.33c-0.11,0.51-0.52,0.78-0.89,1.08
		c-2.84,2.34-4.97,5.15-5.75,8.84C444.76,293.17,444.76,293.69,444.2,293.81z"/>
	<path style="fill-rule:evenodd;clip-rule:evenodd;fill:#41413B;" d="M476.83,253.43c-0.42-0.69-0.35-1.16,0.32-1.76
		c0.94-0.84,1.69-1.89,2.48-2.88c0.5-0.63,1.1-0.5,1.38,0.02c0.92,1.65,1.97,3.25,2.56,5.07l-0.05,0.05
		c-1.08-0.39-1.23-1.53-1.86-2.28c-0.24-0.46-0.37-0.96-0.62-1.42c-0.39-0.72-0.78-0.68-1.2-0.03c-0.25,0.18-0.54,0.32-0.7,0.61
		c-0.43,0.58-0.98,1.05-1.45,1.58c-0.32,0.29-0.34,0.76-0.6,1.08C477,253.53,476.91,253.52,476.83,253.43z"/>
	<path style="fill-rule:evenodd;clip-rule:evenodd;fill:#42433C;" d="M488.52,303.36c-0.16,0-0.32,0.01-0.48,0.01
		c-0.08,0.06-0.17,0.07-0.25,0.02c-0.14-0.12-0.23-0.29-0.32-0.45c-0.08-0.16-0.16-0.33-0.25-0.49c-0.05-0.08-0.09-0.17-0.14-0.25
		c-0.05-0.08-0.1-0.17-0.15-0.26c-0.05-0.09-0.1-0.18-0.14-0.28c-0.47-1.16-1.02-2.26-1.94-3.14c-0.35-0.4-0.78-0.7-1.22-0.98
		c-0.38-0.27-0.78-0.51-1.22-0.68c-0.15-0.06-0.29-0.13-0.43-0.21c-0.1-0.05-0.18-0.12-0.27-0.19c-0.12-0.12-0.2-0.26-0.18-0.44
		c0.08-0.17,0.21-0.23,0.4-0.15c3.04,1,4.97,3.07,5.98,6.08C488.07,302.44,488.31,302.89,488.52,303.36z"/>
	<path style="fill-rule:evenodd;clip-rule:evenodd;fill:#504453;" d="M481.93,295.88c-0.11,0.09-0.21,0.18-0.32,0.27
		c-0.16,0.2-0.4,0.29-0.64,0.26c-1.74-0.21-3.5-0.23-5.22-0.66c-0.37-0.16-0.76-0.23-1.16-0.23c-0.27-0.04-0.53-0.1-0.68-0.36
		c0.16-0.13,0.32-0.27,0.48-0.4C476.89,295.19,479.47,295.13,481.93,295.88z"/>
	<path style="fill-rule:evenodd;clip-rule:evenodd;fill:#5B5650;" d="M506.63,281.54c-1.14,1.95-2.5,3.72-4.14,5.27
		c-0.22,0.09-0.31-0.05-0.38-0.23c0-0.04-0.02-0.09,0-0.12c1.36-1.71,2.62-3.51,4.19-5.04
		C506.44,281.42,506.54,281.46,506.63,281.54z"/>
	<path style="fill-rule:evenodd;clip-rule:evenodd;fill:#4F4B46;" d="M462.86,299.05c-0.15,0-0.3,0-0.46-0.01
		c-0.18-1.79,0.05-3.5,0.93-5.09c0.08,0.1,0.15,0.19,0.23,0.29c0.33,0.25,0.14,0.54,0.06,0.82c-0.03,0.09-0.07,0.18-0.11,0.27
		c-0.07,0.18-0.1,0.38-0.11,0.57c-0.01,0.21-0.02,0.41-0.06,0.62c-0.12,0.42-0.15,0.84-0.15,1.27c0,0.17,0,0.33-0.01,0.5
		c-0.01,0.17-0.04,0.34-0.1,0.51C463.03,298.9,462.96,298.98,462.86,299.05z"/>
	<path style="fill-rule:evenodd;clip-rule:evenodd;fill:#524D48;" d="M496,263.3c0,0.06,0,0.13,0,0.19
		c-0.23,0.33-0.59,0.34-0.94,0.37c-0.34,0.05-0.68-0.02-1.03,0.02c-0.87-0.08-1.76,0.23-2.61-0.17c-0.26-0.07-0.51-0.15-0.77-0.22
		C492.42,262.97,494.2,262.74,496,263.3z"/>
	<path style="fill-rule:evenodd;clip-rule:evenodd;fill:#43433F;" d="M451.38,282.73c0-0.07-0.01-0.14-0.01-0.21
		c0.8-0.75,1.74-1.2,2.84-1.29c0.01,0.09,0.03,0.18,0.04,0.26C453.42,282.2,452.59,282.92,451.38,282.73z"/>
	<path style="fill-rule:evenodd;clip-rule:evenodd;fill:#4B4741;" d="M479.15,257.28c-0.07,0.11-0.15,0.21-0.22,0.32
		c-0.39-0.99-0.79-1.97-1.18-2.96c0.11-0.08,0.22-0.09,0.34-0.05C478.78,255.35,479.41,256.14,479.15,257.28z"/>
	<path style="fill-rule:evenodd;clip-rule:evenodd;fill:#504F48;" d="M499.59,289.17c-0.01-0.06-0.01-0.13,0.01-0.19
		c-0.17-0.23-0.03-0.42,0.09-0.6c0.28-0.35,0.67-0.57,1.01-0.85c0.27-0.2,0.53-0.43,0.9-0.41c0.12,0.03,0.21,0.09,0.28,0.18
		C501.27,288.12,500.42,288.63,499.59,289.17z"/>
	<path style="fill-rule:evenodd;clip-rule:evenodd;fill:#6C645E;" d="M507.25,279.08c0.08,0.09,0.15,0.17,0.23,0.26
		c-0.15,0.48-0.31,0.97-0.46,1.45c-0.13,0.08-0.24,0.06-0.33-0.07C506.48,280.04,506.46,279.42,507.25,279.08z"/>
	<path style="fill-rule:evenodd;clip-rule:evenodd;fill:#6F6567;" d="M477.99,254.64c-0.08,0-0.17,0-0.25,0
		c-0.3-0.4-0.61-0.81-0.91-1.21c0.11,0,0.23,0,0.34,0c0.25,0,0.41,0.14,0.55,0.32C477.89,254.02,478.16,254.26,477.99,254.64z"/>
	<path style="fill-rule:evenodd;clip-rule:evenodd;fill:#867B74;" d="M501.88,287.31c-0.13-0.02-0.25-0.03-0.38-0.05
		c-0.06-0.1-0.07-0.2-0.03-0.3c0.19-0.27,0.37-0.55,0.78-0.4c0.09,0.09,0.17,0.17,0.26,0.26
		C502.33,287.03,502.2,287.29,501.88,287.31z"/>
	<path style="fill-rule:evenodd;clip-rule:evenodd;fill:#7A6780;" d="M506.75,280.79c0.09,0,0.18,0,0.26,0
		c-0.13,0.25-0.25,0.5-0.38,0.75c-0.09-0.01-0.19-0.01-0.28-0.02C506.19,281.11,506.3,280.86,506.75,280.79z"/>
	<path style="fill-rule:evenodd;clip-rule:evenodd;fill:#43433F;" d="M457.36,280.55c-0.26,0.38-0.65,0.23-1,0.23
		C456.63,280.45,457.03,280.66,457.36,280.55z"/>
	<path style="fill-rule:evenodd;clip-rule:evenodd;fill:#8A8591;" d="M463.11,293.02c0.1-0.13,0.2-0.26,0.3-0.39
		c0.19,0.2-0.05,0.3-0.09,0.45C463.23,293.09,463.16,293.07,463.11,293.02z"/>
	<path style="fill-rule:evenodd;clip-rule:evenodd;fill:#43433F;" d="M454.48,281.09c-0.09,0.05-0.19,0.1-0.28,0.15
		C454.29,281.19,454.38,281.14,454.48,281.09z"/>
	<path style="fill-rule:evenodd;clip-rule:evenodd;fill:#43433F;" d="M455.68,280.85c-0.1,0.06-0.2,0.11-0.3,0.16
		C455.48,280.96,455.58,280.9,455.68,280.85z"/>
	<path style="fill-rule:evenodd;clip-rule:evenodd;fill:#F3E3D6;" d="M454.74,302.4c0.06-0.1,0.12-0.2,0.18-0.3
		C454.87,302.2,454.8,302.3,454.74,302.4z"/>
	<path style="fill-rule:evenodd;clip-rule:evenodd;fill:#F3E3D6;" d="M454.3,303.12c0.06-0.09,0.11-0.17,0.17-0.26
		C454.41,302.94,454.35,303.03,454.3,303.12z"/>
	<path style="fill-rule:evenodd;clip-rule:evenodd;fill:#B38552;" d="M469.37,311.36c0.06,0.04,0.13,0.07,0.19,0.11
		C469.5,311.43,469.43,311.39,469.37,311.36z"/>
	<path style="fill-rule:evenodd;clip-rule:evenodd;fill:#B38552;" d="M470.06,311.61c0.08-0.01,0.16-0.03,0.24-0.04
		c0.01,0.05,0,0.1-0.01,0.16C470.21,311.68,470.14,311.64,470.06,311.61z"/>
	<path style="fill-rule:evenodd;clip-rule:evenodd;fill:#D2A579;" d="M489.51,265.94c1.7,0.23,3.2,0.95,4.62,1.87
		c-0.28,0.74-0.95,0.75-1.58,0.84c-1.06,0.16-1.26,0.46-1.15,1.51c0.2,1.94,0.57,3.85,0.69,5.8c0.11,1.77-0.16,3.49-1,5.08
		c-0.71,1.34-1.3,2.73-1.85,4.14c-0.61,1.57-0.46,2.11,0.82,3.22c0.42,0.36,1,0.53,1.23,1.09c-0.29,0.28-0.66,0.22-1.01,0.22
		c-1.75-0.42-3.35-2.08-3.6-3.73c1.07-1.86,1.88-3.85,2.93-5.7c1.05-1.85,0.8-3.75,0.67-5.68c-0.19-2.77-1.41-5.19-2.55-7.64
		C487.9,265.89,488.68,265.88,489.51,265.94z"/>
	<path style="fill-rule:evenodd;clip-rule:evenodd;fill:#E4C4A6;" d="M495.54,269.03c0.42,0.47,0.84,0.95,1.26,1.42
		c0.13,0.88,0.78,1.56,1,2.4c0.94,3.67,1.42,7.35,0.05,11.03c-0.25,0.68-0.59,1.31-1.07,1.85c-0.87,0.69-1.44,1.7-2.41,2.29
		c-0.76,0.46-1.54,0.85-2.47,0.65c-1.88-0.41-2.79-1.85-2.35-3.73c0.14-0.58,0.39-1.13,0.61-1.68c0.03-0.11,0.08-0.22,0.14-0.33
		c0.29-0.42,0.54-0.85,0.69-1.35c0.04-0.11,0.1-0.21,0.16-0.31c0.46-0.63,0.74-1.33,0.73-2.13c0.33-1.67,0.34-3.33,0.04-4.99
		c-0.14-0.79-0.29-1.57-0.32-2.37C491.49,269.37,493.28,268.13,495.54,269.03z"/>
	<path style="fill-rule:evenodd;clip-rule:evenodd;fill:#3F403A;" d="M487.9,266.86c2.03,3.27,2.97,6.82,2.84,10.66
		c-0.03,0.84-0.18,1.61-0.6,2.38c-1.11,2.05-1.92,4.26-3.26,6.19c-0.19,0.63-0.51,1.17-1.02,1.59c-0.44,0.29-0.89,0.56-1.25,0.96
		c-0.42,0.3-0.65,0.91-1.32,0.8c-0.1-0.01-0.2-0.02-0.31-0.03c-0.05-0.66,0.47-0.98,0.87-1.33c1.4-1.25,2.53-2.71,3.48-4.31
		c0.41-0.66,0.7-1.37,0.97-2.09c0.19-0.4,0.41-0.79,0.55-1.21c0.32-0.72,0.81-1.37,0.93-2.18c0.14-0.4,0.12-0.81,0.1-1.22
		c-0.02-0.74,0.02-1.47-0.04-2.21c-0.03-0.18-0.05-0.36-0.09-0.53c-0.04-0.17-0.07-0.35-0.08-0.53c-0.04-0.75-0.29-1.46-0.46-2.18
		c-0.29-1.53-1.15-2.8-1.91-4.12c-0.06-0.09-0.12-0.17-0.18-0.26c-0.15-0.21-0.32-0.4-0.49-0.6c-0.37-0.44-0.87-0.71-1.34-1.02
		c-0.39-0.27-0.79-0.52-1.19-0.78c-0.64-0.76-1.35-0.12-2.03-0.09c-0.22-0.11-0.35-0.27-0.32-0.52c0.15-0.64,0.98-0.7,1.15-1.33
		c0.16-1.4,0-2.72-0.58-4.03c-0.25-0.58-0.93-1.36,0.13-1.92c0.19,0.03,0.33,0.14,0.45,0.29c0.32,1.09,0.82,2.12,1.12,3.22
		c0.04,0.23,0.1,0.45,0.16,0.67c0.2,0.7-0.08,1.44,0.14,2.14c0.25,0.76,1.09,0.6,1.57,1c-0.07,0.16-0.14,0.32-0.22,0.48
		C486.72,265.16,487.59,265.72,487.9,266.86z"/>
	<path style="fill-rule:evenodd;clip-rule:evenodd;fill:#E2BD9D;" d="M482.74,257.29c-0.07-0.06-0.13-0.13-0.2-0.19
		c-0.19-0.21-0.37-0.43-0.4-0.71c-0.28-2.26-1.44-4.05-3-5.63c-0.02-0.37,0.28-0.48,0.53-0.64c0.35-0.27,0.19-1.01,0.77-0.98
		c0.59,0.02,0.7,0.65,0.92,1.08c0.21,0.41,0.33,0.87,0.49,1.31c0.99,2.22,1.16,4.77,2.63,6.81c0.53,0.73,0.66,1.62,0.75,2.49
		c0.09,0.85,0.42,1.51,1.13,1.99c0.04,0.11,0.05,0.26,0.13,0.33c1,0.98,0.49,1.19-0.57,1.14c-0.89,0.39-1.43-0.08-1.87-0.78
		c0.31-1.86,0.08-3.64-0.93-5.26C482.93,257.94,483.07,257.53,482.74,257.29z"/>
	<path style="fill-rule:evenodd;clip-rule:evenodd;fill:#B4824F;" d="M499.85,281.75c0.59-3.25,0.61-6.43-1-9.45
		c-0.83-1.56-2.08-2.81-3.14-4.19c0.54-0.5,0.98-0.13,1.34,0.23c2.27,2.22,4.3,4.57,4.72,7.93c0.22,1.8-0.3,3.38-1.01,4.95
		C500.52,281.5,500.31,281.85,499.85,281.75z"/>
	<path style="fill-rule:evenodd;clip-rule:evenodd;fill:#CFA376;" d="M491.43,263.71c0.88-0.25,1.78-0.24,2.67-0.15
		c0.61,0.29,0.55,0.85,0.49,1.35c-0.09,0.74,0.25,1.12,0.88,1.36c2.01,0.79,3.17,2.45,4.31,4.15c0.02,0.18-0.01,0.34-0.12,0.49
		c-0.63,0.18-0.78-0.39-1.07-0.71c-0.76-0.86-1.4-1.85-2.45-2.4c-0.42-0.22-0.86-0.44-1.36-0.36c-0.08-0.05-0.15-0.1-0.22-0.14
		c-0.09-0.04-0.17-0.1-0.24-0.16c-0.47-0.21-0.97-0.37-1.4-0.64c-0.58-0.37-1.59-0.24-1.62-1.3c-0.88,0.06-1.6-0.33-2.28-0.82
		C489.81,264.15,490.62,263.93,491.43,263.71z"/>
	<path style="fill-rule:evenodd;clip-rule:evenodd;fill:#DCB28B;" d="M491.29,289.49c-2.68-1.13-3.22-2.31-2.2-4.9
		c0.31-0.78,0.58-1.59,1.02-2.29c1.93-3.04,1.86-6.31,1.29-9.67c-0.17-0.98-0.31-1.96-0.42-2.94c-0.09-0.87,0.29-1.41,1.22-1.36
		c0.71,0.04,1.34-0.16,1.93-0.52c0.22,0.17,0.44,0.34,0.66,0.51c-0.16,0.5-0.61,0.42-0.98,0.5c-1.56,0.35-2.07,1.1-2.05,2.71
		c0.02,1.67,0.6,3.27,0.54,4.96c-0.03,1.04-0.05,2.07-0.36,3.06c-0.01,0.11-0.03,0.23-0.04,0.34c-0.03,0.16-0.11,0.3-0.19,0.44
		c-0.03,0.09-0.07,0.19-0.12,0.28c-0.07,0.12-0.14,0.25-0.17,0.4c-0.05,0.18-0.1,0.36-0.23,0.51l0,0c-0.23,0.49-0.39,1.01-0.72,1.44
		l0,0c-0.38,0.77-0.76,1.54-0.9,2.41c-0.26,1.63,0.18,2.43,1.71,3.04c0.4,0.16,1,0.11,0.89,0.82
		C491.88,289.32,491.58,289.41,491.29,289.49z"/>
	<path style="fill-rule:evenodd;clip-rule:evenodd;fill:#D7AE86;" d="M486.36,262.81c-1.08,0.15-1.28-0.63-1.37-1.39
		c-0.17-1.44-0.65-2.66-1.46-3.93c-0.84-1.32-1.08-3.04-1.48-4.61c-0.11-0.42-1.09-0.78-0.2-1.36c0.56,0.8,1.12,1.6,1.68,2.4
		c0.5,2.17,1.37,4.22,2.22,6.26C486.11,261.04,486.28,261.9,486.36,262.81z"/>
	<path style="fill-rule:evenodd;clip-rule:evenodd;fill:#D6AF86;" d="M496.48,285.6c1.65-2.4,2-5.04,1.76-7.9
		c-0.2-2.37-0.49-4.66-1.64-6.77c-0.12-0.22,0-0.38,0.2-0.48c0.06,0.07,0.13,0.15,0.19,0.22c0.04,0.12,0.12,0.21,0.23,0.28l0,0
		c0.06,0.09,0.13,0.17,0.19,0.26c0.04,0.06,0.06,0.12,0.07,0.19c1.44,2.11,1.26,4.63,1.72,6.99c0.12,0.63,0.51,1.28,0.18,1.97
		c-0.24,2.29-1.1,4.29-2.65,6C496.45,286.16,496.36,285.91,496.48,285.6z"/>
	<path style="fill-rule:evenodd;clip-rule:evenodd;fill:#C99867;" d="M494.77,267.44c1.34-0.81,1.89,0.49,2.61,1.09
		c0.84,0.69,1.49,1.61,2.22,2.43c0.04,0.01,0.09,0.02,0.13,0.02c0.08,0.04,0.16,0.09,0.23,0.14c0.04,0.03,0.07,0.06,0.11,0.09
		c0.07,0.06,0.14,0.12,0.21,0.19c0.04,0.03,0.07,0.06,0.11,0.1c0.08,0.06,0.16,0.13,0.24,0.2c0.04,0.04,0.08,0.07,0.12,0.11
		c0.09,0.08,0.16,0.16,0.24,0.26c2.33,3.6,1.63,7.11-0.29,10.58c-0.17,0.32-0.39,0.61-0.81,0.6c-0.4-0.87,0.31-1.37,0.67-1.98
		c0.08-0.31,0.11-0.63,0.23-0.91c1.42-3.37,0.57-6.37-1.54-9.13c-0.7-0.91-1.53-1.72-2.31-2.57c-0.33-0.36-0.68-0.69-1.24-0.55
		c-0.07-0.02-0.14-0.05-0.2-0.09c-0.09-0.05-0.17-0.1-0.24-0.17C495.11,267.71,494.94,267.57,494.77,267.44z"/>
	<path style="fill-rule:evenodd;clip-rule:evenodd;fill:#AD7A47;" d="M483.3,289.44c0.4-0.32,0.79-0.64,1.18-0.95
		c1.57,0.08,3.08,0.32,4.12,1.7c-1.62,0.69-3.23,1.45-5.05,0.67c-0.24-0.06-0.43-0.2-0.54-0.43L483,290.4
		c-0.09-0.17-0.09-0.33,0.04-0.48l0,0c0.08-0.06,0.14-0.14,0.18-0.23C483.25,289.6,483.27,289.52,483.3,289.44z"/>
	<path style="fill-rule:evenodd;clip-rule:evenodd;fill:#F3E4D4;" d="M478.44,292.2c-0.21,0.1-0.46,0.34-0.6,0.28
		c-0.35-0.14-0.11-0.5-0.06-0.72c0.22-0.92,1.58-1.59,2.37-1.08c0.77,0.49,1.25-0.17,1.87-0.25c0.17,0.09,0.37,0.08,0.54,0.18
		c0.06,0.05,0.13,0.07,0.2,0.06c0.27,0.05,0.43,0.22,0.52,0.47c0.02,0.03,0.04,0.07,0.06,0.1c0.37,0.6,0.61,1.46,0.18,1.85
		c-0.43,0.4-0.93-0.46-1.45-0.67c-0.48-0.19-0.8-1.38-1.53-0.26c-0.12,0.18-0.25-0.02-0.34-0.15
		C479.47,290.9,478.97,291.69,478.44,292.2z"/>
	<path style="fill-rule:evenodd;clip-rule:evenodd;fill:#AF7F4C;" d="M494.54,291.12c-2.48,0.64-5.01,0.69-7.55,0.74
		c-0.13,0-0.4,0.03-0.32-0.19c0.05-0.14,0.29-0.26,0.47-0.31c1.59-0.48,3.19-0.94,4.79-1.4c0.9,0.05,1.51,0.8,2.36,0.96
		C494.39,290.96,494.47,291.03,494.54,291.12z"/>
	<path style="fill-rule:evenodd;clip-rule:evenodd;fill:#D3A375;" d="M494.54,291.12c-0.07-0.02-0.14-0.03-0.21-0.03
		c-0.45-0.5-1.25-0.63-1.44-1.39c0.05-0.04,0.1-0.06,0.16-0.05c0.13-0.01,0.21-0.1,0.31-0.17c2.3-1.15,4.16-2.76,5.35-5.08
		c0.04-0.09,0.1-0.17,0.16-0.25h0c0.22-0.18,0.42-0.4,0.75-0.27c0.34,0.55-0.08,0.97-0.26,1.43c-0.05,0.1-0.12,0.19-0.18,0.28
		c-1.02,1.41-1.92,2.92-3.49,3.83c-0.53,0.31-0.31,0.95-0.54,1.39c-0.13,0.23-0.41,0.13-0.58,0.27L494.54,291.12z"/>
	<path style="fill-rule:evenodd;clip-rule:evenodd;fill:#E2BD9B;" d="M496.48,285.6c0.08,0.25,0.16,0.49,0.24,0.74
		c-1.25,1.39-2.61,2.6-4.55,2.89c-0.37-0.76-1.23-0.6-1.82-0.98c-1.77-1.15-1.2-3.5,0.13-5.29c-0.04,1.04-0.8,1.89-0.74,2.98
		c0.08,1.59,1.67,2.78,3.24,2.39C494.57,287.93,495.33,286.53,496.48,285.6z"/>
	<path style="fill-rule:evenodd;clip-rule:evenodd;fill:#E5B895;" d="M499.84,288.48c-0.08,0.17-0.16,0.34-0.24,0.51
		c-0.97,0.47-1.94,0.94-2.9,1.41c-0.12,0.13-0.31,0.12-0.45,0.2c-0.08,0.02-0.16,0.04-0.24,0.05c-0.45,0.06-0.29-0.26-0.23-0.44
		c0.17-0.5,0.5-0.91,0.88-1.25c1.12-1,1.73-2.34,2.47-3.6l0,0c0.16-0.19,0.29-0.45,0.59-0.17
		C499.85,286.28,499.63,287.39,499.84,288.48z"/>
	<path style="fill-rule:evenodd;clip-rule:evenodd;fill:#C49A6A;" d="M499.38,280.34c-1.07-2.65-0.53-5.66-1.83-8.26
		c-0.1-0.2-0.05-0.46-0.08-0.7C499.61,274.05,499.95,277.1,499.38,280.34z"/>
	<path style="fill-rule:evenodd;clip-rule:evenodd;fill:#DEB692;" d="M491.68,280.08c0.94-2.67,0.23-5.33,0.01-8
		c-0.23-2.7-0.05-2.91,2.55-3.55c0.19-0.05,0.37-0.14,0.55-0.21c0.25,0.23,0.51,0.47,0.76,0.7c-0.74,0.08-1.51-0.14-2.24,0.17
		c-1.22,0.52-1.76,1.85-1.32,3.7c0.53,2.24,0.56,4.46,0.17,6.7C491.95,279.71,492.14,280.22,491.68,280.08z"/>
	<path style="fill-rule:evenodd;clip-rule:evenodd;fill:#DAAD84;" d="M499.12,285.36c-0.33,1.54-1.15,2.77-2.27,3.85
		c-0.4,0.38-0.91,0.75-0.84,1.43c-0.23,0.09-0.45,0.18-0.68,0.27c-0.11,0.07-0.2,0.05-0.28-0.04c-0.4-1.02,0.09-1.62,0.96-2.06
		C497.47,288.06,497.92,286.37,499.12,285.36z"/>
	<path style="fill-rule:evenodd;clip-rule:evenodd;fill:#B98754;" d="M488.6,290.19c-1.23-0.92-2.76-1.1-4.12-1.7
		c0.29-0.46,0.68-0.79,1.21-0.95c1.46,0.52,2.96,0.98,3.86,2.4C489.29,290.25,488.93,290.16,488.6,290.19z"/>
	<path style="fill-rule:evenodd;clip-rule:evenodd;fill:#C99868;" d="M489.55,289.94c-1.29-0.8-2.57-1.6-3.86-2.4
		c0.4-0.48,0.8-0.96,1.2-1.44c0.44,1.85,2.14,2.53,3.39,3.61C490.03,289.79,489.79,289.87,489.55,289.94z"/>
	<path style="fill-rule:evenodd;clip-rule:evenodd;fill:#D7AD8A;" d="M487.9,266.86c-0.63-0.81-1.37-1.5-2.2-2.1
		c0.95-0.12,1.89-0.08,2.81,0.21c0.15,0.62-0.55,0.14-0.62,0.47c0.1,0.39,0.46,0.14,0.67,0.28c0.13,0.08,0.27,0.07,0.41,0.08
		c0.19,0,0.38-0.01,0.56,0.07l-0.02,0.07C488.99,266.28,488.16,266.08,487.9,266.86z"/>
	<path style="fill-rule:evenodd;clip-rule:evenodd;fill:#C89766;" d="M492.89,289.69c0.57,0.37,1.32,0.56,1.44,1.39
		c-1.07,0.2-1.59-0.78-2.4-1.14C492.25,289.87,492.57,289.78,492.89,289.69z"/>
	<path style="fill-rule:evenodd;clip-rule:evenodd;fill:#BF9464;" d="M499.6,283.92c-0.24,0.08-0.49,0.15-0.73,0.23
		c0.33-0.8,0.65-1.6,0.98-2.39c0.24-0.15,0.35-0.5,0.71-0.48c-0.24,0.64-0.48,1.29-0.71,1.93
		C500.09,283.55,499.93,283.76,499.6,283.92z"/>
	<path style="fill-rule:evenodd;clip-rule:evenodd;fill:#EBE0D7;" d="M485.48,292.12c-0.11,0.16,0.11,0.6-0.21,0.48
		c-0.32-0.11-0.55-0.5-0.82-0.77c0.33,0.01,0.65,0.02,0.98,0.04c0.09,0.04,0.13,0.09,0.12,0.15
		C485.53,292.08,485.5,292.12,485.48,292.12z"/>
	<path style="fill-rule:evenodd;clip-rule:evenodd;fill:#4C4943;" d="M487.9,265.45c0.21-0.16,0.41-0.32,0.62-0.47
		c0.17,0.09,0.34,0.18,0.51,0.27C488.71,265.63,488.27,265.35,487.9,265.45z"/>
	<path style="fill-rule:evenodd;clip-rule:evenodd;fill:#3F403A;" d="M483.27,291.13c-0.17-0.16-0.35-0.31-0.52-0.47
		c0.09-0.08,0.17-0.15,0.26-0.23c0.18,0.14,0.36,0.29,0.54,0.43C483.46,290.95,483.37,291.04,483.27,291.13z"/>
	<path style="fill-rule:evenodd;clip-rule:evenodd;fill:#4C4943;" d="M489.53,265.87c-0.22,0.01-0.44,0.02-0.67,0.02
		c-0.07-0.02-0.11-0.06-0.11-0.11c0-0.06,0.01-0.09,0.03-0.09C489.05,265.67,489.32,265.64,489.53,265.87z"/>
	<path style="fill-rule:evenodd;clip-rule:evenodd;fill:#C89766;" d="M495.04,290.87c0.09,0.01,0.19,0.03,0.28,0.04
		c-0.21,0.28-0.5,0.17-0.77,0.17C494.72,291.02,494.88,290.95,495.04,290.87z"/>
	<path style="fill-rule:evenodd;clip-rule:evenodd;fill:#DAAD84;" d="M496.25,290.59c0.15-0.06,0.3-0.13,0.45-0.2
		C496.55,290.46,496.4,290.53,496.25,290.59z"/>
	<path style="fill-rule:evenodd;clip-rule:evenodd;fill:#A99AAD;" d="M485.48,292.12c-0.02-0.08-0.03-0.16-0.05-0.25
		c0.11,0.03,0.23,0.07,0.34,0.1C485.67,292.02,485.58,292.07,485.48,292.12z"/>
	<path style="fill-rule:evenodd;clip-rule:evenodd;fill:#C99867;" d="M494.3,267.13c0.08,0.05,0.16,0.11,0.24,0.16
		C494.46,267.24,494.38,267.18,494.3,267.13z"/>
	<path style="fill-rule:evenodd;clip-rule:evenodd;fill:#B4824F;" d="M495.27,267.85c0.08,0.06,0.16,0.11,0.24,0.17
		C495.43,267.96,495.35,267.91,495.27,267.85z"/>
	<path style="fill-rule:evenodd;clip-rule:evenodd;fill:#C49A6A;" d="M497.22,270.95c-0.08-0.09-0.15-0.19-0.23-0.28
		C497.07,270.76,497.14,270.85,497.22,270.95z"/>
	<path style="fill-rule:evenodd;clip-rule:evenodd;fill:#C49A6A;" d="M497.41,271.2c-0.06-0.09-0.13-0.17-0.19-0.26
		C497.28,271.03,497.34,271.11,497.41,271.2z"/>
	<path style="fill-rule:evenodd;clip-rule:evenodd;fill:#C89766;" d="M493.35,289.47c-0.1,0.06-0.2,0.12-0.31,0.18
		C493.15,289.59,493.25,289.53,493.35,289.47z"/>
	<path style="fill-rule:evenodd;clip-rule:evenodd;fill:#BF9464;" d="M498.87,284.15c-0.05,0.08-0.11,0.16-0.16,0.25
		C498.76,284.31,498.82,284.23,498.87,284.15z"/>
	<path style="fill-rule:evenodd;clip-rule:evenodd;fill:#D2A579;" d="M488.78,265.69c0.03,0.07,0.06,0.14,0.08,0.21
		c-0.1-0.06-0.2-0.11-0.3-0.17C488.63,265.7,488.71,265.69,488.78,265.69z"/>
	<path style="fill-rule:evenodd;clip-rule:evenodd;fill:#F6E6DA;" d="M471.54,294.44c0.24,0.11,0.47,0.22,0.71,0.33
		c1.05,0.74,1.91,1.69,2.75,2.64c1.03,1.17,0.9,2.3-0.46,3.09c-1.69,0.98-2.66,2.47-3.37,4.2c-0.33,0.8-0.72,1.63-1.77,1.43
		c-0.98-0.18-1.46-0.97-1.52-1.92c-0.1-1.67-0.4-3.33-0.29-5.01c0.06-0.91-0.25-1.6-1.07-2.1c-0.72-0.44-1.4-1.02-1.23-2.01
		c0.16-0.95,0.92-1.35,1.73-1.65c0.56-0.21,1.13-0.4,1.71-0.53C469.73,293.28,470.7,293.74,471.54,294.44z"/>
	<path style="fill-rule:evenodd;clip-rule:evenodd;fill:#B68552;" d="M466,288.01c-0.32,0.48-0.64,0.96-0.96,1.43
		c-1.39-0.76-2.67-1.73-4.31-1.98c-1.17-0.18-2.27-0.2-3.39,0.28c-0.76,0.32-1.59,0.46-1.91-0.67c0.14-1.5,1.39-2.17,2.33-3.05
		c0.82-0.77,1.9-1.16,2.9-1.66c0.67-0.34,1.32,0,1.97,0.12c0.92,0.23,1.84,0.48,2.77,0.7c2.13,0.52,3.01,2.33,4.07,3.94
		c0.09,0.14,0.11,0.35-0.09,0.38c-0.22,0.03-0.49,0.01-0.67-0.09C467.61,286.72,466.82,287.43,466,288.01z"/>
	<path style="fill-rule:evenodd;clip-rule:evenodd;fill:#C7996A;" d="M465.72,282.51c-0.88-0.77-2.23-0.33-3.09-1.17
		c-0.13-0.2-0.39-0.32-0.39-0.61c0.1-0.82,0.61-1.15,1.38-1.18c0.71-0.03,0.79-0.39,0.3-0.79c-1.56-1.28-1.97-2.82-1.23-4.68
		c0.06-0.15,0.07-0.32,0.02-0.47c-0.76-2.49,1.13-3.96,2.22-5.74c0.06-0.09,0.21-0.1,0.33-0.09c0.33,0.28,0.62,0.61,1.14,0.52
		c1.02-0.17,1.86,0.39,2.7,0.83c0.84,0.44,1.06,1.44,0.5,2.28c-0.6,0.9-1.17,1.78-1.58,2.79c-0.4,0.99-1.32,1.11-2.15,0.43
		c-0.21-0.18-0.38-0.41-0.61-0.57c-0.21-0.14-0.44-0.21-0.67-0.05c-0.25,0.18-0.16,0.44-0.04,0.64c0.64,1.13,1.03,2.28,0.87,3.64
		c-0.1,0.81,0.63,1.43,1,2.13C466.99,281.48,466.76,282.15,465.72,282.51z"/>
	<path style="fill-rule:evenodd;clip-rule:evenodd;fill:#F5E4D6;" d="M472.71,270.46c0.16-0.6,0.37-1.18,0.79-1.65
		c0.19-0.15,0.36-0.32,0.56-0.44c0.89-0.58,1.67-0.26,1.84,0.78c0.36,2.22,0.51,4.43-0.47,6.56c-0.1,0.22-0.16,0.44-0.09,0.69
		c0.46,1.49,0.67,3.03,0.91,4.56c0.04,0.24,0.22,0.42,0.36,0.61c0.15,0.24,0.2,0.5,0.16,0.78c-0.03,0.13-0.07,0.26-0.14,0.37
		c-0.14,0.19-0.29,0.38-0.46,0.55c-1.02,1-2.14,0.86-2.62-0.47c-0.63-1.72-1.14-3.55-0.86-5.38c0.2-1.35,0.02-2.6-0.23-3.89
		c-0.16-0.86-0.32-1.72,0-2.58l-0.01,0.01C472.64,270.83,472.58,270.6,472.71,270.46z"/>
	<path style="fill-rule:evenodd;clip-rule:evenodd;fill:#F1DAC8;" d="M468.81,293.05c-0.5,0.54-1.24,0.48-1.85,0.74
		c-0.67,0.29-1.34,0.6-1.43,1.44c-0.08,0.81,0.52,1.3,1.1,1.56c1.12,0.5,1.3,1.33,1.31,2.41c0.01,1.66,0.13,3.33,0.23,4.99
		c0.05,0.84,0.46,1.53,1.28,1.67c0.9,0.16,1.12-0.63,1.4-1.32c0.73-1.78,1.66-3.39,3.51-4.32c1.24-0.62,1.33-1.57,0.41-2.62
		c-0.83-0.96-1.95-1.66-2.52-2.85c0.38,0.08,0.75,0.16,1.13,0.24c0.12,0.01,0.2,0.1,0.31,0.14c0.08,0,0.16,0.01,0.24,0.01
		c0.24,0.03,0.48,0.07,0.71,0.1c0.1,0.08,0.2,0.15,0.31,0.23c0.53,0.59,1.13,1.12,1.59,1.77c0.84,1.19,0.77,2.28-0.24,3.34
		c-0.33,0.35-0.72,0.62-1.12,0.89c-1.19,0.79-2.12,1.8-2.65,3.15c-0.12,0.3-0.3,0.57-0.49,0.82c-0.66,0.88-1.38,1.74-2.64,1.51
		c-1.27-0.23-2.02-1.13-2.34-2.3c-0.43-1.58-0.74-3.19-0.66-4.84c0.04-0.83-0.17-1.54-0.72-2.21c-1.92-2.33-1.12-4.51,1.85-5.15
		c0.27-0.06,0.54-0.14,0.83-0.08C468.61,292.53,468.99,292.58,468.81,293.05z"/>
	<path style="fill-rule:evenodd;clip-rule:evenodd;fill:#C69764;" d="M451.38,282.73c0.96-0.41,1.91-0.82,2.87-1.23
		c0.24-0.01,0.48-0.02,0.72-0.02c0.22-0.14,0.52,0.01,0.73-0.19c0.08,0.01,0.15,0,0.23-0.04c0.39-0.21,0.85,0.04,1.24-0.19
		c0.13,0,0.25,0,0.38,0.01c0.19,0.09,0.38,0.13,0.57-0.02c0.76-0.05,1.49,0.03,2.14,0.49c0.19,0.2,0.21,0.42,0.11,0.66
		c-0.07,0.1-0.15,0.18-0.25,0.25c-1.06,0.46-2.2,0.35-3.3,0.33c-2.23-0.05-4.08,0.86-5.84,2.09c-0.09,0.08-0.18,0.14-0.28,0.21
		c-0.67,0.36-1.11,1-1.74,1.4c-1.62,1.76-2.12,4.05-3,6.16c-0.9,2.16-0.32,4.2,0.3,6.27c0.22,0.74,0.68,1.48,0.07,2.25
		c-1.73-1.49-1.62-3.61-1.9-5.59c-0.08-0.59-0.16-1.17-0.23-1.76c0.88-3.8,2.51-7.14,5.63-9.64
		C450.37,283.73,451.06,283.42,451.38,282.73z"/>
	<path style="fill-rule:evenodd;clip-rule:evenodd;fill:#78392E;" d="M471.02,280.07c0.33,1.28,0.66,2.57,0.99,3.85
		c0.2,0.2,0.01,0.53,0.24,0.73l0-0.01c0.21,0.94,1.07,1.65,1,2.7c-0.85,0.4-1.56-0.15-2.33-0.33c-0.21-0.13-0.37-0.33-0.59-0.44
		l0.01,0.01c-0.72-0.09-0.57-0.87-0.96-1.21l0.01,0.01c-0.42-0.8-1.38-1.16-1.65-2.08c0.3-1.07,0.36-2.21,0.81-3.24
		c0.44-1,1.11-1.73,2.33-1.66C471.04,278.94,470.77,279.53,471.02,280.07z"/>
	<path style="fill-rule:evenodd;clip-rule:evenodd;fill:#805544;" d="M473.73,268.09c-1.34,0.88-1.65,2.41-2.09,3.74
		c-0.57,1.71-1.02,3.51-0.85,5.37c-1.09,0.5-1.97,1.24-2.62,2.25c-0.18,0.27-0.22,0.71-0.71,0.64c-0.49-0.89-0.62-1.87-0.77-2.84
		c-0.1-0.66,0.29-1.14,0.86-1.44c0.87-0.45,1.29-1.23,1.71-2.06c0.78-1.56,1.48-3.12,1.77-4.88c0.22-1.36,1.64-2.23,3-2.17
		c0.58,0.49,0.16,0.88-0.13,1.29C473.83,268.02,473.78,268.06,473.73,268.09z"/>
	<path style="fill-rule:evenodd;clip-rule:evenodd;fill:#E4B694;" d="M460.94,280.81c-0.21-0.09-0.42-0.19-0.64-0.28
		c-1.03-0.87-0.94-2.06-0.88-3.21c0.09-1.58,0.21-3.17,0.41-4.74c0.18-1.39,0.84-2.57,1.48-3.76c0.38-0.7,0.99-1.12,1.74-1.34
		c0.85,0.51,0.46,1.32,0.15,1.76c-1.28,1.83-1.1,3.93-1.38,5.96c-0.1,0.78,0.05,1.5,0.34,2.21c0.47,1.18-0.07,2.18-0.53,3.19
		C461.51,280.88,461.25,281,460.94,280.81z"/>
	<path style="fill-rule:evenodd;clip-rule:evenodd;fill:#B78762;" d="M465.72,282.51c0.83-0.59,0.96-1.24,0.34-2.12
		c-0.66-0.95-1.34-1.86-0.9-3.27c0.21-0.65-0.36-1.59-0.91-2.25c-0.33-0.4-0.64-0.77-0.06-1.19c0.47-0.34,0.89-0.39,1.38,0.07
		c1.62,1.54,1.71,1.49,2.58-0.64c0.25-0.61,0.73-1.12,1.09-1.68c0.61-0.93,0.62-1.71-0.57-2.18c-0.87-0.34-1.63-0.95-2.71-0.53
		c-0.73,0.28-0.67-0.42-0.69-0.89c-0.17-1.04,0.59-1.51,1.29-1.92c0.83-0.5,1.8-0.71,2.76-0.51c1.2,0.26,2.35,0.14,3.52-0.16
		c0.77-0.2,1.56-0.35,2.29,0.16c0.08,0.11,0.12,0.24,0.11,0.38c-0.04,0.2-0.16,0.34-0.34,0.44c-0.84-0.22-1.66-0.08-2.43,0.25
		c-1.04,0.44-2.08,0.48-3.16,0.19c-0.27-0.07-0.54-0.17-0.82-0.14c-0.57,0.06-1.24,0.19-1.39,0.75c-0.19,0.69,0.6,0.68,1.02,0.91
		c0.17,0.1,0.36,0.16,0.55,0.24c1.92,0.8,2.29,2.15,0.99,3.73c-0.36,0.44-0.63,0.92-0.81,1.45c-0.18,0.39-0.35,0.78-0.55,1.16
		c-0.35,0.64-0.92,0.85-1.6,0.85c-0.61,0-0.81,0.23-0.73,0.89c0.16,1.3,0.26,2.56,1.01,3.75c0.74,1.17,0.18,2.32-0.98,2.47
		C465.91,282.65,465.81,282.58,465.72,282.51z"/>
	<path style="fill-rule:evenodd;clip-rule:evenodd;fill:#94644D;" d="M474.2,266.91c-1.81,0.03-2.79,1.21-3.2,3.17
		c-0.5,2.4-1.29,4.75-3.57,6.16c-0.46,0.29-0.56,0.69-0.46,1.13c0.2,0.91,0.46,1.81,0.7,2.72c0.65,1.12,0.4,2.14-0.34,3.1
		c-0.12,0.1-0.25,0.11-0.38,0.03c-0.08-0.07-0.17-0.13-0.25-0.2c0.54-1.36,0.48-2.63-0.36-3.9c-0.49-0.73-0.37-1.69-0.42-2.56
		c-0.03-0.58,0.37-0.93,0.96-1.03c0.47-0.08,0.96-0.13,1.23-0.61c0.06-0.1,0.11-0.2,0.17-0.3c0.05-0.1,0.1-0.21,0.15-0.31
		c0.03-0.05,0.06-0.1,0.09-0.14c0.14-0.25,0.18-0.55,0.3-0.81c0.17-0.65,0.71-1.05,1.04-1.59c0.92-1.49,0.57-2.55-1.06-3.18
		c-0.26-0.1-0.52-0.2-0.76-0.33c-0.34-0.18-0.57-0.44-0.51-0.86c0.06-0.46,0.38-0.68,0.8-0.76c0.56-0.11,1.14-0.07,1.64,0.14
		c0.78,0.31,1.45,0.15,2.16-0.2c0.73-0.35,1.48-0.74,2.34-0.37c0.07,0.11,0.1,0.23,0.1,0.36
		C474.52,266.74,474.43,266.89,474.2,266.91z"/>
	<path style="fill-rule:evenodd;clip-rule:evenodd;fill:#D7A97E;" d="M471.31,275.52c0.01-0.09,0.01-0.17,0.02-0.26
		c0.16-0.25-0.07-0.65,0.31-0.81c1.03,0.15,0.92,0.99,0.92,1.67c0.01,1.97,0.2,3.9,0.73,5.8c0.04,0.15,0.09,0.3,0.13,0.46
		c0.24,0.91,0.72,1.7,1.73,1.71c0.93,0.01,1.1-0.89,1.35-1.6c0.04-0.03,0.08-0.03,0.12,0.01c0.62,0.22,0.5,0.72,0.41,1.18
		c-0.07,0.35-0.2,0.68-0.03,1.03c0.29,1.6,0.82,3.12,1.71,4.49c-0.2,0.41-0.58,0.4-0.77,0.14c-0.65-0.84-1.39-0.61-2.16-0.31
		l0.04-0.02c-0.07-0.14-0.17-0.23-0.33-0.26c-0.06-0.08-0.12-0.17-0.18-0.25c0.23-0.62,0.06-1.16-0.33-1.67
		c-0.32-0.4-0.7-0.77-0.85-1.28c-0.07-0.38-0.29-0.67-0.56-0.94c-0.08-0.08-0.15-0.17-0.21-0.25c-0.79-1.06-0.7-2.46-1.39-3.55
		c-0.04-0.05-0.04-0.1,0.01-0.15c0-0.12-0.1-0.2-0.14-0.31c-0.03-0.16-0.06-0.32-0.09-0.47c-0.13-0.64,0.26-1.34-0.21-1.94
		c-0.01-0.15-0.02-0.3-0.03-0.44c-0.08-0.11-0.08-0.22-0.01-0.33c-0.04-0.04-0.04-0.09-0.01-0.13
		C471.42,276.52,471.72,275.98,471.31,275.52z"/>
	<path style="fill-rule:evenodd;clip-rule:evenodd;fill:#C89B6B;" d="M487.56,283.92c-1.03,2.24-2.95,3.75-4.57,5.5
		c-0.08,0.01-0.15,0.05-0.2,0.1c-0.09,0.03-0.16,0.08-0.2,0.17l-0.02,0.01c-0.1,0.07-0.19,0.16-0.32,0.19
		c-0.22,0.01-0.43,0.02-0.65,0.03c-0.79-0.1-0.81-0.67-0.71-1.25c0.17-1.03,0.72-1.86,1.62-2.39c1.23-0.72,2.5-1.39,3.64-2.26
		C486.56,283.72,487.06,283.47,487.56,283.92z"/>
	<path style="fill-rule:evenodd;clip-rule:evenodd;fill:#D8A984;" d="M460.94,280.81c0.81-0.91,1.27-1.91,0.94-3.16
		c-0.71-2.74-0.54-5.4,0.78-7.94c0.35-0.67,0.65-1.34,0.43-2.13c-0.08-0.28,0.06-0.47,0.25-0.65c0.41-0.25,0.79-0.65,1.34-0.34
		c0.44,0.42,0.26,0.86,0.06,1.31c-0.37,0.84-0.86,1.61-1.35,2.38c-0.17,0.27-0.45,0.54-0.46,0.82c-0.08,2.32-1.18,4.69,0.35,6.92
		c0.45,0.66,0.47,1.23-0.33,1.68c-0.38,0.21-0.64,0.59-0.56,1.08c0.08,0.18,0.15,0.36,0.23,0.54c-0.16-0.04-0.32-0.09-0.48-0.13
		c-0.09-0.05-0.19-0.09-0.28-0.13C461.53,281.07,461.2,281.07,460.94,280.81z"/>
	<path style="fill-rule:evenodd;clip-rule:evenodd;fill:#EDD0B8;" d="M476.51,282.48c0.3,1.01-0.27,1.68-1.05,2.03
		c-0.74,0.33-1.27-0.36-1.67-0.88c-0.92-1.18-1.07-2.64-1.28-4.05c-0.19-1.25-0.19-2.54-0.26-3.81c-0.03-0.54-0.1-1.04-0.68-1.28
		c-0.1-0.02-0.14-0.05-0.13-0.11c0.02-0.06,0.04-0.09,0.06-0.09c0.39-1.1,0.21-2.37,0.96-3.36c0.18,1.61,0.63,3.19,0.75,4.77
		c0.1,1.4-0.44,2.85-0.02,4.3c0.14,0.49,0.17,1.02,0.3,1.51c0.22,0.83,0.3,1.83,1.3,2.1C475.68,283.87,475.9,282.83,476.51,282.48z"
		/>
	<path style="fill-rule:evenodd;clip-rule:evenodd;fill:#DDB28D;" d="M479.16,288.74c-1.09-1.42-1.43-3.14-1.92-4.81
		c-0.57-1.74-0.56-3.55-0.6-5.35c0-0.16,0.11-0.29,0.22-0.4c0.78-0.38,0.88,0.21,0.98,0.73c0.28,1.49,0.37,3,0.72,4.48
		c0.09,0.39,0.2,0.77,0.32,1.15c0.24,0.77,0.73,0.94,1.48,0.76c0.93-0.22,1.73-0.82,2.72-0.82c0.57,0.54-0.05,0.73-0.33,0.93
		c-0.48,0.34-1.08,0.49-1.56,0.86c-0.77,0.58-1.51,1.16-1.64,2.22C479.52,288.67,479.45,288.88,479.16,288.74z"/>
	<path style="fill-rule:evenodd;clip-rule:evenodd;fill:#D0A376;" d="M487.56,283.92c-0.35,0.01-0.71-0.03-1.02,0.23
		c-1.25,1.05-2.75,1.71-4.1,2.6c-1.24,0.82-1.58,2.23-0.84,3.17l0,0c-0.07,0.07-0.14,0.12-0.23,0.16c-1.03,0.55-1.54-0.03-1.92-0.88
		c0.08-0.08,0.14-0.18,0.19-0.28c0.41-2.43,2.44-3.28,4.25-4.3c1.08-0.61,2.03-1.38,2.96-2.18c0.48-0.42,0.92-0.91,1.66-0.66
		C488.34,282.54,488.06,283.28,487.56,283.92z"/>
	<path style="fill-rule:evenodd;clip-rule:evenodd;fill:#3F403A;" d="M477.06,278.16c-0.24,1.46,0.05,2.91,0.09,4.37
		c0.01,0.47,0.07,0.94,0.1,1.4c-0.08,0.26-0.16,0.52-0.23,0.77c-0.46-0.68,0.07-1.53-0.38-2.21c-0.04-0.24-0.07-0.49-0.11-0.73
		c-0.29-0.45-0.32-0.93-0.24-1.44c0.11-0.39,0.2-0.79-0.06-1.17c-0.1-0.24-0.12-0.49-0.09-0.75c-0.06-2.29,0.61-4.53,0.55-6.82
		c0.01-0.32,0.01-0.64,0.01-0.96c-0.06-2.14,1.4-3.41,2.7-4.77c0.59-0.44,0.94-1.15,1.64-1.46c0.18,0.03,0.3,0.14,0.39,0.29
		c-0.01,0.73-0.62,1.12-0.95,1.68c-0.06,0.09-0.13,0.17-0.19,0.25c-0.06,0.09-0.12,0.17-0.19,0.26c-0.46,0.64-1.25,0.95-1.65,1.66
		c-0.09,0.13-0.18,0.25-0.27,0.38c-0.08,0.13-0.15,0.27-0.21,0.42c-0.19,0.42-0.13,0.86-0.12,1.31c0,0.19,0.01,0.37,0.03,0.56
		c0,0.88,0.06,1.77-0.09,2.64c-0.22,0.97-0.29,1.96-0.37,2.95C477.38,277.28,477.41,277.77,477.06,278.16z"/>
	<path style="fill-rule:evenodd;clip-rule:evenodd;fill:#D5AD85;" d="M488.52,281.76c-2.36,1.7-4.8,3.3-7.28,4.82
		c-0.94,0.58-0.87,1.84-1.56,2.62c-0.09-0.1-0.21-0.16-0.33-0.22c-0.06-0.08-0.13-0.16-0.19-0.24c0.1-1.82,1.45-2.59,2.82-3.3
		c0.46-0.24,0.92-0.44,1.29-0.8c0.04-0.16,0.1-0.31,0.24-0.4c1.58-1.06,2.96-2.35,4.3-3.69c0.37-0.37,0.85-0.68,1.25,0.02
		C489.1,281.07,488.8,281.41,488.52,281.76z"/>
	<path style="fill-rule:evenodd;clip-rule:evenodd;fill:#EDD0B8;" d="M476.6,280.07c-0.03,0.57-0.05,1.13-0.08,1.7
		c-0.99-0.38-0.75-1.37-0.84-2.06c-0.13-0.95-0.23-1.9-0.58-2.77c-0.52-1.29,0.48-2.25,0.64-3.4c0.22-1.58-0.11-3.08-0.18-4.61
		c-0.03-0.63-0.57-0.72-1.08-0.48c-0.32,0.15-0.59,0.4-0.98,0.37c0.08-0.24,0.15-0.48,0.23-0.72l-0.04,0.01
		c0.21-0.36,0.45-0.69,0.93-0.68c1.04,0.08,1.61,0.6,1.56,1.69c-0.02,0.53,0.17,1.02,0.29,1.52c0.27,1.14,0.33,2.28,0.01,3.42
		c-0.44,1.55-0.42,3.11-0.12,4.67c0.07,0.13,0.13,0.27,0.2,0.4C476.76,279.43,476.7,279.75,476.6,280.07z"/>
	<path style="fill-rule:evenodd;clip-rule:evenodd;fill:#403F3C;" d="M463.39,267.17c-0.1,0.14-0.2,0.28-0.29,0.42
		c-1.69,1.04-2.53,2.72-2.78,4.52c-0.39,2.78-1.2,5.62-0.01,8.43c-0.2,0-0.4,0-0.6,0c-0.91-0.84-0.96-1.95-0.91-3.08
		c0.06-1.31,0.37-2.6,0.39-3.92c0.21-2.43,1.01-4.59,2.92-6.23c0.3-0.26,0.58-0.56,1.03-0.55
		C463.33,266.82,463.47,266.92,463.39,267.17z"/>
	<path style="fill-rule:evenodd;clip-rule:evenodd;fill:#E5B999;" d="M467.95,290.57c-0.05-0.67-0.13-1.34-0.13-2.01
		c0-0.24,0.13-0.63,0.3-0.69c0.29-0.11,0.41,0.25,0.57,0.47c0.3,0.4,0.43,0.84,0.54,1.31c0.35,1.53,1.24,2.81,2.05,4.12
		c-1.33,0.27-3.13-1.16-3.27-2.61C468,290.95,468.04,290.76,467.95,290.57z"/>
	<path style="fill-rule:evenodd;clip-rule:evenodd;fill:#80483A;" d="M467.19,283.2c0.48-0.99,0.56-2.04,0.48-3.12
		c0.12-1.64,1.7-2.08,2.56-3.12c0.23-0.28,0.35,0.18,0.55,0.24c0,0.24,0.01,0.47,0.01,0.71c0.14,0.16,0.14,0.33-0.01,0.48
		c-1.57,0.63-2.29,1.82-2.41,3.47c-0.04,0.54-0.3,1.05-0.47,1.58C467.6,283.56,467.41,283.34,467.19,283.2z"/>
	<path style="fill-rule:evenodd;clip-rule:evenodd;fill:#8B4838;" d="M470.81,286.81c0.8,0.16,1.6,0.31,2.39,0.47
		c0.23-0.08,0.29,0.05,0.31,0.24c-0.51,0.8-1.24,1.48-1.34,2.5c-1.39,0.3-1.79,0.12-2.32-1.05c-0.02-0.08-0.03-0.15-0.04-0.23
		C469.87,287.95,470.86,287.65,470.81,286.81z"/>
	<path style="fill-rule:evenodd;clip-rule:evenodd;fill:#4C4646;" d="M462.64,282.46c-2.69,0.02-6.05,2.2-6.98,4.51
		c-0.05,0.13-0.11,0.27-0.15,0.4c-0.04,0.14-0.08,0.28-0.15,0.42c-0.13,0.27-0.27,0.54-0.39,0.82c-0.08,0.2-0.16,0.4-0.23,0.6
		c-0.2,0.47-0.36,0.99-0.98,1.08c-0.12-0.01-0.22-0.06-0.3-0.15c0.07-1.43,0.95-2.54,1.5-3.78c0.38-0.52,0.85-0.97,1.21-1.51
		c0.1-0.12,0.2-0.24,0.31-0.35c0.07-0.08,0.14-0.15,0.21-0.22c0.03-0.04,0.07-0.07,0.11-0.1c0.25-0.23,0.5-0.47,0.79-0.65
		c0.12-0.08,0.24-0.14,0.37-0.21c0.08-0.04,0.16-0.08,0.25-0.12c0.16-0.07,0.33-0.15,0.48-0.23c0.12-0.08,0.23-0.15,0.34-0.23
		c0.13-0.06,0.26-0.13,0.4-0.16c0.25-0.17,0.56-0.2,0.83-0.33l0.01,0.02c0.23-0.44,0.78-0.41,1.1-0.71
		C461.79,281.86,462.22,282.16,462.64,282.46z"/>
	<path style="fill-rule:evenodd;clip-rule:evenodd;fill:#D8A586;" d="M459.47,273.36c-0.08,1.11-0.1,2.23-0.26,3.32
		c-0.2,1.34-0.02,2.61,0.49,3.85c-0.13,0-0.27,0-0.4-0.01c-0.09-0.08-0.18-0.17-0.26-0.26c-0.14-0.19-0.21-0.45-0.37-0.61
		c-1.42-1.49-1.16-3.1-0.37-4.75c0.19-0.35,0.21-0.76,0.4-1.1C458.87,273.5,458.99,273.1,459.47,273.36z"/>
	<path style="fill-rule:evenodd;clip-rule:evenodd;fill:#78392E;" d="M472.24,289.93c-0.69-1.34,0.52-1.74,1.2-2.4
		c0.7,0.58,1.21,1.29,1.58,2.12c0,0.27-0.22,0.38-0.4,0.52c-0.79,0.05-1.57,0.51-2.36,0C472.11,290.1,472.1,290.02,472.24,289.93z"
		/>
	<path style="fill-rule:evenodd;clip-rule:evenodd;fill:#A77355;" d="M468.4,274.56c-0.07,0.61-0.47,0.89-1.03,1
		c-1.16,0.23-1.34,0.9-1.18,2.01c0.19,1.27,1.07,2.31,1.02,3.65c-0.02,0.66-0.1,1.26-0.52,1.78c-0.23-0.09-0.47-0.19-0.7-0.28
		c1.18-0.63,1.31-1.66,0.58-2.55c-1.05-1.28-0.7-2.79-1.01-4.18c-0.14-0.62,0.48-0.75,0.98-0.7c0.7,0.07,1.24-0.13,1.61-0.73
		C468.24,274.48,468.32,274.48,468.4,274.56z"/>
	<path style="fill-rule:evenodd;clip-rule:evenodd;fill:#E0B38E;" d="M475.79,289.02c0.77-0.89,1.51-1.09,2.22,0.06
		c0.18,0.29,0.45,0.25,0.72,0.11c0.49,0.45,0.16,0.74-0.19,1.04c-0.33,0.28-0.64,0.62-1.12,0.27
		C476.82,290.07,476.13,289.73,475.79,289.02z"/>
	<path style="fill-rule:evenodd;clip-rule:evenodd;fill:#CA9D6E;" d="M474.4,285.36c0.13,0.79,0.94,1.14,1.22,1.83
		c0.21,0.52,0.53,1.04-0.3,1.3c-1.11-1.18-1.88-2.54-2.35-4.09c0.24-0.22,0.48-0.17,0.71,0l0,0
		C473.9,284.74,474.18,285.03,474.4,285.36z"/>
	<path style="fill-rule:evenodd;clip-rule:evenodd;fill:#B2895A;" d="M465.1,291.12c-0.05-0.86,0.42-1.51,0.89-2.15
		c0.09-0.1,0.29-0.11,0.26-0.31c0-0.05,0.01-0.11,0.03-0.16c0.58-0.25,1.05-0.35,0.93,0.58c-0.05,0.42,0.01,0.86,0.03,1.29
		C466.77,291.3,466.07,291.59,465.1,291.12z"/>
	<path style="fill-rule:evenodd;clip-rule:evenodd;fill:#C6A379;" d="M465.1,291.12c0.81,0.03,1.51-0.28,2.14-0.76
		c0.15,0.25,0.31,0.5,0.46,0.74c0.07,0.1,0.09,0.21,0.04,0.33c-0.72,0.75-1.77,0.86-2.63,1.35c-0.38,0.22-0.7,0.04-0.73-0.45
		c0.13-0.24,0.26-0.48,0.39-0.71c0.18,0,0.18-0.18,0.27-0.27C465.06,291.28,465.08,291.2,465.1,291.12z"/>
	<path style="fill-rule:evenodd;clip-rule:evenodd;fill:#4A4251;" d="M467.66,291.37c0.01-0.09,0.02-0.17,0.03-0.26
		c0.09-0.18,0.17-0.35,0.26-0.53c0.64,1.55,1.36,3.03,3.34,3.19l-0.01-0.01c0.08,0.14,0.17,0.11,0.26,0c0.54,0.23,0.24,0.46,0,0.69
		c-1.01-0.27-1.97-0.63-2.73-1.39c-0.15-0.16-0.31-0.32-0.46-0.48c-0.16-0.2-0.46-0.23-0.58-0.47
		C467.64,291.87,467.55,291.63,467.66,291.37z"/>
	<path style="fill-rule:evenodd;clip-rule:evenodd;fill:#D4A97D;" d="M473.68,284.4c-0.24,0-0.48,0-0.71,0
		c-0.42-1.18-0.98-2.31-1-3.6c0.74,0.16,0.58,0.83,0.77,1.31C473.04,282.88,473.36,283.64,473.68,284.4z"/>
	<path style="fill-rule:evenodd;clip-rule:evenodd;fill:#62524B;" d="M474.89,289.67c-0.48-0.71-0.97-1.43-1.45-2.14
		c-0.08-0.08-0.15-0.17-0.23-0.25c-0.14-0.95-0.99-1.63-0.97-2.64c1.02,1.69,1.83,3.52,3.14,5.03
		C475.21,289.8,475.05,289.83,474.89,289.67z"/>
	<path style="fill-rule:evenodd;clip-rule:evenodd;fill:#906759;" d="M459.26,280.33c0.01,0.07,0.03,0.13,0.04,0.19
		c-0.56,0.09-1.07-0.01-1.48-0.44c-0.15-0.56-0.3-1.13-0.45-1.69C458.52,278.53,458.58,279.73,459.26,280.33z"/>
	<path style="fill-rule:evenodd;clip-rule:evenodd;fill:#68564E;" d="M467.19,283.2c0.24,0.08,0.48,0.17,0.72,0.25
		c0.36,0.73,1.31,1.01,1.45,1.92c-0.8-0.72-1.6-1.44-2.41-2.16C467.03,283.2,467.11,283.19,467.19,283.2z"/>
	<path style="fill-rule:evenodd;clip-rule:evenodd;fill:#795D51;" d="M472.24,289.93c0.01,0.08,0.01,0.16,0.02,0.24
		c-1.1,0.2-2.22,0.43-2.4-1.2C470.4,289.92,471.23,290.15,472.24,289.93z"/>
	<path style="fill-rule:evenodd;clip-rule:evenodd;fill:#D4A97D;" d="M471.53,277.92c0.93,0.55,0.4,1.27,0.21,1.94
		C471.34,279.25,471.58,278.57,471.53,277.92z"/>
	<path style="fill-rule:evenodd;clip-rule:evenodd;fill:#68564E;" d="M470.81,286.81c0.19,0.91-0.62,1.31-0.99,1.93
		c-0.46-0.46-0.05-0.66,0.26-0.89c0.48-0.36,0.61-0.77,0.23-1.29C470.48,286.65,470.65,286.73,470.81,286.81z"/>
	<path style="fill-rule:evenodd;clip-rule:evenodd;fill:#D1A476;" d="M461.37,281.56c-0.05,0.72-0.68,0.56-1.1,0.71
		c-0.01-0.25-0.02-0.49-0.03-0.74C460.62,281.55,460.99,281.56,461.37,281.56z"/>
	<path style="fill-rule:evenodd;clip-rule:evenodd;fill:#D4A97D;" d="M471.31,275.52c0.77,0.41,0.61,0.94,0.18,1.49
		C471.16,276.55,471.29,276.03,471.31,275.52z"/>
	<path style="fill-rule:evenodd;clip-rule:evenodd;fill:#68564E;" d="M469.36,285.36c0.32,0.4,0.64,0.81,0.96,1.21
		C469.02,286.95,469.8,285.66,469.36,285.36z"/>
	<path style="fill-rule:evenodd;clip-rule:evenodd;fill:#E3E5E9;" d="M477,291.13c0.07,0.1,0.2,0.2,0.18,0.29
		c-0.07,0.37-0.17,0.73-0.28,1.1c0,0.01-0.29-0.05-0.29-0.07c0.04-0.34,0.1-0.69,0.15-1.03C476.67,291.18,476.77,291.1,477,291.13z"
		/>
	<path style="fill-rule:evenodd;clip-rule:evenodd;fill:#805544;" d="M470.79,278.4c0-0.16,0.01-0.32,0.01-0.48
		c0.44,0.68,0.14,1.44,0.22,2.15C470.6,279.56,470.89,278.95,470.79,278.4z"/>
	<path style="fill-rule:evenodd;clip-rule:evenodd;fill:#93624F;" d="M474.89,289.67c0.16,0,0.32,0,0.49,0
		c0.1,0.11,0.29,0.29,0.27,0.32c-0.27,0.42-0.68,0.1-1.02,0.17C474.71,290,474.8,289.83,474.89,289.67z"/>
	<path style="fill-rule:evenodd;clip-rule:evenodd;fill:#C7CEDD;" d="M477,291.13c-0.08,0.1-0.16,0.19-0.23,0.29
		c-0.02-0.03-0.06-0.06-0.07-0.09c-0.11-0.34-0.91-0.34-0.54-0.8C476.31,290.33,476.75,290.85,477,291.13z"/>
	<path style="fill-rule:evenodd;clip-rule:evenodd;fill:#43433F;" d="M457.17,281.06c-0.38,0.27-0.81,0.22-1.24,0.19
		C456.3,280.9,456.74,281.07,457.17,281.06z"/>
	<path style="fill-rule:evenodd;clip-rule:evenodd;fill:#D4A97D;" d="M471.5,274.3c0.04,0.06,0.06,0.13,0.06,0.2
		c-0.08,0.25-0.16,0.51-0.24,0.76C471.39,274.94,471.45,274.62,471.5,274.3z"/>
	<path style="fill-rule:evenodd;clip-rule:evenodd;fill:#62524B;" d="M472.24,284.64c-0.28-0.18-0.24-0.46-0.24-0.73
		C472.27,284.1,472.23,284.38,472.24,284.64z"/>
	<path style="fill-rule:evenodd;clip-rule:evenodd;fill:#43433F;" d="M455.7,281.29c-0.2,0.23-0.46,0.25-0.73,0.19
		C455.17,281.24,455.44,281.27,455.7,281.29z"/>
	<path style="fill-rule:evenodd;clip-rule:evenodd;fill:#43433F;" d="M458.11,281.05c-0.18,0.27-0.37,0.16-0.57,0.02
		C457.73,281.06,457.92,281.06,458.11,281.05z"/>
	<path style="fill-rule:evenodd;clip-rule:evenodd;fill:#EDD0B8;" d="M472.71,270.46c0.02,0.22-0.03,0.4-0.25,0.49
		C472.54,270.79,472.62,270.62,472.71,270.46z"/>
	<path style="fill-rule:evenodd;clip-rule:evenodd;fill:#3F403A;" d="M482.56,290.6c-0.21,0.04-0.41,0.03-0.54-0.18
		C482.2,290.49,482.38,290.54,482.56,290.6z"/>
	<path style="fill-rule:evenodd;clip-rule:evenodd;fill:#3F403A;" d="M483.04,289.92c-0.01,0.16-0.02,0.32-0.04,0.48
		C482.79,290.22,482.81,290.06,483.04,289.92z"/>
	<path style="fill-rule:evenodd;clip-rule:evenodd;fill:#E5B999;" d="M471.54,293.75c-0.07,0.06-0.13,0.11-0.2,0.17
		c-0.02-0.06-0.04-0.12-0.07-0.18C471.36,293.75,471.45,293.75,471.54,293.75z"/>
	<path style="fill-rule:evenodd;clip-rule:evenodd;fill:#D4A97D;" d="M471.5,277.15c0,0.11,0,0.22,0.01,0.33
		C471.5,277.37,471.5,277.26,471.5,277.15z"/>
	<path style="fill-rule:evenodd;clip-rule:evenodd;fill:#C7996A;" d="M461.87,281.07c0.09,0.04,0.19,0.09,0.28,0.13
		C462.05,281.16,461.96,281.12,461.87,281.07z"/>
	<path style="fill-rule:evenodd;clip-rule:evenodd;fill:#504453;" d="M473.68,295.14c-0.1-0.05-0.21-0.09-0.31-0.14
		C473.47,295.05,473.58,295.1,473.68,295.14z"/>
	<path style="fill-rule:evenodd;clip-rule:evenodd;fill:#D4A97D;" d="M471.84,280.33c0.05,0.1,0.09,0.21,0.14,0.31
		C471.93,280.54,471.88,280.44,471.84,280.33z"/>
	<path style="fill-rule:evenodd;clip-rule:evenodd;fill:#E0B38E;" d="M475.5,288.74c0.11,0.09,0.22,0.17,0.33,0.26
		C475.72,288.91,475.61,288.82,475.5,288.74z"/>
	<path style="fill-rule:evenodd;clip-rule:evenodd;fill:#DDB28D;" d="M479.35,288.98c0.11,0.07,0.22,0.14,0.33,0.22l-0.11,0l-0.11,0
		C479.42,289.13,479.39,289.05,479.35,288.98z"/>
	<path style="fill-rule:evenodd;clip-rule:evenodd;fill:#3F403A;" d="M482.59,289.69c0.07-0.06,0.13-0.11,0.2-0.17
		C482.72,289.58,482.66,289.63,482.59,289.69z"/>
	<path style="fill-rule:evenodd;clip-rule:evenodd;fill:#3F403A;" d="M482.25,289.89c0.11-0.06,0.21-0.13,0.32-0.19
		C482.46,289.77,482.35,289.83,482.25,289.89z"/>
	<path style="fill-rule:evenodd;clip-rule:evenodd;fill:#3F403A;" d="M483.22,289.68c-0.06,0.08-0.12,0.15-0.18,0.23
		C483.1,289.84,483.16,289.76,483.22,289.68z"/>
	<path style="fill-rule:evenodd;clip-rule:evenodd;fill:#C89B6B;" d="M481.37,290.08c0.08-0.05,0.15-0.11,0.23-0.16
		C481.52,289.97,481.45,290.03,481.37,290.08z"/>
	<path style="fill-rule:evenodd;clip-rule:evenodd;fill:#B38552;" d="M471.05,311.27c-1.13-0.37-2.31-0.66-3.07-1.7
		c0.07-0.67,0.51-0.71,1.04-0.63c1.32,0.2,2.61-0.01,3.91-0.22c0.48-0.08,0.93-0.24,1.3-0.56c0.78-0.7,1.64-1.25,2.65-1.57
		c0.56-0.18,0.94-0.58,1.23-1.07c0.8-1.36,2.04-1.67,3.5-1.47c0.28,0.04,0.56,0.08,0.81,0.19c2.02,0.89,3.99,0.89,5.94-0.19
		c0.15,0.25,0.3,0.51,0.44,0.77c-0.75,1.16-2.01,1.44-3.18,1.46c-2.38,0.04-4.48,0.63-6.56,1.85c-1.32,0.77-2.77,1.28-3.82,2.49
		c-0.39,0.45-1.02,0.61-1.55,0.88C472.79,311.71,471.94,311.19,471.05,311.27z"/>
	<path style="fill-rule:evenodd;clip-rule:evenodd;fill:#A26C3B;" d="M489.57,305.74c1.12,0.91,2.6,1.44,3.19,2.93
		c0.09,0.22,0.32,0.53,0.25,0.63c-0.19,0.27-0.38-0.08-0.58-0.14c-3.11-0.92-6.34-0.74-9.27,0.18c-2.11,0.66-4.16,1.64-6.37,2.1
		c-0.44-0.74,0.14-1.12,0.58-1.47c1-0.81,2.17-1.35,3.36-1.82c2.68-1.04,5.49-1.69,8.25-2.46
		C489.19,305.63,489.38,305.64,489.57,305.74z"/>
	<path style="fill-rule:evenodd;clip-rule:evenodd;fill:#AC7B48;" d="M489.57,305.74c-2.65,0.81-5.3,1.62-7.95,2.45
		c-1.41,0.44-2.71,1.12-3.94,1.94c-0.46,0.31-0.92,0.65-0.88,1.31c-1.04,0.02-2.07,0.03-3.11,0.05c1.63-1.1,2.72-2.8,4.81-3.48
		c1.88-0.61,3.5-2.11,5.64-1.99c1.71,0.1,3.2-0.43,4.65-1.21C489.14,305.05,489.46,305.31,489.57,305.74z"/>
	<path style="fill-rule:evenodd;clip-rule:evenodd;fill:#C09361;" d="M488.35,304.05c-1.17,1.2-2.59,1.46-4.16,1.08
		c-0.81-0.2-1.59-0.52-2.4-0.69c-1.48-0.31-2.79-0.11-3.51,1.47c-0.08,0.18-0.18,0.41-0.33,0.48c-2.85,1.4-5.4,3.76-8.96,2.87
		c-0.48-0.12-0.75-0.02-1.01,0.32c-0.18-0.23-0.36-0.46-0.54-0.7c-0.07-0.08-0.14-0.15-0.21-0.24c-0.17-0.24-0.33-0.48-0.5-0.71
		c0.45-0.42,0.92-0.15,1.35,0c2.39,0.81,4.51,0.4,6.5-1.17c1.19-0.93,2.43-1.8,3.55-2.83c0.86-0.79,1.94-1.02,3.13-0.75
		c0.94,0.21,1.8,0.67,2.75,0.83c1.11,0.38,2.2,0.62,3.26-0.19c0.25-0.19,0.6-0.22,0.89,0.01
		C488.22,303.9,488.29,303.97,488.35,304.05z"/>
	<path style="fill-rule:evenodd;clip-rule:evenodd;fill:#CFA579;" d="M488.16,303.82c-1.34,0.56-2.64,1.43-4.16,0.5
		c-0.88-0.36-1.72-0.79-2.66-1c-1.3-0.3-2.47-0.1-3.42,0.81c-1.12,1.08-2.39,1.96-3.61,2.9c-1.59,1.21-3.38,1.72-5.36,1.35
		c-0.42-0.08-0.96-0.11-1.04-0.74c0.36-0.3,0.76-0.13,1.14-0.07c1.81,0.28,3.35-0.27,4.69-1.5c0.94-0.86,1.95-1.63,2.89-2.49
		c1.49-1.38,3.15-1.71,5.05-1.06c0.79,0.14,1.52,0.44,2.23,0.8c1.15,0.59,2.25,0.74,3.27-0.28c0.11-0.12,0.28-0.15,0.44-0.16
		c0.08,0.15,0.17,0.31,0.25,0.46c0.07,0.07,0.13,0.16,0.17,0.25C488.07,303.67,488.11,303.75,488.16,303.82z"/>
	<path style="fill-rule:evenodd;clip-rule:evenodd;fill:#C09361;" d="M488.02,303.59c-0.05-0.08-0.11-0.17-0.17-0.25
		c0.06,0.02,0.12,0.03,0.18,0.04C488.04,303.45,488.04,303.52,488.02,303.59z"/>
	<path style="fill-rule:evenodd;clip-rule:evenodd;fill:#CA9D6D;" d="M446.33,301.16c0.18-1.37-0.48-2.59-0.84-3.82
		c-0.48-1.63-0.43-3.14,0.14-4.66c0.86-2.32,1.37-4.83,3.33-6.6c0.13,0.1,0.16,0.25,0.14,0.41c-0.03,0.1-0.07,0.2-0.12,0.29
		c-0.05,0.09-0.11,0.18-0.17,0.27c-0.03,0.05-0.06,0.09-0.08,0.14c-0.05,0.1-0.11,0.2-0.17,0.29c-1.01,1.95-2.01,3.96-2.37,6.1
		c-0.69,4.08,0.64,7.51,3.84,10.2c0.78,0.65,1.87,0.95,2.31,2c-0.3,0.75-0.66,1.49-0.52,2.33c-0.86-2.02-2.23-3.62-3.95-4.98
		c-0.54-0.43-0.88-1.1-1.32-1.67c-0.07-0.09-0.14-0.18-0.2-0.27L446.33,301.16z"/>
	<path style="fill-rule:evenodd;clip-rule:evenodd;fill:#736765;" d="M451.83,309.14c0,0.24,0.06,0.51-0.22,0.66
		C451.62,309.56,451.54,309.29,451.83,309.14z"/>
	<path style="fill-rule:evenodd;clip-rule:evenodd;fill:#C69764;" d="M446.35,301.19c0.07,0.09,0.14,0.18,0.2,0.27
		C446.48,301.38,446.42,301.28,446.35,301.19z"/>
	<path style="fill-rule:evenodd;clip-rule:evenodd;fill:#DEA46B;" d="M454.52,288.97c0.08-0.16,0.16-0.32,0.24-0.48
		c1.71,0.24,3.37-0.33,5.06-0.35c1.61-0.02,3,0.75,4.41,1.42c0.25,0.12,0.48,0.31,0.38,0.66c0.02,0.62-0.33,1.01-0.79,1.35
		c-0.77,0.57-1.53,1.16-2.29,1.74c-0.68,0.35-1.38,0.36-2.09,0.11c-0.23-0.08-0.46-0.19-0.69-0.19
		C455.95,293.17,455.18,291.13,454.52,288.97z"/>
	<path style="fill-rule:evenodd;clip-rule:evenodd;fill:#DFBA99;" d="M467.66,291.37c0.09,0.23,0.18,0.47,0.26,0.7
		c-0.1,0.38-0.42,0.41-0.74,0.5c-2.67,0.76-3.35,2.52-1.83,4.78c0.58,0.86,0.81,1.76,0.84,2.81c0.06,1.88,0.33,3.74,1.26,5.43
		c0.06,0.08,0.13,0.17,0.19,0.26c0.03,0.04,0.06,0.08,0.09,0.12c0.06,0.07,0.12,0.16,0.18,0.23c0.03,0.04,0.06,0.07,0.09,0.11
		c0.06,0.06,0.13,0.13,0.19,0.19c0.03,0.03,0.07,0.06,0.1,0.09c0.11,0.07,0.22,0.14,0.35,0.19c0.09,0.03,0.17,0.06,0.25,0.09
		c0.18,0.07,0.36,0.09,0.54,0.09c0.2,0,0.39,0,0.59,0c0.27,0.01,0.5-0.1,0.74-0.21c0.1-0.04,0.21-0.08,0.31-0.13
		c0.86-0.45,1.37-1.22,1.84-2c0.91-1.53,2.27-2.54,3.74-3.45c0.78-0.48,1.65-0.67,2.53-0.48c1.41,0.3,2.72,0.91,3.98,1.59
		c0.23,0.12,0.5,0.3,0.33,0.66c-0.72,0.29-1.26-0.42-1.95-0.33c-2.31-0.92-4.17-0.1-5.84,1.49c-0.89,0.85-1.74,1.75-2.68,2.56
		c-1.56,1.35-3.28,1.43-5.12,0.75c-0.94-0.34-1.43-1.14-1.8-1.98c-0.74-1.65-1.23-3.36-1.16-5.2c0.04-0.86-0.11-1.64-0.65-2.35
		c-0.6-0.78-0.79-1.73-0.93-2.68c0.06-0.32,0.12-0.65,0.19-0.97c0.27-0.63,0.54-1.26,0.82-1.89c0.33,0.48,0.63,0.2,1,0.02
		C466.12,291.99,466.9,291.69,467.66,291.37z"/>
	<path style="fill-rule:evenodd;clip-rule:evenodd;fill:#F3E3D6;" d="M454.28,302.4c-0.27,0.24-0.52,0.89-0.8,0.01
		c-0.58-0.94-0.62-2.02-0.77-3.07c0.07-2.64,3.2-4.85,5.55-3.91c0.34,0.14,0.81,0.18,0.79,0.74l0,0c-0.1,0.07-0.18,0.15-0.24,0.26
		l0.01-0.01c-0.11,0.05-0.18,0.15-0.26,0.23C456.75,298.27,455.2,300.1,454.28,302.4z"/>
	<path style="fill-rule:evenodd;clip-rule:evenodd;fill:#CB9662;" d="M464.61,290.22c-2.13-1.25-4.32-2.28-6.88-1.47
		c-1.05,0.34-2.02,0.26-2.98-0.26c0.17-0.32,0.33-0.65,0.5-0.97c0.04-0.09,0.11-0.16,0.18-0.22c0.07-0.11,0.15-0.21,0.22-0.32
		c0.26,1.09,1,0.71,1.59,0.46c2.86-1.2,5.22,0.07,7.55,1.49c0.13,0.08,0.16,0.35,0.23,0.53C464.9,289.7,464.76,289.96,464.61,290.22
		z"/>
	<path style="fill-rule:evenodd;clip-rule:evenodd;fill:#E2AF7E;" d="M454.52,288.97c0.57,0.7,1.09,1.4,1.3,2.34
		c0.17,0.75,0.74,1.21,1.65,1.28c1.37,0.09,2.63,0.87,4.06,0.71c-0.42,0.48-0.85,0.96-1.27,1.44c-1.44-0.43-2.92-0.65-4.41-0.86
		c-1.43-0.2-2.29-1-2.48-2.46c0-0.47,0.04-0.92,0.44-1.23C454.22,289.88,454.33,289.4,454.52,288.97z"/>
	<path style="fill-rule:evenodd;clip-rule:evenodd;fill:#EFD2B9;" d="M459.05,296.17c-2.75-1.43-5.86,0.2-6.04,3.16
		c-0.67-0.22-0.52-0.81-0.54-1.29c-0.03-0.59-0.04-1.19,0.05-1.78c0.14-0.96,0.77-1.37,1.64-1.65c1.61-0.51,3.19-0.68,4.79-0.06
		c0.34,0.13,0.83,0.12,0.82,0.68C459.67,295.65,459.39,295.93,459.05,296.17z"/>
	<path style="fill-rule:evenodd;clip-rule:evenodd;fill:#E8BD96;" d="M459.78,295.23c-2.12-1.1-4.23-0.74-6.36-0.01
		c-0.51,0.17-0.24,0.72-0.58,0.95c-0.25-0.16-0.31-0.41-0.33-0.68c0.13-1.07,0.37-2.12,0.5-3.19c0.04-0.19,0.1-0.36,0.18-0.53
		c0.08-0.17,0.19-0.32,0.38-0.39c0.43,2.14,2.14,2.29,3.82,2.38c1.07,0.06,2.03,0.29,2.85,1
		C460.09,294.9,459.94,295.06,459.78,295.23z"/>
	<path style="fill-rule:evenodd;clip-rule:evenodd;fill:#C8C2C1;" d="M466.25,288.66c0.19,0.34-0.08,0.29-0.26,0.31
		C466.08,288.87,466.16,288.76,466.25,288.66z"/>
	<path style="fill-rule:evenodd;clip-rule:evenodd;fill:#C8CCCC;" d="M465.04,291.36c-0.07,0.11,0.13,0.5-0.27,0.27
		C464.86,291.54,464.95,291.45,465.04,291.36z"/>
	<path style="fill-rule:evenodd;clip-rule:evenodd;fill:#EFD2B9;" d="M458.81,296.42c0.08-0.09,0.16-0.17,0.24-0.26
		C458.97,296.25,458.89,296.34,458.81,296.42z"/>
	<path style="fill-rule:evenodd;clip-rule:evenodd;fill:#EFD2B9;" d="M458.56,296.65c0.09-0.08,0.17-0.16,0.26-0.23
		C458.74,296.49,458.65,296.57,458.56,296.65z"/>
	<path style="fill-rule:evenodd;clip-rule:evenodd;fill:#F5E5D8;" d="M506.75,280.79c-0.13,0.24-0.27,0.49-0.4,0.73
		c-1.31,1.73-2.52,3.54-4.11,5.04c-0.23,0.18-0.47,0.35-0.7,0.53c-0.82-0.72-0.87-1.62-0.42-2.5c1.21-2.35,1.97-4.9,3.37-7.15
		c0.69-1.12,0.67-2.17-0.1-3.23c-1.03-1.42-2.06-2.84-3.42-3.98c-1.23-1.03-2.27-2.24-3.06-3.66c-0.36-0.64-0.58-1.32-0.56-2.05
		c0.01-0.38,0.04-0.78,0.61-0.52c4.92,0.19,9.37,5.06,9.37,10.24c0,1.62,0.18,3.24-0.07,4.85
		C506.92,279.6,506.79,280.18,506.75,280.79z"/>
	<path style="fill-rule:evenodd;clip-rule:evenodd;fill:#F0D8C4;" d="M497.95,263.99c-0.66,0.72-0.26,1.44,0.07,2.11
		c0.82,1.68,2.08,3.03,3.5,4.21c1.46,1.22,2.49,2.77,3.51,4.33c0.65,0.99,0.38,2-0.21,2.93c-1.47,2.3-2.2,4.96-3.5,7.34
		c-0.43,0.78,0.12,1.46,0.23,2.18c-0.01,0.06-0.02,0.12-0.04,0.18c-0.24,0.16-0.47,0.33-0.71,0.49c-1-0.4-0.82-1.33-0.86-2.1
		c-0.03-0.59,0.21-1.18,0.52-1.7c1.34-2.24,2.1-4.74,3.15-7.11c0.44-0.99,0.1-1.84-0.45-2.7c-1.35-2.1-3.14-3.82-4.81-5.65
		c-0.89-0.97-1.67-2.04-2.56-3.01c-0.47-0.51-0.99-1.09-0.72-1.91c0.32-0.02,0.63-0.05,0.95-0.07
		C496.65,263.66,497.3,263.82,497.95,263.99z"/>
	<path style="fill-rule:evenodd;clip-rule:evenodd;fill:#D0A276;" d="M459.47,273.36c-0.83,0.28-0.41,1.23-0.91,1.68
		c-0.35-0.28-0.34-0.69-0.32-1.07c0.03-0.63-0.22-1.12-0.62-1.58c0.21-1.36,0.79-2.55,1.64-3.62c1.88-1.78,4.15-3.06,6.11-4.74
		c0.48-0.41,1.03-0.69,1.54-1.03c2.26-0.82,4.51-0.49,6.76,0.04c0.14,0.17,0.14,0.35,0.04,0.53c-0.57,0.42-1.22,0.27-1.84,0.21
		c-0.79-0.07-1.57-0.29-2.35-0.01c-1.87,0.25-3.17,1.69-4.84,2.37c-0.54,0.22-0.98,0.65-1.58,0.73
		C460.81,268.43,459.85,270.73,459.47,273.36z"/>
	<path style="fill-rule:evenodd;clip-rule:evenodd;fill:#DEBA97;" d="M477.99,254.64c-0.14-0.24-0.28-0.49-0.41-0.73
		c1.32-0.69,1.37,0.62,1.88,1.2c0.95,1.47,1.81,2.97,1.29,4.84c-0.19,0.7-0.15,1.4,0.03,2.1c-0.06,0.45-0.32,0.69-0.78,0.69
		c-0.13-0.02-0.24-0.08-0.33-0.18c-0.3-1.74,0.15-3.56-0.51-5.27C478.92,256.33,478.48,255.48,477.99,254.64z"/>
	<path style="fill-rule:evenodd;clip-rule:evenodd;fill:#E0B38E;" d="M466.92,263c-1.72,1.92-3.94,3.21-6.01,4.68
		c-0.53,0.37-0.8,1.2-1.64,1.1c0.43-0.48,0.85-0.96,1.28-1.43c0.04-0.08,0.1-0.15,0.17-0.22c1.03-1.6,2.56-2.63,4.16-3.57
		C465.55,263.37,466.24,263.19,466.92,263z"/>
	<path style="fill-rule:evenodd;clip-rule:evenodd;fill:#D9AF89;" d="M479.66,262.55c0.09,0,0.17,0,0.26,0.01
		c-0.06,1.28-0.73,2.08-2.13,2.57c-0.16,0-0.32-0.03-0.47-0.09c-0.1-0.03-0.19-0.08-0.28-0.12c-0.13-0.06-0.27-0.12-0.41-0.16
		c-0.14-0.04-0.28-0.09-0.42-0.15c-0.34-0.2-0.77-0.28-0.91-0.73c0.02-0.05,0.04-0.09,0.07-0.14
		C476.86,263.55,478.44,263.69,479.66,262.55z"/>
	<path style="fill-rule:evenodd;clip-rule:evenodd;fill:#E3E9EF;" d="M473.69,263.51c0-0.16,0-0.31,0-0.47
		c0.39,0.03,0.75,0.1,0.97,0.48c-0.08,0.1-0.18,0.17-0.3,0.2C474.1,263.76,473.86,263.73,473.69,263.51z"/>
	<path style="fill-rule:evenodd;clip-rule:evenodd;fill:#918EA7;" d="M474.38,263.57c0.09-0.02,0.18-0.03,0.28-0.05
		c0.26,0,0.55-0.07,0.72,0.22l-0.04,0.04C474.94,264.04,474.59,264.12,474.38,263.57z"/>
	<path style="fill-rule:evenodd;clip-rule:evenodd;fill:#BE8365;" d="M457.62,272.39c1.53,0.45,0.73,1.73,0.94,2.65
		c-0.66,1.54-1.03,3.05,0.38,4.43c0.2,0.19,0.21,0.57,0.31,0.87c-0.93-0.36-1.05-1.5-1.89-1.94c-0.02-0.15-0.03-0.3-0.05-0.46
		c-0.09-0.15-0.06-0.35-0.16-0.5c-0.02-0.08-0.02-0.15-0.01-0.23c0.18-0.32,0.13-0.7,0.27-1.03c0.5-1.16,0.63-2.35,0.15-3.55
		C457.56,272.54,457.58,272.46,457.62,272.39z"/>
	<path style="fill-rule:evenodd;clip-rule:evenodd;fill:#8B4E3E;" d="M456.93,276.27c-0.04-1.07,0.15-2.11,0.44-3.14
		c0.5-0.05,0.61,0.34,0.65,0.68c0.1,0.94-0.25,1.79-0.64,2.61C457.29,276.62,457.04,276.46,456.93,276.27z"/>
	<path style="fill-rule:evenodd;clip-rule:evenodd;fill:#A26550;" d="M456.93,276.27c0.97-0.59,1.2-2.18,0.44-3.14
		c0.06-0.17,0.12-0.34,0.18-0.5c0.89,1.22,0.69,3.41-0.41,4.59C457.08,276.89,457,276.58,456.93,276.27z"/>
	<path style="fill-rule:evenodd;clip-rule:evenodd;fill:#A26550;" d="M457.16,277.44c0.05,0.17,0.11,0.33,0.16,0.5
		C457.27,277.77,457.21,277.6,457.16,277.44z"/>
	<path style="fill-rule:evenodd;clip-rule:evenodd;fill:#D0A276;" d="M460.71,267.13c-0.06,0.07-0.11,0.14-0.17,0.22
		C460.6,267.27,460.65,267.2,460.71,267.13z"/>
	<path style="fill-rule:evenodd;clip-rule:evenodd;fill:#DFBA97;" d="M457.84,283.64c-0.32,0.25-0.64,0.5-0.97,0.75
		c-2.48,0.24-4.76,0.98-6.56,2.81c-0.25,0.26-0.47,0.54-0.66,0.84c-1.02,1.64-1.75,3.46-2.2,5.27c-0.88,3.55,0.28,6.66,2.93,9.19
		c0.45,0.43,1.05,0.56,1.59,0.8c0.65,0.29,1.03,0.72,0.98,1.46c-0.12,0.2-0.25,0.4-0.37,0.6c-3.76-1.73-5.96-4.58-6.55-8.74
		c-0.27-1.9,0.08-3.57,0.83-5.3c0.71-1.64,1.1-3.44,2.36-4.79c2.26-2.42,4.98-3.78,8.4-3.34c0.11,0.06,0.2,0.16,0.26,0.27
		C457.88,283.52,457.86,283.58,457.84,283.64z"/>
	<path style="fill-rule:evenodd;clip-rule:evenodd;fill:#E9CDB3;" d="M452.97,304.77c-0.19-0.61-0.62-0.95-1.19-1.21
		c-4.1-1.85-6.08-7.12-4.29-11.26c0.89-2.07,1.28-4.43,3.21-5.88c1.8-1.35,3.73-2.53,6.18-2.03l-0.01,0.01
		c-0.09,0.07-0.15,0.17-0.22,0.26c-0.08,0.08-0.16,0.17-0.24,0.25c-0.88,0.6-1.91,0.8-2.9,1.07c-2.22,0.6-3.54,2.07-4.17,4.22
		c-0.2,0.7-0.48,1.35-0.81,2c-1.26,2.51-0.5,7.19,1.45,9.2c0.83,0.86,1.97,1,2.98,1.45c0.08,0.09,0.15,0.18,0.22,0.28
		c0.01,0.16,0.03,0.32,0.04,0.48c-0.13,0.23,0,0.52-0.17,0.75C453.03,304.49,453,304.63,452.97,304.77z"/>
	<path style="fill-rule:evenodd;clip-rule:evenodd;fill:#D0A678;" d="M457.84,283.44c-3.83-0.45-8.66,1.75-10.62,7.36
		c-1.33,3.79-1.11,7.08,0.71,10.44c0.72,1.33,1.96,2.16,3.21,2.96c0.53,0.34,1.17,0.54,1.46,1.16c0.01,0.07-0.02,0.12-0.07,0.16
		c-0.07,0.08-0.13,0.16-0.2,0.25l0,0c-3.11-1.85-5.46-4.23-6.4-7.91c-0.77-3.01,0.16-5.63,1.28-8.28c0.37-0.88,0.66-1.8,1.27-2.55
		c0.09-0.07,0.16-0.16,0.24-0.24l0,0c0.08-0.08,0.16-0.16,0.24-0.24l0,0c0.47-0.65,1.03-1.21,1.68-1.68l0,0
		c2.6-1.89,5.48-2.67,8.68-2.15c-0.1,0.08-0.2,0.15-0.29,0.22c-0.05,0.07-0.12,0.13-0.2,0.15c-0.17,0.09-0.34,0.19-0.52,0.28
		C458.14,283.29,457.99,283.39,457.84,283.44z"/>
	<path style="fill-rule:evenodd;clip-rule:evenodd;fill:#474542;" d="M452.81,295.44c0.01,0.24,0.02,0.48,0.03,0.72
		c0.01,1.06-0.12,2.12,0.17,3.17c0.16,1.03,0.31,2.06,0.47,3.08c-0.08,0.18-0.17,0.37-0.25,0.55c-0.14,0-0.24-0.06-0.31-0.18
		c-0.27-0.45-0.19-0.99-0.38-1.47c-0.26-1.29-0.39-2.59-0.51-3.89c-0.06-0.7-0.21-1.44,0.41-2.01
		C452.57,295.35,452.69,295.35,452.81,295.44z"/>
	<path style="fill-rule:evenodd;clip-rule:evenodd;fill:#DFBA97;" d="M453.06,304.35c-0.02-0.27-0.06-0.54,0.17-0.75
		C453.27,303.88,453.33,304.15,453.06,304.35z"/>
	<path style="fill-rule:evenodd;clip-rule:evenodd;fill:#DFBA97;" d="M453.06,302.87c0.06,0.03,0.11,0.07,0.17,0.1
		c-0.01,0.05-0.02,0.11-0.04,0.16c-0.06,0-0.12-0.01-0.19-0.02C452.94,303,452.95,302.92,453.06,302.87z"/>
	<path style="fill-rule:evenodd;clip-rule:evenodd;fill:#CA9D6D;" d="M452.33,305.78c0.06-0.08,0.13-0.17,0.2-0.25
		C452.46,305.61,452.4,305.69,452.33,305.78z"/>
	<path style="fill-rule:evenodd;clip-rule:evenodd;fill:#C89E70;" d="M467.92,307.68c1.81,1.25,3.6,0.65,5.24-0.27
		c1.27-0.71,2.44-1.64,3.5-2.63c2.35-2.2,4.56-2.39,7.33-0.46c-0.87-0.25-1.75-0.48-2.61-0.76c-1.38-0.45-2.45,0.02-3.47,0.94
		c-1.81,1.66-3.63,3.3-6.08,4c-1.8,0.51-3.43-0.18-5.11-0.57c-0.5-0.54-1-1.08-1.49-1.61c-0.93-2.03-1.5-4.14-1.6-6.39
		c-0.03-0.74-0.23-1.49-0.75-2.08c-0.02-0.5-0.07-0.99,0.24-1.43c1.38,0.83,1.7,2.22,1.9,3.65c0.09,0.66-0.03,1.34,0.09,2.02
		C465.52,304.21,466.33,306.14,467.92,307.68z"/>
	<path style="fill-rule:evenodd;clip-rule:evenodd;fill:#BD9160;" d="M462.89,297.84c1.08,0.21,1.05,1.21,1.09,1.89
		c0.12,2,0.49,3.91,1.24,5.76c0.1,0.24,0.02,0.55,0.02,0.82c-0.15-0.15-0.3-0.3-0.45-0.45c-0.04-0.17-0.15-0.28-0.32-0.33
		c-1.09-0.84-1.13-2.11-1.36-3.3c-0.08-0.42-0.16-0.85-0.23-1.28c-0.19-0.56-0.15-1.12-0.02-1.67c0-0.08,0-0.16,0.01-0.24
		c0.02-0.09,0.05-0.18,0.07-0.27c0.08-0.15,0.08-0.3-0.01-0.45C462.91,298.17,462.9,298,462.89,297.84z"/>
	<path style="fill-rule:evenodd;clip-rule:evenodd;fill:#4F4B46;" d="M462.85,299.28c0.01,0.56,0.02,1.12,0.02,1.67
		C462.51,300.41,462.53,299.85,462.85,299.28z"/>
	<path style="fill-rule:evenodd;clip-rule:evenodd;fill:#C89E70;" d="M464.47,305.53c0.11,0.11,0.21,0.22,0.32,0.33
		C464.68,305.75,464.58,305.64,464.47,305.53z"/>
	<path style="fill-rule:evenodd;clip-rule:evenodd;fill:#C89E70;" d="M467.23,308.64c0.07,0.08,0.14,0.16,0.21,0.24
		C467.37,308.8,467.3,308.72,467.23,308.64z"/>
	<path style="fill-rule:evenodd;clip-rule:evenodd;fill:#F2DECE;" d="M479.24,250.59c2.16,1.63,3.05,3.91,3.3,6.51
		c-0.9,0.67-0.04,1.3,0.18,1.79c0.65,1.44,0.75,2.87,0.49,4.38c-0.85,0.4-1.33-0.16-1.52-0.79c-0.28-0.97-0.65-1.92-0.85-2.91
		c0.25-1.5-0.7-2.7-1.05-4.04c-0.04-0.15-0.04-0.3-0.08-0.45c-0.06-0.08-0.12-0.16-0.19-0.24c-0.38-0.56-0.81-1.07-1.37-1.48
		c-0.36-0.27-0.82-0.55-0.66-1.15c0.48-0.54,0.97-1.08,1.45-1.62C479.05,250.45,479.15,250.45,479.24,250.59z"/>
	<path style="fill-rule:evenodd;clip-rule:evenodd;fill:#E8C9B0;" d="M477.5,252.2c0.65,1.03,1.88,1.54,2.42,2.67
		c-0.17,0.27-0.45,0.16-0.68,0.2c-0.49-0.48-0.67-1.4-1.66-1.16c-0.14-0.16-0.27-0.32-0.41-0.48
		C476.95,252.94,476.96,252.5,477.5,252.2z"/>
	<path style="fill-rule:evenodd;clip-rule:evenodd;fill:#B1BCD1;" d="M479.24,250.59c-0.1,0-0.19,0-0.29-0.01
		c0.08-0.4,0.33-0.54,0.72-0.47C479.53,250.27,479.38,250.43,479.24,250.59z"/>
	<path style="fill-rule:evenodd;clip-rule:evenodd;fill:#EBC9AD;" d="M483.52,302.88c-1.35-0.95-2.87-1.68-4.45-1.86
		c-2.5-0.28-4.01,1.53-5.48,3.22c-0.85,0.98-1.19,2.5-2.78,2.72c1.21-1.26,1.76-2.94,2.79-4.31c0.41-0.55,0.98-0.93,1.58-1.25
		c0.53-0.29,0.97-0.69,1.37-1.13c0.88-0.97,0.86-1.85,0.06-2.88c-0.43-0.56-1.27-0.9-1.11-1.83c0.04-0.04,0.08-0.08,0.12-0.12
		c2,0.24,4,0.48,6,0.71c0.08,0.08,0.17,0.15,0.25,0.23c0.32,0.64-0.26,0.83-0.6,1.11c-1.43,1.2-1.36,2.38,0.26,3.3
		c0.87,0.49,1.79,0.9,2.62,1.45c0.79,0.52,1.53,0.62,2.25-0.12c0.19-0.19,0.44-0.37,0.75-0.22l0.01-0.02
		c0.04,0.1,0.09,0.19,0.16,0.28c0.04,0.06,0.06,0.13,0.07,0.21C486.82,304.13,484.89,304.38,483.52,302.88z"/>
	<path style="fill-rule:evenodd;clip-rule:evenodd;fill:#F4E2D4;" d="M483.76,297.36c0.41,0.29,0.83,0.58,1.24,0.87
		c0.47,0.82,0.99,1.62,1.25,2.55c0.16,0.58,0.15,1.12-0.36,1.52c-0.48,0.38-0.98,0.21-1.45-0.05c-0.77-0.42-1.49-0.91-2.27-1.32
		c-1.06-0.56-1.48-1.39-1.25-2.19c0.24-0.82,1.2-1.43,2.26-1.43C483.37,297.3,483.57,297.3,483.76,297.36z"/>
	<path style="fill-rule:evenodd;clip-rule:evenodd;fill:#EED6C2;" d="M483.76,297.36c-0.98,0.38-2.44,0.23-2.59,1.66
		c-0.16,1.45,1.29,1.62,2.2,2.13c0.74,0.42,1.45,1.58,2.34,0.88c0.96-0.75-0.17-1.72-0.27-2.61c-0.05-0.43-0.55-0.7-0.45-1.2
		c1.02,1.05,1.82,2.22,2.15,3.67c-1.23,1.48-2.5,1.25-3.88,0.18c-0.52-0.41-1.19-0.63-1.79-0.94c-2.06-1.07-2.17-2.6-0.29-3.99
		c0.28-0.2,0.65-0.34,0.66-0.78c0.08,0.02,0.15,0.04,0.23,0.07c0.09,0.06,0.18,0.13,0.27,0.19
		C482.93,296.67,483.35,297,483.76,297.36z"/>
	<path style="fill-rule:evenodd;clip-rule:evenodd;fill:#D8B895;" d="M483.52,302.88c2.14,1.05,2.63,0.98,3.87-0.51
		c0.08,0.17,0.15,0.34,0.22,0.51c-1.1,1.38-2.03,1.6-3.58,0.86c-0.78-0.37-1.53-0.81-2.43-0.86c-0.14-0.16-0.15-0.31-0.01-0.47
		C482.24,302.56,482.88,302.72,483.52,302.88z"/>
	<path style="fill-rule:evenodd;clip-rule:evenodd;fill:#EBC9AD;" d="M482.35,296.63c-0.09-0.06-0.18-0.13-0.27-0.19
		C482.17,296.5,482.26,296.56,482.35,296.63z"/>
	<path style="fill-rule:evenodd;clip-rule:evenodd;fill:#D8B895;" d="M487.32,302.16c-0.05-0.09-0.11-0.19-0.16-0.28
		C487.21,301.97,487.27,302.06,487.32,302.16z"/>
	<path style="fill-rule:evenodd;clip-rule:evenodd;fill:#EBC9AD;" d="M474.64,295.44c0-0.06-0.01-0.12-0.01-0.18
		c0.33,0.06,0.65,0.12,0.98,0.17l-0.03,0.04C475.26,295.73,474.95,295.64,474.64,295.44z"/>
	<path style="fill-rule:evenodd;clip-rule:evenodd;fill:#D8AD86;" d="M481.6,302.4c0,0.16,0,0.31,0.01,0.47
		c-2.42-1.09-4.08,0.27-5.71,1.75c-0.74,0.67-1.49,1.32-2.24,1.97c-1.7,1.49-3.66,1.59-5.73,1.09c-2.23-1.63-2.95-4-3.09-6.58
		c-0.1-1.77-0.49-3.37-1.7-4.7c0.02-0.25,0.04-0.5,0.06-0.75c0.06-0.14,0.05-0.31,0.15-0.43l0.03-0.02c0.61,1.7,2.04,3.08,1.91,5.07
		c-0.11,1.79,0.41,3.46,1.12,5.06c1.18,2.64,4.26,3.18,6.41,1.16c0.9-0.84,1.76-1.74,2.62-2.62
		C477.19,302.1,479.19,301.4,481.6,302.4z"/>
	<path style="fill-rule:evenodd;clip-rule:evenodd;fill:#C89E70;" d="M462.92,298.33c0.21,0.14,0.22,0.29,0.01,0.45
		C462.93,298.63,462.92,298.48,462.92,298.33z"/>
	<path style="fill-rule:evenodd;clip-rule:evenodd;fill:#C89E70;" d="M463.34,295.22c-0.05,0.14-0.1,0.29-0.15,0.43
		C463.24,295.51,463.29,295.37,463.34,295.22z"/>
	<path style="fill-rule:evenodd;clip-rule:evenodd;fill:#E6C3A4;" d="M495.05,263.56c0.8,2.06,2.46,3.49,3.86,5.08
		c1.55,1.76,3.2,3.42,4.54,5.35c0.71,1.02,0.92,2.03,0.35,3.24c-1.14,2.4-1.94,4.95-3.27,7.26c-0.62,1.08-0.39,2.21,0.25,3.26
		c-0.32,0.24-0.63,0.48-0.95,0.73c-0.93-1.06-0.33-2.23-0.24-3.36c-0.11-0.69,0.28-1.23,0.6-1.76c1.05-1.72,1.7-3.6,2.23-5.52
		c0.67-2.42-0.5-4.33-1.85-6.16c-0.3-0.41-0.74-0.73-0.98-1.2c-1.39-1.54-2.44-3.44-4.65-4.08c-0.55-0.16-0.86-0.63-0.67-1.33
		c0.13-0.49,0.1-1.03-0.18-1.51C494.42,263.56,494.74,263.56,495.05,263.56z"/>
	<path style="fill-rule:evenodd;clip-rule:evenodd;fill:#EED3BD;" d="M497.63,276.7c0.22,1.95,0.06,4.54-0.89,7.05
		c-0.64,1.7-1.68,3.08-3.3,3.94c-0.89,0.47-1.75,0.32-2.54-0.34c-0.82-0.68-0.8-1.54-0.54-2.4c0.26-0.87,0.54-1.8,1.07-2.52
		c1.88-2.56,1.89-5.41,1.38-8.32c-0.16-0.92-0.14-1.82-0.17-2.73c-0.03-0.86,0.53-1.35,1.24-1.56c0.71-0.21,1.46-0.12,1.91,0.6
		C496.86,272.13,497.55,273.96,497.63,276.7z"/>
	<path style="fill-rule:evenodd;clip-rule:evenodd;fill:#E2BD9B;" d="M491.68,280.08c0.16-0.16,0.32-0.32,0.48-0.48
		c-0.06,0.77-0.32,1.44-0.96,1.92c0-0.24,0-0.48,0-0.72c0.08-0.07,0.16-0.16,0.24-0.24l0,0
		C491.58,280.43,491.54,280.21,491.68,280.08L491.68,280.08z"/>
	<path style="fill-rule:evenodd;clip-rule:evenodd;fill:#E2BD9B;" d="M490.48,282.96c0.1-0.55,0.32-1.04,0.72-1.44
		C491.19,282.12,491.03,282.64,490.48,282.96z"/>
	<path style="fill-rule:evenodd;clip-rule:evenodd;fill:#E1BD9B;" d="M489.06,280.57c-0.61-0.43-0.94,0.05-1.29,0.42
		c-1.35,1.4-2.73,2.76-4.5,3.65c-1.05,0.36-2.09,0.72-3.14,1.08c-0.77,0.26-1.26,0.11-1.53-0.77c-0.6-1.95-0.77-3.97-1.08-5.97
		c-0.05-0.35,0.04-0.75-0.47-0.83c-0.11-1.48,0.08-2.93,0.44-4.37c0.75,0.63,0.85,1.5,0.83,2.39c-0.05,2,0.03,3.98,0.48,5.95
		c0.49,2.13,1.43,2.7,3.44,1.89c2.86-1.15,4.9-3.26,6.42-5.87c0.9-1.54,0.38-3.08-0.5-4.41c-1.05-1.6-2.19-3.13-2.91-4.94
		c-0.35-0.88-1.08-1.13-2.07-0.99c-1.79,0.27-2.97,1.45-4.25,2.53c-0.39,0.33-0.69,0.95-1.4,0.62c0-0.17,0.01-0.33,0.01-0.5
		c-0.06-0.97,0.89-1.13,1.36-1.67c0.08-0.07,0.17-0.13,0.26-0.19c0.42-0.22,0.84-0.44,1.19-0.77c0.08-0.07,0.17-0.13,0.27-0.19
		c0.14-0.09,0.29-0.16,0.45-0.24c0.1-0.05,0.21-0.09,0.32-0.13c0.69-0.33,1.43-0.48,2.17-0.62c1.25-0.23,2.14,0.07,2.53,1.24
		c0.77,2.35,2.25,4.17,3.86,5.94c0.02,0.13,0.04,0.26,0.05,0.39c0.01,0.13,0.11,0.21,0.15,0.32c0,0.89,0,1.78,0,2.67
		c-0.16,0.4,0.05,0.84-0.17,1.23C490.05,279.31,489.54,279.94,489.06,280.57z"/>
	<path style="fill-rule:evenodd;clip-rule:evenodd;fill:#E3BB99;" d="M489.97,273.84c-1.89-1.04-2.93-2.8-3.7-4.68
		c-0.98-2.4-1.58-2.77-4.02-1.89c-0.37,0.13-0.76,0.22-1.14,0.32c-0.07-0.47,0.3-0.65,0.61-0.75c1.27-0.39,2.5-0.87,3.71-1.41
		c0.61,0.23,1.16,0.54,1.48,1.15c0.08,0.92-0.23,1.86,0.23,2.77c0.52,1.02,1.11,1.9,2.33,2.1
		C489.74,272.23,490.01,273,489.97,273.84z"/>
	<path style="fill-rule:evenodd;clip-rule:evenodd;fill:#31332D;" d="M477.07,264.71c0.08-0.01,0.15,0.01,0.21,0.05
		c0.1,0.07,0.19,0.15,0.32,0.16c1.32-0.25,1.83-1.3,2.32-2.36c0.36,0.02,0.64-0.08,0.72-0.48c-0.18-0.25-0.14-0.44,0.16-0.55
		c0.85,0.35,0.84,1.19,1.06,1.89c0.04,0.22,0.02,0.44-0.01,0.66c0,0.05-0.01,0.11-0.01,0.16c0.08,0.17,0.17,0.33,0.25,0.5
		c-0.04,0.04-0.08,0.07-0.12,0.11c-0.1,0.04-0.21,0.06-0.31,0.05c-0.11-0.03-0.2-0.08-0.27-0.16c-0.09-0.09-0.18-0.17-0.27-0.26
		c-0.38-0.26-0.63-0.04-0.94,0.2c-0.9,0.68-1.88,1.2-3.02,1.34c-0.84,0.11-1.46,0.59-2.03,1.17c-0.2,0.21-0.45,0.32-0.71,0.43
		c-0.24,0.16-0.49,0.33-0.73,0.49c0.17-0.4,0.34-0.79,0.51-1.19c0.07-0.08,0.15-0.17,0.22-0.25c0.07-0.12,0.11-0.25,0.19-0.36
		c0.08-0.05,0.15-0.11,0.21-0.17c0.09-0.08,0.19-0.16,0.28-0.23c0.12-0.1,0.15-0.26,0.23-0.39c0.18-0.21,0.44-0.33,0.62-0.51
		c0.03-0.07,0.05-0.15,0.04-0.24c-0.02-0.09-0.01-0.17,0.02-0.25c0.1-0.12,0.22-0.12,0.35-0.07c0.14,0.04,0.27,0.08,0.41,0.12
		C476.9,264.59,476.99,264.64,477.07,264.71z"/>
	<path style="fill-rule:evenodd;clip-rule:evenodd;fill:#D8AE86;" d="M485.44,265.44c-0.56,0.79-1.38,1.09-2.29,1.29
		c-0.72,0.16-1.48,0.27-2.02,0.87l0,0c-0.13,0.14-0.35,0.1-0.48,0.24l0,0c-0.45,0.37-0.96,0.64-1.44,0.96l0,0
		c-0.43,0.16-0.92,0.53-1-0.34c0.34-0.87,1.28-1.14,1.81-1.83c0.02-0.09,0.07-0.15,0.16-0.18l0.02-0.03
		c1.54-0.19,2.87-0.85,4.07-1.81C484.66,264.89,485.05,265.17,485.44,265.44z"/>
	<path style="fill-rule:evenodd;clip-rule:evenodd;fill:#D7AB82;" d="M489.48,271.45c-0.53,0.37-0.99,0.15-1.41-0.18
		c-1.34-1.04-1.83-3.08-1.15-4.69c0.14,0.18,0.28,0.37,0.42,0.55l-0.07,0.06l0.08-0.05C488.33,268.44,489.12,269.84,489.48,271.45z"
		/>
	<path style="fill-rule:evenodd;clip-rule:evenodd;fill:#CDA174;" d="M484.27,264.62c-1,1.46-2.68,2.2-4.07,1.81
		c0.4-0.56,0.79-1.13,1.19-1.69c0.06,0,0.12,0,0.18,0c0.18,0.12,0.35,0.14,0.53,0l0,0C482.8,264.36,483.48,263.45,484.27,264.62z"/>
	<path style="fill-rule:evenodd;clip-rule:evenodd;fill:#EACFBA;" d="M481.63,263.7c-0.06-0.77-0.4-1.44-0.78-2.09
		c-0.68-0.83-0.33-1.56,0.22-2.26c0.21,1.04,0.82,1.94,0.89,3.05c0.04,0.5,0.59,0.92,1.25,0.88c-0.46,0.32-0.91,0.64-1.37,0.96l0,0
		C481.7,264.09,481.72,263.87,481.63,263.7z"/>
	<path style="fill-rule:evenodd;clip-rule:evenodd;fill:#E0C8B9;" d="M482.74,257.29c1.47,1.85,2.11,3.88,1.31,6.21
		c-0.29-0.77-0.03-1.56-0.08-2.34c-0.1-0.15-0.07-0.35-0.18-0.51C483.49,259.52,482.81,258.5,482.74,257.29z"/>
	<path style="fill-rule:evenodd;clip-rule:evenodd;fill:#E3BB99;" d="M490.02,278.45c0.02-0.42-0.15-0.86,0.17-1.23
		C490.17,277.63,490.29,278.07,490.02,278.45z"/>
	<path style="fill-rule:evenodd;clip-rule:evenodd;fill:#E2BD9D;" d="M483.8,260.65c0.06,0.17,0.12,0.34,0.18,0.51
		C483.92,260.99,483.86,260.82,483.8,260.65z"/>
	<path style="fill-rule:evenodd;clip-rule:evenodd;fill:#E3BB99;" d="M490.18,274.55c-0.05-0.11-0.1-0.21-0.15-0.32
		C490.08,274.33,490.13,274.44,490.18,274.55z"/>
	<path style="fill-rule:evenodd;clip-rule:evenodd;fill:#DAAD84;" d="M499.6,270.48c3.6,2.88,4.15,6.07,1.86,10.91
		c-0.59,1.25-1.24,2.49-1.86,3.73c-0.16,0.08-0.32,0.16-0.48,0.24c0.16-0.48,0.32-0.96,0.48-1.44c0.08-0.24,0.16-0.48,0.24-0.71
		c2.66-2.83,2.97-7.75,0.71-11.29c-0.08-0.08-0.15-0.17-0.24-0.24v0c-0.08-0.08-0.16-0.16-0.24-0.24v0
		c-0.08-0.08-0.16-0.16-0.24-0.24l0,0c-0.08-0.08-0.15-0.16-0.24-0.24v0C499.6,270.8,499.6,270.64,499.6,270.48z"/>
	<path style="fill-rule:evenodd;clip-rule:evenodd;fill:#DEB692;" d="M491.68,280.08c-0.08,0.16-0.16,0.32-0.24,0.48
		C491.52,280.4,491.6,280.24,491.68,280.08z"/>
	<path style="fill-rule:evenodd;clip-rule:evenodd;fill:#DEB692;" d="M491.44,280.56c-0.08,0.08-0.16,0.16-0.24,0.24
		C491.28,280.72,491.36,280.64,491.44,280.56z"/>
	<path style="fill-rule:evenodd;clip-rule:evenodd;fill:#CFA376;" d="M500.32,271.68c0.08,0.08,0.16,0.16,0.24,0.24
		C500.48,271.84,500.4,271.76,500.32,271.68z"/>
	<path style="fill-rule:evenodd;clip-rule:evenodd;fill:#CFA376;" d="M500.08,271.44c0.08,0.08,0.16,0.16,0.24,0.24
		C500.24,271.6,500.16,271.52,500.08,271.44z"/>
	<path style="fill-rule:evenodd;clip-rule:evenodd;fill:#CFA376;" d="M499.84,271.2c0.08,0.08,0.16,0.16,0.24,0.24
		C500,271.36,499.92,271.28,499.84,271.2z"/>
	<path style="fill-rule:evenodd;clip-rule:evenodd;fill:#CFA376;" d="M499.6,270.96c0.08,0.08,0.16,0.16,0.24,0.24
		C499.76,271.12,499.68,271.04,499.6,270.96z"/>
	<path style="fill-rule:evenodd;clip-rule:evenodd;fill:#C99778;" d="M476.09,264.69c0.05,0.03,0.11,0.05,0.18,0.05
		c0.13,0.05,0.21,0.15,0.27,0.27c-0.39,0.23-0.78,0.46-1.16,0.69c-0.09,0.08-0.18,0.07-0.26-0.02c-0.97-0.55-1.94-0.17-2.88,0.06
		c-0.87,0.22-1.73,0.25-2.6,0.07c-2-0.42-3.38,0.22-4.36,2.03c-0.64,0.96-1.4,1.86-1.88,2.89c-0.87,1.86-0.46,3.93-0.61,5.9
		c-0.05,0.72,0.63,1.43,1.39,1.84c0.45,0.24,0.76,0.63,0.55,1.19c-0.21,0.57-0.65,0.28-1.02,0.21c-0.77-0.15-1.07,0.36-1.31,0.94
		c-0.41-0.44-0.02-0.84,0.23-1.01c1.1-0.71,0.66-1.39,0.13-2.2c-0.41-0.62-0.65-1.3-0.42-2.14c0.19-0.7,0.24-1.46,0.08-2.23
		c-0.4-2.04,1.24-3.36,1.85-5.05c0.18-0.49,0.72-0.93,0.28-1.53c-0.11-0.33,0.07-0.54,0.33-0.67c0.91-0.43,1.72-1.07,2.69-1.4
		c2.58,0.59,5.12,0.01,7.67-0.26C475.59,264.29,475.85,264.46,476.09,264.69z"/>
	<path style="fill-rule:evenodd;clip-rule:evenodd;fill:#E7CCB3;" d="M474.64,295.44c0.31,0.01,0.62,0.02,0.94,0.02
		c-0.03,0.54,0.29,0.89,0.66,1.21c2.4,2.04,1.18,3.58-0.56,4.65c-1.48,0.91-2.49,2.04-3.12,3.59c-0.36,0.89-1.05,1.47-1.75,2.05h0
		c-0.2,0.21-0.53,0.01-0.72,0.24c-0.24,0-0.48,0-0.72,0c-0.19-0.22-0.52-0.02-0.72-0.24l0,0c-0.13-0.14-0.35-0.1-0.48-0.24l0,0
		c-0.08-0.08-0.16-0.16-0.24-0.24l0,0c-0.08-0.08-0.16-0.16-0.24-0.24l0,0c-0.08-0.08-0.16-0.16-0.24-0.24
		c-1.35-1.77-1.48-3.9-1.6-5.98c-0.05-0.77-0.04-1.49-0.52-2.1c-2.11-2.67-0.83-5.41,2.29-5.7c0.11-0.01,0.22-0.1,0.32-0.15
		c0.14,0.17,0.28,0.33,0.42,0.5c-0.53,0.15-1.09,0.25-1.6,0.47c-2.21,0.96-2.56,2.59-0.88,4.29c0.68,0.69,0.88,1.45,0.86,2.37
		c-0.03,2.03,0.04,4.1,1.15,5.86c1.01,1.59,2.64,1.67,3.56,0.06c1.23-2.15,2.75-3.9,4.71-5.41c1.17-0.9,0.83-2.38-0.64-3.68
		C475.15,296.2,474.83,295.88,474.64,295.44z"/>
	<path style="fill-rule:evenodd;clip-rule:evenodd;fill:#D1A476;" d="M459.32,282.73c-3.15-0.33-5.99,0.62-8.68,2.15
		c1.67-1.59,3.66-2.36,5.97-2.41c1.22-0.03,2.43-0.14,3.65-0.21C460.03,282.59,459.67,282.65,459.32,282.73z"/>
	<path style="fill-rule:evenodd;clip-rule:evenodd;fill:#D1A476;" d="M450.64,284.88c-0.46,0.66-1.02,1.22-1.68,1.68
		c0-0.16,0-0.32,0-0.48C449.61,285.8,449.85,284.95,450.64,284.88z"/>
	<path style="fill-rule:evenodd;clip-rule:evenodd;fill:#AA765C;" d="M474.83,266.13c-0.07,0.09-0.14,0.18-0.21,0.27
		c-0.07,0.08-0.15,0.09-0.23,0c-0.1-0.07-0.22-0.21-0.28-0.19c-1.85,0.63-3.68,1.32-5.69,0.69c-0.31-0.1-0.63,0.12-0.7,0.5
		c-0.06,0.32,0.15,0.52,0.41,0.66c0.14,0.08,0.28,0.15,0.43,0.21c2.2,0.91,2.5,1.79,1.28,3.84c-0.3,0.51-0.65,1-0.98,1.49
		c-0.04,0.03-0.08,0.06-0.12,0.09c-0.04-0.03-0.08-0.06-0.12-0.09c-0.03-0.7,0.38-1.17,0.81-1.66c1.16-1.32,0.86-2.54-0.74-3.15
		c-0.3-0.11-0.59-0.25-0.88-0.38c-0.55-0.24-1.52-0.27-1.36-1.02c0.17-0.78,1.15-1.36,1.89-1.16c1.95,0.52,3.75,0.15,5.56-0.5
		C474.35,265.57,474.59,265.87,474.83,266.13z"/>
	<path style="fill-rule:evenodd;clip-rule:evenodd;fill:#AA765C;" d="M468.4,274.56c-0.08,0-0.16,0-0.24,0
		c0.04-0.38,0.17-0.71,0.48-0.96l0,0c0.17,0.24,0.16,0.48,0,0.72l0,0C468.56,274.4,468.47,274.46,468.4,274.56L468.4,274.56z"/>
	<path style="fill-rule:evenodd;clip-rule:evenodd;fill:#AA765C;" d="M475.12,265.67c0.09,0.01,0.17,0.01,0.26,0.02
		c-0.09,0.07-0.17,0.14-0.26,0.2C475.12,265.82,475.12,265.75,475.12,265.67z"/>
	<path style="fill-rule:evenodd;clip-rule:evenodd;fill:#A77355;" d="M468.64,274.32c0-0.24,0-0.48,0-0.72c0.08,0,0.16,0,0.24,0
		C468.87,273.86,468.91,274.14,468.64,274.32z"/>
	<path style="fill-rule:evenodd;clip-rule:evenodd;fill:#A77355;" d="M468.4,274.56c0.08-0.08,0.16-0.16,0.24-0.24
		C468.56,274.4,468.48,274.48,468.4,274.56z"/>
	<path style="fill-rule:evenodd;clip-rule:evenodd;fill:#805544;" d="M474.4,266.4c0.07,0,0.15-0.01,0.23,0
		c-0.07,0.09-0.14,0.17-0.2,0.26C474.42,266.57,474.41,266.49,474.4,266.4z"/>
	<path style="fill-rule:evenodd;clip-rule:evenodd;fill:#D4A97D;" d="M474.4,285.36c-0.38-0.21-0.7-0.48-0.72-0.96
		C474.07,284.61,474.38,284.88,474.4,285.36z"/>
	<path style="fill-rule:evenodd;clip-rule:evenodd;fill:#4B4445;" d="M467.47,264.78c-0.96,0.65-2.07,1.05-2.92,1.87
		c-0.39,0.18-0.77,0.35-1.16,0.53c-0.09-0.1-0.19-0.2-0.29-0.3c1.67-1.02,3.34-2.05,5.02-3.04c0.36-0.21,0.78-0.4,1.24-0.3
		c0.17,0.07,0.31,0.16,0.29,0.38C469.09,264.6,468.26,264.65,467.47,264.78z"/>
	<path style="fill-rule:evenodd;clip-rule:evenodd;fill:#EACBB0;" d="M477.56,270.96c1.07-0.35,1.61-1.37,2.48-1.99
		c0.96-0.68,1.91-1.19,3.07-1.47c1.33-0.32,2.13,0.14,2.55,1.29c0.61,1.67,1.59,3.1,2.67,4.49c1.51,1.95,1.49,4,0.02,6.03
		c-1.81,2.5-3.95,4.56-7.07,5.34c-1.4,0.35-2.14-0.32-2.52-1.5c-0.44-1.4-0.7-2.85-0.75-4.32c-0.05-1.69,0.21-3.41-0.51-5.03
		C477.51,272.85,477.54,271.91,477.56,270.96z"/>
	<path style="fill-rule:evenodd;clip-rule:evenodd;fill:#DEB08A;" d="M474.9,267.13c0.5-1,1.41-1.26,2.41-1.45
		c1.05-0.2,2.15-0.54,2.79-1.39c0.67-0.88,0.78-0.41,1.01,0.19c-0.47,0.49-0.94,0.98-1.4,1.47c-2.22,0.92-3.38,2.22-2.71,4.53
		c0,0.32,0,0.64,0.01,0.96c-0.9-0.26-0.81-1.08-0.89-1.73C475.98,268.69,475.9,267.71,474.9,267.13z"/>
	<path style="fill-rule:evenodd;clip-rule:evenodd;fill:#EAC6A9;" d="M474.9,267.13c1.65,0.23,1.12,1.68,1.35,2.63
		c0.16,0.64,0.32,1.2,0.75,1.68c0.17,2.46-0.52,4.85-0.65,7.28c-1.1-1.54-0.64-3.16-0.19-4.74c0.56-1.94-0.33-3.74-0.39-5.62
		c-0.02-0.71-0.94-0.4-1.35-0.75C474.58,267.45,474.74,267.29,474.9,267.13z"/>
	<path style="fill-rule:evenodd;clip-rule:evenodd;fill:#CDA071;" d="M477,270.48c-0.77-0.81-0.67-1.86-0.22-2.61
		c0.62-1.02,1.43-2.1,2.93-1.92C478.62,267.34,476.98,268.41,477,270.48z"/>
	<path style="fill-rule:evenodd;clip-rule:evenodd;fill:#E3BB99;" d="M478.2,268.46c0.22,0.44,0.63,0.31,1,0.34
		c-0.28,0.81-1.37,0.83-1.63,1.67c-0.03-0.5-0.03-0.99,0.25-1.43c0.05-0.09,0.11-0.17,0.18-0.25
		C478.06,268.67,478.13,268.57,478.2,268.46z"/>
	<path style="fill-rule:evenodd;clip-rule:evenodd;fill:#353832;" d="M476.6,280.07c-0.01-0.32-0.03-0.63-0.04-0.95
		C476.89,279.42,476.88,279.74,476.6,280.07z"/>
	<path style="fill-rule:evenodd;clip-rule:evenodd;fill:#D8AE86;" d="M477.99,268.78c-0.06,0.08-0.12,0.17-0.18,0.25
		C477.88,268.95,477.93,268.86,477.99,268.78z"/>
	<path style="fill-rule:evenodd;clip-rule:evenodd;fill:#CDA174;" d="M480.17,266.45c-0.05,0.06-0.11,0.12-0.16,0.18
		C480.07,266.57,480.12,266.51,480.17,266.45z"/>
	<path style="fill-rule:evenodd;clip-rule:evenodd;fill:#F6E7DB;" d="M452.59,295.44c-0.61,2.02,0.14,3.99,0.22,5.98
		c0.28,0.73-0.04,1.01-0.73,0.85c-1.09-0.25-2.02-0.8-2.54-1.83c-0.76-1.5-1.3-3.09-1.59-4.75c-0.17-0.92-0.02-1.85,0.45-2.67
		c0.63-1.09,0.99-2.26,1.34-3.45c0.61-2.02,3.12-3.73,5.18-3.57c0.21,0.02,0.39,0.09,0.31,0.37c-0.55,1.26-1.09,2.53-1.64,3.79
		C453.16,291.9,452.96,293.69,452.59,295.44z"/>
	<path style="fill-rule:evenodd;clip-rule:evenodd;fill:#F0DAC7;" d="M455.23,286.36c-2.73-0.08-4.66,1.35-5.33,3.88
		c-0.24,0.92-0.49,1.83-1.06,2.64c-0.44,0.62-0.69,1.37-0.59,2.15c0.34,2.5,1.39,6.53,3.64,6.88c0.49,0.08,0.97,0.34,0.92-0.49
		c0.34,0.44,0.19,0.96,0.25,1.44c-0.02,0.08-0.04,0.16-0.05,0.24c-4.72-1.48-6.92-6.73-4.66-11.2c0.36-0.72,0.54-1.48,0.79-2.23
		c0.78-2.25,2.37-3.64,4.7-4.12c0.87-0.18,1.65-0.71,2.57-0.65C456.02,285.39,455.62,285.88,455.23,286.36z"/>
	<path style="fill-rule:evenodd;clip-rule:evenodd;fill:#4C4546;" d="M452.59,295.44c0.15-1.79,0.12-3.62,1-5.28
		c0.07,0,0.15,0.01,0.22,0.02c-0.08,0.39-0.15,0.79-0.23,1.18c-0.03,0.14-0.06,0.27-0.09,0.41c-0.04,0.1-0.09,0.2-0.15,0.3
		c-0.17,1.12-0.35,2.25-0.52,3.37c0,0-0.11,0-0.11,0H452.59z"/>
	<path style="fill-rule:evenodd;clip-rule:evenodd;fill:#DFBA97;" d="M457.84,283.44c0.13-0.22,0.29-0.25,0.46-0.05
		c-0.06,0.04-0.12,0.06-0.19,0.07C458.01,283.53,457.92,283.53,457.84,283.44L457.84,283.44z"/>
	<path style="fill-rule:evenodd;clip-rule:evenodd;fill:#D1A476;" d="M458.82,283.11c0.07-0.05,0.13-0.1,0.2-0.15
		C458.96,283.01,458.89,283.06,458.82,283.11z"/>
	<path style="fill-rule:evenodd;clip-rule:evenodd;fill:#D1A476;" d="M457.84,283.44c0.09,0.01,0.18,0.02,0.27,0.03
		c-0.09,0.06-0.18,0.12-0.27,0.18C457.84,283.58,457.84,283.51,457.84,283.44z"/>
	<path style="fill-rule:evenodd;clip-rule:evenodd;fill:#DFBA97;" d="M456.65,284.66c0.07-0.09,0.15-0.17,0.22-0.26
		C456.8,284.48,456.72,284.57,456.65,284.66z"/>
	<path style="fill-rule:evenodd;clip-rule:evenodd;fill:#B68552;" d="M455.44,287.29c-0.06,0.07-0.12,0.15-0.18,0.22
		C455.32,287.44,455.38,287.36,455.44,287.29z"/>
	<path style="fill-rule:evenodd;clip-rule:evenodd;fill:#D1A476;" d="M448.72,286.8c-0.08,0.08-0.16,0.16-0.24,0.24
		C448.56,286.96,448.64,286.88,448.72,286.8z"/>
	<path style="fill-rule:evenodd;clip-rule:evenodd;fill:#D1A476;" d="M448.96,286.56c-0.08,0.08-0.16,0.16-0.24,0.24
		C448.8,286.72,448.88,286.64,448.96,286.56z"/>
	<path style="fill-rule:evenodd;clip-rule:evenodd;fill:#EBC9AD;" d="M468.64,306.96c0.26,0.01,0.54-0.03,0.72,0.24
		C469.09,307.19,468.82,307.23,468.64,306.96z"/>
	<path style="fill-rule:evenodd;clip-rule:evenodd;fill:#EBC9AD;" d="M470.08,307.2c0.18-0.27,0.45-0.23,0.72-0.24
		C470.62,307.23,470.35,307.19,470.08,307.2z"/>
	<path style="fill-rule:evenodd;clip-rule:evenodd;fill:#EBC9AD;" d="M468.16,306.72c0.16,0.08,0.32,0.16,0.48,0.24
		C468.48,306.88,468.32,306.8,468.16,306.72z"/>
	<path style="fill-rule:evenodd;clip-rule:evenodd;fill:#EBC9AD;" d="M467.44,306c0.08,0.08,0.16,0.16,0.24,0.24
		C467.6,306.16,467.52,306.08,467.44,306z"/>
	<path style="fill-rule:evenodd;clip-rule:evenodd;fill:#EBC9AD;" d="M467.68,306.24c0.08,0.08,0.16,0.16,0.24,0.24
		C467.84,306.4,467.76,306.32,467.68,306.24z"/>
	<path style="fill-rule:evenodd;clip-rule:evenodd;fill:#EBC9AD;" d="M467.92,306.48c0.08,0.08,0.16,0.16,0.24,0.24
		C468.08,306.64,468,306.56,467.92,306.48z"/>
	<path style="fill-rule:evenodd;clip-rule:evenodd;fill:#E2AF7E;" d="M453.33,292.07c0.05-0.1,0.1-0.2,0.15-0.3
		C453.43,291.87,453.38,291.97,453.33,292.07z"/>
	<path style="fill-rule:evenodd;clip-rule:evenodd;fill:#43423E;" d="M469.68,263.81c-0.11-0.09-0.21-0.19-0.32-0.28
		c1.44-0.55,2.88,0.17,4.32-0.02c0.23,0.02,0.46,0.04,0.69,0.06c0.32,0.07,0.64,0.14,0.96,0.22c0.21,0.44,0.75,0.35,1.06,0.65
		c-0.1,0.08-0.2,0.17-0.3,0.25c-0.25-0.06-0.5-0.12-0.75-0.18c-0.11,0.06-0.23,0.07-0.35,0.01c-0.18-0.04-0.37-0.04-0.55-0.05
		C472.86,264.25,471.22,264.38,469.68,263.81z"/>
	<path style="fill-rule:evenodd;clip-rule:evenodd;fill:#47453F;" d="M481.07,259.35c-0.21,0.74-0.54,1.47-0.22,2.26
		c-0.07,0.15-0.14,0.31-0.2,0.46c-0.4-0.53-0.54-1.07-0.28-1.75c0.76-1.98-0.4-3.58-1.13-5.26c0.18-0.22,0.43-0.23,0.68-0.2
		l0.01,0.01c0.04,0.05,0.06,0.1,0.06,0.15c0,0.06-0.01,0.08-0.02,0.08C480.13,256.58,481.26,257.79,481.07,259.35z"/>
	<path style="fill-rule:evenodd;clip-rule:evenodd;fill:#43423E;" d="M477.07,264.71c-0.09-0.05-0.18-0.1-0.26-0.15
		C476.89,264.61,476.98,264.66,477.07,264.71z"/>
	<path style="fill-rule:evenodd;clip-rule:evenodd;fill:#43423E;" d="M477.6,264.92c-0.11-0.05-0.21-0.11-0.32-0.16
		C477.39,264.81,477.5,264.87,477.6,264.92z"/>
	<path style="fill-rule:evenodd;clip-rule:evenodd;fill:#E8C9B0;" d="M479.97,255.12c-0.01-0.08-0.03-0.16-0.04-0.24
		c0.04,0.05,0.08,0.1,0.11,0.16C480.04,255.05,479.99,255.09,479.97,255.12z"/>
	<path style="fill-rule:evenodd;clip-rule:evenodd;fill:#F4DECF;" d="M496.97,276.5c-0.33,2.81,0.08,5.76-1.55,8.34
		c-0.58,0.92-1.24,1.78-2.27,2.21c-1.06,0.44-1.91-0.14-1.94-1.3c-0.05-1.88,1.12-3.3,1.94-4.81c0.7-1.28,1.09-2.46,0.75-3.96
		c-0.36-1.58-0.4-3.23-0.52-4.85c-0.05-0.68,0.01-1.44,0.87-1.62c0.81-0.17,1.3,0.4,1.55,1.05
		C496.41,273.14,497.25,274.68,496.97,276.5z"/>
	<path style="fill-rule:evenodd;clip-rule:evenodd;fill:#E3BB99;" d="M479.2,268.8c0.36-0.5,0.85-0.81,1.44-0.96
		C480.33,268.41,479.83,268.7,479.2,268.8z"/>
	<path style="fill-rule:evenodd;clip-rule:evenodd;fill:#E3BB99;" d="M480.64,267.84c0.16-0.08,0.32-0.16,0.48-0.24
		C480.96,267.68,480.8,267.76,480.64,267.84z"/>
	<path style="fill-rule:evenodd;clip-rule:evenodd;fill:#9C9FB2;" d="M479.69,264.01c-0.08-0.35,0.14-0.58,0.33-0.82
		c0.05,0.04,0.13,0.08,0.14,0.12c0.02,0.35-0.14,0.58-0.48,0.68L479.69,264.01z"/>
	<path style="fill-rule:evenodd;clip-rule:evenodd;fill:#3F403A;" d="M482.09,264.73c-0.17,0.27-0.35,0.25-0.53,0
		C481.74,264.73,481.92,264.73,482.09,264.73z"/>
	<path style="fill-rule:evenodd;clip-rule:evenodd;fill:#3F403A;" d="M481.63,263.7c0.07,0.18,0.15,0.36,0.22,0.53
		C481.61,264.13,481.59,263.92,481.63,263.7z"/>
	<path style="fill-rule:evenodd;clip-rule:evenodd;fill:#8192AA;" d="M479.67,263.99c-0.03,0.06-0.06,0.11-0.1,0.17
		c-0.13-0.18,0.03-0.13,0.11-0.15L479.67,263.99z"/>
	<path style="fill-rule:evenodd;clip-rule:evenodd;fill:#43423E;" d="M476.54,265.01c-0.09-0.09-0.18-0.18-0.27-0.27
		C476.36,264.83,476.45,264.92,476.54,265.01z"/>
	<path style="fill-rule:evenodd;clip-rule:evenodd;fill:#E3BB99;" d="M487.34,267.14c-0.02,0.03-0.04,0.05-0.05,0.08
		C487.31,267.2,487.32,267.17,487.34,267.14L487.34,267.14z"/>
	<path style="fill-rule:evenodd;clip-rule:evenodd;fill:#D5A485;" d="M475.15,264.46c0.07-0.01,0.13,0.01,0.19,0.05
		c-2.61,0.5-5.22,1.14-7.88,0.27c0.61-0.61,1.49-0.62,2.22-0.97c1.75,0.02,3.49,0.11,5.21,0.51
		C474.98,264.36,475.07,264.41,475.15,264.46z"/>
	<path style="fill-rule:evenodd;clip-rule:evenodd;fill:#F1D9C6;" d="M481.43,283.9c-1.28,0.07-1.77-0.38-2.01-1.14
		c-1.18-3.72-1.13-7.51-0.22-11.23c0.43-1.76,1.86-2.86,3.76-3.26c0.83-0.17,1.43,0.09,1.73,0.68c1.1,2.16,2.63,4.1,3.36,6.44
		c0.57,1.8-0.07,3.36-1.2,4.74C485.31,281.99,483.54,283.55,481.43,283.9z"/>
	<path style="fill-rule:evenodd;clip-rule:evenodd;fill:#C99778;" d="M475.15,264.46c-0.09-0.05-0.18-0.1-0.27-0.15
		C474.98,264.36,475.07,264.41,475.15,264.46z"/>
	<path style="fill-rule:evenodd;clip-rule:evenodd;fill:#F6E6DA;" d="M487.12,276.54c-0.07,2.36-3.17,5.84-5.41,6.16
		c-0.58,0.08-1.19,0.07-1.37-0.63c-1-3.82-1.48-7.66,0.61-11.28c1.21-2.09,2.57-1.98,3.64,0.14c0.84,1.66,2.14,3.09,2.4,5.02
		C487.02,276.19,487.09,276.42,487.12,276.54z"/>
</g>
</svg>
