<?xml version="1.0" encoding="utf-8"?>
<!-- Generator: Adobe Illustrator 16.0.0, SVG Export Plug-In . SVG Version: 6.00 Build 0)  -->
<!DOCTYPE svg PUBLIC "-//W3C//DTD SVG 1.0//EN" "http://www.w3.org/TR/2001/REC-SVG-20010904/DTD/svg10.dtd" [
	<!ENTITY ns_flows "http://ns.adobe.com/Flows/1.0/">
	<!ENTITY ns_extend "http://ns.adobe.com/Extensibility/1.0/">
	<!ENTITY ns_ai "http://ns.adobe.com/AdobeIllustrator/10.0/">
	<!ENTITY ns_graphs "http://ns.adobe.com/Graphs/1.0/">
]>
<svg version="1.0" id="Layer_1" xmlns:x="&ns_extend;" xmlns:i="&ns_ai;" xmlns:graph="&ns_graphs;"
	 xmlns="http://www.w3.org/2000/svg" xmlns:xlink="http://www.w3.org/1999/xlink" xmlns:a="http://ns.adobe.com/AdobeSVGViewerExtensions/3.0/"
	 x="0px" y="0px" width="960px" height="560px" viewBox="0 0 960 560" style="enable-background:new 0 0 960 560;"
	 xml:space="preserve">
<g>
	<path style="fill-rule:evenodd;clip-rule:evenodd;fill:#090805;" d="M516.73,280.81c-0.18-0.63-0.35-1.26-0.53-1.89
		c-0.1-0.07-0.2-0.06-0.29,0.02c-0.25,0.88-0.49,0.26-0.74,0c-1.03-1.5-1.43-3.27-2.03-4.95c-0.06-0.18,0.1-0.27,0.28-0.29
		c0.42,0.01,0.83,0.12,1.25,0.02c0.14-0.09,0.27-0.18,0.14-0.37c-0.71-2.15-1.83-4.03-3.61-5.48c-0.09-0.09-0.18-0.1-0.29-0.03
		c-0.12,0.52,0.28,0.79,0.55,1.11c0.91,1.1,1.83,2.2,2.3,3.59c0.02,0.13-0.01,0.23-0.15,0.25c-0.12-0.01-0.25-0.05-0.36-0.09
		c-0.23-0.08-0.45-0.17-0.65-0.31c-1.17-0.97-2.3-2-3.48-2.97c-0.18-0.13-0.37-0.25-0.56-0.38c-0.58-0.39-1.19-0.69-1.9-0.79
		c-0.29-0.04-0.56-0.13-0.84-0.18c-1.29-0.08-2.49-0.41-3.58-1.12c-0.15-0.08-0.3-0.19-0.49-0.07c-1.16,0.03-2.32,0.06-3.31,0.78
		c-0.31,0.13-0.61-0.32-0.91,0c-0.52,0.63-0.73,1.41-1,2.15c-0.44,1.22-1.16,2.26-1.9,3.3c-0.13,0.18-0.31,0.44-0.57,0.25
		c-0.23-0.17-0.1-0.43,0-0.65c0.18-0.36,0.52-0.6,0.75-0.92c0.75-1.05,1.74-1.97,1.79-3.38c-0.08-0.1-0.17-0.12-0.28-0.05
		c-0.37,0.59-0.64,1.31-1.27,0.11c-0.41-0.78-1.27-1.19-2.17-1.33c-1.19-0.18-2.39-0.3-3.59-0.45c-0.07-0.09-0.15-0.11-0.25-0.05
		c-0.13,0.28-0.07,0.6-0.23,0.87c-0.04,0.09-0.1,0.19-0.14,0.28c-0.56,0.9-1.38,1.38-2.43,1.51c-1.68,0.21-3.23,0.87-4.72,1.59
		c-1.2,0.58-2.42,1.22-3.06,2.52c0.02,0.2,0.14,0.31,0.33,0.35c0.44-0.01,0.73-0.31,1.03-0.56c1.02-0.86,2.2-1.42,3.4-1.99
		c1.5-0.71,3.15-0.58,4.64-1.08c1.91-0.64,3.7-0.32,5.54,0.08c0.3,0.07,0.73,0.09,0.76,0.46c0.05,0.6-0.57,0.81-0.89,1.2
		c-0.19,0.23-0.43,0.35-0.73,0.14c-0.39-0.27-0.74-1-1.27-0.47c-0.44,0.44,0.31,0.9,0.34,1.41c0,0.04-0.02,0.08-0.03,0.12
		c-0.11,0.18-0.27,0.3-0.43,0.43c-0.44,0.36-0.71,0.89-1.19,1.21c-0.19,0.19-0.33,0.4-0.3,0.69c0.03,0.1,0.08,0.18,0.16,0.24
		c0.09,0.04,0.18,0.05,0.27,0.03c0.31-0.17,0.07,0.24,0.23,0.22c0.09,0.04,0.18,0.06,0.28,0.06c0.94,0.11,1.97,0.04,2.5,1.1
		c0.03,0.23,0.08,0.46,0.22,0.66c0.09,0.08,0.2,0.13,0.32,0.14c0.12-0.01,0.23-0.05,0.33-0.13c0.11-0.14,0.17-0.31,0.19-0.49
		c-0.11-0.8,0.19-1.16,1.03-0.98c0.3,0.06,0.62,0.07,0.92-0.05c0.16-0.08,0.26-0.2,0.29-0.37c-0.17-0.58-0.02-1.17-0.09-1.75
		c-0.04-0.22-0.12-0.42-0.23-0.61c0.13-1.73,1.24-2.82,2.64-2.28c2.95,1.13,5.59,2.73,7.1,5.71c0.74,1.46,0.94,3.17,2,4.47
		c0.84,1.03,1.26,2.19,1.57,3.45c0.2,0.82,0.19,1.67,0.38,2.48c0.08,0.16,0.19,0.29,0.4,0.26c0.41-1.32-0.06-2.56-0.37-3.81
		c-0.14-0.58-0.23-1.04,0.69-0.71c1.62,0.57,3.28,0.81,4.99,0.4c0.01-0.23-0.14-0.34-0.33-0.42c-0.55-0.17-1.11-0.09-1.67-0.13
		c-2.26-0.13-4.26-0.71-5.28-3.02c-0.44-0.99-0.7-2.02-0.77-3.12c-0.07-1.07,0-2.15-0.09-3.22c-0.32-1.35-1.01-2.47-2.04-3.39
		c-1.13-0.74-2.3-1.4-3.46-2.09c-0.08-0.05-0.14-0.13-0.23-0.16c0.15,0.04,0.25,0.17,0.4,0.23c1.02,0.46,2.09,0.74,3.19,0.95
		c0.43,0.12,0.89,0.06,1.32,0.21c0.26,0.07,0.52,0.15,0.76,0.27c0.63,0.31,1.2,0.68,1.32,1.45c0.24,0.56-0.15,1.31,0.52,1.74
		c0.09,0,0.15-0.04,0.21-0.09c0.36-0.27-0.04-1.03,0.55-1.03c0.41,0,0.66,0.52,0.97,0.83c0.23,0.22,0.43,0.47,0.59,0.74
		c0.15,0.23,0.31,0.45,0.41,0.72c0.7,1.42,1.1,2.96,1.69,4.42c0.1,0.19,0.2,0.38,0.32,0.57c0.08,0.13,0.17,0.26,0.27,0.39
		c0.18,0.25,0.34,0.52,0.54,0.75c0.18,0.2,0.36,0.39,0.57,0.56c0.46,0.28,0.89,0.7,1.51,0.53c0.02,0,0.03-0.04,0.04-0.11
		C516.81,280.94,516.79,280.88,516.73,280.81z M489.87,268.88c-0.27,0.11-0.53,0.14-0.78-0.04c0.47-0.78,0.72-1.87,1.98-1.65
		c1.59,0.28,3.29,0.38,4.08,2.17c0.06,0.14,0.08,0.3,0.13,0.45c-0.17-0.04-0.34-0.07-0.51-0.12
		C493.17,269.23,491.53,269,489.87,268.88z M504.35,270.43c1.33,0.88,2.18,2.06,2.24,3.86c-0.05,0.31-0.14,0.77-0.22,1.23
		c-0.46-0.13-0.58-0.62-0.89-0.89c-2.26-1.92-4.43-4.03-7.6-4.35c-0.58-0.06-0.61-0.22-0.42-0.75c0.69-1.95,2.27-2.4,3.83-1.14
		C502.24,269.15,503.33,269.75,504.35,270.43z"/>
	<path style="fill-rule:evenodd;clip-rule:evenodd;fill:#469C4C;" d="M447.88,271.69c0.11-0.07,0.21-0.14,0.32-0.21
		c0.44-0.13,0.74-0.48,1.08-0.75l-0.02,0.01c0.33-0.13,0.54-0.43,0.85-0.58c0.72-0.27,1.33-0.83,2.16-0.84
		c2.33,0.13,3.72,1.89,3.26,4.15c-0.08,0.39-0.22,0.77-0.32,1.15c-0.19,0.51-0.64,0.71-1.11,0.81c-2.53,0.54-4.86,1.55-7,3.01
		c-0.36,0.24-0.77,0.44-1.22,0.47c-0.12,0-0.25,0.01-0.37,0.02c-0.12,0.02-0.25,0.03-0.37,0.02c-0.68-0.16-1.31-0.39-1.5-1.18
		c0.01-0.31,0.26-0.54,0.32-0.83l0,0.04c0.45-0.59,0.88-1.18,1.16-1.88c0.24-0.34,0.62-0.58,0.74-1.01
		c0.25-0.33,0.63-0.56,0.75-0.99l-0.01,0.03C446.99,272.63,447.54,272.26,447.88,271.69z"/>
	<path style="fill-rule:evenodd;clip-rule:evenodd;fill:#0C0B07;" d="M468.52,259.26c1.34-0.25,2.68-0.49,4.03-0.74
		c0.23-0.11,0.29,0.04,0.32,0.22c0.25,0.11-0.7,0.38,0.05,0.42c0.36,0.02,0.69-0.11,1.04-0.19c0.95-0.16,1.91,0,2.86-0.11
		c0.17-0.05,0.35-0.08,0.52-0.07c0.12,0,0.23,0.02,0.34,0.05c0.27,0.08,0.55,0.09,0.83,0.09c1.35,0.15,2.38-0.7,3.54-1.14
		c0.41-0.11,0.78-0.33,1.18-0.46c0.31-0.09,0.63-0.09,0.95-0.12c0.53,0.01,1.07-0.07,1.54,0.27c-0.29,0.6-0.29,0.6-1.67,0.75
		c-0.23,0.07-0.47,0.1-0.7,0.16c-0.16,0.05-0.32,0.09-0.48,0.16c-0.14,0.07-0.39,0.1-0.41,0.21c-0.09,0.35,0.23,0.16,0.33,0.16
		c0.6,0.02,1.2,0.03,1.79-0.02c0.17-0.02,0.32-0.1,0.48-0.16c0.11-0.05,0.21-0.1,0.32-0.14c0.82-0.28,1.64-0.63,2.5-0.17
		c0.09,0.1,0.12,0.21,0.09,0.33c-0.33,0.43-0.86,0.21-1.27,0.37c0.44-0.07,0.86-0.06,1.2,0.28c0.03,0.03,0.05,0.06,0.07,0.1
		c-0.01,0.22-0.14,0.34-0.32,0.43c-0.45,0.16-0.91,0.12-1.36,0.04c-0.49-0.18-1-0.17-1.5-0.14c-1.26,0.14-2.59-0.36-3.77,0.45
		c-0.14,0.13-0.3,0.22-0.49,0.24c-0.66-0.28-1.34-0.53-2.06-0.59c-0.6-0.19-1.21-0.1-1.81-0.11c-0.42,0.02-0.85,0.01-1.27,0.03
		c-0.61,0.18-1.25,0.21-1.89,0.21c-0.51,0-0.82,0.1-0.36,0.65c0.96,1.16,1.88,2.37,3.07,3.31c0.76,0.61,1.62,1.05,2.6,1.09
		c1.42,0.05,2.83,0.39,4.27,0.19c0.18,0.06,0.31,0.17,0.34,0.37c-0.79,0.68-1.5,1.52-2.66,1.58c-0.08-0.08-0.13-0.18-0.14-0.3
		c0.15-0.59-0.23-0.65-0.66-0.66c-0.55-0.02-1.1,0.02-1.64-0.11c-2.9-0.62-4.5-2.87-6.2-4.99c-0.15-0.24-0.33-0.45-0.53-0.65
		c-0.89-1.14-2.13-0.57-3.23-0.68c-0.11-0.05-0.18-0.14-0.2-0.26C468.19,259.38,468.37,259.34,468.52,259.26z"/>
	<path style="fill-rule:evenodd;clip-rule:evenodd;fill:#0E0E0A;" d="M461.49,257.07c1.49-0.56,2.84-0.8,3.77,0.98
		c0.35,0.67,0.99,1.19,1.78,1.42c0.09-0.08,0.19-0.09,0.3-0.03c0.08,0.07,0.15,0.16,0.21,0.26c0.25,0.54,0.6,1.02,0.92,1.51
		c0.14,0.22,0.29,0.44,0.44,0.65c0.17,0.18,0.35,0.15,0.53,0.04c0.29-0.17,0.62-0.31,0.88-0.05c0.28,0.29-0.08,0.58-0.12,0.87
		c0,0.09,0.01,0.18,0.05,0.26c0.4,0.21,0.82-0.04,1.21,0.09c0.22,0.07,0.42,0.16,0.44,0.43c-0.17,0.33-0.53,0.33-0.81,0.45
		c-0.23,0.09-0.46,0.2-0.64,0.38c-0.07,0.08-0.13,0.15-0.2,0.23c-0.13,0.17-0.26,0.33-0.41,0.48c-0.52,0.42-0.49,1.05-0.63,1.63
		c-0.16,0.67-0.46,0.73-0.77,0.06c-0.11-0.38-0.31-0.67-0.69-0.81c-0.24-0.1-0.49-0.18-0.73-0.27c-0.73-0.37-0.93,0.46-1.42,0.64
		c-0.12,0.01-0.22-0.03-0.31-0.11c-0.09-0.16-0.1-0.32-0.07-0.49c0.65-0.73,0.68-1.87,1.63-2.4c0.15-0.08,0.21-0.26,0.1-0.4
		c-0.17-0.22-0.43-0.2-0.65-0.1c-0.87,0.38-1.79,0.68-2.61,1.17c-0.68,0.41-1.38,0.79-2.02,1.26c-0.31,0.23-0.62,0.53-1.08,0.34
		c-0.07-0.06-0.09-0.12-0.07-0.18c0.02-0.06,0.04-0.1,0.06-0.1c1.76-1.69,3.98-2.54,6.19-3.4c0.23-0.1,0.08-0.44,0.34-0.53
		c1.21,0.66,1.02,1.94,1.32,3c0.05,0.18-0.25,0.31-0.11,0.46c0.05,0.06,0.26-0.13,0.37-0.23c0.14-0.12,0.2-0.18,0.12-0.45
		c-0.83-2.54-2.76-4.27-4.47-6.17c-0.39-0.43-0.85-0.53-1.39-0.55C462.45,257.36,461.9,257.52,461.49,257.07z"/>
	<path style="fill-rule:evenodd;clip-rule:evenodd;fill:#34934A;" d="M461.49,257.07c3.18-0.67,4.17,2.13,5.83,3.77
		c0.67,0.66,1.26,1.54,1.28,2.63c0,0.19,0.1,0.91,0.65,0.29c0.16-0.18,0.33,0.06,0.33,0.16c-0.01,0.68-0.58,0.85-1.05,1.12
		c-0.45,0.25-0.84,0.18-1.18-0.17c-0.05-0.05-0.01-0.24,0.05-0.33c0.7-1.06,0.61-1.93-0.34-3.18c-0.4-0.4-0.76-0.83-1.13-1.25
		c-0.19-0.21-0.44-0.34-0.63-0.54c-1.26-1.34-2.85-1.36-4.5-1.17c-0.12,0.01-0.24,0-0.36,0c0.12,0.03,0.25-0.01,0.38,0.01
		c0.17,0.03,0.41-0.08,0.46,0.21c-0.69,0.28-1.4,0.11-2.1,0.1c-0.11-0.06-0.18-0.15-0.22-0.27c-0.03-0.19,0.01-0.36,0.15-0.5
		c0.67-0.67,1.62-0.58,2.42-0.89L461.49,257.07z"/>
	<path style="fill-rule:evenodd;clip-rule:evenodd;fill:#191714;" d="M509.96,287.26c0.08,0.1,0.16,0.19,0.24,0.29
		c-1.31,8.04-6.33,12.94-13.89,14.37c-0.22-0.19-0.63,0.09-0.76-0.31c0.13-0.35,0.43-0.39,0.74-0.45c5.6-1.05,9.68-4.03,11.99-9.33
		c0.5-1.14,0.93-2.28,1.12-3.51C509.46,287.92,509.38,287.4,509.96,287.26z"/>
	<path style="fill-rule:evenodd;clip-rule:evenodd;fill:#181611;" d="M488.5,256.79c1.24,0.6,2.56,1.07,3.71,1.81
		c1.98,1.27,3.67,0.84,5.3-0.58c0.29-0.25,0.53-0.64,1.02-0.38c-0.22,0.27-0.39,0.58-0.65,0.79c-1.01,0.81-1.85,1.77-2.37,2.93
		c-1.14,2.55-3.32,3.58-5.84,4.15c-0.22,0.13-0.31,0-0.36-0.19c0.15-0.39,0.5-0.49,0.84-0.58c2.32-0.63,4.06-1.95,5-4.22
		c0.08-0.18,0.22-0.33,0.35-0.47c-0.02-0.26-0.17,0.01-0.24-0.05c-1.18,0.22-2.21-0.14-3.2-0.71c-0.54-0.33-1.16-0.51-1.73-0.77
		c-0.61-0.31-1.2-0.65-1.78-1.02c-0.21-0.18-0.52-0.32-0.37-0.7C488.27,256.75,488.39,256.75,488.5,256.79z"/>
	<path style="fill-rule:evenodd;clip-rule:evenodd;fill:#221E1A;" d="M489.6,301.92c-3.39-0.37-6.6-1.43-9.67-2.84
		c-1.08-0.5-0.95,0.72-1.55,0.8c-0.12-0.06-0.19-0.15-0.21-0.28c0.02-0.61,0.46-0.99,0.78-1.42c1.07-1.48,2.12-2.95,2.29-4.85
		c0.04-0.39,0.08-0.9,0.65-1.01c0.23,0.13,0.34,0.34,0.4,0.59c0,1.61-0.65,3.01-1.43,4.37c-0.67,1.17-0.63,1.27,0.67,1.76
		c2.39,0.9,4.79,1.74,7.33,2.13c0.32,0.05,0.64,0.09,0.82,0.42C489.71,301.71,489.69,301.82,489.6,301.92z"/>
	<path style="fill-rule:evenodd;clip-rule:evenodd;fill:#1B1813;" d="M498.48,267.67c-0.24,0.35-0.46,0.04-0.69-0.03
		c-0.17-0.2-0.19-0.46-0.11-0.68c0.62-1.77,0.91-3.62,1.29-5.45c0.02-0.11,0.06-0.24,0.2-0.27c-0.1-0.01-0.15,0.04-0.17,0.14
		c-0.43,1.9-0.67,3.84-1.39,5.66c-0.21,0.54-0.23,1.31-1.1,1.32l-0.07,0.01l-0.07-0.01c0.89-2.12,1.62-4.28,1.88-6.58
		c0.03-0.23,0.11-0.46,0.2-0.68c0.18-0.49,0.41-1.13,1.02-0.91c0.5,0.18,0.25,0.83,0.15,1.27c-0.44,1.96-0.91,3.91-1.35,5.86
		C498.24,267.42,498.4,267.56,498.48,267.67z"/>
	<path style="fill-rule:evenodd;clip-rule:evenodd;fill:#22201B;" d="M441.9,293.32c-0.4-3.52-0.67-7.02,0.87-10.38
		c0.15,0.03,0.24,0.12,0.32,0.24c0.04,0.09,0.05,0.18,0.06,0.27c-0.02,0.14-0.05,0.27-0.09,0.4c-0.03,0.13-0.07,0.26-0.12,0.39
		c-0.04,0.13-0.08,0.26-0.12,0.39c-0.03,0.14-0.07,0.27-0.11,0.4c-0.05,0.19-0.09,0.38-0.13,0.57c-0.1,0.39-0.21,0.79-0.18,1.2
		c0,0.11,0,0.21,0,0.32c-0.01,0.32-0.02,0.65-0.07,0.97c-0.02,0.11-0.04,0.21-0.07,0.32c-0.16,0.42-0.05,0.84,0.07,1.25
		c0.08,0.39,0.08,0.79,0.08,1.19c0,0.17,0.02,0.35,0.03,0.52c0.01,0.24,0.1,0.46,0.14,0.7c0.09,0.63,0.14,1.26-0.03,1.88
		c-0.08,0.18-0.18,0.34-0.42,0.33c-0.03-0.21-0.06-0.42-0.09-0.63C442.04,293.51,441.94,293.43,441.9,293.32z"/>
	<path style="fill-rule:evenodd;clip-rule:evenodd;fill:#1E1C17;" d="M511.22,267.87c-0.09,0.01-0.18,0.01-0.28,0.02
		c-0.74,0.11-1.15-0.57-1.77-0.75c-1.78-0.63-3.56-0.8-5.36-0.04c-0.55,0.23-1.15,0.29-1.74,0.06c-0.1-0.09-0.19-0.17-0.29-0.26
		c1.86-0.42,3.61-1.33,5.63-0.98C508.92,266.18,510.25,266.64,511.22,267.87z"/>
	<path style="fill-rule:evenodd;clip-rule:evenodd;fill:#24221E;" d="M450.26,303.15c-2.92-1.71-5.77-3.49-6.92-6.96
		c0.09-0.08,0.2-0.11,0.32-0.1c0.48,0.14,0.67,0.54,0.86,0.94c0.88,1.81,2.12,3.22,3.95,4.15c0.83,0.42,1.89,0.78,2.07,1.97
		C450.44,303.25,450.35,303.25,450.26,303.15z"/>
	<path style="fill-rule:evenodd;clip-rule:evenodd;fill:#1D1912;" d="M489.36,265.27c0.1,0.08,0.2,0.16,0.3,0.24
		c-0.29,0.41-0.99-0.04-1.12,0.47c-0.04,0.16,0.51,0.47,0.8,0.72l-0.1,0.01l-0.1-0.01c-0.31,0.26-0.61,0.13-0.92,0.01
		c-0.88-0.5-1.81-0.72-2.83-0.66c-0.68,0.04-1.43,0.25-2.02-0.34c-0.09-0.07-0.18-0.15-0.27-0.22c-0.05-0.14-0.01-0.26,0.11-0.35
		c0.43-0.25,0.91-0.22,1.37-0.23c0.53,0.03,1.05,0.01,1.58,0.01c0.13,0,0.26,0,0.39,0.01C487.45,265.23,488.46,264.79,489.36,265.27
		z"/>
	<path style="fill-rule:evenodd;clip-rule:evenodd;fill:#282720;" d="M488.5,256.79c-0.07,0.04-0.15,0.06-0.23,0.05
		c-0.31,0.26-0.68,0.23-1.01,0.1c-1.85-0.74-3.79-0.71-5.72-0.73c-0.34-0.07-0.74-0.04-0.81-0.53
		C483.43,255.29,486.07,255.3,488.5,256.79z"/>
	<path style="fill-rule:evenodd;clip-rule:evenodd;fill:#24221A;" d="M452.16,269.55c-0.82,0-1.41,0.61-2.16,0.81
		c-0.06-0.06-0.08-0.12-0.06-0.18c0.02-0.06,0.04-0.09,0.07-0.09c2.29-1.57,4.71-1.34,7.18-0.53c0.13-0.09,0.23-0.06,0.31,0.07
		c0.01,0.14-0.04,0.25-0.16,0.33c-0.18,0.1-0.37,0.14-0.57,0.14c-1.15-0.24-2.31-0.41-3.47-0.57
		C452.91,269.47,452.54,269.34,452.16,269.55z"/>
	<path style="fill-rule:evenodd;clip-rule:evenodd;fill:#25231E;" d="M450.26,303.15c0.08,0,0.17,0,0.25-0.01
		c0.13-0.1,0.31-0.17,0.44-0.08c1.64,1.08,3.59,1.3,5.4,1.91c0.34,0.12,0.68,0.24,0.9,0.56c0.01,0.22-0.04,0.38-0.31,0.28
		C454.65,305.06,452.07,305.06,450.26,303.15z"/>
	<path style="fill-rule:evenodd;clip-rule:evenodd;fill:#313129;" d="M480.73,255.69c0.24,0.07,0.48,0.13,0.72,0.2
		c0.03,0.36-0.24,0.42-0.49,0.51c-1.07,0.08-2.14,0.17-3.18,0.48c-0.8,0.11-1.43,0.82-2.31,0.64c-0.12-0.04-0.22-0.11-0.3-0.22
		C476.82,256.09,478.75,255.8,480.73,255.69z"/>
	<path style="fill-rule:evenodd;clip-rule:evenodd;fill:#24231D;" d="M461.27,258.62c-0.4-0.16-0.88,0.11-1.25-0.23
		c0.43-0.04,0.87-0.03,1.28-0.14c2.1-0.55,3.57,0.44,4.86,1.92c-0.1,0.12-0.21,0.13-0.33,0.03
		C464.5,259.14,463.17,258.07,461.27,258.62z"/>
	<path style="fill-rule:evenodd;clip-rule:evenodd;fill:#282420;" d="M478.39,299.87c-1.53,1.73-3.21,3.24-5.54,3.79
		c-0.11,0.09-0.21,0.09-0.32,0.01c-0.03-0.53,0.4-0.65,0.75-0.78c1.47-0.57,2.7-1.46,3.77-2.6c0.31-0.33,0.63-0.75,1.21-0.55
		C478.3,299.77,478.34,299.82,478.39,299.87z"/>
	<path style="fill-rule:evenodd;clip-rule:evenodd;fill:#211C17;" d="M514.61,273.63c0.07-0.09,0.14-0.18,0.21-0.27
		c1.03,1.71,1.13,3.66,1.38,5.57c-0.09,0-0.18,0.01-0.28,0.01c-0.56-0.15-0.52-0.67-0.58-1.06c-0.19-1.21-0.41-2.41-0.81-3.58
		C514.46,274.08,514.42,273.83,514.61,273.63z"/>
	<path style="fill-rule:evenodd;clip-rule:evenodd;fill:#070705;" d="M489.6,301.92c0.01-0.07,0.02-0.14,0.02-0.22
		c0.48-0.44,1.07-0.33,1.63-0.35c0.88,0.07,1.76-0.01,2.63-0.07c0.6-0.04,1.21-0.08,1.68,0.42c0.25,0.07,0.49,0.14,0.74,0.22
		C494.07,302.42,491.84,301.82,489.6,301.92z"/>
	<path style="fill-rule:evenodd;clip-rule:evenodd;fill:#292722;" d="M456.93,305.81c0.09-0.08,0.18-0.15,0.27-0.23
		c1.7-0.35,3.42-0.13,5.14-0.12c0.28,0.08,0.59,0.13,0.62,0.51C460.94,306.2,458.92,306.44,456.93,305.81z"/>
	<path style="fill-rule:evenodd;clip-rule:evenodd;fill:#1C1B16;" d="M442.97,283.23c-0.07-0.09-0.13-0.19-0.2-0.28
		c0.62-1.51,1.88-2.48,3.03-3.53c0.04-0.04,0.08-0.14,0.05-0.18c-0.03-0.06-0.12-0.08-0.18-0.12c-0.02-0.12,0.02-0.22,0.14-0.28
		c0.39-0.04,0.51,0.19,0.53,0.52c-0.08,0.61-0.55,0.95-0.94,1.33c-0.77,0.75-1.49,1.54-2.13,2.4
		C443.19,283.16,443.09,283.21,442.97,283.23z"/>
	<path style="fill-rule:evenodd;clip-rule:evenodd;fill:#1B1914;" d="M515.51,283.43c-0.09-0.07-0.18-0.14-0.27-0.21
		c0.43-0.88,1.3-0.54,1.96-0.61c0.76-0.08,0.02-0.45,0.21-0.59c0.1-0.08,0.19-0.08,0.28,0.02c0.56,0.31,1.12,0.63,1.68,0.94
		c-0.66,0.09-1.32,0.18-1.98,0.26C516.76,283.31,516.14,283.37,515.51,283.43z"/>
	<path style="fill-rule:evenodd;clip-rule:evenodd;fill:#282622;" d="M443.81,279.47c-0.91,0.33-1.83,0.65-2.74,0.98
		c-0.26,0.1-0.49,0.08-0.57-0.18c-0.03-0.09,0.24-0.26,0.37-0.4c0.07-0.08,0.16-0.13,0.26-0.16c0.07-0.03,0.15-0.07,0.22-0.1
		c0.15,0.01,0.3-0.02,0.44-0.07c0.6-0.16,1.16-0.52,1.82-0.31C443.72,279.29,443.78,279.37,443.81,279.47z"/>
	<path style="fill-rule:evenodd;clip-rule:evenodd;fill:#1F1E19;" d="M460.57,265.27c0.01,0.09,0.02,0.19,0.03,0.28
		c-0.51,1.28-1.6,2.06-2.58,2.93c-0.12,0-0.22-0.04-0.31-0.11C458.4,267.1,459.42,266.12,460.57,265.27z"/>
	<path style="fill-rule:evenodd;clip-rule:evenodd;fill:#0E0E0A;" d="M461.52,257.05c-0.79,0.33-1.59,0.66-2.38,0.99
		c-0.18,0.15-0.16,0.31-0.05,0.49c0.04,0.06,0.06,0.12,0.08,0.18c-0.26,0.02-0.59,0.22-0.75-0.1c-0.15-0.3,0.13-0.53,0.34-0.7
		C459.56,257.27,460.49,256.98,461.52,257.05z"/>
	<path style="fill-rule:evenodd;clip-rule:evenodd;fill:#1E1D18;" d="M469.91,304.79c-1.33,0.45-2.69,0.39-4.06,0.32
		c-0.08-0.13-0.07-0.26,0.04-0.37c1.19-0.38,2.42-0.39,3.65-0.39C469.74,304.44,469.93,304.53,469.91,304.79z"/>
	<path style="fill-rule:evenodd;clip-rule:evenodd;fill:#2C2721;" d="M465.84,304.87c0,0.08,0.01,0.16,0.01,0.25
		c-0.85,0.68-1.91,0.64-2.9,0.88c-0.18-0.07-0.35-0.14-0.53-0.21C463.41,304.89,464.61,304.82,465.84,304.87z"/>
	<path style="fill-rule:evenodd;clip-rule:evenodd;fill:#35302A;" d="M469.91,304.79c-0.09-0.07-0.17-0.14-0.26-0.22
		c0.74-0.96,1.72-1.23,2.88-0.97c0.1,0.02,0.21,0.03,0.31,0.05C471.96,304.27,470.9,304.44,469.91,304.79z"/>
	<path style="fill-rule:evenodd;clip-rule:evenodd;fill:#2B2922;" d="M475.17,257.31c0.11,0.02,0.23,0.03,0.34,0.05
		c-0.23,1.07-1.32,0.91-1.97,1.37c-0.1,0.05-0.21,0.09-0.32,0.12c-0.06,0.01-0.11,0.02-0.17,0.02c-0.12-0.01-0.21-0.07-0.26-0.18
		c-0.08-0.06-0.15-0.12-0.23-0.17C473.42,258.11,474.29,257.71,475.17,257.31z"/>
	<path style="fill-rule:evenodd;clip-rule:evenodd;fill:#15120E;" d="M445.68,278.91c-0.01,0.07-0.01,0.14-0.01,0.21
		c-0.56,0.43-1.21,0.44-1.87,0.36l-0.04-0.08c0.15-0.96,1-0.42,1.46-0.69c0.06,0.01,0.13,0.01,0.19,0c0.06,0.04,0.13,0.07,0.21,0.1
		L445.68,278.91z"/>
	<path style="fill-rule:evenodd;clip-rule:evenodd;fill:#4D4A44;" d="M445.21,275.08c-0.22,0.77-0.54,1.46-1.26,1.9
		c0.21-0.84,0.76-1.47,1.25-2.14c0.07,0.05,0.1,0.1,0.08,0.16C445.26,275.05,445.23,275.08,445.21,275.08z"/>
	<path style="fill-rule:evenodd;clip-rule:evenodd;fill:#282621;" d="M465.84,260.2c0.11-0.01,0.22-0.02,0.33-0.03
		c0.39,0.32,0.81,0.63,0.89,1.19c-0.01,0.22-0.01,0.44-0.29,0.51C466.86,261.09,466.11,260.78,465.84,260.2z"/>
	<path style="fill-rule:evenodd;clip-rule:evenodd;fill:#4D4A44;" d="M447.88,271.69c-0.09,0.78-0.73,1.08-1.28,1.46
		C446.77,272.44,447.35,272.08,447.88,271.69z"/>
	<path style="fill-rule:evenodd;clip-rule:evenodd;fill:#302C28;" d="M517.69,282.04c-0.11,0.01-0.22,0.02-0.32,0.04
		c-0.77,0.06-0.85-0.35-0.67-0.95c0.01-0.1,0.03-0.2,0.04-0.31C517.05,281.22,517.37,281.63,517.69,282.04z"/>
	<path style="fill-rule:evenodd;clip-rule:evenodd;fill:#474C42;" d="M442.26,278.88c0.41-0.41,0.82-0.82,1.23-1.23
		c0.04,0.04,0.08,0.08,0.13,0.11c0.08,0.79-0.39,1.14-1.08,1.29C442.42,279.04,442.32,278.98,442.26,278.88z"/>
	<path style="fill-rule:evenodd;clip-rule:evenodd;fill:#0C0B08;" d="M457.71,268.37c0.09,0.01,0.19,0.02,0.28,0.03
		c0.18,0.56-0.03,0.93-0.56,1.15c-0.08,0-0.16,0.01-0.24,0.01C457.29,269.13,457.36,268.69,457.71,268.37z"/>
	<path style="fill-rule:evenodd;clip-rule:evenodd;fill:#605E59;" d="M441.62,279.82c-0.09-0.07-0.17-0.13-0.26-0.2
		c0.2-0.37,0.5-0.61,0.9-0.74l0.1,0.04C442.45,279.5,441.94,279.59,441.62,279.82z"/>
	<path style="fill-rule:evenodd;clip-rule:evenodd;fill:#585950;" d="M446.6,273.11c0.06,0.52-0.28,0.78-0.66,1.02
		c-0.07,0.12-0.13,0.11-0.2,0C446.03,273.79,446.31,273.45,446.6,273.11z"/>
	<path style="fill-rule:evenodd;clip-rule:evenodd;fill:#3B3A33;" d="M449.27,270.73c-0.18,0.52-0.56,0.72-1.08,0.75
		C448.53,271.2,448.71,270.69,449.27,270.73z"/>
	<path style="fill-rule:evenodd;clip-rule:evenodd;fill:#42433D;" d="M445.74,274.13c0.07,0.01,0.13,0.01,0.2,0
		c-0.07,0.45-0.33,0.75-0.73,0.95c0-0.08,0-0.16-0.01-0.24C445.38,274.61,445.56,274.37,445.74,274.13z"/>
	<path style="fill-rule:evenodd;clip-rule:evenodd;fill:#F8F7F8;" d="M467.28,259.53c-0.08-0.02-0.16-0.04-0.24-0.06
		c0.44-0.42,0.98-0.18,1.48-0.21c-0.1,0.08-0.19,0.17-0.29,0.25C467.93,259.75,467.61,259.76,467.28,259.53z"/>
	<path style="fill-rule:evenodd;clip-rule:evenodd;fill:#383632;" d="M442.13,294.27c0.08-0.09,0.15-0.18,0.23-0.28
		c0.43,0.05,0.51,0.36,0.53,0.71c-0.05,0.17-0.16,0.28-0.34,0.32C442.41,294.77,442.27,294.52,442.13,294.27z"/>
	<path style="fill-rule:evenodd;clip-rule:evenodd;fill:#2C2B27;" d="M442.55,295.02c0.06-0.09,0.13-0.18,0.19-0.26
		c0.37,0.06,0.48,0.32,0.47,0.65c-0.02,0.12-0.08,0.22-0.17,0.31C442.88,295.48,442.71,295.25,442.55,295.02z"/>
	<path style="fill-rule:evenodd;clip-rule:evenodd;fill:#3F3C35;" d="M450.01,270.08c0,0.09-0.01,0.18-0.01,0.27
		c-0.16,0.31-0.42,0.41-0.75,0.39C449.37,270.37,449.68,270.22,450.01,270.08z"/>
	<path style="fill-rule:evenodd;clip-rule:evenodd;fill:#171512;" d="M443.04,295.71c0.01-0.1,0.03-0.21,0.04-0.31
		c0.45,0.06,0.65,0.3,0.53,0.76c-0.09,0.01-0.18,0.02-0.28,0.03C443.24,296.04,443.14,295.88,443.04,295.71z"/>
	<path style="fill-rule:evenodd;clip-rule:evenodd;fill:#5F5A54;" d="M443.95,276.95c-0.06,0.26-0.12,0.51-0.19,0.77
		c-0.07,0.11-0.15,0.12-0.25,0.03l-0.03-0.09C443.64,277.42,443.8,277.18,443.95,276.95z"/>
	<path style="fill-rule:evenodd;clip-rule:evenodd;fill:#383632;" d="M441.9,293.32c0.05,0.11,0.09,0.21,0.14,0.32
		C442,293.53,441.95,293.43,441.9,293.32z"/>
	<path style="fill-rule:evenodd;clip-rule:evenodd;fill:#605E59;" d="M441.13,279.72c-0.09,0.05-0.17,0.11-0.26,0.16
		C440.96,279.82,441.05,279.77,441.13,279.72z"/>
	<path style="fill-rule:evenodd;clip-rule:evenodd;fill:#CA4C2D;" d="M509.96,287.26c-0.43,2.83-1.53,5.39-3.1,7.76
		c-2.51,3.8-6.26,5.59-10.56,6.46c-0.73-0.41-1.15-1.11-1.56-1.78c-1-1.65-2.45-2.63-4.27-3.25c-3.03-1.03-4.78-3.14-5.07-6.42
		c-0.2-2.29-1.02-4.35-2.75-5.94c-0.88-0.81-1.37-1.98-2.51-2.53c-0.32-0.22-0.52-0.51-0.53-0.9c0.35-0.83,0.85-0.46,1.29-0.12
		c0.49,0.39,0.77,0.97,1.21,1.41c0.07,0.08,0.13,0.17,0.18,0.26c0.05,0.08,0.1,0.17,0.15,0.26c0.03,0.04,0.05,0.08,0.08,0.12
		c0.06,0.07,0.11,0.15,0.17,0.22c0.03,0.03,0.06,0.07,0.09,0.1c0.07,0.07,0.13,0.13,0.2,0.2c0.04,0.03,0.07,0.07,0.11,0.1
		c0.08,0.06,0.15,0.13,0.22,0.2c0.04,0.03,0.08,0.07,0.12,0.1c0.08,0.07,0.16,0.14,0.24,0.21c0.04,0.04,0.08,0.08,0.12,0.11
		c1.22,1.03,2.03,2.33,2.47,3.86c0.55,1.92,1.76,2.95,3.81,2.91c0.62-0.01,1.2,0.11,1.43,0.81c0.2,0.25-0.18,0.85,0.49,0.83
		c0.07-0.07,0.14-0.13,0.21-0.21c0.24-0.29,0.32-0.69,0.63-0.93c0.79-0.66,1.73-0.56,2.64-0.52c1.92,0.08,3.75-0.2,5.44-1.14
		c0.35-0.19,0.71-0.36,0.98-0.67c0.54-0.33,0.87-0.86,1.22-1.37c0.81-0.59,1.15-1.72,2.24-1.99c0.83,0.04,1.04-0.24,0.48-0.92
		c-0.48-0.55-0.23-1.13-0.08-1.71c0.65-2.46-0.48-5.59-2.5-7.01c-1.41-0.99-2.85-1.12-4.4-0.41c-0.65,0.3-1.24,0.74-1.98,0.83
		c-0.28-0.02-0.46-0.16-0.57-0.41c-0.66-0.46-0.07-1.09-0.22-1.62c0.09-0.14,0.11-0.29,0.09-0.45c-0.05-0.38,0.23-0.53,0.49-0.69
		c-0.35,0.11-0.58,0.4-0.88,0.6c-0.39-0.13-0.32-0.34-0.17-0.64c1.24-2.56,2.16-2.87,4.76-1.5c3.26,1.71,5.89,3.97,6.76,7.79
		c0.15,0.68,0.5,1.39,0.95,1.91C509.64,282.94,509.89,285.07,509.96,287.26z"/>
	<path style="fill-rule:evenodd;clip-rule:evenodd;fill:#CA5231;" d="M482.16,282.28c-0.54-0.28-0.8-0.83-1.18-1.26
		c-0.29-0.33-0.57-0.96-1.21-0.44c-0.11,0.07-0.25,0.08-0.33-0.01c-1-1.19-1.98-2.4-2.81-3.7c-0.46-0.73,0.06-1.54,0.59-2.17
		c0.42-0.49,0.96-0.84,1.56-1.07c3.06-3.09,7.14-3.57,11.11-4.24c1.51-0.26,3.06,0.33,4.56,0.71c0.44,0.11,0.51,0.4,0.25,0.82
		c-0.42,0.68-1.12,1.09-1.58,1.76c-0.22,0.32-0.72-0.43-1.07-0.73c-0.19-0.16-0.3-0.5-0.66-0.32c0.1,0.2,0.19,0.41,0.32,0.59
		c0.29,0.39,0.87,0.74,0.07,1.19c-0.78,0.02-1.42-0.5-2.18-0.53c-0.46-0.16-0.81-0.49-1.19-0.78c-1.39-1.09-3.11-1.12-4.49,0
		c-1.05,0.85-2.07,1.72-3.2,2.49c-1.33,0.91-1.49,2.51-0.45,3.89c0.82,1.09,1.56,2.2,2.02,3.49
		C482.28,282.08,482.24,282.19,482.16,282.28z"/>
	<path style="fill-rule:evenodd;clip-rule:evenodd;fill:#6AA850;" d="M483.35,265.69c1.69,0.18,3.5-0.48,5.02,0.78
		c0.06,0.22-0.07,0.32-0.24,0.4c-0.11,0.03-0.23,0.04-0.34,0.04c-1.57-0.15-3.04,0.32-4.49,0.82c-0.07,0.02-0.15,0.01-0.2,0.08
		c0.11-0.04,0.22-0.08,0.34-0.12c0.38-0.12,0.74-0.3,1.13-0.36c0.42-0.07,1.38-0.76,0.81,0.58c-0.02,0.05-0.07,0.1-0.07,0.16
		c0.03-0.07,0.09-0.13,0.12-0.21c0.3-0.87,1-1.03,1.81-1.02c0.68,0.15,1.52-0.1,1.87,0.8c-0.37,1.12-1.26,1.73-2.33,1.9
		c-3.13,0.49-5.91,1.68-8.21,3.89c-0.38,0.61-0.9,1.38-1.58,1.16c-0.76-0.25-0.2-1.12-0.19-1.71c0.06-2.75,1.85-4.33,3.94-5.69
		C481.65,266.76,482.33,265.92,483.35,265.69z"/>
	<path style="fill-rule:evenodd;clip-rule:evenodd;fill:#349748;" d="M516.69,281.12c0.07,0.43,0.18,0.82,0.67,0.95
		c0.18,0.19,0.36,0.39,0.53,0.58c-0.25,0.08-0.49,0.14-0.73,0.24c-0.62,0.24-1.34-0.11-1.92,0.33c-1.47,0.1-2.96,0.06-4.35-0.41
		c-2.67-0.9-3.48-3.18-3.77-5.69c-0.14-1.21-0.04-2.45-0.05-3.68c1.02-0.4,1.23,0.42,1.45,1.05c0.26,0.76,0.24,1.6,0.11,2.37
		c-0.42,2.52,2.85,4.89,5.45,3.79c0.4-0.17,0.76-0.47,1.23-0.31C515.78,280.6,516.24,280.86,516.69,281.12z"/>
	<path style="fill-rule:evenodd;clip-rule:evenodd;fill:#0D0C09;" d="M480.74,267.2c-0.78,0.8-1.55,1.61-2.34,2.39
		c-1.28,1.27-1.25,2.96-1.48,4.55c-0.08,0.55,0.24,0.49,0.56,0.22c0.36-0.31,0.73-0.61,1.09-0.92c0.07,0.06,0.14,0.13,0.21,0.19
		c-0.62,0.86-1.79,1.27-2.01,2.49c-0.06,0.35-0.06,0.55,0.17,0.83c0.96,1.19,1.89,2.42,2.82,3.63c0.14,0.27,0.27,0.53,0.41,0.8
		c1.16,0.65,1.19,1.89,1.56,2.96c0.67,2.25,1.26,4.51,0.98,6.9c-0.07,0.59,0,1.21-0.59,1.59c-0.07-0.17-0.14-0.34-0.21-0.51
		c-0.48-0.53-0.31-1.18-0.35-1.78c0.07-0.52,0-1.04,0.02-1.56c0.01-0.48,0.09-0.97-0.07-1.44c-0.04-0.11-0.08-0.22-0.11-0.34
		c-0.72-2.55-1.34-5.13-3.05-7.26c-1.96-3.39-5.12-4.82-8.79-5.41c-1.16-0.19-2.32-0.07-3.38,0.44c-1.09,0.52-2.24,0.81-3.38,1.14
		c-0.13,0.02-0.25,0.02-0.38,0.02c-0.38-0.05-0.81-0.01-0.92-0.52c1.26-0.73,2.74-0.9,4.03-1.56c2.19-0.88,4.4-0.8,6.61-0.08
		c0.11,0.05,0.22,0.11,0.33,0.17c0.1,0.06,0.21,0.11,0.31,0.16c0.86,0.29,1.75,0.51,2.52,1.05c0.59,0.42,0.84,0.1,0.94-0.51
		c0.19-1.21,0.1-2.45,0.54-3.64c0.66-1.82,2.09-2.96,3.45-4.18c0.14-0.13,0.35-0.2,0.53-0.02
		C480.72,267.05,480.73,267.13,480.74,267.2z"/>
	<path style="fill-rule:evenodd;clip-rule:evenodd;fill:#A6C46F;" d="M513.86,278.4c0.08,0.16,0.17,0.32,0.25,0.48
		c0.08,0.68-0.37,0.95-0.9,1.02c-1.21,0.16-2.3-0.15-3.1-1.11c-0.76-0.91-0.92-1.92-0.26-2.97c0.42-0.68,0.18-1.28-0.14-1.9
		c-0.21-0.4-0.63-0.74-0.45-1.29c0.06-0.58,0.12-1.15,0.17-1.73c0.69,0.1,1.02,0.69,1.46,1.11c0.37,0.35,0.65,0.79,0.97,1.19
		c-0.22,0.29-0.36,0.55-0.18,0.96c0.51,1.19,0.63,2.45,0.56,3.73c-0.01,0.31-0.03,0.62,0.01,0.92c0.02,0.09,0.04,0.19,0.06,0.28
		c0.05,0.12,0.07,0.12,0.05-0.02c0.05-0.09,0.11-0.17,0.19-0.23C512.96,278.62,513.38,278.41,513.86,278.4z"/>
	<path style="fill-rule:evenodd;clip-rule:evenodd;fill:#52A04F;" d="M515.32,280.35c-1.48,1.07-3.06,1.29-4.69,0.43
		c-1.66-0.87-2.52-2.21-2.34-4.18c0.07-0.77,0.2-1.6-0.17-2.35c-0.21-0.44-0.46-0.86-1.05-0.8c-0.32-1.23-1.07-2.2-1.93-3.1
		c-0.23-0.51-0.17-1.02,0.04-1.51c0.49,0.03,1-0.1,1.45,0.19c-0.01,0.06-0.02,0.12-0.03,0.17c-0.42,1.15,0.18,1.99,0.87,2.79
		c0.37,0.42,0.8,0.78,1.15,1.22c0.7,0.88,1.11,1.84,0.71,2.99c-0.43,1.24-0.13,2.27,0.89,3.09c1.08,0.87,2.25,1.37,3.63,0.68
		c0.33-0.17,0.65-0.33,1.01-0.1C515.01,280.03,515.17,280.19,515.32,280.35z"/>
	<path style="fill-rule:evenodd;clip-rule:evenodd;fill:#329449;" d="M496.51,268.37c1.26-1.67,1.52-3.69,1.98-5.63
		c0.15-0.64,0.07-1.35,0.6-1.87c0.34,0.6-0.14,1.12-0.17,1.69c-0.09,1.75-0.69,3.41-1.14,5.09c-0.8,1.89-1.42,3.87-2.74,5.5
		c-0.32,0.4-0.52,1.34-1.28,0.71c-0.63-0.52-0.17-1.23,0.28-1.64c1-0.91,1.59-2.07,2.27-3.18
		C496.43,268.84,496.45,268.59,496.51,268.37z"/>
	<path style="fill-rule:evenodd;clip-rule:evenodd;fill:#359649;" d="M502.08,267.16c1.99-0.34,3.89-1.45,6.01-0.7
		c0.48,0.17,0.96,0.35,1.43,0.52c0.19,0.79-0.46,0.74-0.86,0.73c-0.99-0.04-1.87,0.28-2.75,0.65
		C504.49,268.4,503.2,268.03,502.08,267.16z"/>
	<path style="fill-rule:evenodd;clip-rule:evenodd;fill:#8CB763;" d="M509.25,272.63c0.76,1.19,1.73,2.22,0.64,3.86
		c-0.62,0.94,0.07,2.1,1.05,2.61c1.01,0.53,2.21,1.2,3.17-0.22c0.07,0.09,0.15,0.19,0.22,0.29c0.26,0.82-0.44,0.98-0.91,1.1
		c-1.3,0.34-2.4-0.09-3.37-1.04c-0.89-0.87-1.3-1.83-0.81-3.01c0.54-1.32,0.06-2.31-0.84-3.23c-0.5-0.51-1.02-1.01-1.47-1.57
		c-0.58-0.73-0.74-1.47-0.29-2.31l0.01-0.09c0.28,0.02,0.57,0,0.76,0.26c-0.21,0.82,0.16,1.43,0.74,1.95
		c0.11,0.1,0.22,0.34,0.31,0.31c0.2-0.06,0.04-0.3,0.11-0.46c0.07-0.14,0.12-0.28,0.26-0.37
		C509.29,271.29,508.67,272.09,509.25,272.63z"/>
	<path style="fill-rule:evenodd;clip-rule:evenodd;fill:#71AC59;" d="M506.63,269.11c-0.23,1.38,0.43,2.35,1.43,3.19
		c1.33,1.12,2.13,2.33,1.31,4.23c-0.51,1.17,0.71,3.06,2.12,3.42c1,0.26,2.24,0.64,2.85-0.8c0.18,0.23,0.35,0.47,0.53,0.7
		c-1.95,1.18-3.69,0.94-5.25-0.73c-0.69-0.73-1.05-1.6-0.69-2.51c0.64-1.66-0.05-2.81-1.16-3.93c-0.79-0.8-1.76-1.55-1.61-2.91
		C506.19,269.45,506.17,269.12,506.63,269.11z"/>
	<path style="fill-rule:evenodd;clip-rule:evenodd;fill:#529E50;" d="M505.91,268.35c0.49-0.83,1.27-0.96,2.16-0.98
		c0.49-0.01,1.15,0.36,1.45-0.4c0.47,0.31,0.95,0.61,1.42,0.92c1.33,1.53,2.72,3.03,3.34,5.03c-0.72,0.25-0.98-0.32-1.27-0.76
		c-0.6-0.89-1.28-1.7-2.01-2.49c-1.21-1.31-2.7-1.5-4.34-1.13C506.41,268.48,506.16,268.42,505.91,268.35z"/>
	<path style="fill-rule:evenodd;clip-rule:evenodd;fill:#E3AB75;" d="M493.75,277.75c0.06,0,0.11-0.01,0.16-0.04
		c1.85,0.44,3.47-0.1,5.08-1.04c1.87-1.09,3.5-0.41,4.94,1.86c0.04,0.19,0.03,0.38-0.05,0.56c-0.07,0.11-0.17,0.18-0.3,0.2
		c-0.73-0.11-0.96-0.89-1.56-1.17c-0.84-0.85-1.71-0.81-2.7-0.23c-1.03,0.61-2.1,1.17-3.32,1.3c-0.92,0.1-1.85,0.16-2.47-0.77
		C493.47,278.15,493.48,277.91,493.75,277.75z"/>
	<path style="fill-rule:evenodd;clip-rule:evenodd;fill:#DA8F5B;" d="M503.77,278.69c-2.02-2.56-2.61-2.69-5.49-1.26
		c-1.41,0.7-2.84,1.32-4.36,0.27c0.02-0.16,0.03-0.31,0.05-0.47c0.28-0.26,0.59-0.15,0.87-0.04c0.68,0.24,1.29,0.1,1.88-0.25
		c0.26-0.05,0.54-0.03,0.78-0.19c0.74-0.2,1.34-0.7,2.08-0.89c2.04-0.53,4.04,0.56,4.58,2.52
		C504.11,278.57,504.01,278.72,503.77,278.69z"/>
	<path style="fill-rule:evenodd;clip-rule:evenodd;fill:#329348;" d="M493.57,275.59c-0.68-0.12-1.31,0.35-1.82-0.42
		c-0.51-0.77-0.18-1.13,0.37-1.55c0.59-0.45,0.72-0.3,0.98,0.4c0.19,0.51,0.99,0.59,1.55,0.22c0.31-0.21,0.61-0.54,0.86-0.05
		c0.23,0.46,0.15,1.01-0.41,1.19C494.58,275.54,494.01,275.54,493.57,275.59z"/>
	<path style="fill-rule:evenodd;clip-rule:evenodd;fill:#72AB5B;" d="M506.66,268.55c1.67-1.03,3.08-0.45,4.37,0.73
		c0.9,0.83,1.68,1.78,2.29,2.84c0.22,0.39,0.46,0.75,0.96,0.8c-0.16,0.4-0.45,0.19-0.71,0.16c-0.08-0.04-0.16-0.09-0.24-0.12
		c-0.25-0.04-0.54,0-0.71-0.26c-0.67-1.18-1.55-2.19-2.56-3.1c-0.42-0.28-0.89-0.31-1.37-0.31c-0.05,0.01-0.1,0.02-0.16,0.04
		C507.91,269.07,507.29,268.81,506.66,268.55z"/>
	<path style="fill-rule:evenodd;clip-rule:evenodd;fill:#91B867;" d="M515.03,279.2c-1.4-1.65-1.56-3.84-2.47-5.7
		c-0.12-0.24-0.04-0.28,1.04-0.05C514.98,274.67,515.74,277.75,515.03,279.2z"/>
	<path style="fill-rule:evenodd;clip-rule:evenodd;fill:#67A257;" d="M515.03,279.2c0.28-2.11-0.61-3.92-1.43-5.75
		c0.33,0.06,0.67,0.12,1,0.18c0.88,1.66,0.8,3.56,1.32,5.31c-0.07,0.46,0.49,1.1,0.05,1.29C515.64,280.36,515.32,279.6,515.03,279.2
		z"/>
	<path style="fill-rule:evenodd;clip-rule:evenodd;fill:#A8C471;" d="M513.86,278.4c-0.35,0.52-0.99,0.47-1.47,0.75
		c-0.44-1.61-0.16-3.32-0.67-4.93c-0.08-0.25,0.02-0.57,0.42-0.56C512.72,275.25,513.29,276.82,513.86,278.4z"/>
	<path style="fill-rule:evenodd;clip-rule:evenodd;fill:#CA673F;" d="M496.8,276.97c-0.82,1.41-1.87,0.4-2.84,0.27
		c-0.15-1.61-0.15-1.61,2.08-1.17C496.47,276.22,496.91,276.36,496.8,276.97z"/>
	<path style="fill-rule:evenodd;clip-rule:evenodd;fill:#38934A;" d="M505.19,268.83c0.4,0.52,0.08,1.01-0.04,1.51
		c-1.12-0.68-2.25-1.35-3.35-2.05c-0.16-0.1-0.21-0.37-0.31-0.56c0.19,0.03,0.38,0.03,0.55,0.09
		C503.09,268.15,504.14,268.49,505.19,268.83z"/>
	<path style="fill-rule:evenodd;clip-rule:evenodd;fill:#96B969;" d="M510.2,269.25c0.88,1.1,2.29,1.82,2.42,3.44
		c-1.38-0.83-2.5-1.96-3.62-3.1c0.02-0.06,0.04-0.11,0.06-0.17C509.4,269.1,509.8,269.19,510.2,269.25z"/>
	<path style="fill-rule:evenodd;clip-rule:evenodd;fill:#A1BD6D;" d="M508.83,270.72c-0.05,0.48-0.11,0.97-0.16,1.46
		c-0.36-0.36-0.75-0.68-1.07-1.07c-0.44-0.55-1.24-1.1-0.2-1.82C508.03,269.61,508.79,269.81,508.83,270.72z"/>
	<path style="fill-rule:evenodd;clip-rule:evenodd;fill:#E0A46E;" d="M490.31,275.55c0.06,0.05,0.08,0.11,0.06,0.18
		c1.02,0.43,2.14,0.62,3.07,1.26c0.01,0.24,0.03,0.49,0.04,0.73c0.07,0.29,0.2,0.59-0.19,0.78c-0.8-0.59-1.69-1-2.63-1.32
		c-0.45-0.16-0.89-0.33-1.13-0.8c-0.13-0.49,0.23-0.63,0.56-0.8c0.07-0.03,0.15-0.03,0.22-0.01L490.31,275.55z"/>
	<path style="fill-rule:evenodd;clip-rule:evenodd;fill:#443E37;" d="M512.14,273.67c-0.57,0.71,0.02,1.41,0.08,2.09
		c0.1,1.13,0.19,2.26,0.17,3.39l-0.01-0.01c-0.07,0.08-0.14,0.09-0.22,0.02l-0.01-0.01c-0.23-0.3-0.01-0.69-0.2-1
		c-0.07-1.48-0.03-2.95-0.85-4.32c-0.44-0.74,0.31-0.64,0.76-0.63C511.96,273.35,512.05,273.51,512.14,273.67z"/>
	<path style="fill-rule:evenodd;clip-rule:evenodd;fill:#CB643E;" d="M491.28,273.66c-0.32,0.44-0.49,1.03-1.11,1.19
		c-1.01-0.04-1.22-0.32-1.21-1.64C489.87,272.54,490.53,272.67,491.28,273.66z"/>
	<path style="fill-rule:evenodd;clip-rule:evenodd;fill:#CA8053;" d="M493.44,276.99c-1.17-0.06-2.16-0.57-3.07-1.26
		C491.3,275.26,493.34,276.1,493.44,276.99z"/>
	<path style="fill-rule:evenodd;clip-rule:evenodd;fill:#D78E5C;" d="M489.13,273.16c0.07,0.73,0.15,1.46,1.04,1.69
		c-0.16,0.23-0.32,0.46-0.48,0.7c-0.01,0.24-0.14,0.34-0.37,0.3c-0.73-0.71-1.16-1.53-1.04-2.58
		C488.53,272.95,488.82,272.9,489.13,273.16z"/>
	<path style="fill-rule:evenodd;clip-rule:evenodd;fill:#373330;" d="M489.13,273.16c-0.27,0-0.55-0.03-0.74,0.23
		c-0.12,0.09-0.22,0.08-0.31-0.04c-0.13-0.39,0.11-0.57,0.4-0.72c0.36-0.17,0.72-0.1,1.08-0.02c0.86-0.07,1.54,0.34,2.21,0.8
		c-0.17,0.08-0.33,0.17-0.5,0.25C490.62,273.27,490.02,272.58,489.13,273.16z"/>
	<path style="fill-rule:evenodd;clip-rule:evenodd;fill:#393533;" d="M495.8,273.62c0.09-0.66,0.65-0.75,1.13-0.88
		c0.32-0.09,0.85-0.25,0.92,0.17c0.06,0.38-0.5,0.25-0.76,0.25c-0.73-0.01-0.69,0.66-1,1.02C496,273.99,495.9,273.8,495.8,273.62z"
		/>
	<path style="fill-rule:evenodd;clip-rule:evenodd;fill:#232020;" d="M496.8,276.97c-0.25-0.3-0.51-0.6-0.76-0.9
		c0.09-0.09,0.18-0.18,0.27-0.27c0.15,0.09,0.29,0.18,0.44,0.26c0.08,0.03,0.16,0.08,0.23,0.13c0.09,0.1,0.17,0.2,0.25,0.31
		c0.09,0.16,0.2,0.31,0.1,0.5C497.13,277.27,496.98,277,496.8,276.97z"/>
	<path style="fill-rule:evenodd;clip-rule:evenodd;fill:#382D24;" d="M489.11,267.65c-0.56-0.49-1.33-0.4-1.96-0.7
		c0.18-0.28,0.51-0.07,0.73-0.22c0.08-0.02,0.15-0.02,0.23-0.02c0.38,0.19,1.06-0.03,1.02,0.74
		C489.13,267.52,489.13,267.59,489.11,267.65z"/>
	<path style="fill-rule:evenodd;clip-rule:evenodd;fill:#667E59;" d="M489.13,267.45c-0.34-0.25-0.68-0.49-1.01-0.74
		c0.09-0.08,0.18-0.17,0.27-0.25c0.25,0.07,0.5,0.14,0.75,0.21C489.08,266.94,489.65,267.2,489.13,267.45z"/>
	<path style="fill-rule:evenodd;clip-rule:evenodd;fill:#3E3531;" d="M489.39,275.84c0.1-0.1,0.2-0.19,0.31-0.29
		c0.14,0.01,0.27,0.02,0.41,0.03c-0.17,0.24-0.33,0.47-0.5,0.71c-0.11,0.33-0.31,0.62-0.67,0.46c-0.34-0.15-0.16-0.46-0.01-0.7
		C489.05,275.9,489.2,275.82,489.39,275.84z"/>
	<path style="fill-rule:evenodd;clip-rule:evenodd;fill:#080804;" d="M493.23,278.47c0.09-0.25,0.17-0.5,0.26-0.74
		c0.09,0.01,0.17,0.02,0.26,0.03c-0.02,0.23-0.03,0.46-0.05,0.69c0.04,0.33-0.13,0.53-0.43,0.47
		C493.07,278.87,493.09,278.63,493.23,278.47z"/>
	<path style="fill-rule:evenodd;clip-rule:evenodd;fill:#A0A6B2;" d="M489.08,268.84c0.26,0.01,0.52,0.02,0.78,0.04
		c-0.29,0.11-0.59,0.25-0.9,0.09c-0.14-0.07-0.07-0.21,0.02-0.08C488.99,268.89,489.05,268.85,489.08,268.84z"/>
	<path style="fill-rule:evenodd;clip-rule:evenodd;fill:#96B969;" d="M509.01,269.6c-0.15-0.09-0.31-0.18-0.46-0.27
		c0,0,0.01,0,0.01,0c0.28-0.16,0.5-0.21,0.48,0.24L509.01,269.6z"/>
	<path style="fill-rule:evenodd;clip-rule:evenodd;fill:#529E50;" d="M513.33,272.96c0.08,0.04,0.16,0.08,0.24,0.12
		C513.49,273.04,513.41,273,513.33,272.96z"/>
	<path style="fill-rule:evenodd;clip-rule:evenodd;fill:#9B9A9A;" d="M490.33,275.57c0.03-0.06,0.05-0.12,0.08-0.18
		c0.03,0.04,0.06,0.08,0.08,0.12c-0.06,0.01-0.12,0.02-0.18,0.04L490.33,275.57z"/>
	<path style="fill-rule:evenodd;clip-rule:evenodd;fill:#0C0B08;" d="M461.52,275.6c0.27,0.29,0.63,0.18,0.96,0.2
		c0.21,0.25,0.1,0.45-0.12,0.62c-1.29-0.11-2.46,0.13-3.47,1.03c-0.25,0.22-0.68,0.36-0.8-0.23c0.7-1.15,0.64-1.14-0.76-1.34
		c-2.94-0.42-5.57,0.45-8.11,1.77c-1.12,0.41-1.82,1.55-3.05,1.77c0-0.33-0.15-0.5-0.49-0.51l-0.03-0.02
		c-0.06-0.07-0.05-0.14,0.02-0.2c1.31-0.31,2.33-1.16,3.43-1.85c1.84-1.16,4.1-1.17,5.96-2.23c1.3-0.62,2.41-1.44,3.28-2.63
		c0.26-0.36,0.09-0.28-0.07-0.43c-0.55-0.5-1.13-0.98-1.37-1.73c0.19-0.01,0.37-0.02,0.56-0.03c0.58-0.1,0.78,0.44,1.15,0.68
		c0.68,0.45,1.19,1.3,2.2,1.02c0.29-0.4,0.45-0.88,0.76-1.28c0.07-0.1,0.15-0.19,0.23-0.27c0.45-0.39,0.96-0.59,1.47-0.17
		c0.53,0.43,0.2,0.91-0.03,1.35c-0.42,0.64-0.6,1.4-0.96,2.08c-0.04,0.1-0.09,0.19-0.14,0.29c-0.09,0.19-0.15,0.39-0.21,0.59
		C461.86,274.6,461.6,275.08,461.52,275.6z"/>
	<path style="fill-rule:evenodd;clip-rule:evenodd;fill:#319648;" d="M456.92,269.82c0.86,0.44,1.15,1.53,2.1,1.88
		c0.07,0.02,0.27,0.09,0.07,0.22c-1.36,0.86-1.99,2.81-4.01,2.7c-0.35-0.22-0.14-0.46-0.05-0.72c0.81-2.28-0.42-4.14-2.87-4.34
		C453.78,268.96,455.35,269.44,456.92,269.82z"/>
	<path style="fill-rule:evenodd;clip-rule:evenodd;fill:#65A755;" d="M454.32,272.73c0.11,1-0.53,1.64-1.38,1.78
		c-2.17,0.37-3.86,1.65-5.67,2.71c-0.27,0.16-0.54,0.38-0.84,0.45c-0.43,0.1-0.92,0.56-1.31,0.02c-0.4-0.56,0.15-0.88,0.47-1.18
		c0.49-0.45,0.77-1.03,1.01-1.61c0.89-2.09,2.71-3.22,4.58-4.2C452.77,269.87,454.33,270.95,454.32,272.73z"/>
	<path style="fill-rule:evenodd;clip-rule:evenodd;fill:#369449;" d="M443.52,277.75c0.08-0.01,0.17-0.02,0.25-0.03
		c0.31,0.6,0.85,0.85,1.47,0.99c-0.49,0.23-0.98,0.46-1.46,0.69c-0.77-0.15-1.41,0.39-2.15,0.42c0.25-0.3,0.49-0.6,0.74-0.9
		C442.98,278.76,443.39,278.39,443.52,277.75z"/>
	<path style="fill-rule:evenodd;clip-rule:evenodd;fill:#369449;" d="M445.68,278.69c-0.02,0.06-0.02,0.13-0.02,0.2
		c-0.08-0.06-0.16-0.12-0.23-0.18C445.51,278.7,445.59,278.7,445.68,278.69z"/>
	<path style="fill-rule:evenodd;clip-rule:evenodd;fill:#CA4E2E;" d="M462,273.4c0.22-0.75,0.41-1.51,0.91-2.15
		c1.47-0.78,2.83-0.26,4.17,0.34c0.54,0.19,0.37,1.42,1.37,0.96c0.11-0.03,0.22-0.06,0.33-0.07c1.19-0.28,2.38-0.45,3.35-1.37
		c1.46-1.38,1.85-2.99,1.34-4.86c-0.25-0.95-0.42-1.94-1.1-2.73c-0.08-0.08-0.16-0.17-0.25-0.25c-0.71-0.46-1.6,0.12-2.3-0.41
		c-0.02-0.13-0.09-0.3-0.04-0.39c0.1-0.19,0.27-0.33,0.42-0.5c-0.32-0.16-0.57,0.05-0.7,0.25c-0.73,1.14-0.69,0.13-0.86-0.3
		c0.01-0.65,0.58-0.71,0.98-0.94c0.33-0.11,0.68-0.13,1.03-0.14c0.21-0.01,0.42-0.03,0.64-0.06c0.35-0.01,0.71-0.01,1.04,0.13
		c1.03,1.46,2.25,2.75,3.6,3.9c0.7,0.59,1.59,0.83,2.44,1.12c-0.44,0.96-0.36,2.2-1.55,2.74c-0.42,0.1-0.45-0.73-0.96-0.41
		c-0.19,0.08-0.28,0.19-0.07,0.35c0.05,0.08,0.09,0.16,0.13,0.25c0.07,0.3,0.29,0.54,0.34,0.85c-0.13,1.03-0.71,1.75-1.56,2.28
		c-0.82,0.16-0.72,0.89-0.88,1.46c-0.44,0.43-0.91,0.8-1.53,0.93c-2.23-0.8-4.46-0.89-6.71-0.05
		C464.43,273.89,463.06,274.23,462,273.4z"/>
	<path style="fill-rule:evenodd;clip-rule:evenodd;fill:#54A14F;" d="M484.58,265.25c-0.48,0.01-0.96,0.02-1.45,0.03
		c-1.19-0.09-2.39-0.22-3.55-0.54c-2.04-0.56-3.59-1.7-4.28-3.8c-0.15-0.46-0.29-0.92-0.08-1.4c0.48,0,0.95-0.01,1.43-0.01
		c0.47,0.49,0.31,1.21,0.7,1.75c1.11,1.54,2.75,1.94,4.47,2.18c2.35,0.32,4.55-0.61,6.84-0.84c0.85-0.09,1.44-0.8,1.84-1.57
		c0.2-0.32-0.09-0.61-0.07-0.92c0.22-0.64-0.55-1.23-0.08-1.87c0.59,0.17,1.2,0.31,1.68,0.74c0.86,1.92,0.06,4-1.87,5.05
		c-1.13,0.61-2.39,0.57-3.59,0.8C485.89,264.97,485.2,264.94,484.58,265.25z"/>
	<path style="fill-rule:evenodd;clip-rule:evenodd;fill:#C3361F;" d="M472.3,274.38c0.39-0.52,0.89-0.87,1.53-0.99
		c0.83-0.31,0.79-0.95,0.63-1.64c1.02-0.39,1.33-1.33,1.7-2.22c-0.13-0.48,0.04-0.79,0.51-0.93c0.7-0.39,0.85-1.11,1.09-1.79
		c0.12-0.35,0.04-0.84,0.62-0.87c0.66,0.01,1.32-0.01,1.98,0.04c0.32,0.03,0.63,0.2,0.95,0.31c-0.19,0.23-0.39,0.46-0.58,0.68
		c-3.08,1.96-4.36,4.84-4.28,8.4c0.02,0.77-0.14,0.99-0.85,0.5c-0.92-0.63-1.94-1.05-3.03-1.31c-0.09-0.07-0.17-0.14-0.26-0.2
		L472.3,274.38z"/>
	<path style="fill-rule:evenodd;clip-rule:evenodd;fill:#389849;" d="M475.22,259.54c0.72,3.63,3.2,5.02,6.63,5.23
		c0.47,0.03,0.94,0.12,1.29,0.51c-0.01,0.06-0.02,0.13-0.05,0.19c-3.47,1.11-7.06-0.35-9.76-3.95c-0.37-0.5-1.16-1.29-1.04-1.46
		c0.4-0.59,1.23-0.22,1.88-0.34C474.51,259.65,474.87,259.6,475.22,259.54z"/>
	<path style="fill-rule:evenodd;clip-rule:evenodd;fill:#72AB5B;" d="M491.03,260.87c-0.76,1.8-2.29,2.09-4.04,2.38
		c-2.48,0.4-4.9,0.95-7.38,0.07c-2.09-0.74-2.97-1.86-2.97-3.78c0.65-0.03,1.32-0.21,1.94,0.14c-0.08,0.17-0.23,0.25-0.4,0.3
		c-0.21,0.06-0.43,0.08-0.63,0.16c-0.42,0.72,0.17,1.16,0.53,1.54c1.45,1.51,5.11,2.01,7.07,1.05c0.07-0.09,0.14-0.18,0.22-0.26
		c0.12-0.12,0.26-0.22,0.41-0.29c0.84-0.31,1.72-0.12,2.57-0.19c0.09-0.02,0.19-0.02,0.29-0.02c0.1,0,0.11,0.15,0.17,0.14
		c0.06-0.01,0.05-0.1-0.01-0.17c0.01-0.1,0.04-0.19,0.09-0.28c0.35-0.46,0.72-0.9,1.27-1.14
		C490.53,260.46,490.81,260.58,491.03,260.87z"/>
	<path style="fill-rule:evenodd;clip-rule:evenodd;fill:#A5C26F;" d="M480.76,260.14c0.02-0.76,0.66-0.56,1.05-0.59
		c0.97-0.06,1.95-0.02,2.93-0.02c0.48,0.11,0.7,0.51,0.98,0.85c0.06,0.1,0.11,0.21,0.14,0.32c0,0.06,0,0.12,0,0.18
		c-0.23,0.69-0.61,1.2-1.39,1.29C483,261.92,481.45,261.81,480.76,260.14z"/>
	<path style="fill-rule:evenodd;clip-rule:evenodd;fill:#4C9D4E;" d="M480.97,256.12c0.16-0.08,0.32-0.16,0.48-0.24
		c2.34-0.16,4.61,0.17,6.82,0.95c0.13,0.15,0.25,0.31,0.38,0.46c-0.7,0.98-1.98,1.09-2.92,0.27c-0.56-0.03-1.11-0.05-1.67-0.08
		c-0.74-0.27-1.53-0.37-2.28-0.58C481.37,256.8,480.88,256.75,480.97,256.12z"/>
	<path style="fill-rule:evenodd;clip-rule:evenodd;fill:#5CA353;" d="M480.97,256.12c0.39,0.75,1.19,0.43,1.78,0.67
		c0.47,0.19,0.98,0.24,1.31,0.69c-0.28,0.03-0.56,0.06-0.84,0.09c-0.38,0.14-0.78,0.19-1.17,0.07c-1.74-0.5-3.3-0.27-4.63,1.05
		c-0.14,0.13-0.34,0.2-0.49,0.34c-0.96-0.01-1.12-0.21-0.72-0.96c0.32-0.61,0.83-1.06,1.4-1.44
		C478.68,256.19,479.81,256.08,480.97,256.12z"/>
	<path style="fill-rule:evenodd;clip-rule:evenodd;fill:#6CA65A;" d="M485.72,257.56c1.03,0.49,1.98,0.12,2.92-0.27
		c0.56,0.32,1.13,0.63,1.69,0.95c-0.09,0.68,0.89,1.23,0.22,1.97c-0.26,0.22-0.51,0.2-0.76-0.03c-0.16-0.5-0.41-0.95-0.74-1.36
		c-0.28-0.53-0.83,0.03-1.16-0.3c-0.92-0.12-1.8,0.08-2.65,0.41c-0.66-0.06-1.48,0.13-1.44-0.97
		C484.38,257.5,485.19,258.19,485.72,257.56z"/>
	<path style="fill-rule:evenodd;clip-rule:evenodd;fill:#A4C36E;" d="M478.08,259.72c0.17-0.02,0.34-0.03,0.51-0.05
		c0.75-0.02,1.53-0.13,1.94,0.75c0.36,0.17,0.63,0.47,0.94,0.69c0.12,0.14,0.25,0.27,0.45,0.3c0.09,0.02,0.18,0.05,0.26,0.08
		c0.13,0.06,0.25,0.13,0.39,0.16c0.15,0.04,0.28,0.1,0.42,0.17c0.16,0.07,0.3,0.14,0.4,0.29c0.01,0.13-0.02,0.23-0.11,0.32
		c-1.64,0.4-3.14-0.05-4.52-0.87C478.13,261.18,477.51,260.63,478.08,259.72z"/>
	<path style="fill-rule:evenodd;clip-rule:evenodd;fill:#44964C;" d="M477.6,256.63c-0.37,0.5-0.77,0.99-1.11,1.51
		c-0.32,0.48-0.43,0.92,0.42,0.81c0.11-0.06,0.18-0.03,0.22,0.09c-1.1,0.07-2.2,0.13-3.3,0.2c-0.34,0.13-0.71,0.23-0.99-0.04
		c-0.17-0.16,0.04-0.35,0.19-0.48l-0.01,0.02c0.08-0.06,0.16-0.13,0.24-0.19c0.69-0.52,1.67-0.49,2.25-1.21
		C476.2,257.11,476.9,256.87,477.6,256.63z"/>
	<path style="fill-rule:evenodd;clip-rule:evenodd;fill:#9EBF6D;" d="M490.09,260.68c-0.4,0.4-0.79,0.8-1.19,1.2
		c-0.06-0.01-0.12-0.01-0.18-0.02c-0.12-0.02-0.23-0.06-0.34-0.11c-0.83-0.52-1.88-0.62-2.6-1.36c-0.16-0.17-0.39-0.35-0.26-0.6
		c0.17-0.31,0.46-0.19,0.73-0.1c0.47,0.02,0.93,0.04,1.4,0.05c0.65-0.02,1.26,0.15,1.84,0.43c0.19,0.1,0.36,0.23,0.52,0.37
		C490.03,260.58,490.06,260.63,490.09,260.68z"/>
	<path style="fill-rule:evenodd;clip-rule:evenodd;fill:#91B866;" d="M482.15,258.01c-1.22,0.63-2.35,1.57-3.88,1.13
		c-0.22-0.04-0.44,0-0.65-0.08l-0.04-0.04c-0.09-0.38,0.16-0.58,0.4-0.79C479.12,257.23,481.26,257.11,482.15,258.01z"/>
	<path style="fill-rule:evenodd;clip-rule:evenodd;fill:#76AE5B;" d="M482.15,258.01c-1.69-0.41-3.3-0.49-4.57,1
		c-0.15,0.01-0.3,0.02-0.45,0.04c-0.07-0.04-0.14-0.07-0.22-0.09c1.51-1.86,2.98-2.3,5.26-1.61c0.34,0.1,0.7,0.15,1.04,0.23
		C482.86,257.72,482.51,257.87,482.15,258.01z"/>
	<path style="fill-rule:evenodd;clip-rule:evenodd;fill:#89A568;" d="M483.82,257.96c0.23,0.69,0.96,0.64,1.44,0.97
		c-0.06,0.06-0.13,0.08-0.21,0.08c-0.06,0.06-0.13,0.11-0.21,0.14c-0.94,0.03-1.88,0.06-2.82,0.07c-0.22,0-0.62-0.01-0.63-0.09
		c-0.08-0.38,0.3-0.36,0.52-0.47c0.32-0.15,0.65-0.27,0.97-0.4c0.06-0.06,0.13-0.1,0.22-0.12
		C483.33,258.09,483.58,258.03,483.82,257.96z"/>
	<path style="fill-rule:evenodd;clip-rule:evenodd;fill:#8CB268;" d="M489.1,258.73c0.48,0.29,1.13,0.48,0.69,1.27
		c-0.73,0.25-1.31-0.13-1.88-0.49c-0.04-0.01-0.08-0.02-0.11-0.03c-0.45-0.13-0.91-0.26-1.36-0.4c0.49-0.12,0.98-0.25,1.48-0.37
		C488.31,258.55,488.71,258.42,489.1,258.73z"/>
	<path style="fill-rule:evenodd;clip-rule:evenodd;fill:#272119;" d="M481.44,261.4c-0.3-0.33-0.61-0.66-0.91-0.99
		c0.08-0.09,0.15-0.19,0.23-0.28c0.99,1.14,2.33,1.56,3.76,1.77c0.4,0.2,0.98-0.11,1.24,0.46c-0.08,0.09-0.16,0.19-0.24,0.28
		c-0.81,0.22-1.53,0.03-2.16-0.51c-0.05-0.04-0.11-0.06-0.17-0.06c-0.1-0.04-0.2-0.09-0.29-0.14c-0.15-0.03-0.29-0.06-0.44-0.09
		c-0.1-0.05-0.19-0.1-0.29-0.15c-0.09-0.02-0.17-0.04-0.26-0.06C481.79,261.48,481.57,261.54,481.44,261.4z"/>
	<path style="fill-rule:evenodd;clip-rule:evenodd;fill:#463D38;" d="M486.24,259.69c-0.19,0.04-0.38,0.07-0.57,0.11
		c0.13,0.17,0.21,0.41,0.38,0.5c0.86,0.47,1.74,0.9,2.61,1.34c0.02,0.06,0.04,0.11,0.07,0.17c-0.04,0.04-0.08,0.09-0.13,0.13
		c-1.08-0.13-2.09-0.4-2.85-1.26l-0.01-0.01c-0.06-0.08-0.14-0.14-0.23-0.18c-0.26-0.32-0.52-0.65-0.79-0.97
		C485.25,259.53,485.78,259.31,486.24,259.69z"/>
	<path style="fill-rule:evenodd;clip-rule:evenodd;fill:#1D1911;" d="M487.91,259.51c0.63,0.16,1.25,0.33,1.88,0.49
		c0.26,0.07,0.51,0.14,0.77,0.21c0.16,0.21,0.6,0.23,0.47,0.65c-0.31-0.06-0.63-0.13-0.94-0.19l-0.01,0
		c-0.13-0.14-0.32-0.1-0.47-0.18c-0.65-0.25-1.31-0.5-1.96-0.75C487.73,259.67,487.82,259.59,487.91,259.51z"/>
	<path style="fill-rule:evenodd;clip-rule:evenodd;fill:#3F3A33;" d="M470.63,260.72c0.39-0.1,0.78-0.19,1.17-0.29
		c0.18,0.16,0.36,0.32,0.53,0.49c-0.3,0.12-0.59,0.31-0.91,0.03c-0.17,0.08-0.38,0.06-0.54,0.18c-0.38,0.02-0.76,0.04-1.14,0.07
		c-0.23,0.11-0.31,0.01-0.3-0.22c0.12-0.03,0.23-0.06,0.35-0.09C470.07,260.78,470.37,260.86,470.63,260.72z"/>
	<path style="fill-rule:evenodd;clip-rule:evenodd;fill:#68985E;" d="M473.03,258.74c-0.22,0.92,0.53,0.34,0.8,0.51
		c-0.21,0.08-0.43,0.21-0.64,0.22c-0.58,0.01-1.57,0.22-1.64-0.13c-0.11-0.63,0.93-0.14,1.23-0.65
		C472.86,258.71,472.95,258.72,473.03,258.74z"/>
	<path style="fill-rule:evenodd;clip-rule:evenodd;fill:#332A1F;" d="M489.1,258.73c-0.4,0-0.79-0.01-1.19-0.02c0-0.07,0-0.13,0-0.2
		c0.41-0.27,0.92-0.38,1.33-0.21C489.7,258.5,489.09,258.56,489.1,258.73z"/>
	<path style="fill-rule:evenodd;clip-rule:evenodd;fill:#080904;" d="M468.24,259.68c-0.31,0.05-0.62,0.09-0.93,0.14
		c-0.01-0.1-0.02-0.19-0.03-0.29c0.32-0.15,0.63-0.15,0.96-0.02C468.24,259.57,468.24,259.62,468.24,259.68z"/>
	<path style="fill-rule:evenodd;clip-rule:evenodd;fill:#44964C;" d="M477.62,259.06c0.23-0.08,0.46-0.11,0.65,0.08
		C478.05,259.11,477.84,259.08,477.62,259.06z"/>
	<path style="fill-rule:evenodd;clip-rule:evenodd;fill:#6CA65A;" d="M483.09,258.15c-0.07,0.04-0.14,0.08-0.22,0.12
		C482.94,258.23,483.02,258.19,483.09,258.15z"/>
	<path style="fill-rule:evenodd;clip-rule:evenodd;fill:#6CA65A;" d="M484.83,259.15c0.07-0.05,0.14-0.1,0.22-0.14
		C484.97,259.06,484.9,259.1,484.83,259.15z"/>
	<path style="fill-rule:evenodd;clip-rule:evenodd;fill:#EABF8A;" d="M467.26,271.97c-1.38-0.65-2.83-0.87-4.35-0.72
		c0-0.44,0.87-0.81,0.22-1.27c-0.61-0.43-1.08,0.03-1.45,0.52c-1.01-0.37-1.02-1.14-0.8-1.99c0.06-0.09,0.14-0.16,0.24-0.2
		c0.2,0.08,0.25-0.11,0.35-0.2c0.32-0.3,0.5-0.73,0.93-0.92c0.68-0.19,1.39-0.21,1.99,0.12c1.2,0.66,2.21,0.3,3.24-0.36
		c0.32-0.21,0.58-0.58,1.04-0.51c0.03,0.16,0,0.4,0.09,0.45c0.39,0.22,0.22-0.19,0.21-0.27c-0.11-0.82-0.15-1.6,0.85-1.91
		c0.23-0.06,0.17-0.32,0.32-0.44l0-0.01c0.64-0.17,1.21,0.1,1.4,0.63c0.38,1.06,0.98,2.07,0.97,3.24c-0.15,0.53-0.87,0.65-0.92,1.25
		c-0.08,0.24-0.1,0.49-0.11,0.75c-0.02,0.11-0.05,0.2-0.11,0.3c-0.54,0.66-1.3,0.94-2.09,1.15c-0.1,0.02-0.21,0.02-0.32,0.02
		c-0.15-0.01-0.3-0.04-0.46-0.04C468.06,271.55,467.72,271.96,467.26,271.97z"/>
	<path style="fill-rule:evenodd;clip-rule:evenodd;fill:#CA5332;" d="M461.05,271.78c-0.18,0.82-0.59,0.33-0.93,0.15
		c-1.01-0.55-1.83-1.34-2.65-2.13c-0.01-0.08-0.03-0.16-0.04-0.25c0.19-0.38,0.37-0.77,0.56-1.15c0.87-0.95,1.74-1.9,2.61-2.85
		c1.75-1.25,3.59-2.33,5.61-3.09c0.5-0.19,0.98-0.51,1.2,0.4c0.17,0.72,0.07,0.92-0.67,0.77c-0.13-0.03-0.51,0.32-0.48,0.43
		c0.1,0.43,0.32-0.05,0.49,0.01c0.09,0.03,0.16,0.12,0.24,0.18c-0.08,0.08-0.15,0.21-0.24,0.23c-0.71,0.14-0.95,0.78-1.36,1.24
		c-0.36,0.56-0.91,0.59-1.48,0.5c-0.52-0.08-1.03-0.08-1.54,0.06c-1.8,0.49-2.54,2.15-1.69,3.84
		C460.94,270.65,461.36,271.12,461.05,271.78z"/>
	<path style="fill-rule:evenodd;clip-rule:evenodd;fill:#D27548;" d="M461.05,271.78c0.13-0.91-0.73-1.35-0.99-2.1
		c-0.82-2.33,1.78-4.26,3.6-3.83c0.61,0.14,1.17,0.16,1.74-0.12c-0.02,0.15-0.04,0.31-0.06,0.46c0.04,0.36-0.15,0.58-0.46,0.71
		c-0.77,0.22-1.58,0.03-2.35,0.2c-0.21,0.12-0.46,0.19-0.68,0.28c-0.16,0.08-0.28,0.2-0.35,0.38c-0.09,0.2-0.04,0.46-0.26,0.61
		c-0.52,0.86,0.01,1.5,0.46,2.15C461.47,270.93,461.26,271.35,461.05,271.78z"/>
	<path style="fill-rule:evenodd;clip-rule:evenodd;fill:#E4AE77;" d="M462.21,267.16c0.74-0.98,1.8-0.26,2.68-0.48
		c0.15,0.15,0.36,0.18,0.55,0.25c0.83,0.12,1.45-0.18,1.83-0.94c0.1-0.21,0.23-0.42,0.53-0.33c0.48,0.05,0.85,0.22,0.88,0.78
		c-1.21,1.45-2.63,1.84-4.39,1.13c-0.67-0.27-1.34-0.13-2.01-0.17c-0.07-0.04-0.11-0.09-0.1-0.14
		C462.19,267.2,462.2,267.16,462.21,267.16z"/>
	<path style="fill-rule:evenodd;clip-rule:evenodd;fill:#E3AC76;" d="M472.29,268.44c-0.46-1.51-0.25-3.37-2.13-4.17
		c0.07-0.4,0.39-0.45,0.71-0.5c0.55-0.21,1.03,0.07,1.19,0.49c0.59,1.59,1.51,3.15,0.85,4.96c-0.15,0.14-0.3,0.2-0.47,0.02
		c-0.1-0.14-0.16-0.31-0.2-0.48C472.22,268.66,472.24,268.55,472.29,268.44z"/>
	<path style="fill-rule:evenodd;clip-rule:evenodd;fill:#D98C59;" d="M472.59,269.32c0.58-1.97-0.32-4.88-1.72-5.54
		c0.25-0.32,0.64-0.14,0.94-0.27c0.2-0.13,0.39-0.11,0.58,0.01c0.79,1.54,1.33,3.16,1.19,4.91c-0.05,0.59-0.06,1.41-1.08,1.26
		C472.46,269.55,472.49,269.43,472.59,269.32z"/>
	<path style="fill-rule:evenodd;clip-rule:evenodd;fill:#D88D5A;" d="M467.81,265.66c-0.48,1.22-1.24,1.95-2.66,1.5
		c-0.15-0.38,0.07-0.6,0.34-0.8c0.72,0.05,1.04-0.6,1.55-0.92C467.3,265.52,467.55,265.59,467.81,265.66z"/>
	<path style="fill-rule:evenodd;clip-rule:evenodd;fill:#C97249;" d="M467.04,265.45c-0.26,0.66-0.42,1.48-1.46,0.94
		c-0.08-0.04-0.11-0.08-0.09-0.13c0.02-0.05,0.04-0.08,0.06-0.08C466.05,265.94,465.89,264.36,467.04,265.45z"/>
	<path style="fill-rule:evenodd;clip-rule:evenodd;fill:#D06B41;" d="M469.83,262.85c0.89,0.13,1.86-0.38,2.69,0.33
		c-0.41,0.23-0.83-0.04-1.24,0.02c-0.47-0.11-0.99,0.25-1.42-0.15C469.87,262.98,469.86,262.92,469.83,262.85z"/>
	<path style="fill-rule:evenodd;clip-rule:evenodd;fill:#3F3A37;" d="M469.45,260.98c0.1,0.07,0.2,0.14,0.3,0.22
		c-0.37,0.24-0.73,0.48-1.1,0.72c-0.13-0.18-0.27-0.36-0.4-0.54C468.65,261.24,469.05,261.11,469.45,260.98z"/>
	<path style="fill-rule:evenodd;clip-rule:evenodd;fill:#C87149;" d="M469.85,263.05c0.51,0.01,1.01,0.02,1.52,0.04
		c0.09,0.12,0.06,0.18-0.08,0.19c-0.37,0.08-0.74,0.19-1.11,0.24C469.81,263.57,469.53,263.5,469.85,263.05z"/>
	<path style="fill-rule:evenodd;clip-rule:evenodd;fill:#3D3532;" d="M471.29,263.28c0.03-0.06,0.06-0.13,0.08-0.19
		c0.38,0.03,0.77,0.06,1.15,0.1c0,0,0,0.08,0,0.08c0.03,0.17-0.06,0.26-0.2,0.31c-0.17-0.02-0.34-0.04-0.51-0.06
		C471.64,263.43,471.46,263.35,471.29,263.28z"/>
	<path style="fill-rule:evenodd;clip-rule:evenodd;fill:#302B2A;" d="M465.56,266.18c0.01,0.07,0.02,0.14,0.03,0.21
		c-0.14,0.26-0.29,0.52-0.43,0.78c-0.38-0.01-0.25-0.28-0.26-0.49c0.15-0.16,0.29-0.33,0.44-0.49
		C465.41,266.18,465.48,266.18,465.56,266.18z"/>
	<path style="fill-rule:evenodd;clip-rule:evenodd;fill:#E3AC76;" d="M470.16,264.29c0,0.22-0.07,0.39-0.32,0.44
		C469.95,264.58,470.05,264.43,470.16,264.29z"/>
	<path style="fill-rule:evenodd;clip-rule:evenodd;fill:#24231D;" d="M459.09,258.53c-0.24-0.19-0.22-0.35,0.05-0.49
		C459.13,258.21,459.11,258.37,459.09,258.53z"/>
	<path style="fill-rule:evenodd;clip-rule:evenodd;fill:#C53725;" d="M481.43,284.23c-0.39-0.97-0.62-2-1.26-2.86
		c0.22,0.06,0.51,0.05,0.65,0.2c2.5,2.58,4.87,5.14,5.02,9.13c0.09,2.51,1.77,4.51,4.16,5.19c3.12,0.88,4.82,3.03,6.31,5.58
		c-0.24,0.07-0.49,0.15-0.73,0.22c-1.42-0.01-2.85-0.02-4.27-0.04c0.89-0.48,0.47-1,0.08-1.56c-0.64-0.91-1.57-1.38-2.59-1.61
		c-1.75-0.41-2.62-1.45-3.4-3.11c-0.96-2.05-1.49-3.92-1.26-6.22C484.33,287.15,483.11,285.46,481.43,284.23z"/>
	<path style="fill-rule:evenodd;clip-rule:evenodd;fill:#369749;" d="M484.58,265.25c0.76-0.78,1.81-0.76,2.75-0.92
		c4.02-0.67,4.61-1.29,4.69-5.34c1.13,0.53,2.27,0.99,3.56,0.71c0.25-0.08,0.32,0.04,0.28,0.26c-1.25,2.89-3.35,4.74-6.5,5.31
		c-0.97,0.22-1.94,0.28-2.9-0.08l-0.11-0.05l-0.11,0.05C485.69,265.21,485.14,265.23,484.58,265.25z"/>
	<path style="fill-rule:evenodd;clip-rule:evenodd;fill:#5D7357;" d="M495.86,259.96c-0.09-0.09-0.19-0.17-0.28-0.26
		c0.18-0.18,0.43-0.46,0.64-0.21C496.36,259.65,496.05,259.84,495.86,259.96z"/>
	<path style="fill-rule:evenodd;clip-rule:evenodd;fill:#C4301B;" d="M481.86,290.42c0.01,0.63,0.03,1.26,0.04,1.9
		c-0.45,2.85-1.87,5.22-3.65,7.41c-1.72,1.58-3.51,3.05-5.73,3.88c-0.96,0.32-1.92,0.64-2.88,0.97c-1.27,0.1-2.54,0.19-3.81,0.29
		c-1.14,0.3-2.27,0.6-3.41,0.91c-1.74-0.06-3.5,0.21-5.23-0.19c-2.22-0.84-4.69-1.01-6.7-2.44c-0.51-0.8-1.31-1.32-2.11-1.67
		c-2.12-0.95-3.36-2.64-4.33-4.63c-0.12-0.24-0.3-0.45-0.46-0.68c-0.17-0.25-0.35-0.5-0.53-0.76c-0.11-0.22-0.23-0.43-0.34-0.65
		c-0.13-0.26-0.25-0.51-0.38-0.77c-0.02-0.69-0.03-1.38-0.05-2.08c-0.12-0.14-0.09-0.33-0.17-0.49c-0.01-0.17-0.01-0.34-0.02-0.5
		c0.67-0.46,1.23-0.04,1.77,0.27c0.95,0.55,1.67,1.36,2.34,2.21c1.94,2.45,4.27,4.03,7.56,4.27c2.21,0.17,4.46,0.26,6.63,0.82
		c0.45,0.39,0.86,0.18,1.27-0.11c5.34-1.27,10.21-3.54,14.68-6.7c1.24-0.87,2.53-1.66,4-2.11
		C481.15,289.33,481.81,289.35,481.86,290.42z"/>
	<path style="fill-rule:evenodd;clip-rule:evenodd;fill:#BF211C;" d="M481.43,284.23c0.5-0.53,0.7,0.08,0.92,0.3
		c1.97,1.96,2.61,4.31,1.94,7c-0.11,0.45-0.15,0.85,0.12,1.25c0.83,1.23,1.5,2.52,1.91,3.96c0.22,0.76,1.03,0.92,1.71,1.15
		c1.46,0.49,2.99,0.82,3.86,2.36c0.49,0.88,0.44,1.29-0.59,1.42c-0.56,0.01-1.11,0.02-1.67,0.03c-2.8-0.56-5.54-1.33-8.22-2.33
		c-1.74-0.65-1.83-0.71-0.86-2.2c0.87-1.33,1.3-2.81,1.56-4.35c0.33-2.43,0.45-4.84-0.41-7.2
		C481.54,285.18,481.51,284.7,481.43,284.23z"/>
	<path style="fill-rule:evenodd;clip-rule:evenodd;fill:#C74023;" d="M460.53,298.84c-1.88-0.53-3.84-0.56-5.76-0.68
		c-3.88-0.24-6.9-1.78-9.15-4.97c-0.81-1.15-1.91-2.17-3.49-2.28c-0.02-0.46-0.04-0.93-0.05-1.39c-0.16-0.42-0.17-0.83,0-1.25
		l0-0.01c0.93-0.51,1.5,0.23,2.12,0.66c1.19,0.8,2.19,1.86,3.26,2.81c2.92,2.6,6.49,3.43,10.18,4.13c4.96,0.95,9.29-0.64,13.45-3.07
		c0.86-0.5,1.72-1,2.48-1.66c0.45-0.39,0.98-0.71,1.61-0.7c0.48,0.1,0.84,0,0.95-0.57c0.06-0.3,0.1-0.63,0.35-0.87
		c1.52-1.23,3.22-1.9,5.2-1.7l0.01,0.02c0.27,0.44-0.01,0.96,0.19,1.41c0,0.56-0.01,1.12-0.01,1.68c-0.29-0.8-0.8-0.78-1.51-0.53
		c-2.8,0.97-4.89,3.11-7.47,4.43c-3.62,1.84-7.21,3.74-11.31,4.28C461.13,298.32,460.84,298.64,460.53,298.84z"/>
	<path style="fill-rule:evenodd;clip-rule:evenodd;fill:#CB5132;" d="M462.76,275.82c1.15-0.42,2.28-0.86,3.44-1.26
		c2.03-0.7,4.05-0.58,5.99,0.31c0.82,0.38,1.72,0.5,2.53,0.95c1.74,0.97,2.9,2.41,3.9,4.05c-0.32,0.38-0.48,0.81-0.45,1.31
		c0.17,3.56-1.6,6.28-3.84,8.79c-0.39,0.44-0.82,0.86-1.28,1.24c-1.14,0.7-2.2,1.56-3.43,2.11c-0.08,0.05-0.18,0.09-0.27,0.13
		c-0.12,0.06-0.25,0.11-0.38,0.16c-0.08,0.04-0.16,0.07-0.23,0.1c-0.11,0.05-0.23,0.1-0.34,0.15c-0.07,0.04-0.14,0.08-0.22,0.11
		c-0.11,0.06-0.22,0.11-0.33,0.17c-0.07,0.05-0.15,0.09-0.23,0.13c-0.12,0.07-0.24,0.14-0.36,0.21c-0.09,0.05-0.18,0.1-0.27,0.14
		c-0.75,0.31-1.53,0.53-2.29,0.81c-0.11,0.04-0.22,0.07-0.33,0.09c-1.9,0.41-3.82,0.4-5.74,0.23c-0.12-0.01-0.24-0.04-0.35-0.08
		c-2.67-0.74-5.38-1.3-7.92-2.48c-0.73-0.34-1.39-0.74-2.05-1.18c-0.1-0.05-0.2-0.11-0.28-0.18c-0.29-0.24-0.56-0.51-0.89-0.7
		c-0.09-0.05-0.18-0.12-0.26-0.19c-0.35-0.31-0.66-0.67-1.06-0.93c-0.09-0.06-0.17-0.12-0.26-0.18c-0.09-0.06-0.17-0.13-0.24-0.21
		c-0.04-0.04-0.08-0.07-0.12-0.11c-0.12-0.11-0.23-0.23-0.33-0.36c-0.07-0.08-0.14-0.17-0.2-0.26c-0.39-0.6-0.96-1.05-1.34-1.67
		c-0.28-0.46-0.68-0.63-1.2-0.42c-0.13-0.52,0.13-0.97,0.25-1.44c0.06-0.15,0.04-0.33,0.17-0.45c0.02-0.17,0.04-0.34,0.06-0.51
		c0.06-0.09,0.11-0.19,0.16-0.29c0.02-0.14,0.05-0.29,0.07-0.43c0.06-0.1,0.15-0.19,0.16-0.31c-0.02-0.05-0.03-0.11-0.04-0.16
		l0.08,0.02c0.66-0.07,0.82,0.44,0.92,0.89c1,4.47,4.2,6.81,8.17,8.3c2.46,0.92,5,1.64,7.61,2.07c1.59,0.26,3.1,0.1,4.6-0.33
		c3.9-1.11,7.36-2.98,9.71-6.38c1.38-2,2.56-4.16,2.25-6.77c-0.2-1.67-1.11-2.79-2.63-3.41c-1.19-0.48-2.43-0.81-3.73-0.75
		c-1.99,0.09-3.97-0.54-5.97-0.1c-0.13,0.01-0.26,0.01-0.39-0.01C463.2,276.55,462.45,276.66,462.76,275.82z"/>
	<path style="fill-rule:evenodd;clip-rule:evenodd;fill:#CA4C2D;" d="M472.8,291.16c1.36-1.55,2.82-3,3.8-4.88
		c0.94-1.8,1.4-3.62,1.24-5.63c-0.04-0.5-0.13-1.16,0.77-0.78c1.84,2.14,2.47,4.79,3.05,7.45c-1.85,0.39-3.67,0.88-5.28,1.93
		c-0.44,0.4-0.75,0.89-0.98,1.44c-1.73,0.23-2.73,1.69-4.17,2.44c-3.57,1.85-7.11,3.66-11.3,3.31c-5.35-0.44-10.34-1.73-14.24-5.8
		c-0.98-1.03-2.04-2.17-3.63-2.37c0.02-0.4,0.04-0.79,0.05-1.19c0.47-0.36,0.92-0.28,1.26,0.15c0.49,0.62,1.14,1.1,1.58,1.77l0,0
		c0.12,0.2,0.28,0.36,0.48,0.48v0c0.08,0.08,0.16,0.16,0.24,0.24l0,0c0.54,0.33,0.89,0.88,1.44,1.2l0,0
		c0.33,0.22,0.62,0.51,0.96,0.72l0,0c2.53,2.01,5.6,2.66,8.61,3.46c0.56,0.15,1.13,0.28,1.71,0.38l0,0c2.1,0.42,4.18,0.33,6.24-0.24
		l0,0c0.89-0.29,1.83-0.44,2.64-0.96c0.13-0.14,0.35-0.09,0.48-0.24c0.13-0.14,0.35-0.09,0.48-0.24c0.13-0.14,0.35-0.09,0.48-0.24
		c0.13-0.14,0.35-0.1,0.48-0.24C470.55,292.85,471.66,291.97,472.8,291.16z"/>
	<path style="fill-rule:evenodd;clip-rule:evenodd;fill:#CA4D2D;" d="M444.96,289c-1.04-0.5-1.38-2.03-2.83-1.92
		c0-0.09,0.01-0.17,0.01-0.26c0.28-0.56,0.56-1.08,1.08-0.19C443.71,287.49,444.63,288.02,444.96,289z"/>
	<path style="fill-rule:evenodd;clip-rule:evenodd;fill:#CA4D2D;" d="M442.07,288.28c0,0.42,0,0.83,0,1.25
		C441.82,289.11,441.79,288.69,442.07,288.28z"/>
	<path style="fill-rule:evenodd;clip-rule:evenodd;fill:#CD5C3A;" d="M442.56,284.93c-0.06,0.15-0.12,0.3-0.17,0.45
		C442.45,285.23,442.5,285.08,442.56,284.93z"/>
	<path style="fill-rule:evenodd;clip-rule:evenodd;fill:#C74023;" d="M442.14,291.42c0.06,0.16,0.11,0.33,0.17,0.49
		C442.25,291.75,442.2,291.59,442.14,291.42z"/>
	<path style="fill-rule:evenodd;clip-rule:evenodd;fill:#CD5C3A;" d="M442.78,284.14c-0.05,0.1-0.1,0.19-0.16,0.29
		C442.68,284.33,442.73,284.23,442.78,284.14z"/>
	<path style="fill-rule:evenodd;clip-rule:evenodd;fill:#CD5C3A;" d="M443.02,283.39c-0.05,0.1-0.11,0.21-0.16,0.31
		C442.91,283.6,442.96,283.5,443.02,283.39z"/>
	<path style="fill-rule:evenodd;clip-rule:evenodd;fill:#54A14F;" d="M486.25,265.19c0.07,0,0.14,0,0.21,0l-0.11,0.02L486.25,265.19
		z"/>
	<path style="fill-rule:evenodd;clip-rule:evenodd;fill:#CD5C3A;" d="M463.92,276.52c0.19-0.07,0.37-0.21,0.56-0.21
		c2.85,0.09,5.75-0.08,8.52,0.73c3.19,0.94,4.45,3.5,3.42,6.71c-2.05,6.38-6.85,9.55-13.03,10.98c-3.72,0.86-7.11-0.73-10.58-1.7
		c-3.06-0.86-5.52-2.61-7.52-5.04c-0.82-0.99-1.47-2.08-1.53-3.43c-0.03-0.54-0.19-1.02-0.7-1.31c0.5-1.72,2.18-2.48,3.11-3.84
		c0.92-0.71,1.76-1.52,2.85-1.99c2.38-0.29,4.74-0.73,7.15-0.57c0.52,0.03,1.04-0.03,1.53,0.17c0.66,0.64,0.41,1.03-0.38,1.22
		c-0.51,0.12-1.03,0.07-1.55,0.06c-1.88-0.03-3.75-0.07-5.58,0.49c-1.61,0.48-3.01,1.28-4.03,2.64c-1.36,1.81-1.39,3.5-0.3,5.47
		c1.36,2.45,3.55,3.87,6.06,4.81c2.38,0.89,4.87,1.5,7.37,2.02c2.79,0.58,5.42-0.01,7.88-1.25c2.09-1.05,4.21-2.16,5.67-4.1
		c1.35-1.79,2.48-3.71,2.89-5.97c0.31-1.68-0.32-3.11-1.79-3.96c-0.99-0.57-2.04-0.92-3.19-0.87c-1.98,0.09-3.95-0.3-5.94-0.09
		C464.28,277.55,463.63,277.38,463.92,276.52z"/>
	<path style="fill-rule:evenodd;clip-rule:evenodd;fill:#68985E;" d="M473.26,258.56c-0.08,0.06-0.16,0.13-0.24,0.19
		C473.1,258.69,473.18,258.62,473.26,258.56z"/>
	<path style="fill-rule:evenodd;clip-rule:evenodd;fill:#CE5E36;" d="M496.87,276.28c-0.04-0.07-0.08-0.15-0.11-0.22
		c1.71-0.8,3.32-1.98,5.41-1.24c2.76,0.98,4.85,5.05,4,7.84c-0.17,0.55-0.65,1.15-0.01,1.73c-0.81,0.1-0.37,0.86-0.66,1.24
		c-1.06,0.29-1.28,1.54-2.23,1.94c-0.09-0.03-0.17-0.07-0.24-0.12c-0.12-0.07-0.25-0.13-0.38-0.18c-0.48-0.06-0.57,0.36-0.78,0.63
		c-1.78,1.53-3.77,2.24-6.16,2.12c-2.06-0.1-4.13-0.01-6.21-0.17c-1.64-0.13-2.76-0.78-3.24-2.34c-0.4-1.29-1.25-2.29-1.98-3.36
		c0.37-0.7,0.89-0.33,1.32-0.13c0.83,0.39,1.67,0.77,2.54,1.04c0.12,0.1,0.17,0.24,0.22,0.39c0.1,0.33-0.28,0.84,0.07,0.96
		c0.44,0.16,0.47-0.5,0.76-0.73c0.09-0.09,0.19-0.14,0.3-0.18c0.12-0.02,0.24-0.02,0.36-0.01c0.67,0.11,1.34,0.24,1.98,0.46
		c2.58,0.88,4.88,0.12,7.02-1.25c1.29-0.82,2.68-1.2,4.16-1.33c1.57-0.14,2.27-1,1.98-2.56c-0.11-0.63-0.33-1.24-0.15-1.88
		c-0.32-2.68-3.57-4.22-6.21-2.92C498.06,276.3,497.54,276.76,496.87,276.28z"/>
	<path style="fill-rule:evenodd;clip-rule:evenodd;fill:#CA5231;" d="M484.32,283.96c1.12,1.11,1.93,2.41,2.45,3.91
		c0.4,1.16,1.34,1.6,2.53,1.62c1.98,0.02,3.97,0.07,5.93,0.15c2.17,0.08,3.99-0.31,5.75-1.4c0.3-0.18,0.54-0.45,0.82-0.67
		c0.47,0.33,0.36,0.79,0.29,1.24c0.22,0.39,0.02,0.52-0.33,0.69c-2.01,1.01-4.09,1.67-6.39,1.43c-0.91-0.09-1.8,0-2.62,0.48
		c-0.12,0.01-0.24-0.03-0.36-0.06c-0.13-0.01-0.24,0.03-0.36,0.09c-0.25,0.1-0.44,0.35-0.75,0.23c-0.08-0.81-0.68-0.75-1.24-0.74
		c-1.85,0.04-3.29-0.62-3.83-2.5c-0.53-1.84-1.49-3.38-2.85-4.7c0.08-0.12,0.2-0.15,0.33-0.15c0.08,0.01,0.17,0.04,0.24,0.07
		c0.11,0.06,0.22,0.12,0.32,0.21C484.28,283.89,484.3,283.92,484.32,283.96z"/>
	<path style="fill-rule:evenodd;clip-rule:evenodd;fill:#3B352F;" d="M502.08,288.8c-0.36-0.35-0.25-0.81-0.29-1.24
		c0.13-0.92,0.62-0.88,1.25-0.47c0.08,0.09,0.17,0.18,0.22,0.3c-0.01,0.06-0.01,0.13,0.01,0.19
		C502.95,288.06,502.99,288.89,502.08,288.8z"/>
	<path style="fill-rule:evenodd;clip-rule:evenodd;fill:#332F2D;" d="M492.47,291.1c0.09,0.1,0.19,0.2,0.28,0.3
		c-0.06,0.38-0.02,0.82-0.52,0.96l-0.08-0.09l0.09,0.08c0.03,0.35-0.15,0.54-0.47,0.45c-0.61-0.17-0.45-0.7-0.48-1.14
		c0.24-0.34,0.51-0.63,0.98-0.6C492.34,291.06,492.4,291.08,492.47,291.1z"/>
	<path style="fill-rule:evenodd;clip-rule:evenodd;fill:#36322E;" d="M505.5,285.63c-0.03-0.55-0.57-1.36,0.66-1.24
		c0.61,0.31,0.43,0.77,0.22,1.21C506.12,286.11,505.8,285.82,505.5,285.63z"/>
	<path style="fill-rule:evenodd;clip-rule:evenodd;fill:#CE5E36;" d="M483.84,283.72c-0.16,0-0.32,0-0.48,0h0
		c-0.07-0.09-0.16-0.16-0.24-0.24l0,0c-0.08-0.08-0.16-0.16-0.24-0.24l0,0c-0.08-0.08-0.16-0.16-0.24-0.24l0,0
		c-0.08-0.08-0.16-0.16-0.24-0.24l0,0c-0.08-0.08-0.15-0.17-0.24-0.24c0-0.08,0-0.16,0-0.24c0-0.08,0-0.16,0-0.24
		C483.14,282.18,483.7,282.74,483.84,283.72z"/>
	<path style="fill-rule:evenodd;clip-rule:evenodd;fill:#CA5231;" d="M483.12,283.48c0.08,0.08,0.16,0.16,0.24,0.24
		C483.28,283.64,483.2,283.56,483.12,283.48z"/>
	<path style="fill-rule:evenodd;clip-rule:evenodd;fill:#CA5231;" d="M482.16,282.52c0.08,0.08,0.16,0.16,0.24,0.24
		C482.32,282.68,482.24,282.6,482.16,282.52z"/>
	<path style="fill-rule:evenodd;clip-rule:evenodd;fill:#CA5231;" d="M482.64,283c0.08,0.08,0.16,0.16,0.24,0.24
		C482.8,283.16,482.72,283.08,482.64,283z"/>
	<path style="fill-rule:evenodd;clip-rule:evenodd;fill:#CA5231;" d="M482.88,283.24c0.08,0.08,0.16,0.16,0.24,0.24
		C483.04,283.4,482.96,283.32,482.88,283.24z"/>
	<path style="fill-rule:evenodd;clip-rule:evenodd;fill:#CA5231;" d="M482.4,282.76c0.08,0.08,0.16,0.16,0.24,0.24
		C482.56,282.92,482.48,282.84,482.4,282.76z"/>
	<path style="fill-rule:evenodd;clip-rule:evenodd;fill:#D16B42;" d="M483.84,283.72c-0.46-0.65-1.02-1.21-1.68-1.68
		c-0.78-1.28-1.52-2.58-2.43-3.8c-0.94-1.26-0.48-3.25,0.91-4.05c1.01-0.59,1.88-1.3,2.73-2.09c1.84-1.71,3.39-1.55,6.2,0.52
		c-0.32,0.08-0.63,0.17-0.95,0.25c-0.07-0.03-0.15-0.05-0.22-0.1c-2.25-1.42-3.11-1.18-4.83,0.75c-0.52,0.58-1.18,0.94-1.84,1.32
		c-1.48,0.85-1.72,2.09-0.61,3.37c0.59,0.68,0.98,1.4,1.27,2.25c0.45,1.31,1.21,2.42,2.76,2.71c0.78,0.15,1.53,0.46,2.28,0.75
		c0.45,0.17,0.93,0.35,0.88,0.98c-0.04,0.12-0.11,0.2-0.21,0.26c-0.95,0.28-1.59-0.44-2.36-0.74c-0.47-0.18-0.88-0.52-1.42-0.46v0
		C484.19,283.81,483.97,283.86,483.84,283.72L483.84,283.72z"/>
	<path style="fill-rule:evenodd;clip-rule:evenodd;fill:#1D1710;" d="M487.88,266.74c-0.24,0.07-0.49,0.14-0.73,0.22
		c-0.88,0.07-1.46,0.52-1.77,1.34c-0.06,0.17-0.21,0.31-0.31,0.46c-0.23-0.21-0.03-0.43,0.02-0.63c0.07-0.26,0.2-0.5,0.31-0.75
		c-0.3,0.05-0.6,0.08-0.89,0.16c-0.38,0.1-0.75,0.26-1.13,0.35c-0.41,0.1-0.77,0.48-1.25,0.25c0.29-0.46,0.8-0.46,1.24-0.61
		C484.82,267.02,486.28,266.45,487.88,266.74z"/>
	<path style="fill-rule:evenodd;clip-rule:evenodd;fill:#C23720;" d="M462,273.4c1.19,0.34,2.58-0.1,3.59,0.93
		c-1.31,0.58-2.61,1.17-4.08,1.27c-0.65-0.7,0.2-1.15,0.28-1.73C461.91,273.73,461.86,273.53,462,273.4L462,273.4z"/>
	<path style="fill-rule:evenodd;clip-rule:evenodd;fill:#221E1E;" d="M462.76,275.82c-0.04,0.67,0.62,0.44,0.9,0.71
		c0.3,0.54-0.08,0.64-0.46,0.59c-0.47-0.06-0.93-0.22-1-0.82c0.09-0.17,0.18-0.33,0.27-0.5
		C462.57,275.8,462.67,275.81,462.76,275.82z"/>
	<path style="fill-rule:evenodd;clip-rule:evenodd;fill:#CA4C2D;" d="M481.87,288.75c-0.34-0.43-0.13-0.94-0.19-1.41
		C482.06,287.76,481.89,288.26,481.87,288.75z"/>
	<path style="fill-rule:evenodd;clip-rule:evenodd;fill:#CA4E2E;" d="M472.3,274.37c0.09,0.07,0.17,0.14,0.26,0.2
		C472.47,274.5,472.39,274.43,472.3,274.37z"/>
	<path style="fill-rule:evenodd;clip-rule:evenodd;fill:#8CB763;" d="M511.95,278.15c0.07,0.33,0.13,0.67,0.2,1
		C511.8,278.88,511.94,278.5,511.95,278.15z"/>
	<path style="fill-rule:evenodd;clip-rule:evenodd;fill:#8CB763;" d="M512.16,279.16c0.07,0,0.15-0.01,0.22-0.02
		C512.33,279.29,512.25,279.31,512.16,279.16z"/>
	<path style="fill-rule:evenodd;clip-rule:evenodd;fill:#EABF8A;" d="M493.23,278.47c0.18,0.4,0.32,0.14,0.47-0.02
		c1.29,0.84,2.58,0.48,3.85-0.03c0.69-0.28,1.4-0.59,2-1.02c1.17-0.84,1.98-0.25,2.77,0.57c0.69,1.12,0.7,1.41-0.4,2.14
		c-0.69,0.46-0.95,1.55-2.03,1.43c-0.28-0.31-0.51-0.83-1.01-0.23c-0.32,0.25-0.32,0.7-0.61,0.97c-0.15,0.08-0.31,0.09-0.47,0.05
		c-2.45-0.6-4.95-0.92-7.45-1.19c-2.09-0.23-3.77-1.15-5.18-2.7c-0.58-0.64-1.16-1.54-2.3-1.03c-0.29,0.02-0.51-0.08-0.65-0.34
		c-0.14-0.31-0.14-0.64-0.05-0.96c1.01-0.83,1.78-1.86,2.58-2.88c0.92-1.19,2.18-1.01,3.07,0.23c0.58,0.81,0.84,1.79,1.38,2.63
		c-0.08,0.15-0.26,0.41-0.23,0.44c0.31,0.28,0.4-0.19,0.63-0.22c0.99,0.45,1.97,0.94,2.98,1.34
		C493.02,277.79,493.23,278.02,493.23,278.47z"/>
	<path style="fill-rule:evenodd;clip-rule:evenodd;fill:#E3AB82;" d="M482.88,277.24c0.71-0.99,1.26-0.21,1.75,0.22
		c1.39,1.22,2.54,2.79,4.54,3.11c2.58,0.42,5.17,0.82,7.75,1.23c0.44,0.07,0.88,0.15,1.32,0.23c0.24-0.13,0.45,0.09,0.68,0.06
		c0.08-0.04,0.16-0.08,0.23-0.13c0.14-0.13,0.21-0.3,0.3-0.47c0.05-0.09,0.11-0.17,0.19-0.23c0.1-0.04,0.19-0.02,0.26,0.07
		c1.56-0.63,2.7-2.22,2.4-3.36c0.4,0.4,0.8,0.8,1.2,1.2c0.21,0.19,0.36,0.42,0.48,0.68c0.08,0.17,0.11,0.34,0.05,0.52
		c-0.91,1.07-2.11,1.79-3.23,2.6c-0.68,0.5-1.51,0.4-2.3,0.23c-3.08-0.09-6.14-0.36-9.18-0.83c-1.38-0.21-2.61-0.74-3.63-1.7
		c-0.37-0.45-0.1-1.22-0.77-1.52C484.39,278.36,483.78,277.65,482.88,277.24z"/>
	<path style="fill-rule:evenodd;clip-rule:evenodd;fill:#2C2A27;" d="M503.98,280.15c-0.11-0.1-0.21-0.2-0.32-0.29
		c-0.02-0.24-0.06-0.48,0.04-0.71c0.02-0.15,0.04-0.31,0.06-0.46c0.08-0.09,0.15-0.19,0.23-0.28c0.12-0.09,0.15-0.25,0.24-0.37
		c0.07-0.07,0.16-0.13,0.25-0.17c0.11-0.01,0.2,0.01,0.29,0.07c0.36,0.26,0.3,0.65,0.29,1.02c-0.21,0.44-0.27,0.98-0.77,1.24
		C504.19,280.23,504.08,280.22,503.98,280.15z"/>
	<path style="fill-rule:evenodd;clip-rule:evenodd;fill:#D88A69;" d="M503.71,279.15c-0.01,0.24-0.03,0.47-0.04,0.71
		c-0.05-0.23-0.1-0.47-0.15-0.7C503.58,279.16,503.65,279.16,503.71,279.15z"/>
	<path style="fill-rule:evenodd;clip-rule:evenodd;fill:#D37548;" d="M504.25,278.16c-0.08,0.08-0.17,0.17-0.25,0.25
		c-1.12-2.32-3.27-3.04-5.46-1.76c-0.39,0.23-0.76,0.39-1.21,0.35c-0.09-0.16-0.18-0.32-0.28-0.49c0.54-0.12,1.03-0.35,1.53-0.61
		c2.41-1.22,4.82-0.36,5.91,2.06l-0.01,0C504.41,278.04,504.33,278.1,504.25,278.16z"/>
	<path style="fill-rule:evenodd;clip-rule:evenodd;fill:#322D25;" d="M509.04,269.57c-0.07-0.26-0.28-0.24-0.48-0.24
		c0.51-0.87,1.1-0.12,1.65-0.08C509.81,269.36,509.42,269.46,509.04,269.57z"/>
	<path style="fill-rule:evenodd;clip-rule:evenodd;fill:#E4AB74;" d="M489.2,276.07c-0.71-0.29-0.86-0.96-1.13-1.58
		c-0.35-0.78-0.71-1.71-1.74-1.76c-0.99-0.05-1.55,0.68-1.95,1.51c-0.42,0.88-1.04,1.54-2,1.84c-0.13,0.07-0.25,0.02-0.38-0.01
		c-0.14-0.01-0.28,0.01-0.42,0.02c-0.37-0.13-0.51-0.38-0.41-0.76c1.34-0.72,2.35-1.81,3.43-2.85c1.21-1.17,2.98-0.65,3.59,0.91
		c0.07,0.01,0.14,0.01,0.21,0.01c0.33,0.81,0.66,1.63,0.99,2.44C489.33,275.91,489.26,275.99,489.2,276.07z"/>
	<path style="fill-rule:evenodd;clip-rule:evenodd;fill:#D7855A;" d="M488.19,273.38c-1.5-1.71-3.05-1.69-4.29,0.24
		c-0.68,1.05-1.87,1.24-2.67,2.02c0.26,0.52-0.15,1.22,0.43,1.65c0.14,0.16,0.16,0.37,0.2,0.57c0.07,0.14,0.16,0.25,0.28,0.36
		c0.45,0.38,0.7,0.83,0.7,1.45c-0.01,1.54,0.84,2.63,2.35,2.96c0.86,0.19,1.69,0.44,2.51,0.73c0.45,0.16,0.88,0.37,1.08,0.87
		c0.04,0.44-0.09,0.75-0.6,0.73c-0.37-1.04-1.42-0.98-2.18-1.16c-2.28-0.54-3.74-1.73-4.14-4.13c-0.07-0.43-0.62-0.79-0.96-1.18
		c-1.26-1.41-1.08-2.97,0.56-3.85c0.97-0.52,1.77-1.19,2.52-1.96c1.6-1.62,3.14-1.54,4.65,0.19
		C488.36,272.94,488.15,273.05,488.19,273.38z"/>
	<path style="fill-rule:evenodd;clip-rule:evenodd;fill:#CE613A;" d="M504.49,277.97c-2.17-2.71-3.23-2.99-6.3-1.68
		c-0.35,0.15-0.76,0.15-1.14,0.23c-0.06-0.08-0.12-0.16-0.18-0.24c1.24,0.03,2.14-0.93,3.33-1.13c1.89-0.31,4.85,1.83,5,3.77
		c-0.07,0.11-0.14,0.12-0.2,0C504.94,278.54,505.01,278.1,504.49,277.97z"/>
	<path style="fill-rule:evenodd;clip-rule:evenodd;fill:#CE6140;" d="M462.2,276.3c1.06,0.71,1.13,0.72,1.45,0.23
		c0.09,0,0.18,0,0.26,0c0.15,0.9,0.76,0.65,1.37,0.64c2.56-0.02,5.17-0.27,7.65,0.44c2.82,0.81,3.79,3.21,2.87,6.1
		c-2.11,6.59-9.17,10.89-14.92,10.49c-4.6-0.33-9.24-1.39-12.95-4.38c-3.2-2.58-4.6-5.79-1.71-9.05c1.77-1.99,4.22-2.63,6.78-2.78
		c1.31-0.08,2.64-0.02,3.96-0.01c0.52,0,1,0,0.94-0.72c0.08-0.06,0.15-0.06,0.23-0.01c0.07,0.27,0.23,0.31,0.42,0.14
		C459.61,276.43,460.7,275.67,462.2,276.3z"/>
	<path style="fill-rule:evenodd;clip-rule:evenodd;fill:#CB5334;" d="M458.15,277.23c-0.08,0-0.15,0-0.23,0.01
		c-2.57,0.01-5.15-0.14-7.7,0.45c-0.39,0.09-0.88,0.18-1.2-0.27c2.74-1.65,5.68-2.33,8.86-1.84c0.5,0.08,0.99,0.22,1.37,0.6
		C458.88,276.53,458.51,276.88,458.15,277.23z"/>
	<path style="fill-rule:evenodd;clip-rule:evenodd;fill:#C74E30;" d="M458.96,272.35c1.24-0.08,1.75,0.58,1.38,1.61
		c-0.07,0.19-0.17,0.37-0.21,0.56c-0.18,1.01-0.45,1.45-1.64,0.83c-1.35-0.71-1.45-0.57-0.39-1.76
		C458.46,273.19,458.45,272.51,458.96,272.35z"/>
	<path style="fill-rule:evenodd;clip-rule:evenodd;fill:#3B8A4A;" d="M462.65,270.55c-0.68,1.72-1.31,3.33-1.96,4.94
		c-0.03,0.07-0.19,0.09-0.29,0.13c-0.02-0.15-0.11-0.33-0.07-0.45c0.58-1.47,0.9-3.05,1.7-4.43c0.12-0.2,0.25-0.43,0.54-0.36
		C462.64,270.39,462.66,270.56,462.65,270.55z"/>
	<path style="fill-rule:evenodd;clip-rule:evenodd;fill:#CA4E2E;" d="M462,273.4c-0.07,0.15-0.14,0.31-0.2,0.47
		C461.86,273.71,461.93,273.56,462,273.4z"/>
	<path style="fill-rule:evenodd;clip-rule:evenodd;fill:#89B761;" d="M453.83,272.68c-0.05,0.9-0.69,1.39-1.44,1.52
		c-1.81,0.33-3.32,1.25-4.81,2.24c-0.31,0.21-0.6,0.45-0.95,0.12c-0.34-0.32,0.04-0.54,0.13-0.82c0.66-2.02,2.2-3.25,3.91-4.3
		c0.73-0.45,1.54-0.69,2.35-0.12C453.47,271.65,453.92,272.01,453.83,272.68z"/>
	<path style="fill-rule:evenodd;clip-rule:evenodd;fill:#D06B41;" d="M472.32,263.57c0.07-0.1,0.14-0.21,0.2-0.31
		c1.23,1.29,1.96,4.75,1.19,6.28c-1.02,2.01-2.63,3.21-5,3.15c-0.2-0.22-0.11-0.42,0.04-0.61c0.89-0.64,2.11-0.67,2.85-1.58
		c0.07-0.14,0.14-0.28,0.22-0.41c0.05-0.09,0.11-0.18,0.18-0.26c0.14-0.15,0.27-0.34,0.52-0.27c1.36-0.73,0.72-1.92,0.59-2.91
		C472.97,265.6,472.6,264.59,472.32,263.57z"/>
	<path style="fill-rule:evenodd;clip-rule:evenodd;fill:#34302D;" d="M474.46,271.75c0.55,0.37,0.6,0.82,0.29,1.39
		c-0.24,0.44-0.51,0.54-0.92,0.25C473.31,272.57,473.61,272.05,474.46,271.75z"/>
	<path style="fill-rule:evenodd;clip-rule:evenodd;fill:#393330;" d="M467.26,271.97c0.3-0.6,0.8-0.8,1.44-0.72
		c0.04,0.04,0.07,0.08,0.11,0.12c-0.01,0.11-0.05,0.21-0.12,0.29c-0.24,0.24-0.51,0.48-0.27,0.88c0.02,0.05,0.03,0.09,0.05,0.14
		c-0.12,0.34-0.35,0.57-0.71,0.42C467.29,272.89,467.27,272.42,467.26,271.97z"/>
	<path style="fill-rule:evenodd;clip-rule:evenodd;fill:#393631;" d="M476.67,268.6c-0.17,0.31-0.34,0.62-0.51,0.93
		c-0.54,0-0.5-0.39-0.51-0.75c0.27-0.18,0.04-0.29-0.05-0.43c-0.02-0.1,0-0.18,0.07-0.25c0.1-0.3,0.29-0.52,0.61-0.42
		C476.72,267.83,476.61,268.26,476.67,268.6z"/>
	<path style="fill-rule:evenodd;clip-rule:evenodd;fill:#393330;" d="M468.98,272.2c-0.09,0.16-0.18,0.32-0.26,0.49
		c-0.08,0-0.16-0.01-0.24-0.01l0,0c-0.37-0.5-0.22-0.89,0.26-1.2l-0.02,0.02c0.08-0.08,0.16-0.09,0.25,0l0,0
		C469.18,271.72,469.12,271.96,468.98,272.2z"/>
	<path style="fill-rule:evenodd;clip-rule:evenodd;fill:#E0B485;" d="M475.68,268.35c0.19-0.05,0.42-0.11,0.45,0.16
		c0.03,0.36-0.25,0.3-0.47,0.26c0.02-0.05,0.01-0.09-0.02-0.13C475.57,268.54,475.58,268.44,475.68,268.35z"/>
	<path style="fill-rule:evenodd;clip-rule:evenodd;fill:#24241E;" d="M475.68,268.35c-0.02,0.1-0.03,0.19-0.05,0.29
		c-0.13-0.06-0.25-0.12-0.37-0.19c0.14-0.12,0.27-0.24,0.41-0.36C475.67,268.18,475.67,268.27,475.68,268.35z"/>
	<path style="fill-rule:evenodd;clip-rule:evenodd;fill:#3F3A37;" d="M470.89,261.13c0.18-0.06,0.36-0.12,0.54-0.18
		C471.25,261.01,471.07,261.07,470.89,261.13z"/>
	<path style="fill-rule:evenodd;clip-rule:evenodd;fill:#8EB864;" d="M483.35,262.14c0.72,0.17,1.44,0.34,2.16,0.51
		c0,0.06,0,0.12,0,0.18c-2.35,0.89-4.62,0.62-6.78-0.54c-1.2-0.64-1.6-1.52-1.37-2.57c0.24,0,0.48,0,0.72,0
		c0.11,1.37,1.9,2.67,3.71,2.49C482.31,262.17,482.87,262.64,483.35,262.14z"/>
	<path style="fill-rule:evenodd;clip-rule:evenodd;fill:#73AC5A;" d="M477.36,259.72c0.15,1.93,1.93,3.27,4.62,3.34
		c1.18,0.03,2.36-0.15,3.54-0.23c-2.15,1.41-4.29,0.7-6.39-0.09c-1.03-0.38-1.8-1.11-2.11-2.24
		C476.91,260.11,476.81,259.8,477.36,259.72z"/>
	<path style="fill-rule:evenodd;clip-rule:evenodd;fill:#8CB765;" d="M485.76,260.69c0.96,0.4,1.92,0.79,2.89,1.19
		c0.07,0.05,0.1,0.11,0.07,0.16c-0.02,0.05-0.05,0.08-0.07,0.08c-0.93,0.51-1.94,0.02-2.89,0.25c-0.41-0.15-0.82-0.31-1.24-0.46
		C485.26,261.84,485.37,261.12,485.76,260.69z"/>
	<path style="fill-rule:evenodd;clip-rule:evenodd;fill:#453A2E;" d="M488.87,262.13c0.04,0.04,0.08,0.07,0.12,0.11
		c-0.03-0.01-0.06,0-0.07-0.02c-0.02-0.03-0.02-0.07-0.03-0.1L488.87,262.13z"/>
	<path style="fill-rule:evenodd;clip-rule:evenodd;fill:#3F352E;" d="M488.64,262.12c-0.01-0.08-0.01-0.16,0-0.24l-0.01,0.01
		c0.07-0.08,0.16-0.09,0.25-0.03l0.02,0.02c-0.01,0.08-0.02,0.17-0.02,0.25c0,0,0.01-0.01,0.01-0.01
		C488.8,262.12,488.72,262.12,488.64,262.12z"/>
	<path style="fill-rule:evenodd;clip-rule:evenodd;fill:#8CB765;" d="M485.52,260.5c0.08,0.06,0.15,0.12,0.23,0.18
		C485.67,260.62,485.6,260.56,485.52,260.5z"/>
	<path style="fill-rule:evenodd;clip-rule:evenodd;fill:#8EB864;" d="M481.44,261.4c0.16,0.08,0.31,0.16,0.46,0.24
		C481.75,261.56,481.6,261.48,481.44,261.4z"/>
	<path style="fill-rule:evenodd;clip-rule:evenodd;fill:#8EB864;" d="M482.88,261.95c0.1,0.05,0.2,0.09,0.29,0.14
		C483.08,262.04,482.98,261.99,482.88,261.95z"/>
	<path style="fill-rule:evenodd;clip-rule:evenodd;fill:#8EB864;" d="M482.16,261.7c0.1,0.05,0.19,0.1,0.29,0.15
		C482.35,261.8,482.26,261.75,482.16,261.7z"/>
	<path style="fill-rule:evenodd;clip-rule:evenodd;fill:#3F3A37;" d="M470.63,260.72c-0.24,0.25-0.54,0.19-0.83,0.17
		C470.03,260.61,470.34,260.68,470.63,260.72z"/>
	<path style="fill-rule:evenodd;clip-rule:evenodd;fill:#72AB5B;" d="M489.6,260.5c0.16,0.06,0.32,0.12,0.47,0.18
		C489.92,260.61,489.76,260.56,489.6,260.5z"/>
	<path style="fill-rule:evenodd;clip-rule:evenodd;fill:#72AB5B;" d="M488.88,261.86c-0.08,0.01-0.16,0.02-0.25,0.03
		c0.01-0.08,0.02-0.16,0.03-0.24C488.74,261.72,488.81,261.79,488.88,261.86z"/>
	<path style="fill-rule:evenodd;clip-rule:evenodd;fill:#DFA06B;" d="M468.98,272.2c-0.01-0.24-0.02-0.48-0.03-0.72
		c0.82-0.41,1.64-0.81,2.46-1.22c0.19-0.04,0.32,0.03,0.42,0.19C471.32,271.77,469.95,271.65,468.98,272.2z"/>
	<path style="fill-rule:evenodd;clip-rule:evenodd;fill:#342F2D;" d="M471.83,270.46c-0.14-0.06-0.28-0.13-0.42-0.19
		c-0.03-0.08-0.07-0.16-0.1-0.23c-0.08-0.16-0.08-0.31-0.01-0.47c0.01-0.65,0.12-1.22,0.99-1.12c0,0.07,0.02,0.12,0.08,0.17
		c0.05,0.09,0.11,0.17,0.18,0.24c0.01,0.16,0.03,0.31,0.04,0.47c-0.02,0.08-0.04,0.16-0.07,0.24c-0.15,0.16-0.3,0.33-0.45,0.49
		c-0.03-0.03-0.05-0.06-0.08-0.09c-0.15-0.16-0.03-0.39-0.12-0.56c0.04,0.22-0.03,0.49,0.21,0.65
		C472,270.18,471.91,270.32,471.83,270.46z"/>
	<path style="fill-rule:evenodd;clip-rule:evenodd;fill:#39332F;" d="M462.21,267.16c0.02,0.08,0.05,0.16,0.07,0.24
		c-0.14,0.43-0.31,0.84-0.78,1.01l-0.12,0.02l-0.11-0.05c0,0-0.06-0.03-0.06-0.03c-0.07-0.24-0.35-0.48,0.04-0.69
		c0.26-0.08,0.28-0.34,0.41-0.51C461.86,266.9,462.04,267.12,462.21,267.16z"/>
	<path style="fill-rule:evenodd;clip-rule:evenodd;fill:#DFA06B;" d="M471.3,269.56c0,0.16,0,0.31,0.01,0.47
		C471.1,269.88,471.1,269.72,471.3,269.56z"/>
	<path style="fill-rule:evenodd;clip-rule:evenodd;fill:#DFA06B;" d="M468.96,271.49c-0.08,0-0.16,0-0.25,0
		c0-0.08-0.01-0.16-0.01-0.24C468.79,271.33,468.87,271.41,468.96,271.49z"/>
	<path style="fill-rule:evenodd;clip-rule:evenodd;fill:#D27548;" d="M461.28,268.39c0.08-0.02,0.15-0.01,0.22,0.03
		C461.43,268.41,461.36,268.4,461.28,268.39z"/>
	<path style="fill-rule:evenodd;clip-rule:evenodd;fill:#B13D2B;" d="M461.68,267.15c0,0.28,0.34,0.84-0.41,0.51
		C461.28,267.39,461.39,267.2,461.68,267.15z"/>
	<path style="fill-rule:evenodd;clip-rule:evenodd;fill:#D98C59;" d="M472.55,268.85c-0.06-0.08-0.12-0.16-0.18-0.24
		C472.43,268.69,472.49,268.77,472.55,268.85z"/>
	<path style="fill-rule:evenodd;clip-rule:evenodd;fill:#33312D;" d="M460.53,298.84c0.08-0.4,0-0.95,0.62-0.96
		c0.45-0.01,0.35,0.43,0.42,0.71C461.34,299.21,461.1,299.74,460.53,298.84z"/>
	<path style="fill-rule:evenodd;clip-rule:evenodd;fill:#2E2D2A;" d="M475.41,290.68c-0.21-0.84,0.04-1.38,0.98-1.44
		C476.34,289.91,476.87,290.97,475.41,290.68z"/>
	<path style="fill-rule:evenodd;clip-rule:evenodd;fill:#CA4D2D;" d="M458.4,295.48c-3.38-0.43-6.63-1.29-9.56-3.11
		c-0.29-0.18-0.51-0.49-0.76-0.73C451.24,293.66,454.9,294.36,458.4,295.48z"/>
	<path style="fill-rule:evenodd;clip-rule:evenodd;fill:#CA4D2D;" d="M464.64,295.24c-2.05,0.85-4.13,0.93-6.24,0.24
		C460.49,295.58,462.57,295.54,464.64,295.24z"/>
	<path style="fill-rule:evenodd;clip-rule:evenodd;fill:#CA4D2D;" d="M472.8,291.16c-1.02,1.02-2.11,1.92-3.6,2.16
		C470.4,292.6,471.6,291.88,472.8,291.16z"/>
	<path style="fill-rule:evenodd;clip-rule:evenodd;fill:#CA4D2D;" d="M467.28,294.28c-0.72,0.77-1.68,0.87-2.64,0.96
		C465.45,294.74,466.38,294.55,467.28,294.28z"/>
	<path style="fill-rule:evenodd;clip-rule:evenodd;fill:#CA4D2D;" d="M447.12,290.92c-0.72-0.12-1.05-0.69-1.44-1.2
		C446.4,289.84,446.73,290.41,447.12,290.92z"/>
	<path style="fill-rule:evenodd;clip-rule:evenodd;fill:#CA4D2D;" d="M448.08,291.64c-0.48-0.02-0.75-0.33-0.96-0.72
		C447.6,290.94,447.87,291.26,448.08,291.64z"/>
	<path style="fill-rule:evenodd;clip-rule:evenodd;fill:#CA4D2D;" d="M445.44,289.48c-0.31-0.01-0.47-0.17-0.48-0.48
		C445.12,289.16,445.28,289.32,445.44,289.48z"/>
	<path style="fill-rule:evenodd;clip-rule:evenodd;fill:#CA4D2D;" d="M469.2,293.32c-0.16,0.08-0.32,0.16-0.48,0.24
		C468.88,293.48,469.04,293.4,469.2,293.32z"/>
	<path style="fill-rule:evenodd;clip-rule:evenodd;fill:#CA4D2D;" d="M468.72,293.56c-0.16,0.08-0.32,0.16-0.48,0.24
		C468.4,293.72,468.56,293.64,468.72,293.56z"/>
	<path style="fill-rule:evenodd;clip-rule:evenodd;fill:#CA4D2D;" d="M468.24,293.8c-0.16,0.08-0.32,0.16-0.48,0.24
		C467.92,293.96,468.08,293.88,468.24,293.8z"/>
	<path style="fill-rule:evenodd;clip-rule:evenodd;fill:#CA4D2D;" d="M467.76,294.04c-0.16,0.08-0.32,0.16-0.48,0.24
		C467.44,294.2,467.6,294.12,467.76,294.04z"/>
	<path style="fill-rule:evenodd;clip-rule:evenodd;fill:#CA4D2D;" d="M445.68,289.72c-0.08-0.08-0.16-0.16-0.24-0.24
		C445.52,289.56,445.6,289.64,445.68,289.72z"/>
	<path style="fill-rule:evenodd;clip-rule:evenodd;fill:#D2724B;" d="M505,278.92c0.07,0,0.13,0,0.2,0
		c-0.21,0.55-0.08,1.07,0.08,1.61c0.55,1.85-0.37,3.19-2.27,3.17c-2.12-0.02-3.78,1.15-5.47,2.1c-2.75,1.54-5.32,0.69-7.95-0.17
		c-0.24-0.3-0.28-0.61-0.07-0.94c0.5-0.32,1.01-0.09,1.5,0.02c2.71,0.6,5.26,0.43,7.7-1.09c1-0.63,2.27-0.66,3.43-0.9
		c1.77-0.37,1.78-0.31,2.01-2.16c0.02-0.16,0.08-0.31,0.09-0.47C504.5,279.71,504.75,279.31,505,278.92z"/>
	<path style="fill-rule:evenodd;clip-rule:evenodd;fill:#343130;" d="M489.68,284.7c-0.03,0.31-0.06,0.63-0.09,0.94l-0.12,0.02
		l-0.12-0.01c-0.1-0.09-0.21-0.16-0.34-0.16c-0.12,0.05-0.21,0.13-0.28,0.24c0.23,0.09,0.39-0.29,0.63-0.09
		c-0.07,0.22-0.11,0.46-0.21,0.66c-0.22,0.41-0.47,0.98-1.02,0.73c-0.46-0.21-0.18-0.75-0.1-1.16c0.04-0.23,0.04-0.46,0.06-0.69
		c0.04-0.06,0.07-0.13,0.07-0.21c0.28-0.17,0.46-0.41,0.45-0.75C489.12,283.87,489.28,283.95,489.68,284.7z"/>
	<path style="fill-rule:evenodd;clip-rule:evenodd;fill:#CA4C2D;" d="M503.26,287.38c-0.07-0.1-0.14-0.2-0.22-0.3
		C503.11,287.18,503.18,287.28,503.26,287.38z"/>
	<path style="fill-rule:evenodd;clip-rule:evenodd;fill:#CE5E36;" d="M483.84,283.72c0.16,0.08,0.32,0.16,0.48,0.24
		C484.16,283.88,484,283.8,483.84,283.72z"/>
	<path style="fill-rule:evenodd;clip-rule:evenodd;fill:#CA4C2D;" d="M492.47,291.1c-0.07,0.01-0.14,0-0.2-0.04
		C492.33,291.07,492.4,291.09,492.47,291.1z"/>
	<path style="fill-rule:evenodd;clip-rule:evenodd;fill:#EAC697;" d="M502.62,287.5c0.09,0.15,0.19,0.24,0.17,0.28
		c-0.1,0.2-0.23,0.39-0.34,0.59c-0.08-0.07-0.23-0.17-0.22-0.19C502.32,287.97,502.45,287.78,502.62,287.5z"/>
	<path style="fill-rule:evenodd;clip-rule:evenodd;fill:#CDA685;" d="M492.24,292.35c-0.41,0.02-0.6-0.14-0.4-0.55
		c0.05-0.11,0.22-0.16,0.33-0.23c0.02,0.26,0.04,0.53,0.06,0.79L492.24,292.35z"/>
	<path style="fill-rule:evenodd;clip-rule:evenodd;fill:#D4AD86;" d="M506.14,285.07c-0.03,0.06-0.06,0.13-0.08,0.19
		c-0.04-0.04-0.11-0.08-0.11-0.12c0-0.06,0.04-0.12,0.07-0.18C506.05,285,506.09,285.03,506.14,285.07z"/>
	<path style="fill-rule:evenodd;clip-rule:evenodd;fill:#E3AA7B;" d="M481.45,277.96c0.08-0.15,0.15-0.3,0.23-0.45
		c0.07-0.39,0.28-0.61,0.7-0.55c0.17,0.09,0.34,0.18,0.5,0.28c1.31-0.19,1.65,0.86,2.17,1.68c0.02,0.38-0.24,0.37-0.5,0.36
		C483.67,278.48,482.52,278.32,481.45,277.96z"/>
	<path style="fill-rule:evenodd;clip-rule:evenodd;fill:#3B3631;" d="M482.38,276.96c-0.23,0.18-0.47,0.37-0.7,0.55
		c-1.26-0.35-0.65-1.17-0.46-1.88c0.23-0.15,0.19,0.44,0.47,0.16c0.17-0.14,0.33-0.15,0.47,0.04c0.08,0.08,0.16,0.15,0.23,0.23
		C482.38,276.37,482.38,276.67,482.38,276.96z"/>
	<path style="fill-rule:evenodd;clip-rule:evenodd;fill:#353029;" d="M499.22,282.28c-0.52,0.67-0.69-0.03-0.98-0.25
		c0.06-0.36-0.08-0.81,0.43-0.97c0.09-0.07,0.2-0.08,0.3-0.04C499.32,281.39,499.09,281.87,499.22,282.28z"/>
	<path style="fill-rule:evenodd;clip-rule:evenodd;fill:#48403B;" d="M498.98,281.09c-0.1-0.01-0.2-0.02-0.3-0.03
		c0.52-0.4,1.13-1.25,1.24,0.26c-0.07,0.03-0.13,0.05-0.2,0.08C499.44,281.39,499.21,281.23,498.98,281.09z"/>
	<path style="fill-rule:evenodd;clip-rule:evenodd;fill:#DC9578;" d="M481.45,277.96c1.23-0.02,2.46-0.05,3.14,1.28
		c0.29,0.3,0.17,0.65,0.15,1c-0.03,0.4,0.12,0.52,0.47,0.25c0.07-0.08,0.16-0.14,0.25-0.2c0.1-0.04,0.2-0.03,0.29,0.04
		c2.25,2.01,5.13,1.76,7.83,2.19c1.71,0.27,3.46,0,5.14,0.47c0.08,0.36-0.17,0.54-0.42,0.64c-1.66,0.68-3.31,1.32-5.2,1.09
		c-2.13-0.25-4.13-0.84-6.08-1.68c-0.55-0.24-1.11-0.39-1.72-0.44c-1.71-0.14-2.61-1.35-2.38-3.09c0.12-0.94-0.63-1.06-1.24-1.32
		C481.6,278.12,481.52,278.04,481.45,277.96z"/>
	<path style="fill-rule:evenodd;clip-rule:evenodd;fill:#D88A69;" d="M481.68,278.2c1.25,0.04,2.09,0.31,1.38,1.87
		c-0.33,0.73,0.91,2.19,1.87,2.18c0.96-0.01,1.79,0.24,2.62,0.66c1.87,0.94,3.91,1.3,5.96,1.5c1.88,0.18,3.58-0.54,5.2-1.42
		c2.03,0.41,3.01-1.35,4.43-2.17c0.3-0.18,0.56-0.45,0.83-0.67c0.09-0.02,0.18-0.03,0.26-0.05c0.68,1.96,0.18,2.61-1.8,2.93
		c-1.49,0.24-2.99,0.46-4.39,1.31c-2.67,1.63-5.55,1.23-8.38,0.35c-0.35-0.17-0.7-0.33-1.06-0.5c-0.96-0.67-2.08-0.96-3.2-1.18
		c-1.97-0.39-2.91-1.47-2.86-3.49C482.58,278.86,482.07,278.58,481.68,278.2z"/>
	<path style="fill-rule:evenodd;clip-rule:evenodd;fill:#35312E;" d="M485.53,280.36c-0.04,0.47-0.28,0.97-0.72,0.86
		c-0.5-0.13-0.5-0.68-0.33-1.17c0.09-0.25,0.07-0.53,0.1-0.8c0.15-0.11,0.31-0.21,0.46-0.32c1.05,0.07,0.64,0.86,0.7,1.42
		c-0.08,0.03-0.15,0.04-0.23,0.04l-0.06-0.06L485.53,280.36z"/>
	<path style="fill-rule:evenodd;clip-rule:evenodd;fill:#BD3927;" d="M498.98,281.09c0.39-0.23,0.6-0.06,0.74,0.31
		c0.01,0.05-0.01,0.1-0.04,0.14c-0.17,0.25-0.32,0.5-0.48,0.76l0.02-0.01C498.27,282.06,499.23,281.45,498.98,281.09z"/>
	<path style="fill-rule:evenodd;clip-rule:evenodd;fill:#653C39;" d="M499.21,282.29c-0.01-0.36,0.17-0.6,0.48-0.75
		C499.68,281.89,499.55,282.15,499.21,282.29z"/>
	<path style="fill-rule:evenodd;clip-rule:evenodd;fill:#C09A7F;" d="M504.49,279.34c0.04-0.02-0.12,0.1-0.3,0.13
		c-0.25,0.05-0.22-0.19-0.17-0.29c0.07-0.16,0.2-0.37,0.34-0.41C504.6,278.7,504.54,278.92,504.49,279.34z"/>
	<path style="fill-rule:evenodd;clip-rule:evenodd;fill:#CE613A;" d="M504.25,278.16c0.08-0.06,0.16-0.13,0.23-0.19
		C504.41,278.04,504.33,278.1,504.25,278.16z"/>
	<path style="fill-rule:evenodd;clip-rule:evenodd;fill:#EABF8A;" d="M482.15,275.84c-0.16-0.01-0.31-0.03-0.47-0.04
		C481.86,275.56,482.02,275.57,482.15,275.84z"/>
	<path style="fill-rule:evenodd;clip-rule:evenodd;fill:#D16C4B;" d="M471.12,289.72c-3.99,2.91-8.25,4.73-13.33,3.38
		c-2.27-0.6-4.58-1.05-6.76-1.95c-2.2-0.91-3.83-2.46-4.86-4.57c-1.41-2.88,0.23-6.19,3.63-7.39c2-0.71,4.07-0.94,6.22-0.58
		c2.03,0.34,4.05-0.16,6.04-0.49c3.52-0.58,7.04-0.61,10.56-0.14c1.95,0.26,3.47,2.34,3.01,4.33c-0.62,2.68-1.87,5.08-3.97,6.95
		c-0.14,0.12-0.36,0.14-0.54,0.21c-0.09,0.1-0.19,0.1-0.29,0.02c-0.08-0.25,0.04-0.46,0.17-0.65c0.1-0.14,0.22-0.27,0.35-0.39
		c1.53-1.37,2.5-3.12,3.21-5c0.54-1.42,0.73-2.9-0.67-4.06c-1.17-0.95-2.62-1.07-3.98-1.05c-3.58,0.06-7.15,0.37-10.69,1.04
		c-1.6,0.3-3.27,0.23-4.9-0.02c-1.49-0.23-2.85,0.04-4.13,0.78c-0.5,0.55-0.9,1.2-1.58,1.58c-1.09,0.52-1.33,1.54-1.36,2.57
		c-0.05,2.1,0.83,3.79,2.59,4.96c2.88,1.91,6.25,2.25,9.53,2.85c2.33,0.42,4.61,0.03,6.77-0.91c1.24-0.54,2.46-1.12,3.63-1.79
		c0.39-0.13,0.72,0.13,1.08,0.17C470.96,289.6,471.05,289.64,471.12,289.72z"/>
	<path style="fill-rule:evenodd;clip-rule:evenodd;fill:#D2714F;" d="M471.12,289.72c-0.08,0-0.16,0-0.25,0
		c-0.06-0.11-0.04-0.18,0.07-0.24c0.06,0,0.12,0,0.18,0C471.12,289.56,471.12,289.64,471.12,289.72z"/>
	<path style="fill-rule:evenodd;clip-rule:evenodd;fill:#A3C36D;" d="M453.38,272.6c-0.38,0.61-0.74,1.16-1.5,1.28
		c-1.14,0.19-2.22,0.56-3.2,1.2c-0.21,0.14-0.41,0.26-0.63,0.04c-0.22-0.21-0.12-0.42-0.03-0.65c0.41-1.04,2.82-2.82,3.9-2.84
		C452.61,271.62,453.15,271.87,453.38,272.6z"/>
	<path style="fill-rule:evenodd;clip-rule:evenodd;fill:#C6A98E;" d="M474.42,272.89c-0.08-0.08-0.16-0.13-0.16-0.18
		c0.01-0.11,0.05-0.21,0.08-0.32c0.04,0.05,0.12,0.09,0.12,0.14C474.47,272.64,474.44,272.75,474.42,272.89z"/>
	<path style="fill-rule:evenodd;clip-rule:evenodd;fill:#E2B88B;" d="M468.73,271.47c-0.28,0.36-0.24,0.79-0.26,1.2
		c-0.23-0.05-0.68,0.15-0.63-0.22C467.91,272.01,468.07,271.47,468.73,271.47z"/>
	<path style="fill-rule:evenodd;clip-rule:evenodd;fill:#A43F2D;" d="M472.09,270.04c-0.6-0.09-0.39-0.46-0.26-0.79
		c0.03-0.07,0.14-0.1,0.22-0.15C472.06,269.42,472.07,269.73,472.09,270.04L472.09,270.04z"/>
	<path style="fill-rule:evenodd;clip-rule:evenodd;fill:#A43B2D;" d="M475.85,290.35c-0.04-0.09-0.11-0.17-0.09-0.21
		c0.04-0.1,0.13-0.19,0.2-0.28c0.05,0.07,0.15,0.17,0.13,0.22C476.05,290.18,475.94,290.25,475.85,290.35z"/>
	<path style="fill-rule:evenodd;clip-rule:evenodd;fill:#B93A27;" d="M488.85,285.15c0.77-0.45,0.38,0.28,0.5,0.49
		c0,0,0.01-0.01,0.01-0.01c-0.09,0.06-0.19,0.12-0.28,0.19c-0.3,0.25-0.36,1-0.8,0.74c-0.27-0.16,0.07-0.82,0.36-1.18
		C488.73,285.32,488.8,285.24,488.85,285.15z"/>
	<path style="fill-rule:evenodd;clip-rule:evenodd;fill:#D09A84;" d="M488.85,285.15c-0.07,0.08-0.14,0.15-0.21,0.23
		C488.71,285.31,488.78,285.23,488.85,285.15z"/>
	<path style="fill-rule:evenodd;clip-rule:evenodd;fill:#AB4B3C;" d="M481.64,277.16c-0.09-0.16-0.2-0.25-0.18-0.31
		c0.04-0.13,0.12-0.3,0.23-0.35c0.25-0.11,0.23,0.13,0.2,0.24C481.87,276.86,481.76,276.97,481.64,277.16z"/>
	<path style="fill-rule:evenodd;clip-rule:evenodd;fill:#AD4432;" d="M485.53,280.36c-0.21,0.11-0.52,0.35-0.59,0.29
		c-0.33-0.27,0.03-0.55,0.1-0.83c0.03-0.12,0.24-0.31,0.27-0.29c0.36,0.19,0.15,0.56,0.21,0.84L485.53,280.36z"/>
	<path style="fill-rule:evenodd;clip-rule:evenodd;fill:#D47858;" d="M470.08,289.48c-4.03,2.8-8.4,3.86-13.23,2.57
		c-2.52-0.68-5.16-1-7.37-2.58c-2.47-1.77-3.34-4.97-1.9-7.35c0.2-0.33,0.32-1.05,1.01-0.52c0.13,0.17,0.15,0.36,0.13,0.56
		c-0.09,0.39-0.22,0.77-0.32,1.15c-0.63,2.31,0.13,4.29,2.13,5.61c1.39,0.92,2.93,1.43,4.55,1.76c4.73,0.96,9.37,0.99,13.76-1.39
		c0.32-0.17,0.66-0.3,1.03-0.22C470.05,289.16,470.25,289.23,470.08,289.48z"/>
	<path style="fill-rule:evenodd;clip-rule:evenodd;fill:#D2714F;" d="M449.77,280.16c1.07-1.19,2.59-1.36,3.94-1.18
		c3.42,0.46,6.7-0.24,10.05-0.61c2.98-0.33,6.04-0.75,9.06,0.06c0.6,0.16,1.13,0.39,1.43,0.97c-0.06,0.04-0.11,0.07-0.17,0.11
		c-2.08-0.8-4.24-0.79-6.42-0.73c-0.44,0.01-0.87-0.02-1.29,0.15c-0.2,0.06-0.41,0.08-0.61,0.08c-2.26,0.06-4.47,0.58-6.71,0.84
		c-1,0.12-1.96,0.09-2.96,0c-1.85-0.17-3.72-0.4-5.51,0.41c-0.14,0.05-0.28,0.07-0.42,0.06
		C450.01,280.31,449.88,280.25,449.77,280.16z"/>
	<path style="fill-rule:evenodd;clip-rule:evenodd;fill:#D2714F;" d="M474.24,279.4c1.37,0.87,1.18,2.29,0.84,3.43
		c-0.68,2.28-1.73,4.43-3.72,5.94c-0.03-0.05-0.07-0.1-0.1-0.15c-0.05-0.83,0.66-1.24,1.06-1.79c0.68-0.95,1.29-1.92,1.73-2.99
		c0.52-1.27,0.97-2.55,0.11-3.88C474.04,279.78,474.09,279.57,474.24,279.4L474.24,279.4z"/>
	<path style="fill-rule:evenodd;clip-rule:evenodd;fill:#37332F;" d="M470.08,289.48c-0.04-0.08-0.08-0.17-0.12-0.26
		c-0.33-0.23-0.14-0.59-0.25-0.88c0-0.53,0.18-0.89,0.77-0.93c0.25,0.04,0.41,0.19,0.54,0.38c0.09,0.14,0.17,0.29,0.2,0.45
		c0.01,0.16,0.01,0.32,0,0.48c0,0.11-0.04,0.2-0.11,0.28c-0.06,0.16-0.12,0.32-0.18,0.48c-0.02,0.08-0.05,0.16-0.07,0.24
		C470.51,289.97,470.21,290.02,470.08,289.48z"/>
	<path style="fill-rule:evenodd;clip-rule:evenodd;fill:#312E2B;" d="M449.77,280.16c0.07-0.01,0.14-0.01,0.2-0.02
		c0.08,0.05,0.17,0.1,0.25,0.14c0.03,0.04,0.06,0.08,0.09,0.11c0.04,0.2-0.01,0.38-0.09,0.56c-0.04,0.09-0.09,0.17-0.15,0.24
		c-0.06,0.07-0.13,0.13-0.21,0.19c-0.04,0.02-0.08,0.04-0.12,0.07c-0.08,0.04-0.15,0.08-0.22,0.13c-0.19,0.18-0.1,0.43-0.17,0.65
		c-0.09,0.22-0.22,0.38-0.46,0.43c-0.4-0.03-0.52-0.23-0.38-0.6c0.03-0.15,0.05-0.3,0.08-0.45
		C448.99,281.12,449.38,280.64,449.77,280.16z"/>
	<path style="fill-rule:evenodd;clip-rule:evenodd;fill:#D2714F;" d="M471.13,289c0-0.08,0-0.16,0.01-0.24
		c0.07-0.11,0.15-0.12,0.23,0l0,0C471.28,288.84,471.2,288.92,471.13,289z"/>
	<path style="fill-rule:evenodd;clip-rule:evenodd;fill:#D68262;" d="M448.52,282.05c0.02,0.34,0.16,0.53,0.53,0.49
		c0.59,0.76,0.16,1.62,0.25,2.43c0,0.1-0.02,0.21-0.04,0.31c-0.06,0.24-0.07,0.47,0.03,0.71c0.08,0.24,0.25,0.43,0.33,0.68
		c0.87,1.73,2.54,2.32,4.19,2.94c0.24,0.01,0.47,0.04,0.7,0.07c1.62,0.42,3.34,0.28,4.93,0.83c0.49,0.32,0.97,0.11,1.45-0.03
		c0.74-0.14,1.49-0.24,2.25-0.26c1.85-0.06,3.58-0.61,5.25-1.41c0.47-0.23,0.94-0.67,1.54-0.28c0.01,0.24,0.03,0.47,0.04,0.71
		c-2.28,0.92-4.47,2.1-6.99,2.29c-4.31,0.32-8.54,0.01-12.4-2.15C447.79,287.81,447.13,285.17,448.52,282.05z"/>
	<path style="fill-rule:evenodd;clip-rule:evenodd;fill:#D6825E;" d="M450.03,281.09c0.06-0.24,0.13-0.48,0.19-0.72
		c1.39-0.89,2.99-1.08,4.5-0.8c3.03,0.56,5.94-0.17,8.89-0.53c0.74-0.09,1.5-0.15,2.22-0.36c0.16,0,0.32,0,0.48,0
		c1.99-0.07,3.97-0.3,5.95,0.12c1.97,0.41,2.93,1.85,2.35,3.78c-0.63,2.09-1.66,3.96-3.31,5.44c-0.12,0.06-0.24,0.07-0.37,0.02
		c-0.12-0.14-0.23-0.29-0.35-0.44c0.03-0.61,0.46-1,0.8-1.43c0.8-1.01,1.46-2.09,1.89-3.31c0.64-1.77,0.19-2.62-1.67-3.05
		c-1.93-0.44-3.89-0.42-5.83-0.09c-2.4,0.4-4.8,0.76-7.22,1.02c-0.48,0.05-0.95,0.04-1.43-0.02c-2.14-0.24-4.29-0.58-6.33,0.5
		C450.56,281.35,450.26,281.31,450.03,281.09z"/>
	<path style="fill-rule:evenodd;clip-rule:evenodd;fill:#D57C59;" d="M471.12,288.04c1.54-1.64,2.79-3.46,3.37-5.66
		c0.43-1.63-0.32-2.91-1.96-3.34c-1.67-0.44-3.37-0.54-5.07-0.2c-0.43,0.08-0.78,0.03-1.14-0.16c2.7-0.41,5.38-0.6,7.92,0.72
		c1.73,2.89-0.14,5.06-1.46,7.33c-0.42,0.71-1.18,1.18-1.42,2.02c-0.08,0-0.15,0-0.23,0c-0.01-0.14-0.03-0.29-0.04-0.43
		C471.02,288.23,471.03,288.13,471.12,288.04z"/>
	<path style="fill-rule:evenodd;clip-rule:evenodd;fill:#D57C59;" d="M465.84,278.68c-3.65,0.79-7.28,1.77-11.06,1
		c-1.6-0.32-3.04,0.43-4.55,0.69l0,0c-0.06-0.09-0.06-0.17,0.02-0.25c1.66-1.14,3.58-0.89,5.33-0.65c2.84,0.39,5.51-0.38,8.25-0.67
		C464.5,278.73,465.17,278.72,465.84,278.68z"/>
	<path style="fill-rule:evenodd;clip-rule:evenodd;fill:#D16C4B;" d="M450.24,280.12c-0.01,0.08-0.01,0.17-0.02,0.25
		c-0.08-0.08-0.17-0.16-0.25-0.24C450.06,280.13,450.15,280.13,450.24,280.12z"/>
	<path style="fill-rule:evenodd;clip-rule:evenodd;fill:#DB936E;" d="M450.03,281.09c2.69-1.46,5.56-0.64,8.37-0.72
		c3.76-0.11,7.41-1.43,11.21-1.21c0.32,0.02,0.64-0.01,0.95,0.04c3.66,0.6,4.23,1.71,2.52,5.1c-0.62,1.24-1.48,2.35-2.5,3.3
		c-0.59,0.04-0.68,0.44-0.67,0.92c-2.09,0.8-4.06,1.95-6.39,2.01c-0.92,0.02-1.83,0.09-2.75,0.13c-0.26-0.32-0.17-0.61,0.06-0.89
		c0.69-0.7,1.57-0.63,2.45-0.6c1.63,0.05,3.26,0.08,4.65-0.98c0.73-0.51,1.3-1.17,1.68-1.98c0.6-1.26,1.34-2.45,1.98-3.68
		c0.71-0.8,0-1.02-0.54-1.31c-0.9-0.91-2.03-1.15-3.21-0.94c-2.98,0.54-5.98,0.88-9,1.08c-1.08,0.07-2.15,0.13-3.21-0.14
		c-0.31-0.08-0.62-0.15-0.94-0.19c-1.15-0.14-2.3,0.42-2.62,1.26c-0.31,0.83,0.11,1.88,1.04,2.6c0.81,0.62,1.75,0.95,2.71,1.21
		c0.52,0.19,1.1,0.44,1.29,0.95c0.44,1.14,1.38,1.75,2.25,2.46c0.07,0.09,0.13,0.19,0.17,0.29c0.09,0.2,0.16,0.42,0.21,0.63
		c0.03,0.17,0.02,0.33-0.07,0.47c-1.75-0.63-3.65-0.4-5.42-0.95c-0.16-0.17-0.07-0.6-0.22-0.58c-0.24,0.02-0.22,0.42-0.42,0.59
		c-1.53-0.69-3.08-1.31-4.17-2.72c-0.29-0.37-0.08-0.41,0.06-0.59c-0.39-0.31,0.44-1.07-0.44-1.2c-0.02-0.97-0.03-1.93-0.04-2.9
		c0.08-0.17,0.17-0.33,0.25-0.5c0.01-0.05,0.01-0.1,0.02-0.15c0.06-0.26,0.28-0.4,0.46-0.57l0,0c0.08-0.08,0.14-0.17,0.2-0.26
		L450.03,281.09z"/>
	<path style="fill-rule:evenodd;clip-rule:evenodd;fill:#B03D2B;" d="M470.55,288.59c0.04,0.21,0.08,0.32,0.07,0.42
		c-0.01,0.08-0.09,0.15-0.15,0.23c-0.03-0.1-0.07-0.21-0.07-0.31C470.41,288.84,470.48,288.76,470.55,288.59z"/>
	<path style="fill-rule:evenodd;clip-rule:evenodd;fill:#D2714F;" d="M471.12,288.04c-0.01,0.1-0.02,0.19-0.03,0.29
		c-0.05-0.1-0.1-0.19-0.16-0.29C471,288.04,471.06,288.04,471.12,288.04z"/>
	<path style="fill-rule:evenodd;clip-rule:evenodd;fill:#B93A27;" d="M449.29,282.04c-0.42-0.43-0.4-0.7,0.27-0.74
		c0.09,0.32-0.17,0.51-0.28,0.75L449.29,282.04z"/>
	<path style="fill-rule:evenodd;clip-rule:evenodd;fill:#63403B;" d="M449.28,282.05c0.09-0.25,0.19-0.5,0.28-0.75
		c0.07,0.01,0.14,0.02,0.21,0.03C449.75,281.67,449.61,281.92,449.28,282.05z"/>
	<path style="fill-rule:evenodd;clip-rule:evenodd;fill:#63403B;" d="M449.97,281.07c-0.07,0.09-0.13,0.17-0.2,0.26
		C449.83,281.24,449.9,281.16,449.97,281.07z"/>
	<path style="fill-rule:evenodd;clip-rule:evenodd;fill:#3D3734;" d="M459.4,289.91c0.03-0.06,0.02-0.11-0.02-0.16
		c-0.01-0.06-0.01-0.12-0.02-0.18c-0.06-0.4-0.01-0.75,0.34-1.02c0.46-0.28,0.89-0.24,1.26,0.16c0.36,0.39,0.4,0.82,0.07,1.26
		c-0.08,0.23-0.16,0.47-0.24,0.7c-0.33,0.27-0.62,0.69-1.1,0.24c-0.05-0.16-0.1-0.31-0.15-0.47
		C459.48,290.26,459.47,290.07,459.4,289.91z"/>
	<path style="fill-rule:evenodd;clip-rule:evenodd;fill:#4A3632;" d="M453.63,289.95c-0.01-0.2-0.07-0.4-0.03-0.59
		c0.07-0.37,0.06-0.94,0.61-0.83c0.58,0.11,0.33,0.6,0.22,0.97c-0.04,0.15-0.11,0.3-0.16,0.45
		C454.06,289.95,453.84,289.95,453.63,289.95z"/>
	<path style="fill-rule:evenodd;clip-rule:evenodd;fill:#35312F;" d="M449.09,285.44c0.24-0.15,0.5-0.6,0.76-0.27
		c0.41,0.53-0.17,0.99-0.32,1.48c-0.64,0.06-0.45-0.45-0.53-0.78c-0.08-0.17-0.1-0.33,0.08-0.46L449.09,285.44z"/>
	<path style="fill-rule:evenodd;clip-rule:evenodd;fill:#DB936E;" d="M449.08,285.41c-0.03,0.15-0.05,0.3-0.08,0.46
		C448.78,285.67,448.82,285.52,449.08,285.41z"/>
	<path style="fill-rule:evenodd;clip-rule:evenodd;fill:#E4AC80;" d="M456,286.36c-1.36,0.01-2.49-0.62-3.44-1.46
		c-0.82-0.72-1.35-1.74-0.82-2.88c0.6-1.29,1.89-1.57,3.04-1.34c3.67,0.76,7.21,0.07,10.81-0.48c1.5-0.23,3.05-0.71,4.59-0.06
		c0.56,0.24,1.12,0.47,1.21,1.18c0.39,0.31,0.65,0.67,0.46,1.2c-1.12,1.97-1.62,4.32-3.6,5.75c-2.14,1.31-4.22,1.47-6.26-0.26
		c-0.88-0.75-1.99-1.02-3.12-1.04C457.85,286.98,456.9,286.83,456,286.36z"/>
	<path style="fill-rule:evenodd;clip-rule:evenodd;fill:#DF9E84;" d="M456,286.36c1.46,0.16,2.92,0.29,4.36,0.5
		c0.49,0.07,1.06,0.26,1.4,0.59c1.98,1.86,4.13,1.98,6.47,0.83c-1.32,1.37-3.06,1.24-4.73,1.24c-0.87,0-1.74-0.21-2.48,0.44
		c0.03-0.99-0.16-1.71-1.4-1.19c-0.31,0.26-0.01,0.68-0.25,0.97l0.01,0.01C457.59,289.28,457.31,287.31,456,286.36z"/>
	<path style="fill-rule:evenodd;clip-rule:evenodd;fill:#4E423C;" d="M471.84,282.53c-0.15-0.4-0.31-0.8-0.46-1.2
		c0.23-0.22,0.5-0.51,0.76-0.1C472.45,281.73,472.41,282.21,471.84,282.53z"/>
	<path style="fill-rule:evenodd;clip-rule:evenodd;fill:#D68262;" d="M459.4,289.91c0.05,0.17,0.09,0.35,0.14,0.52
		C459.49,290.25,459.44,290.08,459.4,289.91z"/>
	<path style="fill-rule:evenodd;clip-rule:evenodd;fill:#BF4230;" d="M460.56,289.82c-0.08,0.2,0.08,0.73-0.43,0.69
		c-0.31-0.02-0.29-0.43-0.25-0.7c0.04-0.31,0.14-0.72,0.48-0.72C460.73,289.09,460.68,289.45,460.56,289.82z"/>
	<path style="fill-rule:evenodd;clip-rule:evenodd;fill:#DB936E;" d="M459.38,289.74c0-0.34-0.13-0.72,0.25-0.97
		C459.54,289.09,459.46,289.41,459.38,289.74z"/>
	<path style="fill-rule:evenodd;clip-rule:evenodd;fill:#93392A;" d="M449.47,285.86c-0.01,0.03-0.02,0.06-0.03,0.1
		c-0.03-0.04-0.07-0.07-0.1-0.11c0-0.01,0.04-0.05,0.07-0.07C449.43,285.8,449.45,285.83,449.47,285.86z"/>
	<path style="fill-rule:evenodd;clip-rule:evenodd;fill:#EBBF8B;" d="M462.91,281.84c1.79-0.33,3.58-0.73,5.38-0.97
		c0.83-0.11,1.68,0.11,2.13,1c0.48,0.92-0.26,1.37-0.71,1.95c-0.38,0.5-0.67,1.02-0.81,1.69c-0.28,1.33-1.12,2.26-2.51,2.62
		c-1.28,0.33-2.45,0.28-3.37-0.85c-0.93-1.14-2.35-1.06-3.59-1.37c-1.34-0.34-2.74-0.46-4.1-0.75c-0.53-0.11-1.07-0.35-1.52-0.66
		c-0.75-0.51-1.21-1.31-0.87-2.17c0.33-0.86,1.23-1,2.04-0.75c2.26,0.71,4.49-0.07,6.73,0c0.41,0.01,0.9-0.19,1.21,0.29
		c-0.08,0.08-0.16,0.17-0.22,0.27c-0.09,0.16-0.15,0.33-0.1,0.53c0.09-0.16,0.05-0.35,0.12-0.51
		C462.78,282.03,462.84,281.93,462.91,281.84z"/>
	<path style="fill-rule:evenodd;clip-rule:evenodd;fill:#3E3734;" d="M462.91,281.84c0.02,0.15,0.07,0.31,0.07,0.46
		c0,0.5,0.1,1.04-0.44,1.36c-0.04,0.02-0.3-0.19-0.28-0.26c0.11-0.56-0.43-1.41,0.66-1.55L462.91,281.84z"/>
	<path style="fill-rule:evenodd;clip-rule:evenodd;fill:#BB3123;" d="M462.67,282.81c-0.03,0.03-0.05,0.05-0.08,0.07
		c-0.02-0.06-0.05-0.12-0.06-0.18c0-0.02,0.05-0.04,0.07-0.07C462.62,282.69,462.64,282.75,462.67,282.81z"/>
</g>
</svg>
