<?xml version="1.0" encoding="utf-8"?>
<!-- Generator: Adobe Illustrator 16.0.0, SVG Export Plug-In . SVG Version: 6.00 Build 0)  -->
<!DOCTYPE svg PUBLIC "-//W3C//DTD SVG 1.0//EN" "http://www.w3.org/TR/2001/REC-SVG-20010904/DTD/svg10.dtd" [
	<!ENTITY ns_flows "http://ns.adobe.com/Flows/1.0/">
	<!ENTITY ns_extend "http://ns.adobe.com/Extensibility/1.0/">
	<!ENTITY ns_ai "http://ns.adobe.com/AdobeIllustrator/10.0/">
	<!ENTITY ns_graphs "http://ns.adobe.com/Graphs/1.0/">
]>
<svg version="1.0" id="Layer_1" xmlns:x="&ns_extend;" xmlns:i="&ns_ai;" xmlns:graph="&ns_graphs;"
	 xmlns="http://www.w3.org/2000/svg" xmlns:xlink="http://www.w3.org/1999/xlink" xmlns:a="http://ns.adobe.com/AdobeSVGViewerExtensions/3.0/"
	 x="0px" y="0px" width="960px" height="560px" viewBox="0 0 960 560" style="enable-background:new 0 0 960 560;"
	 xml:space="preserve">
<g>
	<path style="fill-rule:evenodd;clip-rule:evenodd;fill:#232322;" d="M467.48,274.36c3.24-0.33,6.48-0.67,9.72-0.98
		c1.27-0.12,2.83-0.43,3.35-1.29c0.87-1.44,2.04-3.04,1.53-4.95c-0.28-1.06-0.77-2.09-1.65-2.85c-0.19-0.35-0.84-0.24-0.83-0.81
		c-0.16-1.06-0.79-1.99-0.7-3.12c0.06-0.71,0.23-1.27,0.75-1.81c1.52-1.56,2.42-3.52,3.3-5.46c0.08-0.2,0.38-0.33,0.22-0.63
		c-0.75-1.08-1.69-1.5-2.72-1.16c-0.65,0.22-1.13,0.56-0.38,1.24c0.23,0.15,0.52,0.23,0.67,0.49c-0.08,0.64-0.59,0.93-1.04,1.23
		c-1.05,0.72-1.82,1.68-2.44,2.75c-0.75,1.3-1.23,2.63-0.11,4c0.15,0.19,0.17,0.44,0.1,0.69c-0.22,0.4-0.61,0.43-1,0.49
		c-0.3-0.06-0.55-0.59-0.9-0.13c-0.27,0.35-0.4,0.77-0.23,1.21c0.13,0.33,0.39,0.34,0.68,0.2c0.28-0.14,0.48-0.4,0.79-0.49
		c0.48-0.02,0.86,0.22,1.23,0.49c0.15,1.57,1.04,0.27,1.56,0.4c0.31,0.14,0.71,0.1,0.91,0.45c-0.64,0.79-1.6,1.02-2.48,1.36
		c-0.44,0.17-0.89,0.02-0.99-0.4c-0.31-1.25-0.87-0.63-1.46-0.27c-5.47,3.37-11.1,6.48-17.52,7.5c-5.53,0.87-11.14,0.69-16.73,0.33
		c-2.17-0.14-4.32-0.31-6.36,1.01c-1.37,0.89-3.12,0.43-4.71,0.47c-0.33,0.01-0.52-0.23-0.6-0.5c-0.1-0.31,0.11-0.56,0.34-0.71
		c0.61-0.38,1.25-0.7,1.87-1.06c0.2-0.11,0.51-0.28,0.51-0.43c0.01-0.36-0.38-0.32-0.63-0.38c-1.79-0.39-3.59-0.12-5.38-0.1
		c-1.23,0.01-2.49,0.16-3.68-0.3c-0.42-0.17-1.04-0.34-0.97-0.9c0.06-0.48,0.6-0.73,1.08-0.84c1.07-0.24,2.14-0.16,3.22-0.08
		c0.25,0.02,1.01,0.34,0.47-0.49c-0.36-0.55,0.04-0.69,0.46-0.81c0.11-0.03,0.24-0.08,0.35-0.06c2.21,0.4,4.42-0.2,6.56-0.38
		c2.58-0.22,4.47,0.95,6.6,1.67c1.84,0.62,3.65,0.16,5.44-0.02c4.02-0.4,7.88-1.69,11.79-2.65c3.07-0.76,5.94-2.26,8.67-3.96
		c1.76-1.1,3.8-1.68,5.5-2.9c0.42-0.3,0.99-0.48,0.59-1.16c-0.63-1.08,1.25-1.1,0.85-2.31c-0.52-1.57,1.06-0.98,1.76-1.28
		c0.25-0.11,0.64-0.07,0.47-0.49c-0.74-1.84,0.73-1.86,1.78-2.07c0.57-0.11,0.96-0.17,1.33-0.73c0.69-1.05,1.75-1.46,3.03-1.17
		c0.76,0.17,1.42,0.52,2.08,0.9c2.19,1.27,3.3,0.73,3.8-1.8c0.14-0.7-0.29-0.61-0.65-0.68c-2.97-0.64-6.03-0.98-8.84-2.15
		c-4.94-2.04-9.17-5.12-12.41-9.43c-0.69-0.91-1.05-1.91-0.9-3.2c0.2-1.77-0.08-3.58-0.41-5.34c-0.25-1.34,0.2-2.19,1.64-2.37
		c0.35-0.04,0.84-0.01,0.53-0.59c-0.63-1.17-0.01-2.01,0.74-2.76c3.22-3.22,7.18-5.11,11.51-6.34c1.98-0.56,3.96-1.09,5.85-1.91
		c1.39-0.6,2.83-0.63,4.2,0c0.7,0.32,1.33,0.38,2.06,0.33c7.5-0.54,14.05,1.46,19.74,6.61c1.4,1.26,1.91,2.95,3.26,4.13
		c0.77,0.68,0.71,1.9-0.2,2.67c-0.52,0.44-0.52,0.89-0.52,1.46c0.01,4.27-0.92,8.08-4.05,11.39c-3.43,3.64-7.53,5.78-12.18,7.16
		c-0.39,0.12-1.13-0.05-1.03,0.7c0.08,0.57,0.61,0.76,1.15,0.89c1.66,0.42,2.8-0.49,3.73-1.6c0.9-1.09,2.27-1.65,3.42-0.94
		c0.61,0.38,1.05,0.38,1.62,0.06c0.5-0.28,1.14-0.45,1.62-0.24c1.25,0.55,1.88-0.26,2.66-0.93c3.35-2.9,6.71-5.79,10.09-8.66
		c1.65-1.39,2.83-2.81,3.03-5.24c0.32-3.74,0.64-7.52,1.47-11.22c0.23-1.01,0.03-1.94-0.81-2.73c-0.82-0.78-1.02-1.87-1.03-2.98
		c-0.03-2.68,1.09-4.98,2.42-7.2c0.29-0.49,0.75-0.88,1.38-0.77c0.67,0.12,0.88,0.7,0.92,1.26c0.06,0.74,0.25,0.76,0.87,0.43
		c0.67-0.36,1.53-0.72,1.43,0.7c-0.01,0.16,0.12,0.42,0.26,0.49c1.58,0.74,0.89,1.79,0.36,2.77c-0.3,0.56-0.73,1.05-1.06,1.6
		c-0.15,0.25-0.59,0.53-0.35,0.79c0.31,0.34,0.65-0.09,0.94-0.24c0.78-0.4,1.52-0.88,2.3-1.28c0.61-0.32,1.19-0.2,1.58,0.38
		c0.39,0.58-0.05,0.98-0.42,1.34c-0.51,0.51-1.05,0.98-1.58,1.47c-0.45,0.42-0.73,1.01-0.39,1.5c0.95,1.38,0.09,2.24-0.87,2.86
		c-1,0.64-1.22,1.38-0.95,2.39c1.21,4.46,0.8,8.94,0.22,13.43c-0.07,0.57-0.23,1.1-0.63,1.52c-3.6,3.86-7.15,7.77-11.44,10.9
		c-0.42,0.3-0.82,0.73-1.29,0.85c-1.8,0.46-1.88,2.18-2.63,3.41c-0.2,0.32,0.1,0.37,0.29,0.5c1.23,0.86,1.23,1.94-0.06,2.67
		c-0.58,0.33-0.67,0.45-0.28,1.09c0.45,0.76-0.26,1.41-0.88,1.71c-1.66,0.82-3.46,1.3-5.26,1.72c-0.48,0.11-0.79,0.3-1.06,0.66
		c-0.96,1.33-1.14,2.87-1.13,4.45c0,0.6,0.08,1.2,0.15,1.79c0.34,3.05,0.45,3.18,3.51,3.88c0.97,0.22,1.95,0.41,2.92,0.62
		c0.09,0.23-0.05,0.35-0.21,0.46c-1.36,0.41-2.74,0.14-4.01-0.22c-1.1-0.32-2.01-0.19-2.99,0.2c-0.17,0.06-0.33,0.1-0.5,0.15
		c-0.16,0.04-0.32,0.1-0.48,0.15c-0.62,0.18-1.22,0.39-1.81,0.66c-0.15,0.06-0.3,0.12-0.46,0.17c-0.15,0.06-0.3,0.13-0.45,0.19
		c-1.51,0.61-2.98,1.29-4.4,2.08c-2.09,0.99-4.02,2.25-5.87,3.63c-1.14,1.14-1.3,1.15-2.47,0.27c-1.35-1.06-2.6-2.26-4.17-3.01
		c-0.09-0.05-0.18-0.11-0.27-0.16c-0.13-0.09-0.25-0.18-0.37-0.28c-0.13-0.08-0.26-0.17-0.39-0.24c-0.09-0.05-0.18-0.11-0.27-0.18
		c-0.7-0.54-1.44-1.04-1.93-1.8c-0.07-0.1-0.16-0.19-0.19-0.3c-0.35-1.11-1.06-1.37-2.09-0.89c-0.29,0.09-0.58,0.18-0.88,0.21
		c-0.2,0.02-0.38,0.08-0.58,0.12c-3.09,0.33-6.16,0.88-9.29,0.52C467.62,274.75,467.44,274.64,467.48,274.36z"/>
	<path style="fill-rule:evenodd;clip-rule:evenodd;fill:#242423;" d="M454.3,277.06c-0.24-0.41-0.65-0.27-1-0.31
		c1.16-0.57,2.45-0.52,3.69-0.75c0.34-0.18,0.74,0.02,1.08-0.14c0.28-0.03,0.56-0.07,0.84-0.1c0.25-0.17,0.58,0.03,0.83-0.17
		c1.86-0.38,3.68-0.97,5.6-1.05c0.45-0.17,0.94,0.07,1.38-0.16c0.26-0.01,0.51-0.02,0.77-0.02c0.09,0.08,0.18,0.17,0.27,0.25
		c-0.04,0.51-0.46,0.47-0.8,0.52c-0.43,0.06-0.87,0.07-1.3,0.14c-0.43,0.08-0.86,0.16-1.3,0.14c0.35,0.13,0.74,0.09,1.07,0.3
		c0.73,0.48,0.91,1.07,0.38,1.81c-0.07,0.09-0.14,0.18-0.22,0.26c-0.04,0.04-0.08,0.08-0.12,0.11c-0.41,0.41-1.35,0.57-1.24,1.1
		c0.13,0.63,1.05,0.4,1.63,0.56c0.26,0.07,0.54,0.08,0.79,0.22c0.71,0.52,0.6,1.12,0.17,1.76c-0.17,0.26-0.58,0.51-0.43,0.79
		c0.19,0.36,0.65,0.1,0.99,0.11c0.51,0.01,1.03-0.02,1.55,0c1.35,0.04,1.7,0.51,1.37,1.8c-0.3,1.16-0.3,1.16,0.88,0.91
		c0.55-0.09,1.1-0.12,1.64,0.01c0.18,0.05,0.34,0.15,0.49,0.27c0.14,0.13,0.25,0.27,0.33,0.44c0.06,0.17,0.06,0.35,0.04,0.52
		c-0.03,0.15-0.09,0.29-0.12,0.44c-0.09,0.37-0.45,0.81-0.15,1.08c0.37,0.34,0.76-0.15,1.15-0.26c0.15-0.07,0.31-0.12,0.46-0.17
		c0.16-0.05,0.32-0.1,0.48-0.15c0.17-0.05,0.33-0.07,0.5-0.08c0.48-0.02,0.92,0.08,1.33,0.33c0.15,0.09,0.28,0.21,0.39,0.35
		c0.07,0.09,0.13,0.19,0.18,0.29c0.12,0.25,0.22,0.51,0.3,0.78c0.22,0.73,0.61,0.8,1.26,0.44c1.92-1.08,2.02-1.08,3.62,0.41
		c0.57,0.52,1,0.61,1.65,0.09c1.26-1.02,2.12-1.01,3.49-0.14c0.1,0.06,0.2,0.14,0.3,0.21c1.46,0.99,1.65,0.96,2.77-0.33
		c0.08-0.08,0.18-0.15,0.28-0.2c0.2-0.11,0.42-0.2,0.65-0.24c0.17-0.04,0.35-0.04,0.52-0.03c0.29,0.02,0.57,0.12,0.85,0.19
		c0.11,0.03,0.22,0.07,0.33,0.11c0.4,0.17,0.8,0.35,1.2,0.52c0.78,0.34,1.33,0.15,1.8-0.59c0.82-1.31,1.47-1.48,2.89-0.91
		c1.44,0.58,1.45,0.58,2.26-0.68c0.51-0.79,1.23-0.97,2.07-0.75c0.73,0.19,1.44,0.45,2.19,0.56c0.74,0.11,1.17-0.16,0.99-1
		c0-0.48,0.08-0.9,0.66-0.97c0.78,0.04,1.56,0.11,2.34,0.09c0.19,0,0.39-0.02,0.58-0.07c0.1-0.05,0.17-0.12,0.21-0.2
		c-0.01-0.08-0.03-0.15-0.08-0.22c-0.06-0.07-0.11-0.13-0.17-0.2c-0.16-0.2-0.32-0.4-0.22-0.68c0.08-0.08,0.17-0.15,0.27-0.19
		c0.98-0.24,1.98-0.03,2.96-0.16c0.68-0.09,1.34-0.16,0.68-1.13c-0.4-0.59,0.06-0.87,0.61-0.94c0.71-0.1,1.43,0,2.14-0.07
		c1.07-0.09,1.16-0.26,0.54-1.12c-0.5-0.69-0.37-1.08,0.47-1.24c0.4-0.03,0.81,0,1.2-0.15c0.33-0.08,0.67-0.09,1-0.15
		c0.67-0.39,0.12-0.73-0.08-1.04c-0.29-0.46-0.74-0.84-0.56-1.48c0.36-0.61,0.92-0.3,1.4-0.27c0.6,0.03,1.26,0.17,0.71-0.8
		c-0.06-0.1-0.1-0.22-0.09-0.34c0.03-0.5,0.03-0.5-0.45-0.56c-2.88-0.37-5.77-0.61-8.67-0.82c-0.43-0.03-1,0.11-1.13-0.56
		c0.09-0.1,0.18-0.19,0.27-0.29c1.05,0.1,2.1,0.21,3.15,0.31c0.59,0.24,1.24-0.06,1.84,0.17c0.51,0.02,1.02,0.04,1.53,0.06
		c0.84,0.25,1.72-0.06,2.56,0.17c1.2-0.07,2.39,0.09,3.55,0.37c2.71,0.65,5.44,1.14,8.24,1.29c0.42,0.02,0.84,0.19,1.26,0.28
		c-0.41,0.06-0.93-0.12-1.04,0.53c-0.63,0-1.29,0.23-1.87-0.22c-0.12-0.65-0.41,0.01-0.6-0.07c-0.17,0.05-0.33,0.08-0.51,0.09
		c-0.6,0.05-1.18-0.13-1.77-0.19c-0.24-0.03-0.48-0.04-0.71-0.08c-0.29-0.04-0.56-0.18-0.86-0.18c-1.14-0.15-1.87,0.4-2.65,1.22
		c-0.79,0.84-1.48,1.57-1.96,2.72c-0.43,1.01-1.69,1.85-2.56,2.74c-0.91,0.92-2.36,1.43-3.53,2.28c-1.22,0.88-2.99,1.04-4.25,2.13
		c-0.28,0.25-0.75,0.3-1.14,0.32c-0.83,0.04-1.48,0.28-2,1.04c-0.41,0.6-1.21,0.71-1.96,0.73c-0.73,0.02-1.43-0.15-2.14-0.28
		c-0.51-0.09-0.89-0.04-1.21,0.48c-0.76,1.26-1.43,1.55-2.9,1.03c-1.18-0.42-2.01-0.37-2.74,0.77c-0.54,0.83-1.41,0.99-2.34,0.6
		c-0.33-0.14-0.68-0.24-1-0.4c-1.01-0.52-1.84-0.52-2.63,0.48c-0.65,0.83-1.6,0.81-2.53,0.47c-0.49-0.18-0.93-0.47-1.34-0.79
		c-0.79-0.61-1.58-0.73-2.39-0.03c-0.13,0.1-0.26,0.2-0.38,0.3c-0.08,0.07-0.16,0.13-0.25,0.2c-0.04,0.03-0.09,0.05-0.14,0.08
		c-0.09,0.05-0.19,0.08-0.3,0.11c-0.1,0.02-0.21,0.04-0.31,0.04c-0.11,0.01-0.21,0-0.32-0.01c-0.16-0.02-0.32-0.06-0.47-0.12
		c-0.15-0.06-0.3-0.14-0.43-0.23c-0.1-0.07-0.2-0.14-0.28-0.22c-1.26-1.34-1.26-1.34-2.8-0.44c-0.54,0.31-1.12,0.42-1.73,0.27
		c-0.1-0.03-0.2-0.08-0.29-0.13c-0.04-0.03-0.08-0.06-0.13-0.09c-0.08-0.07-0.15-0.14-0.22-0.22c-0.03-0.04-0.06-0.08-0.09-0.12
		c-0.06-0.08-0.1-0.17-0.15-0.26c-0.07-0.13-0.12-0.26-0.17-0.39c-0.04-0.13-0.07-0.26-0.09-0.39c-0.03-0.17-0.07-0.33-0.14-0.48
		c-0.06-0.11-0.13-0.21-0.21-0.3c-0.07-0.05-0.15-0.1-0.23-0.13c-0.13-0.03-0.26-0.05-0.4-0.04c-0.13,0.02-0.26,0.05-0.38,0.09
		c-0.16,0.06-0.31,0.14-0.47,0.21c-0.08,0.04-0.16,0.07-0.24,0.09c-0.08,0.03-0.17,0.05-0.25,0.08c-0.13,0.04-0.25,0.09-0.37,0.14
		c-0.13,0.05-0.26,0.09-0.4,0.14c-0.14,0.05-0.28,0.1-0.43,0.14c-0.27,0.06-0.53,0.06-0.8,0.01c-0.22-0.05-0.43-0.13-0.62-0.26
		c-0.09-0.07-0.17-0.15-0.23-0.25c-0.19-0.44,0.02-0.87,0.06-1.3c0.02-0.15,0.05-0.31,0.1-0.46c0.04-0.14,0.09-0.28,0.14-0.41
		c0.04-0.12,0.07-0.24,0.09-0.37c0-0.07-0.03-0.14-0.09-0.19c-0.12-0.04-0.23-0.03-0.35,0c-0.19,0.06-0.37,0.14-0.57,0.21
		c-0.16,0.05-0.3,0.13-0.45,0.18c-0.72,0.26-1.5,0.58-2.14-0.01c-0.59-0.54-0.2-1.26-0.02-1.9c0.27-0.98,0.15-1.13-0.84-1.11
		c-0.44,0.01-0.86,0.13-1.3,0.17c-1.48,0.11-2.17-0.72-1.54-2.04c0.44-0.92,0.1-1.11-0.69-1.19c-0.16-0.02,0.04,0.01-0.12-0.02
		c-0.8-0.13-1.68-0.28-1.85-1.22c-0.17-0.92,0.72-1.22,1.3-1.66c0.33-0.2,0.7-0.38,0.92-0.73c0.02-0.1,0-0.19-0.06-0.27
		c-0.17-0.07-0.34-0.06-0.52-0.06c-0.34,0-0.66,0-0.99-0.06c-1.16-0.25-2.32-0.21-3.47-0.01c-0.34,0.08-0.7,0.07-1.04,0.08
		c-0.1,0.01-0.21,0.01-0.32,0.01c-0.15,0.02-0.3,0.04-0.45,0.07c-0.14,0.04-0.29,0.06-0.43,0.08c-0.09,0.02-0.19,0.02-0.29,0.03
		c-0.09,0.02-0.19,0.03-0.28,0.05c-0.14,0.04-0.28,0.09-0.43,0.13c-0.2,0.06-0.41,0.1-0.61,0.16
		C455.04,277.23,454.65,277.35,454.3,277.06z"/>
	<path style="fill-rule:evenodd;clip-rule:evenodd;fill:#050303;" d="M479.74,263.53c-0.04,0.5,1.08-0.05,0.7,0.77l-0.07,0.05
		l-0.09-0.02c-0.35-0.1-0.7-0.19-1.05-0.29c-0.07-0.06-0.15-0.11-0.25-0.14c-0.24-0.03-0.49-0.04-0.73-0.08
		c-0.15-0.03-0.29-0.08-0.4-0.2c-0.5,0.01-0.87-0.27-1.25-0.54c-0.31-0.23-0.39-0.54-0.29-0.91c0.15-0.44,0.48-0.42,0.84-0.33
		c0.67,0.46,1.28,1.03,2.19,1.03C479.66,262.86,479.97,263.1,479.74,263.53z"/>
	<path style="fill-rule:evenodd;clip-rule:evenodd;fill:#5C3082;" d="M520.97,273.84c-0.86,0.02-1.73,0.23-2.56-0.17
		C519.27,273.65,520.13,273.56,520.97,273.84z"/>
	<path style="fill-rule:evenodd;clip-rule:evenodd;fill:#5C3082;" d="M516.88,273.61c-0.62,0.06-1.26,0.21-1.84-0.17
		C515.67,273.36,516.29,273.4,516.88,273.61z"/>
	<path style="fill-rule:evenodd;clip-rule:evenodd;fill:#5B2F82;" d="M466.71,274.39c-0.43,0.33-0.91,0.23-1.38,0.16
		C465.77,274.33,466.23,274.3,466.71,274.39z"/>
	<path style="fill-rule:evenodd;clip-rule:evenodd;fill:#C968A0;" d="M458.07,275.86c-0.33,0.25-0.71,0.21-1.08,0.14
		C457.32,275.74,457.69,275.79,458.07,275.86z"/>
	<path style="fill-rule:evenodd;clip-rule:evenodd;fill:#C968A0;" d="M459.73,275.59c-0.24,0.23-0.52,0.25-0.83,0.17
		C459.14,275.52,459.43,275.53,459.73,275.59z"/>
	<path style="fill-rule:evenodd;clip-rule:evenodd;fill:#A0A0A0;" d="M496.5,331.47c-0.05-0.29,0.01-0.53,0.26-0.7
		C496.82,331.05,496.76,331.3,496.5,331.47z"/>
	<path style="fill-rule:evenodd;clip-rule:evenodd;fill:#A0A0A0;" d="M496.3,331.97c-0.06-0.22-0.01-0.4,0.2-0.5
		C496.57,331.69,496.49,331.85,496.3,331.97z"/>
	<path style="fill-rule:evenodd;clip-rule:evenodd;fill:#587689;" d="M500.16,272.26c-3.54,1.44-6.6,3.72-9.81,5.72
		c-0.66,0.41-1.07,0.42-1.6-0.18c-0.63-0.72-1.37-1.33-2.07-1.99c-0.43-0.78-0.19-1.53,0.05-2.31c0.62-2.02,0.87-4.07,0.21-6.12
		c-0.74-2.31-2.27-3.78-4.68-4.3c-0.51-0.11-1.03-0.11-1.52-0.27c-0.03-0.07-0.04-0.13-0.05-0.2c-0.07-0.07-0.13-0.15-0.17-0.24
		c-0.68-1.6-0.41-3.03,0.76-4.32c1.04-1.14,2.26-2.15,2.63-3.76c0.05-0.22,0.19-0.53,0.46-0.46c0.17,0.05,0.31,0.33,0.4,0.53
		c0.91,2.22,1.81,4.43,3.14,6.45c0.53,0.8,1.01,0.81,1.74,0.34c1.51-0.98,2.48-2.48,3.69-3.75c1.3-1.36,2.58-2.73,4.01-3.94
		c0.65-0.55,1.03-0.66,1.33,0.3c0.58,1.82,1.62,3.37,2.88,4.79c0.2,0.84-0.33,1.45-0.69,2.09c-1.87,3.3-1.96,6.73-0.85,10.26
		C500.14,271.35,500.45,271.77,500.16,272.26z"/>
	<path style="fill-rule:evenodd;clip-rule:evenodd;fill:#9F69A4;" d="M477.31,287.84c-0.47-0.1-0.94-0.21-1.41-0.31
		c-0.18-0.56-0.82-0.24-1.17-0.66c-0.86-1.04-1.11-2.38-0.11-3.37c2.5-2.45,5.48-4.1,9.02-4.39c1.27-0.1,2.5,0.42,3.65,1.01
		c0.35,0.18,0.64,0.5,1.07,0.48c0.84,0.91,1.55,0.66,2.2-0.23c0.55-0.04,0.92-0.44,1.36-0.69c3.17-1.81,6.48-2.42,9.93-0.94
		c2.52,1.08,4.31,3.1,6.06,5.11c0.52,0.6,0.42,1.33,0.13,2.04c-0.71,0.05-0.49,0.56-0.48,0.97c-0.18,0.66-0.75,1.13-1.37,0.88
		c-1.6-0.63-3.39-0.46-4.95-1.2c-0.8-0.37-1.31-0.06-1.86,0.54c-1.53,1.67-3.34,2.79-5.72,2.6c-0.08-0.01-0.16-0.02-0.24-0.03
		c-0.26-0.38-0.64-0.47-1.05-0.41c-2.78,0.43-5.53-0.25-8.29-0.26c-1.31-0.01-2.57-0.38-3.89-0.23
		C479.14,288.88,478.16,288.47,477.31,287.84z"/>
	<path style="fill-rule:evenodd;clip-rule:evenodd;fill:#EFCDA4;" d="M501.08,245.77c-0.04,0.06-0.09,0.08-0.16,0.07
		c-0.13,0.01-0.22,0.09-0.31,0.17c-3.57,1.74-7.19,2.76-11.28,2.12c-2.91-0.46-5.81-0.89-8.66-1.63c-0.85-0.29-0.72-0.7-0.14-1.15
		c0.36-0.27,0.81-0.3,1.24-0.38c1.12-0.2,2.13-0.62,2.97-1.42c1.43-1.39,1.41-3.01-0.07-4.35c-0.47-0.43-1-0.79-1.21-1.44
		c-0.03-0.11-0.04-0.23-0.04-0.35c0.01-0.17,0.05-0.34,0.1-0.51c0.27-0.85,0.31-1.67-0.48-2.28c-0.51-0.4-0.11-1.29-0.33-1.34
		c-0.45-0.1-0.67,0.71-1.24,0.75c-0.7,0.04-1.21-0.16-1.16-0.97c0.03-0.48,0.13-0.95-0.22-1.36c-0.33-0.67-0.09-1.19,0.44-1.63
		c-0.04-0.18-0.19-0.31-0.25-0.48c-0.05-0.22-0.01-0.41,0.16-0.57c2.56-0.92,5.37-1.23,7.59-3c0.22-0.17,0.42-0.18,0.63,0.01
		c1.83,1.74,4.24,1.83,6.53,2.26c1.09,0.2,2.17,0.47,3.25,0.7c0.2,0.15,0.42,0.29,0.37,0.59c-0.02,0.09-0.07,0.17-0.14,0.23
		c-0.09,0.07-0.2,0.11-0.29,0.17c-0.05,0.04-0.07,0.09-0.03,0.15c0.06,0.04,0.12,0.07,0.19,0.09c0.13,0.05,0.24,0.11,0.35,0.19
		c0.45,0.41,0.44,0.85,0.13,1.33c-0.23,0.3-0.32,0.63-0.33,1c-0.02,0.59-0.33,0.96-0.91,1.1c-0.56,0.14-0.9-0.15-1.17-0.6
		c-0.11-0.19-0.21-0.51-0.51-0.33c-0.19,0.11-0.08,0.36-0.01,0.54c0.2,0.51,0.08,0.95-0.33,1.29c-0.98,0.8-1.2,1.82-0.87,3
		c0,0.55-0.26,0.99-0.54,1.43c-1.04,1.62-1,2.45,0.23,3.98c0.46,0.57,0.76,1.12,0.32,1.83c-1.52,0.96-3.27,0.86-4.95,1.02
		c-0.98,0.09-1.99,0.1-2.98-0.04c-0.12-0.02-0.22-0.09-0.33-0.15c0.05,0.04,0.11,0.08,0.17,0.09c1.26,0.24,2.53,0.14,3.8,0.07
		c1.87-0.1,3.7-0.45,5.49-1c0.34-0.11,0.69-0.19,1.06-0.15c1.01-0.09,2.01,0.15,3.02,0.06
		C500.72,244.84,501.31,244.93,501.08,245.77z"/>
	<path style="fill-rule:evenodd;clip-rule:evenodd;fill:#EFCDA4;" d="M525.63,220.45c-0.01-0.76-0.18-1.49-0.71-2.01
		c-1.48-1.45-1.45-3.16-1.05-5c0.36-1.66,0.99-3.19,1.83-4.66c0.12-0.2,0.22-0.51,0.49-0.44c0.42,0.11,0.2,0.45,0.14,0.69
		c-0.39,1.55-0.72,3.11-0.82,4.71c-0.04,0.71-0.51,1.48,0.35,2.06c1.09,0.74,2.21,1.4,3.54,0.66c0.87-0.48,1.68-1.08,2.54-1.59
		c0.17-0.1,0.42-0.39,0.62-0.12c0.17,0.22-0.09,0.44-0.25,0.6c-0.25,0.26-0.49,0.56-0.79,0.73c-1.38,0.78-1.79,1.84-1.02,3.27
		c0.36,0.66-0.16,0.99-0.55,1.27c-1.87,1.33-2.13,2.92-1.21,5c1.25,2.83,0.49,5.81,0.33,8.75c-0.14,2.72-1.34,4.76-3.19,6.68
		c-3.56,3.7-7.19,7.28-11.67,9.86c-0.46,0.27-0.95,0.59-1.44,0.29c-0.48-0.29,0.08-0.69,0.07-1.07c-0.03-1.25-1.21-2.09-2.77-1.9
		c-0.21,0.03-0.46,0.31-0.59-0.03c-0.05-0.14,0.09-0.37,0.18-0.53c0.63-1.06,1.59-1.79,2.56-2.5c3.66-2.67,6.68-6.08,10.21-8.89
		c0.73-0.58,1.23-1.41,1.36-2.34C524.45,229.46,524.54,224.89,525.63,220.45z"/>
	<path style="fill-rule:evenodd;clip-rule:evenodd;fill:#EFCDA4;" d="M427.52,270.49c-1.24,0-2.48,0.03-3.71-0.02
		c-0.35-0.01-0.97,0.04-0.93-0.46c0.03-0.46,0.6-0.41,1-0.39c2.07,0.11,4.15,0.22,6.22,0.33c0.42,0.02,1.08,0.24,1.14-0.28
		c0.07-0.53-0.66-0.43-1.04-0.53c-0.66-0.16-1.34-0.21-2.01-0.31c-0.19-0.03-0.44-0.09-0.4-0.34c0.01-0.07,0.32-0.11,0.49-0.14
		c0.16-0.02,0.34-0.05,0.48,0.01c2.71,1.05,5.51,0.32,8.26,0.47c0.28,0.02,0.58-0.02,0.83,0.08c4.94,1.93,9.73,0.34,14.54-0.6
		c1.45-0.28,2.86-0.77,4.31-0.98c4.09-0.6,7.29-3.15,10.88-4.85c1.3-0.62,2.54-1.35,3.8-2.04c0.39-0.22,0.73-0.45,0.76,0.29
		c0.01,0.19,0.1,0.5,0.22,0.53c1.49,0.39,1.17,1.67,1.53,2.71c0.27,0.78-0.05,0.89-0.45,1.13c-5.55,3.43-11.37,6.37-17.94,6.85
		c-3.13,0.23-6.29,0.69-9.51,0.35c-3.12-0.33-6.3-0.11-9.45-0.15c-0.48-0.01-0.83,0.22-1.2,0.45c-1.12,0.68-2.35,0.98-3.65,1.04
		c-0.24,0.01-0.63,0.22-0.71-0.15c-0.07-0.32,0.35-0.38,0.57-0.51c0.38-0.21,0.8-0.36,1.2-0.55c0.35-0.17,0.95-0.19,0.94-0.6
		c-0.01-0.48-0.5-0.8-0.95-0.98C431.04,270.17,429.27,270.42,427.52,270.49z"/>
	<path style="fill-rule:evenodd;clip-rule:evenodd;fill:#8A5733;" d="M492.26,223.21c4.93,0.35,9.86,0.71,14.42,2.9
		c0.25,0.12,0.51,0.25,0.78,0.31c5.39,1.23,4.75,1.98,4.14,7.81c-0.17,1.62-0.92,3.13-1.83,4.51c-0.12,0.19-0.41,0.48-0.47,0.45
		c-0.36-0.2-0.05-0.49,0.02-0.7c0.85-2.59,1.11-5.13-0.94-7.29c-1.57-1.66-3.67-2.33-5.88-2.68c-3.26-0.53-6.59-0.44-9.83-1.2
		c-0.82-0.19-1.59-0.52-2.33-0.93c-1.18-0.66-1.17-1.79-1.15-2.9c0.01-0.39,0.43-0.27,0.68-0.27
		C490.66,223.2,491.46,223.21,492.26,223.21z"/>
	<path style="fill-rule:evenodd;clip-rule:evenodd;fill:#8A5733;" d="M487.48,223.18c0.28,0.08,0.69,0.18,0.68,0.21
		c-0.09,0.58,0.08,1.2-0.34,1.72c-0.73,0.91-1.72,1.43-2.8,1.75c-2.93,0.89-5.97,1.52-8.8,2.66c-3.16,1.28-5.91,3.28-7.62,6.39
		c-0.46,0.83-0.52,1.75-0.31,2.68c0.04,0.17,0,0.36,0,0.54c-0.17-0.09-0.35-0.15-0.49-0.27c-2.09-1.77-2.76-5.55-2.24-7.82
		c0.17-0.76,0.89-1,1.46-1.33c4.67-2.69,9.72-4.38,14.98-5.51C483.84,223.81,485.68,223.51,487.48,223.18z"/>
	<path style="fill-rule:evenodd;clip-rule:evenodd;fill:#7D4F95;" d="M520.74,279.58c-0.38,0.03-0.77,0.05-1.16,0.08
		c-0.38,0.21-0.8,0.01-1.19,0.15c-0.23,0.12-0.64-0.07-0.67,0.31c-0.02,0.17,0.23,0.38,0.38,0.55c0.3,0.33,1.08,0.39,0.85,0.97
		c-0.21,0.55-0.92,0.57-1.47,0.6c-0.75,0.05-1.51,0.02-2.27,0.03c-0.22,0-0.56-0.08-0.6,0.21c-0.03,0.17,0.21,0.38,0.34,0.56
		c0.2,0.26,0.82,0.26,0.61,0.71c-0.12,0.25-0.58,0.37-0.91,0.48c-1.28,0.41-2.61,0.13-3.91,0.22c-0.64,0.11-0.75-0.47-1.02-0.81
		c-2.74-3.53-6.15-5.95-10.66-6.61c-0.6-0.09-1.18-0.09-1.77,0.05c-0.34,0.08-0.8,0.23-0.81-0.42c1.45-0.87,2.98-1.58,4.59-2.1
		c1.26-0.28,2.3,0.47,3.45,0.74c4.93,1.16,9.75,2.86,14.89,3.01C520.21,278.35,520.87,278.56,520.74,279.58z"/>
	<path style="fill-rule:evenodd;clip-rule:evenodd;fill:#C96AA1;" d="M509.2,255.59c0.01,1.59-0.32,2.73-0.82,3.83
		c-0.08,0.18-0.29,0.35-0.28,0.52c0.15,2.42-1.28,1.01-1.97,0.72c-2.86-1.2-4.96-3.24-6.34-6.05c-0.71-1.44-0.24-2.8,0.02-4.18
		c0.16-0.85,0.93-0.7,1.46-0.52c2.07,0.7,4.16,1.39,6.1,2.42C508.82,253.11,509.18,254.45,509.2,255.59z"/>
	<path style="fill-rule:evenodd;clip-rule:evenodd;fill:#7D4E95;" d="M471.08,285.4c-0.48,0.25-1.09,0.68-1.49,0.31
		c-0.45-0.41,0.19-0.91,0.36-1.37c0.49-1.29,0.28-1.64-1.13-1.62c-0.75,0.01-1.5,0.09-2.25,0.17c-0.32,0.03-0.65,0.19-0.86-0.16
		c-0.21-0.37,0.14-0.57,0.31-0.81c0.43-0.61,1.5-1.08,0.42-2c0.08-0.89,0.77-1.01,1.44-1.16c1.94-0.42,3.93-0.57,5.88-1.02
		c1.92-0.45,3.73-1.13,5.43-2.1c0.6-0.34,1.19-0.65,1.91-0.54c0.66,0.61,1.33,1.22,1.99,1.84c0.03,0.1,0.1,0.14,0.21,0.11
		c0.09,0.06,0.17,0.13,0.26,0.19c0.09,0.07,0.15,0.18,0.26,0.23l0.01-0.02c-0.01,0.62-0.51,0.55-0.86,0.56
		c-1.06,0.03-2.06,0.34-3.01,0.75c-2.09,0.9-4.14,1.89-5.98,3.25c-0.56,0.41-0.99,0.93-1.36,1.5c-0.18,0.28-0.34,0.6-0.07,0.88
		c1.02,1.06,0.05,0.84-0.55,0.88C471.7,285.3,471.37,285.18,471.08,285.4z"/>
	<path style="fill-rule:evenodd;clip-rule:evenodd;fill:#E4C5A2;" d="M498.68,229.7c-0.08-0.23-0.16-0.47-0.24-0.7
		c2.17-0.15,4.3,0.09,6.36,0.83c3.57,1.3,5.04,4.43,3.76,8.06c-0.87,1.47-1.36,1.71-2.99,1.48c-1.32-0.19-1.95-1.1-1.59-2.36
		c0.13-0.44,0.27-0.84-0.14-1.2c-0.67-0.58-1.45-1.14-0.54-2.13c0.07-0.07,0.16-0.13,0.18-0.24c-0.1,0.05-0.18,0.14-0.26,0.22
		c-0.15,0.13-0.29,0.27-0.46,0.37c-0.4,0.24-0.82,0.33-1.23,0.04c-0.39-0.28-0.37-0.66-0.21-1.06c0.06-0.14,0.21-0.29,0.08-0.42
		c-0.06-0.06-0.2,0.09-0.29,0.17c-0.4,0.31-0.5,1.14-1.25,0.84c-0.61-0.24-0.59-0.89-0.71-1.42c-0.04-0.19-0.17-0.36-0.22-0.55
		c0.18-0.45,0.06-0.83-0.24-1.18c0.61-0.55,1.37-0.25,2.06-0.35c-0.66-0.1-1.37,0.12-1.99-0.3
		C498.72,229.77,498.7,229.73,498.68,229.7z"/>
	<path style="fill-rule:evenodd;clip-rule:evenodd;fill:#7D4F94;" d="M510.05,260.19c-0.67,0.06-0.77-0.25-0.52-0.87
		c0.41-1.01,0.41-2.09,0.49-3.17c0.18-2.33-0.95-3.8-2.96-4.7c-1.64-0.73-3.32-1.35-4.97-2.05c-0.34-0.14-0.97-0.22-0.85-0.66
		c0.16-0.57,0.68-0.98,1.34-1.04c0.48-0.04,1.03-0.11,1.15,0.55c0.31,1.66,0.97,0.93,1.67,0.28c1.51-1.4,2.31-1.18,2.86,0.78
		c0.13,0.46,0.37,0.59,0.79,0.34c0.21-0.12,0.41-0.25,0.62-0.36c0.64-0.34,1.36-0.77,1.97-0.14c0.59,0.61,0.07,1.26-0.23,1.86
		c-0.21,0.41-0.71,0.85-0.37,1.29c0.41,0.52,0.84-0.11,1.26-0.22c0.38-0.1,0.77-0.31,1.08,0.13c0.29,0.41,0.07,0.76-0.17,1.09
		c-0.21,0.29-0.47,0.54-0.68,0.83c-0.16,0.22-0.4,0.5-0.36,0.71c0.08,0.41,0.51,0.26,0.81,0.29c0.35,0.03,0.79-0.09,0.94,0.34
		c0.15,0.42-0.13,0.78-0.44,1.04c-0.4,0.33-0.88,0.56-1.26,0.9c-0.29,0.26-1.2,0.63,0.07,0.93c0.64,0.15,0.28,0.68-0.01,1.01
		C511.94,259.76,510.76,260.19,510.05,260.19z"/>
	<path style="fill-rule:evenodd;clip-rule:evenodd;fill:#E3C5A1;" d="M481.16,229.96c0.17,0.17,0.22,0.43-0.05,0.43
		c-0.98-0.03-0.96,0.59-0.92,1.27c-0.01,0.41-0.26,0.74-0.38,1.12c-0.13,0.39-0.31,0.75-0.8,0.75c-0.46,0.01-0.69-0.24-0.85-0.67
		c-0.22-0.61-0.41-0.26-0.53,0.07c-0.13,0.33-0.19,0.67-0.61,0.8c-0.44,0.13-1.12-0.49-1.16-0.15c-0.14,1.14-1.08,1.96-1.07,3.11
		c0,0.24,0.05,0.47,0.09,0.72c0.44,1.37,0.12,1.88-1.24,2.03c-0.4,0.04-0.8,0.03-1.2,0.02c-2.69-0.04-3.14-0.51-3.06-3.25
		c1.25-3.08,3.87-4.68,6.67-6.01c1.37-0.65,2.86-0.97,4.38-1.17c0,0.22,0,0.44,0,0.66c-0.38,0.46-0.93,0.32-1.42,0.39
		c-0.24,0.03-0.45,0.12-0.67,0.2c0.22,0.11,0.41-0.05,0.61-0.09C479.69,230.03,480.42,229.96,481.16,229.96z"/>
	<path style="fill-rule:evenodd;clip-rule:evenodd;fill:#EFCDA4;" d="M489.08,248.84c1.79,0.3,3.33,0.41,4.87,0.01
		c0.41-0.11,0.56,0.11,0.73,0.42c0.31,0.58,0.81,0.95,1.41,1.24c0.3,0.14,0.86-0.13,0.87,0.35c0,0.24-0.46,0.49-0.73,0.72
		c-2.08,1.73-4.29,3.32-6.13,5.33c-0.44,0.48-0.67,0.41-0.94-0.12c-0.71-1.38-1.43-2.75-2.17-4.12c-0.18-0.33-0.01-0.51,0.17-0.73
		c0.58-0.73,1.01-1.53,1.24-2.43C488.5,249.01,488.75,248.72,489.08,248.84z"/>
	<path style="fill-rule:evenodd;clip-rule:evenodd;fill:#EEC419;" d="M506.58,225.18c-3.38-1.04-6.81-1.84-10.29-2.44
		c-0.46-0.27-1,0.05-1.46-0.21l-0.02,0.01c-0.05-0.18,0.01-0.34,0.16-0.4c1.53-0.66,2.83-1.6,3.75-3.02
		c0.23-0.06,0.47-0.1,0.68-0.19c2.16-0.96,2.89-0.64,3.54,1.64c0.22,0.77,0.29,1.21,1.28,0.62c1.09-0.64,2.31-0.48,3.32,0.44
		c0.23,0.37,0.14,0.76,0.06,1.15l0,0.02c-0.08,0.03-0.11,0.07-0.08,0.1c0.02,0.04,0.05,0.06,0.07,0.06l-0.01,0.01
		c0.22,0.25,0.52,0.12,0.78,0.15c0.26,0.02,0.44,0.1,0.52,0.38c0.24,0.84-0.68,1.95-1.58,1.92c-0.08-0.02-0.16-0.04-0.23-0.06
		C506.92,225.25,506.72,225.29,506.58,225.18z"/>
	<path style="fill-rule:evenodd;clip-rule:evenodd;fill:#5C3082;" d="M511.63,273.41c2.36,0.24,4.72,0.47,7.08,0.71
		c1.5,0.16,3,0.32,4.5,0.5c0.17,0.02,0.46,0.21,0.45,0.28c-0.07,0.33-0.36,0.16-0.57,0.19c-0.33,0.05-0.81-0.21-0.97,0.18
		c-0.14,0.34,0.38,0.43,0.57,0.67c0.16,0.2,0.32,0.42,0.16,0.64c-0.26,0.35-0.67,0.39-1.08,0.37c-0.6-0.04-1.23-0.58-1.8,0.09
		c-0.05,0.36-0.21,0.59-0.63,0.52c-1.97-0.3-3.97-0.24-5.92-0.67c-0.86-0.19-1.71-0.37-2.53-0.71c-2.22-0.94-4.58-1.32-6.91-1.81
		c-0.29-0.06-0.71,0.02-0.73-0.42c-0.01-0.18,0.34-0.16,0.46-0.32c0.09-0.05,0.18-0.11,0.26-0.16c0.17,0.09,0.32,0.07,0.46-0.08
		c1.44-1.35,3-0.31,4.48-0.15C509.83,273.33,510.72,273.39,511.63,273.41z"/>
	<path style="fill-rule:evenodd;clip-rule:evenodd;fill:#F8ECD9;" d="M492.43,217.5c0.08-0.02,0.15-0.05,0.23-0.07
		c0.13-0.05,0.26-0.08,0.39-0.07c0.8-0.09,1.35,0.28,1.47,1.06c0.12,0.74-0.4,1.31-1.03,1.41c-1.86,0.31-3.46,1.24-5.18,1.84
		c-2.18,0.76-4.46,0-6.54-1.02c-0.52-0.26-0.81-0.75-0.77-1.38c0.05-0.7,0.67-0.66,1.1-0.86c0.08-0.08,0.16-0.15,0.23-0.23
		c2.19-1.02,4.45-1.69,6.88-1.13C490.28,217.3,491.38,217.2,492.43,217.5z"/>
	<path style="fill-rule:evenodd;clip-rule:evenodd;fill:#8E5A9B;" d="M496.49,276.68c1.23,0.17,2.46-0.12,3.73,0.2
		c4.41,1.11,7.8,3.57,10.26,7.36c0.06,0.09,0.18,0.15,0.27,0.23c-0.02,0.06-0.03,0.12-0.04,0.18c0.1,0.26,0.13,0.63-0.06,0.74
		c-0.55,0.29,0.16,0.46,0.02,0.69c-0.88,0.04-1.77,0.27-2.62-0.18c-1.42-4.74-5-6.91-9.53-7.6c-2.24-0.34-4.47,0.49-6.5,1.63
		c-0.44,0.25-0.79,0.9-1.46,0.46C492.39,278.91,494.37,277.68,496.49,276.68z"/>
	<path style="fill-rule:evenodd;clip-rule:evenodd;fill:#8C599B;" d="M471.08,285.4c0.22-0.08,0.43-0.19,0.65-0.23
		c0.31-0.05,0.64-0.03,0.95-0.04c-0.2-0.18-0.43-0.35-0.61-0.55c-0.47-0.51-0.01-0.87,0.24-1.25c1.32-2,3.49-2.81,5.45-3.93
		c1.89-1.08,3.96-1.56,6.07-1.94c1.79,0.64,3.12,1.94,4.52,3.15c-0.04,0.39-0.2,0.32-0.46,0.16c-3.26-1.94-6.37-1.59-9.5,0.43
		c-1.15,0.75-2.48,1.23-3.4,2.31c-1.34,1.58-0.73,3.16,1.27,3.6c0.74,0.16-0.01,0.17-0.08,0.23c-0.08,0.08-0.19,0.13-0.29,0.19
		c-0.14,0.02-0.28,0.04-0.41,0.06c-0.13,0.01-0.21,0.1-0.31,0.17c-0.15,0.04-0.31,0.07-0.46,0.11c-1.47,0.34-1.17-0.77-1.27-1.56
		c0-0.12,0-0.24,0.01-0.36c-0.02-0.08-0.04-0.16-0.08-0.23c-0.04-0.07-0.09-0.13-0.16-0.18c-0.07-0.03-0.14-0.08-0.2-0.13
		C472.37,285.4,471.73,285.4,471.08,285.4z"/>
	<path style="fill-rule:evenodd;clip-rule:evenodd;fill:#C869A0;" d="M479.74,263.53c-0.05-0.55-0.51-0.46-0.82-0.45
		c-0.91,0.02-1.5-0.36-1.75-1.24c-0.93-1.38-1.48-2.77-0.55-4.41c0.78-1.37,1.69-2.6,3.02-3.5c0.39-0.26,0.73-0.6,1.1-0.9
		c0.77-0.54,1.54-0.54,2.32,0c0.51,0.42,0.17,0.84-0.08,1.15c-1.28,1.58-1.88,3.56-3.4,5.04c-1.05,1.02-0.21,2.48,0.3,3.7
		C479.92,263.07,480.6,263.49,479.74,263.53z"/>
	<path style="fill-rule:evenodd;clip-rule:evenodd;fill:#ECC11C;" d="M473.72,225.85c-0.06,0.05-0.13,0.07-0.21,0.05
		c-0.85-0.21-0.48-0.85-0.44-1.33c0.08-0.92,0.52-1.79,0.35-2.74c-0.48-0.91-0.08-1.6,0.61-2.15c0.73-0.59,1.56-0.71,2.42-0.24
		c0.37,0.21,0.73,0.45,1.09,0.67c0.47,0.22,0.54,0.77,0.87,1.1c0.85,0.87,1.79,1.56,3.09,1.56c0.34,0,0.84-0.2,0.85,0.46l-0.05,0.04
		l-0.06-0.03c-0.19,0.08-0.41,0.09-0.59,0.19c-0.12,0.02-0.24,0.03-0.36,0.05c-0.2,0.08-0.42,0.08-0.6,0.2
		c-2.14,0.64-4.17,1.64-6.4,1.99C474.09,225.75,473.89,225.73,473.72,225.85z"/>
	<path style="fill-rule:evenodd;clip-rule:evenodd;fill:#5B2F82;" d="M465.55,277.43c0.55-1.16,0.2-1.59-1.27-1.64
		c-0.41-0.01-1.15,0.19-1.17-0.17c-0.02-0.5,0.73-0.42,1.14-0.49c1.15-0.22,2.33-0.34,3.49-0.5c3.21,0.03,6.4-0.29,9.59-0.68
		c0.16,0.08,0.31,0.08,0.45-0.03c0.25-0.07,0.5-0.14,0.75-0.21c0.86,0.22,0.4,0.57,0.07,0.85c-1.15,0.95-2.42,1.71-3.88,2.08
		c-2.76,0.69-5.56,1.13-8.38,1.46c-0.37,0.04-0.9,0.27-1.05-0.38l0.01,0.01C465.42,277.65,465.49,277.54,465.55,277.43z"/>
	<path style="fill-rule:evenodd;clip-rule:evenodd;fill:#6D3E8B;" d="M465.3,277.71c2.35,0.1,4.58-0.58,6.87-0.91
		c2.34-0.33,4.46-1.08,6.34-2.54c0.36-0.28,0.27-0.36,0.03-0.57c1.64-0.97,2.11,0.2,2.56,1.4c-4.08,2.49-8.63,3.43-13.28,4.01
		c-0.65,0.08-0.98,0.43-1.38,0.8c-0.51-0.06-1.02-0.08-1.52-0.19c-0.5-0.11-1.3,0.18-1.43-0.5c-0.12-0.6,0.69-0.76,1.09-1.1
		C464.8,277.95,465.06,277.85,465.3,277.71z"/>
	<path style="fill-rule:evenodd;clip-rule:evenodd;fill:#6E408C;" d="M503.72,273.62c-0.06,0.15-0.13,0.31-0.19,0.46
		c3.26,0.07,6.21,1.41,9.27,2.3c2.26,0.66,4.64,0.42,6.92,0.89c0.06,0.01,0.17-0.16,0.25-0.24c0.34,0.46,0.69,0.92,1.02,1.4
		c0.33,0.47,0.5,0.92-0.25,1.16c-0.48-1.42-1.84-1.06-2.74-1.08c-5.04-0.13-9.66-2.08-14.48-3.15c-0.81-0.18-1.53-0.88-2.43-0.36
		c0-0.14,0-0.28,0-0.42c0.09-0.05,0.17-0.11,0.26-0.16c0.18,0.09,0.33,0.07,0.45-0.1C502.37,273.9,503.03,273.72,503.72,273.62z"/>
	<path style="fill-rule:evenodd;clip-rule:evenodd;fill:#4D6373;" d="M480.73,262.81c0.52-0.71,1.06-0.1,1.59-0.02
		c3.56,0.58,5.2,3.69,5.32,6.63c0.06,1.52-0.1,3.02-0.69,4.43c-0.27,0.65-0.11,1.32-0.27,1.96c-0.7-0.5-1.41-0.99-2.11-1.49
		c-0.08-1.17,0.52-2.21,0.59-3.37c0.2-2.97-0.42-5.46-3.52-6.66C481.24,263.85,480.89,263.38,480.73,262.81z"/>
	<path style="fill-rule:evenodd;clip-rule:evenodd;fill:#DFA576;" d="M507.27,240.52c0.55,1.05-0.33,1.49-0.91,2.02
		c-0.44,0.4-0.97,0.69-1.46,1.03c-1.73-0.45-3.16,0.6-4.74,0.94c-0.37,0.08-0.76,0.04-1.03-0.17c-0.65-0.49-1.31-0.4-2.01-0.17
		c-0.34-0.14-0.61-0.37-0.9-0.57c-2.13-1.54-2.22-3.22-0.27-5.06c1.43,0.07,1.59,0.35,0.92,1.63c-0.45,1.54,0.18,2.59,1.76,2.79
		c0.87,0.11,1.76-0.06,2.55-0.44c0.98-0.47,1.01-1.02,0.25-2.37c-0.28-1.39-0.18-1.53,0.97-1.53c1.15,1.4,2.53,1.97,4.3,1.24
		c0.4-0.16,0.82-0.25,0.64,0.45l0.02-0.02C507.26,240.34,507.23,240.41,507.27,240.52z"/>
	<path style="fill-rule:evenodd;clip-rule:evenodd;fill:#3E4A54;" d="M481.63,264.29c1.7,0.06,2.99,1.07,3.57,3.21
		c0.62,2.31,0.47,4.63-0.64,6.82c-2.99-1.66-3.06-1.69-1.88-4.8c0.58-1.52,0.38-2.78-0.48-4.06
		C481.97,265.1,481.82,264.68,481.63,264.29z"/>
	<path style="fill-rule:evenodd;clip-rule:evenodd;fill:#E3AF7A;" d="M476.83,245.31c-1.44-0.43-2.72-1.1-3.61-2.37
		c-0.31-0.45-0.78-0.69-1.25-0.87c-1.29-0.49-2.11-1.33-2.3-2.73c0.24-0.26,0.51-0.21,0.76-0.05c1.02,0.66,2.28,0.66,3.35,1.21
		c0.63,0.33,1.11-0.13,1.61-0.48c0.57-0.4,0.96-0.94,1.4-1.45c0.85-0.08,0.96,0.35,0.7,1.02c-0.17,0.32-0.45,0.56-0.66,0.85
		c-0.96,1.32-0.69,2.3,0.8,2.96c1.68,0.75,3.33,0.65,4.93-0.23c1.24-0.68,1.51-1.71,0.74-2.9c-0.26-0.4-0.61-0.76-0.34-1.3
		c0.32-0.32,0.59-0.09,0.84,0.1c1.51,1.15,1.58,3.18,0.17,4.47c-1.59,1.44-3.54,1.47-5.51,1.35
		C477.86,244.84,477.28,244.79,476.83,245.31z"/>
	<path style="fill-rule:evenodd;clip-rule:evenodd;fill:#4F6778;" d="M500.16,272.26c-2.17-4.84-1.37-9.38,1.39-13.72
		c0.5,0.47,1,0.93,1.51,1.4c-0.29,0.96-1.16,1.63-1.37,2.62c-0.61,2.93-1.12,5.86,0.51,8.67c0.08,0.14,0.1,0.3,0.05,0.46
		C501.55,271.88,500.85,272.07,500.16,272.26z"/>
	<path style="fill-rule:evenodd;clip-rule:evenodd;fill:#3B4750;" d="M503.95,260.45c0.32,0.16,0.63,0.35,0.96,0.46
		c0.79,0.26,1,0.65,0.41,1.34c-0.73,0.86-0.64,1.91-0.67,2.94c-0.05,1.54,0.2,3.09-0.21,4.62c-0.2,0.72-0.52,1.32-1.22,1.66
		c-0.77-0.45-0.96-1.27-1.12-2.02c-0.51-2.44-0.46-4.88,0.4-7.25C502.77,261.46,503.05,260.68,503.95,260.45z"/>
	<path style="fill-rule:evenodd;clip-rule:evenodd;fill:#D78926;" d="M470.62,227.13c-1.41,0.97-3.12,1.4-4.48,2.48
		c-0.25,0.2-0.67,0.32-0.82-0.07c-0.28-0.72-0.79-1.46-0.27-2.26c0.29-0.45,0.75-0.57,1.26-0.33c0.44,0.2,0.86,0.82,1.35,0.28
		c0.43-0.47-0.3-0.8-0.36-1.25c-0.07-0.55-0.53-1.06,0.14-1.61c0.66-0.55,1.01,0.03,1.47,0.24c0.32,0.15,0.64,0.46,0.99,0.27
		c0.52-0.28-0.02-0.62-0.06-0.92c-0.13-1.03,0.36-1.67,1.19-2.13c0.8-0.44,1.15,0.13,1.52,0.68
		C472.1,224.12,471.71,225.77,470.62,227.13z"/>
	<path style="fill-rule:evenodd;clip-rule:evenodd;fill:#E7B88C;" d="M476.83,245.31c-0.29-1.22,0.49-0.94,1.17-0.85
		c2.17,0.28,4.3,0.31,6-1.39c1.23-1.24,0.73-3.31-0.93-3.99c-0.04,0.04-0.08,0.07-0.13,0.11c-0.06,0-0.11,0.01-0.17,0.01
		c-0.17-0.02-0.33-0.07-0.48-0.14c-0.55-0.32-0.64-0.7-0.07-1.05c0.41-0.25,0.73-0.75,1.33-0.58c0.3,0.41,0.53,0.93,0.93,1.22
		c3.11,2.24,1.42,5.07-1.02,6.19c-0.68,0.31-1.42,0.47-2.18,0.56c-0.45,0.06-1.56,0.13-0.62,1.12
		C479.33,246.31,478.04,245.93,476.83,245.31z"/>
	<path style="fill-rule:evenodd;clip-rule:evenodd;fill:#E8BE1B;" d="M498.45,251.52c-0.19,0.22-0.33,0.5-0.55,0.63
		c-3.28,2.02-5.47,5.19-8.15,7.83c-0.72,0.71-1.04,0.68-1.51-0.22c-0.99-1.91-1.98-3.82-2.61-5.89c-0.08-0.26-0.31-0.6-0.04-0.77
		c0.36-0.22,0.56,0.18,0.73,0.42c1.03,1.4,1.56,3.05,2.28,4.6c0.56,1.19,1.1,1.07,1.7,0.09c1.86-3.02,4.97-4.66,7.6-6.83
		c0.12-0.09,0.28-0.13,0.43-0.19C498.36,251.29,498.4,251.39,498.45,251.52z"/>
	<path style="fill-rule:evenodd;clip-rule:evenodd;fill:#455663;" d="M503.95,260.45c-2.43,3.53-2.28,7.23-0.73,11.02
		c-0.33,0.07-0.65,0.14-0.98,0.22c-1.03-0.91-1.41-2.1-1.4-3.42c0.01-2.58-0.32-5.21,1.38-7.49c0.24-0.32,0.44-0.66,0.83-0.83
		c0.22,0.1,0.44,0.19,0.67,0.29C503.8,260.29,503.88,260.36,503.95,260.45L503.95,260.45z"/>
	<path style="fill-rule:evenodd;clip-rule:evenodd;fill:#865635;" d="M493.67,215.34c4.88,0.23,9.39,1.56,13.36,4.5
		c0.19,0.14,0.44,0.21,0.42,0.52c-0.22-0.02-0.45-0.03-0.67-0.05c-0.08-0.01-0.15-0.08-0.22-0.07c-1.63,0.19-2.81-0.32-3.79-1.79
		c-0.68-1.02-2.11-0.45-3.2-0.62c-0.92-0.14-1.28-1.84-2.68-1.79c-1.15,0.04-2.32-0.15-3.42,0.33c-0.07,0.03-0.15,0.07-0.22,0.09
		c-0.76,0.22-1.27-0.27-1.83-0.63c0.36-0.5,0.93-0.37,1.42-0.47C493.1,215.3,493.39,215.34,493.67,215.34z"/>
	<path style="fill-rule:evenodd;clip-rule:evenodd;fill:#F6E2AE;" d="M482.1,218.41c-0.3,0.37-1.01,0.43-0.84,1.13
		c0.15,0.66,0.71,1.05,1.25,1.18c1.72,0.43,3.42,1.05,5.25,0.83c0.04,0,0.09,0.01,0.12-0.01c1.82-1,3.68-1.87,5.78-2.12
		c0.34-0.04,0.82-0.51,0.64-1.01c-0.21-0.59-0.68-0.97-1.37-0.96c-0.01-0.05-0.01-0.1-0.02-0.14c0.16-0.03,0.32-0.07,0.49-0.1
		c0.79-0.25,1.44-0.07,1.81,0.69c0.4,0.82,0.03,1.46-0.57,2.01c-0.24,0.22-0.5,0.4-0.82,0.48c-1.62,0.41-3.15,1.11-4.72,1.59
		c-2.51,0.75-5.12,0.49-7.54-0.71c-0.47-0.23-0.88-0.55-1.13-1.03c-0.48-0.92-0.11-1.71,0.97-2.05
		C481.63,218.27,481.87,218.34,482.1,218.41z"/>
	<path style="fill-rule:evenodd;clip-rule:evenodd;fill:#E1BA8F;" d="M476.85,238.66c-0.49,1.73-2.22,2.55-3.81,1.89
		c-1.1-0.45-2.33-0.58-3.37-1.23c-0.59-1-0.81-2.03-0.28-3.13c0.78,2.88,0.78,2.88,3.5,2.88c2.16,0,2.19-0.05,1.58-1.97
		C475.41,237.41,476.26,237.84,476.85,238.66z"/>
	<path style="fill-rule:evenodd;clip-rule:evenodd;fill:#E9C01B;" d="M490.77,279.19c-0.79,1.07-1.57,0.95-2.57,0.18
		c-1.64-1.26-3.4-2.35-5.07-3.56c-0.54-0.39-0.96-0.94-1.41-1.45c-0.13-0.15-0.38-0.38-0.15-0.6c0.07-0.07,0.36,0.03,0.52,0.1
		c2.31,1.03,4.39,2.39,5.93,4.44c0.62,0.82,1.34,0.89,2.2,0.59C490.51,278.78,490.78,278.73,490.77,279.19z"/>
	<path style="fill-rule:evenodd;clip-rule:evenodd;fill:#F3DC94;" d="M481.39,218.2c-1.31,1.15-1.26,2.11,0.34,2.78
		c2.72,1.14,5.52,1.77,8.34,0.22c1.09-0.6,2.33-0.72,3.5-1.06c0.86-0.26,1.58-0.74,1.47-1.73c-0.1-0.89-0.8-1.21-1.65-1.18
		c0.28-0.26,0.63-0.24,0.98-0.26c1.47,0.28,2,1.67,1.08,2.82c-0.33,0.42-0.77,0.7-1.28,0.85c-1.86,0.55-3.64,1.35-5.54,1.8
		c-1.06,0.09-2.12,0.18-3.18,0.27c-1.1-0.29-2.29,0-3.38-0.53c-0.65-0.32-1.29-0.62-1.8-1.14c-1.24-1.26-1.1-2.43,0.42-3.43
		C480.92,217.8,481.16,218,481.39,218.2z"/>
	<path style="fill-rule:evenodd;clip-rule:evenodd;fill:#DD9D24;" d="M507.31,225.42c1.15-0.02,1.05-1.07,1.27-1.71
		c0.29-0.82-0.9-0.13-1-0.73c0.69,0.14,1.34-0.12,2-0.18c0.56-0.05,1.23-0.29,1.56,0.46c0.3,0.67,0.56,1.34-0.1,1.97
		c-0.09,0.09-0.09,0.29-0.13,0.44c0.08,0.06,0.15,0.13,0.2,0.22l0.03,0.02c0.22,0.7-0.09,0.86-0.71,0.7
		C509.39,226.21,508.35,225.81,507.31,225.42z"/>
	<path style="fill-rule:evenodd;clip-rule:evenodd;fill:#E7BE1C;" d="M493.89,276.75c2.71-2.44,5.9-3.89,9.46-4.56
		c0.16-0.03,0.31-0.1,0.46-0.11c0.38-0.03,0.8-0.8,1.03-0.26c0.3,0.69-0.56,0.71-0.99,0.88c-3.31,1.28-6.59,2.62-9.72,4.3
		C493.87,277.1,493.82,276.98,493.89,276.75z"/>
	<path style="fill-rule:evenodd;clip-rule:evenodd;fill:#DBB892;" d="M507.35,240.32c-0.21-0.79-0.56-0.12-0.74-0.02
		c-1.34,0.74-4.17-0.22-4.34-1.63c0-0.16,0.04-0.34,0.16-0.43c0.97-0.67,1.37-1.65,1.53-2.76c0.63,0.41,0.77,0.85,0.35,1.58
		c-0.53,0.91,0.1,1.86,1.17,2.02c1.25,0.18,2.32-0.09,3.08-1.18C508.4,238.83,507.98,239.62,507.35,240.32z"/>
	<path style="fill-rule:evenodd;clip-rule:evenodd;fill:#F2D051;" d="M480.69,217.61c-1.51,2.39-0.07,4.48,3.2,4.69
		c0.52,0.03,1.22-0.39,1.57,0.41c-0.64,0.1-1.28,0.19-1.91,0.29c-1.23-0.08-2.46-0.15-3.52-0.89c-2-1.39-2.28-2.98-0.89-4.91
		C479.79,216.78,480.27,217.09,480.69,217.61z"/>
	<path style="fill-rule:evenodd;clip-rule:evenodd;fill:#EDC72C;" d="M498.72,219.13c-0.46,2.11-2.34,2.58-3.91,3.42
		c-0.47-0.02-0.94-0.05-1.42-0.07c-0.31-0.13-0.63-0.04-0.94-0.08c-0.25-0.03-0.67,0.15-0.7-0.21c-0.03-0.39,0.42-0.43,0.71-0.45
		c0.84-0.07,1.62-0.38,2.38-0.69c0.59-0.24,1.17-0.52,1.56-1.05c0.51-0.7,0.87-1.42,0.46-2.31c-0.19-0.43-0.34-0.92,0.47-0.69
		C498.55,217.21,498.02,218.56,498.72,219.13z"/>
	<path style="fill-rule:evenodd;clip-rule:evenodd;fill:#E1A422;" d="M470.62,227.13c0.65-1.54,0.92-3.24,1.93-4.64
		c0.47,0.02,0.96,0.06,0.88-0.65c0.69,0.92,0.15,1.85,0.02,2.78c-0.06,0.44-0.43,0.88,0.07,1.29c-0.79,0.32-1.58,0.65-2.38,0.97
		c-0.1,0.04-0.2,0.1-0.29,0.16C470.77,227.07,470.7,227.1,470.62,227.13z"/>
	<path style="fill-rule:evenodd;clip-rule:evenodd;fill:#F2CE47;" d="M497.34,216.98c-0.21,0.05-0.52-0.02-0.31,0.4
		c0.62,1.25,0.29,2.66-0.88,3.37c-1.09,0.66-2.26,1.17-3.56,1.28c-0.19,0.02-0.39,0.05-0.58,0.08c0.14,0.28,0.4,0.11,0.6,0.16
		c0.26,0.06,0.53,0.13,0.79,0.19c-0.9-0.04-1.79-0.08-2.69-0.12c-0.63-0.05-0.59-0.31-0.12-0.54c0.67-0.33,1.38-0.57,2.11-0.72
		c0.82-0.17,1.6-0.46,2.3-0.9c1.19-0.74,1.37-1.52,0.7-2.77c-0.11-0.21-0.27-0.4-0.12-0.66
		C496.18,216.68,496.79,216.59,497.34,216.98z"/>
	<path style="fill-rule:evenodd;clip-rule:evenodd;fill:#E5B98D;" d="M500.11,244.34c1.15-0.7,2.5-0.84,3.73-1.34
		c0.52-0.21,0.7,0.39,1.06,0.57c-0.05,0.06-0.11,0.09-0.18,0.09c-0.11,0.04-0.19,0.12-0.27,0.2c-1.04,0.78-2.16,1.43-3.37,1.91
		c-0.11-0.63-0.45-0.63-1.04-0.58c-0.93,0.07-1.87-0.09-2.81-0.16c0.36-0.86,1.1-0.7,1.78-0.65
		C499.39,244.41,499.76,244.7,500.11,244.34z"/>
	<path style="fill-rule:evenodd;clip-rule:evenodd;fill:#F6E3B3;" d="M492.43,217.5c-0.79,0.06-1.69,0.39-2.35,0.13
		c-2.47-1-4.73-0.07-7.05,0.46c-0.23,0.05-0.47,0.06-0.7,0.09c0.12-0.24,0.24-0.49,0.37-0.73c2.34-1.73,4.97-1.37,7.59-1.08
		c0.16,0.02,0.31,0.07,0.47,0.06C491.48,216.54,491.66,217.49,492.43,217.5z"/>
	<path style="fill-rule:evenodd;clip-rule:evenodd;fill:#EDC835;" d="M479.13,217.2c0.12,0.14,0.72,0.04,0.43,0.22
		c-0.96,0.63-1.28,1.46-0.97,2.44c0.36,1.15,1.24,1.95,2.36,2.38c0.84,0.32,1.72,0.51,2.59,0.76c-0.4,0.08-0.8,0.16-1.2,0.24
		c-0.93-0.31-1.96-0.04-2.86-0.69c-0.91-0.65-1.7-1.3-1.94-2.44c0.58-0.27,0.52-0.77,0.49-1.29
		C477.98,218.02,478.17,217.34,479.13,217.2z"/>
	<path style="fill-rule:evenodd;clip-rule:evenodd;fill:#F3D467;" d="M495.58,216.76c1.47,1.91,1.24,2.94-1.03,3.96
		c-1.06,0.48-2.23,0.72-3.34,1.09c-0.23,0.08-0.8-0.07-0.51,0.53c-0.69,0.03-1.38,0.06-2.07,0.09c1.1-0.75,2.36-1.15,3.6-1.52
		c0.6-0.18,1.2-0.35,1.79-0.56c0.76-0.28,1.43-0.63,1.55-1.58c0.13-0.99-0.45-1.44-1.2-1.8
		C494.74,216.71,495.16,216.74,495.58,216.76z"/>
	<path style="fill-rule:evenodd;clip-rule:evenodd;fill:#7A4F8E;" d="M479.97,252.76c-0.63-0.01-0.91-0.39-0.72-0.93
		c0.39-1.12,1.48-1.06,2.29-0.91c0.73,0.13,1.85,0.26,1.72,1.55C482.21,253.07,481.06,252.61,479.97,252.76z"/>
	<path style="fill-rule:evenodd;clip-rule:evenodd;fill:#F2D678;" d="M490.77,216.44c-1.89,0.31-3.84-0.23-5.72,0.32
		c-0.79,0.23-1.57,0.47-2.35,0.7c0.24-0.53,0.64-0.9,1.11-1.21c1.52-0.84,3.13-0.98,4.8-0.58
		C489.28,216.07,490.16,215.86,490.77,216.44z"/>
	<path style="fill-rule:evenodd;clip-rule:evenodd;fill:#DEBF98;" d="M529.67,211.94c0.03,0.56-1.71,3.35-2.25,3.57
		c-0.26,0.11-0.6,0-0.45-0.26c0.68-1.19,0.89-2.66,2.1-3.53C529.5,211.42,529.65,211.49,529.67,211.94z"/>
	<path style="fill-rule:evenodd;clip-rule:evenodd;fill:#7A508F;" d="M476.32,262.16c0.1,0.3,0.19,0.61,0.29,0.91
		c-0.29,0.55-0.67,1.01-1.36,0.97c-0.43-0.03-0.54-0.4-0.57-0.78c-0.05-0.75,0.15-1.56,0.72-1.93
		C476.14,260.86,476,261.88,476.32,262.16z"/>
	<path style="fill-rule:evenodd;clip-rule:evenodd;fill:#795B44;" d="M472.68,220c-0.19,0.55-0.23,1.05-0.97,1.09
		c-1.39,0.07-2.42,0.73-2.79,2.16c-0.09,0.33-0.22,0.53-0.57,0.36c-0.4-0.19-0.36-0.46-0.1-0.76c1.09-1.3,2.43-2.29,3.93-3.07
		C472.46,219.64,472.73,219.59,472.68,220z"/>
	<path style="fill-rule:evenodd;clip-rule:evenodd;fill:#79508F;" d="M477.42,252.76c0.39,0.07,1.26-0.02,1.24,0.55
		c-0.02,0.66-0.68,1.32-1.45,1.34c-0.58,0.02-1.03-0.51-1.03-1.11C476.18,252.9,476.71,252.73,477.42,252.76z"/>
	<path style="fill-rule:evenodd;clip-rule:evenodd;fill:#E8C749;" d="M488.62,215.66c-1.6,0.19-3.2,0.39-4.8,0.58
		C485.53,214.59,487.11,214.4,488.62,215.66z"/>
	<path style="fill-rule:evenodd;clip-rule:evenodd;fill:#734F87;" d="M474.69,258.74c-0.76-0.05-1.52-0.1-1.38-0.72
		c0.18-0.78,1.14-0.72,1.8-0.9c0.52-0.14,0.5,0.33,0.52,0.7C475.66,258.68,475.14,258.8,474.69,258.74z"/>
	<path style="fill-rule:evenodd;clip-rule:evenodd;fill:#755388;" d="M474.92,259.95c0.23,0.14,0.64,0.38,0.37,0.57
		c-0.46,0.32-1.06,0.46-1.63,0.61c-0.26,0.07-0.4-0.18-0.42-0.45c-0.08-0.73,1.17-1.73,1.81-1.41
		C475.63,259.57,474.97,259.73,474.92,259.95L474.92,259.95z"/>
	<path style="fill-rule:evenodd;clip-rule:evenodd;fill:#76508B;" d="M476.3,255.15c0.19,0.06,0.72-0.17,0.55,0.26
		c-0.21,0.53-0.43,1.32-1.25,1.19c-0.48-0.08-1.18-0.01-1.31-0.73C474.24,255.51,475.26,255.16,476.3,255.15z"/>
	<path style="fill-rule:evenodd;clip-rule:evenodd;fill:#C47F2D;" d="M510.44,226.6c0.43-0.04,0.69-0.24,0.71-0.7
		c0.48,0.45,1.58-0.81,1.7,0.63c0.06,0.72,0.03,1.25-0.91,0.77C511.45,227.06,510.94,226.84,510.44,226.6z"/>
	<path style="fill-rule:evenodd;clip-rule:evenodd;fill:#050302;" d="M479.97,252.76c1.05-0.62,2.2-0.14,3.29-0.29
		c0.21,0.12,0.69-0.07,0.6,0.33c-0.08,0.36-0.55,0.12-0.83,0.23c-0.77,0-1.54,0-2.32,0C480.47,252.96,480.15,253.05,479.97,252.76z"
		/>
	<path style="fill-rule:evenodd;clip-rule:evenodd;fill:#C2A736;" d="M493.89,276.75c0.08,0.08,0.17,0.17,0.25,0.25
		c-1.12,0.73-2.24,1.46-3.37,2.19c-0.18-0.1-0.37-0.2-0.55-0.29C491.44,278.18,492.66,277.47,493.89,276.75z"/>
	<path style="fill-rule:evenodd;clip-rule:evenodd;fill:#7A578A;" d="M477.86,263.61c0.13-0.01,0.26-0.02,0.39-0.02
		c0.29,0.23,0.72-0.08,0.97,0.26c0,0.06,0.01,0.12,0.02,0.18c-0.15,0.13-0.28,0.27-0.44,0.38c-0.34,0.24-0.75,0.72-1.09,0.44
		C477.28,264.53,477.59,264.01,477.86,263.61z"/>
	<path style="fill-rule:evenodd;clip-rule:evenodd;fill:#B6A58F;" d="M526.91,213.24c-0.34,0.02-0.39-0.13-0.37-0.29
		c0.13-0.67,0.26-1.34,1.02-1.61c0.15-0.05,0.41-0.08,0.32,0.11C527.6,212.09,527.22,212.69,526.91,213.24z"/>
	<path style="fill-rule:evenodd;clip-rule:evenodd;fill:#77573F;" d="M481.68,217.18c-0.31-0.06-0.64-0.23-0.61-0.49
		c0.07-0.58,0.69-0.38,1.05-0.58c0.19-0.1,0.46,0.02,0.37,0.26C482.35,216.75,482.06,217.04,481.68,217.18z"/>
	<path style="fill-rule:evenodd;clip-rule:evenodd;fill:#80593C;" d="M476.54,217.76c0.48-0.07,0.57,0.2,0.56,0.56
		c-0.01,0.24-0.04,0.56-0.35,0.47c-0.36-0.1-0.93-0.29-0.98-0.53C475.69,217.84,476.3,217.95,476.54,217.76z"/>
	<path style="fill-rule:evenodd;clip-rule:evenodd;fill:#575757;" d="M433.7,268.23c-0.4,0.08-0.54,0.15-0.66,0.13
		c-0.22-0.05-0.51-0.09-0.62-0.24c-0.16-0.21,0.14-0.24,0.25-0.22C432.93,267.95,433.18,268.06,433.7,268.23z"/>
	<path style="fill-rule:evenodd;clip-rule:evenodd;fill:#AEA190;" d="M528.85,210.14c-0.55,0.42-0.79,0.67-1.09,0.82
		c-0.18,0.09-0.27-0.11-0.16-0.26c0.2-0.27,0.39-0.59,0.78-0.64C528.48,210.05,528.59,210.1,528.85,210.14z"/>
	<path style="fill-rule:evenodd;clip-rule:evenodd;fill:#EDC72C;" d="M494.83,222.53c0.49,0.04,1.02-0.18,1.46,0.21
		C495.79,222.74,495.28,222.84,494.83,222.53z"/>
	<path style="fill-rule:evenodd;clip-rule:evenodd;fill:#DD9D24;" d="M507.61,222.78c-0.02-0.38-0.04-0.77-0.06-1.15
		C507.98,221.99,507.99,222.38,507.61,222.78z"/>
	<path style="fill-rule:evenodd;clip-rule:evenodd;fill:#6E408C;" d="M504.44,273.38c-0.12,0.23-0.27,0.29-0.46,0.07
		C504.13,273.43,504.29,273.41,504.44,273.38z"/>
	<path style="fill-rule:evenodd;clip-rule:evenodd;fill:#E1A422;" d="M473.72,225.85c0.18-0.06,0.36-0.12,0.55-0.17
		C474.09,225.74,473.91,225.8,473.72,225.85z"/>
	<path style="fill-rule:evenodd;clip-rule:evenodd;fill:#DD9D24;" d="M506.58,225.18c0.17,0.06,0.33,0.12,0.5,0.18
		C506.91,225.3,506.74,225.24,506.58,225.18z"/>
	<path style="fill-rule:evenodd;clip-rule:evenodd;fill:#EDC835;" d="M480.67,223.69c0.2-0.07,0.4-0.13,0.6-0.2
		C481.08,223.56,480.88,223.63,480.67,223.69z"/>
	<path style="fill-rule:evenodd;clip-rule:evenodd;fill:#6D3E8B;" d="M477.79,273.91c-0.14,0.21-0.29,0.23-0.45,0.03
		C477.49,273.93,477.64,273.92,477.79,273.91z"/>
	<path style="fill-rule:evenodd;clip-rule:evenodd;fill:#EDC835;" d="M481.63,223.45c0.2-0.06,0.39-0.13,0.59-0.19
		C482.03,223.32,481.83,223.38,481.63,223.45z"/>
	<path style="fill-rule:evenodd;clip-rule:evenodd;fill:#7D4F95;" d="M501.79,274.32c-0.11,0.24-0.25,0.31-0.45,0.1
		C501.49,274.38,501.64,274.35,501.79,274.32z"/>
	<path style="fill-rule:evenodd;clip-rule:evenodd;fill:#8C599B;" d="M483.82,277.47c-0.09-0.08-0.17-0.15-0.26-0.23
		C483.65,277.32,483.74,277.4,483.82,277.47z"/>
	<path style="fill-rule:evenodd;clip-rule:evenodd;fill:#4D6373;" d="M480.5,262.36c0.06,0.08,0.12,0.16,0.17,0.24
		C480.62,262.52,480.56,262.44,480.5,262.36z"/>
	<path style="fill-rule:evenodd;clip-rule:evenodd;fill:#3B4750;" d="M503.96,260.44c-0.08-0.07-0.16-0.14-0.24-0.21
		C503.8,260.3,503.88,260.37,503.96,260.44z"/>
	<path style="fill-rule:evenodd;clip-rule:evenodd;fill:#D78926;" d="M470.85,227.04c0.1-0.05,0.19-0.11,0.29-0.16
		C471.04,226.93,470.94,226.98,470.85,227.04z"/>
	<path style="fill-rule:evenodd;clip-rule:evenodd;fill:#C47F2D;" d="M511.12,225.88c-0.07-0.07-0.13-0.15-0.2-0.22
		C510.99,225.74,511.06,225.81,511.12,225.88z"/>
	<path style="fill-rule:evenodd;clip-rule:evenodd;fill:#DD9D24;" d="M507.59,222.96c-0.03-0.04-0.07-0.09-0.1-0.13
		c0.04-0.01,0.07-0.02,0.11-0.03C507.63,222.86,507.63,222.91,507.59,222.96z"/>
	<path style="fill-rule:evenodd;clip-rule:evenodd;fill:#DFA576;" d="M504.45,243.87c0.09-0.07,0.18-0.13,0.27-0.2
		C504.63,243.73,504.54,243.8,504.45,243.87z"/>
	<path style="fill-rule:evenodd;clip-rule:evenodd;fill:#DBB892;" d="M507.27,240.52c0-0.06-0.02-0.13-0.01-0.19
		c0-0.02,0.07-0.02,0.1-0.04C507.33,240.37,507.3,240.44,507.27,240.52z"/>
	<path style="fill-rule:evenodd;clip-rule:evenodd;fill:#E5B98D;" d="M500.61,246.01c0.1-0.06,0.21-0.11,0.31-0.17
		C500.82,245.9,500.71,245.96,500.61,246.01z"/>
	<path style="fill-rule:evenodd;clip-rule:evenodd;fill:#F3DC94;" d="M492.91,217.32c0.01,0.05,0.02,0.1,0.02,0.14
		c-0.09-0.01-0.18-0.02-0.26-0.03C492.74,217.4,492.82,217.36,492.91,217.32z"/>
	<path style="fill-rule:evenodd;clip-rule:evenodd;fill:#8C599B;" d="M483.3,277.05c-0.15,0.11-0.18,0.01-0.21-0.11
		C483.17,276.96,483.24,277,483.3,277.05z"/>
	<path style="fill-rule:evenodd;clip-rule:evenodd;fill:#232322;" d="M534.14,285.8c-1.31-0.36-2.64-0.62-3.96-0.92
		c-0.4-0.09-0.86-0.19-0.89-0.66c-0.04-0.54,0.51-0.35,0.79-0.45c1.06-0.35,2.18-0.83,2.37-1.97c0.14-0.88-0.11-1.71,1.04-2.1
		c0.38-0.13,0.28-0.83-0.06-1.04c-1.64-1.03-0.64-1.37,0.39-1.79c0.28-0.11,0.55-0.38,0.68-0.65c0.26-0.52-0.18-0.45-0.48-0.45
		c-0.41-0.15-0.82-0.18-1.19,0.11c-0.67,0.85-1.73,0.69-2.6,1.02c-0.11,0.03-0.22,0.07-0.32,0.12c-0.21,0.1-0.41,0.21-0.56,0.4
		c-0.04,0.11-0.05,0.22-0.02,0.34c0.03,0.05,0.06,0.1,0.09,0.15c0.08,0.09,0.16,0.16,0.26,0.22c0.25,0.12,0.52,0.21,0.79,0.3
		c0.05,0.01,0.06,0.01,0.06,0.01c0.01,0,0.02,0.01,0.05,0.02c0.49,0.21,1.45,0.08,1.4,0.59c-0.07,0.67-0.91,0.25-1.42,0.32
		c-0.69,0.1-1.1,0.31-0.54,1.05c0.22,0.17,0.48,0.26,0.71,0.41c0.62,0.46,0.45,0.93,0.02,1.41c-0.6,0.67-1.36,0.75-2.18,0.54
		c-0.78-0.01-1.09,0.34-0.86,1.12c0.53,1.2,0.53,1.2-0.58,1.57c-0.65,0.13-1.32,0.04-1.98,0.08c-0.46,0.03-0.97-0.03-1.18,0.55
		c-0.03,0.48,0.33,0.75,0.6,1.07c0.45,0.48,0.12,0.68-0.3,0.84c-0.48,0.19-0.99,0.24-1.48,0.36c-0.65,0.12-1.32,0.03-1.98,0.07
		c-0.46,0.03-0.97-0.02-1.17,0.57c-0.01,0.21,0.08,0.38,0.2,0.55c0.6,0.89,0.48,1.14-0.63,1.26c-0.71,0.07-1.42-0.02-2.12,0.13
		c-0.23,0.06-0.46,0.12-0.7,0.14c-0.73,0.06-1.31,0.21-0.83,1.17c0.26,0.51-0.19,0.51-0.5,0.51c-0.96,0-1.92-0.02-2.87-0.02
		c-1.7,0.04-1.75,0.08-2.21,1.47c-0.28,0.67-0.8,0.5-1.31,0.37c-0.8-0.19-1.56-0.56-2.41-0.49c-0.37,0.11-0.64,0.34-0.81,0.68
		c-0.34,1.22-0.34,1.22-1.6,0.89c-1.22-0.33-2.57-0.62-3.55,0.29c-1.08,1-2,0.8-3.12,0.25c-1.11-0.55-2.22-0.44-3.07,0.5
		c-0.67,0.75-1.26,0.62-1.98,0.13c-0.82-0.57-1.71-0.88-2.7-0.41c-0.37,0.17-0.69,0.4-1.02,0.63c-1.11,0.79-1.11,0.79-2.04-0.22
		c-1.22-1.33-2.05-1.42-3.55-0.38c-1.58,1.09-1.58,1.09-2.76-0.35c-0.78-0.96-1.77-1.18-2.88-0.63c-0.4,0.2-0.74,0.47-1.09,0.74
		c-0.66,0.5-0.99,0.44-1.17-0.47c-0.3-1.53-1.07-1.95-2.62-1.61c-0.79,0.17-1.52,0.5-2.26,0.8c-1.16,0.47-1.26,0.4-1.3-0.88
		c-0.07-1.98-0.85-2.55-2.77-2.03c-0.35,0.1-0.68,0.24-1.02,0.34c-0.63,0.18-1.35,0.86-1.89,0.37c-0.57-0.52,0.15-1.24,0.26-1.88
		c0.09-0.28,0.16-0.55,0.26-0.83c0.13-0.51,0.37-0.99,0.41-1.52c-0.01-0.12-0.05-0.24-0.12-0.34c-0.21-0.25-0.49-0.35-0.81-0.4
		c-0.42-0.04-0.84-0.03-1.25,0.06c-0.55,0.14-1.05,0.41-1.58,0.56c-0.26,0.07-0.56,0.23-0.77-0.06c-0.16-0.22-0.02-0.46,0.06-0.68
		c0.29-0.78,0.84-1.46,0.98-2.3c-0.07-1.16-0.95-0.93-1.68-0.97c-0.56,0.04-1.09,0.24-1.65,0.24c-0.16,0-0.36,0.05-0.45-0.08
		c-0.15-0.22,0.1-0.35,0.22-0.49c0.55-0.63,1.23-1.13,1.67-1.84c0.29-1.26,0.15-1.45-1.23-1.66c-0.24-0.01-0.47,0.02-0.69,0.01
		c-0.21-0.02-0.52,0.11-0.6-0.17c-0.07-0.25,0.24-0.35,0.39-0.5c0.08-0.08,0.17-0.15,0.25-0.23c0.12-0.12,0.22-0.26,0.29-0.41
		c0.04-0.11,0.07-0.21,0.07-0.33c-0.12-0.97-0.87-1.12-1.62-1.22c-0.58-0.08-1.07-0.22-1.2-0.89c-0.33-0.2-0.67-0.17-1.01-0.02
		c-0.44,0.02-0.84,0.22-0.81,0.68c0.02,0.37,0.41,0.57,0.78,0.65c0.62,0.14,1.26,0.24,1.88,0.38s0.72,0.43,0.23,0.87
		c-0.3,0.27-0.6,0.53-0.88,0.82c-0.68,0.69-0.49,1.12,0.42,1.25c0.63,0.09,1.27,0.08,1.91,0.13c0.23,0.02,0.57,0.01,0.65,0.14
		c0.19,0.31-0.18,0.48-0.36,0.66c-0.53,0.54-1.16,1-1.62,1.58c-0.69,0.88-0.39,1.53,0.7,1.62c0.78,0.06,1.58-0.13,2.37-0.21
		c0.23-0.02,0.5-0.2,0.63,0.09c0.06,0.13-0.06,0.37-0.15,0.54c-0.34,0.68-0.76,1.32-1.03,2.02c-0.4,1.04,0.08,1.68,1.16,1.54
		c0.7-0.09,1.38-0.37,2.08-0.54c0.48-0.12,1.07-0.62,1.43-0.19c0.32,0.38-0.18,0.95-0.35,1.42c-0.38,1.1-1.43,2.35-0.55,3.32
		c0.93,1.03,2.33,0.21,3.48-0.22c2.23-0.83,2.23-0.85,2.15,1.5c-0.05,1.39,0.61,1.92,1.92,1.46c1.01-0.36,2-0.8,2.99-1.22
		c0.87-0.37,1.33-0.22,1.4,0.84c0.18,2.35,0.84,2.63,2.79,1.28c0.42-0.29,0.89-0.53,1.34-0.79c0.5-0.29,0.9-0.17,1.24,0.29
		c0.68,0.94,1.34,1.92,2.71,1.91c0.35,0,0.36,0.38,0.45,0.63c0.72,1.91,1.46,3.8,2.13,5.73c0.96,2.72,2.2,5.41,1.13,8.43
		c-0.22,0.62-0.05,1.42,0.52,1.88c1.45,1.2,1.85,2.84,2.09,4.57c0.46,3.35,0.29,6.69,0,10.04c-0.23,2.59,0.24,5.23-0.54,7.8
		c-0.14,0.48,0.03,1.14,0.25,1.63c0.54,1.2,0.37,2.26-0.15,3.43c-0.83,1.89-1.4,3.92-0.4,5.91c0.8,1.59,1.42,3.28,2.67,4.65
		c1.27,1.39,3.24,1.23,4.01-0.47c0.51-1.13,0.59-2.33,0.54-3.52c-0.12-2.81,0.68-5.01,3-6.89c3.36-2.71,3.23-3.34-0.08-6.07
		c-0.68-0.56-1.83-1.42-1.48-1.96c0.56-0.87-0.42-1.72,0.35-2.37c0.12-0.15,0.08-0.36,0.2-0.5c0.25-0.17,0.02-0.53,0.26-0.7
		c1.01-2.6,2.11-5.18,2.23-8.03c0.01-0.31,0.09-0.56,0.44-0.6c3.01-0.35,5.54-1.95,8.24-3.13c2.68-1.17,5.34-2.2,7.07-4.84
		c0.54-0.82,0.65-1.72,1.14-2.51c1.27-2.05,2.98-3.69,5.01-4.9c3.96-2.38,7.44-5.31,10.71-8.54c1.96-1.94,4.08-3.72,5.31-6.27
		C538.54,288.54,537.77,286.81,534.14,285.8z M523.32,292.85c-1.58,1.64-3.22,3.22-5.05,4.59c-1.43,1.07-2.03,2.74-2.81,4.26
		c-0.89,1.75-1.72,3.52-3.16,4.91c-0.82,0.79-1.62,1.35-2.83,0.72c-0.51-0.26-1.17-0.23-1.51-0.29c-2.34-0.02-3.51,0.97-3.83,3.07
		c-0.09,0.59-0.14,1.19-0.17,1.79c-0.11,2.51-1.06,4.46-3.47,5.56c-0.74,0.33-1.38,0.87-2.07,1.31c-0.31-0.77-0.46-1.66-0.95-2.28
		c-2.29-2.95-1.63-5.96-0.45-9.07c1.08-2.83,2.28-5.66,1.93-8.81c-0.01-0.11,0.03-0.23,0.05-0.34c1.41,0.23,1.53-1.17,2.28-1.75
		c0.97-0.75,1.98,0.14,2.92,0.47c1.85,0.64,2.13,0.54,2.43-1.38c0.11-0.68,0.43-0.51,0.83-0.41c0.89,0.23,1.73,0.6,2.68,0.59
		c0.67-0.01,1.17-0.28,1.14-0.94c-0.04-1.1,0.58-1.09,1.37-1.05c3.55,0.2,6.87-1.24,10.35-1.55c0.26-0.02,0.53-0.02,0.79-0.04
		C523.63,292.42,523.5,292.66,523.32,292.85z"/>
	<path style="fill-rule:evenodd;clip-rule:evenodd;fill:#587689;" d="M491.94,332.65c-2.67,0.17-2.68,0.17-2.67-2.55
		c0.01-3.23,0.06-6.47,0.03-9.7c-0.02-1.93-0.47-3.73-2.08-5.02c-0.33-0.27-0.56-0.61-0.5-1.03c0.69-5.47-1.76-10.2-3.57-15.07
		c-0.4-1.07-0.37-1.77,0.75-2.32c1.12-0.56,1.5,0.25,1.98,0.91c0.71,0.97,1.52,1.43,2.6,0.52c1.84-1.56,1.83-1.56,3.94-0.24
		c0.12,0.26,0.17,0.55,0.09,0.82c-0.69,2.39-0.38,4.85-0.41,7.27c-0.02,1.33-0.15,2.63-0.44,3.92c-0.76,3.28-0.15,6.41,1.84,8.99
		c1.85,2.4,2.02,4.44,0.07,6.72C491.87,327.85,491.64,330.2,491.94,332.65z"/>
	<path style="fill-rule:evenodd;clip-rule:evenodd;fill:#587689;" d="M526.51,287.79c-0.82-1.17-0.01-1.1,0.86-1.54
		c2.67-1.32,5.02-0.13,7.46,0.54c1.35,0.37,1.96,1.25,1.81,2.68c-0.22,2.03-1.1,3.73-2.46,5.21c-1.65,1.8-3.65,3.23-5.36,4.94
		c-2.68,2.66-5.7,4.8-8.82,6.85c-1.39,0.92-2.37,0.23-3.5-0.39c-1.01-0.56-1.23-1.39-1-2.43c0.42,0.45,0.42,0.37,1.09,0.11
		c2.06-0.82,3.51-2.31,4.7-4.11c1.03-1.56,2.47-2.58,4.19-3.25c0.6-0.23,1.18-0.5,1.73-0.81c2.53-1.43,2.82-4.06,0.71-6.05
		C527.4,289.03,526.46,288.8,526.51,287.79z"/>
	<path style="fill-rule:evenodd;clip-rule:evenodd;fill:#4F6777;" d="M491.94,332.65c-1.03-0.94-0.37-2.11-0.37-3.16
		c-0.01-1.91,1.34-3.26,2.26-4.77c1.32-2.17,1.38-2.62-0.14-4.56c-1.88-2.38-3.17-5.19-2.58-8.06c0.95-4.63-0.14-9.4,1.31-13.94
		c0.25,0.08,0.5,0.16,0.74,0.23c0.09,0.07,0.18,0.13,0.28,0.19c0.06-0.01,0.12,0,0.18,0.01c0.09-0.06,0.18-0.13,0.27-0.19
		c0.08-0.02,0.16-0.05,0.23-0.07c0.37,0.39,0.21,0.83,0.09,1.24c-0.38,1.32-0.5,2.67-0.45,4.03c0.11,2.77-0.28,5.48-0.75,8.21
		c-0.45,2.61,0.43,5.14,2.09,7.16c2.75,3.35,1.94,4.69-0.01,7.16c-1.15,1.45-1.7,3.05-1.57,4.89c0.03,0.47,0.13,0.96-0.12,1.41
		C492.91,332.51,492.43,332.58,491.94,332.65z"/>
	<path style="fill-rule:evenodd;clip-rule:evenodd;fill:#C51980;" d="M489.53,296.67c-0.1,0.07-0.2,0.13-0.29,0.22
		c-1.27,1.26-2.32,1.56-3.52-0.26c-0.83-1.25-1.99-0.46-2.91,0.24c-1.66,1.26-1.67,1.29-2.81-0.42c-0.75-1.13-1.69-1.23-2.78-0.63
		c-0.41,0.23-0.77,0.57-1.16,0.84c-0.31,0.21-0.59,0.64-1.04,0.43c-0.42-0.2-0.36-0.67-0.38-1.06c-0.11-1.56-0.61-1.92-2.17-1.61
		c-1.07,0.21-2.02,0.72-3.01,1.15c-0.72,0.31-1.11,0.14-0.99-0.67c0.4-2.86-0.28-3.43-3.55-2.17c-0.74,0.29-1.68,1.09-2.28,0.39
		c-0.54-0.65,0.1-1.64,0.48-2.43c0.23-0.27,0.3-0.64,0.48-0.94c0.12-0.06,0.24-0.06,0.35,0.01c0.72,0.93,1.82,1.14,2.85,1.36
		c6.11,1.28,12.2,2.71,18.4,3.55c1.27,0.17,2.5,0.52,3.6,1.2C489.12,296.03,489.58,296.14,489.53,296.67z"/>
	<path style="fill-rule:evenodd;clip-rule:evenodd;fill:#C5629B;" d="M528.18,275.62c0.65,0.08,1.3,0.16,1.95,0.24
		c0.38,0.45,0.23,0.9-0.01,1.34c-0.08,0.02-0.16,0.03-0.24,0.05c-0.12,0.14-0.34,0.08-0.45,0.24c-0.03,0.08-0.04,0.15-0.04,0.24
		c-1.34,2.62-3.49,4.4-5.99,5.85c-2.66,1.54-4.95,3.63-7.59,5.2c-3.39,2.02-6.8,4.01-10.67,5.04c-1.82,0.48-3.7,0.55-5.55,0.79
		c-2.21,0.28-4.46,0.13-6.67,0.46c-0.69,0.1-1.38-0.04-2-0.26c-2-0.69-4.05-1.18-6.1-1.69c-0.63-0.15-1.28-0.44-0.8-1.33
		c0.09-0.03,0.18-0.06,0.27-0.09c0.09,0.04,0.17,0.02,0.21-0.08l-0.01,0.02c0.11-0.05,0.18-0.15,0.26-0.24
		c0.08-0.07,0.17-0.14,0.26-0.21c1.9,0.88,3.98,1.17,5.94,1.83c1.26,0.43,2.53,0.24,3.8,0.21c2.55-0.07,5.1-0.16,7.64-0.53
		c3.92-0.57,7.37-2.31,10.73-4.29c4.07-2.39,7.72-5.41,11.74-7.88c1.19-0.73,1.85-1.97,2.52-3.15c0.25-0.43,0.25-0.82-0.24-1.13
		c-0.29-0.19-0.64-0.41-0.37-0.86c0.24,0.06,0.48,0.12,0.72,0.18C527.7,275.75,527.94,275.7,528.18,275.62z"/>
	<path style="fill-rule:evenodd;clip-rule:evenodd;fill:#FBF8EA;" d="M509.54,308.87c-0.23,1.31-0.79,2.5-1.35,3.7
		c-0.84,1.77-1.74,3.52-1.56,5.57c0.03,0.38-0.13,0.58-0.45,0.74c-1.97,0.96-3.93,1.96-6.08,2.49c-0.39,0.09-0.87,0.38-1.21-0.11
		c-0.34-0.5,0.02-0.9,0.25-1.32c0.49-0.88,1.37-1.34,2.16-1.86c2.48-1.63,3.91-3.82,3.91-6.86c0-0.59,0.14-1.19,0.31-1.76
		c0.5-1.71,2.08-2.28,3.66-1.36C509.49,308.29,509.67,308.49,509.54,308.87z"/>
	<path style="fill-rule:evenodd;clip-rule:evenodd;fill:#FAF7E9;" d="M488.02,347.24c-0.18-0.59,0.22-0.52,0.56-0.66
		c3.55-1.45,6.45-3.58,7.56-7.5c0.13-0.45,0.06-0.95,0.14-1.42c0.07-0.42-0.47-0.99-0.05-1.17s0.83,0.38,1.14,0.72
		c0.45,0.5,0.83,1.07,1.27,1.58c0.37,0.42,0.28,0.71-0.05,1.13c-1.03,1.28-2.15,2.45-3.3,3.62c-1.43,1.46-2.36,3.09-1.87,5.31
		c0.29,1.33,0.06,2.7-0.54,3.97c-0.4,0.85-1.13,0.9-1.65,0.38C489.58,351.54,488.33,349.6,488.02,347.24z"/>
	<path style="fill-rule:evenodd;clip-rule:evenodd;fill:#C5629B;" d="M477.87,290.9c0.79,0.18,1.54,0.07,2.07-0.58
		c0.9-1.11,1.62-0.85,2.32,0.21c0.24,0.36,0.58,0.65,0.87,0.97c0.07,0.01,0.13,0.05,0.16,0.12c0.15,0.05,0.31,0.1,0.46,0.14
		c-0.09,0.64-0.55,0.84-1.1,0.9c-0.51,0.05-1.04,0.07-1.55-0.04c-4.17-0.95-8.42-1.55-12.54-2.75c-1.59-0.46-3.28-0.62-4.73-1.53
		c-0.21-0.14-0.43-0.28-0.65-0.42c-1.2-1.31-1.58-3.03-2.21-4.6c-0.93-2.29-2.3-4.15-4.45-5.41c-0.43-0.25-0.91-0.51-1.03-1.08
		c0.23-0.03,0.45-0.07,0.68-0.1c0.06-0.05,0.13-0.09,0.21-0.1c0.1-0.02,0.2-0.04,0.31-0.06c0.08,0.05,0.15,0.04,0.22-0.02
		c0.15-0.02,0.3-0.04,0.46-0.06c0.06-0.05,0.13-0.08,0.21-0.09c0.11-0.02,0.22-0.04,0.33-0.05c0.4,0.05,0.8,0.16,1.18-0.08
		c1.28-0.31,2.55-0.33,3.83,0c0.39,0.23,0.79,0.14,1.19,0.06c0.17,0.05,0.34,0.1,0.52,0.15c0.05,0.09,0.11,0.18,0.17,0.27
		c-0.14,0.47-0.5,0.72-0.91,0.92c-1.36-1.01-2.86-0.96-4.41-0.57c-0.41,0.1-0.45,0.3-0.15,0.56c2.3,1.93,3.22,4.69,4.36,7.31
		c0.63,1.44,1.63,2.42,3.15,2.88c0.84,0.25,1.68,0.49,2.55,0.62c1.6,0.24,1.92-0.05,1.54-1.59c-0.13-0.52,0.08-0.61,0.4-0.76
		c0.17-0.06,0.34-0.11,0.5-0.17c0.15,0.07,0.3,0.07,0.45,0c0.31,0.1,0.23,0.27,0.06,0.44c-0.19,0.11-0.19,0.27-0.1,0.44
		c-0.04,0.09-0.08,0.19-0.11,0.28c-0.21,0.11-0.22,0.27-0.1,0.45c-0.06,0.46-0.12,0.91-0.18,1.37c0.02,0.11,0.09,0.15,0.2,0.14
		c0.17,0.06,0.33,0.13,0.5,0.19c0.32,0.16,0.64,0.2,0.95-0.03c0.09-0.04,0.19-0.09,0.28-0.13c0.16,0.04,0.32,0.05,0.44-0.1
		c0.09-0.05,0.18-0.11,0.27-0.16c0.09,0.03,0.16,0.01,0.22-0.06c0.04-0.05,0.08-0.07,0.14-0.04c0.19-0.08,0.42-0.05,0.57-0.22
		c0.09-0.05,0.19-0.1,0.28-0.15c0.3,0.1,0.65-0.05,0.94,0.14l0.01,0c0.13,0.13,0,0.4,0.24,0.48c0.06,0.17,0.12,0.34,0.18,0.51
		c-0.11,0.19-0.09,0.34,0.13,0.44c0.04,0.09,0.08,0.18,0.12,0.27c-0.05,0.1-0.03,0.17,0.08,0.2l-0.03,0
		c0.05,0.12,0.14,0.2,0.24,0.26l-0.01-0.01C477.64,290.78,477.74,290.86,477.87,290.9z"/>
	<path style="fill-rule:evenodd;clip-rule:evenodd;fill:#465663;" d="M493.39,332.43c-0.63-2.44-0.18-4.62,1.43-6.59
		c0.58-0.7,1.17-1.45,1.52-2.27c0.58-1.37-0.06-2.55-0.93-3.6c-2.39-2.88-3.5-6.09-2.49-9.84c0.62-2.26,0.54-4.58,0.44-6.88
		c-0.07-1.71,0.44-3.29,0.74-4.93c1.8-2.06,2.11-2.12,3.36-0.68c0.06,0.18-0.02,0.32-0.17,0.39c-2.29,1.19-2.41,3.38-2.26,5.49
		c0.19,2.59-0.1,5.04-0.78,7.54c-0.81,2.98,0.33,5.64,2.16,7.99c0.58,0.75,1.31,1.37,1.51,2.35c0,0.8,0,1.6,0,2.4
		c-0.36,0.94-0.96,1.76-1.65,2.46c-1.17,1.19-1.66,2.58-1.61,4.23c0.02,0.68,0.25,1.48-0.56,1.94
		C493.88,332.43,493.64,332.43,493.39,332.43z"/>
	<path style="fill-rule:evenodd;clip-rule:evenodd;fill:#C43186;" d="M489.53,296.67c-2.19-1.6-4.81-1.71-7.33-2.14
		c-3.56-0.62-7.12-1.18-10.63-2.04c-2.08-0.51-4.16-1.02-6.26-1.43c-0.85-0.17-1.33-0.59-1.64-1.33c-0.03-0.43,0.06-0.95,0.6-0.65
		c1.83,1,3.88,1.16,5.83,1.68c3.81,1.01,7.7,1.69,11.58,2.37c2.16,0.38,4.32,0.64,6.42,1.3c0.15,0.05-0.01-0.05,0.11,0.03
		c2.57,1.72,5.33,1.08,8.08,0.72c1.34-0.18,2.69-0.3,4.04-0.26c1.61,0.05,3.18-0.15,4.72-0.6c0.45-0.13,0.86-0.17,0.6,0.52
		c0.14,1.3-0.04,1.88-1.63,1.25c-1.5-0.6-3.23-0.91-4.35,0.92c-0.23,0.37-0.53,0.28-0.83,0.16c-0.55-0.22-1.13-0.4-1.65-0.68
		c-1.06-0.58-2.09-0.48-2.81,0.42c-0.82,1.04-1.54,0.88-2.41,0.18C491.24,296.5,490.44,296.3,489.53,296.67z"/>
	<path style="fill-rule:evenodd;clip-rule:evenodd;fill:#3C4852;" d="M497.94,321.4c-0.46-0.59-0.89-1.2-1.38-1.75
		c-2.51-2.84-3.6-5.99-2.33-9.75c0.68-2.02,0.78-4.11,0.43-6.22c-0.45-2.77,0.68-5.15,2.82-6.03c1.13,1.46,0.7,3.04,0.25,4.55
		c-0.79,2.68-1.69,5.32-2.56,7.97c-0.65,1.96-0.44,3.75,0.83,5.42C497.31,317.29,497.7,319.33,497.94,321.4z"/>
	<path style="fill-rule:evenodd;clip-rule:evenodd;fill:#4E6576;" d="M526.51,287.79c0.42,0.82,1.3,1.14,1.91,1.77
		c1.97,2.03,1.55,4.95-0.96,6.28c-0.63,0.33-1.29,0.64-1.96,0.88c-2.29,0.8-3.66,2.6-4.96,4.48c-1.09,1.58-2.74,2.38-4.39,3.16
		c-0.7,0.33-0.26-0.62-0.65-0.69c0.07-0.25,0.15-0.49,0.22-0.73c1.91-1.17,3.3-2.83,4.51-4.68c0.84-1.27,2.16-1.98,3.54-2.54
		c0.89-0.36,1.77-0.72,2.55-1.29c1.52-1.11,1.68-2.44,0.44-3.86c-0.32-0.36-0.68-0.67-1.03-1c-0.29-0.28-0.59-0.56-0.42-1.03
		C525.73,288.29,526.12,288.04,526.51,287.79z"/>
	<path style="fill-rule:evenodd;clip-rule:evenodd;fill:#C55293;" d="M463.84,288.35c0.13-0.07,0.3-0.24,0.38-0.2
		c4,1.77,8.31,2.38,12.53,3.25c1.74,0.36,3.46,1,5.29,0.99c0.68,0,1.24-0.13,1.72-0.61c0.09,0,0.18,0.01,0.27,0.01
		c-0.03,0.49,0.13,0.88,0.65,0.99c2.18,0.46,4.3,1.08,6.43,1.72c1.98,0.6,4.03-0.04,6.05-0.03c1.93,0,3.85-0.48,5.79-0.63
		c3.53-0.28,6.56-1.91,9.58-3.51c4.68-2.49,8.79-5.86,13.22-8.75c1.35-0.88,2.45-2.08,3.01-3.62c0.19-0.52,0.34-0.38,0.63-0.23
		l0.01,0.02c0.07,0.1,0.1,0.2,0.1,0.32c0.06,0.84-0.42,1.43-0.92,2c-1.07,1.21-2.3,2.22-3.66,3.08c-3.85,2.44-7.41,5.31-11.42,7.5
		c-2.21,1.21-4.52,2.21-6.76,3.36c-0.19,0.03-0.38,0.03-0.57,0.06c-2.84,0.72-5.73,0.93-8.66,0.98c-1.34,0.02-2.71,0.21-4.04,0.39
		c-1.12,0.15-2.19,0.1-3.18-0.29c-3.07-1.21-6.3-1.69-9.53-2.2c-4.57-0.72-9.07-1.78-13.54-2.96c-0.58-0.15-1.17-0.26-1.75-0.41
		c-0.67-0.18-1.27-0.47-1.66-1.08C463.8,288.45,463.81,288.4,463.84,288.35z"/>
	<path style="fill-rule:evenodd;clip-rule:evenodd;fill:#C53386;" d="M517.23,291.19c-0.31,0.06-0.62,0.12-0.93,0.17
		c-0.26,0.05-0.62-0.11-0.74,0.22c-0.12,0.33,0.24,0.44,0.45,0.61c0.18,0.15,0.43,0.28,0.32,0.57c-0.13,0.35-0.46,0.45-0.78,0.44
		c-1.07-0.04-2.14-0.11-3.21-0.17c-0.57-0.14-1.16-0.04-1.73-0.05c-0.12-0.04-0.2-0.11-0.24-0.23c0.18-0.75,0.9-0.88,1.43-1.15
		c5.5-2.73,10.28-6.55,15.31-10c1.17-0.8,2.15-1.79,2.64-3.16c0.11-0.32,0.3-0.46,0.63-0.24c0.35,0.05,0.72,0.05,1.05,0.15
		c0.49,0.15,1.35,0.08,1.24,0.79c-0.12,0.76-0.95,0.59-1.57,0.64c-0.37,0.03-1.35-0.83-0.96,0.55c-0.01,0.05-0.01,0.09-0.02,0.14
		c0.04,0.09,0.08,0.18,0.12,0.27c0.02,0.1,0.02,0.2-0.01,0.3c-0.33,0.66-0.82,1.19-1.47,1.5c-0.39,0.19,0.12,0.36-0.08,0.49
		c-0.8-0.12-1.04,0.19-0.7,0.93c-0.67-0.18-1.25-0.1-1.8,0.41c-0.67,0.62-1.52,1-2.28,1.5c-1.05,0.92-2.21,1.68-3.37,2.45
		c-0.09,0.06-0.2,0.08-0.32,0.03c0.12,0.06,0.23,0.01,0.34-0.01c0.89-0.17,1.79-0.38,2.64,0.18c-0.78,0.4-1.64,0.15-2.45,0.26
		c-0.33,0.04-0.87-0.26-0.86,0.45c-1.46,0.11-2.46,1.18-3.7,1.75c-0.09,0.04-0.15,0.04-0.2-0.05c0.07,0.19,0.19,0.06,0.28,0.04
		C516.63,290.88,516.97,290.84,517.23,291.19z"/>
	<path style="fill-rule:evenodd;clip-rule:evenodd;fill:#587689;" d="M507.58,317.44c0.25-1.93,0.99-3.57,1.69-5.22
		c0.41-0.95,0.96-1.88,1.17-2.87c0.28-1.29,1.5-1.16,2.23-1.73c0.33-0.25,0.22,0.26,0.19,0.42c-0.12,0.78-0.29,1.56-0.4,2.35
		c-0.15,1.03-0.4,2.13,0.17,3.04c0.67,1.09,0.26,1.72-0.53,2.42c-1.1,0.98-2.42,1.51-3.75,2.04
		C507.7,318.17,507.56,317.87,507.58,317.44z"/>
	<path style="fill-rule:evenodd;clip-rule:evenodd;fill:#C64E92;" d="M463.83,288.5c3.04,1.35,6.34,1.79,9.51,2.66
		c4.83,1.33,9.87,1.61,14.71,2.88c1.04,0.27,2.03,0.84,3.07,0.93c3.65,0.3,7.27-0.17,10.89-0.54c1.46-0.15,2.9-0.41,4.36-0.62
		c0.14,0.16,0.14,0.32,0.02,0.49c-0.24,0.18-0.49,0.36-0.73,0.55c-0.58-0.73-1.11,0.12-1.68,0.07c-0.36-0.03-0.75,0.32-1.13,0.31
		c-3.81-0.07-7.58,0.34-11.34,0.91c-0.4,0.06-0.94-0.04-1.25-0.27c-2.15-1.6-4.75-1.84-7.21-2.22c-4.04-0.63-8.03-1.45-12.02-2.29
		c-1.78-0.38-3.54-0.86-5.32-1.29c-0.54-0.13-1.07-0.21-1.5-0.64c-0.5-0.51-0.37,0.19-0.53,0.33c-0.01,0.08-0.02,0.15-0.03,0.23
		c-0.07,0.1-0.16,0.1-0.24,0.02C463.54,289.48,463.68,288.99,463.83,288.5z"/>
	<path style="fill-rule:evenodd;clip-rule:evenodd;fill:#43525E;" d="M525.33,288.54c0.14,0.5,0.58,0.73,0.93,1.05
		c2.51,2.29,2.32,4.62-0.87,5.73c-3.22,1.12-5.17,3.37-7.04,5.91c-0.64,0.87-1.52,1.48-2.62,1.69c1.13-3.03,3.45-5.11,5.73-7.22
		c0.94-0.62,2.02-0.91,3.03-1.35c2.04-0.9,2.24-2.47,0.54-3.95c-0.45-0.39-1.15-0.6-1.13-1.39
		C524.37,288.85,524.85,288.7,525.33,288.54z"/>
	<path style="fill-rule:evenodd;clip-rule:evenodd;fill:#C64E92;" d="M530.38,278.2c-2.07,4.21-6.48,5.68-9.84,8.37
		c-2.96,2.37-6.3,4.17-9.69,5.86c-0.16,0.08-0.27,0.27-0.41,0.41c-0.58,0.84-1.53,1.08-2.4,1.4c-0.41,0.15-0.96,0.15-1.2-0.44
		c0.48-0.74,1.33-0.8,2.03-1.14c4.15-2.02,8.15-4.29,11.85-7.08c2.43-1.84,5.23-3.17,7.36-5.43c0.61-0.65,1.1-1.33,1.32-2.19
		c0.09-0.09,0.18-0.08,0.27,0C529.91,278.04,530.14,278.12,530.38,278.2z"/>
	<path style="fill-rule:evenodd;clip-rule:evenodd;fill:#C55293;" d="M455.5,276.84c3.57,1.84,5.53,4.94,6.69,8.64
		c0.24,0.76,0.49,1.51,1.14,2.04c0.34,0.27-0.09,0.28-0.14,0.41c-0.5,0.04-0.99,0.09-1.49,0.13c-0.17-0.13,0.21-0.3,0.01-0.36
		c-0.9-0.3-1.28-0.99-1.14-1.82c0.09-0.58-0.3-0.05-0.32-0.22c0.24-1.63-1.04-0.79-1.66-1.02c0.01-0.38,0.33-0.33,0.57-0.44
		c0.49-0.21-0.06-0.33-0.09-0.49c-0.05-0.25-0.24-0.49-0.32-0.75c-0.08-0.27-0.21-0.5-0.45-0.66c0.83-1.42-0.15-1.46-1.14-1.5
		c0.16-0.59-0.03-1.13-0.27-1.66c-0.13-1.63-1.55-0.99-2.4-1.34c-0.51-0.21-1.06-0.23-0.2-0.74
		C454.7,276.99,455.1,276.91,455.5,276.84z"/>
	<path style="fill-rule:evenodd;clip-rule:evenodd;fill:#3B454E;" d="M523.89,289.01c0.59,0.81,1.62,1.12,2.16,2.02
		c0.79,1.31,0.66,2.52-0.69,3.26c-1.21,0.66-2.51,1.18-3.9,1.41c0.86-1.12,1.93-2,3.06-2.81c0.46-0.33,1.11-0.73,0.86-1.26
		c-0.24-0.52-1.01-0.24-1.53-0.17c-2,0.26-3.95,0.9-5.99,0.89c-0.33,0-0.91,0.15-0.91-0.26c0-0.41,0.57-0.18,0.88-0.21
		c1.03-0.1,2.06-0.23,3-0.67c0.53-0.25,1.15-0.53,0.68-1.34c-0.33-0.56,0.13-0.58,0.49-0.63
		C522.63,289.16,523.26,289.09,523.89,289.01z"/>
	<path style="fill-rule:evenodd;clip-rule:evenodd;fill:#577588;" d="M493.52,334.37c0.68,0.02,1.39-0.16,0.81,0.76
		c-0.06,0.09,0.18,0.4,0.32,0.58c0.49,0.68,0.63,1.5,0.6,2.27c-0.03,0.76,0.07,1.83-0.62,2.18c-0.57,0.29-1.05-0.67-1.55-1.08
		c-1.2-1-2.17-2.21-2.96-3.56c-0.38-0.64-0.41-1.02,0.52-0.98C491.66,334.58,492.7,334.6,493.52,334.37z"/>
	<path style="fill-rule:evenodd;clip-rule:evenodd;fill:#577588;" d="M487.84,345.35c0.01-0.76,0.22-1.34,0.55-1.83
		c0.97-1.44,1.26-2.91,0.36-4.49c-0.16-0.28-0.33-0.73-0.06-0.88c0.35-0.19,0.48,0.29,0.64,0.54c0.85,1.36,1.76,2.67,3.16,3.54
		c0.43,0.26,0.56,0.54,0.13,0.93c-1.16,1.04-2.33,2.06-3.78,2.7C488.14,346.16,487.74,346.08,487.84,345.35z"/>
	<path style="fill-rule:evenodd;clip-rule:evenodd;fill:#3D4852;" d="M494.12,332.43c0.44-0.83,0.22-1.72,0.23-2.58
		c0.02-1.38,0.48-2.53,1.44-3.53c0.76-0.8,1.43-1.67,2.15-2.51c-0.28,2.89-1.4,5.52-2.6,8.12
		C495.08,332.47,494.61,332.47,494.12,332.43z"/>
	<path style="fill-rule:evenodd;clip-rule:evenodd;fill:#C3197F;" d="M523.19,288.53c-0.44,0-0.87,0.02-1.31-0.01
		c-0.6-0.05-1.22,0.17-1.81-0.12c0.48-0.4,0.93-0.82,1.43-1.18c0.77-0.55,1.58-1.05,2.37-1.57c0.04,0.04,0.07,0.07,0.11,0.11
		c0.05,0.2-0.02,0.41,0.04,0.61c0.22,0.29,0.5,0.51,0.8,0.71c0.72,0.29,0.96,0.63,0.07,1.03
		C524.36,288.34,523.81,288.58,523.19,288.53z"/>
	<path style="fill-rule:evenodd;clip-rule:evenodd;fill:#BF207E;" d="M517.23,291.19c-0.57-0.04-1.14-0.08-1.71-0.12
		c0.45-0.28,0.89-0.57,1.34-0.84c0.64-0.38,1.36-0.67,1.92-1.14c0.51-0.42,0.76-0.07,1.1,0.14c0.36,0.37,1.18,0.5,0.98,1.15
		c-0.19,0.6-0.9,0.72-1.5,0.76C518.66,291.19,517.94,291.18,517.23,291.19z"/>
	<path style="fill-rule:evenodd;clip-rule:evenodd;fill:#BF1E7E;" d="M523.88,285.64c0.97-0.91,2.23-1.42,3.19-2.38
		c0.48-0.48,0.36,0.76,0.91,0.7c0.53,0.75,1.28,1.56-0.46,1.69C526.31,285.82,525.09,285.83,523.88,285.64L523.88,285.64z"/>
	<path style="fill-rule:evenodd;clip-rule:evenodd;fill:#BD3182;" d="M460.26,285.65c0.23-0.24,0.45-0.48,0.68-0.71
		c-0.06,0.31-0.15,0.61-0.16,0.92c-0.02,0.74,0.32,1.43,0.97,1.63c1.19,0.36-0.33,0.39-0.03,0.58c-0.84,0.4-2,1.25-2.57,0.69
		c-0.72-0.71,0.45-1.64,0.75-2.5C459.97,286.04,460.13,285.85,460.26,285.65z"/>
	<path style="fill-rule:evenodd;clip-rule:evenodd;fill:#C12180;" d="M458.31,282.3c0.14,0.26,0.77-1.08,0.62,0.2
		c-0.03,0.24,0.12,0.57,0.29,0.75c0.99,1.01,0.43,1.3-0.62,1.39c-0.79,0.28-1.96,0.7-2.32,0.14c-0.42-0.67,0.75-1.19,1.24-1.76
		C457.75,282.74,458.04,282.53,458.31,282.3z"/>
	<path style="fill-rule:evenodd;clip-rule:evenodd;fill:#F3F3F3;" d="M493.86,341.26c-0.14,0.37-0.37,0.44-0.75,0.31
		c-1.29-0.46-3.88-3.99-3.92-5.36c0-0.1,0.04-0.2,0.06-0.3c0.07,0.04,0.17,0.05,0.21,0.11c1.19,1.89,2.64,3.56,4.32,5.03
		C493.83,341.09,493.83,341.19,493.86,341.26z"/>
	<path style="fill-rule:evenodd;clip-rule:evenodd;fill:#C11C7F;" d="M528.69,283.03c0.06-0.22-1.37-0.21-0.06-0.7
		c0.64-0.24,1.32-0.88,1.49-1.73c0.25-0.17,0.51-0.15,0.77-0.01c0.97,0.6,0.93,1.34-0.15,2.13
		C530.13,283.16,529.47,283.52,528.69,283.03z"/>
	<path style="fill-rule:evenodd;clip-rule:evenodd;fill:#C43186;" d="M506.84,293.8c1.48,0.74,2.36-0.79,3.6-0.96l0,0
		c-0.1,0.57-0.06,1.15-0.24,1.71c0.01,0.68-0.39,0.65-0.87,0.51c-0.98-0.27-1.97-0.52-2.95-0.77c-0.01-0.16-0.01-0.33-0.02-0.49
		C506.52,293.8,506.68,293.8,506.84,293.8z"/>
	<path style="fill-rule:evenodd;clip-rule:evenodd;fill:#576E7D;" d="M514.82,310.17c0.5-0.54-0.47-1.79,0.86-1.93
		c0.31-0.03,1.24,0.06,1.04,0.63c-0.29,0.81-0.91,1.56-1.69,2.03C514.87,311.01,514.8,310.5,514.82,310.17z"/>
	<path style="fill-rule:evenodd;clip-rule:evenodd;fill:#E8E6D9;" d="M517.24,307.95c-1.32-0.08-1.76-1.23-2.7-1.62
		c-0.17-0.07-0.19-0.45,0-0.65c0.19-0.2,0.35-0.01,0.5,0.1c0.75,0.52,1.51,1.03,2.26,1.55c0.18,0.13,0.52,0.21,0.38,0.49
		C517.61,307.95,517.27,307.95,517.24,307.95z"/>
	<path style="fill-rule:evenodd;clip-rule:evenodd;fill:#B44D88;" d="M530.11,277.2c0-0.45,0.01-0.9,0.01-1.34
		c0.16-0.02,0.32-0.04,0.48-0.07c0.15-0.11,0.29-0.15,0.41,0.05c0.6,0.39,1.38,0.01,1.96,0.47
		C532.14,277.01,531.09,276.98,530.11,277.2z"/>
	<path style="fill-rule:evenodd;clip-rule:evenodd;fill:#BF2D82;" d="M456.89,279.15c0.21,0.53,1.63,0.87,0.27,1.66
		c-0.61,0.03-1.52,0.38-1.73-0.16c-0.23-0.62,0.75-0.84,1.2-1.24c0.1-0.07,0.21-0.14,0.28-0.25L456.89,279.15z"/>
	<path style="fill-rule:evenodd;clip-rule:evenodd;fill:#FCFCFC;" d="M514.02,310.83c-0.03,0.53-0.03,1.01-0.08,1.48
		c-0.03,0.28,0.09,0.77-0.29,0.76c-0.27,0-0.32-0.5-0.33-0.82c-0.01-0.44-0.06-0.88,0.02-1.31c0.12-0.69,0.07-1.42,0.48-2.04
		C514.28,309.52,513.87,310.22,514.02,310.83z"/>
	<path style="fill-rule:evenodd;clip-rule:evenodd;fill:#EBEBEB;" d="M491.01,333.44c1.05-0.1,2.1-0.2,3.15-0.28
		c0.21-0.02,0.52-0.11,0.49,0.28c-0.03,0.25-0.27,0.24-0.46,0.24c-0.33,0.17-0.71-0.01-1.03,0.17c-0.48,0-0.96,0-1.44,0
		C491.55,333.59,490.99,334.03,491.01,333.44z"/>
	<path style="fill-rule:evenodd;clip-rule:evenodd;fill:#C53386;" d="M523.88,285.64c1.21,0,2.43,0.01,3.65,0.01
		c-0.78,0.39-1.62,0.11-2.42,0.2c-0.38,0.05-0.93-0.19-0.96,0.51c-0.09,0.1-0.18,0.1-0.26,0
		C523.88,286.12,523.88,285.88,523.88,285.64z"/>
	<path style="fill-rule:evenodd;clip-rule:evenodd;fill:#C64E92;" d="M510.2,294.55c0.02-0.58-0.09-1.18,0.24-1.71
		c0.63,0.08,1.3-0.18,1.91,0.19C511.2,292.94,510.21,293.05,510.2,294.55z"/>
	<path style="fill-rule:evenodd;clip-rule:evenodd;fill:#CFCFCF;" d="M491.01,333.44c0.24,0.13,0.47,0.27,0.71,0.4
		c-0.23,0.01-0.47,0.05-0.7,0.02c-0.44-0.07-0.96,0.11-1.28-0.36C490.16,333.48,490.59,333.46,491.01,333.44z"/>
	<path style="fill-rule:evenodd;clip-rule:evenodd;fill:#BF1E7E;" d="M523.88,286.36c0.09,0,0.18,0,0.26,0
		c0.23,0.24,0.46,0.47,0.69,0.71C524.34,287.06,524.09,286.74,523.88,286.36z"/>
	<path style="fill-rule:evenodd;clip-rule:evenodd;fill:#C43186;" d="M463.4,289.97c0.08,0,0.16-0.01,0.24-0.02
		c-0.17,0.24-0.34,0.47-0.52,0.71C463.21,290.44,463.3,290.21,463.4,289.97z"/>
	<path style="fill-rule:evenodd;clip-rule:evenodd;fill:#CFCFCF;" d="M493.16,333.84c0.31-0.27,0.67-0.22,1.03-0.17
		C493.87,333.89,493.52,333.9,493.16,333.84z"/>
	<path style="fill-rule:evenodd;clip-rule:evenodd;fill:#C53386;" d="M530.89,280.59c-0.26,0-0.51,0.01-0.77,0.01l0,0
		c-0.08-0.06-0.09-0.13-0.02-0.21l0.05-0.06C530.39,280.42,530.64,280.5,530.89,280.59z"/>
	<path style="fill-rule:evenodd;clip-rule:evenodd;fill:#B44D88;" d="M529.42,277.48c0.15-0.08,0.3-0.16,0.45-0.24
		C529.72,277.32,529.58,277.4,529.42,277.48z"/>
	<path style="fill-rule:evenodd;clip-rule:evenodd;fill:#C5629B;" d="M529.67,277.95c-0.09,0-0.18,0-0.27,0c0-0.07,0-0.15,0-0.22
		C529.49,277.81,529.58,277.88,529.67,277.95z"/>
	<path style="fill-rule:evenodd;clip-rule:evenodd;fill:#C55293;" d="M456.92,279.15c-0.09,0.08-0.19,0.17-0.28,0.25
		C456.73,279.31,456.82,279.23,456.92,279.15z"/>
	<path style="fill-rule:evenodd;clip-rule:evenodd;fill:#465663;" d="M493.44,298.58c-0.09-0.06-0.18-0.13-0.28-0.19
		C493.25,298.46,493.34,298.52,493.44,298.58z"/>
	<path style="fill-rule:evenodd;clip-rule:evenodd;fill:#465663;" d="M493.88,298.39c-0.09,0.06-0.18,0.13-0.27,0.19
		C493.7,298.52,493.79,298.46,493.88,298.39z"/>
	<path style="fill-rule:evenodd;clip-rule:evenodd;fill:#C968A0;" d="M526.76,275.39c0.06,0.14,0.09,0.39,0.18,0.42
		c2.04,0.51,0.8,1.57,0.36,2.4c-1.13,2.14-3.17,3.26-5.13,4.49c-3.6,2.25-6.86,5.03-10.64,7.02c-3.88,2.04-7.86,3.6-12.34,3.63
		c-2.06,0.01-4.12,0.38-6.17,0.35c-2.03-0.02-3.92-0.91-5.88-1.38c-0.79-0.19-1.7-0.25-2.14-1.12c0.87-1.2,1.8-1.18,2.94-0.31
		c2,1.52,2.39,1.47,4.05-0.28c0.39-0.41,0.8-0.5,1.29-0.3c0.56,0.22,1.13,0.41,1.66,0.69c1.34,0.69,2.32,0.32,2.94-0.98
		c0.36-0.75,0.8-0.86,1.53-0.56c0.58,0.24,1.21,0.42,1.83,0.52c0.84,0.14,1.51-0.14,1.71-1.08c0.16-0.77,0.57-0.95,1.31-0.73
		c0.92,0.27,1.88,0.54,2.83,0.3c0.67-0.17,1.69-0.11,1.52-1.38c-0.07-0.53,0.46-0.29,0.72-0.28c0.98,0.03,2.27,0.09,2.71-0.61
		c0.95-1.48,2.54-1.03,3.7-1.71c0.41-0.24,1.62-0.25,0.65-1.35c-0.32-0.36,0.29-0.3,0.5-0.31c0.81-0.03,1.59-0.12,2.32-0.5
		c0.56-0.29,1.14-0.58,0.4-1.3c-0.46-0.45,0.01-0.49,0.29-0.56c1.35-0.32,2.88-0.47,1.88-2.57c-0.21-0.45,0.4-0.33,0.66-0.38
		c0.74-0.14,1.1-0.5,1.53-1.21C524.46,275.52,525.56,274.86,526.76,275.39z"/>
	<path style="fill-rule:evenodd;clip-rule:evenodd;fill:#C968A0;" d="M471.31,286.11c0,0.67-0.03,1.35,0.02,2.02
		c0.06,0.82-0.4,0.99-1.04,0.85c-1.35-0.3-2.72-0.59-4.04-0.99c-1.47-0.45-2.32-1.59-2.92-2.96c-1.18-2.73-2.07-5.64-4.7-7.46
		c-0.13-0.09-0.22-0.36-0.19-0.51c0.05-0.29,0.35-0.26,0.58-0.28c1.37-0.14,2.72-0.3,4.13-0.05c0.77,0.14,0.53,0.61,0.71,0.96
		c-0.47,0.6-1.72,0.76-1.5,1.65c0.27,1.07,1.51,0.91,2.36,0.97c1.16,0.08,1.22,0.4,0.52,1.19c-0.43,0.48-0.64,1.06-0.31,1.64
		c0.35,0.61,1,0.32,1.53,0.31c0.23,0,0.47-0.1,0.7-0.14c2.14-0.33,2.24-0.21,1.48,1.77c-0.17,0.45-0.48,0.98-0.17,1.36
		c0.36,0.44,0.96,0.19,1.46,0.08C470.41,286.39,470.86,286.24,471.31,286.11z"/>
	<path style="fill-rule:evenodd;clip-rule:evenodd;fill:#8C5A9A;" d="M477.31,287.84c0.75-0.52,1.04,0.48,1.74,0.5
		c2.95,0.06,5.88,0.44,8.84,0.48c1.56,0.02,3.1,0.46,4.68,0.2c0.44-0.07,0.77,0.16,0.83,0.65c-0.24-0.07-0.49-0.14-0.73-0.2
		c-0.15-0.12-0.31-0.12-0.46,0c-0.17,0.07-0.34,0.14-0.51,0.21c-0.1-0.02-0.17,0.03-0.2,0.12c-1.14,1.73-1.41,1.78-3.06,0.61
		c-1.81-1.29-2.26-1.29-3.93,0.17c-0.6,0.53-0.96,0.29-1.41-0.14c-1.81-1.74-1.83-1.77-3.81-0.48c-0.71,0.46-1.06,0.36-1.28-0.43
		c-0.11-0.42-0.25-0.84-0.38-1.26c0.01-0.1-0.03-0.16-0.11-0.2C477.45,287.98,477.38,287.91,477.31,287.84z"/>
	<path style="fill-rule:evenodd;clip-rule:evenodd;fill:#8C5999;" d="M493.65,289.69c1.39-0.58,3.06-0.47,4.22-1.66
		c0.3-0.31,0.81-0.47,0.99-0.82c0.74-1.44,1.7-1.4,3.05-0.84c1.38,0.57,2.89,0.8,4.35,1.16c0.6,0.15,0.9-0.39,1.3-0.68
		c0.57,1.23-0.43,1.19-1.07,1.14c-0.82-0.06-1.62-0.38-2.42-0.58c-1.01-0.25-1.82,0.02-1.97,1.11c-0.15,1.14-0.75,1.04-1.5,0.73
		c-0.48-0.19-0.93-0.46-1.41-0.63c-0.64-0.23-1.25-0.18-1.73,0.4C495.92,290.94,495.92,290.94,493.65,289.69z"/>
	<path style="fill-rule:evenodd;clip-rule:evenodd;fill:#80568F;" d="M473.44,286.3c0.13,0.14,0.39,0.33,0.36,0.42
		c-0.27,0.86,0.39,0.93,0.9,1.14c-0.57,0.29-1.27,1.04-1.74,0.48C472.51,287.79,473.17,286.98,473.44,286.3z"/>
	<path style="fill-rule:evenodd;clip-rule:evenodd;fill:#7D4F95;" d="M510.66,286.08c-1.36-0.52,0.31-0.94,0.05-1.43
		c0.15,0.17,0.3,0.34,0.46,0.51c0.08,0.08,0.15,0.18,0.26,0.24l0-0.01c0.14,0.28-0.13,0.36-0.26,0.51
		C511,285.95,510.83,286.01,510.66,286.08z"/>
	<path style="fill-rule:evenodd;clip-rule:evenodd;fill:#C968A0;" d="M459.09,276.27c-0.37,0.36-0.77,0.32-1.18,0.08
		C458.3,276.33,458.69,276.3,459.09,276.27z"/>
	<path style="fill-rule:evenodd;clip-rule:evenodd;fill:#C968A0;" d="M464.1,276.33c-0.41,0.27-0.81,0.3-1.19-0.06
		C463.31,276.29,463.71,276.31,464.1,276.33z"/>
	<path style="fill-rule:evenodd;clip-rule:evenodd;fill:#6E408C;" d="M518.39,279.81c0.36-0.3,0.79-0.15,1.19-0.15
		C519.21,279.92,518.8,279.87,518.39,279.81z"/>
	<path style="fill-rule:evenodd;clip-rule:evenodd;fill:#232322;" d="M531.02,275.84c-0.14-0.02-0.27-0.03-0.41-0.05
		c0.19-0.23,0.43-0.29,0.7-0.16C531.21,275.7,531.11,275.77,531.02,275.84z"/>
	<path style="fill-rule:evenodd;clip-rule:evenodd;fill:#C968A0;" d="M476.61,288.5c-0.32-0.01-0.65,0.11-0.94-0.14
		C476.01,288.3,476.35,288.15,476.61,288.5z"/>
	<path style="fill-rule:evenodd;clip-rule:evenodd;fill:#C968A0;" d="M473.47,289.22c-0.31,0.37-0.62,0.34-0.95,0.03
		C472.84,289.24,473.16,289.23,473.47,289.22z"/>
	<path style="fill-rule:evenodd;clip-rule:evenodd;fill:#C968A0;" d="M476.86,288.98c-0.51,0.06-0.14-0.33-0.24-0.48
		C476.85,288.58,476.86,288.78,476.86,288.98z"/>
	<path style="fill-rule:evenodd;clip-rule:evenodd;fill:#8E5A9B;" d="M511.16,285.89c0.09-0.17,0.17-0.34,0.26-0.51
		C511.88,285.83,511.48,285.84,511.16,285.89z"/>
	<path style="fill-rule:evenodd;clip-rule:evenodd;fill:#C968A0;" d="M528.18,275.62c-0.25,0.24-0.49,0.23-0.7-0.05
		C527.71,275.58,527.95,275.6,528.18,275.62z"/>
	<path style="fill-rule:evenodd;clip-rule:evenodd;fill:#C968A0;" d="M472.22,286.82c-0.2-0.2-0.15-0.35,0.1-0.44
		C472.29,286.53,472.26,286.67,472.22,286.82z"/>
	<path style="fill-rule:evenodd;clip-rule:evenodd;fill:#C968A0;" d="M472.01,287.55c-0.22-0.21-0.18-0.35,0.1-0.45
		C472.07,287.25,472.04,287.4,472.01,287.55z"/>
	<path style="fill-rule:evenodd;clip-rule:evenodd;fill:#C968A0;" d="M472.26,285.94c-0.15,0.19-0.3,0.19-0.45,0
		C471.97,285.94,472.11,285.94,472.26,285.94z"/>
	<path style="fill-rule:evenodd;clip-rule:evenodd;fill:#C968A0;" d="M474.19,288.99c-0.11,0.22-0.25,0.28-0.44,0.1
		C473.9,289.06,474.05,289.02,474.19,288.99z"/>
	<path style="fill-rule:evenodd;clip-rule:evenodd;fill:#9F69A4;" d="M492.21,289.45c0.15-0.22,0.31-0.22,0.46,0
		C492.52,289.45,492.36,289.45,492.21,289.45z"/>
	<path style="fill-rule:evenodd;clip-rule:evenodd;fill:#C968A0;" d="M475.4,288.52c-0.13,0.22-0.35,0.23-0.57,0.22
		C475.01,288.66,475.2,288.59,475.4,288.52z"/>
	<path style="fill-rule:evenodd;clip-rule:evenodd;fill:#C968A0;" d="M477.16,289.93c-0.28-0.08-0.35-0.22-0.13-0.44
		C477.08,289.64,477.12,289.79,477.16,289.93z"/>
	<path style="fill-rule:evenodd;clip-rule:evenodd;fill:#6D3E8B;" d="M465.55,277.43c-0.08,0.09-0.16,0.19-0.24,0.28
		C465.39,277.62,465.47,277.53,465.55,277.43z"/>
	<path style="fill-rule:evenodd;clip-rule:evenodd;fill:#9F69A4;" d="M477.52,288.05c0.04,0.07,0.08,0.14,0.11,0.2
		C477.57,288.2,477.54,288.13,477.52,288.05z"/>
	<path style="fill-rule:evenodd;clip-rule:evenodd;fill:#9F69A4;" d="M491.49,289.78c0.07-0.04,0.14-0.08,0.2-0.12
		C491.64,289.71,491.57,289.75,491.49,289.78z"/>
	<path style="fill-rule:evenodd;clip-rule:evenodd;fill:#C968A0;" d="M477.36,290.41c-0.05-0.04-0.1-0.08-0.14-0.12
		c0,0,0.04-0.05,0.06-0.08C477.35,290.26,477.37,290.33,477.36,290.41z"/>
	<path style="fill-rule:evenodd;clip-rule:evenodd;fill:#C968A0;" d="M477.58,290.67c-0.08-0.09-0.16-0.17-0.24-0.26
		C477.42,290.5,477.5,290.58,477.58,290.67z"/>
	<path style="fill-rule:evenodd;clip-rule:evenodd;fill:#C968A0;" d="M477.87,290.9c-0.1-0.08-0.2-0.16-0.3-0.24
		C477.67,290.74,477.77,290.82,477.87,290.9z"/>
	<path style="fill-rule:evenodd;clip-rule:evenodd;fill:#C64E92;" d="M483.29,291.62c-0.07-0.01-0.12-0.05-0.16-0.12
		C483.21,291.5,483.27,291.54,483.29,291.62z"/>
	<path style="fill-rule:evenodd;clip-rule:evenodd;fill:#C968A0;" d="M484.75,291.39c-0.08,0.08-0.17,0.16-0.26,0.24
		C484.58,291.55,484.67,291.47,484.75,291.39z"/>
	<path style="fill-rule:evenodd;clip-rule:evenodd;fill:#80568F;" d="M475.17,287.76c0.1-0.06,0.21-0.11,0.31-0.17
		C475.37,287.65,475.27,287.7,475.17,287.76z"/>
	<path style="fill-rule:evenodd;clip-rule:evenodd;fill:#8E5A9B;" d="M511.42,285.39c-0.09-0.08-0.17-0.16-0.26-0.24
		C511.25,285.24,511.33,285.31,511.42,285.39z"/>
	<path style="fill-rule:evenodd;clip-rule:evenodd;fill:#7D4E95;" d="M473.01,285.4c0.08,0,0.17,0.01,0.25,0.02
		c0.02,0.04,0.05,0.08,0.08,0.11c-0.03,0.03-0.06,0.07-0.09,0.1C473.17,285.55,473.09,285.48,473.01,285.4z"/>
	<path style="fill-rule:evenodd;clip-rule:evenodd;fill:#80568F;" d="M473.47,285.63c-0.01,0.11-0.02,0.21-0.03,0.32
		c-0.07-0.11-0.13-0.21-0.2-0.32l0.05-0.04C473.36,285.56,473.42,285.57,473.47,285.63z"/>
	<path style="fill-rule:evenodd;clip-rule:evenodd;fill:#C55293;" d="M457.58,276.4c-0.05,0.07-0.12,0.1-0.21,0.09
		C457.44,276.46,457.51,276.43,457.58,276.4z"/>
	<path style="fill-rule:evenodd;clip-rule:evenodd;fill:#C55293;" d="M456.38,276.63c-0.07,0.03-0.14,0.07-0.21,0.1
		C456.24,276.7,456.31,276.67,456.38,276.63z"/>
	<path style="fill-rule:evenodd;clip-rule:evenodd;fill:#C968A0;" d="M474.68,288.77c-0.07,0.02-0.15,0.04-0.22,0.06
		C474.52,288.77,474.6,288.76,474.68,288.77z"/>
	<path style="fill-rule:evenodd;clip-rule:evenodd;fill:#C968A0;" d="M456.91,276.56c-0.07,0-0.15,0.01-0.22,0.02
		C456.76,276.53,456.84,276.53,456.91,276.56z"/>
	<path style="fill-rule:evenodd;clip-rule:evenodd;fill:#C968A0;" d="M472.02,289.06c-0.16,0.1-0.18-0.02-0.2-0.14
		C471.89,288.97,471.96,289.01,472.02,289.06z"/>
	<path style="fill-rule:evenodd;clip-rule:evenodd;fill:#C968A0;" d="M464.78,276.75c-0.06-0.09-0.11-0.18-0.17-0.27
		C464.67,276.57,464.73,276.66,464.78,276.75z"/>
	<path style="fill-rule:evenodd;clip-rule:evenodd;fill:#C968A0;" d="M484.5,291.61c-0.07,0.03-0.14,0.05-0.21,0.08
		C484.35,291.63,484.42,291.6,484.5,291.61z"/>
	<path style="fill-rule:evenodd;clip-rule:evenodd;fill:#232322;" d="M479.22,263.85c-0.32-0.09-0.65-0.17-0.97-0.26
		C478.6,263.58,478.98,263.43,479.22,263.85z"/>
	<path style="fill-rule:evenodd;clip-rule:evenodd;fill:#242423;" d="M503.96,235.49c0.68,1.72-0.73,2.34-1.69,3.19
		c-1.28-0.03-0.13,1.12-0.7,1.44c-0.09,0.09-0.2,0.14-0.33,0.17c-0.12,0.02-0.24,0.03-0.37,0.02c-1.12-0.32-2.22-0.58-3.34,0.03
		c-0.35,0.19-0.79,0.23-0.97-0.31c0.94-0.89,0.42-1.21-0.53-1.36c-0.09,0.04-0.19,0.06-0.29,0.05c-0.15-0.04-0.28-0.11-0.41-0.19
		c-0.37-0.21-0.58-0.54-0.69-0.95c-0.69-1.18-0.06-2.14,0.72-2.84c0.6-0.55,0.73-0.91,0.28-1.55c-0.15-0.21-0.34-0.54-0.01-0.73
		c0.22-0.12,0.54-0.1,0.81-0.07c0.27,0.03,0.58,0.08,0.46,0.51c-0.16,0.6,0.14,0.84,0.7,0.73c0.55-0.11,1.11-0.46,0.82-1.04
		c-0.35-0.71-0.02-0.82,0.5-0.95c0.64,0.04,0.8,0.32,0.6,0.94c-0.12,0.37,0.11,0.73,0.47,0.87c0.52,0.2,0.43-0.33,0.55-0.57
		c0.24-0.45,0.54-0.81,1.08-0.84c0.18-0.01,0.43,0.05,0.54,0.18c0.19,0.23-0.13,0.3-0.22,0.44c-0.25,0.4-0.91,0.82-0.32,1.3
		c0.58,0.46,0.98-0.14,1.4-0.5c0.39-0.33,0.8-1.21,1.26-0.77c0.47,0.46-0.36,0.94-0.74,1.24
		C502.4,234.84,503.67,235.01,503.96,235.49z"/>
	<path style="fill-rule:evenodd;clip-rule:evenodd;fill:#242423;" d="M476.85,238.66c-0.89-0.36-1.67-0.91-2.38-1.55
		c-0.27-0.73,0.11-1.32,0.42-1.91c0.29-0.55,1-1,0.31-1.75c-0.17-0.19,0.05-0.36,0.24-0.45c0.31-0.15,0.61-0.22,0.85,0.11
		c0.18,0.26,0.33,0.58,0.74,0.44c0.41-0.14,0.35-0.48,0.32-0.8c-0.04-0.44-0.01-0.84,0.59-0.77c0.44,0.05,0.9,0.14,0.49,0.79
		c-0.21,0.34,0.06,0.51,0.38,0.56c0.32,0.05,0.66,0.12,0.69-0.38c0.03-0.54,0.19-1.02,0.71-1.28c0.59,0.08,0.85,0.3,0.54,0.95
		c-0.15,0.32-0.61,0.82,0.05,1.11c0.57,0.24,1.08,0.17,1.34-0.53c0.09-0.23,0.34-0.44,0.57-0.57c0.24-0.14,0.58-0.2,0.78,0.04
		c0.2,0.23-0.03,0.46-0.19,0.61c-0.53,0.51-0.47,0.84,0.15,1.29c0.97,0.7,0.74,1.66,0.32,2.59c-0.06,0.09-0.13,0.18-0.2,0.26
		l-0.02,0.02c-0.39,0.27-0.79,0.53-1.17,0.81c-0.84,0.62,0.07,0.47,0.28,0.63c0.03,0.09,0.08,0.14,0.17,0.17l0.04,0.06
		c0.18,0.43-0.05,0.59-0.42,0.66c-1.36-0.04-2.76-0.73-4.08,0.18c-0.42,0.1-0.77,0.03-0.96-0.4
		C477.55,239.03,477.51,238.64,476.85,238.66z"/>
	<path style="fill-rule:evenodd;clip-rule:evenodd;fill:#E7B98E;" d="M494.65,237.57c0.31,0.28,0.62,0.56,0.93,0.84
		c0.08,0.06,0.16,0.11,0.24,0.17c0.08,0,0.15,0.03,0.21,0.08c-1.56,2.67-1.51,3.38,0.33,4.66c0.32,0.22,0.59,0.51,0.88,0.77
		c-0.04,0.11-0.1,0.2-0.19,0.28c-0.13,0.11-0.28,0.2-0.43,0.28c-0.58,0.19-1.13,0.67-1.78,0.18c0.04-0.58-0.09-1-0.57-1.45
		c-1.33-1.26-1.39-2.86-0.26-4.29C494.37,238.62,494.61,238.14,494.65,237.57z"/>
	<path style="fill-rule:evenodd;clip-rule:evenodd;fill:#292928;" d="M494.84,244.83c0.65-0.18,1.29-0.35,1.94-0.53
		c0.08-0.05,0.17-0.1,0.26-0.14c0.08,0.01,0.14-0.02,0.2-0.07c0.49-0.53,0.94-1.06,1.67-0.2c0.25,0.29,0.79,0.31,1.2,0.46
		c-0.12,0.6-0.59,0.44-0.91,0.35c-0.73-0.21-1.36-0.06-1.97,0.34c-3.02,1.01-6.12,1.44-9.31,1.26c-0.24-0.01-0.49,0.03-0.72-0.02
		c-0.67-0.15-1.41-0.14-1.92-0.74c0.64-0.52,1.17,0.13,1.76,0.18C489.71,245.9,492.3,245.62,494.84,244.83z"/>
	<path style="fill-rule:evenodd;clip-rule:evenodd;fill:#2A2A28;" d="M489.05,239.46c1.16,0.01,1.24,0.99,1.72,1.55
		c0.04,0.05-0.07,0.33-0.18,0.39c-0.34,0.18-0.66-0.02-0.83-0.27c-0.45-0.62-0.81-1.17-1.11,0.08c-0.08,0.33-0.36,0.38-0.67,0.26
		c-0.3-0.12-0.43-0.33-0.34-0.66C487.85,240.02,488.31,239.5,489.05,239.46z"/>
	<path style="fill-rule:evenodd;clip-rule:evenodd;fill:#282827;" d="M498.68,229.7c0.95-0.03,1.92-0.19,2.83,0.21
		c0.16,0.07,0.41,0.24,0.39,0.34c-0.03,0.28-0.31,0.13-0.47,0.14c-0.92,0.03-1.83,0.04-2.75,0.05c-0.13-0.01-0.26-0.02-0.39-0.03
		c-0.15-0.09-0.53-0.05-0.25-0.41l-0.05,0.04c0.08-0.24,0.34-0.18,0.5-0.29C498.56,229.77,498.63,229.75,498.68,229.7z"/>
	<path style="fill-rule:evenodd;clip-rule:evenodd;fill:#353432;" d="M481.16,229.96c-1.16,0.31-2.31,0.63-3.48,0.94
		c-0.13,0.03-0.38,0.01-0.33-0.21c0.04-0.17,0.17-0.36,0.32-0.46c0.84-0.56,1.81-0.52,2.76-0.55
		C480.68,229.78,480.92,229.87,481.16,229.96z"/>
	<path style="fill-rule:evenodd;clip-rule:evenodd;fill:#E4C5A2;" d="M498.05,230c0.08,0.14,0.16,0.27,0.25,0.41
		c-0.18,0-0.4,0.06-0.45-0.2C497.83,230.15,497.97,230.07,498.05,230z"/>
	<path style="fill-rule:evenodd;clip-rule:evenodd;fill:#E4C5A2;" d="M498.49,229.74c-0.17,0.1-0.33,0.19-0.5,0.29
		C498.06,229.76,498.26,229.73,498.49,229.74z"/>
	<path style="fill-rule:evenodd;clip-rule:evenodd;fill:#E7B88C;" d="M483.57,237.39c0.07-0.08,0.14-0.17,0.2-0.26
		C483.71,237.22,483.64,237.31,483.57,237.39z"/>
	<path style="fill-rule:evenodd;clip-rule:evenodd;fill:#9F69A4;" d="M473.47,285.63c-0.06,0-0.12-0.01-0.18-0.04
		c-0.02-0.05-0.03-0.11-0.03-0.17C473.33,285.49,473.4,285.56,473.47,285.63z"/>
	<path style="fill-rule:evenodd;clip-rule:evenodd;fill:#D6835B;" d="M496.56,240.02c0.25,0.17,0.5,0.24,0.77,0.06
		c1.25-0.82,2.5-0.52,3.75,0c0.07,0.05,0.15,0.06,0.23,0.02c0.08,0,0.17,0,0.25,0.01c1.32,1.25,1.05,2.46-0.71,2.89
		c-0.78,0.19-1.58,0.47-2.47,0.21C496.46,242.66,495.97,241.89,496.56,240.02z"/>
	<path style="fill-rule:evenodd;clip-rule:evenodd;fill:#DF9F72;" d="M477.41,239.52c0.3,0.09,0.6,0.18,0.9,0.27
		c0.5,0.42-0.1,0.46-0.24,0.6c-0.94,0.96-0.72,2.08,0.55,2.5c0.89,0.29,1.83,0.28,2.72,0.06c1.02-0.25,1.45-1.1,1.17-2.11
		c-0.12-0.45-0.44-0.87-0.17-1.37c0.31,0.05,0.51-0.04,0.53-0.39c0.07-0.01,0.13-0.01,0.2-0.01c-0.01,0.33,0.11,0.57,0.37,0.82
		c1.03,0.99,0.87,2.09,0.04,3.07c-1.44,1.73-5.98,1.54-7.33-0.25C475.51,241.85,476.03,240.52,477.41,239.52z"/>
	<path style="fill-rule:evenodd;clip-rule:evenodd;fill:#DF9F72;" d="M482.83,239.02c-0.06-0.06-0.11-0.12-0.17-0.17
		C482.72,238.9,482.78,238.96,482.83,239.02z"/>
	<path style="fill-rule:evenodd;clip-rule:evenodd;fill:#232322;" d="M474.92,259.95c-0.02,0.03-0.03,0.06-0.04,0.09
		C474.89,260.02,474.91,259.99,474.92,259.95L474.92,259.95z"/>
	<path style="fill-rule:evenodd;clip-rule:evenodd;fill:#C968A0;" d="M475.46,290.2c-0.41-0.04-1.11,0.03-1.1-0.52
		c0.02-0.63,0.8-0.65,1.31-0.78c0.58-0.15,0.62,0.38,0.66,0.74C476.38,290.24,475.9,290.19,475.46,290.2z"/>
	<path style="fill-rule:evenodd;clip-rule:evenodd;fill:#C11C7F;" d="M530.1,280.39c0.01,0.07,0.02,0.14,0.02,0.21
		c-0.03-0.05-0.07-0.1-0.1-0.15C530.02,280.45,530.07,280.41,530.1,280.39z"/>
	<path style="fill-rule:evenodd;clip-rule:evenodd;fill:#FDFDFD;" d="M499.15,233.99c1.33,0.38,2.67,0.65,3.71,1.61
		c0.63,0.58,0.6,1.21-0.09,1.71c-0.48,0.34-1.04,0.56-1.57,0.84c-0.67,0.36-1.22,0.51-1.29-0.57c-0.02-0.36-0.25-0.69-0.7-0.68
		c-0.34,0.01-0.58,0.23-0.75,0.52c-0.2,0.34,0.18,1.1-0.69,0.93c-0.89-0.17-1.67-0.52-2.1-1.4c-0.29-0.58-0.09-1.08,0.28-1.54
		C496.79,234.38,498.11,234.5,499.15,233.99z"/>
	<path style="fill-rule:evenodd;clip-rule:evenodd;fill:#DFA576;" d="M501.32,240.1c-0.08-0.01-0.16-0.01-0.23-0.02
		C501.17,240.06,501.24,240.06,501.32,240.1z"/>
	<path style="fill-rule:evenodd;clip-rule:evenodd;fill:#DFA576;" d="M495.82,238.58c-0.08-0.06-0.16-0.11-0.24-0.17
		C495.66,238.47,495.74,238.52,495.82,238.58z"/>
	<path style="fill-rule:evenodd;clip-rule:evenodd;fill:#FDFDFD;" d="M478.85,234.29c1.46-0.08,2.62,0.14,3.7,0.74
		c0.41,0.23,0.71,0.56,0.59,1.06c-0.18,0.77-0.83,1.15-1.45,1.5c-0.58,0.33-0.42-0.37-0.65-0.54c-0.85-0.62-1.58-0.28-1.97,0.5
		c-0.26,0.53-0.45,0.74-1.03,0.62c-1.05-0.22-2-0.59-2.43-1.67c-0.24-0.61,0.08-1.04,0.55-1.43
		C477.03,234.35,478.05,234.3,478.85,234.29z"/>
	<path style="fill-rule:evenodd;clip-rule:evenodd;fill:#D6825A;" d="M482.34,239.47c0.19,0.96,1.09,1.75,0.42,2.92
		c-0.85,1.48-4.58,1.22-5.33,0.24c-0.69-0.89-0.32-2.17,0.87-2.83C479.55,238.49,480.98,239.31,482.34,239.47z"/>
	<path style="fill-rule:evenodd;clip-rule:evenodd;fill:#DFA576;" d="M497.05,244.15c-0.09,0.05-0.18,0.1-0.26,0.14
		C496.87,244.25,496.96,244.2,497.05,244.15z"/>
</g>
</svg>
