<?xml version="1.0" encoding="utf-8"?>
<!-- Generator: Adobe Illustrator 16.0.0, SVG Export Plug-In . SVG Version: 6.00 Build 0)  -->
<!DOCTYPE svg PUBLIC "-//W3C//DTD SVG 1.0//EN" "http://www.w3.org/TR/2001/REC-SVG-20010904/DTD/svg10.dtd" [
	<!ENTITY ns_flows "http://ns.adobe.com/Flows/1.0/">
	<!ENTITY ns_extend "http://ns.adobe.com/Extensibility/1.0/">
	<!ENTITY ns_ai "http://ns.adobe.com/AdobeIllustrator/10.0/">
	<!ENTITY ns_graphs "http://ns.adobe.com/Graphs/1.0/">
]>
<svg version="1.0" id="Layer_1" xmlns:x="&ns_extend;" xmlns:i="&ns_ai;" xmlns:graph="&ns_graphs;"
	 xmlns="http://www.w3.org/2000/svg" xmlns:xlink="http://www.w3.org/1999/xlink" xmlns:a="http://ns.adobe.com/AdobeSVGViewerExtensions/3.0/"
	 x="0px" y="0px" width="960px" height="560px" viewBox="0 0 960 560" style="enable-background:new 0 0 960 560;"
	 xml:space="preserve">
<g>
	<path style="fill-rule:evenodd;clip-rule:evenodd;fill:#222221;" d="M546.53,318.67c-0.18-1.02-0.39-2.04-0.46-3.08
		c-0.59-8.75-5.56-15.5-10.26-22.34c-1-1.46-2.56-2.55-4.62-2.21c-0.09,0.76,0.51,1.03,1.01,1.28c1.14,0.58,2.11,1.37,3.02,2.24
		c0.52,0.61,1.24,1.02,1.62,1.75c0.05,0.09,0.1,0.18,0.16,0.27c0.08,0.14,0.15,0.27,0.23,0.41c0.18,0.38,0.41,0.73,0.62,1.09
		c0.05,0.09,0.11,0.18,0.17,0.27c0.06,0.09,0.11,0.18,0.18,0.27c0.03,0.04,0.06,0.09,0.09,0.14c0.05,0.09,0.11,0.19,0.16,0.29
		c1.75,3.11,3.68,6.13,4.79,9.56c0.32,0.69,0.54,1.4,0.7,2.14c0.21,0.68,0.33,1.38,0.46,2.07c0.04,0.18,0.1,0.35,0.11,0.53
		c0.04,0.37,0.06,0.75,0.15,1.11c0.18,0.98,0.07,1.96,0.07,2.95c0,0.52-0.25,0.81-0.79,0.83c-0.39,0.01-0.79,0.07-1.17,0
		c-4.18-0.38-8.36-0.27-12.55-0.11c-2.51,0.1-5.02,0.3-7.54,0.07c-0.13-0.03-0.26-0.06-0.4-0.07c-0.8-0.1-1.6-0.05-2.4-0.06
		c-2.35-0.01-2.63-0.51-1.47-2.62c0.06-0.1,0.12-0.21,0.18-0.31c0.41-0.61,0.9-1.01,1.7-0.72c0.56,0.2,1.11,0.05,1.62-0.19
		c4.43-2.06,8.76-4.26,11.88-8.22c0.07-0.09,0.14-0.18,0.2-0.28c0.09-0.14,0.17-0.28,0.26-0.42c0.12-0.18,0.24-0.36,0.35-0.55
		c0.09-0.14,0.18-0.29,0.25-0.43c0.47-0.77,0.69-1.64,0.99-2.48c0.38-1.21,0.3-2.45,0.18-3.69c-0.33-1.14-0.52-2.33-1.22-3.34
		c-1.46-1.43-2.64-1.58-4.25-0.5c-0.63,0.42-1.2,0.91-1.72,1.47c-0.92,0.99-1.94,1.89-2.99,2.74c-0.18,0.14-0.4,0.33-0.63,0.13
		c-0.17-0.14-0.08-0.37-0.05-0.57c0.11-0.81,0.56-1.32,1.28-1.74c2.11-1.24,3.64-3.01,4.53-5.31c-1.19-1.97-1.03-6.8,0.29-8.57
		c0.11-0.14,0.31-0.26,0.49-0.3c2.45-0.59,3.68-2.44,3.86-4.65c0.22-2.65,2.41-5.08,0.9-7.9c-0.04-0.08,0-0.24,0.05-0.35
		c0.52-1.02,0.18-1.95-0.35-2.83c-0.34-0.57-0.44-1.14-0.42-1.81c0.06-2.25-1.09-3.99-2.53-5.58c-0.25-0.27-0.88-0.41-0.61-0.85
		c0.21-0.34,0.76-0.06,1.12,0.05c1.36,0.44,2.6,1.23,4.05,1.45c0.65,0.1,1.41,0.19,1.79-0.35c0.39-0.55-0.08-1.22-0.4-1.74
		c-1.01-1.68-2.75-2.16-4.49-2.43c-1.75-0.27-2.92-0.88-3.19-2.81c-0.1-0.72-0.55-1.41-0.93-2.06c-2.92-5.03-7.48-7.77-12.97-9.09
		c-7.82-1.87-17.51-0.48-22.98,8.81c-0.43,0.73-0.22,1.73-1.33,2.23c-1.27,0.57-2.28,1.61-2.8,3c-0.08,0.21-0.07,0.45-0.1,0.67
		c0.23,0,0.49,0.08,0.68-0.01c0.68-0.33,1.33-0.72,2-1.08c0.13-0.07,0.35-0.15,0.45-0.09c0.26,0.16,0.01,0.35-0.06,0.5
		c-2.16,3.99-3.21,8.33-3.9,12.77c-0.23,1.48-0.1,3.11-1.96,3.84c-0.63,0.25-0.94,1.07-0.69,1.87c0.22,0.71,0.68,1.05,1.43,1
		c0.31-0.02,0.54,0.1,0.6,0.44c0.59,3.14,2.91,5.27,4.62,7.74c1.77,2.55,4.25,3.92,7.5,3.57c1.28-0.14,2.44-0.67,3.67-0.99
		c0.58-0.11,1.18-0.19,1.65-0.55c0.85-0.65,1.31-0.4,1.52,0.58c0.4,4.31,0.83,4.7,5.22,4.79c0.12,0,0.24,0,0.36,0.01
		c3.22,0.23,6.45,0.32,9.63,0.91c0.91,0.17,1.64,0.97,1.4,1.69c-0.36,1.12-0.3,2.19-0.29,3.29c0,0.41-0.1,0.7-0.38,1.05
		c-2.01,2.49-4.59,4.17-7.41,5.55c-0.86,0.42-1.21,1-0.92,1.91c0.14,0.45,0.06,0.73-0.4,0.96c-1.9,0.93-3.65,2.15-5.65,2.9
		c-1.21,0.45-2.45,0.82-3.74,0.42c-0.9-0.28-1.82-0.34-2.73-0.25c-3.87,0.35-7.63-0.5-11.42-1c-1.63-0.22-2.64-0.97-3.47-2.44
		c-2.89-5.07-7.31-8.97-10.65-13.71c-1.04-1.47-2.34-2.73-3.88-3.71c-0.38-0.24-0.52-0.53-0.54-0.97c-0.33-6.63-0.4-13.26-0.38-19.9
		c0.02-6.87,0.29-13.75-0.01-20.62c-0.04-0.9-0.24-1.5-1.34-1.51c-0.62,0-1.27-0.19-1.86-0.43c-4.15-1.66-8.62-1.91-12.91-2.95
		c-0.24-0.06-0.53,0.11-0.79,0.14c-2.7,0.26-4.75,2.59-7.63,2.33c-0.9-0.08-1.83,0.15-2.74,0.25c-4.05,0.42-8.09,1.01-12.19,0.51
		c-3.17-0.39-6.37-0.73-9.56-0.26c-0.94,0.14-2.2-0.57-2.79,0.53c-0.5,0.94-0.35,2.13-0.21,3.19c0.43,3.29,0.71,6.6,0.69,9.92
		c0,0.27,0.25,0.88-0.14,0.78c-1.63-0.44-2.39,1.06-3.6,1.44c-1.8,0.58-2.42,1.92-2.79,3.52c-0.29,1.24-0.62,2.49-0.73,3.76
		c-0.33,3.96-0.04,7.91-0.61,11.91c-0.88,6.16-0.78,12.44-0.83,18.67c-0.06,6.39,0.17,12.79,0.22,19.18
		c0.02,1.92,0.2,2.21,2.15,2.44c1.77,0.21,3.51-0.23,5.26-0.22c0.37,0,0.93-0.21,1.08,0.24c0.29,0.89,0.98,0.7,1.57,0.69
		c3.92-0.07,7.83-0.1,11.75-0.26c16.74-0.69,33.49-0.77,50.23-0.71c12.91,0.04,25.82,0.05,38.73-0.1
		c6.48-0.08,12.97-0.35,19.45,0.19c0.83,0.07,1.67,0.12,2.51,0.2C546.43,319.9,546.67,319.49,546.53,318.67z M478.12,314.28
		c-0.33,0.6-1.27,0.14-1.51-0.25c-0.58-0.98-1.47-0.77-2.29-0.91c-0.64-1.25-0.45-2.54-0.23-3.84c0.5-0.71,0.93-1.48,1.51-2.13
		c1.17-1.31,2.7-1.1,3.42,0.48c0.46,1,0.73,2.1,1.09,3.15c0.5,1.46,1.13,2.83,2.67,3.48c0.1,0.04,0.21,0.09,0.31,0.14
		c-0.08,0.05-0.17,0.16-0.24,0.14c-0.74-0.12-1.52,0.39-2.23-0.38C479.85,313.32,478.98,312.7,478.12,314.28z M494.48,318.67
		c-4.11,0.11-8.21-0.5-12.33-0.13c-0.28,0.03-0.65,0.06-0.82-0.31c0.26-0.04,0.52-0.11,0.78-0.12c1.56-0.09,2.59-1.59,1.95-3.04
		c-0.25-0.57-0.14-0.51,0.31-0.49c0.4,0.02,0.88,0.13,1.18-0.05c1.74-1,2.8,0.01,3.98,1.12c1.4,1.31,2.97,2.43,4.94,2.78
		c0.07,0.05,0.09,0.1,0.07,0.16C494.52,318.64,494.5,318.67,494.48,318.67z M516.15,317.36c-0.17,0.95-0.71,1.14-1.56,1.17
		c-2.55,0.09-5.1,0.26-6.58,0.34c-3.33,0-5.61,0.01-7.88-0.01c-0.23,0-0.75,0.15-0.65-0.18c0.1-0.37,0.15-0.71,0.14-1.08
		c0.22,0.13,0.46,0.24,0.67,0.39c0.61,0.47,1.32,0.72,2.02,0.46c4.09-1.48,8.45-1.5,12.63-2.43c0.64-0.14,1.2-0.63,1.91-0.42
		C516.6,316.19,516.25,316.75,516.15,317.36z"/>
	<path style="fill-rule:evenodd;clip-rule:evenodd;fill:#8F619F;" d="M534.53,294.89c-1.54-1.33-2.56-1.38-4.1-0.07
		c-1.58,1.34-3.08,2.77-4.62,4.16c-0.26,0.23-0.57,0.59-0.93,0.38c-0.33-0.21-0.18-0.67-0.13-1c0.17-1.03,0.47-1.84,1.64-2.36
		c2.17-0.97,3.16-3.19,4.57-4.95c0.08-0.02,0.16-0.02,0.23,0c0.71,1.24,2.23,1.35,3.17,2.28c0.37,0.37,0.73,0.73,1.1,1.09
		C535.3,294.88,535.06,295.18,534.53,294.89z"/>
	<path style="fill-rule:evenodd;clip-rule:evenodd;fill:#F8F1E8;" d="M504.74,285.49c0.76-0.41,1.51-0.83,2.28-1.23
		c0.3-0.16,0.63-0.58,0.93-0.33c0.18,0.15,0.07,0.66,0.06,1.01c0,0.2-0.06,0.39-0.1,0.59C506.85,285.87,505.79,285.85,504.74,285.49
		z"/>
	<path style="fill-rule:evenodd;clip-rule:evenodd;fill:#6B6C63;" d="M453.65,311.91c1.27-0.27,0.75-1.27,0.66-1.93
		c-0.09-0.67-0.17-1.34-0.17-2.01c-0.01-6.91,0.15-13.82-0.26-20.72c-0.35-5.87-0.02-11.74-0.24-17.61
		c-0.14-3.69-0.6-7.37-0.88-11.06c-0.21-2.7-0.31-5.4-0.55-8.1c-0.14-1.63-0.27-3.26-0.22-4.89c0.06-1.8,2.27-3.28,4-2.7
		c0.47,0.16,0.54,0.48,0.63,0.9c0.37,1.83,0.24,3.67,0.15,5.5c-0.19,3.93-0.4,7.84,0.01,11.78c0.43,4.09,0.21,8.2,0.07,12.31
		c-0.19,5.55-0.1,11.1,0.22,16.65c0.23,3.85,1.02,7.71,0.82,11.52c-0.16,3.08,0.36,6.15-0.1,9.21c-0.21,1.39-1.42,1.5-2.28,1.99
		c-0.81,0.46-1.41-0.14-1.84-0.84L453.65,311.91z"/>
	<path style="fill-rule:evenodd;clip-rule:evenodd;fill:#C5BDB8;" d="M422.48,263.92c-0.16-3.35-0.3-6.7-0.47-10.05
		c-0.12-2.35-0.26-4.7-0.46-7.05c-0.07-0.85,0.2-1.05,1.01-1.18c4.62-0.74,9.2-0.41,13.81,0.18c2.98,0.38,5.94-0.49,8.91-0.76
		c1.63-0.15,3.26-0.18,4.89,0.02c0.67,0.08,0.92,0.34,0.96,1.03c0.17,3.23,0.41,6.45,0.62,9.67c0.16,2.55,0.3,5.1,0.45,7.64
		c-0.5,0.06-0.58-0.29-0.66-0.66c-1.15-5.3-4.1-9.14-9.17-11.24c-0.51-0.21-1.06-0.37-1.44-0.81c-0.33-0.72-0.33-1.51-0.16-2.23
		c0.22-0.88-0.26-1.83-0.72-1.84c-1-0.04-2.75,0.03-2.78,1.03c-0.06,2.05-1.69,2.85-2.51,4.26c-4.55,0.64-7.56,3.36-9.68,7.24
		c-0.67,1.23-1.17,2.54-1.7,3.84C423.22,263.44,423.15,263.99,422.48,263.92z"/>
	<path style="fill-rule:evenodd;clip-rule:evenodd;fill:#737578;" d="M434.22,258.41c0.1-2.5,0.47-4.84,2.2-6.72
		c0.21-0.23,0.53-0.56,0.74-0.52c0.41,0.07,0.17,0.53,0.21,0.81c0.97,6.92,1.86,13.86,2.91,20.77c0.93,6.12,2.03,12.22,3.03,18.33
		c0.72,4.39,1.39,8.79,2.11,13.18c0.12,0.7-0.07,0.8-0.67,0.57c-1.11-0.43-2.23-0.86-3.35-1.26c-1.05-0.38-1.46-1.26-1.63-2.2
		c-0.53-3.01-0.97-6.03-1.45-9.05c-0.92-5.77-1.71-11.56-2.4-17.36C435.26,269.42,434.62,263.9,434.22,258.41z"/>
	<path style="fill-rule:evenodd;clip-rule:evenodd;fill:#C5BDB8;" d="M453.67,311.9c-1.52-1.03-2.88-0.68-4.16,0.47
		c-0.3,0.27-0.7,0.37-1.12,0.35c-1.57-0.07-1.99,0.65-1.75,2.24c0.28,1.83,1.18,2.6,2.98,2.46c0.49-0.04,0.72,0.16,0.69,0.7
		c-0.03,0.49-0.18,0.75-0.7,0.75c-1.99-0.01-3.99,0-5.98,0c-0.31,0-0.49-0.01-0.49-0.44c0.02-3.38-2.52-6.13-6.01-6.38
		c-0.79-0.06-1-0.23-1.03-0.99c-0.09-2.43-0.25-4.86-0.39-7.29c1.39,0.79,2.82,1.14,4.35,0.41c1.19,0.42,2.41,0.76,3.56,1.27
		c0.86,0.38,1.65,0.79,2.23,1.74c0.56,0.9,1.9,0.49,2.88,0.27c0.81-0.18,0.71-0.92,0.58-1.57c-0.29-1.43-0.59-2.86-0.89-4.29
		c1.51-1.46,2-3.42,2.47-5.34c0.7-2.87,1.1-5.78,0.98-8.75c-0.04-0.92,0.02-1.84,0.84-2.5c0.43,1.26,0.35,2.6,0.41,3.89
		c0.31,6.53,0.42,13.06,0.13,19.59c-0.05,1.16,0.17,2.29,0.38,3.42L453.67,311.9z"/>
	<path style="fill-rule:evenodd;clip-rule:evenodd;fill:#742D25;" d="M494.71,252.9c2.38-1.12,4.97-0.92,7.48-1.15
		c2.46-0.22,4.94,0.19,7.31,0.93c2.9,0.89,5.92,0.7,8.85,1.17c4.17,0.67,8.16,2.07,11.83,4.02c1.21,0.65,3.63,1.52,3.04,4.03
		c-0.02,0.07,0.16,0.26,0.28,0.29c1.28,0.34,1.89,1.47,1.36,2.75c-0.25,0.6-0.31,0.95,0.25,1.42c0.41,0.34,0.76,0.94,0.63,1.5
		c-0.31,1.35,0.1,2.56,0.46,3.81c0.17,0.58,0.18,1.33-0.29,1.7c-0.98,0.78-0.77,1.79-0.88,2.8c-0.21,1.89-0.96,3.53-2.59,4.64
		c-0.21,0.15-0.59,0.52-0.66,0.17c-0.17-0.93-0.9-1.32-1.39-1.96c-0.52-0.66-0.09-1.68,0.38-2.47c0.14-0.24,0.35-0.57,0.07-0.76
		c-1.7-1.14-0.59-2.32,0.03-3.37c0.44-0.75,0.67-1.12-0.46-1.08c-0.75,0.03-0.88-0.34-0.67-1c0.2-0.6,0.38-1.22,0.5-1.84
		c0.07-0.37,0.17-0.85-0.26-1.09c-0.86-0.48-0.31-0.79,0.14-1.01c1.62-0.76,1.33-2.21,1.35-3.55c0.02-1.21-0.65-1.95-1.76-2.28
		c-1.24-0.37-2.51-0.39-3.79-0.13c-0.27,0.05-0.58,0.21-0.77-0.06c-0.17-0.24,0.1-0.44,0.22-0.63c0.25-0.38,0.26-0.73-0.03-1.1
		c-1.4-1.8-4.93-4.22-7.51-2.59c-0.58,0.37-1.05-0.02-1.57-0.23c-1.37-0.54-2.76-1.51-4.08,0.18c-0.31,0.4-0.74-0.08-1.04-0.27
		c-1.28-0.78-2.52-1.18-3.83-0.01c-0.59,0.52-0.89-0.11-1.05-0.51c-0.6-1.53-1.58-1.58-2.83-0.84c-0.55,0.32-1.1,0.66-1.68,0.92
		c-0.7,0.31-1.62,1.57-1.83-0.51c-0.09-0.86-1.16-0.81-1.93-0.64c-0.99,0.22-1.8,0.83-2.68,1.31c-0.19,0.1-0.52,0.23-0.65,0.14
		c-0.3-0.21-0.06-0.49,0.06-0.74c0.25-0.53,0.68-1.07-0.03-1.58c-0.07-0.06-0.09-0.13-0.08-0.21
		C494.59,253,494.63,252.94,494.71,252.9z"/>
	<path style="fill-rule:evenodd;clip-rule:evenodd;fill:#E5D7CA;" d="M428.44,268.96c1.37,1.48,3.17,1.46,4.98,1.44
		c1.22-0.02,1.84,0.85,1.18,1.87c-1.77,2.73-1.35,5.7-1.15,8.67c0.09,1.43,0.48,2.9,0.27,4.28c-0.57,3.71-1.39,7.39-2.88,10.87
		c-0.06,0.1-0.15,0.18-0.17,0.3c0.01,0.07,0,0.13-0.05,0.17c-0.72,0.33-1.01-0.26-1.33-0.68c-0.95-1.25-1.64-2.64-2.08-4.15
		c-1.26-4.26-2.16-8.58-1.97-13.06c0.14-3.28,0.75-6.49,1.53-9.67c0.12-0.49,0.29-1.02,0.98-1c0.09,0.15,0.18,0.29,0.27,0.44
		c0.06,0.1,0.14,0.2,0.24,0.27l0-0.01C428.31,268.79,428.38,268.87,428.44,268.96z"/>
	<path style="fill-rule:evenodd;clip-rule:evenodd;fill:#DF9C66;" d="M526.7,269.66c0.75,0.07,1.26-0.38,1.79-0.81
		c0.14-0.12,0.33-0.18,0.5-0.27c0.01,0.19,0.07,0.4,0.03,0.58c-0.27,1.1-0.51,2.18,0.33,3.17c0.27,0.31-0.1,0.59-0.09,0.9
		c0.09,2.05-0.43,4.43,0.43,6.08c1.05,2,0.48,3.51,0.07,5.26c-0.26,1.12-0.5,2.24-0.75,3.36c-1.3,1.25-2.68,2.34-4.59,2.42
		c-1.98-0.26-3.95-0.52-5.93-0.78c-2.7-2.07-2.67-5.14,0.03-7.64c2.01-1.87,4.06-3.7,5.47-6.12c0.91-1.56,1.11-3.31,1.68-4.96
		C525.84,270.33,525.83,269.59,526.7,269.66z"/>
	<path style="fill-rule:evenodd;clip-rule:evenodd;fill:#C9C1BB;" d="M452.73,285.02c-0.95,3.34-0.28,6.86-1.17,10.23
		c-0.5,1.9-1.03,3.76-1.92,5.5c-0.23,0.45-0.42,1.09-1.19,0.85c-0.02-0.22-0.05-0.43-0.08-0.65c-0.08-0.18-0.07-0.38-0.16-0.55
		c-0.02-0.22-0.05-0.45-0.07-0.67c-0.09-0.17-0.08-0.37-0.17-0.53c-0.02-0.22-0.05-0.44-0.07-0.66c-0.09-0.17-0.08-0.37-0.17-0.54
		c-0.01-0.16-0.02-0.33-0.03-0.49c0.93-2.28,1.28-4.69,1.52-7.12c0.67-6.77,0.47-13.56,0.51-20.35c0.01-2.09-0.22-4.16-0.63-6.19
		c-0.71-3.49-2.4-6.42-5.38-8.49c-0.63-0.43-1.27-0.85-2.1-0.72c-0.14,0.02-0.27-0.01-0.38-0.09c-0.02-0.46-0.04-0.92-0.06-1.37
		c-0.21-0.4,0.02-0.86-0.18-1.26c-0.02-0.4-0.04-0.8-0.06-1.2c4.89,1.38,8.24,4.46,10.08,9.18c0.45,1.16,0.8,2.35,1.19,3.53
		c0.62,6.43,0.73,12.87,0.51,19.31C452.69,283.5,452.72,284.26,452.73,285.02z"/>
	<path style="fill-rule:evenodd;clip-rule:evenodd;fill:#ECC4A0;" d="M492.11,261.52c0.41-1.99,0.53-4.12,2.93-4.98
		c1-0.36,1.92-0.97,2.9-1.39c0.62-0.26,1.11-0.26,1.15,0.71c0.04,1.01,0.61,1.43,1.62,0.89c0.95-0.51,1.91-0.98,2.86-1.5
		c0.88-0.48,1.46-0.3,1.89,0.64c0.69,1.5,1.25,1.66,2.54,0.65c1.03-0.81,1.78-0.74,2.62,0.29c0.94,1.16,1.67,1.11,2.44-0.07
		c0.5-0.77,1.06-0.91,1.78-0.4c1.34,0.95,2.62,1.69,4.14,0.22c0.39-0.38,1.14-0.19,1.73,0.02c1.16,0.41,2.04,1.23,2.96,2
		c0.52,0.44,0.05,0.89,0.1,1.33c0.05,0.51-0.4,0.39-0.68,0.41c-4.76,0.24-9.39,1.26-13.99,2.38c-0.77,0.19-1.09,0.13-1.38-0.74
		c-0.78-2.34-2.92-2.73-4.99-3.06c-3.19-0.51-6.1,0.9-9.13,1.47c-0.55,0.1-1,0.74-1.49,1.12L492.11,261.52z"/>
	<path style="fill-rule:evenodd;clip-rule:evenodd;fill:#32322C;" d="M473.9,316.96c-3.67,0.51-7.34,0.51-11.01,0.48
		c-4.62-0.04-9.21-0.4-13.77-1.19c-1.1-0.19-1.68-0.65-1.42-1.83c0.1-0.46,0.32-0.72,0.86-0.83c2.11-0.47,4.23-0.19,6.3,0.08
		c1.9,0.25,3.72-0.19,5.59-0.09c4.8,0.25,9.61,0.6,14.35,1.32c2.38,0.36,4.71,0.6,7.09,0.64c0.47,0.01,1.18-0.12,1.16,0.64
		c-0.02,0.6-0.53,0.8-1.14,0.79C479.25,316.95,476.57,316.96,473.9,316.96z"/>
	<path style="fill-rule:evenodd;clip-rule:evenodd;fill:#373635;" d="M429.78,312.44c-1.15,0.33-1.3-0.45-1.34-1.67
		c-0.05-1.78,0.94-3.28,1.03-5c0.3-5.89,3.34-11.08,4.38-16.78c0.06-0.31,0.05-0.87,0.48-0.88c0.47-0.01,0.48,0.55,0.64,0.9
		c0.58,1.26-0.01,2.51-0.01,3.77c0.01,5.93-0.03,11.87,0.03,17.8c0.01,1.23-0.42,1.62-1.59,1.61
		C432.3,312.17,431.19,312.33,429.78,312.44z"/>
	<path style="fill-rule:evenodd;clip-rule:evenodd;fill:#E1A16D;" d="M478.45,294.32c2.79,4.14,7.17,7.06,9.12,11.87
		c0.76,1.88,2.42,2.26,4.26,2.45c3.18,0.33,6.33,1.25,9.53,1.04c2.18-0.14,4.25,0.01,6.33,0.55c0.48,0.78-0.04,1.29-0.51,1.77
		c-0.65,0.65-1.46,0.96-2.38,0.98c-3.6,0.08-7.19-0.1-10.77-0.45c-2.05-0.2-3.84-1.03-5.51-2.19c-3.25-2.27-5.59-5.34-7.68-8.63
		c-1.03-1.62-2.23-3.15-2.76-5.03C477.83,295.86,477.47,294.97,478.45,294.32z"/>
	<path style="fill-rule:evenodd;clip-rule:evenodd;fill:#81408D;" d="M542.98,318.58c-3.14-0.25-6.28-0.2-9.42-0.17
		c-3.34,0.03-6.67,0.14-10.01,0.2c-0.43,0.01-0.88,0.11-1.28-0.16c0.09-0.14,0.21-0.28,0.37-0.27c1.42,0.08,2.45-0.69,3.51-1.49
		c0.93-0.71,2.1-0.98,3.25-1.16c1.48-0.22,2.59-0.97,3.48-2.12c0.52-0.66,1.07-1.29,1.71-1.84c2.52-2.17,6.09-1.59,7.85,1.23
		c0.9,1.45,1.26,3,1.1,4.69C543.49,317.92,543.49,318.38,542.98,318.58z"/>
	<path style="fill-rule:evenodd;clip-rule:evenodd;fill:#E5D7CA;" d="M470,288.14c-0.03,0.06-0.08,0.08-0.14,0.06
		c-0.15,0.01-0.24,0.1-0.34,0.2l0,0c-0.07,0.08-0.15,0.14-0.24,0.18c-0.04,0.06-0.11,0.09-0.18,0.09c-0.13,0.04-0.22,0.12-0.29,0.23
		l0,0c-0.52,0.16-0.99,0.06-1.42-0.28c-0.07-0.08-0.12-0.18-0.15-0.29c-0.01-0.16,0.03-0.32,0.08-0.47c0.03-0.1,0.07-0.2,0.1-0.29
		c0.07-0.2,0.08-0.4,0.09-0.61c0-0.2,0.01-0.4,0-0.59c-0.08-1.37-0.38-1.61-1.68-1.3c-0.34,0.08-0.69,0.15-1.03,0.25
		c-0.26,0.11-0.36,0.38-0.57,0.54c-0.11,0.04-0.23,0.06-0.35,0.05c-1.07-0.53-1.51-1.56-1.96-2.55c-0.18-0.4-0.16-0.86,0.3-1.14
		c1.25-0.35,2.54-0.11,3.8-0.17c0.6-0.03,1.2,0.02,1.79-0.01c0.61-0.04,1.35,0.13,1.49-0.79c0.12-0.76-0.4-1.6-1.18-1.85
		c-0.89-0.28-1.81-0.24-2.72-0.1c-0.87,0.13-1.74,0.19-2.62,0.03c-0.63-0.28-1.47,0.01-1.91-0.76c-0.47-0.83-0.31-1.73,0.5-2.55
		c1.87-0.53,3.73-0.07,5.57,0.13c2.9,0.31,3.07,0.21,3.15-2.71c0.06-2.27-0.1-4.54,0.1-6.81c0.31-1.55,0.23-3.1,0.04-4.66
		c0-0.32,0.05-0.62,0.34-0.8c0.6-0.18,1.21-0.21,1.2,0.61c-0.02,3.3,0.15,6.6-0.09,9.89c0,2.16,0.02,4.32-0.02,6.48
		c-0.04,2.44,0.03,4.86,0.42,7.28c0.2,1.25,0.28,2.56-1.62,2.53C470.35,288.07,470.13,288.01,470,288.14z"/>
	<path style="fill-rule:evenodd;clip-rule:evenodd;fill:#F2DAC2;" d="M507.62,271.81c0.1-0.55,0.2-1.1,0.29-1.65
		c1.52-1.55,3.32-2.6,5.44-3.08c1.83-0.42,3.31,0.19,4.42,1.67c2.56,3.4,1.84,6.92-1.84,9.12c-0.75,0.45-1.5,0.95-2.37,1.13
		c-0.55,0.12-1.27,0.47-1.57-0.45c-0.1-0.87,0.27-1.32,1.16-1.36c0.25-0.01,0.64,0.04,0.69-0.3c0.05-0.39-0.35-0.44-0.63-0.58
		c-0.64-0.32-1.24,0-1.86,0.06c-0.51,0.05-1.02,0.04-1.5-0.21c-0.52,0.29-0.78-0.09-0.89-0.46
		C508.59,274.39,507.94,273.16,507.62,271.81z"/>
	<path style="fill-rule:evenodd;clip-rule:evenodd;fill:#373635;" d="M438.35,251.84c-0.27-1.03,0.54-2.09-0.15-3.15
		c-0.25-0.38,0.29-0.58,0.61-0.72c0.48-0.2,0.7,0.17,0.77,0.51c0.18,0.93,0.33,1.87,0.41,2.82c0.57,6.44,1.53,12.84,2.38,19.25
		c1.55,11.64,3.48,23.22,5.74,34.75c0.07,0.38,0.58,1.13-0.27,1.28c-0.64,0.11-1.01-0.43-1.12-1.03c-0.49-2.77-0.95-5.55-1.44-8.32
		c-0.9-5.08-1.87-10.15-2.72-15.23c-0.83-5.01-1.58-10.03-2.32-15.05c-0.67-4.55-1.27-9.11-1.89-13.67
		C438.29,252.81,438.35,252.32,438.35,251.84z"/>
	<path style="fill-rule:evenodd;clip-rule:evenodd;fill:#D7CCC2;" d="M427.74,268.01c-1.16,1.27-1.05,2.95-1.36,4.46
		c-0.63,3-1.08,6.06-0.75,9.12c0.55,4.93,1.08,9.91,4.01,14.18c0.25,0.37,0.47,0.75,0.98,0.78c-0.01,0.08-0.01,0.17-0.02,0.25
		c-0.06,0.09-0.14,0.18-0.17,0.29c-0.03,0.14-0.06,0.29-0.08,0.43c-0.05,0.09-0.1,0.18-0.17,0.27c-0.02,0.15-0.05,0.3-0.07,0.45
		c-0.05,0.09-0.1,0.18-0.16,0.27c-0.02,0.15-0.05,0.29-0.07,0.44c-0.79,0.46-1.19-0.17-1.6-0.62c-1.17-1.29-2.02-2.79-2.67-4.39
		c-1.66-4.1-2.65-8.37-2.75-12.81c-0.11-5.16,0.81-10.18,2.16-15.13c0.15-0.53,0.24-1.11,0.81-1.4c0.25-0.08,0.38,0.06,0.46,0.28
		c0.02,0.13,0.05,0.27,0.07,0.4c0.01,0.13,0.11,0.21,0.16,0.31C426.92,266.4,427.33,267.2,427.74,268.01z"/>
	<path style="fill-rule:evenodd;clip-rule:evenodd;fill:#E4AD7C;" d="M526.7,269.66c-0.98,0.77-0.98,1.99-1.19,3.01
		c-0.5,2.4-1.71,4.36-3.31,6.1c-1.34,1.46-2.84,2.78-4.2,4.23c-1.64,1.74-1.76,4.45,0.16,5.94c0.17,0.13,0.21,0.41,0.31,0.62
		c-2.08-0.08-4.16-0.17-6.25-0.25c-0.45-0.17-0.54-0.57-0.54-0.97c-0.01-1.5-0.84-2.44-2.11-3.04c-0.67-0.32-1.03-0.72-0.7-1.48
		c0.05-0.33-0.13-0.72,0.23-0.98c1.16,0.16,2.21,0.64,3.25,1.15c0.77,0.38,1.53,0.39,2.04-0.35c1.47-2.19,3.57-3.75,5.43-5.54
		c1.67-1.61,2.73-3.51,3.24-5.75c0.38-1.63,0.79-3.26,1.62-4.74c0.59-1.05,1.43-1.82,2.48-2.36c0.52-0.26,1.08-0.59,1.68-0.16
		c0.25,1.57-0.36,2.79-1.71,3.51C526.56,268.93,526.49,269.17,526.7,269.66z"/>
	<path style="fill-rule:evenodd;clip-rule:evenodd;fill:#C5BDB8;" d="M429.17,301.6c-0.5,2.97-0.98,5.95-1.51,8.92
		c-0.2,1.12-3.15,3.45-4.17,3.38c-0.5-0.03-0.3-0.41-0.3-0.62c-0.01-2.61,0.16-5.24-0.04-7.84c-0.23-2.89-0.09-5.79-0.55-8.67
		c-0.2-1.27-0.43-2.61,0.35-3.83c0.54,0.36,0.7,0.96,0.93,1.5C425.11,297.24,426.73,299.72,429.17,301.6z"/>
	<path style="fill-rule:evenodd;clip-rule:evenodd;fill:#E7B68B;" d="M508.4,315.75c-1.8,0.31-3.56,0.75-5.29,1.38
		c-0.76,0.28-1.69,0.24-2.44-0.24c-2.11-1.38-4.52-1.47-6.9-1.57c-2.02-0.09-3.9-0.36-5.17-2.18c-0.35-0.5-0.8-0.6-1.34-0.31
		c-2.03-1.12-3.59-2.81-5.07-4.52c-2.54-2.94-4.74-6.13-6.44-9.64c-0.4-0.83-0.93-1.73-0.22-2.68c0.15,0.04,0.3,0.08,0.46,0.12
		c0.09,0.06,0.17,0.04,0.21-0.06l-0.01,0c0.67-0.06,0.7,0.49,0.9,0.91c2.52,5.38,5.76,10.21,10.52,13.89
		c2.5,1.93,5.4,2.69,8.49,2.89c2.31,0.15,4.62,0.3,6.93,0.38c2.48,0.09,4.7-0.54,5.88-3.06c0.1-0.22,0.27-0.39,0.44-0.57
		c0.25,0.01,0.49,0.02,0.74,0.03c0.47,0.17,0.96-0.02,1.43,0.13c0.36,0.39,0.25,0.82,0.09,1.23
		C510.96,313.52,510,314.9,508.4,315.75z"/>
	<path style="fill-rule:evenodd;clip-rule:evenodd;fill:#8E5C9D;" d="M522.08,318.4c-1.32-0.01-2.63-0.01-3.95-0.03
		c-0.63-0.01-0.97-0.19-0.74-0.95c0.26-0.88,0.39-1.82,0.96-2.54c0.51-0.64,1-1.57,2.1-0.66c0.42,0.35,0.91-0.08,1.33-0.27
		c4.49-2.02,8.77-4.37,11.95-8.29c0.57-0.34,1,0.02,1.41,0.32c1.51,1.14,3.18,1.98,4.88,2.77c1.93,0.9,3.41,2.33,4.51,4.15
		c0.09,0.07,0.18,0.14,0.27,0.21c0.03,0.38,0.06,0.76,0.09,1.14c0.15,0.74-0.19,0.81-0.68,0.42c-0.44-0.35-0.67-0.89-0.94-1.38
		c-1.04-1.83-2.6-2.98-4.58-3.63c-2.38-0.77-4.53-0.43-6.29,1.4c-1.29,1.34-2.83,2.19-4.57,2.74c-0.34,0.11-0.67,0.26-1.01,0.38
		C524.7,314.97,522.89,316.12,522.08,318.4z"/>
	<path style="fill-rule:evenodd;clip-rule:evenodd;fill:#ECC4A1;" d="M491.58,264.4c-0.5,3.02-0.12,5.94,1,8.77
		c0.16,0.4,0.27,0.84,0.7,1.06c0.02,0.03,0.06,0.06,0.07,0.1c0.39,2.19,0.39,2.18,2.63,2.51c0.79,0.12,1.56,0.34,2.14,0.95
		c0.06,0.1,0.1,0.2,0.13,0.31c-0.01,0.95,0.86,0.54,1.29,0.83c1.27,1.37,1.37,3.04,0.15,4.32c-0.56,0.59-0.84,1.44-1.63,1.82
		c-2.33-0.64-3.73-2.41-4.97-4.27c-1.08-1.62-1.96-3.38-2.92-5.08c-0.04-0.07-0.11-0.15-0.09-0.22c0.32-1.45-0.21-2.08-1.72-1.85
		c-0.22,0.03-0.4-0.24-0.35-0.53c0.07-0.43,0.34-0.81,0.74-0.85c1.7-0.17,1.63-1.31,1.71-2.61c0.11-1.85,0.14-3.75,0.85-5.52
		C491.49,264.15,491.52,264.29,491.58,264.4z"/>
	<path style="fill-rule:evenodd;clip-rule:evenodd;fill:#D1C7BF;" d="M441.44,254.56c0.27-0.87,0.82-0.42,1.23-0.21
		c4.07,2.11,6.19,5.65,6.9,10.02c1.06,6.57,0.55,13.21,0.43,19.8c-0.08,4.14-0.2,8.35-1.56,12.37c-0.14,0.41-0.18,0.89-0.74,0.97
		c-0.05-0.05-0.07-0.11-0.05-0.17c-0.09-0.17-0.07-0.37-0.17-0.54c-0.02-0.22-0.05-0.45-0.07-0.67c-0.1-0.16-0.08-0.37-0.17-0.53
		c-0.08-0.48-0.16-0.96-0.25-1.45c0.22-0.25,0.28-0.55,0.35-0.87c0.42-2.16,0.52-4.35,0.71-6.53c0.4-4.58,0.19-9.17,0.29-13.75
		c0.08-3.6,0.09-7.27-1.2-10.76c-0.93-2.53-2.52-4.51-4.77-5.96c-0.34-0.22-0.65-0.47-0.95-0.72
		C441.29,255.22,441.26,254.89,441.44,254.56z"/>
	<path style="fill-rule:evenodd;clip-rule:evenodd;fill:#D0C6BE;" d="M429.17,301.6c-1.8-0.32-2.44-1.94-3.39-3.14
		c-1.28-1.63-2.16-3.53-2.82-5.51c-0.08-6.46-0.17-12.91-0.26-19.37c-0.39-2.18,0.17-4.25,0.69-6.34c0.93-3.76,2.24-7.32,4.72-10.35
		c1.13-1.38,2.58-2.37,4.23-3.03c0.46-0.18,0.97-0.46,1.44,0.01c-0.03,0.15-0.06,0.3-0.09,0.46c-0.04,0.1-0.13,0.18-0.15,0.3
		c-0.02,0.14-0.04,0.28-0.06,0.42c-0.08,0.11-0.09,0.24-0.09,0.37c0,0.13-0.03,0.25-0.11,0.36l0-0.01c-0.1,0.07-0.2,0.08-0.3,0.02
		c-0.07,0.01-0.14-0.01-0.19-0.06c-0.11-0.08-0.23-0.09-0.36-0.09c-0.13,0-0.25,0.01-0.35,0.09c-0.05,0.05-0.11,0.07-0.18,0.05
		c-0.12,0.03-0.21,0.11-0.3,0.19c-0.05,0.05-0.11,0.07-0.18,0.05c-0.12,0.03-0.21,0.11-0.3,0.19c-0.16,0.09-0.31,0.18-0.47,0.27
		c-0.07,0.07-0.16,0.13-0.25,0.18c-0.15,0.1-0.31,0.2-0.46,0.3c-0.09,0.07-0.18,0.15-0.27,0.21l-0.02,0.01
		c-0.05,0.08-0.12,0.14-0.21,0.17c-0.23,0.19-0.46,0.38-0.68,0.57c-0.12,0.06-0.21,0.15-0.27,0.27c-0.27,0.31-0.53,0.61-0.8,0.92
		c-0.04,0.09-0.11,0.16-0.18,0.23l0,0c-0.08,0.09-0.17,0.18-0.22,0.28c0,0.08-0.03,0.15-0.09,0.21c-0.04,0.09-0.09,0.17-0.17,0.23
		c-0.09,0.16-0.17,0.32-0.26,0.48c-0.09,0.1-0.17,0.19-0.19,0.33c-0.03,0.13-0.06,0.26-0.09,0.39c-0.06,0.1-0.11,0.19-0.16,0.29
		c-0.02,0.14-0.04,0.29-0.06,0.43c-0.15,0.23-0.02,0.53-0.18,0.76c0,0.45,0,0.89,0,1.34c0.11,0.19,0.12,0.37-0.03,0.54
		c-1.08,1.33-1.06,3.03-1.46,4.58c-1.13,4.29-2.02,8.73-1.53,13.08c0.63,5.54,1.7,11.12,5.34,15.72c0.36,0.45,0.71,1,1.44,0.93
		c-0.07,0.24-0.14,0.49-0.22,0.73c-0.12,0.16-0.09,0.37-0.19,0.53c-0.02,0.14-0.04,0.29-0.06,0.43c-0.1,0.17-0.1,0.38-0.17,0.56
		C429.21,301.34,429.19,301.47,429.17,301.6z"/>
	<path style="fill-rule:evenodd;clip-rule:evenodd;fill:#C5BDB8;" d="M473.55,313.59c-1.55,0.4-2.97,0.36-4.13-0.99
		c-0.43-0.5-0.97-0.46-1.59-0.09c-1.19,0.7-2.48,0.71-3.59-0.15c-0.68-0.53-1.26-0.54-1.97-0.21c-0.54,0.25-1.09,0.55-1.66,0.66
		c-1.07,0.2-1.95-0.02-1.89-1.41c0.01-0.16,0-0.32,0-0.48c-0.02-4.22,0.08-4.41,3.68-6.45c0.12-0.07,0.27-0.1,0.41-0.14
		c-0.03,0.22-0.01,0.47-0.1,0.67c-0.59,1.31-1.16,2.62-0.89,4.13c0.13,0.72,0.24,1.5,0.98,1.79c0.77,0.3,1.41-0.19,1.86-0.77
		c1.67-2.12,4.07-3.39,5.99-5.23c0.14-0.13,0.39-0.34,0.48-0.29c0.27,0.14,0.09,0.43,0.02,0.61c-0.42,1.12-0.88,2.22-0.92,3.43
		c-0.03,1-0.21,2.22,0.71,2.75c0.86,0.5,1.62-0.5,2.4-0.91C473.96,311.5,473.82,312.54,473.55,313.59z"/>
	<path style="fill-rule:evenodd;clip-rule:evenodd;fill:#8A5096;" d="M522.08,318.4c-0.16-1.41,0.79-2.22,1.71-2.96
		c0.67-0.54,1.48-0.97,2.29-1.28c2.38-0.91,4.67-1.81,6.58-3.71c3.22-3.2,9.02-0.84,10.83,2.53c0.26,0.49,0.56,0.97,0.86,1.44
		c0.34,0.53,0.47,0.22,0.56-0.16c0.42,1.27,0.41,2.63,0.18,3.86c-0.2,1.08-1.38,0.31-2.11,0.46c0.95-3.24-0.72-7.59-4.62-8
		c-2.24-0.23-3.67,1.08-4.89,2.64c-1.07,1.37-2.22,2.38-4.05,2.65c-1.68,0.25-3.28,0.84-4.5,2.24c-0.64,0.73-1.76,0.11-2.64,0.33
		C522.2,318.45,522.14,318.43,522.08,318.4z"/>
	<path style="fill-rule:evenodd;clip-rule:evenodd;fill:#675E57;" d="M433.29,259.21c0.25,2.09,0.48,4.81,0.91,7.51
		c0.42,2.65,0.21,2.95-2.42,2.53c-3.78-0.6-5.92-5.09-4.06-8.5c0.85-1.55,2.02-2.75,3.68-3.42
		C433.09,256.64,433.29,256.78,433.29,259.21z"/>
	<path style="fill-rule:evenodd;clip-rule:evenodd;fill:#9364A2;" d="M531.66,295.09c1.11-0.47,1.91-0.13,2.38,0.97
		c1.98,4.61,0.82,8.17-3.86,11.92c-2.19,1.75-4.54,3.25-7.08,4.41c-2.85,1.31-2.24,1.03-2.94-1.42c0.21-0.58,0.74-0.54,1.19-0.62
		c2.84-0.45,5.03-1.9,6.66-4.25c1.34-1.93,2.73-3.85,3.47-6.12C532,298.39,532.38,296.75,531.66,295.09z"/>
	<path style="fill-rule:evenodd;clip-rule:evenodd;fill:#ECC4A0;" d="M523.99,264.44c0.08-0.01,0.17-0.03,0.25-0.04
		c0.55,0.05,0.36,0.41,0.25,0.67c-0.18,0.44-0.52,0.8-0.8,1.19c-0.73,1.03-1.21,2.13-1.31,3.41c-0.09,1.19-0.31,2.37-0.51,3.55
		c-0.45,2.56-2.04,4.36-3.96,5.93c-1.11,0.91-2.33,1.68-3.51,2.49c-1.04,0.71-2.2,0.93-3.42,0.51c-0.44-0.15-0.97-0.32-0.68-1
		c0.11-0.15,0.21-0.29,0.32-0.44c0.05-0.08,0.11-0.16,0.18-0.22l0.01-0.01c0.08-0.08,0.17-0.15,0.22-0.26v0.02
		c2.46,0.01,4.37-1.26,6.22-2.66c3.45-2.62,3.6-6.86,0.96-10.14c-1.17-1.46-2.9-1.88-4.77-1.64c-0.58,0.07-1.18,0.32-1.69-0.19
		c2.04-1.18,4.37-1.32,6.58-1.86c1.31-0.32,2.67-0.48,3.97-0.83c0.9-0.24,1.25-0.2,0.8,0.81c-0.11,0.24-0.1,0.56,0.2,0.74
		C523.53,264.55,523.76,264.56,523.99,264.44z"/>
	<path style="fill-rule:evenodd;clip-rule:evenodd;fill:#737577;" d="M427.44,316.23c3.69,0.11,7.38,0.47,11.07-0.17
		c0.6-0.1,1.29,0.03,1.88,0.22c0.67,0.21,1.11,0.88,1.22,1.49c0.11,0.61-0.69,0.44-1.07,0.65c-2.73,1.48-5.76,0.79-8.65,1.1
		c-2.57,0.27-5.18,0.07-7.78,0.1c-0.94,0.01-1.69-0.43-1.58-1.33c0.1-0.84-0.21-2.26,1.54-2.08
		C425.19,316.32,426.32,316.23,427.44,316.23z"/>
	<path style="fill-rule:evenodd;clip-rule:evenodd;fill:#6B6C63;" d="M459.19,248.61c-0.02-3.47-0.14-2.75,2.81-2.27
		c2.54,0.41,5.09,0.85,7.64,1.22c0.68,0.1,0.87,0.4,0.86,1.02c-0.02,1.29,0.35,3.08-0.64,3.64c-0.91,0.52-2.51-0.18-3.81-0.32
		c-1.58-0.17-3.16-0.36-4.75-0.44c-2.11-0.11-2.11-0.06-2.11-2.13C459.19,249.09,459.19,248.85,459.19,248.61z"/>
	<path style="fill-rule:evenodd;clip-rule:evenodd;fill:#FEFEFE;" d="M413.81,286.47c0.18-3.43,0.28-6.86,0.99-10.23
		c0.4-1.91,1.04-3.71,3-4.61c0.17-0.08,0.54-0.58,0.59,0.01c0.12,1.53,1.18,1.4,2.18,1.31c0.85-0.08,1.18,0.23,1.05,1.06
		c-0.02,0.12,0.02,0.24,0.03,0.36c0.17,3.33-0.51,4.36-3.62,5.63c-1.56,0.64-2.3,2.05-2.93,3.48c-0.58,1.32-0.94,2.71-1.06,4.15
		C413.38,287.35,413.82,286.87,413.81,286.47z"/>
	<path style="fill-rule:evenodd;clip-rule:evenodd;fill:#CDC4BD;" d="M467.26,288.37c0.52,0.17,1.04,0.35,1.55,0.52
		c-0.43,0.63-1.23,1.14-0.73,2.08c0.47,0.89,1.32,0.51,2.04,0.54c0.32,0.01,0.64-0.02,0.95-0.06c1.43-0.18,2.63,0.57,2.96,1.87
		c0.02,0.09-0.03,0.3-0.04,0.3c-0.23-0.01-0.47-0.01-0.68-0.09c-1.26-0.49-2.52-0.97-3.89-1.1c-1.38-0.13-2.7-0.02-3.97,0.58
		c-0.56-0.03-0.73-0.48-0.94-0.88c-0.32-0.65-0.83-0.69-1.4-0.4c-0.55,0.28-0.99,0.13-1.42-0.23c-1.55-1.21-2.92-2.59-3.95-4.29
		c-0.37-3.6-0.22-7.19,0.02-10.79c0.1-0.09,0.21-0.11,0.33-0.05c0.16,0.1,0.28,0.24,0.35,0.41c0.47,1.69,0.47,3.45,0.9,5.15
		c0.52,2.04,1.3,3.91,2.9,5.36c0.45,0.41,0.91,0.77,1.47,0.98c0.88,0.82,1.83,0.97,2.87,0.29
		C466.79,288.42,467.01,288.33,467.26,288.37z"/>
	<path style="fill-rule:evenodd;clip-rule:evenodd;fill:#E4D6C9;" d="M444.12,277.36c-0.02-0.31-0.03-0.62-0.05-0.92
		c-0.11-0.15-0.08-0.36-0.18-0.52c-0.02-0.32-0.04-0.63-0.05-0.95c-0.19-0.21-0.04-0.51-0.19-0.73c-0.02-0.32-0.03-0.63-0.05-0.95
		c-0.2-0.21-0.03-0.51-0.2-0.73c-0.02-0.31-0.03-0.63-0.05-0.94c-0.19-0.21-0.04-0.51-0.19-0.74c-0.02-0.32-0.03-0.64-0.05-0.96
		c-0.24-0.29,0-0.67-0.2-0.97c-0.02-0.3-0.04-0.61-0.06-0.92c-0.16-0.23-0.04-0.53-0.17-0.76c-0.26-2.31-0.52-4.62-0.78-6.93
		c-0.16-0.27-0.1-0.57-0.08-0.86c0.6-0.65,1.09-0.2,1.51,0.21c0.91,0.88,1.45,2,1.87,3.17c0.79,2.2,1.14,4.5,1.16,6.82
		c0.05,3.67,0.01,7.35,0.02,11.03c0,1.05-0.17,2.07-0.31,3.1c-0.05,0.38-0.07,0.96-0.77,0.74c-0.02-0.13-0.04-0.27-0.06-0.4
		c-0.14-0.25-0.02-0.55-0.18-0.8c-0.02-0.21-0.04-0.43-0.06-0.65c-0.14-0.25-0.02-0.55-0.18-0.79c-0.02-0.22-0.04-0.45-0.06-0.67
		c-0.16-0.23-0.03-0.53-0.18-0.77c-0.02-0.29-0.05-0.58-0.07-0.87c-0.13-0.26-0.02-0.56-0.17-0.81c-0.01-0.24-0.02-0.48-0.03-0.72
		C444.11,277.88,444.28,277.58,444.12,277.36z"/>
	<path style="fill-rule:evenodd;clip-rule:evenodd;fill:#EABE98;" d="M498.08,278.08c-0.76-0.64-1.64-0.94-2.62-0.96
		c-2.25-0.05-2.75-0.73-2.18-2.89c0.32,0.02,0.64,0.04,0.96,0.05c0.19,0.12,0.4,0.06,0.61,0.09c0.1,0.03,0.18,0.09,0.24,0.18
		c0.21,0.46-0.2,0.72-0.33,1.08c0.2,0.54,0.62,0.38,1.01,0.32c1.93,0.27,3.57,1.07,4.77,2.63c0.29,0.38,0.56,0.78,0.93,1.09
		c0.4,0.33,0.87,0.51,1.32,0.19c1.57-1.09,3.05-2.29,3.94-4.05c0.25-0.66-0.01-1.24-0.24-1.85c-0.17-0.46-0.63-0.88-0.3-1.45l0,0.01
		c0.1-0.04,0.19-0.1,0.27-0.17c0.08-0.02,0.15-0.04,0.23-0.06c1.27,0.99,1.55,2.4,1.35,3.83c-0.19,1.31,0.04,2.24,1.2,2.92
		c0.35,0.21,0.78,0.47,0.62,1.03c-0.48,0.93-1.12,1.71-1.99,2.31c-0.81,0.19-1.65,0.11-2.47,0.24c-1.96,0.32-3.3,1.62-4.69,2.85
		c-0.92,0.09-1.82,0.07-2.65-0.41c0.32-0.74,0.74-1.39,1.33-1.97c1.21-1.19,1.12-2.85-0.16-4.09c-0.07-0.1-0.16-0.18-0.2-0.3
		c-0.04-0.07-0.08-0.13-0.12-0.19c0,0-0.08-0.08-0.08-0.08c-0.07-0.04-0.14-0.07-0.21-0.09c-0.08-0.02-0.16-0.04-0.24-0.06
		C498.26,278.26,498.17,278.17,498.08,278.08z"/>
	<path style="fill-rule:evenodd;clip-rule:evenodd;fill:#E8B98F;" d="M510.29,281.15c0.72,1.27,2.04,1.17,2.9,0.68
		c3.44-1.98,7.06-3.89,8.21-8.17c0.32-1.18,0.6-2.41,0.62-3.63c0.02-1.94,0.93-3.42,2.04-4.85c0.18-0.23,0.57-0.41,0.18-0.78
		c0.31-0.15,0.65-0.27,0.94-0.47c0.74-0.5,1.18-0.22,1.47,0.51c0.07,0.05,0.14,0.06,0.22,0.01c0.08-0.02,0.16-0.04,0.24-0.06
		c0.09-0.07,0.17-0.14,0.25-0.21l0.03-0.02c0.05-0.08,0.11-0.13,0.2-0.16c0.35-0.08,0.71-0.26,0.99,0.14
		c0.06,0.07,0.11,0.15,0.15,0.24c0.04,0.24,0.08,0.48,0.12,0.72c-3.2,0.45-4.48,2.85-4.98,5.53c-0.79,4.21-2.9,7.39-6.26,9.92
		c-1.11,0.83-2,1.93-2.76,3.12c-0.65,1.01-1.54,1.29-2.55,0.64c-1-0.65-2.29-0.63-3.19-1.47
		C509.32,282.16,509.73,281.6,510.29,281.15z"/>
	<path style="fill-rule:evenodd;clip-rule:evenodd;fill:#C6BEB8;" d="M471.64,250.76c0.02,2.15,0.04,4.29,0.06,6.44
		c-0.36,0.29-0.75,0.35-1.17,0.14c-0.38-1.78-1.73-1.91-3.23-2.01c-2.78-0.19-5.56-0.46-8.22-1.37c-0.73-0.25-1.17,0.42-1.79,0.33
		c-0.19-3.52,0.45-7.01,0.46-10.52c0-0.61,0.25-0.73,0.81-0.67c4.25,0.47,8.32,1.7,12.41,2.83c0.46,0.13,0.74,0.45,0.59,0.88
		c-0.25,0.69-0.57,0.03-0.79-0.07c-1.9-0.89-3.98-0.66-5.97-1.02c-1.68-0.3-3.39-0.48-5.02-1c-1.14-0.37-1.52,0.34-1.56,1.12
		c-0.09,1.87,0.01,3.75,0,5.63c0,0.73,0.33,0.9,1.02,0.96c3.46,0.28,6.92,0.55,10.36,1.01c1.15,0.15,1.5-0.13,1.59-1.16
		c0.04-0.51,0.17-1.02,0.25-1.53C471.53,250.61,471.59,250.61,471.64,250.76z"/>
	<path style="fill-rule:evenodd;clip-rule:evenodd;fill:#ECC4A0;" d="M477.68,304.93c-1.73-0.06-2.84,0.81-3.55,2.32
		c-0.46,0.97-0.89,1.97-1.77,2.66c-0.6,0.47-0.96,0.38-1.17-0.4c-0.37-1.34,0.1-2.51,0.67-3.66c0.53-1.07,1.16-2.09,1.45-3.26
		c0.05-0.22-0.02-0.46-0.03-0.7c-0.22,0.07-0.45,0.11-0.64,0.22c-2,1.15-3.71,2.77-5.9,3.61c-0.39,0.15-1.1,0.42-1.16,0.32
		c-0.3-0.47,0.18-0.86,0.41-1.23c1.92-2.95,4.96-4.54,7.82-6.34c0.52-0.14,0.72,0.27,0.88,0.6c0.75,1.58,1.79,2.97,2.69,4.46
		C477.65,303.94,478.04,304.37,477.68,304.93z"/>
	<path style="fill-rule:evenodd;clip-rule:evenodd;fill:#DDD1C5;" d="M445.31,284.56c0.86-0.89,0.6-2.08,0.63-3.08
		c0.13-4.18,0.18-8.37,0.01-12.54c-0.12-2.97-0.58-5.95-2.43-8.45c-0.35-0.47-0.61-1.44-1.6-0.89c-0.07,0.11-0.13,0.11-0.2,0
		c-0.02-0.46-0.04-0.91-0.07-1.37c-0.1-0.38-0.27-0.82,0.13-1.09c0.42-0.3,0.85-0.04,1.22,0.2c1.22,0.82,2.1,1.95,2.81,3.22
		c1.37,2.47,1.94,5.17,1.99,7.94c0.09,5.11,0.08,10.22,0,15.33c-0.03,1.75-0.15,3.51-0.37,5.25c-0.07,0.54-0.1,1.13-0.65,1.48
		c-0.26,0.11-0.42,0-0.51-0.24c-0.02-0.21-0.04-0.43-0.07-0.65c-0.08-0.18-0.07-0.38-0.16-0.55
		C445.8,287.6,445.56,286.08,445.31,284.56z"/>
	<path style="fill-rule:evenodd;clip-rule:evenodd;fill:#D5CAC1;" d="M446.49,290.55c0.83-0.53,0.61-1.48,0.66-2.17
		c0.49-6.92,0.42-13.86,0.22-20.78c-0.1-3.42-1.08-6.76-3.74-9.29c-0.26-0.24-0.56-0.45-0.83-0.68c-0.86-0.72-1.16-0.37-1.14,0.6
		c-0.35-0.77-0.17-1.59-0.25-2.39c-0.09-0.14-0.07-0.24,0.08-0.31c2.76,1.01,4.45,3.11,5.63,5.66c1.17,2.53,1.51,5.26,1.52,8.02
		c0.02,4.73,0.14,9.47-0.04,14.19c-0.13,3.28-0.1,6.59-0.87,9.83c-0.11,0.45-0.14,0.88-0.72,0.93c-0.02-0.15-0.03-0.3-0.05-0.45
		c-0.18-0.22-0.03-0.52-0.19-0.75c-0.03-0.21-0.05-0.41-0.08-0.62c-0.06-0.19-0.07-0.4-0.16-0.58c-0.02-0.23-0.04-0.46-0.06-0.68
		C446.35,290.9,446.34,290.72,446.49,290.55z"/>
	<path style="fill-rule:evenodd;clip-rule:evenodd;fill:#ECC4A0;" d="M508.4,315.75c0.94-1.2,2.27-2.09,2.8-3.63
		c0.16-0.45,0.36-0.87,0.33-1.36c0.16-0.28,0.48-0.07,0.69-0.21c1.6-0.91,2.74-2.43,4.38-3.29c0.77-0.41,1.21-0.51,1.46,0.58
		c0.32,1.34,0.87,2.63,1.37,3.93c0.21,0.54,0.12,0.87-0.39,1.16C515.75,314.83,512.18,315.67,508.4,315.75z"/>
	<path style="fill-rule:evenodd;clip-rule:evenodd;fill:#FEFEFE;" d="M421.57,265.68c0,0.12,0,0.24,0,0.36
		c0.03,0.84,0.28,1.75,0.03,2.49c-0.32,0.93-1.44,0.35-2.18,0.66c-1.47,0.6-2.71,1.48-3.84,2.56c-0.19,0.18-0.47,0.51-0.62,0.47
		c-0.33-0.1-0.14-0.48-0.13-0.73c0.07-2.92,0.5-5.79,1.39-8.57c0.41-1.3,1.79-1.72,2.86-0.89c0.52,0.4,1.07,0.18,1.59,0.14
		c0.62-0.06,0.89,0.12,0.84,0.77c-0.04,0.47,0.01,0.96,0.01,1.43c0,0.44,0,0.88,0,1.31C421.53,265.68,421.55,265.68,421.57,265.68z"
		/>
	<path style="fill-rule:evenodd;clip-rule:evenodd;fill:#FEFEFE;" d="M414.34,297.51c-0.15-4.04,0.04-8.05,1.18-11.97
		c0.31-1.08,0.71-2.12,1.41-3.01c0.67-0.85,1.31-1.95,2.51-0.51c0.22,0.26,0.76,0.44,1.09,0.37c1.38-0.3,1.29,0.57,1.28,1.45
		c-0.01,0.88-0.03,1.76,0.07,2.63c0.06,0.61-0.27,0.77-0.71,0.91c-3.19,1.06-5.46,3-6.1,6.46c-0.22,1.21-0.36,2.44-0.54,3.67
		C414.47,297.63,414.4,297.63,414.34,297.51z"/>
	<path style="fill-rule:evenodd;clip-rule:evenodd;fill:#FDFDFD;" d="M421.7,292.91c0.35,1.14-0.25,1.85-1.19,2.28
		c-3.26,1.47-4.13,4.07-4.14,7.47c-0.01,4.79,0.13,9.58,0.18,14.37c0,0.4,0.01,0.8,0.01,1.2c0.01,0.3-0.13,0.44-0.43,0.42
		c-0.23-0.02-0.46-0.04-0.7-0.06c0.08-0.17,0.17-0.34,0.25-0.5c0.34-0.63,0.26-1.29,0.2-1.98c-0.63-7.05-0.73-14.11,0.13-21.15
		c0.21-1.71,0.89-3.32,2.35-4.43c0.33-0.25,0.73-0.67,0.78,0.24c0.04,0.7,0.71,0.65,1.11,0.57C421.7,291.02,422,291.67,421.7,292.91
		z"/>
	<path style="fill-rule:evenodd;clip-rule:evenodd;fill:#EAE01B;" d="M508.45,248.54c5.35,0.29,10.44,1.68,15.34,3.8
		c0.36,0.59,0.47,1.17-0.03,1.75c-5.15-1.96-10.8-1.16-16-2.88c-0.34-0.11-0.69-0.18-1.03-0.27c-0.55-0.7-0.59-1.53-0.12-2.18
		C507.03,248.14,507.81,248.46,508.45,248.54z"/>
	<path style="fill-rule:evenodd;clip-rule:evenodd;fill:#C5BDB8;" d="M457.75,287.2c1.49,1.21,2.44,2.97,4.09,4.01
		c-0.16,0.39-0.58,0.37-0.87,0.55c-0.59,0.36-0.85,0.88-0.55,1.5c0.35,0.73,0.84,0.33,1.27,0.04c0.36-0.24,0.72-0.33,1.09-0.02
		c0.79,0.66,1.2,0.18,1.54-0.5c0.14-0.27,0.12-0.64,0.46-0.79c0.23,0.34,0.45,0.67,0.68,1.01c-0.94,0.85-1.55,1.82-1.16,3.15
		c0.09,0.3,0,0.47-0.23,0.58c-1.97,0.91-3.11,2.69-4.46,4.25c-0.17,0.2-0.31,0.55-0.62,0.45c-0.1-0.03-0.09-0.44-0.1-0.67
		C458.67,296.22,457.8,291.75,457.75,287.2z"/>
	<path style="fill-rule:evenodd;clip-rule:evenodd;fill:#E9BC94;" d="M477.68,304.93c-1.05-2.29-2.52-4.34-3.86-6.46
		c-0.09-0.23-0.18-0.45-0.27-0.68c-0.04-0.95-0.68-1.91,0.05-2.85c0.65,0.35,1.3,0.7,1.95,1.05c-0.26,1.73,0.65,3.12,1.46,4.44
		c2.66,4.34,5.51,8.54,9.66,11.67c0.24,0.18,0.4,0.48,0.6,0.72c-1.03,0.55-2.14,0.62-3.26,0.51c-1.2-0.11-2.1-0.64-2.5-1.87
		c-0.45-1.36-0.93-2.71-1.44-4.04C479.62,306.27,478.94,305.31,477.68,304.93z"/>
	<path style="fill-rule:evenodd;clip-rule:evenodd;fill:#FDFDFD;" d="M417.38,312.6c0.17-4.1,0.33-8.21,0.52-12.31
		c0.02-0.47,0.09-0.96,0.27-1.39c0.4-0.97,0.9-1.89,2.16-0.94c0.44,0.33,1.31-0.03,1.41,0.59c0.19,1.17,0.48,2.49,0.11,3.54
		c-0.29,0.82-1.36,1.38-1.87,2.35c-0.75,1.43-1.1,2.88-1.13,4.45c-0.05,3.14,0.19,6.28-0.26,9.4c-0.02,0.14,0.08,0.32-0.13,0.36
		c-0.09,0.02-0.23-0.06-0.31-0.13c-0.56-0.49-0.66-1.17-0.67-1.84c-0.04-1.35-0.01-2.71-0.01-4.07
		C417.44,312.61,417.41,312.6,417.38,312.6z"/>
	<path style="fill-rule:evenodd;clip-rule:evenodd;fill:#5EA768;" d="M514.16,248.52c-2.07-0.24-4.15-0.49-6.22-0.73
		c-0.17-0.55-0.65-0.64-1.11-0.78c-1.45-0.45-2.94-0.72-4.4-1.13c-0.71-0.2-1.51-0.27-2.01-0.94c0.34-0.24,0.67-0.48,1.01-0.71
		c0.08-0.06,0.15-0.12,0.24-0.18c0.17-0.08,0.34-0.17,0.51-0.25c1.85,0.12,3.61,0.66,5.33,1.26c2.62,0.91,5.3,1.18,8.01,0.92
		c1.49-0.14,2.96-0.1,4.4,0.09c2.09,0.26,4.18,0.46,6.26,0.8l-0.02-0.01c0.07,0.11,0.17,0.19,0.28,0.25c0.39,0.4,0.79,0.8,1.18,1.21
		c-0.53,0.64-1.27,0.57-1.98,0.62c-2.29,0.17-4.52-0.36-6.77-0.59C517.3,248.19,515.72,248.04,514.16,248.52z"/>
	<path style="fill-rule:evenodd;clip-rule:evenodd;fill:#4A9F5A;" d="M514.16,248.52c0.34-0.72,1.02-0.63,1.63-0.67
		c2.04-0.14,4.04,0.17,6.04,0.5c1.95,0.32,3.87,0.3,5.8-0.03c1.41,1.49,2.36,3.28,3.2,5.13c0.11,0.23,0.18,0.62,0.05,0.79
		c-0.25,0.35-0.45-0.11-0.67-0.19c-3.98-1.37-7.63-3.57-11.75-4.57l-0.1-0.06l-0.11,0.04c-0.25-0.07-0.5-0.14-0.75-0.22l-0.1-0.06
		l-0.11,0.04c-0.25-0.07-0.5-0.14-0.75-0.22c-0.14-0.1-0.29-0.09-0.44-0.04c-0.25-0.06-0.51-0.13-0.76-0.2
		c-0.07-0.06-0.14-0.06-0.22-0.02C514.81,248.67,514.48,248.59,514.16,248.52z"/>
	<path style="fill-rule:evenodd;clip-rule:evenodd;fill:#EFCEAE;" d="M511.74,265.59c1.61-0.04,3.21-0.5,4.81,0.23
		c3.55,1.63,4.98,7.11,2.63,10.24c-1.56,2.09-3.77,3.26-6.06,4.31c-0.69,0.32-1.41,0.05-2.1-0.14c0.33-0.56,0.65-1.11,0.98-1.67
		c0.17,0.08,0.34,0.21,0.53,0.23c1.96,0.18,5.43-2.36,6.14-4.47c0.76-2.28-0.29-5.21-2.38-6.48c-2.18-1.32-4.07-0.1-5.95,0.8
		c-0.85,0.41-1.62,1.01-2.42,1.52c-0.03-0.76,0.63-0.96,1.09-1.27C510.26,268.06,511.27,267.05,511.74,265.59z"/>
	<path style="fill-rule:evenodd;clip-rule:evenodd;fill:#E4AD7C;" d="M509.36,310.5c-0.35,1.86-2.05,3.68-3.98,3.76
		c-4.98,0.2-10.02,0.41-14.79-1.4c-4.1-1.55-6.93-4.74-9.34-8.25c-1.79-2.61-3.88-5.07-4.69-8.26c-0.03-0.12-0.23-0.2-0.35-0.3
		c0-0.08,0.02-0.15,0.06-0.22c0.13-0.24,0.13-0.47,0-0.71c-0.02-0.14-0.04-0.28-0.06-0.41c-0.02-0.12-0.11-0.2-0.16-0.3
		c-0.02-0.08-0.04-0.16-0.06-0.23c-0.07-0.07-0.12-0.16-0.17-0.24c-0.06-0.06-0.09-0.13-0.08-0.21c-0.06-0.1-0.09-0.21-0.1-0.33
		c0.04-0.62,0.32-1.11,0.85-1.43c0.08,0.08,0.15,0.17,0.23,0.25c0.06,0.1,0.13,0.19,0.22,0.27l0.01,0.01
		c0.07,0.07,0.14,0.14,0.19,0.22c0.18,0.23,0.36,0.46,0.54,0.68c0.15,0.25,0.18,0.53,0.13,0.81c-0.33,1.94,0.36,3.61,1.35,5.21
		c2.11,3.41,4.32,6.73,7.31,9.45c2.61,2.37,5.55,3.78,9.14,3.96c2.47,0.12,4.94,0.23,7.41,0.42c2.17,0.17,4.04-0.42,5.16-2.51
		c0.08-0.14,0.22-0.23,0.37-0.3c0.12-0.07,0.24-0.06,0.36,0.01C509.07,310.47,509.22,310.48,509.36,310.5z"/>
	<path style="fill-rule:evenodd;clip-rule:evenodd;fill:#CCC4BD;" d="M433.79,253.87c-3.19,0.56-5.19,2.65-6.87,5.23
		c-2.27,3.48-2.84,7.56-4.13,11.39c-0.31,0.94-0.08,2.06-0.09,3.1c-0.37-3.21-0.15-6.44-0.22-9.66c0.83-0.86,0.99-2.04,1.44-3.07
		c1.9-4.35,4.71-7.69,9.48-9.02c0.51-0.14,0.93-0.13,1.37,0.11c-0.04,0.08-0.07,0.15-0.11,0.23c-0.05,0.09-0.11,0.17-0.17,0.25
		c-0.03,0.08-0.06,0.16-0.08,0.23c-0.03,0.09-0.09,0.17-0.16,0.23c-0.02,0.08-0.05,0.17-0.07,0.25c-0.04,0.09-0.1,0.17-0.17,0.24
		c-0.02,0.08-0.04,0.16-0.05,0.24C433.89,253.69,433.83,253.78,433.79,253.87L433.79,253.87z"/>
	<path style="fill-rule:evenodd;clip-rule:evenodd;fill:#DE9960;" d="M467.23,297c1.5-0.05,2.85,0.31,4.17,0.76
		c0.25,0.08,0.62,0.22,0.67,0.4c0.09,0.38-0.34,0.49-0.59,0.64c-1.17,0.74-2.27,1.64-3.84,0.8c-0.7-0.37-1.43,0.06-2,0.68
		c-1.7,1.84-3.57,3.49-5.7,4.83c-0.86,0.54-1.1,0.22-1.04-0.68c0.05-0.7,0.26-1.32,0.63-1.91c1.16-1.85,2.88-3.19,4.38-4.73
		C464.76,296.91,466.09,296.93,467.23,297z"/>
	<path style="fill-rule:evenodd;clip-rule:evenodd;fill:#A377AE;" d="M531.66,295.09c0.8,0.33,0.75,1.06,0.73,1.71
		c-0.05,2.41-0.91,4.56-2.18,6.57c-1.47,2.31-2.85,4.67-5.32,6.14c-1.48,0.88-3.16,0.98-4.74,1.46l0,0
		c-0.06-0.08-0.12-0.16-0.17-0.25c-0.26-0.64-0.51-1.29-0.77-1.93c0.34-0.37,0.8-0.29,1.23-0.34c2.59-0.31,4.7-1.39,6.15-3.65
		c1.12-1.74,2.45-3.36,3.13-5.36c0.3-0.88,0.54-1.76,0.21-2.69c0.41-0.4,0.82-0.79,1.23-1.18c0.11-0.05,0.2-0.13,0.26-0.24
		l-0.01,0.01C531.52,295.29,531.61,295.21,531.66,295.09L531.66,295.09z"/>
	<path style="fill-rule:evenodd;clip-rule:evenodd;fill:#84C0D2;" d="M492.59,265.36c0.24-3,1.22-4.17,4.04-4.82
		c1.93-0.44,3.84-0.99,5.87-0.52c1.34,0.31,2.16,1.02,2.58,2.33c0.48,1.53,0.8,3.08,0.65,4.69c-0.91,2.99-3.07,4.54-5.99,5.2
		c-2.16,0.49-4.75-0.52-6.02-2.34c-0.28-0.4-0.52-0.81-0.33-1.33c0.26-0.34,0.56-0.15,0.86-0.08c0.23,0.09,0.44,0.22,0.63,0.38
		c1.62,1.95,3.79,2.48,6.11,1.48c2.28-0.98,3.71-3.31,3.45-5.64c-0.19-1.72-2.05-3.41-3.82-3.6c-2.8-0.3-5.45,1.18-6.35,3.97
		c-0.25,0.33-0.53,0.63-0.91,0.81C492.91,266.01,492.76,265.67,492.59,265.36z"/>
	<path style="fill-rule:evenodd;clip-rule:evenodd;fill:#E4AC7C;" d="M508.64,310.5c-1.4,2.7-3.23,3.6-6.93,3.05
		c-1.98-0.3-3.97-0.25-5.94-0.36c-3.88-0.22-7.01-1.72-9.78-4.33c-3.23-3.05-5.6-6.7-7.78-10.51c-0.91-1.59-0.99-3.24-0.51-4.96
		c0.33,0.24,0.62,0.53,0.75,0.93c-0.78,1.52,0.02,2.83,0.71,4.04c1.74,3.04,3.61,6.04,5.99,8.61c3.07,3.31,6.69,5.53,11.49,5.47
		c2.7-0.03,5.41,0.23,8.13,0.19c1.63-0.03,2.64-0.87,2.91-2.41c0.24,0.02,0.49,0.04,0.73,0.06
		C508.52,310.32,508.6,310.39,508.64,310.5z"/>
	<path style="fill-rule:evenodd;clip-rule:evenodd;fill:#97C297;" d="M507.67,241.88c5.16-1.17,10.02-0.34,14.63,2.19
		c0.11,0.14,0.12,0.29-0.01,0.42c-0.18,0.19-0.43,0.25-0.66,0.21c-3.31-0.6-6.6,0.25-9.9,0.15c-1.89-0.06-3.52-0.96-5.2-1.69
		c-0.32-0.14-0.62-0.39-0.53-0.83l0,0c0.19-0.22,0.5-0.04,0.71-0.21c0.07-0.03,0.15-0.05,0.23-0.05
		C507.16,241.88,507.46,242.04,507.67,241.88z"/>
	<path style="fill-rule:evenodd;clip-rule:evenodd;fill:#C8A2C9;" d="M528.31,298.09c0.08-0.06,0.15-0.12,0.23-0.18
		c0.4,0.34,0.4,0.82,0.22,1.2c-1.34,2.84-2.72,5.7-5.51,7.43c-1.39,0.87-2.98,0.97-4.56,0.35c-0.3-0.88-0.26-1.76,0.61-2.2
		c3.29-1.67,5.96-4.19,8.81-6.45C528.15,298.16,528.22,298.11,528.31,298.09z"/>
	<path style="fill-rule:evenodd;clip-rule:evenodd;fill:#585A52;" d="M431.64,315.29c-1.66,0-4.45,0-7.24-0.01
		c-0.17,0-0.35-0.1-0.52-0.15c0.1-0.16,0.17-0.36,0.3-0.48c1.09-0.93,2.45-1.15,3.79-1.27c2.1-0.2,4.26-0.53,6.31-0.23
		c1.89,0.27,4.08-0.58,5.68,1.15c0.15,0.17,0.48,0.23,0.42,0.51c-0.06,0.3-0.38,0.23-0.6,0.23
		C437.43,315.04,435.13,315.83,431.64,315.29z"/>
	<path style="fill-rule:evenodd;clip-rule:evenodd;fill:#232322;" d="M457.29,254.29c0.55-1.09,1.38-0.86,2.3-0.56
		c2.79,0.89,5.69,1.11,8.59,1.31c1.39,0.1,2.67,0.24,2.33,2.17c0.12,0.19,0.13,0.38,0.03,0.58c-0.11,0.18-0.28,0.3-0.48,0.37
		c-0.5,0.16-1.03,0.19-1.53,0.09c-1.48-0.29-2.97-0.39-4.47-0.31c-1.02-0.4-2.06-0.39-3.13-0.24c-1.42,0.21-2.77,0.04-3.62-1.36
		C457.31,255.66,457.3,254.97,457.29,254.29z"/>
	<path style="fill-rule:evenodd;clip-rule:evenodd;fill:#78BBCD;" d="M493.52,268.49c0.39,2.11,3.47,4.02,5.78,3.54
		c2.62-0.55,4.77-1.77,5.92-4.35c0.11-0.24,0.34-0.42,0.51-0.64c0.27,4.61-0.98,5.96-5.85,6.22c-1.47,0.08-2.95,0-4.43,0.02
		c-1.21,0.02-2.02-0.46-2.37-1.68c-0.59-2.05-1.02-4.1-0.49-6.23c0.21,0.16,0.42,0.32,0.63,0.48
		C493.5,266.7,493.46,267.6,493.52,268.49z"/>
	<path style="fill-rule:evenodd;clip-rule:evenodd;fill:#B88FBD;" d="M518.69,306.89c1.86-0.01,3.88,0.29,5.3-1.24
		c2.06-2.23,4.16-4.5,4.56-7.74c0.46-0.38,0.93-0.77,1.39-1.15c0.71,0.13,0.56,0.69,0.53,1.13c-0.27,3.9-5.34,9.91-9.12,10.77
		c-0.69,0.16-1.42,0.09-2.13,0.13C518.91,308.2,518.66,307.59,518.69,306.89z"/>
	<path style="fill-rule:evenodd;clip-rule:evenodd;fill:#AB7FB2;" d="M537.12,296.33c0.06,0.05,0.09,0.12,0.09,0.2
		c0.06,0.09,0.13,0.17,0.19,0.26c0.24,0.41,0.48,0.81,0.72,1.22c-0.66,1.66-0.25,3.14,0.56,4.68c1.22,2.3,2.72,4.31,4.83,5.85
		c0.38,0.65,0.61,1.36,0.68,2.11c0.14,0.49-0.08,0.84-0.5,0.48c-3.02-2.57-6.76-4.47-8.15-8.58c-0.05-0.15-0.1-0.3-0.03-0.46
		c0.3-1.34,0.25-2.69,0.21-4.04C535.78,296.85,536.15,296.4,537.12,296.33z"/>
	<path style="fill-rule:evenodd;clip-rule:evenodd;fill:#FDFDFD;" d="M420.07,312.65c0-1.83,0-3.67,0-5.5
		c0-0.42-0.02-1.13,0.49-0.96c0.49,0.17,1.39-0.12,1.48,0.98c0.29,3.52,0.23,7-0.46,10.48c-0.19,0.98-0.8,1.04-1.45,0.98
		c-0.82-0.07-0.25-0.74-0.27-1.08c-0.08-1.63-0.03-3.27-0.03-4.9C419.91,312.65,419.99,312.65,420.07,312.65z"/>
	<path style="fill-rule:evenodd;clip-rule:evenodd;fill:#D3C9C0;" d="M470.46,257.62c0.02-0.14,0.04-0.28,0.06-0.42
		c0.4,0,0.79,0,1.19,0c0.39,4.67,0.14,9.34,0.15,14.01c0,0.14-0.1,0.28-0.16,0.43c-0.01-3.05-0.04-6.1,0-9.14
		c0.01-0.9-0.19-1.37-1.17-1.21c-0.72-1.07-1.79-1.09-2.94-1.1c-1.62-0.01-3.29,0.33-4.85-0.42c-0.23-0.13-0.44-0.28-0.63-0.46
		c-0.09-0.1-0.14-0.21-0.17-0.34c0.47-1.12,0.95-1.41,2.08-1.29c2.1-0.65,4.13,0.61,6.21,0.25
		C470.33,257.83,470.42,257.74,470.46,257.62z"/>
	<path style="fill-rule:evenodd;clip-rule:evenodd;fill:#373635;" d="M522.08,262c-3.17,0.72-6.34,1.46-9.53,2.14
		c-0.98,0.21-1.64,0.59-1.98,1.61c-0.29,0.86-0.8,1.67-1.6,2.19c-0.57,0.37-1.08,0.47-1.05-0.5c0-0.04,0-0.08,0-0.12
		c0.14-3.74-0.84-3.01,3.15-4.14c3.62-1.02,7.25-1.86,11.05-1.64C522.23,261.71,522.22,261.86,522.08,262z"/>
	<path style="fill-rule:evenodd;clip-rule:evenodd;fill:#81B784;" d="M506,242.33c2.62,1.8,5.52,2.55,8.64,2.08
		c2.33-0.35,4.62-0.42,6.93-0.04c0.34,0.06,0.63,0.16,0.73-0.3c0.41,0.24,0.81,0.48,1.22,0.72c0.09,0.05,0.17,0.1,0.24,0.17
		c0.16,0.1,0.32,0.21,0.48,0.31c0.09,0.04,0.16,0.1,0.22,0.17l0.01,0.01c0.08,0.08,0.17,0.16,0.27,0.22
		c0.09,0.08,0.19,0.15,0.28,0.23c-0.69,0.61-1.53,0.47-2.28,0.29c-3.21-0.75-6.42-0.6-9.65-0.2c-1.26,0.16-2.47-0.17-3.66-0.52
		c-1.53-0.46-3.02-1.04-4.57-1.45c-0.48-0.13-1.04-0.26-1.02-0.97C504.52,242.69,505.21,242.36,506,242.33z"/>
	<path style="fill-rule:evenodd;clip-rule:evenodd;fill:#75B17A;" d="M503.84,243.05c0.98,1.02,2.43,0.82,3.6,1.36
		c3.06,1.41,6.28,1.38,9.54,0.82c1.46-0.25,2.93,0.1,4.37,0.35c1.22,0.21,2.42,0.43,3.66,0.32c0.52,0.17,0.86,0.54,1.16,0.97
		c-1.21,0.58-2.47,0.13-3.63-0.06c-2.51-0.41-5.01-0.7-7.54-0.41c-4.02,0.46-7.66-1.12-11.41-2.05c-0.49-0.12-1.04-0.11-1.42-0.55
		c0.06-0.03,0.12-0.05,0.19-0.06c0.09-0.06,0.18-0.12,0.26-0.19c0.07-0.03,0.14-0.05,0.21-0.06c0.09-0.05,0.18-0.11,0.27-0.18
		C503.35,243.23,503.6,243.14,503.84,243.05z"/>
	<path style="fill-rule:evenodd;clip-rule:evenodd;fill:#E4D7CA;" d="M435.71,300.88c-0.13-3.3-0.04-6.6,0.21-9.9
		c0.02-0.25-0.1-0.62,0.33-0.64c0.42-0.02,0.7,0.29,0.78,0.63c0.26,1.15,0.49,2.31,0.67,3.48c0.33,2.11,0.61,4.23,0.92,6.35
		c-0.1,0.83-0.76,0.65-1.26,0.66C436.75,301.47,436.15,301.35,435.71,300.88z"/>
	<path style="fill-rule:evenodd;clip-rule:evenodd;fill:#ECC4A0;" d="M473.6,294.94c-0.29,0.95,0.56,1.91-0.05,2.85
		c-1.88-1.78-4.29-1.66-6.61-1.88c-0.51-0.05-1.33,0.37-1.49-0.47c-0.17-0.91,0.41-1.52,1.25-1.78
		C469.21,292.9,471.49,293.48,473.6,294.94z"/>
	<path style="fill-rule:evenodd;clip-rule:evenodd;fill:#BE96C1;" d="M543.52,308.54c-1.44-0.31-2.39-1.41-3.08-2.48
		c-1.29-1.99-3-3.86-2.99-6.49c0-0.63,0.12-1.19,0.69-1.56c0.05,0.04,0.07,0.1,0.06,0.16c0.03,0.13,0.12,0.22,0.22,0.3v0
		c0.07,0.07,0.12,0.15,0.16,0.24C540.53,301.83,542.41,304.99,543.52,308.54z"/>
	<path style="fill-rule:evenodd;clip-rule:evenodd;fill:#9A69A5;" d="M535.52,302.09c1.52,4.03,5.19,6.06,8.15,8.75
		c0.34,0.31,0.46,0.17,0.52-0.19c0.35,0.68,0.46,1.42,0.48,2.17c0.06,0.11,0.04,0.2-0.05,0.29c-0.62-0.29-0.86-0.93-1.28-1.39
		c-1.11-1.21-2.34-2.24-3.89-2.9c-1.61-0.68-3.17-1.5-4.53-2.65c-0.34-0.29-0.73-0.48-1.19-0.52c0.04-0.07,0.08-0.15,0.13-0.22
		c0.07-0.08,0.14-0.17,0.21-0.25c0.09-0.16,0.18-0.31,0.28-0.47c0.07-0.09,0.15-0.17,0.19-0.28
		C534.87,303.65,535.2,302.87,535.52,302.09z"/>
	<path style="fill-rule:evenodd;clip-rule:evenodd;fill:#383636;" d="M434.96,274.73c0.75,4.61,1.34,9.25,1.68,13.91
		c-0.09,0.09-0.12,0.25-0.29,0.25c-1.79-2.16-1.87-4.85-2.05-7.42c-0.16-2.23-0.33-4.52,0.19-6.76
		C434.65,274.58,434.81,274.58,434.96,274.73z"/>
	<path style="fill-rule:evenodd;clip-rule:evenodd;fill:#4FA05E;" d="M500.42,244.94c2.49,0.68,4.97,1.35,7.46,2.06
		c0.22,0.06,0.65,0.02,0.61,0.4c-0.01,0.15-0.35,0.26-0.55,0.39c-3.12-0.31-6.24-0.2-9.37,0.04c-0.28,0.02-0.71,0.2-0.83-0.19
		c-0.05-0.17,0.21-0.49,0.39-0.67C498.86,246.25,499.44,245.36,500.42,244.94z"/>
	<path style="fill-rule:evenodd;clip-rule:evenodd;fill:#C6BFB9;" d="M464.02,257.67c-0.94,0.13-1.61,0.63-1.99,1.5
		c-0.72,0.52-1.46,0.13-2.19,0.02c-1.17-0.17-1.26-0.1-1.26,1.03c0,0.64,0.02,1.27-0.11,1.91c-0.2,1.35-0.24,2.69,0.06,4.02
		c0.16,1.96,0.05,3.89-0.38,5.81c-0.09,0.14-0.22,0.18-0.37,0.1c-0.12-4.64,0.19-9.28-0.3-13.91c-0.24-0.58,0.08-1.21-0.17-1.78
		l0.02-0.03c1.55,1.29,3.34,1.1,5.15,0.87C463.04,257.13,463.55,257.38,464.02,257.67z"/>
	<path style="fill-rule:evenodd;clip-rule:evenodd;fill:#EDCAB0;" d="M509.87,280.08c-0.12-0.44-0.53-0.61-0.86-0.78
		c-1.42-0.74-1.57-1.86-1.26-3.3c0.3-1.37-0.47-2.53-1.04-3.7c0.3-0.16,0.61-0.32,0.91-0.48c0.89,0.92,1.13,2.14,1.48,3.3
		c0.14,0.46,0.16,0.95,0.76,1.06c-0.26,0.36-0.39,0.84,0.1,0.97c2.09,0.57,0.62,1.54,0.32,2.39c-0.06,0.09-0.12,0.18-0.18,0.27
		C510.02,279.89,509.94,279.98,509.87,280.08z"/>
	<path style="fill-rule:evenodd;clip-rule:evenodd;fill:#E9C19D;" d="M476.5,291.96c-0.25,0.49-0.5,0.99-0.74,1.48
		c-0.07,0.08-0.14,0.08-0.21,0c-0.31-0.37-0.68-0.7-0.91-1.11c-1.02-1.82-2.49-2.44-4.5-1.81c-0.28,0.09-0.81,0.09-0.9-0.06
		c-0.21-0.37,0.21-0.63,0.45-0.87c1.45-1.47,3.16-1.55,4.66-0.18C475.17,290.17,475.93,290.99,476.5,291.96z"/>
	<path style="fill-rule:evenodd;clip-rule:evenodd;fill:#D5CAC1;" d="M435.71,300.88c0.97-0.08,1.95,0.72,2.9-0.08
		c0.48,1.03,0.39,2.28,1.15,3.21c0.1,0.07,0.16,0.2,0.31,0.17l0.01,0c-0.31,0.91-1.15,0.96-1.76,0.72
		c-0.87-0.34-2.27,0.43-2.59-1.14C435.72,302.8,435.71,301.84,435.71,300.88z"/>
	<path style="fill-rule:evenodd;clip-rule:evenodd;fill:#D37766;" d="M494.95,274.5c-0.07-0.02-0.15-0.03-0.22-0.04
		c-0.09-0.04-0.12-0.08-0.09-0.11c0.03-0.03,0.06-0.05,0.1-0.05c1.83-0.02,3.67-0.04,5.5-0.06c0.04,0.04,0.07,0.07,0.11,0.11
		c0.18,0.35,0,0.8,0.31,1.1c0.18,0.18,0.43,0.25,0.63,0.41c0.28,0.32,0.6,0.58,1.06,0.59c0.28,0.04,0.55,0.11,0.83,0.07
		c0.62-0.09,1.17-0.35,1.41-0.95c0.25-0.64-0.06-1.15-0.53-1.58c-0.17-0.16-0.4-0.26-0.51-0.48c0.42-0.15,0.85-0.29,1.27-0.44
		c0.61,0.15,0.92,0.6,1.11,1.14c0.51,1.39,0.05,2.34-1.74,3.6c-1.35,0.95-1.94,0.94-3.17-0.09c-0.75-0.62-1.34-1.49-2.46-1.5
		c-0.33-0.48-0.84-0.72-1.35-0.96C496.58,274.62,495.61,275.03,494.95,274.5z"/>
	<path style="fill-rule:evenodd;clip-rule:evenodd;fill:#DB9961;" d="M462.78,308.19c0.11-2.21,1.26-3.93,2.53-5.59
		c0.27-0.35,0.55-0.7,0.87-0.99c0.42-0.37,0.73-1.44,1.42-0.76c0.62,0.6-0.35,1.07-0.72,1.49c-0.85,0.99-2.05,1.72-2.47,3.03
		c-0.27,0.84-0.76,1.89,0.84,1.98c0.28,0.02,0.55,0.12,0.31,0.4c-0.63,0.72-1.2,1.72-2.12,1.86
		C462.64,309.74,462.94,308.72,462.78,308.19z"/>
	<path style="fill-rule:evenodd;clip-rule:evenodd;fill:#E5B284;" d="M500.72,285.48c1.18-2.33,4.73-3.86,7.16-3.1
		C505.87,284.28,503.54,285.46,500.72,285.48z"/>
	<path style="fill-rule:evenodd;clip-rule:evenodd;fill:#CD6056;" d="M503.53,273.5c1.31,0.16,1.63,1.06,1.45,2.14
		c-0.16,0.93-1.62,1.39-2.8,1c-0.21-0.41-0.52-0.66-0.98-0.73c-0.25,0-0.52,0.04-0.71-0.2c0.19-0.54,0.08-1.04-0.25-1.49l0.01,0.01
		C501.34,273.99,502.44,273.75,503.53,273.5z"/>
	<path style="fill-rule:evenodd;clip-rule:evenodd;fill:#E1A36F;" d="M508.87,283.83c0.05,0.37-0.1,0.79,0.43,0.99
		c1.89,0.69,2.91,1.98,2.75,4.07c-0.01,0.14,0.12,0.29,0.18,0.43C509.66,289.43,507.99,286.72,508.87,283.83z"/>
	<path style="fill-rule:evenodd;clip-rule:evenodd;fill:#8E629D;" d="M517.01,305.92c-0.63-0.2-0.8-1.56-0.18-2
		c0.97-0.69,2-1.3,3.03-1.89c0.94-0.54,1.86-1.07,2.59-1.88c0.24-0.27,0.52-0.61,0.9-0.4c0.38,0.22-0.01,0.56-0.01,0.84
		c0.01,0.86-0.66,1.12-1.22,1.46c-1.47,0.92-2.97,1.79-4.59,2.42c-0.52,0.2-0.64,0.5-0.54,0.98
		C516.9,305.62,516.91,305.77,517.01,305.92z"/>
	<path style="fill-rule:evenodd;clip-rule:evenodd;fill:#E3AA79;" d="M524.41,290.35c1.67-0.54,3.05-1.63,4.59-2.42
		c0.16,0.8,0.32,1.59,0.48,2.39c-1.28,0.63-2.44,1.49-3.81,1.94C525.25,291.62,524.83,290.98,524.41,290.35z"/>
	<path style="fill-rule:evenodd;clip-rule:evenodd;fill:#D98C75;" d="M498.54,276.14c0.32-0.33,0.65-0.37,1.02-0.05
		c0.45,0.39,0.91,0.76,1.38,1.12c0.68,0.53,1.25,1.53,2.31,0.79c1.14-0.8,2.75-1.27,2.52-3.2c-0.09-0.74-0.6-1.18-0.97-1.73
		c0.24-0.09,0.48-0.17,0.71-0.26c1.72,1.28,1.72,2.84-0.02,4.69c-0.13,0.14-0.28,0.28-0.43,0.41c-1.82,1.67-2.98,2.25-4.94-0.11
		c-0.6-0.72-1.64-0.78-2.09-1.63C498.2,276.03,498.37,276.01,498.54,276.14z"/>
	<path style="fill-rule:evenodd;clip-rule:evenodd;fill:#C3321B;" d="M496.4,249.5c0.58-0.89,1.51-0.65,2.34-0.71
		c0.31-0.21,0.69-0.01,1.01-0.19c0.24,0,0.49-0.01,0.73-0.01c0.48,0.77,0.58,1.5-0.25,2.12c-0.85,0.09-1.7,0.18-2.55,0.27
		c-0.18,0.09-0.39,0.07-0.56,0.19l-0.11,0.03l-0.12,0c-0.5-0.27-0.72-0.71-0.79-1.25c0.01-0.07,0.04-0.12,0.09-0.17
		C496.25,249.68,496.32,249.59,496.4,249.5z"/>
	<path style="fill-rule:evenodd;clip-rule:evenodd;fill:#E7B98F;" d="M525.67,292.26c1.17-0.84,2.26-1.84,3.81-1.94
		c0.11,0.77-0.4,1.34-0.69,1.97c-0.34,0.75-0.68,1.81-1.51,1.82C526.38,294.11,526.08,293,525.67,292.26z"/>
	<path style="fill-rule:evenodd;clip-rule:evenodd;fill:#E7DE1C;" d="M537.71,258.65c-1.8-0.34-3.23-1.48-4.84-2.2
		c-0.1-0.05-0.17-0.27-0.18-0.41c-0.01-0.23,0.19-0.21,0.34-0.18c1.76,0.41,3.66,0.49,4.99,1.98c0.15,0.16,0.33,0.42,0.3,0.6
		C538.26,258.75,537.92,258.56,537.71,258.65z"/>
	<path style="fill-rule:evenodd;clip-rule:evenodd;fill:#F2F2F2;" d="M470.48,318.2c1.98-0.14,3.96-0.38,5.95-0.24
		c0.41,0.03,1.03,0.02,1.03,0.55c0,0.32-0.6,0.14-0.93,0.19c-2.82,0.42-5.63-0.06-8.45-0.09c-0.09-0.04-0.12-0.08-0.1-0.13
		c0.02-0.05,0.05-0.08,0.07-0.08l0,0C468.86,318.12,469.69,318.43,470.48,318.2z"/>
	<path style="fill-rule:evenodd;clip-rule:evenodd;fill:#DDC621;" d="M508.45,248.54c-2.18-0.36-1.72,1.19-1.73,2.39
		c-0.66,0.08-1.3-0.01-1.93-0.22c-0.48-0.84-0.65-1.65,0.24-2.35C506.18,248.35,507.33,248.2,508.45,248.54z"/>
	<path style="fill-rule:evenodd;clip-rule:evenodd;fill:#9B70A8;" d="M537.12,296.33c-0.76,0.33-1.1,1-1.39,1.71
		c-0.4-1.05-0.8-2.11-1.2-3.16c0.31-0.16,0.62-0.31,0.93-0.47C536.08,295,536.83,295.46,537.12,296.33z"/>
	<path style="fill-rule:evenodd;clip-rule:evenodd;" d="M474.08,309.28c0.51,1.25,0.11,2.57,0.23,3.84c-0.16,0.32-0.4,0.5-0.77,0.46
		c-0.4-1-0.08-2.06-0.2-3.08C473.38,309.97,473.26,309.34,474.08,309.28z"/>
	<path style="fill-rule:evenodd;clip-rule:evenodd;fill:#575757;" d="M414.53,299.65c0,4.1-0.01,8.21-0.01,12.31
		c-0.71-0.69-0.14-1.56-0.32-2.32c-0.05-0.74,0.1-1.48-0.08-2.22c0.07-2.58,0.14-5.17,0.21-7.75
		C414.39,299.57,414.46,299.57,414.53,299.65z"/>
	<path style="fill-rule:evenodd;clip-rule:evenodd;fill:#D49863;" d="M494.99,316.44c0.71,0.09,1.65,0.17,2.58,0.34
		c0.26,0.05,0.77,0.01,0.74,0.38c-0.04,0.36-0.52,0.24-0.82,0.27c-1.2,0.12-2.36-0.04-3.48-0.49c-0.24-0.09-0.66-0.32-0.64-0.38
		c0.12-0.41,0.44-0.08,0.68-0.11C494.27,316.43,494.51,316.44,494.99,316.44z"/>
	<path style="fill-rule:evenodd;clip-rule:evenodd;fill:#D8AC20;" d="M505.04,248.36c-0.43,0.75-0.16,1.57-0.24,2.35
		c-0.48-0.01-0.95-0.02-1.43-0.03c-0.53-0.77-0.54-1.55,0-2.32C503.92,248.36,504.48,248.36,505.04,248.36z"/>
	<path style="fill-rule:evenodd;clip-rule:evenodd;fill:#C4501D;" d="M500.23,250.71c0.41-0.67,0.19-1.41,0.25-2.12
		c0.25-0.06,0.5-0.11,0.75-0.17c1.35,0.21,1.53,0.82,0.7,2.26C501.36,250.69,500.8,250.7,500.23,250.71z"/>
	<path style="fill-rule:evenodd;clip-rule:evenodd;fill:#C87E21;" d="M501.93,250.68c-0.14-0.78,0.89-1.92-0.7-2.26
		c0.71-0.02,1.42-0.04,2.14-0.06c0,0.77,0,1.55,0,2.32C502.89,250.68,502.41,250.68,501.93,250.68z"/>
	<path style="fill-rule:evenodd;clip-rule:evenodd;fill:#DABF21;" d="M523.76,254.08c0.01-0.58,0.02-1.16,0.03-1.74
		c0.47,0.19,0.94,0.38,1.41,0.57c0.13,0.12,0.34,0.07,0.46,0.22l0.01,0c0.32,0.55,0.4,1.09,0,1.64c-0.08-0.02-0.16-0.03-0.24-0.05
		c-0.09-0.04-0.18-0.09-0.25-0.15C524.7,254.41,524.23,254.24,523.76,254.08z"/>
	<path style="fill-rule:evenodd;clip-rule:evenodd;fill:#C1441C;" d="M529.51,255.04c1.42-0.52,1.55,0.69,1.95,1.48
		c0.3,0.61-0.25,0.46-0.47,0.38c-0.51-0.19-0.99-0.46-1.48-0.7c-0.35-0.21-0.72-0.43-0.62-0.91
		C528.96,254.97,529.19,254.83,529.51,255.04z"/>
	<path style="fill-rule:evenodd;clip-rule:evenodd;fill:#A2257E;" d="M421.97,279.8c0.03,0.91-0.57,1.22-1.26,1.35
		c-0.39,0.07-0.89-0.21-0.78-0.66c0.19-0.79,0.88-1.23,1.63-1.38C422.18,278.98,421.91,279.54,421.97,279.8z"/>
	<path style="fill-rule:evenodd;clip-rule:evenodd;fill:#DFA48E;" d="M505.29,277.36c1.68-1.43,1.43-2.97,0.23-4.55
		c0.23-0.1,0.46-0.19,0.69-0.29c0.26,1.13,1.5,2.05,0.75,3.4C506.55,276.58,506.36,277.48,505.29,277.36z"/>
	<path style="fill-rule:evenodd;clip-rule:evenodd;fill:#309047;" d="M420.59,271.71c-0.36-0.07-0.96,0.01-0.9-0.49
		c0.06-0.59,0.48-1.04,1.21-1.05c0.55,0,0.89,0.1,0.9,0.76C421.79,271.88,421.02,271.49,420.59,271.71z"/>
	<path style="fill-rule:evenodd;clip-rule:evenodd;fill:#C26520;" d="M529.51,255.04c-0.98,0.39-0.12,0.78,0,1.16
		c-0.8-0.3-1.6-0.6-2.4-0.91c-0.04-0.39-0.33-0.79,0.01-1.18C528,254.22,528.76,254.62,529.51,255.04z"/>
	<path style="fill-rule:evenodd;clip-rule:evenodd;fill:#D19F22;" d="M527.12,254.12c-0.02,0.39,0.49,0.79-0.01,1.18
		c-0.48-0.18-0.96-0.35-1.44-0.53c0-0.55,0-1.09,0-1.64C526.35,253.18,526.76,253.61,527.12,254.12z"/>
	<path style="fill-rule:evenodd;clip-rule:evenodd;fill:#D69965;" d="M512.74,308.83c-0.05,0.06-0.08,0.14-0.14,0.18
		c-0.88,0.52-1.83,0.67-2.83,0.47c0.5-0.74,1.45-0.65,2.1-1.11c0.21-0.15,0.51-0.17,0.77-0.25
		C512.91,308.32,512.83,308.58,512.74,308.83z"/>
	<path style="fill-rule:evenodd;clip-rule:evenodd;fill:#CCCCCC;" d="M414.28,309.54c0.16,0.8-0.12,1.64,0.25,2.42
		c0,0.47,0,0.94,0,1.41c-0.16,0.54-0.08,1.08-0.01,1.63c0.06,0.46,0.16,0.95-0.25,1.33c-0.32-2.26-0.18-4.53-0.16-6.8
		C414.18,309.41,414.23,309.41,414.28,309.54z"/>
	<path style="fill-rule:evenodd;clip-rule:evenodd;fill:#D7D7D7;" d="M414.27,316.33c0.22-0.98-0.21-2.01,0.26-2.96
		c0.54,1.61-0.3,3.33,0.36,4.93c0.08,0.2,0.05,0.29-0.17,0.28c-0.22-0.01-0.4-0.11-0.41-0.34
		C414.28,317.6,414.28,316.97,414.27,316.33z"/>
	<path style="fill-rule:evenodd;clip-rule:evenodd;fill:#DDC11C;" d="M421.85,288.97c0.08,0.86-0.58,0.84-1.09,1
		c-0.46,0.14-0.41-0.23-0.43-0.49c-0.04-0.75,0.6-0.71,1.05-0.89C421.81,288.42,421.85,288.69,421.85,288.97z"/>
	<path style="fill-rule:evenodd;clip-rule:evenodd;fill:#BD501E;" d="M496.1,249.95c0.36,0.36,0.7,0.73,0.79,1.25
		c-0.5,0.32-1.17,0.5-1.47-0.01C495.16,250.75,495.73,250.3,496.1,249.95z"/>
	<path style="fill-rule:evenodd;clip-rule:evenodd;fill:#9B9A9A;" d="M494.48,318.67c-0.01-0.08-0.01-0.16-0.02-0.25
		c1.06,0.02,2.12,0.03,3.18,0.08c0.15,0.01,0.29,0.2,0.43,0.31c-0.11,0.03-0.23,0.1-0.34,0.09
		C496.65,318.83,495.54,319.04,494.48,318.67z"/>
	<path style="fill-rule:evenodd;clip-rule:evenodd;fill:#0E0C04;" d="M452.04,318.64c-0.37-0.02-0.76,0.03-0.69-0.46
		c0.06-0.45,0.44-0.51,0.81-0.5c0.36,0.01,0.89,0.09,0.87,0.42C452.98,318.6,452.36,318.49,452.04,318.64z"/>
	<path style="fill-rule:evenodd;clip-rule:evenodd;fill:#D5D5D5;" d="M506.69,264.17c-0.24-0.74-0.5-1.48-0.72-2.23
		c-0.08-0.26-0.43-0.51-0.11-0.83c0.16,0.21,0.37,0.41,0.48,0.65c0.36,0.76,0.53,1.58,0.58,2.42
		C506.84,264.28,506.76,264.28,506.69,264.17z"/>
	<path style="fill-rule:evenodd;clip-rule:evenodd;fill:#E5E5E5;" d="M491.58,264.4c-0.09-0.08-0.18-0.17-0.27-0.25
		c0.17-0.9,0.21-1.85,0.8-2.63l-0.02-0.02C492.42,262.56,492.06,263.49,491.58,264.4z"/>
	<path style="fill-rule:evenodd;clip-rule:evenodd;fill:#BCBCBC;" d="M458.47,318.19c1.15-0.05,2.29-0.07,3.43,0.17
		c-0.94,0.42-1.97-0.06-2.92,0.26c-0.75,0.05-1.5,0.1-2.23-0.17C457.27,318.05,457.92,318.47,458.47,318.19z"/>
	<path style="fill-rule:evenodd;clip-rule:evenodd;fill:#F7F7F7;" d="M458.97,318.62c0.93-0.52,1.96,0.04,2.92-0.26
		c0.86,0.02,1.72,0.04,2.58,0.06c0.09,0.04,0.11,0.09,0.08,0.13c-0.03,0.04-0.06,0.06-0.09,0.06
		C462.64,318.61,460.8,318.61,458.97,318.62z"/>
	<path style="fill-rule:evenodd;clip-rule:evenodd;fill:#737272;" d="M457.78,272.07c0.07,0.03,0.14,0.03,0.21,0.01
		c0.66,1.45,0.66,2.9,0,4.34c-0.07,0-0.14,0-0.22,0C457.77,274.96,457.77,273.51,457.78,272.07z"/>
	<path style="fill-rule:evenodd;clip-rule:evenodd;fill:#5F5F5F;" d="M413.81,286.47c0.08,0.38,0.15,0.76,0.23,1.14
		c0.09,0.6-0.19,1.13-0.33,1.69c-0.04-0.56-0.11-1.13-0.11-1.69C413.62,287.23,413.53,286.81,413.81,286.47z"/>
	<path style="fill-rule:evenodd;clip-rule:evenodd;fill:#E7E6E6;" d="M512.74,308.83c-0.11-0.23-0.31-0.44-0.11-0.71
		c0.46-0.14,0.83-0.58,1.38-0.44C513.75,308.25,513.29,308.59,512.74,308.83z"/>
	<path style="fill-rule:evenodd;clip-rule:evenodd;fill:#5F5F5F;" d="M507,264.63c0.07,0.3,0.2,0.6,0.19,0.89
		c-0.02,0.43,0.23,1.16-0.27,1.21c-0.33,0.03-0.19-0.75-0.16-1.18C506.97,265.27,506.67,264.87,507,264.63z"/>
	<path style="fill-rule:evenodd;clip-rule:evenodd;fill:#F9F9F9;" d="M458.47,318.19c-0.52,0.47-1.17,0.01-1.72,0.26
		c-0.59-0.09-1.23,0.17-1.78-0.25c0.57-0.3,1.16-0.07,1.74-0.08C457.29,318.12,457.88,318.16,458.47,318.19z"/>
	<path style="fill-rule:evenodd;clip-rule:evenodd;fill:#C7C7C7;" d="M464.47,318.61c-0.01-0.06,0-0.13,0-0.19
		c1.2-0.01,2.4-0.02,3.59-0.03c0.03,0.07,0.03,0.14,0.02,0.21C466.88,318.6,465.68,318.6,464.47,318.61z"/>
	<path style="fill-rule:evenodd;clip-rule:evenodd;fill:#E2C419;" d="M421.79,296.26c-0.06,0.25,0.13,0.67-0.37,0.68
		c-0.27,0-0.39-0.2-0.39-0.47c0-0.4,0.2-0.73,0.56-0.76C421.9,295.68,421.74,296.05,421.79,296.26z"/>
	<path style="fill-rule:evenodd;clip-rule:evenodd;fill:#C7C7C7;" d="M470.48,318.2c-0.78,0.37-1.61,0.21-2.42,0.19
		C468.85,318.09,469.67,318.18,470.48,318.2z"/>
	<path style="fill-rule:evenodd;clip-rule:evenodd;fill:#CBCBCB;" d="M414.53,299.65l-0.1,0.02l-0.1,0c0-0.72,0.01-1.44,0.01-2.15
		c0.06,0,0.12,0,0.19,0C414.53,298.22,414.53,298.94,414.53,299.65z"/>
	<path style="fill-rule:evenodd;clip-rule:evenodd;fill:#A2A1A1;" d="M414.28,309.54l-0.08-0.01l-0.08,0c0-0.71,0-1.41,0.01-2.11
		C414.49,308.1,414.23,308.83,414.28,309.54z"/>
	<path style="fill-rule:evenodd;clip-rule:evenodd;fill:#A5A5A4;" d="M527.14,262.44c0.18,0.07,0.54-0.12,0.49,0.22
		c-0.02,0.13-0.44,0.22-0.7,0.28c-0.22,0.05-0.43-0.08-0.38-0.3C526.62,262.34,526.93,262.49,527.14,262.44z"/>
	<path style="fill-rule:evenodd;clip-rule:evenodd;fill:#656464;" d="M471.64,250.76c-0.06,0-0.12-0.01-0.18-0.01
		c0.02-0.63,0.04-1.26,0.07-1.89C471.77,249.48,471.71,250.12,471.64,250.76z"/>
	<path style="fill-rule:evenodd;clip-rule:evenodd;fill:#E4AD7C;" d="M512.22,310.54c-0.23,0.07-0.46,0.14-0.69,0.21
		c-0.47-0.12-1,0.13-1.44-0.22C510.8,310.54,511.51,310.54,512.22,310.54z"/>
	<path style="fill-rule:evenodd;clip-rule:evenodd;fill:#D6D6D6;" d="M525.28,294.25c0.36,0,0.41,0.21,0.47,0.39
		c0.08,0.28-0.04,0.47-0.32,0.48c-0.08,0-0.25-0.18-0.25-0.29C525.16,294.63,525.24,294.42,525.28,294.25z"/>
	<path style="fill-rule:evenodd;clip-rule:evenodd;fill:#A7A7A7;" d="M494.67,253.09c0.01,0.07,0.01,0.14-0.01,0.21
		c-0.16,0.02-0.32,0.06-0.47,0.05c-0.3-0.01-0.67,0.45-0.82,0.14c-0.12-0.25,0.38-0.42,0.66-0.56
		C494.22,253.08,494.49,252.92,494.67,253.09z"/>
	<path style="fill-rule:evenodd;clip-rule:evenodd;fill:#232322;" d="M457.31,256.38c0.29,0.57,0.21,1.18,0.17,1.78
		C456.85,257.62,457.47,256.96,457.31,256.38z"/>
	<path style="fill-rule:evenodd;clip-rule:evenodd;fill:#D9D8D8;" d="M420.56,260.85c-0.55,0.12-0.51-0.25-0.6-0.48
		c-0.07-0.2,0.1-0.34,0.23-0.27c0.23,0.13,0.4,0.35,0.59,0.53C420.69,260.73,420.59,260.82,420.56,260.85z"/>
	<path style="fill-rule:evenodd;clip-rule:evenodd;fill:#838383;" d="M421.84,303.89c0.26,0.07,0.19,0.3,0.17,0.46
		c-0.02,0.17,0.08,0.45-0.19,0.45c-0.09,0-0.24-0.28-0.27-0.45C421.5,304.16,421.58,303.96,421.84,303.89z"/>
	<path style="fill-rule:evenodd;clip-rule:evenodd;fill:#5B5A5A;" d="M452.47,312.53c-0.28,0.06-0.42,0.13-0.54,0.1
		c-0.11-0.03-0.2-0.16-0.3-0.24c0.12-0.06,0.24-0.17,0.36-0.16C452.11,312.23,452.22,312.36,452.47,312.53z"/>
	<path style="fill-rule:evenodd;clip-rule:evenodd;fill:#F5F5F5;" d="M507,264.63c-0.08,0.3-0.16,0.61-0.24,0.91
		c-0.03-0.46-0.05-0.91-0.07-1.37c0.08,0.01,0.16,0.01,0.23,0C506.94,264.32,506.97,264.47,507,264.63z"/>
	<path style="fill-rule:evenodd;clip-rule:evenodd;fill:#C5BDB8;" d="M441,251.93c0.33,0.38,0.17,0.83,0.18,1.26
		C440.94,252.79,440.94,252.36,441,251.93z"/>
	<path style="fill-rule:evenodd;clip-rule:evenodd;fill:#C5BDB8;" d="M441.48,255.53c-0.03,0.1-0.05,0.21-0.08,0.31
		c-0.22-0.41-0.21-0.84-0.17-1.28c0.07,0,0.13,0,0.2,0C441.45,254.88,441.47,255.2,441.48,255.53z"/>
	<path style="fill-rule:evenodd;clip-rule:evenodd;fill:#646463;" d="M434.96,274.73c-0.16,0-0.32-0.01-0.48-0.01
		c0.02-0.19,0.06-0.4,0.3-0.34C434.87,274.39,434.91,274.6,434.96,274.73z"/>
	<path style="fill-rule:evenodd;clip-rule:evenodd;fill:#C4501D;" d="M499.75,248.6c-0.29,0.3-0.66,0.17-1,0.19
		C499.04,248.51,499.4,248.57,499.75,248.6z"/>
	<path style="fill-rule:evenodd;clip-rule:evenodd;fill:#848484;" d="M522.08,262c0.01-0.15,0.03-0.31,0.04-0.46
		c0.17,0.03,0.41,0,0.39,0.26C522.48,262.04,522.25,262,522.08,262z"/>
	<path style="fill-rule:evenodd;clip-rule:evenodd;fill:#6F6F6E;" d="M529.52,262c-0.2-0.1-0.57-0.09-0.46-0.43
		c0.04-0.12,0.34,0,0.45,0.18c0.07,0.05,0.09,0.11,0.07,0.16C529.57,261.97,529.55,262,529.52,262z"/>
	<path style="fill-rule:evenodd;clip-rule:evenodd;fill:#DDD1C5;" d="M442.92,268.96c0.3,0.27,0.19,0.63,0.2,0.97
		C442.87,269.65,442.89,269.31,442.92,268.96z"/>
	<path style="fill-rule:evenodd;clip-rule:evenodd;fill:#868585;" d="M479.4,318.12c-0.12,0.11-0.18,0.2-0.27,0.23
		c-0.05,0.02-0.19-0.06-0.19-0.08c0.01-0.1,0.06-0.19,0.09-0.29C479.14,318.02,479.24,318.06,479.4,318.12z"/>
	<path style="fill-rule:evenodd;clip-rule:evenodd;fill:#969696;" d="M524.53,262.76c0.19-0.12,0.29-0.2,0.41-0.25
		c0.02-0.01,0.16,0.15,0.14,0.19c-0.04,0.09-0.13,0.2-0.22,0.23C524.8,262.95,524.7,262.85,524.53,262.76z"/>
	<path style="fill-rule:evenodd;clip-rule:evenodd;fill:#DDD1C5;" d="M444.6,280.49c0.25,0.21,0.2,0.5,0.18,0.77
		C444.72,281,444.66,280.74,444.6,280.49z"/>
	<path style="fill-rule:evenodd;clip-rule:evenodd;fill:#FDFDFD;" d="M494.67,253.09c-0.22-0.05-0.48,0.11-0.64-0.16
		c0.23-0.01,0.45-0.02,0.68-0.03C494.72,252.97,494.71,253.03,494.67,253.09z"/>
	<path style="fill-rule:evenodd;clip-rule:evenodd;fill:#DDD1C5;" d="M442.69,267.29c0.24,0.21,0.2,0.49,0.17,0.76
		C442.8,267.8,442.75,267.54,442.69,267.29z"/>
	<path style="fill-rule:evenodd;clip-rule:evenodd;fill:#81B784;" d="M506.71,242.12c-0.19,0.23-0.45,0.21-0.71,0.21
		C506.19,242.08,506.45,242.07,506.71,242.12z"/>
	<path style="fill-rule:evenodd;clip-rule:evenodd;fill:#81B784;" d="M507.67,241.88c-0.2,0.24-0.46,0.21-0.73,0.19
		C507.14,241.82,507.4,241.84,507.67,241.88z"/>
	<path style="fill-rule:evenodd;clip-rule:evenodd;fill:#DDD1C5;" d="M443.64,274.25c0.24,0.2,0.2,0.47,0.19,0.73
		C443.63,274.77,443.6,274.52,443.64,274.25z"/>
	<path style="fill-rule:evenodd;clip-rule:evenodd;fill:#DDD1C5;" d="M445.07,283.36c0.25,0.22,0.2,0.51,0.18,0.8
		C445.01,283.93,445.03,283.65,445.07,283.36z"/>
	<path style="fill-rule:evenodd;clip-rule:evenodd;fill:#D5CAC1;" d="M441.72,259.6c0.07,0,0.13,0,0.2,0
		c-0.01,0.25-0.01,0.5-0.02,0.75C441.69,260.14,441.68,259.88,441.72,259.6z"/>
	<path style="fill-rule:evenodd;clip-rule:evenodd;fill:#D1C7BF;" d="M446.49,290.55c-0.01,0.18-0.01,0.35-0.02,0.53
		c-0.06-0.25-0.13-0.51-0.19-0.76C446.35,290.4,446.42,290.48,446.49,290.55z"/>
	<path style="fill-rule:evenodd;clip-rule:evenodd;fill:#DDD1C5;" d="M443.16,270.89c0.24,0.2,0.2,0.47,0.19,0.74
		C443.13,271.42,443.13,271.16,443.16,270.89z"/>
	<path style="fill-rule:evenodd;clip-rule:evenodd;fill:#CCC4BD;" d="M426.07,264.65c0.01-0.18,0.02-0.36,0.03-0.54
		c0.06,0.26,0.12,0.51,0.18,0.77C426.21,264.8,426.14,264.72,426.07,264.65z"/>
	<path style="fill-rule:evenodd;clip-rule:evenodd;fill:#DDD1C5;" d="M443.4,272.56c0.24,0.2,0.2,0.47,0.2,0.73
		C443.36,273.1,443.36,272.84,443.4,272.56z"/>
	<path style="fill-rule:evenodd;clip-rule:evenodd;fill:#E8B98F;" d="M523.99,264.44c-0.23,0.25-0.46,0.27-0.7,0.01
		C523.53,264.45,523.76,264.45,523.99,264.44z"/>
	<path style="fill-rule:evenodd;clip-rule:evenodd;fill:#C5BDB8;" d="M426.1,262.77c-0.03-0.27-0.06-0.55,0.18-0.76
		C426.22,262.26,426.16,262.52,426.1,262.77z"/>
	<path style="fill-rule:evenodd;clip-rule:evenodd;fill:#DDD1C5;" d="M444.12,277.36c0.24,0.19,0.21,0.46,0.2,0.72
		C444.12,277.88,444.05,277.64,444.12,277.36z"/>
	<path style="fill-rule:evenodd;clip-rule:evenodd;fill:#DDD1C5;" d="M444.84,281.92c0.25,0.22,0.2,0.51,0.18,0.79
		C444.8,282.49,444.79,282.21,444.84,281.92z"/>
	<path style="fill-rule:evenodd;clip-rule:evenodd;fill:#D1C7BF;" d="M446.76,292.97c0.24,0.21,0.2,0.48,0.19,0.75
		C446.72,293.5,446.71,293.24,446.76,292.97z"/>
	<path style="fill-rule:evenodd;clip-rule:evenodd;fill:#DDD1C5;" d="M444.35,278.8c0.26,0.23,0.2,0.52,0.17,0.81
		C444.3,279.38,444.32,279.09,444.35,278.8z"/>
	<path style="fill-rule:evenodd;clip-rule:evenodd;fill:#DADADA;" d="M530.15,262.53c-0.14-0.17-0.27-0.34-0.41-0.51l0.05-0.06
		c0.29,0,0.44,0.17,0.51,0.43C530.33,262.54,530.28,262.58,530.15,262.53z"/>
	<path style="fill-rule:evenodd;clip-rule:evenodd;fill:#E4AC7C;" d="M476.27,295.13c0.26,0.24,0.26,0.47,0,0.71
		C476.27,295.6,476.27,295.36,476.27,295.13z"/>
	<path style="fill-rule:evenodd;clip-rule:evenodd;fill:#C5BDB8;" d="M447.72,298.01c0.06,0.18,0.11,0.36,0.17,0.54
		C447.84,298.36,447.78,298.19,447.72,298.01z"/>
	<path style="fill-rule:evenodd;clip-rule:evenodd;fill:#E1A16D;" d="M508.64,310.5c-0.08-0.07-0.15-0.14-0.23-0.21
		c0.17,0.05,0.35,0.1,0.52,0.16C508.83,310.46,508.74,310.48,508.64,310.5z"/>
	<path style="fill-rule:evenodd;clip-rule:evenodd;fill:#CDC4BD;" d="M470,288.14c0.16-0.07,0.31-0.15,0.47-0.22
		C470.31,287.99,470.16,288.06,470,288.14z"/>
	<path style="fill-rule:evenodd;clip-rule:evenodd;fill:#D3D2D2;" d="M436.35,288.89c0.1-0.08,0.19-0.17,0.29-0.25
		C436.65,288.84,436.75,289.16,436.35,288.89z"/>
	<path style="fill-rule:evenodd;clip-rule:evenodd;fill:#D1C7BF;" d="M446.05,289.13c0.05,0.18,0.11,0.37,0.16,0.55
		C446.15,289.49,446.1,289.31,446.05,289.13z"/>
	<path style="fill-rule:evenodd;clip-rule:evenodd;fill:#D1C7BF;" d="M446.52,291.77c0.05,0.19,0.11,0.39,0.16,0.58
		C446.63,292.15,446.58,291.96,446.52,291.77z"/>
	<path style="fill-rule:evenodd;clip-rule:evenodd;fill:#C5BDB8;" d="M447.24,295.6c0.06,0.18,0.12,0.35,0.17,0.53
		C447.36,295.96,447.3,295.78,447.24,295.6z"/>
	<path style="fill-rule:evenodd;clip-rule:evenodd;fill:#C5BDB8;" d="M447.49,296.8c0.06,0.18,0.11,0.36,0.17,0.54
		C447.6,297.16,447.54,296.98,447.49,296.8z"/>
	<path style="fill-rule:evenodd;clip-rule:evenodd;fill:#C5BDB8;" d="M447.97,299.21c0.06,0.18,0.11,0.35,0.17,0.53
		C448.08,299.56,448.02,299.38,447.97,299.21z"/>
	<path style="fill-rule:evenodd;clip-rule:evenodd;fill:#C5BDB8;" d="M429.46,300.21c0.06-0.18,0.12-0.35,0.19-0.53
		C429.59,299.86,429.52,300.04,429.46,300.21z"/>
	<path style="fill-rule:evenodd;clip-rule:evenodd;fill:#C5BDB8;" d="M448.21,300.41c0.05,0.18,0.11,0.37,0.16,0.55
		C448.32,300.77,448.26,300.59,448.21,300.41z"/>
	<path style="fill-rule:evenodd;clip-rule:evenodd;fill:#C5BDB8;" d="M429.23,301.2c0.06-0.19,0.11-0.37,0.17-0.56
		C429.34,300.83,429.29,301.02,429.23,301.2z"/>
	<path style="fill-rule:evenodd;clip-rule:evenodd;fill:#5EA768;" d="M516.11,248.96c0.17-0.17,0.31-0.15,0.44,0.04
		C516.4,248.99,516.25,248.97,516.11,248.96z"/>
	<path style="fill-rule:evenodd;clip-rule:evenodd;fill:#D19F22;" d="M525.66,253.13c-0.15-0.07-0.3-0.15-0.46-0.22
		C525.36,252.98,525.51,253.06,525.66,253.13z"/>
	<path style="fill-rule:evenodd;clip-rule:evenodd;fill:#C5BDB8;" d="M433.29,255.77c0-0.16,0-0.33-0.01-0.49
		c0.06-0.07,0.13-0.07,0.19,0C433.41,255.44,433.35,255.61,433.29,255.77z"/>
	<path style="fill-rule:evenodd;clip-rule:evenodd;fill:#E7E7E7;" d="M517.01,305.92c-0.32-0.14-0.23-0.3-0.01-0.46
		C517,305.61,517.01,305.76,517.01,305.92z"/>
	<path style="fill-rule:evenodd;clip-rule:evenodd;fill:#C5BDB8;" d="M432.31,255.52c0.16,0.07,0.32,0.13,0.48,0.2
		c-0.16-0.01-0.32-0.01-0.48-0.02l-0.08-0.09L432.31,255.52z"/>
	<path style="fill-rule:evenodd;clip-rule:evenodd;fill:#BD501E;" d="M497.13,251.17c0.19-0.06,0.37-0.13,0.56-0.19
		C497.5,251.04,497.31,251.11,497.13,251.17z"/>
	<path style="fill-rule:evenodd;clip-rule:evenodd;fill:#E9E9E9;" d="M530.3,262.4c0.19,0.11,0.28,0.35,0.12,0.44
		c-0.23,0.13-0.18-0.19-0.27-0.31C530.21,262.51,530.26,262.46,530.3,262.4z"/>
	<path style="fill-rule:evenodd;clip-rule:evenodd;fill:#E1A98A;" d="M494.75,274.3c-0.01,0.05-0.02,0.11-0.01,0.16
		c-0.16-0.06-0.32-0.12-0.49-0.18C494.41,274.29,494.58,274.29,494.75,274.3z"/>
	<path style="fill-rule:evenodd;clip-rule:evenodd;fill:#DDD1C5;" d="M443.89,275.93c0.06,0.17,0.12,0.34,0.18,0.52
		C444,276.27,443.95,276.1,443.89,275.93z"/>
	<path style="fill-rule:evenodd;clip-rule:evenodd;fill:#E4AD7C;" d="M527.58,264c-0.07,0.05-0.13,0.11-0.2,0.16
		C527.45,264.11,527.52,264.05,527.58,264z"/>
	<path style="fill-rule:evenodd;clip-rule:evenodd;fill:#D0C6BE;" d="M430.67,296.38c0.06-0.1,0.11-0.2,0.17-0.3
		C430.78,296.18,430.73,296.28,430.67,296.38z"/>
	<path style="fill-rule:evenodd;clip-rule:evenodd;fill:#E4AC7C;" d="M476.22,296.04c-0.03,0.14-0.1,0.19-0.21,0.06
		C476.07,296.07,476.14,296.05,476.22,296.04z"/>
	<path style="fill-rule:evenodd;clip-rule:evenodd;fill:#5EA768;" d="M518.26,249.45c0.07,0.01,0.14,0.02,0.21,0.02
		c0,0-0.11,0.01-0.11,0.01L518.26,249.45z"/>
	<path style="fill-rule:evenodd;clip-rule:evenodd;fill:#9B70A8;" d="M537.4,296.79c-0.06-0.09-0.13-0.17-0.19-0.26
		C537.28,296.62,537.34,296.71,537.4,296.79z"/>
	<path style="fill-rule:evenodd;clip-rule:evenodd;fill:#D0C6BE;" d="M430.42,297.09c0.06-0.1,0.12-0.19,0.17-0.29
		C430.54,296.9,430.48,297,430.42,297.09z"/>
	<path style="fill-rule:evenodd;clip-rule:evenodd;fill:#D3D3D3;" d="M529.52,262c0-0.08,0-0.16,0-0.24
		c0.09,0.07,0.18,0.14,0.27,0.21l-0.05,0.06c0,0-0.11,0-0.11,0L529.52,262z"/>
	<path style="fill-rule:evenodd;clip-rule:evenodd;fill:#5EA768;" d="M517.29,249.22c0.07,0.01,0.14,0.01,0.21,0.02l-0.11,0.01
		L517.29,249.22z"/>
	<path style="fill-rule:evenodd;clip-rule:evenodd;fill:#5EA768;" d="M515.13,248.75c0.07,0.01,0.14,0.01,0.22,0.02l-0.11,0.01
		L515.13,248.75z"/>
	<path style="fill-rule:evenodd;clip-rule:evenodd;fill:#75B17A;" d="M526.45,247.11c-0.09-0.08-0.19-0.17-0.28-0.25
		C526.26,246.94,526.35,247.03,526.45,247.11z"/>
	<path style="fill-rule:evenodd;clip-rule:evenodd;fill:#D0C6BE;" d="M430.17,297.79c0.06-0.09,0.11-0.18,0.17-0.27
		C430.28,297.62,430.23,297.71,430.17,297.79z"/>
	<path style="fill-rule:evenodd;clip-rule:evenodd;fill:#75B17A;" d="M524.75,245.67c-0.09-0.07-0.18-0.15-0.27-0.22
		C524.57,245.52,524.66,245.6,524.75,245.67z"/>
	<path style="fill-rule:evenodd;clip-rule:evenodd;fill:#B88FBD;" d="M528.31,298.09c-0.07,0.05-0.14,0.1-0.21,0.15
		C528.17,298.19,528.24,298.14,528.31,298.09z"/>
	<path style="fill-rule:evenodd;clip-rule:evenodd;fill:#75B17A;" d="M524.47,245.44c-0.07-0.06-0.14-0.12-0.22-0.17
		C524.32,245.33,524.4,245.38,524.47,245.44z"/>
	<path style="fill-rule:evenodd;clip-rule:evenodd;fill:#75B17A;" d="M523.77,244.95c-0.08-0.06-0.16-0.12-0.24-0.17
		C523.61,244.84,523.69,244.9,523.77,244.95z"/>
	<path style="fill-rule:evenodd;clip-rule:evenodd;fill:#D0C6BE;" d="M429.93,298.52c0.06-0.09,0.11-0.18,0.16-0.27
		C430.04,298.34,429.99,298.43,429.93,298.52z"/>
	<path style="fill-rule:evenodd;clip-rule:evenodd;fill:#AB7FB2;" d="M538.41,298.47c-0.07-0.1-0.14-0.2-0.22-0.3
		C538.26,298.28,538.33,298.38,538.41,298.47z"/>
	<path style="fill-rule:evenodd;clip-rule:evenodd;fill:#4FA05E;" d="M501.67,244.05c-0.08,0.06-0.16,0.12-0.24,0.18
		C501.51,244.17,501.59,244.11,501.67,244.05z"/>
	<path style="fill-rule:evenodd;clip-rule:evenodd;fill:#AB7FB2;" d="M538.56,298.71c-0.05-0.08-0.1-0.16-0.16-0.24
		C538.46,298.55,538.51,298.63,538.56,298.71z"/>
	<path style="fill-rule:evenodd;clip-rule:evenodd;fill:#E8B98F;" d="M510.79,280.49c-0.06,0.07-0.12,0.15-0.18,0.22
		C510.67,280.63,510.73,280.56,510.79,280.49z"/>
	<path style="fill-rule:evenodd;clip-rule:evenodd;fill:#5EA768;" d="M502.63,243.56c-0.09,0.06-0.18,0.12-0.26,0.19
		C502.45,243.68,502.54,243.62,502.63,243.56z"/>
	<path style="fill-rule:evenodd;clip-rule:evenodd;fill:#E8B98F;" d="M511.02,280.21c-0.07,0.09-0.14,0.17-0.22,0.26
		C510.88,280.39,510.95,280.3,511.02,280.21z"/>
	<path style="fill-rule:evenodd;clip-rule:evenodd;fill:#5EA768;" d="M503.11,243.32c-0.09,0.06-0.18,0.12-0.27,0.18
		C502.93,243.44,503.02,243.38,503.11,243.32z"/>
	<path style="fill-rule:evenodd;clip-rule:evenodd;fill:#C5BDB8;" d="M426.34,261.58c0.05-0.1,0.11-0.2,0.16-0.29
		C426.45,261.38,426.4,261.48,426.34,261.58z"/>
	<path style="fill-rule:evenodd;clip-rule:evenodd;fill:#EABE98;" d="M510.1,279.79c0.06-0.09,0.12-0.18,0.18-0.27
		C510.22,279.62,510.16,279.71,510.1,279.79z"/>
	<path style="fill-rule:evenodd;clip-rule:evenodd;fill:#CCC4BD;" d="M426.59,260.89c0.06-0.11,0.12-0.22,0.19-0.33
		C426.72,260.67,426.65,260.78,426.59,260.89z"/>
	<path style="fill-rule:evenodd;clip-rule:evenodd;fill:#CDC4BD;" d="M469.52,288.4c0.11-0.07,0.23-0.13,0.34-0.2
		C469.74,288.27,469.63,288.33,469.52,288.4z"/>
	<path style="fill-rule:evenodd;clip-rule:evenodd;fill:#C5BDB8;" d="M440.07,304.18c-0.1-0.06-0.21-0.12-0.31-0.17
		C439.86,304.07,439.96,304.12,440.07,304.18z"/>
	<path style="fill-rule:evenodd;clip-rule:evenodd;fill:#8E5C9D;" d="M534.54,304.44c-0.06,0.09-0.13,0.18-0.19,0.28
		C534.41,304.62,534.48,304.53,534.54,304.44z"/>
	<path style="fill-rule:evenodd;clip-rule:evenodd;fill:#8E5C9D;" d="M534.07,305.18c-0.07,0.08-0.14,0.17-0.21,0.25
		C533.93,305.35,534,305.26,534.07,305.18z"/>
	<path style="fill-rule:evenodd;clip-rule:evenodd;fill:#C5BDB8;" d="M427.04,260.08c0.06-0.08,0.11-0.16,0.17-0.23
		C427.15,259.93,427.1,260,427.04,260.08z"/>
	<path style="fill-rule:evenodd;clip-rule:evenodd;fill:#CDC4BD;" d="M469.28,288.58c0.08-0.06,0.16-0.12,0.24-0.18
		C469.44,288.46,469.36,288.52,469.28,288.58z"/>
	<path style="fill-rule:evenodd;clip-rule:evenodd;fill:#C5BDB8;" d="M427.3,259.64c0.07-0.09,0.15-0.19,0.22-0.28
		C427.44,259.45,427.37,259.55,427.3,259.64z"/>
	<path style="fill-rule:evenodd;clip-rule:evenodd;fill:#CCC4BD;" d="M426.51,265.6c-0.05-0.1-0.11-0.21-0.16-0.31
		C426.4,265.39,426.45,265.49,426.51,265.6z"/>
	<path style="fill-rule:evenodd;clip-rule:evenodd;fill:#CDC4BD;" d="M468.81,288.9c0.1-0.08,0.19-0.16,0.29-0.23
		C469,288.74,468.91,288.82,468.81,288.9z"/>
	<path style="fill-rule:evenodd;clip-rule:evenodd;fill:#DFA48E;" d="M506.47,272.36c-0.09,0.06-0.18,0.11-0.27,0.17
		C506.29,272.47,506.38,272.42,506.47,272.36z"/>
	<path style="fill-rule:evenodd;clip-rule:evenodd;fill:#C5BDB8;" d="M427.52,259.35c0.06-0.08,0.12-0.15,0.18-0.23
		C427.64,259.2,427.58,259.28,427.52,259.35z"/>
	<path style="fill-rule:evenodd;clip-rule:evenodd;fill:#CCC4BD;" d="M428.49,258.2c0.09-0.09,0.18-0.18,0.27-0.27
		C428.67,258.02,428.58,258.11,428.49,258.2z"/>
	<path style="fill-rule:evenodd;clip-rule:evenodd;fill:#C5BDB8;" d="M434.24,252.88c0.05-0.08,0.11-0.15,0.16-0.23
		C434.35,252.73,434.29,252.8,434.24,252.88z"/>
	<path style="fill-rule:evenodd;clip-rule:evenodd;fill:#C5BDB8;" d="M429.45,257.36c0.07-0.06,0.14-0.11,0.21-0.17
		C429.59,257.25,429.52,257.31,429.45,257.36z"/>
	<path style="fill-rule:evenodd;clip-rule:evenodd;fill:#C5BDB8;" d="M429.67,257.18c0.09-0.07,0.18-0.14,0.27-0.21
		C429.85,257.04,429.76,257.11,429.67,257.18z"/>
	<path style="fill-rule:evenodd;clip-rule:evenodd;fill:#C5BDB8;" d="M430.4,256.66c0.08-0.06,0.16-0.12,0.25-0.18
		C430.57,256.54,430.49,256.6,430.4,256.66z"/>
	<path style="fill-rule:evenodd;clip-rule:evenodd;fill:#C5BDB8;" d="M431.12,256.22c0.1-0.06,0.2-0.13,0.3-0.19
		C431.32,256.09,431.22,256.15,431.12,256.22z"/>
	<path style="fill-rule:evenodd;clip-rule:evenodd;fill:#C5BDB8;" d="M432.99,255.78c0.1-0.01,0.2-0.01,0.3-0.02
		C433.21,256.07,433.1,255.96,432.99,255.78z"/>
	<path style="fill-rule:evenodd;clip-rule:evenodd;fill:#E4AD7C;" d="M526.87,264.45c-0.07,0-0.15-0.01-0.22-0.01
		C526.72,264.42,526.8,264.42,526.87,264.45z"/>
	<path style="fill-rule:evenodd;clip-rule:evenodd;fill:#9364A2;" d="M519.98,310.73c0.06,0.08,0.11,0.16,0.17,0.25
		C520.09,310.89,520.04,310.81,519.98,310.73z"/>
	<path style="fill-rule:evenodd;clip-rule:evenodd;fill:#E4AC7C;" d="M476.96,292.47c-0.07-0.09-0.15-0.18-0.22-0.27
		C476.81,292.3,476.88,292.38,476.96,292.47z"/>
	<path style="fill-rule:evenodd;clip-rule:evenodd;fill:#E4AC7C;" d="M477.15,292.71c-0.06-0.07-0.13-0.15-0.19-0.22
		C477.03,292.56,477.09,292.64,477.15,292.71z"/>
	<path style="fill-rule:evenodd;clip-rule:evenodd;fill:#8A5096;" d="M544.63,313.11c0.02-0.1,0.03-0.19,0.05-0.29
		c0.04,0.1,0.09,0.2,0.14,0.29C544.76,313.12,544.7,313.12,544.63,313.11z"/>
	<path style="fill-rule:evenodd;clip-rule:evenodd;fill:#C5BDB8;" d="M431.6,255.97c0.1-0.06,0.2-0.12,0.3-0.19
		C431.8,255.85,431.7,255.91,431.6,255.97z"/>
	<path style="fill-rule:evenodd;clip-rule:evenodd;fill:#CCC4BD;" d="M432.31,255.52c0,0.06,0,0.12,0,0.18
		c-0.08,0.01-0.16,0.02-0.23,0.03C432.16,255.66,432.24,255.59,432.31,255.52z"/>
	<path style="fill-rule:evenodd;clip-rule:evenodd;fill:#CCC4BD;" d="M433.47,255.28l-0.09,0l-0.1,0c0.07-0.08,0.14-0.16,0.2-0.23
		C433.48,255.12,433.47,255.2,433.47,255.28z"/>
	<path style="fill-rule:evenodd;clip-rule:evenodd;fill:#E4AD7C;" d="M528.73,264.39c-0.05-0.08-0.1-0.16-0.15-0.24
		C528.62,264.23,528.67,264.31,528.73,264.39z"/>
	<path style="fill-rule:evenodd;clip-rule:evenodd;fill:#E4AC7C;" d="M475.55,293.44c0.07,0,0.14,0,0.21,0
		c-0.01,0.09-0.01,0.18-0.02,0.28C475.68,293.63,475.61,293.53,475.55,293.44z"/>
	<path style="fill-rule:evenodd;clip-rule:evenodd;fill:#E4AD7C;" d="M527.36,264.18c-0.08,0.07-0.17,0.14-0.25,0.21
		C527.19,264.32,527.27,264.25,527.36,264.18z"/>
	<path style="fill-rule:evenodd;clip-rule:evenodd;fill:#E4AC7C;" d="M475.83,293.93c0.06,0.08,0.11,0.16,0.17,0.24
		C475.94,294.09,475.88,294.01,475.83,293.93z"/>
	<path style="fill-rule:evenodd;clip-rule:evenodd;fill:#D19F22;" d="M525.18,254.57c0.08,0.05,0.17,0.1,0.25,0.15
		C525.35,254.68,525.26,254.63,525.18,254.57z"/>
	<path style="fill-rule:evenodd;clip-rule:evenodd;fill:#E4AC7C;" d="M476.05,294.41c0.05,0.1,0.11,0.2,0.16,0.3
		C476.16,294.61,476.1,294.51,476.05,294.41z"/>
	<path style="fill-rule:evenodd;clip-rule:evenodd;fill:#C5BDB8;" d="M433.54,254.62c0.05-0.1,0.1-0.2,0.15-0.3
		C433.65,254.43,433.6,254.53,433.54,254.62z"/>
	<path style="fill-rule:evenodd;clip-rule:evenodd;fill:#C5BDB8;" d="M433.79,253.88c0.05-0.09,0.11-0.18,0.16-0.27
		C433.89,253.7,433.84,253.79,433.79,253.88z"/>
	<path style="fill-rule:evenodd;clip-rule:evenodd;fill:#D7CCC2;" d="M428.44,268.96c-0.07-0.08-0.13-0.17-0.2-0.25
		C428.31,268.79,428.38,268.87,428.44,268.96z"/>
	<path style="fill-rule:evenodd;clip-rule:evenodd;fill:#C5BDB8;" d="M434,253.37c0.06-0.08,0.11-0.16,0.17-0.24
		C434.11,253.21,434.06,253.29,434,253.37z"/>
	<path style="fill-rule:evenodd;clip-rule:evenodd;fill:#9364A2;" d="M531.66,295.1c-0.08,0.08-0.17,0.16-0.25,0.24
		C531.5,295.26,531.58,295.18,531.66,295.1z"/>
	<path style="fill-rule:evenodd;clip-rule:evenodd;fill:#C5BDB8;" d="M434.48,252.42c0.06-0.08,0.12-0.17,0.17-0.25
		C434.6,252.25,434.54,252.33,434.48,252.42z"/>
	<path style="fill-rule:evenodd;clip-rule:evenodd;fill:#D7CCC2;" d="M428.25,268.71c-0.08-0.09-0.16-0.18-0.24-0.27
		C428.09,268.54,428.17,268.63,428.25,268.71z"/>
	<path style="fill-rule:evenodd;clip-rule:evenodd;fill:#BD501E;" d="M496.4,249.5c-0.07,0.09-0.14,0.18-0.21,0.28
		C496.26,249.68,496.33,249.59,496.4,249.5z"/>
	<path style="fill-rule:evenodd;clip-rule:evenodd;fill:#9364A2;" d="M531.42,295.33c-0.09,0.08-0.17,0.16-0.26,0.24
		C531.25,295.5,531.33,295.42,531.42,295.33z"/>
	<path style="fill-rule:evenodd;clip-rule:evenodd;fill:#222221;" d="M457.99,276.41c0-1.45,0-2.89,0-4.34c0.07-2,0.15-4,0.22-6
		c-0.14-1.35-0.13-2.7-0.01-4.06c0.01-0.4,0.04-0.8,0.04-1.19c-0.02-2.31-0.02-2.31,2.26-1.87c0.51,0.1,1.02,0.15,1.53,0.23
		l0.01-0.01c0.17,0.08,0.36,0.06,0.52,0.16c1.85,0.92,3.8,0.47,5.71,0.42c1.19-0.04,2.19,0,2.25,1.54c0,0.24,0,0.48,0.01,0.72
		c0.12,1.52,0.12,3.04,0,4.55c-0.02,2.43-0.03,4.86-0.05,7.29c0,0.24,0.01,0.48,0,0.72c-0.14,1.88-0.5,2.23-2.34,2.06
		c-2.25-0.21-4.5-0.61-6.77-0.42c-1,0.41-2.03,0.67-3.12,0.43C458.15,276.55,458.07,276.48,457.99,276.41z"/>
	<path style="fill-rule:evenodd;clip-rule:evenodd;fill:#D7CCC2;" d="M458.23,276.62c1.02-0.33,2.05-0.51,3.12-0.43
		c-0.86,1.7-0.63,2.14,1.44,2.81c-0.1,0.19-0.29,0.26-0.48,0.3c-0.77,0.12-1.5,0.17-0.69,1.25c0.36,0.49-0.12,1.33,0.45,1.87
		c0.15,1.48,0.88,2.59,2.16,3.34c0.46,0.51,0.16,1.04,0.03,1.56c-0.07,0.23-0.16,0.45-0.23,0.67c-0.06,0.17-0.15,0.32-0.32,0.41
		c-1.71-0.1-2.42-1.51-3.17-2.66C458.76,282.99,458.61,279.76,458.23,276.62z"/>
	<path style="fill-rule:evenodd;clip-rule:evenodd;fill:#232322;" d="M462.08,282.42c-0.2-0.02-0.56-0.04-0.56-0.07
		c-0.02-0.99-0.71-1.89-0.73-2.73c-0.02-0.87,1.24-0.61,2.01-0.62c1.51-0.07,3.02-0.17,4.52-0.19c0.96-0.01,1.81,0.27,2.24,1.26
		c0.68,1.54,0.14,2.36-1.51,2.35C466.07,282.4,464.08,282.42,462.08,282.42z"/>
	<path style="fill-rule:evenodd;clip-rule:evenodd;fill:#252423;" d="M463.95,287.44c0.1-0.56,0.19-1.12,0.29-1.68l0,0
		c0.21-0.2,0.04-0.51,0.2-0.72c0.25-0.03,0.5-0.05,0.75-0.1c2.68-0.56,2.71-0.54,2.62,2.21c-0.1,0.16-0.08,0.37-0.19,0.52
		c-0.04,0.06-0.06,0.12-0.05,0.19c-0.05,0.11-0.12,0.19-0.19,0.29c-0.04,0.07-0.09,0.14-0.13,0.21c-1.5,1.3-2.77,1.31-3.54,0.02
		c0.02-0.15,0.03-0.3,0.05-0.45C463.89,287.8,463.87,287.6,463.95,287.44z"/>
	<path style="fill-rule:evenodd;clip-rule:evenodd;fill:#D3C9C0;" d="M470.52,266.56c0-1.52,0-3.04,0-4.55
		C470.87,263.52,470.86,265.04,470.52,266.56z"/>
	<path style="fill-rule:evenodd;clip-rule:evenodd;fill:#D7CCC2;" d="M464.45,285.04c0.03,0.27,0.03,0.53-0.2,0.72
		C464.23,285.5,464.2,285.23,464.45,285.04z"/>
	<path style="fill-rule:evenodd;clip-rule:evenodd;fill:#CDC4BD;" d="M467.63,287.68c0.06-0.17,0.12-0.35,0.19-0.52
		C467.76,287.33,467.69,287.5,467.63,287.68z"/>
	<path style="fill-rule:evenodd;clip-rule:evenodd;fill:#CDC4BD;" d="M467.39,288.16c0.06-0.1,0.13-0.19,0.19-0.29
		C467.52,287.97,467.45,288.06,467.39,288.16z"/>
	<path style="fill-rule:evenodd;clip-rule:evenodd;fill:#332F2C;" d="M499.27,278.57c-0.01,0.15-0.03,0.3-0.04,0.45
		c-0.57,0.05-1.45,0.61-1.16-0.72c0.14-0.14,0.37-0.07,0.51-0.21c0.06,0.01,0.13,0.01,0.19,0c0.09,0.06,0.17,0.15,0.28,0.19
		l0.03,0.03C499.13,278.4,499.2,278.49,499.27,278.57z"/>
	<path style="fill-rule:evenodd;clip-rule:evenodd;fill:#E1A98A;" d="M498.59,278.09c-0.17,0.07-0.34,0.14-0.51,0.21
		c0-0.07,0-0.14,0-0.22C498.25,278.09,498.42,278.09,498.59,278.09z"/>
	<path style="fill-rule:evenodd;clip-rule:evenodd;fill:#242422;" d="M432.33,260.6c0.26,0.63,0.6,1.34,0.84,2.08
		c0.09,0.29-0.25,0.6-0.51,0.48c-0.85-0.4-0.77-1.34-1.03-2.07C431.53,260.8,431.76,260.57,432.33,260.6z"/>
	<path style="fill-rule:evenodd;clip-rule:evenodd;fill:#242423;" d="M430.85,264.43c-0.02,0.3-0.07,0.61-0.45,0.53
		c-0.41-0.08-0.92-0.13-0.93-0.72c0-0.37,0.27-0.55,0.63-0.56C430.63,263.66,430.74,264.06,430.85,264.43z"/>
	<path style="fill-rule:evenodd;clip-rule:evenodd;fill:#252524;" d="M432.25,265.76c-0.03,0.47-0.36,0.55-0.74,0.55
		c-0.28,0-0.61-0.02-0.57-0.41c0.04-0.34,0.14-0.71,0.59-0.77C432,265.07,432.13,265.41,432.25,265.76z"/>
	<path style="fill-rule:evenodd;clip-rule:evenodd;fill:#272625;" d="M429.56,262.45c-0.4-0.13-0.54-0.47-0.55-0.82
		c-0.01-0.35,0.21-0.62,0.61-0.54c0.37,0.07,0.48,0.41,0.49,0.72C430.14,262.16,429.95,262.4,429.56,262.45z"/>
	<path style="fill-rule:evenodd;clip-rule:evenodd;fill:#232322;" d="M464.78,292c0.05,0.81-0.17,1.49-0.89,1.96
		c-0.25,0.16-0.61,0.36-0.75,0.13c-0.69-1.12-1.25-0.61-1.91,0.02c-0.22,0.21-0.64,0.1-0.88-0.14c-0.4-0.39-0.53-0.91-0.38-1.43
		c0.27-0.92,0.89-1.38,1.87-1.31c0.39,0.2,0.63,0.59,1.25,0.13C463.63,290.95,464.57,290.88,464.78,292z"/>
	<path style="fill-rule:evenodd;clip-rule:evenodd;fill:#E1A98A;" d="M505.29,277.36c0.85-0.14,1.14-0.93,1.67-1.44
		c-0.23,1.05-3.5,4.38-4.5,4.49c-0.92,0.1-1.48-0.59-1.88-1.25c-1.14-1.86-2.94-2.55-4.91-3c-0.52-0.15-0.99-0.38-1.42-0.71
		c0.25-0.31,0.87-0.34,0.71-0.95c0.81,0.25,1.96-0.64,2.43,0.73c0.29,0.28,0.68,0.49,0.69,0.97c1.11,0.21,1.86,0.95,2.61,1.72
		c1.49,1.53,2.01,1.55,3.69,0.2C504.69,277.88,504.98,277.61,505.29,277.36z"/>
	<path style="fill-rule:evenodd;clip-rule:evenodd;fill:#2E2C2A;" d="M494.25,275.45c0.67-0.16,1.12,0.12,1.42,0.71
		C494.79,276.75,494.43,276.28,494.25,275.45z"/>
	<path style="fill-rule:evenodd;clip-rule:evenodd;fill:#E1A98A;" d="M499.27,278.57c-0.06-0.09-0.13-0.18-0.19-0.27
		C499.15,278.4,499.21,278.48,499.27,278.57z"/>
	<path style="fill-rule:evenodd;clip-rule:evenodd;fill:#E1A98A;" d="M499.05,278.28c-0.09-0.06-0.19-0.13-0.28-0.19
		C498.87,278.15,498.96,278.22,499.05,278.28z"/>
	<path style="fill-rule:evenodd;clip-rule:evenodd;fill:#93C8D8;" d="M494,265.09c0.84-3.23,4-4.75,6.94-4.25
		c1.6,0.27,2.89,1.25,3.54,2.77c0.86,2.02,0.16,3.84-1.12,5.46c-1.46,1.83-4.49,2.59-6.65,1.73c-0.88-0.35-1.62-0.86-1.98-1.79
		c0.03-0.2,0.14-0.33,0.34-0.37c0.12,0.01,0.23,0.05,0.33,0.12c2.68,2.73,6.46,1.17,7.85-1.18c0.69-1.17,0.75-3.39-0.06-4.32
		c-1.05-1.21-2.4-1.82-4.04-1.53c-1.74,0.3-3.17,1.04-3.96,2.72c-0.15,0.32-0.34,0.64-0.7,0.8
		C494.3,265.27,494.13,265.25,494,265.09z"/>
	<path style="fill-rule:evenodd;clip-rule:evenodd;fill:#232322;" d="M495.19,268.7c-0.09,0.04-0.17,0.08-0.26,0.12
		c-0.23,0.01-0.46,0.05-0.68-0.05c-0.25-0.09-0.49-0.19-0.74-0.28c-0.79-0.8-0.5-1.73-0.3-2.65c0.26-0.25,0.52-0.5,0.78-0.75
		c0.16,0,0.32,0,0.49,0c0.28-0.07,0.5,0.04,0.7,0.21c0.74,0.71,0.6,1.6,0.51,2.48c-0.04,0.18-0.09,0.35-0.17,0.52
		C495.45,268.46,495.35,268.61,495.19,268.7z"/>
	<path style="fill-rule:evenodd;clip-rule:evenodd;fill:#78BBCD;" d="M494.25,268.77c0.23,0.02,0.45,0.03,0.68,0.05
		c-0.07,0.06-0.13,0.11-0.2,0.17C494.57,268.92,494.41,268.84,494.25,268.77z"/>
	<path style="fill-rule:evenodd;clip-rule:evenodd;fill:#6C6D64;" d="M466.43,256.45c-1.85,0.2-3.69-0.26-5.55,0.01
		c-0.44,0.06-0.93-0.15-1.37-0.31c-0.51-0.19-0.98-0.52-0.74-1.15c0.29-0.77,0.78-0.22,1.17-0.07c2.07,0.77,4.27,0.77,6.42,1.06
		c0.27,0.04,0.52,0.13,0.78,0.2C467,256.52,466.62,256.24,466.43,256.45z"/>
	<path style="fill-rule:evenodd;clip-rule:evenodd;fill:#E6E6E6;" d="M466.43,256.45c0.11-0.42,0.49-0.15,0.71-0.27
		c0.6,0.08,1.23,0.08,1.75,0.46c-0.64,0.38-1.26,0.07-1.89-0.06C466.81,256.54,466.62,256.5,466.43,256.45z"/>
	<path style="fill-rule:evenodd;clip-rule:evenodd;fill:#C6BEB8;" d="M470.46,257.62c-0.07,0.1-0.15,0.2-0.22,0.3
		C470.31,257.82,470.38,257.72,470.46,257.62z"/>
	<path style="fill-rule:evenodd;clip-rule:evenodd;fill:#C6BFB9;" d="M462.56,259.33c-0.17-0.05-0.35-0.11-0.52-0.16
		C462.21,259.22,462.38,259.27,462.56,259.33z"/>
	<path style="fill-rule:evenodd;clip-rule:evenodd;fill:#DBD8D5;" d="M458.2,262.01c0,1.35,0,2.7,0.01,4.06
		C457.86,264.72,457.87,263.37,458.2,262.01z"/>
	<path style="fill-rule:evenodd;clip-rule:evenodd;fill:#332D2A;" d="M501.2,275.92c0.23-0.21,0.41-0.41,0.79-0.14
		c0.39,0.27,0.39,0.52,0.2,0.87C501.46,276.93,501.34,276.41,501.2,275.92z"/>
	<path style="fill-rule:evenodd;clip-rule:evenodd;fill:#222221;" d="M500.23,274.23c0.32,0.46,1.45,0.78,0.25,1.49
		C499.89,275.31,500.28,274.73,500.23,274.23z"/>
	<path style="fill-rule:evenodd;clip-rule:evenodd;fill:#2D2A28;" d="M498.08,276.2c-0.36-0.23-0.75-0.44-0.69-0.97
		c0.77-0.18,1.23,0.03,1.16,0.91C498.39,276.16,498.23,276.18,498.08,276.2z"/>
	<path style="fill-rule:evenodd;clip-rule:evenodd;fill:#6B6C63;" d="M467.16,275.51c-1.94-0.16-3.88-0.28-5.81-0.5
		c-0.76-0.09-1.87,0.75-2.19-0.12c-0.39-1.02-0.15-2.27-0.19-3.42c-0.01-0.39,0.16-0.58,0.57-0.59c3.28-0.05,6.6-0.64,9.73,0.95
		c0.42,0.21,0.54,0.39,0.48,0.78c-0.04,0.27-0.21,0.56-0.17,0.81C469.89,275.45,468.83,275.79,467.16,275.51z"/>
	<path style="fill-rule:evenodd;clip-rule:evenodd;fill:#6B6C63;" d="M460.85,264.37c-0.41-0.19-1.43,0.51-1.58-0.38
		c-0.21-1.22-0.48-2.67,0.31-3.71c0.56-0.73,1.67-0.04,2.48,0.09c2.09,0.32,4.18,0.5,6.28,0.42c0.9-0.03,1.21,0.34,1.19,1.19
		c-0.01,0.51,0.11,1.02,0.19,1.53c0.28,1.74-0.13,2.08-1.88,1.77C465.6,264.88,463.34,264.47,460.85,264.37z"/>
	<path style="fill-rule:evenodd;clip-rule:evenodd;fill:#6A6B63;" d="M461.69,265.57c2.4-0.03,4.73,0.4,7.04,1.04
		c0.95,0.26,1.08,0.82,1.04,1.69c-0.07,1.53-0.48,1.93-2.23,1.76c-2.5-0.25-5.07-0.62-7.61-0.2c-0.19,0.03-0.51,0.1-0.58,0
		c-0.86-1.13-0.22-2.42-0.34-3.63c-0.06-0.63,0.4-0.67,0.88-0.66C460.49,265.58,461.09,265.57,461.69,265.57z"/>
	<path style="fill-rule:evenodd;clip-rule:evenodd;fill:#CDC4BD;" d="M463.95,287.44c-0.06,0.17-0.12,0.34-0.18,0.51
		C463.83,287.78,463.89,287.61,463.95,287.44z"/>
	<path style="fill-rule:evenodd;clip-rule:evenodd;fill:#6B6B63;" d="M467.49,281.51c-1.47-0.37-2.94-0.32-4.4-0.31
		c-0.35,0-0.77,0.08-0.75-0.48c0.02-0.4,0.22-0.68,0.65-0.71c1.61-0.09,3.22-0.18,4.83-0.24c0.75-0.03,0.97,0.58,0.95,1.12
		C468.73,281.83,467.9,281.25,467.49,281.51z"/>
	<path style="fill-rule:evenodd;clip-rule:evenodd;fill:#EFCF13;" d="M466.89,286.53c-0.13,0.67-0.24,1.49-1.1,1.57
		c-0.56,0.05-0.64-0.6-0.61-1.08c0.04-0.78,0.51-1.23,1.27-1.3C467.01,285.67,466.83,286.18,466.89,286.53z"/>
	<polygon style="fill-rule:evenodd;clip-rule:evenodd;fill:#7C7B7B;" points="463.63,292.78 463.67,292.85 463.59,292.85 	"/>
	<path style="fill-rule:evenodd;clip-rule:evenodd;fill:#A2CFDE;" d="M495.19,268.7c0.03-0.15,0.06-0.31,0.08-0.46
		c0.12-0.04,0.23-0.04,0.35,0c1.58,1.4,3.33,1.85,5.28,0.81c1.59-0.84,2.54-2.47,2.34-3.99c-0.18-1.31-0.95-2.25-2.2-2.57
		c-1.71-0.44-3.32-0.19-4.62,1.18c-0.51,0.54-0.7,1.36-1.45,1.7c-0.16-0.09-0.31-0.19-0.47-0.28c1.64-3.15,4.09-4.42,6.81-3.5
		c2.38,0.8,3.52,3.19,2.54,5.55c-1.19,2.86-5.21,4.71-8.24,2.27C495.35,269.21,495.21,269,495.19,268.7z"/>
	<path style="fill-rule:evenodd;clip-rule:evenodd;fill:#B5D8E5;" d="M494.95,265.37c0.92-2.01,2.25-3.39,4.68-3.4
		c1.59-0.01,2.78,0.5,3.57,1.89c0.8,1.4,0.41,2.76-0.38,3.94c-1.89,2.83-6.1,2.8-7.39,0.45c-0.07-0.06-0.09-0.11-0.07-0.18
		c0.02-0.06,0.04-0.09,0.06-0.09C495.39,267.08,495.7,266.13,494.95,265.37z"/>
	<path style="fill-rule:evenodd;clip-rule:evenodd;fill:#93C8D8;" d="M495.42,267.98c0,0.09,0.01,0.18,0.02,0.27
		c-0.06,0-0.11,0-0.17,0C495.32,268.15,495.37,268.06,495.42,267.98z"/>
	<path style="fill-rule:evenodd;clip-rule:evenodd;fill:#C8E2ED;" d="M502.8,265.43c-0.06,2-2.24,3.89-4.36,3.77
		c-1.32-0.07-2.78-1.5-2.75-2.7c0.04-2.02,2.02-3.82,4.17-3.77C501.42,262.75,502.84,264.06,502.8,265.43z"/>
</g>
</svg>
