<?xml version="1.0" encoding="utf-8"?>
<!-- Generator: Adobe Illustrator 16.0.0, SVG Export Plug-In . SVG Version: 6.00 Build 0)  -->
<!DOCTYPE svg PUBLIC "-//W3C//DTD SVG 1.0//EN" "http://www.w3.org/TR/2001/REC-SVG-20010904/DTD/svg10.dtd" [
	<!ENTITY ns_flows "http://ns.adobe.com/Flows/1.0/">
	<!ENTITY ns_extend "http://ns.adobe.com/Extensibility/1.0/">
	<!ENTITY ns_ai "http://ns.adobe.com/AdobeIllustrator/10.0/">
	<!ENTITY ns_graphs "http://ns.adobe.com/Graphs/1.0/">
]>
<svg version="1.0" id="Layer_1" xmlns:x="&ns_extend;" xmlns:i="&ns_ai;" xmlns:graph="&ns_graphs;"
	 xmlns="http://www.w3.org/2000/svg" xmlns:xlink="http://www.w3.org/1999/xlink" xmlns:a="http://ns.adobe.com/AdobeSVGViewerExtensions/3.0/"
	 x="0px" y="0px" width="960px" height="560px" viewBox="0 0 960 560" style="enable-background:new 0 0 960 560;"
	 xml:space="preserve">
<g>
	<path style="fill-rule:evenodd;clip-rule:evenodd;fill:#010000;" d="M512.5,306.74c-4.01-0.01-7.96,0.69-11.95,0.8
		c-0.16-0.07-0.32-0.09-0.49-0.09c0.15,0,0.29-0.03,0.42-0.15c0.17-0.98-0.76-3.08-1.49-3.01c-1.98,0.2-1.33-1.05-1.25-2.01
		c0.25-2.62,0.57-5.25-0.6-7.76c-1.74-3.72-1.51-4.61,1.73-6.96c0.16-0.11,0.3-0.25,0.45-0.38c0.09-0.33-0.15-0.38-0.38-0.45
		c-1,0.08-1.71,0.76-2.52,1.22c-0.5,0.28-0.79,0.22-0.99-0.32c-0.1-0.25-0.21-0.5-0.32-0.76c-0.09-0.46-0.15-0.92-0.5-1.28
		c-0.07-0.07-0.13-0.13-0.21-0.18c-0.1-0.07-0.19-0.14-0.26-0.23c-0.03-0.07-0.04-0.15-0.04-0.21c0.02-0.09,0.05-0.18,0.08-0.29
		c0.03-0.13,0.03-0.24,0.01-0.36c-0.02-0.11-0.02-0.22,0-0.33c0,0,0.04-0.1,0.04-0.1c0.04-0.06,0.09-0.13,0.13-0.18
		c0.03-0.03,0.06-0.06,0.08-0.09c0.06-0.06,0.12-0.12,0.17-0.18c0.03-0.03,0.06-0.06,0.09-0.09c0.06-0.07,0.12-0.14,0.16-0.21
		c0.05-0.08,0.1-0.16,0.14-0.24c0.07-0.13,0.13-0.26,0.18-0.4c0.03-0.1,0.06-0.2,0.07-0.3c0.01-0.1,0.02-0.21,0.03-0.31
		c0.01-0.32,0.01-0.65-0.01-0.97c-0.07-0.65,0.42-0.89,0.86-1.16c1.65-0.98,3.27-1.99,4.87-3.04c0.35-0.23,0.83-0.37,0.78-0.94
		c-0.15-0.24-0.33-0.31-0.57-0.13c-1.84,1.02-3.73,1.97-5.5,3.1c-1.14,0.72-1.73,0.53-2.41-0.58c-0.92-1.49-1.89-2.99-4-2.99
		c-0.58,0-0.09-0.38,0-0.51c0.92-1.29,1.89-2.55,2.59-3.99c0.04-0.56-0.33-0.33-0.59-0.31c-0.35,0.15-0.59,0.42-0.78,0.73
		c-0.94,1.49-2.07,2.84-3.12,4.25c-1.18,1.59-3.02,2.51-4.38,3.95c-0.44,0.47-1.25,0.51-1.83,0.87c-0.35,0.22-0.88,0.38-0.49,0.99
		c0,0.05,0.06,0.13,0.04,0.12c-0.03-0.02-0.04-0.02-0.05-0.03c0.01,0,0.03,0-0.02-0.06c-0.04-0.07-0.08-0.14-0.11-0.19
		c-0.07-2.1-0.84-3.71-2.68-3.91c-0.44-0.09-0.87-0.09-1.31,0c-0.93,0.21-1.88,0.33-2.82,0.47c-1.78,0.25-2.03,0.34-2.22,2.11
		c-0.13,1.18-0.8,2.15-0.98,3.29c-0.08,0.47-0.47,0.47-0.85,0.39c-0.5-0.11-0.8-0.47-1.08-0.88c-0.42-0.62-0.63-1.38-1.22-1.9
		c-0.66-0.59-0.29-1.49-0.68-2.16c-0.05-0.1-0.1-0.21-0.16-0.3c-0.06-0.1-0.12-0.2-0.19-0.29c-0.34-0.43-0.79-0.72-1.24-1
		c-0.9-0.39-1.82-0.62-2.81-0.46c-0.86,0.08-1.64,0.82-2.57,0.31c-0.09-0.06-0.18-0.12-0.27-0.17c-0.09-0.06-0.17-0.13-0.26-0.19
		c-0.4-0.3-0.8-0.63-1.35-0.59c-0.6,0.16-0.3,0.46-0.12,0.75c0.23,0.22,0.43,0.49,0.69,0.66c0.9,0.6,1.07,1.16,0.35,2.16
		c-1.12,1.56-1.84,3.35-2.11,5.28c-0.14,0.99-0.08,2.03,0.7,2.67c0.97,0.8,2.5,1.19,1.39,2.94c-0.04,0.07,0.01,0.27,0.08,0.32
		c0.6,0.46,0.08,0.59-0.21,0.82c-3.53,2.89-7.51,5.09-11.37,7.49c-1.89,1.18-3.99,2.01-5.7,3.49c-0.43,0.37-0.88,0.22-1.36,0.15
		c-4.53-0.72-8.99-0.55-13.29,1.23c-0.52,0.22-1.33,0.34-1.37,0.95c-0.04,0.6,0.67,0.93,1.19,1.24c0.47,0.28,0.79,0.5,0,0.76
		c-0.3,0.1-0.64,0.24-0.61,0.63c0.04,0.43,0.45,0.58,0.77,0.66c0.97,0.25,1.96,0.35,2.97,0.23c0.26-0.03,0.67-0.21,0.81,0.16
		c0.04,0.1-0.32,0.39-0.53,0.55c-0.7,0.55-1.14,1.06,0.2,1.26c0.59,0.08,0.46,0.46,0.52,0.86c0.41,2.66,1.19,5.27,0.93,8.02
		c-0.09,0.97,0.5,1.18,1.39,1.02c1.06-0.19,2.14-0.35,3.21-0.37c3.42-0.07,2.9-0.73,2.92,2.72c0,0.76-0.1,1.51-0.19,2.27
		c-0.1,0.81-0.16,1.44,1.04,1c0.77-0.29,1.63-0.42,2.46-0.48c1.46-0.11,3.12-0.66,4.32,0.28c2.59,2.03,5.24,2.15,8.21,1.16
		c2.62-0.87,5.25-0.91,7.72,0.64c0.43,0.27,0.96,0.37,1.46,0.51c2.49,0.73,4.7-0.37,6.97-1.07c1.97-0.61,4.06-1.3,5.95-0.35
		c3.17,1.6,6.13,1.12,9.22-0.07c3.43-1.32,6.92-1.46,10.38-0.03c1.49,0.62,2.92,0.66,4.35-0.2c1.01-0.6,2.04-0.76,3.17-0.14
		c0.81,0.44,1.43,0.37,1.38-0.87c-0.07-1.68,0.01-3.36-0.03-5.04c-0.02-0.71,0.13-0.97,0.91-0.93c1.35,0.08,2.72-0.03,4.08,0.05
		c1,0.06,1.46-0.36,1.83-1.25c1.27-3.11,1.25-6.39,1.41-9.65C514,307,513.63,306.74,512.5,306.74z M459.45,307.06
		c-0.67-0.08-1.33-0.09-1.53,0.73c-0.19,0.79,0.14,1.39,0.86,1.78l0,0.1c-0.08,0.02-0.15,0.05-0.23,0.06
		c-2.22,0.13-2.22,0.13-1.7-1.94c0.06-0.23,0.21-0.48,0.17-0.69c-0.32-1.67,1.22-1.68,2.04-2.33c0.19-0.15,0.33,0,0.38,0.13
		c0.2,0.64,0.42,1.28,0.53,1.94C460.03,307.19,459.66,307.08,459.45,307.06z M467.05,284.32c-0.68,0.54-1.35,1.09-2.06,1.66
		c-0.39-0.03-0.2-0.29-0.14-0.46c0.28-0.78,0.55-1.57,0.89-2.32c0.13-0.28,0.01-0.87,0.48-0.8c0.52,0.08,0.8,0.59,1.09,1.02
		C467.58,283.85,467.35,284.08,467.05,284.32z M494.75,304.74c-1.07,0.43-1.45,1.13-1.09,2.24c0.44,1.38-0.67,0.94-1.29,1.09
		c-0.76,0.19-1.06,0.07-1.02-0.86c0.09-2.15,0.03-4.31,0.03-6.47c-0.02,0-0.04,0-0.05,0c0-2.12,0.09-4.24-0.03-6.35
		c-0.09-1.53,0.93-2.3,1.77-3.22c0.39-0.42,0.5,0.06,0.57,0.35c0.17,0.72,0.57,1.68,0.48,2.1c-0.26,1.21,0.38,2.29,0.77,2.98
		c0.74,1.29,0.32,2.59,0.73,3.79c0.39,1.12-0.78,2.26,0.2,3.39C496.01,304.04,495.21,304.56,494.75,304.74z M499.46,307.44
		c0.14-0.03,0.29-0.01,0.43,0C499.75,307.45,499.61,307.46,499.46,307.44z"/>
	<path style="fill-rule:evenodd;clip-rule:evenodd;fill:#010000;" d="M446.3,263.4c-2.65-4.3-1.38-8.22,1.19-11.99
		c0.41-0.6,0.79-1.02-0.25-1.31c-0.3-0.09-0.78-0.29-0.64-0.73c0.2-0.63,0.41-1.38,1.18-1.54c0.71-0.15,0.84-0.54,1.02-1.18
		c1.13-3.98,2.68-7.73,6.18-10.33c1.81-1.35,3.79-2.13,6.02-2.4c2.05-0.25,3.73,0.46,5.27,1.71c0.3,0.24,0.59,0.7,1.12,0.28
		c4.05-3.21,8.53-2.83,13.09-1.5c2.5,0.73,4.86,1.78,6.9,3.45c1.03,0.84,2.16,1.46,3.5,1.71c1.05,0.2,1.72,1.02,2.1,1.96
		c0.31,0.76,0.17,1.49-0.96,1.28c-1.27-0.23-1.22,0.3-0.74,1.17c0.17,0.31,0.29,0.66,0.39,1c0.15,0.49,0.26,0.84,0.93,0.46
		c0.79-0.46,1.56-0.12,2.19,0.44c0.65,0.58,0.74,1.34,0.33,2.07c-0.27,0.47-0.13,0.73,0.19,1.03c0.23,0.22,0.45,0.46,0.67,0.69
		c3.64,3.76,4.09,7.7,1.39,12.32c-0.35,0.05-0.4-0.22-0.48-0.46c-0.08-0.5,0.14-0.93,0.31-1.38c0.73-2.02,0.59-3.96,0.04-6.06
		c-0.58-2.19-1.8-3.61-3.6-4.75c-0.58-0.37-1.2-0.89-0.7-1.76c0.12-0.1,0.27-0.15,0.42-0.18c0.29-0.06,0.68-0.02,0.66-0.48
		c-0.01-0.23-0.19-0.33-0.4-0.35c-0.38-0.05-0.58,0.15-0.68,0.5c-0.04,0.15-0.07,0.3-0.12,0.46c-0.11,0.32-0.32,0.51-0.67,0.51
		c-1.25-0.38-1.35-1.51-1.68-2.5c-0.29-1.32-0.6-2.63-2.23-2.95c-0.83-0.19-1.67-0.2-2.5-0.03c-1.93,0.4-3.89,0.38-5.85,0.35
		c-0.12,0-0.24,0-0.36-0.02c-0.47-0.08-1.09-0.08-1.05-0.71c0.04-0.57,0.64-0.52,1.06-0.5c1.08,0.04,2.16,0.05,3.23-0.06
		c0.12-0.01,0.33-0.01,0.34-0.06c0.02-0.2-0.19-0.2-0.32-0.24c-0.54-0.15-1.08-0.32-1.65-0.31c-2.9,0.06-5.72-0.56-8.58-0.88
		c-1.16-0.13-2.31-0.16-3.46,0.07c-0.72,0.14-1.42,0.21-2.12-0.07c-0.38-0.15-0.79-0.18-1.18-0.04c-1.51,0.56-3.09,0.53-4.63,0.39
		c-3.58-0.31-6.27,1.12-8.35,3.93c-0.79,0.9-1.42,1.91-2.06,2.91c-0.04,0.07-0.11,0.13-0.12,0.2c-0.69,3.03-3.1,5.19-4.07,8.13
		c-0.6,1.8-0.84,3.44-0.29,5.22c0.21,0.68,0.55,1.33,0.48,2.08C446.7,263.17,446.64,263.43,446.3,263.4z"/>
	<path style="fill-rule:evenodd;clip-rule:evenodd;fill:#010101;" d="M531.68,246.99c0.02-0.03,0.03-0.08,0.06-0.1
		c0.65-0.48,1.31-1.37,2.14-0.79c0.73,0.51,0.12,1.41-0.09,2.08c-0.54,1.75-1.72,3.13-2.82,4.55c-0.36,0.47-0.67,0.82,0.33,0.83
		c0.9,0.01,1.26,0.51,0.88,1.44c-0.17,0.42-0.92,0.98,0.14,1.34c0.08,0.03-0.08,0.66-0.08,1c0.01,0.78-1.11,1.62,0.11,2.36
		c0.04,0.03-0.06,0.37-0.15,0.53c-0.84,1.55-1.95,2.88-3.7,3.38c-1,0.29-1.66,0.82-2.19,1.66c-0.52,0.81-1.09,1.58-1.87,2.16
		c-0.53,0.4-1.22,0.75-1.77,0.42c-1.13-0.68-1.78-0.05-2.24,0.74c-0.64,1.08-2.04,1.62-2.09,3.19c-0.01,0.44-0.97,0.85-1.49,1.28
		c-1.08,0.89-2.03,1.85-1.67,3.44c0.09,0.4-0.14,0.59-0.41,0.77c-1.23,0.81-2.46,1.62-3.69,2.43c-0.24,0.21-0.41,0.1-0.56-0.12
		c-0.03-0.11-0.04-0.22-0.01-0.34c0.39-0.62,1.06-0.92,1.6-1.37c0.4-0.31,0.83-0.6,1.22-0.92c0.15-0.13,0.3-0.25,0.41-0.42
		c0.06-0.14,0.1-0.29,0.1-0.44c-0.36-2.27-0.14-4.54-0.21-6.81c-0.01-0.31,0.13-0.7-0.19-0.88c-0.34-0.19-0.56,0.18-0.82,0.34
		c-0.84,0.52-1.48,1.35-2.52,1.56c-0.26-0.05-0.54-0.08-0.45-0.46c2.45-2.14,4.89-4.31,7.37-6.4c0.51-0.43,0.71-0.9,0.81-1.5
		c0.3-1.69,0.59-3.38,1.28-4.96c0.97-2.23,2.43-3.06,4.84-2.74c0.49,0.06,0.8-0.04,1.13-0.43c0.72-0.85,1.51-1.64,2.27-2.45
		c0.33-0.11,0.41,0.11,0.48,0.35c-0.02,0.79-0.66,1.24-1.04,1.83c-0.21,0.33-0.5,0.63-0.57,1.04c-0.05,0.34,0.08,0.63,0.35,0.84
		c0.29,0.22,0.52,0.07,0.74-0.14c1.89-1.84,3.7-3.74,4.84-6.16c0.16-0.35,0.54-0.84,0.28-1.07c-0.26-0.24-0.63,0.34-1.01,0.4
		c-0.17,0.05-0.33,0.05-0.5,0c-0.1-0.05-0.18-0.13-0.23-0.23C530.8,247.63,531.41,247.45,531.68,246.99z"/>
	<path style="fill-rule:evenodd;clip-rule:evenodd;fill:#13100E;" d="M446.3,263.4c0.08-0.18,0.17-0.35,0.25-0.53
		c0.6,0.06,0.7,0.6,0.9,1c1.75,3.37,4.31,6.08,7.11,8.57c1.01,0.9,1.97,1.85,3.04,2.68c0.23,0.18,0.56,0.36,0.43,0.76
		c-0.48,0.01-0.27,0.33-0.27,0.57c-4.05-3.32-8.07-6.68-10.71-11.32C446.75,264.58,446.55,263.98,446.3,263.4z"/>
	<path style="fill-rule:evenodd;clip-rule:evenodd;fill:#232120;" d="M510.59,279.46c0.16,0.08,0.32,0.17,0.48,0.25
		c-3.91,2.49-7.82,4.98-11.73,7.46c-0.16-0.08-0.32-0.17-0.48-0.25c-0.05-0.62,0.48-0.77,0.86-0.99c3.39-1.99,6.66-4.16,9.93-6.33
		c0.19-0.13,0.4-0.23,0.63-0.26C510.39,279.35,510.49,279.39,510.59,279.46z"/>
	<path style="fill-rule:evenodd;clip-rule:evenodd;fill:#181412;" d="M497.12,261.42c0.09,0.18,0.18,0.36,0.26,0.54
		c-1.49,3.11-3.64,5.82-5.47,8.72c-0.14-0.3-0.35-0.1-0.53-0.08c-0.3-0.43,0-0.76,0.21-1.08c1.66-2.57,3.46-5.05,4.97-7.71
		C496.69,261.6,496.85,261.42,497.12,261.42z"/>
	<path style="fill-rule:evenodd;clip-rule:evenodd;fill:#181514;" d="M509.62,269.85c0.16,0.09,0.32,0.18,0.49,0.27
		c0.1,0.57-0.39,0.75-0.71,0.98c-2.17,1.54-4.35,3.07-6.6,4.51c-0.32,0.21-0.65,0.49-1.09,0.26c-0.16-0.08-0.32-0.15-0.48-0.23
		C504.03,273.71,506.83,271.78,509.62,269.85z"/>
	<path style="fill-rule:evenodd;clip-rule:evenodd;fill:#24201D;" d="M530.76,248.28c0.16,0,0.31,0,0.47,0
		c0.14,0.27-0.03,0.46-0.2,0.62c-0.98,0.86-1.91,1.78-2.77,2.77c-0.15,0.18-0.35,0.33-0.62,0.22c-0.1-0.17-0.2-0.35-0.31-0.52
		c1.31-1.6,2.77-3.03,4.34-4.37C531.37,247.42,531.07,247.85,530.76,248.28L530.76,248.28z"/>
	<path style="fill-rule:evenodd;clip-rule:evenodd;fill:#7A7473;" d="M500.54,307.53c-0.04,0.01-0.08,0.03-0.12,0.02
		c-0.37-0.04-0.73-0.08-1.1-0.12c0.39-0.05,0.77-0.09,1.16-0.14C500.5,307.37,500.52,307.45,500.54,307.53z"/>
	<path style="fill-rule:evenodd;clip-rule:evenodd;fill:#E5C369;" d="M487.04,319.3c-9.75,0.69-19.5-0.05-29.25-0.07
		c-8.12-0.01-16.23-0.07-24.35-0.11c-0.36,0-0.73,0.12-0.68-0.49c0.16-2.11-0.47-4.11-0.83-6.15c-0.35-1.95-0.25-2.11,1.7-2.06
		c13,0.29,26.01-0.11,39.01-0.27c5.94-0.07,11.86-0.8,17.79-1.26c7.21-0.56,14.42-1.19,21.65-1.41c0.53-0.02,0.89-0.03,0.91,0.71
		c0.05,3.13-0.2,6.22-1.17,9.22c-0.25,0.79-0.68,0.99-1.47,1.01c-6.87,0.2-13.74,0.46-20.61,0.7c-0.4,0.36-0.85,0.32-1.32,0.18
		C487.96,319.17,487.5,319.13,487.04,319.3z"/>
	<path style="fill-rule:evenodd;clip-rule:evenodd;fill:#997D2F;" d="M489.99,319.34c4.52-0.06,9.04,0.19,13.55-0.19
		c0.63-0.05,0.89,0.23,1.06,0.73c0.54,1.57,0.11,3.17,0.11,4.75c0,0.25-0.18,0.31-0.42,0.27c-1.47-0.3-2.73,0.4-4.03,0.87
		c-0.89,0.32-1.81,0.51-2.69,0.08c-4.26-2.12-8.52-1.3-12.69,0.11c-2.36,0.8-4.48,0.93-6.8-0.13c-2.6-1.18-5.25-0.33-7.84,0.39
		c-0.96,0.27-1.9,0.63-2.86,0.89c-1.14,0.31-2.35,0.49-3.35-0.24c-2.82-2.04-5.85-1.75-8.95-0.97c-1.24,0.31-2.46,0.68-3.76,0.67
		c-0.74-0.01-1.5-0.06-2.04-0.57c-2.19-2.08-4.76-2.02-7.4-1.32c-1.37,0.37-1.72-0.02-1.69-1.39c0.08-3.58,0.02-3.62,3.59-3.69
		c2.6-0.05,5.2-0.01,7.8,0c2.3,0.2,4.61,0.05,6.91,0.08c7.26,0.22,14.51,0.47,21.78,0.38c2.68-0.03,5.33-0.41,7.99-0.52
		C488.8,319.12,489.42,319.45,489.99,319.34z"/>
	<path style="fill-rule:evenodd;clip-rule:evenodd;fill:#F0D1B1;" d="M465.19,277.1c-0.97-0.35-1.97-0.51-3-0.46
		c-0.67,0.01-0.59-0.53-0.61-0.91c-0.09-1.91-1.01-3.4-2.29-4.74c-1.37-1.44-3-2.66-3.88-4.51c-0.37-0.78-0.72-1.57,0.24-2.22
		c0.11-0.04,0.22-0.06,0.33-0.05c0.11,0.02,0.21,0.06,0.3,0.12c0.04,0.03,0.09,0.06,0.13,0.09c0.08,0.06,0.16,0.13,0.24,0.2
		c0.04,0.03,0.08,0.06,0.12,0.09c0.08,0.05,0.16,0.11,0.24,0.17c0.17,0.11,0.34,0.22,0.51,0.32c0.14,0.07,0.29,0.15,0.43,0.22
		c2.39,1.4,4.87,2.59,7.57,3.27c3.69,1.1,7.41,1.1,11.13,0.25c4.76-1.23,9-3.41,12.58-6.82c0.69-0.65,1.1-1.46,1.56-2.24
		c0.08-0.14,0.17-0.29,0.25-0.43c0.06-0.16,0.13-0.31,0.2-0.47c0.08-0.16,0.19-0.3,0.34-0.41c0.12-0.04,0.24-0.03,0.36,0.02
		c0.99,0.94,0.78,2.11,0.59,3.25c-0.6,3.57-2.59,6.31-5.25,8.62c-0.85,0.73-1.68,1.48-2.47,2.27c-1.7,1.71-3.72,2.38-6.12,1.96
		c-2.21-0.39-4.43-0.53-6.68-0.4c-2.08,0.12-3.89,0.82-5.41,2.25C466.23,276.9,465.86,277.42,465.19,277.1z"/>
	<path style="fill-rule:evenodd;clip-rule:evenodd;fill:#EBC4A4;" d="M456.09,264.37c-1.31,0.43-0.74,1.27-0.39,2
		c0.72,1.51,1.96,2.59,3.15,3.7c1.33,1.25,2.37,2.66,2.94,4.41c0.23,0.71-0.25,1.54,0.4,2.16c-0.91,0.05-1.76,1.27-2.72,0.13
		c-0.09-0.04-0.17-0.09-0.23-0.17l0,0c-0.24-1.78-1.03-3.28-2.4-4.42c-4.22-3.49-6.12-8.25-7.52-13.34
		c-0.66-2.38-0.72-4.61,0.34-6.88c0.53-1.13,0.7-2.38,0.67-3.63c-0.01-0.46,0.12-0.86,0.26-1.27c0.55-0.93,1.09-1.87,1.85-2.66
		c0.75-0.05,0.76,0.55,0.85,1.02c0.19,1.05,0.21,2.11,0.08,3.18c-0.06,0.55-0.04,1.1-0.01,1.66c0.05,1.24,0.25,1.36,1.42,0.87
		c0.42,0.17,1.83,2.04,1.84,2.42c0.01,0.3-0.2,0.41-0.42,0.5c-0.41,0.17-0.84,0.27-1.25,0.37c-0.12,0.06-0.25,0.13-0.33,0.25
		c-0.03,0.09-0.04,0.18-0.04,0.27c0.01,0.1,0,0.2-0.01,0.3c-0.01,0.05-0.02,0.1-0.03,0.16c-0.53,0.94-0.23,2.13-0.94,3.01
		c-1.24,0.12-1.23,0.12-0.57,1.25c0.63,1.07,1.25,2.14,2.07,3.07C455.39,263.3,456.25,263.52,456.09,264.37z"/>
	<path style="fill-rule:evenodd;clip-rule:evenodd;fill:#F0D1B1;" d="M436.04,302.75c1.36-0.02,3.07,0.33,4.8,0.66
		c1.14,0.21,2.3,0,3.5,0.5c1.58,0.65,2.47,2.15,4.01,2.83c0.32,0.14,0.45,1.25,0.27,1.78c-0.18,0.53-0.93,0.11-1.23-0.07
		c-1.34-0.8-2.35-0.26-3.3,0.65c-1.7,1.62-3.83,0.67-5.75,0.92c-0.48,0.06-0.24-0.66-0.01-0.82c1.08-0.75,1.38-2.4,2.99-2.52
		c0.31-0.02,0.58-0.23,0.31-0.56c-0.25-0.3-0.57-0.54-1.02-0.21c-0.75,0.53-1.52,1.03-2.28,1.54c-2,1.33-4.2,2.11-6.61,2.19
		c-0.24,0.01-0.62,0.19-0.71-0.18c-0.03-0.14,0.23-0.38,0.41-0.53c0.61-0.52,1.32-0.87,2.06-1.19c0.64-0.28,1.52-0.26,1.6-1.31
		c0.02-0.32,0.51-0.29,0.83-0.32c0.29-0.03,0.73,0.05,0.58-0.48c-0.11-0.39-0.26-0.76-0.84-0.51c-0.76,0.34-1.59,0.54-2.19,1.17
		c-0.99,1.03-4.22,1.76-5.58,1.26c-0.15-0.06-0.36-0.1-0.27-0.28c0.07-0.16,0.26-0.28,0.42-0.37c1.29-0.74,2.73-1.1,4.15-1.5
		c0.22-0.06,0.59-0.01,0.58-0.29c-0.01-0.31-0.42-0.37-0.65-0.36c-0.63,0.05-1.26,0.16-1.88,0.29c-0.58,0.12-1.15,0.32-1.73,0.44
		c-0.67,0.15-1.45,0.1-1.63-0.59c-0.2-0.74,0.69-0.73,1.14-0.89C430.46,303.1,433.02,302.75,436.04,302.75z"/>
	<path style="fill-rule:evenodd;clip-rule:evenodd;fill:#EDC8A8;" d="M465.19,277.1c0.19-0.06,0.43-0.08,0.55-0.2
		c1.89-2.06,4.23-2.99,7.01-3.01c1.94-0.01,3.89,0.01,5.78,0.4c2.41,0.5,4.41-0.08,6.08-1.82c1.73-1.81,3.83-3.24,5.32-5.3
		c1.44-1.99,2.24-4.19,2.43-6.61c0.06-0.72-0.05-1.43-0.66-1.96c-0.32-0.54,0.17-0.88,0.33-1.29c0.12-0.3,0.27-0.61-0.01-0.89
		c-0.28-0.28-0.6-0.11-0.89,0.02c-0.47,0.21-0.93,0.47-1.45,0.56c-0.17,0.04-0.33,0.06-0.5,0.05c-0.12-0.02-0.22-0.07-0.31-0.14
		c-0.58-1.77-1.89-2.93-3.34-3.96c-0.08-0.53,0.34-0.81,0.58-1.18c0.09-0.14,0.18-0.29,0.28-0.43c0.15-0.21,0.33-0.34,0.6-0.33
		c0.69,0.09,1.25,0.52,1.89,0.75c1.03,0.36,1.28,0.18,1.06-0.88c-0.4-1.88-0.89-3.73-1.41-5.58c-0.28-0.98-0.67-2,0-3
		c1.73,0.3,2.01,1.64,2.18,3.05c0.6,3.06,1.62,6.01,2.65,8.94c1.61,4.56,0.99,8.8-1.54,12.83c-0.49,0.79-1.12,1.46-1.78,2.1
		c-1.83,1.79-3.6,3.63-5.53,5.32c-1.6,1.41-3.33,1.92-5.42,1.58c-1.97-0.32-3.95-0.66-5.96-0.6c-2.21,0.07-4.28,0.56-5.81,2.36
		c-0.23,0.27-0.48,0.56-0.91,0.42l0.01,0.01c-0.06-0.1-0.12-0.19-0.2-0.27C465.88,277.73,465.53,277.42,465.19,277.1z"/>
	<path style="fill-rule:evenodd;clip-rule:evenodd;fill:#E5B190;" d="M450.59,247.06c0.12,2.05-0.04,4.05-0.96,5.95
		c-0.96,1.97-0.44,3.94,0.06,5.92c1.34,5.24,3.57,9.92,7.83,13.5c1.18,1,2.22,2.34,1.71,4.17c-0.4-0.24-0.81-0.48-1.21-0.71
		c-3.47-2.92-6.94-5.84-9.53-9.63c-0.73-1.07-1.31-2.25-1.96-3.39c-0.37-1.37-1.07-2.69-0.96-4.14c0.25-3.34,1.74-6.24,3.79-8.76
		C450.15,249.02,449.5,247.72,450.59,247.06z"/>
	<path style="fill-rule:evenodd;clip-rule:evenodd;fill:#E6B594;" d="M497.12,261.42c-1.66,3.22-3.98,6.02-5.74,9.18
		c-1.07,1.44-2.19,2.83-3.19,4.32c-0.71,1.05-1.46,1.98-2.68,2.45c-0.25,0.1-0.61,0.26-0.67,0.47c-0.5,1.58-1.93,1.86-3.18,2.46
		c-0.33,0.16-1.09,0.05-0.85,0.84c-0.08,0.13-0.17,0.14-0.27,0.02c-0.15-0.49-0.35-0.96-0.45-1.46c-0.26-1.24-0.86-2.12-2.19-2.35
		c0.56-0.56,1.29-0.39,1.93-0.34c1.71,0.12,3.08-0.43,4.32-1.63c2.5-2.42,5.35-4.49,7.49-7.25c3.08-3.97,4.09-8.43,2.55-13.33
		c-0.59-1.87-1.28-3.7-1.89-5.57c-0.15-0.44-0.38-0.9-0.19-1.39c0.31-0.04,0.46-0.22,0.51-0.52c0.33-0.13,0.54-0.09,0.47,0.33
		c-0.33,1.02,0.45,1.34,1.12,1.64c1.46,0.66,2.64,1.93,3.03,3.2c0.81,2.65,1.53,5.49,0.11,8.26
		C497.26,260.96,497.2,261.19,497.12,261.42z"/>
	<path style="fill-rule:evenodd;clip-rule:evenodd;fill:#7C8391;" d="M501.71,275.87c2.91-1.76,5.7-3.68,8.4-5.75
		c1.06-0.77,2.11-1.55,3.17-2.32c0.34-0.25,0.71-0.56,0.72,0.24c0.04,2.86,0.08,5.71,0.13,8.57c-0.02,0.09-0.08,0.14-0.16,0.17
		c-0.16,0.12-0.31,0.24-0.47,0.35c-2.25-1.11-4.53-0.66-6.78-0.07c-3.68,0.97-7.25,2.22-10.34,4.56c-0.31,0.24-0.64,0.5-1.09,0.36
		c-0.34-0.29-0.04-0.73-0.25-1.05c-0.31-0.61,0.02-0.9,0.52-1.2C497.63,278.46,499.67,277.15,501.71,275.87z"/>
	<path style="fill-rule:evenodd;clip-rule:evenodd;fill:#EBC4A3;" d="M492.12,247.83c1.26,3.79,3.22,7.41,3.1,11.55
		c-0.1,3.71-1.38,7.05-3.95,9.72c-2.43,2.52-5.07,4.83-7.65,7.2c-0.75,0.69-1.65,1.07-2.72,1.02c-1-0.04-1.99,0.01-2.99,0.01
		c-0.44,0-0.88,0-1.32,0.01c-0.63,0.2-1.18,0.09-1.65-0.38c-1.37-0.59-2.71-0.19-4.05,0.16c-1.18,0.93-2.45,1.78-3,3.28
		c-0.12,0.33-0.41,0.47-0.78,0.29c-0.66-0.68-0.23-1.67-0.69-2.4c3.05-3.8,7.13-3.42,11.24-2.7c2.76,0.48,5.17,0.35,7.3-1.93
		c2.35-2.52,5.25-4.54,7.03-7.59c1.98-3.39,2.48-6.98,1.32-10.75c-0.84-2.73-1.92-5.4-2.48-8.21c-0.12-0.58-0.09-1.18-0.13-1.78
		C491.12,246.21,491.16,247.28,492.12,247.83z"/>
	<path style="fill-rule:evenodd;clip-rule:evenodd;fill:#7C8391;" d="M489.24,296.8c0.57-0.73,0.25-1.43-0.07-2.12
		c-0.53-1.17-0.98-2.36-0.73-3.69c0.06-0.29,0.07-0.57-0.31-0.65c-0.28-0.06-0.58-0.08-0.74,0.23c-0.14,0.28-0.23,0.59-0.34,0.88
		c-0.11,0.3-0.21,0.59-0.31,0.89c-0.34-0.14-0.09-0.52-0.27-0.71c-0.7-0.74-1.1-0.22-1.48,0.36c-0.18,0.27-0.18,0.82-0.7,0.57
		c-0.71-0.34-1.5-0.63-1.96-1.3c-0.17-0.25,0.32-0.4,0.54-0.51c1.14-0.58,2.28-1.15,3.45-1.66c0.83-0.36,0.89-0.83,0.53-1.6
		c-0.68-1.41-1.81-2.42-2.88-3.49c-0.23-0.23-0.7-0.41-0.56-0.81c0.04-0.12,0.57-0.05,0.87-0.12c1.89-0.41,3.28,0.03,4.24,1.91
		c0.71,1.39,1.85,0.5,2.81,0.1c0.21-0.08,0.42-0.14,0.64-0.22c-0.07,0.21-0.1,0.45-0.23,0.62c-0.39,0.52-0.42,0.88,0.1,1.42
		c0.68,0.7,0.67,1.84,1.41,2.6c0.25,0.25-0.2,0.81-0.56,1.07c-0.17,0.13-0.53,0.26-0.63,0.18c-0.37-0.3-0.08-0.65,0.06-0.96
		c0.12-0.25,0.13-0.42-0.16-0.58c-0.33-0.17-0.63-0.04-0.71,0.21c-0.33,1-0.86,0.78-1.46,0.29c-0.2-0.16-0.44-0.23-0.66-0.08
		c-0.22,0.15-0.11,0.38,0,0.52c2.06,2.57,1.02,5.62,1.34,8.46c0.12,0.27,0.2,0.58-0.07,0.75c-0.21,0.14-0.49-0.02-0.62-0.22
		C489.31,298.45,488.68,297.75,489.24,296.8z"/>
	<path style="fill-rule:evenodd;clip-rule:evenodd;fill:#DFE1E5;" d="M474.46,287.63c-3.08-0.11-3.52,0.17-3.01-3.6
		c0.23-1.71,0.96-3.27,1.52-4.88c0.11-0.31,0.31-0.54,0.66-0.64c1.48-0.41,2.97-0.66,4.47-0.15c0.66,0.22,1.19,0.64,1.33,1.4
		c0.11,0.6-0.12,0.89-0.73,0.9c-0.07,0-0.19,0.25-0.18,0.37c0.03,0.31,0.29,0.6,0.55,0.53c0.85-0.24,0.68,0.35,0.73,0.79
		c0.15,1.33-0.19,2.61-0.4,3.91c-0.08,0.49-0.43,0.61-0.82,0.75C477.24,287.49,475.87,287.66,474.46,287.63z"/>
	<path style="fill-rule:evenodd;clip-rule:evenodd;fill:#767C8A;" d="M468.36,309.68c-0.56,0-1.11,0.01-1.67,0.01
		c-0.08-0.33,0.16-0.52,0.35-0.71c2.44-2.6,1.43-6.72-0.5-8.61c-0.92-0.9-2.03-1.39-3.35-1.36c-0.51,0.01-1.04,0.17-1.53-0.09
		c0.2-0.8-0.89-1.59-0.01-2.4c0.7-0.72,1.58-0.59,2.44-0.51c0.67,0.06,1.3,0.3,1.97,0.35c0.29-0.02,0.57,0.07,0.74,0.29
		c1.22,1.54,2.57,2.99,3.26,4.88c0.65,1.08,1.7,2.21,1.84,3.25c0.3,2.16,1.59,0.85,2.42,1.09c0.09-0.11,0.17-0.12,0.27-0.01
		c0.01,0.44,0.24,0.93-0.63,0.88c-2.3-0.13-2.9,0.31-3.67,2.47c-0.14,0.39-0.42,0.27-0.67,0.29
		C469.22,309.71,468.76,309.49,468.36,309.68z"/>
	<path style="fill-rule:evenodd;clip-rule:evenodd;fill:#595D67;" d="M481.6,297.77c0.87-0.09,1.73-0.17,2.6-0.26
		c0.51,1.25,1.06,2.48,1.61,3.72c0.7,1.59,0.45,2.99-0.59,3.96c-0.99,0.93-2.36,1-3.9,0.35c-1.6-0.68-2.63-1.87-3.38-3.38
		c-0.06-0.13-0.04-0.24,0.06-0.34l0,0C479.05,300.34,480.15,298.9,481.6,297.77z"/>
	<path style="fill-rule:evenodd;clip-rule:evenodd;fill:#5B5F69;" d="M509.89,279.73c-3.16,2.33-6.53,4.34-9.88,6.38
		c-0.4,0.25-0.78,0.54-1.16,0.81c-0.51,0.29-1.03,0.57-1.53,0.88c-1.73,1.04-1.73,1.04-2.51-0.89c2.51-3.83,6.3-5.71,10.52-6.93
		c1.07-0.31,2.12-0.75,3.24-0.79C509.03,279.18,509.73,278.89,509.89,279.73z"/>
	<path style="fill-rule:evenodd;clip-rule:evenodd;fill:#DEE1E6;" d="M458.06,282.84c0.35-1.31,0.86-2.54,1.67-3.64
		c0.45-0.62,1.02-1.12,1.69-1.48c1.39-0.76,2.94-0.49,4.17,0.62c1.17,1.06-0.18,1.88-0.27,2.81c-0.13,1.37-0.71,2.73-1.24,4.04
		c-1.08,2.66-1.83,2.92-4.45,1.75c-0.47-0.21-0.94-0.46-1.43-0.58c-0.65-0.16-0.84-0.5-0.64-1.11c0.34-0.2,0.73-0.11,1.09-0.19
		c0.61,0.01,1.11,0.32,1.66,0.53c0.12,0.05,0.23,0.18,0.39,0.07c-0.16-0.05-0.26-0.16-0.32-0.32c0.26-0.81,0.93-1.35,1.38-2.04
		c0.36-0.07,0.44-0.26,0.22-0.56c0.16-0.65,0.33-1.29,0.8-1.8c0.19-0.15,0.56,0.01,0.62-0.16c0.08-0.26-0.28-0.26-0.44-0.38
		c-0.16-0.11-0.32-0.2-0.45-0.35c-0.42-0.24-0.28-1.4-1.23-0.76c-0.21,0.24-0.45,0.44-0.72,0.61c-0.64,0.57-0.94,1.36-1.37,2.06
		C458.9,282.38,458.73,282.92,458.06,282.84z"/>
	<path style="fill-rule:evenodd;clip-rule:evenodd;fill:#666A76;" d="M461.65,298.92c2.59-0.84,5.07,0.31,6.4,2.99
		c1.44,2.89,0.89,6.04-1.36,7.79c-1.22,0.02-2.44,0.04-3.66,0.04c-0.13,0-0.27-0.08-0.4-0.12c0.11-0.09,0.2-0.22,0.32-0.27
		c0.63-0.29,1.38-0.4,1.79-1.06c1.7-1.81,1.94-3.26,0.88-5.41c-0.65-1.31-1.42-1.76-2.87-1.63c-0.39,0.03-0.79,0.16-1.15-0.14
		C461.34,300.36,461.33,299.64,461.65,298.92z"/>
	<path style="fill-rule:evenodd;clip-rule:evenodd;fill:#6F7481;" d="M495.25,281.87c2.28-1.51,4.59-2.94,7.2-3.84
		c2.82-0.97,5.62-1.99,8.66-1.89c0.88,0.03,1.88-0.02,2.39,0.99c-0.4,0.31-0.8,0.62-1.2,0.92c-0.94,0.27-1.91-0.05-2.84,0.12
		c-4.39,0.79-8.61,2.02-12.21,4.81c-0.79,0.61-1.45,1.37-2.15,2.07c-0.24,0.24-0.43,0.6-0.88,0.48c-0.06,0.01-0.12,0-0.17-0.04
		c-0.08-0.08-0.15-0.16-0.21-0.24c0.01-0.08,0.02-0.17,0.02-0.25c0.06-0.1,0.15-0.19,0.16-0.32c0-0.1,0-0.2-0.01-0.3
		c-0.06-0.19-0.12-0.39,0.04-0.56l0.01-0.01c0.06-0.08,0.14-0.15,0.24-0.19l0.04-0.04c0.04-0.1,0.11-0.18,0.19-0.24l0-0.01
		c0.08-0.09,0.17-0.18,0.21-0.3c0-0.07,0.02-0.14,0.07-0.19c0.06-0.1,0.14-0.18,0.17-0.3c-0.01-0.07,0-0.13,0.05-0.18
		c0.06-0.07,0.09-0.16,0.1-0.25C495.13,282,495.17,281.93,495.25,281.87z"/>
	<path style="fill-rule:evenodd;clip-rule:evenodd;fill:#7C8391;" d="M466.22,296.48c-0.28,0.42-0.62,0.17-0.95,0.09
		c-1.2-0.27-2.41-0.43-3.62-0.05c-0.2-1.75,0.08-3.51,0.05-5.25c-0.06-3.08,2.88-3.4,4.32-5.08c0.08-0.09,0.25-0.1,0.38-0.15
		c-0.04,0.14-0.04,0.29-0.11,0.41c-0.64,1.15-1.29,2.3-1.94,3.44c-0.57,1-0.15,1.58,0.81,1.92c0.38,0.13,0.76,0.26,1.15,0.33
		c0.61,0.11,1.65,0.06,1.71,0.51c0.1,0.77-0.95,0.89-1.5,1.3c-0.73,0.55-2.25,0.9-0.54,2.08
		C466.13,296.14,466.29,296.24,466.22,296.48z"/>
	<path style="fill-rule:evenodd;clip-rule:evenodd;fill:#6D727F;" d="M485.64,297.26c0.48-0.08,0.96-0.16,1.45-0.23
		c1.29,1.33,1.71,3.05,1.95,4.77c0.31,2.28-0.22,4.37-2.11,5.93c-0.27,0.22-0.44,0.46-0.28,0.83c-0.64,0.3-1.32,0.19-1.99,0.17
		c-1.06-0.21-2.14,0-3.21-0.2c-1.96-0.37-3.39-1.52-4.61-3c-0.21-0.26-0.32-0.56-0.11-0.88l-0.01,0.02
		c0.08-0.03,0.11-0.07,0.11-0.12c-0.01-0.06-0.02-0.09-0.04-0.09c0.01-0.08,0.02-0.17,0.02-0.25c0.06-0.1,0.15-0.19,0.16-0.31
		c-0.02-0.06-0.01-0.11,0.03-0.16c0.62-0.31,0.85,0.24,1.15,0.55c0.86,0.9,1.75,1.75,2.96,2.16c1.58,0.54,3.15,0.68,4.53-0.47
		c1.47-1.23,1.56-2.88,1.2-4.6c-0.2-0.94-0.65-1.79-1.06-2.66C485.56,298.25,485.22,297.78,485.64,297.26z"/>
	<path style="fill-rule:evenodd;clip-rule:evenodd;fill:#767B88;" d="M481.56,285c0-0.6-0.13-1.42,0.35-1.67
		c0.44-0.23,0.89,0.53,1.31,0.86c1.09,0.87,2.05,1.88,2.79,3.09c0.42,0.67,0.29,1.03-0.36,1.42c-1.23,0.75-2.54,1.33-3.89,1.82
		c-0.28,0.1-0.55,0.26-0.82,0.4c0.21,0.28,0.37,0.63,0.65,0.82c0.52,0.36,1.1,0.64,1.66,0.94c1.21,0.63,1.35,1.31,0.26,2.09
		c-0.94,0.67-1.57,1.56-2.2,2.48c-0.83,1.75-1.99,3.22-3.62,4.31c-0.9,0.43-0.46-0.36-0.42-0.54c0.28-1.18,0.63-2.35,0.95-3.52
		c0.57-0.37,1.29,0.35,1.87-0.33c0.68-0.81,1.04-1.79,1.53-2.69c0.36-0.66-0.44-0.73-0.89-0.94c-0.37-0.17-0.98,0.35-1.13-0.4
		c0.42-1.58,0.84-3.17,1.26-4.75c0.66,0.11,0.95,1.13,1.84,0.71c0.77-0.36,1.41-0.8,1.47-1.71c0.06-0.95-0.46-1.56-1.26-2
		C482.5,285.15,481.98,285.25,481.56,285z"/>
	<path style="fill-rule:evenodd;clip-rule:evenodd;fill:#81BDC3;" d="M449.37,307.11c-0.63-1.64-0.69-3.34-0.66-5.07
		c1.5-0.9,2.16-0.66,2.76,0.99c0.14,0.37,0.25,0.75,0.37,1.13c0.38,1.18,0.76,1.42,2.01,1.21c1.03-0.17,1.9,0.01,2.47,0.97
		c-0.5,2.68-2.08,3.59-5.06,2.93c0.13-0.24,0.35-0.29,0.6-0.25c-0.16-0.11-0.36-0.15-0.54-0.24
		C450.53,308.41,450.03,307.67,449.37,307.11z"/>
	<path style="fill-rule:evenodd;clip-rule:evenodd;fill:#686C79;" d="M494.21,285.52c4.3-5.1,10.05-7.1,16.45-7.71
		c0.53-0.05,1.09,0.15,1.64,0.23c-0.54,0.41-1.09,0.81-1.63,1.22c-0.1,0.05-0.2,0.12-0.3,0.16c-0.16,0.1-0.32,0.2-0.47,0.3
		c-1.56-0.77-2.96,0.16-4.35,0.55c-3.93,1.09-7.57,2.74-10.04,6.22c-0.14,0.2-0.46,0.27-0.69,0.41
		C494.76,286.38,494.68,285.87,494.21,285.52z"/>
	<path style="fill-rule:evenodd;clip-rule:evenodd;fill:#595E68;" d="M461.61,301.1c1.47-0.34,2.97-0.62,3.93,0.94
		c0.96,1.55,1.48,3.22,0.67,5.04c-0.29,0.66-0.7,1.14-1.47,1.21c-0.22-0.4-0.59-0.61-0.95-0.87c-0.57-0.4-1.9,0.52-1.79-1.04
		c0.05-0.78-0.5-1.44-0.37-2.3C461.79,303.11,461.63,302.09,461.61,301.1z"/>
	<path style="fill-rule:evenodd;clip-rule:evenodd;fill:#636873;" d="M485.64,297.26c-0.03,0.77,0.48,1.34,0.76,1.98
		c0.41,0.91,0.84,1.81,0.91,2.82c0.15,2.38-0.67,3.99-2.38,4.77c-1.63,0.74-4.4,0.16-5.89-1.18c-0.7-0.63-1.17-1.5-2.05-1.94
		c0.1-0.24,0.19-0.48,0.29-0.73c0.06-0.08,0.12-0.17,0.19-0.24l0,0c0.11-0.1,0.13-0.24,0.15-0.38c0.08-0.17,0.17-0.33,0.4-0.33
		c0.54,0.09,0.57,0.61,0.78,0.97c0.96,1.56,2.37,2.47,4.16,2.6c2.1,0.15,3.41-1.6,2.75-3.62c-0.38-1.16-0.95-2.26-1.44-3.39
		c-0.16-0.37-0.38-0.71-0.08-1.1C484.68,297.43,485.16,297.34,485.64,297.26z"/>
	<path style="fill-rule:evenodd;clip-rule:evenodd;fill:#7D8391;" d="M453.97,296.83c-0.38-0.03-1.09,0-1.1-0.09
		c-0.08-0.51,0.44-0.68,0.77-0.91c1.35-0.96,2.73-1.9,4.1-2.83c0.4-0.27,0.94-0.59,1.32-0.28c0.48,0.39-0.23,0.61-0.35,0.93
		c-0.05,0.14-0.13,0.32-0.08,0.43c0.63,1.31,0.56,2.66,0.42,4.06c-0.06,0.6,0.16,1.43,0.36,1.81c0.62,1.17-0.08,2.22,0.06,3.33
		c0.09,0.69-1.18,0.85-1.83,1.13c-0.33,0.14-0.09-0.6-0.08-0.92c0.05-1.39,0.09-2.79,0.25-4.17c0.18-1.53-0.65-2.08-1.94-2.3
		c-0.63-0.11-1.26-0.18-1.89-0.27C453.98,296.78,453.98,296.8,453.97,296.83z"/>
	<path style="fill-rule:evenodd;clip-rule:evenodd;fill:#DFE1E4;" d="M488.77,281.84c-0.58-0.21-1.24,0.59-1.74-0.09
		c-0.68-0.94-1.56-2.1-1.23-3.13c0.41-1.24,1.83-1.88,3.03-2.5c0.79-0.41,1.54-0.32,2.2,0.32c1.16,1.11,2.17,2.34,2.9,3.77
		c0.79,1.57,0.44,2.62-1.1,3.47c-0.59,0.33-1.19,0.63-1.81,0.9c-1.3,0.56-2.51-0.02-2.9-1.34c-0.09-0.31-0.07-0.43,0.29-0.4
		c0.49,0.03,0.56-0.34,0.63-0.71c0.46-0.05,0.55,0.38,0.8,0.6c0.45,0.41,0.94,0.87,1.54,0.39c0.63-0.49,0.45-1.1,0-1.65
		c-0.09-0.35,0.19-0.43,0.4-0.58c0.1-0.07,0.42,0.03,0.28-0.25c-0.03-0.07-0.28-0.03-0.43-0.08c-0.5-0.36-0.76-0.84-0.76-1.45
		c0.05-0.23,0.4-0.37,0.3-0.59c-0.14-0.33-0.49-0.03-0.73-0.13c-0.36-0.14-0.72-0.27-1-0.55c-0.04-0.11-0.04-0.21,0.02-0.31
		c0.09-0.12,0.33-0.11,0.32-0.33c-0.05,0.06-0.11,0.11-0.17,0.15c-0.34,0.37-0.98,0.4-1.14,0.98c-0.1,0.2-0.21,0.38-0.4,0.51
		c-0.2,0.16-0.51-0.11-0.66,0.18c0.14,0.04,0.28,0.08,0.41,0.16c0.23,0.19,0.34,0.43,0.35,0.72c-0.34,0.59,0.12,0.78,0.51,1.01
		C488.94,281.19,489.05,281.5,488.77,281.84z"/>
	<path style="fill-rule:evenodd;clip-rule:evenodd;fill:#777D8A;" d="M486.65,308.55c-0.28-0.11-0.72,0.13-0.84-0.24
		c-0.11-0.32,0.31-0.41,0.51-0.56c2.19-1.64,3.08-4.24,2.24-6.84c-0.42-1.31-0.98-2.59-1.47-3.88c0.72-0.08,1.43-0.15,2.15-0.23
		c-0.09,0.79,0.39,1.42,0.64,2.11c0.05,0.13,0.29,0.19,0.44,0.29c0.04-0.19,0.09-0.37,0.13-0.56c0.36,3.06-0.05,6.09-0.31,9.13
		c-0.03,0.38-0.29,0.52-0.66,0.55C488.54,308.38,487.6,308.47,486.65,308.55z"/>
	<path style="fill-rule:evenodd;clip-rule:evenodd;fill:#D2E6EE;" d="M448.72,300.6c-0.35-1.46,0.03-1.79,1.55-1.33
		c1.91,0.57,3.93,0.67,5.9,0.18c0.67-0.17,0.72,0.13,0.76,0.63c0.13,1.56,0.05,3.1-0.33,4.61c-0.96,0.46-1.91-0.07-2.87-0.07
		c-1.13,0-1.31-1.18-1.63-2.08c-0.48-1.32-1.21-1.76-2.72-1.73C449.13,300.81,448.9,300.78,448.72,300.6z"/>
	<path style="fill-rule:evenodd;clip-rule:evenodd;fill:#E4B08F;" d="M467.11,280.71c0.59-0.05,0.59-0.59,0.75-0.96
		c0.57-1.37,1.85-2,2.9-2.87c1.48,0.23,2.91-0.27,4.36-0.29c0.31,0.6,0.84,0.78,1.47,0.76c-1.24,0.14-2.4,0.73-3.72,0.52
		c-0.64-0.11-0.86,0.6-0.87,1.08c-0.02,1.55-0.9,2.88-1,4.39c-0.02,0.33-0.15,0.53-0.51,0.51c-0.77-0.04-1.45-0.22-1.96-0.89
		C467.98,282.25,467.88,281.27,467.11,280.71z"/>
	<path style="fill-rule:evenodd;clip-rule:evenodd;fill:#C32F2A;" d="M472.91,296.76c0.79,0.69,0.15,1.69,0.16,2.35
		c0.02,1.47,0.34,3.01-0.06,4.5c-0.09,0.35-0.11,0.66-0.49,0.14c-2.37-3.25-2.47-9.2-0.18-12.48c0.21-0.3,0.38-0.69,0.83-0.46
		c0.37,0.19,0.27,0.58,0.13,0.85c-0.58,1.12,0.02,2.43-0.6,3.54C472.94,295.7,472.64,296.27,472.91,296.76z"/>
	<path style="fill-rule:evenodd;clip-rule:evenodd;fill:#F8F9FB;" d="M458.06,282.84c0.96-0.65,1.11-1.85,1.8-2.68
		c0.16-0.19,0.13-0.7,0.61-0.39c0.39-0.02,0.73-0.08,0.69-0.6c-0.25-0.89,0.27-0.61,0.67-0.42c0.52,0.24,0.69,0.72,0.77,1.24
		c-0.02,0.06-0.05,0.13-0.08,0.19c-0.01,0.07-0.01,0.14,0.03,0.21c0.05,0.07,0.09,0.13,0.14,0.19c0.06,0.06,0.1,0.13,0.13,0.21
		c0,0.04,0.01,0.08,0.01,0.13c-0.24,0.65-0.49,1.31-0.73,1.96c-0.07,0.04-0.14,0.06-0.22,0.07c-0.23,0.03-0.44-0.1-0.67-0.11
		c0.2,0.09,0.4,0.16,0.55,0.33c0.05,0.06,0.08,0.13,0.1,0.2c-0.27,0.78-0.73,1.43-1.44,1.87c-0.07,0.08-0.16,0.11-0.26,0.11
		c-0.15-0.01-0.29-0.03-0.44-0.05c-0.39-0.02-0.75-0.25-1.16-0.14c-0.3,0.49-0.66,0.22-1.01,0.07
		C457.44,284.38,457.71,283.6,458.06,282.84z"/>
	<path style="fill-rule:evenodd;clip-rule:evenodd;fill:#DDDFE2;" d="M496.46,303.46c0.25-1.96-0.38-3.9-0.09-5.87
		c0.08-0.55-0.41-1.22-0.65-1.73c-0.71-1.52-0.7-3.2-1.31-4.7c-0.68-1.7-0.74-3.62-1.8-5.19c-0.04-0.06,0.01-0.19,0.02-0.29
		c0.11,0.03,0.22,0.07,0.33,0.1c1.37,0.35,0.93,1.75,1.49,2.57c0.88,1.3,0.99,2.96,1.31,4.35c0.4,1.79,1.75,3.26,1.61,5.14
		c-0.13,1.87-0.34,3.74-0.51,5.6C496.74,303.62,496.6,303.62,496.46,303.46z"/>
	<path style="fill-rule:evenodd;clip-rule:evenodd;fill:#C3302A;" d="M475.54,295.74c-0.01-0.08-0.03-0.16-0.01-0.24
		c0.14-0.9,0.08-1.86,0.66-2.65c0.48,1.02,1.55,1.81,1.52,3.01c-0.06,2.45-0.79,4.78-1.58,7.09c-0.04,0.13-0.17,0.23-0.25,0.35
		c-0.09-0.13-0.23-0.25-0.25-0.39c-0.08-0.75-0.32-1.5-0.1-2.25c0.22-0.75,0.2-1.47,0.03-2.21
		C475.38,297.55,475.39,296.64,475.54,295.74z"/>
	<path style="fill-rule:evenodd;clip-rule:evenodd;fill:#595D67;" d="M481.56,285c1.03-0.48,1.74,0.11,2.39,0.76
		c0.73,0.72,0.82,1.65,0.36,2.5c-0.43,0.8-1.25,1.19-2.15,1.29c-0.84,0.09-0.96-0.67-1.29-1.17
		C481.1,287.26,481.33,286.13,481.56,285z"/>
	<path style="fill-rule:evenodd;clip-rule:evenodd;fill:#FBFBFB;" d="M476.89,290c0.9,0.19,1.31-0.08,1.67-0.6
		c1.13-1.59,1.8-3.35,2.02-5.29c0.03-0.25-0.17-0.74,0.23-0.71c0.24,0.02,0.18,0.53,0.13,0.86c-0.38,2.77-1.12,5.45-1.96,8.11
		c-0.21,0.65-0.23,1.36-0.72,1.91c-0.4-0.59-0.84-1.15-1.19-1.77c-0.27-0.48-0.42-1.02-0.61-1.55
		C476.24,290.31,476.09,289.71,476.89,290z"/>
	<path style="fill-rule:evenodd;clip-rule:evenodd;fill:#F9FAFB;" d="M488.04,279.94c-0.08-0.23-0.16-0.46-0.24-0.69l0-0.11
		c0.01-0.08,0.03-0.15,0.07-0.22c0.04-0.06,0.1-0.11,0.17-0.15c0.09-0.17,0.19-0.34,0.29-0.51c0.35-0.33,0.78-0.42,1.24-0.45
		c0.41-0.02,0.74,0.11,0.91,0.51c0.24,0.08,0.34,0.25,0.34,0.49c-0.04,0.09-0.1,0.17-0.19,0.23c0,0-0.1,0.03-0.1,0.03
		s0.07-0.01,0.08-0.02c0.08-0.06,0.14-0.1,0.22-0.13c0.03,0.04,0.06,0.07,0.09,0.1c0.26,0.5,0.52,1,0.78,1.5
		c0.01,0.33-0.65,0.39-0.33,0.84c1.13,0.07,0.85,0.93,0.67,1.48c-0.18,0.58-0.59,1.1-1.44,0.8c-0.79-0.28-1.15-0.9-1.55-1.53
		c-0.04-0.07-0.07-0.14-0.08-0.22c0.07-0.08,0.15-0.14,0.24-0.18c0.09-0.03,0.21-0.01,0.29-0.06c0.14-0.07,0.01-0.2,0.02-0.04
		c0.01,0.16-0.25,0.02-0.1,0.02c-0.19,0.03-0.32,0.14-0.43,0.27c-0.08-0.01-0.15-0.03-0.21-0.08c-0.09-0.32-0.19-0.63-0.28-0.95
		c0-0.04-0.01-0.09-0.01-0.13c-0.01-0.09-0.03-0.17-0.05-0.26C488.33,280.29,488.12,280.16,488.04,279.94z"/>
	<path style="fill-rule:evenodd;clip-rule:evenodd;fill:#5A5E68;" d="M479.62,293.14c0.51,0.22,1.05-0.06,1.61,0.17
		c1.01,0.42,1.42,0.82,0.5,1.78c-0.37,0.38-0.51,0.96-0.77,1.45c-0.6,1.17-1.38,1.84-2.71,0.96
		C478.62,296.02,478.91,294.51,479.62,293.14z"/>
	<path style="fill-rule:evenodd;clip-rule:evenodd;fill:#7D8391;" d="M447.99,304.7c-1.09-1.12-2.29-2.1-3.8-2.58
		c-0.7-0.22-0.56-0.42-0.11-0.7c1.05-0.64,2.12-1.25,3.18-1.87c0.43-0.25,0.66-0.15,0.69,0.38c0.07,1.59,0.15,3.17,0.23,4.76
		C448.12,304.79,448.06,304.8,447.99,304.7z"/>
	<path style="fill-rule:evenodd;clip-rule:evenodd;fill:#747A87;" d="M476.73,304.64c1.39,2.46,3.58,3.6,6.31,3.88
		c0.54,0.06,1.12-0.18,1.62,0.2c-1.87,0.09-3.74,0.18-5.62,0.28c-0.16,0.01-0.37,0.08-0.47,0c-1.03-0.81-2.25-1.5-2.99-2.52
		C475.16,305.9,475.65,304.83,476.73,304.64z"/>
	<path style="fill-rule:evenodd;clip-rule:evenodd;fill:#329447;" d="M496.02,307.56c-0.95,0.01-1.56,0.15-1.68-0.66
		c-0.11-0.75,0.08-1.27,0.89-1.58c1.09-0.42,2.22,0.04,3.34-0.37c0.63-0.23,0.92,0.75,1.13,1.32c0.27,0.72-0.47,0.64-0.8,0.72
		C497.82,307.25,496.72,307.42,496.02,307.56z"/>
	<path style="fill-rule:evenodd;clip-rule:evenodd;fill:#787E8B;" d="M469.77,296.78c0.34,1.42,0.69,2.85,1.02,4.28
		c0.05,0.22,0.44,0.46,0.05,0.66c-0.09,0.04-0.34-0.26-0.52-0.41c-0.17-0.11-0.34-0.24-0.42-0.42c-0.81-1.82-2.1-3.27-3.48-4.67
		c-0.11-0.12-0.14-0.28-0.21-0.43c-0.08-0.87,2.03-2.75,2.71-2.38c0.4,0.22,0.4,0.74,0.4,1.18c-0.45,0.32-0.96,0.56-0.81,1.29
		C468.65,296.63,469.29,296.56,469.77,296.78z"/>
	<path style="fill-rule:evenodd;clip-rule:evenodd;fill:#349347;" d="M473.32,309.47c-0.32,0-0.65,0.04-0.96-0.01
		c-0.42-0.07-1.08,0.25-1.19-0.43c-0.09-0.55,0.28-0.96,0.76-1.25c1.16-0.72,3.5-0.67,4.45,0.1c0.32,0.26,0.62,0.59,0.49,1.01
		c-0.1,0.34-0.5,0.33-0.82,0.36c-0.91,0.1-1.82,0.2-2.72,0.3C473.32,309.52,473.32,309.5,473.32,309.47z"/>
	<path style="fill-rule:evenodd;clip-rule:evenodd;fill:#7A808E;" d="M466.42,287.37c0.34-0.53,0.68-1.48,1.14-1.39
		c0.65,0.12,0.56,1.1,0.69,1.73c0.26,1.24,0.42,2.51,0.6,3.76c0.08,0.54-0.02,0.87-0.7,0.6c-0.63-0.25-1.26-0.51-1.92-0.64
		c-1.37-0.26-1.69-0.94-0.96-2.12c0.06-0.09,0.15-0.17,0.18-0.29c0-0.06,0.02-0.12,0.06-0.17c0.31-0.07,0.39,0.19,0.51,0.38
		c0.28,0.46,0.65,0.78,1.13,0.34c0.49-0.44,0.42-0.96-0.02-1.45C466.9,287.88,466.29,287.96,466.42,287.37z"/>
	<path style="fill-rule:evenodd;clip-rule:evenodd;fill:#ACD0DD;" d="M453.56,299c-1.16-0.02-2.29-0.24-3.41-0.52
		c-0.17-0.04-0.46,0.02-0.45-0.24c0-0.13,0.22-0.31,0.38-0.37c1.97-0.74,3.96-0.74,5.97-0.17c0.27,0.08,0.58,0.24,0.51,0.56
		c-0.04,0.17-0.33,0.31-0.53,0.4C455.23,298.98,454.4,299.02,453.56,299z"/>
	<path style="fill-rule:evenodd;clip-rule:evenodd;fill:#D9DADE;" d="M475.38,290.44c-0.6,1.81-0.14,3.92-0.86,5.88
		c-0.08,0.23-0.29,0.62-0.37,0.6c-0.33-0.07-0.27-0.43-0.33-0.69c-0.38-1.54,0.05-3,0.42-4.47c0.12-0.46,0.63-1.01-0.26-1.36
		c-0.3-0.12-0.12-0.48,0.08-0.71c0.32-0.38,1-0.39,1.08-1.02C475.62,289.16,475.16,289.74,475.38,290.44z"/>
	<path style="fill-rule:evenodd;clip-rule:evenodd;fill:#BDDBE3;" d="M448.72,300.6c2.44-0.42,3.01-0.04,3.87,2.48
		c0.3,0.88,0.74,1.62,1.93,1.23c0.73-0.25,1.35,0.45,2.08,0.38c-0.01,0.16-0.02,0.32-0.03,0.49c-0.1,0.16-0.1,0.34-0.15,0.52l0,0.01
		c-1.02-0.23-2.02-0.47-3.12-0.29c-0.69,0.12-1.13-0.48-1.39-1.1c-0.17-0.4-0.25-0.84-0.39-1.25c-0.51-1.43-0.71-1.57-2.22-1.43
		c-0.27,0.03-0.47-0.03-0.57-0.3C448.72,301.08,448.72,300.84,448.72,300.6z"/>
	<path style="fill-rule:evenodd;clip-rule:evenodd;fill:#349047;" d="M458.77,309.66l-0.05-0.05l0.05-0.05
		c0.42,0.02,0.69-0.08,0.28-0.5c-0.32-0.32-0.67-0.59-0.31-1.1c0.34-0.48,0.81-0.49,1.28-0.33c0.86,0.29,1.66,0.64,2.57,0.03
		c0.25-0.17,0.99-0.07,1.12,0.38c0.18,0.57-0.45,0.66-0.83,0.79c-0.91,0.3-1.9,0.29-2.7,1.02
		C459.92,310.1,459.19,310.13,458.77,309.66z"/>
	<path style="fill-rule:evenodd;clip-rule:evenodd;fill:#9DCBD2;" d="M448.72,301.32c2.52-0.01,2.52-0.01,3.36,2.65
		c0.28,0.88,0.85,1.44,1.78,1.14c1.01-0.32,1.78,0.02,2.55,0.58c-0.03,0.22-0.06,0.45-0.08,0.67c-0.94-0.69-1.93-0.87-3.09-0.52
		c-0.82,0.24-1.27-0.46-1.61-1.12c-0.09-0.17-0.07-0.39-0.12-0.58c-0.38-1.43-0.72-2.92-2.79-2.09
		C448.72,301.81,448.72,301.56,448.72,301.32z"/>
	<path style="fill-rule:evenodd;clip-rule:evenodd;fill:#FBFAFA;" d="M484.99,282.44c-0.9-0.12-1.79-0.24-2.69-0.37
		c0.31-0.86,1.14-1.29,1.62-2.01c0.54-0.82,0.96-0.62,1.35,0.09c0.19,0.35,0.33,0.73,0.51,1.07
		C486.28,282.14,486.21,282.65,484.99,282.44z"/>
	<path style="fill-rule:evenodd;clip-rule:evenodd;fill:#7D8390;" d="M487.27,295.27c0.15,0.01,0.43,0.01,0.7,0.05
		c0.33,0.05,0.66,0.23,0.67,0.57c0.01,0.31-0.35,0.4-0.63,0.45c-1.68,0.29-3.35,0.58-5.03,0.86c-0.12,0.02-0.42,0.06-0.33-0.15
		c0.19-0.5,0.36-1.21,0.97-1.21C484.84,295.84,485.95,295.33,487.27,295.27z"/>
	<path style="fill-rule:evenodd;clip-rule:evenodd;fill:#F9F8F8;" d="M469.07,288.74c0-0.01,0.05-0.14,0.09-0.27
		c0.15,0.11,0.36,0.19,0.45,0.33c0.41,0.68,0.6,1.63,1.8,0.9c0.31-0.19,0.38,0.36,0.26,0.67c-0.19,0.48-0.39,0.95-0.6,1.43
		c-0.34,0.77-0.41,1.66-0.98,2.33c-0.17-0.81-0.35-1.63-0.5-2.44C469.42,290.75,469.26,289.81,469.07,288.74z"/>
	<path style="fill-rule:evenodd;clip-rule:evenodd;fill:#D9DADD;" d="M474.58,305.87c-0.09,0-0.18,0-0.27,0.01
		c-1.1-2.3,0.12-4.81-0.61-7.14c-0.17-0.55,0.2-1.04,0.57-1.18c0.27-0.11,0.43,0.55,0.41,0.85
		C474.48,300.89,475.22,303.39,474.58,305.87z"/>
	<path style="fill-rule:evenodd;clip-rule:evenodd;fill:#F6F6F6;" d="M470.46,286.37c-0.08,0.55-0.22,1.33,0.76,1.66
		c0.14,0.05,0.32,0.15,0.11,0.32c-0.15,0.12-0.34,0.27-0.5,0.26c-0.72-0.04-2.35-2.98-2.05-3.62c0.34-0.7,0.9-0.23,1.35-0.27
		c0.63-0.06,0.41,0.41,0.4,0.73C470.53,285.69,470.5,285.92,470.46,286.37z"/>
	<path style="fill-rule:evenodd;clip-rule:evenodd;fill:#616671;" d="M466.42,287.37c0.7,0.32,1.5,0.55,1.46,1.57
		c-0.03,0.69-0.41,1.18-1.02,1.27c-0.92,0.13-1.06-0.73-1.34-1.35C465.67,288.28,466.01,287.81,466.42,287.37z"/>
	<path style="fill-rule:evenodd;clip-rule:evenodd;fill:#0D0C0B;" d="M466.2,295.79c1.86,1.47,3.29,3.26,4.11,5.51
		c-0.09,0.08-0.18,0.16-0.26,0.24c-1.28-1.69-2.32-3.55-3.83-5.06c-0.08-0.15-0.17-0.29-0.25-0.44
		C466.05,295.96,466.12,295.88,466.2,295.79z"/>
	<path style="fill-rule:evenodd;clip-rule:evenodd;fill:#5B5F6A;" d="M469.77,296.78c-0.48,0.25-0.97,0.4-1.34-0.16
		c-0.35-0.52-0.43-1.09-0.2-1.68c0.2-0.53,0.65-0.46,1.08-0.34C469.71,295.27,469.77,296.02,469.77,296.78z"/>
	<path style="fill-rule:evenodd;clip-rule:evenodd;fill:#D2D3D6;" d="M460.99,293.03c-0.66,0.96,0.04,2.05-0.38,3.02
		c-0.1,0.22,0.27,0.71-0.33,0.62c-0.44-0.06-0.69-0.35-0.6-0.84c0.11-0.61,0.96-1.27-0.17-1.81c-0.18-0.09,0.18-0.47,0.38-0.63
		c0.3-0.24,0.65-0.43,0.98-0.64C460.91,292.83,460.95,292.94,460.99,293.03z"/>
	<path style="fill-rule:evenodd;clip-rule:evenodd;fill:#9FCBD1;" d="M449.37,307.11c0.07-0.1,0.07-0.43,0.22-0.25
		c0.75,0.88,1.55,1.66,2.68,2.04c0.09,0.03,0.15,0.15,0.22,0.23c-0.1,0.03-0.19,0.09-0.29,0.1c-0.31,0.03-0.63,0.04-0.94,0.06
		C449.67,309.4,449.7,308.1,449.37,307.11z"/>
	<path style="fill-rule:evenodd;clip-rule:evenodd;fill:#1F1E1E;" d="M477.71,301.55c1.21-1.44,2.41-2.87,3.62-4.31
		c0.09,0.17,0.18,0.35,0.27,0.53c-1.09,1.45-2.21,2.87-3.6,4.05C477.9,301.73,477.8,301.64,477.71,301.55z"/>
	<path style="fill-rule:evenodd;clip-rule:evenodd;fill:#DBDAD9;" d="M460.89,302.87c0.21,1.06-0.28,2.19,0.3,3.23
		c0.09,0.16-0.05,0.45-0.09,0.67c-0.13-0.18-0.31-0.34-0.37-0.54c-0.34-1.11-0.62-2.24-0.41-3.41c0.07-0.38-0.1-1.13,0.37-1.08
		C461.22,301.79,460.85,302.47,460.89,302.87z"/>
	<path style="fill-rule:evenodd;clip-rule:evenodd;fill:#CFD0D3;" d="M459.9,292.24c-0.84-0.27-0.16-0.57,0.02-0.78
		c0.4-0.45,0.89-0.86-0.07-1.19c-0.23-0.08-0.36-0.22-0.19-0.42c0.18-0.2,0.41-0.39,0.66-0.48c0.42-0.15,0.17,0.3,0.26,0.36
		c1.22,0.87,0.05,1.65-0.08,2.46C460.32,292.35,460.11,292.33,459.9,292.24z"/>
	<path style="fill-rule:evenodd;clip-rule:evenodd;fill:#AE3B33;" d="M474.06,288.55c-0.24,0.56-0.67,0.91-1.25,0.96
		c-0.29,0.03-0.55-0.34-0.5-0.57c0.15-0.68,0.84-0.59,1.32-0.77C473.88,288.08,474.1,288.23,474.06,288.55z"/>
	<path style="fill-rule:evenodd;clip-rule:evenodd;fill:#988350;" d="M458.49,319.67c-2.31,0.16-4.61,0.31-6.91-0.08
		C453.88,319.62,456.18,319.64,458.49,319.67z"/>
	<path style="fill-rule:evenodd;clip-rule:evenodd;fill:#FEFEFE;" d="M446.1,309.68c-0.39-0.05-0.8-0.09-1.2-0.14
		c0.27-0.51,0.77-0.51,1.22-0.49c0.48,0.02,1.04-0.04,1.35,0.5C447.02,309.59,446.57,309.64,446.1,309.68z"/>
	<path style="fill-rule:evenodd;clip-rule:evenodd;fill:#D9D7D7;" d="M486.02,294.26c0.21,0.6-0.19,0.59-0.48,0.68
		c-0.36,0.11-0.42-0.08-0.37-0.36c0.12-0.61,0.26-1.22,0.39-1.82C486.25,293.13,485.72,293.88,486.02,294.26z"/>
	<path style="fill-rule:evenodd;clip-rule:evenodd;fill:#373029;" d="M489.99,319.34c-0.55,0.34-1.15,0.2-1.73,0.19
		c-0.35-0.35-0.83-0.07-1.22-0.23c0.88-0.3,1.79-0.23,2.7-0.18C489.82,319.19,489.91,319.27,489.99,319.34z"/>
	<path style="fill-rule:evenodd;clip-rule:evenodd;fill:#C4C2C1;" d="M460.89,300.1c-0.1,0.25,0,0.68-0.4,0.69
		c-0.12,0-0.31-0.42-0.36-0.66c-0.06-0.3,0.15-0.58,0.43-0.58C460.83,299.54,460.87,299.85,460.89,300.1z"/>
	<path style="fill-rule:evenodd;clip-rule:evenodd;fill:#D4D2D2;" d="M480.55,281.15c0.09-0.01,0.18-0.02,0.27-0.02
		c0.2,0.2,0.77-0.17,0.69,0.29c-0.05,0.31-0.64,0.82-0.76,0.76C480.36,282,480.56,281.52,480.55,281.15z"/>
	<path style="fill-rule:evenodd;clip-rule:evenodd;fill:#F4F3F4;" d="M487.86,293.6c-0.01,0.44,0.03,0.91-0.43,0.9
		c-0.28-0.01-0.19-0.45-0.17-0.7c0.04-0.33-0.07-0.89,0.28-0.92C488.01,292.85,487.69,293.43,487.86,293.6z"/>
	<path style="fill-rule:evenodd;clip-rule:evenodd;fill:#D2CFCF;" d="M460.48,298.7c-0.31-0.15-0.58-0.23-0.59-0.56
		c0-0.19,0.04-0.44,0.29-0.39c0.31,0.05,0.6,0.23,0.62,0.58C460.82,298.44,460.59,298.58,460.48,298.7z"/>
	<path style="fill-rule:evenodd;clip-rule:evenodd;fill:#A46251;" d="M475.54,295.74c0,0.9,0,1.81,0.01,2.71
		C475.18,297.55,475.19,296.65,475.54,295.74z"/>
	<path style="fill-rule:evenodd;clip-rule:evenodd;fill:#E6E5E5;" d="M477.77,288.51c-0.02,0.19-0.05,0.45-0.31,0.34
		c-0.23-0.1-0.52-0.32-0.55-0.52c-0.06-0.33,0.31-0.22,0.5-0.25C477.72,288.04,477.8,288.23,477.77,288.51z"/>
	<path style="fill-rule:evenodd;clip-rule:evenodd;fill:#C8C5C5;" d="M445.56,303.79c-0.07-0.03-0.15-0.04-0.22-0.08
		c-0.38-0.22-0.76-0.44-1.14-0.66c0.57-0.22,0.95,0.17,1.37,0.42C445.67,303.58,445.66,303.69,445.56,303.79z"/>
	<path style="fill-rule:evenodd;clip-rule:evenodd;fill:#B2624E;" d="M472.91,296.76c-0.42-0.47-0.16-1.03-0.21-1.55
		C473.09,295.68,472.87,296.24,472.91,296.76z"/>
	<path style="fill-rule:evenodd;clip-rule:evenodd;fill:#686C79;" d="M495.25,281.87c0,0.08,0,0.16-0.01,0.24
		c-0.06,0.07-0.13,0.07-0.2,0.01c0-0.4,0-0.8,0-1.21C495.33,281.19,495.23,281.54,495.25,281.87z"/>
	<path style="fill-rule:evenodd;clip-rule:evenodd;fill:#5F5958;" d="M437.66,309.01c-0.4,0.26-0.54,0.38-0.7,0.44
		c-0.09,0.04-0.21-0.02-0.32-0.04c0.11-0.11,0.21-0.25,0.34-0.33C437.08,309.03,437.23,309.05,437.66,309.01z"/>
	<path style="fill-rule:evenodd;clip-rule:evenodd;fill:#666A76;" d="M468.36,309.68c0.38-0.33,0.82-0.18,1.25-0.17
		C469.23,309.77,468.8,309.73,468.36,309.68z"/>
	<path style="fill-rule:evenodd;clip-rule:evenodd;fill:#7C7675;" d="M490.81,291.07c0.14,0.16,0.26,0.26,0.32,0.39
		c0.03,0.05-0.07,0.16-0.1,0.24c-0.11-0.1-0.24-0.19-0.31-0.3C490.69,291.34,490.77,291.22,490.81,291.07z"/>
	<path style="fill-rule:evenodd;clip-rule:evenodd;fill:#86817F;" d="M496.46,303.46c0.13-0.01,0.27-0.01,0.4-0.02
		c0.04,0.19,0.04,0.4-0.2,0.41C496.41,303.87,496.44,303.64,496.46,303.46z"/>
	<path style="fill-rule:evenodd;clip-rule:evenodd;fill:#FBFBFB;" d="M447.99,304.7c0.06-0.02,0.13-0.02,0.2-0.01
		c-0.05,0.3,0.29,0.79-0.15,0.85C447.82,305.57,447.97,305,447.99,304.7z"/>
	<path style="fill-rule:evenodd;clip-rule:evenodd;fill:#1F1E1E;" d="M478.02,302.05c-0.1,0.15-0.21,0.29-0.31,0.44
		c-0.06,0.09-0.14,0.1-0.22,0.04c-0.01-0.36,0.14-0.61,0.5-0.71C478,301.9,478,301.97,478.02,302.05z"/>
	<path style="fill-rule:evenodd;clip-rule:evenodd;fill:#C6C3C2;" d="M461.09,288.34c0.1,0.22,0.19,0.31,0.18,0.4
		c-0.01,0.09-0.12,0.18-0.18,0.27c-0.06-0.06-0.17-0.12-0.18-0.19C460.9,288.73,460.97,288.63,461.09,288.34z"/>
	<path style="fill-rule:evenodd;clip-rule:evenodd;fill:#9C9999;" d="M459.9,292.24c0.2-0.02,0.4-0.03,0.6-0.05
		c0.01,0.08,0.01,0.16,0.02,0.24C460.32,292.37,460.11,292.31,459.9,292.24z"/>
	<path style="fill-rule:evenodd;clip-rule:evenodd;fill:#7D7776;" d="M445.56,303.79c0-0.11,0.01-0.22,0.01-0.33
		c0.22,0.03,0.36,0.2,0.29,0.37C445.8,304.01,445.64,303.98,445.56,303.79z"/>
	<path style="fill-rule:evenodd;clip-rule:evenodd;fill:#9DCBD2;" d="M456.41,305.68c0.05-0.17,0.1-0.34,0.15-0.52
		C456.51,305.34,456.46,305.51,456.41,305.68z"/>
	<path style="fill-rule:evenodd;clip-rule:evenodd;fill:#686C79;" d="M494.04,283.81c-0.01,0.19-0.03,0.37-0.04,0.56
		C493.81,284.17,493.71,283.97,494.04,283.81z"/>
	<path style="fill-rule:evenodd;clip-rule:evenodd;fill:#616671;" d="M465.46,289.04c-0.06,0.1-0.12,0.19-0.18,0.29
		C465.33,289.23,465.39,289.13,465.46,289.04z"/>
	<path style="fill-rule:evenodd;clip-rule:evenodd;fill:#EBC4A3;" d="M466.23,278.04c0.07,0.09,0.13,0.18,0.2,0.27
		C466.36,278.22,466.29,278.13,466.23,278.04z"/>
	<path style="fill-rule:evenodd;clip-rule:evenodd;fill:#686C79;" d="M493.83,285.24c0.07,0.08,0.14,0.16,0.21,0.24
		C493.97,285.4,493.9,285.32,493.83,285.24z"/>
	<path style="fill-rule:evenodd;clip-rule:evenodd;fill:#7C8391;" d="M495.04,282.13c0.07,0,0.13-0.01,0.2-0.01
		c-0.07,0.08-0.14,0.16-0.21,0.24C495.01,282.28,495.01,282.2,495.04,282.13z"/>
	<path style="fill-rule:evenodd;clip-rule:evenodd;fill:#E5B190;" d="M459.24,276.6c0.08,0.06,0.15,0.11,0.23,0.17
		C459.4,276.71,459.32,276.66,459.24,276.6z"/>
	<path style="fill-rule:evenodd;clip-rule:evenodd;fill:#595D67;" d="M477.49,302.53c0.07-0.01,0.15-0.02,0.22-0.04
		c-0.08,0.09-0.16,0.18-0.23,0.27C477.46,302.68,477.47,302.61,477.49,302.53z"/>
	<path style="fill-rule:evenodd;clip-rule:evenodd;fill:#595D67;" d="M477.48,302.76c-0.06,0.08-0.13,0.16-0.19,0.24
		C477.35,302.91,477.41,302.83,477.48,302.76z"/>
	<path style="fill-rule:evenodd;clip-rule:evenodd;fill:#686C79;" d="M494.98,282.53c-0.06,0.1-0.11,0.2-0.17,0.3
		C494.86,282.73,494.92,282.63,494.98,282.53z"/>
	<path style="fill-rule:evenodd;clip-rule:evenodd;fill:#636873;" d="M476.97,303.88c-0.05,0.1-0.11,0.21-0.16,0.31
		C476.86,304.09,476.92,303.99,476.97,303.88z"/>
	<path style="fill-rule:evenodd;clip-rule:evenodd;fill:#747A87;" d="M476.78,304.45c0.01,0.06,0.03,0.12,0.04,0.18
		c0,0.01-0.07,0.03-0.1,0.04C476.72,304.58,476.74,304.51,476.78,304.45z"/>
	<path style="fill-rule:evenodd;clip-rule:evenodd;fill:#686C79;" d="M494.52,283.33c-0.06,0.08-0.13,0.16-0.19,0.24
		C494.4,283.49,494.46,283.41,494.52,283.33z"/>
	<path style="fill-rule:evenodd;clip-rule:evenodd;fill:#686C79;" d="M494.29,283.61c-0.08,0.06-0.16,0.13-0.24,0.19
		C494.13,283.74,494.21,283.68,494.29,283.61z"/>
	<path style="fill-rule:evenodd;clip-rule:evenodd;fill:#686C79;" d="M494.01,284.67c-0.05,0.11-0.11,0.21-0.16,0.32
		C493.9,284.88,493.96,284.78,494.01,284.67z"/>
	<path style="fill-rule:evenodd;clip-rule:evenodd;fill:#686C79;" d="M494.74,283.03c-0.07,0.1-0.14,0.2-0.21,0.3
		C494.6,283.22,494.67,283.12,494.74,283.03z"/>
	<path style="fill-rule:evenodd;clip-rule:evenodd;fill:#F0D1B1;" d="M488.52,242.3c-0.12,3,1.34,5.67,1.79,8.55
		c0.08,0.51,0.32,1.06-0.05,1.48c-0.48,0.55-0.94-0.09-1.38-0.23c-0.71-0.23-1.37-0.61-2.05-0.94c-0.34-0.49-0.07-1.01-0.02-1.5
		c0.14-1.52-0.16-2.85-1.38-3.89c-0.29-0.25-0.72-0.5-0.58-0.97c0.43-1.46-0.45-0.14-0.62-0.3c-0.19,0.03-0.32-0.06-0.44-0.19
		c-0.73-0.83-0.87-0.83-1.47,0.05c-0.42,0.61-0.82,1.22-1.71,0.91c-0.09-0.07-0.17-0.15-0.24-0.23c-0.19-0.25-0.37-0.59-0.74-0.47
		c-0.34,0.1-0.25,0.46-0.24,0.72c0.02,0.52-0.26,0.89-0.55,1.28c-1.35,1.82-1.46,4.48-0.13,6.34c0.6,0.84,0.59,1.4-0.26,1.93
		c0.03,0.07,0.09,0.11,0.18,0.09c0.05-0.01,0.09-0.01,0.14-0.01c0.11,0.01,0.19,0.05,0.27,0.12c0.06,0.1,0.1,0.2,0.13,0.32
		c-0.02,1.11-0.21,2.21-0.02,3.31c0.07,0.41-0.06,0.78-0.43,1.04c-0.45,0.22-0.96,0.22-1.42,0.4c-3.46,0.33-6.92,0.63-10.4,0.53
		c-0.39-0.01-0.79,0.04-1.17-0.11c-0.38-0.16-0.56-0.5-0.47-0.86c0.53-2.31-0.09-4.38-1.18-6.38c0.2-1.2,0.99-2.22,0.89-3.55
		c-0.1-1.46-0.58-2.62-1.73-3.52c-0.3-0.24-0.73-0.38-0.64-0.91c0.04-0.25,0.25-0.59-0.16-0.7c-0.31-0.09-0.48,0.23-0.69,0.39
		c-1.09,0.82-2,0.63-2.68-0.55c-0.08-0.14-0.14-0.3-0.33-0.28c-0.24,0.02-0.29,0.2-0.36,0.4c-0.39,1.09-0.83,1.33-1.81,0.81
		c-0.58-0.3-0.53-0.09-0.42,0.31c0.13,0.47-0.04,0.86-0.28,1.24c-0.61,1.02-0.93,2.1-0.7,3.31c0.06,0.32,0.04,0.64-0.23,0.89
		c-0.2,0.69-0.78,0.96-1.35,0.84c-0.58-0.12-0.59-0.75-0.58-1.28c0.01-1.64,0-3.29,0-4.93c0-0.53-0.06-1.03-0.56-1.35
		c1.78-2.7,4.13-4.33,7.51-4.31c2.13,0.02,4.39-0.54,6.35-0.43c2.56,0.15,5.16-0.5,7.71,0.2c3.01,0.82,6.19,0.45,9.24,1.14
		c0.47,0.11,1.09,0.39,1.04,0.6c-0.11,0.44-0.69,0.28-1.1,0.29c-1.31,0.02-2.62,0.03-3.93,0.05c-0.23,0-0.62-0.25-0.62,0.25
		c0,0.32,0.33,0.32,0.55,0.33c2.11,0.07,4.24,0.09,6.31-0.3C486.56,242.04,487.52,242.01,488.52,242.3z"/>
	<path style="fill-rule:evenodd;clip-rule:evenodd;fill:#565352;" d="M471.35,238.94c-1.02,0.08-2.06-0.2-3.09,0.16
		c-0.52,0.18-0.93-0.11-1.2-0.57c-0.29-0.48-0.01-0.8,0.29-1.16c2.34-2.88,5.52-3.36,8.9-2.94c4.05,0.51,7.84,1.75,11.04,4.47
		c0.67,0.57,1.64,0.8,2.46,1.19c0.39,0.19,0.83,0.34,1.15,0.62c0.37,0.32,1.1,0.65,0.85,1.15c-0.23,0.46-0.93,0.15-1.42,0.03
		c-1.43-0.36-2.86-0.71-4.36-0.61c-0.42,0.03-0.92-0.07-1.27-0.28c-2.54-1.55-5.45-1.39-8.22-1.75
		C474.8,239.02,473.08,238.73,471.35,238.94z"/>
	<path style="fill-rule:evenodd;clip-rule:evenodd;fill:#565352;" d="M450.36,245.16c0.15-2.28,0.88-4.26,2.78-5.72
		c1.07-0.82,2.04-1.76,2.88-2.85c0.87-1.14,2.28-1.48,3.61-1.65c2.42-0.31,4.8-0.29,6.59,1.82c0.62,0.73,0.47,1.25-0.2,1.8
		c-1.06,0.87-2.34,0.96-3.61,1.04c-1,0.06-2,0.07-3,0c-3.1-0.19-5.35,1.25-7.13,3.63c-0.55,0.73-1.13,1.44-1.7,2.15
		C450.51,245.31,450.44,245.23,450.36,245.16z"/>
	<path style="fill-rule:evenodd;clip-rule:evenodd;fill:#EDC8A8;" d="M493.11,247.65c-0.16-0.11-0.32-0.22-0.47-0.33
		c-0.24-0.78,0.01-1.27,0.86-1.28c0.61-0.01,1.13,0.22,1.07,0.96C494.48,248.07,493.67,247.59,493.11,247.65z"/>
	<path style="fill-rule:evenodd;clip-rule:evenodd;fill:#E2C5A9;" d="M449.46,248.97c-0.35,0.28-0.56,0.89-1.19,0.71
		c-0.24-0.07-0.78-0.04-0.65-0.45c0.17-0.55,0.62-0.91,1.29-0.76C449.18,248.53,449.49,248.51,449.46,248.97z"/>
	<path style="fill-rule:evenodd;clip-rule:evenodd;fill:#FAF9F9;" d="M450.36,245.16c0.07,0.08,0.15,0.15,0.22,0.23
		C450.35,245.46,450.31,245.36,450.36,245.16z"/>
	<path style="fill-rule:evenodd;clip-rule:evenodd;fill:#F0D1B1;" d="M518.47,267.06c-0.05-1.5,0.59-2.87,0.37-3.87
		c-0.4-1.78,0.18-3.28,0.52-4.83c0.51-2.36,1.74-3.37,3.57-3.39c1.28-0.02,3.07,1.38,3.33,2.64c0.25,1.27-0.83,0.94-1.46,1.16
		c-0.67,0.24-1.46-0.81-2,0.07c-0.39,0.63,0.02,1.41,0.06,2.12c0.08,1.25-0.03,2.39-1.27,3.12c-0.26,0.15-0.54,0.51-0.29,0.8
		c0.27,0.31,0.58-0.03,0.81-0.19c1.26-0.9,1.66-2.28,1.64-3.68c-0.02-1.08,0.43-1.36,1.33-1.46c0.43-0.04,0.85-0.19,1.28-0.3
		c0.65-0.16,1.36-0.37,0.67,0.73c-0.09,0.15-0.15,0.46-0.06,0.57c0.91,1.13,0.11,2.07-0.35,3.02c-0.69,1.42-1.63,2.65-3.04,3.46
		c-0.24,0.13-0.51,0.34-0.76,0.06c-1.05-1.16-1.74-0.24-2.48,0.41c-0.03,0.03-0.05,0.06-0.08,0.09c-0.56,0.48-0.94,1.69-1.55,1.43
		C518.1,268.75,518.57,267.56,518.47,267.06z"/>
	<path style="fill-rule:evenodd;clip-rule:evenodd;fill:#EFD1B1;" d="M527.64,251.88c1.2-1.2,2.39-2.4,3.59-3.61
		c0.6-0.37,1.2-0.75,1.8-1.12c0.07,0.83-0.33,1.53-0.65,2.23c-1.19,2.59-3.29,4.47-5.16,6.53c-0.31,0.34-0.55,0.28-0.75-0.04
		c-0.31-0.49-1.12-0.84-0.59-1.6C526.43,253.46,527.05,252.68,527.64,251.88z"/>
	<path style="fill-rule:evenodd;clip-rule:evenodd;fill:#FDFDFD;" d="M517.57,267.83c0,1.04-0.01,2.07,0,3.1
		c0.01,0.41-0.21,0.81-0.51,0.87c-0.56,0.11-0.13-0.42-0.27-0.63c-0.52-0.78-0.94-0.18-1.37,0.09c-0.18,0.11-0.34,0.27-0.51,0.4
		c-0.03-0.23-0.08-0.46-0.08-0.69c0.01-1.19,0.1-2.39,0.06-3.58c-0.06-1.7,1.49-2.1,2.39-2.99c0.36-0.35,0.34,0.19,0.34,0.43
		c0,1,0,1.99,0,2.98C517.61,267.83,517.59,267.83,517.57,267.83z"/>
	<path style="fill-rule:evenodd;clip-rule:evenodd;fill:#EACDAF;" d="M528.01,257.89c-0.52-0.03-0.19-0.44-0.1-0.57
		c0.71-1.05,1.94-1.62,2.59-2.75c0.06-0.1,0.45-0.04,0.67,0c0.06,0.01,0.1,0.27,0.08,0.4C531.15,255.77,528.85,257.87,528.01,257.89
		z"/>
	<path style="fill-rule:evenodd;clip-rule:evenodd;fill:#EACDAF;" d="M528.34,260.31c-0.49,0.02-0.4-0.29-0.27-0.54
		c0.65-1.24,2.17-1.39,3.05-2.37c0.14-0.16,0.14,0.34,0.11,0.5C531.07,258.8,529.23,260.31,528.34,260.31z"/>
	<path style="fill-rule:evenodd;clip-rule:evenodd;fill:#E9CCAF;" d="M531.01,260.54c-0.34,1.07-1.25,1.59-2.12,2.14
		c-0.14,0.09-0.34,0.07-0.52,0.1c-0.01-0.19-0.07-0.4-0.02-0.57c0.25-0.8,0.64-1.49,1.63-1.43c0.38,0.02,0.69-0.06,0.98-0.28
		L531.01,260.54z"/>
	<path style="fill-rule:evenodd;clip-rule:evenodd;fill:#D7D5D5;" d="M515.12,272.92c0.2,0.08,0.41,0.15,0.61,0.23
		c-0.24,0.2-0.45,0.45-0.71,0.59s-0.33-0.08-0.31-0.3C514.75,273.2,514.61,272.82,515.12,272.92z"/>
	<path style="fill-rule:evenodd;clip-rule:evenodd;fill:#6F7481;" d="M513.96,276.77c0.03-0.08,0.08-0.13,0.16-0.17
		C514.07,276.66,514.02,276.71,513.96,276.77z"/>
	<path style="fill-rule:evenodd;clip-rule:evenodd;fill:#CCC9C9;" d="M530.96,260.5c0.05-0.07,0.11-0.14,0.16-0.21
		c0.02,0.03,0.05,0.05,0.07,0.08c-0.06,0.06-0.13,0.12-0.19,0.18L530.96,260.5z"/>
	<path style="fill-rule:evenodd;clip-rule:evenodd;fill:#5B5F69;" d="M510.36,279.43c0.1-0.05,0.2-0.11,0.3-0.16
		c-0.02,0.07-0.05,0.13-0.08,0.19C510.51,279.46,510.44,279.45,510.36,279.43z"/>
	<path style="fill-rule:evenodd;clip-rule:evenodd;fill:#010101;" d="M530.76,248.28c-0.02,0.03-0.04,0.07-0.06,0.1
		C530.72,248.35,530.74,248.31,530.76,248.28L530.76,248.28z"/>
	<path style="fill-rule:evenodd;clip-rule:evenodd;fill:#020201;" d="M465.48,260.25c4,0.23,7.97-0.19,11.95-0.48
		c0.24-0.11,0.46-0.12,0.6,0.16c0.03,0.2-0.06,0.38-0.08,0.58c-0.06,0.65-0.55,1.46,0.46,1.8c0.88,0.29,2.16-0.39,2.46-1.22
		c0.11-0.31,0.11-0.62,0-0.92c-0.13-0.41-0.85-0.29-0.8-0.87c0.2-0.23,0.48-0.33,0.76-0.42c0.24-0.07,0.48-0.1,0.72-0.11
		c0.18-0.01,0.37,0,0.55,0.02c0.31,0.05,0.61,0.11,0.72,0.46c0,0.28-0.15,0.53-0.17,0.8c-0.07,0.83,0.29,1.2,1.13,1.04
		c1.16-0.21,2.29-0.61,1.98-2.08c0.03-0.33-0.31-0.61-0.14-0.96c0.37-0.42,0.92-0.44,1.39-0.64c0.66-0.19,1.26-0.61,1.99-0.46
		c0.08-0.02,0.16-0.04,0.24-0.06c0.1-0.08,0.2-0.16,0.33-0.17c0.58-0.23,1.17-0.47,1.75-0.7c0.35-0.14,0.69-0.45,1.06,0
		c0.3,0.37,0.23,0.73,0.04,1.1c-0.25,0.49-0.49,0.99-0.74,1.48c-0.02,0.08-0.04,0.15-0.06,0.23c-0.07,0.06-0.12,0.15-0.14,0.24
		c-0.04,0.14-0.08,0.27-0.12,0.41c-0.04,0.13-0.13,0.2-0.26,0.19c-0.19-0.05-0.31-0.18-0.38-0.35c-0.15-0.43,0.2-0.77,0.19-1.17
		c-0.01-0.07,0.02-0.14-0.01-0.21c0,0.15,0,0.31-0.03,0.47c-0.21,0.81-0.75,1.31-1.51,1.57c-1.14,0.39-2.23,0.87-3.16,1.66
		c-0.27,0.23-0.62,0.41-0.97,0.45c-2.15,0.26-4.1,1.21-6.17,1.74c-1.69,0.44-3.34,1.04-5.13,0.99c-0.55-0.02-1.11,0.07-1.66-0.06
		c-0.71-0.16-1.41-0.11-2.13,0.03c-1.55,0.31-3.09,0.27-4.55-0.47c-1.4-0.71-2.98-0.46-4.45-0.57c-1.41-0.11-2.75-0.28-4.08-0.72
		c-0.51-0.17-1.02-0.5-1.6-0.2c-0.16,0.11-0.33,0.18-0.53,0.11c-1.19-1.21-1.94-2.71-2.74-4.17c-0.13-0.24-0.54-0.52-0.25-0.8
		c0.24-0.23,0.59,0.06,0.88,0.18c0.22,0.09,0.44,0.18,0.66,0.27c0.08,0.07,0.12,0.16,0.13,0.26c-0.03,0.24-0.13,0.48,0.01,0.72
		c0.08,0.14,0.16,0.29,0.27,0.4c0.34,0.36,0.62,1.02,1.17,0.86c0.57-0.17,0.09-0.86,0.27-1.28c0.07-0.11,0.16-0.19,0.27-0.24
		c0.89-0.19,1.71,0.18,2.56,0.31c0.97,0.15,1.95,0.26,2.93,0.31c0.13,0.01,0.25,0.04,0.37,0.07c0.48,0.18,0.98,0.14,1.48,0.12
		c0.26,0,0.52,0.01,0.78-0.02C464.32,259.93,464.95,259.82,465.48,260.25z"/>
	<path style="fill-rule:evenodd;clip-rule:evenodd;fill:#070606;" d="M477,269.14c-3.94,1.16-7.86,1.01-11.75-0.24
		c-0.04-0.26,0.14-0.36,0.33-0.45c1.3-0.12,2.52,0.32,3.76,0.58c0.92,0.23,1.88,0.02,2.81,0.23c0.11,0.03,0.24-0.03,0.32,0.1
		c-0.05-0.27-0.24-0.07-0.36-0.1c-0.88-0.23-1.8,0-2.69-0.24c-0.86-0.5-0.9-0.73-0.16-1.15c1.69-0.95,3.51-0.86,5.34-0.68
		c0.43,0.04,0.72,0.34,0.88,0.72c0.19,0.46,0.56,0.64,1.02,0.69C476.75,268.72,477.03,268.78,477,269.14z"/>
	<path style="fill-rule:evenodd;clip-rule:evenodd;fill:#161310;" d="M477,269.14c-0.17-0.08-0.33-0.16-0.5-0.23
		c0.06-0.61,0.6-0.56,0.98-0.67c3.88-1.16,7.35-3.07,10.48-5.62c0.84-0.69,1.53-1.51,2.07-2.46c0.2-0.36,0.3-0.86,0.88-0.85
		c0.08,0.09,0.17,0.18,0.26,0.26c0.05,0.04,0.08,0.09,0.07,0.15c-0.01,0.06-0.02,0.08-0.03,0.08c-1.42,3.06-4.14,4.75-6.88,6.37
		C482.04,267.51,479.64,268.63,477,269.14z"/>
	<path style="fill-rule:evenodd;clip-rule:evenodd;fill:#171411;" d="M465.54,268.65c-0.1,0.09-0.2,0.17-0.29,0.26
		c-2.77-0.62-5.23-1.96-7.67-3.35c-0.08-0.07-0.16-0.13-0.25-0.19c-0.15-0.1-0.29-0.2-0.44-0.31c-0.12-0.05-0.21-0.13-0.28-0.24
		l0.01,0.01c-0.1-0.06-0.17-0.15-0.26-0.22l-0.01,0c-0.07-0.08-0.15-0.15-0.24-0.22l-0.02-0.02c-0.39-0.48-0.78-0.96-1.18-1.44
		c0.09-0.09,0.17-0.18,0.26-0.27c0.47-0.11,0.73,0.23,1.02,0.49c2.47,2.22,5.31,3.78,8.43,4.86
		C464.98,268.13,465.45,268.13,465.54,268.65z"/>
	<path style="fill-rule:evenodd;clip-rule:evenodd;fill:#EDC8A8;" d="M491.21,259.79c-0.02-0.08-0.04-0.15-0.04-0.23
		c0.06-0.04,0.13-0.07,0.2-0.08C491.31,259.58,491.26,259.69,491.21,259.79z"/>
	<path style="fill-rule:evenodd;clip-rule:evenodd;fill:#EDC8A8;" d="M491.49,259.07c0.05-0.08,0.1-0.16,0.14-0.24
		C491.59,258.91,491.54,258.99,491.49,259.07z"/>
	<path style="fill-rule:evenodd;clip-rule:evenodd;fill:#EBC4A4;" d="M457.33,265.37c0.08,0.06,0.17,0.12,0.25,0.19
		C457.49,265.49,457.41,265.43,457.33,265.37z"/>
	<path style="fill-rule:evenodd;clip-rule:evenodd;fill:#EBC4A4;" d="M456.61,264.82c0.09,0.08,0.18,0.16,0.28,0.24
		C456.8,264.98,456.7,264.9,456.61,264.82z"/>
	<path style="fill-rule:evenodd;clip-rule:evenodd;fill:#EBC4A4;" d="M456.36,264.6c0.09,0.07,0.17,0.15,0.26,0.22
		C456.53,264.75,456.45,264.68,456.36,264.6z"/>
	<path style="fill-rule:evenodd;clip-rule:evenodd;fill:#EBC4A4;" d="M456.11,264.38c0.08,0.07,0.16,0.14,0.24,0.22
		C456.27,264.53,456.19,264.46,456.11,264.38z"/>
	<path style="fill-rule:evenodd;clip-rule:evenodd;fill:#040303;" d="M454.93,251.13c-0.27-1.7-0.26-3.34,0.93-4.77
		c0.28-0.33,0.04-0.6-0.18-0.83c-0.4-0.41-0.3-0.67,0.21-0.87c0.41-0.15,0.73-0.33,0.7,0.39c-0.02,0.6,0.47,0.46,0.77,0.3
		c0.29-0.16,1.04-0.02,0.67-0.77c-0.16-0.32-0.25-0.64,0.16-0.78c0.41-0.14,0.88-0.31,1.28-0.06c0.47,0.3-0.02,0.51-0.15,0.74
		c-0.21,0.38,0.06,0.59,0.33,0.59c0.66-0.01,1.55,0.74,1.92-0.41c0.18-0.56,0.62-0.63,1.01-0.6c0.23,0.01,0.65,0.56,0.61,0.62
		c-0.97,1.51,0.82,1.51,1.25,2.19c1.13,1.77,1.17,3.97-0.18,6.19c-0.47,0.76-0.93,1.52-1.31,2.32c-0.59,0.11-1.07-0.2-1.58-0.38
		c-1.33-0.29-2.68-0.01-4-0.15c-0.12-0.01-0.24-0.03-0.36-0.06c-0.43-0.13-0.86-0.28-1.31-0.03c-0.41,0.1-0.75,0.6-1.23,0.2
		l0.01,0.01c-0.14-0.06-0.23-0.17-0.24-0.33l0-0.02c0-0.16,0.1-0.26,0.24-0.33c1.86-0.19,2.23-0.93,0.88-2.34
		C455.15,251.74,455.07,251.41,454.93,251.13z"/>
	<path style="fill-rule:evenodd;clip-rule:evenodd;fill:#E3AD9A;" d="M454.47,254.97c0.38-0.16,0.75-0.31,1.13-0.47
		c0.43-0.16,0.87-0.14,1.3-0.01c0.07-0.02,0.13,0,0.17,0.05c0.13,0.36-0.1,0.62-0.29,0.86c-0.69,0.84-1.08,1.75-0.92,2.87
		c0.06,0.4,0.04,0.82-0.49,0.95c-0.77,0.2-1.39-0.01-1.87-0.65c-0.03-0.05-0.05-0.11-0.04-0.17
		C453.85,257.27,453.71,255.99,454.47,254.97z"/>
	<path style="fill-rule:evenodd;clip-rule:evenodd;fill:#E3AD9A;" d="M454.24,254.65c0.08,0.11,0.16,0.22,0.24,0.33
		C454.4,254.87,454.32,254.76,454.24,254.65z"/>
	<path style="fill-rule:evenodd;clip-rule:evenodd;fill:#E3AD9A;" d="M454.48,254.3c-0.08,0.11-0.16,0.22-0.24,0.33
		C454.32,254.52,454.4,254.41,454.48,254.3z"/>
	<path style="fill-rule:evenodd;clip-rule:evenodd;fill:#030202;" d="M478.23,255.49c-0.49-0.56-0.5-0.73,0.35-1.17
		c0.66-0.33,0.54-0.48,0.12-0.94c-1.74-1.93-1.68-5.38,0.1-7.2c0.27-0.28,0.49-0.48,0.28-0.91c-0.21-0.44-0.4-1.05,0.23-1.2
		c0.54-0.13,1.2,0.01,1.28,0.83c-0.06,0.11-0.15,0.22,0.02,0.31c0.71-0.11,1.31-0.3,1.49-1.16c0.11-0.52,0.58-0.83,1.16-0.8
		c0.58,0.02,0.63,0.47,0.7,0.9c-0.11,0.24-0.14,0.41,0.22,0.28c0.03-0.67,0.54-0.71,1.01-0.74c0.2-0.02,0.51,0.06,0.61,0.2
		c0.15,0.22-0.05,0.47-0.26,0.58c-0.87,0.44-0.4,0.67,0.08,1.07c1.86,1.54,1.8,3.54,1.21,5.63c-0.08,0.15-0.17,0.29-0.25,0.44
		c-0.05,0.1-0.12,0.19-0.19,0.28c-0.26,0.3-0.52,0.6-0.78,0.9c-0.29,0.46,0.2,0.62,0.36,0.9c0.14,0.25,0.3,0.49,0.06,0.76
		c-0.18,0.2-0.42,0.29-0.65,0.17c-1.74-0.9-3.44-0.05-5.15,0.13c-0.43,0.14-0.85,0.37-1.33,0.22c-0.08,0.04-0.16,0.08-0.23,0.12
		c-0.09,0.02-0.16,0.08-0.2,0.17l-0.03,0.02C478.36,255.33,478.28,255.4,478.23,255.49z"/>
	<path style="fill-rule:evenodd;clip-rule:evenodd;fill:#E5B49F;" d="M480.07,254.5c1.81-0.16,3.59-1.42,5.43-0.11
		c0.19,0.13,0.41,0.13,0.46-0.13c0.07-0.31-0.11-0.55-0.39-0.65c-0.95-0.33-0.59-0.58,0.03-0.83c1.66,0.96,3.11,2.09,3.4,4.17
		c-0.59,0.38-1.24,0.59-1.93,0.69c-0.37-0.3-0.37-0.78-0.56-1.17c-0.54-1.11-1.37-1.55-2.4-1.28c-1.07,0.29-1.74,1.19-1.68,2.32
		c0.02,0.39,0.17,0.79,0.03,1.19c-0.05,0.1-0.13,0.18-0.24,0.24c-0.22,0.05-0.46-0.02-0.66,0.12c-0.24,0.02-0.47,0.04-0.71,0.07
		c-0.95-0.96-0.66-2.11-0.4-3.19C480.61,255.3,480.55,254.88,480.07,254.5z"/>
	<path style="fill-rule:evenodd;clip-rule:evenodd;fill:#E5B49F;" d="M489.58,256.72c-0.11,0.06-0.22,0.11-0.33,0.17
		C489.35,256.83,489.46,256.78,489.58,256.72z"/>
	<path style="fill-rule:evenodd;clip-rule:evenodd;fill:#E5B49F;" d="M486.39,251.88c0.06-0.09,0.13-0.19,0.19-0.28
		C486.52,251.69,486.45,251.78,486.39,251.88z"/>
	<path style="fill-rule:evenodd;clip-rule:evenodd;fill:#191513;" d="M475.12,276.59c-1.42,0.56-2.86,1.01-4.36,0.29
		c-0.04-0.14-0.08-0.29-0.12-0.43C472.12,276.85,473.65,275.89,475.12,276.59z"/>
	<path style="fill-rule:evenodd;clip-rule:evenodd;fill:#FAFBFC;" d="M476.28,280.2c0.6,0.38,1.07,0.78,0.23,1.4
		c0.02,0.17,0.04,0.35,0,0.53c0.43,0.88-0.21,1.35-0.73,1.87c-0.02,0.25,0.04,0.51,0.01,0.76c-0.27,0.93-0.96,1.12-1.79,0.93
		c-0.78-0.18-1.05-0.82-1.08-1.54c-0.05-1.27-0.08-2.55,0.26-3.8c0.08-0.04,0.16-0.05,0.24-0.05c0.13,0,0.25-0.03,0.35-0.11
		c0.13-0.15,0.23-0.32,0.33-0.48c0.36-0.37,0.7-0.31,1.01,0.06C475.57,279.78,475.98,279.83,476.28,280.2z"/>
	<path style="fill-rule:evenodd;clip-rule:evenodd;fill:#1F1D1C;" d="M478.65,279.8c-0.08,0.36-0.34,0.45-0.62,0.31
		c-0.28-0.14-0.79,0.01-0.79-0.53c0-0.5,0.38-0.4,0.68-0.39C478.31,279.21,478.58,279.4,478.65,279.8z"/>
	<path style="fill-rule:evenodd;clip-rule:evenodd;fill:#23201F;" d="M475.8,284.76c-0.15-0.25-0.95-0.5-0.01-0.76
		c0.39,0.15,1.13-0.26,1.16,0.32C476.97,284.89,476.23,284.68,475.8,284.76z"/>
	<path style="fill-rule:evenodd;clip-rule:evenodd;fill:#292625;" d="M476.28,280.2c-0.46,0.06-0.83-0.11-1.15-0.41
		c0.35-0.87,1-0.46,1.42-0.21C477.05,279.89,476.37,279.98,476.28,280.2z"/>
	<path style="fill-rule:evenodd;clip-rule:evenodd;fill:#1D1A1A;" d="M476.52,282.13c-0.2-0.17-0.33-0.35,0-0.53
		c0.04,0,0.08,0,0.12,0.01c0.44,0.17,0.86-0.55,1.28-0.03c0.07,0.08,0.05,0.36-0.03,0.43C477.47,282.4,476.97,282.07,476.52,282.13z
		"/>
	<path style="fill-rule:evenodd;clip-rule:evenodd;fill:#201D1D;" d="M474.12,279.72c0.54,0.62-0.03,0.73-0.42,0.93
		c-0.12-0.03-0.2-0.11-0.3-0.18c-0.07-0.04-0.14-0.08-0.21-0.12C472.97,279.37,473.62,279.65,474.12,279.72z"/>
	<path style="fill-rule:evenodd;clip-rule:evenodd;fill:#110F0E;" d="M478.36,283.52c0.34,0.01,0.68,0.1,0.76,0.44
		c0.06,0.29-0.26,0.35-0.49,0.38c-0.35,0.05-0.64-0.06-0.71-0.45C477.87,283.56,478.1,283.52,478.36,283.52z"/>
	<path style="fill-rule:evenodd;clip-rule:evenodd;fill:#1F1D1D;" d="M460.2,285.19c0.08,0.02,0.15,0.04,0.23,0.06
		c0.2,0.25,0.49,0.22,0.76,0.2c0.3-0.03,0.76-0.46,0.82,0.14c0.03,0.29-0.53,0.34-0.88,0.37c-0.95,0.07-1.76-0.35-2.56-0.78
		c0.41-0.38,0.89-0.19,1.35-0.15C460.01,285.08,460.1,285.13,460.2,285.19z"/>
	<path style="fill-rule:evenodd;clip-rule:evenodd;fill:#1D1B1B;" d="M462.45,280c0.05,0.05,0.11,0.05,0.16-0.01
		c0.15,0.05,0.29,0.11,0.44,0.14c0.48,0.09,0.93,0.22,1.08,0.75c0.03,0.11-0.04,0.34-0.12,0.38c-0.47,0.22-0.76-0.27-1.17-0.34h0
		c-0.07-0.08-0.15-0.13-0.24-0.16c-0.23-0.11-0.53-0.16-0.47-0.53C462.21,280.11,462.3,280.02,462.45,280z"/>
	<path style="fill-rule:evenodd;clip-rule:evenodd;fill:#312F30;" d="M461.87,283.37c-0.59-0.27-1.34-0.29-1.62-1.04
		c0.67,0,1.26,0.29,1.86,0.55C462.31,283.18,462.31,283.38,461.87,283.37z"/>
	<path style="fill-rule:evenodd;clip-rule:evenodd;fill:#262323;" d="M462.68,283.76c0.25,0.07,0.61-0.05,0.62,0.38
		c0.01,0.32-0.21,0.38-0.48,0.39c-0.32,0-0.58-0.16-0.63-0.44C462.13,283.74,462.44,283.75,462.68,283.76z"/>
	<path style="fill-rule:evenodd;clip-rule:evenodd;fill:#1C1A1A;" d="M461.17,279.17c0.35,0.11,0.59,0.46,0.36,0.68
		c-0.26,0.25-0.72,0.23-1.06-0.08C460.7,279.57,460.68,279.07,461.17,279.17z"/>
	<path style="fill-rule:evenodd;clip-rule:evenodd;fill:#292625;" d="M491.36,281.38c-0.27,0.01-0.58,0.07-0.56-0.36
		c0.03-0.63,0.7-0.14,0.89-0.49c0.07-0.03,0.15-0.05,0.22-0.09c0.37-0.21,0.92-0.54,1.1-0.07c0.17,0.45-0.5,0.59-0.88,0.75
		C491.88,281.23,491.61,281.29,491.36,281.38z"/>
	<path style="fill-rule:evenodd;clip-rule:evenodd;fill:#191716;" d="M489.47,277.29c-0.15-0.56,0.14-0.7,0.63-0.66
		c0.3,0.02,0.6,0.09,0.55,0.45c-0.09,0.73-0.75,0.39-1.14,0.56C489.38,277.54,489.37,277.42,489.47,277.29z"/>
	<path style="fill-rule:evenodd;clip-rule:evenodd;fill:#131111;" d="M490.72,278.76c-0.08-0.15-0.17-0.29-0.25-0.43
		c0.31-0.2,0.6-0.56,1.02-0.27c0.15,0.1,0.36,0.33,0.33,0.44c-0.12,0.43-0.51,0.53-0.91,0.55l0.03-0.07
		C490.82,278.94,490.75,278.86,490.72,278.76z"/>
	<path style="fill-rule:evenodd;clip-rule:evenodd;fill:#2B2827;" d="M489.47,277.29c0.02,0.12,0.03,0.23,0.05,0.35
		c0.02,0.05,0.03,0.11,0.04,0.17c-0.29,0.48-0.75,0.5-1.24,0.45C487.94,277.03,489.11,277.64,489.47,277.29z"/>
	<path style="fill-rule:evenodd;clip-rule:evenodd;fill:#302C2C;" d="M488.04,279.94c0.29,0.2,1.07-0.07,0.72,0.75
		c-0.09,0.08-0.16,0.17-0.28,0.21l0,0c-0.3,0.02-0.66,0.1-0.8-0.24C487.55,280.33,487.76,280.09,488.04,279.94z"/>
	<path style="fill-rule:evenodd;clip-rule:evenodd;fill:#2C2A29;" d="M488.04,278.76c-0.02,0.07-0.02,0.14-0.01,0.21
		c-0.06,0.1-0.15,0.18-0.23,0.27l0,0c-0.34-0.15-0.75,0.42-1.03-0.1c-0.07-0.14-0.09-0.47-0.02-0.51
		C487.19,278.38,487.64,278.42,488.04,278.76z"/>
	<path style="fill-rule:evenodd;clip-rule:evenodd;fill:#DEE1E6;" d="M462.6,280.75c0.08,0.05,0.16,0.11,0.24,0.16
		C462.76,280.86,462.68,280.81,462.6,280.75z"/>
	<path style="fill-rule:evenodd;clip-rule:evenodd;fill:#DEE1E6;" d="M462.45,280c-0.11,0.08-0.21,0.15-0.32,0.23
		C462.24,280.15,462.34,280.07,462.45,280z"/>
	<path style="fill-rule:evenodd;clip-rule:evenodd;fill:#DEE1E6;" d="M460.2,285.19c-0.1-0.06-0.19-0.11-0.29-0.17
		C460.01,285.08,460.11,285.13,460.2,285.19z"/>
	<path style="fill-rule:evenodd;clip-rule:evenodd;fill:#2A2626;" d="M489.26,281.41c0.34-0.28,0.71-0.37,1.08-0.09
		c0.05,0.04,0,0.29-0.07,0.39c-0.27,0.4-0.62,0.44-1.01,0.17C489.08,281.72,489.11,281.56,489.26,281.41z"/>
	<path style="fill-rule:evenodd;clip-rule:evenodd;fill:#393535;" d="M490.7,279.03c-0.15,0.62-0.57,0.67-1.06,0.44
		c-0.08-0.04-0.16-0.3-0.11-0.37c0.37-0.5,0.78-0.36,1.2-0.04L490.7,279.03z"/>
	<path style="fill-rule:evenodd;clip-rule:evenodd;fill:#DFE1E4;" d="M489.26,281.41c0,0.16,0,0.31,0,0.47
		c-0.1,0.01-0.2,0.02-0.3,0.03l0.01,0.01C489.07,281.75,489.16,281.58,489.26,281.41z"/>
	<path style="fill-rule:evenodd;clip-rule:evenodd;fill:#393535;" d="M490.72,278.76c0.07,0.07,0.14,0.14,0.21,0.21
		c-0.08,0.02-0.16,0.04-0.23,0.06c0,0,0.03,0.03,0.03,0.03C490.73,278.95,490.72,278.85,490.72,278.76z"/>
	<path style="fill-rule:evenodd;clip-rule:evenodd;fill:#DFE1E4;" d="M487.8,279.24c0.08-0.09,0.15-0.18,0.23-0.27
		C487.95,279.06,487.88,279.15,487.8,279.24z"/>
	<path style="fill-rule:evenodd;clip-rule:evenodd;fill:#DFE1E4;" d="M488.48,280.89c0.09-0.07,0.19-0.14,0.28-0.21
		C488.67,280.75,488.57,280.82,488.48,280.89z"/>
	<path style="fill-rule:evenodd;clip-rule:evenodd;fill:#EAC2A7;" d="M463.09,255.27c-0.49-1.21,0.46-1.65,1.18-2.22
		c1.48,2.22,1.87,4.62,1.21,7.2c-0.64,0-1.28-0.01-1.93-0.01c-0.24-0.1-0.46-0.29-0.39-0.53
		C463.6,258.22,463.27,256.75,463.09,255.27z"/>
	<path style="fill-rule:evenodd;clip-rule:evenodd;fill:#EAC0A6;" d="M480.07,254.5c1.02-0.07,1.38,0.15,0.8,1.23
		c-0.57,1.07-0.31,2.25-0.02,3.39c-0.24,0.08-0.48,0.16-0.72,0.23c-0.46,0.3-0.92,0.59-1.46,0.14c0.15-1.51-0.17-3.04,0.23-4.53
		C479.24,254.66,479.65,254.56,480.07,254.5z"/>
	<path style="fill-rule:evenodd;clip-rule:evenodd;fill:#090706;" d="M469.8,256.11c0.22-0.63,0.46-1.46,1.32-1.53
		c0.81-0.08,1.55,0.31,1.9,1.16c0.12,0.29,0.29,0.66-0.02,0.87c-0.32,0.22-0.74,0.08-0.94-0.24c-0.67-1.1-1.04-0.89-1.28,0.23
		c-0.07,0.34-0.24,0.66-0.63,0.53C469.76,256.99,469.76,256.58,469.8,256.11z"/>
	<path style="fill-rule:evenodd;clip-rule:evenodd;fill:#13110F;" d="M458.73,242.52c-0.6,0-1.19,0.01-1.79-0.01
		c-0.25-0.01-0.65,0.13-0.65-0.29c0-0.33,0.35-0.4,0.64-0.37c1.89,0.24,3.75,0.06,5.62-0.23c0.15-0.02,0.46-0.12,0.43,0.19
		c-0.03,0.3-0.28,0.45-0.6,0.47c-1.22,0.1-2.44,0.2-3.66,0.31C458.73,242.57,458.73,242.55,458.73,242.52z"/>
	<path style="fill-rule:evenodd;clip-rule:evenodd;fill:#2E2926;" d="M478.68,259.49c0.49-0.05,0.97-0.09,1.46-0.14
		c0.27,0.4,0.96-0.08,1.14,0.53c-1.09,0.35-2.18,0.65-3.31,0.15c-0.18-0.09-0.35-0.17-0.53-0.26
		C477.85,259.68,478.26,259.58,478.68,259.49z"/>
	<path style="fill-rule:evenodd;clip-rule:evenodd;fill:#FBFBFB;" d="M484.17,244.42c0.15,0.58-0.26,0.41-0.53,0.38
		c-0.13-0.02-0.38-0.14-0.37-0.18c0.06-0.37,0.44-0.33,0.69-0.47C484.03,244.23,484.1,244.33,484.17,244.42z"/>
	<path style="fill-rule:evenodd;clip-rule:evenodd;fill:#8A8483;" d="M480.61,245.2c-0.06,0.18-0.26,0.23-0.32,0.12
		c-0.17-0.29,0.11-0.34,0.3-0.42C480.59,245,480.6,245.1,480.61,245.2z"/>
	<path style="fill-rule:evenodd;clip-rule:evenodd;fill:#695D57;" d="M457.98,240.68c-0.04,0.05-0.07,0.1-0.11,0.14
		c-0.02,0.01-0.1-0.01-0.1-0.02c-0.01-0.05,0-0.1,0.01-0.16C457.85,240.65,457.91,240.67,457.98,240.68z"/>
	<path style="fill-rule:evenodd;clip-rule:evenodd;fill:#EAC0A6;" d="M478.23,255.49c0.08-0.07,0.15-0.14,0.23-0.21
		C478.38,255.35,478.3,255.42,478.23,255.49z"/>
	<path style="fill-rule:evenodd;clip-rule:evenodd;fill:#EAC0A6;" d="M478.48,255.25c0.07-0.06,0.13-0.12,0.2-0.17
		C478.61,255.14,478.54,255.19,478.48,255.25z"/>
	<path style="fill-rule:evenodd;clip-rule:evenodd;fill:#BAA59A;" d="M465.54,268.65c-3.93-1.18-7.41-3.12-10.36-5.99
		c0.18-0.85,0.78-0.4,1.11-0.27c2.7,1.09,5.67,0.55,8.31,1.23c2.32,0.6,4.47,0.56,6.75,0.71c3.79,0.25,7.18-0.41,10.5-2.04
		c0.29-0.15,0.69-0.09,1.05-0.11c1.39-0.05,2.69-0.34,3.74-1.34c0.63-0.6,1.48-0.75,2.26-1.03c0.85-0.31,1.64-0.66,1.82-1.69
		c0.13-0.13,0.27-0.13,0.4,0c-0.07,0.4-0.14,0.79-0.21,1.19c-2.83,5.07-7.8,7.14-12.83,9.11c-0.51,0.2-1.05,0.33-1.58,0.5
		c-0.65,0.04-1.54,0.45-1.27-0.89c0.05-0.23-0.24-0.51-0.55-0.53c-1.89-0.13-3.78-0.18-5.52,0.75c-0.43,0.23-0.09,0.51,0.16,0.71
		c0.09,0.04,0.12,0.09,0.09,0.14c-0.03,0.05-0.06,0.07-0.08,0.07C468.02,269.27,466.8,268.77,465.54,268.65z"/>
	<path style="fill-rule:evenodd;clip-rule:evenodd;fill:#DD998E;" d="M455.39,259.08c0.62-0.57-0.09-1.16,0.04-1.77
		c0.24-1.13,0.94-1.94,1.64-2.78c1.52,0.06,3.06-0.19,4.56,0.22c-0.4,0.38-0.13,0.69,0.08,1.04c0.92,1.59,0.81,2.77-0.36,4.28
		c-2.03,0.07-3.97-0.46-5.94-0.81c-0.07-0.04-0.09-0.07-0.08-0.12C455.35,259.11,455.37,259.08,455.39,259.08z"/>
	<path style="fill-rule:evenodd;clip-rule:evenodd;fill:#DE9E91;" d="M482.28,258.83c-0.07-0.62-0.25-1.26-0.19-1.86
		c0.15-1.35,1.35-2.25,2.77-2.21c1.22,0.04,2.1,1.18,2.21,2.88c-0.47,0.18-0.94,0.36-1.42,0.53
		C484.63,258.87,483.53,259.23,482.28,258.83z"/>
	<path style="fill-rule:evenodd;clip-rule:evenodd;fill:#FDFDFD;" d="M474.71,260.45c0.52,0.1,1.52-0.32,1.67,0.24
		c0.23,0.83,0.27,2.2-0.23,2.64c-0.85,0.75-2.23,0.56-3.41,0.5c-0.83-0.04-0.81-0.68-0.84-1.3
		C471.8,260.58,471.79,260.58,474.71,260.45z"/>
	<path style="fill-rule:evenodd;clip-rule:evenodd;fill:#FCFCFC;" d="M468.66,260.79c0.12,0,0.26-0.04,0.35,0.01
		c0.56,0.29,1.72-0.84,1.74,0.71c0.03,2.24-0.1,2.41-1.81,2.42c-0.4,0-0.8-0.01-1.19-0.05c-1.56-0.18-2.11-1.15-1.54-2.62
		c0.19-0.49,0.59-0.32,0.89-0.37C467.63,260.81,468.15,260.82,468.66,260.79z"/>
	<path style="fill-rule:evenodd;clip-rule:evenodd;fill:#E3AC9A;" d="M461.36,260.08c0.01-1.02,1.01-1.81,0.59-2.96
		c-0.21-0.57-0.39-1.1-0.8-1.56c-0.64-0.73-0.13-0.82,0.5-0.8c0.48,0.17,0.97,0.34,1.45,0.51c0.71,1.22,0.92,2.49,0.47,3.85
		c-0.12,0.36-0.32,0.74-0.01,1.12c-0.24,0-0.49,0-0.73-0.01C462.35,260.04,461.84,260.27,461.36,260.08L461.36,260.08z"/>
	<path style="fill-rule:evenodd;clip-rule:evenodd;fill:#FCFCFC;" d="M477.96,260.03c1.1-0.05,2.19-0.48,3.31-0.15
		c0.15,2-1.31,3.28-3.32,2.91c-0.26-0.05-0.52-0.11-0.47-0.4C477.61,261.6,476.96,260.65,477.96,260.03z"/>
	<path style="fill-rule:evenodd;clip-rule:evenodd;fill:#FBFBFB;" d="M486.09,258.9c0.15,1.71-1.53,3.05-3.21,2.58
		c-0.39-0.11-0.56-0.39-0.54-0.69c0.05-0.51-0.51-1.23,0.41-1.5c0.77-0.44,1.63-0.57,2.48-0.78
		C485.63,258.42,485.94,258.47,486.09,258.9z"/>
	<path style="fill-rule:evenodd;clip-rule:evenodd;fill:#F7F7F7;" d="M460.25,261.44c0.31,1.1-0.15,1.26-0.82,1.18
		c-1.19-0.14-2.31-0.41-2.79-1.69c-0.23-0.62-0.2-1.13,0.72-0.92c0.81,0.18,1.64,0.33,2.46,0.48
		C460.68,260.62,460.18,261.3,460.25,261.44z"/>
	<path style="fill-rule:evenodd;clip-rule:evenodd;fill:#FAFAFA;" d="M463.06,260.64c0.55,0.52,1.74-0.61,1.91,0.84
		c0.14,1.23-0.59,1.47-1.6,1.42c-1.1-0.05-2.07-0.36-1.93-1.67C461.55,260.18,462.51,260.95,463.06,260.64z"/>
	<path style="fill-rule:evenodd;clip-rule:evenodd;fill:#F3F3F3;" d="M455.4,259.55c0.25,0.59,0.45,1.43-0.07,1.69
		c-0.57,0.29-1.1-0.42-1.48-0.93c-0.24-0.31-0.44-0.65-0.66-0.98c0.11-0.62,0.56-0.43,0.91-0.33
		C454.56,259.11,455.04,259.22,455.4,259.55z"/>
	<path style="fill-rule:evenodd;clip-rule:evenodd;fill:#F5F5F4;" d="M487.03,258.76c0.4-0.92,1.27-0.81,1.9-1.07
		c0.4-0.16,0.79,0.19,0.66,0.56c-0.28,0.83-1.06,1.15-1.84,1.33C486.95,259.76,487.51,258.88,487.03,258.76z"/>
	<path style="fill-rule:evenodd;clip-rule:evenodd;fill:#231E1C;" d="M486.09,258.9c-0.67-0.63-1.22,0.09-1.83,0.15
		c-0.5,0.05-1,0.16-1.5,0.24c-0.24-0.07-0.49-0.15-0.73-0.22c-0.07-0.12-0.04-0.18,0.1-0.19c0.06,0.02,0.12,0.01,0.16-0.05
		c1.13-0.22,2.25-0.44,3.38-0.66C485.84,258.4,486.24,258.48,486.09,258.9z"/>
	<path style="fill-rule:evenodd;clip-rule:evenodd;fill:#3B322F;" d="M455.4,259.55c-0.75,0.08-1.38-0.97-2.2-0.23
		c-0.6-0.54,0.28-0.48,0.31-0.76c0.63,0.17,1.26,0.35,1.89,0.52c0.02,0.06,0.03,0.12,0.02,0.19
		C455.41,259.37,455.41,259.46,455.4,259.55z"/>
	<path style="fill-rule:evenodd;clip-rule:evenodd;fill:#E4E2E2;" d="M491.12,258.11c-0.13,0-0.27,0-0.4,0
		c-0.04-0.15-0.08-0.31-0.13-0.45c-0.1-0.26-0.26-0.52,0.08-0.71c0.13-0.07,0.29-0.07,0.44-0.11c0.03,0.23,0.07,0.46,0.07,0.69
		C491.18,257.72,491.14,257.92,491.12,258.11z"/>
	<path style="fill-rule:evenodd;clip-rule:evenodd;fill:#DD998E;" d="M461.36,260.07c0.5-0.02,1.01-0.18,1.46,0.16
		C462.33,260.26,461.83,260.34,461.36,260.07z"/>
	<path style="fill-rule:evenodd;clip-rule:evenodd;fill:#DE9E91;" d="M482.12,258.88c-0.03,0.07-0.06,0.13-0.1,0.19
		c-0.15-0.01-0.3-0.01-0.46-0.02C481.75,258.99,481.94,258.94,482.12,258.88z"/>
	<path style="fill-rule:evenodd;clip-rule:evenodd;fill:#8A8483;" d="M469.32,269.16c0-0.07,0-0.14-0.01-0.21
		c0.96-0.05,1.92-0.11,2.86,0.18c0.15,0.04,0.28,0.12,0.43,0.18c-0.14,0.03-0.28,0.07-0.42,0.08
		C471.21,269.4,470.25,269.49,469.32,269.16z"/>
	<path style="fill-rule:evenodd;clip-rule:evenodd;fill:#E9E8E7;" d="M473.54,268.51c-0.16-0.06-0.52,0.06-0.37-0.21
		c0.12-0.21,0.52-0.29,0.81-0.36c0.17-0.04,0.46-0.01,0.36,0.27C474.21,268.59,473.8,268.41,473.54,268.51z"/>
	<path style="fill-rule:evenodd;clip-rule:evenodd;fill:#F6F6F6;" d="M471.34,268.47c-0.14-0.08-0.43,0.1-0.42-0.17
		c0.01-0.09,0.37-0.23,0.57-0.23c0.14-0.01,0.44,0.21,0.42,0.25C471.81,268.63,471.54,268.4,471.34,268.47z"/>
	<path style="fill-rule:evenodd;clip-rule:evenodd;fill:#FEFEFE;" d="M459,253.8c-3.2-0.26-4.16-4.15-3.07-6.39
		c0.36-0.75,0.9-1.31,1.81-1.37c1.42-0.09,2.86-0.23,4.26,0.13c1.83,0.47,2.85,1.97,2.69,3.87c-0.17,2.06-1.67,3.62-3.67,3.78
		c-0.36,0.03-0.72-0.01-1.08-0.01c-0.13-0.36,0.19-0.58,0.27-0.88c0.1-0.38,0.06-0.72-0.28-0.96c-0.29-0.2-0.6-0.2-0.89,0
		c-0.34,0.24-0.39,0.57-0.29,0.95C458.82,253.22,459.14,253.44,459,253.8z"/>
	<path style="fill-rule:evenodd;clip-rule:evenodd;fill:#010000;" d="M459,253.8c-0.76-0.55-1.02-1.29-0.4-2.03
		c0.48-0.57,1.28-0.58,1.77-0.01c0.65,0.75,0.32,1.48-0.42,2.04C459.63,253.8,459.31,253.8,459,253.8z"/>
	<path style="fill-rule:evenodd;clip-rule:evenodd;fill:#DD998E;" d="M456.9,254.49c-0.43,0-0.87,0.01-1.3,0.01
		C456.03,254.18,456.47,254.17,456.9,254.49z"/>
	<path style="fill-rule:evenodd;clip-rule:evenodd;fill:#FEFEFE;" d="M478.2,250c0-1.98,1.11-3.59,2.9-4.24
		c1.71-0.62,3.36-0.23,4.47,1.06c1.64,1.9,0.92,5.1-1.36,6.06c-0.2,0.09-0.49,0.2-0.64,0.12c-0.2-0.11,0.03-0.32,0.08-0.5
		c0.19-0.63-0.01-1.1-0.6-1.44c-0.59-0.34-1.1-0.11-1.47,0.29c-0.44,0.49-0.42,1.21,0.06,1.59c0.61,0.49,0.07,0.47-0.15,0.55
		C479.76,254.05,478.19,252.39,478.2,250z"/>
	<path style="fill-rule:evenodd;clip-rule:evenodd;fill:#363332;" d="M475.69,282.12c-0.02,0.25-0.18,0.45-0.45,0.35
		c-0.24-0.09-0.69,0.05-0.65-0.47c0.03-0.38,0.35-0.44,0.57-0.46C475.47,281.52,475.6,281.82,475.69,282.12z"/>
	<path style="fill-rule:evenodd;clip-rule:evenodd;fill:#282524;" d="M474.64,284.49c0,0.51-0.28,0.54-0.57,0.51
		c-0.24-0.03-0.65,0.06-0.57-0.36c0.06-0.32,0.41-0.51,0.72-0.5C474.38,284.13,474.54,284.4,474.64,284.49z"/>
	<path style="fill-rule:evenodd;clip-rule:evenodd;fill:#DFE1E5;" d="M473.4,280.47c0.1,0.06,0.2,0.12,0.3,0.18
		C473.6,280.59,473.5,280.53,473.4,280.47z"/>
</g>
</svg>
