<?xml version="1.0" encoding="utf-8"?>
<!-- Generator: Adobe Illustrator 16.0.0, SVG Export Plug-In . SVG Version: 6.00 Build 0)  -->
<!DOCTYPE svg PUBLIC "-//W3C//DTD SVG 1.0//EN" "http://www.w3.org/TR/2001/REC-SVG-20010904/DTD/svg10.dtd" [
	<!ENTITY ns_flows "http://ns.adobe.com/Flows/1.0/">
	<!ENTITY ns_extend "http://ns.adobe.com/Extensibility/1.0/">
	<!ENTITY ns_ai "http://ns.adobe.com/AdobeIllustrator/10.0/">
	<!ENTITY ns_graphs "http://ns.adobe.com/Graphs/1.0/">
]>
<svg version="1.0" xmlns:x="&ns_extend;" xmlns:i="&ns_ai;" xmlns:graph="&ns_graphs;"
	 xmlns="http://www.w3.org/2000/svg" xmlns:xlink="http://www.w3.org/1999/xlink" xmlns:a="http://ns.adobe.com/AdobeSVGViewerExtensions/3.0/"
	 x="0px" y="0px" width="93.6px" height="117.84px" viewBox="0 0 93.6 117.84" style="enable-background:new 0 0 93.6 117.84;"
	 xml:space="preserve">
<g id="Background_xA0_Image_1_">
</g>
<g id="Layer_1_xA0_Image_1_">
	<g>
		<path style="fill-rule:evenodd;clip-rule:evenodd;fill:#080F08;" d="M64.75,24.49c1.31,3.25,2.12,6.65,2.92,10.05
			c0.16,0.69,0.2,1.33,1.22,1.13c0.38-0.08,0.84,0.18,1.26,0.32c0.79,0.28,1.54,0.77,1.56,1.63c0.02,0.82-0.7,1.32-1.47,1.52
			c-0.89,0.23-0.93,0.75-0.96,1.59c-0.14,3.46-0.43,6.92-0.67,10.38c-0.64-0.14-0.49-0.68-0.53-1.11c-0.04-0.42,0-0.84-0.04-1.26
			c-0.1-1.49,0.04-2.97,0.26-4.45c-0.02-0.33-0.02-0.67,0-1c-0.01-0.49-0.01-0.99,0.03-1.47c0.06-0.45,0.17-0.91,0-1.37
			c-0.06-0.1-0.15-0.17-0.29-0.16c-0.12,0.03-0.24,0.06-0.36,0.1c-0.13,0.05-0.26,0.1-0.39,0.15c-0.39,0.13-0.76,0.31-1.14,0.48
			c-0.84,0.3-1.66,0.68-2.49,1c-1.2,0.4-2.32,1.03-3.52,1.41c-0.33,0.09-0.64,0.21-0.96,0.32c-0.72,0.31-1.46,0.55-2.18,0.83
			c-0.26,0.11-0.51,0.23-0.77,0.34c-0.26,0.11-0.53,0.2-0.81,0.23c-0.85-0.02-1.47,0.19-1.31,1.25c0.01,0.19,0.02,0.37,0,0.56
			c0,0.21,0,0.41,0.03,0.62c0.03,3.74,0.08,7.48-0.02,11.22c0,0.42,0.04,0.84-0.01,1.25c0,0.32,0.02,0.65-0.01,0.97
			c-0.01,0.24-0.01,0.48,0,0.72c0.01,0.12,0.01,0.23,0.02,0.35c0.06,0.57-0.06,1.15,0.15,1.71c0.07,0.31,0.08,0.62,0.08,0.93
			c0.07,0.86-0.03,1.71,0.02,2.56c0.35,2.45,0.18,4.92,0.36,7.38c0.22,2.94-0.13,5.88-0.11,8.82c-0.04,0.26-0.04,0.51-0.02,0.77
			c-0.05,0.65,0.15,1.26,0.22,1.89c0.03,1.58-0.01,3.17,0.02,4.75c0.01,0.47-0.15,1.12,0.71,1.07c0.19-0.02,0.38,0,0.55,0.09
			c0.12,0.09,0.14,0.2,0.06,0.33c-1.1,0.79-2.2,1.38-3.69,1.24c-7.19-0.69-14.43-0.65-21.59-1.73c-0.12-0.02-0.24-0.02-0.36-0.04
			c-3.48-0.56-3.64-0.54-4.05-4.01c-0.62-5.3-2.05-10.46-2.72-15.74c-0.79-6.16-1.9-12.28-2.4-18.48c-0.25-3.1-0.63-6.19-0.87-9.29
			c-0.07-0.87-0.6-0.69-1.06-0.68c-1.33,0.03-1.66-0.62-1.15-1.73c0.57-1.24,0.88-2.71,2.93-2.43c0.8,0.11,1.05-1.2,1.29-1.9
			c0.57-1.66,1.74-2.8,2.91-3.99c0.53-0.53,1-1.13,1.49-1.69c0.2-0.1,0.28,0.03,0.35,0.18c0.05,0.28-0.1,0.5-0.26,0.7
			c-0.06,0.08-0.12,0.16-0.18,0.24c-0.05,0.08-0.11,0.16-0.17,0.25c-0.05,0.09-0.11,0.17-0.17,0.25c-0.23,0.27-0.48,0.53-0.73,0.79
			c-0.48,0.52-1.05,0.96-1.33,1.64c-0.31,0.66-0.71,1.25-1.05,1.89c-0.55,1.03-0.46,1.27,0.63,1.13c2.52-0.31,5.02,0.2,7.53,0.03
			c0.72-0.05,1.44,0.05,2.15,0.18c0.2,0.03,0.38-0.01,0.57-0.04c2.05-0.28,4.1-0.13,6.15-0.09c0.25,0.04,0.5,0.11,0.75,0.13
			c0.43,0.06,0.87,0.1,1.31,0.07c0.13-0.01,0.26-0.01,0.4-0.02c1.79,0.01,3.58-0.06,5.37-0.02c1.03,0.08,2.06,0.04,3.1,0.2
			c1.13,0.17,1.28-0.05,0.97-1.16c-0.09-0.31-0.19-0.61-0.24-0.93C52.01,37.22,52,37.11,51.99,37c-0.02-0.16-0.06-0.32-0.1-0.48
			c-0.05-0.21-0.09-0.42-0.14-0.63c-0.03-0.1-0.06-0.21-0.09-0.31c-0.03-0.11-0.05-0.21-0.07-0.33c0.19-1.63,0.38-3.26,1.83-4.37
			c0.19,0.02,0.32,0.12,0.42,0.27c0.18,0.43-0.09,0.75-0.27,1.1c-0.29,0.4-0.33,0.88-0.4,1.35c-0.24,0.57-0.33,1.17-0.28,1.79
			c0.14,1.03,0.33,2.04,0.67,3.03c0.34,1,0.93,1.17,1.84,0.88c1.9-0.59,3.82-1.14,5.71-1.76c1.59-0.52,3.15-1.15,4.79-1.51
			c0.82-0.18,1.11-0.63,0.95-1.47c-0.18-0.94-0.47-1.85-0.7-2.78c-0.03-0.11-0.06-0.23-0.08-0.34c-0.04-0.11-0.06-0.22-0.09-0.34
			c-0.07-0.62-0.21-1.22-0.44-1.8c-0.15-0.48-0.31-0.97-0.48-1.45c-0.11-0.38-0.18-0.78-0.32-1.16c-0.15-0.57-0.43-1.11-0.43-1.71
			C64.38,24.73,64.42,24.49,64.75,24.49z"/>
		<path style="fill-rule:evenodd;clip-rule:evenodd;fill:#372B21;" d="M27.12,32.15c-0.08-0.08-0.15-0.16-0.23-0.23
			c0.94-1.42,2.51-2.05,3.83-2.97c1.73-1.2,3.56-2.26,5.36-3.36c0.45-0.28,0.73-0.36,0.26-1c-2.17-2.92-4.72-5.51-7.06-8.28
			c-0.14-0.16-0.51-0.18-0.37-0.51c0.13-0.3,0.42-0.12,0.64-0.15c4.27-0.61,8.58-0.43,12.87-0.55c1.63-0.05,3.25-0.27,4.88-0.41
			c0.68,0.05,1.32,0.22,1.86,0.67c0.05,0.02,0.09,0.04,0.14,0.06c0.04,0.02,0.09,0.04,0.14,0.06c0.09,0.04,0.17,0.1,0.24,0.16
			c0.03,0.03,0.07,0.07,0.1,0.1c0.06,0.07,0.12,0.14,0.18,0.22c0.1,0.1,0.21,0.2,0.31,0.3c0.07,0.07,0.14,0.15,0.2,0.23
			c0.31,0.43,0.72,0.77,1.03,1.21c0.09,0.12,0.19,0.24,0.29,0.35c0.11,0.11,0.21,0.22,0.31,0.35c0.1,0.12,0.2,0.25,0.29,0.38
			c1.37,2,2.9,3.89,4.21,5.93c0.02,0.18-0.01,0.35-0.12,0.49c-0.1,0.07-0.2,0.1-0.32,0.1c-0.89-0.41-1.32-1.26-1.84-2
			c-1.05-1.46-2.13-2.89-3.17-4.36c-0.11-0.13-0.21-0.27-0.32-0.4c-0.65-0.7-1.35-1.35-1.98-2.07c-0.74-0.85-1.64-1.21-2.77-0.9
			c-0.5,0.14-1.02,0.13-1.55,0.13c-0.4-0.02-0.77,0.15-1.16,0.21c-2.93,0.17-5.85,0.05-8.77,0.08c-0.4-0.05-0.81-0.05-1.2,0.09
			c-0.98,0.11-1.96,0.17-2.94,0.24c-0.07-0.01-0.13-0.08-0.2-0.12c-0.03,0.07-0.01,0.13,0.06,0.18c2.61,2.93,5.17,5.88,7.62,8.92
			c0.31,0.39,0.96,0.48,0.96,1.13c-0.54,0.38-1.09,0.22-1.64,0.06c-0.55-0.58-1.04-0.11-1.49,0.13c-2.44,1.29-4.63,2.96-6.95,4.44
			c-0.17,0.12-0.36,0.22-0.53,0.34c-0.08,0.06-0.16,0.12-0.25,0.18c-0.04,0.03-0.08,0.07-0.11,0.1c-0.19,0.17-0.32,0.4-0.54,0.54
			C27.29,32.26,27.19,32.24,27.12,32.15z"/>
		<path style="fill-rule:evenodd;clip-rule:evenodd;fill:#11120D;" d="M56.39,25.22c0.01-0.18,0.01-0.35,0.02-0.53
			c0.18-0.09,0.33,0,0.48,0.09c0.14,0.09-0.07,0.12,0.07,0.04c0.02-0.01,0.03-0.05,0.02-0.1c-0.01-0.06-0.03-0.08-0.07-0.09
			c-0.41-0.91-1.55-1.36-1.55-2.51c0.08-0.1,0.17-0.11,0.28-0.04c0.65,1.09,1.68,1.11,2.79,1.05c1.53-0.08,3.09-0.38,4.59,0.26
			l-0.07,0.05l0.08-0.04c0.39,0.17,0.78,0.33,1.17,0.5l0.01,0.01c0.26,0.11,0.49,0.26,0.55,0.57c-0.06,0.15-0.12,0.31-0.18,0.46
			c-0.09,0.09-0.19,0.11-0.3,0.07c-0.78-0.71-1.71-1-2.76-0.94c-0.11,0-0.23-0.01-0.34-0.02c-0.17-0.02-0.34-0.05-0.5-0.09
			c-0.97-0.31-1.97-0.03-2.95-0.1c-0.5-0.03,0.16,0.03,0.02,0.09c0.24,0.18,0.33,0.43,0.36,0.72c0.01,0.36-0.11,0.68-0.28,0.99
			c-1.01,1.11-2,2.25-3.09,3.28c-0.08,0.08-0.16,0.15-0.25,0.22c-0.04,0.04-0.08,0.07-0.13,0.11c-0.84,0.7-1.51,1.6-2.46,2.17
			c-0.39,0.26-0.81,0.47-1.28,0.52c-0.24,0.03-0.48,0.04-0.72,0.03c-0.25,0-0.5,0.02-0.75,0.01c-0.32-0.01-0.64,0.01-0.96,0
			c-0.34,0.01-0.67,0.05-1.01,0.01c-0.95-0.1-1.97,0.35-2.82-0.41c-0.08-0.22-0.02-0.4,0.16-0.54c1.4-0.45,2.85-0.24,4.26-0.19
			c1.61,0.06,2.87-0.45,3.93-1.62c0.62-0.68,1.41-1.17,2.05-1.82c0.14-0.14,0.29-0.29,0.42-0.45c0.06-0.09,0.12-0.18,0.16-0.26
			c-0.13-0.06-0.25-0.02-0.38-0.01c-1.69,0.24-3.37,0.34-5.07,0.27c-0.64-0.02-1.27-0.04-1.91,0.02c-2.71,0.23-5.42,0.3-8.14,0.25
			c-0.8-0.01-1.6-0.01-2.35-0.35c-0.13-0.07-0.24-0.18-0.32-0.31c0.01-0.07,0.03-0.15,0.04-0.22c0.57,0,1.14,0,1.71,0
			c0.33-0.37,0.78-0.34,1.22-0.38c3.38-0.27,6.76-0.32,10.14-0.23c1.81,0.05,3.56-0.41,5.33-0.45c0.26-0.03,0.48,0.19,0.74,0.16
			c-0.01,0.01-0.03-0.1-0.03-0.1C56.27,25.3,56.31,25.25,56.39,25.22z"/>
		<path style="fill-rule:evenodd;clip-rule:evenodd;fill:#332820;" d="M56.16,92.39c-0.01-0.11-0.02-0.23-0.03-0.34
			c-0.01-0.19,0.07-0.34,0.19-0.48c0.18-0.16,0.38-0.28,0.59-0.39c2.16-1.31,4.47-2.31,6.78-3.3c0.48-0.2,0.93-0.46,1.4-0.68
			c1.03-0.47,1.64-1.21,1.73-2.38c0.04-0.51,0.07-1.04,0.42-1.48c0.09-0.09,0.19-0.14,0.32-0.15c0.05,0.03,0.1,0.07,0.15,0.1
			c0.21,2.75-1.01,4.42-3.65,5.3C61.29,89.54,58.79,91.13,56.16,92.39z"/>
		<path style="fill-rule:evenodd;clip-rule:evenodd;fill:#2F2720;" d="M68.36,55.19c-0.16,4.56-0.32,9.12-0.48,13.69
			c-0.16,0.06-0.28,0.01-0.36-0.13c-0.39-1.26-0.03-2.57-0.24-3.85c-0.04-2.34-0.04-4.69,0.11-7.03c0.06-0.99,0.13-1.98,0.16-2.98
			c0.01-0.5-0.06-1.06,0.45-1.41C68.59,53.96,68.07,54.66,68.36,55.19z"/>
		<path style="fill-rule:evenodd;clip-rule:evenodd;fill:#221F1F;" d="M55.63,22.08l-0.12,0.01l-0.12,0c-0.49,0.08-0.7-0.3-0.95-0.6
			c-0.82-0.98-1.62-1.96-2.39-2.97c-0.5-0.86-1.38-1.39-1.91-2.22l0.03,0.03c-0.1-0.08-0.21-0.12-0.31-0.2
			c-0.08-0.09-0.13-0.21-0.21-0.3l0.03,0.03c-0.09-0.09-0.18-0.18-0.27-0.27l0.03,0.03c-0.06-0.03-0.11-0.08-0.14-0.13
			c0,0-0.1,0-0.1,0l-0.01,0.1c-0.64-0.3-1.28-0.6-1.92-0.89c2.08-0.67,3.06,0.93,4.13,2.12C52.91,18.48,54.23,20.32,55.63,22.08z"/>
		<path style="fill-rule:evenodd;clip-rule:evenodd;fill:#35271B;" d="M67.62,64.71c0.03,1.39,0.06,2.78,0.09,4.18
			c0.18,0.5,0.05,1.03,0.09,1.54c0,0.44,0,0.88,0,1.32c0,0.12,0,0.25,0.02,0.37c-0.04,0.1-0.08,0.21-0.12,0.31
			c0.17,2.9,0.15,5.8,0.01,8.7c-0.92-0.28-0.66-1.08-0.67-1.69c-0.04-3.67-0.02-7.33-0.02-11c0-0.8-0.03-1.59,0.02-2.39
			C67.07,65.55,67.03,64.99,67.62,64.71z"/>
		<path style="fill-rule:evenodd;clip-rule:evenodd;fill:#332820;" d="M67.64,81.23c0.02-2.93,0.04-5.87,0.06-8.8
			c0.43,1.88,0.24,3.79,0.23,5.68c-0.01,1.73,0.27,3.48-0.21,5.2l-0.07-0.06c-0.41-0.52-0.3-1.11-0.22-1.69
			C67.47,81.43,67.54,81.32,67.64,81.23z"/>
		<path style="fill-rule:evenodd;clip-rule:evenodd;fill:#2F2720;" d="M68.36,48.65c0.2,0.81-0.2,1.67,0.25,2.46
			c-0.01,0.82,0.16,1.66-0.18,2.45c-0.25-0.27-0.45-0.57-0.54-0.94c-0.17-0.93-0.12-1.87-0.08-2.8
			C67.81,49.37,67.78,48.85,68.36,48.65z"/>
		<path style="fill-rule:evenodd;clip-rule:evenodd;fill:#080F08;" d="M68.2,52.8c0.08,0.25,0.15,0.51,0.22,0.76
			c-0.02,0.54-0.04,1.09-0.06,1.63c-0.39-0.52-0.1-1.12-0.2-1.67C67.96,53.27,67.95,53.03,68.2,52.8z"/>
		<path style="fill-rule:evenodd;clip-rule:evenodd;fill:#262320;" d="M67.69,70.56c0.01-0.56,0.01-1.11,0.02-1.67
			c0.06-0.01,0.11-0.01,0.17-0.01c0,0.56,0,1.12,0,1.68C67.81,70.67,67.75,70.67,67.69,70.56z"/>
		<path style="fill-rule:evenodd;clip-rule:evenodd;fill:#2F2720;" d="M67.69,70.56c0.06,0,0.13,0,0.2,0
			c-0.02,0.52-0.04,1.04-0.06,1.56c-0.03-0.04-0.07-0.07-0.1-0.11C67.71,71.53,67.7,71.04,67.69,70.56z"/>
		<polygon style="fill-rule:evenodd;clip-rule:evenodd;fill:#A45827;" points="63.02,23.41 62.98,23.44 63.01,23.4 63.04,23.37 		
			"/>
		<polygon style="fill-rule:evenodd;clip-rule:evenodd;fill:#A45827;" points="64.2,23.92 64.16,23.94 64.19,23.91 64.22,23.88 		
			"/>
		<path style="fill-rule:evenodd;clip-rule:evenodd;fill:#CD923C;" d="M67.72,72.01c0.05,0.02,0.08,0.06,0.1,0.1
			c0,0,0.03,0.03,0.03,0.03l-0.03-0.03C67.76,72.11,67.72,72.07,67.72,72.01z"/>
		<path style="fill-rule:evenodd;clip-rule:evenodd;fill:#F7E6C5;" d="M22.12,56.88c-0.26-3.99-0.95-7.94-1.01-11.95
			c-0.01-0.81-0.13-1.18,1.11-1.09c3.61,0.25,7.21,0.71,10.84,0.58c5.1-0.19,10.19,0.4,15.29,0.48c0.63,0.01,1.26,0.21,1.89,0.21
			c3.13,0.03,3.21,0.03,3.01,3.14c-0.19,2.9,0.07,5.78,0.05,8.67c-0.07,9.58,0.63,19.14,0.55,28.72c-0.02,2.25-0.1,4.51-0.08,6.77
			c0.01,0.57-0.15,0.77-0.74,0.73c-3.6-0.26-7.19-0.59-10.8-0.68c-2.43-0.06-4.82-0.31-7.23-0.54c-2.26-0.22-4.54-0.38-6.75-0.99
			c-0.65-0.18-1.08-0.59-1.11-1.35c-0.03-0.9-0.15-1.8-0.23-2.7c0.55-0.33,0.93,0.08,1.28,0.35c4.27,3.28,9.86,1.33,12.56-2.21
			c0.73-0.95,1.42-1.94,2.09-2.93c0.8-1.2,1.67-2.33,2.66-3.39c2.43-2.61,3.44-5.69,2.97-9.25c-0.42-3.14-1.08-6.22-2.05-9.23
			c-0.82-2.55-2.56-4.3-4.84-5.56c-1.56-0.86-2.95-1.86-4.08-3.28c-0.94-1.19-2.04-2.27-3.44-2.95c-3.84-1.87-8.37-0.15-10.12,3.84
			c-0.49,1.1-0.82,2.25-1.06,3.43C22.79,56.18,22.81,56.76,22.12,56.88z"/>
		<path style="fill-rule:evenodd;clip-rule:evenodd;fill:#CD923C;" d="M68.2,52.8c-0.01,0.24-0.02,0.48-0.04,0.72
			c-0.52,1.69-0.21,3.45-0.42,5.17c-0.24,1.98-0.09,4.01-0.12,6.02c-0.33,3.33-0.14,6.66-0.14,9.99c0,2.17-0.16,4.36,0.16,6.52
			c0,0,0.02,0,0.02,0c-0.24,0.67,0.03,1.38-0.18,2.05c-0.09,0.26-0.26,0.53-0.24,0.79c0.09,2.03-0.96,3.1-2.78,3.85
			c-2.57,1.06-5.05,2.35-7.57,3.55c-0.41-0.37-0.39-0.87-0.35-1.34c0.21-2.08,0.51-4.17,1.73-5.91c1.5-2.13,2.36-4.48,3.19-6.92
			c1.41-4.14,2.25-8.41,3.16-12.66c0.5-2.33,0.34-4.7,0.28-7.05c-0.06-2.61,0.36-5.16,0.58-7.74c0.14-1.62,0.8-3.09,1.91-4.31
			c0.36-0.39,0.61-0.83,0.85-1.29c0.1-0.12,0.22-0.15,0.36-0.09c-0.08,1.5-0.16,3-0.24,4.5C67.98,50.02,68.21,51.42,68.2,52.8z"/>
		<path style="fill-rule:evenodd;clip-rule:evenodd;fill:#BB873E;" d="M67.24,36.49c0.47-0.1,0.93-0.19,1.4-0.29
			c0.08-0.05,0.17-0.05,0.25,0c0.16,0.02,0.33,0.04,0.49,0.06c0.13,0.13,0.34,0.09,0.48,0.21l-0.03,0.01
			c0.16,0.15,0.39,0.12,0.56,0.24c0.04-0.01,0.09,0,0.13,0.01c0.11,0.06,0.2,0.14,0.29,0.22l-0.03,0.01
			c0.15,0.11,0.09,0.35,0.27,0.44c0.24,0.16,0.32,0.33,0.03,0.52c-0.1,0.08-0.29,0.07-0.27,0.27c-1.66,1.2-3.75,1.28-5.53,2.17
			c-0.08,0.05-0.16,0.11-0.24,0.16c-2.41,0.94-4.82,1.88-7.23,2.8c-0.21,0.08-0.46,0.09-0.69,0.13l0.01-0.01
			c-0.14,0.34-0.46,0.22-0.71,0.27l0,0c-0.46,0.45-1.03,0.53-1.64,0.48c-0.1-0.1-0.2-0.21-0.3-0.01l0.01-0.01
			c-0.08,0.07-0.17,0.13-0.26,0.2c-0.24,0-0.48,0-0.71,0.01c-0.13-0.11-0.24-0.27-0.45-0.15c-0.16,0.08-0.35,0.03-0.5,0.14
			c-0.16,0-0.33,0-0.49,0.01c-0.09-0.06-0.18-0.06-0.26,0c-0.79,0-1.58,0-2.37,0c-0.16-0.1-0.32-0.11-0.49,0
			c-2.47-0.13-4.94-0.27-7.41-0.4c-0.1,0.05-0.2,0.05-0.31,0c-1.77-0.08-3.53-0.16-5.29-0.24c-0.63,0.23-1.3-0.07-1.92,0.18
			c-2.38,0.21-4.74-0.29-7.11-0.24c-0.17-0.1-0.38-0.09-0.56-0.16c-0.93-0.03-1.87-0.05-2.8-0.08c-0.16-0.11-0.37-0.09-0.54-0.17
			c-0.56-0.02-1.13-0.05-1.69-0.08c-0.56-0.19-1.14-0.04-1.7-0.09c-0.11,0-0.23,0-0.34-0.02c-0.23-0.16-0.49-0.3-0.56-0.61
			c0.02-0.84,0.53-1.46,0.92-2.14c0.11-0.06,0.21-0.15,0.31-0.21c0.55-0.02,1.1-0.04,1.65-0.06c0.19-0.15,0.46,0.02,0.63-0.18
			c2.68,0,5.37,0,8.05-0.01c0.3,0.23,0.7,0.02,1.01,0.21c1.69,0.01,3.38,0.01,5.07,0.02c0.34-0.21,0.75-0.02,1.09-0.21
			c0.06-0.03,0.13-0.03,0.19,0c0.17,0.08,0.34,0.13,0.51,0c0.08-0.03,0.16-0.03,0.23,0c0.41,0.19,0.85,0.05,1.27,0.09
			c0.25,0.01,0.5-0.03,0.73,0.09c2.53,0.01,5.07,0.03,7.6,0.04c0.39,0.24,0.86-0.02,1.25,0.19c0.62,0.02,1.23,0.04,1.85,0.06
			c0.11,0.09,0.22,0.06,0.32,0c0.05-0.03,0.1-0.03,0.14,0c0.23,0.17,0.55,0,0.76,0.22c0.24,0.01,0.48,0.02,0.72,0.03
			c0.08,0.06,0.16,0.11,0.24,0.17c0.08,0.02,0.16,0.05,0.24,0.07c0.08,0.06,0.16,0.11,0.24,0.16c0.09,0.09,0.18,0.19,0.28,0.28
			c0.05,0.08,0.11,0.16,0.17,0.24c0.07,0.1,0.14,0.19,0.2,0.29c0.15,0.27,0.26,0.76,0.59,0.6c0.5-0.23-0.21-0.57-0.07-0.89
			c-0.05-0.08-0.11-0.16-0.16-0.24c-0.03-0.08-0.05-0.16-0.08-0.24c-0.06-0.09-0.12-0.17-0.19-0.25l-0.02,0.01
			c-0.06-0.07-0.05-0.14,0.01-0.21c0.15-0.02,0.29-0.05,0.44-0.07c0.1-0.04,0.19-0.1,0.28-0.16c0.09-0.02,0.18-0.04,0.27-0.06
			c0.13-0.11,0.32-0.09,0.44-0.21c0.41-0.1,0.81-0.2,1.21-0.29c0.08-0.05,0.16-0.11,0.24-0.16c0.16-0.02,0.33-0.04,0.49-0.06
			c0.13-0.11,0.32-0.09,0.44-0.2c0.17-0.02,0.33-0.03,0.5-0.05c0.08-0.06,0.17-0.11,0.25-0.17c0.16-0.03,0.32-0.05,0.47-0.08
			c0.08-0.05,0.17-0.11,0.25-0.16c0.16-0.03,0.32-0.05,0.48-0.08c0.11-0.06,0.2-0.15,0.31-0.2c0.14-0.01,0.27-0.03,0.41-0.04
			c0.08-0.05,0.16-0.11,0.24-0.16c0.16-0.03,0.32-0.05,0.48-0.08c0.08-0.05,0.16-0.11,0.24-0.17c0.15-0.02,0.31-0.05,0.46-0.07
			c0.09-0.05,0.17-0.1,0.26-0.16c0.16-0.03,0.32-0.05,0.48-0.08c0.08-0.05,0.16-0.11,0.24-0.16c0.16-0.02,0.32-0.05,0.48-0.07
			c0.08-0.05,0.16-0.11,0.24-0.16c0.55-0.1,1.11-0.2,1.66-0.31c0.09-0.06,0.17-0.11,0.26-0.17c0.16-0.03,0.32-0.05,0.48-0.08
			c0.08-0.05,0.16-0.11,0.24-0.16c0.08-0.03,0.16-0.05,0.24-0.08C67.06,36.63,67.14,36.55,67.24,36.49z"/>
		<path style="fill-rule:evenodd;clip-rule:evenodd;fill:#F9EBD0;" d="M22.12,56.88c0.47-1.5,0.88-3.03,1.43-4.5
			c1.91-5.14,8.51-6.77,12.46-2.98c2.21,2.12,4.3,4.3,7.03,5.84c2.78,1.56,3.8,4.41,4.46,7.34c0.54,2.4,1.08,4.81,1.38,7.24
			c0.39,3.14-0.42,6.12-2.56,8.44c-1.9,2.07-3.44,4.38-5.05,6.64c-2.8,3.94-8.86,6.19-13.62,2.36c-0.21-0.17-0.48-0.25-0.73-0.38
			c-0.16-1.12-0.32-2.24-0.48-3.35c0.63-0.09,0.95,0.38,1.25,0.78c2.8,3.76,8.67,3.81,11.76-0.41c1.89-2.58,3.71-5.19,5.74-7.67
			c1.47-1.79,1.88-4,1.6-6.33c-0.31-2.55-0.96-5.02-1.55-7.51c-0.7-2.94-2.31-5.15-5.18-6.33c-1.6-0.66-2.86-1.72-3.82-3.16
			c-0.31-0.47-0.68-0.89-1.08-1.29c-3.43-3.48-8.47-2.25-9.95,2.42c-0.67,2.12-0.77,4.33-0.85,6.52c-0.08,2.12,0.01,4.24-0.04,6.36
			c-0.01,0.47,0.24,1.17-0.61,1.28c-0.38-2.57-0.77-5.15-1.14-7.72C22.39,59.27,22.27,58.07,22.12,56.88z"/>
		<path style="fill-rule:evenodd;clip-rule:evenodd;fill:#FBF0DC;" d="M25.48,78.72c-0.02-0.22-0.04-0.44-0.06-0.66
			c-0.15-0.24-0.02-0.55-0.19-0.78c-0.05-0.05-0.07-0.12-0.05-0.19c-0.89-6.76-0.71-13.54-0.31-20.32c0.09-1.44,0.47-2.84,1.24-4.1
			c2.12-3.49,6.46-3.81,9.08-0.67c0.1,0.12-0.01-0.04,0.07,0.09c1.36,2.2,3.13,3.79,5.66,4.7c2.22,0.8,3.3,2.84,3.91,5.02
			c0.72,2.58,1.4,5.17,1.75,7.84c0.33,2.52-0.16,4.89-1.83,6.74c-2,2.22-3.54,4.73-5.24,7.14c-1.17,1.66-2.75,2.77-4.76,3.22
			c-2.69,0.61-4.88-0.31-6.67-2.29c-1.29-1.43-1.8-3.26-2.4-5.04l0-0.01C25.47,79.24,25.64,78.93,25.48,78.72z"/>
		<path style="fill-rule:evenodd;clip-rule:evenodd;fill:#E5B863;" d="M54.51,86.15c-0.08-0.65-0.43-1.26-0.22-1.94
			c0.09-0.23,0.09-0.45,0-0.68c0.21-5.1-0.04-10.2-0.1-15.29c0-0.27-0.1-0.54-0.15-0.81c0.26-1.12,0.95-1.89,1.94-2.45
			c0.45-0.25,0.86-0.57,1.29-0.87c2.88-1.99,4.12-4.79,4.36-8.22c0.17-2.35,0.16-4.69,0.2-7.04c0.07-3.46,1.88-5.99,4.39-8.14
			c0.4-0.15,0.81-0.3,1.21-0.45c0.09-0.04,0.17-0.1,0.25-0.15c0.16-0.03,0.32-0.05,0.48-0.08c0.09-0.05,0.17-0.11,0.26-0.17
			c0.35,0.51,0.42,1.06,0.22,1.65c-0.22,0.39-0.54,0.68-0.89,0.95c-2.66,1.98-3.86,4.69-4.04,7.95c-0.18,3.31-0.49,6.61-0.78,9.91
			c-0.13,1.45-0.62,2.81-1.18,4.14c-1.72,4.12-2.87,8.4-3.71,12.77c-0.22,1.15-0.56,2.25-1.08,3.29c-0.69,1.41-1.15,2.89-1.53,4.41
			C55.31,85.45,55.3,86.12,54.51,86.15z"/>
		<path style="fill-rule:evenodd;clip-rule:evenodd;fill:#FAEDD6;" d="M25.68,79.44c0.65,0.45,0.71,1.22,0.96,1.86
			c0.93,2.36,2.32,4.29,4.87,5.06c2.62,0.79,5.86-0.38,7.52-2.71c1.78-2.49,3.31-5.12,5.42-7.4c1.83-1.99,2.22-4.57,1.66-7.3
			c-0.66-3.19-1.11-6.42-2.63-9.36c-0.73-1.42-1.92-2.42-3.41-2.8c-2.49-0.64-3.7-2.6-5.09-4.43c-1.26-1.66-2.94-2.52-4.99-2.12
			c-2.26,0.45-3.66,2.01-4.3,4.2c-0.54,1.84-0.74,3.73-0.74,5.65c0.01,3.92-0.03,7.83,0.02,11.75c0.02,1.75,0.35,3.49,0.21,5.25
			c-0.78-2.92-1.33-5.88-1.47-8.91c0.5-0.41,0.28-0.97,0.28-1.46c0.06-4.1-0.25-8.22,0.74-12.25c0.69-2.81,2.42-4.7,5.3-5.2
			c2.65-0.46,4.6,0.97,6.14,2.95c0.98,1.26,1.84,2.63,3.43,3.22c3.66,1.36,5.54,4.13,6.23,7.84c0.39,2.07,0.92,4.1,1.25,6.18
			c0.54,3.32-0.5,6.09-2.71,8.39c-1.76,1.84-3.02,4-4.45,6.05c-3.06,4.38-9.56,4.81-12.52,0.53c-0.24-0.35-0.63-0.6-0.95-0.9
			C26.01,82.2,25.78,80.83,25.68,79.44z"/>
		<path style="fill-rule:evenodd;clip-rule:evenodd;fill:#DEAD54;" d="M54.51,86.15c0.96-1.41,0.87-3.18,1.63-4.67
			c2.03-3.95,2.08-8.48,3.61-12.59c0.54-1.46,0.98-2.96,1.61-4.37c1.12-2.49,1.29-5.14,1.53-7.8c0.29-3.24,0.14-6.54,1.08-9.69
			c0.75-2.48,2.36-4.31,4.66-5.52c-0.01,0.56-0.02,1.12-0.04,1.68c-0.54,0.86-1.38,1.44-2,2.22c-1.56,1.92-1.64,4.24-1.94,6.54
			c-0.52,4-0.08,8.07-0.94,12.02c-1.13,5.15-2.68,10.19-4.05,15.28c-0.28,1.05-0.74,2.02-1.38,2.91c-1.46,2.01-1.92,4.34-2.26,6.73
			c-0.16,1.09-0.14,2.21-0.33,3.3c-0.75,0.59-1.28,0.83-1.23-0.54C54.53,89.82,54.5,87.98,54.51,86.15z"/>
		<path style="fill-rule:evenodd;clip-rule:evenodd;fill:#864F26;" d="M51.83,31.17c0.79-0.72,1.59-1.44,2.38-2.15
			c0.27,0.06,0.38,0.26,0.42,0.51c-0.11,0.68-0.39,1.22-1.12,1.41c-1.11,1.31-1.58,2.85-1.63,4.54c-0.47,1.01-1.42,1.5-2.29,2.02
			c-2.63,1.57-5.47,1.98-8.51,1.69c-2.1-0.21-4.22-0.15-6.34-0.21c-2.88-0.08-5.76-0.31-8.36-1.76c-0.79-0.44-1.69-0.77-2.11-1.69
			c0.32-0.62,0.86-1.03,1.38-1.46c0.35-0.12,0.64,0.04,0.89,0.24c1.74,1.38,3.83,1.89,5.95,1.98c3.23,0.14,6.45,0.51,9.69,0.59
			C46.63,36.97,49.92,35.29,51.83,31.17z"/>
		<path style="fill-rule:evenodd;clip-rule:evenodd;fill:#54321F;" d="M66.47,31.43c0.2,1.25,0.66,2.44,0.85,3.71
			c0.1,0.69-0.13,0.84-0.62,1c-3.87,1.21-7.74,2.43-11.62,3.62c-0.83,0.25-1.41,0.09-1.72-0.9c-0.36-1.18-0.75-2.34-0.78-3.58
			c0.38-0.3,0.77-0.12,1.13,0.01c3.29,1.17,6.16,0.22,8.82-1.75c0.92-0.69,1.78-1.46,2.73-2.12c0.29-0.2,0.6-0.41,0.99-0.23l-0.01,0
			C66.31,31.27,66.39,31.35,66.47,31.43z"/>
		<path style="fill-rule:evenodd;clip-rule:evenodd;fill:#804B25;" d="M24.27,35.53c3.6,2.72,7.78,3.17,12.09,3.11
			c2.33-0.03,4.62,0.42,6.97,0.29c2.89-0.16,5.44-0.99,7.64-2.88c0.27-0.23,0.6-0.38,0.9-0.57c0,0-0.02,0.03-0.02,0.03
			c0.06,0.09,0.13,0.17,0.2,0.25c0.01,0.25,0.02,0.49,0.03,0.74c0.07,0.06,0.13,0.13,0.18,0.22c0.01,0.09,0.02,0.17,0.03,0.26
			c-1.03,1.22-2.41,1.92-3.8,2.6c-2.01,0-4.01,0-6.02,0.01c-0.07-0.06-0.15-0.07-0.22,0c-0.39,0.03-0.79,0.11-1.13-0.19
			c-0.12,0.07-0.25,0.07-0.37-0.01c-2.23,0.05-4.47-0.2-6.69,0.18c-0.15-0.09-0.29-0.09-0.44-0.01c-1.1-0.27-2.21-0.18-3.32-0.18
			c-2.45,0-4.89-0.27-7.34-0.01c-0.66,0.07-0.89-0.1-0.48-0.76C23.11,37.59,23.68,36.55,24.27,35.53z"/>
		<path style="fill-rule:evenodd;clip-rule:evenodd;fill:#D59F48;" d="M55.69,92.19c-0.51-2.75-0.12-5.56,1.13-7.88
			c3.82-7.06,5.08-14.84,6.91-22.46c0.53-2.2,0.04-4.61,0.34-6.91c0.35-2.67,0.1-5.43,1.21-7.96c0.69-1.58,1.75-2.93,3.31-3.78
			c0,0.32,0,0.64-0.01,0.96c-0.06,0-0.13,0-0.2,0c-0.38,0.66-0.92,1.21-1.38,1.8c-1.45,1.87-1.48,4.12-1.78,6.34
			c-0.42,3.18-0.02,6.39-0.5,9.54c-0.77,5.05-2.06,9.99-3.56,14.88c-0.75,2.45-1.52,4.84-2.91,7.04c-1.29,2.03-1.64,4.38-1.76,6.75
			c-0.02,0.4,0.01,0.8-0.08,1.19c-0.1,0.12-0.21,0.23-0.31,0.35C55.98,92.1,55.84,92.14,55.69,92.19z"/>
		<path style="fill-rule:evenodd;clip-rule:evenodd;fill:#925A29;" d="M51.83,31.17c-0.27,2.29-1.84,3.6-3.63,4.72
			c-2.84,1.78-6.01,1.32-9.1,1.24c-1.82-0.05-3.64-0.32-5.46-0.4c-2.93-0.12-5.7-0.65-7.98-2.66c0.23-0.24,0.46-0.49,0.69-0.73
			c0.29-0.14,0.56-0.03,0.79,0.13c1.91,1.44,4.19,1.8,6.45,1.89c3.11,0.12,6.19,0.64,9.31,0.54c2.93-0.1,5.5-0.93,7.16-3.58
			c0.15-0.25,0.37-0.41,0.58-0.59C51.03,31.54,51.43,31.36,51.83,31.17z"/>
		<path style="fill-rule:evenodd;clip-rule:evenodd;fill:#ECC882;" d="M53.96,63.63c-0.36-0.46,0.02-0.98-0.13-1.46
			c0.98-0.59,2.12-0.85,3-1.68c1.24-1.17,2.18-2.49,2.4-4.17c0.45-3.44,0.37-6.83-1.27-10.04c-0.33-0.65-1.21-0.99-1.08-1.9
			c0.73-0.29,1.46-0.59,2.18-0.88c0.47,0.3,0.68,0.78,0.83,1.27c1.26,4.08,1.88,8.23,0.89,12.45c-0.74,3.15-2.8,5.2-5.79,6.34
			C54.66,63.7,54.32,63.79,53.96,63.63z"/>
		<path style="fill-rule:evenodd;clip-rule:evenodd;fill:#663A21;" d="M66.25,31.19c-1.6,1.16-3.16,2.4-4.82,3.47
			c-2.81,1.82-5.8,1.88-8.86,0.61c-0.07-0.7-0.08-1.38,0.49-1.92c0.4-0.3,0.76-0.05,1.11,0.1c2.26,0.99,4.36,0.47,6.36-0.7
			c1.38-0.8,2.5-1.95,3.77-2.9c0.42-0.32,0.81-0.81,1.46-0.57C66.2,29.85,66.25,30.51,66.25,31.19z"/>
		<path style="fill-rule:evenodd;clip-rule:evenodd;fill:#E9BF6F;" d="M66.22,40.72c-0.41,1.04-1.33,1.67-2,2.5
			c-1.46,1.8-2.06,3.91-2.06,6.21c0,3.06-0.06,6.11-0.64,9.15c-0.48,2.53-1.99,4.22-3.87,5.67c-1.27,0.99-2.79,1.68-3.62,3.17
			c0-0.96-0.01-1.92-0.01-2.87c0.5-0.55,1.21-0.75,1.84-1.08c3.24-1.68,4.86-4.33,5.27-7.97c0.27-2.37-0.1-4.68-0.05-7.02
			c-0.19-2.62,0.85-4.78,2.51-6.71C64.47,41.43,65.35,41.08,66.22,40.72z"/>
		<path style="fill-rule:evenodd;clip-rule:evenodd;fill:#F7E5C2;" d="M53.77,59.04c0.02-3.92,0.03-7.84,0.05-11.77
			c0.1-0.1,0.22-0.15,0.36-0.17c0.93,0.04,1.45,0.66,1.76,1.41c1.12,2.79,1.21,5.65,0.36,8.53c-0.2,0.7-0.65,1.28-1.24,1.72
			C54.68,59.05,54.29,59.38,53.77,59.04z"/>
		<path style="fill-rule:evenodd;clip-rule:evenodd;fill:#E8C072;" d="M61.44,48.48c0.21,3.2,0.48,6.43-0.45,9.56
			c-1.04,3.47-3.52,5.55-6.96,6.52c-0.02-0.31-0.05-0.62-0.07-0.93c3.54-1.18,6.07-3.39,6.68-7.2c0.67-4.18,0.13-8.28-1.35-12.25
			c-0.08-0.22-0.15-0.45-0.23-0.67c0.31-0.09,0.63-0.18,0.94-0.27c1.11,0.73,1.18,1.9,1.22,3.04
			C61.24,47.02,61.28,47.75,61.44,48.48z"/>
		<path style="fill-rule:evenodd;clip-rule:evenodd;fill:#F2D8A5;" d="M53.79,61.2c0-0.32,0-0.64,0-0.96
			c0.08-0.09,0.14-0.21,0.24-0.26c3.39-1.65,3.59-4.64,3.31-7.83c-0.07-0.83-0.16-1.66-0.39-2.47c-0.47-1.66-1.28-3-3.14-3.36
			c-0.35-1.5,0.53-1.57,1.63-1.4c1.7,0.9,2.66,2.33,3.08,4.18c0.7,3.07,1.11,6.12-0.38,9.1c-0.62,1.25-1.55,2.21-2.79,2.85
			C54.87,61.31,54.35,61.62,53.79,61.2z"/>
		<path style="fill-rule:evenodd;clip-rule:evenodd;fill:#F4DEB4;" d="M53.81,46.31c1.19-0.45,2.02,0.26,2.48,1.1
			c1.75,3.23,2.07,6.64,0.74,10.11c-0.56,1.47-1.64,2.43-3.23,2.72c-0.01-0.4-0.02-0.8-0.02-1.2c1.33-0.29,2.04-1.27,2.34-2.46
			c0.61-2.46,0.5-4.94-0.23-7.37c-0.28-0.93-0.74-1.78-1.88-1.94c-0.16-0.12-0.09-0.33-0.2-0.46
			C53.81,46.64,53.81,46.48,53.81,46.31z"/>
		<path style="fill-rule:evenodd;clip-rule:evenodd;fill:#975126;" d="M64.38,24.94c0.06,0,0.13,0,0.19,0.01
			c0.15,0.56,0.3,1.13,0.45,1.69c-0.22,0.76-0.95,1.06-1.45,1.55c-1.11,1.09-2.27,2.14-3.55,3.02c-1.46,1.01-3.04,1.6-4.85,0.96
			c-0.5-0.18-0.97-0.37-1.2-0.91c-0.05-0.72,0.43-1.06,0.97-1.35c1.43,0.81,2.72,0.54,3.94-0.48c1.46-1.22,2.77-2.61,4.23-3.82
			C63.48,25.31,63.73,24.74,64.38,24.94z"/>
		<path style="fill-rule:evenodd;clip-rule:evenodd;fill:#9F672E;" d="M49.19,31.72c0.24,0,0.49,0,0.73,0
			c0.32,0.48,0.01,0.81-0.25,1.17c-1.49,2.03-3.62,2.8-6.02,2.98c-2.71,0.2-5.41-0.22-8.11-0.4c-1.83-0.12-3.67-0.1-5.45-0.63
			c-1.3-0.38-2.58-0.84-3.46-1.98c0.16-0.24,0.33-0.48,0.49-0.71c0.06-0.01,0.11-0.02,0.17-0.02c0.15-0.07,0.33-0.1,0.46,0
			c2.73,2.13,6.06,1.69,9.18,2.05c1.85,0.21,3.73,0.39,5.59,0.42c2.1,0.04,4.12-0.46,5.67-2.06C48.49,32.22,48.76,31.88,49.19,31.72
			z"/>
		<path style="fill-rule:evenodd;clip-rule:evenodd;fill:#784224;" d="M65.78,29.27c-1.29,0.59-2.26,1.61-3.31,2.5
			c-2.85,2.38-5.87,3.42-9.4,1.58c-0.38-0.49,0.07-0.82,0.24-1.2c0.46-0.31,0.85-0.02,1.23,0.16c1.74,0.79,3.41,0.61,5.04-0.31
			c1.68-0.95,3-2.36,4.5-3.54c0.37-0.29,0.69-0.68,1.23-0.65C65.63,28.24,65.73,28.75,65.78,29.27z"/>
		<path style="fill-rule:evenodd;clip-rule:evenodd;fill:#98612C;" d="M26.63,32.87c3.44,2.4,7.45,2.14,11.35,2.44
			c2.06,0.16,4.11,0.28,6.17,0.21c2.37-0.07,5.05-1.82,5.77-3.81c0.24,0,0.48,0,0.72,0c-1.23,3.14-3.91,4.36-6.91,4.45
			c-4.72,0.14-9.46-0.18-14.12-1.12c-1.25-0.25-2.21-1.07-3.26-1.71c0.02-0.08,0.05-0.15,0.08-0.22
			C26.5,33.03,26.56,32.95,26.63,32.87L26.63,32.87z"/>
		<path style="fill-rule:evenodd;clip-rule:evenodd;fill:#864925;" d="M65.31,27.81c-1.64,1.37-3.24,2.79-4.94,4.09
			c-2.25,1.72-4.65,1.53-7.05,0.26c0.15-0.32,0.3-0.63,0.45-0.95c0.07-0.07,0.13-0.07,0.21-0.01c2.31,1.52,4.66,1.09,7.16-1.23
			c1.25-1.16,2.58-2.22,3.88-3.32C65.11,27.03,65.21,27.42,65.31,27.81z"/>
		<path style="fill-rule:evenodd;clip-rule:evenodd;fill:#EFD093;" d="M53.79,61.2c2.8-0.5,4.85-3.21,5.01-6.57
			c0.09-2.09-0.21-4.13-0.77-6.13c-0.32-1.13-0.97-2.1-1.95-2.8c-0.3-0.21-0.63-0.36-0.65-0.79c0.24-0.08,0.48-0.16,0.73-0.25
			c1.3,0.46,1.92,1.57,2.34,2.72c1.1,3.01,1.41,6.14,0.72,9.27c-0.53,2.39-2,4.13-4.3,5.08c-0.35,0.15-0.7,0.39-1.12,0.18
			C53.8,61.68,53.8,61.44,53.79,61.2z"/>
		<path style="fill-rule:evenodd;clip-rule:evenodd;fill:#EFCF91;" d="M53.81,61.92c3.92-1.18,5.5-4.37,5.48-7.73
			c-0.02-2.72-0.16-5.41-1.66-7.79c-0.4-0.63-0.97-1.15-1.46-1.72c0.24-0.1,0.48-0.19,0.71-0.29c3.49,4.43,3.83,9.32,1.75,14.34
			c-0.79,1.9-2.46,3.32-4.8,3.44C53.82,62.08,53.81,62,53.81,61.92z"/>
		<path style="fill-rule:evenodd;clip-rule:evenodd;fill:#EAC070;" d="M61.44,48.48c-0.4-0.79-0.42-1.64-0.51-2.49
			c-0.1-0.98-0.45-1.89-0.93-2.75c1.2-0.48,2.32-1.18,3.6-1.46c0.03,0.46-0.12,0.88-0.42,1.2C61.74,44.55,61.34,46.43,61.44,48.48z"
			/>
		<path style="fill-rule:evenodd;clip-rule:evenodd;fill:#7F4A25;" d="M48.49,39.56c1.12-1.08,2.5-1.78,3.8-2.6
			c0.1,0.42,0.17,0.85,0.31,1.26c0.56,1.69,0.47,1.87-1.28,1.58C50.38,39.65,49.43,39.64,48.49,39.56z"/>
		<path style="fill-rule:evenodd;clip-rule:evenodd;fill:#2B211B;" d="M53.97,31.19c-0.07,0-0.14,0-0.21,0.01
			c-0.08-0.09-0.17-0.18-0.25-0.27c0.32-0.47,0.65-0.94,0.97-1.4c0.11-0.23,0.18-0.47,0.37-0.65c0.09-0.13,0.15-0.28,0.25-0.4
			c1.36-1.47,2.82-2.82,4.29-4.17c0.37-0.34,0.7-0.79,1.32-0.54c0.17,0,0.34,0.01,0.51,0.01c0.06,0.11,0.06,0.21,0,0.32
			c-1.06,0.81-1.83,1.94-2.91,2.74c-0.13,0.1-0.26,0.2-0.39,0.3c-0.73,0.62-1.31,1.38-1.95,2.1c-0.29,0.32-0.54,0.7-1.02,0.78
			C54.63,30.4,54.3,30.8,53.97,31.19z"/>
		<path style="fill-rule:evenodd;clip-rule:evenodd;fill:#7E908C;" d="M34.03,43.9c0.61-0.43,1.28-0.16,1.92-0.18
			C35.34,44.13,34.67,43.85,34.03,43.9z"/>
		<path style="fill-rule:evenodd;clip-rule:evenodd;fill:#3C8AB1;" d="M19.43,42.99c0.64,0,1.29-0.22,1.89,0.17
			c-0.63,0-1.25,0-1.88-0.01C19.44,43.11,19.44,43.05,19.43,42.99z"/>
		<path style="fill-rule:evenodd;clip-rule:evenodd;fill:#348CAD;" d="M49.24,40.29c-0.42-0.06-0.89,0.26-1.25-0.19
			C48.42,40.1,48.87,39.94,49.24,40.29z"/>
		<path style="fill-rule:evenodd;clip-rule:evenodd;fill:#A29A80;" d="M39.62,40.03c-0.42,0.02-0.86,0.19-1.23-0.16
			c0.41,0,0.81,0.01,1.22,0.01C39.61,39.93,39.61,39.98,39.62,40.03z"/>
		<path style="fill-rule:evenodd;clip-rule:evenodd;fill:#7D9292;" d="M53.01,44.1c0.05-0.19,0.1-0.37,0.14-0.56
			c0.12,0.27,0.25,0.55,0.37,0.82c-0.08,0-0.17,0-0.25,0C53.18,44.29,53.01,44.28,53.01,44.1z"/>
		<path style="fill-rule:evenodd;clip-rule:evenodd;fill:#2D89B6;" d="M18.71,42.45c0.17,0.16,0.33,0.32,0.5,0.48
			c-0.08,0.13-0.19,0.15-0.32,0.06c-0.16-0.03-0.4,0.04-0.4-0.22C18.5,42.66,18.64,42.55,18.71,42.45z"/>
		<path style="fill-rule:evenodd;clip-rule:evenodd;fill:#606C83;" d="M31.29,40.06c-0.35-0.01-0.74,0.16-1.01-0.21
			C30.64,39.84,31,39.77,31.29,40.06z"/>
		<path style="fill-rule:evenodd;clip-rule:evenodd;fill:#888C8B;" d="M37.45,39.87c-0.31,0.34-0.73,0.16-1.09,0.21
			C36.67,39.71,37.08,39.86,37.45,39.87z"/>
		<path style="fill-rule:evenodd;clip-rule:evenodd;fill:#485775;" d="M39.62,40.03c0-0.05-0.01-0.1-0.01-0.16
			c0.28-0.01,0.58-0.12,0.79,0.18C40.13,40.05,39.87,40.04,39.62,40.03z"/>
		<path style="fill-rule:evenodd;clip-rule:evenodd;fill:#26A2D4;" d="M53.01,44.1c0.09,0.09,0.18,0.18,0.27,0.27
			c-0.23,0-0.47-0.01-0.7-0.01C52.72,44.27,52.86,44.19,53.01,44.1z"/>
		<path style="fill-rule:evenodd;clip-rule:evenodd;fill:#FAEDD6;" d="M25.23,77.28c0.26,0.21,0.2,0.5,0.19,0.78
			C25.07,77.87,25.23,77.56,25.23,77.28z"/>
		<path style="fill-rule:evenodd;clip-rule:evenodd;fill:#FAEDD6;" d="M25.48,78.72c0.07,0.24,0.13,0.47,0.2,0.71
			C25.46,79.24,25.43,78.99,25.48,78.72z"/>
		<path style="fill-rule:evenodd;clip-rule:evenodd;fill:#DEAD54;" d="M54.29,83.54c0.24,0.23,0.25,0.45,0,0.68
			C54.29,83.99,54.29,83.76,54.29,83.54z"/>
		<path style="fill-rule:evenodd;clip-rule:evenodd;fill:#A19E71;" d="M52.32,40.57c-0.27,0-0.56,0.04-0.76-0.22
			C51.84,40.31,52.13,40.26,52.32,40.57z"/>
		<path style="fill-rule:evenodd;clip-rule:evenodd;fill:#38598D;" d="M22.23,39.86c-0.15,0.28-0.39,0.23-0.63,0.18
			C21.74,39.74,22.01,39.88,22.23,39.86z"/>
		<path style="fill-rule:evenodd;clip-rule:evenodd;fill:#D6EAF8;" d="M71.06,37.4c-0.38,0.03-0.29-0.23-0.27-0.44
			C71.07,36.99,71.04,37.21,71.06,37.4z"/>
		<path style="fill-rule:evenodd;clip-rule:evenodd;fill:#293371;" d="M18.89,42.99c0.11-0.02,0.21-0.04,0.32-0.06
			c0.07,0.02,0.15,0.05,0.22,0.06c0.01,0.06,0.01,0.11,0.01,0.17C19.23,43.19,19.02,43.23,18.89,42.99z"/>
		<path style="fill-rule:evenodd;clip-rule:evenodd;fill:#74929B;" d="M70.39,36.73c-0.19-0.08-0.38-0.16-0.56-0.24
			C70.06,36.47,70.27,36.48,70.39,36.73z"/>
		<path style="fill-rule:evenodd;clip-rule:evenodd;fill:#7A716E;" d="M23.01,43.24c0.21-0.03,0.41-0.05,0.54,0.17
			C23.37,43.36,23.19,43.3,23.01,43.24z"/>
		<path style="fill-rule:evenodd;clip-rule:evenodd;fill:#B3A471;" d="M70.81,38.19c-0.21-0.39,0.17-0.2,0.27-0.27
			C71,38.01,70.9,38.1,70.81,38.19z"/>
		<path style="fill-rule:evenodd;clip-rule:evenodd;fill:#68837A;" d="M55.91,40.1c-0.15,0.07-0.29,0.14-0.44,0.21
			C55.55,40.11,55.71,40.06,55.91,40.1z"/>
		<path style="fill-rule:evenodd;clip-rule:evenodd;fill:#A4A988;" d="M38.15,39.87c-0.17,0.22-0.34,0.25-0.51,0
			C37.81,39.87,37.98,39.87,38.15,39.87z"/>
		<path style="fill-rule:evenodd;clip-rule:evenodd;fill:#3F5B8F;" d="M69.86,36.47c-0.2,0.02-0.39,0.03-0.48-0.21
			C69.58,36.23,69.77,36.24,69.86,36.47z"/>
		<path style="fill-rule:evenodd;clip-rule:evenodd;fill:#A19F83;" d="M54.49,44.18c0.04-0.13,0.09-0.25,0.13-0.38
			c0.06,0.13,0.12,0.26,0.17,0.38C54.69,44.18,54.59,44.18,54.49,44.18z"/>
		<path style="fill-rule:evenodd;clip-rule:evenodd;fill:#A8AA85;" d="M48.96,44.36c0.16-0.23,0.33-0.22,0.49,0
			C49.29,44.36,49.13,44.36,48.96,44.36z"/>
		<path style="fill-rule:evenodd;clip-rule:evenodd;fill:#F2D8A5;" d="M53.8,46.81c0.06,0.15,0.13,0.31,0.2,0.46
			c0,0-0.09,0.01-0.09,0.01l-0.09-0.01C53.81,47.12,53.81,46.96,53.8,46.81z"/>
		<path style="fill-rule:evenodd;clip-rule:evenodd;fill:#6A5074;" d="M26.36,43.5c0.22-0.07,0.42-0.07,0.56,0.16
			C26.73,43.6,26.54,43.55,26.36,43.5z"/>
		<path style="fill-rule:evenodd;clip-rule:evenodd;fill:#535F83;" d="M58.29,39.38c-0.08,0.21-0.25,0.24-0.44,0.2
			C57.93,39.36,58.1,39.35,58.29,39.38z"/>
		<path style="fill-rule:evenodd;clip-rule:evenodd;fill:#864F26;" d="M33.62,39.54c0.15-0.2,0.3-0.19,0.44,0.01
			C33.92,39.55,33.77,39.55,33.62,39.54z"/>
		<path style="fill-rule:evenodd;clip-rule:evenodd;fill:#303D5B;" d="M61.92,38.19c-0.08,0.06-0.16,0.11-0.24,0.17
			C61.76,38.31,61.84,38.25,61.92,38.19z"/>
		<path style="fill-rule:evenodd;clip-rule:evenodd;fill:#387386;" d="M19.95,40.1c-0.1,0.07-0.21,0.14-0.31,0.21
			C19.74,40.24,19.85,40.17,19.95,40.1z"/>
		<path style="fill-rule:evenodd;clip-rule:evenodd;fill:#51A8CE;" d="M67.68,40.12c-0.08,0.05-0.17,0.1-0.25,0.15
			C67.51,40.22,67.6,40.17,67.68,40.12z"/>
		<path style="fill-rule:evenodd;clip-rule:evenodd;fill:#A19E71;" d="M51.41,40.35c-0.1,0.18-0.21,0.2-0.32,0
			C51.2,40.35,51.3,40.35,51.41,40.35z"/>
		<path style="fill-rule:evenodd;clip-rule:evenodd;fill:#54A0B8;" d="M59.04,39.16c-0.08,0.06-0.17,0.11-0.25,0.17
			C58.87,39.27,58.95,39.22,59.04,39.16z"/>
		<path style="fill-rule:evenodd;clip-rule:evenodd;fill:#4E9FBA;" d="M55.2,40.36c-0.09,0.05-0.19,0.11-0.28,0.16
			C55.01,40.47,55.1,40.41,55.2,40.36z"/>
		<path style="fill-rule:evenodd;clip-rule:evenodd;fill:#86516B;" d="M65.04,40.52c0.08-0.05,0.16-0.11,0.24-0.16
			C65.2,40.41,65.12,40.47,65.04,40.52z"/>
		<path style="fill-rule:evenodd;clip-rule:evenodd;fill:#839189;" d="M53.28,40.77c-0.08-0.06-0.16-0.11-0.24-0.17
			C53.12,40.66,53.2,40.71,53.28,40.77z"/>
		<path style="fill-rule:evenodd;clip-rule:evenodd;fill:#2F416D;" d="M54.48,40.59c0,0.07,0,0.14-0.01,0.21
			c-0.05-0.04-0.11-0.08-0.17-0.12C54.37,40.65,54.42,40.62,54.48,40.59z"/>
		<path style="fill-rule:evenodd;clip-rule:evenodd;fill:#4D496A;" d="M53.76,41c-0.08-0.05-0.16-0.11-0.24-0.16
			C53.6,40.89,53.68,40.95,53.76,41z"/>
		<path style="fill-rule:evenodd;clip-rule:evenodd;fill:#537F66;" d="M54.49,40.79c0.06,0.08,0.13,0.17,0.19,0.25
			C54.62,40.96,54.55,40.88,54.49,40.79z"/>
		<path style="fill-rule:evenodd;clip-rule:evenodd;fill:#383B6A;" d="M62.64,37.96c-0.08,0.05-0.17,0.11-0.26,0.16
			C62.47,38.07,62.56,38.01,62.64,37.96z"/>
		<path style="fill-rule:evenodd;clip-rule:evenodd;fill:#8EA297;" d="M54.2,41.52c-0.05-0.08-0.11-0.16-0.17-0.24
			C54.09,41.36,54.14,41.44,54.2,41.52z"/>
		<path style="fill-rule:evenodd;clip-rule:evenodd;fill:#1F7D94;" d="M54.76,41.28c0.05,0.08,0.11,0.16,0.16,0.24
			C54.87,41.44,54.81,41.36,54.76,41.28z"/>
		<path style="fill-rule:evenodd;clip-rule:evenodd;fill:#574867;" d="M63.36,37.72c-0.08,0.05-0.16,0.11-0.24,0.16
			C63.2,37.83,63.28,37.77,63.36,37.72z"/>
		<path style="fill-rule:evenodd;clip-rule:evenodd;fill:#758290;" d="M64.08,37.48c-0.08,0.05-0.16,0.11-0.24,0.16
			C63.92,37.59,64,37.53,64.08,37.48z"/>
		<path style="fill-rule:evenodd;clip-rule:evenodd;fill:#96AA97;" d="M66,37c-0.09,0.06-0.17,0.12-0.26,0.17
			C65.83,37.12,65.91,37.06,66,37z"/>
		<path style="fill-rule:evenodd;clip-rule:evenodd;fill:#2979B6;" d="M70.82,36.96c-0.1-0.07-0.2-0.14-0.29-0.22
			C70.62,36.81,70.72,36.88,70.82,36.96z"/>
		<path style="fill-rule:evenodd;clip-rule:evenodd;fill:#68728B;" d="M66.72,36.76c-0.08,0.05-0.16,0.11-0.24,0.16
			C66.56,36.87,66.64,36.81,66.72,36.76z"/>
		<path style="fill-rule:evenodd;clip-rule:evenodd;fill:#2B326D;" d="M67.24,36.49c-0.09,0.06-0.19,0.13-0.28,0.19
			C67.05,36.62,67.15,36.55,67.24,36.49z"/>
		<path style="fill-rule:evenodd;clip-rule:evenodd;fill:#7F4A25;" d="M52.26,36.7c-0.06-0.07-0.12-0.15-0.18-0.22
			C52.14,36.56,52.2,36.63,52.26,36.7z"/>
		<path style="fill-rule:evenodd;clip-rule:evenodd;fill:#3F4866;" d="M68.89,36.2c-0.08,0-0.17,0-0.25,0
			C68.72,36.01,68.81,36.02,68.89,36.2z"/>
		<path style="fill-rule:evenodd;clip-rule:evenodd;fill:#6E8569;" d="M41.25,43.96c0.1,0,0.2,0,0.31,0
			C41.45,44.17,41.35,44.17,41.25,43.96z"/>
		<path style="fill-rule:evenodd;clip-rule:evenodd;fill:#7ABFE9;" d="M51.82,44.37c0.03-0.06,0.06-0.12,0.09-0.17
			c0.06,0.06,0.12,0.11,0.18,0.17C52,44.37,51.91,44.37,51.82,44.37z"/>
		<path style="fill-rule:evenodd;clip-rule:evenodd;fill:#864F26;" d="M42.25,39.57c0.08,0,0.15,0,0.22,0l-0.11,0.02L42.25,39.57z"
			/>
		<path style="fill-rule:evenodd;clip-rule:evenodd;fill:#94A07F;" d="M54.24,44.36c0.09-0.07,0.17-0.13,0.26-0.2
			C54.41,44.23,54.32,44.3,54.24,44.36z"/>
		<path style="fill-rule:evenodd;clip-rule:evenodd;fill:#864F26;" d="M52.05,35.75c-0.07-0.08-0.13-0.17-0.2-0.25
			C51.92,35.58,51.98,35.67,52.05,35.75z"/>
		<path style="fill-rule:evenodd;clip-rule:evenodd;fill:#925A29;" d="M26.63,32.86c-0.07,0.08-0.13,0.17-0.2,0.25
			C26.5,33.03,26.56,32.94,26.63,32.86z"/>
		<path style="fill-rule:evenodd;clip-rule:evenodd;fill:#663A21;" d="M66.47,31.43c-0.08-0.08-0.15-0.16-0.22-0.24
			C66.32,31.27,66.39,31.35,66.47,31.43z"/>
		<path style="fill-rule:evenodd;clip-rule:evenodd;fill:#4B9FBB;" d="M59.76,38.92c-0.08,0.05-0.16,0.11-0.25,0.16
			C59.59,39.03,59.68,38.97,59.76,38.92z"/>
		<path style="fill-rule:evenodd;clip-rule:evenodd;fill:#294A77;" d="M60.56,38.64c-0.1,0.07-0.21,0.13-0.31,0.2
			C60.35,38.77,60.45,38.71,60.56,38.64z"/>
		<path style="fill-rule:evenodd;clip-rule:evenodd;fill:#314E6E;" d="M61.2,38.44c-0.08,0.05-0.16,0.11-0.24,0.16
			C61.04,38.55,61.12,38.49,61.2,38.44z"/>
		<path style="fill-rule:evenodd;clip-rule:evenodd;fill:#4B88AA;" d="M57.36,39.64c-0.08,0.05-0.16,0.11-0.24,0.16
			C57.2,39.75,57.28,39.69,57.36,39.64z"/>
		<path style="fill-rule:evenodd;clip-rule:evenodd;fill:#864F26;" d="M40.75,39.38c0.12,0,0.24,0.01,0.37,0.01
			C40.99,39.56,40.87,39.57,40.75,39.38z"/>
		<path style="fill-rule:evenodd;clip-rule:evenodd;fill:#3468A4;" d="M68.42,39.87c-0.09,0.06-0.17,0.11-0.26,0.17
			C68.24,39.98,68.33,39.93,68.42,39.87z"/>
		<path style="fill-rule:evenodd;clip-rule:evenodd;fill:#BB873E;" d="M56.37,25.7c-5.8,0.72-11.65,0.41-17.47,0.69
			c-1.16-0.29-1.58-1.4-2.27-2.16c-2.29-2.58-4.46-5.27-6.67-7.91c-0.04-0.08-0.03-0.14,0.04-0.2c1.1-0.11,2.21-0.22,3.31-0.32
			c0.33-0.15,0.71,0.02,1.03-0.16c3.09-0.02,6.18-0.04,9.27-0.06c0.29-0.18,0.66,0.01,0.95-0.18c0.62-0.08,1.25-0.11,1.86-0.25
			c1.11-0.26,1.9,0.26,2.6,0.99c0.73,0.77,1.43,1.57,2.14,2.36c0.05,0.08,0.11,0.16,0.17,0.23c1.62,2.16,3.24,4.33,4.87,6.49
			c0.07,0.08,0.14,0.16,0.21,0.24l-0.01-0.02c0.07,0.07,0.09,0.13,0.06,0.19C56.42,25.68,56.39,25.7,56.37,25.7z"/>
		<path style="fill-rule:evenodd;clip-rule:evenodd;fill:#B5803A;" d="M44.4,31.44c0.93,0.41,1.93,0.06,2.87,0.26
			c-0.03,1.13-0.98,1.38-1.76,1.67c-1.65,0.62-3.38,0.4-5.08,0.28c-2.5-0.18-4.96-0.67-7.48-0.68c-1.19-0.01-2.37-0.3-3.48-0.77
			c-0.51-0.22-1.19-0.42-0.93-1.25c2.52-1.82,5.07-3.59,7.85-5c0.37-0.19,1.1-0.74,0.78,0.44h0c-1.35,1.35-3.14,2.08-4.6,3.28
			c-0.33,0.27-0.73,0.46-1.03,0.78c-0.07,0.07-0.14,0.14-0.22,0.21c-0.09,0.1-0.15,0.22-0.1,0.37c0.93,0.13,1.83,0.05,2.75-0.05
			c3.26-0.35,6.51,0.31,9.78,0.16C44.01,31.13,44.23,31.26,44.4,31.44z"/>
		<path style="fill-rule:evenodd;clip-rule:evenodd;fill:#AE7836;" d="M28.56,30.95c0.92,1.56,2.64,1.57,4,1.59
			c3.79,0.07,7.5,1.06,11.3,0.82c1.37-0.09,2.58-0.49,3.41-1.66c0.32,0,0.64,0,0.96,0.01c0.31,0.81-0.31,1.19-0.81,1.52
			c-1.61,1.04-3.4,1.53-5.33,1.34c-3.36-0.32-6.73-0.51-10.09-0.86c-1.08-0.11-2.12-0.38-3.08-0.88c-0.55-0.29-1.16-0.59-1.09-1.4v0
			c0.07-0.07,0.15-0.13,0.24-0.19C28.23,31.15,28.4,31.05,28.56,30.95z"/>
		<path style="fill-rule:evenodd;clip-rule:evenodd;fill:#A87133;" d="M27.84,31.44c0.9,1.4,2.41,1.7,3.85,1.88
			c2.95,0.36,5.95,0.41,8.89,0.8c2.21,0.3,4.27,0.16,6.24-0.9c0.64-0.34,1.23-0.74,1.42-1.52c0.32,0,0.63,0.01,0.95,0.01
			c-1.74,2.69-4.31,3.36-7.31,3.11c-2.57-0.21-5.15-0.33-7.72-0.52c-2.46-0.18-4.93-0.35-6.87-2.19
			C27.36,31.82,27.53,31.57,27.84,31.44z"/>
		<path style="fill-rule:evenodd;clip-rule:evenodd;fill:#FDFCFD;" d="M52.1,18.46c1.1,1.21,2.19,2.42,3.29,3.64
			c0.23,0.83,1.04,1.22,1.46,1.92c0.19,0.31,0.45,0.54,0.24,0.93c-0.06,0.08-0.13,0.1-0.22,0.06c-0.16-0.1-0.31-0.21-0.47-0.31
			c-1.63-1.86-2.94-3.95-4.35-5.97c-0.03-0.05-0.05-0.1-0.08-0.16C52.01,18.53,52.06,18.49,52.1,18.46z"/>
		<path style="fill-rule:evenodd;clip-rule:evenodd;fill:#FEFFFF;" d="M50.15,16.3c0.76,0.62,1.56,1.2,1.96,2.16l-0.03,0.02
			c-0.09,0.07-0.16,0.07-0.21-0.04c-0.07-0.06-0.13-0.12-0.2-0.18c-0.1-0.08-0.21-0.15-0.27-0.27
			C51.12,17.32,50.18,17.15,50.15,16.3z"/>
		<path style="fill-rule:evenodd;clip-rule:evenodd;fill:#514C6A;" d="M44.56,15.39c-0.26,0.35-0.62,0.19-0.95,0.18
			C43.88,15.26,44.23,15.39,44.56,15.39z"/>
		<path style="fill-rule:evenodd;clip-rule:evenodd;fill:#32394D;" d="M34.34,15.63c-0.3,0.33-0.68,0.19-1.03,0.16
			C33.62,15.49,33.99,15.64,34.34,15.63z"/>
		<path style="fill-rule:evenodd;clip-rule:evenodd;fill:#FFFFFF;" d="M49.9,16.08c0.09,0.08,0.19,0.16,0.28,0.25
			c-0.25,0.1-0.35-0.05-0.42-0.25C49.81,16.08,49.85,16.08,49.9,16.08z"/>
		<path style="fill-rule:evenodd;clip-rule:evenodd;fill:#FFFFFF;" d="M49.21,15.58c0.02-0.1,0.05-0.2,0.07-0.3l-0.03,0.03
			c0.07,0.1,0.14,0.2,0.21,0.31C49.38,15.6,49.29,15.59,49.21,15.58z"/>
		<path style="fill-rule:evenodd;clip-rule:evenodd;fill:#FFFFFF;" d="M49.42,15.58c0.09,0.09,0.18,0.18,0.27,0.27
			C49.61,15.76,49.52,15.67,49.42,15.58z"/>
		<path style="fill-rule:evenodd;clip-rule:evenodd;fill:#A87133;" d="M28.07,31.25c-0.08,0.06-0.16,0.13-0.24,0.19
			C27.91,31.37,27.99,31.31,28.07,31.25z"/>
		<path style="fill-rule:evenodd;clip-rule:evenodd;fill:#FFFFFF;" d="M49.9,16.08c-0.05,0-0.1,0-0.14,0
			c-0.03-0.09-0.06-0.17-0.09-0.26C49.74,15.91,49.82,16,49.9,16.08z"/>
		<path style="fill-rule:evenodd;clip-rule:evenodd;fill:#29436D;" d="M30,16.12c0,0.07-0.01,0.14-0.04,0.2
			C29.77,16.21,29.79,16.14,30,16.12z"/>
		<path style="fill-rule:evenodd;clip-rule:evenodd;fill:#354F70;" d="M56.41,25.45c-0.07-0.08-0.14-0.16-0.21-0.24
			c0.07,0,0.13,0.01,0.19,0.02C56.41,25.3,56.41,25.37,56.41,25.45z"/>
		<path style="fill-rule:evenodd;clip-rule:evenodd;fill:#333F61;" d="M51.33,18.71c-0.06-0.08-0.12-0.15-0.17-0.23
			C51.22,18.56,51.28,18.64,51.33,18.71z"/>
		<path style="fill-rule:evenodd;clip-rule:evenodd;fill:#24325B;" d="M51.4,17.99c0.09,0.09,0.18,0.18,0.27,0.27
			C51.57,18.17,51.48,18.08,51.4,17.99z"/>
		<path style="fill-rule:evenodd;clip-rule:evenodd;fill:#5EB1E2;" d="M51.86,18.44c0.07,0.03,0.14,0.04,0.21,0.04
			c-0.01,0.08-0.02,0.16-0.02,0.24C51.99,18.63,51.93,18.54,51.86,18.44z"/>
		<path style="fill-rule:evenodd;clip-rule:evenodd;fill:#49443B;" d="M37.2,26.68c3.62,0.46,7.23,0.11,10.85,0
			c0.61,0.13,1.22,0.13,1.83,0c1.94-0.08,3.88-0.17,5.82-0.25c0.04,0.05,0.06,0.1,0.05,0.15c-0.01,0.05-0.02,0.08-0.03,0.08
			c-0.06,0.07-0.12,0.15-0.19,0.22c-0.23,0.09-0.19,0.36-0.33,0.5c-1.13,1.04-2.25,2.09-3.38,3.13c-0.8,0.74-1.79,0.72-2.79,0.7
			c-1.47-0.03-2.94,0-4.4,0c-4.15,0.15-8.29-0.57-12.44-0.03c-0.2-0.03-0.37-0.12-0.51-0.27c-0.08-0.1-0.11-0.22-0.11-0.35
			c0.26-0.7,0.95-0.94,1.49-1.31C34.41,28.34,35.67,27.29,37.2,26.68z"/>
		<path style="fill-rule:evenodd;clip-rule:evenodd;fill:#A45827;" d="M54.96,30c0.9-1.11,1.74-2.28,2.88-3.16
			c0.1-0.07,0.2-0.15,0.3-0.21c1.12-0.78,1.66-2.21,3.05-2.68c0.08-0.05,0.15-0.11,0.22-0.18c1.15-0.03,2.33-0.13,2.96,1.16
			c-1.9,1.69-3.77,3.41-5.71,5.04C57.38,31.06,55.85,31.01,54.96,30z"/>
		<path style="fill-rule:evenodd;clip-rule:evenodd;fill:#241E17;" d="M31.93,30.95c3.98-0.54,7.96,0.05,11.94,0.01
			c0.28,0,0.56-0.01,0.76,0.25c-0.08,0.08-0.15,0.16-0.23,0.24c-4.43-0.05-8.87-0.37-13.3-0.03c-0.25,0.02-0.71,0.24-0.77-0.25
			c-0.04-0.31,0.29-0.43,0.59-0.46c0.12-0.05,0.21-0.13,0.28-0.24l-0.01,0.01c0.17-0.12,0.35-0.15,0.51,0.01
			c-0.01,0.08-0.01,0.16-0.02,0.24C31.69,30.88,31.85,30.87,31.93,30.95z"/>
		<path style="fill-rule:evenodd;clip-rule:evenodd;fill:#7E4925;" d="M54.96,29.05c-0.16,0.16-0.32,0.32-0.48,0.48
			c-0.09-0.17-0.18-0.34-0.27-0.51c0,0,0.01,0.01,0.01,0.01c0.09-0.07,0.17-0.14,0.25-0.21c1.06-1.06,2.11-2.12,3.17-3.18
			c0.17-0.31,0.45-0.59,0.21-0.99c-0.73-0.94-0.46-1.26,0.67-1.11c0.72,0.1,1.49-0.25,2.18,0.22c-2.09,1.43-3.87,3.18-5.55,5.06
			C55.1,28.9,55.03,28.97,54.96,29.05z"/>
		<path style="fill-rule:evenodd;clip-rule:evenodd;fill:#32271E;" d="M31.7,30.48c-0.17,0-0.34-0.01-0.51-0.01
			c1.83-1.61,3.85-2.95,6-4.08c0,0.1,0.01,0.19,0.01,0.29C35.37,27.94,33.53,29.21,31.7,30.48z"/>
		<path style="fill-rule:evenodd;clip-rule:evenodd;fill:#5A585C;" d="M49.88,26.68c-0.61,0.33-1.22,0.32-1.83,0
			C48.66,26.68,49.27,26.68,49.88,26.68z"/>
		<path style="fill-rule:evenodd;clip-rule:evenodd;fill:#283761;" d="M57.86,24.65c0.46,0.44,0.24,0.74-0.21,0.99
			C57.72,25.31,57.79,24.98,57.86,24.65z"/>
		<path style="fill-rule:evenodd;clip-rule:evenodd;fill:#254384;" d="M56.37,25.7c0.01-0.09,0.02-0.18,0.03-0.28
			c0.13,0.06,0.43-0.1,0.38,0.21C56.75,25.75,56.55,25.95,56.37,25.7z"/>
		<path style="fill-rule:evenodd;clip-rule:evenodd;fill:#576E74;" d="M55.2,27.38c0-0.24,0.06-0.44,0.33-0.5
			C55.42,27.04,55.31,27.21,55.2,27.38z"/>
		<path style="fill-rule:evenodd;clip-rule:evenodd;fill:#864F26;" d="M54.47,28.82c-0.08,0.07-0.17,0.14-0.25,0.21
			C54.31,28.96,54.39,28.89,54.47,28.82z"/>
		<path style="fill-rule:evenodd;clip-rule:evenodd;fill:#27337B;" d="M55.71,26.66c-0.02-0.08-0.02-0.15-0.02-0.23
			c0.06,0.03,0.12,0.06,0.18,0.09C55.82,26.56,55.77,26.61,55.71,26.66z"/>
		<path style="fill-rule:evenodd;clip-rule:evenodd;fill:#1F3C89;" d="M56.88,25c0.07-0.03,0.15-0.05,0.22-0.06
			c-0.02,0.07-0.05,0.14-0.07,0.21C56.98,25.1,56.93,25.05,56.88,25z"/>
		<path style="fill-rule:evenodd;clip-rule:evenodd;fill:#2A7C9E;" d="M61.42,23.78c-0.07,0.06-0.15,0.12-0.22,0.18
			c0.01-0.06,0.02-0.12,0.03-0.18C61.29,23.76,61.35,23.76,61.42,23.78z"/>
		<path style="fill-rule:evenodd;clip-rule:evenodd;fill:#D59F47;" d="M56.44,91.7c-0.39-0.29-0.29-0.73-0.27-1.11
			c0.16-2.73,0.59-5.41,2.2-7.7c1.37-1.95,1.8-4.23,2.52-6.41c1.41-4.27,2.3-8.68,3.29-13.06c0.36-1.6,0.38-3.23,0.41-4.86
			c0.04-3.46,0.22-6.92,0.98-10.3c0.38-1.68,1.33-3.13,2.85-4.1c-0.01,0.35,0.08,0.76-0.22,1.02c-2.2,1.91-2.33,4.57-2.67,7.19
			c-0.28,2.19-0.32,4.38-0.22,6.56c0.24,5.26-1.11,10.27-2.51,15.23c-1.05,3.73-2.08,7.48-4.47,10.75
			c-1.33,1.82-1.56,4.23-1.43,6.55C56.74,91.54,56.59,91.62,56.44,91.7z"/>
		<path style="fill-rule:evenodd;clip-rule:evenodd;fill:#35271B;" d="M67.48,83.28c0.01-0.69-0.16-1.39,0.18-2.05
			c0,0.67-0.01,1.34-0.01,2.02C67.59,83.27,67.54,83.28,67.48,83.28z"/>
		<path style="fill-rule:evenodd;clip-rule:evenodd;fill:#FFFFFF;" d="M49.28,15.28c-0.08-0.01-0.17-0.02-0.25-0.03
			c0.02-0.02,0.03-0.04,0.05-0.07c0.06,0.04,0.11,0.09,0.17,0.13C49.25,15.31,49.28,15.28,49.28,15.28z"/>
		<path style="fill-rule:evenodd;clip-rule:evenodd;fill:#AF9668;" d="M66.98,37.39c-0.03-0.08-0.08-0.17-0.06-0.19
			c0.08-0.07,0.17-0.12,0.26-0.18c0.03,0.07,0.1,0.18,0.08,0.2C67.18,37.3,67.08,37.34,66.98,37.39z"/>
		<path style="fill-rule:evenodd;clip-rule:evenodd;fill:#A5A87C;" d="M27.33,43.25c0.03,0.01,0.07,0.03,0.1,0.04
			c-0.05,0.03-0.09,0.07-0.14,0.1c-0.02-0.03-0.04-0.06-0.06-0.09C27.27,43.29,27.3,43.27,27.33,43.25z"/>
		<path style="fill-rule:evenodd;clip-rule:evenodd;fill:#AFA878;" d="M57.14,43.44c-0.1-0.02-0.2-0.04-0.3-0.06
			c0.02-0.04,0.05-0.08,0.07-0.12c0.07,0.06,0.15,0.13,0.22,0.19L57.14,43.44z"/>
		<path style="fill-rule:evenodd;clip-rule:evenodd;fill:#8C9989;" d="M56.43,43.71c-0.04-0.04-0.08-0.09-0.13-0.13
			c0.02,0.01,0.06,0.01,0.07,0.03C56.4,43.64,56.41,43.68,56.43,43.71L56.43,43.71z"/>
		<path style="fill-rule:evenodd;clip-rule:evenodd;fill:#FCF6EA;" d="M26.64,65.58c0.15-3.07-0.38-6.71,0.51-10.29
			c0.59-2.41,1.89-3.46,4.05-3.45c1.19,0,1.91,0.74,2.54,1.55c0.44,0.56,0.82,1.2,1.06,1.86c0.69,1.85,1.91,2.76,3.93,2.89
			c2,0.12,3.3,1.44,3.83,3.29c0.96,3.39,2.22,6.73,2.1,10.35c-0.04,1.31-0.37,2.61-1.25,3.4c-2.29,2.04-3.65,4.69-5.3,7.17
			c-1.37,2.04-3.38,3.15-5.94,2.59c-2.22-0.49-3.37-2.16-4.07-4.16c-0.95-2.72-1.47-5.53-1.46-8.42
			C26.65,70.28,26.64,68.2,26.64,65.58z"/>
		<path style="fill-rule:evenodd;clip-rule:evenodd;fill:#303C5A;" d="M58.15,26.63c-0.1,0.07-0.2,0.14-0.3,0.21
			C57.95,26.77,58.05,26.7,58.15,26.63z"/>
		<path style="fill-rule:evenodd;clip-rule:evenodd;fill:#864F26;" d="M54.96,29.05c0.07-0.08,0.14-0.16,0.2-0.24
			C55.1,28.89,55.03,28.97,54.96,29.05z"/>
		<path style="fill-rule:evenodd;clip-rule:evenodd;fill:#32271E;" d="M31.19,30.46c-0.09,0.08-0.19,0.16-0.28,0.24
			C31,30.62,31.1,30.54,31.19,30.46z"/>
		<path style="fill-rule:evenodd;clip-rule:evenodd;fill:#32271E;" d="M31.93,30.95c-0.11-0.05-0.42,0.14-0.25-0.23
			C31.76,30.8,31.85,30.87,31.93,30.95z"/>
		<polygon style="fill-rule:evenodd;clip-rule:evenodd;fill:#88888E;" points="41.15,74.34 41.12,74.25 41.2,74.26 		"/>
	</g>
</g>
</svg>
