<?xml version="1.0" encoding="utf-8"?>
<!-- Generator: Adobe Illustrator 16.0.0, SVG Export Plug-In . SVG Version: 6.00 Build 0)  -->
<!DOCTYPE svg PUBLIC "-//W3C//DTD SVG 1.1//EN" "http://www.w3.org/Graphics/SVG/1.1/DTD/svg11.dtd">
<svg version="1.1" id="Layer_1" xmlns="http://www.w3.org/2000/svg" xmlns:xlink="http://www.w3.org/1999/xlink" x="0px" y="0px"
	 width="84.721px" height="99.6px" viewBox="0 0 84.721 99.6" enable-background="new 0 0 84.721 99.6" xml:space="preserve">
<g id="Background_xA0_Image_1_">
</g>
<g>
	<path fill="#030E08" d="M68.57,30.47c-1.34,0.35-1.84-0.35-2.48-1.15c-0.449-0.56-0.949-1.079-1.68-1.29
		c-0.229-0.13-0.32,0.021-0.39,0.2c0.029,0.33,0.25,0.53,0.479,0.73c0.28,0.21,0.57,0.42,0.78,0.7c0.46,0.75-0.08,0.909-0.63,0.979
		c-1.78,0.23-2.48,1.32-2.61,3.01c-0.1,1.37-0.52,1.73-1.91,1.74c-2.189,0.021-4.38,0.07-6.569-0.03c-1.17,0-2.351-0.029-3.53,0.03
		c-0.48-0.02-0.96-0.03-1.44-0.01c-0.409,0.05-0.83-0.01-1.21,0.21c-0.13,0.09-0.17,0.2-0.12,0.35
		c0.171,0.24,0.431,0.32,0.711,0.351c2.359,0.05,4.72-0.011,7.069,0.02c2.08,0.03,4.16,0.01,6.23,0.07
		c0.84,0.02,1.029,0.37,0.85,1.14c-0.24,1-0.58,1.84-1.85,1.76c-0.36-0.02-0.7,0.15-1.061,0.181c-0.55-0.021-1.109-0.04-1.67,0
		c-0.569,0.03-1.149-0.061-1.72,0.02c-2.29,0.311-4.61,0.141-6.91,0.221c-0.28,0.02-0.55,0.01-0.83,0.02c-0.33,0.01-0.67,0.021-1,0
		c-0.13-0.01-0.26-0.01-0.399,0c-0.2,0-0.4-0.02-0.601-0.02c-4.58,0.069-9.14-0.48-13.72-0.46c-0.13-0.011-0.26-0.021-0.39-0.021
		c-0.561,0.06-1.07-0.229-1.62-0.25c-0.811-0.52-1.221-1.47-0.94-2.27c0.3-0.891,1.09-0.54,1.7-0.61c0.189-0.021,0.39,0.01,0.58,0
		c0.12-0.01,0.24-0.01,0.359-0.021C32.41,36,32.83,36.04,32.9,35.52c-0.48-0.479-1.12-0.27-1.68-0.399
		C30.47,34.95,29.59,35,29.3,34.02c-0.13-0.359-0.18-0.72-0.069-1.1c0.12-0.37,0.189-0.74,0.12-1.13
		c-0.03-0.271-0.061-0.55-0.16-0.8c-0.22-0.49-0.73-0.61-1.12-0.87c-0.04-0.03-0.08-0.061-0.13-0.101
		c-0.08-0.069-0.16-0.13-0.25-0.189c-0.17-0.13-0.351-0.24-0.55-0.311c-0.25-0.09-0.5-0.18-0.74-0.26
		c-0.21-0.07-0.42-0.14-0.63-0.17c-0.17-0.021-0.34-0.01-0.511,0.03c-0.63,0.14-1.289,0-1.909,0.17c-0.511,0.3-1.19,0.05-1.65,0.51
		c-0.33,0.7,0.14,1.41-0.04,2.11c0,0.119,0.021,0.229,0.061,0.35c0.63,1.13,1.06,2.3,0.97,3.63c-0.04,0.64-0.3,0.771-0.83,0.45
		c-0.68-0.41-1.351-0.89-2.11-1.09c-1.59-0.44-2.06-1.42-1.97-3c0.05-1.03,0.22-1.67,1.35-1.71c0.23-0.61-0.3-0.82-0.62-1.12
		c-0.26-0.24-0.71-0.44-0.68-0.78c0.13-1.61-0.02-3.24,0.311-4.84c0.22-0.2,0.43-0.41,0.46-0.73c-0.011-0.13-0.061-0.229-0.15-0.319
		c-1.87,0.12-3.19,1.09-4.07,2.7c0,0.159,0,0.319,0,0.479c0.16,0.42,0.311,0.83,0.471,1.25c0.199,0.15,0.159,0.32,0.04,0.49
		c0.199,1.939-0.12,3.93,0.08,5.82c0.409,3.88,0.829,7.76,1.27,11.63c0.61,5.38,0.62,10.81,1.35,16.189
		c0.641,4.72,0.54,9.45-0.189,14.16c-0.061,0.38,0.02,0.8,0.39,0.92c1.04,0.33,2.16,0.38,3.17,0.05c0.82-0.26,0.58-1.229,0.57-1.899
		c-0.021-2.66-0.14-5.311-0.15-7.971c0-0.31-0.569-1.119,0.46-1.06c0.24,0.21,0.4,0.11,0.521-0.14
		c-0.101-0.521-0.55-0.65-0.94-0.841c-0.47-0.229-0.949-0.43-1.29-0.859c-0.069-0.09-0.199-0.12-0.189-0.26
		c0.1,0.01,0.09,0.149,0.17,0.17c1.31,0.819,2.689,1.479,4.11,2.08c0.329,0.14,1,0.17,0.539,0.85c-0.09,0.14-0.189,0.28-0.09,0.46
		c0.28,0.36,0.771,0.521,0.771,1.13c0,3.66,0.68,7.391-0.57,10.93c-0.66,1.86,0.15,2.33,1.561,2.83c0.79,0.28,1.569,0.301,2.35,0.17
		c0.46-0.079,0.91-0.3,0.96-0.909c0.14-1.511,0.41-3.011,0.45-4.521c0.06-2.37,0-2.37,2.28-2.59c0.359-0.03,0.71-0.09,1.069-0.14
		c-0.109-0.61-0.62-0.45-1.01-0.53c-0.48-0.04-0.96,0.11-1.44-0.1c0.311-0.431,0.75-0.021,1.11-0.15c0.4-0.07,0.81-0.07,1.2-0.18
		c0.53-0.181,1.08-0.11,1.62-0.11c0.25,0.02,0.51,0.01,0.76,0c0.39-0.01,0.78,0,1.17-0.1c1.16-0.24,2.32-0.2,3.48-0.03
		c0.199,0.04,0.399,0.04,0.6,0c0.4-0.12,0.82-0.11,1.229-0.101c2.32,0,4.65,0,6.98,0c1.84-0.18,3.69-0.25,5.54-0.31
		c0.54-0.2,1.1-0.17,1.66-0.22c1.1-0.24,2.2-0.36,3.3,0c-0.96,0.31-2.07-0.311-2.96,0.46c0.13,0.52,0.56,0.279,0.87,0.31
		c0.68,0.08,1.39-0.14,2.05,0.15c0.3,2.1,0.22,4.21,0.07,6.319c-0.11,1.461,0.52,2.07,2,1.921c0.63-0.07,1.26-0.16,1.89,0.029
		c1.21,0.36,1.96-0.1,2-1.33c0.08-2.39,0.16-4.79,0.11-7.18c-0.11-5.04-0.42-10.09-0.41-15.13c0.01-3.54,0.399-7.07,0.66-10.61
		c0.27-3.76,0.239-7.56,1.55-11.18c0.49-1.35,0.97-2.7,1.37-4.07C69.12,31.29,69.55,30.21,68.57,30.47z M19.85,40.47
		c0-0.32,0.05-0.63,0.05-0.65c0-0.619-0.04-0.939,0.01-1.26c0.1-0.72-0.75-1.74,0.14-2.109c0.921-0.381,3.171,1.8,3.171,2.8
		c0,1.5-0.211,3.02,0.17,4.5c0.14,0.52,0.02,0.649-0.46,0.59c-0.04,0-0.08,0-0.12,0C20.04,44.49,19.82,44.2,19.85,40.47z
		 M20.93,51.71c-0.44-1.11-0.381-2.4-0.271-3.63c0.01-0.08,0.13-0.181,0.22-0.2c1.431-0.351,3.83,2.01,3.66,3.54
		c-0.09,0.75-0.53,0.149-0.7,0.229c-0.359,0.03-0.63,0.051-0.909,0.07C22.24,51.76,21.12,52.17,20.93,51.71z M25.27,61.32
		c-0.011,0-0.021,0-0.021,0c0,0.921-0.06,1.841,0.021,2.75c0.09,1.061-0.38,1.011-1.07,0.631c-0.8-0.44-1.58-0.931-2.4-1.33
		c-0.479-0.23-0.52-0.65-0.479-1c0.2-1.96-0.3-3.88-0.25-5.83c0.02-0.58,0.15-0.79,0.72-0.63c0.04,0.01,0.08,0,0.12,0
		c3.87,0.149,3-0.53,3.36,3.5C25.32,60.04,25.27,60.69,25.27,61.32z M44.87,71.74c-1.2,0.369-2.45-0.061-3.66,0.229l-0.06-0.04
		l-0.061,0.04c-1.159-0.16-2.319-0.15-3.479,0c-0.46,0.021-0.92,0.03-1.37,0.05c-0.8,0.45-1.65,0.21-2.48,0.19
		c-0.369,0.02-0.75,0.03-1.119,0.05c-0.62,0.15-1.25,0.18-1.87-0.02c-0.011-0.28,0.029-0.57-0.03-0.83c-0.3-1.341,0.4-1.5,1.55-1.61
		c3.51-0.35,7.021-0.05,10.53-0.2C45.04,69.5,45.04,69.51,44.87,71.74z M44.99,67.51c0.11,0.5-0.28,0.38-0.51,0.38
		c-4.021-0.1-8.04-0.07-12.05,0.26c-1.24,0.101-1.681-0.42-1.41-1.62c0.05-0.22-0.011-0.47-0.03-0.71
		c0.2-0.949,0.1-1.909,0.07-2.859c-0.021-0.75,0.229-0.95,0.96-0.94c3.47,0.04,6.93-0.189,10.39-0.08
		c0.811,0.03,1.63-0.6,2.43,0.011C45.58,63.79,44.6,65.67,44.99,67.51z M45.79,51.7c-0.54,0.02-1.09,0.109-1.63-0.07
		c-0.16,0-0.32-0.01-0.479-0.01c-0.08,0.069-0.16,0.069-0.24,0c-0.08,0-0.16-0.011-0.24-0.011c-0.49,0.33-1.04,0.32-1.6,0.341
		C39.3,52.02,37.01,51.94,34.71,52.09c-1.27,0.08-2.66,0.08-3.95-0.32c-0.109-1.46-0.199-2.93-0.329-4.39
		c-0.061-0.67,0.079-0.96,0.869-0.94c4.7,0.101,9.4,0.16,14.101,0.2c0.6,0,0.649,0.19,0.729,0.74c0.19,1.27-0.489,2.51-0.05,3.77
		C46.28,51.47,46.14,51.68,45.79,51.7z M44.63,44.63c-4.58-0.04-9.159-0.08-13.75-0.08c-0.62,0-0.81-0.13-0.859-0.771
		c-0.08-1.06-0.28-2.119-0.46-3.17c-0.11-0.64,0.1-0.83,0.75-0.779c4.92,0.35,9.83,0.699,14.77,0.609
		c2.09-0.04,0.96,1.62,1.33,2.391C46.88,44.6,45.81,44.64,44.63,44.63z M59.69,69.07c-0.19,0.73,0.069,1.841-1.11,1.96
		c-2.26,0.23-4.52,0.37-7.229,0.57c-1.5,0.55-1.83-0.42-1.721-2.1c0.07-1.05-0.279-2.12-0.13-3.2c1.021,0.26,2.03,0.56,3.05,0.78
		c2.061,0.449,4.131,0.84,6.19,1.29C59.12,68.47,59.9,68.28,59.69,69.07z M59.47,66.84c-2.98-0.88-5.961-1.71-8.971-2.49
		c-1.3-0.34-0.8-1.43-0.92-2.14c-0.09-0.55,0.74-0.29,1.15-0.3c1.72-0.03,3.43-0.011,5.149-0.011c0-0.1,0-0.189,0-0.29
		c0.96,0,1.931,0.101,2.87-0.029c0.94-0.13,1.25,0.25,1.26,1.06c0.021,1.24,0.011,2.48,0.011,3.72
		C60.03,66.72,60.12,67.03,59.47,66.84z M60.41,51.42c-0.15,1.43-0.28,2.859-0.36,4.29c-0.029,0.6-0.42,0.47-0.75,0.479
		c-1.319,0.011-2.63,0-3.949,0c0-0.01,0-0.02,0-0.029c-1,0-2.011-0.131-2.98,0.029c-1.77,0.301-1.95-0.77-1.899-2.04
		c0.069-1.75,0.239-3.489,0.319-5.229c0.03-0.561,0.26-0.55,0.681-0.44C54.24,49.2,57,49.92,59.78,50.58
		C60.33,50.71,60.47,50.88,60.41,51.42z M60.73,47.75c0.14,0.779,0.109,1.229-1,0.96c-2.63-0.65-5.26-1.23-7.82-2.141
		c-0.89-0.31-1.33-0.8-1.229-1.75c0.029-0.239-0.061-0.51,0.029-0.71c0.5-1.14-0.54-2.81,0.681-3.46
		c0.989-0.529,2.42-0.239,3.649-0.279c0.76-0.03,1.521,0,2.271,0V40.36c0.319,0,0.64,0,0.96,0c0.79-0.01,2.2-0.21,2.26-0.01
		c0.29,0.94,0.33,2.021,0.21,3.021C60.55,44.83,60.47,46.28,60.73,47.75z"/>
	<path fill="#171917" d="M49.46,73.24c-0.09,0.579-0.149,1.17-0.26,1.739c-0.28,1.48-2.09,2.23-3.31,1.351
		c-0.46-0.33-0.29-0.94-0.431-1.42c-0.17-0.57,0.141-1.311-0.58-1.69c-0.08-0.15-0.05-0.28,0.08-0.39
		c1.3-0.431,2.641-0.17,3.96-0.181C49.21,72.76,49.53,72.82,49.46,73.24z"/>
	<path fill="#2E2729" d="M64.4,28.04c-0.101,0.08-0.21,0.149-0.311,0.229c-0.06,0.09-0.14,0.141-0.25,0.15
		c-0.42-0.061-0.729-0.37-1.109-0.521c-0.33-0.13-0.63-0.33-0.94-0.51c-0.31-0.18-0.63-0.34-0.95-0.49
		c-0.27-0.13-0.54-0.279-0.779-0.449c-0.12-0.08-0.23-0.16-0.351-0.24c-0.08-0.04-0.16-0.09-0.239-0.141
		c-0.12-0.06-0.23-0.13-0.351-0.189c-0.16-0.08-0.32-0.16-0.479-0.24c-0.17-0.08-0.33-0.16-0.5-0.229
		c-0.221-0.101-0.44-0.2-0.66-0.301c-0.271-0.14-0.55-0.26-0.851-0.35c-0.399-0.17-0.88-0.2-1.069-0.69
		c-0.011-0.119,0.029-0.22,0.12-0.3c2.22,0.46,4.09,1.7,6.05,2.74C62.64,26.98,63.51,27.52,64.4,28.04z"/>
	<path fill="#030E08" d="M49.46,73.24c-0.17-0.101-0.35-0.2-0.52-0.301c-0.05-0.149-0.01-0.27,0.12-0.35
		c0.6-0.17,1.229-0.12,1.84-0.14c0.95-0.091,1.92,0,2.859-0.181c0.351-0.04,0.711-0.02,1.061-0.029c0.71-0.04,1.45-0.33,2.07,0.289
		c0.899,0.53,1.989-0.22,2.869,0.461C56.32,72.86,52.89,73.08,49.46,73.24z"/>
	<path fill="#302A28" d="M29.54,21.4c3.51-0.29,7.021-0.149,10.54-0.01c0.01,0.29-0.2,0.38-0.41,0.47
		c-3.08,0.181-6.17,0.051-9.25,0.07C30.04,21.87,29.62,21.92,29.54,21.4z"/>
	<path fill="#030E08" d="M44.89,72.99C44.88,73.07,44.88,73.15,44.87,73.23c-1.87,0.24-3.75,0.34-5.64,0.24
		c-0.471,0.04-1,0.37-1.351-0.25c1.44-0.68,3-0.43,4.5-0.6c0.511,0,1.011,0,1.521,0.01C44.27,72.65,44.65,72.64,44.89,72.99z"/>
	<path fill="#413A37" d="M47.88,21.82c1.5,0.11,2.971,0.37,4.42,0.801c0.011,0.27-0.189,0.35-0.39,0.43
		c-1.96-0.021-3.86-0.53-5.79-0.76c-0.16-0.021-0.27-0.16-0.32-0.33C46.47,21.52,47.18,21.73,47.88,21.82z"/>
	<path fill="#030E08" d="M37.92,73.25c0.391,0.33,0.88,0.14,1.311,0.22c-1.86,0.36-3.75,0.39-5.641,0.42
		c-0.359-0.33-0.8-0.13-1.199-0.21c-0.061-0.15-0.03-0.27,0.1-0.36c0.51-0.29,1.08-0.189,1.63-0.21c1.09-0.02,2.18,0.08,3.26-0.08
		C37.59,73.01,37.79,73.05,37.92,73.25z"/>
	<path fill="#453D38" d="M39.77,21.64c0.1-0.08,0.2-0.17,0.3-0.25c1.46-0.01,2.92-0.2,4.36,0.18c-0.04,0.051-0.08,0.101-0.131,0.15
		c-0.529,0.3-1.17,0.16-1.72,0.39c-0.89,0.091-1.78,0.23-2.64-0.119C39.81,21.91,39.76,21.79,39.77,21.64z"/>
	<path fill="#030E08" d="M24.99,66.7c-0.09,0.09-0.19,0.18-0.28,0.279c-0.979-0.439-1.979-0.819-2.85-1.47
		c0.14-0.07,0.29-0.14,0.43-0.2C23.4,65.38,24.49,65.48,24.99,66.7z"/>
	<path fill="#483F3E" d="M18.5,23.05c-0.01-0.1-0.02-0.21-0.029-0.31c0.899-0.79,1.97-1.011,3.14-0.891
		c0.05,0.061,0.07,0.13,0.06,0.19c-0.01,0.069-0.029,0.1-0.04,0.1c-0.199,0.19-0.46,0.26-0.71,0.351c-0.189,0.06-0.39,0.1-0.59,0.14
		c-0.24,0.05-0.47,0.12-0.7,0.189c-0.18,0.061-0.359,0.131-0.54,0.2C18.88,23.09,18.7,23.16,18.5,23.05z"/>
	<path fill="#524645" d="M21.8,21.81c1.37-0.29,2.75-0.22,4.131-0.18c0.069,0.12,0.05,0.229-0.061,0.32
		c-0.32,0.22-0.689,0.25-1.05,0.359c-0.32,0.061-0.64,0.05-0.96-0.04C23.2,22.01,22.38,22.44,21.8,21.81z"/>
	<path fill="#635456" d="M29.54,21.4c0.24,0.07,0.48,0.15,0.73,0.221c0.05,0.149,0.01,0.27-0.12,0.35
		c-0.391,0.21-0.811,0.17-1.22,0.1c-0.891-0.369-1.95,0.221-2.78-0.489C27.26,21.25,28.4,21.4,29.54,21.4z"/>
	<path fill="#463F3B" d="M47.88,21.82c-0.67,0.141-1.399-0.199-2.04,0.221c-0.47,0.279-0.92,0.1-1.359-0.061
		c-0.101-0.08-0.15-0.18-0.15-0.3c0.03-0.04,0.07-0.07,0.101-0.11C45.58,21.63,46.75,21.47,47.88,21.82z"/>
	<path fill="#635559" d="M52,22.87c0.101-0.08,0.2-0.17,0.29-0.25c0.51,0.159,1.01,0.31,1.521,0.47c0.06,0.11,0.08,0.22,0.06,0.34
		c-0.05,0.11-0.13,0.19-0.25,0.25C52.91,23.75,52.32,23.58,52,22.87z"/>
	<path fill="#292724" d="M26.14,21.59c0.949,0.21,1.949-0.21,2.88,0.21c-0.32,0.41-0.771,0.39-1.221,0.4
		c-0.63-0.11-1.35,0.189-1.88-0.391c0-0.06,0-0.12-0.01-0.18C25.99,21.59,26.06,21.57,26.14,21.59z"/>
	<path fill="#232320" d="M21.8,21.81c0.71,0.271,1.511-0.229,2.19,0.24c-0.03,0.04-0.07,0.09-0.1,0.14
		c-0.101,0.061-0.2,0.11-0.311,0.13c-0.28,0.051-0.56,0.061-0.84,0.061c-0.23,0-0.46,0-0.69-0.05c-0.18-0.04-0.329-0.12-0.43-0.28
		c0-0.07-0.01-0.14-0.01-0.21C21.66,21.8,21.72,21.78,21.8,21.81z"/>
	<path fill="#252020" d="M55.68,23.76c-0.011,0.1-0.011,0.2-0.021,0.3c-0.14,0.13-0.31,0.17-0.49,0.17
		c-0.25-0.029-0.46-0.12-0.55-0.38c-0.01-0.12,0.021-0.229,0.101-0.32C55.04,23.61,55.36,23.68,55.68,23.76z"/>
	<path fill="#3D3733" d="M53.76,23.52c0.011-0.1,0.021-0.2,0.03-0.3c0.13-0.07,0.25-0.06,0.38,0c0.13,0.09,0.261,0.17,0.38,0.26
		c-0.05,0.16-0.14,0.29-0.3,0.36C54,23.87,53.84,23.76,53.76,23.52z"/>
	<path fill="#030E08" d="M14.87,27.17c0.15,0.09,0.41,0.16,0.43,0.27c0.04,0.271-0.25,0.16-0.39,0.23
		C14.9,27.5,14.88,27.33,14.87,27.17z"/>
	<path fill="#1E1E1B" d="M54.24,23.71c0.1-0.08,0.21-0.15,0.31-0.23c0.07-0.029,0.131-0.01,0.171,0.05c0,0.08,0,0.171-0.011,0.25
		C54.53,23.9,54.37,23.88,54.24,23.71z"/>
	<path fill="#D9B4CF" d="M54.17,23.21c-0.13,0-0.25,0-0.38,0c0-0.05,0.01-0.09,0.03-0.13C53.94,23.13,54.05,23.17,54.17,23.21z"/>
	<path fill="#D3AC80" d="M35.73,61.74c-1.271-0.03-2.54-0.091-3.811-0.091c-0.699,0-1.05-0.199-0.97-0.96
		c0.04-0.43,0.1-0.92-0.05-1.3c-0.55-1.49,0.03-2.06,1.49-2.03c0.67-0.479,1.399-0.05,2.09-0.09c4.74-0.25,9.479-0.3,14.229-0.25
		c0.8,0.01,1.601-0.01,2.38,0.181c0.71,0.119,1.431,0.04,2.141,0.06c0.88,0.22,1.81-0.57,2.68,0.09c1.43,0,2.87,0.021,4.3-0.02
		c0.67-0.021,0.95,0.17,1.07,0.89c0.34,2.06-0.05,2.74-2.07,2.83c-4.85,0.19-9.71,0.3-14.569,0.44C44.37,61.78,44,61.82,43.65,61.85
		C41.02,62.06,38.37,62.29,35.73,61.74z"/>
	<path fill="#D3AC80" d="M26.16,49.72c0.35,2.021,0.561,4.06,0.49,6.11c0.29,0.81-0.061,1.67,0.2,2.47
		c0.159,3.22,0.33,6.45,0.489,9.67c-0.159,0.21-0.09,0.45-0.1,0.68c-0.04,0.42,0.09,0.851-0.12,1.25c-0.12,1.42,0.29,2.86-0.27,4.25
		c-0.29,1.36,0.109,2.761-0.21,4.12c-0.011,0.471-0.011,0.94-0.021,1.41c-0.14,0.16-0.11,0.38-0.21,0.55
		c-0.01,0.12-0.02,0.25-0.04,0.37c-0.14,0.181-0.3,0.15-0.47,0.04c-0.7-0.3-0.43-0.87-0.32-1.34c1.01-4.29,0.57-8.61,0.351-12.94
		c-0.07-1.27,0-2.55,0.02-3.819c0.11-6.34-0.92-12.57-1.95-18.79c-0.33-1.97,0.01-3.94-0.14-5.92c-0.17-2.25-0.3-4.45-1.19-6.55
		c-0.1-0.221-0.21-0.49,0-0.66c0.08-0.07,0.36,0.09,0.54,0.17c0.931,0.43,1.48,1.05,1.561,2.18c0.109,1.7,0.43,3.39,0.66,5.09
		c0.319,1.38-0.11,2.8,0.239,4.181c0.37,0.72,0.21,1.489,0.25,2.25c0.21,1.3,0.061,2.609,0.08,3.92
		C26.02,48.86,25.92,49.32,26.16,49.72z"/>
	<path fill="#D3AC80" d="M46.65,54.74c-1.34,0.399-2.71,0.439-4.101,0.46C39,55.27,35.46,55.35,31.91,55.47
		c-0.939,0.03-1.21-0.28-1.229-1.22c-0.011-0.95,0.43-0.971,1.149-0.98c4.74-0.09,9.48-0.399,14.22-0.2
		c0.171,0.131,0.341,0.271,0.41,0.48C46.56,53.93,46.46,54.35,46.65,54.74z"/>
	<path fill="#D3AC80" d="M26.9,50.16c-0.17-2.71-0.351-5.41-0.521-8.12c-0.109-0.181-0.109-0.37,0-0.55v0.01
		c0.681-0.65,1.21-1.601,2.41-1.181c0.01,0.141,0.03,0.29,0.04,0.431c0.101,0.16,0.07,0.37,0.18,0.52
		c0.561,3.26,0.931,6.54,1.021,9.851c0.11,0.17,0.1,0.34,0.01,0.52c-0.399,0.24-0.77,0.07-1.08-0.16
		C28.3,50.98,27.55,50.65,26.9,50.16z"/>
	<path fill="#D2AC80" d="M62.14,61.08c0.06,2.069,0.029,4.13,0.17,6.21c0.26,3.779-0.21,7.54-0.57,11.3
		c-0.03,0.36-0.02,0.72-0.07,1.07c-0.04,0.27,0.21,0.71-0.33,0.729c-0.449,0.021-0.81-0.18-0.819-0.67
		c-0.021-0.92,0-1.83,0.029-2.75c0.021-0.83,0.04-1.66-0.069-2.5c-0.11-0.77-0.25-1.71,0.89-2.04c0.3-0.09,0.46-0.439,0.4-0.79
		c-0.061-0.34-0.4-0.43-0.65-0.43c-0.85,0-0.95-0.53-0.81-1.15c0.62-2.66,0.51-5.35,0.39-8.04c-0.04-0.97,0.97-0.5,1.18-1.06
		C62.04,60.84,62.12,60.87,62.14,61.08z"/>
	<path fill="#D3AC80" d="M67.46,34.12c-1.239,3.89-1.609,7.93-1.979,11.96c-0.17,0.75-0.601,0.81-1.181,0.449
		C63.94,46.3,63.63,46.02,63.35,45.7c-0.07-0.11-0.101-0.221-0.101-0.351c0-0.189,0-0.37,0.01-0.56
		c0.101-0.87,0.061-1.78,0.58-2.561l0,0c0.221-0.34,0.131-0.68,0.03-1.029c-0.01-0.29-0.01-0.58-0.02-0.87
		c0.3-0.7-0.04-1.46,0.199-2.17c0.521-1.07-0.029-2.311,0.551-3.36c0.479-0.59,1.08-1.021,1.71-1.42
		c0.43-0.271,0.93-0.46,1.399-0.021c-0.02,0.08-0.04,0.16-0.06,0.24C67.53,33.76,67.57,33.97,67.46,34.12z"/>
	<path fill="#D3AC80" d="M31.91,39.56c-0.56-0.1-1.12-0.189-1.68-0.29c-0.42-0.66-0.021-1.18,0.41-1.55
		c0.83-0.71,1.609-1.5,2.609-2.01c3.5,0.189,7.01,0.109,10.5,0.28c1.95,1.039,4.09,1.21,6.23,1.289c1.75,0.07,3.52-0.01,5.21,0.521
		c1.03,0.33,2.18,0.63,2.399,1.99c-0.56,0.01-1.119,0.02-1.67,0.029c-0.77-0.569-1.68-0.84-2.59-0.79c-4,0.211-7.84-0.88-11.75-1.38
		c-2.26-0.29-4.53-0.659-6.78-0.09C33.64,37.87,32.34,38.13,31.91,39.56z"/>
	<path fill="#D3AC80" d="M46.33,40.03c-4.729,0.131-9.439-0.39-14.16-0.46c-0.069-0.75,0.5-1.04,1.011-1.329
		c1.1-0.62,2.319-0.931,3.56-0.9c3.67,0.1,7.3,0.63,10.87,1.5c0.56,0.14,1.35,0.229,1.11,1.189c-0.24,0-0.48,0-0.721,0
		c-0.319-0.13-0.63-0.119-0.95,0c-0.079,0-0.17,0-0.25-0.01C46.64,39.95,46.48,39.95,46.33,40.03z"/>
	<path fill="#D2AC80" d="M63.57,37.69c0,0.21-0.01,0.42-0.01,0.63c-0.221,0.74,0.05,1.511-0.16,2.24c0,0.32,0,0.641,0,0.97
		c0.16,1.32,0.24,2.641-0.48,3.851C62.53,49,62.1,52.63,62.14,56.28c0,0.23,0.159,0.681-0.311,0.58c-0.51-0.109-1.02-0.39-1-1.02
		c0.04-1.19,0.07-2.38,0.25-3.55c0.55-3.55,0.061-7.13,0.32-10.7c0.05-0.76,0-1.34,0.89-1.68c0.99-0.381,0.33-1.641,0.99-2.261
		C63.4,37.53,63.49,37.54,63.57,37.69z"/>
	<path fill="#D3AC80" d="M21.86,32.1c1.34,1.311,1.26,2.99,1.22,4.66c-0.01,0.56-0.359,0.4-0.649,0.24
		c-1.391-0.771-2.78-1.54-4.28-2.09c-0.46-0.17-0.63-0.561-0.62-1.051c0.02-0.64,0.06-1.279,0-1.909c-0.14-1.33,0.13-2.12,1.68-1.45
		c0.061,0.01,0.11,0.01,0.17,0.02C20.19,31.06,21.14,31.4,21.86,32.1z"/>
	<path fill="#D3AC80" d="M48.72,40.04c-0.801-1.351-2.28-1.11-3.471-1.351c-2.29-0.46-4.62-0.77-6.939-0.949
		c-2.24-0.171-4.5-0.12-6.141,1.84c-0.08,0-0.17-0.011-0.25-0.011c-0.8-0.59-0.149-0.979,0.261-1.239c1.29-0.83,2.68-1.33,4.25-1.37
		c4.239-0.101,8.34,0.88,12.479,1.569c1.93,0.32,3.9-0.199,5.82,0.36c0.54,0.16,1.12,0.24,1.2,0.96
		C53.53,40.15,51.12,40.11,48.72,40.04z"/>
	<path fill="#D3AC80" d="M29.98,70.08c-0.13,3.47-0.28,6.949-0.721,10.399c-0.09,0.681-0.439,1.101-1.189,1.04
		c-0.811-0.06-0.771-0.64-0.74-1.2c0.18-3.489,0.37-6.979,0.561-10.479C28.65,69.31,29.33,69.6,29.98,70.08z"/>
	<path fill="#D3AC80" d="M28.78,40.32c-1,0-1.521,0.96-2.41,1.181c-0.06-3.141-1.06-6.19-0.93-9.351c0.26-0.189,0.52-0.27,0.81-0.04
		c1.44-0.159,2.33,0.17,2.101,1.94C28.09,36.16,28.66,38.23,28.78,40.32z"/>
	<path fill="#784080" d="M29.08,31.92c-0.04-0.3-0.07-0.61-0.109-0.91c0.279-0.64,0.859-0.6,1.42-0.64
		c1.439-0.101,2.85,0.189,4.279,0.22c2.351,0.05,4.681-0.37,7.03-0.22c1.62,0.109,3.24,0.279,4.73,1.01
		c0.31,0.21,0.55,0.47,0.689,0.83c0,0.16-0.06,0.27-0.189,0.359c-1.94,0.21-3.881,0.23-5.83,0.11c-0.53-0.2-1.091-0.17-1.65-0.17
		c-1.65,0-3.29,0-4.94,0c-0.279,0-0.56,0-0.84,0.02C32.12,32.56,30.56,32.57,29.08,31.92z"/>
	<path fill="#D3AC80" d="M65.07,54.02c-0.34,3.19-0.15,6.38-0.08,9.57c-0.77-0.16-1.6,0.31-2.33-0.23
		c-0.02-3.699-0.29-7.399,0.19-11.1c0.39,0.49,0.77,0.97,1.46,1.08C64.66,53.41,64.97,53.62,65.07,54.02z"/>
	<path fill="#D3AC80" d="M57.59,39.8c-1.33-1.83-3.38-2.05-5.34-2.08c-2.479-0.04-4.91-0.22-7.33-0.76
		c-0.43-0.101-0.88-0.141-1-0.681C44,36.15,44.11,36.06,44.25,36c1.16-0.2,2.3-0.141,3.45,0.12c2.44,0,4.87-0.04,7.31,0.01
		c1.811,0.04,3.11,1.11,4.2,2.439c0.28,0.341,0.42,0.78,0.08,1.21C58.72,39.79,58.15,39.79,57.59,39.8z"/>
	<path fill="#D3AC80" d="M19.86,50.46c0.25,3.41,0.51,6.819,0.74,10.229c0.029,0.391-0.051,0.801-0.181,1.17
		c-0.09,0.261,0.28,0.87-0.37,0.74c-0.42-0.08-0.989-0.1-0.96-0.91c0.12-2.71-0.02-5.41-0.35-8.109
		c-0.25-2.061-0.46-4.12-0.67-6.181c-0.03-0.25-0.21-0.63,0.1-0.739c0.19-0.07,0.5,0.14,0.73,0.27
		C20.46,47.74,19.72,49.24,19.86,50.46z"/>
	<path fill="#D3AC80" d="M29.93,51.58c0.029-0.15,0.06-0.311,0.09-0.46c0.34,1.569,0.12,3.159,0.16,4.75
		c0.079,3.08,0.569,6.159,0.279,9.25c-0.04,0.39,0.07,0.8-0.189,1.159c-0.98-0.439-1.761-1.14-2.431-1.96
		c-0.43-1.579-0.359-3.189-0.229-4.8c0.25-0.939,0.72-1.689,1.62-2.149c0.55-0.28,0.43-0.86,0.439-1.37
		c-0.029-0.45-0.01-0.891-0.01-1.34c-0.04-0.41-0.02-0.811,0-1.221C29.64,52.81,29.53,52.16,29.93,51.58z"/>
	<path fill="#D3AC80" d="M62.65,76.32c-0.28-2.409,0.3-4.8,0.26-7.199c0.07-0.141,0.13-0.301,0.24-0.41
		c0.5-0.49,0.97-1.34,1.7-1.061c0.649,0.25,0.21,1.13,0.29,1.73c0.08,0.55-0.08,1.11,0.09,1.649c0.16,2.011,0.17,4.011,0,6.021
		c-0.271,0.96-0.54,1.07-1.34,0.53C63.4,77.24,63.02,76.79,62.65,76.32z"/>
	<path fill="#D3AC80" d="M16.75,43.59c-0.62-1.91-0.279-3.93-0.68-5.87c-0.53-2.57-0.37-5.18-0.45-7.78
		c-0.02-0.71-0.14-1.41,0.37-2.13c0.52-0.729-0.84-0.91-0.82-1.62c0.13-0.26,0.021-0.56,0.17-0.81c0.051-0.771,0.67-1.57,1.131-1.44
		c0.68,0.181,0.85,1,0.67,1.891c-0.561,2.77,0.109,5.62-0.271,8.39c-0.38,2.79,0.46,5.51,0.14,8.26
		C16.74,42.8,17.14,43.29,16.75,43.59z"/>
	<path fill="#7D4187" d="M47.04,32.16c-0.3-0.011-0.47-0.17-0.479-0.48c0.79-0.3,1.46,0.17,2.18,0.33c0.81,0.18,1.6,0.46,2.43,0.55
		c0.301,0.03,0.58,0.12,0.851,0.24c0.109,0.04,0.21,0.09,0.31,0.14c0.62,0.2,1.23,0.09,1.84-0.08c0.5-0.08,1-0.08,1.511-0.04
		c0.21,0.03,0.39,0.11,0.55,0.25c0.09,0.11,0.149,0.23,0.189,0.37c0.08,0.761,0.29,1.551-0.449,2.13c-0.73,0.2-1.48-0.05-2.211,0.15
		c-1.279,0-2.56,0-3.829,0.01c-0.58-1.25-1.79-1.95-2.65-2.96c-0.05-0.1-0.09-0.2-0.12-0.31C47.16,32.34,47.11,32.24,47.04,32.16z"
		/>
	<path fill="#D3AC80" d="M59.28,39.78c0.01-0.909-0.58-1.489-1.22-1.949c-1.391-1-2.82-1.801-4.7-1.62
		c-1.86,0.17-3.75,0.02-5.63,0.01c-0.061-0.11-0.03-0.17,0.09-0.2c4.78-0.01,9.56-0.029,14.35-0.04c0.42,0,0.811-0.08,0.57,0.62
		c-0.28,0.811-0.4,1.68-0.6,2.521c-0.091,0.38-0.36,0.47-0.721,0.489C60.71,39.66,59.99,39.73,59.28,39.78z"/>
	<path fill="#925894" d="M25.9,29.3c-0.15,0-0.3,0.01-0.45,0.01c-0.05-0.02-0.11-0.05-0.16-0.069c-0.7-0.711-1.89-1.051-1.79-2.37
		c0.12-0.061,0.24-0.08,0.38-0.04c1.851,1.26,3.86,1.79,6.11,1.649c3.99-0.239,7.97,0.19,11.96,0.261
		c2.55,0.039,5.07,0.56,7.5,1.359c2.76,0.9,5.34,0.86,7.57-1.29c0.229-0.229,0.5-0.399,0.85-0.38c0.69,0.41,0.25,0.82-0.07,1.13
		c-0.52,0.49-1.05,0.98-1.63,1.41c-1.91,1.13-3.92,1.18-6.01,0.61c-0.89-0.24-1.729-0.61-2.64-0.78c-1.96-0.57-3.94-0.93-5.98-0.93
		c-4.53,0.02-9.06-0.38-13.59-0.21c-0.28,0.01-0.56-0.061-0.82,0.09c-0.239-0.09-0.479-0.181-0.72-0.271
		C26.24,29.38,26.04,29.41,25.9,29.3z"/>
	<path fill="#834989" d="M51.36,32.88c-1.66-0.15-3.22-0.72-4.8-1.2c-2.92-0.96-5.88-1.17-8.94-0.76
		c-2.37,0.31-4.77-0.09-7.149-0.19c-0.521-0.02-1.04-0.01-1.5,0.28c-0.211-0.5-0.95-0.21-1.131-0.76
		c0.5-0.891,1.42-0.69,2.141-0.681c3.66,0.07,7.319,0.21,10.99,0.181c2.34-0.021,4.59,0.39,6.8,1.09
		c0.899,0.42,1.859,0.71,2.729,1.18C50.87,32.22,51.39,32.28,51.36,32.88z"/>
	<path fill="#572C60" d="M32.86,35.57c-0.94-0.109-1.89-0.189-2.83-0.329c-0.79-0.11-1.17-0.57-1-1.4c0.58-0.54,1.29-0.42,1.93-0.24
		c2.811,0.76,5.57,0.63,8.4-0.01c1.97-0.45,3.979-0.14,5.82,0.84c0.51,0.271,1.14,0.51,0.979,1.3c-0.41,0.4-0.91,0.221-1.38,0.23
		c-2.59-1.26-5.17-1.181-7.771,0.01C35.62,35.87,34.22,35.93,32.86,35.57z"/>
	<path fill="#D3AC80" d="M20.14,76.06c-1.391-0.09-1.96-0.58-1.801-2.2c0.341-3.239,0.351-6.51,0.17-9.779
		c-0.01-0.24-0.25-0.62,0.101-0.73c0.34-0.109,0.37,0.34,0.55,0.53c0.58,0.61,0.72,1.35,0.78,2.189c0.189,2.71,0.16,5.421-0.01,8.12
		c-0.03,0.54-0.171,1.12,0.229,1.62C20.3,75.9,20.3,75.99,20.14,76.06z"/>
	<path fill="#60306A" d="M46.09,35.72c-1-1.5-2.64-1.64-4.18-1.85c-1.17-0.16-2.41-0.15-3.56,0.229c-2.42,0.8-4.811,0.46-7.181-0.1
		c-0.72-0.17-1.42-0.141-2.14-0.17c-0.29-0.32-0.34-0.65-0.05-0.99c0.939-0.35,1.93-0.2,2.81,0.03c2.83,0.76,5.58,0.34,8.351-0.261
		c0.229-0.05,0.47-0.069,0.71-0.069c0.13,0.01,0.26,0.01,0.39,0c0.62,0.16,1.27,0.01,1.89,0.12c1.17,0.58,2.49,0.84,3.5,1.72
		c0.38,0.34,1,0.61,0.641,1.33l0.05,0.08C46.89,36.02,46.47,36.12,46.09,35.72z"/>
	<path fill="#D3AC80" d="M34.09,73.41c-0.54,0.01-1.09,0.02-1.63,0.04c-0.649,0.159-1.3,0.21-1.939-0.04
		c0.2-1.2,0.93-0.601,1.529-0.45c0.471-0.26,1.061,0.069,1.521-0.28c0.5-0.2,1.04,0.061,1.53-0.18c0.229,0.01,0.449,0.029,0.68,0.04
		c1.83-0.09,3.66,0.01,5.49-0.11c0.279-0.1,0.58-0.05,0.87-0.06c2.439-0.07,4.88,0.14,7.31-0.11c1.83-0.09,3.65-0.17,5.48-0.26
		c0.54-0.28,1.17,0.06,1.71-0.21c1.27-0.53,2.59-0.061,3.88-0.23c0.189-0.02,0.439,0.021,0.39,0.311
		c-0.06,0.35-0.33,0.399-0.64,0.38c-1.41,0.25-2.83,0.05-4.24,0.12c-0.43,0.02-0.87-0.08-1.29,0.08c-0.32,0.02-0.63,0.029-0.95,0.05
		c-0.96,0.29-1.96-0.07-2.91,0.2c-0.63,0.02-1.25,0.05-1.88,0.069c-1.609,0.17-3.22,0.03-4.819,0.08
		c-0.551,0.04-1.12-0.09-1.671,0.08c-1.529,0.11-3.06,0.22-4.59,0.32c-0.149-0.01-0.3-0.021-0.449-0.03
		C36.36,73.5,35.2,73.14,34.09,73.41z"/>
	<path fill="#D3AC80" d="M47.04,45.79c-1.67,0.52-3.37,0.26-5.06,0.26c-1.45-0.28-2.92,0.11-4.37-0.2c-2.15,0-4.3,0.01-6.45,0
		c-0.32,0-0.85,0.18-0.87-0.33c-0.02-0.64,0.58-0.399,0.91-0.399c5.2-0.011,10.4,0,15.6,0.01C47.03,45.29,47.31,45.44,47.04,45.79z"
		/>
	<path fill="#4B2753" d="M53.76,35.71c0.69-0.37,1.461,0,2.16-0.23c0.42-0.21,0.87-0.35,1.351-0.3c0.319,0,0.649-0.03,0.97,0
		c0.25,0,0.5-0.02,0.74,0c0.24,0,0.47-0.02,0.71-0.02c0.53-0.061,0.42-0.5,0.47-0.83c0.45-2.73,2.311-4.57,5.12-5.061
		c0.49,0.26,0.94,0.71,0.85,1.19c-0.12,0.62-0.83,0.439-1.319,0.51c-1.82,0.271-2.41,0.84-2.4,2.75c0.01,1.44-0.6,2-1.95,1.99
		C58.23,35.7,56,35.71,53.76,35.71z"/>
	<path fill="#8B518F" d="M48,31.2c-3.24-1.12-6.59-1.29-9.99-1.21c-3.09,0.069-6.18,0.01-9.26,0.02c-0.3,0-0.609,0.15-0.91,0.24
		l-0.01-0.01c-0.07-0.08-0.16-0.16-0.25-0.221c-0.149-0.09-0.31-0.189-0.46-0.279c-0.21-0.591,0.24-0.45,0.521-0.45
		c6.14,0,12.29-0.08,18.399,0.729c0.58,0.08,1.15,0.311,1.72,0.46C47.95,30.68,48.17,30.88,48,31.2z"/>
	<path fill="#683572" d="M41.03,32.67c-2.96,0.859-5.95,1.47-9.021,0.59c-1-0.29-2.069,0.05-3.039-0.42
		c0.029-0.311,0.069-0.62,0.1-0.93c1.51,0.08,3.02,0.17,4.53,0.25c0.199,0.189,0.449,0.229,0.72,0.229c1.57,0.01,3.13,0,4.7,0
		c0.62,0.05,1.25-0.11,1.859,0.13C40.93,32.58,40.98,32.63,41.03,32.67z"/>
	<path fill="#4B2853" d="M19.21,30.49c-1.75-1.061-2.09-2.54-1.479-4.431c0.149-0.46-0.09-1.09-0.271-1.6
		c-0.2-0.601,0.061-0.8,0.57-0.891c0.49,0.11,0.71,0.49,0.82,0.921c0.229,0.949,0.56,1.89,0.56,2.88
		c-0.08,0.64,0.771,0.699,0.8,1.279c0.13,0.771,0.721,1.48,0.28,2.311c-0.62,0.37-0.86-0.33-1.29-0.48L19.21,30.49z"/>
	<path fill="#D3AC80" d="M62.65,76.32c0.67,0.061,0.939,0.671,1.38,1.03c0.56,0.45,0.94,0.37,1.2-0.3c-0.2,1.29,0.35,2.7-0.63,3.86
		c-0.12,0.09-0.23,0.069-0.33-0.051c-0.5-0.649-1.511,0.261-1.86-0.5c-0.47-1,0-2.08,0.07-3.119C62.51,76.94,62.6,76.63,62.65,76.32
		z"/>
	<path fill="#D3AC80" d="M49.65,55.93c-0.311,0.49-0.84,0.35-1.101,0.14c-0.489-0.409-0.079-1.01-0.09-1.529
		c-0.239-0.38,0.03-0.851-0.21-1.24c0-0.18,0-0.35-0.01-0.53c0.28-0.529-0.06-1.149,0.21-1.68c0.09-0.86,0.19-1.72,0.28-2.58
		c0.149-0.22,0.06-0.5,0.149-0.73l0.061-0.029c0.37-0.17,0.649,0.01,0.899,0.26c0.15,0.95,0.301,1.9,0.061,2.86
		c-0.311,0.71,0.08,1.5-0.23,2.21c-0.01,0.13-0.01,0.26-0.02,0.39c-0.061,0.1-0.07,0.2-0.021,0.3c0,0.25,0,0.5-0.01,0.75
		C49.51,54.99,49.5,55.46,49.65,55.93z"/>
	<path fill="#D1AB7F" d="M22.65,52.98c0.2,0,0.41,0.03,0.6,0c1.601-0.319,1.78,0.65,1.67,1.84c-0.12,1.341-1.1,0.44-1.649,0.551
		c-0.59,0.109-1.25-0.13-1.88-0.16c-0.431-0.021-0.48-0.22-0.54-0.59C20.56,52.87,20.55,52.87,22.65,52.98z"/>
	<path fill="#D3AC80" d="M17.73,40.57c-0.141-1.46-0.3-2.92-0.391-4.38c-0.02-0.3-0.22-1,0.45-0.819
		c0.431,0.12,1.181,0.04,1.19,0.89c0.029,1.67,0.109,3.34,0.17,5C18.61,41.18,18.19,40.84,17.73,40.57z"/>
	<path fill="#D3AC80" d="M32.88,36.02c-0.22,0.7-0.819,1.03-1.38,1.391c-0.7,0.439-1.22,0.989-1.26,1.869
		c-1.73-0.38-1.12-1.819-1.16-2.84c-0.04-1.149,0.98-0.56,1.54-0.649c0.38-0.061,0.79,0.05,1.18,0.08
		c0.141,0.05,0.28,0.02,0.421,0.029C32.44,35.92,32.7,35.78,32.88,36.02z"/>
	<path fill="#D3AC80" d="M58.57,67.67c-1.561-0.17-3.08-0.49-4.58-0.96c-0.38-0.271-0.87,0.03-1.25-0.23
		c-0.31-0.09-0.61-0.17-0.92-0.26c-0.16-0.14-0.38-0.12-0.55-0.21l-0.061,0.02L51.15,66c-0.17-0.141-0.351-0.13-0.54-0.05
		c-0.07-0.04-0.13-0.08-0.2-0.131c-0.12-0.21-0.37-0.17-0.54-0.29c-0.31-0.149-0.62-0.329-0.95-0.449
		C48.64,64.98,48.06,65.48,48.08,64.9c0.021-0.62,0.84-0.35,1.05-0.279c3.19,1.06,6.58,1.409,9.69,2.729
		C58.85,67.55,58.67,67.57,58.57,67.67z"/>
	<path fill="#D3AC80" d="M67.7,33.37c-1.39-0.29-1.92,1.3-3.11,1.439c0.24-1.67,0.511-3.3,2.61-3.66c0.38-0.06,0.81-0.359,1.1-0.05
		c0.29,0.3,0.091,0.74-0.079,1.11C68.04,32.58,67.88,32.98,67.7,33.37z"/>
	<path fill="#D3AC80" d="M17.73,40.57c0.63-0.079,1.2-0.029,1.43,0.7c0.09,1.061,0.2,2.13,0.28,3.19
		c0.03,0.399-0.03,0.689-0.49,0.95c-0.9,0.51-1.24,0.479-1.18-0.67c0.06-1.15,0-2.301-0.011-3.45c-0.069-0.09-0.069-0.19,0-0.28
		C17.74,40.87,17.74,40.72,17.73,40.57z"/>
	<path fill="#181B1A" d="M51.13,57.54c-4.859-0.28-9.71-0.16-14.56,0.05c-1.39,0.06-2.79,0.12-4.17-0.23
		c0-0.069-0.01-0.14-0.01-0.22c0.05-0.05,0.1-0.1,0.149-0.149c0.58-0.33,1.21-0.19,1.83-0.19c0.351,0.08,0.7,0.07,1.05,0.07
		c1.08,0,2.15,0,3.23,0c0.939,0,1.88,0,2.81,0c0.71,0,1.42,0,2.141,0c0.35,0,0.71,0,1.06,0c0.42,0,0.85,0,1.271,0c1,0,2,0,3,0
		c0.5,0,1,0,1.5,0c1.27,0,2.529,0,3.8,0c0.47,0.01,0.95-0.03,1.42,0.05c0.13,0.05,0.229,0.13,0.29,0.26c0,0.05,0,0.11,0,0.16
		c-0.88,0.07-1.771,0.14-2.65,0.21C52.56,57.42,51.85,57.45,51.13,57.54z"/>
	<path fill="#D3AC80" d="M59.01,49.71c-0.43,0.01-0.84-0.061-1.21-0.3c-0.14-0.11-0.3-0.091-0.46-0.051
		c-1.63-0.369-3.26-0.72-4.88-1.109c-0.609-0.15-1.25-0.3-1.58-0.95c-0.149-0.17-0.13-0.34,0.011-0.51
		c3.13,1.229,6.479,1.689,9.63,2.83c0.01,0.47-0.25,0.449-0.57,0.31c-0.14-0.01-0.28-0.02-0.42-0.02
		C59.39,49.78,59.17,49.81,59.01,49.71z"/>
	<path fill="#552B5E" d="M65.28,29.28c-1.021,0.83-2.45,0.961-3.34,2.011c-0.851,0.989-1.53,2.04-1.46,3.42
		c0.02,0.53-0.12,0.859-0.73,0.8c-0.3-0.29-0.47-0.64-0.46-1.06c0.05-2.66,3.32-5.82,5.351-5.671
		C64.86,28.94,65.07,29.11,65.28,29.28z"/>
	<path fill="#D3AC80" d="M26.25,32.12c-0.27,0.01-0.54,0.029-0.81,0.04c-0.021-0.92-0.931-0.94-1.42-1.391
		c-0.2-0.18-0.55-0.27-0.45-0.609c0.09-0.301,0.4-0.341,0.68-0.381c1.521-0.21,2.83,0.16,3.82,1.4c0.14,0.17,0.15,0.33-0.01,0.49
		C27.43,31.71,26.78,31.65,26.25,32.12z"/>
	<path fill="#D3AC80" d="M29.93,51.58c0,0.64,0.01,1.279,0.01,1.92c-0.99,0.21-1.86-0.28-2.79-0.46c-0.09-0.96-0.17-1.92-0.26-2.88
		C28.22,49.98,28.77,51.44,29.93,51.58z"/>
	<path fill="#37312B" d="M44.85,61.96c-4.25,0.399-8.511,0.22-12.761,0.17c-0.77-0.01-1.04,0.18-1,0.97
		c0.04,0.9-0.05,1.811-0.09,2.72c-0.37-3.93-0.37-3.92,3.48-3.939c0.42,0,0.87,0.13,1.26-0.15c2.97-0.09,5.95-0.17,8.92-0.26
		C44.72,61.64,44.78,61.8,44.85,61.96z"/>
	<path fill="#D3AC80" d="M45.59,66.2c0.311-1.261,0.391-2.49,0.21-3.73c-0.04-0.3-0.079-0.57,0.351-0.57c0.31,0,0.58,0.08,0.6,0.431
		c0.061,1.699,0.11,3.399,0.141,5.1c0,0.21,0.02,0.51-0.341,0.521c-0.31,0.01-0.569-0.091-0.659-0.4
		C45.78,67.1,45.69,66.63,45.59,66.2z"/>
	<path fill="#D3AC80" d="M63.4,45.6c0.439,0.021,0.689,0.36,0.95,0.641c0.46,0.489,0.81,0.3,1.13-0.15
		c-0.021,1.13,0.29,2.27-0.24,3.36c-1.44,0.06-1.98-0.431-2-1.82C63.31,46.95,63.08,46.25,63.4,45.6z"/>
	<path fill="#5D2F65" d="M64.64,28.77c-2.351,1.021-4.29,2.41-4.96,5.101c-0.15,0.609,0.13,1.09,0.069,1.63c-0.24,0-0.479,0-0.72,0
		c-0.521-0.73-0.43-1.561-0.18-2.3c0.779-2.301,2.33-3.95,4.59-4.9c0.14-0.06,0.3-0.09,0.46,0c0.07,0,0.13-0.01,0.2-0.03
		C64.28,28.44,64.46,28.6,64.64,28.77z"/>
	<path fill="#804B80" d="M20.19,22.39c0.229-0.02,0.46-0.04,0.689-0.05c0.681,0.729,0.74,1.729,1.13,2.59
		c0.24,0.54,0.45,1.1,0.75,1.61C23.19,27.9,23.86,29,25.44,29.22l0.01,0.09c-0.69,0.311-1.43,0.11-2.14,0.22
		c-0.301,0.2-0.551,0.07-0.7-0.189c-1.11-1.98-2.101-4-2.521-6.25C20.04,22.85,20.09,22.62,20.19,22.39z"/>
	<path fill="#724175" d="M20.19,22.39c0.5,2.34,1.43,4.51,2.56,6.61c0.141,0.26,0.23,0.5,0.55,0.529
		C22.92,30.2,22.32,29.67,21.85,29.8c-0.141-0.13-0.15-0.33-0.24-0.5c-0.17-0.25-0.41-0.45-0.51-0.75
		c-0.57-1.53-1.08-3.08-1.471-4.66c-0.1-0.41-0.35-0.82-0.149-1.27C19.71,22.55,19.95,22.47,20.19,22.39z"/>
	<path fill="#D3AC80" d="M65.07,54.02c-0.36-0.16-0.73-0.47-1.08-0.45c-1.05,0.091-1.17-0.51-1.14-1.3
		c0.029-0.72-0.091-1.45,0.25-2.14c0.54,0.75,1.5,0.86,2.14,1.46C65.27,52.41,65.37,53.23,65.07,54.02z"/>
	<path fill="#70397A" d="M47.28,32.41c0.74,0.689,1.479,1.38,2.21,2.09c0.33,0.319,0.71,0.66,0.44,1.22
		c-0.48,0-0.971,0.01-1.45,0.01c-0.891-0.649-1.62-1.5-2.561-2.09c-0.26-0.16-0.479-0.43-0.34-0.8c0.43-0.36,0.97-0.09,1.44-0.25
		C47.11,32.54,47.2,32.48,47.28,32.41z"/>
	<path fill="#D3AC80" d="M17.59,49.24c0.591,2.84,0.69,5.72,0.9,8.6c-0.61,0.14-0.39-0.521-0.68-0.7c-0.45-2.39-0.57-4.81-0.49-7.24
		C17.52,49.72,17.22,49.34,17.59,49.24z"/>
	<path fill="#D3AC80" d="M29.98,70.08c-0.7-0.08-1.4-0.16-2.09-0.24c0.01-0.25,0.029-0.5,0.04-0.75c0.029-0.55,0.109-1.1-0.04-1.64
		c0-0.24,0-0.48,0-0.721c0.84,0.03,1.54,0.54,2.34,0.71C30.14,68.32,30.06,69.2,29.98,70.08z"/>
	<path fill="#D3AC80" d="M47.53,71.46c0-0.13-0.01-0.271-0.01-0.41c0.2-0.35,0.149-0.69,0-1.04c0-0.37,0.01-0.73,0.02-1.09
		c0.17-0.271,0.08-0.57,0.101-0.86c0-0.24-0.011-0.47,0.08-0.7c0.109-0.52-0.351-1.149,0.3-1.569c0.569,0.06,0.56,0.529,0.67,0.93
		c0.02,0.48,0.04,0.96,0.06,1.45c0.12,0.2,0.07,0.42,0.08,0.63c0,0.22-0.01,0.43,0.101,0.63v0.1c-0.131,0.23-0.101,0.48-0.101,0.721
		c0,0.31,0.04,0.62-0.12,0.91V71.15C48.58,71.72,48.37,71.77,47.53,71.46z"/>
	<path fill="#1C1E1C" d="M30.75,51.77c3.71-0.069,7.42-0.14,11.13-0.2c0.44-0.01,0.88,0.03,1.311,0.04
		c-0.08,0.141-0.16,0.28-0.24,0.42c-0.32,0.421-0.79,0.28-1.21,0.29c-1.73,0.051-3.47-0.069-5.2,0.07
		c-0.72,0.14-1.46-0.04-2.17,0.16c-0.29,0-0.59,0.02-0.79-0.26C32.73,51.68,31.59,52.56,30.75,51.77z"/>
	<path fill="#D3AC80" d="M47.04,51.82c-0.729-1.409,0.01-2.869-0.13-4.31c-0.03-0.29-0.4-0.8,0.08-1.12
		c0.31,0.17,0.74-0.18,0.99,0.24c0.21,1.76-0.07,3.479-0.471,5.189C47.36,51.98,47.2,51.98,47.04,51.82z"/>
	<path fill="#D3AC80" d="M30.22,67.45c-0.971,0.39-1.62-0.28-2.341-0.71c-0.02-0.551-0.04-1.11-0.06-1.66
		c-0.11-0.181-0.12-0.351,0.01-0.53c-0.02-0.08-0.02-0.15,0-0.23c0.96,0.471,1.76,1.141,2.43,1.96
		C30.25,66.67,30.23,67.06,30.22,67.45z"/>
	<path fill="#D3AC80" d="M48.75,42.97c-0.029-0.16-0.05-0.32-0.08-0.49c-0.109-0.41-0.06-0.819-0.029-1.229
		c0.02-0.53,0.26-0.75,0.819-0.73c0.55,0.01,0.431,0.44,0.58,0.721c0.22,0.43,0.03,0.84-0.05,1.26c0.12,0.31,0.05,0.64,0.07,0.96
		c0.05,0.319-0.521,0.569-0.12,0.939c0.02,0.73,0.42,1.591-0.681,1.91c-0.039-0.03-0.09-0.06-0.13-0.09
		c-0.189-0.26-0.08-0.64-0.35-0.86c-0.01-0.08-0.01-0.17-0.021-0.25c0.301-0.319,0.301-0.63,0.011-0.96c0-0.08,0-0.17,0-0.25
		C49.02,43.6,49.02,43.29,48.75,42.97z"/>
	<path fill="#D3AC80" d="M65.24,51.6c-0.84-0.3-2.01-0.12-2.14-1.46c0.02-0.76,0.04-1.52,0.06-2.27
		c0.01-0.141,0.07-0.181,0.19-0.101c-0.04,1.32,1.239,1.15,1.89,1.69C65.24,50.16,65.24,50.88,65.24,51.6z"/>
	<path fill="#D3AC80" d="M29.98,56.14c0.1,0.8,0.05,1.48-0.95,1.72c-0.83,0.2-0.79,1.24-1.43,1.66c-0.07-1.12-0.141-2.24-0.2-3.359
		C28.26,55.91,29.12,55.58,29.98,56.14z"/>
	<path fill="#D3AC80" d="M62.66,63.36c0.76,0.271,1.64-0.76,2.33,0.23C65,64.07,65,64.56,65.01,65.04
		c-0.64,0.529-1.409,0.75-2.17,1.01C62.47,65.17,62.62,64.26,62.66,63.36z"/>
	<path fill="#D3AC80" d="M24.99,66.7c-0.75-0.74-1.79-0.94-2.69-1.4c-0.77-0.64-2.069-0.521-2.47-1.69
		c-0.03-0.17,0.04-0.27,0.21-0.29c1.7,0.631,3.19,1.7,4.931,2.271C25.49,65.77,25.68,66.31,24.99,66.7z"/>
	<path fill="#D3AC80" d="M65.24,71.03c-0.41-0.829-0.12-1.72-0.21-2.579c-0.03-0.23,0.08-0.561-0.2-0.62
		c-0.17-0.04-0.41,0.16-0.59,0.29c-0.45,0.319-0.89,0.659-1.33,0.989c-0.01-0.64-0.01-1.279-0.02-1.92
		c0.609-0.56,1.18-1.199,2.14-0.96C65.1,67.84,65.17,69.44,65.24,71.03z"/>
	<path fill="#D3AC80" d="M29.98,56.14c-0.86-0.21-1.721,0.46-2.59,0.021c-0.011-0.561-0.011-1.12-0.021-1.69
		c0.91-0.57,1.771-0.46,2.57,0.22C29.96,55.18,29.97,55.66,29.98,56.14z"/>
	<path fill="#683471" d="M45.61,32.91c0.83,1.069,2.38,1.399,2.87,2.81c-0.4,0-0.8,0-1.21,0.01c-0.471-1.29-1.69-1.62-2.761-2.14
		c-0.439-0.21-1.029-0.16-1.3-0.69C44.01,32.53,44.81,32.43,45.61,32.91z"/>
	<path fill="#D3AC80" d="M45.12,68.86c-0.149,0.021-0.31,0.04-0.46,0.061c-0.65,0.17-1.32,0.04-1.979,0.08c-1.83,0-3.65,0-5.48,0
		c-0.479,0.05-0.979-0.12-1.45,0.12c-1.609-0.15-3.189,0.449-4.81,0.199c-0.07-0.09-0.07-0.18,0-0.27c0.359-0.25,0.78-0.1,1.17-0.18
		c0.09-0.03,0.18-0.07,0.27-0.12c1.29-0.08,2.58-0.16,3.87-0.24c2.9,0.05,5.8-0.01,8.69,0.03C45.14,68.58,45.19,68.69,45.12,68.86z"
		/>
	<path fill="#D3AC80" d="M35.5,55.98c3.3-0.16,6.601-0.3,9.9-0.479c0.38-0.021,0.54,0.149,0.55,0.439c0.01,0.37-0.33,0.25-0.53,0.25
		C42.11,56.2,38.81,56.2,35.5,56.2c-0.05-0.051-0.06-0.101-0.05-0.15S35.49,55.98,35.5,55.98z"/>
	<path fill="#5A305F" d="M19.21,27.56c-0.39-1.33-0.319-2.79-1.18-3.979c0.16-0.17,0.32-0.351,0.479-0.521
		c0.16-0.06,0.32-0.13,0.471-0.189c0.26,0.13,0.46,0.359,0.5,0.63c0.24,1.5,1.06,2.899,0.819,4.49
		C19.73,28.36,19.54,27.78,19.21,27.56z"/>
	<path fill="#5A3062" d="M22.07,29.28C22,29.45,21.92,29.63,21.85,29.8c-0.23,0.71,0.659,1.42,0.01,2.13
		c-0.51-0.28-1.24-0.229-1.46-0.97c-0.16-0.82-0.32-1.641-0.47-2.46c0.09-0.05,0.189-0.08,0.3-0.07c0.16,0.021,0.31,0.07,0.46,0.12
		C21.17,28.75,21.54,29.16,22.07,29.28z"/>
	<path fill="#D3AC80" d="M29.94,54.7c-0.86-0.07-1.71-0.15-2.57-0.221C27.3,54,27.22,53.52,27.15,53.04
		c1.02-0.4,1.87,0.229,2.79,0.47C29.94,53.9,29.94,54.3,29.94,54.7z"/>
	<path fill="#171918" d="M32.88,36.02c-0.35-0.05-0.689-0.1-1.04-0.149l0.051-0.061c0.319-0.08,0.649-0.16,0.97-0.24
		c1.45,0.061,2.899,0.11,4.34,0.171c1.73-0.351,3.48-0.011,5.22-0.12c0.57,0.199,1.38-0.28,1.721,0.59
		c-0.08,0.02-0.15,0.05-0.23,0.08C40.24,36.19,36.56,36.11,32.88,36.02z"/>
	<path fill="#D3AC80" d="M36.43,52.27c2.159-0.399,4.359-0.08,6.529-0.25c0.681,0.021,1.36,0.021,2.03,0.05
		c0.26,0.011,0.69-0.119,0.72,0.171c0.03,0.399-0.41,0.25-0.649,0.25c-1.75,0.02-3.511,0.02-5.261,0.029
		C38.7,52.23,37.53,52.69,36.43,52.27z"/>
	<path fill="#CDA980" d="M64.62,32.17c-0.27,0.87-0.54,1.75-0.81,2.62C63.74,34.9,63.65,35,63.63,35.14
		c-0.02,0.561-0.42,0.5-0.6,0.22c-0.59-0.92,0.45-3.529,1.5-3.89C64.76,31.68,64.67,31.93,64.62,32.17z"/>
	<path fill="#D3AC80" d="M65.04,66.24c-0.71,0.319-1.43,0.64-2.14,0.96c-0.021-0.381-0.03-0.771-0.05-1.15
		c0.52-0.79,1.35-0.88,2.17-1.01C65.02,65.44,65.03,65.84,65.04,66.24z"/>
	<path fill="#21221F" d="M32.38,56.86C31.95,56.33,31.14,57,30.76,56.34c1.28-0.21,2.551-0.41,3.811,0.1
		c1.76,0.471,3.56,0.021,5.33,0.24c-0.3,0.65-0.88,0.19-1.311,0.32c-1.06,0-2.109,0-3.17,0c-0.35,0-0.689,0-1.04,0
		c-0.609-0.01-1.22,0.02-1.83-0.021C32.49,56.94,32.43,56.9,32.38,56.86z"/>
	<path fill="#28231D" d="M63.35,47.75c-0.061,0.04-0.13,0.069-0.19,0.1c-0.21-0.82,0.21-1.689-0.24-2.49
		c0.16-1.279,0.32-2.569,0.48-3.85c0.149,0.24,0.29,0.48,0.439,0.72c-0.08,0.95-0.17,1.9-0.26,2.84
		c-0.06,0.091-0.12,0.181-0.18,0.271c0,0.08,0,0.16-0.01,0.24C63.38,46.32,63.37,47.03,63.35,47.75z"/>
	<path fill="#D3AC80" d="M20.92,46.54c0.92,0.359,1.84,0.72,2.75,1.09c0.29,0.12,0.46,0.39,0.311,0.67
		c-0.17,0.32-0.4,0.04-0.59-0.05c-0.83-0.37-1.66-0.74-2.49-1.101c-0.07-0.159-0.25-0.239-0.311-0.409
		C20.62,46.55,20.69,46.4,20.92,46.54z"/>
	<path fill="#D3AC80" d="M34.56,56.44c-1.271-0.029-2.54-0.069-3.811-0.1c0.26-0.771,0.88-0.311,1.32-0.33
		c1.14-0.06,2.29-0.02,3.43-0.02c0.01,0.069,0.021,0.149,0.01,0.22C35.25,56.51,34.87,56.31,34.56,56.44z"/>
	<path fill="#D3AC80" d="M49.4,56.68c2.31-0.01,4.62-0.03,6.93-0.04c0.25,0,0.5,0.08,0.75,0.12c-0.14,0.3-0.43,0.3-0.7,0.34
		c-0.159,0.03-0.31,0.05-0.47,0.08l-0.01-0.11c-0.53-0.18-1.07-0.04-1.61-0.09c-1.26,0-2.53,0-3.79,0
		C50.14,56.88,49.63,57.27,49.4,56.68z"/>
	<path fill="#D3AC80" d="M45.09,68.65c-2.939-0.109-5.89,0.17-8.83-0.149c2.961-0.23,5.921-0.08,8.881-0.07
		C45.2,68.52,45.18,68.6,45.09,68.65z"/>
	<path fill="#D3AC80" d="M47.54,44.39c-0.569-1.16-0.189-2.42-0.35-3.62c-0.03-0.21-0.021-0.42,0.26-0.41
		c0.26,0,0.43,0.11,0.43,0.42c0,0.421,0.03,0.841,0.051,1.261c-0.131,0.76,0.01,1.529-0.08,2.29
		C47.77,44.47,47.67,44.49,47.54,44.39z"/>
	<path fill="#D3AC80" d="M46.04,71.01c-0.09,0-0.13-0.05-0.12-0.14c0.03-0.13,0-0.24-0.1-0.33c-0.23-0.391-0.37-0.811,0.01-1.15
		c0.141-0.13,0.48-0.17,0.68-0.11C47.03,69.45,46.77,69.96,46.8,70.3c0.04,0.37-0.109,0.76-0.18,1.14
		C46.27,71.51,46.22,71.17,46.04,71.01z"/>
	<path fill="#31292E" d="M44.15,36.2c-0.521-0.41-1.141-0.091-1.69-0.23c0.63-1.02,1.431-0.44,2.19-0.229
		c0.479-0.011,0.97-0.021,1.45-0.03c0.409,0.03,0.819,0.06,1.229,0.09c0.17,0.07,0.33,0.14,0.5,0.21c-0.03,0.07-0.06,0.13-0.09,0.2
		C46.53,36.22,45.34,36.21,44.15,36.2z"/>
	<path fill="#D3AC80" d="M43.7,57.07c-0.729,0-1.46,0.011-2.19,0.011c-0.13-0.13-0.13-0.271-0.01-0.41c1.44,0,2.88,0,4.33,0
		c0.16,0.13,0.16,0.26-0.01,0.39c-0.4,0.01-0.8,0.01-1.2,0.021C44.31,56.95,44,56.96,43.7,57.07z"/>
	<path fill="#D3AC80" d="M33.6,52.29c0.239,0.029,0.489,0.05,0.729,0.08c0.16,0.13,0.43,0,0.55,0.239
		c-1.17,0.36-2.38,0.17-3.569,0.19c-0.141,0-0.391-0.08-0.391-0.13c-0.01-0.29,0.23-0.25,0.42-0.26
		C32.09,52.36,32.84,52.32,33.6,52.29z"/>
	<path fill="#D3AC80" d="M49.44,72.25c-1.8,0.52-3.641,0.1-5.45,0.22c-0.68,0.04-1.36,0-2.04-0.01c-0.06-0.101-0.03-0.17,0.08-0.21
		C44.5,72.25,46.97,72.25,49.44,72.25z"/>
	<path fill="#D3AC80" d="M22.82,45.58c-0.57,0-1.17,0.26-1.7-0.181c-0.08-0.109-0.26-0.149-0.2-0.34
		c0.801-0.35,1.63-0.149,2.45-0.149c0.28,0,0.42,0.199,0.16,0.47C23.33,45.56,23.02,45.39,22.82,45.58z"/>
	<path fill="#D3AC80" d="M48.94,63.15c-0.01,0.141-0.021,0.29-0.03,0.431c-0.17,0.25-0.51,0.04-0.7,0.239
		c-0.13,0.08-0.26,0.171-0.39,0.25c-0.29-0.13-0.15-0.38-0.18-0.579c0.05-0.37,0.39-0.7,0.14-1.11c-0.1-0.5,0.229-0.53,0.56-0.48
		c0.62,0.091,0.261,0.63,0.4,0.95C48.8,62.96,48.88,63.05,48.94,63.15z"/>
	<path fill="#D3AC80" d="M36.95,68.88c1.93,0,3.85,0,5.78,0c0.069,0.07,0.09,0.12,0.05,0.16c-0.03,0.029-0.07,0.05-0.1,0.05
		c-1.9,0-3.801,0-5.7,0c-0.101-0.03-0.13-0.07-0.11-0.12C36.9,68.91,36.93,68.88,36.95,68.88z"/>
	<path fill="#D3AC80" d="M34.88,52.6c-0.18-0.08-0.359-0.16-0.55-0.24c0.7-0.029,1.4-0.06,2.101-0.09
		c1.109,0.221,2.279-0.3,3.369,0.26C38.16,52.55,36.52,52.58,34.88,52.6z"/>
	<path fill="#D3AC80" d="M41.27,72.51c-1.83,0.37-3.66,0.3-5.5,0.03c0.399-0.03,0.79-0.07,1.189-0.101c1.2-0.13,2.391-0.13,3.59,0
		c0.16,0,0.33,0,0.49,0C41.15,72.37,41.23,72.39,41.27,72.51z"/>
	<path fill="#D3AC80" d="M54.74,72.44c1.83-0.43,3.68-0.09,5.52-0.199c-1.09,0.52-2.26,0.1-3.38,0.279
		C56.17,72.5,55.46,72.47,54.74,72.44z"/>
	<path fill="#AA9071" d="M26.16,49.72c-0.6-1.71-0.07-3.47-0.22-5.2C26.4,46.24,26.05,47.99,26.16,49.72z"/>
	<path fill="#D3AC80" d="M45.81,57.06c0-0.13,0.01-0.26,0.01-0.39c0.67,0,1.34,0.01,2.01,0.01c0.33,0.28,0.96-0.26,1.15,0.42
		C47.92,57.09,46.87,57.08,45.81,57.06z"/>
	<path fill="#D3AC80" d="M46.65,54.74c-1.04-0.131-0.2-0.86-0.4-1.261c0.12-0.33,0.32-0.39,0.59-0.17
		C47.15,53.83,47.15,54.32,46.65,54.74z"/>
	<path fill="#D3AC80" d="M17.81,57.14c0.52-0.06,0.34,0.58,0.68,0.7c-0.02,0.55-0.04,1.11-0.07,1.66c-0.05,0.13-0.1,0.14-0.17,0.01
		C18.02,58.74,17.8,57.96,17.81,57.14z"/>
	<path fill="#D3AC80" d="M22.84,46.04c0.44,0.029,0.94-0.2,0.94,0.479c0,0.23,0.04,0.51-0.36,0.34
		c-0.47-0.199-0.939-0.399-1.41-0.59C22.23,45.84,22.65,46.25,22.84,46.04z"/>
	<path fill="#D3AC80" d="M41.49,56.67c0,0.14,0.01,0.28,0.01,0.41c-0.97,0-1.95,0-2.92,0.01c-0.06-0.08-0.06-0.15,0.03-0.21
		c0.43-0.07,0.85-0.14,1.28-0.21C40.43,56.67,40.96,56.67,41.49,56.67z"/>
	<path fill="#D3AC80" d="M37.61,45.85c1.45,0.101,2.93-0.26,4.37,0.2C40.52,46.04,39.05,46.27,37.61,45.85z"/>
	<path fill="#2A2323" d="M20.4,30.96c0.49,0.319,0.97,0.649,1.46,0.97c0,0.061,0,0.11,0,0.16c-1.03-0.311-2-0.71-2.67-1.61
		C19.59,30.64,20,30.8,20.4,30.96z"/>
	<path fill="#AF9171" d="M25.68,42.27c-0.53-1.37-0.11-2.79-0.24-4.18C25.88,39.46,25.6,40.88,25.68,42.27z"/>
	<path fill="#D3AC80" d="M26.64,78.28c0.1-1.369-0.24-2.76,0.21-4.119C26.8,75.54,27.11,76.93,26.64,78.28z"/>
	<path fill="#D3AC80" d="M49.85,48.01c-0.301-0.09-0.601-0.17-0.9-0.26c-0.06-0.561-0.13-1.11-0.19-1.67
		c0.19-0.07,0.29,0.029,0.341,0.199c0.04,0.03,0.08,0.04,0.13,0.04C48.78,47.13,49.98,47.33,49.85,48.01z"/>
	<path fill="#D3AC80" d="M17.07,43.42c0.4,0.78,0.09,1.62,0.21,2.42c-0.06,0.11-0.13,0.11-0.2,0.01c0.01-0.67-0.53-1.26-0.25-1.96
		C16.98,43.77,16.85,43.5,17.07,43.42z"/>
	<path fill="#2B2C2B" d="M40.55,72.44c-1.199,0-2.39,0-3.59,0"/>
	<path fill="#D3AC80" d="M48.98,57.11c-0.38-0.14-0.771-0.279-1.15-0.42c0.53,0,1.05,0,1.58,0c0.33,0.07,0.67,0.141,1,0.21
		c0.07,0.04,0.1,0.08,0.08,0.12s-0.04,0.07-0.07,0.07C49.94,57.09,49.46,57.1,48.98,57.11z"/>
	<path fill="#D0B18C" d="M47.52,55.64c0.02,0.311,0.029,0.55-0.311,0.57c-0.279,0.01-0.439-0.11-0.43-0.41
		c0.01-0.31,0.13-0.56,0.45-0.58C47.62,55.17,47.46,55.52,47.52,55.64z"/>
	<path fill="#1C1E1C" d="M44.16,51.63c0.59-0.33,1.48,0.479,1.91-0.49c0.4,0.39,0.24,0.67-0.23,0.68
		C45.28,51.83,44.68,52.03,44.16,51.63z"/>
	<path fill="#D3AC80" d="M17.08,45.85c0.07,0,0.141,0,0.2-0.01c0.06,0.49,0.11,0.979,0.17,1.47c-0.05,0.101-0.06,0.24-0.21,0.26
		C16.91,47.02,17.05,46.43,17.08,45.85z"/>
	<path fill="#030E08" d="M23.59,52.62c-0.29-0.07-0.54-0.12-0.79-0.181c0.101-0.27,0.36-0.29,0.561-0.27
		c0.29,0.04,0.58,0.16,0.87,0.24C24.01,52.48,23.79,52.55,23.59,52.62z"/>
	<path fill="#D3AC80" d="M50.9,46.8c0,0.17-0.01,0.34-0.01,0.51c-0.341-0.12-0.931-0.13-0.82-0.569
		C50.17,46.35,50.62,46.54,50.9,46.8z"/>
	<path fill="#D3AC80" d="M47.74,44.38c0.14-0.771-0.2-1.58,0.19-2.33c0.01,0.79,0.01,1.58,0.02,2.36
		C47.86,44.5,47.79,44.49,47.74,44.38z"/>
	<path fill="#BA8E59" d="M26.85,58.31c-0.431-0.79-0.11-1.649-0.2-2.47C27.11,56.63,26.82,57.48,26.85,58.31z"/>
	<path fill="#D3AC80" d="M32.39,68.74c-0.021,0.05-0.04,0.109-0.051,0.17c-0.42,0.25-0.939-0.08-1.359,0.22
		c-0.021,0.06-0.03,0.13-0.03,0.189c-0.33-0.319-0.44-0.609,0.17-0.64C31.54,68.64,31.97,68.71,32.39,68.74z"/>
	<path fill="#28231D" d="M63.4,40.56c0.01-0.75-0.23-1.52,0.16-2.24C63.54,39.06,63.8,39.83,63.4,40.56z"/>
	<path fill="#28231D" d="M64.04,38.16c-0.01,0.729,0.2,1.479-0.2,2.17C63.91,39.61,63.63,38.86,64.04,38.16z"/>
	<path fill="#D3AC80" d="M20.92,46.54c-0.09,0.08-0.18,0.16-0.27,0.239c-0.22,0.211-0.47,0.16-0.71,0.051
		c-0.09-0.09-0.181-0.19-0.271-0.28c0.11-0.05,0.17-0.14,0.23-0.24C20.23,46.4,20.64,46.19,20.92,46.54z"/>
	<path fill="#D3AC80" d="M42.69,69.09c0.02-0.07,0.03-0.14,0.05-0.21c0.64,0.01,1.29,0.02,1.93,0.03
		C44.03,69.26,43.35,69.09,42.69,69.09z"/>
	<path fill="#D3AC80" d="M45.35,68.43c0.3-0.02,0.83-0.15,0.83,0.15c0,0.52-0.53,0.22-0.83,0.279
		C45.22,68.72,45.22,68.58,45.35,68.43z"/>
	<path fill="#D3AC80" d="M48.75,42.97c0.271,0,0.44,0.11,0.45,0.41c0.01,0.32-0.09,0.53-0.45,0.53
		C48.74,43.6,48.74,43.29,48.75,42.97z"/>
	<path fill="#D3AC80" d="M30.52,73.41c0.649,0.01,1.29,0.029,1.939,0.04c-0.02,0.069-0.05,0.149-0.069,0.22
		C31.77,73.56,31.07,73.98,30.52,73.41z"/>
	<path fill="#D3AC80" d="M48.74,44.17c0.27,0.01,0.44,0.12,0.45,0.42c0.01,0.33-0.11,0.53-0.46,0.54
		C48.73,44.8,48.73,44.48,48.74,44.17z"/>
	<path fill="#030E08" d="M30.77,72.24c0.62,0.01,1.25,0.01,1.87,0.02C32.01,72.59,31.39,72.65,30.77,72.24z"/>
	<path fill="#D3AC80" d="M27.88,67.45c0.311,0.54,0.29,1.09,0.04,1.64C27.91,68.54,27.9,68,27.88,67.45z"/>
	<path fill="#DCAE69" d="M48.74,45.37c0.67,0.09,0.44,0.529,0.36,0.909c-0.11-0.069-0.221-0.13-0.341-0.199"/>
	<path fill="#D3AC80" d="M17.25,47.57c0.07-0.09,0.141-0.17,0.21-0.26c0.03,0.55,0.05,1.101,0.08,1.65
		c-0.069,0.12-0.16,0.12-0.24,0.02C17.28,48.5,17.26,48.03,17.25,47.57z"/>
	<path fill="#D3AC80" d="M49.88,43.66c0.03-0.391,0.061-0.771,0.08-1.16c0.28,0.54,0.29,1.09,0.04,1.64
		C49.79,44.03,49.78,43.86,49.88,43.66z"/>
	<path fill="#D3AC80" d="M62.14,61.08c-0.091-0.04-0.17-0.07-0.261-0.11c0.051-0.5,0.11-1,0.17-1.51
		C62.08,60,62.11,60.54,62.14,61.08z"/>
	<path fill="#030E08" d="M35.09,72.5c-0.46,0.35-1.02,0.1-1.52,0.25c-0.11,0.08-0.18,0.06-0.22-0.07
		C33.9,72.3,34.51,72.52,35.09,72.5z"/>
	<path fill="#030E08" d="M56.63,71.78C56.1,72.2,55.49,71.92,54.92,71.99C55.45,71.58,56.06,71.82,56.63,71.78z"/>
	<path fill="#D3AC80" d="M58.57,67.67c0.08-0.11,0.17-0.21,0.25-0.32c0.32,0.141,1.02,0.13,0.88,0.46
		C59.53,68.2,58.97,67.75,58.57,67.67z"/>
	<path fill="#D3AC80" d="M49.88,43.66c0.04,0.159,0.08,0.319,0.12,0.479c-0.029,0.09-0.06,0.18-0.09,0.26
		c-0.189-0.029-0.4-0.04-0.439-0.3C49.43,43.79,49.63,43.71,49.88,43.66z"/>
	<path fill="#D3AC80" d="M48.69,66.71c-0.22-0.311-0.45-0.62-0.67-0.931C48.9,65.62,48.72,66.22,48.69,66.71z"/>
	<path fill="#D3AC80" d="M47.04,45.79c-0.08-0.221-0.16-0.44-0.24-0.66c0.24,0.05,0.601-0.21,0.681,0.2
		C47.55,45.6,47.25,45.69,47.04,45.79z"/>
	<path fill="#D3AC80" d="M46.04,71.01c0.19,0.15,0.391,0.29,0.58,0.44c0,0.34-0.24,0.39-0.46,0.319
		C45.67,71.61,46.27,71.24,46.04,71.01z"/>
	<path fill="#D3AC80" d="M33.35,72.68c0.069,0.03,0.149,0.05,0.22,0.07c-0.46,0.399-1.021,0.14-1.53,0.21
		C32.44,72.65,32.91,72.75,33.35,72.68z"/>
	<path fill="#D3AC80" d="M17.07,43.42c-0.08,0.16-0.16,0.31-0.25,0.47c-0.03-0.1-0.05-0.2-0.08-0.3c0.12-0.37-0.29-0.85,0.26-1.12
		C17.03,42.79,17.05,43.1,17.07,43.42z"/>
	<path fill="#D3AC80" d="M20.82,45.46c-0.53,0.34-0.7,0.149-0.59-0.42c0-0.021,0.069-0.04,0.09-0.03c0.03,0.02,0.04,0.06,0.06,0.1
		C20.47,45.3,20.85,45.12,20.82,45.46z"/>
	<path fill="#D3AC80" d="M47.98,46.63c-0.33-0.08-0.66-0.16-0.98-0.24C47.31,46.54,47.87,45.66,47.98,46.63z"/>
	<path fill="#D3AC80" d="M36.95,68.88c0.01,0.07,0.021,0.14,0.03,0.2c-0.41,0.01-0.82,0.02-1.23,0.02
		C36.1,68.74,36.55,68.93,36.95,68.88z"/>
	<path fill="#D3AC80" d="M47.04,51.82c0.16,0,0.311,0,0.47,0c0,0.21,0.15,0.54-0.189,0.551C47.06,52.37,46.99,52.08,47.04,51.82z"/>
	<path fill="#B6AFB1" d="M63.57,37.69c-0.1-0.01-0.2-0.029-0.29-0.04c0.08-0.319,0.15-0.64,0.229-0.96
		C63.53,37.02,63.55,37.35,63.57,37.69z"/>
	<path fill="#D3AC80" d="M46.83,53.3c-0.2,0.06-0.39,0.12-0.59,0.17c-0.06-0.14-0.12-0.28-0.19-0.42
		C46.35,53.02,46.69,52.84,46.83,53.3z"/>
	<path fill="#698693" d="M64.62,32.17c-0.03-0.23-0.06-0.47-0.09-0.7C65.37,31.6,64.71,31.92,64.62,32.17z"/>
	<path fill="#D3AC80" d="M17.29,48.97c0.08-0.01,0.16-0.01,0.24-0.02c0.02,0.1,0.04,0.189,0.06,0.29
		c-0.09,0.22-0.18,0.439-0.27,0.67C17.31,49.59,17.3,49.28,17.29,48.97z"/>
	<path fill="#D3AC80" d="M59.95,49.93c0.23-0.03,0.46-0.06,0.57-0.31c0.149,0.149,0.239,0.319,0.02,0.46
		C60.31,50.23,60.11,50.13,59.95,49.93z"/>
	<path fill="#D6A96A" d="M47.05,40.04c0.32-0.28,0.631-0.28,0.95,0C47.68,40.04,47.36,40.04,47.05,40.04z"/>
	<path fill="#28231D" d="M63.87,41.21c0.25,0.35,0.18,0.689-0.03,1.03C63.85,41.9,63.86,41.55,63.87,41.21z"/>
	<path fill="#D3AC80" d="M19.93,46.83c0.239-0.021,0.479-0.03,0.71-0.051c0.08,0.12,0.159,0.25,0.239,0.37
		C20.58,47.01,20.17,47.16,19.93,46.83z"/>
	<path fill="#D3AC80" d="M18.9,45.99c0.1,0.029,0.16,0.05,0.22,0.069c-0.04,0.08-0.06,0.181-0.13,0.23
		c-0.03,0.029-0.13-0.03-0.2-0.05C18.83,46.16,18.87,46.08,18.9,45.99z"/>
	<path fill="#D3AC80" d="M22.82,45.58c0.17-0.301,0.46-0.181,0.71-0.2C23.35,45.66,23.08,45.6,22.82,45.58z"/>
	<path fill="#91857D" d="M48.22,63.82c0.229-0.079,0.46-0.159,0.699-0.239"/>
	<path fill="#897B7E" d="M18.26,59.51c0.051-0.02,0.11-0.02,0.171-0.01c-0.021,0.18-0.051,0.359-0.07,0.54
		C18.32,59.86,18.29,59.69,18.26,59.51z"/>
	<path fill="#21221F" d="M32.39,57.14c-0.17-0.05-0.33-0.09-0.5-0.14c0.159-0.05,0.33-0.101,0.489-0.15l0.061,0.061
		c0,0.06,0,0.109,0,0.17L32.39,57.14z"/>
	<path fill="#D3AC80" d="M20.82,45.46c-0.19-0.061-0.44-0.05-0.45-0.351c0.18-0.02,0.36-0.04,0.55-0.06
		c0.07,0.11,0.13,0.229,0.2,0.34C21.02,45.42,20.92,45.44,20.82,45.46z"/>
	<path fill="#030E08" d="M15.33,25.37c0,0.279,0.15,0.6-0.17,0.81C15.12,25.89,15.01,25.59,15.33,25.37z"/>
	<path fill="#695E5C" d="M59.01,49.71c0.171,0.06,0.351,0.13,0.521,0.2C59.36,49.84,59.19,49.78,59.01,49.71z"/>
	<path fill="#D3AC80" d="M57.34,49.36c0.17-0.17,0.33-0.189,0.46,0.051C57.65,49.4,57.49,49.38,57.34,49.36z"/>
	<path fill="#D3AC80" d="M47.74,44.38c0.07,0.02,0.14,0.03,0.21,0.03c-0.09,0.069-0.18,0.14-0.27,0.21
		c-0.051-0.08-0.091-0.16-0.141-0.23C47.61,44.4,47.68,44.39,47.74,44.38z"/>
	<path fill="#D3AC80" d="M26.37,41.49c0,0.18,0,0.369,0,0.55C26.24,41.86,26.22,41.68,26.37,41.49z"/>
	<path fill="#DAAA6A" d="M29,41.27c-0.06-0.17-0.12-0.35-0.18-0.52C28.88,40.93,28.94,41.1,29,41.27z"/>
	<path fill="#D3AC80" d="M45.35,68.43c0,0.14,0,0.28,0,0.43l-0.11,0.021l-0.11-0.021c0-0.069-0.02-0.14-0.029-0.21
		c0.029-0.069,0.04-0.14,0.05-0.21C45.21,68.4,45.28,68.4,45.35,68.43z"/>
	<path fill="#804B80" d="M25.9,29.3c0.17,0.06,0.33,0.11,0.5,0.17C26.23,29.41,26.06,29.35,25.9,29.3z"/>
	<path fill="#D6A96A" d="M46.33,40.03c0.16-0.21,0.311-0.21,0.47,0C46.64,40.03,46.48,40.03,46.33,40.03z"/>
	<path fill="#DFB16F" d="M67.46,34.12c0.061-0.17,0.13-0.341,0.19-0.521C67.68,33.81,67.68,34.01,67.46,34.12z"/>
	<path fill="#354445" d="M20.75,73.06c-0.02-0.03-0.04-0.06-0.06-0.09c0.04-0.02,0.09-0.05,0.13-0.07c0,0.04,0.02,0.08,0.01,0.11
		C20.82,73.02,20.78,73.04,20.75,73.06z"/>
	<path fill="#B29473" d="M64.28,80.86c0.11,0.021,0.22,0.03,0.33,0.051c-0.11,0.06-0.23,0.119-0.34,0.18
		C64.27,81.02,64.27,80.94,64.28,80.86z"/>
	<path fill="#7A806C" d="M51.27,66.01c0.18,0.07,0.37,0.14,0.55,0.21C51.63,66.15,51.45,66.08,51.27,66.01z"/>
	<path fill="#263B57" d="M20.77,69.26c0.02,0.06,0.05,0.12,0.06,0.18c0,0.021-0.05,0.04-0.07,0.07c-0.02-0.06-0.05-0.12-0.06-0.18
		C20.69,69.31,20.74,69.29,20.77,69.26z"/>
	<path fill="#B68B59" d="M28.07,31.68c0-0.16,0.01-0.33,0.01-0.49C28.29,31.35,28.66,31.52,28.07,31.68z"/>
	<path fill="#AD7E3E" d="M27.83,64.55c0,0.17-0.01,0.35-0.01,0.53C27.67,64.89,27.66,64.72,27.83,64.55z"/>
	<path fill="#1C1E1C" d="M43.44,51.62c0.08,0,0.16,0,0.24,0C43.6,51.62,43.52,51.62,43.44,51.62z"/>
	<path fill="#DAAC6D" d="M17.75,41.02c0,0.09,0,0.19,0,0.28c-0.029-0.06-0.06-0.13-0.069-0.2C17.67,41.08,17.72,41.05,17.75,41.02z"
		/>
	<path fill="#A3A084" d="M49.65,53.77c-0.21-0.109-0.13-0.21,0.01-0.3C49.66,53.57,49.65,53.67,49.65,53.77z"/>
	<path fill="#D3AC80" d="M45.82,70.54c0.18,0.06,0.26,0.16,0.1,0.33C45.89,70.76,45.85,70.65,45.82,70.54z"/>
	<path fill="#D3AC80" d="M19.9,46.31c-0.08,0.08-0.15,0.16-0.23,0.24C19.62,46.35,19.69,46.27,19.9,46.31z"/>
	<polygon fill="#572C60" points="31.89,35.81 31.84,35.87 31.8,35.86 	"/>
	<path fill="#485C6B" d="M48.94,63.15c-0.061-0.1-0.13-0.199-0.19-0.3C48.82,62.95,48.88,63.05,48.94,63.15z"/>
	<path fill="#834989" d="M27.58,30.01c0.08,0.07,0.17,0.15,0.25,0.22C27.75,30.16,27.66,30.09,27.58,30.01z"/>
	<path fill="#718EA8" d="M63.63,35.14c0.061-0.12,0.12-0.229,0.181-0.35C63.75,34.9,63.69,35.02,63.63,35.14z"/>
	<path fill="#D3AC80" d="M48.3,75.65c-0.14,0.53-0.569,0.521-0.949,0.42c-0.37-0.09-0.33-0.489-0.37-0.79
		c-0.021-0.159-0.03-0.319,0.01-0.47c0.12-0.5-0.15-1.189,0.57-1.41c0.319-0.1,0.88-0.17,1-0.01c0.37,0.51,0.239,1.11-0.07,1.66
		C48.36,75.22,48.36,75.44,48.3,75.65z"/>
	<path fill="#D3AC80" d="M43.92,72.73c1.69,0.011,3.391,0.021,5.08,0.03c-0.02,0.06-0.04,0.12-0.06,0.18
		c-1.351,0.011-2.7,0.03-4.04,0.04c-0.33-0.029-0.66-0.05-1-0.08c-0.061-0.05-0.08-0.09-0.05-0.13
		C43.87,72.75,43.9,72.73,43.92,72.73z"/>
	<path fill="#030E08" d="M46.08,74.14c0-0.229-0.229-0.52,0.17-0.649c0.021,0.22,0.04,0.43,0.061,0.649
		C46.24,74.29,46.16,74.29,46.08,74.14z"/>
	<path fill="#030E08" d="M46.08,74.14c0.08,0.021,0.15,0.01,0.23,0c0.02,0.2,0.1,0.42-0.16,0.53C46.13,74.49,46.1,74.31,46.08,74.14
		z"/>
	<path fill="#314A60" d="M48.3,75.65c-0.04-0.229-0.09-0.47,0.181-0.609C48.42,75.24,48.36,75.44,48.3,75.65z"/>
	<path fill="#C396BC" d="M23.99,22.05c0.32,0,0.64,0.01,0.96,0.01c0.05,0.021,0.1,0.05,0.16,0.07c1.64,1.39,3.28,1.479,5.08,0.29
		c0.42-0.28,0.77-0.7,1.35-0.7c0.91,0.01,1.811-0.02,2.71,0.021c0.12,0.1,0.021-0.07,0.101,0.06c1.989,3.03,5.13,3.16,8.279,3.29
		c2.36,0.09,4.66,0.689,6.99,1.02c2.65,0.381,5.09,0.17,7.25-1.55c0.24,0.13,0.49,0.25,0.73,0.38c0.22,0.73-0.311,1.08-0.761,1.48
		c-1.89,1.649-4.17,1.84-6.439,1.43c-3.73-0.67-7.47-1.14-11.25-1.359c-1.7-0.101-3.29-0.66-4.771-1.471
		c-1.31-0.72-2.569-0.95-4-0.35c-1.12,0.47-2.34,0.5-3.54,0.38c-1.239-0.12-2.17-0.74-2.779-1.83c-0.2-0.36-0.391-0.71-0.051-1.09
		L23.99,22.05z"/>
	<path fill="#CFA6C6" d="M56.88,24.56c-0.939,1.59-2.529,1.96-4.159,2.061c-2.95,0.189-5.801-0.71-8.711-1.021
		C42.48,25.43,40.94,25.35,39.4,25.2c-2.26-0.23-4.13-1.07-5.08-3.32c0.67-0.311,1.37-0.09,2.05-0.14c0.45,0.13,0.71,0.5,1.021,0.8
		c0.47,0.46,1.029,0.81,1.689,0.81c3.57-0.01,7,1.03,10.521,1.41c1.899,0.2,3.819,0.26,5.59-0.71c0.16,0.01,0.31,0.02,0.47,0.02
		C56.07,24.23,56.47,24.4,56.88,24.56z"/>
	<path fill="#BB89B4" d="M24.01,22.12c0.471,2.109,2.4,3.33,4.971,2.489c2.47-0.81,4.58-0.689,6.76,0.601
		c1.81,1.069,3.91,1.069,5.9,1.14c2.92,0.09,5.75,0.641,8.59,1.17c3.109,0.59,6.22-0.439,7.37-2.58c0.239,0.101,0.47,0.19,0.71,0.29
		c0.12,0.521-0.271,0.811-0.561,1.12c-1.99,2.17-4.47,2.8-7.279,2.21c-3.591-0.74-7.181-1.35-10.86-1.39
		c-1.54-0.021-3.101-0.3-4.57-0.79c-1.76-0.59-3.5-0.53-5.3-0.23c-1.67,0.28-3.35,0.351-4.78-0.83c-0.64-0.59-1.13-1.29-1.45-2.1
		c-0.159-0.41-0.319-0.83,0.24-1.09C23.84,22.12,23.93,22.12,24.01,22.12z"/>
	<path fill="#B17FAD" d="M24.96,24.96c1.351,1.13,2.98,1.18,4.54,0.88c2-0.38,3.891-0.4,5.84,0.27c2.7,0.92,5.57,0.71,8.36,0.98
		c2.18,0.21,4.33,0.57,6.44,1.06c3.409,0.79,6.069-0.199,8.17-2.92c0.16,0.09,0.319,0.17,0.479,0.261
		c-0.34,1.579-1.6,2.27-2.859,2.979c-1.86,0.96-3.82,1.09-5.811,0.61c-3.729-0.9-7.479-1.46-11.34-1.42
		c-1.14,0.01-2.29-0.25-3.42-0.521c-1.88-0.45-3.771-0.47-5.68-0.22c-1.431,0.189-2.881,0.16-4.221-0.5
		c-0.6-0.3-1.25-0.59-1.279-1.42C24.43,24.73,24.69,24.79,24.96,24.96z"/>
	<path fill="#985F99" d="M58.08,28.56c-0.359,0-0.58,0.22-0.81,0.45c-2.09,2.1-4.601,2.44-7.29,1.59
		c-3.601-1.14-7.28-1.49-11.04-1.62c-3.67-0.13-7.33-0.109-11-0.2c-1.7-0.039-3.11-0.88-4.42-1.899c-0.36-0.18-0.49-0.43-0.221-0.79
		c0.29-0.12,0.521-0.01,0.73,0.17c2.04,1.93,4.57,1.86,7.08,1.65c1.92-0.16,3.8,0.09,5.7,0.17c0.59,0.02,1.18,0.149,1.779,0.14
		c3.891-0.07,7.71,0.37,11.42,1.53c3.221,1,5.771,0.08,7.921-2.351c0.59-0.47,0.819-1.43,1.8-1.399c0.09,0.06,0.17,0.12,0.26,0.189
		C60.1,27.3,59.32,28.27,58.08,28.56z"/>
	<path fill="#7D4583" d="M60.96,26.69c0.311,0.17,0.63,0.34,0.94,0.511c0.08,0.319-0.07,0.579-0.28,0.739
		c-1.72,1.351-2.91,3.13-4.149,4.891c-0.551,0.229-1.101,0.12-1.65-0.021c-0.28-0.16-0.23-0.39-0.15-0.63
		C57.16,30.09,59.11,28.44,60.96,26.69z"/>
	<path fill="#64336D" d="M63.89,28.3c-1.101,0.71-2.29,1.28-3.17,2.29c-1.24,1.41-1.931,3-1.681,4.91
		c-0.24-0.01-0.479-0.01-0.72-0.021c-0.6-0.54,0.09-1.52-0.69-2c-0.069-0.09-0.1-0.18-0.1-0.29c0.15-0.319,0.52-0.29,0.77-0.46
		c0.091-0.12,0.131-0.26,0.171-0.41C59.34,30.2,60.96,28.8,62.89,27.7C63.21,27.9,63.55,28.1,63.89,28.3z"/>
	<path fill="#713C78" d="M62.87,27.7c-0.229,0.79-1.06,0.89-1.57,1.359c-1.109,1.04-2.14,2.141-2.75,3.57
		c-0.319,0.29-0.64,0.3-0.96,0c0.37-1.561,1.48-2.65,2.54-3.72c0.57-0.58,1.23-1.091,1.771-1.71C62.22,27.36,62.55,27.53,62.87,27.7
		z"/>
	<path fill="#8A528D" d="M60.96,26.69c-0.7,1.38-2.02,2.19-3.01,3.311c-0.65,0.74-1.35,1.439-2.03,2.16
		c-0.439-0.561-0.1-1,0.24-1.44c0.37-0.96,1.7-1.07,1.92-2.16c0.8-0.67,1.69-1.25,1.92-2.37C60.32,26.35,60.64,26.52,60.96,26.69z"
		/>
	<path fill="#A772A4" d="M56.16,28.08c1.08-0.66,1.92-1.561,2.63-2.601c0.16,0.08,0.33,0.16,0.49,0.24
		c0.05,0.06,0.07,0.12,0.06,0.19C59.32,25.97,59.31,26,59.29,26c-0.45,0.37-0.649,0.939-1.08,1.33c-0.189,0.22-0.42,0.42-0.62,0.64
		c-0.08,0.06-0.159,0.11-0.239,0.16c-0.04,0.03-0.08,0.06-0.11,0.09c-0.07,0.06-0.15,0.12-0.23,0.18
		c-0.079,0.061-0.17,0.11-0.25,0.15c-0.279,0.11-0.56,0.25-0.84,0C55.8,28.29,56.02,28.21,56.16,28.08z"/>
	<path fill="#A56EA3" d="M58.08,27.36c0.391-0.489,0.59-1.14,1.2-1.439c0.08-0.09,0.17-0.09,0.26-0.01c0.08,0,0.15,0.029,0.2,0.09
		c-0.67,0.25-0.86,1-1.42,1.359C58.24,27.47,58.16,27.46,58.08,27.36z"/>
	<path fill="#985F99" d="M59.54,25.91c-0.09,0-0.17,0.01-0.26,0.01c0-0.061,0-0.13,0-0.19C59.37,25.79,59.46,25.85,59.54,25.91z"/>
	<path fill="#D3AC80" d="M50.88,72.69c0.95-0.43,1.94-0.13,2.91-0.199C52.85,72.88,51.85,72.65,50.88,72.69z"/>
	<path fill="#B087A8" d="M36.49,21.85c-0.72,0.01-1.44,0.021-2.16,0.021c-1.04-0.011-2.09-0.021-3.13-0.03
		c-0.34,0.2-0.68,0.32-1.01-0.04c0.02-0.06,0.05-0.12,0.069-0.19C33.43,21.62,36.6,21.62,39.77,21.63
		c0.029,0.06,0.069,0.11,0.1,0.17C38.75,22.51,37.62,22.38,36.49,21.85z"/>
	<path fill="#D3AC80" d="M43.92,72.73c0,0.061-0.01,0.12-0.02,0.181c-0.46,0-0.93,0.01-1.391,0.01
		C42.94,72.56,43.45,72.78,43.92,72.73z"/>
	<path fill="#D9B4CF" d="M36.49,21.85c1.13-0.01,2.26-0.03,3.39-0.04c0.95-0.01,1.91-0.02,2.86-0.02c0.55-0.09,1.11-0.13,1.66,0.029
		c0.479,0.08,0.96,0.15,1.45,0.23c2.09,0.03,4.12,0.49,6.159,0.82c0.54,0.34,1.101,0.609,1.75,0.659
		c0.16,0.061,0.33,0.12,0.49,0.181c0.16,0.03,0.311,0.05,0.471,0.08c0.159,0.09,0.319,0.17,0.479,0.26
		c-0.58,1.32-1.85,1.04-2.87,1.13c-2.92,0.271-5.729-0.57-8.58-1.02c-1.37-0.221-2.729-0.46-4.13-0.391
		C38.16,23.82,37.1,23.2,36.49,21.85z"/>
	<path fill="#D3AC80" d="M34.09,73.41c1.101-0.45,2.25-0.11,3.381-0.2C36.36,73.58,35.22,73.36,34.09,73.41z"/>
	<path fill="#201E1C" d="M44.4,21.81c-0.55-0.01-1.11-0.02-1.66-0.03c0.51-0.34,1.06-0.119,1.59-0.109
		C44.36,21.71,44.39,21.76,44.4,21.81z"/>
	<path fill="#653769" d="M20.14,28.11c-0.181-1.8-0.74-3.51-1.17-5.25c0.17-0.08,0.329-0.149,0.5-0.229
		c0.63,2.03,1.26,4.06,1.89,6.1C20.81,28.83,20.37,28.67,20.14,28.11z"/>
	<path fill="#925E8F" d="M23.28,26.16c0.08,0.239,0.16,0.479,0.24,0.72c0,0.08,0,0.16,0,0.24c-0.58,0.359-0.69-0.221-0.96-0.48
		c-0.971-1.27-1.311-2.79-1.681-4.3c0.24-0.09,0.49-0.19,0.73-0.28c0.149,0.021,0.3,0.04,0.45,0.061
		c0.08,0.97,0.399,1.859,0.85,2.71C23.13,25.24,23.5,25.63,23.28,26.16z"/>
	<path fill="#C396BC" d="M25.93,21.8c0.63,0.03,1.27,0.05,1.899,0.08c-0.7,0.71-1.6,0.79-2.83,0.229l-0.05-0.05
		C25.27,21.98,25.6,21.89,25.93,21.8z"/>
	<path fill="#CBA1C3" d="M25,22.12c0.94-0.16,1.92,0.189,2.83-0.23c0.4-0.03,0.8-0.06,1.19-0.08c0.39,0,0.779,0.01,1.17,0.01
		c0.34,0.011,0.67,0.021,1.01,0.03c-1.41,1.771-3.95,2.311-5.55,1.18C25.32,22.8,24.97,22.59,25,22.12z"/>
	<path fill="#A4709E" d="M23.28,26.16c-0.47-1.021-0.92-2.061-1.43-3.061c-0.23-0.439-0.15-0.72,0.22-0.979c0.24,0,0.479,0,0.729,0
		c0.24,0.979,0.75,1.85,1.21,2.729c0.061,0.41,0.521,0.65,0.471,1.11c-0.01,0.189-0.07,0.359-0.21,0.49
		c-0.181,0.09-0.351,0.069-0.511-0.061C23.6,26.32,23.44,26.24,23.28,26.16z"/>
	<path fill="#B484AD" d="M23.76,24.96c-0.35-0.94-1.399-1.63-0.97-2.84c0.32,0,0.641,0,0.96,0c-0.359,1.27,0.7,1.939,1.2,2.84
		c-0.24,0-0.479,0-0.72,0C24.08,25.11,23.92,25.09,23.76,24.96z"/>
	<path fill="#030E08" d="M51.13,57.54c0.71-0.28,1.431-0.29,2.141,0.02C52.56,57.56,51.84,57.55,51.13,57.54z"/>
	<path fill="#B8A9CB" d="M54.71,55.16c-0.069-0.091-0.149-0.181-0.14-0.19c0.06-0.07,0.14-0.13,0.21-0.19
		c0.04,0.051,0.12,0.12,0.11,0.15C54.86,55.01,54.78,55.08,54.71,55.16z"/>
	<path fill="#D7A966" d="M63.4,45.36c0.06-0.09,0.12-0.18,0.18-0.27C63.52,45.18,63.46,45.27,63.4,45.36z"/>
	<path fill="#282523" d="M47.28,32.41c0.02,0.069,0.02,0.14,0,0.21c-2.01,0.25-4.021,0.17-6.03,0.04L41.14,32.65l-0.11,0.021
		l0.02-0.04c-0.06-0.061-0.079-0.11-0.06-0.17c0.02-0.061,0.04-0.08,0.06-0.08c2-0.01,4-0.021,5.99-0.03
		c0.09-0.04,0.17-0.03,0.24,0.04V32.41z"/>
	<path fill="#222220" d="M34.35,32.18c1.739-0.13,3.479-0.13,5.229,0.01c0,0.5-0.39,0.261-0.62,0.33c-1.5-0.01-3,0.021-4.5-0.02
		C34.28,32.44,34.25,32.33,34.35,32.18z"/>
	<path fill="#4F3D4D" d="M39.12,32.4c0.15-0.069,0.3-0.14,0.45-0.21c0.5,0,1.02-0.199,1.47,0.19c0,0.08,0,0.17,0,0.25
		c-0.62,0-1.25-0.01-1.87-0.01C39.01,32.58,38.99,32.51,39.12,32.4z"/>
	<path fill="#51414E" d="M34.35,32.18c-0.011,0.061-0.011,0.13,0,0.19c-0.11,0.21-0.38,0.1-0.511,0.26
		c-0.22-0.08-0.25-0.26-0.229-0.46C33.85,32.17,34.1,32.18,34.35,32.18z"/>
	<path fill="#834989" d="M47.28,32.39c-0.08-0.01-0.16-0.03-0.24-0.04c0-0.06,0-0.13,0-0.189C47.12,32.24,47.2,32.32,47.28,32.39z"
		/>
	<path fill="#8A5090" d="M56.16,30.72c-0.08,0.48-0.16,0.96-0.24,1.44c-0.08,0.149-0.17,0.3-0.26,0.449
		c-0.14,0.25-0.38,0.261-0.62,0.28c-0.97,0.101-1.939,0.33-2.93,0.21c-0.25-0.07-0.5-0.14-0.75-0.21
		c-0.98-0.84-2.351-0.899-3.36-1.68c-0.08-0.24-0.16-0.48-0.24-0.72C49.78,31,51.72,32.01,53.89,31.44
		C54.66,31.23,55.4,30.96,56.16,30.72z"/>
	<path fill="#743D7E" d="M57.6,33.17c0,0.06,0,0.13,0.01,0.189c0.51,0.78,0.27,1.471-0.26,2.131c-0.48,0-0.95-0.011-1.431-0.011
		c0.42-0.67,0.16-1.42,0.25-2.12c0.32-0.31,0.73-0.319,1.13-0.35C57.43,33.02,57.52,33.07,57.6,33.17z"/>
	<path fill="#2E272C" d="M52.11,33.09c0.85-0.73,1.91,0.01,2.8-0.38c0.25,0.09,0.51,0.02,0.76,0.109
		C55.72,32.88,55.74,32.94,55.73,33c-0.01,0.06-0.03,0.09-0.05,0.09c-0.561,0.02-1.12,0.05-1.69,0.07c-0.64,0.1-1.29,0.22-1.92-0.07
		H52.11z"/>
	<path fill="#101613" d="M55.69,33.08c0-0.061,0-0.12,0-0.181c1.03-0.22,2.069-0.229,3.1,0.011c-0.319,0.46-0.81,0.109-1.189,0.26
		c-0.091,0.01-0.181,0.02-0.261,0.02c-0.39,0.051-0.79,0.101-1.18-0.029C56,33.14,55.84,33.11,55.69,33.08z"/>
	<path fill="#8B5D91" d="M52.09,33.08c0.641,0.02,1.28,0.05,1.92,0.069C53.35,33.44,52.71,33.54,52.09,33.08z"/>
	<path fill="#6B3774" d="M56.16,33.16c0.39,0.01,0.78,0.02,1.18,0.029c-0.35,0.301-0.77,0.12-1.159,0.16
		C56.16,33.29,56.16,33.23,56.16,33.16z"/>
	<path fill="#884F8A" d="M22.56,26.64c0.319,0.16,0.64,0.32,0.96,0.48c0.64,0.699,1.279,1.399,1.92,2.1
		C23.6,29.33,23.22,28.99,22.56,26.64z"/>
	<path fill="#4F2857" d="M44.64,35.74c-0.721,0.13-1.49-0.171-2.19,0.229c-1.75-0.02-3.51,0.15-5.25-0.24
		C38.75,34.35,43.11,34.36,44.64,35.74z"/>
	<path fill="#544051" d="M41.25,32.66c2.01-0.011,4.021-0.03,6.03-0.04c-0.48,0.529-1.13,0.13-1.67,0.29c-0.8,0-1.601,0-2.4,0
		C42.56,32.76,41.86,33.05,41.25,32.66z"/>
	<path fill="#6B3774" d="M57.35,35.49c0.09-0.711,0.17-1.421,0.26-2.131c0.59-0.04,1.01,0.021,0.75,0.83
		c-0.13,0.4-0.04,0.86-0.05,1.29C57.99,35.48,57.67,35.49,57.35,35.49z"/>
	<path fill="#744F79" d="M33.83,32.63c0.17-0.09,0.34-0.17,0.51-0.26c1.591,0.01,3.181,0.02,4.78,0.029
		c0.021,0.07,0.04,0.15,0.05,0.221C37.39,32.62,35.61,32.63,33.83,32.63z"/>
	<path fill="#1D1A1D" d="M20.14,28.11c0.409,0.2,0.819,0.41,1.22,0.61c0.229,0.19,0.47,0.37,0.7,0.56
		c-0.63,0.091-1.09-0.409-1.67-0.489c-0.07-0.08-0.141-0.141-0.24-0.17c-0.08-0.04-0.16-0.08-0.23-0.12
		c0.03-0.521-1.06-0.2-0.72-0.95C19.65,27.52,19.81,27.97,20.14,28.11z"/>
	<path fill="#D3AC80" d="M58.04,67.3c-0.01,0.03-0.03,0.05-0.04,0.08c-0.04-0.03-0.069-0.061-0.109-0.08
		c0.029-0.03,0.05-0.05,0.08-0.08C57.99,67.25,58.02,67.27,58.04,67.3z"/>
	<path fill="#D3AC80" d="M50.42,57.08c0-0.061,0-0.12-0.01-0.181c1.36-0.18,2.72-0.09,4.08,0.03c0,0.05,0,0.1,0,0.16
		C53.13,57.08,51.78,57.08,50.42,57.08z"/>
	<path fill="#D3AC80" d="M38.61,56.89c0,0.07-0.01,0.14-0.03,0.21c-1.1,0-2.2,0-3.3,0.01c-0.09-0.04-0.11-0.09-0.09-0.13
		c0.03-0.04,0.06-0.069,0.08-0.069C36.39,56.89,37.5,56.89,38.61,56.89z"/>
	<path fill="#D3AC80" d="M32.43,57.08c-0.011-0.061-0.011-0.11,0-0.17c0.63,0,1.26,0,1.899,0c0.08,0.04,0.101,0.09,0.07,0.13
		s-0.05,0.06-0.08,0.06C33.69,57.09,33.06,57.09,32.43,57.08z"/>
	<path fill="#D3AC80" d="M54.49,57.08c-0.01-0.051-0.01-0.101,0-0.16c0.48,0.01,0.99-0.24,1.42,0.16
		C55.43,57.08,54.96,57.08,54.49,57.08z"/>
	<path fill="#D3AC80" d="M43.7,57.07c0.31-0.26,0.61-0.29,0.91,0.011C44.31,57.08,44,57.08,43.7,57.07z"/>
	<path fill="#D3AC80" d="M34.32,57.1c-0.01-0.06-0.01-0.13,0.01-0.189c0.32,0,0.641-0.011,0.96-0.011c-0.01,0.07-0.01,0.13,0,0.2
		C34.97,57.1,34.64,57.1,34.32,57.1z"/>
	<path fill="#D3AC80" d="M30.99,69.12c0.39-0.45,0.9-0.141,1.36-0.221C31.95,69.33,31.44,69.03,30.99,69.12z"/>
	<path fill="#4B2853" d="M20.16,28.63c0.08,0.06,0.16,0.11,0.24,0.17C20.32,28.74,20.24,28.68,20.16,28.63z"/>
	<path fill="#AD77A8" d="M23.76,24.96c0.16,0,0.32,0,0.48,0c1.32,1.83,3.3,1.85,5.19,1.63c2.17-0.26,4.27-0.271,6.369,0.29
		c2.521,0.68,5.131,0.439,7.69,0.66c2.7,0.229,5.29,0.96,7.95,1.38c1.75,0.28,3.18-0.38,4.72-0.84C56.08,28.24,56,28.4,55.92,28.56
		c-0.029,0.04-0.05,0.08-0.08,0.13c-0.109,0.11-0.239,0.2-0.369,0.28c-0.091,0.06-0.181,0.12-0.28,0.17
		c-0.21,0.13-0.431,0.23-0.65,0.33c-1.79,0.63-3.54,0.35-5.29-0.17c-2.85-0.84-5.76-1.23-8.74-1.14
		c-1.63,0.05-3.26-0.261-4.869-0.48c-2.591-0.35-5.181-0.18-7.771-0.21c-0.8-0.01-1.58-0.05-2.34-0.39
		c-0.59-0.261-1.021-0.59-1.28-1.17C24.08,25.6,23.92,25.28,23.76,24.96z"/>
	<path fill="#9F669D" d="M23.76,26.4c0.16,0,0.32,0,0.48,0c1.95,1.12,4.04,1.16,6.21,0.99c3.3-0.26,6.56,0.601,9.86,0.61
		c3.77,0.01,7.39,0.779,11.02,1.68c1.99,0.49,3.82-0.4,5.55-1.36l0,0c0.08-0.079,0.16-0.159,0.24-0.239l0,0
		c0.08-0.08,0.17-0.15,0.24-0.24c0.24-0.16,0.479-0.32,0.72-0.48c0.08,0,0.16,0,0.24,0c-1.89,2.681-4.95,3.73-8.07,2.801
		C46.77,29.11,43.22,28.6,39.58,28.54c-2.49-0.04-4.97-0.41-7.45-0.38c-1.739,0.02-3.46,0.26-5.21-0.03
		C25.63,27.9,24.67,27.24,23.76,26.4z"/>
	<path fill="#6C526D" d="M58.79,32.91c-1.03,0-2.069-0.011-3.1-0.011c-0.25-0.08-0.58,0.12-0.771-0.189
		c0.25-0.04,0.5-0.07,0.75-0.11c0.641,0.01,1.29,0.021,1.931,0.021c0.319,0,0.64,0,0.96,0C58.63,32.72,58.71,32.82,58.79,32.91z"/>
	<path fill="#A56EA3" d="M56.88,28.32c-1.659,1.46-3.63,2.091-5.75,1.53c-4.52-1.21-9.109-1.7-13.779-1.79
		c-1.82-0.03-3.641-0.33-5.46-0.45c-0.83-0.05-1.66,0.051-2.49,0.17c-1.88,0.271-3.641-0.159-5.16-1.38c0-0.159,0-0.319,0-0.479
		c1.05,0.88,2.24,1.25,3.63,1.22c6.3-0.13,12.55,0.59,18.8,1.2c1.061,0.1,2.13,0.38,3.13,0.74c1.75,0.62,3.44,0.46,5.16-0.04
		c0.13-0.15,0.351-0.09,0.48-0.24l0,0c0.13-0.14,0.359-0.09,0.479-0.24l0,0C56.24,28.48,56.56,28.4,56.88,28.32z"/>
	<path fill="#A56EA3" d="M57.12,28.08c-0.08,0.08-0.16,0.16-0.24,0.239C56.96,28.24,57.04,28.16,57.12,28.08z"/>
	<path fill="#A56EA3" d="M57.36,27.84c-0.08,0.08-0.16,0.16-0.24,0.24C57.2,28,57.28,27.92,57.36,27.84z"/>
	<path fill="#A772A4" d="M55.44,28.8c-0.16,0.08-0.32,0.16-0.48,0.24C55.12,28.96,55.28,28.88,55.44,28.8z"/>
	<path fill="#A772A4" d="M55.92,28.56c-0.16,0.08-0.319,0.16-0.479,0.24C55.6,28.72,55.76,28.64,55.92,28.56z"/>
</g>
</svg>
