<?xml version="1.0" encoding="utf-8"?>
<!-- Generator: Adobe Illustrator 16.0.0, SVG Export Plug-In . SVG Version: 6.00 Build 0)  -->
<!DOCTYPE svg PUBLIC "-//W3C//DTD SVG 1.0//EN" "http://www.w3.org/TR/2001/REC-SVG-20010904/DTD/svg10.dtd" [
	<!ENTITY ns_flows "http://ns.adobe.com/Flows/1.0/">
	<!ENTITY ns_extend "http://ns.adobe.com/Extensibility/1.0/">
	<!ENTITY ns_ai "http://ns.adobe.com/AdobeIllustrator/10.0/">
	<!ENTITY ns_graphs "http://ns.adobe.com/Graphs/1.0/">
]>
<svg version="1.0" id="Layer_1" xmlns:x="&ns_extend;" xmlns:i="&ns_ai;" xmlns:graph="&ns_graphs;"
	 xmlns="http://www.w3.org/2000/svg" xmlns:xlink="http://www.w3.org/1999/xlink" xmlns:a="http://ns.adobe.com/AdobeSVGViewerExtensions/3.0/"
	 x="0px" y="0px" width="960px" height="560px" viewBox="0 0 960 560" style="enable-background:new 0 0 960 560;"
	 xml:space="preserve">
<g>
	<path style="fill-rule:evenodd;clip-rule:evenodd;" d="M477.4,264.65c-6.3,0.99-10.53,6.52-9.73,12.78c0.75,5.84,6.73,9.48,13.13,8
		c0.3-0.07,0.62-0.09,0.93-0.14c0.05,0.43-0.31,0.61-0.53,0.85c-2.13,2.28-4.95,2.7-7.86,2.95c-1.01,0.09-2.37-0.7-2.89,0.12
		c-0.49,0.77-0.1,2.09-0.1,3.17c-0.01,0-0.02,0-0.02,0c0,0.92,0.05,1.84-0.02,2.76c-0.06,0.77,0.26,0.96,0.96,0.94
		c1.44-0.04,2.88,0.06,4.31-0.06c4.53-0.38,8.68-1.71,11.95-5.08c3.4-3.5,4.6-7.84,4.7-12.56
		C492.42,268.59,485.97,263.3,477.4,264.65z M480.01,279.08c-2.08,0.07-3.39-1.22-3.48-3.4c-0.1-2.57,1.12-4.35,3.01-4.4
		c2.13-0.07,3.4,1.66,3.52,4.79C483.14,277.89,482,279.01,480.01,279.08z"/>
	<path style="fill-rule:evenodd;clip-rule:evenodd;fill:#E1CF9F;" d="M490.26,276.47c-0.38-6.89-5.22-10.94-12.07-10.12
		c-5.66,0.68-9.51,5.55-8.64,11.02c0.47,2.92,2.16,4.99,4.94,5.95c2.95,1.02,5.91,1.09,8.51-0.99c0.67-0.53,1.2-0.56,1.82-0.2
		c0.68,0.4,0.1,0.96-0.02,1.37c-0.23,0.79-0.59,1.58-1.03,2.28c-2.42,3.82-6.17,4.93-10.4,5.06c-0.38,0.01-1.03-0.19-1.08,0.22
		c-0.13,1.02-0.23,2.11,0.02,3.08c0.14,0.54,1.08,0.13,1.57,0.21c4.45-0.19,8.59-1.1,11.86-4.25
		C489.61,286.37,490.54,281.6,490.26,276.47z M480.34,280.93c-3.14,0.23-5.44-1.72-5.71-4.82c-0.31-3.59,1.62-6.43,4.52-6.67
		c3.38-0.28,5.49,2.04,5.82,6.39C485.19,278.72,483.39,280.7,480.34,280.93z"/>
</g>
</svg>
