<?xml version="1.0" encoding="utf-8"?>
<!-- Generator: Adobe Illustrator 16.0.0, SVG Export Plug-In . SVG Version: 6.00 Build 0)  -->
<!DOCTYPE svg PUBLIC "-//W3C//DTD SVG 1.0//EN" "http://www.w3.org/TR/2001/REC-SVG-20010904/DTD/svg10.dtd" [
	<!ENTITY ns_flows "http://ns.adobe.com/Flows/1.0/">
	<!ENTITY ns_extend "http://ns.adobe.com/Extensibility/1.0/">
	<!ENTITY ns_ai "http://ns.adobe.com/AdobeIllustrator/10.0/">
	<!ENTITY ns_graphs "http://ns.adobe.com/Graphs/1.0/">
]>
<svg version="1.0" id="Layer_1" xmlns:x="&ns_extend;" xmlns:i="&ns_ai;" xmlns:graph="&ns_graphs;"
	 xmlns="http://www.w3.org/2000/svg" xmlns:xlink="http://www.w3.org/1999/xlink" xmlns:a="http://ns.adobe.com/AdobeSVGViewerExtensions/3.0/"
	 x="0px" y="0px" width="960px" height="560px" viewBox="0 0 960 560" style="enable-background:new 0 0 960 560;"
	 xml:space="preserve">
<g>
	<path style="fill-rule:evenodd;clip-rule:evenodd;" d="M472.85,279.57c0-3.19,0-3.2,3.18-3.19c1.05,0,2.08-0.12,3.06-0.48
		c1-0.37,1.93-0.9,1.79-2.22c-0.14-1.23-1.08-1.63-2.09-1.8c-2.6-0.44-5,0.29-7.23,1.54c-0.86,0.48-1.14,0.43-1.37-0.56
		c-0.37-1.59-0.85-3.15-1.37-4.7c-0.21-0.65-0.16-1.04,0.48-1.34c5.04-2.38,10.26-3.18,15.54-1.12c6,2.34,6.9,9.25,1.83,13.18
		c-0.66,0.51-0.37,0.6,0.11,0.89c5.27,3.19,5.59,10.17,0.58,13.79c-4.25,3.08-9.08,3.15-14.01,2.38c-1.74-0.27-3.4-0.83-4.96-1.67
		c-0.59-0.31-0.77-0.62-0.55-1.31c0.52-1.59,0.97-3.21,1.35-4.84c0.22-0.93,0.49-1.12,1.4-0.65c2.37,1.23,4.91,1.86,7.61,1.65
		c0.77-0.06,1.5-0.26,2.16-0.65c1.73-1.01,1.87-3.17,0.26-4.39c-1.32-1-2.87-1.1-4.45-1.1c-3.32,0-3.32,0-3.32-3.32
		C472.85,279.65,472.85,279.61,472.85,279.57z"/>
	<path style="fill-rule:evenodd;clip-rule:evenodd;fill:#0089CD;" d="M482.73,283.58c-0.3-0.3-0.6-0.61-0.91-0.91
		c-0.11-0.12-0.22-0.23-0.38-0.27c-0.12-0.07-0.23-0.15-0.34-0.22c-0.15-0.17-0.4-0.14-0.57-0.27c-0.2-0.08-0.41-0.16-0.61-0.24
		c-0.18-0.14-0.41-0.13-0.61-0.22c-0.6-0.09-1.19-0.18-1.79-0.28c-0.9-0.33-1.88,0.16-2.76-0.28c-0.11-2.65-0.1-2.65,2.47-2.7
		c0.27,0,0.56,0.07,0.8-0.13c0.34-0.08,0.68-0.15,1.02-0.23c0.25-0.17,0.61-0.01,0.84-0.25l-0.02,0.01c0.16-0.13,0.39-0.1,0.54-0.24
		l0.08-0.02c0.17-0.02,0.29-0.14,0.41-0.24c0.1-0.07,0.2-0.15,0.3-0.22c0.18-0.04,0.29-0.16,0.38-0.31
		c0.02-0.07,0.07-0.12,0.15-0.15c0.13-0.07,0.24-0.16,0.31-0.28l-0.01,0.02c0.13-0.1,0.22-0.21,0.26-0.37
		c0.05-0.12,0.1-0.23,0.15-0.35c0.34-0.14,0.12-0.54,0.33-0.74l-0.01,0.02c0.22-0.56,0.22-1.13,0-1.69l0.01,0.02
		c-0.2-0.21,0.02-0.6-0.32-0.74c-0.05-0.12-0.1-0.23-0.15-0.35c-0.03-0.16-0.13-0.27-0.25-0.37l0.01,0.03
		c-0.06-0.11-0.15-0.19-0.25-0.26l0.02,0.02c-0.07-0.1-0.16-0.19-0.26-0.25l0.03,0.01c-0.1-0.12-0.21-0.22-0.37-0.25
		c-0.34-0.17-0.69-0.33-1.03-0.5c-0.18-0.12-0.4-0.09-0.58-0.21c-1.56-0.35-3.12-0.22-4.68,0c-0.24,0.18-0.56,0.02-0.79,0.21
		l-0.08,0.04l-0.09-0.01c-0.23,0.19-0.58,0-0.79,0.24l0.02-0.01c-0.21,0.21-0.58,0-0.75,0.3c-0.8,0.49-0.96,0.03-0.97-0.66
		c-0.08-0.21-0.08-0.45-0.23-0.63c-0.09-0.67-1.11-1.54,0.38-1.89c0.19-0.1,0.42-0.09,0.59-0.22c0.3-0.09,0.6-0.18,0.89-0.27
		c0.23-0.19,0.56-0.02,0.78-0.22c0.06-0.04,0.12-0.05,0.19-0.02c0.24-0.18,0.55-0.03,0.8-0.2c0.13-0.01,0.27-0.03,0.4-0.04
		c0.39-0.25,0.86,0.03,1.25-0.2c0.21-0.02,0.42-0.04,0.63-0.06c1.16-0.14,2.32-0.15,3.48,0.01c1.16,0.01,2.26,0.28,3.3,0.76
		c0.11,0.08,0.22,0.18,0.37,0.19l0.09,0.02c0.13,0.09,0.24,0.2,0.4,0.22l0.07,0.01c0.12,0.1,0.24,0.21,0.41,0.24
		c0.11,0.07,0.23,0.14,0.34,0.2c0.09,0.1,0.17,0.21,0.28,0.28l-0.02-0.01c0.1,0.13,0.21,0.22,0.37,0.26
		c0.12,0.12,0.23,0.24,0.35,0.36c0.04,0.15,0.14,0.27,0.26,0.36l-0.01-0.02c0.06,0.1,0.15,0.19,0.24,0.27l-0.02,0
		c0.15,0.13,0.12,0.37,0.3,0.49c0.27,0.3,0.41,0.66,0.44,1.06c0.18,1.04,0.19,2.08,0,3.12c-0.06,0.2-0.12,0.39-0.18,0.59
		c-0.22,0.14-0.2,0.41-0.3,0.61c-0.07,0.11-0.14,0.23-0.21,0.34c-0.09,0.09-0.2,0.17-0.27,0.28l0.01-0.02
		c-0.1,0.07-0.19,0.16-0.25,0.26l0.02-0.02c-0.1,0.07-0.19,0.15-0.26,0.26l0.02-0.02c-0.1,0.07-0.19,0.15-0.26,0.26l0.02-0.02
		c-0.1,0.07-0.19,0.15-0.26,0.25l0.02-0.01c-0.12,0.07-0.2,0.18-0.28,0.27c-0.27,0.15-0.55,0.31-0.82,0.46
		c-0.16,0.01-0.27,0.12-0.38,0.21c-0.2,0.08-0.39,0.17-0.59,0.25c-0.2,0.1-0.44,0.1-0.63,0.24c-0.18,0.08-0.37,0.16-0.55,0.24
		c-0.41,0.47-0.33,0.96-0.08,1.46c0.21,0.07,0.41,0.14,0.62,0.21c0.3,0.27,0.73,0.01,1.03,0.25l-0.02-0.01
		c0.23,0.24,0.59,0.07,0.83,0.26c0.28,0.14,0.56,0.29,0.84,0.43c0.12,0.18,0.36,0.14,0.49,0.3l0-0.02c0.08,0.09,0.17,0.18,0.28,0.24
		l-0.03,0c0.1,0.12,0.21,0.22,0.37,0.26c0.2,0.2,0.4,0.39,0.59,0.59c0.04,0.16,0.13,0.27,0.26,0.37l-0.01-0.03
		c0.06,0.11,0.15,0.19,0.24,0.27l-0.02-0.01c0.15,0.14,0.12,0.38,0.3,0.5c0.06,0.12,0.13,0.24,0.19,0.37
		c0.19,0.24,0.02,0.6,0.26,0.83l-0.01-0.02c0.19,1.08,0.17,2.16,0.01,3.25l-0.01,0.09c-0.22,0.25-0.06,0.61-0.25,0.87
		c-0.15,0.28-0.3,0.56-0.44,0.84c-0.12,0.11-0.24,0.22-0.27,0.39c-0.07,0.11-0.13,0.22-0.2,0.33c-0.1,0.09-0.2,0.17-0.28,0.28
		l0.01-0.02c-0.1,0.07-0.19,0.16-0.26,0.26l0.02-0.02c-0.1,0.07-0.19,0.16-0.26,0.26l0.02-0.02c-0.1,0.07-0.19,0.16-0.26,0.26
		l0.02-0.02c-0.11,0.08-0.19,0.18-0.28,0.28c-0.11,0.07-0.22,0.13-0.33,0.2c-0.17,0.04-0.29,0.15-0.38,0.29
		c-0.11,0.07-0.22,0.13-0.33,0.2c-0.16,0.03-0.28,0.13-0.4,0.23c-0.79,0.49-1.63,0.85-2.56,0.98c-0.24,0.18-0.57,0.01-0.8,0.22
		c-0.12,0.01-0.24,0.01-0.37,0.02c-0.33,0.2-0.75-0.01-1.08,0.21c-0.14,0.01-0.28,0.03-0.43,0.04c-1.31,0.16-2.61,0.14-3.92,0.01
		c-0.2-0.01-0.41-0.02-0.61-0.03c-0.39-0.28-0.88,0.02-1.27-0.22c-1.19-0.08-2.29-0.48-3.39-0.89c-0.5-0.18-0.89-0.42-0.42-1.01
		c0.2-0.25,0.04-0.59,0.23-0.84c-0.03-0.04-0.03-0.09,0.01-0.13c0.13-0.19,0.13-0.42,0.21-0.63c0.1-0.41-0.15-1.11,0.73-0.88
		c0.17,0.18,0.41,0.16,0.61,0.26c0.26,0.08,0.52,0.16,0.78,0.24c0.23,0.2,0.57,0.05,0.81,0.24l-0.02-0.01
		c0.32,0.28,0.76,0.03,1.09,0.25l0.04,0c0.51,0.29,1.1-0.02,1.62,0.23l0.06-0.02l0.05,0.04c0.58,0.19,1.16,0.18,1.74,0
		c0.03-0.05,0.06-0.06,0.11-0.02c0.43-0.23,0.94,0.04,1.36-0.22l0.06-0.01c0.26-0.18,0.63,0,0.85-0.28
		c0.19-0.07,0.39-0.14,0.58-0.21c0.16-0.02,0.27-0.12,0.38-0.23l-0.01,0.02c0.13-0.15,0.36-0.1,0.48-0.27l-0.03,0.01
		c0.12-0.07,0.2-0.18,0.29-0.28c0.21-0.22,0.42-0.44,0.64-0.65c0.14-0.09,0.26-0.2,0.3-0.38c0.16-0.35,0.31-0.69,0.47-1.04
		c0.19-0.2,0.12-0.45,0.13-0.69c-0.06-0.6,0.14-1.21-0.13-1.8c-0.16-0.34-0.32-0.69-0.48-1.03
		C482.96,283.8,482.85,283.68,482.73,283.58z"/>
	<path style="fill-rule:evenodd;clip-rule:evenodd;fill:#5689AF;" d="M478.02,278.07c-0.25,0.08-0.5,0.22-0.76,0.24
		c-2.47,0.2-2.47,0.19-2.39,2.65c0.07,0.05,0.09,0.09,0.06,0.13c-0.03,0.03-0.06,0.05-0.08,0.05c-0.48-0.81-0.14-1.69-0.21-2.54
		c-0.04-0.51,0.38-0.51,0.75-0.51C476.27,278.08,477.15,278.07,478.02,278.07z"/>
	<path style="fill-rule:evenodd;clip-rule:evenodd;fill:#57778E;" d="M475.74,294.43c1.31,0,2.62,0,3.92-0.01
		C478.36,294.75,477.05,294.76,475.74,294.43z"/>
	<path style="fill-rule:evenodd;clip-rule:evenodd;fill:#597F9B;" d="M480.64,266.54c-1.16,0-2.32,0-3.48-0.01
		C478.32,266.2,479.48,266.21,480.64,266.54z"/>
	<path style="fill-rule:evenodd;clip-rule:evenodd;fill:#518BB5;" d="M488.78,288.27c0-1.08-0.01-2.16-0.01-3.25
		C489.18,286.1,489.15,287.19,488.78,288.27z"/>
	<path style="fill-rule:evenodd;clip-rule:evenodd;fill:#5786AA;" d="M487.8,274.36c0-1.04,0-2.08,0-3.12
		C488.2,272.28,488.18,273.32,487.8,274.36z"/>
	<path style="fill-rule:evenodd;clip-rule:evenodd;fill:#4D91C1;" d="M474.85,281.14c0-0.06,0.01-0.12,0.02-0.18
		c0.88,0.12,1.8-0.24,2.65,0.23C476.63,281.17,475.74,281.15,474.85,281.14z"/>
	<path style="fill-rule:evenodd;clip-rule:evenodd;fill:#5383A6;" d="M483.48,284.99c0.46,0.61,0.19,1.31,0.22,1.97
		c-0.06,0.11-0.12,0.12-0.18,0C483.5,286.3,483.49,285.65,483.48,284.99z"/>
	<path style="fill-rule:evenodd;clip-rule:evenodd;fill:#4C8EBD;" d="M482.74,273.03c0.4,0.56,0.41,1.13,0,1.69
		C482.75,274.16,482.74,273.6,482.74,273.03z"/>
	<path style="fill-rule:evenodd;clip-rule:evenodd;fill:#278FCD;" d="M477.99,291.05c-0.58,0.35-1.16,0.36-1.74,0
		C476.83,291.05,477.41,291.05,477.99,291.05z"/>
	<path style="fill-rule:evenodd;clip-rule:evenodd;fill:#538EBB;" d="M482.57,280.26c-0.41-0.51-0.51-1,0.08-1.46
		C482.62,279.28,482.59,279.77,482.57,280.26z"/>
	<path style="fill-rule:evenodd;clip-rule:evenodd;fill:#4A89B3;" d="M476.15,291.03c-0.55-0.02-1.13,0.19-1.62-0.23
		C475.08,290.81,475.64,290.74,476.15,291.03z"/>
	<path style="fill-rule:evenodd;clip-rule:evenodd;fill:#478CBA;" d="M476.52,266.59c-0.37,0.35-0.82,0.19-1.25,0.2
		C475.66,266.51,476.09,266.55,476.52,266.59z"/>
	<path style="fill-rule:evenodd;clip-rule:evenodd;fill:#5486AA;" d="M479.46,290.8c-0.4,0.38-0.9,0.21-1.36,0.22
		C478.52,290.76,479,290.81,479.46,290.8z"/>
	<path style="fill-rule:evenodd;clip-rule:evenodd;fill:#537D9C;" d="M473.86,294.18c0.44-0.01,0.9-0.14,1.27,0.22
		C474.69,294.42,474.25,294.46,473.86,294.18z"/>
	<path style="fill-rule:evenodd;clip-rule:evenodd;fill:#508CB8;" d="M484.21,280.72c-0.36-0.01-0.75,0.09-1.03-0.25
		C483.55,280.46,483.92,280.45,484.21,280.72z"/>
	<path style="fill-rule:evenodd;clip-rule:evenodd;fill:#5089B2;" d="M474.48,290.79c-0.38-0.02-0.79,0.13-1.09-0.25
		C473.78,290.55,474.16,290.53,474.48,290.79z"/>
	<path style="fill-rule:evenodd;clip-rule:evenodd;fill:#518EBC;" d="M480.09,294.38c0.31-0.33,0.71-0.2,1.08-0.21
		C480.84,294.42,480.47,294.42,480.09,294.38z"/>
	<path style="fill-rule:evenodd;clip-rule:evenodd;fill:#4B89B4;" d="M482.43,272.31c0.37,0.14,0.34,0.44,0.32,0.74
		C482.64,272.81,482.54,272.56,482.43,272.31z"/>
	<path style="fill-rule:evenodd;clip-rule:evenodd;fill:#4E8AB5;" d="M474.11,270.38c0.21-0.27,0.51-0.23,0.79-0.21
		C474.68,270.4,474.41,270.41,474.11,270.38z"/>
	<path style="fill-rule:evenodd;clip-rule:evenodd;fill:#488CBD;" d="M472.43,270.94c0.16-0.33,0.45-0.3,0.75-0.3
		C472.93,270.74,472.68,270.84,472.43,270.94z"/>
	<path style="fill-rule:evenodd;clip-rule:evenodd;fill:#5185AB;" d="M479.89,277.58c-0.21,0.33-0.54,0.25-0.84,0.25
		C479.32,277.75,479.6,277.67,479.89,277.58z"/>
	<path style="fill-rule:evenodd;clip-rule:evenodd;fill:#4A89B3;" d="M482.75,274.7c0.02,0.3,0.04,0.61-0.33,0.74
		C482.54,275.2,482.64,274.95,482.75,274.7z"/>
	<path style="fill-rule:evenodd;clip-rule:evenodd;fill:#5187AF;" d="M485.03,280.96c-0.3-0.01-0.63,0.07-0.83-0.26
		C484.47,280.79,484.75,280.88,485.03,280.96z"/>
	<path style="fill-rule:evenodd;clip-rule:evenodd;fill:#498BB9;" d="M488.78,285.04c-0.31-0.2-0.25-0.52-0.26-0.83
		C488.6,284.49,488.69,284.77,488.78,285.04z"/>
	<path style="fill-rule:evenodd;clip-rule:evenodd;fill:#5480A2;" d="M488.52,289.22c0-0.31-0.04-0.64,0.25-0.86
		C488.69,288.64,488.6,288.93,488.52,289.22z"/>
	<path style="fill-rule:evenodd;clip-rule:evenodd;fill:#5686AB;" d="M473.42,290.55c-0.3,0.02-0.59,0.03-0.81-0.24
		C472.9,290.32,473.2,290.29,473.42,290.55z"/>
	<path style="fill-rule:evenodd;clip-rule:evenodd;fill:#518AB4;" d="M480.38,290.52c-0.2,0.35-0.54,0.27-0.85,0.28
		C479.81,290.7,480.09,290.61,480.38,290.52z"/>
	<path style="fill-rule:evenodd;clip-rule:evenodd;fill:#458CBC;" d="M473.15,270.65c0.2-0.3,0.5-0.26,0.79-0.24
		C473.73,270.64,473.45,270.67,473.15,270.65z"/>
	<path style="fill-rule:evenodd;clip-rule:evenodd;fill:#3E8BBC;" d="M470.28,291.45c0.01,0.3,0.05,0.61-0.23,0.83
		C470.12,292.01,470.2,291.73,470.28,291.45z"/>
	<path style="fill-rule:evenodd;clip-rule:evenodd;fill:#5581A3;" d="M481.54,294.15c0.21-0.28,0.5-0.24,0.8-0.22
		C482.07,294.01,481.8,294.08,481.54,294.15z"/>
	<path style="fill-rule:evenodd;clip-rule:evenodd;fill:#4686B1;" d="M474.87,266.83c-0.22,0.26-0.51,0.22-0.8,0.2
		C474.31,266.82,474.58,266.78,474.87,266.83z"/>
	<path style="fill-rule:evenodd;clip-rule:evenodd;fill:#5084AA;" d="M473.89,267.05c-0.21,0.27-0.5,0.24-0.78,0.22
		C473.37,267.2,473.63,267.12,473.89,267.05z"/>
	<path style="fill-rule:evenodd;clip-rule:evenodd;fill:#5285A9;" d="M483.52,286.96c0.06,0,0.12,0,0.18,0
		c-0.08,0.17-0.15,0.34-0.23,0.52C483.48,287.3,483.5,287.13,483.52,286.96z"/>
	<path style="fill-rule:evenodd;clip-rule:evenodd;fill:#5A86A9;" d="M479.59,270.17c0.19,0.07,0.38,0.14,0.58,0.21
		C479.98,270.31,479.78,270.24,479.59,270.17z"/>
	<path style="fill-rule:evenodd;clip-rule:evenodd;fill:#5182A6;" d="M487.32,275.56c-0.01-0.26,0.03-0.49,0.3-0.61
		C487.52,275.15,487.42,275.35,487.32,275.56z"/>
	<path style="fill-rule:evenodd;clip-rule:evenodd;fill:#4C91C3;" d="M481.8,289.82c-0.16,0.09-0.32,0.18-0.48,0.27
		C481.48,290,481.64,289.91,481.8,289.82z"/>
	<path style="fill-rule:evenodd;clip-rule:evenodd;fill:#578CB6;" d="M479.3,281.46c0.2,0.07,0.41,0.14,0.61,0.22
		C479.71,281.6,479.51,281.53,479.3,281.46z"/>
	<path style="fill-rule:evenodd;clip-rule:evenodd;fill:#5190BE;" d="M483.2,278.56c0.21-0.08,0.42-0.16,0.63-0.24
		C483.62,278.4,483.41,278.48,483.2,278.56z"/>
	<path style="fill-rule:evenodd;clip-rule:evenodd;fill:#4C91C2;" d="M486.36,281.69c-0.16-0.1-0.33-0.2-0.49-0.3
		C486.03,281.49,486.19,281.59,486.36,281.69z"/>
	<path style="fill-rule:evenodd;clip-rule:evenodd;fill:#517FA0;" d="M470.49,290.7c-0.07,0.21-0.14,0.42-0.21,0.63
		C470.36,291.11,470.42,290.9,470.49,290.7z"/>
	<path style="fill-rule:evenodd;clip-rule:evenodd;fill:#518FBD;" d="M480.53,281.92c0.23,0.01,0.45,0.02,0.57,0.27
		C480.91,282.09,480.72,282,480.53,281.92z"/>
	<path style="fill-rule:evenodd;clip-rule:evenodd;fill:#5B86A7;" d="M472.22,267.54c-0.2,0.07-0.4,0.14-0.59,0.22
		C471.82,267.69,472.02,267.61,472.22,267.54z"/>
	<path style="fill-rule:evenodd;clip-rule:evenodd;fill:#4E90C1;" d="M488.33,283.85c-0.24-0.08-0.28-0.28-0.3-0.5
		C488.13,283.52,488.23,283.69,488.33,283.85z"/>
	<path style="fill-rule:evenodd;clip-rule:evenodd;fill:#5A85A7;" d="M480.4,277.36c-0.18,0.08-0.36,0.16-0.54,0.24
		C480.04,277.51,480.22,277.44,480.4,277.36z"/>
	<path style="fill-rule:evenodd;clip-rule:evenodd;fill:#4C91C2;" d="M487.37,270.17c-0.1-0.16-0.2-0.33-0.3-0.49
		C487.17,269.85,487.27,270.01,487.37,270.17z"/>
	<path style="fill-rule:evenodd;clip-rule:evenodd;fill:#4D87B1;" d="M471.24,269.65c0.08,0.21,0.15,0.42,0.23,0.63
		C471.25,270.12,471.2,269.9,471.24,269.65z"/>
	<path style="fill-rule:evenodd;clip-rule:evenodd;fill:#528FBD;" d="M471.84,290.07c-0.24,0-0.48,0-0.61-0.26
		C471.43,289.9,471.63,289.99,471.84,290.07z"/>
	<path style="fill-rule:evenodd;clip-rule:evenodd;fill:#587B95;" d="M487.09,269.69c-0.08-0.09-0.16-0.18-0.24-0.27
		C486.93,269.51,487.01,269.6,487.09,269.69z"/>
	<path style="fill-rule:evenodd;clip-rule:evenodd;fill:#597C95;" d="M486.63,281.91c-0.09-0.08-0.18-0.16-0.28-0.24
		C486.44,281.75,486.54,281.83,486.63,281.91z"/>
	<path style="fill-rule:evenodd;clip-rule:evenodd;fill:#588BB3;" d="M481.2,270.88c0.12,0.08,0.24,0.17,0.36,0.25
		C481.44,271.05,481.32,270.97,481.2,270.88z"/>
	<path style="fill-rule:evenodd;clip-rule:evenodd;fill:#4E90C0;" d="M486.96,282.16c-0.12-0.09-0.24-0.17-0.37-0.26
		C486.72,281.99,486.84,282.08,486.96,282.16z"/>
	<path style="fill-rule:evenodd;clip-rule:evenodd;fill:#5A7E99;" d="M481.44,282.4c0.13,0.09,0.25,0.18,0.38,0.27
		C481.69,282.58,481.57,282.49,481.44,282.4z"/>
	<path style="fill-rule:evenodd;clip-rule:evenodd;fill:#528FBE;" d="M487.82,283.12c-0.09-0.12-0.17-0.25-0.26-0.37
		C487.64,282.88,487.73,283,487.82,283.12z"/>
	<path style="fill-rule:evenodd;clip-rule:evenodd;fill:#5A809C;" d="M488.05,283.37c-0.08-0.09-0.16-0.18-0.24-0.27
		C487.89,283.18,487.97,283.28,488.05,283.37z"/>
	<path style="fill-rule:evenodd;clip-rule:evenodd;fill:#587991;" d="M481.54,271.13c0.09,0.08,0.17,0.17,0.26,0.25
		C481.71,271.3,481.62,271.21,481.54,271.13z"/>
	<path style="fill-rule:evenodd;clip-rule:evenodd;fill:#5A7D96;" d="M482.73,283.58c0.09,0.13,0.18,0.25,0.27,0.38
		C482.91,283.83,482.82,283.71,482.73,283.58z"/>
	<path style="fill-rule:evenodd;clip-rule:evenodd;fill:#587991;" d="M481.78,271.36c0.08,0.09,0.17,0.17,0.25,0.26
		C481.95,271.54,481.86,271.45,481.78,271.36z"/>
	<path style="fill-rule:evenodd;clip-rule:evenodd;fill:#568CB6;" d="M482.02,271.6c0.08,0.12,0.17,0.24,0.25,0.37
		C482.19,271.84,482.11,271.72,482.02,271.6z"/>
	<path style="fill-rule:evenodd;clip-rule:evenodd;fill:#568CB6;" d="M482.28,275.79c-0.09,0.12-0.17,0.25-0.26,0.37
		C482.11,276.04,482.19,275.92,482.28,275.79z"/>
	<path style="fill-rule:evenodd;clip-rule:evenodd;fill:#5B83A2;" d="M486.85,276.18c0.09-0.09,0.18-0.19,0.27-0.28
		C487.02,275.99,486.94,276.09,486.85,276.18z"/>
	<path style="fill-rule:evenodd;clip-rule:evenodd;fill:#5B819F;" d="M482.04,276.14c-0.1,0.09-0.21,0.18-0.31,0.28
		C481.83,276.32,481.93,276.23,482.04,276.14z"/>
	<path style="fill-rule:evenodd;clip-rule:evenodd;fill:#5987AC;" d="M483,288.52c-0.1,0.13-0.2,0.25-0.3,0.38
		C482.8,288.77,482.9,288.64,483,288.52z"/>
	<path style="fill-rule:evenodd;clip-rule:evenodd;fill:#5B82A0;" d="M482.06,289.55c-0.1,0.09-0.19,0.19-0.29,0.28
		C481.87,289.74,481.96,289.64,482.06,289.55z"/>
	<path style="fill-rule:evenodd;clip-rule:evenodd;fill:#4A91C4;" d="M486.37,276.66c0.08-0.09,0.17-0.17,0.26-0.26
		C486.54,276.49,486.45,276.58,486.37,276.66z"/>
	<path style="fill-rule:evenodd;clip-rule:evenodd;fill:#5986A9;" d="M481.58,276.57c-0.13,0.1-0.25,0.21-0.38,0.31
		C481.32,276.78,481.45,276.67,481.58,276.57z"/>
	<path style="fill-rule:evenodd;clip-rule:evenodd;fill:#5A84A5;" d="M481.33,290.07c-0.13,0.08-0.25,0.15-0.37,0.23
		C481.08,290.23,481.21,290.15,481.33,290.07z"/>
	<path style="fill-rule:evenodd;clip-rule:evenodd;fill:#598AB0;" d="M487.8,290.45c0.09-0.13,0.18-0.26,0.27-0.39
		C487.98,290.19,487.89,290.32,487.8,290.45z"/>
	<path style="fill-rule:evenodd;clip-rule:evenodd;fill:#4A91C4;" d="M486.12,276.9c0.09-0.09,0.17-0.17,0.26-0.26
		C486.3,276.73,486.21,276.82,486.12,276.9z"/>
	<path style="fill-rule:evenodd;clip-rule:evenodd;fill:#538EBA;" d="M485.88,277.14c0.09-0.08,0.17-0.17,0.26-0.25
		C486.05,276.97,485.97,277.05,485.88,277.14z"/>
	<path style="fill-rule:evenodd;clip-rule:evenodd;fill:#5B84A4;" d="M480.9,277.1c-0.14,0.08-0.28,0.16-0.41,0.24
		C480.62,277.26,480.76,277.18,480.9,277.1z"/>
	<path style="fill-rule:evenodd;clip-rule:evenodd;fill:#5A7F9A;" d="M485.62,277.4c0.09-0.09,0.19-0.18,0.28-0.27
		C485.81,277.22,485.71,277.31,485.62,277.4z"/>
	<path style="fill-rule:evenodd;clip-rule:evenodd;fill:#5A84A4;" d="M484.42,278.07c0.13-0.07,0.25-0.14,0.38-0.21
		C484.67,277.93,484.54,278,484.42,278.07z"/>
	<path style="fill-rule:evenodd;clip-rule:evenodd;fill:#558CB7;" d="M486.25,268.72c-0.12-0.09-0.25-0.17-0.37-0.26
		C486,268.55,486.13,268.63,486.25,268.72z"/>
	<path style="fill-rule:evenodd;clip-rule:evenodd;fill:#587A94;" d="M487.32,291.06c0.09-0.09,0.19-0.19,0.28-0.28
		C487.51,290.87,487.42,290.97,487.32,291.06z"/>
	<path style="fill-rule:evenodd;clip-rule:evenodd;fill:#528FBC;" d="M486.61,276.42c0.08-0.09,0.17-0.17,0.25-0.26
		C486.77,276.25,486.69,276.34,486.61,276.42z"/>
	<path style="fill-rule:evenodd;clip-rule:evenodd;fill:#5A819F;" d="M487.08,291.3c0.09-0.09,0.17-0.17,0.26-0.26
		C487.25,291.13,487.17,291.21,487.08,291.3z"/>
	<path style="fill-rule:evenodd;clip-rule:evenodd;fill:#5A809D;" d="M486.84,291.54c0.09-0.09,0.17-0.17,0.26-0.26
		C487.01,291.37,486.93,291.45,486.84,291.54z"/>
	<path style="fill-rule:evenodd;clip-rule:evenodd;fill:#5B84A4;" d="M484.31,267.49c-0.12-0.06-0.24-0.13-0.37-0.19
		C484.06,267.37,484.19,267.43,484.31,267.49z"/>
	<path style="fill-rule:evenodd;clip-rule:evenodd;fill:#5A7F9B;" d="M486.6,291.78c0.09-0.08,0.17-0.17,0.26-0.26
		C486.77,291.61,486.69,291.69,486.6,291.78z"/>
	<path style="fill-rule:evenodd;clip-rule:evenodd;fill:#5A7F9A;" d="M486.34,292.04c0.09-0.09,0.19-0.19,0.28-0.28
		C486.53,291.85,486.43,291.95,486.34,292.04z"/>
	<path style="fill-rule:evenodd;clip-rule:evenodd;fill:#518FBD;" d="M485.63,292.53c0.13-0.1,0.25-0.19,0.38-0.29
		C485.88,292.34,485.75,292.43,485.63,292.53z"/>
	<path style="fill-rule:evenodd;clip-rule:evenodd;fill:#5B82A1;" d="M484.89,292.96c0.13-0.08,0.27-0.15,0.4-0.23
		C485.16,292.8,485.02,292.88,484.89,292.96z"/>
	<path style="fill-rule:evenodd;clip-rule:evenodd;fill:#5989B0;" d="M484.8,267.74c-0.13-0.07-0.27-0.15-0.4-0.22
		C484.53,267.59,484.67,267.67,484.8,267.74z"/>
	<path style="fill-rule:evenodd;clip-rule:evenodd;fill:#5B809D;" d="M485.28,267.99c-0.13-0.08-0.27-0.16-0.41-0.24
		C485.01,267.83,485.15,267.91,485.28,267.99z"/>
	<path style="fill-rule:evenodd;clip-rule:evenodd;fill:#5A809C;" d="M485.9,268.47c-0.09-0.09-0.19-0.19-0.28-0.28
		C485.71,268.29,485.81,268.38,485.9,268.47z"/>
	<path style="fill-rule:evenodd;clip-rule:evenodd;fill:#578CB4;" d="M486.86,269.44c-0.09-0.12-0.17-0.24-0.26-0.36
		C486.68,269.2,486.77,269.32,486.86,269.44z"/>
</g>
</svg>
