<?xml version="1.0" encoding="utf-8"?>
<!-- Generator: Adobe Illustrator 16.0.0, SVG Export Plug-In . SVG Version: 6.00 Build 0)  -->
<!DOCTYPE svg PUBLIC "-//W3C//DTD SVG 1.0//EN" "http://www.w3.org/TR/2001/REC-SVG-20010904/DTD/svg10.dtd" [
	<!ENTITY ns_flows "http://ns.adobe.com/Flows/1.0/">
	<!ENTITY ns_extend "http://ns.adobe.com/Extensibility/1.0/">
	<!ENTITY ns_ai "http://ns.adobe.com/AdobeIllustrator/10.0/">
	<!ENTITY ns_graphs "http://ns.adobe.com/Graphs/1.0/">
]>
<svg version="1.0" id="Layer_1" xmlns:x="&ns_extend;" xmlns:i="&ns_ai;" xmlns:graph="&ns_graphs;"
	 xmlns="http://www.w3.org/2000/svg" xmlns:xlink="http://www.w3.org/1999/xlink" xmlns:a="http://ns.adobe.com/AdobeSVGViewerExtensions/3.0/"
	 x="0px" y="0px" width="960px" height="560px" viewBox="0 0 960 560" style="enable-background:new 0 0 960 560;"
	 xml:space="preserve">
<g>
	<path style="fill-rule:evenodd;clip-rule:evenodd;fill:#252422;" d="M493.48,288.32c-0.55,0.41-1.1,0.81-1.65,1.22
		c-0.32,0.14-0.69,0.04-1.01,0.22c-0.58,0.12-0.91,0.62-1.4,0.88c-0.16,0.03-0.32,0.01-0.47-0.05c-1.02-0.23-2.01,0.01-3.01,0.17
		c-0.71,0.08-1.37-0.25-2.07-0.19c-0.12,0-0.23-0.02-0.35-0.03c-0.12-0.02-0.23-0.05-0.34-0.08c-0.21-0.07-0.43-0.14-0.64-0.21
		c-0.75-0.31-1.51-0.62-2.27-0.91c-0.25-0.09-0.49-0.2-0.73-0.31c-0.24-0.1-0.49-0.19-0.73-0.28c-0.29-0.13-0.57-0.27-0.85-0.4
		c-0.38-0.19-0.77-0.37-1.15-0.56c-1.74-1.07-3.33-2.32-4.77-3.77c-0.32-0.35-0.66-0.68-0.99-1.03c-0.14-0.15-0.26-0.32-0.36-0.5
		c-0.14-0.26-0.28-0.53-0.45-0.78c-0.11-0.17-0.21-0.34-0.29-0.53c-0.09-0.24-0.17-0.48-0.25-0.71c-0.08-0.23-0.14-0.47-0.37-0.6
		c-1.56,0.75-2.91,1.84-4.45,2.6c-0.27,0.13-0.55,0.25-0.82,0.38c-0.08,0.04-0.17,0.08-0.25,0.12c-0.12,0.05-0.24,0.11-0.36,0.16
		c-0.07,0.04-0.15,0.07-0.22,0.11c-0.11,0.06-0.21,0.12-0.3,0.2c-0.04,0.07-0.09,0.14-0.13,0.21c-0.07,0.16-0.13,0.33-0.27,0.45
		c-0.09,0.04-0.18,0.06-0.27,0.06c-0.12,0-0.25-0.02-0.37-0.01c0,0.01-0.08,0.09-0.05,0.1c0.17-0.03,0.32,0,0.46,0.02
		c0.16,0.01,0.32,0.01,0.47,0.06c0.44,0.18,0.86,0.42,1.29,0.63c0.33,0.19,0.6,0.44,0.87,0.69c0.08,0.07,0.16,0.14,0.23,0.22
		c0.08,0.07,0.15,0.15,0.22,0.23c0.29,0.32,0.52,0.68,0.78,1.02c1.05,1.58,2.02,3.22,2.79,4.96c0.52,1.18,1.51,1.9,2.46,2.68
		c0.08,0.06,0.15,0.14,0.23,0.21c0.04,0.03,0.07,0.07,0.11,0.1c0.21,0.2,0.47,0.36,0.71,0.52c0.13,0.08,0.25,0.15,0.38,0.23
		c0.09,0.05,0.17,0.11,0.26,0.16c0.26,0.19,0.56,0.3,0.86,0.4c2.39,0.58,4.6-0.19,6.83-0.86c2.7-0.77,4.92-2.45,7.31-3.81
		c0.48-0.28,0.91-0.66,1.44-0.86c0.12-0.03,0.24-0.03,0.36-0.02c0.18,0.07,0.32,0.16,0.24,0.39c-3.68,3.19-7.76,5.6-12.48,7.03
		c-4.25,1.29-8.1-1.25-10.21-4.38c-1.19-1.76-1.93-3.75-2.84-5.64c-0.56-1.17-1.28-1.6-2.53-0.99c-0.52,0.25-1.15,0.31-1.74,0.4
		c-0.56,0.09-0.84-0.15-0.66-0.75c0.66-0.09,1.31-0.23,1.95-0.42c0.17-0.05,0.47-0.02,0.44-0.26c-0.02-0.13-0.34-0.13-0.54-0.15
		c-0.32-0.03-0.62,0.05-0.9,0.22c-0.22,0.13-0.42,0.51-0.69,0.33c-0.33-0.23-0.16-0.64-0.08-0.97c0.12-1.14,0.81-1.81,1.78-2.34
		c2.19-1.2,4.34-2.47,6.5-3.73c0.76-0.44,1.4-1.03,1.86-1.8c0.22-0.05,0.33,0.08,0.42,0.25c0.14,1.48,0.6,2.85,1.43,4.08
		c1,1.4,2.57,2.16,3.77,3.35c3.36,2.25,6.85,4.11,11.07,3.97c0.97-0.03,1.9-0.23,2.83-0.47c2-0.53,2.32-0.82,2.39-2.84
		c0.07-2.19,0.42-4.37,0.29-6.57c0.12-0.66-0.12-1.61,1.11-1.34c0.29,0.26,0.37,0.6,0.31,0.97c-0.24,1.33,0.05,2.68-0.12,4.01
		c0.27,0.78-0.35,1.47-0.25,2.24c0.04,0.1,0.07,0.2,0.11,0.3c0.04,0.1,0.08,0.2,0.1,0.31c0.06,0.33-0.03,0.63-0.22,0.9
		c-0.13,0.19-0.3,0.37-0.33,0.62c0.01,0.3,0.27,0.32,0.46,0.42C493.47,288.05,493.58,288.15,493.48,288.32z"/>
	<path style="fill-rule:evenodd;clip-rule:evenodd;fill:#262625;" d="M474.5,270.05c3.47-3.89,7.55-6.57,12.98-6.6
		c0.29,0,0.53,0,0.79-0.17c1.39-0.89,2.19-0.67,2.99,0.82c0.18,0.34,0.35,0.65,0.73,0.73c3.35,0.7,4.57,3.24,5.36,6.16
		c0.12,0.24,0.13,0.46-0.16,0.58c-0.69-0.33-0.79-1.04-0.99-1.64c-0.31-0.92-0.76-1.71-1.55-2.29c-0.27-0.33-0.51-0.7-0.8-1.02
		c-0.17-0.2-0.35-0.37-0.59-0.49c-0.18-0.08-0.35-0.16-0.53-0.23c-0.79-0.3-1.31-0.14-1.37,0.8c-0.08,0.1-0.29,0-0.28,0.22
		c0.16,0.23,0.26,0.49,0.34,0.74c0.11,0.31,0.19,0.63,0.16,0.97c-0.02,0.12-0.05,0.22-0.1,0.33c-0.1,0.16-0.24,0.25-0.43,0.2
		c-0.51-0.42-0.53-1.11-0.87-1.63c-0.31-0.54-0.32-1.27-1-1.57c-0.28-0.18-0.49-0.41-0.67-0.68c-0.09-0.13-0.16-0.26-0.25-0.39
		c-0.06-0.08-0.12-0.16-0.18-0.24c-0.36-0.35-0.84-0.23-1.28-0.3c-2.6-0.16-4.71,1.2-6.93,2.22c-0.31,0.14-0.29,0.41-0.26,0.71
		c0.08,0.79,0.01,1.58-0.01,2.38c-0.05,0.37-0.18,0.7-0.37,1.02c-0.45,0.58-0.67,1.25-0.77,1.97c-0.06,0.42-0.01,0.9-0.49,1.14
		c-0.12,0.03-0.24,0.02-0.35-0.03c-0.33-0.32-0.27-0.72-0.23-1.12c0.04-0.32,0.16-0.66,0-0.94c-0.76-1.36-0.33-2.61,0.29-3.85
		c0.04-0.08,0.12-0.13,0.19-0.18c-0.12,0.05-0.18,0.15-0.26,0.24c-0.64,0.71-1.44,1.26-2.08,1.97c-0.21,0.23-0.45,0.45-0.78,0.53
		C474.56,270.36,474.41,270.29,474.5,270.05z"/>
	<path style="fill-rule:evenodd;clip-rule:evenodd;fill:#413F2F;" d="M493.48,288.32c-0.08-0.08-0.16-0.16-0.24-0.24
		c-0.03-0.05-0.06-0.1-0.09-0.15c0.02-0.11,0.08-0.21,0.15-0.3c1.63-1.09,2.86-2.6,4.25-3.96c0.37-0.36,0.69-0.78,0.48-1.37
		c-0.07-0.23-0.13-0.45-0.08-0.69c0.64-1.03,0.28-2.26,0.71-3.33c0.1-0.1,0.21-0.12,0.33-0.04
		C499.46,282.96,497.69,286.21,493.48,288.32z"/>
	<path style="fill-rule:evenodd;clip-rule:evenodd;fill:#2F2F3B;" d="M474.5,270.05c0.08,0.09,0.15,0.18,0.23,0.26
		c-0.24,1.26-1.23,2.13-1.69,3.28c-0.72,1.24-1.4,2.49-2.13,3.72c-0.17,0.28-0.21,0.72-0.7,0.7c-0.08-0.08-0.16-0.17-0.24-0.25
		C471.25,275.05,472.61,272.39,474.5,270.05z"/>
	<path style="fill-rule:evenodd;clip-rule:evenodd;fill:#4D482F;" d="M459.85,285.63c0.24-0.01-0.4,1.29,0.55,0.33
		c0.59-0.6,1.44-0.26,2.15,0.01c0.44,0.17,0.31,0.43-0.04,0.53c-0.93,0.27-1.82,0.89-2.85,0.38
		C459.58,286.44,459.6,286.02,459.85,285.63z"/>
	<path style="fill-rule:evenodd;clip-rule:evenodd;fill:#4C4B42;" d="M497.13,271.51c0.07-0.17,0.14-0.34,0.22-0.51
		c0.3,0.98,0.6,1.96,0.89,2.93c-0.13,0.17-0.01,0.5-0.34,0.55c-0.12-0.03-0.22-0.1-0.28-0.2
		C497.4,273.36,496.74,272.53,497.13,271.51z"/>
	<path style="fill-rule:evenodd;clip-rule:evenodd;fill:#48473E;" d="M498.01,274.47c0.08-0.18,0.16-0.36,0.23-0.54
		c0.02,0.13,0.05,0.25,0.07,0.38c0.07,0.19,0.07,0.39,0.17,0.57c0.1,0.61,0.21,1.21,0.31,1.82c0.07,0.28,0.17,0.56-0.03,0.83
		c-0.11,0.05-0.22,0.04-0.32-0.03c-0.15-0.18-0.19-0.41-0.22-0.63c-0.02-0.27-0.06-0.54-0.16-0.8c-0.08-0.26-0.17-0.53-0.24-0.79
		C497.78,274.98,497.77,274.7,498.01,274.47z"/>
	<path style="fill-rule:evenodd;clip-rule:evenodd;fill:#3D3C2F;" d="M490.83,289.47c0.36-0.38,0.68-0.07,1.01,0.07
		c-0.5,0.63-1,1.25-1.71,1.67c-0.09-0.09-0.19-0.18-0.28-0.27C489.72,290.14,490.74,290.12,490.83,289.47z"/>
	<path style="fill-rule:evenodd;clip-rule:evenodd;fill:#585540;" d="M498.55,277.51c0.08-0.27,0.16-0.54,0.25-0.81
		c0.2,0.5,0.25,1.02,0.19,1.54c-0.08,0-0.17,0-0.25,0.01c-0.12,0.02-0.22-0.02-0.3-0.12C498.32,277.9,498.32,277.68,498.55,277.51z"
		/>
	<path style="fill-rule:evenodd;clip-rule:evenodd;fill:#4C4B42;" d="M498.48,274.88c-0.06-0.19-0.11-0.38-0.17-0.57
		C498.37,274.49,498.42,274.68,498.48,274.88z"/>
	<path style="fill-rule:evenodd;clip-rule:evenodd;fill:#322F81;" d="M492.51,279.45c0.03,2.68-0.21,5.33-0.41,8
		c-0.07,0.88-0.52,1.16-1.18,1.42c-4.55,1.82-8.78,0.79-12.85-1.48c-0.99-0.56-2.12-0.97-2.82-1.96c0.47-0.4,0.91-0.11,1.33,0.07
		c1.92,0.8,3.93,1.3,5.94,1.83c1.71,0.45,3.04-0.05,4.12-1.42c0.39-0.49,0.72-0.91-0.13-1.27c-0.22-0.09-0.4-0.29-0.13-0.55
		c1.16-0.37,2.42-0.21,3.54-0.83c0.6-0.33,0.86-0.69,0.83-1.37c-0.03-0.86-0.11-1.74,0.12-2.59c0.6-0.58,0.63-1.52,1.28-2.07
		c0.44,0.23,0.39,0.59,0.3,0.99C492.37,278.63,492.31,279.05,492.51,279.45z"/>
	<path style="fill-rule:evenodd;clip-rule:evenodd;fill:#333988;" d="M486.28,284.3c1.76,0.47,1.73,0.59,0.43,2.08
		c-1.28,1.47-2.73,1.69-4.52,1.25c-2.36-0.59-4.64-1.41-6.94-2.18c-1.27-0.97-2.69-1.76-3.6-3.14c-0.54-1.72,0.49-3.01,1.21-4.39
		c0.76-0.69,1.38-1.67,2.65-1.38c0.13,0.71-0.39,1.19-0.66,1.74c-1.67,3.4-1.27,4.61,2.1,6.21c1.82,0.86,3.79,1.26,5.72,1.74
		c1.55,0.38,2.33-0.22,3.13-2.04C485.99,284.11,486.15,284.12,486.28,284.3z"/>
	<path style="fill-rule:evenodd;clip-rule:evenodd;fill:#FEF178;" d="M472.09,283.77c1.62,1.26,3.24,2.53,4.86,3.79
		c0.46,1.06-0.3,1.58-1.04,1.76c-1.84,0.44-3.71,0.57-5.37-0.65c-1.88-1.37-1.7-3.83,0.33-4.86
		C471.27,283.6,471.67,283.44,472.09,283.77z"/>
	<path style="fill-rule:evenodd;clip-rule:evenodd;fill:#EBD01F;" d="M480.29,289.07c0.8,0.32,1.59,0.64,2.39,0.96
		c0.08,0.11,0.1,0.22,0.05,0.34c-1.08,1.5-2.57,2.36-4.34,2.76c-1.67,0.38-3.35,0.74-4.89,1.53c-0.31,0.03-0.6-0.05-0.89-0.16
		c-0.26-0.15-0.55-0.28-0.49-0.66c0.49-0.7,1.29-0.95,1.96-1.39c1.65-0.44,3.33-0.75,4.81-1.7
		C479.56,290.32,480.06,289.83,480.29,289.07z"/>
	<path style="fill-rule:evenodd;clip-rule:evenodd;fill:#FCEC63;" d="M472.09,283.77c-1.56,0.29-2.69,1.43-2.6,2.63
		c0.1,1.38,1.88,2.85,3.53,2.87c0.85,0.01,1.71-0.03,2.55-0.16c0.82-0.13,1.36-0.64,1.38-1.55c0.39,0.2,0.79,0.39,1.18,0.59
		c0.3,0.42,0.12,0.76-0.19,1.05c-2.06,1.96-6.7,2.03-8.53-0.4c-1.26-1.67-1.01-3.72,0.74-5.58c0.3-0.26,0.58-0.56,1.04-0.44
		C471.49,283.11,471.79,283.44,472.09,283.77z"/>
	<path style="fill-rule:evenodd;clip-rule:evenodd;fill:#7C7234;" d="M465.62,287.84c0.75,0.95,1.29,2.02,1.79,3.11
		c2.2,4.83,5.37,6.7,10.74,6.29c0.14-0.01,0.29,0.04,0.44,0.06c-0.1,0.05-0.21,0.1-0.31,0.14c-2.54,0.81-4.86,0.75-7.26-0.83
		c-3.51-2.31-4.72-5.98-6.35-9.45c-0.08-0.25,0.04-0.3,0.26-0.27l0.01,0c0.08,0.06,0.14,0.13,0.19,0.22c0.1,0.16,0.2,0.32,0.29,0.48
		C465.48,287.67,465.55,287.75,465.62,287.84z"/>
	<path style="fill-rule:evenodd;clip-rule:evenodd;fill:#F2D618;" d="M474.04,292.64c-0.5,0.62-1.2,0.91-1.91,1.19
		c0,0-0.1,0.01-0.1,0.01c-0.06,0.02-0.12,0.05-0.17,0.1c-0.04,0.05-0.07,0.11-0.07,0.17c0.01,0.07,0.03,0.13,0.08,0.19
		c0.08,0.09,0.16,0.18,0.23,0.28c0.05,0.08,0.09,0.16,0.11,0.25c0,0.05-0.01,0.09-0.01,0.14c-0.12,0.22-0.23,0.45-0.55,0.29l-0.01,0
		c-0.09-0.08-0.18-0.16-0.29-0.21c-1.75-0.95-2.59-2.61-3.42-4.3c-0.61-1.25-1.36-2.44-2.04-3.65c-0.21-0.86,0.25-0.9,0.89-0.72
		c0.51,0.3,0.55,0.97,1.03,1.29c0.08,0.08,0.14,0.17,0.18,0.27c0.14,0.58,0.37,1.12,0.86,1.51c0.06,0.09,0.11,0.19,0.15,0.29
		c0.19,0.53,0.16,1.19,0.83,1.45c0.28,0.16,0.6,0.28,0.69,0.65c-0.17,1.04,0.38,0.45,0.74,0.32
		C472.21,292.17,473.18,292.1,474.04,292.64z"/>
	<path style="fill-rule:evenodd;clip-rule:evenodd;fill:#312F80;" d="M473.08,278.03c-0.69,1.35-1.37,2.7-1.44,4.27
		c-0.95-1.27-1.59-2.64-1.43-4.28c0.88-1.53,1.75-3.05,2.62-4.58c0.63,0.86,0.19,1.94,0.58,2.84c0.04,0.31-0.15,0.51-0.36,0.68
		C472.57,277.34,472.79,277.68,473.08,278.03z"/>
	<path style="fill-rule:evenodd;clip-rule:evenodd;fill:#F6DE2C;" d="M474.04,292.64c-1.06-0.07-2.13-0.14-3.19-0.21
		c-0.33-0.04-0.56-0.15-0.4-0.55c-0.27-0.15-0.53-0.31-0.8-0.46c-0.4-0.31-0.51-0.69-0.26-1.15c0.28-0.2,0.53-0.06,0.78,0.07
		c3.41,1.73,6.44,1.08,9.19-1.43c0.06-0.05,0.14-0.08,0.21-0.1c0.24,0.09,0.48,0.18,0.72,0.27c0.45,0.63,0.1,1.07-0.39,1.41
		C478.13,291.71,476.21,292.51,474.04,292.64z"/>
	<path style="fill-rule:evenodd;clip-rule:evenodd;fill:#EFD317;" d="M493.2,283.29c-0.46-0.31-0.26-0.64-0.07-1
		c0.26-0.51,0.34-1.08,0-1.57c-0.59-0.86,0.65-1.63,0.07-2.46c-0.92-0.55-1.04-0.91-0.52-1.81c0.16-0.27,0.06-0.64,0.35-0.85
		c0.99,0.4,1.32,1.39,1.92,2.14c0.3,0.8,0.75,1.55,0.73,2.44c-0.22,1.13-0.54,2.23-1.27,3.15
		C494.03,283.81,493.58,284.08,493.2,283.29z"/>
	<path style="fill-rule:evenodd;clip-rule:evenodd;fill:#FBE74F;" d="M470.44,283.28c-1.78,2.25-1.97,3.97-0.61,5.5
		c1.78,2.01,6.35,2.03,8.11,0.02c0.14-0.16,0.13-0.44,0.19-0.66c0.25,0.13,0.49,0.26,0.74,0.38c0.27,0.45,0.01,0.77-0.3,1.04
		c-2.91,2.47-8.4,2.43-10.28-1.36c-0.39-1.64,0-3.13,0.96-4.48C469.51,283.36,469.86,282.95,470.44,283.28z"/>
	<path style="fill-rule:evenodd;clip-rule:evenodd;fill:#9A8A31;" d="M486.04,290.47c0.9-0.14,1.8-0.3,2.71-0.41
		c0.32-0.04,0.2,0.25,0.16,0.42c-0.02,0.04-0.04,0.08-0.06,0.13c-0.15,0.18-0.35,0.32-0.52,0.48c-0.1,0.1-0.22,0.18-0.34,0.26
		c-0.2,0.12-0.42,0.21-0.62,0.33c-0.2,0.12-0.38,0.26-0.58,0.39c-0.16,0.1-0.33,0.19-0.5,0.28c-0.21,0.12-0.41,0.25-0.61,0.39
		c-0.08,0.06-0.16,0.11-0.25,0.16c-0.08,0.06-0.16,0.12-0.24,0.17c-0.04,0.03-0.08,0.06-0.12,0.09c-0.32,0.27-0.7,0.44-1.08,0.59
		c-0.09,0.05-0.19,0.09-0.28,0.12c-0.27,0.11-0.56,0.2-0.82,0.33c-0.16,0.09-0.33,0.18-0.5,0.24c-0.06,0.05-0.27,0.01-0.09,0.19
		c0.03,0.09,0.04,0.18,0.02,0.27c-0.14,0.29-0.37,0.31-0.64,0.21c-0.26-0.19-0.56-0.33-0.71-0.65c1.33-1.48,2.84-2.74,4.58-3.7
		C485.71,290.68,485.91,290.63,486.04,290.47z"/>
	<path style="fill-rule:evenodd;clip-rule:evenodd;fill:#F9E441;" d="M468.52,288.08c2.2,3.73,6.94,3.5,9.88,1.26
		c0.27-0.2,0.43-0.47,0.46-0.81c0.24,0.09,0.47,0.19,0.71,0.28c-0.82,1.74-4.21,3.08-6.52,2.79c-1.35-0.17-2.51-0.67-3.65-1.32
		c-0.13,0.03-0.22-0.04-0.3-0.12c-0.06-0.05-0.1-0.1-0.14-0.17c-0.05-0.05-0.1-0.1-0.17-0.14c-0.01-0.11-0.03-0.21-0.04-0.32
		c-0.29-0.33-0.48-0.69-0.42-1.15C468.36,288.25,468.43,288.15,468.52,288.08z"/>
	<path style="fill-rule:evenodd;clip-rule:evenodd;fill:#B5A02D;" d="M486.04,290.47c-1.51,1.21-3.02,2.42-4.53,3.63
		c-0.18,0.14-0.35,0.3-0.52,0.45c-0.01,0.05-0.01,0.1-0.02,0.15c-0.04,0.09-0.1,0.18-0.17,0.25c-0.04,0.03-0.08,0.06-0.12,0.09
		c-0.13,0.07-0.28,0.11-0.43,0.11c-0.28-0.01-0.57-0.05-0.84,0.11c-0.18,0.09-0.35,0.17-0.55,0.19c-0.29,0.01-0.58-0.04-0.86,0.08
		c-0.27,0.09-0.56,0.12-0.84,0.07c-0.17-0.02-0.34-0.04-0.52,0c-0.12,0.04-0.23,0.11-0.35,0.18c-0.08,0.05-0.17,0.06-0.27,0.06
		c-0.19-0.05-0.34-0.17-0.53-0.22c-0.25-0.07-0.51-0.09-0.72-0.26c-0.06-0.1-0.08-0.2-0.03-0.3c0.56-0.47,1.28-0.49,1.91-0.5
		c2.24-0.02,4.06-0.96,5.66-2.42c0.48-0.44,1.13-0.73,1.4-1.38c-0.05-0.08-0.1-0.16-0.14-0.25c-0.04-0.1-0.01-0.18,0.06-0.25
		C484.44,290.33,485.24,290.4,486.04,290.47z"/>
	<path style="fill-rule:evenodd;clip-rule:evenodd;fill:#DFC31F;" d="M493.2,283.29c0.51,0.53,0.83,0.13,1.09-0.26
		c0.57-0.87,0.85-1.87,1.11-2.87c0.41-0.52,0.53-1.43,1.55-1.1c-0.26,2.37-0.84,4.62-2.64,6.35c-0.3,0.29-0.57,0.7-1.1,0.54l0.01,0
		c-0.05-0.12-0.15-0.19-0.25-0.26C492.17,284.81,493.71,284.15,493.2,283.29z"/>
	<path style="fill-rule:evenodd;clip-rule:evenodd;fill:#CCB428;" d="M493.21,285.95c2.48-1.67,2.92-4.39,3.63-6.98
		c-0.05-0.06-0.08-0.12-0.07-0.19c0-0.07,0.01-0.1,0.03-0.1c0.52-0.43,0.92-1.05,1.68-1.13l0.08-0.03c0,0.24,0,0.48,0,0.73
		c-0.01,0.06-0.02,0.11-0.03,0.17c-1.27,1.64-1.24,3.76-2.05,5.57c-0.04,0.1-0.1,0.19-0.16,0.29c-0.08,0.14-0.17,0.27-0.26,0.4
		c-0.18,0.31-0.34,0.65-0.71,0.8c-0.3,0.14-0.62,0.24-0.85,0.5c-0.13,0.3,0.13,0.68-0.2,0.92c-0.08,0.06-0.17,0.1-0.27,0.12
		c-0.19,0.02-0.38,0.05-0.57,0.12c-0.17-0.02-0.51,0.26-0.43-0.23C493.09,286.57,493.15,286.26,493.21,285.95z"/>
	<path style="fill-rule:evenodd;clip-rule:evenodd;fill:#8D8133;" d="M462.33,283.97c0.04-0.01,0.08-0.01,0.12,0
		c0.33-0.12,0.08-0.52,0.32-0.69l0,0c0.12-0.15,0.35-0.1,0.47-0.25l0,0c0.14-0.13,0.36-0.09,0.48-0.24l0,0
		c0.32-0.17,0.72-0.18,0.95-0.52c1.46-0.93,2.92-1.86,4.38-2.78c0.19-0.12,0.4-0.51,0.64-0.04c-1.19,1.86-2.83,3.27-4.6,4.54
		c-0.32,0.18-0.57,0-0.82-0.16c-0.1-0.06-0.21-0.12-0.33-0.12c-0.07,0.03-0.14,0.06-0.19,0.12c-0.11,0.13-0.21,0.27-0.35,0.38
		c-0.19,0.16-0.42,0.25-0.65,0.3c-0.15-0.03-0.3-0.05-0.45-0.08c-0.17-0.26-0.78,0.18-0.72-0.45l0,0
		C461.81,283.83,462.07,283.86,462.33,283.97z"/>
	<path style="fill-rule:evenodd;clip-rule:evenodd;fill:#958530;" d="M478.82,295.29c0.16-0.09,0.32-0.19,0.47-0.28
		c0.05,0.02,0.09,0.03,0.14,0.05c0.24,0.13,0.48,0.05,0.72-0.01c0.05-0.01,0.1-0.02,0.15-0.02c0.16-0.07,0.31-0.14,0.47-0.22
		c0.29,0.04,0.46,0.22,0.56,0.48c0.04,0.26-0.17,0.35-0.33,0.47c-2.44,0.82-4.87,1.68-7.48,0.76c0.32-0.46,0.92-0.3,1.32-0.59
		c0.31-0.18,0.64-0.34,0.87-0.63c0.18,0.16,0.35,0.31,0.53,0.46c0.29-0.17,0.67-0.13,0.88-0.44c0.26-0.01,0.52-0.02,0.78-0.02
		C478.21,295.46,478.51,295.46,478.82,295.29z"/>
	<path style="fill-rule:evenodd;clip-rule:evenodd;fill:#7E7330;" d="M481,295.75c0.08-0.17,0.16-0.33,0.24-0.5
		c0.01-0.34,0.18-0.37,0.44-0.22c0.31,0.01,0.49-0.13,0.51-0.45c0.2-0.14,0.5-0.19,0.49-0.52c0.34-0.14,0.68-0.28,1.02-0.41
		l0.11,0.04l0.07-0.09c0.4-0.24,0.8-0.48,1.2-0.71c0.2,0.03,0.36-0.04,0.48-0.2c0.12-0.33,0.36-0.5,0.7-0.53
		c0.24,0.05,0.42,0,0.49-0.27c0.17-0.14,0.34-0.29,0.51-0.43c0.35,0.23,0.5-0.09,0.71-0.26c0.06-0.08,0.13-0.16,0.19-0.24
		c0.33-0.05,0.52-0.32,0.78-0.48c0,0-0.01,0.02-0.01,0.02c0.16,0,0.33,0.01,0.49,0.01c0.16,0.11,0.24,0.27,0.24,0.47
		C486.93,292.85,484.18,294.69,481,295.75z"/>
	<path style="fill-rule:evenodd;clip-rule:evenodd;fill:#9E8F32;" d="M462.73,284.53c0.14-0.32,0.37-0.52,0.74-0.52
		c0.19-0.03,0.38-0.06,0.57-0.03c0.28-0.01,0.55,0.17,0.84,0.07c1.6-1.53,3.2-3.06,4.8-4.59c0.09,0.32,0.17,0.63,0.26,0.95
		c-0.85,1.05-1.88,1.93-2.82,2.89c-0.47,0.48-0.92,0.98-1.29,1.54c-0.24,0.15-0.52,0.17-0.79,0.19c-0.35,0.05-0.73-0.04-1.07,0.14
		C463.55,284.95,463.14,284.74,462.73,284.53z"/>
	<path style="fill-rule:evenodd;clip-rule:evenodd;fill:#E3CE35;" d="M470.44,281.6c0.15,0.24,0.3,0.48,0.44,0.72
		c-0.55,0.63-1.33,0.99-1.82,1.72c-0.76,1.16-0.95,2.43-0.94,3.76c-0.09,0.09-0.19,0.11-0.31,0.07l-0.06-0.06
		c-0.52-0.4-0.38-1.17-0.89-1.57c-0.43-0.62,0-1.11,0.23-1.63c0.61-0.88,1.38-1.64,2.06-2.48
		C469.46,281.76,469.79,281.25,470.44,281.6z"/>
	<path style="fill-rule:evenodd;clip-rule:evenodd;fill:#D8BD23;" d="M483.19,290.21c0.08-0.03,0.14-0.02,0.21,0.03
		c0.08,0.08,0.17,0.14,0.24,0.24l0,0c0.11,0.26,0,0.48-0.18,0.64c-1.87,1.69-3.81,3.29-6.52,3.28c-1,0-1.83,0.78-2.86,0.5
		c-0.27-0.66,0.3-0.69,0.66-0.86c0.9-0.43,1.89-0.67,2.85-0.79c2.05-0.26,3.62-1.32,5.05-2.68c0.12-0.11,0.24-0.21,0.37-0.3
		C483.08,290.25,483.13,290.23,483.19,290.21z"/>
	<path style="fill-rule:evenodd;clip-rule:evenodd;fill:#B6A331;" d="M465.86,284.76c-0.03-0.15-0.13-0.38-0.07-0.45
		c1.34-1.35,2.46-2.93,4.15-3.91c0.09,0.24,0.17,0.48,0.26,0.72c-1.31,1.25-2.45,2.67-3.67,4c-0.08,0.09-0.18,0.13-0.3,0.15
		C465.98,285.19,465.82,285.05,465.86,284.76z"/>
	<path style="fill-rule:evenodd;clip-rule:evenodd;fill:#F2DF4A;" d="M468.01,287.92c-0.55-2.12,0.45-3.68,1.83-5.12
		c0.29-0.3,0.6-0.53,1.04-0.48c0.1,0.15,0.2,0.31,0.31,0.46c-0.25,0.16-0.5,0.33-0.75,0.5c-1.45,0.67-2.3,2.79-1.92,4.79
		c-0.01,0.1-0.01,0.19-0.02,0.29C468.16,288.41,468.02,288.23,468.01,287.92z"/>
	<path style="fill-rule:evenodd;clip-rule:evenodd;fill:#36362C;" d="M493.03,275.6c-0.13,0.42,0.65,1.11-0.42,1.33
		c-0.12,0.02,0.14,0.97,0.59,1.33c-0.82,0.06-0.7,0.66-0.69,1.2c-0.51-0.66,0.06-1.54-0.46-2.19c-0.68-1.29-0.33-2.69-0.41-4.04
		c0.11-0.31,0.16-0.67,0.53-0.8c0.13,0.03,0.22,0.1,0.29,0.21c0.25,0.57,0.13,1.17,0.15,1.76c0.02,0.38-0.11,0.81,0.32,1.07
		C492.96,275.51,493,275.56,493.03,275.6z"/>
	<path style="fill-rule:evenodd;clip-rule:evenodd;fill:#CEB932;" d="M466.4,285.19c-0.15-1.13,1.05-1.24,1.49-1.96
		c0.53-0.87,1.24-1.74,2.3-2.11c0.08,0.16,0.16,0.32,0.24,0.48c-1.47,0.6-1.97,2.19-3.12,3.12
		C467.04,284.93,466.87,285.34,466.4,285.19z"/>
	<path style="fill-rule:evenodd;clip-rule:evenodd;fill:#D5BD25;" d="M466.4,285.19c0.31-0.16,0.61-0.31,0.92-0.47
		c0.06,0.49-0.75,0.84-0.23,1.4c-0.01,0.22-0.04,0.43-0.28,0.53c-0.55-0.35-0.84-0.16-0.91,0.45c-0.25-0.31-0.49-0.61-0.74-0.92
		c-0.07-0.09-0.14-0.18-0.23-0.26h0c-0.23-0.29-0.11-0.48,0.18-0.61c0.1-0.02,0.2-0.02,0.3-0.01c0.14,0.02,0.28,0.06,0.42,0.08
		c0.18,0,0.35-0.04,0.49-0.16L466.4,285.19z"/>
	<path style="fill-rule:evenodd;clip-rule:evenodd;fill:#BCA529;" d="M475.02,295.98c-0.25,0.88-1.01,0.33-1.5,0.53
		c-0.34-0.01-0.57-0.19-0.69-0.51c0.08-0.25,0.27-0.41,0.46-0.57c0.25-0.16,0.48-0.35,0.76-0.47c0.27,0,0.5,0.08,0.68,0.29
		l0.05,0.04c0.09,0.09,0.17,0.19,0.21,0.31c0.02,0.08,0.04,0.16,0.04,0.25C475.03,295.9,475.02,295.94,475.02,295.98z"/>
	<path style="fill-rule:evenodd;clip-rule:evenodd;fill:#DDC322;" d="M473.32,295.51c-0.01,0.31-0.19,0.47-0.49,0.49l0,0
		c-0.11-0.17-0.35-0.1-0.47-0.25c-0.24-0.16-0.48-0.32-0.72-0.48c0.17-0.17,0.34-0.34,0.5-0.51c0.06-0.25,0.21-0.4,0.47-0.44
		c0.25,0.06,0.49,0.12,0.74,0.18c0,0,0,0.12,0,0.13c-0.05,0.1-0.1,0.19-0.14,0.27c-0.01,0.06-0.02,0.14-0.01,0.21
		c0,0,0.03,0.1,0.03,0.1c0.03,0.06,0.06,0.13,0.08,0.2C473.32,295.41,473.32,295.51,473.32,295.51z"/>
	<path style="fill-rule:evenodd;clip-rule:evenodd;fill:#9E8C2D;" d="M489.65,290.97c-0.08-0.16-0.16-0.31-0.24-0.47
		c0.23-0.68,0.83-0.84,1.42-1.02c0.45,0.06,0.4,0.23,0.12,0.47c-0.37,0.33-0.73,0.66-1.1,0.99
		C489.78,290.95,489.71,290.96,489.65,290.97z"/>
	<path style="fill-rule:evenodd;clip-rule:evenodd;fill:#706831;" d="M464.91,286.89c-0.08,0.09-0.17,0.18-0.26,0.27
		c-0.76-0.72-1.48-1.5-2.57-1.74c-0.09-0.22-0.03-0.3,0.2-0.24C463.38,285.41,464.28,285.94,464.91,286.89z"/>
	<path style="fill-rule:evenodd;clip-rule:evenodd;fill:#B09C2C;" d="M465.41,285.43c-0.3,0.03-0.48,0.18-0.5,0.5
		c-0.32-0.25-0.63-0.5-0.95-0.76c0.11-0.62,0.61-0.4,0.98-0.44C465.1,284.96,465.52,285.01,465.41,285.43z"/>
	<path style="fill-rule:evenodd;clip-rule:evenodd;fill:#434025;" d="M493.03,286.88c0.15-0.02,0.3-0.05,0.45-0.07
		c0.17-0.06,0.34-0.08,0.47,0.09l-0.01,0c0.12,0.58-0.44,0.66-0.7,0.95l0.01-0.01c-0.6,0.39-0.52-0.26-0.72-0.47
		C492.69,287.2,492.86,287.04,493.03,286.88z"/>
	<path style="fill-rule:evenodd;clip-rule:evenodd;fill:#7C712F;" d="M461.56,284c0.24,0.15,0.48,0.3,0.72,0.45
		c-0.24,0.01-0.48,0.04-0.71,0.03c-0.18-0.01-0.5-0.07-0.5-0.12C461.05,284.04,461.33,284.03,461.56,284z"/>
	<path style="fill-rule:evenodd;clip-rule:evenodd;fill:#988A26;" d="M492.52,287.36c0.28,0.1,0.31,0.58,0.72,0.47
		c0,0.08,0,0.16,0,0.24C492.3,288.55,492.57,287.8,492.52,287.36z"/>
	<path style="fill-rule:evenodd;clip-rule:evenodd;fill:#403E27;" d="M462.28,285.18c-0.07,0.08-0.14,0.16-0.2,0.24
		c-0.23,0-0.63-0.05-0.54-0.27C461.69,284.79,462.04,284.96,462.28,285.18z"/>
	<path style="fill-rule:evenodd;clip-rule:evenodd;fill:#7C712F;" d="M464.66,282.27c-0.14,0.49-0.52,0.55-0.95,0.52
		C464.03,282.62,464.35,282.45,464.66,282.27z"/>
	<path style="fill-rule:evenodd;clip-rule:evenodd;fill:#7C712F;" d="M462.77,283.29c-0.01,0.27,0.04,0.57-0.32,0.69
		C462.55,283.75,462.66,283.52,462.77,283.29z"/>
	<path style="fill-rule:evenodd;clip-rule:evenodd;fill:#7C712F;" d="M462.33,283.97c-0.26,0.01-0.51,0.02-0.77,0.03
		C461.81,283.72,462.06,283.73,462.33,283.97z"/>
	<path style="fill-rule:evenodd;clip-rule:evenodd;fill:#D8BD23;" d="M482.67,290.24c0-0.07,0-0.14,0-0.21
		c0.17,0.06,0.34,0.12,0.52,0.18l-0.07,0.06C482.96,290.37,482.81,290.38,482.67,290.24z"/>
	<path style="fill-rule:evenodd;clip-rule:evenodd;fill:#7C712F;" d="M463.24,283.03c-0.16,0.08-0.31,0.17-0.47,0.25
		C462.92,283.2,463.08,283.12,463.24,283.03z"/>
	<path style="fill-rule:evenodd;clip-rule:evenodd;fill:#7C712F;" d="M463.72,282.79c-0.16,0.08-0.32,0.16-0.48,0.24
		C463.39,282.95,463.56,282.87,463.72,282.79z"/>
	<path style="fill-rule:evenodd;clip-rule:evenodd;fill:#BCA529;" d="M472.37,295.76c0.16,0.08,0.31,0.17,0.47,0.25
		C472.68,295.93,472.52,295.84,472.37,295.76z"/>
	<path style="fill-rule:evenodd;clip-rule:evenodd;fill:#CBB328;" d="M483.64,290.48c-0.08-0.08-0.16-0.16-0.24-0.24
		c0.08,0.01,0.16,0.01,0.24,0.02C483.64,290.33,483.64,290.41,483.64,290.48z"/>
	<path style="fill-rule:evenodd;clip-rule:evenodd;fill:#706831;" d="M465.11,287.11c-0.06-0.07-0.13-0.15-0.19-0.22
		C464.98,286.97,465.04,287.04,465.11,287.11z"/>
	<path style="fill-rule:evenodd;clip-rule:evenodd;fill:#DDC322;" d="M471.35,295.06c0.1,0.07,0.19,0.14,0.29,0.21
		C471.55,295.2,471.45,295.13,471.35,295.06z"/>
	<path style="fill-rule:evenodd;clip-rule:evenodd;fill:#706831;" d="M465.62,287.84c-0.07-0.08-0.14-0.17-0.22-0.25
		C465.48,287.67,465.55,287.76,465.62,287.84z"/>
	<path style="fill-rule:evenodd;clip-rule:evenodd;fill:#CCB428;" d="M492.98,285.69c0.08,0.09,0.17,0.17,0.25,0.26
		C493.14,285.86,493.06,285.78,492.98,285.69z"/>
	<path style="fill-rule:evenodd;clip-rule:evenodd;fill:#B09C2C;" d="M464.92,285.92c0.08,0.08,0.16,0.17,0.23,0.26
		C465.07,286.09,465,286.01,464.92,285.92z"/>
	<path style="fill-rule:evenodd;clip-rule:evenodd;fill:#323686;" d="M473.32,276.54c-0.84-0.93-0.35-2.06-0.48-3.1
		c0.51-1.11,1.08-2.2,1.9-3.12c0.8-0.95,1.68-1.81,2.7-2.52c0.14-0.1,0.33-0.15,0.49-0.23c-0.03,0.15-0.05,0.29-0.08,0.43
		c-0.27,1.23-0.97,2.39-0.04,3.71c0.29,0.42-0.06,1.3-0.12,1.97c0.34,0.48,0.26,1.07-0.2,1.23c-1.15,0.39-1.91,1.4-3.06,1.75
		C474.01,276.79,473.65,276.91,473.32,276.54z"/>
	<path style="fill-rule:evenodd;clip-rule:evenodd;fill:#FDF077;" d="M497.13,271.51c0.23,0.94,0.47,1.88,0.7,2.82
		c0.15,0.26,0.1,0.54,0.08,0.81c-0.04,0.81-0.56,1.1-1.27,0.72c-0.32-0.17-0.63-0.41-0.76-0.73c-0.52-1.29-1.38-2.15-2.75-2.54
		c-0.45-0.13-0.79-0.51-0.9-1.03c-0.05-0.33-0.07-0.65-0.05-0.98c0.11-1.18,0.85-2.04,1.54-2.91c0.26-0.33,0.63-0.5,1.06-0.27
		C496.36,268.31,496.43,270.09,497.13,271.51z"/>
	<path style="fill-rule:evenodd;clip-rule:evenodd;fill:#39569F;" d="M477.93,273.7c0.51-1-0.06-2.39,1.12-3.15
		c0.64-1.35,1.82-2.01,3.16-2.5c1.87-0.69,3.68-1.49,4.97-3.12c0.28-0.36,0.69-0.7,1.23-0.35c0.03,0.07,0.05,0.14,0.05,0.21
		c0.06,0.08,0.13,0.17,0.18,0.26c0.17,0.24,0.34,0.49,0.51,0.73c-0.07,0.09-0.16,0.16-0.26,0.21c-0.21,0.1-0.47,0.17-0.61,0.37
		c-1.38,2.01-3.57,2.72-5.67,3.58c-0.78,0.32-1.56,0.62-2.11,1.3c-0.59,0.72-0.81,1.53-0.65,2.45c-0.34,0.49-0.84,0.74-1.39,0.84
		C477.79,274.62,477.6,274.31,477.93,273.7z"/>
	<path style="fill-rule:evenodd;clip-rule:evenodd;fill:#242425;" d="M477.93,273.7c-0.04,0.54,0.13,0.77,0.67,0.46
		c0.41-0.23,0.82-0.47,1.23-0.7c1.04-0.88,1.77-2.15,3.21-2.53c0.77-0.2,1.49-0.35,1.96,0.54c0.51,0.95,0.4,1.86-0.32,2.49
		c-0.94,0.82-2.08,0.98-3.13,0.35c-0.75-0.46-1.28,0.05-1.88,0.28c-0.1,0.06-0.21,0.11-0.31,0.16c-0.1,0.06-0.2,0.1-0.3,0.15
		c-0.61,0.26-0.99,0.65-0.68,1.36c0.31,0.73-0.02,1.19-0.62,1.55c-0.25,0.09-0.45,0-0.65-0.14c-0.14-0.11-0.24-0.25-0.32-0.41
		c-0.04-0.11-0.06-0.22-0.07-0.33c0-0.14,0.11-0.31,0.07-0.41c-0.04-0.09-0.15,0.09-0.24,0.12c-0.38,0.2-0.73,0.03-1.07-0.12
		c-0.96,0.24-1.68,0.87-2.39,1.51c-0.32-0.07-0.88,0.16-0.89-0.31c-0.02-0.67,0.54-0.99,1.13-1.18c1.11-0.02,2.07-0.33,2.63-1.39
		c0.12-0.22,0.22-0.42,0.53-0.31c1.18,0.43,1.07-0.48,1.2-1.15C477.76,273.69,477.84,273.69,477.93,273.7z"/>
	<path style="fill-rule:evenodd;clip-rule:evenodd;fill:#3958A0;" d="M488.92,265.76c0.08,0,0.15,0,0.23,0
		c1.12,0.02,0.93,1.01,1.23,1.65c0.75,2.54,1.01,5.16,1.03,7.79c0.01,1.48-0.56,2.81-1.79,3.76c-0.72,0.38-1.45,0.55-2.14-0.05
		c-0.04-0.43,0.29-0.63,0.58-0.82c1.53-1.01,1.9-2.46,1.63-4.17c-0.16-1.02-0.33-2.04-0.51-3.06c-0.14-0.79-0.23-1.6-0.06-2.37
		C489.31,267.55,489.33,266.65,488.92,265.76z"/>
	<path style="fill-rule:evenodd;clip-rule:evenodd;fill:#333484;" d="M479.34,269.59c-0.26-0.88,0.48-1.86-0.28-2.69
		c-0.16-0.18,0.04-0.3,0.17-0.35c2.5-1.11,4.81-2.82,7.77-2.48c0.17,0.49-0.2,0.74-0.48,1c-1.23,1.12-2.63,1.96-4.25,2.39
		c-1.17,0.31-2.38,0.54-2.62,2.05C479.63,269.6,479.46,269.62,479.34,269.59z"/>
	<path style="fill-rule:evenodd;clip-rule:evenodd;fill:#364590;" d="M479.34,269.59c0.1-1.73,1.33-2.1,2.74-2.44
		c1.96-0.47,3.62-1.51,4.91-3.08c0.51,0.05,1.12-0.2,1.4,0.5c-0.32,0.15-0.77,0.2-0.94,0.45c-1.23,1.78-3.09,2.57-5.01,3.25
		c-1.34,0.48-2.44,1.26-3.4,2.28C479.14,270.23,479.24,269.91,479.34,269.59z"/>
	<path style="fill-rule:evenodd;clip-rule:evenodd;fill:#364993;" d="M489.4,278.72c1.71-1.41,1.96-3.38,1.61-5.31
		c-0.36-2-0.26-4.02-0.64-6c0.25,0.57,0.49,1.13,0.74,1.7c0.86,0.91,1,2.02,0.9,3.2c-0.03,0.31-0.16,0.62,0,0.93
		c0.01,1.34,0.03,2.69,0.04,4.03c0.01,0.8-0.03,1.57-0.93,1.93c-0.09-0.02-0.17-0.05-0.24-0.1c-0.12-0.06-0.24-0.11-0.38-0.14
		C490.11,278.93,489.71,279.06,489.4,278.72z"/>
	<path style="fill-rule:evenodd;clip-rule:evenodd;fill:#FAEA62;" d="M494.78,267.39c-1.37,0.62-1.92,1.83-2.27,3.17
		c-0.72,0.03-0.98-0.37-0.94-1.03c0.02-0.38,0.28-0.61,0.49-0.88c0.33-0.57,0.64-1.17,1.05-1.69c0.23-0.29,0.42-0.7,0.92-0.53
		C494.28,266.76,494.53,267.07,494.78,267.39z"/>
	<path style="fill-rule:evenodd;clip-rule:evenodd;fill:#EED626;" d="M491.08,266.72c0.07-0.02,0.17-0.01,0.21-0.05
		c0.44-0.5-0.88-1.16-0.08-1.33c0.7-0.15,1.65,0.01,2.33,0.61c-0.45,0.52-1.03,0.94-1.3,1.61c-0.17,0.25-0.44,0.26-0.71,0.28
		c-0.15-0.01-0.3-0.04-0.41-0.17c-0.1-0.32-0.2-0.63-0.3-0.95C490.91,266.61,490.99,266.62,491.08,266.72z"/>
	<path style="fill-rule:evenodd;clip-rule:evenodd;fill:#A44B25;" d="M490.62,264.45c0.03,0.53-0.31,0.76-0.67,0.71
		c-0.63-0.07-1.12-0.45-1.22-1.12c-0.08-0.5,0.26-0.72,0.74-0.71C490.21,263.36,490.44,263.91,490.62,264.45z"/>
	<path style="fill-rule:evenodd;clip-rule:evenodd;fill:#FAE64A;" d="M492,267.73c0.15-0.9,0.46-1.67,1.53-1.78
		c0.26,0.07,0.42,0.24,0.5,0.49c-0.83,0.64-1.22,1.58-1.73,2.44c-0.27-0.15-0.34-0.42-0.42-0.69
		C491.86,268.02,491.88,267.86,492,267.73z"/>
	<path style="fill-rule:evenodd;clip-rule:evenodd;fill:#964A25;" d="M477.85,269.82c0-0.04,0-0.08,0-0.12
		c0.07-0.78,0.04-1.6,0.79-2.11c0.21-0.14,0.4-0.01,0.39,0.23c-0.04,0.92,0.06,1.9-0.94,2.46
		C477.66,270.31,477.75,270.07,477.85,269.82z"/>
	<path style="fill-rule:evenodd;clip-rule:evenodd;fill:#3F4037;" d="M491.75,269.64c-0.05,0.56,0.59,0.56,0.77,0.93
		c-0.01,0.3-0.01,0.6-0.02,0.9c-0.34,0.27,0.19,0.77-0.26,1.01c-0.08,0.25-0.15,0.5-0.23,0.75c-0.3-1.37-0.6-2.75-0.9-4.12
		c0.08-0.09,0.16-0.18,0.24-0.28C491.91,268.9,491.56,269.4,491.75,269.64z"/>
	<path style="fill-rule:evenodd;clip-rule:evenodd;fill:#ACA144;" d="M491.75,269.64c-0.13-0.27-0.26-0.54-0.39-0.81
		c0-0.07,0-0.14,0.02-0.2c0.07-0.07,0.14-0.13,0.21-0.2c0.16-0.11,0.3-0.24,0.49-0.29c0.08,0.25,0.15,0.49,0.23,0.74
		C492.15,269.16,491.74,269.25,491.75,269.64z"/>
	<path style="fill-rule:evenodd;clip-rule:evenodd;fill:#C1B032;" d="M491.68,268.61c-0.1,0.01-0.2,0.01-0.3,0.02
		c-0.08-0.32-0.17-0.64-0.25-0.96c0.13,0,0.26,0,0.39,0C491.84,267.94,491.81,268.27,491.68,268.61z"/>
	<path style="fill-rule:evenodd;clip-rule:evenodd;fill:#694925;" d="M477.85,269.82c0.08,0.16,0.16,0.31,0.24,0.47
		c-0.05,0.2-0.17,0.46-0.36,0.28C477.52,270.36,477.65,270.04,477.85,269.82z"/>
	<path style="fill-rule:evenodd;clip-rule:evenodd;fill:#8B8130;" d="M491.08,266.72c-0.08,0-0.17,0-0.25,0
		c-0.17-0.06-0.24-0.17-0.12-0.34C490.83,266.49,490.95,266.61,491.08,266.72z"/>
	<path style="fill-rule:evenodd;clip-rule:evenodd;fill:#364590;" d="M488.64,265.03c-0.06-0.09-0.12-0.17-0.18-0.26
		C488.51,264.86,488.57,264.95,488.64,265.03z"/>
	<path style="fill-rule:evenodd;clip-rule:evenodd;fill:#A6942E;" d="M493.23,287.85c0.24-0.32,0.47-0.63,0.7-0.95
		c0.81-0.23-0.45-0.96,0.29-1.2c0.54,0.29,0.7-0.12,0.9-0.47c0.52,0.02,0.44-0.55,0.73-0.75c0.22,0.04,0.33-0.02,0.25-0.26
		c0-0.07,0-0.14,0.01-0.21c0.17-0.14,0.38-0.2,0.57-0.29c0.65-0.1,0.42-0.59,0.43-0.98c-0.03-1.65,0.72-3.05,1.38-4.49l0.06-0.01
		c0.06,0,0.12,0.01,0.18,0.01c-0.06,1.23,0.35,2.55-0.65,3.61c0.06,0.06,0.08,0.13,0.05,0.21c-0.03,0.07-0.04,0.14-0.01,0.21
		c0.04,0.07,0.1,0.1,0.18,0.09c0.4,0.27,0.16,0.6-0.01,0.81C496.79,284.93,495.37,286.77,493.23,287.85z"/>
	<path style="fill-rule:evenodd;clip-rule:evenodd;fill:#3D3B26;" d="M498.01,282.03c0-0.07,0.02-0.12,0.06-0.17
		c0.07,0.17,0.15,0.34,0.22,0.51c-0.09,0.07-0.17,0.13-0.26,0.2C497.89,282.39,497.92,282.21,498.01,282.03z"/>
	<path style="fill-rule:evenodd;clip-rule:evenodd;fill:#FAEB65;" d="M492.25,272.48c0.27-0.29-0.55-0.86,0.26-1.01
		c0.18,0.73,0.8,0.96,1.41,1.1c1.04,0.24,1.65,0.86,1.95,1.86c0.05,0.19,0.12,0.4,0.25,0.53c0.36,0.34,0.61,0.97,1.21,0.81
		c0.75-0.2,0.39-0.93,0.51-1.43c0.07,0.03,0.13,0.08,0.18,0.13c0.02,0.29,0.04,0.57,0.06,0.86c0.13,1.24,0.09,1.29-1.17,1.48
		c-0.65-0.11-1.15-0.49-1.53-1.01c-0.68-0.93-1.54-1.67-2.44-2.36c-0.26-0.23-0.46-0.5-0.62-0.8
		C492.33,272.58,492.3,272.52,492.25,272.48z"/>
	<path style="fill-rule:evenodd;clip-rule:evenodd;fill:#E0CE41;" d="M498.47,277.54c-0.5,0.45-0.91,1.03-1.63,1.18
		c-0.4-0.09-0.59-0.35-0.63-0.74c0.02-0.25,0.13-0.44,0.3-0.62c0.52-0.38,1.09-0.63,1.74-0.71c0.12,0.03,0.2,0.1,0.24,0.22
		C498.48,277.1,498.47,277.32,498.47,277.54z"/>
	<path style="fill-rule:evenodd;clip-rule:evenodd;fill:#F0DF53;" d="M498.33,276.79c-0.58,0.24-1.15,0.49-1.73,0.73
		c-0.52-0.03-0.85-0.24-0.81-0.83c0.22-0.35,0.51-0.31,0.81-0.13c0.87,0.05,1.54-0.15,1.46-1.23c0.08,0.25,0.17,0.51,0.25,0.76
		C498.43,276.32,498.42,276.55,498.33,276.79z"/>
	<path style="fill-rule:evenodd;clip-rule:evenodd;fill:#585540;" d="M498.33,276.79c0-0.23-0.01-0.47-0.01-0.7
		c0.26,0.22,0.21,0.51,0.17,0.79C498.44,276.83,498.39,276.8,498.33,276.79z"/>
	<path style="fill-rule:evenodd;clip-rule:evenodd;fill:#252523;" d="M489.4,278.72c0.48,0,0.97,0,1.45,0
		c0.07,0.09,0.15,0.17,0.22,0.26c0,0.08,0.02,0.15,0.04,0.22c0,0.51-0.01,1.03-0.01,1.54c0,2.51-0.71,3.27-3.29,3.49
		c-0.51,0.04-1.02,0.05-1.54,0.07c-0.16-0.02-0.32-0.04-0.47-0.06c-0.48,0.28-1,0.03-1.5,0.11c-1.57-0.16-3.16-0.3-3.98-1.96
		c0.19-1.59,0.81-3.06,1.34-4.55c0.24-0.66,0.76-0.75,1.36-0.49c0.88,0.37,1.78,0.67,2.72,0.88c0.51,0.24,1.11,0.08,1.61,0.37
		c0.04,0.05,0.08,0.09,0.12,0.14C488.12,279.01,488.76,279.05,489.4,278.72z"/>
	<path style="fill-rule:evenodd;clip-rule:evenodd;fill:#374591;" d="M484.37,284.04c0.49-0.03,0.98-0.06,1.44,0.19
		c0.21,1.17-0.8,2.5-2.11,2.37c-3.35-0.33-6.55-1.27-9.33-3.23c-0.81-0.57-0.95-1.6-0.73-2.62c0.33-1.54,1.01-2.92,1.84-4.24
		c0.35-0.4,0.65,0.12,0.98,0.05c0.47-0.14,0.27,0.33,0.42,0.47c0.03,0.07,0.04,0.15,0.05,0.23c-0.01,0.06-0.02,0.11-0.03,0.17
		c-0.38,0.71-1.01,1.23-1.38,1.95c-0.84,1.67-0.54,2.81,1.07,3.72c1.22,0.69,2.45,1.34,3.91,1.35c0.69,0,1.28,0.41,1.92,0.65
		C483.61,285.54,484.11,285.26,484.37,284.04z"/>
	<path style="fill-rule:evenodd;clip-rule:evenodd;fill:#DDC322;" d="M482.67,290.24c0.15,0.01,0.3,0.02,0.45,0.03
		c-1.51,2.02-3.6,2.97-6.04,3.35c-1.07,0.16-2.18,0.38-3.04,1.17c-0.08,0.09-0.18,0.14-0.3,0.17c-0.25-0.02-0.49-0.05-0.41-0.4
		c0,0,0.04-0.06,0.04-0.06c1.14-0.87,2.51-1.17,3.86-1.4C479.36,292.72,481.16,291.77,482.67,290.24z"/>
	<path style="fill-rule:evenodd;clip-rule:evenodd;fill:#393725;" d="M472.62,294.32c-0.16,0.15-0.31,0.29-0.47,0.44l0,0.01
		c-0.09-0.05-0.18-0.11-0.27-0.15c-0.09-0.1-0.19-0.2-0.28-0.3c-0.07-0.1-0.15-0.2-0.17-0.33c0.13-0.12,0.25-0.25,0.38-0.37
		c0.12,0.04,0.21,0.13,0.31,0.21l0.01,0C472.29,294,472.46,294.16,472.62,294.32z"/>
	<path style="fill-rule:evenodd;clip-rule:evenodd;fill:#45432B;" d="M466.8,286.65c0.03-0.21,0-0.45,0.28-0.53
		c0.66,0.39,0.46,1.13,0.68,1.69C466.92,287.86,467.18,286.99,466.8,286.65z"/>
	<path style="fill-rule:evenodd;clip-rule:evenodd;fill:#47442D;" d="M468.01,287.92c0.16,0.15,0.33,0.3,0.49,0.45
		c0.08,0.39,0.17,0.77,0.25,1.16c-0.87-0.23-0.96-0.91-0.93-1.65C467.88,287.91,467.94,287.92,468.01,287.92z"/>
	<path style="fill-rule:evenodd;clip-rule:evenodd;fill:#504C2E;" d="M468.79,289.84c0.05,0,0.1-0.02,0.14-0.05
		c0.12,0.03,0.22,0.11,0.3,0.2c0.06,0.09,0.11,0.18,0.17,0.27c0.08,0.38,0.17,0.76,0.25,1.15
		C468.68,291.27,468.91,290.46,468.79,289.84z"/>
	<path style="fill-rule:evenodd;clip-rule:evenodd;fill:#464328;" d="M470.45,291.88c0.13,0.18,0.27,0.37,0.4,0.55
		c-0.01,0.26-0.01,0.52-0.02,0.78c-0.15-0.08-0.4-0.12-0.45-0.24C470.24,292.61,469.68,292.19,470.45,291.88z"/>
	<path style="fill-rule:evenodd;clip-rule:evenodd;fill:#EBD01F;" d="M472.12,293.83c-0.1-0.07-0.21-0.14-0.31-0.21
		C471.92,293.69,472.02,293.76,472.12,293.83z"/>
	<path style="fill-rule:evenodd;clip-rule:evenodd;fill:#DDC322;" d="M471.44,293.99c0.06,0.11,0.11,0.22,0.17,0.33
		C471.55,294.21,471.49,294.1,471.44,293.99z"/>
	<path style="fill-rule:evenodd;clip-rule:evenodd;fill:#DDC322;" d="M471.88,294.62c0.09,0.05,0.18,0.1,0.27,0.15
		C472.06,294.72,471.97,294.67,471.88,294.62z"/>
	<path style="fill-rule:evenodd;clip-rule:evenodd;fill:#F5DF3B;" d="M495.88,276.8c0.24,0.24,0.48,0.48,0.72,0.72
		c-0.08,0.16-0.16,0.32-0.24,0.48c-0.64,0.52-1.18,0.25-1.68-0.24c-0.55-0.72-1.1-1.44-1.65-2.17l-0.09,0.02
		c-0.81-0.53-0.79-1.12-0.13-1.76C494.26,274.39,494.9,275.77,495.88,276.8z"/>
	<path style="fill-rule:evenodd;clip-rule:evenodd;fill:#E7CE28;" d="M494.68,277.76c0.56,0.08,1.12,0.16,1.68,0.24
		c0.16,0.24,0.32,0.48,0.48,0.72c0,0.08,0,0.16,0,0.24c-0.48,0.4-0.96,0.8-1.44,1.19C495.42,279.28,494.84,278.59,494.68,277.76z"/>
	<path style="fill-rule:evenodd;clip-rule:evenodd;fill:#434126;" d="M486.75,291.88c0.45,0.53-0.11,0.64-0.37,0.68
		c-0.34,0.05-0.1-0.26-0.12-0.41C486.42,292.06,486.58,291.97,486.75,291.88z"/>
	<path style="fill-rule:evenodd;clip-rule:evenodd;fill:#323122;" d="M481.68,295.03c-0.15,0.07-0.29,0.15-0.44,0.22
		c-0.16-0.15-0.32-0.3-0.47-0.45l0,0c0.08-0.08,0.16-0.16,0.23-0.25l0-0.01C481.33,294.56,481.71,294.5,481.68,295.03z"/>
	<path style="fill-rule:evenodd;clip-rule:evenodd;fill:#444225;" d="M487.96,291.19c-0.02,0.29-0.1,0.57-0.41,0.64
		c-0.28,0.07-0.28-0.19-0.3-0.38C487.49,291.36,487.73,291.28,487.96,291.19z"/>
	<path style="fill-rule:evenodd;clip-rule:evenodd;fill:#383623;" d="M482.67,294.06c0.19,0.11,0.28,0.27,0.14,0.47
		c-0.18,0.24-0.41,0.14-0.63,0.06l-0.01-0.01c-0.05-0.09-0.04-0.17,0.03-0.25C482.36,294.23,482.52,294.15,482.67,294.06z"/>
	<path style="fill-rule:evenodd;clip-rule:evenodd;fill:#353324;" d="M483.88,293.59c0.2,0.12,0.27,0.27,0.12,0.47
		c-0.04,0.05-0.16,0.11-0.2,0.09c-0.23-0.12-0.12-0.32-0.1-0.5C483.76,293.63,483.82,293.61,483.88,293.59z"/>
	<path style="fill-rule:evenodd;clip-rule:evenodd;fill:#313024;" d="M488.93,290.47c-0.19,0.26-0.22,0.8-0.78,0.48
		C488.33,290.66,488.57,290.46,488.93,290.47z"/>
	<path style="fill-rule:evenodd;clip-rule:evenodd;fill:#302F1F;" d="M485.56,292.68c0.14,0.25,0.11,0.46-0.19,0.54
		c-0.32,0.09-0.27-0.16-0.29-0.34l0,0c0.09-0.07,0.17-0.17,0.28-0.21C485.43,292.67,485.49,292.67,485.56,292.68z"/>
	<path style="fill-rule:evenodd;clip-rule:evenodd;fill:#7E7330;" d="M482.2,294.32c-0.01,0.08-0.02,0.16-0.03,0.25
		c-0.02-0.06-0.05-0.12-0.06-0.19C482.11,294.37,482.17,294.34,482.2,294.32z"/>
	<path style="fill-rule:evenodd;clip-rule:evenodd;fill:#7E7330;" d="M485.36,292.66c-0.09,0.07-0.19,0.14-0.28,0.21
		C485.17,292.8,485.27,292.73,485.36,292.66z"/>
	<path style="fill-rule:evenodd;clip-rule:evenodd;fill:#F2D618;" d="M469.23,290c-0.1-0.07-0.2-0.13-0.3-0.2
		C469.03,289.86,469.13,289.93,469.23,290z"/>
	<path style="fill-rule:evenodd;clip-rule:evenodd;fill:#CBB328;" d="M473.79,294.81c0.08-0.01,0.17-0.01,0.25-0.02
		c3.5-0.77,7.16-1.19,9.6-4.31c0.25,0.05,0.51,0.1,0.76,0.16c-0.2,0.24-0.38,0.49-0.59,0.7c-2.42,2.43-5.31,3.76-8.78,3.74
		c-0.1,0-0.2,0.12-0.3,0.18c-0.22-0.07-0.45-0.15-0.67-0.22C473.82,295.13,473.77,295.01,473.79,294.81z"/>
	<path style="fill-rule:evenodd;clip-rule:evenodd;fill:#333223;" d="M474.76,295.75c0-0.15,0.01-0.3,0.01-0.46
		c0.31,0,0.62,0,0.92,0c0.11,0.56-0.2,0.71-0.68,0.69c0,0,0,0.01,0,0.01C474.92,295.92,474.84,295.84,474.76,295.75z"/>
	<path style="fill-rule:evenodd;clip-rule:evenodd;fill:#3C3A21;" d="M478.82,295.29c-0.01,0.35-0.21,0.49-0.53,0.48
		c-0.31-0.01-0.39-0.21-0.39-0.48C478.21,295.06,478.51,295.11,478.82,295.29z"/>
	<path style="fill-rule:evenodd;clip-rule:evenodd;fill:#393827;" d="M477.11,295.31c0.05,0.83-0.4,0.67-0.88,0.44
		c-0.01-0.07-0.01-0.13-0.01-0.2c0.06-0.11,0.14-0.2,0.26-0.25C476.69,295.3,476.9,295.31,477.11,295.31z"/>
	<path style="fill-rule:evenodd;clip-rule:evenodd;fill:#958530;" d="M479.29,295.01c0.34-0.28,0.67-0.31,1,0.01
		c-0.03,0.03-0.06,0.05-0.09,0.08c-0.29,0.16-0.58,0.21-0.86-0.03L479.29,295.01z"/>
	<path style="fill-rule:evenodd;clip-rule:evenodd;fill:#958530;" d="M480.99,294.55c-0.08,0.08-0.15,0.17-0.23,0.25
		C480.84,294.72,480.92,294.64,480.99,294.55z"/>
	<path style="fill-rule:evenodd;clip-rule:evenodd;fill:#958530;" d="M476.48,295.3c-0.09,0.08-0.17,0.17-0.26,0.25
		C476.31,295.47,476.39,295.39,476.48,295.3z"/>
	<path style="fill-rule:evenodd;clip-rule:evenodd;fill:#BEA82D;" d="M498.49,278.25c-0.13,1.65-1.17,3.07-1.18,4.75
		c-0.01,0.39-0.2,0.71-0.45,1c-0.25,0-0.5,0-0.75,0c0.56-0.8,0.67-1.76,0.82-2.67C497.13,280.1,497.69,279.13,498.49,278.25z"/>
	<path style="fill-rule:evenodd;clip-rule:evenodd;fill:#403D25;" d="M495.13,285.22c0.08,0.49-0.1,0.84-0.59,0.93
		c-0.33,0.06-0.33-0.21-0.31-0.45C494.53,285.54,494.83,285.38,495.13,285.22z"/>
	<path style="fill-rule:evenodd;clip-rule:evenodd;fill:#3A3825;" d="M496.11,284.21c0.18,0.04,0.49,0.04,0.51,0.12
		c0.09,0.32-0.19,0.49-0.43,0.57c-0.37,0.11-0.3-0.22-0.33-0.43C495.95,284.39,496.03,284.3,496.11,284.21z"/>
	<path style="fill-rule:evenodd;clip-rule:evenodd;fill:#A6942E;" d="M493.95,286.9c-0.16-0.03-0.31-0.06-0.47-0.09
		C493.67,286.63,493.84,286.6,493.95,286.9z"/>
	<path style="fill-rule:evenodd;clip-rule:evenodd;fill:#323020;" d="M464.88,284.05c-0.22,0.49-0.59,0.19-0.91,0.18
		c-0.25-0.18-0.51-0.36-0.24-0.71l-0.01,0.01c0.15-0.15,0.31-0.14,0.47-0.04C464.42,283.68,464.65,283.86,464.88,284.05z"/>
	<path style="fill-rule:evenodd;clip-rule:evenodd;fill:#7C712F;" d="M463.73,283.52c0.08,0.24,0.16,0.47,0.24,0.71
		c-0.17-0.07-0.33-0.15-0.5-0.22C463.55,283.85,463.64,283.69,463.73,283.52z"/>
	<path style="fill-rule:evenodd;clip-rule:evenodd;fill:#7C712F;" d="M464.2,283.49c-0.16,0.01-0.32,0.03-0.47,0.04
		C463.86,283.29,464.02,283.28,464.2,283.49z"/>
	<path style="fill-rule:evenodd;clip-rule:evenodd;fill:#302E21;" d="M479.34,295.06c0.29,0.01,0.57,0.02,0.86,0.03
		C479.9,295.54,479.6,295.88,479.34,295.06z"/>
	<path style="fill-rule:evenodd;clip-rule:evenodd;fill:#313023;" d="M465.41,285.43c-0.16-0.23-0.31-0.47-0.47-0.7
		c0.3,0.01,0.61,0.02,0.91,0.04c0.15,0.15,0.3,0.31,0.45,0.46c0.22,0.75-0.26,0.5-0.62,0.43
		C465.57,285.61,465.49,285.52,465.41,285.43L465.41,285.43z"/>
	<path style="fill-rule:evenodd;clip-rule:evenodd;fill:#3F4037;" d="M492.98,273.9c-0.92,0.55-0.49,1.14-0.04,1.72
		c-0.52,0.14-0.71-0.04-0.67-0.59c0.05-0.79,0.03-1.59,0.04-2.39c0.38,0,0.53,0.29,0.7,0.56
		C493.17,273.44,493.21,273.67,492.98,273.9z"/>
	<path style="fill-rule:evenodd;clip-rule:evenodd;fill:#B09C2C;" d="M465.41,285.42c0.09,0.08,0.19,0.15,0.28,0.22
		C465.6,285.57,465.5,285.5,465.41,285.42z"/>
	<path style="fill-rule:evenodd;clip-rule:evenodd;fill:#383624;" d="M473.79,294.81c0.09,0.08,0.18,0.15,0.27,0.23
		c0,0.53-0.37,0.5-0.73,0.48l0,0c-0.08-0.08-0.16-0.16-0.25-0.23l0,0c-0.08-0.09-0.17-0.18-0.19-0.31c0-0.3,0.17-0.41,0.44-0.41
		C473.48,294.64,473.63,294.72,473.79,294.81z"/>
	<path style="fill-rule:evenodd;clip-rule:evenodd;fill:#958530;" d="M474.76,295.75c0.08,0.08,0.17,0.16,0.25,0.23
		C474.93,295.91,474.85,295.83,474.76,295.75z"/>
	<path style="fill-rule:evenodd;clip-rule:evenodd;fill:#BCA529;" d="M472.88,294.97c0.06,0.1,0.13,0.21,0.19,0.31
		C473.01,295.18,472.94,295.07,472.88,294.97z"/>
	<path style="fill-rule:evenodd;clip-rule:evenodd;fill:#BCA529;" d="M473.08,295.29c0.08,0.08,0.17,0.15,0.25,0.23
		C473.24,295.44,473.16,295.36,473.08,295.29z"/>
	<path style="fill-rule:evenodd;clip-rule:evenodd;fill:#3D68AD;" d="M485.77,278.5c-1.02-0.03-1.96-0.41-2.83-0.86
		c-0.69-0.35-0.88-0.15-1.07,0.48c-0.42,1.41-0.89,2.8-1.34,4.2c-0.48,1.13-1.4,1.32-2.42,0.5c-0.42-0.33-0.71-0.74-0.77-1.29
		c-0.04-0.82-0.08-1.64,0.04-2.46c0.17-0.65,0.3-1.32,0.86-1.79c0.27-0.23,0.25-0.53,0.19-0.87c-0.13-0.71,0.07-1.33,0.66-1.79
		l-0.01,0.01c0.08-0.06,0.17-0.13,0.26-0.19c0.91-0.33,1.6-1.48,2.82-0.12c0.6,0.67,1.91-0.1,2.6-0.82
		c0.74-0.76,0.16-1.61-0.24-2.31c-0.27-0.47-2.64,0.21-2.95,0.94c-0.35,0.83-1,1.06-1.71,1.32c-0.71-0.83-0.09-2.48,1.3-3.19
		c1.31-0.66,2.68-1.21,4.02-1.79c1.12-0.48,2.07-1.16,2.72-2.23c0.2-0.33,0.46-0.81,1.04-0.49c0.84,0.49,0.99,1.1,0.68,2.08
		c-0.63,1.98,0.09,3.94,0.44,5.88c0.43,2.41-0.37,4.09-2.56,5.01l0,0C486.94,278.4,486.31,278.77,485.77,278.5z"/>
	<path style="fill-rule:evenodd;clip-rule:evenodd;fill:#A24C25;" d="M482.79,273.86c-0.48-0.11-1.02-0.12-0.98-0.72
		c0.09-1.23,1.15-1.26,2.01-1.48c0.68-0.18,0.74,0.43,0.73,0.8C484.52,273.61,483.44,273.5,482.79,273.86z"/>
	<path style="fill-rule:evenodd;clip-rule:evenodd;fill:#252626;" d="M477.64,278.96c0,0.88,0,1.76,0,2.63
		c-0.21,0.43-0.22,1.16-0.92,0.97c-0.67-0.18-0.59-0.84-0.53-1.4c0.05-0.43,0.22-0.84,0.4-1.22c0.26-0.41,0.27-0.87,0.26-1.33
		c0.01-0.29,0.02-0.57,0.13-0.84c0.05-0.11,0.13-0.18,0.24-0.23c0.13,0.08,0.26,0.15,0.39,0.23
		C477.94,278.15,477.66,278.56,477.64,278.96z"/>
	<path style="fill-rule:evenodd;clip-rule:evenodd;fill:#37589A;" d="M477.64,278.96c-0.01-0.4-0.02-0.8-0.03-1.2
		c0.49-0.5,0.79-0.89,0.34-1.72c-0.45-0.84,0.37-1.23,1.12-1.42C478.7,276.1,478.33,277.59,477.64,278.96z"/>
	<path style="fill-rule:evenodd;clip-rule:evenodd;fill:#313F72;" d="M476.88,277.04c-0.14-0.16-0.28-0.31-0.42-0.47
		c0.06-0.1,0.1-0.23,0.19-0.3c0.26-0.21,0.31-0.89,0.64-0.68c0.36,0.23-0.01,0.69-0.24,1.01
		C476.95,276.73,476.93,276.9,476.88,277.04z"/>
	<path style="fill-rule:evenodd;clip-rule:evenodd;fill:#37589A;" d="M479.32,274.44c-0.08,0.06-0.17,0.13-0.26,0.19
		C479.15,274.56,479.23,274.5,479.32,274.44z"/>
	<path style="fill-rule:evenodd;clip-rule:evenodd;fill:#374591;" d="M476.93,277.27c0.09,0.09,0.19,0.18,0.28,0.26
		c0,0-0.11-0.04-0.11-0.04c-0.13,0-0.19-0.06-0.2-0.18L476.93,277.27z"/>
	<path style="fill-rule:evenodd;clip-rule:evenodd;fill:#322F81;" d="M491.07,278.98c-0.07-0.09-0.15-0.17-0.22-0.26
		C490.92,278.8,491,278.89,491.07,278.98z"/>
	<path style="fill-rule:evenodd;clip-rule:evenodd;fill:#3F3D2C;" d="M491.68,268.61c-0.05-0.32-0.11-0.63-0.16-0.95
		c0.2-0.25,0.33,0.02,0.49,0.06c0.02,0.14,0.05,0.28,0.07,0.41C491.91,268.27,492.36,268.92,491.68,268.61z"/>
	<path style="fill-rule:evenodd;clip-rule:evenodd;fill:#444127;" d="M496.87,283.99c-0.08-0.43,0.09-0.76,0.45-1
		C497.84,283.63,497.46,283.86,496.87,283.99z"/>
	<path style="fill-rule:evenodd;clip-rule:evenodd;fill:#413F2F;" d="M498.01,282.03c0.01,0.18,0.02,0.36,0.02,0.54
		C497.72,282.4,497.87,282.21,498.01,282.03z"/>
	<path style="fill-rule:evenodd;clip-rule:evenodd;fill:#F9E651;" d="M492.98,273.9c0.01-0.23,0.01-0.46,0.02-0.69
		c1.55,0.74,2.29,2.35,3.59,3.36c-0.26,0.01-0.54-0.03-0.72,0.24C494.56,276.18,493.96,274.85,492.98,273.9z"/>
	<path style="fill-rule:evenodd;clip-rule:evenodd;fill:#39569E;" d="M476.9,277.31c0.07,0.06,0.13,0.12,0.2,0.18
		c0,0.33,0.01,0.67,0.02,1c-0.22,0.45,0.08,0.97-0.2,1.42c-0.13,0.37-0.29,0.73-0.38,1.11c-0.13,0.5-0.3,1.16,0.23,1.38
		c0.44,0.19,0.54-0.56,0.87-0.81c0.71,1.59,1.85,1.88,2.89,0.73c0.9,1.43,2.38,1.57,3.85,1.72c0.15,0.33,0.67,0.57,0.23,1.02
		c-0.44,0.45-1.06,0.86-1.6,0.56c-1.83-1.03-3.98-0.9-5.87-1.81c-3.29-1.59-2.71-3.7-1.03-5.81
		C476.31,277.73,476.63,277.54,476.9,277.31z"/>
	<path style="fill-rule:evenodd;clip-rule:evenodd;fill:#F4D714;" d="M485.82,279.24c0.04,0,0.09-0.02,0.12-0.01
		c1.38,1.08,0.08,2.4,0.32,3.59c0.13,0.67-0.36,0.76-0.91,0.69c-0.79-0.1-1.59-0.1-2.37-0.25c-1.89-0.38-2.1-0.87-1.3-2.7
		C483.16,281.85,485.15,281.22,485.82,279.24z"/>
	<path style="fill-rule:evenodd;clip-rule:evenodd;fill:#299247;" d="M486.99,280.58c-0.15-0.93,0.25-1.25,1.14-1.16
		c0.51,0.05,1.04-0.03,1.55,0c0.36,0.02,0.9-0.5,1.03,0.3c0.1,0.64,0.04,1.24-0.72,1.41c-0.85,0.18-1.72,0.36-2.58,0.4
		C486.62,281.57,487.05,280.92,486.99,280.58z"/>
	<path style="fill-rule:evenodd;clip-rule:evenodd;fill:#F7DE28;" d="M485.82,279.24c0.11,0.11,0.34,0.25,0.32,0.32
		c-0.4,1.29-1.47,1.79-2.65,1.99c-0.76,0.13-1.78,0.36-1.82-1c0.09-0.29,0.18-0.59,0.26-0.88c1.24,0.41,2.32-0.32,3.47-0.5
		C485.54,279.2,485.68,279.22,485.82,279.24z"/>
	<path style="fill-rule:evenodd;clip-rule:evenodd;fill:#BD101A;" d="M487.7,283.55c-0.31-0.06-0.95,0.23-0.95-0.65
		c0-0.74,0.42-0.81,0.99-0.83c0.71-0.03,1.41-0.17,2.12-0.22c0.24-0.02,0.56-0.32,0.73,0.07c0.15,0.34-0.04,0.6-0.33,0.8
		C489.53,283.24,488.75,283.6,487.7,283.55z"/>
	<path style="fill-rule:evenodd;clip-rule:evenodd;fill:#F6E34D;" d="M485.41,279.18c-0.77,0.28-1.23,1.16-2.24,1.01
		c-0.48-0.07-0.89-0.15-1.23-0.51c0.05-1.28,0.49-1.85,1.81-1.1C484.25,278.87,484.85,278.99,485.41,279.18z"/>
	<path style="fill-rule:evenodd;clip-rule:evenodd;fill:#3958A0;" d="M485.77,278.5c0.57,0.05,1.19-0.24,1.71,0.23
		C486.91,278.66,486.3,278.86,485.77,278.5z"/>
	<path style="fill-rule:evenodd;clip-rule:evenodd;fill:#6D4624;" d="M477.02,281.83c-0.13-0.16-0.26-0.26-0.24-0.3
		c0.11-0.24,0.25-0.47,0.38-0.71c0.07,0.06,0.22,0.15,0.21,0.18C477.28,281.25,477.16,281.49,477.02,281.83z"/>
	<path style="fill-rule:evenodd;clip-rule:evenodd;fill:#374591;" d="M476.92,279.91c0.06-0.47-0.16-0.99,0.2-1.42
		C477.1,278.97,477.31,279.48,476.92,279.91z"/>
</g>
</svg>
