<?xml version="1.0" encoding="utf-8"?>
<!-- Generator: Adobe Illustrator 16.0.0, SVG Export Plug-In . SVG Version: 6.00 Build 0)  -->
<!DOCTYPE svg PUBLIC "-//W3C//DTD SVG 1.0//EN" "http://www.w3.org/TR/2001/REC-SVG-20010904/DTD/svg10.dtd" [
	<!ENTITY ns_flows "http://ns.adobe.com/Flows/1.0/">
	<!ENTITY ns_extend "http://ns.adobe.com/Extensibility/1.0/">
	<!ENTITY ns_ai "http://ns.adobe.com/AdobeIllustrator/10.0/">
	<!ENTITY ns_graphs "http://ns.adobe.com/Graphs/1.0/">
]>
<svg version="1.0" id="Layer_1" xmlns:x="&ns_extend;" xmlns:i="&ns_ai;" xmlns:graph="&ns_graphs;"
	 xmlns="http://www.w3.org/2000/svg" xmlns:xlink="http://www.w3.org/1999/xlink" xmlns:a="http://ns.adobe.com/AdobeSVGViewerExtensions/3.0/"
	 x="0px" y="0px" width="960px" height="560px" viewBox="0 0 960 560" style="enable-background:new 0 0 960 560;"
	 xml:space="preserve">
<g>
	<path style="fill-rule:evenodd;clip-rule:evenodd;fill:#98BB42;" d="M469.04,229.24c9.92,0,19.84,0,29.76,0
		c1,0.98,0.83,2.2,0.72,3.41c-0.22,0.58-0.75,0.8-1.27,1c-1.89,0.74-3.56,1.68-3.98,3.91c-0.06,0.31-0.26,0.58-0.58,0.72
		c-1.04,0.05-2.08-0.09-3.08-0.28c-1.44-0.28-2.86-0.27-4.3-0.23c-1.02,0.02-1.97,0.33-2.81,0.92c-0.19,0.14-0.38,0.3-0.6,0.4
		c-3.01,1.3-4.6,3.85-5.89,6.66c-0.43,0.94-0.53,1.89-0.37,2.92c0.27,1.74,0.3,3.5,0.42,5.25c0.02,0.32,0.01,0.65-0.07,0.96
		c-0.79,3.23-2.09,6.14-4.62,8.47c-3.07,2.83-6.63,5.15-9.06,8.67c-1.38,2.01-2.64,4.1-4.06,6.09c-0.3,0.42-0.59,0.85-0.9,1.27
		c-1.56,2.13-3.63,3.29-6.27,3.53c-3.42,0.3-6.78,1.2-10.24,1.11c-1.94-0.05-3.91-0.05-5.81-0.66c-1.26-0.41-2.62-0.41-3.92-0.45
		c-5-0.16-9.12-2.43-12.96-5.32c-2.5-1.89-2.96-4.74-3.03-7.64c-0.06-2.48,0.44-4.93,0.73-7.39c0.29-2.42,0.45-4.89,1.04-7.23
		c1.18-4.68,2.43-9.38,5.59-13.26c2.84-3.49,6.61-4.84,10.89-4.24c4.67,0.66,9.32,0.62,13.99,0.39c2.39-0.12,4.6,0.4,6.7,1.5
		c0.89,0.47,1.88,0.66,2.87,0.84c0.91,0.17,1.73-0.05,2.49-0.6c2.45-1.8,4.43-4,5.86-6.71
		C467.06,231.83,467.69,230.28,469.04,229.24z"/>
	<path style="fill-rule:evenodd;clip-rule:evenodd;fill:#98BB42;" d="M548.48,324.04c0,3.04,0,6.08,0,9.12
		c-0.46,0.23-0.95,0.11-1.42,0.11c-34.12,0.01-68.24,0-102.35,0.01c-0.6,0.07-1.03-0.22-1.42-0.68c-0.85-0.99-1.76-1.92-2.31-3.14
		c-0.33-0.74-1.01-1.21-1.55-1.79c-0.37-0.4-0.83-0.76-0.81-1.39c0.07-0.46,0.31-0.84,0.64-1.13c2.06-1.84,4.18-3.51,6.95-4.3
		c3.69-1.05,7.3-2.38,10.51-4.56c3.25-2.21,6.68-3.91,10.63-4.43c1.35-0.18,2.71-0.41,4.05-0.36c2.55,0.1,5.12,0.06,7.65,0.44
		c0.99,0.15,1.97,0.21,2.98,0.05c0.87-0.14,1.78-0.17,2.63-0.02c3.31,0.59,6.43-0.33,9.58-1.05c0.65-0.16,1.22-0.47,1.75-0.9
		c0.49-0.4,0.93-0.36,1.2,0.29c0.04,0.1,0.06,0.21,0.07,0.32c0,0.1-0.03,0.21-0.07,0.3c-0.05,0.08-0.12,0.16-0.19,0.23
		c-0.11,0.08-0.23,0.15-0.35,0.22c-0.07,0.05-0.14,0.1-0.21,0.15c-0.06,0.06-0.13,0.11-0.19,0.17c-0.03,0.03-0.06,0.06-0.08,0.1
		c-0.05,0.08-0.1,0.15-0.14,0.23c-0.02,0.04-0.04,0.08-0.05,0.13c-0.07,0.2-0.12,0.39-0.19,0.59c-0.74,2.61-2.46,4.38-4.64,5.88
		c-1.86,1.28-3.41,2.9-4.04,5.2c-0.52,1.9-0.23,2.63,1.55,3.42c1.91,0.85,3.82,0.73,5.7-0.06c3.17-1.33,5.84-3.42,7.85-6.14
		c2-2.69,2.31-5.82,0.89-8.96c-0.44-0.97-0.37-1.94-0.24-2.93c0.04-0.3,0.19-0.67,0.65-0.39c0.44,0.51,1.04,0.51,1.64,0.54
		c1.23,0.06,2.46-0.16,3.69,0.02c0.64,0.96,1.59,1.08,2.67,1.25c1.88,0.29,3.81,0.44,5.65,0.88c2.43,0.58,4.75,0.14,7.12-0.06
		c0.58-0.05,1.02-0.43,1.49-0.73c0.78-0.51,1.04-0.4,1.16,0.52c0.05,0.39,0.01,0.8,0.2,1.17c0.35,0.93,0.46,1.94,0.95,2.83
		c0.26,0.47,0.05,0.86-0.35,1.13c-0.91,0.61-1.3,1.53-1.39,2.55c-0.19,2.22,0.33,4.29,1.62,6.13c0.4,0.56,0.96,0.96,1.6,1.23
		c4.13,1.69,7.23,1.05,10.53-2.09c0.4-0.38,0.69-0.89,1.27-1.07c1.68-0.59,3.28,0.16,4.92,0.3
		C547.06,323.38,547.92,323.31,548.48,324.04z"/>
	<path style="fill-rule:evenodd;clip-rule:evenodd;fill:#010100;" d="M541.2,323.29c-3.1,3.95-6.9,5.07-11.3,3.42
		c-1.49-0.56-2.5-1.51-3.05-2.99c-0.65-1.74-1.1-3.51-0.77-5.38c0.07-0.39,0.13-0.94,0.38-1.11c2.19-1.41,0.68-3.11,0.44-4.71
		c-0.36-0.78-0.15-1.64-0.25-2.45c-0.29-2.58-1.85-4.66-2.6-7.03c-0.64-2.03-1.64-3.33-3.85-3.47c-0.15-0.01-0.3-0.1-0.45-0.16
		c-1.28-0.5-2.45-1.18-3.53-2.01c-0.77-0.56-1.54-1.13-2.23-1.79c-0.52-0.5-0.91-0.5-1.39,0.03c-0.67,0.74-1.38,1.43-2.1,2.12
		c-1.01,0.96-2.07,1.94-3.41,2.37c-1.57,0.51-2.31,1.57-2.61,3.08c-0.29,1.49-0.62,2.97-0.78,4.47c-0.04,0.35-0.05,0.72-0.37,0.97
		c-0.21,1.36-0.08,2.55,0.44,3.96c0.97,2.58,0.86,5.5-0.77,7.84c-2.56,3.68-5.9,6.51-10.42,7.57c-1.47,0.35-2.94,0.13-4.31-0.56
		c-1.8-0.91-2.04-1.43-1.6-3.42c0.52-2.37,1.98-4.12,3.9-5.42c2.39-1.61,4.3-3.52,5.09-6.37c0.17-0.1,0.1-0.36,0.29-0.44l-0.02,0.02
		c0.05-0.13,0.13-0.21,0.26-0.26l-0.02,0.02c0.05-0.13,0.13-0.22,0.27-0.25l-0.03,0.03c0.07-0.21,0.33-0.14,0.43-0.31l0.02-0.01
		c0.08-0.06,0.15-0.13,0.2-0.22c0-0.08,0.01-0.17,0.01-0.25c-0.69-2.17-0.23-4.4-0.3-6.59c0.05-0.71,0.3-1.39,0.5-2.07
		c0.12-0.4,0.21-0.83-0.25-1.05c-1.79-0.87-1.81-2.44-1.66-4.08c0.48-2.12,1.67-3.94,2.56-5.89c0.17-0.38,0.66-0.83,0.36-1.17
		c-0.35-0.4-0.88,0.03-1.31,0.16c-0.99,0.29-1.91,0.79-2.9,1.08c-0.86,0.37-1.95,0.05-2.65,0.88c-0.03,1.56-0.67,2.9-1.69,3.99
		c-0.87,0.92-0.87,1.77-0.33,2.8c0.33,0.62,0.74,1.3-0.05,1.92c-0.08,0.07-0.17,0.13-0.26,0.19c-0.04,0.03-0.09,0.06-0.13,0.09
		c-0.08,0.06-0.17,0.11-0.25,0.17c-0.04,0.03-0.08,0.05-0.13,0.08c-0.08,0.05-0.17,0.1-0.26,0.14c-0.13,0.07-0.26,0.13-0.4,0.18
		c-0.09,0.04-0.18,0.07-0.28,0.11c-0.2,0.07-0.39,0.15-0.59,0.22c-0.11,0.04-0.21,0.07-0.32,0.1c-0.27,0.07-0.57,0.22-0.82,0.15
		c-2.27-0.62-4.32,0.5-6.48,0.8c-2.89,0.39-5.54-0.31-8.07-1.64c-0.39-0.2-0.81-0.39-1.12-0.69c-1.33-1.29-2.61-1.11-4.19-0.29
		c-4.49,2.36-8.95,4.79-13.49,7.05c-3.08,1.53-6.21,2.96-9.39,4.24c-1.41,0.57-1.4,0.59-1.11,2.02c0.17,0.86,0.31,1.73,0.34,2.61
		c-0.01,0.12-0.03,0.24-0.06,0.35c-0.19,0.5-0.08,1.04-0.22,1.54c-0.58,2.15-1.54,4.06-3.23,5.58c-1.13,1.02-1.09,1.07-0.25,2.41
		c0.08,0.13,0.07,0.31,0.16,0.44c2.04,2.02,3.37,4.6,5.29,6.71c-0.37,0.31-0.81,0.08-1.2,0.15c-0.55-0.03-0.82-0.42-1.1-0.82
		c-1.47-2.08-3.12-4.01-4.82-5.91c-0.63-0.71-1.21-0.98-2.04-0.48c-0.2,0.09-0.4,0.18-0.6,0.27c-0.1,0.05-0.2,0.09-0.3,0.13
		c-0.74,0.21-1.44,0.51-2.19,0.69c-0.39,0.07-0.8,0.06-1.18,0.21c-0.12,0.04-0.24,0.06-0.36,0.08c-1.67,0.18-3.32,0.32-5.01,0.06
		c-2.73-0.42-5.17-1.36-7.05-3.48c-1.5-1.82-2.77-3.75-2.84-6.22c0.03-0.41-0.01-0.83,0.1-1.24c0.36-0.6,0.58-1.22,0.29-1.93
		c0.42-1.44,1.59-2.36,2.47-3.47c1.59-2,1.67-1.97-0.32-3.61c-2.49-2.06-4.62-4.51-7.17-6.51c-0.26-0.21-0.34-0.54-0.54-0.78
		c0-0.48,0-0.96,0-1.44c1.24,0.43,2.09,1.38,3.02,2.22c2.25,2.04,4.36,4.21,6.71,6.14c0.7,0.58,1.4,0.72,2.17,0.12
		c0.35-0.27,0.77-0.43,1.15-0.65c2.12-1.23,4.38-2,6.86-1.68c3.11,0.4,6.15,1.06,8.71,3.06c0.58,0.45,1.08,0.96,1.48,1.56
		c0.49,0.73,1.08,0.79,1.86,0.46c5.96-2.46,11.65-5.46,17.33-8.49c2.04-1.09,4.06-2.24,6.15-3.24c0.98-0.47,1.52-1.01,1.2-2.23
		c-0.26-1-0.07-2.07-0.07-3.1c0.01-0.17,0.03-0.33,0.08-0.49c0.05-0.2,0.13-0.39,0.19-0.58c0.03-0.09,0.06-0.18,0.1-0.26
		c0.07-0.16,0.14-0.33,0.19-0.5c0.02-0.08,0.05-0.16,0.08-0.24c0.05-0.11,0.11-0.23,0.16-0.34c0.03-0.07,0.07-0.15,0.11-0.22
		c0.05-0.11,0.11-0.21,0.17-0.32c0.03-0.07,0.07-0.14,0.12-0.21c0.04-0.07,0.09-0.13,0.14-0.19c0,0,0.07-0.09,0.07-0.09
		c0.07-0.1,0.12-0.2,0.18-0.31c0.03-0.08,0.07-0.15,0.11-0.22c0.03-0.08,0.07-0.15,0.11-0.23c0.04-0.08,0.09-0.15,0.14-0.23
		c0.05-0.08,0.11-0.15,0.17-0.22c0.03-0.04,0.06-0.07,0.09-0.11c0.06-0.08,0.12-0.16,0.17-0.23c0.03-0.04,0.06-0.08,0.08-0.13
		c0.05-0.09,0.11-0.18,0.17-0.27c0.46-0.6,1.02-1.11,1.47-1.72c0.22-0.29,0.51-0.61,0.85-0.62c1.82-0.05,2.65-1.56,3.86-2.51
		c0.4-0.39,0.85-0.74,1.17-1.2c0.87-1.22,2.02-1.4,3.39-1.11c1.15,0.24,2.21,0.71,3.23,1.24c2,1.03,3.65,0.7,5.36-0.77
		c3.63-3.12,7.23-6.28,10.83-9.42c0.08-0.08,0.16-0.16,0.25-0.24c0.08-0.08,0.16-0.16,0.25-0.24c0.04-0.04,0.08-0.08,0.12-0.12
		c0.08-0.09,0.16-0.17,0.25-0.24c0.91-0.95,1.91-1.8,2.9-2.67c0.85-0.74,1.76-1.39,2.86-1.67c0.83-0.21,1.17-0.7,1.14-1.55
		c-0.03-0.98-0.75-1-1.41-1.11c-2.99-0.48-5.77-1.48-8.3-3.17c-0.09-0.07-0.18-0.14-0.27-0.22c-0.04-0.04-0.08-0.08-0.13-0.11
		c-0.09-0.07-0.17-0.15-0.25-0.22c-0.05-0.03-0.09-0.07-0.14-0.1c-0.1-0.06-0.19-0.13-0.29-0.19c-0.1-0.06-0.19-0.14-0.28-0.21
		c-3.01-2.96-4.48-6.58-4.56-10.78c-0.01-0.64-0.06-1.27-0.44-1.82c-0.33-0.44-0.76-0.81-1.06-1.28c-0.09-0.14-0.16-0.28-0.23-0.44
		c-0.04-0.1-0.06-0.21-0.08-0.32c-0.01-0.16,0.01-0.33,0.06-0.48c0.05-0.16,0.11-0.31,0.19-0.45c0.05-0.1,0.1-0.19,0.16-0.28
		c0.35-0.49,0.88-0.62,1.43-0.73c0.33-0.06,0.74,0.07,0.92-0.36c0.04-0.2,0.03-0.41,0.02-0.62c0-0.22-0.01-0.44,0-0.67
		c0.01-0.23,0.04-0.46,0.09-0.68c0.09-0.28,0.14-0.56,0.17-0.85c0.13-0.58,0.27-1.16,0.75-1.58c0.43-3.25,3.01-4.23,5.54-5.27
		c0.48-0.54,1.15-0.69,1.79-0.88c3.29-0.98,6.64-1.2,10.03-0.8c1.1,0.13,2.23,0.03,3.31,0.35c0.2,0.01,0.4,0.01,0.6,0.02
		c0.26,0.01,0.52,0.01,0.78,0.02c0.19,0.01,0.37,0.04,0.56,0.09c0.52,0.19,1.07,0.14,1.61,0.13c1.93,0.07,3.66,0.79,5.34,1.66
		c0.11,0.04,0.22,0.1,0.33,0.16c0.21,0.12,0.44,0.22,0.66,0.32c1.04,0.51,2.13,0.88,3.22,1.26c2.08,0.72,3.32,2.1,3.59,4.31
		c0.08,0.63,0.24,1.26,0.19,1.9c-0.08,1.06,0.18,1.83,1.12,2.54c1.47,1.12,1.44,3.62-0.06,4.83c-0.98,0.79-1.41,1.65-1.37,2.83
		c-0.03,0.18-0.08,0.36-0.13,0.54c-0.06,0.23-0.12,0.46-0.2,0.69c-1.04,2.9-2.67,5.32-5.41,6.87c-2.39,1.49-5.05,2.35-7.71,3.18
		c-0.3,0.09-0.62,0.14-0.92,0.27c-0.42,0.17-1.06,0.22-0.93,0.88c0.14,0.67,0.69,0.33,1.08,0.28c0.75-0.09,1.4,0.25,2.08,0.45
		c0.4,0.16,0.81,0.29,1.2,0.49c0.09,0.05,0.18,0.1,0.26,0.16c0.04,0.03,0.08,0.06,0.12,0.09c0.12,0.09,0.24,0.17,0.37,0.25
		c0.09,0.04,0.17,0.09,0.26,0.14c0.09,0.04,0.18,0.09,0.27,0.14c0.1,0.05,0.19,0.1,0.28,0.16c0.1,0.06,0.19,0.12,0.28,0.18
		c0.05,0.03,0.09,0.06,0.14,0.1c1.09,0.89,2.12,1.81,2.79,3.08c0.89,1.68,0.96,3.39,0.11,5.05c-0.57,1.12-0.47,2.07,0.01,3.17
		c0.96,2.18,2.17,4.27,2.63,6.66c0.38,1.09,0.25,2.26,0.56,3.36c0.25,0.88,0.63,1.69,1.12,2.46c0.06,0.1,0.11,0.2,0.16,0.3
		c0.09,0.2,0.18,0.41,0.29,0.61c0.06,0.1,0.11,0.2,0.15,0.3c0.08,0.16,0.15,0.32,0.21,0.48c0.37,1.16,0.36,2.33,0.09,3.49
		c-0.13,0.59-0.16,1.16,0.07,1.73c0.4,1.71,1.34,3.26,1.55,5.03c0.01,0.08,0.04,0.16,0.03,0.24c-0.25,2.19,0.52,4.12,1.56,5.98
		c0.07,0.28,0.1,0.57,0.23,0.83c0.05,0.1,0.09,0.2,0.13,0.31c0.28,0.4,0.65,0.77,0.61,1.32c0,0.11,0,0.22,0,0.34
		c-0.02,0.45,0.19,0.86,0.22,1.29c0.1,1.32,0.86,2,2.08,2.28c1.09,0.25,1.88,0.83,2.29,1.9c0.99,1.55,2.4,2.84,2.84,4.71
		c0.06,0.34,0.07,0.68,0.04,1.03c-0.01,0.11-0.04,0.22-0.07,0.33c-0.05,0.16-0.14,0.3-0.27,0.41
		C541.39,323.2,541.3,323.25,541.2,323.29z"/>
	<path style="fill-rule:evenodd;clip-rule:evenodd;fill:#8DB742;" d="M493.74,238.12c-0.16,0.56-0.32,1.13-0.48,1.69
		c-0.17,0.24-0.04,0.55-0.19,0.79c-0.01,0.22-0.03,0.43-0.04,0.65c-0.17,0.19-0.07,0.52-0.36,0.65c-1.44,0.22-2.83-0.23-4.26-0.28
		c-4.33-0.15-7.64,2.5-8.26,6.81c-0.36,2.53-0.07,5.11-0.66,7.63c-0.37,1.56-0.82,3.08-1.54,4.52c-1.91,3.79-4.85,6.73-7.95,9.51
		c-1.54,1.38-2.75,2.97-3.9,4.67c-1.92,2.85-4.02,5.57-6.21,8.22c-1.77,2.15-4.16,3.14-6.73,3.62c-3.45,0.64-6.89,1.46-10.45,1.35
		c-2.76-0.09-5.5-0.42-8.17-1.12c-1.07-0.28-2.12-0.45-3.19-0.21c-2.86,0.65-5.35-0.05-7.62-1.86c-2.15-1.72-4.36-3.38-6.49-5.12
		c-2.15-1.76-3.29-4.29-3.47-7.03c-0.26-4.09-0.18-8.19,0.54-12.27c0.5-2.86,0.45-5.84,1.38-8.63c1.56-4.67,3.19-9.32,7.02-12.77
		c2.69-2.42,5.76-3.82,9.43-3.81c2.64,0,5.27,0.17,7.9,0.36c2.7,0.2,5.43,0.22,8.15,0.12c2.35-0.09,4.62,0.36,6.84,1.06
		c2.29,0.73,4.23,0.45,6.1-1.21c1.74-1.54,3.08-3.33,4.28-5.28c0.21-0.34,0.42-0.67,0.74-0.93c0.96,0,1.92,0,2.88,0
		c-1.98,3.06-3.42,6.45-6.04,9.13c-2.74,2.8-4.83,3.43-8.26,1.57c-3.19-1.73-6.59-1.46-9.95-1.24c-2.6,0.17-5.16,0.15-7.73-0.23
		c-3.93-0.59-7.81-0.8-11.21,1.82c-2.27,1.75-3.85,4.06-4.88,6.69c-1.01,2.59-2.08,5.22-2.62,7.93c-0.78,3.96-1.11,8.01-1.64,12.02
		c-0.21,1.62-0.17,3.22-0.06,4.86c0.25,3.83,2.65,5.86,5.66,7.52c0.66,0.36,1.32,0.73,1.97,1.11c2.42,1.4,5.06,2.01,7.82,2.08
		c2.55,0.07,4.99,0.82,7.52,1.04c3.13,0.28,6.16-0.13,9.22-0.58c1.26-0.18,2.52-0.34,3.78-0.47c3.06-0.3,4.83-2.31,6.4-4.67
		c2.34-3.51,4.48-7.16,7.61-10.08c1.83-1.7,3.99-3,5.69-4.86c2.81-3.06,4.95-6.4,4.19-10.76c-0.73-4.18-0.08-7.99,2.93-11.01
		c2.89-2.9,6.41-4.53,10.71-3.54C491.32,237.85,492.54,237.94,493.74,238.12z"/>
	<path style="fill-rule:evenodd;clip-rule:evenodd;fill:#79AE42;" d="M500,271.48c-3.94,3.74-8.05,7.27-12.29,10.66
		c-0.85,0.68-1.87,0.86-2.93,0.42c-0.96-0.39-1.92-0.76-2.87-1.17c-2.61-1.13-3.36-1-5.33,0.92c-0.25,0.25-0.54,0.46-0.82,0.69
		c-1.41-0.04-2.38,0.97-3.31,1.71c-2.02,1.62-4.14,2.95-6.52,3.96c-1.55,0.66-2.88,1.71-4.14,2.83c-0.48,0.43-0.99,0.86-1.66,0.89
		c-1.38,0.07-2.52,0.74-3.67,1.38c-4.23,2.33-8.7,3.8-13.55,3.98c-0.56,0.02-1.11,0.13-1.66,0.23c-2.62,0.5-5.26,0.5-7.86-0.05
		c-2.09-0.44-4.22-0.36-6.31-0.66c-3.47-0.5-6.4-1.77-8.4-4.89c-0.91-1.43-2.22-2.61-3.4-3.86c-1.22-1.3-2.29-2.67-2.7-4.45
		c-0.05-0.19-0.12-0.38-0.21-0.56c-0.84-1.72-1.64-3.46-2.13-5.32c0-1.12,0-2.24,0-3.36c0.72-0.04,0.8,0.55,0.97,1.01
		c0.41,1.08,0.72,2.2,1.16,3.28c1.18,2.92,2.75,5.44,5.79,6.85c2.07,0.96,3.52,2.8,4.25,4.87c0.9,2.57,2.8,3.49,5.09,3.98
		c4.16,0.89,8.37,1.11,12.59,0.38c0.12-0.02,0.24-0.04,0.36-0.03c6.01,0.62,11.16-1.99,16.47-4.19c3.96-1.64,7.3-4.23,10.81-6.54
		c2.18-1.43,4.41-3.05,5.58-5.64c0.66-1.46,1.94-2.54,2.96-3.75c1.74-2.08,2.84-4.63,4.89-6.48c0.89-0.81,1.2-1.96,1.47-3.1
		c0.33-1.36,0.67-2.7,1.83-3.68c0.59-0.5,0.56-1.27,0.51-2.02c-0.21-3.27,0.08-6.54,0.17-9.81c0.07-2.39,2.21-4.29,4.6-3.62
		c0.53,0.15,1.11,0.06,1.67,0.11c0.54,0.32,0.69,0.83,0.68,1.43c-0.07,4.47,1.41,8.33,4.62,11.49c0.19,0.95-0.45,1.66-0.76,2.44
		c-0.53,1.33-1.16,2.62-1.26,4.08c-0.09,1.31,0.69,2.19,1.97,2.04c0.8-0.09,1.37,0.03,1.43,0.95c0.04,0.65,0.42,0.66,0.91,0.56
		c0.51-0.11,0.99-0.33,1.51-0.37c0.32-0.02,0.66,0,0.8,0.36c0.12,0.31-0.08,0.52-0.25,0.75C500.69,270.64,500.1,270.86,500,271.48z"
		/>
	<path style="fill-rule:evenodd;clip-rule:evenodd;fill:#71AB41;" d="M467.09,292.85c0.02,1.43-0.19,2.88,0.33,4.27
		c0.19,0.52-0.13,0.71-0.5,0.91c-8.22,4.36-16.34,8.92-24.94,12.52c-0.78,0.33-1.25,0.32-1.75-0.49c-0.85-1.4-2.14-2.37-3.63-3.03
		c-5.1-2.26-10.1-2.67-14.81,0.96c-0.75,0.58-1.23,0.1-1.65-0.25c-2.49-2.02-4.82-4.24-7.11-6.49c-0.87-0.86-1.86-1.61-2.8-2.41
		c0-3.44,0-6.88,0-10.32c0.97-0.01,1.26,0.8,1.54,1.44c0.89,2.04,2.29,3.61,4.01,4.99c1.22,0.99,2.68,1.41,4.07,1.99
		c1.27,0.54,2.54,1.21,4,1.15c0.16-0.01,0.33,0.04,0.46,0.14c1.74,1.25,3.72,1.31,5.74,1.24c0.24-0.01,0.48,0.03,0.71,0.09
		c3.84,0.88,7.81,0.77,11.63,0.5c4.66-0.34,9.3-1.51,13.48-3.91c1.23-0.71,2.47-1.5,4.02-1.31c0.39,0.05,0.76-0.22,1.11-0.41
		c1.29-0.69,2.7-0.98,4.1-1.29c0.24-0.05,0.48-0.08,0.71-0.03C466.39,293.21,466.81,293.13,467.09,292.85z"/>
	<path style="fill-rule:evenodd;clip-rule:evenodd;fill:#73AC41;" d="M527.36,284.43c-0.81-2.5-1.96-4.86-3-7.26
		c-0.25-0.56-0.57-1.13-0.17-1.81c2.07-3.46,0.59-6.33-1.94-8.4c-0.21-0.17-0.42-0.36-0.63-0.53c-0.1-0.74,0.33-1.09,0.95-1.31
		c1.65-0.6,3.34-1.09,5.04-1.52c1.08-0.27,2.17,0.18,3.31-0.15c1.45-0.42,2.92-0.81,4.38-1.2c3.84-1.02,7.77-1.33,11.71-1.67
		c0.52-0.04,1.04-0.05,1.47,0.34c0,5.36,0,10.72,0,16.08c-0.38,0.41-0.88,0.52-1.41,0.57c-3.68,0.4-7.18,1.45-10.68,2.62
		c-2.13,0.72-4.08,1.82-6.21,2.52C529.15,283.06,528.54,284.24,527.36,284.43z"/>
	<path style="fill-rule:evenodd;clip-rule:evenodd;fill:#99BB42;" d="M530.69,251.71c0.01-1.26,0.06-2.3,1.41-3.17
		c1.79-1.16,1.36-3.88-0.6-4.81c-0.51-0.25-0.62-0.5-0.59-0.98c0.04-0.52,0.09-1.04,0.06-1.55c-0.18-3.68-0.99-4.74-4.49-6.02
		c-0.85-0.31-1.76-0.52-2.49-1.12c-0.12-0.16-0.34-0.12-0.48-0.25l0,0c-0.35-0.78,0.34-0.96,0.76-1.23
		c1.82-1.13,3.78-2.03,5.48-3.34c2.64,0,5.28,0,7.92,0c0.72,0.19,1.44,0.19,2.16,0c0.96,0,1.92,0,2.88,0
		c0.88,1.28,2.02,2.36,2.88,3.65c0.77,1.16,2.1,1.7,2.88,2.83c0,5.36,0,10.72,0,16.08c-0.49,0.45-1.11,0.38-1.7,0.4
		c-2.19,0.08-4.37-0.07-6.55-0.04c-2.8,0.04-5.54,0.38-8.28,0.95c-0.51,0.1-1.27,0.58-1.52-0.44c0.04-0.22,0.07-0.43,0.11-0.65
		C530.59,251.92,530.68,251.84,530.69,251.71z"/>
	<path style="fill-rule:evenodd;clip-rule:evenodd;fill:#7EB042;" d="M491.39,246.47c-0.5,0.52-1.14,0.32-1.7,0.26
		c-2.59-0.26-4.32,1-4.28,3.58c0.05,3.26-0.44,6.51-0.07,9.78c0.11,0.93-0.09,1.84-1.06,2.35c-0.65,0.34-0.84,1.06-0.91,1.62
		c-0.35,2.82-2.2,4.71-3.72,6.9c-1.95,2.8-4.33,5.28-6.11,8.17c-2.35,3.84-6.07,5.93-9.69,8.21c-0.64,0.4-1.25,0.83-1.87,1.25
		c-4.34,2.96-9.19,4.79-14.18,6.19c-2.2,0.62-4.42,1.23-6.89,0.82c-1.92-0.32-3.99,0.49-6.04,0.38c-2.92-0.15-5.85-0.16-8.65-1.14
		c-1.94-0.68-3.42-1.64-4.11-3.89c-0.55-1.76-1.82-3.53-3.59-4.33c-3.89-1.75-5.7-4.99-7.01-8.74c-0.36-1.03-0.4-2.21-1.27-3.03
		c0-7.28,0-14.56,0-21.84c0.25-0.34,0.28-0.74,0.37-1.13c1.1-4.85,2.96-9.39,6.06-13.31c3.13-3.96,7.22-6.46,12.18-7.54
		c3.66-0.79,7.31-0.44,10.98-0.14c2.02,0.17,4.05,0.3,6.09,0.27c1.79-0.03,3.58,0.32,5.36,0.51c1.51,0.16,3.01,0.54,4.51,0.6
		c1.58,0.06,3.25-0.17,4.44-1.53c0.44-0.51,0.82-1.09,1.38-1.49c0.4,0,0.8,0,1.2,0c0.3,0.41,0.09,0.77-0.13,1.1
		c-2.02,3.11-5.06,4.33-8.55,3.53c-2.51-0.58-5.05-0.83-7.6-0.89c-4.11-0.11-8.21-0.37-12.31-0.53c-6.44-0.25-11.7,2.15-15.77,7.12
		c-2.13,2.59-3.6,5.57-4.69,8.72c-0.51,1.47-0.96,2.97-1.51,4.43c-0.71,1.88-0.46,3.88-0.65,5.81c-0.2,2.1-0.27,4.25-0.18,6.34
		c0.19,4.12-0.13,8.36,1.6,12.28c1.23,2.8,2.7,5.37,5.69,6.84c1.71,0.84,3,2.39,4.02,4.03c0.62,1,1.31,1.9,2.13,2.73
		c1.3,1.32,2.73,1.8,4.65,1.5c3-0.48,6.08-1.11,9.04,0.34c0.46,0.23,1.03,0.17,1.54,0.13c3.34-0.3,6.72-0.23,10-1.02
		c1.44-0.35,2.85-0.79,4.18-1.46c2.42-1.23,4.89-2.38,7.26-3.73c0.85-0.48,1.55-1.11,2.26-1.75c2.18-1.95,3.99-4.2,5.72-6.56
		c1.39-1.89,3.11-3.53,4.1-5.72c0.28-0.61,0.73-1.16,1.23-1.62c1.95-1.78,3.29-4.03,4.61-6.26c1.87-3.17,2.85-6.66,2.93-10.38
		c0.04-1.76,0.23-3.51,0.54-5.24c0.52-2.89,3.31-4.76,6.29-4.61c0.38,0.02,0.69,0.19,0.94,0.47c0.04,0.05,0.06,0.11,0.04,0.17
		c0.04,0.12,0.12,0.22,0.21,0.3C490.72,245.7,491.05,246.09,491.39,246.47z"/>
	<path style="fill-rule:evenodd;clip-rule:evenodd;fill:#81B241;" d="M490.14,244.84c-4.21-0.61-7.06,1.7-7.2,6.37
		c-0.13,4.55-0.59,9.07-2.91,13.14c-1.58,2.77-3.88,5.07-5.55,7.73c-2.12,3.38-4.72,6.37-7.08,9.53c-1.86,2.49-4.27,4.81-7.33,6.14
		c-2.85,1.24-5.47,2.96-8.47,3.9c-2.34,0.73-4.74,0.95-7.14,1.19c-1.18,0.12-2.38,0.02-3.57,0.21c-1.12,0.18-2.27,0.08-3.39-0.41
		c-2.94-1.28-5.92-0.2-8.87,0.09c-1,0.1-1.82-0.06-2.59-0.56c-1.26-0.81-2.34-1.83-3.1-3.11c-1.37-2.31-3.15-4.1-5.54-5.41
		c-2.45-1.34-3.65-3.85-4.7-6.3c-1.39-3.24-1.34-6.73-1.51-10.2c-0.2-4.26,0-8.51,0.33-12.74c0.2-2.57,1.4-4.98,2.33-7.39
		c1.94-5,4.75-9.43,9.51-12.24c3.27-1.94,6.84-2.76,10.7-2.71c3.17,0.04,6.32,0.42,9.51,0.43c3.73,0.01,7.51,0.31,11.23,1.16
		c2.36,0.54,4.81,0.04,6.46-2.19c0.53-0.73,1.45-1.18,1.56-2.2c0.56,0,1.12,0,1.68,0c0.2,0.89-0.45,1.41-0.92,1.96
		c-0.7,0.82-1.44,1.6-2.16,2.41c-1.49,1.69-3.37,2.31-5.59,1.94c-1.18-0.2-2.35-0.48-3.53-0.68c-3.4-0.58-6.82-0.59-10.25-0.62
		c-2.23-0.02-4.47-0.18-6.7-0.35c-8.13-0.62-14.05,2.78-17.91,9.89c-2.88,5.29-4.3,10.94-4.48,16.98c-0.1,3.23-0.22,6.46-0.17,9.69
		c0.06,3.38,0.89,6.54,2.99,9.3c0.62,0.82,1.35,1.48,2.19,2.01c0.98,0.63,1.84,1.39,2.74,2.12c1.4,1.14,2.71,2.33,3.78,3.8
		c1.51,2.08,3.73,2.32,5.93,1.66c2.05-0.62,3.89-0.74,5.92,0.1c1.65,0.68,3.51,0.68,5.31,0.67c1.4-0.01,2.79,0.09,4.19-0.03
		c3.1-0.27,6.19-0.57,9.08-1.91c4.73-2.19,8.88-5.07,11.53-9.71c2.46-4.31,6.06-7.7,9.12-11.53c3.31-4.13,5.59-8.73,5.62-14.2
		c0.01-2.09,0.3-4.15,1.13-6.09c0.99-2.31,4.57-4.07,7.01-3.5c0.47,0.11,0.95,0.22,1.15,0.75c0,0.08-0.03,0.15-0.09,0.21
		c-0.08,0.09-0.16,0.18-0.2,0.29C490.17,244.56,490.15,244.7,490.14,244.84z"/>
	<path style="fill-rule:evenodd;clip-rule:evenodd;fill:#87B442;" d="M490.46,243.91c-4-1.64-7.87,0.84-8.53,5.12
		c-0.45,2.95-0.18,5.98-1.13,8.85c-0.6,1.81-1.26,3.56-2.23,5.24c-2.49,4.32-6.14,7.68-9.18,11.53c-1.55,1.96-2.81,4.14-4.21,6.22
		c-1.28,1.9-2.9,3.56-4.82,4.7c-2.61,1.57-5.21,3.25-8.26,4c-1.78,0.44-3.59,0.64-5.39,0.82c-3.02,0.32-6.06,0.11-9.08-0.14
		c-0.69-0.06-1.43-0.27-2.02-0.62c-1.6-0.95-3.13-0.53-4.72-0.05c-2.48,0.76-4.88,0.71-6.58-1.56c-1.99-2.67-4.66-4.5-7.24-6.49
		c-2.75-2.13-3.89-5.18-4.41-8.47c-0.49-3.09-0.31-6.22-0.24-9.33c0.15-6.9,1.09-13.61,4.48-19.81c2.96-5.41,7.11-9.16,13.31-10.24
		c2.15-0.38,4.36-0.28,6.53-0.09c2.26,0.2,4.51,0.16,6.76,0.24c3.97,0.14,7.95,0.28,11.84,1.26c2.59,0.66,4.72-0.09,6.32-2.33
		c0.88-1.22,2.23-2.08,2.83-3.53c0.16,0,0.32,0,0.48,0c0.36,0.47,0.02,0.84-0.22,1.17c-0.29,0.39-0.48,0.82-0.66,1.25
		c-0.04,0.1-0.09,0.19-0.14,0.28c-0.07,0.14-0.16,0.27-0.24,0.4c-0.26,0.39-0.6,0.71-0.92,1.04c-0.07,0.08-0.15,0.15-0.22,0.22
		c-0.04,0.04-0.08,0.07-0.12,0.11c-0.08,0.07-0.16,0.14-0.25,0.2c-0.09,0.07-0.18,0.12-0.28,0.18c-1.06,0.9-2.45,1.28-3.51,2.18
		c-0.1,0.06-0.2,0.11-0.31,0.14c-0.71,0.09-1.43-0.05-2.14,0.07c-0.16,0-0.32-0.03-0.48-0.07c-0.2-0.05-0.4-0.12-0.6-0.16
		c-0.15-0.03-0.29-0.07-0.44-0.11c-0.23-0.08-0.47-0.14-0.71-0.18c-0.1-0.02-0.19-0.04-0.29-0.07c-0.19-0.06-0.38-0.12-0.57-0.17
		c-0.1-0.02-0.2-0.05-0.3-0.08c-0.36-0.12-0.73-0.08-1.09-0.11c-0.17-0.01-0.33-0.04-0.49-0.08c-0.49-0.18-1-0.1-1.5-0.16
		c-0.11-0.01-0.23-0.04-0.34-0.06c-0.45-0.19-0.91-0.09-1.36-0.04c-0.13,0-0.25-0.01-0.37-0.04c-2.03,0.04-4.05-0.26-6.08-0.05
		c-0.27,0.04-0.53,0.04-0.8,0.03c-0.33-0.03-0.66-0.03-1,0c-0.47,0.02-0.93-0.01-1.39-0.1c-0.51-0.17-1.02-0.19-1.55-0.13
		c-0.6,0.01-1.2,0.02-1.79-0.09c-1.07-0.27-2.14-0.23-3.22-0.07c-0.17,0.05-0.35,0.08-0.53,0.09c-0.38,0.04-0.78-0.01-1.15,0.11
		c-0.1,0.03-0.2,0.05-0.3,0.07c-0.29,0.04-0.58,0.05-0.87,0.13c-0.09,0.03-0.18,0.05-0.27,0.08c-0.17,0.05-0.35,0.1-0.52,0.16
		c-0.08,0.03-0.17,0.06-0.25,0.09c-0.12,0.04-0.25,0.08-0.37,0.12c-0.08,0.03-0.16,0.06-0.23,0.09c-0.11,0.05-0.23,0.09-0.34,0.15
		c-0.07,0.04-0.14,0.07-0.22,0.11c-0.11,0.05-0.21,0.11-0.32,0.16c-0.07,0.04-0.14,0.08-0.21,0.11c-0.1,0.06-0.21,0.11-0.32,0.15
		c-0.07,0.03-0.15,0.06-0.22,0.07c-0.11,0.03-0.22,0.06-0.32,0.1c-0.06,0.04-0.13,0.07-0.19,0.11c-0.06,0.05-0.12,0.09-0.18,0.13
		c-0.06,0.05-0.12,0.09-0.19,0.12c-0.06,0.04-0.13,0.08-0.19,0.12c-0.06,0.04-0.12,0.09-0.18,0.13c-0.05,0.05-0.11,0.1-0.17,0.15
		c0,0-0.08,0.08-0.08,0.08c-0.05,0.06-0.1,0.11-0.16,0.17c0,0-0.09,0.08-0.08,0.08c-0.06,0.06-0.12,0.1-0.18,0.14
		c-0.06,0.04-0.13,0.08-0.2,0.11c-0.06,0.04-0.13,0.08-0.19,0.12c0,0-0.09,0.07-0.09,0.07c-0.06,0.05-0.11,0.1-0.17,0.15
		c0,0-0.08,0.08-0.08,0.08c-0.05,0.06-0.11,0.11-0.16,0.17c0,0-0.08,0.08-0.08,0.08c-0.05,0.06-0.11,0.12-0.16,0.17
		c0,0-0.08,0.08-0.08,0.08c-0.05,0.06-0.11,0.11-0.17,0.17c-0.08,0.08-0.17,0.17-0.25,0.25c-0.05,0.06-0.11,0.11-0.17,0.17
		c0,0-0.09,0.08-0.08,0.08c-0.05,0.06-0.11,0.11-0.17,0.16c0,0-0.09,0.08-0.08,0.08c-0.05,0.06-0.11,0.11-0.17,0.16
		c0,0-0.08,0.08-0.08,0.08c-0.05,0.06-0.11,0.11-0.16,0.16c0,0-0.08,0.08-0.08,0.08c-0.05,0.06-0.1,0.11-0.15,0.17
		c0,0-0.07,0.09-0.07,0.09c-0.04,0.07-0.08,0.13-0.12,0.2c-0.03,0.07-0.08,0.14-0.12,0.2c-0.04,0.07-0.09,0.13-0.15,0.19
		c0,0-0.08,0.08-0.08,0.09c-0.05,0.06-0.1,0.12-0.16,0.18c0,0-0.07,0.09-0.07,0.09c-0.04,0.07-0.08,0.13-0.12,0.2
		c-0.04,0.07-0.08,0.14-0.13,0.2c-0.04,0.07-0.09,0.13-0.15,0.18c0,0-0.08,0.08-0.08,0.09c-0.05,0.06-0.11,0.11-0.16,0.17
		c0,0-0.08,0.09-0.07,0.09c-0.07,0.09-0.12,0.19-0.17,0.3c-0.03,0.07-0.07,0.14-0.1,0.21c-0.03,0.07-0.07,0.14-0.11,0.21
		c-0.04,0.07-0.08,0.14-0.12,0.21c-0.04,0.07-0.09,0.13-0.14,0.2c-0.02,0.03-0.05,0.07-0.07,0.1c-0.04,0.07-0.08,0.14-0.13,0.21
		c-0.04,0.07-0.08,0.14-0.13,0.21c-0.04,0.07-0.09,0.13-0.14,0.2c0,0-0.07,0.1-0.06,0.1c-0.06,0.1-0.1,0.21-0.14,0.33
		c-0.02,0.08-0.05,0.15-0.08,0.22c-0.05,0.11-0.1,0.21-0.16,0.32c-0.03,0.07-0.07,0.14-0.11,0.21c-0.05,0.1-0.11,0.21-0.16,0.31
		c-0.03,0.07-0.06,0.14-0.1,0.21c-0.05,0.11-0.1,0.22-0.15,0.33c-0.03,0.08-0.06,0.15-0.09,0.23c-0.04,0.12-0.08,0.24-0.11,0.36
		c-0.02,0.08-0.05,0.17-0.08,0.24c-0.05,0.12-0.1,0.24-0.16,0.35c-0.03,0.08-0.07,0.15-0.11,0.23c-0.05,0.12-0.09,0.24-0.13,0.36
		c-0.02,0.08-0.05,0.16-0.08,0.24c-0.06,0.16-0.12,0.32-0.16,0.49c-0.02,0.08-0.05,0.17-0.08,0.25c-0.05,0.12-0.1,0.24-0.16,0.35
		c-0.03,0.08-0.07,0.16-0.11,0.23c-0.05,0.12-0.09,0.24-0.13,0.37c-0.02,0.09-0.05,0.17-0.08,0.25c-0.05,0.13-0.11,0.25-0.17,0.37
		c-0.03,0.08-0.07,0.17-0.11,0.25c-0.05,0.13-0.09,0.26-0.13,0.39c-0.02,0.09-0.05,0.18-0.08,0.27c-0.05,0.19-0.1,0.37-0.13,0.56
		c-0.02,0.1-0.04,0.19-0.07,0.29c-0.08,0.24-0.15,0.49-0.21,0.74c-0.02,0.11-0.05,0.21-0.09,0.31c-0.29,1.09-0.53,2.18-0.3,3.32
		c-0.01,0.19-0.03,0.37-0.08,0.54c-0.39,1.55-0.67,3.12-0.64,4.73c-0.01,0.13-0.04,0.26-0.08,0.39c-0.6,1.96-0.01,3.93-0.11,5.9
		c0.02,0.2,0.03,0.39,0.01,0.59c-0.02,0.26-0.02,0.52,0,0.77c0.01,0.44-0.01,0.88-0.01,1.32c0.01,0.65-0.07,1.31,0.06,1.96
		c0.03,0.11,0.06,0.22,0.08,0.33c0.05,0.21,0.1,0.42,0.16,0.63c0.05,0.15,0.08,0.3,0.11,0.46c0.04,0.2,0.09,0.4,0.15,0.59
		c0.05,0.15,0.09,0.3,0.13,0.45c0.06,0.22,0.19,0.4,0.3,0.59c1.01,2.3,2.7,3.95,4.66,5.5c2.06,1.63,4.22,3.17,6.13,4.99
		c1.34,1.28,2.86,1.54,4.54,1.15c1.94-0.45,3.8-0.54,5.77,0.04c4.28,1.26,8.61,1.42,13.03,0.47c2.34-0.5,4.71-0.76,6.99-1.57
		c3.03-1.08,5-3.32,6.95-5.67c2.1-2.53,3.75-5.37,5.72-7.98c1.41-1.87,3.15-3.49,4.78-5.18c2.5-2.59,4.49-5.49,5.7-8.9
		c0.86-2.43,1.25-4.93,1.25-7.5c0-1.44,0.3-2.87,0.68-4.25c0.83-3,3.42-4.71,6.93-4.92c1.87-0.11,3.64,0.4,5.47,0.54
		c0.29,0.76-0.32,0.52-0.63,0.53C491.69,243.17,490.95,243.19,490.46,243.91z"/>
	<path style="fill-rule:evenodd;clip-rule:evenodd;fill:#76AD41;" d="M467.09,292.85c-0.29,0.25-0.18,0.59-0.22,0.9
		c-0.02,0.17-0.07,0.53-0.31,0.25c-1.2-1.49-2.39,0.05-3.58,0.02c-0.69-0.01-1.43,0.48-2.07,0.87c-1.13,0.69-2.47,0.14-3.66,0.91
		c-4.06,2.62-8.74,3.53-13.37,4.54c-1.7,0.37-3.4,0.35-5.07,0.1c-1.4-0.21-2.82-0.28-4.17-0.09c-1.33,0.18-2.52,0.07-3.73-0.4
		c-0.77-0.3-1.59-0.16-2.38-0.13c-1.45,0.07-2.69-0.37-3.97-1.05c-1.34-0.71-2.94-0.74-4.4-1.29c-3.49-1.31-6.54-3.02-8.24-6.53
		c-0.43-0.89-0.8-1.84-1.68-2.42c0-3.44,0-6.88,0-10.32c1.14,1.65,1.87,3.54,2.46,5.38c0.77,2.41,2.35,4.08,3.88,5.89
		c1.04,1.24,2.2,2.36,3.13,3.71c1.71,2.46,4.38,3.36,7.22,3.73c3.46,0.45,6.94,0.81,10.41,1.14c0.85,0.08,1.74-0.09,2.6-0.18
		c4.87-0.51,9.73-1.11,14.23-3.24c0.97-0.46,1.88-1.04,2.83-1.52c0.99-0.5,1.97-0.91,3.13-1.05c1.53-0.19,2.33-1.8,3.65-2.55
		c1.07-0.6,2.1-1.26,3.24-1.73c1.14-0.47,2.35-0.86,3.22-1.79c1.33-1.44,3.28-2.05,4.6-3.53c0.6-0.68,0.34,0.78,0.91,0.55
		c-0.62,0.66-1.24,1.33-1.86,1.99c-0.13,0.14-0.32,0.37-0.45,0.35c-2.17-0.3-2.78,1.66-4.01,2.72c-0.03,0.09-0.08,0.15-0.16,0.2
		l-0.01,0.02c-0.07,0.08-0.14,0.17-0.21,0.26l0.01-0.01c-0.12,0.08-0.21,0.19-0.23,0.33c0.01,0.07-0.02,0.12-0.08,0.15
		c-0.05,0.08-0.11,0.16-0.18,0.24l0-0.01c-0.16,0.11-0.1,0.34-0.26,0.46l-0.01,0.02c-0.09,0.1-0.18,0.2-0.2,0.33
		c0.01,0.07-0.02,0.13-0.08,0.16c-0.06,0.1-0.15,0.19-0.16,0.32c0.02,0.07,0,0.12-0.06,0.16c-0.08,0.1-0.17,0.2-0.18,0.33
		c0.04,0.05,0.03,0.1-0.02,0.14c-0.17,0.14-0.12,0.37-0.22,0.54c0.03,0.07,0.02,0.13-0.03,0.18c-0.15,0.16-0.12,0.38-0.21,0.56
		C467.13,292.58,467.11,292.71,467.09,292.85z"/>
	<path style="fill-rule:evenodd;clip-rule:evenodd;fill:#88B542;" d="M415.04,251.32c0-0.08,0-0.16,0-0.24
		c0.15-0.13,0.1-0.35,0.24-0.48c0.15-0.13,0.09-0.35,0.24-0.48c0-0.08,0-0.16,0-0.24c0.15-0.12,0.1-0.35,0.24-0.48
		c0.15-0.13,0.09-0.35,0.24-0.48c0-0.08,0-0.16,0-0.24c0.15-0.12,0.09-0.35,0.24-0.48c0-0.08,0-0.16,0-0.24
		c0.15-0.12,0.1-0.35,0.24-0.48c0.15-0.13,0.09-0.35,0.24-0.48c0-0.08,0-0.16,0-0.24c0.15-0.12,0.09-0.35,0.24-0.48
		c0-0.08,0-0.16,0-0.24c0.09-0.07,0.15-0.17,0.24-0.24c0-0.08,0-0.16,0-0.24c0.09-0.07,0.15-0.17,0.24-0.24c0-0.08,0-0.16,0-0.24
		c0.09-0.07,0.15-0.17,0.24-0.24c0-0.08,0-0.16,0-0.24c0.15-0.13,0.1-0.35,0.24-0.48c0.08-0.08,0.16-0.16,0.24-0.24
		c0-0.08,0-0.16,0-0.24c0.09-0.07,0.16-0.16,0.24-0.24c0.08-0.08,0.16-0.16,0.24-0.24c0-0.08,0-0.16,0-0.24
		c0.09-0.07,0.16-0.16,0.24-0.24c0.15-0.13,0.1-0.35,0.24-0.48c0.08-0.08,0.16-0.16,0.24-0.24c0.08-0.08,0.16-0.16,0.24-0.24
		c0-0.08,0-0.16,0-0.24c0.09-0.07,0.16-0.16,0.24-0.24c0.08-0.08,0.16-0.16,0.24-0.24c0.08-0.08,0.16-0.16,0.24-0.24
		c0-0.08,0-0.16,0-0.24c0.09-0.07,0.16-0.16,0.24-0.24c0.08-0.08,0.16-0.16,0.24-0.24c0.08-0.08,0.16-0.16,0.24-0.24
		c0.08-0.08,0.16-0.16,0.24-0.24c0.08-0.08,0.16-0.16,0.24-0.24c0.08-0.08,0.16-0.16,0.24-0.24c0.08-0.08,0.16-0.16,0.24-0.24
		c0.08-0.08,0.16-0.16,0.24-0.24c0.08-0.08,0.16-0.16,0.24-0.24c0.08-0.08,0.16-0.16,0.24-0.24c0.08-0.08,0.16-0.16,0.24-0.24
		c0.08-0.08,0.17-0.15,0.24-0.24c0.08,0,0.16,0,0.24,0c0.08-0.08,0.16-0.16,0.24-0.24c0.08-0.08,0.16-0.16,0.24-0.24
		c0.08-0.08,0.16-0.16,0.24-0.24c0.13-0.14,0.35-0.09,0.48-0.24c0.08-0.08,0.16-0.16,0.24-0.24c0.13-0.14,0.36-0.09,0.48-0.24
		c0.08,0,0.16,0,0.24,0c0.13-0.15,0.35-0.09,0.48-0.24c0.13-0.14,0.35-0.09,0.48-0.24c0.13-0.14,0.35-0.1,0.48-0.24
		c0.2-0.21,0.53-0.02,0.72-0.24c0.2-0.21,0.53-0.02,0.72-0.24c0.28-0.26,0.69,0.03,0.96-0.24c0.08,0,0.16,0,0.24,0
		c0.36-0.29,0.84,0.05,1.2-0.24c0.16,0,0.32,0,0.48,0c1.12-0.19,2.24-0.19,3.36,0c0.64,0,1.28,0,1.92,0c0.44,0.31,1-0.06,1.44,0.24
		c0.48,0,0.96,0,1.44,0c0.32,0.19,0.64,0.19,0.96,0c0.24,0,0.48,0,0.72,0c2.16,0.2,4.33,0.03,6.48,0.24c0.08,0,0.16,0,0.24,0
		c0.4-0.18,0.8-0.18,1.2,0c0.08,0,0.16,0,0.24,0c0.53,0.32,1.15-0.07,1.68,0.24c0.16,0,0.32,0,0.48,0c0.36,0.29,0.84-0.05,1.2,0.24
		c0.08,0,0.16,0,0.24,0c0.12,0.15,0.35,0.09,0.48,0.24c0.08,0,0.16,0,0.24,0c0.19,0.23,0.53,0.02,0.72,0.24c0.16,0,0.32,0,0.48,0
		c0.12,0.15,0.35,0.09,0.48,0.24c0.16,0,0.32,0,0.48,0c0.8,0.16,1.6,0.2,2.4,0c1.43-0.56,2.7-1.37,3.84-2.4
		c0.08-0.08,0.16-0.16,0.24-0.24c0.08-0.08,0.16-0.16,0.24-0.24c0.32-0.4,0.64-0.8,0.96-1.2c0.09-0.07,0.16-0.16,0.24-0.24
		c0.54-0.89,1.09-1.78,1.68-2.64c0.24,0,0.48,0,0.72,0c-1.58,3.49-3.75,6.45-7.4,8.01c-1.03,0.44-2.13,0.25-3.15-0.07
		c-2.64-0.84-5.32-1.37-8.11-1.23c-5.25,0.27-10.48-0.59-15.73-0.48c-3.31,0.07-6.11,1.33-8.55,3.47c-2.77,2.44-4.37,5.59-5.79,8.95
		c-1.68,3.96-2.04,8.12-2.74,12.27c-0.59,3.45-0.64,6.9-0.73,10.33c-0.1,3.87,1.19,7.41,4.67,9.79c2.1,1.44,4.05,3.09,6.05,4.65
		c1.67,1.31,3.55,1.96,5.63,1.4c2.37-0.64,4.56,0.24,6.8,0.64c3.92,0.7,7.8,0.82,11.71,0.02c2.37-0.48,4.77-0.75,7.07-1.58
		c2.25-0.81,3.64-2.53,5.06-4.24c2.93-3.51,5.01-7.68,8.29-10.9c2.62-2.57,5.35-4.98,7.38-8.1c1.98-3.04,2.84-6.38,2.96-9.93
		c0.05-1.59,0.01-3.2,0.32-4.76c0.7-3.58,4.43-6.6,8.57-6.26c1.46,0.12,2.88,0.43,4.33,0.5c0.1,0.06,0.17,0.14,0.22,0.24
		c0.02,0.22,0.04,0.44,0.05,0.67c-0.42,0.48-1,0.39-1.45,0.23c-2.3-0.81-4.55-0.43-6.82,0.12c-1.93,0.47-3.81,2.9-4.02,5.05
		c-0.28,2.88-0.44,5.79-1.02,8.61c-0.54,2.6-1.74,5-3.24,7.26c-1.85,2.81-4.29,5.06-6.58,7.46c-1.56,1.64-2.65,3.57-3.93,5.39
		c-2.03,2.9-4.07,5.82-6.8,8.1c-2.54,2.12-5.73,2.92-8.94,3.35c-2.83,0.38-5.63,0.93-8.53,0.84c-2.23-0.06-4.34-0.64-6.43-1.17
		c-1.91-0.49-3.63-0.37-5.47,0.04c-1.58,0.35-3.11,0.27-4.49-0.92c-2.68-2.31-5.4-4.57-8.21-6.72c-1.55-1.19-2.22-2.87-3.07-4.47
		c-0.15-0.13-0.09-0.36-0.24-0.48c0-0.16,0-0.32,0-0.48c-0.15-0.13-0.09-0.36-0.24-0.48c0-0.16,0-0.32,0-0.48
		c-0.15-0.13-0.09-0.36-0.24-0.48c0-0.08,0-0.16,0-0.24c-0.31-0.69,0.09-1.47-0.24-2.16c0-0.48,0-0.96,0-1.44
		c0.18-0.24,0.18-0.48,0-0.72c0-0.16,0-0.32,0-0.48c0.25-0.94,0.17-1.89,0.07-2.83c-0.13-1.16,0.04-2.28,0.17-3.41
		c0.25-1.68,0.33-3.38,0.72-5.04c0-0.16,0-0.32,0-0.48c0.08-1.21,0.14-2.42,0.48-3.6c0.23-0.19,0.02-0.53,0.24-0.72
		c0-0.08,0-0.16,0-0.24C415.03,251.85,414.82,251.51,415.04,251.32z"/>
	<path style="fill-rule:evenodd;clip-rule:evenodd;fill:#EBC654;" d="M418.4,323.83c3.45,3.39,7.7,3.85,12.22,3.31
		c-0.3,0.39-0.28,0.38,0.21,0.52c2.27,0.64,4.06,1.95,5.25,3.99c0.31,0.53,0.85,1.35-0.4,1.63c-8.06,0-16.11,0-24.15-0.01
		c-0.43,0-0.88,0.11-1.29-0.11c0-2.8,0-5.6,0-8.4c1.45-0.64,3-0.5,4.52-0.61C415.97,324.07,417.2,324.18,418.4,323.83z"/>
	<path style="fill-rule:evenodd;clip-rule:evenodd;fill:#7CAF41;" d="M461.6,229.24c-0.8,1.37-1.54,2.46-3.38,3.04
		c-2.27,0.71-4.19-0.12-6.26-0.19c-2.48-0.08-4.92-0.56-7.44-0.52c-3.16,0.04-6.33-0.51-9.5-0.65c-5.78-0.26-10.97,1.24-15.44,5.14
		c-4.37,3.81-6.53,8.8-8.17,14.15c-0.29,0.95-0.19,2.11-1.16,2.79c0-2.8,0-5.6,0-8.4c0.92-2.11,1.67-4.35,3.23-6.09
		c3.06-3.42,6.28-6.68,10.6-8.55c0.66-0.29,1.41-0.28,2.01-0.71C437.92,229.24,449.76,229.24,461.6,229.24z"/>
	<path style="fill-rule:evenodd;clip-rule:evenodd;fill:#85B44A;" d="M527.36,284.43c0.03-0.3-0.04-0.7,0.45-0.67
		c0.24,0.01,0.43,0.08,0.67-0.08c5.67-3.8,12.05-5.54,18.71-6.45c0.43-0.06,0.86-0.15,1.28-0.23c0,1.6,0,3.2,0,4.8
		c-0.41,0.45-0.97,0.52-1.53,0.6c-2.98,0.43-5.86,1.16-8.61,2.42c-2.65,1.21-4.99,2.82-7.03,4.89c-0.56,0.57-1.11,1.19-2.05,0.97
		C527.72,288.88,527.56,286.65,527.36,284.43z"/>
	<path style="fill-rule:evenodd;clip-rule:evenodd;fill:#C3D47D;" d="M548.48,292.36c0,4.8,0,9.6,0,14.4
		c-0.4,0.37-0.88,0.36-1.35,0.24c-1.89-0.5-3.79-1-5.51-1.98c-0.73-0.42-1.42-0.9-1.97-1.54c-3.13-3.66-1.95-8.42,2.59-10.25
		c1.63-0.66,3.39-0.9,5.13-1.17C547.77,291.99,548.16,292.06,548.48,292.36z"/>
	<path style="fill-rule:evenodd;clip-rule:evenodd;fill:#89B541;" d="M530.43,252.68c0.35,0.56,0.79,0.18,1.17,0.09
		c5.13-1.3,10.36-0.96,15.57-0.96c0.44,0,0.87,0,1.31,0c0,1.6,0,3.2,0,4.8c-0.46,0.42-1.03,0.39-1.58,0.38
		c-5.61-0.12-11.11,0.6-16.5,2.17c-0.27,0.08-0.55,0.18-0.82,0.15c-1.17-0.14-2.28-0.01-3.38,0.44c-0.31,0.13-0.86,0.37-1.02-0.31
		C527.8,257.86,529.32,255.43,530.43,252.68z"/>
	<path style="fill-rule:evenodd;clip-rule:evenodd;fill:#74AC41;" d="M426.08,229.24c-0.72,1.11-2.07,1.01-3.08,1.61
		c-5.27,3.13-9.68,7.02-12.02,12.86c-0.16,0.4-0.37,0.69-0.74,0.88c0-4.86,0.02-9.72-0.02-14.58c0-0.67,0.14-0.8,0.8-0.8
		C416.04,229.26,421.06,229.24,426.08,229.24z"/>
	<path style="fill-rule:evenodd;clip-rule:evenodd;fill:#EAC653;" d="M415.8,316.4c-0.02,0.46-0.04,0.93-0.06,1.39
		c-0.12-0.72-0.75-0.32-1.11-0.52c-0.21-0.12-0.4-0.27-0.54-0.47c-1.3-1.81-2.82-3.48-3.85-5.48c0-3.68,0-7.36,0-11.04
		c2.4,1.72,4.4,3.9,6.58,5.88c1.09,0.99,2.94,1.69,3.24,2.84c0.32,1.2-1.73,2.1-2.37,3.4c-0.44,0.9-1.47,1.34-1.72,2.36
		c-0.2,0.22,0,0.44-0.01,0.67c0,0.1-0.01,0.19-0.02,0.29C415.87,315.93,415.88,316.17,415.8,316.4z"/>
	<path style="fill-rule:evenodd;clip-rule:evenodd;fill:#7DAF40;" d="M525.17,259.43c0.1,0.05,0.22,0.15,0.3,0.13
		c3.36-0.9,6.84-1.25,10.23-2.04c3.31-0.77,6.73-1.01,10.15-0.92c0.88,0.02,1.75,0,2.63,0c0,0.64,0,1.28,0,1.92
		c-0.38,0.5-0.92,0.58-1.49,0.6c-3.9,0.18-7.79,0.44-11.64,1.18c-0.94,0.18-1.86,0.46-2.79,0.66c-3.77,0.84-7.54,1.66-11.2,2.92
		c-0.87,0.3-1.6,0.8-2.42,1.13c-0.99-0.13-1.91-0.72-3-0.12c-0.58,0.32-0.5-0.53-0.69-0.85c-0.31-0.52,0-0.8,0.49-0.96
		c1.81-0.6,3.65-1.15,5.43-1.83C522.53,260.73,523.84,260.04,525.17,259.43z"/>
	<path style="fill-rule:evenodd;clip-rule:evenodd;fill:#A5C25E;" d="M533.16,308.68c-2.32-3.47-1.35-7.86-3.2-11.46
		c1.07-2.29,2.09-4.62,3.82-6.53c1.25-1.38,2.83-2.33,4.42-3.26c2.69-1.59,5.65-2.41,8.69-2.98c0.55-0.1,1.12-0.21,1.59,0.23
		c0,0.48,0,0.96,0,1.44c-0.28,0.57-0.84,0.54-1.34,0.62c-3.6,0.58-6.99,1.67-9.92,3.94c-3.5,2.72-5.01,6.31-4.39,10.65
		c0.31,2.18,1.3,4.19,2.62,5.99c2.38,2.4,4.65,4.94,8.09,5.92c1.38,0.39,2.7,0.99,4.13,1.22c0.32,0.05,0.59,0.23,0.82,0.46
		c0,0.16,0,0.32,0,0.48c-0.64,0.52-1.37,0.38-2.06,0.23c-4.21-0.88-8.23-2.18-11.5-5.17C534.3,309.9,533.78,309.25,533.16,308.68z"
		/>
	<path style="fill-rule:evenodd;clip-rule:evenodd;fill:#7CAF41;" d="M518.93,265.02c0.22-0.84,0.85-1.06,1.63-1.27
		c2.14-0.58,4.22-1.44,6.38-1.88c4.53-0.91,8.94-2.42,13.61-2.65c2.65-0.13,5.28-0.46,7.92-0.7c0,0.8,0,1.6,0,2.4
		c-5.29,0.23-10.51,0.82-15.61,2.38c-1.44,0.44-2.94,0.76-4.62,0.65c-1.7-0.12-3.47,0.94-5.24,1.4c-0.67,0.17-1.15,0.43-1.4,1.08
		l-0.01-0.01c-0.09-0.09-0.18-0.16-0.3-0.2c-0.08,0.01-0.15-0.02-0.2-0.09c-0.09-0.04-0.16-0.1-0.22-0.17l0,0
		c-0.13-0.14-0.35-0.1-0.47-0.24l-0.01,0c-0.09-0.1-0.19-0.19-0.34-0.21C519.68,265.35,519.31,265.18,518.93,265.02z"/>
	<path style="fill-rule:evenodd;clip-rule:evenodd;fill:#96BC56;" d="M548.48,284.68c-4.51,0.34-8.58,1.83-12.29,4.44
		c-2.6,1.83-4.25,4.23-5.27,7.16c-0.17,0.49-0.51,0.75-0.95,0.94c-0.31-0.4-0.45-0.88-0.28-1.33c0.54-1.39,0.34-2.77,0.04-4.17
		c-0.01-0.14-0.1-0.23-0.19-0.32c-0.05-0.05-0.07-0.12-0.05-0.19c-0.1-0.17-0.05-0.39-0.22-0.53v0c2.02-0.86,3.18-2.8,4.97-3.96
		c3.48-2.25,7.21-3.81,11.32-4.45c0.98-0.15,1.95-0.32,2.92-0.48C548.48,282.76,548.48,283.72,548.48,284.68z"/>
	<path style="fill-rule:evenodd;clip-rule:evenodd;fill:#BACE74;" d="M548.48,292.36c-2.32,0.1-4.66,0.38-6.69,1.47
		c-4.61,2.49-4.86,7.66-0.49,10.58c2.12,1.42,4.59,2.17,7.18,2.35c0,0.72,0,1.44,0,2.16c-0.29,0.27-0.64,0.34-1,0.26
		c-2.65-0.57-5.3-1.15-7.58-2.77c-2.77-1.98-4.24-4.58-4.01-8.05c0.13-2.03,0.99-3.64,2.46-5.01c2.42-2.26,5.4-3.15,8.55-3.66
		c0.55-0.09,1.12-0.14,1.59,0.28C548.48,290.76,548.48,291.56,548.48,292.36z"/>
	<path style="fill-rule:evenodd;clip-rule:evenodd;fill:#EECF6B;" d="M410.24,311.32c2,2.01,3.18,4.73,5.5,6.47
		c0.11,2.36,1.29,4.24,2.66,6.05c-0.15,0.6-0.63,0.66-1.12,0.68c-2.35,0.09-4.69,0.17-7.04,0.25
		C410.24,320.28,410.24,315.8,410.24,311.32z"/>
	<path style="fill-rule:evenodd;clip-rule:evenodd;fill:#AFC869;" d="M548.48,310.84c0,0.32,0,0.64,0,0.96
		c-0.4,0.38-0.87,0.32-1.35,0.24c-4.92-0.85-9.32-2.61-12.3-6.91c-1.76-3.5-2.32-7.04-0.26-10.61c1.33-2.3,3.25-4.02,5.61-5.22
		c2.29-1.16,4.76-1.79,7.29-2.2c0.36-0.06,0.72-0.05,1.01,0.22c0,0.56,0,1.12,0,1.68c-0.52,0.46-1.2,0.4-1.81,0.54
		c-2.58,0.56-5.05,1.3-7.29,2.85c-4.48,3.12-4.6,8.4-2.22,12.19c1.31,2.08,3.14,3.58,5.57,4.28c1.65,0.47,3.19,1.27,4.9,1.56
		C547.96,310.46,548.25,310.6,548.48,310.84z"/>
	<path style="fill-rule:evenodd;clip-rule:evenodd;fill:#A4C150;" d="M533.16,308.68c1.33,0.43,2.1,1.63,3.15,2.43
		c3.62,2.77,7.72,3.96,12.17,4.29c0,1.2,0,2.4,0,3.6c-0.32,0.29-0.71,0.38-1.11,0.32c-2.99-0.43-5.97-0.93-8.65-2.48
		c-0.45-0.93-1.13-1.48-2.16-1.79c-2.1-0.64-2.6-1.55-2.5-3.97c0.07-0.04,0.1-0.08,0.09-0.14c-0.01-0.06-0.02-0.09-0.04-0.09
		c0.21-0.65-0.55-0.75-0.68-1.22c0.03-0.09,0-0.17-0.08-0.23C533.29,309.16,533.23,308.92,533.16,308.68z"/>
	<path style="fill-rule:evenodd;clip-rule:evenodd;fill:#82B240;" d="M514.63,231.84c-1.55-0.12-3.09-0.23-4.64-0.37
		c-3.68-0.33-7.22,0.32-10.71,1.39c0.04-1.23-0.12-2.43-0.48-3.61c6.88,0,13.76,0,20.64,0c0.07,0.71-0.54,0.77-0.96,1.01
		C517.27,230.95,515.81,231.06,514.63,231.84z"/>
	<path style="fill-rule:evenodd;clip-rule:evenodd;fill:#B9CD6E;" d="M548.48,310.84c-4.29-0.94-8.64-1.78-11.39-5.75
		c-2.75-3.98-2.57-9.74,2.02-12.9c2.86-1.97,6-2.87,9.37-3.18c0,0.32,0,0.64,0,0.96c-3.91,0.11-7.42,1.26-10.32,3.97
		c-2.15,2-2.57,6.52-0.99,9.1c2.17,3.56,5.7,4.75,9.43,5.64c0.61,0.15,1.25,0.17,1.88,0.25
		C548.48,309.56,548.48,310.2,548.48,310.84z"/>
	<path style="fill-rule:evenodd;clip-rule:evenodd;fill:#9EBE48;" d="M538.72,316.84c1.81,0.52,3.62,1.06,5.44,1.55
		c1.41,0.38,2.85,0.62,4.32,0.61c0,1.68,0,3.36,0,5.04c-2.42-0.29-4.79-1.1-7.28-0.75c0.04-0.07,0.07-0.15,0.11-0.22
		c0.09-0.1,0.18-0.2,0.18-0.34c-0.04-0.05-0.04-0.1,0.02-0.13c0.22-0.4,0.21-0.8,0.01-1.2C541,319.62,539.63,318.37,538.72,316.84z"
		/>
	<path style="fill-rule:evenodd;clip-rule:evenodd;fill:#8BB642;" d="M514.63,231.84c-0.03-0.89,0.75-0.73,1.22-0.9
		c1.25-0.46,2.56-0.77,3.59-1.69c3.44,0,6.88,0,10.32,0c-0.81,1.52-2.51,1.8-3.76,2.72c-0.83,0.61-2.04,0.72-2.49,1.85
		c-1.77-0.8-3.55-1.58-5.52-1.73c-0.55-0.23-1.16,0.06-1.71-0.18c-0.15-0.02-0.29-0.03-0.44-0.05c-0.23-0.15-0.46-0.12-0.7-0.03
		C514.96,231.83,514.8,231.83,514.63,231.84z"/>
	<path style="fill-rule:evenodd;clip-rule:evenodd;fill:#A9C564;" d="M548.48,287.32c-3.91,0.51-7.75,1.39-10.78,4.03
		c-3.79,3.31-5.39,7.06-2.99,12.84c0.12,0.29,0.22,0.59,0.32,0.89c0.44,0.76,0.93,1.52,0.24,2.4c-4.1-5.02-4.22-12.41,1.54-16.95
		c3.18-2.51,6.88-3.73,10.87-4.18c0.27-0.03,0.53-0.15,0.79-0.23C548.48,286.52,548.48,286.92,548.48,287.32z"/>
	<path style="fill-rule:evenodd;clip-rule:evenodd;fill:#AFC860;" d="M535.28,307.48c-0.08-0.8-0.16-1.6-0.24-2.4
		c1.55,1.64,3.02,3.32,5.14,4.35c2.65,1.28,5.34,2.23,8.3,2.37c0,1.04,0,2.08,0,3.12c-4.32-0.76-8.35-2.12-11.4-5.51
		C536.49,308.75,535.41,308.56,535.28,307.48z"/>
	<path style="fill-rule:evenodd;clip-rule:evenodd;fill:#FEFEFE;" d="M410.24,333.16c8.64-0.01,17.28-0.03,25.92-0.04
		c0.83-0.57,1.76-0.32,2.66-0.32c1.28,0,2.58-0.28,3.81,0.32c0.49,0,0.98,0.01,1.48,0.01c0.52,0.01,1.04,0.03,1.56,0.03
		c34.27,0,68.55,0,102.82,0c-0.27,0.5-0.73,0.22-1.08,0.22c-39.2,0.02-78.4,0.01-117.6,0.01c-6.2,0-12.4,0.01-18.6-0.01
		C410.89,333.38,410.46,333.66,410.24,333.16z"/>
	<path style="fill-rule:evenodd;clip-rule:evenodd;fill:#A4C24E;" d="M548.48,235.72c-2.6-1.56-4.41-3.81-5.76-6.48
		c1.7,0,3.41,0.03,5.11-0.02c0.57-0.02,0.68,0.12,0.67,0.68C548.45,231.84,548.48,233.78,548.48,235.72z"/>
	<path style="fill-rule:evenodd;clip-rule:evenodd;fill:#87B441;" d="M465.44,229.24c-0.25,1.08-0.91,1.89-1.68,2.64
		c0-1.06,1.07-1.64,1.2-2.64C465.12,229.24,465.28,229.24,465.44,229.24z"/>
	<path style="fill-rule:evenodd;clip-rule:evenodd;fill:#747F4D;" d="M539.84,229.24c-0.72,0.38-1.44,0.4-2.16,0
		C538.4,229.24,539.12,229.24,539.84,229.24z"/>
	<path style="fill-rule:evenodd;clip-rule:evenodd;fill:#89B542;" d="M487.76,301.25c0.04-0.05,0.09-0.07,0.16-0.05
		c0.13-0.01,0.22-0.1,0.32-0.17c0.04-0.06,0.1-0.09,0.18-0.08c0.5,0.08,0.71,0.47,0.88,0.88c0.64,1.55,1.52,2.97,2.25,4.47
		c0.7,1.44,2.13,2.37,2.7,3.9c0.11,0.29,0.4,0.51,0.24,0.87c-2.91,0.94-5.85,1.7-8.96,1.31c-1.14-0.14-2.32-0.2-3.46-0.08
		c-2.79,0.29-5.52-0.32-8.29-0.39c-4.84-0.13-9.51,0.32-13.77,2.81c-3.6,2.11-7.07,4.41-11.18,5.58c-3.34,0.95-6.62,2.21-9.09,4.86
		c-0.35,0.37-0.61,0.83-0.91,1.24c-0.12-0.1-0.23-0.21-0.35-0.31c-1.15-0.86-1.36-1.57,0.01-2.57c1.82-1.34,2.76-3.36,3.4-5.5
		c0.42-0.51-0.03-1.16,0.27-1.69l-0.01,0c1.11-1.06,2.55-1.48,3.94-1.97c4.61-1.63,8.95-3.87,13.4-5.85
		c3.96-1.76,8.13-2.62,12.47-2.6c3.72,0.02,7.43-0.15,11.13-0.49c1.07-0.1,1.98-0.55,2.8-1.25c0.85-0.72,1.38-1.52,1.18-2.67
		c0.06-0.06,0.13-0.07,0.2-0.05C487.4,301.34,487.62,301.39,487.76,301.25z"/>
	<path style="fill-rule:evenodd;clip-rule:evenodd;fill:#8BB64A;" d="M519.68,299.11c1.04,0.23,2.08,0.49,3.12,0.69
		c0.36,0.07,0.58,0.14,0.65,0.54c0.4,2.15,1.52,4,2.47,5.91c1.01,2.01,0.91,4.15,0.97,6.29c-0.51-1.28-0.62-1.15-2.11-0.93
		c-2.35,0.36-4.69,0.84-7.13,0.27c-2.33-0.55-4.74-0.75-7.13-1.01c-0.98-0.11-1.59-0.42-1.65-1.46c0.13-0.61,0.67-0.78,1.13-0.97
		c3.43-1.36,5.66-4.05,7.75-6.91C518.37,300.69,518.76,299.69,519.68,299.11z"/>
	<path style="fill-rule:evenodd;clip-rule:evenodd;fill:#99BD55;" d="M519.68,299.11c-2.49,4.06-5.21,7.9-9.86,9.79
		c-0.33,0.13-0.63,0.33-0.94,0.5c-1.6,0.46-3.23,0.15-4.84,0.24c-0.74,0.04-0.66-0.51-0.7-0.98c0.03-1.97,0.29-3.89,0.97-5.75
		c2.25,0.93,4.29,0.13,6.3-0.78c1.89-0.85,3.05-2.52,4.27-4.08c0.38-0.49,0.71-0.98,1.43-0.86
		C517.43,297.82,518.56,298.47,519.68,299.11z"/>
	<path style="fill-rule:evenodd;clip-rule:evenodd;fill:#8AB64C;" d="M494.48,311.08c-2.06-2.98-4.3-5.86-5.55-9.33
		c-0.1-0.29-0.34-0.53-0.52-0.8l0.02,0c0.14-0.01,0.21-0.11,0.28-0.21l0,0c0.07-0.07,0.15-0.13,0.24-0.18
		c0.63-0.44,0.68-0.93,0.29-1.6c-0.75-1.27-0.92-2.42,0.42-3.58c1.06-0.92,1.55-2.27,1.41-3.75c0.67-0.01,0.58,0.53,0.62,0.91
		c0.12,1.11,0.35,2.21,0.45,3.32c0.28,2.89,1.59,5.31,3.28,7.59c0.31,0.42,0.61,0.84,0.9,1.27c0.07,0.1,0.13,0.2,0.17,0.32
		c0.19-0.1,0.03-0.27,0.06-0.4c0.11-0.38-0.07-0.92,0.56-1.01c-0.01,2.32-0.02,4.63-0.02,6.95c-0.25-0.52-0.5-0.91-1.05-0.24
		C495.64,310.83,495.12,311.11,494.48,311.08z"/>
	<path style="fill-rule:evenodd;clip-rule:evenodd;fill:#8AB64C;" d="M496.86,311.07c-0.14,0.1-0.29,0.2-0.43,0.31
		C496.57,311.27,496.71,311.17,496.86,311.07z"/>
	<path style="fill-rule:evenodd;clip-rule:evenodd;fill:#8AB64C;" d="M495.97,311.82c-0.1,0.15-0.2,0.29-0.29,0.44
		C495.77,312.11,495.87,311.97,495.97,311.82z"/>
	<path style="fill-rule:evenodd;clip-rule:evenodd;fill:#8AB64C;" d="M497.07,310.84c-0.07,0.07-0.13,0.14-0.2,0.22
		C496.94,310.99,497,310.92,497.07,310.84z"/>
	<path style="fill-rule:evenodd;clip-rule:evenodd;fill:#8AB64C;" d="M496.45,311.35c-0.09,0.08-0.18,0.17-0.27,0.25
		C496.27,311.52,496.36,311.43,496.45,311.35z"/>
	<path style="fill-rule:evenodd;clip-rule:evenodd;fill:#8AB64C;" d="M496.2,311.58c-0.09,0.09-0.17,0.17-0.26,0.26
		C496.03,311.76,496.12,311.67,496.2,311.58z"/>
	<path style="fill-rule:evenodd;clip-rule:evenodd;fill:#E2A87C;" d="M492.34,244.34c1.43,0.55,1.23-1.13,2.01-1.48
		c0.29-0.13,0.37-0.85,0.71-0.63c0.4,0.27-0.06,0.68-0.25,1c-1.15,1.94-1.03,3.31,0.42,5.15c0.18,0.23,0.52,0.4,0.46,0.78
		c-0.48,0.7,0.42,0.98,0.44,1.41c0.03,0.53-0.59,1.02-0.42,1.68c0.2,0.77,1.04,1.46,1.98,1.49c0.9,0.03,1.68-0.26,2.06-1.15
		c0.51-1.15-0.07-2.01-1.35-2.16c-0.46-0.05-1.08,0.2-1.26-0.54c1.56-0.02,3.12-0.03,4.67-0.05c0.26,0,0.62,0.1,0.72-0.25
		c0.07-0.27-0.22-0.39-0.43-0.5c-0.69-0.38-0.13-0.68,0.11-0.87c0.82-0.65,1.28-1.4,1.13-2.5c-0.08-0.61-0.27-1.36,0.64-1.66
		c0.21-0.07,0.29-0.38,0.15-0.63c-0.21-0.36-0.48-0.22-0.69-0.02c-0.62,0.6-0.98,0.13-1.37-0.3c-0.47-0.52-0.03-0.75,0.3-1.04
		c0.22-0.2,0.65-0.38,0.38-0.75c-0.28-0.39-0.78-0.33-1.08-0.07c-1.14,0.96-1.89,0.45-2.67-0.51c-0.61-0.76-1.1-0.18-1.32,0.38
		c-0.24,0.61-0.67,0.72-1.19,0.8c-0.06-0.57-0.57-1.26-0.21-1.68c1.16-1.35,2.16-2.91,3.8-3.77c0.94-0.49,2.04-0.85,3.01-0.48
		c3.76,1.43,7.42,0.73,11.16-0.09c6.31-1.39,11.91,2.16,13.48,8.41c0.14,0.56,0.24,0.87,0.93,0.57c1.01-0.43,2.06,0.03,2.93,0.39
		c1.13,0.47,0.99,1.58-0.37,2.14c-1.28,0.53-1.42,1.31-1.5,2.53c-0.17,2.68-1.29,5-3.28,6.85c-2.85,2.66-6.26,4.32-10.04,5.05
		c-3.63,0.71-7.35,0.56-11.01,0.26c-7.86-0.64-13.47-8.06-12.18-15.05c0.12-0.65-0.15-0.96-0.64-1.22c-0.34-0.17-0.8-0.21-0.79-0.75
		C491.82,244.75,492.06,244.53,492.34,244.34z"/>
	<path style="fill-rule:evenodd;clip-rule:evenodd;fill:#C53023;" d="M496.68,298.12c0.12-2.48,1.46-4.53,2.41-6.71
		c0.25-0.57,0.95-0.29,1.43-0.39c4.29-0.81,8.6-1.53,12.81-2.73c2.69-0.76,5.47-0.02,8.21,0.02c1.55,0.02,3.11,0.15,4.66,0.16
		c0.66,0,1.02,0.21,1.25,0.83c0.44,1.2,1.02,2.34,1.4,3.56c0.59,1.91-0.12,3.46-1.9,4.38c-0.6,0.31-1.27,0.52-1.84,0.87
		c-2.48,1.56-4.62,0.89-6.62-0.91c-0.69-0.62-1.44-1.15-2.36-1.36c-0.8-0.18-1.38-0.64-1.77-1.32c-0.7-1.2-1.49-1.19-2.36-0.23
		c-0.48,0.53-0.97,1.06-1.37,1.66c-2.77,4.1-8.99,5.26-12.88,3.75C496.7,299.29,496.63,299.15,496.68,298.12z"/>
	<path style="fill-rule:evenodd;clip-rule:evenodd;fill:#E2A87C;" d="M481.2,299.07c-0.08,0-0.16,0.01-0.24,0
		c-0.8-0.06-1.88-0.13-2.01-0.91c-0.13-0.72,0.98-0.87,1.61-1.16c0.69-0.31,1.42-0.54,2.08-0.9c0.42-0.23,1.07-0.61,0.78-1.15
		c-0.22-0.41-0.88-0.18-1.32,0.01c-0.59,0.25-1.15,0.56-1.71,0.85c-0.71,0.37-1.45,0.6-2.27,0.66c-0.76,0.05-1.04-0.48-1.2-0.94
		c-0.2-0.57,0.48-0.63,0.84-0.75c0.64-0.23,1.32-0.33,1.96-0.53c0.53-0.16,1.06-0.35,1.54-0.62c0.36-0.2,0.89-0.51,0.68-0.98
		c-0.24-0.54-0.79-0.2-1.17-0.08c-0.8,0.24-1.58,0.57-2.38,0.82c-0.57,0.17-1.15,0.33-1.74,0.38c-0.61,0.05-1.36-0.09-1.48-0.72
		c-0.08-0.45,0.68-0.53,1.1-0.71c1.57-0.68,3.34-0.84,4.78-1.84c0.49-0.33,1.28-0.84,1.03-1.28c-0.34-0.6-1.14-0.14-1.71,0.1
		c-1.52,0.65-2.86,1.84-4.67,1.65c-0.81-0.09-1.6-0.21-1.71-1.29c-0.1-0.91,0.08-1.39,1.15-1.44c1.63-0.08,3.27-0.24,4.86-0.59
		c2.09-0.46,2.32-1.25,1.13-3.03c-0.19-0.29-0.32-0.62-0.48-0.93c0.35,0.02,0.71-0.01,1.04,0.06c2.06,0.43,4.3,0.43,5.59,2.6
		c0.26,0.44,0.83,1.18,1.41-0.07c0.23-0.51,1.37-0.73,2.13-0.83c1.76-0.22,3.43-0.72,5.08-1.32c1.35-0.49,2.68-0.95,4.16-1.05
		c1.35-0.1,2.39-1.05,3.42-1.86c1.85-1.45,3.58-3.05,5.92-3.76c1.37-0.42,1.92,0.01,2.04,1.33c0.07,0.75,0.16,1.51,0.31,2.25
		c0.11,0.53-0.18,0.82-0.56,0.91c-2.64,0.63-4.66,2.39-6.9,3.73c-0.68,0.41-1.38,0.8-2.08,1.17c-0.2,0.11-0.57,0.28-0.65,0.2
		c-1.14-1.05-1.9,0.03-2.73,0.49c-2.73,1.53-5.66,2.35-8.76,2.62c-0.62,0.05-1.21,0-0.61,0.95c0.59,0.93,0.14,1.91-0.21,2.87
		C488.22,296.8,483.39,299.02,481.2,299.07z"/>
	<path style="fill-rule:evenodd;clip-rule:evenodd;fill:#7BAF41;" d="M487.05,301.52c0.72,0.75,0.58,1.33-0.09,2.14
		c-1.47,1.79-3.41,2.28-5.53,2.37c-3.11,0.13-6.22,0.24-9.33,0.24c-5.12-0.01-9.97,1.16-14.49,3.48c-5.02,2.57-10.31,4.43-15.49,6.6
		c-0.16-1.26-0.17-2.55-0.63-3.76c-0.19-0.5-0.06-0.81,0.47-1.01c8.86-3.31,16.96-8.18,25.38-12.39c0.74-0.37,1.21-0.37,1.9,0.17
		c3.41,2.61,7.22,3.95,11.52,2.86c1.55-0.4,2.98-1.02,4.64-0.52C485.89,301.83,486.5,301.58,487.05,301.52z"/>
	<path style="fill-rule:evenodd;clip-rule:evenodd;fill:#F0CE15;" d="M524.17,271.96c-0.08,1.94-1.12,3.42-2.54,4.66
		c-2.3,2-5.07,3.14-7.88,4.2c-0.55,0.21-0.78,0.03-0.9-0.53c-0.3-1.39-0.38-2.84-1.12-4.13c-0.33-0.58,0.39-0.59,0.66-0.75
		c1.56-0.92,3.09-1.85,3.98-3.52c0.12-0.23,0.41-0.48,0.15-0.74c-0.26-0.26-0.52,0.04-0.75,0.15c-0.67,0.3-1.17,0.83-1.65,1.37
		c-1.45,1.65-3.25,2.83-5.2,3.75c-2.03,0.96-3.98,2.02-5.9,3.18c-0.2,0.12-0.42,0.19-0.63,0.28c-0.02-0.22-0.07-0.45-0.04-0.66
		c0.64-4.2,2.3-7.94,5.03-11.21c0.38-0.46,0.57-0.55,0.88,0.1c0.47,0.98,0.51,2.52,2,2.51c2-0.01,3.85-0.88,4.48-2.83
		c0.64-1.99,1.85-1.85,3.28-1.51c2.53,0.6,4.75,1.69,5.89,4.24c0.1,0.22,0.15,0.46,0.19,0.69
		C524.14,271.43,524.14,271.67,524.17,271.96z"/>
	<path style="fill-rule:evenodd;clip-rule:evenodd;fill:#F0CE15;" d="M523.98,287.78c-3.4-0.66-7.22-0.76-11.02-0.04
		c-3.8,0.72-7.58,1.53-11.37,2.29c-0.36,0.07-0.85,0.39-1.09-0.06c-0.3-0.56-0.07-1.18,0.11-1.75c0.18-0.55,0.6-0.22,0.91-0.16
		c0.57,0.1,1.01-0.18,1.46-0.43c3.1-1.71,6.09-3.69,9.33-5.06c3.08-1.3,6.23-2.41,9.08-4.19c0.27-0.17,0.57-0.3,0.81-0.51
		c0.74-0.64,1.14-0.48,1.55,0.42c1.07,2.33,2.17,4.63,2.6,7.18C526.73,287.62,526.57,287.79,523.98,287.78z"/>
	<path style="fill-rule:evenodd;clip-rule:evenodd;fill:#2D2C2C;" d="M440.5,313.44c1.09,3.34-0.54,8.15-3.64,10.45
		c-3.01,2.24-6.48,2.79-10.16,2.6c-2.37-0.12-4.55-0.6-6.46-2.11c-2.75-2.16-3.92-6.4-2.59-9.71c0.74-0.45,1.11,0.05,1.42,0.58
		c0.34,0.59,0.48,1.26,0.67,1.92c0.58,1.99,1.84,3.29,3.81,3.95c2.8,0.95,5.66,1.31,8.59,0.83c1.89-0.31,3.42-1.26,4.59-2.78
		c1.07-1.39,1.9-2.95,3.12-4.23C440.26,314.53,440.01,313.82,440.5,313.44z"/>
	<path style="fill-rule:evenodd;clip-rule:evenodd;fill:#593B1F;" d="M506.91,232.04c4.4,0.08,7.68,1.28,11.04,1.28
		c3.1,0.01,5.54,1.48,8.18,2.62c2.61,1.13,3.89,3.18,3.66,6.03c-0.04,0.55-0.22,1.16-0.72,1.25c-0.48,0.09-0.54-0.61-0.71-0.97
		c-1.86-4.03-5.17-6.29-9.27-7.54c-1.68-0.51-3.48-0.38-5.07,0.2c-3.41,1.25-6.79,1.16-10.21,0.3c-2.93-0.74-5.01,0.69-6.88,2.63
		c-0.74,0.77-1.32,1.7-1.98,2.55c-0.14,0.18-0.36,0.49-0.47,0.47c-0.37-0.09-0.23-0.46-0.21-0.71c0.21-3.25,2-5.31,5-6.32
		C502.07,232.88,504.89,231.96,506.91,232.04z"/>
	<path style="fill-rule:evenodd;clip-rule:evenodd;fill:#84B342;" d="M500,271.48c-0.4-0.82,0.55-0.89,0.77-1.36
		c0.09-0.2,0.42-0.34,0.29-0.6c-0.17-0.32-0.48-0.18-0.74-0.11c-0.42,0.12-0.83,0.28-1.26,0.38c-0.79,0.19-1.7,0.6-1.3-0.96
		c0.17-0.65-0.36-0.72-0.94-0.58c-1.63,0.4-2.72-0.84-2.49-2.53c0.31-2.31,1.5-4.25,2.35-6.34c0.07,0.05,0.14,0.11,0.21,0.16
		c0.09,0.04,0.15,0.1,0.2,0.18l0.02,0.01c0.09,0.06,0.16,0.16,0.27,0.21l-0.01-0.01c0.07,0.12,0.17,0.21,0.31,0.23
		c2.77,1.84,5.84,2.88,9.12,3.35c0.33,0.05,0.99-0.15,0.87,0.49c-0.16,0.81,0.47,2.17-0.49,2.37c-2.94,0.63-4.54,2.98-6.68,4.63
		c-0.09,0.07-0.18,0.14-0.25,0.24l0,0C500.16,271.32,500.07,271.38,500,271.48L500,271.48z"/>
	<path style="fill-rule:evenodd;clip-rule:evenodd;fill:#E2A87D;" d="M530.42,303.35c-1.53,2.47,1.13,3.95,1.89,5.99
		c0.34,0.93,0.58,1.76-0.25,2.52c-0.99,0.92-2.14,1.38-3.51,1.11c-0.37-0.07-0.5-0.32-0.5-0.7c0-4.08-1.65-7.69-3.38-11.24
		c-0.65-1.34-0.29-1.97,0.93-2.46c0.59-0.24,1.25-0.41,1.74-0.79c0.99-0.78,1.42-0.31,1.83,0.58
		C529.84,299.87,530.32,301.43,530.42,303.35z"/>
	<path style="fill-rule:evenodd;clip-rule:evenodd;fill:#C53023;" d="M534.72,319.02c0.62-0.04,1.17-0.12,1.39-0.57
		c0.23-0.46-0.21-0.86-0.42-1.27c-0.11-0.22-0.82,0.01-0.46-0.56c0.25-0.39,0.61-0.6,1.12-0.44c0.82,0.26,1.36,0.81,1.76,1.53
		c0.14,0.24,0.26,0.5,0.38,0.75c0.5,1.02,1.77,2.22-0.87,2.15c-1.04-0.03-1.71,1.21-2.42,2.02c-2.01,2.29-4.17,2.31-6.06-0.14
		c-0.86-1.11-2.31-1.96-2.07-3.72c0.07-0.52,0.08-1.14,0.58-1.36c0.55-0.24,0.47,0.48,0.73,0.72c1.3,1.2,2.42,0.99,3.2-0.63
		c0.23-0.46,0.34-0.99,0.61-1.43c0.21-0.33,0.09-1.22,0.72-0.89c0.42,0.22,0.95,0.94,0.55,1.63c-0.26,0.45-0.5,0.82,0.23,0.92
		c0.56,0.08,0.63,0.08,0.34,0.68C533.71,319.16,534.57,318.8,534.72,319.02z"/>
	<path style="fill-rule:evenodd;clip-rule:evenodd;fill:#C53023;" d="M496.42,313.22c0.34-0.59,0.68-1.35,1.39-1.35
		c0.72,0.01,0.81,0.88,1.1,1.42c0.67,1.26,1.86,1.58,3.19,0.85c0.23-0.13,0.48-0.66,0.74-0.23c0.18,0.3,0.4,0.94-0.15,1.15
		c-1.37,0.53-1.86,1.69-2.44,2.89c-1.23,2.55-3.43,4.14-5.83,5.48c-0.53,0.3-1.01,0.17-1.23-0.29c-0.74-1.57-2.06-1.53-3.46-1.38
		c-0.21,0.02-0.48,0.24-0.61-0.05c-0.05-0.1,0.15-0.34,0.28-0.48c1.64-1.82,3.65-3.2,5.56-4.71c0.15-0.12,0.35-0.3,0.49-0.05
		c0.05,0.09-0.12,0.33-0.23,0.48c-0.25,0.36-0.92,0.68-0.38,1.17c0.54,0.5,0.92-0.12,1.28-0.45c0.44-0.4,1.16-0.79,1.22-1.25
		c0.12-0.99,0.9-1.92,0.36-2.97c-0.19-0.36-0.54-0.24-0.86-0.16C496.7,313.37,496.55,313.39,496.42,313.22z"/>
	<path style="fill-rule:evenodd;clip-rule:evenodd;fill:#4F4D50;" d="M438.35,309.35c0.69,0.49,1.14,1.16,1.43,1.94
		c-0.2,0.98-1.1,1.5-1.55,2.33c-0.88,1.61-1.95,3.11-3.12,4.54c-1.51,1.83-3.49,2.43-5.77,2.25c-1.32-0.11-2.59-0.39-3.86-0.79
		c-1.85-0.58-3.07-1.77-3.82-3.53c-0.57-1.36-1.12-2.74-2.34-3.71c-0.07-0.12-0.07-0.23,0.02-0.34l0,0
		c0.12-0.05,0.18-0.15,0.24-0.25c0.49-0.5,0.92-1.04,1.2-1.69c0.69,0.64,1.07,1.46,1.43,2.31c0.59,1.4,1.21,2.78,2.36,3.84
		c2.61,2.39,7.45,2,9.62-0.78c0.76-0.98,1.37-2.04,1.88-3.18C436.58,311.13,437.02,309.87,438.35,309.35z"/>
	<path style="fill-rule:evenodd;clip-rule:evenodd;fill:#ACC767;" d="M516.31,297.18c-1.3,0.72-1.89,2.08-2.83,3.12
		c-2.3,2.54-5.18,3.41-8.47,3.34c-0.53-0.01-0.7-0.27-0.7-0.74c0.23-1.42,0.82-2.39,2.34-2.94c2.46-0.88,4.2-2.83,5.88-4.76
		c0.51-0.59,0.87-0.75,1.48-0.1C514.71,295.87,515.54,296.5,516.31,297.18z"/>
	<path style="fill-rule:evenodd;clip-rule:evenodd;fill:#39373A;" d="M440.5,313.44c0.04,0.89-0.17,1.58-0.88,2.3
		c-0.99,1-1.67,2.31-2.5,3.47c-1.91,2.67-4.64,3.29-7.75,3.27c-2.06-0.01-3.98-0.48-5.91-1.05c-2.28-0.68-3.54-2.24-4.17-4.5
		c-0.25-0.89-0.12-2.23-1.65-2.27c0.01-0.08,0.02-0.16,0.04-0.24c0.14-0.14,0.08-0.36,0.21-0.5c0-0.08,0.01-0.15,0.03-0.22
		c0.07-0.09,0.14-0.17,0.21-0.26c0.17-0.23,0.33-0.46,0.49-0.69c0.8,0.29,1.28,0.92,1.65,1.65c0.28,0.53,0.53,1.09,0.69,1.66
		c0.66,2.45,2.35,3.68,4.72,4.22c1.61,0.37,3.21,0.56,4.87,0.53c2.92-0.06,4.82-1.67,6.27-3.99c0.64-1.02,1.3-2.02,1.97-3.01
		c0.34-0.5,0.69-0.99,1.32-1.16c0.13-0.02,0.24,0.01,0.34,0.1C440.48,312.99,440.49,313.22,440.5,313.44z"/>
	<path style="fill-rule:evenodd;clip-rule:evenodd;fill:#E2A87C;" d="M499.25,278.5c-0.17,0.34-0.2,0.46-0.27,0.55
		c-1.89,2.2-3.61,4.63-6.88,4.93c-1.2,0.11-2.34,0.46-3.29,1.28c-0.16,0.14-0.31,0.44-0.57,0.2c-0.56-0.5-1.16-0.98-1.58-1.58
		c-0.13-0.18,0.54-0.32,0.84-0.46c1.83-0.86,3.32-2.19,4.79-3.55c0.53-0.49,1.05-0.98,1.6-1.45c2.17-1.83,2.67-1.84,4.91-0.15
		C498.93,278.4,499.13,278.45,499.25,278.5z"/>
	<path style="fill-rule:evenodd;clip-rule:evenodd;fill:#72AB41;" d="M472.82,288.05c-0.23,1.26-0.3,2.47,0.91,3.34
		c0.06,0.05,0.18,0.13,0.17,0.16c-0.84,2.07,1.19,2.94,1.93,4.28c0.77,1.38,1.65,2.85,3.09,3.76c0.15,0.09,0.43,0.11,0.35,0.37
		c-0.02,0.06-0.28,0.06-0.43,0.06c-1.45,0.08-2.87-0.12-4.23-0.6c-3.23-1.15-4.75-3.94-4.02-7.31c0.34-1.58,0.92-3.05,2.02-4.27
		C472.73,287.86,472.8,287.93,472.82,288.05z"/>
	<path style="fill-rule:evenodd;clip-rule:evenodd;fill:#95BB56;" d="M497.11,303.64c-0.07,0.1-0.18,0.19-0.19,0.29
		c-0.06,0.62-0.1,1.25-0.15,1.87c-0.67-0.35-0.83-1.1-1.27-1.63c-2.88-3.4-3.96-7.45-4.13-11.8c-0.01-0.28,0-0.57-0.3-0.73
		c-0.36-0.52,0.05-0.48,0.37-0.53c0.86-0.13,1.71-0.28,2.57-0.41c0.58,0.27,0.65,0.83,0.57,1.32c-0.32,1.98-0.05,3.87,0.7,5.71
		c0.1,0.25,0.01,0.54,0.06,0.82c-0.02-0.21-0.01-0.42-0.02-0.63c-0.01-0.45-0.45-1.03,0.36-1.24c-0.27,1.84-0.09,3.45,2.03,4.1
		c0.27,0.08,0.36,0.22,0.23,0.53C497.64,302.08,497.38,302.87,497.11,303.64z"/>
	<path style="fill-rule:evenodd;clip-rule:evenodd;fill:#5A575C;" d="M438.35,309.35c-1.87,1.72-2.45,4.23-3.79,6.29
		c-2.31,3.53-9.73,3.28-11.56-0.87c-0.7-1.58-1.47-3.13-2.21-4.69c0.64-0.48,1.27-0.96,1.91-1.44c0.15,0.02,0.23-0.06,0.27-0.2
		c0.15-0.1,0.29-0.2,0.44-0.29c0.16,0.04,0.24-0.04,0.27-0.19c0.16-0.09,0.32-0.17,0.48-0.26c0.39,0.42,0.19,0.86-0.08,1.19
		c-2.45,3.06,0.45,7.16,3.67,7.58c3.37,0.44,6.41-1.55,7.01-4.81c0.21-1.11-0.02-2.13-0.58-3.1c-0.3-0.52-0.66-1.12,0.32-1.36
		c0.27-0.01,0.53,0.01,0.71,0.25l0,0C436.49,307.71,437.51,308.39,438.35,309.35z"/>
	<path style="fill-rule:evenodd;clip-rule:evenodd;fill:#6F3A89;" d="M487.73,324.81c-0.15-1.46,1.11-1.57,1.98-1.98
		c0.8-0.39,1.47-0.21,1.97,0.69c0.69,1.26,1.82,1.46,3.09,0.9c2.47-1.09,4.19-3.16,6.18-4.86c0.47-0.4,0.2-1.46,0.66-2.11
		c0.27-0.39,0.52-1.08,0.95-0.93c0.56,0.19,0.3,0.91,0.21,1.38c-0.6,2.91-2.58,4.79-4.91,6.36c-1.29,0.87-2.7,1.54-4.01,2.38
		c-2.07,1.33-3.88,0.33-5.7-0.58C487.68,325.83,487.72,325.74,487.73,324.81z"/>
	<path style="fill-rule:evenodd;clip-rule:evenodd;fill:#424043;" d="M440.24,312.76c-1.65,1.39-2.52,3.36-3.68,5.09
		c-2.15,3.21-5.24,3.55-8.64,3.24c-0.47-0.04-0.94-0.13-1.41-0.23c-2.85-0.57-5.21-1.73-5.92-4.91c-0.29-1.27-1.1-2.24-1.94-3.19
		l0-0.01c0.08-0.08,0.16-0.16,0.23-0.25l0,0c0.09-0.07,0.18-0.15,0.24-0.25l0,0c0.09-0.08,0.17-0.07,0.25,0.02
		c1.62,0.45,1.96,1.99,2.38,3.21c1.07,3.13,3.58,3.97,6.37,4.45c2.12,0.36,4.26,0.36,5.97-1.19c1.6-1.46,2.69-3.35,3.81-5.18
		c0.52-0.86,1.06-1.68,1.89-2.27c0.16,0.32,0.31,0.65,0.47,0.97C440.37,312.43,440.39,312.6,440.24,312.76z"/>
	<path style="fill-rule:evenodd;clip-rule:evenodd;fill:#E1A77C;" d="M498.06,305.62c0.08-0.59,0.11-1.19,0.24-1.77
		c0.6-2.74,0.67-2.77,3.42-2.69c0.67,0.02,1.34-0.03,2.01-0.05c-0.02,0.82-0.45,1.51-0.73,2.24c-0.57,1.49-1.23,2.96-0.77,4.62
		c0.13,0.46-0.1,0.63-0.49,0.78c-1.66,0.64-3.36-0.31-3.58-2.04c-0.04-0.35-0.01-0.72-0.01-1.08
		C498.11,305.62,498.08,305.62,498.06,305.62z"/>
	<path style="fill-rule:evenodd;clip-rule:evenodd;fill:#6A696F;" d="M434.5,307.21c-0.25,0.29-0.56,0.48-0.19,0.98
		c1.43,1.98,1.12,4.03-0.17,5.89c-1.54,2.23-3.75,3.07-6.47,2.7c-3.39-0.46-5.49-3.93-4.68-6.65c0.26-0.88,1.22-1.42,1.17-2.44
		C427.54,306.22,430.96,305.47,434.5,307.21z"/>
	<path style="fill-rule:evenodd;clip-rule:evenodd;fill:#E1A87C;" d="M509.08,264.79c-0.35-0.99,0.14-1.39,1.38-1.24
		c0.67,0.08,1.38,0.06,2.03-0.1c1.43-0.34,1.71,0.45,1.77,1.59c0.1,2.04-1.23,3.92-3.12,4.47c-0.81,0.23-1.29,0.06-1.53-0.79
		C509.26,267.51,509.16,266.29,509.08,264.79z"/>
	<path style="fill-rule:evenodd;clip-rule:evenodd;fill:#FDFDFD;" d="M496.68,247.22c0.75-0.13,1.15-0.67,1.08-1.32
		c-0.07-0.59-0.71-0.78-1.28-0.92c-0.31-0.08-0.99,0.31-0.83-0.41c0.11-0.47,0.19-1.28,1.1-1.03c0.5,0.14,0.88-0.13,1.17-0.45
		c1.09-1.19,2.06-0.66,2.99,0.19c1.16,1.06,1.64,2.67,0.94,3.5c-1.42,1.68-3.39,2.55-5.73,0.76
		C496.11,247.08,496.36,247.08,496.68,247.22z"/>
	<path style="fill-rule:evenodd;clip-rule:evenodd;fill:#EFCE15;" d="M500.3,277.97c-1.14-0.54-2.12-1.39-3.36-1.8
		c-0.28-0.09,0.07-0.39,0.22-0.54c2.23-2.18,4.45-4.37,6.89-6.32c0.17-0.13,0.39-0.18,0.59-0.27c-0.03,0.15-0.03,0.31-0.09,0.44
		c-1.17,2.58-2.35,5.16-3.54,7.74C500.87,277.53,500.78,277.93,500.3,277.97z"/>
	<path style="fill-rule:evenodd;clip-rule:evenodd;fill:#EDCC64;" d="M438.79,333.12c-0.88,0-1.76,0-2.64,0
		c-0.44-2.77-2.56-3.92-4.79-4.96c-0.18-0.08-0.38-0.13-0.57-0.19c-0.53-0.15-1.05-0.3-1.58-0.45c0.41-0.33,1.04,0.14,1.4-0.38h0
		c0.37-0.24,0.83,0.05,1.2-0.21c0.8-0.25,1.6-0.5,2.4-0.75c1.01,0.76,2.09,1.42,2.96,2.37c0.88,0.97,1.4,2.11,1.78,3.33
		C439.1,332.32,439.17,332.76,438.79,333.12z"/>
	<path style="fill-rule:evenodd;clip-rule:evenodd;fill:#A1C05F;" d="M495.68,296.68c-0.48,0.56-0.15,1.22-0.25,1.83
		c-0.02,0.1-0.07,0.19-0.1,0.29c-0.04-0.06-0.11-0.13-0.11-0.19c0.02-1.19-0.84-2.08-1.06-3.23c-0.23-1.16,0.14-2.2,0.09-3.29
		c-0.02-0.47,0.04-0.96-0.24-1.39c1.26-0.49,2.52-1,3.79-1.44c0.35-0.12,0.92-0.21,1.12-0.03c0.32,0.31-0.11,0.72-0.27,1.05
		C497.61,292.4,496.4,294.43,495.68,296.68z"/>
	<path style="fill-rule:evenodd;clip-rule:evenodd;fill:#EFD173;" d="M438.79,333.12c-0.16-2.97-1.9-4.87-4.3-6.31
		c-0.27-0.16-0.78-0.16-0.26-0.63l0,0c0.14-0.12,0.35-0.08,0.48-0.22c1.04-0.86,1.64-0.63,2.56,0.45c1.86,2.18,3.78,4.3,5.36,6.7
		C441.35,333.12,440.07,333.12,438.79,333.12z"/>
	<path style="fill-rule:evenodd;clip-rule:evenodd;fill:#6F3A88;" d="M534.42,326.53c-0.48-0.03-0.74,0.01-0.95-0.08
		c-0.32-0.13-0.81-0.3-0.86-0.53c-0.07-0.34,0.45-0.3,0.71-0.41c1.01-0.43,1.55-1.32,2.26-2.06c0.76-0.78,1.22-2.45,2.9-1.36
		c0.05,0.03,0.15-0.04,0.23-0.04c0.46,0.02,0.97-0.75,1.36-0.08c0.41,0.69-0.11,1.3-0.53,1.82
		C538.17,325.48,536.36,326.35,534.42,326.53z"/>
	<path style="fill-rule:evenodd;clip-rule:evenodd;fill:#D98D73;" d="M497.13,249.9c0.29,0.3,0.67,0.22,1.01,0.21
		c0.83-0.04,1.68-0.01,2,0.9c0.26,0.75,0.27,1.62-0.33,2.25c-0.65,0.69-1.47,1.07-2.46,0.81c-1.93-0.5-2.33-1.46-1.6-3.4
		c0.17-0.44-0.72-0.95-0.07-1.5C495.35,251,496.68,249.58,497.13,249.9z"/>
	<path style="fill-rule:evenodd;clip-rule:evenodd;fill:#CA6C25;" d="M469.83,290.25c-0.48,1.53-0.75,3.09-0.43,4.68
		c0.58,2.84,2.46,4.52,5.08,5.49c0.48,0.18,0.96,0.33,1.45,0.5c0.12,0.23-0.09,0.21-0.2,0.27c-3.78-0.3-6.97-3-7.56-6.46
		c-0.29-1.72,0.42-3.17,1.34-4.55C469.65,290.09,469.75,290.11,469.83,290.25z"/>
	<path style="fill-rule:evenodd;clip-rule:evenodd;fill:#EECD15;" d="M501.99,310.93c-0.06,0.39-0.11,0.79-0.17,1.18
		c-0.1,0.6-0.25,1.29-0.92,1.39c-0.68,0.1-0.77-0.68-1.08-1.1c-0.02-0.03-0.04-0.07-0.05-0.11c-0.18-0.89-1.71-1.32-1.15-2.26
		c0.5-0.84,1.63,0.11,2.49-0.1C501.94,309.72,502.22,310.13,501.99,310.93z"/>
	<path style="fill-rule:evenodd;clip-rule:evenodd;fill:#ECCD15;" d="M530.04,318.2c0.03-0.61-0.85-0.72-0.42-1.12
		c1-0.92,0.09-1.41-0.35-1.97c-0.42-0.53-0.57-0.8,0.28-0.99c0.98-0.21,1.82-0.79,2.66-1.33c0.18-0.11,0.51-0.54,0.62-0.06
		c0.07,0.33,0.6,0.85,0.12,1.05c-1.55,0.63-1.63,2.16-2.27,3.35C530.52,317.44,530.33,317.72,530.04,318.2z"/>
	<path style="fill-rule:evenodd;clip-rule:evenodd;fill:#CB6B24;" d="M485.34,300.74c-0.43-0.02-0.95,0.08-1.15-0.41
		c-0.21-0.52,0.27-0.81,0.6-1.04c0.71-0.51,1.47-0.92,2.2-1.4c0.43-0.28,0.72-0.08,0.81,0.31c0.14,0.59,0.82,1.27,0,1.79
		C487.07,300.44,486.25,300.8,485.34,300.74z"/>
	<path style="fill-rule:evenodd;clip-rule:evenodd;fill:#C76A26;" d="M476.42,285.7c-0.42-0.15-1.14,0.13-0.94-0.5
		c0.38-1.19,1.6-1.3,2.61-1.59c0.42-0.13,0.61,0.2,0.53,0.56C478.34,285.39,477.27,285.44,476.42,285.7z"/>
	<path style="fill-rule:evenodd;clip-rule:evenodd;fill:#6DA041;" d="M498.23,282.32c-0.07-0.01-0.38,0.02-0.44-0.09
		c-0.14-0.26,0.14-0.42,0.31-0.57c0.83-0.75,1.67-1.49,2.52-2.22c0.09-0.08,0.26-0.09,0.39-0.13c0,0.11,0.02,0.23,0,0.34
		C500.82,281.39,499.95,282.26,498.23,282.32z"/>
	<path style="fill-rule:evenodd;clip-rule:evenodd;fill:#6A387E;" d="M528.21,323.87c-0.04-0.59,0.19-0.5,0.42-0.35
		c0.96,0.58,1.92,1.16,2.86,1.75c0.12,0.07,0.17,0.24,0.26,0.36c-0.07,0.03-0.14,0.05-0.21,0.08
		C530.49,326.05,528.23,324.7,528.21,323.87z"/>
	<path style="fill-rule:evenodd;clip-rule:evenodd;fill:#C49772;" d="M480.02,282.57c-0.4,0-0.79,0.01-1.19,0
		c-0.26-0.01-0.65,0.25-0.74-0.08c-0.11-0.39,0.36-0.48,0.62-0.55c1.04-0.29,2.03,0.01,3.01,0.36c0.12,0.04,0.2,0.21,0.29,0.32
		c-0.15,0.01-0.31,0.04-0.46,0.03c-0.51-0.04-1.02-0.09-1.53-0.13C480.02,282.54,480.02,282.56,480.02,282.57z"/>
	<path style="fill-rule:evenodd;clip-rule:evenodd;fill:#493D3A;" d="M496.42,313.22c0.15,0.01,0.29,0.03,0.44,0.04
		c-0.13,0.2-0.26,0.39-0.39,0.59c-0.22,0.34,0.19,1.16-0.48,1.01c-0.36-0.08,0.03-0.83,0.17-1.26
		C496.21,313.46,496.33,313.34,496.42,313.22z"/>
	<path style="fill-rule:evenodd;clip-rule:evenodd;fill:#8C8886;" d="M415.8,316.4c-0.07-0.25-0.42-0.47-0.05-0.75
		c0.06-0.05,0.09-0.1,0.08-0.16c-0.01-0.06-0.02-0.1-0.03-0.1c-0.04-0.24-0.08-0.49,0.18-0.65
		C416.34,315.34,416.62,315.93,415.8,316.4z"/>
	<path style="fill-rule:evenodd;clip-rule:evenodd;fill:#CAC9C9;" d="M496.68,247.22c-0.19,0.11-0.37,0.21-0.56,0.32
		c-0.41-0.24-0.59-0.6-0.54-1.08C495.94,246.71,496.31,246.96,496.68,247.22z"/>
	<path style="fill-rule:evenodd;clip-rule:evenodd;fill:#D7D6D7;" d="M479.35,285.39c0.28-0.13,0.28-0.7,0.75-0.5
		c0.11,0.04,0.25,0.28,0.22,0.35c-0.18,0.41-0.61,0.36-0.96,0.45c-0.07-0.06-0.1-0.13-0.07-0.19S479.33,285.39,479.35,285.39z"/>
	<path style="fill-rule:evenodd;clip-rule:evenodd;fill:#C8C7C8;" d="M478.04,286.38c-0.37,0.28-0.77,0.5-1.26,0.51
		c-0.22,0.03-0.51,0.22-0.52-0.23c0.46-0.12,0.91-0.24,1.37-0.36C477.79,286.24,477.92,286.26,478.04,286.38z"/>
	<path style="fill-rule:evenodd;clip-rule:evenodd;fill:#7BAF41;" d="M442.14,316.34c-0.06,0.57,0.28,1.2-0.27,1.69
		C442,317.47,441.81,316.86,442.14,316.34z"/>
	<path style="fill-rule:evenodd;clip-rule:evenodd;fill:#82B240;" d="M516.28,231.9c0.57,0.04,1.18-0.21,1.71,0.18
		C517.42,231.99,516.82,232.22,516.28,231.9z"/>
	<path style="fill-rule:evenodd;clip-rule:evenodd;fill:#9F9DA0;" d="M476.26,286.66c0.18,0.08,0.35,0.15,0.52,0.23
		c-0.34,0.16-0.68,0.37-1.07,0.11C475.9,286.88,476.08,286.77,476.26,286.66z"/>
	<path style="fill-rule:evenodd;clip-rule:evenodd;fill:#797677;" d="M478.04,286.38c-0.14-0.03-0.27-0.05-0.41-0.08
		c0.37-0.28,0.77-0.44,1.24-0.42l0,0C478.66,286.15,478.4,286.34,478.04,286.38z"/>
	<path style="fill-rule:evenodd;clip-rule:evenodd;fill:#CFBDAB;" d="M492.34,244.34c-0.18,0.26-0.36,0.52-0.53,0.78
		C491.41,244.47,491.83,244.38,492.34,244.34z"/>
	<path style="fill-rule:evenodd;clip-rule:evenodd;fill:#837C79;" d="M469.83,290.25c-0.11-0.02-0.21-0.05-0.32-0.07
		c0.14-0.33,0.25-0.67,0.59-0.86C470.3,289.72,470.06,289.98,469.83,290.25z"/>
	<path style="fill-rule:evenodd;clip-rule:evenodd;fill:#98BB42;" d="M541.51,321.4c0.37,0.4,0.37,0.8-0.01,1.2
		C541.51,322.2,541.51,321.8,541.51,321.4z"/>
	<path style="fill-rule:evenodd;clip-rule:evenodd;fill:#BFBFC1;" d="M475.73,301.19c0.07-0.09,0.13-0.18,0.2-0.27
		c0.29,0.08,0.58,0.15,0.87,0.23C476.46,301.41,476.09,301.26,475.73,301.19z"/>
	<path style="fill-rule:evenodd;clip-rule:evenodd;fill:#EBC654;" d="M431.83,326.94c-0.35,0.37-0.79,0.19-1.2,0.21
		C430.99,326.86,431.42,326.93,431.83,326.94z"/>
	<path style="fill-rule:evenodd;clip-rule:evenodd;fill:#A5A4A4;" d="M472.82,288.05c-0.07-0.07-0.14-0.14-0.21-0.21
		c0.18-0.17,0.35-0.35,0.53-0.53c0.03,0.04,0.06,0.07,0.09,0.11c-0.05,0.08-0.08,0.17-0.11,0.26
		C473.02,287.81,472.92,287.93,472.82,288.05z"/>
	<path style="fill-rule:evenodd;clip-rule:evenodd;fill:#82B240;" d="M515.13,231.82c0.25-0.24,0.48-0.24,0.7,0.03
		C515.6,231.84,515.36,231.83,515.13,231.82z"/>
	<path style="fill-rule:evenodd;clip-rule:evenodd;fill:#87B442;" d="M493.07,240.6c-0.02-0.28-0.08-0.58,0.19-0.79
		C493.19,240.07,493.13,240.33,493.07,240.6z"/>
	<path style="fill-rule:evenodd;clip-rule:evenodd;fill:#87B442;" d="M493.02,241.96c-0.07-0.08-0.15-0.16-0.22-0.24
		c0.08-0.16,0.15-0.32,0.23-0.48C493.03,241.48,493.02,241.72,493.02,241.96z"/>
	<path style="fill-rule:evenodd;clip-rule:evenodd;fill:#797677;" d="M479.35,285.39c0,0.1,0.01,0.2,0.01,0.29
		c-0.09,0.23-0.28,0.24-0.48,0.2l0,0C478.87,285.56,479.14,285.5,479.35,285.39z"/>
	<path style="fill-rule:evenodd;clip-rule:evenodd;fill:#6A696F;" d="M423.67,307.96c0.02,0.09,0.09,0.22,0.06,0.26
		c-0.13,0.16-0.25,0.08-0.33-0.07C423.49,308.08,423.58,308.02,423.67,307.96z"/>
	<path style="fill-rule:evenodd;clip-rule:evenodd;fill:#6A696F;" d="M422.96,308.44c0.02,0.09,0.09,0.21,0.06,0.26
		c-0.12,0.16-0.24,0.1-0.33-0.06C422.78,308.57,422.87,308.51,422.96,308.44z"/>
	<path style="fill-rule:evenodd;clip-rule:evenodd;fill:#85B44A;" d="M529.27,290.69c0.22,0.12,0.26,0.31,0.22,0.53
		C529.42,291.04,529.34,290.86,529.27,290.69z"/>
	<path style="fill-rule:evenodd;clip-rule:evenodd;fill:#71AB41;" d="M467.38,291.7c0.07-0.18,0.15-0.36,0.22-0.54
		C467.53,291.34,467.46,291.52,467.38,291.7z"/>
	<path style="fill-rule:evenodd;clip-rule:evenodd;fill:#71AB41;" d="M467.15,292.44c0.07-0.19,0.14-0.37,0.21-0.56
		C467.28,292.07,467.22,292.25,467.15,292.44z"/>
	<path style="fill-rule:evenodd;clip-rule:evenodd;fill:#FBFCFD;" d="M473.13,287.32c0.13-0.1,0.27-0.2,0.4-0.3
		c0.04,0.04,0.07,0.07,0.11,0.11c-0.07,0.07-0.14,0.15-0.21,0.22c-0.05,0.02-0.08,0.03-0.08,0.03c-0.03,0.01,0,0,0.08-0.03
		C473.33,287.34,473.23,287.33,473.13,287.32z"/>
	<path style="fill-rule:evenodd;clip-rule:evenodd;fill:#71AB41;" d="M468.31,289.7c0.09-0.15,0.17-0.3,0.26-0.46
		C468.48,289.4,468.4,289.55,468.31,289.7z"/>
	<path style="fill-rule:evenodd;clip-rule:evenodd;fill:#7BAF41;" d="M487.76,301.25c-0.17,0.07-0.34,0.14-0.5,0.21
		C487.42,301.4,487.59,301.33,487.76,301.25z"/>
	<path style="fill-rule:evenodd;clip-rule:evenodd;fill:#73AC41;" d="M520.41,265.72c0.16,0.08,0.31,0.16,0.47,0.24
		C520.72,265.88,520.56,265.8,520.41,265.72z"/>
	<path style="fill-rule:evenodd;clip-rule:evenodd;fill:#2D2C2C;" d="M440.24,312.76c0-0.16,0.01-0.33,0.01-0.49
		c0.07,0.17,0.14,0.33,0.22,0.5C440.39,312.76,440.32,312.76,440.24,312.76z"/>
	<path style="fill-rule:evenodd;clip-rule:evenodd;fill:#8BB642;" d="M523.51,233.81c0.16,0.08,0.32,0.17,0.48,0.25
		C523.83,233.97,523.67,233.89,523.51,233.81z"/>
	<path style="fill-rule:evenodd;clip-rule:evenodd;fill:#2D2C2C;" d="M417.91,313.94c-0.07,0.17-0.14,0.33-0.21,0.5
		C417.77,314.27,417.84,314.11,417.91,313.94z"/>
	<path style="fill-rule:evenodd;clip-rule:evenodd;fill:#EDCC64;" d="M434.71,325.97c-0.16,0.07-0.32,0.15-0.48,0.22
		C434.39,326.12,434.55,326.04,434.71,325.97z"/>
	<path style="fill-rule:evenodd;clip-rule:evenodd;fill:#85B44A;" d="M529.54,291.41c0.06,0.11,0.12,0.21,0.19,0.32
		C529.66,291.62,529.6,291.51,529.54,291.41z"/>
	<path style="fill-rule:evenodd;clip-rule:evenodd;fill:#7BAF41;" d="M488.95,300.57c-0.08,0.06-0.16,0.12-0.24,0.18
		C488.79,300.69,488.87,300.63,488.95,300.57z"/>
	<path style="fill-rule:evenodd;clip-rule:evenodd;fill:#7BAF41;" d="M488.71,300.75c-0.09,0.07-0.19,0.14-0.28,0.21
		C488.52,300.89,488.62,300.82,488.71,300.75z"/>
	<path style="fill-rule:evenodd;clip-rule:evenodd;fill:#7BAF41;" d="M488.23,301.04c-0.11,0.06-0.21,0.12-0.32,0.17
		C488.02,301.15,488.13,301.09,488.23,301.04z"/>
	<path style="fill-rule:evenodd;clip-rule:evenodd;fill:#FCFCFD;" d="M473.44,287.35L473.44,287.35c-0.1,0.12-0.21,0.23-0.32,0.34
		C473.22,287.58,473.33,287.46,473.44,287.35z"/>
	<path style="fill-rule:evenodd;clip-rule:evenodd;fill:#73AC41;" d="M520.88,265.96c0.08,0.06,0.15,0.11,0.22,0.17
		C521.03,266.07,520.96,266.02,520.88,265.96z"/>
	<path style="fill-rule:evenodd;clip-rule:evenodd;fill:#73AC41;" d="M521.3,266.22c0.1,0.07,0.2,0.14,0.3,0.2
		C521.5,266.35,521.4,266.29,521.3,266.22z"/>
	<path style="fill-rule:evenodd;clip-rule:evenodd;fill:#A5C25E;" d="M533.35,309.39c0.04,0.05,0.09,0.09,0.13,0.15
		c0.01,0.01-0.03,0.06-0.05,0.09C533.4,309.55,533.38,309.47,533.35,309.39z"/>
	<path style="fill-rule:evenodd;clip-rule:evenodd;fill:#A5C25E;" d="M534.11,310.84c0.01,0.06,0.04,0.12,0.04,0.18
		c0,0.02-0.06,0.03-0.1,0.05C534.07,311,534.09,310.92,534.11,310.84z"/>
	<path style="fill-rule:evenodd;clip-rule:evenodd;fill:#FBFCFD;" d="M473.54,287.02c0.07-0.06,0.2-0.18,0.21-0.18
		c0.17,0.16,0.05,0.23-0.1,0.29C473.61,287.09,473.57,287.05,473.54,287.02z"/>
	<path style="fill-rule:evenodd;clip-rule:evenodd;fill:#39373A;" d="M419.58,311.77c-0.08,0.08-0.16,0.17-0.24,0.25
		C419.42,311.94,419.5,311.86,419.58,311.77z"/>
	<path style="fill-rule:evenodd;clip-rule:evenodd;fill:#79AE42;" d="M490.39,245.32c-0.07-0.1-0.14-0.2-0.21-0.3
		C490.25,245.11,490.32,245.22,490.39,245.32z"/>
	<path style="fill-rule:evenodd;clip-rule:evenodd;fill:#39373A;" d="M419.36,312.28c-0.08,0-0.17-0.01-0.25-0.01
		c0.08-0.08,0.16-0.16,0.24-0.24C419.35,312.11,419.35,312.2,419.36,312.28z"/>
	<path style="fill-rule:evenodd;clip-rule:evenodd;fill:#71AB41;" d="M469.27,288.26c0.05-0.07,0.11-0.13,0.16-0.2
		C469.38,288.12,469.33,288.19,469.27,288.26z"/>
	<path style="fill-rule:evenodd;clip-rule:evenodd;fill:#39373A;" d="M418.87,312.51c-0.08,0.08-0.15,0.17-0.23,0.25
		C418.72,312.68,418.8,312.59,418.87,312.51z"/>
	<path style="fill-rule:evenodd;clip-rule:evenodd;fill:#71AB41;" d="M469.05,288.53c0.07-0.08,0.14-0.17,0.21-0.26
		C469.19,288.36,469.12,288.45,469.05,288.53z"/>
	<path style="fill-rule:evenodd;clip-rule:evenodd;fill:#71AB41;" d="M468.83,288.86c0.08-0.11,0.15-0.22,0.23-0.33
		C468.98,288.64,468.9,288.75,468.83,288.86z"/>
	<path style="fill-rule:evenodd;clip-rule:evenodd;fill:#71AB41;" d="M468.57,289.25c0.06-0.08,0.12-0.16,0.18-0.24
		C468.69,289.09,468.63,289.17,468.57,289.25z"/>
	<path style="fill-rule:evenodd;clip-rule:evenodd;fill:#2D2C2C;" d="M418.15,313.46c-0.07,0.09-0.14,0.17-0.21,0.26
		C418.01,313.63,418.08,313.55,418.15,313.46z"/>
	<path style="fill-rule:evenodd;clip-rule:evenodd;fill:#7EB042;" d="M490.18,244.42c0.07-0.1,0.13-0.19,0.2-0.29
		C490.31,244.22,490.25,244.32,490.18,244.42z"/>
	<path style="fill-rule:evenodd;clip-rule:evenodd;fill:#71AB41;" d="M468.11,290.05c0.07-0.11,0.13-0.22,0.2-0.33
		C468.24,289.83,468.17,289.94,468.11,290.05z"/>
	<path style="fill-rule:evenodd;clip-rule:evenodd;fill:#BDC1C7;" d="M534.8,315.76c-0.05,0.03-0.1,0.06-0.16,0.07
		c-0.02,0-0.05-0.05-0.08-0.08c0.05-0.03,0.1-0.06,0.16-0.07C534.74,315.68,534.77,315.73,534.8,315.76z"/>
	<path style="fill-rule:evenodd;clip-rule:evenodd;fill:#79AE42;" d="M500.25,271.25c0.08-0.08,0.17-0.16,0.25-0.24
		C500.41,271.09,500.33,271.17,500.25,271.25z"/>
	<path style="fill-rule:evenodd;clip-rule:evenodd;fill:#79AE42;" d="M500,271.48c0.08-0.08,0.16-0.16,0.25-0.23
		C500.17,271.32,500.08,271.4,500,271.48z"/>
	<path style="fill-rule:evenodd;clip-rule:evenodd;fill:#71AB41;" d="M467.87,290.53c0.05-0.11,0.11-0.21,0.16-0.32
		C467.97,290.32,467.92,290.42,467.87,290.53z"/>
	<path style="fill-rule:evenodd;clip-rule:evenodd;fill:#73AC41;" d="M520.06,265.51c0.11,0.07,0.23,0.14,0.34,0.21
		C520.28,265.65,520.17,265.58,520.06,265.51z"/>
	<path style="fill-rule:evenodd;clip-rule:evenodd;fill:#98BB42;" d="M541.49,322.73c-0.06,0.11-0.12,0.23-0.18,0.34
		C541.36,322.96,541.43,322.85,541.49,322.73z"/>
	<path style="fill-rule:evenodd;clip-rule:evenodd;fill:#79AE42;" d="M497.68,260.17c-0.1-0.08-0.21-0.16-0.31-0.23
		C497.47,260.02,497.58,260.09,497.68,260.17z"/>
	<path style="fill-rule:evenodd;clip-rule:evenodd;fill:#79AE42;" d="M497.38,259.95c-0.09-0.07-0.18-0.14-0.27-0.21
		C497.2,259.81,497.29,259.88,497.38,259.95z"/>
	<path style="fill-rule:evenodd;clip-rule:evenodd;fill:#79AE42;" d="M497.09,259.73c-0.07-0.06-0.13-0.12-0.2-0.18
		C496.96,259.61,497.03,259.67,497.09,259.73z"/>
	<path style="fill-rule:evenodd;clip-rule:evenodd;fill:#89B541;" d="M530.69,251.71c-0.05,0.11-0.1,0.21-0.15,0.32
		C530.59,251.92,530.64,251.82,530.69,251.71z"/>
	<path style="fill-rule:evenodd;clip-rule:evenodd;fill:#71AB41;" d="M467.63,291.02c0.06-0.11,0.12-0.22,0.18-0.33
		C467.75,290.8,467.69,290.91,467.63,291.02z"/>
	<path style="fill-rule:evenodd;clip-rule:evenodd;fill:#39373A;" d="M419.11,312.26c-0.08,0.08-0.16,0.17-0.24,0.25
		C418.95,312.43,419.03,312.35,419.11,312.26z"/>
	<path style="fill-rule:evenodd;clip-rule:evenodd;fill:#87B441;" d="M462.08,233.8c-0.96,1.31-2.09,2.36-3.84,2.4
		C459.27,235,460.79,234.58,462.08,233.8z"/>
	<path style="fill-rule:evenodd;clip-rule:evenodd;fill:#87B441;" d="M447.68,235c-2.16,0.03-4.33,0.19-6.48-0.24
		C443.37,234.65,445.53,234.62,447.68,235z"/>
	<path style="fill-rule:evenodd;clip-rule:evenodd;fill:#87B441;" d="M413.36,262.12c-0.14,2.08,0.29,4.18-0.24,6.24
		C413.3,266.28,412.49,264.17,413.36,262.12z"/>
	<path style="fill-rule:evenodd;clip-rule:evenodd;fill:#87B441;" d="M414.08,257.08c-0.16,1.69-0.17,3.4-0.72,5.04
		C413.29,260.4,413.46,258.71,414.08,257.08z"/>
	<path style="fill-rule:evenodd;clip-rule:evenodd;fill:#87B441;" d="M414.56,253c-0.05,1.21-0.12,2.43-0.48,3.6
		C413.79,255.34,414.03,254.15,414.56,253z"/>
	<path style="fill-rule:evenodd;clip-rule:evenodd;fill:#87B441;" d="M434.72,234.52c-1.12,0-2.24,0-3.36,0
		C432.48,234.13,433.6,234.13,434.72,234.52z"/>
	<path style="fill-rule:evenodd;clip-rule:evenodd;fill:#87B441;" d="M458.24,236.2c-0.8,0.38-1.6,0.38-2.4,0
		C456.64,236.2,457.44,236.2,458.24,236.2z"/>
	<path style="fill-rule:evenodd;clip-rule:evenodd;fill:#87B441;" d="M413.12,271c0.49,0.67,0.13,1.44,0.24,2.16
		C412.87,272.49,413.23,271.72,413.12,271z"/>
	<path style="fill-rule:evenodd;clip-rule:evenodd;fill:#87B441;" d="M451.04,235.24c-0.56-0.09-1.17,0.21-1.68-0.24
		C449.92,235.09,450.53,234.79,451.04,235.24z"/>
	<path style="fill-rule:evenodd;clip-rule:evenodd;fill:#87B441;" d="M438.08,234.76c-0.48-0.07-1.02,0.19-1.44-0.24
		C437.12,234.59,437.66,234.33,438.08,234.76z"/>
	<path style="fill-rule:evenodd;clip-rule:evenodd;fill:#87B441;" d="M452.72,235.48c-0.41-0.05-0.86,0.15-1.2-0.24
		C451.92,235.29,452.38,235.09,452.72,235.48z"/>
	<path style="fill-rule:evenodd;clip-rule:evenodd;fill:#87B441;" d="M430.88,234.52c-0.34,0.39-0.79,0.19-1.2,0.24
		C430.02,234.37,430.47,234.57,430.88,234.52z"/>
	<path style="fill-rule:evenodd;clip-rule:evenodd;fill:#87B441;" d="M449.12,235c-0.4,0-0.8,0-1.2,0
		C448.32,234.65,448.72,234.65,449.12,235z"/>
	<path style="fill-rule:evenodd;clip-rule:evenodd;fill:#87B441;" d="M429.44,234.76c-0.25,0.34-0.63,0.21-0.96,0.24
		C428.73,234.66,429.11,234.79,429.44,234.76z"/>
	<path style="fill-rule:evenodd;clip-rule:evenodd;fill:#87B441;" d="M440.48,234.76c-0.32,0.33-0.64,0.33-0.96,0
		C439.84,234.76,440.16,234.76,440.48,234.76z"/>
	<path style="fill-rule:evenodd;clip-rule:evenodd;fill:#87B441;" d="M428.48,235c-0.18,0.27-0.46,0.23-0.72,0.24
		C427.94,234.97,428.21,235.01,428.48,235z"/>
	<path style="fill-rule:evenodd;clip-rule:evenodd;fill:#87B441;" d="M427.76,235.24c-0.18,0.27-0.46,0.23-0.72,0.24
		C427.22,235.21,427.49,235.25,427.76,235.24z"/>
	<path style="fill-rule:evenodd;clip-rule:evenodd;fill:#87B441;" d="M454.4,235.96c-0.26-0.01-0.54,0.03-0.72-0.24
		C453.94,235.73,454.22,235.69,454.4,235.96z"/>
	<path style="fill-rule:evenodd;clip-rule:evenodd;fill:#87B441;" d="M415.04,251.32c-0.01,0.26,0.03,0.54-0.24,0.72
		C414.81,251.78,414.77,251.5,415.04,251.32z"/>
	<path style="fill-rule:evenodd;clip-rule:evenodd;fill:#87B441;" d="M414.8,252.28c-0.01,0.26,0.03,0.54-0.24,0.72
		C414.57,252.74,414.53,252.46,414.8,252.28z"/>
	<path style="fill-rule:evenodd;clip-rule:evenodd;fill:#87B441;" d="M413.12,268.84c0.3,0.24,0.3,0.48,0,0.72
		C413.12,269.32,413.12,269.08,413.12,268.84z"/>
	<path style="fill-rule:evenodd;clip-rule:evenodd;fill:#87B441;" d="M415.52,250.12c-0.08,0.16-0.16,0.32-0.24,0.48
		C415.36,250.44,415.44,250.28,415.52,250.12z"/>
	<path style="fill-rule:evenodd;clip-rule:evenodd;fill:#87B441;" d="M416,248.92c-0.08,0.16-0.16,0.32-0.24,0.48
		C415.84,249.24,415.92,249.08,416,248.92z"/>
	<path style="fill-rule:evenodd;clip-rule:evenodd;fill:#87B441;" d="M416.24,248.2c-0.08,0.16-0.16,0.32-0.24,0.48
		C416.08,248.52,416.16,248.36,416.24,248.2z"/>
	<path style="fill-rule:evenodd;clip-rule:evenodd;fill:#87B441;" d="M416.48,247.48c-0.08,0.16-0.16,0.32-0.24,0.48
		C416.32,247.8,416.4,247.64,416.48,247.48z"/>
	<path style="fill-rule:evenodd;clip-rule:evenodd;fill:#87B441;" d="M416.72,247c-0.08,0.16-0.16,0.32-0.24,0.48
		C416.56,247.32,416.64,247.16,416.72,247z"/>
	<path style="fill-rule:evenodd;clip-rule:evenodd;fill:#87B441;" d="M416.96,246.28c-0.08,0.16-0.16,0.32-0.24,0.48
		C416.8,246.6,416.88,246.44,416.96,246.28z"/>
	<path style="fill-rule:evenodd;clip-rule:evenodd;fill:#87B441;" d="M419.12,242.2c-0.08,0.16-0.16,0.32-0.24,0.48
		C418.96,242.52,419.04,242.36,419.12,242.2z"/>
	<path style="fill-rule:evenodd;clip-rule:evenodd;fill:#87B441;" d="M413.36,273.4c0.08,0.16,0.16,0.32,0.24,0.48
		C413.52,273.72,413.44,273.56,413.36,273.4z"/>
	<path style="fill-rule:evenodd;clip-rule:evenodd;fill:#87B441;" d="M415.76,249.4c-0.08,0.16-0.16,0.32-0.24,0.48
		C415.6,249.72,415.68,249.56,415.76,249.4z"/>
	<path style="fill-rule:evenodd;clip-rule:evenodd;fill:#87B441;" d="M417.92,244.12c-0.08,0.16-0.16,0.32-0.24,0.48
		C417.76,244.44,417.84,244.28,417.92,244.12z"/>
	<path style="fill-rule:evenodd;clip-rule:evenodd;fill:#87B441;" d="M424.64,236.68c-0.16,0.08-0.32,0.16-0.48,0.24
		C424.32,236.84,424.48,236.76,424.64,236.68z"/>
	<path style="fill-rule:evenodd;clip-rule:evenodd;fill:#87B441;" d="M425.36,236.2c-0.16,0.08-0.32,0.16-0.48,0.24
		C425.04,236.36,425.2,236.28,425.36,236.2z"/>
	<path style="fill-rule:evenodd;clip-rule:evenodd;fill:#87B441;" d="M427.04,235.48c-0.16,0.08-0.32,0.16-0.48,0.24
		C426.72,235.64,426.88,235.56,427.04,235.48z"/>
	<path style="fill-rule:evenodd;clip-rule:evenodd;fill:#87B441;" d="M455.36,236.2c-0.16-0.08-0.32-0.16-0.48-0.24
		C455.04,236.04,455.2,236.12,455.36,236.2z"/>
	<path style="fill-rule:evenodd;clip-rule:evenodd;fill:#87B441;" d="M426.08,235.96c-0.16,0.08-0.32,0.16-0.48,0.24
		C425.76,236.12,425.92,236.04,426.08,235.96z"/>
	<path style="fill-rule:evenodd;clip-rule:evenodd;fill:#87B441;" d="M426.56,235.72c-0.16,0.08-0.32,0.16-0.48,0.24
		C426.24,235.88,426.4,235.8,426.56,235.72z"/>
	<path style="fill-rule:evenodd;clip-rule:evenodd;fill:#87B441;" d="M453.44,235.72c-0.16-0.08-0.32-0.16-0.48-0.24
		C453.12,235.56,453.28,235.64,453.44,235.72z"/>
	<path style="fill-rule:evenodd;clip-rule:evenodd;fill:#87B441;" d="M413.6,274.36c0.08,0.16,0.16,0.32,0.24,0.48
		C413.76,274.68,413.68,274.52,413.6,274.36z"/>
	<path style="fill-rule:evenodd;clip-rule:evenodd;fill:#87B441;" d="M413.84,275.32c0.08,0.16,0.16,0.32,0.24,0.48
		C414,275.64,413.92,275.48,413.84,275.32z"/>
	<path style="fill-rule:evenodd;clip-rule:evenodd;fill:#87B441;" d="M415.28,250.6c-0.08,0.16-0.16,0.32-0.24,0.48
		C415.12,250.92,415.2,250.76,415.28,250.6z"/>
	<path style="fill-rule:evenodd;clip-rule:evenodd;fill:#87B441;" d="M418.88,242.68c-0.08,0.08-0.16,0.16-0.24,0.24
		C418.72,242.84,418.8,242.76,418.88,242.68z"/>
	<path style="fill-rule:evenodd;clip-rule:evenodd;fill:#87B441;" d="M419.36,241.96c-0.08,0.08-0.16,0.16-0.24,0.24
		C419.2,242.12,419.28,242.04,419.36,241.96z"/>
	<path style="fill-rule:evenodd;clip-rule:evenodd;fill:#87B441;" d="M419.6,241.72c-0.08,0.08-0.16,0.16-0.24,0.24
		C419.44,241.88,419.52,241.8,419.6,241.72z"/>
	<path style="fill-rule:evenodd;clip-rule:evenodd;fill:#87B441;" d="M419.84,241.24c-0.08,0.08-0.16,0.16-0.24,0.24
		C419.68,241.4,419.76,241.32,419.84,241.24z"/>
	<path style="fill-rule:evenodd;clip-rule:evenodd;fill:#87B441;" d="M420.08,241c-0.08,0.08-0.16,0.16-0.24,0.24
		C419.92,241.16,420,241.08,420.08,241z"/>
	<path style="fill-rule:evenodd;clip-rule:evenodd;fill:#87B441;" d="M420.32,240.76c-0.08,0.08-0.16,0.16-0.24,0.24
		C420.16,240.92,420.24,240.84,420.32,240.76z"/>
	<path style="fill-rule:evenodd;clip-rule:evenodd;fill:#87B441;" d="M420.56,240.28c-0.08,0.08-0.16,0.16-0.24,0.24
		C420.4,240.44,420.48,240.36,420.56,240.28z"/>
	<path style="fill-rule:evenodd;clip-rule:evenodd;fill:#87B441;" d="M420.8,240.04c-0.08,0.08-0.16,0.16-0.24,0.24
		C420.64,240.2,420.72,240.12,420.8,240.04z"/>
	<path style="fill-rule:evenodd;clip-rule:evenodd;fill:#87B441;" d="M421.04,239.8c-0.08,0.08-0.16,0.16-0.24,0.24
		C420.88,239.96,420.96,239.88,421.04,239.8z"/>
	<path style="fill-rule:evenodd;clip-rule:evenodd;fill:#87B441;" d="M421.28,239.56c-0.08,0.08-0.16,0.16-0.24,0.24
		C421.12,239.72,421.2,239.64,421.28,239.56z"/>
	<path style="fill-rule:evenodd;clip-rule:evenodd;fill:#87B441;" d="M421.52,239.32c-0.08,0.08-0.16,0.16-0.24,0.24
		C421.36,239.48,421.44,239.4,421.52,239.32z"/>
	<path style="fill-rule:evenodd;clip-rule:evenodd;fill:#87B441;" d="M421.76,239.08c-0.08,0.08-0.16,0.16-0.24,0.24
		C421.6,239.24,421.68,239.16,421.76,239.08z"/>
	<path style="fill-rule:evenodd;clip-rule:evenodd;fill:#87B441;" d="M422.24,238.6c-0.08,0.08-0.16,0.16-0.24,0.24
		C422.08,238.76,422.16,238.68,422.24,238.6z"/>
	<path style="fill-rule:evenodd;clip-rule:evenodd;fill:#87B441;" d="M422.72,238.12c-0.08,0.08-0.16,0.16-0.24,0.24
		C422.56,238.28,422.64,238.2,422.72,238.12z"/>
	<path style="fill-rule:evenodd;clip-rule:evenodd;fill:#87B441;" d="M422.96,237.88c-0.08,0.08-0.16,0.16-0.24,0.24
		C422.8,238.04,422.88,237.96,422.96,237.88z"/>
	<path style="fill-rule:evenodd;clip-rule:evenodd;fill:#87B441;" d="M423.2,237.64c-0.08,0.08-0.16,0.16-0.24,0.24
		C423.04,237.8,423.12,237.72,423.2,237.64z"/>
	<path style="fill-rule:evenodd;clip-rule:evenodd;fill:#87B441;" d="M423.68,237.4c-0.08,0.08-0.16,0.16-0.24,0.24
		C423.52,237.56,423.6,237.48,423.68,237.4z"/>
	<path style="fill-rule:evenodd;clip-rule:evenodd;fill:#87B441;" d="M423.92,237.16c-0.08,0.08-0.16,0.16-0.24,0.24
		C423.76,237.32,423.84,237.24,423.92,237.16z"/>
	<path style="fill-rule:evenodd;clip-rule:evenodd;fill:#87B441;" d="M424.16,236.92c-0.08,0.08-0.16,0.16-0.24,0.24
		C424,237.08,424.08,237,424.16,236.92z"/>
	<path style="fill-rule:evenodd;clip-rule:evenodd;fill:#87B441;" d="M417.2,245.8c-0.08,0.08-0.16,0.16-0.24,0.24
		C417.04,245.96,417.12,245.88,417.2,245.8z"/>
	<path style="fill-rule:evenodd;clip-rule:evenodd;fill:#87B441;" d="M424.88,236.44c-0.08,0.08-0.16,0.16-0.24,0.24
		C424.72,236.6,424.8,236.52,424.88,236.44z"/>
	<path style="fill-rule:evenodd;clip-rule:evenodd;fill:#87B441;" d="M417.44,245.32c-0.08,0.08-0.16,0.16-0.24,0.24
		C417.28,245.48,417.36,245.4,417.44,245.32z"/>
	<path style="fill-rule:evenodd;clip-rule:evenodd;fill:#87B441;" d="M417.68,244.84c-0.08,0.08-0.16,0.16-0.24,0.24
		C417.52,245,417.6,244.92,417.68,244.84z"/>
	<path style="fill-rule:evenodd;clip-rule:evenodd;fill:#87B441;" d="M418.16,243.88c-0.08,0.08-0.16,0.16-0.24,0.24
		C418,244.04,418.08,243.96,418.16,243.88z"/>
	<path style="fill-rule:evenodd;clip-rule:evenodd;fill:#87B441;" d="M462.32,233.56c-0.08,0.08-0.16,0.16-0.24,0.24
		C462.16,233.72,462.24,233.64,462.32,233.56z"/>
	<path style="fill-rule:evenodd;clip-rule:evenodd;fill:#87B441;" d="M462.56,233.32c-0.08,0.08-0.16,0.16-0.24,0.24
		C462.4,233.48,462.48,233.4,462.56,233.32z"/>
	<path style="fill-rule:evenodd;clip-rule:evenodd;fill:#87B441;" d="M463.76,231.88c-0.08,0.08-0.16,0.16-0.24,0.24
		C463.6,232.04,463.68,231.96,463.76,231.88z"/>
	<path style="fill-rule:evenodd;clip-rule:evenodd;fill:#87B441;" d="M422.48,238.36c-0.08,0.08-0.16,0.16-0.24,0.24
		C422.32,238.52,422.4,238.44,422.48,238.36z"/>
	<path style="fill-rule:evenodd;clip-rule:evenodd;fill:#87B441;" d="M418.4,243.4c-0.08,0.08-0.16,0.16-0.24,0.24
		C418.24,243.56,418.32,243.48,418.4,243.4z"/>
	<path style="fill-rule:evenodd;clip-rule:evenodd;fill:#87B441;" d="M418.64,243.16c-0.08,0.08-0.16,0.16-0.24,0.24
		C418.48,243.32,418.56,243.24,418.64,243.16z"/>
	<path style="fill-rule:evenodd;clip-rule:evenodd;fill:#010100;" d="M415.8,315.39c0.01,0.06,0.03,0.12,0.02,0.17
		c0,0.03-0.05,0.05-0.07,0.08C415.76,315.57,415.78,315.48,415.8,315.39z"/>
	<path style="fill-rule:evenodd;clip-rule:evenodd;fill:#020201;" d="M512.97,250.1c-0.05-0.26-0.48-0.62-0.23-0.71
		c1.46-0.53,0.33-1.05,0.02-1.53c-1.13-1.73-1.08-3.79,0.3-5.27c0.47-0.51,0.12-0.73-0.03-1.1c-0.13-0.35-0.09-0.71,0.22-0.99
		c0.25-0.23,0.54-0.38,0.87-0.23c0.42,0.18,0.26,0.51,0.15,0.81c-0.1,0.26,0.1,0.47,0.26,0.39c0.57-0.28,1.45-0.21,1.6-0.99
		c0.11-0.6,0.17-0.97,0.9-0.93c0.7,0.04,0.53,0.4,0.52,0.88c-0.01,0.63,1.88,1.17,2.47,0.74c0.41-0.3,0.87-0.83,1.35-0.42
		c0.63,0.55-0.16,0.89-0.42,1.24c-0.48,0.64,0.13,0.92,0.33,1.35c0.22,0.45,0.48,0.47,0.83,0.14c0.13-0.13,0.31-0.3,0.5-0.08
		c0.05,0.06,0.04,0.24-0.01,0.31c-0.84,1.17-0.89,2.63-1.47,3.9c-0.02,0.04-0.03,0.08-0.05,0.11c-0.68,0.79-1.42,1.56-0.44,2.63
		c-0.57,0.33-1.18,0.37-1.81,0.21c-1.11-0.28-2.25-0.3-3.39-0.3C514.61,250.19,513.76,250.49,512.97,250.1z"/>
	<path style="fill-rule:evenodd;clip-rule:evenodd;fill:#060503;" d="M519.42,254.19c-4.61,2.64-9.6,4.06-14.88,4.47
		c-0.28,0.02-0.56,0.04-0.84,0.02c-0.42-0.04-0.84-0.21-0.85-0.68c-0.01-0.56,0.52-0.37,0.83-0.4c4.1-0.34,8.16-0.88,11.92-2.73
		c0.09-0.06,0.18-0.12,0.27-0.17l-0.01,0.01c0.25-0.43,0.64-0.72,0.97-1.09c0.61-0.51,1.3-0.59,2.01-0.34
		C519.24,253.41,519.74,253.58,519.42,254.19z"/>
	<path style="fill-rule:evenodd;clip-rule:evenodd;fill:#D6826F;" d="M519.42,254.19c-0.79-1.18-1.67-0.83-2.58-0.16
		c-1.36-0.16-1.76-1.23-2.11-2.3c-0.25-0.74-0.14-1.42,0.63-1.85c1.79-0.29,3.5,0.52,5.27,0.46
		C520.16,251.6,520.59,253.15,519.42,254.19z"/>
	<path style="fill-rule:evenodd;clip-rule:evenodd;fill:#DC9776;" d="M515.36,249.88c-0.8,1.63-0.46,2.58,1.48,4.14
		c-0.14,0.49-0.54,0.61-0.97,0.68c-1.42-0.75-2.26-1.88-2.17-3.52c0.03-0.64-0.42-0.78-0.73-1.09
		C513.78,250.19,514.53,249.62,515.36,249.88z"/>
	<path style="fill-rule:evenodd;clip-rule:evenodd;fill:#0D0A07;" d="M506.59,250.62c0.53,0.17,1.23,0.07,1.39,0.88
		c0.07,0.37,0.46,0.82,0.01,1.08c-0.39,0.23-0.59-0.27-0.81-0.52c-0.2-0.23-0.42-0.4-0.72-0.28c-0.45,0.18-0.1,0.44-0.04,0.67
		c0.07,0.26,0.21,0.58-0.15,0.72c-0.34,0.13-0.64-0.05-0.81-0.34c-0.28-0.48-0.59-1.04-0.35-1.57
		C505.37,250.69,506.04,250.74,506.59,250.62z"/>
	<path style="fill-rule:evenodd;clip-rule:evenodd;fill:#100C08;" d="M499.65,239.84c-0.3,0-0.5,0.03-0.7-0.01
		c-0.47-0.09-1.28,0.3-1.35-0.25c-0.07-0.58,0.74-0.68,1.28-0.81c1-0.23,1.98-0.14,2.97,0.07c0.17,0.04,0.43,0.13,0.47,0.25
		c0.09,0.29-0.19,0.38-0.41,0.48C501.16,239.92,500.35,239.8,499.65,239.84z"/>
	<path style="fill-rule:evenodd;clip-rule:evenodd;fill:#1A130E;" d="M516.99,239.12c-0.66-0.07-1.34-0.12-2.01-0.22
		c-0.34-0.05-0.79-0.08-0.72-0.6c0.06-0.44,0.45-0.36,0.76-0.36c0.64-0.01,1.28-0.03,1.91-0.01c0.63,0.02,1.53,0.02,1.49,0.79
		C518.39,239.39,517.5,238.98,516.99,239.12z"/>
	<path style="fill-rule:evenodd;clip-rule:evenodd;fill:#835E4A;" d="M493.31,245.1c0.03,0.03,0.05,0.06,0.08,0.09
		c-0.06,0.03-0.12,0.06-0.18,0.08c-0.01,0-0.05-0.05-0.07-0.08C493.19,245.16,493.25,245.13,493.31,245.1z"/>
	<path style="fill-rule:evenodd;clip-rule:evenodd;fill:#DC9776;" d="M515.88,254.7c-0.09,0.06-0.18,0.11-0.27,0.17
		C515.69,254.82,515.79,254.76,515.88,254.7z"/>
	<path style="fill-rule:evenodd;clip-rule:evenodd;fill:#6A696F;" d="M435.21,307.47c-0.02,0.03-0.04,0.06-0.05,0.1
		C435.18,307.53,435.19,307.5,435.21,307.47L435.21,307.47z"/>
	<path style="fill-rule:evenodd;clip-rule:evenodd;fill:#828188;" d="M428.94,316.12c-3.36,0-5.35-1.87-5.28-4.91
		c0.02-0.96,0.52-1.58,1.17-2.12c2.11-1.73,4.5-2.34,7.12-1.42c2,0.71,2.89,2.93,2.13,4.92
		C433.37,314.46,431.31,316.39,428.94,316.12z"/>
	<path style="fill-rule:evenodd;clip-rule:evenodd;fill:#FDFDFD;" d="M520.59,245.63c0.08,1.66-1.09,2.3-2.37,2.76
		c-1.4,0.51-2.76,0.32-3.96-0.63c-0.4-0.32-0.01-0.42,0.16-0.62c1.03-1.19,0.7-2.19-0.86-2.63c-0.58-0.17-0.08-0.42-0.03-0.54
		c0.64-1.5,2.42-2.3,4.18-1.92C519.57,242.46,520.61,243.75,520.59,245.63z"/>
	<path style="fill-rule:evenodd;clip-rule:evenodd;fill:#AAA8AF;" d="M429.83,307.96c2.71-0.12,3.82,1.57,3.86,3.29
		c0.05,2.31-2.39,4.37-4.97,4.36c-2.33-0.01-4.14-1.81-4.37-3.86C424.09,309.57,427.33,307.87,429.83,307.96z"/>
	<path style="fill-rule:evenodd;clip-rule:evenodd;fill:#D3D1D7;" d="M428.72,314.66c-0.88,0.14-1.63-0.09-2.31-0.55
		c-1.65-1.12-1.78-3.04-0.21-4.19c1.31-0.96,2.86-1.47,4.49-1.07c2.12,0.52,2.77,2.55,1.39,4.24
		C431.22,314.16,430.17,314.91,428.72,314.66z"/>
</g>
</svg>
