<?xml version="1.0" encoding="utf-8"?>
<!-- Generator: Adobe Illustrator 16.0.0, SVG Export Plug-In . SVG Version: 6.00 Build 0)  -->
<!DOCTYPE svg PUBLIC "-//W3C//DTD SVG 1.0//EN" "http://www.w3.org/TR/2001/REC-SVG-20010904/DTD/svg10.dtd" [
	<!ENTITY ns_flows "http://ns.adobe.com/Flows/1.0/">
	<!ENTITY ns_extend "http://ns.adobe.com/Extensibility/1.0/">
	<!ENTITY ns_ai "http://ns.adobe.com/AdobeIllustrator/10.0/">
	<!ENTITY ns_graphs "http://ns.adobe.com/Graphs/1.0/">
]>
<svg version="1.0" id="Layer_1" xmlns:x="&ns_extend;" xmlns:i="&ns_ai;" xmlns:graph="&ns_graphs;"
	 xmlns="http://www.w3.org/2000/svg" xmlns:xlink="http://www.w3.org/1999/xlink" xmlns:a="http://ns.adobe.com/AdobeSVGViewerExtensions/3.0/"
	 x="0px" y="0px" width="960px" height="560px" viewBox="0 0 960 560" style="enable-background:new 0 0 960 560;"
	 xml:space="preserve">
<g>
	<path style="fill-rule:evenodd;clip-rule:evenodd;fill:#232321;" d="M473.01,281.22c0.65-0.19,1.29-0.4,1.95-0.55
		c0.37-0.09,0.66-0.13,0.72-0.62c0.08-0.58-0.34-0.55-0.66-0.63c-1.15-0.32-2.33-0.58-3.38-1.18c-0.45-0.26-0.97-0.56-0.93-1.15
		c0.04-0.58,0.55-0.9,1.06-1.01c0.84-0.18,0.79-0.58,0.58-1.28c-0.95-3.08-2.55-5.85-4.03-8.67c-1.04-1.98-2.02-3.98-2.77-6.1
		c-0.26-0.73-0.18-1.06,0.66-1.16c2.31-0.29,4.62-0.37,6.94-0.36c0.55,0,0.76,0.23,0.94,0.69c1.17,3.03,2.92,5.76,4.43,8.61
		c0.39,0.74,0.58,0.51,0.86-0.04c1.46-2.79,2.95-5.57,4.39-8.38c0.34-0.65,0.74-0.93,1.48-0.9c2.16,0.08,4.31,0.12,6.47,0.15
		c1.16,0.02,1.32,0.44,1.01,1.56c-1.45,5.26-4.46,9.8-6.67,14.71c-0.15,0.34-0.44,0.61-0.05,1.05c0.87,0.98,0.36,1.72-0.59,2.19
		c-0.82,0.4-1.71,0.63-2.57,0.95c-0.21,0.08-0.41,0.2-0.61,0.31c0.15,0.18,0.29,0.38,0.46,0.53c0.58,0.52,1.4,0.23,2.04,0.57
		c0.02,0.27-0.17,0.37-0.37,0.46c-1.29,0.17-2.58,0.4-3.89,0.36c-1.91-0.05-3.8,0.09-5.66,0.51c-0.51,0.11-1.02,0.15-1.51-0.1
		C473.14,281.62,472.97,281.48,473.01,281.22z"/>
	<path style="fill-rule:evenodd;clip-rule:evenodd;fill:#232322;" d="M484.44,280.76c0.1-0.08,0.21-0.17,0.31-0.25
		c2.91,0.46,5.59,1.53,7.71,3.56c3.11,2.98,4.19,6.73,3.47,10.97c-0.38,2.2-1.56,3.92-3.41,5.15c-4.58,3.03-9.67,4.09-15.06,3.66
		c-3.32-0.26-6.57-0.96-9.14-3.29c-2.74-2.48-4.59-5.52-4.87-9.28c-0.25-3.3,2.61-7.22,6.14-8.7c0.62-0.26,1.26-0.49,1.89-0.73
		c0.24-0.1,0.34,0.02,0.38,0.24c-0.2,0.44-0.64,0.58-1.02,0.78c-1.38,0.73-2.61,1.68-3.78,2.7c-2.5,2.2-2.52,4.96-1.72,7.88
		c0.83,3.14,2.83,5.02,5.86,6.23c3.08,1.23,6.16,1.79,9.43,1.55c4.15-0.13,7.93-1.33,11.09-4.11c2.48-2.18,2.9-5.06,2.33-8.11
		c-0.48-2.56-1.95-4.49-4.3-5.73c-1.45-0.77-2.87-1.57-4.48-1.97C484.93,281.24,484.54,281.21,484.44,280.76z"/>
	<path style="fill-rule:evenodd;clip-rule:evenodd;fill:#494848;" d="M471.79,282.08c-0.1-0.07-0.2-0.14-0.3-0.22
		c0.45-0.36,0.97-0.54,1.52-0.64c0.09,0.08,0.18,0.16,0.27,0.24C472.97,282.14,472.48,282.36,471.79,282.08z"/>
	<path style="fill-rule:evenodd;clip-rule:evenodd;fill:#E0DFD9;" d="M471.79,282.08c0.5-0.21,0.99-0.41,1.49-0.62
		c1.12,0.49,2.12-0.29,3.2-0.31c2.66-0.06,5.31-0.25,7.96-0.39c1.93,0.38,3.64,1.25,5.36,2.16c4.46,2.34,5.87,7.27,4.05,11.98
		c-0.26,0.67-0.64,1.28-1.16,1.78c-3.34,3.25-7.39,4.78-12.01,4.88c0.05-0.63,0.6-0.67,1.02-0.83c0.56-0.22,1.12-0.42,1.52-0.9
		c0.44-0.26,0.86-0.54,1.3-0.8c1.25-0.36,2.38-1,3.5-1.64c0.52-0.15,0.97-0.39,1.22-0.91c1.68-1.09,2.67-2.6,2.79-4.63
		c0.25-0.5,0.59-0.98,0.5-1.6c0.22-1.34-0.39-2.36-1.25-3.29c-0.27-0.29-0.62-0.49-0.82-0.84c-0.16-0.78-0.85-0.41-1.29-0.59
		c-0.95-0.68-2.05-1.01-3.14-1.38c-0.48-0.16-1-0.27-1.35-0.69c-0.45-1.25-0.95-0.49-1.45-0.04c-1.48-0.45-2.94-1-4.51-0.49
		c-0.59,0.14-1.23-0.15-1.8,0.17c-1.35,0.12-2.66,0.38-3.92,0.87c-0.64,0.03-1.31-0.07-1.79,0.52c-1.27,0.67-2.34,1.56-3.14,2.77
		c-0.56-0.24-0.97-0.02-1.33,0.43c-1.1,1.25-1.23,2.78-1.29,4.34c-0.02,0.5,0.17,1.04-0.36,1.41c-1.29-3.53-0.54-6.25,2.31-8.58
		C468.75,283.76,470.16,282.77,471.79,282.08z"/>
	<path style="fill-rule:evenodd;clip-rule:evenodd;fill:#2A9548;" d="M469.73,259.14c0.78-0.2,1.13,0.22,1.44,0.88
		c2.41,5.07,4.85,10.13,7.27,15.2c0.1,0.21,0.48,0.58,0.01,0.64c-0.71,0.1-1.32,1.1-2.15,0.23c-0.62-0.66-1.01-1.44-1.31-2.26
		c-1.71-4.6-3.84-9-6.17-13.31C468.34,259.64,468.32,258.87,469.73,259.14z"/>
	<path style="fill-rule:evenodd;clip-rule:evenodd;fill:#2A9548;" d="M488.46,258.9c0.45,0.22,1.56-0.36,0.91,1.23
		c-1.9,4.59-4.57,8.76-6.91,13.11c-0.14,0.25-0.4,0.91-0.82,0.46c-0.54-0.58-1.2-1.42-0.69-2.19c1.82-2.75,3.03-5.77,4.29-8.79
		c0.53-1.27,1.35-2.34,2.18-3.41C487.68,258.96,487.99,258.9,488.46,258.9z"/>
	<path style="fill-rule:evenodd;clip-rule:evenodd;fill:#C2131F;" d="M490.07,259.81c0.26-0.66,0.73-0.82,1.34-0.5
		c0.62,0.33,0.37,0.85,0.25,1.35c-1.15,5.19-4.38,9.43-6.48,14.19c-0.44,1-1.53,0.71-2.2,0.54c-0.89-0.23-0.42-0.94-0.07-1.5
		c2.75-4.44,5.3-8.98,7.34-13.8C490.2,260,490.12,259.92,490.07,259.81z"/>
	<path style="fill-rule:evenodd;clip-rule:evenodd;fill:#C2131F;" d="M472.64,259.12c0.39-0.01,0.72-0.01,0.9,0.43
		c1.98,4.8,4.84,9.15,6.98,13.87c0.13,0.29,0.76,0.75,0.01,1.04c-0.59,0.23-1.27,0.65-1.72-0.3c-2.26-4.75-4.53-9.49-6.82-14.22
		C471.58,259.07,472.1,259.1,472.64,259.12z"/>
	<path style="fill-rule:evenodd;clip-rule:evenodd;fill:#FDFDFD;" d="M474.85,275.71c0,0.6-0.09,0.74-0.48,0.51
		c-0.44-0.25-0.73-0.62-0.91-1.07c-1.78-4.46-4.11-8.65-6.26-12.93c-0.31-0.62-0.78-1.31-0.66-2.12c0.03-0.24-0.48-0.5-0.07-0.69
		c0.31-0.15,0.72-0.11,0.96,0.26c0.26,0.4,0.56,0.78,0.76,1.2c2.21,4.78,4.88,9.35,6.5,14.4
		C474.76,275.49,474.85,275.7,474.85,275.71z"/>
	<path style="fill-rule:evenodd;clip-rule:evenodd;fill:#FDFDFD;" d="M486.36,259.35c-0.06,0.09-0.12,0.2-0.19,0.29
		c-1.84,2.27-2.55,5.09-3.78,7.66c-0.46,0.96-1,1.9-1.56,2.81c-0.15,0.24-0.35,0.89-0.65,0.58c-0.34-0.35-0.86-0.92-0.56-1.51
		c1.57-3.1,3.22-6.17,4.76-9.28c0.41-0.82,1-0.77,1.67-0.77C486.2,259.13,486.38,259.1,486.36,259.35z"/>
	<path style="fill-rule:evenodd;clip-rule:evenodd;fill:#FCFCFC;" d="M479.18,277.48c-0.88,0.03-1.68,0.27-2.42,0.67
		c-1.49,0.79-3.66,0.53-4.86-0.65c-0.16-0.16-0.43-0.28-0.24-0.57c0.23-0.35,0.64-0.46,0.95-0.27c2.26,1.35,4.64,0.18,6.96,0.37
		c1.32,0.11,2.64-0.42,4-0.19c0.25,0.04,0.62-0.18,0.83-0.39c0.36-0.35,0.69-0.46,0.96,0.02c0.21,0.37,0.41,0.92-0.19,1.08
		c-1.55,0.42-3.05,2.01-4.76,0.25C480.17,277.53,479.6,277.58,479.18,277.48z"/>
	<path style="fill-rule:evenodd;clip-rule:evenodd;fill:#F6F6F6;" d="M479.21,279.44c0.86,0.17,1.77-0.28,2.36,0.59
		c-0.65,0.38-1.37,0.13-2.05,0.21c-0.79,0.09-1.58,0.16-2.37,0.23c-0.24,0.02-0.48,0.02-0.52-0.32c-0.04-0.33,0.15-0.4,0.42-0.44
		C477.79,279.63,478.54,279.53,479.21,279.44z"/>
	<path style="fill-rule:evenodd;clip-rule:evenodd;fill:#BE1721;" d="M480.54,275.26c0.83-0.19,1.47-0.02,1.6,0.64
		c0.1,0.49-0.53,0.28-0.81,0.29c-0.66,0.01-1.57,0.06-1.69-0.71C479.56,274.9,480.37,275.41,480.54,275.26z"/>
	<path style="fill-rule:evenodd;clip-rule:evenodd;fill:#F1F1F1;" d="M477.57,278.58c0.04-0.01,0.08-0.02,0.11-0.04
		c0.79-0.34,1.61-0.39,2.39-0.05c0.34,0.15,0.24,0.28-0.57,0.31c-0.47,0.02-0.95,0.03-1.42,0.05
		C477.85,278.9,477.56,279.04,477.57,278.58z"/>
	<path style="fill-rule:evenodd;clip-rule:evenodd;fill:#B3B3B3;" d="M477.57,278.58c0.17,0.09,0.34,0.18,0.52,0.26
		c-0.27,0.19-0.58,0.32-0.85,0.09C477.15,278.85,477.32,278.58,477.57,278.58z"/>
	<path style="fill-rule:evenodd;clip-rule:evenodd;fill:#955D50;" d="M490.07,259.81c0.06,0.1,0.12,0.19,0.18,0.29
		C490.19,260.01,490.13,259.91,490.07,259.81z"/>
	<path style="fill-rule:evenodd;clip-rule:evenodd;fill:#E3E3DE;" d="M465.08,293.45c0.06-1.47-0.11-2.98,0.48-4.39
		c0.26-0.62,0.3-1.43,1.17-1.62c0.1,0.03,0.19,0.07,0.28,0.13c0.13,0.1,0.24,0.21,0.34,0.34c0.05,0.1,0.08,0.21,0.1,0.32
		c-0.17,1.21-0.83,2.35-0.5,3.62c-0.08,0.43-0.01,0.81,0.35,1.11c-0.3,1.84,0.59,3.1,2,4.11c0.13,0.19,0.29,0.19,0.47,0.06
		c0.17-0.03,0.33-0.01,0.48,0.06c1.52,1.18,3.18,2.04,5.15,2.17c0.3,0.23,0.56,0.53,0.92,0.68c2.23,0.87,4.31,0.29,6.35-0.63
		c0.11-0.06,0.23-0.08,0.35-0.06c0.26,0.13,0.31,0.35,0.3,0.61c-0.42,1.29-1.92,0.79-2.63,1.6c-4.39,0.7-8.32-0.76-12.07-2.75
		C466.56,297.73,465.46,295.77,465.08,293.45z"/>
	<path style="fill-rule:evenodd;clip-rule:evenodd;fill:#90948D;" d="M479.77,303.53c-4.17-0.31-8.21-0.89-11.45-3.83
		c-0.22-0.2-0.75-0.32-0.59-0.61c0.14-0.24,0.53,0.13,0.78,0.27c3.59,1.97,7.38,3.23,11.52,2.92c4.7-0.36,9.24-1.27,12.78-4.79
		c1.04-1.03,1.71-2.28,2.19-3.65c0.05-0.14,0.13-0.27,0.2-0.41c0.05,0.16,0.15,0.33,0.13,0.49c-0.23,2.55-1.56,4.48-3.55,5.96
		C488.2,302.53,484.01,303.19,479.77,303.53z"/>
	<path style="fill-rule:evenodd;clip-rule:evenodd;fill:#EBEAE7;" d="M466.77,292.04c-0.74-1.47,0.28-2.73,0.47-4.09
		c0.07-0.43,0.32-0.68,0.76-0.74c0.4-1.65,1.83-2.21,3.12-2.92c0.05,0,0.09,0,0.14,0.01c0.14-0.02,0.28-0.03,0.43-0.04
		c0.38-0.08,0.75-0.2,1.07-0.41c1.33-0.78,2.78-1,4.29-0.96c0.31,0.15,0.41,0.41,0.41,0.73c-0.15,0.55-0.63,0.66-1.09,0.78
		c-0.72,0.2-1.44,0.42-2.14,0.68c-0.75,0.28-1.3,0.59-0.79,1.5c-0.27,0.21-0.6,0.2-0.92,0.22c-3.18,0.19-4.27,1.61-3.58,4.65
		c-0.29,1.8,0.09,3.39,1.46,4.68c0.02,0.41-0.38,0.51-0.56,0.76c-0.16,0.14-0.31,0.3-0.51,0.38c-1.65-0.43-3-3.18-2.09-4.26
		C467.29,292.59,467.05,292.3,466.77,292.04z"/>
	<path style="fill-rule:evenodd;clip-rule:evenodd;fill:#EDEDEB;" d="M483.04,299.44c-0.07,0-0.13,0-0.2,0
		c-1.72,0.96-3.58,1.13-5.5,0.95c-0.29-0.03-0.54-0.14-0.65-0.44c-0.03-0.13-0.03-0.27,0.01-0.4c0.05-0.12,0.14-0.22,0.25-0.28
		c2.03-0.11,4.07-0.24,5.97-1.07c2.11-0.92,4.39-1.6,5.82-3.63c0.74-1.05,1.29-2.14,0.57-3.44c0-0.82,0.84-1.21,1-1.96
		c0.2-0.35,0.08-1,0.6-1.03c0.59-0.04,0.78,0.54,0.97,1.02c0.14,0.36,0.27,0.73,0.31,1.11c0.02,0.31-0.08,0.6-0.12,0.9
		c0,0.13,0.02,0.25,0.06,0.37c0.03,0.08,0.05,0.16,0.07,0.24c0.38,1.74-1.12,4.19-2.92,4.78c-0.34,0.36-0.77,0.58-1.14,0.9
		c-1.02,0.94-2.2,1.57-3.6,1.71c-0.25,0-0.48-0.09-0.72-0.13c-0.08,0.01-0.17,0.02-0.25,0.04c-0.04,0.02-0.07,0.04-0.11,0.06
		c-0.06,0.06-0.13,0.11-0.19,0.16C483.2,299.39,483.12,299.43,483.04,299.44z"/>
	<path style="fill-rule:evenodd;clip-rule:evenodd;fill:#E7E7E3;" d="M491.96,290.55c-0.11-0.38-0.2-0.77-0.34-1.13
		c-0.15-0.39-0.15-1.03-0.65-1.02c-0.44,0.01-0.01,0.73-0.4,0.96c-0.62-0.49-0.33-1.32-0.77-1.94c-1.11-1.56-2.59-2.12-4.42-2.02
		c-1.77-0.88-3.64-1.36-5.62-1.47c-0.52-0.03-1.04-0.05-1.45-0.44c-0.2-0.3-0.06-0.48,0.21-0.63c0.06-0.41,0.34-0.47,0.69-0.47
		c1.45,0.01,2.9-0.04,4.12,0.96c0.45-0.15,0.91-0.25,1.37-0.02c1.23,0.45,2.47,0.89,3.69,1.38c0.38,0.15,0.88,0.25,0.93,0.81
		c0.34,0.34,0.85,0.24,1.22,0.49c1.95,1.36,2.7,2.89,2.12,4.33C492.47,290.55,492.27,290.74,491.96,290.55z"/>
	<path style="fill-rule:evenodd;clip-rule:evenodd;fill:#2F2F2E;" d="M484.7,283.33c-0.45,0.14-0.91,0.4-1.37,0.02
		c-0.31-0.87,0.35-1.06,0.9-1.07C484.93,282.28,484.79,282.86,484.7,283.33z"/>
	<path style="fill-rule:evenodd;clip-rule:evenodd;fill:#2A2A29;" d="M483.04,299.44c0.04-0.07,0.05-0.15,0.05-0.23
		c0.08-0.08,0.16-0.16,0.23-0.25l0,0c0.09-0.08,0.18-0.16,0.29-0.22c0.39,0,0.81-0.08,0.93,0.46c-0.28,0.46-0.63,0.81-1.22,0.77
		C483.05,299.88,483.09,299.63,483.04,299.44z"/>
	<path style="fill-rule:evenodd;clip-rule:evenodd;fill:#292928;" d="M491.96,290.55c0.23-0.07,0.47-0.15,0.7-0.22
		c0.51,0.7,0.17,1.13-0.46,1.47c-0.08-0.01-0.17-0.02-0.25-0.03c-0.06-0.09-0.14-0.16-0.23-0.22
		C491.65,291.17,491.71,290.84,491.96,290.55z"/>
	<path style="fill-rule:evenodd;clip-rule:evenodd;fill:#282827;" d="M490.54,286c-0.6,0.32-1.12,0.45-1.22-0.49
		c0.36-0.23,0.64-0.69,1.2-0.29C490.92,285.52,490.63,285.75,490.54,286z"/>
	<path style="fill-rule:evenodd;clip-rule:evenodd;fill:#282827;" d="M472.76,283.84c-0.16,0.87-0.82,0.73-1.42,0.71
		c-0.09-0.08-0.18-0.16-0.23-0.28l0.01,0.01C471.5,283.54,472.02,283.3,472.76,283.84z"/>
	<path style="fill-rule:evenodd;clip-rule:evenodd;fill:#2C2C2B;" d="M468,287.2c-0.25,0.25-0.5,0.5-0.76,0.74l-0.11-0.03
		l-0.12,0.01c-0.08-0.08-0.17-0.16-0.25-0.25c0.02-0.08,0.01-0.16-0.04-0.23c0.03-0.44,0.19-0.74,0.69-0.75
		C467.75,286.69,468.03,286.77,468,287.2z"/>
	<path style="fill-rule:evenodd;clip-rule:evenodd;fill:#333332;" d="M478.52,282.87c-0.07,0.17-0.15,0.33-0.22,0.49
		c-0.25,0.41-0.56,0.57-0.96,0.18c-0.1-0.22-0.19-0.45-0.29-0.67C477.54,282.16,478.03,282.66,478.52,282.87z"/>
	<path style="fill-rule:evenodd;clip-rule:evenodd;fill:#2A2A29;" d="M488.14,297.48c0.01-0.76,0.48-0.96,1.14-0.9
		C489.53,297.68,488.79,297.52,488.14,297.48z"/>
	<path style="fill-rule:evenodd;clip-rule:evenodd;fill:#F1F1F0;" d="M470.36,296.26c-1.56-0.87-2.21-2.79-1.65-4.83
		c0.21-0.03,0.38,0.07,0.54,0.18c0.08,0.05,0.16,0.11,0.24,0.17c0.04,0.02,0.08,0.05,0.13,0.07c0.14,0.06,0.28,0.11,0.43,0.16
		c0.41,0.15,0.85,0.19,1.25,0.35c0.34,0.14,0.72,0.33,0.67,0.72c-0.13,1.16,0.51,2.01,1.1,2.88c0.13,1.32,1.23,1.67,2.16,2.21
		c0.4,0.23,1.07,0.11,1.15,0.8c-0.28,0.3-0.66,0.38-1.04,0.46c-2.18,0.36-3.74-0.79-5.24-2.11
		C470.23,296.98,470.38,296.64,470.36,296.26z"/>
	<path style="fill-rule:evenodd;clip-rule:evenodd;fill:#EBEBE8;" d="M476.84,299.67c0.93,1,2.1,0.43,3.15,0.4
		c0.96-0.03,1.9-0.41,2.85-0.63c-0.32,1-1.31,0.83-1.99,0.96c-1.56,0.32-3.2,0.93-4.73-0.21c0.02-0.08,0.05-0.16,0.11-0.22
		c0.08-0.09,0.17-0.18,0.27-0.27C476.6,299.64,476.71,299.56,476.84,299.67z"/>
	<path style="fill-rule:evenodd;clip-rule:evenodd;fill:#282727;" d="M476.35,300.16c-0.08-0.01-0.16,0.01-0.23,0.04
		c-0.55,0.04-0.77-0.24-0.76-0.76c0.08-0.65,0.58-0.5,0.99-0.53c0.18-0.12,0.35-0.1,0.52,0.01c0.11,0.17,0.11,0.35,0,0.52
		c-0.04,0.07-0.06,0.15-0.04,0.23c-0.08,0.09-0.15,0.18-0.23,0.28C476.51,300.01,476.43,300.08,476.35,300.16z"/>
	<path style="fill-rule:evenodd;clip-rule:evenodd;fill:#272726;" d="M466.77,292.04c0.32,0.02,0.74-0.25,0.93,0.16
		c0.18,0.39-0.15,0.63-0.46,0.82c-0.3-0.03-0.7,0.12-0.87-0.2C466.18,292.46,466.67,292.32,466.77,292.04z"/>
	<path style="fill-rule:evenodd;clip-rule:evenodd;fill:#2B2B2A;" d="M470.36,296.26c0.93,0.58,0.31,0.81-0.24,1.06
		c-0.16-0.01-0.32-0.02-0.48-0.02c-0.14-0.17-0.13-0.35-0.04-0.53C469.6,296.22,470,296.27,470.36,296.26z"/>
	<path style="fill-rule:evenodd;clip-rule:evenodd;fill:#7C7C7B;" d="M469.6,296.77c0.01,0.18,0.03,0.36,0.04,0.53
		c-0.12,0.21-0.21,0.08-0.31-0.02C469.42,297.11,469.51,296.94,469.6,296.77z"/>
	<path style="fill-rule:evenodd;clip-rule:evenodd;fill:#E0DFD9;" d="M466.76,287.67c0.08,0.08,0.16,0.17,0.25,0.25
		C466.93,287.83,466.84,287.75,466.76,287.67z"/>
	<path style="fill-rule:evenodd;clip-rule:evenodd;fill:#232322;" d="M469.17,291.84c-0.15-0.14-0.3-0.27-0.45-0.41
		c-1.1-2.43,0.38-4.74,3.21-4.98c0.51-0.04,1.03-0.01,1.55-0.02c0.13-0.11,0.3-0.22,0.43-0.15c1.31,0.71,2.39-0.05,3.6-0.4
		c1.67-0.47,3.47-1.12,5.15,0.17c0.39,0.3,0.83,0.2,1.2-0.13c0.46-0.41,0.97-0.7,1.62-0.64c2.69-0.59,5.13,1.37,5.09,4.08
		c-0.22,0.7-0.7,1.21-1.22,1.69c-0.02,0.06-0.04,0.12-0.06,0.18c-0.07,0.11-0.16,0.19-0.27,0.26c-0.77,0.24-1.2,0.69-1.42,1.55
		c-0.57,2.25-3.78,3.77-6.04,2.79c-1.16-0.5-1.98-0.44-3.05,0.2c-1.44,0.87-3.11,0.91-4.76,0.55c-0.18-0.04-0.35-0.12-0.5-0.22
		c-0.1-0.08-0.17-0.17-0.22-0.29c-0.93-0.7-1.51-1.57-1.24-2.79c0.08-0.37,0.07-0.55-0.39-0.62c-0.58-0.08-1.14-0.29-1.7-0.45
		c-0.11-0.05-0.2-0.14-0.29-0.21l-0.02-0.01C469.33,291.92,469.26,291.87,469.17,291.84z"/>
	<path style="fill-rule:evenodd;clip-rule:evenodd;fill:#F3F3F3;" d="M485.48,285.29c-0.49,0.48-1.29,0.48-1.66,1.21
		c-0.18,0.37-0.71,0.38-1.05,0.06c-1.73-1.63-3.74-0.88-5.4-0.21c-1.43,0.57-2.57,0.81-3.9,0.09c-0.26-0.4-1.04,0.06-1.05-0.49
		c0-0.47,0.65-0.62,1.03-0.87c1.19-0.77,2.74-0.64,3.89-1.52c0.36,0.12,0.66-0.03,0.96-0.18c2.02,0.31,4.08,0.4,6.02,1.17
		C484.77,284.71,485.25,284.8,485.48,285.29z"/>
	<path style="fill-rule:evenodd;clip-rule:evenodd;fill:#E0DFD9;" d="M471.11,284.27c0.08,0.09,0.15,0.19,0.23,0.28
		C471.26,284.46,471.18,284.37,471.11,284.27z"/>
	<path style="fill-rule:evenodd;clip-rule:evenodd;fill:#F7F7F7;" d="M473.56,296.29c2.22,0.29,4.38,0.29,6.09-1.5
		c0.35-0.36,0.53-0.04,0.78,0.15c2.69,1.98,6.43,0.45,6.97-2.83c0.16-0.97,1.11-0.5,1.61-0.85c0.12-0.04,0.22-0.12,0.31-0.2
		l0.02-0.01c1.02,0.8,0.86,2.35-0.38,3.82c-2.13,2.53-5.14,3.44-8.14,4.31c-1.21,0.35-2.47,0.44-3.74,0.25
		c-0.16-0.12-0.09-0.37-0.29-0.46c-0.15-0.02-0.29-0.05-0.44-0.07c-1.29-0.41-2.52-0.92-3.39-2.03c-0.21-0.27-0.77-0.59,0.06-0.8
		c0.08,0.02,0.15,0.04,0.23,0.06C473.35,296.19,473.44,296.27,473.56,296.29z"/>
	<path style="fill-rule:evenodd;clip-rule:evenodd;fill:#EBEBE8;" d="M476.8,298.98c0.1,0.15,0.19,0.31,0.29,0.46
		c-0.07,0-0.14,0-0.2,0C476.85,299.29,476.82,299.13,476.8,298.98z"/>
	<path style="fill-rule:evenodd;clip-rule:evenodd;fill:#EBEBE8;" d="M483.61,298.74c-0.1,0.07-0.19,0.14-0.29,0.22
		C483.41,298.88,483.51,298.81,483.61,298.74z"/>
	<path style="fill-rule:evenodd;clip-rule:evenodd;fill:#E0DFD9;" d="M491.71,291.54c0.08,0.07,0.15,0.15,0.23,0.22
		C491.87,291.69,491.79,291.62,491.71,291.54z"/>
	<path style="fill-rule:evenodd;clip-rule:evenodd;fill:#EBEBE8;" d="M483.31,298.96c-0.08,0.08-0.15,0.17-0.23,0.25
		C483.16,299.13,483.24,299.04,483.31,298.96z"/>
	<path style="fill-rule:evenodd;clip-rule:evenodd;fill:#EBEAE7;" d="M469.17,291.84c0.07,0.05,0.14,0.11,0.21,0.17
		C469.31,291.95,469.24,291.9,469.17,291.84z"/>
	<path style="fill-rule:evenodd;clip-rule:evenodd;fill:#EBEAE7;" d="M469.39,292.02c0.1,0.07,0.2,0.14,0.29,0.21
		C469.59,292.15,469.49,292.08,469.39,292.02z"/>
	<path style="fill-rule:evenodd;clip-rule:evenodd;fill:#E3E3DE;" d="M476.35,300.16c0.09-0.07,0.17-0.14,0.26-0.21
		C476.52,300.02,476.43,300.09,476.35,300.16z"/>
	<path style="fill-rule:evenodd;clip-rule:evenodd;fill:#F8F8F8;" d="M480.11,285.99c0.65,0.2,1.24,0.31,1.77,0.57
		c0.43,0.21,1.2,0.57,0.89,1.06c-0.47,0.75,0.56,2.15-1.07,2.34c-0.29,0.03-0.63,0.24-0.81,0.47c-0.97,1.3-1.98,1.08-3.2,0.32
		c-0.57-0.36-0.94-0.6-0.86-1.32c0.03-0.29-0.06-0.66-0.23-0.9c-1-1.35,0.02-1.67,0.99-1.78
		C478.52,286.65,479.32,286.25,480.11,285.99z"/>
	<path style="fill-rule:evenodd;clip-rule:evenodd;fill:#F3F3F2;" d="M472.55,286.98c0.18,0.02,0.53,0.06,0.89,0.11
		c1.02,0.12,1.67,0.25,1.33,1.71c-0.28,1.17,0.05,2.29-1.48,2.96c-1.31,0.58-2.37,0.52-3.42-0.23c-0.89-0.64-0.96-1.68-0.61-2.61
		c0.47-1.26,1.47-1.95,2.87-1.93C472.21,286.98,472.29,286.98,472.55,286.98z"/>
	<path style="fill-rule:evenodd;clip-rule:evenodd;fill:#F6F6F6;" d="M487.16,285.9c1.19,0,2.56,1.45,2.61,2.81
		c0.05,1.44-0.79,2.12-2.13,2.4c-0.47,0.1-0.74,0-1.04-0.32c-0.24-0.26-0.54-0.63-0.83-0.65c-1.92-0.12-2.1-1.61-1.75-2.79
		C484.41,286.08,485.89,285.94,487.16,285.9z"/>
	<path style="fill-rule:evenodd;clip-rule:evenodd;fill:#F7F7F7;" d="M475.65,295.86c-0.87,0.07-1.79-0.15-2.61-0.7
		c-0.5-0.33-0.78-0.8-0.68-1.43c0.11-0.65,0.54-0.89,1.13-1.2c1.67-0.85,3.32-0.23,4.98-0.19c0.88,0.02,1.15,1.32,0.49,2.24
		C478.18,295.68,477.01,295.89,475.65,295.86z"/>
	<path style="fill-rule:evenodd;clip-rule:evenodd;fill:#F7F8F8;" d="M482.63,295.18c-0.64,0.11-1.21-0.14-1.72-0.67
		c-1.31-1.34-1.26-1.77,0.4-2.5c0.29-0.13,0.6-0.23,0.85-0.42c0.86-0.63,1.7-0.92,2.63-0.11c0.19,0.17,0.51,0.21,0.78,0.26
		c1.2,0.24,1.48,0.9,0.73,1.91C485.41,294.84,484.14,295.21,482.63,295.18z"/>
	<path style="fill-rule:evenodd;clip-rule:evenodd;fill:#E9E9E9;" d="M476.11,289.57c-0.01,0.07,0.11,0.44-0.27,0.5
		c-0.37,0.06-0.46-0.26-0.43-0.55c0.03-0.37,0.03-0.83,0.42-0.96C475.94,288.51,476.16,289.04,476.11,289.57z"/>
	<path style="fill-rule:evenodd;clip-rule:evenodd;fill:#E0E0E0;" d="M481.15,291.03c0.03-0.03,0.05-0.06,0.08-0.08
		c0.4-0.28,0.78-0.64,1.33-0.53c-0.22,0.5-0.69,0.68-1.15,0.88C481.17,291.38,481.1,291.27,481.15,291.03z"/>
	<path style="fill-rule:evenodd;clip-rule:evenodd;fill:#DFDFDF;" d="M484.51,290.57c0.43-0.03,0.86-0.09,1.17,0.31
		c0.02,0.02-0.05,0.16-0.08,0.16c-0.43,0.01-0.82-0.09-1.06-0.49L484.51,290.57z"/>
	<path style="fill-rule:evenodd;clip-rule:evenodd;fill:#A7A6A6;" d="M481.15,291.03c0.09,0.09,0.18,0.18,0.27,0.27
		c-0.16,0.16-0.37,0.38-0.55,0.17C480.68,291.24,480.97,291.13,481.15,291.03z"/>
	<path style="fill-rule:evenodd;clip-rule:evenodd;fill:#F1F1F0;" d="M473.56,296.29c-0.11-0.05-0.21-0.11-0.32-0.16
		C473.35,296.18,473.46,296.23,473.56,296.29z"/>
	<path style="fill-rule:evenodd;clip-rule:evenodd;fill:#EDEDEB;" d="M489.33,291.06c-0.1,0.07-0.21,0.13-0.31,0.2
		C489.12,291.19,489.22,291.12,489.33,291.06z"/>
	<path style="fill-rule:evenodd;clip-rule:evenodd;fill:#D5D5D5;" d="M477.63,291.35c0.03,0,0.06-0.01,0.08,0.01
		c0.02,0.01,0.03,0.05,0.04,0.07c-0.05,0-0.1-0.01-0.16-0.01C477.61,291.39,477.62,291.37,477.63,291.35z"/>
	<path style="fill-rule:evenodd;clip-rule:evenodd;fill:#A0A0A0;" d="M484.53,290.55c-0.07-0.03-0.13-0.07-0.2-0.1
		c0.18-0.15,0.18-0.02,0.18,0.12L484.53,290.55z"/>
</g>
</svg>
