<?xml version="1.0" encoding="utf-8"?>
<!-- Generator: Adobe Illustrator 16.0.0, SVG Export Plug-In . SVG Version: 6.00 Build 0)  -->
<!DOCTYPE svg PUBLIC "-//W3C//DTD SVG 1.0//EN" "http://www.w3.org/TR/2001/REC-SVG-20010904/DTD/svg10.dtd" [
	<!ENTITY ns_flows "http://ns.adobe.com/Flows/1.0/">
	<!ENTITY ns_extend "http://ns.adobe.com/Extensibility/1.0/">
	<!ENTITY ns_ai "http://ns.adobe.com/AdobeIllustrator/10.0/">
	<!ENTITY ns_graphs "http://ns.adobe.com/Graphs/1.0/">
]>
<svg version="1.0" id="Layer_1" xmlns:x="&ns_extend;" xmlns:i="&ns_ai;" xmlns:graph="&ns_graphs;"
	 xmlns="http://www.w3.org/2000/svg" xmlns:xlink="http://www.w3.org/1999/xlink" xmlns:a="http://ns.adobe.com/AdobeSVGViewerExtensions/3.0/"
	 x="0px" y="0px" width="960px" height="560px" viewBox="0 0 960 560" style="enable-background:new 0 0 960 560;"
	 xml:space="preserve">
<g>
	<path style="fill-rule:evenodd;clip-rule:evenodd;fill:#220C07;" d="M476.79,298.61c-1.31-0.46-2.61-0.96-3.93-1.38
		c-1.1-0.35-1.25-0.99-0.93-2.01c0.79-2.51,1.41-5.06,1.67-7.69c0.15-1.57,0.05-3.1-0.57-4.58c-0.98-2.34-1.88-4.73-2.98-7.01
		c-0.41-0.84-0.16-1.16,0.41-1.57c0.68-0.43,0.86-1.32,1.58-1.7c0.61,0.37,0.77,1.01,0.98,1.62c0.5,1.76,1.78,3.11,2.47,4.77
		c0.15,0.37,0.39,0.7,0.55,1.07c0.05,0.12,0.09,0.24,0.11,0.36c0.39,1.45,0.58,2.91,0.51,4.41c0,1.52,0,3.03,0,4.54
		c-0.02,0.84,0.03,1.69-0.05,2.53c-0.27,1.86-0.62,3.72-0.41,5.61C476.38,297.93,476.91,298.09,476.79,298.61z"/>
	<path style="fill-rule:evenodd;clip-rule:evenodd;fill:#230B07;" d="M489.78,275.42c-0.52,1.58-1.02,3.17-1.56,4.75
		c-1.22,3.56-0.19,6.9,0.99,10.23c0.52,1.46,0.97,2.95,1.43,4.43c0.21,0.68,0.1,1.2-0.75,1.25c-0.8,0.05-1.34,0.66-2.03,0.95
		c-0.89-3.49-2.12-6.89-2.84-10.42c-0.12-0.59-0.15-1.18-0.16-1.78c0.01-0.72-0.04-1.43,0.03-2.15c0.03-0.35-0.06-0.87,0.59-0.78
		c0.59,1.1,0.35,2.34,0.51,3.51c0.42,3.11,1.58,6.02,2.34,9.03c0.1,0.4,0.31,0.8,0.83,0.66c0.53-0.15,0.43-0.6,0.36-1
		c-0.25-1.39-0.81-2.68-1.32-3.97c-1.72-4.29-1.92-8.52,0.08-12.78c0.41-0.86,0.67-1.79,0.9-2.73c0.08-0.32,0.1-0.84,0.71-0.59
		C490.04,274.5,489.87,274.96,489.78,275.42z"/>
	<path style="fill-rule:evenodd;clip-rule:evenodd;fill:#252524;" d="M472.96,262.18c0.65-0.24,1.18-0.42,1.39,0.6
		c0.15,0.72,2.62,0.56,3.31,0.1c1.17-0.77,1.26-1.71,0.98-2.91c-0.15-0.63,0.4-0.77,0.86-0.94c0.28-0.1,0.71-0.11,0.67-0.54
		c-0.04-0.39-0.42-0.43-0.73-0.47c-0.35-0.05-0.77-0.16-0.84,0.37c-0.06,0.41-0.11,0.95-0.61,0.81c-0.55-0.15-0.47-0.78-0.38-1.24
		c0.2-0.99,0.93-1.38,1.85-1.33c1.18,0.06,1.74,0.85,1.93,1.93c0.15,0.87-0.14,1.55-1.09,1.64c-0.81,0.08-0.69,0.6-0.7,1.11
		c-0.02,0.64,0.37,0.65,0.86,0.62c0.52-0.03,0.89,0.28,1.16,0.71c0.27,0.54-0.16,0.68-0.49,0.88c-0.71,0.43-1.5,0.39-2.29,0.45
		c-1.4,0.1-2.83-0.34-4.18,0.3c-0.54,0.32-0.69-0.1-0.77-0.47c-0.12-0.56-0.38-0.99-0.89-1.27
		C472.89,262.41,472.89,262.3,472.96,262.18z"/>
	<path style="fill-rule:evenodd;clip-rule:evenodd;fill:#050515;" d="M485.2,284.96c0,2.01,0.71,3.88,1.22,5.79
		c0.47,1.76,1,3.5,1.54,5.23c0.12,0.39-0.01,0.7-0.11,1.03c-1.84,1.98-3.86,3.81-5.3,6.14c-0.56,0.91-1.03,0.34-1.44-0.18
		c-1.27-1.63-2.32-3.46-4.33-4.36c-0.24-0.23-0.48-0.46-0.71-0.69c0.04-0.04,0.08-0.08,0.12-0.12c0.63-0.22,1.07,0.26,1.6,0.43
		c1.4,0.69,2.4,1.78,3.23,3.09c0.72,1.15,0.83,1.11,1.68,0.11c0.47-0.54,0.91-1.11,1.33-1.69c0.52-0.55,1.09-1.07,1.55-1.68
		c0.62-0.68,1.67-1.02,1.71-2.16c-0.09-0.68-0.42-1.27-0.65-1.91c-0.31-1.08-0.4-2.23-0.93-3.25c-0.08-0.24-0.12-0.48-0.16-0.72
		c-0.21-0.8-0.42-1.59-0.65-2.38c-0.81-3.38-0.82-6.74,0.36-10.05c0.56-0.51,0.47-1.5,1.32-1.81c0.12,0.07,0.2,0.17,0.24,0.3
		c-0.23,1.88-0.73,3.7-1.11,5.54c-0.17,0.03-0.32-0.02-0.37-0.19c-0.09-0.3-0.03-0.6,0.02-0.9c-0.11,0.3-0.11,0.61-0.15,0.92
		C485.03,282.62,484.97,283.79,485.2,284.96z"/>
	<path style="fill-rule:evenodd;clip-rule:evenodd;fill:#0E0D1B;" d="M489.78,275.42c-0.01-0.52-0.03-1.04-0.04-1.56
		c-1.11-1.01-1.08-1-1.74,0.32c-0.32,0.64-0.51,1.42-1.31,1.69l-0.07-0.04c-0.43-0.64,0.02-1.18,0.21-1.75
		c0.2-0.58,0.65-1.07,0.61-1.73c0.11-0.86-0.68-1.25-0.98-1.9c-0.09-0.2-0.17-0.41-0.25-0.62c-0.04-0.11-0.08-0.22-0.11-0.33
		c-0.35-1.13-0.48-2.29-0.63-3.45c-0.18-0.92-0.04-1.86-0.13-2.79c-0.01-0.16,0.05-0.05-0.04-0.09c-0.27-0.11-0.12,0.14-0.14,0.24
		c0.03,0.11,0.05,0.22,0.06,0.33c0.03,0.24,0.03,0.47-0.01,0.71c-0.22,0.65-0.08,1.34-0.25,1.99c-0.31,0.74-0.37,1.57-0.77,2.28
		c-1.14,1.48-2.65,2.31-4.5,2.53c-0.43,0.05-0.87,0.14-1.21-0.24c-0.05-0.13-0.03-0.24,0.07-0.33c0.33-0.24,0.73-0.3,1.11-0.38
		c3.14-0.69,4.45-2.31,4.5-5.56c0.06-0.94-0.18-1.61-1.32-1.57c-0.3,0.01-0.74,0-0.74-0.52c1.11,0.12,1.99-0.67,3.05-0.77
		c0.94-0.11,1.15,0.61,1.4,1.26c0.04,0.1,0.07,0.21,0.1,0.31c-0.2,0.82,0.96,0.67,0.96,1.35c-1.14,0.1-1.36,0.76-1.22,1.81
		c0.27,2.19,0.83,4.18,2.78,5.51l-0.01,0.01C491.1,272.89,490.3,274.18,489.78,275.42z"/>
	<path style="fill-rule:evenodd;clip-rule:evenodd;fill:#4F4A3C;" d="M482.09,262.65c0.21,0.07,0.44,0.22,0.64,0.2
		c1.55-0.23,1.88,0.62,1.73,1.92c-0.63,0.53-1.3,0.48-1.99,0.17c-0.34-0.62,0.24-0.56,0.54-0.71c0.2-0.1,0.54-0.09,0.45-0.42
		c-0.07-0.25-0.37-0.26-0.61-0.28c-0.24-0.02-0.49-0.03-0.71,0.06c-1.86,0.79-3.83,0.59-5.77,0.61c-0.19,0-0.39-0.04-0.56,0.1
		c0.16,0.17,0.37,0.12,0.56,0.13c1.55,0.02,3.11-0.02,4.66,0.02c0.48,0.01,1.07-0.11,1.3,0.56c-2.52,0.7-5.05,0.4-7.58,0.18
		c-0.19-0.02-0.3-0.24-0.39-0.42c-0.06-0.15-0.05-0.3,0.03-0.44c-0.04-0.81,0.54-0.68,1.05-0.73c1.88-0.17,3.81,0.43,5.64-0.42
		c0.27-0.13,0.51-0.21,0.53-0.55C481.77,262.64,481.93,262.65,482.09,262.65z"/>
	<path style="fill-rule:evenodd;clip-rule:evenodd;fill:#343230;" d="M472.96,262.18c0,0.07,0,0.14-0.01,0.21
		c-0.02,0.43-0.19,0.84-0.14,1.29c-0.03,1.56-0.03,1.56-1.78,1.85c-0.04,0.01-0.08,0.03-0.12,0.03c-0.94-0.01-2.12-0.06-2.22-1.1
		c-0.11-1.14,1.18-1.17,1.96-1.14C471.72,263.35,472.22,262.57,472.96,262.18z"/>
	<path style="fill-rule:evenodd;clip-rule:evenodd;fill:#363431;" d="M487.6,264.81c-0.66-0.27-1.53-0.35-1.2-1.44
		c0.36-0.11,0.44,0.26,0.65,0.4c0.27,0.18,0.52,0.11,0.77-0.05c0.13-0.09,0.25-0.23,0.17-0.39c-0.15-0.28-0.45-0.29-0.73-0.29
		c-0.33,0-0.61,0.13-0.86,0.34c-0.4-0.51-0.44-1.33-1.26-1.48c1.27,0.05,2.59,0.05,3.72,0.58c0.63,0.3,0.62,1.15-0.08,1.66
		C488.42,264.38,488.15,264.85,487.6,264.81z"/>
	<path style="fill-rule:evenodd;clip-rule:evenodd;fill:#191822;" d="M471.97,272.73c-0.26,0.77-0.81,1.28-1.52,1.64
		c1.11-1.6,1.31-3.5,1.75-5.32c0.52,0.44,0.32,1.05,0.38,1.6c-0.01,0.41,0,0.83-0.09,1.24C472.4,272.21,472.29,272.54,471.97,272.73
		z"/>
	<path style="fill-rule:evenodd;clip-rule:evenodd;fill:#161622;" d="M472.28,270.88c-0.02-0.61-0.05-1.22-0.07-1.83
		c0.01-0.29,0.03-0.59,0.04-0.88c0.03-0.89,0.54-1.83-0.3-2.62c-0.3-0.01-0.6-0.02-0.9-0.02c1.4-0.11,1.62-1,1.44-2.16
		c0.15-0.07,0.27-0.05,0.37,0.08c0.17,0.25,0.19,0.53,0.21,0.81c-0.01,1.48,0.06,2.95-0.04,4.43c-0.21,0.58-0.15,1.21-0.29,1.81
		C472.63,270.69,472.51,270.85,472.28,270.88z"/>
	<path style="fill-rule:evenodd;clip-rule:evenodd;fill:#343230;" d="M471.94,265.54c1.05,0.76,0.51,1.71,0.3,2.62
		C472.03,267.3,472.68,266.34,471.94,265.54z"/>
	<path style="fill-rule:evenodd;clip-rule:evenodd;fill:#DEDA1F;" d="M489.14,272.13L489.14,272.13L489.14,272.13z"/>
	<path style="fill-rule:evenodd;clip-rule:evenodd;fill:#E0DD1F;" d="M476.1,286.13c-0.08,4.31-0.65,7.54-1,10.79
		c-0.01,0.12,0.09,0.36-0.16,0.35c-0.85-0.04-1.58-0.49-2.29-0.86c-0.38-0.2-0.2-0.81-0.11-1.22c0.58-2.55,1.36-5.07,1.6-7.68
		c0.28-3.09-0.97-5.84-2.15-8.58c-0.43-1-0.95-1.97-1.4-2.97c-0.15-0.34-0.3-0.65,0.05-1.06c0.69-0.81,1.02-1.14,1.77,0.08
		C474.74,278.72,476.37,282.63,476.1,286.13z"/>
	<path style="fill-rule:evenodd;clip-rule:evenodd;fill:#A9488F;" d="M471.97,272.73c0.09-0.24-0.05-0.56,0.25-0.73
		c0.35-0.24-0.14-0.92,0.43-0.96c0.43-0.03,0.65,0.42,0.82,0.78c1.28,2.7,2.66,5.36,3.97,8.05c0.86,1.77,0.79,3.72,0.59,5.64
		c-0.05,0.5-0.12,1.17-0.77,1.18c-0.62,0.01-0.54-0.67-0.69-1.1c-0.12-1.83-0.13-3.68-0.73-5.46l0.01,0.02
		c-0.89-2.03-2.16-3.85-3.13-5.84C472.48,273.79,472.23,273.26,471.97,272.73z"/>
	<path style="fill-rule:evenodd;clip-rule:evenodd;fill:#020114;" d="M475.85,280.14c0.89,1.75,0.61,3.71,0.99,5.55
		c0.03,0.7,0.35,1.35,0.33,2.06c-0.03,0.29-0.02,0.57-0.05,0.86c-0.04,0.29-0.09,0.58-0.41,0.72c-0.5-0.3-0.22-0.79-0.26-1.19
		c-0.1-1.14,0.15-2.29-0.13-3.42C476.51,283.15,475.96,281.67,475.85,280.14z"/>
	<path style="fill-rule:evenodd;clip-rule:evenodd;fill:#030114;" d="M472.73,274.32c1.19,1.87,2.48,3.68,3.13,5.84
		C474.79,278.23,473.43,276.45,472.73,274.32z"/>
	<path style="fill-rule:evenodd;clip-rule:evenodd;fill:#0A0917;" d="M476.08,297.92c-0.15-0.11-0.44-0.24-0.42-0.32
		c0.31-1.81,0.11-3.67,0.66-5.45c0.05,0.05,0.1,0.09,0.15,0.14c0.39,0.84,0.2,1.71,0.06,2.56c-0.1,0.59-0.08,1.18-0.12,1.77
		c-0.05,0.43-0.09,0.86-0.29,1.26L476.08,297.92z"/>
	<path style="fill-rule:evenodd;clip-rule:evenodd;fill:#222121;" d="M476.32,284.71c0.52,1,0.11,2.07,0.24,3.09
		c0.06,0.49-0.16,1.02,0.2,1.47c0.03,0.04,0.07,0.07,0.1,0.11c-0.01,0.05-0.01,0.1-0.02,0.15c-0.08,0.07-0.16,0.11-0.27,0.12
		c-0.1-0.01-0.19-0.06-0.26-0.14C476.32,287.92,476.32,286.31,476.32,284.71z"/>
	<path style="fill-rule:evenodd;clip-rule:evenodd;fill:#0A0917;" d="M476.32,289.52c0.09,0,0.19,0.01,0.28,0.01
		c0.36,0.93,0.66,1.85-0.21,2.69l-0.08-0.06C476.31,291.27,476.32,290.4,476.32,289.52z"/>
	<path style="fill-rule:evenodd;clip-rule:evenodd;fill:#DEDA1F;" d="M486.68,275.87c0.44-0.8,1.01-1.52,1.31-2.42
		c0.08-0.24,0.04-0.98,0.7-0.75c0.52,0.18,1.2,0.31,1.04,1.15c-0.66,2.96-2.3,5.65-2.6,8.7c-0.34,3.47,1.07,6.61,2.24,9.75
		c0.23,0.63,0.32,1.27,0.54,1.9c0.16,0.46,0.44,1.15-0.52,1.32c-0.7,0.12-1.11,0.19-1.35-0.74c-1.1-4.2-2.8-8.26-2.59-12.72
		c0.13-0.13,0.03-0.35,0.19-0.48C485.47,279.59,486.23,277.76,486.68,275.87z"/>
	<path style="fill-rule:evenodd;clip-rule:evenodd;fill:#222221;" d="M485.64,281.59c-0.06,0.16-0.12,0.32-0.19,0.48
		c-0.59,0.92-0.09,1.94-0.25,2.89c-0.49-1.52-0.24-3.04,0.01-4.56c0.01-0.08,0.05-0.15,0.08-0.22c0.05,0.09,0.13,0.17,0.14,0.27
		C485.5,280.83,485.32,281.25,485.64,281.59z"/>
	<path style="fill-rule:evenodd;clip-rule:evenodd;fill:#090818;" d="M472.73,263.37c-0.08,0-0.17-0.01-0.25-0.01
		c-0.01-0.4,0.03-0.78,0.47-0.97c1.54-0.14,0.9,1.33,1.43,1.94c0.01,0.07,0.03,0.14,0.03,0.22c0.37,0.91,0.71,1.84,0.98,2.79
		c0.39,1.37,1.29,2.33,2.59,2.92c0.24,0.11,0.56,0.16,0.49,0.55l-0.03,0.06c-0.74,0.47-1.36,0.11-1.93-0.33
		c-0.72-0.55-1.33-1.22-1.71-2.06c-0.05-0.1-0.1-0.2-0.13-0.31c-0.24-0.7-0.36-1.44-0.62-2.13c-0.04-0.1-0.07-0.19-0.09-0.29
		c-0.07-0.34-0.07-0.7-0.19-1.03c-0.03-0.09-0.06-0.19-0.08-0.29c-0.06-0.29-0.06-0.58-0.16-0.86c-0.04-0.08-0.08-0.16-0.12-0.24
		c-0.08-0.1-0.17-0.15-0.29-0.05c-0.05,0.07-0.11,0.12-0.18,0.17C472.86,263.47,472.79,263.44,472.73,263.37z"/>
	<path style="fill-rule:evenodd;clip-rule:evenodd;fill:#FEFEFE;" d="M480.63,259.26c0.04-0.28,0.09-0.56,0.13-0.84
		c0.05,0.09,0.1,0.18,0.16,0.27c0.27,0.41,0.01,0.5-0.32,0.55L480.63,259.26z"/>
	<path style="fill-rule:evenodd;clip-rule:evenodd;fill:#FEFEFE;" d="M480.13,262.65c-0.22,0.46-0.63,0.13-0.94,0.21
		c-0.02,0.01-0.07-0.09-0.11-0.14c0.35-0.02,0.7-0.03,1.06-0.05L480.13,262.65z"/>
	<path style="fill-rule:evenodd;clip-rule:evenodd;fill:#FEFEFE;" d="M479.89,257.39c-0.26-0.04-0.53-0.07-0.79-0.11
		c0.02-0.05,0.06-0.13,0.07-0.13c0.24,0.06,0.64-0.27,0.69,0.27L479.89,257.39z"/>
	<path style="fill-rule:evenodd;clip-rule:evenodd;fill:#5E5E5E;" d="M480.14,262.67c0.07-0.23,0.24-0.27,0.45-0.22
		c0.03,0.01,0.05,0.06,0.07,0.09c-0.18,0.04-0.36,0.08-0.53,0.12L480.14,262.67z"/>
	<path style="fill-rule:evenodd;clip-rule:evenodd;fill:#FEFEFE;" d="M479.86,257.42c0.15,0,0.29,0,0.44,0
		c-0.02,0.06-0.03,0.11-0.05,0.16c-0.12-0.07-0.24-0.13-0.36-0.19C479.89,257.39,479.86,257.42,479.86,257.42z"/>
	<path style="fill-rule:evenodd;clip-rule:evenodd;fill:#FEFEFE;" d="M480.6,259.24c0.06,0.19-0.02,0.29-0.21,0.27
		c-0.06-0.01-0.11-0.07-0.17-0.1c0.14-0.04,0.27-0.09,0.41-0.14C480.63,259.26,480.6,259.24,480.6,259.24z"/>
	<path style="fill-rule:evenodd;clip-rule:evenodd;fill:#7A247F;" d="M476.4,292.21c0.39-0.87,0.04-1.8,0.21-2.69
		c0.06,0,0.13-0.01,0.19-0.02c0.09,0.07,0.16,0.16,0.21,0.26c0.12,0.53,0.31,0.86,0.82,0.28c0.64-0.73,1.07-1.58,1.49-2.44
		c0.18-0.36,0.33-0.73,0.57-1.05c0.51-0.69,0.92-0.7,1.38,0.01c0.37,0.57,0.61,1.21,0.89,1.82c0.65,1.39,1.48,2.65,2.86,3.44
		c0.23,0.13,0.44,0.46,0.72,0.28c0.23-0.15,0.02-0.43-0.01-0.66c-0.03-0.28-0.07-0.56,0.19-0.77c0.77,1,0.71,2.24,1,3.38
		c-1.5,1.28-2.61,2.84-3.3,4.7c-0.26,0.69-0.15,1.08,0.65,1.09c-0.6,0.78-1.3,1.5-1.78,2.34c-0.56,0.99-0.94,0.5-1.28-0.05
		c-0.92-1.48-1.96-2.84-3.49-3.74c0.26-0.24,0.56-0.45,0.3-0.88c-0.29-0.47-0.57-0.98-1.09-1.18c-0.47-0.19-0.32,0.71-0.83,0.6
		C475.93,295.36,476.42,293.8,476.4,292.21z"/>
	<path style="fill-rule:evenodd;clip-rule:evenodd;fill:#852981;" d="M485.93,290.69c0,0.08,0,0.16,0,0.24
		c-0.04,0.63,0.78,1.44,0.28,1.74c-0.61,0.36-1.2-0.53-1.79-0.89c-1.71-1.04-2.32-2.86-3.13-4.54c-0.17-0.34-0.23-0.9-0.64-0.94
		c-0.54-0.05-0.57,0.58-0.77,0.94c-0.55,1.01-0.96,2.11-1.75,2.98c-0.31,0.34-0.62,0.97-1.07,0.83c-0.53-0.17-0.16-0.84-0.25-1.28
		c2.31-2.75,2.62-5.87,1.73-9.21c-0.05-0.2-0.1-0.4-0.15-0.6c-0.03-0.09-0.06-0.18-0.09-0.26c-0.05-0.12-0.1-0.25-0.15-0.37
		c-0.04-0.07-0.07-0.15-0.11-0.23c-0.06-0.11-0.11-0.23-0.17-0.34c-0.04-0.07-0.08-0.15-0.12-0.23c-0.04-0.07-0.08-0.15-0.12-0.23
		c-0.04-0.08-0.08-0.15-0.12-0.23c-0.04-0.08-0.08-0.16-0.12-0.24c-0.04-0.08-0.08-0.16-0.12-0.24c-0.04-0.08-0.08-0.16-0.12-0.24
		c-0.04-0.08-0.08-0.16-0.12-0.24c-0.04-0.08-0.08-0.16-0.12-0.24c-0.04-0.08-0.08-0.16-0.12-0.24c-0.04-0.08-0.08-0.16-0.12-0.23
		c-0.04-0.08-0.08-0.15-0.11-0.23c-0.04-0.07-0.08-0.15-0.11-0.23c-0.04-0.07-0.07-0.15-0.1-0.22c-0.05-0.11-0.1-0.22-0.16-0.32
		c-0.04-0.07-0.07-0.14-0.11-0.21c-0.05-0.1-0.1-0.21-0.15-0.32c-0.04-0.11-0.07-0.22-0.1-0.34c-0.04-0.11-0.08-0.22-0.13-0.33
		c-0.04-0.07-0.07-0.14-0.11-0.22c-0.04-0.07-0.07-0.14-0.11-0.21c-0.04-0.07-0.07-0.14-0.1-0.22c-0.05-0.11-0.1-0.21-0.16-0.32
		c-0.04-0.07-0.07-0.14-0.11-0.21c-0.05-0.1-0.1-0.21-0.15-0.32c-0.04-0.11-0.07-0.22-0.1-0.34c-0.04-0.11-0.08-0.22-0.13-0.33
		c-0.04-0.07-0.07-0.14-0.11-0.22c-0.06-0.11-0.11-0.22-0.16-0.33c-0.03-0.08-0.06-0.16-0.09-0.24c-0.04-0.12-0.08-0.24-0.13-0.36
		c-0.04-0.08-0.07-0.16-0.11-0.23c-0.06-0.12-0.11-0.24-0.16-0.36c-0.05-0.12-0.09-0.25-0.13-0.38c-0.05-0.13-0.09-0.25-0.13-0.38
		c-0.04-0.13-0.07-0.26-0.09-0.4c-0.04-0.18-0.09-0.36-0.13-0.54c-0.03-0.15-0.02-0.29,0.01-0.44c0.04-0.19,0.09-0.39,0.13-0.58
		c0.03-0.16,0.08-0.3,0.16-0.44c0.06-0.09,0.14-0.16,0.23-0.22c0.05-0.02,0.1-0.03,0.15-0.05c0.11,0,0.2,0.04,0.28,0.12
		c0.06,0.42,0.22,0.8,0.4,1.17l0,0c1.23,3.71,2.85,7.25,4.65,10.71c0.18,0.34,0.27,0.89,0.73,0.84c0.44-0.05,0.46-0.6,0.56-0.97
		c0.42-1.5,1.07-2.91,1.72-4.32c0.46-1,0.79-2.04,0.61-3.12c-0.18-1.09,0.08-1.93,0.84-2.68c0.23-0.73,0.46-1.47,0.7-2.2
		c0.3,0.22,0.31,0.55,0.27,0.87c-0.1,0.81,0,1.61,0.16,2.38c0.47,2.35-0.03,4.46-1.13,6.56c-1.91,3.63-1.92,7.42-0.52,11.23
		c0.21,0.56,0.49,1.09,0.82,1.59c0.38,0.59,0.96,0.81,1.59,0.96C485.89,290.23,485.91,290.46,485.93,290.69z"/>
	<path style="fill-rule:evenodd;clip-rule:evenodd;fill:#993787;" d="M485.87,290.01c-0.85,0.94-1.29-0.01-1.67-0.46
		c-1.15-1.39-1.54-3.13-1.86-4.85c-0.61-3.22-0.07-6.3,1.58-9.09c1.34-2.26,1.12-4.6,0.71-6.95c-0.14-0.8,0.24-1.49,0.06-2.23
		c0.17-0.69-0.16-1.47,0.32-2.11c0.09-0.24,0.14-0.49-0.05-0.71l0,0c-0.15-0.24-0.12-0.46,0.17-0.54c0.21-0.06,0.38,0.06,0.41,0.29
		c0.06,0.47-0.01,0.94,0.03,1.4c0.03,0.41-0.15,0.86,0.15,1.24c0.23,1.28,0.47,2.56,0.7,3.84c-0.17,0.34-0.2,0.71-0.1,1.06
		c0.5,1.85-0.11,3.47-1.01,5.03c-1.93,3.32-2.09,6.82-1.11,10.44c0.16,0.58,0.22,1.3,1.03,1.45
		C485.43,288.54,485.65,289.27,485.87,290.01z"/>
	<path style="fill-rule:evenodd;clip-rule:evenodd;fill:#AA4990;" d="M485.22,287.8c-0.04,0.19-0.02,0.46-0.14,0.55
		c-0.3,0.23-0.38-0.13-0.5-0.29c-0.99-1.34-1.09-2.97-1.26-4.52c-0.28-2.53,0.12-4.99,1.41-7.24c1-1.74,1.86-3.51,1.23-5.63
		c-0.06-0.2-0.48-1.01,0.46-0.84l0,0c0.12,0.14,0.09,0.34,0.19,0.49c0.21,0.73,1.53,0.84,1.07,1.94c-0.56,1.8-1.32,3.52-2.05,5.25
		C484.46,280.9,484.52,284.34,485.22,287.8z"/>
	<path style="fill-rule:evenodd;clip-rule:evenodd;fill:#8A2C82;" d="M484.29,299.86c-0.53-0.19-0.64,0.93-1.13,0.46
		c-0.41-0.39,0.01-0.98,0.13-1.46c0.5-1.89,1.77-3.31,2.98-4.76c0.2-0.24,0.44-0.06,0.66-0.03c0.35,0.6,0.66,1.21,0.62,1.92
		c-1.27-0.12-1.53,1.01-2.12,1.72c-0.19,0.24,0.45,0.16,0.24,0.47C485.51,298.98,484.78,299.32,484.29,299.86z"/>
	<path style="fill-rule:evenodd;clip-rule:evenodd;fill:#8A2D83;" d="M476.11,296.95c0.07-0.26,0.18-0.51,0.2-0.77
		c0.04-0.56,0.21-0.79,0.69-0.33c0.53,0.52,1.14,0.98,1.42,1.71c0.11,0.28,0.42,0.56,0.18,0.87c-0.25,0.32-0.58-0.11-0.88-0.03
		c-0.54-0.18-1.08-0.35-1.62-0.53C475.81,297.57,475.84,297.26,476.11,296.95z"/>
	<path style="fill-rule:evenodd;clip-rule:evenodd;fill:#953787;" d="M485.69,298.18c-0.41-0.24-0.46,0.68-0.8,0.3
		c-0.27-0.31,0.13-0.63,0.31-0.91c0.37-0.55,0.75-1.1,1.15-1.63c0.41-0.54,0.83-0.5,1.21,0.05
		C487.57,297.26,486.53,297.64,485.69,298.18z"/>
	<path style="fill-rule:evenodd;clip-rule:evenodd;fill:#050117;" d="M485.61,277.5c0.48-1.83,1.28-3.53,2.05-5.25
		c0.4,0.89-0.48,1.39-0.65,2.12c-0.11,0.49-0.26,0.97-0.4,1.46C486.06,276.26,486.29,277.16,485.61,277.5z"/>
	<path style="fill-rule:evenodd;clip-rule:evenodd;fill:#7B247F;" d="M483.99,268.63c-1.17,1.4-0.07,3.13-0.68,4.64
		c-0.89,2.2-1.71,4.43-2.56,6.65c-0.28,0.72-0.69,0.79-1.02,0.09c-1.84-3.85-4.18-7.51-4.85-11.84c0.91,1.27,1.65,2.76,3.56,2.7
		c1.82,0.38,3.32-0.32,4.68-1.44C483.43,269.17,483.7,268.89,483.99,268.63z"/>
	<path style="fill-rule:evenodd;clip-rule:evenodd;fill:#863185;" d="M485.71,265.99c-0.54-0.7-0.16-1.51-0.27-2.26
		c-0.07-0.45-0.13-0.79-0.48-0.13c-0.35-0.32-0.28-0.71-0.08-1.05c0.06-0.1,0.38-0.14,0.53-0.08c0.44,0.18,0.24,0.61,0.25,0.93
		C485.7,264.26,485.7,265.13,485.71,265.99z"/>
	<path style="fill-rule:evenodd;clip-rule:evenodd;fill:#863185;" d="M484.96,263.6c0.31,0.21,0.3,0.45,0.05,0.71
		C484.99,264.07,484.97,263.84,484.96,263.6z"/>
	<path style="fill-rule:evenodd;clip-rule:evenodd;fill:#993787;" d="M486.59,270.32c-0.06-0.16-0.13-0.32-0.19-0.49
		C486.64,269.92,486.63,270.11,486.59,270.32z"/>
	<path style="fill-rule:evenodd;clip-rule:evenodd;fill:#B97B32;" d="M482.32,264.81c-2.16,0-4.32-0.01-6.48,0
		c-0.5,0-1.11,0.01-1.08-0.61c0.03-0.66,0.69-0.31,1.05-0.34c2.09-0.13,4.23,0.34,6.24-0.67c0.32-0.16,0.79-0.02,1.18-0.07
		c0.77-0.1,0.87,0.49,0.93,0.96c0.09,0.67-0.5,0.43-0.85,0.48S482.59,264.46,482.32,264.81L482.32,264.81z"/>
	<path style="fill-rule:evenodd;clip-rule:evenodd;fill:#B97B32;" d="M471.09,265.04c-0.68,0-1.68-0.09-1.57-0.66
		c0.16-0.85,1.31-0.52,2.02-0.75c0.57-0.18,0.71,0.23,0.71,0.75C472.24,265.37,471.5,264.92,471.09,265.04z"/>
	<path style="fill-rule:evenodd;clip-rule:evenodd;fill:#B97B33;" d="M486.4,263.36c-0.09-0.84,0.51-0.78,1-0.69
		c0.47,0.09,1.24,0.08,1.27,0.61c0.04,0.52-0.65,0.81-1.14,1.01C486.66,264.64,486.72,263.75,486.4,263.36L486.4,263.36z"/>
	<path style="fill-rule:evenodd;clip-rule:evenodd;fill:#9C3988;" d="M476.84,287.85c0-0.72,0-1.44,0-2.16
		c0.35,0.15,0.01,0.85,0.51,0.75c0.19-0.04,0.35-0.6,0.38-0.93c0.23-2.46,0.08-4.86-1.29-7.01c-1.31-2.06-2.1-4.37-3.25-6.51
		c-0.14-0.27-0.35-0.5-0.53-0.75c-0.14,0.26-0.29,0.51-0.43,0.77c0.02-0.37,0.04-0.75,0.05-1.12c0.08-0.11,0.17-0.22,0.25-0.33
		c0.21-0.31-0.14-0.78,0.3-1.02c0.51,0.05,0.76,0.42,0.93,0.83c1.35,3.32,3.1,6.46,4.46,9.77c0.94,2.28,0.85,4.67,0.08,7.02
		c-0.11,0.34-0.25,0.68-0.49,0.95C477.33,288.63,477.01,288.51,476.84,287.85z"/>
	<path style="fill-rule:evenodd;clip-rule:evenodd;fill:#8C2F84;" d="M472.73,268.88c0.01-1.6,0.01-3.19,0.02-4.79
		c0.15-0.08,0.27-0.04,0.36,0.1c0.28,1.57,0.54,3.13-0.17,4.66C472.87,268.87,472.8,268.88,472.73,268.88z"/>
	<path style="fill-rule:evenodd;clip-rule:evenodd;fill:#8C2F84;" d="M472.72,269.6c-0.03,0.32,0.09,0.67-0.19,0.95
		c0.02-0.56-0.24-1.15,0.2-1.67l0.01,0C472.95,269.13,472.91,269.37,472.72,269.6z"/>
	<path style="fill-rule:evenodd;clip-rule:evenodd;fill:#343230;" d="M472.93,264.02c-0.06,0.02-0.13,0.04-0.19,0.08
		c-0.01-0.24-0.01-0.49-0.02-0.73c0.06,0,0.12-0.01,0.17-0.01C473.16,263.57,473.15,263.79,472.93,264.02z"/>
	<path style="fill-rule:evenodd;clip-rule:evenodd;fill:#8E2E83;" d="M472.93,264.02c-0.01-0.22-0.02-0.44-0.03-0.67
		c0.02-0.07,0.03-0.15,0.02-0.22c0.47-0.68,0.57-0.06,0.77,0.22l0-0.01c0.28,0.36-0.08,0.86,0.26,1.21l-0.01-0.01
		c0.26,0.37-0.08,0.86,0.24,1.21l0-0.02c0.16,0.28,0.08,0.6,0.15,0.9c-0.02,0.12-0.08,0.23-0.17,0.32h0
		c-0.08,0.08-0.16,0.16-0.24,0.24c0,0.16,0,0.32,0,0.48c-0.15,0.12-0.09,0.35-0.24,0.48c0,0.16,0,0.32,0,0.48
		c0.15,0.13,0.09,0.36,0.24,0.48c0,0.16,0,0.32,0,0.48c0.09,0.07,0.15,0.17,0.24,0.24c0,0.16,0,0.32,0,0.48
		c0.09,0.07,0.15,0.17,0.24,0.24c0,0.08,0,0.16,0,0.24c0.15,0.13,0.09,0.36,0.24,0.48c0,0.08,0,0.16,0,0.24
		c0.09,0.07,0.15,0.17,0.24,0.24c0,0.08,0,0.16,0,0.24c0.09,0.07,0.15,0.17,0.24,0.24c0,0.16,0,0.32,0,0.48
		c0.09,0.07,0.15,0.17,0.24,0.24c0,0.08,0,0.16,0,0.24c0.09,0.07,0.15,0.17,0.24,0.24c0,0.08,0,0.16,0,0.24
		c0.09,0.07,0.15,0.17,0.24,0.24c0,0.08,0,0.16,0,0.24c0.09,0.07,0.15,0.17,0.24,0.24c0,0.16,0,0.32,0,0.48
		c0.09,0.07,0.15,0.17,0.24,0.24c0,0.08,0,0.16,0,0.24c0.09,0.07,0.15,0.17,0.24,0.24c0,0.08,0,0.16,0,0.24
		c0.09,0.07,0.15,0.17,0.24,0.24c0,0.08,0,0.16,0,0.24c0.09,0.07,0.15,0.17,0.24,0.24c0,0.08,0,0.16,0,0.24
		c0.09,0.07,0.15,0.17,0.24,0.24c0,0.08,0,0.16,0,0.24c0.09,0.07,0.15,0.17,0.24,0.24c0,0.08,0,0.16,0,0.24
		c0.09,0.07,0.15,0.17,0.24,0.24c0,0.08,0,0.16,0,0.24c0.09,0.07,0.15,0.17,0.24,0.24c0,0.08,0,0.16,0,0.24
		c0.09,0.07,0.15,0.17,0.24,0.24c0,0.08,0,0.16,0,0.24c0.09,0.07,0.15,0.17,0.24,0.24c0,0.08,0,0.16,0,0.24
		c0.15,0.13,0.09,0.36,0.24,0.48c1.06,2.87,0.76,5.66-0.58,8.36c-0.28,0.57-0.6,1.13-1.33,1.24c0-0.08-0.01-0.16-0.01-0.24l0,0.01
		c0.21-0.31,0.15-0.63,0.04-0.95c0-0.24,0-0.48,0-0.72c0.71,0.85,0.82-0.02,0.97-0.39c1.06-2.68,1.02-5.4-0.19-7.99
		c-1.43-3.06-2.98-6.07-4.25-9.21c-0.11-0.27-0.43-0.45-0.65-0.67c0-0.24,0.01-0.47,0.01-0.71
		C473.21,267.28,472.86,265.64,472.93,264.02z"/>
	<path style="fill-rule:evenodd;clip-rule:evenodd;fill:#852981;" d="M476.84,288.57c0.28,0.33,0.3,0.65-0.04,0.95
		c-0.01-0.08-0.02-0.16-0.04-0.24C476.79,289.04,476.81,288.8,476.84,288.57z"/>
	<path style="fill-rule:evenodd;clip-rule:evenodd;fill:#7B247F;" d="M474.16,266.72c0.01-0.33,0.01-0.65,0.02-0.98
		c0.43,0.75,0.56,1.59,0.7,2.42c-0.39-0.31-0.49-0.73-0.49-1.2C474.31,266.88,474.23,266.81,474.16,266.72z"/>
	<path style="fill-rule:evenodd;clip-rule:evenodd;fill:#8C2F84;" d="M473.69,263.36c-0.23-0.16-0.42-0.49-0.77-0.22
		c-0.15-0.38,0.09-0.46,0.38-0.47C473.81,262.67,473.61,263.1,473.69,263.36z"/>
	<path style="fill-rule:evenodd;clip-rule:evenodd;fill:#8C2F84;" d="M473.94,264.55c-0.43-0.33-0.21-0.8-0.26-1.21
		C474.09,263.68,473.81,264.16,473.94,264.55z"/>
	<path style="fill-rule:evenodd;clip-rule:evenodd;fill:#8C2F84;" d="M474.18,265.76c-0.42-0.34-0.21-0.8-0.24-1.21
		C474.32,264.88,474.06,265.36,474.18,265.76z"/>
	<path style="fill-rule:evenodd;clip-rule:evenodd;fill:#8C2F84;" d="M478.72,280.16c-0.08-0.16-0.16-0.32-0.24-0.48
		C478.56,279.84,478.64,280,478.72,280.16z"/>
	<path style="fill-rule:evenodd;clip-rule:evenodd;fill:#8C2F84;" d="M473.92,269.12c-0.08-0.16-0.16-0.32-0.24-0.48
		C473.76,268.8,473.84,268.96,473.92,269.12z"/>
	<path style="fill-rule:evenodd;clip-rule:evenodd;fill:#8C2F84;" d="M474.64,271.28c-0.08-0.16-0.16-0.32-0.24-0.48
		C474.48,270.96,474.56,271.12,474.64,271.28z"/>
	<path style="fill-rule:evenodd;clip-rule:evenodd;fill:#8C2F84;" d="M473.68,268.16c0.08-0.16,0.16-0.32,0.24-0.48
		C473.84,267.84,473.76,268,473.68,268.16z"/>
	<path style="fill-rule:evenodd;clip-rule:evenodd;fill:#8C2F84;" d="M476.8,276.08c-0.08-0.08-0.16-0.16-0.24-0.24
		C476.64,275.92,476.72,276,476.8,276.08z"/>
	<path style="fill-rule:evenodd;clip-rule:evenodd;fill:#8C2F84;" d="M477.04,276.56c-0.08-0.08-0.16-0.16-0.24-0.24
		C476.88,276.4,476.96,276.48,477.04,276.56z"/>
	<path style="fill-rule:evenodd;clip-rule:evenodd;fill:#8C2F84;" d="M477.28,277.04c-0.08-0.08-0.16-0.16-0.24-0.24
		C477.12,276.88,477.2,276.96,477.28,277.04z"/>
	<path style="fill-rule:evenodd;clip-rule:evenodd;fill:#8C2F84;" d="M477.52,277.52c-0.08-0.08-0.16-0.16-0.24-0.24
		C477.36,277.36,477.44,277.44,477.52,277.52z"/>
	<path style="fill-rule:evenodd;clip-rule:evenodd;fill:#8C2F84;" d="M477.76,278c-0.08-0.08-0.16-0.16-0.24-0.24
		C477.6,277.84,477.68,277.92,477.76,278z"/>
	<path style="fill-rule:evenodd;clip-rule:evenodd;fill:#8C2F84;" d="M478,278.48c-0.08-0.08-0.16-0.16-0.24-0.24
		C477.84,278.32,477.92,278.4,478,278.48z"/>
	<path style="fill-rule:evenodd;clip-rule:evenodd;fill:#8C2F84;" d="M474.16,269.84c-0.08-0.08-0.16-0.16-0.24-0.24
		C474,269.68,474.08,269.76,474.16,269.84z"/>
	<path style="fill-rule:evenodd;clip-rule:evenodd;fill:#8C2F84;" d="M478.48,279.44c-0.08-0.08-0.16-0.16-0.24-0.24
		C478.32,279.28,478.4,279.36,478.48,279.44z"/>
	<path style="fill-rule:evenodd;clip-rule:evenodd;fill:#8C2F84;" d="M475.84,273.92c-0.08-0.08-0.16-0.16-0.24-0.24
		C475.68,273.76,475.76,273.84,475.84,273.92z"/>
	<path style="fill-rule:evenodd;clip-rule:evenodd;fill:#8C2F84;" d="M476.08,274.4c-0.08-0.08-0.16-0.16-0.24-0.24
		C475.92,274.24,476,274.32,476.08,274.4z"/>
	<path style="fill-rule:evenodd;clip-rule:evenodd;fill:#8C2F84;" d="M475.12,272.24c-0.08-0.08-0.16-0.16-0.24-0.24
		C474.96,272.08,475.04,272.16,475.12,272.24z"/>
	<path style="fill-rule:evenodd;clip-rule:evenodd;fill:#8C2F84;" d="M474.88,271.76c-0.08-0.08-0.16-0.16-0.24-0.24
		C474.72,271.6,474.8,271.68,474.88,271.76z"/>
	<path style="fill-rule:evenodd;clip-rule:evenodd;fill:#8C2F84;" d="M475.6,273.44c-0.08-0.08-0.16-0.16-0.24-0.24
		C475.44,273.28,475.52,273.36,475.6,273.44z"/>
	<path style="fill-rule:evenodd;clip-rule:evenodd;fill:#8C2F84;" d="M475.36,272.96c-0.08-0.08-0.16-0.16-0.24-0.24
		C475.2,272.8,475.28,272.88,475.36,272.96z"/>
	<path style="fill-rule:evenodd;clip-rule:evenodd;fill:#8C2F84;" d="M476.32,275.12c-0.08-0.08-0.16-0.16-0.24-0.24
		C476.16,274.96,476.24,275.04,476.32,275.12z"/>
	<path style="fill-rule:evenodd;clip-rule:evenodd;fill:#8C2F84;" d="M474.4,270.56c-0.08-0.08-0.16-0.16-0.24-0.24
		C474.24,270.4,474.32,270.48,474.4,270.56z"/>
	<path style="fill-rule:evenodd;clip-rule:evenodd;fill:#8C2F84;" d="M473.92,267.2c0.08-0.08,0.16-0.16,0.24-0.24
		C474.08,267.04,474,267.12,473.92,267.2z"/>
	<path style="fill-rule:evenodd;clip-rule:evenodd;fill:#8C2F84;" d="M474.16,266.72c0.08,0.08,0.16,0.16,0.23,0.24
		c-0.08,0-0.16,0-0.23,0C474.16,266.88,474.16,266.8,474.16,266.72z"/>
	<path style="fill-rule:evenodd;clip-rule:evenodd;fill:#8C2F84;" d="M476.56,275.6c-0.08-0.08-0.16-0.16-0.24-0.24
		C476.4,275.44,476.48,275.52,476.56,275.6z"/>
	<path style="fill-rule:evenodd;clip-rule:evenodd;fill:#8C2F84;" d="M478.24,278.96c-0.08-0.08-0.16-0.16-0.24-0.24
		C478.08,278.8,478.16,278.88,478.24,278.96z"/>
	<path style="fill-rule:evenodd;clip-rule:evenodd;fill:#010013;" d="M479.88,272.22c1.06-0.26,1.48,0.47,1.68,1.25
		c0.22,0.86-0.54,1.31-1.14,1.6c-0.58,0.28-1.26,0.03-1.42-0.66c-0.2-0.87-0.37-1.86,0.89-2.19c0.28,0.51-0.32,0.77-0.33,1.2
		c-0.02,0.36-0.06,0.75,0.34,0.94c0.32,0.16,0.52-0.09,0.72-0.28c0.32-0.31,0.3-0.64,0.04-0.96
		C480.41,272.8,480.04,272.6,479.88,272.22z"/>
	<path style="fill-rule:evenodd;clip-rule:evenodd;fill:#210C08;" d="M479.88,272.22c0.68,0.48,1.95,0.68,1.07,1.96
		c-0.26,0.38-0.63,0.95-1.27,0.53c-0.61-0.4-0.58-1.03-0.38-1.61c0.11-0.32,0.39-0.59,0.59-0.88
		C479.89,272.22,479.88,272.22,479.88,272.22z"/>
	<path style="fill-rule:evenodd;clip-rule:evenodd;fill:#DDCC1F;" d="M480.15,274.38c-0.58,0.05-0.56-0.42-0.6-0.65
		c-0.07-0.39,0.26-0.73,0.62-0.71c0.26,0.01,0.77,0.09,0.69,0.6C480.79,274.04,480.47,274.28,480.15,274.38z"/>
	<path style="fill-rule:evenodd;clip-rule:evenodd;fill:#222221;" d="M482.32,264.81L482.32,264.81c-2.45,0.5-4.92,0.15-7.38,0.18
		c-0.17,0-0.35-0.29-0.52-0.44c0.39,2.71,0.99,5.28,4.06,6.26c4.01-0.29,6.06-2.36,5.98-6.03
		C483.75,264.78,483.04,264.79,482.32,264.81z M479.29,270.13c-0.37-0.06-0.75-0.11-1.13-0.17c0.42-0.04,0.83-0.11,1.25-0.11
		c0.38,0,0.76,0.07,1.15,0.11C480.14,270.01,479.73,270.07,479.29,270.13z M483.24,267.68c-1.92,1.53-4.1,1.77-6.4,1.2
		c-0.92-0.23-1.92-2.14-1.72-3.04c0.11-0.52,0.49-0.31,0.75-0.31c1.24-0.02,2.48-0.01,3.72-0.01c1,0,2-0.02,3,0.01
		c0.43,0.01,1.25-0.14,1.24,0.14C483.78,266.34,483.89,267.16,483.24,267.68z"/>
</g>
</svg>
